<svg xmlns="http://www.w3.org/2000/svg" width="500" height="500" viewBox="0 0 132.29 132.29">
  <path d="m65.73 102.83-1.05.01-1.05.02v4.85c-.01 2.67 0 4.86.02 4.87h1.33l1.3-.01v-2.37c.02-2.26.02-2.37.1-2.27a198 198 0 0 0 2.62 3.23l1.11 1.38 1.07.03h1.1c.02 0 .04-2.2.04-4.87v-4.87H69.6l-.03 4.9-.22-.29-.55-.7-.58-.72-2.28-2.9zm-32.45 0-1.34.01-1.34.02-.01 4.81v4.87c.02.03 1.25.05 3.56.05h3.55v-2.33l-4.4-.03v-3.7zm48.32 0v2.36h2.8v3.68c0 2.02.02 3.69.03 3.7s.62.02 1.34 0h1.32l.03-7.38 1.38-.01 1.38-.02v-2.3zm9.23 0v4.86c0 2.67.01 4.87.02 4.88s.62.02 1.34 0h1.33v-4.87l.02-4.87h-2.71m13.55 0v4.86c0 2.67 0 4.87.02 4.88q.04.02.14.02c.06-.01 1.62-.02 3.46-.02h3.35v-2.31h-4.26v-1.56h3.51v-2.16h-3.51v-1.35h4.11v-2.36h-6.82m-50.17 0-.02 4.87c0 2.68 0 4.87.03 4.88h2.62l.01-1.5.02-1.48 1.01.03.87 1.4.91 1.47c.05.07 3.06.1 3.04.03-.01-.05-.63-1.07-1.49-2.46l-.58-.96c-.04-.07.02-.16.34-.49q.67-.68.88-1.57c.1-.41.1-1.19 0-1.58a3.5 3.5 0 0 0-2.6-2.58c-.19-.04-1.2-.06-2.67-.06zm41.45 0c-.78 0-1.42.01-1.42.03l.93 2.52 1.29 3.45 1.18 3.18.2.53 1.05.03 1.12.02c.1 0 .08.02 1.83-4.77l1.71-4.65.12-.34h-2.83l-.3 1.02-1.57 5.28-.65-2.1c-.02-.1-.4-1.4-1.03-3.48l-.21-.72zm-71.6 0-.9 2.42-2.68 7.12q-.05.1-.03.16c.02.05.4.06 1.42.05l1.4-.01.29-.91c.15-.5.3-.93.33-.96.02-.02.59-.04 1.3-.03l1.24.01.21.68.3.95.1.27h1.4l1.41-.01-.09-.27-.29-.79-.83-2.23-2.32-6.23-.08-.22h-2.18m12.68 0v2.36h2.81v3.68c0 2.02.01 3.69.03 3.7 0 .01.61.02 1.34.01h1.32l.01-3.7.01-3.69 2.79-.02.01-1.17.02-1.17h-8.34m9.24 0v4.86c0 2.67 0 4.87.02 4.88 0 .01 1.58.02 3.48 0h3.47v-2.31h-4.26v-1.56h3.5l.02-1.08.01-1.07H48.7v-1.36l2.05-.01 2.06-.01v-2.29c0-.03-1.17-.05-3.41-.05zm32.83 0-1.1.01-1.1.02-.41 1.1-.82 2.2a357 357 0 0 1-2.39 6.41c.01.01.66.02 1.44 0h1.42l.28-.92c.15-.5.3-.93.32-.95s.62-.04 1.3-.03l1.25.01.29.94.28.94 1.41.02c.78 0 1.42 0 1.42-.03s-.29-.83-.65-1.78l-.9-2.44-.51-1.38-1.03-2.78zm-21.95 2.35.93.02.92.02.18.17q.37.34.32.93-.05.58-.39.81c-.16.11-.22.12-1.03.12-.47 0-.87-.02-.9-.04a9 9 0 0 1-.03-1.03zm20.85.5.08.3c.17.58.75 2.8.75 2.86 0 .05-.2.06-.83.06-.45 0-.84-.02-.85-.04s.17-.75.41-1.6zm-52.55.06q.04.02.06.17l.4 1.54c.2.76.36 1.4.35 1.41 0 .02-.39.04-.84.04-.74 0-.83-.01-.83-.09l.25-.99.41-1.49c.09-.32.18-.59.2-.59m1.47 10.43c-.82 0-1.64.41-2.1 1.11-.37.57-.48.93-.48 1.56 0 .52.13 1.03.37 1.43a2.6 2.6 0 0 0 1.69 1.24 2.6 2.6 0 0 0 3-2.47 2.7 2.7 0 0 0-1.92-2.8 2 2 0 0 0-.56-.07m53.6 0q-.45 0-.81.13-1.18.42-1.18 1.66c0 .82.38 1.18 1.72 1.6.75.25.94.42.67.6-.24.18-.9.06-1.58-.28-.23-.11-.42-.2-.43-.18-.01 0-.16.29-.32.63-.23.46-.3.62-.25.66.16.13 1.05.43 1.54.52.07.02.42.02.78.02.82-.02 1.12-.12 1.5-.5.33-.33.43-.6.43-1.16 0-.88-.38-1.25-1.72-1.68-.58-.19-.76-.27-.8-.38q-.14-.33.41-.33.47 0 1.1.33l.28.12.33-.61.3-.6-.33-.14a4 4 0 0 0-1.63-.4m-22.53 0-.55.02-.56.01-.03 5.3h1.5v-2.51c.02 0 .15.14.28.3l.73.9.23.28.44.54.4.49h1.16v-2.66l-.02-2.66h-.72l-.71.02-.03 2.65-.15-.2-1.18-1.48zm6.66 0q-.3 0-.55.08a2.6 2.6 0 0 0-1.78 1.66c-.15.41-.16 1.32-.03 1.73a2.8 2.8 0 0 0 1.88 1.86c.44.1 1.23-.07 1.42-.29q.14-.16.14.11v.18h1.25v-1.4l.01-1.41H64.5v1.05h.43c.23 0 .42.02.42.04 0 .06-.41.34-.6.4q-.55.19-.99-.27c-.59-.61-.45-1.93.24-2.32.4-.23 1-.06 1.27.37q.1.16.15.17c.02 0 .22-.14.44-.32l.51-.4.11-.07-.1-.18a2.4 2.4 0 0 0-.77-.73c-.34-.17-.8-.26-1.24-.25m11.23 0c-.95.02-1.68.48-1.9 1.32-.14.56-.03 1.08.3 1.42.25.24.57.4 1.3.63.7.23.84.3.84.48q.01.22-.43.22c-.34 0-.64-.08-1.17-.33-.26-.12-.5-.2-.51-.18-.05.05-.6 1.16-.6 1.2 0 .12 1.05.49 1.6.58.28.05 1.12.03 1.37-.02q.86-.18 1.19-.9c.17-.36.18-1 .02-1.36-.22-.48-.58-.71-1.65-1.05-.65-.21-.77-.28-.77-.47 0-.17.1-.23.4-.23q.46 0 1.09.32l.28.13c.03 0 .64-1.14.64-1.18 0-.02-.18-.1-.4-.2a4 4 0 0 0-1.6-.37m28.59 0-2.25.02-2.24.01-.02.64-.01.64h1.56v4.01h1.45v-4h1.51v-1.31m6.73 0q-.62.01-1.08.28c-.52.3-.84.85-.84 1.45 0 .88.33 1.2 1.67 1.65.8.26 1 .44.71.62-.1.07-.2.08-.46.05-.4-.03-.64-.11-1.15-.36a2 2 0 0 0-.39-.16 12 12 0 0 0-.58 1.21c0 .13.92.48 1.56.6.07.02.42.02.78.02.54-.02.7-.04.95-.13.39-.15.78-.53.9-.88.1-.29.1-.9.02-1.2q-.19-.67-1.52-1.08c-.88-.28-1.03-.38-.96-.6.08-.24.68-.2 1.28.06l.48.21c.03.01.2-.25.37-.58l.31-.6-.33-.15q-.92-.4-1.72-.4m-77.93 0v1.46c0 1.45-.03 1.83-.19 2.14-.26.51-.99.63-1.34.2-.3-.34-.3-.37-.32-2.14l-.03-1.63h-1.44v1.62c.01 1.77.03 1.95.28 2.5.27.58.86 1.05 1.49 1.17 1.18.23 2.29-.25 2.73-1.17.23-.5.28-.9.28-2.58v-1.56h-1.46m-11.18 0c-.74 0-1.28.23-1.8.74-.49.5-.76 1.16-.76 1.87 0 1.25.8 2.4 1.9 2.69.75.2 1.7-.03 2.3-.55.17-.15.41-.5.41-.6 0-.03-1.08-.68-1.14-.68q-.05.02-.17.2c-.08.1-.23.23-.36.3-.74.36-1.44-.26-1.44-1.27q0-.98.6-1.29c.47-.24 1.01-.05 1.33.47.04.07.12.03.5-.25l.55-.4c.09-.06.1-.08.03-.2a2.4 2.4 0 0 0-.68-.69c-.33-.2-.84-.33-1.27-.33m13.44 0v2.5l-.01 2.6v.18c.01.03.3.05.74.05h.72l.02-1.27.01-1.26.52.65 1.03 1.26.5.62h1.19l-.02-2.65v-2.65h-1.46l-.03 1.3-.02 1.31-.23-.28-.45-.58-.82-1.03-.59-.74h-1.1m7.48 0c-.93 0-1.67.42-1.91 1.2-.18.56-.1 1.11.2 1.48q.32.36 1.44.71c.58.19.77.3.77.48q-.02.23-.58.19a3 3 0 0 1-1.16-.38c-.2-.1-.38-.17-.39-.16-.03.05-.58 1.22-.58 1.25 0 .1.85.41 1.58.57.2.05 1.13.03 1.39-.02a1.6 1.6 0 0 0 1.19-.9c.1-.23.13-.35.12-.7 0-.88-.35-1.25-1.6-1.66-.76-.25-.86-.3-.91-.42q-.07-.12.02-.22c.06-.09.12-.1.36-.1q.47 0 1.1.32c.15.07.29.11.3.09.06-.05.61-1.11.61-1.15l-.37-.2a4 4 0 0 0-1.58-.37m28.13 0c-.47 0-.54.02-.58.1a2691.96 2691.96 0 0 1-1.79 4.76l-.17.47h1.55l.15-.5.16-.5h.7l.71.02.15.49.15.49h.77c.43 0 .77-.01.77-.02l-.22-.62-.98-2.65a14 14 0 0 0-.78-2c-.03-.01-.3-.03-.59-.03m19.67.01q-.3 0-.56.07a2.6 2.6 0 0 0-1.82 1.81c-.12.42-.11 1.1.02 1.56.28.92 1.07 1.7 1.89 1.88.27.06 1 .02 1.29-.07q.45-.15.82-.43c.22-.18.48-.53.48-.65 0-.05-.15-.17-.34-.28-.19-.1-.44-.26-.56-.34-.21-.13-.23-.13-.28-.05-.03.05-.15.18-.26.3-.17.16-.26.21-.45.24-.46.07-.87-.19-1.09-.68-.14-.3-.15-.97-.02-1.34.12-.32.45-.65.71-.7.43-.08.9.12 1.07.46l.1.17.4-.28.56-.4.16-.12-.09-.16a3 3 0 0 0-.8-.74c-.34-.17-.8-.26-1.23-.25m-5.31 0c-.3 0-.63.06-.86.14-.36.12-.88.49-1.09.75-.21.27-.49.84-.56 1.14-.15.68-.02 1.5.33 2.08a2.6 2.6 0 0 0 1.68 1.22 2.6 2.6 0 0 0 2.97-2.22c.2-1.4-.67-2.77-1.97-3.06a2 2 0 0 0-.5-.05m-34.31 0h-.34l-.7.02v2.65l-.02 2.65h3.86v-1.31h-2.27c-.08 0-.08-.12-.08-1.94 0-1.07-.02-1.97-.05-2.01q-.01-.06-.4-.05m-5.5.02-.01 2.65-.01 2.65h3.81l-.01-.64-.02-.64-2.28-.03v-.8h1.91v-1.15h-1.91v-.76l2.23-.02v-1.26H45.4m8.83 0-.01 2.65-.02 2.65h1.49l-.02-2.65v-2.65h-1.44m38.98 0v2.65l-.02 2.65h1.46l-.02-2.65-.01-2.65h-1.4m3.78 0-.95 2.54-.98 2.64-.02.12h1.54l.14-.5.15-.5h1.41l.16.48.14.5h.79l.78.02-.82-2.22c-.46-1.22-.9-2.42-1-2.65l-.15-.43h-1.19m7.76 0v2.65l-.02 2.65h3.76v-.66c0-.6 0-.65-.08-.65h-2.23v-.37c0-.3.02-.38.08-.4s.48-.03.96-.03h.87l-.01-.58-.01-.58-.93-.01-.93-.01-.02-.36-.01-.37h2.27l-.02-.64-.01-.64h-3.67m-19.6 1.29c.67-.02 1.1.6 1.06 1.5q-.05.84-.62 1.15a.9.9 0 0 1-.8 0q-.66-.29-.65-1.28c0-.4.01-.49.15-.75.2-.4.44-.59.8-.62zm-58.62 0c.3-.01.62.12.8.38.22.32.3.62.27 1.09-.03.6-.22.96-.61 1.17-.46.25-1.04.05-1.28-.44-.3-.6-.23-1.48.16-1.9a1 1 0 0 1 .66-.3m71.05.3c.03.03.43 1.54.43 1.62 0 .07-.07.08-.45.08h-.45l.15-.54zm-26.72.08c.03-.03.45 1.46.45 1.58 0 .02-.2.04-.45.04a2 2 0 0 1-.45-.03c0-.07.42-1.55.45-1.59" style="stroke-width:.18963"/>
  <path d="M66.29 10.75q-.14-.03-.32.07-.22.1-.27.27a1 1 0 0 1-.26.3c-.1.07-.24.23-.3.34s-.16.25-.24.3q-.27.23-.41.44l-.33.38c-.53.55-.76.8-.85.95q-.18.28-.37.37a.5.5 0 0 0-.18.23 1 1 0 0 1-.2.25c-.2.15-.26.22-.49.51-.1.15-.23.29-.28.3q-.2.1-.21.23c0 .06-.1.18-.44.5q-.2.2-.21.27c0 .04-.29.32-.33.32q-.1.02-.28.35c-.05.11-.15.22-.2.23-.1.03-.4.37-.4.45 0 .06-.27.33-.32.33-.06 0-.23.2-.31.38q-.08.16-.17.2a1 1 0 0 0-.26.23l-.43.47c-.14.15-.26.3-.26.32 0 .04-.14.2-.32.37s-.34.37-.38.45q-.07.13-.13.14c-.08 0-.3.2-.39.37q-.1.2-.4.46l-.19.23c-.06.1-.2.23-.28.3s-.21.2-.28.32c-.11.2-.31.43-.4.43q-.04.01-.13.13a4 4 0 0 1-.37.43c-.16.15-.3.33-.32.38-.01.06-.14.2-.28.31-.14.12-.3.3-.35.4a1 1 0 0 1-.29.31 1 1 0 0 0-.3.33 1 1 0 0 1-.26.3q-.17.12-.24.26c-.04.07-.18.23-.3.36-.14.12-.29.29-.34.37a1 1 0 0 1-.18.22q-.09.06-.1.14 0 .06-.04.05-.05-.02-.17.13c-.16.2-.68.76-1.03 1.12-.14.14-.26.28-.26.31 0 .06-.23.3-.47.48q-.17.13-.18.22c0 .04-.12.18-.26.31-.24.23-.36.39-.42.57q-.03.09-.1.1c-.08 0-.3.2-.4.37a3 3 0 0 1-.34.4c-.68.7-.89.94-.97 1.07q-.09.15-.16.16-.05 0-.06.07t-.07.08q-.09.01-.16.16c-.05.09-.2.27-.36.4-.14.14-.3.33-.35.42-.04.1-.18.24-.3.33-.12.08-.22.18-.22.21q0 .08-.1.2-.08.11-.06.16.03.03-.01.02c-.13-.02-.29.08-.39.25-.06.1-.22.3-.36.43a3 3 0 0 0-.52.63q-.02.05-.07.05c-.06 0-.3.28-.35.4a.3.3 0 0 1-.15.15 1 1 0 0 0-.24.24c-.07.1-.25.31-.4.46a4 4 0 0 0-.45.52c-.09.13-.2.24-.23.24q-.07.02-.18.18c-.11.2-.54.62-.61.62q-.04 0-.04.07c0 .1-.3.43-.38.43q-.06 0-.07.07c0 .03-.17.24-.38.46l-.45.52a2 2 0 0 1-.32.35c-.14.11-.26.25-.26.3s-.1.16-.21.25c-.12.09-.29.27-.36.39s-.23.3-.34.38c-.1.08-.22.22-.27.3-.04.1-.19.25-.32.36-.14.1-.25.22-.25.27s-.1.16-.2.25c-.12.09-.3.28-.42.43-.2.26-.35.41-.9.99-.16.16-.29.32-.29.35s-.14.2-.31.38c-.54.54-.76.79-.87.95-.05.1-.22.27-.36.4a1 1 0 0 0-.26.29c0 .03-.16.2-.36.4s-.35.38-.35.42q0 .07-.04.07c-.07 0-.45.4-.48.5a.4.4 0 0 1-.17.19q-.23.15-.42.47c-.04.07-.17.21-.3.3-.12.1-.25.24-.28.32a1 1 0 0 1-.24.28c-.09.07-.22.2-.28.3s-.25.3-.4.44c-.17.15-.3.3-.3.34q-.02.08-.22.25c-.13.1-.28.27-.34.38s-.14.2-.17.2-.07.02-.07.06q0 .06-.09.1c-.05 0-.12.08-.16.15-.04.08-.23.3-.44.51-.2.2-.36.4-.36.44q-.01.07-.16.16a1 1 0 0 0-.27.27c-.06.1-.24.3-.4.45-.15.14-.28.3-.28.33s-.12.18-.27.32-.28.27-.28.3c0 .06-.27.36-.33.36s-.32.32-.32.39c0 .02-.16.2-.35.39-.72.73-.8.8-.87.96a1 1 0 0 1-.26.27c-.1.06-.23.2-.3.32s-.22.3-.35.4a1 1 0 0 0-.26.29c-.02.09-.25.35-.3.35-.06 0-.28.26-.39.47-.12.25-.13.5-.03.56q.05.02.05.11c0 .05.16.24.35.43.2.19.35.37.35.41 0 .07.4.42.48.42q.05.02.11.18c.04.1.15.24.26.33.1.08.28.28.38.42.1.15.26.3.34.35q.12.09.14.16c0 .04.14.21.32.39.18.17.33.33.33.36s.15.19.32.36.33.34.33.38c0 .07.15.22.37.36q.12.09.16.2c.02.05.19.25.38.44s.35.37.35.4q.01.07.17.18c.1.06.24.22.33.36s.22.27.28.3a1 1 0 0 1 .17.18q.06.11.1.12t.12.15q.1.15.23.23t.15.15q0 .08.07.1.07.05.13.17c.03.07.14.2.25.27s.24.21.28.3c.04.07.2.26.34.4s.31.34.37.43q.11.15.33.2l.24.06c.05 0 .35-.34.35-.4 0-.01.11-.15.25-.29.13-.14.28-.32.32-.4q.08-.16.15-.16c.04 0 .13-.07.19-.15.3-.36.34-.43.34-.47q.01-.03.05-.03c.07 0 .35-.32.44-.48a1 1 0 0 1 .24-.22q.17-.1.18-.17c0-.03.18-.25.4-.49s.4-.44.4-.46.12-.16.27-.3.33-.33.4-.42c.05-.1.16-.2.22-.23q.1-.06.11-.1l.09-.15.18-.21 1.14-1.27.22-.26.55-.58c.18-.18.33-.37.33-.39s.14-.19.31-.37c.53-.54.97-1.03 1.04-1.16q.08-.1.13-.12c.03 0 .12-.08.18-.17.07-.1.28-.34.46-.54l.56-.62.54-.58c.16-.18.33-.38.37-.46a1 1 0 0 1 .22-.22 1 1 0 0 0 .22-.22c.05-.08.19-.25.32-.38l.38-.45.41-.46a31 31 0 0 0 1.13-1.22c.17-.18.3-.34.3-.37s.15-.18.32-.35.35-.37.38-.44q.07-.13.15-.17c.05-.01.17-.14.28-.28.11-.13.32-.38.47-.53l1.7-1.9c.18-.19.36-.41.4-.49q.08-.12.15-.13t.13-.12c.04-.07.24-.29.43-.49.2-.2.38-.43.41-.51q.06-.13.1-.14c.06 0 .55-.5.55-.55a10.45 10.45 0 0 0 .79-.86c.06-.04.18-.17.27-.3l.4-.46c.13-.13.29-.31.35-.41q.12-.17.2-.2c.04-.02.15-.14.25-.27s.27-.33.38-.44a14 14 0 0 0 1.1-1.22l.17-.17.8-.93c0-.02.08-.1.16-.16l.15-.16a50.83 50.83 0 0 0 1.6-1.85q.01-.05.07-.05.07-.01.15-.11c.07-.11.18-.25.71-.84.14-.16.29-.33.33-.4q.07-.09.11-.1c.05 0 .34-.31.34-.36 0-.02.12-.16.26-.31.72-.74.94-.99.94-1.03 0-.03.15-.2.32-.37a20 20 0 0 0 .99-1.08 53 53 0 0 0 1.38-1.56 13 13 0 0 0 1.18-1.31l1.5-1.71c0-.11.18-.3.33-.35.08-.03.28-.07.44-.08.27-.03.3-.02.44.14.08.09.15.2.15.24 0 .08.32.45.45.53q.09.06.17.17c.1.15.5.61.88 1l.42.5c.08.11.18.21.22.21q.06.01.22.24c.16.24.23.32.77.89.16.16.34.37.41.45.16.2.62.7.99 1.08.16.17.28.33.28.36 0 .06.39.44.45.44q.04.02.18.23c.08.12.22.28.3.35.1.07.22.21.29.33.06.1.13.2.15.2.05 0 .44.38.44.44 0 .03.16.21.35.4.2.2.35.4.35.43s.1.12.2.2.24.23.31.33.2.25.3.31q.18.12.2.2c0 .05.14.24.31.41.17.18.4.43.5.56.11.12.23.23.26.23q.05.01.17.19.16.3.98 1.1c.16.17.29.32.29.35 0 .07.36.41.43.41q.06 0 .06.04c-.03.09.26.46.43.56q.16.11.18.18c0 .1.4.53.48.53q.07 0 .1.09t.07.11l.08.13c.03.05.13.15.22.2.1.07.2.2.25.31s.23.31.4.46.3.3.3.34c0 .03.1.15.23.25s.27.25.32.33c.04.07.19.24.31.37l.38.45c.1.1.22.23.3.27s.16.14.2.22c.1.22.3.43.39.43q.07.02.13.14c.06.15.33.46.4.47.01 0 .09.08.15.18.07.1.26.32.42.47.16.16.29.3.29.33 0 .08.35.42.42.42q.08.01.12.14c.05.14.24.36.5.56q.15.12.16.2c0 .1.21.35.39.46q.16.1.16.15.02.06.17.23l.9.97q.06.02.16.18c.06.1.22.29.37.41.14.13.26.26.26.3 0 .07.32.41.4.41q.04.02.12.14c.04.08.21.29.38.47s.32.36.33.4q.05.1.23.23c.1.07.25.22.3.32.06.11.2.27.3.35.11.09.23.22.28.3.04.1.2.28.36.43s.32.32.35.39q.08.11.26.25c.1.08.22.2.26.28.04.07.2.26.34.41.39.4.73.79.9 1.03.08.12.24.27.35.35.12.08.2.18.2.21 0 .04.14.2.31.36.17.17.3.33.3.35q-.02.05.43.44.1.1.19.25c.04.08.14.2.21.25.2.13.43.38.43.45 0 .03.1.16.23.28s.3.3.37.4c.06.1.18.22.26.27q.13.08.14.15 0 .06.04.08t.18.21c.07.1.22.24.31.3.1.06.19.16.2.21.05.14.19.32.25.33.06 0 .32.27.32.34 0 .05.3.37.4.44.05.02.16.15.25.28s.22.28.3.34c.1.06.2.18.24.26.07.15.35.45.42.45q.05.01.2.25c.09.14.22.28.3.32s.23.2.33.38c.11.16.22.3.26.3.06 0 .36.36.37.43q.01.06.15.17c.2.16.47.12.66-.11.18-.22.66-.75.93-1.03.11-.13.25-.3.3-.38.06-.09.22-.26.36-.38s.25-.24.25-.27.16-.22.35-.4c.2-.2.37-.4.38-.43a1 1 0 0 1 .25-.26q.2-.17.23-.24c0-.04.14-.21.32-.39a2 2 0 0 0 .42-.52q.05-.02.17-.14.48-.49.5-.54c0-.02.09-.13.2-.24.13-.12.25-.27.3-.35q.06-.13.12-.14.08-.01.2-.19c.14-.17.56-.64 1.14-1.25.13-.14.24-.28.24-.3 0-.03.1-.14.23-.25.12-.1.3-.3.4-.45s.2-.27.23-.27c.07 0 .33-.3.42-.5l.16-.26c.07-.08.06-.12-.09-.4a3 3 0 0 0-.39-.54c-.13-.12-.29-.3-.36-.41s-.2-.25-.3-.32-.2-.19-.25-.27c-.1-.15-.4-.5-.85-.96l-.5-.57c-.12-.16-.24-.28-.28-.28q-.06-.01-.15-.16a9 9 0 0 0-.91-1.04l-.39-.45c-.07-.1-.2-.25-.3-.32q-.16-.13-.18-.21c0-.08-.4-.47-.52-.51q-.07-.04-.08-.11c0-.05-.16-.25-.36-.45s-.35-.38-.35-.4l-.27-.3a2 2 0 0 1-.28-.3c0-.03-.13-.18-.29-.35a60 60 0 0 1-1.85-2.06l-.6-.64c-.13-.16-.39-.44-.56-.61a2 2 0 0 1-.31-.37c0-.02-.1-.15-.24-.3l-.6-.62c-.2-.22-.37-.42-.37-.45q-.02-.06-.17-.19a1 1 0 0 1-.18-.15c0-.05-.22-.3-.56-.65a2 2 0 0 1-.29-.33c0-.07-.27-.35-.36-.39-.05-.01-.12-.1-.15-.17a2 2 0 0 0-.32-.39c-.37-.37-1.4-1.51-1.63-1.81-.09-.1-.21-.23-.28-.27a1 1 0 0 1-.2-.23 2 2 0 0 0-.28-.35c-.12-.11-.3-.32-.42-.46-.1-.15-.22-.27-.26-.27q-.06-.02-.2-.2a4 4 0 0 0-.4-.5 4 4 0 0 1-.4-.46c-.07-.1-.16-.2-.2-.2q-.07 0-.1-.08c-.04-.1-.26-.35-.5-.58-.1-.08-.17-.2-.17-.24q0-.09-.07-.1-.07 0-.15-.12a.4.4 0 0 0-.18-.15c-.05-.02-.14-.1-.18-.2s-.2-.28-.34-.42-.3-.3-.35-.38l-.3-.37-.72-.77a5 5 0 0 0-.53-.54c-.02 0-.1-.1-.18-.22a4 4 0 0 0-.39-.47c-.39-.4-.8-.87-1-1.12-.09-.13-.22-.26-.3-.3q-.12-.07-.13-.14c0-.07-.32-.41-.38-.41q-.05-.02-.17-.2c-.06-.1-.24-.32-.4-.49a161 161 0 0 1-2.43-2.71c-.35-.36-.43-.46-.43-.52q0-.04-.04-.05c-.06 0-.27-.18-.36-.32a15 15 0 0 0-1.1-1.26c0-.03-.16-.22-.23-.28l-.23-.2q-.17-.17-.23-.26c-.06-.12-.56-.68-.93-1.05-.16-.16-.3-.31-.3-.33 0-.06-.4-.44-.4-.38q0 .02-.08-.12c-.04-.1-.22-.32-.4-.5a2 2 0 0 1-.32-.37c0-.05-.22-.27-.42-.42q-.12-.09-.13-.15c0-.03-.14-.2-.32-.39a2 2 0 0 1-.33-.38q-.02-.07-.2-.22l-.34-.37-.49-.55-.54-.6-.5-.53a2 2 0 0 1-.29-.35c0-.02-.13-.19-.3-.36-.45-.47-.55-.58-.55-.64q0-.05-.07-.05-.08-.01-.17-.13l-.22-.29q-.13-.14-.14-.2c-.01-.05-.04-.04-.1-.06a1 1 0 0 1-.25-.26c-.19-.25-.38-.47-.93-1.04a2 2 0 0 1-.33-.38c0-.03-.13-.18-.29-.35a34 34 0 0 1-1.15-1.23 2 2 0 0 1-.26-.31c0-.06-.3-.37-.47-.5q-.12-.09-.14-.16c0-.03-.13-.19-.29-.35l-.34-.37c-.05-.1-.47-.57-.9-1.01l-.37-.42q-.13-.15-.26-.18m-.15 21.87c-.2.03-.4.12-.4.18q-.01.05-.1.15l-.92 1.01-2.64 2.88-.32.37c-.06.07-.35.4-.64.7-.7.74-1.04 1.13-1.17 1.3-.06.08-.23.27-.38.42a13 13 0 0 0-.86.94c-.1.1-.19.22-.19.24q-.01.04-.13.1a1 1 0 0 0-.22.24c-.06.09-.2.25-.32.35s-.25.25-.3.32c-.11.17-.64.75-1.02 1.12-.18.17-.32.33-.32.35 0 .03-.13.18-.29.34-.74.76-.86.89-.86.93 0 .02-.14.18-.3.34-.17.16-.31.33-.33.37a1 1 0 0 1-.23.23c-.12.08-.25.22-.3.32q-.1.15-.15.16-.05 0-.05.07-.01.06-.16.16a1 1 0 0 0-.25.28c-.09.16-.42.5-.5.5q-.03.02-.1.15a1.4 1.4 0 0 1-.48.5.4.4 0 0 0-.14.16c-.02.05-.14.2-.27.32s-.28.3-.33.4c-.05.08-.2.23-.32.33-.13.1-.28.26-.34.37a1 1 0 0 1-.21.26c-.15.07-.3.22-.3.29 0 .03-.13.17-.29.3-.15.14-.34.36-.43.5-.08.12-.18.23-.2.23-.08 0-.4.33-.4.41q-.01.07-.17.2c-.1.06-.23.2-.3.32-.17.24-.3.36-.51.52-.1.06-.17.16-.17.2 0 .11-.23.36-.34.36q-.05 0-.06.05t-.07.05-.1.13c-.02.07-.18.27-.36.44-.18.18-.32.35-.32.39s-.12.15-.25.25-.3.28-.39.4c-.07.11-.18.24-.24.27a1 1 0 0 0-.33.39q-.06.12-.1.14c-.07 0-.38.32-.47.47a1 1 0 0 1-.21.25l-.22.2-.45.48c-.2.2-.35.4-.35.44q-.01.06-.08.1-.06.02-.07.08c0 .03-.1.12-.2.2a1 1 0 0 0-.24.22c-.04.11-.27.37-.33.37s-.24.2-.24.25a1286.12 1286.12 0 0 1-.9.98 3 3 0 0 0-.37.47q-.08.13-.13.15c-.07 0-.3.24-.45.45-.15.2-.35.4-.43.4-.03 0-.1.1-.15.2q-.08.19-.13.2c-.05 0-.55.53-.62.66a1 1 0 0 1-.2.2 1 1 0 0 0-.22.25c-.06.1-.22.28-.36.4s-.25.24-.25.27-.15.2-.32.37a2 2 0 0 0-.38.43q-.06.13-.14.17c-.14.05-.52.5-.52.61q0 .05-.12.09c-.06.01-.19.13-.28.25-.08.12-.3.38-.5.57a24 24 0 0 0-1.06 1.16 4 4 0 0 0-.5.6c-.04 0-.31.27-.46.47l-.36.4c-.27.28-.61.68-.68.8-.03.03-.05 5.28-.05 11.66v11.6l.11.12.12.1h11c6.05 0 11.03-.03 11.05-.04a.4.4 0 0 0 .1-.16c.03-.08.05-6.04.05-15.66 0-8.55.02-15.63.04-15.74q.03-.2.15-.25.1-.05.1-.09c0-.02 4.76-.04 10.57-.04h10.56l.15.14c.09.07.15.17.15.22q0 .08.03.1c.02.02.03 7.07.03 15.68 0 13.08 0 15.66.06 15.74.07.08.58.09 11.13.09 10.9 0 11.05 0 11.14-.1s.1-.56.1-11.72c0-9.32-.02-11.64-.07-11.71-.11-.16-.6-.72-.9-1l-1.1-1.21-.75-.83c0-.02-.14-.17-.31-.34s-.39-.4-.47-.52l-.44-.5c-.16-.16-.28-.32-.28-.36s-.06-.07-.12-.1c-.06 0-.16-.09-.2-.17a4 4 0 0 0-.41-.48q-.46-.48-1.15-1.24l-.56-.61-.42-.48-.33-.37a44 44 0 0 1-1.5-1.65c-.1-.13-.24-.26-.3-.29a.5.5 0 0 1-.18-.2c-.07-.16-.2-.3-.5-.54q-.13-.12-.15-.18c0-.07-.23-.33-.29-.33s-.28-.25-.37-.42a1 1 0 0 0-.25-.27c-.1-.08-.25-.22-.32-.33a2 2 0 0 0-.33-.36 1 1 0 0 1-.23-.24 8 8 0 0 0-.97-1.06 1 1 0 0 1-.25-.31c0-.03-.15-.19-.33-.34a2 2 0 0 1-.33-.35c0-.08-.26-.33-.34-.33q-.06-.02-.19-.28c-.07-.15-.15-.27-.18-.27-.12 0-.44-.29-.5-.44a1 1 0 0 0-.18-.25c-.24-.16-.32-.24-.41-.42a1 1 0 0 0-.26-.3c-.19-.13-.34-.3-.34-.36s-.28-.34-.34-.34q-.06-.01-.21-.24a3 3 0 0 0-.43-.48 1 1 0 0 1-.28-.3c0-.07-.2-.28-.27-.28-.06 0-.27-.26-.38-.47q-.07-.12-.12-.14c-.09 0-.3-.2-.42-.4-.06-.1-.2-.26-.32-.35a1 1 0 0 1-.28-.34q-.07-.15-.1-.16c-.09 0-.52-.44-.52-.52q-.01-.08-.13-.17c-.2-.13-.29-.21-.44-.45a1 1 0 0 0-.25-.27 1 1 0 0 1-.26-.27 4 4 0 0 0-.4-.46 50 50 0 0 1-1.75-1.9l-.45-.52q-.15-.18-.21-.2c-.03 0-.12-.1-.2-.2-.07-.1-.24-.28-.37-.4-.13-.13-.29-.31-.35-.4s-.23-.29-.37-.43a37 37 0 0 1-1.67-1.81 39 39 0 0 1-1.39-1.54l-.66-.72-.48-.53a18 18 0 0 1-.85-.95l-2.82-3.07c-.2-.22-.25-.24-.4-.21zm43.58 26.23q-.02 0-.02.08 0 .11.03.06v-.12zM73.9 76.74c-.27 0-.28 0-.6.33-.18.18-.33.36-.33.4 0 .03-.03.13-.07.2-.2.38.08 1 .59 1.34.18.12.25.14.49.13.26-.02.3-.04.56-.3.16-.15.29-.31.29-.35q0-.08.07-.17c.1-.13.1-.56 0-.8-.09-.21-.53-.68-.64-.68q-.08 0-.09-.05c0-.03-.12-.05-.27-.05m-7.75 16.7c-33.17 0-36.2.01-36.28.09s-.09.19-.07 1.56l.02 1.5h72.66v-1.5c.01-1.27 0-1.5-.06-1.57-.07-.07-4-.07-36.27-.08" style="fill:#6896d1;stroke-width:.18963"/>
</svg>
