<svg xmlns="http://www.w3.org/2000/svg" xml:space="preserve" viewBox="0 0 79.375 52.917">
  <path d="M63.9 53.193c-.535-.242-.869-.6-.976-1.046-.168-.703.09-1.326.95-2.289 1.075-1.204 1.23-1.464.874-1.464-.255 0-.779-.345-1.01-.664-.243-.336-.28-.464-.368-1.301l-.049-.458.432-.039c.238-.021.56-.1.718-.175.432-.207 1.057-.664 1.202-.879.07-.105.14-.205.153-.223.014-.017.167.097.341.254.253.228.41.297.778.343.254.032.57.034.704.004.134-.029.243-.019.243.023 0 .088-.72 1.062-1.114 1.506-.306.345-.333.453-.128.519.64.206 1.115.552 1.253.914.043.114.052.505.02.897-.066.82-.1.863-1.099 1.4-.367.199-.842.517-1.054.708-.383.344-.59.424-.69.265-.089-.146-.676-.407-.913-.407-.318 0-.812.426-.91.785-.145.521.154.98.847 1.299.224.103.352.19.285.19-.067.003-.287-.07-.489-.162zm2.526-3.372c0-.375-.023-.74-.05-.813-.078-.202-.473-.37-.869-.37-.338 0-.377.026-.774.509-.23.28-.51.616-.625.746-.247.281-.213.368.072.182.401-.263 1.364-.077 1.96.38.089.068.19.106.224.085.034-.02.062-.345.062-.72zm.036-3.105c.204-.25.371-.502.371-.558 0-.076-.15-.093-.591-.064-.43.027-.677.002-.906-.094-.296-.124-.702-.178-.702-.094 0 .02.077.243.17.495.198.527.509.77.986.77.267 0 .343-.05.672-.455zm-27.034 5.742c-.394-.094-.807-.344-1.024-.62-.531-.675.29-2.144 1.405-2.515.593-.197 2.482-.108 3.214.15.504.179.508.18.627.019.329-.442.335-.51.079-.834-.137-.172-.471-.423-.768-.576-.548-.283-.592-.286-1.556-.128-.257.042-.306.024-.354-.13-.103-.323.028-.717.288-.87.2-.12.336-.353.203-.353-.21 0-.973.382-1.075.538-.152.232-.115.695.087 1.1.072.144.116.277.097.296-.04.04-1.043-.69-1.127-.822-.175-.274.044-1.32.36-1.724.1-.127.476-.364.85-.537.622-.287.672-.328.665-.548-.014-.503.634-1.093 1.897-1.726a14.019 14.019 0 0 0 1.336-.762l.567-.392c.193-.133-.059-.143-.736-.03-.398.067-1.494.157-2.435.2-2.14.096-2.723.26-3.03.855-.272.524-.057 1.173.46 1.387.159.066.242.122.184.125-.209.008-.745-.326-.94-.586-.274-.365-.544-.918-.544-1.115 0-.376.364-1.114.75-1.523.496-.524 1.05-.776 1.816-.826.528-.034.675-.002 1.956.427 1.443.485 2.153.623 2.35.46.062-.052.174-.31.248-.573.142-.508.297-.706.492-.632.1.039.08.163-.12.758-.133.391-.241.747-.241.79 0 .111.758.006 1.054-.147.137-.071.249-.116.249-.1 0 .061-.816.554-1.054.637-.137.048-.25.12-.25.16 0 .041-.307.016-.307.016-.273.175-.954.559-1.143.743-.129.126-.335.955-.339 1.365-.003.305.473 1.436.674 1.603.083.069.218-.022.589-.397.264-.267.537-.486.605-.487.213 0 .94-.46 1.201-.758.399-.454.489-.476 1.11-.267.654.22.986.511 1.246 1.09.31.691.272 1.32-.14 2.286-.85 1.987-.98 2.42-.98 3.246 0 .565.098.814.361.92.135.055.063.074-.29.077-.414.005-.491-.02-.652-.214a22.43 22.43 0 0 0-.539-.61l-.355-.389.099-.836c.054-.46.13-.99.17-1.175.121-.568.168-2.13.074-2.478-.102-.378-.31-.532-.818-.606-.308-.045-.42-.022-.664.136a2.11 2.11 0 0 0-.507.516c-.209.317-.213.35-.16 1.19.062.988-.034 1.54-.34 1.955a1.521 1.521 0 0 0-.178.346l.625-.01.057-.06.155.01s.233-.242.24-.282c.02-.108.08-.264.08-.264s-.083-6.043-.044-6.494c.05-.591.164-.755.146-.03-.01.4.002 4.277.002 4.277l1.497.028v.171l-1.514-.036.027 2.255-.073.145-.014.303c-.091.227-.359.623-.91 1.015-.467.332-.492.915-.585 1.057l-.906-.423-.263-.02-.836.685c-.716.588-1.521.772-2.38.568zm2.516-.856c-.016.009.502-.42.502-.42s.113-.085-.023-.128c-.166-.053-.633-.067-1.255-.1-1.163-.063-1.424.01-1.71.478-.207.34-.2.518.024.64.452.245 1.546.01 1.561.004zm28.574-.027c-.588-.145-1.23-.783-1.406-1.396-.09-.316-.104-2.118-.026-3.473l.052-.913.335.046c.615.084.96-.077 1.54-.717.593-.657.68-.673 1.22-.226.388.322.628.788.628 1.222 0 .323-.04.377-.966 1.286-.53.522-1.007 1.029-1.059 1.127-.118.226-.12.982-.003 1.318.1.289.652.663.976.662.293 0 .714-.29.775-.534.03-.117.013-.352-.038-.52-.125-.418-.117-.493.054-.493.23 0 .342.168.342.51 0 .438-.088.573-.9 1.379-.76.753-.978.856-1.525.722zm.836-3.922c.565-.534.622-.767.3-1.232-.372-.537-.647-.768-.77-.645-.138.138-.197 2.292-.063 2.292.052 0 .292-.187.533-.415zM51.4 51.385c-.178-.1-.458-.36-.622-.578-.275-.363-.302-.45-.348-1.098a49.443 49.443 0 0 1-.064-2.206l-.014-1.5.402-.007c.494-.007 1.022-.32 1.653-.982.469-.491.622-.535 1.13-.323.367.153.608.37.944.851l.256.367v4.399l-.692.048c-.381.026-.749.073-.817.103-.068.03-.285.293-.482.583-.343.506-.372.528-.69.527-.193 0-.47-.078-.656-.184zm1.758-1.817c.083-1.442.078-3.103-.009-3.332-.121-.32-1.036-.685-1.17-.468-.032.05-.086 3.819-.06 4.151.014.183.885.625 1.107.562.045-.013.105-.423.132-.913zm3.828 1.676c-.7-.553-.696-.534-.742-3.126-.04-2.243-.043-2.272-.224-2.392-.1-.067-.183-.148-.183-.18s.162-.174.361-.317c.2-.143.384-.329.41-.414.089-.277.297-.273.593.012.543.521.545.533.558 2.893l.011 2.137.194.166c.311.266.65.424.815.38.254-.066.171.052-.248.352-.219.157-.462.404-.54.55-.2.371-.48.354-1.005-.06zm2.855.004c-.646-.627-.664-.709-.666-2.994 0-1.11-.023-2.103-.05-2.205-.028-.103-.16-.244-.294-.313l-.243-.126.56-.518c.307-.286.584-.52.616-.523.092-.006.63.489.74.68.067.117.111.857.139 2.33.03 1.583.07 2.21.149 2.349.06.104.29.275.514.378l.406.188-.318.229a2.075 2.075 0 0 0-.496.538c-.15.262-.22.31-.451.31-.208 0-.353-.077-.606-.323zm-13.047-14.86c0-.02.094-.216.208-.436.318-.613.366-1.252.36-4.74a688.078 688.078 0 0 1-.003-3.426c.003-.111-.07-.35-.16-.53l-.165-.328.272-.244a4.46 4.46 0 0 0 .5-.55c.127-.168.271-.304.322-.302.104.004.526.554.736.959.076.147.183.285.238.306.21.08.934-.368 1.317-.816.259-.302.448-.452.572-.452.25 0 .985.673 1.09 1 .109.334.108 2.978 0 3.536-.108.551-.448 1.047-.895 1.303-.756.433-.685.627-.685-1.866v-2.199l-.282-.235c-.364-.304-.578-.298-.924.029l-.28.264-.008 1.7c-.005.936-.03 1.768-.056 1.85-.11.345.254.583 1.183.774.157.033.24.075.183.095-.057.02-.217.2-.356.403-.2.29-.289.357-.427.322a38.875 38.875 0 0 0-.396-.098l-.222-.054-.022 1.496c-.022 1.503-.07 1.71-.292 1.262-.134-.27-.205-.27-.423.007-.242.308-1.385 1.108-1.385.97zm-32.061-3.484c-.233-.113-.442-.49-.442-.798 0-.291.272-.862.785-1.65.207-.317.355-.641.355-.774 0-.368.34-1.737.419-1.688.04.025.057.072.036.105-.064.104.094.278.195.216.053-.033.166-.221.25-.418.168-.392.308-.448.47-.19.14.225.454.182.49-.066.02-.143-.016-.185-.163-.193a1.914 1.914 0 0 0-.248 0c-.033.005.05-.163.183-.373.368-.58.295-.74-.217-.473-.341.178-.456.154-.76-.16-.269-.277-.272-.29-.173-.622.09-.297.084-.374-.045-.614-.136-.252-.436-.384-.436-.19 0 .046-.087.123-.193.17-.24.11-.618-.064-.775-.356-.095-.178-.075-.26.191-.788.164-.325.286-.663.272-.752-.023-.153-.045-.148-.353.076-.608.441-.649.45-.932.213-.35-.295-.51-.625-.417-.861.04-.104.243-.405.45-.67.208-.265.348-.512.311-.548-.036-.037-.205-.029-.375.018-.667.185-1.193-.202-1.193-.878 0-.32.041-.411.316-.686.304-.304.336-.316.862-.316.665 0 .68-.124.045-.366-.345-.132-.468-.23-.595-.474-.152-.293-.153-.324-.024-.66.255-.67.597-.81 1.19-.487.273.149.436.196.491.141.18-.18-.277-.525-1.443-1.088-1.51-.727-2.407-1.345-3.348-2.305-.854-.87-1.023-1.183-1.163-2.154-.159-1.097-.383-.768-.298.438.036.504.023.682-.05.681-.253-.002-.952-.429-1.316-.804l-.404-.417h.383c.212 0 .384-.034.384-.075 0-.042-.21-.172-.468-.29-.515-.235-.962-.625-1.342-1.171-.198-.285-.225-.37-.135-.427a.468.468 0 0 1 .174-.072c.133-.003.05-.164-.084-.164-.263 0-.493-.239-.746-.775-.32-.678-.318-.724.035-.667.358.058.368-.059.02-.239-.336-.174-.426-.286-.707-.885-.183-.389-.412-1.164-.412-1.391 0-.021.09.02.2.092.109.072.256.119.326.104.1-.021.06-.135-.196-.55-.402-.652-.5-1.097-.438-1.977l.048-.688.194.193c.106.106.223.175.26.152.037-.023.114-.31.172-.636.132-.747.296-1.067.791-1.543.418-.401.987-.747.9-.546-.54 1.237-.71 2.009-.71 3.222.002 1.682.641 3.483 1.933 5.441 1.367 2.073 2.407 3.042 5.277 4.916 2.663 1.739 2.903 1.905 3.376 2.344.514.475.982 1.112.982 1.334 0 .075-.095.224-.211.333-.252.235-.4.482-.288.482.042 0 .34-.22.662-.489 1.131-.945 2.23-1.407 3.71-1.561 1.83-.191 3.485.104 5.08.906l.653.328.237-.345c.617-.896 1.645-1.689 5.067-3.906 1.044-.676 1.767-1.273 2.7-2.233 1.266-1.3 1.942-2.259 2.664-3.778 1.087-2.286 1.242-3.958.57-6.138-.135-.441-.225-.823-.2-.848.077-.077.607.247.91.557.3.308.623 1.11.728 1.813.064.424.125.464.305.196.067-.1.15-.156.185-.123.087.084.151 1.614.083 1.978-.037.196-.186.44-.426.697-.443.474-.44.632.009.404.175-.09.332-.151.347-.136.033.033-.194.974-.318 1.314-.175.485-.48.843-.846.993-.547.225-.46.358.124.19.154-.044.294-.066.31-.049.064.063-.481 1.04-.743 1.333-.149.167-.296.407-.327.534-.149.612-.785 1.278-1.48 1.546-.266.104-.474.222-.462.265.012.042.211.063.443.047l.42-.029-.422.443c-.412.43-.994.796-1.27.796-.123 0-.13-.09-.08-.936.041-.697.031-.937-.04-.937-.125 0-.149.074-.288.878-.162.94-.38 1.332-1.184 2.136-1.057 1.056-2.577 2.02-3.85 2.438-.369.121-.616.26-.754.425-.408.485-.209.612.428.273.21-.112.44-.203.512-.203.26 0 .728.7.728 1.088 0 .243-.343.55-.88.788-.429.19-.386.264.209.354.854.13 1.16.397 1.16 1.014 0 .553-.446.91-1.134.91-.178 0-.348.04-.378.089-.03.049.072.223.227.387.627.662.67.849.298 1.273-.336.382-.727.397-1.172.043-.273-.217-.53-.316-.53-.205 0 .022.154.35.343.73.42.85.391 1.065-.174 1.274l-.358.132-.007.929c-.006.737.023.991.139 1.234.08.168.174.305.209.305.034 0 .167-.11.296-.244l.234-.244-.183-.326c-.258-.458-.17-.406.15.09.334.515.712 1.4.78 1.829.044.275.022.349-.158.517-.147.138-.31.2-.544.204l-.334.007-.237-.648c-.299-.813-.442-.976-.37-.42.085.665.369 1.506.538 1.596.228.123.548.102 1.168-.076.818-.233 1.03-.053.396.338-.428.265-1.756 1.348-2.416 1.972-.313.295-.612.537-.665.537-.054 0-.302-.229-.552-.509-.463-.519-.924-1.308-1.106-1.894-.056-.18-.131-.358-.168-.398-.078-.085-1.4.793-2.805 1.862-.538.41-1.022.77-1.076.803-.056.034-1.076-.428-2.383-1.08-1.257-.626-2.413-1.163-2.57-1.192-.373-.07-1.014.237-1.167.559-.098.207-.085.271.143.71.303.581.312.76.05 1.02-.21.212-.525.252-.824.107zm8.935-2.296c.197-.149.642-.462.99-.695l.63-.424v-2.031h-.31c-.17 0-.381.054-.468.12-.216.163-.273.153-.223-.039.042-.16.003-.163-2.447-.163-2.454 0-2.49.002-2.612.175-.116.167-.132.169-.327.041-.344-.225-.493-.165-.935.375-.446.545-.498.69-.274.766.333.113 5.04 2.003 5.151 2.07.23.133.465.078.825-.195zm-5.353-4.32c2.767-3.421 3.634-4.536 3.634-4.678 0-.04-.197-.172-.438-.294-.81-.41-1.774-.225-2.573.492l-.41.37.001-.232c.005-.599.728-1.52 1.448-1.84.512-.23 1.948-.293 2.686-.12l.511.12.368-.41c.202-.224.354-.449.339-.498-.052-.163-.849-.538-1.49-.703-.775-.197-2.066-.215-2.767-.038-1.165.294-2.716 1.29-3.333 2.14-.302.416-.615 1.257-.615 1.652 0 .62.673 2.015 1.403 2.905.192.234.495.608.674.831.35.437.421.475.562.302zm4.333-.54h2.64l-.003-2.71-.003-2.708-.326-.36c-.278-.308-.342-.344-.434-.245-.06.064-.926 1.143-1.926 2.397-1 1.255-2.05 2.568-2.332 2.92-.52.644-.622.845-.386.755.07-.027 1.317-.05 2.77-.05zM38.6 32.685c-.469-.162-.7-.326-1.1-.782l-.28-.318-.023-2.306-.024-2.305.525.004c.64.005.743-.047 1.497-.761l.597-.565.262.161c.347.213 1.036 1.127 1.036 1.374 0 .203-.676 1.003-.847 1.003-.05 0-.18-.185-.287-.412-.228-.478-.376-.577-.892-.594l-.377-.012.018 1.81c.016 1.656.033 1.84.188 2.145.207.406.542.566 1.183.566.253 0 .445.034.43.077-.06.171-1.179 1.063-1.33 1.06-.09 0-.349-.066-.576-.145zm-4.93-.045c-.506-.18-.797-.45-1.078-.997-.107-.21-.132-.595-.141-2.21-.008-1.304.019-2.014.08-2.127.053-.1.254-.218.492-.29.527-.155 1.008-.444 1.503-.9.22-.204.455-.37.52-.37.365 0 1.238.95 1.238 1.345-.001.333-.602 1.088-.873 1.096-.055.002-.196-.195-.315-.436-.242-.496-.452-.644-.853-.606l-.277.027-.03 1.77-.03 1.772.208.356c.258.44.617.623 1.226.623h.456l-.54.53c-.51.5-.56.529-.917.525a2.47 2.47 0 0 1-.668-.108zm9.74.036c-.564-.135-1.244-.851-1.348-1.42-.034-.185-.041-1.228-.015-2.317l.046-1.98.426.054c.573.071.867-.078 1.54-.784.294-.31.568-.564.606-.564.154 0 1.231 1.106 1.23 1.262-.002.414-.414 1.03-1.247 1.861-.851.85-.852.851-.908 1.336-.08.681.053 1.123.388 1.296.67.347 1.115.289 1.337-.176.118-.247.124-.343.04-.655a3.403 3.403 0 0 1-.097-.445c0-.135.203-.09.391.086.375.349.13.985-.624 1.616-.226.189-.49.47-.585.625-.16.258-.204.28-.554.272a3.735 3.735 0 0 1-.626-.067zm.961-3.898c.257-.259.466-.535.466-.614 0-.389-.802-1.403-.974-1.231-.125.124-.178 2.316-.057 2.316.055 0 .31-.212.565-.47zm16.758 3.71a4.137 4.137 0 0 1-.46-.612c-.127-.213-.243-.324-.3-.288-.362.223-1.102.772-1.229.913-.315.348-.9.12-1.331-.518l-.266-.394.021-2.24.022-2.241.319-.033c.478-.049 1.423-.52 1.906-.949.235-.209.456-.38.491-.38.035 0 .275.128.535.284.259.156.689.367.956.468.523.2.501.147.332.802-.042.16-.067 1.022-.057 1.915.016 1.457.036 1.668.197 2.067l.179.444-.334.278c-.183.152-.388.383-.455.512-.155.3-.215.296-.526-.029zm-.86-1.07c.214-.202.293-.346.3-.55.006-.15.019-.861.03-1.578.014-.99.05-1.38.152-1.618.073-.173.116-.343.094-.378-.022-.034-.177-.088-.346-.119a3.816 3.816 0 0 1-.74-.258c-.744-.35-.709-.446-.692 1.908l.015 2.059.34.404c.186.223.387.405.447.405s.24-.124.4-.275zm11.074 1.245c-.339-.098-.857-.611-1.077-1.067-.171-.353-.177-.45-.157-2.514l.022-2.146.45.021c.624.03.847-.078 1.523-.734.376-.364.626-.55.693-.512.6.34 1.122 1.022 1.122 1.465 0 .208-.076.365-.294.606-.382.423-.625.434-.813.037-.182-.383-.591-.688-.923-.688h-.264l.029 1.853c.034 2.204.077 2.37.686 2.64.267.118.486.157.73.13.27-.031.338-.015.304.072-.023.061-.07.111-.103.111-.033 0-.27.183-.525.407-.407.356-.509.407-.807.4a2.818 2.818 0 0 1-.596-.08zm4.84-.04c-.427-.132-1.005-.718-1.178-1.194-.064-.177-.098-.966-.102-2.356l-.006-2.09.509.013c.68.017 1.035-.169 1.56-.815.23-.284.482-.514.563-.515.183-.002 1.004.807 1.115 1.098.105.277.104.661-.002.86-.046.085-.435.495-.864.91-1.033 1-1.088 1.085-1.146 1.77-.056.673.047.89.544 1.143.426.218.756.209 1.032-.028.236-.204.278-.507.15-1.09-.05-.23-.037-.265.104-.265.606 0 .458 1.146-.204 1.584-.175.116-.492.411-.704.657-.341.395-.42.446-.686.441a3.052 3.052 0 0 1-.685-.124zm1.017-3.825c.206-.203.416-.496.467-.65.08-.244.07-.313-.069-.507-.265-.368-.725-.775-.834-.739-.138.046-.167 2.266-.03 2.266.05 0 .26-.167.466-.37zm-22.538 3.467a3.147 3.147 0 0 0-.701-.673c-.338-.218-.4-.295-.35-.429.106-.289.122-5.503.016-5.63-.051-.062-.18-.113-.287-.113-.332 0-.216-.135.438-.513.582-.337 1.372-1.059 1.754-1.605.14-.198.143-.181.121.693l-.022.896.346.025c.19.014.346.059.346.1 0 .041-.15.152-.333.245l-.333.17.028 2.919c.025 2.642.041 2.934.17 3.076.198.218.178.42-.049.507-.105.04-.31.222-.455.405-.145.183-.293.333-.33.333-.037 0-.198-.183-.359-.406zm12.972.098a8.757 8.757 0 0 0-.469-.446c-.165-.138-.17-.211-.17-2.336v-2.194l-.215-.169a.82.82 0 0 0-1.036.031c-.247.23-.244.2-.218 2.53l.017 1.466.214.173.213.173-.442.51-.443.511-.165-.232c-.284-.397-.51-.597-.728-.643l-.42-.088-.21-.044.23-.384.23-.383v-1.905c0-1.885-.002-1.906-.184-2.026-.223-.148-.236-.318-.03-.384.085-.027.257-.196.382-.377.338-.488.465-.528.756-.237.134.135.288.382.343.55.138.431.224.515.473.461.443-.096.633-.223 1.03-.689.44-.518.624-.582 1.009-.355.12.071.31.261.42.422.198.288.2.313.244 2.66.025 1.302.053 2.377.062 2.389.008.01.062.02.118.021.056 0 .154.035.219.076.095.06.05.147-.226.447-.19.206-.379.465-.421.576-.105.277-.233.254-.583-.104zm-53.69-2.832c-.25-.138-.35-.414-.277-.775.06-.304.556-1.365.739-1.584.134-.16.135-.16.082.03-.058.21.099.58.247.58.13 0 .589-.49.685-.732l.08-.204.006.193c.005.196-.382 1.545-.634 2.21-.125.33-.168.369-.422.386a1.082 1.082 0 0 1-.506-.104zm-2.094-.36c-.51-.51-.482-.973.11-1.776.323-.44 1.97-1.954 2.044-1.88.017.018-.11.185-.283.372-.674.73-.454.962.383.403.303-.202.564-.355.58-.339.016.016-.144.243-.356.503s-.62.958-.907 1.55c-.287.592-.602 1.132-.7 1.201-.25.175-.68.159-.871-.033zm18.92.062c-.117-.056-.38-.493-.748-1.242-.313-.635-.72-1.348-.908-1.584-.186-.236-.319-.45-.295-.474.025-.024.283.146.573.377l.53.421.143-.219.143-.219-.404-.362c-.427-.384-.382-.383.193.005.574.386 1.29 1.093 1.641 1.618.442.662.457 1.093.051 1.5-.291.291-.574.346-.92.179zm-20.736-1.618c-.204-.108-.32-.234-.351-.383a85.374 85.374 0 0 1-.08-.383c-.018-.088.007-.317.056-.51.147-.584.516-.827 2.634-1.74.493-.213.915-.366.937-.342.023.025-.004.061-.058.08-.055.02-.23.125-.39.233-.159.108-.38.22-.49.247-.3.075-.246.226.144.404l.398.183c.028.013.103-.024.167-.082.122-.112.76-.472.836-.472.144 0-.034.2-.668.748-.392.34-1.074.97-1.515 1.4-.891.87-1.036.925-1.62.617zm21.36-.92a78.268 78.268 0 0 0-1.316-1.248c-.42-.385-.502-.495-.361-.48.101.011.327.118.502.237.176.119.363.216.417.216.177 0 .679-.339.679-.458 0-.19-.241-.229-.368-.061-.064.084-.117.11-.119.056a.187.187 0 0 1 .08-.148c.126-.078.011-.207-.296-.335-.151-.063-.275-.148-.275-.187 0-.086 2.421.984 2.873 1.269.38.24.65.652.55.838-.093.175-.74.493-1.002.493-.227 0-.466.188-.466.367 0 .257-.167.153-.899-.559zM8.376 25.634c-.382-.382-.386-.822-.012-1.415.52-.827 1.09-1.065 2.707-1.132.871-.037 1.088-.023 1.222.08.262.198.114.222-.55.087-.399-.082-.67-.1-.755-.052-.103.057.051.145.666.38.653.25.828.29.952.212.24-.15.248-.038.01.148-.117.093-.512.284-.876.425-.792.305-1.647.728-2.248 1.112-.729.466-.796.475-1.116.155zm25.627-.173c-.48-.36-.873-.552-2.022-.988-.975-.37-1.499-.691-1.009-.62.24.036 1.41-.447 1.521-.627.073-.118.351-.107 1.086.043 1.069.218 1.509.57 1.757 1.407.161.544.092.699-.409.914-.47.201-.488.199-.924-.129zM7.162 23.915a12.2 12.2 0 0 1-1.14-.34c-.56-.198-.668-.268-.767-.492-.116-.263-.419-.431-.777-.431-.215 0-.775-.358-1.267-.81l-.366-.337.427.052c.485.058.561-.04.204-.263-.61-.381-1.059-.845-1.262-1.305-.222-.504-.375-1.329-.245-1.329.042 0 .293.241.558.536.704.785 1.408 1.334 2.395 1.867.291.158.585.323.652.368.067.045.397.211.733.37.336.158.52.264.407.236-.112-.028-.693-.286-1.292-.573-1.048-.504-1.315-.597-1.315-.459 0 .2 2.432 1.647 2.77 1.647.095 0 .151.035.125.078-.027.042-.102.057-.168.032-.232-.09-.115.116.267.47.213.196.476.414.584.485.117.075.173.166.138.223-.07.113-.036.114-.66-.025zm28.508.034c-.04-.065-.006-.145.092-.213.923-.644 1.15-.921.753-.922-.11 0 .193-.185.72-.441 1.026-.497 2.225-1.258 2.226-1.412.001-.154-.207-.123-.707.106-.585.267-.64.212-.087-.087.666-.36 1.24-.81 2.132-1.675.452-.438.832-.766.846-.73.052.146-.245 1.2-.426 1.509-.206.351-1.118 1.264-1.262 1.264-.048 0-.088.037-.088.082 0 .045.128.081.285.081.157 0 .285.036.285.08 0 .044-.24.278-.534.52-.625.516-1.139.703-1.528.556-.27-.102-.342-.08-.28.083.023.058.048.142.058.187a.5.5 0 0 0 .093.172c.118.143-.054.235-1.045.558-1.115.363-1.445.424-1.533.283zM9.43 22.397c-1.543-.248-2.685-1.29-2.19-1.997.214-.305.548-.297 1.95.047a67.81 67.81 0 0 0 2.005.462c.38.077.727.17.77.208.126.112-.492.078-1.095-.06-.308-.07-.7-.114-.871-.098l-.311.03.37.176c.203.097.798.262 1.322.368.523.105.98.22 1.014.255.076.077-1.631.01-1.961-.075-.2-.053-.228-.04-.203.092.05.262.566.434 1.471.49.46.029.893.082.96.118.16.086-2.684.071-3.23-.016zm21.424.033c.028-.046.386-.11.795-.141.785-.062 1.314-.206 1.557-.426.245-.222.167-.261-.281-.142-.465.124-1.854.16-1.727.046.042-.039.346-.113.676-.165.746-.119 1.464-.367 1.678-.58.193-.193.138-.2-.447-.047-.474.123-1.696.263-1.625.185.023-.025.463-.14.978-.256a42.155 42.155 0 0 0 1.818-.46c1.297-.367 1.943-.32 2.031.145.129.671-.652 1.448-1.72 1.713-.57.141-3.81.252-3.733.128zM6.042 21.22c-.256-.139-.282-.239-.09-.346.073-.04.108-.116.076-.167-.07-.114-.312-.12-.422-.01-.055.055-.208.039-.464-.048-.443-.151-.553-.27-.31-.334.36-.094.188-.245-.621-.55-.604-.228-1.166-.649-1.033-.775a.538.538 0 0 1 .23-.098c.314-.057.186-.198-.465-.515-.778-.38-1.108-.65-1.396-1.14-.328-.56-.263-.76.158-.484.109.072.243.115.298.097.056-.02-.17-.3-.518-.642-.55-.542-.638-.67-.79-1.164a3.872 3.872 0 0 1-.166-1.056c.007-.527.164-1.1.282-1.03.039.022.257.407.485.855 1.068 2.101 2.251 3.415 4.583 5.09.46.33.835.631.835.67 0 .248-1.68-.98-3.092-2.26-.766-.693-1.449-1.26-1.519-1.26-.36 0 1.873 2.184 3.152 3.082 1.317.926 1.457 1.124.392.556-.476-.253-.888-.46-.917-.46-.189 0 .053.216.768.687.622.41.848.609.937.82.24.573.097.748-.393.482zm30.895-.119c0-.315.23-.719.485-.851.466-.24 1.388-.864 1.388-.938 0-.155-.145-.148-.413.02-.435.274-.667.393-.702.358-.017-.017-.143.074-.28.202-.138.129-.28.215-.317.193-.036-.023-.085.005-.107.061-.029.07-.044.073-.048.007-.008-.11.22-.295 1.012-.817 1.222-.807 3.026-2.524 3.457-3.291.304-.542-.002-.383-.604.314-.744.86-2.195 2.143-3.006 2.659-1.21.768-1.128.725-1.035.55.047-.087.333-.315.636-.506.637-.401 2.273-1.759 2.753-2.284.926-1.013 1.884-2.48 2.202-3.372.08-.224.172-.44.206-.478.034-.04.144.09.245.285.133.256.186.504.19.885.006.46-.038.622-.331 1.232-.194.405-.43.767-.555.856-.737.518-.902.806-.293.512.448-.217.52-.2.373.084-.455.88-.865 1.266-1.78 1.672-.57.254-.708.45-.313.45.127 0 .254.024.283.052.102.103-.648.606-1.227.823-.597.224-.69.326-.468.51.067.056.122.14.122.187 0 .047-.024.061-.053.031-.03-.029-.103-.013-.162.036-.06.05-.287.1-.507.111-.483.026-.608.093-.555.298.045.17-.151.315-.428.315-.115 0-.168-.053-.168-.165zm-25.457-.538c-2.323-.51-2.947-.752-4.011-1.546-.658-.492-.886-.845-1.001-1.55-.125-.767.1-.994.867-.879.275.042.49.163.916.52.852.714 1.527 1.126 2.593 1.583.535.23 1.062.48 1.17.559l.199.142-.245-.052c-.134-.028-.482-.159-.773-.29a22.32 22.32 0 0 0-1.034-.432l-.505-.192.064.178c.074.204.604.515 1.431.838 1.123.44 1 .61-.137.192-.824-.302-1.286-.414-1.286-.311 0 .122.537.413 1.406.763.446.179.816.362.823.407.013.09-.226.125-.477.07zm20.095-.087c.018-.094.28-.228.813-.415.706-.249 1.398-.665 1.29-.776-.023-.023-.476.103-1.008.281-.531.178-1.007.308-1.058.29-.051-.02.338-.242.864-.495.824-.398 1.347-.746 1.255-.838-.014-.014-.386.12-.826.3-.44.179-.913.358-1.052.398-.139.04-.322.102-.408.136-.098.04-.137.034-.106-.018.046-.074 2.028-1.086 2.128-1.086.144 0 1.469-.87 1.862-1.224.535-.48.908-.583 1.46-.4l.33.108-.044.421c-.164 1.593-1.618 2.62-4.664 3.292-.89.197-.869.197-.836.026zm-20.18-1.962c-1.538-.72-2.476-1.35-3.227-2.168-.38-.413-.653-1.051-.7-1.63-.06-.742.005-.944.304-.944.568 0 1.112.312 2 1.147.474.446.943.86 1.04.92.099.061.536.32.973.578.437.256.794.502.794.546 0 .094-.315.009-.488-.132-.183-.148-1.307-.778-1.39-.778-.039 0-.107.068-.151.15a.225.225 0 0 0 .197.339c.05 0 .262.11.473.243.21.134.472.265.58.292.109.028.26.119.336.203.12.133.086.128-.259-.037-1.371-.658-1.634-.745-1.559-.52.035.106 1.265.844 1.624.974.21.076.385.311.23.311-.096 0-.991-.329-1.1-.404a3.733 3.733 0 0 0-.475-.202c-.282-.104-.419-.12-.482-.057s-.044.104.068.144c.086.032.248.117.36.191.112.074.515.272.896.441.73.323.978.494.978.674 0 .17-.143.13-1.023-.281zm19.676.284c0-.162.4-.426 1.388-.917.53-.263.893-.492.893-.564 0-.132-.095-.107-.794.212-.666.304-1.09.48-1.158.48-.036 0-.085-.074-.108-.164-.023-.09-.01-.143.028-.119.078.048 1.675-.794 1.866-.984.199-.197-.014-.327-.266-.162-.127.083-.223.103-.255.052-.028-.045.024-.122.115-.17.186-.1.224-.327.055-.327-.061 0-.473.178-.917.397-.889.438-1.426.629-.895.318.989-.578 2.063-1.36 2.762-2.009.82-.762 1.342-1.069 1.815-1.069.25 0 .279.028.363.34.173.643-.118 1.607-.7 2.317-.485.593-1.876 1.483-3.305 2.117-.91.404-.887.397-.887.252zm6.079-.28c.03-.124.08-.261.112-.306.033-.045.086-.191.118-.326.12-.507.485-1.079 1.07-1.68.528-.544.739-.886.545-.886-.032 0-.331.266-.664.59-.335.328-.525.475-.426.33a2.3 2.3 0 0 1 .39-.428c.116-.091.186-.166.155-.166-.032 0 .193-.251.5-.558.885-.887 2.06-2.644 2.053-3.067-.003-.16-.005-.16-.1-.006a20.039 20.039 0 0 1-1.565 2.167c-.756.89-.995 1.083-.503.405 1.31-1.807 1.876-2.844 2.548-4.676.44-1.2.469-1.206.787-.171.265.866.238 1.28-.128 1.947-.169.306-.287.577-.263.601.025.025.136.002.249-.048.181-.083.204-.075.204.073 0 .092-.13.448-.29.793-.296.641-.688 1.12-1.156 1.411-.352.219-.343.347.02.279.426-.08.365.073-.28.704-.396.388-.627.553-.77.553a.594.594 0 0 0-.372.178l-.166.179.17.181.171.182-.313.206a2.249 2.249 0 0 1-.533.258c-.246.06-.531.413-.376.464.094.032-1.044 1.04-1.173 1.04-.037 0-.044-.1-.014-.224zm-31.567-.34c-.275-.22-.459-.414-.407-.43.165-.056-.277-.476-.74-.703-.508-.25-.596-.392-.29-.469.306-.077.215-.213-.273-.41-.432-.173-.812-.486-1.237-1.018l-.235-.294.324.06c.387.07.41-.005.076-.26-.69-.528-.83-.69-1.138-1.318-.18-.365-.349-.783-.377-.928-.043-.23-.028-.265.118-.265.265 0 .289-.145.067-.41-.241-.285-.335-.794-.274-1.475.043-.47.343-1.22.509-1.268.045-.014.165.241.267.567.291.94.859 2.274 1.272 2.99.43.746 1.488 2.266 1.87 2.688.14.155.187.23.103.166-.305-.234-1.47-1.693-2.056-2.576-.623-.938-.848-1.204-.845-.997.006.357.715 1.482 1.8 2.854.843 1.066.885 1.125.634.903-.248-.22-.318-.23-.318-.04 0 .078.204.325.452.549.587.528.983 1.111 1.226 1.804.107.307.195.586.196.62 0 .152-.264.028-.724-.34zm1.23-2.33c-.28-.12-1.24-.986-1.24-1.116 0-.041.074-.051.164-.023.11.035.163.015.163-.062 0-.142-.287-.408-.622-.577-.475-.24-1.252-1.039-1.252-1.288 0-.038.149-.069.33-.069.4 0 .363-.089-.132-.329-.555-.268-.832-.537-1.098-1.064-.132-.262-.24-.495-.24-.519 0-.024.151-.043.336-.043h.337l-.42-.413c-.23-.227-.49-.553-.578-.724-.173-.34-.451-1.455-.38-1.525.024-.025.176.037.338.137.38.235.445.159.17-.203a4.78 4.78 0 0 1-.43-.745c-.233-.51-.229-.888.019-1.616.124-.367.735-1.265.86-1.265.028 0 .076.284.107.631.03.348.109.96.173 1.36.064.4.095.86.069 1.023-.058.364.176 1.183.662 2.316.463 1.079.838 1.746 1.677 2.98.644.947.853 1.303.767 1.303-.019 0-.312-.349-.65-.774-.34-.426-.634-.774-.656-.774-.13 0 .017.32.413.901.248.365.473.78.5.92.063.328.38.967.552 1.11.185.152.476.572.395.568a1.865 1.865 0 0 1-.334-.12zm29.572-.114c.361-.516.926-1.012 1.228-1.08.178-.04.34-.056.36-.035.08.079-.67.794-1.077 1.027-.505.289-.672.318-.51.088zm.312-.962c.06-.08.223-.273.364-.43.467-.521 1.018-1.373 1.064-1.645l.045-.269-.189.243c-.615.792-.981 1.222-1.03 1.21-.03-.007-.11.03-.177.082-.102.078-.107.073-.032-.028 1.417-1.908 1.862-2.595 2.374-3.666.552-1.153.848-2.143.878-2.932.031-.816.16-1.882.31-2.566l.106-.489.368.57c.86 1.335.871 1.912.058 3.198-.165.26-.165.264-.007.264a.387.387 0 0 0 .262-.122c.195-.235.23-.118.113.387-.193.838-.26.987-.69 1.52-.441.548-.484.8-.113.658.299-.113.299-.113.159.222a2.972 2.972 0 0 1-1.272 1.412l-.519.282.347.025c.19.013.346.056.346.094 0 .123-.614.85-.903 1.07-.275.21-.794.495-1.573.865-.334.158-.38.166-.29.045z" style="opacity:1;fill:#000;fill-opacity:1;stroke-width:.307887"/>
</svg>
