<?xml version="1.0" encoding="UTF-8" standalone="no"?>
<!-- Created with Inkscape (http://www.inkscape.org/) -->

<svg
   width="300"
   height="80"
   viewBox="0 0 79.374998 21.166667"
   version="1.1"
   id="svg1"
   xml:space="preserve"
   inkscape:version="1.4 (86a8ad7, 2024-10-11)"
   sodipodi:docname="acg.svg"
   xmlns:inkscape="http://www.inkscape.org/namespaces/inkscape"
   xmlns:sodipodi="http://sodipodi.sourceforge.net/DTD/sodipodi-0.dtd"
   xmlns="http://www.w3.org/2000/svg"
   xmlns:svg="http://www.w3.org/2000/svg"><sodipodi:namedview
     id="namedview1"
     pagecolor="#ffffff"
     bordercolor="#111111"
     borderopacity="1"
     inkscape:showpageshadow="0"
     inkscape:pageopacity="0"
     inkscape:pagecheckerboard="1"
     inkscape:deskcolor="#d1d1d1"
     inkscape:document-units="px"
     inkscape:zoom="0.78573232"
     inkscape:cx="315.62912"
     inkscape:cy="197.2682"
     inkscape:window-width="1920"
     inkscape:window-height="1115"
     inkscape:window-x="-9"
     inkscape:window-y="-9"
     inkscape:window-maximized="1"
     inkscape:current-layer="layer1" /><defs
     id="defs1" /><g
     inkscape:label="Layer 1"
     inkscape:groupmode="layer"
     id="layer1"><path
       style="fill:#23395d;fill-opacity:1;stroke-width:0.46559"
       d="M 8.3246158,18.903361 C 7.8841566,18.866254 7.7053144,18.845344 7.4141849,18.796829 6.2985191,18.610914 5.2477137,18.20478 4.3106474,17.597319 3.364267,16.983816 2.4754027,16.09362 1.862601,15.145604 0.25348991,12.656279 0.08778111,9.4207609 1.4339259,6.7755785 1.8619944,5.9344243 2.3651001,5.2555609 3.0690156,4.5692895 4.7363213,2.9437717 6.9990552,2.1222049 9.3843228,2.2762906 c 1.1826642,0.076399 2.2173082,0.3362666 3.1750022,0.797454 1.273945,0.6134835 2.318723,1.5300144 3.188124,2.796782 0.196292,0.2860122 0.23468,0.4419245 0.163656,0.6647048 -0.04428,0.1388809 -0.208312,0.3072804 -0.3444,0.3535554 -0.119922,0.040786 -0.288229,0.041764 -0.403868,0.00233 C 15.032109,6.8465577 14.933409,6.7510325 14.766502,6.5074729 13.594873,4.7977795 11.935078,3.7714952 9.9050018,3.5015127 8.6037648,3.3284592 7.3264831,3.4701739 6.1987454,3.9127284 5.8789644,4.0382185 5.3107914,4.3245743 5.0298574,4.5018418 4.1114426,5.0813556 3.305136,5.9012882 2.7445494,6.8257692 2.1883323,7.7430429 1.8579288,8.7260679 1.7324289,9.8370449 c -0.03302,0.2923251 -0.03301,1.2045801 2.14e-5,1.4967331 0.1043668,0.923122 0.329118,1.694834 0.7247213,2.488427 0.368924,0.740075 0.8046962,1.335043 1.4092132,1.924021 0.5796312,0.564732 1.1270965,0.948388 1.8567627,1.301198 1.2077173,0.583954 2.5085873,0.796169 3.9877963,0.650547 2.1021042,-0.20694 3.7526342,-1.160549 4.8493982,-2.801775 0.708206,-1.059776 1.211881,-2.434311 1.360593,-3.713064 l 0.01639,-0.140925 -0.04995,-2.89e-4 c -0.0926,-4.65e-4 -4.598365,0.354832 -4.607697,0.363403 -0.0051,0.0046 0.172291,0.371108 0.394163,0.814313 0.221873,0.4432 0.40834,0.830502 0.414374,0.860672 0.02036,0.101824 -0.0021,0.107835 -0.55833,0.149306 -0.282205,0.02105 -0.611277,0.03827 -0.73127,0.03827 -0.193166,0 -0.222314,-0.0046 -0.254311,-0.03887 -0.01987,-0.02137 -0.218318,-0.412816 -0.440978,-0.869853 -0.4045732,-0.830437 -0.4048772,-0.830981 -0.4649002,-0.830147 -0.147441,0.0019 -2.6556216,0.20708 -2.6665169,0.217975 -0.00671,0.0067 -0.1233116,0.456618 -0.2591257,0.999804 l -0.2469347,0.98761 -0.057103,0.01229 c -0.098986,0.02127 -0.3350691,0.01783 -0.3866375,-0.0057 -0.027228,-0.01243 -0.049509,-0.03519 -0.049509,-0.05067 0,-0.01546 0.4292031,-1.573142 0.9537848,-3.461511 C 7.541899,8.0130905 7.898179,6.7623053 7.9309445,6.7021044 c 0.068445,-0.1257606 0.1958853,-0.23963 0.2995743,-0.2676772 0.09477,-0.025654 0.25466,-0.016435 0.385665,0.022209 0.06038,0.017832 0.121332,0.059414 0.196801,0.1343321 0.103972,0.1032169 0.152421,0.1946914 0.988742,1.866822 0.4836762,0.9670536 0.8820462,1.7612027 0.8852652,1.7647737 0.0033,0.0037 1.298968,-0.09487 2.879439,-0.218754 1.580474,-0.1238791 2.912376,-0.2252041 2.959784,-0.2251681 0.04741,4.3e-5 0.137869,0.01457 0.201025,0.03231 0.147137,0.04129 0.300146,0.175863 0.366253,0.3221371 0.04267,0.09441 0.04609,0.125291 0.04361,0.39401 -0.007,0.761874 -0.182538,1.737812 -0.476876,2.651682 -0.486716,1.511162 -1.297103,2.822513 -2.319212,3.752887 -1.225933,1.115913 -2.714798,1.750704 -4.5391062,1.935292 -0.280487,0.02841 -1.279974,0.05299 -1.477295,0.03636 z m -0.09221,-8.48078 c 0.510557,-0.0406 0.932536,-0.07811 0.937733,-0.0833 C 9.1875378,10.321871 8.5209108,8.8489779 8.2553608,8.3180874 8.1026461,8.0127818 8.0430363,7.9127125 8.0138898,7.9127125 c -0.036218,0 -0.2376766,0.681792 -0.5226747,1.7688664 -0.2147862,0.8192621 -0.2141073,0.8164921 -0.1998324,0.8156301 0.00701,-4.18e-4 0.4304612,-0.03399 0.9410181,-0.07462 z m -0.102166,6.089563 C 6.6000098,16.327934 5.1643972,15.528306 4.1727371,14.307844 2.9245829,12.771704 2.5292222,10.656386 3.1354796,8.7581599 3.6996806,6.9916124 5.070111,5.5777913 6.7906509,4.9872506 7.2355696,4.8345461 7.6458259,4.7432658 8.1593908,4.6827194 c 0.319286,-0.037642 1.124767,-0.031455 1.43842,0.011049 1.2997092,0.1761212 2.3644552,0.6618251 3.1894342,1.4549118 0.286324,0.275257 0.328301,0.3491881 0.328356,0.5783051 3.3e-5,0.1355752 -0.0082,0.1809192 -0.04555,0.2526946 C 12.926638,7.254783 12.621317,7.3766839 12.340856,7.2708134 12.248545,7.2359869 12.184809,7.1878075 12.010299,7.0210517 11.661571,6.68781 11.363061,6.4807946 10.93904,6.2781463 9.9956128,5.827264 8.8567078,5.7031469 7.7485235,5.9304481 6.852086,6.1143191 6.0040704,6.5852173 5.3566972,7.2586239 4.9910653,7.63896 4.7447466,7.9939634 4.5049936,8.4861343 4.2902731,8.9269129 4.1747276,9.2863779 4.0848374,9.7932379 c -0.051696,0.2915051 -0.07126,0.9341141 -0.038108,1.2517721 0.1744735,1.671762 1.1722673,3.096493 2.6936802,3.846256 0.6420953,0.316435 1.209961,0.458737 1.9155812,0.480034 0.555779,0.01676 1.078074,-0.05353 1.6230392,-0.218475 1.26712,-0.383516 2.154346,-1.11575 2.720758,-2.245453 0.104998,-0.209419 0.163076,-0.30202 0.223861,-0.356936 0.282849,-0.25554 0.71511,-0.186454 0.901318,0.144044 0.05498,0.09757 0.06024,0.12219 0.06024,0.281854 v 0.174942 l -0.149344,0.301782 c -0.157362,0.317979 -0.409652,0.714537 -0.630382,0.99085 -0.181728,0.227493 -0.580432,0.623249 -0.814316,0.808298 -0.862934,0.68276 -1.969752,1.127366 -3.1391342,1.260986 -0.324582,0.03711 -1.009508,0.03655 -1.321792,-9.31e-4 z M 40.368327,13.93823 c -2.108473,-0.233884 -3.690456,-1.783653 -3.89835,-3.818953 -0.02891,-0.2830321 -0.01425,-0.8175261 0.02961,-1.0791591 0.314142,-1.8737833 1.776572,-3.2686642 3.732658,-3.5602495 0.263243,-0.039249 0.974042,-0.033709 1.253061,0.00978 0.900614,0.1403382 1.657627,0.5020554 2.357563,1.1264819 0.08286,0.073917 0.150647,0.14194 0.150647,0.1511633 0,0.00922 -0.233308,0.217845 -0.518468,0.4636164 L 42.956581,7.6777577 42.769809,7.498794 C 42.390762,7.135587 41.93542,6.8968089 41.402188,6.7816265 c -0.28685,-0.061961 -0.867324,-0.061961 -1.154175,0 -1.161876,0.2509766 -2.030705,1.1475732 -2.273976,2.3466504 -0.05498,0.270978 -0.04936,0.9186151 0.01034,1.1947371 0.06214,0.287363 0.123135,0.460525 0.256741,0.728929 0.407098,0.817851 1.124219,1.378245 2.006881,1.568286 0.267174,0.05752 0.846368,0.06232 1.11093,0.0092 0.465423,-0.09344 0.985934,-0.328112 1.307919,-0.58968 l 0.08261,-0.06711 V 11.342242 10.711809 H 42.088553 41.427657 V 10.167511 9.6232449 h 1.399546 1.399542 v 1.4347321 1.434726 l -0.199241,0.194133 c -0.228805,0.222938 -0.382292,0.346636 -0.619966,0.49963 -0.554285,0.356799 -1.186566,0.596383 -1.884031,0.713889 -0.27467,0.04627 -0.895819,0.06663 -1.155226,0.03785 z m -8.620796,-0.02165 c -1.563497,-0.158934 -2.930888,-1.128014 -3.553956,-2.518713 -0.488876,-1.091177 -0.485492,-2.3097681 0.0095,-3.4171041 0.438786,-0.9816321 1.290706,-1.7871967 2.319869,-2.1936385 1.532452,-0.6051976 3.203746,-0.3473025 4.431887,0.6838777 0.101564,0.085274 0.221759,0.1933226 0.267102,0.240105 l 0.08245,0.085064 -0.451768,0.4784593 -0.451768,0.4784639 -0.09285,-0.1035985 C 33.948671,7.248546 33.371634,6.9259151 32.791161,6.8013977 c -0.271508,-0.058245 -0.824546,-0.062617 -1.111635,-0.0088 -0.584875,0.1096511 -1.063224,0.3644735 -1.498619,0.7983385 -0.42578,0.4242833 -0.685275,0.9029195 -0.817304,1.5075117 -0.05156,0.236143 -0.05209,0.9648951 -8.38e-4,1.2051621 0.126314,0.592408 0.395225,1.088407 0.817318,1.507508 0.437577,0.434479 0.915287,0.688822 1.499463,0.798338 0.288567,0.0541 0.820734,0.04927 1.098253,-0.01 0.554859,-0.11844 1.049431,-0.380312 1.44642,-0.765854 l 0.185102,-0.17977 0.447404,0.476234 0.447402,0.476234 -0.09202,0.09441 c -0.136341,0.139886 -0.453152,0.391133 -0.684883,0.543139 -0.80275,0.526568 -1.812704,0.770985 -2.779648,0.672694 z m 24.394814,-0.02849 c -0.931549,-0.11068 -1.691206,-0.565851 -2.188103,-1.311066 -0.214857,-0.322226 -0.353156,-0.654439 -0.440141,-1.057277 -0.06176,-0.285988 -0.061,-0.846848 0.0014,-1.138387 0.229163,-1.0684221 0.960243,-1.8941611 1.975532,-2.2313231 0.476583,-0.1582635 1.076999,-0.1913949 1.652241,-0.091177 0.214479,0.037387 0.577514,0.1566664 0.770161,0.2530856 0.477575,0.2390248 0.793641,0.5907924 0.933723,1.0391924 0.03813,0.122027 0.04548,0.186978 0.04507,0.398481 -4.66e-4,0.2971271 -0.03222,0.4428141 -0.149841,0.6900561 -0.140939,0.296242 -0.43752,0.547931 -0.791312,0.67154 -0.335622,0.117259 -0.247658,0.112296 -2.126804,0.11996 l -1.727224,0.007 0.01295,0.09154 c 0.0489,0.346297 0.223599,0.759644 0.445602,1.054269 0.557061,0.739301 1.433488,1.071547 2.378701,0.901737 0.447698,-0.08043 0.85617,-0.291083 1.210252,-0.624147 l 0.148607,-0.139784 0.19288,0.194825 0.192881,0.194832 -0.174941,0.165293 c -0.404561,0.382251 -0.931549,0.650901 -1.503519,0.766479 -0.181328,0.03665 -0.699357,0.0637 -0.858213,0.04483 z m 1.370385,-3.240058 c 0.35526,-0.102961 0.615842,-0.307071 0.710678,-0.556664 0.138039,-0.3632871 0.06434,-0.7059091 -0.215149,-1.0001301 -0.322356,-0.33936 -0.882625,-0.5370592 -1.521977,-0.5370592 -0.417901,0 -0.716499,0.067496 -1.072866,0.2425212 -0.657785,0.323064 -1.133214,0.941331 -1.281444,1.6664511 -0.01685,0.08241 -0.03064,0.167971 -0.03064,0.190151 v 0.04032 l 1.647375,-0.0059 c 1.496356,-0.0053 1.658074,-0.009 1.76401,-0.03971 z m 3.738924,3.183154 c -0.267076,-0.03646 -0.462759,-0.09474 -0.696085,-0.20738 -0.179518,-0.08666 -0.223903,-0.118934 -0.379046,-0.275615 -0.202118,-0.204129 -0.291605,-0.355284 -0.369442,-0.62405 -0.08602,-0.297014 -0.09834,-0.706179 -0.0291,-0.966295 0.05687,-0.213646 0.224984,-0.453294 0.427063,-0.608792 0.315601,-0.242848 0.712889,-0.381914 1.341087,-0.469427 0.279224,-0.03892 1.230155,-0.04772 2.113892,-0.01964 l 0.51025,0.0162 -2.84e-4,-0.4633 C 64.169667,9.7017709 64.153929,9.5892139 64.053732,9.3819759 63.86958,9.0010709 63.470025,8.7315829 62.897079,8.60186 62.683135,8.553421 62.050072,8.541687 61.819023,8.581886 61.340462,8.665133 60.86581,8.9087999 60.648002,9.1830419 c -0.08713,0.109704 -0.190212,0.310926 -0.190655,0.372171 -1.52e-4,0.02137 -0.0055,0.05856 -0.01201,0.08261 -0.01154,0.04312 -0.01634,0.04372 -0.330182,0.04372 h -0.31846 v -0.06492 c 0,-0.09716 0.06824,-0.345114 0.127395,-0.462899 0.382389,-0.7613665 1.422607,-1.2180595 2.603855,-1.1431973 0.316738,0.020067 0.477702,0.042788 0.694675,0.097928 0.725539,0.1844576 1.2506,0.5833743 1.459379,1.1087793 0.127247,0.320228 0.118512,0.149651 0.125082,2.4421391 l 0.0059,2.084736 h -0.270487 -0.270512 l -0.0115,-0.140925 c -0.0063,-0.07751 -0.01639,-0.237148 -0.0224,-0.354748 -0.006,-0.117599 -0.01587,-0.264492 -0.02193,-0.326424 l -0.01108,-0.112609 -0.168077,0.16177 c -0.662322,0.637445 -1.812842,0.992658 -2.785414,0.859969 z m 0.98066,-0.523941 c 0.842649,-0.112156 1.620399,-0.578166 1.882354,-1.127866 l 0.05558,-0.116626 1.4e-5,-0.449773 1.5e-5,-0.449769 -0.442218,-0.01676 c -0.243215,-0.0092 -0.75711,-0.01666 -1.141986,-0.01657 -0.740866,1.72e-4 -0.932964,0.0163 -1.281761,0.107666 -0.431062,0.112907 -0.731037,0.314466 -0.859847,0.577748 -0.09776,0.199803 -0.08626,0.60516 0.02425,0.855024 0.122917,0.277929 0.392479,0.501949 0.708107,0.588463 0.27927,0.07656 0.699476,0.09585 1.055508,0.04846 z m 8.644105,0.520596 c -0.03743,-0.0041 -0.136227,-0.02077 -0.219573,-0.03725 -0.743543,-0.146954 -1.170344,-0.593385 -1.35802,-1.420492 -0.04269,-0.188127 -0.04339,-0.214475 -0.05012,-1.925589 l -0.0068,-1.7348501 H 68.727661 68.213425 V 8.4472483 c 0,-0.1443284 0.0024,-0.2624301 0.0048,-0.2624488 0.05757,-3.677e-4 0.99433,-0.098523 1.000657,-0.1048509 0.0049,-0.00498 0.04264,-0.3660798 0.08377,-0.802487 0.04111,-0.4364024 0.07525,-0.7956521 0.07587,-0.7983245 4.65e-4,-0.00279 0.110466,-0.00484 0.244104,-0.00484 h 0.242973 v 0.8358442 0.8358372 h 1.059376 1.059376 v 0.2818498 0.2818556 h -1.06058 -1.060553 l 0.0075,1.6668181 c 0.0072,1.598129 0.0091,1.674071 0.04749,1.842877 0.129039,0.567578 0.408924,0.895138 0.874332,1.023278 0.137615,0.0379 0.211705,0.04256 0.788487,0.04973 l 0.636597,0.0079 v 0.270526 0.270522 l -0.636597,-0.0033 c -0.350128,-0.0019 -0.667214,-0.0064 -0.704633,-0.01038 z m -51.083325,-0.06934 c 0,-0.0033 0.755986,-1.824727 1.679967,-4.0482061 l 1.679966,-4.0426845 h 0.705391 0.705392 l 1.676655,4.0334045 c 0.92216,2.2183711 1.676901,4.0400641 1.677204,4.0482071 3.03e-4,0.0082 -0.351155,0.01252 -0.781019,0.0098 l -0.781571,-0.005 -0.313011,-0.75809 -0.313012,-0.758082 h -1.873363 -1.873362 l -0.313332,0.758082 -0.31333,0.75809 -0.781287,0.005 c -0.429708,0.0028 -0.781288,0.0028 -0.781288,-4.43e-4 z m 5.394639,-2.831973 c -0.04358,-0.07052 -1.292013,-3.143653 -1.302647,-3.2065961 -0.0074,-0.043625 -0.01988,-0.079356 -0.02781,-0.079356 -0.0079,0 -0.02442,0.043485 -0.03668,0.096587 -0.01226,0.053123 -0.303392,0.7769494 -0.646957,1.608503 -0.343564,0.8315551 -0.632219,1.5315971 -0.641457,1.5556501 l -0.01679,0.04372 h 1.341892 c 0.845441,0 1.33766,-0.0068 1.330448,-0.01853 z M 73.519999,9.8662379 V 5.9688966 h 0.31587 l 0.31587,-4.7e-6 -0.0049,1.5501925 -0.005,1.5501915 0.06249,-0.07775 c 0.12382,-0.154087 0.41729,-0.4295449 0.555603,-0.5215037 0.294575,-0.1958506 0.647032,-0.3383864 1.025425,-0.4146967 0.23294,-0.046973 0.86604,-0.047485 1.136656,-9.311e-4 0.56417,0.09709 0.991978,0.3022659 1.294666,0.6209154 0.364679,0.3839121 0.552396,0.8913411 0.609551,1.6477062 0.01118,0.147663 0.01983,0.953069 0.01988,1.841759 l 4.6e-5,1.579348 h -0.329688 -0.329691 l -0.0066,-1.802881 c -0.0065,-1.783338 -0.0071,-1.804956 -0.04996,-1.9934361 -0.08291,-0.363909 -0.235216,-0.667181 -0.439275,-0.874523 -0.323394,-0.328603 -0.82762,-0.4999312 -1.469021,-0.499149 -0.705654,9.312e-4 -1.327994,0.302071 -1.69935,0.82248 -0.114567,0.160554 -0.253006,0.450942 -0.307279,0.6445541 -0.04353,0.155209 -0.04362,0.158855 -0.04928,1.938946 l -0.0057,1.783449 h -0.320178 -0.320145 z m -27.46603,0.126348 V 6.2410294 h 0.320727 0.320726 v 1.7494328 1.7494277 h 2.390886 2.390886 V 7.9904622 6.2410294 h 0.330448 0.330448 V 9.9925849 13.74414 h -0.330448 -0.330448 v -1.710556 -1.710551 h -2.390886 -2.390886 v 1.710551 1.710556 h -0.320726 -0.320727 z m 21.33331,3.7293701 c -0.314586,-0.0399 -0.552121,-0.133788 -0.708335,-0.279908 -0.11462,-0.107216 -0.176999,-0.207813 -0.234267,-0.377809 -0.09611,-0.285299 -0.09654,-0.302643 -0.09695,-3.8151581 l -3.81e-4,-3.2801833 h 0.311009 0.311009 l 1.67e-4,3.1343973 c 1.03e-4,1.9138221 0.0077,3.2192911 0.01946,3.3524171 0.04843,0.547153 0.242712,0.704677 0.869658,0.705138 l 0.199239,1.44e-4 v 0.291575 0.291572 l -0.267272,-0.0024 c -0.147001,-0.0014 -0.328501,-0.01024 -0.403341,-0.01974 z"
       id="path1" /></g></svg>
