<svg xmlns="http://www.w3.org/2000/svg" xml:space="preserve" viewBox="0 0 79.375 21.167">
  <path d="M8.325 18.903a9.628 9.628 0 0 1-.91-.106 8.15 8.15 0 0 1-3.104-1.2 8.558 8.558 0 0 1-2.448-2.451 8.467 8.467 0 0 1-.43-8.37A8.068 8.068 0 0 1 3.07 4.569c1.667-1.625 3.93-2.447 6.315-2.293 1.183.077 2.218.337 3.175.798 1.274.613 2.319 1.53 3.188 2.797.197.286.235.441.164.664a.647.647 0 0 1-.344.354.693.693 0 0 1-.404.002c-.13-.044-.23-.14-.396-.384-1.172-1.71-2.832-2.736-4.862-3.005-1.301-.174-2.579-.032-3.706.41-.32.126-.888.413-1.17.59a7.218 7.218 0 0 0-2.284 2.324 7.245 7.245 0 0 0-1.013 3.011 11.318 11.318 0 0 0 0 1.497c.105.923.33 1.695.725 2.488a6.84 6.84 0 0 0 1.41 1.924c.579.565 1.126.949 1.856 1.301 1.208.584 2.509.797 3.988.651 2.102-.207 3.753-1.16 4.85-2.802a8.79 8.79 0 0 0 1.36-3.713l.016-.14-.05-.001c-.092 0-4.598.355-4.607.363-.005.005.172.371.394.815.222.443.408.83.414.86.02.102-.002.108-.558.15-.282.02-.611.038-.731.038-.194 0-.223-.005-.255-.039-.02-.021-.218-.413-.44-.87-.405-.83-.406-.83-.466-.83-.147.002-2.655.207-2.666.218-.007.007-.123.457-.26 1l-.246.987-.057.013c-.1.021-.335.018-.387-.006-.027-.012-.05-.035-.05-.05 0-.016.43-1.574.954-3.462.616-2.216.972-3.467 1.005-3.527.068-.126.196-.24.3-.268a.808.808 0 0 1 .385.023c.06.017.122.06.197.134.104.103.152.195.989 1.867.483.967.882 1.761.885 1.765.003.003 1.299-.095 2.88-.22 1.58-.123 2.912-.224 2.96-.224a.624.624 0 0 1 .567.354c.042.094.046.125.043.394-.007.762-.182 1.738-.477 2.652-.486 1.51-1.297 2.822-2.319 3.753-1.226 1.116-2.715 1.75-4.54 1.935-.28.028-1.28.053-1.476.036zm-.093-8.48c.511-.041.933-.079.938-.084.018-.017-.65-1.49-.915-2.02-.152-.306-.212-.406-.241-.406-.036 0-.238.682-.523 1.769-.215.819-.214.816-.2.815l.941-.074zm-.102 6.09a6.078 6.078 0 0 1-3.957-2.205 5.978 5.978 0 0 1-1.038-5.55c.565-1.766 1.935-3.18 3.656-3.77a6.266 6.266 0 0 1 1.368-.305 8.616 8.616 0 0 1 1.439.01c1.3.177 2.364.663 3.19 1.456.286.275.328.349.328.578 0 .136-.009.18-.046.253a.584.584 0 0 1-.73.29c-.091-.034-.155-.082-.33-.249a3.8 3.8 0 0 0-1.071-.743c-.943-.45-2.082-.575-3.19-.348A4.648 4.648 0 0 0 5.357 7.26c-.366.38-.612.735-.852 1.227-.215.44-.33.8-.42 1.307a6.122 6.122 0 0 0-.038 1.252 4.81 4.81 0 0 0 2.693 3.846c.643.317 1.21.459 1.916.48a4.959 4.959 0 0 0 1.623-.218c1.267-.384 2.154-1.116 2.72-2.246.106-.209.164-.302.225-.357a.579.579 0 0 1 .901.144c.055.098.06.123.06.282v.175l-.15.302c-.156.318-.409.715-.63.99-.181.228-.58.624-.814.81-.863.682-1.97 1.127-3.139 1.26a7.82 7.82 0 0 1-1.322 0zm32.238-2.575c-2.108-.234-3.69-1.783-3.898-3.819a5.31 5.31 0 0 1 .03-1.079c.314-1.874 1.776-3.269 3.732-3.56a6.35 6.35 0 0 1 1.253.01c.9.14 1.658.502 2.358 1.126.083.074.15.142.15.151 0 .01-.233.218-.518.464l-.518.447-.187-.18a2.784 2.784 0 0 0-1.368-.716 3.606 3.606 0 0 0-1.154 0c-1.162.25-2.03 1.147-2.274 2.346-.055.271-.05.919.01 1.195.063.287.124.46.257.729a2.893 2.893 0 0 0 2.007 1.568 3.74 3.74 0 0 0 1.11.01c.466-.094.987-.329 1.309-.59l.082-.067V10.712H41.428V9.623h2.799v2.87l-.2.194a3.528 3.528 0 0 1-.62.5 4.98 4.98 0 0 1-1.883.713 5.99 5.99 0 0 1-1.156.038zm-8.62-.021c-1.564-.16-2.931-1.128-3.554-2.52a4.14 4.14 0 0 1 .01-3.416c.438-.982 1.29-1.787 2.319-2.194 1.532-.605 3.204-.347 4.432.684.101.085.222.193.267.24l.082.085-.451.479-.452.478-.093-.104c-.36-.4-.936-.723-1.517-.848a3.693 3.693 0 0 0-1.111-.008 2.763 2.763 0 0 0-1.5.798 2.912 2.912 0 0 0-.816 1.507c-.052.237-.052.965-.001 1.206.126.592.395 1.088.817 1.507a2.77 2.77 0 0 0 1.5.798c.288.055.82.05 1.098-.01a2.939 2.939 0 0 0 1.446-.765l.185-.18.448.476.447.476-.092.095a5.1 5.1 0 0 1-.685.543 4.342 4.342 0 0 1-2.78.673zm24.394-.029c-.931-.11-1.69-.566-2.188-1.311a2.96 2.96 0 0 1-.44-1.057 3.503 3.503 0 0 1 .002-1.139c.229-1.068.96-1.894 1.975-2.231.477-.158 1.077-.191 1.652-.091.215.037.578.157.77.253.478.239.794.59.934 1.04.038.121.046.186.045.398 0 .297-.032.442-.15.69-.14.296-.437.548-.79.671-.337.117-.249.113-2.128.12l-1.727.007.013.092c.049.346.224.76.446 1.054.557.74 1.433 1.072 2.378.902a2.36 2.36 0 0 0 1.21-.624l.15-.14.192.195.193.194-.175.166c-.405.382-.932.65-1.504.766-.18.037-.699.064-.858.045zm1.37-3.24c.356-.103.617-.307.711-.557.138-.363.065-.706-.215-1-.322-.34-.882-.537-1.522-.537-.418 0-.716.068-1.073.243a2.391 2.391 0 0 0-1.312 1.856v.04l1.648-.005c1.496-.006 1.658-.01 1.764-.04zm3.74 3.183a2.143 2.143 0 0 1-.696-.207 1.044 1.044 0 0 1-.38-.276 1.28 1.28 0 0 1-.369-.624c-.086-.297-.098-.706-.029-.966.057-.214.225-.453.427-.609.316-.243.713-.382 1.341-.47.28-.038 1.23-.047 2.114-.019l.51.016v-.463c0-.511-.016-.624-.116-.831-.184-.38-.584-.65-1.157-.78-.214-.049-.847-.06-1.078-.02-.479.083-.953.327-1.171.601-.087.11-.19.311-.19.372a.394.394 0 0 1-.013.083c-.011.043-.016.044-.33.044h-.318v-.065c0-.098.068-.345.127-.463.382-.762 1.423-1.218 2.604-1.143.317.02.478.042.695.097.725.185 1.25.584 1.459 1.11.127.32.119.149.125 2.441l.006 2.085h-.541l-.012-.14a14.851 14.851 0 0 1-.022-.356 9.259 9.259 0 0 0-.022-.326l-.01-.113-.169.162c-.662.638-1.813.993-2.785.86zm.98-.524c.843-.112 1.62-.578 1.883-1.128l.055-.116v-.9l-.442-.017a38 38 0 0 0-1.142-.016c-.74 0-.933.016-1.282.108-.43.112-.73.314-.86.577-.097.2-.086.605.025.855.123.278.392.502.708.589.28.076.7.096 1.055.048zm8.644.52a3.561 3.561 0 0 1-.22-.036c-.743-.147-1.17-.594-1.357-1.42-.043-.189-.044-.215-.05-1.926l-.007-1.735h-1.029v-.263c0-.144.003-.262.005-.262.058 0 .995-.099 1-.105.006-.005.044-.366.085-.803.04-.436.075-.795.076-.798 0-.003.11-.005.244-.005h.243v1.672H71.985v.564h-2.121l.007 1.667c.007 1.598.009 1.674.047 1.842.13.568.41.896.875 1.024.137.038.211.042.788.05l.637.007v.541l-.637-.003a22.02 22.02 0 0 1-.705-.01zm-51.083-.068c0-.004.756-1.825 1.68-4.049l1.68-4.042h1.411L26.24 9.7c.923 2.218 1.677 4.04 1.678 4.048 0 .008-.351.013-.781.01l-.782-.005-.313-.758-.313-.758h-3.747l-.313.758-.313.758-.782.005c-.43.003-.78.003-.78 0zm5.395-2.832c-.044-.071-1.292-3.144-1.303-3.207-.007-.044-.02-.08-.028-.08s-.024.044-.036.097c-.013.053-.304.777-.647 1.609l-.642 1.555-.017.044h1.342c.846 0 1.338-.007 1.33-.018zm48.332-1.06V5.968h.632l-.005 1.55-.005 1.55.062-.077c.124-.155.418-.43.556-.522a2.892 2.892 0 0 1 1.025-.415c.233-.047.866-.047 1.137 0 .564.096.992.302 1.295.62.364.384.552.892.61 1.648.01.148.02.953.02 1.842v1.58h-.66l-.007-1.804c-.006-1.783-.007-1.805-.05-1.993-.083-.364-.235-.667-.44-.875-.322-.328-.827-.5-1.468-.499-.706.001-1.328.302-1.7.823-.114.16-.252.45-.307.644-.043.155-.043.159-.049 1.94l-.006 1.783h-.64zm-27.466.126V6.24h.641V9.74h4.782V6.24h.661v7.503h-.66V10.323h-4.782V13.744h-.642zm21.333 3.729c-.314-.04-.552-.134-.708-.28a.82.82 0 0 1-.234-.378c-.096-.285-.097-.302-.097-3.815V5.97h.621v3.134c0 1.914.008 3.22.02 3.353.048.547.243.704.87.705h.199v.583l-.267-.002a4.598 4.598 0 0 1-.404-.02z" style="fill:#23395d;fill-opacity:1;stroke-width:.46559"/>
</svg>
