<?xml version="1.0" encoding="UTF-8" standalone="no"?>
<!-- Created with Inkscape (http://www.inkscape.org/) -->

<svg
   width="500"
   height="500"
   viewBox="0 0 132.29166 132.29167"
   version="1.1"
   id="svg1"
   xml:space="preserve"
   inkscape:version="1.4 (86a8ad7, 2024-10-11)"
   sodipodi:docname="adifferentway.svg"
   xmlns:inkscape="http://www.inkscape.org/namespaces/inkscape"
   xmlns:sodipodi="http://sodipodi.sourceforge.net/DTD/sodipodi-0.dtd"
   xmlns="http://www.w3.org/2000/svg"
   xmlns:svg="http://www.w3.org/2000/svg"><sodipodi:namedview
     id="namedview1"
     pagecolor="#ffffff"
     bordercolor="#111111"
     borderopacity="1"
     inkscape:showpageshadow="0"
     inkscape:pageopacity="0"
     inkscape:pagecheckerboard="1"
     inkscape:deskcolor="#d1d1d1"
     inkscape:document-units="px"
     inkscape:zoom="0.78573232"
     inkscape:cx="397.08179"
     inkscape:cy="561.25984"
     inkscape:window-width="1920"
     inkscape:window-height="1115"
     inkscape:window-x="-9"
     inkscape:window-y="-9"
     inkscape:window-maximized="1"
     inkscape:current-layer="layer1" /><defs
     id="defs1" /><g
     inkscape:label="Layer 1"
     inkscape:groupmode="layer"
     id="layer1"><path
       style="fill:#27995c;fill-opacity:1;stroke-width:1.1342"
       d="m 36.132719,113.91215 c -0.569424,-0.56943 -0.602361,-1.18474 -0.79345,-14.823017 -0.109654,-7.825919 -0.201589,-18.41519 -0.204307,-23.531734 -0.0027,-5.22351 -0.127585,-9.496731 -0.284631,-9.745064 -0.238925,-0.377812 -0.380403,-0.352497 -0.970698,0.173725 -3.676832,3.277712 -5.747747,4.934925 -6.358365,5.088178 -1.45733,0.365768 -2.626704,-1.019713 -2.144081,-2.540312 0.107329,-0.338172 3.461779,-3.438507 7.45433,-6.889625 3.99255,-3.45112 14.281296,-12.373969 22.863877,-19.82854 8.582582,-7.454582 15.982804,-13.756273 16.444939,-14.003778 1.486597,-0.796151 0.46552,-1.615214 16.031663,12.859927 5.859728,5.449011 6.946937,6.333766 7.006471,5.701711 0.01168,-0.123787 0.06249,-1.094866 0.11308,-2.157951 0.129196,-2.71829 0.554011,-3.018603 4.270023,-3.018603 4.26583,0 3.99824,-0.429998 3.99824,6.42499 0,3.192023 0.0811,6.20897 0.18013,6.704297 0.13792,0.689628 1.70043,2.297821 6.66962,6.864573 10.64176,9.779929 10.2554,9.385614 10.2554,10.466358 0,1.121337 -0.78069,1.94953 -1.83772,1.94953 -0.67336,0 -2.41785,-1.387614 -6.1306,-4.876468 -0.95049,-0.893171 -1.50587,-1.041796 -1.68205,-0.45013 -0.0615,0.206311 -0.021,10.165557 0.0899,22.131656 0.15029,16.214847 0.11319,21.942687 -0.14548,22.487367 -0.50945,1.07255 -1.69516,1.25553 -6.04886,0.93349 -10.155119,-0.75119 -22.216207,-4.21162 -29.255762,-8.39375 -2.347152,-1.39441 -2.640329,-1.44531 -3.668283,-0.63671 -0.76546,0.60211 -5.03511,2.81705 -7.438088,3.85862 -6.287186,2.72517 -17.323092,5.28273 -24.441008,5.66419 -3.104717,0.16639 -3.42867,0.13273 -3.97433,-0.41293 z m 7.786108,-3.85492 c 4.226808,-0.63346 10.394382,-2.07167 14.123799,-3.29352 4.997808,-1.6374 10.63802,-4.29225 10.920731,-5.14039 0.05983,-0.17946 -0.823712,-0.88029 -1.963412,-1.55737 -4.584119,-2.72337 -10.450566,-7.538965 -12.599544,-10.342593 -5.014434,-6.542006 -6.064437,-15.33357 -2.501909,-20.948231 4.056916,-6.393823 13.329106,-8.41863 19.54628,-4.26839 1.328852,0.887069 1.848462,0.876498 3.273585,-0.06658 2.727265,-1.804818 6.915388,-2.616678 10.262104,-1.989296 4.279686,0.802287 8.093182,3.842305 10.104821,8.055311 1.119999,2.345627 1.122278,2.358443 1.115394,6.251628 -0.0057,3.486903 -0.09595,4.156104 -0.845036,6.301895 -0.460972,1.32039 -1.428353,3.346002 -2.149738,4.501354 -1.338106,2.143059 -5.244153,6.227458 -8.301727,8.6808 -1.992755,1.598949 -6.530585,4.673212 -6.897997,4.673212 -0.139778,0 -0.254151,0.2506 -0.254151,0.55688 0,1.19692 7.61244,4.32824 15.904787,6.5423 3.977093,1.06188 12.911456,2.29607 13.361746,1.84579 0.26551,-0.26552 0.14675,-44.400283 -0.12263,-45.571411 -0.16648,-0.723745 -0.76518,-1.549589 -1.86567,-2.573476 -4.56078,-4.243324 -11.002302,-10.196805 -13.920426,-12.865747 -1.804602,-1.650497 -5.2492,-4.823942 -7.654667,-7.052122 -8.238832,-7.631574 -9.941022,-9.152864 -10.34339,-9.244145 -0.221588,-0.05024 -1.597631,0.93956 -3.057875,2.199644 -1.460242,1.260073 -4.326657,3.731936 -6.369805,5.493018 -2.04315,1.761094 -4.964235,4.282306 -6.4913,5.602707 -1.527064,1.320401 -6.158046,5.304095 -10.29107,8.852665 -6.401517,5.496273 -7.546652,6.604045 -7.731046,7.478842 -0.119051,0.564798 -0.130019,2.928015 -0.02437,5.251582 0.10565,2.323578 0.20043,12.722076 0.210633,23.107782 0.01147,11.678991 0.130385,19.092071 0.311689,19.430841 0.354861,0.66307 0.400498,0.664 4.250196,0.0871 z M 76.470025,96.958529 c 3.685098,-2.308981 7.598449,-5.352219 10.086099,-7.843511 3.781558,-3.787069 5.621184,-7.826362 5.62791,-12.35725 0.0034,-2.399512 -0.291388,-3.578524 -1.338844,-5.35189 -0.99374,-1.682437 -2.404037,-2.965001 -4.390542,-3.992881 -1.436679,-0.743388 -1.980936,-0.853621 -4.201267,-0.850888 -3.137684,0.0034 -4.787525,0.709544 -7.146713,3.056928 -0.877275,0.87288 -1.81035,1.587052 -2.073501,1.587052 -0.26315,0 -1.263298,-0.748606 -2.222551,-1.663587 -2.410525,-2.299249 -3.99149,-2.966192 -7.012785,-2.958412 -2.881233,0.0079 -5.11651,0.885855 -6.969612,2.738956 -1.925647,1.925643 -2.615789,3.675588 -2.738254,6.943172 -0.121163,3.232876 0.373785,5.450826 1.850826,8.293889 1.787404,3.44047 7.927493,8.797327 14.378649,12.544495 2.922592,1.697591 3.219376,1.690547 6.150585,-0.146073 z M 14.583027,88.840758 C 10.772071,87.521161 7.0718539,84.384896 4.3192249,80.141278 2.7559839,77.731285 0.64436593,72.61684 0.54780893,71.006708 c -0.07723,-1.287792 -0.02999,-1.301573 2.48174397,-0.724096 0.843868,0.194016 3.547491,0.240507 7.2077351,0.123945 6.589594,-0.20986 9.049115,0.0676 11.185687,1.26173 1.689827,0.944459 3.550693,2.940117 4.510628,4.837337 0.758925,1.499945 2.003441,5.351142 2.003441,6.199704 0,0.774693 -2.211659,1.202773 -6.176772,1.19556 -2.92,-0.0057 -4.030158,-0.137091 -5.701715,-0.676844 -3.138715,-1.013499 -5.068164,-2.05956 -7.3815291,-4.001944 -1.154191,-0.969106 -2.170598,-1.689935 -2.258682,-1.601853 -0.484162,0.484168 4.0536991,4.972161 6.8818491,6.806229 4.047716,2.624969 9.763731,3.078682 15.189167,1.205654 1.541647,-0.532234 2.867783,-0.902902 2.946969,-0.823713 0.180725,0.180723 -2.037755,1.71153 -3.711538,2.561045 -4.238233,2.15109 -9.482835,2.738241 -13.141766,1.471296 z M 17.21115,65.98944 c -2.073987,-2.217087 -3.759326,-4.864501 -4.657335,-7.31596 -0.489019,-1.334963 -0.627772,-2.395712 -0.617747,-4.722579 0.01112,-2.590602 0.133503,-3.30905 0.894794,-5.254655 1.716233,-4.386131 5.321418,-8.736783 9.544447,-11.518022 3.061106,-2.016017 4.315023,-2.665142 4.793522,-2.481526 0.242213,0.093 0.450707,1.108487 0.580465,2.827366 0.113478,1.503223 0.649319,4.318158 1.218972,6.403633 1.450282,5.309426 1.76931,7.205819 1.603077,9.529146 -0.183363,2.562724 -1.532215,5.25089 -3.512704,7.00054 -1.583851,1.39924 -5.627522,3.846638 -6.355557,3.846638 -0.607244,0 -1.491101,-1.97243 -2.345381,-5.233968 -1.409539,-5.381469 -0.519103,-10.946668 2.522354,-15.764645 1.036944,-1.642627 0.946809,-1.810807 -0.317137,-0.591735 -1.443412,1.392161 -3.522899,4.776556 -4.509781,7.339733 -0.707225,1.836836 -0.807689,2.525035 -0.809903,5.547993 -0.0034,4.581032 0.728947,6.754203 3.918482,11.628505 0.858685,1.312245 -0.181347,0.650849 -1.950568,-1.240464 z m 110.57777,-0.996326 c -0.90491,-0.791626 -3.85705,-2.654684 -6.5603,-4.140133 -5.30323,-2.914145 -7.67644,-4.85797 -8.99288,-7.365774 -0.61488,-1.171334 -0.70312,-1.7641 -0.71265,-4.787888 -0.009,-2.776735 0.1227,-3.876137 0.67294,-5.626695 0.37611,-1.196603 0.80429,-2.175655 0.95152,-2.175655 0.14723,0 1.33608,0.450595 2.64187,1.001305 2.24288,0.945934 6.10979,3.52321 7.58387,5.054628 1.78935,1.858952 4.25326,6.669093 4.55143,8.885454 0.13177,0.979563 0.67477,0.96855 0.78796,-0.01599 0.15635,-1.359984 -1.0548,-5.600291 -2.35393,-8.241127 -2.35516,-4.787571 -6.25945,-7.705957 -12.15793,-9.087865 -3.1533,-0.738761 -3.25036,-1.135175 -0.28792,-1.176006 4.28563,-0.05909 9.4499,1.692543 12.19921,4.137718 4.56523,4.060207 6.61557,11.874761 5.21697,19.883717 -0.50501,2.891834 -1.11961,4.835195 -1.57743,4.987801 -0.17458,0.05818 -1.05781,-0.541886 -1.96273,-1.333512 z M 101.2742,36.890035 c -2.227194,-0.566317 -6.717115,-2.889021 -6.717115,-3.474846 0,-0.264734 0.361095,-1.019078 0.802446,-1.676324 3.665392,-5.458482 8.609829,-8.684111 14.501659,-9.460528 1.40265,-0.18484 2.60676,-0.392558 2.6758,-0.461608 0.73494,-0.734926 -4.01204,-0.930542 -7.22948,-0.297908 -6.712051,1.319777 -11.879725,6.113312 -14.258652,13.226307 l -0.40146,1.200358 0.164912,-1.837596 c 0.205403,-2.288905 1.334794,-5.900525 2.569654,-8.217354 0.527618,-0.989907 1.812768,-2.601378 2.93271,-3.677358 4.363336,-4.192036 11.239246,-5.421984 18.707786,-3.346377 2.67058,0.742198 7.57341,2.907214 7.94495,3.508386 0.11659,0.188651 -0.22339,0.669098 -0.77895,1.100774 -2.60959,2.027665 -4.06488,3.436069 -6.83808,6.61777 -3.34752,3.840604 -4.59457,4.937805 -6.9995,6.158408 -1.94388,0.986595 -4.7209,1.236924 -7.07668,0.637896 z"
       id="path1" /></g></svg>
