<svg xmlns="http://www.w3.org/2000/svg" xml:space="preserve" viewBox="0 0 132.292 132.292">
  <path d="M36.133 113.912c-.57-.57-.603-1.185-.794-14.823-.11-7.826-.201-18.415-.204-23.532-.003-5.223-.128-9.496-.285-9.745-.239-.377-.38-.352-.97.174-3.677 3.278-5.748 4.935-6.359 5.088-1.457.366-2.626-1.02-2.144-2.54.108-.338 3.462-3.439 7.455-6.89 3.992-3.45 14.28-12.374 22.863-19.828 8.583-7.455 15.983-13.757 16.445-14.004 1.487-.796.466-1.615 16.032 12.86 5.86 5.449 6.947 6.334 7.006 5.702.012-.124.063-1.095.114-2.158.129-2.719.554-3.019 4.27-3.019 4.265 0 3.998-.43 3.998 6.425 0 3.192.08 6.209.18 6.704.138.69 1.7 2.298 6.67 6.865 10.641 9.78 10.255 9.386 10.255 10.466 0 1.122-.78 1.95-1.838 1.95-.673 0-2.418-1.388-6.13-4.877-.95-.893-1.506-1.041-1.682-.45-.062.207-.021 10.166.09 22.132.15 16.215.113 21.943-.146 22.487-.51 1.073-1.695 1.256-6.049.934-10.155-.751-22.216-4.212-29.256-8.394-2.347-1.394-2.64-1.445-3.668-.637-.765.602-5.035 2.817-7.438 3.859-6.287 2.725-17.323 5.283-24.441 5.664-3.105.166-3.429.133-3.974-.413zm7.786-3.855c4.227-.633 10.394-2.071 14.124-3.293 4.997-1.638 10.638-4.293 10.92-5.14.06-.18-.823-.881-1.963-1.558-4.584-2.723-10.45-7.539-12.6-10.343-5.014-6.542-6.064-15.333-2.502-20.948 4.057-6.394 13.33-8.419 19.547-4.268 1.329.887 1.848.876 3.273-.067 2.728-1.805 6.916-2.617 10.262-1.99 4.28.803 8.094 3.843 10.105 8.056 1.12 2.346 1.123 2.359 1.116 6.252-.006 3.487-.096 4.156-.845 6.302-.461 1.32-1.429 3.346-2.15 4.501-1.338 2.143-5.244 6.228-8.302 8.68-1.993 1.6-6.53 4.674-6.898 4.674-.14 0-.254.25-.254.557 0 1.197 7.612 4.328 15.905 6.542 3.977 1.062 12.911 2.296 13.362 1.846.265-.265.146-44.4-.123-45.571-.167-.724-.765-1.55-1.866-2.574A2879.364 2879.364 0 0 0 91.11 48.85c-1.805-1.65-5.25-4.824-7.655-7.052-8.239-7.631-9.94-9.153-10.343-9.244-.222-.05-1.598.94-3.058 2.2l-6.37 5.493A5764.998 5764.998 0 0 1 46.902 54.7c-6.402 5.496-7.547 6.604-7.731 7.479-.12.565-.13 2.928-.025 5.252.106 2.323.2 12.722.21 23.107.012 11.68.131 19.092.313 19.431.354.663.4.664 4.25.087zM76.47 96.96c3.685-2.31 7.598-5.353 10.086-7.844 3.782-3.787 5.621-7.826 5.628-12.357.003-2.4-.291-3.579-1.339-5.352-.994-1.683-2.404-2.965-4.39-3.993-1.437-.743-1.981-.854-4.202-.85-3.137.003-4.787.709-7.146 3.056-.878.873-1.81 1.587-2.074 1.587-.263 0-1.263-.749-2.222-1.663-2.41-2.3-3.992-2.967-7.013-2.959-2.881.008-5.117.886-6.97 2.739-1.925 1.926-2.616 3.676-2.738 6.943-.121 3.233.374 5.451 1.85 8.294 1.788 3.44 7.928 8.797 14.38 12.545 2.922 1.697 3.219 1.69 6.15-.146zM14.583 88.84c-3.81-1.32-7.511-4.456-10.264-8.7-1.563-2.41-3.675-7.524-3.771-9.134-.077-1.288-.03-1.302 2.482-.724.843.194 3.547.24 7.207.124 6.59-.21 9.05.067 11.186 1.261 1.69.945 3.55 2.94 4.51 4.838.76 1.5 2.004 5.35 2.004 6.2 0 .774-2.212 1.202-6.177 1.195-2.92-.006-4.03-.137-5.701-.677-3.14-1.013-5.069-2.06-7.382-4.002-1.154-.969-2.17-1.69-2.259-1.602-.484.484 4.054 4.972 6.882 6.806 4.048 2.625 9.764 3.08 15.19 1.206 1.541-.532 2.867-.903 2.946-.824.181.181-2.037 1.712-3.711 2.561-4.238 2.152-9.483 2.739-13.142 1.472zm2.628-22.852c-2.074-2.217-3.76-4.864-4.657-7.316-.49-1.334-.628-2.395-.618-4.722.011-2.59.134-3.31.895-5.255 1.716-4.386 5.321-8.737 9.544-11.518 3.061-2.016 4.315-2.665 4.794-2.481.242.093.45 1.108.58 2.827.114 1.503.65 4.318 1.22 6.404 1.45 5.31 1.769 7.206 1.602 9.529-.183 2.563-1.532 5.25-3.512 7-1.584 1.4-5.628 3.847-6.356 3.847-.607 0-1.491-1.972-2.345-5.234-1.41-5.381-.52-10.947 2.522-15.765 1.037-1.642.947-1.81-.317-.591-1.443 1.392-3.523 4.776-4.51 7.34-.707 1.836-.808 2.524-.81 5.547-.003 4.581.73 6.755 3.919 11.629.858 1.312-.182.65-1.95-1.24zm110.578-.996c-.905-.792-3.857-2.655-6.56-4.14-5.304-2.914-7.677-4.858-8.993-7.366-.615-1.171-.703-1.764-.713-4.788-.009-2.776.123-3.876.673-5.626.376-1.197.804-2.176.952-2.176.147 0 1.336.45 2.641 1.001 2.243.946 6.11 3.523 7.584 5.055 1.79 1.859 4.254 6.669 4.552 8.885.131.98.674.969.788-.016.156-1.36-1.055-5.6-2.354-8.24-2.355-4.788-6.26-7.707-12.158-9.089-3.153-.738-3.25-1.135-.288-1.176 4.286-.059 9.45 1.693 12.2 4.138 4.564 4.06 6.615 11.875 5.216 19.884-.505 2.892-1.12 4.835-1.577 4.988-.175.058-1.058-.542-1.963-1.334zM101.274 36.89c-2.227-.566-6.717-2.889-6.717-3.475 0-.265.361-1.019.803-1.676 3.665-5.459 8.61-8.684 14.501-9.46 1.403-.186 2.607-.393 2.676-.462.735-.735-4.012-.93-7.23-.298-6.712 1.32-11.88 6.113-14.258 13.226l-.402 1.2.165-1.837c.206-2.289 1.335-5.9 2.57-8.217.528-.99 1.813-2.602 2.933-3.678 4.363-4.192 11.239-5.422 18.707-3.346 2.671.742 7.574 2.907 7.945 3.508.117.189-.223.67-.779 1.101-2.61 2.028-4.064 3.436-6.838 6.618-3.347 3.84-4.594 4.938-7 6.158-1.943.987-4.72 1.237-7.076.638z" style="fill:#27995c;fill-opacity:1;stroke-width:1.1342"/>
</svg>
