<svg xmlns="http://www.w3.org/2000/svg" xml:space="preserve" id="Layer_1" x="0" y="0" style="enable-background:new 0 0 300 73.1" version="1.1" viewBox="0 0 300 73.1">
  <style>
    .st2{fill:#231f20}.st3{fill:#0093d0}
  </style>
  <path d="m128.4 36 21.5-34.3 21.5 34.4-43-.1z" style="fill-rule:evenodd;clip-rule:evenodd;fill:#0093d0"/>
  <path d="M158.8 24c0 4.9-4 8.9-8.9 8.9s-8.9-4-8.9-8.9 4-8.9 8.9-8.9 8.9 4 8.9 8.9z" style="fill-rule:evenodd;clip-rule:evenodd;fill:#fff"/>
  <path d="M59.6 38.5h1.6L67.4 53h-1.6l-2.1-4.9H57L54.9 53h-1.6l6.3-14.5zm3.6 8.4-2.8-6.7-2.8 6.7h5.6zM68 38.5h1.4V53H68V38.5zM75.8 46.5v1.3h-5.3v-1.3h5.3zM81.3 38.5h1.6L89.1 53h-1.6l-2.1-4.9h-6.8L76.5 53h-1.6l6.4-14.5zm3.6 8.4-2.8-6.7-2.8 6.7h5.6zM89.9 42.3h1.4v1.6c.8-1.2 1.9-1.8 3.3-1.8s2.8.6 3.8 1.8c.8 1 1 2.2 1 3.5v5.7H98v-5.7c0-.9-.1-1.8-.6-2.6-.7-.9-1.7-1.4-2.8-1.4-1 0-2 .5-2.6 1.3-.6.8-.6 1.7-.6 2.6V53H90l-.1-10.7zM111.6 47.6c0 3.1-2.5 5.7-5.6 5.7s-5.6-2.5-5.6-5.6 2.5-5.7 5.6-5.7 5.6 2.6 5.6 5.6zm-9.8.2c0 2.3 1.9 4.2 4.2 4.2s4.1-2 4.1-4.3c0-1.2-.4-2.1-1.3-3-.8-.7-1.8-1.2-2.9-1.2-2.3 0-4.1 1.9-4.1 4.3zM112.9 42.3h1.4v1.6c.8-1.2 1.9-1.8 3.3-1.8s2.8.6 3.8 1.8c.8 1 1 2.2 1 3.5v5.7H121v-5.7c0-.9-.1-1.8-.6-2.6-.7-.9-1.7-1.4-2.8-1.4-1 0-2 .5-2.6 1.3-.6.8-.6 1.7-.6 2.6V53H113l-.1-10.7z" class="st2"/>
  <path d="M128.4 38.5h7.4v1.3h-5.9V45h5.7v1.3h-5.7v6.6h-1.4V38.5h-.1z" class="st3"/>
  <path d="M145.8 53.1h-1.4v-2c-.8 1.5-2.4 2.3-4.1 2.3s-3.4-.7-4.7-2.3c-.4-.4-1.1-1.8-1.1-3.4 0-1.5.6-2.8 1.6-3.8 1-1.1 2.4-1.8 4.2-1.8 1.7 0 3.4.8 4.2 2.3v-2.1h1.4v10.8h-.1zm-9.9-5.4c0 2.4 2 4.2 4.4 4.2s4.2-1.9 4.2-4.2c0-2.4-1.8-4.3-4.2-4.3s-4.4 2-4.4 4.3zM147.8 42.3h1.4v1.4c.5-1.1 1.6-1.6 2.8-1.6 1.4 0 2.6.6 3.5 1.6.1.1.2.3.3.4.1-.1.1-.3.2-.4.8-1 2.1-1.6 3.4-1.6 1.2 0 2.3.6 3.3 1.6.9.9 1 2 1 3.2V53h-1.4v-6c0-.8-.1-1.6-.5-2.3-.6-.8-1.4-1.3-2.4-1.3-.9 0-1.9.5-2.4 1.2s-.4 1.6-.4 2.4v6H155v-6.1c0-.8 0-1.4-.5-2.1-.6-.8-1.4-1.3-2.4-1.3-.9 0-1.8.4-2.4 1.1-.5.7-.5 1.5-.5 2.3V53h-1.4V42.3zM165.4 38.5h1.5V41h-1.5v-2.5zm0 3.8h1.5v10.8h-1.5V42.3zM169.1 38.5h1.5V53h-1.5V38.5zM182 42.3l-6.2 14.5h-1.5l1.7-4.1-4.1-10.4h1.6l3.4 8.6 3.6-8.6h1.5z" class="st3"/>
  <path d="M200.2 46.4c-.3 4-3.8 7-7.7 7-4.2 0-7.8-3.3-7.8-7.6 0-1.9.9-3.9 2.2-5.2 1.5-1.5 3.5-2.2 5.5-2.2 1.5 0 3 .4 4.3 1.2.9.6 2.2 1.8 2.5 2.9h-1.6c-1-1.7-3.1-2.7-5.1-2.7-1.6 0-3.1.5-4.3 1.6s-2 2.8-2 4.4c0 3.5 2.9 6.2 6.4 6.2 2.6 0 5.1-1.7 5.9-4.2h-8.1v-1.3l9.8-.1zM201.2 42.3h1.4v1.6c.5-1.3 1.8-1.8 3.1-1.8v1.4c-.8.1-1.3.2-1.9.8-1 .9-1.1 1.6-1.1 2.8v6h-1.5V42.3z" class="st2"/>
  <path d="M215.9 47.6c0 3.1-2.5 5.7-5.6 5.7s-5.6-2.5-5.6-5.6 2.5-5.7 5.6-5.7 5.6 2.6 5.6 5.6zm-9.8.2c0 2.3 1.9 4.2 4.2 4.2s4.1-2 4.1-4.3c0-1.2-.4-2.1-1.3-3-.8-.7-1.8-1.2-2.9-1.2-2.2 0-4 1.9-4.1 4.3zM226.5 53.1h-1.4v-1.7c-.7 1.4-2 1.9-3.5 1.9-1.4 0-2.6-.5-3.8-1.9-.6-.7-.8-2-.8-3.4v-5.7h1.5V48c0 .8 0 1.6.5 2.4.6 1 1.6 1.6 2.8 1.6 1 0 2-.5 2.6-1.3.6-.8.6-1.7.6-2.6v-5.7h1.5v10.7zM229.7 42.3v1.9c.8-1.4 2.7-2.1 4.2-2.1s3 .6 4.4 2.1c.6.6 1.3 2 1.3 3.6 0 3.2-2.7 5.6-5.8 5.6-1.6 0-3.4-.8-4-2.3v5.8h-1.5V42.3h1.4zm8.5 5.4c0-2.3-1.9-4.2-4.2-4.2s-4.3 1.8-4.3 4.1c0 1.2.3 2.2 1.1 3 .8.9 1.9 1.3 3.1 1.3 2.4 0 4.3-1.8 4.3-4.2zM241.2 49.9c0 1.1.9 2 1.9 2 1 0 1.9-.7 1.9-1.8 0-1.3-1-1.8-2.1-2.1-.7-.2-1.4-.4-1.9-.9-.6-.5-.9-1.3-.9-2 0-1.8 1.4-3 3.1-3s3 1.3 3 2.9h-1.4c0-.9-.7-1.5-1.7-1.5-.8 0-1.5.7-1.5 1.5 0 1.2.9 1.5 1.9 1.8 1.6.5 3 1.2 3 3.1s-1.5 3.4-3.5 3.4c-1.8 0-3.4-1.6-3.3-3.4h1.5z" class="st2"/>
  <path d="M8.2 63.1c-.7 0-.7 0-.7.5v2.1c0 1.5.1 1.7.9 1.8h.4c.1.1.1.3 0 .4H5.3c-.1 0-.1-.3 0-.4h.2c.8-.1.8-.3.8-1.8v-5.2c0-1.5-.1-1.8-.9-1.8H5c-.1-.1-.1-.3 0-.4h3.5c.1 0 .1.3 0 .4h-.3c-.8.1-.9.3-.9 1.8v1.7c0 .4 0 .5.7.5h4.2c.7 0 .7 0 .7-.5v-1.7c0-1.5 0-1.8-.9-1.8h-.3c-.1-.1-.1-.3 0-.4h3.5c.1 0 .1.3 0 .4h-.3c-.9.1-.9.3-.9 1.8v5.2c0 1.5 0 1.7.9 1.8h.4c.1.1.1.3 0 .4h-3.6c-.1 0-.1-.3 0-.4h.3c.9-.1.9-.3.9-1.8v-2.1c0-.4 0-.5-.7-.5h-4zM17.8 64.1c-.4 0-.4 0-.4.4 0 1.5.9 2.7 2.4 2.7.5 0 .9-.1 1.3-.7.1 0 .2 0 .3.2-.5 1-1.5 1.4-2.3 1.4-1 0-1.7-.4-2.1-1-.4-.6-.6-1.2-.6-1.9 0-1.8 1.2-3.3 2.9-3.3 1.2 0 2.1.9 2.1 1.7 0 .2 0 .3-.1.4 0 .1-.2.1-.9.1h-2.6zm.9-.4c1.1 0 1.4-.1 1.5-.1 0 0 .1-.1.1-.3 0-.4-.3-.9-1.1-.9s-1.6.8-1.6 1.3c0 0 0 .1.1.1l1-.1zM24 66.2c0 1.1 0 1.2.5 1.3h.4c.1.1.1.3 0 .4h-2.8c-.1 0-.1-.3 0-.4h.3c.5-.1.5-.2.5-1.3v-6.6c0-.9 0-.9-.5-1.2l-.1-.1c-.1 0-.1-.2 0-.3.4-.1 1-.3 1.6-.6.1 0 .1 0 .1.1V66.2zM26.5 63.6c0-.6 0-.6-.4-.9H26c-.1-.1-.1-.2 0-.3.4-.2 1.1-.5 1.4-.8.1 0 .1 0 .2.1 0 .3-.1.5-.1.7 0 .1 0 .2.1.2.2-.1 1.1-.7 2-.7 1.5 0 2.4 1.2 2.4 2.7 0 2-1.5 3.5-3.6 3.5-.3 0-.7 0-.8-.1-.1 0-.2.1-.2.4v1.5c0 1 0 1.2.5 1.2l.6.1c.1.1.1.3 0 .4h-3c-.1 0-.1-.3 0-.4h.3c.5-.1.5-.2.5-1.3l.2-6.3zm1.1 2.8c0 .5.1.6.4.9.3.2.7.3 1 .3 1.2 0 1.9-1.1 1.9-2.6 0-1.2-.7-2.4-2-2.4-.6 0-1.1.2-1.2.4-.1.2-.2.4-.2.9v2.5zM39.8 64.8c.2-.1.2-.2.2-.4v-.7c0-.5-.2-1.3-1-1.3-.4 0-.9.2-.9.7 0 .2 0 .4-.2.5-.2.2-.6.3-.8.3-.1 0-.2-.1-.2-.2 0-.8 1.7-1.8 2.7-1.8s1.6.6 1.5 1.7l-.1 2.6c0 .7.1 1.3.7 1.3.2 0 .3 0 .4-.1.1 0 .2-.1.2-.1.1 0 .1.1.1.2s-.5.6-1.2.6c-.3 0-.7-.1-1-.4l-.2-.2c-.1 0-.3.1-.6.3-.3.2-.6.4-1 .4s-.8-.1-1-.3c-.3-.2-.5-.6-.5-1 0-.6.3-.9 1.2-1.2l1.7-.9zm-.9 2.6c.3 0 .7-.2.9-.4.2-.2.2-.4.2-.7v-.9c0-.2-.1-.2-.2-.2s-.3.1-.6.1c-.9.3-1.3.5-1.3 1.1.1.3.2 1 1 1zM43.7 63.6c0-.6 0-.6-.4-.9l-.1-.1c-.1-.1-.1-.2 0-.3.3-.1 1.2-.5 1.5-.7.1 0 .1 0 .2.1v.7c0 .1.1.2.2.2.6-.4 1.3-.7 2-.7 1.2 0 1.7.8 1.7 1.8v2.5c0 1.1 0 1.2.5 1.3h.3c.1.1.1.3 0 .4h-2.8c-.1 0-.1-.3 0-.4h.3c.5-.1.5-.2.5-1.3V64c0-.8-.4-1.4-1.4-1.4-.5 0-1 .2-1.2.5-.2.2-.2.4-.2.9v2.2c0 1.1 0 1.2.5 1.3h.3c.1.1.1.3 0 .4h-2.7c-.1 0-.1-.3 0-.4h.3c.5-.1.5-.2.5-1.3v-2.6zM56 65.7c0 1.1 0 1.7.4 1.7.2 0 .4-.1.6-.1.1 0 .1.4 0 .5-.6.1-1.5.3-1.9.5-.1 0-.2 0-.2-.1V67.6h-.1c-.6.4-1.1.7-1.8.7-1.6 0-2.7-1.3-2.7-2.8 0-2 1.5-3.4 3.5-3.4.5 0 .8.1 1 .1.1 0 .1-.1.1-.2v-2.2c0-.9 0-.9-.5-1.2l-.2-.1c-.1 0-.1-.2 0-.3.4-.1 1-.3 1.6-.6.1 0 .1 0 .2.1v8zm-1-2.2c0-.3-.1-.4-.2-.6-.2-.3-.7-.6-1.2-.6-1.3 0-2 1.1-2 2.4s.7 2.6 2.2 2.6c.4 0 .9-.2 1.1-.4.1-.1.1-.3.1-.5v-2.9zM62.2 59.6c0-.9 0-.9-.5-1.2l-.2-.1c-.1 0-.1-.2 0-.3.4-.1 1-.3 1.6-.6.1 0 .1 0 .2.1v4.9c0 .1 0 .2.1.3.5-.4 1.2-.8 2-.8 1.4 0 1.9.9 1.9 1.9v2.4c0 1.1 0 1.2.6 1.3h.4c.1.1.1.3 0 .4h-2.9c-.1 0-.1-.3 0-.4h.3c.5-.1.6-.2.6-1.3v-2.1c0-.9-.4-1.6-1.4-1.6-.5 0-.9.2-1.1.4-.3.2-.3.3-.3.8v2.4c0 1.1 0 1.2.5 1.3h.3c.1.1.1.3 0 .4h-2.8c-.1 0-.1-.3 0-.4h.4c.5-.1.5-.2.5-1.3l-.2-6.5zM75 64.9c0 1.8-1.2 3.1-3.1 3.1-1.7 0-3-1.2-3-3s1.4-3.1 3.1-3.1 3 1.2 3 3zm-3.1-2.6c-1 0-1.7.9-1.7 2.5 0 1.3.6 2.8 1.9 2.8s1.7-1.3 1.7-2.5-.5-2.8-1.9-2.8zM76.8 63.6c0-.6 0-.6-.4-.9l-.1-.1c-.1-.1-.1-.2 0-.3.4-.2 1.1-.5 1.4-.8.1 0 .2 0 .2.1 0 .3-.1.5-.1.7 0 .1 0 .2.1.2.2-.1 1.1-.7 2-.7 1.5 0 2.4 1.2 2.4 2.7 0 2-1.5 3.5-3.6 3.5-.3 0-.7 0-.8-.1-.1 0-.2.1-.2.4v1.5c0 1 0 1.2.6 1.2l.6.1c.1.1.1.3 0 .4h-3c-.1 0-.1-.3 0-.4h.3c.5-.1.6-.2.6-1.3v-6.2zm1 2.8c0 .5.2.6.4.9.3.2.7.3 1.1.3 1.2 0 1.9-1.1 1.9-2.6 0-1.2-.7-2.4-2-2.4-.6 0-1.1.2-1.2.4-.1.2-.2.4-.2.9.1-.1.1 2.5 0 2.5zM84.8 64.1c-.4 0-.4 0-.4.4 0 1.5.9 2.7 2.4 2.7.5 0 .9-.1 1.3-.7.2 0 .2 0 .3.2-.5 1-1.5 1.4-2.3 1.4-.9 0-1.7-.4-2.1-1-.4-.6-.6-1.2-.6-1.9 0-1.8 1.2-3.3 2.9-3.3 1.2 0 2.1.9 2.1 1.7 0 .2 0 .3-.1.4 0 .1-.2.1-.9.1h-2.6zm.9-.4c1.1 0 1.4-.1 1.5-.1 0 0 .1-.1.1-.3 0-.4-.3-.9-1.1-.9s-1.6.8-1.6 1.3c0 0 0 .1.1.1l1-.1zM95.1 62.7c-.2 0-.2 0-.2.4v3.1c0 1.1 0 1.2.6 1.3h.5c.1.1.1.3 0 .4h-3c-.1 0-.1-.3 0-.4h.3c.5-.1.6-.2.6-1.3v-3.1c0-.4 0-.4-.3-.4h-.5c-.1-.1-.1-.2 0-.3l.6-.3c.1-.1.2-.1.2-.3 0-.9.1-1.8.4-2.6.4-.8 1.2-1.9 2.6-1.9.8 0 1.4.4 1.4.9 0 .3-.3.5-.6.5-.2 0-.2-.1-.3-.2-.3-.3-.7-.6-1.2-.6-.4 0-.8.3-1 .8-.3.7-.3 1.7-.3 2.5v.4c0 .4 0 .4.2.4h1.7c.2.1.1.6-.1.6l-1.6.1zM103.2 64.9c0 1.8-1.2 3.1-3.1 3.1-1.7 0-3-1.2-3-3s1.4-3.1 3.1-3.1 3 1.2 3 3zm-3.2-2.6c-1 0-1.7.9-1.7 2.5 0 1.3.6 2.8 1.9 2.8s1.7-1.3 1.7-2.5-.5-2.8-1.9-2.8zM105.1 63.6c0-.6 0-.6-.4-.9l-.1-.1c-.1-.1-.1-.2 0-.3.3-.1 1.1-.5 1.5-.7.1 0 .1 0 .1.1v1c.5-.4 1.1-.9 1.6-.9.4 0 .7.2.7.6 0 .5-.4.7-.6.7-.2 0-.2 0-.3-.1-.2-.1-.4-.2-.6-.2-.2 0-.4.1-.5.3-.2.2-.2.6-.2 1.1v2c0 1.1 0 1.2.6 1.3h.5c.1.1.1.3 0 .4H104.5c-.1 0-.1-.3 0-.4h.3c.5-.1.6-.2.6-1.3l-.3-2.6zM114.8 62.7c-.2 0-.2 0-.2.4v3.1c0 1.1 0 1.2.6 1.3h.5c.1.1.1.3 0 .4h-3c-.1 0-.1-.3 0-.4h.3c.5-.1.6-.2.6-1.3v-3.1c0-.4 0-.4-.3-.4h-.5c-.1-.1-.1-.2 0-.3l.6-.3c.1-.1.2-.1.2-.3 0-.9.1-1.8.4-2.6.4-.8 1.2-1.9 2.6-1.9.8 0 1.4.4 1.4.9 0 .3-.3.5-.6.5-.2 0-.2-.1-.3-.2-.3-.3-.7-.6-1.2-.6-.4 0-.8.3-1 .8-.3.7-.3 1.7-.3 2.5v.4c0 .4 0 .4.2.4h1.7c.2.1.1.6-.1.6l-1.6.1z" class="st3"/>
  <path d="M119.8 64.8c.2-.1.2-.2.2-.4v-.7c0-.5-.2-1.3-1.1-1.3-.4 0-.9.2-.9.7 0 .2 0 .4-.2.5-.2.2-.6.3-.8.3-.1 0-.2-.1-.2-.2 0-.8 1.7-1.8 2.7-1.8s1.6.6 1.5 1.7l-.1 2.5c0 .7.1 1.3.7 1.3.2 0 .3 0 .4-.1.1 0 .2-.1.2-.1.1 0 .1.1.1.2s-.5.6-1.2.6c-.3 0-.7-.1-.9-.4l-.2-.2c-.1 0-.3.1-.6.3-.3.2-.6.4-1.1.4s-.8-.1-1-.3c-.3-.2-.4-.6-.4-1 0-.6.3-.9 1.2-1.2l1.7-.8zm-.9 2.6c.3 0 .7-.2.9-.4.2-.2.2-.4.2-.7v-.9c0-.2-.1-.2-.2-.2s-.3.1-.6.1c-.9.3-1.3.5-1.3 1.1.1.3.3 1 1 1zM131.4 64.1c0-1-.4-1.5-1.4-1.5-.6 0-1 .2-1.2.5-.2.2-.2.4-.2.9v2.2c0 1.1 0 1.2.6 1.3h.3c.1.1.1.3 0 .4h-2.7c-.1 0-.1-.3 0-.4h.3c.5-.1.6-.2.6-1.3v-2.1c0-1-.4-1.5-1.3-1.5-.6 0-1 .3-1.2.5-.2.2-.2.4-.2.8v2.3c0 1.1 0 1.2.6 1.3h.3c.1.1.1.3 0 .4h-2.7c-.1 0-.1-.3 0-.4h.3c.5-.1.6-.2.6-1.3v-2.6c0-.6 0-.6-.4-.9l-.1-.1c-.1-.1-.1-.2 0-.3.3-.1 1.2-.5 1.5-.7.1 0 .1 0 .2.1v.7c0 .1.1.2.2.2.6-.4 1.2-.7 1.9-.7s1.1.3 1.6.9c.1 0 .2 0 .4-.1.6-.4 1.3-.7 2-.7 1.2 0 1.7.8 1.7 1.8v2.5c0 1.1 0 1.2.6 1.3h.4c.1.1.1.3 0 .4h-2.7c-.1 0-.1-.3 0-.4h.3c.5-.1.6-.2.6-1.3l-.9-2.2zM135.2 63.6c0-.6 0-.6-.4-.9l-.1-.1c-.1-.1-.1-.2 0-.3.3-.1 1.2-.5 1.5-.7.1 0 .1 0 .1.1 0 .5-.1 1.2-.1 1.8v2.6c0 1.1 0 1.2.6 1.3h.3c.1.1.1.3 0 .4h-2.8c-.1 0-.1-.3 0-.4h.3c.5-.1.6-.2.6-1.3v-2.5zm1.2-4.1c0 .5-.4.8-.8.8s-.7-.3-.7-.7c0-.5.4-.8.8-.8s.7.3.7.7zM139.8 66.2c0 1.1 0 1.2.6 1.3h.4c.1.1.1.3 0 .4H138c-.1 0-.1-.3 0-.4h.3c.5-.1.6-.2.6-1.3v-6.6c0-.9 0-.9-.4-1.2l-.1-.1c-.1 0-.1-.2 0-.3.4-.1 1.1-.3 1.6-.6.1 0 .1 0 .1.1v1.8l-.3 6.9zM142.5 63.6c0-.6 0-.6-.4-.9l-.1-.1c-.1-.1-.1-.2 0-.3.3-.1 1.2-.5 1.5-.7.1 0 .1 0 .1.1 0 .5-.1 1.2-.1 1.8v2.6c0 1.1 0 1.2.6 1.3h.3c.1.1.1.3 0 .4h-2.8c-.1 0-.1-.3 0-.4h.3c.5-.1.6-.2.6-1.3v-2.5zm1.2-4.1c0 .5-.4.8-.8.8s-.7-.3-.7-.7c0-.5.4-.8.8-.8s.7.3.7.7zM146.7 64.1c-.4 0-.4 0-.4.4 0 1.5.9 2.7 2.4 2.7.5 0 .9-.1 1.3-.7.1 0 .2 0 .3.2-.5 1-1.5 1.4-2.3 1.4-.9 0-1.7-.4-2.1-1-.4-.6-.6-1.2-.6-1.9 0-1.8 1.2-3.3 2.9-3.3 1.2 0 2.1.9 2.1 1.7 0 .2 0 .3-.1.4 0 .1-.2.1-.9.1h-2.6zm.9-.4c1.1 0 1.4-.1 1.5-.1 0 0 .1-.1.1-.3 0-.4-.3-.9-1.1-.9s-1.6.8-1.6 1.3c0 0 0 .1.1.1l1-.1zM154.6 62.1c.1.3.2.8.2 1.2-.1.1-.3.1-.4 0-.2-.6-.7-1.1-1.3-1.1s-.9.4-.9.9c0 .6.6.9 1.1 1.2.8.4 1.5.9 1.5 2s-1 1.7-2.1 1.7c-.7 0-1.2-.1-1.6-.4-.1-.3-.2-1-.2-1.5.1-.1.3-.1.3 0 .2.8.7 1.5 1.6 1.5.5 0 1-.3 1-.9 0-.7-.6-1-1.1-1.3-.9-.5-1.4-1-1.4-1.8 0-1.1.9-1.7 2-1.7.6 0 1.2.1 1.3.2zM162.4 64.8c.2-.1.2-.2.2-.4v-.7c0-.5-.1-1.3-1.1-1.3-.4 0-.9.2-.9.7 0 .2 0 .4-.1.5-.2.2-.6.3-.8.3-.1 0-.2-.1-.2-.2 0-.8 1.6-1.8 2.7-1.8s1.6.6 1.5 1.7l-.1 2.5c0 .7.1 1.3.7 1.3.1 0 .3 0 .4-.1.1 0 .1-.1.2-.1s.1.1.1.2-.5.6-1.2.6c-.4 0-.7-.1-.9-.4-.1-.1-.1-.2-.2-.2s-.3.1-.6.3c-.3.2-.6.4-1.1.4s-.8-.1-1-.3c-.3-.2-.4-.6-.4-1 0-.6.3-.9 1.2-1.2l1.6-.8zm-.9 2.6c.3 0 .7-.2.9-.4.2-.2.2-.4.2-.7v-.9c0-.2-.1-.2-.1-.2s-.3.1-.6.1c-.9.3-1.3.5-1.3 1.1 0 .3.2 1 .9 1zM166.3 63.6c0-.6 0-.6-.4-.9l-.1-.1c-.1-.1-.1-.2 0-.3.3-.1 1.2-.5 1.5-.7.1 0 .1 0 .2.1v.7c0 .1.1.2.2.2.6-.4 1.3-.7 2-.7 1.2 0 1.7.8 1.7 1.8v2.5c0 1.1 0 1.2.6 1.3h.3c.1.1.1.3 0 .4h-2.8c-.1 0-.1-.3 0-.4h.3c.5-.1.6-.2.6-1.3V64c0-.8-.4-1.4-1.4-1.4-.6 0-1 .2-1.2.5-.2.2-.2.4-.2.9v2.2c0 1.1 0 1.2.6 1.3h.3c.1.1.1.3 0 .4h-2.7c-.1 0-.1-.3 0-.4h.3c.5-.1.6-.2.6-1.3l-.4-2.6zM178.7 65.7c0 1.1 0 1.7.4 1.7.2 0 .4-.1.6-.1.1 0 .1.4 0 .5-.6.1-1.5.3-1.9.5-.1 0-.2 0-.2-.1V67.6h-.1c-.6.4-1.1.7-1.8.7-1.6 0-2.7-1.3-2.7-2.8 0-2 1.6-3.4 3.5-3.4.5 0 .8.1 1 .1.1 0 .1-.1.1-.2v-2.2c0-.9 0-.9-.4-1.2l-.1-.1c-.1 0-.1-.2 0-.3.4-.1 1.1-.3 1.6-.6.1 0 .1 0 .1.1v1.8l-.1 6.2zm-1.1-2.2c0-.3-.1-.4-.2-.6-.2-.3-.7-.6-1.2-.6-1.3 0-2 1.1-2 2.4s.7 2.6 2.2 2.6c.4 0 .9-.2 1.1-.4.1-.1.1-.3.1-.5v-2.9zM186.3 62.7c-.2 0-.2 0-.2.4v3.1c0 1.1 0 1.2.6 1.3h.5c.1.1.1.3 0 .4h-3c-.1 0-.1-.3 0-.4h.3c.5-.1.6-.2.6-1.3v-3.1c0-.4 0-.4-.3-.4h-.5c-.1-.1-.1-.2 0-.3l.6-.3c.1-.1.2-.1.2-.3 0-.9.1-1.8.4-2.6.4-.8 1.2-1.9 2.6-1.9.8 0 1.4.4 1.4.9 0 .3-.3.5-.6.5-.2 0-.2-.1-.4-.2-.3-.3-.7-.6-1.2-.6-.4 0-.8.3-1 .8-.3.7-.3 1.7-.3 2.5v.4c0 .4 0 .4.2.4h1.7c.2.1.1.6-.1.6l-1.5.1zM189.2 63.6c0-.6 0-.6-.4-.9l-.1-.1c-.1-.1-.1-.2 0-.3.3-.1 1.1-.5 1.5-.7.1 0 .1 0 .1.1v1c.5-.4 1.1-.9 1.6-.9.4 0 .7.2.7.6 0 .5-.4.7-.6.7-.1 0-.2 0-.3-.1-.2-.1-.4-.2-.6-.2-.2 0-.4.1-.5.3-.1.2-.2.6-.2 1.1v2c0 1.1 0 1.2.6 1.3h.5c.1.1.1.3 0 .4H188.6c-.1 0-.1-.3 0-.4h.3c.5-.1.6-.2.6-1.3l-.3-2.6zM194.1 63.6c0-.6 0-.6-.4-.9l-.1-.1c-.1-.1-.1-.2 0-.3.3-.1 1.2-.5 1.5-.7.1 0 .1 0 .1.1 0 .5-.1 1.2-.1 1.8v2.6c0 1.1 0 1.2.6 1.3h.3c.1.1.1.3 0 .4h-2.8c-.1 0-.1-.3 0-.4h.3c.5-.1.6-.2.6-1.3v-2.5zm1.2-4.1c0 .5-.4.8-.8.8s-.7-.3-.7-.7c0-.5.4-.8.8-.8s.7.3.7.7zM198.3 64.1c-.4 0-.4 0-.4.4 0 1.5.9 2.7 2.4 2.7.5 0 .9-.1 1.3-.7.1 0 .2 0 .3.2-.5 1-1.5 1.4-2.3 1.4-.9 0-1.7-.4-2.1-1-.4-.6-.6-1.2-.6-1.9 0-1.8 1.2-3.3 2.9-3.3 1.2 0 2.1.9 2.1 1.7 0 .2 0 .3-.1.4 0 .1-.2.1-.9.1h-2.6zm.9-.4c1.1 0 1.4-.1 1.5-.1 0 0 .1-.1.1-.3 0-.4-.3-.9-1.1-.9s-1.6.8-1.6 1.3c0 0 0 .1.1.1l1-.1zM203.6 63.6c0-.6 0-.6-.4-.9l-.1-.1c-.1-.1-.1-.2 0-.3.3-.1 1.2-.5 1.5-.7.1 0 .1 0 .2.1v.7c0 .1.1.2.2.2.6-.4 1.3-.7 2-.7 1.2 0 1.7.8 1.7 1.8v2.5c0 1.1 0 1.2.6 1.3h.3c.1.1.1.3 0 .4h-2.8c-.1 0-.1-.3 0-.4h.3c.5-.1.6-.2.6-1.3V64c0-.8-.4-1.4-1.4-1.4-.6 0-1 .2-1.2.5-.2.2-.2.4-.2.9v2.2c0 1.1 0 1.2.6 1.3h.3c.1.1.1.3 0 .4h-2.7c-.1 0-.1-.3 0-.4h.3c.5-.1.6-.2.6-1.3l-.4-2.6zM216 65.7c0 1.1 0 1.7.4 1.7.2 0 .4-.1.6-.1.1 0 .1.4 0 .5-.6.1-1.5.3-1.9.5-.1 0-.2 0-.2-.1V67.6h-.1c-.6.4-1.1.7-1.8.7-1.6 0-2.7-1.3-2.7-2.8 0-2 1.6-3.4 3.5-3.4.5 0 .8.1 1 .1.1 0 .1-.1.1-.2v-2.2c0-.9 0-.9-.4-1.2l-.1-.1c-.1 0-.1-.2 0-.3.4-.1 1.1-.3 1.6-.6.1 0 .1 0 .1.1v1.8l-.1 6.2zm-1.1-2.2c0-.3-.1-.4-.2-.6-.2-.3-.7-.6-1.2-.6-1.3 0-2 1.1-2 2.4s.7 2.6 2.2 2.6c.4 0 .9-.2 1.1-.4.1-.1.1-.3.1-.5v-2.9zM221.2 62.1c.1.3.2.8.2 1.2-.1.1-.3.1-.4 0-.2-.6-.7-1.1-1.3-1.1s-.9.4-.9.9c0 .6.6.9 1.1 1.2.8.4 1.5.9 1.5 2s-1 1.7-2.1 1.7c-.7 0-1.2-.1-1.6-.4-.1-.3-.2-1-.2-1.5.1-.1.3-.1.3 0 .2.8.7 1.5 1.6 1.5.5 0 1-.3 1-.9 0-.7-.6-1-1.1-1.3-.9-.5-1.4-1-1.4-1.8 0-1.1.9-1.7 2-1.7.7 0 1.2.1 1.3.2zM232.2 64.9c0 1.8-1.2 3.1-3.1 3.1-1.7 0-3-1.2-3-3s1.4-3.1 3.1-3.1 3 1.2 3 3zm-3.2-2.6c-1 0-1.7.9-1.7 2.5 0 1.3.6 2.8 1.9 2.8s1.7-1.3 1.7-2.5-.5-2.8-1.9-2.8zM235.4 62.7c-.2 0-.2 0-.2.4v3.1c0 1.1 0 1.2.6 1.3h.5c.1.1.1.3 0 .4h-3c-.1 0-.1-.3 0-.4h.3c.5-.1.6-.2.6-1.3v-3.1c0-.4 0-.4-.3-.4h-.5c-.1-.1-.1-.2 0-.3l.6-.3c.1-.1.2-.1.2-.3 0-.9.1-1.8.4-2.6.4-.8 1.2-1.9 2.6-1.9.8 0 1.4.4 1.4.9 0 .3-.3.5-.6.5-.2 0-.2-.1-.4-.2-.3-.3-.7-.6-1.2-.6-.4 0-.8.3-1 .8-.3.7-.3 1.7-.3 2.5v.4c0 .4 0 .4.2.4h1.7c.2.1.1.6-.1.6l-1.5.1zM244 64.8c.2-.1.2-.2.2-.4v-.7c0-.5-.1-1.3-1.1-1.3-.4 0-.9.2-.9.7 0 .2 0 .4-.1.5-.2.2-.6.3-.8.3-.1 0-.2-.1-.2-.2 0-.8 1.6-1.8 2.7-1.8s1.6.6 1.5 1.7l-.1 2.5c0 .7.1 1.3.7 1.3.1 0 .3 0 .4-.1.1 0 .1-.1.2-.1s.1.1.1.2-.5.6-1.2.6c-.4 0-.7-.1-.9-.4-.1-.1-.1-.2-.2-.2s-.3.1-.6.3c-.3.2-.6.4-1.1.4s-.8-.1-1-.3c-.3-.2-.4-.6-.4-1 0-.6.3-.9 1.2-1.2l1.6-.8zm-.9 2.6c.3 0 .7-.2.9-.4.2-.2.2-.4.2-.7v-.9c0-.2-.1-.2-.1-.2s-.3.1-.6.1c-.9.3-1.3.5-1.3 1.1 0 .3.2 1 .9 1zM248.8 66.2c0 1.1 0 1.2.6 1.3h.4c.1.1.1.3 0 .4H247c-.1 0-.1-.3 0-.4h.3c.5-.1.6-.2.6-1.3v-6.6c0-.9 0-.9-.4-1.2l-.1-.1c-.1 0-.1-.2 0-.3.4-.1 1.1-.3 1.6-.6.1 0 .1 0 .1.1v1.8l-.3 6.9zM255.4 62.1c.1.1.2.3.2.6s-.1.5-.3.5c-.1 0-.1 0-.2-.1-.3-.4-.9-.8-1.5-.8-1 0-2 .8-2 2.4 0 1.1.8 2.5 2.4 2.5.9 0 1.3-.4 1.6-.9.1 0 .2.1.3.2-.5 1.1-1.6 1.5-2.4 1.5-.8 0-1.5-.2-2-.7-.5-.5-.9-1.2-.9-2.2 0-1.6 1.1-3.2 3.5-3.2.3 0 .9 0 1.3.2zM262.4 64.9c0 1.8-1.2 3.1-3.1 3.1-1.7 0-3-1.2-3-3s1.4-3.1 3.1-3.1 3 1.2 3 3zm-3.1-2.6c-1 0-1.7.9-1.7 2.5 0 1.3.6 2.8 1.9 2.8s1.7-1.3 1.7-2.5-.5-2.8-1.9-2.8zM264.2 59.6c0-.9 0-.9-.5-1.2l-.1-.1c-.1 0-.1-.2 0-.3.4-.1 1-.3 1.6-.6.1 0 .1 0 .1.1v4.9c0 .1 0 .2.1.3.5-.4 1.2-.8 2-.8 1.4 0 1.9.9 1.9 1.9v2.4c0 1.1 0 1.2.5 1.3h.4c.1.1.1.3 0 .4h-2.9c-.1 0-.1-.3 0-.4h.3c.5-.1.5-.2.5-1.3v-2.1c0-.9-.5-1.6-1.4-1.6-.5 0-.9.2-1.1.4-.3.2-.3.3-.3.8v2.4c0 1.1 0 1.2.5 1.3h.3c.1.1.1.3 0 .4h-2.8c-.1 0-.1-.3 0-.4h.4c.5-.1.5-.2.5-1.3v-6.5zM277 64.9c0 1.8-1.2 3.1-3.1 3.1-1.7 0-3-1.2-3-3s1.4-3.1 3.1-3.1 3 1.2 3 3zm-3.1-2.6c-1 0-1.7.9-1.7 2.5 0 1.3.6 2.8 1.9 2.8s1.7-1.3 1.7-2.5-.5-2.8-1.9-2.8zM279.9 66.2c0 1.1 0 1.2.5 1.3h.4c.1.1.1.3 0 .4H278c-.1 0-.1-.3 0-.4h.3c.5-.1.5-.2.5-1.3v-6.6c0-.9 0-.9-.5-1.2l-.1-.1c-.1 0-.1-.2 0-.3.4-.1 1-.3 1.6-.6.1 0 .1 0 .1.1V66.2zM282.6 63.6c0-.6 0-.6-.4-.9l-.1-.1c-.1-.1-.1-.2 0-.3.3-.1 1.2-.5 1.5-.7.1 0 .1 0 .1.1 0 .5-.1 1.2-.1 1.8v2.6c0 1.1 0 1.2.5 1.3h.3c.1.1.1.3 0 .4h-2.8c-.1 0-.1-.3 0-.4h.3c.5-.1.5-.2.5-1.3l.2-2.5zm1.2-4.1c0 .5-.4.8-.8.8-.5 0-.7-.3-.7-.7 0-.5.4-.8.8-.8s.7.3.7.7zM290.2 62.1c.1.1.2.3.2.6s-.1.5-.3.5c-.1 0-.1 0-.2-.1-.3-.4-.9-.8-1.5-.8-1 0-2 .8-2 2.4 0 1.1.8 2.5 2.4 2.5.9 0 1.3-.4 1.6-.9.1 0 .2.1.3.2-.5 1.1-1.6 1.5-2.4 1.5-.8 0-1.5-.2-2-.7-.5-.5-.9-1.2-.9-2.2 0-1.6 1.1-3.2 3.5-3.2.4 0 1 0 1.3.2zM294.7 62.1c.1.3.2.8.2 1.2-.1.1-.3.1-.4 0-.2-.6-.7-1.1-1.3-1.1s-.9.4-.9.9c0 .6.6.9 1.1 1.2.8.4 1.5.9 1.5 2s-1 1.7-2.1 1.7c-.7 0-1.2-.1-1.6-.4-.1-.3-.2-1-.2-1.5.1-.1.3-.1.3 0 .2.8.7 1.5 1.5 1.5.5 0 1-.3 1-.9 0-.7-.6-1-1.1-1.3-.9-.5-1.4-1-1.4-1.8 0-1.1.9-1.7 2-1.7.8 0 1.3.1 1.4.2z" class="st3"/>
</svg>
