<svg xmlns="http://www.w3.org/2000/svg" xml:space="preserve" viewBox="0 0 132.292 66.146">
  <path d="M35.454 10.545 7.301 55.582l56 .02S35.708 10.78 35.454 10.544zm-.153 17.103a12.568 12.568 0 0 1 12.568 12.568A12.568 12.568 0 0 1 35.3 52.784a12.568 12.568 0 0 1-12.568-12.568 12.568 12.568 0 0 1 12.568-12.568Z" style="fill:#1a32a3;fill-opacity:1;stroke-width:1.12451"/>
  <path d="M97.742 10.545 69.588 55.582l56 .02S97.996 10.78 97.742 10.544zm-.154 17.103a12.568 12.568 0 0 1 12.568 12.568 12.568 12.568 0 0 1-12.568 12.568 12.568 12.568 0 0 1-12.567-12.568 12.568 12.568 0 0 1 12.567-12.568Z" style="fill:#ff240a;fill-opacity:1;stroke-width:1.12451"/>
</svg>
