<svg xmlns="http://www.w3.org/2000/svg" xml:space="preserve" viewBox="0 0 132.292 26.458">
  <path d="M0 0h132.292v26.458H0z" style="fill:#006651;fill-rule:evenodd;stroke-width:3.26168;fill-opacity:1"/>
  <path d="M28.87 136.315a.435.435 0 0 1 .186 0c.05.013.009.024-.093.024s-.143-.011-.093-.024zm1.244-.001a.755.755 0 0 1 .238 0c.066.012.012.023-.119.023-.13 0-.184-.01-.119-.023zm19.076 0a.435.435 0 0 1 .186 0c.05.014.009.025-.093.025s-.143-.011-.093-.024zm1.166 0a.303.303 0 0 1 .158.002c.036.015-.006.026-.093.025-.088-.001-.117-.013-.065-.026zm-21.985-.052c.038-.015.084-.013.102.004.017.018-.014.03-.07.028-.062-.002-.074-.015-.032-.032zm2.43.001a.204.204 0 0 1 .133 0c.037.015.007.027-.066.027-.073 0-.102-.012-.066-.027zm.428-.054c.038-.015.083-.013.101.004.018.018-.014.03-.07.028-.061-.002-.074-.015-.031-.032zm80.986-.016c-1.166-.165-2.023-.624-2.344-1.254-.102-.2-.13-.335-.128-.625.004-.904.602-1.484 1.862-1.804.621-.158.836-.167.78-.035-.23.548-.247.629-.226 1.05.058 1.128.95 1.859 2.391 1.959 1.213.084 2.167-.34 2.558-1.136.126-.256.147-.364.147-.753 0-.413-.015-.477-.161-.714-.187-.303-.577-.563-.996-.664-.183-.044-1.028-.075-2.574-.095l-2.302-.03-.3-.148c-.373-.183-.58-.415-.732-.814-.16-.427-.132-1.036.067-1.425.177-.345.8-.927 1.327-1.238.221-.131.403-.25.403-.265 0-.015-.129-.082-.287-.15-1.28-.555-1.945-1.947-1.639-3.43.254-1.23 1.083-2.058 2.457-2.453.291-.084.606-.122 1.178-.144.868-.032 1.35.024 2.016.233l.416.131.96-.113 1.503-.178c.298-.037.542-.047.542-.024 0 .051-.312 1.167-.33 1.182-.008.006-.377-.029-.82-.077-.445-.048-.808-.077-.808-.064 0 .013.056.097.125.187.194.254.388.67.48 1.022.108.417.11 1.32.002 1.737-.37 1.437-1.599 2.293-3.498 2.436-.519.04-1.403-.042-1.808-.166l-.249-.077-.198.21c-.16.17-.199.25-.199.42 0 .286.04.365.232.47.146.081.43.095 2.467.122 2.185.029 2.322.036 2.698.15.99.296 1.622.892 1.852 1.749.101.375.077 1.19-.047 1.59-.459 1.474-2.114 2.679-4.291 3.123-.625.128-1.97.183-2.526.105zm2.2-8.081c.52-.386.743-1.467.678-3.297-.036-1.034-.127-1.583-.328-1.995-.224-.458-.604-.66-1.027-.545-.682.183-.954 1.03-.954 2.964 0 1.007.082 1.776.236 2.225.103.298.363.62.58.719.216.098.635.062.814-.071zm-82.816 8.044c.038-.015.084-.013.101.004.018.018-.013.03-.069.028-.062-.002-.074-.015-.032-.032zm-6.241-1.22c-.066-.084-.064-.086.02-.02.088.069.116.112.073.112-.011 0-.053-.042-.093-.092zm29.005-.305c.099-.102.192-.185.206-.185.015 0-.054.083-.153.185a1.154 1.154 0 0 1-.206.185c-.015 0 .054-.083.153-.185zm-29.64-.33c-.066-.084-.064-.086.02-.02.088.069.116.112.073.112-.011 0-.053-.042-.093-.092zm4.122-1.11a.578.578 0 0 1 .211.002c.05.013-.003.023-.12.023-.116-.001-.157-.012-.091-.024zm1.11 0a.578.578 0 0 1 .213.002c.05.013-.004.023-.12.023-.117-.001-.158-.012-.092-.024zm19.265.002c.038-.016.084-.014.102.004.017.017-.014.03-.07.027-.061-.002-.074-.015-.032-.032zm1.376 0c.038-.016.084-.014.102.004.017.017-.014.03-.07.027-.062-.002-.074-.015-.032-.032zm-22.172-.053c.038-.016.084-.014.101.004.018.017-.013.03-.069.028-.062-.002-.074-.016-.032-.032zm2.113 0a.204.204 0 0 1 .133 0c.036.015.006.027-.066.027-.073 0-.103-.012-.067-.026zm-2.378-.053c.039-.016.084-.014.102.004.017.017-.014.03-.07.028-.061-.002-.074-.016-.032-.032zm2.752 0c.038-.016.084-.014.102.004.017.017-.014.03-.07.028-.062-.002-.074-.016-.032-.032zm9.376-.884c0-.01.042-.052.093-.092.084-.066.086-.064.02.02-.07.088-.113.116-.113.072zm-14.316-.31-.21-.225.226.209c.123.115.224.216.224.225 0 .04-.046 0-.24-.21zm14.528.152c0-.011.042-.053.093-.093.083-.066.085-.064.02.02-.07.088-.113.116-.113.073zm38.27-.087c-.574-.15-.99-.394-1.442-.845-.617-.617-1.01-1.454-1.192-2.547-.071-.424-.084-.731-.06-1.469.035-1.127.165-1.712.558-2.52.56-1.152 1.406-1.907 2.575-2.297.688-.23 1.15-.287 2.028-.255l.758.028-.022-1.41c-.016-.988-.044-1.47-.093-1.61-.098-.278-.373-.583-.63-.698-.119-.054-.216-.118-.216-.143 0-.024.012-.045.026-.045.014 0 .947-.142 2.073-.317a98.157 98.157 0 0 1 2.13-.318c.076 0 .084.607.084 6.231 0 5.823.006 6.254.094 6.575.123.446.296.702.593.875.397.233.416.224-.846.421-1.263.198-2.41.383-2.627.424-.224.042-.2.086-.363-.661-.06-.277-.12-.541-.135-.588-.019-.063-.139.027-.461.345-.497.491-.81.677-1.393.826a2.7 2.7 0 0 1-1.44-.002zm2.965-1.42.252-.11-.001-3.031c0-1.668-.024-3.247-.052-3.51-.129-1.227-.554-1.79-1.215-1.613-.54.146-.852.717-1.038 1.906-.113.721-.156 2.763-.08 3.757.125 1.624.393 2.353.983 2.672.214.115.811.079 1.151-.07zm8.207 1.452c-1.398-.267-2.385-1.002-2.978-2.215-.744-1.522-.754-3.516-.027-5.058.625-1.324 1.601-2.164 2.979-2.562.35-.101.532-.117 1.331-.117.879 0 .948.008 1.349.15.575.201.96.447 1.34.852.57.609.849 1.34.895 2.344l.028.595h-5.109l.038.648c.065 1.116.26 1.989.584 2.63.179.352.618.824.901.969.981.502 2.346.244 3.188-.602.18-.182.345-.315.364-.296.05.05-.352.706-.7 1.144-.56.7-1.348 1.223-2.175 1.439-.534.14-1.494.177-2.008.079zm2.18-6.782c.02-.278.026-.844.012-1.256-.03-.872-.138-1.248-.434-1.508-.474-.417-1.193-.163-1.539.543-.193.394-.335 1.151-.377 2l-.035.728h2.335zm12.566 6.819c-.603-.067-1.294-.19-1.627-.288-.375-.11-.384-.117-.384-.286a30 30 0 0 0-.052-.985l-.083-1.306c-.024-.379-.016-.49.034-.474.036.012.21.283.388.601.743 1.33 1.26 1.931 1.963 2.279.406.2.432.205.975.204.451 0 .604-.022.797-.11.537-.248.798-.63.8-1.177.002-.41-.132-.711-.442-.996-.316-.289-.46-.377-1.681-1.022-1.254-.663-1.53-.846-1.93-1.278-.646-.697-.889-1.633-.692-2.663.216-1.127 1.067-1.999 2.305-2.36.825-.24 2.646-.172 3.759.14l.317.09-.014 1.218c-.01.796-.034 1.225-.07 1.237-.031.01-.099-.07-.151-.18-.217-.456-.81-1.283-1.19-1.655-.664-.654-1.335-.893-2.016-.719-.401.103-.65.279-.794.558-.327.642-.091 1.364.592 1.813.154.102.721.417 1.26.7.538.285 1.172.645 1.41.802.97.641 1.407 1.418 1.41 2.508.003.58-.086.988-.32 1.482-.344.727-1.178 1.396-2.077 1.663-.654.195-1.755.285-2.487.204zm16.087-.031c-.63-.144-1.15-.55-1.39-1.084-.173-.383-.193-1.197-.041-1.648.137-.404.327-.694.656-.997.583-.538 1.294-.857 2.892-1.299l1.031-.284v-.895c-.001-.798-.015-.934-.125-1.255-.247-.718-.71-1.091-1.41-1.136-.48-.031-.844.051-1.322.298-.42.217-.987.748-1.215 1.136-.08.136-.169.248-.199.248-.074 0-.012-.228.17-.621.523-1.13 1.56-1.986 2.805-2.315.506-.134 1.666-.166 2.17-.06 1.158.244 1.961 1.012 2.286 2.185.108.393.115.557.144 3.25.031 2.98.025 2.904.262 3.104.098.082.45.086.605.007.063-.033.18-.121.261-.196.098-.092.163-.119.2-.082.08.08-.426.77-.757 1.032-1.007.8-2.558.905-3.226.218-.204-.21-.408-.6-.41-.785-.002-.205-.071-.183-.329.107-.737.826-2.078 1.296-3.059 1.072zm2.898-1.36c.124-.056.237-.133.252-.17.014-.038.02-.847.012-1.799l-.014-1.729-.434.204c-.855.402-1.17.853-1.219 1.744-.045.828.17 1.435.618 1.736.218.147.482.152.784.015zm7.27 1.35c-.95-.215-1.461-.76-1.671-1.785-.071-.346-.084-.91-.084-3.743v-3.336h-.952v-.146c.001-.131.056-.174.567-.436 1.492-.767 2.518-1.642 3.336-2.845.163-.24.315-.436.339-.436.023 0 .049.66.056 1.468l.014 1.469 1.252.014 1.25.014-.17.436-.17.435-1.097.015-1.097.014.016 3.293c.018 3.653.004 3.507.374 3.889.397.41 1.206.36 1.927-.119.553-.367.337.042-.356.675a5.026 5.026 0 0 1-1.67 1.002c-.567.195-1.326.245-1.864.123zm7.664.003a4.12 4.12 0 0 1-1.788-.756c-1.124-.797-1.838-2.571-1.74-4.328.078-1.41.541-2.559 1.402-3.473.904-.962 2.017-1.422 3.434-1.421 1.158 0 1.972.3 2.637.972.619.624.902 1.332.96 2.4l.032.596h-5.095v.346c0 .828.227 2.118.474 2.693.16.373.54.885.778 1.049.389.269.702.372 1.208.397.88.044 1.663-.251 2.223-.838.275-.289.397-.373.397-.275 0 .022-.088.182-.195.358-.714 1.169-1.642 1.925-2.7 2.202-.532.139-1.488.176-2.027.078zm2.198-6.95c.049-.838.004-1.698-.107-2.064-.218-.718-.9-.955-1.48-.513-.448.341-.768 1.483-.769 2.737v.515h2.317zm-100.04 6.794c0-.011.041-.053.092-.093.084-.066.086-.064.02.02-.069.088-.112.116-.112.073zm18.022-.025c-.015-.025.077-.12.205-.213.443-.318.962-1.137 1.463-2.309.124-.29 1.112-2.934 2.195-5.873 1.54-4.18 1.989-5.345 2.058-5.345.07 0 .572 1.307 2.307 6.006 1.22 3.303 2.336 6.244 2.48 6.535.29.59.603.943.933 1.057.505.173.299.187-2.883.187-1.89 0-3.127-.02-3.127-.05 0-.026.128-.075.284-.108.61-.126.933-.5.933-1.075 0-.243-.088-.55-.46-1.598l-.46-1.298-1.635.014-1.636.014-.102.264c-.057.146-.176.539-.265.873-.186.702-.228 1.442-.104 1.869.098.338.454.73.798.877.146.063.266.138.266.166 0 .065-3.21.071-3.25.006zm5.737-4.545c0-.077-1.403-3.981-1.431-3.982-.016 0-.35.883-.74 1.963l-.73 2.01c-.01.028.606.048 1.441.048.803 0 1.46-.018 1.46-.039zM70.9 131.8c-.018-.03.006-.053.055-.053.195 0 .456-.18.569-.391l.116-.218V119.18l-.15-.306c-.125-.255-.2-.335-.437-.469-.157-.088-.286-.182-.286-.209 0-.026.007-.048.015-.048s.926-.143 2.04-.317a80.388 80.388 0 0 1 2.127-.318c.1 0 .102.136.116 6.76l.015 6.76.114.247c.12.258.262.383.508.444.08.02.145.057.145.083 0 .067-4.906.061-4.947-.006zm24.133.006c-.016-.026.058-.064.164-.083.239-.045.463-.263.551-.536.09-.275.136-6.405.054-7.018-.085-.627-.306-.97-.741-1.151-.092-.038-.16-.095-.149-.126.017-.052 3.887-.822 4.152-.827.12-.002.12 0 .12.898 0 .495.017.898.04.897.021-.001.134-.135.25-.298.494-.689 1.254-1.313 1.792-1.473.487-.145 1.357-.073 1.357.113 0 .138-.592 2.743-.634 2.788-.022.024-.172-.095-.334-.264-.571-.599-1.253-.877-1.857-.758a2.3 2.3 0 0 0-.471.14l-.15.078.019 3.37c.017 3.02.028 3.4.11 3.646.102.307.275.473.544.523.507.095-.092.128-2.333.128-1.378 0-2.468-.02-2.484-.047zm-71.675-.249c.003-.061.015-.074.032-.032.015.039.013.084-.004.102-.018.018-.03-.014-.028-.07zm2.265-.061c-.066-.084-.064-.086.02-.02.05.04.092.081.092.092 0 .044-.043.016-.112-.072zm15.67-.086c0-.011.041-.053.092-.093.084-.066.086-.064.02.02-.069.088-.112.116-.112.073zm.264-.212c0-.011.042-.053.093-.093.084-.065.086-.064.02.02-.07.089-.113.117-.113.073zm-18.305-.117c.003-.061.015-.074.032-.031.016.038.014.083-.004.1-.018.019-.03-.013-.028-.068zm18.702-.233a.418.418 0 0 1 .122-.106c.015 0-.016.048-.069.106a.418.418 0 0 1-.122.106c-.015 0 .016-.048.07-.106zm-18.75-.159c0-.073.012-.102.026-.066a.204.204 0 0 1 0 .132c-.014.037-.026.007-.026-.066zm19.041-.073c0-.01.042-.053.093-.092.084-.066.086-.064.02.02-.07.088-.113.116-.113.072zm13.974-.064c.003-.061.015-.074.032-.032.016.039.014.084-.004.102-.017.017-.03-.014-.028-.07zm-33.064-.34c0-.101.01-.143.024-.092a.435.435 0 0 1 0 .185c-.014.051-.024.01-.024-.092zm19.54 0a.418.418 0 0 1 .122-.105c.015 0-.016.048-.07.106a.418.418 0 0 1-.121.106c-.015 0 .016-.048.069-.106zm.291-.227c0-.01.077-.087.172-.172l.172-.156-.155.172c-.145.16-.189.196-.189.156zm13.3-.487c0-.262.01-.375.02-.253.012.123.012.338.001.477-.01.139-.02.038-.02-.224zm-17.745.06c0-.011.042-.053.093-.093.084-.066.085-.064.02.02-.07.088-.113.116-.113.073zm5.054-.139a.418.418 0 0 1 .122-.106c.014 0-.017.048-.07.106a.418.418 0 0 1-.122.106c-.014 0 .017-.048.07-.106zm-4.842-.02c0-.01.041-.053.092-.093.084-.065.086-.063.02.02-.069.089-.112.117-.112.073zm.264-.212c0-.01.042-.052.093-.092.084-.066.086-.064.02.02-.07.088-.113.116-.113.072zm-3.605-.125c-.066-.084-.064-.086.02-.02.051.04.093.081.093.092 0 .044-.044.016-.113-.072zm8.632-.04a.626.626 0 0 1 .151-.132c.015 0-.03.06-.098.132a.625.625 0 0 1-.15.132c-.015 0 .029-.06.097-.132zm-20.888-.212c0-.116.011-.157.024-.092a.577.577 0 0 1-.001.212c-.014.05-.024-.003-.023-.12zm16.126.166c0-.011.042-.053.092-.093.084-.066.086-.064.02.02-.069.088-.112.116-.112.073zm.264-.212c0-.011.042-.053.093-.093.084-.065.086-.064.02.02-.07.089-.113.117-.113.073zm4.869-.05c0-.008.077-.086.172-.171l.172-.156-.156.172c-.145.16-.188.196-.188.156zm-4.525-.247a.418.418 0 0 1 .123-.106c.014 0-.017.047-.07.106a.418.418 0 0 1-.122.105c-.014 0 .017-.047.07-.105zm16.33.022c.002-.062.014-.075.031-.032.016.038.014.083-.004.101-.017.018-.03-.014-.028-.07zm-33.016-.181c0-.073.012-.103.026-.066a.204.204 0 0 1 0 .132c-.014.036-.026.007-.026-.066zm21.766-.106a.418.418 0 0 1 .123-.106c.014 0-.017.048-.07.106a.418.418 0 0 1-.122.106c-.014 0 .017-.048.07-.106zm-4.789.033c0-.011.042-.053.093-.093.084-.066.086-.064.02.02-.07.088-.113.116-.113.073zm14.023-.036c0-.031.024-.042.053-.024.03.018.053.044.053.056 0 .013-.024.024-.053.024-.029 0-.053-.025-.053-.056zm-30.952-.293c.003-.061.015-.074.032-.032.016.039.014.084-.004.102-.018.017-.03-.014-.028-.07zm17.406-.101a.628.628 0 0 1 .15-.132c.015 0-.03.06-.097.132a.626.626 0 0 1-.151.132c-.015 0 .03-.06.098-.132zm4.736.027a.418.418 0 0 1 .122-.106c.015 0-.017.047-.07.106a.418.418 0 0 1-.122.105c-.014 0 .017-.047.07-.105zm-21.242-.243c.002-.062.015-.074.032-.032.015.038.013.084-.004.101-.018.018-.03-.013-.028-.07zm21.533.01c0-.01.041-.052.092-.092.084-.066.086-.064.02.02-.069.088-.112.116-.112.073zm-4.63-.138a.418.418 0 0 1 .122-.106c.014 0-.017.048-.07.106a.418.418 0 0 1-.122.106c-.014 0 .017-.048.07-.106zm-17.697-.084c.003-.061.015-.074.032-.032.015.039.013.084-.004.102-.018.017-.03-.014-.028-.07zm.747-.154c.001-.087.013-.117.026-.065a.302.302 0 0 1-.002.159c-.014.035-.025-.006-.024-.094zm21.897.112c0-.01.042-.052.093-.092.084-.066.086-.064.02.02-.07.088-.113.116-.113.072zm-7.944-.125c-.066-.084-.064-.086.02-.02.05.04.093.081.093.092 0 .044-.044.016-.113-.072zm17.262-.044c.002-.062.015-.075.032-.032.015.038.013.083-.004.101-.018.018-.03-.014-.028-.07zm-13.921.014c0-.009.077-.087.171-.172l.172-.155-.155.172c-.145.16-.188.196-.188.155zm13.184-.248c0-.073.012-.103.027-.066a.204.204 0 0 1 0 .132c-.015.036-.027.007-.027-.066zm-30.533-.159c0-.073.012-.102.027-.066a.204.204 0 0 1 0 .132c-.015.037-.027.007-.027-.066zm22.693-.02c0-.01.042-.052.093-.092.084-.066.085-.064.02.02-.07.088-.113.116-.113.072zm-4.71-.165a.626.626 0 0 1 .151-.132c.015 0-.03.06-.098.132a.625.625 0 0 1-.15.132c-.015 0 .03-.06.098-.132zm-17.233-.397c0-.218.01-.307.021-.198.012.109.012.287 0 .397-.011.109-.02.02-.02-.199zm29.845 0c0-.218.01-.307.021-.198.012.109.012.287 0 .397-.011.109-.02.02-.02-.199zm-30.644.053c0-.102.011-.144.024-.093a.435.435 0 0 1 0 .186c-.013.05-.024.009-.024-.093zm13.052.066c-.066-.084-.064-.086.02-.02.05.04.092.082.092.093 0 .043-.043.015-.112-.073zm5.457-.145a.626.626 0 0 1 .15-.133c.015 0-.029.06-.097.133a.625.625 0 0 1-.151.132c-.015 0 .03-.06.098-.132zm.45-.397a.418.418 0 0 1 .122-.106c.014 0-.017.047-.07.106a.418.418 0 0 1-.122.106c-.014 0 .017-.048.07-.106zm10.102-.12-.101-.118.119.1c.112.095.143.138.1.138a.588.588 0 0 1-.118-.12zm-29.179.017c0-.027.024-.064.052-.082.03-.019.04.003.021.05-.035.091-.073.108-.073.032zm19.42-.182c0-.01.042-.053.093-.092.084-.066.086-.064.02.02-.069.088-.112.116-.112.072zm11.276-.064c.002-.061.015-.074.032-.032.015.039.013.084-.004.102-.018.017-.03-.014-.028-.07zm-10.879-.286a.418.418 0 0 1 .123-.106c.014 0-.017.048-.07.106a.418.418 0 0 1-.122.106c-.014 0 .017-.048.07-.106zm10.826.022c.003-.062.015-.074.032-.032.015.038.013.084-.004.101-.018.018-.03-.013-.028-.07zm-4.092-.216a.204.204 0 0 1 .132 0c.037.015.007.027-.066.027-.073 0-.102-.012-.066-.027zm-6.443-.038c0-.01.042-.053.093-.092.084-.066.086-.064.02.02-.07.088-.113.116-.113.072zm6.972-.018a1.69 1.69 0 0 1 .344 0c.095.012.017.021-.172.021s-.266-.01-.172-.021zm-6.707-.194c0-.01.042-.052.093-.092.084-.066.085-.064.02.02-.07.088-.113.116-.113.072zm.265-.211c0-.011.041-.053.092-.093.084-.066.086-.064.02.02-.069.088-.112.116-.112.073zm-1.635-.518c-.737-.69-1.69-1.223-2.599-1.452-.57-.144-1.666-.132-2.249.025-.587.159-1.416.576-1.961.987l-.46.346-.403-.31c-.222-.17-.57-.425-.774-.567a78.23 78.23 0 0 1-.392-.273c-.046-.034.776-1.056 1.181-1.469.812-.826 1.862-1.473 2.81-1.73.596-.163 1.725-.165 2.31-.005.995.272 1.835.762 2.666 1.557.764.73 1.732 1.997 1.632 2.136-.026.037-.346.303-.71.592l-.664.525zm10.835-.56c-.065-.084-.064-.086.02-.02.051.04.093.081.093.092 0 .044-.044.016-.113-.072zm-2.278-1.373c.038-.015.084-.013.101.004.018.018-.013.03-.07.028-.06-.002-.073-.015-.031-.032zm-21.855-.052c.038-.016.084-.014.102.004.017.017-.014.03-.07.027-.062-.002-.074-.015-.032-.032zm20.105 0a.204.204 0 0 1 .132 0c.037.015.007.027-.066.027-.072 0-.102-.012-.066-.026zm1.432 0c.038-.016.084-.014.102.004.017.017-.014.03-.07.027-.061-.002-.074-.015-.032-.032zm-21.801-1.43c.038-.015.083-.013.101.005.018.017-.014.03-.07.028-.061-.002-.074-.015-.031-.032zm.952 0c.038-.015.084-.013.102.005.017.017-.014.03-.07.028-.062-.002-.074-.015-.032-.032zm18.838 0c.039-.015.084-.013.102.005.017.017-.014.03-.07.028-.061-.002-.074-.015-.032-.032zm.953 0c.038-.015.084-.013.101.005.018.017-.013.03-.07.028-.06-.002-.073-.015-.031-.032zm-18.537-.598a.418.418 0 0 1 .122-.106c.014 0-.017.048-.07.106a.418.418 0 0 1-.122.106c-.014 0 .017-.048.07-.106zm19.92-.12c.22-.233.267-.275.267-.235 0 .008-.113.122-.251.251l-.251.236zm-19.656-.145a.418.418 0 0 1 .122-.105c.015 0-.016.047-.069.105a.418.418 0 0 1-.122.106c-.015 0 .016-.047.07-.106zm-4.573-1.248c.003-.061.015-.074.032-.032.015.039.013.084-.004.102-.018.017-.03-.014-.028-.07zm19.79 0c.003-.061.016-.074.033-.032.015.039.013.084-.004.102-.018.017-.03-.014-.028-.07zm-14.6-.075c0-.072.012-.102.027-.066a.204.204 0 0 1 0 .133c-.015.036-.027.007-.027-.066zm19.787-.03c.002-.062.015-.075.032-.032.015.038.013.083-.005.1-.017.019-.03-.013-.027-.068zm-5.235-.34c0-.073.012-.103.027-.066a.204.204 0 0 1 0 .132c-.015.037-.027.007-.027-.066zm-8.197-.345c-.83-.18-1.565-.846-1.872-1.697-.154-.423-.165-1.195-.025-1.61.159-.467.277-.662.619-1.028a2.495 2.495 0 0 1 2.058-.807c1.34.1 2.343 1.103 2.421 2.424.047.793-.204 1.48-.735 2.012-.648.648-1.547.906-2.466.706zm-6.36-.056c.003-.062.016-.075.033-.032.015.038.013.083-.004.101-.018.018-.03-.014-.028-.07zm19.792 0c.002-.062.015-.075.032-.032.015.038.013.083-.005.101-.017.018-.03-.014-.027-.07zm-24.977-.106c.003-.062.015-.074.032-.032.015.038.013.084-.004.101-.018.018-.03-.013-.028-.07zm19.79 0c.003-.062.016-.074.033-.032.015.038.013.084-.004.101-.018.018-.03-.013-.028-.07zm.552-1.186a.418.418 0 0 1 .123-.106c.014 0-.017.047-.07.106a.418.418 0 0 1-.122.105c-.015 0 .017-.047.07-.105zm-19.817.032c0-.01.042-.052.093-.092.084-.066.085-.064.02.02-.07.088-.113.116-.113.072zm3.913-.23-.182-.2.198.183c.11.1.199.19.199.198 0 .04-.045.002-.215-.182zm19.79 0-.182-.2.199.183c.109.1.198.19.198.198 0 .04-.044.002-.214-.182zm-23.385-.087c0-.011.041-.053.092-.093.084-.065.086-.063.02.02-.069.089-.112.117-.112.073zm19.79 0c0-.011.042-.053.093-.093.084-.065.086-.063.02.02-.07.089-.113.117-.113.073zm-18.48-.65a.204.204 0 0 1 .131 0c.037.015.007.027-.066.027-.072 0-.102-.012-.066-.027zm.793 0a.204.204 0 0 1 .132 0c.037.015.007.027-.066.027-.073 0-.102-.012-.066-.027zm18.997 0a.204.204 0 0 1 .132 0c.037.015.007.027-.066.027-.073 0-.102-.012-.066-.027zm.794 0a.204.204 0 0 1 .132 0c.036.015.007.027-.066.027-.073 0-.103-.012-.066-.027z" style="fill:#f6e9d9" transform="translate(-17.203 -111.188)"/>
  <path d="M48.952 136.297c-1.55-.138-3.4-.603-4.934-1.239-.936-.387-3.32-1.687-3.434-1.872-.013-.021.243-.244.568-.496.325-.251.896-.711 1.27-1.021l.678-.564.882.449c2.277 1.158 4.406 1.725 6.227 1.659.876-.032 1.358-.132 1.958-.403.695-.316 1.48-1.002 1.906-1.67.708-1.106 1.189-2.79 1.355-4.75.036-.428.074-.77.085-.76.069.069.467 1.39.583 1.937.129.606.14.766.143 1.905.003 1.375-.063 1.83-.404 2.798-.648 1.836-1.992 3.18-3.725 3.727-.908.286-2.074.397-3.158.3zm-13.543-7.263c-1.937-1.72-2.67-2.316-3.555-2.889-1.393-.9-2.973-1.39-3.989-1.232-1.284.198-2.104 1.1-2.548 2.801l-.146.563-.118-.436a9.353 9.353 0 0 1-.167-.739c-.078-.473-.06-1.503.033-1.955.333-1.61 1.477-2.76 3.075-3.092.986-.205 2.431-.038 3.588.415 1.248.488 2.799 1.504 4.34 2.843 1.163 1.01 3.042 2.697 3.042 2.73 0 .067-1.45 1.175-2.204 1.683l-.326.22z" style="fill:#b1ddcf" transform="translate(-17.203 -111.188)"/>
  <path d="M28.712 136.298c-3.13-.328-5.203-2.596-5.521-6.043-.113-1.221.054-2.554.485-3.879.266-.816.31-.884.313-.476 0 .175.037.62.08.99.368 3.125 1.4 5.058 3.133 5.873.793.373 1.114.433 2.317.434.949 0 1.129-.015 1.746-.145 2.354-.494 4.418-1.42 6.552-2.943 1.198-.854 2.097-1.598 4.322-3.575 2.562-2.276 3.684-3.108 5.107-3.787 1.03-.492 1.928-.726 2.966-.774 1.484-.069 2.712.425 3.5 1.408.891 1.112 1.146 2.727.695 4.415-.06.227-.127.394-.147.37-.02-.024-.076-.216-.125-.427-.29-1.257-.909-2.169-1.754-2.582-1.039-.507-2.383-.313-4.103.593-1.108.583-1.896 1.203-4.74 3.724-3.972 3.52-6.343 5.047-9.416 6.06-1.85.61-3.994.912-5.41.764zm.469-15.8a3.359 3.359 0 0 1-1.084-.559c-.457-.377-.818-1.124-.865-1.791a2.607 2.607 0 1 1 5.171.26c-.25 1.486-1.78 2.478-3.222 2.09zm19.8.002a2.617 2.617 0 0 1-1.895-1.913c-.374-1.436.615-2.942 2.095-3.192a2.613 2.613 0 0 1 3.013 3.014c-.168.998-.943 1.834-1.942 2.094a2.779 2.779 0 0 1-1.272-.003z" style="fill:#f69b1b" transform="translate(-17.203 -111.188)"/>
</svg>
