<?xml version="1.0" encoding="UTF-8" standalone="no"?>
<!-- Created with Inkscape (http://www.inkscape.org/) -->

<svg
   width="200"
   height="125"
   viewBox="0 0 52.916665 33.072916"
   version="1.1"
   id="svg1"
   xml:space="preserve"
   inkscape:version="1.4 (86a8ad7, 2024-10-11)"
   sodipodi:docname="aldie.svg"
   xmlns:inkscape="http://www.inkscape.org/namespaces/inkscape"
   xmlns:sodipodi="http://sodipodi.sourceforge.net/DTD/sodipodi-0.dtd"
   xmlns="http://www.w3.org/2000/svg"
   xmlns:svg="http://www.w3.org/2000/svg"><sodipodi:namedview
     id="namedview1"
     pagecolor="#ffffff"
     bordercolor="#111111"
     borderopacity="1"
     inkscape:showpageshadow="0"
     inkscape:pageopacity="0"
     inkscape:pagecheckerboard="1"
     inkscape:deskcolor="#d1d1d1"
     inkscape:document-units="mm"
     inkscape:zoom="1.4142136"
     inkscape:cx="-25.102291"
     inkscape:cy="103.23759"
     inkscape:window-width="1920"
     inkscape:window-height="1115"
     inkscape:window-x="-9"
     inkscape:window-y="-9"
     inkscape:window-maximized="1"
     inkscape:current-layer="layer1" /><defs
     id="defs1" /><g
     inkscape:label="Layer 1"
     inkscape:groupmode="layer"
     id="layer1"><g
       id="g48"
       transform="translate(0.48723859,3.7991359)"><path
         id="path1"
         style="fill:#16979b;fill-opacity:1"
         d="m 25.590577,5.1072618 c -0.02746,-0.003 -0.06107,-0.0021 -0.101286,0.0026 -0.193025,0.02238 -0.537412,0.131451 -1.073836,0.311609 -1.654616,0.555688 -1.297737,0.34272 -10.947136,6.5313842 -11.6388218,7.464566 -11.2112575,7.110287 -10.5802331,8.770007 0.1762584,0.463595 0.3384554,0.383109 0.6593912,-0.326595 0.5673673,-1.254653 4.3213545,-4.40339 8.1256029,-6.816121 l 0.697115,-0.44235 3.679362,0.08992 c 5.30441,0.129474 5.300004,0.126411 4.645711,3.114021 -0.616085,2.813149 -0.596525,2.832786 2.28875,2.270146 2.191995,-0.427447 2.795185,-0.693854 1.304313,-0.575675 -2.132625,0.16905 -2.171506,-0.16501 -0.718819,-6.215642 1.029959,-4.2899112 1.316948,-5.2415072 1.814876,-6.0265052 0.287386,-0.45307 0.398428,-0.665699 0.206189,-0.68678 z m -2.548165,1.389063 c 0.09564,0.09564 -1.551676,6.3187482 -1.697054,6.4109782 -0.08626,0.05473 -0.211666,0.09208 -0.278536,0.08268 -0.06687,-0.0094 -1.161417,-0.05816 -2.431893,-0.10852 -3.493711,-0.138497 -5.04517,-0.24882 -5.04517,-0.358635 0,-0.297993 9.270674,-6.2084832 9.452653,-6.0265052 z m 11.398787,3.197737 c -0.156932,0.0086 -0.371351,0.07871 -0.664042,0.153996 -1.060746,0.2728502 -1.266395,0.4243022 -0.723987,0.5327842 0.655172,0.131034 0.718303,0.251809 0.718303,1.375627 v 1.025777 l -0.577743,-0.09819 c -3.62631,-0.619353 -5.85371,2.722205 -2.538346,3.808036 0.659762,0.216081 1.81279,0.13489 2.531112,-0.178284 l 0.569991,-0.248563 0.03824,0.266133 c 0.04157,0.291112 0.112189,0.298958 1.344621,0.150379 0.747601,-0.09013 0.910421,-0.259241 0.364836,-0.378789 -0.183884,-0.0403 -0.403212,-0.09414 -0.486792,-0.119889 -0.11637,-0.03585 -0.151929,-0.772538 -0.151929,-3.143994 0,-2.638573 0.04653,-3.1706932 -0.424264,-3.1450282 z m -7.417118,0.09508 -0.486275,0.0217 c -1.066796,0.04761 -1.910551,0.5426312 -1.064018,0.6242512 l 0.395325,0.03772 v 2.791561 2.791044 l -0.303858,0.138493 c -0.167168,0.07617 -0.304374,0.184165 -0.304374,0.240295 0,0.05613 0.656937,0.10232 1.459343,0.10232 1.531574,0 1.803804,-0.110745 0.942061,-0.38344 l -0.516764,-0.163814 -0.06098,-3.100069 z m 11.330058,0.9472292 c -0.431251,-0.01697 -0.701356,0.35656 -0.326078,0.756026 0.156388,0.166467 0.331046,0.302307 0.388606,0.302307 0.562722,0 0.839139,-0.612916 0.404627,-0.897619 -0.161516,-0.105829 -0.323405,-0.155057 -0.467155,-0.160714 z m 0.26665,1.809708 c -0.161625,0.01518 -0.391694,0.08986 -0.720886,0.181385 -0.74654,0.207556 -0.876846,0.404255 -0.350366,0.528133 0.486609,0.114497 0.517308,2.534284 0.03772,2.978629 l -0.325558,0.302313 h 1.415934 c 1.466263,0 1.792736,-0.113024 0.89917,-0.311093 l -0.516764,-0.114721 -0.03359,-1.793172 c -0.02382,-1.269715 -5.96e-4,-1.700162 -0.265617,-1.765267 -0.03975,-0.0098 -0.08617,-0.01126 -0.140043,-0.0062 z m 5.271513,0.02636 c -0.499168,-0.0041 -1.020487,0.111083 -1.516186,0.354501 -1.858568,0.912667 -1.675512,2.832203 0.33848,3.549654 0.932095,0.332044 2.259209,0.148911 3.214791,-0.443384 0.541299,-0.335512 0.297669,-0.430832 -0.449585,-0.176217 -1.348009,0.459313 -2.626909,0.07737 -3.15743,-0.942578 -0.338825,-0.651402 -0.237712,-0.687813 1.893941,-0.687813 2.155328,0 2.247908,-0.0357 1.759583,-0.675928 -0.482274,-0.632293 -1.251647,-0.971351 -2.083594,-0.978235 z m -11.83442,0.320394 c 0.776672,-0.03068 1.519438,0.212013 1.65468,0.750859 0.182185,0.725884 0.0099,1.947694 -0.305925,2.169377 -1.456696,1.022631 -3.932531,-0.544772 -3.207039,-2.030368 0.270984,-0.554893 1.081611,-0.859186 1.858284,-0.889868 z m 11.524361,0.05943 c 0.645134,0.0067 1.313615,0.272016 1.313615,0.679545 0,0.131971 -0.287773,0.176695 -1.306897,0.203605 -1.441162,0.03805 -1.576756,-0.04246 -0.993221,-0.590661 0.220738,-0.207372 0.599422,-0.296495 0.986503,-0.292489 z m -22.115445,7.575246 c -0.0067,0.0037 -0.01314,0.0077 -0.01757,0.01344 -2.7e-4,4e-4 0.01069,-0.0055 0.01085,-0.0057 0.0016,-0.0015 0.0041,-0.0048 0.0067,-0.0078 z m 0.09973,0.01912 c 0.0041,0.0054 0.0087,0.01027 0.01395,0.01499 0.001,8e-4 1.08e-4,-0.0024 -0.0016,-0.0036 -0.0039,-0.0041 -0.0083,-0.0075 -0.0124,-0.01137 z m 13.918014,0.254248 c -4.65e-4,-7e-4 -0.0015,0.0018 -10e-4,0.0026 0.0038,0.0061 0.0077,0.01223 0.01189,0.01809 -0.0033,-0.0069 -0.0066,-0.01437 -0.01085,-0.02067 z m -8.818067,0.01964 c 0.0013,5.86e-4 0.0023,0.0015 0.0036,0.0021 -0.0038,-0.0012 -0.0062,-0.0022 0.0016,-0.0016 -0.0017,-1.45e-4 -0.0034,-3.63e-4 -0.0052,-5.17e-4 z" /><path
         id="path1-1"
         style="fill:#000000"
         d="m 45.364095,4.2288198 c -0.115607,0.0101 -0.281045,0.08116 -0.481107,0.219625 -0.810368,0.560884 -1.087478,0.861175 -1.369942,1.483113 -0.151845,0.334336 -0.354886,0.758929 -0.451136,0.943612 -0.09626,0.184684 -0.142516,0.437739 -0.102836,0.562756 0.04663,0.146924 0.0014,0.254358 -0.12764,0.303858 -0.142356,0.05461 -0.184275,0.181199 -0.146245,0.440283 0.02932,0.199831 0.0083,0.363285 -0.04702,0.363285 -0.171011,0 -0.11089,0.447938 0.08165,0.607715 0.100301,0.08324 0.183602,0.268048 0.185002,0.410311 0.0016,0.162041 0.185973,0.388016 0.49351,0.6056472 0.619188,0.438172 0.762205,0.341377 0.180868,-0.122473 -0.566382,-0.4519142 -0.554619,-0.5891212 0.02222,-0.2614832 0.411796,0.2338992 0.39106,0.199303 -0.212907,-0.35605 -0.367769,-0.338168 -0.626331,-0.658354 -0.574641,-0.711584 0.05169,-0.05323 0.178048,0.02308 0.280603,0.169498 0.102554,0.146417 0.244733,0.266134 0.315743,0.266134 0.07101,0 -0.01455,-0.187971 -0.189653,-0.417545 -0.306984,-0.402472 -0.418368,-0.797885 -0.224792,-0.797885 0.05138,0 0.192385,0.149945 0.313159,0.33383 0.21666,0.32987 0.218372,0.330376 0.136942,0.03049 -0.09473,-0.348848 -0.20187,-1.216074 -0.12764,-1.033012 0.02712,0.06687 0.08243,0.271902 0.122989,0.455786 0.04056,0.183885 0.125713,0.334347 0.189653,0.334347 0.07337,0 0.07304,-0.115361 -0.0021,-0.312126 -0.151932,-0.399587 -0.149996,-1.396077 0.0031,-1.632975 0.08337,-0.129008 0.122552,0.04868 0.133842,0.607715 0.01868,0.924514 0.06477,0.786435 0.173116,-0.516764 0.09151,-1.10069 0.29397,-1.256553 0.31626,-0.243396 l 0.0155,0.699182 0.108521,-0.846977 c 0.05972,-0.466036 0.160112,-0.899085 0.223242,-0.962215 0.07199,-0.07199 0.08653,0.05811 0.03927,0.349332 -0.05443,0.335376 -0.03589,0.440495 0.06563,0.377755 0.0773,-0.04778 0.140043,-0.214706 0.140043,-0.37052 0,-0.155814 0.112604,-0.412132 0.250114,-0.569991 l 0.250114,-0.287321 -0.141077,0.289388 c -0.09273,0.190059 -0.113431,0.586664 -0.06046,1.154968 0.07936,0.851666 0.07375,0.875524 -0.351917,1.473295 -0.594663,0.835096 -0.525592,1.552303 0.215491,2.235523 0.321094,0.296023 0.356259,0.298247 1.418518,0.07286 0.331569,-0.07035 0.781831,0.156777 0.521415,0.263033 -0.08105,0.03307 -0.264723,0.2492052 -0.407727,0.4805912 -0.429778,0.695396 -1.078128,0.955681 -2.386934,0.958081 -1.099738,0.0021 -1.358623,0.112954 -0.522966,0.223759 1.261585,0.167281 2.574909,-0.2322 3.062863,-0.931209 0.391085,-0.56024 0.51293,-0.6062592 0.60048,-0.228927 l 0.07648,0.33073 0.01447,-0.334347 c 0.009,-0.209743 0.08248,-0.334347 0.196887,-0.334347 0.100295,0 0.182418,-0.05457 0.182418,-0.1214392 0,-0.06687 -0.05457,-0.12144 -0.121439,-0.12144 -0.206394,0 -0.137899,-0.195064 0.295589,-0.839225 0.229519,-0.341055 0.371109,-0.620118 0.314709,-0.620118 -0.165342,0 -0.725482,0.722956 -0.804602,1.03818 -0.06961,0.277339 -0.08555,0.281289 -0.37052,0.09457 -0.247257,-0.16201 -0.37569,-0.171462 -0.76171,-0.05581 -1.393371,0.41745 -2.358571,-0.952552 -1.399915,-1.986959 0.454306,-0.490202 0.551801,-0.846194 0.464571,-1.697571 -0.05138,-0.501427 -0.02797,-0.850398 0.06976,-1.033012 0.15851,-0.296176 0.104829,-0.44936 -0.08785,-0.432531 z m -5.781042,1.197343 c -0.01044,-9.23e-4 -0.01947,2.6e-4 -0.02687,0.0031 -0.233803,0.08972 -0.229418,0.370358 0.0088,0.567924 0.13518,0.11219 0.148039,0.180429 0.04703,0.242879 -0.158523,0.09797 0.0572,0.879062 0.33693,1.220597 0.08647,0.105566 0.157096,0.312637 0.157096,0.459921 0,0.147285 0.0863,0.300614 0.19172,0.341064 0.105423,0.04046 0.241044,0.20333 0.301274,0.361735 0.06023,0.158406 0.303985,0.380731 0.541569,0.494027 0.237584,0.113296 0.406637,0.271773 0.375687,0.352433 -0.08106,0.211249 0.297685,0.512625 0.977718,0.7782472 0.644375,0.251696 1.338874,0.338059 0.77308,0.09612 -1.004921,-0.4297562 -1.614678,-0.7543732 -1.493449,-0.7947832 0.07668,-0.02556 0.321256,0.04168 0.543119,0.149345 l 0.403076,0.195853 -0.302823,-0.261999 c -0.166741,-0.144085 -0.562848,-0.393734 -0.881105,-0.555007 -0.318258,-0.161273 -0.578776,-0.320997 -0.578776,-0.355017 0,-0.03402 0.16939,0.02534 0.376205,0.132292 0.683535,0.35347 0.486145,0.106996 -0.331763,-0.414445 -0.442371,-0.282024 -0.773366,-0.543867 -0.735356,-0.581877 0.03801,-0.03801 0.222576,0.03847 0.410311,0.170016 0.611532,0.42851 0.999162,0.566324 0.526066,0.187069 -0.232648,-0.186501 -0.615172,-0.522627 -0.850594,-0.747242 l -0.428397,-0.40876 0.483691,0.378271 c 0.769061,0.601108 0.78733,0.437989 0.02687,-0.239778 -0.381118,-0.339684 -0.692981,-0.676395 -0.692981,-0.748275 0,-0.07188 0.109662,-0.03163 0.243396,0.0894 0.34139,0.308957 0.302243,0.100774 -0.07338,-0.391707 -0.574349,-0.753011 -0.240822,-0.636899 0.425814,0.148311 0.392556,0.46238 1.828623,1.756 1.957503,1.7632 0.03343,0.0019 -0.528741,-0.604639 -1.249019,-1.347722 -0.809127,-0.834746 -1.305901,-1.271355 -1.462442,-1.285192 z m 9.147245,2.149223 c -0.226126,-0.0165 -0.357084,0.152441 -0.357084,0.483174 0,0.18108 0.877871,0.107128 0.938961,-0.07906 0.02526,-0.077 -0.121275,-0.223133 -0.325562,-0.325045 -0.09527,-0.04753 -0.180939,-0.07356 -0.256315,-0.07906 z m -0.944128,0.28267 c -0.01509,-5.72e-4 -0.03055,5.31e-4 -0.04599,0.0031 -0.185286,0.03083 -0.380869,0.27604 -0.272335,0.451652 0.07169,0.115996 0.119979,0.09571 0.188619,-0.07958 0.05753,-0.14691 0.09495,-0.169077 0.100252,-0.05891 0.0066,0.137108 0.04104,0.143962 0.154513,0.03049 0.113471,-0.113471 0.112773,-0.178342 -10e-4,-0.292489 -0.03593,-0.03593 -0.07875,-0.05255 -0.124023,-0.05426 z m 1.127063,0.468188 c -0.07904,0.0053 -0.16924,0.03156 -0.258899,0.08372 -0.207166,0.120502 -0.206102,0.128125 0.02274,0.133325 0.201855,0.0046 0.212348,0.02567 0.06098,0.123507 -0.158673,0.102545 -0.156635,0.118289 0.0155,0.119889 0.10883,10e-4 0.265192,-0.07981 0.347782,-0.179317 0.123839,-0.149215 0.04295,-0.261564 -0.113171,-0.279569 -0.02342,-0.0027 -0.04858,-0.0033 -0.07493,-0.0016 z m -1.63866,0.223242 c -0.02398,-0.0028 -0.0479,-0.0022 -0.0708,0.0021 -0.09158,0.01716 -0.166881,0.08977 -0.165881,0.206706 0.0016,0.18182 0.01917,0.185824 0.119889,0.02997 0.09822,-0.151986 0.117773,-0.142806 0.119373,0.05478 0.0014,0.174076 0.03811,0.201153 0.137459,0.101803 0.07441,-0.07441 0.09816,-0.194477 0.05323,-0.267167 -0.04868,-0.07873 -0.121333,-0.119711 -0.19327,-0.128158 z m 0.993221,0.360702 c -0.134691,0 -0.278547,0.05457 -0.319877,0.121439 -0.04133,0.06687 0.02373,0.122507 0.144694,0.123507 0.188166,0.0016 0.193787,0.02014 0.03772,0.128158 -0.150626,0.10428 -0.14027,0.1195 0.05943,0.08785 0.332807,-0.05276 0.401895,-0.460954 0.07803,-0.460954 z m -4.856551,1.7538982 c -0.01598,-0.03203 -0.397402,0.226373 -1.136881,0.788582 -0.999816,0.760136 -1.828222,1.229183 -1.104326,0.625285 0.3616,-0.301652 0.35094,-0.450577 -0.01499,-0.21084 -0.158484,0.103843 -0.479249,0.178451 -0.713135,0.165881 l -0.425297,-0.02274 0.301274,-0.280603 c 0.165789,-0.154167 0.692106,-0.438061 1.169438,-0.631486 1.1105,-0.449998 0.81665,-0.458099 -0.591179,-0.01602 -0.411692,0.129277 -0.747032,0.309725 -0.972034,0.487825 -0.02276,0.04474 -0.04206,0.08664 -0.06925,0.135393 -0.06543,0.117334 -0.137063,0.231207 -0.218075,0.337447 0.0039,0.01052 0.0079,0.02102 0.01189,0.03152 0.05105,0.07278 0.173926,0.118339 0.383956,0.118339 0.14857,0 0.376114,0.08011 0.505912,0.178284 0.410384,0.3104 0.653197,0.209477 1.81746,-0.754993 0.721693,-0.597848 1.071216,-0.91985 1.055233,-0.951879 z" /><path
         style="fill:#000000;stroke-width:1.06262"
         d="M 7.8964357,21.198916 C 7.2647195,21.070094 6.9595134,20.671409 7.172187,20.252842 c 0.1922038,-0.378279 0.9548723,-0.574597 1.5886981,-0.408943 0.100094,0.02616 0.2086052,0.04704 0.2411358,0.0464 l 0.059147,-0.0011 v 0.217684 c 0,0.235976 -0.015657,0.267153 -0.065148,0.129733 -0.1880991,-0.52229 -1.2971223,-0.479452 -1.5117779,0.05839 -0.3082777,0.772428 1.1097418,1.213535 1.5704413,0.488521 0.079465,-0.125056 0.091611,-0.06519 0.024478,0.120659 -0.1030942,0.285397 -0.1565813,0.310161 -0.6913544,0.320083 -0.280229,0.0052 -0.3626173,9.57e-4 -0.4913711,-0.0253 z m 2.2930653,0.0068 c -1.1918354,-0.245817 -0.8964911,-1.416248 0.357829,-1.418047 1.470066,-0.0021 1.502795,1.403382 0.03345,1.436326 -0.193929,0.0044 -0.307242,-9.45e-4 -0.391277,-0.01828 z m 0.676766,-0.09199 c 0.723234,-0.206018 0.571679,-1.153772 -0.198747,-1.242866 -0.546349,-0.06318 -0.9227219,0.211988 -0.8921606,0.652265 0.032953,0.474717 0.5379506,0.748116 1.0909076,0.590601 z m 1.848521,0.09095 c -0.188438,-0.04213 -0.34504,-0.132867 -0.430578,-0.249498 -0.107518,-0.146596 -0.116754,-0.189326 -0.127958,-0.591857 l -0.01041,-0.372364 -0.05316,-0.05116 c -0.03906,-0.03758 -0.0813,-0.05626 -0.159241,-0.0704 -0.197782,-0.03589 -0.107323,-0.04845 0.348894,-0.04845 0.423995,0 0.569772,0.01574 0.386728,0.04175 -0.41968,0.05964 -0.336149,1.048532 0.101479,1.201307 0.583322,0.203641 0.931384,-0.06606 0.931249,-0.721592 -8.7e-5,-0.416479 -0.01411,-0.444328 -0.241068,-0.47899 -0.169501,-0.02589 -0.04692,-0.04247 0.313931,-0.04247 0.359289,0 0.485975,0.01694 0.313932,0.04198 -0.216339,0.03148 -0.229452,0.05825 -0.2426,0.495115 -0.02142,0.711619 -0.415569,1.006607 -1.131235,0.846632 z m 3.469385,-0.03825 c -0.04902,-0.03625 -0.38394,-0.295994 -0.744278,-0.577216 l -0.655161,-0.511313 -0.0054,0.454775 c -0.007,0.58844 5.59e-4,0.612538 0.201072,0.638609 0.190676,0.0248 0.07409,0.04275 -0.277534,0.04275 -0.230521,0 -0.363979,-0.0061 -0.363979,-0.01679 0,-0.0092 0.01842,-0.01683 0.04095,-0.01688 0.239097,-5.46e-4 0.250085,-0.03012 0.250168,-0.673207 8e-5,-0.622589 0.0056,-0.603174 -0.182633,-0.637335 -0.177456,-0.0322 -0.124887,-0.04888 0.154008,-0.04888 h 0.26249 l 0.08785,0.06171 c 0.04831,0.03394 0.325191,0.247311 0.615286,0.474154 0.290095,0.226842 0.5505,0.430407 0.578677,0.452365 l 0.05123,0.03992 -0.0054,-0.448419 -0.0054,-0.448419 -0.04802,-0.03807 c -0.0291,-0.02307 -0.08467,-0.04255 -0.141041,-0.04945 -0.202664,-0.0248 -0.08512,-0.04379 0.27096,-0.04379 0.352003,0 0.465325,0.01749 0.279651,0.04318 -0.05362,0.0075 -0.104981,0.02868 -0.141042,0.05838 l -0.05671,0.04672 -0.0091,0.62639 c -0.01041,0.712347 -0.0028,0.68459 -0.156569,0.570826 z m 1.203008,0.04585 c -0.05005,-0.0092 -0.148031,-0.03222 -0.217742,-0.05121 -0.08629,-0.0235 -0.128892,-0.0286 -0.13346,-0.01596 -0.01189,0.03291 -0.05731,0.01975 -0.06622,-0.01919 -0.01328,-0.05812 -0.04666,-0.315194 -0.04666,-0.359333 0,-0.0628 0.03295,-0.04569 0.07649,0.03973 0.137024,0.268844 0.661985,0.409046 1.090389,0.29121 0.246637,-0.06784 0.326546,-0.286767 0.14559,-0.398877 -0.0936,-0.05798 -0.115236,-0.06253 -0.700577,-0.147053 -0.463732,-0.06696 -0.658022,-0.27076 -0.502081,-0.526647 0.121109,-0.198736 0.621661,-0.298601 1.056557,-0.210794 0.08418,0.017 0.187894,0.03094 0.23047,0.03099 0.09112,1.04e-4 0.08904,-0.004 0.105924,0.206588 0.01401,0.174704 -0.0051,0.200873 -0.06115,0.08393 -0.174928,-0.364711 -1.307154,-0.317296 -1.141743,0.04781 0.04346,0.09593 0.191773,0.141975 0.646486,0.20072 0.576838,0.07453 0.80986,0.28789 0.634233,0.580739 -0.126195,0.210421 -0.665788,0.329967 -1.116505,0.24736 z m 8.478825,-0.04585 c -0.04902,-0.03625 -0.383939,-0.295994 -0.744278,-0.577216 l -0.655162,-0.511313 -0.0054,0.454775 c -0.007,0.58844 5.57e-4,0.612538 0.201071,0.638609 0.190677,0.0248 0.07409,0.04275 -0.277533,0.04275 -0.230521,0 -0.36398,-0.0061 -0.36398,-0.01679 0,-0.0092 0.01842,-0.01683 0.04095,-0.01688 0.239095,-5.46e-4 0.250084,-0.03012 0.250167,-0.673207 8e-5,-0.622589 0.0056,-0.603174 -0.182632,-0.637335 -0.177457,-0.0322 -0.124889,-0.04888 0.154007,-0.04888 h 0.262491 l 0.08784,0.06171 c 0.0483,0.03394 0.32519,0.247311 0.615287,0.474154 0.290095,0.226842 0.5505,0.430407 0.578676,0.452365 l 0.05123,0.03992 -0.0054,-0.448419 -0.0054,-0.448419 -0.04802,-0.03807 c -0.0291,-0.02307 -0.08467,-0.04255 -0.141043,-0.04945 -0.202663,-0.0248 -0.08512,-0.04379 0.270962,-0.04379 0.352003,0 0.465324,0.01749 0.27965,0.04318 -0.05362,0.0075 -0.104981,0.02868 -0.141042,0.05838 l -0.05671,0.04672 -0.0091,0.62639 c -0.01041,0.712347 -0.0028,0.68459 -0.15657,0.570826 z m 1.594285,0.05322 c -1.113645,-0.161572 -1.258478,-1.120144 -0.209288,-1.385147 0.216649,-0.05472 0.728267,-0.05449 0.96698,4.33e-4 0.09143,0.02103 0.1897,0.03593 0.218388,0.03312 l 0.05215,-0.0051 0.0051,0.213998 c 0.0054,0.229041 -0.0083,0.260268 -0.0598,0.135891 -0.199939,-0.482835 -1.272176,-0.45417 -1.503432,0.0402 -0.275232,0.588371 0.644662,1.178815 1.271496,0.816123 0.118851,-0.06877 0.03896,-0.413245 -0.100882,-0.434974 -0.249906,-0.03883 -0.161583,-0.0579 0.268149,-0.0579 0.433973,0 0.533948,0.01985 0.290205,0.05761 -0.111539,0.01728 -0.133133,0.05577 -0.143918,0.256476 -0.01095,0.203115 -0.0334,0.233514 -0.208909,0.282534 -0.179199,0.05004 -0.645941,0.07585 -0.846251,0.0468 z m 3.039222,-0.02077 c -0.631717,-0.128822 -0.936922,-0.527507 -0.724248,-0.946074 0.192203,-0.378279 0.954872,-0.574597 1.588697,-0.408943 0.100091,0.02616 0.208606,0.04704 0.241137,0.0464 l 0.05914,-0.0011 v 0.217684 c 0,0.235976 -0.01566,0.267153 -0.06516,0.129733 -0.188099,-0.52229 -1.297123,-0.479452 -1.511779,0.05839 -0.308276,0.772428 1.109743,1.213535 1.570442,0.488521 0.07947,-0.125056 0.09161,-0.06519 0.02447,0.120659 -0.103094,0.285397 -0.156581,0.310161 -0.691354,0.320083 -0.280228,0.0052 -0.362617,9.57e-4 -0.491371,-0.0253 z m 5.412305,-0.03245 c -0.04902,-0.03625 -0.38394,-0.295994 -0.744279,-0.577216 l -0.655161,-0.511313 -0.0054,0.454775 c -0.007,0.58844 5.59e-4,0.612538 0.201071,0.638609 0.190677,0.0248 0.07409,0.04275 -0.277533,0.04275 -0.230519,0 -0.363979,-0.0061 -0.363979,-0.01679 0,-0.0092 0.01842,-0.01683 0.04095,-0.01688 0.239096,-5.46e-4 0.250086,-0.03012 0.250168,-0.673207 7.9e-5,-0.622589 0.0056,-0.603174 -0.182632,-0.637335 -0.177457,-0.0322 -0.124889,-0.04888 0.154008,-0.04888 h 0.26249 l 0.08784,0.06171 c 0.04831,0.03394 0.32519,0.247311 0.615285,0.474154 0.290095,0.226842 0.5505,0.430407 0.578678,0.452365 l 0.05123,0.03992 -0.0054,-0.448419 -0.0054,-0.448419 -0.04802,-0.03807 c -0.0291,-0.02307 -0.08467,-0.04255 -0.141041,-0.04945 -0.202664,-0.0248 -0.08511,-0.04379 0.270961,-0.04379 0.352002,0 0.465324,0.01749 0.279649,0.04318 -0.05362,0.0075 -0.10498,0.02868 -0.141041,0.05838 l -0.05671,0.04672 -0.0091,0.62639 c -0.01041,0.712347 -0.0028,0.68459 -0.156569,0.570826 z m 6.426103,0.02451 c -0.108115,-0.04765 -0.196856,-0.130965 -0.368671,-0.346153 -0.189796,-0.237711 -0.166279,-0.22564 -0.452134,-0.232084 l -0.243833,-0.0055 v 0.20325 c 0,0.27764 0.03749,0.352838 0.176243,0.353458 0.06934,3.11e-4 0.133138,0.01723 0.133138,0.0353 0,0.0082 -0.203837,0.01483 -0.454973,0.01483 -0.430696,0 -0.577553,-0.01671 -0.368529,-0.04195 0.234002,-0.02825 0.232037,-0.02285 0.232037,-0.637064 0,-0.605208 -0.01694,-0.662981 -0.194735,-0.663955 -0.06502,-3.56e-4 -0.124385,-0.01881 -0.113368,-0.03525 0.01749,-0.0261 1.291228,-0.01778 1.429958,0.0094 0.527258,0.103068 0.551989,0.602378 0.03618,0.730474 -0.06714,0.01667 -0.07451,0.02254 -0.04953,0.03946 0.01615,0.01093 0.1091,0.117284 0.206578,0.236337 0.208734,0.254936 0.284701,0.312004 0.435194,0.326915 0.173515,0.0172 0.114456,0.04371 -0.107746,0.04837 -0.183955,0.0039 -0.21407,2.22e-4 -0.2958,-0.0358 z m -0.323264,-0.706092 c 0.403415,-0.154489 0.235222,-0.548897 -0.244879,-0.57423 -0.48668,-0.02569 -0.496495,-0.01893 -0.496495,0.341619 v 0.277791 l 0.33213,-0.0079 c 0.261257,-0.0061 0.348586,-0.01412 0.409244,-0.03736 z M 18.870394,21.19916 c 0,-0.0082 0.03072,-0.01984 0.06825,-0.02586 0.209269,-0.03355 0.204738,-0.01904 0.204738,-0.65577 0,-0.636729 0.0046,-0.622219 -0.204738,-0.655771 -0.188041,-0.03015 -0.0063,-0.04078 0.69715,-0.04078 0.507995,0 0.792821,-0.0063 0.846948,-0.01894 0.104168,-0.0242 0.101056,-0.02992 0.07932,0.145981 -0.03035,0.24552 -0.05603,0.294926 -0.08137,0.156579 -0.0072,-0.039 -0.03478,-0.09175 -0.06377,-0.121685 l -0.05117,-0.05284 -0.442823,-0.0051 c -0.547412,-0.0062 -0.506569,-0.02924 -0.506569,0.284908 v 0.217374 l 0.335533,-0.0052 0.335532,-0.0052 0.0548,-0.04847 c 0.03014,-0.02665 0.05727,-0.06383 0.0603,-0.08261 0.02224,-0.138371 0.05098,-0.02741 0.05098,0.196814 0,0.254516 -0.01165,0.289928 -0.05887,0.17905 -0.04739,-0.111267 -0.09987,-0.12628 -0.464352,-0.132826 l -0.313931,-0.0056 V 20.7666 c 0,0.360508 -0.01813,0.346835 0.459866,0.346835 0.463938,0 0.615857,-0.0535 0.70299,-0.247567 0.02124,-0.04732 0.0751,-0.07768 0.07444,-0.04196 -0.0014,0.08085 -0.131203,0.364848 -0.173473,0.379807 -0.04685,0.01658 -1.60979,0.01221 -1.60979,-0.0045 z m 2.05648,-7.2e-5 c 0,-0.01923 0.04574,-0.03536 0.100177,-0.03536 0.15726,0 0.191117,-0.116873 0.190563,-0.657821 -5.67e-4,-0.555106 -0.014,-0.602318 -0.178304,-0.626603 -0.279492,-0.04131 -0.190225,-0.05831 0.306131,-0.05831 0.427359,0 0.56442,0.0151 0.386728,0.04261 -0.258089,0.03996 -0.250236,0.01954 -0.250236,0.650433 v 0.51831 l 0.05259,0.04173 0.05259,0.04173 0.365988,-0.0054 c 0.470571,-0.0069 0.550424,-0.03951 0.682213,-0.27815 0.0852,-0.154287 0.09585,-0.07968 0.02174,0.152302 -0.08125,0.254312 0.01838,0.229539 -0.92315,0.229539 -0.461429,0 -0.807031,-0.0064 -0.807031,-0.01499 z m 2.001882,3.5e-4 c 0,-0.0081 0.03361,-0.01959 0.07471,-0.02566 0.203732,-0.03004 0.197722,-0.01 0.198029,-0.659656 3.02e-4,-0.632919 0.0048,-0.618822 -0.204488,-0.652364 -0.161968,-0.02597 -0.04137,-0.04078 0.33213,-0.04078 0.254785,0 0.400376,0.0061 0.400376,0.01679 0,0.0092 -0.0103,0.01683 -0.02275,0.01688 -0.225929,9.3e-4 -0.232035,0.01838 -0.232035,0.662883 0,0.643999 0.0062,0.661911 0.230963,0.662882 0.01192,5.2e-5 0.02673,0.0077 0.03292,0.01688 0.0074,0.011 -0.130237,0.01679 -0.399303,0.01679 -0.225802,0 -0.41055,-0.0066 -0.41055,-0.01464 z m 9.099467,-2.78e-4 c 0,-0.0082 0.03072,-0.01984 0.06825,-0.02586 0.209269,-0.03355 0.204739,-0.01904 0.204739,-0.65577 0,-0.636729 0.0046,-0.622219 -0.204739,-0.655771 -0.18804,-0.03015 -0.0063,-0.04078 0.69715,-0.04078 0.507995,0 0.792822,-0.0063 0.846948,-0.01894 0.104168,-0.0242 0.101056,-0.02992 0.07932,0.145981 -0.03035,0.24552 -0.05602,0.294926 -0.08136,0.156579 -0.0072,-0.039 -0.03478,-0.09175 -0.06377,-0.121685 l -0.05117,-0.05284 -0.442821,-0.0051 c -0.547412,-0.0062 -0.50657,-0.02924 -0.50657,0.284908 v 0.217374 l 0.335532,-0.0052 0.335532,-0.0052 0.0548,-0.04847 c 0.03014,-0.02665 0.05727,-0.06383 0.06029,-0.08261 0.02224,-0.138371 0.05098,-0.02741 0.05098,0.196814 0,0.254516 -0.01164,0.289928 -0.05887,0.17905 -0.0474,-0.111267 -0.09987,-0.12628 -0.464351,-0.132826 l -0.313932,-0.0056 V 20.7666 c 0,0.360508 -0.01813,0.346835 0.459865,0.346835 0.463939,0 0.615858,-0.0535 0.70299,-0.247567 0.02124,-0.04732 0.0751,-0.07768 0.07445,-0.04196 -0.0014,0.08085 -0.131203,0.364848 -0.173472,0.379807 -0.04685,0.01658 -1.609792,0.01221 -1.609792,-0.0045 z m 5.059305,-8.4e-4 c 0,-0.0087 0.03761,-0.02096 0.08358,-0.02732 0.04596,-0.0063 0.105339,-0.02882 0.131942,-0.04991 l 0.04836,-0.03835 0.0056,-0.582345 0.0056,-0.582344 -0.281849,0.006 c -0.330363,0.007 -0.352399,0.01567 -0.437373,0.171259 -0.07169,0.131264 -0.0876,0.101813 -0.05983,-0.11076 0.02693,-0.206101 0.02761,-0.207278 0.105273,-0.182309 0.07704,0.02477 1.539908,0.0261 1.610159,0.0014 0.06548,-0.02296 0.06342,-0.0271 0.08955,0.180106 0.02717,0.215543 0.01242,0.244451 -0.05741,0.112494 -0.08212,-0.155164 -0.103322,-0.163543 -0.434785,-0.171757 l -0.28252,-0.007 0.0052,0.582583 0.0052,0.582583 0.04836,0.03835 c 0.0266,0.02109 0.08597,0.04355 0.131941,0.04991 0.190511,0.02635 0.06751,0.04307 -0.316801,0.04307 -0.237363,0 -0.400376,-0.0064 -0.400376,-0.01576 z m 1.565108,8.4e-4 c 0,-0.0082 0.03071,-0.01984 0.06825,-0.02586 0.209267,-0.03355 0.204738,-0.01904 0.204738,-0.65577 0,-0.636729 0.0046,-0.622219 -0.204738,-0.655771 -0.18804,-0.03015 -0.0063,-0.04078 0.697149,-0.04078 0.507996,0 0.792822,-0.0063 0.846948,-0.01894 0.104167,-0.0242 0.101056,-0.02992 0.07932,0.145981 -0.03035,0.24552 -0.05603,0.294926 -0.08136,0.156579 -0.0072,-0.039 -0.03478,-0.09175 -0.06377,-0.121685 l -0.05117,-0.05284 -0.442821,-0.0051 c -0.547413,-0.0062 -0.50657,-0.02924 -0.50657,0.284908 v 0.217374 l 0.335531,-0.0052 0.335534,-0.0052 0.0548,-0.04847 c 0.03014,-0.02665 0.05727,-0.06383 0.0603,-0.08261 0.02224,-0.138371 0.05098,-0.02741 0.05098,0.196814 0,0.254516 -0.01165,0.289928 -0.05887,0.17905 -0.04739,-0.111267 -0.09987,-0.12628 -0.46435,-0.132826 l -0.313932,-0.0056 V 20.7666 c 0,0.360508 -0.01813,0.346835 0.459865,0.346835 0.463939,0 0.615858,-0.0535 0.702989,-0.247567 0.02124,-0.04732 0.0751,-0.07768 0.07445,-0.04196 -0.0014,0.08085 -0.131204,0.364848 -0.173474,0.379807 -0.04685,0.01658 -1.609789,0.01221 -1.609789,-0.0045 z"
         id="path48" /></g></g></svg>
