<svg xmlns="http://www.w3.org/2000/svg" xml:space="preserve" viewBox="0 0 52.9167 33.0729">
  <path d="M25.5906 5.1073a.4614.4614 0 0 0-.1013.0026c-.193.0223-.5374.1314-1.0738.3116-1.6547.5557-1.2978.3427-10.9472 6.5314-11.6388 7.4645-11.2112 7.1102-10.5802 8.77.1762.4636.3384.383.6594-.3266.5673-1.2547 4.3213-4.4034 8.1256-6.8162l.697-.4423 3.6795.09c5.3044.1294 5.3.1263 4.6457 3.114-.6161 2.813-.5966 2.8327 2.2887 2.27 2.192-.4274 2.7952-.6938 1.3043-.5756-2.1326.169-2.1715-.165-.7188-6.2156 1.03-4.29 1.317-5.2415 1.8149-6.0265.2874-.4531.3984-.6657.2062-.6868zm-2.5482 1.389c.0957.0957-1.5517 6.3188-1.697 6.411-.0863.0547-.2117.092-.2786.0827-.0668-.0094-1.1614-.0582-2.4319-.1085-3.4937-.1385-5.0451-.2489-5.0451-.3587 0-.298 9.2706-6.2085 9.4526-6.0265zm11.3988 3.1978c-.157.0086-.3714.0787-.664.154-1.0608.2728-1.2664.4243-.724.5327.6551.131.7183.2519.7183 1.3757v1.0257l-.5778-.0981c-3.6263-.6194-5.8537 2.7222-2.5383 3.808.6597.216 1.8128.1349 2.5311-.1783l.57-.2486.0382.2662c.0416.291.1122.299 1.3446.1504.7476-.0902.9105-.2593.3649-.3788-.1839-.0403-.4032-.0942-.4868-.12-.1164-.0358-.152-.7725-.152-3.144 0-2.6385.0466-3.1706-.4242-3.145zm-7.4171.095-.4863.0217c-1.0668.0477-1.9105.5427-1.064.6243l.3953.0377V16.0554l-.3038.1385c-.1672.0762-.3044.1842-.3044.2403 0 .0561.657.1023 1.4593.1023 1.5316 0 1.8038-.1107.942-.3834l-.5167-.1638-.061-3.1001zm11.33.9473c-.4312-.017-.7013.3565-.326.756.1563.1665.331.3023.3886.3023.5627 0 .8391-.613.4046-.8976-.1615-.1058-.3234-.155-.4672-.1607zm.2667 1.8097c-.1616.0152-.3917.0898-.7209.1814-.7465.2075-.8768.4042-.3504.5281.4866.1145.5173 2.5343.0378 2.9786l-.3256.3023h1.416c1.4662 0 1.7927-.113.8991-.311l-.5168-.1148-.0336-1.7931c-.0238-1.2698-.0005-1.7002-.2656-1.7653-.0397-.0098-.0861-.0113-.14-.0062zm5.2715.0263c-.4992-.004-1.0205.1111-1.5162.3545-1.8586.9127-1.6755 2.8322.3385 3.5497.932.332 2.2592.149 3.2148-.4434.5413-.3355.2977-.4308-.4496-.1762-1.348.4593-2.627.0774-3.1574-.9426-.3389-.6514-.2377-.6878 1.894-.6878 2.1552 0 2.2478-.0357 1.7595-.676-.4823-.6322-1.2517-.9713-2.0836-.9782zm-11.8344.3204c.7767-.0306 1.5194.212 1.6547.7509.1821.7259.0099 1.9477-.306 2.1694-1.4567 1.0226-3.9325-.5448-3.207-2.0304.271-.5549 1.0816-.8592 1.8583-.8899zm11.5243.0595c.6452.0067 1.3137.272 1.3137.6795 0 .132-.2878.1767-1.307.2036-1.4411.038-1.5767-.0424-.9932-.5906.2208-.2074.5995-.2965.9865-.2925zm-22.1154 7.5752a.055.055 0 0 0-.0176.0134.151.151 0 0 0 .0109-.0057c.0016-.0015.004-.0048.0067-.0078zm.0997.0191a.1073.1073 0 0 0 .014.015c.001.0008 0-.0024-.0016-.0036-.004-.004-.0083-.0075-.0124-.0114zm13.918.2543c-.0004-.0007-.0015.0018-.001.0026a.3414.3414 0 0 0 .012.018c-.0034-.0068-.0067-.0143-.011-.0206zm-8.818.0196c.0013.0006.0023.0015.0036.0021-.0038-.0012-.0062-.0022.0016-.0016l-.0052-.0005z" style="fill:#16979b;fill-opacity:1" transform="translate(.4872 3.7991)"/>
  <path d="M45.3641 4.2288c-.1156.0101-.281.0812-.4811.2196-.8104.561-1.0875.8612-1.37 1.4832-.1518.3343-.3548.7589-.451.9436-.0964.1847-.1426.4377-.103.5627.0467.147.0015.2544-.1276.3039-.1423.0546-.1842.1812-.1462.4403.0293.1998.0083.3633-.047.3633-.171 0-.111.4479.0816.6077.1003.0832.1836.268.185.4103.0016.162.186.388.4935.6056.6192.4382.7622.3414.1809-.1224-.5664-.452-.5546-.5892.0222-.2615.4118.2339.391.1993-.2129-.356-.3678-.3382-.6263-.6584-.5746-.7117.0517-.0532.178.0231.2806.1695.1025.1464.2447.2662.3157.2662.071 0-.0145-.188-.1896-.4176-.307-.4025-.4184-.7979-.2248-.7979.0514 0 .1924.15.3131.3339.2167.3298.2184.3303.137.0305-.0948-.3489-.2019-1.2161-.1277-1.033.0272.0668.0825.2718.123.4557.0406.184.1257.3344.1897.3344.0733 0 .073-.1154-.0021-.3121-.152-.3996-.15-1.3961.003-1.633.0834-.129.1226.0487.134.6077.0186.9245.0647.7864.173-.5168.0915-1.1007.294-1.2565.3163-.2434l.0155.6992.1085-.847c.0597-.466.1601-.899.2233-.9622.072-.072.0865.0581.0392.3494-.0544.3353-.0359.4404.0657.3777.0773-.0478.14-.2147.14-.3705s.1126-.4121.2501-.57l.2501-.2873-.141.2894c-.0928.19-.1135.5866-.0605 1.155.0793.8516.0737.8755-.352 1.4732-.5946.8351-.5255 1.5523.2156 2.2356.321.296.3562.2982 1.4185.0728.3316-.0703.7818.1568.5214.263-.081.0331-.2647.2492-.4077.4806-.4298.6954-1.0782.9557-2.387.9581-1.0997.0021-1.3586.113-.523.2238 1.2617.1673 2.575-.2322 3.063-.9312.391-.5603.5129-.6063.6004-.229l.0765.3308.0145-.3344c.009-.2097.0824-.3343.1968-.3343.1003 0 .1825-.0546.1825-.1215a.1217.1217 0 0 0-.1215-.1214c-.2064 0-.1379-.195.2956-.8392.2295-.341.3711-.6201.3147-.6201-.1653 0-.7255.723-.8046 1.0381-.0696.2774-.0855.2813-.3705.0946-.2473-.162-.3757-.1715-.7617-.0558-1.3934.4174-2.3586-.9526-1.4-1.987.4544-.4902.5519-.8462.4647-1.6975-.0514-.5015-.028-.8504.0697-1.033.1585-.2962.1048-.4494-.0878-.4326zm-5.781 1.1974a.0601.0601 0 0 0-.027.003c-.2337.0898-.2293.3704.0089.568.1352.1122.148.1804.047.2429-.1585.098.0572.879.337 1.2206.0864.1055.157.3126.157.4599s.0863.3006.1918.341c.1054.0405.241.2034.3012.3618.0603.1584.304.3807.5416.494.2376.1133.4066.2718.3757.3524-.081.2113.2977.5127.9777.7783.6444.2517 1.3389.338.773.0961-1.0048-.4297-1.6146-.7544-1.4934-.7948.0767-.0255.3213.0417.5432.1494l.403.1958-.3028-.262c-.1667-.144-.5628-.3937-.881-.555-.3184-.1613-.5789-.321-.5789-.355 0-.034.1694.0253.3762.1323.6836.3535.4862.107-.3317-.4145-.4424-.282-.7734-.5438-.7354-.5818.038-.038.2226.0384.4103.17.6116.4285.9992.5663.526.187-.2326-.1864-.615-.5226-.8505-.7472l-.4284-.4087.4837.3782c.769.6011.7873.438.0269-.2398-.3812-.3396-.693-.6763-.693-.7482 0-.072.1096-.0317.2434.0894.3414.309.3022.1007-.0734-.3917-.5744-.753-.2408-.637.4258.1483.3926.4624 1.8286 1.756 1.9575 1.7632.0334.0019-.5287-.6047-1.249-1.3477-.8091-.8348-1.306-1.2714-1.4624-1.2852zm9.1472 2.1492c-.2261-.0165-.357.1524-.357.4832 0 .181.8778.107.9389-.0791.0252-.077-.1213-.2231-.3256-.325-.0953-.0476-.181-.0736-.2563-.0791zm-.9441.2827a.2283.2283 0 0 0-.046.003c-.1853.0309-.3809.2761-.2724.4517.0717.116.12.0957.1887-.0796.0575-.1469.095-.169.1002-.0589.0066.1371.041.144.1545.0305.1135-.1135.1128-.1783-.001-.2925a.1805.1805 0 0 0-.124-.0542zm1.127.4681c-.079.0053-.1692.0316-.2589.0838-.2071.1205-.206.128.0228.1333.2018.0046.2123.0257.061.1235-.1587.1025-.1567.1183.0155.1199.1088.001.2651-.0798.3477-.1793.1239-.1492.043-.2616-.1131-.2796a.4202.4202 0 0 0-.075-.0016zm-1.6386.2233a.2359.2359 0 0 0-.0708.002c-.0916.0172-.167.0899-.166.2068.0017.1818.0193.1858.12.03.0982-.152.1178-.1428.1194.0547.0014.1741.038.2012.1374.1018.0744-.0744.0982-.1944.0532-.2671-.0486-.0788-.1213-.1197-.1932-.1282zm.9932.3607c-.1347 0-.2786.0546-.3199.1214-.0413.0669.0237.1225.1447.1235.1882.0016.1938.0202.0377.1282-.1506.1043-.1402.1195.0595.0878.3328-.0527.4019-.461.078-.461zm-4.8566 1.7539c-.016-.032-.3974.2264-1.1368.7886-.9999.7601-1.8283 1.2292-1.1044.6253.3616-.3017.351-.4506-.015-.2109-.1584.1039-.4792.1785-.713.1659l-.4254-.0227.3013-.2806c.1658-.1542.692-.4381 1.1694-.6315 1.1105-.45.8167-.4581-.5912-.016-.4116.1292-.747.3097-.972.4878-.0227.0447-.042.0866-.0692.1354a2.8195 2.8195 0 0 1-.2181.3374l.0119.0315c.051.0728.1739.1184.384.1184.1485 0 .376.08.5058.1783.4104.3104.6532.2094 1.8175-.755.7217-.5979 1.0712-.9199 1.0552-.952z" style="fill:#000" transform="translate(.4872 3.7991)"/>
  <path d="M7.8964 21.199c-.6317-.129-.9369-.5276-.7242-.9462.1922-.3782.9549-.5746 1.5887-.4089.1.0262.2086.047.2411.0464l.0592-.0011v.2177c0 .236-.0157.2671-.0652.1297-.188-.5223-1.2971-.4794-1.5118.0584-.3082.7724 1.1098 1.2135 1.5705.4885.0794-.125.0916-.0652.0245.1207-.1031.2854-.1566.3101-.6914.32-.2802.0053-.3626.001-.4914-.0252zm2.2931.0067c-1.1918-.2458-.8965-1.4162.3578-1.418 1.4701-.0021 1.5028 1.4034.0335 1.4363-.194.0044-.3073-.001-.3913-.0183zm.6768-.092c.7232-.206.5716-1.1537-.1988-1.2428-.5463-.0632-.9227.212-.8921.6522.033.4747.538.7481 1.0909.5906zm1.8485.091c-.1884-.0422-.345-.1329-.4306-.2495-.1075-.1466-.1167-.1893-.128-.5919l-.0104-.3723-.0531-.0512c-.039-.0376-.0813-.0563-.1593-.0704-.1977-.0359-.1073-.0485.349-.0485.424 0 .5697.0158.3867.0418-.4197.0596-.3362 1.0485.1014 1.2013.5834.2036.9314-.066.9313-.7216-.0001-.4165-.0141-.4443-.241-.479-.1696-.0259-.047-.0424.3139-.0424.3592 0 .486.0169.3139.042-.2164.0314-.2295.0582-.2426.495-.0214.7117-.4156 1.0067-1.1312.8467zm3.4694-.0383c-.049-.0362-.384-.296-.7443-.5772l-.6552-.5113-.0054.4548c-.007.5884.0006.6125.2011.6386.1907.0248.0741.0427-.2775.0427-.2305 0-.364-.006-.364-.0168 0-.0092.0184-.0168.041-.0168.239-.0006.25-.0302.2501-.6732 0-.6226.0056-.6032-.1826-.6374-.1775-.0322-.125-.0489.154-.0489h.2625l.0878.0617c.0483.034.3252.2474.6153.4742l.5787.4524.0512.0399-.0054-.4484-.0054-.4485-.048-.038c-.0291-.023-.0847-.0426-.141-.0495-.2027-.0248-.0852-.0438.271-.0438.352 0 .4652.0175.2796.0432-.0537.0075-.105.0287-.141.0584l-.0568.0467-.009.6264c-.0105.7124-.0029.6846-.1567.5708zm1.203.0459a3.3004 3.3004 0 0 1-.2178-.0512c-.0863-.0235-.1289-.0286-.1334-.016-.012.033-.0573.0198-.0662-.0192-.0133-.0581-.0467-.3152-.0467-.3593 0-.0628.033-.0457.0765.0397.137.2689.662.409 1.0904.2912.2466-.0678.3265-.2867.1456-.3989-.0936-.058-.1153-.0625-.7006-.147-.4637-.067-.658-.2708-.502-.5267.121-.1987.6216-.2986 1.0565-.2107.0841.017.1879.0309.2304.031.0912 0 .089-.004.106.2065.014.1747-.0051.2009-.0612.084-.175-.3648-1.3071-.3173-1.1417.0478.0434.0959.1917.142.6465.2007.5768.0745.8098.2879.6342.5807-.1262.2104-.6658.33-1.1165.2474zm8.4788-.0459c-.049-.0362-.384-.296-.7443-.5772l-.6551-.5113-.0054.4548c-.007.5884.0005.6125.201.6386.1907.0248.0741.0427-.2775.0427-.2305 0-.364-.006-.364-.0168 0-.0092.0184-.0168.041-.0168.239-.0006.25-.0302.2501-.6732.0001-.6226.0056-.6032-.1826-.6374-.1774-.0322-.1249-.0489.154-.0489h.2625l.0878.0617c.0483.034.3252.2474.6153.4742l.5787.4524.0512.0399-.0054-.4484-.0054-.4485-.048-.038c-.029-.023-.0847-.0426-.141-.0495-.2027-.0248-.0851-.0438.271-.0438.352 0 .4653.0175.2796.0432-.0536.0075-.105.0287-.141.0584l-.0568.0467-.009.6264c-.0105.7124-.0029.6846-.1566.5708zm1.5943.0532c-1.1137-.1615-1.2585-1.1201-.2093-1.3851.2167-.0547.7283-.0545.967.0004.0914.021.1897.036.2184.0332l.0521-.0051.0051.214c.0054.229-.0083.2602-.0598.1358-.2-.4828-1.2722-.4541-1.5034.0402-.2752.5884.6447 1.1789 1.2715.8162.1188-.0688.039-.4133-.1009-.435-.2499-.0388-.1616-.058.2682-.058.434 0 .5339.02.2902.0577-.1116.0173-.1332.0558-.144.2565-.011.203-.0334.2335-.2089.2825-.1792.05-.646.0759-.8462.0468zm3.0392-.0207c-.6317-.1288-.937-.5275-.7242-.9461.1922-.3783.9548-.5746 1.5887-.409.1.0262.2086.0471.2411.0465l.0591-.0011v.2176c0 .236-.0156.2672-.0651.1298-.1881-.5223-1.2971-.4795-1.5118.0584-.3083.7724 1.1097 1.2135 1.5704.4885.0795-.125.0917-.0652.0245.1206-.103.2854-.1566.3102-.6913.3201-.2803.0052-.3627.001-.4914-.0253zm5.4123-.0325c-.049-.0362-.384-.296-.7443-.5772l-.6551-.5113-.0054.4548c-.007.5884.0005.6125.201.6386.1907.0248.0741.0427-.2775.0427-.2305 0-.364-.006-.364-.0168 0-.0092.0185-.0168.041-.0168.239-.0006.25-.0302.2502-.6732 0-.6226.0056-.6032-.1827-.6374-.1774-.0322-.1249-.0489.154-.0489h.2625l.0879.0617c.0483.034.3252.2474.6152.4742l.5787.4524.0513.0399-.0054-.4484-.0054-.4485-.048-.038c-.0292-.023-.0847-.0426-.1411-.0495-.2027-.0248-.0851-.0438.271-.0438.352 0 .4653.0175.2796.0432-.0536.0075-.105.0287-.141.0584l-.0567.0467-.0091.6264c-.0105.7124-.0028.6846-.1566.5708zm6.4261.0245c-.108-.0476-.1968-.131-.3687-.3461-.1897-.2377-.1662-.2257-.452-.2321l-.244-.0055v.2032c0 .2777.0376.3529.1763.3535.0694.0003.1332.0172.1332.0353 0 .0082-.2039.0148-.455.0148-.4307 0-.5776-.0167-.3685-.042.234-.0282.232-.0228.232-.637 0-.6052-.017-.663-.1947-.664-.065-.0003-.1244-.0187-.1134-.0352.0175-.026 1.2912-.0178 1.43.0094.5272.103.552.6024.0361.7305-.0671.0167-.0745.0225-.0495.0395.0162.0109.1091.1172.2066.2363.2087.255.2847.312.4352.3269.1735.0172.1144.0437-.1078.0484-.184.0039-.214.0002-.2958-.0358zm-.3232-.706c.4034-.1545.2352-.549-.245-.5743-.4866-.0257-.4964-.019-.4964.3416v.2778l.3321-.0079c.2613-.006.3486-.0141.4093-.0373zm-23.1443.7143c0-.0082.0307-.0199.0682-.0259.2093-.0336.2048-.019.2048-.6558 0-.6367.0046-.6222-.2048-.6557-.188-.0302-.0063-.0408.6972-.0408.508 0 .7928-.0063.847-.019.1041-.0242.101-.0299.0793.146-.0304.2455-.056.295-.0814.1566-.0072-.039-.0348-.0918-.0638-.1217l-.0511-.0528-.4429-.0051c-.5474-.0062-.5065-.0293-.5065.2849v.2174l.3355-.0052.3355-.0052.0548-.0485c.0302-.0267.0573-.0638.0603-.0826.0223-.1384.051-.0274.051.1968 0 .2545-.0116.29-.0589.179-.0474-.1112-.0998-.1262-.4643-.1328l-.314-.0056v.2434c0 .3605-.018.3468.46.3468.4639 0 .6158-.0535.703-.2475.0211-.0474.075-.0777.0743-.042-.0014.0809-.1312.3649-.1734.3798-.0469.0166-1.6098.0122-1.6098-.0045zm2.0565-.0001c0-.0192.0457-.0354.1002-.0354.1572 0 .191-.1168.1905-.6578-.0006-.5551-.014-.6023-.1783-.6266-.2795-.0413-.1902-.0583.3061-.0583.4274 0 .5645.015.3868.0426-.2581.04-.2503.0195-.2503.6504v.5183l.0526.0418.0526.0417.366-.0054c.4706-.0069.5504-.0395.6822-.2781.0852-.1543.0959-.0797.0218.1523-.0813.2543.0183.2295-.9232.2295-.4614 0-.807-.0064-.807-.015zm2.0019.0003c0-.008.0336-.0196.0747-.0256.2037-.03.1977-.01.198-.6597.0003-.6329.0048-.6188-.2045-.6523-.162-.026-.0414-.0408.3321-.0408.2548 0 .4004.006.4004.0168 0 .0092-.0103.0168-.0227.0168-.226.001-.232.0184-.232.663 0 .644.0061.6618.2309.6628.012 0 .0267.0077.033.0169.0073.011-.1303.0168-.3994.0168-.2258 0-.4105-.0066-.4105-.0147zm9.0994-.0002c0-.0082.0307-.0199.0683-.0259.2092-.0336.2047-.019.2047-.6558 0-.6367.0046-.6222-.2047-.6557-.188-.0302-.0063-.0408.6971-.0408.508 0 .7928-.0063.847-.019.1041-.0242.101-.0299.0793.146-.0304.2455-.056.295-.0814.1566-.0072-.039-.0347-.0918-.0637-.1217l-.0512-.0528-.4428-.0051c-.5474-.0062-.5066-.0293-.5066.2849v.2174l.3355-.0052.3356-.0052.0548-.0485c.0301-.0267.0572-.0638.0603-.0826.0222-.1384.051-.0274.051.1968 0 .2545-.0117.29-.059.179-.0473-.1112-.0998-.1262-.4643-.1328l-.314-.0056v.2434c0 .3605-.018.3468.46.3468.4639 0 .6158-.0535.703-.2475.0212-.0474.075-.0777.0744-.042-.0014.0809-.1312.3649-.1735.3798-.0468.0166-1.6098.0122-1.6098-.0045zm5.0593-.0009c0-.0087.0376-.021.0836-.0273.046-.0063.1053-.0288.132-.05l.0483-.0383.0056-.5823.0056-.5823-.2818.006c-.3304.007-.3524.0156-.4374.1712-.0717.1313-.0876.1018-.0598-.1108.0269-.206.0276-.2072.1052-.1823.077.0248 1.54.0261 1.6102.0014.0655-.023.0634-.027.0895.1801.0272.2156.0125.2445-.0574.1125-.082-.1551-.1033-.1635-.4348-.1717l-.2825-.007.0052.5826.0052.5825.0484.0384c.0266.021.086.0435.132.05.1904.0263.0674.043-.3169.043-.2373 0-.4004-.0064-.4004-.0158zm1.5651.0009c0-.0082.0307-.0199.0683-.0259.2093-.0336.2047-.019.2047-.6558 0-.6367.0046-.6222-.2047-.6557-.188-.0302-.0063-.0408.6971-.0408.508 0 .7929-.0063.847-.019.1042-.0242.101-.0299.0793.146-.0303.2455-.056.295-.0814.1566-.0072-.039-.0347-.0918-.0637-.1217l-.0512-.0528-.4428-.0051c-.5474-.0062-.5066-.0293-.5066.2849v.2174l.3355-.0052.3356-.0052.0548-.0485c.0301-.0267.0572-.0638.0603-.0826.0222-.1384.051-.0274.051.1968 0 .2545-.0117.29-.059.179-.0473-.1112-.0998-.1262-.4643-.1328l-.3139-.0056v.2434c0 .3605-.0181.3468.4599.3468.464 0 .6158-.0535.703-.2475.0212-.0474.075-.0777.0744-.042-.0014.0809-.1312.3649-.1735.3798-.0468.0166-1.6098.0122-1.6098-.0045z" style="fill:#000;stroke-width:1.06262" transform="translate(.4872 3.7991)"/>
</svg>
