<svg xmlns="http://www.w3.org/2000/svg" xml:space="preserve" viewBox="0 0 52.917 33.073">
  <path d="M25.59 5.107a.461.461 0 0 0-.1.003c-.194.022-.538.131-1.074.312-1.655.555-1.298.342-10.948 6.53-11.638 7.465-11.21 7.111-10.58 8.77.176.464.339.384.66-.326.567-1.254 4.32-4.403 8.125-6.816l.697-.442 3.68.09c5.304.13 5.3.126 4.645 3.114-.616 2.813-.596 2.833 2.289 2.27 2.192-.428 2.795-.694 1.304-.576-2.132.17-2.171-.165-.718-6.215 1.03-4.29 1.317-5.242 1.814-6.027.288-.453.399-.666.207-.687zm-2.548 1.39c.096.095-1.551 6.318-1.697 6.41a.51.51 0 0 1-.278.083c-.067-.01-1.162-.058-2.432-.109-3.494-.138-5.045-.248-5.045-.358 0-.298 9.27-6.209 9.452-6.027zm11.4 3.197c-.158.009-.372.079-.665.154-1.06.273-1.266.424-.724.533.655.13.718.252.718 1.376v1.025l-.577-.098c-3.627-.62-5.854 2.722-2.539 3.808.66.216 1.813.135 2.531-.178l.57-.249.039.266c.041.291.112.3 1.344.15.748-.09.91-.258.365-.378a8.25 8.25 0 0 1-.487-.12c-.116-.036-.152-.772-.152-3.144 0-2.638.047-3.17-.424-3.145zm-7.418.095-.486.022c-1.067.048-1.91.543-1.064.624l.395.038v5.582l-.304.139c-.167.076-.304.184-.304.24 0 .056.657.102 1.46.102 1.53 0 1.803-.11.941-.383l-.517-.164-.06-3.1zm11.33.947c-.431-.017-.701.357-.326.756.156.167.331.303.389.303.562 0 .839-.613.404-.898a.927.927 0 0 0-.467-.16zm.267 1.81c-.162.015-.392.09-.721.182-.747.207-.877.404-.35.528.486.114.517 2.534.037 2.978l-.325.302h1.416c1.466 0 1.792-.113.899-.31l-.517-.115-.034-1.793c-.023-1.27 0-1.7-.265-1.766a.423.423 0 0 0-.14-.006zm5.271.026c-.499-.004-1.02.112-1.516.355-1.859.913-1.675 2.832.339 3.55.932.332 2.259.149 3.214-.444.542-.335.298-.43-.45-.176-1.347.46-2.626.077-3.157-.943-.339-.651-.237-.687 1.894-.687 2.156 0 2.248-.036 1.76-.676-.482-.633-1.252-.972-2.084-.979zm-11.834.32c.777-.03 1.52.213 1.655.752.182.726.01 1.947-.306 2.17-1.457 1.022-3.933-.546-3.207-2.031.27-.555 1.081-.86 1.858-.89zm11.524.06c.645.007 1.314.272 1.314.68 0 .132-.288.177-1.307.203-1.441.038-1.577-.042-.993-.59.22-.208.6-.297.986-.293zm-22.115 7.576a.055.055 0 0 0-.018.013.151.151 0 0 0 .011-.006l.007-.008zm.1.019a.107.107 0 0 0 .013.015l-.001-.004-.013-.011zm13.917.254v.003a.341.341 0 0 0 .011.018c-.003-.007-.006-.015-.01-.021zm-8.818.02.004.002c-.004-.002-.006-.003.002-.002h-.006z" style="fill:#16979b;fill-opacity:1" transform="translate(.487 3.8)"/>
  <path d="M45.364 4.229c-.115.01-.28.081-.481.22-.81.56-1.087.86-1.37 1.483-.152.334-.355.758-.451.943-.096.185-.143.438-.103.563.047.147.002.254-.128.304-.142.054-.184.181-.146.44.03.2.008.363-.047.363-.17 0-.11.448.082.608.1.083.183.268.185.41.001.162.186.388.493.606.62.438.763.341.181-.122-.566-.452-.554-.59.022-.262.412.234.391.2-.212-.356-.368-.338-.627-.658-.575-.712.052-.053.178.023.28.17.103.146.245.266.316.266.071 0-.014-.188-.19-.418-.306-.402-.418-.797-.224-.797.051 0 .192.15.313.333.217.33.218.33.137.031-.095-.349-.202-1.216-.128-1.033.027.067.083.272.123.456.04.184.126.334.19.334.073 0 .073-.115-.002-.312-.152-.4-.15-1.396.003-1.633.083-.129.122.049.134.608.018.924.065.786.173-.517.091-1.1.294-1.257.316-.244l.016.7.108-.847c.06-.466.16-.9.223-.963.072-.072.087.059.04.35-.055.335-.036.44.065.378.078-.048.14-.215.14-.37s.113-.413.25-.57l.25-.288-.14.29c-.093.19-.114.586-.061 1.154.08.852.074.876-.352 1.473-.595.835-.525 1.553.216 2.236.32.296.356.298 1.418.073.332-.07.782.157.522.263-.081.033-.265.249-.408.48-.43.696-1.078.956-2.387.958-1.1.003-1.359.113-.523.224 1.262.168 2.575-.232 3.063-.93.39-.561.513-.607.6-.23l.077.33.014-.334c.01-.21.083-.334.197-.334.1 0 .183-.054.183-.121a.122.122 0 0 0-.122-.122c-.206 0-.138-.195.296-.839.23-.34.37-.62.314-.62-.165 0-.725.723-.804 1.038-.07.277-.086.281-.37.095-.248-.162-.376-.172-.762-.056-1.394.417-2.36-.953-1.4-1.987.454-.49.551-.846.464-1.698-.051-.501-.028-.85.07-1.033.158-.296.105-.449-.088-.432zm-5.78 1.197a.06.06 0 0 0-.028.003c-.234.09-.23.37.009.568.135.112.148.18.047.243-.159.098.057.88.337 1.22.086.106.157.313.157.46s.086.301.192.342c.105.04.24.203.301.361.06.159.304.381.542.494.237.114.406.272.375.353-.08.211.298.512.978.778.644.252 1.339.338.773.096-1.005-.43-1.615-.754-1.493-.795.076-.025.32.042.543.15l.403.196-.303-.262c-.167-.144-.563-.394-.881-.555-.318-.162-.579-.321-.579-.355 0-.034.17.025.376.132.684.353.487.107-.331-.415-.443-.282-.774-.543-.736-.581.038-.038.223.038.41.17.612.428 1 .566.527.187a15.95 15.95 0 0 1-.851-.748l-.428-.408.483.378c.77.601.788.438.027-.24-.381-.34-.693-.676-.693-.748 0-.072.11-.032.244.09.341.308.302.1-.074-.392-.574-.753-.24-.637.426.148.393.462 1.829 1.756 1.958 1.763.033.002-.53-.605-1.25-1.348-.809-.834-1.305-1.271-1.462-1.285zm9.146 2.15c-.226-.017-.357.152-.357.483 0 .18.878.107.94-.08.024-.077-.122-.223-.326-.325a.7.7 0 0 0-.257-.079zm-.944.282a.228.228 0 0 0-.046.003c-.185.031-.38.276-.272.452.072.116.12.096.189-.08.057-.147.095-.169.1-.059.006.137.04.144.154.03.114-.113.113-.177 0-.292a.18.18 0 0 0-.125-.054zm1.127.468a.602.602 0 0 0-.259.084c-.207.12-.206.128.023.133.202.005.212.026.061.124-.159.102-.157.118.016.12a.522.522 0 0 0 .347-.18c.124-.149.043-.261-.113-.28a.42.42 0 0 0-.075 0zm-1.638.223a.236.236 0 0 0-.071.003.199.199 0 0 0-.166.206c.002.182.02.186.12.03.098-.152.118-.143.12.055 0 .174.037.201.137.102.074-.075.098-.195.053-.267a.263.263 0 0 0-.193-.128zm.993.361c-.135 0-.279.055-.32.122-.041.066.024.122.145.123.188.002.193.02.037.128-.15.105-.14.12.06.088.333-.053.402-.46.078-.46zm-4.857 1.754c-.016-.032-.397.226-1.137.789-1 .76-1.828 1.229-1.104.625.362-.302.351-.45-.015-.21-.158.103-.48.178-.713.165l-.425-.023.3-.28c.167-.155.693-.438 1.17-.632 1.11-.45.817-.458-.59-.016-.412.13-.748.31-.973.488-.023.045-.042.087-.07.135a2.82 2.82 0 0 1-.217.338l.012.031c.05.073.174.119.384.119.148 0 .376.08.505.178.41.31.654.21 1.818-.755.722-.598 1.071-.92 1.055-.952z" style="fill:#000" transform="translate(.487 3.8)"/>
  <path d="M7.896 21.199c-.631-.129-.936-.528-.724-.946.192-.378.955-.575 1.589-.41.1.027.209.048.241.047h.06v.217c0 .236-.016.267-.066.13-.188-.523-1.297-.48-1.512.058-.308.772 1.11 1.213 1.57.488.08-.125.092-.065.025.121-.103.286-.156.31-.691.32-.28.005-.363.001-.492-.025zm2.293.007c-1.191-.246-.896-1.416.358-1.418 1.47-.002 1.503 1.403.034 1.436a1.83 1.83 0 0 1-.392-.018zm.677-.092c.723-.206.572-1.154-.199-1.243-.546-.063-.922.212-.892.652.033.475.538.748 1.091.59zm1.849.09c-.189-.041-.345-.132-.43-.249-.108-.146-.118-.19-.129-.592l-.01-.372-.053-.051c-.04-.038-.082-.056-.16-.07-.197-.036-.107-.05.35-.05.423 0 .57.017.386.043-.42.06-.336 1.048.101 1.201.584.204.932-.066.932-.722 0-.416-.014-.444-.241-.479-.17-.025-.047-.042.314-.042.359 0 .486.017.314.042-.217.031-.23.058-.243.495-.021.712-.416 1.007-1.131.847zm3.47-.038a93.899 93.899 0 0 1-.745-.577l-.655-.511-.006.455c-.007.588 0 .612.201.638.191.025.074.043-.277.043-.23 0-.364-.006-.364-.017 0-.009.018-.017.04-.017.24 0 .25-.03.251-.673 0-.622.006-.603-.183-.637-.177-.032-.125-.05.154-.05h.263l.088.063c.048.034.325.247.615.474l.579.452.05.04-.005-.448-.005-.449-.048-.038a.309.309 0 0 0-.14-.05c-.204-.024-.086-.043.27-.043.352 0 .465.017.28.043a.29.29 0 0 0-.141.058l-.057.047-.01.627c-.01.712-.002.684-.156.57zm1.202.046a3.3 3.3 0 0 1-.218-.05c-.086-.024-.129-.03-.133-.017-.012.033-.057.02-.066-.02a3.842 3.842 0 0 1-.047-.358c0-.063.033-.046.077.04.137.268.662.408 1.09.29.247-.067.326-.286.146-.398-.094-.058-.116-.063-.701-.147-.464-.067-.658-.271-.502-.527.121-.199.622-.299 1.056-.21.085.016.188.03.23.03.092 0 .09-.004.107.207.014.174-.005.2-.061.084-.175-.365-1.307-.318-1.142.048.043.095.192.141.646.2.577.075.81.288.635.58-.127.211-.666.33-1.117.248zm8.479-.046a93.899 93.899 0 0 1-.744-.577l-.655-.511-.006.455c-.007.588 0 .612.201.638.19.025.074.043-.277.043-.23 0-.364-.006-.364-.017 0-.009.018-.017.04-.017.24 0 .25-.03.25-.673 0-.622.006-.603-.182-.637-.177-.032-.125-.05.154-.05h.263l.087.063c.049.034.326.247.616.474l.578.452.052.04-.006-.448-.005-.449-.048-.038a.309.309 0 0 0-.141-.05c-.203-.024-.085-.043.27-.043.353 0 .466.017.28.043a.29.29 0 0 0-.14.058l-.057.047-.01.627c-.01.712-.002.684-.156.57zm1.594.054c-1.113-.162-1.258-1.12-.209-1.385.217-.055.728-.055.967 0 .091.02.19.036.218.033l.052-.005.006.214c.005.229-.009.26-.06.136-.2-.483-1.272-.454-1.504.04-.275.588.645 1.179 1.272.816.119-.069.039-.413-.101-.435-.25-.039-.162-.058.268-.058.434 0 .534.02.29.058-.111.017-.133.056-.144.256-.01.203-.033.234-.209.283-.179.05-.646.076-.846.047zm3.04-.021c-.632-.129-.938-.528-.725-.946.192-.378.955-.575 1.589-.41.1.027.209.048.241.047h.06v.217c0 .236-.016.267-.066.13-.188-.523-1.297-.48-1.512.058-.308.772 1.11 1.214 1.57.488.08-.125.092-.065.025.121-.103.285-.156.31-.691.32-.28.005-.363.001-.492-.025zm5.412-.033a93.899 93.899 0 0 1-.744-.577l-.656-.511-.005.455c-.007.588 0 .612.201.638.19.025.074.043-.278.043-.23 0-.364-.006-.364-.017 0-.009.019-.017.041-.017.24 0 .25-.03.25-.673 0-.622.006-.603-.182-.637-.177-.032-.125-.05.154-.05h.263l.087.063c.049.034.326.247.616.474l.578.452.052.04-.006-.448-.005-.449-.048-.038a.31.31 0 0 0-.141-.05c-.203-.024-.085-.043.27-.043.353 0 .466.017.28.043a.29.29 0 0 0-.14.058l-.057.047-.01.627c-.01.712-.002.684-.156.57zm6.426.025c-.108-.048-.197-.131-.369-.346-.19-.238-.166-.226-.452-.232l-.244-.006v.203c0 .278.038.353.176.354.07 0 .134.017.134.035 0 .008-.204.015-.455.015-.431 0-.578-.017-.369-.042.234-.028.232-.023.232-.637 0-.605-.017-.663-.194-.664-.065 0-.125-.019-.114-.035.018-.026 1.291-.018 1.43.01.527.102.552.602.036.73-.067.016-.074.022-.05.04.017.01.11.116.207.235.209.255.285.312.436.327.173.018.114.044-.108.049-.184.004-.214 0-.296-.036zm-.323-.706c.403-.155.235-.55-.245-.574-.487-.026-.497-.02-.497.341v.278l.332-.008c.262-.006.349-.014.41-.037zm-23.145.714c0-.008.031-.02.069-.026.209-.033.204-.019.204-.655 0-.637.005-.623-.204-.656-.188-.03-.007-.041.697-.041.508 0 .793-.006.847-.019.104-.024.1-.03.08.146-.031.246-.057.295-.082.157a.272.272 0 0 0-.064-.122l-.051-.053-.443-.005c-.548-.006-.507-.03-.507.285v.217l.336-.005.335-.005.055-.049c.03-.026.057-.063.06-.082.023-.139.051-.028.051.197 0 .254-.011.29-.058.179-.048-.112-.1-.127-.465-.133l-.314-.006v.244c0 .36-.018.346.46.346.464 0 .616-.053.703-.247.021-.047.075-.078.075-.042-.002.08-.132.365-.174.38-.047.016-1.61.012-1.61-.005zm2.057 0c0-.02.046-.035.1-.035.157 0 .191-.117.19-.658 0-.555-.013-.602-.178-.627-.28-.041-.19-.058.306-.058.428 0 .565.015.387.043-.258.04-.25.02-.25.65v.518l.053.042.052.042.366-.006c.47-.006.55-.04.682-.278.086-.154.096-.08.022.153-.081.254.018.23-.923.23-.461 0-.807-.007-.807-.016zm2.002 0c0-.008.033-.02.074-.025.204-.03.198-.01.198-.66 0-.633.005-.619-.204-.652-.162-.026-.041-.041.332-.041.255 0 .4.006.4.017 0 .009-.01.017-.022.017-.226 0-.232.018-.232.663 0 .644.006.661.23.662.013 0 .027.008.034.017.007.011-.13.017-.4.017-.226 0-.41-.006-.41-.015zm9.1 0c0-.008.03-.02.067-.026.21-.033.205-.019.205-.655 0-.637.005-.623-.205-.656-.187-.03-.006-.041.698-.041.508 0 .792-.006.847-.019.104-.024.1-.03.079.146-.03.246-.056.295-.081.157a.272.272 0 0 0-.064-.122l-.051-.053-.443-.005c-.548-.006-.507-.03-.507.285v.217l.336-.005.335-.005.055-.049c.03-.026.057-.063.06-.082.023-.139.051-.028.051.197 0 .254-.011.29-.059.179-.047-.112-.1-.127-.464-.133l-.314-.006v.244c0 .36-.018.346.46.346.464 0 .616-.053.703-.247.021-.047.075-.078.075-.042-.002.08-.132.365-.174.38-.047.016-1.61.012-1.61-.005zm5.058 0c0-.01.038-.022.084-.028a.322.322 0 0 0 .132-.05l.048-.038.006-.583.006-.582-.282.006c-.33.007-.353.016-.438.171-.071.132-.087.102-.06-.11.027-.206.028-.208.106-.183.077.025 1.54.026 1.61.002.066-.023.063-.027.09.18.027.215.012.244-.058.112-.082-.155-.103-.163-.435-.172l-.282-.007.005.583.005.583.049.038a.327.327 0 0 0 .132.05c.19.026.067.043-.317.043-.238 0-.4-.006-.4-.016zm1.566 0c0-.008.03-.02.068-.026.21-.033.205-.019.205-.655 0-.637.004-.623-.205-.656-.188-.03-.006-.041.697-.041.508 0 .793-.006.847-.019.104-.024.101-.03.08.146-.031.246-.057.295-.082.157a.272.272 0 0 0-.064-.122l-.051-.053-.443-.005c-.547-.006-.506-.03-.506.285v.217l.335-.005.336-.005.055-.049c.03-.026.057-.063.06-.082.022-.139.05-.028.05.197 0 .254-.01.29-.058.179-.047-.112-.1-.127-.464-.133l-.314-.006v.244c0 .36-.018.346.46.346.464 0 .615-.053.703-.247.02-.047.075-.078.074-.042-.001.08-.131.365-.174.38-.046.016-1.61.012-1.61-.005z" style="fill:#000;stroke-width:1.06262" transform="translate(.487 3.8)"/>
</svg>
