<svg xmlns="http://www.w3.org/2000/svg" xml:space="preserve" viewBox="0 0 132.292 37.042">
  <path d="M-136.468 42.243c-.3 0-.472.118-.383.262.155.252-20.713 21.543-25.66 26.182-1.312 1.229-4.349 4.199-6.75 6.6-2.4 2.4-4.444 4.345-4.54 4.321-.138-.034-.132 1.988.008 2.256.071.137.552.058 1.241-.204.392-.15 2.692-2.204 5.111-4.566 2.419-2.363 5.291-5.017 6.384-5.898 1.092-.88 3.224-2.963 4.738-4.627 1.514-1.665 4.97-5.29 7.68-8.054a826.3 826.3 0 0 0 8.635-8.95l3.706-3.924 3.032 2.704a259.252 259.252 0 0 1 4.751 4.342c.946.9 2.62 2.3 3.72 3.11 2.567 1.891 5.934 5.06 7.412 6.977.637.826 2.233 2.355 3.546 3.398 2.907 2.308 3.598 2.709 1.936 1.123-.685-.653-1.399-1.24-1.587-1.303-.27-.09-.259-.222.055-.62.363-.464.359-.478-.05-.158-.536.42-1.07.181-2.16-.963-.565-.594-.706-.938-.566-1.379.12-.376.088-.526-.086-.418-.15.092-4.525-4.239-9.721-9.625-5.197-5.386-9.552-9.792-9.678-9.792-.126 0-.229-.179-.229-.397 0-.224-.237-.397-.545-.397zm-.073.934c.017 0 .034.001.05.003.033.004.052.04.078.06l.03.034c.178.12.549.45 1.005.873l.019.012c.032.02.065.042.093.07l.02.021c.013.015.024.03.033.047 2.289 2.153 7.059 7.052 10.117 10.46 1.05 1.171.484.821-1.519-.938-7.465-6.556-9.225-8.135-9.27-8.731l-.087.06c-.089.06-.18.113-.274.163.048-.032-9.373 9.066-13.552 13.374-9.987 10.29-12.03 12.335-16.884 16.896-5.426 5.098-6.657 6.153-6.9 5.91-.09-.09-.079-.295.024-.457.103-.161.19-.413.191-.558l.007-.506.407-.408s1.652-1.481 4.951-4.652c2.72-2.614 9.955-9.783 16.077-15.932 6.095-6.12 14.57-14.645 14.717-14.723l.023-.03c.015-.021.032-.04.045-.063.02-.036.04-.072.062-.107.033-.055.073-.107.112-.16a.821.821 0 0 0 .062-.087c.014-.02.022-.045.03-.069a2.27 2.27 0 0 0 .081-.284.963.963 0 0 1 .033-.126c.015-.041.033-.104.074-.121a.399.399 0 0 1 .145-.03zm.061.554c0 .004-.002.008-.004.012l.01-.004-.007-.008zm33.954 2.87-.89 1.132c-2.175 2.762-4.783 5.727-7.086 8.055-3.602 3.643-4.115 4.237-3.654 4.237.217 0 .454-.231.528-.514.074-.283.711-.908 1.415-1.39.705-.48 2.771-2.303 4.593-4.05 1.822-1.747 3.713-3.462 4.203-3.81l.891-.635 2.108 2.204c1.16 1.212 3.374 3.64 4.92 5.398a326.431 326.431 0 0 0 4.775 5.303c1.079 1.16 2.919 3.29 4.088 4.734 1.169 1.443 3.015 3.501 4.104 4.572 1.088 1.07 2.144 1.947 2.346 1.947.203 0 .47-.268.593-.596.297-.79-.18-1.693-2.205-4.167a113.68 113.68 0 0 1-2.792-3.561c-1.35-1.824-3.9-4.544-12.069-12.874zm-.273.847s2.094 1.867 4.496 4.306c4.22 4.285 5.547 5.68 10.26 10.785 2.954 3.2 8.21 9.929 8.21 10.512 0 .561-.104.585-.495.113-3.017-3.634-3.31-2.826-6.173-6.744-.603-.825-2.593-3.088-4.424-5.029-1.83-1.94-3.905-4.203-4.609-5.027-.703-.824-2.529-2.772-4.056-4.328-2.548-2.597-2.83-2.809-3.434-2.58-.361.138-1.548 1.64-1.664 1.355-.284-.284-.158-.59 0-.885zm-46.354.48-3.506.218c-4.629.288-5.352.485-5.766 1.575-.36.95-.7 12.394-.403 13.579.097.386.218.658.27.604.076-.08.656-10.357.774-13.724l.032-.926 3.44-.188c1.891-.103 3.639-.238 3.883-.3.248-.064.402.02.35.188-.05.165-.168 1.58-.262 3.145-.14 2.338-.105 2.844.199 2.844.526 0 .989-2.269.989-4.85zm4.28 14.305c-.649.002-1.077.007-1.077.007v2.017l.24.023.026-1.676c1.73.195 4.465.236 5.236.147l1.561-.181.179 2.47c.098 1.359.14 3.304.092 4.322l-.086 1.852-2.513.08c-1.383.044-2.901.01-3.374-.078-.835-.153-.86-.197-.886-1.535-.049-2.54-.448-2.88-.477-.406-.018 1.608.073 2.332.305 2.426.182.073 1.983.143 4.003.154l3.671.021-.118-4.532c-.095-3.664-.195-4.589-.522-4.828-.366-.268-4.31-.29-6.26-.283zm9.504.118-.079 4.3c-.043 2.364-.036 4.448.016 4.63.07.246 1.139.33 4.183.33 2.658 0 4.03-.092 3.925-.264-.097-.157-1.737-.264-4.026-.264h-3.86l.17-2.977c.095-1.637.173-3.483.173-4.101l.001-1.125h6.948l-.185 2.117c-.11 1.265-.085 2.117.062 2.117.28 0 .584-1.88.584-3.609v-1.154h-3.956zm33.992 1.312c-1.477.02-3.061.246-3.061.604 0 .148.26.186.595.087 1.284-.378 3.561-.474 4.123-.174.528.283.573.511.573 2.915 0 2.926-.002 2.93-1.988 2.93-1.629 0-2.506-.388-2.528-1.119a3.597 3.597 0 0 0-.255-1.13c-.167-.377-.22-.11-.18.925l.056 1.455 1.853.133c1.018.073 2.239.09 2.711.037.85-.094.861-.114.92-1.588.097-2.41-.051-4.338-.363-4.713-.223-.269-1.307-.378-2.456-.362zm-6.969 6.439c-.026 0-.043.024-.046.073-.009.156.41.78.932 1.39.52.607 1.009 1.105 1.085 1.105.077 0-.2-.398-.616-.885-.415-.487-.897-1.112-1.07-1.39-.12-.19-.226-.296-.285-.293zm-52.16 10.359c-1.708-.03-7.522.425-8.028.671-1.079.525-.882.87.231.405.673-.282 1.894-.4 4.101-.4h3.143l-.012 5.225c-.006 2.874-.12 7.19-.253 9.591-.134 2.401-.326 8.572-.429 13.712l-.186 9.347.885-.086c1.077-.105 1.173-.381 1.434-4.142.103-1.483.297-3.081.432-3.552.332-1.157.308-17.566-.03-21.364-.15-1.674-.38-4.455-.513-6.181-.132-1.726-.277-3.157-.321-3.181-.05-.026-.21-.04-.453-.045zm256.304 2.597-1.454.338c-4.477 1.04-7.324 4.076-8.05 8.583-.3 1.868-.191 3.149.44 5.164.902 2.878 2.746 4.77 5.64 5.782.646.226 1.689.417 2.317.424 1.092.012 1.138-.02 1.058-.715-.052-.454-.31-.828-.687-.993-1.02-.446-1.166-1.64-1.072-8.8l.088-6.685.86-.804c.577-.538.86-1.048.86-1.548zm7.504.375c-.104 0-.217.008-.336.025-.6.089-.818.26-.818.648 0 .396-.116.482-.463.344-1.094-.433-4.134-.939-4.35-.723-.426.426.09 1.097 1.312 1.704 1.36.676 2.46 2.03 3.135 3.862.25.68.636 1.45.857 1.71.221.26.589.437.816.394.346-.067.425-.674.487-3.768.04-2.029.022-3.824-.042-3.99-.05-.13-.284-.205-.598-.206zm29.538.005-2.422.172a77.402 77.402 0 0 1-4.498.172c-2.278 0-2.665.325-1.307 1.097.733.417.773.539.952 2.924.217 2.905.024 13.298-.263 14.169-.109.328-.414.595-.68.595-.265 0-.556.12-.646.265-.09.145-.394.264-.677.264-.48 0-.514-.21-.514-3.307 0-1.819-.1-3.307-.223-3.307-.326 0-.967.79-1.504 1.852-.728 1.442-2.246 3.167-2.94 3.34-.347.088-.873.5-1.171.918l-.541.76 6.563.073c3.61.04 6.722.042 6.916.005.194-.038.938-.069 1.653-.069h1.302v-9.96zm-161.925.008-4.432.193c-2.438.106-4.49.25-4.563.32-.072.07.255.446.726.835l.856.707.068 7.673c.07 7.857-.047 9.293-.732 9.03-.324-.124-.92.522-.92.998 0 .078 1.28.175 2.845.216 1.564.041 3.38.05 4.035.02.655-.03 1.399-.058 1.654-.065.432-.011.463-.667.463-9.97zm-41.54.056-3.638.074-3.638.073-.07 8.945-.07 8.945-.922.385c-.615.257-.922.561-.922.911 0 .508.189.526 5.697.526 5.606 0 5.694-.008 5.417-.526-.155-.29-.636-.71-1.068-.933l-.786-.407V92.5zm178.567.004c-1.293.02-1.296.154-1.296.51 0 .344.25.685.628.857.842.384.979 1.846.95 10.146l-.022 6.493-.778.402c-.428.221-.778.45-.778.507 0 .057-.073.291-.16.522-.144.371.352.418 4.43.419h4.593l-.082-7.078c-.046-3.893-.005-7.951.09-9.019.164-1.827.218-1.956.922-2.201.707-.246 1.228-.933.932-1.229-.075-.074-2.518-.192-5.43-.262-1.983-.048-3.223-.078-4-.066zm-118.866.011c-3.758 0-6.784.316-6.784.708 0 .2.279.47.62.6.59.224.627.388.792 3.631.26 5.112.207 11.736-.103 12.855-.199.713-.42.992-.793.992-.284 0-.516.05-.516.11 0 .061-.074.302-.163.535-.147.382.385.417 5.358.353 4.699-.061 5.52-.131 5.52-.47 0-.22-.412-.53-.926-.695l-.926-.3-.07-9.16-.069-9.159zm-56.261.001c-2.064 0-2.117.016-2.117.642 0 .352.28.977.624 1.389.762.912 1.356 2.07 1.606 3.129.103.436.36 1.061.572 1.389.449.693 1.04.775 1.27.176.089-.23.161-1.837.161-3.571v-3.154zm204.796.002c-1.599-.008-3.197.07-3.302.241-.36.583.378 1.588 1.363 1.857 1.658.454 2.612 1.205 3.265 2.57.337.706.74 1.371.896 1.478.731.503.881.122 1.064-2.698.103-1.596.112-3.024.019-3.175-.106-.172-1.706-.265-3.305-.273zm-193.188.008c-2.779-.009-6.32.093-6.588.259-.296.183-.226.361.348.893l.717.665-.004 8.149c-.002 4.481-.108 8.312-.235 8.513-.127.2-.35.29-.497.2-.25-.155-.587.369-.587.912 0 .14 2.216.243 5.192.243 4.907 0 5.172-.026 4.829-.463-.2-.255-.47-.54-.6-.634-.467-.339-.658-2.838-.654-8.56.004-7.164.156-8.424 1.116-9.25.612-.525.65-.635.27-.781-.248-.095-1.64-.14-3.307-.146zm210.52.005c-2.163-.022-4.411.298-4.563.695-.084.218.46 2.856 1.208 5.863.749 3.006 1.361 5.644 1.36 5.863 0 .306-.354.398-1.558.405-1.659.01-2.41.388-2.41 1.215 0 .43.223.5 1.653.528 2.913.055 3.207.19 3.48 1.598.21 1.092.16 1.365-.455 2.412-.38.65-.645 1.226-.589 1.282.057.055 2.404.1 5.217.1 4.407 0 5.101-.054 5.026-.397-.048-.218-.242-.575-.431-.793-.946-1.09-1.74-3.6-4.189-13.23l-1.378-5.423-1.456-.087c-.299-.018-.606-.028-.915-.03zm-161.953 0c-.561.005-.644.114-.644.376 0 .256.417.846.926 1.313l.926.848v2.966c0 2.594-.058 2.984-.463 3.109-1.335.412-1.736 1.118-.988 1.734 1.461 1.205 1.451 1.18 1.452 3.596.003 3.806.788 5.454 2.982 6.257 1.41.516 2.817.378 4.387-.43 1.209-.622 2.526-2.146 2.334-2.7-.097-.279-.757-.317-2.007-.119-.622.099-.636.06-.577-1.557.099-2.674-.276-3.415-2.188-4.32-.893-.422-1.833-.768-2.088-.768-.903 0-.445-.471.753-.773.668-.168 1.508-.498 1.867-.733 1.572-1.03 2.15-3.944 1.166-5.873-.887-1.738-2.651-2.54-6.225-2.83-.767-.062-1.276-.098-1.613-.095zm178.501.006c-.794 0-1.805.044-3.118.11-3.78.189-4.322.37-3.106 1.04 2.05 1.13 2.378 1.542 6.127 7.693 3.338 5.476 6.2 10.017 6.621 10.502.214.247.644.485.956.53.312.044.865.06 1.229.036a44.07 44.07 0 0 1 1.521-.066l.86-.022v-2.986c0-3.495.223-2.956-3.837-9.317-1.58-2.474-3.237-5.113-3.684-5.866-.76-1.282-1.188-1.657-3.569-1.654zm-253.808.004a5.574 5.574 0 0 0-.461.021l-.909.088.07 3.14c.037 1.727.131 3.305.208 3.506.077.2.35.365.606.365.332 0 .634-.474 1.053-1.653.322-.91.977-2.25 1.454-2.977 1.39-2.118 1.383-2.188-.2-2.386-.567-.07-1.286-.11-1.821-.104zm-37.194.004c-2.515-.004-7.3.378-7.395.668-.054.165.185.37.532.457 1.576.396 1.924.866 8.655 11.68 2.083 3.346 4.032 6.358 4.33 6.69.502.561.682.593 2.405.43 1.024-.098 1.906-.217 1.96-.264.054-.047.078-1.43.053-3.074-.037-2.352-.15-3.158-.525-3.783a596.257 596.257 0 0 0-3.6-5.688c-1.718-2.692-3.372-5.34-3.676-5.885-.415-.745-.773-1.032-1.446-1.16-.253-.048-.713-.07-1.293-.071zm-18.856.003c-2.483-.03-2.902.143-2.902.856 0 .499 2.285 9.978 2.798 11.606.128.408-.03.439-1.532.298-1.79-.167-2.105-.014-2.393 1.166-.143.581-.096.595 2.092.595h2.237l.384.918c.57 1.366.482 2.336-.278 3.05-.364.342-.662.78-.662.973 0 .28 1.048.351 5.138.351h5.138l-.773-1.547c-.718-1.437-2.158-6.401-4.272-14.725l-.874-3.44-2.906-.077c-.444-.012-.84-.02-1.195-.024zm112.59.016c-1.236.008-1.985.077-1.985.193 0 .786.583 1.616 1.247 1.775 1.785.428 3.04 1.447 3.708 3.013.218.51.531 1.015.697 1.124.165.109.48.167.698.129.325-.057.396-.615.396-3.109v-3.039l-3.373-.074c-.51-.011-.977-.015-1.389-.012zm87.11.05c-2.876-.02-5.285.055-5.354.166-.069.112.248.664.704 1.227 1.276 1.574 4.98 9.432 5.268 11.175.136.82.17 2.36.076 3.421-.158 1.78-.23 1.961-.927 2.322-.416.215-.756.438-.756.495 0 .057-.073.292-.161.522-.143.374.452.419 5.556.419 4.87 0 5.717-.058 5.717-.392 0-.215-.467-.63-1.038-.921l-1.04-.53-.085-3.775-.086-3.775-1.918-3.837c-1.055-2.11-1.918-3.948-1.918-4.084 0-.136.228-.493.506-.793.279-.3.547-.785.596-1.076.086-.513-.068-.53-5.14-.565zm-173.71.01a1.056 1.056 0 0 0-.581.17c-.33.224-.214.435.695 1.253 1.52 1.37 1.686 1.813 1.686 4.522 0 2.507.196 3.367.935 4.107.248.248.52.382.603.298.084-.084.12-1.275.08-2.647-.04-1.372.065-3.159.233-3.97.268-1.29.439-1.56 1.345-2.132 1.798-1.136 1.433-1.443-1.72-1.443-1.515 0-2.914-.058-3.108-.13a.534.534 0 0 0-.168-.028zm16.207.025c-.438 0-1.075.13-1.898.394-3.088.993-4.577 2.267-5.868 5.018-.618 1.317-.687 1.777-.681 4.51.005 2.325.117 3.292.475 4.101 1.213 2.74 3.03 4.325 6.096 5.317 1.04.336 2.008.575 2.153.53.396-.121.176-.982-.478-1.878-.559-.765-.583-1.062-.658-8.115l-.078-7.321.806-.824c1.097-1.123 1.095-1.735.131-1.732zm146.06 0-3.353.003c-1.843 0-3.442.092-3.553.203-.274.274.14 2.409 1.472 7.6.616 2.4 1.14 4.48 1.162 4.622.024.15-.628.223-1.562.177-1.693-.084-2.026.092-2.302 1.22-.143.581-.095.595 2.085.595 2.188 0 2.236.014 2.515.727.63 1.608.588 2.54-.141 3.222-1.172 1.096-.925 1.312 1.63 1.42 3.645.157 8.003.075 8.003-.149 0-.112-.285-.648-.633-1.19-.842-1.311-1.239-2.597-3.449-11.174zm-24.072.001c-.22-.001-.376.026-.438.089-.309.315.275 1.363.925 1.66.49.223.675.567.802 1.49.247 1.805.189 13.64-.07 14.048-.123.195-.508.495-.855.667-.44.218-.657.58-.716 1.192-.08.835-.047.872.662.74.41-.078 1.178-.21 1.707-.296.528-.086 1.684-.624 2.568-1.196 2.98-1.926 4.457-5.243 4.204-9.44-.215-3.554-1.85-6.326-4.624-7.835-1.035-.564-3.21-1.113-4.165-1.119zm-3.588.002c-.815.004-1.913.026-3.095.064-3.335.109-4.3.22-4.3.493 0 .194.346.531.769.75.74.383.775.487.951 2.85.224 3.004.049 13.397-.235 14.015-.114.246-.463.484-.777.529-.313.045-.61.29-.658.544-.081.427.27.463 4.43.463h4.516v-9.774c0-5.375-.089-9.826-.198-9.892-.055-.032-.588-.046-1.403-.042zm-70.867.001c-2.463-.02-2.72.12-2.286.553.203.203.477.369.61.369.568 0 .855 1.51.855 4.504v3.156l-.784-.157c-1.167-.234-2.127.084-2.127.704 0 .525.144.569 2.117.649l.661.027v4.356c0 3.684-.06 4.343-.386 4.271-.37-.081-1.069.613-1.069 1.061 0 .118 2.322.214 5.16.214 3.953 0 5.158-.077 5.155-.33-.006-.476-.324-.873-.856-1.07-.41-.15-.464-.592-.474-3.817-.025-7.848.04-12.54.177-12.898.079-.206.4-.411.714-.456.313-.045.606-.273.65-.507.072-.374-.508-.44-4.863-.56a180.472 180.472 0 0 0-3.254-.069zm-44.741.004c-.194-.005-.347.009-.443.046-.608.233-.383 1.078.442 1.666l.794.565-.004 7.192c-.002 3.955-.072 7.445-.155 7.754-.083.31-.438.716-.79.905-.607.325-.865 1.26-.46 1.667h.001c.099.098.366.125.595.06.23-.067.952-.256 1.607-.422 1.712-.434 3.207-1.378 4.551-2.873 1.341-1.491 2.022-3.273 2.247-5.882.36-4.15-1.714-8.124-5.148-9.868-.816-.415-2.399-.79-3.237-.81zm164.654.04c-2.571-.013-2.58.276-1.166 1.62.595.566 1.082 1.2 1.082 1.408 0 .209-.468 1.294-1.04 2.412-.93 1.82-1.012 2.133-.78 2.976.144.519.369.877.5.795.132-.081.919-1.513 1.749-3.18 1.446-2.908 1.907-3.534 3.672-4.984.436-.359.729-.717.65-.797-.08-.079-1.612-.182-3.405-.227-.475-.013-.895-.02-1.262-.023zm110.496.085c-3.853 0-3.828-.021-1.92 1.676l1.142 1.015v2.632c0 2.575.318 3.97 1.13 4.952.261.316.351-.402.457-3.642.129-3.918.152-4.05.794-4.549 1.123-.872 1.852-1.6 1.852-1.847 0-.13-1.555-.237-3.455-.237zM42.003 87.09l-.256.926c-1.003 3.621-3.717 12.322-3.974 12.74-.174.282-.808.801-1.41 1.155-.6.354-1.162.825-1.248 1.048-.134.349.31.403 3.295.403 3.367 0 3.448-.013 3.365-.562-.056-.375-.392-.661-1.01-.86-1.441-.463-1.388-1.164.538-7.068 1.165-3.572 1.421-5.217 1.031-6.605zm107.728.158c-.058-.011-.12.07-.213.24-.121.217-1.075 3.188-2.12 6.6-1.851 6.053-2.56 7.687-3.332 7.687-.432 0-1.437.925-1.437 1.323 0 .162 1.279.264 3.307.264 1.92 0 3.308-.106 3.308-.252 0-.139-.489-.644-1.085-1.124-1.018-.818-1.076-.938-.936-1.93.082-.583.7-2.786 1.375-4.896 1.195-3.74 1.698-6.62 1.324-7.59-.079-.204-.133-.31-.19-.322zm-291.032.077c-.083.038-.326.8-.563 1.773-.535 2.2-2.917 9.98-3.436 11.222-.196.469-.866 1.196-1.489 1.616-.623.42-1.183.918-1.244 1.104-.087.266.592.323 3.152.265 2.788-.064 3.274-.139 3.346-.513.058-.3-.21-.534-.855-.747-1.69-.558-1.684-.92.122-6.437 1.3-3.975 1.643-5.813 1.334-7.15-.13-.557-.288-1.066-.353-1.13-.004-.005-.008-.006-.014-.003zm-18.61.731c.33.04.572 4.61.572 11.204 0 8.63-.866 15.96-.866 15.96-.168 1.61-.553 3.03-1.11 2.915-.653.4.141-7.617.65-19.36.238-5.506.53-10.268.649-10.583.035-.096.07-.14.104-.136zm327.429.225c-.11 0-.276 2.672-.371 5.937-.1 3.418-.298 6.212-.468 6.586-.163.356-.578.8-.924.984-.674.361-1.043 1.13-.761 1.586.11.18.957.235 2.332.152 1.187-.07 2.545-.136 3.018-.146.473-.01.86-.156.86-.324 0-.169-.52-.794-1.157-1.39l-1.158-1.082-.151-4.895c-.11-3.532-.273-5.244-.587-6.151-.24-.692-.525-1.257-.633-1.257zm-291.85.141c-.154.049-.272 2.329-.32 6.182l-.08 6.337-1.125 1.038c-.618.57-1.124 1.115-1.124 1.21 0 .27 6.564.204 6.731-.066.082-.132-.434-.728-1.146-1.324l-1.295-1.084-.106-4.96c-.096-4.473-.163-5.07-.686-6.067-.32-.609-.695-1.177-.835-1.264-.005-.003-.01-.004-.015-.002zm99.771.704c-.35-.01-.78.583-.93 1.375-.12.646-.407 1.008-1.087 1.375-1.413.76-1.45 1.36-.156 2.475.667.574 1.095 1.168 1.092 1.519-.002.317.178.758.4.98.52.52 1.173.271 1.218-.46.109-1.77-.117-6.954-.312-7.158a.316.316 0 0 0-.225-.106zm161.937.007c-.354-.007-.807.548-.968 1.28-.093.425-.488 1.01-.877 1.302-1.713 1.283-1.712 1.278-.31 2.652.582.57 1.058 1.272 1.058 1.558 0 .287.187.708.416.937.5.5.808.526 1.076.092.279-.45.125-7.426-.17-7.721a.32.32 0 0 0-.225-.1zm-33.873 8.144c-.319 0-.813.521-1.38 1.458-.975 1.608-2.36 2.675-3.879 2.988-.818.17-1.005.33-1.075.922-.074.64.002.717.72.717 2.195 0 5.147-2.268 5.804-4.46.417-1.391.39-1.625-.19-1.625zm-124.639.002c-.304-.012-.843.496-1.436 1.422-1.028 1.608-2.212 2.595-3.671 3.063-.85.272-1.52.91-1.52 1.449 0 .082 1.621.15 3.602.15h3.602l-.154-2.58a163.957 163.957 0 0 1-.162-3.043c-.005-.306-.1-.455-.26-.461zm161.803.007c-.367.01-.865.502-1.428 1.442-1.02 1.704-2.131 2.619-3.687 3.033-.619.164-1.125.403-1.125.531s-.07.414-.154.636c-.12.312.1.427.992.515.63.063 1.563.072 2.072.02a30.45 30.45 0 0 1 2.382-.098l1.455-.004.08-2.524c.045-1.388.007-2.757-.084-3.042-.11-.348-.283-.515-.503-.51z" style="fill:#000" transform="translate(64.09 -10.742) scale(.36293404)"/>
  <path d="M-136.614 43.127c-.05.001-.1.012-.145.03-.042.018-.06.08-.074.122a1.014 1.014 0 0 0-.033.127l-.03.126a4.815 4.815 0 0 1-.051.157c-.008.024-.016.048-.03.07a.836.836 0 0 1-.063.086c-.038.053-.078.104-.112.16l-.061.107c-.013.022-.03.042-.045.063l-.023.03c-.148.078-8.622 8.603-14.717 14.723-6.122 6.148-13.357 13.318-16.077 15.932-3.3 3.17-4.952 4.651-4.952 4.651l-.406.409-.007.506c-.002.145-.089.397-.191.558-.103.162-.114.367-.025.457.243.242 1.474-.812 6.9-5.91 4.854-4.56 6.897-6.606 16.884-16.896 4.18-4.308 13.6-13.406 13.552-13.374.094-.05.186-.104.274-.163l.088-.06c.044.596 1.804 2.175 9.27 8.73 2.003 1.76 2.568 2.11 1.518.94-3.058-3.409-7.828-8.308-10.117-10.462a.324.324 0 0 0-.033-.046l-.02-.022a.586.586 0 0 0-.093-.069l-.02-.012c-.455-.424-.826-.752-1.004-.873l-.03-.035c-.026-.02-.046-.055-.078-.059a.409.409 0 0 0-.05-.003zm.06.554a.054.054 0 0 0 .008.008l-.01.003a.131.131 0 0 0 .002-.01zm33.71 3.755-1.913 2.507c-.16.298-.287.608 0 .895.118.288 1.32-1.231 1.686-1.37.612-.232.897-.018 3.479 2.609 1.547 1.574 3.395 3.544 4.108 4.377.713.833 2.814 3.121 4.668 5.084 1.854 1.963 3.871 4.251 4.481 5.085 2.9 3.963 3.198 3.145 6.253 6.82.397.477.501.454.501-.114 0-.59-5.323-7.394-8.315-10.63-4.775-5.164-6.119-6.574-10.393-10.907-2.433-2.467-4.555-4.356-4.555-4.356zm-57.054 40.56c-.034-.005-.069.04-.105.135-.119.315-.41 5.078-.649 10.583-.508 11.743-.891 12.541-.923 18.855-.19.484.7 1.568 1.184-.968.442-3.357 1.066-8.772 1.066-17.402 0-6.594-.242-11.163-.573-11.204z" style="fill:#889969;fill-opacity:1;fill-rule:evenodd;stroke-width:.264583" transform="translate(64.09 -10.742) scale(.36293404)"/>
</svg>
