<svg xmlns="http://www.w3.org/2000/svg" xml:space="preserve" viewBox="0 0 132.2917 132.2917">
  <path d="M14.1025 125.3881c-2.7273-1.1546-5.3574-3.471-6.3531-5.5954l-.5408-1.1538-.0519-50.7469C7.1133 25.4751 7.15 17.0124 7.38 16.3369c.6144-1.8053 2.775-4.5505 4.702-5.974 1.34-.99 4.3011-2.3024 5.8335-2.5857.8117-.15 15.0553-.2165 46.398-.2165 39.4075 0 45.5104.0395 47.431.3073 2.4328.3392 2.651.3914 3.8185.913 3.7563 1.6785 3.517 1.5146 6.2769 4.3015 2.9956 3.0252 3.9815 4.3747 4.417 6.0468.3544 1.3606.3787 2.174.0955 3.1938-.1769.6367-.4765.9138-2.168 2.005-1.0795.6963-4.8101 3.156-8.2902 5.4657-3.4801 2.3098-6.3525 4.1997-6.383 4.1997-.0305 0-.2646-.5221-.5202-1.1603-.5055-1.262-2.7888-4.2556-4.3526-5.7066-1.2653-1.174-4.1615-3.0892-5.7717-3.8168-2.0332-.9187-3.565-1.2212-6.1846-1.2212-2.758 0-4.22.2247-6.175.9489-3.5358 1.3098-5.8322 2.7698-8.0818 5.138-3.4612 3.6438-5.1732 7.973-5.1732 13.082 0 5.1089 1.712 9.438 5.1732 13.0818 1.7751 1.8688 3.3712 3.0157 5.7936 4.1632 2.8081 1.3302 3.846 1.563 7.4415 1.6695 3.0724.091 3.18.0798 5.347-.5584 5.3865-1.5863 9.7259-5.2658 12.0386-10.2079.3361-.7183.6687-1.2792.7392-1.2465.0704.0327 1.2127.786 2.5383 1.6738 1.3257.8878 3.117 2.0682 3.9806 2.623.8637.555 2.503 1.6362 3.643 2.403 1.14.7666 2.436 1.6376 2.8799 1.9354.444.2979 1.3758.8416 2.071 1.2083l1.2637.6667-.0532 28.5723-.0532 28.5724-.632.908c-.3477.4994-.9556 1.4092-1.351 2.022-.8273 1.2821-4.09 4.676-5.281 5.493-1.7833 1.2238-3.153 1.7537-4.55 1.7604-.7672.004-1.4232-.0953-1.5638-.2358-.1755-.1756-.2421-1.6424-.2421-5.3327 0-4.3587-.0456-5.1361-.317-5.4076-.2825-.2824-1.8885-.3167-14.6794-.3132l-14.3622.004-4.2088 5.6458-4.2089 5.6459-29.5888-.016-29.5888-.0158zm31.3429-13.634c3.3806-1.366 4.6535-2.1437 6.565-4.0111 1.6727-1.634 2.9144-3.1896 4.0032-5.0151.2082-.3491.5354-.8627.7271-1.1414.7015-1.0197 1.8398-3.9672 2.0252-5.244.1048-.7213.1923-3.452.1945-6.0683l.004-4.7568-.6715-1.9018c-.9862-2.7931-2.1155-5.3738-2.9401-6.7192-1.1646-1.9-4.6852-5.3576-6.5781-6.4603-3.0724-1.7898-2.5969-1.737-15.6446-1.737-10.1542 0-11.5019.0363-11.7827.317-.2842.2843-.317 2.5096-.317 21.475 0 18.9652.0328 21.1905.317 21.4748.2807.2806 1.608.3171 11.5518.3176l11.2346.0006zm66.6729-8.8682c.2819-.2819.317-1.8057.317-13.7327 0-9.3456-.0645-13.3759-.2125-13.2843-.194.1198-3.3091 4.1558-4.0248 5.2143-.3482.515-7.756 10.4243-10.7779 14.4172-1.1192 1.4789-2.1687 2.8863-2.3322 3.1275-.1635.2413-.958 1.3196-1.7656 2.3962-.8075 1.0767-1.4682 2.0074-1.4682 2.0683 0 .0608 4.488.1106 9.9735.1106 8.7979 0 10.011-.0374 10.2907-.317zM81.9748 86.6311c1.178-.353 2.6053-1.5628 3.3016-2.7987.572-1.0152.625-1.2646.6213-2.9258-.0033-1.482-.0894-1.989-.468-2.7568-1.1075-2.246-3.0684-3.3319-5.6822-3.1465-5.0334.357-7.4133 6.1087-4.138 10.0011.2872.3413 1.0778.8982 1.757 1.2376.9956.4975 1.4878.617 2.5411.617.7185 0 1.6487-.1025 2.0672-.2279zm-27.557-37.9307c1.1212-.6616 1.7217-1.8634 1.7217-3.4458 0-1.5365-.3942-2.2733-1.7835-3.3329l-.871-.6643H20.8287v7.8693h16.4333c16.3636 0 16.4363-.002 17.1559-.4263zm-.5039-18.8402c.3186-.1648.926-.7226 1.3496-1.2396.7063-.862.7763-1.0597.843-2.3812.072-1.4262.0642-1.452-.7552-2.4887-1.4206-1.7971.0636-1.662-18.2697-1.662h-16.253v8.071h16.253c13.977 0 16.3342-.042 16.8323-.2995z" style="fill:#0086ff;fill-opacity:1"/>
</svg>
