<?xml version="1.0" encoding="UTF-8" standalone="no"?>
<!-- Created with Inkscape (http://www.inkscape.org/) -->

<svg
   width="500"
   height="500"
   viewBox="0 0 132.29166 132.29167"
   version="1.1"
   id="svg1"
   xml:space="preserve"
   inkscape:version="1.4 (86a8ad7, 2024-10-11)"
   sodipodi:docname="bcdac.svg"
   xmlns:inkscape="http://www.inkscape.org/namespaces/inkscape"
   xmlns:sodipodi="http://sodipodi.sourceforge.net/DTD/sodipodi-0.dtd"
   xmlns="http://www.w3.org/2000/svg"
   xmlns:svg="http://www.w3.org/2000/svg"><sodipodi:namedview
     id="namedview1"
     pagecolor="#ffffff"
     bordercolor="#111111"
     borderopacity="1"
     inkscape:showpageshadow="0"
     inkscape:pageopacity="0"
     inkscape:pagecheckerboard="1"
     inkscape:deskcolor="#d1d1d1"
     inkscape:document-units="px"
     inkscape:zoom="0.78573232"
     inkscape:cx="453.71686"
     inkscape:cy="475.98907"
     inkscape:window-width="1920"
     inkscape:window-height="1115"
     inkscape:window-x="-9"
     inkscape:window-y="-9"
     inkscape:window-maximized="1"
     inkscape:current-layer="layer1" /><defs
     id="defs1" /><g
     inkscape:label="Layer 1"
     inkscape:groupmode="layer"
     id="layer1"><path
       style="fill:#0086ff;fill-opacity:1"
       d="m 14.102549,125.38815 c -2.727359,-1.15461 -5.3574354,-3.471 -6.3531606,-5.59545 L 7.2086146,118.63893 7.1567065,67.892005 c -0.043387,-42.41688 -0.00676,-50.87959 0.2231584,-51.55513 0.6144273,-1.80531 2.7750971,-4.55045 4.7020651,-5.97398 1.339992,-0.9899096 4.301086,-2.3024296 5.833461,-2.5856996 0.811726,-0.15006 15.055284,-0.21653 46.398061,-0.21653 39.407428,0 45.510378,0.0395 47.430988,0.30733 2.43274,0.3392 2.65088,0.39136 3.81844,0.91307 3.75628,1.6784596 3.5171,1.5145596 6.27689,4.3014696 2.99568,3.02513 3.98152,4.37471 4.41703,6.04672 0.3544,1.36065 0.37871,2.17399 0.0955,3.1938 -0.17686,0.63674 -0.47653,0.91389 -2.16798,2.00502 -1.07951,0.69637 -4.81012,3.15597 -8.29023,5.46576 -3.48012,2.30979 -6.35246,4.19962 -6.38299,4.19962 -0.0305,0 -0.26462,-0.52209 -0.52021,-1.16021 -0.50549,-1.26206 -2.78879,-4.25566 -4.35259,-5.70663 -1.2653,-1.174 -4.16145,-3.08922 -5.771682,-3.81681 -2.033223,-0.91872 -3.565045,-1.22119 -6.184626,-1.22119 -2.757971,0 -4.219916,0.22465 -6.174961,0.94889 -3.535835,1.30984 -5.832202,2.76976 -8.081822,5.13802 -3.461252,3.6438 -5.173199,7.97294 -5.173199,13.08191 0,5.10896 1.711947,9.43811 5.173199,13.08191 1.775095,1.86871 3.371191,3.01562 5.793617,4.16314 2.8081,1.33021 3.845971,1.56306 7.44146,1.66955 3.072406,0.091 3.179975,0.0798 5.347091,-0.55844 5.386463,-1.58629 9.725813,-5.26578 12.038483,-10.20785 0.33614,-0.71831 0.66879,-1.27924 0.73923,-1.24651 0.0704,0.0327 1.21269,0.7859 2.53833,1.67372 1.32564,0.88782 3.11689,2.06822 3.98057,2.6231 0.86367,0.55489 2.50305,1.63618 3.64306,2.40286 1.14001,0.76669 2.43594,1.63767 2.87985,1.93551 0.44391,0.29783 1.37583,0.84154 2.07093,1.20824 l 1.26381,0.66671 -0.0532,28.57234 -0.0532,28.572335 -0.63209,0.908 c -0.34765,0.4994 -0.95557,1.40928 -1.35092,2.02196 -0.82738,1.28221 -4.09009,4.67601 -5.28096,5.49316 -1.78338,1.22372 -3.15304,1.7536 -4.55007,1.76029 -0.7672,0.004 -1.42322,-0.0953 -1.56378,-0.2358 -0.17553,-0.17553 -0.24213,-1.6424 -0.24213,-5.33268 0,-4.35873 -0.0456,-5.13613 -0.31708,-5.40762 -0.28239,-0.28239 -1.88837,-0.31665 -14.679277,-0.31316 l -14.362201,0.004 -4.208853,5.64584 -4.208853,5.64584 -29.588801,-0.0159 -29.588801,-0.0159 z m 31.342815,-13.63402 c 3.380652,-1.36608 4.653518,-2.14378 6.565057,-4.01116 1.672683,-1.63404 2.914395,-3.18962 4.003218,-5.01512 0.208194,-0.34905 0.535377,-0.86265 0.727074,-1.14133 0.701459,-1.01976 1.839753,-3.967185 2.02521,-5.243955 0.10478,-0.72135 0.192307,-3.45212 0.194506,-6.06837 l 0.004,-4.75682 -0.671538,-1.90182 c -0.986234,-2.79306 -2.115493,-5.3738 -2.940119,-6.71917 -1.164582,-1.90001 -4.685204,-5.35757 -6.578084,-6.46026 -3.072389,-1.78981 -2.596885,-1.73701 -15.644562,-1.73701 -10.154259,0 -11.50189,0.0363 -11.782702,0.31707 -0.284221,0.28423 -0.317079,2.50955 -0.317079,21.47485 0,18.965295 0.03286,21.190615 0.317079,21.474835 0.280645,0.28065 1.607952,0.31715 11.551735,0.31766 l 11.234657,5.8e-4 z m 66.672896,-8.86822 c 0.2819,-0.2819 0.31708,-1.80572 0.31708,-13.732745 0,-9.34554 -0.0645,-13.37582 -0.21254,-13.28431 -0.19392,0.11984 -3.30914,4.15582 -4.02478,5.21437 -0.34821,0.51507 -7.75607,10.42429 -10.777871,14.41716 -1.119233,1.47891 -2.168748,2.8863 -2.332256,3.12754 -0.163509,0.24125 -0.958006,1.31955 -1.765549,2.396225 -0.807544,1.07667 -1.468261,2.00737 -1.468261,2.06821 0,0.0608 4.488098,0.11063 9.973547,0.11063 8.79783,0 10.01093,-0.0374 10.29063,-0.31708 z M 81.974751,86.631105 c 1.178011,-0.35294 2.605337,-1.56284 3.301646,-2.79872 0.571967,-1.01517 0.624922,-1.26456 0.621255,-2.92576 -0.0033,-1.48208 -0.08931,-1.98899 -0.467922,-2.75679 -1.107553,-2.24605 -3.068478,-3.33191 -5.682269,-3.14655 -5.033394,0.35693 -7.413216,6.10873 -4.13799,10.00111 0.287195,0.34132 1.077834,0.89824 1.756978,1.23761 0.995613,0.49751 1.487859,0.61704 2.541163,0.61704 0.718496,0 1.648708,-0.10257 2.067139,-0.22794 z m -27.55699,-37.93071 c 1.121246,-0.66156 1.721786,-1.8634 1.721786,-3.44575 0,-1.53651 -0.394276,-2.2733 -1.783538,-3.33293 l -0.870935,-0.66428 H 37.156819 20.828565 v 3.93465 3.93465 H 37.26186 c 16.363641,0 16.436358,-0.002 17.155901,-0.42634 z m -0.503815,-18.84023 c 0.31858,-0.16475 0.925861,-0.72255 1.349512,-1.23956 0.706323,-0.86197 0.776319,-1.05968 0.843053,-2.3812 0.07202,-1.4262 0.06417,-1.45206 -0.755211,-2.48866 -1.420575,-1.79716 0.06363,-1.66213 -18.269663,-1.66213 H 20.828565 v 4.03554 4.03554 h 16.253072 c 13.97703,0 16.334187,-0.042 16.832309,-0.29953 z"
       id="path1" /></g></svg>
