<svg xmlns="http://www.w3.org/2000/svg" xml:space="preserve" viewBox="0 0 79.375 26.458">
  <path d="M64.63 22.645a2.673 2.673 0 0 0-.856.126c-.17.06-.364.18-.509.313a1.733 1.733 0 0 0-.344.46 4.058 4.058 0 0 0-.19.555c-.042.169-.079.459-.08.643-.002.2.028.396.073.484a.898.898 0 0 0 .214.254c.076.058.252.13.39.161.14.031.41.058.602.06.193.001.474-.017.625-.04.152-.024.354-.075.45-.112.095-.038.25-.13.343-.206a1.59 1.59 0 0 0 .294-.34c.068-.111.162-.32.208-.462.047-.144.1-.458.117-.699.02-.274.009-.506-.028-.62a.741.741 0 0 0-.266-.335 1.087 1.087 0 0 0-.515-.207 3.49 3.49 0 0 0-.527-.035zm-48.217.017a2.272 2.272 0 0 0-.549.056 2.09 2.09 0 0 0-.525.198c-.11.068-.256.214-.324.323a.758.758 0 0 0-.124.446c0 .166.032.287.096.373.052.07.178.175.28.233.1.057.34.145.528.194.19.05.436.112.547.137.11.025.242.072.291.104.077.05.081.076.03.177a.455.455 0 0 1-.217.177 1.69 1.69 0 0 1-.482.053 2.508 2.508 0 0 1-.62-.1 2.023 2.023 0 0 0-.406-.095.3.3 0 0 0-.186.078 1.357 1.357 0 0 0-.162.228c-.08.141-.08.154.002.236.437.223.913.327 1.405.287.33-.011.528-.043.702-.112.133-.052.306-.15.384-.216.078-.067.19-.202.247-.3a.873.873 0 0 0 .108-.432c.003-.19-.023-.286-.101-.38a1.121 1.121 0 0 0-.305-.228 4.3 4.3 0 0 0-.697-.215c-.272-.063-.546-.144-.608-.18-.062-.037-.113-.084-.113-.105 0-.021.043-.086.096-.144.09-.1.128-.106.638-.104.313 0 .623.026.733.06a.769.769 0 0 0 .317.03c.092-.02.16-.096.255-.28.121-.237.123-.254.04-.308a1.344 1.344 0 0 0-.345-.108 6.622 6.622 0 0 0-.935-.083zm41.148.023c-.22-.002-.39.016-.579.055-.189.04-.439.127-.555.194-.116.067-.27.21-.342.317a.701.701 0 0 0-.13.435c0 .163.033.282.1.366.056.069.188.172.296.228.107.056.358.142.558.19.2.05.46.109.577.134.117.024.255.07.307.102.081.049.086.074.031.173a.473.473 0 0 1-.228.174 1.92 1.92 0 0 1-.509.051 2.839 2.839 0 0 1-.655-.098 2.29 2.29 0 0 0-.428-.093.33.33 0 0 0-.197.077 1.337 1.337 0 0 0-.17.223c-.085.138-.084.151.003.23.05.048.249.124.44.17.19.046.394.094.452.106.059.013.324.015.59.007v-.001c.347-.011.558-.042.74-.11.141-.051.324-.146.406-.211.083-.065.2-.198.261-.294a.808.808 0 0 0 .114-.424c.003-.186-.024-.279-.107-.372a1.182 1.182 0 0 0-.321-.222 4.806 4.806 0 0 0-.736-.21c-.288-.062-.577-.142-.642-.177-.066-.035-.119-.081-.119-.102 0-.021.045-.085.1-.141.096-.098.136-.104.675-.103.33.001.657.026.773.06.11.03.261.044.335.03.097-.021.17-.095.269-.275.128-.232.13-.249.043-.302a1.497 1.497 0 0 0-.365-.106 7.542 7.542 0 0 0-.987-.081zm-33.539.044a2.673 2.673 0 0 0-.856.126 1.59 1.59 0 0 0-.509.313 1.735 1.735 0 0 0-.345.461 4.057 4.057 0 0 0-.189.554c-.043.17-.08.459-.08.643-.003.2.027.395.073.484a.9.9 0 0 0 .214.254c.075.058.251.13.39.162.139.03.41.057.602.059.192.002.473-.016.625-.04.151-.024.353-.074.449-.112.095-.037.25-.13.344-.207.094-.076.226-.228.294-.34.067-.11.161-.318.208-.461.046-.143.099-.458.116-.699.02-.273.01-.506-.028-.62a.74.74 0 0 0-.265-.335 1.087 1.087 0 0 0-.515-.207 3.49 3.49 0 0 0-.528-.035zm43.935.009c-.892 0-.971.006-1.062.085 0 0-.625 2.835-.63 2.84l.694.004.266-1.052.61-.003s.584 1.016.63 1.016c.004.052.789.05.789.002.046 0-.688-1.083-.688-1.083.523-.181.953-.266 1.046-.883.075-.343-.038-.748-.479-.88-.114-.033-.646-.046-1.176-.046zm-17.307.006c-.266 0-.387.02-.471.077-.062.043-.53.619-1.042 1.281-.511.663-.977 1.27-1.036 1.351-.059.08-.097.174-.085.208.015.044.113.062.332.062.235 0 .335-.02.409-.081a4.02 4.02 0 0 0 .36-.427l.263-.346.563-.012.563-.013.042.38c.023.21.066.407.095.44.034.037.166.059.362.059.242 0 .322-.017.368-.078.041-.054.01-.479-.105-1.434-.09-.746-.186-1.382-.213-1.412-.03-.034-.184-.055-.405-.055zm-40.478.001c-.322 0-.516.021-.684.078a1.614 1.614 0 0 0-.459.276c-.123.109-.276.3-.341.43a3.06 3.06 0 0 0-.182.469c-.035.129-.077.384-.093.566-.02.243-.01.395.043.57.043.145.125.29.206.365.074.07.241.163.373.209.19.067.322.08.665.064a4.51 4.51 0 0 0 .652-.074.966.966 0 0 0 .305-.122c.062-.053.078-.12.067-.29l-.013-.22-.157.003c-.087.002-.302.029-.479.06a1.809 1.809 0 0 1-.482.028.776.776 0 0 1-.295-.14.636.636 0 0 1-.185-.289c-.038-.137-.033-.25.02-.507.038-.181.12-.403.18-.493a.87.87 0 0 1 .319-.262c.186-.088.25-.094.621-.07.227.016.493.033.591.038.174.01.18.006.258-.197.043-.114.067-.237.053-.274-.015-.037-.14-.1-.28-.141a2.694 2.694 0 0 0-.703-.077zm10.787 0c-.34 0-.545.021-.723.078a1.73 1.73 0 0 0-.484.276c-.131.109-.292.3-.36.43-.069.128-.155.34-.192.469-.037.129-.082.384-.098.566-.023.243-.01.395.045.57.045.145.131.29.217.365.078.07.255.163.393.209.203.067.342.08.704.064a5.02 5.02 0 0 0 .689-.074c.13-.03.276-.085.323-.122.065-.053.082-.12.07-.29l-.014-.22-.165.003a4.81 4.81 0 0 0-.506.06 2.018 2.018 0 0 1-.51.028.842.842 0 0 1-.313-.14.633.633 0 0 1-.194-.289c-.04-.137-.036-.25.02-.507.041-.181.126-.403.191-.493a.91.91 0 0 1 .337-.262c.197-.088.265-.094.656-.07.24.016.522.033.625.038.184.01.19.006.272-.197.046-.114.072-.237.057-.274-.016-.037-.149-.1-.296-.141a3.005 3.005 0 0 0-.744-.077zm21.067.012c-.05.046-.5.654-.328.654h1.257c-.43 1.356-.685 2.279-.601 2.284-.005.079.684.088.684-.001.073 0 .357-1.338.67-2.283h1.012c.157-.001.39-.588.343-.654h-3.037zm-39.905 0-.1.106c-.073.078-.175.46-.383 1.43-.236 1.102-.272 1.333-.214 1.39.059.06.21.067 1.076.054.897-.013 1.03-.025 1.218-.106.116-.05.265-.157.33-.237.066-.08.144-.22.174-.313s.06-.266.066-.384c.008-.154-.015-.238-.083-.3-.09-.083-.089-.091.06-.224a.842.842 0 0 0 .223-.367c.036-.127.068-.309.07-.405a.796.796 0 0 0-.068-.32.566.566 0 0 0-.238-.218c-.132-.06-.352-.077-1.147-.09l-.984-.015zm37.386.004-.385.342c-.211.188-.456.41-.544.492l-.16.151-.232-.341c-.127-.188-.28-.404-.339-.48-.1-.127-.132-.139-.44-.15-.2-.009-.363.007-.408.038-.041.028-.075.079-.075.112 0 .034.215.377.477.762l.477.702-.128.6c-.088.407-.113.625-.08.678.038.057.116.077.305.077.18 0 .28-.024.343-.081.056-.051.138-.307.218-.68l.129-.598.798-.72c.525-.474.793-.748.781-.8-.015-.064-.082-.08-.378-.09l-.36-.014zm-31.645.005c-.209 0-.272.018-.334.098-.042.054-.172.542-.29 1.084-.178.83-.23.998-.325 1.062a1.215 1.215 0 0 1-.333.125 1.82 1.82 0 0 1-.478.024 1.278 1.278 0 0 1-.382-.093c-.07-.038-.126-.111-.126-.164 0-.052.085-.487.188-.968.103-.48.18-.934.172-1.01-.016-.131-.027-.137-.284-.15-.214-.01-.286.005-.364.077-.071.065-.153.35-.3 1.042-.112.524-.204 1.052-.204 1.172 0 .14.037.27.103.36.057.076.175.17.262.208.088.037.25.087.36.11.11.022.425.034.701.025.276-.01.591-.04.7-.066.107-.027.296-.112.419-.19a1.26 1.26 0 0 0 .342-.338c.081-.132.191-.535.34-1.237.176-.836.206-1.055.154-1.107-.041-.04-.16-.064-.321-.064zm20.998 0c-.208 0-.271.018-.334.098-.042.054-.172.542-.289 1.084-.179.83-.23.998-.326 1.062a1.215 1.215 0 0 1-.332.125 1.82 1.82 0 0 1-.478.024 1.278 1.278 0 0 1-.383-.093c-.069-.038-.125-.111-.125-.164 0-.052.084-.487.187-.968.104-.48.181-.934.172-1.01-.015-.131-.026-.137-.283-.15-.214-.01-.286.005-.365.077-.07.065-.153.35-.3 1.042-.112.524-.203 1.052-.204 1.172 0 .14.037.27.103.36.057.076.175.17.263.208.087.037.25.087.359.11.11.022.426.034.702.025.276-.01.59-.04.698-.066.109-.027.298-.112.42-.19a1.26 1.26 0 0 0 .343-.338c.08-.132.19-.535.339-1.237.176-.836.206-1.055.154-1.107-.041-.04-.159-.064-.321-.064zm1.596 0c-.207 0-.37.024-.442.065-.069.04-.134.147-.166.274-.03.115-.164.726-.3 1.36-.197.918-.234 1.164-.183 1.215.04.04.159.064.314.064.17 0 .276-.024.332-.076.05-.047.15-.396.256-.898.096-.452.192-.807.213-.789.021.018.209.393.416.832.208.44.414.83.457.866.054.044.186.065.407.065.21 0 .37-.024.444-.067a.454.454 0 0 0 .166-.23c.027-.09.162-.7.3-1.355.206-.98.239-1.204.183-1.26-.042-.041-.155-.066-.298-.066-.153 0-.264.026-.328.079-.068.057-.146.314-.276.92-.1.462-.193.84-.208.84-.015 0-.203-.374-.417-.83-.214-.457-.424-.87-.465-.92-.063-.074-.133-.09-.405-.09zm4.534 0c-1.073 0-1.502.01-1.573.068a.416.416 0 0 0-.114.17.738.738 0 0 0-.013.248l.018.149.466.013.697.012-.029.119a94.95 94.95 0 0 0-.218.995c-.104.481-.191.927-.194.99a.317.317 0 0 0 .033.164c.02.028.15.05.29.05.18 0 .278-.023.343-.083.062-.056.157-.392.3-1.062.116-.539.221-1.024.236-1.078.025-.092.338-.098.75-.098.355 0 .457-.016.525-.078a.569.569 0 0 0 .121-.263c.024-.123.014-.206-.03-.25-.056-.056-.553-.066-1.608-.066zm18.358 0c-.206 0-.37.024-.442.065-.069.04-.133.147-.166.274-.029.115-.164.726-.3 1.36-.197.918-.233 1.164-.182 1.215.04.04.159.064.313.064.172 0 .276-.024.333-.076.05-.047.15-.396.256-.898.096-.452.192-.807.213-.789.021.018.208.393.415.832.208.44.414.83.457.866.054.044.187.065.408.065.21 0 .37-.024.444-.067a.454.454 0 0 0 .165-.23c.028-.09.163-.7.3-1.355.207-.98.24-1.204.184-1.26-.042-.041-.155-.066-.299-.066-.152 0-.264.026-.327.079-.069.057-.146.314-.277.92-.1.462-.193.84-.208.84-.015 0-.202-.374-.417-.83-.214-.457-.423-.87-.465-.92-.062-.074-.133-.09-.405-.09zm7.165 0c-.77 0-.848.007-.935.086-.068.063-.173.452-.384 1.424-.234 1.08-.277 1.35-.224 1.403.041.041.158.065.316.065.167 0 .276-.024.324-.071.04-.04.12-.28.18-.537l.107-.465.685-.024c.5-.017.732-.044.854-.098a1.3 1.3 0 0 0 .323-.23c.086-.087.195-.257.242-.379.048-.121.086-.355.086-.52 0-.253-.02-.316-.131-.427a.764.764 0 0 0-.367-.178c-.13-.027-.614-.05-1.076-.05zm-48.442.004a1.294 1.294 0 0 0-.235.014.286.286 0 0 0-.173.145c-.031.067-.18.698-.33 1.403-.222 1.036-.262 1.294-.209 1.347.077.076.542.102.7.015.046-.042.062-.26.1-.45.061-.306.078-.587.196-.757 0 0 .134.046.163.046.034 0 .829 1.004.944 1.116.065.064.631.033.937.023.327-.011-1.165-1.495-1.165-1.495s.292-.216.414-.294c.038-.024.36-.25.715-.5.406-.286.641-.482.631-.526-.012-.054-.1-.073-.404-.083-.268-.009-.423.007-.502.05-.062.033-.444.29-.85.57-.404.28-.746.5-.759.49-.013-.01.017-.206.067-.434.05-.227.082-.47.072-.538-.015-.11-.04-.126-.223-.139a1.7 1.7 0 0 0-.09-.003zm58.156.014c-.051.046-.5.654-.329.654h1.257c-.43 1.355-.684 2.279-.6 2.284-.005.079.683.088.683-.001.074 0 .358-1.338.67-2.283h1.012c.158-.002.39-.588.344-.654h-3.037zm-23.72.02c-.892-.001-.971.005-1.062.085 0 0-.625 2.834-.63 2.84l.694.004.266-1.053.61-.003s.584 1.017.63 1.017c.005.05.789.05.789.002.046 0-.688-1.084-.688-1.084.524-.181.953-.265 1.046-.883.075-.342-.038-.748-.479-.88-.114-.033-.646-.046-1.176-.046zm21.57.42c.647.006.708.116.777.338 0 0-.143.73-1.532.489l.207-.813c.219-.01.4-.014.548-.013zm-21.45.066c.648.005.708.115.777.337 0 0-.143.73-1.532.489l.207-.813c.219-.01.4-.014.549-.013zm17.89.005c.184 0 .337.03.45.086.093.047.186.138.205.202.02.064.02.257.003.428a2.786 2.786 0 0 1-.114.54.709.709 0 0 1-.24.337 1.225 1.225 0 0 1-.357.157 1.727 1.727 0 0 1-.355.041 1.903 1.903 0 0 1-.33-.045.542.542 0 0 1-.258-.151c-.07-.089-.081-.175-.055-.448.018-.185.069-.438.113-.561a1.19 1.19 0 0 1 .195-.345.86.86 0 0 1 .29-.18c.096-.034.3-.061.453-.061zm-40.608.084c.184 0 .337.03.45.086.093.048.186.139.205.202.02.064.02.257.002.429a2.786 2.786 0 0 1-.113.539.709.709 0 0 1-.241.338 1.224 1.224 0 0 1-.356.156 1.73 1.73 0 0 1-.355.042 1.91 1.91 0 0 1-.33-.045.542.542 0 0 1-.259-.152c-.07-.089-.08-.175-.054-.447.017-.186.068-.439.113-.562a1.19 1.19 0 0 1 .195-.345.86.86 0 0 1 .29-.181c.095-.033.3-.06.453-.06zm-20.667.05c.18-.001.339.005.39.016.114.023.123.044.099.22-.015.108-.056.225-.092.261-.05.05-.19.066-.607.066H2.49l.059-.274.059-.273.449-.013c.061-.002.124-.003.184-.003zm57.55 0c.18-.001.339.005.39.016.114.023.124.044.1.22-.015.108-.057.225-.093.261-.05.05-.19.066-.607.066h-.54l.058-.274.06-.273.448-.013.184-.003zm-10.45.236c.018 0 .04.09.047.202.008.112.024.23.035.263.016.046-.042.06-.25.06H49.9l.203-.262c.112-.145.22-.263.238-.263zm-47.619.991c.065 0 .135 0 .207.002l.524.013v.174c0 .142-.025.184-.132.23-.077.032-.33.055-.6.055h-.47l.037-.207c.02-.114.055-.224.077-.243.017-.014.163-.023.357-.024z" style="opacity:1;fill:#f9bf3c;fill-opacity:1;stroke-width:.181845"/>
  <path d="m22.675 6.262-.059.607c-.122 1.268-1.024 2-2.772 2.25-1.009.144-7.155.174-7.152.035.001-.05.197-.708.435-1.46.238-.754.433-1.385.433-1.403 0-.018-1.464-.018-3.254 0l-3.255.033-2.152 6.843c-1.183 3.764-2.183 6.983-2.222 7.154l-.071.31 8.557-.069c9.251-.075 9.444-.088 11.916-.805 2.507-.726 3.898-1.89 4.545-3.8.718-2.122-.196-4.078-2.25-4.807-.615-.219-.804-.41-.404-.41.117 0 .724-.248 1.349-.552 1.785-.869 2.918-2.28 2.918-3.637v-.289h-6.562zm9.05 0-.529.72c-.673.918-1.481 2.635-1.914 4.07-.295.977-.339 1.341-.347 2.861-.009 1.71-.002 1.758.388 2.581 1.136 2.397 4.082 3.74 8.934 4.07 1.705.116 5.205.127 7.34.022l1.616-.079.584-1.617c.322-.89.588-1.702.592-1.804.006-.163-.561-.187-4.378-.19-3.725-.003-4.513-.035-5.228-.216-1.418-.36-2.264-.934-2.571-1.748-.238-.629-.156-2.09.183-3.275.667-2.332 1.692-3.975 3.047-4.88l.772-.515h-8.489zm33.45 0-3.529.002-2.21 7.06c-1.217 3.882-2.21 7.1-2.209 7.152.002.052 1.568.093 3.48.093h3.48l.618-1.96c.34-1.077 1.33-4.226 2.2-6.997a856.65 856.65 0 0 1 1.639-5.195c.046-.122-.699-.155-3.47-.154zM15.29 12.506c1.132.006 2.29.04 2.883.09 2.288.192 2.977.603 2.977 1.775 0 1.479-.844 2.377-2.554 2.716-.416.083-2.43.177-4.582.215l-3.84.068.08-.36c.043-.197.373-1.282.733-2.411l.656-2.053 2.545-.036a58.7 58.7 0 0 1 1.102-.004z" style="fill:#3fa6c5;stroke-width:.470221;opacity:1;fill-opacity:1"/>
  <path d="M71.537 4.976a3.8 3.8 0 0 1 .118-.406c.065-.198.32-1.019.567-1.823l.449-1.461 2.574.001c3.658.003 3.695.03 2.933 2.207l-.512 1.462-3.064.033c-1.686.018-3.065.013-3.065-.013Z" style="fill:#ff5b35;stroke-width:.470221;opacity:1;fill-opacity:1"/>
  <path d="M71.072 1.373c-.115 0-.242.001-.375.006-2.826.09-15.408.404-16.223.404h-.95l-.588 1.462-.648 1.618c-.05.125 1.774.15 9.047.125l9.11-.032.608-1.73c.335-.953.609-1.764.609-1.805 0-.03-.244-.048-.59-.048zm-19.914.524c-2.452.011-7.523.175-8.858.32-2.294.25-4.509.697-5.922 1.193-1.12.393-3.284 1.44-3.284 1.59 0 .043 4.081.065 9.07.047l9.072-.032.633-1.5c.348-.824.633-1.532.633-1.572 0-.037-.527-.05-1.344-.046zm-30.108.824c-1.684.005-4.04.055-7.532.14L4.58 3.08l-.486.967a21.32 21.32 0 0 0-.486 1c0 .019.322.023.715.008.394-.014 6.132-.028 12.752-.03 7.662-.004 12.037-.05 12.037-.126 0-.244-.871-.982-1.514-1.283a9.07 9.07 0 0 0-1.534-.506c-1.258-.282-2.206-.397-5.014-.388z" style="fill:#f9bf3c;stroke-width:.470221;opacity:1;fill-opacity:1"/>
</svg>
