<svg xmlns="http://www.w3.org/2000/svg" xml:space="preserve" id="Layer_1" x="0" y="0" version="1.1" viewBox="0 0 694.4 145.8">
  <style>
    .st0{fill:#08A69B;}
	.st1{fill:#8BC542;}
  </style>
  <path d="M71 72.3s31.4 5.2 31.4-28.8c0 0 0-17.3-18.3-25.7 0 0 38.8 5.2 40.4 51.4 0 0 3.1 44-35.6 74.4-.1 0-17.4-23.6-17.9-71.3" class="st0"/>
  <path d="M76.2 26.2c-6.7 0-12.6 3.1-16.5 8 7.6 3.6 12.8 11.3 12.8 20.3 0 4.5-1.4 8.7-3.7 12.3 2.3.9 4.7 1.3 7.3 1.3 11.6 0 21-9.4 21-21 .1-11.5-9.3-20.9-20.9-20.9" class="st0"/>
  <path d="M85.9 109.3s13.7 5.2 16.8-10.3c0 0 2.2-6.3-5.9-13.4 0 0 17 5.9 13.4 27.1 0 0-2.6 20.4-22.9 30.8.1 0-5.5-12.4-1.4-34.2" class="st1"/>
  <path d="M99.6 100.1c1.1-5.3-2.3-10.4-7.5-11.5-5.2-1-10.3 2.4-11.4 7.7-1.1 5.3 2.3 10.4 7.5 11.5 5.2 1 10.3-2.4 11.4-7.7M45.8 0S15.4 21.5 21.7 53.5c0 0 2.6 25.2 30.9 25.2 0 0 8.4-.5 14.7-4.7 0 0-2.1 37.2 14.7 67.6 0 0-75.5-23.6-81.8-85.4 0-.1-6.2-41 45.6-56.2" class="st1"/>
  <path d="M69.9 54.5c0-11.6-9.4-21-21-21s-21 9.4-21 21 9.4 21 21 21c11.7 0 21-9.4 21-21" class="st1"/>
  <path d="M372.1 101.3V95s-4.2-3.1-13-3.2c0 0-19.5-1.1-19 25.7 0 0-2.2 29.2 19 28.2 0 0 6.9.4 13.3-3.2v-6.2s-4.8 3.8-12.5 3.8c0 0-14.2 1.9-13-23.2 0 0-.9-20.3 13.6-19.2 0 .1 5.5-.2 11.6 3.6M391.2 104.6s-15.9-.7-15.9 22c0 0-.7 19.9 17.4 19.1 0 0 8.9-.1 14.5-3.2v-5.7s-5.9 4.2-14.4 3.8c0 0-11.1.9-11-14h27c0 .1 3.1-22-17.6-22m11.3 17.2H382c0-12.4 9.8-12.3 9.8-12.3 11 0 10.7 12.3 10.7 12.3M489.8 104.6s-15.9-.7-15.9 22c0 0-.7 19.9 17.4 19.1 0 0 8.9-.1 14.5-3.2v-5.7s-5.9 4.2-14.4 3.8c0 0-11.1.9-11-14h27c.1.1 3.1-22-17.6-22m11.4 17.2h-20.6c0-12.4 9.8-12.3 9.8-12.3 11 0 10.8 12.3 10.8 12.3M440.9 144.7h6.3v-27.6s.8-14.7-18.8-12.4c0 0-7.3.5-14.1 3.2v36.9h6.3v-33s12.1-4.8 17.7.2c0 0 2.3 2.2 2.3 6l.3 26.7zM460.7 96.4h-6.3v39.9s-.7 9.4 10.5 9.3c0 0 4.6-.3 6.8-1v-5.3s-4.4 1.3-6.1 1.3c0 0-4.8.5-4.8-5.4v-24.4H471v-5.1h-10.2v-9.3zM512.7 144.6h6.6v-33.1s6.5-2.6 13.4-1.3V105s-10.1-1.7-20.1 2.8v36.8zM194 104.6s-15.9-.7-15.9 22c0 0-.7 19.9 17.4 19.1 0 0 8.9-.1 14.5-3.2v-5.7s-5.9 4.2-14.4 3.8c0 0-11.1.9-11-14h27c0 .1 3.1-22-17.6-22m11.3 17.2h-20.6c0-12.4 9.8-12.3 9.8-12.3 11 0 10.8 12.3 10.8 12.3M275.4 96.4h-6.3v39.9s-.7 9.4 10.5 9.3c0 0 4.6-.3 6.8-1v-5.3s-4.4 1.3-6.1 1.3c0 0-4.8.5-4.8-5.4v-24.4h10.1v-5.1h-10.2v-9.3zM296.3 111.9s20.1-7.7 20.1 6.5v26.2h6.5V116s0-17.5-26.8-9.1V89.7h-6.4v55.1h6.4l.2-32.9zM255 89.6h6.5v54.9H255zM227.1 104.9s-5.8 1-9.7 2.7v5.6s11.8-6.3 21.3-2c0 0 3.7 2 3.1 9.1h-9.2s-18.4-.6-18.4 13.2c0 0-.9 12.2 18.6 12.2 0 0 9.5-.7 15.4-2.6v-27.5c.1.1.1-14.2-21.1-10.7m14.8 34.5c-2.6 1.1-10.2 1.3-10.2 1.3-10.2.6-10.8-6.8-10.8-6.8 0-8.7 11.7-8.5 11.7-8.5h9.4v14zM165.1 144.6h6.4V93h-6.4v21.7h-23.2V93h-6.7v51.6h6.4v-24h23.3z" class="st0"/>
  <path d="M194.9 38S179 37.3 179 60c0 0-.8 19.8 17.4 19.1 0 0 8.9-.1 14.5-3.2v-5.7s-5.9 4.2-14.4 3.8c0 0-11.1.8-11-14h27c0 .1 3.1-22-17.6-22m11.3 17.2h-20.6c0-12.4 9.8-12.3 9.8-12.3 11 0 10.8 12.3 10.8 12.3M219.8 77.2h6.6V44.1s6.5-2.6 13.4-1.3v-5.2s-10.1-1.7-20.1 2.8v36.8zM245.1 22.8h6v54.4h-6zM277.2 38.6h-7.4l-18.6 18.2L271.1 77h8l-21.2-20.3zM308.8 45v-4.3s-5.3-3-13.2-3c0 0-14.4-1.6-15.4 10 0 0-.9 7.8 13.8 11.7 0 0 10.5 2.4 10.5 8.3 0 0 .3 6.1-11.5 6.3 0 0-7.8-.4-12.7-3.6V75s4 3 15.1 3c0 0 14.9.9 15.1-11.5 0 0 1.1-8.1-13.5-11.4 0 0-10.8-2.3-10.8-7.3 0 0 .6-6 9.5-6 0-.1 9.3.2 13.1 3.2M172.8 63.8c0-12.2-12-13.7-12-13.7 12.2-2.3 10.5-11.7 10.5-11.7 0-12.2-16.8-12.5-16.8-12.5H136v51.2h18.2c19.4.1 18.6-13.3 18.6-13.3m-31-33.3h11.7s12-.3 12 8.8c0 0-.3 8.8-12 8.8h-11.7V30.5zM154 72.6h-12.2V52.7H154s12.5-.3 12.5 10c0 0-.3 9.9-12.5 9.9" class="st1"/>
  <path d="M355.3 33.8v-6.3s-4.4-3.1-13.8-3.2c0 0-20.7-1.1-20.1 25.7 0 0-2.4 29.2 20.1 28.2 0 0 7.3.4 14.1-3.2v-6.2s-5.1 3.8-13.2 3.8c0 0-15 1.9-13.8-23.2 0 0-.9-20.3 14.4-19.2-.1.1 5.8-.2 12.3 3.6M608.2 77.3h6.3V49.6s.7-14.7-18.8-12.4c0 0-7.3.5-14.1 3.2v36.9h6.3v-33s12.1-4.8 17.7.2c0 0 2.3 2.2 2.3 6l.3 26.8zM546.5 38.8h-6.3v27.6s-.8 14.7 18.8 12.4c0 0 7.3-.5 14.1-3.2V38.7h-6.3v33s-12.1 4.8-17.7-.2c0 0-2.3-2.2-2.3-6l-.3-26.7zM512 37.3s-6.1.5-12.4 2.6c-2.8-2.1-7.1-3.4-14.1-2.6 0 0-7.3.5-14.1 3.2v36.9h6.3v-33s12.1-4.8 17.7.2c0 0 2.3 2.2 2.3 6l.1 13.3v13.4h6.3v-.1h.1V49.6s0-.7-.1-1.7v-3.5s12.1-4.8 17.7.2c0 0 2.4 2.2 2.4 6l.2 26.7h6.3V49.6c.1 0 .9-14.7-18.7-12.3M445 37.3s-6.1.5-12.3 2.6c-2.8-2.1-7.1-3.4-14.1-2.6 0 0-7.3.5-14.1 3.2v36.9h6.3v-33s12.1-4.8 17.7.2c0 0 2.3 2.2 2.3 6l.1 13.3v13.4h6.3v-.1h.1V49.6s0-.7-.1-1.7v-3.5s12.1-4.8 17.7.2c0 0 2.3 2.2 2.3 6l.2 26.7h6.3V49.6c.1 0 .9-14.7-18.7-12.3M644.3 28.9H638v39.9s-.7 9.4 10.5 9.3c0 0 4.6-.3 6.8-1v-5.3s-4.4 1.3-6.1 1.3c0 0-4.8.5-4.8-5.4V43.2h10.1v-5.1h-10.2v-9.2zM663.4 38.2h-7.7L671.8 77l-7 16.3h6.9l22.7-55h-6.5l-12.5 31.2zM623.7 38h6.5v39.4h-6.5zM623.3 24.5h7.1V31h-7.1zM397.1 58.4c0-21.9-16.9-21.5-18.8-21.4h-.6c-1.9-.1-18.8-.6-18.8 21.4 0 0-1.7 20.1 18.6 20.1h1c20.3 0 18.6-20.1 18.6-20.1m-16.7 15.2c-.8.1-1.6.2-2.4.2-.7 0-1.5-.1-2.4-.2C365 71.9 365.5 58 365.5 58c-1-12.9 7.1-15.4 12.5-15.7 5.4.2 13.5 2.7 12.5 15.7 0 0 .4 13.9-10.1 15.6" class="st0"/>
</svg>
