<?xml version="1.0" encoding="UTF-8" standalone="no"?>
<!-- Created with Inkscape (http://www.inkscape.org/) -->

<svg
   width="300"
   height="100"
   viewBox="0 0 79.374998 26.458333"
   version="1.1"
   id="svg1"
   inkscape:version="1.4 (86a8ad7, 2024-10-11)"
   sodipodi:docname="buckscountyhub.svg"
   xmlns:inkscape="http://www.inkscape.org/namespaces/inkscape"
   xmlns:sodipodi="http://sodipodi.sourceforge.net/DTD/sodipodi-0.dtd"
   xmlns="http://www.w3.org/2000/svg"
   xmlns:svg="http://www.w3.org/2000/svg">
  <sodipodi:namedview
     id="namedview1"
     pagecolor="#ffffff"
     bordercolor="#111111"
     borderopacity="1"
     inkscape:showpageshadow="0"
     inkscape:pageopacity="0"
     inkscape:pagecheckerboard="1"
     inkscape:deskcolor="#d1d1d1"
     inkscape:document-units="px"
     inkscape:zoom="2.2223866"
     inkscape:cx="149.38895"
     inkscape:cy="68.844907"
     inkscape:window-width="1920"
     inkscape:window-height="1115"
     inkscape:window-x="-9"
     inkscape:window-y="-9"
     inkscape:window-maximized="1"
     inkscape:current-layer="layer1" />
  <defs
     id="defs1" />
  <g
     inkscape:label="Layer 1"
     inkscape:groupmode="layer"
     id="layer1">
    <g
       id="g128"
       transform="matrix(0.41319155,0,0,0.41319155,-92.203151,-181.70937)">
      <path
         id="path143"
         style="fill:#222c45;fill-opacity:1;stroke-width:0.996748"
         d="m 327.0648,459.71327 c -0.18546,0.007 -0.55563,0.086 -0.95291,0.20963 -0.5297,0.16487 -1.32928,0.34255 -1.77653,0.39507 -0.5025,0.0591 -0.84567,0.18062 -0.8983,0.31782 -0.12941,0.33719 0.0398,0.49859 0.5223,0.49859 0.92258,0 0.91472,-0.0486 0.91272,5.83025 -10e-4,2.94352 -0.0415,5.49831 -0.0896,5.67778 -0.0609,0.22711 -0.29173,0.38382 -0.75873,0.51457 -0.45713,0.128 -0.67064,0.27056 -0.67064,0.4471 0,0.14254 0.0285,0.28755 0.0634,0.32244 0.0349,0.0349 1.19864,0.0634 2.58624,0.0634 2.48202,0 2.52288,-0.006 2.52288,-0.32811 0,-0.25221 -0.14908,-0.37521 -0.64643,-0.5326 l -0.64643,-0.20448 -0.11639,-1.51177 c -0.064,-0.8315 -0.06,-1.56764 0.008,-1.63592 0.0683,-0.0683 0.79785,0.63574 1.62149,1.56483 1.15434,1.30216 1.44896,1.72017 1.28513,1.82391 -0.11687,0.074 -0.3032,0.13602 -0.41362,0.13701 -0.11825,10e-4 -0.18054,0.13587 -0.15193,0.32708 0.0473,0.3153 0.12001,0.32487 2.52082,0.34202 2.44098,0.0174 2.47242,0.0138 2.47241,-0.31214 -2e-5,-0.23769 -0.11941,-0.35632 -0.42495,-0.4234 -0.78122,-0.1716 -1.33969,-0.64449 -3.15953,-2.6733 l -1.80846,-2.01604 0.60471,-0.52847 c 1.19958,-1.04957 2.67206,-1.99129 3.27285,-2.0928 0.44824,-0.0757 0.60213,-0.17386 0.60213,-0.38373 0,-0.15503 -0.0611,-0.32019 -0.1365,-0.36674 -0.0752,-0.0465 -1.06814,-0.0397 -2.2061,0.015 -1.83854,0.0882 -2.06909,0.12911 -2.06909,0.36776 0,0.17472 0.15944,0.30362 0.45635,0.36881 0.25103,0.0551 0.45638,0.19054 0.45638,0.3008 0,0.30288 -2.57179,2.51362 -2.92414,2.51362 -0.16104,0 -0.14158,-4.65439 0.0293,-6.99794 0.0762,-1.04593 0.0903,-1.95089 0.0309,-2.0109 -0.015,-0.0149 -0.0561,-0.0213 -0.11794,-0.019 z m -32.38544,0.73657 c -3.53402,0 -3.65504,0.01 -3.65504,0.29926 0,0.23138 0.14859,0.32909 0.65415,0.42907 0.49474,0.0979 0.68973,0.22228 0.7989,0.50942 0.19901,0.52345 0.18955,10.64061 -0.0102,11.01406 -0.0851,0.15901 -0.42751,0.36254 -0.76078,0.45224 -0.48426,0.1304 -0.60574,0.23358 -0.60574,0.51406 v 0.35078 l 2.31995,-0.0541 c 5.14464,-0.12065 5.30675,-0.13476 6.19956,-0.54085 1.18837,-0.54055 1.91793,-1.31161 2.21795,-2.34363 0.4624,-1.59059 -0.15424,-3.13659 -1.61222,-4.04291 l -0.76078,-0.47336 0.4265,-0.25909 c 0.55774,-0.33919 1.22568,-1.14089 1.34437,-1.61376 0.0519,-0.20661 0.0632,-0.74559 0.0257,-1.19758 -0.0982,-1.18374 -0.65841,-1.92606 -1.92539,-2.55018 l -1.0018,-0.49344 z m 59.10134,0.10094 c -0.11304,9.9e-4 -0.22096,0.004 -0.32244,0.009 -1.22762,0.0587 -1.62392,0.14572 -2.46829,0.54084 -2.52983,1.18385 -4.05872,3.62517 -4.05474,6.47513 0.003,1.95284 0.4882,3.21535 1.79868,4.67491 0.79389,0.8842 2.13001,1.70834 3.1621,1.95063 1.83917,0.43177 6.05376,-0.14505 6.43598,-0.8808 0.23849,-0.45905 0.66696,-2.56401 0.57226,-2.81082 -0.0521,-0.13574 -0.25439,-0.24724 -0.44967,-0.24724 -0.28822,0 -0.40665,0.14373 -0.62892,0.76182 -0.49206,1.36839 -1.87875,2.28131 -3.46549,2.28131 -2.36828,0 -4.02524,-1.58149 -4.62803,-4.41686 -0.59232,-2.78616 0.30759,-5.63689 2.134,-6.76101 0.67352,-0.41452 0.87186,-0.45987 1.97741,-0.45688 0.94927,0.003 1.40759,0.084 2.01294,0.35491 0.90791,0.40631 1.27257,0.75595 1.77139,1.69926 0.235,0.44442 0.46134,0.68043 0.65209,0.68043 0.26587,0 0.29509,-0.13582 0.33018,-1.52105 0.0213,-0.83674 -0.0138,-1.60245 -0.0784,-1.70133 -0.18401,-0.28232 -3.0553,-0.65097 -4.75114,-0.632 z m -57.33409,0.91891 c 1.57282,0.0308 2.30677,0.82266 2.32561,2.49095 0.0119,1.04465 -0.29088,1.6524 -0.99154,1.9908 -0.42481,0.2052 -1.88046,0.36014 -2.38639,0.25394 -0.34406,-0.0723 -0.34609,-0.087 -0.30441,-2.38176 l 0.0422,-2.30861 0.98897,-0.0411 c 0.11234,-0.005 0.22064,-0.006 0.32553,-0.004 z m 100.41218,1.84658 c -0.22401,-0.0172 -0.61699,0.30794 -1.29337,0.96578 -0.59947,0.58303 -1.27807,1.17576 -1.50818,1.31758 -0.27439,0.1691 -0.41876,0.38744 -0.41876,0.63459 0,0.34523 0.0579,0.37704 0.68507,0.37704 h 0.68454 v 2.88087 c 0,1.67125 0.0682,3.06044 0.16225,3.30891 0.21598,0.57003 0.72359,1.10548 1.28308,1.35416 1.2425,0.55223 3.68861,-0.24211 3.36248,-1.09198 -0.062,-0.16157 -0.18546,-0.21002 -0.35953,-0.14112 -1.05119,0.41577 -1.89211,0.19199 -2.15924,-0.57432 -0.0876,-0.25151 -0.15915,-1.64209 -0.15915,-3.0905 v -2.63364 l 1.24857,-0.0443 c 1.18871,-0.0421 1.25308,-0.0623 1.34488,-0.42443 0.15894,-0.62723 -0.0859,-0.76079 -1.39537,-0.76079 h -1.19807 v -0.99359 c 0,-0.70892 -0.0552,-1.06734 -0.27918,-1.08425 z m -57.92592,1.5025 c -2.02698,0.0413 -3.38362,1.18358 -3.21979,2.88859 0.0933,0.97094 0.75721,1.67263 2.4384,2.57749 1.73116,0.93175 2.17368,1.73119 1.39177,2.51309 -0.33328,0.33326 -0.49024,0.38101 -1.05078,0.31782 -0.84594,-0.0954 -1.47437,-0.54842 -1.81773,-1.30986 -0.24788,-0.54971 -0.70046,-0.87881 -0.91428,-0.66498 -0.11239,0.11246 -0.10516,1.03235 0.014,1.75283 0.11212,0.67857 0.52187,0.94817 1.75798,1.15637 2.19877,0.37036 4.18082,-0.63138 4.45445,-2.25092 0.2131,-1.26136 -0.53869,-2.29303 -2.3287,-3.19662 -1.35408,-0.68354 -1.85275,-1.15865 -1.85275,-1.76571 0,-0.69128 0.33862,-0.98639 1.13163,-0.98639 0.81118,0 1.33113,0.3815 1.66837,1.22437 0.20022,0.50039 0.31494,0.61266 0.58822,0.57379 0.31976,-0.0454 0.33729,-0.11392 0.30699,-1.17593 -0.0177,-0.62013 -0.0869,-1.18252 -0.15402,-1.2496 -0.067,-0.0671 -0.61761,-0.20663 -1.22384,-0.3106 -0.41594,-0.0714 -0.81448,-0.10138 -1.18985,-0.0938 z m -19.99199,0.0603 c -1.53581,-0.01 -2.61027,0.47381 -3.47064,1.56226 -0.79662,1.00779 -1.01345,1.66833 -1.00647,3.06063 0.0111,2.09937 1.0079,3.53633 3.03178,4.37101 0.26092,0.10757 0.88679,0.16609 1.46078,0.13647 1.58856,-0.082 3.17962,-1.09195 3.17962,-2.01809 0,-0.44168 0.0235,-0.44183 -0.78344,0.0172 -1.27033,0.72224 -2.66115,0.68991 -3.54018,-0.082 -0.73438,-0.64479 -1.02,-1.47708 -1.02399,-2.98492 -0.004,-1.48678 0.38204,-2.49797 1.09559,-2.86696 0.87067,-0.45024 1.4231,-0.25085 2.12266,0.76593 0.79203,1.15117 1.67642,1.02805 1.9702,-0.27454 0.14734,-0.65335 -0.0136,-0.84288 -1.13988,-1.34386 -0.55269,-0.24582 -1.06089,-0.33813 -1.89603,-0.34311 z m -6.75122,0.0345 -0.38991,0.0788 c -0.21426,0.0435 -1.05704,0.19783 -1.87285,0.34304 -1.35777,0.24171 -1.48293,0.29291 -1.48293,0.60575 0,0.25332 0.1138,0.36656 0.44039,0.43833 0.88812,0.19507 0.99946,0.49864 1.05645,2.8819 0.0514,2.15099 0.0493,2.16472 -0.35181,2.64136 -0.80651,0.95847 -2.2927,0.75356 -2.76704,-0.38167 -0.29517,-0.70644 -0.43558,-3.66243 -0.24569,-5.17403 0.0761,-0.60548 0.0946,-1.17217 0.0407,-1.25939 -0.0656,-0.10622 -0.69699,-0.0407 -1.912,0.19829 -1.38891,0.27313 -1.82522,0.41601 -1.86254,0.60986 -0.0338,0.1752 0.14538,0.33059 0.58204,0.5053 0.38978,0.15596 0.68493,0.39377 0.7716,0.62171 0.0772,0.20293 0.14008,1.14835 0.14008,2.10103 0,2.72948 0.358,3.8203 1.5092,4.5961 0.85365,0.57527 2.32727,0.36438 3.45261,-0.49396 0.2721,-0.20753 0.5336,-0.37705 0.58101,-0.37705 0.0474,0 0.086,0.27362 0.086,0.60832 0,0.69225 -0.0218,0.68605 1.36909,0.38013 0.54388,-0.11963 1.20398,-0.21951 1.46696,-0.22252 0.434,-0.005 0.66292,-0.21522 0.66292,-0.60934 0,-0.0675 -0.24267,-0.16844 -0.5393,-0.22408 -0.81721,-0.15332 -0.86822,-0.43551 -0.79735,-4.39471 z m 76.40048,0.21944 c -0.69283,0.0201 -1.58578,0.3019 -2.21075,0.7237 -0.36679,0.24755 -0.69583,0.45018 -0.73142,0.45018 -0.0356,0 -0.0255,-0.19698 0.0228,-0.43782 0.0488,-0.24388 0.0157,-0.48265 -0.0751,-0.53877 -0.0897,-0.0554 -0.95246,0.0531 -1.91715,0.24105 -1.60631,0.31305 -1.75386,0.37034 -1.75386,0.67888 0,0.25062 0.11699,0.36275 0.45636,0.43731 0.84009,0.18451 0.91366,0.46507 0.91067,3.49485 -0.001,1.50843 -0.0528,2.82051 -0.11436,2.9159 -0.0615,0.0954 -0.40259,0.26005 -0.7582,0.36622 -0.42651,0.12733 -0.64644,0.28002 -0.64644,0.44812 0,0.14015 0.0285,0.28293 0.0634,0.31782 l -5.2e-4,5e-4 c 0.0349,0.0349 1.19866,0.0634 2.58624,0.0634 2.48821,0 2.52288,-0.005 2.52288,-0.33068 0,-0.24743 -0.14308,-0.37688 -0.57019,-0.51612 -0.31377,-0.10228 -0.62099,-0.26187 -0.68249,-0.35437 -0.0615,-0.0925 -0.11283,-1.41259 -0.11382,-2.93392 l -0.002,-2.76652 0.44143,-0.31421 c 0.61226,-0.43623 1.80705,-0.43437 2.27718,0.004 0.18822,0.1754 0.41515,0.5006 0.50376,0.72267 0.21155,0.53037 0.32966,3.86542 0.16791,4.73981 -0.11677,0.63123 -0.1774,0.70218 -0.77571,0.91015 -0.49487,0.17201 -0.6382,0.29488 -0.60471,0.51767 0.0414,0.27525 0.19173,0.2913 2.55379,0.28432 2.40888,-0.008 2.51235,-0.0208 2.55791,-0.31935 0.0381,-0.24927 -0.0742,-0.34402 -0.56402,-0.47594 -0.33637,-0.0906 -0.66564,-0.24846 -0.73193,-0.35077 -0.0663,-0.10233 -0.15835,-1.41801 -0.20448,-2.92414 -0.0709,-2.31519 -0.13234,-2.84484 -0.39558,-3.42789 -0.3696,-0.81862 -1.09055,-1.46934 -1.76932,-1.59625 -0.1328,-0.0248 -0.28206,-0.034 -0.44194,-0.0294 z m -23.8783,0.0387 c -0.68326,0.003 -1.36672,0.12018 -1.88006,0.35129 -2.00498,0.90269 -3.15031,3.15707 -2.65578,5.22862 0.36478,1.52806 1.52754,2.84965 2.97358,3.37947 v -5.2e-4 c 0.80485,0.2949 2.2863,0.29291 3.15953,-0.005 0.9911,-0.3377 2.25187,-1.52454 2.68668,-2.52906 0.45854,-1.05922 0.47005,-2.65866 0.0268,-3.6607 -0.39844,-0.90074 -1.52295,-2.02241 -2.43379,-2.4276 -0.51079,-0.22723 -1.1937,-0.33946 -1.87696,-0.33687 z m 9.15408,0.0747 c -0.0443,0.002 -0.86785,0.16067 -1.83009,0.3518 -1.55509,0.30889 -1.75491,0.38451 -1.79817,0.68043 -0.0363,0.2484 0.029,0.33275 0.25755,0.33275 0.16849,0 0.49871,0.16537 0.73348,0.36725 0.42489,0.36539 0.42689,0.3775 0.51251,2.70007 0.10763,2.91913 0.37408,3.6591 1.58749,4.40862 0.8228,0.50823 2.01231,0.32063 3.23319,-0.50942 l 0.64642,-0.43937 v 0.53054 c 0,0.29193 0.0533,0.56393 0.11847,0.6042 0.23694,0.14644 3.24881,-0.4505 3.38874,-0.67168 0.22029,-0.3482 0.17636,-0.40833 -0.37343,-0.51148 -0.28445,-0.0533 -0.59805,-0.19504 -0.69742,-0.31471 -0.13113,-0.15792 -0.16913,-1.21105 -0.13754,-3.83739 0.0421,-3.50212 0.034,-3.61947 -0.25291,-3.61847 -0.16309,8.1e-4 -0.99819,0.13289 -1.85585,0.29308 -1.42855,0.26681 -1.55915,0.31996 -1.55915,0.63305 0,0.256 0.11409,0.36688 0.45584,0.44194 0.81601,0.17921 0.91324,0.50308 0.91324,3.04981 0,2.22911 -0.0106,2.30784 -0.36518,2.64084 -0.44005,0.41341 -1.39585,0.55657 -1.90839,0.28588 -0.20461,-0.10803 -0.51262,-0.43566 -0.68455,-0.72833 -0.28803,-0.4903 -0.31252,-0.77426 -0.30854,-3.6128 0.002,-1.69439 -0.0315,-3.07861 -0.0757,-3.07661 z m 34.90988,0.01 c -2.20837,-9.9e-4 -2.22471,10e-4 -2.17727,0.33481 0.0321,0.22595 0.17217,0.35297 0.42804,0.38785 0.4333,0.0591 0.91273,0.43562 0.91273,0.71701 0,0.10428 -0.37068,1.138 -0.82363,2.29676 l -0.82361,2.10669 -0.3312,-0.76079 c -0.87022,-1.99913 -1.52851,-3.79143 -1.45924,-3.97181 0.0422,-0.10981 0.30204,-0.25768 0.57793,-0.32915 0.34992,-0.0907 0.50169,-0.21944 0.50169,-0.42494 0,-0.27945 -0.12871,-0.29463 -2.51,-0.29463 -2.38133,0 -2.51053,0.0153 -2.51053,0.29463 0,0.20136 0.14833,0.33316 0.46872,0.41619 0.25782,0.0668 0.58593,0.25053 0.72885,0.40846 0.29685,0.328 3.29037,7.22374 3.29037,7.57948 0,0.12858 -0.2026,0.6542 -0.4502,1.16821 -0.52037,1.08034 -1.17831,1.60522 -2.1649,1.72656 -0.36074,0.0444 -0.74117,0.18817 -0.84576,0.31988 -0.28124,0.35412 -0.23144,0.90122 0.11382,1.24649 0.63016,0.63015 1.9227,0.2662 2.77065,-0.78035 0.70774,-0.87349 0.69033,-0.83725 2.92929,-6.24438 1.06276,-2.56659 2.01316,-4.77691 2.11184,-4.91184 0.0987,-0.13492 0.45244,-0.33863 0.78602,-0.45276 0.40571,-0.13883 0.62236,-0.3108 0.65416,-0.51921 0.0461,-0.30189 -0.0215,-0.31217 -2.17778,-0.31317 z m -44.27824,0.91324 c 1.31473,-0.01 2.3821,1.63871 2.3905,3.96719 0.005,1.31938 -0.31465,2.24036 -0.96629,2.78868 -0.90283,0.75968 -2.25099,0.35083 -2.83554,-0.8602 -1.02425,-2.12195 -0.6832,-5.07316 0.66034,-5.71384 0.25527,-0.12174 0.50752,-0.18004 0.75099,-0.18183 z m -69.36544,1.27896 h 1.32016 c 1.10171,0 1.3918,0.0523 1.74974,0.31781 1.88437,1.39782 1.56968,4.34155 -0.52642,4.92369 -0.31117,0.0864 -0.92033,0.1577 -1.35364,0.15814 -1.25485,10e-4 -1.28051,-0.06 -1.23157,-2.94217 z m 60.32107,12.52274 v 4.42613 4.42561 l 2.09176,-10e-4 c 2.4214,-9.9e-4 3.057,-0.138 3.80287,-0.82156 0.46584,-0.42691 0.55088,-0.61154 0.6078,-1.32016 0.0548,-0.682 0.005,-0.9154 -0.29257,-1.35622 -0.19739,-0.29287 -0.57066,-0.63917 -0.8298,-0.76954 l -0.4713,-0.23694 0.42287,-0.24312 c 0.64581,-0.37064 0.96425,-0.96856 0.96425,-1.81155 0,-0.89747 -0.35385,-1.44834 -1.20942,-1.88315 -0.5002,-0.2542 -0.96804,-0.31298 -2.84276,-0.35644 z m -17.79979,0.0278 v 4.41221 4.41171 h 0.68454 0.68455 v -1.97794 -1.97741 h 2.20611 2.20611 v 1.97741 1.97793 h 0.68454 0.68455 v -4.41171 -4.41221 h -0.68455 -0.68454 v 1.82597 1.82546 h -2.20611 -2.20611 v -1.82546 -1.82597 h -0.68455 z m 9.28028,0 v 3.21516 c 0,2.06507 0.0653,3.43373 0.18284,3.82605 0.22828,0.76191 1.03055,1.55832 1.76725,1.75438 1.5538,0.4135 3.25767,0.0364 4.00273,-0.88596 0.60184,-0.74503 0.7412,-1.69454 0.7412,-5.03959 v -2.87005 h -0.68454 -0.68455 l -0.007,2.77682 c -0.008,3.21064 -0.11496,3.95593 -0.64695,4.48793 -0.50593,0.50593 -1.66687,0.63948 -2.37556,0.273 -0.82684,-0.4276 -0.92613,-0.90004 -0.92613,-4.41376 v -3.12399 h -0.68455 z m 9.8886,1.02245 1.25526,0.0803 c 1.49301,0.0959 2.00704,0.3029 2.25814,0.90913 0.26134,0.63093 0.0294,1.19763 -0.62429,1.52516 -0.36841,0.18459 -0.89179,0.26613 -1.71008,0.2663 h -1.17903 v -1.39064 z m -45.88015,2.9334 c -15.15561,0 -17.54702,0.0299 -17.70604,0.22147 -0.10114,0.12184 -0.13998,0.29282 -0.086,0.38013 0.0673,0.10886 5.66674,0.15865 17.7967,0.15865 14.89602,0 17.71099,-0.0332 17.77866,-0.20964 0.0443,-0.11532 0.004,-0.28624 -0.0901,-0.38013 -0.12415,-0.12411 -4.94554,-0.17048 -17.69316,-0.17048 z m 68.99664,0.0213 c -7.40726,-7.7e-4 -7.751,0.0546 -7.751,0.25702 0,0.15376 0.0458,0.32556 0.10201,0.38168 0.0561,0.0564 8.04891,0.0846 17.76168,0.0634 17.54527,-0.0384 17.65967,-0.0408 17.65967,-0.34306 0,-0.30226 -0.11433,-0.30466 -17.76166,-0.34304 -4.28765,-0.009 -7.54159,-0.0157 -10.01068,-0.016 z m -23.11649,1.04355 h 1.45717 c 1.40749,0 1.4721,0.015 1.90171,0.44452 0.7824,0.78241 0.49315,1.83513 -0.58669,2.13503 -0.31132,0.0865 -1.06276,0.15767 -1.66939,0.15813 l -1.1028,0.001 v -1.36978 z" />
      <path
         id="path80"
         style="fill:#d8e8f0;fill-rule:evenodd;stroke:#1c2a46;stroke-width:1.01204"
         d="m 280.04119,471.69443 a 21.99398,21.99398 0 0 1 -21.99398,21.99398 21.99398,21.99398 0 0 1 -21.99398,-21.99398 21.99398,21.99398 0 0 1 21.99398,-21.99398 21.99398,21.99398 0 0 1 21.99398,21.99398 z" />
      <path
         id="path122"
         style="fill:#7fad86;fill-rule:evenodd;stroke-width:0.394467"
         d="m 249.72564,443.84391 c -0.13387,0 -2.24432,1.32013 -3.76363,2.31782 -2.99174,1.9646 -2.7969,1.7509 -3.43346,3.76079 -0.48593,1.53428 -0.81889,4.46817 -0.22208,4.69719 0.28072,0.10773 0.19066,0.15322 1.94958,-0.9842 0.73463,-0.47507 1.63389,-0.97417 1.99805,-1.10914 1.89502,-0.70233 3.266,0.93005 3.266,3.88895 0,1.60046 -0.39178,2.61133 -1.73798,4.48388 -1.50433,2.09249 -1.98936,3.16363 -1.85968,4.1097 0.10666,0.77814 1.11587,1.31786 1.51857,1.68136 0.13712,0.12379 0.66591,0.47578 1.17534,0.78231 0.91321,0.54946 0.93671,0.55438 1.65347,0.33866 0.39985,-0.12033 0.79802,-0.28977 0.88461,-0.37635 0.0866,-0.0866 0.2588,-0.74486 0.38281,-1.46287 0.26749,-1.54894 0.65365,-2.37315 1.35949,-2.89988 0.28506,-0.21271 1.48439,-0.71458 2.66513,-1.11504 1.18075,-0.40048 2.57513,-0.90298 3.09856,-1.11721 l 0.95191,-0.3898 0.72595,-2.14177 c 0.37333,-1.10144 0.0323,-2.06222 0.19869,-2.75881 0.47731,-1.99839 0.20588,-5.22803 -0.54111,-6.4367 -0.39449,-0.6383 -2.19992,-2.13529 -3.15832,-2.61884 -1.01079,-0.50999 -1.47633,-0.46978 -2.25163,0.19383 -0.39562,0.33864 -0.97377,0.6422 -1.43218,0.75216 -0.67693,0.1624 -0.85648,0.14594 -1.50162,-0.13944 -0.57871,-0.25598 -0.79762,-0.46757 -1.04236,-1.00683 -0.17043,-0.37549 -0.31182,-0.82599 -0.3139,-1.00091 -0.009,-0.69762 -0.32378,-1.44886 -0.57018,-1.44886 z"
         sodipodi:nodetypes="ssssssssssssssssccsssssssscss" />
      <path
         style="fill:#1c2a46"
         d="m 249.58351,442.48734 c -0.74469,-0.006 -1.85398,0.65157 -6.93704,4.11189 -4.34976,2.96113 -6.92108,4.9335 -8.4708,6.49728 -1.18484,1.19559 -6.02878,7.15803 -6.48333,7.98039 -0.24563,0.44439 -0.35175,3.20672 -0.14521,3.77807 0.0632,0.17484 1.89619,1.63123 4.07314,3.23598 l 1.23093,0.90743 0.0109,-0.0145 30.14338,22.27926 2.17248,1.60921 c 0,0 0.9162,1.09586 0.54415,1.21491 -0.0357,0.0255 -0.0767,0.0628 -0.12041,0.10594 -0.0299,0.0596 -0.0596,0.11894 -0.12144,0.20722 -0.20122,0.2873 -0.24442,0.81316 -0.24442,2.9714 v 2.62257 l 0.72502,0.54416 c 0.39875,0.29931 0.87454,0.5458 1.0573,0.5488 0.19966,0.003 1.06138,-0.5954 2.15904,-1.49913 l 1.82676,-1.5043 1.28106,-0.10387 c 2.31294,-0.18767 3.83264,-0.78076 4.41523,-1.72341 0.22795,-0.36884 0.54473,-0.58396 1.22783,-0.83303 0.96642,-0.35237 1.25414,-0.63451 1.84434,-1.81022 l 0.34519,-0.6873 1.02733,-0.0879 c 1.18641,-0.10197 1.49241,-0.31265 2.04691,-1.40611 0.40421,-0.79711 0.7886,-1.02423 1.73219,-1.02423 0.81688,0 1.13051,-0.44589 1.36374,-1.93838 0.10232,-0.65476 0.32346,-1.77048 0.49144,-2.47944 0.45796,-1.93287 0.26559,-2.42061 -1.3534,-3.42356 -0.68183,-0.42239 -1.00208,-0.90004 -1.18804,-1.77405 -0.31875,-1.49821 -1.2875,-2.58901 -2.7957,-3.14762 -0.21522,-0.0797 -0.27025,-0.10715 -0.41651,-0.16226 l -0.005,0.0129 -1.86707,-0.74466 0.003,-0.0119 c -0.59402,-0.23878 -1.59352,-1.4112 -2.47271,-3.03083 -1.18326,-2.17977 -1.92199,-2.93714 -3.81683,-3.9119 -0.91179,-0.46905 -1.72163,-1.02063 -2.17919,-1.48518 -0.64826,-0.65815 -0.74535,-0.84711 -0.88574,-1.72238 -0.15124,-0.94285 -1.12091,-3.13168 -1.82624,-4.12223 -0.33549,-0.47115 -1.30492,-1.07561 -2.17816,-1.35805 -0.48763,-0.15773 -0.76423,-0.146 -1.69189,0.0723 -1.01098,0.23805 -1.14979,0.24013 -1.56941,0.0233 -0.25317,-0.13092 -0.67054,-0.47774 -0.92759,-0.7705 -0.65534,-0.74639 -0.78908,-2.0465 -0.40721,-3.96306 0.20966,-1.05224 0.30168,-2.35869 0.27181,-3.49591 l -0.0269,0.0119 c 0,0 0.0132,-0.24115 -0.01,-0.62218 -0.0112,-0.14983 -0.0216,-0.30012 -0.0382,-0.43822 -0.1116,-0.95775 -0.45293,-2.38119 -1.46502,-3.48557 -0.0892,-0.0916 -0.20105,-0.19995 -0.30179,-0.30128 -0.002,-0.001 -0.003,-0.003 -0.005,-0.004 -0.0986,-0.0894 -0.20261,-0.17589 -0.31213,-0.2589 l 0.0398,-0.0134 c -1.03098,-1.01513 -2.38739,-2.24308 -3.2799,-2.55798 -0.76057,-0.26831 -1.87155,-0.2969 -2.3151,-0.0594 -0.17289,0.0925 -0.62007,0.40155 -0.99374,0.68678 -0.37367,0.28523 -0.77488,0.51832 -0.89142,0.51832 -0.2714,0 -0.46107,-0.37565 -0.57826,-1.14464 -0.0512,-0.33579 -0.31845,-1.10631 -0.59376,-1.71204 -0.50002,-1.10018 -0.5011,-1.10139 -1.11776,-1.10639 z m -0.46044,2.19108 c 0.22081,-0.0847 0.53826,0.72104 0.54726,1.39061 0.002,0.16789 0.1377,0.60028 0.30127,0.96067 0.2349,0.51758 0.44502,0.72066 1.00046,0.96635 0.61921,0.27391 0.79153,0.28971 1.44125,0.13384 0.43997,-0.10554 0.99489,-0.3969 1.3746,-0.72192 0.74413,-0.63694 1.19094,-0.67552 2.1611,-0.18603 0.91987,0.46411 2.65271,1.9009 3.03134,2.51354 0.71696,1.16007 0.97747,4.25987 0.51935,6.17791 -0.15969,0.66859 -0.22168,1.5321 -0.19068,2.6479 l 0.046,1.65572 -0.91364,0.37414 c -0.50238,0.20561 -1.8407,0.68791 -2.97398,1.07228 -1.13327,0.38436 -2.28438,0.86606 -2.55798,1.07022 -0.67746,0.50555 -1.04809,1.29662 -1.30483,2.78329 -0.11902,0.68914 -0.28432,1.32095 -0.36742,1.40405 -0.0831,0.0831 -0.46528,0.24573 -0.84905,0.36122 -0.68795,0.20705 -0.71049,0.20233 -1.58698,-0.32505 -0.48895,-0.2942 -0.99649,-0.63204 -1.1281,-0.75085 -0.38651,-0.34889 -0.89808,-1.49538 -1.00045,-2.24224 -0.12446,-0.90803 0.34105,-1.93611 1.7849,-3.94447 1.29209,-1.79727 1.66812,-2.7675 1.66812,-4.30361 0,-2.83994 -1.31587,-4.40669 -3.1347,-3.73259 -0.34952,0.12954 -1.21262,0.60858 -1.91771,1.06454 -1.68822,1.0917 -1.60176,1.04803 -1.8712,0.94464 -0.57281,-0.21981 -0.7103,-2.40727 -0.24391,-3.87986 0.61096,-1.92909 0.42395,-1.72399 3.2954,-3.6096 1.45824,-0.95758 2.7496,-1.7787 2.86959,-1.8247 z m -2.91093,24.11171 c 1.00754,0.0496 1.97139,0.32415 3.07371,0.83199 1.12413,0.51785 1.33003,0.56262 2.59468,0.55862 0.75552,-0.002 1.69086,-0.0616 2.07842,-0.13229 l 0.70487,-0.12868 0.10077,0.53641 c 0.24575,1.30991 1.69796,2.16585 2.7342,1.61127 0.18262,-0.0977 0.73074,-0.50976 1.21853,-0.91571 0.48779,-0.40594 1.02495,-0.73846 1.19321,-0.73846 0.38016,0 0.7478,0.79212 1.20509,2.59468 0.58465,2.3046 1.23635,3.01413 2.90784,3.1657 0.9089,0.0824 0.94967,0.10472 1.1684,0.6351 0.12465,0.30227 0.39082,0.76692 0.59118,1.0325 l 0.3638,0.48265 -0.64595,0.38189 c -0.86797,0.51261 -1.55874,1.27248 -1.81178,1.99316 -0.1218,0.34689 -0.46215,0.79852 -0.81907,1.08779 -0.33579,0.27215 -0.89137,0.63647 -1.23455,0.80925 l -0.62374,0.3142 -9.525,-6.66213 -9.525,-6.66212 0.91468,-0.27957 c 1.27695,-0.39058 2.32817,-0.56591 3.33571,-0.51625 z m 28.83545,6.66006 c 0.0324,0 0.67118,0.60362 1.41955,1.34152 1.12036,1.1047 1.54959,1.41878 2.42931,1.77818 1.95488,0.79866 2.73604,1.16585 3.01067,1.41439 0.14962,0.1354 0.41489,0.7334 0.58911,1.3286 0.41972,1.434 0.85142,2.06167 1.89343,2.75332 0.77663,0.5155 0.85541,0.61607 0.76481,0.9772 -0.15629,0.62273 -0.32808,0.74399 -1.21027,0.85421 -0.53245,0.0665 -1.07876,0.27102 -1.56011,0.58446 -0.6592,0.42925 -0.8663,0.48293 -1.88515,0.49093 -1.00682,0.008 -1.25037,0.0699 -2.02262,0.51263 -0.8056,0.46182 -0.88637,0.48035 -0.97617,0.22479 -1.0337,-2.94189 -2.01016,-4.19667 -4.59093,-5.89835 -1.50746,-0.99397 -2.94194,-2.23266 -2.94194,-2.54041 0,-0.32115 0.93383,-0.14401 1.68775,0.31988 0.42778,0.26321 1.07505,0.51122 1.44074,0.55242 0.56539,0.0637 0.7225,0.0165 1.0573,-0.31833 0.41512,-0.41515 0.46574,-0.70727 0.40204,-2.32492 -0.0312,-0.79301 0.27078,-2.05052 0.49248,-2.05052 z m -7.44657,4.48654 c 0.38507,0.0195 0.69814,0.22698 0.97616,0.63304 0.61725,0.90154 2.18777,2.25275 3.36052,2.89078 1.90299,1.03532 2.76189,2.13944 3.66231,4.70824 0.25982,0.74122 0.47232,1.37605 0.47232,1.41025 0,0.0342 -0.25725,0.22702 -0.57205,0.42891 -0.58915,0.37783 -0.98681,0.73415 -1.44694,1.29553 -0.23364,0.28509 -0.41892,0.32061 -1.60352,0.31161 -0.84659,-0.007 -1.59135,0.0774 -2.0252,0.22841 -0.37743,0.1314 -0.72023,0.23954 -0.76223,0.2403 -0.042,7.6e-4 -0.0797,-0.43355 -0.0827,-0.96532 -0.006,-0.85644 -0.0794,-1.09002 -0.64544,-2.04277 -0.78087,-1.3144 -1.70401,-2.16173 -3.99821,-3.67058 -0.96836,-0.63686 -1.81752,-1.20592 -1.88722,-1.26452 -0.0697,-0.0586 0.27808,-0.41802 0.77308,-0.79892 0.62976,-0.48458 1.04369,-0.96251 1.37873,-1.59111 0.55619,-1.04353 0.82303,-1.31451 1.62109,-1.64796 0.2913,-0.12172 0.54823,-0.17756 0.77928,-0.16589 z"
         id="path13-5-4" />
      <path
         id="path106-7-3"
         style="fill:#496389;stroke-width:1.01956"
         d="m 275.04309,475.322 c -0.22603,0 -0.53391,1.28212 -0.5021,2.09064 0.065,1.64929 0.0134,1.94712 -0.4099,2.37039 -0.34135,0.34138 -0.50153,0.38949 -1.07798,0.32455 -0.37285,-0.042 -1.03278,-0.29487 -1.46892,-0.56323 -0.76867,-0.47296 -1.72077,-0.65355 -1.72077,-0.32612 0,0.31377 1.46253,1.57668 2.99948,2.5901 2.63125,1.73496 3.62682,3.01428 4.68073,6.01371 0.0916,0.26056 0.17391,0.24167 0.99527,-0.22918 0.78735,-0.45139 1.03566,-0.5145 2.06217,-0.52266 1.03878,-0.008 1.24994,-0.0629 1.92203,-0.50053 0.49077,-0.31957 1.04776,-0.52809 1.59063,-0.59589 0.89944,-0.11238 1.07458,-0.23601 1.23393,-0.87092 0.0924,-0.3682 0.012,-0.47073 -0.77977,-0.99632 -1.06239,-0.70517 -1.50253,-1.34512 -1.93046,-2.80717 -0.17762,-0.60684 -0.44809,-1.21655 -0.60064,-1.3546 -0.28,-0.2534 -1.07643,-0.62776 -3.06955,-1.44204 -0.89692,-0.36643 -1.33455,-0.68666 -2.47682,-1.81297 -0.76301,-0.75233 -1.41429,-1.36776 -1.44733,-1.36776 z" />
      <path
         id="path105-6-1"
         style="fill:#496389;stroke-width:1.00738"
         d="m 246.13966,468.74119 c -1.01498,-0.0501 -2.07397,0.12659 -3.36035,0.52005 l -0.92142,0.28163 9.59533,6.71133 9.59533,6.71131 0.62834,-0.31651 c 0.34571,-0.17406 0.90539,-0.54107 1.24366,-0.81523 0.35956,-0.2914 0.70243,-0.74637 0.82513,-1.09582 0.25491,-0.726 0.95077,-1.49148 1.82515,-2.00787 l 0.65073,-0.38471 -0.3665,-0.48623 c -0.20184,-0.26754 -0.46996,-0.73561 -0.59553,-1.04011 -0.22035,-0.5343 -0.26143,-0.55679 -1.17704,-0.6398 -1.68383,-0.15269 -2.34033,-0.86745 -2.9293,-3.18907 -0.46067,-1.81587 -0.83103,-2.61384 -1.214,-2.61384 -0.1695,0 -0.71062,0.33498 -1.20201,0.74392 -0.49139,0.40894 -1.04356,0.82405 -1.22753,0.92247 -1.04389,0.55867 -2.50682,-0.3036 -2.75439,-1.62318 l -0.10151,-0.54036 -0.71007,0.12963 c -0.39043,0.0712 -1.33268,0.13125 -2.09378,0.13327 -1.27399,0.004 -1.4814,-0.0411 -2.61383,-0.56275 -1.11046,-0.51159 -2.08143,-0.78817 -3.09641,-0.83813 z" />
      <path
         id="rect125"
         style="fill:#7fad86;fill-opacity:1;fill-rule:evenodd;stroke-width:0.258145"
         d="m 267.32303,488.10736 -4.84364,-3.73843 1.7052,-2.07885 c 1.60722,-2.02392 3.34218,-3.27687 3.34218,-3.27687 1.16215,1.19356 3.97244,2.21628 5.95056,4.16437 1.77081,1.74391 2.74468,4.35943 3.39138,6.38389 0,0 -2.10861,0.70087 -3.00151,3.02242 0,0 -2.44659,-1.59613 -4.47051,0.0111 z"
         sodipodi:nodetypes="ccccscccc" />
    </g>
  </g>
</svg>
