<?xml version="1.0" encoding="UTF-8" standalone="no"?>
<!-- Created with Inkscape (http://www.inkscape.org/) -->

<svg
   width="500"
   height="500"
   viewBox="0 0 132.29166 132.29167"
   version="1.1"
   id="svg1"
   inkscape:version="1.4 (86a8ad7, 2024-10-11)"
   sodipodi:docname="buckslogo.svg"
   xmlns:inkscape="http://www.inkscape.org/namespaces/inkscape"
   xmlns:sodipodi="http://sodipodi.sourceforge.net/DTD/sodipodi-0.dtd"
   xmlns="http://www.w3.org/2000/svg"
   xmlns:svg="http://www.w3.org/2000/svg">
  <sodipodi:namedview
     id="namedview1"
     pagecolor="#ffffff"
     bordercolor="#111111"
     borderopacity="1"
     inkscape:showpageshadow="0"
     inkscape:pageopacity="0"
     inkscape:pagecheckerboard="1"
     inkscape:deskcolor="#d1d1d1"
     inkscape:document-units="px"
     inkscape:zoom="0.78573232"
     inkscape:cx="253.26691"
     inkscape:cy="431.44464"
     inkscape:window-width="1920"
     inkscape:window-height="1115"
     inkscape:window-x="-9"
     inkscape:window-y="-9"
     inkscape:window-maximized="1"
     inkscape:current-layer="layer1" />
  <defs
     id="defs1" />
  <g
     inkscape:label="Layer 1"
     inkscape:groupmode="layer"
     id="layer1">
    <g
       id="g128"
       transform="matrix(2.176824,0,0,2.176824,-493.7685,-960.85215)">
      <circle
         style="opacity:1;fill:#d8e8f0;fill-opacity:1;fill-rule:evenodd;stroke:#1c2a46;stroke-width:1.01204;stroke-dasharray:none;stroke-opacity:1"
         id="path80"
         cx="258.04721"
         cy="471.69443"
         r="21.99398" />
      <g
         id="g127">
        <path
           id="path122"
           style="fill:#7fad86;fill-rule:evenodd;stroke-width:0.394467"
           d="m 249.72564,443.84391 c -0.13387,0 -2.24432,1.32013 -3.76363,2.31782 -2.99174,1.9646 -2.7969,1.7509 -3.43346,3.76079 -0.48593,1.53428 -0.81889,4.46817 -0.22208,4.69719 0.28072,0.10773 0.19066,0.15322 1.94958,-0.9842 0.73463,-0.47507 1.63389,-0.97417 1.99805,-1.10914 1.89502,-0.70233 3.266,0.93005 3.266,3.88895 0,1.60046 -0.39178,2.61133 -1.73798,4.48388 -1.50433,2.09249 -1.98936,3.16363 -1.85968,4.1097 0.10666,0.77814 1.11587,1.31786 1.51857,1.68136 0.13712,0.12379 0.66591,0.47578 1.17534,0.78231 0.91321,0.54946 0.93671,0.55438 1.65347,0.33866 0.39985,-0.12033 0.79802,-0.28977 0.88461,-0.37635 0.0866,-0.0866 0.2588,-0.74486 0.38281,-1.46287 0.26749,-1.54894 0.65365,-2.37315 1.35949,-2.89988 0.28506,-0.21271 1.48439,-0.71458 2.66513,-1.11504 1.18075,-0.40048 2.57513,-0.90298 3.09856,-1.11721 l 0.95191,-0.3898 0.72595,-2.14177 c 0.37333,-1.10144 0.0323,-2.06222 0.19869,-2.75881 0.47731,-1.99839 0.20588,-5.22803 -0.54111,-6.4367 -0.39449,-0.6383 -2.19992,-2.13529 -3.15832,-2.61884 -1.01079,-0.50999 -1.47633,-0.46978 -2.25163,0.19383 -0.39562,0.33864 -0.97377,0.6422 -1.43218,0.75216 -0.67693,0.1624 -0.85648,0.14594 -1.50162,-0.13944 -0.57871,-0.25598 -0.79762,-0.46757 -1.04236,-1.00683 -0.17043,-0.37549 -0.31182,-0.82599 -0.3139,-1.00091 -0.009,-0.69762 -0.32378,-1.44886 -0.57018,-1.44886 z"
           sodipodi:nodetypes="ssssssssssssssssccsssssssscss" />
        <path
           style="fill:#1c2a46"
           d="m 249.58351,442.48734 c -0.74469,-0.006 -1.85398,0.65157 -6.93704,4.11189 -4.34976,2.96113 -6.92108,4.9335 -8.4708,6.49728 -1.18484,1.19559 -6.02878,7.15803 -6.48333,7.98039 -0.24563,0.44439 -0.35175,3.20672 -0.14521,3.77807 0.0632,0.17484 1.89619,1.63123 4.07314,3.23598 l 1.23093,0.90743 0.0109,-0.0145 30.14338,22.27926 2.17248,1.60921 c 0,0 0.9162,1.09586 0.54415,1.21491 -0.0357,0.0255 -0.0767,0.0628 -0.12041,0.10594 -0.0299,0.0596 -0.0596,0.11894 -0.12144,0.20722 -0.20122,0.2873 -0.24442,0.81316 -0.24442,2.9714 v 2.62257 l 0.72502,0.54416 c 0.39875,0.29931 0.87454,0.5458 1.0573,0.5488 0.19966,0.003 1.06138,-0.5954 2.15904,-1.49913 l 1.82676,-1.5043 1.28106,-0.10387 c 2.31294,-0.18767 3.83264,-0.78076 4.41523,-1.72341 0.22795,-0.36884 0.54473,-0.58396 1.22783,-0.83303 0.96642,-0.35237 1.25414,-0.63451 1.84434,-1.81022 l 0.34519,-0.6873 1.02733,-0.0879 c 1.18641,-0.10197 1.49241,-0.31265 2.04691,-1.40611 0.40421,-0.79711 0.7886,-1.02423 1.73219,-1.02423 0.81688,0 1.13051,-0.44589 1.36374,-1.93838 0.10232,-0.65476 0.32346,-1.77048 0.49144,-2.47944 0.45796,-1.93287 0.26559,-2.42061 -1.3534,-3.42356 -0.68183,-0.42239 -1.00208,-0.90004 -1.18804,-1.77405 -0.31875,-1.49821 -1.2875,-2.58901 -2.7957,-3.14762 -0.21522,-0.0797 -0.27025,-0.10715 -0.41651,-0.16226 l -0.005,0.0129 -1.86707,-0.74466 0.003,-0.0119 c -0.59402,-0.23878 -1.59352,-1.4112 -2.47271,-3.03083 -1.18326,-2.17977 -1.92199,-2.93714 -3.81683,-3.9119 -0.91179,-0.46905 -1.72163,-1.02063 -2.17919,-1.48518 -0.64826,-0.65815 -0.74535,-0.84711 -0.88574,-1.72238 -0.15124,-0.94285 -1.12091,-3.13168 -1.82624,-4.12223 -0.33549,-0.47115 -1.30492,-1.07561 -2.17816,-1.35805 -0.48763,-0.15773 -0.76423,-0.146 -1.69189,0.0723 -1.01098,0.23805 -1.14979,0.24013 -1.56941,0.0233 -0.25317,-0.13092 -0.67054,-0.47774 -0.92759,-0.7705 -0.65534,-0.74639 -0.78908,-2.0465 -0.40721,-3.96306 0.20966,-1.05224 0.30168,-2.35869 0.27181,-3.49591 l -0.0269,0.0119 c 0,0 0.0132,-0.24115 -0.01,-0.62218 -0.0112,-0.14983 -0.0216,-0.30012 -0.0382,-0.43822 -0.1116,-0.95775 -0.45293,-2.38119 -1.46502,-3.48557 -0.0892,-0.0916 -0.20105,-0.19995 -0.30179,-0.30128 -0.002,-0.001 -0.003,-0.003 -0.005,-0.004 -0.0986,-0.0894 -0.20261,-0.17589 -0.31213,-0.2589 l 0.0398,-0.0134 c -1.03098,-1.01513 -2.38739,-2.24308 -3.2799,-2.55798 -0.76057,-0.26831 -1.87155,-0.2969 -2.3151,-0.0594 -0.17289,0.0925 -0.62007,0.40155 -0.99374,0.68678 -0.37367,0.28523 -0.77488,0.51832 -0.89142,0.51832 -0.2714,0 -0.46107,-0.37565 -0.57826,-1.14464 -0.0512,-0.33579 -0.31845,-1.10631 -0.59376,-1.71204 -0.50002,-1.10018 -0.5011,-1.10139 -1.11776,-1.10639 z m -0.46044,2.19108 c 0.22081,-0.0847 0.53826,0.72104 0.54726,1.39061 0.002,0.16789 0.1377,0.60028 0.30127,0.96067 0.2349,0.51758 0.44502,0.72066 1.00046,0.96635 0.61921,0.27391 0.79153,0.28971 1.44125,0.13384 0.43997,-0.10554 0.99489,-0.3969 1.3746,-0.72192 0.74413,-0.63694 1.19094,-0.67552 2.1611,-0.18603 0.91987,0.46411 2.65271,1.9009 3.03134,2.51354 0.71696,1.16007 0.97747,4.25987 0.51935,6.17791 -0.15969,0.66859 -0.22168,1.5321 -0.19068,2.6479 l 0.046,1.65572 -0.91364,0.37414 c -0.50238,0.20561 -1.8407,0.68791 -2.97398,1.07228 -1.13327,0.38436 -2.28438,0.86606 -2.55798,1.07022 -0.67746,0.50555 -1.04809,1.29662 -1.30483,2.78329 -0.11902,0.68914 -0.28432,1.32095 -0.36742,1.40405 -0.0831,0.0831 -0.46528,0.24573 -0.84905,0.36122 -0.68795,0.20705 -0.71049,0.20233 -1.58698,-0.32505 -0.48895,-0.2942 -0.99649,-0.63204 -1.1281,-0.75085 -0.38651,-0.34889 -0.89808,-1.49538 -1.00045,-2.24224 -0.12446,-0.90803 0.34105,-1.93611 1.7849,-3.94447 1.29209,-1.79727 1.66812,-2.7675 1.66812,-4.30361 0,-2.83994 -1.31587,-4.40669 -3.1347,-3.73259 -0.34952,0.12954 -1.21262,0.60858 -1.91771,1.06454 -1.68822,1.0917 -1.60176,1.04803 -1.8712,0.94464 -0.57281,-0.21981 -0.7103,-2.40727 -0.24391,-3.87986 0.61096,-1.92909 0.42395,-1.72399 3.2954,-3.6096 1.45824,-0.95758 2.7496,-1.7787 2.86959,-1.8247 z m -2.91093,24.11171 c 1.00754,0.0496 1.97139,0.32415 3.07371,0.83199 1.12413,0.51785 1.33003,0.56262 2.59468,0.55862 0.75552,-0.002 1.69086,-0.0616 2.07842,-0.13229 l 0.70487,-0.12868 0.10077,0.53641 c 0.24575,1.30991 1.69796,2.16585 2.7342,1.61127 0.18262,-0.0977 0.73074,-0.50976 1.21853,-0.91571 0.48779,-0.40594 1.02495,-0.73846 1.19321,-0.73846 0.38016,0 0.7478,0.79212 1.20509,2.59468 0.58465,2.3046 1.23635,3.01413 2.90784,3.1657 0.9089,0.0824 0.94967,0.10472 1.1684,0.6351 0.12465,0.30227 0.39082,0.76692 0.59118,1.0325 l 0.3638,0.48265 -0.64595,0.38189 c -0.86797,0.51261 -1.55874,1.27248 -1.81178,1.99316 -0.1218,0.34689 -0.46215,0.79852 -0.81907,1.08779 -0.33579,0.27215 -0.89137,0.63647 -1.23455,0.80925 l -0.62374,0.3142 -9.525,-6.66213 -9.525,-6.66212 0.91468,-0.27957 c 1.27695,-0.39058 2.32817,-0.56591 3.33571,-0.51625 z m 28.83545,6.66006 c 0.0324,0 0.67118,0.60362 1.41955,1.34152 1.12036,1.1047 1.54959,1.41878 2.42931,1.77818 1.95488,0.79866 2.73604,1.16585 3.01067,1.41439 0.14962,0.1354 0.41489,0.7334 0.58911,1.3286 0.41972,1.434 0.85142,2.06167 1.89343,2.75332 0.77663,0.5155 0.85541,0.61607 0.76481,0.9772 -0.15629,0.62273 -0.32808,0.74399 -1.21027,0.85421 -0.53245,0.0665 -1.07876,0.27102 -1.56011,0.58446 -0.6592,0.42925 -0.8663,0.48293 -1.88515,0.49093 -1.00682,0.008 -1.25037,0.0699 -2.02262,0.51263 -0.8056,0.46182 -0.88637,0.48035 -0.97617,0.22479 -1.0337,-2.94189 -2.01016,-4.19667 -4.59093,-5.89835 -1.50746,-0.99397 -2.94194,-2.23266 -2.94194,-2.54041 0,-0.32115 0.93383,-0.14401 1.68775,0.31988 0.42778,0.26321 1.07505,0.51122 1.44074,0.55242 0.56539,0.0637 0.7225,0.0165 1.0573,-0.31833 0.41512,-0.41515 0.46574,-0.70727 0.40204,-2.32492 -0.0312,-0.79301 0.27078,-2.05052 0.49248,-2.05052 z m -7.44657,4.48654 c 0.38507,0.0195 0.69814,0.22698 0.97616,0.63304 0.61725,0.90154 2.18777,2.25275 3.36052,2.89078 1.90299,1.03532 2.76189,2.13944 3.66231,4.70824 0.25982,0.74122 0.47232,1.37605 0.47232,1.41025 0,0.0342 -0.25725,0.22702 -0.57205,0.42891 -0.58915,0.37783 -0.98681,0.73415 -1.44694,1.29553 -0.23364,0.28509 -0.41892,0.32061 -1.60352,0.31161 -0.84659,-0.007 -1.59135,0.0774 -2.0252,0.22841 -0.37743,0.1314 -0.72023,0.23954 -0.76223,0.2403 -0.042,7.6e-4 -0.0797,-0.43355 -0.0827,-0.96532 -0.006,-0.85644 -0.0794,-1.09002 -0.64544,-2.04277 -0.78087,-1.3144 -1.70401,-2.16173 -3.99821,-3.67058 -0.96836,-0.63686 -1.81752,-1.20592 -1.88722,-1.26452 -0.0697,-0.0586 0.27808,-0.41802 0.77308,-0.79892 0.62976,-0.48458 1.04369,-0.96251 1.37873,-1.59111 0.55619,-1.04353 0.82303,-1.31451 1.62109,-1.64796 0.2913,-0.12172 0.54823,-0.17756 0.77928,-0.16589 z"
           id="path13-5-4" />
        <path
           id="path106-7-3"
           style="fill:#496389;stroke-width:1.01956"
           d="m 275.04309,475.322 c -0.22603,0 -0.53391,1.28212 -0.5021,2.09064 0.065,1.64929 0.0134,1.94712 -0.4099,2.37039 -0.34135,0.34138 -0.50153,0.38949 -1.07798,0.32455 -0.37285,-0.042 -1.03278,-0.29487 -1.46892,-0.56323 -0.76867,-0.47296 -1.72077,-0.65355 -1.72077,-0.32612 0,0.31377 1.46253,1.57668 2.99948,2.5901 2.63125,1.73496 3.62682,3.01428 4.68073,6.01371 0.0916,0.26056 0.17391,0.24167 0.99527,-0.22918 0.78735,-0.45139 1.03566,-0.5145 2.06217,-0.52266 1.03878,-0.008 1.24994,-0.0629 1.92203,-0.50053 0.49077,-0.31957 1.04776,-0.52809 1.59063,-0.59589 0.89944,-0.11238 1.07458,-0.23601 1.23393,-0.87092 0.0924,-0.3682 0.012,-0.47073 -0.77977,-0.99632 -1.06239,-0.70517 -1.50253,-1.34512 -1.93046,-2.80717 -0.17762,-0.60684 -0.44809,-1.21655 -0.60064,-1.3546 -0.28,-0.2534 -1.07643,-0.62776 -3.06955,-1.44204 -0.89692,-0.36643 -1.33455,-0.68666 -2.47682,-1.81297 -0.76301,-0.75233 -1.41429,-1.36776 -1.44733,-1.36776 z" />
        <path
           id="path105-6-1"
           style="fill:#496389;stroke-width:1.00738"
           d="m 246.13966,468.74119 c -1.01498,-0.0501 -2.07397,0.12659 -3.36035,0.52005 l -0.92142,0.28163 9.59533,6.71133 9.59533,6.71131 0.62834,-0.31651 c 0.34571,-0.17406 0.90539,-0.54107 1.24366,-0.81523 0.35956,-0.2914 0.70243,-0.74637 0.82513,-1.09582 0.25491,-0.726 0.95077,-1.49148 1.82515,-2.00787 l 0.65073,-0.38471 -0.3665,-0.48623 c -0.20184,-0.26754 -0.46996,-0.73561 -0.59553,-1.04011 -0.22035,-0.5343 -0.26143,-0.55679 -1.17704,-0.6398 -1.68383,-0.15269 -2.34033,-0.86745 -2.9293,-3.18907 -0.46067,-1.81587 -0.83103,-2.61384 -1.214,-2.61384 -0.1695,0 -0.71062,0.33498 -1.20201,0.74392 -0.49139,0.40894 -1.04356,0.82405 -1.22753,0.92247 -1.04389,0.55867 -2.50682,-0.3036 -2.75439,-1.62318 l -0.10151,-0.54036 -0.71007,0.12963 c -0.39043,0.0712 -1.33268,0.13125 -2.09378,0.13327 -1.27399,0.004 -1.4814,-0.0411 -2.61383,-0.56275 -1.11046,-0.51159 -2.08143,-0.78817 -3.09641,-0.83813 z" />
        <path
           id="rect125"
           style="fill:#7fad86;fill-opacity:1;fill-rule:evenodd;stroke-width:0.258145"
           d="m 267.32303,488.10736 -4.84364,-3.73843 1.7052,-2.07885 c 1.60722,-2.02392 3.34218,-3.27687 3.34218,-3.27687 1.16215,1.19356 3.97244,2.21628 5.95056,4.16437 1.77081,1.74391 2.74468,4.35943 3.39138,6.38389 0,0 -2.10861,0.70087 -3.00151,3.02242 0,0 -2.44659,-1.59613 -4.47051,0.0111 z"
           sodipodi:nodetypes="ccccscccc" />
      </g>
    </g>
  </g>
</svg>
