<svg xmlns="http://www.w3.org/2000/svg" viewBox="0 0 79.375 26.458">
  <path d="M327.065 459.713c-.186.007-.556.086-.953.21-.53.165-1.33.342-1.777.395-.502.06-.845.18-.898.318-.13.337.04.498.522.498.923 0 .915-.048.913 5.83 0 2.944-.041 5.499-.09 5.678-.06.228-.291.384-.758.515-.457.128-.67.27-.67.447 0 .143.028.288.063.323.034.034 1.198.063 2.586.063 2.482 0 2.523-.006 2.523-.328 0-.252-.15-.375-.647-.533l-.646-.204-.117-1.512c-.064-.832-.06-1.568.008-1.636.069-.068.798.636 1.622 1.565 1.154 1.302 1.449 1.72 1.285 1.824a.951.951 0 0 1-.414.137c-.118 0-.18.136-.152.327.048.315.12.325 2.521.342 2.441.017 2.473.014 2.473-.312 0-.238-.12-.357-.425-.424-.781-.171-1.34-.644-3.16-2.673l-1.808-2.016.604-.528c1.2-1.05 2.673-1.992 3.273-2.093.449-.076.602-.174.602-.384 0-.155-.06-.32-.136-.367-.075-.046-1.068-.04-2.206.015-1.839.088-2.07.13-2.07.368 0 .175.16.304.457.369.251.055.456.19.456.3 0 .304-2.571 2.514-2.924 2.514-.16 0-.141-4.654.03-6.998.076-1.046.09-1.95.03-2.01-.014-.015-.056-.022-.117-.02zm-32.386.737c-3.534 0-3.655.01-3.655.3 0 .23.149.328.654.428.495.098.69.222.8.51.198.523.189 10.64-.01 11.014-.086.159-.428.362-.762.452-.484.13-.605.233-.605.514v.35l2.32-.053c5.144-.121 5.306-.135 6.2-.541 1.188-.54 1.917-1.312 2.217-2.344.463-1.59-.154-3.136-1.612-4.043l-.76-.473.426-.26c.557-.338 1.225-1.14 1.344-1.613.052-.207.063-.746.026-1.198-.099-1.183-.659-1.926-1.926-2.55l-1.002-.493zm59.102.1a8.003 8.003 0 0 0-.323.01c-1.227.058-1.624.145-2.468.54-2.53 1.184-4.059 3.626-4.055 6.476.003 1.953.488 3.215 1.799 4.675.794.884 2.13 1.708 3.162 1.95 1.84.432 6.054-.145 6.436-.88.238-.46.667-2.565.572-2.811-.052-.136-.254-.248-.45-.248-.288 0-.406.144-.628.762-.492 1.369-1.88 2.282-3.466 2.282-2.368 0-4.025-1.582-4.628-4.417-.592-2.786.308-5.637 2.134-6.761.674-.415.872-.46 1.978-.457.949.003 1.407.084 2.012.355.908.406 1.273.756 1.772 1.699.235.444.461.68.652.68.266 0 .295-.135.33-1.52.021-.837-.014-1.603-.078-1.702-.184-.282-3.056-.65-4.751-.632zm-57.334.92c1.572.03 2.306.822 2.325 2.49.012 1.045-.29 1.653-.991 1.991-.425.206-1.88.36-2.387.254-.344-.072-.346-.087-.304-2.381l.042-2.309.989-.041c.112-.005.22-.006.326-.004zm100.412 1.846c-.224-.017-.617.308-1.294.966-.599.583-1.278 1.176-1.508 1.318-.274.169-.419.387-.419.634 0 .345.058.377.686.377h.684v2.881c0 1.671.068 3.06.162 3.309.216.57.724 1.106 1.283 1.354 1.243.552 3.689-.242 3.363-1.092-.062-.161-.186-.21-.36-.14-1.05.415-1.892.191-2.159-.575-.087-.252-.159-1.642-.159-3.09v-2.634l1.249-.045c1.188-.042 1.253-.062 1.344-.424.16-.627-.085-.76-1.395-.76h-1.198v-.994c0-.71-.055-1.068-.28-1.085zm-57.926 1.503c-2.027.041-3.384 1.183-3.22 2.888.093.971.757 1.673 2.438 2.578 1.732.932 2.174 1.731 1.392 2.513-.333.333-.49.38-1.05.318-.846-.096-1.475-.549-1.818-1.31-.248-.55-.7-.879-.915-.665-.112.112-.105 1.032.014 1.753.113.678.522.948 1.758 1.156 2.2.37 4.181-.631 4.455-2.25.213-1.262-.539-2.294-2.329-3.197-1.354-.684-1.853-1.16-1.853-1.766 0-.691.34-.987 1.132-.987.811 0 1.331.382 1.668 1.225.2.5.315.613.589.574.32-.046.337-.114.307-1.176-.018-.62-.087-1.183-.154-1.25-.067-.067-.618-.207-1.224-.31a6.294 6.294 0 0 0-1.19-.094zm-19.992.06c-1.536-.01-2.61.474-3.47 1.562-.797 1.008-1.014 1.669-1.007 3.061.01 2.1 1.008 3.536 3.032 4.371.26.108.886.166 1.46.136 1.589-.082 3.18-1.092 3.18-2.018 0-.441.023-.441-.783.018-1.27.722-2.662.69-3.54-.082-.735-.645-1.02-1.478-1.025-2.985-.004-1.487.382-2.498 1.096-2.867.87-.45 1.423-.251 2.123.766.792 1.15 1.676 1.028 1.97-.275.147-.653-.014-.843-1.14-1.344-.553-.246-1.061-.338-1.896-.343zm-6.751.035-.39.078c-.215.044-1.057.198-1.873.343-1.358.242-1.483.293-1.483.606 0 .253.114.367.44.438.888.196 1 .5 1.057 2.882.051 2.151.05 2.165-.352 2.642-.807.958-2.293.753-2.767-.382-.295-.706-.436-3.662-.246-5.174.076-.605.095-1.172.041-1.26-.066-.106-.697-.04-1.912.199-1.389.273-1.825.416-1.863.61-.033.175.146.33.582.505.39.156.685.394.772.622.077.203.14 1.148.14 2.1 0 2.73.358 3.821 1.51 4.597.853.575 2.327.364 3.452-.494.272-.208.534-.377.581-.377.047 0 .086.274.086.608 0 .693-.022.686 1.37.38.543-.12 1.203-.22 1.466-.222.434-.005.663-.215.663-.61 0-.067-.243-.168-.54-.224-.817-.153-.868-.435-.797-4.394zm76.4.219c-.693.02-1.586.302-2.21.724-.367.247-.696.45-.732.45-.036 0-.026-.197.023-.438.049-.244.015-.483-.075-.539-.09-.055-.953.053-1.917.241-1.607.313-1.754.37-1.754.68 0 .25.117.362.456.437.84.184.914.465.91 3.494 0 1.509-.052 2.82-.114 2.916-.061.096-.402.26-.758.367-.426.127-.646.28-.646.448 0 .14.028.283.063.317.034.036 1.198.064 2.586.064 2.488 0 2.523-.005 2.523-.33 0-.248-.143-.377-.57-.516-.314-.103-.621-.262-.683-.355-.061-.092-.113-1.412-.114-2.934l-.002-2.766.442-.314c.612-.437 1.807-.435 2.277.004.188.175.415.5.504.722.211.53.33 3.866.167 4.74-.116.631-.177.702-.775.91-.495.172-.638.295-.605.518.041.275.192.291 2.554.284 2.409-.008 2.512-.02 2.558-.32.038-.248-.074-.343-.564-.475-.337-.09-.666-.249-.732-.35-.066-.103-.159-1.419-.205-2.925-.07-2.315-.132-2.845-.395-3.428-.37-.819-1.09-1.47-1.77-1.596a2.102 2.102 0 0 0-.442-.03zm-23.878.039c-.683.003-1.367.12-1.88.351-2.005.903-3.15 3.157-2.656 5.229.365 1.528 1.528 2.85 2.974 3.38v-.001c.804.294 2.286.292 3.16-.005.99-.338 2.251-1.525 2.686-2.53.458-1.059.47-2.658.027-3.66-.399-.9-1.523-2.023-2.434-2.428-.511-.227-1.194-.34-1.877-.337zm9.154.074c-.044.002-.868.161-1.83.352-1.555.31-1.755.385-1.798.68-.037.249.029.333.257.333.169 0 .499.166.734.368.425.365.427.377.512 2.7.108 2.919.374 3.659 1.588 4.408.822.509 2.012.321 3.233-.51l.646-.438v.53c0 .292.054.564.119.604.237.147 3.249-.45 3.389-.671.22-.349.176-.409-.374-.512-.284-.053-.598-.195-.697-.315-.131-.158-.17-1.21-.138-3.837.042-3.502.034-3.62-.253-3.618-.163 0-.998.132-1.856.293-1.428.266-1.559.32-1.559.633 0 .256.114.367.456.442.816.179.913.503.913 3.05 0 2.229-.01 2.307-.365 2.64-.44.414-1.396.557-1.908.286-.205-.108-.513-.436-.685-.728-.288-.49-.312-.774-.308-3.613.002-1.694-.032-3.079-.076-3.077zm34.91.01c-2.209 0-2.225.001-2.177.335.032.226.172.353.428.388.433.06.912.436.912.717 0 .104-.37 1.138-.823 2.297l-.824 2.107-.331-.761c-.87-2-1.529-3.792-1.46-3.972.043-.11.303-.258.579-.33.35-.09.501-.219.501-.424 0-.28-.128-.295-2.51-.295-2.381 0-2.51.016-2.51.295 0 .201.148.333.468.416.258.067.586.25.73.408.296.328 3.29 7.224 3.29 7.58 0 .129-.203.654-.45 1.168-.52 1.08-1.179 1.605-2.165 1.727-.361.044-.742.188-.846.32-.281.354-.232.9.114 1.246.63.63 1.922.266 2.77-.78.708-.874.69-.837 2.93-6.245 1.062-2.566 2.013-4.777 2.111-4.911.1-.135.453-.34.786-.453.406-.14.623-.311.655-.52.046-.301-.022-.312-2.178-.313zm-44.278.914c1.314-.01 2.382 1.638 2.39 3.967.005 1.32-.315 2.24-.966 2.789-.903.76-2.251.35-2.836-.86-1.024-2.123-.683-5.074.66-5.715.256-.121.508-.18.752-.181zm-69.366 1.279h1.32c1.102 0 1.392.052 1.75.317 1.884 1.398 1.57 4.342-.526 4.924-.312.087-.92.158-1.354.158-1.255.001-1.28-.06-1.232-2.942zm60.321 12.522v8.852h2.092c2.421-.002 3.057-.139 3.803-.822.466-.427.55-.612.608-1.32.054-.683.005-.916-.293-1.357-.197-.293-.57-.639-.83-.77l-.471-.236.423-.243c.646-.371.964-.969.964-1.812 0-.897-.354-1.448-1.21-1.883-.5-.254-.967-.313-2.842-.357zm-17.8.028v8.824H339.022v-3.955h4.413v3.955H344.804V480H343.435v3.652h-4.413v-3.652h-.684zm9.28 0v3.215c0 2.065.066 3.434.184 3.826.228.762 1.03 1.559 1.767 1.755 1.554.413 3.257.036 4.003-.886.601-.745.74-1.695.74-5.04V480h-1.368l-.007 2.777c-.008 3.21-.115 3.956-.647 4.488-.506.506-1.667.64-2.376.273-.827-.428-.926-.9-.926-4.414V480h-.685zm9.89 1.023 1.255.08c1.493.096 2.007.303 2.258.909.261.631.03 1.198-.625 1.525-.368.185-.891.266-1.71.266h-1.179v-1.39zm-45.88 2.933c-15.156 0-17.548.03-17.707.221-.101.122-.14.293-.086.38.067.11 5.667.16 17.797.16 14.896 0 17.71-.034 17.778-.21a.39.39 0 0 0-.09-.38c-.124-.125-4.945-.171-17.693-.171zm68.996.021c-7.407 0-7.751.055-7.751.257 0 .154.046.326.102.382.056.056 8.049.085 17.761.063 17.546-.038 17.66-.04 17.66-.343 0-.302-.114-.304-17.762-.343a5658.95 5658.95 0 0 0-10.01-.016zm-23.117 1.044h1.457c1.408 0 1.473.015 1.902.444.783.783.493 1.835-.587 2.135-.31.087-1.062.158-1.669.159h-1.103v-1.37z" style="fill:#222c45;fill-opacity:1;stroke-width:.996748" transform="matrix(.4132 0 0 .4132 -92.203 -181.71)"/>
  <path d="M280.041 471.694a21.994 21.994 0 0 1-21.994 21.994 21.994 21.994 0 0 1-21.994-21.994 21.994 21.994 0 0 1 21.994-21.994 21.994 21.994 0 0 1 21.994 21.994z" style="fill:#d8e8f0;fill-rule:evenodd;stroke:#1c2a46;stroke-width:1.01204" transform="matrix(.4132 0 0 .4132 -92.203 -181.71)"/>
  <path d="M249.726 443.844c-.134 0-2.245 1.32-3.764 2.318-2.992 1.964-2.797 1.75-3.433 3.76-.486 1.535-.82 4.469-.223 4.698.281.107.191.153 1.95-.984.735-.476 1.634-.975 1.998-1.11 1.895-.702 3.266.93 3.266 3.89 0 1.6-.392 2.61-1.738 4.483-1.504 2.093-1.99 3.164-1.86 4.11.107.778 1.116 1.318 1.519 1.681.137.124.666.476 1.175.783.914.549.937.554 1.654.338.4-.12.798-.29.884-.376.087-.087.26-.745.383-1.463.268-1.549.654-2.373 1.36-2.9.285-.213 1.484-.714 2.665-1.115 1.18-.4 2.575-.903 3.098-1.117l.952-.39.726-2.142c.374-1.101.033-2.062.199-2.759.477-1.998.206-5.228-.541-6.436-.395-.639-2.2-2.135-3.158-2.619-1.011-.51-1.477-.47-2.252.194-.396.338-.974.642-1.432.752-.677.162-.857.146-1.502-.14-.579-.255-.798-.467-1.042-1.006-.17-.376-.312-.826-.314-1.001-.01-.698-.324-1.45-.57-1.45z" style="fill:#7fad86;fill-rule:evenodd;stroke-width:.394467" transform="matrix(.4132 0 0 .4132 -92.203 -181.71)"/>
  <path d="M249.584 442.487c-.745-.006-1.854.652-6.938 4.112-4.35 2.961-6.92 4.934-8.47 6.498-1.185 1.195-6.03 7.158-6.484 7.98-.245.444-.351 3.207-.145 3.778.063.175 1.896 1.631 4.073 3.236l1.231.907.011-.014 30.143 22.28 2.173 1.608s.916 1.096.544 1.215a1.072 1.072 0 0 0-.12.106c-.03.06-.06.12-.122.207-.201.288-.244.814-.244 2.972v2.622l.725.545c.399.299.874.545 1.057.548.2.003 1.062-.595 2.16-1.499l1.826-1.504 1.281-.104c2.313-.188 3.833-.78 4.415-1.723.228-.37.545-.584 1.228-.833.966-.353 1.254-.635 1.844-1.81l.346-.688 1.027-.088c1.186-.102 1.492-.312 2.047-1.406.404-.797.788-1.024 1.732-1.024.817 0 1.13-.446 1.364-1.939.102-.654.323-1.77.491-2.479.458-1.933.266-2.42-1.353-3.424-.682-.422-1.002-.9-1.188-1.774-.319-1.498-1.288-2.589-2.796-3.147-.215-.08-.27-.107-.416-.162l-.005.012-1.868-.744.003-.012c-.594-.239-1.593-1.411-2.472-3.03-1.183-2.18-1.922-2.938-3.817-3.913-.912-.469-1.722-1.02-2.18-1.485-.647-.658-.745-.847-.885-1.722-.151-.943-1.12-3.132-1.826-4.123-.336-.47-1.305-1.075-2.178-1.358-.488-.157-.765-.146-1.692.073-1.011.238-1.15.24-1.57.023-.253-.131-.67-.478-.927-.77-.656-.747-.79-2.047-.407-3.964.21-1.052.301-2.358.271-3.496l-.027.012s.014-.24-.01-.622c-.01-.15-.021-.3-.038-.438-.111-.958-.453-2.381-1.465-3.486-.089-.091-.2-.2-.302-.3l-.005-.005a4.612 4.612 0 0 0-.312-.259l.04-.013c-1.03-1.015-2.387-2.243-3.28-2.558-.76-.268-1.871-.297-2.315-.06-.173.093-.62.402-.994.687-.373.285-.775.519-.891.519-.271 0-.461-.376-.578-1.145-.052-.336-.319-1.106-.594-1.712-.5-1.1-.501-1.102-1.118-1.107zm-.46 2.191c.22-.084.537.721.546 1.391.002.168.138.6.302.96.234.518.445.721 1 .967.62.274.792.29 1.441.134.44-.106.995-.397 1.375-.722.744-.637 1.19-.676 2.161-.186.92.464 2.653 1.9 3.031 2.513.717 1.16.978 4.26.52 6.178-.16.669-.222 1.532-.191 2.648l.046 1.656-.914.374c-.502.206-1.84.688-2.974 1.072-1.133.385-2.284.866-2.558 1.07-.677.506-1.048 1.297-1.304 2.784-.12.69-.285 1.32-.368 1.404-.083.083-.465.246-.849.361-.688.207-.71.203-1.587-.325-.489-.294-.996-.632-1.128-.75-.386-.35-.898-1.496-1-2.243-.125-.908.34-1.936 1.784-3.944 1.293-1.798 1.669-2.768 1.669-4.304 0-2.84-1.316-4.407-3.135-3.733-.35.13-1.213.609-1.918 1.065-1.688 1.092-1.602 1.048-1.871.945-.573-.22-.71-2.408-.244-3.88.611-1.93.424-1.724 3.295-3.61 1.459-.957 2.75-1.779 2.87-1.825zm-2.912 24.112c1.008.05 1.972.324 3.074.832 1.124.518 1.33.563 2.595.559.755-.002 1.69-.062 2.078-.133l.705-.128.1.536c.246 1.31 1.699 2.166 2.735 1.611.182-.097.73-.51 1.218-.915.488-.406 1.025-.739 1.194-.739.38 0 .747.792 1.205 2.595.584 2.305 1.236 3.014 2.907 3.166.91.082.95.104 1.169.635.125.302.39.767.591 1.032l.364.483-.646.382c-.868.512-1.559 1.272-1.812 1.993-.122.347-.462.798-.819 1.088a8.345 8.345 0 0 1-1.235.809l-.623.314-9.525-6.662-9.525-6.662.914-.28c1.277-.39 2.329-.566 3.336-.516zm28.836 6.66c.032 0 .67.604 1.42 1.342 1.12 1.104 1.549 1.418 2.428 1.778 1.955.799 2.736 1.166 3.011 1.414.15.136.415.734.59 1.329.419 1.434.85 2.062 1.893 2.753.776.516.855.616.764.977-.156.623-.328.744-1.21.855a3.759 3.759 0 0 0-1.56.584c-.66.43-.866.483-1.885.491-1.007.008-1.25.07-2.023.513-.805.461-.886.48-.976.224-1.034-2.941-2.01-4.196-4.59-5.898-1.508-.994-2.943-2.233-2.943-2.54 0-.321.934-.144 1.688.32.428.263 1.075.51 1.44.552.566.064.723.016 1.058-.318.415-.416.466-.708.402-2.325-.031-.793.27-2.05.493-2.05zm-7.447 4.487c.385.02.698.227.976.633.617.901 2.188 2.253 3.36 2.89 1.904 1.036 2.763 2.14 3.663 4.709.26.741.472 1.376.472 1.41 0 .034-.257.227-.572.429-.589.378-.987.734-1.447 1.295-.233.286-.419.321-1.603.312-.847-.007-1.592.077-2.025.228-.378.132-.72.24-.763.24-.042.002-.08-.433-.082-.965-.006-.856-.08-1.09-.646-2.042-.78-1.315-1.704-2.162-3.998-3.67a75.921 75.921 0 0 1-1.887-1.265c-.07-.059.278-.418.773-.8.63-.484 1.044-.962 1.379-1.59.556-1.044.823-1.315 1.62-1.648.292-.122.549-.178.78-.166z" style="fill:#1c2a46" transform="matrix(.4132 0 0 .4132 -92.203 -181.71)"/>
  <path d="M275.043 475.322c-.226 0-.534 1.282-.502 2.09.065 1.65.013 1.948-.41 2.371-.341.341-.501.39-1.078.325-.373-.042-1.033-.295-1.469-.564-.768-.473-1.72-.653-1.72-.326 0 .314 1.462 1.577 2.999 2.59 2.631 1.735 3.627 3.015 4.68 6.014.092.26.175.242.996-.23.787-.45 1.036-.514 2.062-.522 1.039-.008 1.25-.063 1.922-.5a3.832 3.832 0 0 1 1.59-.596c.9-.113 1.075-.236 1.235-.871.092-.368.012-.47-.78-.996-1.063-.706-1.503-1.346-1.93-2.808-.178-.606-.449-1.216-.601-1.354-.28-.254-1.077-.628-3.07-1.442-.897-.367-1.334-.687-2.477-1.813-.763-.753-1.414-1.368-1.447-1.368z" style="fill:#496389;stroke-width:1.01956" transform="matrix(.4132 0 0 .4132 -92.203 -181.71)"/>
  <path d="M246.14 468.741c-1.015-.05-2.074.127-3.36.52l-.922.282 9.595 6.711 9.596 6.712.628-.317a8.407 8.407 0 0 0 1.244-.815c.36-.292.702-.747.825-1.096.255-.726.95-1.492 1.825-2.008l.65-.385-.366-.486a5.679 5.679 0 0 1-.595-1.04c-.22-.534-.262-.557-1.178-.64-1.683-.152-2.34-.867-2.929-3.189-.46-1.816-.83-2.614-1.214-2.614-.17 0-.71.335-1.202.744-.491.41-1.043.824-1.227.923-1.044.558-2.507-.304-2.755-1.623l-.101-.54-.71.129c-.39.071-1.333.131-2.094.133-1.274.004-1.481-.041-2.614-.563-1.11-.511-2.081-.788-3.096-.838z" style="fill:#496389;stroke-width:1.00738" transform="matrix(.4132 0 0 .4132 -92.203 -181.71)"/>
  <path d="m267.323 488.107-4.844-3.738 1.706-2.079c1.607-2.024 3.342-3.277 3.342-3.277 1.162 1.194 3.972 2.216 5.95 4.165 1.771 1.743 2.745 4.359 3.392 6.383 0 0-2.109.701-3.002 3.023 0 0-2.446-1.596-4.47.011z" style="fill:#7fad86;fill-opacity:1;fill-rule:evenodd;stroke-width:.258145" transform="matrix(.4132 0 0 .4132 -92.203 -181.71)"/>
</svg>
