<svg xmlns="http://www.w3.org/2000/svg" viewBox="0 0 132.292 132.292">
  <g transform="matrix(2.17682 0 0 2.17682 -493.769 -960.852)">
    <circle cx="258.047" cy="471.694" r="21.994" style="opacity:1;fill:#d8e8f0;fill-opacity:1;fill-rule:evenodd;stroke:#1c2a46;stroke-width:1.01204;stroke-dasharray:none;stroke-opacity:1"/>
    <path d="M249.726 443.844c-.134 0-2.245 1.32-3.764 2.318-2.992 1.964-2.797 1.75-3.433 3.76-.486 1.535-.82 4.469-.223 4.698.281.107.191.153 1.95-.984.735-.476 1.634-.975 1.998-1.11 1.895-.702 3.266.93 3.266 3.89 0 1.6-.392 2.61-1.738 4.483-1.504 2.093-1.99 3.164-1.86 4.11.107.778 1.116 1.318 1.519 1.681.137.124.666.476 1.175.783.914.549.937.554 1.654.338.4-.12.798-.29.884-.376.087-.087.26-.745.383-1.463.268-1.549.654-2.373 1.36-2.9.285-.213 1.484-.714 2.665-1.115 1.18-.4 2.575-.903 3.098-1.117l.952-.39.726-2.142c.374-1.101.033-2.062.199-2.759.477-1.998.206-5.228-.541-6.436-.395-.639-2.2-2.135-3.158-2.619-1.011-.51-1.477-.47-2.252.194-.396.338-.974.642-1.432.752-.677.162-.857.146-1.502-.14-.579-.255-.798-.467-1.042-1.006-.17-.376-.312-.826-.314-1.001-.01-.698-.324-1.45-.57-1.45z" style="fill:#7fad86;fill-rule:evenodd;stroke-width:.394467"/>
    <path d="M249.584 442.487c-.745-.006-1.854.652-6.938 4.112-4.35 2.961-6.92 4.934-8.47 6.498-1.185 1.195-6.03 7.158-6.484 7.98-.245.444-.351 3.207-.145 3.778.063.175 1.896 1.631 4.073 3.236l1.231.907.011-.014 30.143 22.28 2.173 1.608s.916 1.096.544 1.215a1.072 1.072 0 0 0-.12.106c-.03.06-.06.12-.122.207-.201.288-.244.814-.244 2.972v2.622l.725.545c.399.299.874.545 1.057.548.2.003 1.062-.595 2.16-1.499l1.826-1.504 1.281-.104c2.313-.188 3.833-.78 4.415-1.723.228-.37.545-.584 1.228-.833.966-.353 1.254-.635 1.844-1.81l.346-.688 1.027-.088c1.186-.102 1.492-.312 2.047-1.406.404-.797.788-1.024 1.732-1.024.817 0 1.13-.446 1.364-1.939.102-.654.323-1.77.491-2.479.458-1.933.266-2.42-1.353-3.424-.682-.422-1.002-.9-1.188-1.774-.319-1.498-1.288-2.589-2.796-3.147-.215-.08-.27-.107-.416-.162l-.005.012-1.868-.744.003-.012c-.594-.239-1.593-1.411-2.472-3.03-1.183-2.18-1.922-2.938-3.817-3.913-.912-.469-1.722-1.02-2.18-1.485-.647-.658-.745-.847-.885-1.722-.151-.943-1.12-3.132-1.826-4.123-.336-.47-1.305-1.075-2.178-1.358-.488-.157-.765-.146-1.692.073-1.011.238-1.15.24-1.57.023-.253-.131-.67-.478-.927-.77-.656-.747-.79-2.047-.407-3.964.21-1.052.301-2.358.271-3.496l-.027.012s.014-.24-.01-.622c-.01-.15-.021-.3-.038-.438-.111-.958-.453-2.381-1.465-3.486-.089-.091-.2-.2-.302-.3l-.005-.005a4.612 4.612 0 0 0-.312-.259l.04-.013c-1.03-1.015-2.387-2.243-3.28-2.558-.76-.268-1.871-.297-2.315-.06-.173.093-.62.402-.994.687-.373.285-.775.519-.891.519-.271 0-.461-.376-.578-1.145-.052-.336-.319-1.106-.594-1.712-.5-1.1-.501-1.102-1.118-1.107zm-.46 2.191c.22-.084.537.721.546 1.391.002.168.138.6.302.96.234.518.445.721 1 .967.62.274.792.29 1.441.134.44-.106.995-.397 1.375-.722.744-.637 1.19-.676 2.161-.186.92.464 2.653 1.9 3.031 2.513.717 1.16.978 4.26.52 6.178-.16.669-.222 1.532-.191 2.648l.046 1.656-.914.374c-.502.206-1.84.688-2.974 1.072-1.133.385-2.284.866-2.558 1.07-.677.506-1.048 1.297-1.304 2.784-.12.69-.285 1.32-.368 1.404-.083.083-.465.246-.849.361-.688.207-.71.203-1.587-.325-.489-.294-.996-.632-1.128-.75-.386-.35-.898-1.496-1-2.243-.125-.908.34-1.936 1.784-3.944 1.293-1.798 1.669-2.768 1.669-4.304 0-2.84-1.316-4.407-3.135-3.733-.35.13-1.213.609-1.918 1.065-1.688 1.092-1.602 1.048-1.871.945-.573-.22-.71-2.408-.244-3.88.611-1.93.424-1.724 3.295-3.61 1.459-.957 2.75-1.779 2.87-1.825zm-2.912 24.112c1.008.05 1.972.324 3.074.832 1.124.518 1.33.563 2.595.559.755-.002 1.69-.062 2.078-.133l.705-.128.1.536c.246 1.31 1.699 2.166 2.735 1.611.182-.097.73-.51 1.218-.915.488-.406 1.025-.739 1.194-.739.38 0 .747.792 1.205 2.595.584 2.305 1.236 3.014 2.907 3.166.91.082.95.104 1.169.635.125.302.39.767.591 1.032l.364.483-.646.382c-.868.512-1.559 1.272-1.812 1.993-.122.347-.462.798-.819 1.088a8.345 8.345 0 0 1-1.235.809l-.623.314-9.525-6.662-9.525-6.662.914-.28c1.277-.39 2.329-.566 3.336-.516zm28.836 6.66c.032 0 .67.604 1.42 1.342 1.12 1.104 1.549 1.418 2.428 1.778 1.955.799 2.736 1.166 3.011 1.414.15.136.415.734.59 1.329.419 1.434.85 2.062 1.893 2.753.776.516.855.616.764.977-.156.623-.328.744-1.21.855a3.759 3.759 0 0 0-1.56.584c-.66.43-.866.483-1.885.491-1.007.008-1.25.07-2.023.513-.805.461-.886.48-.976.224-1.034-2.941-2.01-4.196-4.59-5.898-1.508-.994-2.943-2.233-2.943-2.54 0-.321.934-.144 1.688.32.428.263 1.075.51 1.44.552.566.064.723.016 1.058-.318.415-.416.466-.708.402-2.325-.031-.793.27-2.05.493-2.05zm-7.447 4.487c.385.02.698.227.976.633.617.901 2.188 2.253 3.36 2.89 1.904 1.036 2.763 2.14 3.663 4.709.26.741.472 1.376.472 1.41 0 .034-.257.227-.572.429-.589.378-.987.734-1.447 1.295-.233.286-.419.321-1.603.312-.847-.007-1.592.077-2.025.228-.378.132-.72.24-.763.24-.042.002-.08-.433-.082-.965-.006-.856-.08-1.09-.646-2.042-.78-1.315-1.704-2.162-3.998-3.67a75.921 75.921 0 0 1-1.887-1.265c-.07-.059.278-.418.773-.8.63-.484 1.044-.962 1.379-1.59.556-1.044.823-1.315 1.62-1.648.292-.122.549-.178.78-.166z" style="fill:#1c2a46"/>
    <path d="M275.043 475.322c-.226 0-.534 1.282-.502 2.09.065 1.65.013 1.948-.41 2.371-.341.341-.501.39-1.078.325-.373-.042-1.033-.295-1.469-.564-.768-.473-1.72-.653-1.72-.326 0 .314 1.462 1.577 2.999 2.59 2.631 1.735 3.627 3.015 4.68 6.014.092.26.175.242.996-.23.787-.45 1.036-.514 2.062-.522 1.039-.008 1.25-.063 1.922-.5a3.832 3.832 0 0 1 1.59-.596c.9-.113 1.075-.236 1.235-.871.092-.368.012-.47-.78-.996-1.063-.706-1.503-1.346-1.93-2.808-.178-.606-.449-1.216-.601-1.354-.28-.254-1.077-.628-3.07-1.442-.897-.367-1.334-.687-2.477-1.813-.763-.753-1.414-1.368-1.447-1.368z" style="fill:#496389;stroke-width:1.01956"/>
    <path d="M246.14 468.741c-1.015-.05-2.074.127-3.36.52l-.922.282 9.595 6.711 9.596 6.712.628-.317a8.407 8.407 0 0 0 1.244-.815c.36-.292.702-.747.825-1.096.255-.726.95-1.492 1.825-2.008l.65-.385-.366-.486a5.679 5.679 0 0 1-.595-1.04c-.22-.534-.262-.557-1.178-.64-1.683-.152-2.34-.867-2.929-3.189-.46-1.816-.83-2.614-1.214-2.614-.17 0-.71.335-1.202.744-.491.41-1.043.824-1.227.923-1.044.558-2.507-.304-2.755-1.623l-.101-.54-.71.129c-.39.071-1.333.131-2.094.133-1.274.004-1.481-.041-2.614-.563-1.11-.511-2.081-.788-3.096-.838z" style="fill:#496389;stroke-width:1.00738"/>
    <path d="m267.323 488.107-4.844-3.738 1.706-2.079c1.607-2.024 3.342-3.277 3.342-3.277 1.162 1.194 3.972 2.216 5.95 4.165 1.771 1.743 2.745 4.359 3.392 6.383 0 0-2.109.701-3.002 3.023 0 0-2.446-1.596-4.47.011z" style="fill:#7fad86;fill-opacity:1;fill-rule:evenodd;stroke-width:.258145"/>
  </g>
</svg>
