<svg class="icon" xmlns="http://www.w3.org/2000/svg" fill="none" viewBox="0 0 1000 284" aria-hidden="true"><path fill="#096db6" d="M34.243 57.267c35.238-44.227 99.912-51.54 144.139-16.302 28.883 23.025 43.214 59.995 37.375 96.485-1.253 7.81-8.584 13.134-16.376 11.881-7.81-1.252-13.115-8.602-11.881-16.394 4.2-26.322-6.116-52.995-26.949-69.592-31.885-25.401-78.507-20.133-103.927 11.753-25.42 31.904-20.152 78.507 11.752 103.927 20.612 16.431 48.666 20.631 73.239 10.978 7.35-2.892 15.657.719 18.549 8.087 2.892 7.349-.718 15.657-8.068 18.549-34.059 13.392-72.962 7.552-101.55-15.215C6.317 166.167-.995 101.512 34.242 57.267"></path><path fill="#096db6" d="M143.089 103.17c1.418-7.773 8.878-12.931 16.633-11.513 7.792 1.419 12.931 8.861 11.531 16.634-4.771 26.23 4.992 53.106 25.439 70.163 31.351 26.101 78.065 21.828 104.166-9.524 26.083-31.351 21.81-78.065-9.523-104.148-20.262-16.873-48.224-21.662-72.981-12.544-7.423 2.726-15.639-1.068-18.384-8.473-2.726-7.405 1.05-15.64 8.474-18.384 34.317-12.655 73.091-5.986 101.182 17.389 43.472 36.177 49.404 100.998 13.208 144.452-36.178 43.472-100.98 49.403-144.452 13.207-28.386-23.615-41.906-60.897-35.293-97.277m808.208 132.847c2.008 0 3.61.608 4.807 1.805s1.898 2.966 2.1 5.268h-14.423q.553-3.399 2.487-5.25c1.934-1.851 2.966-1.842 5.029-1.842m11.715 9.413c0-4.218-1.05-7.515-3.168-9.892-2.1-2.376-4.992-3.555-8.676-3.555-2.524 0-4.771.59-6.76 1.787-1.99 1.197-3.519 2.855-4.624 5.029s-1.639 4.623-1.639 7.405c0 4.365 1.234 7.791 3.721 10.297 2.486 2.505 5.912 3.757 10.26 3.757q2.873 0 5.691-.939c1.898-.626 3.445-1.492 4.679-2.56l-1.676-3.887c-2.597 2.044-5.452 3.076-8.584 3.076-5.618 0-8.51-3.187-8.694-9.56h19.452v-.921zm-29.436-13.447q-2.817 0-5.084 1.437c-1.51.958-2.634 2.339-3.352 4.126l-.479-4.918h-5.084c.295 2.266.442 4.826.442 7.663v19.562h5.397v-15.178c0-2.266.626-4.145 1.861-5.637s3.113-2.247 5.581-2.247c1.16 0 2.21.184 3.187.534l.11-4.973a9.4 9.4 0 0 0-2.597-.369m-34.667 23.928q-3.73 0-5.802-2.542c-1.382-1.694-2.082-4.071-2.082-7.128s.7-5.527 2.082-7.276c1.381-1.75 3.297-2.616 5.747-2.616s4.402.847 5.747 2.542 2.026 4.108 2.026 7.239-.681 5.508-2.026 7.221-3.261 2.56-5.692 2.56m7.718-23.283v4.439c-.829-1.621-2.008-2.873-3.573-3.758-1.548-.884-3.371-1.326-5.453-1.326-2.339 0-4.439.59-6.263 1.787-1.842 1.197-3.26 2.855-4.292 5.029-1.031 2.173-1.547 4.642-1.547 7.46s.497 5.268 1.511 7.368 2.431 3.739 4.236 4.9c1.824 1.16 3.942 1.731 6.355 1.731 2.082 0 3.924-.423 5.489-1.289a8.33 8.33 0 0 0 3.537-3.721v4.642h5.397v-27.225h-5.397zm-38.517 27.667c2.634 0 5.066-.405 7.313-1.216q3.371-1.215 5.692-3.536l-1.953-4.108c-1.805 1.474-3.573 2.542-5.323 3.224q-2.625.994-5.692.994c-3.997 0-7.092-1.308-9.265-3.923q-3.261-3.924-3.261-11.163c0-7.239 1.087-8.473 3.261-11.071 2.173-2.597 5.268-3.886 9.265-3.886 2.045 0 3.961.331 5.692.995 1.75.663 3.518 1.731 5.323 3.205l1.953-4.108q-2.321-2.32-5.692-3.537c-2.247-.81-4.697-1.216-7.313-1.216-3.702 0-6.944.793-9.689 2.377q-4.117 2.376-6.355 6.797c-1.473 2.947-2.21 6.428-2.21 10.426 0 3.997.737 7.534 2.21 10.481 1.474 2.947 3.592 5.231 6.355 6.834s5.987 2.413 9.689 2.413m-45.221-.424h5.397v-39.769h-5.397zm-21.129-3.942q-3.729 0-5.802-2.542c-1.381-1.694-2.081-4.071-2.081-7.128s.7-5.527 2.081-7.276c1.382-1.75 3.297-2.616 5.747-2.616s4.403.847 5.747 2.542 2.027 4.108 2.027 7.239-.682 5.508-2.027 7.221c-1.344 1.713-3.242 2.56-5.692 2.56m7.737-23.283v4.439c-.829-1.621-2.008-2.873-3.574-3.758-1.547-.884-3.37-1.326-5.452-1.326-2.339 0-4.421.59-6.263 1.787s-3.26 2.855-4.292 5.029q-1.547 3.233-1.547 7.46c0 4.227.497 5.268 1.51 7.368s2.432 3.739 4.237 4.9c1.824 1.16 3.942 1.731 6.355 1.731 2.082 0 3.924-.423 5.489-1.289a8.33 8.33 0 0 0 3.537-3.721v4.642h5.397v-27.225h-5.397zm-37.062-.645c-2.081 0-3.96.461-5.581 1.382q-2.459 1.381-3.758 3.979l-.479-4.698h-5.084c.295 2.266.424 4.826.424 7.663v19.563h5.397v-15.51c0-2.413.7-4.348 2.082-5.784 1.381-1.437 3.242-2.155 5.544-2.155 2.026 0 3.482.534 4.403 1.621s1.381 2.799 1.381 5.176v16.633h5.453v-16.965c0-7.276-3.261-10.905-9.782-10.905m-34.206 23.928q-3.73 0-5.747-2.487c-1.345-1.657-2.026-4.089-2.026-7.294s.681-5.545 2.044-7.239c1.363-1.695 3.297-2.542 5.784-2.542s4.347.847 5.692 2.542 2.026 4.108 2.026 7.239-.663 5.637-2.007 7.294c-1.327 1.658-3.261 2.487-5.784 2.487m.073 4.329c2.634 0 4.955-.571 6.963-1.732 2.026-1.16 3.574-2.799 4.679-4.918q1.658-3.177 1.658-7.46c0-4.283-.553-5.342-1.658-7.479-1.105-2.136-2.653-3.794-4.679-4.936s-4.347-1.732-6.963-1.732-5.01.571-7.018 1.732c-2.026 1.16-3.573 2.8-4.679 4.936-1.105 2.137-1.657 4.642-1.657 7.479s.552 5.323 1.657 7.46c1.106 2.119 2.653 3.758 4.679 4.918s4.347 1.732 7.018 1.732m-25.604-33.764h6.318v-5.729h-6.318zm.479 33.377h5.397v-27.225h-5.397zm-5.01-23.007v-4.218h-7.516v-8.694l-5.452 1.897v6.815h-5.287v4.219h5.287v14.11q0 4.53 2.321 6.907c1.547 1.584 3.721 2.376 6.539 2.376 1.51 0 2.855-.202 4.052-.589v-4.439a9.9 9.9 0 0 1-2.873.423q-2.156 0-3.371-1.16-1.216-1.16-1.216-3.979v-13.668zm-35.717 19.065q-3.73 0-5.803-2.542c-1.381-1.694-2.081-4.071-2.081-7.128s.7-5.527 2.081-7.276c1.382-1.75 3.298-2.616 5.747-2.616 2.45 0 4.403.847 5.748 2.542 1.344 1.694 2.026 4.108 2.026 7.239s-.682 5.508-2.026 7.221c-1.345 1.713-3.242 2.56-5.692 2.56m7.718-23.283v4.439a9 9 0 0 0-3.555-3.758c-1.548-.884-3.371-1.326-5.453-1.326-2.339 0-4.439.59-6.263 1.787-1.842 1.197-3.26 2.855-4.292 5.029-1.031 2.173-1.547 4.642-1.547 7.46s.498 5.268 1.511 7.368 2.413 3.739 4.236 4.9c1.824 1.16 3.942 1.731 6.355 1.731 2.082 0 3.924-.423 5.49-1.289a8.33 8.33 0 0 0 3.536-3.721v4.642h5.397v-27.225h-5.397zm-36.399-.645c-2.026 0-3.831.461-5.434 1.4-1.602.94-2.818 2.211-3.647 3.832-1.289-3.5-4.052-5.232-8.271-5.232-1.989 0-3.702.442-5.194 1.345-1.474.903-2.616 2.173-3.408 3.831l-.479-4.531h-5.084c.295 2.266.424 4.826.424 7.663v19.562h5.397v-15.399c0-2.487.608-4.44 1.842-5.895q1.824-2.155 4.974-2.155c1.805 0 3.113.534 3.923 1.621.811 1.087 1.216 2.782 1.216 5.139v16.689h5.452v-15.399c0-2.487.608-4.44 1.805-5.895 1.198-1.437 2.856-2.155 4.937-2.155 1.805 0 3.113.534 3.924 1.621s1.215 2.782 1.215 5.139v16.689h5.453v-16.965c0-7.276-3.021-10.905-9.081-10.905m-37.799 0c-1.879 0-3.555.479-5.084 1.437-1.51.958-2.634 2.339-3.352 4.126l-.479-4.918h-5.084c.294 2.266.423 4.826.423 7.663v19.562h5.397v-15.178c0-2.266.627-4.145 1.861-5.637s3.113-2.247 5.6-2.247c1.16 0 2.21.184 3.186.534l.111-4.973a9.4 9.4 0 0 0-2.597-.369m-33.249 23.928q-3.73 0-5.747-2.487c-1.345-1.657-2.026-4.089-2.026-7.294s.681-5.545 2.044-7.239c1.363-1.695 3.298-2.542 5.784-2.542 2.487 0 4.347.847 5.692 2.542s2.026 4.108 2.026 7.239-.663 5.637-1.989 7.294-3.26 2.487-5.784 2.487m.055 4.329c2.634 0 4.955-.571 6.963-1.732 2.026-1.16 3.574-2.799 4.679-4.918 1.105-2.118 1.639-4.605 1.639-7.46s-.552-5.342-1.639-7.479c-1.105-2.136-2.653-3.794-4.679-4.936s-4.347-1.732-6.963-1.732-5.01.571-7.018 1.732c-2.026 1.16-3.573 2.8-4.679 4.936-1.105 2.137-1.639 4.642-1.639 7.479s.553 5.323 1.639 7.46c1.106 2.119 2.653 3.758 4.679 4.918 2.008 1.161 4.347 1.732 7.018 1.732m-18.917-35.772c.865 0 1.786.147 2.763.423v-4.476c-1.198-.368-2.505-.534-3.942-.534q-4.173 0-6.466 2.376c-2.293 2.376-2.302 3.887-2.302 6.908v3.463h-5.25v4.218h5.25v23.007h5.452v-23.007h6.374v-4.218h-6.374v-3.021q0-5.139 4.476-5.139m-28.883 35.772c3.39 0 6.061-.718 8.032-2.137 1.97-1.418 2.947-3.352 2.947-5.802 0-1.99-.626-3.592-1.861-4.826-1.234-1.253-3.168-2.155-5.747-2.727l-4.642-1.142c-1.326-.331-2.302-.773-2.91-1.344s-.921-1.327-.921-2.266c0-1.197.479-2.118 1.455-2.781s2.339-.995 4.108-.995c2.91 0 5.692 1.05 8.326 3.131l1.676-3.831c-1.234-1.124-2.708-1.989-4.458-2.597s-3.592-.921-5.544-.921c-3.242 0-5.839.755-7.81 2.265s-2.948 3.5-2.948 5.95c0 1.916.627 3.5 1.861 4.789 1.252 1.271 3.058 2.174 5.434 2.671l4.531 1.087c1.584.405 2.708.866 3.371 1.437.663.552.995 1.326.995 2.302 0 1.161-.479 2.045-1.455 2.671-.977.627-2.395.94-4.274.94-3.666 0-6.944-1.087-9.781-3.242l-1.621 3.942c2.745 2.302 6.484 3.463 11.236 3.463m-27.059-28.294c-2.082 0-3.96.461-5.6 1.382q-2.459 1.381-3.758 3.979l-.479-4.698h-5.084c.295 2.266.424 4.826.424 7.663v19.563h5.397v-15.51c0-2.413.7-4.348 2.082-5.784 1.381-1.437 3.242-2.155 5.544-2.155 2.008 0 3.482.534 4.403 1.621s1.381 2.799 1.381 5.176v16.633h5.453v-16.965c0-7.276-3.261-10.905-9.782-10.905m-35.587 23.928q-3.73 0-5.803-2.542c-1.381-1.694-2.081-4.071-2.081-7.128s.7-5.527 2.081-7.276c1.382-1.75 3.297-2.616 5.747-2.616s4.403.847 5.747 2.542 2.027 4.108 2.027 7.239-.682 5.508-2.027 7.221c-1.344 1.713-3.242 2.56-5.71 2.56m7.737-23.283v4.439a9 9 0 0 0-3.556-3.758c-1.547-.884-3.37-1.326-5.452-1.326-2.339 0-4.421.59-6.263 1.787s-3.26 2.855-4.292 5.029q-1.547 3.233-1.547 7.46c0 4.227.497 5.268 1.51 7.368 1.014 2.1 2.413 3.739 4.237 4.9 1.824 1.16 3.942 1.731 6.355 1.731 2.082 0 3.924-.423 5.489-1.289a8.33 8.33 0 0 0 3.537-3.721v4.642h5.397v-27.225h-5.397zm-25.715-.645c-1.879 0-3.555.479-5.084 1.437-1.511.958-2.634 2.339-3.353 4.126l-.479-4.918h-5.084c.295 2.266.424 4.826.424 7.663v19.562h5.397v-15.178c0-2.266.627-4.145 1.861-5.637 1.252-1.492 3.113-2.247 5.6-2.247 1.16 0 2.21.184 3.186.534l.111-4.973a9.4 9.4 0 0 0-2.598-.369m-32.603 27.87h5.618v-33.82h13.023v-4.641h-31.665v4.641h13.024z"></path><path fill="#1a2f5a" d="M484.509 100.481c-3.537-7.295-11.882-21.68-32.531-21.68-27.943 0-37.964 23.356-37.964 40.874 0 20.023 12.729 41.077 37.541 41.077 16.265 0 27.317-9.376 32.751-21.276h24.186c-8.75 25.66-31.278 41.078-56.937 41.078-37.965 0-59.222-31.075-59.222-60.898 0-31.296 22.934-60.695 59.443-60.695 32.751 0 52.35 24.407 56.734 41.501h-23.983zm90.922-21.68c-26.691 0-39.622 23.153-39.622 41.297 0 20.852 16.486 40.672 39.419 40.672 22.934 0 40.249-18.567 40.249-40.672 0-24.61-17.721-41.298-40.046-41.298m39.64 98.842v-17.941h-.423c-8.345 14.184-23.56 20.852-39.217 20.852-38.996 0-61.321-29.823-61.321-60.271 0-28.147 19.802-61.322 61.321-61.322 16.062 0 30.872 6.669 39.217 19.397h.423V62.093h21.681v115.55zm49.109 0V62.093h20.225v10.426h.406c9.173-12.931 23.983-13.355 31.259-13.558v22.307c-5.195 0-12.286 1.456-17.481 4.182-6.889 3.757-12.728 12.507-12.728 28.993v63.2zM781.093 78.8c-24.406 0-40.672 20.226-40.672 40.875s16.487 41.077 40.672 41.077c24.186 0 40.672-19.397 40.672-41.298 0-20.447-16.265-40.672-40.672-40.672m0 101.79c-38.793 0-62.352-32.327-62.352-61.524 0-31.498 26.488-60.068 62.352-60.068 35.865 0 62.353 27.52 62.353 60.474 0 28.146-23.154 61.1-62.353 61.1m160.367-2.911v-62.776c0-8.971 0-36.085-28.772-36.085-18.144 0-30.449 12.728-30.449 35.864v62.979h-21.681V62.075h20.226v12.304h.424c11.678-15.436 29.196-15.436 33.782-15.436 17.942 0 32.531 7.718 40.875 20.65 4.587 7.515 7.092 16.688 7.294 29.619v68.413H941.46zm35.644-111.977c-.553-.313-1.456-.46-2.69-.46h-1.897v4.568h2.008c.939 0 1.639-.092 2.118-.276.866-.35 1.308-.995 1.308-1.971 0-.921-.276-1.529-.847-1.842m-2.395-2.008c1.566 0 2.708.147 3.445.46 1.307.535 1.952 1.603 1.952 3.187 0 1.124-.405 1.953-1.234 2.487-.424.276-1.05.479-1.824.608.977.147 1.713.57 2.156 1.234.46.663.681 1.326.681 1.952v.921c0 .295 0 .608.037.94q.027.498.11.663l.074.147h-2.081s-.019-.092-.037-.128c0-.037-.019-.093-.037-.148l-.037-.405V74.6c0-1.455-.405-2.413-1.197-2.892-.479-.276-1.29-.405-2.469-.405h-1.749v4.955h-2.229v-12.6h4.402zm-6.76-.645c-1.916 1.934-2.874 4.255-2.874 6.982s.958 5.084 2.855 7.036c1.916 1.934 4.237 2.91 6.982 2.91s5.065-.976 6.981-2.91 2.873-4.273 2.873-7.036-.957-5.066-2.873-6.982c-1.934-1.934-4.255-2.91-6.981-2.91s-5.048.976-6.963 2.91m15.104 15.123q-3.37 3.371-8.123 3.371c-4.753 0-5.876-1.123-8.105-3.37-2.229-2.248-3.334-4.956-3.334-8.142s1.124-5.858 3.352-8.087c2.229-2.229 4.919-3.352 8.087-3.352s5.894 1.123 8.123 3.352c2.248 2.229 3.353 4.918 3.353 8.087s-1.124 5.894-3.353 8.141"></path></svg>