<?xml version="1.0" encoding="UTF-8" standalone="no"?>
<!-- Created with Inkscape (http://www.inkscape.org/) -->

<svg
   width="500"
   height="175"
   viewBox="0 0 132.29166 46.302084"
   version="1.1"
   id="svg1"
   xml:space="preserve"
   sodipodi:docname="chescoconnect.svg"
   inkscape:version="1.4 (86a8ad7, 2024-10-11)"
   xmlns:inkscape="http://www.inkscape.org/namespaces/inkscape"
   xmlns:sodipodi="http://sodipodi.sourceforge.net/DTD/sodipodi-0.dtd"
   xmlns="http://www.w3.org/2000/svg"
   xmlns:svg="http://www.w3.org/2000/svg"><sodipodi:namedview
     id="namedview1"
     pagecolor="#ffffff"
     bordercolor="#111111"
     borderopacity="1"
     inkscape:showpageshadow="0"
     inkscape:pageopacity="0"
     inkscape:pagecheckerboard="1"
     inkscape:deskcolor="#d1d1d1"
     inkscape:document-units="px"
     showgrid="false"
     inkscape:zoom="0.78573232"
     inkscape:cx="197.2682"
     inkscape:cy="195.9955"
     inkscape:window-width="1920"
     inkscape:window-height="1115"
     inkscape:window-x="-9"
     inkscape:window-y="-9"
     inkscape:window-maximized="1"
     inkscape:current-layer="layer1" /><defs
     id="defs1" /><g
     inkscape:label="Layer 1"
     inkscape:groupmode="layer"
     id="layer1"
     transform="matrix(1.1966722,0,0,1.1966722,-14.070894,-136.70705)"><path
       id="path72"
       style="fill:#1c3c99;fill-opacity:1"
       d="m 56.228668,117.48415 -1.01222,4.3e-4 -0.08766,0.46983 c -0.171436,0.91884 -0.825631,4.16621 -1.017834,5.0529 -0.292042,1.34727 -0.823386,3.68292 -0.902966,3.96942 -0.02181,0.0785 -0.03961,0.15799 -0.03973,0.17619 v 4.3e-4 c -1.2e-4,0.0181 0.08336,0.0229 0.185689,0.0108 0.48273,-0.0569 0.85369,-0.0648 1.320549,-0.0285 0.279307,0.0215 0.51227,0.0344 0.51777,0.0294 0.0055,-0.005 0.09998,-0.47616 0.209871,-1.0459 0.366234,-1.89867 0.630147,-3.18199 0.691367,-3.36313 0.09063,-0.26812 0.231798,-0.53134 0.369651,-0.68834 0.386956,-0.44072 1.088297,-0.49804 1.349482,-0.11012 0.09858,0.1464 0.09231,0.48703 -0.01943,1.05022 -0.206485,1.04074 -0.525773,2.53241 -0.707345,3.30612 -0.108282,0.46143 -0.191921,0.84386 -0.186121,0.84986 0.0058,0.006 0.204016,-0.007 0.440472,-0.0294 0.295312,-0.0278 0.606834,-0.0275 0.995378,8.6e-4 0.311107,0.0224 0.568944,0.0374 0.573044,0.0324 0.0041,-0.005 0.09059,-0.41397 0.191735,-0.90944 0.216096,-1.05851 0.480137,-2.2786 0.665457,-3.07466 0.184763,-0.79366 0.23139,-1.09952 0.23319,-1.52783 0.0032,-0.76344 -0.267959,-1.19481 -0.877487,-1.39699 -0.338051,-0.11208 -1.108867,-0.10126 -1.462192,0.0207 -0.484227,0.16719 -0.865458,0.46932 -1.217773,0.96515 -0.11234,0.15806 -0.108965,0.0114 0.0091,-0.40031 0.06656,-0.2322 0.191659,-0.72157 0.277669,-1.08779 0.08601,-0.36621 0.236542,-1.00652 0.334672,-1.42246 0.09814,-0.41595 0.178347,-0.77732 0.178347,-0.80322 0,-0.0354 -0.250714,-0.0469 -1.012651,-0.0466 z m -5.769741,0.0233 c -0.455614,-0.009 -0.942407,0.0351 -1.293344,0.12696 -1.217757,0.31892 -2.011066,1.12501 -2.641532,2.68429 -0.329895,0.81591 -0.716776,2.4445 -0.801916,3.37435 -0.160031,1.74769 0.367318,2.90228 1.551149,3.39595 0.10771,0.045 0.292626,0.10077 0.411107,0.12437 0.118481,0.0236 0.250999,0.0493 0.294079,0.0583 v -4.3e-4 c 0.04308,0.008 0.31591,0.0179 0.606727,0.0199 0.57105,0.005 1.096373,-0.0628 1.458305,-0.18742 0.85211,-0.29349 1.509359,-0.8853 1.940233,-1.74677 0.209151,-0.41816 0.503471,-1.3542 0.482791,-1.53604 -0.0018,-0.0159 -0.316311,-0.032 -0.698709,-0.035 -0.382398,-0.003 -0.81657,-0.0265 -0.964718,-0.0514 -0.148148,-0.0248 -0.27641,-0.0388 -0.28501,-0.0298 -0.0086,0.009 -0.05092,0.14606 -0.09414,0.30531 -0.229326,0.84488 -0.56122,1.3515 -1.03813,1.58483 -0.173493,0.0849 -0.268025,0.1038 -0.535043,0.1058 -0.496152,0.004 -0.794534,-0.16393 -0.954786,-0.53936 -0.143341,-0.3358 -0.115133,-1.23182 0.06823,-2.17386 0.349794,-1.79711 0.785103,-3.00852 1.25232,-3.48317 0.239417,-0.24322 0.411611,-0.3351 0.740165,-0.3947 0.671184,-0.12171 1.015859,0.13146 1.113269,0.81746 0.0184,0.12957 -0.0509,0.88998 -0.108822,1.19316 -0.0034,0.018 0.464877,0.0353 1.040721,0.0393 l 1.047198,0.007 0.04059,-0.19562 c 0.08875,-0.42912 0.11681,-0.68254 0.117027,-1.04591 2.91e-4,-0.48651 -0.04895,-0.72005 -0.235782,-1.11154 -0.29925,-0.62703 -0.917656,-1.05958 -1.761452,-1.23245 -0.215112,-0.0441 -0.47716,-0.0681 -0.750529,-0.0734 z m 14.230242,2.66658 c -0.07743,-7e-4 -0.15704,4.8e-4 -0.238373,0.004 -0.969699,0.0406 -1.683405,0.342 -2.311178,0.97551 -0.848525,0.85627 -1.336989,2.29058 -1.285139,3.77251 0.02067,0.59073 0.115165,0.97718 0.328626,1.34344 0.29321,0.5031 0.949783,0.903 1.639675,0.9984 0.355406,0.0492 1.194205,0.0226 1.538195,-0.0484 0.670956,-0.13845 1.275882,-0.51571 1.681563,-1.04936 0.157343,-0.20698 0.480464,-0.81615 0.537634,-1.01351 l 0.02418,-0.0829 -0.794144,-0.0255 c -0.436748,-0.014 -0.86473,-0.0354 -0.9509,-0.0475 l -0.156755,-0.022 -0.06737,0.19174 c -0.16679,0.47293 -0.50935,0.72162 -0.998833,0.72462 -0.451034,0.003 -0.711828,-0.18956 -0.8546,-0.62919 -0.09489,-0.29219 -0.06413,-1.04973 0.04621,-1.13443 0.06179,-0.0474 0.347928,-0.0526 1.874594,-0.0333 0.990933,0.0126 1.841185,0.0342 1.889275,0.0479 0.103707,0.0296 0.125061,-0.0146 0.275079,-0.57132 0.08854,-0.32859 0.10044,-0.45227 0.10364,-1.05756 0.0031,-0.57367 -0.0082,-0.72051 -0.06952,-0.90081 -0.326449,-0.959 -1.050375,-1.43185 -2.211856,-1.44233 z m 13.072493,0.009 c -0.373989,0.005 -0.75344,0.0377 -0.975946,0.0976 -0.602961,0.16218 -1.167444,0.51911 -1.537762,0.97206 -0.660767,0.80821 -1.057309,2.10507 -1.063609,3.478 -0.0027,0.59357 0.0068,0.6981 0.08853,0.95997 0.135694,0.43475 0.298726,0.71177 0.575636,0.97767 0.279408,0.2683 0.678364,0.47899 1.07829,0.56959 v -4.3e-4 c 0.374347,0.0848 1.444445,0.0544 1.843502,-0.0522 1.108124,-0.29606 1.771043,-1.08752 2.006734,-2.39625 l 0.02461,-0.1369 h -0.898216 -0.898647 l -0.06477,0.23492 c -0.193254,0.69815 -0.518487,1.00877 -1.055836,1.00877 -0.750324,0 -0.913196,-0.64694 -0.565271,-2.24511 0.339602,-1.55994 0.67078,-2.07324 1.337391,-2.07324 0.321455,0 0.491089,0.0875 0.611478,0.31611 0.08257,0.15683 0.08928,0.21094 0.07298,0.56527 l -0.01814,0.39167 0.925853,-0.002 0.925421,-0.002 0.04491,-0.21289 c 0.236533,-1.1161 -0.367605,-2.06533 -1.51358,-2.37682 -0.200735,-0.0546 -0.569569,-0.0781 -0.943558,-0.0734 z m -6.655001,0.004 c -0.758547,-2.8e-4 -1.050771,0.0566 -1.566696,0.30487 -0.428243,0.2061 -0.865952,0.62557 -1.050653,1.00704 -0.288594,0.59606 -0.322803,1.22696 -0.09241,1.69495 0.249931,0.50768 0.645675,0.78345 1.897048,1.32185 0.632558,0.27216 0.82539,0.4516 0.81919,0.76262 -0.0044,0.21701 -0.0859,0.37922 -0.251327,0.50092 -0.223186,0.16422 -0.378401,0.20426 -0.79328,0.20426 -0.345598,0 -0.41195,-0.0116 -0.564408,-0.098 -0.250703,-0.14207 -0.329618,-0.26884 -0.348058,-0.55837 l -0.01555,-0.24442 H 68.30276 c -0.708496,0 -0.841547,0.009 -0.860647,0.0587 -0.01242,0.0323 -0.03278,0.20404 -0.04534,0.38175 -0.06434,0.91038 0.48894,1.51923 1.555899,1.71222 0.418138,0.076 1.42948,0.0745 1.882799,-0.002 1.28162,-0.2169 2.026577,-0.95439 2.134126,-2.11297 0.04509,-0.48575 -0.125465,-0.93876 -0.4802,-1.2752 -0.304082,-0.28841 -0.619518,-0.46306 -1.547695,-0.85719 -0.836513,-0.35521 -1.015863,-0.54426 -0.896488,-0.9427 0.106858,-0.35666 0.447409,-0.55766 0.945717,-0.55966 0.514383,-0.002 0.781621,0.22811 0.781621,0.67194 v 0.20901 l 0.440471,-0.0255 c 0.242348,-0.014 0.590308,-0.008 0.773415,0.0138 0.216986,0.0256 0.346712,0.0259 0.372242,8.6e-4 0.02182,-0.0213 0.03858,-0.24128 0.038,-0.49661 -8.7e-4,-0.38741 -0.01422,-0.48673 -0.0868,-0.6443 -0.194147,-0.42154 -0.65222,-0.76673 -1.243683,-0.93708 -0.270284,-0.0779 -0.402075,-0.0905 -0.959536,-0.0907 z m 13.629991,0.002 c -0.685563,0.002 -1.019995,0.0601 -1.47126,0.25695 -0.546325,0.23826 -1.099517,0.74786 -1.444054,1.33005 -0.688562,1.16351 -0.997816,2.98664 -0.674526,3.97633 0.245438,0.75136 0.876749,1.30994 1.67595,1.48335 0.380969,0.0827 1.195109,0.0747 1.636653,-0.0164 1.172913,-0.24201 2.01212,-1.06544 2.496435,-2.44937 0.165547,-0.47306 0.325807,-1.19645 0.371377,-1.67465 0.120698,-1.26645 -0.319266,-2.21126 -1.239364,-2.66226 -0.411602,-0.20176 -0.654899,-0.24599 -1.351211,-0.24399 z m -20.295788,1.3551 c 0.07477,3.4e-4 0.149598,0.008 0.22369,0.0238 0.395616,0.083 0.561478,0.28625 0.595068,0.7311 0.02358,0.31231 -0.04962,0.5325 -0.200803,0.605 -0.08343,0.04 -0.369201,0.0598 -1.072677,0.0747 l -0.959104,0.0207 0.0285,-0.15287 c 0.05161,-0.27634 0.280011,-0.70829 0.478904,-0.90642 0.259625,-0.25865 0.582432,-0.39747 0.906421,-0.39599 z m 20.268583,0.0402 c 0.292689,0.007 0.418115,0.0896 0.535906,0.32647 0.08438,0.16964 0.09701,0.24554 0.09371,0.56786 -0.005,0.49443 -0.167776,1.38434 -0.368787,2.0171 -0.239729,0.75463 -0.454806,1.1121 -0.771688,1.28168 -0.423427,0.22661 -0.925952,0.14367 -1.095996,-0.18093 -0.157586,-0.30082 -0.09965,-1.14915 0.144664,-2.11902 0.255383,-1.01381 0.49481,-1.50649 0.856328,-1.76058 0.14703,-0.10333 0.209007,-0.12088 0.469836,-0.13128 0.04911,-0.002 0.09422,-0.002 0.136028,-10e-4 z m -47.482792,3.61921 c -0.690448,3.7e-4 -0.806371,0.0107 -1.207841,0.10536 -0.508743,0.12006 -1.123605,0.39528 -1.528262,0.68403 -0.353918,0.25255 -0.836027,0.75048 -1.153862,1.19186 -0.321371,0.44629 -0.855426,1.51344 -1.103769,2.20495 -0.857926,2.3889 -1.546079,6.44552 -1.452259,8.56025 0.0806,1.81664 0.515074,3.09919 1.3348,3.9392 0.172336,0.1766 0.423944,0.392 0.559226,0.4789 0.449121,0.28846 1.034956,0.49357 1.595196,0.55837 0.405987,0.0469 1.238848,0.005 1.677677,-0.0838 2.005377,-0.4068 3.300726,-1.91904 3.997492,-4.66727 0.160214,-0.63193 0.332983,-1.57554 0.294943,-1.61074 -0.0093,-0.009 -0.1316,0.001 -0.271624,0.022 -0.489362,0.0729 -1.817362,-0.0103 -2.372498,-0.14898 -0.07595,-0.019 -0.0907,0.0238 -0.227577,0.65164 -0.320735,1.47118 -0.74073,2.32146 -1.348619,2.73006 -0.311252,0.2092 -0.491367,0.26078 -0.907716,0.25996 -0.434294,-8.6e-4 -0.671664,-0.0998 -0.938377,-0.39167 -0.37705,-0.41255 -0.492308,-0.96276 -0.458608,-2.18811 0.02687,-0.97693 0.09012,-1.58395 0.301852,-2.89847 0.409169,-2.54025 0.8654,-4.34796 1.329619,-5.26795 0.380785,-0.75464 0.832121,-1.16936 1.402598,-1.28859 0.416458,-0.087 0.707522,-0.046 0.987174,0.13905 0.175577,0.1162 0.29733,0.29815 0.422334,0.63004 0.09021,0.23952 0.101357,0.33358 0.117027,0.97897 0.01437,0.59158 0.0022,0.82495 -0.07082,1.36201 -0.04845,0.35649 -0.08095,0.654 -0.07255,0.662 0.0084,0.008 0.209122,-0.003 0.446085,-0.0242 0.411582,-0.0366 1.978852,-0.0149 2.313337,0.0319 l 0.158915,0.0225 0.04664,-0.30704 c 0.172334,-1.1406 0.211287,-2.28692 0.102776,-3.02413 -0.250195,-1.6998 -1.271265,-2.85623 -2.850107,-3.22797 -0.304109,-0.0716 -0.47667,-0.0846 -1.123202,-0.0842 z m 63.022785,1.78175 c -0.19485,0.004 -0.358454,0.0135 -0.450401,0.0298 l -0.154597,0.0272 -0.271192,0.43054 c -0.783352,1.24302 -1.891526,2.42146 -2.867813,3.05004 l -0.235781,0.15201 -0.147256,0.57261 c -0.08083,0.31496 -0.157776,0.614 -0.171006,0.6646 l -0.02375,0.092 0.734119,-0.0285 c 0.795149,-0.0312 0.802344,-0.0299 0.803644,0.17792 3.3e-4,0.0541 -0.103617,0.5214 -0.231032,1.03813 -0.241489,0.97935 -0.492381,2.066 -0.723755,3.13296 -0.07474,0.34467 -0.219028,0.99685 -0.320421,1.44924 -0.280376,1.25094 -0.256241,1.81192 0.10105,2.36472 0.166229,0.25719 0.35205,0.41538 0.686185,0.58341 0.265581,0.13355 0.45463,0.19084 0.88051,0.26644 0.202011,0.0362 0.550661,0.0479 1.116292,0.0389 0.903244,-0.0143 1.276544,-0.0657 1.888414,-0.26169 0.34188,-0.10952 0.36805,-0.12567 0.42665,-0.2617 0.16597,-0.38518 0.48836,-1.91705 0.43356,-2.05985 -0.017,-0.0444 -0.0743,-0.0401 -0.32733,0.0255 -0.43291,0.1121 -1.456749,0.12235 -1.650901,0.0164 -0.1535,-0.0838 -0.241763,-0.26851 -0.241396,-0.50524 3.92e-4,-0.25331 0.239007,-1.57938 0.608027,-3.37954 0.11924,-0.58163 0.2778,-1.36401 0.3528,-1.73857 0.15866,-0.79288 0.19018,-0.87362 0.35109,-0.90642 0.0647,-0.0132 0.59015,-0.008 1.16811,0.0112 0.57796,0.0199 1.07619,0.0255 1.10679,0.0138 0.0344,-0.0132 0.0552,-0.078 0.0553,-0.16971 1.9e-4,-0.22389 0.10529,-0.77831 0.27551,-1.45528 0.0841,-0.33434 0.14721,-0.61369 0.14121,-0.61969 -0.006,-0.007 -0.24812,0.007 -0.5372,0.0311 -0.28907,0.0236 -0.81269,0.0462 -1.16336,0.0492 -0.71892,0.007 -0.73256,0.001 -0.69396,-0.26816 0.0298,-0.20829 0.34315,-1.49754 0.49359,-2.03049 0.0659,-0.2334 0.10989,-0.43422 0.0976,-0.44652 -0.0586,-0.0586 -0.9247,-0.098 -1.50926,-0.0864 z m -39.869548,2.50248 c -0.628915,0.007 -1.250484,0.16698 -1.759725,0.46076 -0.474513,0.27374 -0.72116,0.49178 -1.053244,0.93147 -0.304991,0.40379 -0.412695,0.49631 -0.488405,0.42061 -0.03075,-0.0307 -0.02008,-0.11723 0.03757,-0.31006 0.150693,-0.50409 0.326542,-1.19522 0.308762,-1.21302 -0.0098,-0.01 -0.397966,0.003 -0.862805,0.0294 -0.66111,0.037 -1.020284,0.0368 -1.649608,-4.3e-4 -0.44249,-0.0262 -0.819469,-0.0381 -0.837759,-0.0268 -0.01829,0.0113 -0.04374,0.22809 -0.05657,0.48192 -0.02453,0.48521 -0.34142,2.50072 -0.611046,3.88867 -0.276185,1.42173 -0.768227,3.65793 -1.314504,5.97314 -0.07617,0.3228 -0.138412,0.6087 -0.138619,0.63609 v 4.3e-4 c -4.5e-5,0.0581 0.02377,0.0581 0.528566,0.007 0.402227,-0.0404 1.77224,-0.0551 2.017098,-0.0216 0.0754,0.0104 0.26336,0.0299 0.417584,0.0432 l 0.280261,0.0242 0.02116,-0.10969 c 0.0115,-0.0604 0.102076,-0.54187 0.201666,-1.06965 0.361409,-1.9153 1.044304,-5.34166 1.137884,-5.71058 0.129,-0.50854 0.423086,-1.10047 0.694822,-1.39828 0.571634,-0.62649 1.408521,-0.78558 1.974347,-0.3757 0.09231,0.0669 0.195355,0.19203 0.248305,0.30142 0.164173,0.33913 0.117065,0.83633 -0.238373,2.51717 -0.425571,2.0125 -0.827848,3.84155 -1.0947,4.97559 -0.108483,0.46104 -0.189839,0.8456 -0.180939,0.8546 0.0089,0.009 0.189838,-0.004 0.402038,-0.0276 0.501464,-0.0565 1.791601,-0.0562 2.356953,4.3e-4 0.244204,0.0245 0.452758,0.0356 0.463358,0.025 0.0106,-0.0106 0.140226,-0.62445 0.288034,-1.36416 0.355918,-1.78121 0.59724,-2.90765 1.130974,-5.28134 0.280082,-1.24561 0.357167,-1.73748 0.356264,-2.27663 -0.0012,-0.72052 -0.175379,-1.2448 -0.549294,-1.65392 -0.340901,-0.373 -0.788327,-0.59218 -1.402598,-0.68748 -0.207421,-0.0322 -0.417817,-0.0469 -0.627456,-0.0445 z m 20.49141,8.6e-4 c -0.744045,0.004 -1.495865,0.14179 -2.150104,0.40852 -2.067077,0.84274 -3.434528,2.95601 -3.794529,5.86388 -0.07673,0.61936 -0.07821,1.74302 -0.0026,2.20926 0.277054,1.70816 1.335564,2.72175 3.149368,3.01593 0.46135,0.0749 1.813774,0.0534 2.293905,-0.0363 0.407269,-0.0761 0.823609,-0.2099 1.215182,-0.39081 1.08989,-0.50356 1.981598,-1.54258 2.48089,-2.88984 l 0.08205,-0.22153 -0.947877,8.7e-4 c -0.866694,0.001 -1.083395,-0.0133 -2.038258,-0.1356 -0.05575,-0.007 -0.08759,0.0394 -0.140347,0.20598 -0.272832,0.86157 -0.821702,1.27119 -1.706609,1.27219 -0.342291,4.7e-4 -0.419626,-0.0126 -0.613205,-0.10321 -0.503832,-0.23572 -0.772856,-0.71619 -0.836896,-1.49501 -0.03105,-0.37761 0.0665,-1.18628 0.153733,-1.27348 0.05963,-0.0596 0.273702,-0.0642 2.521482,-0.0536 1.350982,0.006 2.738194,0.0253 3.082866,0.0419 0.511163,0.0246 0.635135,0.0202 0.671935,-0.0238 0.06459,-0.077 0.285447,-0.89435 0.378287,-1.40044 0.10744,-0.58566 0.115221,-1.9281 0.01382,-2.36775 -0.278579,-1.20784 -1.030053,-2.04713 -2.141035,-2.3915 -0.519523,-0.16103 -1.093361,-0.23884 -1.672063,-0.23578 z m -9.318124,0.005 c -0.22379,0.001 -0.436124,0.0182 -0.599818,0.0514 -0.953835,0.19327 -1.629715,0.61872 -2.218766,1.39655 -0.197086,0.26024 -0.319888,0.38865 -0.371378,0.38865 -0.103557,0 -0.09933,-0.101 0.01987,-0.51215 0.05301,-0.18286 0.13971,-0.49558 0.19303,-0.69482 l 0.09716,-0.36231 -0.575204,0.0307 c -0.744996,0.0396 -1.613104,0.0386 -2.288723,-0.002 l -0.538497,-0.0324 v 0.17705 c 0,0.50409 -0.429671,3.20317 -0.779893,4.90132 -0.32779,1.5894 -0.818458,3.78883 -1.2005,5.37893 -0.07413,0.30852 -0.134733,0.57042 -0.134733,0.58212 v 4.3e-4 c 0,0.0115 0.118874,0.008 0.264283,-0.008 0.541575,-0.0596 1.380502,-0.0793 2.007167,-0.0471 0.355443,0.0182 0.725039,0.0362 0.821349,0.0402 l 0.175325,0.007 0.110118,-0.58773 c 0.570666,-3.04814 1.188464,-6.11503 1.309322,-6.49825 0.358221,-1.13588 1.024248,-1.75674 1.892298,-1.76274 0.393302,-0.003 0.616592,0.0847 0.837327,0.32905 0.295055,0.32659 0.294882,0.76504 -4.31e-4,2.15486 -0.07553,0.35545 -0.206859,0.97211 -0.291489,1.37064 -0.351334,1.65443 -0.48547,2.26787 -0.72505,3.31001 -0.138667,0.60317 -0.285375,1.22435 -0.326035,1.38058 -0.04064,0.15623 -0.05843,0.2935 -0.0393,0.3053 0.03215,0.0198 0.394863,-0.006 0.623569,-0.0453 0.13554,-0.0231 1.672563,-0.0231 1.840911,0 0.0754,0.0104 0.278336,0.0296 0.451267,0.0428 l 0.314375,0.0242 0.130846,-0.67755 c 0.303713,-1.57456 0.870197,-4.23005 1.260093,-5.90663 0.464819,-1.99876 0.485613,-2.91223 0.08334,-3.6598 -0.236358,-0.43925 -0.7173,-0.79489 -1.300254,-0.9617 -0.263708,-0.0754 -0.668601,-0.1155 -1.041584,-0.11314 z m 19.668765,0.001 c -0.495362,-0.002 -1.045059,0.0369 -1.40519,0.10925 -1.00922,0.20268 -1.762528,0.58325 -2.451524,1.23893 -1.083611,1.03121 -1.801569,2.76417 -2.059851,4.97215 -0.07426,0.63445 -0.07553,1.77423 -0.0026,2.18335 0.222992,1.2507 0.888841,2.15742 1.94671,2.65103 0.372129,0.17364 0.623242,0.25132 1.07095,0.33122 v 4.3e-4 c 0.418719,0.0744 1.49673,0.077 2.008462,0.004 1.752416,-0.24911 2.896626,-1.07835 3.536292,-2.56207 0.154217,-0.35771 0.362619,-1.10736 0.411539,-1.48119 l 0.02677,-0.20513 -0.328194,0.0285 c -0.422798,0.0368 -1.846339,0.0371 -2.231288,4.4e-4 l -0.297103,-0.0285 -0.109254,0.38087 c -0.221499,0.77251 -0.544815,1.28691 -0.947013,1.50581 -0.23664,0.12875 -0.657794,0.20467 -0.959104,0.17317 -0.602413,-0.063 -0.913862,-0.40063 -1.018698,-1.1055 -0.09901,-0.66572 0.120365,-2.16131 0.533748,-3.64036 0.477174,-1.70729 0.954117,-2.29224 1.880639,-2.30514 0.434988,-0.006 0.671705,0.0813 0.896056,0.33079 0.259818,0.28899 0.319472,0.63221 0.247442,1.41814 l -0.03152,0.34374 0.384332,-0.0302 c 0.508126,-0.0401 1.607708,-0.0386 2.1514,0.003 l 0.435721,0.0332 0.06391,-0.34676 c 0.09102,-0.49596 0.08389,-1.21245 -0.01555,-1.60125 -0.332601,-1.30046 -1.344937,-2.10668 -2.95677,-2.35436 -0.20553,-0.0316 -0.483108,-0.0469 -0.780325,-0.0479 z m -43.420093,0.0168 c -0.725603,-0.002 -0.901881,0.009 -1.275639,0.0851 -0.532609,0.10805 -0.839007,0.20609 -1.265707,0.40506 -0.950427,0.44319 -1.763505,1.2332 -2.333634,2.268 -0.857749,1.55685 -1.383042,4.05176 -1.158612,5.50329 0.180529,1.16759 0.783394,2.11235 1.707474,2.67651 0.367909,0.22461 1.098397,0.46504 1.604265,0.52814 v 4.3e-4 c 0.06463,0.008 0.40337,0.0173 0.752687,0.0203 1.698184,0.0157 2.898516,-0.43542 3.928831,-1.47688 0.853397,-0.86262 1.442611,-2.02261 1.837455,-3.61661 0.239032,-0.96499 0.281672,-1.26398 0.304012,-2.12679 0.02355,-0.9096 -0.02275,-1.27174 -0.240532,-1.88107 -0.177446,-0.49648 -0.405814,-0.86913 -0.76262,-1.24368 -0.4937,-0.51826 -1.005934,-0.80757 -1.8055,-1.01956 l -0.450403,-0.11919 z m 32.882036,2.21056 c 0.590565,0 0.96072,0.18967 1.170703,0.60025 0.101322,0.19812 0.116976,0.27514 0.130846,0.64473 0.01246,0.33208 5.78e-4,0.46817 -0.057,0.65293 -0.09959,0.31953 -0.197271,0.37316 -0.756574,0.41456 -0.235534,0.0174 -0.94811,0.0445 -1.583537,0.06 l -1.155589,0.0281 -0.02721,-0.0712 c -0.03897,-0.10154 0.03855,-0.43174 0.182234,-0.77688 0.42339,-1.01703 1.146438,-1.55244 2.096125,-1.55244 z m -33.167047,0.0212 c 0.200708,-0.005 0.399848,0.0174 0.546702,0.0687 0.543023,0.18945 0.739533,0.75654 0.640843,1.84825 -0.153649,1.69971 -0.777913,3.77464 -1.352938,4.49713 -0.216099,0.27151 -0.574701,0.51408 -0.845532,0.57218 -0.253977,0.0545 -0.634621,0.0495 -0.859782,-0.0112 -0.684187,-0.18453 -0.874747,-0.95105 -0.621842,-2.50421 0.236321,-1.45132 0.569505,-2.60368 0.987174,-3.41538 0.220252,-0.42803 0.621704,-0.83419 0.948308,-0.9591 0.153783,-0.0588 0.356359,-0.0912 0.557067,-0.0963 z" /><path
       id="path59"
       style="fill:#5ebc44;fill-opacity:1"
       d="m 40.249065,145.15653 -0.08853,0.14682 c -0.04877,0.0808 -0.235383,0.37777 -0.414562,0.66028 -0.17918,0.28251 -0.325603,0.52523 -0.325603,0.53893 0,0.0386 59.722619,0.0295 59.746459,-0.009 0.02786,-0.0451 0.335719,-1.22546 0.335968,-1.28816 1.56e-4,-0.039 -5.951372,-0.0488 -29.626868,-0.0488 z m 34.665512,2.42777 -18.16814,0.002 -18.16814,0.002 -0.17662,0.22067 c -0.09694,0.12146 -0.365306,0.41789 -0.596364,0.65855 -0.231058,0.24067 -0.408536,0.44869 -0.394696,0.46249 0.03526,0.0351 37.073684,0.0301 37.128264,-0.005 0.03964,-0.0256 0.309547,-0.95726 0.357127,-1.23289 z" /><path
       id="path57"
       style="fill:#3f453d;fill-opacity:1"
       d="m 30.575972,116.80746 c -1.140163,0.0442 -2.375815,0.56274 -3.55227,1.49803 -3.681241,2.92664 -6.549794,9.61965 -7.168452,16.72625 -0.178341,2.04862 -0.129109,4.6411 0.121345,6.38424 0.643668,4.47988 2.34045,7.57717 4.710882,8.59912 0.391811,0.16892 0.571465,0.22228 0.985015,0.29278 0.317074,0.054 1.082123,0.0661 1.273048,0.0203 l 0.117459,-0.0281 -0.117459,-0.0289 c -0.805984,-0.19809 -1.347126,-0.43916 -1.900504,-0.84683 -0.435086,-0.32053 -0.935208,-0.82774 -1.300685,-1.31882 -0.977445,-1.31338 -1.684176,-3.00944 -2.141899,-5.14229 -0.331974,-1.54689 -0.472406,-2.89909 -0.500496,-4.81754 -0.02312,-1.57939 0.02914,-2.62461 0.204689,-4.10848 0.916928,-7.75078 4.375144,-14.55462 8.439341,-16.60317 0.418712,-0.21105 1.104932,-0.4507 1.428077,-0.4992 0.286348,-0.043 0.242649,-0.0872 -0.115732,-0.11703 -0.158535,-0.0132 -0.319478,-0.0167 -0.482359,-0.0104 z m 3.002977,0.006 c -0.12059,0.002 -0.23576,0.008 -0.32733,0.0181 -1.423331,0.1561 -2.80267,0.90972 -4.170658,2.27793 -1.023453,1.02362 -1.8759,2.18585 -2.744308,3.74228 -2.006693,3.59656 -3.288081,8.24875 -3.602795,13.08113 -0.05558,0.85351 -0.05502,2.80063 8.64e-4,3.58379 0.109277,1.53162 0.356006,3.16939 0.628751,4.17152 0.373846,1.3736 0.646259,2.11022 1.136588,3.07423 1.019771,2.00494 2.456797,3.24896 4.090336,3.54061 0.328505,0.0586 1.091512,0.0737 1.292481,0.0255 l 0.117459,-0.0281 -0.117459,-0.0298 c -0.762342,-0.19244 -1.212904,-0.38196 -1.707042,-0.7177 -2.077164,-1.41133 -3.492383,-4.54894 -3.991446,-8.84916 -0.04202,-0.36201 -0.0978,-1.17392 -0.123936,-1.8042 -0.119874,-2.89024 0.192016,-5.90956 0.924989,-8.95323 0.866406,-3.59775 2.341456,-6.92528 4.119269,-9.29221 1.491281,-1.98545 3.131895,-3.24649 4.756225,-3.65591 0.236102,-0.0596 0.439247,-0.11798 0.451267,-0.12998 0.03825,-0.0383 -0.371483,-0.0622 -0.733255,-0.0549 z m 3.127346,0.003 c -1.043888,-0.0243 -2.07798,0.315 -3.161029,1.02992 -3.28262,2.16686 -6.181756,7.60701 -7.321321,13.73925 -0.236675,1.2736 -0.358898,2.15547 -0.499633,3.60366 -0.09995,1.02849 -0.09998,4.06576 0,5.01316 0.438201,4.15237 1.538729,7.06122 3.316921,8.76797 0.805802,0.77343 1.642953,1.19778 2.701988,1.36935 v 4.3e-4 c 0.233597,0.0379 0.910942,0.0219 1.253615,-0.0298 0.93683,-0.14123 2.007237,-0.64946 2.99175,-1.4203 0.433461,-0.33938 1.571531,-1.50845 1.974779,-2.02876 0.567859,-0.7327 1.176501,-1.654 1.649607,-2.49687 l 0.126096,-0.22542 38.917787,-0.01 38.917355,-0.01 0.14769,-0.54109 c 0.0813,-0.29755 0.15926,-0.60139 0.17316,-0.67539 l 0.025,-0.13473 H 78.690538 39.460967 l -0.08421,0.16626 c -0.157275,0.3106 -0.517593,0.90904 -0.819622,1.36114 -1.328863,1.98918 -2.833635,3.23675 -4.260047,3.5324 -0.460669,0.0955 -1.087202,0.0803 -1.519625,-0.0371 -1.256363,-0.34128 -2.368962,-1.56854 -3.107481,-3.4279 -0.72317,-1.82072 -1.098617,-4.13433 -1.099019,-6.7716 -4.04e-4,-2.64484 0.379718,-5.41913 1.10161,-8.04205 0.708625,-2.57472 1.724951,-4.91042 2.906246,-6.67833 0.658225,-0.98509 1.680973,-2.11021 2.395817,-2.63591 0.903297,-0.66428 1.938909,-1.0211 2.764605,-0.9522 0.98202,0.0819 1.882268,0.61221 2.601802,1.53215 0.619452,0.79199 1.066505,1.70596 1.465215,2.99607 l 0.187848,0.60716 0.397287,0.0112 0.397288,0.0112 v -0.0924 c 0,-0.13174 -0.326703,-1.39889 -0.49445,-1.91778 -0.335285,-1.03714 -0.854587,-2.15407 -1.357688,-2.92006 -0.87304,-1.32925 -2.036518,-2.26139 -3.180893,-2.54869 -0.352251,-0.0884 -0.701395,-0.13699 -1.049357,-0.14509 z m -10.012515,0.0298 c -0.07099,-0.007 -0.306242,0.0253 -0.522951,0.0717 -2.134493,0.457 -4.276671,2.3661 -6.104412,5.43982 -0.492553,0.82832 -1.149909,2.17275 -1.620243,3.31389 -0.871433,2.11429 -1.60809,4.90343 -1.976075,7.4811 -0.239471,1.67749 -0.32432,2.88953 -0.323876,4.6215 4.47e-4,1.74264 0.08779,2.8522 0.342445,4.34771 0.697082,4.09382 2.376135,6.96628 4.621061,7.90602 0.388633,0.16269 0.556258,0.21199 0.959536,0.28069 0.161565,0.0276 0.389869,0.052 0.507406,0.054 l 0.213758,0.004 -0.41888,-0.39427 c -1.368949,-1.2893 -2.4428,-3.26536 -3.10489,-5.7136 -0.334067,-1.2353 -0.551738,-2.49552 -0.704322,-4.07565 -0.08517,-0.88196 -0.117304,-2.95141 -0.06218,-3.99965 0.429363,-8.16589 3.650249,-15.8419 8.011825,-19.0927 l 0.310921,-0.23189 z" /></g></svg>
