<svg xmlns="http://www.w3.org/2000/svg" xml:space="preserve" viewBox="0 0 132.292 46.302">
  <path d="M56.229 117.484h-1.013l-.087.47a331.6 331.6 0 0 1-1.018 5.053c-.292 1.348-.823 3.683-.903 3.97-.022.078-.04.158-.04.176 0 .018.084.023.186.011a6.281 6.281 0 0 1 1.32-.028c.28.021.513.034.518.03.006-.006.1-.477.21-1.047.366-1.899.63-3.182.692-3.363.09-.268.231-.531.37-.688.386-.441 1.087-.498 1.349-.11.098.146.092.487-.02 1.05-.206 1.04-.526 2.532-.707 3.306-.108.461-.192.844-.186.85.006.006.204-.007.44-.03a5.87 5.87 0 0 1 .996.001c.31.023.569.038.573.033.004-.005.09-.414.191-.91.216-1.058.48-2.278.666-3.074.185-.794.231-1.1.233-1.528.003-.764-.268-1.195-.877-1.397-.339-.112-1.11-.102-1.463.02-.484.168-.865.47-1.217.966-.113.158-.11.01.009-.4.066-.233.191-.722.277-1.089l.335-1.422c.098-.416.178-.777.178-.803 0-.036-.25-.047-1.012-.047zm-5.77.023c-.456-.009-.942.036-1.293.127-1.218.32-2.011 1.125-2.642 2.685-.33.816-.717 2.444-.802 3.374-.16 1.748.367 2.902 1.551 3.396.108.045.293.1.411.124l.294.059c.044.007.316.017.607.02.571.004 1.097-.064 1.459-.188.852-.294 1.509-.886 1.94-1.747.209-.418.503-1.354.483-1.536-.002-.016-.317-.032-.7-.035a8.773 8.773 0 0 1-.964-.051c-.148-.025-.276-.04-.285-.03-.009.009-.05.146-.094.305-.23.845-.561 1.352-1.038 1.585-.174.085-.268.104-.535.106-.496.004-.795-.164-.955-.54-.143-.336-.115-1.232.068-2.174.35-1.797.785-3.008 1.253-3.483.239-.243.411-.335.74-.394.67-.122 1.016.131 1.113.817.018.13-.05.89-.109 1.193-.003.018.465.035 1.04.04l1.048.006.04-.195c.09-.43.117-.683.118-1.046 0-.487-.05-.72-.236-1.112-.3-.627-.918-1.06-1.762-1.232a4.276 4.276 0 0 0-.75-.073zm14.23 2.667c-.077 0-.157 0-.238.004-.97.04-1.684.342-2.311.976-.849.856-1.337 2.29-1.286 3.772.021.59.116.977.33 1.343.292.504.949.903 1.639.999.355.05 1.194.022 1.538-.049a2.842 2.842 0 0 0 1.682-1.049c.157-.207.48-.816.537-1.013l.024-.083-.794-.026a17.906 17.906 0 0 1-.95-.047l-.157-.022-.068.191c-.167.473-.51.722-.999.725-.45.003-.711-.19-.854-.63-.095-.291-.064-1.049.046-1.134.062-.047.348-.052 1.875-.033.99.013 1.84.034 1.889.048.104.03.125-.015.275-.571.088-.329.1-.453.104-1.058.003-.573-.009-.72-.07-.9-.326-.96-1.05-1.432-2.212-1.443zm13.073.009c-.374.005-.754.038-.976.098a3.05 3.05 0 0 0-1.538.972c-.66.808-1.057 2.105-1.064 3.478-.002.593.007.698.089.96.136.434.299.711.576.977.279.269.678.48 1.078.57.374.084 1.444.054 1.843-.053 1.108-.296 1.771-1.087 2.007-2.396l.025-.137H78.005l-.065.235c-.193.698-.518 1.009-1.056 1.009-.75 0-.913-.647-.565-2.245.34-1.56.67-2.074 1.337-2.074.322 0 .491.088.612.317.082.156.09.21.073.565l-.018.392.925-.002.926-.002.045-.213c.236-1.116-.368-2.066-1.514-2.377-.2-.055-.57-.078-.943-.074zm-6.655.004c-.759 0-1.051.057-1.567.305-.428.206-.866.625-1.05 1.007-.29.596-.323 1.227-.093 1.695.25.508.646.783 1.897 1.322.633.272.825.451.82.762a.596.596 0 0 1-.252.501c-.223.165-.379.205-.793.205-.346 0-.412-.012-.565-.098-.25-.143-.33-.27-.348-.559l-.015-.244h-.838c-.709 0-.842.009-.86.058a2.67 2.67 0 0 0-.046.382c-.065.91.489 1.52 1.556 1.712.418.076 1.43.075 1.882-.002 1.282-.216 2.027-.954 2.135-2.113a1.53 1.53 0 0 0-.48-1.275c-.305-.288-.62-.463-1.548-.857-.837-.355-1.016-.544-.897-.943.107-.356.448-.557.946-.56.514-.001.782.229.782.673v.209l.44-.026c.242-.014.59-.008.773.014.217.026.347.026.373 0 .022-.02.038-.24.038-.496-.001-.387-.015-.487-.087-.644-.194-.422-.652-.767-1.244-.937-.27-.078-.402-.09-.96-.09zm13.63.002c-.686.002-1.02.06-1.472.257-.546.238-1.1.748-1.444 1.33-.688 1.164-.997 2.987-.674 3.976.245.752.877 1.31 1.676 1.484.38.082 1.195.074 1.636-.017 1.173-.242 2.013-1.065 2.497-2.45a8.316 8.316 0 0 0 .371-1.674c.12-1.266-.319-2.211-1.24-2.662-.41-.202-.654-.246-1.35-.244zm-20.296 1.355c.075 0 .15.008.224.024.395.083.561.286.595.731.023.312-.05.533-.201.605-.084.04-.37.06-1.073.075l-.959.02.029-.152c.051-.277.28-.709.478-.907.26-.259.583-.397.907-.396zm20.268.04c.293.007.419.09.536.327.085.17.097.245.094.568-.005.494-.168 1.384-.369 2.017-.24.754-.455 1.112-.771 1.281-.424.227-.926.144-1.096-.18-.158-.301-.1-1.15.144-2.12.256-1.013.495-1.506.857-1.76.147-.103.209-.121.47-.131a2.09 2.09 0 0 1 .135-.001zm-47.482 3.62c-.69 0-.807.01-1.208.105a4.792 4.792 0 0 0-1.528.684c-.354.252-.836.75-1.154 1.192-.322.446-.856 1.513-1.104 2.205-.858 2.389-1.546 6.445-1.452 8.56.08 1.817.515 3.1 1.334 3.94.173.176.424.391.56.478.449.289 1.035.494 1.595.558.406.047 1.239.005 1.678-.083 2.005-.407 3.3-1.92 3.997-4.668.16-.632.333-1.575.295-1.61-.01-.01-.132 0-.272.022-.489.073-1.817-.01-2.372-.15-.076-.018-.09.024-.228.652-.32 1.471-.74 2.322-1.348 2.73-.312.21-.492.261-.908.26-.434 0-.672-.1-.938-.391-.377-.413-.493-.963-.459-2.188.027-.977.09-1.584.302-2.899.409-2.54.865-4.348 1.33-5.268.38-.755.832-1.17 1.402-1.288.417-.087.708-.046.987.139.176.116.298.298.423.63.09.24.1.333.117.979.014.591.002.825-.071 1.362-.049.356-.081.654-.073.662.009.008.21-.003.446-.025.412-.036 1.98-.014 2.314.032l.159.023.046-.307c.173-1.14.211-2.287.103-3.024-.25-1.7-1.271-2.857-2.85-3.228-.304-.072-.477-.085-1.123-.085zm63.022 1.781a3.464 3.464 0 0 0-.45.03l-.155.027-.27.43c-.784 1.244-1.892 2.422-2.869 3.05l-.235.153-.148.572-.17.665-.024.092.734-.028c.795-.032.802-.03.803.178 0 .054-.103.52-.23 1.038-.242.979-.493 2.066-.724 3.133l-.32 1.449c-.281 1.25-.257 1.812.1 2.365.166.257.352.415.686.583.266.134.455.19.88.266.203.037.552.048 1.117.04.903-.015 1.277-.066 1.889-.262.342-.11.368-.126.426-.262.166-.385.489-1.917.434-2.06-.017-.044-.074-.04-.327.026-.433.112-1.457.122-1.651.016-.154-.084-.242-.269-.242-.505 0-.254.24-1.58.608-3.38.12-.581.278-1.364.353-1.738.159-.793.19-.874.351-.907.065-.013.59-.008 1.168.011.578.02 1.076.026 1.107.014.034-.013.055-.078.055-.17 0-.223.106-.778.276-1.455.084-.334.147-.613.141-.62a5.543 5.543 0 0 0-.537.032c-.29.023-.813.046-1.163.049-.72.007-.733 0-.694-.268.03-.209.343-1.498.493-2.03.066-.234.11-.435.098-.447-.059-.059-.925-.098-1.51-.087zm-39.87 2.503a3.64 3.64 0 0 0-1.759.46 3.055 3.055 0 0 0-1.053.932c-.305.404-.413.496-.488.42-.031-.03-.02-.117.037-.31.15-.504.327-1.195.309-1.212-.01-.01-.398.003-.863.029a12.23 12.23 0 0 1-1.65 0c-.442-.027-.819-.039-.837-.027-.019.011-.044.228-.057.482-.024.485-.341 2.5-.61 3.888-.277 1.422-.77 3.658-1.315 5.973-.077.323-.139.61-.14.637 0 .058.025.058.53.007.402-.04 1.772-.055 2.017-.022.075.01.263.03.417.044l.28.024.022-.11.201-1.07c.362-1.915 1.045-5.341 1.138-5.71.13-.509.423-1.1.695-1.398.572-.627 1.409-.786 1.974-.376a.896.896 0 0 1 .249.301c.164.34.117.837-.239 2.517a251.95 251.95 0 0 1-1.094 4.976c-.109.461-.19.846-.181.855.009.009.19-.004.402-.028.501-.056 1.791-.056 2.357 0 .244.025.452.036.463.025.01-.01.14-.624.288-1.364.356-1.78.597-2.907 1.131-5.281.28-1.246.357-1.738.356-2.277-.001-.72-.175-1.244-.55-1.654-.34-.373-.787-.592-1.402-.687a3.81 3.81 0 0 0-.627-.045zm20.492 0a5.859 5.859 0 0 0-2.15.41c-2.067.842-3.434 2.955-3.794 5.863-.077.62-.079 1.743-.003 2.21.277 1.707 1.336 2.721 3.15 3.015.46.075 1.813.054 2.293-.036.408-.076.824-.21 1.216-.39 1.09-.504 1.981-1.543 2.48-2.89l.082-.222h-.947c-.867.002-1.084-.013-2.039-.135-.055-.007-.087.04-.14.206-.273.862-.822 1.271-1.707 1.272-.342 0-.42-.012-.613-.103-.504-.236-.773-.716-.837-1.495-.03-.378.067-1.186.154-1.274.06-.06.274-.064 2.521-.053 1.351.006 2.739.025 3.083.042.512.024.635.02.672-.024.065-.077.286-.894.379-1.4.107-.586.115-1.929.013-2.368-.278-1.208-1.03-2.047-2.14-2.392a5.597 5.597 0 0 0-1.673-.235zm-9.318.006a3.237 3.237 0 0 0-.6.051c-.953.193-1.63.619-2.218 1.397-.197.26-.32.388-.372.388-.103 0-.1-.1.02-.512.053-.183.14-.496.193-.695l.097-.362-.575.03c-.745.04-1.613.04-2.289-.001l-.538-.033v.177c0 .504-.43 3.203-.78 4.902-.328 1.589-.818 3.788-1.2 5.379-.075.308-.135.57-.135.582 0 .012.119.008.264-.008.542-.06 1.38-.08 2.007-.047l.822.04.175.007.11-.588c.57-3.048 1.188-6.115 1.31-6.498.358-1.136 1.024-1.757 1.892-1.763.393-.003.616.085.837.33.295.326.295.765 0 2.154l-.292 1.371a171.856 171.856 0 0 1-.725 3.31 86.045 86.045 0 0 1-.326 1.38c-.04.157-.059.294-.04.306.033.02.395-.006.624-.045.136-.023 1.673-.023 1.841 0 .075.01.278.03.451.042l.315.025.13-.678c.304-1.574.87-4.23 1.26-5.907.465-1.998.486-2.912.084-3.66-.236-.439-.717-.794-1.3-.961-.264-.075-.669-.116-1.042-.113zm19.669 0c-.495-.001-1.045.038-1.405.11-1.01.203-1.763.583-2.452 1.239-1.083 1.031-1.801 2.764-2.06 4.972-.074.634-.075 1.774-.002 2.183.223 1.251.889 2.158 1.946 2.651.373.174.624.252 1.071.332.42.074 1.497.077 2.009.004 1.752-.25 2.897-1.078 3.536-2.562a7.467 7.467 0 0 0 .412-1.481l.027-.205-.329.028c-.422.037-1.846.037-2.231 0l-.297-.028-.11.38c-.22.773-.544 1.288-.946 1.507-.237.128-.658.204-.96.173-.602-.063-.913-.4-1.018-1.106-.1-.665.12-2.16.534-3.64.477-1.707.954-2.292 1.88-2.305.435-.006.672.081.896.33.26.29.32.633.248 1.419l-.032.344.385-.03c.508-.04 1.607-.04 2.15.002l.437.034.064-.347c.09-.496.083-1.213-.016-1.601-.333-1.3-1.345-2.107-2.957-2.355a5.6 5.6 0 0 0-.78-.048zm-43.42.017c-.726-.002-.902.01-1.276.086a4.966 4.966 0 0 0-1.265.405c-.95.443-1.764 1.233-2.334 2.268-.858 1.556-1.383 4.051-1.159 5.503.18 1.167.784 2.112 1.708 2.676.368.225 1.098.465 1.604.529.065.008.403.017.753.02 1.698.016 2.898-.435 3.929-1.477.853-.862 1.442-2.022 1.837-3.616.239-.965.282-1.264.304-2.127.024-.91-.023-1.272-.24-1.881a3.315 3.315 0 0 0-.763-1.244c-.494-.518-1.006-.807-1.806-1.02l-.45-.119zm32.882 2.211c.59 0 .96.19 1.17.6.102.198.118.275.131.645.013.332.001.468-.057.653-.1.32-.197.373-.756.414-.236.018-.948.045-1.584.06l-1.155.029-.027-.072c-.04-.101.038-.431.182-.777.423-1.017 1.146-1.552 2.096-1.552zm-33.167.021c.2-.005.4.018.547.069.543.19.74.756.64 1.848-.153 1.7-.778 3.775-1.353 4.497-.216.272-.574.514-.845.572-.254.055-.635.05-.86-.01-.684-.185-.875-.952-.622-2.505.237-1.451.57-2.604.987-3.415.22-.428.622-.835.949-.96.154-.058.356-.09.557-.096z" style="fill:#1c3c99;fill-opacity:1" transform="translate(-14.07 -136.707) scale(1.19667)"/>
  <path d="m40.25 145.157-.09.146c-.048.081-.235.378-.414.66-.18.283-.326.526-.326.54 0 .038 59.723.03 59.747-.01.028-.045.336-1.225.336-1.288 0-.039-5.952-.048-29.627-.048zm34.665 2.427-18.169.002-18.168.002-.176.221c-.097.121-.366.418-.597.659-.23.24-.408.448-.394.462.035.035 37.073.03 37.128-.005.04-.026.31-.957.357-1.233z" style="fill:#5ebc44;fill-opacity:1" transform="translate(-14.07 -136.707) scale(1.19667)"/>
  <path d="M30.576 116.807c-1.14.045-2.376.563-3.552 1.498-3.682 2.927-6.55 9.62-7.169 16.727-.178 2.048-.129 4.64.122 6.384.643 4.48 2.34 7.577 4.71 8.6.392.168.572.221.985.292.318.054 1.083.066 1.274.02l.117-.028-.117-.029c-.806-.198-1.348-.439-1.901-.847a6.78 6.78 0 0 1-1.3-1.318c-.978-1.314-1.685-3.01-2.143-5.143-.332-1.547-.472-2.899-.5-4.817-.023-1.58.03-2.625.205-4.109.917-7.75 4.375-14.554 8.439-16.603.419-.211 1.105-.45 1.428-.5.286-.042.243-.086-.116-.116a3.965 3.965 0 0 0-.482-.01zm3.003.006c-.12.002-.236.008-.327.019-1.424.156-2.803.91-4.171 2.277-1.023 1.024-1.876 2.186-2.744 3.743-2.007 3.596-3.288 8.249-3.603 13.08-.056.854-.055 2.802 0 3.585.11 1.531.357 3.17.63 4.171.373 1.374.646 2.11 1.136 3.074 1.02 2.005 2.457 3.25 4.09 3.541.329.059 1.092.074 1.293.026L30 150.3l-.117-.03c-.762-.192-1.213-.381-1.707-.717-2.077-1.411-3.493-4.549-3.992-8.85a31.464 31.464 0 0 1-.124-1.803c-.12-2.89.192-5.91.925-8.954.867-3.597 2.342-6.925 4.12-9.292 1.491-1.985 3.132-3.246 4.756-3.656.236-.06.44-.118.451-.13.038-.038-.371-.062-.733-.055zm3.127.003c-1.044-.024-2.078.315-3.16 1.03-3.283 2.167-6.182 7.607-7.322 13.74a37.055 37.055 0 0 0-.5 3.603c-.1 1.029-.1 4.066 0 5.013.439 4.153 1.539 7.062 3.317 8.768.806.774 1.643 1.198 2.702 1.37.234.038.911.022 1.254-.03.937-.14 2.007-.65 2.992-1.42.433-.34 1.571-1.508 1.974-2.029a21.38 21.38 0 0 0 1.65-2.497l.126-.225 38.918-.01 38.917-.01.148-.541c.081-.298.16-.601.173-.675l.025-.135H39.461l-.084.166c-.158.31-.518.91-.82 1.361-1.329 1.99-2.834 3.237-4.26 3.533-.46.095-1.087.08-1.52-.037-1.256-.342-2.368-1.569-3.107-3.428-.723-1.821-1.099-4.135-1.099-6.772 0-2.645.38-5.42 1.102-8.042.708-2.575 1.725-4.91 2.906-6.678.658-.985 1.68-2.11 2.396-2.636.903-.665 1.939-1.021 2.764-.952.982.081 1.883.612 2.602 1.532.62.792 1.067 1.706 1.465 2.996l.188.607.397.011.398.011v-.092c0-.132-.327-1.399-.495-1.918-.335-1.037-.854-2.154-1.357-2.92-.873-1.33-2.037-2.261-3.181-2.549a4.752 4.752 0 0 0-1.05-.145zm-10.012.03c-.071-.007-.306.026-.523.072-2.135.457-4.277 2.366-6.105 5.44-.492.828-1.15 2.173-1.62 3.314-.871 2.114-1.608 4.903-1.976 7.48a29.47 29.47 0 0 0-.324 4.622c0 1.743.088 2.852.343 4.348.697 4.094 2.376 6.966 4.62 7.906.39.163.557.212.96.28.162.028.39.053.508.055l.213.004-.418-.395c-1.37-1.289-2.443-3.265-3.105-5.713-.334-1.235-.552-2.496-.705-4.076-.085-.882-.117-2.951-.062-4 .43-8.165 3.65-15.841 8.012-19.092l.31-.232z" style="fill:#3f453d;fill-opacity:1" transform="translate(-14.07 -136.707) scale(1.19667)"/>
</svg>
