<?xml version="1.0" encoding="UTF-8" standalone="no"?>
<!-- Created with Inkscape (http://www.inkscape.org/) -->

<svg
   width="500"
   height="500"
   viewBox="0 0 132.29166 132.29167"
   version="1.1"
   id="svg1"
   xml:space="preserve"
   inkscape:version="1.4 (86a8ad7, 2024-10-11)"
   sodipodi:docname="chestercountydrugandalcohol.svg"
   xmlns:inkscape="http://www.inkscape.org/namespaces/inkscape"
   xmlns:sodipodi="http://sodipodi.sourceforge.net/DTD/sodipodi-0.dtd"
   xmlns="http://www.w3.org/2000/svg"
   xmlns:svg="http://www.w3.org/2000/svg"><sodipodi:namedview
     id="namedview1"
     pagecolor="#ffffff"
     bordercolor="#111111"
     borderopacity="1"
     inkscape:showpageshadow="0"
     inkscape:pageopacity="0"
     inkscape:pagecheckerboard="1"
     inkscape:deskcolor="#d1d1d1"
     inkscape:document-units="px"
     inkscape:zoom="1.1111933"
     inkscape:cx="220.03372"
     inkscape:cy="338.37497"
     inkscape:window-width="1920"
     inkscape:window-height="1115"
     inkscape:window-x="-9"
     inkscape:window-y="-9"
     inkscape:window-maximized="1"
     inkscape:current-layer="svg1"
     showgrid="false"
     showguides="false" /><defs
     id="defs1"><rect
       x="115.19148"
       y="319.47637"
       width="429.26825"
       height="86.393609"
       id="rect4" /><rect
       x="137.68982"
       y="349.17417"
       width="468.86532"
       height="44.996672"
       id="rect2" /></defs><g
     id="g99"
     transform="matrix(0.47125018,0,0,0.45960998,-3.169123,113.89697)"><g
       inkscape:label="key"
       inkscape:groupmode="layer"
       id="key"
       transform="translate(10.102041,-261.30612)"><path
         id="key_bottom"
         style="fill:#db7b29;fill-opacity:1"
         d="m 134.352,163.18074 -1.34823,0.6382 -1.34824,0.6382 v 7.53959 c 0,7.21474 -0.0274,7.55417 -0.63459,7.87911 -0.34896,0.18676 -0.63459,0.61467 -0.63459,0.95136 0,0.33669 0.28563,0.76512 0.63459,0.95188 0.59999,0.32107 0.63459,0.66411 0.63459,6.30298 0,3.27996 0.095,6.05901 0.21135,6.17533 0.40615,0.40615 4.86087,0.2384 4.91237,-0.185 0.0266,-0.2181 0.0781,-0.96759 0.11472,-1.66553 0.0366,-0.69793 0.0865,-1.44743 0.11059,-1.66553 0.0313,-0.2827 0.81805,-0.39688 2.7404,-0.39688 h 2.69647 v -0.93121 c 0,-0.81918 -0.12435,-0.94406 -1.03094,-1.03146 -0.90149,-0.0869 -1.04312,-0.22628 -1.12862,-1.10898 -0.0905,-0.93438 -0.02,-1.01671 0.95137,-1.11001 0.93226,-0.0895 1.04955,-0.20727 1.04955,-1.05264 v -0.95188 l -2.69648,-0.15865 c -2.56766,-0.15104 -2.6982,-0.19463 -2.7342,-0.91106 -0.0208,-0.41382 0.22884,-0.9806 0.555,-1.25987 0.71622,-0.61324 0.79674,-1.95285 0.11731,-1.95285 -0.26173,0 -0.48238,-0.17876 -0.48938,-0.39687 -0.007,-0.2181 -0.0434,-3.67019 -0.0796,-7.67137 l -0.0656,-7.27449 -1.26917,-0.67645 z"
         inkscape:label="key_bottom"
         inkscape:highlight-color="#ffd42a" /><path
         id="key_top"
         style="fill:#db7b29;fill-opacity:1"
         inkscape:highlight-color="#ffd42a"
         inkscape:label="key_top"
         d="m 134.09536,142.55575 c -0.5035,0.007 -1.01527,0.0752 -1.52652,0.2129 -2.77978,0.74852 -5.05713,4.13479 -4.61471,6.86108 0.15543,0.95781 0.0727,1.07083 -1.25935,1.71566 -4.40109,2.13053 -4.50762,8.78207 -0.17725,11.06909 2.16047,1.14102 5.73453,0.7307 7.30394,-0.83871 0.39152,-0.39152 0.5429,-0.36993 1.12603,0.1602 1.13524,1.03206 1.98584,1.32602 3.83543,1.32602 2.23873,0 3.55467,-0.54681 4.84001,-2.01073 2.71275,-3.08965 1.75903,-7.98163 -1.90273,-9.75961 -1.3273,-0.64448 -1.33927,-0.66551 -1.23403,-2.15853 0.25618,-3.6346 -2.86632,-6.6245 -6.39082,-6.57737 z m 0.15348,3.0794 a 2.9192803,2.9191926 0 0 1 2.9192,2.9192 2.9192803,2.9191926 0 0 1 -2.9192,2.9192 2.9192803,2.9191926 0 0 1 -2.91921,-2.9192 2.9192803,2.9191926 0 0 1 2.91921,-2.9192 z m -4.9165,8.58914 a 2.9192803,2.9191926 0 0 1 2.91972,2.9192 2.9192803,2.9191926 0 0 1 -2.91972,2.9192 2.9192803,2.9191926 0 0 1 -2.9192,-2.9192 2.9192803,2.9191926 0 0 1 2.9192,-2.9192 z m 9.66969,0 a 2.9192803,2.9191926 0 0 1 2.91921,2.9192 2.9192803,2.9191926 0 0 1 -2.91921,2.9192 2.9192803,2.9191926 0 0 1 -2.9192,-2.9192 2.9192803,2.9191926 0 0 1 2.9192,-2.9192 z" /></g><g
       id="dragon"
       inkscape:label="dragon"
       inkscape:highlight-color="#442b78"
       style="fill:#442b78;fill-opacity:1"
       transform="translate(10.102041,-261.30612)"><path
         id="path37"
         style="fill:#442b78;fill-opacity:1"
         d="m 123.08964,164.71656 c 0,0.2927 1.37677,3.98193 1.80454,4.83536 0.26604,0.53077 1.00399,1.73293 1.6397,2.67116 l 1.156,1.70584 0.0904,-3.42357 c 0.0498,-1.88296 -0.0216,-3.51391 -0.15864,-3.62407 -0.13706,-0.11016 -0.82033,-0.39149 -1.51826,-0.62528 -0.69793,-0.23379 -1.66113,-0.70102 -2.14095,-1.03818 -0.47983,-0.33716 -0.87282,-0.56286 -0.87282,-0.50126 z" /><path
         id="path36"
         style="fill:#442b78;fill-opacity:1"
         d="m 83.771113,163.90937 c -0.392422,-0.11108 -0.09504,0.16695 1.09089,1.27073 1.975605,1.83874 6.489682,5.20368 9.834541,7.33133 1.395864,0.8879 2.584549,1.62311 2.641699,1.63401 0.05715,0.0108 -0.556019,-0.72935 -1.362707,-1.64538 -0.806687,-0.91604 -1.995372,-2.76357 -2.641699,-4.10517 -1.073311,-2.2279 -1.271517,-2.45589 -2.285649,-2.63498 -2.285021,-0.40352 -5.588903,-1.20978 -6.662125,-1.62574 -0.276718,-0.10726 -0.484143,-0.18777 -0.61495,-0.2248 z" /><path
         id="path35"
         style="fill:#442b78;fill-opacity:1"
         d="m 141.5836,166.58673 c -0.031,-10e-4 -0.0662,0.002 -0.10645,0.0103 -0.10723,0.0218 -0.24911,0.0751 -0.43718,0.14728 -0.4222,0.162 -0.50178,0.85061 -0.50178,4.33979 v 4.14703 l 1.50688,1.40767 c 1.74145,1.62665 4.75221,3.81783 6.5779,4.78679 0.69535,0.36904 1.2961,0.67076 1.3348,0.67076 0.0387,0 -1.11015,-1.17792 -2.55282,-2.61741 -1.95839,-1.95407 -2.88282,-3.17044 -3.64835,-4.80126 -1.09392,-2.33041 -1.9371,-5.40711 -1.9451,-7.09518 -0.003,-0.72934 -0.0106,-0.98655 -0.2279,-0.9958 z" /><path
         id="path31"
         style="fill:#442b78;fill-opacity:1"
         d="m 66.620739,143.00264 c 0,0.47527 2.853426,4.89768 4.474145,6.93446 5.11823,6.43217 12.663862,10.95569 19.477881,11.67681 4.985404,0.5276 4.507035,0.30548 5.536096,2.57503 3.066043,6.76201 9.891689,13.23757 17.416509,16.52302 1.33442,0.58263 2.49549,1.06151 2.57969,1.06351 0.0842,0.002 -0.62981,-0.66185 -1.58647,-1.47537 -3.07625,-2.61597 -6.94043,-6.82214 -8.91057,-9.69863 -3.23759,-4.727 -4.94332,-8.75971 -6.491074,-15.34583 -0.04887,-0.20796 -1.355007,-0.44094 -3.203422,-0.57154 -4.236086,-0.29931 -10.32495,-1.58165 -14.368632,-3.02566 -5.430986,-1.93941 -9.136319,-4.00645 -12.891202,-7.19181 -1.117993,-0.94843 -2.032951,-1.60733 -2.032951,-1.46399 z" /><path
         id="path51"
         style="fill:#442b78;fill-opacity:1"
         d="m 180.74762,131.96042 c -0.0141,-0.0166 -0.0363,-0.0141 -0.0667,0.007 -0.14578,0.10261 -0.47888,0.64002 -1.00304,1.58182 -5.44936,9.79116 -15.38324,19.4208 -27.77402,26.92445 l -1.16478,0.7059 -0.37827,-1.83503 c -0.20804,-1.00912 -0.61975,-2.30838 -0.91519,-2.88768 l -0.53744,-1.05368 -0.0129,1.52911 c -0.0289,3.34627 -1.65386,6.41074 -4.39146,8.28115 -1.80156,1.23088 -1.83374,1.4561 -0.58084,4.11396 0.88926,1.88646 1.09251,1.94627 3.6313,1.0728 3.55862,-1.22435 9.1153,-4.5734 13.61519,-8.2057 3.36646,-2.7174 8.33242,-7.9846 10.8598,-11.51816 2.53654,-3.54636 6.47413,-11.31584 7.83363,-15.45746 0.68522,-2.08747 0.98357,-3.1422 0.8847,-3.25871 z" /><path
         id="path50"
         style="fill:#442b78;fill-opacity:1"
         d="m 208.64514,128.02733 c -0.0277,-0.0221 -0.0795,0.0201 -0.15658,0.13332 -5.91187,8.68014 -14.01672,15.65632 -24.01248,20.66799 l -3.80701,1.90841 -3.48195,4.17959 c -9.07956,10.89773 -17.0505,17.09328 -25.35815,19.71094 -0.56073,0.17668 -0.53856,0.26094 0.29818,1.1343 1.0646,1.11121 3.13925,2.16963 5.37021,2.73988 1.7293,0.44202 6.08912,0.34202 6.58203,-0.15089 0.18622,-0.18623 -0.15746,-0.58139 -0.91467,-1.05213 l -1.21285,-0.75396 1.58647,-0.0806 c 2.73885,-0.13903 5.63452,-0.72714 7.77213,-1.57871 3.32227,-1.32351 8.22277,-4.59256 13.16561,-8.78241 l 0.95188,-0.80667 -0.95188,0.13952 c -4.11696,0.60398 -9.26193,0.33709 -6.10712,-0.31677 2.04205,-0.42323 6.78761,-2.49006 9.0475,-3.94085 2.80476,-1.80058 6.03241,-4.59987 8.16281,-7.07915 0.87242,-1.01528 1.76112,-2.04107 1.97456,-2.27945 2.16601,-2.41898 7.14683,-11.64152 8.92814,-16.53077 1.39286,-3.82302 2.35726,-7.10713 2.16317,-7.26157 z" /><path
         id="path24"
         style="fill:#442b78;fill-opacity:1"
         d="m 133.48281,91.429043 c -0.11777,-0.147827 -0.15425,-0.01993 -0.0558,0.517798 0.33735,1.842778 0.19262,5.560986 -0.29921,7.681185 -0.96136,4.144374 -2.98595,7.569564 -6.5195,11.029814 -2.29597,2.24833 -2.21482,2.27759 1.7663,0.64079 2.74839,-1.12997 5.52076,-3.01063 6.04459,-4.10052 1.34877,-2.80627 1.67329,-6.72922 0.87592,-10.589538 -0.37352,-1.80832 -1.45898,-4.736046 -1.81229,-5.179529 z" /><path
         id="path20"
         style="fill:#442b78;fill-opacity:1"
         d="m 69.046431,75.285326 c -0.494972,-0.494972 -5.567399,9.404041 -7.183024,14.017749 -2.771275,7.913874 -4.08,20.254635 -2.910417,27.441735 2.407979,14.79706 11.765657,25.54672 26.860892,30.856 2.810024,0.98833 7.412912,2.20617 9.675895,2.56057 0.436208,0.0683 1.212809,0.14363 1.725993,0.16743 0.831393,0.0385 0.728053,-0.0804 -0.951363,-1.09089 -9.31811,-5.6065 -16.867524,-16.88151 -20.241658,-30.23175 -0.413264,-1.63514 -0.836852,-2.83506 -0.941028,-2.6665 -0.681801,1.10317 -1.580052,6.7495 -1.721859,10.82156 -0.186664,5.36015 -0.16669,5.3593 -2.754353,0.15554 -3.69086,-7.42227 -5.494835,-14.82322 -5.785694,-23.73756 -0.309497,-9.485591 1.033944,-18.981237 3.742407,-26.452136 0.340414,-0.93898 0.558119,-1.767838 0.484209,-1.841748 z" /><path
         id="path17"
         style="fill:#442b78;fill-opacity:1"
         d="m 189.39619,63.923746 0.9095,2.537829 c 1.32875,3.707172 3.06662,11.047846 3.90571,16.496668 0.63887,4.148442 0.73257,5.918152 0.72657,13.800191 -0.006,7.918456 -0.0981,9.612856 -0.74517,13.641546 -1.7741,11.04598 -4.45072,19.86086 -8.94726,29.46797 -0.68505,1.46363 -1.2454,2.71102 -1.2454,2.77192 0,0.24658 3.81151,-2.32645 6.25956,-4.22558 2.56688,-1.99132 7.20687,-6.38714 9.24595,-8.75916 5.38879,-6.26865 9.4129,-14.18242 11.00088,-21.63485 0.56259,-2.64025 0.79312,-12.368424 0.31161,-13.147519 -0.14384,-0.232735 -0.62924,0.523985 -1.24592,1.942 -1.05417,2.424022 -3.64897,6.668399 -4.33617,7.093109 -0.46288,0.28608 -0.43273,0.17276 0.93121,-3.53984 2.98468,-8.124176 1.88197,-18.080464 -3.12229,-28.195692 -2.60405,-5.263635 -2.95314,-5.691678 -2.33216,-2.85564 0.79775,3.643316 0.6387,15.173956 -0.19637,14.232723 -0.13373,-0.150722 -0.43209,-0.98742 -0.66249,-1.859835 -1.37207,-5.195497 -5.12296,-11.83805 -9.31571,-16.496667 z" /><path
         id="path48"
         style="fill:#442b78;fill-opacity:1"
         d="m 142.75097,31.974275 c -0.77613,-0.01586 -1.26142,0.0085 -1.26142,0.08578 0,0.0995 0.5358,0.435858 1.19011,0.747758 2.2388,1.067202 8.16703,5.178008 11.09751,7.695138 11.57358,9.941085 18.67637,23.025746 21.18889,39.033792 0.6052,3.855951 0.96717,13.593501 0.54571,14.680758 -0.29832,0.76959 -0.32716,0.748795 -1.1095,-0.793234 -0.83773,-1.651195 -3.689,-5.691823 -3.8809,-5.499922 -0.0607,0.06072 0.0401,0.82426 0.22376,1.696537 0.18363,0.872278 0.34364,3.941288 0.35554,6.820256 0.0192,4.647952 -0.0725,5.607592 -0.81598,8.565372 -1.94477,7.73704 -5.49005,13.62027 -11.81633,19.60862 -2.29527,2.17266 -8.90096,7.03988 -9.55445,7.03988 -0.13001,0 -0.46145,0.18839 -0.73691,0.41858 -0.59604,0.49809 -5.55923,2.75384 -6.05906,2.75384 -0.19154,0 -0.25608,-0.14955 -0.14315,-0.33228 0.11294,-0.18274 0.20568,-1.29526 0.20568,-2.4722 0,-3.51194 -1.24676,-6.97551 -3.93981,-10.94714 l -1.25729,-1.85466 0.96376,-1.00046 c 1.43191,-1.48633 3.16259,-4.53572 3.89899,-6.86935 0.76603,-2.42752 1.12322,-8.91546 0.65474,-11.896433 -0.29843,-1.898712 -0.29936,-1.899681 -0.33796,-0.463021 -0.0874,3.253364 -1.92514,7.712644 -4.13153,10.025234 -3.52417,3.69379 -8.33695,6.12233 -14.72985,7.4321 -3.24406,0.66464 -3.58753,0.9134 -5.93297,4.3062 -2.50936,3.62991 -3.2388,5.516 -3.35742,8.67906 -0.0653,1.74183 -0.0119,2.35944 0.15089,1.74459 0.62429,-2.35751 2.05389,-3.58783 5.48752,-4.72219 4.61852,-1.52581 7.12087,-2.98745 7.76904,-4.53874 0.24699,-0.59112 0.5739,-0.99771 0.72657,-0.90331 0.15267,0.0943 0.68392,0.84923 1.18029,1.67794 0.86141,1.43819 0.90173,1.68024 0.88573,5.31389 -0.0167,3.80002 -0.66814,7.23033 -2.19315,11.54968 -0.5847,1.65608 -0.42764,1.96415 0.54519,1.06763 1.7467,-1.60969 6.3281,-2.16448 9.24388,-1.11931 1.86741,0.66938 4.04237,2.51336 5.10667,4.32945 0.70831,1.20864 0.99046,1.39219 3.08818,2.01125 2.64107,0.77941 4.80538,2.10628 6.32881,3.87935 0.58048,0.6756 1.13734,1.24042 1.23714,1.25522 0.29717,0.044 4.72818,-3.07757 7.1024,-5.00331 10.91564,-8.85374 17.71438,-19.48679 20.1719,-31.54795 0.81097,-3.98013 1.14578,-10.77617 0.65836,-13.36197 -0.19441,-1.03282 -0.28589,-1.945495 -0.20309,-2.028305 0.25289,-0.252887 2.06986,4.066985 2.86907,6.821295 0.98018,3.37804 1.73737,8.5428 1.73737,11.85095 0,1.44617 0.0611,2.56766 0.13642,2.49236 0.0753,-0.0753 0.56813,-2.276 1.09503,-4.89066 4.06744,-20.184053 1.79397,-39.833539 -6.52932,-56.428083 -1.55375,-3.097788 -4.04642,-7.194064 -5.6963,-9.361185 -0.58366,-0.766643 -1.06143,-1.508172 -1.06143,-1.647962 0,-0.30394 2.5022,0.772692 6.78202,2.918685 3.69058,1.85054 7.72644,4.555733 11.13265,7.462077 2.56976,2.192635 2.6161,2.042099 0.40308,-1.305347 -7.95953,-12.039664 -23.25733,-21.309327 -39.81825,-24.127726 -2.32137,-0.395058 -7.26841,-0.800954 -9.59683,-0.848527 z" /><path
         id="path9"
         style="fill:#442b78;fill-opacity:1"
         d="m 113.33572,32.686377 -1.70584,0.497644 c -18.189912,5.310084 -32.272079,16.933316 -43.750303,36.10994 -0.811242,1.355366 -0.584336,1.305798 1.437638,-0.314193 1.790812,-1.434786 6.143433,-3.714041 9.623702,-5.038969 3.82842,-1.457464 4.164716,-1.450083 2.98328,0.06253 -3.454252,4.422536 -6.853105,11.557426 -8.802563,18.478975 -2.191681,7.781561 -3.147039,18.130126 -2.533179,27.441736 l 0.251148,3.80648 0.555005,-2.06189 c 0.757871,-2.81617 1.855286,-5.45384 3.794083,-9.11934 1.657043,-3.132802 2.096634,-3.798092 2.345594,-3.549132 0.07573,0.07573 0.358406,2.136412 0.628385,4.579052 1.16061,10.50067 3.746577,18.9892 8.190714,26.88518 4.04014,7.17819 10.403897,13.91247 16.274456,17.22272 0.87242,0.49193 1.61937,0.91446 1.66037,0.93896 0.041,0.0245 0.22668,1.17709 0.41237,2.56108 0.84182,6.27401 2.93857,11.61509 6.77892,17.26768 2.31316,3.40472 7.66822,8.63052 11.4515,11.17503 v 5.2e-4 c 1.74483,1.17352 3.33754,2.13747 3.53931,2.14147 0.76805,0.0162 -0.0495,-1.48188 -1.8898,-3.46232 -3.18905,-3.4319 -4.90899,-6.38354 -6.48178,-11.12335 -0.65399,-1.97089 -0.81699,-3.20228 -0.95033,-7.17424 -0.1822,-5.42767 0.0218,-6.79684 2.16938,-14.56862 0.72144,-2.61072 1.32956,-4.93503 1.35186,-5.16506 0.0249,-0.25695 -1.12136,-0.81791 -2.97295,-1.45469 -9.7303,-3.34633 -16.59128,-9.29368 -19.979658,-17.31988 -1.438292,-3.40693 -1.944789,-5.99396 -2.13372,-10.89442 l -0.181384,-4.70773 -0.673344,0.7426 c -2.665891,2.94059 -4.562025,6.40106 -4.852934,8.85734 -0.102873,0.8686 -0.288338,1.64205 -0.412378,1.71875 -0.262054,0.16196 -2.541661,-6.75777 -3.448885,-10.46861 -1.502767,-6.14679 -1.786971,-8.86772 -1.786971,-17.130734 0,-8.4681 0.241819,-10.573678 1.937349,-16.873388 3.585343,-13.321273 12.543356,-26.983124 24.989175,-38.110852 z" /></g></g><text
     xml:space="preserve"
     style="font-style:normal;font-variant:normal;font-weight:bold;font-stretch:normal;font-size:0.555625px;font-family:'Open Sans';-inkscape-font-specification:'Open Sans Bold';text-align:start;writing-mode:lr-tb;direction:ltr;text-anchor:start;fill:#442b78;fill-opacity:1;stroke-width:0.18759;stroke-linecap:square;stroke-linejoin:round;stroke-miterlimit:0;paint-order:markers fill stroke"
     x="12.619692"
     y="98.100243"
     id="text1"><tspan
       sodipodi:role="line"
       id="tspan1"
       style="stroke-width:0.18759"
       x="12.619692"
       y="98.100243">Pre</tspan></text><text
     xml:space="preserve"
     transform="scale(0.26458333)"
     id="text2"
     style="fill:#442b78;text-orientation:auto;stroke-miterlimit:0;-inkscape-font-specification:'Open Sans Bold';font-family:'Open Sans';font-size:2.1px;paint-order:markers fill stroke;stroke-width:0.709;stroke-linecap:square;stroke-linejoin:round;text-align:start;writing-mode:lr-tb;direction:ltr;font-weight:bold;font-style:normal;font-stretch:normal;font-variant:normal;fill-opacity:1;white-space:pre;shape-inside:url(#rect2)" /><text
     xml:space="preserve"
     transform="scale(0.26458333)"
     id="text4"
     style="fill:#442b78;text-orientation:auto;stroke-miterlimit:0;-inkscape-font-specification:'Open Sans Bold';font-family:'Open Sans';font-size:2.1px;paint-order:markers fill stroke;stroke-width:0.709;stroke-linecap:square;stroke-linejoin:round;text-align:start;writing-mode:lr-tb;direction:ltr;font-weight:bold;font-style:normal;font-stretch:normal;font-variant:normal;fill-opacity:1;white-space:pre;shape-inside:url(#rect4)" /><g
     id="g8"
     transform="matrix(1.353607,0,0,1.353607,-23.808067,89.909299)"><text
       xml:space="preserve"
       style="font-style:normal;font-variant:normal;font-weight:800;font-stretch:normal;font-size:6.91838px;font-family:'Open Sans';-inkscape-font-specification:'Open Sans Ultra-Bold';text-align:center;writing-mode:lr-tb;direction:ltr;text-anchor:middle;fill:#442b78;fill-opacity:1;stroke-width:0.350367;stroke-linecap:square;stroke-linejoin:round;stroke-miterlimit:0;paint-order:markers fill stroke"
       x="65.420074"
       y="13.266318"
       id="text6-8"
       transform="scale(1.0091137,0.9909686)"><tspan
         sodipodi:role="line"
         id="tspan6-8"
         style="font-style:normal;font-variant:normal;font-weight:800;font-stretch:normal;font-family:'Open Sans';-inkscape-font-specification:'Open Sans Ultra-Bold';text-align:center;text-anchor:middle;stroke-width:0.350367"
         x="65.420074"
         y="13.266318">Drug &amp; Alcohol Services</tspan></text><text
       xml:space="preserve"
       style="font-style:normal;font-variant:normal;font-weight:800;font-stretch:normal;font-size:5.50217px;font-family:'Open Sans';-inkscape-font-specification:'Open Sans Ultra-Bold';text-align:center;writing-mode:lr-tb;direction:ltr;text-anchor:middle;fill:#442b78;fill-opacity:1;stroke-width:0.278646;stroke-linecap:square;stroke-linejoin:round;stroke-miterlimit:0;paint-order:markers fill stroke"
       x="65.290527"
       y="22.610893"
       id="text6-8-5"
       transform="scale(1.0091137,0.9909686)"><tspan
         sodipodi:role="line"
         id="tspan6-8-1"
         style="font-style:normal;font-variant:normal;font-weight:600;font-stretch:normal;font-family:'Open Sans';-inkscape-font-specification:'Open Sans Semi-Bold';text-align:center;text-anchor:middle;stroke-width:0.278646"
         x="65.290527"
         y="22.610893">Prevention • Treatment • Recovery</tspan></text><text
       xml:space="preserve"
       style="font-style:normal;font-variant:normal;font-weight:800;font-stretch:normal;font-size:6.91838px;font-family:'Open Sans';-inkscape-font-specification:'Open Sans Ultra-Bold';text-align:center;writing-mode:lr-tb;direction:ltr;text-anchor:middle;fill:#442b78;fill-opacity:1;stroke-width:0.350367;stroke-linecap:square;stroke-linejoin:round;stroke-miterlimit:0;paint-order:markers fill stroke"
       x="64.571587"
       y="4.6444817"
       id="text6-8-52"
       transform="scale(1.0091137,0.9909686)"><tspan
         sodipodi:role="line"
         id="tspan6-8-7"
         style="font-style:normal;font-variant:normal;font-weight:800;font-stretch:normal;font-family:'Open Sans';-inkscape-font-specification:'Open Sans Ultra-Bold';text-align:center;text-anchor:middle;stroke-width:0.350367"
         x="64.571587"
         y="4.6444817">Chester County</tspan></text></g></svg>
