<svg xmlns="http://www.w3.org/2000/svg" xml:space="preserve" viewBox="0 0 132.2917 132.2917">
  <defs/>
  <g fill="#db7b29">
    <path d="m64.9049 68.7976-.6354.2933-.6353.2933v3.4653c0 3.316-.013 3.472-.299 3.6213-.1645.0858-.2991.2825-.2991.4373 0 .1547.1346.3516.299.4374.2828.1476.299.3053.299 2.897 0 1.5075.0448 2.7847.0997 2.8382.1914.1867 2.2906.1096 2.315-.085.0124-.1003.0367-.4447.054-.7655.0172-.3208.0407-.6653.052-.7655.0148-.13.3856-.1824 1.2915-.1824h1.2707v-.428c0-.3765-.0586-.434-.4858-.474-.4248-.04-.4916-.104-.5319-.5098-.0426-.4294-.0094-.4673.4484-.5102.4393-.041.4946-.0952.4946-.4838v-.4375l-1.2708-.0729c-1.21-.0694-1.2715-.0894-1.2885-.4187-.0098-.1902.1079-.4507.2616-.579.3375-.2819.3755-.8976.0553-.8976-.1234 0-.2273-.0822-.2306-.1824-.0033-.1002-.0205-1.6869-.0376-3.5258l-.0309-3.3435-.598-.3109z"/>
    <path d="M64.784 59.3181a2.9869 2.9869 0 0 0-.7194.0979c-1.31.344-2.3832 1.9004-2.1747 3.1534.0732.4402.0342.4922-.5935.7885-2.074.9792-2.1242 4.0363-.0835 5.0875 1.0181.5244 2.7024.3358 3.442-.3855.1845-.18.2558-.17.5306.0736.535.4744.9358.6095 1.8074.6095 1.055 0 1.6752-.2513 2.2809-.9242 1.2784-1.42.829-3.6684-.8967-4.4856-.6255-.2962-.631-.3059-.5815-.992.1207-1.6706-1.3508-3.0447-3.0117-3.023zm.0723 1.4153a1.3757 1.3417 0 0 1 1.3756 1.3417 1.3757 1.3417 0 0 1-1.3756 1.3417 1.3757 1.3417 0 0 1-1.3757-1.3417 1.3757 1.3417 0 0 1 1.3757-1.3417zm-2.317 3.9477a1.3757 1.3417 0 0 1 1.376 1.3417 1.3757 1.3417 0 0 1-1.376 1.3417 1.3757 1.3417 0 0 1-1.3756-1.3417 1.3757 1.3417 0 0 1 1.3757-1.3417zm4.5569 0a1.3757 1.3417 0 0 1 1.3757 1.3417 1.3757 1.3417 0 0 1-1.3757 1.3417 1.3757 1.3417 0 0 1-1.3757-1.3417 1.3757 1.3417 0 0 1 1.3757-1.3417z"/>
  </g>
  <g fill="#442b78">
    <path d="M59.5975 69.5034c0 .1346.6488 1.8302.8504 2.2224.1253.244.4731.7965.7727 1.2277l.5447.784.0426-1.5735c.0235-.8654-.0101-1.615-.0747-1.6656-.0646-.0507-.3866-.18-.7155-.2874-.3289-.1075-.7828-.3222-1.009-.4772-.226-.155-.4112-.2587-.4112-.2304zM41.0686 69.1325c-.185-.0511-.0448.0767.5141.584.931.8451 3.0583 2.3917 4.6345 3.3695.6578.4081 1.218.746 1.245.751.0269.005-.262-.3352-.6422-.7562s-.9404-1.2701-1.245-1.8868c-.5057-1.024-.5991-1.1287-1.077-1.211-1.0769-.1855-2.6338-.556-3.1396-.7472-.1304-.0493-.2281-.0863-.2898-.1033zM68.3128 70.363a.2197.2197 0 0 0-.0502.0047c-.0505.01-.1174.0345-.206.0677-.199.0745-.2365.391-.2365 1.9946v1.906l.7101.647c.8207.7476 2.2395 1.7547 3.0999 2.2.3277.1697.6108.3084.629.3084.0182 0-.5232-.5414-1.203-1.203-.923-.8981-1.3586-1.4572-1.7193-2.2067-.5155-1.0711-.9129-2.4852-.9166-3.261-.0015-.3353-.005-.4535-.1074-.4577z"/>
    <path d="M32.9865 59.5235c0 .2184 1.3447 2.251 2.1084 3.1872 2.412 2.9562 5.9679 5.0353 9.179 5.3667 2.3494.2425 2.124.1404 2.6089 1.1835 1.4449 3.108 4.6614 6.0842 8.2075 7.5942.6289.2678 1.176.4879 1.2157.4888.0397.001-.2968-.3042-.7476-.6781-1.4497-1.2023-3.2707-3.1355-4.1991-4.4576-1.5258-2.1726-2.3296-4.026-3.059-7.053-.023-.0957-.6385-.2027-1.5096-.2628-1.9962-.1375-4.8656-.727-6.7712-1.3906-2.5593-.8914-4.3055-1.8414-6.075-3.3054-.5268-.436-.958-.7388-.958-.6729zM86.7688 54.4484c-.0066-.0076-.017-.0065-.0314.0032-.0687.0472-.2257.2942-.4727.727-2.568 4.5001-7.2494 8.926-13.0885 12.3748l-.549.3244-.1782-.8434c-.098-.4638-.292-1.061-.4313-1.3272l-.2532-.4843-.0061.7028c-.0136 1.538-.7794 2.9465-2.0695 3.8061-.849.5657-.8641.6693-.2737 1.8908.419.867.5148.8946 1.7112.4931 1.677-.5627 4.2956-2.102 6.4162-3.7714 1.5865-1.249 3.9267-3.6698 5.1177-5.2939 1.1953-1.63 3.051-5.2008 3.6916-7.1044.3229-.9594.4635-1.4442.4169-1.4977zM99.9155 52.6407c-.013-.0101-.0374.0092-.0738.0613-2.786 3.9895-6.6053 7.1958-11.3158 9.4992l-1.7941.8771-1.6409 1.921c-4.2787 5.0087-8.035 7.8562-11.95 9.0593-.2642.0813-.2538.12.1405.5214.5017.5107 1.4794.9972 2.5307 1.2593.815.2031 2.8695.1572 3.1018-.0694.0878-.0856-.0742-.2672-.431-.4836l-.5716-.3465.7476-.037c1.2907-.064 2.6553-.3342 3.6627-.7256 1.5656-.6083 3.875-2.1108 6.2043-4.0365l.4485-.3708-.4485.0642c-1.9402.2776-4.3647.1549-2.878-.1456.9623-.1945 3.1986-1.1445 4.2636-1.8113 1.3217-.8275 2.8428-2.1141 3.8467-3.2536.4112-.4667.83-.9381.9305-1.0477 1.0208-1.1118 3.368-5.3505 4.2074-7.5977.6564-1.757 1.1109-3.2665 1.0194-3.3375zM64.4953 35.8198c-.0555-.068-.0727-.0092-.0263.238.159.847.0907 2.5558-.141 3.5303-.453 1.9048-1.4072 3.479-3.0724 5.0694-1.082 1.0334-1.0437 1.0468.8324.2945 1.2952-.5193 2.6017-1.3837 2.8485-1.8846.6356-1.2898.7886-3.0928.4128-4.867-.176-.8312-.6875-2.1768-.854-2.3806zM34.1296 28.4c-.2332-.2275-2.6236 4.3221-3.385 6.4427-1.306 3.6372-1.9227 9.3092-1.3715 12.6124 1.1347 6.801 5.5445 11.7416 12.6582 14.1818 1.3242.4542 3.4933 1.014 4.5597 1.1768.2056.0314.5716.066.8134.077.3918.0177.3431-.037-.4483-.5014-4.3912-2.5768-7.9488-7.7589-9.5389-13.8948-.1948-.7515-.3944-1.303-.4435-1.2256-.3213.507-.7446 3.1022-.8114 4.9737-.088 2.4636-.0785 2.4632-1.298.0715-1.7393-3.4113-2.5894-6.8129-2.7265-10.91-.1458-4.3597.4873-8.724 1.7636-12.1577.1604-.4315.263-.8125.2282-.8464zM90.8445 23.178l.4286 1.1665c.6261 1.7038 1.4451 5.0777 1.8405 7.582.301 1.9067.3452 2.72.3424 6.3427-.0028 3.6394-.0462 4.4182-.3511 6.2698-.836 5.0768-2.0974 9.1283-4.2164 13.5438-.3229.6727-.587 1.246-.587 1.274 0 .1133 1.7962-1.0693 2.9499-1.9421 1.2096-.9153 3.3962-2.9356 4.3571-4.0258 2.5395-2.8812 4.4359-6.5184 5.1842-9.9436.2651-1.2135.3738-5.6847.1469-6.0428-.0678-.107-.2966.2409-.5872.8926-.4968 1.1141-1.7196 3.0649-2.0434 3.26-.2181.1315-.204.0795.4388-1.6269 1.4066-3.734.8869-8.31-1.4714-12.959-1.2271-2.4192-1.3916-2.616-1.099-1.3125.376 1.6745.301 6.9741-.0925 6.5415-.063-.0693-.2036-.4538-.3122-.8548-.6466-2.3879-2.4142-5.4409-4.39-7.582z"/>
    <path d="M68.8629 8.4938c-.3658-.0073-.5945.0039-.5945.0394 0 .0457.2525.2003.5609.3437 1.055.4905 3.8487 2.3798 5.2297 3.5367 5.454 4.569 8.8012 10.5829 9.9853 17.9404.2852 1.7722.4557 6.2477.2571 6.7474-.1406.3537-.1542.3441-.5228-.3646-.3948-.759-1.7385-2.616-1.829-2.5278-.0285.0279.019.3788.1055.7797.0866.401.162 1.8115.1676 3.1347.009 2.1362-.0342 2.5773-.3845 3.9367-.9165 3.556-2.5872 6.26-5.5685 9.0123-1.0816.9986-4.1946 3.2356-4.5025 3.2356-.0613 0-.2175.0866-.3473.1924-.2809.229-2.6198 1.2657-2.8553 1.2657-.0903 0-.1207-.0687-.0675-.1527s.097-.5953.097-1.1363c0-1.614-.5876-3.206-1.8567-5.0314l-.5925-.8524.4542-.4598c.6748-.6832 1.4903-2.0847 1.8374-3.1572.361-1.1158.5293-4.0977.3085-5.4678-.1406-.8726-.141-.873-.1592-.2128-.0412 1.4953-.9073 3.5448-1.947 4.6077-1.6608 1.6977-3.9288 2.814-6.9415 3.4159-1.5287.3055-1.6906.4198-2.7959 1.9792-1.1825 1.6683-1.5263 2.5352-1.5822 3.989-.0307.8005-.0056 1.0844.0711.8018.2942-1.0836.968-1.649 2.586-2.1704 2.1765-.7013 3.3557-1.373 3.6612-2.086.1164-.2717.2704-.4586.3424-.4152.072.0433.3223.3903.5562.7712.406.661.425.7722.4174 2.4423-.0079 1.7465-.3149 3.3231-1.0335 5.3084-.2756.7611-.2015.9027.2569.4906.8231-.7398 2.9821-.9948 4.3562-.5144.88.3077 1.905 1.1552 2.4065 1.9899.3338.5555.4668.6398 1.4553.9244 1.2446.3582 2.2645.968 2.9825 1.783.2735.3105.536.57.583.5769.14.0202 2.2281-1.4145 3.347-2.2996 5.144-4.0693 8.3479-8.9563 9.506-14.4998.3821-1.8293.54-4.9528.3102-6.1413-.0916-.4747-.1347-.8941-.0957-.9322.1192-.1162.9754 1.8692 1.352 3.1351.462 1.5526.8188 3.9264.8188 5.4469 0 .6646.0288 1.18.0643 1.1455.0355-.0346.2677-1.0461.516-2.2478 1.9168-9.2768.8454-18.308-3.077-25.935-.7321-1.4237-1.9068-3.3064-2.6843-4.3024-.275-.3524-.5002-.6932-.5002-.7575 0-.1396 1.1792.3552 3.196 1.3415 1.7392.8505 3.6411 2.0939 5.2463 3.4296 1.211 1.0078 1.2328.9386.19-.5999-3.751-5.5336-10.96-9.794-18.7644-11.0893-1.094-.1816-3.4252-.3682-4.5225-.39z"/>
    <path d="m55.001 8.821-.804.2288c-8.572 2.4405-15.2082 7.7827-20.6173 16.5965-.3823.623-.2753.6001.6775-.1444.844-.6595 2.8951-1.707 4.5352-2.316 1.8041-.6699 1.9626-.6665 1.4059.0287-1.6279 2.0327-3.2296 5.312-4.1483 8.4932-1.0328 3.5764-1.483 8.3327-1.1937 12.6125l.1183 1.7495.2616-.9477c.3571-1.2944.8743-2.5067 1.788-4.1914.7808-1.4398.988-1.7456 1.1053-1.6312.0357.0348.169.982.2961 2.1046.547 4.8262 1.7656 8.7276 3.86 12.3567 1.9038 3.2992 4.9028 6.3943 7.6693 7.9157.411.2261.763.4203.7824.4316.0193.0113.1068.541.1943 1.177.3967 2.8837 1.3848 5.3385 3.1946 7.9365 1.09 1.5648 3.6137 3.9667 5.3965 5.1361v.0003c.8223.5393 1.5728.9824 1.668.9842.3619.0075-.0234-.681-.8906-1.5913-1.5029-1.5773-2.3134-2.934-3.0546-5.1124-.3082-.9058-.385-1.4718-.4478-3.2973-.0859-2.4947.0102-3.124 1.0223-6.696.34-1.1998.6265-2.2681.637-2.3738.0118-.1181-.5284-.376-1.401-.6686-4.5854-1.538-7.8186-4.2715-9.4154-7.9604-.6778-1.5659-.9164-2.755-1.0055-5.0072l-.0855-2.1637-.3173.3413c-1.2563 1.3515-2.1498 2.942-2.287 4.0709-.0484.3992-.1358.7547-.1943.79-.1234.0744-1.1977-3.106-1.6252-4.8115-.7082-2.8251-.8421-4.0757-.8421-7.8735 0-3.892.114-4.8597.913-7.7552 1.6895-6.1225 5.911-12.4017 11.776-17.516z"/>
  </g>
  <text xml:space="preserve" x="12.6197" y="98.1002" fill="#442b78" stroke-linecap="square" stroke-linejoin="round" stroke-miterlimit="0" stroke-width=".1876" font-family="Open Sans" font-size=".5556" font-weight="bold" paint-order="markers fill stroke" style="-inkscape-font-specification:'Open Sans Bold';text-align:start"><tspan x="12.6197" y="98.1002">Pre</tspan></text>
  <g fill="#442b78" stroke-linecap="square" stroke-linejoin="round" stroke-miterlimit="0" font-family="Open Sans" font-weight="800" paint-order="markers fill stroke" text-anchor="middle">
    <text xml:space="preserve" x="65.4201" y="13.2663" stroke-width=".3504" font-size="6.9184" style="-inkscape-font-specification:'Open Sans Ultra-Bold';text-align:center" transform="matrix(1.36594 0 0 1.34138 -23.808 89.9093)"><tspan x="65.4201" y="13.2663" style="-inkscape-font-specification:'Open Sans Ultra-Bold';text-align:center">Drug &amp; Alcohol Services</tspan></text>
    <text xml:space="preserve" x="65.2905" y="22.6109" stroke-width=".2786" font-size="5.5022" style="-inkscape-font-specification:'Open Sans Ultra-Bold';text-align:center" transform="matrix(1.36594 0 0 1.34138 -23.808 89.9093)"><tspan x="65.2905" y="22.6109" font-weight="600" style="-inkscape-font-specification:'Open Sans Semi-Bold';text-align:center">Prevention • Treatment • Recovery</tspan></text>
    <text xml:space="preserve" x="64.5716" y="4.6445" stroke-width=".3504" font-size="6.9184" style="-inkscape-font-specification:'Open Sans Ultra-Bold';text-align:center" transform="matrix(1.36594 0 0 1.34138 -23.808 89.9093)"><tspan x="64.5716" y="4.6445" style="-inkscape-font-specification:'Open Sans Ultra-Bold';text-align:center">Chester County</tspan></text>
  </g>
</svg>
