<svg xmlns="http://www.w3.org/2000/svg" xml:space="preserve" id="Layer_1" x="0" y="0" version="1.1" viewBox="0 0 115 60">
  <style>
    .st0{fill:#F58220;}
	.st1{fill:#F99D27;}
	.st2{fill:#797D82;}
  </style>
  <path d="M48.1 12.2c-.6.7-1.7.7-2.4 0-.7-.6-.7-1.7 0-2.4.6-.7 1.7-.7 2.4 0 .6.7.7 1.7 0 2.4" class="st0"/>
  <path d="M44 14.1c2.1-7.1-2.5-9.2-2.7-9-.2.2 1.5 1.1 1.4 5.9-.2 4.7-2.6 6.3-2.2 6.8.5.4 2-2.1 6.7-2.4 4.7-.4 5.7 1.3 5.9 1.1.2-.3-2.1-4.8-9.1-2.4M28 7.4c-3.1-6.7-8-5.2-8-5 0 .3 1.9-.2 4.9 3.5 3 3.6 2.2 6.5 2.9 6.5.7 0 .1-2.9 3.4-6.3s5.1-2.8 5.2-3.1c0-.2-4.7-2-8.4 4.4" class="st0"/>
  <path d="M29.4 4.3c-.6.7-1.7.7-2.4.1-.6-.7-.7-1.7 0-2.4.6-.7 1.7-.7 2.4-.1.6.7.6 1.7 0 2.4" class="st0"/>
  <path d="M39.8 5.8c-.4.8-1.3 1.2-2.1.8-.8-.4-1.2-1.3-.8-2.1.4-.8 1.3-1.2 2.1-.8.8.3 1.2 1.2.8 2.1" class="st1"/>
  <path d="M36.6 9c-.5-7.4-5.6-7.7-5.7-7.5-.1.2 1.8.5 3.3 5 1.5 4.5-.2 6.8.4 7.1.6.2 1.2-2.7 5.4-4.6 4.3-2 5.8-.8 5.9-1 .2-.3-3.6-3.7-9.3 1" class="st1"/>
  <path d="M39.6 6.2c-.6.7-1.7.7-2.4.1s-.8-1.6-.1-2.3c.6-.7 1.7-.7 2.4-.1.6.6.7 1.6.1 2.3M16.7 5.8c.3.8 1.3 1.1 2.1.8.8-.4 1.2-1.3.8-2.1-.4-.8-1.3-1.2-2.1-.8s-1.2 1.2-.8 2.1" class="st1"/>
  <path d="M19.9 9c.5-7.4 5.6-7.7 5.7-7.5.1.2-1.8.5-3.3 5-1.5 4.5.2 6.8-.4 7.1-.6.2-1.2-2.7-5.4-4.6-4.3-2-5.8-.8-5.9-1-.2-.3 3.5-3.7 9.3 1" class="st1"/>
  <path d="M16.9 6.2c.6.7 1.7.7 2.4.1s.7-1.6.1-2.3-1.7-.8-2.4-.1-.7 1.6-.1 2.3" class="st1"/>
  <path d="M8.5 12.2c.6.7 1.7.7 2.4 0 .7-.6.7-1.7 0-2.4-.6-.7-1.7-.7-2.4 0-.6.7-.7 1.7 0 2.4" class="st0"/>
  <path d="M12.7 14.1c-2.1-7.1 2.5-9.2 2.7-9 .2.2-1.5 1.1-1.4 5.9.2 4.7 2.6 6.3 2.2 6.8-.5.4-2-2.1-6.7-2.4-4.7-.4-5.7 1.3-5.9 1.1-.2-.3 2.1-4.8 9.1-2.4M6.4 30.1c-6.6 3.3-5 8.1-4.7 8.1.3 0-.2-1.9 3.3-5s6.4-2.4 6.4-3.1c0-.7-2.9 0-6.4-3.2-3.5-3.2-3-5.1-3.2-5.1-.2.1-1.9 4.8 4.6 8.3" class="st0"/>
  <path d="M3.3 28.8c.7.6.7 1.7.1 2.4s-1.7.8-2.4.1c-.7-.6-.8-1.7-.1-2.4.6-.6 1.7-.7 2.4-.1" class="st0"/>
  <path d="M4.4 18.4c.8.3 1.2 1.3.9 2.1-.3.8-1.3 1.2-2.1.9-.8-.4-1.2-1.4-.9-2.2.4-.8 1.3-1.2 2.1-.8" class="st1"/>
  <path d="M7.8 21.5C.4 22.3.2 27.3.5 27.4c.2.1.4-1.8 4.9-3.5 4.4-1.6 6.8 0 7.1-.6.2-.6-2.7-1.1-4.8-5.3-2.1-4.2-1-5.8-1.2-5.9-.3-.1-3.6 3.8 1.3 9.4" class="st1"/>
  <path d="M4.9 18.6c.7.6.8 1.7.2 2.4s-1.7.8-2.4.2-.8-1.7-.2-2.4c.6-.7 1.7-.8 2.4-.2M5.1 41.5c.8-.4 1.1-1.4.7-2.1-.4-.8-1.4-1.1-2.1-.7-.8.3-1.1 1.3-.7 2.1.4.8 1.3 1.1 2.1.7" class="st1"/>
  <path d="M8.3 38.2C.9 37.9.4 32.9.6 32.8c.2-.1.6 1.8 5.1 3.2 4.5 1.4 6.8-.4 7.1.1.2.6-2.6 1.2-4.5 5.6-1.9 4.4-.6 5.8-.9 5.9-.1.1-3.6-3.5.9-9.4" class="st1"/>
  <path d="M5.6 41.2c.7-.6.7-1.7 0-2.4-.6-.7-1.7-.7-2.4 0-.7.6-.7 1.7 0 2.4s1.7.7 2.4 0" class="st1"/>
  <path d="M48.1 47.6c-.6-.7-1.7-.7-2.4 0-.7.6-.7 1.7 0 2.4.6.7 1.7.7 2.4 0 .6-.7.7-1.8 0-2.4" class="st0"/>
  <path d="M44 45.7c2.1 7.1-2.5 9.2-2.7 9-.2-.2 1.5-1.1 1.4-5.9-.2-4.7-2.6-6.3-2.2-6.8.5-.4 2 2.1 6.7 2.4 4.7.4 5.7-1.3 5.9-1.1.2.2-2.1 4.7-9.1 2.4M28 52.4c-3.1 6.7-8 5.2-8 5 0-.3 1.9.2 4.9-3.5 3-3.6 2.2-6.5 2.9-6.5.7 0 .1 2.9 3.4 6.3s5.1 2.8 5.2 3.1c0 .1-4.7 2-8.4-4.4" class="st0"/>
  <path d="M29.4 55.5c-.6-.7-1.7-.7-2.4-.1s-.7 1.7-.1 2.4 1.7.7 2.4.1c.7-.7.7-1.7.1-2.4" class="st0"/>
  <path d="M39.8 54c-.4-.8-1.3-1.2-2.1-.8-.8.4-1.2 1.3-.8 2.1.4.8 1.3 1.2 2.1.8.8-.3 1.2-1.3.8-2.1" class="st1"/>
  <path d="M36.6 50.8c-.5 7.4-5.6 7.7-5.7 7.5-.1-.2 1.8-.5 3.3-5 1.5-4.5-.2-6.8.4-7.1.6-.2 1.2 2.7 5.4 4.6 4.3 2 5.8.8 5.9 1 .2.3-3.6 3.7-9.3-1" class="st1"/>
  <path d="M39.6 53.6c-.6-.7-1.7-.7-2.4-.1s-.7 1.7-.1 2.4 1.7.7 2.4.1c.6-.7.7-1.8.1-2.4M16.7 54c.4-.8 1.3-1.2 2.1-.8s1.2 1.3.8 2.1c-.4.8-1.3 1.2-2.1.8s-1.2-1.3-.8-2.1" class="st1"/>
  <path d="M19.9 50.8c.5 7.4 5.6 7.7 5.7 7.5.1-.2-1.8-.5-3.3-5-1.5-4.5.2-6.8-.4-7.1-.6-.2-1.2 2.7-5.4 4.6-4.3 2-5.8.8-5.9 1-.2.3 3.5 3.7 9.3-1" class="st1"/>
  <path d="M16.9 53.6c.6-.7 1.7-.7 2.4-.1s.7 1.7.1 2.4-1.7.7-2.4.1c-.6-.7-.7-1.8-.1-2.4" class="st1"/>
  <path d="M8.5 47.6c.6-.7 1.7-.7 2.4 0 .7.6.7 1.7 0 2.4-.6.7-1.7.7-2.4 0s-.7-1.8 0-2.4" class="st0"/>
  <path d="M12.7 45.7c-2.1 7.1 2.5 9.2 2.7 9 .2-.2-1.5-1.1-1.4-5.9.2-4.7 2.6-6.3 2.2-6.8-.5-.4-2 2.1-6.7 2.4-4.7.4-5.7-1.3-5.9-1.1-.2.2 2.1 4.7 9.1 2.4" class="st0"/>
  <path d="M29.2 24c-1.3 0-2.3.5-3.1 1.6-.7 1.1-1.1 2.6-1.1 4.4 0 3.9 1.5 5.9 4.5 5.9.9 0 1.8-.1 2.6-.4.8-.3 1.7-.6 2.5-.9v4.6c-1.7.8-3.6 1.1-5.8 1.1-3.1 0-5.4-.9-7.1-2.7-1.6-1.8-2.5-4.4-2.5-7.7 0-2.1.4-4 1.2-5.6.8-1.6 1.9-2.8 3.4-3.7 1.5-.9 3.2-1.3 5.3-1.3 2.2 0 4.3.5 6.3 1.4L33.7 25c-.8-.4-1.5-.6-2.3-.9-.5 0-1.3-.1-2.2-.1M46.3 40.2V32c0-2-.6-3-1.8-3-.8 0-1.5.4-1.9 1.1-.4.7-.6 1.9-.6 3.6v6.6h-5.2V19.5H42v2.9c0 1.3-.1 2.8-.2 4.5h.2c.5-.8 1.1-1.3 1.8-1.6.7-.3 1.5-.5 2.4-.5 1.7 0 3 .5 3.9 1.5.9 1 1.4 2.3 1.4 4.1v9.8h-5.2zM59 40.2h-5.2v-15H59v15zm-5.3-18.8c0-.8.2-1.4.7-1.7.4-.4 1.1-.6 2.1-.6s1.7.2 2.1.6c.4.4.7 1 .7 1.7 0 1.5-.9 2.3-2.8 2.3s-2.8-.8-2.8-2.3M79.9 40.2V32c0-1-.1-1.8-.4-2.3-.3-.5-.7-.8-1.3-.8-.8 0-1.4.3-1.8 1-.4.7-.6 1.7-.6 3.2v7h-5.2V32c0-1-.1-1.8-.4-2.3-.3-.5-.7-.8-1.3-.8-.8 0-1.4.4-1.8 1.1-.4.7-.6 1.9-.6 3.6v6.6h-5.2v-15h3.9L66 27h.3c.4-.7 1-1.2 1.7-1.6.8-.4 1.6-.5 2.6-.5 2.2 0 3.7.7 4.6 2h.4c.4-.6 1-1.1 1.8-1.5.8-.3 1.6-.5 2.5-.5 1.8 0 3.1.5 3.9 1.4.8.9 1.3 2.3 1.3 4.2v9.8h-5.2zM94.2 28.4c-.6 0-1.1.2-1.5.6-.4.4-.7 1-.7 1.8h4.5c0-.7-.2-1.3-.6-1.7-.5-.5-1-.7-1.7-.7m.3 12c-2.5 0-4.4-.7-5.8-2-1.4-1.3-2.1-3.2-2.1-5.7s.6-4.5 1.9-5.8c1.3-1.4 3.1-2 5.5-2 2.3 0 4 .6 5.3 1.8 1.2 1.2 1.9 2.9 1.9 5.1V34h-9.3c0 .8.3 1.5.9 2 .6.5 1.4.7 2.4.7.9 0 1.7-.1 2.5-.3.8-.2 1.6-.5 2.5-.9v3.7c-.8.4-1.7.7-2.5.9-.9.2-2 .3-3.2.3M114.3 35.5c0 1.6-.5 2.8-1.6 3.7-1.1.8-2.7 1.2-4.7 1.2-1.1 0-2.1-.1-2.9-.2-.8-.1-1.7-.3-2.5-.7v-4.2c.8.4 1.7.6 2.6.9 1 .2 1.8.3 2.6.3 1.1 0 1.7-.3 1.7-.8 0-.3-.2-.5-.5-.7-.3-.2-1.2-.6-2.7-1.2-1.4-.6-2.3-1.2-2.9-1.9-.5-.7-.8-1.6-.8-2.7 0-1.4.5-2.5 1.6-3.3 1.1-.8 2.6-1.2 4.6-1.2 1 0 1.9.1 2.8.3.9.2 1.8.5 2.7.9l-1.4 3.3c-.7-.3-1.4-.6-2.2-.8-.8-.2-1.4-.3-1.9-.3-.8 0-1.3.2-1.3.6 0 .3.1.5.4.7.3.2 1.2.6 2.6 1.1 1.1.4 1.8.9 2.4 1.3.5.4.9.9 1.1 1.5.2.8.3 1.4.3 2.2" class="st2"/>
</svg>
