<?xml version="1.0" encoding="utf-8"?>
<!-- Generator: Adobe Illustrator 22.0.1, SVG Export Plug-In . SVG Version: 6.00 Build 0)  -->
<svg version="1.1" id="Layer_1" xmlns="http://www.w3.org/2000/svg" xmlns:xlink="http://www.w3.org/1999/xlink" x="0px" y="0px"
	 viewBox="0 0 115 60" style="enable-background:new 0 0 115 60;" xml:space="preserve">
<style type="text/css">
	.st0{fill:#F58220;}
	.st1{fill:#F99D27;}
	.st2{fill:#797D82;}
</style>
<path class="st0" d="M48.1,12.2c-0.6,0.7-1.7,0.7-2.4,0c-0.7-0.6-0.7-1.7,0-2.4c0.6-0.7,1.7-0.7,2.4,0
	C48.7,10.5,48.8,11.5,48.1,12.2"/>
<path class="st0" d="M44,14.1c2.1-7.1-2.5-9.2-2.7-9c-0.2,0.2,1.5,1.1,1.4,5.9c-0.2,4.7-2.6,6.3-2.2,6.8c0.5,0.4,2-2.1,6.7-2.4
	c4.7-0.4,5.7,1.3,5.9,1.1C53.3,16.2,51,11.7,44,14.1"/>
<path class="st0" d="M28,7.4c-3.1-6.7-8-5.2-8-5c0,0.3,1.9-0.2,4.9,3.5c3,3.6,2.2,6.5,2.9,6.5c0.7,0,0.1-2.9,3.4-6.3
	c3.3-3.4,5.1-2.8,5.2-3.1C36.4,2.8,31.7,1,28,7.4"/>
<path class="st0" d="M29.4,4.3C28.8,5,27.7,5,27,4.4C26.4,3.7,26.3,2.7,27,2c0.6-0.7,1.7-0.7,2.4-0.1C30,2.6,30,3.6,29.4,4.3"/>
<path class="st1" d="M39.8,5.8c-0.4,0.8-1.3,1.2-2.1,0.8c-0.8-0.4-1.2-1.3-0.8-2.1c0.4-0.8,1.3-1.2,2.1-0.8
	C39.8,4,40.2,4.9,39.8,5.8"/>
<path class="st1" d="M36.6,9c-0.5-7.4-5.6-7.7-5.7-7.5c-0.1,0.2,1.8,0.5,3.3,5c1.5,4.5-0.2,6.8,0.4,7.1c0.6,0.2,1.2-2.7,5.4-4.6
	c4.3-2,5.8-0.8,5.9-1C46.1,7.7,42.3,4.3,36.6,9"/>
<path class="st1" d="M39.6,6.2c-0.6,0.7-1.7,0.7-2.4,0.1S36.4,4.7,37.1,4c0.6-0.7,1.7-0.7,2.4-0.1C40.1,4.5,40.2,5.5,39.6,6.2"/>
<path class="st1" d="M16.7,5.8C17,6.6,18,6.9,18.8,6.6c0.8-0.4,1.2-1.3,0.8-2.1c-0.4-0.8-1.3-1.2-2.1-0.8S16.3,4.9,16.7,5.8"/>
<path class="st1" d="M19.9,9c0.5-7.4,5.6-7.7,5.7-7.5c0.1,0.2-1.8,0.5-3.3,5c-1.5,4.5,0.2,6.8-0.4,7.1c-0.6,0.2-1.2-2.7-5.4-4.6
	c-4.3-2-5.8-0.8-5.9-1C10.4,7.7,14.1,4.3,19.9,9"/>
<path class="st1" d="M16.9,6.2c0.6,0.7,1.7,0.7,2.4,0.1S20,4.7,19.4,4S17.7,3.2,17,3.9S16.3,5.5,16.9,6.2"/>
<path class="st0" d="M8.5,12.2c0.6,0.7,1.7,0.7,2.4,0c0.7-0.6,0.7-1.7,0-2.4c-0.6-0.7-1.7-0.7-2.4,0C7.9,10.5,7.8,11.5,8.5,12.2"/>
<path class="st0" d="M12.7,14.1c-2.1-7.1,2.5-9.2,2.7-9c0.2,0.2-1.5,1.1-1.4,5.9c0.2,4.7,2.6,6.3,2.2,6.8c-0.5,0.4-2-2.1-6.7-2.4
	c-4.7-0.4-5.7,1.3-5.9,1.1C3.4,16.2,5.7,11.7,12.7,14.1"/>
<path class="st0" d="M6.4,30.1c-6.6,3.3-5,8.1-4.7,8.1c0.3,0-0.2-1.9,3.3-5c3.5-3.1,6.4-2.4,6.4-3.1c0-0.7-2.9,0-6.4-3.2
	c-3.5-3.2-3-5.1-3.2-5.1C1.6,21.9-0.1,26.6,6.4,30.1"/>
<path class="st0" d="M3.3,28.8C4,29.4,4,30.5,3.4,31.2c-0.6,0.7-1.7,0.8-2.4,0.1c-0.7-0.6-0.8-1.7-0.1-2.4
	C1.5,28.3,2.6,28.2,3.3,28.8"/>
<path class="st1" d="M4.4,18.4c0.8,0.3,1.2,1.3,0.9,2.1c-0.3,0.8-1.3,1.2-2.1,0.9C2.4,21,2,20,2.3,19.2C2.7,18.4,3.6,18,4.4,18.4"/>
<path class="st1" d="M7.8,21.5c-7.4,0.8-7.6,5.8-7.3,5.9c0.2,0.1,0.4-1.8,4.9-3.5c4.4-1.6,6.8,0,7.1-0.6c0.2-0.6-2.7-1.1-4.8-5.3
	c-2.1-4.2-1-5.8-1.2-5.9C6.2,12,2.9,15.9,7.8,21.5"/>
<path class="st1" d="M4.9,18.6c0.7,0.6,0.8,1.7,0.2,2.4s-1.7,0.8-2.4,0.2s-0.8-1.7-0.2-2.4C3.1,18.1,4.2,18,4.9,18.6"/>
<path class="st1" d="M5.1,41.5c0.8-0.4,1.1-1.4,0.7-2.1c-0.4-0.8-1.4-1.1-2.1-0.7C2.9,39,2.6,40,3,40.8C3.4,41.6,4.3,41.9,5.1,41.5"
	/>
<path class="st1" d="M8.3,38.2c-7.4-0.3-7.9-5.3-7.7-5.4c0.2-0.1,0.6,1.8,5.1,3.2c4.5,1.4,6.8-0.4,7.1,0.1c0.2,0.6-2.6,1.2-4.5,5.6
	c-1.9,4.4-0.6,5.8-0.9,5.9C7.3,47.7,3.8,44.1,8.3,38.2"/>
<path class="st1" d="M5.6,41.2c0.7-0.6,0.7-1.7,0-2.4c-0.6-0.7-1.7-0.7-2.4,0c-0.7,0.6-0.7,1.7,0,2.4C3.9,41.9,4.9,41.9,5.6,41.2"/>
<path class="st0" d="M48.1,47.6c-0.6-0.7-1.7-0.7-2.4,0c-0.7,0.6-0.7,1.7,0,2.4c0.6,0.7,1.7,0.7,2.4,0
	C48.7,49.3,48.8,48.2,48.1,47.6"/>
<path class="st0" d="M44,45.7c2.1,7.1-2.5,9.2-2.7,9c-0.2-0.2,1.5-1.1,1.4-5.9c-0.2-4.7-2.6-6.3-2.2-6.8c0.5-0.4,2,2.1,6.7,2.4
	c4.7,0.4,5.7-1.3,5.9-1.1C53.3,43.5,51,48,44,45.7"/>
<path class="st0" d="M28,52.4c-3.1,6.7-8,5.2-8,5c0-0.3,1.9,0.2,4.9-3.5c3-3.6,2.2-6.5,2.9-6.5c0.7,0,0.1,2.9,3.4,6.3
	c3.3,3.4,5.1,2.8,5.2,3.1C36.4,56.9,31.7,58.8,28,52.4"/>
<path class="st0" d="M29.4,55.5c-0.6-0.7-1.7-0.7-2.4-0.1c-0.7,0.6-0.7,1.7-0.1,2.4c0.6,0.7,1.7,0.7,2.4,0.1
	C30,57.2,30,56.2,29.4,55.5"/>
<path class="st1" d="M39.8,54c-0.4-0.8-1.3-1.2-2.1-0.8c-0.8,0.4-1.2,1.3-0.8,2.1c0.4,0.8,1.3,1.2,2.1,0.8
	C39.8,55.8,40.2,54.8,39.8,54"/>
<path class="st1" d="M36.6,50.8c-0.5,7.4-5.6,7.7-5.7,7.5c-0.1-0.2,1.8-0.5,3.3-5c1.5-4.5-0.2-6.8,0.4-7.1c0.6-0.2,1.2,2.7,5.4,4.6
	c4.3,2,5.8,0.8,5.9,1C46.1,52.1,42.3,55.5,36.6,50.8"/>
<path class="st1" d="M39.6,53.6c-0.6-0.7-1.7-0.7-2.4-0.1c-0.7,0.6-0.7,1.7-0.1,2.4c0.6,0.7,1.7,0.7,2.4,0.1
	C40.1,55.3,40.2,54.2,39.6,53.6"/>
<path class="st1" d="M16.7,54c0.4-0.8,1.3-1.2,2.1-0.8s1.2,1.3,0.8,2.1c-0.4,0.8-1.3,1.2-2.1,0.8S16.3,54.8,16.7,54"/>
<path class="st1" d="M19.9,50.8c0.5,7.4,5.6,7.7,5.7,7.5c0.1-0.2-1.8-0.5-3.3-5c-1.5-4.5,0.2-6.8-0.4-7.1c-0.6-0.2-1.2,2.7-5.4,4.6
	c-4.3,2-5.8,0.8-5.9,1C10.4,52.1,14.1,55.5,19.9,50.8"/>
<path class="st1" d="M16.9,53.6c0.6-0.7,1.7-0.7,2.4-0.1c0.7,0.6,0.7,1.7,0.1,2.4s-1.7,0.7-2.4,0.1C16.4,55.3,16.3,54.2,16.9,53.6"
	/>
<path class="st0" d="M8.5,47.6c0.6-0.7,1.7-0.7,2.4,0c0.7,0.6,0.7,1.7,0,2.4c-0.6,0.7-1.7,0.7-2.4,0S7.8,48.2,8.5,47.6"/>
<path class="st0" d="M12.7,45.7c-2.1,7.1,2.5,9.2,2.7,9c0.2-0.2-1.5-1.1-1.4-5.9c0.2-4.7,2.6-6.3,2.2-6.8c-0.5-0.4-2,2.1-6.7,2.4
	c-4.7,0.4-5.7-1.3-5.9-1.1C3.4,43.5,5.7,48,12.7,45.7"/>
<path class="st2" d="M29.2,24c-1.3,0-2.3,0.5-3.1,1.6c-0.7,1.1-1.1,2.6-1.1,4.4c0,3.9,1.5,5.9,4.5,5.9c0.9,0,1.8-0.1,2.6-0.4
	c0.8-0.3,1.7-0.6,2.5-0.9v4.6c-1.7,0.8-3.6,1.1-5.8,1.1c-3.1,0-5.4-0.9-7.1-2.7c-1.6-1.8-2.5-4.4-2.5-7.7c0-2.1,0.4-4,1.2-5.6
	c0.8-1.6,1.9-2.8,3.4-3.7c1.5-0.9,3.2-1.3,5.3-1.3c2.2,0,4.3,0.5,6.3,1.4l-1.7,4.3c-0.8-0.4-1.5-0.6-2.3-0.9
	C30.9,24.1,30.1,24,29.2,24"/>
<path class="st2" d="M46.3,40.2V32c0-2-0.6-3-1.8-3c-0.8,0-1.5,0.4-1.9,1.1c-0.4,0.7-0.6,1.9-0.6,3.6v6.6h-5.2V19.5H42v2.9
	c0,1.3-0.1,2.8-0.2,4.5h0.2c0.5-0.8,1.1-1.3,1.8-1.6c0.7-0.3,1.5-0.5,2.4-0.5c1.7,0,3,0.5,3.9,1.5c0.9,1,1.4,2.3,1.4,4.1v9.8H46.3z"
	/>
<path class="st2" d="M59,40.2h-5.2v-15H59V40.2z M53.7,21.4c0-0.8,0.2-1.4,0.7-1.7c0.4-0.4,1.1-0.6,2.1-0.6c1,0,1.7,0.2,2.1,0.6
	c0.4,0.4,0.7,1,0.7,1.7c0,1.5-0.9,2.3-2.8,2.3C54.6,23.7,53.7,22.9,53.7,21.4"/>
<path class="st2" d="M79.9,40.2V32c0-1-0.1-1.8-0.4-2.3c-0.3-0.5-0.7-0.8-1.3-0.8c-0.8,0-1.4,0.3-1.8,1c-0.4,0.7-0.6,1.7-0.6,3.2v7
	h-5.2V32c0-1-0.1-1.8-0.4-2.3c-0.3-0.5-0.7-0.8-1.3-0.8c-0.8,0-1.4,0.4-1.8,1.1c-0.4,0.7-0.6,1.9-0.6,3.6v6.6h-5.2v-15h3.9L66,27
	h0.3c0.4-0.7,1-1.2,1.7-1.6c0.8-0.4,1.6-0.5,2.6-0.5c2.2,0,3.7,0.7,4.6,2h0.4c0.4-0.6,1-1.1,1.8-1.5c0.8-0.3,1.6-0.5,2.5-0.5
	c1.8,0,3.1,0.5,3.9,1.4c0.8,0.9,1.3,2.3,1.3,4.2v9.8H79.9z"/>
<path class="st2" d="M94.2,28.4c-0.6,0-1.1,0.2-1.5,0.6c-0.4,0.4-0.7,1-0.7,1.8h4.5c0-0.7-0.2-1.3-0.6-1.7
	C95.4,28.6,94.9,28.4,94.2,28.4 M94.5,40.4c-2.5,0-4.4-0.7-5.8-2c-1.4-1.3-2.1-3.2-2.1-5.7c0-2.5,0.6-4.5,1.9-5.8
	c1.3-1.4,3.1-2,5.5-2c2.3,0,4,0.6,5.3,1.8c1.2,1.2,1.9,2.9,1.9,5.1V34h-9.3c0,0.8,0.3,1.5,0.9,2c0.6,0.5,1.4,0.7,2.4,0.7
	c0.9,0,1.7-0.1,2.5-0.3c0.8-0.2,1.6-0.5,2.5-0.9v3.7c-0.8,0.4-1.7,0.7-2.5,0.9C96.8,40.3,95.7,40.4,94.5,40.4"/>
<path class="st2" d="M114.3,35.5c0,1.6-0.5,2.8-1.6,3.7c-1.1,0.8-2.7,1.2-4.7,1.2c-1.1,0-2.1-0.1-2.9-0.2c-0.8-0.1-1.7-0.3-2.5-0.7
	v-4.2c0.8,0.4,1.7,0.6,2.6,0.9c1,0.2,1.8,0.3,2.6,0.3c1.1,0,1.7-0.3,1.7-0.8c0-0.3-0.2-0.5-0.5-0.7c-0.3-0.2-1.2-0.6-2.7-1.2
	c-1.4-0.6-2.3-1.2-2.9-1.9c-0.5-0.7-0.8-1.6-0.8-2.7c0-1.4,0.5-2.5,1.6-3.3c1.1-0.8,2.6-1.2,4.6-1.2c1,0,1.9,0.1,2.8,0.3
	c0.9,0.2,1.8,0.5,2.7,0.9l-1.4,3.3c-0.7-0.3-1.4-0.6-2.2-0.8c-0.8-0.2-1.4-0.3-1.9-0.3c-0.8,0-1.3,0.2-1.3,0.6
	c0,0.3,0.1,0.5,0.4,0.7c0.3,0.2,1.2,0.6,2.6,1.1c1.1,0.4,1.8,0.9,2.4,1.3c0.5,0.4,0.9,0.9,1.1,1.5C114.2,34.1,114.3,34.7,114.3,35.5
	"/>
<g>
</g>
<g>
</g>
<g>
</g>
<g>
</g>
<g>
</g>
<g>
</g>
</svg>
