<svg xmlns="http://www.w3.org/2000/svg" xmlns:xlink="http://www.w3.org/1999/xlink" xml:space="preserve" viewBox="0 0 132.292 52.917">
  <defs>
    <linearGradient xlink:href="#a" id="b" x1="102.097" x2="72.497" y1="242.165" y2="345.396" gradientTransform="translate(-31.442 -273.167)" gradientUnits="userSpaceOnUse"/>
    <linearGradient id="a">
      <stop offset="0" style="stop-color:#75b843;stop-opacity:1"/>
      <stop offset=".277" style="stop-color:#afe282;stop-opacity:1"/>
      <stop offset=".725" style="stop-color:#4e782f;stop-opacity:1"/>
      <stop offset="1" style="stop-color:#4a742c;stop-opacity:1"/>
    </linearGradient>
  </defs>
  <path d="M91.013 19.637c-.311 0-.569.008-.604.026-.066.036-.087 9.006-.021 9.072.064.064 1.733.044 1.8-.021.059-.06.086-8.929.027-9.023-.02-.032-.685-.054-1.202-.054zm-2.769.348c-.26.011-.62.136-.792.307-.122.122-.22.25-.22.286a.3.3 0 0 1-.057.107c-.21.284.107 1.295.406 1.295.026 0 .062.017.078.037.03.036.305.137.434.16a.434.434 0 0 0 .283-.025c.06-.022.156-.053.216-.068.059-.014.117-.044.129-.065.012-.021.036-.039.055-.039.054 0 .306-.273.38-.411.122-.231.119-.787-.006-.986-.146-.233-.434-.489-.552-.489-.024 0-.064-.02-.09-.047-.048-.048-.145-.066-.263-.062zM57.36 20c-.324 0-.646.01-.673.032-.037.03-.116.046-.388.08a.782.782 0 0 0-.202.05.813.813 0 0 1-.188.055.6.6 0 0 0-.175.054.546.546 0 0 1-.149.054.778.778 0 0 0-.162.054 3.44 3.44 0 0 1-.134.064.875.875 0 0 0-.108.057.73.73 0 0 1-.107.054 1.44 1.44 0 0 0-.176.094c-.059.038-.126.076-.148.086-.251.11-1.159 1.028-1.223 1.236a.286.286 0 0 1-.07.106c-.03.026-.054.067-.054.09a.25.25 0 0 1-.053.111.25.25 0 0 0-.054.104c0 .02-.025.066-.054.104a.258.258 0 0 0-.054.13.16.16 0 0 1-.037.1.508.508 0 0 0-.068.182c-.018.08-.044.153-.06.163-.016.01-.037.09-.048.176a.83.83 0 0 1-.051.218c-.092.167-.102 1.68-.014 1.986.021.075.05.207.064.293a.684.684 0 0 0 .066.215.26.26 0 0 1 .04.126c0 .037.025.104.054.149.03.044.054.1.054.123 0 .051.155.368.19.39.014.008.025.037.025.063 0 .027.024.07.054.097.029.026.06.072.07.102.01.03.028.069.041.085l.205.255c.275.342.637.676.91.837a.96.96 0 0 1 .155.113c.027.027.07.049.096.049.025 0 .067.024.093.054.025.03.07.054.1.054.031 0 .063.018.071.04.009.021.06.047.113.057.054.01.134.04.18.068a.34.34 0 0 0 .135.05c.03 0 .082.019.114.042a.43.43 0 0 0 .161.054c.056.008.166.037.244.067.078.029.2.053.27.053.069 0 .174.014.234.03.059.016.16.033.223.037a.366.366 0 0 1 .135.026c.039.039.97-.01 1.083-.057.037-.016.15-.037.253-.047a.72.72 0 0 0 .242-.057.282.282 0 0 1 .137-.04.353.353 0 0 0 .162-.054.324.324 0 0 1 .138-.054.254.254 0 0 0 .126-.053.245.245 0 0 1 .107-.054.25.25 0 0 0 .108-.054.249.249 0 0 1 .103-.054c.018 0 .053-.019.076-.042.024-.022.103-.08.177-.126.074-.047.277-.228.451-.402.424-.423.425-.395-.02-.73l-.177-.135a58.353 58.353 0 0 1-.63-.467 17.37 17.37 0 0 0-.362-.264c-.02-.013-.11.065-.239.202-.221.236-.575.489-.734.523-.051.011-.1.032-.11.047-.06.094-1.334.093-1.394 0-.01-.015-.06-.036-.111-.047a.38.38 0 0 1-.134-.054.366.366 0 0 0-.108-.054c-.208-.064-.89-.724-.89-.862 0-.018-.016-.048-.037-.065a.23.23 0 0 1-.056-.104.338.338 0 0 0-.052-.114c-.046-.054-.123-.28-.15-.444a4.317 4.317 0 0 0-.069-.31c-.055-.21-.047-1.042.01-1.112a.496.496 0 0 0 .05-.184.631.631 0 0 1 .052-.199.534.534 0 0 0 .052-.154c.01-.055.034-.113.054-.13a.23.23 0 0 0 .053-.107c.01-.043.029-.086.043-.095a.313.313 0 0 0 .063-.101c.038-.086.144-.211.392-.463.209-.21.3-.28.502-.373a.316.316 0 0 0 .102-.068c.01-.017.049-.03.086-.03.037 0 .105-.02.153-.046.158-.084.709-.15.951-.114.416.061.485.075.562.116a.368.368 0 0 0 .127.044c.026 0 .092.03.148.068l.153.1c.114.076.25.19.314.265.095.11.055.134.842-.52.156-.13.294-.237.306-.237.03 0 .414-.37.414-.398 0-.04-.467-.487-.604-.578-.297-.197-.593-.353-.727-.382a.28.28 0 0 1-.116-.057c-.021-.021-.077-.039-.124-.04a.426.426 0 0 1-.165-.04 1.18 1.18 0 0 0-.282-.07 1.105 1.105 0 0 1-.258-.06c-.037-.021-.365-.032-.69-.032zm7.2 2.728a6.07 6.07 0 0 0-.879.046c-.131.023-.27.042-.31.043a.242.242 0 0 0-.122.04.21.21 0 0 1-.105.04c-.358 0-1.482.835-1.649 1.227a.376.376 0 0 1-.078.118c-.023.02-.041.053-.041.074 0 .022-.025.07-.054.108a.247.247 0 0 0-.054.115c0 .025-.024.074-.054.108a.26.26 0 0 0-.054.16c0 .054-.02.127-.045.162-.11.158-.11 1.48.001 1.685a.364.364 0 0 1 .044.13c0 .045.056.177.2.476.05.104.21.363.298.481.086.116.351.38.38.38.02 0 .045.016.057.035.031.05.374.27.552.355.085.04.168.09.185.112.018.02.064.037.103.037.04 0 .098.019.13.041a.523.523 0 0 0 .187.057.74.74 0 0 1 .184.045c.03.016.09.037.135.048.2.048 1.368.026 1.48-.029a.559.559 0 0 1 .19-.053c.044 0 .117-.02.16-.043a1 1 0 0 1 .207-.07.375.375 0 0 0 .16-.065.116.116 0 0 1 .078-.038.24.24 0 0 0 .111-.049c.036-.026.095-.063.132-.081.096-.048.17-.093.228-.14.12-.094.692-.664.717-.714.015-.03.057-.102.093-.16.036-.06.078-.139.095-.176.016-.037.053-.112.081-.167a.457.457 0 0 0 .052-.149c0-.027.018-.075.04-.106a.5.5 0 0 0 .056-.174c.009-.065.041-.25.071-.413.041-.224.05-.35.037-.525-.022-.297-.025-.32-.062-.432a1.3 1.3 0 0 1-.044-.237.568.568 0 0 0-.056-.208.31.31 0 0 1-.042-.143c0-.044-.018-.093-.039-.111a.974.974 0 0 1-.122-.205c-.203-.421-.759-1.015-1.078-1.151a1.682 1.682 0 0 1-.148-.086c-.126-.078-.22-.121-.265-.122a.336.336 0 0 1-.112-.053.337.337 0 0 0-.151-.054.423.423 0 0 1-.154-.042 1.267 1.267 0 0 0-.314-.066 1.309 1.309 0 0 1-.263-.045.496.496 0 0 0-.15-.016zm42.9 0a2.45 2.45 0 0 0-.413.03 1.633 1.633 0 0 1-.209.043.864.864 0 0 0-.202.053l-.147.068c-.18.082-.336.197-.56.416l-.195.19v-.287c0-.224-.009-.295-.042-.329-.052-.051-1.617-.064-1.71-.014-.065.034-.084 5.774-.02 5.838.064.064 1.733.044 1.799-.022.053-.053.054-.09.054-1.758 0-1.455.006-1.712.04-1.76a.516.516 0 0 0 .058-.175.478.478 0 0 1 .068-.182.236.236 0 0 0 .05-.096c0-.08.284-.278.45-.313.438-.095.745-.036.956.183.084.087.155.199.155.243 0 .029.025.123.055.209.052.15.054.227.054 1.876 0 1.684 0 1.72.053 1.773.07.07 1.745.086 1.803.017.045-.055.029-4.194-.017-4.25a.832.832 0 0 1-.065-.239.947.947 0 0 0-.069-.254.214.214 0 0 1-.036-.097c0-.05-.116-.284-.22-.442a1.34 1.34 0 0 0-.426-.397 3.452 3.452 0 0 1-.162-.089 1.601 1.601 0 0 0-.516-.172.983.983 0 0 1-.215-.045c-.024-.015-.194-.02-.37-.018zm-22.902.002a3.177 3.177 0 0 0-.424.014 2.331 2.331 0 0 1-.288.042 1.11 1.11 0 0 0-.31.067.57.57 0 0 1-.169.06.664.664 0 0 0-.189.069.336.336 0 0 1-.125.05.114.114 0 0 0-.075.037.216.216 0 0 1-.1.055.302.302 0 0 0-.1.044 2.63 2.63 0 0 1-.16.11c-.217.14-.773.665-.773.73a.784.784 0 0 1-.091.15.986.986 0 0 0-.11.195.349.349 0 0 1-.056.106.342.342 0 0 0-.054.121.356.356 0 0 1-.057.124.554.554 0 0 0-.063.198.588.588 0 0 1-.06.196c-.066.08-.065 1.152.001 1.373.03.1.062.23.071.29a.356.356 0 0 0 .056.15c.022.024.04.068.04.098s.024.086.054.124c.03.037.053.086.053.107 0 .022.024.07.054.108.03.038.055.079.055.091.001.022.082.127.334.433.14.17.517.465.756.592.177.094.412.196.45.196.02 0 .063.02.096.043a.6.6 0 0 0 .188.065c.07.013.188.043.263.065.207.063 1.4.049 1.501-.018a.35.35 0 0 1 .16-.048c.05 0 .15-.03.224-.067a.684.684 0 0 1 .182-.067c.025 0 .047-.01.047-.024s.034-.037.077-.052a1.18 1.18 0 0 0 .209-.117c.072-.05.164-.105.205-.123.04-.018.074-.051.074-.074 0-.022.023-.04.051-.04.105 0 .119-.205.017-.243-.037-.015-.068-.037-.068-.05a.607.607 0 0 0-.114-.142 58.944 58.944 0 0 1-.78-.842c-.141-.156-.172-.153-.361.025-.349.33-.965.362-1.462.078-.173-.1-.488-.468-.488-.572a.351.351 0 0 0-.046-.127c-.257-.458.161-1.764.565-1.764a.235.235 0 0 0 .104-.049c.084-.063.523-.149.673-.131.163.019.433.091.453.121a.16.16 0 0 0 .07.042c.029.01.107.066.172.125.156.14.188.137.358-.046.407-.44.79-.83.821-.838.02-.005.035-.032.035-.06 0-.034.019-.053.051-.053.094 0 .119-.194.031-.241a1.102 1.102 0 0 1-.155-.123.628.628 0 0 0-.149-.109c-.026-.008-.047-.025-.047-.038 0-.013-.035-.03-.079-.04a.235.235 0 0 1-.111-.057c-.018-.02-.046-.038-.062-.038a.796.796 0 0 1-.165-.066.749.749 0 0 0-.175-.068.39.39 0 0 1-.122-.044 1.165 1.165 0 0 0-.303-.065 1.414 1.414 0 0 1-.248-.04 2.94 2.94 0 0 0-.412-.018zm-5.957.003c-.343-.008-.821.043-.974.12-.043.022-.109.052-.146.068-.168.073-.53.366-.631.512-.115.165-.134.134-.126-.206.006-.276.003-.301-.047-.328-.106-.057-1.657-.038-1.71.02-.065.073-.056 5.782.01 5.823.093.057 1.744.032 1.804-.027.053-.053.054-.09.054-1.77 0-1.693.001-1.717.06-1.892.076-.229.252-.486.332-.486.017 0 .052-.023.077-.052a.316.316 0 0 1 .146-.07l.14-.032c.35-.096.942.113.942.331 0 .018.016.046.037.062.02.017.044.087.053.155.01.07.033.143.052.166.025.031.035.444.041 1.806.01 2.113-.133 1.835.948 1.835 1.09 0 .946.317.936-2.064-.008-1.812-.015-2.063-.058-2.133a1.32 1.32 0 0 1-.043-.209 2.455 2.455 0 0 0-.247-.738c-.11-.19-.183-.292-.251-.358-.13-.124-.165-.154-.184-.154a.91.91 0 0 1-.153-.094.614.614 0 0 0-.169-.094.52.52 0 0 1-.141-.055.822.822 0 0 0-.242-.07 1.991 1.991 0 0 1-.229-.038 1.382 1.382 0 0 0-.28-.028zm21.347.005c-.413.004-.838.048-.973.118a.372.372 0 0 1-.136.04c-.052 0-.305.103-.404.164a2.323 2.323 0 0 1-.12.066c-.494.254-1.28 1.072-1.28 1.333a.113.113 0 0 1-.027.07c-.041.041-.187.472-.188.554a.51.51 0 0 1-.03.149c-.08.208-.09.97-.014 1.149a.668.668 0 0 1 .043.215c0 .064.023.15.054.2a.37.37 0 0 1 .054.135c0 .025.025.083.054.127.03.044.054.106.054.137 0 .031.024.078.054.105.03.027.054.065.054.086 0 .02.024.057.054.082.03.026.053.061.053.08 0 .116.71.768.963.884.048.023.088.052.088.065 0 .013.04.033.087.043.048.01.106.035.128.055.023.02.101.049.175.065a.6.6 0 0 1 .163.056.51.51 0 0 0 .15.05c.065.015.179.045.253.068.206.062 1.445.048 1.567-.02a.44.44 0 0 1 .175-.046.408.408 0 0 0 .178-.054.368.368 0 0 1 .15-.054.23.23 0 0 0 .125-.053.218.218 0 0 1 .113-.055.29.29 0 0 0 .124-.048c.04-.026.092-.06.117-.074.395-.232.721-.534.931-.86.048-.075.098-.148.111-.164a.335.335 0 0 0 .045-.094.355.355 0 0 1 .054-.106c.019-.023.073-.156.121-.296.048-.141.098-.27.112-.287.096-.12.085-1.455-.014-1.639a.417.417 0 0 1-.044-.164.26.26 0 0 0-.054-.146.226.226 0 0 1-.054-.121.256.256 0 0 0-.054-.129.246.246 0 0 1-.054-.11c0-.022-.012-.048-.027-.057a1.496 1.496 0 0 1-.15-.207c-.242-.37-.727-.78-1.156-.978-.293-.135-.322-.146-.451-.178-.07-.017-.128-.041-.128-.054 0-.013-.035-.024-.077-.024-.043 0-.18-.017-.304-.038a4.037 4.037 0 0 0-.665-.04zm-11.778.129c-.422.003-.842.02-.879.045l-.06.042v2.853c0 2.818 0 2.854.054 2.907.066.066 1.735.086 1.8.022.064-.064.044-5.804-.02-5.838-.047-.025-.472-.034-.895-.031zm-19.038.004c-.43.001-.86.018-.898.05-.052.043-.07 3.685-.018 3.806.014.034.038.19.052.347.014.162.043.322.067.37a.424.424 0 0 1 .043.161c0 .043.024.11.054.147.03.038.054.086.054.108 0 .021.022.068.048.103a.808.808 0 0 1 .08.136c.044.105.382.454.438.454.026 0 .054.015.06.034.017.043.332.169.653.262.154.045 1.15.02 1.226-.031a.501.501 0 0 1 .15-.062 1.59 1.59 0 0 0 .402-.19c.044-.028.17-.14.278-.248.25-.247.245-.248.227.07-.022.406-.083.38.906.38.726 0 .81-.005.863-.047l.058-.047.011-2.86c.009-2.592.006-2.863-.033-2.895-.064-.054-1.784-.052-1.85.002-.04.034-.044.17-.043 1.67 0 1.639-.011 1.913-.09 2.063a.385.385 0 0 0-.044.109c0 .08-.248.326-.352.35a.227.227 0 0 0-.108.054c-.063.077-.638.054-.809-.032-.444-.223-.482-.428-.482-2.603 0-1.504-.002-1.575-.05-1.619-.034-.03-.463-.044-.893-.042zm30.81 1.514a.788.788 0 0 1 .11.002c.245.024.537.09.586.134a.244.244 0 0 0 .092.05c.14.029.484.4.52.562.01.051.04.122.063.159.066.1.062.933-.004 1.034a.281.281 0 0 0-.046.121c0 .028-.03.096-.067.15a.523.523 0 0 0-.067.12c0 .026-.252.274-.278.274a.318.318 0 0 0-.09.046 1.69 1.69 0 0 1-.222.107c-.195.08-1.053.087-1.053.01 0-.012-.035-.029-.078-.038-.164-.032-.596-.414-.596-.526 0-.022-.022-.065-.049-.096-.161-.184-.172-1.242-.013-1.359a.5.5 0 0 0 .07-.11c.113-.22.215-.35.277-.35.017 0 .047-.019.066-.041.094-.114.5-.237.778-.25zm-35.567.013c.303.006.583.056.583.145 0 .013.022.024.05.024.027 0 .071.024.098.053.027.03.06.055.073.055.033 0 .183.15.183.183 0 .014.018.04.04.059.245.202.34 1.21.145 1.535a1.874 1.874 0 0 0-.057.108c-.12.246-.447.538-.602.539a.32.32 0 0 0-.132.053c-.108.07-.828.078-.983.009-.43-.191-.563-.31-.733-.654l-.114-.23v-.474c0-.384.008-.487.042-.539.023-.035.05-.1.061-.142.039-.157.405-.554.513-.555a.202.202 0 0 0 .108-.051c.096-.087.422-.124.725-.118zm-17.258 5.725c-.53-.002-1.216.054-1.239.137-.023.085-.018 8.886.005 8.92.01.017.038.038.06.046.086.032 1.739.02 1.772-.014.025-.024.033-.415.035-1.582.001-.853.013-1.617.025-1.698.047-.3.088-.472.12-.512a.333.333 0 0 0 .053-.099c.16-.527 1.577-.538 1.577-.012 0 .017.026.101.058.186.055.15.057.206.073 1.917l.017 1.764.068.034c.11.056 1.705.05 1.762-.007.092-.092.048-4.126-.047-4.348a1.13 1.13 0 0 1-.06-.228.407.407 0 0 0-.057-.17.158.158 0 0 1-.036-.098.26.26 0 0 0-.054-.131.257.257 0 0 1-.054-.099c0-.193-.628-.686-.996-.783a.57.57 0 0 1-.16-.063c-.05-.041-1.008-.06-1.134-.021-.52.156-.935.428-1.096.717-.06.107-.064-.006-.062-1.855.001-1.267-.008-1.894-.027-1.93-.026-.048-.286-.07-.603-.07zm38.436.014c-.412-.001-.828.013-.868.043-.077.056-.097 8.923-.02 9.016.04.046 1.562.062 1.792.02.045-.01.047-.246.047-4.515 0-3.753-.006-4.502-.036-4.49-.02.007-.052-.005-.07-.028-.025-.03-.433-.045-.845-.046zm14.667.005-.07.071-.071.071v4.429c0 4.108.003 4.432.045 4.474.055.055 1.552.085 1.65.032.05-.027.055-.056.055-.338 0-.17.004-.31.009-.31.005 0 .102.092.215.202.114.11.236.216.27.236l.182.1c.164.092.397.187.509.207.052.01.125.033.163.053.039.02.109.033.156.032.047-.001.093.005.103.015.027.027.298.022.41-.007.094-.024.421-.08.577-.1a.35.35 0 0 0 .134-.05.264.264 0 0 1 .129-.04c.039 0 .102-.025.14-.054a.245.245 0 0 1 .107-.054c.022 0 .07-.024.108-.054a.315.315 0 0 1 .085-.054c.132 0 .905-.769.905-.9a.08.08 0 0 1 .034-.061c.043-.027.181-.295.181-.351 0-.023.023-.08.051-.126a.632.632 0 0 0 .067-.202.423.423 0 0 1 .043-.15c.094-.113.093-1.41 0-1.67a1.76 1.76 0 0 1-.066-.242.486.486 0 0 0-.057-.16.21.21 0 0 1-.038-.093.584.584 0 0 0-.051-.15l-.082-.177a1.898 1.898 0 0 0-.177-.294 3.089 3.089 0 0 1-.117-.184c-.043-.078-.421-.462-.512-.52a3.426 3.426 0 0 1-.146-.1.326.326 0 0 0-.12-.06c-.02 0-.043-.018-.05-.04-.008-.02-.054-.046-.1-.057a1.254 1.254 0 0 1-.193-.066c-.388-.171-1.377-.232-1.622-.1a.416.416 0 0 1-.162.047.645.645 0 0 0-.21.067.79.79 0 0 1-.168.067c-.019 0-.034.012-.034.026 0 .014-.025.033-.056.043-.032.01-.135.084-.23.165-.232.197-.216.333-.206-1.67l.01-1.79-.08-.057c-.076-.054-.11-.056-.899-.056zm-58.216.386c-.44.001-.876.029-.976.082a.515.515 0 0 1-.203.044.538.538 0 0 0-.222.054.466.466 0 0 1-.161.055.668.668 0 0 0-.195.067.827.827 0 0 1-.163.066c-.136.001-.887.473-1.193.75-.22.199-.678.726-.678.782 0 .015-.015.037-.033.05-.052.032-.2.313-.33.627-.04.096-.096.224-.124.285a.57.57 0 0 0-.051.189.406.406 0 0 1-.041.155 1.45 1.45 0 0 0-.07.337c-.017.142-.044.276-.06.297-.044.053-.042 1.18 0 1.256.018.03.045.174.061.32.016.145.048.29.07.32.022.032.04.099.04.15 0 .05.022.129.05.175a.65.65 0 0 1 .069.185c.01.056.028.101.041.101.013 0 .038.046.056.101.018.056.048.12.066.142a.546.546 0 0 1 .066.141c.018.056.044.101.058.101.013 0 .025.016.025.036 0 .02.024.059.053.086.03.026.054.06.054.076 0 .1.526.676.86.943.332.264 1.172.715 1.338.718.028.001.1.025.16.054.058.028.146.052.195.052.049 0 .133.02.189.044.055.024.22.053.369.064.625.046 1.612.017 1.695-.051a.679.679 0 0 1 .207-.059.536.536 0 0 0 .185-.05c.008-.013.05-.032.095-.043a2.456 2.456 0 0 0 .525-.233c.037-.018.124-.073.195-.121a.64.64 0 0 1 .156-.089c.056 0 .78-.74.78-.797 0-.049-.312-.334-.366-.334-.027 0-.334-.253-.334-.276 0-.01-.032-.02-.07-.02-.047 0-.075-.018-.084-.054-.008-.03-.026-.054-.041-.054a.354.354 0 0 1-.114-.074 1.888 1.888 0 0 0-.149-.115 5.136 5.136 0 0 1-.21-.154c-.188-.144-.383-.098-.383.09 0 .02-.015.038-.033.039-.043 0-.317.255-.317.293 0 .016-.035.03-.078.03-.044 0-.084.016-.093.04-.009.022-.031.04-.05.04a.79.79 0 0 0-.17.068.725.725 0 0 1-.174.067.708.708 0 0 0-.149.04c-.129.046-.85.056-.93.013a.999.999 0 0 0-.205-.057 1.049 1.049 0 0 1-.249-.08.456.456 0 0 0-.13-.051c-.02 0-.043-.018-.052-.04-.008-.023-.045-.04-.082-.04-.044 0-.072-.02-.08-.054a.11.11 0 0 0-.065-.07c-.067-.02-.455-.394-.455-.437 0-.018-.01-.033-.022-.033-.03 0-.194-.235-.194-.279 0-.02-.022-.056-.05-.081a.297.297 0 0 1-.068-.149c-.009-.056-.033-.117-.053-.133-.02-.017-.045-.087-.054-.156a.442.442 0 0 0-.049-.163c-.107-.129-.093-1.455.017-1.667a.374.374 0 0 0 .041-.139c0-.033.025-.106.055-.161a.453.453 0 0 0 .053-.145c0-.024.018-.059.04-.077a.219.219 0 0 0 .056-.087c.025-.076.134-.233.243-.349a.441.441 0 0 0 .092-.123c0-.014.045-.06.098-.103.054-.044.118-.098.142-.12a2.021 2.021 0 0 1 .393-.262c.422-.233 1.086-.318 1.528-.196.107.03.22.054.253.054.124 0 .554.247.678.39.032.037.071.068.086.068s.027.019.027.04c0 .145.159.049.79-.478a3.31 3.31 0 0 1 .301-.235c.01 0 .104-.079.21-.175.105-.096.202-.175.213-.175.07 0 .01-.16-.107-.285-.132-.142-.416-.388-.447-.388a.916.916 0 0 1-.15-.094.853.853 0 0 0-.201-.11.22.22 0 0 1-.1-.055c-.016-.02-.044-.038-.06-.038a.808.808 0 0 1-.166-.067.669.669 0 0 0-.194-.067c-.032 0-.069-.016-.08-.034-.012-.019-.046-.037-.076-.04a1.138 1.138 0 0 1-.337-.082c-.118-.053-.563-.078-1.003-.078zm28.675.001c-.208-.002-.447.035-.579.109-.854.479-.679 1.85.256 2.006.27.045.627.013.704-.063.023-.023.055-.042.07-.042.025 0 .065-.028.228-.162.284-.231.417-.858.254-1.196-.06-.123-.238-.372-.278-.389a.724.724 0 0 1-.099-.074c-.042-.035-.092-.064-.111-.064-.019 0-.056-.02-.081-.043-.059-.053-.202-.08-.364-.082zm23.579.219-.053.067a.408.408 0 0 0-.067.135.917.917 0 0 1-.051.148c-.115.255-.146.33-.164.39a.348.348 0 0 1-.053.108.345.345 0 0 0-.052.108c-.01.037-.044.121-.075.188l-.09.202c-.019.045-.065.15-.104.234-.038.085-.07.164-.07.176a.775.775 0 0 1-.058.143 5.063 5.063 0 0 0-.093.202c-.064.152-.139.323-.21.476-.038.084-.07.165-.07.18a.37.37 0 0 1-.039.102 3.04 3.04 0 0 0-.176.408c0 .014-.017.04-.039.057a.25.25 0 0 0-.057.118.724.724 0 0 1-.053.153c-.057.11-.14.305-.161.377a.347.347 0 0 1-.053.108.345.345 0 0 0-.053.108c-.01.037-.044.122-.074.189a2.47 2.47 0 0 0-.144.35.342.342 0 0 1-.053.107.344.344 0 0 0-.053.108c-.022.078-.073.197-.268.625-.038.084-.069.162-.069.174a.805.805 0 0 1-.058.143 6.256 6.256 0 0 0-.092.203 11.84 11.84 0 0 1-.101.23 1.802 1.802 0 0 0-.087.222c-.01.04-.032.073-.049.073s-.034.038-.037.084a.25.25 0 0 1-.047.13c-.022.026-.04.062-.04.082 0 .02-.027.092-.058.16a39.326 39.326 0 0 0-.329.729 1.05 1.05 0 0 0-.06.167.221.221 0 0 1-.054.104.248.248 0 0 0-.054.121.246.246 0 0 1-.055.122.105.105 0 0 0-.005.154h.001c.045.045 1.955.046 2.053.001.038-.017.075-.056.083-.087.016-.06.1-.269.163-.407.02-.044.054-.13.075-.188l.072-.203c.019-.051.057-.138.084-.192a.462.462 0 0 0 .05-.165c0-.037.018-.082.04-.1.023-.019.05-.082.058-.141a.403.403 0 0 1 .074-.173l.057-.065h1.562l1.583.001c.043 0 .127.112.127.17 0 .033.024.106.054.161.03.055.054.12.054.144 0 .025.023.082.05.128.029.047.06.123.07.17.01.047.036.1.057.118a.123.123 0 0 1 .039.083c0 .029.024.1.053.158.03.058.055.121.055.14 0 .02.024.08.053.136.03.055.054.12.054.143 0 .024.035.078.079.122l.079.078h.978c1.005 0 1.086-.006 1.11-.07.015-.038-.076-.267-.117-.293-.013-.008-.032-.053-.043-.101a.358.358 0 0 0-.052-.128.382.382 0 0 1-.052-.142c-.01-.055-.029-.1-.042-.1-.013 0-.032-.028-.042-.061a4.039 4.039 0 0 0-.19-.429.328.328 0 0 1-.038-.124.25.25 0 0 0-.054-.121.248.248 0 0 1-.054-.103c0-.057-.063-.213-.086-.213-.011 0-.022-.025-.022-.056a.254.254 0 0 0-.053-.125.256.256 0 0 1-.054-.129.138.138 0 0 0-.04-.094.355.355 0 0 1-.07-.145.479.479 0 0 0-.066-.151.34.34 0 0 1-.055-.122.346.346 0 0 0-.053-.12.35.35 0 0 1-.055-.122.365.365 0 0 0-.052-.121.385.385 0 0 1-.052-.142c-.01-.055-.028-.1-.042-.1-.013 0-.032-.028-.042-.061a4.038 4.038 0 0 0-.19-.429.328.328 0 0 1-.038-.124.25.25 0 0 0-.054-.121.25.25 0 0 1-.053-.122.251.251 0 0 0-.055-.12.25.25 0 0 1-.053-.122.249.249 0 0 0-.054-.12.246.246 0 0 1-.054-.116.35.35 0 0 0-.05-.13.657.657 0 0 1-.07-.17.249.249 0 0 0-.056-.117.249.249 0 0 1-.055-.123c-.01-.05-.027-.092-.04-.092-.026 0-.083-.16-.066-.188.007-.01-.012-.041-.041-.068a.17.17 0 0 1-.053-.108.258.258 0 0 0-.054-.128.251.251 0 0 1-.054-.1c0-.016-.031-.1-.07-.184a19.46 19.46 0 0 1-.124-.274 3.528 3.528 0 0 0-.09-.193.328.328 0 0 1-.039-.124.252.252 0 0 0-.054-.121.25.25 0 0 1-.054-.122.25.25 0 0 0-.054-.12.249.249 0 0 1-.054-.116.344.344 0 0 0-.05-.13.657.657 0 0 1-.07-.17.249.249 0 0 0-.056-.117.25.25 0 0 1-.055-.123c-.009-.05-.028-.091-.04-.091-.013 0-.037-.052-.055-.115a.554.554 0 0 0-.069-.157.176.176 0 0 1-.036-.097.253.253 0 0 0-.054-.124.251.251 0 0 1-.054-.118c0-.13.001-.13-.848-.13zm-13.365 2.485c-.316.002-.637.027-.815.074a2.39 2.39 0 0 1-.33.068.243.243 0 0 0-.123.04.22.22 0 0 1-.108.04c-.03.001-.116.031-.19.068a.802.802 0 0 1-.165.066c-.017 0-.045.018-.062.038a.227.227 0 0 1-.101.055c-.13.033-.71.46-.71.523 0 .043.11.167.516.58l.421.43.086-.036a.324.324 0 0 0 .128-.099c.022-.035.053-.063.066-.063.014 0 .07-.043.123-.095.093-.09.379-.255.442-.255a.456.456 0 0 0 .113-.037c.157-.068.484-.1.711-.068.203.029.247.041.404.11.182.081.438.355.438.47a.65.65 0 0 0 .056.162c.091.2.113.194-.667.207-.857.015-.81.013-.868.044a1.547 1.547 0 0 1-.301.051 1.35 1.35 0 0 0-.334.068.415.415 0 0 1-.16.043c-.08 0-.143.026-.542.22-.34.166-.672.463-.788.706-.17.356-.19.434-.212.812-.024.407.093.939.225 1.018.02.011.036.037.036.056 0 .133.688.69.853.69.018 0 .072.022.121.05.05.028.15.058.224.068.074.01.207.035.296.057.17.04.466.036.687-.01.067-.015.206-.041.309-.059a.99.99 0 0 0 .242-.066.552.552 0 0 1 .157-.052c.055-.01.1-.029.1-.042 0-.013.028-.032.06-.043a.5.5 0 0 0 .132-.076 2.09 2.09 0 0 1 .13-.097c.141-.093.191-.142.248-.243.09-.16.104-.135.104.188 0 .265.006.298.052.323.079.043 1.532.037 1.615-.005l.064-.034-.004-1.535c-.005-1.654-.043-2.496-.122-2.649a.445.445 0 0 1-.043-.17.407.407 0 0 0-.053-.177.572.572 0 0 1-.066-.158.284.284 0 0 0-.05-.115 1.606 1.606 0 0 1-.115-.175c-.138-.24-.56-.637-.678-.637-.015 0-.042-.017-.06-.038a.226.226 0 0 0-.108-.056.938.938 0 0 1-.18-.068.477.477 0 0 0-.164-.053c-.034 0-.15-.024-.256-.054-.157-.043-.468-.063-.783-.06zm35.288 0c-.288 0-.574.02-.7.06a2.07 2.07 0 0 1-.272.064.428.428 0 0 0-.161.055.249.249 0 0 1-.119.042.244.244 0 0 0-.122.051.494.494 0 0 1-.127.07c-.235.073-.839.683-.839.846 0 .018-.018.06-.04.093-.136.208-.145 1.391-.01 1.391.01 0 .034.045.052.1.04.124.05.138.28.372.14.142.242.216.392.287.305.146.395.184.435.184.02 0 .072.02.116.043.045.024.159.054.254.068a.711.711 0 0 1 .205.051.495.495 0 0 0 .177.04c.299.026.83.202.832.276 0 .018.023.034.05.034.052 0 .084.105.085.278 0 .282-1.05.43-1.35.19a.379.379 0 0 0-.104-.051c-.095-.03-.335-.212-.423-.323-.071-.089-.224-.137-.224-.07 0 .027-.214.274-.521.598-.541.571-.551.592-.366.757a.78.78 0 0 0 .17.129c.014 0 .065.03.114.067a.356.356 0 0 0 .12.068c.016 0 .061.024.099.054.037.03.09.053.115.053a.25.25 0 0 1 .115.055c.038.03.1.053.14.053a.4.4 0 0 1 .151.042c.044.022.186.054.315.07.13.016.25.041.27.056.018.015.072.021.12.014a.322.322 0 0 1 .142.009c.085.036.769-.002.97-.054.058-.015.152-.028.207-.028a.914.914 0 0 0 .242-.052c.078-.028.19-.058.247-.066a.353.353 0 0 0 .148-.054.348.348 0 0 1 .131-.057c.048-.01.088-.029.088-.04 0-.013.036-.035.08-.051.178-.062.556-.405.628-.57.016-.037.05-.097.074-.134a.56.56 0 0 0 .064-.148c.011-.044.032-.088.046-.097.104-.064.089-1.147-.017-1.264a.157.157 0 0 1-.04-.086.247.247 0 0 0-.054-.11.252.252 0 0 1-.054-.1c0-.035-.293-.35-.327-.35a.884.884 0 0 1-.164-.09c-.078-.05-.172-.1-.21-.111a.62.62 0 0 1-.12-.053c-.075-.045-.58-.196-.876-.261-.804-.176-.94-.23-1.028-.412l-.059-.121.065-.126c.208-.404 1.007-.38 1.448.044.152.146.176.14.451-.13.133-.129.372-.36.53-.515.185-.178.29-.3.29-.335 0-.056-.177-.26-.226-.26-.014 0-.045-.017-.068-.038-.052-.047-.516-.285-.555-.285a.57.57 0 0 1-.134-.054.493.493 0 0 0-.174-.054c-.038 0-.154-.024-.257-.054-.138-.04-.429-.06-.717-.06zm6.107.003c-.309-.004-.595.012-.642.05a.63.63 0 0 1-.2.062 1.278 1.278 0 0 0-.243.068.437.437 0 0 1-.116.038c-.03 0-.3.116-.378.163l-.189.11c-.18.104-.486.351-.633.511a3.016 3.016 0 0 0-.431.61c-.022.048-.052.088-.065.088-.013 0-.032.047-.042.105a.442.442 0 0 1-.055.155.216.216 0 0 0-.04.103c0 .03-.025.12-.055.202-.11.308-.12 1.344-.015 1.594a.689.689 0 0 1 .049.181c.004.046.014.084.024.084s.038.066.064.148a.524.524 0 0 0 .071.163.331.331 0 0 1 .064.108c.222.531 1.308 1.43 1.74 1.44.021 0 .087.024.146.053a.655.655 0 0 0 .256.053.62.62 0 0 1 .226.042.26.26 0 0 0 .166.024.24.24 0 0 1 .137.012c.062.036.334.04.464.006.103-.027.404-.079.58-.1a.434.434 0 0 0 .161-.052.26.26 0 0 1 .127-.039.27.27 0 0 0 .14-.053.25.25 0 0 1 .12-.055.241.241 0 0 0 .117-.049c.036-.027.12-.078.186-.114.067-.035.177-.11.246-.166a.852.852 0 0 1 .141-.102c.173 0 .463-.5.33-.57a1.544 1.544 0 0 1-.182-.133.783.783 0 0 0-.143-.104.985.985 0 0 1-.162-.115 4.343 4.343 0 0 0-.202-.155c-.168-.112-.271-.196-.271-.218 0-.013-.03-.024-.067-.024-.042 0-.067-.016-.067-.04 0-.028-.027-.041-.081-.041-.047 0-.081.014-.081.034 0 .057-.373.398-.494.452a.757.757 0 0 0-.135.072c-.097.097-.69.138-.95.066-.278-.077-.369-.143-.71-.514a.54.54 0 0 1-.078-.15.58.58 0 0 0-.076-.153c-.12-.137-.182-.133 1.99-.131l2.011.002.043-.06c.075-.108.037-1.321-.047-1.49a.874.874 0 0 1-.06-.222c-.01-.078-.028-.142-.04-.142-.014 0-.038-.05-.055-.113a.674.674 0 0 0-.068-.168.21.21 0 0 1-.038-.096.197.197 0 0 0-.04-.095 5.807 5.807 0 0 1-.141-.206c-.207-.312-.657-.733-.843-.789a.39.39 0 0 1-.107-.052c-.054-.042-.283-.128-.579-.217-.137-.042-.469-.066-.778-.07zm-66.733.003c-.346.002-.757.026-.82.06a.641.641 0 0 1-.192.057.662.662 0 0 0-.191.055.396.396 0 0 1-.116.044c-.04 0-.235.088-.442.199-.433.232-1.032.812-1.145 1.108-.014.037-.037.066-.052.066-.014 0-.034.043-.044.095-.01.052-.034.104-.054.115-.02.012-.048.078-.061.148a.51.51 0 0 1-.052.16.405.405 0 0 0-.046.142c-.01.06-.042.232-.072.384-.042.212-.051.335-.04.525.021.325.027.37.066.46a.512.512 0 0 1 .032.168c0 .113.058.335.087.335.012 0 .021.031.021.07 0 .038.024.1.054.138.03.038.053.09.053.115 0 .026.025.078.055.115a.3.3 0 0 1 .053.088c0 .01.073.115.162.233.09.118.161.221.161.231a.88.88 0 0 0 .224.222c.013 0 .11.07.217.155.214.172.269.209.368.252.037.016.085.04.107.054.022.013.071.038.108.054l.166.08a.45.45 0 0 0 .151.051c.03 0 .094.017.144.038.05.02.23.058.401.082.17.025.34.056.377.069.077.027.397.015.633-.024.514-.086.613-.107.64-.134.017-.017.063-.03.102-.03.04 0 .1-.025.133-.054.034-.03.083-.054.108-.054a.24.24 0 0 0 .113-.052.446.446 0 0 1 .138-.07c.04-.01.072-.027.072-.038 0-.01.04-.04.088-.065.18-.096.212-.122.463-.368.315-.31.316-.317.069-.485a21.137 21.137 0 0 1-.658-.476 1.215 1.215 0 0 0-.184-.123c-.028-.01-.043-.032-.034-.047.01-.015-.009-.027-.04-.027-.033 0-.082-.027-.11-.06l-.052-.06-.051.06a.304.304 0 0 1-.06.06 3.66 3.66 0 0 0-.22.202c-.114.111-.224.202-.242.202a.254.254 0 0 0-.101.047c-.456.323-1.591.024-1.738-.458a.359.359 0 0 0-.05-.1c-.046-.057-.121-.263-.103-.282.009-.008.92-.015 2.026-.015h2.01l.062-.057c.06-.057.062-.066.046-.465a25.396 25.396 0 0 1-.015-.483.788.788 0 0 0-.042-.196.996.996 0 0 1-.042-.261.652.652 0 0 0-.052-.248.542.542 0 0 1-.054-.17.53.53 0 0 0-.058-.175 9.397 9.397 0 0 1-.083-.162 4.351 4.351 0 0 0-.253-.452c-.02-.023-.037-.053-.037-.067 0-.047-.416-.435-.546-.509-.07-.04-.127-.083-.127-.096 0-.014-.034-.032-.074-.042a.327.327 0 0 1-.115-.052c-.064-.056-.425-.176-.777-.26a2.758 2.758 0 0 0-.465-.022zm10.805.008c-.299 0-.598.016-.648.05a.54.54 0 0 1-.148.06c-.07.016-.21.072-.3.122-.12.066-.305.21-.306.239 0 .019-.021.042-.047.052-.053.02-.148.126-.258.287-.094.138-.302.03-.313-.162-.002-.046-.267-.277-.363-.317a.374.374 0 0 1-.12-.08c-.02-.024-.057-.044-.081-.044a.32.32 0 0 1-.125-.053.322.322 0 0 0-.136-.054.43.43 0 0 1-.149-.048c-.132-.068-1.04-.07-1.182-.002a.95.95 0 0 1-.196.064c-.055.01-.1.028-.1.039 0 .01-.046.04-.102.065-.198.088-.264.136-.469.34-.247.248-.236.252-.218-.08.022-.403.08-.379-.888-.378-.876 0-.892.002-.934.103-.02.05-.028.9-.023 2.899l.007 2.827.068.034c.12.06 1.703.049 1.76-.013.038-.044.044-.212.054-1.583.006-.843.018-1.576.027-1.627.009-.052.024-.168.034-.257.016-.142.068-.289.147-.417a.986.986 0 0 0 .05-.1.222.222 0 0 1 .088-.091.294.294 0 0 0 .075-.052c.105-.151.762-.228.916-.107a.25.25 0 0 0 .108.053c.04 0 .188.165.188.208 0 .012.027.07.06.13l.06.107.015 1.858.013 1.857.068.034c.113.057 1.69.049 1.755-.01.047-.042.05-.128.05-1.64 0-.893.01-1.605.023-1.613.013-.008.032-.106.043-.218.013-.137.032-.209.057-.219.023-.009.038-.054.038-.116 0-.079.012-.105.054-.116.029-.008.065-.046.08-.084.014-.039.038-.07.052-.07.014 0 .041-.016.06-.036.182-.18.77-.252.99-.121.132.079.245.186.245.232 0 .02.028.076.06.123l.061.085.014 1.884.013 1.885.067.034c.126.063 1.704.048 1.763-.017.072-.08.052-4.153-.022-4.338a1.393 1.393 0 0 1-.069-.243.814.814 0 0 0-.062-.202 2.79 2.79 0 0 1-.072-.148 1.064 1.064 0 0 0-.077-.137l-.117-.175c-.113-.166-.51-.496-.598-.496-.015 0-.049-.02-.075-.043a.34.34 0 0 0-.15-.056.486.486 0 0 1-.168-.059c-.05-.033-.348-.049-.647-.049zm9.157 0c-.341 0-.686.017-.763.052a.924.924 0 0 1-.226.061.493.493 0 0 0-.18.055.218.218 0 0 1-.096.04c-.035 0-.086.02-.325.13a1.165 1.165 0 0 0-.12.065l-.196.123c-.444.274-1.139 1.124-1.139 1.392a.556.556 0 0 1-.054.135.494.494 0 0 0-.053.174c0 .038-.026.16-.057.27-.07.253-.065 1.046.01 1.212.022.052.05.164.06.25.01.084.03.154.04.154.012 0 .037.06.054.135.018.074.042.134.055.134.012 0 .037.045.055.1a.557.557 0 0 0 .056.128c.013.015.063.089.11.163l.115.173c.036.05.478.493.527.527.203.143.58.364.62.364.015 0 .084.03.153.067.07.037.15.067.176.067.027 0 .1.023.162.05a.802.802 0 0 0 .242.055c.071.003.16.017.197.031a.6.6 0 0 0 .167.028.485.485 0 0 1 .153.027v-.001c.06.028.409.015.633-.024.081-.014.25-.038.374-.054.128-.016.246-.047.271-.07a.218.218 0 0 1 .127-.042c.045 0 .11-.024.144-.053.034-.03.082-.054.108-.054a.249.249 0 0 0 .114-.054.316.316 0 0 1 .086-.054c.027 0 .314-.213.412-.306.121-.113.11-.136-.286-.543-.187-.192-.436-.45-.552-.572-.27-.282-.312-.288-.536-.076-.114.108-.182.15-.262.164-.06.01-.115.029-.123.043-.026.04-.48.028-.587-.016a.542.542 0 0 0-.167-.04.27.27 0 0 1-.14-.055.248.248 0 0 0-.111-.054c-.024 0-.09-.042-.146-.094a.463.463 0 0 0-.128-.094c-.014 0-.025-.016-.025-.036 0-.02-.025-.059-.055-.085-.03-.027-.054-.062-.054-.078a.26.26 0 0 0-.053-.097.251.251 0 0 1-.054-.115c0-.026-.026-.121-.058-.213-.061-.179-.064-.76-.003-.836a.44.44 0 0 0 .047-.15c.01-.062.03-.12.044-.129a.31.31 0 0 0 .062-.101c.037-.088.357-.422.403-.422.014 0 .045-.017.068-.036.175-.148.864-.211 1.073-.1a.51.51 0 0 0 .129.055c.036 0 .12.062.282.209l.127.114.414-.417c.227-.23.424-.44.438-.465.014-.026.097-.118.184-.205.125-.125.154-.17.14-.216a.574.574 0 0 0-.236-.249.993.993 0 0 1-.177-.103 1.786 1.786 0 0 0-.432-.218 1.063 1.063 0 0 1-.161-.07.442.442 0 0 0-.17-.05.412.412 0 0 1-.162-.047c-.064-.035-.402-.053-.744-.053zm-5.233.093c-.307.003-.557.015-.58.039-.035.034-.05 5.735-.016 5.824.024.064 1.802.052 1.842-.012.06-.094.033-5.73-.027-5.79-.041-.042-.709-.065-1.22-.06zm37.484 0c-.307.005-.556.019-.577.045-.056.067-.028 4.208.03 4.312a.708.708 0 0 1 .059.221.604.604 0 0 0 .053.202.557.557 0 0 1 .056.163c.01.055.027.1.039.1s.042.046.067.102c.13.294.373.528.704.68.103.047.22.102.26.123.039.021.107.038.151.038s.124.019.178.041a.32.32 0 0 0 .159.026.239.239 0 0 1 .127.012c.077.033.41.02.6-.023.07-.016.179-.039.242-.05.115-.022.425-.139.45-.17a.369.369 0 0 1 .079-.05c.087-.046.226-.169.413-.365l.154-.162v.281c.001.412-.074.38.896.38.504 0 .825-.011.858-.029.064-.034.083-5.773.02-5.838-.065-.064-1.734-.044-1.8.022-.053.052-.054.09-.054 1.732v1.678l-.065.225c-.208.714-1.459 1.016-1.616.39-.009-.036-.033-.066-.054-.066-.023 0-.043-.047-.055-.128a1.124 1.124 0 0 0-.057-.219c-.031-.074-.038-.396-.038-1.824 0-1.698 0-1.735-.054-1.788-.044-.044-.715-.067-1.225-.06zm-12.812.08c.04-.012.126.1.156.235.01.045.034.106.054.135.02.03.037.079.037.109s.025.1.054.155c.03.055.054.122.054.148 0 .026.024.083.054.128.03.044.053.105.054.135 0 .03.024.09.054.134.03.044.053.107.054.138 0 .031.024.088.053.126.03.037.055.09.055.118a.45.45 0 0 0 .053.15c.03.056.054.126.054.157s.024.088.054.125c.03.038.054.096.054.129s.024.09.054.128c.03.038.053.088.053.112 0 .039-.098.043-.943.043-1.073 0-1.018.013-.904-.227a.786.786 0 0 0 .07-.192c0-.024.024-.075.053-.113a.244.244 0 0 0 .054-.113c0-.024.025-.092.054-.15a.492.492 0 0 0 .054-.16.32.32 0 0 1 .054-.136.321.321 0 0 0 .054-.133.17.17 0 0 1 .04-.096.458.458 0 0 0 .065-.174c.013-.07.036-.137.05-.146.015-.01.035-.06.046-.111a.686.686 0 0 1 .071-.178.348.348 0 0 0 .051-.128c0-.025.024-.09.054-.145a.45.45 0 0 0 .054-.146c0-.036.009-.053.022-.057zm-39.653 1.195c.13-.006.25.006.327.038.053.022.114.04.135.04.099 0 .42.291.492.445.082.178.156.402.143.438-.009.026-.261.034-1.14.034h-1.13v-.065c0-.036.013-.07.028-.075.016-.005.035-.057.044-.116.01-.06.04-.13.067-.156.028-.027.05-.063.05-.082 0-.04.245-.265.377-.347.14-.087.389-.145.607-.154zm66.992.016a.816.816 0 0 1 .438.12c.04.028.082.05.095.05.107.003.375.459.39.663l.009.132-1.11.007c-.61.003-1.115-.004-1.123-.016-.018-.03.018-.153.075-.26a.368.368 0 0 0 .044-.123c0-.324.665-.59 1.182-.573zm-19.096.281c.2-.006.386.008.475.051.06.029.128.053.154.053.09.002.532.35.533.421 0 .016.023.05.051.076a.3.3 0 0 1 .07.143c.01.053.036.124.058.157.05.077.044 1.024-.007 1.057-.017.01-.039.058-.05.105a.253.253 0 0 1-.056.117c-.021.018-.039.047-.039.065 0 .018-.024.055-.054.082-.03.027-.054.065-.054.085 0 .02-.024.036-.054.036s-.054.014-.054.03c0 .072-.251.22-.485.286-.17.049-.713.077-.737.039-.009-.014-.072-.034-.142-.044a.819.819 0 0 1-.222-.07.476.476 0 0 0-.125-.052.418.418 0 0 1-.129-.092.721.721 0 0 0-.14-.107c-.022-.008-.04-.032-.04-.052 0-.02-.023-.06-.053-.086-.03-.027-.054-.063-.054-.081a.234.234 0 0 0-.05-.097c-.13-.167-.224-1.101-.111-1.101.012 0 .031-.057.042-.126.037-.25.388-.71.54-.71.02 0 .037-.01.037-.023 0-.085.365-.152.697-.162zM81.613 36.73c.27-.004.232.03.232.21 0 .565-.287.93-.862 1.096-.762.22-1.304-.09-1.24-.71.005-.056.136-.263.165-.263.011 0 .038-.017.058-.038.175-.174.57-.263 1.26-.283.172-.006.296-.011.387-.012zM99.7 42.687c-.127-.002-.215.016-.215.062 0 .01-.059.04-.13.07-.332.138-.578.693-.44.988a1.4 1.4 0 0 1 .073.187.217.217 0 0 0 .055.1c.02.018.038.046.038.064 0 .046.203.23.254.23.024 0 .05.02.059.041.009.023.032.04.052.04.06 0 .173.061.158.086-.008.012.01.022.04.022.075 0 .192.057.175.085-.008.013.012.023.045.023.36 0 .757.407.742.761-.028.647-1.498.748-1.498.103 0-.062-.102-.082-.2-.042a.549.549 0 0 1-.112.039c-.01-.002-.033.02-.053.046-.14.185.354.68.748.75.056.01.095.029.087.04-.008.013.02.028.061.034.142.022.535.02.56-.003a.939.939 0 0 1 .188-.072c.245-.075.469-.244.57-.43a.376.376 0 0 1 .068-.098c.025-.015.06-.24.057-.374-.002-.163-.023-.377-.037-.377-.008 0-.036-.044-.062-.097-.126-.265-.772-.738-1.008-.738-.019 0-.04-.018-.05-.04-.009-.023-.041-.04-.073-.04-.202 0-.502-.333-.502-.558 0-.528.702-.68 1.07-.23.115.139.133.14.304.017.15-.108.165-.161.068-.252-.037-.035-.062-.071-.055-.082.007-.01-.012-.041-.04-.068-.03-.026-.054-.038-.054-.026 0 .013-.027-.002-.06-.033-.133-.12-.602-.224-.883-.228zm17.375.009c-.846-.003-1.678.526-1.823 1.22a.501.501 0 0 1-.061.15c-.168.253-.005 1.157.281 1.561.222.314.769.697.999.7a.16.16 0 0 1 .097.039c.02.02.073.044.116.05.192.028.593.018.66-.017.065-.034.2-.068.343-.086a.239.239 0 0 0 .108-.046.338.338 0 0 1 .119-.057c.04-.01.074-.029.074-.042 0-.013.051-.054.114-.091.334-.198.504-.516.293-.548a.26.26 0 0 1-.096-.062c-.08-.074-.16-.045-.277.101-.164.205-.504.39-.708.386a1.161 1.161 0 0 0-.245.029.367.367 0 0 1-.175.008.66.66 0 0 0-.172-.027c-.373-.016-1.024-.593-1.024-.908a.563.563 0 0 0-.043-.145c-.053-.128-.046-.7.01-.734.02-.012.04-.068.044-.127.021-.222.412-.709.603-.75.045-.01.089-.037.097-.058.008-.021.044-.038.08-.038.034 0 .098-.018.141-.04.11-.055.402-.078.577-.045.396.072.544.144.769.373.152.155.257.185.307.09a.162.162 0 0 1 .082-.069c.153-.048-.03-.342-.336-.54a.974.974 0 0 1-.128-.1.184.184 0 0 0-.112-.046.143.143 0 0 1-.097-.04c-.019-.022-.042-.036-.05-.03a.933.933 0 0 1-.206-.027 1.928 1.928 0 0 0-.361-.034zm-80.466 0a1.994 1.994 0 0 0-.359.025c-.128.02-.248.036-.266.034-.019-.002-.034.007-.034.019s-.045.036-.099.054c-.107.035-.265.12-.336.18a.211.211 0 0 1-.08.044c-.041.007-.347.298-.347.33 0 .01-.017.039-.038.062-.235.263-.396.995-.312 1.417.018.088.036.208.04.266.005.06.026.115.05.129.023.013.05.065.06.117.01.051.027.093.038.093s.037.039.057.087c.116.28.706.703 1.087.78.082.016.15.04.15.05 0 .013.027.028.06.035.12.025.722.004.742-.026.018-.03.227-.075.344-.077.03 0 .077-.023.103-.048.026-.026.061-.049.079-.05.081-.005.134-.023.177-.063.026-.023.062-.042.08-.042.019 0 .082-.04.14-.087l.105-.088v-.624a7.86 7.86 0 0 0-.015-.665c-.014-.035-.114-.041-.7-.043l-.682-.002-.045.068c-.042.064-.044.126-.008.283.017.075.062.081.517.079.25-.001.459.003.465.009.056.056.02.65-.043.69a.414.414 0 0 0-.084.066c-.128.18-1.062.246-1.404.099-.451-.195-.791-.606-.822-.997-.008-.096-.024-.182-.037-.19-.03-.02-.038-.222-.01-.268.024-.037.032-.089.05-.307.006-.081.027-.144.054-.164a.119.119 0 0 0 .045-.085c0-.434 1.185-.976 1.615-.738.037.02.103.041.148.046.045.005.095.028.112.05.016.022.042.04.056.04.015 0 .073.037.13.08.132.106.204.103.335-.016.143-.128.143-.202 0-.296-.094-.062-.159-.126-.076-.075.02.012.024.008.011-.012-.01-.017-.03-.025-.043-.017-.024.015-.158-.058-.19-.103-.01-.013-.025-.022-.034-.02-.063.008-.1-.004-.141-.046-.027-.026-.095-.049-.157-.052l-.362-.024a2.368 2.368 0 0 0-.126-.006zM7.714 42.7c-.77.008-1.472.49-1.702 1.188a.465.465 0 0 1-.075.157c-.06.04-.056.865.006.997.03.063.073.17.097.239.044.125.234.437.285.469.015.01.022.027.015.038-.007.011.035.067.094.125.058.057.106.094.106.083 0-.01.04.01.088.047a2 2 0 0 0 .256.15.616.616 0 0 1 .168.103c0 .01.043.021.096.024.053.003.114.02.136.039a.392.392 0 0 0 .14.052c.16.031.56.028.643-.004.041-.017.155-.053.25-.08.269-.074.416-.133.44-.175.011-.021.044-.038.072-.038.028 0 .06-.014.07-.031.013-.02.006-.025-.018-.013-.021.01-.008-.003.03-.03a1.67 1.67 0 0 0 .387-.397c.158-.245.173-.274.204-.387.016-.062.041-.112.055-.112.014 0 .018-.019.01-.04-.01-.023-.005-.041.01-.041.03 0 .03-.023.028-.485-.003-.56-.005-.58-.055-.63a.173.173 0 0 1-.05-.092c-.004-.1-.027-.176-.061-.204a1.935 1.935 0 0 1-.165-.213c-.186-.266-.644-.61-.813-.611-.017 0-.052-.021-.078-.047-.026-.026-.096-.05-.157-.053-.06-.003-.222-.014-.357-.024a1.86 1.86 0 0 0-.155-.004zm74.18 0c-.052 0-.103.002-.154.006l-.343.026a.348.348 0 0 0-.147.051.251.251 0 0 1-.09.045c-.277 0-.815.535-1.034 1.029l-.1.223v.5c0 .432.007.507.046.546a.309.309 0 0 1 .063.129c.02.087.095.232.18.343.026.035.041.074.034.086-.007.012.001.03.018.042.022.013.025.007.01-.017-.014-.023-.011-.028.01-.016a.07.07 0 0 1 .03.053c0 .039.27.31.27.272.001-.014.016-.007.035.015.075.092.402.249.621.298.082.018.144.042.137.054-.007.011.02.027.061.034.14.023.711.002.73-.028.024-.039.214-.09.262-.071.022.008.039.002.039-.012 0-.028.16-.104.195-.093.011.003.02-.008.02-.025 0-.018.007-.025.016-.016.01.009.04-.008.068-.037.03-.029.063-.046.076-.038.031.02.46-.384.46-.431 0-.034.096-.197.163-.276a.283.283 0 0 0 .04-.12c.006-.046.024-.092.04-.102.096-.06.121-1.184.026-1.184-.01 0-.045-.07-.076-.155-.246-.673-.945-1.13-1.707-1.131zm22.268.002c-.281.003-.579.04-.714.11a.371.371 0 0 1-.124.043c-.024 0-.134.066-.244.148a2.2 2.2 0 0 1-.214.148c-.056 0-.287.327-.417.593-.5 1.014.094 2.354 1.147 2.588.087.02.19.051.226.072.081.044.695.031.724-.015.01-.016.077-.044.151-.062a1.18 1.18 0 0 0 .202-.07.325.325 0 0 1 .093-.035c.158-.001.701-.54.812-.804a.33.33 0 0 1 .071-.116c.017-.01.034-.054.036-.096l.008-.12a.175.175 0 0 1 .048-.09c.065-.065.088-.642.03-.756a1.249 1.249 0 0 1-.073-.227c-.11-.483-.75-1.185-1.079-1.185a.115.115 0 0 1-.07-.029c-.069-.068-.332-.1-.613-.097zm-53.987.005c-.282 0-.56.026-.61.077-.024.024-.057.043-.073.043-.261 0-.871.586-1.003.963-.025.07-.07.177-.1.236-.072.146-.066.998.009 1.072a.318.318 0 0 1 .062.14 1 1 0 0 0 .182.36c.026.035.042.074.034.086-.007.012 0 .03.018.041.021.013.024.008.01-.016-.015-.023-.012-.028.009-.016a.07.07 0 0 1 .031.053c0 .039.269.31.27.272 0-.014.016-.008.034.014.076.092.404.25.622.299.083.018.144.042.137.054-.007.011.02.027.061.034.14.024.711.003.73-.027.024-.039.214-.09.263-.072.02.008.038.001.038-.016 0-.018.012-.024.027-.015.014.009.026.005.026-.01 0-.027.104-.073.142-.063.011.003.02-.007.02-.023 0-.015.012-.021.025-.013.014.008.029.005.034-.007a.683.683 0 0 1 .13-.106c.137-.095.413-.357.42-.398.005-.03.122-.216.176-.279a.275.275 0 0 0 .04-.12c.006-.045.023-.09.038-.1.057-.035.082-.214.083-.594 0-.393-.019-.6-.055-.578-.011.007-.04-.051-.064-.129-.133-.422-.744-1.041-1.027-1.041a.257.257 0 0 1-.096-.047c-.073-.05-.36-.075-.643-.074zm-4.42.002c-.456-.001-.838.01-.891.038-.057.031-.077.256-.024.274.016.005.03.036.033.07l.005.065c.001.003.226.012.5.02l.498.015.006 1.557c.004.856.018 1.55.03 1.543.013-.008.039.016.058.052.05.091.29.099.345.01.027-.043.035-.38.034-1.573-.002-1.831-.078-1.602.533-1.603.278 0 .52-.012.543-.027.022-.014.03-.026.017-.026-.013 0-.004-.03.02-.067.051-.078.06-.27.012-.24-.021.013-.026.005-.015-.023.018-.049-.945-.084-1.704-.085zm25.982 0c-.298.002-.593.023-.607.064-.005.015-.023.028-.04.028-.322 0-.954.626-1.096 1.084-.017.055-.04.1-.05.1-.01 0-.02.028-.024.062a6.86 6.86 0 0 1-.03.236 1.827 1.827 0 0 0-.012.336c.007.089.017.222.02.296.012.214.013.218.07.283.029.034.053.075.053.091.001.315.686.927 1.166 1.042.077.018.177.05.221.07.098.045.707.036.736-.01.024-.039.214-.09.263-.071.021.008.038 0 .038-.017 0-.018.012-.024.027-.015.015.01.027.005.027-.01 0-.027.104-.073.142-.063.01.003.02-.008.02-.025 0-.018.007-.025.015-.017s.046-.014.084-.05c.038-.034.078-.057.09-.05.011.007.028-.006.036-.028a.064.064 0 0 1 .054-.04c.067 0 .26-.254.26-.342 0-.189-.335-.303-.418-.142-.047.09-.31.297-.445.35a.705.705 0 0 0-.13.063.58.58 0 0 1-.202.034 2.792 2.792 0 0 0-.28.025c-.065.012-.115.01-.115-.005 0-.013-.063-.025-.14-.027-.176-.004-.471-.132-.576-.25-.04-.045-.088-.082-.105-.082-.062 0-.265-.29-.355-.51-.052-.125-.061-.201-.066-.565l-.006-.42.116-.237c.121-.247.418-.584.514-.584a.237.237 0 0 0 .11-.05c.249-.189 1.106-.197 1.249-.012.015.02.057.04.094.048a.21.21 0 0 1 .108.061.26.26 0 0 0 .088.067c.026.01.047.037.047.06a.04.04 0 0 0 .04.041c.02 0 .051.024.067.054.067.124.357-.018.357-.176 0-.145-.371-.458-.678-.572a.289.289 0 0 1-.112-.065c-.025-.04-.326-.06-.624-.06zm3.369.001c-.466 0-.849.013-.878.042-.048.048-.041.279.01.33.023.023.033.042.02.042-.011 0-.003.013.019.027.023.016.24.026.507.025.257-.002.472.003.478.009.006.006.014.717.018 1.58.006 1.514.008 1.57.059 1.606.084.061.356.052.391-.013.018-.035.028-.581.028-1.587 0-.845.006-1.551.014-1.57.01-.03.11-.035.474-.028.603.012.58.02.586-.187a.792.792 0 0 1 .021-.193c.03-.049-.972-.083-1.747-.083zm49.374.003c-.326.004-.431.013-.431.037 0 .01-.05.038-.11.062-.342.137-.6.697-.46.996.03.065.063.149.073.187.01.038.034.083.055.1.02.018.038.045.038.06 0 .042.111.154.153.154.02 0 .033.015.029.034-.004.018.015.033.042.033.027 0 .065.022.084.048.02.026.048.046.064.046.055 0 .165.062.15.085-.007.013.01.023.04.023.076 0 .193.057.176.085-.008.013.014.023.048.023.062 0 .265.094.461.214.412.25.393.822-.034 1.031-.361.177-1.186-.089-1.186-.381 0-.062-.102-.083-.2-.042a.549.549 0 0 1-.113.038c-.029-.004-.09.095-.09.147-.004.185.496.598.786.65.055.01.095.029.087.04-.008.013.02.028.061.034.143.022.536.02.561-.003a.939.939 0 0 1 .187-.072c.245-.075.47-.244.57-.43a.378.378 0 0 1 .068-.098c.025-.015.059-.241.057-.374-.002-.182-.024-.377-.042-.377-.01 0-.037-.043-.059-.095-.12-.288-.312-.424-1.154-.822-.34-.16-.477-.322-.477-.558 0-.527.703-.677 1.07-.229.115.14.133.14.303.018.315-.226-.226-.67-.807-.664zm-45.973.002c-.035-.002-.079.005-.134.005-.127 0-.168.01-.187.047-.046.088-.024 3.51.023 3.582.033.05.064.06.186.06.08 0 .14-.006.13-.015-.02-.02.068-.114.095-.1.01.006.02-.783.02-1.754 0-1.64.019-1.817-.133-1.825zm29.07 0c-.09.004-.183.027-.203.064-.023.044-.026.38-.013 1.326.022 1.508.022 1.503.062 1.517.018.005.046.055.064.11.043.132.219.339.38.447.07.048.12.098.11.11-.012.012 0 .013.026.004s.047-.004.047.011.01.022.023.014c.012-.007.076.004.141.024.066.02.107.04.093.042-.015.003.009.014.053.026.467.118 1.441-.248 1.441-.543 0-.025.016-.062.036-.082.02-.02.05-.096.069-.17.019-.073.048-.143.066-.154.046-.028.06-2.65.015-2.704-.025-.03-.084-.037-.237-.031l-.205.007-.013 1.347-.013 1.347-.072.134c-.116.218-.326.39-.475.39-.05 0-.142.014-.206.03-.152.038-.444-.005-.551-.081a.293.293 0 0 0-.121-.056c-.024 0-.044-.017-.044-.037 0-.021-.035-.077-.08-.124-.144-.155-.148-.196-.148-1.607 0-.713-.007-1.292-.018-1.286-.01.006-.025-.008-.033-.03-.013-.035-.103-.05-.193-.045zm-78.75 0c-.09.003-.183.023-.2.057-.053.096-.038 3.435.015 3.546.041.088.05.092.19.092.08 0 .14-.01.132-.024-.008-.012.016-.038.053-.058l.066-.035V44.53c0-1.011-.01-1.754-.024-1.746-.013.008-.031-.004-.04-.026-.012-.033-.102-.047-.192-.045zm-15.519.002c-.197-.004-.176.055-.157 1.252.024 1.512.012 1.599-.27 1.846-.18.157-.377.196-.793.152a4.366 4.366 0 0 0-.153-.014c-.017 0-.05-.02-.074-.043-.023-.024-.042-.036-.042-.03a.923.923 0 0 1-.141-.128c-.238-.237-.238-.236-.244-1.739l-.006-1.28-.204-.007c-.291-.011-.27-.126-.26 1.33.01 1.317.03 1.539.16 1.699a.366.366 0 0 1 .046.107c.011.042.034.076.052.076.017 0 .03.01.029.023-.004.035.143.18.182.18.02 0 .033.009.03.02a.02.02 0 0 0 .013.026c.011.003.078.035.148.07.07.036.17.074.222.085a.688.688 0 0 1 .162.058c.079.045.639.037.668-.009.02-.031.112-.064.21-.074a.239.239 0 0 0 .114-.051c.027-.025.06-.044.073-.044.046 0 .397-.388.404-.447a.24.24 0 0 1 .064-.117c.042-.042.057-.091.058-.185l.011-1.374c.013-1.447.023-1.379-.203-1.379-.038 0-.07-.002-.099-.003zm74.511.001-.076.002c-.232 0-.22-.078-.21 1.375.005.695 0 1.265-.011 1.265-.033 0-.237-.225-.237-.262 0-.02-.01-.035-.023-.035-.022 0-.428-.469-.6-.693-.049-.063-.104-.115-.123-.115-.02 0-.035-.02-.035-.044a.109.109 0 0 0-.037-.074 3.873 3.873 0 0 1-.367-.436c0-.01-.017-.032-.037-.049a13.94 13.94 0 0 1-.606-.696 3.659 3.659 0 0 0-.207-.236.483.483 0 0 0-.071.028l-.062.028v3.534l.06.027c.034.015.061.037.061.05 0 .052.267.024.296-.03.02-.036.028-.483.027-1.326 0-.748.008-1.274.023-1.274a.76.76 0 0 1 .155.161c.273.34.718.849.741.849.013 0 .024.03.024.069 0 .038.01.063.023.055.012-.008.13.115.262.272l.557.657c.174.205.316.382.316.393a.53.53 0 0 0 .099.125c.19.2.183.253.192-1.746.008-1.753.02-1.871-.133-1.873zm-85.59.001c-.271 0-.284.03-.13.285.062.102.13.222.151.267.021.045.066.13.1.19.034.059.109.192.166.296l.163.296c.034.059.09.162.125.229.081.152.31.566.343.62.16.256.161.265.161.852 0 .329.012.572.028.603v.001c.042.078.388.077.43-.002.018-.034.028-.266.026-.623-.003-.56-.002-.57.06-.635.034-.037.059-.072.055-.078-.016-.027-.002-.061.047-.118.03-.034.047-.072.04-.085-.008-.012.01-.037.04-.056.03-.02.055-.059.055-.09 0-.03.017-.078.037-.107a3.6 3.6 0 0 0 .136-.242c.055-.104.127-.237.16-.296a24.85 24.85 0 0 1 .387-.703c.093-.165.169-.308.169-.318 0-.01.026-.053.057-.095.106-.143.056-.194-.184-.185l-.204.008-.103.189c-.056.103-.127.237-.157.296-.03.06-.121.229-.204.377-.083.148-.175.318-.204.377a9.8 9.8 0 0 1-.174.323 4.67 4.67 0 0 0-.163.317c-.06.141-.117.117-.209-.088a4.409 4.409 0 0 0-.15-.283 13.98 13.98 0 0 1-.205-.376 3.277 3.277 0 0 0-.12-.216 11.811 11.811 0 0 1-.324-.593c-.04-.074-.099-.18-.132-.235l-.06-.102zm54.38.001c-.049 0-.072.05-.352.744-.103.253-.205.496-.227.539a.353.353 0 0 0-.04.118.113.113 0 0 1-.025.068 2.02 2.02 0 0 0-.123.277 6.16 6.16 0 0 1-.12.296 4.946 4.946 0 0 0-.11.274c-.047.126-.097.24-.11.254a.108.108 0 0 0-.025.065.576.576 0 0 1-.05.15c-.075.16-.184.424-.205.494-.01.033-.027.06-.038.06-.012 0-.023.015-.026.034-.035.241-.035.263 0 .263.028 0 .027.007-.004.027-.028.018.004.025.112.026.18 0 .3-.09.33-.248.009-.05.037-.12.062-.155a.292.292 0 0 0 .05-.115c.006-.093.053-.098.91-.102l.857-.005.065.096c.036.053.065.11.065.128 0 .04.122.292.168.348.151.184.483-.043.351-.24a.37.37 0 0 1-.06-.126.398.398 0 0 0-.055-.126.478.478 0 0 1-.06-.163c-.003-.04-.014-.073-.023-.073-.01 0-.033-.039-.05-.087a1.543 1.543 0 0 0-.055-.13 5.758 5.758 0 0 1-.107-.255c-.047-.117-.102-.25-.122-.295-.02-.044-.069-.16-.108-.256a12.46 12.46 0 0 0-.108-.256l-.11-.255c-.04-.097-.096-.226-.124-.288a.69.69 0 0 1-.056-.169c-.002-.03-.013-.056-.023-.056s-.034-.045-.052-.1a.636.636 0 0 0-.053-.128 2.94 2.94 0 0 1-.12-.283c-.106-.272-.157-.35-.229-.35zm11.634 0c-.144 0-.194.01-.205.04-.008.022-.023.035-.033.03-.045-.029-.004 3.441.041 3.532.043.085.05.088.206.088.09 0 .155-.008.146-.017-.01-.009.01-.042.042-.074l.06-.058V44.52c0-.958-.008-1.736-.018-1.73-.01.006-.024-.008-.033-.03-.012-.03-.062-.04-.206-.04zm-8.015 0c-.346-.001-.69.011-.7.038-.009.024-.03.035-.045.025-.02-.013-.023.088-.01.33.009.191.017.98.017 1.753v1.404l.06.07.061.069h.465c.255 0 .464-.01.464-.023 0-.027.423-.085.476-.065.02.008.037.001.037-.014s.026-.02.057-.012c.038.01.052.005.04-.013-.01-.018.018-.038.07-.05.127-.03.127-.03.149-.037a.106.106 0 0 1 .04-.003c.011.001.02-.01.02-.025 0-.015.028-.038.061-.05.225-.086.583-.46.69-.722.02-.047.054-.092.077-.101.029-.011.036-.038.026-.093a.29.29 0 0 1 .038-.181c.097-.19.098-.533.002-.892-.045-.167-.073-.303-.063-.304.01 0 .005-.009-.01-.02a1.01 1.01 0 0 1-.118-.181 1.583 1.583 0 0 0-.75-.685c-.048-.02-.087-.047-.087-.06 0-.015-.012-.019-.027-.01-.015.01-.027.003-.027-.015 0-.017-.017-.024-.038-.016-.05.019-.24-.033-.264-.073-.017-.027-.365-.042-.71-.044zm51.98.002c-.319-.001-.636.01-.646.036-.009.024-.029.034-.044.024-.02-.012-.024.113-.011.411.01.236.018 1.026.018 1.756 0 1.271.002 1.328.052 1.377.027.029.044.059.035.068-.009.008.06.015.152.015.105 0 .162-.01.151-.027-.009-.015-.004-.027.011-.027.067 0 .09-.125.085-.5-.003-.356 0-.388.045-.39.224-.005.47-.023.554-.039.117-.022.163.009.286.188.538.79.54.794.792.795.106 0 .177-.01.168-.025a.031.031 0 0 1 .012-.042c.048-.03.03-.082-.087-.236-.063-.083-.161-.216-.218-.294-.412-.571-.4-.541-.255-.627.204-.12.413-.366.477-.561.018-.053.047-.101.064-.107.056-.019.044-.833-.012-.89a.285.285 0 0 1-.062-.12.799.799 0 0 0-.123-.216c-.059-.077-.098-.14-.09-.14.01 0-.003-.025-.03-.054-.026-.03-.058-.047-.07-.04-.011.008-.028.003-.036-.011-.027-.043-.297-.185-.421-.222a.378.378 0 0 1-.14-.063c-.017-.025-.338-.039-.657-.04zm-86.986 0c-.228.001-.416.01-.436.026-.073.06-.05 3.617.022 3.61.087-.01.113 0 .074.025-.029.018.004.026.114.026.091 0 .155-.011.155-.028 0-.015.012-.021.026-.012.042.026.055-.081.062-.51l.006-.403.256-.003c.14-.001.307-.013.368-.025l.112-.021.198.27c.108.15.258.358.332.463a.93.93 0 0 0 .213.23c.08.04.397.056.388.02a.227.227 0 0 1 .016-.083c.016-.05 0-.085-.083-.178a4.683 4.683 0 0 1-.265-.35c-.089-.128-.202-.29-.253-.357-.084-.114-.095-.215-.022-.2.01.001.04-.016.067-.038l.166-.141c.065-.056.151-.153.191-.215.04-.063.08-.105.09-.096.01.01.018 0 .02-.021.008-.147.046-.273.089-.3.051-.033.04-.622-.014-.675a.334.334 0 0 1-.063-.145c-.047-.249-.51-.72-.74-.754-.102-.015-.178-.043-.196-.072-.017-.029-.512-.045-.893-.043zm66.686 0c-.229.002-.417.01-.437.026-.105.088-.046 3.608.06 3.608.038 0 .059.012.05.027-.01.016.035.026.12.026.077 0 .135-.012.135-.028s.012-.022.027-.013c.041.026.054-.08.061-.51l.007-.402.256-.003c.14-.002.305-.013.366-.025l.11-.021.122.158c.066.087.187.254.267.373.227.336.272.39.357.432.099.05.383.054.387.006a.519.519 0 0 1 .019-.088c.011-.038-.013-.086-.086-.165a4.36 4.36 0 0 1-.263-.345 18.844 18.844 0 0 0-.253-.356c-.084-.114-.095-.215-.022-.2.01.001.04-.016.066-.038l.161-.137a.985.985 0 0 0 .173-.195.91.91 0 0 1 .11-.148c.026-.026.043-.058.035-.07-.018-.03.04-.199.078-.223.05-.034.038-.622-.015-.675a.334.334 0 0 1-.063-.145c-.037-.197-.32-.537-.54-.648a.752.752 0 0 1-.127-.082c-.026-.023-.048-.035-.048-.026 0 .026-.2-.039-.22-.071-.018-.028-.512-.044-.893-.042zm-70.472.001c-.281.002-.51.01-.53.026-.072.06-.048 3.616.024 3.608.058-.006.075.002.06.026-.03.048 1.324.034 1.467-.016a.86.86 0 0 1 .223-.043c.057-.001.118-.017.137-.036a.778.778 0 0 1 .142-.089c.098-.05.162-.112.354-.342a.413.413 0 0 0 .075-.184 2.35 2.35 0 0 1 .045-.241c.083-.335-.124-.787-.457-.997-.128-.081-.166-.131-.114-.149.06-.02.215-.188.215-.232 0-.023.012-.042.026-.042.094 0 .11-.62.02-.712a.28.28 0 0 1-.063-.123.468.468 0 0 0-.124-.179c-.06-.057-.1-.085-.088-.063.012.023-.007.013-.044-.02a.543.543 0 0 0-.159-.091.291.291 0 0 1-.113-.062c-.017-.027-.628-.042-1.096-.039zm19.791 0-.657.003-1.05.007-.007 1.786c-.005 1.2.002 1.803.021 1.838.027.05.065.053 1.13.053 1.269 0 1.167.024 1.153-.277l-.008-.168-.93-.014c-.51-.008-.928-.017-.928-.02v-.376c0-.455-.087-.41.796-.41.722 0 .975-.032.813-.1-.019-.007-.034-.043-.034-.08 0-.037.012-.059.027-.05.015.01.027-.01.027-.043 0-.034-.008-.053-.018-.043-.01.01-.03 0-.048-.024-.026-.036-.89-.074-1.517-.066-.027 0-.032-.163-.027-.773l.007-.775.862-.014c.474-.008.863-.017.865-.02l.007-.16c.003-.086.011-.177.02-.202.016-.055-.014-.07-.504-.072zm54.784.002c-.389.001-.67.007-.679.017-.039.039-.027 3.55.013 3.614.05.074 2.126.085 2.216.011.03-.023.035-.033.012-.022-.03.015-.028.006.007-.034.055-.063.065-.277.015-.327-.023-.023-.26-.032-.9-.032-1.056 0-.941.043-.93-.351.008-.22 0-.336-.022-.362-.066-.08.061-.095.799-.095.81 0 .778.006.786-.167.01-.24.011-.24-.821-.236-.394 0-.722-.003-.729-.01-.019-.02-.015-1.495.004-1.526.012-.017.31-.028.85-.028.96 0 .897.02.883-.276l-.008-.168-1.076-.007h-.42zm24.563 0c-.39.001-.67.008-.679.017-.039.039-.026 3.553.013 3.615.053.073 2.127.082 2.216.01.03-.024.034-.034.012-.022-.03.014-.028.005.007-.035.055-.062.065-.276.015-.326-.024-.023-.261-.033-.9-.033-1.056 0-.941.044-.93-.35.007-.221 0-.336-.022-.362-.066-.08.061-.096.799-.096.809 0 .778.006.786-.167.01-.239.011-.239-.822-.236-.393.002-.721-.003-.727-.009-.019-.018-.015-1.496.004-1.526.01-.017.323-.027.849-.027.96 0 .897.02.882-.277l-.008-.168-1.075-.007h-.42zm-89.889.008-.006 1.786c-.005 1.2.002 1.803.021 1.838.03.056 1.023.085 1.023.03 0-.023.317-.071.45-.07.034 0 .061-.01.061-.023s.026-.015.058-.005c.037.012.05.009.039-.01-.01-.017.025-.04.088-.057.112-.03.343-.15.369-.192.008-.013.036-.024.061-.024.058 0 .343-.288.368-.371.01-.037.03-.054.05-.043.017.01.023.009.012-.003-.02-.023.05-.179.093-.207.015-.01.031-.055.037-.102a.249.249 0 0 1 .048-.125c.08-.08.1-1.137.023-1.163-.018-.006-.046-.059-.061-.117-.122-.45-.66-.939-1.157-1.05-.066-.015-.13-.042-.14-.06-.015-.023-.208-.032-.729-.032zm-15.513 0-.006 1.786c-.005 1.2.001 1.803.02 1.838.023.043.058.053.19.053.102 0 .156-.01.146-.027-.015-.024.002-.031.06-.025.046.004.065-.15.058-.488-.008-.443-.018-.426.218-.41.112.008.238 0 .31-.02.168-.047.23-.021.337.141.052.078.137.198.189.267.052.07.152.21.223.313.142.206.222.249.458.249h.123l-.008-.106a.391.391 0 0 0-.067-.182 15.627 15.627 0 0 1-.352-.48 11.42 11.42 0 0 0-.155-.215c-.108-.147-.055-.283.111-.283.038 0 .34-.313.336-.347-.006-.051.01-.088.06-.134.031-.03.053-.075.05-.102a.917.917 0 0 1 .022-.198c.042-.21.064-.49.038-.474-.028.017-.09-.239-.07-.29.008-.02-.001-.054-.02-.074a1.735 1.735 0 0 1-.13-.195 1.175 1.175 0 0 0-.66-.503.328.328 0 0 1-.126-.064c-.013-.02-.23-.03-.687-.03zm48.587 0-.007 1.786c-.004 1.2.003 1.803.021 1.838.033.061 1.035.084 1.055.024.01-.027.247-.062.406-.06.04 0 .074-.01.074-.02 0-.012.022-.015.049-.008a.091.091 0 0 0 .084-.03c.02-.023.049-.042.066-.042.268 0 .9-.61.972-.94a.304.304 0 0 1 .061-.127c.095-.094.091-1.115-.005-1.22a.232.232 0 0 1-.052-.122c-.002-.038-.013-.069-.023-.069-.011 0-.012-.021-.003-.047.009-.026.008-.039-.004-.028-.012.01-.07-.055-.13-.144a1.739 1.739 0 0 0-.976-.7c-.074-.018-.143-.046-.154-.062-.013-.02-.246-.029-.727-.029zm-56.066.36c.466-.015 1.096.302 1.289.704.136.285.14.307.147.732.008.477-.116.89-.287.956-.022.008-.04.03-.04.047 0 .073-.427.38-.497.357-.015-.005-.04.009-.057.03-.019.026-.09.043-.202.049a3.517 3.517 0 0 0-.28.025c-.06.01-.118.007-.13-.005a.385.385 0 0 0-.153-.027c-.708-.025-1.385-1.201-1.057-1.834.029-.056.047-.115.04-.133-.025-.076.332-.574.412-.574.02 0 .046-.016.058-.035a.3.3 0 0 1 .116-.072.3.3 0 0 0 .116-.073c.011-.02.05-.035.083-.035.034 0 .103-.02.154-.046a.688.688 0 0 1 .288-.066zm74.11.007c.484.004 1.043.264 1.269.668.17.303.254 1.045.14 1.222a.49.49 0 0 0-.056.146c-.047.24-.409.624-.692.734a.706.706 0 0 0-.13.064.593.593 0 0 1-.202.036 3.79 3.79 0 0 0-.28.025c-.063.01-.115.006-.115-.007 0-.014-.066-.025-.147-.026a.474.474 0 0 1-.182-.029.716.716 0 0 0-.129-.062c-.281-.11-.658-.513-.684-.732-.005-.045-.026-.093-.046-.105-.02-.013-.026-.024-.012-.024.014 0 .011-.015-.007-.033-.058-.058-.043-.788.02-.95.11-.289.457-.714.581-.714a.239.239 0 0 0 .097-.05c.15-.114.355-.164.575-.163zm-31.602.013c.155 0 .31.019.437.06.412.132.693.407.89.873.059.139.067.857.01.944a.5.5 0 0 0-.055.146c-.047.24-.409.624-.692.734a.714.714 0 0 0-.13.064.582.582 0 0 1-.202.037 3.965 3.965 0 0 0-.28.024c-.064.009-.115.006-.115-.007 0-.014-.066-.026-.148-.027a.477.477 0 0 1-.182-.028.714.714 0 0 0-.128-.063c-.286-.111-.659-.509-.684-.73-.006-.046-.027-.094-.047-.107-.02-.013-.025-.023-.01-.023.013 0 .01-.015-.007-.033-.023-.023-.033-.157-.033-.43 0-.42.002-.428.158-.745.07-.144.406-.49.474-.49a.236.236 0 0 0 .098-.048c.127-.097.387-.15.646-.151zm53.956.009c.568.001 1.134.312 1.321.989.198.716-.207 1.648-.767 1.765a.193.193 0 0 0-.076.042c-.034.033-.062.038-.274.046-.052.001-.131.011-.176.021a.278.278 0 0 1-.14-.006.626.626 0 0 0-.188-.022c-.45.005-1.045-.592-1.074-1.077a35.93 35.93 0 0 0-.024-.355c-.065-.897.668-1.406 1.398-1.403zm-78.781.042c.061.007.251.018.421.025.402.015.781.235.781.451 0 .029.021.091.046.138.07.133.06.532-.016.692-.133.275-.182.327-.434.457-.112.058-.883.105-.931.058-.117-.118.008-1.834.133-1.82zm66.686 0c.061.007.25.018.421.025.402.015.782.235.782.452 0 .028.02.09.045.137.07.133.06.532-.016.692-.133.276-.187.333-.433.458-.112.057-.885.104-.932.057-.117-.118.008-1.834.133-1.82zm-76.248.001c.246.005.705.048.729.08a.158.158 0 0 0 .09.048c.592.087.534 1.353-.074 1.628-.15.069-.871.111-.907.054-.021-.035-.01-1.78.012-1.799a.428.428 0 0 1 .15-.01zm5.995.002c.16 0 .356.002.575.008.051.002.114.041.196.123l.12.12v.244c0 .268-.053.364-.261.469-.127.064-1.045.065-1.07 0-.02-.05-.021-.88-.002-.93.008-.021.175-.033.442-.034zm90.407 0c.033 0 .072.002.117 0 .743-.016 1.077.27 1.077.923 0 .442-.123.655-.481.837-.113.058-.627.094-.859.06l-.06-.009v-.883c0-.893-.028-.927.206-.927zm-80.988.004c.199-.008.91.036.927.062.009.015.052.034.095.042.55.1 1.032 1.206.756 1.736a.793.793 0 0 0-.055.145c-.081.323-.455.63-.902.74-.274.068-.323.072-.631.056l-.264-.014.001-1.372c.001-.755.01-1.38.022-1.39a.146.146 0 0 1 .05-.005zm33.106.004c.158-.003.487.004.691.018.089.006.204.028.256.049l.186.073c1.058.398.838 2.243-.307 2.576-.235.069-.337.078-.668.06l-.264-.013.001-1.371c0-.754.008-1.377.015-1.385a.35.35 0 0 1 .09-.007zm-4.028.001a8.1 8.1 0 0 1 .488.013c.167.014.51.141.485.181-.008.013.005.023.029.023.064 0 .177.083.158.115-.01.016-.005.02.01.01.07-.042.304.343.37.606.209.834-.177 1.577-.915 1.762a2.12 2.12 0 0 1-.721.066l-.264-.013v-1.37c0-.754.004-1.376.01-1.382a2.57 2.57 0 0 1 .35-.01zm-3.7.433c.01-.003.021.006.034.027.068.106.659 1.634.648 1.676-.011.043-.065.047-.67.047-.716 0-.738-.005-.645-.147a.262.262 0 0 0 .043-.102c0-.02.024-.083.054-.141a.564.564 0 0 0 .054-.134c0-.015.02-.064.043-.109.024-.044.059-.129.078-.188.067-.205.145-.395.178-.435a.242.242 0 0 0 .04-.109.235.235 0 0 1 .05-.114.33.33 0 0 0 .054-.149c.01-.076.022-.116.039-.122zm-35.253.996h.59c.502 0 .598.007.634.043.023.023.042.034.042.025 0-.036.155.069.224.151.102.124.194.493.132.532-.016.01-.034.069-.04.132a.542.542 0 0 1-.313.405c-.164.07-.23.075-.79.066l-.479-.009v-.672z" style="fill:#134c6b;fill-opacity:1" transform="translate(2.323 2.242)"/>
  <path d="M2.198 39.168c-.077-.082-.042-.182.14-.407.051-.062.202-.27.335-.463.223-.322.443-.622.585-.798a22.772 22.772 0 0 1 .822-1.071c.614-.764.73-.908.893-1.12a5.91 5.91 0 0 1 .267-.324c.056-.06.153-.18.217-.27.064-.088.185-.234.27-.323.083-.088.215-.246.293-.35.079-.103.241-.294.362-.423.12-.129.245-.268.277-.31.123-.156.24-.293.332-.39l.199-.208c.057-.06.095-.11.083-.11-.011 0 .002-.02.03-.047.029-.026.095-.104.146-.173a.782.782 0 0 1 .148-.158c.062-.037.482-.5.656-.723.064-.083.15-.181.19-.218.091-.086.735-.783.996-1.08.11-.125.655-.693 1.213-1.263.557-.57 1.076-1.104 1.152-1.186.076-.081.293-.3.483-.485l1.006-.983c1.065-1.044 2.095-2.012 2.694-2.533.066-.057.26-.233.43-.389.17-.156.401-.362.512-.458l.447-.39a107.193 107.193 0 0 1 3.202-2.68 107.45 107.45 0 0 1 3.914-2.983c.168-.125.86-.619 1.095-.783a3.42 3.42 0 0 0 .299-.222c.008-.014.039-.025.067-.025.03 0 .053-.01.053-.025 0-.013.124-.108.276-.21.152-.102.37-.251.485-.332.115-.08.238-.165.273-.187.035-.022.12-.08.19-.128.069-.048.13-.087.138-.087.007 0 .155-.095.328-.211a65.321 65.321 0 0 1 2.016-1.284c.098-.06.254-.158.348-.22.093-.06.18-.115.192-.12.02-.01.294-.172.57-.34a22.1 22.1 0 0 1 .61-.357c.093-.052.186-.109.207-.126a.505.505 0 0 1 .104-.061c.037-.016.115-.06.174-.097.06-.037.133-.078.163-.09.03-.014.11-.06.176-.104.065-.044.204-.126.308-.182.31-.168.372-.203.485-.27.059-.035.18-.102.269-.148.089-.047.174-.095.189-.107a3.05 3.05 0 0 1 .215-.12c.104-.054.243-.13.31-.167.197-.11.616-.335.862-.46.125-.066.435-.225.686-.355a82.384 82.384 0 0 1 2.855-1.402c.407-.187.543-.25.647-.295.059-.026.213-.098.342-.16a2.79 2.79 0 0 1 .253-.111c.01 0 .074-.026.142-.057a18.86 18.86 0 0 1 .461-.205c.067-.03.243-.106.39-.168a11.6 11.6 0 0 0 .378-.165.61.61 0 0 1 .134-.052c.015 0 .064-.02.108-.043.045-.023.123-.058.175-.077.24-.088.534-.21.625-.258a.478.478 0 0 1 .135-.053c.019 0 .071-.02.116-.044a.894.894 0 0 1 .161-.064c.045-.012.183-.065.309-.118.125-.053.238-.097.25-.097a.686.686 0 0 0 .134-.054.583.583 0 0 1 .146-.054.744.744 0 0 0 .164-.057c.316-.14.361-.158.399-.158a.618.618 0 0 0 .154-.05c.063-.027.184-.075.27-.107l.296-.111a.92.92 0 0 1 .177-.055c.02 0 .074-.018.121-.04.11-.05.385-.148.49-.174a.725.725 0 0 0 .134-.049c.03-.015.302-.11.606-.208.303-.1.61-.204.683-.232a.817.817 0 0 1 .17-.052c.02 0 .179-.048.352-.107.172-.06.332-.108.355-.108a.331.331 0 0 0 .114-.038.725.725 0 0 1 .162-.055c.05-.01.165-.042.257-.071a40.511 40.511 0 0 1 1.448-.423c.104-.03.286-.08.404-.112l.364-.101c.081-.024.215-.058.296-.078.138-.032.257-.062.808-.2l.74-.183.378-.085c.148-.033.318-.071.377-.086.105-.027.296-.069.614-.136.114-.024.143-.038.108-.053-.028-.012-.01-.015.045-.006a.857.857 0 0 0 .256-.026c.1-.024.136-.041.095-.044-.058-.004-.054-.01.027-.029a.423.423 0 0 1 .16-.009c.098.022.564-.076.482-.102-.04-.013-.028-.015.037-.006.138.019.46-.046.368-.075-.044-.014-.03-.016.043-.008.06.007.205-.006.323-.027.119-.022.27-.048.337-.059.119-.018.12-.02.04-.04-.057-.014-.046-.016.04-.006.067.008.253-.01.418-.04.516-.093.77-.134 1.212-.197.324-.046.41-.066.35-.081-.052-.013-.03-.015.063-.008.198.016.617-.044.503-.072-.05-.012-.014-.015.094-.009.135.008.157.005.095-.014-.065-.02-.052-.022.067-.013.187.014.919-.08.781-.1-.052-.008-.01-.01.094-.003a3.02 3.02 0 0 0 .472-.03 5.64 5.64 0 0 1 .404-.045l.12-.005-.134-.02c-.109-.015-.096-.017.067-.01.3.014.815-.04.854-.09.027-.032.079-.037.27-.026.263.016 1.035-.033 1.016-.064-.027-.043.118-.056.51-.047.463.01 1.5-.033 1.377-.058l-.08-.016.093-.018c.259-.05 5.815-.016 5.67.035-.076.026.89.067 1.387.06.23-.005.46.003.512.017l.094.025-.08.006c-.045.003.1.021.322.04.223.02.497.028.61.02.216-.015.433.01.378.044-.045.028.616.083.844.07.153-.007.166-.005.067.011-.114.02-.116.022-.028.025.102.004.557.058 1.24.144.245.031.54.058.655.06.116 0 .183.01.149.018-.093.023.387.088.51.069.077-.012.088-.01.046.01-.04.02-.011.025.108.016.095-.007.134-.003.094.008-.083.025.36.096.486.077.044-.006.073-.005.065.003-.02.02.382.107.513.11.06.001.187.021.283.043.096.022.254.051.35.064.096.013.278.043.404.067l.525.098c.624.114 1.051.198 1.643.325.642.137.77.166.978.217.132.032.26.048.31.038.053-.01.072-.007.05.007-.046.03.321.124.4.104.03-.008.048-.006.042.005-.006.01.063.037.155.061.256.066.533.134.637.157.17.036.468.113.656.17.101.03.237.055.3.057.064 0 .105.01.09.018-.014.01.032.032.104.05.311.08.546.144.722.195.341.098.536.152.754.21a6.7 6.7 0 0 1 .296.086c.045.015.124.039.175.054a23.56 23.56 0 0 1 .89.265c.155.047.353.11.44.14.086.029.18.047.208.04.029-.007.046-.004.04.007-.014.02.561.217.637.217.025 0 .051.01.059.023a.407.407 0 0 0 .143.057c.07.018.167.05.214.071.047.021.126.046.175.055.05.009.113.03.142.044.03.015.108.043.175.062.068.02.293.097.5.173.207.075.413.148.458.161.044.013.165.056.27.095l.268.099c.113.039.387.143.674.255.133.053.309.12.39.15.082.03.205.078.275.105.07.028.16.053.202.056.042.003.083.017.092.03.01.013.075.035.146.048a.46.46 0 0 1 .175.065.279.279 0 0 0 .13.052c.045.006.11.03.144.053.033.024.079.043.101.043a.37.37 0 0 1 .122.042c.044.023.16.072.256.11.269.103.491.197.57.24a.32.32 0 0 0 .103.039c.028 0 .111.035.447.191.06.028.128.051.151.051.023 0 .057.018.076.04.018.023.06.04.094.04.033 0 .091.025.129.055a.25.25 0 0 0 .12.054.25.25 0 0 1 .122.054c.038.03.106.061.152.07a.234.234 0 0 1 .113.054c.017.02.046.037.066.037.02 0 .132.049.251.108.119.06.233.108.254.108.021 0 .07.024.107.053.037.03.087.054.11.054.022 0 .098.03.168.068.07.037.141.067.16.067.018 0 .04.018.049.04.009.023.038.04.067.04.028 0 .08.024.117.053.036.029.102.06.145.07.043.011.097.035.12.053a.36.36 0 0 0 .107.054c.037.01.085.035.108.054.022.018.07.043.107.053.037.011.086.036.108.054.022.019.07.043.108.054.037.011.085.035.107.054.023.019.071.043.108.055a.49.49 0 0 1 .132.07c.035.028.08.05.097.05.019 0 .048.017.065.038.017.02.073.045.125.055.051.01.093.028.093.041 0 .013.045.038.1.057a.571.571 0 0 1 .127.056c.078.064.237.157.269.157a.24.24 0 0 1 .1.047c.035.026.094.065.131.086.108.062.492.268.566.303a.682.682 0 0 1 .108.065c.022.018.113.071.201.118.09.048.21.115.27.15.06.035.144.083.188.106.045.023.13.07.189.107.06.036.144.084.188.107a3.621 3.621 0 0 1 .376.224c.069.048.14.088.156.088.017 0 .057.025.09.056.033.03.078.058.101.062a.228.228 0 0 1 .09.045c.111.09.225.16.26.16.02 0 .059.024.085.053.026.03.073.061.103.07.03.01.068.029.084.042.056.046.563.374.579.374.009 0 .085.048.17.107a1 1 0 0 0 .178.108c.013 0 .045.024.071.053.027.03.073.061.103.07.03.01.068.029.084.042.117.097.242.185.263.185.013 0 .039.013.057.028.018.015.093.066.167.114.074.047.147.095.162.107.18.14.241.182.27.182.02 0 .039.009.044.02.009.022.05.052.292.214.081.055.196.137.254.182.059.045.127.094.153.11.025.014.102.065.17.114a.853.853 0 0 0 .142.087c.01 0 .036.018.06.04.077.074.348.283.365.283.022 0 .973.712 1.065.798.038.035.084.064.101.064.018 0 .033.018.033.04 0 .023.018.04.041.04.023 0 .069.03.101.064.033.034.178.15.322.259.145.108.263.213.263.233 0 .02.021.037.047.037s.125.073.22.162c.095.089.183.162.197.162.013 0 .069.042.123.094.055.052.12.1.147.11.056.018.062.1.01.143-.074.062-11.742.027-11.81-.035a.786.786 0 0 0-.108-.081 12.897 12.897 0 0 1-.33-.217 4.304 4.304 0 0 0-.354-.222c-.04-.018-.081-.051-.09-.074-.01-.023-.044-.042-.078-.042s-.068-.018-.077-.04c-.009-.022-.028-.04-.044-.04a.295.295 0 0 1-.102-.05c-.28-.19-.416-.274-.448-.274-.02 0-.051-.018-.07-.041a1.13 1.13 0 0 0-.199-.136c-.09-.052-.212-.125-.272-.161a2.509 2.509 0 0 0-.175-.1.35.35 0 0 1-.08-.049.535.535 0 0 0-.095-.062 3.249 3.249 0 0 1-.161-.098 2.151 2.151 0 0 0-.175-.1 2.362 2.362 0 0 1-.222-.134.556.556 0 0 0-.167-.088c-.022 0-.046-.012-.055-.026a1.459 1.459 0 0 0-.22-.141 19.538 19.538 0 0 1-.302-.175 3.988 3.988 0 0 0-.18-.1 2.527 2.527 0 0 1-.259-.155.56.56 0 0 0-.141-.065c-.039-.01-.07-.027-.07-.038 0-.012-.046-.042-.101-.067a3.47 3.47 0 0 1-.398-.216 5.99 5.99 0 0 0-.296-.163 7.735 7.735 0 0 1-.296-.161 1.874 1.874 0 0 0-.175-.092.833.833 0 0 1-.108-.055 1.516 1.516 0 0 0-.121-.067 2.071 2.071 0 0 1-.121-.065 1.197 1.197 0 0 0-.108-.055 1.92 1.92 0 0 1-.175-.096c-.19-.117-3.177-1.604-3.222-1.603a.245.245 0 0 1-.112-.054.247.247 0 0 0-.107-.054.232.232 0 0 1-.104-.05.446.446 0 0 0-.163-.068c-.054-.01-.105-.035-.113-.056-.008-.021-.057-.047-.11-.056-.053-.01-.096-.028-.096-.04s-.04-.036-.091-.052a2.802 2.802 0 0 1-.276-.123 1.074 1.074 0 0 0-.226-.094.211.211 0 0 1-.095-.037.658.658 0 0 0-.165-.068c-.06-.016-.118-.048-.126-.07-.008-.022-.045-.04-.08-.04a.26.26 0 0 1-.133-.054.264.264 0 0 0-.135-.054.146.146 0 0 1-.1-.04.355.355 0 0 0-.145-.07c-.06-.016-.351-.065-.351-.065l-.17 6.715s-.15.009-.444.002c-.302-.007-.437.008-.437.008l-3.98-.08c-.035-.035-.042-.69-.053-4.462l-.014-4.296-.108-.029c-.059-.015-.344 0-.377-.02a.323.323 0 0 0-.134-.033.365.365 0 0 1-.157-.05.661.661 0 0 0-.21-.067.543.543 0 0 1-.188-.058.286.286 0 0 0-.14-.04.474.474 0 0 1-.183-.055.494.494 0 0 0-.188-.054.628.628 0 0 1-.205-.054.593.593 0 0 0-.183-.053.689.689 0 0 1-.193-.052 1.224 1.224 0 0 0-.242-.068.585.585 0 0 1-.161-.043c-.056-.033-.395-.126-.594-.162a1.408 1.408 0 0 1-.232-.063 1.211 1.211 0 0 0-.255-.056.916.916 0 0 1-.24-.057.45.45 0 0 0-.174-.038c-.056 0-.17-.023-.255-.05a1.95 1.95 0 0 0-.316-.07.894.894 0 0 1-.234-.058.463.463 0 0 0-.178-.037.967.967 0 0 1-.25-.05 1.893 1.893 0 0 0-.371-.068 1.421 1.421 0 0 1-.32-.058.64.64 0 0 0-.206-.04c-.06 0-.196-.02-.3-.043a4.29 4.29 0 0 0-.444-.067 1.734 1.734 0 0 1-.323-.054 2.545 2.545 0 0 0-.428-.055 2.314 2.314 0 0 1-.411-.052c-.06-.032-.823-.078-.979-.059-.119.015-.119.004 0-.06l.08-.043-.093.015c-.1.015-.839.15-1.186.216-.472.09-1.207.249-1.629.352-.198.048-.31.102-.31.149 0 .015.01.022.02.015.012-.007.015 2.632.007 5.863l-.003 6.107-3.77.007c-3.521.006-3.773.004-3.804-.039-.027-.036-.045-1.24-.045-4.877 0-3.662-.006-4.6-.033-4.602-.02 0-.01-.019.02-.043.082-.064-.212.033-.539.18-.059.026-.186.08-.283.12-.25.102-.264.108-.457.196-.097.044-.236.108-.31.14l-.377.176-.539.255c-.283.134-1.914.949-2.324 1.161-.173.09-.546.294-.921.505l-.216.118a6.958 6.958 0 0 0-.202.114c-.059.035-.159.09-.221.122a2.562 2.562 0 0 0-.202.118 2.002 2.002 0 0 1-.156.093c-.037.02-.116.064-.175.1-.06.035-.144.083-.188.106-.045.023-.13.071-.189.109l-.279.168c-.094.056-.198.12-.233.142-.034.022-.14.085-.235.14a1.212 1.212 0 0 0-.208.141c-.02.023-.047.042-.062.042a.86.86 0 0 0-.179.098l-.245.157c-.192.122-.554.356-.63.406a4.045 4.045 0 0 1-.162.102 2.02 2.02 0 0 0-.183.128.488.488 0 0 1-.12.078.87.87 0 0 0-.164.108 1.14 1.14 0 0 1-.157.108c-.008 0-.07.04-.138.087a10.09 10.09 0 0 1-.354.243c-.061.04-.112.087-.112.103 0 .015-.009.022-.02.015-.011-.007-.017 3.071-.013 6.84.007 6.828.012 7.292.012 7.292-.085-.009-11.944.088-12.04.028-.034-.022-.1-.612-.106-1.895l-.008-1.482-.057.01c-.059.008-.183.14-.184.194 0 .015-.04.064-.087.107-.077.07-.081.071-.034.01.104-.131-.18.179-.707.776-.033.037-.052.08-.043.096.01.015.005.02-.01.01-.016-.01-.096.064-.178.164-.082.1-.2.236-.262.303s-.208.236-.324.377c-.212.256-.549.658-.701.835-.12.14-1.127 1.381-1.236 1.524l-.43.55c-.186.236-.434.557-.553.715l-.377.5a28.91 28.91 0 0 0-.283.378l-.208.282c-.048.064-.08.134-.072.155.008.02.002.046-.014.056-.018.01-.022 0-.01-.029.034-.091-.042-.009-.18.193-.075.111-.13.216-.119.232.011.019.007.023-.011.012-.018-.01-.058.025-.098.088a.592.592 0 0 1-.096.124c-.016.01-.022.04-.013.068.008.027.003.057-.012.066-.017.01-.022-.002-.011-.031.014-.042.009-.041-.042.007a.214.214 0 0 0-.063.112c-.003.032-.013.052-.023.046-.01-.006-.038.018-.062.055-.05.078-.055.105-.012.079.02-.012.024-.007.012.012-.011.017-.03.025-.044.017-.032-.02-.116.112-.094.148.01.015.003.025-.014.021-.03-.007-.34.413-.524.71-.015.025-.097.148-.182.273-.155.228-.182.282-.124.246.02-.012.024-.007.012.012-.01.018-.03.025-.043.017-.035-.021-.116.113-.092.152.012.02.008.025-.011.013-.02-.012-.06.03-.105.106-.041.07-.105.166-.142.214-.037.049-.1.142-.14.206-.094.15-.12.19-.245.38-.056.086-.094.17-.083.187.012.02.006.023-.017.009-.026-.017-.031-.01-.018.024.01.025.007.04-.007.03-.014-.007-.044.012-.067.046-.05.072-.055.112-.009.086.02-.012.025-.01.012.005a.083.083 0 0 1-.054.024c-.016 0-.043.024-.058.054-.016.03-.083.142-.15.25a5.81 5.81 0 0 0-.147.25c-.014.028-.035.052-.047.052-.011 0-.02.02-.02.042 0 .025.012.034.03.023.02-.012.025-.007.012.012-.01.018-.029.026-.041.018-.034-.02-.086.056-.077.112.005.027-.006.046-.024.043-.043-.008-.097.092-.072.132.01.017.007.023-.008.014-.035-.021-.125.135-.1.174.01.017.007.024-.008.015-.014-.01-.08.076-.145.189a15.7 15.7 0 0 1-.18.301c-.032.053-.08.133-.104.178a.946.946 0 0 1-.078.12c-.052.062-.081.174-.039.148.022-.014.027-.01.015.01-.011.018-.03.026-.042.019-.031-.02-.09.058-.075.099.013.035-.05.183-.077.183-.007 0-.005-.016.006-.034.01-.019-.005-.013-.034.013-.052.045-.692.048-12.636.048H2.253Z" style="fill:url(#b)" transform="translate(2.323 2.242)"/>
  <path d="m31.68 31.827.026.027-.026-.027M20.825 19.76c.014.067.016.07.08.055v-.027l-.08-.027M20.933 19.734l.027.027-.027-.027M20.879 19.653l-.027.08.027-.08M21.013 19.626l.027.027-.027-.027M67.419 18.657v.134h.027l-.027-.134M48.027 29.16V17.445c0-.398.086-.912-.027-1.293-.366.139-.71.482-1.023.717-.721.54-1.43 1.097-2.128 1.668-1.674 1.373-3.258 2.826-4.821 4.32-.694.664-1.403 1.327-2.04 2.048-.302.344-.86.724-1.028 1.158-.057.147-.002.406-.002.566v2.181c0 .086-.026.237.047.301.114.102.58.023.734.023H47.11c.296 0 .628-.042.916.026M66.419 18.65l-.027-11.554c-.483.04-.989.26-1.454.392-1.174.335-2.33.728-3.475 1.151-.396.147-.796.29-1.185.457-.13.057-.357.114-.437.24-.063.101-.02.31-.02.426V18.354c0 .083-.023.214.043.28.108.108.388.022.522.017.457-.017.917-.001 1.374-.001M70.615 6.411l.018.01-.018-.01" style="fill:#134c6b;stroke:none" transform="translate(2.323 2.242)"/>
  <path d="M71.035 6.137v.027c1.33.056 2.647.313 3.95.557 1.036.195 2.099.411 3.1.737.496.161 1.012.276 1.51.435.15.048.43.069.52.216.076.123.028.367.028.506v7.541c0 .124-.057.432.064.511.081.054.227.028.32.028h.823c1.007 0 2.042-.068 3.046 0l.027-9.696h.906l.054 3.017c.321.054.638.238.933.368.568.25 1.135.503 1.701.758 2.146.97 4.225 2.073 6.283 3.211.69.383 1.395.77 2.058 1.197.202.131.572.258.685.472.437.031.744.584 1.18.64.846.112 1.78.006 2.634.006h7.929c.389 0 .889.081 1.262-.027-.21-.256-.52-.46-.785-.659-.5-.376-.984-.77-1.492-1.138a61.141 61.141 0 0 0-5.405-3.504c-1.99-1.142-4.045-2.207-6.173-3.08-1.005-.413-1.999-.855-3.045-1.16-.852-.25-1.738-.382-2.607-.559-3.288-.668-6.588-.961-9.931-1.105-2.086-.09-4.181.035-6.256.239-1.074.105-2.286.14-3.32.462" style="fill:#134c6b;stroke:none;stroke-width:1.00928" transform="translate(2.323 2.242)"/>
</svg>
