<svg xmlns="http://www.w3.org/2000/svg" viewBox="0 0 132.292 39.688">
  <g transform="matrix(.93942 0 0 .93942 63.909 9.335)">
    <ellipse cx="-7.557" cy="11.746" rx="15.309" ry="16.564" style="fill:#479047;fill-opacity:1;fill-rule:evenodd;stroke:none;stroke-width:.265609"/>
    <path d="M-2.637-3.696c-.207 0-.485.232-.649.694-.279.785-.128 1.138.589 1.373.224.073.505.194.625.268.12.074.405.194.633.266.575.183.84.5.84 1.005 0 .761-.223.857-2.385 1.024-1.33.103-1.375.166-1.285 1.758.161 2.818.501 3.316 1.893 2.776C-.878 4.887.16 5.243-.093 6.25c-.06.239-.434.64-1.634 1.757-.783.728-.47 1.405 1.633 3.528 1.02 1.03 1.038 1.022 2.694-1.167 1.202-1.59 1.958-.219 1.313 2.38l-.173.694.274.274c.204.203.495.314 1.13.43.472.085 1.078.196 1.348.246.746.136.76.134.89-.15.212-.468.082-.548-1.122-.69-1.62-.191-1.68-.303-1.274-2.427.3-1.566.41-1.383-1.404-2.335-.517-.27-.79-.136-1.379.68-1.255 1.74-1.477 1.832-2.326.955-1.31-1.353-1.307-1.686.03-2.965 1.158-1.11 1.126-1.016.716-2.083-.344-.898-.65-1.266-.991-1.192-2.748.596-2.974.518-3.096-1.07-.099-1.28.113-1.476 1.702-1.563C-.282 1.47.032 1.219.13.037c.102-1.233.086-1.258-1.193-1.87C-2.32-2.436-2.51-2.6-2.41-3.004c.116-.462-.02-.693-.228-.693zM3.28.364c-.125.012-.244.275-.32.836-.304 2.27.783 4.317 2.877 5.417.504.265 1.002.192.962-.14-.027-.227-.18-.362-.743-.66-1.51-.795-2.188-1.875-2.282-3.637C3.712 1.02 3.488.344 3.28.364Zm-17.527 2.63c-.87.016-1.689.128-2.143.35l-.409.2.025 1.09c.013.6.079 1.452.145 1.893.275 1.827-1.26 2.459-2.222.913-1.09-1.753-1.559-2.415-1.746-2.464-.291-.076-.712.141-.796.412a2.397 2.397 0 0 1-.282.528c-.217.308-.175.615.058.427.66-.53 1.121-.171 2.51 1.961.749 1.148.946 1.233 1.77.765.116-.066.413-.17.66-.232 1.049-.261 1.196-.68.86-2.44-.433-2.26-.312-2.417 1.858-2.417 2.32 0 2.576.384 2.058 3.076-.25 1.301-.186 1.457.79 1.895 1.658.743 1.84.708 2.59-.505 1.419-2.3 1.55-2.39 2.539-1.723 1.994 1.345 2.018 1.478.607 3.366-1.43 1.913-1.416 2.599.088 4.039l.305.293.746-.3c2.013-.812 2.759-1.022 2.949-.832.527.527.973 2.575.753 3.453-.108.429-.774.675-2.171.804-1.6.147-1.847.421-1.992 2.214l-.076.944.424.275c.232.152.62.327.86.39s.63.214.868.336c.237.121.5.22.583.22.813 0 1.302.699 1.06 1.513-.786 2.636-1.232 2.797-3.548 1.274-1.162-.764-1.411-.796-1.765-.226-.04.066-.323.43-.627.812-.601.751-.677 1.077-.362 1.55l.485.725c.162.242.358.466.436.499.635.263.724-.093.198-.798-.543-.728-.554-1.028-.06-1.606.598-.698.745-.68 2.522.31 1.97 1.098 2.38 1.004 2.787-.635.072-.29.191-.625.266-.745.074-.12.188-.478.254-.796.066-.318.194-.72.284-.894.48-.928-.474-1.664-2.812-2.173-.619-.135-.843-.392-.843-.964 0-1.12.293-1.336 2.11-1.557.55-.067 1.22-.231 1.565-.383l.602-.267-.053-.464c-.115-.995-.327-2.028-.579-2.824-.145-.457-.263-.902-.263-.988 0-.33-.565-1.29-.76-1.29-.227 0-.876.273-2.234.94-1.204.59-1.35.594-1.848.042-.708-.784-.542-1.264 1.132-3.28.278-.335.616-.788.752-1.008l.247-.4-.232-.327c-.128-.18-.297-.364-.377-.41-.08-.046-.457-.362-.84-.7-1.014-.901-2.287-1.839-2.495-1.839-.156 0-.872.936-.872 1.14 0 .244-1.262 1.936-1.6 2.145l-.397.245-.585-.306c-.704-.369-.753-.511-.599-1.722.174-1.36.241-2.739.142-2.897-.265-.422-1.852-.656-3.3-.628zm.211 9.708c-2.35-.01-4.69 1.407-5.384 4.46-.18.798-.362.937-1.218.942-.723.004-.855.089-.755.487.326 1.297 2.398.512 2.597-.984.6-4.527 6.756-5.69 8.933-1.687 2.761 5.076-3.251 10.34-7.41 6.489-.751-.695-1.16-.866-1.286-.539-.268.698 2.214 2.48 3.724 2.675 3.41.437 6.49-2.387 6.49-5.952 0-3.793-2.854-5.88-5.69-5.891z" style="fill:#fdfdfd;stroke-width:.4939219;stroke-dasharray:none;stroke:#fff;stroke-opacity:1;stroke-linecap:butt;stroke-linejoin:bevel;paint-order:stroke markers fill"/>
    <path d="M-48.32 29.197c-.678-.038-1.443-.14-1.698-.228-.254-.087-.784-.192-1.177-.233-.393-.042-.823-.147-.955-.234-.133-.087-.457-.198-.72-.247-.262-.05-.554-.158-.646-.243-.093-.084-.329-.183-.523-.22a1.928 1.928 0 0 1-.61-.246 2.248 2.248 0 0 0-.516-.254 1.41 1.41 0 0 1-.4-.194 4.44 4.44 0 0 0-.533-.322c-1.315-.693-3.658-2.757-4.264-3.757-.318-.525-.57-.893-.703-1.03-.083-.085-.225-.316-.314-.514a5.223 5.223 0 0 0-.264-.515c-.288-.442-1.12-2.37-1.173-2.715-.033-.22-.128-.474-.21-.566-.082-.092-.182-.492-.222-.888a7.282 7.282 0 0 0-.284-1.338c-.29-.853-.317-6.79-.033-7.34.094-.181.221-.711.284-1.178.063-.468.18-.957.261-1.088.081-.13.19-.496.241-.812.051-.316.164-.652.25-.747.086-.095.186-.331.224-.526a3.07 3.07 0 0 1 .31-.774c.133-.232.242-.495.242-.585 0-.09.066-.23.146-.31.081-.08.232-.309.335-.508.104-.198.327-.56.497-.803.338-.485.513-.74.82-1.193.628-.929 3.24-3.438 3.578-3.438.063 0 .19-.067.281-.15.265-.24 1.32-.776 1.527-.776.103 0 .345-.116.537-.258.192-.141.43-.257.529-.257.1 0 .398-.116.664-.257.267-.142.576-.258.689-.258.112 0 .348-.087.525-.195.176-.107.605-.227.952-.266.348-.039.765-.14.927-.226.926-.488 7.14-.507 8.228-.025.23.102.67.217.978.256.307.039.698.151.868.25.17.1.507.21.75.247.243.036.613.158.822.27.21.112.497.205.64.206.142.002.46.094.707.206.87.395 1.671.082 2.039-.798.142-.342.745-.5.907-.238.106.172.243 10.851.141 11.045-.22.419-.836-.163-.964-.91a1.971 1.971 0 0 0-.256-.67c-.103-.147-.22-.494-.26-.772-.04-.277-.155-.644-.255-.813-.1-.17-.214-.457-.252-.637-.038-.18-.133-.38-.212-.445-.078-.065-.197-.289-.264-.497-.067-.207-.208-.46-.314-.561-.106-.102-.192-.249-.192-.327 0-.078-.116-.28-.258-.448-.141-.169-.257-.359-.257-.423 0-.065-.071-.145-.158-.178-.087-.034-.222-.183-.3-.331-.168-.324-1.306-1.509-1.793-1.868-.19-.141-.498-.383-.683-.54-.185-.155-.38-.282-.435-.282-.054 0-.183-.093-.285-.206-.103-.113-.242-.206-.31-.206s-.344-.117-.613-.26c-1.076-.573-6.079-.614-6.994-.058a2.488 2.488 0 0 1-.643.261c-.178.038-.405.159-.504.269-.1.11-.232.2-.294.202-.121.002-.924.524-1.188.772-.809.76-1.811 1.796-1.94 2.005a50.402 50.402 0 0 1-1.203 1.802c-.198.283-.36.554-.361.602-.001.049-.118.226-.26.394-.14.169-.257.39-.257.49 0 .102-.09.299-.199.438-.11.14-.232.389-.27.554-.04.166-.154.44-.256.61-.1.17-.216.494-.255.72-.04.227-.14.522-.225.656-.084.134-.214.597-.29 1.03-.074.431-.204.97-.287 1.197-.439 1.194-.395 8.8.055 9.676.088.17.193.61.234.978.04.368.162.814.269.99.107.177.195.428.195.558 0 .21.469 1.333.729 1.746.053.085.189.34.3.566.326.66.59 1.09.818 1.332.116.124.212.262.212.307 0 .116.937 1.25 1.566 1.896.523.536 1.493 1.252 1.697 1.252.056 0 .185.092.287.204.101.112.351.234.556.27.204.036.51.15.68.25.17.102.495.22.721.261.227.042.576.161.777.266.933.484 6.344.477 7.146-.01.172-.104.52-.223.776-.265.254-.04.579-.155.72-.254.142-.098.425-.21.63-.246.204-.038.454-.16.556-.272.101-.112.242-.204.313-.204.508 0 2.722-2.523 2.722-3.102 0-.078.11-.35.245-.604a3.91 3.91 0 0 0 .32-.823c.041-.198.141-.435.221-.526.08-.092.19-.437.244-.767.296-1.817.995-2.282.95-.631-.019.68-.078 1.086-.18 1.243-.085.129-.204.506-.265.839-.062.333-.179.7-.26.815-.081.116-.198.394-.258.619-.06.224-.199.52-.306.657-.108.137-.196.305-.196.374 0 .068-.093.208-.206.31-.114.103-.207.238-.207.3-.002.328-2.481 2.633-3.003 2.791-.131.04-.331.155-.445.256-.113.1-.353.214-.533.252-.18.038-.38.133-.445.211-.065.079-.366.194-.669.257-.302.063-.602.177-.666.253-.063.077-.403.172-.754.213-.351.04-.847.154-1.102.253-.545.212-3.563.325-5.61.21zm76.434.005c-.797-.044-1.423-.132-1.647-.231-.198-.088-.684-.192-1.08-.23-.397-.04-.826-.14-.955-.224-.129-.084-.5-.202-.824-.26-.324-.06-.659-.17-.744-.246-.085-.076-.293-.172-.463-.213a1.73 1.73 0 0 1-.545-.258c-.13-.1-.369-.212-.53-.248a1.05 1.05 0 0 1-.474-.264c-.1-.11-.267-.2-.371-.2-.105 0-.274-.081-.377-.18-.223-.215-1.132-.85-1.216-.85-.29 0-2.052-1.78-2.561-2.585a8.886 8.886 0 0 0-.481-.703c-.156-.178-.41-.622-.687-1.204-.112-.234-.25-.455-.308-.49-.056-.035-.135-.21-.174-.389a3.922 3.922 0 0 0-.317-.786c-.135-.254-.246-.553-.246-.666 0-.112-.087-.348-.194-.525-.106-.176-.227-.597-.267-.935a5.402 5.402 0 0 0-.268-1.108c-.402-1.018-.365-8.094.045-8.884.09-.172.193-.589.23-.927.038-.337.15-.753.25-.922.098-.17.212-.495.252-.721.04-.227.156-.55.259-.72.102-.17.22-.472.262-.67.042-.198.163-.47.268-.606.106-.135.193-.317.193-.406 0-.088.116-.337.257-.552l.515-.783c.141-.216.257-.447.257-.515s.048-.123.107-.123.192-.197.297-.438c.245-.56 1.153-1.557 2.839-3.114.345-.318 1.154-.875 1.272-.875.058 0 .166-.08.24-.18.128-.17 1.374-.849 1.56-.849.048 0 .204-.093.348-.206.144-.113.365-.206.492-.206.126 0 .342-.089.48-.197.138-.109.434-.23.657-.27a2.59 2.59 0 0 0 .716-.254c.17-.1.586-.215.925-.255.34-.04.78-.155.978-.253.964-.478 7.182-.481 8.3-.004.234.1.672.215.974.257.302.041.667.158.81.259.145.1.445.215.669.253.223.038.52.158.657.267.138.109.331.197.43.197.097 0 .3.097.45.215.768.604 2.462.505 2.964-.173.748-1.011.652-.938.979-.743l.29.173.063 2.091c.035 1.15.07 3.586.077 5.412l.014 3.32h-.249c-.302 0-.626-.48-.732-1.081a2.543 2.543 0 0 0-.258-.721 2.518 2.518 0 0 1-.256-.696c-.04-.213-.152-.49-.25-.617a1.712 1.712 0 0 1-.254-.54c-.042-.17-.138-.378-.214-.463-.076-.085-.284-.43-.46-.767-.443-.84-.804-1.414-1.291-2.044a7.24 7.24 0 0 1-.567-.835c-.135-.266-.89-.955-1.864-1.704a6.365 6.365 0 0 0-1.222-.735c-.142-.062-.46-.202-.706-.312-1.09-.484-6.156-.476-7.113.012-.224.115-.468.21-.541.21-.13.002-.912.482-1.214.745a8.48 8.48 0 0 1-.614.44c-.54.359-1.584 1.396-2.076 2.063-.19.257-.54.712-.775 1.01-.236.299-.502.702-.59.895a5.77 5.77 0 0 1-.508.818c-.19.256-.407.65-.48.875a3.584 3.584 0 0 1-.264.616c-.07.113-.161.368-.201.566-.04.198-.156.499-.259.669-.102.17-.219.494-.259.72-.04.227-.153.551-.253.721-.099.17-.21.578-.246.907-.036.329-.14.71-.23.849-.109.165-.194.641-.25 1.386-.045.624-.144 1.308-.22 1.519-.189.535-.189 4.246 0 4.781.076.211.175.895.22 1.519.055.732.142 1.222.246 1.38.088.136.192.495.23.798.04.304.18.788.315 1.077.134.288.244.595.244.68 0 .087.086.268.192.403.106.135.227.407.269.605.041.199.163.505.27.682.108.176.196.385.197.463.002.132.278.593.844 1.406 1.009 1.45 2.331 2.863 2.768 2.96.165.035.347.154.405.262.058.109.156.198.216.198s.248.116.416.257c.168.142.389.258.49.258.101 0 .305.095.452.21.148.117.49.274.76.351.271.077.7.217.954.312.657.244 4.1.194 4.392-.064.105-.093.353-.203.551-.245.372-.079 1.365-.57 1.644-.813.086-.076.297-.209.466-.295.561-.284 1.797-1.625 1.952-2.117a1.29 1.29 0 0 1 .272-.438.781.781 0 0 0 .196-.48c0-.157.104-.47.231-.695.35-.62.35-3.594-.002-4.215-.126-.224-.23-.458-.23-.519 0-.544-1.783-1.716-2.882-1.895-.368-.06-.9-.153-1.184-.21a28.507 28.507 0 0 0-.9-.16c-.411-.064-.55-.378-.224-.503.417-.16 15.868-.066 16.003.097.272.327-.552.684-1.982.856-.54.065-.881.165-1.069.312-.151.12-.328.217-.393.217-.237 0-.878.905-.987 1.393-.06.267-.165.584-.234.704-.088.153-.141 1.187-.177 3.461l-.052 3.243-.308-.028c-1.337-.121-1.659-.048-2.625.593-.255.17-.655.397-.89.506-.234.11-.455.245-.49.302-.035.057-.2.134-.367.17-.166.037-.409.15-.539.25-.13.1-.375.217-.545.258-.17.041-.38.138-.465.216-.085.077-.441.186-.79.242-.35.056-.743.171-.875.255-.13.084-.562.185-.959.225-.396.04-.975.156-1.286.258-.661.218-3.798.327-5.97.208zm-37.119-.104a2.074 2.074 0 0 1-.415-.136c-.054-.033-.579-.113-1.167-.178-.645-.07-1.225-.197-1.46-.316-.214-.11-.472-.2-.573-.2-.102 0-.416-.115-.7-.254-.282-.14-.611-.255-.73-.256-.119-.002-.326-.1-.462-.217a1.374 1.374 0 0 0-.525-.27.972.972 0 0 1-.455-.25c-.096-.106-.222-.193-.278-.193-.057 0-.247-.11-.422-.243a2.34 2.34 0 0 0-.55-.315c-.127-.04-.232-.113-.232-.16 0-.048-.266-.27-.592-.492-.786-.537-2.165-1.96-3.07-3.165a123.44 123.44 0 0 0-.459-.606c-.168-.22-.305-.448-.305-.507 0-.058-.074-.188-.164-.287-.182-.201-.44-.646-.748-1.291-.112-.234-.25-.455-.307-.49-.057-.035-.135-.214-.174-.398a2.544 2.544 0 0 0-.254-.642c-.101-.17-.235-.553-.297-.852-.063-.299-.179-.646-.259-.772-.086-.137-.173-.685-.216-1.361-.04-.623-.143-1.318-.229-1.544-.273-.72-.301-3.344-.047-4.335.115-.447.24-1.252.279-1.79.039-.538.135-1.08.214-1.207.08-.125.195-.473.258-.772.062-.299.195-.682.295-.852.1-.17.213-.444.252-.61.04-.165.161-.414.271-.554.11-.14.2-.33.2-.425 0-.095.115-.33.257-.521.141-.192.257-.39.257-.439 0-.05.116-.241.258-.427.141-.186.257-.366.257-.4 0-.035.119-.193.264-.35.336-.366.402-.446 1.098-1.318.71-.892 2.004-2.166 2.755-2.714.312-.227.636-.48.721-.56a1.2 1.2 0 0 1 .412-.225c.141-.042.35-.158.463-.258.113-.1.322-.217.463-.26.142-.043.368-.164.503-.27.135-.105.38-.191.545-.191.165 0 .518-.116.783-.257.266-.142.579-.258.694-.258.116 0 .388-.09.605-.2.217-.11.724-.231 1.128-.268a13.308 13.308 0 0 0 1.397-.214c1.235-.274 2.041-.29 3.152-.057.563.117 1.346.243 1.739.28.392.038.878.156 1.079.264.2.107.486.195.634.195.148 0 .487.116.753.258.267.141.57.257.676.257.106 0 .485.162.844.361.359.198.849.452 1.09.562.24.111.437.243.437.292 0 .05.104.145.232.212.234.123.758.483 1.183.813.494.384 1.706 1.624 1.966 2.012l.437.652c.09.134.329.428.53.653.203.225.5.62.66.879.162.258.393.625.515.815.122.19.255.454.297.588.042.133.162.352.268.487.105.135.191.325.191.423 0 .097.116.394.258.66.141.266.259.61.26.762.002.153.118.51.257.792.139.283.253.667.254.853 0 .186.102.626.227.978.314.89.355 6.177.052 6.739-.1.184-.224.67-.277 1.08-.052.411-.19.93-.306 1.155-.115.224-.21.511-.21.638s-.116.448-.257.714c-.142.266-.258.568-.258.67 0 .103-.086.27-.193.371a1.21 1.21 0 0 0-.271.442 1.882 1.882 0 0 1-.27.503c-.106.135-.192.288-.192.341 0 .053-.116.248-.257.433-.142.186-.258.384-.258.44 0 .057-.094.215-.21.351-.482.568-1.23 1.567-1.23 1.641 0 .109-1.631 1.747-1.739 1.747-.047 0-.395.231-.774.514-.379.284-.714.515-.746.515-.032 0-.195.116-.364.257-.168.142-.364.258-.436.258-.072 0-.21.088-.308.196a1.05 1.05 0 0 1-.446.264 1.683 1.683 0 0 0-.52.267c-.14.11-.315.2-.39.2-.074 0-.352.115-.619.257-.266.141-.605.257-.753.257-.148 0-.438.09-.645.202-.241.129-.758.24-1.44.31-.585.06-1.29.178-1.569.262-.527.159-2.024.191-2.592.055zm3.428-1.648c.238-.108.655-.228.926-.267.272-.038.632-.133.802-.21.17-.078.518-.21.772-.292 1.617-.522 1.751-.586 3.12-1.47 1.535-.994 3.298-2.718 4.253-4.16.248-.374.45-.74.45-.815 0-.074.063-.208.14-.297.282-.33 1.092-2.012 1.344-2.79.082-.253.22-.646.306-.873.087-.226.16-.573.163-.772.003-.198.125-.615.272-.926.487-1.037.449-4.67-.066-6.313-.11-.35-.2-.876-.2-1.17-.002-.372-.081-.684-.26-1.02-.141-.266-.257-.539-.257-.607 0-.067-.09-.204-.2-.304-.11-.1-.23-.32-.268-.49-.038-.171-.233-.618-.434-.994l-.503-.94c-.076-.142-.138-.29-.138-.33 0-.075-.405-.674-.925-1.369A7.006 7.006 0 0 1 3.3.424C3.24.31 3.028.102 2.828-.04a19.72 19.72 0 0 1-1.1-.9c-.641-.56-1.25-.998-2.853-2.05-.202-.133-.418-.24-.481-.24-.064 0-.247-.11-.407-.244-.342-.286-1.122-.545-2.195-.728a18.57 18.57 0 0 1-1.436-.312c-.846-.23-3.913-.183-4.586.07a5.127 5.127 0 0 1-.926.224c-.59.079-1.925.604-2.934 1.154-.142.077-.405.21-.584.295-.18.084-.543.305-.807.49s-.6.416-.748.512c-.474.31-1.914 1.658-2.452 2.295-.907 1.074-1.507 1.984-2.304 3.496-.238.45-.517.926-.62 1.058-.104.132-.22.42-.257.642-.037.222-.134.458-.214.524-.081.068-.15.312-.153.547-.007.523-.111 1.101-.392 2.184-.297 1.143-.286 5.037.015 5.369.103.114.245.56.328 1.034.08.458.219.972.307 1.142.088.17.16.499.16.729 0 .399.525 1.543.75 1.636.05.02.18.229.291.463.274.582.59 1.083 1.022 1.62.34.425.524.678.937 1.3.84 1.26 4.325 3.94 5.125 3.94.112 0 .42.116.686.258.267.141.559.258.65.26.09.002.396.117.679.257.337.165.692.253 1.03.254.283 0 .677.05.875.11 1.103.333 3.549.392 4.19.101zm58.138.779c-.296-.217-.05-.434.586-.519.29-.038.649-.13.796-.205.147-.074.452-.168.679-.207.836-.147 2.34-1.49 2.454-2.191.032-.2.142-.455.243-.567.176-.194.185-.855.185-13.344v-13.14l-.232-.408c-.127-.224-.231-.464-.231-.533 0-.424-1.043-1.615-1.624-1.855-.21-.087-.461-.227-.556-.311-.109-.097-.538-.185-1.166-.239-1.115-.095-1.404-.265-1.139-.669.216-.33 15.654-.323 15.873.007.263.397-.013.58-1.001.663-1.435.12-3.49 1.573-3.49 2.469 0 .087-.104.343-.232.569l-.231.41v25.855l.224.506c.124.279.25.622.281.764.05.228.359.599.96 1.153.45.416 1.045.742 1.571.863.312.071.752.2.978.288.227.086.51.16.631.162.355.007.539.303.298.479-.292.213-15.565.213-15.857 0z" style="fill:#000;stroke-width:.46607"/>
  </g>
</svg>
