<?xml version="1.0" encoding="UTF-8" standalone="no"?>
<!-- Created with Inkscape (http://www.inkscape.org/) -->

<svg
   width="500"
   height="150"
   viewBox="0 0 132.29166 39.6875"
   version="1.1"
   id="svg1"
   inkscape:version="1.4 (86a8ad7, 2024-10-11)"
   sodipodi:docname="cogi.svg"
   xmlns:inkscape="http://www.inkscape.org/namespaces/inkscape"
   xmlns:sodipodi="http://sodipodi.sourceforge.net/DTD/sodipodi-0.dtd"
   xmlns="http://www.w3.org/2000/svg"
   xmlns:svg="http://www.w3.org/2000/svg">
  <sodipodi:namedview
     id="namedview1"
     pagecolor="#ffffff"
     bordercolor="#111111"
     borderopacity="1"
     inkscape:showpageshadow="0"
     inkscape:pageopacity="0"
     inkscape:pagecheckerboard="1"
     inkscape:deskcolor="#d1d1d1"
     inkscape:document-units="px"
     inkscape:zoom="1.1111933"
     inkscape:cx="242.98202"
     inkscape:cy="158.38828"
     inkscape:window-width="1920"
     inkscape:window-height="1115"
     inkscape:window-x="-9"
     inkscape:window-y="-9"
     inkscape:window-maximized="1"
     inkscape:current-layer="layer1" />
  <defs
     id="defs1" />
  <g
     inkscape:label="Layer 1"
     inkscape:groupmode="layer"
     id="layer1"
     transform="matrix(0.93941975,0,0,0.93941975,63.908839,9.3354705)">
    <ellipse
       style="fill:#479047;fill-opacity:1;fill-rule:evenodd;stroke:none;stroke-width:0.265609"
       id="path49"
       cx="-7.5573869"
       cy="11.745963"
       rx="15.309186"
       ry="16.564039" />
    <path
       id="path56"
       style="fill:#fdfdfd;stroke-width:0.4939219;stroke-dasharray:none;stroke:#ffffff;stroke-opacity:1;stroke-linecap:butt;stroke-linejoin:bevel;paint-order:stroke markers fill"
       d="m -2.6370644,-3.6956042 c -0.2073023,2.176e-4 -0.4846428,0.2315245 -0.6488215,0.6937439 -0.2789352,0.7852908 -0.1277718,1.1375347 0.5888402,1.3724223 0.2239926,0.073416 0.5053337,0.1942981 0.6253363,0.2685137 0.1199975,0.074215 0.4045937,0.1939233 0.6324823,0.2662126 0.5747292,0.18232514 0.84025057,0.49967783 0.84025057,1.00436967 0,0.76134655 -0.22270804,0.85697393 -2.38521397,1.02453097 -1.3292391,0.10299186 -1.3753016,0.16595626 -1.2843668,1.75808906 0.1609287,2.817699 0.5009573,3.3162063 1.8928556,2.7759874 1.49770997,-0.5812835 2.53548313,-0.2257157 2.28261142,0.7817994 -0.05992438,0.2387403 -0.4337296,0.640771 -1.63378992,1.7570724 -0.7827226,0.7280901 -0.4693264,1.4052577 1.6325105,3.5276678 1.02016989,1.030156 1.03831638,1.022194 2.694313,-1.166958 1.2020946,-1.5891203 1.9582793,-0.218426 1.3126976,2.379345 l -0.1725455,0.694504 0.2741304,0.273874 c 0.2033655,0.203365 0.4948425,0.314137 1.1304566,0.429823 0.4710351,0.08573 1.0774097,0.196703 1.3474103,0.246308 v -2.58e-4 C 7.2379799,14.528486 7.2516616,14.526238 7.3813445,14.241618 7.594204,13.774439 7.4639839,13.694336 6.2598226,13.552216 4.639132,13.360936 4.5803408,13.248782 4.9859224,11.1254 5.2852119,9.5585062 5.3952869,9.7419425 3.581592,8.7902109 3.0650964,8.5191825 2.7914454,8.6541802 2.2032964,9.4699118 0.94814028,11.210749 0.72614293,11.301674 -0.12320974,10.424766 -1.4331173,9.0723417 -1.4298571,8.7385368 -0.09362585,7.4596473 1.0650145,6.3507504 1.0329687,6.4441105 0.62334231,5.3766336 0.27877413,4.4786987 -0.02712926,4.1109072 -0.36826383,4.1849205 -3.1157666,4.7810265 -3.3423129,4.7029183 -3.4643209,3.1154679 -3.5627979,1.8342176 -3.3506601,1.6393864 -1.7623801,1.5518691 -0.28220361,1.4703009 0.03190931,1.2186517 0.12970957,0.03727676 0.23183776,-1.1964089 0.21631387,-1.2209567 -1.0632821,-1.8336289 c -1.255843,-0.6012969 -1.4463522,-0.766636 -1.3453657,-1.1689973 0.116002,-0.4620953 -0.021142,-0.6931905 -0.2284378,-0.692978 z M 3.2801534,0.36424082 C 3.1552167,0.37638891 3.0357718,0.63937866 2.960593,1.1996406 2.6559435,3.4700028 3.7427035,5.51663 5.8374037,6.6173573 6.3414282,6.8822122 6.8393974,6.8093789 6.7991429,6.4767191 6.7717268,6.2500053 6.6191589,6.114682 6.0556317,5.8176886 4.5456724,5.0219006 3.8680653,3.9415964 3.7740429,2.1800151 3.7121633,1.0206394 3.4883849,0.34402516 3.2801534,0.36424082 Z M -14.247151,2.9932082 c -0.869041,0.017045 -1.688541,0.1286415 -2.142995,0.3506975 l -0.408891,0.1998545 0.02475,1.0908932 c 0.01368,0.600003 0.07922,1.4514801 0.145489,1.8920897 0.274876,1.8277072 -1.260891,2.4587775 -2.221859,0.9129946 -1.089527,-1.7525778 -1.558986,-2.4148829 -1.746098,-2.4638307 -0.291654,-0.076272 -0.712562,0.1414187 -0.796345,0.4117015 -0.03902,0.1258948 -0.165863,0.3634993 -0.281785,0.5280929 -0.217246,0.3084478 -0.175465,0.6155762 0.05819,0.4277831 0.660632,-0.5309578 1.120762,-0.1715526 2.510536,1.9610065 0.747788,1.147452 0.945375,1.2327871 1.769069,0.7641859 0.115898,-0.065935 0.412876,-0.1701745 0.660049,-0.2317566 1.048683,-0.2612879 1.196241,-0.6800666 0.859645,-2.4390703 -0.432485,-2.260143 -0.311292,-2.4176288 1.858148,-2.4176288 2.319373,0 2.576572,0.3842046 2.058254,3.0756374 -0.250674,1.3016343 -0.186069,1.4569523 0.789455,1.8946434 1.6581894,0.7439754 1.8414828,0.7082503 2.5896612,-0.5040985 1.419617,-2.3003626 1.5514234,-2.3897816 2.5398884,-1.7231248 1.9942722,1.3450248 2.0183015,1.4781855 0.6069628,3.3658443 -1.430444,1.91321 -1.4156257,2.598779 0.087547,4.038914 l 0.305775,0.293017 0.7458074,-0.300673 c 2.012542,-0.810956 2.758527,-1.021321 2.9485329,-0.831315 0.52692739,0.526927 0.97365265,2.574804 0.75321185,3.453135 -0.10754595,0.42849 -0.77353115,0.675122 -2.17081325,0.803749 -1.6005693,0.147341 -1.8469606,0.421041 -1.9916394,2.214204 l -0.07606,0.943622 0.4231848,0.275661 c 0.232764,0.15152 0.6196507,0.327009 0.8596509,0.390003 0.2400044,0.063 0.6308918,0.213906 0.8685805,0.335386 0.2376887,0.121475 0.5002262,0.220781 0.5834768,0.220781 0.8130053,0 1.3021282,0.698358 1.05950033,1.512805 -0.78529163,2.636006 -1.23195743,2.796248 -3.54808623,1.27314 -1.1611839,-0.763608 -1.4109926,-0.795574 -1.7647276,-0.22538 -0.040652,0.06556 -0.3230527,0.430698 -0.6273808,0.81141 -0.6008675,0.751676 -0.6767477,1.077484 -0.3616724,1.549814 0.1046862,0.156932 0.3227415,0.483334 0.484698,0.725389 0.1619557,0.242055 0.3584165,0.466595 0.4364611,0.498997 0.6354169,0.263692 0.7239611,-0.09328 0.1980667,-0.798134 -0.5431628,-0.728007 -0.5542661,-1.027618 -0.059219,-1.605972 0.5970395,-0.697508 0.7440586,-0.67948 2.5210015,0.310373 1.9701384,1.097473 2.3802884,1.004088 2.78721911,-0.635545 0.0717664,-0.289185 0.19126496,-0.624022 0.26544657,-0.744024 0.0741808,-0.120003 0.18875118,-0.478351 0.25472835,-0.796351 0.0659772,-0.318 0.193834,-0.720593 0.28382599,-0.894615 0.47943246,-0.927125 -0.47372312,-1.663346 -2.81248272,-2.172853 -0.618243,-0.134687 -0.84229,-0.391303 -0.84229,-0.964041 0,-1.12 0.29239,-1.335651 2.1087866,-1.556452 0.550512,-0.06692 1.22135817,-0.231366 1.565639,-0.383621 L 0.51410804,17.564329 0.46050849,17.099536 C 0.34571194,16.105234 0.1340477,15.072429 -0.11786509,14.276079 -0.26251927,13.818803 -0.38076387,13.374247 -0.38076387,13.2883 c 0,-0.330032 -0.56528016,-1.289982 -0.75959273,-1.289982 -0.2272426,0 -0.8765826,0.272919 -2.2346227,0.93928 -1.2040159,0.590761 -1.3490798,0.594268 -1.8476806,0.04238 -0.7079587,-0.783626 -0.5424224,-1.263656 1.131736,-3.2803419 0.2774833,-0.3342597 0.6158771,-0.7878011 0.7519316,-1.007941 L -3.0916625,8.2914758 -3.3239326,7.9652819 C -3.4517138,7.7858267 -3.6213799,7.601037 -3.7009207,7.5548556 -3.7804571,7.5086775 -4.158206,7.1934254 -4.5404052,6.8542214 -5.5549397,5.953817 -6.8280102,5.0164973 -7.036138,5.0164973 c -0.1559148,0 -0.8718951,0.9354631 -0.8718951,1.1391354 0,0.2442227 -1.2622494,1.9360727 -1.6003568,2.1450353 L -9.9052833,8.5459525 -10.490039,8.2399207 c -0.703918,-0.3685473 -0.753414,-0.5109002 -0.598792,-1.7221021 0.173607,-1.3598822 0.241076,-2.7385043 0.141656,-2.8967161 -0.265279,-0.4221672 -1.851598,-0.6563144 -3.299991,-0.6278892 z m 0.211338,9.7082968 c -2.350758,-0.0091 -4.689863,1.407407 -5.38377,4.460566 -0.181317,0.797783 -0.362052,0.937389 -1.218512,0.941835 -0.722905,0.0039 -0.854436,0.08877 -0.754492,0.486998 0.325597,1.297268 2.397888,0.512298 2.5963,-0.983441 0.600649,-4.527942 6.756662,-5.690869 8.9336394,-1.687642 2.7606115,5.076469 -3.2513304,10.340553 -7.4111344,6.48921 -0.750697,-0.695033 -1.159652,-0.866467 -1.28539,-0.538811 -0.267802,0.697893 2.214338,2.480609 3.723695,2.674403 3.410277,0.437854 6.4909973,-2.386814 6.4909973,-5.951678 0,-3.79304 -2.8542143,-5.880495 -5.6913333,-5.89144 z" />
    <path
       style="fill:#000000;stroke-width:0.46607"
       d="m -48.319078,29.197468 c -0.679409,-0.03826 -1.443746,-0.140865 -1.698522,-0.228015 -0.254778,-0.08715 -0.784592,-0.192422 -1.177359,-0.233935 -0.392772,-0.04153 -0.822656,-0.146584 -0.955299,-0.233497 -0.132644,-0.08691 -0.456283,-0.19821 -0.719193,-0.247324 -0.262915,-0.04912 -0.554078,-0.158137 -0.647041,-0.242263 -0.09296,-0.08413 -0.328104,-0.183543 -0.522548,-0.220927 -0.194449,-0.03738 -0.469347,-0.147665 -0.610892,-0.245069 -0.141541,-0.0974 -0.373159,-0.212006 -0.514705,-0.25467 -0.141541,-0.04264 -0.321448,-0.12981 -0.399795,-0.193652 -0.07834,-0.06384 -0.318261,-0.208725 -0.533147,-0.321961 -1.315441,-0.693163 -3.658413,-2.757174 -4.264462,-3.756716 -0.318401,-0.525131 -0.569738,-0.893247 -0.703262,-1.030025 -0.0829,-0.08493 -0.224264,-0.316541 -0.314127,-0.514704 -0.08986,-0.19816 -0.208618,-0.429778 -0.263889,-0.514705 -0.287636,-0.441923 -1.120041,-2.369361 -1.172516,-2.714961 -0.03332,-0.219337 -0.127671,-0.474114 -0.209708,-0.566173 -0.08204,-0.09206 -0.18208,-0.491643 -0.222325,-0.887961 -0.04022,-0.396323 -0.167967,-0.998401 -0.283828,-1.337952 -0.29093,-0.852624 -0.317575,-6.7901287 -0.03295,-7.3405532 0.09333,-0.1804719 0.221001,-0.7104495 0.28373,-1.1777262 0.06272,-0.4672827 0.180299,-0.9565951 0.261279,-1.087361 0.08098,-0.1307651 0.18929,-0.4961729 0.240697,-0.812015 0.05141,-0.315842 0.163781,-0.6519618 0.249729,-0.7469329 0.08595,-0.094971 0.186662,-0.331768 0.223808,-0.5262166 0.03714,-0.1944444 0.176663,-0.5428976 0.310043,-0.7743431 0.13338,-0.2314455 0.242511,-0.4944956 0.242511,-0.5845547 0,-0.090063 0.06585,-0.2295999 0.146336,-0.3100851 0.08049,-0.080489 0.231036,-0.3089723 0.334559,-0.5077463 0.103519,-0.1987748 0.327191,-0.5605289 0.497041,-0.80390145 0.33825,-0.4846615 0.513236,-0.73923853 0.819402,-1.192105 0.628133,-0.92910595 3.239626,-3.43811995 3.578552,-3.43811995 0.06338,0 0.18998,-0.067652 0.281339,-0.1503304 0.264276,-0.2391645 1.320506,-0.7761377 1.526677,-0.7761377 0.103305,0 0.344795,-0.1158039 0.536648,-0.2573501 0.191848,-0.1415453 0.430014,-0.2573492 0.529255,-0.2573492 0.09924,0 0.398243,-0.1158099 0.664448,-0.2573552 0.266206,-0.1415402 0.575872,-0.2573501 0.688143,-0.2573501 0.112276,0 0.348574,-0.087817 0.525108,-0.1951525 0.176537,-0.1073309 0.605261,-0.2270785 0.952726,-0.2661071 0.34746,-0.039012 0.764374,-0.1408704 0.926464,-0.22631 0.925959,-0.4880917 7.140283,-0.5067857 8.227936,-0.024747 0.230202,0.1020228 0.670274,0.2171373 0.977937,0.2558123 0.307662,0.03868 0.698359,0.1513097 0.868209,0.2502984 0.169854,0.098989 0.507392,0.209862 0.750089,0.2463828 0.242697,0.036538 0.612593,0.1582313 0.821998,0.2704656 0.209405,0.1122344 0.497232,0.2050802 0.639616,0.2063247 0.142379,0.00136 0.460808,0.09389 0.707615,0.2058818 0.870527,0.3950079 1.670871,0.081534 2.038554,-0.7984437 0.142651,-0.34141 0.74541,-0.499133 0.907182,-0.2373835 0.106218,0.1718637 0.242632,10.8505501 0.141089,11.0445473 -0.21923,0.418834 -0.836134,-0.1631662 -0.963772,-0.9092464 -0.03794,-0.221784 -0.153394,-0.5234666 -0.256553,-0.670405 -0.10316,-0.1469333 -0.220097,-0.4943604 -0.259858,-0.7720545 -0.03976,-0.2776933 -0.154488,-0.6438662 -0.254945,-0.8137211 -0.100456,-0.1698498 -0.213781,-0.4561709 -0.251841,-0.6362645 -0.03803,-0.18009451 -0.133329,-0.3806767 -0.211717,-0.44573576 -0.07839,-0.0650591 -0.197371,-0.28829247 -0.264401,-0.4960802 -0.06703,-0.20778348 -0.208371,-0.4606637 -0.314089,-0.56195027 -0.10572,-0.10128657 -0.192212,-0.24828026 -0.192212,-0.32665887 0,-0.0783718 -0.115809,-0.28013139 -0.257355,-0.4483456 -0.141541,-0.1682141 -0.25735,-0.3585151 -0.25735,-0.4228932 0,-0.06437 -0.0712,-0.144366 -0.158222,-0.1777592 -0.08702,-0.033418 -0.221621,-0.1824901 -0.299114,-0.3313294 -0.168457,-0.3235415 -1.306148,-1.5083339 -1.793657,-1.8679065 -0.190622,-0.1406 -0.497838,-0.3830255 -0.682705,-0.538721 -0.184861,-0.1557005 -0.380722,-0.2830915 -0.435248,-0.2830915 -0.05452,0 -0.182974,-0.092645 -0.285449,-0.2058817 -0.102475,-0.1132315 -0.241728,-0.2058767 -0.309448,-0.2058767 -0.06771,0 -0.343768,-0.1173197 -0.613445,-0.2607106 -1.075979,-0.5721015 -6.078212,-0.6132503 -6.994129,-0.057527 -0.175028,0.1061943 -0.463982,0.2238676 -0.642118,0.2614936 -0.178137,0.037609 -0.405351,0.158431 -0.504922,0.2684559 -0.09957,0.1100249 -0.231767,0.2008899 -0.293764,0.2019203 -0.120955,0.00187 -0.923602,0.5239605 -1.187793,0.7724039 -0.808749,0.7605424 -1.811233,1.7962438 -1.940819,2.0051222 -0.246109,0.3967047 -0.803277,1.23193108 -1.201729,1.8014635 -0.198053,0.28308638 -0.360799,0.55433921 -0.361666,0.60278283 -9.35e-4,0.0484479 -0.117384,0.22571319 -0.258925,0.39392737 -0.141546,0.16821333 -0.257355,0.3886881 -0.257355,0.4899466 0,0.1012535 -0.08977,0.2982286 -0.199496,0.4377235 -0.109728,0.1394906 -0.231484,0.3889355 -0.270577,0.5543205 -0.03911,0.165385 -0.153883,0.4396676 -0.25509,0.6095217 -0.101208,0.1698506 -0.216266,0.4941139 -0.255681,0.720582 -0.03943,0.2264731 -0.140544,0.5213693 -0.22473,0.6553316 -0.08418,0.1339632 -0.214323,0.5971942 -0.289197,1.0294047 -0.07488,0.4322147 -0.204283,0.9711363 -0.28757,1.1976043 -0.439099,1.1939506 -0.395623,8.7999686 0.05532,9.6764266 0.08739,0.16985 0.192287,0.609923 0.233105,0.977937 0.04083,0.368013 0.162034,0.813553 0.269365,0.990087 0.107336,0.176533 0.195153,0.427651 0.195153,0.558039 0,0.210114 0.46875,1.332984 0.728868,1.745978 0.05349,0.08493 0.188787,0.339705 0.300657,0.566173 0.325807,0.659554 0.589491,1.089233 0.817124,1.331538 0.11669,0.124213 0.212164,0.262398 0.212164,0.307076 0,0.116275 0.936624,1.250009 1.566164,1.895759 0.522693,0.536152 1.493135,1.252367 1.696905,1.252367 0.05613,0 0.18509,0.09174 0.286563,0.203868 0.101473,0.112127 0.35185,0.233576 0.556395,0.269878 0.204539,0.03631 0.510864,0.149134 0.680714,0.250723 0.169854,0.101594 0.494118,0.218848 0.720587,0.260565 0.226468,0.04171 0.576029,0.161168 0.776793,0.265446 0.932793,0.48448 6.344002,0.477457 7.145541,-0.0093 0.172106,-0.104511 0.521378,-0.223732 0.776156,-0.264928 0.254777,-0.0412 0.579041,-0.15549 0.720586,-0.253976 0.14154,-0.09849 0.424702,-0.209554 0.629246,-0.246812 0.204544,-0.03723 0.454917,-0.159488 0.556394,-0.271616 0.101473,-0.112127 0.242557,-0.203868 0.313516,-0.203868 0.507877,0 2.721412,-2.523415 2.721412,-3.102392 0,-0.07803 0.110119,-0.349962 0.24471,-0.604291 0.134587,-0.254326 0.278714,-0.624544 0.320279,-0.822708 0.04157,-0.198159 0.141284,-0.434955 0.221607,-0.526212 0.08032,-0.09126 0.19003,-0.436241 0.243801,-0.766634 0.295778,-1.817319 0.994388,-2.2816 0.949446,-0.630975 -0.01851,0.679796 -0.07748,1.086256 -0.18036,1.243284 -0.08408,0.128314 -0.203221,0.505705 -0.26477,0.838652 -0.06155,0.332946 -0.178407,0.699934 -0.259685,0.815529 -0.08128,0.115595 -0.197423,0.393838 -0.258096,0.618317 -0.06067,0.224478 -0.19849,0.520241 -0.306268,0.657261 -0.107779,0.137016 -0.195959,0.305178 -0.195959,0.373695 0,0.06852 -0.09265,0.208417 -0.205882,0.310897 -0.113237,0.102474 -0.206259,0.237043 -0.206721,0.29904 -0.0023,0.328663 -2.481418,2.633394 -3.002787,2.791727 -0.131455,0.03995 -0.331652,0.154908 -0.444887,0.255523 -0.113237,0.100615 -0.35323,0.214075 -0.533329,0.252135 -0.180089,0.03808 -0.380528,0.133166 -0.445405,0.211339 -0.06488,0.07818 -0.365623,0.193555 -0.668316,0.25639 -0.302695,0.06284 -0.602335,0.176888 -0.66587,0.253444 -0.06354,0.07655 -0.402941,0.172241 -0.754232,0.21264 -0.351291,0.04041 -0.847171,0.154433 -1.101948,0.253402 -0.54568,0.211969 -3.562957,0.324474 -5.610268,0.209187 z m 76.433476,0.0042 c -0.797558,-0.04386 -1.423733,-0.131674 -1.647058,-0.230965 -0.198152,-0.08811 -0.684552,-0.19177 -1.080874,-0.23036 -0.396323,-0.03859 -0.825884,-0.139039 -0.954583,-0.223211 -0.128706,-0.08417 -0.499287,-0.20165 -0.823528,-0.261064 -0.324233,-0.05941 -0.659007,-0.169841 -0.743933,-0.245396 -0.08493,-0.07556 -0.293382,-0.171206 -0.463235,-0.21256 -0.169852,-0.04134 -0.41522,-0.157569 -0.54527,-0.258254 -0.13005,-0.10069 -0.368447,-0.212058 -0.529773,-0.247493 -0.161317,-0.03542 -0.37478,-0.154441 -0.474345,-0.264466 -0.09957,-0.110026 -0.26651,-0.200047 -0.370972,-0.200047 -0.104462,0 -0.274101,-0.08107 -0.37699,-0.180145 -0.222611,-0.214379 -1.131882,-0.849265 -1.216306,-0.849265 -0.288741,0 -2.051312,-1.779501 -2.560962,-2.585566 -0.192695,-0.304767 -0.409015,-0.621145 -0.480696,-0.703062 -0.155842,-0.17808 -0.409057,-0.621612 -0.687205,-1.203686 -0.112002,-0.234386 -0.250239,-0.454955 -0.307188,-0.490148 -0.05696,-0.03519 -0.13561,-0.210048 -0.174825,-0.388562 -0.03919,-0.178514 -0.181737,-0.532308 -0.316743,-0.786205 -0.134998,-0.2539 -0.245453,-0.5535 -0.245453,-0.665772 0,-0.112276 -0.08731,-0.348573 -0.194013,-0.525107 C 13.813749,18.273767 13.693373,17.853097 13.65295,17.515485 13.61257,17.177873 13.49176,16.679131 13.384561,16.40717 12.9833,15.389161 13.019787,8.3127813 13.430382,7.5228301 13.519695,7.3509945 13.6234,6.9340852 13.660839,6.5963613 c 0.03741,-0.3377188 0.149178,-0.7530061 0.248326,-0.9228602 0.09914,-0.1698506 0.212945,-0.4941139 0.2529,-0.7205819 0.03995,-0.2264732 0.156395,-0.5507314 0.258766,-0.7205863 0.102379,-0.1698498 0.220332,-0.4709543 0.262123,-0.6691136 0.04183,-0.1981637 0.162601,-0.4707682 0.268457,-0.6057931 0.105864,-0.1350258 0.192474,-0.3178271 0.192474,-0.4062268 0,-0.088404 0.115802,-0.3369359 0.257346,-0.552293 0.141543,-0.2153571 0.373156,-0.5677625 0.514708,-0.7831239 0.141544,-0.2153571 0.257346,-0.44697517 0.257346,-0.51470018 0,-0.0677284 0.04795,-0.12314464 0.106604,-0.12314464 0.05866,0 0.192414,-0.19687315 0.29731,-0.4374956 0.244611,-0.56116732 1.152581,-1.55717708 2.838685,-3.11395878 0.345179,-0.3186984 1.153907,-0.8749954 1.272047,-0.8749954 0.05832,0 0.166546,-0.081067 0.240531,-0.1801455 0.127236,-0.1704041 1.373951,-0.849385 1.559437,-0.8493008 0.04769,2.29e-5 0.204494,-0.092608 0.348444,-0.2058402 0.143958,-0.1132366 0.365055,-0.2058817 0.491322,-0.2058817 0.126275,0 0.342527,-0.088838 0.480559,-0.1974181 0.138042,-0.1085797 0.433804,-0.2300241 0.657264,-0.2698774 0.223461,-0.039845 0.545262,-0.1541295 0.715114,-0.2539479 0.169853,-0.099813 0.586272,-0.2147043 0.92539,-0.2553132 0.339109,-0.040593 0.779187,-0.1544322 0.977934,-0.25295 0.96418,-0.4779133 7.182051,-0.4807705 8.300841,-0.00374 0.233636,0.099603 0.671656,0.2150494 0.973369,0.2565485 0.301722,0.041477 0.666445,0.1581046 0.810497,0.2591345 0.144051,0.1010256 0.444744,0.214989 0.668196,0.253244 0.223461,0.038264 0.519223,0.1583937 0.657264,0.2669742 0.138033,0.1085806 0.331127,0.1974181 0.429094,0.1974181 0.09796,0 0.300838,0.096537 0.450848,0.2145274 0.768085,0.6041805 2.461763,0.5053269 2.963813,-0.1729816 0.748413,-1.0111672 0.652257,-0.9381579 0.978794,-0.7431864 l 0.290338,0.173359 0.06299,2.0913363 c 0.03468,1.1502379 0.06937,3.58526332 0.07719,5.4111768 l 0.0142,3.3198355 h -0.248956 c -0.301993,0 -0.62666,-0.4788451 -0.732864,-1.0808772 C 42.739586,3.6971136 42.623783,3.3728503 42.522187,3.2029954 42.420598,3.0331456 42.305195,2.7200588 42.265742,2.5072512 42.226297,2.2944435 42.113648,2.0165071 42.015443,1.8896101 41.91723,1.762713 41.803043,1.5199185 41.761693,1.3500636 41.720378,1.1802138 41.62412,0.97175963 41.547865,0.88683261 41.47161,0.80190644 41.264395,0.45685455 41.087385,0.12005385 40.645488,-0.72076966 40.283613,-1.2938445 39.79666,-1.9239805 c -0.227286,-0.2941183 -0.482064,-0.6697292 -0.566174,-0.83469 -0.13561,-0.2659677 -0.890467,-0.9557934 -1.864653,-1.7040126 -0.373726,-0.2870343 -0.841831,-0.568559 -1.222086,-0.734965 -0.141544,-0.061948 -0.459044,-0.2023581 -0.705551,-0.3120386 -1.089588,-0.484778 -6.155974,-0.4765608 -7.112715,0.01151 -0.224838,0.1146996 -0.46854,0.2093868 -0.541564,0.2104214 -0.13079,0.00187 -0.912357,0.4814361 -1.213654,0.7447379 -0.08493,0.074215 -0.361425,0.2724319 -0.614435,0.4404829 -0.539379,0.3582447 -1.583818,1.3955401 -2.076322,2.0621137 -0.190297,0.2575549 -0.538911,0.7124625 -0.774698,1.0109053 -0.235787,0.29844369 -0.501515,0.70115611 -0.590505,0.8949204 -0.08898,0.19375919 -0.317457,0.56170289 -0.507721,0.81765455 -0.190255,0.25594742 -0.40637,0.64969715 -0.480245,0.87499545 -0.07387,0.2252983 -0.192244,0.5022792 -0.263024,0.6155158 -0.07081,0.1132358 -0.161403,0.3680134 -0.201383,0.5661728 -0.03996,0.1981636 -0.156429,0.499263 -0.258808,0.6691128 -0.102371,0.1698549 -0.218819,0.494119 -0.258774,0.7205871 -0.03996,0.2264681 -0.153752,0.5507313 -0.2529,0.7205862 -0.09913,0.1698498 -0.210037,0.5779171 -0.246439,0.9068135 -0.03638,0.3289014 -0.140235,0.7110233 -0.230754,0.8491665 -0.107999,0.1648298 -0.193443,0.6412937 -0.248556,1.386041 -0.04616,0.6241793 -0.145114,1.3074941 -0.219839,1.5184706 -0.189498,0.5350628 -0.189498,4.2468308 0,4.7818888 0.07473,0.210981 0.173652,0.89429 0.219839,1.518471 0.05424,0.73254 0.14111,1.222057 0.245121,1.380802 0.08862,0.135262 0.192542,0.494225 0.230924,0.797693 0.03843,0.303471 0.179621,0.787853 0.31387,1.076402 0.13425,0.288549 0.244093,0.594986 0.244093,0.680965 0,0.08599 0.08661,0.266807 0.192457,0.401832 0.105864,0.135026 0.226665,0.40763 0.268457,0.605794 0.04182,0.198159 0.163646,0.504726 0.270769,0.681264 0.107131,0.176533 0.195619,0.384988 0.196647,0.463231 0.0017,0.132342 0.278123,0.592758 0.844145,1.406278 1.008504,1.449469 2.330794,2.862962 2.768083,2.959005 0.164649,0.03616 0.34693,0.154633 0.405069,0.263264 0.05815,0.108637 0.15529,0.197516 0.215903,0.197516 0.06061,0 0.247825,0.115809 0.416037,0.25735 0.168211,0.141546 0.388688,0.257355 0.489944,0.257355 0.101257,0 0.304749,0.0949 0.4522,0.210888 0.147452,0.115986 0.489546,0.273806 0.760204,0.350708 0.270659,0.0769 0.699881,0.217147 0.953834,0.311656 0.656788,0.24443 4.099665,0.194253 4.391644,-0.064 0.104895,-0.09278 0.352856,-0.203001 0.551009,-0.244938 0.371881,-0.0787 1.364761,-0.570064 1.643461,-0.813329 0.0869,-0.07586 0.29697,-0.208409 0.466831,-0.294571 0.560742,-0.284442 1.796754,-1.625414 1.951567,-2.117296 0.04183,-0.132979 0.164174,-0.329852 0.271815,-0.437495 0.10765,-0.107648 0.195721,-0.323798 0.195721,-0.480332 0,-0.156534 0.104224,-0.46922 0.231613,-0.69485 0.350161,-0.620199 0.349082,-3.59367 -0.0017,-4.215072 -0.126548,-0.224288 -0.230083,-0.457667 -0.230083,-0.518615 0,-0.544174 -1.783713,-1.716826 -2.882346,-1.894912 -0.368014,-0.05965 -0.900728,-0.153942 -1.183815,-0.20953 -0.283087,-0.05558 -0.688412,-0.128076 -0.900727,-0.161089 -0.410562,-0.06384 -0.549802,-0.377586 -0.223197,-0.502917 0.417201,-0.160095 15.86749,-0.06636 16.003151,0.0971 0.271763,0.327462 -0.552896,0.683632 -1.982121,0.856078 -0.541139,0.0653 -0.8816,0.1647 -1.069033,0.312132 -0.151252,0.118978 -0.328432,0.216321 -0.393737,0.216321 -0.23617,0 -0.877375,0.905631 -0.986742,1.393658 -0.05985,0.266951 -0.16516,0.583725 -0.234087,0.703938 -0.0879,0.153313 -0.140685,1.186693 -0.176781,3.461205 l -0.05152,3.242631 -0.308828,-0.02796 c -1.336053,-0.121011 -1.658339,-0.04816 -2.624984,0.593381 -0.254778,0.169091 -0.655003,0.396733 -0.889387,0.505873 -0.234393,0.10914 -0.454954,0.245032 -0.490149,0.301981 -0.0352,0.05694 -0.200261,0.133468 -0.366798,0.170045 -0.166545,0.03659 -0.409218,0.148886 -0.53926,0.249576 -0.13005,0.100685 -0.375426,0.2169 -0.54527,0.258254 -0.169861,0.04134 -0.378878,0.138279 -0.464509,0.21539 -0.08562,0.07711 -0.441574,0.186246 -0.791021,0.24252 -0.34943,0.05628 -0.742607,0.171047 -0.873719,0.255047 -0.131122,0.084 -0.562655,0.185132 -0.958978,0.224735 -0.396322,0.03961 -0.975358,0.155983 -1.286754,0.258617 -0.661124,0.217906 -3.797416,0.326775 -5.970565,0.207247 z M -9.0047165,29.098433 c -0.1747906,-0.04181 -0.3617081,-0.103113 -0.4153663,-0.136274 -0.053659,-0.03314 -0.5789151,-0.113265 -1.1672402,-0.178002 -0.644388,-0.07091 -1.224543,-0.196709 -1.459196,-0.316424 -0.214238,-0.109294 -0.472431,-0.199142 -0.573769,-0.19966 -0.101338,-4.66e-4 -0.415865,-0.114877 -0.698952,-0.254129 -0.283086,-0.139257 -0.611842,-0.254642 -0.730569,-0.256413 -0.118722,-0.0019 -0.326547,-0.09921 -0.461825,-0.216541 -0.135276,-0.117324 -0.371616,-0.238451 -0.52519,-0.269165 -0.15358,-0.03072 -0.358269,-0.143177 -0.454861,-0.249911 -0.0966,-0.10674 -0.22198,-0.194067 -0.278631,-0.194067 -0.05665,0 -0.246351,-0.109145 -0.421547,-0.242539 -0.175195,-0.133398 -0.422763,-0.275489 -0.550154,-0.315762 -0.127391,-0.04027 -0.231618,-0.112351 -0.231618,-0.160179 0,-0.04783 -0.266359,-0.268978 -0.591909,-0.491443 -0.786106,-0.537184 -2.165515,-1.959499 -3.069589,-3.165059 -0.08492,-0.113232 -0.291769,-0.385962 -0.459671,-0.606064 -0.167906,-0.220096 -0.305281,-0.44807 -0.305281,-0.506594 0,-0.05853 -0.07377,-0.187934 -0.16393,-0.287561 -0.181916,-0.201016 -0.439561,-0.645722 -0.747736,-1.290632 -0.112,-0.234387 -0.250237,-0.454954 -0.307182,-0.490147 -0.05695,-0.03519 -0.135263,-0.214015 -0.174034,-0.397372 -0.03877,-0.183356 -0.15309,-0.472343 -0.254041,-0.642198 -0.100951,-0.16985 -0.234713,-0.553332 -0.297255,-0.852181 -0.06254,-0.298844 -0.178762,-0.646272 -0.258259,-0.772055 -0.08634,-0.136595 -0.173695,-0.684703 -0.216923,-1.361045 -0.0398,-0.622791 -0.142668,-1.317641 -0.228584,-1.544109 -0.272922,-0.719389 -0.301435,-3.344264 -0.04708,-4.3346482 0.114746,-0.4468119 0.240329,-1.2524612 0.279064,-1.7903244 0.03877,-0.5382364 0.135091,-1.0807659 0.214248,-1.2066326 0.0791,-0.1257876 0.194994,-0.4732105 0.257536,-0.7720588 0.06254,-0.298844 0.195353,-0.6823269 0.295134,-0.8521767 0.09979,-0.1698549 0.213414,-0.4441367 0.252503,-0.6095217 0.0391,-0.165385 0.160851,-0.4148257 0.270577,-0.5543205 0.109722,-0.1394906 0.199502,-0.3310217 0.199502,-0.4256246 0,-0.094599 0.115804,-0.3289661 0.257349,-0.5208194 0.141546,-0.1918489 0.25735,-0.3892339 0.25735,-0.4386279 0,-0.0494 0.115809,-0.2416434 0.257355,-0.4272186 0.141541,-0.1855709 0.25735,-0.3656696 0.25735,-0.4002148 0,-0.034531 0.119039,-0.1923046 0.264532,-0.3505734 0.335864,-0.36536102 0.40205,-0.44482182 1.097166,-1.31717427 0.710888,-0.89214223 2.003976,-2.16568793 2.755929,-2.71427613 0.311396,-0.2271762 0.635659,-0.4794461 0.720586,-0.5605986 0.08493,-0.081152 0.270218,-0.1819069 0.411763,-0.2238948 0.141547,-0.041996 0.350001,-0.1583478 0.463232,-0.2585666 0.113237,-0.1002188 0.321691,-0.2170769 0.463237,-0.2596803 0.141541,-0.042599 0.367822,-0.1637349 0.502847,-0.2691836 0.135026,-0.1054479 0.380346,-0.1917223 0.545153,-0.1917223 0.164812,0 0.517203,-0.1158048 0.783092,-0.2573501 0.265888,-0.1415454 0.578234,-0.2573501 0.694103,-0.2573501 0.115871,0 0.387916,-0.090366 0.604554,-0.2008152 0.216634,-0.1104499 0.724404,-0.2307144 1.12838,-0.267259 0.40397,-0.036538 1.0325448,-0.1327832 1.3968305,-0.2138651 1.2345171,-0.2747723 2.0409204,-0.2895745 3.152116,-0.057867 0.5630682,0.1174124 1.345251,0.243881 1.7381803,0.2810504 0.3929302,0.037141 0.8786399,0.1555875 1.079353,0.2631615 0.2007131,0.1075782 0.4861067,0.1955954 0.6342098,0.1955954 0.1481081,0 0.4870851,0.1158048 0.7532951,0.2573501 0.2662057,0.1415453 0.5702882,0.2573501 0.6757411,0.2573501 0.105453,0 0.48516991,0.1624156 0.84381508,0.3609201 0.35864603,0.1985036 0.84895652,0.4516355 1.08957897,0.5625139 0.24062246,0.1108784 0.43749985,0.2421331 0.43749985,0.2916759 0,0.049536 0.1042271,0.1448267 0.2316138,0.2117407 0.2338411,0.122837 0.7582258,0.4831841 1.18311,0.8130121 0.494374,0.383772 1.7064363,1.62397461 1.9662372,2.01188998 0.1503874,0.22454769 0.3469528,0.51790598 0.4368104,0.6519057 C 4.8456831,0.26271301 5.0846134,0.55660772 5.286781,0.78180829 5.4889529,1.0070131 5.7860211,1.402571 5.946932,1.6608299 6.1078428,1.9190887 6.3390877,2.2858771 6.4608067,2.475912 6.58253,2.6659477 6.7162925,2.9304379 6.7580568,3.063664 c 0.041758,0.1332261 0.1622115,0.352708 0.2676594,0.487733 0.1054436,0.1350249 0.1917181,0.3250003 0.1917181,0.4221663 0,0.097166 0.115809,0.3944723 0.2573543,0.660678 0.141542,0.2662049 0.2587979,0.6089487 0.2605661,0.7616518 0.0017,0.152703 0.1171539,0.5092561 0.2564107,0.7923424 0.1392569,0.2830864 0.2536139,0.6667181 0.2541325,0.8525075 4.675e-4,0.1857936 0.102583,0.6258668 0.2268098,0.9779363 0.3140228,0.8899651 0.3550832,6.1776147 0.052367,6.7390707 -0.099131,0.183841 -0.2235879,0.670237 -0.2765839,1.080877 -0.052962,0.41064 -0.1908331,0.930127 -0.3063293,1.154414 -0.1154962,0.224287 -0.2099946,0.511358 -0.2099946,0.637933 0,0.126576 -0.1158022,0.447945 -0.2573442,0.71415 -0.1415453,0.266205 -0.2573543,0.567953 -0.2573543,0.670549 0,0.102601 -0.086898,0.269412 -0.1931072,0.370699 -0.1062121,0.101286 -0.2283927,0.299963 -0.2715138,0.441508 -0.043109,0.14154 -0.164676,0.367827 -0.2701247,0.502852 -0.1054436,0.135021 -0.1917181,0.288665 -0.1917181,0.341425 0,0.05276 -0.115809,0.247758 -0.2573543,0.433333 -0.1415411,0.18557 -0.2573501,0.383599 -0.2573501,0.440059 0,0.05646 -0.09464,0.214214 -0.2103143,0.350573 -0.4821307,0.568349 -1.2308582,1.566653 -1.2308582,1.641144 0,0.108306 -1.6303742,1.746473 -1.7381667,1.746473 -0.046918,0 -0.3951481,0.231613 -0.7738534,0.514699 -0.378701,0.283092 -0.7144901,0.514705 -0.7461924,0.514705 -0.031692,0 -0.19526902,0.115809 -0.36348319,0.257355 -0.16821418,0.141541 -0.36459766,0.25735 -0.43640491,0.25735 -0.0718089,0 -0.21063135,0.08848 -0.30850133,0.19662 -0.09786487,0.108147 -0.29826598,0.226827 -0.44532512,0.263736 -0.1470634,0.03691 -0.38151999,0.156884 -0.52101059,0.26661 -0.13949486,0.109722 -0.31441046,0.199502 -0.38870686,0.199502 -0.074291,0 -0.3528848,0.115804 -0.6190905,0.25735 -0.26621,0.141545 -0.6051921,0.257349 -0.7532951,0.257349 -0.1481031,0 -0.4384648,0.09068 -0.6452553,0.201511 -0.2408886,0.12911 -0.7581374,0.240637 -1.439644,0.310403 -0.5850163,0.05989 -1.2910657,0.177665 -1.568997,0.261721 -0.5270132,0.159391 -2.0237464,0.191602 -2.5918813,0.05578 z m 3.4274843,-1.648252 c 0.2382693,-0.10817 0.6551829,-0.228286 0.926468,-0.266928 0.271286,-0.03864 0.6322197,-0.133637 0.8020695,-0.211106 0.1698549,-0.07748 0.5172769,-0.208268 0.7720588,-0.290655 1.6162198,-0.522633 1.7509931,-0.586192 3.11929147,-1.471063 1.53542603,-0.992948 3.29864813,-2.716974 4.25343933,-4.158879 0.2479172,-0.374398 0.4507599,-0.74134 0.4507599,-0.815417 0,-0.07408 0.062568,-0.207826 0.1390476,-0.297208 0.281688,-0.329242 1.0923937,-2.01202 1.3441178,-2.789985 0.081993,-0.253411 0.2198687,-0.646047 0.3063812,-0.872515 0.086512,-0.226468 0.1597776,-0.573896 0.1628168,-0.772055 0.00323,-0.198163 0.1252189,-0.615073 0.271518,-0.926468 C 7.4578308,13.541125 7.4198877,9.9083451 6.9048101,8.265481 6.7951252,7.9156396 6.7047864,7.3886587 6.7040545,7.0944146 6.7031193,6.7234037 6.6238464,6.4110624 6.4453765,6.0754077 6.3038312,5.8092028 6.1880264,5.5359922 6.1880264,5.4682722 c 0,-0.06772 -0.090021,-0.2045904 -0.2000466,-0.3041615 C 5.8779498,5.0645346 5.7573036,4.8436262 5.7198732,4.6731992 5.6824513,4.5027713 5.4872435,4.0559262 5.2860968,3.680204 5.0849502,3.3044809 4.8584591,2.8812664 4.782783,2.739721 4.7071061,2.59818 4.6448966,2.4499511 4.6445472,2.4103257 4.6440805,2.3346657 4.2399237,1.7364165 3.7200642,1.0411985 3.5507177,0.81473037 3.3620847,0.53678886 3.3008809,0.42355737 3.2396728,0.31032077 3.0266407,0.10186655 2.8274604,-0.03967877 2.6282809,-0.18121983 2.1332633,-0.58657015 1.7274191,-0.940453 1.085906,-1.49983 0.47647699,-1.9376376 -1.1263009,-2.9905223 -1.3275028,-3.1226952 -1.5439838,-3.2308379 -1.607369,-3.2308379 c -0.063384,0 -0.2461873,-0.1094196 -0.406231,-0.243149 -0.3425526,-0.2862369 -1.1219104,-0.5446309 -2.1953866,-0.7278802 -0.4246317,-0.072489 -1.0708425,-0.2129751 -1.4360267,-0.3121967 -0.8457873,-0.2298005 -3.9134141,-0.183166 -4.5860047,0.069718 -0.226468,0.085151 -0.643382,0.1859203 -0.926468,0.223933 -0.59011,0.079239 -1.924357,0.6042782 -2.933809,1.1544791 -0.141545,0.077148 -0.404222,0.2096613 -0.583734,0.2944719 -0.179512,0.084807 -0.542524,0.3056679 -0.806693,0.4907959 -0.264169,0.1851229 -0.600885,0.4153799 -0.748252,0.5116747 -0.473663,0.3095223 -1.914477,1.65795095 -2.452251,2.29501795 -0.906381,1.07372775 -1.506339,1.98402755 -2.304023,3.49581455 -0.237639,0.4503867 -0.516778,0.9265615 -0.620302,1.0581707 -0.103523,0.1316135 -0.218847,0.4205537 -0.256278,0.6420997 -0.03742,0.2215417 -0.13392,0.4574664 -0.21442,0.5242775 -0.0809,0.067142 -0.149105,0.311498 -0.152498,0.5463652 -0.0076,0.523033 -0.111493,1.1015749 -0.39238,2.1840087 -0.296784,1.1437219 -0.286195,5.0369739 0.01463,5.3692399 0.10364,0.114481 0.245414,0.560458 0.32863,1.033794 0.0805,0.457854 0.218517,0.97199 0.306703,1.14252 0.08818,0.170535 0.160337,0.498355 0.160337,0.728496 0,0.398919 0.524869,1.543041 0.750657,1.636298 0.04949,0.02046 0.180089,0.228896 0.290217,0.463236 0.273518,0.581991 0.589434,1.083086 1.021658,1.620507 0.340912,0.423886 0.523891,0.677359 0.937333,1.298453 0.839075,1.260505 4.325135,3.940897 5.125443,3.940897 0.111097,0 0.419798,0.11581 0.686004,0.257355 0.26621,0.141541 0.558179,0.2588 0.64883,0.260571 0.09065,0.0019 0.39643,0.117155 0.679516,0.256408 0.337351,0.165949 0.692291,0.253514 1.030085,0.254134 0.283464,4.66e-4 0.6772093,0.04987 0.8749997,0.109666 1.1028807,0.333445 3.5487561,0.392898 4.189873,0.101846 z m 58.1378702,0.778505 c -0.295847,-0.216336 -0.04956,-0.434159 0.586246,-0.518499 0.290951,-0.03859 0.649145,-0.130914 0.795994,-0.205149 0.14684,-0.07423 0.452276,-0.167548 0.678755,-0.207365 0.83645,-0.147054 2.340493,-1.489676 2.454281,-2.19087 0.03247,-0.199818 0.142003,-0.455071 0.243506,-0.567221 0.175404,-0.19382 0.184551,-0.854735 0.184551,-13.343793 V -1.9440789 l -0.231622,-0.4077969 c -0.127389,-0.2242825 -0.231613,-0.4642716 -0.231613,-0.5333007 0,-0.423728 -1.042679,-1.6148868 -1.623543,-1.8547357 -0.211092,-0.087165 -0.461364,-0.2273632 -0.55616,-0.311549 -0.108951,-0.096752 -0.537926,-0.1843918 -1.165963,-0.2381996 -1.115534,-0.095576 -1.403857,-0.2649416 -1.139082,-0.6691086 0.215886,-0.3295254 15.653687,-0.3232805 15.872608,0.00646 0.263756,0.3972309 -0.01284,0.5804198 -1.000777,0.6628959 -1.434912,0.1197893 -3.490057,1.5737466 -3.490057,2.4691226 0,0.08729 -0.104233,0.3433126 -0.231613,0.5689459 l -0.231622,0.4102401 v 12.9274059 12.9274 l 0.224787,0.506357 c 0.123631,0.278496 0.249967,0.622167 0.280749,0.763712 0.04956,0.227778 0.358492,0.599152 0.95913,1.152866 0.451231,0.415977 1.045442,0.742264 1.572087,0.863241 0.311395,0.07154 0.751464,0.201017 0.977934,0.287743 0.22647,0.08673 0.510322,0.159722 0.630775,0.162206 0.355134,0.0073 0.538843,0.302685 0.29787,0.478892 -0.292039,0.213544 -15.565182,0.213544 -15.857221,0 z"
       id="path43" />
  </g>
</svg>
