<svg xmlns="http://www.w3.org/2000/svg" xml:space="preserve" style="enable-background:new 0 0 360.3 56.5" viewBox="0 0 360.3 56.5">
  <style>
    .st0{fill:#8a8c8e}
  </style>
  <path d="M65.8 48.4c-.4-.6-.8-1-1.6-1s-1.6.6-1.6 1.5c0 .8.8 1.2 1.5 1.5l.6.3c1.2.5 2.3 1.1 2.3 2.6 0 1.6-1.3 2.9-3 2.9-1.5 0-2.6-1-2.9-2.4l1-.3c.1 1 .9 1.7 1.9 1.7s1.9-.8 1.9-1.8c0-1.1-.9-1.5-1.7-1.9l-.6-.2c-1.1-.5-2-1.1-2-2.4 0-1.5 1.2-2.4 2.6-2.4 1 0 1.9.5 2.4 1.5l-.8.4zM77.4 48.6c-.7-.8-1.8-1.2-2.9-1.2-2.1 0-3.8 1.8-3.8 3.9 0 2.1 1.7 3.9 3.8 3.9 1.1 0 2.1-.5 2.8-1.2v1.3c-.8.6-1.8.9-2.8.9-2.7 0-4.9-2.2-4.9-4.8 0-2.7 2.2-4.9 4.9-4.9 1 0 2 .3 2.8.9l.1 1.2zM81.9 55.9h-1v-9.4h1v9.4zM85.6 46.6h4.9v1h-3.8v2.8h3.7v1h-3.7V55h3.8v1h-4.9v-9.4zM94 46.2l7.3 7.7v-7.3h1v9.8L95 48.7v7.2h-1v-9.7zM113.2 48.6c-.7-.8-1.8-1.2-2.9-1.2-2.1 0-3.8 1.8-3.8 3.9 0 2.1 1.7 3.9 3.8 3.9 1.1 0 2.1-.5 2.8-1.2v1.3c-.8.6-1.8.9-2.8.9-2.7 0-4.9-2.2-4.9-4.8 0-2.7 2.2-4.9 4.9-4.9 1 0 2 .3 2.8.9l.1 1.2zM116.7 46.6h4.9v1h-3.8v2.8h3.7v1h-3.7V55h3.8v1h-4.9v-9.4zM126.7 52.5v.9h-2.6v-.9h2.6zM129.4 46.6h1.5c1.7 0 3.1.6 3.1 2.5 0 .8-.3 1.4-.9 1.8 1.1.3 1.8 1.3 1.8 2.4 0 1.9-1.5 2.6-3.4 2.6h-2.2l.1-9.3zm1.1 4.1h.4c1.2 0 2.2-.1 2.2-1.6 0-1.4-.9-1.6-2.2-1.6h-.4v3.2zm0 4.3h1c1.2 0 2.4-.3 2.4-1.7 0-1.5-1.4-1.7-2.5-1.7h-.9V55zM139.6 53.3l-1.1 2.7h-1.1l4.3-9.8 4.2 9.8h-1.2l-1.1-2.7h-4zm2.1-4.7-1.6 3.8h3.2l-1.6-3.8zM152.9 48.4c-.4-.6-.8-1-1.6-1s-1.6.6-1.6 1.5c0 .8.8 1.2 1.5 1.5l.6.3c1.2.5 2.3 1.1 2.3 2.6 0 1.6-1.3 2.9-3 2.9-1.5 0-2.6-1-2.9-2.4l1-.3c.1 1 .9 1.7 1.9 1.7s1.9-.8 1.9-1.8c0-1.1-.9-1.5-1.7-1.9l-.6-.2c-1.1-.5-2-1.1-2-2.4 0-1.5 1.2-2.4 2.6-2.4 1 0 1.9.5 2.4 1.5l-.8.4zM157.4 46.6h4.9v1h-3.8v2.8h3.7v1h-3.7V55h3.8v1h-4.9v-9.4zM165.8 46.6h1.8c1.4 0 2.6.2 3.7 1.1 1.1.9 1.6 2.2 1.6 3.6s-.5 2.6-1.5 3.5c-1.1 1-2.2 1.2-3.7 1.2H166v-9.4h-.2zm1.8 8.4c1.1 0 2.1-.2 3-1 .8-.7 1.2-1.7 1.2-2.8s-.4-2.1-1.2-2.8c-.9-.8-1.8-.9-2.9-.9h-.8V55h.7zM182.9 53.3l-1.1 2.7h-1.1l4.3-9.8 4.2 9.8H188l-1.1-2.7h-4zm2-4.7-1.6 3.8h3.2l-1.6-3.8zM191.9 46.6h1.8c1.4 0 2.6.2 3.7 1.1 1.1.9 1.6 2.2 1.6 3.6s-.5 2.6-1.5 3.5c-1.1 1-2.2 1.2-3.7 1.2h-1.7v-9.4h-.2zm1.8 8.4c1.1 0 2.1-.2 3-1 .8-.7 1.2-1.7 1.2-2.8s-.4-2.1-1.2-2.8c-.9-.8-1.8-.9-2.9-.9h-.8V55h.7zM202.1 46.6h1.8c1.4 0 2.6.2 3.7 1.1 1.1.9 1.6 2.2 1.6 3.6s-.5 2.6-1.5 3.5c-1.1 1-2.2 1.2-3.7 1.2h-1.7v-9.4h-.2zm1.8 8.4c1.1 0 2.1-.2 3-1 .8-.7 1.2-1.7 1.2-2.8s-.4-2.1-1.2-2.8c-.9-.8-1.8-.9-2.9-.9h-.8V55h.7zM213.4 55.9h-1v-9.4h1v9.4zM224.2 48.6c-.7-.8-1.8-1.2-2.9-1.2-2.1 0-3.8 1.8-3.8 3.9 0 2.1 1.7 3.9 3.8 3.9 1.1 0 2.1-.5 2.8-1.2v1.3c-.8.6-1.8.9-2.8.9-2.7 0-4.9-2.2-4.9-4.8 0-2.7 2.2-4.9 4.9-4.9 1 0 2 .3 2.8.9l.1 1.2zM230.1 55.9h-1v-8.4h-2.3v-1h5.6v1h-2.3v8.4zM236.3 55.9h-1v-9.4h1v9.4zM249.3 51.3c0 2.7-2.2 4.8-4.9 4.8s-4.9-2.1-4.9-4.8 2.2-4.9 4.9-4.9c2.6 0 4.9 2.2 4.9 4.9zm-8.8 0c0 2.1 1.7 3.9 3.8 3.9s3.8-1.8 3.8-3.9c0-2.1-1.7-3.9-3.8-3.9s-3.8 1.7-3.8 3.9zM252.5 46.2l7.3 7.7v-7.3h1v9.8l-7.3-7.7v7.2h-1v-9.7zM271.1 55.9h-1v-9.4h1.5c.8 0 1.6 0 2.3.5.7.5 1.1 1.3 1.1 2.1s-.3 1.5-.9 2-1.4.6-2.2.6h-.8v4.2zm0-5h.7c1.2 0 2.1-.3 2.1-1.7 0-1.5-1.2-1.6-2.5-1.6h-.4l.1 3.3zM279.1 55.9h-1v-9.4h1.4c1.8 0 3.4.5 3.4 2.6 0 1.4-.9 2.5-2.4 2.6l3 4.2h-1.3l-2.8-4.1h-.3v4.1zm0-5h.3c1.2 0 2.4-.2 2.4-1.7s-1.1-1.7-2.4-1.7h-.3v3.4zM286.6 46.6h4.9v1h-3.8v2.8h3.7v1h-3.7V55h3.8v1h-4.9v-9.4zM297.9 53.7l2.7-7.2h1.1l-3.8 9.9-3.8-9.9h1.1l2.7 7.2zM304.5 46.6h4.9v1h-3.8v2.8h3.7v1h-3.7V55h3.8v1h-4.9v-9.4zM312.9 46.2l7.3 7.7v-7.3h1v9.8l-7.3-7.7v7.2h-1v-9.7zM327.4 55.9h-1v-8.4h-2.3v-1h5.6v1h-2.3v8.4zM333.6 55.9h-1v-9.4h1v9.4zM346.5 51.3c0 2.7-2.2 4.8-4.9 4.8s-4.9-2.1-4.9-4.8 2.2-4.9 4.9-4.9 4.9 2.2 4.9 4.9zm-8.7 0c0 2.1 1.7 3.9 3.8 3.9 2.1 0 3.8-1.8 3.8-3.9 0-2.1-1.7-3.9-3.8-3.9-2.1 0-3.8 1.7-3.8 3.9zM349.7 46.2l7.3 7.7v-7.3h1v9.8l-7.3-7.7v7.2h-1v-9.7z" class="st0"/>
  <path d="M24.6 41.8c-2.3 0-4.6-.5-6.7-1.3-2.1-.9-4-2.1-5.6-3.7-1.6-1.6-2.9-3.5-3.8-5.5-.9-2.1-1.4-4.4-1.4-6.8s.4-4.6 1.3-6.8c.9-2.1 2.1-4 3.7-5.6s3.5-2.9 5.5-3.8c2.1-.9 4.4-1.4 6.8-1.4 2.3 0 4.6.4 6.8 1.3 2.1.9 4 2.1 5.6 3.7s2.9 3.5 3.8 5.5c.9 2.1 1.4 4.4 1.4 6.8s-.4 4.6-1.3 6.8c-.9 2.1-2.1 4-3.7 5.6-1.6 1.6-3.5 2.9-5.5 3.8-2.2.9-4.5 1.4-6.9 1.4zm0-34c-.1 0-.1 0 0 0-2.3 0-4.5.5-6.5 1.3s-3.7 2.1-5.3 3.6c-1.5 1.5-2.7 3.3-3.5 5.3-.9 2-1.4 4.2-1.3 6.4 0 2.2.5 4.4 1.3 6.5.8 2 2 3.7 3.6 5.3 1.5 1.5 3.3 2.7 5.3 3.5 2.1.9 4.2 1.3 6.5 1.3 2.2 0 4.4-.5 6.5-1.3 2-.8 3.7-2.1 5.3-3.6 1.5-1.5 2.7-3.3 3.5-5.3.9-2.1 1.3-4.2 1.3-6.5 0-2.2-.5-4.4-1.3-6.5-.8-2-2.1-3.7-3.6-5.3C34.7 11.1 33 9.9 31 9c-2.1-.8-4.2-1.2-6.4-1.2z" class="st3"/>
  <path d="m30.6 28.3 18.8-3.6-18.8-3.6 4.8-7.1-7.1 4.8L24.7 0l-3.6 18.7L14 14l4.8 7.1L0 24.7l18.8 3.6-4.8 7.1 7.1-4.7 3.6 18.7 3.7-18.7 7 4.7z" style="fill:#ffc212"/>
  <g class="st3">
    <path d="M77.7 16.7c-1.6-1.4-3.7-2.1-5.7-2.1-4.9 0-8.6 4.1-8.6 8.9 0 4.7 3.7 8.8 8.5 8.8 2.1 0 4.2-.8 5.8-2.2v3.2c-1.7 1-3.8 1.5-5.7 1.5-6.2 0-11.3-4.9-11.3-11.2 0-6.4 5.1-11.4 11.5-11.4 1.9 0 3.8.5 5.5 1.5v3zM109.7 23.4c0 6.4-5.1 11.3-11.4 11.3s-11.4-4.9-11.4-11.3c0-6.2 5.1-11.3 11.4-11.3s11.4 5.1 11.4 11.3zm-2.7 0c0-4.8-3.6-8.8-8.7-8.8s-8.7 4-8.7 8.8c0 4.9 4 8.8 8.7 8.8s8.7-3.8 8.7-8.8zM123.6 20 121 34.3h-2.8l4.4-22.6 7.4 17.1 7.4-17.1 4.4 22.6H139L136.7 20h-.1l-6.5 14.8-6.5-14.8zM154.7 34.3H152V12.6h3.1c6.7 0 8.7 2.3 8.7 6.3 0 4.6-3.5 6.3-7.6 6.3h-1.6v9.1h.1zm0-11.5h.9c2.8 0 5.8-.5 5.8-4 0-3.4-3.2-3.8-5.9-3.8h-.7v7.8h-.1zM174.7 28.9l-2.5 5.4h-2.9l10.4-22.6L190 34.3h-2.9l-2.5-5.4h-9.9zm4.9-11.3-3.9 8.8h7.7l-3.8-8.8zM209.1 16.7c-.8-1.4-1.8-2-3.5-2s-3.6 1.2-3.6 3.1c0 1.7 1.7 2.6 3 3.1l1.6.6c3.1 1.2 5.4 2.9 5.4 6.5 0 3.9-3 6.8-6.9 6.8-3.5 0-6.2-2.6-6.7-6.1l2.7-.6c0 2.4 1.9 4.1 4.2 4.1s4-2 4-4.2c0-2.3-1.9-3.3-3.7-4.1l-1.5-.6c-2.5-1.1-4.7-2.5-4.7-5.5 0-3.5 3.1-5.6 6.4-5.6 2.4 0 4.4 1.2 5.6 3.3l-2.3 1.2zM232.1 16.7c-.8-1.4-1.8-2-3.5-2s-3.6 1.2-3.6 3.1c0 1.7 1.7 2.6 3 3.1l1.6.6c3.1 1.2 5.4 2.9 5.4 6.5 0 3.9-3 6.8-6.9 6.8-3.5 0-6.2-2.6-6.7-6.1l2.7-.6c0 2.4 1.9 4.1 4.2 4.1s4-2 4-4.2c0-2.3-1.9-3.3-3.7-4.1l-1.5-.6c-2.5-1.1-4.7-2.5-4.7-5.5 0-3.5 3.1-5.6 6.4-5.6 2.4 0 4.4 1.2 5.6 3.3l-2.3 1.2zM265.2 20l-2.6 14.3h-2.8l4.4-22.6 7.4 17.1 7.4-17.1 4.4 22.6h-2.8L278.2 20h-.1l-6.5 14.8-6.4-14.8zM296.7 28.9l-2.5 5.4h-2.9l10.4-22.6L312 34.3h-2.9l-2.5-5.4h-9.9zm5-11.3-3.9 8.8h7.7l-3.8-8.8zM334.9 34.3h-3.3l-6.4-9.2h-1.1v9.2h-2.7V12.6h3.3c1.9 0 4 0 5.7 1 1.8 1.1 2.8 3.1 2.8 5.2 0 3.1-2.1 5.7-5.2 6.1l6.9 9.4zm-10.8-11.4h.9c2.8 0 5.8-.5 5.8-4 0-3.4-3.2-3.9-5.9-3.9h-.7l-.1 7.9zM356.6 12.6h3.5l-9.8 9.8 9.9 11.9h-3.7l-8.2-10.1-1.1 1v9.1h-2.7V12.6h2.7V22l9.4-9.4z"/>
  </g>
</svg>
