<svg version="1.1" xmlns="http://www.w3.org/2000/svg" xmlns:xlink="http://www.w3.org/1999/xlink" x="0px" y="0px" viewBox="0 0 360.3 56.5" style="enable-background:new 0 0 360.3 56.5;" xml:space="preserve">
								<style type="text/css">.st0{fill:#8A8C8E;} .st1{fill:#FFC212;}</style>
								<g>
									<path class="st0" d="M65.8,48.4c-0.4-0.6-0.8-1-1.6-1c-0.8,0-1.6,0.6-1.6,1.5c0,0.8,0.8,1.2,1.5,1.5l0.6,0.3
										c1.2,0.5,2.3,1.1,2.3,2.6c0,1.6-1.3,2.9-3,2.9c-1.5,0-2.6-1-2.9-2.4l1-0.3c0.1,1,0.9,1.7,1.9,1.7s1.9-0.8,1.9-1.8
										c0-1.1-0.9-1.5-1.7-1.9l-0.6-0.2c-1.1-0.5-2-1.1-2-2.4c0-1.5,1.2-2.4,2.6-2.4c1,0,1.9,0.5,2.4,1.5L65.8,48.4z"></path>
									<path class="st0" d="M77.4,48.6c-0.7-0.8-1.8-1.2-2.9-1.2c-2.1,0-3.8,1.8-3.8,3.9c0,2.1,1.7,3.9,3.8,3.9c1.1,0,2.1-0.5,2.8-1.2v1.3
										c-0.8,0.6-1.8,0.9-2.8,0.9c-2.7,0-4.9-2.2-4.9-4.8c0-2.7,2.2-4.9,4.9-4.9c1,0,2,0.3,2.8,0.9L77.4,48.6L77.4,48.6z"></path>
									<path class="st0" d="M81.9,55.9h-1v-9.4h1V55.9z"></path>
									<path class="st0" d="M85.6,46.6h4.9v1h-3.8v2.8h3.7v1h-3.7V55h3.8v1h-4.9V46.6z"></path>
									<path class="st0" d="M94,46.2l7.3,7.7v-7.3h1v9.8L95,48.7v7.2h-1V46.2z"></path>
									<path class="st0" d="M113.2,48.6c-0.7-0.8-1.8-1.2-2.9-1.2c-2.1,0-3.8,1.8-3.8,3.9c0,2.1,1.7,3.9,3.8,3.9c1.1,0,2.1-0.5,2.8-1.2
										v1.3c-0.8,0.6-1.8,0.9-2.8,0.9c-2.7,0-4.9-2.2-4.9-4.8c0-2.7,2.2-4.9,4.9-4.9c1,0,2,0.3,2.8,0.9L113.2,48.6L113.2,48.6z"></path>
									<path class="st0" d="M116.7,46.6h4.9v1h-3.8v2.8h3.7v1h-3.7V55h3.8v1h-4.9V46.6z"></path>
									<path class="st0" d="M126.7,52.5v0.9h-2.6v-0.9H126.7z"></path>
									<path class="st0" d="M129.4,46.6h1.5c1.7,0,3.1,0.6,3.1,2.5c0,0.8-0.3,1.4-0.9,1.8c1.1,0.3,1.8,1.3,1.8,2.4c0,1.9-1.5,2.6-3.4,2.6
										h-2.2L129.4,46.6L129.4,46.6z M130.5,50.7h0.4c1.2,0,2.2-0.1,2.2-1.6c0-1.4-0.9-1.6-2.2-1.6h-0.4V50.7z M130.5,55h1
										c1.2,0,2.4-0.3,2.4-1.7c0-1.5-1.4-1.7-2.5-1.7h-0.9V55z"></path>
									<path class="st0" d="M139.6,53.3l-1.1,2.7h-1.1l4.3-9.8l4.2,9.8h-1.2l-1.1-2.7H139.6z M141.7,48.6l-1.6,3.8h3.2L141.7,48.6z"></path>
									<path class="st0" d="M152.9,48.4c-0.4-0.6-0.8-1-1.6-1s-1.6,0.6-1.6,1.5c0,0.8,0.8,1.2,1.5,1.5l0.6,0.3c1.2,0.5,2.3,1.1,2.3,2.6
										c0,1.6-1.3,2.9-3,2.9c-1.5,0-2.6-1-2.9-2.4l1-0.3c0.1,1,0.9,1.7,1.9,1.7s1.9-0.8,1.9-1.8c0-1.1-0.9-1.5-1.7-1.9l-0.6-0.2
										c-1.1-0.5-2-1.1-2-2.4c0-1.5,1.2-2.4,2.6-2.4c1,0,1.9,0.5,2.4,1.5L152.9,48.4z"></path>
									<path class="st0" d="M157.4,46.6h4.9v1h-3.8v2.8h3.7v1h-3.7V55h3.8v1h-4.9V46.6z"></path>
									<path class="st0" d="M165.8,46.6h1.8c1.4,0,2.6,0.2,3.7,1.1c1.1,0.9,1.6,2.2,1.6,3.6c0,1.4-0.5,2.6-1.5,3.5c-1.1,1-2.2,1.2-3.7,1.2
										H166v-9.4H165.8z M167.6,55c1.1,0,2.1-0.2,3-1c0.8-0.7,1.2-1.7,1.2-2.8s-0.4-2.1-1.2-2.8c-0.9-0.8-1.8-0.9-2.9-0.9h-0.8V55H167.6z"></path>
									<path class="st0" d="M182.9,53.3l-1.1,2.7h-1.1l4.3-9.8l4.2,9.8H188l-1.1-2.7H182.9z M184.9,48.6l-1.6,3.8h3.2L184.9,48.6z"></path>
									<path class="st0" d="M191.9,46.6h1.8c1.4,0,2.6,0.2,3.7,1.1c1.1,0.9,1.6,2.2,1.6,3.6c0,1.4-0.5,2.6-1.5,3.5c-1.1,1-2.2,1.2-3.7,1.2
										h-1.7v-9.4H191.9z M193.7,55c1.1,0,2.1-0.2,3-1c0.8-0.7,1.2-1.7,1.2-2.8s-0.4-2.1-1.2-2.8c-0.9-0.8-1.8-0.9-2.9-0.9H193V55H193.7z"></path>
									<path class="st0" d="M202.1,46.6h1.8c1.4,0,2.6,0.2,3.7,1.1c1.1,0.9,1.6,2.2,1.6,3.6c0,1.4-0.5,2.6-1.5,3.5c-1.1,1-2.2,1.2-3.7,1.2
										h-1.7v-9.4H202.1z M203.9,55c1.1,0,2.1-0.2,3-1c0.8-0.7,1.2-1.7,1.2-2.8s-0.4-2.1-1.2-2.8c-0.9-0.8-1.8-0.9-2.9-0.9h-0.8V55H203.9z
										"></path>
									<path class="st0" d="M213.4,55.9h-1v-9.4h1V55.9z"></path>
									<path class="st0" d="M224.2,48.6c-0.7-0.8-1.8-1.2-2.9-1.2c-2.1,0-3.8,1.8-3.8,3.9c0,2.1,1.7,3.9,3.8,3.9c1.1,0,2.1-0.5,2.8-1.2
										v1.3c-0.8,0.6-1.8,0.9-2.8,0.9c-2.7,0-4.9-2.2-4.9-4.8c0-2.7,2.2-4.9,4.9-4.9c1,0,2,0.3,2.8,0.9L224.2,48.6L224.2,48.6z"></path>
									<path class="st0" d="M230.1,55.9h-1v-8.4h-2.3v-1h5.6v1h-2.3V55.9z"></path>
									<path class="st0" d="M236.3,55.9h-1v-9.4h1V55.9z"></path>
									<path class="st0" d="M249.3,51.3c0,2.7-2.2,4.8-4.9,4.8s-4.9-2.1-4.9-4.8s2.2-4.9,4.9-4.9C247,46.4,249.3,48.6,249.3,51.3z
										 M240.5,51.3c0,2.1,1.7,3.9,3.8,3.9s3.8-1.8,3.8-3.9c0-2.1-1.7-3.9-3.8-3.9S240.5,49.1,240.5,51.3z"></path>
									<path class="st0" d="M252.5,46.2l7.3,7.7v-7.3h1v9.8l-7.3-7.7v7.2h-1L252.5,46.2L252.5,46.2z"></path>
									<path class="st0" d="M271.1,55.9h-1v-9.4h1.5c0.8,0,1.6,0,2.3,0.5c0.7,0.5,1.1,1.3,1.1,2.1s-0.3,1.5-0.9,2s-1.4,0.6-2.2,0.6h-0.8
										V55.9z M271.1,50.9h0.7c1.2,0,2.1-0.3,2.1-1.7c0-1.5-1.2-1.6-2.5-1.6H271L271.1,50.9L271.1,50.9z"></path>
									<path class="st0" d="M279.1,55.9h-1v-9.4h1.4c1.8,0,3.4,0.5,3.4,2.6c0,1.4-0.9,2.5-2.4,2.6l3,4.2h-1.3l-2.8-4.1h-0.3L279.1,55.9
										L279.1,55.9z M279.1,50.9h0.3c1.2,0,2.4-0.2,2.4-1.7s-1.1-1.7-2.4-1.7h-0.3V50.9z"></path>
									<path class="st0" d="M286.6,46.6h4.9v1h-3.8v2.8h3.7v1h-3.7V55h3.8v1h-4.9V46.6z"></path>
									<path class="st0" d="M297.9,53.7l2.7-7.2h1.1l-3.8,9.9l-3.8-9.9h1.1L297.9,53.7z"></path>
									<path class="st0" d="M304.5,46.6h4.9v1h-3.8v2.8h3.7v1h-3.7V55h3.8v1h-4.9V46.6z"></path>
									<path class="st0" d="M312.9,46.2l7.3,7.7v-7.3h1v9.8l-7.3-7.7v7.2h-1V46.2z"></path>
									<path class="st0" d="M327.4,55.9h-1v-8.4h-2.3v-1h5.6v1h-2.3L327.4,55.9L327.4,55.9z"></path>
									<path class="st0" d="M333.6,55.9h-1v-9.4h1V55.9z"></path>
									<path class="st0" d="M346.5,51.3c0,2.7-2.2,4.8-4.9,4.8s-4.9-2.1-4.9-4.8s2.2-4.9,4.9-4.9S346.5,48.6,346.5,51.3z M337.8,51.3
										c0,2.1,1.7,3.9,3.8,3.9c2.1,0,3.8-1.8,3.8-3.9c0-2.1-1.7-3.9-3.8-3.9C339.5,47.4,337.8,49.1,337.8,51.3z"></path>
									<path class="st0" d="M349.7,46.2l7.3,7.7v-7.3h1v9.8l-7.3-7.7v7.2h-1V46.2z"></path>
								</g>
								<g class="st3">
									<path d="M24.6,41.8c-2.3,0-4.6-0.5-6.7-1.3c-2.1-0.9-4-2.1-5.6-3.7c-1.6-1.6-2.9-3.5-3.8-5.5c-0.9-2.1-1.4-4.4-1.4-6.8
										s0.4-4.6,1.3-6.8c0.9-2.1,2.1-4,3.7-5.6s3.5-2.9,5.5-3.8c2.1-0.9,4.4-1.4,6.8-1.4c2.3,0,4.6,0.4,6.8,1.3c2.1,0.9,4,2.1,5.6,3.7
										s2.9,3.5,3.8,5.5l0,0c0.9,2.1,1.4,4.4,1.4,6.8s-0.4,4.6-1.3,6.8c-0.9,2.1-2.1,4-3.7,5.6c-1.6,1.6-3.5,2.9-5.5,3.8
										C29.3,41.3,27,41.8,24.6,41.8L24.6,41.8z M24.6,7.8C24.5,7.8,24.5,7.8,24.6,7.8c-2.3,0-4.5,0.5-6.5,1.3s-3.7,2.1-5.3,3.6
										c-1.5,1.5-2.7,3.3-3.5,5.3c-0.9,2-1.4,4.2-1.3,6.4c0,2.2,0.5,4.4,1.3,6.5c0.8,2,2,3.7,3.6,5.3c1.5,1.5,3.3,2.7,5.3,3.5
										c2.1,0.9,4.2,1.3,6.5,1.3c2.2,0,4.4-0.5,6.5-1.3c2-0.8,3.7-2.1,5.3-3.6c1.5-1.5,2.7-3.3,3.5-5.3c0.9-2.1,1.3-4.2,1.3-6.5
										c0-2.2-0.5-4.4-1.3-6.5l0,0c-0.8-2-2.1-3.7-3.6-5.3C34.7,11.1,33,9.9,31,9C28.9,8.2,26.8,7.8,24.6,7.8z"></path>
								</g>
								<polygon class="st1" points="30.6,28.3 49.4,24.7 30.6,21.1 35.4,14 28.3,18.8 24.7,0 21.1,18.7 14,14 18.8,21.1 0,24.7 18.8,28.3 14,35.4 21.1,30.7 24.7,49.4 28.4,30.7 35.4,35.4 "></polygon>
								<g class="st3">
									<path d="M77.7,16.7c-1.6-1.4-3.7-2.1-5.7-2.1c-4.9,0-8.6,4.1-8.6,8.9c0,4.7,3.7,8.8,8.5,8.8c2.1,0,4.2-0.8,5.8-2.2v3.2
										c-1.7,1-3.8,1.5-5.7,1.5c-6.2,0-11.3-4.9-11.3-11.2c0-6.4,5.1-11.4,11.5-11.4c1.9,0,3.8,0.5,5.5,1.5L77.7,16.7L77.7,16.7z"></path>
									<path d="M109.7,23.4c0,6.4-5.1,11.3-11.4,11.3s-11.4-4.9-11.4-11.3c0-6.2,5.1-11.3,11.4-11.3S109.7,17.2,109.7,23.4z M107,23.4
										c0-4.8-3.6-8.8-8.7-8.8s-8.7,4-8.7,8.8c0,4.9,4,8.8,8.7,8.8S107,28.4,107,23.4z"></path>
									<path d="M123.6,20L123.6,20L121,34.3h-2.8l4.4-22.6l7.4,17.1l7.4-17.1l4.4,22.6H139L136.7,20h-0.1l-6.5,14.8L123.6,20z"></path>
									<path d="M154.7,34.3H152V12.6h3.1c6.7,0,8.7,2.3,8.7,6.3c0,4.6-3.5,6.3-7.6,6.3h-1.6v9.1C154.6,34.3,154.7,34.3,154.7,34.3z
										 M154.7,22.8h0.9c2.8,0,5.8-0.5,5.8-4c0-3.4-3.2-3.8-5.9-3.8h-0.7v7.8H154.7z"></path>
									<path d="M174.7,28.9l-2.5,5.4h-2.9l10.4-22.6L190,34.3h-2.9l-2.5-5.4H174.7z M179.6,17.6l-3.9,8.8h7.7L179.6,17.6z"></path>
									<path d="M209.1,16.7c-0.8-1.4-1.8-2-3.5-2s-3.6,1.2-3.6,3.1c0,1.7,1.7,2.6,3,3.1l1.6,0.6c3.1,1.2,5.4,2.9,5.4,6.5
										c0,3.9-3,6.8-6.9,6.8c-3.5,0-6.2-2.6-6.7-6.1l2.7-0.6c0,2.4,1.9,4.1,4.2,4.1s4-2,4-4.2c0-2.3-1.9-3.3-3.7-4.1l-1.5-0.6
										c-2.5-1.1-4.7-2.5-4.7-5.5c0-3.5,3.1-5.6,6.4-5.6c2.4,0,4.4,1.2,5.6,3.3L209.1,16.7z"></path>
									<path d="M232.1,16.7c-0.8-1.4-1.8-2-3.5-2s-3.6,1.2-3.6,3.1c0,1.7,1.7,2.6,3,3.1l1.6,0.6c3.1,1.2,5.4,2.9,5.4,6.5
										c0,3.9-3,6.8-6.9,6.8c-3.5,0-6.2-2.6-6.7-6.1l2.7-0.6c0,2.4,1.9,4.1,4.2,4.1s4-2,4-4.2c0-2.3-1.9-3.3-3.7-4.1l-1.5-0.6
										c-2.5-1.1-4.7-2.5-4.7-5.5c0-3.5,3.1-5.6,6.4-5.6c2.4,0,4.4,1.2,5.6,3.3L232.1,16.7z"></path>
									<path d="M265.2,20L265.2,20l-2.6,14.3h-2.8l4.4-22.6l7.4,17.1l7.4-17.1l4.4,22.6h-2.8L278.2,20h-0.1l-6.5,14.8L265.2,20z"></path>
									<path d="M296.7,28.9l-2.5,5.4h-2.9l10.4-22.6L312,34.3h-2.9l-2.5-5.4H296.7z M301.7,17.6l-3.9,8.8h7.7L301.7,17.6z"></path>
									<path d="M334.9,34.3h-3.3l-6.4-9.2h-1.1v9.2h-2.7V12.6h3.3c1.9,0,4,0,5.7,1c1.8,1.1,2.8,3.1,2.8,5.2c0,3.1-2.1,5.7-5.2,6.1
										L334.9,34.3z M324.1,22.9h0.9c2.8,0,5.8-0.5,5.8-4c0-3.4-3.2-3.9-5.9-3.9h-0.7L324.1,22.9L324.1,22.9z"></path>
									<path d="M356.6,12.6h3.5l-9.8,9.8l9.9,11.9h-3.7l-8.2-10.1l-1.1,1v9.1h-2.7V12.6h2.7V22L356.6,12.6z"></path>
								</g>
							</svg>