<svg xmlns="http://www.w3.org/2000/svg" fill="none" viewBox="0 0 248 124">
  <g fill="#00543d">
    <path d="M213.045 102.403c0-.255.088-.476.275-.665.187-.188.407-.287.649-.287.243 0 .452.088.617.265.165.178.253.399.253.676s-.088.498-.264.687c-.176.188-.385.276-.639.276-.253 0-.451-.099-.627-.276-.176-.189-.264-.41-.264-.676zM212.858 101.517v.565c-.44.476-.881.808-1.321 1.008-.44.188-.946.288-1.541.288-.638 0-1.221-.167-1.739-.51-.517-.332-.913-.819-1.188-1.429-.276-.62-.419-1.229-.419-1.8159 0-.6535.165-1.2626.507-1.8496.33-.5759.781-1.0079 1.331-1.2958.551-.288 1.244-.432 2.081-.432.836 0 1.408.1329 1.827.4098.231.1551.352.3655.352.6202 0 .1883-.055.3323-.176.4541-.121.1218-.275.1772-.463.1772-.286 0-.605-.1772-.946-.5316-.209-.2215-.407-.3766-.572-.4541-.177-.0886-.364-.1218-.573-.1218-.506 0-.935.2104-1.276.6313-.474.5981-.705 1.3512-.705 2.2594 0 .9078.242 1.6838.727 2.2368.484.554 1.045.831 1.684.831.451 0 .847-.077 1.188-.221.341-.144.749-.421 1.222-.82zM198.186 102.813c.144-.045.309-.078.496-.1.363-.055.572-.111.649-.177.077-.067.11-.233.11-.476l.022-.31v-.443l-.022-2.6475c0-.3544-.044-.587-.132-.6867-.154-.155-.44-.2768-.858-.3322v-.3212c.418-.1218.737-.2658.957-.4541.33-.2547.605-.6091.826-1.0632h.297c.022.2768.022.4762.022.587v.7309c.077-.0443.154-.0996.253-.1772.341-.2547.693-.4762 1.056-.6423.364-.1662.683-.2769.958-.3434.176-.0443.374-.0664.605-.0664.474 0 .87.1329 1.211.3765.341.2548.561.5538.66.8971.099.3434.154 1.03.154 2.049v1.3067s0 .155-.011.344c0 .199-.011.42-.011.675 0 .41.022.665.055.775.034.078.1.155.221.233.55.077.869.166.957.266v.066c0 .056-.022.133-.055.222h-.165l-1.134-.022-1.122.022h-1.145l-.055-.177s.022-.078.055-.133c.154-.067.374-.122.65-.133.165-.011.275-.034.341-.056s.143-.066.231-.133c.066-.144.099-.254.099-.343 0-.044 0-.122-.022-.244-.022-.265-.033-.93-.033-1.982v-.4541l.022-.6978c0-.742-.154-1.2626-.451-1.5395-.298-.2879-.694-.4208-1.2-.4208-.385 0-.759.0886-1.123.2547-.363.1661-.726.4209-1.067.7642-.011.2769-.022.5095-.022.7088l.022 1.9165c0 .996.011 1.606.044 1.838.011.089.033.155.055.188.044.045.132.078.275.111.132.033.297.067.473.122.176.055.297.077.352.1.11.033.188.088.232.177v.177h-.914l-1.86-.022h-1.035l-.022-.111s0-.1.022-.177z"/>
    <path d="M192.859 102.824c.121-.055.254-.089.386-.1.88-.055 1.375-.166 1.507-.321.122-.155.188-.897.188-2.226v-1.8608l-.033-1.0522.022-.6202V95.1708l-.022-.3544.022-.4541v-.3655c0-.3655-.022-.742-.055-1.1518-.022-.0776-.056-.1551-.1-.2326-.209-.1108-.55-.1883-1.023-.2215-.473-.0333-.738-.0776-.804-.1219-.044-.0332-.077-.1218-.077-.2658h.727l2.278.0554c.583 0 1.365-.0221 2.344-.0554 0 .0886 0 .1772-.022.2548-.11.0332-.308.0553-.572.0996-.55.0665-.88.1219-1.002.1773-.077.0332-.132.0775-.165.1439-.055.0997-.088.2991-.099.576l-.044 1.1186.033 3.8542v1.5284c-.011.476-.022.809-.022.975 0 .642.011 1.063.044 1.24.033.177.088.31.165.388.077.077.21.133.386.188.264.066.473.1.616.1.319 0 .528.055.605.133.022.077.022.132.022.188v.066c-.517.022-.902.022-1.155.022-.143 0-.397 0-.771-.022l-1.188.022h-2.191l-.022-.254z"/>
  </g>
  <g fill="#00543d">
    <path d="M243.256 95.9461v-.4874c.143-.0664.264-.1218.385-.1772 1.09-.5205 1.816-1.0632 2.191-1.617.363-.5648.55-1.0632.55-1.4951 0-.288-.099-.5538-.308-.7642-.209-.2216-.562-.3877-1.068-.4984-.506-.1108-.836-.1994-.99-.2548-.099-.0443-.232-.144-.386-.3101-.099-.2215-.154-.4319-.154-.6313 0-.4873.099-.8306.297-1.0078.419-.3655.848-.5538 1.288-.5538.793 0 1.475.3101 2.058.9192.584.6092.87 1.3734.87 2.2926 0 .6424-.209 1.3291-.628 2.0711-.418.7421-1.045 1.3402-1.882 1.8053-.836.4541-1.585.6978-2.234.7089zM242.926 88.2265c.066.1329.088.2326.088.299 0 .1551-.121.432-.374.8307-.319.5205-.682.9082-1.078 1.1408-.253.155-.595.2325-1.024.2325-.748 0-1.31-.2325-1.684-.6866-.231-.2769-.385-.7642-.484-1.462l-1.75 1.2183c-.616.3544-1.079.5759-1.398.6756-.517.1329-1.144.1994-1.871.1994-.528 0-.946-.1551-1.255-.4763-.308-.3212-.462-.731-.462-1.2293 0-.7199.44-1.5838 1.321-2.5917.88-1.0079 2.069-1.8274 3.588-2.4587 1.056-.4541 1.717-.7421 1.948-.8639.022-.3433.033-.7199.033-1.1297 0-1.329-.187-2.2261-.55-2.7024-.375-.4652-.903-.7088-1.585-.7088-.683 0-1.387.288-2.014.8528-.386.3544-.683 1.0189-.881 2.0046-.066.2769-.176.5649-.363.875-.451.288-.803.443-1.079.443-.231 0-.44-.0664-.627-.1993-.099-.0776-.154-.1551-.154-.2548 0-.2769.286-.886.869-1.8385.573-.9636 1.299-1.6724 2.18-2.1486.88-.4763 1.64-.7088 2.3-.7088.891 0 1.563.0775 1.992.2436.44.1661.826.443 1.156.8528.33.4098.539.8528.605 1.3291.044.2325.066 1.0521.066 2.4587l-.044 2.492v1.8163c.011.2437 0 .443 0 .6092 0 .299-.011.5316-.011.6756 0 .3433.099.6202.297.8306.198.2105.429.3101.705.3101.396 0 .737-.1993 1.012-.598l.187-.2548s.165-.0664.341-.1107zm-4.567-.4541c.077-1.329.11-2.2594.11-2.8021 0-.2879-.011-.6645-.044-1.1407-.693.2547-1.442.6313-2.223 1.1407-.782.5095-1.398 1.1076-1.86 1.7721-.33.4762-.496.9303-.496 1.3623 0 .4098.143.742.419 1.0189.275.2769.627.4098 1.034.4098.319 0 .716-.1108 1.178-.3433.605-.2991 1.233-.7753 1.893-1.4066zM225.13 79.2222v-.4651c.693-.1994 1.056-.3101 1.1-.3434.374-.1661.771-.4208 1.178-.7752.407-.3434.759-.731 1.034-1.1629.121-.0222.221-.0333.298-.0333h.187c.044.5206.066.8861.066 1.1186 0 .0554 0 .288-.033.7089v5.3494l-.033 4.7845c0 .3877.055.6535.187.8085.132.1551.539.3212 1.199.5095.419.1108.727.2104.936.299.033.0776.044.1329.044.1883 0 .0665-.022.144-.077.2326-.407 0-.925-.0332-1.563-.0775-.858-.0775-1.431-.1108-1.717-.1108-.132 0-.968.0222-2.498.0776-.308 0-.617.0332-.903.0775-.055 0-.132-.0111-.253-.0443-.055-.0775-.077-.1329-.077-.1883 0-.144.099-.2658.297-.3433.044-.0222.573-.144 1.585-.3544.33-.0665.55-.1662.649-.3102.177-.2215.265-.5648.265-1.0521.022-.8085.033-3.0015.033-6.612 0-.7199-.033-1.174-.088-1.3512-.055-.1218-.188-.2658-.408-.432-.22-.1661-.704-.3212-1.43-.4984zm1.309-8.1404c0-.3433.132-.6423.397-.8971.264-.2547.583-.3765.957-.3765s.726.1439 1.013.4208c.286.2769.44.587.44.9082 0 .3212-.143.6313-.44.9193-.287.2879-.628.4319-1.013.4319-.385 0-.704-.1329-.968-.3876-.265-.2658-.386-.5981-.386-1.019z"/>
    <path d="M209.809 89.8435c.264-.0775.561-.1329.902-.1883.65-.0886 1.046-.1993 1.178-.3322.132-.1219.198-.4098.198-.8639l.033-.5649c0-.2104.011-.4762.011-.7974l-.033-4.7956c0-.6424-.088-1.0633-.253-1.2515-.275-.288-.803-.4984-1.563-.6092v-.5759c.76-.2104 1.343-.4873 1.75-.8196.594-.4762 1.09-1.1075 1.497-1.916h.528c.033.5094.044.8638.044 1.0743v1.318c.143-.0886.286-.1883.452-.3212.627-.4763 1.265-.8528 1.915-1.1519.649-.299 1.232-.5094 1.75-.6202.319-.0886.682-.1218 1.089-.1218.848 0 1.585.2326 2.201.6866.617.4652 1.013 1.0079 1.189 1.6281.187.6203.275 1.8607.275 3.7103v2.3701c0 .0665 0 .2769-.022.6313-.011.3544-.022.7642-.022 1.2294 0 .731.033 1.1961.088 1.3955.055.1329.187.2769.407.4098 1.002.1329 1.574.299 1.75.4873v.1218c0 .0997-.033.2326-.088.3876h-.297l-2.058-.0332-2.025.0443c-.749.0222-1.442.0111-2.069-.0111l-.088-.3322c0-.0665.033-.144.11-.2547.275-.1219.671-.2105 1.188-.2548.298-.0221.507-.0554.628-.0997.11-.0443.253-.1218.418-.2547.121-.2547.187-.4652.187-.6313 0-.0775 0-.2215-.033-.443-.033-.4762-.055-1.6835-.066-3.5995v-.8196l.033-1.2515c0-1.3512-.275-2.2815-.814-2.791-.54-.5095-1.266-.7753-2.169-.7753-.693 0-1.375.1551-2.036.4652-.66.3101-1.309.7753-1.937 1.3844-.022.4984-.033.9303-.033 1.2848l.044 3.4666c0 1.8052.022 2.9128.077 3.3226.022.1661.055.2879.11.3433.088.0886.253.1551.496.1994.253.0553.539.1218.869.2215.33.0886.539.155.649.1772.21.0554.353.155.419.3101v.3101h-1.651l-3.368-.0443c-.782 0-1.277.0111-1.475.0111h-.385l-.033-.1994c0-.0775.011-.1772.044-.3101z"/>
    <path d="M210.194 88.2265c.066.1329.088.2326.088.299 0 .1551-.121.432-.374.8307-.319.5205-.682.9082-1.079 1.1408-.253.155-.594.2325-1.023.2325-.748 0-1.31-.2325-1.684-.6866-.231-.2769-.385-.7642-.484-1.462l-1.75 1.2183c-.617.3544-1.079.5759-1.398.6756-.517.1329-1.145.1994-1.871.1994-.528 0-.947-.1551-1.255-.4763-.308-.3212-.462-.731-.462-1.2293 0-.7199.44-1.5838 1.321-2.5917.88-1.0079 2.08-1.8274 3.588-2.4587 1.056-.4541 1.717-.7421 1.948-.8639.022-.3433.033-.7199.033-1.1297 0-1.329-.187-2.2261-.55-2.7024-.364-.4762-.903-.7088-1.585-.7088-.683 0-1.387.288-2.014.8528-.386.3544-.683 1.0189-.87 2.0046-.066.2769-.187.5649-.363.875-.451.288-.804.443-1.079.443-.231 0-.44-.0664-.627-.1993-.099-.0776-.154-.1551-.154-.2548 0-.2769.286-.886.869-1.8385.573-.9636 1.299-1.6724 2.179-2.1486.881-.4763 1.64-.7088 2.301-.7088.891 0 1.563.0775 1.992.2436.44.1661.825.443 1.155.8528.331.4098.54.8528.606 1.3291.044.2325.066 1.0521.066 2.4587l-.044 2.492v1.8163c.011.2437 0 .443 0 .6092 0 .299-.011.5316-.011.6756 0 .3433.099.6202.297.8306.198.2105.429.3101.704.3101.397 0 .727-.1993 1.013-.598l.187-.2548s.165-.0664.341-.1107zm-4.567-.4541c.077-1.329.11-2.2594.11-2.8021 0-.2879-.011-.6645-.044-1.1407-.694.2547-1.442.6313-2.223 1.1407-.782.5095-1.398 1.1076-1.861 1.7721-.33.4762-.495.9303-.495 1.3623 0 .4098.132.742.418 1.0189.276.2769.628.4098 1.046.4098.319 0 .715-.1108 1.178-.3433.605-.2991 1.232-.7753 1.893-1.4066zM184.275 77.8932c1.156.0111 2.157.0554 3.027.1218.616 0 1.056 0 1.342-.0332.198 0 .32-.0111.375-.0111h1.749c.243.0554.43.0886.573.0997.066.0221.121.0775.176.1772 0 .0997-.033.2104-.088.3323-.176.0553-.363.0775-.55.0886-.782.0775-1.431.1993-1.96.3544-.077.0554-.11.0997-.11.155 0 .0997.055.2658.155.4763.022.0553.066.1772.143.3765l1.562 3.7657c.694 1.7277 1.343 3.1786 1.938 4.3637.407-.7753.781-1.5727 1.122-2.4034.341-.8306.848-2.1265 1.508-3.9096.187-.4984.363-1.1186.528-1.8607.033-.1439.044-.2658.044-.3765 0-.1219-.066-.2658-.209-.4098-.143-.1551-.374-.2769-.704-.3655-.077 0-.551-.0886-1.42-.2326-.077-.0443-.143-.0997-.198-.1772v-.1218s0-.1219.011-.1994c.253-.0332.429-.0443.55-.0443h1.838c.121.0111.418 0 .892-.0332 1.651 0 2.641.0111 2.982.0443.066.0221.121.0886.176.1883 0 .0886-.033.1993-.088.3101l-.484.1218c-.121 0-.22.0222-.297.0332-.892.0776-1.442.2105-1.651.3766-.154.1108-.396.6535-.737 1.6059-.154.4763-.386 1.0633-.683 1.7942l-.803 1.9825c-.11.288-.242.5981-.374.9304l-2.411 5.6263h-.484c-.088-.2548-.209-.5095-.341-.7864l-1.189-2.5252-2.784-6.5788c-.562-1.2736-.903-1.9714-1.013-2.071-.11-.0997-.781-.3212-1.992-.6646-.066-.1661-.088-.2879-.088-.3655v-.1439zM179.223 70.9268v-.3434c.286-.0996.616-.1993.968-.299.518-.1661 1.299-.4209 2.323-.7642h.737v.8639c0 8.5945-.022 13.7113-.077 15.3615-.033.9747-.044 1.4952-.044 1.5506 0 1.174.044 1.8274.143 1.9603.121.1883.506.3212 1.145.3877.638.0775 1.012.144 1.133.2215.088.0443.121.1107.121.2215 0 .1107-.022.1993-.066.2436-.044.0443-.132.0665-.253.0665-.077 0-.616-.0221-1.64-.0554l-2.047-.0775-2.619.1218c-.165 0-.286-.0221-.374-.0997-.067-.0553-.089-.1329-.089-.2215 0-.1107.034-.1882.1-.2325.066-.0443.44-.1329 1.122-.2437.683-.1108 1.068-.2104 1.167-.288.099-.0775.165-.2547.198-.5205.044-.3766.066-1.4398.066-3.1786v-3.6106l.033-3.7324v-3.7324l.033-1.8385c0-.3655-.055-.6313-.176-.7864-.11-.1661-.363-.3212-.738-.4762-.561-.2326-.946-.3987-1.155-.4984z"/>
    <path d="M166.588 78.0039c.231-.0221.418-.0332.572-.0332h.749l1.012-.0332 1.321.0443 1.079-.0332c.572 0 1.089.0332 1.54.1107.044.0997.067.1883.067.2548v.1218c-.232.0997-.573.1772-1.024.2215-.638.0554-1.101.1661-1.387.3433l-.033.1772c0 .0997.044.2659.121.4652.055.1218.121.3212.209.5648.231.7753.727 2.2705 1.486 4.4967.55 1.6059 1.068 2.9792 1.53 4.1311.286-.6313.616-1.4287.98-2.4034l1.309-3.7213c.308-.8085.529-1.6281.694-2.4366.066-.3212.088-.5759.088-.7642 0-.1551-.066-.299-.198-.443-.132-.1329-.408-.2547-.815-.3433-.737-.1883-1.133-.3102-1.2-.3545-.066-.0443-.099-.1439-.11-.3101.066-.0553.133-.0996.221-.1218H179.63c.077 0 .187 0 .363.0332.099.0554.154.1329.154.2548 0 .0996-.044.1993-.143.2879l-.308.0443c-.605.0886-1.067.2437-1.387.4652-.176.1218-.33.3876-.451.7863-.044.144-.11.3323-.198.5649-.055.1218-.132.3322-.231.6313-.099.2879-.231.6424-.385 1.03l-.187.443v.0775l-2.664 7.0218-1.926 5.283c-.121.2658-.275.587-.44.9746-.396.7421-.627 1.1519-.704 1.2294-.309.3876-.584.6645-.815.8196l-.792.3433c-.154.0443-.32.0665-.496.0665-.473 0-.814-.0997-1.034-.3102-.22-.2104-.33-.4873-.33-.8417 0-.3323.165-.6424.484-.9192.099-.0333.209-.0776.308-.1219l.198-.0443c.925.1662 1.508.2548 1.728.2548.22-.1108.374-.2437.484-.4098.507-.7642.947-1.606 1.31-2.5474.363-.9414.55-1.5727.55-1.8939 0-.3544-.132-.8749-.407-1.5505l-1.728-4.6074c-.242-.598-.957-2.5362-2.135-5.8367-.077-.2104-.165-.3655-.275-.4762l-1.057-.3877-.33-.0664c-.176-.0776-.264-.1772-.264-.3101l.077-.1994zM158.278 86.3769c.385.9968.672 1.6392.87 1.9272.396.598.869 1.0521 1.42 1.3844.55.3322 1.144.4984 1.794.4984.594 0 1.177-.2548 1.76-.7642.419-.3877.628-.8418.628-1.3512 0-.6756-.242-1.3069-.738-1.8828-.484-.5649-1.419-1.1076-2.784-1.617-1.365-.5206-2.278-1.0633-2.752-1.6503-.462-.587-.704-1.2515-.704-2.0046 0-.7089.187-1.3401.572-1.8828.385-.5427.914-.9525 1.585-1.2294.672-.2769 1.299-.4209 1.871-.4209.738 0 1.398.0554 1.981.1772.584.1108 1.09.288 1.519.5317.088.5316.154 1.3179.198 2.3479l.033.4984c-.132 0-.253.0111-.341.0111h-.22c-.308-.8639-.792-1.5506-1.431-2.06-.638-.5095-1.266-.7642-1.893-.7642s-1.123.1883-1.508.5759c-.385.3876-.572.886-.572 1.4952 0 .4651.154.886.462 1.2515.308.3655 1.046.7863 2.19 1.2515 1.145.4652 1.982.9082 2.51 1.3069.528.3987.913.8971 1.155 1.473.254.576.375 1.1297.375 1.6503 0 .7199-.231 1.3955-.705 2.0268-.473.6313-1.067 1.0743-1.772 1.329-.715.2547-1.342.3876-1.904.3876-1.32 0-2.531-.2436-3.643-.742-.099-.0886-.165-.2437-.176-.4652 0-.0886 0-.2436-.033-.4541-.165-1.4065-.253-2.2483-.253-2.5141 0-.1218.022-.2104.077-.2547.055-.0443.187-.0665.407-.0665zM141.615 89.8435c.264-.0775.561-.1329.903-.1883.649-.0886 1.045-.1993 1.177-.3322.132-.1219.198-.4098.198-.8639l.033-.5649c0-.2104.011-.4762.011-.7974l-.033-4.7956c0-.6424-.088-1.0633-.253-1.2515-.275-.288-.803-.4984-1.563-.6092v-.5759c.76-.2104 1.343-.4873 1.75-.8196.595-.4762 1.09-1.1075 1.497-1.916h.528c.033.5094.044.8638.044 1.0743v1.318c.144-.0886.287-.1883.452-.3212.627-.4763 1.265-.8528 1.915-1.1519.649-.299 1.232-.5094 1.75-.6202.319-.0886.682-.1218 1.089-.1218.848 0 1.585.2326 2.202.6866.616.4652 1.012 1.0079 1.188 1.6281.176.6203.275 1.8607.275 3.7103v2.3701c0 .0665 0 .2769-.022.6313-.011.3544-.022.7642-.022 1.2294 0 .731.033 1.1961.088 1.3955.055.1329.187.2769.408.4098 1.001.1329 1.584.299 1.75.4873v.1218c0 .0997-.033.2326-.088.3876h-.298l-2.058-.0332-2.025.0443c-.748.0222-1.442.0111-2.069-.0111l-.088-.3322c0-.0665.033-.144.11-.2547.275-.1219.671-.2105 1.189-.2548.297-.0221.506-.0554.627-.0997.11-.0443.253-.1218.418-.2547.121-.2547.187-.4652.187-.6313 0-.0775 0-.2215-.033-.443-.033-.4762-.055-1.6835-.066-3.5995v-.8196l.033-1.2515c0-1.3512-.275-2.2815-.814-2.791-.539-.5095-1.266-.7753-2.168-.7753-.694 0-1.376.1551-2.047.4652-.661.3101-1.31.7753-1.938 1.3844-.022.4984-.033.9303-.033 1.2848l.044 3.4666c0 1.8052.022 2.9128.077 3.3226.023.1661.056.2879.111.3433.088.0886.253.1551.495.1994.253.0553.539.1218.869.2215.33.0886.54.155.65.1772.209.0554.352.155.418.3101v.3101h-1.651l-3.368-.0443c-.781 0-1.277.0111-1.486.0111h-.385l-.033-.1994c0-.0775.011-.1772.044-.3101z"/>
    <path d="M126.603 89.8435c.264-.0775.561-.1329.903-.1883.649-.0886 1.045-.1993 1.177-.3322.132-.1219.198-.4098.198-.8639l.033-.5649c0-.2104.011-.4762.011-.7974l-.033-4.7956c0-.6424-.088-1.0633-.253-1.2515-.275-.288-.803-.4984-1.563-.6092v-.5759c.76-.2104 1.343-.4873 1.75-.8196.595-.4762 1.09-1.1075 1.497-1.916h.528c.033.5094.044.8638.044 1.0743v1.318c.144-.0886.287-.1883.452-.3212.627-.4763 1.265-.8528 1.915-1.1519.649-.299 1.232-.5094 1.75-.6202.319-.0886.682-.1218 1.089-.1218.848 0 1.585.2326 2.202.6866.616.4652 1.012 1.0079 1.188 1.6281.176.6203.275 1.8607.275 3.7103v2.3701c0 .0665 0 .2769-.022.6313-.011.3544-.022.7642-.022 1.2294 0 .731.033 1.1961.088 1.3955.055.1329.188.2769.408.4098 1.001.1329 1.574.299 1.75.4873v.1218c0 .0997-.033.2326-.088.3876h-.298l-2.058-.0332-2.025.0443c-.748.0222-1.442.0111-2.069-.0111l-.088-.3322c0-.0665.033-.144.11-.2547.275-.1219.671-.2105 1.189-.2548.297-.0221.506-.0554.627-.0997.11-.0443.253-.1218.418-.2547.121-.2547.187-.4652.187-.6313 0-.0775 0-.2215-.033-.443-.033-.4762-.055-1.6835-.066-3.5995v-.8196l.033-1.2515c0-1.3512-.275-2.2815-.814-2.791-.539-.5095-1.266-.7753-2.168-.7753-.694 0-1.376.1551-2.036.4652-.661.3101-1.31.7753-1.938 1.3844-.022.4984-.033.9303-.033 1.2848l.044 3.4666c0 1.8052.022 2.9128.078 3.3226.022.1661.055.2879.11.3433.088.0886.253.1551.495.1994.253.0553.539.1218.869.2215.33.0886.54.155.65.1772.209.0554.352.155.418.3101v.3101h-1.651l-3.368-.0443c-.781 0-1.277.0111-1.486.0111h-.385l-.033-.1994c0-.0775.011-.1772.044-.3101zM126.339 82.0797l-6.252.0443h-1.189c-.473 0-.968.0221-1.463.0664-.088.3101-.143.5317-.143.6424v.1551l.011.155v.7642c-.011.6424.187 1.4177.583 2.348.396.9303.968 1.6281 1.717 2.1154.748.4873 1.673.7421 2.784.7753.595-.0332 1.068-.0997 1.42-.2215.352-.1219.848-.3766 1.497-.7975l1.123-.9192.088.6313c0 .0775 0 .155-.011.2326-.463.598-1.057 1.1186-1.772 1.5727-.716.4541-1.442.7753-2.18.9857-.352.0886-.935.144-1.749.144-.738 0-1.464-.1551-2.18-.4541-1.056-.4652-1.893-1.1962-2.498-2.2151-.605-1.0189-.914-2.2594-.914-3.7103 0-.4541.088-1.0521.254-1.772.176-.7199.484-1.4841.924-2.3037.297-.5538.671-1.0079 1.112-1.3623.627-.4984 1.166-.8528 1.64-1.0521.671-.2769 1.463-.4209 2.355-.4209.968 0 1.761.1772 2.366.5316.837.4652 1.453 1.0743 1.86 1.8164.407.742.617 1.4176.617 2.0378v.2216zm-8.695-.5649h.737c.528 0 2.113-.0886 4.733-.2547.418-.0221.671-.0664.759-.1218.187-.1994.275-.3766.275-.5316 0-.3212-.099-.6867-.308-1.1076-.209-.4208-.528-.731-.957-.9525-.43-.2215-.936-.3322-1.508-.3322-1.211 0-2.168.4541-2.895 1.3622-.561.6867-.836 1.3402-.836 1.9493zM98.9887 70.3508c.1871-.0332.3082-.0443.3632-.0443.3522 0 .9351.0222 1.7501.0665.429 0 .715.0111.869.0111.231 0 .716-.0222 1.453-.0665l2.653-.1551c.693-.0664 1.507-.0996 2.432-.0996 1.629 0 2.928.2326 3.896.6977.969.4652 1.717 1.1962 2.234 2.1819.529.9968.782 1.9825.782 2.9571 0 1.6392-.573 3.0568-1.717 4.2419-1.145 1.1961-2.686 1.7831-4.612 1.7831-.539 0-.99-.0554-1.353-.1661-.364-.1108-.782-.3212-1.244-.6313-.198-.1329-.319-.2769-.363-.4209.044-.0775.099-.1218.176-.155.143 0 .297.0332.451.0886.352.1218.803.1882 1.343.1882.825 0 1.596-.1993 2.333-.6091.726-.4098 1.288-.9857 1.662-1.7388.374-.7532.561-1.5395.561-2.3812 0-.8418-.198-1.606-.594-2.3702-.396-.7642-.914-1.3844-1.552-1.8385-.363-.2658-.924-.4762-1.673-.6534-.748-.1772-1.332-.2658-1.75-.2658-1.288 0-2.047.0886-2.289.2768v.2215l.033 1.7721v.3101c-.033.2769-.044.7199-.044 1.2958 0 2.1265.033 3.4556.088 3.9761v.875l.198 7.1657c0 .0997-.011.2991-.044.5759-.022.2769-.044.5317-.044.731 0 .4984.044.8861.121 1.1408.253.0775.98.2436 2.179.5205.562.1329.87.2105.925.2326.088.0332.154.0997.22.1994-.044.155-.099.2547-.165.3101-.066.0443-.198.0664-.396.0664-.121 0-.419-.0221-.87-.0775-.891-.0886-1.596-.144-2.102-.144l-2.741.1108-1.639-.0443c-.1 0-.408 0-.9029.0332v-.4098l2.0139-.3876c.33-.0886.539-.1883.605-.2769.1-.144.155-.4319.155-.8639 0-.0886 0-.299.011-.6091 0-.2215.011-.5206.011-.9082 0-1.2294-.055-3.8653-.154-7.8857-.045-1.8828-.067-3.7878-.067-5.737v-.2658c0-.7532-.11-1.2294-.341-1.4288-.385-.3433-1.342-.6313-2.8833-.8417-.055-.1108-.0771-.2104-.0771-.2769 0-.0886.0331-.1883.0881-.299z"/>
  </g>
  <g fill="#00543d">
    <path d="M212.583 50.4927h.484l.066 1.5062-.033 1.9271c.198 0 .319.0111.374.0111.275 0 .781-.0221 1.541-.0664.484-.0333.957-.0443 1.398-.0443.209 0 .517 0 .935.011.022.2105.033.3766.033.4984 0 .1329-.033.3544-.088.6424h-.264l-2.41.0775-1.2.0333-.275.0332c-.088.2658-.121.5648-.121.9082l.044 2.3479-.033 4.1422c0 1.0854.143 1.8053.418 2.1597.275.3655.671.5538 1.211.5538.275 0 .781-.0886 1.53-.2547.231-.0554.539-.2215.924-.5206h.143c.088 0 .165.0333.231.0886.055.0554.088.1329.088.2326v.1108c-.462.4873-.968.8528-1.552 1.0743-.572.2215-1.342.3322-2.3.3322-.671 0-1.233-.155-1.673-.4651-.44-.3101-.726-.6867-.847-1.1186-.121-.432-.187-1.3623-.187-2.8132l.066-3.533v-1.6946l-.011-.6313c0-.2879 0-.587-.033-.8749h-.264l-1.277.0332h-.121c-.11.0111-.198 0-.253-.0664-.055-.0554-.088-.1108-.088-.1883 0-.1219.044-.2326.121-.3101.077-.0776.319-.1994.704-.3655.275-.1108.583-.3323.947-.6535.363-.3212.66-.6756.913-1.0632.121-.2104.297-.6092.528-1.1962.165-.4319.287-.7309.375-.9081zM200.168 62.0111c.385.9968.671 1.6392.869 1.9271.396.5981.87 1.0633 1.42 1.3844.55.3323 1.145.4984 1.794.4984.594 0 1.178-.2547 1.761-.7642.418-.3876.627-.8417.627-1.3512 0-.6756-.242-1.3069-.726-1.8828-.484-.5648-1.42-1.1075-2.785-1.6281-1.364-.5205-2.289-1.0632-2.751-1.6502-.463-.587-.705-1.2515-.705-2.0046 0-.7089.187-1.3402.573-1.8829.385-.5427.913-.9524 1.585-1.2293.671-.2769 1.298-.4098 1.871-.4098.737 0 1.397.0554 1.992.1772.583.1107 1.089.2879 1.519.5316.088.5316.154 1.318.198 2.348l.033.4984c-.132 0-.253.0111-.342.0111h-.22c-.308-.8639-.781-1.5506-1.419-2.0601-.639-.5094-1.266-.7642-1.893-.7642-.628 0-1.123.1883-1.508.576-.386.3765-.573.886-.573 1.4951 0 .4652.154.8861.463 1.2516.308.3654 1.045.7863 2.19 1.2515 1.144.4651 1.981.9081 2.509 1.3069.529.3987.914.8971 1.156 1.473.253.5759.374 1.1297.374 1.6502 0 .7199-.231 1.3955-.704 2.0268-.474.6313-1.068 1.0743-1.772 1.3291-.716.2547-1.343.3876-1.904.3876-1.321 0-2.532-.2437-3.643-.742-.099-.0886-.165-.2437-.176-.4763 0-.0886 0-.2436-.033-.4541-.166-1.4066-.254-2.2483-.254-2.5141 0-.1218.022-.2104.077-.2547.055-.0443.188-.0665.408-.0665ZM199.056 63.8607c.066.1329.088.2325.088.299 0 .1551-.121.4319-.374.8306-.32.5206-.683.9082-1.079 1.1408-.253.1551-.594.2326-1.023.2326-.749 0-1.31-.2326-1.684-.6867-.232-.2769-.386-.7642-.485-1.4619l-1.75 1.2293c-.616.3545-1.078.576-1.397.6756-.518.1329-1.145.1994-1.871.1994-.529 0-.947-.1551-1.255-.4762-.308-.3212-.462-.731-.462-1.2294 0-.7199.44-1.5838 1.32-2.5917.881-1.0078 2.069-1.8274 3.588-2.4587 1.057-.4541 1.717-.742 1.948-.8639.022-.3433.033-.7199.033-1.1297 0-1.329-.187-2.2261-.55-2.7024-.374-.4651-.902-.7088-1.585-.7088-.682 0-1.387.2769-2.014.8418-.385.3544-.682 1.03-.88 2.0046-.066.2769-.176.5648-.364.875-.451.2879-.803.443-1.078.443-.231 0-.44-.0665-.628-.1994-.099-.0775-.154-.155-.154-.2547 0-.2769.287-.8861.87-1.8385.572-.9525 1.299-1.6724 2.179-2.1487.881-.4762 1.64-.7088 2.3-.7088.892 0 1.563.0775 1.992.2437.441.1661.826.443 1.156.8528.33.4098.539.8528.605 1.329.044.2326.066 1.0522.066 2.4588l-.044 2.4919v1.8164c.011.2436 0 .443 0 .6091 0 .2991-.011.5316-.011.6756 0 .3434.099.6203.298.8307.198.2104.429.3101.704.3101.396 0 .737-.1994 1.013-.5981l.187-.2547s.165-.0665.341-.1108zm-4.568-.4541c.077-1.3291.11-2.2705.11-2.8132 0-.2879-.011-.6645-.044-1.1407-.693.2547-1.441.6313-2.223 1.1407-.781.5095-1.398 1.1076-1.86 1.7721-.33.4762-.495.9303-.495 1.3623 0 .4097.143.742.418 1.0189.275.2769.627.4098 1.035.4098.319 0 .715-.1108 1.177-.3434.606-.299 1.233-.7752 1.893-1.4065zM186.872 57.7138l-6.251.0443h-1.189c-.473 0-.968.0222-1.464.0665-.088.3101-.143.5316-.143.6423v.1551l.011.155v.7642c-.011.6424.187 1.4177.584 2.348.396.9304.968 1.6281 1.717 2.1154.737.4873 1.672.7421 2.784.7753.594-.0332 1.068-.0997 1.42-.2215.352-.1108.847-.3876 1.497-.7974l1.122-.9304.088.6313c0 .0776 0 .1551-.011.2326-.462.5981-1.056 1.1186-1.772 1.5727-.715.4541-1.441.7753-2.179.9857-.352.0886-.935.144-1.75.144-.737 0-1.464-.155-2.179-.4541-1.057-.4652-1.893-1.1961-2.498-2.2151-.606-1.0189-.914-2.2593-.914-3.7102 0-.4652.088-1.0522.253-1.7721.176-.7199.485-1.4952.925-2.3037.297-.5537.671-1.0078 1.1-1.3622.628-.4984 1.167-.8528 1.64-1.0522.672-.2769 1.464-.4209 2.356-.4209.968 0 1.761.1773 2.366.5317.836.4651 1.453 1.0743 1.86 1.8163.407.7421.616 1.4177.616 2.0379v.2215zm-8.695-.5648h.727c.528 0 2.113-.0886 4.732-.2548.419-.0221.672-.0664.76-.1218.187-.1994.275-.3766.275-.5316 0-.3212-.099-.6978-.308-1.1076-.209-.4098-.528-.7309-.958-.9524-.429-.2216-.935-.3323-1.507-.3323-1.211 0-2.169.4541-2.895 1.3623-.561.6866-.837 1.3401-.837 1.9492zM160.292 65.5995c1.211-.2215 1.915-.3877 2.103-.4984.11-.0775.176-.2437.176-.4984v-2.8685l-.033-4.6738v-1.7389l.011-1.2404.044-1.5174c0-2.3812-.022-3.8099-.066-4.2751-.044-.4651-.132-.7531-.276-.8749-.253-.2437-.935-.4873-2.058-.7531v-.0776c0-.0775 0-.1772.033-.3101.143-.0221.287-.0443.419-.0775s.264-.0554.385-.0665c1.232-.3544 2.135-.6977 2.696-1.03h.76c.022.288.033 1.2183.033 2.78V52.4419l-.066 3.1676c0 .1883 0 .3987.033.6313.66-.7642 1.133-1.2737 1.442-1.5284.539-.443 1.122-.7864 1.727-1.0411.617-.2548 1.255-.3877 1.938-.3877 1.276 0 2.322.5427 3.136 1.6281.463.6424.705 1.5395.705 2.7135l-.044 1.5949v.8971l-.044 1.5505c-.044 1.2848-.066 2.049-.066 2.2926 0 .2769 0 .6424.033 1.0965l.891.1993c.594.1219 1.046.2437 1.376.3434v.4873l-3.335-.0886c-.187 0-.693.0221-1.53.0664-.506.0222-.803.0333-.891.0333h-.342c-.055-.0886-.077-.1772-.077-.2326v-.144c.144-.1883.419-.3101.815-.3766l.935-.2215c.121-.0996.199-.2104.221-.3322.044-.2769.088-1.617.143-4.0425l.033-1.163c.044-1.2183-.055-2.2372-.276-3.0346-.143-.5538-.473-.9968-.99-1.318-.517-.3322-1.112-.4984-1.783-.4984-.561 0-1.09.1219-1.596.3655-.341.1772-.759.4873-1.233.9193-.484.443-.814.8195-1.001 1.1297-.121.2104-.187.5537-.187 1.03v1.0964l-.011 1.1408c0 .0997.011.742.044 1.9603v.9968l.011 1.0965c0 .155.022.2769.044.3433l2.201.5316c.11.0333.286.0997.517.1994l.044.1772s-.022.144-.077.2547c-.297 0-.528.0111-.682.0111h-1.211l-2.685.0111-2.014.0664c-.099 0-.265-.0221-.463-.0332v-.1107c-.011-.0886.022-.1883.11-.3102z"/>
    <path d="M156.275 50.4927h.485l.066 1.5062-.033 1.9271c.198 0 .319.0111.374.0111.275 0 .781-.0221 1.541-.0664.484-.0333.957-.0443 1.398-.0443.209 0 .517 0 .935.011.022.2105.033.3766.033.4984 0 .1329-.033.3544-.088.6424h-.264l-2.41.0775-1.2.0333-.275.0332c-.088.2658-.121.5648-.121.9082l.044 2.3479-.033 4.1422c0 1.0854.143 1.8053.418 2.1597.275.3655.671.5538 1.211.5538.275 0 .781-.0886 1.529-.2547.232-.0554.54-.2215.925-.5206h.143c.088 0 .165.0333.231.0886.055.0554.088.1329.088.2326v.1108c-.462.4873-.968.8528-1.552 1.0743-.572.2215-1.342.3322-2.3.3322-.671 0-1.233-.155-1.673-.4651-.44-.3101-.726-.6867-.847-1.1186-.121-.432-.187-1.3623-.187-2.8132l.066-3.533v-1.6946l-.011-.6313c0-.2879 0-.587-.033-.8749h-.265l-1.276.0332h-.121c-.11.0111-.198 0-.254-.0664-.055-.0554-.088-.1108-.088-.1883 0-.1219.044-.2326.122-.3101.077-.0776.319-.1994.704-.3655.275-.1108.583-.3323.946-.6535.364-.3212.661-.6756.914-1.0632.121-.2104.297-.6092.528-1.1962.165-.4319.286-.7309.374-.9081zM138.137 53.6824h1.167l.517.0332.407-.0332c1.068 0 1.728 0 1.992.0332v.299c.011 1.4731 0 2.9018-.044 4.2862-.033.8196-.044 1.2848-.044 1.3955 0 1.8385.055 2.9904.177 3.4555.121.4652.396.8307.847 1.1076.44.2768.98.4208 1.607.4208.759 0 1.486-.155 2.179-.4762.693-.3212 1.288-.7088 1.772-1.174.055-.3987.077-.8417.077-1.318 0-1.5616.011-2.6138.044-3.1565 0-.3211.011-.6091.011-.8417 0-1.6945-.088-2.647-.253-2.8685-.165-.2215-.803-.3877-1.904-.4984-.363-.0443-.627-.0775-.793-.1108-.088-.1329-.121-.2436-.121-.3101l.044-.1772c.276-.0332.54-.0443.793-.0443l2.476.0332c.881-.0221 1.354-.0332 1.398-.0332.11 0 .22 0 .33.0111l.033 1.1408c-.077 1.5948-.11 3.5552-.121 5.8921l-.033 1.2736.066 2.1376c.088.1661.176.2658.253.299.121.0554.375.0775.76.0775h.143c.132 0 .517.0333 1.155.0997 0 .1329.011.2326.011.2991v.1772c-1.397.299-2.52.6091-3.378.9082-.342.1107-.639.1993-.87.2547-.055-.3655-.077-.587-.077-.6756v-1.2737s0-.1993-.011-.4208c-.132.0886-.286.2104-.462.3433-.826.6424-1.684 1.174-2.598 1.617-.616.299-1.21.4541-1.772.4541-1.089 0-1.981-.4098-2.663-1.2183-.693-.8196-1.046-2.204-1.046-4.1754 0-.0997 0-.288.011-.5649.044-.4984.066-.8528.066-1.0521 0-.0776 0-.2991-.011-.6867 0-.1661-.011-.3101-.011-.443 0-.0886 0-.3101.011-.6313 0-.3323.011-.5649.011-.6978 0-.1772 0-.3322-.011-.4651l-.033-.8307v-.443c.011-.1661-.066-.3212-.231-.4541-.649-.1772-1.078-.2769-1.287-.3101-.199-.0222-.386-.0665-.54-.1329v-.4984zM123.907 59.6852c0-.7088.143-1.473.44-2.2815.297-.8085.748-1.5395 1.342-2.1819.606-.6423 1.244-1.1186 1.916-1.4398.946-.443 2.102-.6534 3.455-.6534 1.949 0 3.566.6645 4.876 2.0046 1.299 1.3402 1.959 2.9461 1.959 4.8289 0 1.6724-.682 3.1676-2.047 4.4855-1.365 1.3069-3.093 1.9715-5.184 1.9715-1.287 0-2.498-.3434-3.643-1.019-.847-.5094-1.585-1.2736-2.201-2.2704-.616-1.0079-.924-2.1487-.924-3.4334zm6.9 6.1247c.793 0 1.552-.2104 2.29-.6424.737-.4319 1.32-1.1186 1.761-2.06.44-.9414.66-2.0379.66-3.2894 0-.8195-.165-1.761-.506-2.8353-.342-1.0743-.859-1.8828-1.563-2.4255-.705-.5427-1.53-.8085-2.477-.8085-.682 0-1.386.1662-2.102.4873-.715.3212-1.32.9414-1.805 1.8607-.495.9193-.737 2.2262-.737 3.9207 0 1.905.429 3.3448 1.288 4.3194.858.9746 1.926 1.473 3.202 1.473zM121.309 46.6385c.088.6866.121 1.0854.121 1.1961l-.066 1.3955c-.022.5981-.044.9746-.077 1.1408-.088.0443-.176.0664-.231.0664l-.143-.0332c-.33-1.4619-.892-2.5252-1.695-3.2008-.793-.6645-1.761-1.0078-2.906-1.0078-1.144 0-2.157.3322-2.916 1.0078-.76.6645-1.134 1.4509-1.134 2.3369 0 .6756.264 1.3069.792 1.8607.529.5648 1.882 1.4066 4.073 2.5363 1.662.8638 2.85 1.5727 3.566 2.1264.715.5538 1.254 1.1851 1.617 1.905.364.7199.551 1.5284.551 2.4144 0 1.1186-.286 2.1708-.87 3.1565-.572.9857-1.353 1.7278-2.333 2.2262-.98.4984-2.267.742-3.885.742-1.398 0-2.752-.2215-4.039-.6756-.76-.2769-1.222-.4873-1.387-.6534-.165-.1662-.253-.3434-.253-.5317 0-.1107 0-.2658.033-.443.143-1.2293.22-2.2483.231-3.0457.022-.4873.055-.7753.11-.8639.044-.0775.121-.1107.231-.1107.088 0 .165.0332.22.0996.055.0665.099.1994.121.3877.11 1.2847.705 2.4366 1.772 3.4555 1.057 1.0189 2.256 1.5173 3.599 1.5173.826 0 1.574-.1772 2.267-.5205.694-.3433 1.233-.8417 1.618-1.4952.386-.6534.584-1.2847.584-1.905 0-.8528-.297-1.617-.892-2.3258-.594-.7088-1.783-1.5173-3.566-2.4587-1.783-.9414-2.949-1.617-3.489-2.049-.869-.6977-1.53-1.4398-1.959-2.2261-.319-.6092-.484-1.3069-.484-2.1154 0-1.4509.572-2.6803 1.717-3.6881 1.145-1.0079 2.674-1.5173 4.6-1.5173 1.057 0 1.971.1218 2.741.3654.561.1883 1.134.4984 1.728.9304z"/>
  </g>
  <g fill="#00543d">
    <path d="M106.715 44.1686c1.343.0333 2.047.0443 2.135.0443 0 .1219.011.2105.011.2658 0 .0665 0 .1772-.022.3212-.132.0222-.275.0332-.407.0332h-.308c-.672 0-1.134.0222-1.387.0776 0 .1218-.011.2215-.011.2879v.1219c.022.8528.044 1.3622.044 1.5394v2.0822c-.011.3101.033.5649.132.7753.055.1218.165.2104.33.288.099.0443.352.0996.738.1439.297.0443.495.0776.594.0886 0 .1108 0 .1994-.022.2548h-.11c-.253 0-.594-.0222-1.013-.0333l-.594-.0221-2.036.0664h-.264v-.2547c.077-.0111.132-.0332.165-.0443.462-.0886.759-.1883.891-.288.055-.0443.088-.1218.11-.2325 0-.0665.011-.3655.011-.9082 0-1.5395-.011-2.7689-.044-3.6881-.143-.0443-.352-.0665-.649-.0775-.11 0-.275 0-.506-.0333v-.0886c-.011-.0664 0-.1218.066-.1661.022-.0222.242-.1329.682-.3433.165-.0776.286-.1662.352-.2769.033-.0554.055-.1883.066-.3766 0-.0886.022-.2326.044-.443.066-.5538.11-.8971.155-1.03.099-.3655.264-.7199.484-1.0854.231-.3655.506-.6756.825-.9414.231-.1994.507-.3434.804-.443.297-.0997.638-.144 1.023-.144.507 0 .881.0886 1.123.2547.165.1108.242.2548.242.432 0 .155-.055.2768-.165.3876-.11.1108-.253.1661-.418.1661-.209 0-.43-.0553-.661-.155-.451-.1772-.693-.2769-.759-.288-.099-.0221-.209-.0443-.319-.0443-.297 0-.562.0997-.815.288-.242.1883-.396.4208-.462.6977s-.099.8971-.099 1.8607v.9525zM96.083 47.2255c0-.3655.077-.7642.2311-1.1851.1541-.4209.3852-.7974.6934-1.1297.3082-.3323.6384-.5759.9906-.742.4842-.2216 1.0896-.3434 1.794-.3434 1.0019 0 1.8489.3434 2.5199 1.0411.672.6978 1.013 1.5284 1.013 2.503 0 .8639-.352 1.6392-1.057 2.3148-.704.6756-1.595 1.0189-2.6741 1.0189-.6713 0-1.2987-.1772-1.882-.5316-.4402-.2658-.8144-.6534-1.1336-1.174-.3192-.5205-.4733-1.1075-.4733-1.772Zm3.566 3.1675c.407 0 .803-.1107 1.189-.3322.374-.2215.682-.576.913-1.0633.231-.4873.341-1.0521.341-1.6945 0-.4209-.088-.9082-.264-1.473-.176-.5538-.44-.9747-.803-1.2516-.363-.2768-.793-.4208-1.277-.4208-.3522 0-.7154.0886-1.0896.2547-.3632.1661-.6823.4873-.9355.9636-.2531.4762-.3852 1.1518-.3852 2.0268 0 .9857.2201 1.7277.6714 2.2372.4402.5095 1.0015.7531 1.6619.7531z"/>
  </g>
  <path fill="#00543d" d="M27.8344 22.4166C61.6781-.0110756 93.8048 1.3955 93.8048 1.3955V0H0v52.9403c2.38832-13.5009 27.8344-30.5237 27.8344-30.5237ZM0 105.072v18.939h27.4272C7.47313 117.465 0 105.072 0 105.072Z"/>
  <path fill="#00543d" d="M14.2751 44.2905c.8255.1329 1.9261.5648 2.3993.6313.1541 0 .4733.2325.4733.9968 0 .6977.1541 2.1597.2201 2.8906.033.6978-.2201 1.0965-.4732 1.0965-.1541 0-.3412-.3655-.5063-.8639-.2862-1.1629-.8805-2.1597-1.2877-2.492-1.739-1.3622-3.3459-1.7277-5.0408-1.7277-5.07382 0-8.32061 4.4191-8.32061 9.4362 0 2.2262.40722 4.0204 1.1006 5.4823 1.76098 3.821 5.426 5.3162 7.97941 5.3162.5943 0 2.1462-.0997 3.4339-.8971 1.3868-.7642 2.1792-1.8274 2.9276-3.2229.4072-.6978.5393-.8639.6604-.8639.3192 0 .3412.731.2861 1.0965-.099.8306-.8254 2.5916-1.2657 3.3558-.121.299-.6603.6977-.9795.8639-.5063.2326-3.0597.9303-5.7342.9303-4.44643 0-7.69322-2.3258-8.95892-3.8875-.385212-.4762-.803443-1.041-1.1776495-1.7166V49.3851C.660589 48.2222 1.42001 47.3362 2.01434 46.8157c2.70749-2.3259 5.64612-3.0568 8.55176-3.0568 1.1006 0 2.5204.2325 3.72.5316zM48.4816 45.8631c.3743 0 .5283-.0775.5283-.3876 0-.4319-.4622-.9303-1.0125-.9303-.6934 0-1.2767.4319-1.5519 1.1518-.033.0775.033.1661.0661.1661.3962.0111 1.2216.0111 1.9921 0z"/>
  <path fill="#00543d" d="M53.8307 17.2554C36.5732 27.8989 25.0718 41.721 19.3817 54.7345c.3742-.5427.8034-.9967 1.2657-1.3955 1.0896-.9524 2.8506-1.9492 5.2169-1.9492 3.4889 0 7.0439 2.7688 7.0439 7.2322 0 2.946-1.761 5.2497-3.0597 6.1025-1.4088 1.03-2.7846 1.4177-4.3694 1.4177-1.5849 0-3.3789-.7421-4.6886-1.8385-1.5189-1.2405-2.6085-3.6549-2.6085-5.427 0-.5648.0551-1.0743.1541-1.5616-1.5518 4.0647-2.5314 8.0186-2.9276 11.751-1.728 16.3362-.9135 33.6469 11.8756 45.5529 12.789 11.906 32.9522 5.881 32.9522 5.881 22.6285-6.224 33.5685-25.8941 33.5685-25.8941V6.35726C72.9593 4.69596 53.8417 17.2665 53.8417 17.2665ZM80.8066 44.667c.3522-.3212.8805-.4652 1.3758-.4652.9465 0 1.5518 1.0965 1.5518 1.7389 0 .9525-.9905 1.7388-1.6949 1.7388-.2421 0-.8145-.144-1.1226-.4208-.2862-.3212-.5283-.7089-.5283-1.3069 0-.3212.1431-.8861.4182-1.2737zm-11.2702 8.3287c1.3758-.9968 3.665-1.4841 4.6115-1.4841 1.0566 0 2.6085.288 3.2799.8196.3521.2436.5283.8528.5283 1.0632 0 .5649-1.0236 1.4177-1.1667 1.4177-.2091 0-.8145-.288-1.3758-.6756-1.1666-.8528-1.7609-1.3845-2.9606-1.3845-.5613 0-1.6179.4984-2.1792 1.2073-.9465 1.0632-1.4748 2.5141-1.4748 4.0757 0 2.06.7704 3.3337.9135 3.5441.8805 1.4841 2.6084 2.3702 4.4354 2.3702 1.2988 0 2.2233-.4209 3.1368-1.0633.3852-.2879.6714-.1772.6714 0 0 .3877-.1761.7421-.4623 1.03-1.2327 1.3844-3.2358 2.204-5.0738 2.204-2.2232 0-4.0833-1.174-5.2169-2.8353-.5943-.9968-1.0896-2.6581-1.0896-4.1422 0-2.5916 1.3758-4.7513 3.4119-6.1357zm-22.5625-8.5723c.3963-.1883.9135-.2769 1.1667-.2769.5393 0 1.1446.1993 1.5298.587.3412.3211.5393.7642.5393 1.3069 0 .0886-.1211.2658-.2971.2658-.1761 0-2.8066 0-3.511-.0111-.044 0-.11.0775-.1211.1218-.044.1219-.077.3877-.077.5427 0 .6092.2421 1.318.5833 1.7721.3412.4651.9906.8528 1.728.8528.6824 0 1.1446-.1661 1.3978-.5538.066-.0886.143-.1883.1981-.1883.088 0 .121.1108.121.1883 0 .1218-.066.2991-.11.3766-.5393.7863-1.3538 1.1629-2.2343 1.1629-1.6619 0-2.7735-1.2737-2.7735-3.09 0-1.2405.6494-2.4809 1.849-3.0458zm-15.0123 6.0803c-.3081 0-.4622-.0664-.4622-.155 0-.1218.1431-.2437.2971-.2769 1.0676-.2437 1.1117-.5316 1.1557-1.6945.033-.9193.11-4.0758.11-5.2719v-1.8496c0-.1218-.077-.1994-.121-.1994-.3082-.0443-1.6069-.0664-1.849-.0664-.5834 0-.9135.1107-1.1447.3544-.066.0443-.2421.2437-.5063.7642-.143.3212-.2311.3544-.2971.3544-.0881 0-.1541-.1883-.1541-.3433 0-.2991.2972-1.1297.2972-2.049 0-.1107.143-.2436.2311-.2436.077 0 .066.0664.2201.1993.044.0443.3192.3212.5503.3434.3962.0443 1.5739.0664 3.544.0664.8034 0 2.9606.0332 3.5659-.0332.0331 0 .7374-.0332.9576-.0775.2751-.0776.3412-.0776.4732-.1994.2202-.1661.4733-.3544.6164-.3544.11 0 .1431.1218.1431.1661-.0441.5538-.1871 1.0411-.2202 2.0822-.044 1.3955-.044 2.6249-.044 2.9128 0 .0665.044.144.1101.0886.6273-.5759 1.2767-.8971 1.948-.8971.7705 0 1.3098.2658 1.6289.7088.2972.4209.4293 1.0079.4293 1.6724.011.9747.066 1.9382.066 2.8686 0 .3876.1981.5094.6164.6091.3081.0664.4292.155.4292.2437 0 .1439-.1211.1993-.4182.1993-.5393 0-.7044-.0443-1.2217-.0443-.3522 0-.6604.0332-1.1226.0332-.2202 0-.2972-.0775-.2972-.1882 0-.0887.1211-.1662.3082-.2216.3852-.1218.4512-.1661.5063-.7642.033-.299 0-2.0046 0-2.2483 0-.8528-.0771-1.3512-.2642-1.5505-.2421-.299-.6273-.5095-1.2327-.5095-.6823 0-1.1666.2991-1.2327.3544-.033.0333-.2311.2769-.2641.7642-.033.6535-.033 2.6692-.011 3.223.033.5094.2421.6091.6053.6977.2201.0665.3192.1662.3192.2437 0 .144-.1541.1883-.3742.1883-.1211 0-.9135-.0333-1.2657-.0333-.3522 0-.9135.0443-1.1887.0443-.143 0-.3522-.0443-.3522-.1993 0-.0775.1211-.1662.4513-.2658.4182-.144.5723-.3101.6163-.8861.0441-.6534.1431-1.7166.1431-5.5044 0-1.2515.011-1.7167 0-2.049 0-.3101-.2311-.4651-.2971-.4651-.2642-.0443-3.1148-.0776-3.5-.0111-.066.0111-.121.1661-.121.1993 0 .731-.0111 2.4477-.0111 3.7989 0 1.7942.0111 3.2783.0771 3.8432.066.6977.1431.886 1.0896 1.0964.1981.0443.4182.1662.4182.2769 0 .1661-.2751.1883-.4292.1883-.1211 0-1.0786-.0775-1.739-.0775-.7814 0-1.5518.1107-1.772.1107zm3.3679 3.8764c-.033-.9968-.7044-1.1297-1.2987-1.3844-.3192-.144-.6384-.3212-.6384-.6424 0-.1107.1761-.3212.5944-.3212.9905 0 3.5879-.3876 3.731-.3876s.2862.3212.2862.5316c.033 1.2072-.1101 7.9078-.1101 9.5027 0 .8196.3852 1.6281.8805 1.9825.9135.7088 1.5519.7088 2.3993.7088.8475 0 1.794-.4651 2.6745-1.2404.2091-.1772.5283-.7088.5283-.8528l.066-8.1515c0-.2104-.3852-.7088-.5943-.7753-.5283-.144-1.2987-.3544-1.6179-.4209-.2421-.0664-.7044-.2879-.7044-.5648 0-.144.4623-.3212.8145-.3212 1.4088 0 2.9606-.1772 3.7641-.3876.3521-.1108.5943-.144.8474-.144.1761 0 .2422.3876.2422.5316-.0661.9968-.3522 8.8603-.3522 11.7621 0 .0664.143.4984.4182.4984.2421 0 1.3427-.1772 1.761-.1772.143 0 .3852.5648.4182.6756 0 .0553-.066.1439-.1541.2215.1321-.0776.2972-.144.4623-.1883 1.1666-.3544 1.3757-.7088 1.4748-1.9825.11-1.0632.1761-4.1422.1761-7.7638 0-.3877-.0661-.7421-.8475-1.3845-.4622-.3212-.6714-.4984-.6714-.598 0-.2437.3853-.5981.6384-.7089.5943-.2104 1.871-.6756 2.3553-1.03.3522-.2104.6714-.3876.8475-.3876.1761 0 .3522.3876.3522.5316 0 .5981-.1431 1.4509-.1431 1.7721 0 .1772.1761.1107.2091.1107 1.4088-.9525 3.2358-1.9493 4.7216-1.9493 1.728 0 2.7075.7753 3.2028 1.3512.7704.9193 1.2326 2.5474 1.2326 4.3194 0 .6756.0661 5.9586.1101 6.4459.066.5316.4182.9968 1.2987 1.2405.6714.1772.8805.3544.8805.598 0 .2437-.4953.3877-1.0566.3877-.8144 0-1.6179-.0665-2.6084-.0665-.8805 0-1.9701.0665-2.4324.0665-.3191 0-.8144-.144-.8144-.4209 0-.2437.3852-.4652.8144-.5981.8475-.3212 1.0236-.598 1.0896-1.772.0661-1.174.1101-5.4602.1101-6.4902 0-1.2737-.6383-2.3037-1.0566-2.6249-.3852-.2879-1.4418-.6756-2.2562-.6756-1.5519 0-2.4654.5317-3.1368 1.1297-.11.1108-.3522.5316-.3522.8528 0 .4652.0001 8.0851.0331 8.5059.033.4984.1761.7753 1.2987 1.0965.3522.1107.6383.3212.6383.5316 0 .2547-.3852.4319-.8804.4319-.4183 0-1.4088-.0332-2.1462-.0332-1.2988 0-2.3223.1108-2.9276.1108-.5283 0-.9136-.144-.9136-.4652 0-.0997.0661-.1772.1431-.2547-.044.0221-.077.0332-.11.0332-.9135.0664-2.3994.4652-3.2028.6756-.5943.1772-1.1667.3212-1.2327.3212-.1431 0-.3522-.2437-.3522-.4984 0-.2104.1101-.886.1431-1.4841 0-.1772-.1101-.288-.1761-.2437-1.0236.7089-2.4323 1.6281-2.8836 1.8053-.5943.2437-1.3758.4209-2.3553.4209-1.2657 0-2.3993-.5649-3.1037-1.6613-.2421-.3877-.4953-1.0965-.4953-1.6613 0-2.5474 0-6.5567-.066-8.4395zm34.2729 60.9369c-15.1333 8.395-29.6283 4.341-29.6283 4.341-6.6037-7.93-3.9402-18.551-3.1148-21.7848.8255-3.234 9.2452-20.9325 28.4067-18.3409 19.1616 2.5917 22.9477 19.825 22.9477 19.825s-3.4889 7.5647-18.6223 15.9707zm22.6395-49.4849c-.8474 0-2.3553-.1108-2.9936-.1108-.8145 0-2.3553.1108-3.1037.1108-.3192 0-.5393-.0222-.6934-.0776-.1431.0443-.3082.0776-.4733.0776-.2421 0-2.0031-.1108-2.7515-.1108-1.1666 0-2.3993.144-2.9937.144-.5613 0-.9134-.144-.9134-.3876 0-.2105.2421-.3877.8474-.5649.8145-.2104 1.3428-.6424 1.4088-.9968.1101-.4984.1431-2.6248.1431-3.6548 0-.0665.033-5.1058-.033-5.5267-.0331-.2436-.4183-.5316-1.4418-1.2736-.2092-.144-.2862-.2437-.2862-.3877 0-.2436.3192-.5316.7044-.598 1.2987-.288 2.9606-1.0633 3.4889-1.2073.1431 0 .3192.3545.3192.3877 0 .3876-.2091 4.995-.2091 7.0218 0 2.0268.033 3.4776.066 4.7181.033 1.1297.8145 1.2072 1.6949 1.4841.2202.0664.3632.1329.4843.2104.1321-.0554.2752-.1107.4293-.1329 1.6178-.3544 1.6949-.9968 1.7939-2.7688.0661-1.3512.2422-5.1722.2422-10.7764 0-2.6248-.1101-6.3462-.1101-7.4094 0-.288-.033-.4984-.8475-.9968-.5943-.4209-.7043-.5316-.7043-.6756 0-.144.11-.3876.4952-.4984 1.6179-.5648 2.6745-.7753 3.632-1.3844.1101-.0665.3192.2104.3192.3544-.1101.886-.3192 4.8953-.3192 9.6356 0 5.1722-.066 11.9392.1101 12.9028.1431.7088.2862 1.1297 1.794 1.5616.5283.144.8144.3212.8144.5317 0 .2436-.4952.3876-.9135.3876z"/>
  <path fill="#00543d" d="M26.1835 65.1122c.3853 0 1.1667-.1772 2.1462-1.174.8805-.9525 1.5849-3.1565 1.5849-4.6738 0-1.8386-.4182-3.8653-1.761-5.427-.7704-.8528-2.0471-1.3844-2.9606-1.3844-.7374 0-1.5519.3876-2.2893 1.03-.9135.8528-1.7279 2.6913-1.7279 4.5409 0 1.174.1431 2.2705.4182 3.1565.8805 2.6581 2.8836 3.9318 4.5785 3.9318z"/>
  <path fill="#fff" d="M49.3071 65.0236s-.088.0553-.1211.0886c.0441-.0222.0881-.0554.1211-.0886z"/>
</svg>
