<svg xmlns="http://www.w3.org/2000/svg" fill="none" viewBox="0 0 248 124">
  <g fill="#00543d">
    <path d="M213.045 102.403c0-.255.088-.476.275-.665a.9.9 0 0 1 .649-.287c.243 0 .452.088.617.265.165.178.253.399.253.676s-.088.498-.264.687a.832.832 0 0 1-.639.276.847.847 0 0 1-.627-.276.95.95 0 0 1-.264-.676zm-.187-.886v.565c-.44.476-.881.808-1.321 1.008-.44.188-.946.288-1.541.288a3.084 3.084 0 0 1-1.739-.51c-.517-.332-.913-.819-1.188-1.429-.276-.62-.419-1.229-.419-1.816 0-.653.165-1.263.507-1.85a3.263 3.263 0 0 1 1.331-1.295c.551-.288 1.244-.432 2.081-.432.836 0 1.408.133 1.827.41.231.155.352.365.352.62a.603.603 0 0 1-.639.631c-.286 0-.605-.177-.946-.532-.209-.221-.407-.376-.572-.454a1.243 1.243 0 0 0-.573-.122c-.506 0-.935.21-1.276.632-.474.598-.705 1.351-.705 2.26 0 .907.242 1.683.727 2.236.484.554 1.045.831 1.684.831.451 0 .847-.077 1.188-.221.341-.144.749-.421 1.222-.82zm-14.672 1.296c.144-.045.309-.078.496-.1.363-.055.572-.111.649-.177.077-.067.11-.233.11-.476l.022-.31v-.443l-.022-2.647c0-.355-.044-.587-.132-.687-.154-.155-.44-.277-.858-.332v-.322c.418-.121.737-.265.957-.454.33-.254.605-.609.826-1.063h.297c.022.277.022.476.022.587v.731c.077-.044.154-.1.253-.177a5.86 5.86 0 0 1 1.056-.642c.364-.167.683-.277.958-.344.176-.044.374-.066.605-.066.474 0 .87.133 1.211.376.341.255.561.554.66.897.099.344.154 1.03.154 2.05v1.306s0 .155-.011.344c0 .199-.011.42-.011.675 0 .41.022.665.055.775.034.078.1.155.221.233.55.077.869.166.957.266v.066a.716.716 0 0 1-.055.222h-.165l-1.134-.022-1.122.022h-1.145l-.055-.177s.022-.078.055-.133c.154-.067.374-.122.65-.133.165-.011.275-.034.341-.056s.143-.066.231-.133a.872.872 0 0 0 .099-.343c0-.044 0-.122-.022-.244-.022-.265-.033-.93-.033-1.982v-.454l.022-.698c0-.742-.154-1.262-.451-1.54-.298-.287-.694-.42-1.2-.42-.385 0-.759.088-1.123.255a3.68 3.68 0 0 0-1.067.764c-.011.277-.022.51-.022.709l.022 1.916c0 .996.011 1.606.044 1.838a.474.474 0 0 0 .055.188c.044.045.132.078.275.111.132.033.297.067.473.122.176.055.297.077.352.1.11.033.188.088.232.177v.177h-.914l-1.86-.022h-1.035l-.022-.111s0-.1.022-.177z"/>
    <path d="M192.859 102.824c.121-.055.254-.089.386-.1.88-.055 1.375-.166 1.507-.321.122-.155.188-.897.188-2.226v-1.86l-.033-1.053.022-.62V95.17l-.022-.355.022-.454v-.365c0-.366-.022-.742-.055-1.152a1.058 1.058 0 0 0-.1-.233c-.209-.11-.55-.188-1.023-.221-.473-.033-.738-.078-.804-.122-.044-.033-.077-.122-.077-.266h.727l2.278.056c.583 0 1.365-.022 2.344-.056 0 .089 0 .177-.022.255-.11.033-.308.055-.572.1-.55.066-.88.122-1.002.177a.306.306 0 0 0-.165.144c-.055.1-.088.299-.099.576l-.044 1.118.033 3.855v1.528c-.011.476-.022.809-.022.975 0 .642.011 1.063.044 1.24.033.177.088.31.165.388.077.077.21.133.386.188.264.066.473.1.616.1.319 0 .528.055.605.133a.614.614 0 0 1 .022.188v.066c-.517.022-.902.022-1.155.022-.143 0-.397 0-.771-.022l-1.188.022h-2.191l-.022-.254z"/>
  </g>
  <g fill="#00543d">
    <path d="M243.256 95.946v-.487c.143-.067.264-.122.385-.177 1.09-.521 1.816-1.064 2.191-1.617.363-.565.55-1.064.55-1.496 0-.288-.099-.553-.308-.764-.209-.221-.562-.387-1.068-.498-.506-.111-.836-.2-.99-.255-.099-.044-.232-.144-.386-.31a1.56 1.56 0 0 1-.154-.631c0-.488.099-.831.297-1.008.419-.366.848-.554 1.288-.554.793 0 1.475.31 2.058.92.584.608.87 1.373.87 2.292 0 .642-.209 1.329-.628 2.07-.418.743-1.045 1.341-1.882 1.806-.836.454-1.585.698-2.234.71zm-.33-7.72a.707.707 0 0 1 .088.3c0 .155-.121.432-.374.83-.319.52-.682.908-1.078 1.141-.253.155-.595.233-1.024.233-.748 0-1.31-.233-1.684-.687-.231-.277-.385-.764-.484-1.462l-1.75 1.218c-.616.355-1.079.576-1.398.676-.517.133-1.144.2-1.871.2-.528 0-.946-.156-1.255-.477-.308-.321-.462-.731-.462-1.23 0-.72.44-1.583 1.321-2.591.88-1.008 2.069-1.827 3.588-2.459 1.056-.454 1.717-.742 1.948-.864.022-.343.033-.72.033-1.13 0-1.328-.187-2.225-.55-2.702-.375-.465-.903-.709-1.585-.709-.683 0-1.387.288-2.014.853-.386.355-.683 1.02-.881 2.005a3.028 3.028 0 0 1-.363.875c-.451.288-.803.443-1.079.443-.231 0-.44-.067-.627-.2-.099-.077-.154-.155-.154-.254 0-.277.286-.886.869-1.839.573-.963 1.299-1.672 2.18-2.148.88-.477 1.64-.71 2.3-.71.891 0 1.563.078 1.992.244.44.167.826.443 1.156.853.33.41.539.853.605 1.33.044.232.066 1.051.066 2.458l-.044 2.492v1.816c.011.244 0 .443 0 .61 0 .299-.011.531-.011.675 0 .343.099.62.297.83.198.211.429.31.705.31.396 0 .737-.198 1.012-.597l.187-.255s.165-.066.341-.11zm-4.567-.454c.077-1.329.11-2.259.11-2.802 0-.288-.011-.664-.044-1.14a11.16 11.16 0 0 0-2.223 1.14 6.661 6.661 0 0 0-1.86 1.772c-.33.477-.496.93-.496 1.363 0 .41.143.742.419 1.019.275.277.627.41 1.034.41.319 0 .716-.111 1.178-.344.605-.299 1.233-.775 1.893-1.406zm-13.229-8.55v-.465c.693-.2 1.056-.31 1.1-.343.374-.166.771-.421 1.178-.776a5.155 5.155 0 0 0 1.034-1.162c.121-.023.221-.034.298-.034h.187c.044.52.066.886.066 1.119 0 .055 0 .288-.033.709v5.35l-.033 4.784c0 .387.055.653.187.808.132.155.539.321 1.199.51.419.11.727.21.936.299a.46.46 0 0 1 .044.188.445.445 0 0 1-.077.233c-.407 0-.925-.034-1.563-.078-.858-.077-1.431-.11-1.717-.11-.132 0-.968.022-2.498.077-.308 0-.617.033-.903.077a.992.992 0 0 1-.253-.044c-.055-.077-.077-.133-.077-.188 0-.144.099-.266.297-.343.044-.023.573-.144 1.585-.355.33-.066.55-.166.649-.31.177-.222.265-.565.265-1.052.022-.809.033-3.002.033-6.612 0-.72-.033-1.174-.088-1.351-.055-.122-.188-.266-.408-.432-.22-.166-.704-.322-1.43-.499zm1.309-8.14c0-.343.132-.642.397-.897.264-.255.583-.377.957-.377s.726.144 1.013.421c.286.277.44.587.44.908 0 .321-.143.632-.44.92a1.39 1.39 0 0 1-1.013.431 1.34 1.34 0 0 1-.968-.387c-.265-.266-.386-.598-.386-1.02z"/>
    <path d="M209.809 89.844c.264-.078.561-.133.902-.189.65-.088 1.046-.2 1.178-.332.132-.122.198-.41.198-.864l.033-.565c0-.21.011-.476.011-.797l-.033-4.796c0-.642-.088-1.063-.253-1.251-.275-.288-.803-.499-1.563-.61v-.575c.76-.21 1.343-.488 1.75-.82.594-.476 1.09-1.107 1.497-1.916h.528c.033.51.044.864.044 1.074v1.318c.143-.088.286-.188.452-.32a10.194 10.194 0 0 1 1.915-1.153c.649-.299 1.232-.51 1.75-.62.319-.089.682-.122 1.089-.122.848 0 1.585.233 2.201.687.617.465 1.013 1.008 1.189 1.628.187.62.275 1.86.275 3.71v2.37c0 .067 0 .277-.022.632a38.65 38.65 0 0 0-.022 1.229c0 .731.033 1.196.088 1.396.055.132.187.276.407.41 1.002.132 1.574.298 1.75.487v.121c0 .1-.033.233-.088.388h-.297l-2.058-.033-2.025.044a31.62 31.62 0 0 1-2.069-.011l-.088-.332c0-.067.033-.144.11-.255.275-.122.671-.21 1.188-.255.298-.022.507-.055.628-.1.11-.044.253-.121.418-.254.121-.255.187-.465.187-.631 0-.078 0-.222-.033-.443-.033-.477-.055-1.684-.066-3.6v-.82l.033-1.251c0-1.351-.275-2.281-.814-2.791-.54-.51-1.266-.775-2.169-.775-.693 0-1.375.155-2.036.465-.66.31-1.309.775-1.937 1.384-.022.499-.033.93-.033 1.285l.044 3.467c0 1.805.022 2.913.077 3.322.022.166.055.288.11.344.088.088.253.155.496.199.253.055.539.122.869.222.33.088.539.155.649.177.21.055.353.155.419.31v.31h-1.651l-3.368-.044c-.782 0-1.277.01-1.475.01h-.385l-.033-.199c0-.077.011-.177.044-.31z"/>
    <path d="M210.194 88.227a.707.707 0 0 1 .088.298c0 .156-.121.433-.374.831-.319.52-.682.908-1.079 1.141-.253.155-.594.233-1.023.233-.748 0-1.31-.233-1.684-.687-.231-.277-.385-.764-.484-1.462l-1.75 1.218c-.617.355-1.079.576-1.398.676-.517.133-1.145.2-1.871.2-.528 0-.947-.156-1.255-.477-.308-.321-.462-.731-.462-1.23 0-.72.44-1.583 1.321-2.591.88-1.008 2.08-1.827 3.588-2.459 1.056-.454 1.717-.742 1.948-.864.022-.343.033-.72.033-1.13 0-1.328-.187-2.225-.55-2.702-.364-.476-.903-.709-1.585-.709-.683 0-1.387.288-2.014.853-.386.355-.683 1.02-.87 2.005a3.371 3.371 0 0 1-.363.875c-.451.288-.804.443-1.079.443-.231 0-.44-.067-.627-.2-.099-.077-.154-.155-.154-.254 0-.277.286-.886.869-1.839.573-.963 1.299-1.672 2.179-2.148.881-.477 1.64-.71 2.301-.71.891 0 1.563.078 1.992.244.44.167.825.443 1.155.853.331.41.54.853.606 1.33.044.232.066 1.051.066 2.458l-.044 2.492v1.816c.011.244 0 .443 0 .61 0 .299-.011.531-.011.675 0 .343.099.62.297.83.198.211.429.31.704.31.397 0 .727-.198 1.013-.597l.187-.255s.165-.066.341-.11zm-4.567-.455c.077-1.329.11-2.259.11-2.802 0-.288-.011-.664-.044-1.14-.694.254-1.442.63-2.223 1.14a6.68 6.68 0 0 0-1.861 1.772c-.33.477-.495.93-.495 1.363 0 .41.132.742.418 1.019.276.277.628.41 1.046.41.319 0 .715-.111 1.178-.344.605-.299 1.232-.775 1.893-1.406zm-21.352-9.879c1.156.011 2.157.056 3.027.122.616 0 1.056 0 1.342-.033.198 0 .32-.011.375-.011h1.749c.243.055.43.088.573.1.066.021.121.077.176.177 0 .1-.033.21-.088.332a2.288 2.288 0 0 1-.55.088c-.782.078-1.431.2-1.96.355-.077.055-.11.1-.11.155 0 .1.055.266.155.476.022.055.066.177.143.377l1.562 3.765c.694 1.728 1.343 3.179 1.938 4.364.407-.775.781-1.573 1.122-2.403.341-.83.848-2.127 1.508-3.91.187-.498.363-1.119.528-1.86.033-.145.044-.266.044-.377 0-.122-.066-.266-.209-.41-.143-.155-.374-.277-.704-.365-.077 0-.551-.089-1.42-.233a.604.604 0 0 1-.198-.177v-.122s0-.122.011-.2c.253-.033.429-.044.55-.044h1.838c.121.011.418 0 .892-.033 1.651 0 2.641.011 2.982.044.066.022.121.089.176.189 0 .088-.033.199-.088.31l-.484.122c-.121 0-.22.022-.297.033-.892.077-1.442.21-1.651.376-.154.111-.396.654-.737 1.606-.154.477-.386 1.064-.683 1.794l-.803 1.983c-.11.288-.242.598-.374.93l-2.411 5.627h-.484a7.753 7.753 0 0 0-.341-.787l-1.189-2.525-2.784-6.579c-.562-1.273-.903-1.971-1.013-2.07-.11-.1-.781-.322-1.992-.665a1.049 1.049 0 0 1-.088-.366v-.144zm-5.052-6.966v-.344c.286-.1.616-.199.968-.299.518-.166 1.299-.42 2.323-.764h.737v.864c0 8.595-.022 13.711-.077 15.362a93.106 93.106 0 0 0-.044 1.55c0 1.174.044 1.828.143 1.96.121.189.506.322 1.145.388.638.078 1.012.144 1.133.222.088.044.121.11.121.221 0 .11-.022.2-.066.244-.044.044-.132.066-.253.066-.077 0-.616-.022-1.64-.055l-2.047-.078-2.619.122c-.165 0-.286-.022-.374-.1-.067-.055-.089-.132-.089-.221 0-.11.034-.188.1-.233.066-.044.44-.132 1.122-.243.683-.111 1.068-.21 1.167-.288.099-.078.165-.255.198-.52.044-.377.066-1.44.066-3.18v-3.61l.033-3.732v-3.733l.033-1.838c0-.366-.055-.632-.176-.787-.11-.166-.363-.32-.738-.476a28.732 28.732 0 0 1-1.155-.498z"/>
    <path d="M166.588 78.004c.231-.022.418-.033.572-.033h.749l1.012-.033 1.321.044 1.079-.033a9.23 9.23 0 0 1 1.54.11c.044.1.067.189.067.255v.122c-.232.1-.573.177-1.024.221-.638.056-1.101.167-1.387.344l-.033.177c0 .1.044.266.121.465.055.122.121.321.209.565.231.775.727 2.27 1.486 4.497a85.57 85.57 0 0 0 1.53 4.13c.286-.63.616-1.428.98-2.403l1.309-3.721a15.58 15.58 0 0 0 .694-2.437c.066-.32.088-.575.088-.764 0-.155-.066-.299-.198-.443-.132-.133-.408-.254-.815-.343-.737-.188-1.133-.31-1.2-.355-.066-.044-.099-.143-.11-.31a.543.543 0 0 1 .221-.121h4.831c.077 0 .187 0 .363.033.099.055.154.133.154.255 0 .1-.044.199-.143.287l-.308.045c-.605.088-1.067.243-1.387.465-.176.122-.33.388-.451.786-.044.144-.11.333-.198.565a7.372 7.372 0 0 0-.231.631c-.099.288-.231.643-.385 1.03l-.187.443v.078l-2.664 7.022-1.926 5.283c-.121.266-.275.587-.44.974-.396.742-.627 1.152-.704 1.23-.309.387-.584.664-.815.82l-.792.343a1.79 1.79 0 0 1-.496.066c-.473 0-.814-.1-1.034-.31-.22-.21-.33-.487-.33-.842 0-.332.165-.642.484-.919.099-.033.209-.078.308-.122l.198-.044c.925.166 1.508.255 1.728.255.22-.111.374-.244.484-.41.507-.764.947-1.606 1.31-2.548.363-.941.55-1.572.55-1.894 0-.354-.132-.874-.407-1.55l-1.728-4.607c-.242-.598-.957-2.537-2.135-5.837a1.288 1.288 0 0 0-.275-.476l-1.057-.388-.33-.066c-.176-.078-.264-.178-.264-.31l.077-.2zm-8.31 8.373c.385.997.672 1.64.87 1.927a4.445 4.445 0 0 0 1.42 1.385c.55.332 1.144.498 1.794.498.594 0 1.177-.255 1.76-.764.419-.388.628-.842.628-1.351 0-.676-.242-1.307-.738-1.883-.484-.565-1.419-1.108-2.784-1.617-1.365-.52-2.278-1.064-2.752-1.65a3.157 3.157 0 0 1-.704-2.005c0-.71.187-1.34.572-1.883.385-.543.914-.953 1.585-1.23.672-.276 1.299-.42 1.871-.42.738 0 1.398.055 1.981.177a4.91 4.91 0 0 1 1.519.532c.088.531.154 1.317.198 2.347l.033.499c-.132 0-.253.011-.341.011h-.22c-.308-.864-.792-1.55-1.431-2.06-.638-.51-1.266-.764-1.893-.764s-1.123.188-1.508.576c-.385.387-.572.886-.572 1.495 0 .465.154.886.462 1.251.308.366 1.046.787 2.19 1.252 1.145.465 1.982.908 2.51 1.307.528.398.913.897 1.155 1.473.254.576.375 1.13.375 1.65 0 .72-.231 1.396-.705 2.027a3.795 3.795 0 0 1-1.772 1.329c-.715.255-1.342.387-1.904.387-1.32 0-2.531-.243-3.643-.742-.099-.088-.165-.243-.176-.465 0-.088 0-.243-.033-.454-.165-1.406-.253-2.248-.253-2.514 0-.122.022-.21.077-.255.055-.044.187-.066.407-.066zm-16.663 3.467c.264-.078.561-.133.903-.189.649-.088 1.045-.2 1.177-.332.132-.122.198-.41.198-.864l.033-.565c0-.21.011-.476.011-.797l-.033-4.796c0-.642-.088-1.063-.253-1.251-.275-.288-.803-.499-1.563-.61v-.575c.76-.21 1.343-.488 1.75-.82.595-.476 1.09-1.107 1.497-1.916h.528c.033.51.044.864.044 1.074v1.318a4.27 4.27 0 0 0 .452-.32 10.194 10.194 0 0 1 1.915-1.153c.649-.299 1.232-.51 1.75-.62.319-.089.682-.122 1.089-.122.848 0 1.585.233 2.202.687.616.465 1.012 1.008 1.188 1.628.176.62.275 1.86.275 3.71v2.37c0 .067 0 .277-.022.632a38.65 38.65 0 0 0-.022 1.229c0 .731.033 1.196.088 1.396.055.132.187.276.408.41 1.001.132 1.584.298 1.75.487v.121c0 .1-.033.233-.088.388h-.298l-2.058-.033-2.025.044c-.748.022-1.442.011-2.069-.011l-.088-.332c0-.067.033-.144.11-.255.275-.122.671-.21 1.189-.255.297-.022.506-.055.627-.1.11-.044.253-.121.418-.254.121-.255.187-.465.187-.631 0-.078 0-.222-.033-.443-.033-.477-.055-1.684-.066-3.6v-.82l.033-1.251c0-1.351-.275-2.281-.814-2.791-.539-.51-1.266-.775-2.168-.775-.694 0-1.376.155-2.047.465-.661.31-1.31.775-1.938 1.384-.022.499-.033.93-.033 1.285l.044 3.467c0 1.805.022 2.913.077 3.322.023.166.056.288.111.344.088.088.253.155.495.199.253.055.539.122.869.222.33.088.54.155.65.177.209.055.352.155.418.31v.31h-1.651l-3.368-.044c-.781 0-1.277.01-1.486.01h-.385l-.033-.199c0-.077.011-.177.044-.31z"/>
    <path d="M126.603 89.844c.264-.078.561-.133.903-.189.649-.088 1.045-.2 1.177-.332.132-.122.198-.41.198-.864l.033-.565c0-.21.011-.476.011-.797l-.033-4.796c0-.642-.088-1.063-.253-1.251-.275-.288-.803-.499-1.563-.61v-.575c.76-.21 1.343-.488 1.75-.82.595-.476 1.09-1.107 1.497-1.916h.528c.033.51.044.864.044 1.074v1.318a4.27 4.27 0 0 0 .452-.32 10.194 10.194 0 0 1 1.915-1.153c.649-.299 1.232-.51 1.75-.62.319-.089.682-.122 1.089-.122.848 0 1.585.233 2.202.687.616.465 1.012 1.008 1.188 1.628.176.62.275 1.86.275 3.71v2.37c0 .067 0 .277-.022.632a38.65 38.65 0 0 0-.022 1.229c0 .731.033 1.196.088 1.396.055.132.188.276.408.41 1.001.132 1.574.298 1.75.487v.121c0 .1-.033.233-.088.388h-.298l-2.058-.033-2.025.044c-.748.022-1.442.011-2.069-.011l-.088-.332c0-.067.033-.144.11-.255.275-.122.671-.21 1.189-.255.297-.022.506-.055.627-.1.11-.044.253-.121.418-.254.121-.255.187-.465.187-.631 0-.078 0-.222-.033-.443-.033-.477-.055-1.684-.066-3.6v-.82l.033-1.251c0-1.351-.275-2.281-.814-2.791-.539-.51-1.266-.775-2.168-.775a4.75 4.75 0 0 0-2.036.465c-.661.31-1.31.775-1.938 1.384-.022.499-.033.93-.033 1.285l.044 3.467c0 1.805.022 2.913.078 3.322.022.166.055.288.11.344.088.088.253.155.495.199.253.055.539.122.869.222.33.088.54.155.65.177.209.055.352.155.418.31v.31h-1.651l-3.368-.044c-.781 0-1.277.01-1.486.01h-.385l-.033-.199c0-.077.011-.177.044-.31zm-.264-7.764-6.252.044h-1.189c-.473 0-.968.022-1.463.066-.088.31-.143.532-.143.643v.155l.011.155v.764c-.011.643.187 1.418.583 2.348.396.93.968 1.628 1.717 2.116.748.487 1.673.742 2.784.775.595-.033 1.068-.1 1.42-.222.352-.122.848-.376 1.497-.797l1.123-.92.088.632c0 .077 0 .155-.011.232-.463.599-1.057 1.12-1.772 1.573a8.294 8.294 0 0 1-2.18.986c-.352.088-.935.144-1.749.144a5.616 5.616 0 0 1-2.18-.454 5.341 5.341 0 0 1-2.498-2.215c-.605-1.02-.914-2.26-.914-3.71 0-.455.088-1.053.254-1.773.176-.72.484-1.484.924-2.303a4.379 4.379 0 0 1 1.112-1.363c.627-.498 1.166-.852 1.64-1.052.671-.277 1.463-.42 2.355-.42.968 0 1.761.177 2.366.531.837.465 1.453 1.074 1.86 1.816.407.742.617 1.418.617 2.038v.222zm-8.695-.565h.737c.528 0 2.113-.089 4.733-.255.418-.022.671-.066.759-.122.187-.2.275-.376.275-.531 0-.321-.099-.687-.308-1.108a2.105 2.105 0 0 0-.957-.952c-.43-.222-.936-.333-1.508-.333-1.211 0-2.168.455-2.895 1.363-.561.686-.836 1.34-.836 1.949zM98.989 70.35c.187-.033.308-.044.363-.044.352 0 .935.022 1.75.066.429 0 .715.011.869.011.231 0 .716-.022 1.453-.066l2.653-.155c.693-.067 1.507-.1 2.432-.1 1.629 0 2.928.232 3.896.698.969.465 1.717 1.196 2.234 2.182.529.996.782 1.982.782 2.957 0 1.639-.573 3.056-1.717 4.241-1.145 1.197-2.686 1.784-4.612 1.784-.539 0-.99-.056-1.353-.166-.364-.111-.782-.322-1.244-.632-.198-.133-.319-.277-.363-.42a.343.343 0 0 1 .176-.156c.143 0 .297.033.451.089.352.122.803.188 1.343.188.825 0 1.596-.2 2.333-.609a4.015 4.015 0 0 0 1.662-1.739c.374-.753.561-1.54.561-2.381 0-.842-.198-1.606-.594-2.37-.396-.764-.914-1.385-1.552-1.839-.363-.266-.924-.476-1.673-.653-.748-.177-1.332-.266-1.75-.266-1.288 0-2.047.089-2.289.277v.221l.033 1.772v.31c-.033.277-.044.72-.044 1.296 0 2.127.033 3.456.088 3.976v.876l.198 7.165c0 .1-.011.3-.044.576-.022.277-.044.532-.044.731 0 .498.044.886.121 1.14.253.078.98.244 2.179.521.562.133.87.21.925.233.088.033.154.1.22.2-.044.154-.099.254-.165.31-.066.044-.198.066-.396.066-.121 0-.419-.022-.87-.078-.891-.088-1.596-.144-2.102-.144l-2.741.111-1.639-.044c-.1 0-.408 0-.903.033v-.41l2.014-.387c.33-.089.539-.189.605-.277.1-.144.155-.432.155-.864 0-.089 0-.3.011-.61 0-.22.011-.52.011-.907 0-1.23-.055-3.866-.154-7.886a239.711 239.711 0 0 1-.067-5.737v-.266c0-.753-.11-1.23-.341-1.429-.385-.343-1.342-.631-2.883-.841a.663.663 0 0 1-.077-.277.7.7 0 0 1 .088-.3z"/>
  </g>
  <g fill="#00543d">
    <path d="M212.583 50.493h.484l.066 1.506-.033 1.927c.198 0 .319.011.374.011.275 0 .781-.022 1.541-.066.484-.034.957-.045 1.398-.045.209 0 .517 0 .935.011.022.21.033.377.033.499 0 .133-.033.354-.088.642h-.264l-2.41.078-1.2.033-.275.033c-.088.266-.121.565-.121.908l.044 2.348-.033 4.143c0 1.085.143 1.805.418 2.16.275.365.671.553 1.211.553.275 0 .781-.089 1.53-.255.231-.055.539-.221.924-.52h.143c.088 0 .165.033.231.088a.319.319 0 0 1 .088.233v.11c-.462.488-.968.853-1.552 1.075-.572.221-1.342.332-2.3.332-.671 0-1.233-.155-1.673-.465-.44-.31-.726-.687-.847-1.119-.121-.432-.187-1.362-.187-2.813l.066-3.533v-1.694l-.011-.632c0-.288 0-.587-.033-.875h-.264l-1.277.034h-.121c-.11.01-.198 0-.253-.067-.055-.055-.088-.11-.088-.188 0-.122.044-.233.121-.31.077-.078.319-.2.704-.366.275-.11.583-.332.947-.653a5.19 5.19 0 0 0 .913-1.063c.121-.21.297-.61.528-1.197.165-.431.287-.73.375-.908zM200.168 62.01c.385.997.671 1.64.869 1.927.396.598.87 1.063 1.42 1.385.55.332 1.145.498 1.794.498.594 0 1.178-.255 1.761-.764.418-.388.627-.842.627-1.351 0-.676-.242-1.307-.726-1.883-.484-.565-1.42-1.108-2.785-1.628-1.364-.52-2.289-1.063-2.751-1.65a3.152 3.152 0 0 1-.705-2.005c0-.709.187-1.34.573-1.883.385-.543.913-.952 1.585-1.23.671-.276 1.298-.41 1.871-.41.737 0 1.397.056 1.992.178.583.11 1.089.288 1.519.532.088.531.154 1.318.198 2.348l.033.498c-.132 0-.253.011-.342.011h-.22c-.308-.864-.781-1.55-1.419-2.06-.639-.51-1.266-.764-1.893-.764-.628 0-1.123.188-1.508.576-.386.376-.573.886-.573 1.495 0 .465.154.886.463 1.252.308.365 1.045.786 2.19 1.251 1.144.465 1.981.908 2.509 1.307.529.399.914.897 1.156 1.473.253.576.374 1.13.374 1.65 0 .72-.231 1.396-.704 2.027a3.805 3.805 0 0 1-1.772 1.33c-.716.254-1.343.387-1.904.387-1.321 0-2.532-.244-3.643-.742-.099-.089-.165-.244-.176-.477 0-.088 0-.243-.033-.454-.166-1.406-.254-2.248-.254-2.514 0-.122.022-.21.077-.254.055-.045.188-.067.408-.067Zm-1.112 1.85a.707.707 0 0 1 .088.299c0 .155-.121.432-.374.83-.32.52-.683.909-1.079 1.141-.253.155-.594.233-1.023.233-.749 0-1.31-.233-1.684-.687-.232-.277-.386-.764-.485-1.462l-1.75 1.23c-.616.354-1.078.575-1.397.675-.518.133-1.145.2-1.871.2-.529 0-.947-.156-1.255-.477-.308-.321-.462-.73-.462-1.23 0-.72.44-1.583 1.32-2.59.881-1.009 2.069-1.828 3.588-2.46 1.057-.454 1.717-.742 1.948-.864.022-.343.033-.72.033-1.13 0-1.328-.187-2.225-.55-2.702-.374-.465-.902-.708-1.585-.708-.682 0-1.387.277-2.014.841-.385.355-.682 1.03-.88 2.005a3.006 3.006 0 0 1-.364.875c-.451.288-.803.443-1.078.443-.231 0-.44-.067-.628-.2-.099-.077-.154-.154-.154-.254 0-.277.287-.886.87-1.839.572-.952 1.299-1.672 2.179-2.148.881-.477 1.64-.71 2.3-.71.892 0 1.563.078 1.992.245.441.166.826.443 1.156.852.33.41.539.853.605 1.33.044.232.066 1.052.066 2.458l-.044 2.492v1.816c.011.244 0 .443 0 .61 0 .299-.011.531-.011.675 0 .344.099.62.298.83.198.211.429.311.704.311.396 0 .737-.2 1.013-.598l.187-.255s.165-.066.341-.11zm-4.568-.454c.077-1.33.11-2.27.11-2.814 0-.288-.011-.664-.044-1.14-.693.254-1.441.631-2.223 1.14-.781.51-1.398 1.108-1.86 1.772-.33.477-.495.93-.495 1.363 0 .41.143.742.418 1.019.275.277.627.41 1.035.41.319 0 .715-.111 1.177-.344.606-.299 1.233-.775 1.893-1.406zm-7.616-5.693-6.251.044h-1.189c-.473 0-.968.022-1.464.067-.088.31-.143.531-.143.642v.155l.011.155v.764c-.011.643.187 1.418.584 2.348.396.93.968 1.628 1.717 2.116.737.487 1.672.742 2.784.775.594-.033 1.068-.1 1.42-.222.352-.11.847-.387 1.497-.797l1.122-.93.088.63c0 .078 0 .156-.011.233-.462.599-1.056 1.12-1.772 1.573a8.273 8.273 0 0 1-2.179.986c-.352.088-.935.144-1.75.144a5.61 5.61 0 0 1-2.179-.454 5.336 5.336 0 0 1-2.498-2.215c-.606-1.02-.914-2.26-.914-3.71 0-.466.088-1.053.253-1.773.176-.72.485-1.495.925-2.303a4.522 4.522 0 0 1 1.1-1.363c.628-.498 1.167-.852 1.64-1.052.672-.277 1.464-.42 2.356-.42.968 0 1.761.177 2.366.531.836.465 1.453 1.074 1.86 1.816.407.742.616 1.418.616 2.038v.222zm-8.695-.565h.727c.528 0 2.113-.089 4.732-.255.419-.022.672-.066.76-.122.187-.199.275-.376.275-.531 0-.321-.099-.698-.308-1.108a2.156 2.156 0 0 0-.958-.952c-.429-.222-.935-.332-1.507-.332-1.211 0-2.169.454-2.895 1.362-.561.686-.837 1.34-.837 1.949zm-17.885 8.45c1.211-.221 1.915-.387 2.103-.498.11-.077.176-.244.176-.498v-2.869l-.033-4.674v-1.739l.011-1.24.044-1.517c0-2.382-.022-3.81-.066-4.275-.044-.466-.132-.754-.276-.875-.253-.244-.935-.488-2.058-.753v-.078c0-.077 0-.177.033-.31.143-.022.287-.044.419-.078s.264-.055.385-.066c1.232-.354 2.135-.698 2.696-1.03h.76c.022.288.033 1.218.033 2.78v4.563l-.066 3.167c0 .189 0 .4.033.632.66-.764 1.133-1.274 1.442-1.529a6.974 6.974 0 0 1 1.727-1.04 5.004 5.004 0 0 1 1.938-.388c1.276 0 2.322.542 3.136 1.628.463.642.705 1.54.705 2.713l-.044 1.595v.897l-.044 1.55a110.551 110.551 0 0 0-.066 2.293c0 .277 0 .643.033 1.097l.891.2c.594.121 1.046.243 1.376.342v.488l-3.335-.089c-.187 0-.693.022-1.53.067a35.32 35.32 0 0 1-.891.033h-.342a.476.476 0 0 1-.077-.233v-.144c.144-.188.419-.31.815-.376l.935-.222c.121-.1.199-.21.221-.332.044-.277.088-1.617.143-4.043l.033-1.163c.044-1.218-.055-2.237-.276-3.034-.143-.554-.473-.997-.99-1.318-.517-.332-1.112-.498-1.783-.498-.561 0-1.09.121-1.596.365-.341.177-.759.487-1.233.92-.484.442-.814.819-1.001 1.129-.121.21-.187.554-.187 1.03v1.096l-.011 1.141c0 .1.011.742.044 1.96v.997l.011 1.097c0 .155.022.277.044.343l2.201.532c.11.033.286.1.517.2l.044.176s-.022.144-.077.255c-.297 0-.528.011-.682.011h-1.211l-2.685.011-2.014.067c-.099 0-.265-.022-.463-.034v-.11c-.011-.089.022-.189.11-.31z"/>
    <path d="M156.275 50.493h.485l.066 1.506-.033 1.927c.198 0 .319.011.374.011.275 0 .781-.022 1.541-.066.484-.034.957-.045 1.398-.045.209 0 .517 0 .935.011.022.21.033.377.033.499 0 .133-.033.354-.088.642h-.264l-2.41.078-1.2.033-.275.033c-.088.266-.121.565-.121.908l.044 2.348-.033 4.143c0 1.085.143 1.805.418 2.16.275.365.671.553 1.211.553.275 0 .781-.089 1.529-.255.232-.055.54-.221.925-.52h.143c.088 0 .165.033.231.088a.319.319 0 0 1 .088.233v.11c-.462.488-.968.853-1.552 1.075-.572.221-1.342.332-2.3.332-.671 0-1.233-.155-1.673-.465-.44-.31-.726-.687-.847-1.119-.121-.432-.187-1.362-.187-2.813l.066-3.533v-1.694l-.011-.632c0-.288 0-.587-.033-.875h-.265l-1.276.034h-.121c-.11.01-.198 0-.254-.067-.055-.055-.088-.11-.088-.188 0-.122.044-.233.122-.31.077-.078.319-.2.704-.366.275-.11.583-.332.946-.653.364-.321.661-.676.914-1.063.121-.21.297-.61.528-1.197.165-.431.286-.73.374-.908zm-18.138 3.19h1.167l.517.033.407-.034c1.068 0 1.728 0 1.992.034v.299c.011 1.473 0 2.901-.044 4.286-.033.82-.044 1.285-.044 1.395 0 1.839.055 2.99.177 3.456.121.465.396.83.847 1.107.44.277.98.421 1.607.421.759 0 1.486-.155 2.179-.476.693-.321 1.288-.709 1.772-1.174a9.77 9.77 0 0 0 .077-1.318c0-1.562.011-2.614.044-3.157 0-.32.011-.609.011-.841 0-1.695-.088-2.647-.253-2.869-.165-.221-.803-.387-1.904-.498a12.618 12.618 0 0 1-.793-.11.622.622 0 0 1-.121-.311l.044-.177c.276-.033.54-.044.793-.044l2.476.033c.881-.022 1.354-.033 1.398-.033.11 0 .22 0 .33.01l.033 1.141c-.077 1.595-.11 3.556-.121 5.892l-.033 1.274.066 2.138c.088.166.176.266.253.299.121.055.375.077.76.077h.143c.132 0 .517.034 1.155.1 0 .133.011.233.011.299v.177c-1.397.3-2.52.61-3.378.908-.342.111-.639.2-.87.255a5.985 5.985 0 0 1-.077-.676v-1.273s0-.2-.011-.421c-.132.089-.286.21-.462.343a14.505 14.505 0 0 1-2.598 1.617c-.616.3-1.21.454-1.772.454-1.089 0-1.981-.41-2.663-1.218-.693-.82-1.046-2.204-1.046-4.175 0-.1 0-.288.011-.565.044-.499.066-.853.066-1.052 0-.078 0-.3-.011-.687 0-.166-.011-.31-.011-.443 0-.089 0-.31.011-.631 0-.333.011-.565.011-.698 0-.177 0-.332-.011-.465l-.033-.83v-.444c.011-.166-.066-.321-.231-.454-.649-.177-1.078-.277-1.287-.31a1.927 1.927 0 0 1-.54-.133v-.498zm-14.23 6.002c0-.709.143-1.473.44-2.281a6.497 6.497 0 0 1 1.342-2.182c.606-.642 1.244-1.119 1.916-1.44.946-.443 2.102-.653 3.455-.653 1.949 0 3.566.664 4.876 2.004 1.299 1.34 1.959 2.946 1.959 4.83 0 1.671-.682 3.167-2.047 4.485-1.365 1.307-3.093 1.971-5.184 1.971-1.287 0-2.498-.343-3.643-1.019-.847-.51-1.585-1.274-2.201-2.27-.616-1.008-.924-2.149-.924-3.434zm6.9 6.125c.793 0 1.552-.21 2.29-.643.737-.431 1.32-1.118 1.761-2.06.44-.94.66-2.037.66-3.289 0-.82-.165-1.76-.506-2.835-.342-1.074-.859-1.883-1.563-2.426-.705-.542-1.53-.808-2.477-.808-.682 0-1.386.166-2.102.487-.715.321-1.32.941-1.805 1.86-.495.92-.737 2.227-.737 3.921 0 1.905.429 3.345 1.288 4.32.858.974 1.926 1.473 3.202 1.473zm-9.498-19.172c.088.687.121 1.086.121 1.197l-.066 1.395c-.022.598-.044.975-.077 1.14a.571.571 0 0 1-.231.067l-.143-.033c-.33-1.462-.892-2.525-1.695-3.2-.793-.665-1.761-1.009-2.906-1.009-1.144 0-2.157.333-2.916 1.008-.76.665-1.134 1.451-1.134 2.337 0 .676.264 1.307.792 1.86.529.566 1.882 1.408 4.073 2.537 1.662.864 2.85 1.573 3.566 2.127.715.553 1.254 1.185 1.617 1.905.364.72.551 1.528.551 2.414 0 1.119-.286 2.17-.87 3.156a5.584 5.584 0 0 1-2.333 2.227c-.98.498-2.267.742-3.885.742-1.398 0-2.752-.222-4.039-.676-.76-.277-1.222-.487-1.387-.653-.165-.167-.253-.344-.253-.532 0-.11 0-.266.033-.443.143-1.23.22-2.248.231-3.046.022-.487.055-.775.11-.864.044-.077.121-.11.231-.11.088 0 .165.033.22.1.055.066.099.199.121.387.11 1.285.705 2.437 1.772 3.455 1.057 1.02 2.256 1.518 3.599 1.518.826 0 1.574-.177 2.267-.52a3.78 3.78 0 0 0 1.618-1.496c.386-.653.584-1.285.584-1.905 0-.853-.297-1.617-.892-2.326-.594-.708-1.783-1.517-3.566-2.458-1.783-.942-2.949-1.617-3.489-2.05-.869-.697-1.53-1.44-1.959-2.226-.319-.609-.484-1.306-.484-2.115 0-1.45.572-2.68 1.717-3.688s2.674-1.517 4.6-1.517c1.057 0 1.971.121 2.741.365.561.188 1.134.499 1.728.93z"/>
  </g>
  <path fill="#00543d" d="M106.715 44.169c1.343.033 2.047.044 2.135.044 0 .122.011.21.011.266 0 .066 0 .177-.022.32a2.516 2.516 0 0 1-.407.034h-.308c-.672 0-1.134.022-1.387.078 0 .121-.011.221-.011.288v.121c.022.853.044 1.363.044 1.54v2.082c-.011.31.033.565.132.775.055.122.165.21.33.288.099.045.352.1.738.144.297.045.495.078.594.089 0 .11 0 .2-.022.255h-.11c-.253 0-.594-.023-1.013-.034l-.594-.022-2.036.067h-.264v-.255c.077-.011.132-.033.165-.044.462-.089.759-.189.891-.288.055-.045.088-.122.11-.233 0-.066.011-.365.011-.908 0-1.54-.011-2.769-.044-3.688-.143-.044-.352-.067-.649-.078-.11 0-.275 0-.506-.033v-.088c-.011-.067 0-.122.066-.167.022-.022.242-.133.682-.343.165-.077.286-.166.352-.277.033-.055.055-.188.066-.376 0-.089.022-.233.044-.443.066-.554.11-.897.155-1.03.099-.366.264-.72.484-1.086.231-.365.506-.675.825-.941.231-.2.507-.344.804-.443.297-.1.638-.144 1.023-.144.507 0 .881.088 1.123.255.165.11.242.254.242.432a.521.521 0 0 1-.165.387.57.57 0 0 1-.418.166c-.209 0-.43-.055-.661-.155-.451-.177-.693-.277-.759-.288a1.481 1.481 0 0 0-.319-.044c-.297 0-.562.1-.815.288-.242.188-.396.42-.462.698s-.099.897-.099 1.86v.953zm-10.632 3.056c0-.365.077-.764.231-1.185a3.33 3.33 0 0 1 .694-1.13c.308-.332.638-.575.99-.741.484-.222 1.09-.344 1.794-.344 1.002 0 1.849.344 2.52 1.041a3.48 3.48 0 0 1 1.013 2.503c0 .864-.352 1.64-1.057 2.315-.704.676-1.595 1.02-2.674 1.02a3.561 3.561 0 0 1-1.882-.533c-.44-.265-.815-.653-1.134-1.173-.319-.521-.473-1.108-.473-1.772Zm3.566 3.168c.407 0 .803-.11 1.189-.332.374-.222.682-.576.913-1.064.231-.487.341-1.052.341-1.694 0-.42-.088-.908-.264-1.473-.176-.554-.44-.975-.803-1.252a2.06 2.06 0 0 0-1.277-.42c-.352 0-.715.088-1.09.254-.363.166-.682.488-.935.964s-.385 1.152-.385 2.027c0 .985.22 1.727.671 2.237.44.51 1.002.753 1.662.753zM27.834 22.417C61.678-.011 93.804 1.395 93.804 1.395V0H0v52.94c2.388-13.5 27.834-30.523 27.834-30.523ZM0 105.072v18.939h27.427C7.473 117.465 0 105.072 0 105.072Z"/>
  <path fill="#00543d" d="M14.275 44.29c.826.133 1.926.565 2.4.632.153 0 .473.232.473.997 0 .697.154 2.16.22 2.89.033.698-.22 1.097-.473 1.097-.155 0-.342-.366-.507-.864-.286-1.163-.88-2.16-1.287-2.492-1.74-1.362-3.346-1.728-5.041-1.728-5.074 0-8.32 4.42-8.32 9.436 0 2.227.406 4.02 1.1 5.483 1.76 3.82 5.426 5.316 7.98 5.316.593 0 2.145-.1 3.433-.897 1.387-.764 2.18-1.828 2.928-3.223.407-.698.539-.864.66-.864.32 0 .341.73.286 1.096-.099.831-.825 2.592-1.266 3.356-.12.3-.66.698-.979.864-.506.233-3.06.93-5.734.93-4.447 0-7.693-2.325-8.96-3.887a11.837 11.837 0 0 1-1.177-1.717v-11.33c.65-1.163 1.409-2.049 2.003-2.57 2.708-2.325 5.646-3.056 8.552-3.056 1.1 0 2.52.232 3.72.531zm34.207 1.573c.374 0 .528-.077.528-.387 0-.432-.462-.93-1.013-.93-.693 0-1.276.431-1.552 1.151-.033.077.033.166.067.166.396.011 1.221.011 1.992 0z"/>
  <path fill="#00543d" d="M53.83 17.255C36.574 27.9 25.073 41.721 19.383 54.735a7.334 7.334 0 0 1 1.265-1.396 7.875 7.875 0 0 1 5.217-1.95c3.49 0 7.044 2.77 7.044 7.233 0 2.946-1.76 5.25-3.06 6.103-1.408 1.03-2.784 1.417-4.369 1.417s-3.379-.742-4.688-1.838c-1.52-1.24-2.609-3.655-2.609-5.427 0-.565.055-1.075.154-1.562-1.552 4.065-2.531 8.019-2.927 11.751-1.728 16.336-.914 33.647 11.875 45.553 12.79 11.906 32.952 5.881 32.952 5.881 22.629-6.224 33.569-25.894 33.569-25.894V6.357c-20.846-1.661-39.963 10.91-39.963 10.91Zm26.977 27.412c.352-.321.88-.465 1.375-.465.947 0 1.552 1.096 1.552 1.739 0 .952-.99 1.738-1.695 1.738-.242 0-.814-.144-1.122-.42-.287-.322-.529-.71-.529-1.307 0-.321.143-.886.419-1.274zm-11.27 8.329c1.375-.997 3.664-1.484 4.61-1.484 1.058 0 2.61.288 3.28.82.353.243.53.852.53 1.062 0 .565-1.024 1.418-1.168 1.418-.209 0-.814-.288-1.375-.675-1.167-.853-1.761-1.385-2.961-1.385-.561 0-1.618.498-2.18 1.207-.946 1.063-1.474 2.514-1.474 4.076 0 2.06.77 3.334.913 3.544.881 1.484 2.609 2.37 4.436 2.37 1.299 0 2.223-.42 3.137-1.063.385-.288.671-.177.671 0 0 .388-.176.742-.462 1.03-1.233 1.384-3.236 2.204-5.074 2.204-2.223 0-4.083-1.174-5.217-2.835-.594-.997-1.09-2.658-1.09-4.143 0-2.591 1.376-4.75 3.412-6.135zm-22.563-8.573a3.179 3.179 0 0 1 1.167-.277c.539 0 1.144.2 1.53.588.34.32.539.764.539 1.306 0 .089-.121.266-.297.266s-2.807 0-3.511-.01c-.044 0-.11.077-.122.12a2.084 2.084 0 0 0-.077.544c0 .609.243 1.318.584 1.772.341.465.99.853 1.728.853.682 0 1.144-.167 1.398-.554.066-.089.143-.189.198-.189.088 0 .12.111.12.189 0 .122-.065.299-.11.376-.539.787-1.353 1.163-2.234 1.163-1.662 0-2.773-1.273-2.773-3.09 0-1.24.65-2.48 1.849-3.046zm-15.012 6.08c-.308 0-.463-.066-.463-.154 0-.122.144-.244.298-.277 1.067-.244 1.111-.532 1.155-1.695.033-.919.11-4.075.11-5.272v-1.85c0-.121-.077-.199-.12-.199-.309-.044-1.608-.066-1.85-.066-.583 0-.913.11-1.144.354-.066.045-.243.244-.507.765-.143.32-.23.354-.297.354-.088 0-.154-.188-.154-.343 0-.3.297-1.13.297-2.05 0-.11.143-.243.231-.243.077 0 .066.067.22.2.044.044.32.32.55.343.397.044 1.575.066 3.545.066.803 0 2.96.033 3.566-.033.033 0 .737-.033.957-.077.275-.078.341-.078.473-.2.22-.166.474-.354.617-.354.11 0 .143.122.143.166-.044.554-.187 1.04-.22 2.082-.044 1.396-.044 2.625-.044 2.913 0 .066.044.144.11.088.627-.575 1.277-.897 1.948-.897.77 0 1.31.266 1.629.71.297.42.429 1.007.429 1.671.011.975.066 1.939.066 2.87 0 .387.198.509.616.608.309.067.43.155.43.244 0 .144-.121.2-.419.2-.539 0-.704-.045-1.221-.045-.352 0-.66.033-1.123.033-.22 0-.297-.077-.297-.188 0-.089.121-.166.308-.222.385-.122.451-.166.506-.764.033-.299 0-2.005 0-2.248 0-.853-.077-1.351-.264-1.55-.242-.3-.627-.51-1.232-.51-.683 0-1.167.299-1.233.354-.033.033-.231.277-.264.764-.033.654-.033 2.67-.011 3.223.033.51.242.61.605.698.22.067.32.166.32.244 0 .144-.155.188-.375.188-.121 0-.913-.033-1.266-.033-.352 0-.913.044-1.188.044-.143 0-.353-.044-.353-.2 0-.077.122-.165.452-.265.418-.144.572-.31.616-.886.044-.654.143-1.717.143-5.505 0-1.251.011-1.716 0-2.049 0-.31-.231-.465-.297-.465-.264-.044-3.115-.077-3.5-.01-.066.01-.121.165-.121.199 0 .73-.011 2.447-.011 3.798 0 1.795.011 3.279.077 3.844.066.697.143.886 1.09 1.096.198.044.418.166.418.277 0 .166-.275.188-.43.188-.12 0-1.078-.077-1.738-.077-.782 0-1.552.11-1.772.11zm3.368 3.877c-.033-.997-.705-1.13-1.3-1.384-.318-.144-.638-.322-.638-.643 0-.11.177-.32.595-.32.99 0 3.588-.389 3.73-.389s.287.322.287.532c.033 1.207-.11 7.908-.11 9.503 0 .82.385 1.628.88 1.982.914.71 1.552.71 2.4.71.847 0 1.794-.466 2.674-1.241.21-.178.529-.71.529-.853l.066-8.152c0-.21-.386-.708-.595-.775-.528-.144-1.298-.354-1.618-.42-.242-.067-.704-.289-.704-.566 0-.144.462-.32.814-.32 1.41 0 2.961-.178 3.765-.388.352-.111.594-.144.847-.144.176 0 .242.387.242.531-.066.997-.352 8.86-.352 11.762 0 .067.143.499.418.499.242 0 1.343-.178 1.761-.178.143 0 .385.565.418.676 0 .055-.066.144-.154.222.132-.078.297-.144.463-.189 1.166-.354 1.375-.708 1.474-1.982.11-1.063.176-4.142.176-7.764 0-.388-.066-.742-.847-1.385-.462-.32-.671-.498-.671-.598 0-.243.385-.598.638-.708.594-.21 1.87-.676 2.355-1.03.352-.21.672-.388.848-.388.176 0 .352.388.352.532 0 .598-.143 1.45-.143 1.772 0 .177.176.11.209.11 1.409-.952 3.236-1.949 4.722-1.949 1.728 0 2.707.775 3.202 1.351.77.92 1.233 2.548 1.233 4.32 0 .675.066 5.958.11 6.446.066.531.418.996 1.299 1.24.671.177.88.354.88.598s-.495.388-1.056.388c-.815 0-1.618-.067-2.609-.067-.88 0-1.97.067-2.432.067-.32 0-.815-.144-.815-.421 0-.244.386-.465.815-.598.847-.321 1.023-.598 1.09-1.772.066-1.174.11-5.46.11-6.49 0-1.274-.639-2.304-1.057-2.625-.385-.288-1.442-.676-2.256-.676-1.552 0-2.466.532-3.137 1.13-.11.11-.352.531-.352.853 0 .465 0 8.085.033 8.505.033.499.176.776 1.299 1.097.352.11.638.321.638.532 0 .254-.385.432-.88.432-.419 0-1.41-.034-2.147-.034-1.299 0-2.322.111-2.927.111-.529 0-.914-.144-.914-.465 0-.1.066-.177.143-.255a.245.245 0 0 1-.11.033c-.913.067-2.4.466-3.203.676-.594.177-1.166.321-1.232.321-.143 0-.353-.243-.353-.498 0-.21.11-.886.144-1.484 0-.177-.11-.288-.177-.244-1.023.709-2.432 1.628-2.883 1.805-.594.244-1.376.421-2.355.421-1.266 0-2.4-.565-3.104-1.661-.242-.388-.495-1.097-.495-1.661 0-2.548 0-6.557-.067-8.44zm34.272 60.937c-15.133 8.395-29.628 4.341-29.628 4.341-6.604-7.93-3.94-18.551-3.115-21.785.826-3.234 9.246-20.932 28.407-18.34 19.162 2.591 22.948 19.824 22.948 19.824s-3.49 7.565-18.623 15.971zm22.64-49.485c-.848 0-2.355-.11-2.994-.11-.814 0-2.355.11-3.103.11-.32 0-.54-.022-.694-.077a1.63 1.63 0 0 1-.473.077c-.242 0-2.003-.11-2.752-.11-1.166 0-2.399.143-2.993.143-.562 0-.914-.144-.914-.387 0-.21.242-.388.848-.565.814-.21 1.343-.643 1.409-.997.11-.498.143-2.625.143-3.655 0-.066.033-5.106-.033-5.527-.033-.243-.419-.531-1.442-1.273-.21-.144-.286-.244-.286-.388 0-.243.319-.531.704-.598 1.299-.288 2.96-1.063 3.489-1.207.143 0 .32.354.32.388 0 .387-.21 4.995-.21 7.021 0 2.027.033 3.478.066 4.718.033 1.13.815 1.208 1.695 1.485.22.066.363.133.484.21.132-.055.275-.11.43-.133 1.617-.354 1.694-.997 1.793-2.769.067-1.35.243-5.172.243-10.776 0-2.625-.11-6.346-.11-7.41 0-.288-.033-.498-.848-.996-.594-.421-.704-.532-.704-.676 0-.144.11-.388.495-.498 1.618-.565 2.674-.776 3.632-1.385.11-.066.32.21.32.355-.111.886-.32 4.895-.32 9.635 0 5.172-.066 11.94.11 12.903.143.709.286 1.13 1.794 1.562.528.144.814.32.814.531 0 .244-.495.388-.913.388z"/>
  <path fill="#00543d" d="M26.183 65.112c.386 0 1.167-.177 2.147-1.174.88-.952 1.585-3.156 1.585-4.674 0-1.838-.419-3.865-1.761-5.427-.77-.852-2.047-1.384-2.961-1.384-.737 0-1.552.388-2.29 1.03-.913.853-1.727 2.691-1.727 4.54 0 1.175.143 2.271.418 3.157.88 2.659 2.884 3.932 4.579 3.932z"/>
  <path fill="#fff" d="M49.307 65.024s-.088.055-.121.088a.49.49 0 0 0 .121-.088z"/>
</svg>
