<svg xmlns="http://www.w3.org/2000/svg" fill="none" viewBox="0 0 248 124">
  <path d="M0 0v52.94l.012-.051v7.826c.374.675.792 1.24 1.177 1.717 1.266 1.561 4.513 3.888 8.96 3.888 2.674 0 5.228-.699 5.734-.931.038-.02.086-.05.129-.076-.256 1.27-.474 2.527-.604 3.753-1.728 16.337-.914 33.647 11.875 45.553 12.79 11.906 32.953 5.881 32.953 5.881 22.629-6.224 33.569-25.895 33.569-25.895V6.357a48.525 48.525 0 0 0-3.885-.152c-19.277.012-36.078 11.06-36.078 11.06l-.012-.01C36.573 27.9 25.071 41.722 19.38 54.736a7.328 7.328 0 0 1 1.266-1.395 7.88 7.88 0 0 1 5.22-1.95c3.488 0 7.042 2.768 7.042 7.231 0 2.946-1.762 5.25-3.06 6.104-1.41 1.03-2.785 1.418-4.37 1.418-1.584 0-3.377-.744-4.687-1.84-1.519-1.24-2.61-3.654-2.61-5.426 0-.565.056-1.075.155-1.563a53.494 53.494 0 0 0-1.297 3.877c-.709 1.27-1.485 2.253-2.785 2.97-1.288.797-2.841.896-3.436.896-2.553 0-6.217-1.496-7.978-5.317-.694-1.462-1.102-3.256-1.102-5.482 0-5.017 3.249-9.436 8.323-9.436 1.694 0 3.302.365 5.04 1.727.408.332 1.001 1.33 1.288 2.492.165.498.351.865.506.865.253 0 .505-.4.472-1.097-.066-.731-.219-2.193-.219-2.891 0-.764-.32-.996-.474-.996-.473-.067-1.573-.498-2.399-.631h.01c-1.2-.3-2.618-.531-3.719-.531-2.645 0-5.317.609-7.818 2.472C9.925 34.4 27.834 22.416 27.834 22.416 61.678-.012 93.804 1.395 93.804 1.395V0H0zm109.004 39.639a3.22 3.22 0 0 0-1.024.144c-.297.1-.571.244-.802.444a3.989 3.989 0 0 0-.826.941 4.27 4.27 0 0 0-.485 1.084c-.045.133-.088.477-.154 1.031-.022.21-.043.355-.043.444-.011.188-.033.32-.066.375-.066.11-.187.2-.352.277-.44.21-.662.321-.684.344-.066.044-.075.1-.064.166v.088c.23.033.396.033.506.033.297.01.505.034.648.078.033.92.043 2.148.043 3.687 0 .543-.01.842-.01.909-.022.11-.056.188-.11.232-.133.1-.43.2-.892.29-.033.01-.087.03-.164.042v.256h.264l2.035-.066.596.021c.419.011.759.033 1.012.033h.111c.022-.055.021-.143.021-.254-.099-.01-.296-.045-.593-.09-.386-.044-.64-.098-.739-.142-.165-.078-.275-.167-.33-.29-.099-.21-.143-.464-.132-.775V46.86c0-.177-.021-.686-.043-1.539v-.12c0-.067.01-.168.01-.29.252-.055.714-.076 1.386-.076h.309c.132 0 .276-.011.408-.033.022-.144.021-.256.021-.322 0-.056-.011-.144-.011-.266-.088 0-.792-.012-2.135-.045l-.043.023v-.953c0-.963.032-1.584.098-1.861a1.23 1.23 0 0 1 .462-.697c.253-.189.518-.287.815-.287.11 0 .22.02.318.043.066.01.309.111.76.289.231.1.451.154.66.154a.57.57 0 0 0 .418-.166.52.52 0 0 0 .166-.387.499.499 0 0 0-.242-.433c-.242-.167-.616-.254-1.123-.254zm-69.559.132c.11 0 .145.122.145.166-.044.554-.188 1.041-.22 2.083a96.617 96.617 0 0 0-.046 2.914c0 .066.045.143.112.087.627-.575 1.276-.896 1.947-.896.77 0 1.31.266 1.629.709.297.42.43 1.007.43 1.672.01.975.066 1.939.066 2.869 0 .388.197.508.615.607.308.067.43.156.43.245 0 .143-.121.199-.418.199-.54 0-.706-.043-1.223-.043-.352 0-.659.033-1.121.033-.22 0-.299-.079-.299-.19 0-.088.122-.165.309-.22.385-.122.45-.168.506-.766.033-.299 0-2.004 0-2.248 0-.853-.077-1.351-.264-1.55-.242-.3-.627-.508-1.232-.508-.683 0-1.167.298-1.233.353-.033.033-.23.276-.264.764a63.337 63.337 0 0 0-.011 3.222c.033.51.242.611.605.7.22.066.319.164.319.242 0 .144-.153.19-.373.19-.122 0-.914-.034-1.266-.034s-.914.045-1.19.045c-.143 0-.351-.046-.351-.201 0-.078.12-.166.451-.266.418-.144.571-.309.615-.885.044-.653.145-1.718.145-5.505 0-1.252.01-1.717 0-2.05 0-.31-.231-.464-.297-.464-.264-.044-3.115-.076-3.5-.01-.066.011-.121.166-.121.2 0 .73-.012 2.447-.012 3.798 0 1.794.01 3.277.076 3.842.066.698.144.887 1.09 1.098.198.044.418.164.418.275 0 .166-.274.19-.428.19-.12 0-1.08-.079-1.74-.079-.781 0-1.551.112-1.771.112l-.012.033c-.308 0-.461-.066-.461-.154 0-.122.143-.245.297-.278 1.067-.243 1.112-.532 1.156-1.695.033-.92.11-4.075.11-5.272v-1.85c0-.12-.078-.198-.122-.198-.308-.045-1.607-.067-1.85-.067-.583 0-.913.11-1.144.354-.066.044-.241.245-.506.765-.143.322-.23.354-.296.354-.089 0-.155-.189-.155-.344 0-.299.297-1.13.297-2.049 0-.11.142-.244.23-.244.078 0 .067.068.221.201.044.045.32.32.551.342.396.044 1.573.067 3.543.067.803 0 2.961.033 3.566-.034.034 0 .737-.032.957-.076.276-.077.343-.077.475-.199.22-.166.472-.356.615-.356zm50.992.676c.11-.066.319.21.319.354-.11.886-.319 4.896-.319 9.636 0 5.173-.066 11.94.11 12.903.143.709.287 1.13 1.795 1.562.528.144.814.321.814.532 0 .243-.496.386-.914.386v.012c-.847 0-2.356-.111-2.994-.111-.814 0-2.355.111-3.103.111-.32 0-.54-.023-.694-.078a1.626 1.626 0 0 1-.472.078c-.243 0-2.004-.111-2.752-.111-1.167 0-2.4.144-2.995.144-.56 0-.914-.143-.914-.386 0-.211.243-.39.848-.567.815-.21 1.344-.642 1.41-.996.11-.498.143-2.624.143-3.654 0-.067.033-5.107-.033-5.528-.034-.243-.418-.531-1.442-1.273-.21-.144-.287-.245-.287-.389 0-.243.32-.531.705-.597 1.299-.288 2.96-1.063 3.488-1.207.143 0 .32.355.32.388 0 .388-.208 4.995-.208 7.022s.031 3.476.064 4.717c.033 1.13.815 1.207 1.695 1.484.22.066.364.133.485.21a1.77 1.77 0 0 1 .43-.132c1.617-.354 1.694-.997 1.793-2.77.066-1.35.242-5.17.242-10.775 0-2.625-.11-6.347-.11-7.41 0-.288-.033-.498-.847-.996-.595-.421-.703-.532-.703-.676 0-.144.108-.387.494-.498 1.618-.565 2.675-.776 3.632-1.385zm9.356 3.38c-.704 0-1.31.12-1.795.341-.352.166-.682.41-.99.742-.308.332-.54.71-.694 1.131-.154.42-.232.818-.232 1.184h.023c0 .664.154 1.253.473 1.773.32.52.693.908 1.133 1.174a3.564 3.564 0 0 0 1.883.531c1.079 0 1.97-.344 2.674-1.02.705-.675 1.056-1.45 1.056-2.314 0-.974-.34-1.804-1.011-2.502-.672-.698-1.518-1.04-2.52-1.04zm-51.652.32c.539 0 1.144.2 1.529.587.341.321.539.764.539 1.307 0 .089-.12.266-.297.266-.176 0-2.805-.001-3.51-.012-.044 0-.11.077-.12.121a2.085 2.085 0 0 0-.079.543c0 .61.243 1.32.584 1.773.341.466.991.852 1.729.852.682 0 1.143-.165 1.396-.553.066-.088.144-.19.2-.19.087 0 .12.113.12.19 0 .122-.067.3-.11.377-.54.787-1.355 1.162-2.235 1.162-1.662 0-2.774-1.273-2.774-3.09 0-1.24.65-2.482 1.85-3.046l.012-.01a3.178 3.178 0 0 1 1.166-.278zm51.607.011c.484 0 .914.143 1.277.42.363.277.627.698.803 1.252.176.565.264 1.052.264 1.473 0 .642-.109 1.208-.34 1.695-.231.487-.54.841-.914 1.063a2.366 2.366 0 0 1-1.166.332c-.66 0-1.222-.243-1.662-.752-.452-.51-.672-1.253-.672-2.239 0-.875.132-1.55.385-2.027.253-.476.572-.797.935-.963a2.688 2.688 0 0 1 1.09-.254zm-17.566.043c.946 0 1.552 1.098 1.552 1.74 0 .953-.99 1.739-1.695 1.739-.242 0-.815-.145-1.123-.422-.286-.321-.527-.709-.527-1.307 0-.321.143-.886.418-1.273v-.01c.352-.321.88-.467 1.375-.467zm-34.184.344c-.693 0-1.277.432-1.553 1.152-.033.078.034.166.067.166.392.011 1.206.011 1.97 0 .375 0 .528-.078.528-.388 0-.432-.462-.93-1.012-.93zm115.729.555c-.561.332-1.466.675-2.698 1.029a2.555 2.555 0 0 0-.384.066 4.662 4.662 0 0 1-.418.078 1.176 1.176 0 0 0-.034.309v.078c1.123.266 1.806.51 2.059.754.144.122.231.41.275.875.044.465.067 1.894.067 4.275l-.045 1.518-.012 1.24v1.739l.033 4.673v2.87c0 .254-.065.42-.175.498-.177.104-.826.259-1.907.46.277-.187.537-.411.783-.671v-.112c0-.1-.032-.177-.087-.232a.352.352 0 0 0-.23-.088h-.143c-.385.3-.694.464-.926.52-.748.166-1.255.255-1.53.255-.54 0-.935-.189-1.21-.554-.275-.355-.418-1.075-.418-2.16l.033-4.141-.043-2.348c0-.343.033-.642.12-.908l.274-.033 1.202-.033 2.41-.078h.263a4.05 4.05 0 0 0 .088-.643c0-.122-.011-.288-.033-.498a33.838 33.838 0 0 0-.936-.012c-.44 0-.914.012-1.398.045a31.98 31.98 0 0 1-1.539.066c-.055 0-.177-.011-.375-.011l.033-1.928-.066-1.506h-.461c-.087.18-.199.46-.354.865-.23.587-.406.985-.527 1.196a5.16 5.16 0 0 1-.914 1.062c-.363.321-.672.544-.947.655-.385.166-.626.287-.703.365a.435.435 0 0 0-.124.31c0 .078.033.132.088.188.056.066.144.077.254.066h.121l1.278-.033h.263c.033.288.034.587.034.875l.011.63v1.696l-.066 3.533c0 1.451.066 2.38.187 2.813.121.432.406.809.846 1.119.44.31 1.003.465 1.674.465.958 0 1.729-.11 2.3-.332.186-.07.361-.158.532-.256a.361.361 0 0 0-.049.21v.112c.198.011.366.033.465.033l2.014-.066 2.683-.012h1.211c.154 0 .387-.01.684-.01.055-.11.076-.255.076-.255l-.043-.176a5.502 5.502 0 0 0-.518-.201l-2.2-.531a1.154 1.154 0 0 1-.046-.342l-.01-1.098v-.996a142.075 142.075 0 0 1-.044-1.961l.011-1.14V58.18c0-.477.067-.821.188-1.032.187-.31.516-.685 1-1.128.474-.432.891-.743 1.232-.92a3.632 3.632 0 0 1 1.598-.366c.67 0 1.264.166 1.781.498.517.322.847.765.99 1.319.221.797.322 1.817.278 3.035l-.033 1.162c-.055 2.426-.1 3.766-.143 4.043-.022.122-.102.232-.223.332l-.933.22c-.396.067-.673.19-.817.378v.144a.48.48 0 0 0 .078.233h.342c.088 0 .385-.011.89-.034a43.684 43.684 0 0 1 1.53-.066l3.336.088V65.6c-.33-.1-.783-.222-1.377-.344l-.89-.2a14.293 14.293 0 0 1-.034-1.095c0-.244.023-1.008.067-2.293l.045-1.55v-.897l.043-1.596c0-1.174-.242-2.07-.705-2.713-.814-1.085-1.86-1.629-3.135-1.629-.683 0-1.323.134-1.94.389a6.971 6.971 0 0 0-1.726 1.04c-.31.256-.782.764-1.442 1.528a4.337 4.337 0 0 1-.033-.63l.067-3.169V47.88c0-1.562-.012-2.491-.034-2.78h-.76zm-7.428 5.392.02-.043-.044.043h.024zm-39.492-5.15c-1.926 0-3.455.51-4.6 1.517-1.145 1.008-1.717 2.239-1.717 3.69 0 .808.166 1.506.485 2.115.429.786 1.09 1.527 1.959 2.225.54.432 1.705 1.11 3.488 2.05 1.783.942 2.972 1.749 3.566 2.457.595.71.893 1.474.893 2.327 0 .62-.198 1.253-.584 1.906a3.78 3.78 0 0 1-1.62 1.494 5.02 5.02 0 0 1-2.267.522c-1.343 0-2.54-.5-3.597-1.518-1.067-1.019-1.664-2.17-1.774-3.455-.022-.188-.064-.322-.12-.389a.278.278 0 0 0-.22-.1c-.11 0-.186.034-.23.112-.055.089-.09.376-.112.863-.01.798-.087 1.816-.23 3.045a2.332 2.332 0 0 0-.033.443c0 .189.089.366.254.532.165.166.626.377 1.386.654 1.287.454 2.641.676 4.04.676 1.617 0 2.904-.244 3.884-.742a5.582 5.582 0 0 0 2.332-2.227 6.085 6.085 0 0 0 .871-3.156c0-.886-.186-1.694-.55-2.414-.363-.72-.903-1.35-1.618-1.905-.716-.553-1.904-1.263-3.566-2.127-2.191-1.13-3.543-1.972-4.072-2.537-.528-.553-.793-1.183-.793-1.859 0-.886.374-1.673 1.134-2.338.76-.675 1.772-1.008 2.916-1.008 1.145 0 2.114.344 2.907 1.008.803.676 1.363 1.74 1.693 3.201l.145.033a.57.57 0 0 0 .23-.066c.033-.166.054-.542.076-1.14l.067-1.397c0-.11-.033-.509-.121-1.195h-.034c-.594-.432-1.165-.742-1.726-.93-.77-.244-1.685-.367-2.742-.367zm95.82 5.107-.045.043h.025l.02-.043zm-.02.043c-.086.18-.2.46-.355.865-.231.587-.406.985-.527 1.196a5.192 5.192 0 0 1-.914 1.062c-.364.321-.673.544-.948.655-.385.166-.626.287-.703.365a.438.438 0 0 0-.12.31c0 .078.032.132.087.188.055.066.144.077.254.066h.12l1.276-.033h.266c.033.288.031.587.031.875l.012.63v1.696l-.066 3.533c0 1.451.066 2.38.187 2.813.121.432.408.809.848 1.119.44.31 1 .465 1.672.465.958 0 1.728-.11 2.3-.332.584-.222 1.09-.587 1.551-1.074v-.112c0-.1-.033-.177-.088-.232a.352.352 0 0 0-.23-.088h-.143c-.385.3-.693.464-.924.52-.749.166-1.256.255-1.53.255-.54 0-.937-.189-1.212-.554-.275-.355-.418-1.075-.418-2.16l.033-4.141-.043-2.348c0-.343.034-.642.122-.908l.275-.033 1.2-.033 2.41-.078h.263a4.05 4.05 0 0 0 .088-.643c0-.122-.011-.288-.033-.498a33.838 33.838 0 0 0-.936-.012c-.44 0-.912.012-1.396.045-.76.044-1.266.066-1.541.066-.055 0-.177-.011-.375-.011l.033-1.928-.067-1.506h-.459zm-158.886.488c.176 0 .351.388.351.532 0 .598-.142 1.45-.142 1.771 0 .177.176.112.209.112 1.408-.953 3.237-1.95 4.722-1.95 1.728 0 2.706.776 3.202 1.352.77.92 1.234 2.546 1.234 4.318 0 .676.065 5.96.11 6.447.065.532.418.997 1.298 1.24.671.178.88.355.88.598 0 .244-.494.387-1.056.387-.814 0-1.619-.066-2.61-.066-.88 0-1.968.066-2.43.066-.32 0-.815-.143-.815-.42 0-.244.385-.465.814-.597.848-.322 1.024-.6 1.09-1.774.066-1.174.11-5.46.11-6.49 0-1.274-.639-2.304-1.057-2.625-.385-.288-1.442-.674-2.256-.674-1.552 0-2.465.53-3.137 1.129-.11.11-.353.532-.353.853 0 .466 0 8.086.033 8.506.033.499.176.775 1.299 1.096.352.11.638.32.638.531 0 .255-.385.432-.88.432-.419 0-1.408-.033-2.145-.033-1.299 0-2.322.111-2.928.111-.528 0-.914-.144-.914-.465 0-.1.066-.178.143-.256a.243.243 0 0 1-.11.034c-.913.066-2.4.465-3.203.675-.594.178-1.166.323-1.232.323-.143 0-.352-.244-.352-.498 0-.21.11-.887.143-1.485 0-.177-.11-.288-.176-.244-1.023.709-2.433 1.628-2.885 1.805-.594.243-1.376.422-2.355.422-1.266 0-2.4-.566-3.104-1.663-.242-.387-.494-1.095-.494-1.66 0-2.547 0-6.556-.066-8.44h.033c-.033-.996-.704-1.13-1.299-1.384-.319-.144-.638-.321-.638-.642 0-.111.175-.323.593-.323.99 0 3.59-.386 3.733-.386.143 0 .285.32.285.53.033 1.208-.11 7.91-.11 9.505 0 .82.384 1.628.88 1.982.913.709 1.552.707 2.4.707.847 0 1.793-.465 2.674-1.24.209-.177.529-.708.529-.852l.066-8.152c0-.21-.386-.709-.595-.775a41.023 41.023 0 0 0-1.618-.42c-.242-.067-.705-.288-.705-.565 0-.144.463-.322.815-.322 1.409 0 2.962-.176 3.765-.387.353-.11.593-.144.846-.144.176 0 .242.387.242.531-.066.997-.351 8.86-.351 11.762 0 .066.143.498.418.498.242 0 1.343-.176 1.761-.176.143 0 .385.565.418.676 0 .055-.066.143-.154.22.132-.077.298-.143.463-.187 1.167-.354 1.376-.709 1.475-1.982.11-1.064.175-4.143.175-7.764 0-.388-.066-.743-.847-1.385-.462-.321-.672-.498-.672-.598 0-.243.385-.598.639-.709.594-.21 1.87-.676 2.355-1.03.352-.211.672-.388.848-.388zm20.427.532c1.057 0 2.608.288 3.28.82.352.244.529.852.529 1.063 0 .564-1.025 1.417-1.168 1.417-.209 0-.814-.288-1.375-.675-1.167-.853-1.761-1.385-2.96-1.385-.562 0-1.62.498-2.18 1.207-.947 1.063-1.475 2.515-1.475 4.076 0 2.06.77 3.333.914 3.543.88 1.484 2.608 2.371 4.435 2.371 1.3 0 2.224-.42 3.137-1.062.385-.288.672-.177.672 0 0 .387-.177.741-.463 1.029-1.233 1.384-3.236 2.203-5.074 2.203-2.223 0-4.083-1.173-5.217-2.834-.594-.997-1.09-2.658-1.09-4.142 0-2.592 1.376-4.753 3.412-6.137l.012-.01c1.376-.997 3.665-1.484 4.611-1.484zm-48.955.941c-.737 0-1.551.387-2.289 1.03-.913.852-1.728 2.69-1.728 4.54 0 1.174.143 2.27.418 3.157.88 2.658 2.883 3.931 4.578 3.931h.012c.385 0 1.167-.177 2.146-1.174.88-.952 1.584-3.156 1.584-4.673 0-1.839-.417-3.864-1.76-5.426-.77-.853-2.047-1.385-2.96-1.385zm178.508.565c-.573 0-1.2.133-1.87.41-.673.277-1.202.686-1.587 1.228-.386.543-.572 1.174-.572 1.883 0 .753.242 1.419.705 2.006.462.587 1.388 1.13 2.752 1.65 1.365.52 2.3 1.062 2.783 1.627.484.576.727 1.207.727 1.883 0 .51-.21.964-.627 1.352-.583.51-1.166.763-1.76.763a3.401 3.401 0 0 1-1.795-.498c-.55-.32-1.024-.786-1.42-1.385-.198-.287-.484-.928-.869-1.925l.012-.012c-.22 0-.354.022-.409.066-.055.045-.078.133-.078.254 0 .266.088 1.11.254 2.516.033.21.033.364.033.453.011.233.077.388.176.477 1.111.498 2.324.742 3.645.742.56 0 1.186-.134 1.902-.389a3.807 3.807 0 0 0 1.774-1.328c.473-.631.703-1.307.703-2.027 0-.52-.12-1.075-.373-1.65a3.549 3.549 0 0 0-1.157-1.473c-.528-.4-1.365-.842-2.51-1.307-1.144-.465-1.88-.887-2.189-1.252a1.891 1.891 0 0 1-.463-1.252c0-.609.187-1.118.573-1.494.385-.388.88-.576 1.507-.576.627 0 1.256.254 1.895.763.638.51 1.11 1.197 1.418 2.061h.22c.09 0 .21-.012.342-.012l-.033-.498c-.044-1.03-.11-1.816-.197-2.347a4.929 4.929 0 0 0-1.52-.532 9.957 9.957 0 0 0-1.992-.177zm-21.681.087c-.892 0-1.686.145-2.358.422-.473.2-1.01.555-1.639 1.053a4.517 4.517 0 0 0-1.1 1.361c-.44.809-.749 1.585-.925 2.305-.165.72-.254 1.306-.254 1.772 0 1.45.308 2.692.914 3.71a5.335 5.335 0 0 0 2.498 2.215c.715.3 1.443.453 2.18.453.815 0 1.398-.055 1.75-.144a8.272 8.272 0 0 0 2.18-.984c.716-.455 1.31-.975 1.771-1.573.011-.077.012-.156.012-.234l-.088-.63-1.123.93c-.65.41-1.144.687-1.496.798-.352.121-.826.187-1.42.22-1.112-.033-2.048-.288-2.785-.775-.75-.487-1.321-1.185-1.717-2.115-.397-.93-.595-1.706-.584-2.348v-.764l-.012-.156v-.154c0-.11.057-.333.145-.643.496-.044.99-.066 1.463-.066h1.19l6.24-.045v-.22c0-.621-.21-1.296-.618-2.038-.407-.742-1.023-1.351-1.86-1.816-.604-.355-1.396-.534-2.364-.534zm-50.96.024c-1.352 0-2.509.21-3.455.652-.672.321-1.31.8-1.916 1.442a6.495 6.495 0 0 0-1.341 2.181c-.297.809-.442 1.573-.442 2.282l-.01.011c0 1.285.308 2.424.924 3.432.616.997 1.354 1.762 2.201 2.271 1.145.676 2.356 1.02 3.643 1.02 2.091 0 3.819-.666 5.184-1.973 1.365-1.318 2.047-2.812 2.047-4.484 0-1.883-.66-3.49-1.96-4.83-1.31-1.34-2.925-2.004-4.874-2.004zm61.688.045c-.66 0-1.418.23-2.299.707-.88.476-1.607 1.198-2.18 2.15-.582.953-.869 1.561-.869 1.838 0 .1.056.177.155.254.188.133.396.2.627.2.275 0 .627-.154 1.078-.442.188-.31.297-.598.363-.875.198-.975.496-1.652.88-2.006.628-.565 1.333-.842 2.015-.842.683 0 1.212.244 1.586.71.363.475.548 1.373.548 2.702 0 .41-.01.786-.033 1.13-.23.121-.89.408-1.947.862-1.52.632-2.707 1.452-3.588 2.46-.88 1.007-1.32 1.871-1.32 2.591 0 .499.155.91.463 1.23.308.322.724.477 1.253.477.726 0 1.354-.068 1.872-.2.319-.1.78-.32 1.396-.675l1.75-1.23c.1.698.254 1.186.486 1.463.374.454.935.685 1.684.685.429 0 .77-.077 1.023-.232.396-.233.759-.62 1.079-1.14.253-.4.375-.676.375-.83a.706.706 0 0 0-.088-.3v-.033c-.176.044-.342.11-.342.11l-.188.255c-.276.4-.615.598-1.011.598a.927.927 0 0 1-.705-.31c-.2-.21-.297-.487-.297-.83 0-.145.01-.377.01-.676 0-.166.01-.366 0-.61V60.55l.044-2.492c0-1.407-.022-2.227-.066-2.46-.066-.476-.276-.918-.606-1.327a2.675 2.675 0 0 0-1.156-.854c-.429-.166-1.1-.242-1.992-.242zm-54.611.508.045.033v.5c.154.066.34.11.539.133.209.033.638.131 1.287.308.165.133.241.29.23.455v.444l.033.83c.011.133.012.287.012.465 0 .133-.012.365-.012.697-.01.321-.01.544-.01.633 0 .133.01.275.01.441.011.388.012.61.012.688 0 .199-.022.554-.066 1.052-.011.277-.012.465-.012.565 0 1.971.354 3.356 1.047 4.176.682.808 1.573 1.218 2.662 1.218.562 0 1.157-.156 1.774-.455a14.503 14.503 0 0 0 2.597-1.617c.176-.133.33-.255.461-.344.011.222.012.422.012.422V65.6c0 .088.023.31.078.675.23-.055.527-.145.87-.255.857-.3 1.979-.61 3.376-.909v-.175c0-.067-.01-.166-.01-.3-.638-.066-1.022-.099-1.154-.099h-.145c-.385 0-.638-.023-.76-.078-.076-.033-.163-.133-.251-.299l-.067-2.139.034-1.273c.01-2.337.044-4.298.12-5.893l-.033-1.14c-.11-.011-.22-.01-.33-.01-.044 0-.517.011-1.398.033l-2.477-.033c-.253 0-.517.01-.793.043l-.043.178c0 .066.033.177.121.31.166.034.43.067.793.112 1.101.11 1.74.276 1.905.498.165.221.252 1.172.252 2.867 0 .232-.01.52-.01.842-.033.542-.045 1.596-.045 3.158 0 .476-.021.918-.076 1.316-.484.465-1.08.853-1.774 1.174a5.114 5.114 0 0 1-2.177.477c-.627 0-1.168-.143-1.608-.42-.45-.277-.726-.642-.847-1.108-.122-.465-.176-1.616-.176-3.455 0-.11.01-.577.043-1.396.044-1.385.056-2.814.045-4.287v-.3c-.264-.032-.924-.032-1.992-.032l-.409.033-.515-.033h-1.168zm-7.164.066c.947 0 1.771.266 2.476.809.704.542 1.22 1.351 1.563 2.425.34 1.075.506 2.017.506 2.836 0 1.252-.22 2.348-.66 3.29-.442.94-1.023 1.628-1.76 2.06-.735.43-1.49.64-2.28.643-1.276 0-2.345-.5-3.203-1.475-.859-.975-1.287-2.413-1.287-4.318 0-1.695.241-3.001.736-3.92.485-.92 1.09-1.54 1.805-1.862.716-.32 1.422-.488 2.104-.488zm50.925.1c.572 0 1.077.112 1.506.334.43.221.75.541.96.95.208.41.308.787.308 1.108 0 .155-.089.332-.276.531-.088.056-.34.101-.76.124-2.618.166-4.204.253-4.732.253h-.726l-.012.012c0-.609.277-1.262.838-1.95.726-.907 1.683-1.362 2.894-1.362zm12.657 5.605c.033.476.043.853.043 1.14 0 .543-.033 1.484-.11 2.813h.01c-.66.632-1.287 1.107-1.893 1.407-.462.232-.856.343-1.175.343-.408 0-.76-.133-1.035-.41a1.38 1.38 0 0 1-.418-1.017c0-.432.164-.888.494-1.364.462-.664 1.078-1.262 1.86-1.771.781-.51 1.53-.886 2.224-1.14zM49.303 65.025a.906.906 0 0 0-.117.086.486.486 0 0 0 .117-.086zm133.21 4.495c-1.023.343-1.804.6-2.322.765-.352.1-.682.2-.968.299v.344h.011c.21.1.594.265 1.155.498.375.155.628.31.738.476.12.155.176.42.176.785l-.033 1.838v3.733l-.034 3.732v3.612c0 1.738-.02 2.803-.064 3.18-.033.265-.1.441-.2.519-.098.077-.482.176-1.165.287-.682.11-1.057.2-1.123.244-.066.044-.1.122-.1.232 0 .09.023.168.09.223.088.078.208.1.373.1l2.619-.123 2.047.078c1.024.033 1.564.054 1.64.054.122 0 .208-.022.252-.066.044-.044.067-.131.067-.242 0-.11-.033-.178-.121-.223-.121-.077-.495-.143-1.133-.22-.639-.067-1.024-.2-1.145-.39-.099-.132-.142-.784-.142-1.958 0-.056.01-.576.043-1.55.055-1.651.078-6.768.078-15.362v-.865h-.738zm45.28.289c-.374 0-.693.122-.957.377a1.203 1.203 0 0 0-.397.896c0 .42.12.754.385 1.02.264.254.584.386.969.386a1.39 1.39 0 0 0 1.014-.431c.297-.288.44-.6.44-.92 0-.321-.154-.632-.44-.908a1.442 1.442 0 0 0-1.014-.42zm-119.283.254c-.925 0-1.74.033-2.434.1l-2.652.155c-.737.045-1.222.067-1.453.067-.154 0-.44-.012-.87-.012a36.754 36.754 0 0 0-1.75-.066c-.054 0-.176.011-.363.045l-.01-.024a.704.704 0 0 0-.09.299c0 .066.024.166.079.277 1.541.21 2.498.499 2.883.842.23.2.341.677.341 1.43v.265c0 1.95.022 3.854.067 5.737.099 4.02.154 6.657.154 7.886 0 .388-.012.687-.012.909-.01.31-.01.518-.01.607 0 .432-.056.721-.156.865-.066.089-.273.19-.603.278l-2.016.386v.41c.495-.033.805-.033.905-.033l1.638.043 2.74-.11c.506 0 1.213.055 2.104.144.451.055.748.078.87.078.197 0 .33-.022.396-.067.066-.055.12-.155.164-.31a.466.466 0 0 0-.22-.2c-.054-.022-.363-.1-.925-.232-1.199-.277-1.927-.442-2.18-.52-.077-.254-.12-.642-.12-1.14 0-.2.022-.456.044-.733.033-.276.043-.476.043-.576l-.197-7.164v-.875c-.055-.52-.088-1.85-.088-3.976 0-.576.01-1.02.043-1.297v-.309l-.031-1.773v-.221c.242-.188 1-.277 2.289-.277.418 0 1.002.088 1.75.265.749.178 1.309.389 1.672.655.638.454 1.156 1.073 1.552 1.838.396.764.594 1.529.594 2.37a5.26 5.26 0 0 1-.56 2.381 4.014 4.014 0 0 1-1.662 1.739 4.71 4.71 0 0 1-2.334.61c-.54 0-.99-.067-1.342-.188a1.36 1.36 0 0 0-.451-.09.345.345 0 0 0-.176.156c.044.144.163.287.361.42.462.31.88.52 1.244.63.363.112.815.167 1.354.167 1.926 0 3.466-.587 4.611-1.783 1.144-1.185 1.719-2.601 1.719-4.24 0-.975-.254-1.96-.783-2.958-.517-.985-1.266-1.718-2.235-2.183-.968-.465-2.265-.698-3.894-.698zm120.23 6.378c-.077 0-.178.013-.299.036a5.148 5.148 0 0 1-1.033 1.162c-.407.354-.804.609-1.178.775-.044.033-.406.144-1.1.344v.465h-.023c.726.177 1.21.332 1.43.498.22.166.353.31.408.431.055.178.088.632.088 1.352 0 3.61-.009 5.803-.031 6.611 0 .488-.089.831-.266 1.053-.099.144-.318.244-.648.31-.49.102-.856.182-1.12.24l-.001-.001c-.282-.133-.792-.25-1.543-.35-.22-.133-.353-.277-.408-.41-.055-.2-.088-.663-.088-1.394 0-.466.01-.877.021-1.231.022-.354.024-.564.024-.63v-2.37c0-1.85-.089-3.09-.276-3.71-.176-.621-.572-1.165-1.19-1.63-.615-.454-1.352-.685-2.2-.685-.407 0-.77.032-1.088.12-.518.112-1.101.323-1.75.622-.65.299-1.29.674-1.916 1.15a4.506 4.506 0 0 1-.451.322v-1.318c0-.21-.012-.565-.045-1.074h-.528c-.407.808-.904 1.44-1.498 1.916-.407.332-.99.61-1.75.82v.576c.76.111 1.29.32 1.565.608.165.188.252.61.252 1.252l.033 4.797c0 .32-.012.586-.012.797l-.031.564c0 .454-.067.741-.2.863-.131.133-.527.244-1.177.332-.34.056-.637.113-.9.19a1.283 1.283 0 0 0-.036.265l.034.2h.384c.198 0 .695-.012 1.477-.012l3.367.045h1.65v-.31c-.066-.156-.207-.254-.417-.31-.11-.022-.32-.088-.65-.177-.33-.1-.615-.167-.868-.223-.243-.044-.408-.11-.496-.199-.055-.055-.09-.176-.111-.342-.055-.41-.077-1.519-.077-3.324l-.045-3.467c0-.354.012-.785.034-1.283.628-.61 1.277-1.075 1.937-1.385a4.752 4.752 0 0 1 2.035-.465c.903 0 1.63.266 2.17.776s.815 1.44.815 2.79l-.034 1.25v.821c.011 1.916.034 3.124.067 3.6.033.221.031.366.031.443 0 .166-.064.376-.185.631-.165.133-.308.21-.418.254-.121.044-.331.077-.63.1-.516.044-.912.133-1.187.255-.077.111-.11.188-.11.254l.089.332c.627.022 1.32.034 2.068.012l2.025-.045 1.547.025.004.008c.121.033.2.045.254.045.117-.018.24-.032.363-.045h.188l.006-.017a134.352 134.352 0 0 1 2.844-.092c.286 0 .858.032 1.716.11.638.044 1.158.077 1.565.077a.442.442 0 0 0 .076-.232.46.46 0 0 0-.045-.188 7.342 7.342 0 0 0-.935-.298c-.66-.189-1.068-.355-1.2-.51-.132-.155-.185-.421-.185-.809l.033-4.785v-5.35c.033-.42.031-.653.031-.708 0-.233-.02-.599-.064-1.12h-.188zm-18.93 13.403.01-.045-.011.045h.002zm-79.488-12.715c-.407.808-.9 1.44-1.496 1.916-.407.332-.99.61-1.75.82v.576c.76.111 1.288.32 1.563.608.165.188.254.61.254 1.252l.033 4.797c0 .32-.012.586-.012.797l-.033.564c0 .454-.065.741-.197.863-.132.133-.53.244-1.178.332a7.507 7.507 0 0 0-.902.19v-.045a1.305 1.305 0 0 0-.045.31l.033.2h.385c.209 0 .705-.012 1.486-.012l3.367.045h1.652v-.31c-.066-.156-.209-.254-.418-.31-.11-.022-.32-.088-.65-.177-.33-.1-.616-.167-.87-.223-.241-.044-.405-.11-.493-.199-.055-.055-.09-.176-.112-.342-.056-.41-.078-1.519-.078-3.324l-.043-3.467c0-.354.012-.785.034-1.283.628-.61 1.276-1.075 1.937-1.385a4.745 4.745 0 0 1 2.035-.465c.902 0 1.63.266 2.168.776.54.51.815 1.44.815 2.79l-.034 1.25v.821c.011 1.916.034 3.124.067 3.6.033.221.033.366.033.443 0 .166-.066.376-.187.631-.165.133-.308.21-.418.254-.121.044-.33.077-.627.1-.518.044-.915.133-1.19.255-.077.111-.11.188-.11.254l.089.332c.627.022 1.32.034 2.068.012l2.025-.045 2.059.033h.299c.007-.02.01-.035.015-.054h.083c.209 0 .705-.012 1.486-.012l3.367.045h1.65v-.31c-.066-.156-.209-.254-.418-.31-.11-.022-.32-.088-.65-.177-.33-.1-.614-.167-.867-.223-.242-.044-.408-.11-.496-.199-.055-.055-.089-.176-.112-.342-.055-.41-.076-1.519-.076-3.324l-.045-3.467c0-.354.012-.785.034-1.283.628-.61 1.276-1.075 1.937-1.385a4.84 4.84 0 0 1 2.049-.465c.902 0 1.629.266 2.168.776.539.51.812 1.44.812 2.79l-.033 1.25v.821c.011 1.916.034 3.124.067 3.6.033.221.033.366.033.443 0 .166-.067.376-.188.631-.165.133-.308.21-.418.254-.12.044-.33.077-.627.1-.518.044-.912.133-1.187.255-.077.111-.111.188-.111.254l.087.332a31.64 31.64 0 0 0 2.07.012l2.024-.045 2.059.033h.299c.055-.155.087-.287.087-.386v-.122c-.166-.188-.749-.355-1.75-.488-.22-.133-.353-.277-.408-.41-.055-.2-.088-.663-.088-1.394 0-.466.01-.877.022-1.231.022-.354.021-.564.021-.63v-2.37c0-1.85-.097-3.09-.273-3.71-.176-.621-.574-1.165-1.19-1.63-.617-.454-1.353-.685-2.2-.685-.408 0-.772.032-1.09.12-.519.112-1.102.323-1.75.622-.65.299-1.288.674-1.915 1.15-.165.133-.309.234-.453.322v-1.318c0-.21-.01-.565-.043-1.074h-.527c-.407.808-.903 1.44-1.498 1.916-.407.332-.99.61-1.75.82v.576c.76.111 1.287.32 1.562.608.165.188.254.61.254 1.252l.034 4.797c0 .32-.012.586-.012.797l-.033.564c0 .454-.066.741-.198.863-.132.133-.528.244-1.177.332-.237.039-.445.08-.643.125-.245-.158-.79-.297-1.656-.412-.22-.133-.353-.277-.408-.41-.055-.2-.088-.663-.088-1.394 0-.466.01-.877.021-1.231.022-.354.022-.564.022-.63v-2.37c0-1.85-.1-3.09-.276-3.71-.176-.621-.571-1.165-1.187-1.63-.617-.454-1.353-.685-2.201-.685-.407 0-.771.032-1.09.12-.518.112-1.101.323-1.75.622-.65.299-1.287.674-1.914 1.15-.165.133-.31.234-.453.322v-1.318c0-.21-.01-.565-.043-1.074h-.53zm31.479.254c-.572 0-1.2.145-1.871.422s-1.201.686-1.586 1.228c-.385.543-.573 1.174-.573 1.883 0 .753.244 1.419.706 2.006.474.587 1.387 1.13 2.752 1.65 1.365.51 2.299 1.053 2.783 1.617.496.576.738 1.208.738 1.883 0 .51-.21.962-.629 1.35-.583.51-1.166.766-1.76.766-.65 0-1.243-.166-1.793-.499a4.446 4.446 0 0 1-1.42-1.384c-.198-.288-.486-.931-.87-1.928h-.022c-.22 0-.351.022-.406.066-.055.045-.079.132-.079.254 0 .266.09 1.11.254 2.516.033.21.034.364.034.453.01.222.076.376.175.465 1.112.498 2.323.742 3.643.742.562 0 1.19-.132 1.904-.387a3.796 3.796 0 0 0 1.772-1.33c.474-.631.705-1.305.705-2.025 0-.52-.121-1.075-.375-1.65a3.557 3.557 0 0 0-1.154-1.475c-.528-.399-1.365-.842-2.51-1.307-1.144-.465-1.884-.884-2.192-1.25a1.895 1.895 0 0 1-.46-1.252c0-.609.187-1.108.572-1.496.385-.387.88-.576 1.507-.576.627 0 1.255.256 1.893.766.64.509 1.124 1.194 1.432 2.058h.218c.088 0 .21-.01.342-.01l-.033-.498c-.044-1.03-.11-1.818-.197-2.35-.43-.243-.936-.42-1.52-.53-.583-.122-1.242-.178-1.98-.178zm-40.305.101c-.892 0-1.684.143-2.355.42-.474.2-1.012.555-1.64 1.053a4.378 4.378 0 0 0-1.112 1.361c-.44.82-.748 1.585-.924 2.305-.166.72-.254 1.317-.254 1.772 0 1.45.309 2.692.914 3.71a5.34 5.34 0 0 0 2.498 2.215 5.613 5.613 0 0 0 2.18.453c.814 0 1.398-.054 1.75-.142a8.294 8.294 0 0 0 2.18-.986c.714-.455 1.308-.975 1.77-1.573.012-.077.013-.155.013-.232l-.088-.633-1.123.92c-.65.42-1.146.675-1.498.797-.352.122-.825.19-1.42.222-1.111-.033-2.035-.288-2.783-.775-.75-.487-1.321-1.185-1.717-2.115-.396-.93-.595-1.707-.584-2.35v-.763l-.01-.155v-.156c0-.11.055-.332.143-.643.495-.044.99-.066 1.462-.066h1.19l6.252-.043v-.21c0-.621-.21-1.296-.617-2.038-.407-.742-1.025-1.351-1.862-1.816-.605-.355-1.397-.532-2.365-.532zm82.402.055c-.66 0-1.42.233-2.3.709-.88.476-1.605 1.185-2.178 2.148-.583.953-.87 1.561-.87 1.838 0 .1.054.179.153.256.187.133.396.2.627.2.275 0 .63-.156 1.08-.444.176-.31.297-.598.363-.875.187-.986.484-1.651.87-2.006.627-.565 1.33-.851 2.013-.851.682 0 1.222.232 1.586.709.363.476.551 1.372.551 2.7 0 .41-.011.788-.033 1.132-.231.121-.893.409-1.95.863-1.507.631-2.707 1.451-3.587 2.459-.881 1.008-1.32 1.872-1.32 2.592 0 .498.152.907.46 1.228.308.321.728.477 1.256.477.726 0 1.354-.066 1.871-.2.32-.1.782-.32 1.399-.675l1.75-1.219c.099.698.251 1.186.482 1.463.374.454.938.687 1.686.687.429 0 .768-.079 1.021-.234.397-.233.761-.62 1.08-1.14.253-.4.373-.676.373-.83a.706.706 0 0 0-.088-.3l.012-.033c-.176.045-.342.112-.342.112l-.185.254c-.286.398-.617.597-1.014.597a.92.92 0 0 1-.703-.308c-.198-.21-.299-.49-.299-.832 0-.144.012-.377.012-.676 0-.166.01-.366 0-.61v-1.816l.045-2.49c0-1.407-.023-2.227-.067-2.46-.066-.475-.274-.92-.605-1.33a2.676 2.676 0 0 0-1.156-.85c-.43-.167-1.102-.245-1.993-.245zm32.721 0c-.66 0-1.419.233-2.299.709-.88.476-1.606 1.185-2.18 2.148-.582.953-.869 1.561-.869 1.838 0 .1.056.179.155.256.187.133.396.2.627.2.276 0 .627-.156 1.078-.444.187-.31.297-.598.363-.875.198-.986.495-1.651.881-2.006.627-.565 1.33-.851 2.014-.851.682 0 1.21.243 1.586.709.363.476.548 1.372.548 2.7 0 .41-.01.788-.033 1.132-.23.121-.891.409-1.947.863-1.519.631-2.708 1.451-3.588 2.459-.88 1.008-1.32 1.872-1.32 2.592 0 .498.153.907.46 1.228.31.321.729.477 1.257.477.727 0 1.354-.066 1.87-.2.32-.1.781-.32 1.397-.675l1.75-1.219c.1.698.254 1.186.485 1.463.374.454.935.687 1.683.687.43 0 .773-.079 1.025-.234.396-.233.76-.62 1.079-1.14.253-.4.373-.676.373-.83a.706.706 0 0 0-.088-.3v-.033c-.176.045-.34.112-.34.112l-.188.254c-.275.398-.615.597-1.011.597a.923.923 0 0 1-.705-.308c-.198-.21-.297-.49-.297-.832 0-.144.01-.377.01-.676 0-.166.01-.366 0-.61v-1.816l.044-2.49c0-1.407-.022-2.227-.066-2.46-.066-.475-.275-.92-.605-1.33a2.676 2.676 0 0 0-1.157-.85c-.429-.167-1.1-.245-1.992-.245zm-52.344.354.034.011v.145c0 .077.021.199.087.365 1.211.343 1.883.564 1.993.664.11.1.45.797 1.011 2.07l2.786 6.58 1.187 2.526c.132.277.254.53.342.785h.484l2.41-5.625c.132-.332.265-.644.375-.932l.803-1.982c.297-.73.53-1.317.684-1.793.34-.952.582-1.497.736-1.607.209-.166.758-.298 1.65-.375.077-.011.176-.034.297-.034l.485-.123a.744.744 0 0 0 .088-.31c-.055-.1-.11-.166-.176-.188-.341-.033-1.332-.045-2.983-.045-.474.034-.77.045-.89.034h-1.838c-.121 0-.298.011-.55.045-.012.077-.013.199-.013.199v.12a.61.61 0 0 0 .2.179c.869.144 1.342.232 1.42.232.33.089.56.21.703.365.143.144.209.288.209.41 0 .111-.01.233-.043.377a14.118 14.118 0 0 1-.53 1.862 125.152 125.152 0 0 1-1.507 3.908 28.2 28.2 0 0 1-1.122 2.404c-.595-1.185-1.243-2.635-1.937-4.363l-1.563-3.766c-.077-.199-.12-.321-.142-.377-.1-.21-.156-.377-.156-.476 0-.056.034-.1.11-.155a10.81 10.81 0 0 1 1.96-.355c.187-.011.375-.033.55-.088a.832.832 0 0 0 .089-.332c-.055-.1-.11-.156-.176-.178a4.189 4.189 0 0 1-.574-.1h-1.748c-.055 0-.177.012-.375.012-.286.034-.726.034-1.342.034a45.548 45.548 0 0 0-3.028-.123zm-15.353.044-1.014.034h-.748a6.16 6.16 0 0 0-.572.033l.012.021-.079.2c0 .133.088.233.264.31l.33.067 1.059.388c.11.11.196.266.273.477 1.178 3.3 1.893 5.238 2.135 5.836l1.729 4.607c.275.676.408 1.197.408 1.55 0 .322-.188.952-.551 1.894a13.127 13.127 0 0 1-1.31 2.548c-.11.166-.265.3-.485.41-.22 0-.802-.09-1.727-.255l-.199.045a3.543 3.543 0 0 1-.306.12c-.32.277-.485.588-.485.92 0 .355.11.632.33.842.22.21.56.31 1.034.31.176 0 .342-.021.496-.065l.793-.344c.23-.155.505-.433.814-.82.077-.078.307-.487.703-1.23.165-.387.32-.708.442-.974l1.925-5.283 2.664-7.021v-.078l.188-.444c.154-.387.286-.741.385-1.03.099-.298.175-.508.23-.63.088-.233.153-.422.197-.566.121-.4.276-.664.452-.786.32-.221.781-.376 1.386-.464l.309-.045a.385.385 0 0 0 .142-.29c0-.121-.055-.198-.154-.253a1.753 1.753 0 0 0-.361-.034h-4.832a.541.541 0 0 0-.22.122c.01.166.042.266.108.31.067.044.465.167 1.202.356.407.088.682.209.814.341.132.144.197.289.197.444 0 .188-.022.442-.088.763a15.588 15.588 0 0 1-.693 2.438l-1.308 3.72a38.738 38.738 0 0 1-.98 2.405 85.619 85.619 0 0 1-1.53-4.13c-.76-2.227-1.256-3.724-1.487-4.499-.088-.244-.154-.443-.209-.564-.077-.2-.12-.366-.12-.465l.033-.178c.286-.177.748-.286 1.386-.342.451-.044.792-.123 1.024-.222v-.122a.676.676 0 0 0-.067-.255 9.252 9.252 0 0 0-1.54-.11l-1.079.033-1.32-.044zm-47.547.278c.572 0 1.078.11 1.508.332.429.221.748.532.957.953.209.42.308.786.308 1.107 0 .155-.088.332-.275.532-.088.055-.342.099-.76.12-2.62.167-4.204.257-4.732.257h-.736c.002-.607.277-1.257.835-1.94.727-.908 1.684-1.361 2.895-1.361zm-59.576 1.06c1.114.012 2.269.096 3.467.258 19.161 2.592 22.947 19.824 22.947 19.824s-3.488 7.565-18.621 15.971l.01-.012c-15.134 8.395-29.627 4.342-29.627 4.342-6.604-7.93-3.941-18.551-3.116-21.785.774-3.032 8.223-18.777 24.94-18.598zm143.894 4.555c.033.476.043.853.043 1.14 0 .543-.032 1.472-.109 2.801l.021.012c-.66.632-1.287 1.107-1.892 1.406-.463.233-.859.344-1.178.344-.418 0-.77-.133-1.047-.41-.286-.277-.418-.608-.418-1.018 0-.432.166-.887.496-1.363a6.679 6.679 0 0 1 1.862-1.771 11.13 11.13 0 0 1 2.222-1.14zm32.733 0c.033.476.043.853.043 1.14 0 .543-.033 1.472-.11 2.801l.01.012c-.66.632-1.287 1.107-1.892 1.406-.462.233-.86.344-1.178.344-.407 0-.758-.133-1.033-.41a1.378 1.378 0 0 1-.42-1.018c0-.432.166-.887.496-1.363a6.657 6.657 0 0 1 1.86-1.771c.78-.51 1.53-.886 2.224-1.14zm6.635 4.318c-.44 0-.869.19-1.288.555-.198.177-.296.52-.296 1.008 0 .2.055.41.154.63.154.167.286.267.385.311.154.056.484.143.99.254.506.11.86.277 1.068.498.21.21.309.478.309.766 0 .432-.188.93-.551 1.494-.375.554-1.101 1.097-2.191 1.617l-.385.178v.486c.646-.013 1.391-.257 2.223-.709.837-.465 1.464-1.062 1.882-1.804.42-.742.627-1.428.627-2.07 0-.92-.285-1.684-.869-2.294-.583-.609-1.265-.92-2.058-.92zm-52.192 3.856c0 .144.034.232.078.266.066.044.332.087.805.12.473.034.812.112 1.021.223.044.078.078.155.1.233.033.41.057.785.057 1.15v.365l-.024.455.024.354v1.475l-.024.619.033 1.052v1.862c0 1.329-.065 2.07-.187 2.224-.132.155-.628.268-1.508.323a1.17 1.17 0 0 0-.385.1l-.021-.022.021.254H195.051l1.187-.024c.374.022.629.024.772.024.24 0 .606-.003 1.082-.022l.017.088h1.036l1.859.022h.914v-.176c-.044-.09-.122-.145-.232-.178-.055-.023-.176-.045-.352-.1-.176-.055-.34-.09-.473-.123-.143-.033-.231-.066-.275-.111a.472.472 0 0 1-.055-.187c-.033-.232-.045-.842-.045-1.838l-.021-1.916c0-.2.01-.432.021-.71a3.684 3.684 0 0 1 1.069-.763 2.685 2.685 0 0 1 1.123-.256c.506 0 .9.134 1.199.422.297.277.451.797.451 1.539l-.021.697v.455c0 1.052.01 1.718.033 1.983.022.122.021.2.021.244a.87.87 0 0 1-.1.342.836.836 0 0 1-.23.133 1.422 1.422 0 0 1-.342.056 1.84 1.84 0 0 0-.65.133.64.64 0 0 0-.055.133l.055.178h1.147l1.12-.024 1.135.024h.164a.717.717 0 0 0 .055-.223v-.067c-.088-.1-.407-.188-.957-.265a.544.544 0 0 1-.22-.233c-.034-.11-.055-.365-.055-.775 0-.255.011-.477.011-.676.011-.189.01-.343.01-.343v-1.307c0-1.02-.053-1.706-.152-2.049-.1-.343-.32-.642-.66-.896a2.02 2.02 0 0 0-1.211-.377c-.231 0-.43.022-.606.066a5.392 5.392 0 0 0-.959.344 5.851 5.851 0 0 0-1.054.642 2.125 2.125 0 0 1-.254.176v-.73c0-.111 0-.31-.022-.586h-.297c-.22.454-.496.808-.826 1.062-.22.189-.539.334-.957.455v.32c.418.056.704.178.858.333.088.1.132.333.132.687l.022 2.647v.443l-.022.31c0 .244-.034.408-.11.475-.078.066-.286.123-.65.178a2.749 2.749 0 0 0-.495.1l-.036.01c-.002-.015-.003-.028-.007-.044-.077-.078-.287-.133-.606-.133-.143 0-.351-.033-.615-.1-.176-.054-.31-.11-.387-.187-.077-.078-.133-.211-.166-.388-.033-.177-.043-.599-.043-1.24 0-.167.01-.5.022-.975v-1.527l-.034-3.856.045-1.12c.011-.276.043-.474.098-.573a.31.31 0 0 1 .166-.145c.122-.055.452-.111 1.002-.178.264-.044.462-.066.572-.1.022-.077.022-.164.022-.253-.98.033-1.761.055-2.344.055l-2.277-.055h-.729zm17.7 4.04c-.838 0-1.53.147-2.08.435a3.263 3.263 0 0 0-1.333 1.294 3.593 3.593 0 0 0-.506 1.85c0 .587.142 1.196.418 1.816.275.61.673 1.096 1.19 1.428.518.343 1.1.512 1.738.512.595 0 1.101-.101 1.541-.29.44-.2.88-.531 1.32-1.007v-.564c-.473.399-.88.676-1.22.82a3.04 3.04 0 0 1-1.19.22c-.639 0-1.2-.277-1.683-.831-.485-.553-.727-1.329-.727-2.237 0-.908.231-1.661.705-2.26.341-.42.77-.63 1.276-.63.209 0 .397.032.574.12.165.078.361.234.57.456.341.354.661.531.947.531a.62.62 0 0 0 .463-.178.6.6 0 0 0 .176-.453c0-.255-.12-.466-.352-.62-.419-.278-.992-.411-1.828-.411zm3.4 5.407a.9.9 0 0 0-.649.287.907.907 0 0 0-.275.664.95.95 0 0 0 .264.676.848.848 0 0 0 .627.277c.254 0 .462-.089.638-.277a.956.956 0 0 0 .266-.685.952.952 0 0 0-.254-.676.814.814 0 0 0-.617-.266zM0 105.072v18.94h27.428C7.474 117.466 0 105.072 0 105.072z" style="fill:#00543d;fill-opacity:1"/>
</svg>
