<?xml version="1.0" encoding="UTF-8" standalone="no"?>
<svg
   width="248"
   height="124"
   viewBox="0 0 248 124"
   fill="none"
   version="1.1"
   id="svg35"
   sodipodi:docname="council_logo.svg"
   inkscape:version="1.4 (86a8ad7, 2024-10-11)"
   xmlns:inkscape="http://www.inkscape.org/namespaces/inkscape"
   xmlns:sodipodi="http://sodipodi.sourceforge.net/DTD/sodipodi-0.dtd"
   xmlns="http://www.w3.org/2000/svg"
   xmlns:svg="http://www.w3.org/2000/svg">
  <sodipodi:namedview
     id="namedview35"
     pagecolor="#ffffff"
     bordercolor="#111111"
     borderopacity="1"
     inkscape:showpageshadow="0"
     inkscape:pageopacity="0"
     inkscape:pagecheckerboard="1"
     inkscape:deskcolor="#d1d1d1"
     inkscape:zoom="1.7157258"
     inkscape:cx="91.215041"
     inkscape:cy="54.495887"
     inkscape:window-width="1920"
     inkscape:window-height="1111"
     inkscape:window-x="-9"
     inkscape:window-y="-9"
     inkscape:window-maximized="1"
     inkscape:current-layer="svg35" />
  <g
     id="g40"
     inkscape:label="Council SEPA Logo">
    <g
       id="g39"
       inkscape:label="Inc.">
      <path
         d="m 213.045,102.403 c 0,-0.255 0.088,-0.476 0.275,-0.665 0.187,-0.188 0.407,-0.287 0.649,-0.287 0.243,0 0.452,0.088 0.617,0.265 0.165,0.178 0.253,0.399 0.253,0.676 0,0.277 -0.088,0.498 -0.264,0.687 -0.176,0.188 -0.385,0.276 -0.639,0.276 -0.253,0 -0.451,-0.099 -0.627,-0.276 -0.176,-0.189 -0.264,-0.41 -0.264,-0.676 z"
         fill="#00543d"
         id="path30"
         inkscape:label="." />
      <path
         d="m 212.858,101.517 v 0.565 c -0.44,0.476 -0.881,0.808 -1.321,1.008 -0.44,0.188 -0.946,0.288 -1.541,0.288 -0.638,0 -1.221,-0.167 -1.739,-0.51 -0.517,-0.332 -0.913,-0.819 -1.188,-1.429 -0.276,-0.62 -0.419,-1.229 -0.419,-1.8159 0,-0.6535 0.165,-1.2626 0.507,-1.8496 0.33,-0.5759 0.781,-1.0079 1.331,-1.2958 0.551,-0.288 1.244,-0.432 2.081,-0.432 0.836,0 1.408,0.1329 1.827,0.4098 0.231,0.1551 0.352,0.3655 0.352,0.6202 0,0.1883 -0.055,0.3323 -0.176,0.4541 -0.121,0.1218 -0.275,0.1772 -0.463,0.1772 -0.286,0 -0.605,-0.1772 -0.946,-0.5316 -0.209,-0.2215 -0.407,-0.3766 -0.572,-0.4541 -0.177,-0.0886 -0.364,-0.1218 -0.573,-0.1218 -0.506,0 -0.935,0.2104 -1.276,0.6313 -0.474,0.5981 -0.705,1.3512 -0.705,2.2594 0,0.9078 0.242,1.6838 0.727,2.2368 0.484,0.554 1.045,0.831 1.684,0.831 0.451,0 0.847,-0.077 1.188,-0.221 0.341,-0.144 0.749,-0.421 1.222,-0.82 z"
         fill="#00543d"
         id="path29"
         inkscape:label="c" />
      <path
         d="m 198.186,102.813 c 0.144,-0.045 0.309,-0.078 0.496,-0.1 0.363,-0.055 0.572,-0.111 0.649,-0.177 0.077,-0.067 0.11,-0.233 0.11,-0.476 l 0.022,-0.31 c 0,-0.111 0,-0.255 0,-0.443 l -0.022,-2.6475 c 0,-0.3544 -0.044,-0.587 -0.132,-0.6867 -0.154,-0.155 -0.44,-0.2768 -0.858,-0.3322 v -0.3212 c 0.418,-0.1218 0.737,-0.2658 0.957,-0.4541 0.33,-0.2547 0.605,-0.6091 0.826,-1.0632 h 0.297 c 0.022,0.2768 0.022,0.4762 0.022,0.587 V 97.12 c 0.077,-0.0443 0.154,-0.0996 0.253,-0.1772 0.341,-0.2547 0.693,-0.4762 1.056,-0.6423 0.364,-0.1662 0.683,-0.2769 0.958,-0.3434 0.176,-0.0443 0.374,-0.0664 0.605,-0.0664 0.474,0 0.87,0.1329 1.211,0.3765 0.341,0.2548 0.561,0.5538 0.66,0.8971 0.099,0.3434 0.154,1.03 0.154,2.049 v 1.3067 c 0,0 0,0.155 -0.011,0.344 0,0.199 -0.011,0.42 -0.011,0.675 0,0.41 0.022,0.665 0.055,0.775 0.034,0.078 0.1,0.155 0.221,0.233 0.55,0.077 0.869,0.166 0.957,0.266 v 0.066 c 0,0.056 -0.022,0.133 -0.055,0.222 h -0.165 l -1.134,-0.022 -1.122,0.022 c -0.407,0 -0.793,0 -1.145,0 l -0.055,-0.177 c 0,0 0.022,-0.078 0.055,-0.133 0.154,-0.067 0.374,-0.122 0.65,-0.133 0.165,-0.011 0.275,-0.034 0.341,-0.056 0.066,-0.022 0.143,-0.066 0.231,-0.133 0.066,-0.144 0.099,-0.254 0.099,-0.343 0,-0.044 0,-0.122 -0.022,-0.244 -0.022,-0.265 -0.033,-0.93 -0.033,-1.982 v -0.4541 l 0.022,-0.6978 c 0,-0.742 -0.154,-1.2626 -0.451,-1.5395 -0.298,-0.2879 -0.694,-0.4208 -1.2,-0.4208 -0.385,0 -0.759,0.0886 -1.123,0.2547 -0.363,0.1661 -0.726,0.4209 -1.067,0.7642 -0.011,0.2769 -0.022,0.5095 -0.022,0.7088 l 0.022,1.9165 c 0,0.996 0.011,1.606 0.044,1.838 0.011,0.089 0.033,0.155 0.055,0.188 0.044,0.045 0.132,0.078 0.275,0.111 0.132,0.033 0.297,0.067 0.473,0.122 0.176,0.055 0.297,0.077 0.352,0.1 0.11,0.033 0.188,0.088 0.232,0.177 v 0.177 h -0.914 l -1.86,-0.022 c -0.429,0 -0.704,0 -0.814,0 h -0.221 l -0.022,-0.111 c 0,0 0,-0.1 0.022,-0.177 z"
         fill="#00543d"
         id="path28"
         inkscape:label="n" />
      <path
         d="m 192.859,102.824 c 0.121,-0.055 0.254,-0.089 0.386,-0.1 0.88,-0.055 1.375,-0.166 1.507,-0.321 0.122,-0.155 0.188,-0.897 0.188,-2.226 v -0.9083 -0.9525 l -0.033,-1.0522 0.022,-0.6202 v -0.6756 -0.7974 l -0.022,-0.3544 0.022,-0.4541 c 0,-0.0997 0,-0.2215 0,-0.3655 0,-0.3655 -0.022,-0.742 -0.055,-1.1518 -0.022,-0.0776 -0.056,-0.1551 -0.1,-0.2326 -0.209,-0.1108 -0.55,-0.1883 -1.023,-0.2215 -0.473,-0.0333 -0.738,-0.0776 -0.804,-0.1219 -0.044,-0.0332 -0.077,-0.1218 -0.077,-0.2658 h 0.727 l 2.278,0.0554 c 0.583,0 1.365,-0.0221 2.344,-0.0554 0,0.0886 0,0.1772 -0.022,0.2548 -0.11,0.0332 -0.308,0.0553 -0.572,0.0996 -0.55,0.0665 -0.88,0.1219 -1.002,0.1773 -0.077,0.0332 -0.132,0.0775 -0.165,0.1439 -0.055,0.0997 -0.088,0.2991 -0.099,0.576 l -0.044,1.1186 0.033,3.8542 v 1.5284 c -0.011,0.476 -0.022,0.809 -0.022,0.975 0,0.642 0.011,1.063 0.044,1.24 0.033,0.177 0.088,0.31 0.165,0.388 0.077,0.077 0.21,0.133 0.386,0.188 0.264,0.066 0.473,0.1 0.616,0.1 0.319,0 0.528,0.055 0.605,0.133 0.022,0.077 0.022,0.132 0.022,0.188 v 0.066 c -0.517,0.022 -0.902,0.022 -1.155,0.022 -0.143,0 -0.397,0 -0.771,-0.022 l -1.188,0.022 h -2.025 -0.166 l -0.022,-0.254 z"
         fill="#00543d"
         id="path27"
         inkscape:label="I" />
    </g>
    <g
       id="g38"
       inkscape:label="Pennsylvania,">
      <path
         d="m 243.256,95.9461 v -0.4874 c 0.143,-0.0664 0.264,-0.1218 0.385,-0.1772 1.09,-0.5205 1.816,-1.0632 2.191,-1.617 0.363,-0.5648 0.55,-1.0632 0.55,-1.4951 0,-0.288 -0.099,-0.5538 -0.308,-0.7642 -0.209,-0.2216 -0.562,-0.3877 -1.068,-0.4984 -0.506,-0.1108 -0.836,-0.1994 -0.99,-0.2548 -0.099,-0.0443 -0.232,-0.144 -0.386,-0.3101 -0.099,-0.2215 -0.154,-0.4319 -0.154,-0.6313 0,-0.4873 0.099,-0.8306 0.297,-1.0078 0.419,-0.3655 0.848,-0.5538 1.288,-0.5538 0.793,0 1.475,0.3101 2.058,0.9192 0.584,0.6092 0.87,1.3734 0.87,2.2926 0,0.6424 -0.209,1.3291 -0.628,2.0711 -0.418,0.7421 -1.045,1.3402 -1.882,1.8053 -0.836,0.4541 -1.585,0.6978 -2.234,0.7089 z"
         fill="#00543d"
         id="path26"
         inkscape:label="," />
      <path
         d="m 242.926,88.2265 c 0.066,0.1329 0.088,0.2326 0.088,0.299 0,0.1551 -0.121,0.432 -0.374,0.8307 -0.319,0.5205 -0.682,0.9082 -1.078,1.1408 -0.253,0.155 -0.595,0.2325 -1.024,0.2325 -0.748,0 -1.31,-0.2325 -1.684,-0.6866 -0.231,-0.2769 -0.385,-0.7642 -0.484,-1.462 l -1.75,1.2183 c -0.616,0.3544 -1.079,0.5759 -1.398,0.6756 -0.517,0.1329 -1.144,0.1994 -1.871,0.1994 -0.528,0 -0.946,-0.1551 -1.255,-0.4763 -0.308,-0.3212 -0.462,-0.731 -0.462,-1.2293 0,-0.7199 0.44,-1.5838 1.321,-2.5917 0.88,-1.0079 2.069,-1.8274 3.588,-2.4587 1.056,-0.4541 1.717,-0.7421 1.948,-0.8639 0.022,-0.3433 0.033,-0.7199 0.033,-1.1297 0,-1.329 -0.187,-2.2261 -0.55,-2.7024 -0.375,-0.4652 -0.903,-0.7088 -1.585,-0.7088 -0.683,0 -1.387,0.288 -2.014,0.8528 -0.386,0.3544 -0.683,1.0189 -0.881,2.0046 -0.066,0.2769 -0.176,0.5649 -0.363,0.875 -0.451,0.288 -0.803,0.443 -1.079,0.443 -0.231,0 -0.44,-0.0664 -0.627,-0.1993 -0.099,-0.0776 -0.154,-0.1551 -0.154,-0.2548 0,-0.2769 0.286,-0.886 0.869,-1.8385 0.573,-0.9636 1.299,-1.6724 2.18,-2.1486 0.88,-0.4763 1.64,-0.7088 2.3,-0.7088 0.891,0 1.563,0.0775 1.992,0.2436 0.44,0.1661 0.826,0.443 1.156,0.8528 0.33,0.4098 0.539,0.8528 0.605,1.3291 0.044,0.2325 0.066,1.0521 0.066,2.4587 l -0.044,2.492 v 1.8163 c 0.011,0.2437 0,0.443 0,0.6092 0,0.299 -0.011,0.5316 -0.011,0.6756 0,0.3433 0.099,0.6202 0.297,0.8306 0.198,0.2105 0.429,0.3101 0.705,0.3101 0.396,0 0.737,-0.1993 1.012,-0.598 l 0.187,-0.2548 c 0,0 0.165,-0.0664 0.341,-0.1107 z m -4.567,-0.4541 c 0.077,-1.329 0.11,-2.2594 0.11,-2.8021 0,-0.2879 -0.011,-0.6645 -0.044,-1.1407 -0.693,0.2547 -1.442,0.6313 -2.223,1.1407 -0.782,0.5095 -1.398,1.1076 -1.86,1.7721 -0.33,0.4762 -0.496,0.9303 -0.496,1.3623 0,0.4098 0.143,0.742 0.419,1.0189 0.275,0.2769 0.627,0.4098 1.034,0.4098 0.319,0 0.716,-0.1108 1.178,-0.3433 0.605,-0.2991 1.233,-0.7753 1.893,-1.4066 z"
         fill="#00543d"
         id="path25"
         inkscape:label="a" />
      <path
         d="m 225.13,79.2222 v -0.4651 c 0.693,-0.1994 1.056,-0.3101 1.1,-0.3434 0.374,-0.1661 0.771,-0.4208 1.178,-0.7752 0.407,-0.3434 0.759,-0.731 1.034,-1.1629 0.121,-0.0222 0.221,-0.0333 0.298,-0.0333 h 0.187 c 0.044,0.5206 0.066,0.8861 0.066,1.1186 0,0.0554 0,0.288 -0.033,0.7089 v 5.3494 l -0.033,4.7845 c 0,0.3877 0.055,0.6535 0.187,0.8085 0.132,0.1551 0.539,0.3212 1.199,0.5095 0.419,0.1108 0.727,0.2104 0.936,0.299 0.033,0.0776 0.044,0.1329 0.044,0.1883 0,0.0665 -0.022,0.144 -0.077,0.2326 -0.407,0 -0.925,-0.0332 -1.563,-0.0775 -0.858,-0.0775 -1.431,-0.1108 -1.717,-0.1108 -0.132,0 -0.968,0.0222 -2.498,0.0776 -0.308,0 -0.617,0.0332 -0.903,0.0775 -0.055,0 -0.132,-0.0111 -0.253,-0.0443 -0.055,-0.0775 -0.077,-0.1329 -0.077,-0.1883 0,-0.144 0.099,-0.2658 0.297,-0.3433 0.044,-0.0222 0.573,-0.144 1.585,-0.3544 0.33,-0.0665 0.55,-0.1662 0.649,-0.3102 0.177,-0.2215 0.265,-0.5648 0.265,-1.0521 0.022,-0.8085 0.033,-3.0015 0.033,-6.612 0,-0.7199 -0.033,-1.174 -0.088,-1.3512 -0.055,-0.1218 -0.188,-0.2658 -0.408,-0.432 -0.22,-0.1661 -0.704,-0.3212 -1.43,-0.4984 z m 1.309,-8.1404 c 0,-0.3433 0.132,-0.6423 0.397,-0.8971 0.264,-0.2547 0.583,-0.3765 0.957,-0.3765 0.374,0 0.726,0.1439 1.013,0.4208 0.286,0.2769 0.44,0.587 0.44,0.9082 0,0.3212 -0.143,0.6313 -0.44,0.9193 -0.287,0.2879 -0.628,0.4319 -1.013,0.4319 -0.385,0 -0.704,-0.1329 -0.968,-0.3876 -0.265,-0.2658 -0.386,-0.5981 -0.386,-1.019 z"
         fill="#00543d"
         id="path24"
         inkscape:label="i" />
      <path
         d="m 209.809,89.8435 c 0.264,-0.0775 0.561,-0.1329 0.902,-0.1883 0.65,-0.0886 1.046,-0.1993 1.178,-0.3322 0.132,-0.1219 0.198,-0.4098 0.198,-0.8639 l 0.033,-0.5649 c 0,-0.2104 0.011,-0.4762 0.011,-0.7974 l -0.033,-4.7956 c 0,-0.6424 -0.088,-1.0633 -0.253,-1.2515 -0.275,-0.288 -0.803,-0.4984 -1.563,-0.6092 v -0.5759 c 0.76,-0.2104 1.343,-0.4873 1.75,-0.8196 0.594,-0.4762 1.09,-1.1075 1.497,-1.916 h 0.528 c 0.033,0.5094 0.044,0.8638 0.044,1.0743 v 1.318 c 0.143,-0.0886 0.286,-0.1883 0.452,-0.3212 0.627,-0.4763 1.265,-0.8528 1.915,-1.1519 0.649,-0.299 1.232,-0.5094 1.75,-0.6202 0.319,-0.0886 0.682,-0.1218 1.089,-0.1218 0.848,0 1.585,0.2326 2.201,0.6866 0.617,0.4652 1.013,1.0079 1.189,1.6281 0.187,0.6203 0.275,1.8607 0.275,3.7103 v 2.3701 c 0,0.0665 0,0.2769 -0.022,0.6313 -0.011,0.3544 -0.022,0.7642 -0.022,1.2294 0,0.731 0.033,1.1961 0.088,1.3955 0.055,0.1329 0.187,0.2769 0.407,0.4098 1.002,0.1329 1.574,0.299 1.75,0.4873 v 0.1218 c 0,0.0997 -0.033,0.2326 -0.088,0.3876 h -0.297 l -2.058,-0.0332 -2.025,0.0443 c -0.749,0.0222 -1.442,0.0111 -2.069,-0.0111 l -0.088,-0.3322 c 0,-0.0665 0.033,-0.144 0.11,-0.2547 0.275,-0.1219 0.671,-0.2105 1.188,-0.2548 0.298,-0.0221 0.507,-0.0554 0.628,-0.0997 0.11,-0.0443 0.253,-0.1218 0.418,-0.2547 0.121,-0.2547 0.187,-0.4652 0.187,-0.6313 0,-0.0775 0,-0.2215 -0.033,-0.443 -0.033,-0.4762 -0.055,-1.6835 -0.066,-3.5995 v -0.8196 l 0.033,-1.2515 c 0,-1.3512 -0.275,-2.2815 -0.814,-2.791 -0.54,-0.5095 -1.266,-0.7753 -2.169,-0.7753 -0.693,0 -1.375,0.1551 -2.036,0.4652 -0.66,0.3101 -1.309,0.7753 -1.937,1.3844 -0.022,0.4984 -0.033,0.9303 -0.033,1.2848 l 0.044,3.4666 c 0,1.8052 0.022,2.9128 0.077,3.3226 0.022,0.1661 0.055,0.2879 0.11,0.3433 0.088,0.0886 0.253,0.1551 0.496,0.1994 0.253,0.0553 0.539,0.1218 0.869,0.2215 0.33,0.0886 0.539,0.155 0.649,0.1772 0.21,0.0554 0.353,0.155 0.419,0.3101 v 0.3101 h -1.651 l -3.368,-0.0443 c -0.782,0 -1.277,0.0111 -1.475,0.0111 h -0.385 l -0.033,-0.1994 c 0,-0.0775 0.011,-0.1772 0.044,-0.3101 z"
         fill="#00543d"
         id="path23"
         inkscape:label="n" />
      <path
         d="m 210.194,88.2265 c 0.066,0.1329 0.088,0.2326 0.088,0.299 0,0.1551 -0.121,0.432 -0.374,0.8307 -0.319,0.5205 -0.682,0.9082 -1.079,1.1408 -0.253,0.155 -0.594,0.2325 -1.023,0.2325 -0.748,0 -1.31,-0.2325 -1.684,-0.6866 -0.231,-0.2769 -0.385,-0.7642 -0.484,-1.462 l -1.75,1.2183 c -0.617,0.3544 -1.079,0.5759 -1.398,0.6756 -0.517,0.1329 -1.145,0.1994 -1.871,0.1994 -0.528,0 -0.947,-0.1551 -1.255,-0.4763 -0.308,-0.3212 -0.462,-0.731 -0.462,-1.2293 0,-0.7199 0.44,-1.5838 1.321,-2.5917 0.88,-1.0079 2.08,-1.8274 3.588,-2.4587 1.056,-0.4541 1.717,-0.7421 1.948,-0.8639 0.022,-0.3433 0.033,-0.7199 0.033,-1.1297 0,-1.329 -0.187,-2.2261 -0.55,-2.7024 -0.364,-0.4762 -0.903,-0.7088 -1.585,-0.7088 -0.683,0 -1.387,0.288 -2.014,0.8528 -0.386,0.3544 -0.683,1.0189 -0.87,2.0046 -0.066,0.2769 -0.187,0.5649 -0.363,0.875 -0.451,0.288 -0.804,0.443 -1.079,0.443 -0.231,0 -0.44,-0.0664 -0.627,-0.1993 -0.099,-0.0776 -0.154,-0.1551 -0.154,-0.2548 0,-0.2769 0.286,-0.886 0.869,-1.8385 0.573,-0.9636 1.299,-1.6724 2.179,-2.1486 0.881,-0.4763 1.64,-0.7088 2.301,-0.7088 0.891,0 1.563,0.0775 1.992,0.2436 0.44,0.1661 0.825,0.443 1.155,0.8528 0.331,0.4098 0.54,0.8528 0.606,1.3291 0.044,0.2325 0.066,1.0521 0.066,2.4587 l -0.044,2.492 v 1.8163 c 0.011,0.2437 0,0.443 0,0.6092 0,0.299 -0.011,0.5316 -0.011,0.6756 0,0.3433 0.099,0.6202 0.297,0.8306 0.198,0.2105 0.429,0.3101 0.704,0.3101 0.397,0 0.727,-0.1993 1.013,-0.598 l 0.187,-0.2548 c 0,0 0.165,-0.0664 0.341,-0.1107 z m -4.567,-0.4541 c 0.077,-1.329 0.11,-2.2594 0.11,-2.8021 0,-0.2879 -0.011,-0.6645 -0.044,-1.1407 -0.694,0.2547 -1.442,0.6313 -2.223,1.1407 -0.782,0.5095 -1.398,1.1076 -1.861,1.7721 -0.33,0.4762 -0.495,0.9303 -0.495,1.3623 0,0.4098 0.132,0.742 0.418,1.0189 0.276,0.2769 0.628,0.4098 1.046,0.4098 0.319,0 0.715,-0.1108 1.178,-0.3433 0.605,-0.2991 1.232,-0.7753 1.893,-1.4066 z"
         fill="#00543d"
         id="path22"
         inkscape:label="a" />
      <path
         d="m 184.275,77.8932 c 1.156,0.0111 2.157,0.0554 3.027,0.1218 0.616,0 1.056,0 1.342,-0.0332 0.198,0 0.32,-0.0111 0.375,-0.0111 h 1.749 c 0.243,0.0554 0.43,0.0886 0.573,0.0997 0.066,0.0221 0.121,0.0775 0.176,0.1772 0,0.0997 -0.033,0.2104 -0.088,0.3323 -0.176,0.0553 -0.363,0.0775 -0.55,0.0886 -0.782,0.0775 -1.431,0.1993 -1.96,0.3544 -0.077,0.0554 -0.11,0.0997 -0.11,0.155 0,0.0997 0.055,0.2658 0.155,0.4763 0.022,0.0553 0.066,0.1772 0.143,0.3765 l 1.562,3.7657 c 0.694,1.7277 1.343,3.1786 1.938,4.3637 0.407,-0.7753 0.781,-1.5727 1.122,-2.4034 0.341,-0.8306 0.848,-2.1265 1.508,-3.9096 0.187,-0.4984 0.363,-1.1186 0.528,-1.8607 0.033,-0.1439 0.044,-0.2658 0.044,-0.3765 0,-0.1219 -0.066,-0.2658 -0.209,-0.4098 -0.143,-0.1551 -0.374,-0.2769 -0.704,-0.3655 -0.077,0 -0.551,-0.0886 -1.42,-0.2326 -0.077,-0.0443 -0.143,-0.0997 -0.198,-0.1772 V 78.303 c 0,0 0,-0.1219 0.011,-0.1994 0.253,-0.0332 0.429,-0.0443 0.55,-0.0443 h 1.838 c 0.121,0.0111 0.418,0 0.892,-0.0332 1.651,0 2.641,0.0111 2.982,0.0443 0.066,0.0221 0.121,0.0886 0.176,0.1883 0,0.0886 -0.033,0.1993 -0.088,0.3101 l -0.484,0.1218 c -0.121,0 -0.22,0.0222 -0.297,0.0332 -0.892,0.0776 -1.442,0.2105 -1.651,0.3766 -0.154,0.1108 -0.396,0.6535 -0.737,1.6059 -0.154,0.4763 -0.386,1.0633 -0.683,1.7942 l -0.803,1.9825 c -0.11,0.288 -0.242,0.5981 -0.374,0.9304 l -2.411,5.6263 h -0.484 c -0.088,-0.2548 -0.209,-0.5095 -0.341,-0.7864 l -1.189,-2.5252 -2.784,-6.5788 c -0.562,-1.2736 -0.903,-1.9714 -1.013,-2.071 -0.11,-0.0997 -0.781,-0.3212 -1.992,-0.6646 -0.066,-0.1661 -0.088,-0.2879 -0.088,-0.3655 v -0.1439 z"
         fill="#00543d"
         id="path21"
         inkscape:label="v" />
      <path
         d="m 179.223,70.9268 v -0.3434 c 0.286,-0.0996 0.616,-0.1993 0.968,-0.299 0.518,-0.1661 1.299,-0.4209 2.323,-0.7642 h 0.737 v 0.8639 c 0,8.5945 -0.022,13.7113 -0.077,15.3615 -0.033,0.9747 -0.044,1.4952 -0.044,1.5506 0,1.174 0.044,1.8274 0.143,1.9603 0.121,0.1883 0.506,0.3212 1.145,0.3877 0.638,0.0775 1.012,0.144 1.133,0.2215 0.088,0.0443 0.121,0.1107 0.121,0.2215 0,0.1107 -0.022,0.1993 -0.066,0.2436 -0.044,0.0443 -0.132,0.0665 -0.253,0.0665 -0.077,0 -0.616,-0.0221 -1.64,-0.0554 l -2.047,-0.0775 -2.619,0.1218 c -0.165,0 -0.286,-0.0221 -0.374,-0.0997 -0.067,-0.0553 -0.089,-0.1329 -0.089,-0.2215 0,-0.1107 0.034,-0.1882 0.1,-0.2325 0.066,-0.0443 0.44,-0.1329 1.122,-0.2437 0.683,-0.1108 1.068,-0.2104 1.167,-0.288 0.099,-0.0775 0.165,-0.2547 0.198,-0.5205 0.044,-0.3766 0.066,-1.4398 0.066,-3.1786 v -3.6106 l 0.033,-3.7324 v -3.7324 l 0.033,-1.8385 c 0,-0.3655 -0.055,-0.6313 -0.176,-0.7864 -0.11,-0.1661 -0.363,-0.3212 -0.738,-0.4762 -0.561,-0.2326 -0.946,-0.3987 -1.155,-0.4984 z"
         fill="#00543d"
         id="path20"
         inkscape:label="l" />
      <path
         d="m 166.588,78.0039 c 0.231,-0.0221 0.418,-0.0332 0.572,-0.0332 h 0.749 l 1.012,-0.0332 1.321,0.0443 1.079,-0.0332 c 0.572,0 1.089,0.0332 1.54,0.1107 0.044,0.0997 0.067,0.1883 0.067,0.2548 v 0.1218 c -0.232,0.0997 -0.573,0.1772 -1.024,0.2215 -0.638,0.0554 -1.101,0.1661 -1.387,0.3433 l -0.033,0.1772 c 0,0.0997 0.044,0.2659 0.121,0.4652 0.055,0.1218 0.121,0.3212 0.209,0.5648 0.231,0.7753 0.727,2.2705 1.486,4.4967 0.55,1.6059 1.068,2.9792 1.53,4.1311 0.286,-0.6313 0.616,-1.4287 0.98,-2.4034 l 1.309,-3.7213 c 0.308,-0.8085 0.529,-1.6281 0.694,-2.4366 0.066,-0.3212 0.088,-0.5759 0.088,-0.7642 0,-0.1551 -0.066,-0.299 -0.198,-0.443 -0.132,-0.1329 -0.408,-0.2547 -0.815,-0.3433 -0.737,-0.1883 -1.133,-0.3102 -1.2,-0.3545 -0.066,-0.0443 -0.099,-0.1439 -0.11,-0.3101 0.066,-0.0553 0.133,-0.0996 0.221,-0.1218 h 2.014 1.563 1.001 0.253 c 0.077,0 0.187,0 0.363,0.0332 0.099,0.0554 0.154,0.1329 0.154,0.2548 0,0.0996 -0.044,0.1993 -0.143,0.2879 l -0.308,0.0443 c -0.605,0.0886 -1.067,0.2437 -1.387,0.4652 -0.176,0.1218 -0.33,0.3876 -0.451,0.7863 -0.044,0.144 -0.11,0.3323 -0.198,0.5649 -0.055,0.1218 -0.132,0.3322 -0.231,0.6313 -0.099,0.2879 -0.231,0.6424 -0.385,1.03 l -0.187,0.443 v 0.0775 l -2.664,7.0218 -1.926,5.283 c -0.121,0.2658 -0.275,0.587 -0.44,0.9746 -0.396,0.7421 -0.627,1.1519 -0.704,1.2294 -0.309,0.3876 -0.584,0.6645 -0.815,0.8196 l -0.792,0.3433 c -0.154,0.0443 -0.32,0.0665 -0.496,0.0665 -0.473,0 -0.814,-0.0997 -1.034,-0.3102 -0.22,-0.2104 -0.33,-0.4873 -0.33,-0.8417 0,-0.3323 0.165,-0.6424 0.484,-0.9192 0.099,-0.0333 0.209,-0.0776 0.308,-0.1219 l 0.198,-0.0443 c 0.925,0.1662 1.508,0.2548 1.728,0.2548 0.22,-0.1108 0.374,-0.2437 0.484,-0.4098 0.507,-0.7642 0.947,-1.606 1.31,-2.5474 0.363,-0.9414 0.55,-1.5727 0.55,-1.8939 0,-0.3544 -0.132,-0.8749 -0.407,-1.5505 l -1.728,-4.6074 c -0.242,-0.598 -0.957,-2.5362 -2.135,-5.8367 -0.077,-0.2104 -0.165,-0.3655 -0.275,-0.4762 l -1.057,-0.3877 -0.33,-0.0664 c -0.176,-0.0776 -0.264,-0.1772 -0.264,-0.3101 l 0.077,-0.1994 z"
         fill="#00543d"
         id="path19"
         inkscape:label="y" />
      <path
         d="m 158.278,86.3769 c 0.385,0.9968 0.672,1.6392 0.87,1.9272 0.396,0.598 0.869,1.0521 1.42,1.3844 0.55,0.3322 1.144,0.4984 1.794,0.4984 0.594,0 1.177,-0.2548 1.76,-0.7642 0.419,-0.3877 0.628,-0.8418 0.628,-1.3512 0,-0.6756 -0.242,-1.3069 -0.738,-1.8828 -0.484,-0.5649 -1.419,-1.1076 -2.784,-1.617 -1.365,-0.5206 -2.278,-1.0633 -2.752,-1.6503 -0.462,-0.587 -0.704,-1.2515 -0.704,-2.0046 0,-0.7089 0.187,-1.3401 0.572,-1.8828 0.385,-0.5427 0.914,-0.9525 1.585,-1.2294 0.672,-0.2769 1.299,-0.4209 1.871,-0.4209 0.738,0 1.398,0.0554 1.981,0.1772 0.584,0.1108 1.09,0.288 1.519,0.5317 0.088,0.5316 0.154,1.3179 0.198,2.3479 l 0.033,0.4984 c -0.132,0 -0.253,0.0111 -0.341,0.0111 h -0.22 c -0.308,-0.8639 -0.792,-1.5506 -1.431,-2.06 -0.638,-0.5095 -1.266,-0.7642 -1.893,-0.7642 -0.627,0 -1.123,0.1883 -1.508,0.5759 -0.385,0.3876 -0.572,0.886 -0.572,1.4952 0,0.4651 0.154,0.886 0.462,1.2515 0.308,0.3655 1.046,0.7863 2.19,1.2515 1.145,0.4652 1.982,0.9082 2.51,1.3069 0.528,0.3987 0.913,0.8971 1.155,1.473 0.254,0.576 0.375,1.1297 0.375,1.6503 0,0.7199 -0.231,1.3955 -0.705,2.0268 -0.473,0.6313 -1.067,1.0743 -1.772,1.329 -0.715,0.2547 -1.342,0.3876 -1.904,0.3876 -1.32,0 -2.531,-0.2436 -3.643,-0.742 -0.099,-0.0886 -0.165,-0.2437 -0.176,-0.4652 0,-0.0886 0,-0.2436 -0.033,-0.4541 -0.165,-1.4065 -0.253,-2.2483 -0.253,-2.5141 0,-0.1218 0.022,-0.2104 0.077,-0.2547 0.055,-0.0443 0.187,-0.0665 0.407,-0.0665 z"
         fill="#00543d"
         id="path18"
         inkscape:label="s" />
      <path
         d="m 141.615,89.8435 c 0.264,-0.0775 0.561,-0.1329 0.903,-0.1883 0.649,-0.0886 1.045,-0.1993 1.177,-0.3322 0.132,-0.1219 0.198,-0.4098 0.198,-0.8639 l 0.033,-0.5649 c 0,-0.2104 0.011,-0.4762 0.011,-0.7974 l -0.033,-4.7956 c 0,-0.6424 -0.088,-1.0633 -0.253,-1.2515 -0.275,-0.288 -0.803,-0.4984 -1.563,-0.6092 v -0.5759 c 0.76,-0.2104 1.343,-0.4873 1.75,-0.8196 0.595,-0.4762 1.09,-1.1075 1.497,-1.916 h 0.528 c 0.033,0.5094 0.044,0.8638 0.044,1.0743 v 1.318 c 0.144,-0.0886 0.287,-0.1883 0.452,-0.3212 0.627,-0.4763 1.265,-0.8528 1.915,-1.1519 0.649,-0.299 1.232,-0.5094 1.75,-0.6202 0.319,-0.0886 0.682,-0.1218 1.089,-0.1218 0.848,0 1.585,0.2326 2.202,0.6866 0.616,0.4652 1.012,1.0079 1.188,1.6281 0.176,0.6203 0.275,1.8607 0.275,3.7103 v 2.3701 c 0,0.0665 0,0.2769 -0.022,0.6313 -0.011,0.3544 -0.022,0.7642 -0.022,1.2294 0,0.731 0.033,1.1961 0.088,1.3955 0.055,0.1329 0.187,0.2769 0.408,0.4098 1.001,0.1329 1.584,0.299 1.75,0.4873 v 0.1218 c 0,0.0997 -0.033,0.2326 -0.088,0.3876 h -0.298 l -2.058,-0.0332 -2.025,0.0443 c -0.748,0.0222 -1.442,0.0111 -2.069,-0.0111 l -0.088,-0.3322 c 0,-0.0665 0.033,-0.144 0.11,-0.2547 0.275,-0.1219 0.671,-0.2105 1.189,-0.2548 0.297,-0.0221 0.506,-0.0554 0.627,-0.0997 0.11,-0.0443 0.253,-0.1218 0.418,-0.2547 0.121,-0.2547 0.187,-0.4652 0.187,-0.6313 0,-0.0775 0,-0.2215 -0.033,-0.443 -0.033,-0.4762 -0.055,-1.6835 -0.066,-3.5995 v -0.8196 l 0.033,-1.2515 c 0,-1.3512 -0.275,-2.2815 -0.814,-2.791 -0.539,-0.5095 -1.266,-0.7753 -2.168,-0.7753 -0.694,0 -1.376,0.1551 -2.047,0.4652 -0.661,0.3101 -1.31,0.7753 -1.938,1.3844 -0.022,0.4984 -0.033,0.9303 -0.033,1.2848 l 0.044,3.4666 c 0,1.8052 0.022,2.9128 0.077,3.3226 0.023,0.1661 0.056,0.2879 0.111,0.3433 0.088,0.0886 0.253,0.1551 0.495,0.1994 0.253,0.0553 0.539,0.1218 0.869,0.2215 0.33,0.0886 0.54,0.155 0.65,0.1772 0.209,0.0554 0.352,0.155 0.418,0.3101 v 0.3101 h -1.651 l -3.368,-0.0443 c -0.781,0 -1.277,0.0111 -1.486,0.0111 h -0.385 l -0.033,-0.1994 c 0,-0.0775 0.011,-0.1772 0.044,-0.3101 z"
         fill="#00543d"
         id="path17"
         inkscape:label="n" />
      <path
         d="m 126.603,89.8435 c 0.264,-0.0775 0.561,-0.1329 0.903,-0.1883 0.649,-0.0886 1.045,-0.1993 1.177,-0.3322 0.132,-0.1219 0.198,-0.4098 0.198,-0.8639 l 0.033,-0.5649 c 0,-0.2104 0.011,-0.4762 0.011,-0.7974 l -0.033,-4.7956 c 0,-0.6424 -0.088,-1.0633 -0.253,-1.2515 -0.275,-0.288 -0.803,-0.4984 -1.563,-0.6092 v -0.5759 c 0.76,-0.2104 1.343,-0.4873 1.75,-0.8196 0.595,-0.4762 1.09,-1.1075 1.497,-1.916 h 0.528 c 0.033,0.5094 0.044,0.8638 0.044,1.0743 v 1.318 c 0.144,-0.0886 0.287,-0.1883 0.452,-0.3212 0.627,-0.4763 1.265,-0.8528 1.915,-1.1519 0.649,-0.299 1.232,-0.5094 1.75,-0.6202 0.319,-0.0886 0.682,-0.1218 1.089,-0.1218 0.848,0 1.585,0.2326 2.202,0.6866 0.616,0.4652 1.012,1.0079 1.188,1.6281 0.176,0.6203 0.275,1.8607 0.275,3.7103 v 2.3701 c 0,0.0665 0,0.2769 -0.022,0.6313 -0.011,0.3544 -0.022,0.7642 -0.022,1.2294 0,0.731 0.033,1.1961 0.088,1.3955 0.055,0.1329 0.188,0.2769 0.408,0.4098 1.001,0.1329 1.574,0.299 1.75,0.4873 v 0.1218 c 0,0.0997 -0.033,0.2326 -0.088,0.3876 h -0.298 l -2.058,-0.0332 -2.025,0.0443 c -0.748,0.0222 -1.442,0.0111 -2.069,-0.0111 l -0.088,-0.3322 c 0,-0.0665 0.033,-0.144 0.11,-0.2547 0.275,-0.1219 0.671,-0.2105 1.189,-0.2548 0.297,-0.0221 0.506,-0.0554 0.627,-0.0997 0.11,-0.0443 0.253,-0.1218 0.418,-0.2547 0.121,-0.2547 0.187,-0.4652 0.187,-0.6313 0,-0.0775 0,-0.2215 -0.033,-0.443 -0.033,-0.4762 -0.055,-1.6835 -0.066,-3.5995 v -0.8196 l 0.033,-1.2515 c 0,-1.3512 -0.275,-2.2815 -0.814,-2.791 -0.539,-0.5095 -1.266,-0.7753 -2.168,-0.7753 -0.694,0 -1.376,0.1551 -2.036,0.4652 -0.661,0.3101 -1.31,0.7753 -1.938,1.3844 -0.022,0.4984 -0.033,0.9303 -0.033,1.2848 l 0.044,3.4666 c 0,1.8052 0.022,2.9128 0.078,3.3226 0.022,0.1661 0.055,0.2879 0.11,0.3433 0.088,0.0886 0.253,0.1551 0.495,0.1994 0.253,0.0553 0.539,0.1218 0.869,0.2215 0.33,0.0886 0.54,0.155 0.65,0.1772 0.209,0.0554 0.352,0.155 0.418,0.3101 v 0.3101 h -1.651 l -3.368,-0.0443 c -0.781,0 -1.277,0.0111 -1.486,0.0111 h -0.385 l -0.033,-0.1994 c 0,-0.0775 0.011,-0.1772 0.044,-0.3101 z"
         fill="#00543d"
         id="path16"
         inkscape:label="n" />
      <path
         d="m 126.339,82.0797 -6.252,0.0443 h -1.189 c -0.473,0 -0.968,0.0221 -1.463,0.0664 -0.088,0.3101 -0.143,0.5317 -0.143,0.6424 v 0.1551 l 0.011,0.155 v 0.7642 c -0.011,0.6424 0.187,1.4177 0.583,2.348 0.396,0.9303 0.968,1.6281 1.717,2.1154 0.748,0.4873 1.673,0.7421 2.784,0.7753 0.595,-0.0332 1.068,-0.0997 1.42,-0.2215 0.352,-0.1219 0.848,-0.3766 1.497,-0.7975 l 1.123,-0.9192 0.088,0.6313 c 0,0.0775 0,0.155 -0.011,0.2326 -0.463,0.598 -1.057,1.1186 -1.772,1.5727 -0.716,0.4541 -1.442,0.7753 -2.18,0.9857 -0.352,0.0886 -0.935,0.144 -1.749,0.144 -0.738,0 -1.464,-0.1551 -2.18,-0.4541 -1.056,-0.4652 -1.893,-1.1962 -2.498,-2.2151 -0.605,-1.0189 -0.914,-2.2594 -0.914,-3.7103 0,-0.4541 0.088,-1.0521 0.254,-1.772 0.176,-0.7199 0.484,-1.4841 0.924,-2.3037 0.297,-0.5538 0.671,-1.0079 1.112,-1.3623 0.627,-0.4984 1.166,-0.8528 1.64,-1.0521 0.671,-0.2769 1.463,-0.4209 2.355,-0.4209 0.968,0 1.761,0.1772 2.366,0.5316 0.837,0.4652 1.453,1.0743 1.86,1.8164 0.407,0.742 0.617,1.4176 0.617,2.0378 v 0.2216 z m -8.695,-0.5649 h 0.737 c 0.528,0 2.113,-0.0886 4.733,-0.2547 0.418,-0.0221 0.671,-0.0664 0.759,-0.1218 0.187,-0.1994 0.275,-0.3766 0.275,-0.5316 0,-0.3212 -0.099,-0.6867 -0.308,-1.1076 -0.209,-0.4208 -0.528,-0.731 -0.957,-0.9525 -0.43,-0.2215 -0.936,-0.3322 -1.508,-0.3322 -1.211,0 -2.168,0.4541 -2.895,1.3622 -0.561,0.6867 -0.836,1.3402 -0.836,1.9493 z"
         fill="#00543d"
         id="path15"
         inkscape:label="e" />
      <path
         d="m 98.9887,70.3508 c 0.1871,-0.0332 0.3082,-0.0443 0.3632,-0.0443 0.3522,0 0.9351,0.0222 1.7501,0.0665 0.429,0 0.715,0.0111 0.869,0.0111 0.231,0 0.716,-0.0222 1.453,-0.0665 l 2.653,-0.1551 c 0.693,-0.0664 1.507,-0.0996 2.432,-0.0996 1.629,0 2.928,0.2326 3.896,0.6977 0.969,0.4652 1.717,1.1962 2.234,2.1819 0.529,0.9968 0.782,1.9825 0.782,2.9571 0,1.6392 -0.573,3.0568 -1.717,4.2419 -1.145,1.1961 -2.686,1.7831 -4.612,1.7831 -0.539,0 -0.99,-0.0554 -1.353,-0.1661 -0.364,-0.1108 -0.782,-0.3212 -1.244,-0.6313 -0.198,-0.1329 -0.319,-0.2769 -0.363,-0.4209 0.044,-0.0775 0.099,-0.1218 0.176,-0.155 0.143,0 0.297,0.0332 0.451,0.0886 0.352,0.1218 0.803,0.1882 1.343,0.1882 0.825,0 1.596,-0.1993 2.333,-0.6091 0.726,-0.4098 1.288,-0.9857 1.662,-1.7388 0.374,-0.7532 0.561,-1.5395 0.561,-2.3812 0,-0.8418 -0.198,-1.606 -0.594,-2.3702 -0.396,-0.7642 -0.914,-1.3844 -1.552,-1.8385 -0.363,-0.2658 -0.924,-0.4762 -1.673,-0.6534 -0.748,-0.1772 -1.332,-0.2658 -1.75,-0.2658 -1.288,0 -2.047,0.0886 -2.289,0.2768 v 0.2215 l 0.033,1.7721 v 0.3101 c -0.033,0.2769 -0.044,0.7199 -0.044,1.2958 0,2.1265 0.033,3.4556 0.088,3.9761 v 0.875 l 0.198,7.1657 c 0,0.0997 -0.011,0.2991 -0.044,0.5759 -0.022,0.2769 -0.044,0.5317 -0.044,0.731 0,0.4984 0.044,0.8861 0.121,1.1408 0.253,0.0775 0.98,0.2436 2.179,0.5205 0.562,0.1329 0.87,0.2105 0.925,0.2326 0.088,0.0332 0.154,0.0997 0.22,0.1994 -0.044,0.155 -0.099,0.2547 -0.165,0.3101 -0.066,0.0443 -0.198,0.0664 -0.396,0.0664 -0.121,0 -0.419,-0.0221 -0.87,-0.0775 -0.891,-0.0886 -1.596,-0.144 -2.102,-0.144 l -2.741,0.1108 -1.639,-0.0443 c -0.1,0 -0.408,0 -0.9029,0.0332 v -0.4098 l 2.0139,-0.3876 c 0.33,-0.0886 0.539,-0.1883 0.605,-0.2769 0.1,-0.144 0.155,-0.4319 0.155,-0.8639 0,-0.0886 0,-0.299 0.011,-0.6091 0,-0.2215 0.011,-0.5206 0.011,-0.9082 0,-1.2294 -0.055,-3.8653 -0.154,-7.8857 -0.045,-1.8828 -0.067,-3.7878 -0.067,-5.737 v -0.2658 c 0,-0.7532 -0.11,-1.2294 -0.341,-1.4288 -0.385,-0.3433 -1.342,-0.6313 -2.8833,-0.8417 -0.055,-0.1108 -0.0771,-0.2104 -0.0771,-0.2769 0,-0.0886 0.0331,-0.1883 0.0881,-0.299 z"
         fill="#00543d"
         id="path14"
         inkscape:label="P" />
    </g>
    <g
       id="g37"
       inkscape:label="Souitheast">
      <path
         d="m 212.583,50.4927 h 0.484 l 0.066,1.5062 -0.033,1.9271 c 0.198,0 0.319,0.0111 0.374,0.0111 0.275,0 0.781,-0.0221 1.541,-0.0664 0.484,-0.0333 0.957,-0.0443 1.398,-0.0443 0.209,0 0.517,0 0.935,0.011 0.022,0.2105 0.033,0.3766 0.033,0.4984 0,0.1329 -0.033,0.3544 -0.088,0.6424 h -0.264 l -2.41,0.0775 -1.2,0.0333 -0.275,0.0332 c -0.088,0.2658 -0.121,0.5648 -0.121,0.9082 l 0.044,2.3479 -0.033,4.1422 c 0,1.0854 0.143,1.8053 0.418,2.1597 0.275,0.3655 0.671,0.5538 1.211,0.5538 0.275,0 0.781,-0.0886 1.53,-0.2547 0.231,-0.0554 0.539,-0.2215 0.924,-0.5206 h 0.143 c 0.088,0 0.165,0.0333 0.231,0.0886 0.055,0.0554 0.088,0.1329 0.088,0.2326 v 0.1108 c -0.462,0.4873 -0.968,0.8528 -1.552,1.0743 -0.572,0.2215 -1.342,0.3322 -2.3,0.3322 -0.671,0 -1.233,-0.155 -1.673,-0.4651 -0.44,-0.3101 -0.726,-0.6867 -0.847,-1.1186 -0.121,-0.432 -0.187,-1.3623 -0.187,-2.8132 l 0.066,-3.533 v -1.6946 l -0.011,-0.6313 c 0,-0.2879 0,-0.587 -0.033,-0.8749 h -0.264 l -1.277,0.0332 h -0.121 c -0.11,0.0111 -0.198,0 -0.253,-0.0664 -0.055,-0.0554 -0.088,-0.1108 -0.088,-0.1883 0,-0.1219 0.044,-0.2326 0.121,-0.3101 0.077,-0.0776 0.319,-0.1994 0.704,-0.3655 0.275,-0.1108 0.583,-0.3323 0.947,-0.6535 0.363,-0.3212 0.66,-0.6756 0.913,-1.0632 0.121,-0.2104 0.297,-0.6092 0.528,-1.1962 0.165,-0.4319 0.287,-0.7309 0.375,-0.9081 z"
         fill="#00543d"
         id="path13"
         inkscape:label="t" />
      <path
         d="m 200.168,62.0111 c 0.385,0.9968 0.671,1.6392 0.869,1.9271 0.396,0.5981 0.87,1.0633 1.42,1.3844 0.55,0.3323 1.145,0.4984 1.794,0.4984 0.594,0 1.178,-0.2547 1.761,-0.7642 0.418,-0.3876 0.627,-0.8417 0.627,-1.3512 0,-0.6756 -0.242,-1.3069 -0.726,-1.8828 -0.484,-0.5648 -1.42,-1.1075 -2.785,-1.6281 -1.364,-0.5205 -2.289,-1.0632 -2.751,-1.6502 -0.463,-0.587 -0.705,-1.2515 -0.705,-2.0046 0,-0.7089 0.187,-1.3402 0.573,-1.8829 0.385,-0.5427 0.913,-0.9524 1.585,-1.2293 0.671,-0.2769 1.298,-0.4098 1.871,-0.4098 0.737,0 1.397,0.0554 1.992,0.1772 0.583,0.1107 1.089,0.2879 1.519,0.5316 0.088,0.5316 0.154,1.318 0.198,2.348 l 0.033,0.4984 c -0.132,0 -0.253,0.0111 -0.342,0.0111 h -0.22 c -0.308,-0.8639 -0.781,-1.5506 -1.419,-2.0601 -0.639,-0.5094 -1.266,-0.7642 -1.893,-0.7642 -0.628,0 -1.123,0.1883 -1.508,0.576 -0.386,0.3765 -0.573,0.886 -0.573,1.4951 0,0.4652 0.154,0.8861 0.463,1.2516 0.308,0.3654 1.045,0.7863 2.19,1.2515 1.144,0.4651 1.981,0.9081 2.509,1.3069 0.529,0.3987 0.914,0.8971 1.156,1.473 0.253,0.5759 0.374,1.1297 0.374,1.6502 0,0.7199 -0.231,1.3955 -0.704,2.0268 -0.474,0.6313 -1.068,1.0743 -1.772,1.3291 -0.716,0.2547 -1.343,0.3876 -1.904,0.3876 -1.321,0 -2.532,-0.2437 -3.643,-0.742 -0.099,-0.0886 -0.165,-0.2437 -0.176,-0.4763 0,-0.0886 0,-0.2436 -0.033,-0.4541 -0.166,-1.4066 -0.254,-2.2483 -0.254,-2.5141 0,-0.1218 0.022,-0.2104 0.077,-0.2547 C 199.826,62.0222 199.959,62 200.179,62 Z"
         fill="#00543d"
         id="path12"
         inkscape:label="s" />
      <path
         d="m 199.056,63.8607 c 0.066,0.1329 0.088,0.2325 0.088,0.299 0,0.1551 -0.121,0.4319 -0.374,0.8306 -0.32,0.5206 -0.683,0.9082 -1.079,1.1408 -0.253,0.1551 -0.594,0.2326 -1.023,0.2326 -0.749,0 -1.31,-0.2326 -1.684,-0.6867 -0.232,-0.2769 -0.386,-0.7642 -0.485,-1.4619 l -1.75,1.2293 c -0.616,0.3545 -1.078,0.576 -1.397,0.6756 -0.518,0.1329 -1.145,0.1994 -1.871,0.1994 -0.529,0 -0.947,-0.1551 -1.255,-0.4762 -0.308,-0.3212 -0.462,-0.731 -0.462,-1.2294 0,-0.7199 0.44,-1.5838 1.32,-2.5917 0.881,-1.0078 2.069,-1.8274 3.588,-2.4587 1.057,-0.4541 1.717,-0.742 1.948,-0.8639 0.022,-0.3433 0.033,-0.7199 0.033,-1.1297 0,-1.329 -0.187,-2.2261 -0.55,-2.7024 -0.374,-0.4651 -0.902,-0.7088 -1.585,-0.7088 -0.682,0 -1.387,0.2769 -2.014,0.8418 -0.385,0.3544 -0.682,1.03 -0.88,2.0046 -0.066,0.2769 -0.176,0.5648 -0.364,0.875 -0.451,0.2879 -0.803,0.443 -1.078,0.443 -0.231,0 -0.44,-0.0665 -0.628,-0.1994 -0.099,-0.0775 -0.154,-0.155 -0.154,-0.2547 0,-0.2769 0.287,-0.8861 0.87,-1.8385 0.572,-0.9525 1.299,-1.6724 2.179,-2.1487 0.881,-0.4762 1.64,-0.7088 2.3,-0.7088 0.892,0 1.563,0.0775 1.992,0.2437 0.441,0.1661 0.826,0.443 1.156,0.8528 0.33,0.4098 0.539,0.8528 0.605,1.329 0.044,0.2326 0.066,1.0522 0.066,2.4588 l -0.044,2.4919 v 1.8164 c 0.011,0.2436 0,0.443 0,0.6091 0,0.2991 -0.011,0.5316 -0.011,0.6756 0,0.3434 0.099,0.6203 0.298,0.8307 0.198,0.2104 0.429,0.3101 0.704,0.3101 0.396,0 0.737,-0.1994 1.013,-0.5981 l 0.187,-0.2547 c 0,0 0.165,-0.0665 0.341,-0.1108 z m -4.568,-0.4541 c 0.077,-1.3291 0.11,-2.2705 0.11,-2.8132 0,-0.2879 -0.011,-0.6645 -0.044,-1.1407 -0.693,0.2547 -1.441,0.6313 -2.223,1.1407 -0.781,0.5095 -1.398,1.1076 -1.86,1.7721 -0.33,0.4762 -0.495,0.9303 -0.495,1.3623 0,0.4097 0.143,0.742 0.418,1.0189 0.275,0.2769 0.627,0.4098 1.035,0.4098 0.319,0 0.715,-0.1108 1.177,-0.3434 0.606,-0.299 1.233,-0.7752 1.893,-1.4065 z"
         fill="#00543d"
         id="path11"
         inkscape:label="a" />
      <path
         d="m 186.872,57.7138 -6.251,0.0443 h -1.189 c -0.473,0 -0.968,0.0222 -1.464,0.0665 -0.088,0.3101 -0.143,0.5316 -0.143,0.6423 v 0.1551 l 0.011,0.155 v 0.7642 c -0.011,0.6424 0.187,1.4177 0.584,2.348 0.396,0.9304 0.968,1.6281 1.717,2.1154 0.737,0.4873 1.672,0.7421 2.784,0.7753 0.594,-0.0332 1.068,-0.0997 1.42,-0.2215 0.352,-0.1108 0.847,-0.3876 1.497,-0.7974 l 1.122,-0.9304 0.088,0.6313 c 0,0.0776 0,0.1551 -0.011,0.2326 -0.462,0.5981 -1.056,1.1186 -1.772,1.5727 -0.715,0.4541 -1.441,0.7753 -2.179,0.9857 -0.352,0.0886 -0.935,0.144 -1.75,0.144 -0.737,0 -1.464,-0.155 -2.179,-0.4541 -1.057,-0.4652 -1.893,-1.1961 -2.498,-2.2151 -0.606,-1.0189 -0.914,-2.2593 -0.914,-3.7102 0,-0.4652 0.088,-1.0522 0.253,-1.7721 0.176,-0.7199 0.485,-1.4952 0.925,-2.3037 0.297,-0.5537 0.671,-1.0078 1.1,-1.3622 0.628,-0.4984 1.167,-0.8528 1.64,-1.0522 0.672,-0.2769 1.464,-0.4209 2.356,-0.4209 0.968,0 1.761,0.1773 2.366,0.5317 0.836,0.4651 1.453,1.0743 1.86,1.8163 0.407,0.7421 0.616,1.4177 0.616,2.0379 v 0.2215 z m -8.695,-0.5648 h 0.727 c 0.528,0 2.113,-0.0886 4.732,-0.2548 0.419,-0.0221 0.672,-0.0664 0.76,-0.1218 0.187,-0.1994 0.275,-0.3766 0.275,-0.5316 0,-0.3212 -0.099,-0.6978 -0.308,-1.1076 -0.209,-0.4098 -0.528,-0.7309 -0.958,-0.9524 -0.429,-0.2216 -0.935,-0.3323 -1.507,-0.3323 -1.211,0 -2.169,0.4541 -2.895,1.3623 -0.561,0.6866 -0.837,1.3401 -0.837,1.9492 z"
         fill="#00543d"
         id="path10"
         inkscape:label="e" />
      <path
         d="m 160.292,65.5995 c 1.211,-0.2215 1.915,-0.3877 2.103,-0.4984 0.11,-0.0775 0.176,-0.2437 0.176,-0.4984 v -1.03 -1.8385 l -0.033,-4.6738 v -1.7389 l 0.011,-1.2404 0.044,-1.5174 c 0,-2.3812 -0.022,-3.8099 -0.066,-4.2751 -0.044,-0.4651 -0.132,-0.7531 -0.276,-0.8749 -0.253,-0.2437 -0.935,-0.4873 -2.058,-0.7531 V 46.583 c 0,-0.0775 0,-0.1772 0.033,-0.3101 0.143,-0.0221 0.287,-0.0443 0.419,-0.0775 0.132,-0.0332 0.264,-0.0554 0.385,-0.0665 1.232,-0.3544 2.135,-0.6977 2.696,-1.03 h 0.76 c 0.022,0.288 0.033,1.2183 0.033,2.78 v 1.9935 2.5695 l -0.066,3.1676 c 0,0.1883 0,0.3987 0.033,0.6313 0.66,-0.7642 1.133,-1.2737 1.442,-1.5284 0.539,-0.443 1.122,-0.7864 1.727,-1.0411 0.617,-0.2548 1.255,-0.3877 1.938,-0.3877 1.276,0 2.322,0.5427 3.136,1.6281 0.463,0.6424 0.705,1.5395 0.705,2.7135 l -0.044,1.5949 v 0.8971 l -0.044,1.5505 c -0.044,1.2848 -0.066,2.049 -0.066,2.2926 0,0.2769 0,0.6424 0.033,1.0965 l 0.891,0.1993 c 0.594,0.1219 1.046,0.2437 1.376,0.3434 v 0.4873 l -3.335,-0.0886 c -0.187,0 -0.693,0.0221 -1.53,0.0664 -0.506,0.0222 -0.803,0.0333 -0.891,0.0333 h -0.342 c -0.055,-0.0886 -0.077,-0.1772 -0.077,-0.2326 v -0.144 c 0.144,-0.1883 0.419,-0.3101 0.815,-0.3766 l 0.935,-0.2215 c 0.121,-0.0996 0.199,-0.2104 0.221,-0.3322 0.044,-0.2769 0.088,-1.617 0.143,-4.0425 l 0.033,-1.163 c 0.044,-1.2183 -0.055,-2.2372 -0.276,-3.0346 -0.143,-0.5538 -0.473,-0.9968 -0.99,-1.318 -0.517,-0.3322 -1.112,-0.4984 -1.783,-0.4984 -0.561,0 -1.09,0.1219 -1.596,0.3655 -0.341,0.1772 -0.759,0.4873 -1.233,0.9193 -0.484,0.443 -0.814,0.8195 -1.001,1.1297 -0.121,0.2104 -0.187,0.5537 -0.187,1.03 v 1.0964 l -0.011,1.1408 c 0,0.0997 0.011,0.742 0.044,1.9603 v 0.9968 l 0.011,1.0965 c 0,0.155 0.022,0.2769 0.044,0.3433 l 2.201,0.5316 c 0.11,0.0333 0.286,0.0997 0.517,0.1994 l 0.044,0.1772 c 0,0 -0.022,0.144 -0.077,0.2547 -0.297,0 -0.528,0.0111 -0.682,0.0111 h -1.211 l -2.685,0.0111 -2.014,0.0664 c -0.099,0 -0.265,-0.0221 -0.463,-0.0332 v -0.1107 c -0.011,-0.0886 0.022,-0.1883 0.11,-0.3102 z"
         fill="#00543d"
         id="path9"
         inkscape:label="h" />
      <path
         d="m 156.275,50.4927 h 0.485 l 0.066,1.5062 -0.033,1.9271 c 0.198,0 0.319,0.0111 0.374,0.0111 0.275,0 0.781,-0.0221 1.541,-0.0664 0.484,-0.0333 0.957,-0.0443 1.398,-0.0443 0.209,0 0.517,0 0.935,0.011 0.022,0.2105 0.033,0.3766 0.033,0.4984 0,0.1329 -0.033,0.3544 -0.088,0.6424 h -0.264 l -2.41,0.0775 -1.2,0.0333 -0.275,0.0332 c -0.088,0.2658 -0.121,0.5648 -0.121,0.9082 l 0.044,2.3479 -0.033,4.1422 c 0,1.0854 0.143,1.8053 0.418,2.1597 0.275,0.3655 0.671,0.5538 1.211,0.5538 0.275,0 0.781,-0.0886 1.529,-0.2547 0.232,-0.0554 0.54,-0.2215 0.925,-0.5206 h 0.143 c 0.088,0 0.165,0.0333 0.231,0.0886 0.055,0.0554 0.088,0.1329 0.088,0.2326 v 0.1108 c -0.462,0.4873 -0.968,0.8528 -1.552,1.0743 -0.572,0.2215 -1.342,0.3322 -2.3,0.3322 -0.671,0 -1.233,-0.155 -1.673,-0.4651 -0.44,-0.3101 -0.726,-0.6867 -0.847,-1.1186 -0.121,-0.432 -0.187,-1.3623 -0.187,-2.8132 l 0.066,-3.533 v -1.6946 l -0.011,-0.6313 c 0,-0.2879 0,-0.587 -0.033,-0.8749 h -0.265 l -1.276,0.0332 h -0.121 c -0.11,0.0111 -0.198,0 -0.254,-0.0664 -0.055,-0.0554 -0.088,-0.1108 -0.088,-0.1883 0,-0.1219 0.044,-0.2326 0.122,-0.3101 0.077,-0.0776 0.319,-0.1994 0.704,-0.3655 0.275,-0.1108 0.583,-0.3323 0.946,-0.6535 0.364,-0.3212 0.661,-0.6756 0.914,-1.0632 0.121,-0.2104 0.297,-0.6092 0.528,-1.1962 0.165,-0.4319 0.286,-0.7309 0.374,-0.9081 z"
         fill="#00543d"
         id="path8"
         inkscape:label="t" />
      <path
         d="m 138.137,53.6824 h 1.167 l 0.517,0.0332 0.407,-0.0332 c 1.068,0 1.728,0 1.992,0.0332 v 0.299 c 0.011,1.4731 0,2.9018 -0.044,4.2862 -0.033,0.8196 -0.044,1.2848 -0.044,1.3955 0,1.8385 0.055,2.9904 0.177,3.4555 0.121,0.4652 0.396,0.8307 0.847,1.1076 0.44,0.2768 0.98,0.4208 1.607,0.4208 0.759,0 1.486,-0.155 2.179,-0.4762 0.693,-0.3212 1.288,-0.7088 1.772,-1.174 0.055,-0.3987 0.077,-0.8417 0.077,-1.318 0,-1.5616 0.011,-2.6138 0.044,-3.1565 0,-0.3211 0.011,-0.6091 0.011,-0.8417 0,-1.6945 -0.088,-2.647 -0.253,-2.8685 -0.165,-0.2215 -0.803,-0.3877 -1.904,-0.4984 -0.363,-0.0443 -0.627,-0.0775 -0.793,-0.1108 -0.088,-0.1329 -0.121,-0.2436 -0.121,-0.3101 l 0.044,-0.1772 c 0.276,-0.0332 0.54,-0.0443 0.793,-0.0443 l 2.476,0.0332 c 0.881,-0.0221 1.354,-0.0332 1.398,-0.0332 0.11,0 0.22,0 0.33,0.0111 l 0.033,1.1408 c -0.077,1.5948 -0.11,3.5552 -0.121,5.8921 l -0.033,1.2736 0.066,2.1376 c 0.088,0.1661 0.176,0.2658 0.253,0.299 0.121,0.0554 0.375,0.0775 0.76,0.0775 h 0.143 c 0.132,0 0.517,0.0333 1.155,0.0997 0,0.1329 0.011,0.2326 0.011,0.2991 v 0.1772 c -1.397,0.299 -2.52,0.6091 -3.378,0.9082 -0.342,0.1107 -0.639,0.1993 -0.87,0.2547 -0.055,-0.3655 -0.077,-0.587 -0.077,-0.6756 v -1.2737 c 0,0 0,-0.1993 -0.011,-0.4208 -0.132,0.0886 -0.286,0.2104 -0.462,0.3433 -0.826,0.6424 -1.684,1.174 -2.598,1.617 -0.616,0.299 -1.21,0.4541 -1.772,0.4541 -1.089,0 -1.981,-0.4098 -2.663,-1.2183 -0.693,-0.8196 -1.046,-2.204 -1.046,-4.1754 0,-0.0997 0,-0.288 0.011,-0.5649 0.044,-0.4984 0.066,-0.8528 0.066,-1.0521 0,-0.0776 0,-0.2991 -0.011,-0.6867 0,-0.1661 -0.011,-0.3101 -0.011,-0.443 0,-0.0886 0,-0.3101 0.011,-0.6313 0,-0.3323 0.011,-0.5649 0.011,-0.6978 0,-0.1772 0,-0.3322 -0.011,-0.4651 l -0.033,-0.8307 v -0.443 c 0.011,-0.1661 -0.066,-0.3212 -0.231,-0.4541 -0.649,-0.1772 -1.078,-0.2769 -1.287,-0.3101 -0.199,-0.0222 -0.386,-0.0665 -0.54,-0.1329 v -0.4984 z"
         fill="#00543d"
         id="path7"
         inkscape:label="u" />
      <path
         d="m 123.907,59.6852 c 0,-0.7088 0.143,-1.473 0.44,-2.2815 0.297,-0.8085 0.748,-1.5395 1.342,-2.1819 0.606,-0.6423 1.244,-1.1186 1.916,-1.4398 0.946,-0.443 2.102,-0.6534 3.455,-0.6534 1.949,0 3.566,0.6645 4.876,2.0046 1.299,1.3402 1.959,2.9461 1.959,4.8289 0,1.6724 -0.682,3.1676 -2.047,4.4855 -1.365,1.3069 -3.093,1.9715 -5.184,1.9715 -1.287,0 -2.498,-0.3434 -3.643,-1.019 -0.847,-0.5094 -1.585,-1.2736 -2.201,-2.2704 -0.616,-1.0079 -0.924,-2.1487 -0.924,-3.4334 z m 6.9,6.1247 c 0.793,0 1.552,-0.2104 2.29,-0.6424 0.737,-0.4319 1.32,-1.1186 1.761,-2.06 0.44,-0.9414 0.66,-2.0379 0.66,-3.2894 0,-0.8195 -0.165,-1.761 -0.506,-2.8353 -0.342,-1.0743 -0.859,-1.8828 -1.563,-2.4255 -0.705,-0.5427 -1.53,-0.8085 -2.477,-0.8085 -0.682,0 -1.386,0.1662 -2.102,0.4873 -0.715,0.3212 -1.32,0.9414 -1.805,1.8607 -0.495,0.9193 -0.737,2.2262 -0.737,3.9207 0,1.905 0.429,3.3448 1.288,4.3194 0.858,0.9746 1.926,1.473 3.202,1.473 z"
         fill="#00543d"
         id="path6"
         inkscape:label="o" />
      <path
         d="m 121.309,46.6385 c 0.088,0.6866 0.121,1.0854 0.121,1.1961 l -0.066,1.3955 c -0.022,0.5981 -0.044,0.9746 -0.077,1.1408 -0.088,0.0443 -0.176,0.0664 -0.231,0.0664 l -0.143,-0.0332 c -0.33,-1.4619 -0.892,-2.5252 -1.695,-3.2008 -0.793,-0.6645 -1.761,-1.0078 -2.906,-1.0078 -1.144,0 -2.157,0.3322 -2.916,1.0078 -0.76,0.6645 -1.134,1.4509 -1.134,2.3369 0,0.6756 0.264,1.3069 0.792,1.8607 0.529,0.5648 1.882,1.4066 4.073,2.5363 1.662,0.8638 2.85,1.5727 3.566,2.1264 0.715,0.5538 1.254,1.1851 1.617,1.905 0.364,0.7199 0.551,1.5284 0.551,2.4144 0,1.1186 -0.286,2.1708 -0.87,3.1565 -0.572,0.9857 -1.353,1.7278 -2.333,2.2262 -0.98,0.4984 -2.267,0.742 -3.885,0.742 -1.398,0 -2.752,-0.2215 -4.039,-0.6756 -0.76,-0.2769 -1.222,-0.4873 -1.387,-0.6534 -0.165,-0.1662 -0.253,-0.3434 -0.253,-0.5317 0,-0.1107 0,-0.2658 0.033,-0.443 0.143,-1.2293 0.22,-2.2483 0.231,-3.0457 0.022,-0.4873 0.055,-0.7753 0.11,-0.8639 0.044,-0.0775 0.121,-0.1107 0.231,-0.1107 0.088,0 0.165,0.0332 0.22,0.0996 0.055,0.0665 0.099,0.1994 0.121,0.3877 0.11,1.2847 0.705,2.4366 1.772,3.4555 1.057,1.0189 2.256,1.5173 3.599,1.5173 0.826,0 1.574,-0.1772 2.267,-0.5205 0.694,-0.3433 1.233,-0.8417 1.618,-1.4952 0.386,-0.6534 0.584,-1.2847 0.584,-1.905 0,-0.8528 -0.297,-1.617 -0.892,-2.3258 -0.594,-0.7088 -1.783,-1.5173 -3.566,-2.4587 -1.783,-0.9414 -2.949,-1.617 -3.489,-2.049 -0.869,-0.6977 -1.53,-1.4398 -1.959,-2.2261 -0.319,-0.6092 -0.484,-1.3069 -0.484,-2.1154 0,-1.4509 0.572,-2.6803 1.717,-3.6881 1.145,-1.0079 2.674,-1.5173 4.6,-1.5173 1.057,0 1.971,0.1218 2.741,0.3654 0.561,0.1883 1.134,0.4984 1.728,0.9304 z"
         fill="#00543d"
         id="path5"
         inkscape:label="S" />
    </g>
    <g
       id="g36"
       inkscape:label="of">
      <path
         d="m 106.715,44.1686 c 1.343,0.0333 2.047,0.0443 2.135,0.0443 0,0.1219 0.011,0.2105 0.011,0.2658 0,0.0665 0,0.1772 -0.022,0.3212 -0.132,0.0222 -0.275,0.0332 -0.407,0.0332 h -0.308 c -0.672,0 -1.134,0.0222 -1.387,0.0776 0,0.1218 -0.011,0.2215 -0.011,0.2879 0,0.0222 0,0.0665 0,0.1219 0.022,0.8528 0.044,1.3622 0.044,1.5394 v 2.0822 c -0.011,0.3101 0.033,0.5649 0.132,0.7753 0.055,0.1218 0.165,0.2104 0.33,0.288 0.099,0.0443 0.352,0.0996 0.738,0.1439 0.297,0.0443 0.495,0.0776 0.594,0.0886 0,0.1108 0,0.1994 -0.022,0.2548 h -0.11 c -0.253,0 -0.594,-0.0222 -1.013,-0.0333 l -0.594,-0.0221 -2.036,0.0664 h -0.264 V 50.249 c 0.077,-0.0111 0.132,-0.0332 0.165,-0.0443 0.462,-0.0886 0.759,-0.1883 0.891,-0.288 0.055,-0.0443 0.088,-0.1218 0.11,-0.2325 0,-0.0665 0.011,-0.3655 0.011,-0.9082 0,-1.5395 -0.011,-2.7689 -0.044,-3.6881 -0.143,-0.0443 -0.352,-0.0665 -0.649,-0.0775 -0.11,0 -0.275,0 -0.506,-0.0333 v -0.0886 c -0.011,-0.0664 0,-0.1218 0.066,-0.1661 0.022,-0.0222 0.242,-0.1329 0.682,-0.3433 0.165,-0.0776 0.286,-0.1662 0.352,-0.2769 0.033,-0.0554 0.055,-0.1883 0.066,-0.3766 0,-0.0886 0.022,-0.2326 0.044,-0.443 0.066,-0.5538 0.11,-0.8971 0.155,-1.03 0.099,-0.3655 0.264,-0.7199 0.484,-1.0854 0.231,-0.3655 0.506,-0.6756 0.825,-0.9414 0.231,-0.1994 0.507,-0.3434 0.804,-0.443 0.297,-0.0997 0.638,-0.144 1.023,-0.144 0.507,0 0.881,0.0886 1.123,0.2547 0.165,0.1108 0.242,0.2548 0.242,0.432 0,0.155 -0.055,0.2768 -0.165,0.3876 -0.11,0.1108 -0.253,0.1661 -0.418,0.1661 -0.209,0 -0.43,-0.0553 -0.661,-0.155 -0.451,-0.1772 -0.693,-0.2769 -0.759,-0.288 -0.099,-0.0221 -0.209,-0.0443 -0.319,-0.0443 -0.297,0 -0.562,0.0997 -0.815,0.288 -0.242,0.1883 -0.396,0.4208 -0.462,0.6977 -0.066,0.2769 -0.099,0.8971 -0.099,1.8607 0,0.3433 0,0.6645 0,0.9525 z"
         fill="#00543d"
         id="path4"
         inkscape:label="f" />
      <path
         d="m 96.083,47.2255 c 0,-0.3655 0.077,-0.7642 0.2311,-1.1851 0.1541,-0.4209 0.3852,-0.7974 0.6934,-1.1297 0.3082,-0.3323 0.6384,-0.5759 0.9906,-0.742 0.4842,-0.2216 1.0896,-0.3434 1.794,-0.3434 1.0019,0 1.8489,0.3434 2.5199,1.0411 0.672,0.6978 1.013,1.5284 1.013,2.503 0,0.8639 -0.352,1.6392 -1.057,2.3148 -0.704,0.6756 -1.595,1.0189 -2.6741,1.0189 -0.6713,0 -1.2987,-0.1772 -1.882,-0.5316 -0.4402,-0.2658 -0.8144,-0.6534 -1.1336,-1.174 C 96.2591,48.477 96.105,47.89 96.105,47.2255 Z m 3.566,3.1675 c 0.407,0 0.803,-0.1107 1.189,-0.3322 0.374,-0.2215 0.682,-0.576 0.913,-1.0633 0.231,-0.4873 0.341,-1.0521 0.341,-1.6945 0,-0.4209 -0.088,-0.9082 -0.264,-1.473 -0.176,-0.5538 -0.44,-0.9747 -0.803,-1.2516 -0.363,-0.2768 -0.793,-0.4208 -1.277,-0.4208 -0.3522,0 -0.7154,0.0886 -1.0896,0.2547 -0.3632,0.1661 -0.6823,0.4873 -0.9355,0.9636 -0.2531,0.4762 -0.3852,1.1518 -0.3852,2.0268 0,0.9857 0.2201,1.7277 0.6714,2.2372 0.4402,0.5095 1.0015,0.7531 1.6619,0.7531 z"
         fill="#00543d"
         id="path3"
         inkscape:label="o" />
    </g>
    <path
       d="M 27.8344,22.4166 C 61.6781,-0.0110756 93.8048,1.3955 93.8048,1.3955 V 0 H 0 V 52.9403 C 2.38832,39.4394 27.8344,22.4166 27.8344,22.4166 Z"
       fill="#00543d"
       id="path1" />
    <path
       d="m 0,105.072 v 18.939 H 27.4272 C 7.47313,117.465 0,105.072 0,105.072 Z"
       fill="#00543d"
       id="path2" />
    <path
       d="m 14.2751,44.2905 c 0.8255,0.1329 1.9261,0.5648 2.3993,0.6313 0.1541,0 0.4733,0.2325 0.4733,0.9968 0,0.6977 0.1541,2.1597 0.2201,2.8906 0.033,0.6978 -0.2201,1.0965 -0.4732,1.0965 -0.1541,0 -0.3412,-0.3655 -0.5063,-0.8639 -0.2862,-1.1629 -0.8805,-2.1597 -1.2877,-2.492 -1.739,-1.3622 -3.3459,-1.7277 -5.0408,-1.7277 -5.07382,0 -8.32061,4.4191 -8.32061,9.4362 0,2.2262 0.40722,4.0204 1.1006,5.4823 1.76098,3.821 5.426,5.3162 7.97941,5.3162 0.5943,0 2.1462,-0.0997 3.4339,-0.8971 1.3868,-0.7642 2.1792,-1.8274 2.9276,-3.2229 0.4072,-0.6978 0.5393,-0.8639 0.6604,-0.8639 0.3192,0 0.3412,0.731 0.2861,1.0965 -0.099,0.8306 -0.8254,2.5916 -1.2657,3.3558 -0.121,0.299 -0.6603,0.6977 -0.9795,0.8639 -0.5063,0.2326 -3.0597,0.9303 -5.7342,0.9303 -4.44643,0 -7.69322,-2.3258 -8.95892,-3.8875 C 0.803668,61.9557 0.385437,61.3909 0.0112305,60.7153 V 49.3851 C 0.660589,48.2222 1.42001,47.3362 2.01434,46.8157 c 2.70749,-2.3259 5.64612,-3.0568 8.55176,-3.0568 1.1006,0 2.5204,0.2325 3.72,0.5316 z"
       fill="#00543d"
       id="path31" />
    <path
       d="m 48.4816,45.8631 c 0.3743,0 0.5283,-0.0775 0.5283,-0.3876 0,-0.4319 -0.4622,-0.9303 -1.0125,-0.9303 -0.6934,0 -1.2767,0.4319 -1.5519,1.1518 -0.033,0.0775 0.033,0.1661 0.0661,0.1661 0.3962,0.0111 1.2216,0.0111 1.9921,0 z"
       fill="#00543d"
       id="path32" />
    <path
       d="M 53.8307,17.2554 C 36.5732,27.8989 25.0718,41.721 19.3817,54.7345 c 0.3742,-0.5427 0.8034,-0.9967 1.2657,-1.3955 1.0896,-0.9524 2.8506,-1.9492 5.2169,-1.9492 3.4889,0 7.0439,2.7688 7.0439,7.2322 0,2.946 -1.761,5.2497 -3.0597,6.1025 -1.4088,1.03 -2.7846,1.4177 -4.3694,1.4177 -1.5849,0 -3.3789,-0.7421 -4.6886,-1.8385 -1.5189,-1.2405 -2.6085,-3.6549 -2.6085,-5.427 0,-0.5648 0.0551,-1.0743 0.1541,-1.5616 -1.5518,4.0647 -2.5314,8.0186 -2.9276,11.751 -1.728,16.3362 -0.9135,33.6469 11.8756,45.5529 12.789,11.906 32.9522,5.881 32.9522,5.881 22.6285,-6.224 33.5685,-25.8941 33.5685,-25.8941 V 6.35726 C 72.9593,4.69596 53.8417,17.2665 53.8417,17.2665 Z M 80.8066,44.667 c 0.3522,-0.3212 0.8805,-0.4652 1.3758,-0.4652 0.9465,0 1.5518,1.0965 1.5518,1.7389 0,0.9525 -0.9905,1.7388 -1.6949,1.7388 -0.2421,0 -0.8145,-0.144 -1.1226,-0.4208 -0.2862,-0.3212 -0.5283,-0.7089 -0.5283,-1.3069 0,-0.3212 0.1431,-0.8861 0.4182,-1.2737 z m -11.2702,8.3287 c 1.3758,-0.9968 3.665,-1.4841 4.6115,-1.4841 1.0566,0 2.6085,0.288 3.2799,0.8196 0.3521,0.2436 0.5283,0.8528 0.5283,1.0632 0,0.5649 -1.0236,1.4177 -1.1667,1.4177 -0.2091,0 -0.8145,-0.288 -1.3758,-0.6756 -1.1666,-0.8528 -1.7609,-1.3845 -2.9606,-1.3845 -0.5613,0 -1.6179,0.4984 -2.1792,1.2073 -0.9465,1.0632 -1.4748,2.5141 -1.4748,4.0757 0,2.06 0.7704,3.3337 0.9135,3.5441 0.8805,1.4841 2.6084,2.3702 4.4354,2.3702 1.2988,0 2.2233,-0.4209 3.1368,-1.0633 0.3852,-0.2879 0.6714,-0.1772 0.6714,0 0,0.3877 -0.1761,0.7421 -0.4623,1.03 -1.2327,1.3844 -3.2358,2.204 -5.0738,2.204 -2.2232,0 -4.0833,-1.174 -5.2169,-2.8353 -0.5943,-0.9968 -1.0896,-2.6581 -1.0896,-4.1422 0,-2.5916 1.3758,-4.7513 3.4119,-6.1357 z M 46.9739,44.4234 c 0.3963,-0.1883 0.9135,-0.2769 1.1667,-0.2769 0.5393,0 1.1446,0.1993 1.5298,0.587 0.3412,0.3211 0.5393,0.7642 0.5393,1.3069 0,0.0886 -0.1211,0.2658 -0.2971,0.2658 -0.1761,0 -2.8066,0 -3.511,-0.0111 -0.044,0 -0.11,0.0775 -0.1211,0.1218 -0.044,0.1219 -0.077,0.3877 -0.077,0.5427 0,0.6092 0.2421,1.318 0.5833,1.7721 0.3412,0.4651 0.9906,0.8528 1.728,0.8528 0.6824,0 1.1446,-0.1661 1.3978,-0.5538 0.066,-0.0886 0.143,-0.1883 0.1981,-0.1883 0.088,0 0.121,0.1108 0.121,0.1883 0,0.1218 -0.066,0.2991 -0.11,0.3766 -0.5393,0.7863 -1.3538,1.1629 -2.2343,1.1629 -1.6619,0 -2.7735,-1.2737 -2.7735,-3.09 0,-1.2405 0.6494,-2.4809 1.849,-3.0458 z m -15.0123,6.0803 c -0.3081,0 -0.4622,-0.0664 -0.4622,-0.155 0,-0.1218 0.1431,-0.2437 0.2971,-0.2769 1.0676,-0.2437 1.1117,-0.5316 1.1557,-1.6945 0.033,-0.9193 0.11,-4.0758 0.11,-5.2719 v -1.8496 c 0,-0.1218 -0.077,-0.1994 -0.121,-0.1994 -0.3082,-0.0443 -1.6069,-0.0664 -1.849,-0.0664 -0.5834,0 -0.9135,0.1107 -1.1447,0.3544 -0.066,0.0443 -0.2421,0.2437 -0.5063,0.7642 -0.143,0.3212 -0.2311,0.3544 -0.2971,0.3544 -0.0881,0 -0.1541,-0.1883 -0.1541,-0.3433 0,-0.2991 0.2972,-1.1297 0.2972,-2.049 0,-0.1107 0.143,-0.2436 0.2311,-0.2436 0.077,0 0.066,0.0664 0.2201,0.1993 0.044,0.0443 0.3192,0.3212 0.5503,0.3434 0.3962,0.0443 1.5739,0.0664 3.544,0.0664 0.8034,0 2.9606,0.0332 3.5659,-0.0332 0.0331,0 0.7374,-0.0332 0.9576,-0.0775 0.2751,-0.0776 0.3412,-0.0776 0.4732,-0.1994 0.2202,-0.1661 0.4733,-0.3544 0.6164,-0.3544 0.11,0 0.1431,0.1218 0.1431,0.1661 -0.0441,0.5538 -0.1871,1.0411 -0.2202,2.0822 -0.044,1.3955 -0.044,2.6249 -0.044,2.9128 0,0.0665 0.044,0.144 0.1101,0.0886 0.6273,-0.5759 1.2767,-0.8971 1.948,-0.8971 0.7705,0 1.3098,0.2658 1.6289,0.7088 0.2972,0.4209 0.4293,1.0079 0.4293,1.6724 0.011,0.9747 0.066,1.9382 0.066,2.8686 0,0.3876 0.1981,0.5094 0.6164,0.6091 0.3081,0.0664 0.4292,0.155 0.4292,0.2437 0,0.1439 -0.1211,0.1993 -0.4182,0.1993 -0.5393,0 -0.7044,-0.0443 -1.2217,-0.0443 -0.3522,0 -0.6604,0.0332 -1.1226,0.0332 -0.2202,0 -0.2972,-0.0775 -0.2972,-0.1882 0,-0.0887 0.1211,-0.1662 0.3082,-0.2216 0.3852,-0.1218 0.4512,-0.1661 0.5063,-0.7642 0.033,-0.299 0,-2.0046 0,-2.2483 0,-0.8528 -0.0771,-1.3512 -0.2642,-1.5505 -0.2421,-0.299 -0.6273,-0.5095 -1.2327,-0.5095 -0.6823,0 -1.1666,0.2991 -1.2327,0.3544 -0.033,0.0333 -0.2311,0.2769 -0.2641,0.7642 -0.033,0.6535 -0.033,2.6692 -0.011,3.223 0.033,0.5094 0.2421,0.6091 0.6053,0.6977 0.2201,0.0665 0.3192,0.1662 0.3192,0.2437 0,0.144 -0.1541,0.1883 -0.3742,0.1883 -0.1211,0 -0.9135,-0.0333 -1.2657,-0.0333 -0.3522,0 -0.9135,0.0443 -1.1887,0.0443 -0.143,0 -0.3522,-0.0443 -0.3522,-0.1993 0,-0.0775 0.1211,-0.1662 0.4513,-0.2658 0.4182,-0.144 0.5723,-0.3101 0.6163,-0.8861 0.0441,-0.6534 0.1431,-1.7166 0.1431,-5.5044 0,-1.2515 0.011,-1.7167 0,-2.049 0,-0.3101 -0.2311,-0.4651 -0.2971,-0.4651 -0.2642,-0.0443 -3.1148,-0.0776 -3.5,-0.0111 -0.066,0.0111 -0.121,0.1661 -0.121,0.1993 0,0.731 -0.0111,2.4477 -0.0111,3.7989 0,1.7942 0.0111,3.2783 0.0771,3.8432 0.066,0.6977 0.1431,0.886 1.0896,1.0964 0.1981,0.0443 0.4182,0.1662 0.4182,0.2769 0,0.1661 -0.2751,0.1883 -0.4292,0.1883 -0.1211,0 -1.0786,-0.0775 -1.739,-0.0775 -0.7814,0 -1.5518,0.1107 -1.772,0.1107 z m 3.3679,3.8764 c -0.033,-0.9968 -0.7044,-1.1297 -1.2987,-1.3844 -0.3192,-0.144 -0.6384,-0.3212 -0.6384,-0.6424 0,-0.1107 0.1761,-0.3212 0.5944,-0.3212 0.9905,0 3.5879,-0.3876 3.731,-0.3876 0.1431,0 0.2862,0.3212 0.2862,0.5316 0.033,1.2072 -0.1101,7.9078 -0.1101,9.5027 0,0.8196 0.3852,1.6281 0.8805,1.9825 0.9135,0.7088 1.5519,0.7088 2.3993,0.7088 0.8475,0 1.794,-0.4651 2.6745,-1.2404 0.2091,-0.1772 0.5283,-0.7088 0.5283,-0.8528 l 0.066,-8.1515 c 0,-0.2104 -0.3852,-0.7088 -0.5943,-0.7753 -0.5283,-0.144 -1.2987,-0.3544 -1.6179,-0.4209 -0.2421,-0.0664 -0.7044,-0.2879 -0.7044,-0.5648 0,-0.144 0.4623,-0.3212 0.8145,-0.3212 1.4088,0 2.9606,-0.1772 3.7641,-0.3876 0.3521,-0.1108 0.5943,-0.144 0.8474,-0.144 0.1761,0 0.2422,0.3876 0.2422,0.5316 -0.0661,0.9968 -0.3522,8.8603 -0.3522,11.7621 0,0.0664 0.143,0.4984 0.4182,0.4984 0.2421,0 1.3427,-0.1772 1.761,-0.1772 0.143,0 0.3852,0.5648 0.4182,0.6756 0,0.0553 -0.066,0.1439 -0.1541,0.2215 0.1321,-0.0776 0.2972,-0.144 0.4623,-0.1883 1.1666,-0.3544 1.3757,-0.7088 1.4748,-1.9825 0.11,-1.0632 0.1761,-4.1422 0.1761,-7.7638 0,-0.3877 -0.0661,-0.7421 -0.8475,-1.3845 -0.4622,-0.3212 -0.6714,-0.4984 -0.6714,-0.598 0,-0.2437 0.3853,-0.5981 0.6384,-0.7089 0.5943,-0.2104 1.871,-0.6756 2.3553,-1.03 0.3522,-0.2104 0.6714,-0.3876 0.8475,-0.3876 0.1761,0 0.3522,0.3876 0.3522,0.5316 0,0.5981 -0.1431,1.4509 -0.1431,1.7721 0,0.1772 0.1761,0.1107 0.2091,0.1107 1.4088,-0.9525 3.2358,-1.9493 4.7216,-1.9493 1.728,0 2.7075,0.7753 3.2028,1.3512 0.7704,0.9193 1.2326,2.5474 1.2326,4.3194 0,0.6756 0.0661,5.9586 0.1101,6.4459 0.066,0.5316 0.4182,0.9968 1.2987,1.2405 0.6714,0.1772 0.8805,0.3544 0.8805,0.598 0,0.2437 -0.4953,0.3877 -1.0566,0.3877 -0.8144,0 -1.6179,-0.0665 -2.6084,-0.0665 -0.8805,0 -1.9701,0.0665 -2.4324,0.0665 -0.3191,0 -0.8144,-0.144 -0.8144,-0.4209 0,-0.2437 0.3852,-0.4652 0.8144,-0.5981 0.8475,-0.3212 1.0236,-0.598 1.0896,-1.772 0.0661,-1.174 0.1101,-5.4602 0.1101,-6.4902 0,-1.2737 -0.6383,-2.3037 -1.0566,-2.6249 -0.3852,-0.2879 -1.4418,-0.6756 -2.2562,-0.6756 -1.5519,0 -2.4654,0.5317 -3.1368,1.1297 -0.11,0.1108 -0.3522,0.5316 -0.3522,0.8528 0,0.4652 1e-4,8.0851 0.0331,8.5059 0.033,0.4984 0.1761,0.7753 1.2987,1.0965 0.3522,0.1107 0.6383,0.3212 0.6383,0.5316 0,0.2547 -0.3852,0.4319 -0.8804,0.4319 -0.4183,0 -1.4088,-0.0332 -2.1462,-0.0332 -1.2988,0 -2.3223,0.1108 -2.9276,0.1108 -0.5283,0 -0.9136,-0.144 -0.9136,-0.4652 0,-0.0997 0.0661,-0.1772 0.1431,-0.2547 -0.044,0.0221 -0.077,0.0332 -0.11,0.0332 -0.9135,0.0664 -2.3994,0.4652 -3.2028,0.6756 -0.5943,0.1772 -1.1667,0.3212 -1.2327,0.3212 -0.1431,0 -0.3522,-0.2437 -0.3522,-0.4984 0,-0.2104 0.1101,-0.886 0.1431,-1.4841 0,-0.1772 -0.1101,-0.288 -0.1761,-0.2437 -1.0236,0.7089 -2.4323,1.6281 -2.8836,1.8053 -0.5943,0.2437 -1.3758,0.4209 -2.3553,0.4209 -1.2657,0 -2.3993,-0.5649 -3.1037,-1.6613 -0.2421,-0.3877 -0.4953,-1.0965 -0.4953,-1.6613 0,-2.5474 0,-6.5567 -0.066,-8.4395 z m 34.2729,60.9369 c -15.1333,8.395 -29.6283,4.341 -29.6283,4.341 -6.6037,-7.93 -3.9402,-18.551 -3.1148,-21.7848 0.8255,-3.234 9.2452,-20.9325 28.4067,-18.3409 19.1616,2.5917 22.9477,19.825 22.9477,19.825 0,0 -3.4889,7.5647 -18.6223,15.9707 z M 92.2419,65.8321 c -0.8474,0 -2.3553,-0.1108 -2.9936,-0.1108 -0.8145,0 -2.3553,0.1108 -3.1037,0.1108 -0.3192,0 -0.5393,-0.0222 -0.6934,-0.0776 -0.1431,0.0443 -0.3082,0.0776 -0.4733,0.0776 -0.2421,0 -2.0031,-0.1108 -2.7515,-0.1108 -1.1666,0 -2.3993,0.144 -2.9937,0.144 -0.5613,0 -0.9134,-0.144 -0.9134,-0.3876 0,-0.2105 0.2421,-0.3877 0.8474,-0.5649 0.8145,-0.2104 1.3428,-0.6424 1.4088,-0.9968 0.1101,-0.4984 0.1431,-2.6248 0.1431,-3.6548 0,-0.0665 0.033,-5.1058 -0.033,-5.5267 -0.0331,-0.2436 -0.4183,-0.5316 -1.4418,-1.2736 -0.2092,-0.144 -0.2862,-0.2437 -0.2862,-0.3877 0,-0.2436 0.3192,-0.5316 0.7044,-0.598 1.2987,-0.288 2.9606,-1.0633 3.4889,-1.2073 0.1431,0 0.3192,0.3545 0.3192,0.3877 0,0.3876 -0.2091,4.995 -0.2091,7.0218 0,2.0268 0.033,3.4776 0.066,4.7181 0.033,1.1297 0.8145,1.2072 1.6949,1.4841 0.2202,0.0664 0.3632,0.1329 0.4843,0.2104 0.1321,-0.0554 0.2752,-0.1107 0.4293,-0.1329 1.6178,-0.3544 1.6949,-0.9968 1.7939,-2.7688 0.0661,-1.3512 0.2422,-5.1722 0.2422,-10.7764 0,-2.6248 -0.1101,-6.3462 -0.1101,-7.4094 0,-0.288 -0.033,-0.4984 -0.8475,-0.9968 -0.5943,-0.4209 -0.7043,-0.5316 -0.7043,-0.6756 0,-0.144 0.11,-0.3876 0.4952,-0.4984 1.6179,-0.5648 2.6745,-0.7753 3.632,-1.3844 0.1101,-0.0665 0.3192,0.2104 0.3192,0.3544 -0.1101,0.886 -0.3192,4.8953 -0.3192,9.6356 0,5.1722 -0.066,11.9392 0.1101,12.9028 0.1431,0.7088 0.2862,1.1297 1.794,1.5616 0.5283,0.144 0.8144,0.3212 0.8144,0.5317 0,0.2436 -0.4952,0.3876 -0.9135,0.3876 z"
       fill="#00543d"
       id="path33" />
    <path
       d="m 26.1835,65.1122 c 0.3853,0 1.1667,-0.1772 2.1462,-1.174 0.8805,-0.9525 1.5849,-3.1565 1.5849,-4.6738 0,-1.8386 -0.4182,-3.8653 -1.761,-5.427 -0.7704,-0.8528 -2.0471,-1.3844 -2.9606,-1.3844 -0.7374,0 -1.5519,0.3876 -2.2893,1.03 -0.9135,0.8528 -1.7279,2.6913 -1.7279,4.5409 0,1.174 0.1431,2.2705 0.4182,3.1565 0.8805,2.6581 2.8836,3.9318 4.5785,3.9318 z"
       fill="#00543d"
       id="path34" />
    <path
       d="m 49.3071,65.0236 c 0,0 -0.088,0.0553 -0.1211,0.0886 0.0441,-0.0222 0.0881,-0.0554 0.1211,-0.0886 z"
       fill="#ffffff"
       id="path35"
       inkscape:label="path35" />
    <g
       id="g35"
       inkscape:label="The Council" />
  </g>
  <defs
     id="defs35" />
</svg>
