<svg xmlns="http://www.w3.org/2000/svg" xml:space="preserve" viewBox="0 0 132.29166 79.375002">
  <path d="M70.4721658 75.88045297c-.328704 0-.424041-.06021-.540508-.341395-.07777-.187751-.629065-.814416-1.22509-1.392558-.596028-.578147-1.82786-1.577026-2.737406-2.219721-.909548-.642706-2.211853-1.570302-2.894013-2.061339-.708799-.510196-1.954848-1.601941-2.907775-2.547699-1.427764-1.417021-1.779431-1.843008-2.4462-2.963241-.428295-.719568-1.020631-1.809263-1.316301-2.421521-.29668-.614355-.704735-1.748408-.910587-2.530677-.338984-1.288195-.377423-1.616798-.421445-3.602752-.03721-1.678559-.0056-2.388862.136074-3.063224.101482-.482867.163387-.899063.137563-.924889-.02582-.02577-.177881.03889-.337906.14369-.167414.109699-.476228.595955-.727296 1.145202-.239989.525018-.533294 1.333824-.65179 1.797369-.118497.463528-.274073 1.321183-.345727 1.905891-.07166.584713-.130429 1.415394-.130611 1.845972-.000225.529923-.05425.82762-.167196.921352-.128568.106705-.259564.09976-.570783-.03021-.222154-.0928-.516985-.312501-.655178-.488193-.138193-.175675-.358421-.605838-.489396-.955899-.130975-.35006-.345764-1.164619-.477311-1.810123-.154228-.756811-.239175-1.63354-.239175-2.468507 0-.712173.07812-1.740348.173581-2.284844.09547-.544496.30809-1.437885.472492-1.985321.1644-.547433.298911-1.010672.298911-1.029421 0-.01874-.107236-.09148-.238304-.161625-.179442-.09603-.296576-.08671-.474231.03772-.129761.09088-.509777.505208-.844479.920712-.334703.415503-.873067 1.313591-1.196366 1.995755-.323297.682159-.695797 1.359887-.827775 1.506066-.13198.146173-.36236.265771-.511956.265771-.165066 0-.354041-.125217-.480696-.318518-.173841-.265312-.205227-.556352-.187897-1.742314.01145-.783085.08027-1.79588.152954-2.250655.07268-.454773.312401-1.366926.532711-2.027007.22031-.66008.59035-1.57701.822311-2.037622.23196-.46061.378989-.837476.326732-.837476-.05225 0-.31511.225911-.584115.502022-.269007.276113-.777061.962522-1.129013 1.525354-.411356.657828-.791733 1.480531-1.064978 2.303398-.233787.704038-.558708 1.952052-.722048 2.773361-.163338.821309-.434822 2.307767-.603294 3.303259-.168474.995471-.363025 1.878284-.432337 1.961797-.0693.08349-.194518.151842-.27824.151842-.08372 0-.285704-.158628-.448852-.352522-.163146-.19389-.415275-.659003-.560285-1.033577-.213978-.552727-.263026-.914747-.260317-1.921342.0019-.682164.06126-2.303397.132044-3.602749.09443-1.733157.207513-2.703553.42455-3.642949.162713-.704271.429454-1.572334.592754-1.92903.163301-.356697.562171-1.087691.886375-1.624431.324208-.536737.875239-1.296158 1.224517-1.687601.349277-.391443.788106-.91809.975174-1.170325.187067-.252236.734983-.899075 1.217591-1.437418.482608-.538345 1.374158-1.3505 1.981223-1.804791.607065-.454289 1.103756-.849708 1.103756-.878705 0-.029-.142708.0016-.31713.06784-.17442.06632-.719262.329865-1.21076.585667-.491497.255804-1.134657.66534-1.429241.910082-.294584.244742-.976161.937295-1.514614 1.539009-.538455.601713-1.135106 1.174746-1.325896 1.273407-.255847.132303-.407025.147201-.576011.05677-.126017-.06745-.311581-.240348-.412364-.384236-.100784-.143889-.182612-.449121-.181841-.678295.000774-.229173.07445-.691029.16373-1.026349.08928-.335318.303637-.918332.476351-1.295586.172712-.377253.535237-.979965.80561-1.339359.270373-.359393.875079-1.105368 1.343791-1.657719.468713-.552352 1.601232-1.642035 2.516708-2.421523.915476-.779483 2.447823-1.934989 3.405216-2.567788.957394-.632798 2.126115-1.323819 2.597161-1.535599.471044-.211781.856502-.426237.856573-.476571.00007-.05034-.146048-.150354-.324709-.222265-.197827-.07962-1.225474-.131844-2.628238-.133549-1.999259-.0024-2.427268.03094-3.241529.252762-.515971.14056-1.322374.445421-1.792003.67747-.469631.23205-.977692.404369-1.129023.382932-.185934-.02633-.288117-.130714-.315144-.321913-.03212-.22722.223754-.544198 1.299353-1.609642 1.253701-1.241867 1.426214-1.368481 2.697763-1.979999.747129-.359312 1.878896-.818186 2.515038-1.019719.636142-.201533 1.539784-.422226 2.008091-.490428.471824-.06872 1.312308-.08896 1.885044-.04539.751082.05712 1.033577.04111 1.033577-.05855 0-.07543-.305643-.272467-.679208-.437839-.373563-.165372-1.145231-.456934-1.714818-.647914-.569587-.190982-1.446649-.406988-1.94903-.480014-.827585-.120301-1.052166-.104433-2.389956.168861-.812095.165901-1.576174.342319-1.697952.392039-.212787.08688-.213488.0783-.01799-.220067.111885-.17076.493427-.447662.847874-.615343.354446-.167679 1.053561-.417752 1.553588-.555718.707926-.19533 1.262073-.252725 2.5038-.25933 1.584455.05279 1.59466.06299 2.744371.544168.632341.303957 1.456741.788904 1.831998 1.077659.375259.288755 1.039557.903731 1.476218 1.366614.436662.462884.827845.976742.869299 1.141908.05197.207033.0076.375135-.142685.54125-.145044.160271-.317824.223585-.516022.189089-.163883-.02852-.776366-.203249-1.361074-.388283-1.005927-.318329-1.17747-.336342-3.189322-.334917-2.011901.0014-2.180195.01936-3.13026.333635-.552224.182674-1.299581.481017-1.660789.662985-.361209.181969-.726516.414922-.811794.517675-.08528.102754-.108675.184929-.05199.182615.05668-.0024.421989-.08121.811793-.175339.42485-.102584 1.300174-.171049 2.185276-.170926.831323.000117 1.825976.07425 2.276208.169659.439819.0932 1.120936.340688 1.513597.549974.392659.209285.819213.514369.947896.677964.128684.163595.218318.402661.199188.531256-.0245.164714-.837694.716584-2.751613 1.867379-1.494257.898462-3.115494 1.908015-3.602752 2.243451-.487257.335437-1.347508.979213-1.911667 1.430613-.56416.451401-1.388068 1.247045-1.830908 1.768099-.442838.521053-.951339 1.135889-1.129999 1.366302-.17866.230413-.324838.463983-.324838.519046 0 .05506.146178.02168.324838-.07417.17866-.09586.722722-.494284 1.209026-.885392.486303-.391108 1.2039-.872068 1.59466-1.068799.390761-.19673 1.135717-.467649 1.655458-.602042.59094-.152803 1.36541-.250415 2.067152-.260536.885682-.01277 1.288852.04025 1.913109.251612.435018.147289.926704.37459 1.092638.505114.165934.130524.301698.336149.301698.456945 0 .120796-.146178.320631-.324839.444079-.17866.123448-1.058486.605709-1.955168 1.071693-.896682.465984-2.039522 1.121113-2.539645 1.455841-.500123.334726-1.499164 1.076958-2.220091 1.649403-.720926.572445-1.810613 1.563224-2.421523 2.201731-.610909.638507-1.469865 1.663447-1.908789 2.277642-.438926.614197-.965003 1.449989-1.16906 1.857317-.204058.407327-.343929.767681-.310823.800787.0331.0331.363809-.310918.734896-.764496.371087-.45358 1.242165-1.340765 1.93573-1.971525.693562-.630759 1.579956-1.354486 1.969763-1.608281.389806-.253795 1.080825-.637467 1.535599-.852606.454773-.215137.994108-.427176 1.198524-.471198.233957-.05039.529281-.01418.797065.0977.233973.09776.486498.311831.561167.475713.108368.237842.09611.399968-.06072.803468-.10807.278025-.596962.983898-1.086426 1.568607-.489465.58471-1.189025 1.514928-1.554582 2.067153-.365557.552224-.854569 1.358241-1.086695 1.791146-.234369.437089-.376652.831045-.319963.885922.05614.05436.268766-.113617.472492-.373268.203725-.25965.769073-.890589 1.256332-1.402087.487257-.511499 1.253057-1.18941 1.701777-1.50647.634541-.448358.916745-.576473 1.269824-.576473.399789 0 .453966.03366.453966.282046 0 .155124-.157001.620234-.34889 1.033575-.228666.49256-.434593 1.260331-.597601 2.228069-.136793.812096-.299267 1.703867-.361056 1.981714-.06179.27785-.165539 1.018186-.230556 1.645183-.06502.627002-.08747 1.236879-.0499 1.355265.03758.118385.107214.215247.154751.215247.04754 0 .156042-.199331.241119-.442955.08508-.243629.397756-.894086.694844-1.44546.297086-.551369.781326-1.260319 1.076086-1.575441.294761-.315125.68114-.648043.85862-.739822.17748-.09178.529713-.16687.78274-.16687.308042 0 .529789.07706.671108.233215.148865.164494.209143.416844.204563.856392-.0036.342744-.201595 1.367351-.440054 2.276898-.43117 1.644601-.43322 1.663821-.37165 3.48463.04962 1.467267.122333 2.050127.366124 2.934664.167317.607074.444483 1.457555.615924 1.889976.171442.43241.554171 1.209092.850511 1.725939.29634.516854.922181 1.454885 1.390757 2.084505.468578.629605 1.148852 1.441644 1.511721 1.804516.362869.362872 1.263818 1.086616 2.002107 1.608329.73829.521711 2.019215 1.532607 2.846497 2.246437.827284.71382 1.555485 1.297868 1.618224 1.297868.06274 0 .08652-.093.05285-.206712-.03366-.113696-.171748-.658538-.306841-1.21076-.135096-.55222-.358146-1.31326-.495669-1.691195-.22926-.630034-.234325-.702862-.06095-.876244.173377-.173372.230482-.160441.687021.155597.27386.189577.763965.663615 1.089124 1.053427.325158.389808.762884 1.080823.972724 1.535599.209839.454776.492037 1.165105.627106 1.578496.13507.413406.326221 1.17675.424781 1.696309.09856.519558.179198 1.417187.179198 1.994707 0 1.050065 0 1.050065-.399099 1.050065zm-.132453-15.643411c-.454773.0253-.962854.001-1.129066-.05323-.166214-.0546-.431991-.16748-.590615-.250796-.158626-.08331-.494868-.31337-.747205-.511224-.252337-.197861-.556814-.575548-.676612-.839301-.119802-.263764-.218986-.607461-.220413-.763771-.0024-.255181.05767-.221372.587317.331045.34334.358101.8741.748079 1.269823.933007.540651.252656.850685.316974 1.513688.314015.658367-.0026.969001-.06992 1.476537-.318378.353518-.173063.948402-.587193 1.321969-.920288.498851-.44482.679205-.550305.679205-.397244 0 .114627-.111079.437875-.246851.718338-.135768.28046-.441412.670406-.679205.866546-.237799.196141-.724713.466556-1.082034.600903-.357322.134353-1.021764.265014-1.476538.290364zm4.193366-2.809741c-.471069.06992-.876998.0441-1.476538-.09377-.454771-.104618-1.269857-.382324-1.811297-.617122-.984438-.426907-.984438-.426907-2.065924.125459-1.070987.546996-1.092393.552274-2.204883.542875-.617868-.0047-1.442329-.07777-1.832136-.161299-.389806-.08349-.998404-.259766-1.35244-.391718-.373559-.139221-.886373-.466895-1.221943-.78078-.318032-.297479-.672956-.728222-.788721-.957211-.115765-.228984-.300001-.813093-.409416-1.298027-.109413-.484918-.24459-1.407319-.300393-2.049756-.085486-.984085-.154123-1.248194-.435796-1.676716-.183884-.279766-.609741-.888711-.94635-1.35323-.336608-.464517-.770978-1.226829-.965266-1.694023-.194288-.467194-.443735-1.296734-.554326-1.843419-.126212-.623909-.177342-1.255687-.137333-1.696915.03506-.386617.121378-.760579.191825-.831026.09203-.09203.164253-.09193.256575.000404.07067.07067.207333.705876.303699 1.41157.136348.998501.255447 1.427175.536977 1.932757.198973.357322.527418.861081.729878 1.119466.20246.258384.641035.776473.974612 1.151312.333578.374838.701481.881031.817563 1.124873.160437.337007.215262.769175.228576 1.80176.0147 1.140844.06884 1.507243.337913 2.287611.176218.511049.47962 1.160608.674228 1.443457.194606.282849.528778.647715.742603.81081.213825.163096.60837.374016.876764.468714.268396.09475.906114.233296 1.417148.30803.702912.102769 1.056693.10248 1.452927-.001.288075-.07535.807604-.305984 1.15451-.512432.346908-.206453.684245-.474451.749638-.595553.09768-.180906.0273-.31432-.394494-.747742-.282365-.290152-.657373-.603252-.83335-.695776-.175978-.09252-.734109-.223877-1.240291-.291908-.506184-.06798-1.016399-.152081-1.133816-.186783-.117415-.0347-.263599-.194912-.324855-.356024-.07201-.189412-.06861-.372818.0096-.518971.07079-.132282.39643-.306108.785119-.419102.379191-.110242.879657-.168787 1.16643-.136465.276255.03114.984404.204511 1.573665.385274 1.071382.328643 1.071382.328643 2.167714-.06478.789392-.283289 1.365029-.407865 2.05607-.444959.561553-.03016 1.133475.0059 1.378493.0867.230321.07602.48056.212665.556094.303677.07553.09106.104593.268617.06458.394686-.04003.126065-.217158.284834-.39366.352834-.176502.06798-.545446.157874-.819884.19975-.274437.04188-.805992.272981-1.181232.513568-.375239.240597-.934739.583908-1.243336.762909-.497426.28855-.561084.371547-.561084.731527 0 .358704.05855.435984.502022.662721.276114.141155.7678.327648 1.092636.41442.324837.0868.803239.157286 1.063109.156687.25987-.000476.836558-.129571 1.281538-.286594.444975-.157018 1.102775-.461541 1.461768-.676721.461798-.276772.820197-.628473 1.225249-1.202322.314882-.446116.684482-1.110381.821335-1.47614.136852-.365763.375978-1.289377.5314-2.052498.155417-.763105.363538-1.544026.462491-1.735382.09895-.191355.698518-.955988 1.332368-1.699185.633849-.743197 1.323268-1.690001 1.53204-2.10401.208767-.414009.487403-1.008636.619188-1.321391.131782-.312756.293194-.53553.358684-.495052.06551.04047.119083.300009.119083.576738 0 .276728-.0856.791856-.190218 1.144727-.104617.352873-.297706.85261-.429079 1.110525-.131384.257916-.672543.922359-1.202586 1.476538-.530035.554179-1.082242 1.176842-1.227124 1.383694-.144877.206852-.344684.605514-.444025.885926-.09933.280402-.284848 1.20084-.412244 2.045423-.127397.844583-.30864 1.801376-.402759 2.126214-.09412.324834-.325055.832836-.513181 1.128885-.195779.308076-.62221.724225-.997186.973121-.360331.239172-1.072316.567414-1.582202.72942-.509887.162016-1.21942.337955-1.576746.39099zm-9.473879-11.691756c-.107029.0206-.223572-.06243-.2633-.187595-.0392-.123517-.01822-.591648.04663-1.040293.06485-.448646.118959-.855586.120246-.904313.0013-.04872-.09147-.08859-.206124-.08859-.114656 0-.411086-.108599-.658736-.241331-.249166-.133546-.549176-.20994-.671719-.171046-.166144.05274-.29897-.04686-.531857-.398776-.170726-.257983-.61184-.732739-.980254-1.055013-.368415-.322274-.765871-.751824-.883237-.954555-.182507-.315248-.187375-.3686-.03364-.3686.09886 0 .36154.159611.583724.354691.222185.195082.711714.495581 1.087843.667778.544964.249493.874228.315409 1.621032.324517.81573.0099.956534-.01919 1.086679-.224818.10476-.165528.117639-.350997.04303-.619591-.106492-.383346-.106492-.383346-.709207-.0682-.562586.294168-.638952.30546-1.146942.169593-.299322-.08005-.642856-.234819-.763405-.343915-.12055-.109096-.266736-.287212-.324858-.395813-.06795-.126959-.04295-.375226.07001-.69538.09663-.273858.175679-.517819.175679-.542135 0-.02432-.146178-.04305-.324839-.04161-.178662.0014-.560714.1096-.849007.240386-.288293.130785-.601898.207964-.696902.171507-.13865-.0532-.1168-.126947.110738-.373733.155909-.169096.45452-.38033.663577-.469409.240319-.102398.831203-.16196 1.606724-.16196 1.080216 0 1.274181.03205 1.625139.268564.227829.153535.533606.538908.713902.899739.173459.347144.374072 1.025792.445808 1.508105.07173.482314.130427 1.213015.130427 1.623784 0 .410769-.05406 1.033172-.120115 1.38312-.06606.349948-.267467.875139-.447563 1.16709-.180096.291952-.413858.547464-.519468.567802zm-1.039068-5.64636c.03605 0 .187068-.0851.335581-.189132.25335-.177453.257911-.202518.07387-.405873-.107881-.119207-.345935-.268958-.529007-.332776-.183072-.06382-.363955-.08494-.401962-.04694-.03801.03801-.06911.190117-.06911.338024 0 .147908.118139.35167.262529.452806.144391.101136.29203.183883.328086.183883zm12.358486 5.315536c-.247471 0-.361772-.110137-.597913-.576139-.160571-.316876-.353871-.822059-.429555-1.12263-.107123-.425413-.104995-.625235.0096-.901902.08096-.195475.260082-.380904.398034-.412063.137952-.03116.616302-.112301 1.062984-.180317.446689-.06802.978245-.205079 1.181233-.304581.202982-.0995.591313-.428878.862935-.731943.271629-.303065.532005-.512893.57861-.466286.04663.0466-.0959.444511-.316684.884232-.320155.637632-.520994.876603-.992038 1.180376-.324839.209485-.73085.545868-.90225.747516-.277582.326581-.338296.349982-.555705.214205-.13425-.08384-.281616-.114905-.327478-.06903-.04586.04587-.01493.389363.06875.763328s.177633.746379.208787.827588c.0363.0947-.0531.147655-.249319.147655zm-2.062836-2.834953c-.05373 0-.133135-.03544-.176445-.07874-.04333-.04331-.07826-.295799-.07764-.561085.001-.313555.119841-.689321.340413-1.07385.186613-.325334.556006-.814821.820875-1.087752.264869-.272929.709683-.618033.988474-.766898.435927-.232768.680551-.270664 1.747188-.270664.963376 0 1.32565.04664 1.622597.208923.210269.114908.569071.372904.797332.573321.228266.200418.414213.451912.413216.558876-.001.106964-.04581.263896-.09965.348739-.07585.119608-.228029.07347-.677393-.205387-.31876-.197807-.83205-.39405-1.140647-.436094-.561088-.07645-.561088-.07645-.561088.405516 0 .334449-.08426.579916-.27529.802009-.220882.25679-.403038.330639-.921605.373643-.622838.05165-.660045.03796-1.024311-.376918-.377997-.430516-.377997-.430516-.702587.119026-.178522.302248-.471095.756047-.650163 1.008442-.179073.252396-.369544.458901-.423271.458901zm2.890134-2.246146c.07326.001.192391-.06954.264749-.156712.07237-.08719.09659-.193498.05384-.236247-.04276-.04275-.198613-.07773-.346372-.07773-.147753 0-.305173.05909-.349811.131329-.04461.07222-.0079.177728.08162.234437.08954.05671.222719.103922.295976.104916zm-3.631163-.35256c-.05464 0-.174369-.119599-.266077-.265777-.09171-.146177-.232748-.478398-.313426-.738268-.08067-.25987-.200886-.540707-.267141-.62408-.09535-.119999-.175366-.100004-.383939.09594-.263484.247529-.263484.247529-.517077-.276322-.139474-.28812-.311739-.853958-.382807-1.25742-.09446-.536271-.0935-.911366.0036-1.394654.07303-.3636.213589-.784442.312374-.935207.09879-.150764.263803-.274117.366707-.274117.130058 0 .162598.06302.10673.206715-.04419.113694-.108184.658537-.142182 1.21076-.04719.76645-.02156 1.05704.108273 1.22799.165732.218205.179582.216924.540602-.04999.349491-.258392.383021-.262611.591008-.07439.121272.10975.283939.41131.361487.670135.07755.258823.186226.470589.241507.470589.05529 0 .358797-.214455.67447-.476568.315667-.262112.84308-.609001 1.172024-.770865.328939-.161863.91766-.353729 1.308261-.426369.390602-.07264.911447-.09432 1.15743-.04817.245989.04615.5742.210853.729364.366014.155158.155161.282106.366972.282106.470691s-.181242.264309-.402753.356863c-.29275.12232-.657491.14864-1.335353.09636-.787891-.06075-1.018042-.03412-1.483337.171704-.302912.133992-.812044.488035-1.131409.786762-.319365.298729-.726998.754309-.905855 1.012401-.178861.258093-.3699.469258-.424535.469258zm-6.057659-.434509c-.10197.03912-.471545-.278072-.968963-.831654-.602697-.670743-.983169-.978696-1.518918-1.229404-.393138-.183972-1.000888-.38875-1.350553-.455063-.349666-.06631-.96814-.120567-1.374385-.120567-.406246 0-1.183032.0824-1.726192.183098-.54316.100706-1.073996.208507-1.179636.23956-.122522.03602-.214796-.03044-.254829-.183524-.04554-.174105.05108-.333813.351908-.581785.228067-.187992.682957-.487825 1.010867-.666296.420356-.228786.826915-.341002 1.378436-.380462.43023-.03079 1.089024.0077 1.463988.08556.374964.07784 1.099958.35085 1.611098.606684.511142.255834 1.195263.704234 1.520272.996445.590924.531291.590924.531291.787249-.05979.10798-.325096.241744-.619153.297255-.65346.0555-.03431.245251.07138.421646.234858.176397.163478.393321.297233.482053.297233.122064 0 .142942-.115003.08577-.472492-.06462-.404151-.04483-.472492.136957-.472492.116881 0 .310974.08911.431318.198018.157354.142402.254817.162008.347022.06981.07052-.07052.231478-.491847.357688-.936286.145732-.51319.255139-1.376554.299811-2.365891.04549-1.007546.01874-1.877634-.07571-2.463218-.08033-.497971-.248112-1.202024-.372843-1.564563-.124732-.362542-.196137-.755731-.158676-.873758.03746-.118026.110434-.214593.162164-.214593.05172 0 .242079.146177.422996.324838.180917.178661.492141.670348.691609 1.092639.308646.653428.369618.938145.409318 1.911372.02566.628965-.0142 1.666942-.08856 2.306614-.07437.639672-.265061 1.687431-.423766 2.328353-.158704.640924-.37791 1.264052-.487124 1.384732-.109213.120678-.29563.219416-.414257.219416-.129287 0-.244252.113809-.286994.284106-.03922.156258-.197538.402695-.351824.547638-.280516.263532-.280516.263532-.422396-.04786-.07803-.171266-.183788-.311392-.235008-.311392-.05122 0-.255312.339823-.453535.755162-.198224.41534-.434586.783629-.52525.818419z"/>
  <g fill="#1c8a43" fill-rule="evenodd" stroke-miterlimit="0" font-family="Rubik" font-size="6.35" font-weight="400" letter-spacing=".0449792" word-spacing=".256646">
    <text xml:space="preserve" x="19.234009" y="24.483934" stroke="#1c8a43" stroke-linecap="round" stroke-linejoin="bevel" stroke-width=".23786" style="-inkscape-font-specification:Rubik;text-align:start" transform="matrix(2.1463673 0 0 2.1463653 -32.1389622 -39.12485703)"><tspan x="19.234009" y="24.483934" style="-inkscape-font-specification:Rubik">Courage</tspan></text>
    <text xml:space="preserve" x="45.717484" y="24.693924" stroke-linejoin="round" stroke-width=".211402" paint-order="stroke fill markers" style="-inkscape-font-specification:Rubik;text-align:start" transform="matrix(2.1463673 0 0 2.1463653 -32.1389622 -39.12485703)"><tspan x="45.717484" y="24.693924">Medicine</tspan></text>
  </g>
</svg>
