<svg xmlns="http://www.w3.org/2000/svg" xml:space="preserve" viewBox="0 0 132.292 79.375">
  <path d="M70.472 75.88c-.329 0-.424-.06-.54-.34-.078-.189-.63-.815-1.225-1.394-.596-.578-1.828-1.577-2.738-2.22-.91-.642-2.212-1.57-2.894-2.06-.709-.51-1.955-1.603-2.908-2.548-1.427-1.417-1.78-1.843-2.446-2.964-.428-.72-1.02-1.809-1.316-2.421-.297-.614-.705-1.748-.91-2.53-.34-1.289-.378-1.617-.422-3.603-.037-1.679-.006-2.39.136-3.064.101-.483.163-.899.137-.925-.025-.025-.177.04-.337.144-.168.11-.477.596-.728 1.145-.24.525-.533 1.334-.652 1.798a18.447 18.447 0 0 0-.345 1.906c-.072.584-.13 1.415-.13 1.846-.001.53-.055.827-.168.92-.129.108-.26.1-.57-.03a1.93 1.93 0 0 1-.656-.487c-.138-.176-.358-.606-.49-.956-.13-.35-.345-1.165-.477-1.81a12.756 12.756 0 0 1-.239-2.469c0-.712.078-1.74.174-2.285.095-.544.308-1.438.472-1.985.165-.548.3-1.01.3-1.03 0-.018-.108-.091-.24-.161-.179-.096-.296-.087-.473.037-.13.091-.51.506-.845.921-.335.416-.873 1.314-1.196 1.996-.324.682-.696 1.36-.828 1.506-.132.146-.362.266-.512.266-.165 0-.354-.125-.48-.319-.175-.265-.206-.556-.189-1.742.012-.783.08-1.796.153-2.25.073-.455.313-1.368.533-2.028.22-.66.59-1.577.822-2.037.232-.46.38-.838.327-.838-.052 0-.315.226-.584.502-.269.276-.777.963-1.129 1.526-.411.657-.792 1.48-1.065 2.303a28.015 28.015 0 0 0-.722 2.773c-.163.822-.435 2.308-.603 3.304-.169.995-.363 1.878-.433 1.961-.069.084-.194.152-.278.152-.084 0-.286-.158-.449-.352-.163-.194-.415-.66-.56-1.034-.214-.553-.263-.915-.26-1.921.002-.682.06-2.304.132-3.603.094-1.733.207-2.704.424-3.643.163-.704.43-1.572.593-1.929.163-.357.562-1.088.886-1.624.325-.537.876-1.297 1.225-1.688.35-.391.788-.918.975-1.17.187-.253.735-.9 1.218-1.438a16.43 16.43 0 0 1 1.98-1.805c.608-.454 1.105-.85 1.105-.878 0-.03-.143.001-.318.068-.174.066-.719.33-1.21.585-.492.256-1.135.666-1.43.91-.294.245-.976.938-1.514 1.54-.539.601-1.135 1.174-1.326 1.273-.256.132-.407.147-.576.057a1.459 1.459 0 0 1-.412-.385c-.101-.144-.183-.449-.182-.678 0-.23.074-.691.163-1.026.09-.336.304-.919.477-1.296a8.78 8.78 0 0 1 .805-1.34c.27-.359.876-1.105 1.344-1.657.469-.552 1.601-1.642 2.517-2.421a42.613 42.613 0 0 1 3.405-2.568c.958-.633 2.126-1.324 2.597-1.536.471-.212.857-.426.857-.476 0-.05-.146-.15-.325-.223-.198-.08-1.225-.132-2.628-.133-2-.003-2.427.03-3.242.252-.516.141-1.322.446-1.792.678-.47.232-.977.404-1.129.383-.186-.026-.288-.13-.315-.322-.032-.227.224-.544 1.3-1.61 1.253-1.242 1.426-1.368 2.697-1.98.747-.359 1.88-.818 2.515-1.02.637-.2 1.54-.422 2.008-.49.472-.069 1.313-.089 1.886-.045.75.057 1.033.04 1.033-.059 0-.075-.306-.272-.68-.438a24.567 24.567 0 0 0-1.714-.647 13.642 13.642 0 0 0-1.949-.48c-.828-.12-1.052-.105-2.39.168-.812.166-1.576.343-1.698.392-.213.087-.213.079-.018-.22.112-.17.494-.447.848-.615a11.76 11.76 0 0 1 1.554-.556c.708-.195 1.262-.252 2.503-.26 1.585.054 1.595.064 2.745.545.632.304 1.457.789 1.832 1.078.375.289 1.04.903 1.476 1.366.437.463.828.977.87 1.142a.545.545 0 0 1-.143.542.538.538 0 0 1-.516.189c-.164-.029-.777-.204-1.361-.389-1.006-.318-1.178-.336-3.19-.335-2.012.002-2.18.02-3.13.334-.552.183-1.3.481-1.66.663-.362.182-.727.415-.813.518-.085.102-.108.185-.052.182.057-.002.422-.08.812-.175.425-.103 1.3-.171 2.185-.17.832 0 1.826.073 2.277.169.44.093 1.12.34 1.513.55.393.209.82.514.948.678.129.163.218.402.2.53-.025.166-.838.717-2.752 1.868-1.495.899-3.116 1.908-3.603 2.244-.487.335-1.348.979-1.912 1.43a16.093 16.093 0 0 0-1.83 1.768 55.556 55.556 0 0 0-1.13 1.367c-.18.23-.325.464-.325.519 0 .055.146.021.324-.074.179-.096.723-.495 1.21-.886.486-.39 1.203-.872 1.594-1.069.39-.196 1.136-.467 1.656-.602a9.33 9.33 0 0 1 2.067-.26c.885-.013 1.289.04 1.913.251.435.148.926.375 1.092.506.166.13.302.336.302.457 0 .12-.146.32-.325.444-.178.123-1.058.605-1.955 1.071-.897.466-2.04 1.121-2.54 1.456-.5.335-1.499 1.077-2.22 1.65-.72.572-1.81 1.563-2.421 2.201-.611.639-1.47 1.664-1.909 2.278-.439.614-.965 1.45-1.169 1.857-.204.408-.344.768-.31.801.032.033.363-.31.734-.764s1.242-1.341 1.936-1.972c.693-.63 1.58-1.354 1.97-1.608.39-.254 1.08-.638 1.535-.853.455-.215.994-.427 1.199-.471.234-.05.529-.014.797.098.234.097.486.311.56.475.11.238.097.4-.06.804-.108.278-.597.984-1.086 1.568a28.04 28.04 0 0 0-1.555 2.068 27.94 27.94 0 0 0-1.086 1.79c-.235.438-.377.832-.32.887.056.054.268-.114.472-.374.204-.26.77-.89 1.256-1.402.488-.511 1.253-1.19 1.702-1.506.635-.449.917-.577 1.27-.577.4 0 .454.034.454.282 0 .156-.157.62-.349 1.034-.229.493-.435 1.26-.598 2.228-.136.812-.299 1.704-.36 1.982-.062.278-.166 1.018-.231 1.645s-.088 1.237-.05 1.355c.038.119.107.215.155.215.047 0 .156-.199.24-.443.086-.243.399-.894.696-1.445.297-.551.781-1.26 1.076-1.575.294-.316.68-.648.858-.74.178-.092.53-.167.783-.167.308 0 .53.077.671.233.15.165.21.417.205.856-.004.343-.202 1.368-.44 2.277-.431 1.645-.434 1.664-.372 3.485.05 1.467.122 2.05.366 2.935.167.607.445 1.457.616 1.89.172.432.554 1.209.85 1.726.297.516.923 1.454 1.391 2.084.469.63 1.15 1.442 1.512 1.805.363.362 1.264 1.086 2.002 1.608.738.522 2.02 1.533 2.847 2.246.827.714 1.555 1.298 1.618 1.298.063 0 .086-.093.053-.206a51.26 51.26 0 0 1-.307-1.211 20.07 20.07 0 0 0-.496-1.691c-.229-.63-.234-.703-.06-.877.173-.173.23-.16.686.156.274.19.764.664 1.09 1.053.325.39.762 1.081.972 1.536.21.455.492 1.165.627 1.578.135.414.327 1.177.425 1.697.099.52.18 1.417.18 1.994 0 1.05 0 1.05-.4 1.05zm-.132-15.643c-.455.025-.963.001-1.13-.053a4.674 4.674 0 0 1-.59-.251 6.482 6.482 0 0 1-.747-.511c-.253-.198-.557-.576-.677-.84-.12-.263-.219-.607-.22-.763-.003-.255.057-.222.587.33.343.359.874.749 1.27.934.54.252.85.317 1.514.314.658-.003.969-.07 1.476-.319.354-.173.949-.587 1.322-.92.499-.445.68-.55.68-.397 0 .115-.112.438-.248.718-.135.28-.44.67-.679.867-.238.196-.724.466-1.082.6-.357.135-1.022.266-1.476.291zm4.193-2.81c-.471.07-.877.044-1.476-.093-.455-.105-1.27-.383-1.812-.618-.984-.426-.984-.426-2.066.126-1.07.547-1.092.552-2.205.543-.617-.005-1.442-.078-1.832-.162-.39-.083-.998-.26-1.352-.391-.374-.14-.887-.467-1.222-.781-.318-.298-.673-.728-.789-.957-.116-.23-.3-.813-.41-1.298a18.812 18.812 0 0 1-.3-2.05c-.085-.984-.154-1.248-.435-1.677-.184-.28-.61-.888-.947-1.353-.336-.465-.77-1.227-.965-1.694a12.001 12.001 0 0 1-.554-1.843c-.127-.624-.178-1.256-.138-1.697.035-.387.122-.76.192-.831.092-.092.164-.092.257 0 .07.07.207.706.303 1.412.137.998.256 1.427.537 1.932.2.358.528.861.73 1.12.203.258.641.776.975 1.151.333.375.701.881.817 1.125.16.337.216.77.229 1.802.015 1.14.069 1.507.338 2.287.176.511.48 1.161.674 1.444.195.283.529.648.743.81.214.164.608.375.877.47.268.094.906.233 1.417.307.703.103 1.056.103 1.453 0 .288-.076.807-.307 1.154-.513.347-.206.684-.474.75-.596.097-.18.027-.314-.395-.747-.282-.29-.657-.604-.833-.696-.176-.093-.734-.224-1.24-.292-.507-.068-1.017-.152-1.134-.187-.118-.035-.264-.195-.325-.356-.072-.19-.069-.373.01-.519.07-.132.396-.306.785-.419.379-.11.88-.169 1.166-.136.276.03.984.204 1.574.385 1.071.329 1.071.329 2.167-.065.79-.283 1.366-.408 2.057-.445.561-.03 1.133.006 1.378.087.23.076.48.213.556.304a.468.468 0 0 1 .065.394c-.04.126-.217.285-.394.353a4.868 4.868 0 0 1-.82.2c-.274.042-.806.273-1.181.513-.375.241-.935.584-1.243.763-.498.289-.561.372-.561.732 0 .359.058.436.502.663.276.14.767.327 1.092.414a5 5 0 0 0 1.063.157c.26 0 .837-.13 1.282-.287a9.74 9.74 0 0 0 1.462-.677c.461-.276.82-.628 1.225-1.202.315-.446.684-1.11.821-1.476.137-.366.376-1.29.532-2.053.155-.763.363-1.544.462-1.735.099-.191.699-.956 1.332-1.7.634-.742 1.324-1.69 1.532-2.103.21-.414.488-1.009.62-1.322.131-.312.293-.535.358-.495.066.04.12.3.12.577 0 .277-.086.792-.19 1.145a7.975 7.975 0 0 1-.43 1.11c-.131.258-.672.923-1.202 1.477-.53.554-1.083 1.177-1.228 1.384a4.452 4.452 0 0 0-.444.885c-.099.28-.284 1.201-.412 2.046-.127.845-.308 1.801-.403 2.126a5.276 5.276 0 0 1-.513 1.129c-.196.308-.622.724-.997.973-.36.24-1.072.568-1.582.73-.51.162-1.22.338-1.577.39zM65.06 45.736c-.107.02-.223-.063-.263-.188-.04-.124-.018-.592.047-1.04.064-.449.118-.856.12-.905.001-.048-.092-.088-.206-.088-.115 0-.411-.109-.66-.242-.248-.133-.548-.21-.67-.17-.167.052-.3-.047-.533-.4-.17-.257-.612-.732-.98-1.054-.368-.323-.766-.752-.883-.955-.183-.315-.188-.369-.034-.369.1 0 .362.16.584.355.222.195.712.496 1.088.668.545.25.874.315 1.62.324.817.01.957-.019 1.087-.224.105-.166.118-.351.044-.62-.107-.383-.107-.383-.71-.068-.562.294-.639.305-1.147.17-.299-.08-.642-.235-.763-.345a1.826 1.826 0 0 1-.325-.395c-.068-.127-.043-.376.07-.696a6.33 6.33 0 0 0 .176-.542c0-.024-.146-.043-.325-.041-.179 0-.56.11-.85.24-.287.13-.601.208-.696.171-.139-.053-.117-.127.11-.373.157-.17.455-.38.664-.47.24-.102.832-.162 1.607-.162 1.08 0 1.274.032 1.625.269.228.153.534.539.714.9.174.347.374 1.025.446 1.508.072.482.13 1.213.13 1.624 0 .41-.054 1.033-.12 1.383-.066.35-.267.875-.447 1.167-.18.292-.414.547-.52.568zm-1.039-5.647c.036 0 .187-.085.336-.189.253-.177.258-.202.074-.406a1.512 1.512 0 0 0-.53-.333c-.182-.063-.363-.085-.401-.047-.038.038-.07.19-.07.338 0 .148.119.352.263.453.144.101.292.184.328.184zm12.359 5.316c-.248 0-.362-.11-.598-.576a6.565 6.565 0 0 1-.43-1.123c-.107-.425-.105-.625.01-.902.08-.195.26-.38.398-.412.138-.031.616-.112 1.063-.18.446-.068.978-.205 1.181-.305.203-.1.591-.429.863-.732s.532-.513.579-.466c.046.046-.096.444-.317.884-.32.638-.521.877-.992 1.18-.325.21-.731.546-.902.748-.278.327-.339.35-.556.214-.134-.084-.282-.115-.328-.069-.045.046-.015.39.07.763s.177.747.208.828c.036.095-.053.148-.25.148zm-2.063-2.835a.292.292 0 0 1-.177-.079c-.043-.043-.078-.296-.077-.561 0-.314.12-.69.34-1.074a6.6 6.6 0 0 1 .821-1.088c.265-.273.71-.618.988-.767.436-.232.681-.27 1.748-.27.963 0 1.325.046 1.622.209.21.115.57.373.798.573.228.2.414.452.413.559a.781.781 0 0 1-.1.349c-.076.12-.228.073-.677-.206-.319-.198-.832-.394-1.14-.436-.562-.076-.562-.076-.562.406 0 .334-.084.58-.275.802-.221.256-.403.33-.922.373-.623.052-.66.038-1.024-.377-.378-.43-.378-.43-.703.12-.178.302-.47.755-.65 1.008-.179.252-.37.459-.423.459zm2.89-2.246c.073 0 .192-.07.265-.157.072-.087.096-.194.054-.236-.043-.043-.2-.078-.347-.078-.148 0-.305.059-.35.131-.044.072-.008.178.082.235.09.056.223.104.296.105zm-3.631-.353c-.055 0-.175-.12-.266-.266a3.904 3.904 0 0 1-.314-.738c-.08-.26-.2-.54-.267-.624-.095-.12-.175-.1-.384.096-.263.247-.263.247-.517-.276-.14-.289-.312-.854-.383-1.258-.094-.536-.093-.911.004-1.395.073-.363.213-.784.312-.935.099-.15.264-.274.367-.274.13 0 .163.063.107.207-.044.114-.108.658-.142 1.21-.048.767-.022 1.058.108 1.229.166.218.18.217.54-.05.35-.259.383-.263.591-.075.122.11.284.412.362.67.077.26.186.471.241.471.056 0 .36-.214.675-.477a7.217 7.217 0 0 1 1.172-.77 6.09 6.09 0 0 1 1.308-.427c.39-.072.912-.094 1.158-.048.246.046.574.21.729.366.155.155.282.367.282.47s-.181.265-.403.358c-.292.122-.657.148-1.335.096-.788-.06-1.018-.034-1.483.172-.303.134-.812.488-1.132.786-.32.3-.727.755-.906 1.013-.179.258-.37.469-.424.469zm-6.058-.434c-.102.039-.471-.279-.969-.832-.603-.67-.983-.979-1.519-1.23-.393-.183-1-.388-1.35-.455a8.943 8.943 0 0 0-1.375-.12c-.406 0-1.183.082-1.726.183-.543.1-1.074.208-1.18.24-.122.036-.214-.03-.254-.184-.046-.174.05-.334.352-.582a7.762 7.762 0 0 1 1.01-.666c.42-.229.827-.341 1.379-.38.43-.031 1.089.007 1.464.085s1.1.35 1.61.607c.512.256 1.196.704 1.521.996.591.531.591.531.787-.06.108-.325.242-.619.298-.653.055-.034.245.071.421.235.177.163.394.297.482.297.122 0 .143-.115.086-.473-.064-.404-.045-.472.137-.472.117 0 .311.09.431.198.158.142.255.162.347.07.071-.07.232-.492.358-.936.146-.514.255-1.377.3-2.366.045-1.008.019-1.878-.076-2.464a11.538 11.538 0 0 0-.373-1.564c-.124-.363-.196-.756-.158-.874.037-.118.11-.214.162-.214.052 0 .242.146.423.324.18.179.492.67.691 1.093.31.653.37.938.41 1.911.025.63-.014 1.667-.089 2.307-.074.64-.265 1.687-.424 2.328-.158.641-.377 1.264-.487 1.385-.109.12-.295.22-.414.22-.13 0-.244.113-.287.284-.04.156-.197.402-.352.547-.28.264-.28.264-.422-.048-.078-.17-.184-.311-.235-.311-.051 0-.255.34-.454.755-.198.415-.434.784-.525.819z"/>
  <g fill="#1c8a43" fill-rule="evenodd" stroke-miterlimit="0" font-family="Rubik" font-size="6.35" font-weight="400" letter-spacing=".045" word-spacing=".257">
    <text xml:space="preserve" x="19.234" y="24.484" stroke="#1c8a43" stroke-linecap="round" stroke-linejoin="bevel" stroke-width=".238" style="-inkscape-font-specification:Rubik;text-align:start" transform="matrix(2.14637 0 0 2.14637 -32.139 -39.125)"><tspan x="19.234" y="24.484" style="-inkscape-font-specification:Rubik">Courage</tspan></text>
    <text xml:space="preserve" x="45.717" y="24.694" stroke-linejoin="round" stroke-width=".211" paint-order="stroke fill markers" style="-inkscape-font-specification:Rubik;text-align:start" transform="matrix(2.14637 0 0 2.14637 -32.139 -39.125)"><tspan x="45.717" y="24.694">Medicine</tspan></text>
  </g>
</svg>
