<?xml version="1.0" encoding="UTF-8" standalone="no"?>
<!-- Created with Inkscape (http://www.inkscape.org/) -->

<svg
   width="300"
   height="100"
   viewBox="0 0 79.375 26.458333"
   version="1.1"
   id="svg1"
   xml:space="preserve"
   inkscape:version="1.4 (86a8ad7, 2024-10-11)"
   sodipodi:docname="creativehealth.svg"
   xmlns:inkscape="http://www.inkscape.org/namespaces/inkscape"
   xmlns:sodipodi="http://sodipodi.sourceforge.net/DTD/sodipodi-0.dtd"
   xmlns="http://www.w3.org/2000/svg"
   xmlns:svg="http://www.w3.org/2000/svg"><sodipodi:namedview
     id="namedview1"
     pagecolor="#ffffff"
     bordercolor="#111111"
     borderopacity="1"
     inkscape:showpageshadow="0"
     inkscape:pageopacity="0"
     inkscape:pagecheckerboard="1"
     inkscape:deskcolor="#d1d1d1"
     inkscape:document-units="px"
     inkscape:zoom="1.5714646"
     inkscape:cx="93.543307"
     inkscape:cy="89.725213"
     inkscape:window-width="1920"
     inkscape:window-height="1115"
     inkscape:window-x="-9"
     inkscape:window-y="-9"
     inkscape:window-maximized="1"
     inkscape:current-layer="layer1" /><defs
     id="defs1"><pattern
       id="EMFhbasepattern"
       patternUnits="userSpaceOnUse"
       width="6"
       height="6"
       x="0"
       y="0" /></defs><g
     inkscape:label="Layer 1"
     inkscape:groupmode="layer"
     id="layer1"><g
       id="g156"
       transform="matrix(0.14320482,0,0,0.14320482,3.5184828,0.93297923)"><path
         id="path154"
         style="fill:#741f20;fill-opacity:1"
         d="m 225.52104,27.203014 c -5.14304,-0.005 -7.54606,0.36956 -12.16308,1.89704 -5.7965,1.91769 -11.15423,5.25364 -15.61817,9.72499 -5.46529,5.47435 -9.05483,12.03841 -10.63295,19.44274 -0.74965,3.51729 -0.67935,11.13679 0.13643,14.785141 2.69939,12.07236 10.19496,21.750339 21.07985,27.217455 3.62664,1.82155 8.78823,3.37888 12.83229,3.8716 2.36283,0.28789 9.98104,-0.0792 12.30313,-0.59273 5.35658,-1.18459 11.47092,-4.139076 16.07344,-7.766966 l 0.99218,-0.78186 v -3.1812 -3.181719 l -1.54719,1.43299 c -4.69363,4.345479 -9.92303,7.221169 -16.1215,8.866119 -2.20406,0.58491 -3.15853,0.68649 -6.67297,0.70849 -4.66393,0.0292 -6.80835,-0.28259 -10.84999,-1.57768 -8.86975,-2.84218 -16.20801,-9.149669 -20.28403,-17.434079 -2.44881,-4.97713 -3.5264,-9.54726 -3.5264,-14.957231 0,-6.7174 1.87955,-12.84036 5.68234,-18.51308 3.96168,-5.90974 9.59257,-10.57814 15.82281,-13.11806 12.2244,-4.9836 25.15825,-2.42407 35.11568,6.94944 l 2.38125,2.24173 v -3.28766 -3.28817 l -0.99218,-0.79116 c -3.25302,-2.5933 -8.34637,-5.44051 -12.17497,-6.80579 -3.8399,-1.36931 -6.93086,-1.85535 -11.83597,-1.86035 z m 198.21994,0.76998 c -2.41968,0 -3.99521,1.68654 -3.93981,4.21783 0.0321,1.46529 0.53417,2.32311 1.90583,3.25665 1.99798,1.35982 4.81316,0.41706 5.70146,-1.90893 1.0753,-2.81562 -0.73675,-5.56555 -3.66748,-5.56555 z m -25.57932,3.0427 v 8.20209 8.20208 h -2.51354 -2.51354 v 1.98438 1.98437 h 2.51354 2.51354 v 20.902081 20.902089 h 2.24896 2.24896 V 72.290695 51.388614 h 4.10104 4.10104 v -1.98437 -1.98438 h -4.10104 -4.10104 v -8.20208 -8.20209 h -2.24896 z m -38.93767,15.45591 c -8.53655,0.0124 -15.95235,4.36634 -19.6541,11.92847 -2.0652,4.21891 -2.39933,5.86023 -2.37143,11.64167 0.0207,4.276271 0.0947,5.032631 0.7276,7.408331 2.61813,9.82799 9.14096,15.678419 18.82831,16.887339 4.83056,0.60282 10.19701,-0.57121 14.29835,-3.12746 1.76779,-1.101819 5.94228,-5.114749 5.94228,-5.712309 0,-0.13344 0.11906,-0.24236 0.26458,-0.24236 0.16468,0 0.26458,1.49931 0.26458,3.96875 v 3.968749 h 2.11667 2.11667 v -22.88646 -22.88646 h -2.11667 -2.11667 v 3.83646 c 0,2.11006 -0.0658,3.83646 -0.14624,3.83646 -0.0804,0 -0.81679,-0.72475 -1.63659,-1.61024 -3.01354,-3.25497 -6.61223,-5.42643 -10.45983,-6.31176 -2.05747,-0.47342 -4.08754,-0.70205 -6.05751,-0.69918 z m -83.21921,0.0522 c -1.30161,0.0234 -2.58372,0.22794 -3.57343,0.60875 -1.8861,0.72571 -3.87596,2.49283 -5.16971,4.59093 l -0.99477,1.61283 -0.0744,-2.95848 -0.0749,-2.95796 h -2.24018 -2.24069 v 22.88646 22.88646 h 2.23036 2.22984 l 0.1142,-15.411979 c 0.12114,-16.412981 0.17914,-17.230981 1.51929,-21.258141 1.23852,-3.72174 4.13498,-6.00583 7.61504,-6.00583 1.16419,0 2.08168,0.15713 2.65823,0.45527 0.48424,0.25041 0.90741,0.41659 0.94051,0.36949 0.34629,-0.49361 2.2717,-3.66956 2.2717,-3.74706 0,-0.0564 -0.68461,-0.32308 -1.52135,-0.59273 -1.06711,-0.34388 -2.38809,-0.50138 -3.6897,-0.47801 z m 31.93397,0.0155 c -5.26188,-0.0356 -9.68031,1.42184 -13.74025,4.53151 -8.52264,6.52781 -11.38846,20.087191 -6.48746,30.694771 3.06091,6.62494 9.39362,11.436689 16.39125,12.454539 7.37351,1.07253 14.42711,-1.12075 19.38176,-6.026509 1.61296,-1.59703 4.02839,-4.80667 4.41937,-5.87251 0.0908,-0.24763 -0.43541,-0.70742 -1.56166,-1.36529 -0.93423,-0.5457 -1.79568,-0.99109 -1.91461,-0.98909 -0.11893,0.002 -0.7938,0.8912 -1.49965,1.97611 -1.62355,2.49547 -4.70472,5.43665 -6.80786,6.49831 -3.48788,1.76068 -8.61542,2.35626 -12.24369,1.42265 -5.00091,-1.28681 -9.39161,-4.85781 -11.68405,-9.50329 -1.12451,-2.27873 -1.63345,-4.22415 -1.87068,-7.14789 l -0.1819,-2.24482 h 19.77863 19.77916 l -0.18707,-2.050521 c -1.27104,-13.94629 -9.31886,-22.29507 -21.57129,-22.37797 z m 195.75756,0.014 c -1.90575,0.0304 -3.79238,0.22643 -5.12527,0.57929 -7.80221,2.06548 -13.5538,7.7823 -15.86932,15.77268 -1.69415,5.84615 -1.23358,13.222001 1.15497,18.489831 3.12711,6.89671 9.33152,11.706829 16.56643,12.843659 3.69621,0.5808 9.60921,-0.13667 12.9589,-1.57251 2.09276,-0.89706 4.95887,-2.907959 6.67918,-4.686019 1.46485,-1.51402 4.31536,-5.39406 4.30206,-5.85598 -0.006,-0.20516 -3.29427,-2.16427 -3.61528,-2.15387 -0.11893,0.004 -0.7523,0.84689 -1.40715,1.87327 -1.47651,2.31426 -4.98632,5.68351 -6.93136,6.65386 -3.39696,1.6947 -8.66069,2.28272 -12.21269,1.36426 -3.63501,-0.93992 -7.61539,-3.58087 -9.85263,-6.53707 -2.27111,-3.00095 -3.33728,-5.91184 -3.68246,-10.05572 l -0.19172,-2.30115 h 19.77037 19.77037 l -0.18294,-2.182811 c -0.97673,-11.66258 -7.19225,-19.6917 -16.89096,-21.81831 -1.40946,-0.30905 -3.33475,-0.44386 -5.2405,-0.41341 z m -82.25131,0.86661 v 22.88646 22.88646 h 2.24895 2.24896 v -22.88646 -22.88646 h -2.24896 z m 13.48703,0 0.36793,0.8599 c 0.20258,0.47294 4.74159,10.92067 10.08621,23.217181 5.34463,12.29651 9.89945,22.811329 10.12186,23.366539 v 5.1e-4 c 0.22242,0.5552 0.49344,0.91239 0.60255,0.79375 0.21289,-0.2315 20.34257,-47.00007 20.56257,-47.77434 0.11861,-0.41744 -0.11227,-0.46247 -2.34663,-0.46147 l -2.4784,5.2e-4 -1.2423,2.97552 c -0.68341,1.63629 -4.11868,9.70204 -7.63416,17.92397 -3.51547,8.221931 -6.50818,15.246611 -6.65024,15.610421 -0.226,0.57877 -1.25108,-1.66199 -8.20105,-17.925521 l -7.94318,-18.58698 h -2.62258 z m -127.17208,3.1719 c 4.09922,0.0177 7.95258,1.6493 11.02103,4.74545 1.09463,1.10452 2.43973,2.78105 2.98896,3.72587 0.9802,1.68619 2.57297,6.10984 2.57297,7.1453 0,0.519 -0.20995,0.52606 -16.93798,0.52606 h -16.9385 l 0.15761,-0.7276 c 1.01059,-4.66921 2.45417,-7.4461 5.40122,-10.38955 2.57189,-2.56874 4.49807,-3.71337 7.5737,-4.49998 1.40108,-0.35834 2.79458,-0.53146 4.16099,-0.52555 z m 195.93636,0.014 c 5.40327,-0.0865 10.46861,2.61092 13.74748,7.51324 1.55175,2.32007 3.21392,6.52891 3.21892,8.15247 0.001,0.43612 -0.98072,0.46302 -16.92558,0.46302 h -16.92661 l 0.16123,-0.85989 c 0.76061,-4.05621 2.5818,-7.50438 5.49062,-10.39472 2.4457,-2.43015 4.42216,-3.58624 7.45742,-4.36252 1.26512,-0.32356 2.52961,-0.49164 3.77652,-0.5116 z m -144.83922,0.0367 c 0.5163,-0.0118 1.04184,-0.003 1.57716,0.0264 4.90364,0.26787 8.33532,1.7614 11.68352,5.08444 2.55508,2.53586 4.05727,5.22214 4.90358,8.76846 0.79924,3.34906 0.62088,8.963101 -0.39222,12.345501 -2.08723,6.96848 -6.30556,11.31046 -12.5367,12.90412 -2.40643,0.61548 -6.63108,0.66094 -8.79327,0.0951 -2.87191,-0.75159 -5.7881,-2.42587 -7.79694,-4.47673 -2.19381,-2.23971 -3.3939,-4.1567 -4.4235,-7.06624 -3.3888,-9.576351 -1.01204,-19.093551 6.07973,-24.343731 2.92133,-2.16272 6.0845,-3.25481 9.69864,-3.33727 z" /><path
         id="path145"
         style="fill:#5b5a5b;fill-opacity:1"
         d="m 261.70696,122.53177 c -0.0809,-4.4e-4 -1.17588,2.52956 -2.43293,5.62188 -1.25706,3.09232 -3.54216,8.71137 -5.07824,12.4871 -1.53608,3.77572 -2.79311,6.90896 -2.79311,6.96236 0,0.0534 0.3681,0.0596 0.81752,0.014 0.78779,-0.0799 0.87546,-0.22518 2.45256,-4.05144 l 1.63608,-3.96875 h 5.36711 5.36764 l 1.60817,4.0349 1.60868,4.03489 h 0.8723 0.8723 L 267.9009,137.5464 c -2.25719,-5.56617 -4.54133,-11.22157 -5.07566,-12.56719 -0.53433,-1.34562 -1.03738,-2.44695 -1.11828,-2.4474 z m 81.09117,0.0393 c -2.31738,-0.0552 -4.62344,1.01579 -5.76657,3.11609 -0.79689,1.46416 -0.944,3.6823 -0.33951,5.12062 0.57658,1.37195 2.54008,2.9407 5.35316,4.27674 5.09059,2.41771 6.19497,3.46828 6.19497,5.89111 0,4.45496 -5.43369,7.28535 -9.34517,4.86792 -0.81808,-0.5056 -2.33874,-2.40566 -2.63394,-3.29127 -0.0748,-0.2244 -0.28921,-0.21771 -0.82373,0.0258 l -0.72295,0.32918 0.58498,1.04024 c 0.86549,1.53993 2.61517,3.13374 4.09484,3.73001 1.81882,0.73294 4.34118,0.5778 6.31538,-0.38809 4.43002,-2.16741 5.51011,-7.85021 2.0438,-10.75335 -0.53264,-0.4461 -2.39842,-1.50132 -4.14652,-2.34508 -4.68798,-2.26274 -5.68544,-3.27781 -5.68544,-5.78673 0,-2.97712 3.04335,-5.10502 6.11746,-4.27725 0.7542,0.20308 1.55921,0.71896 2.3399,1.49965 0.88024,0.8802 1.2905,1.12689 1.57614,0.94671 0.66185,-0.41748 0.60579,-0.78491 -0.27131,-1.78387 -1.27419,-1.45123 -3.08307,-2.17556 -4.88549,-2.21847 z m 124.08959,0 c -2.31739,-0.0552 -4.62345,1.01579 -5.76657,3.11609 -0.79689,1.46416 -0.94401,3.6823 -0.33952,5.12062 0.58371,1.38891 2.49884,2.89618 5.58519,4.39508 4.94513,2.40162 5.96294,3.37926 5.96294,5.72678 0,4.47858 -5.4098,7.3464 -9.31054,4.93561 -0.89549,-0.55345 -2.59571,-2.65134 -2.59571,-3.2029 0,-0.38686 -0.58839,-0.36353 -1.14773,0.0455 -0.4222,0.30873 -0.39968,0.42023 0.31109,1.541 1.07248,1.69112 2.33468,2.80513 3.87935,3.42304 v -5.1e-4 c 1.84095,0.73642 4.35718,0.58476 6.33295,-0.38189 4.42906,-2.16694 5.5118,-7.86127 2.0438,-10.7487 -0.53264,-0.44347 -2.51623,-1.56521 -4.408,-2.49287 -3.78386,-1.85547 -5.06796,-2.92907 -5.43119,-4.53926 -0.86263,-3.82398 3.52016,-6.87112 7.16907,-4.98419 0.3836,0.19837 1.08622,0.80415 1.56166,1.34565 0.67264,0.76612 0.95695,0.92603 1.28054,0.72192 0.69308,-0.43719 0.64508,-0.79233 -0.24184,-1.80247 -1.2742,-1.45123 -3.08308,-2.17556 -4.88549,-2.21847 z m -37.80028,0.007 c -3.17601,0.0552 -6.3168,1.35177 -8.81703,3.82664 -2.41398,2.3895 -3.53522,4.85492 -3.70779,8.15402 -0.10546,2.01614 -0.0264,2.80429 0.43202,4.31343 1.32847,4.3737 4.75319,7.65928 9.29762,8.91935 1.9547,0.542 5.48903,0.38057 7.35046,-0.33589 0.76853,-0.29581 1.98892,-0.91784 2.71198,-1.38183 1.21675,-0.78076 1.31465,-0.92236 1.31465,-1.90169 v -1.05782 l -0.93741,0.82321 c -1.37987,1.21154 -3.78765,2.33858 -5.71232,2.67374 -1.35759,0.23641 -2.06605,0.21684 -3.57446,-0.0977 -3.82202,-0.79691 -6.58681,-2.87964 -8.22585,-6.19601 -0.97079,-1.96421 -0.99684,-2.09108 -0.99684,-4.94543 0,-2.7854 0.0434,-3.01808 0.8816,-4.72064 2.27321,-4.61756 7.31697,-7.40099 11.88506,-6.55929 1.9991,0.36835 3.34049,0.98953 5.30872,2.45928 l 1.40612,1.05006 -0.0832,-1.01337 c -0.0722,-0.8778 -0.25258,-1.12707 -1.34359,-1.85622 -2.22787,-1.48893 -4.71951,-2.19677 -7.18974,-2.15387 z m -56.50559,0.14417 v 12.47211 12.47262 h 0.66145 0.66146 v -5.82083 c 0,-5.4535 0.0308,-5.82083 0.48214,-5.82083 0.33204,0 1.70515,1.80891 4.41886,5.82083 3.81029,5.6331 3.96583,5.82083 4.81934,5.82083 1.09806,0 1.33732,0.44896 -3.31814,-6.2177 l -3.69487,-5.29167 1.09347,-0.22066 c 4.1667,-0.83913 5.68717,-2.42466 5.93298,-6.18877 0.10912,-1.67091 0.0383,-2.08859 -0.56328,-3.31814 -1.22183,-2.49732 -3.01346,-3.34669 -7.51685,-3.56413 z m 32.02595,0.0527 c -0.6109,-0.0328 -0.73161,0.50835 -4.37544,11.26598 -1.6759,4.94771 -3.11398,9.17443 -3.19568,9.39271 -0.12553,0.33563 -0.18876,0.3251 -0.40927,-0.0677 -0.23412,-0.41705 -3.31071,-9.21604 -6.10506,-17.46095 -1.02211,-3.01575 -1.07677,-3.10886 -1.82417,-3.10886 -0.42376,0 -0.7705,0.11288 -0.7705,0.25115 0,0.13827 1.73993,5.22819 3.86643,11.31094 2.12649,6.08274 4.10438,11.75073 4.39508,12.59561 0.29071,0.84489 0.57952,1.48547 0.64182,1.42317 0.10441,-0.10441 2.14056,-5.9782 6.71277,-19.36316 0.99417,-2.91042 1.88899,-5.50003 1.98799,-5.75469 0.14718,-0.37862 0.0342,-0.46302 -0.62011,-0.46302 -0.11897,0 -0.21659,-0.0165 -0.30386,-0.0212 z m -37.5822,0.0109 -5.84409,0.0713 -5.84461,0.0713 0.0248,12.03854 c 0.0134,6.6212 0.0238,12.18738 0.0233,12.36928 -7.5e-4,0.25463 1.33901,0.33072 5.8198,0.33072 h 5.82084 v -0.66145 -0.66146 h -5.16455 -5.16454 l 0.0713,-5.75469 0.0713,-5.75469 h 4.96094 4.96042 l 5.1e-4,-0.7276 v -0.72761 h -5.03328 -5.03329 l 0.0723,-4.56406 0.0724,-4.56406 4.7625,-0.0651 c 2.61937,-0.0357 4.91132,-0.0654 5.09323,-0.0661 0.1819,-7.5e-4 0.33073,-0.30107 0.33073,-0.66766 z m -155.04584,0.0103 v 12.43542 12.43541 h 0.66146 0.66146 v -6.35 -6.35 h 7.67292 7.67291 v 6.35 6.35 h 0.79375 0.79375 v -12.43541 -12.43542 h -0.79375 -0.79375 v 5.29167 5.29166 h -7.67291 -7.67292 v -5.29166 -5.29167 h -0.66146 z m 24.87084,0 v 12.43542 12.4349 h 5.95312 5.95313 v -0.66146 -0.66146 h -5.15938 -5.15937 v -5.66012 c 0,-5.112 0.0442,-5.67737 0.45578,-5.8353 0.25064,-0.0961 2.48306,-0.15021 4.96094,-0.12041 l 4.50515,0.0538 0.0837,-0.70125 0.0837,-0.70125 h -5.04465 -5.04465 v -4.5961 -4.59611 l 0.85989,-0.008 c 0.47295,-0.005 2.79467,-0.0199 5.15938,-0.0341 l 4.29948,-0.0258 v -0.66146 -0.66146 h -5.95313 z m 39.15833,0 v 12.43542 12.43541 h 3.83646 3.83646 v -0.66145 -0.66146 h -3.175 -3.175 V 134.5698 122.79584 h -0.66146 z m 7.67292,0 v 0.72761 0.7276 h 3.10885 3.10885 l 0.0692,11.70781 0.0687,11.70781 h 0.79117 0.79065 v -11.73985 -11.73933 l 3.175,0.0315 3.17448,0.032 5.2e-4,-0.7276 v -0.72761 h -7.14375 z m 18.25625,0 v 12.43542 12.43541 h 0.79375 0.79375 v -6.35 -6.35 h 7.54062 7.54063 v 6.35 6.35 h 0.79375 0.79375 v -12.43541 -12.43542 h -0.79375 -0.79375 v 5.29167 5.29166 h -7.54063 -7.54062 v -5.29166 -5.29167 h -0.79375 z m 107.68541,0 v 12.43542 12.43541 h 0.66146 0.66146 v -12.43541 -12.43542 h -0.66146 z m 33.3375,0 v 12.43542 12.43541 h 5.95313 5.95312 v -0.66145 -0.66146 h -5.15937 -5.15938 v -5.66012 c 0,-4.91732 0.055,-5.68132 0.41858,-5.82084 0.23019,-0.0883 2.49237,-0.16071 5.02709,-0.16071 h 4.6085 v -0.66146 -0.66146 h -5.03328 -5.03329 l 0.0724,-4.56406 0.0723,-4.56406 h 5.09323 5.09323 v -0.7276 -0.72761 h -5.95312 z m -68.92396,1.45521 1.90945,0.0532 c 4.43209,0.1242 6.16035,1.51509 6.16035,4.95628 0,2.46234 -0.90362,3.90337 -2.99569,4.77749 -1.27839,0.53415 -4.92493,0.75082 -5.09684,0.30282 -0.067,-0.17446 -0.0894,-2.51635 -0.0496,-5.20381 z m -112.33319,2.24947 c 0.0827,4.3e-4 1.00726,2.17352 2.05465,4.82917 1.04739,2.65565 2.09034,5.27494 2.31821,5.82031 l 0.41444,0.99167 h -4.79453 c -4.4537,0 -4.78224,-0.0329 -4.62608,-0.46302 0.82621,-2.27568 4.51654,-11.17875 4.63331,-11.17813 z" /><g
         id="g155"
         transform="translate(697.71428,-587.2653)"><path
           id="path155"
           style="opacity:1;fill:#ffffff;fill-rule:evenodd;stroke:#000000;stroke-width:2.64583"
           d="m -544.22771,673.12964 a 86.518753,86.518753 0 0 1 -86.51875,86.51875 86.518753,86.518753 0 0 1 -86.51875,-86.51875 86.518753,86.518753 0 0 1 86.51875,-86.51875 86.518753,86.518753 0 0 1 86.51875,86.51875 z" /><path
           d="m -591.57662,741.46097 c 1.13713,-5.80049 1.22928,-7.40943 1.15904,-20.23807 -0.0686,-12.53434 -0.31467,-18.06354 -1.02419,-23.01586 -0.96535,-6.73795 -3.19879,-15.62123 -4.1662,-16.57063 -0.41015,-0.40251 -1.53069,-0.76904 -3.89072,-1.27262 -7.32877,-1.56384 -14.98933,-4.01625 -23.73295,-7.59776 -7.80232,-3.19593 -7.72323,-3.30843 2.03846,-2.90002 12.1947,0.51019 22.01673,0.39582 31.40364,-0.36572 17.52418,-1.42168 27.97214,-3.10234 37.97617,-6.10884 1.21451,-0.36499 2.64644,-0.62563 3.18207,-0.57919 l 0.97388,0.0845 -1.59104,1.58486 c -1.95664,1.94905 -4.82989,4.11338 -8.11565,6.11328 -4.2199,2.56846 -13.32644,6.86407 -17.35617,8.18701 -2.03075,0.66668 -3.86073,1.35163 -4.06662,1.5221 -0.31552,0.26124 -0.34632,1.7441 -0.19602,9.4372 0.24607,12.59462 -0.10587,15.28453 -4.07184,31.12145 -2.73912,10.93786 -4.04654,15.00544 -8.44737,26.2811 m -81.87694,-1.34265 c -0.43551,-0.54908 -2.28253,-5.43543 -3.54053,-9.36658 -2.86232,-8.94454 -4.63151,-18.52656 -5.88591,-31.87829 -0.5148,-5.4796 -0.39635,-18.7418 0.23274,-26.05819 0.33509,-3.89728 0.43562,-6.27486 0.27962,-6.61376 -0.13396,-0.291 -1.2789,-1.21055 -2.54434,-2.04345 -5.04565,-3.32101 -13.22803,-10.21915 -19.56195,-16.49168 -3.2003,-3.16927 -3.87946,-4.13045 -3.31587,-4.69271 0.38849,-0.38758 1.03155,-0.14601 8.03339,3.01769 7.36875,3.32949 14.35369,6.09528 21.32678,8.44464 12.25167,4.12782 21.38989,6.05145 37.70467,7.93699 8.60186,0.99414 8.80072,1.02663 8.80072,1.43764 0,0.5145 -10.33318,3.32482 -16.04295,4.36322 -5.34265,0.97163 -13.81371,1.71212 -17.75914,1.5524 l -2.11395,-0.0856 -1.53147,6.87831 c -2.85362,12.81651 -5.37681,29.78707 -6.04759,40.6751 -0.37261,6.04824 -0.0695,9.88942 1.34298,17.01696 1.08473,5.47381 1.20825,6.64543 0.6228,5.90729 z m 82.60313,-85.24965 c -4.77946,-1.32446 -8.60822,-8.63704 -7.65957,-14.62909 0.69132,-4.36673 3.18814,-7.01263 6.64819,-7.04514 3.13705,-0.0295 5.8958,2.15176 7.95223,6.28751 1.44666,2.90942 1.9838,5.57071 1.54847,7.67195 -0.46884,2.26299 -1.21584,4.34187 -1.96711,5.47446 -1.29483,1.95202 -4.09349,2.91333 -6.52221,2.24031 z m -78.69565,-6.25042 c -3.31982,-0.81849 -5.66658,-5.35955 -5.23111,-10.12234 0.34938,-3.82119 1.92503,-7.25805 4.37614,-9.54539 3.37702,-3.15139 6.68398,-3.35616 9.46591,-0.58612 2.49674,2.48606 3.33954,6.46211 2.26682,10.69417 -0.80018,3.15687 -1.66014,4.84708 -3.38295,6.64903 -2.28721,2.39227 -5.12591,3.49469 -7.49481,2.91065 z"
           style="fill:#000000;stroke-width:1.00105"
           id="path1-5" /><path
           style="fill:#808185"
           d="m -634.56792,759.21126 c -10.83614,-0.66246 -20.74866,-3.06327 -29.76563,-7.20922 -3.77529,-1.73585 -6.48113,-3.19044 -5.94402,-3.19536 0.49509,-0.005 1.18152,-1.51901 1.18152,-2.6068 0,-1.34764 1.65426,-1.81686 3.40369,-0.96545 4.2476,2.06725 6.69536,2.33565 13.52964,1.48357 6.50249,-0.81071 6.77745,-2.33524 2.9164,-16.17007 -0.58888,-2.11005 -1.39668,-5.05674 -1.79511,-6.54819 -0.62205,-2.32857 -0.80153,-2.71177 -1.27022,-2.71198 -1.17284,-5.3e-4 -3.00861,2.89847 -3.02025,4.76953 -0.0106,1.70967 -0.60854,2.19014 -2.48725,1.99878 -2.73201,-0.27827 -4.43199,0.15923 -6.29109,1.61906 l -1.61695,1.26968 -3.06342,-0.0781 c -3.94156,-0.10051 -4.21986,-1.68163 -2.59419,-14.73855 0.3986,-3.20146 0.96013,-7.72583 1.24784,-10.05417 1.22531,-9.91585 4.45463,-26.33051 5.37309,-27.31141 0.1981,-0.21157 1.63302,-0.37628 4.13712,-0.4749 7.32598,-0.28851 15.24927,-1.65605 25.44233,-4.39128 l 3.88143,-1.04155 1.27795,0.49888 c 0.70287,0.27438 3.4806,1.39783 6.17274,2.49655 6.60264,2.69468 10.11462,3.85057 17.4625,5.74742 8.2201,2.12201 7.85476,1.98824 8.17775,2.99432 2.59617,8.08695 4.92444,27.63859 3.65111,30.66018 -0.63584,1.50884 -2.51319,3.8977 -3.16943,4.03301 -0.3243,0.0669 -2.71257,0.39141 -5.30726,0.72122 l -4.71763,0.59966 -1.76466,-0.64091 c -4.82825,-1.75356 -7.29366,-0.53374 -10.15927,5.02652 -2.86531,5.55969 -3.63244,8.32112 -3.63836,13.09688 -0.006,4.51991 -0.58272,3.9754 10.192,9.61592 l 7.15487,3.74553 h 4.02377 c 4.64336,0 5.61114,0.59324 2.76701,1.69613 -4.49391,1.74263 -6.79981,2.5386 -7.05216,2.43429 -0.1836,-0.0759 -0.16866,-0.12755 0.0407,-0.14078 0.1819,-0.0115 0.33073,-0.14786 0.33073,-0.30304 0,-0.15519 -0.32742,-0.24449 -0.72761,-0.19844 -0.50652,0.0583 -0.72803,0.23545 -0.72901,0.5831 -0.002,0.6008 -0.47277,0.79181 -4.03918,1.6378 -7.30611,1.73309 -15.94192,2.49661 -23.21149,2.05219 z m -7.5266,-34.63336 c 0.67238,-0.81016 -0.0522,-15.08695 -0.88899,-17.51568 -1.78575,-5.18315 -3.43947,-5.02873 -7.55072,0.7051 -1.31179,1.8295 -0.55628,4.34024 2.23607,7.43104 1.45149,1.60663 2.72657,3.95609 3.44823,6.35374 0.99922,3.31977 1.79039,4.18858 2.75541,3.0258 z m 31.2068,-8.32828 c 3.96798,-1.04482 7.06741,-1.57669 9.18809,-1.57669 2.62011,0 3.55356,-0.90614 4.86746,-4.72505 1.11783,-3.24904 -0.0923,-4.21023 -3.7368,-2.96802 -7.29058,2.48497 -9.44093,3.66189 -13.03073,7.13194 -2.88618,2.78991 -2.10453,3.40608 2.71198,2.13782 z m -13.36145,-0.9817 c 2.31741,-1.15704 12.5677,-10.50691 12.5677,-11.46371 0,-1.62425 -2.51581,-6.59363 -3.58467,-7.08063 -2.30147,-1.04863 -3.22806,-0.39531 -6.13175,4.32331 -2.96655,4.82079 -3.37301,5.70677 -4.5542,9.92699 -1.40032,5.00314 -1.12216,5.70455 1.70292,4.29404 z m -10.24992,-5.68822 c 2.17524,-2.70542 3.74896,-15.57098 2.12109,-17.34049 -3.54877,-3.85754 -9.60634,-1.3153 -7.55298,3.16983 0.35901,0.78418 1.03809,3.08787 1.50906,5.11932 2.08903,9.01055 2.74279,10.51899 3.92283,9.05134 z m -49.01675,20.32034 c -1.19606,-0.51681 -1.85206,-1.37328 -3.05374,-3.98696 -3.06019,-6.656 -2.59291,-6.38952 -9.42089,-5.37252 -1.78054,0.2652 -1.97422,0.24257 -3.30729,-0.38643 -0.77879,-0.36747 -1.65413,-0.70927 -1.94516,-0.75956 -0.56377,-0.0974 -2.05292,-2.52815 -4.39617,-7.17587 -4.05162,-8.03619 -6.95435,-17.81581 -8.03826,-27.08188 -0.5331,-4.55744 -0.52455,-4.85972 0.13769,-4.85972 0.29454,0 1.13671,-0.41354 1.87147,-0.91896 2.39302,-1.64611 4.3216,-1.85689 7.03986,-0.76942 3.21614,1.28666 4.50048,0.74876 8.44063,-3.53508 1.43973,-1.56531 3.21689,-3.48131 3.94925,-4.25776 l 1.33155,-1.41175 2.56623,1.89174 2.56623,1.89174 -0.13404,1.9011 c -1.59411,22.60932 -1.0582,33.26114 2.55514,50.78631 0.91696,4.44737 0.91443,4.51035 -0.1625,4.04502 z m 104.52158,-11.50488 c -0.0838,-0.13559 0.19856,-1.83223 0.62746,-3.77031 2.4853,-11.23042 2.80009,-14.23109 2.58123,-24.60456 l -0.16565,-7.85159 0.85415,-0.18468 c 2.08835,-0.45154 5.44873,-1.81519 10.01605,-4.06455 l 4.92858,-2.42726 1.59927,1.59927 c 0.8796,0.8796 2.14217,1.83198 2.80572,2.11641 2.98701,1.28039 3.86181,2.59839 3.86181,5.81833 0,3.34172 1.65256,6.62796 3.33301,6.62796 h 0.58337 l -0.40168,1.78594 c -1.44012,6.40303 -4.16384,14.17189 -4.9043,13.98852 -0.74474,-0.18441 -4.16367,0.61903 -5.47488,1.2866 -1.42573,0.72586 -1.98919,1.32589 -3.20716,3.41525 -2.06184,3.53701 -6.50599,5.57433 -13.60856,6.23857 -3.51348,0.32858 -3.24276,0.32652 -3.42842,0.0261 z m -129.17919,-51.2145 c -0.80593,-0.56449 -1.51,-2.55019 -1.28613,-3.62727 0.74027,-3.56165 -0.0998,-6.20539 -2.10209,-6.61507 -0.62225,-0.12732 -0.6328,0.13322 0.14113,-3.4843 0.41186,-1.92512 0.67727,-2.71206 0.80146,-2.37633 0.10213,0.27607 2.58096,2.88621 5.50853,5.80031 3.65968,3.64285 5.32284,5.47786 5.32284,5.87285 0,1.37918 -2.9415,3.49173 -6.12614,4.39973 -1.80085,0.51345 -1.57381,0.51043 -2.2596,0.0301 z m 88.42219,-1.19883 c -14.80647,-0.76978 -26.58403,-2.17094 -39.02604,-4.64288 -6.60166,-1.3116 -14.91281,-3.53566 -10.9426,-2.92823 13.09263,2.00311 20.71808,-24.2722 8.77598,-30.23973 -13.09495,-6.54363 -24.39065,21.17904 -11.87064,29.13375 1.67352,1.06328 1.2102,0.96074 -4.52829,-1.00217 -7.88825,-2.69826 -16.34507,-6.12301 -23.15105,-9.37547 -2.11722,-1.01177 -3.90779,-1.83959 -3.97905,-1.83959 -0.0713,0 -0.50476,-0.16676 -0.96331,-0.37057 -1.15337,-0.51264 -2.02437,-0.68406 -2.02437,-0.39841 0,0.1319 -0.17859,0.23982 -0.39688,0.23982 -0.5099,0 -0.53156,0.11008 0.42412,-2.15511 4.52026,-10.71414 9.18094,-17.86657 16.45263,-25.2488 1.87403,-1.90251 3.49735,-3.60479 3.60739,-3.78284 0.15173,-0.2455 0.28217,-0.2248 0.53984,0.0857 0.54383,0.65527 1.82687,0.47849 3.74983,-0.51664 2.30567,-1.19318 3.23219,-1.1948 4.89577,-0.009 3.10035,2.21077 3.65935,2.5221 4.52845,2.5221 0.95334,0 4.2261,-1.27139 6.81239,-2.64645 2.24921,-1.19584 5.42583,-1.09991 7.56261,0.22839 3.74837,2.33011 5.45347,0.90529 6.20945,-5.1888 0.63565,-5.12416 2.41144,-7.6159 7.65256,-10.73788 2.28722,-1.36244 3.39848,-2.2043 5.22324,-3.95698 0.27118,-0.26047 0.60027,-0.75555 0.73129,-1.10018 0.28264,-0.74339 3.26632,-1.1076 3.92633,-0.47928 0.90152,0.85823 3.59316,0.74568 4.87761,-0.20395 1.76685,-1.30629 19.51058,0.79862 19.73039,2.34058 0.0532,0.37338 0.8956,1.28639 2.19394,2.37792 1.66731,1.40172 2.27186,2.11309 2.89416,3.40553 0.97389,2.02265 2.32915,3.08302 4.87967,3.81789 3.9763,1.14567 3.93292,1.08039 2.88278,4.338 -1.30341,4.04325 -0.16954,6.93078 3.26513,8.31504 1.50931,0.60829 3.04826,0.14037 11.71146,-3.56094 1.18235,-0.50515 2.33992,-0.7733 3.70417,-0.85807 1.21958,-0.0758 2.15704,-0.27454 2.43239,-0.51573 0.98201,-0.8602 8.8883,7.04744 14.21207,14.21449 5.48716,7.38702 8.60037,13.37384 11.8324,22.75417 l 1.68652,4.89479 -0.74262,0.19264 c -0.40845,0.10595 -1.02471,0.49291 -1.36948,0.8599 -0.81476,0.86727 -0.8753,0.85943 -3.32333,-0.43032 -1.72136,-0.90691 -2.40699,-1.11834 -3.94676,-1.21709 -1.22775,-0.0787 -2.30995,-0.33614 -3.1722,-0.75451 -2.44594,-1.18678 -5.01541,-0.73283 -6.28734,1.11078 -2.80711,4.06878 -3.02795,8.2374 -0.51494,9.72011 0.50689,0.29907 0.81282,0.5757 0.67985,0.61473 -3.01545,0.88505 -19.93995,2.60851 -31.99177,3.2578 -6.36269,0.34279 -8.77364,0.3106 -19.84375,-0.26493 z m 33.41587,-1.98511 c 3.91277,-1.16196 6.92157,-6.44629 6.92502,-12.16233 0.008,-13.00082 -11.86572,-22.43209 -19.11478,-15.18302 -9.37245,9.37244 0.22345,30.89897 12.18976,27.34535 z"
           id="path129" /></g></g></g></svg>
