<svg xmlns="http://www.w3.org/2000/svg" xml:space="preserve" viewBox="0 0 79.375 26.458">
  <path d="M225.521 27.203c-5.143-.005-7.546.37-12.163 1.897-5.797 1.918-11.154 5.254-15.618 9.725-5.466 5.474-9.055 12.038-10.633 19.443-.75 3.517-.68 11.137.136 14.785 2.7 12.072 10.195 21.75 21.08 27.217 3.627 1.822 8.788 3.38 12.832 3.872 2.363.288 9.981-.08 12.304-.593 5.356-1.184 11.47-4.139 16.073-7.767l.992-.782v-6.362l-1.547 1.432c-4.694 4.346-9.923 7.222-16.122 8.867-2.204.585-3.158.686-6.672.708-4.664.03-6.809-.282-10.85-1.578-8.87-2.842-16.208-9.15-20.285-17.434-2.448-4.977-3.526-9.547-3.526-14.957 0-6.717 1.88-12.84 5.682-18.513 3.962-5.91 9.593-10.578 15.823-13.118 12.225-4.984 25.158-2.424 35.116 6.95l2.381 2.241V36.66l-.992-.79c-3.253-2.594-8.346-5.441-12.175-6.807-3.84-1.369-6.93-1.855-11.836-1.86zm198.22.77c-2.42 0-3.995 1.687-3.94 4.218.032 1.465.534 2.323 1.906 3.256 1.998 1.36 4.813.418 5.701-1.908 1.076-2.816-.736-5.566-3.667-5.566zm-25.58 3.043V47.42h-5.026V51.389H398.162v41.804h4.498V51.389h8.202V47.42h-8.202V31.016h-2.25zm-38.937 15.456c-8.537.012-15.952 4.366-19.654 11.928-2.065 4.219-2.4 5.86-2.372 11.642.021 4.276.095 5.032.728 7.408 2.618 9.828 9.141 15.678 18.828 16.887 4.83.603 10.197-.57 14.299-3.127 1.768-1.102 5.942-5.115 5.942-5.712 0-.134.12-.243.265-.243.164 0 .264 1.5.264 3.969v3.969h4.234V47.42h-4.234v3.836c0 2.11-.066 3.837-.146 3.837-.08 0-.817-.725-1.637-1.61-3.013-3.255-6.612-5.427-10.46-6.312a26.841 26.841 0 0 0-6.057-.7zm-83.22.052c-1.3.023-2.583.228-3.573.609-1.886.725-3.876 2.492-5.17 4.59l-.994 1.613-.075-2.958-.074-2.958h-4.481V93.193h4.46l.114-15.412c.121-16.413.18-17.231 1.52-21.258 1.238-3.722 4.134-6.006 7.614-6.006 1.165 0 2.082.157 2.659.455.484.25.907.417.94.37.346-.494 2.272-3.67 2.272-3.747 0-.057-.685-.324-1.521-.593-1.068-.344-2.389-.502-3.69-.478zm31.935.015c-5.262-.035-9.68 1.422-13.74 4.532-8.523 6.528-11.389 20.087-6.488 30.695 3.061 6.625 9.394 11.436 16.391 12.454 7.374 1.073 14.427-1.12 19.382-6.026 1.613-1.597 4.028-4.807 4.42-5.873.09-.248-.436-.707-1.562-1.365-.934-.546-1.796-.991-1.915-.99-.119.003-.794.892-1.5 1.977-1.623 2.495-4.704 5.436-6.807 6.498-3.488 1.76-8.616 2.356-12.244 1.423-5.001-1.287-9.392-4.858-11.684-9.503-1.125-2.28-1.634-4.225-1.87-7.148l-.183-2.245h39.559l-.188-2.05c-1.271-13.947-9.319-22.296-21.571-22.379zm195.757.014c-1.905.03-3.792.227-5.125.58-7.802 2.065-13.554 7.782-15.87 15.772-1.693 5.846-1.233 13.222 1.156 18.49 3.127 6.897 9.331 11.707 16.566 12.844 3.696.58 9.61-.137 12.959-1.573 2.093-.897 4.959-2.908 6.68-4.686 1.464-1.514 4.315-5.394 4.301-5.856-.006-.205-3.294-2.164-3.615-2.154-.119.004-.752.847-1.407 1.874-1.477 2.314-4.986 5.683-6.932 6.654-3.396 1.694-8.66 2.282-12.212 1.364-3.635-.94-7.616-3.581-9.853-6.537-2.271-3.001-3.337-5.912-3.682-10.056l-.192-2.301h39.54l-.182-2.183c-.977-11.663-7.192-19.692-16.891-21.818-1.41-.31-3.335-.444-5.24-.414zm-82.251.867V93.193h4.498V47.42h-2.249zm13.487 0 .368.86c.203.473 4.742 10.92 10.086 23.217 5.345 12.297 9.9 22.811 10.122 23.367.222.555.493.912.603.794.212-.232 20.342-47 20.562-47.775.119-.417-.112-.462-2.346-.461h-2.479l-1.242 2.976c-.684 1.636-4.119 9.702-7.634 17.924-3.516 8.222-6.509 15.247-6.65 15.61-.227.58-1.252-1.662-8.202-17.925l-7.943-18.587h-2.622zM307.76 50.592c4.1.018 7.953 1.65 11.021 4.745 1.095 1.105 2.44 2.781 2.989 3.726.98 1.686 2.573 6.11 2.573 7.145 0 .52-.21.526-16.938.526h-16.939l.158-.727c1.01-4.67 2.454-7.446 5.401-10.39 2.572-2.568 4.498-3.713 7.574-4.5a16.486 16.486 0 0 1 4.161-.525zm195.936.014c5.404-.087 10.469 2.61 13.748 7.513 1.552 2.32 3.214 6.529 3.219 8.153 0 .436-.981.463-16.926.463h-16.926l.16-.86c.761-4.057 2.583-7.505 5.491-10.395 2.446-2.43 4.423-3.586 7.458-4.363a16.278 16.278 0 0 1 3.776-.511zm-144.839.037a20.296 20.296 0 0 1 1.577.026c4.904.268 8.336 1.761 11.684 5.084 2.555 2.536 4.057 5.222 4.903 8.769.8 3.349.621 8.963-.392 12.345-2.087 6.969-6.305 11.31-12.537 12.904-2.406.616-6.63.661-8.793.096-2.872-.752-5.788-2.426-7.797-4.477-2.194-2.24-3.394-4.157-4.423-7.066-3.39-9.577-1.012-19.094 6.08-24.344 2.92-2.163 6.084-3.255 9.698-3.337z" style="fill:#741f20;fill-opacity:1" transform="matrix(.1432 0 0 .1432 3.518 .933)"/>
  <path d="M261.707 122.532c-.08 0-1.176 2.53-2.433 5.622l-5.078 12.487c-1.536 3.775-2.793 6.909-2.793 6.962 0 .054.368.06.817.014.788-.08.876-.225 2.453-4.051l1.636-3.97h10.735l1.608 4.036 1.608 4.035h1.745l-4.104-10.12a3387.055 3387.055 0 0 1-5.076-12.568c-.534-1.345-1.037-2.447-1.118-2.447zm81.091.04c-2.317-.056-4.623 1.015-5.766 3.115-.797 1.464-.944 3.682-.34 5.12.577 1.373 2.54 2.941 5.353 4.278 5.09 2.417 6.195 3.468 6.195 5.89 0 4.456-5.434 7.286-9.345 4.869-.818-.506-2.339-2.406-2.634-3.292-.075-.224-.29-.217-.824.026l-.723.33.585 1.04c.866 1.54 2.616 3.133 4.095 3.73 1.819.732 4.341.577 6.316-.389 4.43-2.167 5.51-7.85 2.043-10.753-.532-.446-2.398-1.501-4.146-2.345-4.688-2.263-5.686-3.278-5.686-5.787 0-2.977 3.044-5.105 6.118-4.277.754.203 1.56.719 2.34 1.5.88.88 1.29 1.127 1.576.946.662-.417.606-.785-.271-1.784-1.275-1.45-3.083-2.175-4.886-2.218zm124.09 0c-2.318-.056-4.624 1.015-5.767 3.115-.797 1.464-.944 3.682-.34 5.12.584 1.39 2.5 2.897 5.586 4.396 4.945 2.401 5.963 3.38 5.963 5.727 0 4.478-5.41 7.346-9.31 4.935-.896-.553-2.596-2.651-2.596-3.203 0-.387-.589-.363-1.148.046-.422.309-.4.42.31 1.54 1.073 1.692 2.336 2.806 3.88 3.424 1.841.736 4.357.584 6.333-.383 4.43-2.166 5.512-7.86 2.044-10.748-.533-.444-2.516-1.565-4.408-2.493-3.784-1.856-5.068-2.93-5.431-4.54-.863-3.823 3.52-6.87 7.169-4.984.383.199 1.086.805 1.562 1.346.672.766.956.926 1.28.722.693-.437.645-.792-.242-1.802-1.274-1.452-3.083-2.176-4.885-2.219zm-37.8.006c-3.177.055-6.317 1.352-8.818 3.827-2.414 2.39-3.535 4.855-3.707 8.154-.106 2.016-.027 2.804.432 4.313 1.328 4.374 4.753 7.66 9.297 8.92 1.955.542 5.49.38 7.35-.336.77-.296 1.99-.918 2.713-1.382 1.216-.781 1.314-.923 1.314-1.902v-1.058l-.937.823c-1.38 1.212-3.788 2.34-5.712 2.674-1.358.237-2.066.217-3.575-.097-3.822-.797-6.587-2.88-8.226-6.196-.97-1.965-.997-2.092-.997-4.946 0-2.785.044-3.018.882-4.72 2.273-4.618 7.317-7.402 11.885-6.56 2 .369 3.34.99 5.309 2.46l1.406 1.05-.083-1.014c-.072-.878-.253-1.127-1.344-1.856-2.228-1.489-4.72-2.197-7.19-2.154zm-56.506.144v24.945h1.323v-5.82c0-5.454.03-5.822.482-5.822.332 0 1.705 1.81 4.419 5.821 3.81 5.633 3.966 5.821 4.82 5.821 1.097 0 1.336.449-3.319-6.218l-3.695-5.291 1.094-.221c4.166-.84 5.687-2.425 5.933-6.189.109-1.67.038-2.088-.564-3.318-1.222-2.497-3.013-3.347-7.517-3.564zm32.026.053c-.611-.033-.732.508-4.376 11.266a1995.933 1995.933 0 0 1-3.195 9.393c-.126.335-.19.325-.41-.068-.234-.417-3.31-9.216-6.105-17.461-1.022-3.016-1.076-3.109-1.824-3.109-.424 0-.77.113-.77.251 0 .139 1.74 5.228 3.866 11.311 2.127 6.083 4.104 11.75 4.395 12.596.29.845.58 1.485.642 1.423.104-.104 2.14-5.978 6.713-19.363.994-2.91 1.889-5.5 1.988-5.755.147-.378.034-.463-.62-.463-.12 0-.217-.016-.304-.021zm-37.582.01-5.844.072-5.845.071.025 12.039c.013 6.621.024 12.187.023 12.37 0 .254 1.339.33 5.82.33h5.82v-1.323h-10.328l.07-5.755.072-5.754h9.921l.001-.728v-.728h-10.067l.073-4.564.072-4.564 4.763-.065c2.619-.035 4.911-.065 5.093-.066.182 0 .33-.3.33-.668zm-155.046.011V147.667h1.323v-12.7h15.346v12.7H230.236V122.796H228.649v10.583h-15.346v-10.583h-.662zm24.87 0V147.666h11.907v-1.322H238.438v-5.66c0-5.113.044-5.678.456-5.836.25-.096 2.483-.15 4.96-.12l4.506.054.084-.702.083-.701H238.438v-9.192l.86-.008c.473-.005 2.795-.02 5.16-.034l4.299-.026v-1.323h-5.953zm39.159 0V147.667h7.673v-1.323h-6.35v-23.548h-.662zm7.673 0v1.455h6.218l.069 11.708.068 11.708h1.582v-23.48l3.175.032 3.175.032v-1.455h-7.143zm18.256 0V147.667h1.588v-12.7h15.08v12.7h1.588V122.796H318.607v10.583h-15.081v-10.583h-.794zm107.686 0V147.667h1.322V122.796h-.661zm33.337 0V147.667h11.906v-1.323H444.55v-5.66c0-4.917.055-5.681.418-5.82.23-.09 2.492-.162 5.027-.162h4.609v-1.323h-10.067l.073-4.564.072-4.564h10.186v-1.455h-5.953zm-68.924 1.455 1.91.054c4.432.124 6.16 1.515 6.16 4.956 0 2.462-.904 3.903-2.996 4.777-1.278.534-4.925.751-5.097.303-.067-.174-.09-2.516-.05-5.204zm-112.333 2.25c.083 0 1.007 2.173 2.055 4.829a621.446 621.446 0 0 0 2.318 5.82l.414.992h-4.794c-4.454 0-4.783-.033-4.626-.463.826-2.276 4.516-11.179 4.633-11.178z" style="fill:#5b5a5b;fill-opacity:1" transform="matrix(.1432 0 0 .1432 3.518 .933)"/>
  <path d="M-544.228 673.13a86.519 86.519 0 0 1-86.518 86.518 86.519 86.519 0 0 1-86.52-86.518 86.519 86.519 0 0 1 86.52-86.52 86.519 86.519 0 0 1 86.518 86.52z" style="opacity:1;fill:#fff;fill-rule:evenodd;stroke:#000;stroke-width:2.64583" transform="matrix(.1432 0 0 .1432 103.435 -83.166)"/>
  <path d="M-591.577 741.461c1.138-5.8 1.23-7.41 1.16-20.238-.07-12.534-.315-18.064-1.025-23.016-.965-6.738-3.199-15.621-4.166-16.57-.41-.403-1.53-.77-3.89-1.273-7.33-1.564-14.99-4.016-23.734-7.598-7.802-3.196-7.723-3.308 2.039-2.9 12.195.51 22.017.396 31.403-.366 17.525-1.421 27.973-3.102 37.977-6.109 1.214-.365 2.646-.625 3.182-.579l.974.085-1.591 1.585c-1.957 1.949-4.83 4.113-8.116 6.113-4.22 2.568-13.327 6.864-17.356 8.187-2.031.667-3.861 1.352-4.067 1.522-.315.261-.346 1.744-.196 9.437.246 12.595-.106 15.285-4.072 31.122-2.739 10.938-4.046 15.005-8.447 26.28m-81.877-1.342c-.436-.549-2.283-5.435-3.54-9.366-2.863-8.945-4.632-18.527-5.887-31.879-.514-5.48-.396-18.742.233-26.058.335-3.897.436-6.275.28-6.614-.134-.29-1.279-1.21-2.544-2.043-5.046-3.321-13.229-10.22-19.562-16.492-3.2-3.17-3.88-4.13-3.316-4.693.388-.387 1.031-.146 8.033 3.018 7.369 3.33 14.354 6.095 21.327 8.445 12.252 4.128 21.39 6.051 37.705 7.937 8.601.994 8.8 1.026 8.8 1.437 0 .515-10.333 3.325-16.043 4.364-5.342.971-13.813 1.712-17.759 1.552l-2.114-.086-1.531 6.879c-2.854 12.816-5.377 29.787-6.048 40.675-.372 6.048-.07 9.89 1.343 17.017 1.085 5.474 1.208 6.645.623 5.907zm82.603-85.25c-4.78-1.324-8.608-8.637-7.66-14.629.692-4.366 3.189-7.012 6.649-7.045 3.137-.03 5.895 2.152 7.952 6.288 1.447 2.91 1.984 5.57 1.548 7.672-.468 2.263-1.215 4.342-1.967 5.474-1.295 1.952-4.093 2.913-6.522 2.24zm-78.696-6.25c-3.32-.818-5.666-5.36-5.23-10.122.349-3.821 1.924-7.258 4.375-9.546 3.377-3.151 6.684-3.356 9.466-.586 2.497 2.486 3.34 6.462 2.267 10.694-.8 3.157-1.66 4.847-3.383 6.65-2.287 2.392-5.126 3.494-7.495 2.91z" style="fill:#000;stroke-width:1.00105" transform="matrix(.1432 0 0 .1432 103.435 -83.166)"/>
  <path d="M-634.568 759.211c-10.836-.662-20.749-3.063-29.766-7.209-3.775-1.736-6.48-3.19-5.944-3.195.496-.005 1.182-1.52 1.182-2.607 0-1.348 1.654-1.817 3.404-.966 4.247 2.068 6.695 2.336 13.53 1.484 6.502-.81 6.777-2.335 2.916-16.17a759.667 759.667 0 0 1-1.795-6.548c-.622-2.329-.802-2.712-1.27-2.712-1.173 0-3.01 2.898-3.02 4.77-.012 1.709-.61 2.19-2.488 1.998-2.732-.278-4.432.16-6.291 1.62l-1.617 1.269-3.064-.078c-3.941-.1-4.22-1.682-2.594-14.739.399-3.201.96-7.726 1.248-10.054 1.225-9.916 4.455-26.33 5.373-27.311.198-.212 1.633-.377 4.137-.475 7.326-.289 15.25-1.656 25.443-4.392l3.881-1.041 1.278.499c.703.274 3.48 1.398 6.173 2.496 6.602 2.695 10.114 3.85 17.462 5.748 8.22 2.122 7.855 1.988 8.178 2.994 2.596 8.087 4.924 27.639 3.651 30.66-.636 1.509-2.513 3.898-3.17 4.033-.324.067-2.712.392-5.307.721l-4.717.6-1.765-.64c-4.828-1.754-7.294-.535-10.16 5.026-2.865 5.56-3.632 8.32-3.638 13.097-.006 4.52-.582 3.975 10.192 9.615l7.155 3.746h4.024c4.643 0 5.611.593 2.767 1.696-4.494 1.743-6.8 2.539-7.052 2.434-.184-.075-.169-.127.04-.14.183-.012.331-.148.331-.303 0-.156-.327-.245-.727-.199-.507.058-.728.236-.73.583-.001.601-.472.792-4.038 1.638-7.307 1.733-15.942 2.497-23.212 2.052zm-7.527-34.633c.673-.81-.052-15.087-.889-17.516-1.785-5.183-3.439-5.029-7.55.705-1.312 1.83-.557 4.34 2.236 7.431 1.451 1.607 2.726 3.956 3.448 6.354 1 3.32 1.79 4.189 2.755 3.026zm31.207-8.328c3.968-1.045 7.068-1.577 9.188-1.577 2.62 0 3.554-.906 4.868-4.725 1.118-3.25-.092-4.21-3.737-2.968-7.29 2.485-9.44 3.662-13.03 7.132-2.887 2.79-2.105 3.406 2.711 2.138zm-13.361-.982c2.317-1.157 12.568-10.507 12.568-11.464 0-1.624-2.516-6.593-3.585-7.08-2.302-1.05-3.228-.396-6.132 4.323-2.966 4.82-3.373 5.707-4.554 9.927-1.4 5.003-1.122 5.704 1.703 4.294zm-10.25-5.688c2.175-2.706 3.749-15.571 2.121-17.34-3.549-3.858-9.606-1.316-7.553 3.169.359.784 1.038 3.088 1.51 5.12 2.088 9.01 2.742 10.518 3.922 9.05zm-49.017 20.32c-1.196-.517-1.852-1.373-3.054-3.987-3.06-6.656-2.592-6.39-9.42-5.372-1.781.265-1.975.242-3.308-.387-.779-.367-1.654-.71-1.945-.76-.564-.097-2.053-2.528-4.396-7.175-4.052-8.036-6.954-17.816-8.038-27.082-.533-4.558-.525-4.86.137-4.86.295 0 1.137-.413 1.872-.919 2.393-1.646 4.321-1.857 7.04-.77 3.216 1.287 4.5.75 8.44-3.534a618.402 618.402 0 0 1 3.95-4.258l1.331-1.412 2.566 1.892 2.567 1.892-.134 1.9c-1.595 22.61-1.059 33.262 2.555 50.787.917 4.447.914 4.51-.163 4.045zm104.522-11.505c-.084-.135.198-1.832.627-3.77 2.486-11.23 2.8-14.231 2.581-24.605l-.165-7.851.854-.185c2.088-.452 5.449-1.815 10.016-4.065l4.929-2.427 1.599 1.6c.88.88 2.142 1.831 2.806 2.116 2.987 1.28 3.861 2.598 3.861 5.818 0 3.342 1.653 6.628 3.333 6.628h.584l-.402 1.786c-1.44 6.403-4.164 14.172-4.904 13.989-.745-.185-4.164.619-5.475 1.286-1.426.726-1.99 1.326-3.207 3.415-2.062 3.538-6.506 5.575-13.609 6.24-3.513.328-3.243.326-3.428.025zm-129.18-51.214c-.805-.565-1.51-2.55-1.286-3.628.74-3.561-.1-6.205-2.102-6.615-.622-.127-.632.134.141-3.484.412-1.925.678-2.712.802-2.376.102.276 2.58 2.886 5.508 5.8 3.66 3.643 5.323 5.478 5.323 5.873 0 1.379-2.941 3.492-6.126 4.4-1.8.513-1.574.51-2.26.03zm88.423-1.2c-14.807-.769-26.584-2.17-39.026-4.642-6.602-1.312-14.913-3.536-10.943-2.928 13.093 2.003 20.718-24.272 8.776-30.24-13.095-6.544-24.39 21.179-11.87 29.134 1.673 1.063 1.21.96-4.529-1.002-7.888-2.699-16.345-6.123-23.15-9.376-2.118-1.012-3.909-1.84-3.98-1.84-.071 0-.505-.166-.963-.37-1.154-.513-2.025-.684-2.025-.398 0 .131-.178.24-.397.24-.51 0-.531.11.425-2.156 4.52-10.714 9.18-17.866 16.452-25.249 1.874-1.902 3.498-3.604 3.608-3.782.151-.246.282-.225.54.085.543.656 1.826.479 3.75-.516 2.305-1.194 3.231-1.195 4.895-.01 3.1 2.211 3.66 2.523 4.529 2.523.953 0 4.226-1.272 6.812-2.647 2.25-1.196 5.426-1.1 7.563.229 3.748 2.33 5.453.905 6.209-5.19.636-5.123 2.411-7.615 7.653-10.737 2.287-1.362 3.398-2.204 5.223-3.957.271-.26.6-.756.731-1.1.283-.744 3.266-1.108 3.926-.48.902.859 3.594.746 4.878-.203 1.767-1.307 19.51.798 19.73 2.34.054.374.896 1.287 2.194 2.378 1.668 1.402 2.272 2.113 2.894 3.406.974 2.022 2.33 3.083 4.88 3.818 3.976 1.145 3.933 1.08 2.883 4.338-1.303 4.043-.17 6.93 3.265 8.315 1.51.608 3.048.14 11.712-3.561 1.182-.506 2.34-.774 3.704-.858 1.22-.076 2.157-.275 2.432-.516.982-.86 8.888 7.047 14.212 14.214 5.487 7.387 8.6 13.374 11.833 22.755l1.686 4.894-.743.193c-.408.106-1.024.493-1.369.86-.815.867-.875.86-3.323-.43-1.722-.907-2.407-1.119-3.947-1.218-1.228-.078-2.31-.336-3.172-.754-2.446-1.187-5.016-.733-6.288 1.11-2.807 4.07-3.028 8.238-.515 9.72.507.3.813.577.68.616-3.015.885-19.94 2.608-31.992 3.257-6.362.343-8.773.31-19.843-.265zm33.416-1.984c3.912-1.162 6.921-6.447 6.925-12.163.008-13-11.866-22.432-19.115-15.183-9.373 9.373.223 30.9 12.19 27.346z" style="fill:#808185" transform="matrix(.1432 0 0 .1432 103.435 -83.166)"/>
</svg>
