<svg xmlns="http://www.w3.org/2000/svg" xml:space="preserve" viewBox="0 0 79.375 39.688">
  <path fill="#aad169" d="M56.931 21.208c-.193-.116-3.563-1.879-7.489-3.918-7.902-4.104-7.676-3.975-7.336-4.186.802-.498 16.265-8.487 16.432-8.49.973-.016 6.003 3.214 8.167 5.245 2.076 1.947 5.343 6.534 5.343 7.502 0 .028-.707.026-1.57-.003-3.987-.135-8.688 1.25-12.247 3.609-.784.52-.826.527-1.3.241zM18.39 21.146c-5.255-2.714-9.004-6.358-11.357-11.039-.268-.532-.47-.98-.45-.995.02-.015.509.015 1.087.066 3.694.328 8.757-1.076 12.607-3.494l.934-.587 2.334 1.21c9.463 4.904 13.075 6.826 13.075 6.96 0 .18-.041.202-9.273 5.007-8.343 4.342-6.966 3.9-8.957 2.872z"/>
  <path fill="#1c5aab" d="M37.233 10.921C28.398 6.345 23.822 3.927 23.83 3.84c.013-.143 1.936-.89 3.53-1.373C35.383.038 45.316.234 54.363 2.998c.642.196 1.202.39 1.245.43.07.065-16.093 8.537-16.285 8.537-.041 0-.981-.47-2.09-1.044zM34.985 25.614c-4.363-.4-12.51-2.17-11.955-2.597.307-.236 16.14-8.367 16.293-8.367.236 0 15.565 7.943 15.565 8.065 0 .3-5.007 1.848-7.495 2.317-3.193.603-9.137.882-12.408.582zM2.684 38.718c-3.27-.88-3.668-7.308-.55-8.888 1.864-.944 4.663-.258 4.658 1.143-.002.656-.151.898-.432.7-2.44-1.706-4.185-1.101-4.594 1.593-.534 3.516 1.77 5.37 4.288 3.45.517-.395.715-.367.805.116.265 1.41-2.053 2.457-4.175 1.886zm14.587.044c-3.879-.98-4.153-7.665-.373-9.098 2.355-.894 4.871.087 5.665 2.207 1.495 3.994-1.472 7.856-5.292 6.891zm2.396-1.453c2.135-.892 2.094-5.663-.055-6.441-2.37-.86-4.174 1.308-3.608 4.336.346 1.848 2.001 2.8 3.663 2.105zm5.85 1.46c-1.223-.262-1.775-.801-1.627-1.59.091-.486.144-.489 1.043-.046 1.733.853 3.457.413 3.457-.883 0-.668-.422-1.028-1.963-1.678-2.153-.909-2.84-2.145-2.06-3.709.914-1.834 5.196-2.066 5.188-.28-.003.71-.104.756-.882.4-1.35-.618-2.571-.458-2.922.382-.36.858.098 1.434 1.614 2.032 4.443 1.753 2.853 6.376-1.847 5.371zm7.443-.006c-1.206-.254-1.748-.791-1.6-1.584.092-.486.145-.489 1.044-.046 1.733.853 3.457.413 3.457-.883 0-.668-.422-1.028-1.963-1.678-2.153-.909-2.84-2.145-2.06-3.709.913-1.834 5.196-2.066 5.188-.28-.003.71-.104.756-.882.4-1.35-.618-2.571-.458-2.922.382-.36.858.098 1.434 1.614 2.032 4.464 1.761 2.854 6.366-1.876 5.366zm14.983-.038c-4.377-1.138-3.86-8.583.644-9.287 3.147-.492 5.012 1.23 5.016 4.632.004 3.451-2.469 5.484-5.66 4.655zm2.85-1.632c1.745-1.155 1.528-5.36-.319-6.178-2.267-1.003-4.129.976-3.75 3.987.283 2.257 2.315 3.351 4.068 2.19zm5.989 1.617c-3.642-1.137-2.011-5.08 2.192-5.298l1.46-.075-.009-.764c-.018-1.734-1.517-2.403-3.494-1.558-1.4.598-1.343.583-1.463.394-.977-1.545 3.427-2.775 5.417-1.513 1.03.653 1.06.788 1.101 5.006.038 3.953.053 3.857-.58 3.861-.555.003-.681-.107-.681-.594 0-.552.011-.551-.646-.05-.922.704-2.201.933-3.297.59zm2.369-1.33c1.028-.468 1.34-.92 1.34-1.939v-.903l-1.371.041c-1.912.058-2.48.432-2.48 1.63 0 1.179 1.23 1.752 2.51 1.17zm7.026 1.34c-1.957-.73-2.912-3.386-2.241-6.232.675-2.864 3.355-4.04 5.492-2.41.286.22.547.399.578.399.032 0 .058-1.093.058-2.428 0-2.709 0-2.709.772-2.709.942 0 .862-.628.862 6.713 0 7.222.053 6.712-.7 6.712-.62 0-.701-.09-.701-.781v-.64l-.536.472c-1.057.93-2.522 1.3-3.584.904zm2.199-1.409c.223-.093.694-.442 1.047-.776l.64-.606v-3.676l-.686-.636c-2.322-2.15-4.535-.02-3.857 3.712.317 1.748 1.482 2.556 2.856 1.982zm6.403 1.413c-1.207-.308-1.6-.725-1.475-1.57.067-.46.114-.461 1.029-.01 1.471.724 3.075.499 3.39-.476.294-.91-.127-1.387-1.813-2.056-2.405-.955-3.167-2.745-1.809-4.248 1.356-1.5 4.827-1.277 4.832.31.003.647-.107.688-.84.309-1.16-.601-2.57-.419-2.95.382-.39.822.127 1.437 1.747 2.078 4.393 1.74 2.506 6.46-2.111 5.281zM8.69 38.687c-.113-.045-.146-1.073-.146-4.587v-4.528l.335-.067c.75-.15 1.004.04 1.043.781l.035.67.534-.595c1.235-1.373 3.073-1.404 3.073-.052 0 .756-.112.839-.87.648-.836-.21-1.545.216-2.297 1.381l-.335.52v2.882c0 3.198.043 3.034-.798 3.016-.235-.006-.494-.036-.574-.069zm30.75-.068c-.182-.134-.196-.515-.167-4.575l.03-4.428.354-.092c.72-.186 1.04.017 1.106.702l.058.61.493-.525c1.19-1.27 3.07-1.291 3.065-.036-.002.78-.095.853-.868.68-.865-.194-1.32.03-2.077 1.025l-.555.728v5.913l-.262.07c-.432.116-.964.083-1.176-.072zm-36.413.145c-3.877-.657-4.098-8.02-.275-9.17 1.864-.562 4.086.264 3.998 1.486-.045.623-.279.703-.828.284-2.186-1.667-4.21-.386-4.223 2.673-.013 3.236 1.91 4.457 4.309 2.735.622-.447.764-.38.764.357 0 .822-.713 1.358-2.157 1.625-.757.14-.814.14-1.588.01zm14.469.005c-2.584-.466-3.9-3.343-2.967-6.485 1.092-3.676 6.819-3.94 7.992-.368 1.338 4.076-1.203 7.542-5.025 6.853zm2.373-1.533c1.968-1.005 1.817-5.587-.21-6.361-1.682-.643-3.305.258-3.675 2.04-.682 3.28 1.395 5.59 3.885 4.32zm5.6 1.472c-1.184-.266-1.472-.486-1.516-1.162-.05-.784.056-.83.91-.389 1.936.999 4.158.098 3.43-1.39-.226-.46-.702-.754-2.324-1.434-2.345-.984-2.563-3.482-.403-4.631.976-.52 3.637-.187 3.896.487.314.82 0 1.069-.896.71-1.662-.665-3-.2-3 1.043 0 .504.57.956 1.977 1.57 4.236 1.847 2.49 6.22-2.074 5.196zm7.471 0c-1.184-.266-1.472-.486-1.516-1.162-.05-.784.056-.83.91-.389 1.936.999 4.158.098 3.43-1.39-.226-.46-.702-.754-2.324-1.434-2.345-.984-2.563-3.482-.403-4.631.976-.52 3.637-.187 3.896.487.314.82 0 1.069-.897.71-1.661-.665-3-.2-3 1.043 0 .504.57.956 1.978 1.57 4.23 1.844 2.483 6.218-2.074 5.196zm15.155.017c-2.378-.551-3.583-3.033-2.92-6.015.98-4.406 7.32-4.493 8.292-.114.86 3.87-1.838 6.949-5.372 6.13zm1.85-1.251c3.017-.647 2.73-6.571-.328-6.744-3.89-.22-4.271 6.482-.39 6.854.078.007.4-.042.717-.11zm7.156 1.288c-4.192-.87-2.278-5.356 2.288-5.365l1.08-.002v-.704c0-2.047-1.651-2.656-4.083-1.506-.85.402-.967.354-.915-.37.11-1.543 4.317-1.93 5.789-.533.657.624.726 1.092.726 4.929v3.408l-.32.063c-.713.14-.964-.01-.964-.579v-.517l-.437.35c-.908.727-2.118 1.042-3.164.825zm2.016-1.328c.216-.09.61-.36.876-.602l.485-.437-.034-.946-.034-.945-1.237.011c-1.488.013-2.117.27-2.48 1.016-.667 1.364.855 2.559 2.424 1.903zm7.327 1.328c-2.168-.45-3.322-3.71-2.383-6.728.78-2.502 3.368-3.421 5.369-1.907.766.58.728.696.728-2.174v-2.485l.402-.076c.221-.041.55-.026.73.034l.327.109.03 6.5.03 6.501-.322.123c-.65.247-1.017.01-1.057-.684l-.036-.607-.606.482c-1.063.845-2.108 1.142-3.212.912zm2.053-1.48c.229-.108.696-.481 1.039-.83l.622-.631V32.36l-.58-.596c-2.152-2.208-4.384-.76-4.172 2.706.152 2.501 1.385 3.622 3.09 2.813zm6.369 1.43c-1.234-.278-1.557-.545-1.557-1.291 0-.68.094-.708.94-.278 1.754.89 3.555.431 3.555-.907 0-.699-.354-1.01-1.88-1.654-2.505-1.057-3.18-2.79-1.704-4.368 1.182-1.263 4.693-.963 4.693.401 0 .578-.188.65-.835.32-1.545-.79-3.321-.148-3.084 1.113.102.548.455.815 1.936 1.465 2.153.944 2.665 1.667 2.32 3.278-.324 1.51-2.323 2.386-4.384 1.921zm-66.082-.026-.264-.055.03-4.515.03-4.515h1.285l.035.68.036.681.624-.65c1.204-1.252 2.985-1.272 2.98-.033-.002.754-.106.847-.74.67-.911-.256-1.463.01-2.254 1.084l-.506.687v2.964c0 2.437-.028 2.964-.16 2.964-.089 0-.312.021-.497.047a2.136 2.136 0 0 1-.6-.009zm30.819-.004-.263-.05v-9.09h1.284v.701c0 .845.008.847.652.131 1.224-1.361 2.967-1.363 2.967-.003v.718l-.38-.082c-1.291-.279-1.601-.16-2.474.953l-.531.676v2.94c0 1.618-.04 2.964-.088 2.991-.162.093-.902.165-1.167.115z"/>
  <path fill="#1c5aab" fill-rule="evenodd" d="M177.802 56.1q-.423 0-.778-.143-.354-.143-.619-.402-.259-.264-.402-.619-.142-.354-.142-.777 0-.424.142-.778.143-.355.402-.614.265-.264.62-.407.354-.143.777-.143.402 0 .751.143.355.143.62.407.269.26.417.614.153.354.153.778 0 .423-.142.777t-.408.62q-.259.258-.613.401-.355.143-.778.143zm0-.28q.339 0 .635-.122t.524-.344q.227-.227.354-.529.127-.301.127-.666 0-.344-.122-.646-.121-.301-.344-.529-.216-.227-.518-.354-.296-.133-.656-.133-.476 0-.852.217-.37.212-.582.588-.211.37-.211.857 0 .343.121.645.122.301.339.529.222.227.524.36.301.127.661.127zm-.725-.503v-2.312h.677q.434 0 .635.17.201.169.201.513 0 .248-.127.396-.127.143-.285.207l.613 1.026h-.455l-.529-.915h-.328v.915zm.667-1.243q.206 0 .322-.106.117-.106.117-.27 0-.185-.106-.27-.106-.084-.338-.084h-.26v.73z" aria-label="®" font-family="Sans" font-size="5.29" letter-spacing=".037" style="-inkscape-font-specification:Sans" transform="matrix(.4412 0 0 .4412 -8.573 -14.795)" word-spacing=".214"/>
</svg>
