<svg xmlns="http://www.w3.org/2000/svg" xml:space="preserve" viewBox="0 0 79.374998 39.6875">
  <path fill="#aad169" d="M56.93108237 21.2084722c-.19260847-.1160654-3.5626524-1.87930478-7.48898257-3.91830924-7.90256842-4.10392475-7.67643788-3.97488378-7.33612143-4.1863622.8017897-.49825134 16.26466884-8.48697209 16.4325174-8.4896722.9728237-.01566246 6.0022892 3.21411205 8.16681388 5.24446465 2.07583107 1.9471563 5.34270575 6.53485234 5.34270575 7.50279642 0 .02735414-.706862.02576584-1.57079855-.00352957-3.9863284-.13519566-8.68688236 1.25001826-12.2461905 3.60885002-.78364772.5193405-.82615695.52724674-1.29994398.24174888z"/>
  <path fill="#aad169" d="M18.38977302 21.14625916c-5.25444892-2.71421064-9.00378145-6.3585681-11.35713886-11.03916677-.2676462-.5323205-.47017716-.9800902-.45006966-.99504674.0201097-.01495654.50932845.01473594 1.0871574.06595878 3.69452189.32756148 8.75690104-1.0756047 12.60717257-3.49439498l.93386478-.586667L23.54542054 6.306856c9.46273239 4.90395408 13.07410605 6.82659312 13.07410605 6.96045637 0 .17998586-.04089886.20207654-9.27236872 5.00674831-8.34281883 4.34216612-6.96620338 3.90075405-8.95738485 2.87219848z"/>
  <path fill="#1c5aab" d="M37.23341978 10.92141205c-8.83576611-4.57678527-13.41140075-6.99462257-13.40336304-7.0825441.0130594-.1428548 1.93595213-.89077008 3.53022053-1.37308984 8.0231477-2.4272789 17.95540561-2.23161734 27.00267442.53194547.64203267.19611599 1.20252352.3897701 1.2455357.43034689.0686589.06476755-16.09319364 8.53691987-16.28541386 8.53691987-.0412077 0-.98157262-.46961332-2.08965375-1.04357829z"/>
  <path fill="#1c5aab" d="M34.98526245 25.61429847C30.6220354 25.21435 22.47488518 23.44451032 23.0298496 23.01718122c.3069091-.23632658 16.14025248-8.367333 16.29353275-8.367333.2356339 0 15.5648704 7.94295108 15.5648704 8.06504763 0 .2995323-5.00682774 1.84764015-7.4948946 2.31741671-3.1933935.60294713-9.13773162.88176087-12.40809571.58198591z"/>
  <path fill="#1c5aab" d="M2.68432439 38.7178164c-3.27027939-.88026521-3.66875251-7.3075187-.55099631-8.88740588 1.86440162-.94476365 4.66415485-.25826284 4.659108 1.1424194-.00238245.65627447-.15142063.89781599-.43263845.7010691-2.4397537-1.70688102-4.18479243-1.10203234-4.59399014 1.59233773-.53391497 3.51556356 1.77059808 5.3697334 4.28772608 3.44982537.51796574-.39507327.71497955-.36662055.8055831.11633894.26447047 1.40974882-2.05324802 2.45647725-4.17479228 1.88541534zm14.58621716.04433137c-3.87838585-.97943282-4.15247218-7.66496238-.373002-9.09828429 2.35573368-.89338638 4.87149927.08686265 5.66523053 2.20741334 1.49481094 3.99357283-1.47138212 7.85577518-5.29222853 6.89087095zm2.39635813-1.45306984c2.13462175-.89190397 2.09423511-5.66274484-.05452696-6.44125705-2.37115172-.8590878-4.1745889 1.30859584-3.60788469 4.33658059.34587199 1.84804604 2.00065659 2.79899967 3.66241165 2.10467646zm5.85101944 1.45931717c-1.22376577-.26145268-1.77611435-.80067789-1.62813813-1.58945672.09124813-.48639641.144339-.4887524 1.04314327-.04627263 1.73331217.85330815 3.45691936.4132373 3.45691936-.88261679 0-.66774115-.42135664-1.0280923-1.96258977-1.67844593-2.15330507-.90863412-2.84016413-2.14466646-2.06083659-3.70857353.91415215-1.83446604 5.19657417-2.0661027 5.18896928-.2806756-.00304425.71096954-.10424356.75692009-.88240546.40061911-1.34966323-.61798308-2.57132406-.45845106-2.92232671.3816168-.35880962.8587525.09859492 1.43454402 1.61478225 2.03273065 4.4426273 1.75276538 2.85261026 6.3752409-1.8475175 5.37107464zm7.4422114-.00489727c-1.20612589-.25475533-1.74816415-.79175691-1.5994326-1.58455945.09124857-.48639641.14433943-.4887524 1.04314326-.04627263 1.73331261.85330815 3.45692113.4132373 3.45692113-.88261679 0-.66774115-.42135796-1.0280923-1.96259153-1.67844593-2.15330508-.90863412-2.84016413-2.14466646-2.0608366-3.70857353.91415215-1.83446604 5.19657241-2.0661027 5.1889706-.2806756-.00308837.71096954-.10424576.75692009-.88240501.40061911-1.349665-.61798308-2.57132583-.45845106-2.92232848.3816168-.35880962.8587525.09859493 1.43454402 1.6147827 2.03273065 4.46381706 1.76112604 2.8540212 6.36529193-1.87622347 5.36617737zm14.98250328-.03864876c-4.37648675-1.13752213-3.86020373-8.58331162.6439607-9.28708084 3.1476106-.49180547 5.01228091 1.23009826 5.01620755 4.63215536.00397077 3.45132103-2.46831452 5.4845414-5.66016825 4.65492548zm2.8496666-1.6320542c1.74537977-1.15506407 1.52893348-5.36033152-.31795222-6.17729836-2.26746451-1.00300591-4.12905527.97571354-3.7509504 3.98695049.28338895 2.25693316 2.31539603 3.35079013 4.06890263 2.19034788zm5.98956952 1.61712413c-3.64210295-1.13730153-2.01096645-5.07926769 2.19204207-5.2974964l1.45916276-.07576217-.00798565-.76324683c-.01817727-1.73429692-1.51713148-2.4029293-3.4939979-1.55854213-1.39986603.59793073-1.34336649.58270948-1.46263056.394085-.97700624-1.54523125 3.42675083-2.77540893 5.41700755-1.51322249 1.03002034.6532214 1.0598187.78876119 1.10056756 5.0060777.03820757 3.95270927.05250231 3.85751685-.5803579 3.86114789-.55466706.00308837-.68076084-.10690618-.68076084-.59436587 0-.55168899.01155933-.55081542-.64596373-.04893303-.92167145.70353096-2.20091893.93254692-3.29707453.59025833zm2.36897927-1.33058063c1.02765553-.4668426 1.34059136-.91931987 1.34059136-1.9383765v-.90319416l-1.37161184.04160477c-1.91193121.05797314-2.48057977.43173666-2.48057977 1.6304306 0 1.17823126 1.23082182 1.7513756 2.51160025 1.16954853zm7.0258063 1.34092226c-1.95669053-.729513-2.9117605-3.38589609-2.24069715-6.23215225.67536061-2.86448197 3.35514033-4.04010577 5.49171525-2.40922516.28664056.21879786.54697702.3978175.57852252.3978175.03154551 0 .05735547-1.09262161.05735547-2.42804657 0-2.70867805-.00013236-2.70821038.77256489-2.70821038.94235912 0 .86169969-.62830707.86169969 6.71215132 0 7.22246055.05324793 6.71215573-.70039848 6.71215573-.61963315 0-.70039847-.09008337-.70039847-.78117703v-.6394649l-.5355324.47139574c-1.05739654.93076009-2.5229787 1.3006499-3.58483131.904756zm2.19925122-1.40923262c.22332895-.09331293.69441145-.4423783 1.04684755-.77570179l.64079732-.6060355v-3.67644564l-.68644786-.63552944c-2.3223537-2.15009317-4.53474813-.02122152-3.85713742 3.7115516.31725514 1.74765192 1.4821667 2.55615663 2.85594041 1.98216077zm6.40278917 1.41337104c-1.206684-.30802091-1.59898655-.7254231-1.47510316-1.56947497.06775445-.46163208.11391237-.46214828 1.0293056-.0115152 1.47136182.72434658 3.07548831.49937197 3.390586-.47552094.293885-.90926502-.12745267-1.3869787-1.8135004-2.05615374-2.4052147-.95460672-3.16718206-2.74429138-1.80862961-4.2480458 1.35516406-1.50000426 4.82632566-1.2770371 4.83212298.31039013.00220598.64718584-.10788563.68766998-.84014728.30851064-1.16067167-.6009794-2.57010724-.41846548-2.94995484.38200505-.39012305.82212001.12707765 1.43776034 1.7462401 2.0786106 4.39338014 1.73886772 2.50639414 6.45980052-2.11091939 5.28117658zm-66.0875596-.03697222c-.11321351-.04568142-.14591628-1.07375608-.14591628-4.58714896V29.5720065l.33484518-.06696913c.74945725-.14989189 1.00383713.04067826 1.04277134.78122556l.03518537.66925446.53447618-.59446734c1.23483847-1.3734384 3.07224331-1.40435299 3.07224331-.05169051 0 .75527883-.11206464.83867368-.87042081.64771527-.83515338-.2102916-1.54472652.21640217-2.29654726 1.38101373l-.3350243.5189699v2.8829813c0 3.19797753.04347544 3.03357912-.79749555 3.01548127-.2355108-.00507376-.49386409-.03569275-.57411806-.06809418zm30.7506807-.06860596c-.18245214-.13376177-.19646452-.51478295-.16822799-4.57438075l.03079548-4.42846404.3538744-.09167168c.7200714-.18653321 1.03965164.0164566 1.10529276.70198236l.0583658.60956948.49278052-.52506281c1.19102154-1.26904263 3.07033514-1.29092594 3.06579083-.03569275-.00264718.7799461-.09586746.85280077-.86834852.67992698-.86520279-.19362322-1.31966102.03066312-2.07737526 1.02524219l-.55448176.7278188v5.91269113l-.26264832.07038398c-.43207196.11579186-.96383654.08307719-1.17581793-.07233848zm-36.41395453.14473431c-3.87658534-.65612446-4.09769066-8.0199883-.27534594-9.17034922 1.86464825-.5611747 4.0861269.26488519 3.99804215 1.48668014-.0448961.62276565-.2785402.7029133-.82780703.28396691-2.18598004-1.6673278-4.20980294-.38610817-4.22264174 2.67321913-.01358883 3.23557624 1.9103385 4.45668293 4.30839699 2.7345233.6222671-.44687849.76410275-.38052704.76410275.35745692 0 .82148468-.71226224 1.35828331-2.15651257 1.6252686-.75662007.13986791-.81442996.14020322-1.58823461.00922099zm14.46908539.00525023c-2.58412404-.4656602-3.9007364-3.3430692-2.9673556-6.48505456 1.09191129-3.67565149 6.81933103-3.93937633 7.99211353-.36800149 1.33841627 4.07575881-1.20290736 7.54175843-5.02475793 6.85305605zm2.37272502-1.53327484c1.96866901-1.00433832 1.81773148-5.58660325-.20951951-6.3608182-1.68182109-.64229298-3.30498959.25864667-3.675025 2.03982066-.68165206 3.28112971 1.39497758 5.59108139 3.88454451 4.32099754zm5.60042592 1.47235893c-1.18422271-.26549404-1.47227068-.48629052-1.51560494-1.16173496-.05029634-.78397421.05560833-.82924532.90957386-.38882153 1.9357999.99836895 4.15803301.09761018 3.42968919-1.39018619-.2252658-.46014966-.70135587-.75406554-2.32354492-1.43444255-2.34505322-.9835624-2.56280986-3.48217385-.40357953-4.63085824.97655622-.51951257 3.63748364-.18648909 3.8961612.48762294.31470062.82009492.0008824 1.0683735-.89628945.70939887-1.66143342-.66467926-2.99987175-.19942937-2.99987175 1.04277972 0 .5041722.56983538.95671123 1.97753704 1.57047648 4.23595704 1.84691217 2.49063463 6.21913256-2.0740707 5.19576546zm7.47092001 0c-1.1842227-.26549404-1.4722751-.48629052-1.51560935-1.16173496-.05029634-.78397421.05561274-.82924532.90957386-.38882153 1.9357999.99836895 4.15803919.09761018 3.42969095-1.39018619-.22526315-.46014966-.70135322-.75406554-2.32354227-1.43444255-2.34505763-.9835624-2.56280986-3.48217385-.40357953-4.63085824.97655622-.51951257 3.637481-.18648909 3.89616297.48762294.3146962.82009492.00088239 1.0683735-.89628945.70939887-1.6614396-.66467926-2.99987352-.19942937-2.99987352 1.04277972 0 .5041722.56983097.95671123 1.97753263 1.57047648 4.2292041 1.8439694 2.48336108 6.21750014-2.07406629 5.19576546zm15.15510265.01747135c-2.37846498-.55160074-3.58299153-3.03292173-2.91992264-6.01501328.97970195-4.40613952 7.31911774-4.49339925 8.2919591-.11413737.85973636 3.87012622-1.83848975 6.9486279-5.37203646 6.12915065zm1.8490255-1.25152273c3.0175593-.64715054 2.7299481-6.5708098-.3274203-6.74356447-3.89042123-.21983026-4.27100122 6.4820059-.38920536 6.8537708.07709457.00736796.39957347-.04222245.71662566-.11020633zm7.1565503 1.2877008c-4.19151979-.86950004-2.27773997-5.35586663 2.2883463-5.36443465l1.07978283-.00220598v-.70414864c0-2.047246-1.65103444-2.6561228-4.08327679-1.50585452-.84952268.4017574-.96658519.35440825-.91455055-.36991628.11084165-1.54286644 4.31694737-1.92998936 5.7889754-.5328058.6575054.624076.7263805 1.0914304.7263805 4.92868311v3.40785l-.32101413.0632719c-.71264608.14046795-.9630468-.0099269-.9630468-.57849605v-.51719188l-.43775015.35037572c-.90721346.72613784-2.11779322 1.04169438-3.16384661.82469659zm2.0165564-1.32782756c.21555949-.09006573.60984302-.36063353.87618416-.60125735l.48426102-.43750308-.03361913-.94545632-.03361913-.94545632-1.2378236.0110299c-1.4876949.01323587-2.11669905.27075309-2.48049153 1.01546087-.66654993 1.36447329.85554942 2.55898469 2.42510821 1.9031823zm7.32646807 1.32857318c-2.16762188-.4503463-3.32209476-3.71085892-2.38248428-6.72870058.77897988-2.50192042 3.36737469-3.42088292 5.3687672-1.90608537.76636166.58003583.72766878.69567327.72766878-2.1746766v-2.4850182l.40230006-.07547097c.22126416-.04151653.54957566-.02638351.72957918.03361913l.32728352.10908127.0301778 6.5006729.0301778 6.50067289-.321998.12258186c-.64998743.24744472-1.01735801.0098828-1.05760832-.68388451l-.03520743-.6069576-.60682082.48236388c-1.06222323.84436952-2.10776484 1.14119288-3.2118046.91181513zm2.05279623-1.47940924c.22932922-.10882537.6969042-.48231534 1.03905603-.8299777l.62209944-.6321146V32.36003804l-.58008435-.59554827c-2.15112998-2.20848103-4.38362089-.760507-4.1720851 2.70597352.152592 2.50053065 1.38507713 3.62193148 3.09101398 2.81241202zm6.36939506 1.42950557c-1.23437345-.2785049-1.55644645-.54574608-1.55644645-1.2914642 0-.68024023.09383796-.70798704.94007815-.27795782 1.75330364.89096422 3.55414173.43144987 3.55414173-.90690021 0-.69881017-.35391852-1.01024153-1.87976804-1.65410516-2.50447935-1.05681416-3.1805194-2.78946101-1.7041103-4.36751724 1.18172996-1.26309089 4.69284627-.96321445 4.69284627.4008 0 .57813427-.18742884.649758-.83499852.31909934-1.54431798-.78854942-3.32064322-.14703295-3.08410487 1.11382108.102856.54826972.45567594.81507411 1.9367882 1.46459388 2.15310653.94421656 2.66478346 1.6674028 2.31935796 3.2780634-.32389514 1.5102753-2.32295371 2.38653004-4.38378413 1.92156693zm-66.08202215-.0261188-.26401162-.05478329.03053075-4.5151105.03053076-4.5151105H9.86600167l.03529567.68053584.03529567.68053584.62441572-.6498639c1.20380298-1.25286397 2.98484461-1.27280603 2.98031794-.03335441-.00264717.75373023-.10595319.8468711-.74122674.66900739-.91029742-.25486563-1.46247172.01107401-2.25324035 1.0852713l-.50573844.68699935v2.9638481c0 2.43696315-.02854537 2.96385252-.16050707 2.96385252-.08827888 0-.31153282.02091268-.49611595.0464844-.18458312.02558936-.45441412.0218392-.59962051-.00829449zm30.81889797-.00441195-.26264832-.05021692V29.54268903H40.62520143v.70039847c0 .84522985.00780916.84680051.65139485.13097783 1.22401858-1.36140257 2.96733355-1.36289381 2.96733355-.00264718v.71787866l-.37938435-.08199185c-1.2917995-.27918875-1.6015102-.16001733-2.47466334.95222427l-.53106749.67648125-.00007059 2.94062355c-.00004412 1.6173403-.03948703 2.96308483-.08762592 2.99054486-.16227184.09253202-.90257649.16518816-1.16732932.11456534z"/>
  <path fill="#1c5aab" fill-rule="evenodd" d="M177.802 56.099974q-.4232 0-.77763-.142831-.35444-.142831-.61894-.402042-.25921-.264502-.40204-.618934-.14283-.354432-.14283-.777634 0-.423203.14283-.777635.14283-.354432.40204-.613643.2645-.264502.61894-.407333.35443-.14283.77763-.14283.40204 0 .75119.14283.35443.142831.61893.407333.26979.259211.41791.613643.15341.354432.15341.777635 0 .423202-.14283.777634t-.40733.618934q-.25921.259211-.61364.402042-.35444.142831-.77764.142831zm0-.280372q.33856 0 .6348-.121671.29625-.12167.52372-.343852.22747-.227471.35443-.529003.12696-.301531.12696-.666543 0-.343852-.12167-.645384-.12167-.301532-.34385-.529003-.21689-.227471-.51842-.354432-.29625-.132251-.65597-.132251-.4761 0-.85169.216891-.37031.211602-.58191.587194-.2116.370302-.2116.856985 0 .343852.12167.645383.12167.301532.33856.529003.22219.227472.52372.359722.30153.126961.66125.126961zm-.72473-.502553v-2.311743h.67712q.43378 0 .6348.169281.20103.169281.20103.513133 0 .248631-.12696.396752-.12697.142831-.28567.206311l.61365 1.026266h-.45495l-.529-.915175h-.32798v.915175zm.66654-1.243157q.20631 0 .32269-.1058.11638-.105801.11638-.269792 0-.185151-.1058-.269791-.1058-.08464-.33856-.08464h-.25921v.730024z" aria-label="®" font-family="Sans" font-size="5.29003" letter-spacing=".0374711" style="-inkscape-font-specification:Sans" transform="translate(-8.5727861 -14.795389) scale(.44119589)" word-spacing=".213806"/>
</svg>
