<?xml version="1.0" encoding="utf-8"?>
<!-- Generator: Adobe Illustrator 27.9.0, SVG Export Plug-In . SVG Version: 6.00 Build 0)  -->
<svg version="1.1" id="Layer_1" xmlns="http://www.w3.org/2000/svg" xmlns:xlink="http://www.w3.org/1999/xlink" x="0px" y="0px"
	 viewBox="0 0 475.9 60" style="enable-background:new 0 0 475.9 60;" xml:space="preserve">
<style type="text/css">
	.st0{fill:#134289;}
	.st1{fill:#6C7BA0;}
</style>
<g>
	<g>
		<g>
			<path class="st0" d="M69.7,28c-1.1,0-2.1-0.2-3.1-0.7c-1-0.4-1.9-1.1-2.7-1.9c-0.8-0.8-1.4-1.8-1.8-3c-0.5-1.2-0.7-2.5-0.7-4.1
				s0.2-2.9,0.7-4.1c0.4-1.2,1.1-2.3,1.9-3.2c0.8-0.9,1.7-1.6,2.8-2c1.1-0.5,2.2-0.7,3.4-0.7c0.9,0,1.7,0.1,2.5,0.3
				c0.7,0.2,1.4,0.6,2.1,1l0.5-0.9h1l0.1,6.7h-1.1c-0.1-0.7-0.3-1.4-0.6-2.1s-0.6-1.4-1-1.9c-0.4-0.6-0.9-1.1-1.5-1.4
				c-0.6-0.3-1.2-0.5-2-0.5c-0.8,0-1.6,0.2-2.3,0.6S66.5,11,66,11.7c-0.5,0.7-0.9,1.6-1.2,2.7s-0.4,2.3-0.4,3.7
				c0,1.2,0.1,2.3,0.4,3.3c0.3,1,0.7,1.9,1.3,2.6c0.6,0.8,1.2,1.3,2,1.8c0.8,0.4,1.6,0.6,2.5,0.6c0.7,0,1.3-0.1,1.9-0.3
				c0.6-0.2,1.1-0.5,1.5-0.9c0.4-0.4,0.8-0.8,1.1-1.3s0.6-1,0.8-1.6l1,0.5c-0.7,1.9-1.7,3.2-2.9,4C72.8,27.6,71.4,28,69.7,28z"/>
			<path class="st0" d="M91.5,20.9c0,0.9-0.1,1.8-0.4,2.7c-0.3,0.9-0.7,1.6-1.2,2.3c-0.6,0.7-1.3,1.2-2.1,1.6
				c-0.8,0.3-1.7,0.5-2.6,0.5c-0.8,0-1.6-0.2-2.3-0.5c-0.7-0.3-1.4-0.8-2-1.4c-0.6-0.6-1-1.3-1.3-2.2c-0.3-0.9-0.5-1.8-0.5-2.9
				c0-2,0.6-3.7,1.7-5c1.2-1.3,2.7-1.9,4.6-1.9c1.8,0,3.3,0.6,4.4,1.8C90.9,17.2,91.5,18.8,91.5,20.9z M88.8,20.9
				c0-0.7-0.1-1.4-0.2-2.1c-0.1-0.7-0.3-1.4-0.6-1.9c-0.3-0.5-0.6-1-1.1-1.3s-1-0.5-1.6-0.5c-0.7,0-1.2,0.2-1.7,0.5
				c-0.5,0.3-0.9,0.8-1.1,1.4c-0.3,0.5-0.5,1.2-0.6,1.8s-0.2,1.4-0.2,2c0,0.8,0.1,1.6,0.2,2.4s0.3,1.4,0.6,1.9
				c0.3,0.6,0.7,1,1.1,1.3c0.4,0.3,1,0.5,1.7,0.5c1.1,0,1.9-0.5,2.6-1.6C88.5,24.3,88.8,22.8,88.8,20.9z"/>
			<path class="st0" d="M115.1,27.5h-6.2v-0.9c0.2,0,0.4,0,0.6-0.1c0.2,0,0.4-0.1,0.5-0.1c0.2-0.1,0.4-0.2,0.5-0.4
				c0.1-0.2,0.2-0.5,0.2-0.8v-6.7c0-0.9-0.2-1.6-0.6-2.1c-0.4-0.5-0.9-0.7-1.5-0.7c-0.4,0-0.8,0.1-1.2,0.2c-0.4,0.1-0.7,0.3-1,0.6
				c-0.3,0.2-0.5,0.4-0.6,0.6c-0.2,0.2-0.3,0.4-0.4,0.6v7.5c0,0.3,0.1,0.6,0.2,0.8c0.1,0.2,0.3,0.4,0.5,0.5c0.2,0.1,0.4,0.1,0.5,0.2
				c0.2,0,0.4,0.1,0.6,0.1v0.9h-6.1v-0.9c0.2,0,0.4,0,0.6-0.1c0.2,0,0.4-0.1,0.5-0.1c0.2-0.1,0.4-0.2,0.5-0.4
				c0.1-0.2,0.2-0.5,0.2-0.8v-6.7c0-0.9-0.2-1.6-0.6-2.1c-0.4-0.5-0.9-0.7-1.5-0.7c-0.4,0-0.8,0.1-1.2,0.2c-0.4,0.1-0.7,0.3-1,0.6
				c-0.3,0.2-0.5,0.4-0.6,0.7c-0.2,0.2-0.3,0.4-0.4,0.6v7.5c0,0.3,0.1,0.6,0.2,0.8s0.3,0.4,0.5,0.5c0.2,0.1,0.4,0.2,0.6,0.2
				c0.2,0,0.4,0.1,0.6,0.1v0.9h-6.2v-0.9c0.2,0,0.4,0,0.6-0.1c0.2,0,0.4-0.1,0.6-0.1c0.2-0.1,0.4-0.2,0.5-0.4
				c0.1-0.2,0.2-0.5,0.2-0.8v-8.1c0-0.3-0.1-0.5-0.2-0.8c-0.1-0.2-0.3-0.4-0.5-0.6c-0.2-0.1-0.4-0.2-0.6-0.3
				c-0.2-0.1-0.5-0.1-0.8-0.1v-0.9l4.3-0.3l0.2,0.2v1.9h0.1c0.2-0.2,0.5-0.5,0.8-0.8c0.3-0.3,0.6-0.5,0.9-0.7
				c0.3-0.2,0.7-0.4,1.1-0.5c0.5-0.1,0.9-0.2,1.5-0.2c0.8,0,1.5,0.2,2.1,0.7c0.6,0.5,1,1,1.3,1.6c0.3-0.3,0.6-0.6,0.8-0.8
				s0.5-0.5,0.9-0.7c0.3-0.2,0.7-0.4,1.2-0.6c0.4-0.1,0.9-0.2,1.5-0.2c1.1,0,1.9,0.4,2.6,1.1c0.6,0.7,0.9,1.8,0.9,3.3v6.6
				c0,0.3,0.1,0.6,0.2,0.8c0.1,0.2,0.3,0.4,0.5,0.5c0.2,0.1,0.4,0.1,0.6,0.2s0.4,0.1,0.7,0.1V27.5z"/>
			<path class="st0" d="M128.1,16c0.5,0.6,0.9,1.3,1.2,2.2c0.3,0.8,0.4,1.8,0.4,2.8c0,1-0.2,2-0.5,2.8c-0.3,0.9-0.8,1.6-1.3,2.2
				c-0.6,0.6-1.2,1.1-1.9,1.4c-0.7,0.3-1.5,0.5-2.3,0.5c-0.8,0-1.4-0.1-1.9-0.3c-0.5-0.2-0.9-0.4-1.2-0.6h-0.1v3.9
				c0,0.3,0.1,0.6,0.2,0.8c0.1,0.2,0.3,0.4,0.6,0.5c0.2,0.1,0.5,0.2,0.9,0.2c0.4,0.1,0.7,0.1,1,0.1v0.9H116v-0.9
				c0.3,0,0.5,0,0.8-0.1s0.5-0.1,0.7-0.1c0.3-0.1,0.4-0.2,0.5-0.5c0.1-0.2,0.2-0.5,0.2-0.8V17.2c0-0.3-0.1-0.5-0.2-0.8
				c-0.1-0.2-0.3-0.4-0.5-0.6c-0.2-0.1-0.4-0.2-0.6-0.2c-0.3-0.1-0.5-0.1-0.8-0.1v-0.9l4.3-0.3l0.2,0.2v1.5l0.1,0
				c0.4-0.5,1-1,1.7-1.3c0.7-0.4,1.3-0.5,2-0.5c0.8,0,1.5,0.2,2.2,0.5C127.1,15,127.7,15.4,128.1,16z M126,25.4
				c0.3-0.5,0.6-1.2,0.8-1.9c0.2-0.7,0.2-1.5,0.2-2.4c0-0.7-0.1-1.3-0.2-2c-0.1-0.7-0.4-1.3-0.6-1.8c-0.3-0.5-0.7-0.9-1.2-1.2
				c-0.5-0.3-1-0.5-1.7-0.5c-0.6,0-1.2,0.1-1.6,0.4c-0.4,0.3-0.8,0.6-1.2,1v7.7c0.1,0.2,0.2,0.5,0.4,0.7c0.2,0.3,0.4,0.5,0.6,0.7
				c0.3,0.2,0.6,0.4,0.9,0.5c0.3,0.1,0.7,0.2,1.1,0.2c0.5,0,0.9-0.1,1.4-0.4C125.3,26.3,125.7,25.9,126,25.4z"/>
			<path class="st0" d="M141.4,16.2c0,0.5-0.1,0.9-0.3,1.2c-0.2,0.3-0.5,0.5-1,0.5c-0.5,0-0.9-0.1-1.1-0.4c-0.3-0.3-0.4-0.5-0.4-0.8
				c0-0.2,0-0.4,0-0.5c0-0.2,0.1-0.3,0.1-0.5c-0.4,0-0.9,0.2-1.4,0.5c-0.5,0.3-1,0.8-1.4,1.4v7.6c0,0.3,0.1,0.6,0.2,0.8
				c0.1,0.2,0.3,0.3,0.6,0.4c0.2,0.1,0.5,0.2,0.8,0.2c0.3,0,0.6,0.1,0.9,0.1v0.9h-6.7v-0.9c0.2,0,0.4,0,0.6-0.1
				c0.2,0,0.4-0.1,0.5-0.1c0.2-0.1,0.4-0.2,0.5-0.4c0.1-0.2,0.2-0.5,0.2-0.8v-8.1c0-0.3-0.1-0.5-0.2-0.8c-0.1-0.3-0.3-0.5-0.5-0.6
				c-0.2-0.1-0.4-0.2-0.6-0.2c-0.2,0-0.5-0.1-0.7-0.1v-0.9l4.2-0.3l0.2,0.2v1.8h0.1c0.5-0.7,1.1-1.3,1.8-1.6s1.3-0.6,1.8-0.6
				c0.5,0,1,0.2,1.3,0.5C141.2,15.1,141.4,15.5,141.4,16.2z"/>
			<path class="st0" d="M154.2,24.5c-0.5,1-1.3,1.9-2.1,2.5c-0.9,0.6-1.9,0.9-3.1,0.9c-1,0-1.9-0.2-2.7-0.6
				c-0.8-0.4-1.4-0.9-1.9-1.5c-0.5-0.6-0.9-1.4-1.1-2.2c-0.2-0.8-0.4-1.7-0.4-2.7c0-0.8,0.1-1.7,0.4-2.5c0.3-0.8,0.6-1.6,1.2-2.2
				c0.5-0.6,1.1-1.1,1.8-1.5c0.7-0.4,1.5-0.6,2.5-0.6c0.9,0,1.7,0.1,2.4,0.5c0.7,0.3,1.2,0.7,1.6,1.2c0.4,0.5,0.7,1.1,0.9,1.7
				s0.3,1.4,0.3,2.2v0.9h-8.4c0,0.9,0.1,1.6,0.2,2.3c0.2,0.7,0.4,1.3,0.8,1.8c0.3,0.5,0.8,0.9,1.3,1.2c0.5,0.3,1.2,0.4,1.9,0.4
				c0.8,0,1.4-0.2,2-0.6c0.6-0.4,1.1-1,1.6-2L154.2,24.5z M151.4,19.5c0-0.5,0-1-0.1-1.6c-0.1-0.6-0.2-1-0.4-1.4
				c-0.2-0.4-0.5-0.7-0.8-1c-0.3-0.3-0.8-0.4-1.3-0.4c-0.9,0-1.7,0.4-2.3,1.2c-0.6,0.8-0.9,1.8-1,3.2
				C145.5,19.5,151.4,19.5,151.4,19.5z"/>
			<path class="st0" d="M169.8,27.5h-6.3v-0.9c0.2,0,0.4,0,0.7-0.1c0.2,0,0.4-0.1,0.6-0.1c0.2-0.1,0.4-0.2,0.5-0.4
				c0.1-0.2,0.2-0.5,0.2-0.8v-6.7c0-0.9-0.2-1.6-0.6-2.1c-0.4-0.5-0.9-0.8-1.6-0.8c-0.4,0-0.9,0.1-1.3,0.2c-0.4,0.1-0.7,0.3-1,0.5
				c-0.3,0.2-0.5,0.4-0.7,0.7c-0.2,0.2-0.3,0.4-0.4,0.6v7.5c0,0.3,0.1,0.5,0.2,0.7c0.1,0.2,0.3,0.3,0.5,0.5c0.2,0.1,0.4,0.2,0.6,0.2
				c0.2,0,0.4,0.1,0.7,0.1v0.9h-6.2v-0.9c0.2,0,0.4,0,0.6-0.1c0.2,0,0.4-0.1,0.5-0.1c0.2-0.1,0.4-0.2,0.5-0.4
				c0.1-0.2,0.2-0.5,0.2-0.8V10.1c0-0.3-0.1-0.6-0.2-0.9c-0.1-0.3-0.3-0.5-0.5-0.7c-0.2-0.1-0.4-0.2-0.8-0.2c-0.4,0-0.7-0.1-1-0.1
				V7.3l4.7-0.3l0.2,0.2v9.1h0.1c0.3-0.3,0.5-0.6,0.8-0.8c0.2-0.2,0.5-0.5,0.9-0.7c0.3-0.2,0.7-0.4,1.2-0.5c0.4-0.1,0.9-0.2,1.5-0.2
				c1.1,0,2,0.4,2.6,1.1c0.6,0.7,0.9,1.8,0.9,3.2v6.8c0,0.3,0.1,0.6,0.2,0.7c0.1,0.2,0.3,0.3,0.5,0.4c0.2,0.1,0.4,0.1,0.5,0.2
				s0.4,0.1,0.6,0.1V27.5z"/>
			<path class="st0" d="M182.7,24.5c-0.5,1-1.3,1.9-2.1,2.5c-0.9,0.6-1.9,0.9-3.1,0.9c-1,0-1.9-0.2-2.7-0.6
				c-0.8-0.4-1.4-0.9-1.9-1.5c-0.5-0.6-0.9-1.4-1.1-2.2c-0.2-0.8-0.4-1.7-0.4-2.7c0-0.8,0.1-1.7,0.4-2.5c0.3-0.8,0.6-1.6,1.2-2.2
				c0.5-0.6,1.1-1.1,1.8-1.5c0.7-0.4,1.5-0.6,2.5-0.6c0.9,0,1.7,0.1,2.4,0.5c0.7,0.3,1.2,0.7,1.6,1.2c0.4,0.5,0.7,1.1,0.9,1.7
				s0.3,1.4,0.3,2.2v0.9h-8.4c0,0.9,0.1,1.6,0.2,2.3c0.2,0.7,0.4,1.3,0.8,1.8c0.3,0.5,0.8,0.9,1.3,1.2c0.5,0.3,1.2,0.4,1.9,0.4
				c0.8,0,1.4-0.2,2-0.6c0.6-0.4,1.1-1,1.6-2L182.7,24.5z M179.8,19.5c0-0.5,0-1-0.1-1.6c-0.1-0.6-0.2-1-0.4-1.4
				c-0.2-0.4-0.5-0.7-0.8-1c-0.3-0.3-0.8-0.4-1.3-0.4c-0.9,0-1.7,0.4-2.3,1.2c-0.6,0.8-0.9,1.8-1,3.2
				C173.9,19.5,179.8,19.5,179.8,19.5z"/>
			<path class="st0" d="M198.4,27.5h-6.2v-0.9c0.2,0,0.4,0,0.7-0.1c0.2,0,0.4-0.1,0.6-0.1c0.2-0.1,0.4-0.2,0.5-0.4
				c0.1-0.2,0.2-0.5,0.2-0.8v-6.7c0-0.9-0.2-1.6-0.6-2.1c-0.4-0.5-0.9-0.8-1.6-0.8c-0.5,0-0.9,0.1-1.3,0.2c-0.4,0.1-0.7,0.3-1,0.5
				c-0.3,0.2-0.5,0.4-0.7,0.7c-0.2,0.2-0.3,0.4-0.4,0.6v7.5c0,0.3,0.1,0.5,0.2,0.7c0.1,0.2,0.3,0.3,0.5,0.5c0.2,0.1,0.4,0.2,0.6,0.2
				c0.2,0,0.4,0.1,0.7,0.1v0.9h-6.2v-0.9c0.2,0,0.4,0,0.6-0.1c0.2,0,0.4-0.1,0.5-0.1c0.2-0.1,0.4-0.2,0.5-0.4
				c0.1-0.2,0.2-0.5,0.2-0.8v-8.1c0-0.3-0.1-0.6-0.2-0.8s-0.3-0.5-0.5-0.6c-0.2-0.1-0.4-0.2-0.6-0.2c-0.2,0-0.5-0.1-0.7-0.1v-0.9
				l4.2-0.3l0.2,0.2v1.8h0.1c0.2-0.2,0.5-0.5,0.8-0.8c0.3-0.3,0.6-0.5,0.9-0.7c0.3-0.2,0.7-0.4,1.1-0.5c0.4-0.1,0.9-0.2,1.5-0.2
				c1.2,0,2.1,0.4,2.7,1.2c0.6,0.8,0.9,1.8,0.9,3.1v6.8c0,0.3,0.1,0.6,0.2,0.7c0.1,0.2,0.3,0.3,0.5,0.4c0.2,0.1,0.4,0.2,0.5,0.2
				c0.2,0,0.4,0.1,0.6,0.1V27.5z"/>
			<path class="st0" d="M209,21.1c0.4,0.3,0.6,0.7,0.8,1.1c0.2,0.4,0.3,0.9,0.3,1.5c0,1.2-0.4,2.2-1.3,3c-0.9,0.8-2,1.2-3.4,1.2
				c-0.7,0-1.4-0.1-2.1-0.4c-0.6-0.3-1.1-0.5-1.3-0.8l-0.3,0.9h-1l-0.1-4.5h0.9c0.1,0.3,0.2,0.7,0.4,1.2c0.2,0.5,0.5,0.9,0.8,1.2
				c0.3,0.4,0.7,0.7,1.2,1c0.5,0.3,1,0.4,1.6,0.4c0.8,0,1.5-0.2,1.9-0.6c0.4-0.4,0.7-0.9,0.7-1.7c0-0.4-0.1-0.7-0.2-1
				c-0.1-0.3-0.4-0.5-0.6-0.7c-0.3-0.2-0.6-0.4-1-0.6c-0.4-0.2-0.9-0.3-1.4-0.5c-0.4-0.1-0.9-0.3-1.4-0.5c-0.5-0.2-0.9-0.5-1.3-0.8
				c-0.4-0.3-0.7-0.7-0.9-1.1c-0.2-0.5-0.4-1-0.4-1.6c0-1.1,0.4-2,1.2-2.7s1.8-1.1,3.1-1.1c0.5,0,1,0.1,1.5,0.2
				c0.5,0.1,0.9,0.3,1.3,0.5l0.3-0.7h0.9l0.2,4.2h-0.9c-0.2-0.9-0.6-1.7-1.2-2.3c-0.6-0.6-1.3-0.9-2.2-0.9c-0.7,0-1.3,0.2-1.7,0.5
				c-0.4,0.4-0.6,0.8-0.6,1.3c0,0.4,0.1,0.7,0.2,1c0.1,0.3,0.3,0.5,0.6,0.7c0.3,0.2,0.6,0.3,1,0.5c0.4,0.2,0.9,0.3,1.5,0.5
				c0.6,0.2,1.1,0.4,1.6,0.6S208.7,20.8,209,21.1z"/>
			<path class="st0" d="M218.5,27.5h-6.2v-0.9c0.2,0,0.4,0,0.6-0.1c0.2,0,0.4-0.1,0.5-0.1c0.2-0.1,0.4-0.2,0.5-0.4
				c0.1-0.2,0.2-0.5,0.2-0.8v-8.1c0-0.3-0.1-0.5-0.2-0.8c-0.1-0.2-0.3-0.4-0.5-0.6c-0.2-0.1-0.4-0.2-0.7-0.3
				c-0.3-0.1-0.6-0.1-0.9-0.1v-0.9l4.5-0.3l0.2,0.2v10.7c0,0.3,0.1,0.6,0.2,0.8c0.1,0.2,0.3,0.4,0.5,0.5c0.2,0.1,0.4,0.1,0.6,0.2
				c0.2,0,0.4,0.1,0.6,0.1V27.5z M216.9,9.2c0,0.5-0.2,0.9-0.5,1.3c-0.3,0.4-0.7,0.6-1.2,0.6c-0.4,0-0.8-0.2-1.1-0.5
				s-0.5-0.8-0.5-1.2c0-0.5,0.2-0.9,0.5-1.3c0.3-0.4,0.7-0.5,1.1-0.5c0.5,0,0.9,0.2,1.2,0.5C216.7,8.3,216.9,8.7,216.9,9.2z"/>
			<path class="st0" d="M232.9,15.3c-0.4,0.1-0.8,0.2-1.1,0.4c-0.3,0.2-0.6,0.6-0.9,1.1c-0.5,1.2-1,2.4-1.6,3.7
				c-0.5,1.3-1.1,2.6-1.7,4c-0.2,0.4-0.4,0.9-0.6,1.4s-0.4,1.1-0.5,1.6h-1c-0.8-2.1-1.6-4-2.3-5.7c-0.7-1.7-1.4-3.5-2.1-5.3
				c-0.2-0.4-0.5-0.7-0.8-0.9c-0.4-0.2-0.8-0.4-1.2-0.4v-0.9h5.9v0.9c-0.3,0-0.6,0.1-1,0.2c-0.4,0.1-0.6,0.2-0.6,0.4
				c0,0,0,0.1,0.1,0.2c0,0.1,0.1,0.2,0.1,0.4c0.4,0.9,0.9,2.2,1.5,3.8c0.6,1.6,1.2,2.9,1.6,3.9c0.3-0.8,0.7-1.7,1.2-2.8
				c0.5-1.1,1-2.4,1.5-3.8c0.1-0.2,0.2-0.5,0.2-0.7c0.1-0.2,0.1-0.4,0.1-0.6c0-0.1-0.1-0.3-0.2-0.4c-0.1-0.1-0.3-0.2-0.5-0.3
				c-0.2-0.1-0.4-0.2-0.6-0.2c-0.2,0-0.3-0.1-0.5-0.1v-0.8h4.9V15.3z"/>
			<path class="st0" d="M244.9,24.5c-0.5,1-1.3,1.9-2.1,2.5c-0.9,0.6-1.9,0.9-3.1,0.9c-1,0-1.9-0.2-2.7-0.6
				c-0.8-0.4-1.4-0.9-1.9-1.5c-0.5-0.6-0.9-1.4-1.1-2.2c-0.2-0.8-0.4-1.7-0.4-2.7c0-0.8,0.1-1.7,0.4-2.5c0.3-0.8,0.6-1.6,1.2-2.2
				c0.5-0.6,1.1-1.1,1.8-1.5c0.7-0.4,1.5-0.6,2.5-0.6c0.9,0,1.7,0.1,2.4,0.5c0.7,0.3,1.2,0.7,1.6,1.2c0.4,0.5,0.7,1.1,0.9,1.7
				s0.3,1.4,0.3,2.2v0.9h-8.4c0,0.9,0.1,1.6,0.2,2.3c0.2,0.7,0.4,1.3,0.8,1.8c0.3,0.5,0.8,0.9,1.3,1.2c0.5,0.3,1.2,0.4,1.9,0.4
				c0.8,0,1.4-0.2,2-0.6c0.6-0.4,1.1-1,1.6-2L244.9,24.5z M242.1,19.5c0-0.5,0-1-0.1-1.6c-0.1-0.6-0.2-1-0.4-1.4
				c-0.2-0.4-0.5-0.7-0.8-1c-0.3-0.3-0.8-0.4-1.3-0.4c-0.9,0-1.7,0.4-2.3,1.2c-0.6,0.8-0.9,1.8-1,3.2
				C236.2,19.5,242.1,19.5,242.1,19.5z"/>
			<path class="st0" d="M269.4,13.8h-0.9c-0.1-0.3-0.2-0.7-0.4-1.1c-0.2-0.4-0.4-0.9-0.7-1.2c-0.3-0.4-0.5-0.8-0.8-1.1
				c-0.3-0.3-0.6-0.5-0.9-0.5c-0.3,0-0.6-0.1-1-0.1s-0.8,0-1.1,0h-0.8v15c0,0.3,0.1,0.6,0.2,0.8c0.1,0.2,0.3,0.4,0.6,0.6
				c0.2,0.1,0.5,0.1,1,0.3c0.5,0.1,0.9,0.2,1.2,0.2v0.9h-8.7v-0.9c0.2,0,0.6-0.1,1.1-0.1c0.5-0.1,0.8-0.1,1-0.2
				c0.3-0.1,0.5-0.3,0.6-0.5c0.1-0.2,0.2-0.5,0.2-0.9V9.8h-0.8c-0.3,0-0.6,0-1,0c-0.4,0-0.8,0-1.1,0.1c-0.3,0-0.6,0.2-0.9,0.5
				c-0.3,0.3-0.6,0.7-0.8,1.1c-0.3,0.4-0.5,0.8-0.7,1.3s-0.3,0.8-0.4,1.1h-0.9V8.7h16V13.8z"/>
			<path class="st0" d="M279.3,16.2c0,0.5-0.1,0.9-0.3,1.2c-0.2,0.3-0.5,0.5-1,0.5c-0.5,0-0.9-0.1-1.1-0.4c-0.3-0.3-0.4-0.5-0.4-0.8
				c0-0.2,0-0.4,0-0.5c0-0.2,0.1-0.3,0.1-0.5c-0.4,0-0.9,0.2-1.4,0.5c-0.5,0.3-1,0.8-1.4,1.4v7.6c0,0.3,0.1,0.6,0.2,0.8
				c0.1,0.2,0.3,0.3,0.6,0.4c0.2,0.1,0.5,0.2,0.8,0.2c0.3,0,0.6,0.1,0.9,0.1v0.9h-6.7v-0.9c0.2,0,0.4,0,0.6-0.1
				c0.2,0,0.4-0.1,0.6-0.1c0.2-0.1,0.4-0.2,0.5-0.4c0.1-0.2,0.2-0.5,0.2-0.8v-8.1c0-0.3-0.1-0.5-0.2-0.8c-0.1-0.3-0.3-0.5-0.5-0.6
				c-0.2-0.1-0.4-0.2-0.6-0.2c-0.2,0-0.5-0.1-0.7-0.1v-0.9l4.2-0.3l0.2,0.2v1.8h0.1c0.5-0.7,1.1-1.3,1.8-1.6
				c0.7-0.4,1.3-0.6,1.8-0.6c0.5,0,1,0.2,1.3,0.5C279.1,15.1,279.3,15.5,279.3,16.2z"/>
			<path class="st0" d="M292.2,24.5c-0.5,1-1.3,1.9-2.1,2.5c-0.9,0.6-1.9,0.9-3.1,0.9c-1,0-1.9-0.2-2.7-0.6
				c-0.8-0.4-1.4-0.9-1.9-1.5s-0.9-1.4-1.1-2.2c-0.2-0.8-0.4-1.7-0.4-2.7c0-0.8,0.1-1.7,0.4-2.5c0.3-0.8,0.6-1.6,1.2-2.2
				c0.5-0.6,1.1-1.1,1.8-1.5c0.7-0.4,1.5-0.6,2.5-0.6c0.9,0,1.7,0.1,2.4,0.5c0.7,0.3,1.2,0.7,1.6,1.2c0.4,0.5,0.7,1.1,0.9,1.7
				c0.2,0.7,0.3,1.4,0.3,2.2v0.9h-8.4c0,0.9,0.1,1.6,0.2,2.3c0.2,0.7,0.4,1.3,0.8,1.8c0.3,0.5,0.8,0.9,1.3,1.2
				c0.5,0.3,1.2,0.4,1.9,0.4c0.8,0,1.4-0.2,2-0.6s1.1-1,1.6-2L292.2,24.5z M289.3,19.5c0-0.5,0-1-0.1-1.6c-0.1-0.6-0.2-1-0.4-1.4
				c-0.2-0.4-0.5-0.7-0.8-1c-0.3-0.3-0.8-0.4-1.3-0.4c-0.9,0-1.7,0.4-2.3,1.2c-0.6,0.8-0.9,1.8-1,3.2
				C283.4,19.5,289.3,19.5,289.3,19.5z"/>
			<path class="st0" d="M306.4,27.3c-0.4,0.2-0.8,0.3-1.1,0.4c-0.3,0.1-0.7,0.1-1,0.1c-0.7,0-1.2-0.2-1.6-0.5s-0.7-0.8-0.8-1.4h-0.1
				c-0.6,0.6-1.2,1.1-1.8,1.5c-0.6,0.3-1.4,0.5-2.3,0.5c-1,0-1.7-0.3-2.4-0.9c-0.6-0.6-0.9-1.4-0.9-2.4c0-0.5,0.1-1,0.2-1.4
				c0.1-0.4,0.3-0.8,0.6-1.1c0.2-0.3,0.5-0.5,0.9-0.7c0.4-0.2,0.7-0.4,1-0.5c0.4-0.1,1.2-0.4,2.4-0.8c1.2-0.4,2-0.7,2.4-1v-1.3
				c0-0.1,0-0.3-0.1-0.7c0-0.3-0.1-0.6-0.3-0.9c-0.2-0.3-0.4-0.6-0.7-0.9c-0.3-0.2-0.8-0.4-1.3-0.4c-0.4,0-0.8,0.1-1.1,0.2
				c-0.3,0.1-0.6,0.3-0.7,0.4c0,0.2,0,0.4,0.1,0.8c0.1,0.3,0.1,0.7,0.1,1c0,0.3-0.1,0.6-0.4,0.8c-0.3,0.3-0.6,0.4-1.1,0.4
				c-0.4,0-0.7-0.2-1-0.5c-0.2-0.3-0.3-0.7-0.3-1.1c0-0.4,0.1-0.8,0.4-1.2c0.3-0.4,0.6-0.7,1.1-1c0.4-0.2,0.9-0.5,1.4-0.6
				c0.6-0.2,1.1-0.3,1.6-0.3c0.7,0,1.4,0.1,1.9,0.2c0.5,0.1,1,0.3,1.5,0.7c0.4,0.3,0.8,0.8,1,1.3c0.2,0.6,0.3,1.3,0.3,2.2
				c0,1.3,0,2.4,0,3.4c0,1,0,2,0,3.2c0,0.3,0.1,0.6,0.2,0.8c0.1,0.2,0.3,0.4,0.5,0.5c0.1,0.1,0.3,0.1,0.6,0.1c0.3,0,0.6,0,0.9,0
				V27.3z M301.9,20.3c-0.7,0.2-1.4,0.4-1.9,0.7c-0.6,0.2-1.1,0.5-1.5,0.8c-0.4,0.3-0.8,0.7-1,1.1c-0.3,0.4-0.4,0.9-0.4,1.5
				c0,0.7,0.2,1.3,0.6,1.6c0.4,0.3,0.9,0.5,1.4,0.5c0.6,0,1.2-0.2,1.6-0.5c0.5-0.3,0.9-0.7,1.2-1.1L301.9,20.3z"/>
			<path class="st0" d="M315.5,27c-0.6,0.2-1.1,0.4-1.6,0.6c-0.5,0.2-1.1,0.2-1.8,0.2c-1.1,0-1.8-0.3-2.3-0.8
				c-0.4-0.6-0.7-1.3-0.7-2.3v-8.9h-2.3v-1.3h2.4v-4.1h2.4v4.1h3.7v1.3h-3.6v7.3c0,0.5,0,1,0.1,1.4c0,0.4,0.1,0.7,0.3,1
				c0.1,0.3,0.3,0.5,0.6,0.6c0.3,0.1,0.6,0.2,1.1,0.2c0.2,0,0.5,0,1-0.1c0.4,0,0.7-0.1,0.9-0.2V27z"/>
			<path class="st0" d="M339.4,27.5h-6.2v-0.9c0.2,0,0.4,0,0.6-0.1c0.2,0,0.4-0.1,0.5-0.1c0.2-0.1,0.4-0.2,0.5-0.4
				c0.1-0.2,0.2-0.5,0.2-0.8v-6.7c0-0.9-0.2-1.6-0.6-2.1c-0.4-0.5-0.9-0.7-1.5-0.7c-0.4,0-0.8,0.1-1.2,0.2c-0.4,0.1-0.7,0.3-1,0.6
				c-0.3,0.2-0.5,0.4-0.6,0.6c-0.2,0.2-0.3,0.4-0.4,0.6v7.5c0,0.3,0.1,0.6,0.2,0.8c0.1,0.2,0.3,0.4,0.5,0.5c0.2,0.1,0.4,0.1,0.5,0.2
				s0.4,0.1,0.6,0.1v0.9h-6.1v-0.9c0.2,0,0.4,0,0.6-0.1c0.2,0,0.4-0.1,0.5-0.1c0.2-0.1,0.4-0.2,0.5-0.4c0.1-0.2,0.2-0.5,0.2-0.8
				v-6.7c0-0.9-0.2-1.6-0.6-2.1c-0.4-0.5-0.9-0.7-1.5-0.7c-0.4,0-0.8,0.1-1.2,0.2c-0.4,0.1-0.7,0.3-1,0.6c-0.3,0.2-0.5,0.4-0.6,0.7
				c-0.2,0.2-0.3,0.4-0.4,0.6v7.5c0,0.3,0.1,0.6,0.2,0.8s0.3,0.4,0.5,0.5c0.2,0.1,0.4,0.2,0.6,0.2c0.2,0,0.4,0.1,0.6,0.1v0.9h-6.2
				v-0.9c0.2,0,0.4,0,0.6-0.1c0.2,0,0.4-0.1,0.6-0.1c0.2-0.1,0.4-0.2,0.5-0.4c0.1-0.2,0.2-0.5,0.2-0.8v-8.1c0-0.3-0.1-0.5-0.2-0.8
				c-0.1-0.2-0.3-0.4-0.5-0.6c-0.2-0.1-0.4-0.2-0.6-0.3c-0.2-0.1-0.5-0.1-0.8-0.1v-0.9l4.3-0.3l0.2,0.2v1.9h0.1
				c0.2-0.2,0.5-0.5,0.8-0.8c0.3-0.3,0.6-0.5,0.9-0.7c0.3-0.2,0.7-0.4,1.1-0.5c0.5-0.1,0.9-0.2,1.5-0.2c0.8,0,1.5,0.2,2.1,0.7
				c0.6,0.5,1,1,1.3,1.6c0.3-0.3,0.6-0.6,0.8-0.8s0.5-0.5,0.9-0.7c0.3-0.2,0.7-0.4,1.2-0.6c0.4-0.1,0.9-0.2,1.5-0.2
				c1.1,0,1.9,0.4,2.6,1.1c0.6,0.7,0.9,1.8,0.9,3.3v6.6c0,0.3,0.1,0.6,0.2,0.8c0.1,0.2,0.3,0.4,0.5,0.5c0.2,0.1,0.4,0.1,0.6,0.2
				c0.2,0,0.4,0.1,0.7,0.1V27.5z"/>
			<path class="st0" d="M352.2,24.5c-0.5,1-1.3,1.9-2.1,2.5c-0.9,0.6-1.9,0.9-3.1,0.9c-1,0-1.9-0.2-2.7-0.6
				c-0.8-0.4-1.4-0.9-1.9-1.5s-0.9-1.4-1.1-2.2c-0.2-0.8-0.4-1.7-0.4-2.7c0-0.8,0.1-1.7,0.4-2.5c0.3-0.8,0.6-1.6,1.2-2.2
				c0.5-0.6,1.1-1.1,1.8-1.5c0.7-0.4,1.5-0.6,2.5-0.6c0.9,0,1.7,0.1,2.4,0.5c0.7,0.3,1.2,0.7,1.6,1.2c0.4,0.5,0.7,1.1,0.9,1.7
				c0.2,0.7,0.3,1.4,0.3,2.2v0.9h-8.4c0,0.9,0.1,1.6,0.2,2.3c0.2,0.7,0.4,1.3,0.8,1.8c0.3,0.5,0.8,0.9,1.3,1.2
				c0.5,0.3,1.2,0.4,1.9,0.4c0.8,0,1.4-0.2,2-0.6s1.1-1,1.6-2L352.2,24.5z M349.4,19.5c0-0.5,0-1-0.1-1.6c-0.1-0.6-0.2-1-0.4-1.4
				c-0.2-0.4-0.5-0.7-0.8-1c-0.3-0.3-0.8-0.4-1.3-0.4c-0.9,0-1.7,0.4-2.3,1.2c-0.6,0.8-0.9,1.8-1,3.2
				C343.5,19.5,349.4,19.5,349.4,19.5z"/>
			<path class="st0" d="M368,27.5h-6.2v-0.9c0.2,0,0.4,0,0.7-0.1c0.2,0,0.4-0.1,0.6-0.1c0.2-0.1,0.4-0.2,0.5-0.4
				c0.1-0.2,0.2-0.5,0.2-0.8v-6.7c0-0.9-0.2-1.6-0.6-2.1c-0.4-0.5-0.9-0.8-1.6-0.8c-0.5,0-0.9,0.1-1.3,0.2c-0.4,0.1-0.7,0.3-1,0.5
				c-0.3,0.2-0.5,0.4-0.7,0.7c-0.2,0.2-0.3,0.4-0.4,0.6v7.5c0,0.3,0.1,0.5,0.2,0.7c0.1,0.2,0.3,0.3,0.5,0.5c0.2,0.1,0.4,0.2,0.6,0.2
				c0.2,0,0.4,0.1,0.7,0.1v0.9h-6.2v-0.9c0.2,0,0.4,0,0.6-0.1c0.2,0,0.4-0.1,0.6-0.1c0.2-0.1,0.4-0.2,0.5-0.4
				c0.1-0.2,0.2-0.5,0.2-0.8v-8.1c0-0.3-0.1-0.6-0.2-0.8c-0.1-0.3-0.3-0.5-0.5-0.6c-0.2-0.1-0.4-0.2-0.6-0.2c-0.2,0-0.5-0.1-0.7-0.1
				v-0.9l4.2-0.3l0.2,0.2v1.8h0.1c0.2-0.2,0.5-0.5,0.8-0.8c0.3-0.3,0.6-0.5,0.9-0.7c0.3-0.2,0.7-0.4,1.1-0.5
				c0.4-0.1,0.9-0.2,1.5-0.2c1.2,0,2.1,0.4,2.7,1.2c0.6,0.8,0.9,1.8,0.9,3.1v6.8c0,0.3,0.1,0.6,0.2,0.7c0.1,0.2,0.3,0.3,0.5,0.4
				c0.2,0.1,0.4,0.2,0.5,0.2c0.2,0,0.4,0.1,0.6,0.1V27.5z"/>
			<path class="st0" d="M377.3,27c-0.6,0.2-1.1,0.4-1.6,0.6c-0.5,0.2-1.1,0.2-1.8,0.2c-1.1,0-1.8-0.3-2.3-0.8
				c-0.4-0.6-0.7-1.3-0.7-2.3v-8.9h-2.3v-1.3h2.4v-4.1h2.4v4.1h3.7v1.3h-3.6v7.3c0,0.5,0,1,0.1,1.4c0,0.4,0.1,0.7,0.3,1
				c0.1,0.3,0.3,0.5,0.6,0.6c0.3,0.1,0.6,0.2,1.1,0.2c0.2,0,0.5,0,1-0.1c0.4,0,0.7-0.1,0.9-0.2V27z"/>
			<path class="st0" d="M394.7,28c-1.1,0-2.1-0.2-3.1-0.7c-1-0.4-1.9-1.1-2.7-1.9c-0.8-0.8-1.4-1.8-1.8-3c-0.5-1.2-0.7-2.5-0.7-4.1
				s0.2-2.9,0.7-4.1c0.4-1.2,1.1-2.3,1.9-3.2c0.8-0.9,1.7-1.6,2.8-2c1.1-0.5,2.2-0.7,3.4-0.7c0.9,0,1.7,0.1,2.5,0.3
				c0.7,0.2,1.4,0.6,2.1,1l0.5-0.9h1l0.1,6.7h-1.1c-0.1-0.7-0.3-1.4-0.6-2.1c-0.3-0.8-0.6-1.4-1-1.9c-0.4-0.6-0.9-1.1-1.5-1.4
				c-0.6-0.3-1.2-0.5-2-0.5c-0.8,0-1.6,0.2-2.3,0.6s-1.3,0.9-1.9,1.7c-0.5,0.7-0.9,1.6-1.2,2.7c-0.3,1.1-0.4,2.3-0.4,3.7
				c0,1.2,0.1,2.3,0.4,3.3c0.3,1,0.7,1.9,1.3,2.6c0.6,0.8,1.2,1.3,2,1.8c0.8,0.4,1.6,0.6,2.5,0.6c0.7,0,1.3-0.1,1.9-0.3
				c0.6-0.2,1.1-0.5,1.5-0.9c0.4-0.4,0.8-0.8,1.1-1.3c0.3-0.5,0.6-1,0.8-1.6l1,0.5c-0.7,1.9-1.7,3.2-2.9,4
				C397.8,27.6,396.4,28,394.7,28z"/>
			<path class="st0" d="M415.4,24.5c-0.5,1-1.3,1.9-2.1,2.5c-0.9,0.6-1.9,0.9-3.1,0.9c-1,0-1.9-0.2-2.7-0.6
				c-0.8-0.4-1.4-0.9-1.9-1.5s-0.9-1.4-1.1-2.2c-0.2-0.8-0.4-1.7-0.4-2.7c0-0.8,0.1-1.7,0.4-2.5c0.3-0.8,0.6-1.6,1.2-2.2
				c0.5-0.6,1.1-1.1,1.8-1.5c0.7-0.4,1.5-0.6,2.5-0.6c0.9,0,1.7,0.1,2.4,0.5c0.7,0.3,1.2,0.7,1.6,1.2c0.4,0.5,0.7,1.1,0.9,1.7
				c0.2,0.7,0.3,1.4,0.3,2.2v0.9h-8.4c0,0.9,0.1,1.6,0.2,2.3c0.2,0.7,0.4,1.3,0.8,1.8c0.3,0.5,0.8,0.9,1.3,1.2
				c0.5,0.3,1.2,0.4,1.9,0.4c0.8,0,1.4-0.2,2-0.6s1.1-1,1.6-2L415.4,24.5z M412.5,19.5c0-0.5,0-1-0.1-1.6c-0.1-0.6-0.2-1-0.4-1.4
				c-0.2-0.4-0.5-0.7-0.8-1c-0.3-0.3-0.8-0.4-1.3-0.4c-0.9,0-1.7,0.4-2.3,1.2c-0.6,0.8-0.9,1.8-1,3.2
				C406.6,19.5,412.5,19.5,412.5,19.5z"/>
			<path class="st0" d="M431.2,27.5h-6.2v-0.9c0.2,0,0.4,0,0.7-0.1c0.2,0,0.4-0.1,0.6-0.1c0.2-0.1,0.4-0.2,0.5-0.4
				c0.1-0.2,0.2-0.5,0.2-0.8v-6.7c0-0.9-0.2-1.6-0.6-2.1c-0.4-0.5-0.9-0.8-1.6-0.8c-0.5,0-0.9,0.1-1.3,0.2c-0.4,0.1-0.7,0.3-1,0.5
				c-0.3,0.2-0.5,0.4-0.7,0.7c-0.2,0.2-0.3,0.4-0.4,0.6v7.5c0,0.3,0.1,0.5,0.2,0.7c0.1,0.2,0.3,0.3,0.5,0.5c0.2,0.1,0.4,0.2,0.6,0.2
				c0.2,0,0.4,0.1,0.7,0.1v0.9h-6.2v-0.9c0.2,0,0.4,0,0.6-0.1c0.2,0,0.4-0.1,0.6-0.1c0.2-0.1,0.4-0.2,0.5-0.4
				c0.1-0.2,0.2-0.5,0.2-0.8v-8.1c0-0.3-0.1-0.6-0.2-0.8c-0.1-0.3-0.3-0.5-0.5-0.6c-0.2-0.1-0.4-0.2-0.6-0.2c-0.2,0-0.5-0.1-0.7-0.1
				v-0.9l4.2-0.3l0.2,0.2v1.8h0.1c0.2-0.2,0.5-0.5,0.8-0.8c0.3-0.3,0.6-0.5,0.9-0.7c0.3-0.2,0.7-0.4,1.1-0.5
				c0.4-0.1,0.9-0.2,1.5-0.2c1.2,0,2.1,0.4,2.7,1.2c0.6,0.8,0.9,1.8,0.9,3.1v6.8c0,0.3,0.1,0.6,0.2,0.7c0.1,0.2,0.3,0.3,0.5,0.4
				c0.2,0.1,0.4,0.2,0.5,0.2c0.2,0,0.4,0.1,0.6,0.1V27.5z"/>
			<path class="st0" d="M440.5,27c-0.6,0.2-1.1,0.4-1.6,0.6c-0.5,0.2-1.1,0.2-1.8,0.2c-1.1,0-1.8-0.3-2.3-0.8
				c-0.4-0.6-0.7-1.3-0.7-2.3v-8.9h-2.3v-1.3h2.4v-4.1h2.4v4.1h3.7v1.3h-3.6v7.3c0,0.5,0,1,0.1,1.4c0,0.4,0.1,0.7,0.3,1
				c0.1,0.3,0.3,0.5,0.6,0.6c0.3,0.1,0.6,0.2,1.1,0.2c0.2,0,0.5,0,1-0.1c0.4,0,0.7-0.1,0.9-0.2V27z"/>
			<path class="st0" d="M453.2,24.5c-0.5,1-1.3,1.9-2.1,2.5c-0.9,0.6-1.9,0.9-3.1,0.9c-1,0-1.9-0.2-2.7-0.6
				c-0.8-0.4-1.4-0.9-1.9-1.5s-0.9-1.4-1.1-2.2c-0.2-0.8-0.4-1.7-0.4-2.7c0-0.8,0.1-1.7,0.4-2.5c0.3-0.8,0.6-1.6,1.2-2.2
				c0.5-0.6,1.1-1.1,1.8-1.5c0.7-0.4,1.5-0.6,2.5-0.6c0.9,0,1.7,0.1,2.4,0.5c0.7,0.3,1.2,0.7,1.6,1.2c0.4,0.5,0.7,1.1,0.9,1.7
				c0.2,0.7,0.3,1.4,0.3,2.2v0.9h-8.4c0,0.9,0.1,1.6,0.2,2.3c0.2,0.7,0.4,1.3,0.8,1.8c0.3,0.5,0.8,0.9,1.3,1.2
				c0.5,0.3,1.2,0.4,1.9,0.4c0.8,0,1.4-0.2,2-0.6s1.1-1,1.6-2L453.2,24.5z M450.3,19.5c0-0.5,0-1-0.1-1.6c-0.1-0.6-0.2-1-0.4-1.4
				c-0.2-0.4-0.5-0.7-0.8-1c-0.3-0.3-0.8-0.4-1.3-0.4c-0.9,0-1.7,0.4-2.3,1.2c-0.6,0.8-0.9,1.8-1,3.2
				C444.4,19.5,450.3,19.5,450.3,19.5z"/>
			<path class="st0" d="M464.6,16.2c0,0.5-0.1,0.9-0.3,1.2c-0.2,0.3-0.5,0.5-1,0.5c-0.5,0-0.9-0.1-1.1-0.4c-0.3-0.3-0.4-0.5-0.4-0.8
				c0-0.2,0-0.4,0-0.5c0-0.2,0.1-0.3,0.1-0.5c-0.4,0-0.9,0.2-1.4,0.5c-0.5,0.3-1,0.8-1.4,1.4v7.6c0,0.3,0.1,0.6,0.2,0.8
				c0.1,0.2,0.3,0.3,0.6,0.4c0.2,0.1,0.5,0.2,0.8,0.2c0.3,0,0.6,0.1,0.9,0.1v0.9h-6.7v-0.9c0.2,0,0.4,0,0.6-0.1
				c0.2,0,0.4-0.1,0.6-0.1c0.2-0.1,0.4-0.2,0.5-0.4c0.1-0.2,0.2-0.5,0.2-0.8v-8.1c0-0.3-0.1-0.5-0.2-0.8c-0.1-0.3-0.3-0.5-0.5-0.6
				c-0.2-0.1-0.4-0.2-0.6-0.2c-0.2,0-0.5-0.1-0.7-0.1v-0.9l4.2-0.3l0.2,0.2v1.8h0.1c0.5-0.7,1.1-1.3,1.8-1.6
				c0.7-0.4,1.3-0.6,1.8-0.6c0.5,0,1,0.2,1.3,0.5C464.5,15.1,464.6,15.5,464.6,16.2z"/>
			<path class="st0" d="M474.8,21.1c0.4,0.3,0.6,0.7,0.8,1.1c0.2,0.4,0.3,0.9,0.3,1.5c0,1.2-0.4,2.2-1.3,3c-0.9,0.8-2,1.2-3.4,1.2
				c-0.7,0-1.4-0.1-2.1-0.4c-0.6-0.3-1.1-0.5-1.3-0.8l-0.3,0.9h-1l-0.1-4.5h0.9c0.1,0.3,0.2,0.7,0.4,1.2c0.2,0.5,0.5,0.9,0.8,1.2
				c0.3,0.4,0.7,0.7,1.2,1c0.5,0.3,1,0.4,1.6,0.4c0.8,0,1.5-0.2,1.9-0.6c0.4-0.4,0.7-0.9,0.7-1.7c0-0.4-0.1-0.7-0.2-1
				c-0.1-0.3-0.4-0.5-0.6-0.7c-0.3-0.2-0.6-0.4-1-0.6c-0.4-0.2-0.9-0.3-1.4-0.5c-0.4-0.1-0.9-0.3-1.4-0.5c-0.5-0.2-0.9-0.5-1.3-0.8
				c-0.4-0.3-0.7-0.7-0.9-1.1c-0.2-0.5-0.4-1-0.4-1.6c0-1.1,0.4-2,1.2-2.7s1.8-1.1,3.1-1.1c0.5,0,1,0.1,1.5,0.2
				c0.5,0.1,0.9,0.3,1.3,0.5l0.3-0.7h0.9l0.2,4.2h-0.9c-0.2-0.9-0.6-1.7-1.2-2.3c-0.6-0.6-1.3-0.9-2.2-0.9c-0.7,0-1.3,0.2-1.7,0.5
				c-0.4,0.4-0.6,0.8-0.6,1.3c0,0.4,0.1,0.7,0.2,1c0.1,0.3,0.3,0.5,0.6,0.7c0.3,0.2,0.6,0.3,1,0.5c0.4,0.2,0.9,0.3,1.5,0.5
				c0.6,0.2,1.1,0.4,1.6,0.6C474,20.6,474.5,20.8,474.8,21.1z"/>
		</g>
		<g>
			<path class="st0" d="M72.2,43.1c0,4.3-2.6,6.6-5.7,6.6c-3.2,0-5.5-2.6-5.5-6.4c0-4,2.4-6.6,5.7-6.6C70,36.7,72.2,39.3,72.2,43.1z
				 M62.7,43.3c0,2.7,1.4,5.1,3.9,5.1c2.5,0,3.9-2.4,3.9-5.2c0-2.5-1.3-5.1-3.9-5.1C64,38,62.7,40.5,62.7,43.3z"/>
			<path class="st0" d="M74.7,43.4c0-1.2,0-2.1-0.1-3h1.4l0.1,1.6h0c0.7-1.1,1.7-1.8,3.1-1.8c2.1,0,3.7,1.9,3.7,4.6
				c0,3.3-1.9,4.9-4,4.9c-1.2,0-2.2-0.5-2.7-1.4h0v4.9h-1.6V43.4z M76.3,45.8c0,0.2,0,0.5,0.1,0.7c0.3,1.1,1.3,1.9,2.4,1.9
				c1.7,0,2.7-1.4,2.7-3.5c0-1.8-0.9-3.4-2.6-3.4c-1.1,0-2.1,0.8-2.4,2c-0.1,0.2-0.1,0.4-0.1,0.7V45.8z"/>
			<path class="st0" d="M87.5,37.9c0,0.6-0.4,1-1,1c-0.6,0-1-0.4-1-1c0-0.6,0.4-1,1-1C87.1,36.9,87.5,37.3,87.5,37.9z M85.7,49.5
				v-9.1h1.6v9.1H85.7z"/>
			<path class="st0" d="M98.5,44.9c0,3.4-2.2,4.8-4.4,4.8c-2.4,0-4.2-1.8-4.2-4.7c0-3,1.9-4.8,4.4-4.8
				C96.8,40.2,98.5,42.1,98.5,44.9z M91.5,45c0,2,1.1,3.5,2.7,3.5c1.5,0,2.7-1.5,2.7-3.5c0-1.5-0.7-3.5-2.6-3.5S91.5,43.3,91.5,45z"
				/>
			<path class="st0" d="M102.9,37.9c0,0.6-0.4,1-1,1c-0.6,0-1-0.4-1-1c0-0.6,0.4-1,1-1C102.5,36.9,102.9,37.3,102.9,37.9z
				 M101.1,49.5v-9.1h1.6v9.1H101.1z"/>
			<path class="st0" d="M113.5,36.2v11c0,0.8,0,1.7,0.1,2.3h-1.4l-0.1-1.6h0c-0.5,1-1.6,1.8-3,1.8c-2.1,0-3.8-1.9-3.8-4.6
				c0-3,1.8-4.9,3.9-4.9c1.3,0,2.3,0.7,2.6,1.4h0v-5.4H113.5z M111.9,44.1c0-0.2,0-0.5-0.1-0.7c-0.2-1-1.1-1.9-2.3-1.9
				c-1.7,0-2.6,1.5-2.6,3.5c0,1.8,0.9,3.3,2.6,3.3c1.1,0,2.1-0.7,2.3-2c0.1-0.2,0.1-0.4,0.1-0.7V44.1z"/>
			<path class="st0" d="M122.8,36.9v7.5c0,2.8,1.2,4,2.8,4c1.8,0,3-1.2,3-4v-7.5h1.6v7.4c0,3.9-2,5.5-4.6,5.5
				c-2.5,0-4.4-1.5-4.4-5.4v-7.4H122.8z"/>
			<path class="st0" d="M133.2,47.8c0.5,0.3,1.3,0.7,2.1,0.7c1.2,0,1.7-0.6,1.7-1.3c0-0.8-0.5-1.2-1.6-1.7c-1.6-0.6-2.3-1.5-2.3-2.6
				c0-1.5,1.1-2.7,3-2.7c0.9,0,1.7,0.3,2.2,0.6l-0.4,1.2c-0.3-0.2-1-0.5-1.8-0.5c-0.9,0-1.5,0.6-1.5,1.2c0,0.7,0.5,1.1,1.7,1.5
				c1.5,0.6,2.3,1.4,2.3,2.7c0,1.6-1.2,2.7-3.3,2.7c-1,0-1.9-0.2-2.5-0.6L133.2,47.8z"/>
			<path class="st0" d="M142.1,45.3c0,2.2,1.4,3.1,3,3.1c1.1,0,1.8-0.2,2.4-0.5l0.3,1.2c-0.6,0.3-1.5,0.6-2.9,0.6
				c-2.7,0-4.3-1.8-4.3-4.6s1.6-4.9,4.1-4.9c2.9,0,3.6,2.6,3.6,4.3c0,0.3,0,0.6-0.1,0.8H142.1z M146.8,44.1c0-1-0.4-2.7-2.2-2.7
				c-1.6,0-2.3,1.5-2.4,2.7H146.8z"/>
			<path class="st0" d="M155.4,37c1-0.1,2.1-0.3,3.4-0.3c2.3,0,3.9,0.5,5,1.6c1.1,1,1.7,2.5,1.7,4.5c0,2.1-0.6,3.7-1.8,4.9
				c-1.1,1.2-3,1.8-5.4,1.8c-1.1,0-2.1-0.1-2.9-0.1V37z M157,48.2c0.4,0.1,1,0.1,1.6,0.1c3.4,0,5.2-1.9,5.2-5.4c0-3-1.6-4.9-5-4.9
				c-0.8,0-1.4,0.1-1.9,0.2V48.2z"/>
			<path class="st0" d="M169.8,37.9c0,0.6-0.4,1-1,1c-0.6,0-1-0.4-1-1c0-0.6,0.4-1,1-1C169.4,36.9,169.8,37.3,169.8,37.9z M168,49.5
				v-9.1h1.6v9.1H168z"/>
			<path class="st0" d="M172.7,47.8c0.5,0.3,1.3,0.7,2.1,0.7c1.2,0,1.7-0.6,1.7-1.3c0-0.8-0.5-1.2-1.6-1.7c-1.6-0.6-2.3-1.5-2.3-2.6
				c0-1.5,1.1-2.7,3-2.7c0.9,0,1.7,0.3,2.2,0.6l-0.4,1.2c-0.3-0.2-1-0.5-1.8-0.5c-0.9,0-1.5,0.6-1.5,1.2c0,0.7,0.5,1.1,1.7,1.5
				c1.5,0.6,2.3,1.4,2.3,2.7c0,1.6-1.2,2.7-3.3,2.7c-1,0-1.9-0.2-2.5-0.6L172.7,47.8z"/>
			<path class="st0" d="M188.6,44.9c0,3.4-2.2,4.8-4.4,4.8c-2.4,0-4.2-1.8-4.2-4.7c0-3,1.9-4.8,4.4-4.8
				C186.9,40.2,188.6,42.1,188.6,44.9z M181.7,45c0,2,1.1,3.5,2.7,3.5c1.5,0,2.7-1.5,2.7-3.5c0-1.5-0.7-3.5-2.6-3.5
				S181.7,43.3,181.7,45z"/>
			<path class="st0" d="M191.2,43.3c0-1.1,0-2-0.1-2.8h1.4l0.1,1.8h0.1c0.4-1.2,1.4-2,2.4-2c0.2,0,0.3,0,0.5,0.1v1.6
				c-0.2,0-0.3-0.1-0.5-0.1c-1.1,0-1.9,0.9-2.1,2.1c0,0.2-0.1,0.5-0.1,0.8v4.8h-1.6V43.3z"/>
			<path class="st0" d="M205.2,36.2v11c0,0.8,0,1.7,0.1,2.3h-1.4l-0.1-1.6h0c-0.5,1-1.6,1.8-3,1.8c-2.1,0-3.8-1.9-3.8-4.6
				c0-3,1.8-4.9,3.9-4.9c1.3,0,2.3,0.7,2.6,1.4h0v-5.4H205.2z M203.6,44.1c0-0.2,0-0.5-0.1-0.7c-0.2-1-1.1-1.9-2.3-1.9
				c-1.7,0-2.6,1.5-2.6,3.5c0,1.8,0.9,3.3,2.6,3.3c1.1,0,2.1-0.7,2.3-2c0.1-0.2,0.1-0.4,0.1-0.7V44.1z"/>
			<path class="st0" d="M209.3,45.3c0,2.2,1.4,3.1,3,3.1c1.1,0,1.8-0.2,2.4-0.5l0.3,1.2c-0.6,0.3-1.5,0.6-2.9,0.6
				c-2.7,0-4.3-1.8-4.3-4.6s1.6-4.9,4.1-4.9c2.9,0,3.6,2.6,3.6,4.3c0,0.3,0,0.6-0.1,0.8H209.3z M214,44.1c0-1-0.4-2.7-2.2-2.7
				c-1.6,0-2.3,1.5-2.4,2.7H214z"/>
			<path class="st0" d="M218.1,43.3c0-1.1,0-2-0.1-2.8h1.4l0.1,1.8h0.1c0.4-1.2,1.4-2,2.4-2c0.2,0,0.3,0,0.5,0.1v1.6
				c-0.2,0-0.3-0.1-0.5-0.1c-1.1,0-1.9,0.9-2.1,2.1c0,0.2-0.1,0.5-0.1,0.8v4.8h-1.6V43.3z"/>
			<path class="st0" d="M229.2,37c0.8-0.1,1.8-0.2,3-0.2c1.6,0,2.7,0.4,3.4,1c0.7,0.6,1.1,1.5,1.1,2.6c0,1.1-0.3,2-0.9,2.7
				c-0.8,0.9-2.2,1.4-3.7,1.4c-0.5,0-0.9,0-1.3-0.1v5.1h-1.6V37z M230.7,43.1c0.3,0.1,0.8,0.1,1.3,0.1c1.9,0,3.1-1,3.1-2.7
				c0-1.7-1.1-2.5-2.9-2.5c-0.7,0-1.2,0.1-1.5,0.1V43.1z"/>
			<path class="st0" d="M239.1,43.3c0-1.1,0-2-0.1-2.8h1.4l0.1,1.8h0.1c0.4-1.2,1.4-2,2.4-2c0.2,0,0.3,0,0.5,0.1v1.6
				c-0.2,0-0.3-0.1-0.5-0.1c-1.1,0-1.9,0.9-2.1,2.1c0,0.2-0.1,0.5-0.1,0.8v4.8h-1.6V43.3z"/>
			<path class="st0" d="M253.4,44.9c0,3.4-2.3,4.8-4.4,4.8c-2.4,0-4.2-1.8-4.2-4.7c0-3,1.9-4.8,4.4-4.8
				C251.7,40.2,253.4,42.1,253.4,44.9z M246.4,45c0,2,1.1,3.5,2.7,3.5c1.5,0,2.7-1.5,2.7-3.5c0-1.5-0.7-3.5-2.6-3.5
				S246.4,43.3,246.4,45z"/>
			<path class="st0" d="M263.5,40.4c0,0.7-0.1,1.4-0.1,2.5v5.3c0,2.1-0.4,3.4-1.3,4.1c-0.9,0.8-2.1,1.1-3.2,1.1
				c-1.1,0-2.2-0.3-2.9-0.7l0.4-1.3c0.6,0.4,1.5,0.7,2.6,0.7c1.6,0,2.8-0.9,2.8-3.2v-1h0c-0.5,0.8-1.4,1.5-2.8,1.5
				c-2.2,0-3.7-1.9-3.7-4.4c0-3.1,1.9-4.8,4-4.8c1.5,0,2.4,0.8,2.7,1.6h0l0.1-1.4H263.5z M261.9,44c0-0.3,0-0.5-0.1-0.7
				c-0.3-1-1.1-1.7-2.2-1.7c-1.5,0-2.6,1.3-2.6,3.4c0,1.8,0.9,3.3,2.6,3.3c1,0,1.9-0.6,2.2-1.7c0.1-0.3,0.1-0.6,0.1-0.9V44z"/>
			<path class="st0" d="M266.6,43.3c0-1.1,0-2-0.1-2.8h1.4l0.1,1.8h0.1c0.4-1.2,1.4-2,2.4-2c0.2,0,0.3,0,0.5,0.1v1.6
				c-0.2,0-0.3-0.1-0.5-0.1c-1.1,0-1.9,0.9-2.1,2.1c0,0.2-0.1,0.5-0.1,0.8v4.8h-1.6V43.3z"/>
			<path class="st0" d="M277.9,49.5l-0.1-1.1h-0.1c-0.5,0.7-1.4,1.3-2.7,1.3c-1.8,0-2.7-1.3-2.7-2.6c0-2.2,1.9-3.4,5.3-3.4v-0.2
				c0-0.7-0.2-2.1-2-2.1c-0.8,0-1.7,0.3-2.3,0.7L273,41c0.7-0.5,1.8-0.8,2.9-0.8c2.7,0,3.3,1.9,3.3,3.7v3.4c0,0.8,0,1.6,0.1,2.2
				H277.9z M277.7,44.9c-1.7,0-3.7,0.3-3.7,2c0,1.1,0.7,1.6,1.5,1.6c1.1,0,1.9-0.7,2.1-1.5c0.1-0.2,0.1-0.4,0.1-0.5V44.9z"/>
			<path class="st0" d="M282.4,42.9c0-0.9,0-1.7-0.1-2.5h1.4l0.1,1.5h0.1c0.5-0.9,1.3-1.7,2.8-1.7c1.2,0,2.1,0.7,2.5,1.8h0
				c0.3-0.5,0.6-0.9,1-1.2c0.5-0.4,1.1-0.6,1.9-0.6c1.2,0,2.9,0.8,2.9,3.9v5.3h-1.6v-5.1c0-1.7-0.6-2.8-1.9-2.8
				c-0.9,0-1.6,0.7-1.9,1.5c-0.1,0.2-0.1,0.5-0.1,0.8v5.6h-1.6v-5.4c0-1.4-0.6-2.5-1.8-2.5c-1,0-1.7,0.8-2,1.6
				c-0.1,0.2-0.1,0.5-0.1,0.8v5.5h-1.6V42.9z"/>
			<path class="st0" d="M297.9,47.8c0.5,0.3,1.3,0.7,2.1,0.7c1.2,0,1.7-0.6,1.7-1.3c0-0.8-0.5-1.2-1.6-1.7c-1.6-0.6-2.3-1.5-2.3-2.6
				c0-1.5,1.1-2.7,3-2.7c0.9,0,1.7,0.3,2.2,0.6l-0.4,1.2c-0.3-0.2-1-0.5-1.8-0.5c-0.9,0-1.5,0.6-1.5,1.2c0,0.7,0.5,1.1,1.7,1.5
				c1.5,0.6,2.3,1.4,2.3,2.7c0,1.6-1.2,2.7-3.3,2.7c-1,0-1.9-0.2-2.5-0.6L297.9,47.8z"/>
		</g>
	</g>
	<g>
		<path class="st1" d="M47.5,21.6H32.4c0,0,0,0,0,0V6c0-0.5,0.4-1,1-1H21c-2.7,0-4.8,2.2-4.8,5v11.7h16.1c0,0,0,0,0,0v16.6h11.3
			c2.7,0,4.8-2.2,4.8-5V20.6C48.5,21.2,48,21.6,47.5,21.6z"/>
		<path class="st1" d="M16.2,38.2V21.7H5c-2.7,0-5,2.3-5,5.1v11.6c0,0,0-0.1,0.1-0.1h16c0,0,0.1,0,0.1,0.1v16.5c0,0,0,0.1-0.1,0.1
			h11.5c2.7,0,4.8-2.2,4.8-4.9V38.3h-16C16.2,38.3,16.2,38.3,16.2,38.2z"/>
		<path class="st0" d="M32.3,21.7H16.2v16.5c0,0.1,0.1,0.2,0.2,0.2h16L32.3,21.7C32.3,21.7,32.3,21.7,32.3,21.7z"/>
		<path class="st0" d="M16.1,54.9V38.4c0,0,0-0.1-0.1-0.1h-16c0,0-0.1,0-0.1,0.1v16.3C0,54.9,0.1,55,0.3,55L16.1,54.9
			C16.1,55,16.1,55,16.1,54.9z"/>
		<path class="st0" d="M48.3,5h-15c-0.5,0-1,0.4-1,1v15.6c0,0,0,0,0,0h15.1c0.5,0,1-0.4,1-1V5.2C48.5,5.1,48.4,5,48.3,5z"/>
	</g>
</g>
</svg>
