<svg xmlns="http://www.w3.org/2000/svg" xml:space="preserve" id="Layer_1" x="0" y="0" version="1.1" viewBox="0 0 475.9 60">
  <style>
    .st0{fill:#134289}.st1{fill:#6c7ba0}
  </style>
  <path d="M69.7 28c-1.1 0-2.1-.2-3.1-.7-1-.4-1.9-1.1-2.7-1.9-.8-.8-1.4-1.8-1.8-3-.5-1.2-.7-2.5-.7-4.1s.2-2.9.7-4.1c.4-1.2 1.1-2.3 1.9-3.2.8-.9 1.7-1.6 2.8-2 1.1-.5 2.2-.7 3.4-.7.9 0 1.7.1 2.5.3.7.2 1.4.6 2.1 1l.5-.9h1l.1 6.7h-1.1c-.1-.7-.3-1.4-.6-2.1s-.6-1.4-1-1.9c-.4-.6-.9-1.1-1.5-1.4-.6-.3-1.2-.5-2-.5s-1.6.2-2.3.6-1.4.9-1.9 1.6c-.5.7-.9 1.6-1.2 2.7s-.4 2.3-.4 3.7c0 1.2.1 2.3.4 3.3.3 1 .7 1.9 1.3 2.6.6.8 1.2 1.3 2 1.8.8.4 1.6.6 2.5.6.7 0 1.3-.1 1.9-.3.6-.2 1.1-.5 1.5-.9.4-.4.8-.8 1.1-1.3s.6-1 .8-1.6l1 .5c-.7 1.9-1.7 3.2-2.9 4-1.2.8-2.6 1.2-4.3 1.2zM91.5 20.9c0 .9-.1 1.8-.4 2.7-.3.9-.7 1.6-1.2 2.3-.6.7-1.3 1.2-2.1 1.6-.8.3-1.7.5-2.6.5-.8 0-1.6-.2-2.3-.5-.7-.3-1.4-.8-2-1.4-.6-.6-1-1.3-1.3-2.2-.3-.9-.5-1.8-.5-2.9 0-2 .6-3.7 1.7-5 1.2-1.3 2.7-1.9 4.6-1.9 1.8 0 3.3.6 4.4 1.8 1.1 1.3 1.7 2.9 1.7 5zm-2.7 0c0-.7-.1-1.4-.2-2.1-.1-.7-.3-1.4-.6-1.9s-.6-1-1.1-1.3-1-.5-1.6-.5c-.7 0-1.2.2-1.7.5s-.9.8-1.1 1.4c-.3.5-.5 1.2-.6 1.8s-.2 1.4-.2 2c0 .8.1 1.6.2 2.4s.3 1.4.6 1.9c.3.6.7 1 1.1 1.3.4.3 1 .5 1.7.5 1.1 0 1.9-.5 2.6-1.6.6-1 .9-2.5.9-4.4zM115.1 27.5h-6.2v-.9c.2 0 .4 0 .6-.1.2 0 .4-.1.5-.1.2-.1.4-.2.5-.4.1-.2.2-.5.2-.8v-6.7c0-.9-.2-1.6-.6-2.1-.4-.5-.9-.7-1.5-.7-.4 0-.8.1-1.2.2-.4.1-.7.3-1 .6-.3.2-.5.4-.6.6-.2.2-.3.4-.4.6v7.5c0 .3.1.6.2.8.1.2.3.4.5.5.2.1.4.1.5.2.2 0 .4.1.6.1v.9h-6.1v-.9c.2 0 .4 0 .6-.1.2 0 .4-.1.5-.1.2-.1.4-.2.5-.4.1-.2.2-.5.2-.8v-6.7c0-.9-.2-1.6-.6-2.1-.4-.5-.9-.7-1.5-.7-.4 0-.8.1-1.2.2-.4.1-.7.3-1 .6-.3.2-.5.4-.6.7-.2.2-.3.4-.4.6v7.5c0 .3.1.6.2.8s.3.4.5.5c.2.1.4.2.6.2.2 0 .4.1.6.1v.9h-6.2v-.9c.2 0 .4 0 .6-.1.2 0 .4-.1.6-.1.2-.1.4-.2.5-.4.1-.2.2-.5.2-.8v-8.1c0-.3-.1-.5-.2-.8-.1-.2-.3-.4-.5-.6l-.6-.3c-.2-.1-.5-.1-.8-.1v-.9l4.3-.3.2.2v1.9h.1l.8-.8c.3-.3.6-.5.9-.7.3-.2.7-.4 1.1-.5.5-.1.9-.2 1.5-.2.8 0 1.5.2 2.1.7.6.5 1 1 1.3 1.6l.8-.8c.2-.2.5-.5.9-.7.3-.2.7-.4 1.2-.6.4-.1.9-.2 1.5-.2 1.1 0 1.9.4 2.6 1.1.6.7.9 1.8.9 3.3v6.6c0 .3.1.6.2.8.1.2.3.4.5.5.2.1.4.1.6.2s.4.1.7.1v.4zM128.1 16c.5.6.9 1.3 1.2 2.2.3.8.4 1.8.4 2.8 0 1-.2 2-.5 2.8-.3.9-.8 1.6-1.3 2.2-.6.6-1.2 1.1-1.9 1.4-.7.3-1.5.5-2.3.5-.8 0-1.4-.1-1.9-.3-.5-.2-.9-.4-1.2-.6h-.1v3.9c0 .3.1.6.2.8.1.2.3.4.6.5.2.1.5.2.9.2.4.1.7.1 1 .1v.9H116v-.9c.3 0 .5 0 .8-.1s.5-.1.7-.1c.3-.1.4-.2.5-.5.1-.2.2-.5.2-.8V17.2c0-.3-.1-.5-.2-.8-.1-.2-.3-.4-.5-.6-.2-.1-.4-.2-.6-.2-.3-.1-.5-.1-.8-.1v-.9l4.3-.3.2.2V16h.1c.4-.5 1-1 1.7-1.3.7-.4 1.3-.5 2-.5.8 0 1.5.2 2.2.5.5.3 1.1.7 1.5 1.3zm-2.1 9.4c.3-.5.6-1.2.8-1.9.2-.7.2-1.5.2-2.4 0-.7-.1-1.3-.2-2s-.4-1.3-.6-1.8c-.3-.5-.7-.9-1.2-1.2-.5-.3-1-.5-1.7-.5-.6 0-1.2.1-1.6.4-.4.3-.8.6-1.2 1v7.7c.1.2.2.5.4.7.2.3.4.5.6.7.3.2.6.4.9.5.3.1.7.2 1.1.2.5 0 .9-.1 1.4-.4.4-.1.8-.5 1.1-1zM141.4 16.2c0 .5-.1.9-.3 1.2-.2.3-.5.5-1 .5s-.9-.1-1.1-.4c-.3-.3-.4-.5-.4-.8v-.5c0-.2.1-.3.1-.5-.4 0-.9.2-1.4.5-.5.3-1 .8-1.4 1.4v7.6c0 .3.1.6.2.8.1.2.3.3.6.4.2.1.5.2.8.2.3 0 .6.1.9.1v.9h-6.7v-.9c.2 0 .4 0 .6-.1.2 0 .4-.1.5-.1.2-.1.4-.2.5-.4.1-.2.2-.5.2-.8v-8.1c0-.3-.1-.5-.2-.8-.1-.3-.3-.5-.5-.6-.2-.1-.4-.2-.6-.2-.2 0-.5-.1-.7-.1v-.9l4.2-.3.2.2v1.8h.1c.5-.7 1.1-1.3 1.8-1.6s1.3-.6 1.8-.6 1 .2 1.3.5c.3.5.5.9.5 1.6zM154.2 24.5c-.5 1-1.3 1.9-2.1 2.5-.9.6-1.9.9-3.1.9-1 0-1.9-.2-2.7-.6-.8-.4-1.4-.9-1.9-1.5s-.9-1.4-1.1-2.2c-.2-.8-.4-1.7-.4-2.7 0-.8.1-1.7.4-2.5.3-.8.6-1.6 1.2-2.2.5-.6 1.1-1.1 1.8-1.5.7-.4 1.5-.6 2.5-.6.9 0 1.7.1 2.4.5.7.3 1.2.7 1.6 1.2.4.5.7 1.1.9 1.7s.3 1.4.3 2.2v.9h-8.4c0 .9.1 1.6.2 2.3.2.7.4 1.3.8 1.8.3.5.8.9 1.3 1.2.5.3 1.2.4 1.9.4.8 0 1.4-.2 2-.6.6-.4 1.1-1 1.6-2l.8.8zm-2.8-5c0-.5 0-1-.1-1.6-.1-.6-.2-1-.4-1.4-.2-.4-.5-.7-.8-1-.3-.3-.8-.4-1.3-.4-.9 0-1.7.4-2.3 1.2-.6.8-.9 1.8-1 3.2h5.9zM169.8 27.5h-6.3v-.9c.2 0 .4 0 .7-.1.2 0 .4-.1.6-.1.2-.1.4-.2.5-.4.1-.2.2-.5.2-.8v-6.7c0-.9-.2-1.6-.6-2.1-.4-.5-.9-.8-1.6-.8-.4 0-.9.1-1.3.2s-.7.3-1 .5c-.3.2-.5.4-.7.7-.2.2-.3.4-.4.6v7.5c0 .3.1.5.2.7.1.2.3.3.5.5.2.1.4.2.6.2.2 0 .4.1.7.1v.9h-6.2v-.9c.2 0 .4 0 .6-.1.2 0 .4-.1.5-.1.2-.1.4-.2.5-.4.1-.2.2-.5.2-.8V10.1c0-.3-.1-.6-.2-.9-.1-.3-.3-.5-.5-.7-.2-.1-.4-.2-.8-.2s-.7-.1-1-.1v-.9l4.7-.3.2.2v9.1h.1c.3-.3.5-.6.8-.8.2-.2.5-.5.9-.7.3-.2.7-.4 1.2-.5.4-.1.9-.2 1.5-.2 1.1 0 2 .4 2.6 1.1.6.7.9 1.8.9 3.2v6.8c0 .3.1.6.2.7.1.2.3.3.5.4.2.1.4.1.5.2s.4.1.6.1v.9zM182.7 24.5c-.5 1-1.3 1.9-2.1 2.5-.9.6-1.9.9-3.1.9-1 0-1.9-.2-2.7-.6-.8-.4-1.4-.9-1.9-1.5s-.9-1.4-1.1-2.2c-.2-.8-.4-1.7-.4-2.7 0-.8.1-1.7.4-2.5.3-.8.6-1.6 1.2-2.2.5-.6 1.1-1.1 1.8-1.5.7-.4 1.5-.6 2.5-.6.9 0 1.7.1 2.4.5.7.3 1.2.7 1.6 1.2.4.5.7 1.1.9 1.7s.3 1.4.3 2.2v.9h-8.4c0 .9.1 1.6.2 2.3.2.7.4 1.3.8 1.8.3.5.8.9 1.3 1.2.5.3 1.2.4 1.9.4.8 0 1.4-.2 2-.6.6-.4 1.1-1 1.6-2l.8.8zm-2.9-5c0-.5 0-1-.1-1.6-.1-.6-.2-1-.4-1.4-.2-.4-.5-.7-.8-1-.3-.3-.8-.4-1.3-.4-.9 0-1.7.4-2.3 1.2-.6.8-.9 1.8-1 3.2h5.9zM198.4 27.5h-6.2v-.9c.2 0 .4 0 .7-.1.2 0 .4-.1.6-.1.2-.1.4-.2.5-.4.1-.2.2-.5.2-.8v-6.7c0-.9-.2-1.6-.6-2.1-.4-.5-.9-.8-1.6-.8-.5 0-.9.1-1.3.2s-.7.3-1 .5c-.3.2-.5.4-.7.7-.2.2-.3.4-.4.6v7.5c0 .3.1.5.2.7.1.2.3.3.5.5.2.1.4.2.6.2.2 0 .4.1.7.1v.9h-6.2v-.9c.2 0 .4 0 .6-.1.2 0 .4-.1.5-.1.2-.1.4-.2.5-.4.1-.2.2-.5.2-.8v-8.1c0-.3-.1-.6-.2-.8s-.3-.5-.5-.6c-.2-.1-.4-.2-.6-.2-.2 0-.5-.1-.7-.1v-.9l4.2-.3.2.2v1.8h.1l.8-.8c.3-.3.6-.5.9-.7.3-.2.7-.4 1.1-.5.4-.1.9-.2 1.5-.2 1.2 0 2.1.4 2.7 1.2.6.8.9 1.8.9 3.1v6.8c0 .3.1.6.2.7.1.2.3.3.5.4.2.1.4.2.5.2.2 0 .4.1.6.1v1zM209 21.1c.4.3.6.7.8 1.1.2.4.3.9.3 1.5 0 1.2-.4 2.2-1.3 3-.9.8-2 1.2-3.4 1.2-.7 0-1.4-.1-2.1-.4-.6-.3-1.1-.5-1.3-.8l-.3.9h-1l-.1-4.5h.9c.1.3.2.7.4 1.2s.5.9.8 1.2c.3.4.7.7 1.2 1 .5.3 1 .4 1.6.4.8 0 1.5-.2 1.9-.6.4-.4.7-.9.7-1.7 0-.4-.1-.7-.2-1-.1-.3-.4-.5-.6-.7-.3-.2-.6-.4-1-.6-.4-.2-.9-.3-1.4-.5-.4-.1-.9-.3-1.4-.5-.5-.2-.9-.5-1.3-.8-.4-.3-.7-.7-.9-1.1-.2-.5-.4-1-.4-1.6 0-1.1.4-2 1.2-2.7s1.8-1.1 3.1-1.1c.5 0 1 .1 1.5.2s.9.3 1.3.5l.3-.7h.9l.2 4.2h-.9c-.2-.9-.6-1.7-1.2-2.3-.6-.6-1.3-.9-2.2-.9-.7 0-1.3.2-1.7.5-.4.4-.6.8-.6 1.3 0 .4.1.7.2 1 .1.3.3.5.6.7.3.2.6.3 1 .5s.9.3 1.5.5 1.1.4 1.6.6 1 .7 1.3 1zM218.5 27.5h-6.2v-.9c.2 0 .4 0 .6-.1.2 0 .4-.1.5-.1.2-.1.4-.2.5-.4.1-.2.2-.5.2-.8v-8.1c0-.3-.1-.5-.2-.8-.1-.2-.3-.4-.5-.6-.2-.1-.4-.2-.7-.3-.3-.1-.6-.1-.9-.1v-.9l4.5-.3.2.2V25c0 .3.1.6.2.8.1.2.3.4.5.5.2.1.4.1.6.2.2 0 .4.1.6.1v.9zm-1.6-18.3c0 .5-.2.9-.5 1.3s-.7.6-1.2.6c-.4 0-.8-.2-1.1-.5s-.5-.8-.5-1.2c0-.5.2-.9.5-1.3s.7-.5 1.1-.5c.5 0 .9.2 1.2.5.3.2.5.6.5 1.1zM232.9 15.3c-.4.1-.8.2-1.1.4-.3.2-.6.6-.9 1.1-.5 1.2-1 2.4-1.6 3.7-.5 1.3-1.1 2.6-1.7 4-.2.4-.4.9-.6 1.4s-.4 1.1-.5 1.6h-1c-.8-2.1-1.6-4-2.3-5.7-.7-1.7-1.4-3.5-2.1-5.3-.2-.4-.5-.7-.8-.9-.4-.2-.8-.4-1.2-.4v-.9h5.9v.9c-.3 0-.6.1-1 .2s-.6.2-.6.4c0 0 0 .1.1.2 0 .1.1.2.1.4.4.9.9 2.2 1.5 3.8.6 1.6 1.2 2.9 1.6 3.9.3-.8.7-1.7 1.2-2.8.5-1.1 1-2.4 1.5-3.8.1-.2.2-.5.2-.7.1-.2.1-.4.1-.6 0-.1-.1-.3-.2-.4-.1-.1-.3-.2-.5-.3-.2-.1-.4-.2-.6-.2-.2 0-.3-.1-.5-.1v-.8h4.9v.9zM244.9 24.5c-.5 1-1.3 1.9-2.1 2.5-.9.6-1.9.9-3.1.9-1 0-1.9-.2-2.7-.6-.8-.4-1.4-.9-1.9-1.5s-.9-1.4-1.1-2.2c-.2-.8-.4-1.7-.4-2.7 0-.8.1-1.7.4-2.5.3-.8.6-1.6 1.2-2.2.5-.6 1.1-1.1 1.8-1.5.7-.4 1.5-.6 2.5-.6.9 0 1.7.1 2.4.5.7.3 1.2.7 1.6 1.2.4.5.7 1.1.9 1.7s.3 1.4.3 2.2v.9h-8.4c0 .9.1 1.6.2 2.3.2.7.4 1.3.8 1.8.3.5.8.9 1.3 1.2.5.3 1.2.4 1.9.4.8 0 1.4-.2 2-.6.6-.4 1.1-1 1.6-2l.8.8zm-2.8-5c0-.5 0-1-.1-1.6-.1-.6-.2-1-.4-1.4-.2-.4-.5-.7-.8-1-.3-.3-.8-.4-1.3-.4-.9 0-1.7.4-2.3 1.2-.6.8-.9 1.8-1 3.2h5.9zM269.4 13.8h-.9c-.1-.3-.2-.7-.4-1.1-.2-.4-.4-.9-.7-1.2-.3-.4-.5-.8-.8-1.1-.3-.3-.6-.5-.9-.5-.3 0-.6-.1-1-.1H262.8v15c0 .3.1.6.2.8.1.2.3.4.6.6.2.1.5.1 1 .3.5.1.9.2 1.2.2v.9h-8.7v-.9c.2 0 .6-.1 1.1-.1.5-.1.8-.1 1-.2.3-.1.5-.3.6-.5.1-.2.2-.5.2-.9V9.8h-1.8c-.4 0-.8 0-1.1.1-.3 0-.6.2-.9.5-.3.3-.6.7-.8 1.1-.3.4-.5.8-.7 1.3s-.3.8-.4 1.1h-.9V8.7h16v5.1zM279.3 16.2c0 .5-.1.9-.3 1.2-.2.3-.5.5-1 .5s-.9-.1-1.1-.4c-.3-.3-.4-.5-.4-.8v-.5c0-.2.1-.3.1-.5-.4 0-.9.2-1.4.5-.5.3-1 .8-1.4 1.4v7.6c0 .3.1.6.2.8.1.2.3.3.6.4.2.1.5.2.8.2.3 0 .6.1.9.1v.9h-6.7v-.9c.2 0 .4 0 .6-.1.2 0 .4-.1.6-.1.2-.1.4-.2.5-.4.1-.2.2-.5.2-.8v-8.1c0-.3-.1-.5-.2-.8-.1-.3-.3-.5-.5-.6-.2-.1-.4-.2-.6-.2-.2 0-.5-.1-.7-.1v-.9l4.2-.3.2.2v1.8h.1c.5-.7 1.1-1.3 1.8-1.6.7-.4 1.3-.6 1.8-.6s1 .2 1.3.5c.2.5.4.9.4 1.6zM292.2 24.5c-.5 1-1.3 1.9-2.1 2.5-.9.6-1.9.9-3.1.9-1 0-1.9-.2-2.7-.6-.8-.4-1.4-.9-1.9-1.5s-.9-1.4-1.1-2.2c-.2-.8-.4-1.7-.4-2.7 0-.8.1-1.7.4-2.5.3-.8.6-1.6 1.2-2.2.5-.6 1.1-1.1 1.8-1.5.7-.4 1.5-.6 2.5-.6.9 0 1.7.1 2.4.5.7.3 1.2.7 1.6 1.2.4.5.7 1.1.9 1.7.2.7.3 1.4.3 2.2v.9h-8.4c0 .9.1 1.6.2 2.3.2.7.4 1.3.8 1.8.3.5.8.9 1.3 1.2.5.3 1.2.4 1.9.4.8 0 1.4-.2 2-.6s1.1-1 1.6-2l.8.8zm-2.9-5c0-.5 0-1-.1-1.6-.1-.6-.2-1-.4-1.4-.2-.4-.5-.7-.8-1-.3-.3-.8-.4-1.3-.4-.9 0-1.7.4-2.3 1.2-.6.8-.9 1.8-1 3.2h5.9zM306.4 27.3c-.4.2-.8.3-1.1.4-.3.1-.7.1-1 .1-.7 0-1.2-.2-1.6-.5s-.7-.8-.8-1.4h-.1c-.6.6-1.2 1.1-1.8 1.5-.6.3-1.4.5-2.3.5-1 0-1.7-.3-2.4-.9-.6-.6-.9-1.4-.9-2.4 0-.5.1-1 .2-1.4.1-.4.3-.8.6-1.1.2-.3.5-.5.9-.7.4-.2.7-.4 1-.5.4-.1 1.2-.4 2.4-.8s2-.7 2.4-1v-1.3c0-.1 0-.3-.1-.7 0-.3-.1-.6-.3-.9-.2-.3-.4-.6-.7-.9-.3-.2-.8-.4-1.3-.4-.4 0-.8.1-1.1.2-.3.1-.6.3-.7.4 0 .2 0 .4.1.8.1.3.1.7.1 1 0 .3-.1.6-.4.8-.3.3-.6.4-1.1.4-.4 0-.7-.2-1-.5-.2-.3-.3-.7-.3-1.1 0-.4.1-.8.4-1.2.3-.4.6-.7 1.1-1 .4-.2.9-.5 1.4-.6.6-.2 1.1-.3 1.6-.3.7 0 1.4.1 1.9.2s1 .3 1.5.7c.4.3.8.8 1 1.3.2.6.3 1.3.3 2.2v6.6c0 .3.1.6.2.8.1.2.3.4.5.5.1.1.3.1.6.1h.9v1.1zm-4.5-7c-.7.2-1.4.4-1.9.7-.6.2-1.1.5-1.5.8-.4.3-.8.7-1 1.1-.3.4-.4.9-.4 1.5 0 .7.2 1.3.6 1.6.4.3.9.5 1.4.5.6 0 1.2-.2 1.6-.5.5-.3.9-.7 1.2-1.1v-4.6zM315.5 27c-.6.2-1.1.4-1.6.6-.5.2-1.1.2-1.8.2-1.1 0-1.8-.3-2.3-.8-.4-.6-.7-1.3-.7-2.3v-8.9h-2.3v-1.3h2.4v-4.1h2.4v4.1h3.7v1.3h-3.6v7.3c0 .5 0 1 .1 1.4 0 .4.1.7.3 1 .1.3.3.5.6.6.3.1.6.2 1.1.2.2 0 .5 0 1-.1.4 0 .7-.1.9-.2v1zM339.4 27.5h-6.2v-.9c.2 0 .4 0 .6-.1.2 0 .4-.1.5-.1.2-.1.4-.2.5-.4.1-.2.2-.5.2-.8v-6.7c0-.9-.2-1.6-.6-2.1-.4-.5-.9-.7-1.5-.7-.4 0-.8.1-1.2.2-.4.1-.7.3-1 .6-.3.2-.5.4-.6.6-.2.2-.3.4-.4.6v7.5c0 .3.1.6.2.8.1.2.3.4.5.5.2.1.4.1.5.2s.4.1.6.1v.9h-6.1v-.9c.2 0 .4 0 .6-.1.2 0 .4-.1.5-.1.2-.1.4-.2.5-.4.1-.2.2-.5.2-.8v-6.7c0-.9-.2-1.6-.6-2.1-.4-.5-.9-.7-1.5-.7-.4 0-.8.1-1.2.2-.4.1-.7.3-1 .6-.3.2-.5.4-.6.7-.2.2-.3.4-.4.6v7.5c0 .3.1.6.2.8s.3.4.5.5c.2.1.4.2.6.2.2 0 .4.1.6.1v.9h-6.2v-.9c.2 0 .4 0 .6-.1.2 0 .4-.1.6-.1.2-.1.4-.2.5-.4.1-.2.2-.5.2-.8v-8.1c0-.3-.1-.5-.2-.8-.1-.2-.3-.4-.5-.6l-.6-.3c-.2-.1-.5-.1-.8-.1v-.9l4.3-.3.2.2v1.9h.1l.8-.8c.3-.3.6-.5.9-.7.3-.2.7-.4 1.1-.5.5-.1.9-.2 1.5-.2.8 0 1.5.2 2.1.7.6.5 1 1 1.3 1.6l.8-.8c.2-.2.5-.5.9-.7.3-.2.7-.4 1.2-.6.4-.1.9-.2 1.5-.2 1.1 0 1.9.4 2.6 1.1.6.7.9 1.8.9 3.3v6.6c0 .3.1.6.2.8.1.2.3.4.5.5.2.1.4.1.6.2.2 0 .4.1.7.1v.4zM352.2 24.5c-.5 1-1.3 1.9-2.1 2.5-.9.6-1.9.9-3.1.9-1 0-1.9-.2-2.7-.6-.8-.4-1.4-.9-1.9-1.5s-.9-1.4-1.1-2.2c-.2-.8-.4-1.7-.4-2.7 0-.8.1-1.7.4-2.5.3-.8.6-1.6 1.2-2.2.5-.6 1.1-1.1 1.8-1.5.7-.4 1.5-.6 2.5-.6.9 0 1.7.1 2.4.5.7.3 1.2.7 1.6 1.2.4.5.7 1.1.9 1.7.2.7.3 1.4.3 2.2v.9h-8.4c0 .9.1 1.6.2 2.3.2.7.4 1.3.8 1.8.3.5.8.9 1.3 1.2.5.3 1.2.4 1.9.4.8 0 1.4-.2 2-.6s1.1-1 1.6-2l.8.8zm-2.8-5c0-.5 0-1-.1-1.6-.1-.6-.2-1-.4-1.4-.2-.4-.5-.7-.8-1-.3-.3-.8-.4-1.3-.4-.9 0-1.7.4-2.3 1.2-.6.8-.9 1.8-1 3.2h5.9zM368 27.5h-6.2v-.9c.2 0 .4 0 .7-.1.2 0 .4-.1.6-.1.2-.1.4-.2.5-.4.1-.2.2-.5.2-.8v-6.7c0-.9-.2-1.6-.6-2.1-.4-.5-.9-.8-1.6-.8-.5 0-.9.1-1.3.2s-.7.3-1 .5c-.3.2-.5.4-.7.7-.2.2-.3.4-.4.6v7.5c0 .3.1.5.2.7.1.2.3.3.5.5.2.1.4.2.6.2.2 0 .4.1.7.1v.9H354v-.9c.2 0 .4 0 .6-.1.2 0 .4-.1.6-.1.2-.1.4-.2.5-.4.1-.2.2-.5.2-.8v-8.1c0-.3-.1-.6-.2-.8-.1-.3-.3-.5-.5-.6-.2-.1-.4-.2-.6-.2-.2 0-.5-.1-.7-.1v-.9l4.2-.3.2.2v1.8h.1l.8-.8c.3-.3.6-.5.9-.7.3-.2.7-.4 1.1-.5.4-.1.9-.2 1.5-.2 1.2 0 2.1.4 2.7 1.2.6.8.9 1.8.9 3.1v6.8c0 .3.1.6.2.7.1.2.3.3.5.4.2.1.4.2.5.2.2 0 .4.1.6.1v1zM377.3 27c-.6.2-1.1.4-1.6.6-.5.2-1.1.2-1.8.2-1.1 0-1.8-.3-2.3-.8-.4-.6-.7-1.3-.7-2.3v-8.9h-2.3v-1.3h2.4v-4.1h2.4v4.1h3.7v1.3h-3.6v7.3c0 .5 0 1 .1 1.4 0 .4.1.7.3 1 .1.3.3.5.6.6.3.1.6.2 1.1.2.2 0 .5 0 1-.1.4 0 .7-.1.9-.2v1zM394.7 28c-1.1 0-2.1-.2-3.1-.7-1-.4-1.9-1.1-2.7-1.9-.8-.8-1.4-1.8-1.8-3-.5-1.2-.7-2.5-.7-4.1s.2-2.9.7-4.1c.4-1.2 1.1-2.3 1.9-3.2.8-.9 1.7-1.6 2.8-2 1.1-.5 2.2-.7 3.4-.7.9 0 1.7.1 2.5.3.7.2 1.4.6 2.1 1l.5-.9h1l.1 6.7h-1.1c-.1-.7-.3-1.4-.6-2.1-.3-.8-.6-1.4-1-1.9-.4-.6-.9-1.1-1.5-1.4-.6-.3-1.2-.5-2-.5s-1.6.2-2.3.6-1.3.9-1.9 1.7c-.5.7-.9 1.6-1.2 2.7-.3 1.1-.4 2.3-.4 3.7 0 1.2.1 2.3.4 3.3.3 1 .7 1.9 1.3 2.6.6.8 1.2 1.3 2 1.8.8.4 1.6.6 2.5.6.7 0 1.3-.1 1.9-.3.6-.2 1.1-.5 1.5-.9.4-.4.8-.8 1.1-1.3.3-.5.6-1 .8-1.6l1 .5c-.7 1.9-1.7 3.2-2.9 4-1.2.7-2.6 1.1-4.3 1.1zM415.4 24.5c-.5 1-1.3 1.9-2.1 2.5-.9.6-1.9.9-3.1.9-1 0-1.9-.2-2.7-.6-.8-.4-1.4-.9-1.9-1.5s-.9-1.4-1.1-2.2c-.2-.8-.4-1.7-.4-2.7 0-.8.1-1.7.4-2.5.3-.8.6-1.6 1.2-2.2.5-.6 1.1-1.1 1.8-1.5.7-.4 1.5-.6 2.5-.6.9 0 1.7.1 2.4.5.7.3 1.2.7 1.6 1.2.4.5.7 1.1.9 1.7.2.7.3 1.4.3 2.2v.9h-8.4c0 .9.1 1.6.2 2.3.2.7.4 1.3.8 1.8.3.5.8.9 1.3 1.2.5.3 1.2.4 1.9.4.8 0 1.4-.2 2-.6s1.1-1 1.6-2l.8.8zm-2.9-5c0-.5 0-1-.1-1.6-.1-.6-.2-1-.4-1.4-.2-.4-.5-.7-.8-1-.3-.3-.8-.4-1.3-.4-.9 0-1.7.4-2.3 1.2-.6.8-.9 1.8-1 3.2h5.9zM431.2 27.5H425v-.9c.2 0 .4 0 .7-.1.2 0 .4-.1.6-.1.2-.1.4-.2.5-.4.1-.2.2-.5.2-.8v-6.7c0-.9-.2-1.6-.6-2.1-.4-.5-.9-.8-1.6-.8-.5 0-.9.1-1.3.2s-.7.3-1 .5c-.3.2-.5.4-.7.7-.2.2-.3.4-.4.6v7.5c0 .3.1.5.2.7.1.2.3.3.5.5.2.1.4.2.6.2.2 0 .4.1.7.1v.9h-6.2v-.9c.2 0 .4 0 .6-.1.2 0 .4-.1.6-.1.2-.1.4-.2.5-.4.1-.2.2-.5.2-.8v-8.1c0-.3-.1-.6-.2-.8-.1-.3-.3-.5-.5-.6-.2-.1-.4-.2-.6-.2-.2 0-.5-.1-.7-.1v-.9l4.2-.3.2.2v1.8h.1l.8-.8c.3-.3.6-.5.9-.7.3-.2.7-.4 1.1-.5.4-.1.9-.2 1.5-.2 1.2 0 2.1.4 2.7 1.2.6.8.9 1.8.9 3.1v6.8c0 .3.1.6.2.7.1.2.3.3.5.4.2.1.4.2.5.2.2 0 .4.1.6.1v1zM440.5 27c-.6.2-1.1.4-1.6.6-.5.2-1.1.2-1.8.2-1.1 0-1.8-.3-2.3-.8-.4-.6-.7-1.3-.7-2.3v-8.9h-2.3v-1.3h2.4v-4.1h2.4v4.1h3.7v1.3h-3.6v7.3c0 .5 0 1 .1 1.4 0 .4.1.7.3 1 .1.3.3.5.6.6.3.1.6.2 1.1.2.2 0 .5 0 1-.1.4 0 .7-.1.9-.2v1zM453.2 24.5c-.5 1-1.3 1.9-2.1 2.5-.9.6-1.9.9-3.1.9-1 0-1.9-.2-2.7-.6-.8-.4-1.4-.9-1.9-1.5s-.9-1.4-1.1-2.2c-.2-.8-.4-1.7-.4-2.7 0-.8.1-1.7.4-2.5.3-.8.6-1.6 1.2-2.2.5-.6 1.1-1.1 1.8-1.5.7-.4 1.5-.6 2.5-.6.9 0 1.7.1 2.4.5.7.3 1.2.7 1.6 1.2.4.5.7 1.1.9 1.7.2.7.3 1.4.3 2.2v.9h-8.4c0 .9.1 1.6.2 2.3.2.7.4 1.3.8 1.8.3.5.8.9 1.3 1.2.5.3 1.2.4 1.9.4.8 0 1.4-.2 2-.6s1.1-1 1.6-2l.8.8zm-2.9-5c0-.5 0-1-.1-1.6-.1-.6-.2-1-.4-1.4-.2-.4-.5-.7-.8-1-.3-.3-.8-.4-1.3-.4-.9 0-1.7.4-2.3 1.2-.6.8-.9 1.8-1 3.2h5.9zM464.6 16.2c0 .5-.1.9-.3 1.2-.2.3-.5.5-1 .5s-.9-.1-1.1-.4c-.3-.3-.4-.5-.4-.8v-.5c0-.2.1-.3.1-.5-.4 0-.9.2-1.4.5-.5.3-1 .8-1.4 1.4v7.6c0 .3.1.6.2.8.1.2.3.3.6.4.2.1.5.2.8.2.3 0 .6.1.9.1v.9h-6.7v-.9c.2 0 .4 0 .6-.1.2 0 .4-.1.6-.1.2-.1.4-.2.5-.4.1-.2.2-.5.2-.8v-8.1c0-.3-.1-.5-.2-.8-.1-.3-.3-.5-.5-.6-.2-.1-.4-.2-.6-.2-.2 0-.5-.1-.7-.1v-.9l4.2-.3.2.2v1.8h.1c.5-.7 1.1-1.3 1.8-1.6.7-.4 1.3-.6 1.8-.6s1 .2 1.3.5c.3.5.4.9.4 1.6zM474.8 21.1c.4.3.6.7.8 1.1.2.4.3.9.3 1.5 0 1.2-.4 2.2-1.3 3-.9.8-2 1.2-3.4 1.2-.7 0-1.4-.1-2.1-.4-.6-.3-1.1-.5-1.3-.8l-.3.9h-1l-.1-4.5h.9c.1.3.2.7.4 1.2s.5.9.8 1.2c.3.4.7.7 1.2 1 .5.3 1 .4 1.6.4.8 0 1.5-.2 1.9-.6.4-.4.7-.9.7-1.7 0-.4-.1-.7-.2-1-.1-.3-.4-.5-.6-.7-.3-.2-.6-.4-1-.6-.4-.2-.9-.3-1.4-.5-.4-.1-.9-.3-1.4-.5-.5-.2-.9-.5-1.3-.8-.4-.3-.7-.7-.9-1.1-.2-.5-.4-1-.4-1.6 0-1.1.4-2 1.2-2.7s1.8-1.1 3.1-1.1c.5 0 1 .1 1.5.2s.9.3 1.3.5l.3-.7h.9l.2 4.2h-.9c-.2-.9-.6-1.7-1.2-2.3-.6-.6-1.3-.9-2.2-.9-.7 0-1.3.2-1.7.5-.4.4-.6.8-.6 1.3 0 .4.1.7.2 1 .1.3.3.5.6.7.3.2.6.3 1 .5s.9.3 1.5.5 1.1.4 1.6.6c.5.5 1 .7 1.3 1zM72.2 43.1c0 4.3-2.6 6.6-5.7 6.6-3.2 0-5.5-2.6-5.5-6.4 0-4 2.4-6.6 5.7-6.6 3.3 0 5.5 2.6 5.5 6.4zm-9.5.2c0 2.7 1.4 5.1 3.9 5.1s3.9-2.4 3.9-5.2c0-2.5-1.3-5.1-3.9-5.1-2.6-.1-3.9 2.4-3.9 5.2zM74.7 43.4c0-1.2 0-2.1-.1-3H76l.1 1.6c.7-1.1 1.7-1.8 3.1-1.8 2.1 0 3.7 1.9 3.7 4.6 0 3.3-1.9 4.9-4 4.9-1.2 0-2.2-.5-2.7-1.4v4.9h-1.6v-9.8zm1.6 2.4c0 .2 0 .5.1.7.3 1.1 1.3 1.9 2.4 1.9 1.7 0 2.7-1.4 2.7-3.5 0-1.8-.9-3.4-2.6-3.4-1.1 0-2.1.8-2.4 2-.1.2-.1.4-.1.7v1.6zM87.5 37.9c0 .6-.4 1-1 1s-1-.4-1-1 .4-1 1-1 1 .4 1 1zm-1.8 11.6v-9.1h1.6v9.1h-1.6zM98.5 44.9c0 3.4-2.2 4.8-4.4 4.8-2.4 0-4.2-1.8-4.2-4.7 0-3 1.9-4.8 4.4-4.8 2.5 0 4.2 1.9 4.2 4.7zm-7 .1c0 2 1.1 3.5 2.7 3.5 1.5 0 2.7-1.5 2.7-3.5 0-1.5-.7-3.5-2.6-3.5s-2.8 1.8-2.8 3.5zM102.9 37.9c0 .6-.4 1-1 1s-1-.4-1-1 .4-1 1-1 1 .4 1 1zm-1.8 11.6v-9.1h1.6v9.1h-1.6zM113.5 36.2v11c0 .8 0 1.7.1 2.3h-1.4l-.1-1.6c-.5 1-1.6 1.8-3 1.8-2.1 0-3.8-1.9-3.8-4.6 0-3 1.8-4.9 3.9-4.9 1.3 0 2.3.7 2.6 1.4v-5.4h1.7zm-1.6 7.9c0-.2 0-.5-.1-.7-.2-1-1.1-1.9-2.3-1.9-1.7 0-2.6 1.5-2.6 3.5 0 1.8.9 3.3 2.6 3.3 1.1 0 2.1-.7 2.3-2 .1-.2.1-.4.1-.7v-1.5zM122.8 36.9v7.5c0 2.8 1.2 4 2.8 4 1.8 0 3-1.2 3-4v-7.5h1.6v7.4c0 3.9-2 5.5-4.6 5.5-2.5 0-4.4-1.5-4.4-5.4V37h1.6zM133.2 47.8c.5.3 1.3.7 2.1.7 1.2 0 1.7-.6 1.7-1.3 0-.8-.5-1.2-1.6-1.7-1.6-.6-2.3-1.5-2.3-2.6 0-1.5 1.1-2.7 3-2.7.9 0 1.7.3 2.2.6l-.4 1.2c-.3-.2-1-.5-1.8-.5-.9 0-1.5.6-1.5 1.2 0 .7.5 1.1 1.7 1.5 1.5.6 2.3 1.4 2.3 2.7 0 1.6-1.2 2.7-3.3 2.7-1 0-1.9-.2-2.5-.6l.4-1.2zM142.1 45.3c0 2.2 1.4 3.1 3 3.1 1.1 0 1.8-.2 2.4-.5l.3 1.2c-.6.3-1.5.6-2.9.6-2.7 0-4.3-1.8-4.3-4.6s1.6-4.9 4.1-4.9c2.9 0 3.6 2.6 3.6 4.3 0 .3 0 .6-.1.8h-6.1zm4.7-1.2c0-1-.4-2.7-2.2-2.7-1.6 0-2.3 1.5-2.4 2.7h4.6zM155.4 37c1-.1 2.1-.3 3.4-.3 2.3 0 3.9.5 5 1.6 1.1 1 1.7 2.5 1.7 4.5 0 2.1-.6 3.7-1.8 4.9-1.1 1.2-3 1.8-5.4 1.8-1.1 0-2.1-.1-2.9-.1V37zm1.6 11.2c.4.1 1 .1 1.6.1 3.4 0 5.2-1.9 5.2-5.4 0-3-1.6-4.9-5-4.9-.8 0-1.4.1-1.9.2v10zM169.8 37.9c0 .6-.4 1-1 1s-1-.4-1-1 .4-1 1-1 1 .4 1 1zM168 49.5v-9.1h1.6v9.1H168zM172.7 47.8c.5.3 1.3.7 2.1.7 1.2 0 1.7-.6 1.7-1.3 0-.8-.5-1.2-1.6-1.7-1.6-.6-2.3-1.5-2.3-2.6 0-1.5 1.1-2.7 3-2.7.9 0 1.7.3 2.2.6l-.4 1.2c-.3-.2-1-.5-1.8-.5-.9 0-1.5.6-1.5 1.2 0 .7.5 1.1 1.7 1.5 1.5.6 2.3 1.4 2.3 2.7 0 1.6-1.2 2.7-3.3 2.7-1 0-1.9-.2-2.5-.6l.4-1.2zM188.6 44.9c0 3.4-2.2 4.8-4.4 4.8-2.4 0-4.2-1.8-4.2-4.7 0-3 1.9-4.8 4.4-4.8 2.5 0 4.2 1.9 4.2 4.7zm-6.9.1c0 2 1.1 3.5 2.7 3.5 1.5 0 2.7-1.5 2.7-3.5 0-1.5-.7-3.5-2.6-3.5s-2.8 1.8-2.8 3.5zM191.2 43.3c0-1.1 0-2-.1-2.8h1.4l.1 1.8h.1c.4-1.2 1.4-2 2.4-2 .2 0 .3 0 .5.1V42c-.2 0-.3-.1-.5-.1-1.1 0-1.9.9-2.1 2.1 0 .2-.1.5-.1.8v4.8h-1.6v-6.3zM205.2 36.2v11c0 .8 0 1.7.1 2.3h-1.4l-.1-1.6c-.5 1-1.6 1.8-3 1.8-2.1 0-3.8-1.9-3.8-4.6 0-3 1.8-4.9 3.9-4.9 1.3 0 2.3.7 2.6 1.4v-5.4h1.7zm-1.6 7.9c0-.2 0-.5-.1-.7-.2-1-1.1-1.9-2.3-1.9-1.7 0-2.6 1.5-2.6 3.5 0 1.8.9 3.3 2.6 3.3 1.1 0 2.1-.7 2.3-2 .1-.2.1-.4.1-.7v-1.5zM209.3 45.3c0 2.2 1.4 3.1 3 3.1 1.1 0 1.8-.2 2.4-.5l.3 1.2c-.6.3-1.5.6-2.9.6-2.7 0-4.3-1.8-4.3-4.6s1.6-4.9 4.1-4.9c2.9 0 3.6 2.6 3.6 4.3 0 .3 0 .6-.1.8h-6.1zm4.7-1.2c0-1-.4-2.7-2.2-2.7-1.6 0-2.3 1.5-2.4 2.7h4.6zM218.1 43.3c0-1.1 0-2-.1-2.8h1.4l.1 1.8h.1c.4-1.2 1.4-2 2.4-2 .2 0 .3 0 .5.1V42c-.2 0-.3-.1-.5-.1-1.1 0-1.9.9-2.1 2.1 0 .2-.1.5-.1.8v4.8h-1.6v-6.3zM229.2 37c.8-.1 1.8-.2 3-.2 1.6 0 2.7.4 3.4 1 .7.6 1.1 1.5 1.1 2.6s-.3 2-.9 2.7c-.8.9-2.2 1.4-3.7 1.4-.5 0-.9 0-1.3-.1v5.1h-1.6V37zm1.5 6.1c.3.1.8.1 1.3.1 1.9 0 3.1-1 3.1-2.7 0-1.7-1.1-2.5-2.9-2.5-.7 0-1.2.1-1.5.1v5zM239.1 43.3c0-1.1 0-2-.1-2.8h1.4l.1 1.8h.1c.4-1.2 1.4-2 2.4-2 .2 0 .3 0 .5.1V42c-.2 0-.3-.1-.5-.1-1.1 0-1.9.9-2.1 2.1 0 .2-.1.5-.1.8v4.8h-1.6v-6.3zM253.4 44.9c0 3.4-2.3 4.8-4.4 4.8-2.4 0-4.2-1.8-4.2-4.7 0-3 1.9-4.8 4.4-4.8 2.5 0 4.2 1.9 4.2 4.7zm-7 .1c0 2 1.1 3.5 2.7 3.5 1.5 0 2.7-1.5 2.7-3.5 0-1.5-.7-3.5-2.6-3.5s-2.8 1.8-2.8 3.5zM263.5 40.4c0 .7-.1 1.4-.1 2.5v5.3c0 2.1-.4 3.4-1.3 4.1-.9.8-2.1 1.1-3.2 1.1s-2.2-.3-2.9-.7l.4-1.3c.6.4 1.5.7 2.6.7 1.6 0 2.8-.9 2.8-3.2v-1c-.5.8-1.4 1.5-2.8 1.5-2.2 0-3.7-1.9-3.7-4.4 0-3.1 1.9-4.8 4-4.8 1.5 0 2.4.8 2.7 1.6l.1-1.4h1.4zm-1.6 3.6c0-.3 0-.5-.1-.7-.3-1-1.1-1.7-2.2-1.7-1.5 0-2.6 1.3-2.6 3.4 0 1.8.9 3.3 2.6 3.3 1 0 1.9-.6 2.2-1.7.1-.3.1-.6.1-.9V44zM266.6 43.3c0-1.1 0-2-.1-2.8h1.4l.1 1.8h.1c.4-1.2 1.4-2 2.4-2 .2 0 .3 0 .5.1V42c-.2 0-.3-.1-.5-.1-1.1 0-1.9.9-2.1 2.1 0 .2-.1.5-.1.8v4.8h-1.6v-6.3zM277.9 49.5l-.1-1.1h-.1c-.5.7-1.4 1.3-2.7 1.3-1.8 0-2.7-1.3-2.7-2.6 0-2.2 1.9-3.4 5.3-3.4v-.2c0-.7-.2-2.1-2-2.1-.8 0-1.7.3-2.3.7L273 41c.7-.5 1.8-.8 2.9-.8 2.7 0 3.3 1.9 3.3 3.7v3.4c0 .8 0 1.6.1 2.2h-1.4zm-.2-4.6c-1.7 0-3.7.3-3.7 2 0 1.1.7 1.6 1.5 1.6 1.1 0 1.9-.7 2.1-1.5.1-.2.1-.4.1-.5v-1.6zM282.4 42.9c0-.9 0-1.7-.1-2.5h1.4l.1 1.5h.1c.5-.9 1.3-1.7 2.8-1.7 1.2 0 2.1.7 2.5 1.8.3-.5.6-.9 1-1.2.5-.4 1.1-.6 1.9-.6 1.2 0 2.9.8 2.9 3.9v5.3h-1.6v-5.1c0-1.7-.6-2.8-1.9-2.8-.9 0-1.6.7-1.9 1.5-.1.2-.1.5-.1.8v5.6h-1.6V44c0-1.4-.6-2.5-1.8-2.5-1 0-1.7.8-2 1.6-.1.2-.1.5-.1.8v5.5h-1.6v-6.5zM297.9 47.8c.5.3 1.3.7 2.1.7 1.2 0 1.7-.6 1.7-1.3 0-.8-.5-1.2-1.6-1.7-1.6-.6-2.3-1.5-2.3-2.6 0-1.5 1.1-2.7 3-2.7.9 0 1.7.3 2.2.6l-.4 1.2c-.3-.2-1-.5-1.8-.5-.9 0-1.5.6-1.5 1.2 0 .7.5 1.1 1.7 1.5 1.5.6 2.3 1.4 2.3 2.7 0 1.6-1.2 2.7-3.3 2.7-1 0-1.9-.2-2.5-.6l.4-1.2z" class="st0"/>
  <path d="M47.5 21.6H32.4V6c0-.5.4-1 1-1H21c-2.7 0-4.8 2.2-4.8 5v11.7h16.1v16.6h11.3c2.7 0 4.8-2.2 4.8-5V20.6c.1.6-.4 1-.9 1z" class="st1"/>
  <path d="M16.2 38.2V21.7H5c-2.7 0-5 2.3-5 5.1v11.6s0-.1.1-.1h16s.1 0 .1.1v16.5s0 .1-.1.1h11.5c2.7 0 4.8-2.2 4.8-4.9V38.3h-16c-.2 0-.2 0-.2-.1z" class="st1"/>
  <path d="M32.3 21.7H16.2v16.5c0 .1.1.2.2.2h16l-.1-16.7zM16.1 54.9V38.4s0-.1-.1-.1H0s-.1 0-.1.1v16.3c.1.2.2.3.4.3l15.8-.1c0 .1 0 .1 0 0zM48.3 5h-15c-.5 0-1 .4-1 1v15.6h15.1c.5 0 1-.4 1-1V5.2c.1-.1 0-.2-.1-.2z" class="st0"/>
</svg>
