<?xml version="1.0" encoding="UTF-8" standalone="no"?>
<!-- Created with Inkscape (http://www.inkscape.org/) -->

<svg
   width="1280"
   height="325"
   viewBox="0 0 338.66666 85.989583"
   version="1.1"
   id="svg1"
   xml:space="preserve"
   inkscape:version="1.4 (86a8ad7, 2024-10-11)"
   sodipodi:docname="dbhids.svg"
   xmlns:inkscape="http://www.inkscape.org/namespaces/inkscape"
   xmlns:sodipodi="http://sodipodi.sourceforge.net/DTD/sodipodi-0.dtd"
   xmlns="http://www.w3.org/2000/svg"
   xmlns:svg="http://www.w3.org/2000/svg"><sodipodi:namedview
     id="namedview1"
     pagecolor="#ffffff"
     bordercolor="#111111"
     borderopacity="1"
     inkscape:showpageshadow="0"
     inkscape:pageopacity="0"
     inkscape:pagecheckerboard="1"
     inkscape:deskcolor="#d1d1d1"
     inkscape:document-units="px"
     inkscape:zoom="0.78573232"
     inkscape:cx="500.80668"
     inkscape:cy="201.08629"
     inkscape:window-width="1920"
     inkscape:window-height="1115"
     inkscape:window-x="-9"
     inkscape:window-y="-9"
     inkscape:window-maximized="1"
     inkscape:current-layer="layer1" /><defs
     id="defs1" /><g
     inkscape:label="Layer 1"
     inkscape:groupmode="layer"
     id="layer1"
     transform="matrix(3.559092,0,0,3.559092,-147.0805,-728.80887)"><g
       id="bannertext"
       transform="translate(27.612245,-25.423469)"
       inkscape:label="#bannertext"><text
         xml:space="preserve"
         style="font-style:normal;font-variant:normal;font-weight:normal;font-stretch:normal;font-size:4.56547px;font-family:Neacademia;-inkscape-font-specification:Neacademia;text-align:start;writing-mode:lr-tb;direction:ltr;text-anchor:start;fill:#000000;fill-rule:evenodd;stroke:none;stroke-width:0.205637;stroke-linejoin:round;stroke-miterlimit:0;stroke-opacity:1;paint-order:stroke fill markers"
         x="60.252441"
         y="253.16457"
         id="text-sub1"
         transform="scale(1.0139149,0.98627608)"
         inkscape:label="text-sub1"><tspan
           sodipodi:role="line"
           style="font-style:normal;font-variant:normal;font-weight:normal;font-stretch:normal;font-family:Neacademia;-inkscape-font-specification:Neacademia;text-align:center;text-anchor:middle;stroke:none;stroke-width:0.205637;stroke-opacity:1"
           x="60.252441"
           y="253.16457"
           id="tspan4">DEPARTMENT of BEHAVIORAL HEALTH</tspan></text><text
         xml:space="preserve"
         style="font-style:normal;font-variant:normal;font-weight:normal;font-stretch:normal;font-size:4.50598px;font-family:Neacademia;-inkscape-font-specification:Neacademia;text-align:start;writing-mode:lr-tb;direction:ltr;text-anchor:start;fill:#000000;fill-rule:evenodd;stroke:none;stroke-width:0.202958;stroke-linejoin:round;stroke-miterlimit:0;stroke-opacity:1;paint-order:stroke fill markers"
         x="61.293934"
         y="248.53596"
         id="text-sub2"
         inkscape:label="text-sub2"><tspan
           sodipodi:role="line"
           id="tspan3-1"
           style="font-style:normal;font-variant:normal;font-weight:normal;font-stretch:normal;font-family:Neacademia;-inkscape-font-specification:Neacademia;text-align:center;text-anchor:middle;stroke:none;stroke-width:0.202958;stroke-opacity:1"
           x="61.293934"
           y="248.53596" /><tspan
           sodipodi:role="line"
           style="font-style:normal;font-variant:normal;font-weight:normal;font-stretch:normal;font-family:Neacademia;-inkscape-font-specification:Neacademia;text-align:center;text-anchor:middle;stroke:none;stroke-width:0.202958;stroke-opacity:1"
           x="61.293934"
           y="254.16844"
           id="tspan4-5">and INTELLECTUAL disABILITY SERVICES</tspan></text><text
         xml:space="preserve"
         style="font-style:normal;font-variant:normal;font-weight:normal;font-stretch:normal;font-size:19.05px;font-family:Neacademia;-inkscape-font-specification:Neacademia;text-align:start;writing-mode:lr-tb;direction:ltr;text-anchor:start;fill:#000000;fill-rule:evenodd;stroke:none;stroke-width:0.858044;stroke-linejoin:round;stroke-miterlimit:0;paint-order:stroke fill markers"
         x="56.234695"
         y="218.20407"
         id="text-DBHIDS"
         inkscape:label="text-DBHIDS"
         transform="translate(-27.612245,25.423469)"><tspan
           sodipodi:role="line"
           id="tspan1"
           style="font-style:normal;font-variant:normal;font-weight:normal;font-stretch:normal;font-family:Neacademia;-inkscape-font-specification:Neacademia;stroke:none;stroke-width:0.858044"
           x="56.234695"
           y="218.20407">DBHIDS</tspan></text></g><g
       id="logo"
       inkscape:label="#logo"><rect
         style="fill:#cac9ca;fill-opacity:1;fill-rule:evenodd;stroke-width:0.332804"
         id="rectangle"
         width="13.5"
         height="13.5"
         x="41.325287"
         y="204.77406"
         ry="0"
         inkscape:label="#rectangle" /><path
         style="fill:#114b7e;fill-opacity:1;stroke-width:0.571403"
         d="m 41.32537,216.57222 v -1.70134 H 41.379 c 0.02949,0 0.1,0.0251 0.156673,0.0556 0.05667,0.0306 0.120995,0.0556 0.142935,0.0556 0.02194,0 0.07718,0.0193 0.122751,0.043 0.04557,0.0236 0.132167,0.05 0.192435,0.0585 0.06027,0.009 0.139163,0.0309 0.175323,0.0498 0.08904,0.0465 0.5957,0.10047 0.931408,0.0993 0.340533,-10e-4 0.746312,-0.0409 0.87662,-0.0858 0.05424,-0.0187 0.157791,-0.0466 0.230113,-0.062 0.07232,-0.0153 0.163054,-0.0448 0.201629,-0.0654 0.03858,-0.0205 0.0813,-0.0374 0.09495,-0.0374 0.0275,0 0.320012,-0.12295 0.371847,-0.1563 0.01808,-0.0116 0.07232,-0.0426 0.120534,-0.0688 0.146481,-0.0797 0.427353,-0.27034 0.427353,-0.29006 0,-0.0102 0.01102,-0.0185 0.02452,-0.0185 0.06117,0 0.564399,-0.49796 0.732777,-0.72511 0.174221,-0.23503 0.294658,-0.41807 0.294658,-0.4478 0,-0.0134 0.008,-0.0276 0.01793,-0.0317 0.0099,-0.004 0.05519,-0.0875 0.100716,-0.18533 0.04552,-0.0978 0.09669,-0.20635 0.113692,-0.24111 0.04617,-0.0944 0.13742,-0.37787 0.194422,-0.60399 0.142404,-0.56497 0.137847,-1.34913 -0.01107,-1.90149 -0.08293,-0.30767 -0.215866,-0.66751 -0.287545,-0.77839 -0.01982,-0.0306 -0.04331,-0.0804 -0.05222,-0.11076 -0.009,-0.0303 -0.03305,-0.0804 -0.05357,-0.1112 -0.02047,-0.0308 -0.08953,-0.1361 -0.153479,-0.23395 -0.343501,-0.52564 -0.824314,-0.96793 -1.402975,-1.29059 -0.154576,-0.0862 -0.555957,-0.25506 -0.606256,-0.25506 -0.02306,0 -0.07869,-0.019 -0.123611,-0.0422 -0.04492,-0.0232 -0.153023,-0.0494 -0.240226,-0.0582 -0.0872,-0.009 -0.188135,-0.0321 -0.224296,-0.0519 -0.09974,-0.0546 -1.044354,-0.0654 -1.216309,-0.014 -0.06629,0.0198 -0.1945,0.046 -0.284901,0.0581 -0.0904,0.0121 -0.198883,0.0399 -0.241071,0.0616 -0.04218,0.0218 -0.120627,0.0466 -0.174311,0.0552 -0.05368,0.009 -0.127649,0.0337 -0.164366,0.0559 -0.08618,0.052 -0.263833,0.10026 -0.307071,0.0834 -0.02975,-0.0116 -0.03363,-0.17983 -0.03363,-1.45956 v -1.44646 l 1.232746,0.006 1.232746,0.006 0.0064,0.0667 c 0.01145,0.11905 0.171841,0.62064 0.256014,0.80063 0.01716,0.0367 0.04657,0.10175 0.06534,0.14456 0.01878,0.0428 0.05807,0.11787 0.08732,0.1668 0.02925,0.0489 0.07375,0.12649 0.09891,0.17236 0.02515,0.0459 0.0554,0.0834 0.0672,0.0834 0.01181,0 0.02147,0.0103 0.02147,0.0228 0,0.0231 0.132817,0.22774 0.187346,0.28857 0.159179,0.17761 0.42019,0.43499 0.535864,0.52841 0.07834,0.0633 0.17339,0.14041 0.2112,0.1714 0.03786,0.0309 0.07924,0.0564 0.09206,0.0564 0.0128,0 0.03121,0.0125 0.04082,0.0278 0.01868,0.0296 0.239469,0.17228 0.26675,0.17228 0.0089,0 0.04963,0.0251 0.09047,0.0556 0.04082,0.0306 0.09074,0.0556 0.110878,0.0556 0.02014,0 0.06092,0.0194 0.09061,0.0431 0.0297,0.0237 0.0828,0.0501 0.118012,0.0585 0.03521,0.008 0.0936,0.033 0.129762,0.0546 0.03613,0.0216 0.108805,0.0464 0.161429,0.0551 0.05265,0.009 0.136447,0.0337 0.186279,0.0556 0.04984,0.0218 0.159635,0.0466 0.244011,0.0549 0.08437,0.008 0.197786,0.031 0.252029,0.0504 0.146157,0.0521 0.886996,0.0516 1.040986,-5.4e-4 0.0603,-0.0204 0.19085,-0.0471 0.29018,-0.0591 0.0993,-0.0121 0.20288,-0.0363 0.23011,-0.0538 0.0272,-0.0175 0.0939,-0.0389 0.14813,-0.0475 0.0542,-0.009 0.12821,-0.0335 0.16437,-0.0553 0.0361,-0.0219 0.0971,-0.0465 0.13546,-0.0547 0.0383,-0.008 0.0815,-0.0293 0.0958,-0.0469 0.0144,-0.0175 0.0378,-0.032 0.0521,-0.032 0.0325,0 0.28959,-0.13086 0.36314,-0.18485 0.0301,-0.0221 0.10455,-0.0721 0.16536,-0.11116 0.0608,-0.039 0.12492,-0.0839 0.14245,-0.0998 0.0175,-0.0159 0.0839,-0.0678 0.14745,-0.11547 0.16541,-0.12398 0.33737,-0.29433 0.51708,-0.51228 0.086,-0.10426 0.16617,-0.20543 0.17823,-0.22484 0.0121,-0.0194 0.0636,-0.0992 0.11459,-0.17739 0.051,-0.0782 0.0929,-0.15463 0.0931,-0.16991 2.5e-4,-0.0153 0.01,-0.0278 0.0206,-0.0278 0.0111,0 0.0378,-0.0476 0.0594,-0.10564 0.0216,-0.0581 0.0509,-0.11564 0.0652,-0.12787 0.0142,-0.0123 0.0381,-0.0623 0.053,-0.1112 0.0149,-0.0489 0.0398,-0.10397 0.0554,-0.12232 0.0156,-0.0184 0.0352,-0.0734 0.0437,-0.12232 0.009,-0.0489 0.0329,-0.11898 0.0543,-0.15567 0.0214,-0.0367 0.0453,-0.12177 0.0532,-0.18904 0.008,-0.0673 0.0302,-0.15985 0.0495,-0.20572 l 0.035,-0.0834 0.98835,1.5e-4 0.98834,1.5e-4 -0.0657,0.0442 c -0.0361,0.0243 -0.0805,0.0443 -0.0986,0.0444 -0.0181,1.3e-4 -0.0674,0.0218 -0.10958,0.0481 -0.0422,0.0264 -0.14081,0.0825 -0.21916,0.12473 -0.0784,0.0422 -0.15033,0.0907 -0.15997,0.1077 -0.01,0.017 -0.0271,0.0308 -0.0389,0.0308 -0.0214,0 -0.22146,0.13373 -0.28329,0.18935 -0.0509,0.0457 -0.52869,0.5278 -0.57365,0.5787 -0.022,0.0249 -0.04,0.0569 -0.04,0.0712 0,0.0143 -0.0134,0.0339 -0.0297,0.0437 -0.0515,0.0308 -0.29357,0.42186 -0.37588,0.60714 -0.019,0.0428 -0.0539,0.11423 -0.0775,0.1587 -0.0236,0.0445 -0.0429,0.0965 -0.0429,0.11558 0,0.0191 -0.0247,0.0818 -0.0548,0.13928 -0.0301,0.0575 -0.0548,0.13351 -0.0548,0.16887 0,0.0353 -0.0192,0.10245 -0.0426,0.14907 -0.0253,0.0504 -0.0484,0.1561 -0.0568,0.26043 -0.008,0.0966 -0.0305,0.22069 -0.0505,0.27573 -0.0529,0.1455 -0.0528,0.90002 8e-5,1.04526 0.02,0.055 0.0429,0.17514 0.0509,0.26687 0.008,0.0917 0.0329,0.20683 0.0554,0.25576 0.0225,0.0489 0.047,0.13568 0.0543,0.19278 0.007,0.0571 0.027,0.11534 0.0437,0.12941 0.0167,0.0141 0.0363,0.0575 0.0436,0.0963 0.007,0.0389 0.0367,0.12078 0.0654,0.18194 0.0287,0.0612 0.0627,0.13622 0.0757,0.16679 0.0129,0.0306 0.0328,0.0706 0.0442,0.089 0.0113,0.0184 0.0582,0.0984 0.10405,0.17793 0.0459,0.0795 0.0958,0.15256 0.111,0.16234 0.0152,0.01 0.0276,0.0284 0.0276,0.0412 0,0.03 0.25004,0.35421 0.37551,0.48693 0.085,0.0899 0.39409,0.35362 0.56059,0.47826 0.24611,0.18423 0.73969,0.43445 1.00343,0.50868 0.0603,0.017 0.14902,0.0463 0.19724,0.0653 0.0482,0.019 0.13238,0.0349 0.18704,0.0354 0.0547,5.4e-4 0.1555,0.021 0.22409,0.0455 0.0705,0.0252 0.18088,0.0445 0.254,0.0445 0.0711,0 0.16012,0.006 0.19778,0.0139 l 0.0685,0.0139 v 2.92173 2.92173 h -0.39447 c -0.33964,0 -0.39448,-0.004 -0.39448,-0.0341 0,-0.0187 0.0144,-0.0397 0.032,-0.0466 0.0177,-0.007 0.0387,-0.0341 0.0469,-0.0605 0.008,-0.0264 0.0381,-0.0763 0.0666,-0.11085 0.0284,-0.0346 0.0518,-0.0808 0.0518,-0.10264 0,-0.0219 0.0184,-0.0636 0.0408,-0.0928 0.0225,-0.0292 0.0483,-0.0774 0.0575,-0.10715 0.009,-0.0297 0.0402,-0.0988 0.0688,-0.15343 0.0286,-0.0546 0.052,-0.12062 0.052,-0.14666 0,-0.026 0.015,-0.0691 0.0334,-0.0958 0.0184,-0.0266 0.0436,-0.10643 0.056,-0.1773 0.0124,-0.0709 0.0373,-0.16155 0.0554,-0.20149 0.0952,-0.21046 0.0952,-1.57071 -10e-5,-1.75765 -0.017,-0.0334 -0.0379,-0.11059 -0.0463,-0.17158 -0.008,-0.061 -0.0338,-0.15094 -0.0562,-0.19987 -0.0224,-0.0489 -0.051,-0.13032 -0.0635,-0.18088 -0.0125,-0.0506 -0.0375,-0.10433 -0.0555,-0.11949 -0.018,-0.0151 -0.0327,-0.0468 -0.0327,-0.0703 0,-0.0473 -0.13753,-0.31699 -0.18747,-0.36767 -0.0174,-0.0177 -0.0316,-0.0449 -0.0316,-0.0605 0,-0.0156 -0.0198,-0.0515 -0.0438,-0.0797 -0.0241,-0.0283 -0.0439,-0.0584 -0.0439,-0.0671 0,-0.014 -0.0316,-0.059 -0.16909,-0.24026 -0.11992,-0.15813 -0.35198,-0.40426 -0.52305,-0.55475 -0.0593,-0.0522 -0.12784,-0.1147 -0.15237,-0.139 -0.0246,-0.0243 -0.0541,-0.0446 -0.0657,-0.045 -0.0116,-4.9e-4 -0.0553,-0.0305 -0.097,-0.0667 -0.0417,-0.0362 -0.0886,-0.0658 -0.10409,-0.0658 -0.0156,0 -0.0282,-0.01 -0.0282,-0.022 0,-0.0213 -0.0615,-0.0586 -0.2566,-0.1557 -0.0507,-0.0253 -0.0977,-0.0549 -0.10441,-0.0659 -0.007,-0.011 -0.049,-0.0314 -0.094,-0.0454 -0.045,-0.0139 -0.1164,-0.0436 -0.15859,-0.0659 -0.0422,-0.0224 -0.11107,-0.048 -0.15308,-0.057 -0.042,-0.009 -0.097,-0.0302 -0.12225,-0.047 -0.0252,-0.0168 -0.10406,-0.0414 -0.17521,-0.0547 -0.0711,-0.0134 -0.15477,-0.0376 -0.18584,-0.054 -0.0659,-0.0345 -0.54523,-0.0774 -0.86604,-0.0774 -0.32755,0 -0.77504,0.0415 -0.85329,0.0792 -0.0375,0.0181 -0.12571,0.0423 -0.19591,0.0539 -0.0702,0.0116 -0.14873,0.0352 -0.17449,0.0522 -0.0258,0.0172 -0.0812,0.0387 -0.12323,0.0479 -0.042,0.009 -0.12067,0.0406 -0.17483,0.0696 -0.0542,0.029 -0.10952,0.0528 -0.12305,0.0528 -0.0135,0 -0.0489,0.0194 -0.0786,0.0431 -0.0297,0.0237 -0.0796,0.0496 -0.11092,0.0576 -0.0313,0.008 -0.074,0.0336 -0.0948,0.057 -0.0208,0.0233 -0.0487,0.0426 -0.0619,0.0429 -0.0398,5.4e-4 -0.2766,0.16378 -0.37879,0.26091 -0.029,0.0275 -0.0599,0.05 -0.0687,0.05 -0.0242,0 -0.532951,0.50983 -0.607449,0.60867 -0.03569,0.0473 -0.08704,0.11133 -0.114162,0.14224 -0.02711,0.0309 -0.0493,0.064 -0.0493,0.0736 0,0.01 -0.01366,0.0312 -0.03035,0.0482 -0.01669,0.017 -0.05163,0.0702 -0.07758,0.11835 -0.02597,0.0482 -0.08611,0.15261 -0.133601,0.23212 -0.04747,0.0795 -0.08655,0.15682 -0.08679,0.17182 -2.32e-4,0.015 -0.02014,0.06 -0.04417,0.10008 -0.02403,0.0401 -0.04379,0.088 -0.04385,0.1065 -4.9e-5,0.0185 -0.01852,0.0686 -0.04099,0.1112 -0.02252,0.0427 -0.04768,0.11254 -0.05604,0.15535 -0.0083,0.0429 -0.03375,0.13288 -0.05655,0.20015 -0.02279,0.0673 -0.05243,0.21169 -0.06585,0.32093 -0.01345,0.10922 -0.0324,0.21431 -0.04201,0.23351 -0.02803,0.0555 -0.04352,0.50914 -0.02322,0.67986 0.03931,0.3303 0.108702,0.73779 0.140152,0.82287 0.01809,0.0489 0.03332,0.10937 0.03386,0.1343 5.35e-4,0.0249 0.0196,0.0824 0.04244,0.12782 0.02279,0.0454 0.04817,0.10967 0.05638,0.1429 0.01636,0.066 0.111041,0.26509 0.209343,0.44009 0.03434,0.0611 0.07487,0.13622 0.09003,0.1668 0.01517,0.0306 0.04714,0.0781 0.07103,0.10564 l 0.04347,0.05 h -3.115816 -3.115819 z m 7.144451,1.56561 c -0.0663,-0.0738 -0.12711,-0.1521 -0.13514,-0.17404 -0.008,-0.0219 -0.0302,-0.046 -0.0493,-0.0534 -0.0191,-0.007 -0.0347,-0.0276 -0.0347,-0.0448 0,-0.0172 -0.0161,-0.0449 -0.0359,-0.0615 -0.0198,-0.0167 -0.0539,-0.0729 -0.0759,-0.12505 -0.022,-0.0522 -0.0487,-0.0948 -0.0593,-0.0948 -0.0105,0 -0.0307,-0.0388 -0.0447,-0.0863 -0.014,-0.0475 -0.0402,-0.0987 -0.0583,-0.11392 -0.01804,-0.0152 -0.03278,-0.0493 -0.03278,-0.0758 0,-0.0265 -0.02025,-0.0878 -0.04498,-0.13627 -0.02473,-0.0484 -0.05525,-0.14294 -0.06779,-0.20997 -0.01253,-0.067 -0.0365,-0.14882 -0.0533,-0.18176 -0.01728,-0.0339 -0.04163,-0.2022 -0.05621,-0.388 -0.03154,-0.40331 5.4e-4,-0.91107 0.06943,-1.09475 0.02381,-0.0636 0.04358,-0.13799 0.04396,-0.16538 3.78e-4,-0.0274 0.02495,-0.0999 0.05457,-0.161 0.02965,-0.0612 0.05406,-0.12121 0.05423,-0.13344 1.89e-4,-0.0122 0.03483,-0.0873 0.07694,-0.1668 0.0422,-0.0795 0.0938,-0.17989 0.11492,-0.22309 0.0211,-0.0432 0.0506,-0.0932 0.0656,-0.1112 0.015,-0.018 0.0901,-0.11273 0.16679,-0.21058 0.1929,-0.24602 0.4659,-0.50098 0.73731,-0.68854 0.10891,-0.0753 0.55363,-0.30113 0.59293,-0.30113 0.0181,0 0.054,-0.015 0.0799,-0.0334 0.0259,-0.0184 0.12287,-0.0481 0.21562,-0.0661 0.0927,-0.018 0.1838,-0.0455 0.20234,-0.0611 0.0254,-0.0214 0.17204,-0.0284 0.59465,-0.0284 0.48751,0 0.56988,0.005 0.62924,0.0379 0.0375,0.0209 0.12632,0.0478 0.19723,0.0598 0.0709,0.012 0.16801,0.0424 0.21576,0.0677 0.0477,0.0252 0.10313,0.0458 0.12306,0.0458 0.0199,0 0.0598,0.0186 0.0885,0.0414 0.0287,0.0228 0.0769,0.0491 0.10705,0.0585 0.0301,0.009 0.0795,0.0333 0.10967,0.0531 0.11033,0.0724 0.1436,0.0936 0.20527,0.13116 0.19234,0.11704 0.5357,0.43509 0.71598,0.6632 0.12089,0.15297 0.26209,0.3608 0.26209,0.38577 0,0.009 0.0192,0.0341 0.0426,0.0557 0.0234,0.0215 0.0488,0.0676 0.0563,0.10247 0.008,0.0348 0.0324,0.0875 0.0553,0.11695 0.0228,0.0295 0.0509,0.0957 0.0623,0.14719 0.0114,0.0515 0.0355,0.11042 0.0536,0.13096 0.018,0.0205 0.0399,0.0974 0.0486,0.17075 0.009,0.0734 0.0343,0.17058 0.0568,0.21596 0.0367,0.0739 0.041,0.13921 0.041,0.62543 0,0.4846 -0.004,0.5534 -0.0417,0.64029 -0.0229,0.0535 -0.0487,0.15238 -0.0572,0.21966 -0.009,0.0673 -0.0301,0.13911 -0.048,0.15964 -0.0179,0.0206 -0.042,0.0804 -0.0537,0.13312 -0.0117,0.0526 -0.0342,0.11093 -0.05,0.12946 -0.0159,0.0185 -0.0407,0.0711 -0.0551,0.11677 -0.0145,0.0457 -0.0364,0.0895 -0.0488,0.0972 -0.0124,0.008 -0.0366,0.0455 -0.0537,0.0837 -0.0171,0.0383 -0.0654,0.1146 -0.10725,0.16965 -0.0418,0.055 -0.0851,0.12009 -0.0961,0.14455 -0.011,0.0245 -0.0382,0.0607 -0.0603,0.0805 -0.0222,0.0198 -0.0782,0.0824 -0.12444,0.13899 l -0.0841,0.10296 -2.19513,-5.4e-4 -2.19513,-5.4e-4 z m -5.846548,-3.75554 c -0.08771,-0.0102 -0.171539,-0.0283 -0.186282,-0.0403 -0.01474,-0.012 -0.08105,-0.0334 -0.147339,-0.0476 -0.249026,-0.053 -0.784503,-0.30517 -0.90257,-0.42498 l -0.06171,-0.0626 v -2.50579 c 0,-2.48117 4.37e-4,-2.50642 0.04442,-2.5691 0.02443,-0.0348 0.100859,-0.0955 0.169845,-0.13476 0.06899,-0.0393 0.140221,-0.0837 0.158302,-0.0986 0.01808,-0.0149 0.07232,-0.0396 0.120535,-0.055 0.04822,-0.0153 0.102454,-0.0404 0.120535,-0.0559 0.01808,-0.0154 0.08514,-0.0391 0.149025,-0.0528 0.06388,-0.0136 0.143893,-0.0393 0.177801,-0.0571 0.03391,-0.0178 0.149293,-0.0431 0.256412,-0.0561 0.107119,-0.0131 0.22136,-0.0345 0.253869,-0.0477 0.147826,-0.0598 0.940797,0.0254 1.26678,0.13616 0.482439,0.16393 0.942598,0.45905 1.292282,0.82877 0.181451,0.19185 0.32946,0.37676 0.32946,0.41159 0,0.012 0.01615,0.0355 0.03586,0.0521 0.01976,0.0166 0.05411,0.0704 0.07643,0.11948 0.0223,0.0491 0.05033,0.10429 0.06222,0.12263 0.01193,0.0184 0.03645,0.0684 0.05463,0.1112 0.01814,0.0428 0.04163,0.0928 0.05222,0.1112 0.02975,0.0516 0.128261,0.39267 0.166942,0.57823 0.107082,0.51366 0.09683,0.86006 -0.04347,1.46782 -0.04136,0.17912 -0.189152,0.56401 -0.260492,0.67831 -0.124741,0.19985 -0.144381,0.23442 -0.144381,0.25417 0,0.0118 -0.01253,0.0296 -0.02792,0.0394 -0.01539,0.01 -0.0439,0.0428 -0.06341,0.0734 -0.144159,0.22582 -0.634902,0.673 -0.883903,0.80544 -0.293084,0.15588 -0.420336,0.2176 -0.448854,0.21766 -0.01831,5e-5 -0.06369,0.0189 -0.10086,0.0419 -0.03716,0.0229 -0.11113,0.0487 -0.164366,0.0571 -0.05323,0.008 -0.155965,0.0358 -0.228286,0.0609 -0.110685,0.0384 -0.197387,0.0467 -0.547887,0.0524 -0.229017,0.004 -0.488159,-0.002 -0.575871,-0.0116 z m 11.999228,-2.81593 c -0.007,-0.007 -0.11285,-0.0272 -0.23505,-0.0446 -0.12219,-0.0173 -0.24871,-0.045 -0.28115,-0.0615 -0.0325,-0.0165 -0.10831,-0.0421 -0.16857,-0.0569 -0.0603,-0.0148 -0.1293,-0.0398 -0.15341,-0.0555 -0.0241,-0.0157 -0.0833,-0.0413 -0.13149,-0.057 -0.0482,-0.0157 -0.10248,-0.0414 -0.12058,-0.0574 -0.0181,-0.0159 -0.0576,-0.0399 -0.0877,-0.0532 -0.0513,-0.0227 -0.0872,-0.0455 -0.3297,-0.20962 -0.052,-0.0352 -0.19879,-0.17046 -0.32619,-0.30062 -0.2586,-0.26418 -0.29279,-0.30405 -0.38336,-0.44716 -0.0348,-0.055 -0.08,-0.1251 -0.10032,-0.15569 -0.0204,-0.0306 -0.0571,-0.10184 -0.0817,-0.15836 -0.0246,-0.0565 -0.0558,-0.10965 -0.0692,-0.11807 -0.0134,-0.008 -0.0244,-0.0327 -0.0244,-0.0538 0,-0.0211 -0.0201,-0.0781 -0.0448,-0.12657 -0.0246,-0.0485 -0.0554,-0.13814 -0.0684,-0.1993 -0.013,-0.0612 -0.0367,-0.13723 -0.0527,-0.16904 -0.0296,-0.059 -0.10391,-0.62623 -0.10304,-0.78726 5.4e-4,-0.14774 0.053,-0.59304 0.0835,-0.71167 0.0557,-0.21702 0.11206,-0.40092 0.13628,-0.44479 0.0135,-0.0245 0.0612,-0.12454 0.10602,-0.2224 0.0448,-0.0978 0.0979,-0.20293 0.11805,-0.23352 0.20489,-0.31148 0.19432,-0.29849 0.4852,-0.59595 0.21381,-0.21864 0.41669,-0.38733 0.56715,-0.47155 0.15724,-0.088 0.43523,-0.22239 0.46007,-0.22239 0.0153,0 0.0586,-0.0192 0.0962,-0.0425 0.0376,-0.0233 0.11764,-0.0496 0.17791,-0.0584 0.0603,-0.009 0.1441,-0.0304 0.18628,-0.0482 0.0853,-0.036 0.46292,-0.0795 0.51476,-0.0593 0.0293,0.0114 0.0331,0.36829 0.0331,3.12408 v 3.11116 h -0.095 c -0.0522,0 -0.10076,-0.006 -0.10783,-0.0131 z m -7.205567,-4.39851 c -0.0065,-0.007 -0.129822,-0.024 -0.273949,-0.0383 -0.171629,-0.0171 -0.284727,-0.0396 -0.327786,-0.0653 -0.03613,-0.0216 -0.10893,-0.0464 -0.161709,-0.0551 -0.05281,-0.009 -0.126744,-0.0339 -0.164366,-0.0558 -0.03759,-0.0219 -0.100457,-0.0467 -0.139629,-0.0549 -0.0392,-0.008 -0.07123,-0.0247 -0.07123,-0.0363 0,-0.0117 -0.0419,-0.0413 -0.09314,-0.0659 -0.331885,-0.15906 -0.717215,-0.48468 -0.97168,-0.82113 -0.09995,-0.13215 -0.142328,-0.195 -0.262436,-0.38919 -0.09754,-0.15771 -0.218474,-0.45065 -0.273137,-0.66163 l -0.0389,-0.15011 h 2.991206 2.991203 l -0.0157,0.094 c -0.009,0.0517 -0.0284,0.11426 -0.044,0.139 -0.0156,0.0248 -0.0399,0.09 -0.0541,0.14503 -0.0142,0.055 -0.0395,0.11575 -0.0563,0.13488 -0.0168,0.0192 -0.0422,0.0692 -0.0563,0.1112 -0.0141,0.042 -0.0438,0.10026 -0.066,0.12944 -0.0222,0.0292 -0.0403,0.0624 -0.0403,0.0738 0,0.0114 -0.0247,0.0535 -0.0548,0.0936 -0.0301,0.0401 -0.0548,0.0811 -0.0548,0.0912 0,0.0101 -0.0146,0.0341 -0.0325,0.0535 -0.0179,0.0194 -0.0807,0.0953 -0.13961,0.16866 -0.0985,0.12276 -0.37927,0.40542 -0.50804,0.51152 -0.0298,0.0245 -0.1033,0.0762 -0.16357,0.11497 -0.0603,0.0388 -0.13581,0.0913 -0.16785,0.11676 -0.032,0.0254 -0.07,0.0463 -0.0843,0.0463 -0.0143,0 -0.055,0.0209 -0.0903,0.0465 -0.0353,0.0255 -0.10097,0.0566 -0.14583,0.0689 -0.0449,0.0124 -0.0963,0.0354 -0.11443,0.0512 -0.0181,0.0158 -0.0772,0.0358 -0.13149,0.0444 -0.0542,0.009 -0.12327,0.0319 -0.1534,0.0517 -0.0817,0.0537 -0.991258,0.14837 -1.030975,0.10724 z"
         id="circles"
         inkscape:label="#circles" /></g></g></svg>
