<svg xmlns="http://www.w3.org/2000/svg" xml:space="preserve" viewBox="0 0 338.66666 85.989583">
  <g fill-rule="evenodd" stroke-linejoin="round" stroke-miterlimit="0" font-family="Neacademia" font-weight="400" paint-order="stroke fill markers">
    <text xml:space="preserve" x="60.252441" y="253.16457" stroke-width=".205637" font-size="4.56547" style="-inkscape-font-specification:Neacademia;text-align:start" transform="matrix(3.608616 0 0 3.510247 -48.80597972 -819.29333513)"><tspan x="60.252441" y="253.16457" style="-inkscape-font-specification:Neacademia;text-align:center" text-anchor="middle">DEPARTMENT of BEHAVIORAL HEALTH</tspan></text>
    <text xml:space="preserve" x="61.293934" y="248.53596" stroke-width=".202958" font-size="4.50598" style="-inkscape-font-specification:Neacademia;text-align:start" transform="translate(-48.80597972 -819.29333513) scale(3.559092)"><tspan x="61.293934" y="254.16844" style="-inkscape-font-specification:Neacademia;text-align:center" text-anchor="middle">and INTELLECTUAL disABILITY SERVICES</tspan></text>
    <text xml:space="preserve" x="56.234695" y="218.20407" stroke-width=".858044" font-size="19.05" style="-inkscape-font-specification:Neacademia;text-align:start" transform="translate(-147.0805 -728.80887) scale(3.559092)"><tspan x="56.234695" y="218.20407" style="-inkscape-font-specification:Neacademia">DBHIDS</tspan></text>
  </g>
  <g transform="translate(-147.0805 -728.80887) scale(3.559092)">
    <rect width="13.5" height="13.5" x="41.325287" y="204.77406" fill="#cac9ca" fill-rule="evenodd" ry="0"/>
    <path fill="#114b7e" d="M41.32537 216.57222v-1.70134h.05363c.02949 0 .1.0251.156673.0556.05667.0306.120995.0556.142935.0556s.07718.0193.122751.043c.04557.0236.132167.05.192435.0585.06027.009.139163.0309.175323.0498.08904.0465.5957.10047.931408.0993.340533-.001.746312-.0409.87662-.0858.05424-.0187.157791-.0466.230113-.062.07232-.0153.163054-.0448.201629-.0654.03858-.0205.0813-.0374.09495-.0374.0275 0 .320012-.12295.371847-.1563.01808-.0116.07232-.0426.120534-.0688.146481-.0797.427353-.27034.427353-.29006 0-.0102.01102-.0185.02452-.0185.06117 0 .564399-.49796.732777-.72511.174221-.23503.294658-.41807.294658-.4478 0-.0134.008-.0276.01793-.0317.0099-.004.05519-.0875.100716-.18533.04552-.0978.09669-.20635.113692-.24111.04617-.0944.13742-.37787.194422-.60399.142404-.56497.137847-1.34913-.01107-1.90149-.08293-.30767-.215866-.66751-.287545-.77839-.01982-.0306-.04331-.0804-.05222-.11076-.009-.0303-.03305-.0804-.05357-.1112-.02047-.0308-.08953-.1361-.153479-.23395-.343501-.52564-.824314-.96793-1.402975-1.29059-.154576-.0862-.555957-.25506-.606256-.25506-.02306 0-.07869-.019-.123611-.0422-.04492-.0232-.153023-.0494-.240226-.0582-.0872-.009-.188135-.0321-.224296-.0519-.09974-.0546-1.044354-.0654-1.216309-.014-.06629.0198-.1945.046-.284901.0581-.0904.0121-.198883.0399-.241071.0616-.04218.0218-.120627.0466-.174311.0552-.05368.009-.127649.0337-.164366.0559-.08618.052-.263833.10026-.307071.0834-.02975-.0116-.03363-.17983-.03363-1.45956v-1.44646l1.232746.006 1.232746.006.0064.0667c.01145.11905.171841.62064.256014.80063.01716.0367.04657.10175.06534.14456.01878.0428.05807.11787.08732.1668.02925.0489.07375.12649.09891.17236.02515.0459.0554.0834.0672.0834.01181 0 .02147.0103.02147.0228 0 .0231.132817.22774.187346.28857.159179.17761.42019.43499.535864.52841.07834.0633.17339.14041.2112.1714.03786.0309.07924.0564.09206.0564.0128 0 .03121.0125.04082.0278.01868.0296.239469.17228.26675.17228.0089 0 .04963.0251.09047.0556.04082.0306.09074.0556.110878.0556.02014 0 .06092.0194.09061.0431.0297.0237.0828.0501.118012.0585.03521.008.0936.033.129762.0546.03613.0216.108805.0464.161429.0551.05265.009.136447.0337.186279.0556.04984.0218.159635.0466.244011.0549.08437.008.197786.031.252029.0504.146157.0521.886996.0516 1.040986-.00054.0603-.0204.19085-.0471.29018-.0591.0993-.0121.20288-.0363.23011-.0538.0272-.0175.0939-.0389.14813-.0475.0542-.009.12821-.0335.16437-.0553.0361-.0219.0971-.0465.13546-.0547.0383-.008.0815-.0293.0958-.0469.0144-.0175.0378-.032.0521-.032.0325 0 .28959-.13086.36314-.18485.0301-.0221.10455-.0721.16536-.11116.0608-.039.12492-.0839.14245-.0998.0175-.0159.0839-.0678.14745-.11547.16541-.12398.33737-.29433.51708-.51228.086-.10426.16617-.20543.17823-.22484.0121-.0194.0636-.0992.11459-.17739.051-.0782.0929-.15463.0931-.16991.00025-.0153.01-.0278.0206-.0278.0111 0 .0378-.0476.0594-.10564.0216-.0581.0509-.11564.0652-.12787.0142-.0123.0381-.0623.053-.1112.0149-.0489.0398-.10397.0554-.12232.0156-.0184.0352-.0734.0437-.12232.009-.0489.0329-.11898.0543-.15567.0214-.0367.0453-.12177.0532-.18904.008-.0673.0302-.15985.0495-.20572l.035-.0834.98835.00015.98834.00015-.0657.0442c-.0361.0243-.0805.0443-.0986.0444-.0181.00013-.0674.0218-.10958.0481-.0422.0264-.14081.0825-.21916.12473-.0784.0422-.15033.0907-.15997.1077-.01.017-.0271.0308-.0389.0308-.0214 0-.22146.13373-.28329.18935-.0509.0457-.52869.5278-.57365.5787-.022.0249-.04.0569-.04.0712s-.0134.0339-.0297.0437c-.0515.0308-.29357.42186-.37588.60714-.019.0428-.0539.11423-.0775.1587-.0236.0445-.0429.0965-.0429.11558 0 .0191-.0247.0818-.0548.13928-.0301.0575-.0548.13351-.0548.16887 0 .0353-.0192.10245-.0426.14907-.0253.0504-.0484.1561-.0568.26043-.008.0966-.0305.22069-.0505.27573-.0529.1455-.0528.90002.00008 1.04526.02.055.0429.17514.0509.26687.008.0917.0329.20683.0554.25576.0225.0489.047.13568.0543.19278.007.0571.027.11534.0437.12941.0167.0141.0363.0575.0436.0963.007.0389.0367.12078.0654.18194.0287.0612.0627.13622.0757.16679.0129.0306.0328.0706.0442.089.0113.0184.0582.0984.10405.17793.0459.0795.0958.15256.111.16234.0152.01.0276.0284.0276.0412 0 .03.25004.35421.37551.48693.085.0899.39409.35362.56059.47826.24611.18423.73969.43445 1.00343.50868.0603.017.14902.0463.19724.0653.0482.019.13238.0349.18704.0354.0547.00054.1555.021.22409.0455.0705.0252.18088.0445.254.0445.0711 0 .16012.006.19778.0139l.0685.0139v5.84346h-.39447c-.33964 0-.39448-.004-.39448-.0341 0-.0187.0144-.0397.032-.0466.0177-.007.0387-.0341.0469-.0605.008-.0264.0381-.0763.0666-.11085.0284-.0346.0518-.0808.0518-.10264 0-.0219.0184-.0636.0408-.0928.0225-.0292.0483-.0774.0575-.10715.009-.0297.0402-.0988.0688-.15343.0286-.0546.052-.12062.052-.14666 0-.026.015-.0691.0334-.0958.0184-.0266.0436-.10643.056-.1773.0124-.0709.0373-.16155.0554-.20149.0952-.21046.0952-1.57071-.0001-1.75765-.017-.0334-.0379-.11059-.0463-.17158-.008-.061-.0338-.15094-.0562-.19987-.0224-.0489-.051-.13032-.0635-.18088-.0125-.0506-.0375-.10433-.0555-.11949-.018-.0151-.0327-.0468-.0327-.0703 0-.0473-.13753-.31699-.18747-.36767-.0174-.0177-.0316-.0449-.0316-.0605 0-.0156-.0198-.0515-.0438-.0797-.0241-.0283-.0439-.0584-.0439-.0671 0-.014-.0316-.059-.16909-.24026-.11992-.15813-.35198-.40426-.52305-.55475-.0593-.0522-.12784-.1147-.15237-.139-.0246-.0243-.0541-.0446-.0657-.045-.0116-.00049-.0553-.0305-.097-.0667-.0417-.0362-.0886-.0658-.10409-.0658-.0156 0-.0282-.01-.0282-.022 0-.0213-.0615-.0586-.2566-.1557-.0507-.0253-.0977-.0549-.10441-.0659-.007-.011-.049-.0314-.094-.0454-.045-.0139-.1164-.0436-.15859-.0659-.0422-.0224-.11107-.048-.15308-.057-.042-.009-.097-.0302-.12225-.047-.0252-.0168-.10406-.0414-.17521-.0547-.0711-.0134-.15477-.0376-.18584-.054-.0659-.0345-.54523-.0774-.86604-.0774-.32755 0-.77504.0415-.85329.0792-.0375.0181-.12571.0423-.19591.0539-.0702.0116-.14873.0352-.17449.0522-.0258.0172-.0812.0387-.12323.0479-.042.009-.12067.0406-.17483.0696-.0542.029-.10952.0528-.12305.0528-.0135 0-.0489.0194-.0786.0431-.0297.0237-.0796.0496-.11092.0576-.0313.008-.074.0336-.0948.057-.0208.0233-.0487.0426-.0619.0429-.0398.00054-.2766.16378-.37879.26091-.029.0275-.0599.05-.0687.05-.0242 0-.532951.50983-.607449.60867-.03569.0473-.08704.11133-.114162.14224-.02711.0309-.0493.064-.0493.0736 0 .01-.01366.0312-.03035.0482-.01669.017-.05163.0702-.07758.11835-.02597.0482-.08611.15261-.133601.23212-.04747.0795-.08655.15682-.08679.17182-.000232.015-.02014.06-.04417.10008-.02403.0401-.04379.088-.04385.1065-.000049.0185-.01852.0686-.04099.1112-.02252.0427-.04768.11254-.05604.15535-.0083.0429-.03375.13288-.05655.20015-.02279.0673-.05243.21169-.06585.32093-.01345.10922-.0324.21431-.04201.23351-.02803.0555-.04352.50914-.02322.67986.03931.3303.108702.73779.140152.82287.01809.0489.03332.10937.03386.1343.000535.0249.0196.0824.04244.12782.02279.0454.04817.10967.05638.1429.01636.066.111041.26509.209343.44009.03434.0611.07487.13622.09003.1668.01517.0306.04714.0781.07103.10564l.04347.05H41.325659zm7.144451 1.56561c-.0663-.0738-.12711-.1521-.13514-.17404-.008-.0219-.0302-.046-.0493-.0534-.0191-.007-.0347-.0276-.0347-.0448s-.0161-.0449-.0359-.0615c-.0198-.0167-.0539-.0729-.0759-.12505-.022-.0522-.0487-.0948-.0593-.0948-.0105 0-.0307-.0388-.0447-.0863-.014-.0475-.0402-.0987-.0583-.11392-.01804-.0152-.03278-.0493-.03278-.0758 0-.0265-.02025-.0878-.04498-.13627-.02473-.0484-.05525-.14294-.06779-.20997-.01253-.067-.0365-.14882-.0533-.18176-.01728-.0339-.04163-.2022-.05621-.388-.03154-.40331.00054-.91107.06943-1.09475.02381-.0636.04358-.13799.04396-.16538.000378-.0274.02495-.0999.05457-.161.02965-.0612.05406-.12121.05423-.13344.000189-.0122.03483-.0873.07694-.1668.0422-.0795.0938-.17989.11492-.22309.0211-.0432.0506-.0932.0656-.1112.015-.018.0901-.11273.16679-.21058.1929-.24602.4659-.50098.73731-.68854.10891-.0753.55363-.30113.59293-.30113.0181 0 .054-.015.0799-.0334s.12287-.0481.21562-.0661c.0927-.018.1838-.0455.20234-.0611.0254-.0214.17204-.0284.59465-.0284.48751 0 .56988.005.62924.0379.0375.0209.12632.0478.19723.0598.0709.012.16801.0424.21576.0677.0477.0252.10313.0458.12306.0458.0199 0 .0598.0186.0885.0414.0287.0228.0769.0491.10705.0585.0301.009.0795.0333.10967.0531.11033.0724.1436.0936.20527.13116.19234.11704.5357.43509.71598.6632.12089.15297.26209.3608.26209.38577 0 .009.0192.0341.0426.0557.0234.0215.0488.0676.0563.10247.008.0348.0324.0875.0553.11695.0228.0295.0509.0957.0623.14719.0114.0515.0355.11042.0536.13096.018.0205.0399.0974.0486.17075.009.0734.0343.17058.0568.21596.0367.0739.041.13921.041.62543 0 .4846-.004.5534-.0417.64029-.0229.0535-.0487.15238-.0572.21966-.009.0673-.0301.13911-.048.15964-.0179.0206-.042.0804-.0537.13312-.0117.0526-.0342.11093-.05.12946-.0159.0185-.0407.0711-.0551.11677-.0145.0457-.0364.0895-.0488.0972-.0124.008-.0366.0455-.0537.0837-.0171.0383-.0654.1146-.10725.16965-.0418.055-.0851.12009-.0961.14455-.011.0245-.0382.0607-.0603.0805-.0222.0198-.0782.0824-.12444.13899l-.0841.10296-2.19513-.00054-2.19513-.00054zm-5.846548-3.75554c-.08771-.0102-.171539-.0283-.186282-.0403-.01474-.012-.08105-.0334-.147339-.0476-.249026-.053-.784503-.30517-.90257-.42498l-.06171-.0626v-2.50579c0-2.48117.000437-2.50642.04442-2.5691.02443-.0348.100859-.0955.169845-.13476.06899-.0393.140221-.0837.158302-.0986.01808-.0149.07232-.0396.120535-.055.04822-.0153.102454-.0404.120535-.0559.01808-.0154.08514-.0391.149025-.0528.06388-.0136.143893-.0393.177801-.0571.03391-.0178.149293-.0431.256412-.0561.107119-.0131.22136-.0345.253869-.0477.147826-.0598.940797.0254 1.26678.13616.482439.16393.942598.45905 1.292282.82877.181451.19185.32946.37676.32946.41159 0 .012.01615.0355.03586.0521.01976.0166.05411.0704.07643.11948.0223.0491.05033.10429.06222.12263.01193.0184.03645.0684.05463.1112.01814.0428.04163.0928.05222.1112.02975.0516.128261.39267.166942.57823.107082.51366.09683.86006-.04347 1.46782-.04136.17912-.189152.56401-.260492.67831-.124741.19985-.144381.23442-.144381.25417 0 .0118-.01253.0296-.02792.0394-.01539.01-.0439.0428-.06341.0734-.144159.22582-.634902.673-.883903.80544-.293084.15588-.420336.2176-.448854.21766-.01831.00005-.06369.0189-.10086.0419-.03716.0229-.11113.0487-.164366.0571-.05323.008-.155965.0358-.228286.0609-.110685.0384-.197387.0467-.547887.0524-.229017.004-.488159-.002-.575871-.0116zm11.999228-2.81593c-.007-.007-.11285-.0272-.23505-.0446-.12219-.0173-.24871-.045-.28115-.0615-.0325-.0165-.10831-.0421-.16857-.0569-.0603-.0148-.1293-.0398-.15341-.0555-.0241-.0157-.0833-.0413-.13149-.057-.0482-.0157-.10248-.0414-.12058-.0574-.0181-.0159-.0576-.0399-.0877-.0532-.0513-.0227-.0872-.0455-.3297-.20962-.052-.0352-.19879-.17046-.32619-.30062-.2586-.26418-.29279-.30405-.38336-.44716-.0348-.055-.08-.1251-.10032-.15569-.0204-.0306-.0571-.10184-.0817-.15836-.0246-.0565-.0558-.10965-.0692-.11807-.0134-.008-.0244-.0327-.0244-.0538s-.0201-.0781-.0448-.12657c-.0246-.0485-.0554-.13814-.0684-.1993-.013-.0612-.0367-.13723-.0527-.16904-.0296-.059-.10391-.62623-.10304-.78726.00054-.14774.053-.59304.0835-.71167.0557-.21702.11206-.40092.13628-.44479.0135-.0245.0612-.12454.10602-.2224.0448-.0978.0979-.20293.11805-.23352.20489-.31148.19432-.29849.4852-.59595.21381-.21864.41669-.38733.56715-.47155.15724-.088.43523-.22239.46007-.22239.0153 0 .0586-.0192.0962-.0425.0376-.0233.11764-.0496.17791-.0584.0603-.009.1441-.0304.18628-.0482.0853-.036.46292-.0795.51476-.0593.0293.0114.0331.36829.0331 3.12408v3.11116h-.095c-.0522 0-.10076-.006-.10783-.0131zm-7.205567-4.39851c-.0065-.007-.129822-.024-.273949-.0383-.171629-.0171-.284727-.0396-.327786-.0653-.03613-.0216-.10893-.0464-.161709-.0551-.05281-.009-.126744-.0339-.164366-.0558-.03759-.0219-.100457-.0467-.139629-.0549-.0392-.008-.07123-.0247-.07123-.0363 0-.0117-.0419-.0413-.09314-.0659-.331885-.15906-.717215-.48468-.97168-.82113-.09995-.13215-.142328-.195-.262436-.38919-.09754-.15771-.218474-.45065-.273137-.66163l-.0389-.15011H50.621381l-.0157.094c-.009.0517-.0284.11426-.044.139-.0156.0248-.0399.09-.0541.14503-.0142.055-.0395.11575-.0563.13488-.0168.0192-.0422.0692-.0563.1112-.0141.042-.0438.10026-.066.12944-.0222.0292-.0403.0624-.0403.0738 0 .0114-.0247.0535-.0548.0936-.0301.0401-.0548.0811-.0548.0912 0 .0101-.0146.0341-.0325.0535s-.0807.0953-.13961.16866c-.0985.12276-.37927.40542-.50804.51152-.0298.0245-.1033.0762-.16357.11497-.0603.0388-.13581.0913-.16785.11676-.032.0254-.07.0463-.0843.0463-.0143 0-.055.0209-.0903.0465-.0353.0255-.10097.0566-.14583.0689-.0449.0124-.0963.0354-.11443.0512-.0181.0158-.0772.0358-.13149.0444-.0542.009-.12327.0319-.1534.0517-.0817.0537-.991258.14837-1.030975.10724z"/>
  </g>
</svg>
