<svg xmlns="http://www.w3.org/2000/svg" id="Layer_1" version="1.1" viewBox="0 0 48 48">
  <defs>
    <clipPath id="clippath">
      <path d="M5.6 6.4h36.8v35.3H5.6z" class="st0"/>
    </clipPath>
    <style>
      .st0{fill:none}.st1{fill:#fff}.st2{fill-rule:evenodd}.st2,.st3{fill:#003e7e}.st4{fill:#bf311a}.st5{clip-path:url(#clippath)}
    </style>
  </defs>
  <path d="M0 0h48v48H0z" class="st1"/>
  <g class="st5">
    <path d="M14.9 6.4h18.2l-1.1 5h10.4l-6.7 30.2H12.3L5.6 11.4H16l-1.1-5h18.2-18.2z" class="st2"/>
    <path d="M18.4 13.5s9.8-1 11.6 6.4c.9 3.9.2 5.1-1.9 6.4-.8.5-1.3 1.1-1.3 1.1l-1.5-.6c-1.8-1-5-.5-5.1-1.2 0-.7.1-1.4.4-1.8 2-2.8 6.6 0 6.6 0 0-2.3-3.3-2.7-4-3.4-2.3-2.2-1.9-2.4-1.9-2.4-1.7 2.9.5 3 0 3.1-1 .3-1.9.8-2.6 1.5a9.8 9.8 0 0 0-2.2 4.2c-2.3-4.3-.3-7.4 2-8.7 2.5-1.4 5.5-.6 5.5-.6s-2.3-2.1-5.5-1.3-5 4.8-5 4.8-.4-.7-.2-1.9.9-3 .9-3-2.4 2.9-2.7 3.8a6.3 6.3 0 0 0 0 4.3c.5 1.7 2.4 3.5 2.4 3.5s-1.3-.4-2.1-1.2c-1.1-1-1.7-2.7-1.7-2.7s-.5 3.6.4 5.2 5.2 4 5.2 4l-4.5-1.1 1.3 2c.4.5.8 1 1.8 1.3 1.6.6 4.4-.4 5.2-.3.9 0 2 0 2.1.3 0 .4.2 1 0 1.3-.1.4-2.7 0-3-.5 0 0 1.9 1.5 2.9 1.7 0 0-5-.3-5.6-1.3 0 0 3.5 2.1 4.7 2.2l-7-1.7s7.9 5.1 13.5 1c3.5-2.6 4.7-2 5.6-2.5 2.5-1.2 4.2-2.5 4.2-3.5 0 0 .1.2-1.9.8-2.4.7-2.5.3-2.5.3s2.1-.6 3.5-1.6c3.4-2.3 1.8-7.9 1.8-7.9-.9 4.1-2.4 3.3-3.3 4.2 1.5-1.6 2.4-3.1 2.3-5.3-.2-4-3.2-6.4-3.2-6.4s.5 4-1.2 5.6c-.1.1.7-3 .6-4.2-.2-2.1-.5-4.6-7.4-4.9-6.9-.3-7.1 1.1-7.1 1.1Z" class="st4"/>
  </g>
  <path d="M23.3 21.4s.2-.3.8-.2c.6.1.8.6.5.6l-.9-.3h-.3Z" class="st3"/>
</svg>
