<svg xmlns="http://www.w3.org/2000/svg" xml:space="preserve" viewBox="0 0 79.374998 26.458333">
  <path d="M23.616443 13.199014c.10647-.709991.0807-.941444-.09286-.834173-.327193.202216-.30598-.195991.02437-.457349.34097-.269768 2.235425-.290113 2.398803-.02576.1983.320857-.358096.839473-.762816.711019-.278467-.08838-.451009.09068-.709235.736053-.195567.488773-.483049.852849-.673425.852849-.275257 0-.30693-.168391-.184827-.982636zM26.447527 13.959158c-.854647-.854648.228502-2.317503 1.715961-2.317503.744242 0 .834862.05614.834862.517164 0 .556052-.694417 1.176167-1.317095 1.176167-.206929 0-.376235.09525-.376235.211666 0 .296521.920554.264778 1.227664-.04234.197556-.197556.254-.178638.254.08513 0 .318818-.976951.803872-1.619083.803872-.157253 0-.481286-.195372-.720074-.43416zm1.450158-1.089838c.422429-.422428.301158-.840472-.222249-.766137-.306061.04346-.50042.237827-.543888.543887-.07434.523408.343708.644679.766137.22225zM19.727366 14.139318c-.474356-.474357-.291914-1.369795.39724-1.949681.491088-.413223.887275-.547982 1.611054-.547982h.959815l-.141801.755864c-.07799.415725-.194446.893054-.25879 1.060732-.08456.220367-.0078.269958.276994.178918.314216-.100451.292813-.03666-.105716.315099-.591409.521997-.846107.553917-1.010087.126592-.106742-.278166-.172482-.278166-.56962 0-.543742.380851-.824072.395474-1.159089.06046zm1.520821-.902718c.466281-.711634.432231-1.171612-.08673-1.171612-.415508 0-.841426.703401-.841426 1.389611 0 .482768.554298.352579.928156-.217999z" style="fill:#1e1e1e;stroke-width:.799999"/>
  <path d="M18.553717 20.857892c-1.688385-.601992-2.546674-1.899772-2.525533-3.818746.0183-1.661496.658595-3.315348 1.937456-5.004383 1.961532-2.5906605 4.687775-4.7567934 7.525207-5.9791424 1.257248-.5416143 1.775168-.6458261 3.237574-.6514389 1.624556-.00624 1.780159.032544 2.328329.580211 1.263048 1.2618962.526697 3.6040664-1.45014 4.6125723-1.100994.561686-2.738276.754861-3.549596.418801-.702161-.290844-1.405666-1.5287716-1.186408-2.0876706.104414-.2661563.21436-.1426389.437107.491064.163681.4656663.299036.8666546.300789.8910856.0018.02443.371973.154911.822712.289955 1.968568.589798 4.260466-1.2328389 4.260466-3.3881455 0-1.1903123-.63974-1.5994827-2.242212-1.4340934-2.236816.2308604-5.994396 2.5044339-7.888197 4.7728599-3.232149 3.871518-3.98137 8.361933-1.63401 9.793351 1.160425.707626 3.1355.401659 4.401547-.681861l.695384-.59513c3.7775-1.698765.477985.635906.460538.642338-1.617167 1.333005-4.077195 1.809324-5.93095 1.14837z" style="fill:#1e1e1e;stroke-width:.799999"/>
  <path d="M77.623074 15.612197c-.207274-.04071-.356055-.251967-.322969-.458599.03361-.209902.221132-.361566.427535-.345778.293786.02247.468121.33315.334222.595612-.02722.05335-.103318.131292-.159655.163526-.08184.04682-.185511.06363-.279133.04524zm.18449-.04498c.193387-.05973.305295-.265777.24757-.455825-.03454-.113699-.09956-.188251-.208806-.239414-.04848-.02271-.06446-.02544-.146225-.02499-.07914.000432-.09907.0038-.144601.02475-.06849.03145-.148941.108091-.181804.173185-.03554.07039-.04958.155468-.03695.223802.04205.227472.257834.364277.470817.298493zm-.0037-.131934c-.02549-.01937-.171552-.211259-.166738-.219049.0024-.0039.02711-.0072.05483-.0072.08345 0 .122919-.03053.122919-.09507 0-.06037-.06187-.106669-.142735-.106817-.04864-.000089-.05003.0058-.05003.212099v.19012l.03672.0062c.06762.01142.03766.02295-.05967.02295-.09569 0-.127553-.01168-.06425-.02355l.03213-.006V15.017135l-.03213-.006c-.06139-.01152-.03156-.02235.06655-.02417.175542-.0033.202104.0011.240597.0396.05252.05252.03002.143983-.04481.182159-.02019.0103-.04489.01873-.05489.01873-.01001 0-.02036.0035-.02305.0079-.0038.0061.08702.122635.132658.170248.0044.0046.02053.0079.03591.0075.03173-.000913.03658.01108.0102.02519-.02434.01302-.07531.01144-.09423-.0029z" style="fill:#070707;stroke:#000;stroke-width:.079375;stroke-dasharray:none;stroke-opacity:1"/>
  <path d="M71.198322 18.922913c-.0526-.05267-.00016-.08673.24735-.160442l.26762-.0797-.003-.734323c-.001-.403877-.0145-.811739-.0287-.90636l-.0259-.172038-.26064-.01136c-.1789-.0078-.25594-.02547-.24565-.05636.018-.05399.89875-.307091.97149-.279177.033.01265.0509.08669.0509.210128v.190591l.31541-.150172c.70267-.334561 1.11988-.346587 1.37809-.03972l.10335.122824v.756343c0 .41599.0108.835408.0241.93204l.0241.175694.20237.04201c.18116.03761.34679.139658.26071.160626-.0184.0045-.35589.0088-.75008.0096-.65147.0013-.71672-.0045-.71683-.064-.0001-.06359.14598-.121773.38129-.151853.13378-.0171.16293-.216964.14118-.967869-.0188-.648728-.0492-.778531-.20633-.881501-.19302-.12647-.68031-.04946-1.01201.159923l-.14685.09271.0103.789323.0103.789324.21027.04224c.23989.04819.31602.08614.29562.147348-.0145.04363-1.45641.07652-1.49874.03419zM68.960675 18.908273c0-.05752.159717-.11108.397466-.133282l.244121-.0228.0228-.138226c.0307-.18548.0298-3.162258-.001-3.698557l-.0245-.425413-.266656-.04404c-.27449-.04533-.424967-.101896-.395956-.148841.02975-.04819 1.871272-.0279 1.887502.0208.0155.04652-.16258.103214-.45541.144982l-.17831.02543-.0245.349785c-.0135.192382-.0192 1.140928-.0128 2.10788.0114 1.724245.0131 1.758318.0881 1.769656.32614.04931.6331.135505.62022.174158-.0169.05054-1.90095.06884-1.90095.01846zM62.474951 18.906273c-.02336-.03779.184156-.127286.380432-.16408l.145427-.02726-.01162-2.440786c-.01325-2.784803.0044-2.640271-.303866-2.487755-.09023.04464-.178572.06665-.196314.04891-.09616-.09616.654321-.562249.858693-.533289l.08864.01256.0099 1.803759.0099 1.803758.321008-.148306c.575038-.265668.944213-.324792 1.203158-.192688.280131.142912.288697.17621.310163 1.205632l.01912.9167.196026.04347c.225694.05005.281858.07839.281858.142212 0 .06614-1.459651.06296-1.481713-.0032-.01869-.05608.106383-.107429.351065-.144121l.181326-.02719-.01278-.80936c-.01094-.692285-.02246-.824112-.07969-.911365-.09653-.147175-.196094-.187456-.460232-.186193-.193481.000925-.283829.02625-.522438.146441l-.288502.145322-.01192.53523c-.0066.294376-.0011.657212.01225.806302l.02417.271071.236177.05389c.154122.03517.240017.07464.24723.113613.0097.05252-.07938.05959-.738737.05861-.412384-.000612-.758338-.01494-.768786-.03185zM58.611791 18.899573c.0074-.02226.126477-.07279.26457-.112277l.251077-.0718.02799-.709106c.03229-.818269.0033-4.087077-.03706-4.182308-.04257-.100356-.111212-.106892-.288593-.02748-.296274.132646-.251811-.01193.07423-.241372.218134-.153503.544569-.279815.634227-.24541.04819.01849.05661.356055.06092 2.440753.0028 1.330611.01565 2.548158.02867 2.705661.02041.246846.03423.288139.100138.29919.210105.03523.363187.09118.363147.13274-.000034.03459-.189031.04702-.746427.0491-.509338.0019-.742097-.01007-.73289-.03769zM50.829762 18.964435c-.07113-.01757-.09067-.106409-.03144-.143008.0195-.01205.174336-.04155.344077-.06556l.308619-.04365v-2.014315h-2.448015l.01018 1.02158.01018 1.021581.336604.04459c.185132.02453.34599.05398.357462.06545.07408.07408-.11666.09265-.960891.09359-.755325.00083-.937442-.0088-.937442-.04984 0-.06465.112243-.100745.401422-.129107l.229384-.0225.02584-.172038c.03375-.224737.03834-2.715609.0064-3.485328l-.02484-.598909-.252205-.04685c-.293926-.0546-.424243-.09817-.424243-.141839 0-.05066 1.885188-.03061 1.902137.02024.01525.04577-.164171.102701-.453855.143999l-.176524.02516-.02419.231413c-.0133.127276-.02419.581805-.02419 1.010063v.778651l1.232941-.01009 1.232941-.01009-.01026-.611691c-.0057-.33643-.02003-.785541-.03197-.998023l-.02172-.386332-.27387-.04832c-.285815-.05042-.421361-.100833-.393288-.146264.02788-.04512 1.872473-.02431 1.887674.02129.01324.03971-.296393.123431-.460737.124575-.186963.0013-.182448-.03556-.206447 1.685095-.01244.891702-.0099 1.839145.0057 2.10543l.02833.484154.254397.04318c.339292.05758.388205.07437.388205.133197 0 .03963-.159996.04897-.774172.04521-.425795-.0026-.817182.0057-.869749.01853-.05257.0128-.125683.01584-.16248.0068zM75.628252 18.962429c-.28022-.100199-.48099-.276187-.62971-.55198-.11855-.219843-.12977-.26882-.12967-.565644.00009-.270607.0167-.360131.0996-.53523.29823-.629964.94768-.928696 1.62211-.746135.1369.03706.25316.06096.25834.05312.005-.0078.0259-.06446.0461-.125824.0864-.262607.11739-.134624.11953.493171.002.497345-.009.631511-.0481.631511-.0542 0-.12976-.22446-.1301-.386709-.00032-.150963-.14006-.298503-.39853-.420781-.44118-.208715-.83894-.123155-1.04324.224407-.0944.160578-.10674.219373-.10642.506621.00044.377673.0751.581092.30812.838966.2514.278265.5996.399395.88107.3065.0803-.02651.23742-.134606.34909-.24021.15315-.14485.21382-.181193.24703-.147981.0982.09822-.24409.499005-.5372.628965-.24918.110483-.65653.127183-.90809.03723zM61.169731 18.953929c-.258906-.117508-.275734-.19195-.275734-1.219778v-.877772l-.219826.01866c-.120905.01026-.249934.02461-.286731.03189-.0545.01078-.0669-.01428-.0669-.135154 0-.14034.0057-.147505.105135-.132096.05783.009.186853.0254.28673.03654l.181596.02025v-1.413074h.458769v1.400342l.439653-.01683.439653-.01683v.239006h-.923073l.01232.793287c.01352.87055.02881.934025.241403 1.002592.156404.05044.385607-.0075.513224-.12978.05662-.05425.132123-.09864.16777-.09864.109535 0 .07274.129691-.07855.276879-.290545.282661-.67221.367206-.995437.220505zM56.459234 19.00242c-.136549-.05131-.275151-.181332-.350995-.329269-.09909-.193279-.109493-.527263-.02163-.694491.148035-.281759.480944-.478523.80753-.477286.15327.00058.503696.07305.651118.134648.06902.02884.07174.01504.051-.259171-.01205-.1593-.04019-.323804-.06254-.365564-.101181-.189059-.514456-.209939-.953225-.04816-.167476.06175-.314882.101892-.32757.08921-.116242-.116243.172853-.330502.640433-.47465.488447-.150581.923089-.0406 1.088354.275387.08603.164486.08802.189712.06344.802736-.01396.348102-.01326.713684.0015.812403.02429.16199.03681.179489.128392.179489.05581 0 .164771-.04301.242131-.09558.162801-.110626.182941-.115158.182941-.04116 0 .167325-.411387.453997-.723017.503829-.200461.03205-.270982-.0249-.270982-.218846 0-.08153-.0098-.148242-.02178-.148242-.01198 0-.100684.05428-.197115.12063-.314379.216299-.709876.316062-.928022.234092zm.78373-.351683c.08411-.03946.200233-.117195.258057-.172746.09509-.09135.105135-.12661.105135-.369021v-.268019l-.138111-.05771c-.34482-.144075-.699914-.101271-.873752.105324-.07788.09255-.09683.156137-.09683.324922 0 .229731.0423.341936.166955.442914.108745.08809.38446.08538.578544-.0057zM53.942633 18.973269c-.83138-.259452-1.070307-1.388425-.441203-2.084768.422392-.467538 1.237232-.507529 1.663137-.08162.176996.176996.225551.287682.280836.64019l.02455.156559-.37511.02484c-.206309.01366-.630378.02493-.942372.02504l-.567264.000197.02656.162481c.06356.388911.305388.725416.613966.854348.181835.07598.452146.06679.62468-.02123.08071-.04117.215522-.152999.299584-.248499.24927-.283185.337765-.183265.123792.139774-.269531.406919-.82999.589099-1.331155.432698zm.872659-1.497338.124228-.02485-.02139-.20723c-.03637-.352404-.282932-.584154-.621485-.584154-.317848 0-.556141.231594-.648907.630664l-.04891.210412h.546118c.300366 0 .602021-.01118.670347-.02485z" style="fill:#070707;stroke-width:.629031"/>
  <path d="m14.181734 12.952651-.433294-1.12843-.135577-.0376c-.16745-.04643-.256592-.101383-.221464-.136511.01463-.01462.581853-.02572 1.260507-.02465.96435.0015 1.233916.01244 1.233916.05 0 .02643-.07215.07211-.160333.101506-.08971.0299-.153868.07341-.145654.09876.146079.451006.575316 1.549732.596841 1.527747.03629-.03707.341874-.85773.450285-1.209283.112555-.36499.10846-.392558-.06255-.421158-.169141-.02829-.257389-.07794-.226722-.127561.01211-.01959.259297-.03408.549308-.03219.460899.003.528842.01149.539611.0674.009.04693-.02466.07091-.126515.09001-.07636.01432-.155343.05401-.175521.0882-.02018.03418-.260691.526657-.534475 1.094383-.273783.567726-.521881 1.056557-.551328 1.086291-.09112.092-.149301-.0025-.386825-.628036-.123642-.325634-.233667-.592063-.244502-.592063-.01083 0-.161324.283863-.334418.630807-.239085.479211-.331934.630806-.386359.630806-.05863 0-.150335-.204938-.504937-1.128429zm.862185.147837c.268154-.624201.263073-.588313.130695-.923119-.06405-.162005-.130662-.309177-.148016-.32705-.03473-.03577-.681154-.04556-.715871-.01084-.0257.02571.531903 1.590579.567001 1.591234.01327.000247.08806-.148352.166191-.330221zm-7.8489593.885626c-.8313804-.259452-1.0703072-1.388425-.4412031-2.084768.4223926-.467538 1.2372314-.507529 1.6631364-.081624.1769962.176996.2255511.287682.280836.64019l.024551.156559-.3751095.02484c-.2063103.01366-.6303779.02493-.942373.02504l-.5672635.000197.026558.162481c.063564.388911.305389.725416.6139659.854348.1818347.07598.4521464.06679.6246795-.02123.080709-.04117.2155225-.152999.2995849-.248499.24927-.283185.3377653-.183265.1237928.139774-.2695324.406919-.829991.589099-1.3311558.432698zm.8726587-1.497338.1242287-.02485-.021387-.20723c-.036371-.352404-.2829319-.584154-.6214853-.584154-.3178469 0-.5561403.231594-.6489073.630664l-.048914.210412h.546118c.3003649 0 .6020205-.01118.6703459-.02485zm-5.390509 1.474993c-.1366746-.01935-.5065569-.03098-.8219601-.02584-.3557316.0058-.5791056-.0052-.5883284-.02888-.022022-.05663.1594588-.134159.3733143-.159487.1033932-.01225.211272-.03665.2397313-.05422.042107-.02601.053952-.382864.063601-1.916236.00652-1.036353.0012-1.9727971-.011807-2.0809861l-.023664-.196708-.179345-.02559c-.2998787-.04279-.4720426-.09833-.4557935-.147038.018651-.05591 2.3121532-.04259 2.7040987.0157.7467808.111061 1.4611652.7764441 1.6580721 1.5443401.1852264.722345.075906 1.472746-.3009587 2.065864-.2595829.408538-.7591067.786872-1.2418371.940556-.2874893.09153-1.0067676.12636-1.4151208.06853zm1.0043137-.168244c.7022057-.148801 1.2100408-.672932 1.4272572-1.473057.090288-.332581.0920091-1.000062.0034597-1.338075-.1027176-.392053-.3415828-.841737-.5513364-1.0379371-.423616-.396242-.777958-.509531-1.5110681-.483109-.268166.0097-.5004176.03041-.5161144.04609-.015694.01569-.028539.9776061-.028539 2.1376001v2.109081l.2102694.0441c.2937097.0616.6616483.05981.9660824-.0047zm5.3536214.116839c.00742-.02226.1264768-.07279.2645699-.112277l.2510777-.0718.027986-.709106c.032295-.818268.00333-4.0870761-.037062-4.1823071-.042567-.100356-.1112108-.106892-.2885919-.02748-.2962737.132645-.2518106-.01193.074229-.241373.2181336-.153502.5445687-.279814.634227-.245409.04819.01849.056612.356055.060921 2.4407531.0028 1.33061.01565 2.548158.02867 2.705661.02041.246845.03422.288139.100137.29919.210106.03523.363187.09118.363147.13274-.000033.03459-.189031.04702-.746425.0491-.5093385.0019-.7420977-.01007-.7328905-.03769zm2.3968985.102901c-.136549-.05131-.275151-.181332-.350995-.329269-.09909-.193279-.109493-.527263-.02163-.694491.148035-.281759.480944-.478523.80753-.477286.153269.00058.503696.07305.651117.134648.06902.02884.07174.01504.051-.259171-.01205-.1593-.04019-.323804-.06254-.365564-.101181-.189059-.514455-.209939-.953225-.04816-.167475.06175-.314882.101892-.327569.08921-.116242-.116243.172853-.330502.640433-.47465.488447-.150581.923088-.0406 1.088354.275387.08603.164486.08802.189712.06344.802736-.01396.348102-.01326.713684.0016.812403.02429.16199.03681.179489.128392.179489.05581 0 .164771-.04301.242131-.09558.162801-.110626.182941-.115158.182941-.04116 0 .167325-.411388.453997-.723017.503829-.200461.03205-.270982-.0249-.270982-.218846 0-.08153-.0098-.148242-.02178-.148242-.01198 0-.100684.05428-.197115.12063-.31438.216299-.709876.316062-.928022.234092zm.78373-.351683c.08411-.03946.200233-.117195.258057-.172746.09509-.09135.105135-.12661.105135-.369021v-.268019l-.138111-.05771c-.34482-.144075-.699914-.101271-.873752.105324-.07788.09255-.09683.156137-.09683.324922 0 .229731.0423.341936.166955.442914.108745.08809.38446.08538.578544-.0057z" style="opacity:1;fill:#000;stroke-width:.629031"/>
  <path d="M65.99575 20.013341c-.01032-.02689.01684-.15162.06037-.277172.09479-.273431.189639-.865634.189951-1.185956.000126-.128622.02059-.25166.0461-.277172.05503-.05503.389639-.06101.487369-.0087.133152.07126.119966.15787-.09834.645895-.464551 1.038531-.616441 1.282969-.685458 1.103113zM44.943714 19.941153c-.274961-.27496.03733-.621983.407823-.453177.09601.04374.111146.03696.234513-.105134.203423-.234303.401015-.592146.377662-.683955-.05101-.200543-.902983-2.185143-.947639-2.207446-.02767-.01382-.124513-.04494-.215215-.06917-.09512-.02541-.158592-.063-.149978-.08884.0165-.0495 1.244361-.06968 1.274482-.02095.02318.03751-.140838.146737-.220343.146737-.03613 0-.0755.01586-.08748.03524-.01198.01938.0917.324748.230391.678595.138693.353848.287611.737067.33093.851599l.07876.208239.180624-.463668c.145991-.374767.271617-.770411.397743-1.252655.0055-.02103-.05163-.05595-.126962-.0776-.07533-.02165-.141965-.06535-.14808-.0971-.0095-.04921.06385-.0575.496695-.05621.425225.0013.507813.01085.507813.05887 0 .03622-.06253.07242-.169748.09827-.138135.0333-.176341.06178-.205138.152923-.190199.601973-1.213021 2.625784-1.609067 3.183787-.207243.291992-.446747.352696-.637792.161651zm-1.5564-1.302403c-.258906-.117508-.275733-.19195-.275733-1.219778V16.5412l-.219827.01866c-.120905.01026-.249933.02461-.28673.03189-.0545.01078-.0669-.01428-.0669-.135154 0-.140341.0057-.147505.105135-.132097.05783.009.186852.02541.28673.03654l.181596.02025v-1.413074h.458768v1.400342l.439653-.01683.439654-.01683v.239005h-.923073l.01232.793287c.01352.870551.02881.934026.241404 1.002592.156403.05044.385606-.0075.513223-.12978.05662-.05425.132124-.09864.16777-.09864.109535 0 .07274.129692-.07855.27688-.290546.282661-.67221.367205-.995438.220505zm-22.38061-.01308c-.385679-.109397-.672813-.418772-.758203-.816934-.111135-.518207.226471-1.150894.759131-1.422636.69906-.356634 1.539779-.200806 1.839385.34093.124893.225826.155282.705801.06239.98546-.134954.40631-.44924.723224-.862955.870172-.235501.08365-.812354.107509-1.039752.04301zm.974078-.154803c.16217-.06959.352056-.273295.431888-.463327.09662-.229998.116472-.758357.03856-1.026361-.07386-.254081-.272384-.496933-.478078-.584839-.211305-.0903-.56572-.05019-.794255.08989-.343957.210831-.450747.474495-.423679 1.046066.01471.31074.03379.396086.126659.566717.11339.208334.252263.333209.430219.386853.167069.05036.535626.04209.668685-.015zm12.706376.166401c-.06008-.01798-.144176-.06381-.186872-.101826-.161899-.144134-.181769-.270462-.181769-1.155635v-.840479l-.238942-.01138c-.255733-.01218-.301526-.06841-.09576-.117573.06844-.01635.266854-.07297.44093-.125828.174076-.05285.332003-.08652.350948-.07481.01989.01229.02509.404865.0123.929065-.01978.810413-.01512.921383.04345 1.034644.12937.250174.561266.313128.93971.136975.36064-.167865.344274-.124485.34368-.910919-.000287-.380482-.0107-.729749-.02314-.776149-.02003-.07469-.05174-.08565-.27665-.09558-.271568-.01199-.323263-.06664-.113546-.120049.06992-.01781.280063-.07419.46698-.12529.186918-.0511.349408-.08336.361089-.07168.01168.01168.01647.492446.01065 1.068367-.01028 1.017115-.0083 1.049411.06901 1.126724.04377.04378.121483.07959.172682.07959.120968 0 .307303.07112.273886.104537-.01427.01427-.231697.02669-.483182.0276l-.457244.0017-.000005-.165667c-.000002-.09112-.01291-.159808-.02868-.152648-.01577.0072-.140498.07137-.277173.142696-.409619.213757-.819361.284455-1.122356.193656zm-11.249994-.04472c-.02502-.04046.110125-.10177.32674-.148225l.194089-.04162-.0022-.790119c-.0012-.434566-.01434-.858935-.02918-.943042l-.02698-.152923-.238431-.01138c-.268558-.01282-.309166-.06317-.09507-.117881.574643-.146834.777238-.195698.81139-.195698.02197 0 .03925.09038.03925.205264v.205263l.315403-.158276c.478928-.240335.854342-.307635 1.113057-.199538.118149.04937.267518.199037.302064.302676.01018.03055.128268-.0071.356181-.113661.530588-.248012.866996-.296269 1.154786-.165652.259646.117843.275734.190098.275734 1.238342v.896336l.225909.07022c.12425.03862.227505.08533.229455.103793.002.01847-.314758.03813-.703793.04369-.579288.0083-.707339.000609-.707339-.0424 0-.02889.04731-.06318.105135-.0762.05783-.01302.170557-.04006.250518-.06009l.145382-.03641-.01157-.857382-.01157-.857383-.100154-.100076c-.08284-.08276-.134417-.09981-.298148-.09854-.245821.0019-.558784.09044-.731916.207065l-.131405.08851-.01084.744016c-.006.409209-.0018.78078.0092.825713.01428.05819.06119.08942.163065.108528.17156.03218.294473.09302.25918.128276-.01408.01407-.325223.02557-.691426.02557-.495872 0-.665823-.01182-.665825-.04631-.000001-.02547.07311-.06521.162479-.08829.08936-.02309.192587-.05072.229384-.0614.06109-.01773.0669-.09213.0669-.855784 0-.813956-.0023-.839066-.08662-.937073-.107223-.124654-.294231-.166675-.544183-.122277-.252488.04485-.626449.244857-.651913.34867-.01084.04418-.01482.414355-.0089.822622l.01085.742304.228622.06054c.125742.0333.224654.07761.219803.09847-.01006.04329-1.420558.05477-1.447139.01178zm5.237608 0c-.02502-.04046.110125-.10177.32674-.148225l.194089-.04162-.0022-.790119c-.0012-.434566-.01434-.858935-.02918-.943042l-.02699-.152923-.238432-.01138c-.268557-.01282-.309166-.06317-.09507-.11788.574642-.146835.777237-.195699.811389-.195699.02197 0 .03925.09038.03925.205264v.205263l.315404-.158275c.478928-.240336.854342-.307636 1.113057-.199538.118149.04937.267518.199036.302064.302675.01018.03055.128268-.0071.356181-.113661.530588-.248012.866996-.296269 1.154786-.165652.259646.117844.275734.190098.275734 1.238342v.896336l.225909.07022c.12425.03862.227505.08533.229455.103793.002.01847-.314758.03813-.703793.04369-.579288.0083-.707339.000609-.707339-.0424 0-.02889.04731-.06318.105135-.0762.05783-.01302.170556-.04006.250518-.06009l.145382-.03641-.01157-.857382-.01157-.857382-.100154-.100077c-.08283-.08276-.134412-.09981-.298143-.09854-.24582.0019-.558783.09044-.731915.207065l-.131405.08852-.01085.744015c-.006.409209-.0018.78078.0092.825713.01428.05819.06119.08942.163065.108528.171559.03219.294473.09302.259179.128276-.01408.01407-.325222.02558-.691425.02558-.495872 0-.665824-.01182-.665825-.04631-.000001-.02547.07311-.06521.162479-.08829.08936-.02309.192587-.05072.229384-.0614.06108-.01773.0669-.09213.0669-.855783 0-.813956-.0023-.839066-.08662-.937074-.107223-.124654-.294231-.166674-.544183-.122277-.252488.04485-.626449.244858-.651913.34867-.01084.04418-.01482.414355-.0089.822622l.01084.742304.228623.06054c.125743.0333.224654.07761.219803.09847-.01006.04329-1.420558.05477-1.447139.01178zm8.684234.01516c-.05267-.05267-.000161-.08673.247352-.160442l.267615-.0797-.0028-.734322c-.0016-.403878-.01446-.81174-.02867-.906361l-.02584-.172038-.260642-.01136c-.178898-.0078-.255937-.02547-.245643-.05636.018-.05399.898747-.307091.97149-.279176.03297.01265.05091.08669.05091.210127v.190591l.315404-.150172c.702672-.334561 1.119881-.346587 1.37809-.03972l.10335.122824v.756345c0 .41599.01084.835408.02408.93204l.02408.175694.202365.04201c.181165.03761.346799.139658.260711.160626-.01834.0045-.355878.0088-.750073.0096-.65147.0013-.716727-.0045-.716826-.064-.000105-.06359.145976-.121773.381283-.151853.133776-.0171.162929-.216964.141179-.967869-.01879-.648728-.04917-.778531-.206324-.881501-.193018-.12647-.680319-.04946-1.012011.159923l-.146856.09271.01033.789323.01033.789324.210269.04224c.23989.04819.316022.08614.29562.147348-.01454.04363-1.456405.07652-1.498739.03419zm3.507698-.02061c.01268-.03805.200488-.108061.41936-.156335l.105135-.02319-.000333-.735212c-.000183-.404367-.01118-.825533-.02444-.935924l-.02411-.200712h-.224059c-.172396 0-.22406-.01305-.22406-.05662 0-.03114.03871-.06484.08602-.0749s.240853-.05521.430095-.100351c.189242-.04514.36128-.08455.382307-.08758.02436-.0035.04516.395735.05735 1.100315l.01912 1.105826.203515.04581c.111932.0252.222897.06519.246588.08888.02369.02369.03533.04383.02587.04476-.0095.000931-.348923.0069-.754358.0132-.49487.0077-.732829-.0015-.723994-.02797zm.538414-3.510665c-.233802-.113208-.205343-.465481.04729-.585363.182502-.0866.371024-.0058.434372.186124.05505.166819.02795.26461-.101573.366495-.106176.08352-.249694.09588-.380088.03274z" style="fill:#070707;stroke-width:.629031"/>
  <path d="M45.918092 15.197563c-.293171-.29317.0398-.663176.434833-.48319.102368.04664.118507.03941.250043-.112097.216897-.249821.427575-.631364.402676-.729253-.05439-.213825-.962787-2.329864-1.010401-2.353644-.0295-.01473-.132759-.04792-.229468-.07375-.10142-.02709-.169096-.06717-.159911-.09472.01759-.05278 1.326774-.07429 1.358889-.02234.02472.03999-.150165.156455-.234935.156455-.03852 0-.0805.01691-.09327.03757-.01277.02066.09777.346255.24565.723538.147878.377282.306659.785881.352847.907999l.08398.22203.192587-.494376c.155659-.399588.289605-.821434.424085-1.335618.0059-.02242-.05505-.05965-.135371-.08274-.08032-.02308-.151367-.06968-.157887-.103531-.01013-.05247.06808-.06131.529591-.05993.453387.0014.541445.01157.541445.06277 0 .03862-.06668.07722-.180992.104779-.147283.03551-.188018.06587-.218723.163051-.202795.641841-1.293358 2.799687-1.715634 3.394646-.220968.311331-.476335.376055-.680032.172358zm-11.502747-1.346994c-.03254-.04647-.495918-1.148437-1.029723-2.448835-.889855-2.1677648-.979306-2.3663158-1.0758-2.3878848-.318181-.07113-.410967-.104853-.410974-.1494-.000006-.03722.203271-.04804.825445-.04395.64185.0043.825454.01707.825454.05775 0 .05568-.107299.09741-.358713.139529-.136173.02281-.151642.03676-.127948.115435.01482.04922.366436.9332738.781362 1.9645688.414924 1.031297.771682 1.920456.792794 1.97591.03739.09822.04052.09611.120726-.08152.172227-.381416.849233-2.116814.98695-2.529893.07916-.237434.207357-.6501548.284886-.9171608l.140961-.485464-.230297-.04508c-.282957-.05539-.380532-.09528-.362843-.148346.01837-.0551 1.49641-.06505 1.502311-.01013.0023.02226-.07554.06581-.173175.09676-.09764.03096-.204125.06907-.236636.08469-.05467.02626-.354761.711146-1.634805 3.7309298-.265963.627441-.500948 1.146595-.522189 1.153675-.02124.007-.06524-.02514-.09778-.0716zm2.334274.01002c-.145593-.05471-.293374-.193342-.374242-.351077-.105652-.206079-.116744-.562183-.02306-.740486.157839-.30042.512796-.510215.861012-.508897.163421.000619.537055.07789.694241.143566.07359.03075.07649.01604.05438-.276336-.01285-.16985-.04285-.345249-.06668-.389775-.107882-.20158-.548528-.223843-1.016358-.05135-.178566.06584-.335735.10864-.349263.09512-.123941-.123942.184301-.352391.682848-.506086.520797-.160553.984225-.04329 1.160435.293626.09173.17538.09385.202277.06764.855901-.01488.371156-.01414.76095.0016.866208.0259.172718.03925.191376.136896.191376.05951 0 .175683-.04586.258166-.10191.173584-.117953.195057-.122785.195057-.04389 0 .178407-.438632.484065-.770901.537197-.213738.03417-.288928-.02655-.288928-.23334 0-.08693-.01045-.15806-.02323-.15806-.01277 0-.107352.05788-.21017.128619-.335201.230625-.756891.336995-.989484.249596zm.835635-.374975c.08968-.04207.213495-.124957.275148-.184187.101388-.0974.112098-.134995.112098-.393461v-.28577l-.147257-.06153c-.367658-.153617-.746269-.107978-.931621.1123-.08304.09868-.103243.166478-.103243.346441 0 .244946.04509.364582.178013.472248.115947.09392.409922.09104.61686-.0061zm6.223378.343893c-.886443-.276635-1.141193-1.480379-.470425-2.222841.450368-.498502 1.319173-.541142 1.773286-.08703.188718.188718.240489.306735.299435.682589l.02618.166928-.399953.02648c-.219974.01457-.672127.02658-1.004786.0267l-.604832.000211.02832.173241c.06777.414669.325615.77346.654628.910931.193878.08101.482093.07121.666053-.02264.08606-.0439.229795-.163132.319426-.264957.265778-.301941.360135-.195403.131991.149031-.287383.433869-.884961.628114-1.419317.461356zm.930455-1.596506.132455-.02649-.02281-.220955c-.03878-.375744-.30167-.622842-.662645-.622842-.338899 0-.592974.246932-.691885.672432l-.05215.224348h.582287c.320258 0 .641892-.01192.714744-.0265zm-5.69435 1.517872c.0079-.02374.134853-.07761.282092-.119713l.267708-.07656.02984-.756069c.03444-.872462.0035-4.3577598-.03952-4.4592978-.04539-.107002-.118576-.113971-.307705-.0293-.315896.14143-.268488-.01272.07915-.257359.23258-.163668.580634-.298345.676231-.261662.05138.01971.06037.379636.06495 2.6024018.0029 1.418735.01669 2.71692.03057 2.884855.02176.263193.0365.307222.106769.319005.224021.03756.387242.09722.387199.141531-.000036.03688-.201551.05013-.795862.05235-.543071.002-.791246-.01074-.78143-.04019zm1.834322 0c.0079-.02374.134854-.07761.282093-.119713l.267706-.07656.02984-.756069c.03444-.872462.0035-4.3577598-.03951-4.4592978-.04538-.107002-.118577-.113971-.307705-.0293-.315896.14143-.268489-.01272.07915-.257359.232579-.163668.580634-.298345.676231-.261662.05138.01971.06037.379636.06495 2.6024018.0029 1.418735.01669 2.71692.03057 2.884855.02176.263193.0365.307222.106769.319005.224021.03756.387241.09722.387199.141531-.000037.03688-.201552.05013-.795863.05235-.543071.002-.791245-.01074-.781428-.04019z" style="fill:#070707;stroke-width:.670691"/>
</svg>
