<svg xmlns="http://www.w3.org/2000/svg" xml:space="preserve" viewBox="0 0 79.375 26.458">
  <path d="M23.616 13.199c.107-.71.081-.941-.092-.834-.328.202-.306-.196.024-.458.34-.27 2.235-.29 2.399-.025.198.32-.358.84-.763.71-.279-.088-.451.091-.71.737-.195.489-.482.853-.673.853-.275 0-.307-.169-.185-.983zm2.832.76c-.855-.854.228-2.317 1.715-2.317.745 0 .835.056.835.517 0 .556-.694 1.176-1.317 1.176-.207 0-.376.095-.376.212 0 .296.92.264 1.228-.043.197-.197.254-.178.254.085 0 .32-.977.804-1.62.804-.157 0-.48-.195-.72-.434zm1.45-1.09c.422-.422.3-.84-.223-.766a.6.6 0 0 0-.543.544c-.075.523.343.645.766.222zm-8.17 1.27c-.475-.474-.293-1.37.397-1.95.49-.413.887-.547 1.61-.547h.96l-.141.756c-.078.415-.195.893-.26 1.06-.084.22-.007.27.278.18.314-.101.293-.037-.106.314-.591.522-.846.554-1.01.127-.107-.278-.172-.278-.57 0-.543.38-.824.395-1.159.06zm1.52-.902c.466-.712.432-1.172-.087-1.172-.415 0-.841.703-.841 1.39 0 .482.554.352.928-.218z" style="fill:#1e1e1e;stroke-width:.799999"/>
  <path d="M18.554 20.858c-1.689-.602-2.547-1.9-2.526-3.819.018-1.661.659-3.315 1.938-5.004 1.961-2.59 4.687-4.757 7.525-5.98 1.257-.541 1.775-.645 3.237-.65 1.625-.007 1.78.032 2.329.58 1.263 1.261.526 3.603-1.45 4.612-1.101.562-2.739.755-3.55.419-.702-.291-1.406-1.529-1.186-2.088.104-.266.214-.143.437.491.163.466.299.867.3.891.002.025.372.155.823.29 1.969.59 4.26-1.233 4.26-3.388 0-1.19-.64-1.6-2.242-1.434-2.236.23-5.994 2.504-7.888 4.773-3.232 3.871-3.981 8.362-1.634 9.793 1.16.708 3.136.402 4.402-.682l.695-.595c3.778-1.699.478.636.46.643-1.616 1.333-4.076 1.809-5.93 1.148z" style="fill:#1e1e1e;stroke-width:.799999"/>
  <path d="M77.623 15.612a.414.414 0 0 1-.323-.458.408.408 0 0 1 .428-.346.409.409 0 0 1 .334.595.496.496 0 0 1-.16.164.415.415 0 0 1-.279.045zm.185-.045a.37.37 0 0 0 .038-.695c-.048-.023-.064-.025-.146-.025-.079 0-.099.004-.144.025a.439.439 0 0 0-.182.173.369.369 0 0 0 .434.522zm-.004-.132a1.472 1.472 0 0 1-.167-.219c.003-.004.027-.007.055-.007.083 0 .123-.03.123-.095 0-.06-.062-.107-.143-.107-.048 0-.05.006-.05.212v.19l.037.007c.067.011.037.023-.06.023-.096 0-.127-.012-.064-.024l.032-.006v-.392l-.032-.006c-.061-.011-.032-.022.066-.024.176-.003.203.001.241.04.053.052.03.144-.045.182a.17.17 0 0 1-.055.018c-.01 0-.02.004-.023.008a1.1 1.1 0 0 0 .133.17c.004.005.02.009.036.008.032 0 .036.011.01.025-.024.013-.075.012-.094-.003z" style="fill:#070707;stroke:#000;stroke-width:.079375;stroke-dasharray:none;stroke-opacity:1"/>
  <path d="M71.198 18.923c-.052-.053 0-.087.248-.16l.267-.08-.003-.735a11.155 11.155 0 0 0-.028-.906l-.026-.172-.26-.011c-.18-.008-.257-.026-.247-.057.018-.054.9-.307.972-.279.033.013.05.087.05.21v.19l.316-.15c.703-.334 1.12-.346 1.378-.039l.104.123v.756c0 .416.01.836.024.932l.024.176.202.042c.181.038.347.14.26.16-.017.005-.355.01-.75.01-.65.001-.716-.004-.716-.064 0-.063.146-.122.381-.152.134-.017.163-.217.141-.968-.018-.648-.049-.778-.206-.881-.193-.127-.68-.05-1.012.16l-.147.093.01.789.01.79.211.041c.24.049.316.087.296.148-.015.043-1.457.076-1.499.034zm-2.237-.015c0-.057.16-.11.397-.133l.244-.023.023-.138c.03-.186.03-3.162 0-3.699l-.025-.425-.267-.044c-.275-.045-.425-.102-.396-.149.03-.048 1.871-.028 1.887.02.016.047-.162.104-.455.146l-.178.025-.025.35c-.013.192-.019 1.141-.013 2.108.012 1.724.014 1.758.089 1.77.326.049.633.135.62.174-.017.05-1.901.069-1.901.018zm-6.486-.002c-.023-.038.184-.127.38-.164l.146-.027-.012-2.44c-.013-2.786.005-2.641-.304-2.489-.09.045-.178.067-.196.05-.096-.097.654-.563.859-.534l.088.013.01 1.803.01 1.804.321-.148c.575-.266.944-.325 1.203-.193.28.143.289.176.31 1.206l.02.916.196.044c.225.05.281.078.281.142 0 .066-1.46.063-1.481-.003-.019-.056.106-.108.35-.144l.182-.027-.013-.81c-.01-.692-.022-.824-.08-.911-.096-.147-.195-.188-.46-.186-.193 0-.283.026-.522.146l-.288.145-.012.536a9.61 9.61 0 0 0 .012.806l.024.271.236.054c.154.035.24.075.247.114.01.052-.079.06-.738.058-.413 0-.759-.015-.77-.032zm-3.863-.006c.007-.023.126-.073.264-.113l.251-.072.028-.709c.033-.818.004-4.087-.037-4.182-.042-.1-.11-.107-.288-.027-.296.132-.252-.012.074-.242.218-.153.545-.28.634-.245.048.018.057.356.061 2.44.003 1.331.016 2.549.029 2.706.02.247.034.288.1.3.21.035.363.09.363.132 0 .035-.189.047-.746.05-.51.001-.742-.01-.733-.038zm-7.782.064c-.071-.017-.09-.106-.032-.143.02-.012.175-.041.344-.065l.309-.044v-2.014h-2.448l.01 1.021.01 1.022.337.045c.185.024.346.054.357.065.075.074-.116.093-.96.094-.756 0-.938-.01-.938-.05 0-.065.112-.1.402-.13l.229-.022.026-.172c.033-.225.038-2.715.006-3.485l-.025-.599-.252-.047c-.294-.054-.424-.098-.424-.142 0-.05 1.885-.03 1.902.02.015.046-.164.103-.454.145l-.176.025-.025.231c-.013.127-.024.582-.024 1.01v.779l1.233-.01 1.233-.01-.01-.612c-.006-.336-.02-.786-.032-.998l-.022-.386-.274-.049c-.286-.05-.421-.1-.393-.146.028-.045 1.872-.024 1.888.021.013.04-.297.124-.461.125-.187.001-.183-.036-.207 1.685-.012.892-.01 1.84.006 2.105l.029.485.254.043c.34.057.388.074.388.133 0 .04-.16.049-.774.045-.426-.002-.817.006-.87.019a.418.418 0 0 1-.162.006zm24.798-.002a1.11 1.11 0 0 1-.63-.552c-.118-.22-.13-.268-.13-.565.001-.27.018-.36.1-.535.299-.63.948-.93 1.623-.747.136.038.253.061.258.054.005-.008.026-.065.046-.126.086-.263.117-.135.12.493.002.497-.01.631-.049.631-.054 0-.13-.224-.13-.386 0-.151-.14-.299-.398-.421-.441-.209-.84-.123-1.043.224-.095.16-.107.22-.107.507 0 .378.075.581.308.839.252.278.6.4.881.306.08-.026.238-.134.35-.24.153-.145.213-.181.246-.148.099.098-.244.5-.537.63-.249.11-.656.126-.908.036zm-14.458-.008c-.26-.118-.276-.192-.276-1.22v-.878l-.22.019c-.12.01-.25.025-.287.032-.054.01-.066-.014-.066-.135 0-.14.005-.148.105-.132.058.009.187.025.286.036l.182.02v-1.413h.459v1.4l.44-.016.44-.017v.24h-.924l.012.792c.014.87.03.934.242 1.003a.568.568 0 0 0 .513-.13c.057-.054.132-.098.168-.098.11 0 .072.13-.079.276-.29.283-.672.368-.995.22zm-4.71.048a.71.71 0 0 1-.352-.329c-.099-.193-.11-.527-.021-.694a.94.94 0 0 1 .807-.478c.153.001.504.073.651.135.07.029.072.015.051-.26a1.454 1.454 0 0 0-.062-.365c-.101-.189-.515-.21-.954-.048-.167.062-.314.102-.327.09-.116-.117.173-.331.64-.475.489-.15.923-.04 1.089.275.086.165.088.19.063.803-.014.348-.013.713.002.812.024.162.036.18.128.18a.552.552 0 0 0 .242-.096c.163-.11.183-.115.183-.041 0 .167-.411.454-.723.504-.2.032-.27-.025-.27-.22 0-.08-.01-.147-.023-.147-.012 0-.1.054-.197.12-.314.217-.71.316-.928.234zm.783-.351c.084-.04.2-.117.258-.173.095-.091.105-.127.105-.369v-.268l-.138-.058c-.345-.144-.7-.101-.874.106-.078.092-.097.156-.097.324 0 .23.043.342.167.443.11.088.385.086.579-.005zm-3.3.322c-.832-.26-1.07-1.388-.442-2.084.423-.468 1.238-.508 1.664-.082.177.177.225.288.28.64l.025.157-.375.024c-.206.014-.63.025-.943.026h-.567l.027.162c.063.39.305.726.614.855a.824.824 0 0 0 .624-.022c.081-.04.216-.153.3-.248.25-.283.338-.183.124.14-.27.407-.83.589-1.331.432zm.872-1.497.125-.025-.022-.207c-.036-.353-.283-.584-.621-.584-.318 0-.556.231-.65.63l-.048.21h.546c.3 0 .602-.01.67-.024z" style="fill:#070707;stroke-width:.629031"/>
  <path d="m14.182 12.953-.434-1.129-.135-.037c-.168-.047-.257-.102-.222-.137.015-.015.582-.026 1.26-.025.965.002 1.235.013 1.235.05 0 .027-.072.073-.16.102-.09.03-.154.073-.146.099.146.45.575 1.55.597 1.527.036-.037.342-.857.45-1.209.113-.365.108-.392-.063-.421-.169-.028-.257-.078-.226-.128.012-.02.259-.034.549-.032.46.003.529.012.54.068.009.047-.025.07-.127.09-.076.014-.155.054-.175.088-.02.034-.261.527-.535 1.094-.274.568-.522 1.057-.551 1.087-.091.092-.15-.003-.387-.628-.124-.326-.234-.593-.245-.593-.01 0-.16.284-.334.631-.24.48-.332.631-.386.631-.059 0-.15-.205-.505-1.128zm.862.147c.268-.624.263-.588.13-.923a2.296 2.296 0 0 0-.147-.327c-.035-.035-.682-.045-.716-.01-.026.025.532 1.59.567 1.59.013.001.088-.148.166-.33zm-7.849.886c-.831-.26-1.07-1.388-.441-2.085.422-.467 1.237-.507 1.663-.081.177.177.225.287.28.64l.025.156-.375.025c-.206.014-.63.025-.942.025h-.567l.026.163c.064.389.305.725.614.854a.824.824 0 0 0 .625-.02c.08-.042.215-.154.3-.25.249-.283.337-.183.123.14-.27.407-.83.59-1.331.433zm.873-1.497.124-.025-.022-.207c-.036-.353-.282-.584-.621-.584-.318 0-.556.231-.649.63l-.049.21h.546c.3 0 .602-.01.67-.024zm-5.39 1.475a7.3 7.3 0 0 0-.823-.026c-.356.006-.579-.005-.588-.029-.022-.057.16-.134.373-.16a.887.887 0 0 0 .24-.054c.042-.026.054-.383.063-1.916.007-1.036.002-1.973-.011-2.08L1.908 9.5l-.18-.025c-.3-.043-.471-.099-.455-.147.019-.056 2.312-.043 2.704.015.747.112 1.461.777 1.658 1.545.185.722.076 1.473-.3 2.066-.26.408-.76.787-1.243.94-.287.092-1.007.127-1.415.069zm1.003-.168c.703-.15 1.21-.673 1.428-1.474.09-.332.092-1 .003-1.338-.103-.392-.341-.841-.551-1.038-.424-.396-.778-.51-1.511-.483-.268.01-.5.03-.516.046-.016.016-.029.978-.029 2.138v2.11l.21.043c.294.062.662.06.966-.004zm5.354.116c.007-.022.127-.072.265-.112l.25-.072.029-.709c.032-.818.003-4.087-.037-4.182-.043-.1-.112-.107-.289-.028-.296.133-.252-.012.074-.241.218-.153.545-.28.634-.245.049.018.057.356.061 2.44.003 1.331.016 2.549.03 2.706.02.247.033.288.1.3.21.034.362.09.362.132 0 .035-.189.047-.746.05-.51.001-.742-.011-.733-.039zm2.397.103a.71.71 0 0 1-.351-.329c-.1-.193-.11-.527-.022-.694a.94.94 0 0 1 .808-.478c.153 0 .504.073.651.135.069.029.072.015.051-.26a1.454 1.454 0 0 0-.063-.365c-.1-.189-.514-.21-.953-.048-.167.062-.315.102-.327.09-.117-.117.172-.331.64-.475.489-.151.923-.041 1.088.275.086.164.088.19.064.803-.014.348-.013.713.001.812.025.162.037.18.129.18a.552.552 0 0 0 .242-.096c.163-.11.183-.115.183-.041 0 .167-.411.454-.723.504-.2.032-.271-.025-.271-.22 0-.08-.01-.147-.022-.147-.012 0-.1.054-.197.12-.314.216-.71.316-.928.234zm.784-.351c.084-.04.2-.118.258-.173.095-.092.105-.127.105-.37v-.267l-.138-.058c-.345-.144-.7-.101-.874.105-.078.093-.097.157-.097.325 0 .23.042.342.167.443.109.088.385.086.579-.005z" style="opacity:1;fill:#000;stroke-width:.629031"/>
  <path d="M65.996 20.013c-.01-.027.017-.151.06-.277.095-.273.19-.865.19-1.186 0-.128.02-.251.046-.277.055-.055.39-.061.488-.009.133.072.12.158-.099.646-.464 1.039-.616 1.283-.685 1.103zm-21.052-.072c-.275-.275.037-.622.408-.453.096.044.11.037.234-.105.203-.234.401-.592.378-.684-.051-.2-.903-2.185-.948-2.208a1.739 1.739 0 0 0-.215-.069c-.095-.025-.159-.063-.15-.089.016-.05 1.244-.07 1.274-.02.024.037-.14.146-.22.146-.036 0-.075.016-.087.035-.012.02.091.325.23.68.139.353.288.736.33.85l.08.209.18-.464c.146-.375.272-.77.398-1.252.005-.021-.052-.056-.127-.078-.075-.022-.142-.065-.148-.097-.01-.05.064-.058.497-.056.425.001.507.01.507.059 0 .036-.062.072-.17.098-.137.033-.176.062-.204.153-.19.602-1.213 2.626-1.61 3.184-.207.291-.446.352-.637.161zm-1.557-1.302c-.259-.118-.275-.192-.275-1.22v-.878l-.22.019c-.121.01-.25.024-.287.032-.054.01-.067-.015-.067-.135 0-.14.006-.148.105-.133.058.01.187.026.287.037l.182.02v-1.413h.458v1.4l.44-.016.44-.017v.239h-.923l.012.793c.013.87.029.934.241 1.003a.568.568 0 0 0 .514-.13c.056-.054.132-.099.167-.099.11 0 .073.13-.078.277-.29.283-.672.367-.996.22zm-22.38-.013a1.072 1.072 0 0 1-.758-.817c-.112-.518.226-1.151.759-1.423.699-.357 1.54-.2 1.839.341.125.226.155.706.062.985-.135.407-.449.724-.863.87-.235.084-.812.108-1.04.044zm.974-.155c.162-.07.352-.273.432-.463.096-.23.116-.759.038-1.027-.074-.254-.272-.497-.478-.585-.211-.09-.566-.05-.794.09-.344.211-.45.475-.424 1.046.015.311.034.396.127.567.113.208.252.333.43.387.167.05.536.042.669-.015zm12.706.166a.587.587 0 0 1-.187-.102c-.162-.144-.181-.27-.181-1.155v-.84l-.24-.012c-.255-.012-.301-.068-.095-.118.068-.016.267-.073.44-.125.175-.053.333-.087.352-.075.02.012.025.405.012.929-.02.81-.015.921.043 1.034.13.25.562.314.94.137.36-.167.344-.124.344-.91 0-.381-.01-.73-.023-.777-.02-.074-.052-.085-.277-.095-.272-.012-.323-.067-.114-.12.07-.018.28-.074.467-.126.187-.05.35-.083.362-.071.011.011.016.492.01 1.068-.01 1.017-.008 1.05.07 1.127.043.044.12.08.172.08.12 0 .307.07.274.104-.014.014-.232.027-.483.028l-.458.001v-.165c0-.092-.013-.16-.028-.153-.016.007-.14.071-.277.143-.41.213-.82.284-1.123.193zm-11.25-.044c-.025-.04.11-.102.327-.149l.194-.041-.002-.79a11.192 11.192 0 0 0-.03-.943l-.026-.153-.239-.012c-.268-.013-.309-.063-.095-.118.575-.146.777-.195.812-.195.021 0 .039.09.039.205v.205l.315-.158c.48-.24.855-.308 1.113-.2.118.05.268.2.302.303.01.03.129-.007.356-.114.531-.248.867-.296 1.155-.165.26.118.276.19.276 1.238v.896l.226.07c.124.04.227.086.23.104.001.019-.315.039-.704.044-.58.008-.708 0-.708-.042 0-.03.048-.063.105-.076l.25-.06.146-.037-.011-.857-.012-.858-.1-.1c-.083-.083-.134-.1-.298-.098-.246.002-.559.09-.732.207l-.131.088-.011.744c-.006.41-.002.781.009.826.014.058.061.09.163.108.171.033.294.093.26.129-.015.014-.326.025-.692.025-.496 0-.666-.012-.666-.046 0-.025.073-.065.162-.088.09-.023.193-.051.23-.062.06-.017.067-.092.067-.855 0-.814-.003-.84-.087-.938-.107-.124-.294-.166-.544-.122-.253.045-.627.245-.652.349-.01.044-.015.414-.009.822l.01.743.23.06c.125.034.224.078.22.099-.01.043-1.421.055-1.448.012zm5.238 0c-.025-.04.11-.102.327-.149l.194-.041-.003-.79a11.192 11.192 0 0 0-.029-.943l-.027-.153-.238-.012c-.269-.013-.31-.063-.095-.118.574-.146.777-.195.811-.195.022 0 .04.09.04.205v.205l.315-.158c.479-.24.854-.308 1.113-.2.118.05.267.2.302.303.01.03.128-.007.356-.114.53-.248.867-.296 1.155-.165.26.118.276.19.276 1.238v.896l.226.07c.124.04.227.086.229.104.002.019-.315.039-.704.044-.58.008-.707 0-.707-.042 0-.03.047-.063.105-.076l.25-.06.146-.037-.012-.857-.011-.858-.1-.1c-.083-.083-.135-.1-.299-.098-.245.002-.558.09-.731.207l-.132.088-.01.744c-.007.41-.003.781.008.826.015.058.062.09.164.108.171.033.294.093.259.129-.014.014-.326.025-.692.025-.496 0-.666-.011-.666-.046 0-.025.074-.065.163-.088.09-.023.193-.051.23-.062.06-.017.066-.092.066-.855 0-.814-.002-.84-.086-.938-.108-.124-.295-.166-.545-.122-.252.045-.626.245-.652.349-.01.044-.014.414-.008.822l.01.743.23.06c.125.034.224.078.219.099-.01.043-1.42.055-1.447.012zm8.684.015c-.053-.053 0-.087.247-.16l.268-.08-.003-.735a11.453 11.453 0 0 0-.028-.906l-.026-.172-.261-.012c-.179-.007-.256-.025-.246-.056.018-.054.9-.307.972-.28.033.014.05.088.05.211v.19l.316-.15c.703-.334 1.12-.346 1.378-.04l.104.124v.756c0 .416.01.835.024.932l.024.176.202.042c.181.037.347.14.26.16-.017.005-.355.01-.75.01-.65.001-.716-.005-.716-.064 0-.064.146-.122.381-.152.134-.017.163-.217.141-.968-.018-.649-.049-.778-.206-.881-.193-.127-.68-.05-1.012.16l-.147.092.01.79.01.789.211.042c.24.048.316.086.296.148-.015.043-1.457.076-1.499.034zm3.508-.02c.012-.039.2-.109.42-.157l.104-.023v-.736c0-.404-.011-.825-.025-.936l-.024-.2h-.224c-.172 0-.224-.013-.224-.057 0-.031.039-.065.086-.075l.43-.1c.19-.045.362-.085.383-.088.024-.003.045.396.057 1.1l.02 1.106.203.046a.764.764 0 0 1 .246.09c.024.023.036.043.026.044l-.754.013c-.495.008-.733-.001-.724-.028zm.538-3.512c-.234-.113-.205-.465.047-.585a.303.303 0 0 1 .435.186c.055.167.028.265-.102.367a.355.355 0 0 1-.38.032z" style="fill:#070707;stroke-width:.629031"/>
  <path d="M45.918 15.198c-.293-.294.04-.664.435-.484.102.047.118.04.25-.112.217-.25.428-.631.403-.729-.055-.214-.963-2.33-1.01-2.354a1.854 1.854 0 0 0-.23-.073c-.102-.027-.17-.068-.16-.095.017-.053 1.327-.074 1.359-.022.024.04-.15.156-.235.156-.039 0-.08.017-.093.038-.013.02.097.346.245.723s.307.786.353.908l.084.222.193-.494c.155-.4.29-.822.424-1.336.006-.022-.055-.06-.136-.083-.08-.023-.151-.07-.158-.103-.01-.053.069-.061.53-.06.453.001.541.012.541.063 0 .038-.066.077-.18.105-.148.035-.189.065-.22.163-.202.641-1.293 2.8-1.715 3.394-.22.312-.476.376-.68.173zM34.415 13.85c-.032-.047-.496-1.149-1.03-2.45-.89-2.167-.979-2.366-1.075-2.387-.318-.071-.411-.105-.411-.15 0-.037.203-.048.825-.044.642.005.826.018.826.058 0 .056-.108.098-.359.14-.136.023-.152.037-.128.115.015.05.367.933.781 1.965.415 1.031.772 1.92.793 1.976.038.098.04.096.121-.082.172-.381.85-2.117.987-2.53.08-.237.207-.65.285-.917l.14-.485-.23-.045c-.282-.056-.38-.096-.362-.149.018-.055 1.496-.065 1.502-.01.002.022-.076.066-.173.097-.098.03-.204.069-.237.085-.055.026-.355.71-1.635 3.73-.266.628-.5 1.147-.522 1.154-.021.007-.065-.025-.098-.071zm2.335.01a.757.757 0 0 1-.375-.351c-.105-.207-.116-.563-.023-.741.158-.3.513-.51.861-.509.164 0 .537.078.695.144.073.03.076.016.054-.277-.013-.17-.043-.345-.067-.39-.108-.201-.548-.223-1.016-.05-.179.065-.336.108-.35.094-.123-.124.185-.352.683-.506.521-.16.985-.043 1.16.294.093.175.095.202.069.856-.015.371-.015.76.001.866.026.173.04.191.137.191.06 0 .176-.045.258-.102.174-.117.195-.122.195-.043 0 .178-.438.484-.77.537-.214.034-.29-.027-.29-.234 0-.086-.01-.158-.023-.158a1.34 1.34 0 0 0-.21.129c-.335.23-.757.337-.99.25zm.835-.375c.09-.042.214-.125.275-.185.102-.097.113-.135.113-.393v-.286l-.148-.061c-.367-.154-.746-.108-.931.112-.083.099-.104.166-.104.346 0 .245.045.365.178.473.116.094.41.09.617-.006zm6.224.344c-.887-.277-1.142-1.48-.47-2.223.45-.499 1.318-.541 1.772-.087.19.188.241.306.3.682l.026.167-.4.027c-.22.014-.672.026-1.005.026h-.604l.028.174c.068.414.325.773.654.91a.878.878 0 0 0 .667-.022c.086-.044.23-.163.319-.265.266-.302.36-.195.132.15-.287.433-.885.627-1.42.46zm.93-1.597.133-.026-.023-.221c-.039-.376-.302-.623-.663-.623-.339 0-.593.247-.692.672l-.052.224h.582c.32 0 .642-.011.715-.026zm-5.694 1.518c.008-.024.135-.078.282-.12l.268-.076.03-.756c.034-.873.003-4.358-.04-4.46-.046-.107-.119-.114-.308-.03-.316.142-.268-.012.08-.256.232-.164.58-.299.676-.262.05.02.06.38.064 2.602.003 1.419.017 2.717.031 2.885.022.263.037.307.107.32.224.037.387.096.387.14 0 .038-.202.05-.796.053-.543.002-.791-.01-.781-.04zm1.834 0c.008-.024.135-.078.282-.12l.268-.076.03-.756c.034-.873.003-4.358-.04-4.46-.045-.107-.118-.114-.308-.03-.315.142-.268-.012.08-.256.232-.164.58-.299.676-.262.051.02.06.38.065 2.602.003 1.419.017 2.717.03 2.885.022.263.037.307.107.32.224.037.387.096.387.14 0 .038-.201.05-.796.053-.543.002-.79-.01-.78-.04z" style="fill:#070707;stroke-width:.670691"/>
</svg>
