<?xml version="1.0" encoding="UTF-8" standalone="no"?>
<!-- Created with Inkscape (http://www.inkscape.org/) -->

<svg
   width="500"
   height="175"
   viewBox="0 0 132.29166 46.302084"
   version="1.1"
   id="svg1"
   xml:space="preserve"
   sodipodi:docname="delgo.svg"
   inkscape:version="1.4 (86a8ad7, 2024-10-11)"
   xmlns:inkscape="http://www.inkscape.org/namespaces/inkscape"
   xmlns:sodipodi="http://sodipodi.sourceforge.net/DTD/sodipodi-0.dtd"
   xmlns="http://www.w3.org/2000/svg"
   xmlns:svg="http://www.w3.org/2000/svg"><sodipodi:namedview
     id="namedview1"
     pagecolor="#ffffff"
     bordercolor="#111111"
     borderopacity="1"
     inkscape:showpageshadow="0"
     inkscape:pageopacity="0"
     inkscape:pagecheckerboard="1"
     inkscape:deskcolor="#d1d1d1"
     inkscape:document-units="px"
     showgrid="false"
     inkscape:zoom="1.1111933"
     inkscape:cx="139.48968"
     inkscape:cy="220.48369"
     inkscape:window-width="1920"
     inkscape:window-height="1115"
     inkscape:window-x="-9"
     inkscape:window-y="-9"
     inkscape:window-maximized="1"
     inkscape:current-layer="layer1" /><defs
     id="defs1" /><g
     inkscape:label="Layer 1"
     inkscape:groupmode="layer"
     id="layer1"
     transform="matrix(1.1966722,0,0,1.1966722,-14.070894,-74.307236)"><path
       id="path54"
       style="fill:#1a3f71;fill-opacity:1"
       d="m 16.819645,65.985977 -0.03256,0.258382 c -0.102393,0.816397 -0.223809,1.822547 -0.273369,2.267045 -0.03125,0.280312 -0.113277,0.981965 -0.182417,1.559078 -0.06914,0.577113 -0.164344,1.386633 -0.211874,1.798857 -0.04753,0.412224 -0.125516,1.073426 -0.173116,1.469161 -0.0476,0.395735 -0.155625,1.313122 -0.240295,2.038635 -0.08467,0.725514 -0.194693,1.642384 -0.243913,2.038118 -0.04922,0.395735 -0.143763,1.191772 -0.210323,1.768885 -0.06656,0.577114 -0.160079,1.373149 -0.207739,1.768884 -0.265999,2.208927 -0.402339,3.357638 -0.601514,5.066874 -0.09678,0.830554 -0.213916,1.816111 -0.350883,2.953308 -0.04274,0.354826 -0.06221,0.660745 -0.04341,0.679545 0.0188,0.0188 2.395124,0.02209 5.280814,0.0078 5.531817,-0.0275 5.647423,-0.03263 7.015593,-0.321945 4.835912,-1.022622 8.49456,-4.446779 9.792167,-9.164815 0.412909,-1.501316 0.546269,-2.505986 0.544669,-4.107242 -0.0014,-1.425491 -0.0997,-2.181963 -0.432014,-3.327963 -1.039235,-3.583809 -3.814039,-5.895418 -7.926132,-6.603731 -0.490785,-0.08453 -1.326359,-0.101697 -6.03684,-0.123507 z m 50.551436,0.0062 -3.289205,0.0155 -3.289722,0.0155 -0.04547,0.359668 c -0.02483,0.197868 -0.112864,0.93997 -0.195854,1.648995 -0.144403,1.233688 -0.291218,2.473671 -0.481624,4.062284 -0.08812,0.73522 -0.190596,1.591129 -0.3545,2.967778 -0.133383,1.120304 -0.317136,2.682729 -0.42168,3.582727 -0.05172,0.445202 -0.134955,1.146854 -0.184485,1.559078 -0.115909,0.964614 -0.229845,1.927555 -0.383956,3.237528 -0.06789,0.577113 -0.162753,1.37315 -0.210323,1.768884 -0.04757,0.395735 -0.14304,1.205255 -0.21239,1.798857 -0.06934,0.593602 -0.16498,1.370347 -0.21239,1.725993 -0.04741,0.355646 -0.08578,0.699474 -0.08578,0.764294 v 0.117822 h 8.684224 8.684225 l 0.06821,-0.614432 c 0.08883,-0.797027 0.346649,-2.993071 0.459404,-3.912423 0.04853,-0.395735 0.0958,-0.81372 0.104903,-0.929142 l 0.01654,-0.209807 -5.386235,-0.0155 -5.386751,-0.0155 0.03307,-0.224276 c 0.01826,-0.12349 0.07532,-0.588845 0.126607,-1.034046 0.05129,-0.445202 0.131887,-1.13337 0.179317,-1.529105 0.04743,-0.395735 0.128818,-1.083387 0.180868,-1.528589 0.05205,-0.445201 0.146753,-1.241238 0.210323,-1.768884 0.06357,-0.527646 0.157463,-1.323683 0.208773,-1.768884 0.05131,-0.445202 0.132864,-1.133371 0.181384,-1.529106 0.04852,-0.395735 0.142926,-1.191771 0.209806,-1.768884 0.06688,-0.577113 0.160953,-1.37315 0.208773,-1.768885 0.04782,-0.395735 0.12815,-1.069904 0.1788,-1.498616 0.05065,-0.428713 0.144506,-1.211266 0.208256,-1.738912 0.06376,-0.527646 0.13425,-1.141891 0.15658,-1.364775 z m -26.570471,0.001 -0.02997,0.19482 c -0.01643,0.107178 -0.07247,0.572871 -0.124541,1.034562 -0.128757,1.141558 -0.343417,2.955287 -0.603064,5.09633 -0.04799,0.395735 -0.155595,1.299638 -0.238745,2.008663 -0.08315,0.709024 -0.192052,1.639894 -0.242362,2.068607 -0.05031,0.428712 -0.143899,1.224749 -0.207739,1.768884 -0.06385,0.544135 -0.158364,1.340172 -0.210324,1.768885 -0.05196,0.428713 -0.132323,1.102881 -0.178283,1.498616 -0.04596,0.395735 -0.14011,1.191771 -0.20929,1.768884 -0.06918,0.577113 -0.163053,1.37315 -0.208773,1.768885 -0.09265,0.801893 -0.209612,1.781168 -0.414961,3.477824 -0.07583,0.62658 -0.126682,1.159177 -0.113172,1.183907 0.03035,0.05555 4.383599,0.05755 11.539347,0.0052 l 5.435844,-0.03979 0.03566,-0.244946 c 0.01948,-0.134741 0.07608,-0.595515 0.126091,-1.024227 0.05001,-0.428713 0.145946,-1.238232 0.212906,-1.798856 0.146072,-1.222914 0.292956,-2.501001 0.294556,-2.563151 6.43e-4,-0.02473 -2.340925,-0.04496 -5.203817,-0.04496 h -5.205367 l 0.101803,-0.824756 c 0.05619,-0.453446 0.149199,-1.24274 0.206189,-1.753898 0.05698,-0.511157 0.11302,-0.962853 0.12454,-1.004073 0.01651,-0.05907 0.93574,-0.07493 4.339787,-0.07493 3.706218,0 4.319116,-0.01216 4.319116,-0.08578 0,-0.04718 0.05155,-0.499393 0.114722,-1.004589 0.06317,-0.505197 0.159894,-1.309825 0.214974,-1.788005 0.05507,-0.478179 0.138351,-1.16509 0.185001,-1.526522 0.04664,-0.361433 0.08475,-0.705254 0.08475,-0.764294 V 74.98698 h -4.3217 -4.322217 l 0.03514,-0.164848 c 0.01921,-0.09069 0.05958,-0.407549 0.08992,-0.70435 0.08861,-0.866887 0.255363,-2.271904 0.279053,-2.353344 0.01722,-0.05919 1.080831,-0.07493 5.059122,-0.07493 h 5.037419 l 0.03049,-0.134876 c 0.01688,-0.0742 0.09817,-0.728662 0.180868,-1.454175 0.14144,-1.240798 0.241228,-2.081028 0.387573,-3.262333 0.03435,-0.277311 0.06253,-0.580687 0.06253,-0.674377 v -0.170532 h -8.331791 z m -18.051094,5.696293 1.452624,0.0015 c 0.799085,0.001 1.650489,0.02757 1.891874,0.05891 1.338307,0.173778 2.426989,0.83342 3.092835,1.874304 0.878912,1.373961 1.039829,3.51845 0.424263,5.651852 -0.364281,1.26251 -0.952274,2.267228 -1.807125,3.088183 -0.784795,0.753676 -1.722241,1.253471 -2.739884,1.460893 -0.364307,0.07425 -0.843422,0.09612 -2.113566,0.09612 H 21.30826 v -0.116789 c 0,-0.109929 0.118927,-1.155516 0.331763,-2.91145 0.05196,-0.428713 0.132323,-1.103399 0.178283,-1.499133 0.04596,-0.395735 0.138186,-1.177771 0.205156,-1.738395 0.303816,-2.54353 0.498115,-4.194005 0.606681,-5.156791 0.03347,-0.296801 0.07383,-0.600178 0.08992,-0.674378 z m 83.874464,20.752773 c -0.19641,0.0046 -0.38664,0.02954 -0.55345,0.07803 -0.39063,0.113559 -0.79131,0.43584 -0.91778,0.73794 -0.12316,0.29414 -0.10329,0.8486 0.0388,1.08159 0.20067,0.32912 0.36472,0.4032 1.76888,0.7953 0.60621,0.16928 0.78371,0.27239 0.90434,0.52658 0.13029,0.27458 0.0671,0.58419 -0.16329,0.79944 -0.22278,0.20815 -0.45257,0.25332 -1.11828,0.21962 -0.54249,-0.0275 -0.83429,-0.13088 -1.25264,-0.44442 l -0.19069,-0.14314 -0.13022,0.18293 -0.13022,0.18346 0.1111,0.12299 c 0.14058,0.15545 0.49637,0.33972 0.92087,0.47697 0.43544,0.1408 1.25987,0.1471 1.67535,0.0129 0.60471,-0.1953 0.97229,-0.76095 0.87799,-1.35082 -0.0953,-0.59603 -0.4314,-0.83212 -1.64797,-1.15601 -0.43573,-0.11601 -0.84358,-0.2379 -0.90588,-0.2713 -0.43305,-0.23175 -0.39343,-1.01633 0.0636,-1.260903 0.50901,-0.272414 1.45927,-0.144195 1.89704,0.255803 l 0.13178,0.1204 0.12143,-0.200503 0.12144,-0.199988 -0.12402,-0.131775 c -0.26116,-0.277989 -0.90888,-0.448878 -1.4981,-0.435115 z m -83.577325,0.02325 c -0.533801,0 -0.592826,0.01258 -0.944128,0.203089 -1.458723,0.791051 -1.692625,2.831251 -0.454236,3.963071 0.176089,0.16093 0.461682,0.34691 0.634586,0.41341 0.434366,0.16695 1.068427,0.16712 1.503784,5.2e-4 0.958972,-0.36698 1.567028,-1.47845 1.415935,-2.58796 -0.102591,-0.75335 -0.635773,-1.517041 -1.286227,-1.842268 -0.25667,-0.128339 -0.382041,-0.149862 -0.869714,-0.149862 z m -6.655408,0.0021 c -0.670389,0 -0.883188,0.06712 -1.35909,0.429432 -0.459122,0.349538 -0.859379,1.206538 -0.859379,1.839678 0,0.98202 0.639295,1.99494 1.457276,2.30942 0.841507,0.32351 1.944018,0.0219 2.444295,-0.66869 0.194097,-0.26794 0.187774,-0.30435 -0.0801,-0.44287 -0.146344,-0.0757 -0.19417,-0.08 -0.21394,-0.0207 -0.06168,0.18503 -0.456249,0.53577 -0.740007,0.65784 -0.449062,0.19318 -1.055243,0.15745 -1.42937,-0.0837 -0.579222,-0.37336 -0.894703,-0.97034 -0.897103,-1.69706 -0.0018,-0.54081 0.155465,-0.98535 0.478524,-1.35237 0.391699,-0.444992 0.909187,-0.614717 1.508435,-0.49506 0.310924,0.06209 0.827291,0.33337 0.831991,0.43718 0.0011,0.0243 0.05353,0.106 0.116788,0.1819 l 0.115239,0.13798 0.182418,-0.0946 c 0.210919,-0.10907 0.21009,-0.10575 0.09819,-0.31936 -0.119316,-0.227715 -0.437508,-0.514145 -0.75448,-0.679005 -0.232834,-0.121095 -0.356408,-0.140044 -0.899687,-0.140044 z m 11.872144,0.02119 v 2.30167 c 0,1.26596 0.01934,2.32096 0.04289,2.34456 0.02356,0.024 0.138164,0.0353 0.254765,0.0253 l 0.211873,-0.0181 0.01602,-1.82883 0.01602,-1.82883 0.139526,0.23978 c 0.07671,0.13191 0.446818,0.77289 0.822172,1.4242 0.561764,0.97477 0.705557,1.18443 0.814421,1.18443 0.166335,0 0.200723,-0.0511 1.074353,-1.5875 l 0.715202,-1.25729 0.01602,1.84227 0.0155,1.84174 h 0.239262 0.238745 v -2.33835 -2.338362 H 32.623845 32.36753 l -0.861446,1.500682 c -0.473823,0.8254 -0.881094,1.51286 -0.904854,1.52756 -0.02376,0.0147 -0.43092,-0.65386 -0.905372,-1.4857 l -0.862996,-1.51257 -0.284737,-0.01809 z m 7.974707,0 v 2.34197 2.34146 h 0.238745 0.239262 l 0.0155,-1.8588 0.01602,-1.85828 0.817521,1.42368 c 0.759758,1.32378 0.828739,1.42421 0.984436,1.42421 0.155552,0 0.2237,-0.0977 0.95188,-1.36891 l 0.783932,-1.36839 0.02997,1.788 0.02997,1.78852 0.254765,0.0186 0.254765,0.0181 v -2.34146 -2.341972 h -0.264066 -0.26355 l -0.764811,1.334282 c -0.420607,0.73376 -0.821582,1.43206 -0.890902,1.55185 l -0.126091,0.21755 -0.878499,-1.53685 -0.878499,-1.53686 -0.275436,-0.01809 z m 56.991869,0.0036 -0.235644,0.01654 -0.235645,0.01654 -0.16123,0.390157 c -0.0889,0.214357 -0.515877,1.236693 -0.94878,2.272213 -0.432904,1.03552 -0.787032,1.90573 -0.787032,1.93373 0,0.028 0.116193,0.0512 0.258382,0.0512 h 0.258383 l 0.276985,-0.70487 0.276469,-0.70435 h 1.060401 1.059883 l 0.281637,0.68937 0.281119,0.68988 0.251665,0.0181 c 0.15855,0.0116 0.252181,-0.007 0.252181,-0.0496 0,-0.0374 -0.09352,-0.28857 -0.20774,-0.55811 -0.114221,-0.26954 -0.452363,-1.08368 -0.751375,-1.80919 -0.299013,-0.72552 -0.630738,-1.528463 -0.736906,-1.784905 z m -49.077107,0.0031 v 1.46244 c 0,1.29045 0.01368,1.50844 0.118856,1.84898 0.205187,0.66432 0.523798,1.0365 1.068668,1.24954 0.192026,0.0751 0.444681,0.11117 0.796334,0.11317 0.457615,0.002 0.556115,-0.018 0.882117,-0.18087 0.422667,-0.21121 0.631957,-0.43406 0.833541,-0.88832 0.197012,-0.44395 0.253598,-0.97445 0.255798,-2.39106 l 0.0021,-1.21388 H 47.84049 47.570222 v 1.31103 c 0,0.72101 -0.0274,1.45585 -0.06098,1.63349 -0.09102,0.48149 -0.29109,0.83602 -0.588594,1.04231 -0.243182,0.16858 -0.295874,0.18035 -0.813904,0.18035 -0.5024,0 -0.576802,-0.0153 -0.800468,-0.16329 -0.181336,-0.12001 -0.298986,-0.27056 -0.444934,-0.56948 l -0.198438,-0.40669 -0.02067,-1.5136 -0.02067,-1.51412 H 44.38747 Z m 7.19491,0 v 2.34197 2.34198 l 0.254764,-0.0186 0.255282,-0.0186 0.0155,-1.85208 0.01602,-1.8526 0.395841,0.50333 c 0.217695,0.27683 0.882491,1.11875 1.477429,1.87068 l 1.081588,1.36684 0.215491,-0.0181 0.21549,-0.0181 0.01602,-2.32337 0.0155,-2.32337 H 55.03695 54.767199 l -0.0155,1.86293 -0.01602,1.86294 -0.626318,-0.7984 c -0.344563,-0.43933 -1.001476,-1.27811 -1.459859,-1.86346 l -0.833541,-1.06401 h -0.234094 z m 7.255371,0 v 2.29856 c 0,1.26415 0.0178,2.31636 0.03979,2.33836 0.02199,0.022 0.143336,0.0398 0.269751,0.0398 h 0.22996 v -2.33835 -2.33836 h -0.26975 z m 3.417362,0 v 0.209806 0.209806 h 0.80977 0.809253 v 2.088758 c 0,1.14873 0.01832,2.10655 0.04031,2.12855 0.02199,0.022 0.143336,0.0398 0.269751,0.0398 h 0.22996 v -2.127 -2.12648 l 0.824239,-0.01705 0.824239,-0.01654 0.01912,-0.19482 0.0186,-0.19482 h -1.922363 z m 9.728605,0 -0.734322,1.20147 c -0.403911,0.66094 -0.751416,1.18529 -0.772046,1.16479 -0.02063,-0.0205 -0.351583,-0.55479 -0.735356,-1.18701 l -0.697631,-1.149278 -0.276469,-0.01809 c -0.152118,-0.01006 -0.276469,-0.0038 -0.276469,0.01395 0,0.01778 0.391018,0.669152 0.869197,1.447978 l 0.869198,1.41645 v 0.89659 0.89658 l 0.254765,-0.0181 0.255281,-0.0186 0.02997,-0.89917 0.02997,-0.89969 0.605131,-0.98908 c 0.333015,-0.54413 0.704808,-1.144583 0.826306,-1.334291 0.333056,-0.519994 0.333441,-0.524515 0.02119,-0.524515 z m 6.460587,0 v 0.209806 0.209806 h 0.80977 0.809253 v 2.132168 2.13165 l 0.254765,-0.0181 0.254765,-0.0186 0.01602,-2.11356 0.0155,-2.113568 h 0.808736 0.808737 v -0.209806 -0.209806 h -1.888774 z m 6.655925,0 v 2.34197 2.34146 l 0.254765,-0.0181 0.254764,-0.0186 0.01654,-0.85421 0.01654,-0.85473 h 0.646989 0.646989 l 0.541569,0.85473 0.541569,0.85421 0.279053,0.0186 c 0.153398,0.01 0.278561,-0.004 0.278536,-0.0305 -2.5e-5,-0.0265 -0.241559,-0.4256 -0.536918,-0.88729 -0.576897,-0.90177 -0.567708,-0.85093 -0.196371,-1.05626 0.391746,-0.21662 0.72142,-0.95808 0.63562,-1.43041 -0.09112,-0.50164 -0.502993,-1.05311 -0.898653,-1.20354 -0.08287,-0.0315 -0.67476,-0.05736 -1.315682,-0.05736 z m 13.130981,0 v 2.33836 2.33887 h 0.239779 0.239778 v -1.87069 c 0,-1.49605 0.01499,-1.8564 0.07493,-1.7973 0.04122,0.0407 0.709687,0.87621 1.485182,1.85621 l 1.40973,1.78181 0.22376,0.0186 0.22428,0.0186 v -2.3425 -2.34197 h -0.23926 -0.23875 l -0.016,1.86913 -0.0155,1.86914 -0.66146,-0.83457 c -0.36372,-0.45912 -1.024915,-1.30039 -1.469162,-1.86914 l -0.807703,-1.034044 h -0.224792 z m 13.431219,0 v 2.29856 c 0,1.26415 0.0178,2.31636 0.0398,2.33836 0.022,0.022 0.14333,0.0403 0.26975,0.0403 h 0.22996 v -2.33887 -2.33836 h -0.26975 z m 3.41736,0 v 0.209806 0.210323 h 0.83975 0.83922 v 2.128551 2.12855 h 0.23978 0.23978 v -2.12855 -2.128551 h 0.83974 0.83923 v -0.210323 -0.209806 h -1.91875 z m -29.440058,0.420129 0.794267,5.17e-4 c 0.710098,8.81e-4 0.820193,0.01547 1.034562,0.135392 0.282117,0.157821 0.509529,0.555572 0.509529,0.890902 0,0.33342 -0.202732,0.75079 -0.432531,0.8909 -0.173006,0.10548 -0.30217,0.1202 -1.051616,0.1204 l -0.854211,5.2e-4 v -1.01957 z m -62.348132,0.0052 c 0.407641,-0.0041 0.707294,0.121199 1.036629,0.422201 0.450204,0.41146 0.59703,0.76942 0.59893,1.46089 0.0012,0.45707 -0.02273,0.59063 -0.154512,0.87333 -0.181335,0.38899 -0.521655,0.74574 -0.861446,0.90228 -0.154169,0.071 -0.380444,0.11077 -0.633037,0.11162 -0.673422,0.002 -1.173823,-0.33492 -1.507918,-1.01596 -0.110535,-0.22532 -0.133838,-0.37394 -0.134359,-0.87127 -5.62e-4,-0.53703 0.01639,-0.63245 0.162781,-0.9126 0.315247,-0.60328 0.731766,-0.908143 1.311031,-0.960673 0.06305,-0.0057 0.123667,-0.0092 0.181901,-0.0098 z m 69.95852,0.275952 c 0.0016,-5.24e-4 0.0032,-1.2e-4 0.0041,0.001 0.03199,0.03766 0.319826,0.751979 0.823206,2.041219 0.0226,0.0579 -0.171331,0.0749 -0.851628,0.0749 -0.484456,0 -0.871403,-0.0232 -0.860413,-0.0512 0.485444,-1.23411 0.834817,-2.049792 0.884701,-2.066022 z" /><path
       id="path51"
       style="fill:#4cbb17;fill-opacity:1"
       d="m 91.575288,65.705891 c -0.272947,-0.0061 -0.57251,-0.0044 -0.917774,0.0036 -1.226801,0.02843 -1.780009,0.09333 -2.7342,0.319877 -3.974887,0.943741 -7.606306,3.630914 -9.754443,7.218681 -1.8982,3.170328 -2.425688,6.858632 -1.419551,9.923425 0.463417,1.411614 1.202086,2.599746 2.295467,3.690214 1.11495,1.111977 2.276975,1.831372 3.752225,2.323372 2.372375,0.791193 5.254991,0.736357 7.884273,-0.149344 1.994177,-0.671758 4.053392,-1.880806 5.528862,-3.246831 0.19099,-0.176821 0.347266,-0.290617 0.347266,-0.252697 0,0.03792 -0.03793,0.263562 -0.08475,0.501261 -0.230198,1.168806 -0.903773,4.670892 -0.970483,5.04672 l -0.04186,0.237712 0.167948,-0.110071 c 0.143118,-0.09377 1.280872,-0.895589 4.242119,-2.988965 0.321543,-0.2273 0.584463,-0.427601 0.584463,-0.445451 0,-0.04236 0.29377,-1.5797 0.93121,-4.875671 0.28381,-1.467516 0.64747,-3.356224 0.80822,-4.19716 0.16074,-0.840936 0.32353,-1.67254 0.36173,-1.847949 0.0386,-0.17541 0.0508,-0.337208 0.0284,-0.359668 -0.0224,-0.02246 -2.734175,-0.04918 -6.025986,-0.05943 l -5.985164,-0.0186 -1.564763,2.071708 c -0.860667,1.139339 -1.564762,2.098789 -1.564762,2.132169 0,0.03987 0.807254,0.06125 2.353345,0.06305 l 2.353344,0.0031 -0.329695,0.301791 c -0.722442,0.661421 -1.631868,1.1714 -2.621029,1.469677 -0.459389,0.138524 -0.637977,0.159631 -1.396297,0.164331 -0.988229,0.0061 -1.379371,-0.07151 -2.068608,-0.409794 -0.995311,-0.488514 -1.747972,-1.407053 -2.045353,-2.495971 -0.149894,-0.548746 -0.149047,-1.623758 0.0016,-2.212268 0.424404,-1.658493 1.423593,-2.967484 2.978629,-3.902088 2.307754,-1.387 5.153283,-1.008236 6.417696,0.853695 0.13301,0.195866 0.263168,0.347597 0.289388,0.337447 0.02622,-0.01015 0.497986,-0.584905 1.048515,-1.277441 4.02219,-5.059692 3.94488,-4.959176 3.86178,-5.037936 -1.254424,-1.188871 -2.779564,-2.024787 -4.475179,-2.453597 -0.840244,-0.212489 -1.417716,-0.302674 -2.236556,-0.32091 z m 18.650542,0.03152 c -3.55144,-0.105605 -7.22887,1.307142 -10.20661,3.998206 -1.354886,1.22444 -2.443869,2.62979 -3.347603,4.321183 l -0.298689,0.559656 3.915002,0.02481 c 3.49235,0.02225 3.92836,0.01493 4.04317,-0.06925 0.0708,-0.0519 0.28111,-0.218392 0.46715,-0.369486 0.66163,-0.537359 1.55928,-0.99492 2.40916,-1.228349 0.55417,-0.15221 1.76773,-0.182512 2.33887,-0.05839 1.01046,0.219588 1.92081,0.812514 2.45567,1.598869 0.38709,0.569117 0.5547,1.004301 0.66507,1.730644 0.14021,0.922674 -0.0556,2.006206 -0.5364,2.968811 -1.07805,2.158519 -3.51351,3.633914 -5.7614,3.489709 -1.05803,-0.06787 -1.92837,-0.416254 -2.63085,-1.053165 -0.0904,-0.08191 -0.17575,-0.137597 -0.18965,-0.123507 -0.0244,0.02482 -0.39917,1.924253 -0.96377,4.882389 -0.15106,0.79147 -0.32654,1.695373 -0.38964,2.008663 -0.0631,0.313289 -0.12271,0.650378 -0.13281,0.749308 l -0.0186,0.179834 0.41961,0.108004 c 0.23085,0.05924 0.74374,0.159386 1.13947,0.222726 0.88229,0.141208 2.76799,0.129734 3.70468,-0.02274 7.0165,-1.142133 12.70357,-7.433078 12.71757,-14.068392 0.002,-1.020306 -0.0765,-1.696071 -0.30334,-2.608109 -0.85746,-3.447189 -3.55418,-6.088612 -7.06779,-6.923092 -0.79603,-0.189057 -1.60871,-0.293956 -2.42827,-0.318327 z" /></g></svg>
