<svg xmlns="http://www.w3.org/2000/svg" xml:space="preserve" viewBox="0 0 132.292 46.302">
  <path d="m16.82 65.986-.033.258a215.83 215.83 0 0 0-.273 2.267c-.032.28-.114.982-.183 1.56l-.212 1.798a364.87 364.87 0 0 1-.173 1.47l-.24 2.038a346.99 346.99 0 0 1-.244 2.038c-.05.396-.144 1.192-.21 1.77-.067.576-.16 1.372-.208 1.768-.266 2.209-.402 3.358-.601 5.067-.097.83-.214 1.816-.351 2.953-.043.355-.063.66-.044.68.019.019 2.395.022 5.281.008 5.532-.028 5.647-.033 7.016-.322 4.836-1.023 8.494-4.447 9.792-9.165.413-1.502.546-2.506.544-4.107 0-1.426-.1-2.182-.432-3.328-1.039-3.584-3.814-5.896-7.926-6.604-.49-.085-1.326-.102-6.037-.124zm50.551.006-3.29.016-3.289.015-.045.36c-.025.198-.113.94-.196 1.649a1425.63 1425.63 0 0 1-.482 4.062l-.354 2.968c-.134 1.12-.317 2.683-.422 3.583a483.05 483.05 0 0 1-.184 1.559c-.116.964-.23 1.927-.384 3.237l-.21 1.77c-.048.395-.144 1.204-.213 1.798-.07.594-.165 1.37-.213 1.726-.047.356-.085.7-.085.764v.118h17.368l.068-.614c.09-.797.347-2.993.46-3.913.048-.396.096-.813.105-.929l.016-.21-5.386-.015-5.387-.016.033-.224c.019-.123.076-.589.127-1.034.051-.445.132-1.133.18-1.53l.18-1.528.21-1.769c.064-.527.158-1.323.21-1.769.05-.445.132-1.133.18-1.529.05-.395.143-1.191.21-1.768a451 451 0 0 1 .21-1.77l.178-1.498c.05-.429.144-1.211.208-1.739s.134-1.142.157-1.365zm-26.57.001-.03.195c-.017.107-.073.573-.125 1.035a685.39 685.39 0 0 1-.603 5.096c-.048.396-.156 1.3-.239 2.009l-.242 2.068-.208 1.769c-.064.544-.158 1.34-.21 1.769a368.05 368.05 0 0 0-.178 1.499c-.046.395-.14 1.191-.21 1.768-.069.578-.163 1.374-.208 1.77-.093.801-.21 1.78-.415 3.477-.076.627-.127 1.16-.114 1.184.03.056 4.384.058 11.54.005l5.436-.04.035-.244c.02-.135.076-.596.126-1.025l.213-1.799c.146-1.222.293-2.5.295-2.563 0-.024-2.341-.045-5.204-.045h-5.205l.101-.824c.057-.454.15-1.243.207-1.754.057-.511.113-.963.124-1.004.017-.06.936-.075 4.34-.075 3.706 0 4.319-.013 4.319-.086 0-.047.052-.5.115-1.005.063-.505.16-1.31.215-1.788.055-.478.138-1.165.185-1.526.046-.362.084-.705.084-.765v-.107h-8.643l.035-.165c.019-.09.06-.407.09-.704.088-.867.255-2.272.279-2.354.017-.059 1.08-.074 5.059-.074h5.037l.03-.135c.018-.075.099-.729.182-1.455.141-1.24.24-2.08.387-3.262.035-.277.063-.58.063-.674v-.17h-8.332zM22.75 71.69l1.452.002c.8.001 1.65.028 1.892.059 1.338.174 2.427.833 3.093 1.874.879 1.374 1.04 3.519.424 5.652-.364 1.263-.952 2.267-1.807 3.088a5.543 5.543 0 0 1-2.74 1.461c-.364.074-.843.096-2.113.096h-1.643v-.117c0-.11.12-1.155.332-2.911.052-.429.132-1.103.178-1.5l.205-1.738c.304-2.543.499-4.194.607-5.156.034-.297.074-.6.09-.675zm83.874 20.753c-.196.005-.387.03-.553.078-.391.114-.792.436-.918.738-.123.294-.104.849.039 1.082.2.329.364.403 1.768.795.607.17.784.272.905.527a.676.676 0 0 1-.164.8c-.222.207-.452.252-1.118.219-.542-.028-.834-.131-1.252-.445l-.191-.143-.13.183-.13.184.11.123c.141.155.497.34.921.477.436.14 1.26.147 1.676.012.604-.195.972-.76.878-1.35-.096-.596-.432-.833-1.648-1.156-.436-.116-.844-.238-.906-.272-.433-.231-.394-1.016.063-1.26.51-.273 1.46-.145 1.898.255l.131.12.122-.2.121-.2-.124-.132c-.261-.278-.909-.449-1.498-.435zm-83.577.023c-.534 0-.593.013-.944.204-1.46.79-1.693 2.83-.455 3.963.176.16.462.347.635.413.434.167 1.068.167 1.504 0 .959-.366 1.567-1.478 1.416-2.587-.103-.754-.636-1.517-1.287-1.843-.256-.128-.382-.15-.87-.15zm-6.656.003c-.67 0-.883.067-1.359.429-.459.35-.86 1.207-.86 1.84 0 .982.64 1.995 1.458 2.31.842.323 1.944.021 2.444-.67.194-.268.188-.304-.08-.442-.146-.076-.194-.08-.214-.021-.061.185-.456.536-.74.658-.449.193-1.055.157-1.43-.084-.578-.373-.894-.97-.896-1.697-.002-.54.155-.985.478-1.352.392-.445.91-.615 1.509-.495.31.062.827.333.832.437a.597.597 0 0 0 .117.182l.115.138.182-.095c.211-.11.21-.106.098-.32-.119-.227-.437-.514-.754-.678-.233-.121-.356-.14-.9-.14zm11.872.02v2.302c0 1.266.02 2.321.043 2.345.024.024.138.035.255.025l.212-.018.016-1.829.016-1.828.14.24.822 1.424c.561.974.705 1.184.814 1.184.166 0 .2-.051 1.074-1.588l.716-1.257.016 1.842.015 1.842h.478v-4.677h-.512l-.862 1.501c-.474.826-.881 1.513-.905 1.528-.024.014-.43-.654-.905-1.486l-.863-1.513-.285-.018zm7.975 0v4.684h.479l.015-1.859.016-1.858.817 1.424c.76 1.324.829 1.424.985 1.424.155 0 .223-.098.951-1.369l.784-1.368.03 1.788.03 1.788.255.019.255.018v-4.683h-.528l-.765 1.334-.89 1.552-.127.217-.878-1.537-.879-1.537-.275-.018zm56.992.004-.236.017-.235.016-.162.39c-.088.215-.515 1.237-.948 2.273-.433 1.035-.787 1.906-.787 1.934 0 .028.116.05.258.05h.258l.277-.704.277-.704h2.12l.282.689.28.69.253.018c.158.011.252-.007.252-.05 0-.037-.094-.288-.208-.558-.114-.27-.452-1.083-.751-1.809l-.737-1.785zm-49.077.003v1.463c0 1.29.014 1.508.119 1.849.205.664.524 1.036 1.068 1.25.192.075.445.11.797.113.457.002.556-.018.882-.181.423-.211.632-.434.833-.889.197-.444.254-.974.256-2.39l.002-1.215h-.54v1.312c0 .72-.027 1.455-.06 1.633-.092.481-.292.836-.59 1.042-.243.169-.295.18-.813.18-.503 0-.577-.015-.8-.163-.182-.12-.3-.27-.446-.57l-.198-.406-.02-1.513-.021-1.515h-.235Zm7.195 0v4.684l.255-.018.255-.019.015-1.852.016-1.852.396.503c.218.277.883 1.119 1.478 1.87l1.081 1.367.216-.018.215-.018.016-2.323.016-2.324h-.54l-.015 1.863-.016 1.863-.627-.798-1.46-1.864-.833-1.064h-.234zm7.255 0v2.299c0 1.264.018 2.316.04 2.338.022.022.143.04.27.04h.23v-4.677h-.27zm3.418 0v.42H63.64v2.089c0 1.149.018 2.106.04 2.128.022.022.143.04.27.04h.23V92.92l.824-.017.824-.017.02-.195.018-.195h-1.923zm9.728 0-.734 1.202c-.404.66-.752 1.185-.772 1.165-.02-.02-.352-.555-.736-1.187l-.697-1.15-.277-.018c-.152-.01-.276-.003-.276.014 0 .018.39.67.869 1.448l.87 1.417V97.179l.254-.018.255-.019.03-.899.03-.9.605-.989c.333-.544.705-1.144.827-1.334.333-.52.333-.525.02-.525zm6.46 0v.42h1.62v4.264l.254-.018.255-.019.016-2.113.016-2.114h1.617v-.42h-1.889zm6.657 0v4.684l.254-.018.255-.019.017-.854.016-.855h1.294l.542.855.541.854.28.019c.153.01.278-.004.278-.03 0-.027-.242-.426-.537-.888-.577-.902-.568-.85-.196-1.056.391-.217.721-.958.635-1.43-.09-.502-.503-1.054-.898-1.204-.083-.032-.675-.058-1.316-.058zm13.13 0v4.678h.48v-1.871c0-1.496.015-1.856.075-1.797.041.04.71.876 1.485 1.856l1.41 1.782.224.018.224.019V92.495h-.478l-.016 1.87-.015 1.869-.662-.835c-.364-.459-1.025-1.3-1.47-1.869l-.807-1.034h-.225zm13.432 0v2.299c0 1.264.018 2.316.04 2.338.022.022.143.04.27.04h.23v-4.677h-.27zm3.417 0v.42h1.68v4.258h.479v-4.257H118.683v-.42h-1.92zm-29.44.42.794.001c.71.001.82.016 1.035.136.282.157.51.555.51.89 0 .334-.203.751-.433.891-.173.106-.302.12-1.052.12l-.854.001v-1.02zm-62.348.006c.408-.004.707.121 1.037.422.45.411.597.77.599 1.46 0 .458-.023.592-.155.874-.181.39-.522.746-.861.903-.155.07-.38.11-.633.111-.674.002-1.174-.335-1.508-1.016-.11-.225-.134-.374-.135-.871 0-.537.017-.633.163-.913.315-.603.732-.908 1.311-.96.063-.006.124-.01.182-.01zm69.959.276h.004c.032.038.32.753.823 2.042.022.058-.172.075-.852.075-.484 0-.871-.023-.86-.051.485-1.234.835-2.05.884-2.066z" style="fill:#1a3f71;fill-opacity:1" transform="translate(-14.07 -74.307) scale(1.19667)"/>
  <path d="M91.575 65.706a20.254 20.254 0 0 0-.917.003c-1.227.029-1.78.094-2.735.32-3.975.944-7.606 3.631-9.754 7.219-1.898 3.17-2.426 6.859-1.42 9.923.464 1.412 1.202 2.6 2.296 3.69 1.115 1.113 2.277 1.832 3.752 2.324 2.372.791 5.255.736 7.884-.15 1.994-.671 4.054-1.88 5.53-3.246.19-.177.346-.29.346-.253 0 .038-.038.264-.084.501-.23 1.17-.904 4.671-.97 5.047l-.043.238.168-.11c.143-.094 1.281-.896 4.242-2.99.322-.226.585-.427.585-.445 0-.042.294-1.58.931-4.875.284-1.468.648-3.357.808-4.197.161-.841.324-1.673.362-1.848.039-.176.05-.338.028-.36-.022-.023-2.734-.05-6.026-.06l-5.985-.018-1.565 2.072c-.86 1.139-1.564 2.098-1.564 2.132 0 .04.807.061 2.353.063l2.353.003-.33.302a6.813 6.813 0 0 1-2.62 1.47c-.46.138-.638.159-1.397.164-.988.006-1.379-.072-2.068-.41a3.944 3.944 0 0 1-2.046-2.496c-.15-.549-.149-1.624.002-2.212.424-1.659 1.424-2.968 2.979-3.902 2.307-1.387 5.153-1.009 6.417.853.133.196.264.348.29.338.026-.01.498-.585 1.048-1.278 4.022-5.06 3.945-4.959 3.862-5.038a10.047 10.047 0 0 0-4.475-2.453c-.84-.213-1.418-.303-2.237-.321zm18.65.031c-3.55-.105-7.228 1.308-10.206 3.999-1.355 1.224-2.444 2.63-3.347 4.32l-.3.56 3.916.025c3.492.023 3.928.015 4.043-.069.07-.052.281-.218.467-.37a6.908 6.908 0 0 1 2.41-1.228c.554-.152 1.767-.182 2.338-.058 1.01.22 1.921.812 2.456 1.599.387.569.555 1.004.665 1.73.14.923-.056 2.007-.536 2.97-1.078 2.158-3.514 3.633-5.762 3.489-1.058-.068-1.928-.416-2.63-1.053-.091-.082-.176-.138-.19-.124-.025.025-.4 1.924-.964 4.883-.151.791-.327 1.695-.39 2.008-.063.313-.122.65-.132.75l-.02.18.42.107c.231.06.744.16 1.14.223.882.141 2.768.13 3.705-.023 7.016-1.142 12.703-7.433 12.717-14.068.002-1.02-.076-1.696-.303-2.608-.858-3.447-3.554-6.089-7.068-6.923a12.05 12.05 0 0 0-2.428-.319z" style="fill:#4cbb17;fill-opacity:1" transform="translate(-14.07 -74.307) scale(1.19667)"/>
</svg>
