<?xml version="1.0" encoding="UTF-8" standalone="no"?>
<!-- Created with Inkscape (http://www.inkscape.org/) -->

<svg
   width="500"
   height="250"
   viewBox="0 0 132.29166 66.145835"
   version="1.1"
   id="svg1"
   xml:space="preserve"
   inkscape:version="1.4 (86a8ad7, 2024-10-11)"
   sodipodi:docname="dominatetoday.svg"
   xmlns:inkscape="http://www.inkscape.org/namespaces/inkscape"
   xmlns:sodipodi="http://sodipodi.sourceforge.net/DTD/sodipodi-0.dtd"
   xmlns="http://www.w3.org/2000/svg"
   xmlns:svg="http://www.w3.org/2000/svg"><sodipodi:namedview
     id="namedview1"
     pagecolor="#ffffff"
     bordercolor="#111111"
     borderopacity="1"
     inkscape:showpageshadow="0"
     inkscape:pageopacity="0"
     inkscape:pagecheckerboard="1"
     inkscape:deskcolor="#d1d1d1"
     inkscape:document-units="px"
     showgrid="false"
     inkscape:zoom="1.1111933"
     inkscape:cx="222.28356"
     inkscape:cy="363.5731"
     inkscape:window-width="1920"
     inkscape:window-height="1115"
     inkscape:window-x="-9"
     inkscape:window-y="-9"
     inkscape:window-maximized="1"
     inkscape:current-layer="layer1" /><defs
     id="defs1" /><g
     inkscape:label="Layer 1"
     inkscape:groupmode="layer"
     id="layer1"><path
       id="path31"
       style="fill:#000000;stroke-width:1.706"
       d="m 130.13688,3.4726672 c -0.0447,0.01518 -0.0979,0.146522 -0.15956,0.392312 -0.0528,0.210284 -0.20768,0.434488 -0.34383,0.498105 -0.13609,0.06362 -3.0398,0.0784 -6.45244,0.03262 -3.41265,-0.04571 -6.22567,-0.07346 -6.25143,-0.06083 -0.0258,0.01263 0.0931,0.284951 0.26448,0.604777 l 0.31209,0.581857 v 11.1592998 11.16018 l -0.37821,0.24773 c -0.50778,0.332707 -0.47635,0.603048 0.0926,0.801376 1.34913,0.47031 11.92338,4.943875 12.28247,5.196152 0.23077,0.162129 0.55864,0.56788 0.72907,0.901877 0.1704,0.333998 0.32597,0.58341 0.34559,0.554527 0.0196,-0.02887 0.008,-1.409905 -0.0264,-3.068852 l -0.0635,-3.015953 -0.2733,0.363219 -0.27328,0.362337 -1.26157,-0.521026 c -0.69356,-0.286464 -2.79264,-1.139725 -4.66544,-1.896323 l -3.40562,-1.375296 -0.0176,-3.886977 c -0.0111,-2.388569 0.037,-3.886976 0.12607,-3.886976 0.34871,0 4.88835,1.087589 5.35749,1.283609 0.28546,0.119271 0.6364,0.423549 0.78022,0.676189 0.14376,0.252639 0.29513,0.459577 0.33676,0.460195 0.0409,6.18e-4 0.0547,-1.309555 0.0291,-2.911928 -0.0489,-3.052649 -0.0574,-3.083472 -0.62505,-2.096445 -0.0998,0.17345 -0.24565,0.180923 -0.80314,0.04056 -0.37464,-0.09434 -1.65631,-0.342044 -2.84756,-0.551001 -1.19125,-0.208956 -2.22048,-0.4658 -2.28688,-0.570394 -0.0664,-0.1046 -0.12127,-1.749932 -0.12253,-3.655998 l -0.003,-3.4655708 1.32416,0.09874 c 0.72831,0.05407 2.67872,0.198936 4.33394,0.321784 1.65522,0.122856 3.12158,0.258092 3.2584,0.301509 0.13681,0.04343 0.3253,0.283453 0.41964,0.533367 0.0943,0.249914 0.23004,0.454908 0.30152,0.454908 0.0714,0 0.13869,-1.36183 0.14723,-3.026535 0.0115,-2.083232 -0.0466,-3.082643 -0.18074,-3.037114 z m -15.32662,0.363219 c -0.0178,-0.008 -0.0382,0.01384 -0.0617,0.06259 l -0.16398,0.341181 -5.99224,-0.0097 c -5.4852,-0.0083 -6.94411,-0.07569 -7.58176,-0.350876 -0.19648,-0.08479 -0.22074,0.166963 -0.18073,1.869874 l 0.0458,1.967732 0.42846,-0.316493 c 0.39798,-0.294233 0.58513,-0.312623 2.67742,-0.261835 l 2.24984,0.05465 0.0388,9.1492488 0.0397,9.14925 -0.40818,0.378207 -0.40818,0.379089 1.20162,0.193951 c 0.66079,0.106845 1.57606,0.288937 2.03386,0.404655 0.89989,0.227483 1.36207,0.28584 1.36207,0.171913 0,-0.03961 -0.13623,-0.295228 -0.30239,-0.567752 l -0.30239,-0.495459 v -9.269148 l -8.8e-4,-9.2691468 h 2.09645 c 2.26585,0 2.92065,0.134052 3.17023,0.650621 0.12048,0.249366 0.16045,-0.272665 0.16045,-2.088512 0,-1.502484 -0.0254,-2.108985 -0.10226,-2.144053 z m -87.325176,0.101384 c -4.086422,0.0964 -7.181305,3.286132 -8.208582,8.6555538 -0.269645,1.409384 -0.309949,2.056467 -0.250375,4.040375 0.08072,2.687952 0.293807,3.697166 1.171647,5.540861 0.970402,2.038103 2.285497,3.269237 4.220222,3.952214 3.899793,1.376664 9.131453,-1.549204 11.002375,-6.153573 2.032199,-5.001273 1.007253,-10.9885668 -2.392665,-13.9830628 -0.967216,-0.85188 -2.62391,-1.695852 -3.733578,-1.901614 -0.621091,-0.115162 -1.225269,-0.164523 -1.809044,-0.150754 z m 24.156736,0.150754 0.113734,0.416117 c 0.06238,0.228896 0.105301,0.552032 0.09609,0.718504 -0.0092,0.166471 -0.937604,2.813537 -2.063826,5.8820378 -1.126222,3.0685 -2.047958,5.616628 -2.047958,5.66252 0,0.386369 -0.48594,-0.915103 -2.206646,-5.913776 C 43.703342,5.5376292 43.557805,5.0353142 43.725932,4.6178662 l 0.183374,-0.454023 h -2.549589 c -1.401982,0 -2.548739,0.05162 -2.548707,0.114602 3.1e-5,0.06298 0.170117,0.262516 0.378207,0.443447 l 0.378206,0.328836 v 9.2955958 9.296477 l -0.378206,0.449616 c -0.208085,0.247299 -0.378207,0.519779 -0.378207,0.605659 0,0.09631 0.159406,0.113339 0.416115,0.04496 0.228897,-0.06096 1.158251,-0.153311 2.06559,-0.205413 l 1.650356,-0.09521 -0.401128,-0.475183 -0.401128,-0.476065 v -7.128622 c 0,-3.920852 0.05042,-7.1284688 0.112841,-7.1277398 0.06242,7.28e-4 0.739598,1.7882928 1.504892,3.9724908 1.474339,4.20787 3.808579,10.583681 3.912542,10.687644 0.03409,0.03408 0.09203,-0.03303 0.129597,-0.14899 0.09339,-0.288276 4.072555,-11.693505 4.653969,-13.339497 0.257261,-0.7283078 0.510239,-1.3241258 0.56246,-1.3241638 0.05222,-4.2e-5 0.06101,3.1607318 0.01939,7.0245928 l -0.07582,7.025474 -0.340298,0.362338 c -0.187274,0.199263 -0.340296,0.400886 -0.340296,0.447852 0,0.04699 0.30964,0.0191 0.688529,-0.06171 0.378889,-0.08083 1.360869,-0.123685 2.181962,-0.09521 1.579427,0.05477 1.573095,0.05902 0.950366,-0.601251 -0.146964,-0.155829 -0.188664,-2.209242 -0.188664,-9.202146 V 4.9819672 l 0.378207,-0.350877 c 0.208082,-0.192849 0.378206,-0.394086 0.378206,-0.446972 0,-0.05288 -1.131035,-0.09609 -2.513442,-0.09609 z m 17.883265,0 c -1.327517,0 -2.413822,0.04127 -2.413822,0.09169 0,0.05041 0.171956,0.296237 0.382615,0.546592 l 0.383498,0.455788 -0.0432,8.7498838 -0.04232,8.750767 -0.436392,0.455788 -0.436392,0.454907 2.100854,0.04672 c 1.155608,0.02543 2.126989,0.03229 2.158158,0.01499 0.03117,-0.0173 -0.121847,-0.244668 -0.340297,-0.504275 l -0.397603,-0.471657 v -7.101292 c 0,-3.905671 0.05551,-7.1012918 0.123417,-7.1012918 0.06791,0 0.28382,0.289817 0.479592,0.643568 0.428312,0.773935 6.921269,11.5990768 7.759849,12.9374868 0.475675,0.759202 0.571482,1.031592 0.491932,1.39381 l -0.09874,0.450498 1.562195,0.04937 c 0.859122,0.02703 1.752231,0.06355 1.985365,0.08111 l 0.42405,0.03174 -0.386141,-0.506039 -0.38526,-0.506039 v -9.09988 -9.1007618 l 0.378207,-0.24773 c 0.208085,-0.136346 0.378208,-0.297987 0.378208,-0.359693 0,-0.06171 -0.919875,-0.124795 -2.043552,-0.139292 -1.123675,-0.01453 -2.042668,0.01602 -2.042668,0.06788 0,0.05186 0.135917,0.267958 0.302389,0.479592 l 0.30327,0.384376 v 6.5934918 c 0,4.102935 -0.05365,6.53837 -0.141937,6.448907 -0.07803,-0.07907 -0.678182,-1.029375 -1.33298,-2.111433 C 75.254844,11.105024 72.269283,6.2327852 71.905399,5.6996022 l -0.397603,-0.581856 0.215113,-0.514856 0.215108,-0.514854 z m -7.625843,0.0027 c -1.098908,-0.0024 -2.21095,0.03733 -2.263069,0.121656 -0.04227,0.06839 0.05643,0.23844 0.218637,0.377325 l 0.294456,0.252138 v 9.0804848 9.080484 l -0.302392,0.188663 c -0.166476,0.103962 -0.30315,0.258042 -0.303269,0.342063 -2.06e-4,0.146732 4.23002,0.135664 4.377146,-0.01148 0.0353,-0.0353 -0.08381,-0.221156 -0.26448,-0.413472 L 63.327435,22.758582 V 13.805046 4.8515122 l 0.378206,-0.24773 c 0.208083,-0.136346 0.378207,-0.308068 0.378207,-0.381733 0,-0.08442 -1.085697,-0.128993 -2.184606,-0.131359 z m 31.999454,0.101384 c -1.211711,0.0066 -2.426856,0.04742 -2.438507,0.117256 -0.0087,0.05164 0.06644,0.292381 0.166623,0.534249 0.161889,0.390832 0.09783,0.697002 -0.579214,2.755003 -0.863043,2.6233838 -3.156069,9.7598328 -3.831434,11.9254088 -0.784276,2.514807 -1.19619,3.584726 -1.582472,4.107376 l -0.376446,0.508683 1.709424,0.10756 c 0.940184,0.05899 1.829126,0.137297 1.974785,0.174556 0.324694,0.08305 0.344484,-0.10349 0.03792,-0.357929 -0.124846,-0.103617 -0.22644,-0.36668 -0.225689,-0.585383 0.0012,-0.357538 1.230067,-4.327994 1.388519,-4.486464 0.03586,-0.03586 1.082759,0.0036 2.326545,0.08815 4.506428,0.306658 4.438131,0.298236 4.511148,0.569514 0.03738,0.138884 0.356222,1.218172 0.708808,2.397954 l 0.640925,2.144933 -0.319141,0.541304 -0.319139,0.541302 0.86485,0.01237 c 0.475795,0.007 1.410282,0.128631 2.076159,0.269769 0.66588,0.141147 1.22829,0.247557 1.25011,0.237151 0.0218,-0.01046 -0.0928,-0.318391 -0.25478,-0.685005 -0.16192,-0.366613 -0.73685,-2.199318 -1.27744,-4.072112 C 96.877874,9.0080952 96.023909,6.0824312 95.870846,5.6864452 c -0.14651,-0.379036 -0.125561,-0.506937 0.138412,-0.863969 0.170434,-0.230514 0.309431,-0.47374 0.309441,-0.53954 1e-5,-0.06977 -1.208284,-0.0974 -2.419993,-0.09081 z m -87.42127,0.231805 c -1.1997301,-0.0043 -2.4544342,0.02229 -3.1314453,0.0723 l -1.6415399,0.121656 0.3552849,0.450499 0.354403,0.449616 0.040554,13.4338278 0.040555,13.432947 -0.2821128,0.796085 C 2.0580988,33.618781 1.8760788,34.10565 1.80847,34.262569 1.7035424,34.506099 1.794112,34.48506 2.4282363,34.122394 2.8368304,33.888713 3.2389434,33.649511 3.3221792,33.59079 3.4054152,33.53208 5.2454361,32.593309 7.4110408,31.504041 10.046464,30.17846 11.623437,29.29048 12.178738,28.818687 c 1.851952,-1.573452 3.298981,-3.702177 4.067704,-5.982542 0.729128,-2.162934 0.848183,-3.104832 0.845455,-6.716914 -0.0022,-2.956957 -0.04103,-3.481333 -0.346469,-4.690996 C 15.888885,8.0360412 13.928846,5.6844072 11.229253,4.8091752 10.471488,4.5635002 9.7582217,4.4898102 7.6358485,4.4389022 7.271694,4.4302022 6.8773365,4.4253522 6.477426,4.4239132 Z m 21.552487,2.554879 c 1.232596,0.01174 2.040001,0.356095 2.992152,1.226305 1.604045,1.466008 2.447313,4.0579568 2.299215,7.0677918 -0.09484,1.927548 -0.368085,3.014006 -1.169886,4.652206 -0.737613,1.507057 -1.842785,2.593289 -3.14026,3.087366 -1.109084,0.422336 -2.637898,0.519799 -3.425899,0.218636 -2.796167,-1.068663 -4.231056,-5.648222 -3.26104,-10.408175 0.764312,-3.7505428 2.46338,-5.6736068 5.15031,-5.8291438 0.195123,-0.01135 0.379322,-0.01666 0.555408,-0.01499 z M 7.9655673,7.7881012 c 1.9535844,-0.02606 3.5207677,0.465749 4.3833177,1.393809 0.557857,0.60023 1.145679,1.8314718 1.451113,3.0388778 0.205904,0.813922 0.259055,1.718793 0.260073,4.428279 0.0011,3.014667 -0.03652,3.556957 -0.332363,4.727142 -0.441617,1.746845 -1.096703,3.004947 -2.125539,4.083574 -0.990514,1.038451 -1.8048613,1.529951 -3.9663205,2.392664 -0.8739707,0.348832 -1.6753222,0.668062 -1.7799512,0.709688 -0.1518579,0.06042 -0.1818034,-2.011281 -0.1507542,-10.269763 l 0.038791,-10.3455838 1.362073,-0.116375 c 0.2939577,-0.02509 0.5804771,-0.03859 0.8595601,-0.04232 z m 85.6501347,0.386142 c 0.06882,0 0.166842,0.187216 0.218637,0.416113 0.07129,0.315121 1.534279,5.5356108 2.141407,7.6425958 0.06857,0.237967 -0.04455,0.261871 -1.114343,0.234507 -2.512321,-0.06427 -3.615783,-0.139618 -3.730052,-0.253902 -0.0652,-0.0652 0.287966,-1.372552 0.784625,-2.905756 0.496659,-1.533205 1.054108,-3.3159578 1.238648,-3.9610298 0.184541,-0.645075 0.392257,-1.172528 0.461078,-1.172528 z M 38.35698,30.648003 v 0.993563 0.994446 l 1.094949,-0.130477 c 0.602383,-0.07199 1.402556,-0.110966 1.778188,-0.08639 l 0.683242,0.04496 0.03968,5.206732 c 0.03223,4.21098 5.72e-4,5.266841 -0.167503,5.523228 l -0.208058,0.317376 h 1.385875 1.384995 l -0.197483,-0.575683 c -0.150896,-0.438624 -0.18909,-1.753795 -0.158689,-5.52411 l 0.03968,-4.947542 1.49343,-0.04408 c 1.15424,-0.03364 1.575402,0.01046 1.854006,0.193069 l 0.360576,0.23627 0.0018,-0.571277 c 9.04e-4,-0.31405 0.04082,-0.809796 0.08904,-1.10112 l 0.08816,-0.528959 h -4.780919 z m 41.882198,0 -1.542802,0.04672 -1.541919,0.04673 0.06348,0.43551 c 0.06916,0.471196 -3.436004,11.229029 -3.827028,11.745564 -0.119219,0.157478 -0.219064,0.354038 -0.221282,0.437274 -0.0023,0.08755 0.474004,0.15266 1.130212,0.15428 l 1.134618,0.0027 0.0097,-0.608304 c 0.0052,-0.334482 0.192436,-1.11866 0.416114,-1.742924 l 0.406419,-1.13462 h 2.25249 2.252487 l 0.350879,1.058801 c 0.19309,0.582648 0.354005,1.365721 0.357929,1.740281 l 0.007,0.681477 h 1.286254 c 0.707421,0 1.287032,-0.0088 1.287138,-0.01939 1.04e-4,-0.01059 -0.110175,-0.283363 -0.245084,-0.605658 -0.134921,-0.322299 -1.024422,-2.969686 -1.975668,-5.882921 -1.264411,-3.872317 -1.712121,-5.439267 -1.665343,-5.826499 z m 5.917301,0 -1.444944,0.03174 c -0.795161,0.01757 -1.482943,0.06888 -1.527812,0.113721 -0.04486,0.04487 -0.0088,0.08111 0.08022,0.08111 0.224667,0 0.959072,1.141592 2.746186,4.271355 l 1.53134,2.682711 -0.007,2.311556 c -0.0042,1.455558 -0.07694,2.508675 -0.196597,2.843162 l -0.189544,0.530723 1.407035,-8.81e-4 c 0.773853,-8.54e-4 1.406822,-0.01462 1.407032,-0.02998 2.06e-4,-0.01538 -0.07183,-0.21828 -0.16045,-0.451378 -0.08861,-0.2331 -0.16648,-1.514588 -0.172793,-2.84757 l -0.01148,-2.423521 1.684737,-3.166707 c 0.926547,-1.741785 1.821669,-3.313147 1.988892,-3.491139 0.167219,-0.177993 0.304125,-0.353414 0.30415,-0.389668 2.8e-5,-0.03626 -0.578833,-0.06524 -1.286255,-0.06524 h -1.286263 l -8.83e-4,0.361455 c -2.18e-4,0.413632 -2.213983,4.707746 -2.427045,4.707746 -0.07711,0 -0.30551,-0.323135 -0.506919,-0.718503 -0.201411,-0.395367 -0.750518,-1.36566 -1.221019,-2.156395 -0.616953,-1.036864 -0.835354,-1.543239 -0.782861,-1.816099 z m -31.316213,0.0079 c -0.153811,-8.46e-4 -0.325426,-1.62e-4 -0.5175,8.82e-4 -1.193097,0.0064 -1.814681,0.07775 -2.194303,0.252138 -1.552061,0.712987 -2.746568,2.152925 -3.254868,3.924887 -0.396383,1.38179 -0.360931,3.695929 0.07406,4.854974 0.65946,1.757177 2.026738,3.197567 3.484086,3.671864 0.456169,0.148467 1.181586,0.208862 2.19783,0.183373 1.33717,-0.03354 1.62192,-0.09046 2.399717,-0.483999 1.676089,-0.848025 2.87374,-2.714411 3.166708,-4.933436 0.403748,-3.058081 -0.902107,-5.78694 -3.375647,-7.052804 -0.67226,-0.344037 -0.903392,-0.411945 -1.980076,-0.417879 z m 8.435155,0.02293 c -1.030546,4.63e-4 -1.207505,0.05113 -1.158423,0.19748 0.121286,0.361597 0.08718,11.999028 -0.03614,12.33271 l -0.111961,0.302388 2.760291,-0.04496 c 3.08967,-0.04995 4.014787,-0.224735 5.106231,-0.967117 0.887526,-0.603679 1.328796,-1.164668 1.763201,-2.240146 0.564742,-1.398137 0.751555,-2.97181 0.518381,-4.359515 -0.279983,-1.666265 -0.685336,-2.630167 -1.478445,-3.512296 -1.240308,-1.37952 -2.129991,-1.62959 -6.024857,-1.694436 -0.556284,-0.0093 -0.994755,-0.01426 -1.338269,-0.01411 z m -8.937667,1.564841 c 0.516968,0.0063 1.053099,0.139592 1.585117,0.409064 1.404085,0.711184 2.259542,2.386768 2.259542,4.426515 0,2.515855 -1.25598,4.416606 -3.193156,4.832054 -0.892118,0.191327 -0.799479,0.195015 -1.615974,-0.05995 -1.009866,-0.315344 -1.628452,-0.885156 -2.18108,-2.008289 l -0.501631,-1.018246 0.0027,-1.667108 c 0.0019,-1.517181 0.04128,-1.753383 0.4408,-2.622763 0.685938,-1.492639 1.882597,-2.307089 3.203736,-2.291279 z m 10.125181,0.06876 1.212201,0.01411 c 3.392534,0.03973 4.381613,1.111592 4.38332,4.752708 4.58e-4,0.957205 -0.08307,2.016514 -0.185138,2.353874 -0.293963,0.971612 -1.132332,1.837827 -2.041787,2.107906 -0.438197,0.13013 -1.356577,0.230099 -2.112314,0.230099 H 64.38271 l 0.03968,-4.729789 z m 14.162913,0.83223 c 0.062,0 0.184544,0.323136 0.271533,0.718504 0.087,0.395369 0.394259,1.533598 0.683241,2.52843 0.288988,0.994833 0.491543,1.862528 0.450497,1.928943 -0.04105,0.06642 -0.121453,0.106462 -0.178965,0.08904 -0.05751,-0.01741 -0.772955,-0.05382 -1.590408,-0.08111 -1.090938,-0.03641 -1.466567,-0.098 -1.410558,-0.232741 0.04197,-0.100964 0.433186,-1.256265 0.869256,-2.567221 0.436072,-1.310956 0.843407,-2.383848 0.905404,-2.383848 z M 30.63857,48.429885 v 0.527197 0.528079 l 32.272749,0.0027 c 17.749926,0.0018 33.685879,-0.04157 35.413011,-0.09697 l 3.14026,-0.100505 v -0.3306 -0.3306 l -3.429425,-0.09962 c -1.886246,-0.05492 -17.822199,-0.09966 -35.413012,-0.09966 z m 60.819855,7.021067 0.09609,0.383495 c 0.05298,0.211073 0.353384,0.998594 0.667371,1.749097 0.313985,0.750503 0.856372,2.051354 1.205148,2.890767 0.348777,0.839413 0.737741,1.672903 0.863969,1.853125 0.154996,0.221292 0.385967,0.327358 0.712334,0.32531 l 0.483117,-0.0036 1.320637,-3.28837 c 0.726064,-1.808672 1.364426,-3.412091 1.419376,-3.56343 0.08703,-0.239801 0.02606,-0.26942 -0.472536,-0.227453 -0.31479,0.0265 -0.628926,0.150215 -0.699111,0.275061 -0.07018,0.124859 -0.545486,1.249044 -1.055274,2.497573 -0.509792,1.248531 -0.969926,2.317352 -1.022658,2.375032 -0.05273,0.05768 -0.549219,-1.066519 -1.103763,-2.497574 l -1.008547,-2.601558 -0.702637,-0.08375 z m -15.798281,0.02557 c -0.391434,0.01606 -1.043603,0.213954 -1.146961,0.39672 -0.38426,0.679456 -1.857475,2.528952 -1.962444,2.464073 -0.06956,-0.04298 -0.478653,-0.689056 -0.909812,-1.436127 l -0.783743,-1.358551 h -0.832231 -0.83223 l 0.208057,0.289165 c 0.114194,0.159169 0.777919,1.129506 1.4758,2.156397 l 1.269504,1.867227 -0.09257,1.399982 -0.09169,1.399983 h 0.65591 0.655911 l -0.01675,-1.475801 -0.01675,-1.474916 1.048223,-1.589526 c 0.576639,-0.87397 1.21082,-1.785944 1.408796,-2.026801 0.197978,-0.240854 0.304335,-0.492634 0.237152,-0.559815 -0.0423,-0.0423 -0.143699,-0.05737 -0.274178,-0.05201 z m -61.819591,0.01851 v 3.580181 3.58018 h 0.675306 0.676186 l 0.0432,-1.551617 0.0432,-1.550737 0.832233,0.05113 c 0.457793,0.02812 0.91427,0.12984 1.01472,0.226571 0.100453,0.09673 0.512911,0.720874 0.915984,1.386757 0.678952,1.121641 0.779102,1.220523 1.370888,1.346204 1.034912,0.21978 1.028352,0.155674 -0.188663,-1.830201 l -0.66737,-1.089659 0.528959,-0.174557 c 1.487363,-0.490898 1.497829,-3.386347 0.01323,-3.685972 -0.270106,-0.05451 -1.563942,-0.140986 -2.874898,-0.19307 z m 48.276445,0.0061 v 3.576653 3.577536 h 0.680595 0.681476 v -1.513707 -1.512827 l 0.945958,0.0027 0.945958,0.0027 0.817243,1.364716 c 0.449784,0.750723 0.85842,1.388595 0.908047,1.417615 0.04963,0.02902 0.379744,0.10104 0.733493,0.159568 0.859672,0.142251 0.843711,-0.05865 -0.113721,-1.44847 -0.416177,-0.604125 -0.756415,-1.187923 -0.756415,-1.296833 0,-0.108912 0.234608,-0.295558 0.521026,-0.415234 0.577344,-0.241231 1.143436,-1.157252 1.143436,-1.848717 0,-0.561259 -0.671663,-1.660465 -1.092303,-1.787885 -0.189854,-0.05751 -1.485997,-0.143693 -2.880188,-0.191309 z m -16.053065,0.02557 0.251256,0.575685 c 0.137905,0.316585 0.788432,1.860893 1.445824,3.43207 0.657394,1.571175 1.232504,2.915898 1.277441,2.988625 0.165175,0.267256 1.105951,0.143937 1.272149,-0.166622 0.209937,-0.392267 1.73009,-4.148563 2.283344,-5.641362 l 0.435512,-1.172529 h -0.587146 c -0.526037,0 -0.6042,0.05097 -0.757296,0.491933 -0.50656,1.458973 -1.913094,4.649554 -2.032088,4.609889 -0.07605,-0.02535 -0.392665,-0.723932 -0.703517,-1.552497 -0.310851,-0.828565 -0.737145,-1.948612 -0.94684,-2.489641 l -0.38085,-0.983866 -0.778453,-0.04584 z m 69.257657,0.0052 c -1.4934,0.02301 -2.71364,0.586675 -3.33774,1.596578 -0.40906,0.661925 -0.45551,0.860957 -0.45227,1.958918 0.003,1.015975 0.0666,1.335204 0.37821,1.89015 0.42792,0.762181 0.8927,1.14786 1.74645,1.451997 0.80497,0.286687 2.72203,0.282665 3.57489,-0.0079 1.18408,-0.403456 1.33474,-0.641866 1.33474,-2.117605 v -1.280964 l -1.36207,-0.02469 c -0.74912,-0.01387 -1.48177,-0.03091 -1.62743,-0.0379 -0.20588,-0.0098 -0.27504,0.130373 -0.31121,0.630344 -0.0515,0.711662 0.0389,0.761858 0.85868,0.476064 0.2636,-0.09188 0.65317,-0.123646 0.86485,-0.07052 0.32402,0.08134 0.37727,0.171449 0.33765,0.568633 -0.0639,0.641102 -0.62977,1.028521 -1.64506,1.126685 -1.64822,0.159363 -3.09089,-1.05078 -3.09089,-2.592787 0,-0.841921 0.51023,-1.74584 1.22101,-2.163447 0.51197,-0.300867 0.75106,-0.34022 1.76673,-0.290046 0.94541,0.04671 1.24267,0.121529 1.52341,0.38526 0.54165,0.508861 0.81576,0.422264 0.93714,-0.29622 0.12438,-0.736198 0.0728,-0.78376 -1.14432,-1.042052 -0.54652,-0.115979 -1.07498,-0.168121 -1.57277,-0.160451 z m -33.822606,0.01059 -0.0432,3.493783 c -0.02379,1.921488 -0.01528,3.521831 0.01939,3.556379 0.03469,0.03452 1.380293,0.06259 2.989508,0.06259 h 2.92515 v -0.290048 c 0,-0.756778 -0.03909,-0.769637 -2.437624,-0.769637 H 82.698836 V 58.569024 55.54249 h -0.60037 z m 7.026357,0 v 3.562549 3.563429 l 0.576567,-0.04408 0.577448,-0.04496 0.02821,-3.518467 0.02821,-3.518468 h -0.605651 z m 11.123152,0 v 3.556378 3.556377 h 0.646207 0.64622 l 0.0141,-3.556377 0.015,-3.556378 h -0.6612 z m 3.632187,0 v 3.566075 3.566075 l 0.49194,-0.04761 0.49193,-0.04761 v -2.610418 c 0,-2.714868 0.0781,-3.014807 0.58803,-2.236621 0.46029,0.702496 3.88138,4.612312 4.17173,4.767694 0.15925,0.08523 0.43019,0.155164 0.60214,0.155164 h 0.31296 v -3.556377 -3.556377 h -0.52984 -0.52984 l -0.008,2.534602 -0.008,2.535483 -0.55982,-0.664727 c -3.84715,-4.568203 -3.64835,-4.375688 -4.53142,-4.394777 z m -62.090235,0.0088 c -1.029441,0.01346 -2.043801,0.320989 -2.668605,0.931852 -1.948766,1.905282 -1.32494,5.068244 1.175174,5.961382 0.303625,0.108478 1.032386,0.20095 1.6195,0.204533 0.858615,0.0054 1.223551,-0.07156 1.86723,-0.392314 2.087604,-1.040295 2.603699,-3.888874 1.020011,-5.631664 -0.660148,-0.726465 -1.84661,-1.089037 -3.01331,-1.073789 z m -8.062237,0.01148 c -2.544301,0.0074 -3.943945,1.341009 -3.916069,3.762671 0.01881,1.633442 0.731343,2.62906 2.234858,3.122628 0.402219,0.132027 1.096031,0.186422 1.921007,0.151637 2.198766,-0.09271 3.393104,-0.99121 2.6545,-1.996826 l -0.215993,-0.293573 -0.427575,0.399364 c -0.603909,0.563615 -1.313256,0.890099 -2.137883,0.984749 -0.98026,0.112509 -2.213219,-0.522952 -2.650971,-1.366482 -0.881338,-1.698296 0.159622,-3.533438 2.094681,-3.693905 1.158869,-0.0961 1.817287,0.06623 2.422638,0.597725 l 0.527197,0.46284 0.226573,-0.54042 c 0.124387,-0.297688 0.225688,-0.638815 0.225688,-0.757296 0,-0.340926 -1.182405,-0.738051 -2.434098,-0.817243 -0.17971,-0.01135 -0.354932,-0.01637 -0.524553,-0.01587 z m 21.610674,0.06788 c -0.243803,-0.01161 -0.268129,0.267045 -0.30856,3.506125 l -0.04408,3.518468 h 3.108523 3.108524 V 62.12981 61.603496 l -2.382967,-0.04144 -2.383845,-0.04144 V 60.612568 59.70452 l 1.588643,-0.07582 1.589526,-0.07582 0.0476,-0.491932 0.04673,-0.491934 h -1.67416 -1.674159 v -0.983866 -0.982984 h 2.333596 c 2.420297,0 2.548706,-0.03513 2.390901,-0.643568 -0.06188,-0.238574 -0.336357,-0.267322 -2.774397,-0.290046 -1.488528,-0.01387 -2.826217,-0.03091 -2.971875,-0.0379 z m -29.672028,0.06348 -2.978928,8.82e-4 0.01939,3.366832 c 0.01072,1.851766 0.02784,3.427841 0.0379,3.502598 0.01033,0.07684 0.561123,0.09372 1.266862,0.0388 0.68669,-0.05345 2.049399,-0.09823 3.027415,-0.09874 l 1.778188,-8.81e-4 v -0.453976 -0.454025 h -2.42881 -2.428807 l 0.04496,-0.945957 0.04496,-0.945075 1.589525,-0.07582 1.588644,-0.07582 v -0.453939 -0.454024 l -1.606276,-0.04232 -1.606276,-0.0432 -0.08817,-0.855153 c -0.04857,-0.470242 -0.05354,-0.91049 -0.01148,-0.978577 0.04208,-0.06809 1.123802,-0.123417 2.404126,-0.123417 1.402423,0 2.365793,-0.06141 2.422638,-0.153399 0.05191,-0.08398 0.05084,-0.288303 -0.0018,-0.454024 l -0.09521,-0.300625 z M 63.479069,56.60218 H 64.9822 c 1.926862,0 2.221127,0.108924 2.321253,0.859559 0.06029,0.452043 0.01135,0.635693 -0.22569,0.842812 -0.248867,0.217463 -0.597869,0.264479 -1.950981,0.264479 h -1.647713 v -0.983866 z m -21.821375,0.007 c 0.476711,0.0061 0.706862,0.09506 1.158422,0.359694 0.834501,0.489049 1.139911,1.039701 1.139911,2.05413 0,1.247228 -0.590686,2.065223 -1.80111,2.492284 -0.79385,0.28002 -1.123103,0.281818 -1.878692,0.01238 -1.167505,-0.416386 -1.846833,-1.47515 -1.729699,-2.69417 0.132297,-1.376833 0.984903,-2.118145 2.535483,-2.205766 0.231007,-0.01305 0.416781,-0.02054 0.575685,-0.01851 z m -26.530886,0.06788 1.782596,0.01238 c 0.980495,0.0066 1.840311,0.07504 1.910427,0.151634 0.07012,0.0766 0.171308,0.430166 0.224809,0.785507 0.08967,0.595584 0.06637,0.657484 -0.293572,0.794322 -0.214744,0.08164 -1.102739,0.148108 -1.973903,0.148108 -1.786385,0 -1.771123,0.01072 -1.697082,-1.154014 z" /></g></svg>
