<svg xmlns="http://www.w3.org/2000/svg" xml:space="preserve" viewBox="0 0 132.292 66.146">
  <path d="M130.137 3.473c-.045.015-.098.146-.16.392-.052.21-.207.434-.344.498-.136.064-3.04.078-6.452.033-3.413-.046-6.226-.074-6.251-.061-.026.013.093.285.264.605l.312.582V27.84l-.378.248c-.508.332-.476.603.093.801 1.349.47 11.923 4.944 12.282 5.196.23.162.559.568.73.902.17.334.325.584.345.555.02-.03.008-1.41-.027-3.07l-.063-3.015-.273.363-.274.362-1.261-.52a958.36 958.36 0 0 0-4.666-1.897l-3.405-1.375-.018-3.887c-.011-2.389.037-3.887.126-3.887.349 0 4.888 1.087 5.358 1.283.285.12.636.424.78.677.144.252.295.46.337.46.04 0 .054-1.31.029-2.912-.05-3.053-.058-3.084-.625-2.097-.1.174-.246.181-.804.041-.374-.094-1.656-.342-2.847-.551-1.191-.209-2.22-.466-2.287-.57-.066-.105-.121-1.75-.123-3.656l-.003-3.466 1.325.099 4.334.322c1.655.122 3.121.258 3.258.301.137.043.325.284.42.533.094.25.23.455.301.455.072 0 .139-1.362.147-3.026.012-2.083-.046-3.083-.18-3.037zm-15.327.363c-.018-.008-.038.014-.061.062l-.164.342-5.993-.01c-5.485-.008-6.944-.076-7.581-.35-.197-.086-.221.166-.181 1.869l.046 1.968.428-.317c.398-.294.585-.312 2.678-.262l2.25.055.038 9.15.04 9.149-.408.378-.408.379 1.201.194c.66.107 1.576.289 2.034.404.9.228 1.362.286 1.362.172 0-.04-.136-.295-.302-.567l-.303-.496V7.417h2.096c2.266 0 2.92.135 3.17.651.12.25.16-.272.16-2.088 0-1.503-.025-2.11-.102-2.144zm-87.325.101c-4.086.097-7.181 3.286-8.208 8.656-.27 1.41-.31 2.056-.25 4.04.08 2.688.293 3.697 1.17 5.541.971 2.038 2.286 3.27 4.221 3.952 3.9 1.377 9.131-1.549 11.002-6.153 2.033-5.002 1.008-10.989-2.392-13.983-.968-.852-2.624-1.696-3.734-1.902a8.78 8.78 0 0 0-1.809-.15zm24.157.151.114.416c.062.229.105.552.096.719-.01.166-.938 2.813-2.064 5.882-1.126 3.068-2.048 5.616-2.048 5.662 0 .387-.486-.915-2.207-5.914-1.83-5.315-1.975-5.818-1.807-6.235l.183-.454h-2.55c-1.401 0-2.548.051-2.548.114s.17.263.378.444l.378.329v18.592l-.378.45c-.208.247-.378.52-.378.605 0 .096.16.113.416.045.229-.06 1.158-.153 2.066-.205l1.65-.096-.401-.475-.401-.476v-7.128c0-3.921.05-7.129.113-7.128.062 0 .74 1.788 1.505 3.972 1.474 4.208 3.808 10.584 3.912 10.688.034.034.092-.033.13-.15.093-.287 4.072-11.693 4.654-13.339.257-.728.51-1.324.562-1.324.052 0 .061 3.161.02 7.025l-.076 7.025-.34.363c-.188.199-.34.4-.34.448 0 .047.309.019.688-.062.379-.081 1.36-.124 2.182-.095 1.579.054 1.573.059.95-.602-.147-.155-.189-2.209-.189-9.202v-9l.378-.35c.209-.194.379-.395.379-.448 0-.053-1.131-.096-2.514-.096zm17.883 0c-1.327 0-2.414.041-2.414.092 0 .05.172.296.383.546l.383.456-.043 8.75-.042 8.75-.437.457-.436.454 2.1.047c1.157.026 2.128.032 2.16.015.03-.017-.123-.245-.341-.504l-.398-.472v-7.101c0-3.906.056-7.101.124-7.101s.283.29.48.643c.428.774 6.92 11.6 7.759 12.938.476.759.572 1.031.492 1.393l-.099.451 1.562.05c.86.026 1.753.063 1.986.08l.424.032-.386-.506-.386-.506v-18.2l.379-.248c.208-.137.378-.298.378-.36s-.92-.125-2.044-.14c-1.123-.014-2.042.017-2.042.069 0 .052.136.268.302.48l.303.384v6.593c0 4.103-.053 6.538-.142 6.449-.078-.079-.678-1.03-1.333-2.111-2.942-4.863-5.928-9.735-6.292-10.268l-.397-.582.215-.515.215-.515zm-7.626.003c-1.099-.003-2.21.037-2.263.121-.042.069.057.239.219.378l.294.252v18.16l-.302.19c-.167.103-.303.258-.303.342 0 .146 4.23.135 4.377-.012.035-.035-.084-.221-.265-.413l-.329-.35V4.852l.379-.248c.208-.137.378-.308.378-.382 0-.084-1.086-.129-2.185-.131zm32 .101c-1.212.007-2.427.048-2.439.117-.009.052.067.293.167.535.162.39.098.697-.58 2.755-.862 2.623-3.155 9.76-3.83 11.925-.785 2.515-1.197 3.585-1.583 4.107l-.377.51 1.71.107c.94.059 1.829.137 1.974.174.325.083.345-.103.038-.358-.124-.103-.226-.366-.225-.585 0-.358 1.23-4.328 1.388-4.487.036-.035 1.083.004 2.327.089 4.506.306 4.438.298 4.51.57.038.138.357 1.217.71 2.397l.64 2.145-.319.541-.319.542.865.012c.476.007 1.41.129 2.076.27.666.14 1.229.247 1.25.237.022-.01-.092-.319-.254-.685-.162-.367-.737-2.2-1.278-4.072-3.472-12.03-4.326-14.956-4.48-15.352-.146-.379-.125-.506.14-.864.17-.23.309-.473.309-.54 0-.069-1.209-.096-2.42-.09zm-87.422.232c-1.2-.004-2.454.022-3.131.072l-1.642.122.356.45.354.45.04 13.434.041 13.433-.282.796c-.155.438-.337.925-.405 1.082-.104.243-.014.222.62-.14.409-.234.81-.473.894-.532.083-.059 1.923-.998 4.089-2.087 2.635-1.326 4.212-2.214 4.768-2.685a13.732 13.732 0 0 0 4.067-5.983c.73-2.163.849-3.105.846-6.717-.002-2.957-.041-3.481-.347-4.69-.856-3.393-2.816-5.745-5.516-6.62-.758-.245-1.47-.32-3.593-.37a57.9 57.9 0 0 0-1.159-.015ZM28.03 6.979c1.233.012 2.04.356 2.992 1.226 1.604 1.466 2.447 4.058 2.3 7.068-.096 1.927-.369 3.014-1.17 4.652-.738 1.507-1.843 2.593-3.14 3.087-1.11.423-2.639.52-3.427.22-2.796-1.07-4.23-5.65-3.26-10.41.764-3.75 2.463-5.673 5.15-5.828.195-.012.379-.017.555-.015zm-20.064.81c1.953-.027 3.52.465 4.383 1.393.558.6 1.146 1.831 1.451 3.039.206.814.26 1.719.26 4.428.001 3.015-.036 3.557-.332 4.727-.442 1.747-1.097 3.005-2.126 4.084-.99 1.038-1.805 1.53-3.966 2.392-.874.35-1.675.669-1.78.71-.152.06-.182-2.011-.15-10.27l.038-10.345 1.362-.117c.294-.025.58-.038.86-.042zm85.65.385c.069 0 .167.187.218.416.072.315 1.535 5.536 2.142 7.643.068.238-.045.262-1.115.234-2.512-.064-3.615-.14-3.73-.253-.065-.066.288-1.373.785-2.906a169.86 169.86 0 0 0 1.239-3.961c.184-.645.392-1.173.46-1.173zM38.357 30.648v1.988l1.095-.13c.602-.072 1.402-.111 1.778-.087l.683.045.04 5.207c.032 4.21 0 5.267-.167 5.523l-.209.317h2.771l-.197-.575c-.151-.439-.19-1.754-.159-5.524l.04-4.948 1.493-.044c1.155-.034 1.576.01 1.854.193l.36.236.003-.57c0-.315.04-.81.089-1.102l.088-.529h-4.781zm41.882 0-1.543.047-1.542.046.064.436c.07.471-3.436 11.229-3.827 11.746-.12.157-.22.354-.221.437-.003.087.474.152 1.13.154l1.134.003.01-.609c.005-.334.193-1.118.416-1.742l.407-1.135h4.505l.35 1.059c.194.582.355 1.365.358 1.74l.007.681h1.287c.707 0 1.287-.008 1.287-.019 0-.01-.11-.283-.245-.606-.135-.322-1.025-2.97-1.976-5.882-1.264-3.873-1.712-5.44-1.665-5.827zm5.917 0-1.444.032c-.796.017-1.483.069-1.528.113-.045.045-.01.082.08.082.225 0 .959 1.141 2.746 4.27l1.531 2.684-.007 2.311c-.004 1.456-.076 2.509-.196 2.843l-.19.531h1.407c.774-.002 1.407-.015 1.407-.03 0-.016-.071-.22-.16-.452-.089-.233-.167-1.515-.173-2.848l-.011-2.423 1.684-3.167c.927-1.742 1.822-3.313 1.99-3.491.167-.178.303-.354.303-.39 0-.036-.578-.065-1.286-.065h-1.286l-.001.361c0 .414-2.214 4.708-2.427 4.708-.077 0-.306-.323-.507-.718a50.945 50.945 0 0 0-1.22-2.157c-.618-1.037-.836-1.543-.784-1.816zm-31.316.008h-.517c-1.193.007-1.815.079-2.195.253-1.552.713-2.746 2.153-3.254 3.925-.397 1.382-.361 3.696.074 4.855.66 1.757 2.026 3.197 3.484 3.672.456.148 1.181.209 2.198.183 1.337-.034 1.621-.09 2.4-.484 1.675-.848 2.873-2.714 3.166-4.933.404-3.058-.902-5.787-3.376-7.053-.672-.344-.903-.412-1.98-.418zm8.435.023c-1.03 0-1.207.051-1.158.197.121.362.087 12-.036 12.333l-.112.302 2.76-.045c3.09-.05 4.015-.224 5.106-.967.888-.603 1.33-1.164 1.764-2.24.564-1.398.751-2.972.518-4.36-.28-1.666-.685-2.63-1.478-3.512-1.24-1.38-2.13-1.63-6.025-1.694-.557-.01-.995-.014-1.339-.014zm-8.937 1.565a3.6 3.6 0 0 1 1.585.409c1.404.71 2.26 2.387 2.26 4.426 0 2.516-1.257 4.417-3.194 4.832-.892.192-.8.195-1.616-.06-1.01-.315-1.628-.885-2.18-2.008l-.502-1.018.002-1.667c.002-1.517.042-1.754.441-2.623.686-1.493 1.883-2.307 3.204-2.291zm10.125.068 1.212.015c3.393.04 4.382 1.111 4.383 4.752 0 .957-.083 2.017-.185 2.354-.294.972-1.132 1.838-2.041 2.108-.439.13-1.357.23-2.113.23h-1.336l.04-4.73zm14.163.833c.062 0 .184.323.271.718.087.396.395 1.534.684 2.529.289.994.491 1.862.45 1.929-.04.066-.121.106-.179.089-.057-.018-.773-.054-1.59-.082-1.091-.036-1.467-.098-1.41-.232.041-.101.432-1.257.868-2.567.437-1.311.844-2.384.906-2.384zM30.639 48.43V49.485l32.272.003c17.75.002 33.686-.042 35.413-.097l3.14-.1v-.661l-3.429-.1c-1.886-.055-17.822-.1-35.413-.1zm60.82 7.021.096.383c.052.212.353.999.667 1.75.314.75.856 2.05 1.205 2.89.349.84.738 1.673.864 1.853.155.222.386.328.712.326l.483-.004 1.321-3.288a422.419 422.419 0 0 0 1.42-3.564c.086-.24.026-.27-.473-.227-.315.026-.629.15-.7.275-.07.125-.545 1.249-1.054 2.498-.51 1.248-.97 2.317-1.023 2.375-.053.057-.55-1.067-1.104-2.498l-1.008-2.602-.703-.083zm-15.799.026c-.391.016-1.043.213-1.147.396-.384.68-1.857 2.53-1.962 2.464-.07-.043-.479-.689-.91-1.436l-.784-1.358h-1.664l.208.289c.114.159.778 1.13 1.476 2.156l1.27 1.867-.093 1.4-.092 1.4h1.312l-.017-1.475-.017-1.475 1.048-1.59c.577-.874 1.211-1.786 1.41-2.027.197-.24.303-.492.236-.56-.042-.042-.143-.057-.274-.051zm-61.82.018v7.16h1.352l.043-1.551.043-1.551.833.051c.457.028.914.13 1.014.227.1.096.513.72.916 1.386.68 1.122.78 1.221 1.371 1.347 1.035.22 1.029.155-.188-1.83l-.668-1.09.53-.175c1.487-.49 1.497-3.386.012-3.686-.27-.054-1.564-.14-2.874-.193zm48.277.006v7.154h1.362V59.63l.946.002.946.003.817 1.365c.45.75.859 1.388.908 1.418.05.029.38.1.734.16.86.141.843-.06-.114-1.45-.416-.604-.756-1.187-.756-1.296 0-.11.234-.296.52-.415.578-.242 1.144-1.158 1.144-1.85 0-.56-.672-1.66-1.092-1.787-.19-.058-1.486-.144-2.88-.191zm-16.053.026.251.575c.138.317.789 1.861 1.446 3.432.657 1.572 1.233 2.916 1.277 2.99.166.266 1.106.143 1.273-.168.21-.392 1.73-4.148 2.283-5.64l.435-1.173h-.587c-.526 0-.604.05-.757.492-.507 1.458-1.913 4.65-2.032 4.61-.076-.026-.393-.725-.704-1.553a306.39 306.39 0 0 0-.946-2.49l-.381-.984-.779-.045zm69.258.005c-1.494.023-2.714.587-3.338 1.596-.41.662-.456.861-.452 1.96.003 1.015.066 1.335.378 1.89.428.762.892 1.147 1.746 1.452.805.286 2.722.282 3.575-.008 1.184-.404 1.335-.642 1.335-2.118v-1.28l-1.362-.026c-.75-.013-1.482-.03-1.628-.038-.206-.01-.275.13-.31.63-.052.712.038.763.858.477.263-.092.653-.124.865-.07.324.08.377.17.337.568-.064.641-.63 1.029-1.645 1.127-1.648.16-3.09-1.051-3.09-2.593 0-.842.51-1.746 1.22-2.164.512-.3.751-.34 1.767-.29.946.047 1.243.122 1.524.386.541.509.815.422.937-.297.124-.736.072-.783-1.145-1.042a7.073 7.073 0 0 0-1.572-.16zm-33.823.01-.043 3.494c-.024 1.922-.015 3.522.02 3.557.034.034 1.38.062 2.989.062h2.925v-.29c0-.757-.04-.77-2.438-.77H82.7v-6.053h-.6zm7.026 0v7.126l.577-.044.577-.045.029-3.518.028-3.519h-.606zm11.123 0V62.655H100.941l.014-3.556.015-3.557h-.661zm3.633 0v7.133l.492-.048.492-.048v-2.61c0-2.715.078-3.015.588-2.237.46.703 3.881 4.613 4.171 4.768.16.085.43.155.602.155h.313V55.542h-1.06l-.007 2.535-.008 2.536-.56-.665c-3.847-4.568-3.648-4.376-4.532-4.395zm-62.09.01c-1.03.013-2.044.32-2.67.931-1.948 1.905-1.324 5.068 1.176 5.962.304.108 1.032.2 1.62.204.858.005 1.223-.072 1.867-.392 2.087-1.04 2.603-3.89 1.02-5.632-.66-.726-1.847-1.089-3.014-1.074zm-8.063.01c-2.544.008-3.944 1.342-3.916 3.763.019 1.634.731 2.63 2.235 3.123.402.132 1.096.186 1.921.152 2.199-.093 3.393-.992 2.655-1.997l-.216-.294-.428.4a3.66 3.66 0 0 1-2.138.984c-.98.113-2.213-.523-2.65-1.366-.882-1.698.159-3.533 2.094-3.694 1.159-.096 1.817.066 2.422.598l.528.463.226-.54c.125-.299.226-.64.226-.758 0-.341-1.183-.738-2.434-.817a7.956 7.956 0 0 0-.525-.016zm21.61.069c-.243-.012-.267.267-.308 3.506l-.044 3.518H60.603v-1.052l-2.383-.04-2.384-.042v-1.816l1.59-.076 1.589-.076.047-.492.047-.492h-3.348v-1.967h2.333c2.42 0 2.549-.035 2.391-.643-.062-.239-.336-.268-2.774-.29-1.489-.014-2.826-.031-2.972-.038zm-29.671.063-2.98.001.02 3.367c.011 1.852.028 3.428.038 3.502.01.077.561.094 1.267.04.687-.054 2.05-.099 3.027-.1h1.779v-.908H23.36l.045-.946.045-.945 1.59-.076 1.588-.076v-.908l-1.606-.042-1.606-.044-.089-.855c-.048-.47-.053-.91-.011-.978.042-.068 1.124-.124 2.404-.124 1.403 0 2.366-.061 2.423-.153.052-.084.05-.288-.002-.454l-.095-.3zm38.412.908h1.503c1.927 0 2.221.11 2.321.86.06.452.012.635-.225.843-.25.217-.598.264-1.951.264h-1.648v-.984zm-21.821.007c.476.006.707.095 1.158.36.835.489 1.14 1.04 1.14 2.054 0 1.247-.59 2.065-1.801 2.492-.794.28-1.123.282-1.879.013-1.167-.417-1.847-1.475-1.73-2.695.133-1.376.985-2.118 2.536-2.205.231-.013.417-.02.576-.019zm-26.531.068 1.782.012c.98.007 1.84.075 1.91.152.071.077.172.43.226.786.09.595.066.657-.294.794-.215.082-1.103.148-1.974.148-1.786 0-1.771.01-1.697-1.154z" style="fill:#000;stroke-width:1.706"/>
</svg>
