<?xml version="1.0" encoding="UTF-8" standalone="no"?>
<!-- Created with Inkscape (http://www.inkscape.org/) -->

<svg
   width="500"
   height="500"
   viewBox="0 0 132.29166 132.29167"
   version="1.1"
   id="svg1"
   sodipodi:docname="dsaa2.svg"
   inkscape:version="1.4 (86a8ad7, 2024-10-11)"
   xmlns:inkscape="http://www.inkscape.org/namespaces/inkscape"
   xmlns:sodipodi="http://sodipodi.sourceforge.net/DTD/sodipodi-0.dtd"
   xmlns="http://www.w3.org/2000/svg"
   xmlns:svg="http://www.w3.org/2000/svg">
  <sodipodi:namedview
     id="namedview1"
     pagecolor="#ffffff"
     bordercolor="#111111"
     borderopacity="1"
     inkscape:showpageshadow="0"
     inkscape:pageopacity="0"
     inkscape:pagecheckerboard="1"
     inkscape:deskcolor="#d1d1d1"
     inkscape:document-units="px"
     inkscape:zoom="0.78573232"
     inkscape:cx="362.71895"
     inkscape:cy="390.7183"
     inkscape:window-width="1920"
     inkscape:window-height="1115"
     inkscape:window-x="-9"
     inkscape:window-y="-9"
     inkscape:window-maximized="1"
     inkscape:current-layer="layer1" />
  <defs
     id="defs1" />
  <g
     inkscape:label="Layer 1"
     inkscape:groupmode="layer"
     id="layer1"
     transform="translate(-1.9709969,-8.3062293)">
    <g
       id="g8"
       transform="matrix(1.6674814,0,0,1.6674814,-1.6688133,-59.972335)">
      <path
         id="path702"
         style="fill:#8cb534;stroke-width:0.584544"
         d="m 32.36542,67.860574 c -3.030198,2.8e-5 -5.486636,2.676057 -5.486607,5.977075 0.0017,2.990792 2.03218,5.519914 4.752947,5.91986 -0.156368,0.04509 -0.301395,0.08321 -0.495073,0.149871 -0.872707,0.300362 -1.180741,0.320721 -3.43764,0.227286 -3.315357,-0.137258 -12.086326,0.171201 -13.415416,0.471693 -2.098436,0.474442 -3.254712,1.555717 -3.260391,3.049012 -0.0057,1.486651 1.32675,2.260352 4.355011,2.528816 0.619793,0.05491 2.802538,0.19303 4.850665,0.307204 2.048126,0.114168 3.768809,0.25543 3.823837,0.31373 0.116565,0.123504 0.561931,13.339669 0.710774,22.703559 0.08256,5.19416 0.148497,6.6004 0.338655,7.23416 0.300242,1.00069 1.395107,2.20095 2.229743,2.44426 1.457381,0.42484 2.983188,-0.31353 3.715547,-1.79814 0.293127,-0.5942 0.325899,-1.05725 0.490087,-6.9251 0.09677,-3.45857 0.225372,-6.43159 0.285835,-6.60671 0.256878,-0.744 0.44908,-1.03479 0.683771,-1.03479 0.234691,0 0.426591,0.29079 0.683475,1.03479 0.06046,0.17512 0.189357,3.14814 0.286131,6.60671 0.164187,5.86785 0.196665,6.3309 0.489791,6.9251 1.061235,2.15129 3.421518,2.56488 5.013245,0.8784 1.130869,-1.19819 1.152954,-1.35109 1.2707,-8.75868 0.148843,-9.36389 0.594198,-22.580055 0.710768,-22.703559 0.05503,-0.0583 1.775711,-0.199562 3.823838,-0.31373 2.048127,-0.114174 4.231167,-0.252267 4.850965,-0.307204 3.028256,-0.268464 4.36039,-1.042165 4.354711,-2.528816 -0.0057,-1.493295 -1.161944,-2.57457 -3.260385,-3.049012 -1.329085,-0.300492 -10.09977,-0.608951 -13.415127,-0.471693 -2.256899,0.09344 -2.565228,0.07308 -3.43793,-0.227286 -0.236871,-0.08153 -0.421952,-0.134197 -0.605419,-0.18345 2.64057,-0.481915 4.576255,-2.969627 4.5801,-5.886281 2.8e-5,-3.301018 -2.45641,-5.977047 -5.486608,-5.977075 z"
         sodipodi:nodetypes="sccssssssssssssssssssssssssssccs" />
      <path
         id="path702-37"
         style="fill:#0b6abb;fill-opacity:1;stroke-width:0.612194"
         d="m 27.309788,88.285664 c -0.0078,3.17352 2.788425,5.75306 6.245566,5.76157 3.132248,0.006 5.786248,-2.11401 6.212147,-4.96243 0.04679,0.16389 0.08636,0.31587 0.155681,0.51888 0.31231,0.91476 0.332833,1.23741 0.229137,3.60082 -0.152331,3.4718 0.148025,12.658396 0.459285,14.051126 0.49145,2.19892 1.62087,3.41267 3.184782,3.42248 1.556944,0.01 2.370693,-1.38364 2.659685,-4.55443 0.05912,-0.64897 0.209414,-2.93459 0.334293,-5.0793 0.124867,-2.144686 0.277265,-3.946386 0.338461,-4.003866 0.129643,-0.12176 13.972045,-0.55399 23.779195,-0.68564 5.44004,-0.073 6.91296,-0.13844 7.57719,-0.33595 1.04879,-0.31185 2.30865,-1.45539 2.56562,-2.32888 0.44872,-1.5252 -0.32063,-3.12509 -1.87355,-3.89592 -0.62156,-0.30853 -1.10642,-0.34406 -7.25137,-0.53119 -3.6219,-0.1103 -6.7352,-0.25268 -6.91844,-0.31646 -0.77852,-0.27095 -1.08256,-0.47299 -1.08196,-0.71878 5.7e-4,-0.2458 0.30564,-0.44602 1.08549,-0.71312 0.18356,-0.0629 3.29752,-0.19017 6.91993,-0.28257 6.1458,-0.15677 6.63084,-0.18959 7.2539,-0.49504 2.25577,-1.10586 2.69503,-3.576701 0.93291,-5.24808 -1.25193,-1.187453 -1.412,-1.210975 -9.16965,-1.353458 -9.80638,-0.180123 -23.646462,-0.680738 -23.775509,-0.803147 -0.06091,-0.05775 -0.2044,-1.860212 -0.31867,-4.005499 -0.114276,-2.145292 -0.25325,-4.431938 -0.309181,-5.081192 -0.273325,-3.172176 -1.080168,-4.569316 -2.637152,-4.567215 -1.563934,0.0023 -2.69934,1.210237 -3.201654,3.406696 -0.318142,1.391172 -0.663889,10.575875 -0.52872,14.04839 0.09201,2.363885 0.06989,2.686745 -0.246935,3.599945 -0.08599,0.24786 -0.141631,0.44156 -0.19369,0.63358 -0.497872,-2.76671 -3.098236,-4.800385 -6.152824,-4.811959 -3.457142,-0.0086 -6.266102,2.557129 -6.273967,5.730639 z"
         sodipodi:nodetypes="sccssssssssssssssssssssssssssccs" />
      <path
         id="path702-0"
         style="fill:#8cb534;stroke-width:0.584544"
         d="m 50.094132,93.452614 c 3.02938,-0.07029 5.42311,-2.80256 5.34654,-6.102692 -0.071,-2.989945 -2.15963,-5.471308 -4.88894,-5.80806 0.15529,-0.04873 0.29939,-0.09017 0.49147,-0.161308 0.86551,-0.320516 1.17298,-0.348013 3.43144,-0.306932 3.31766,0.06034 12.07911,-0.451409 13.40088,-0.782635 2.08687,-0.522973 3.21776,-1.630769 3.18881,-3.123791 -0.0288,-1.486384 -1.3788,-2.228982 -4.41247,-2.427158 -0.6209,-0.04055 -2.80626,-0.127996 -4.85649,-0.194649 -2.05022,-0.06665 -3.77372,-0.16797 -3.83008,-0.22498 -0.1194,-0.120767 -0.87109,-13.323055 -1.23702,-22.68097 -0.20298,-5.190857 -0.3015,-6.595181 -0.5063,-7.224366 -0.32337,-0.993457 -1.44577,-2.168008 -2.28583,-2.391892 -1.46683,-0.390945 -2.97511,0.382609 -3.67285,1.883797 -0.27927,0.600842 -0.3013,1.064528 -0.32938,6.934602 -0.0166,3.459895 -0.0762,6.435093 -0.13257,6.61157 -0.23955,0.749748 -0.42496,1.044913 -0.65959,1.050359 -0.23463,0.0057 -0.43322,-0.28082 -0.70728,-1.01866 -0.0645,-0.173665 -0.26231,-3.142895 -0.43925,-6.598304 -0.3002,-5.862458 -0.34341,-6.324633 -0.65024,-6.91188 -1.11082,-2.126098 -3.48006,-2.484844 -5.032258,-0.761913 -1.102782,1.224088 -1.121317,1.377457 -1.067266,8.785791 0.06832,9.364815 -0.07047,22.587757 -0.184143,22.71393 -0.05367,0.05956 -1.770606,0.240682 -3.815536,0.402309 -2.044929,0.161637 -4.224181,0.350312 -4.842537,0.419606 -3.02122,0.338609 -4.335051,1.142988 -4.294907,2.62911 0.04032,1.492761 1.221334,2.546931 3.330213,2.972591 1.335695,0.269594 10.111173,0.374602 13.422454,0.160502 2.25413,-0.145737 2.56285,-0.132533 3.44228,0.147509 0.23869,0.07601 0.42495,0.124379 0.60951,0.169367 -2.62869,0.543014 -4.50617,3.074936 -4.44239,5.990898 0.0765,3.300131 2.59434,5.91848 5.62373,5.848249 z"
         sodipodi:nodetypes="sccssssssssssssssssssssssssssccs" />
      <path
         id="path702-37-8"
         style="fill:#0b6abb;fill-opacity:1;stroke-width:0.612194"
         d="m 56.425551,71.227221 c -0.03589,-3.173322 -2.867299,-5.714154 -6.324231,-5.675112 -3.132031,0.03714 -5.756621,2.193404 -6.143295,5.047415 -0.04907,-0.163223 -0.0907,-0.314655 -0.162803,-0.516687 -0.324865,-0.910387 -0.349824,-1.23272 -0.278651,-3.597325 0.10456,-3.47357 -0.32214,-12.655167 -0.652525,-14.043488 -0.521651,-2.191944 -1.667665,-3.390057 -3.23156,-3.378347 -1.556932,0.01159 -2.351435,1.416119 -2.596786,4.590594 -0.0502,0.649715 -0.169026,2.937183 -0.264391,5.083407 -0.09535,2.146207 -0.222953,3.949835 -0.283353,4.008152 -0.127951,0.123527 -13.963099,0.74613 -23.76751,1.01268 -5.4385239,0.147849 -6.9103979,0.233521 -7.5718509,0.440147 -1.044403,0.326251 -2.288417,1.487008 -2.533347,2.363946 -0.427694,1.531235 0.36359,3.12039 1.926973,3.869786 0.625739,0.299952 1.111044,0.328801 7.2579859,0.43139 3.623078,0.06047 6.738044,0.160002 6.922148,0.221255 0.782169,0.260217 1.088959,0.458058 1.091741,0.70384 0.0028,0.245776 -0.299481,0.450176 -1.075585,0.727981 -0.182678,0.06539 -3.294589,0.235514 -6.915384,0.37773 -6.1430629,0.241296 -6.6275959,0.280781 -7.2464009,0.594772 -2.240351,1.136786 -2.645579,3.613441 -0.860634,5.260423 1.26815,1.170116 1.428533,1.191434 9.1874009,1.227194 9.807927,0.0452 23.653586,0.35539 23.784308,0.476015 0.0617,0.0569 0.229966,1.857226 0.373738,4.000735 0.143778,2.143521 0.31419,4.428036 0.379048,5.076462 0.316938,3.168115 1.14292,4.554022 2.699727,4.5305 1.563758,-0.02379 2.68244,-1.247252 3.154491,-3.450412 0.298976,-1.395419 0.518346,-10.584007 0.335423,-14.054335 -0.124526,-2.362396 -0.106848,-2.68553 0.197387,-3.602998 0.08258,-0.249018 0.135543,-0.443469 0.184955,-0.636187 0.535887,2.759599 3.163981,4.757314 6.218439,4.726864 3.456931,-0.03896 6.23033,-2.64308 6.194542,-5.816397 z"
         sodipodi:nodetypes="sccssssssssssssssssssssssssssccs" />
      <path
         d="m 32.222407,80.272088 c 3.02938,-0.07029 5.42311,-2.80256 5.34654,-6.102692 -0.071,-2.989945 -2.15963,-5.471308 -4.88894,-5.80806 0.15529,-0.04873 0.29939,-0.09017 0.49147,-0.161308 0.86551,-0.320516 1.17298,-0.348013 3.43144,-0.306932 3.31766,0.06034 -12.92492,0.437069 -9.61364,0.222969 2.25413,-0.145737 2.56285,-0.132533 3.44228,0.147509 0.23869,0.07601 0.42495,0.124379 0.60951,0.169367 -2.62869,0.543014 -4.50617,3.074936 -4.44239,5.990898 0.0765,3.300131 2.59434,5.91848 5.62373,5.848249 z"
         style="fill:#8cb534;stroke-width:0.584544"
         id="path1" />
      <path
         d="m 46.399535,81.682364 c -0.0609,-0.0577 -0.2044,-1.86022 -0.31867,-4.0055 -0.11427,-2.1453 -0.25325,-4.43194 -0.30918,-5.0812 -0.27332,-3.17217 -1.08017,-4.56931 -2.63715,-4.56721 -1.56394,0.002 -2.69934,1.21024 -3.20166,3.4067 -0.31814,1.39117 -0.66388,10.57587 -0.52872,14.04839"
         style="fill:#0b6abb;fill-opacity:1;stroke-width:0.612194"
         id="path1-2" />
    </g>
  </g>
</svg>
