<svg xmlns="http://www.w3.org/2000/svg" xmlns:xlink="http://www.w3.org/1999/xlink" xml:space="preserve" id="svg1" width="300" height="100" version="1.1" viewBox="0 0 79.375 26.458">
  <defs id="defs1">
    <linearGradient id="linearGradient712">
      <stop id="stop712" offset="0" style="stop-color:#256422;stop-opacity:1"/>
      <stop id="stop717" offset=".14" style="stop-color:#2a5a24;stop-opacity:1"/>
      <stop id="stop715" offset=".23" style="stop-color:#5a003b;stop-opacity:1"/>
      <stop id="stop716" offset=".261" style="stop-color:#256222;stop-opacity:1"/>
      <stop id="stop720" offset=".287" style="stop-color:#348b31;stop-opacity:1"/>
      <stop id="stop718" offset=".303" style="stop-color:#46b742;stop-opacity:1"/>
      <stop id="stop719" offset=".344" style="stop-color:#256222;stop-opacity:1"/>
      <stop id="stop714" offset=".985" style="stop-color:#256422;stop-opacity:1"/>
    </linearGradient>
    <linearGradient id="linearGradient711">
      <stop id="stop703" offset="0" style="stop-color:#4c1c45;stop-opacity:1"/>
      <stop id="stop704" offset=".276" style="stop-color:#552652;stop-opacity:1"/>
      <stop id="stop705" offset=".519" style="stop-color:#ac8acb;stop-opacity:1"/>
      <stop id="stop706" offset=".534" style="stop-color:#c18cce;stop-opacity:1"/>
      <stop id="stop707" offset=".59" style="stop-color:#b290d3;stop-opacity:1"/>
      <stop id="stop708" offset=".703" style="stop-color:#501f4e;stop-opacity:1"/>
      <stop id="stop709" offset=".787" style="stop-color:#8cb534;stop-opacity:1"/>
      <stop id="stop710" offset=".812" style="stop-color:#8748b9;stop-opacity:1"/>
      <stop id="stop711" offset="1" style="stop-color:#000;stop-opacity:1"/>
    </linearGradient>
    <linearGradient id="linearGradient587">
      <stop id="stop579" offset=".115" style="stop-color:#bf50af;stop-opacity:1"/>
      <stop id="stop588" offset=".139" style="stop-color:#1e6a00;stop-opacity:1"/>
      <stop id="stop580" offset=".736" style="stop-color:#00a63f;stop-opacity:1"/>
      <stop id="stop581" offset=".757" style="stop-color:#ac8acb;stop-opacity:1"/>
      <stop id="stop583" offset=".818" style="stop-color:#b290d3;stop-opacity:1"/>
      <stop id="stop589" offset=".832" style="stop-color:#842e50;stop-opacity:1"/>
      <stop id="stop584" offset=".895" style="stop-color:#6f0013;stop-opacity:1"/>
      <stop id="stop585" offset=".899" style="stop-color:#8748b9;stop-opacity:1"/>
      <stop id="stop586" offset=".969" style="stop-color:#8748b9;stop-opacity:1"/>
      <stop id="stop587" offset="1" style="stop-color:#08b2ff;stop-opacity:1"/>
    </linearGradient>
    <linearGradient id="linearGradient322-1">
      <stop id="stop343" offset="0" style="stop-color:#4c1c45;stop-opacity:1"/>
      <stop id="stop556" offset=".276" style="stop-color:#552652;stop-opacity:1"/>
      <stop id="stop557" offset=".519" style="stop-color:#ac8acb;stop-opacity:1"/>
      <stop id="stop558" offset=".534" style="stop-color:#c18cce;stop-opacity:1"/>
      <stop id="stop345" offset=".59" style="stop-color:#b290d3;stop-opacity:1"/>
      <stop id="stop346" offset=".703" style="stop-color:#501f4e;stop-opacity:1"/>
      <stop id="stop347" offset=".787" style="stop-color:#8748b9;stop-opacity:1"/>
      <stop id="stop348" offset=".812" style="stop-color:#8748b9;stop-opacity:1"/>
      <stop id="stop349" offset="1" style="stop-color:#000;stop-opacity:1"/>
    </linearGradient>
    <linearGradient xlink:href="#linearGradient322-1" id="linearGradient323-9" x1="-894.698" x2="-934.818" y1="1122.533" y2="1262.446" gradientTransform="translate(218.106 -35.24)" gradientUnits="userSpaceOnUse"/>
    <linearGradient xlink:href="#linearGradient322-1" id="linearGradient693" x1="-962.504" x2="-867.013" y1="1247.414" y2="1137.564" gradientTransform="translate(167.803 124.047)" gradientUnits="userSpaceOnUse"/>
    <linearGradient xlink:href="#linearGradient322-1" id="linearGradient694" x1="-987.535" x2="-841.982" y1="1192.489" y2="1192.489" gradientTransform="translate(463.45 124.836)" gradientUnits="userSpaceOnUse"/>
    <linearGradient xlink:href="#linearGradient322-1" id="linearGradient323" x1="-987.535" x2="-841.982" y1="1192.489" y2="1192.489" gradientTransform="translate(195.494 -181.142)" gradientUnits="userSpaceOnUse"/>
    <linearGradient xlink:href="#linearGradient322-1" id="linearGradient558" x1="-967.109" x2="-862.407" y1="1243.044" y2="1141.935" gradientTransform="translate(58.743 279.338)" gradientUnits="userSpaceOnUse"/>
    <linearGradient xlink:href="#linearGradient712" id="linearGradient713" x1="-228.606" x2="-169.369" y1="-20.587" y2="-72.081" gradientTransform="matrix(.9978 0 0 .98825 -.374 59.03)" gradientUnits="userSpaceOnUse"/>
    <filter id="filter320" width="1.049" height="1.068" x="-.008" y="-.009" style="color-interpolation-filters:sRGB">
      <feFlood id="feFlood319" flood-color="#246422" flood-opacity="1" result="flood"/>
      <feGaussianBlur id="feGaussianBlur319" in="SourceGraphic" result="blur" stdDeviation=".5"/>
      <feOffset id="feOffset319" dx="4.7" dy="7" in="blur" result="offset"/>
      <feComposite id="feComposite319" in="flood" in2="offset" operator="in" result="comp1"/>
      <feComposite id="feComposite320" in="SourceGraphic" in2="comp1" operator="over" result="comp2"/>
    </filter>
    <filter id="filter320-6" width="1.049" height="1.068" x="-.008" y="-.009" style="color-interpolation-filters:sRGB">
      <feFlood id="feFlood319-1" flood-color="#246422" flood-opacity="1" result="flood"/>
      <feGaussianBlur id="feGaussianBlur319-4" in="SourceGraphic" result="blur" stdDeviation=".5"/>
      <feOffset id="feOffset319-2" dx="4.7" dy="7" in="blur" result="offset"/>
      <feComposite id="feComposite319-3" in="flood" in2="offset" operator="in" result="comp1"/>
      <feComposite id="feComposite320-2" in="SourceGraphic" in2="comp1" operator="over" result="comp2"/>
    </filter>
    <filter id="filter559" width="1.049" height="1.068" x="-.008" y="-.009" style="color-interpolation-filters:sRGB">
      <feFlood id="feFlood558" flood-color="#246422" flood-opacity="1" result="flood"/>
      <feGaussianBlur id="feGaussianBlur558" in="SourceGraphic" result="blur" stdDeviation=".5"/>
      <feOffset id="feOffset558" dx="4.7" dy="7" in="blur" result="offset"/>
      <feComposite id="feComposite558" in="flood" in2="offset" operator="in" result="comp1"/>
      <feComposite id="feComposite559" in="SourceGraphic" in2="comp1" operator="over" result="comp2"/>
    </filter>
    <filter id="filter695" width="1.078" height="1.065" x="-.013" y="-.008" style="color-interpolation-filters:sRGB">
      <feFlood id="feFlood694" flood-color="#246422" flood-opacity="1" result="flood"/>
      <feGaussianBlur id="feGaussianBlur694" in="SourceGraphic" result="blur" stdDeviation=".5"/>
      <feOffset id="feOffset694" dx="4.7" dy="7" in="blur" result="offset"/>
      <feComposite id="feComposite694" in="flood" in2="offset" operator="in" result="comp1"/>
      <feComposite id="feComposite695" in="SourceGraphic" in2="comp1" operator="over" result="comp2"/>
    </filter>
    <filter id="filter697" width="1.052" height="1.066" x="-.009" y="-.008" style="color-interpolation-filters:sRGB">
      <feFlood id="feFlood695" flood-color="#246422" flood-opacity="1" result="flood"/>
      <feGaussianBlur id="feGaussianBlur695" in="SourceGraphic" result="blur" stdDeviation=".5"/>
      <feOffset id="feOffset695" dx="4.7" dy="7" in="blur" result="offset"/>
      <feComposite id="feComposite696" in="flood" in2="offset" operator="in" result="comp1"/>
      <feComposite id="feComposite697" in="SourceGraphic" in2="comp1" operator="over" result="comp2"/>
    </filter>
    <filter id="filter699" width="1.052" height="1.066" x="-.009" y="-.008" style="color-interpolation-filters:sRGB">
      <feFlood id="feFlood697" flood-color="#246422" flood-opacity="1" result="flood"/>
      <feGaussianBlur id="feGaussianBlur697" in="SourceGraphic" result="blur" stdDeviation=".5"/>
      <feOffset id="feOffset697" dx="4.7" dy="7" in="blur" result="offset"/>
      <feComposite id="feComposite698" in="flood" in2="offset" operator="in" result="comp1"/>
      <feComposite id="feComposite699" in="SourceGraphic" in2="comp1" operator="over" result="comp2"/>
    </filter>
    <filter id="filter697-2" width="1.052" height="1.066" x="-.009" y="-.008" style="color-interpolation-filters:sRGB">
      <feFlood id="feFlood695-5" flood-color="#246422" flood-opacity="1" result="flood"/>
      <feGaussianBlur id="feGaussianBlur695-0" in="SourceGraphic" result="blur" stdDeviation=".5"/>
      <feOffset id="feOffset695-9" dx="4.7" dy="7" in="blur" result="offset"/>
      <feComposite id="feComposite696-4" in="flood" in2="offset" operator="in" result="comp1"/>
      <feComposite id="feComposite697-7" in="SourceGraphic" in2="comp1" operator="over" result="comp2"/>
    </filter>
    <filter id="filter699-8" width="1.052" height="1.066" x="-.009" y="-.008" style="color-interpolation-filters:sRGB">
      <feFlood id="feFlood697-3" flood-color="#246422" flood-opacity="1" result="flood"/>
      <feGaussianBlur id="feGaussianBlur697-5" in="SourceGraphic" result="blur" stdDeviation=".5"/>
      <feOffset id="feOffset697-1" dx="4.7" dy="7" in="blur" result="offset"/>
      <feComposite id="feComposite698-2" in="flood" in2="offset" operator="in" result="comp1"/>
      <feComposite id="feComposite699-0" in="SourceGraphic" in2="comp1" operator="over" result="comp2"/>
    </filter>
    <filter id="filter695-1" width="1.078" height="1.065" x="-.013" y="-.008" style="color-interpolation-filters:sRGB">
      <feFlood id="feFlood694-6" flood-color="#246422" flood-opacity="1" result="flood"/>
      <feGaussianBlur id="feGaussianBlur694-4" in="SourceGraphic" result="blur" stdDeviation=".5"/>
      <feOffset id="feOffset694-0" dx="4.7" dy="7" in="blur" result="offset"/>
      <feComposite id="feComposite694-6" in="flood" in2="offset" operator="in" result="comp1"/>
      <feComposite id="feComposite695-1" in="SourceGraphic" in2="comp1" operator="over" result="comp2"/>
    </filter>
    <filter id="filter559-8" width="1.049" height="1.068" x="-.008" y="-.009" style="color-interpolation-filters:sRGB">
      <feFlood id="feFlood558-9" flood-color="#246422" flood-opacity="1" result="flood"/>
      <feGaussianBlur id="feGaussianBlur558-8" in="SourceGraphic" result="blur" stdDeviation=".5"/>
      <feOffset id="feOffset558-4" dx="4.7" dy="7" in="blur" result="offset"/>
      <feComposite id="feComposite558-1" in="flood" in2="offset" operator="in" result="comp1"/>
      <feComposite id="feComposite559-4" in="SourceGraphic" in2="comp1" operator="over" result="comp2"/>
    </filter>
  </defs>
  <g id="layer1" transform="translate(238.61)">
    <g id="g699" transform="translate(-30.518 -3.159) scale(.84967)">
      <path id="path274" d="M-644.11 1539.539c0-.055 1.875-1.322 4.167-2.816 6.47-4.216 12.62-8.289 12.766-8.455.073-.083.966-.68 1.984-1.326 2.106-1.338 2.924-2.103 3.18-2.971.215-.735 2.634-7.286 3.3-8.938a27.94 27.94 0 0 0 .75-2.117c.275-.944 1.452-4.202 1.863-5.16.125-.29.497-1.303.826-2.248.33-.946 1.25-3.566 2.043-5.821.794-2.256 1.555-4.475 1.69-4.932.137-.458.425-.978.64-1.157.216-.18.393-.467.393-.64s.305-1.081.679-2.018c.373-.938.724-1.883.778-2.101.055-.218.354-1.052.664-1.852.31-.8.665-1.753.79-2.117.123-.364.477-1.316.786-2.117.924-2.393 1.345-3.549 1.447-3.968.15-.616 1.157-3.101 1.977-4.876.407-.884 1.308-3.214 2-5.178a297.099 297.099 0 0 1 2.12-5.821 759.363 759.363 0 0 0 5.042-13.494c1.249-3.42 2.382-6.456 2.517-6.747.135-.291.417-1.005.627-1.587.21-.583.758-2.07 1.22-3.308 1.446-3.88 2.394-6.458 2.625-7.143.833-2.474 6.255-17.013 7.154-19.183.12-.29.484-1.243.807-2.117.644-1.74.66-1.78 1.826-4.591.444-1.07.807-2.062.807-2.203 0-.58 1.943-4.729 2.121-4.531.107.117 1.055 2.654 2.108 5.637 1.053 2.983 1.987 5.543 2.077 5.689.089.145.186.422.215.616.03.193.141.55.25.793.107.244.215.502.24.575.025.073.183.465.352.872.168.406.38 1.031.47 1.388.089.358.243.65.342.65.099 0 .2.209.226.463.093.935 1.32 4.016 1.526 3.83.117-.105.127-.043.022.14a.705.705 0 0 0 .02.66c.115.182.22.39.234.464.248 1.334.48 2.146.642 2.247.11.069.536 1.131.946 2.363.409 1.231.84 2.18.956 2.108.116-.072.15.03.074.227-.075.197.068.829.318 1.403.25.574.467 1.104.482 1.177.015.073.255.787.535 1.587.279.8.522 1.515.54 1.588.018.073.181.49.362.926.18.436 1.159 3.115 2.173 5.953 1.015 2.837 1.956 5.397 2.09 5.688.136.291.65 1.66 1.144 3.043a4044.904 4044.904 0 0 0 6.737 18.653c.43 1.164 1.279 3.486 1.888 5.16 1.651 4.54 2.715 7.236 3 7.606.14.182.195.331.123.331-.121 0 .378 1.903 1.248 4.762.2.655.737 2.203 1.194 3.44 1.12 3.03 3.275 9.007 4.53 12.568.564 1.6 1.137 3.148 1.274 3.44.137.29.493 1.243.792 2.116.298.873.848 2.421 1.222 3.44.374 1.018.902 2.507 1.174 3.307 1.412 4.168 4.842 13.53 5.104 13.933.18.277 1.92 1.313 10.384 6.185a1040.22 1040.22 0 0 0 9.514 5.381c.295.164.82.506 1.169.76.604.443-.78.464-30.395.464-30.314 0-31.013-.011-30.396-.493.347-.271 1.762-1.268 3.144-2.215a2408.97 2408.97 0 0 0 5.424-3.73c1.6-1.105 4.28-2.929 5.952-4.053 1.672-1.124 3.272-2.26 3.555-2.524.283-.263.619-.479.745-.479.316 0 .093-1.107-.668-3.307-.352-1.019-.966-2.805-1.364-3.969a144.365 144.365 0 0 0-.877-2.513 9.175 9.175 0 0 1-.21-.596c-.03-.109-.08-.228-.108-.264-.029-.036-.106-.355-.17-.707-.065-.353-.218-.77-.34-.926-.12-.157-.383-.851-.581-1.542-.199-.692-.424-1.257-.502-1.258-.077 0-.166-.37-.198-.822-.032-.453-.195-.988-.363-1.19-.168-.203-.217-.368-.108-.368.108 0 .057-.169-.114-.374-.17-.206-.366-.685-.435-1.066-.07-.38-.41-1.334-.757-2.119-.347-.785-.58-1.48-.516-1.543.063-.063-.122-.67-.413-1.347-.29-.677-.524-1.26-.518-1.294.036-.25-1.98-5.9-2.217-6.211-.137-.18-.366-.256-.508-.168-.512.316-27.068.596-34.832.366-2.525-.075-4.703-.066-4.84.02-.258.16-1.94 4.936-6.189 17.572-1.37 4.074-2.954 8.755-3.52 10.401-.882 2.564-.977 3.046-.66 3.363.203.204 1.527 1.048 2.941 1.877 1.414.83 2.63 1.578 2.704 1.664.136.162.55.406 2.625 1.545.666.366 1.39.808 1.608.982.218.175 1.707 1.098 3.307 2.051 1.601.954 4.206 2.522 5.789 3.485l2.878 1.752h-28.08c-15.444 0-28.08-.045-28.08-.1zm80.339-56.155 1.02-.498-.026-1.588c-.02-1.259-.547-3.147-2.55-9.128-2.988-8.929-5.88-17.788-5.886-18.036-.003-.097-.094-.265-.203-.375-.11-.109-.199-.431-.199-.716s-.524-2.08-1.166-3.99a462.438 462.438 0 0 1-2.384-7.363c-.67-2.139-1.348-3.968-1.505-4.066-.571-.353-1.771 1.631-3.64 6.015a169.263 169.263 0 0 1-2.015 4.524c-.841 1.793-2.3 5.5-2.708 6.875-.075.255-.222.463-.327.463-.104 0-.194.15-.2.331-.011.346-2.196 6.08-2.86 7.507-.212.455-.43 1.05-.483 1.323-.053.273-.287.924-.518 1.447-.232.522-.458 1.118-.502 1.323-.044.205-.14.432-.212.505-.073.073-.352.727-.62 1.455-.27.728-.762 2.037-1.096 2.91l-1.698 4.445c-.6 1.571-1.161 3.298-1.246 3.836-.086.54-.21 1.07-.279 1.18-.067.111-.05.432.04.713.122.386.631.612 2.067.918 2.737.585 2.586.58 15.967.532 11.366-.041 12.28-.078 13.229-.542z" style="font-variation-settings:normal;vector-effect:none;fill:url(#linearGradient693);fill-opacity:1;stroke-width:1.00436;stroke-linecap:butt;stroke-linejoin:miter;stroke-miterlimit:4;stroke-dasharray:none;stroke-dashoffset:0;stroke-opacity:1;-inkscape-stroke:none;filter:url(#filter697-2);stop-color:#000" transform="matrix(.13638 0 0 .13295 -111.2 -176.044)"/>
      <path id="path273" d="M-497.952 1540.857c0-.055 1.875-1.322 4.167-2.815 6.47-4.217 12.62-8.29 12.766-8.455.073-.083.966-.68 1.984-1.327 2.106-1.338 2.924-2.102 3.18-2.971.216-.735 2.634-7.285 3.3-8.938.264-.655.601-1.608.75-2.117.275-.944 1.452-4.201 1.863-5.16.125-.29.497-1.302.826-2.248.33-.946 1.25-3.566 2.043-5.821.794-2.256 1.555-4.475 1.691-4.932.136-.458.424-.978.64-1.157.215-.18.392-.467.392-.64s.305-1.081.679-2.018c.373-.937.724-1.883.778-2.101.055-.218.354-1.052.664-1.852.31-.8.665-1.753.79-2.117.123-.364.477-1.316.786-2.116.924-2.394 1.345-3.55 1.447-3.97.15-.615 1.157-3.1 1.977-4.875.407-.884 1.308-3.214 2-5.178a297.268 297.268 0 0 1 2.12-5.821 759.562 759.562 0 0 0 5.042-13.494c1.249-3.42 2.382-6.456 2.517-6.747.135-.29.417-1.005.627-1.587.21-.582.758-2.07 1.22-3.308 1.447-3.88 2.394-6.458 2.625-7.143.833-2.474 6.255-17.013 7.154-19.183.12-.29.484-1.243.807-2.116.644-1.74.66-1.78 1.826-4.592.444-1.07.807-2.062.807-2.203 0-.579 1.943-4.729 2.122-4.531.106.117 1.054 2.654 2.107 5.637 1.053 2.983 1.987 5.543 2.077 5.689.089.145.186.422.215.616.03.193.141.55.25.793.107.244.215.502.24.575.025.073.183.465.352.872.168.406.38 1.031.47 1.389.089.357.243.65.342.65.099 0 .2.208.226.462.093.935 1.32 4.016 1.526 3.83.117-.105.127-.043.022.14a.704.704 0 0 0 .02.66c.115.183.22.391.234.464.248 1.334.48 2.147.642 2.247.11.069.536 1.132.946 2.363.41 1.231.84 2.18.956 2.108.117-.072.15.03.074.227-.075.197.068.829.318 1.403.25.574.467 1.104.482 1.177.015.073.255.787.535 1.587.279.8.522 1.515.54 1.588.018.073.181.49.362.926.18.436 1.159 3.115 2.174 5.953 1.014 2.838 1.955 5.397 2.09 5.688.135.291.649 1.66 1.143 3.043a4044.904 4044.904 0 0 0 6.737 18.653c.43 1.164 1.279 3.486 1.888 5.16 1.651 4.54 2.715 7.236 3 7.606.14.182.195.331.123.331-.121 0 .378 1.904 1.248 4.763.2.654.737 2.202 1.195 3.44 1.12 3.029 3.274 9.006 4.529 12.567.564 1.6 1.138 3.148 1.274 3.44.137.29.493 1.243.792 2.116.298.873.848 2.421 1.222 3.44.374 1.018.902 2.507 1.174 3.307 1.412 4.168 4.842 13.53 5.104 13.933.21.323 6.312 3.9 16.47 9.652 2.63 1.49 3.459 2.087 3.523 2.543l.085.595h-30.217c-29.523 0-30.202-.011-29.585-.493.347-.27 1.762-1.268 3.144-2.215 1.383-.947 3.823-2.626 5.424-3.73 1.601-1.105 4.28-2.929 5.952-4.053 1.673-1.124 3.273-2.26 3.555-2.524.283-.263.619-.479.745-.479.316 0 .093-1.107-.668-3.307a1583.05 1583.05 0 0 1-1.364-3.969 144.463 144.463 0 0 0-.877-2.513 9.114 9.114 0 0 1-.21-.596c-.03-.109-.079-.228-.108-.264-.029-.036-.106-.355-.17-.707-.065-.352-.218-.77-.34-.926-.12-.157-.383-.851-.581-1.542-.198-.691-.424-1.257-.501-1.258-.078 0-.167-.37-.199-.822-.032-.452-.195-.988-.363-1.19-.168-.203-.217-.368-.108-.368.108 0 .057-.169-.114-.374-.17-.206-.366-.685-.435-1.066-.07-.38-.41-1.334-.757-2.119-.347-.785-.58-1.48-.516-1.543.063-.063-.122-.67-.413-1.346-.29-.678-.523-1.26-.518-1.295.036-.25-1.98-5.9-2.217-6.211-.137-.18-.366-.256-.508-.168-.512.316-27.068.596-34.832.367-2.525-.074-4.703-.066-4.84.019-.258.16-1.94 4.936-6.189 17.572a2278.97 2278.97 0 0 1-3.52 10.401c-.882 2.564-.977 3.046-.66 3.363.203.204 1.527 1.048 2.941 1.877 1.414.83 2.631 1.578 2.704 1.665.136.161.551.405 2.625 1.544.666.366 1.39.808 1.608.983.218.174 1.707 1.097 3.307 2.05 1.601.954 4.206 2.522 5.79 3.485l2.877 1.752h-28.08c-15.443 0-28.08-.045-28.08-.1zm80.339-56.155 1.02-.498-.026-1.588c-.02-1.259-.547-3.147-2.55-9.128-2.988-8.929-5.88-17.788-5.886-18.036-.003-.097-.094-.265-.203-.374-.11-.11-.199-.432-.199-.717 0-.284-.524-2.08-1.166-3.99a462.46 462.46 0 0 1-2.384-7.363c-.67-2.139-1.348-3.968-1.505-4.066-.571-.352-1.771 1.631-3.64 6.016a169.263 169.263 0 0 1-2.015 4.523c-.841 1.793-2.3 5.5-2.708 6.875-.075.255-.222.463-.327.463-.104 0-.194.15-.2.331-.011.347-2.196 6.08-2.86 7.507-.212.455-.43 1.05-.483 1.323-.053.273-.286.924-.518 1.447-.232.522-.458 1.118-.502 1.323-.044.205-.14.432-.212.505-.073.073-.352.727-.62 1.455-.27.728-.762 2.037-1.096 2.91l-1.698 4.445c-.6 1.572-1.161 3.298-1.246 3.837-.085.538-.21 1.07-.278 1.18-.068.11-.05.43.039.712.122.386.631.612 2.067.919 2.737.584 2.587.579 15.967.53 11.366-.04 12.28-.077 13.229-.541z" style="font-variation-settings:normal;vector-effect:none;fill:url(#linearGradient694);fill-opacity:1;stroke-width:1.00436;stroke-linecap:butt;stroke-linejoin:miter;stroke-miterlimit:4;stroke-dasharray:none;stroke-dashoffset:0;stroke-opacity:1;-inkscape-stroke:none;filter:url(#filter699-8);stop-color:#000" transform="matrix(.13638 0 0 .13295 -111.2 -176.22)"/>
      <path id="path272-1-3" d="M-928.522 1540.395c0-.147 3.938-2.768 4.159-2.768.079 0 .391-.206.694-.459.303-.252.624-.419.713-.37.09.048.24-.035.335-.183.095-.148 1.926-1.412 4.07-2.808s3.938-2.641 3.988-2.768c.049-.126.261-.23.471-.23.21 0 .381-.117.381-.262 0-.144.172-.262.382-.262.21 0 .422-.095.471-.212.13-.306 2.558-1.886 2.899-1.886.158 0 .288-.117.288-.262 0-.144.126-.262.28-.262.155 0 .541-.236.86-.524a5.797 5.797 0 0 1 1.334-.851c.417-.18.758-.415.758-.525 0-.109.182-.198.404-.198.222 0 .404-.118.404-.262 0-.144.181-.262.404-.262.222 0 .416-.148.43-.328.093-1.148-.094-106.785-.19-107.02-.066-.161-.692-.615-1.392-1.009-.7-.393-1.817-1.03-2.484-1.414-.666-.384-1.598-.91-2.07-1.17-.471-.261-1.35-.777-1.952-1.147-.602-.37-1.097-.583-1.099-.473 0 .11-.093.066-.202-.097-.257-.385-5.179-3.259-5.184-3.027 0 .097-.093.055-.202-.094-.205-.28-3.366-2.217-5.122-3.14-2.467-1.295-4.098-2.282-4.098-2.48 0-.119.166-.277.368-.353.539-.2 83.399-.07 84.194.133.37.094 1.4.243 2.29.33.888.087 1.918.209 2.288.271.37.062 1.158.18 1.75.26 1.21.164 2.694.41 3.502.582.296.062.841.154 1.212.201 1.263.163 2.395.405 3.083.66.378.14.687.196.687.126s.437.049.971.267c.534.217 1.08.33 1.212.25.132-.079.24-.013.24.148 0 .162.113.226.251.143.138-.083.332-.023.432.133.099.156.326.23.504.164.177-.066.74.062 1.251.286.511.224 1.11.422 1.333.44.222.018.66.172.973.341.313.17.919.369 1.346.442.428.073 1.302.38 1.942.681.64.301 1.306.502 1.479.446.173-.057.483.06.688.262.206.2.546.299.757.22.212-.079.31-.028.219.116-.09.143-.028.26.14.26.167 0 .476.166.685.37.21.204.682.339 1.05.3.369-.04.615.015.546.123-.124.196 1.068.767 1.83.875.51.072 2.59 1.432 3.224 2.106.26.276.475.395.48.265.005-.13.166-.035.359.212.192.247 1 .884 1.795 1.417.795.532 1.706 1.215 2.024 1.517a28.04 28.04 0 0 0 1.578 1.337c.864.679 2.907 2.649 5.271 5.082.367.377 1.061 1.217 1.542 1.866 5.154 6.953 7.972 12.704 10.025 20.454.808 3.049.979 3.945 1.245 6.555.082.793.236 1.473.344 1.51.107.038.168.54.135 1.115s.04 1.046.163 1.046c.23 0 .172 17.19-.063 18.355-.072.361-.212 1.305-.31 2.098-.148 1.19-.616 3.886-1.111 6.392-.47 2.382-2.332 8.456-3.065 9.997-.138.288-.613 1.35-1.057 2.36-1.164 2.648-2.327 4.624-2.587 4.394-.124-.11-.138-.052-.031.129.233.395-.468 1.455-.78 1.178-.122-.107-.134-.047-.026.136.2.339-.502 1.478-2.762 4.48-1.92 2.55-5.168 6.21-5.447 6.137-.137-.036-.219.082-.182.262.037.18-.093.296-.289.256-.196-.04-.278.053-.181.204.21.332-3.567 4.195-4.102 4.195-.206 0-.3.118-.208.262.092.144.069.265-.051.268-.12 0-.66.387-1.2.852-1.464 1.261-2.106 1.764-2.253 1.764-.12 0-.446.27-1.841 1.52-.274.246-.591.423-.705.393-.114-.03-.486.236-.828.59-.342.354-.79.644-.994.644-.205 0-.314.093-.241.208.072.114-.1.224-.381.245-.282.021-.781.281-1.11.58-.328.297-.694.54-.815.54-.12 0-.188.132-.15.293.036.161-.159.33-.434.375-.275.045-.793.348-1.15.675-.358.327-.827.62-1.043.651-.216.031-.572.23-.79.443-.774.753-9.762 4.899-13.213 6.094-3.708 1.285-11.535 3.531-12.302 3.531-.25 0-.796.134-1.213.298a7.237 7.237 0 0 1-1.428.382c-1.463.185-3.227.695-3.099.897.075.118-.228.158-.674.09-.445-.069-.809-.03-.809.087 0 .117-.555.21-1.233.206-.679 0-1.28.065-1.336.154-.056.088-.5.186-.988.217-1.028.066-2.233.226-2.233.295 0 .027-.727.106-1.616.177-.889.071-2.161.199-2.828.283-1.476.187-65.98.389-65.98.206zm74.029-10.75c1.39-.088 2.638-.227 2.772-.307.134-.08.632-.187 1.107-.236 2.423-.25 7.363-1.19 9.78-1.86.758-.21 1.654-.434 1.993-.497.338-.063 1.051-.261 1.585-.44.534-.178 1.031-.34 1.105-.358.074-.019.347-.112.606-.208l.943-.348c.259-.096.562-.199.673-.23.111-.03.263-.084.337-.12.074-.036.225-.09.336-.12.111-.03.505-.18.876-.333.37-.153 1.218-.49 1.885-.75.666-.26 1.898-.862 2.738-1.34.84-.476 1.607-.866 1.705-.866.278 0 2.53-1.8 4.257-3.4.86-.798 1.678-1.422 1.818-1.386.14.036.254-.064.254-.224s.273-.61.606-1a32.86 32.86 0 0 0 1.144-1.436c.297-.399.72-.94.943-1.204.222-.263.586-.74.808-1.06.222-.32.532-.714.688-.877.345-.358.76-1.27.701-1.54-.023-.109.06-.197.186-.197.125 0 .447-.472.714-1.05.267-.576.596-1.048.73-1.048s.17-.118.078-.262c-.092-.144-.031-.263.135-.263.165 0 .226-.118.134-.262-.091-.144-.038-.262.119-.262s.262-.088.234-.197c-.028-.108.336-1.01.808-2.003.472-.993.859-1.907.859-2.032 0-.124.103-.226.228-.226.709 0 3.318-9.24 3.962-14.028.658-4.896.962-8.79.995-12.74.039-4.786-.188-10.891-.45-12.08a24.542 24.542 0 0 1-.27-1.665 57.202 57.202 0 0 0-.402-2.49 89.531 89.531 0 0 1-.418-2.457c-.083-.557-.222-1.125-.308-1.261-.087-.137-.218-.624-.291-1.084-.074-.46-.243-.965-.376-1.123-.133-.157-.165-.36-.071-.452.094-.091.033-.328-.135-.525s-.228-.433-.134-.524c.094-.091.017-.346-.17-.566-.188-.22-.261-.4-.164-.4.098 0 .042-.246-.124-.547a4.976 4.976 0 0 1-.429-1.246c-.07-.384-.243-.737-.383-.786-.14-.049-.189-.193-.107-.322s-.002-.502-.187-.83c-.185-.327-.366-.772-.402-.989-.124-.74-4.512-9.045-5.064-9.586-.303-.296-.794-.994-1.09-1.55-.296-.557-.776-1.14-1.066-1.297-.774-.417-1.078-.75-1.171-1.283-.109-.622-1.13-1.754-1.582-1.754-.195 0-.355-.138-.355-.306 0-.169-.074-.235-.163-.148-.09.087-.623-.357-1.184-.989-.561-.631-1.094-1.076-1.183-.989-.09.087-.163 0-.163-.19 0-.413-1.421-1.686-3.593-3.218-.865-.61-1.895-1.375-2.289-1.7-.394-.323-.84-.589-.99-.589-.151 0-.757-.32-1.347-.712-1.375-.912-4.969-2.697-5.43-2.697-.196 0-.355-.118-.355-.262 0-.145-.091-.243-.202-.22-.111.024-.788-.212-1.504-.524-.716-.312-1.466-.567-1.667-.567-.201 0-.442-.12-.535-.267-.093-.147-.282-.199-.42-.116s-.25.036-.25-.106c0-.14-.394-.339-.876-.44-.481-.1-.996-.253-1.144-.34a2.33 2.33 0 0 0-.539-.222c-.238-.056-1.51-.383-2.895-.746-.725-.19-1.49-.373-2.126-.51a21.25 21.25 0 0 1-1.414-.378c-.46-.141-1.503-.328-2.317-.416-.815-.088-1.663-.206-1.885-.262-.364-.09-1.37-.211-4.713-.564-4.446-.469-10.56-.614-14.627-.348-3.302.216-3.958.335-4.83.875-1.594.986-1.994 1.589-2.68 4.037-1.194 4.261-1.51 16.063-1.539 57.49-.02 28.35.2 37.477 1.037 43.005.664 4.394.95 5.52 1.809 7.101 1.106 2.04 3.334 3.656 5.56 4.032 2.24.378 7.307.885 7.75.775.285-.07 1.184-.031 2 .09 1.593.235 6.917.21 11.01-.05z" style="mix-blend-mode:normal;fill:url(#linearGradient558);fill-opacity:1;stroke-width:1.00436;filter:url(#filter559-8)" transform="matrix(.13638 0 0 .13295 -111.2 -176.444)"/>
      <path id="path271-7" d="M-718.182 1540.57c-.074-.12-.665-.145-1.313-.055-.649.089-1.18.056-1.18-.073 0-.13-.566-.246-1.257-.259-.69-.013-1.643-.102-2.116-.198a63.255 63.255 0 0 0-1.72-.32c-1.541-.26-4.01-.873-5.163-1.284-.62-.221-1.215-.408-1.323-.416-.311-.022-2.55-.873-2.84-1.08-.146-.104-.678-.277-1.182-.385-1-.214-1.882-.64-2.188-1.055-.106-.146-.196-.177-.198-.07-.004.21-2.688-.782-2.912-1.076-.074-.098-.492-.213-.929-.257-.436-.044-.946-.28-1.133-.526-.187-.246-.485-.452-.662-.458-.579-.02-4.697-2.145-4.513-2.329.098-.099.04-.194-.13-.212a5.16 5.16 0 0 1-.573-.1 6.6 6.6 0 0 0-.48-.098c-.117-.018-.501-.301-.853-.629-.351-.327-.671-.565-.711-.529-.546.499-.607-1.633-.599-20.824.005-11.49.112-20.953.237-21.031.21-.13 1.078 1.921 1.144 2.697.015.182.112.33.215.33s.278.388.39.86c.11.473.227.92.258.993.448 1.06.767 2.024.721 2.183-.032.109.069.198.223.198s.206.12.116.265c-.09.145-.044.264.102.264s.22.229.167.508c-.054.28.072.574.28.654.208.08.378.362.378.629 0 .266.118.603.263.748.144.144.29.585.322.979.032.393.136.715.23.715.157 0 3.682 6.96 3.682 7.271 0 .076.209.363.463.639.255.275 1.055 1.436 1.778 2.58.723 1.143 1.387 2.138 1.475 2.21.089.073.39.54.67 1.038.28.499.854 1.243 1.276 1.654.422.411.69.748.597.748-.303 0 3.782 4.291 5.667 5.953 2.38 2.099 2.891 2.515 2.891 2.352 0-.09.387.129.86.488.473.36 1.634 1.04 2.58 1.51.946.47 2.047 1.03 2.447 1.244.4.214.728.308.728.21 0-.1.16-.047.355.115.195.162.411.238.48.169.07-.07.535 0 1.034.149 1.373.415 1.9.539 2.663.625.383.043.811.15.952.237.505.312 11.006.268 10.814-.046-.058-.096.358-.186.926-.201.568-.015 1.032.07 1.032.19s.178.15.395.066c.218-.083.348-.229.29-.323-.058-.094.33-.184.862-.2 1.81-.055 2.95-.234 2.95-.464 0-.126.239-.167.53-.091.291.076.53.018.53-.13 0-.147.163-.205.363-.128.2.077.677-.022 1.058-.22.382-.199.697-.279.699-.178.002.1.098.034.213-.147.115-.181.53-.356.922-.389.392-.032.713-.152.713-.265 0-.114.147-.207.327-.207.52 0 3.181-1.398 3.904-2.05.362-.328.747-.596.856-.596.479 0 3.924-3.441 5.17-5.164 2.867-3.962 4.158-9.849 3.55-16.188-.818-8.517-5.082-15.116-13.365-20.681-2.012-1.352-7.128-4.005-7.723-4.005-.195 0-.54-.186-.768-.414-.228-.227-.727-.47-1.11-.54-.382-.069-1.186-.382-1.787-.695-.601-.313-1.327-.608-1.613-.657-.286-.05-.788-.264-1.115-.479-.327-.214-.778-.39-1.001-.39-.224 0-.406-.139-.406-.308 0-.17-.07-.239-.157-.153-.144.145-1.641-.287-2.886-.833-.291-.127-1.363-.558-2.381-.957-1.019-.4-2.299-.948-2.845-1.218-.545-.27-.992-.437-.992-.372 0 .215-6.59-3.297-8.407-4.48-9.607-6.257-14.155-13.206-15.06-23.008-.333-3.609-.02-8.77.727-12.02.518-2.252 1.722-6.005 2.094-6.525.104-.145.391-.782.637-1.416.457-1.176 3.275-5.656 3.658-5.815.116-.05.212-.211.212-.361 0-.647 8.12-9.209 8.734-9.209.101 0 .53-.3.95-.669 1.251-1.091 1.428-1.214 1.436-.995.004.115.13 0 .278-.254.148-.255.442-.463.653-.463.211 0 .384-.094.384-.209 0-.218 2.727-1.949 3.095-1.963.117 0 .55-.293.962-.64.413-.347.86-.564.993-.481.133.082.242.024.242-.13 0-.155.09-.256.198-.225.11.031.496-.112.86-.318.364-.206.82-.4 1.016-.433.194-.032.551-.237.793-.455.365-.328.905-.54 2.16-.846.073-.018.43-.157.794-.308.684-.285 2.977-1.027 4.365-1.413 4.487-1.245 13.096-1.179 19.628.152 1.045.213 2.087.316 2.315.228.23-.089.415-.022.415.15 0 .169.105.243.233.163.202-.124 1.057-.01 3.604.485 1.148.222 3.973 1.245 4.822 1.746.493.29 1.01.528 1.148.528.433 0 2.528 1.059 3.053 1.543.276.254.88.617 1.342.807.462.19.884.483.938.651.233.737.057 36.825-.181 36.915-.245.092-1.08-1.364-5.362-9.356a390.419 390.419 0 0 0-3.787-6.88c-.991-1.746-2.133-3.948-2.537-4.894-.405-.946-.8-1.78-.88-1.852-.08-.073-.434-.668-.788-1.323-1.661-3.076-4.022-5.53-6.439-6.695-3.808-1.835-9.343-2.916-15.01-2.933-3.665-.01-4.37.086-7.61 1.048-.183.054-.408.092-.5.084-.09-.01-.238.087-.327.213-.09.125-.698.457-1.353.737a13.3 13.3 0 0 0-2.249 1.297c-1.125.837-4.188 3.868-3.91 3.868.092 0-.094.277-.412.615-.317.338-.497.695-.399.794.099.098.048.179-.112.179-.255 0-.624.694-.562 1.058.013.073-.266.787-.62 1.587-.353.8-.733 2.05-.843 2.779-.11.727-.248 1.62-.306 1.984-.453 2.86-.337 7.321.274 10.45.056.292.112.745.123 1.009.011.263.138.406.282.317.146-.09.196.01.114.222-.08.211-.02.462.135.558.156.096.283.339.283.54 0 .2.105.639.233.976.128.337.237.718.242.847.005.13.123.308.262.397.138.09.566.757.95 1.485.97 1.837 1.303 2.348 1.692 2.596.185.118.275.313.2.434-.074.12.153.408.504.638.352.23.714.654.805.942.092.287.4.596.686.687.285.091.456.267.38.391-.078.125.102.304.4.398.296.094.728.46.96.813.23.353.579.642.773.642.195 0 .475.208.623.463.148.254.273.379.278.277.004-.102.335.118.736.49.4.372 1.174.856 1.72 1.075.545.219.992.495.992.613 0 .119.409.35.909.516.5.165 1.202.53 1.56.811.358.282.871.546 1.14.588.27.042 1.444.528 2.608 1.081 1.164.553 2.355 1.1 2.646 1.214 1.047.413 2.125.875 2.568 1.1.248.125 2.45.959 4.894 1.853 3.864 1.414 6.308 2.362 9.471 3.677 1.066.443 1.593.66 3.308 1.358.8.326 1.739.808 2.086 1.072.347.264.741.48.877.48.135 0 1.458.863 2.94 1.918 9.223 6.563 13.608 15.4 13.49 27.186-.05 4.907-.6 8.591-1.777 11.877a66.068 66.068 0 0 0-.676 2.014c-.48 1.53-.927 2.544-2.609 5.926-2.636 5.304-3.95 7.067-8.907 11.955-4.733 4.667-6.982 6.43-11.113 8.713-.873.482-1.978 1.096-2.455 1.363-.478.267-1.085.486-1.349.486s-.76.242-1.1.538c-.342.296-.77.481-.95.412-.181-.07-.369-.01-.417.137-.049.146-.265.3-.48.342-.216.043-.728.214-1.137.382-.41.168-.91.305-1.11.305-.2 0-.434.114-.52.253-.086.14-.33.186-.544.104-.214-.082-.389-.01-.389.16s-.124.232-.276.138c-.152-.094-.45-.027-.662.149-.211.176-.385.23-.385.123 0-.109-.17-.055-.38.117-.208.174-.863.337-1.454.364-.591.026-1.075.145-1.075.264 0 .119-.254.136-.564.038-.364-.116-.501-.08-.39.1.103.165-.02.243-.297.19-.447-.084-3.392.442-4.193.75-.208.08-.38 0-.382-.178-.003-.23-.07-.22-.229.032-.123.195-.568.331-.988.303-.42-.03-.823-.022-.896.014-.37.183-9.034.142-9.149-.044z" style="font-variation-settings:normal;mix-blend-mode:color-burn;vector-effect:none;fill:url(#linearGradient323);fill-opacity:1;stroke-width:1.00436;stroke-linecap:butt;stroke-linejoin:miter;stroke-miterlimit:4;stroke-dasharray:none;stroke-dashoffset:0;stroke-opacity:1;-inkscape-stroke:none;filter:url(#filter695-1);stop-color:#000" transform="matrix(.13638 0 0 .13295 -111.2 -176.021)"/>
    </g>
    <g id="layer1-0" style="stroke:#fff;stroke-width:1.48094;stroke-dasharray:none;stroke-opacity:1" transform="rotate(-45.177 -98.79 283.339) scale(.0759)">
      <g id="g2" style="stroke:#fff;stroke-width:1.48094;stroke-dasharray:none;stroke-opacity:1" transform="translate(5.438 5.903)">
        <path id="A" d="M53.243 45.636c-3.03 0-5.487 2.676-5.487 5.977.002 2.991 2.033 5.52 4.753 5.92-.156.045-.301.083-.495.15-.872.3-1.18.32-3.437.227-3.316-.137-12.087.171-13.416.472-2.098.474-3.255 1.556-3.26 3.049-.006 1.487 1.327 2.26 4.355 2.529.62.055 2.802.193 4.85.307 2.049.114 3.77.255 3.824.314.117.123.562 13.34.711 22.703.083 5.194.149 6.6.339 7.234.3 1.001 1.395 2.201 2.23 2.445 1.457.424 2.983-.314 3.715-1.799.293-.594.326-1.057.49-6.925.097-3.458.225-6.431.286-6.606.257-.744.449-1.035.684-1.035.234 0 .426.29.683 1.035.06.175.19 3.148.286 6.606.165 5.868.197 6.331.49 6.925 1.061 2.152 3.422 2.565 5.013.879 1.131-1.198 1.153-1.351 1.271-8.759.149-9.364.594-22.58.71-22.703.056-.059 1.777-.2 3.825-.314a240.5 240.5 0 0 0 4.85-.307c3.029-.269 4.361-1.042 4.355-2.53-.005-1.492-1.162-2.574-3.26-3.048-1.33-.3-10.1-.61-13.415-.472-2.257.094-2.565.073-3.438-.227a8.619 8.619 0 0 0-.606-.184c2.641-.481 4.577-2.97 4.58-5.886 0-3.3-2.456-5.977-5.486-5.977z" style="fill:#8cb534;stroke:#fff;stroke-width:1.48094;stroke-dasharray:none;stroke-opacity:1"/>
        <path id="C" d="M46.504 68.418c-.008 3.174 2.788 5.753 6.245 5.762 3.132.006 5.786-2.114 6.212-4.963.047.164.087.316.156.52.312.914.333 1.237.23 3.6-.153 3.472.147 12.659.458 14.051.492 2.2 1.621 3.413 3.185 3.423 1.557.01 2.371-1.384 2.66-4.555.06-.649.21-2.934.334-5.079.125-2.145.278-3.946.339-4.004.13-.122 13.972-.554 23.779-.685 5.44-.074 6.913-.139 7.577-.336 1.049-.312 2.309-1.456 2.566-2.33.448-1.525-.32-3.124-1.874-3.895-.621-.309-1.106-.344-7.251-.531-3.622-.11-6.735-.253-6.919-.317-.778-.27-1.082-.473-1.082-.719.001-.245.306-.446 1.086-.713.183-.063 3.297-.19 6.92-.282 6.146-.157 6.63-.19 7.254-.495 2.255-1.106 2.695-3.577.933-5.248-1.252-1.188-1.412-1.211-9.17-1.354-9.806-.18-23.646-.68-23.776-.803-.06-.058-.204-1.86-.318-4.006-.114-2.145-.253-4.432-.31-5.08-.273-3.173-1.08-4.57-2.637-4.568-1.563.002-2.699 1.21-3.201 3.407-.318 1.39-.664 10.576-.529 14.048.092 2.364.07 2.687-.247 3.6a9.03 9.03 0 0 0-.194.634c-.497-2.767-3.098-4.8-6.152-4.812-3.458-.009-6.266 2.557-6.274 5.73z" style="fill:#0b6abb;fill-opacity:1;stroke:#fff;stroke-width:1.48094;stroke-dasharray:none;stroke-opacity:1"/>
        <path id="B" d="M69.288 74.932c3.03-.07 5.423-2.802 5.347-6.102-.072-2.99-2.16-5.472-4.89-5.809.156-.048.3-.09.492-.16.866-.321 1.173-.349 3.432-.308 3.317.06 12.079-.451 13.4-.782 2.087-.523 3.218-1.631 3.19-3.124-.03-1.487-1.38-2.23-4.413-2.427-.621-.04-2.807-.128-4.857-.195-2.05-.067-3.773-.168-3.83-.225-.12-.12-.87-13.323-1.237-22.681-.203-5.19-.301-6.595-.506-7.224-.324-.994-1.446-2.168-2.286-2.392-1.467-.391-2.975.382-3.673 1.884-.28.6-.301 1.064-.33 6.934-.016 3.46-.075 6.435-.132 6.612-.24.75-.425 1.045-.66 1.05-.234.006-.433-.28-.707-1.019-.064-.173-.262-3.142-.439-6.598-.3-5.862-.343-6.324-.65-6.912-1.111-2.126-3.48-2.485-5.032-.762-1.103 1.224-1.122 1.378-1.068 8.786.069 9.365-.07 22.588-.184 22.714-.053.06-1.77.24-3.815.402-2.045.162-4.225.35-4.843.42-3.021.339-4.335 1.143-4.295 2.63.04 1.492 1.222 2.546 3.33 2.972 1.336.27 10.112.374 13.423.16 2.254-.146 2.563-.132 3.442.148.239.076.425.124.61.17-2.629.542-4.507 3.074-4.443 5.99.077 3.3 2.595 5.918 5.624 5.848z" style="fill:#8cb534;stroke:#fff;stroke-width:1.48094;stroke-dasharray:none;stroke-opacity:1"/>
        <path id="D" d="M74.946 53.38c-.036-3.173-2.867-5.714-6.324-5.675-3.132.037-5.757 2.194-6.144 5.048-.049-.164-.09-.315-.162-.517-.325-.91-.35-1.233-.279-3.597.105-3.474-.322-12.656-.653-14.044-.521-2.192-1.667-3.39-3.231-3.378-1.557.011-2.352 1.416-2.597 4.59-.05.65-.169 2.938-.264 5.084-.096 2.146-.223 3.95-.284 4.008-.128.123-13.963.746-23.767 1.013-5.439.147-6.91.233-7.572.44-1.044.326-2.288 1.487-2.533 2.364-.428 1.53.363 3.12 1.927 3.87.625.3 1.11.328 7.258.43 3.623.061 6.738.16 6.922.222.782.26 1.089.458 1.092.704.002.246-.3.45-1.076.728-.183.065-3.295.235-6.915.378-6.144.24-6.628.28-7.247.594-2.24 1.137-2.645 3.614-.86 5.26 1.268 1.171 1.428 1.192 9.187 1.228 9.808.045 23.653.355 23.784.476.062.057.23 1.857.374 4 .144 2.144.314 4.429.379 5.077.317 3.168 1.143 4.554 2.7 4.53 1.563-.023 2.682-1.247 3.154-3.45.3-1.395.519-10.584.336-14.054-.125-2.362-.107-2.686.197-3.603.083-.249.136-.443.185-.636.536 2.76 3.164 4.757 6.218 4.727 3.457-.04 6.23-2.643 6.195-5.817z" style="fill:#0b6abb;fill-opacity:1;stroke:#fff;stroke-width:1.48094;stroke-dasharray:none;stroke-opacity:1"/>
      </g>
    </g>
    <path id="path711" d="M-238.081.53V25.95h78.316V.53Zm2.397 2.92h72.977v20.222h-72.977z" style="fill:url(#linearGradient713);fill-rule:evenodd;stroke-width:.262734"/>
  </g>
</svg>
