<svg xmlns="http://www.w3.org/2000/svg" xml:space="preserve" viewBox="0 0 132.292 39.688">
  <path d="M16.361 3.922c-.03.004-.044.026-.063.069-.045.098-.25 1.018-.25 1.121v.081h.107l.101-.196c.108-.208.213-.331.34-.397.145-.075.438-.102 1.33-.122l.889-.02-.001 2.7c-.001 3.443-.024 3.864-.22 4.048l-.072.067-.189.02c-.193.02-.235.043-.207.115l.016.04 1.194.002 1.195.002.04-.033.038-.033-.034-.04c-.02-.025-.094-.042-.179-.042-.079 0-.218-.014-.308-.03l-.163-.031-.083-.09a.622.622 0 0 1-.116-.218c-.063-.233-.089-1.355-.09-3.926V4.464l.266.002c.616.004 1.52.058 1.672.1.332.093.452.214.505.51l.035.193.051.01.052.01.016-.071c.008-.039.019-.33.024-.648l.006-.39c.032.004.065.01.112.014.125.012.275.048.344.083l.122.062.057.116.058.115v6.05l-.04.215a1.192 1.192 0 0 1-.098.31l-.057.094-.116.033a.965.965 0 0 1-.206.032c-.116.001-.182.042-.16.1l.018.045 1.22.002h1.22l.018-.046c.027-.07-.03-.091-.296-.112-.247-.019-.413-.07-.476-.146a.934.934 0 0 1-.09-.225l-.05-.181-.014-1.593-.013-1.592.04-.026c.055-.034 4.134-.034 4.187 0l.042.027-.016 1.53-.015 1.532-.035.197c-.068.373-.131.442-.443.48l-.182.023v.121l1.206.006 1.206.006.033-.04.033-.04-.038-.03c-.021-.017-.155-.04-.296-.052-.421-.033-.526-.138-.58-.584-.042-.348-.07-4.384-.037-5.346l.029-.821.048-.112c.057-.134.178-.204.396-.228a.588.588 0 0 0 .197-.048l.038-.03-.032-.038-.03-.038-1.157-.001-1.157-.001-.017.044c-.026.07.007.083.25.107.246.023.382.084.478.212l.06.08.027.255c.015.14.025.733.02 1.319l-.008 1.064-2.122.007-2.122.008.01-1.284.008-1.285.061-.12c.083-.163.18-.225.403-.255.208-.028.236-.042.211-.107l-.017-.043-1.174-.001-1.056-.001v-.05l-.09.003c-.05.002-.233.018-.407.038l-.314.035h-1.979c-1.988 0-2.719-.027-2.955-.11-.082-.028-.128-.041-.158-.037zm17.654.05-.118.04-.118.04h-1.915l-1.914.001-.01.052-.01.052.07.015c.039.008.146.02.238.028s.22.04.284.07l.117.056.065.122.066.122.008 2.782.01 2.781-.032.38c-.038.446-.073.59-.168.686l-.07.07-.148.019c-.082.01-.18.026-.219.034l-.07.014.01.052.01.053 1.071.002c.59.001 1.08.012 1.091.023.012.011.394.02.85.02h.83l.075-.034a.298.298 0 0 0 .12-.144c.057-.144.148-.828.136-1.023l-.01-.151h-.09l-.063.243c-.099.381-.188.507-.436.61-.167.07-.655.114-1.081.096-.492-.02-.661-.06-.792-.192l-.1-.1-.034-.155-.033-.156V7.686l.387.001c.214.001.567.013.786.027l.399.026.138.061c.178.079.232.165.278.439l.037.221.05.01.049.01.015-.1a6.63 6.63 0 0 0 .033-.436 5.36 5.36 0 0 1 .093-.799l.016-.069-.048-.018-.048-.019-.097.092a.623.623 0 0 1-.219.127c-.069.02-.498.043-.995.053l-.874.02V4.425l.752.016.752.017.176.048c.307.084.403.187.435.466.029.246.04.281.101.281.072 0 .085-.053.11-.456.011-.175.04-.42.065-.543l.045-.224-.029-.03zm-21.01 5.68-1.862.002-1.862.001-.775.142c-3.314.604-5.558 2.184-6.899 4.856-1.667 3.32-1.379 7.552.715 10.509.748 1.056 1.812 1.957 3.088 2.616 1.435.74 2.641 1.08 4.725 1.327.54.064 2.613.045 3.22-.03 1.503-.184 3.322-.723 3.784-1.12l.209-.18.047-3.44.047-3.439.09-.285c.05-.158.197-.374.324-.482l.232-.195.454-.051c.526-.06.669-.128.607-.289l-.045-.115-2.948-.003-2.95-.002-.082.1-.083.1.099.078c.053.043.325.095.604.116.621.047 1.109.281 1.295.622l.137.252.023 3.119.022 3.12-.116.224c-.142.275-.647.525-1.398.693l-.548.122-1.24.004-1.242.004-.643-.139c-4.348-.94-7.12-4.399-7.283-9.086l-.038-1.086.124-.812c.318-2.08 1.159-3.744 2.39-4.728.636-.508 1.884-1.134 2.638-1.322 2.857-.714 6.597-.125 8.113 1.279l.458.424.175.405c.134.312.305 1.021.385 1.594.002.01.056.02.12.02.203 0 .27-.36.27-1.427 0-.566.039-1.406.085-1.866l.084-.836-.08-.08c-.044-.044-.425-.11-.847-.145a13.501 13.501 0 0 1-1.304-.176 38.103 38.103 0 0 0-1.427-.253zm117.775.4-.258.058c-.142.032-.54.103-.883.157l-.624.098-4.576-.045-4.576-.047-.05.131c-.081.211.088.301.738.393.728.103.983.252 1.182.691l.149.327V26.26l-.121.787-.122.787-.198.23-.197.23-.513.042-.513.042-.052.135c-.029.077.02.188.115.257l.165.121.718-.06c1.019-.087 2.935-.084 6.391.008l3 .08.222-.223.222-.222.151-.845c.084-.464.159-1.123.167-1.463l.015-.62h-.124c-.16 0-.237.149-.416.803l-.146.535-.336.32a2.109 2.109 0 0 1-.771.445l-.436.127h-3.566l-.32-.114a1.416 1.416 0 0 1-.875-.956l-.097-.357v-6.737l.144-.056c.08-.03 1.053-.015 2.163.035l2.017.09.367.151c.432.179.565.394.645 1.043l.058.481h.357l.063-.713c.094-1.064.242-2.292.303-2.518l.055-.2-.149-.057-.15-.057-.246.236c-.135.13-.384.277-.552.328-.167.05-1.379.116-2.691.146l-2.386.054.023-3.603.024-3.602 1.871.024c1.92.025 2.728.112 3.226.346l.282.134.141.352c.078.193.141.467.141.61 0 .344.082.54.227.54.2 0 .242-.162.364-1.374.065-.642.145-1.344.178-1.56zm-75.33.027-.044.113c-.067.174.016.21.62.267.316.03.697.123.87.211l.307.157.145.292.145.292V26.688l-.1.545c-.056.3-.166.65-.246.782l-.145.238-.292.08c-.16.046-.395.083-.522.084-.293.002-.457.105-.4.252l.044.114 3.08.003 3.081.004.045-.119c.068-.175-.077-.23-.747-.28-.625-.049-1.043-.177-1.204-.371-.051-.062-.151-.318-.223-.569l-.13-.456-.034-4.022-.033-4.022.103-.065c.136-.086 10.437-.085 10.573.001l.105.067-.04 3.866-.038 3.867-.09.497c-.17.943-.33 1.117-1.117 1.213l-.46.057v.306l3.044.016 3.046.015.084-.1.084-.102-.097-.077c-.053-.042-.39-.1-.748-.128-1.063-.085-1.325-.351-1.462-1.479-.106-.876-.177-11.07-.094-13.5l.07-2.072.122-.283c.146-.338.452-.514 1.002-.576.22-.025.443-.08.496-.121l.096-.077-.079-.096-.079-.095-2.92-.003-2.92-.003-.044.112c-.067.174.017.21.633.269.618.059.962.212 1.204.537l.15.202.071.642c.039.354.06 1.853.05 3.33l-.02 2.688-5.36.02-5.36.019.024-3.244.024-3.244.153-.302c.21-.414.454-.569 1.017-.645.527-.07.597-.106.534-.27l-.042-.11-2.966-.003zm28.467 2.013-.722.097c-1.992.27-3.648 1.099-4.999 2.5a8.757 8.757 0 0 0-1.964 3.25c-.815 2.493-.38 5.354 1.139 7.49 1.249 1.758 3.084 2.88 5.329 3.257.753.127 2.36.147 3.11.04 2.855-.405 5.192-2.024 6.47-4.481.394-.758.583-1.281.805-2.231l.164-.7v-1.203l-.002-1.203-.124-.55c-.708-3.148-2.898-5.252-6.265-6.018-.39-.09-1.127-.171-1.8-.2zm-58.526.469-.144.284c-.08.156-1.328 3.334-2.776 7.062-1.447 3.728-2.716 6.949-2.819 7.157a3.375 3.375 0 0 1-.5.703l-.313.325-.375.11a2.958 2.958 0 0 1-.692.112c-.174 0-.355.045-.4.1l-.084.1.083.083.083.083 2.334-.003 2.334-.003.038-.1c.057-.148-.102-.236-.502-.28-.198-.02-.415-.084-.482-.14l-.123-.101.037-.532.037-.533.746-2.027.745-2.027 2.642.02 2.643.02.976 2.416c.538 1.33.977 2.51.977 2.623v.207l-.197.13-.198.129.088.087.088.088 2.08.027c1.441.018 2.046.013 2.293-.045l.02.05 2.714.002 2.714.003.082-.1.082-.098-.097-.076c-.053-.042-.35-.099-.662-.127-.68-.06-.91-.16-1.095-.478l-.14-.24-.072-.983c-.04-.54-.072-3.64-.074-6.887l-.002-5.905.478.004c.263.002 1.148.034 1.968.071l1.49.068.417.127c.244.075.517.229.66.37l.242.243.053.385c.029.21.083.433.121.494l.069.111.112-.115.112-.114.055-1.357.054-1.356-.718.057c-.394.032-3.074.056-5.953.055l-5.236-.002-.459-.093a40.37 40.37 0 0 1-.657-.138l-.2-.045-.12.298c-.065.164-.216.767-.334 1.341l-.216 1.044.101.098.102.098.112-.152c.062-.084.223-.34.357-.57.437-.748.686-.81 3.48-.884l1.935-.05-.03 6.675-.031 6.676-.12.409c-.157.542-.318.687-.858.775a3.155 3.155 0 0 0-.36.073c-.08-.053-.232-.079-.466-.079-.161 0-.482-.07-.71-.156l-.418-.156-.298-.338c-.57-.648-.583-.678-3.886-8.816-1.124-2.77-2.175-5.318-2.335-5.661l-.292-.625h-.155zm68.174.009-.047.075c-.026.042-.007.124.04.182l.088.106H94c.194 0 .485.053.647.118l.295.117.124.227.124.227.043 4.502.043 4.5.118.618c.15.78.333 1.312.681 1.978l.275.526.546.551c.8.81 1.644 1.232 2.958 1.48l.564.107 1.16-.027 1.163-.026.576-.154c1.125-.3 2.265-1.01 2.884-1.799.589-.75.925-1.535 1.195-2.785l.117-.541.049-4.428.048-4.429.122-.275.121-.275.255-.106c.14-.058.361-.107.492-.108.301 0 .454-.096.397-.245l-.045-.116h-4.497l-.047.075c-.026.042-.006.124.041.182l.088.105h.353c.194 0 .487.055.652.12l.3.12.117.262.117.261.026 3.902.027 3.901-.078.857c-.097 1.066-.293 1.855-.632 2.546l-.262.534-.41.41c-.464.464-1.212.886-1.872 1.057-.523.134-1.794.153-2.363.034a4.706 4.706 0 0 1-.85-.3l-.466-.219-.567-.558-.566-.559-.22-.466c-.295-.633-.494-1.451-.589-2.419l-.079-.807.028-3.92.027-3.92.105-.291.106-.29.254-.127c.14-.07.368-.128.508-.129.315-.002.47-.093.412-.245l-.044-.116h-2.503zm20.664.088-.564.088c-2.012.315-3.34 1.48-3.627 3.183-.234 1.387.227 2.541 1.527 3.823.69.681.948.894 2.55 2.104 1.883 1.421 2.419 2.064 2.56 3.07.13.938-.122 1.782-.706 2.36-.388.385-.865.62-1.566.769l-.551.117-.649-.043c-1.855-.125-3.09-1.109-3.09-2.463 0-.195-.049-.414-.112-.496l-.113-.147-.106.137-.107.136-.05.92c-.028.507-.04 1.176-.027 1.487l.025.565.307.17c.334.183.96.361 1.662.471.247.039 1.025.058 1.73.044l1.285-.027.59-.156c.816-.216 1.43-.564 2.01-1.141.574-.569.932-1.196 1.106-1.934l.122-.52-.036-.718c-.06-1.213-.424-1.989-1.445-3.074-.6-.637-1.244-1.147-3.015-2.39-1.163-.815-1.851-1.48-2.14-2.067l-.213-.436v-.679l.002-.68.163-.302c.369-.684 1.09-1.11 2.127-1.258l.616-.087.591.084c.773.109 1.398.348 1.756.672l.29.26.154.413c.084.227.154.492.154.59a.4.4 0 0 0 .116.273l.117.096.086-.086c.081-.082.225-2.545.155-2.675-.016-.031-.121-.058-.233-.059-.112 0-.493-.07-.846-.152-.36-.085-1.072-.171-1.623-.197zm-60.755.128-.22.05c-.122.028-.462.088-.756.134l-.533.085-3.912-.04-3.912-.04-.044.112c-.069.18.076.258.632.336.622.089.84.216 1.01.591l.128.28v12.349l-.105.673-.103.673-.17.196-.168.197-.439.036-.438.037-.044.115c-.025.066.017.16.097.22l.142.103.614-.052c.87-.073 2.51-.072 5.465.007l2.564.068.19-.19.19-.19.13-.722c.071-.397.135-.96.142-1.251l.013-.53h-.106c-.137 0-.203.127-.356.687l-.125.457-.287.273c-.168.16-.442.318-.66.381l-.372.109h-3.049l-.273-.098a1.211 1.211 0 0 1-.749-.817l-.083-.305v-5.76l.123-.048c.068-.026.9-.013 1.849.03l1.724.077.314.129c.37.153.483.336.551.892l.05.411h.305l.054-.61c.08-.91.207-1.96.26-2.153l.047-.17-.128-.049-.127-.049-.211.202a1.396 1.396 0 0 1-.472.28c-.144.043-1.18.1-2.301.125l-2.04.046.02-3.08.02-3.08 1.6.021c1.64.021 2.333.096 2.758.296l.242.114.12.3c.066.166.12.4.12.522 0 .295.07.462.194.462.17 0 .207-.138.311-1.174.056-.55.124-1.149.153-1.333zm30.742.19c.167 0 .341.004.525.012l.992.04.62.203c2.199.718 3.707 2.453 4.36 5.013l.19.742.046 1.28.045 1.282-.09.677c-.14 1.043-.365 1.816-.762 2.622l-.364.738-.664.666-.664.666-.66.325a7.884 7.884 0 0 1-1.274.478l-.614.156-.9-.01c-.495-.007-.987-.027-1.094-.045-.616-.103-1.444-.389-2.05-.707l-.693-.364-.61-.572c-1.413-1.328-2.192-3.086-2.391-5.396l-.084-.965.08-.843c.11-1.151.337-2.026.756-2.897l.354-.735.708-.702.708-.7.53-.26c1.046-.51 1.834-.703 3-.703zm-59.075 3c.029-.005.068.01.1.043.065.064 2.268 5.87 2.268 5.975 0 .019-1.006.033-2.235.033H23.04v-.11c0-.128 2.008-5.86 2.077-5.93a.045.045 0 0 1 .024-.011zM4.733 32.06c-.066.002-.108.009-.108.02 0 .009.056.02.124.026.17.015.276.04.305.073.06.067.085.427.097 1.462l.009.807-.018.392c-.019.423-.043.584-.096.64-.033.035-.129.062-.252.07-.033.003-.06.011-.057.02.006.025.198.026.333 0 .167-.03.423-.028.624.007.178.032.356.034.365.005l.007-.017-.098-.011a1.202 1.202 0 0 1-.18-.036l-.084-.026-.027-.046c-.056-.097-.09-.428-.114-1.144l-.01-.3.311.003.31.003.023.019c.012.01.089.106.17.212.379.495.835 1.006 1.01 1.13.114.081.25.15.36.183.12.036.45.06.708.054l.228-.007.041-.027.042-.027.165-.01c.09-.004.303.001.471.013.17.012.42.022.56.022h.254l.045-.024a.247.247 0 0 0 .073-.06c.042-.058.09-.265.1-.433l.01-.148-.017-.01c-.02-.011-.028.017-.04.145-.01.099-.05.227-.083.265-.034.039-.11.056-.33.074l-.196.016-.17-.016-.17-.016-.071-.036-.073-.036-.034-.061c-.05-.091-.065-.233-.066-.635v-.36l.398.01.4.009.052.022.054.023.016.05c.009.03.02.092.026.14.021.183.036.062.033-.28l-.002-.353-.02.025a.104.104 0 0 0-.019.052c0 .035-.062.09-.124.11-.03.008-.224.02-.433.024l-.38.008v-.191c0-.106-.005-.35-.01-.543l-.012-.351.398.01.4.009.066.02c.04.012.082.038.1.063l.031.042.009.156.008.156.018.006.018.006.008-.112a7.52 7.52 0 0 0 .013-.34l.005-.228-.054.009c-.03.005-.265.016-.523.025l-.469.018-.3-.017c-.357-.02-.522-.022-.522-.004 0 .007.04.018.088.024.124.014.193.034.239.07l.04.031.023.104c.012.057.032.205.041.33l.018.227-.008.757c-.008.783-.02.955-.073 1.059l-.03.06-.061.03c-.151.077-.425-.006-.761-.232l-.17-.113-.183-.177c-.1-.098-.321-.33-.49-.516-.17-.186-.367-.395-.436-.465a.725.725 0 0 1-.114-.126c.026 0 .243-.183.332-.28.312-.342.358-.844.107-1.178-.132-.175-.328-.273-.64-.32l-.175-.025-.392.012c-.453.014-.5.013-.737-.01a2.26 2.26 0 0 0-.254-.01zm61.589 0-.193.01c-.334.014-.566.1-.741.276l-.091.091-.054.112-.054.113-.018.125-.017.125.019.135c.049.353.245.623.68.936.548.395.667.5.749.666l.044.09v.339l-.043.077a.816.816 0 0 1-.07.11.718.718 0 0 1-.276.177l-.105.036-.193-.001-.192-.001-.104-.026c-.218-.053-.367-.168-.429-.33l-.033-.089-.01-.185-.009-.185-.023.04-.023.038.002.437c.002.24.007.44.01.444.005.004.026-.004.047-.018l.038-.025.198.031.198.03.277-.005.278-.006.115-.033c.063-.018.164-.058.223-.089l.108-.056.116-.117.116-.116.05-.102a.938.938 0 0 0 .095-.426l.001-.128-.032-.096a.985.985 0 0 0-.196-.339c-.1-.122-.209-.213-.574-.474-.392-.28-.567-.467-.641-.682l-.028-.08v-.293l.043-.087a.522.522 0 0 1 .255-.242l.086-.04h.4l.11.035.11.037.093.074.093.075.036.074.037.074-.002.174-.003.174.017-.005c.03-.01.042-.095.057-.427.009-.183.02-.358.025-.39.01-.066-.012-.077-.039-.017l-.018.04-.065-.008a8.887 8.887 0 0 1-.258-.043zm-18.432.014-.106.01-.302.026-.197.016-.204-.016c-.252-.02-.412-.02-.412 0 0 .014.04.023.19.039l.088.01.038.033.038.033.015.085c.023.132.045.512.056.966l.011.416-.222.01c-.285.014-1.592.014-1.73 0l-.104-.009.009-.425c.018-.793.048-1.006.15-1.058a.609.609 0 0 1 .152-.037c.11-.014.136-.023.117-.042-.013-.013-.038-.012-.351.003l-.242.012-.213-.018c-.27-.022-.493-.028-.508-.013-.023.022.011.032.154.043l.145.01.059.03c.032.015.07.05.084.075l.026.045.018.209c.027.334.037 1.36.018 2.003-.023.799-.041.941-.13.99a.848.848 0 0 1-.148.043c-.063.014-.118.032-.12.043l-.006.017h.077c.043 0 .153-.011.244-.025l.167-.026.215.013c.119.006.31.012.423.013l.207.002.006-.02.006-.019h-.074a.754.754 0 0 1-.305-.068.299.299 0 0 1-.079-.107l-.035-.08-.017-.168c-.018-.184-.05-1.244-.037-1.256.004-.005.466-.01 1.025-.014l1.018-.005-.008.76-.007.761-.02.058c-.022.073-.064.1-.184.122-.052.009-.092.02-.087.024.013.014 1.227.018 1.227.004 0-.008-.027-.018-.058-.023-.336-.052-.402-.105-.435-.354-.042-.314-.058-1.481-.031-2.265.015-.456.03-.592.076-.697.034-.077.07-.099.2-.12.057-.01.102-.026.106-.038zm33.184.081a.677.677 0 0 0-.029.145c-.01.073-.032.216-.05.317-.036.212-.039.26-.014.25.01-.002.03-.06.046-.128.035-.151.067-.225.108-.25.043-.028.244-.044.685-.057l.372-.011.013.044c.006.025.011.55.011 1.167v1.123l-.019.27c-.023.32-.042.449-.074.51-.028.054-.117.097-.233.112-.078.01-.093.021-.07.045.014.014.073.006.228-.028.136-.03.423-.03.638-.001.175.024.461.03.461.01a.556.556 0 0 0-.161-.03c-.19-.021-.243-.044-.285-.127l-.032-.062-.017-.21-.018-.212-.001-1.287v-1.288l.018-.019.018-.018.381.018c.413.02.588.038.653.072.051.027.07.082.084.25l.01.129.016-.016c.009-.009.022-.136.028-.282a6.66 6.66 0 0 1 .023-.35l.01-.083-.028.012c-.016.007-.054.02-.084.028-.073.022-1.997.033-2.316.014l-.248-.014-.056-.027c-.032-.015-.062-.022-.068-.016zm26.224.033c-.066.002-.107.009-.107.02 0 .01.055.02.123.027.17.014.276.04.305.072.061.067.084.427.096 1.462l.01.807-.017.392c-.02.423-.044.584-.097.64-.033.035-.128.062-.251.07-.034.003-.06.012-.058.02.006.026.198.026.333 0a1.97 1.97 0 0 1 .624.008h.002c.178.031.355.034.365.005l.006-.018-.098-.01a1.2 1.2 0 0 1-.18-.037l-.084-.025-.027-.046c-.057-.097-.09-.428-.114-1.144l-.01-.3.31.003.311.003.022.019c.013.01.09.105.171.211.379.496.835 1.007 1.01 1.131.114.081.25.15.36.183.12.036.45.06.709.053l.226-.006.042-.028.042-.027.165-.009c.09-.005.303.001.472.013.168.012.42.021.56.021h.253l.045-.023a.246.246 0 0 0 .073-.061c.042-.057.09-.265.1-.432l.01-.148-.018-.01c-.019-.013-.027.017-.04.144-.01.1-.049.227-.082.265-.033.039-.11.056-.33.074l-.196.016-.17-.016-.17-.016-.072-.035-.072-.036-.034-.062c-.05-.09-.065-.233-.065-.635v-.36l.398.01.397.01.054.022.053.022.017.052c.009.028.021.09.027.139.02.182.035.06.032-.281l-.003-.354-.02.027a.104.104 0 0 0-.018.051c0 .035-.063.09-.125.11a3.77 3.77 0 0 1-.433.024l-.38.009v-.192c0-.106-.005-.35-.011-.543l-.01-.35.398.01.398.009.068.02c.04.011.08.037.098.062l.032.042.008.156.009.157.018.005.018.006.008-.112c.004-.062.011-.214.013-.34l.004-.228-.054.008c-.03.005-.265.017-.523.026l-.469.018-.3-.017c-.357-.02-.522-.022-.522-.004 0 .007.04.018.088.024.124.014.193.035.239.07l.04.031.023.104c.013.057.031.205.04.33l.019.227-.008.757c-.009.783-.02.956-.073 1.059l-.03.059-.061.03c-.151.078-.425-.005-.761-.23l-.169-.114-.183-.177c-.1-.097-.322-.33-.492-.516-.17-.186-.365-.395-.435-.465a.727.727 0 0 1-.114-.126c.026 0 .243-.183.332-.28.312-.342.358-.844.107-1.178-.132-.175-.328-.273-.64-.319l-.175-.026-.392.012c-.453.014-.5.014-.737-.01a2.262 2.262 0 0 0-.254-.01zm-101.742.05.22.008c.128.005.255.02.309.035.349.097.559.36.587.735.024.321-.088.646-.275.8l-.07.057-.151.005a3.654 3.654 0 0 1-.555-.029l-.065-.011v-.8zm102.565.128.219.009c.129.005.256.019.31.033.349.097.56.36.587.736.024.32-.088.647-.274.8l-.07.056-.152.006a3.664 3.664 0 0 1-.555-.028l-.065-.012v-.8zm-50.11.31-.041.015-.041.014-.083.185c-.046.102-.183.431-.306.732-.731 1.787-.785 1.894-.963 1.942l-.062.017-.165-.01c-.184-.013-.25-.033-.287-.09-.035-.053-.076-.3-.131-.794a88.054 88.054 0 0 1-.17-1.72 1.183 1.183 0 0 0-.034-.235.064.064 0 0 0-.045-.02h-.03l-.066.105c-.068.106-.156.266-.479.875-.315.594-.693 1.286-.704 1.286-.017 0-.704-1.232-.927-1.664a6.815 6.815 0 0 0-.317-.574c-.032-.038-.078-.034-.093.007-.03.079-.067.367-.133 1.023-.121 1.205-.17 1.565-.224 1.671l-.03.06-.062.032a.531.531 0 0 1-.154.04c-.057.007-.09.017-.088.028l.006.017.114-.004.49-.015.377-.013.006-.019.007-.02H53.3c-.09 0-.18-.023-.205-.053-.038-.045-.044-.144-.03-.439.016-.336.085-1.353.1-1.471l.01-.077.032.061c.07.136 1.05 1.898 1.077 1.938.017.023.039.042.05.042.024 0 .076-.094.2-.365.142-.314.899-1.71.916-1.692.01.01.12 1.217.141 1.54.01.153.013.322.008.376l-.01.098-.053.058a.341.341 0 0 0-.053.068c0 .016.027.012.096-.017l.067-.026h.107c.168.002.642.025.697.033.027.004.155-.004.284-.018l.235-.026.182.011.182.011v-.016c0-.009-.038-.021-.085-.027-.093-.011-.13-.038-.13-.09 0-.058.27-.903.296-.93.004-.004.211-.008.46-.01.25-.003.463-.008.474-.01l.021-.008.122.316c.067.174.156.413.2.532a1.7 1.7 0 0 0 .098.236l.02.021.084-.018.085-.02.145.02c.286.037.445.038.445.002 0-.007-.042-.018-.094-.023-.104-.01-.208-.052-.247-.096-.045-.052-.133-.224-.238-.469-.217-.507-.7-1.7-.876-2.167a.498.498 0 0 0-.072-.138zm-45.351.065-.037.041-.036.041-.199-.03-.2-.03-.193.007c-.291.01-.466.07-.621.212l-.085.077-.046.095a.732.732 0 0 0 .067.754c.103.146.238.26.573.488.368.25.436.31.497.434l.047.096v.222l-.032.069a.52.52 0 0 1-.259.226l-.087.034h-.461l-.086-.025a.444.444 0 0 1-.262-.208l-.036-.074-.005-.146c-.006-.158-.021-.2-.05-.129l-.018.045.01.329a4.5 4.5 0 0 0 .015.334c.003.004.022 0 .043-.01l.037-.016.145.023.147.023.253-.006.254-.006.122-.032a.816.816 0 0 0 .536-.427l.049-.105v-.355l-.058-.118-.059-.118-.095-.097c-.058-.06-.22-.18-.418-.313l-.323-.218-.101-.105a1.003 1.003 0 0 1-.138-.175l-.035-.069-.007-.116-.007-.116.034-.08a.463.463 0 0 1 .228-.223l.072-.034h.353l.086.027c.048.015.12.05.162.077l.075.05.035.07.036.069-.005.122-.005.121.017.006c.026.009.035-.056.042-.288.004-.114.012-.256.017-.315zm12.407.01c-.02 0-.036.008-.042.023-.005.013-.01.481-.01 1.04 0 1.302-.017 1.587-.1 1.687l-.039.045-.092.018c-.05.01-.09.025-.09.033v.016l.119-.014c.065-.008.28-.012.476-.01l.357.004v-.014c0-.009-.026-.02-.058-.024-.202-.033-.25-.062-.28-.163-.024-.079-.043-.545-.054-1.282l-.01-.66.152.145c.083.08.465.462.85.851.762.77 1.105 1.098 1.195 1.146.062.032.105.04.118.02.004-.008.011-.5.015-1.096.01-1.546.025-1.666.227-1.697.122-.018.151-.026.151-.04 0-.019-.1-.018-.233.003-.059.009-.255.018-.436.02l-.33.002v.015c0 .008.056.02.126.025l.126.01.041.045.042.046.017.099c.032.181.05.693.044 1.333l-.004.637-.23-.215a39.326 39.326 0 0 1-1.623-1.634 17.931 17.931 0 0 0-.366-.396.088.088 0 0 0-.059-.019zm-7.3.003c-.2-.009-.41.013-.605.065-.555.149-.911.53-1.032 1.106-.025.116-.024.445 0 .576.111.587.54.999 1.162 1.114l.123.024.223-.005.223-.005.13-.035c.296-.076.605-.276.789-.508.162-.205.255-.422.298-.7l.023-.153-.008-.192a1.3 1.3 0 0 0-.148-.593l-.078-.154-.1-.11c-.111-.123-.3-.256-.45-.318a1.62 1.62 0 0 0-.55-.113zm42.346.005c-.02.001-.037.01-.043.024-.005.013-.01.483-.01 1.043 0 1.305-.017 1.59-.102 1.69l-.037.046-.092.018c-.05.01-.092.025-.092.034v.015l.12-.014c.065-.007.28-.011.477-.009l.359.004v-.015c0-.008-.026-.018-.058-.024-.203-.032-.252-.061-.282-.163-.023-.08-.042-.546-.053-1.284l-.01-.663.151.146c.084.08.467.463.853.852.764.772 1.108 1.102 1.198 1.15.062.033.105.04.118.02.004-.007.01-.502.015-1.099.01-1.55.026-1.67.228-1.7.122-.02.151-.027.151-.041 0-.02-.1-.018-.233.002-.06.01-.257.018-.438.02l-.33.002-.001.015c0 .008.057.02.126.025l.127.01.041.046.042.046.017.098c.032.182.05.695.045 1.337l-.004.639-.231-.216a39.44 39.44 0 0 1-1.627-1.638 17.832 17.832 0 0 0-.367-.397.089.089 0 0 0-.058-.019zm-29.855.001h-.27l-.178.033a1.613 1.613 0 0 0-.482.153c-.36.178-.601.476-.709.872l-.029.107v.285l.001.284.027.1c.065.237.133.375.265.54.206.256.557.43.983.489.152.02.586.008.76-.022.08-.014.225-.033.32-.043l.176-.019-.002-.423c-.003-.44.014-.69.052-.747l.022-.034.09-.018c.048-.01.098-.02.11-.025l.023-.007-.017-.011a.99.99 0 0 0-.207.006l-.19.019-.285-.017c-.27-.015-.38-.01-.362.018a.474.474 0 0 0 .14.022c.153.01.206.032.238.095l.023.047v.999l-.1.02a2.48 2.48 0 0 1-.338.023l-.239.002-.121-.028a1.117 1.117 0 0 1-.615-.35l-.104-.112-.075-.155a1.568 1.568 0 0 1-.155-.58l-.019-.181.018-.188c.02-.217.048-.332.111-.464.176-.364.586-.555 1.128-.525.297.017.59.108.721.224a.51.51 0 0 1 .098.128l.04.077.008.12c.004.067.014.121.021.121.017 0 .015.03.028-.346l.011-.339.025-.055c.033-.073.016-.087-.034-.029l-.04.048-.168-.039a2.628 2.628 0 0 0-.7-.075zm-16.938.015c-.013.007-.016.028-.016.064 0 .03-.018.142-.039.248-.04.202-.049.324-.024.324.008 0 .023-.03.031-.066.035-.14.064-.226.09-.257l.026-.032.108-.016c.107-.016.761-.043.776-.032.004.003.007.452.007.999v.994l-.02.177c-.034.304-.054.338-.22.37-.05.01-.089.025-.09.033 0 .016.066.012.282-.018l.118-.017.247.023c.28.027.485.03.498.009.011-.018-.026-.026-.164-.037-.183-.014-.216-.049-.246-.261l-.018-.125v-1.038c0-.57.004-1.055.01-1.076l.01-.038.212.003c.28.006.596.032.645.054.056.026.084.091.093.221l.01.115.016-.006.017-.005.008-.26c.005-.143.015-.28.022-.305l.012-.044-.037.01c-.102.032-.475.042-1.328.037l-.922-.007-.05-.026c-.032-.016-.052-.022-.064-.015zm20.014 0c-.012.007-.017.028-.017.064 0 .03-.017.142-.038.248-.04.202-.048.324-.024.324.009 0 .023-.03.031-.066.035-.14.064-.226.09-.257l.026-.032.107-.016a8.79 8.79 0 0 1 .777-.032c.004.003.007.452.007.999v.994l-.02.177c-.033.304-.054.338-.22.37-.05.01-.09.025-.09.033 0 .016.066.012.281-.018l.12-.017.245.023c.281.027.487.03.5.009.011-.018-.028-.026-.165-.037-.184-.014-.216-.049-.246-.261l-.018-.125-.001-1.038c0-.57.005-1.055.011-1.076l.01-.038.212.003c.281.006.596.032.645.054.056.026.085.091.094.221l.009.115.017-.006.016-.005.009-.26a2.7 2.7 0 0 1 .021-.305l.013-.044-.038.01c-.102.032-.475.042-1.327.037l-.923-.007-.05-.026c-.032-.016-.052-.022-.064-.015zm-9.42 0-.183.014c-.1.008-.275.01-.39.007-.327-.012-.515-.01-.523.008-.005.01.047.019.131.024.146.01.197.026.223.076.01.016.024.107.035.202l.018.174v.93l.001.93-.02.122a.83.83 0 0 1-.046.177l-.026.055-.06.028-.058.029-.148.002-.15.002-.114-.055c-.232-.112-.444-.307-.87-.806a13.252 13.252 0 0 0-.339-.387l-.063-.063.063-.035c.034-.02.12-.09.19-.158l.128-.122.054-.11a.929.929 0 0 0 .072-.213l.018-.103-.018-.122a.758.758 0 0 0-.059-.203c-.082-.163-.274-.302-.5-.361l-.099-.027-.26.002-.727.007-.465.004v.016c0 .008.063.02.142.025.161.011.218.03.242.075.034.063.049.36.057 1.168l.008.822-.017.235a1.64 1.64 0 0 1-.04.287c-.03.072-.082.102-.216.121-.063.01-.115.022-.115.03 0 .017.222.014.338-.006a1.6 1.6 0 0 1 .492.007c.128.026.35.027.342.003-.002-.009-.054-.024-.115-.033-.202-.033-.23-.056-.256-.222a7.675 7.675 0 0 1-.048-.798v-.193l.25.004.25.004.165.227c.217.3.499.644.643.788.23.23.414.27 1.052.23a5.83 5.83 0 0 1 .849-.007l.281.012v-.015c0-.009-.059-.024-.13-.033-.19-.025-.232-.061-.267-.228-.071-.338-.073-2.265-.001-2.422.022-.048.04-.056.17-.07l.095-.01.007-.023zm14.476 0v.017c0 .022.038.034.113.035.088.001.164.03.196.076l.027.038.018.185c.022.239.043.918.028.936-.013.016-1.758.022-1.774.006a4.564 4.564 0 0 1 .006-.454l.017-.442.025-.105.025-.105.04-.046.041-.044.092-.016c.051-.009.103-.02.116-.025l.023-.008-.03-.012a.358.358 0 0 0-.123.002c-.121.018-.483.017-.677-.002-.194-.02-.347-.02-.377-.001l-.022.015.022.007c.013.004.08.01.148.014a.6.6 0 0 1 .183.035l.058.027.019.048c.035.086.054.53.054 1.292 0 .783-.013 1.034-.058 1.157l-.027.072-.05.034a.366.366 0 0 1-.142.044c-.05.006-.092.017-.092.026v.016l.111-.01c.062-.004.189-.015.283-.025l.172-.018.184.017c.215.02.48.022.48.005a.504.504 0 0 0-.15-.03l-.148-.018-.04-.029c-.065-.048-.104-.12-.122-.224a13.605 13.605 0 0 1-.043-1.02 42.544 42.544 0 0 1 1.72-.014l.073.011v.403c0 .222-.007.49-.014.599l-.013.196-.025.038c-.025.038-.107.069-.182.069h-.042v.049l.127-.013c.155-.016.313-.015.707.002l.303.013v-.017c0-.009-.032-.02-.073-.025-.227-.027-.323-.065-.365-.148-.056-.108-.09-.905-.068-1.65.016-.559.03-.716.074-.817l.03-.067.047-.024a.234.234 0 0 1 .09-.024c.06 0 .112-.016.112-.034v-.016l-.127.013a5.776 5.776 0 0 1-.777 0zm3.683.003-.055.009c-.03.004-.265.016-.523.026l-.469.017-.3-.017c-.357-.02-.522-.022-.522-.004 0 .008.04.018.088.023.124.015.194.036.24.072l.039.03.023.104c.013.057.032.205.041.33l.019.226-.009.758c-.008.783-.02.955-.073 1.059l-.03.06-.06.029a.98.98 0 0 1-.266.062c-.008 0-.013.007-.013.016h.002c0 .024.131.018.339-.017l.192-.033.269.009c.148.005.353.016.456.026.103.01.276.015.384.012l.197-.005.046-.023a.246.246 0 0 0 .072-.062c.042-.057.09-.264.1-.432l.01-.147-.017-.01c-.02-.012-.028.016-.04.143a.63.63 0 0 1-.083.266c-.034.039-.109.056-.33.074l-.195.016-.17-.016-.17-.016-.073-.036-.072-.036-.034-.062c-.05-.09-.065-.232-.065-.634v-.36l.398.01.397.01.055.02.053.023.016.052a.98.98 0 0 1 .027.14c.02.182.034.06.032-.281l-.003-.353-.018.026a.102.102 0 0 0-.02.05c0 .036-.062.09-.124.11-.03.01-.224.02-.433.025l-.38.008v-.191c0-.106-.005-.35-.011-.543l-.01-.35.397.008.399.01.068.02a.21.21 0 0 1 .099.062l.031.042.009.157.008.156.017.007.018.006.008-.113a7.52 7.52 0 0 0 .014-.34zm34.566.003c-.02 0-.027.021-.027.066 0 .032-.017.144-.038.25-.04.202-.049.324-.024.324.008 0 .023-.03.031-.066.035-.14.064-.226.09-.257l.026-.033.108-.016c.107-.016.764-.043.778-.032.005.003.008.454.008 1.002v.997l-.02.177c-.034.305-.054.339-.22.372-.05.01-.09.023-.091.032 0 .016.065.011.28-.019l.12-.016.247.023c.282.027.487.03.5.008.012-.018-.027-.026-.164-.037-.184-.014-.217-.048-.248-.261l-.017-.126v-1.04c0-.572.003-1.058.01-1.079l.01-.038.213.004c.281.005.598.032.646.054.057.026.085.091.094.221l.009.115.017-.005.017-.006.008-.26c.005-.144.014-.281.021-.306l.013-.044-.036.011c-.103.032-.478.041-1.332.036l-.925-.007-.05-.025c-.024-.013-.042-.02-.054-.02zm-.82.002-.183.014c-.1.007-.276.01-.39.006-.33-.011-.516-.008-.525.009-.004.009.047.019.131.024.147.01.197.027.224.076.009.017.024.109.035.204l.018.174v1.864l-.019.123a.82.82 0 0 1-.046.177l-.027.055-.059.028-.058.03-.15.002-.149.001-.116-.055c-.232-.112-.443-.308-.87-.808a12.73 12.73 0 0 0-.341-.387l-.063-.064.062-.035a1.4 1.4 0 0 0 .192-.159l.128-.122.054-.11a.94.94 0 0 0 .072-.214l.018-.103-.018-.122a.762.762 0 0 0-.059-.203c-.083-.164-.275-.303-.5-.363l-.1-.027-.262.003c-.144 0-.471.004-.728.006l-.466.005v.016c0 .008.063.02.142.026.162.01.218.028.243.074.033.063.048.362.057 1.171l.008.825-.017.235c-.01.13-.027.26-.04.288-.03.073-.082.102-.216.121-.064.01-.116.023-.116.03 0 .018.222.015.339-.005.14-.024.356-.02.493.007v-.001c.128.025.348.027.342.002-.002-.008-.054-.023-.115-.032-.203-.033-.23-.057-.257-.224a7.753 7.753 0 0 1-.047-.8v-.192l.25.003.25.003.166.227c.218.3.5.646.644.79.23.23.415.271 1.055.23.377-.023.472-.024.852-.006l.281.013v-.016c0-.008-.059-.022-.13-.032-.19-.024-.233-.06-.268-.228-.072-.34-.073-2.272-.001-2.43.022-.048.04-.055.17-.07l.096-.01.007-.022zm-4.674 0-.183.014c-.1.008-.276.011-.39.007-.334-.012-.524-.009-.525.008 0 .009.06.02.134.024.144.01.194.027.22.077.034.062.049.338.057 1.109l.008.793-.016.256c-.026.374-.062.463-.197.484l-.106.016c-.03.005-.055.017-.055.026v.016l.182-.013c.222-.016.348-.016.709 0l.281.013v-.015c0-.009-.059-.023-.13-.033-.19-.024-.233-.061-.268-.228-.072-.34-.073-2.272-.002-2.429.022-.048.04-.055.171-.07l.096-.011.007-.022zm-22.55.002v.016c0 .024.04.035.124.035.097 0 .12.01.148.066.046.089.055.24.066 1.105l.011.87.041.126c.077.23.216.395.422.502a.962.962 0 0 0 .334.113c.154.028.412.028.575 0 .187-.033.428-.116.624-.215l.164-.082.009.117a.476.476 0 0 0 .021.128c.014.013.502.045.69.045.07 0 .133-.007.138-.015.01-.016-.038-.025-.181-.037-.112-.01-.195-.05-.23-.112a.624.624 0 0 1-.044-.175c-.043-.344-.043-2.034 0-2.258.025-.125.05-.158.133-.18.038-.009.069-.024.069-.032v-.016l-.12.013a2.921 2.921 0 0 1-.546 0 1.468 1.468 0 0 0-.254-.002l-.028.012.03.012c.017.008.06.014.094.014.09.002.154.027.174.07.01.022.026.117.035.212l.018.174v.946l-.001.948-.044.036c-.074.06-.314.171-.445.206l-.123.033h-.209l-.207.001-.106-.026a.852.852 0 0 1-.513-.36 1.256 1.256 0 0 1-.138-.41l-.024-.142-.009-.485c-.008-.491.01-.955.043-1.07a.258.258 0 0 1 .052-.094l.035-.035.087-.01c.048-.007.092-.019.097-.027l.009-.016-.206.012a5.55 5.55 0 0 1-.238.012l-.303-.013zm20.344.015h-.27c-.73.004-1.2.013-1.211.024-.023.023.012.033.149.038a.946.946 0 0 1 .176.02c.082.03.103.115.132.544l.018.26-.008.68c-.01.807-.034 1.059-.109 1.144l-.033.039-.096.017c-.053.01-.097.024-.097.033v.015l.127-.014c.07-.008.255-.011.412-.008.57.01.6.01.605-.006.002-.009-.053-.019-.132-.024l-.135-.01-.042-.03a.25.25 0 0 1-.069-.111l-.027-.08-.015-.25c-.018-.293-.02-.762-.005-1.581l.01-.592.148.01c.433.028.677.208.74.547.07.363-.068.676-.36.82l-.106.052h-.168a.624.624 0 0 0-.166.01c0 .022.055.033.192.04.26.015.498-.045.687-.172l.115-.078.08-.107a.753.753 0 0 0 .156-.574 1.023 1.023 0 0 0-.045-.214l-.034-.09-.102-.102-.101-.102-.105-.049a1.357 1.357 0 0 0-.208-.074zm62.765.033c-.108.001-.34.043-.47.092l-.083.03-.078.082c-.14.148-.378.553-.642 1.09a.653.653 0 0 1-.067.118c-.004 0-.075-.136-.157-.303-.33-.674-.518-.936-.728-1.019l-.092-.036h-.23c-.127 0-.25.005-.273.011-.072.019-.047.04.046.041.197 0 .282.083.607.577.191.29.35.563.47.806l.087.177.005.339c.005.353-.015.7-.044.765-.02.043-.062.066-.148.08-.09.016-.112.023-.112.041v.017l.08-.009.213-.025.132-.016.19.015c.249.019.488.02.5 0 .01-.018-.03-.026-.173-.036-.127-.01-.19-.037-.216-.094-.034-.075-.054-.337-.056-.747l-.002-.408.276-.46c.307-.514.407-.668.546-.843.13-.164.218-.216.42-.248.031-.005.057-.016.057-.024 0-.01-.022-.013-.058-.013zm-16.488.01-.187.025a1.899 1.899 0 0 0-.635.188l-.175.086-.142.14a1.307 1.307 0 0 0-.386.753l-.024.142.009.192.008.192.038.152c.15.58.599.93 1.312 1.022.058.007.226.014.374.015.41.003.734-.05.796-.13.063-.08.147-.538.103-.56-.01-.004-.02.032-.027.084-.03.238-.113.322-.394.395l-.117.031-.224.009-.225.009-.13-.019c-.656-.094-1.053-.544-1.099-1.243a1.5 1.5 0 0 1 .142-.754l.07-.144.118-.118.118-.119.102-.05c.057-.027.156-.063.223-.082l.12-.032h.6l.162.033c.266.057.412.143.445.263.01.03.015.13.016.22v.167l.018-.006c.032-.01.042-.089.053-.388.006-.18.018-.315.03-.352a.459.459 0 0 0 .021-.073c0-.024-.043-.014-.052.012l-.01.024-.088-.009a4.279 4.279 0 0 0-.664-.066zm-22.402.001a2.05 2.05 0 0 0-.606.066c-.555.149-.912.53-1.033 1.106-.024.116-.023.445.001.577.111.587.54 1 1.162 1.115l.124.023.223-.005.222-.005.131-.034c.296-.076.606-.276.79-.508.161-.205.254-.423.297-.701l.024-.154-.009-.192a1.3 1.3 0 0 0-.147-.593l-.078-.154-.1-.111a1.442 1.442 0 0 0-.45-.317 1.623 1.623 0 0 0-.551-.113Zm7.593.007h-.27l-.18.033a1.613 1.613 0 0 0-.481.152 1.33 1.33 0 0 0-.71.874l-.029.107v.284l.001.285.027.1c.065.237.134.375.266.54.206.257.557.432.984.49h-.001c.151.02.587.008.761-.022.08-.013.225-.032.321-.043l.175-.018-.002-.423c-.003-.44.015-.69.053-.749l.021-.034.09-.017c.048-.01.098-.02.11-.025l.023-.008-.017-.01a.958.958 0 0 0-.207.006l-.19.018-.285-.016c-.271-.016-.38-.01-.363.017a.488.488 0 0 0 .14.022c.154.01.206.032.238.096l.023.046v1l-.1.02a2.429 2.429 0 0 1-.338.023l-.239.002-.12-.029a1.118 1.118 0 0 1-.617-.35l-.103-.112-.076-.154a1.572 1.572 0 0 1-.155-.581l-.02-.18.019-.19c.02-.217.048-.332.111-.464.176-.365.586-.555 1.13-.525.297.017.59.108.722.224a.509.509 0 0 1 .097.128l.039.077.008.12c.005.067.014.121.021.121.018 0 .016.03.029-.346l.011-.339.025-.055c.032-.073.015-.087-.035-.028l-.04.047-.168-.039a2.627 2.627 0 0 0-.7-.075zm-13.03.015-.126.013a5.78 5.78 0 0 1-.777.001l-.204-.014v.016c0 .023.038.035.113.036.088.001.164.03.196.076l.028.038.017.185c.023.239.043.919.028.936-.013.017-1.759.022-1.775.006a4.6 4.6 0 0 1 .006-.453l.017-.443.026-.105.025-.106.04-.044.041-.045.093-.016c.05-.009.102-.02.115-.024l.023-.01-.03-.01a.367.367 0 0 0-.124.002 4.136 4.136 0 0 1-.677-.002c-.195-.02-.347-.02-.377-.001l-.022.014.022.007c.013.004.08.01.148.014a.602.602 0 0 1 .183.035l.057.028.02.047c.035.086.054.53.054 1.294 0 .783-.013 1.033-.059 1.156l-.027.073-.05.033a.369.369 0 0 1-.142.045c-.05.006-.092.018-.092.027v.015l.112-.009c.061-.005.189-.017.283-.027l.172-.017.185.017c.214.02.479.022.479.005a.49.49 0 0 0-.149-.03l-.149-.018-.039-.03a.332.332 0 0 1-.123-.223 13.589 13.589 0 0 1-.041-1.021 42.84 42.84 0 0 1 1.72-.014l.073.011v.403c0 .222-.007.492-.014.6l-.014.196-.024.038c-.025.038-.107.069-.182.069h-.043v.05l.127-.014c.156-.016.313-.016.708.001l.303.014v-.017c0-.01-.033-.022-.073-.026-.227-.027-.323-.065-.366-.148-.056-.109-.088-.905-.067-1.65.015-.56.03-.717.074-.818l.03-.067.047-.024a.238.238 0 0 1 .09-.024c.061 0 .111-.017.111-.035zm18.013 0-.126.013a5.78 5.78 0 0 1-.777.001l-.205-.014v.016c0 .023.039.035.114.036.088.001.163.03.196.076l.028.038.017.185c.022.239.043.919.028.936-.013.017-1.76.022-1.776.006a4.701 4.701 0 0 1 .007-.453l.018-.443.025-.105.025-.106.04-.044.041-.045.093-.016c.05-.009.102-.02.115-.024l.023-.01-.03-.01a.367.367 0 0 0-.124.002 4.136 4.136 0 0 1-.677-.002c-.195-.02-.347-.02-.376-.001l-.023.014.022.007c.013.004.08.01.148.014a.601.601 0 0 1 .183.035l.058.028.019.047c.035.086.054.53.054 1.294 0 .783-.013 1.033-.058 1.156l-.028.073-.05.033a.37.37 0 0 1-.142.045c-.05.006-.092.018-.092.027v.015l.112-.009c.061-.005.189-.017.283-.027l.172-.017.185.017c.214.02.479.022.479.005a.49.49 0 0 0-.149-.03l-.149-.018-.039-.03a.332.332 0 0 1-.123-.223 13.632 13.632 0 0 1-.042-1.021 42.87 42.87 0 0 1 1.721-.014l.073.011v.403c0 .222-.007.492-.014.6l-.014.196-.024.038c-.025.038-.107.069-.182.069h-.043v.05l.127-.014c.156-.016.313-.016.708.001l.304.014v-.017c0-.01-.034-.022-.074-.026-.227-.027-.323-.065-.365-.148-.057-.109-.09-.905-.068-1.65.015-.56.03-.717.074-.818l.03-.067.046-.024a.239.239 0 0 1 .09-.024c.061 0 .112-.017.112-.035zm-10.613 0v.016c0 .024.038.036.122.036.097 0 .12.009.149.065.046.088.054.24.065 1.103l.011.87.042.123c.076.23.214.396.42.503a.964.964 0 0 0 .334.112c.153.028.411.027.574-.001.187-.033.427-.115.623-.213l.163-.083.009.117a.477.477 0 0 0 .021.128c.014.013.502.044.689.044.071 0 .133-.006.138-.014.01-.016-.038-.026-.181-.038-.112-.009-.194-.05-.23-.111a.618.618 0 0 1-.043-.174c-.043-.343-.042-2.031 0-2.254.025-.125.049-.158.132-.18.038-.009.069-.024.069-.032v-.016l-.12.013a2.909 2.909 0 0 1-.544 0 1.493 1.493 0 0 0-.254-.002l-.028.011.03.013c.018.007.06.013.095.013.09.002.152.028.172.072.01.02.026.115.036.21l.017.174v.945l-.001.946-.044.035c-.073.06-.313.171-.444.206l-.123.034h-.415l-.106-.026a.85.85 0 0 1-.512-.359 1.256 1.256 0 0 1-.137-.41l-.024-.14-.009-.486c-.008-.49.01-.952.042-1.067a.259.259 0 0 1 .053-.094l.035-.036.087-.01c.048-.006.091-.018.096-.026l.01-.016-.206.012a5.53 5.53 0 0 1-.237.012l-.304-.013zm-5.238.015-.262.002c-.143 0-.47.004-.726.006l-.465.005v.016c0 .008.063.02.141.025.162.012.218.029.243.074.033.063.048.362.056 1.17l.01.823-.018.235c-.01.13-.028.258-.04.287-.03.072-.082.101-.216.12-.063.01-.115.024-.115.03 0 .018.222.015.338-.004.14-.024.356-.021.493.006v.001c.127.025.348.027.341.003-.002-.009-.054-.025-.116-.034-.202-.032-.23-.055-.256-.222a7.757 7.757 0 0 1-.046-.799v-.192l.25.003.249.003.165.228c.217.3.5.644.643.788.18.179.303.227.617.242.289.013.531-.022.322-.047a1.018 1.018 0 0 1-.395-.185c-.154-.116-.365-.334-.66-.679a12.681 12.681 0 0 0-.34-.386l-.063-.064.063-.036c.034-.02.12-.09.19-.157l.128-.123.054-.11a.942.942 0 0 0 .073-.213l.017-.103-.017-.122a.759.759 0 0 0-.06-.203c-.082-.163-.274-.302-.5-.362zm29.01 0c-.2-.007-.41.014-.605.066-.555.149-.912.53-1.033 1.106-.024.116-.023.445.001.576.11.587.54.999 1.161 1.115l.124.022.223-.005.223-.005.13-.033c.296-.077.605-.277.79-.509.16-.205.254-.422.297-.7l.023-.154-.009-.191a1.3 1.3 0 0 0-.148-.593l-.077-.154-.1-.11c-.112-.122-.3-.256-.45-.318a1.62 1.62 0 0 0-.55-.112zm2.591.023-.157.013a3.59 3.59 0 0 1-.357.007c-.351-.012-.576-.009-.58.007-.003.009.04.02.096.025a.417.417 0 0 1 .133.03c.085.053.183.245.904 1.767.25.528.466.97.48.98.071.053.102.02.201-.22.043-.1.104-.239.135-.307.03-.067.142-.32.246-.563.533-1.232.73-1.597.894-1.667a.305.305 0 0 1 .1-.022c.068 0 .12-.015.12-.035v-.015l-.189.014a4.568 4.568 0 0 1-.388.008c-.355-.01-.43-.01-.438.006-.004.009.033.019.092.024.128.012.15.023.161.075.013.057-.028.246-.094.435-.084.24-.672 1.695-.696 1.722-.01.011-.384-.736-.547-1.096-.205-.451-.358-.853-.383-1l-.009-.057.028-.033.028-.035.076-.007c.112-.01.145-.02.145-.039zm4.283.002-.055.009c-.03.005-.264.015-.522.025l-.47.018-.3-.017c-.356-.021-.522-.022-.522-.004 0 .007.04.018.089.024.124.014.193.034.238.07l.04.031.023.104c.013.057.032.205.042.33l.018.227-.008.757c-.01.783-.02.955-.073 1.059l-.03.059-.06.03a.984.984 0 0 1-.267.062c-.006 0-.012.008-.012.016h.003c0 .024.131.018.339-.017l.191-.032.27.009c.148.004.353.016.456.026.103.009.275.014.384.011l.197-.005.045-.023a.246.246 0 0 0 .072-.061c.042-.057.09-.264.1-.432l.01-.148-.017-.01c-.019-.012-.027.017-.04.144-.01.1-.05.226-.082.265-.034.039-.11.056-.33.074l-.196.016-.17-.016-.17-.015-.072-.036-.073-.037-.033-.061c-.05-.09-.066-.233-.066-.634v-.36l.398.009.398.009.054.022.053.023.016.051a.902.902 0 0 1 .027.14c.021.182.036.06.032-.281l-.003-.353-.019.026a.104.104 0 0 0-.02.051c0 .036-.061.09-.123.11a3.8 3.8 0 0 1-.434.025l-.38.008v-.192c0-.106-.006-.35-.01-.542l-.012-.352.399.01.399.01.067.02c.04.011.081.037.1.061l.03.043.009.156.008.156.018.006.018.006.008-.112c.004-.062.01-.215.013-.34zm-107.87.007h.154l.1.026c.474.126.798.544.844 1.09.016.19-.005.473-.045.64a1.817 1.817 0 0 1-.11.292l-.077.16-.103.103-.104.103-.114.057a1.085 1.085 0 0 1-.235.08 1.039 1.039 0 0 1-1.076-.46c-.187-.282-.269-.598-.252-.977.015-.312.086-.54.234-.747a.726.726 0 0 1 .316-.26.992.992 0 0 1 .468-.107zm110.175.005-.262.002-.726.007-.465.004v.016c0 .008.063.02.142.025.162.012.217.029.242.074.034.063.049.362.057 1.17l.008.821-.017.235c-.01.13-.026.259-.039.287-.03.073-.083.102-.217.121-.063.01-.115.023-.115.03 0 .017.223.015.34-.005.138-.023.354-.02.49.007.128.025.348.027.342.002-.002-.008-.054-.023-.115-.033-.202-.032-.23-.056-.256-.222a7.686 7.686 0 0 1-.047-.798v-.192l.25.003.25.004.164.227c.217.299.499.644.643.788.179.178.302.227.616.241.288.013.531-.021.322-.046a1.019 1.019 0 0 1-.395-.185c-.154-.116-.365-.334-.66-.679a13.005 13.005 0 0 0-.339-.386l-.063-.064.063-.035c.034-.02.12-.09.19-.158l.128-.122.055-.11a.938.938 0 0 0 .071-.213l.018-.103-.018-.122a.771.771 0 0 0-.059-.203c-.082-.162-.274-.301-.5-.361zm-107.072.004c.154-.006.36.03.463.08a.827.827 0 0 1 .152.103l.07.062.055.11a.857.857 0 0 1 .036.63.567.567 0 0 1-.172.269l-.071.065-.19-.002c-.188-.003-.44-.021-.452-.034a15.424 15.424 0 0 1-.01-.642l-.002-.636zm51.957.009c.145.004.314.037.404.081a.835.835 0 0 1 .153.102l.071.063.054.11a.858.858 0 0 1 .037.632.568.568 0 0 1-.173.269l-.071.065-.189-.002c-.19-.002-.44-.02-.454-.033a18.524 18.524 0 0 1-.01-.645l-.002-.637.12-.005h.06zm20.14.073.1.026c.476.126.799.544.845 1.091.016.19-.004.472-.045.64a1.835 1.835 0 0 1-.11.292l-.076.16-.104.103-.104.105-.114.055a1.04 1.04 0 0 1-1.312-.38c-.187-.282-.268-.598-.25-.977.014-.312.085-.542.232-.749a.725.725 0 0 1 .317-.26.993.993 0 0 1 .468-.106zm-3.74.01c.154-.007.36.03.464.08a.836.836 0 0 1 .152.102l.07.062.054.11a.857.857 0 0 1 .037.631.568.568 0 0 1-.172.268l-.07.065-.19-.002c-.188-.002-.44-.02-.452-.033a15.151 15.151 0 0 1-.01-.643l-.003-.636zm29.476.027.1.026c.475.126.798.544.844 1.09.016.189-.004.472-.045.64a1.81 1.81 0 0 1-.11.292l-.076.16-.104.103-.104.104-.114.056a1.038 1.038 0 0 1-1.31-.38c-.188-.281-.27-.598-.252-.977.014-.312.086-.54.233-.747a.725.725 0 0 1 .316-.26.993.993 0 0 1 .468-.106zm8.713.01c.154-.007.36.03.464.08a.83.83 0 0 1 .152.102l.07.062.054.11a.856.856 0 0 1 .037.63.567.567 0 0 1-.172.269l-.07.065-.19-.002c-.188-.003-.439-.02-.452-.034a18.075 18.075 0 0 1-.01-.642l-.003-.636zm-69.304.252.203.516c.112.284.2.52.194.526-.02.02-.808.014-.808-.006 0-.003.093-.237.206-.52z" style="fill:#000;stroke-width:.290164"/>
</svg>
