<svg xmlns="http://www.w3.org/2000/svg" xml:space="preserve" viewBox="0 0 52.917 52.917">
  <path d="M25.589 48.185c-.254-.021-.485-.053-.515-.071-.029-.018-.25-.056-.492-.083a4.709 4.709 0 0 1-.68-.125l-.7-.217a5.749 5.749 0 0 1-.585-.206.602.602 0 0 0-.181-.066c-.082 0-1.235-.587-1.338-.68-.05-.046-.107-.083-.126-.083-.036 0-.464-.29-.72-.49-.084-.065-.207-.16-.275-.208-.179-.13-1.175-1.123-1.365-1.361-.368-.46-.49-.623-.654-.878-.094-.148-.172-.29-.172-.318 0-.028-.02-.05-.043-.05-.024 0-.08-.086-.127-.19a9.212 9.212 0 0 0-.23-.471c-.228-.433-.405-.854-.642-1.526a7.465 7.465 0 0 1-.285-1.22 4.74 4.74 0 0 0-.108-.56c-.042-.146-.065-.547-.065-1.118 0-.997.045-1.201.273-1.25.074-.016.28-.073.46-.127.18-.054.374-.098.432-.1.059 0 .198-.045.31-.1.111-.053.245-.098.297-.1a.645.645 0 0 0 .229-.073c.074-.04.238-.117.364-.17.317-.136.47-.207.559-.26.042-.026.133-.072.203-.104.07-.031.219-.112.33-.178.45-.269.5-.29.542-.221.045.073.009.26-.087.446-.125.243-.276.842-.353 1.407-.07.511-.07.643 0 1.297.073.693.118.91.305 1.49l.131.416c.066.214.415.876.662 1.256.4.615 1.214 1.45 1.735 1.779l.27.17c.055.035.17.099.254.142.084.043.187.1.228.125.168.1.516.257.573.257.034 0 .176.044.316.097.604.228 1.02.284 2.112.284.876 0 1.077-.014 1.26-.089.119-.048.267-.089.329-.089.141 0 .978-.318 1.207-.46.042-.025.145-.082.23-.125.828-.426 1.724-1.256 2.305-2.135.261-.396.666-1.179.67-1.297a.374.374 0 0 1 .073-.17.852.852 0 0 0 .106-.3 2.08 2.08 0 0 1 .1-.364c.035-.086.093-.469.128-.85a6.116 6.116 0 0 0 0-1.373c-.036-.374-.088-.724-.116-.778a2.288 2.288 0 0 1-.117-.356c-.124-.491-.595-1.555-.689-1.555-.021 0-.055-.05-.074-.111-.049-.153-.67-.93-.971-1.214-.135-.128-.398-.351-.583-.496-.306-.239-.344-.256-.407-.18-.056.067-.073.442-.085 1.825l-.014 1.74-.157.032c-.086.017-.703.031-1.37.031-1.154 0-1.214-.004-1.265-.1-.065-.12-.05-9.296.015-9.396.032-.05 1.012-.063 4.616-.063h4.574l.05.13c.075.197.065 2.63-.011 2.707-.046.045-.583.061-2.102.061-1.123 0-2.056.015-2.073.032-.047.047.141.273.387.465.805.629 1.13.964 1.933 1.995.095.123.34.504.34.53 0 .013.065.122.146.243.081.12.184.298.228.396.044.098.1.213.125.255.025.041.09.179.147.305l.184.406c.201.44.416 1.153.552 1.831.085.424.112.781.128 1.729.02 1.056.01 1.263-.086 1.78-.059.321-.139.687-.177.813a4.503 4.503 0 0 0-.107.428 1.42 1.42 0 0 1-.105.33.607.607 0 0 0-.07.21.876.876 0 0 1-.101.266.934.934 0 0 0-.102.247c0 .065-.4.876-.586 1.189-.067.112-.15.26-.184.33-.035.07-.134.22-.22.331a9.586 9.586 0 0 0-.308.43c-.231.347-1.608 1.716-1.97 1.96-.166.112-.833.552-.953.627-.153.098-.88.462-1.093.548-.873.35-1.168.433-2.365.658-.472.089-1.6.13-2.215.079zm11.667-11.37c-.137-.074-.26-.348-.352-.775a1.794 1.794 0 0 0-.117-.356 1.453 1.453 0 0 1-.105-.329 1.402 1.402 0 0 0-.108-.33.66.66 0 0 1-.075-.236.632.632 0 0 0-.07-.23 39.232 39.232 0 0 1-.317-.643 8.15 8.15 0 0 0-.387-.719c-.146-.218-.2-.484-.078-.386a.755.755 0 0 0 .241.09c.098.02.224.066.28.102.056.035.203.08.326.1.123.02.306.071.407.114.276.116 2.447.123 2.7.008a1.93 1.93 0 0 1 .381-.117c.393-.07 1.295-.469 1.76-.778.117-.079.25-.165.296-.193.102-.062.154-.105.52-.425.36-.315.42-.377.71-.72.259-.309.548-.719.643-.915.035-.07.084-.161.11-.203.094-.154.258-.513.258-.568 0-.031.043-.15.096-.266.174-.381.28-.868.365-1.664.097-.918-.039-1.973-.374-2.892-.125-.342-.479-1.064-.575-1.174-.04-.044-.071-.097-.071-.117 0-.07-.43-.622-.734-.94-.482-.505-1.161-1.023-1.64-1.25a.638.638 0 0 1-.19-.123c-.016-.026-.092-.061-.169-.08a1.93 1.93 0 0 1-.293-.101c-.35-.158-.722-.283-.844-.283a1.65 1.65 0 0 1-.38-.082c-.325-.106-1.665-.155-2.056-.075l-.635.13c-.378.076-.918.25-1.012.326a.692.692 0 0 1-.218.08.471.471 0 0 0-.222.107c-.033.04-.087.073-.118.073-.075 0-.642.37-1.025.668a8.11 8.11 0 0 0-.688.636c-.676.703-.783.912-.505.99.07.019.828.037 1.685.04 1.37.004 1.562.015 1.589.085.017.045.03.635.03 1.312 0 .89-.016 1.249-.06 1.293-.089.088-9.146.088-9.235 0-.08-.081-.089-9.097-.008-9.248.05-.093.119-.098 1.36-.098.72 0 1.336.019 1.37.04.047.03.071.58.097 2.189.021 1.274.055 2.16.084 2.178.055.034.304-.224.592-.614.265-.358.964-1.06 1.428-1.435.424-.342.895-.68.948-.68.02 0 .071-.032.115-.071.116-.101.962-.54 1.043-.54.037 0 .095-.032.128-.073a.471.471 0 0 1 .223-.107c.089-.02.219-.065.288-.101.183-.096.976-.349 1.348-.43.283-.062 1.07-.157 1.701-.205.72-.054 2.107.067 2.672.234.14.041.357.096.483.121.29.059.696.19.882.284.079.04.166.074.193.074.05 0 .556.219.705.304.042.024.214.117.381.206.3.16 1.146.7 1.195.765.014.018.175.156.356.306.767.634 1.804 1.861 2.166 2.563.043.084.134.244.201.356.068.112.147.26.176.33.03.07.085.197.123.28.284.621.54 1.385.647 1.933.027.14.088.426.135.635.127.563.125 2.897-.003 3.314a2.005 2.005 0 0 0-.089.446c0 .087-.045.289-.101.448-.056.159-.103.336-.104.393a1.022 1.022 0 0 1-.1.307c-.054.111-.099.229-.1.26-.001.059-.151.433-.282.706-.04.084-.097.21-.126.28a3.35 3.35 0 0 1-.176.33 9.56 9.56 0 0 0-.203.356 3.084 3.084 0 0 1-.363.562 3.07 3.07 0 0 0-.204.286c-.073.136-.67.8-1.06 1.179-.47.457-1.312 1.121-1.68 1.325a20.3 20.3 0 0 0-.357.203c-.112.066-.33.182-.483.258l-.36.179a7.61 7.61 0 0 1-.886.334.706.706 0 0 0-.205.077c-.03.023-.201.075-.382.116l-.557.128c-.818.186-2.7.271-2.955.133zm-14.194-.452c-.08-.061-.09-.235-.101-2.045-.013-1.956-.015-1.978-.119-1.993-.077-.011-.171.07-.355.305-.453.58-1.43 1.493-1.986 1.857a88.49 88.49 0 0 0-.274.18 3.535 3.535 0 0 1-.254.157 6.817 6.817 0 0 0-.28.158c-.293.174-1.152.587-1.218.587-.021 0-.11.034-.198.076-.157.074-.435.161-.898.281l-.508.133c-.154.04-.486.096-.738.124-2.239.25-3.973-.024-5.822-.917a5.262 5.262 0 0 1-.828-.471 2.798 2.798 0 0 0-.32-.192c-.025 0-.392-.279-.757-.574-.593-.482-1.79-1.86-2.06-2.376a.64.64 0 0 0-.103-.152c-.125-.09-.81-1.59-.895-1.958a.7.7 0 0 0-.076-.205c-.06-.078-.228-.82-.373-1.65-.198-1.138-.12-2.764.184-3.84.197-.696.363-1.2.405-1.226.024-.014.043-.06.043-.102 0-.07.201-.553.305-.731.024-.042.12-.222.213-.399.092-.177.197-.346.232-.375.035-.029.064-.072.064-.095 0-.054.186-.33.524-.777.278-.368 1.44-1.563 1.688-1.736.08-.056.255-.188.39-.292.133-.105.262-.191.287-.191.024 0 .086-.046.136-.102.05-.056.12-.102.154-.102.035 0 .086-.028.116-.063.029-.035.197-.14.374-.232.178-.093.357-.189.399-.212.198-.113.518-.255.573-.256.034 0 .12-.03.19-.065.304-.156 1.247-.413 1.83-.498.182-.026.538-.082.791-.124.517-.084 1.677-.1 1.873-.026.173.066.282.246.359.597.169.77.222.925.633 1.858l.206.458c.055.119.123.273.153.343s.123.249.207.398c.084.148.14.29.125.316-.034.055-.297.012-.508-.084a3.852 3.852 0 0 0-.432-.148l-.483-.137c-.268-.077-2.218-.077-2.492 0l-.483.137a3.531 3.531 0 0 0-.44.154.806.806 0 0 1-.22.076.59.59 0 0 0-.196.076 2.92 2.92 0 0 1-.262.129 3.13 3.13 0 0 0-.331.175 4.026 4.026 0 0 1-.322.177c-.287.13-1.144.919-1.592 1.464a6.25 6.25 0 0 0-.646 1.005c-.067.14-.165.34-.218.446a.985.985 0 0 0-.095.255.696.696 0 0 1-.078.21 2.663 2.663 0 0 0-.154.483l-.123.538c-.026.112-.048.617-.05 1.122-.002.759.016.985.099 1.297.055.208.1.424.102.48 0 .056.032.16.07.232.037.072.083.198.103.28.077.326.545 1.219.86 1.641.331.445.487.612 1.098 1.177.145.135.99.681 1.226.794.556.265.703.325.793.325.053 0 .161.034.24.075.078.041.261.09.406.108.146.018.39.064.542.103.353.09 1.84.097 2.001.01.061-.032.248-.088.416-.123.419-.089.835-.21 1.017-.295.641-.3 1.126-.57 1.385-.773.33-.258 1.158-1.095 1.34-1.356.349-.495.441-.467-1.614-.483-1.5-.011-1.796-.025-1.848-.088-.072-.086-.103-2.264-.037-2.573l.038-.182 1.61-.034c2.018-.042 7.506-.044 7.614-.003.073.028.08.491.08 4.72 0 3.578-.014 4.702-.06 4.748-.092.092-2.525.083-2.647-.009zm-6.586-10.345c-.088-.056-.094-2.529-.007-2.634.048-.057.43-.07 2.133-.07 1.14 0 2.11-.014 2.155-.03.121-.047.1-.262-.034-.331a1.066 1.066 0 0 1-.201-.142 2.2 2.2 0 0 0-.155-.133 11.93 11.93 0 0 1-.97-.864c-.465-.485-1.226-1.468-1.398-1.805a7.79 7.79 0 0 0-.186-.33 12.64 12.64 0 0 1-.665-1.374c-.07-.167-.228-.691-.353-1.17a10.927 10.927 0 0 1-.165-.864c-.149-.976-.093-3.015.096-3.56.03-.083.083-.29.119-.457.036-.168.093-.385.128-.483.285-.81.263-.757.563-1.398.23-.492.81-1.445 1-1.645.036-.037.128-.151.204-.254.344-.46.958-1.086 1.487-1.515.395-.32 1.1-.812 1.322-.922a4.7 4.7 0 0 0 .216-.113l.178-.103c.049-.028.146-.076.216-.107a1470.662 1470.662 0 0 1 .661-.288c.341-.15.7-.266 1.048-.338.17-.036.334-.08.363-.097.028-.018.289-.068.579-.111s.642-.1.782-.125c.32-.058 1.218-.06 1.652-.004 1.169.152 1.538.209 1.616.25.048.026.202.064.342.084.14.02.305.067.367.106.062.04.148.071.192.071.08 0 .535.178.919.36.114.054.234.098.267.098s.06.02.06.046c0 .025.07.07.155.1.176.06 1.223.747 1.512.99.52.437 1.43 1.39 1.791 1.875.224.3.407.56.407.58 0 .018.08.154.177.301.098.147.2.321.229.387.028.065.073.154.099.196.026.042.11.213.185.38.075.169.16.35.186.402.092.18.345.941.442 1.328.257 1.023.272 1.143.275 2.206.005 1.365.01 1.343-.388 1.451-.173.047-.46.116-.638.154-.177.038-.348.094-.379.124-.03.031-.092.057-.137.057s-.17.045-.28.101a1.11 1.11 0 0 1-.247.102c-.058 0-.319.12-1.2.554-.376.185-.7.343-.72.352-.043.018.003-.196.058-.27a.806.806 0 0 0 .074-.22c.02-.093.068-.23.107-.305a.657.657 0 0 0 .072-.238c0-.056.046-.285.102-.509.078-.317.1-.58.1-1.195 0-.433-.025-.88-.054-.991-.03-.112-.085-.352-.123-.534-.175-.843-.64-1.803-1.217-2.517-.492-.61-1.28-1.277-1.897-1.606-.161-.086-.327-.176-.369-.2-.302-.171-.919-.388-1.373-.483a13.559 13.559 0 0 1-.534-.122c-.112-.029-.558-.053-.991-.053-.624 0-.867.02-1.167.1-.207.056-.43.1-.494.1a.91.91 0 0 0-.283.072c-.092.04-.338.135-.548.213-.21.078-.406.16-.437.183-.03.022-.188.111-.35.197s-.32.178-.35.203l-.44.344c-.384.3-.9.822-1.055 1.07a5.034 5.034 0 0 1-.22.312c-.124.162-.521.916-.684 1.297a5.072 5.072 0 0 0-.302 1.017c-.037.196-.092.48-.123.63-.072.353-.072 1.337 0 1.69.03.15.086.434.123.63.087.466.316 1.124.486 1.398.026.042.07.13.099.197.029.067.182.319.34.56.325.494 1.461 1.662 1.668 1.714.281.07.287.037.278-1.578-.004-.813-.006-1.53-.003-1.595.008-.227.24-.268 1.54-.267.892.001 1.187.017 1.218.066.023.035.041 2.138.042 4.673 0 4.156-.007 4.612-.08 4.64-.122.047-9.14.035-9.213-.011z" style="fill:#005953;stroke-width:.361979;fill-opacity:1"/>
</svg>
