<svg xmlns="http://www.w3.org/2000/svg" xml:space="preserve" viewBox="0 0 52.916668 52.916668">
  <path d="M25.588565 48.184691c-.253404-.02078-.484789-.05264-.514185-.07081-.02939-.01817-.250758-.05546-.491913-.08286-.241158-.0274-.54752-.08388-.680808-.125505-.133285-.04162-.448284-.139061-.699998-.21652-.25171-.07746-.514862-.170188-.584783-.206056-.06992-.03587-.151488-.06536-.181264-.06553-.08164-.000362-1.234309-.587294-1.338101-.681224-.04974-.04501-.106036-.08185-.125096-.08185-.03674 0-.464379-.291276-.720098-.490472-.0839-.06536-.207804-.159082-.275334-.208271-.179021-.130403-1.174578-1.122862-1.364942-1.360696-.368293-.460135-.489542-.623033-.653639-.878158-.09479-.147376-.172346-.29039-.172346-.317817 0-.02744-.01941-.04986-.04314-.04986-.02372 0-.0807-.08581-.126612-.19069-.04591-.104876-.149646-.316542-.230524-.470365-.227646-.432968-.40477-.854169-.641509-1.525511-.106794-.302845-.240249-.874271-.285025-1.220412-.02352-.181789-.07211-.433497-.107983-.559353-.04186-.146843-.06524-.547647-.06527-1.118707-.000045-.996756.04462-1.201096.273364-1.250539.07337-.01585.280273-.07278.459783-.126478.179509-.05371.374013-.09842.432231-.09937.05822-.0011.197381-.04594.309254-.09998.11187-.05404.245637-.09903.297258-.09997.05162-.0011.154593-.03428.228828-.07407.07423-.03979.237946-.116344.363802-.170123.317289-.135578.470219-.206729.559357-.260236.04195-.02519.133483-.07157.203403-.103081.06992-.03149.218658-.111898.33053-.178639.449919-.268421.499314-.288598.541081-.22102.04524.0732.0088.261167-.08646.446087-.125428.243462-.275959.842796-.353589 1.407796-.07019.510885-.07024.642844-.000471 1.296688.07399.693299.118301.909487.305572 1.490675.04506.139839.104221.326663.131475.415163.06586.213885.414836.876504.661709 1.256428.399307.614519 1.214058 1.449598 1.735328 1.778628.09199.05806.213015.134403.268951.169641.05593.03526.170349.09935.254251.142467.0839.04312.186876.09912.22883.124441.167807.101299.515213.25754.572652.25754.03355 0 .175873.04349.316252.09664.603855.228643 1.019788.284735 2.111289.284735.87618 0 1.077075-.01419 1.259585-.08898.119432-.04895.267728-.08899.329547-.08899.141284 0 .978223-.318819 1.20766-.460041.04195-.02581.144926-.08222.228829-.125342.828255-.425628 1.724735-1.255827 2.305571-2.135114.26156-.395957.665852-1.178582.669852-1.296684.0014-.04195.03453-.118432.07356-.169956.03904-.05152.08666-.186487.105825-.299924.01919-.113433.06394-.27722.09949-.363976.03555-.08675.09333-.469296.128383-.850101.05122-.556363.05111-.826058-.000724-1.372959-.03536-.374325-.08731-.724792-.115435-.778821-.02813-.05403-.08055-.214204-.116486-.355951-.124412-.490701-.595794-1.554408-.688834-1.554408-.0215 0-.05502-.05013-.07447-.111406-.04855-.152975-.67049-.930634-.971074-1.214214-.135445-.127786-.397979-.350822-.583406-.495638-.305795-.238823-.343621-.255506-.406805-.179436-.05533.06661-.07267.441985-.08426 1.824479l-.01459 1.740617-.157027.03142c-.08636.01727-.702549.03142-1.369298.03142-1.154637 0-1.214827-.0048-1.265961-.100312-.06434-.120227-.04972-9.296043.01499-9.396.0324-.05008 1.011943-.06356 4.615962-.06356h4.574825l.04959.130435c.07507.197441.06479 2.630796-.01144 2.707018-.04544.04543-.582336.06102-2.101831.06102-1.122445 0-2.055315.01452-2.073046.03225-.04664.04664.141527.272255.38745.464548.80462.629154 1.129042.964164 1.932471 1.99554.09542.122489.339602.503315.339602.529638 0 .01318.06616.122363.147015.24263.08085.120264.183368.298751.227805.396641.04444.09789.10076.2123.125162.25425.0244.04195.09041.179247.146685.305103.05627.125853.138989.308916.18381.406802.201376.439795.416313 1.152106.552381 1.830615.08493.423514.111483.781047.128391 1.728915.01882 1.055896.0088 1.263049-.08595 1.779764-.05899.321629-.139044.687751-.177891.813607-.03885.125852-.08692.318229-.106821.427496-.01991.10927-.06715.258006-.104996.330529-.03784.07252-.06895.16652-.06912.208883-.000174.04236-.04608.162419-.102017.266781-.05593.104365-.101702.21567-.101702.24735 0 .06453-.399684.875143-.586061 1.188604-.06651.111873-.149378.26061-.184142.33053-.03475.06992-.133611.218656-.219653.330525-.08604.111873-.224606.305498-.307915.430283-.231262.346387-1.607883 1.716133-1.969527 1.959686-.166276.111981-.834053.551494-.953311.627448-.153465.09773-.880629.461652-1.093292.547148-.872538.350785-1.168117.433073-2.364559.658292-.472778.08899-1.601314.129161-2.215091.07883zm11.667253-11.370078c-.136362-.0741-.260529-.347727-.351494-.774589-.02527-.118483-.07792-.278661-.117053-.355954-.03913-.07729-.0865-.225379-.105268-.329074-.01879-.1037-.06745-.252436-.108184-.33053-.04073-.07809-.0742-.184221-.07437-.235842-.000173-.05162-.03211-.15459-.07093-.228825-.03884-.07423-.181378-.363798-.316754-.643477-.135374-.279678-.309541-.603351-.387041-.719278-.145845-.218171-.199139-.484221-.07734-.386104.03497.02816.143319.06829.240797.08917.09748.02089.22333.06709.279677.102686.05635.03558.203092.08094.326097.100774.123007.01984.306071.07086.406807.113404.275807.116477 2.446739.122761 2.700267.0078.09789-.04438.269509-.09693.381381-.116778.392177-.06958 1.294204-.468768 1.75886-.778386.11739-.07822.251048-.165101.297019-.193071.101862-.06197.154019-.104597.519634-.424687.359649-.314866.420747-.376884.709911-.72056.259182-.30804.548024-.718327.643594-.914193.0341-.06992.08326-.161449.109202-.203402.09481-.153291.258667-.513155.258667-.568063 0-.03102.04295-.150463.09545-.265398.174254-.381503.281143-.868287.365451-1.664273.09726-.918297-.03919-1.972698-.374316-2.892408-.124561-.341833-.478382-1.063755-.575175-1.173564-.03892-.04415-.07077-.09662-.07077-.116582 0-.07116-.429771-.622059-.733571-.940321-.482592-.505574-1.161427-1.023177-1.640221-1.250654-.08899-.04228-.174581-.09756-.190211-.122856-.01564-.0253-.09157-.06075-.168744-.0788-.07717-.01806-.208967-.06391-.292871-.101915-.349457-.158293-.722235-.283342-.844652-.283342-.07193 0-.243107-.0366-.380399-.08134-.324638-.105788-1.664692-.155045-2.054823-.07553-.153824.03135-.439861.08962-.635634.12948-.377874.07693-.917752.251147-1.011545.326409-.03099.02487-.129108.06075-.218071.07976-.08896.019-.18902.06742-.222344.107572-.03334.04015-.08639.07316-.117926.07335-.07521.000362-.642391.369873-1.025347.667842-.166794.129772-.4762.415807-.687575.635629-.676313.703337-.783118.912568-.505305.989868.06977.0194.828057.03758 1.685078.04037 1.370967.0045 1.56193.01473 1.589086.0855.01698.04424.03088.634613.03088 1.311942 0 .890038-.0169 1.248425-.06102 1.292524-.08845.08845-9.146043.08845-9.234496 0-.08085-.08085-.08902-9.097256-.0084-9.247944.04997-.09336.11907-.09832 1.360257-.09758.719193.000362 1.335693.01861 1.370001.04041.04674.02968.07112.578321.09724 2.187891.02067 1.274292.05468 2.160511.08358 2.178368.05515.0341.303828-.223825.592254-.614251.264557-.358115.963464-1.060736 1.427395-1.434985.424017-.342043.895728-.680145.948925-.680145.01908 0 .07078-.03182.114936-.07067.11521-.101423.961658-.539535 1.042398-.539535.03733 0 .09513-.03287.128462-.07301.03334-.04015.133379-.08856.22234-.107569.08896-.019.218957-.06443.288878-.100923.182912-.09547.97571-.348508 1.347547-.430094.283199-.06214 1.069256-.156643 1.701363-.204547.720048-.05457 2.106395.06672 2.671799.233747.13984.04131.357228.09586.483084.121223.290348.05851.695241.189068.881295.284178.07918.04048.166406.07359.193841.07359.04904 0 .55532.218573.704637.304209.04195.02407.213576.116796.381383.206078.300226.159741 1.145297.700372 1.194994.764497.01397.01803.174163.155824.355953.306179.766228.633721 1.803128 1.861018 2.165673 2.563341.04331.08391.133839.244085.201174.355955.06733.111869.146457.260609.175832.330529.02936.06992.08476.195772.123095.279675.283633.62086.539224 1.384905.646409 1.932316.02737.139839.08852.425871.135862.635629.127015.562731.124554 2.896687-.0036 3.313103-.04862.158126-.08841.358922-.08841.44621 0 .08729-.04576.288919-.101702.448067-.05594.159147-.102477.335915-.103425.392818-.0011.05691-.04594.194994-.09998.306866-.05404.11187-.09903.229096-.09998.260501-.0018.05849-.15146.43315-.281939.705658-.04018.0839-.09708.209755-.126451.279675-.02939.06992-.1085.218656-.175831.330529-.06734.111869-.158935.272048-.203556.35595-.134508.252921-.198268.351636-.362878.561837-.08654.110508-.178069.239177-.203404.28593-.07373.136078-.670659.799855-1.060486 1.179247-.469209.456653-1.312214 1.12128-1.680662 1.325048-.08391.0464-.244088.138004-.355958.203562-.111874.06555-.329257.181633-.48308.257949-.153824.07631-.315621.156697-.359547.178629-.171739.08574-.741687.300633-.886298.33416-.0839.01947-.176412.05396-.205573.07669-.02918.02273-.200779.07515-.381378.116513-.1806.04136-.431337.09868-.55719.127365-.818575.186607-2.700792.271205-2.95542.132832zm-14.193393-.451542c-.08086-.0614-.08952-.23543-.101701-2.045109-.01318-1.955585-.01451-1.978172-.118407-1.993031-.07722-.01104-.171438.06987-.35527.305104-.453351.58013-1.4291 1.49247-1.986516 1.857423-.05261.03446-.175749.115645-.273637.180439-.09789.06479-.212302.134956-.254253.155911-.04195.02096-.167809.0922-.279679.158329-.293435.173452-1.151638.586824-1.218303.586824-.02068 0-.109703.03417-.197834.07594-.156372.0741-.434876.16142-.897573.281394-.125855.03265-.354683.09222-.508507.132404-.153823.04018-.485624.09603-.737335.124086-2.239004.24962-3.973076-.02335-5.82241-.916498-.3832521-.185099-.4340901-.214046-.8279216-.471383-.1616933-.105658-.3053842-.192102-.3193132-.192102-.025758 0-.3931618-.278505-.7573631-.574111-.5933784-.481615-1.7898407-1.860562-2.0608846-2.375211-.0368235-.069919-.0828765-.138568-.1023397-.152552-.1253907-.090089-.8107827-1.589726-.8947624-1.957738-.019145-.08391-.053403-.17641-.076126-.205571-.060516-.07766-.2281065-.819452-.372883-1.65047-.1980911-1.13704-.1202422-2.763164.1837972-3.839204.1966254-.695888.3631308-1.199493.4051759-1.225479.023456-.01448.04265-.06075.04265-.102784 0-.07033.2010424-.552627.3047837-.73118.024376-.04195.1201637-.221183.2128642-.398295.092701-.177109.1972158-.345812.2322555-.37489.035039-.02907.063708-.07194.063708-.09524 0-.05358.1866826-.330333.5244195-.777448.2779956-.368023 1.4396843-1.562553 1.6879582-1.73568.080217-.05593.255293-.187508.3890599-.292387.1337665-.104879.2632214-.19069.2876775-.19069.024455 0 .085883-.04576.1365041-.101701.050621-.05594.1200142-.101701.1542068-.101701.034192 0 .085962-.02867.115042-.06371.029081-.03504.1977825-.139554.3748951-.232253.177112-.0927.356344-.188065.398296-.211923.197926-.112557.517909-.254901.573637-.255184.0341-.000173.119205-.02964.189124-.06553.304736-.156331 1.247788-.412716 1.830628-.49769.181791-.0265.537792-.08217.791112-.123703.516417-.08467 1.676822-.101364 1.872582-.02693.173582.06599.28185.246185.358944.59739.169168.770651.221861.925172.633719 1.858412.05863.132846.151177.338789.205665.457652.05449.118862.1233.273322.152915.343242.02962.06992.122796.248693.207065.397277.08427.148589.140427.290853.124793.316152-.03421.05535-.297082.01187-.507565-.08395-.0839-.0382-.278408-.104876-.432231-.148168-.153824-.0433-.371211-.104938-.483083-.136987-.268416-.07689-2.218041-.07614-2.491686.0011-.111871.03153-.329258.09273-.483082.136027-.153823.0433-.351786.11289-.439916.154655-.08813.04177-.187573.07594-.220983.07594-.03341 0-.121483.03417-.195718.07593-.07423.04176-.192179.09951-.262099.128332-.06992.02881-.218658.107891-.33053.175707-.111872.06782-.256829.147535-.322128.177152-.286434.129911-1.144149.918508-1.5914361 1.46319-.2092488.254814-.5124679.726352-.6464429 1.005288-.067165.13984-.1650807.340766-.2175896.446507-.052508.105741-.095612.220155-.095784.254253-.0001723.0341-.035123.128745-.077667.210327-.042544.08158-.1117653.298969-.1538249.483081-.042059.18411-.097644.426276-.1235217.538149-.025878.111869-.048046.616835-.049264 1.122145-.00185.758695.015294.984587.09829 1.296688.055277.207866.1011843.423702.1020151.479638.0008325.05594.032158.160433.069619.232216.03746.07178.084043.19764.1035158.279679.077545.326692.5451127 1.219304.8599417 1.64167.331476.444701.486895.61133 1.0979366 1.177137.145296.13454.989451.680902 1.226019.793517.556485.264902.703551.325211.793756.325505.05287.000173.160532.03392.239245.07496.07871.04106.261775.08945.406805.107536.145031.0181.388636.06445.541343.103019.353331.08924 1.839627.09719 2.001232.01071.06107-.03269.248352-.08845.416176-.123913.418462-.08843.834447-.208806 1.017046-.294302.640896-.300065 1.125793-.57086 1.384669-.773282.329801-.25788 1.15822-1.095446 1.340892-1.355697.347769-.495468.440146-.46782-1.614549-.483186-1.499461-.01122-1.796089-.02538-1.848271-.08825-.07157-.08624-.103268-2.263812-.03745-2.572554l.0389-.182495 1.609325-.03363c2.018154-.04216 7.506522-.04415 7.614392-.0029.07254.02784.08044.490936.08044 4.718919 0 3.578461-.01444 4.702495-.06102 4.749071-.09151.09151-2.52467.08294-2.64618-.0093zM16.475908 26.01756c-.08758-.0556-.09411-2.528295-.007-2.633316.04784-.05764.430183-.07023 2.132781-.07023 1.140973 0 2.110691-.0139 2.154931-.03088.12151-.04663.09948-.260751-.03398-.330193-.06293-.03276-.15336-.09648-.200963-.141627-.0476-.04515-.117021-.104977-.154267-.132944-.225003-.168953-.761163-.646807-.969512-.864084-.465826-.485785-1.227367-1.468359-1.399396-1.805563-.03567-.06992-.118957-.218656-.185083-.330525-.187875-.317846-.451808-.86251-.665305-1.37296-.06982-.166933-.228237-.691309-.353331-1.169561-.04389-.167805-.118134-.556812-.164981-.864457-.148641-.976116-.0933-3.015528.09658-3.559526.02929-.08391.08265-.28985.11859-.457655.03594-.167806.09347-.385192.127862-.483078.284723-.810493.263183-.757047.563581-1.398389.23024-.4915513.809889-1.4446672 1.00002-1.6443232.0356-.03738.127303-.151647.203791-.253924.344198-.460236.958084-1.085882 1.486615-1.51509.395088-.320843 1.100215-.812488 1.32212-.921838.06992-.03446.167169-.08569.216117-.113864.04894-.02816.12903-.07427.177974-.102439.04894-.02816.146197-.07615.216116-.106628.06992-.03048.195777-.08531.279681-.12186.0839-.03655.255526-.111655.381379-.166904.341162-.149761.70013-.265561 1.047733-.337993.170717-.03558.333869-.07918.362556-.09692.0287-.01774.289461-.0676.579494-.110834.290029-.04323.641743-.09942.781583-.124868.320367-.05831 1.218501-.06057 1.65265-.0042 1.168667.151825 1.537868.209118 1.615608.250721.04834.02588.202303.06321.342143.08299.13984.01976.304936.0678.366878.106721.06195.03892.148445.07076.192226.07076.08009 0 .535014.178132.918912.359809.113709.05382.233843.09784.266964.09784.03312 0 .06022.02063.06022.04588 0 .02523.06984.07022.155192.09997.175322.06112 1.222219.747234 1.511216.990422.519775.437385 1.429605 1.389498 1.791729 1.874994.223585.299761.406519.560544.406519.579515 0 .01897.07978.154681.177279.301575.0975.1468939.200422.3208859.228707.3866429.02827.06576.07287.1538843.09907.1958373.02621.04195.109462.21357.185023.381376.07556.167805.159408.348469.186339.401469.09146.179987.344508.940628.441616 1.327445.256934 1.023467.271898 1.143393.27537 2.206638.0045 1.364634.01024 1.343006-.388337 1.450633-.173352.04681-.460406.115959-.637899.153674-.177489.03771-.347967.09382-.378838.12469-.03088.03088-.09247.05612-.1369.05612s-.170548.04576-.280263.101701c-.109713.05594-.22074.101702-.246723.101702-.05821 0-.319078.120339-1.199909.553543-.376131.184985-.700411.343365-.720623.351955-.04296.01824.0033-.19537.05842-.269869.0207-.02798.05387-.126761.07372-.219539.01984-.09278.06812-.230074.107258-.305104.03915-.07503.07158-.182176.07209-.238113.000362-.05594.04614-.28476.101416-.508502.07848-.317679.100367-.579487.09988-1.194987-.000337-.433501-.02461-.87971-.05396-.991583-.02936-.111869-.08432-.352139-.122179-.533928-.175419-.842442-.63972-1.802758-1.216978-2.517096-.492538-.609501-1.280978-1.2768222-1.897767-1.6062362-.160748-.08585-.326593-.175563-.368547-.199352-.301938-.171222-.919031-.388174-1.372968-.482701-.181794-.03785-.422062-.09283-.533936-.122178-.111869-.02936-.558086-.05336-.991586-.05337-.623717-.000015-.867051.02096-1.16613.100488-.207867.05528-.430199.100503-.49407.100503-.06387 0-.191271.032-.283116.07112-.09184.03912-.338611.134964-.548371.212988-.20976.07802-.40633.160197-.436823.182611-.03048.02241-.187781.111373-.349528.197683s-.31986.177651-.351364.202972c-.03149.02534-.228897.179808-.438657.343314-.384742.2998949-.900086.8226952-1.055188 1.0704472-.04622.07384-.145389.214346-.220362.312232-.12354.161293-.520994.915257-.683553 1.296683-.128437.301365-.237385.667241-.302838 1.017009-.03664.195772-.09187.479212-.122752.62986-.07234.352917-.07234 1.336686 0 1.689607.03088.150647.08612.434083.122752.629855.08726.466336.316178 1.125146.485884 1.398385.02605.04195.07082.130873.09947.1976.02865.06673.181682.318436.340062.559354.32514.494581 1.46133 1.662205 1.667909 1.714051.28102.07053.286946.03695.278407-1.577705-.0043-.812944-.006-1.530732-.0037-1.595084.008-.227206.240695-.26744 1.540921-.266434.890988.000724 1.186893.01651 1.217711.06505.02241.03529.04107 2.138293.0415 4.673372.000724 4.156564-.0071 4.612262-.07966 4.640098-.121727.04671-9.139309.03544-9.213282-.01151z" style="fill:#005953;stroke-width:.361979;fill-opacity:1"/>
</svg>
