<?xml version="1.0" encoding="UTF-8" standalone="no"?>
<!-- Created with Inkscape (http://www.inkscape.org/) -->

<svg
   width="200"
   height="200"
   viewBox="0 0 52.916668 52.916668"
   version="1.1"
   id="svg1"
   xml:space="preserve"
   inkscape:version="1.4 (86a8ad7, 2024-10-11)"
   sodipodi:docname="gaudenzia.svg"
   xmlns:inkscape="http://www.inkscape.org/namespaces/inkscape"
   xmlns:sodipodi="http://sodipodi.sourceforge.net/DTD/sodipodi-0.dtd"
   xmlns="http://www.w3.org/2000/svg"
   xmlns:svg="http://www.w3.org/2000/svg"><sodipodi:namedview
     id="namedview1"
     pagecolor="#ffffff"
     bordercolor="#111111"
     borderopacity="1"
     inkscape:showpageshadow="0"
     inkscape:pageopacity="0"
     inkscape:pagecheckerboard="1"
     inkscape:deskcolor="#d1d1d1"
     inkscape:document-units="mm"
     inkscape:zoom="4.3339059"
     inkscape:cx="79.489498"
     inkscape:cy="117.44602"
     inkscape:window-width="1920"
     inkscape:window-height="1115"
     inkscape:window-x="-9"
     inkscape:window-y="-9"
     inkscape:window-maximized="1"
     inkscape:current-layer="layer1" /><defs
     id="defs1" /><g
     inkscape:label="Layer 1"
     inkscape:groupmode="layer"
     id="layer1"><path
       style="fill:#005953;stroke-width:0.361979;fill-opacity:1"
       d="m 25.588565,48.184691 c -0.253404,-0.02078 -0.484789,-0.05264 -0.514185,-0.07081 -0.02939,-0.01817 -0.250758,-0.05546 -0.491913,-0.08286 -0.241158,-0.0274 -0.54752,-0.08388 -0.680808,-0.125505 -0.133285,-0.04162 -0.448284,-0.139061 -0.699998,-0.21652 -0.25171,-0.07746 -0.514862,-0.170188 -0.584783,-0.206056 -0.06992,-0.03587 -0.151488,-0.06536 -0.181264,-0.06553 -0.08164,-3.62e-4 -1.234309,-0.587294 -1.338101,-0.681224 -0.04974,-0.04501 -0.106036,-0.08185 -0.125096,-0.08185 -0.03674,0 -0.464379,-0.291276 -0.720098,-0.490472 -0.0839,-0.06536 -0.207804,-0.159082 -0.275334,-0.208271 -0.179021,-0.130403 -1.174578,-1.122862 -1.364942,-1.360696 -0.368293,-0.460135 -0.489542,-0.623033 -0.653639,-0.878158 -0.09479,-0.147376 -0.172346,-0.29039 -0.172346,-0.317817 0,-0.02744 -0.01941,-0.04986 -0.04314,-0.04986 -0.02372,0 -0.0807,-0.08581 -0.126612,-0.19069 -0.04591,-0.104876 -0.149646,-0.316542 -0.230524,-0.470365 -0.227646,-0.432968 -0.40477,-0.854169 -0.641509,-1.525511 -0.106794,-0.302845 -0.240249,-0.874271 -0.285025,-1.220412 -0.02352,-0.181789 -0.07211,-0.433497 -0.107983,-0.559353 -0.04186,-0.146843 -0.06524,-0.547647 -0.06527,-1.118707 -4.5e-5,-0.996756 0.04462,-1.201096 0.273364,-1.250539 0.07337,-0.01585 0.280273,-0.07278 0.459783,-0.126478 0.179509,-0.05371 0.374013,-0.09842 0.432231,-0.09937 0.05822,-0.0011 0.197381,-0.04594 0.309254,-0.09998 0.11187,-0.05404 0.245637,-0.09903 0.297258,-0.09997 0.05162,-0.0011 0.154593,-0.03428 0.228828,-0.07407 0.07423,-0.03979 0.237946,-0.116344 0.363802,-0.170123 0.317289,-0.135578 0.470219,-0.206729 0.559357,-0.260236 0.04195,-0.02519 0.133483,-0.07157 0.203403,-0.103081 0.06992,-0.03149 0.218658,-0.111898 0.33053,-0.178639 0.449919,-0.268421 0.499314,-0.288598 0.541081,-0.22102 0.04524,0.0732 0.0088,0.261167 -0.08646,0.446087 -0.125428,0.243462 -0.275959,0.842796 -0.353589,1.407796 -0.07019,0.510885 -0.07024,0.642844 -4.71e-4,1.296688 0.07399,0.693299 0.118301,0.909487 0.305572,1.490675 0.04506,0.139839 0.104221,0.326663 0.131475,0.415163 0.06586,0.213885 0.414836,0.876504 0.661709,1.256428 0.399307,0.614519 1.214058,1.449598 1.735328,1.778628 0.09199,0.05806 0.213015,0.134403 0.268951,0.169641 0.05593,0.03526 0.170349,0.09935 0.254251,0.142467 0.0839,0.04312 0.186876,0.09912 0.22883,0.124441 0.167807,0.101299 0.515213,0.25754 0.572652,0.25754 0.03355,0 0.175873,0.04349 0.316252,0.09664 0.603855,0.228643 1.019788,0.284735 2.111289,0.284735 0.87618,0 1.077075,-0.01419 1.259585,-0.08898 0.119432,-0.04895 0.267728,-0.08899 0.329547,-0.08899 0.141284,0 0.978223,-0.318819 1.20766,-0.460041 0.04195,-0.02581 0.144926,-0.08222 0.228829,-0.125342 0.828255,-0.425628 1.724735,-1.255827 2.305571,-2.135114 0.26156,-0.395957 0.665852,-1.178582 0.669852,-1.296684 0.0014,-0.04195 0.03453,-0.118432 0.07356,-0.169956 0.03904,-0.05152 0.08666,-0.186487 0.105825,-0.299924 0.01919,-0.113433 0.06394,-0.27722 0.09949,-0.363976 0.03555,-0.08675 0.09333,-0.469296 0.128383,-0.850101 0.05122,-0.556363 0.05111,-0.826058 -7.24e-4,-1.372959 -0.03536,-0.374325 -0.08731,-0.724792 -0.115435,-0.778821 -0.02813,-0.05403 -0.08055,-0.214204 -0.116486,-0.355951 C 32.48192,35.869907 32.010538,34.8062 31.917498,34.8062 c -0.0215,0 -0.05502,-0.05013 -0.07447,-0.111406 -0.04855,-0.152975 -0.67049,-0.930634 -0.971074,-1.214214 -0.135445,-0.127786 -0.397979,-0.350822 -0.583406,-0.495638 -0.305795,-0.238823 -0.343621,-0.255506 -0.406805,-0.179436 -0.05533,0.06661 -0.07267,0.441985 -0.08426,1.824479 l -0.01459,1.740617 -0.157027,0.03142 c -0.08636,0.01727 -0.702549,0.03142 -1.369298,0.03142 -1.154637,0 -1.214827,-0.0048 -1.265961,-0.100312 -0.06434,-0.120227 -0.04972,-9.296043 0.01499,-9.396 0.0324,-0.05008 1.011943,-0.06356 4.615962,-0.06356 h 4.574825 l 0.04959,0.130435 c 0.07507,0.197441 0.06479,2.630796 -0.01144,2.707018 -0.04544,0.04543 -0.582336,0.06102 -2.101831,0.06102 -1.122445,0 -2.055315,0.01452 -2.073046,0.03225 -0.04664,0.04664 0.141527,0.272255 0.38745,0.464548 0.80462,0.629154 1.129042,0.964164 1.932471,1.99554 0.09542,0.122489 0.339602,0.503315 0.339602,0.529638 0,0.01318 0.06616,0.122363 0.147015,0.24263 0.08085,0.120264 0.183368,0.298751 0.227805,0.396641 0.04444,0.09789 0.10076,0.2123 0.125162,0.25425 0.0244,0.04195 0.09041,0.179247 0.146685,0.305103 0.05627,0.125853 0.138989,0.308916 0.18381,0.406802 0.201376,0.439795 0.416313,1.152106 0.552381,1.830615 0.08493,0.423514 0.111483,0.781047 0.128391,1.728915 0.01882,1.055896 0.0088,1.263049 -0.08595,1.779764 -0.05899,0.321629 -0.139044,0.687751 -0.177891,0.813607 -0.03885,0.125852 -0.08692,0.318229 -0.106821,0.427496 -0.01991,0.10927 -0.06715,0.258006 -0.104996,0.330529 -0.03784,0.07252 -0.06895,0.16652 -0.06912,0.208883 -1.74e-4,0.04236 -0.04608,0.162419 -0.102017,0.266781 -0.05593,0.104365 -0.101702,0.21567 -0.101702,0.24735 0,0.06453 -0.399684,0.875143 -0.586061,1.188604 -0.06651,0.111873 -0.149378,0.26061 -0.184142,0.33053 -0.03475,0.06992 -0.133611,0.218656 -0.219653,0.330525 -0.08604,0.111873 -0.224606,0.305498 -0.307915,0.430283 -0.231262,0.346387 -1.607883,1.716133 -1.969527,1.959686 -0.166276,0.111981 -0.834053,0.551494 -0.953311,0.627448 -0.153465,0.09773 -0.880629,0.461652 -1.093292,0.547148 -0.872538,0.350785 -1.168117,0.433073 -2.364559,0.658292 -0.472778,0.08899 -1.601314,0.129161 -2.215091,0.07883 z M 37.255818,36.814613 c -0.136362,-0.0741 -0.260529,-0.347727 -0.351494,-0.774589 -0.02527,-0.118483 -0.07792,-0.278661 -0.117053,-0.355954 -0.03913,-0.07729 -0.0865,-0.225379 -0.105268,-0.329074 -0.01879,-0.1037 -0.06745,-0.252436 -0.108184,-0.33053 -0.04073,-0.07809 -0.0742,-0.184221 -0.07437,-0.235842 -1.73e-4,-0.05162 -0.03211,-0.15459 -0.07093,-0.228825 -0.03884,-0.07423 -0.181378,-0.363798 -0.316754,-0.643477 -0.135374,-0.279678 -0.309541,-0.603351 -0.387041,-0.719278 -0.145845,-0.218171 -0.199139,-0.484221 -0.07734,-0.386104 0.03497,0.02816 0.143319,0.06829 0.240797,0.08917 0.09748,0.02089 0.22333,0.06709 0.279677,0.102686 0.05635,0.03558 0.203092,0.08094 0.326097,0.100774 0.123007,0.01984 0.306071,0.07086 0.406807,0.113404 0.275807,0.116477 2.446739,0.122761 2.700267,0.0078 0.09789,-0.04438 0.269509,-0.09693 0.381381,-0.116778 0.392177,-0.06958 1.294204,-0.468768 1.75886,-0.778386 0.11739,-0.07822 0.251048,-0.165101 0.297019,-0.193071 0.101862,-0.06197 0.154019,-0.104597 0.519634,-0.424687 0.359649,-0.314866 0.420747,-0.376884 0.709911,-0.72056 0.259182,-0.30804 0.548024,-0.718327 0.643594,-0.914193 0.0341,-0.06992 0.08326,-0.161449 0.109202,-0.203402 0.09481,-0.153291 0.258667,-0.513155 0.258667,-0.568063 0,-0.03102 0.04295,-0.150463 0.09545,-0.265398 0.174254,-0.381503 0.281143,-0.868287 0.365451,-1.664273 0.09726,-0.918297 -0.03919,-1.972698 -0.374316,-2.892408 -0.124561,-0.341833 -0.478382,-1.063755 -0.575175,-1.173564 -0.03892,-0.04415 -0.07077,-0.09662 -0.07077,-0.116582 0,-0.07116 -0.429771,-0.622059 -0.733571,-0.940321 -0.482592,-0.505574 -1.161427,-1.023177 -1.640221,-1.250654 -0.08899,-0.04228 -0.174581,-0.09756 -0.190211,-0.122856 -0.01564,-0.0253 -0.09157,-0.06075 -0.168744,-0.0788 -0.07717,-0.01806 -0.208967,-0.06391 -0.292871,-0.101915 -0.349457,-0.158293 -0.722235,-0.283342 -0.844652,-0.283342 -0.07193,0 -0.243107,-0.0366 -0.380399,-0.08134 -0.324638,-0.105788 -1.664692,-0.155045 -2.054823,-0.07553 -0.153824,0.03135 -0.439861,0.08962 -0.635634,0.12948 -0.377874,0.07693 -0.917752,0.251147 -1.011545,0.326409 -0.03099,0.02487 -0.129108,0.06075 -0.218071,0.07976 -0.08896,0.019 -0.18902,0.06742 -0.222344,0.107572 -0.03334,0.04015 -0.08639,0.07316 -0.117926,0.07335 -0.07521,3.62e-4 -0.642391,0.369873 -1.025347,0.667842 -0.166794,0.129772 -0.4762,0.415807 -0.687575,0.635629 -0.676313,0.703337 -0.783118,0.912568 -0.505305,0.989868 0.06977,0.0194 0.828057,0.03758 1.685078,0.04037 1.370967,0.0045 1.56193,0.01473 1.589086,0.0855 0.01698,0.04424 0.03088,0.634613 0.03088,1.311942 0,0.890038 -0.0169,1.248425 -0.06102,1.292524 -0.08845,0.08845 -9.146043,0.08845 -9.234496,0 -0.08085,-0.08085 -0.08902,-9.097256 -0.0084,-9.247944 0.04997,-0.09336 0.11907,-0.09832 1.360257,-0.09758 0.719193,3.62e-4 1.335693,0.01861 1.370001,0.04041 0.04674,0.02968 0.07112,0.578321 0.09724,2.187891 0.02067,1.274292 0.05468,2.160511 0.08358,2.178368 0.05515,0.0341 0.303828,-0.223825 0.592254,-0.614251 0.264557,-0.358115 0.963464,-1.060736 1.427395,-1.434985 0.424017,-0.342043 0.895728,-0.680145 0.948925,-0.680145 0.01908,0 0.07078,-0.03182 0.114936,-0.07067 0.11521,-0.101423 0.961658,-0.539535 1.042398,-0.539535 0.03733,0 0.09513,-0.03287 0.128462,-0.07301 0.03334,-0.04015 0.133379,-0.08856 0.22234,-0.107569 0.08896,-0.019 0.218957,-0.06443 0.288878,-0.100923 0.182912,-0.09547 0.97571,-0.348508 1.347547,-0.430094 0.283199,-0.06214 1.069256,-0.156643 1.701363,-0.204547 0.720048,-0.05457 2.106395,0.06672 2.671799,0.233747 0.13984,0.04131 0.357228,0.09586 0.483084,0.121223 0.290348,0.05851 0.695241,0.189068 0.881295,0.284178 0.07918,0.04048 0.166406,0.07359 0.193841,0.07359 0.04904,0 0.55532,0.218573 0.704637,0.304209 0.04195,0.02407 0.213576,0.116796 0.381383,0.206078 0.300226,0.159741 1.145297,0.700372 1.194994,0.764497 0.01397,0.01803 0.174163,0.155824 0.355953,0.306179 0.766228,0.633721 1.803128,1.861018 2.165673,2.563341 0.04331,0.08391 0.133839,0.244085 0.201174,0.355955 0.06733,0.111869 0.146457,0.260609 0.175832,0.330529 0.02936,0.06992 0.08476,0.195772 0.123095,0.279675 0.283633,0.62086 0.539224,1.384905 0.646409,1.932316 0.02737,0.139839 0.08852,0.425871 0.135862,0.635629 0.127015,0.562731 0.124554,2.896687 -0.0036,3.313103 -0.04862,0.158126 -0.08841,0.358922 -0.08841,0.44621 0,0.08729 -0.04576,0.288919 -0.101702,0.448067 -0.05594,0.159147 -0.102477,0.335915 -0.103425,0.392818 -0.0011,0.05691 -0.04594,0.194994 -0.09998,0.306866 -0.05404,0.11187 -0.09903,0.229096 -0.09998,0.260501 -0.0018,0.05849 -0.15146,0.43315 -0.281939,0.705658 -0.04018,0.0839 -0.09708,0.209755 -0.126451,0.279675 -0.02939,0.06992 -0.1085,0.218656 -0.175831,0.330529 -0.06734,0.111869 -0.158935,0.272048 -0.203556,0.35595 -0.134508,0.252921 -0.198268,0.351636 -0.362878,0.561837 -0.08654,0.110508 -0.178069,0.239177 -0.203404,0.28593 -0.07373,0.136078 -0.670659,0.799855 -1.060486,1.179247 -0.469209,0.456653 -1.312214,1.12128 -1.680662,1.325048 -0.08391,0.0464 -0.244088,0.138004 -0.355958,0.203562 -0.111874,0.06555 -0.329257,0.181633 -0.48308,0.257949 -0.153824,0.07631 -0.315621,0.156697 -0.359547,0.178629 -0.171739,0.08574 -0.741687,0.300633 -0.886298,0.33416 -0.0839,0.01947 -0.176412,0.05396 -0.205573,0.07669 -0.02918,0.02273 -0.200779,0.07515 -0.381378,0.116513 -0.1806,0.04136 -0.431337,0.09868 -0.55719,0.127365 -0.818575,0.186607 -2.700792,0.271205 -2.95542,0.132832 z M 23.062425,36.363071 c -0.08086,-0.0614 -0.08952,-0.23543 -0.101701,-2.045109 -0.01318,-1.955585 -0.01451,-1.978172 -0.118407,-1.993031 -0.07722,-0.01104 -0.171438,0.06987 -0.35527,0.305104 -0.453351,0.58013 -1.4291,1.49247 -1.986516,1.857423 -0.05261,0.03446 -0.175749,0.115645 -0.273637,0.180439 -0.09789,0.06479 -0.212302,0.134956 -0.254253,0.155911 -0.04195,0.02096 -0.167809,0.0922 -0.279679,0.158329 -0.293435,0.173452 -1.151638,0.586824 -1.218303,0.586824 -0.02068,0 -0.109703,0.03417 -0.197834,0.07594 -0.156372,0.0741 -0.434876,0.16142 -0.897573,0.281394 -0.125855,0.03265 -0.354683,0.09222 -0.508507,0.132404 -0.153823,0.04018 -0.485624,0.09603 -0.737335,0.124086 -2.239004,0.24962 -3.973076,-0.02335 -5.82241,-0.916498 C 9.9277479,35.081188 9.8769099,35.052241 9.4830784,34.794904 9.3213851,34.689246 9.1776942,34.602802 9.1637652,34.602802 c -0.025758,0 -0.3931618,-0.278505 -0.7573631,-0.574111 C 7.8130237,33.547076 6.6165614,32.168129 6.3455175,31.65348 6.308694,31.583561 6.262641,31.514912 6.2431778,31.500928 6.1177871,31.410839 5.4323951,29.911202 5.3484154,29.54319 5.3292704,29.45928 5.2950124,29.36678 5.2722894,29.337619 5.2117734,29.259959 5.0441829,28.518167 4.8994064,27.687149 4.7013153,26.550109 4.7791642,24.923985 5.0832036,23.847945 5.279829,23.152057 5.4463344,22.648452 5.4883795,22.622466 c 0.023456,-0.01448 0.04265,-0.06075 0.04265,-0.102784 0,-0.07033 0.2010424,-0.552627 0.3047837,-0.73118 0.024376,-0.04195 0.1201637,-0.221183 0.2128642,-0.398295 0.092701,-0.177109 0.1972158,-0.345812 0.2322555,-0.37489 0.035039,-0.02907 0.063708,-0.07194 0.063708,-0.09524 0,-0.05358 0.1866826,-0.330333 0.5244195,-0.777448 0.2779956,-0.368023 1.4396843,-1.562553 1.6879582,-1.73568 0.080217,-0.05593 0.255293,-0.187508 0.3890599,-0.292387 0.1337665,-0.104879 0.2632214,-0.19069 0.2876775,-0.19069 0.024455,0 0.085883,-0.04576 0.1365041,-0.101701 0.050621,-0.05594 0.1200142,-0.101701 0.1542068,-0.101701 0.034192,0 0.085962,-0.02867 0.115042,-0.06371 0.029081,-0.03504 0.1977825,-0.139554 0.3748951,-0.232253 0.177112,-0.0927 0.356344,-0.188065 0.398296,-0.211923 0.197926,-0.112557 0.517909,-0.254901 0.573637,-0.255184 0.0341,-1.73e-4 0.119205,-0.02964 0.189124,-0.06553 0.304736,-0.156331 1.247788,-0.412716 1.830628,-0.49769 0.181791,-0.0265 0.537792,-0.08217 0.791112,-0.123703 0.516417,-0.08467 1.676822,-0.101364 1.872582,-0.02693 0.173582,0.06599 0.28185,0.246185 0.358944,0.59739 0.169168,0.770651 0.221861,0.925172 0.633719,1.858412 0.05863,0.132846 0.151177,0.338789 0.205665,0.457652 0.05449,0.118862 0.1233,0.273322 0.152915,0.343242 0.02962,0.06992 0.122796,0.248693 0.207065,0.397277 0.08427,0.148589 0.140427,0.290853 0.124793,0.316152 -0.03421,0.05535 -0.297082,0.01187 -0.507565,-0.08395 -0.0839,-0.0382 -0.278408,-0.104876 -0.432231,-0.148168 -0.153824,-0.0433 -0.371211,-0.104938 -0.483083,-0.136987 -0.268416,-0.07689 -2.218041,-0.07614 -2.491686,0.0011 -0.111871,0.03153 -0.329258,0.09273 -0.483082,0.136027 -0.153823,0.0433 -0.351786,0.11289 -0.439916,0.154655 -0.08813,0.04177 -0.187573,0.07594 -0.220983,0.07594 -0.03341,0 -0.121483,0.03417 -0.195718,0.07593 -0.07423,0.04176 -0.192179,0.09951 -0.262099,0.128332 -0.06992,0.02881 -0.218658,0.107891 -0.33053,0.175707 -0.111872,0.06782 -0.256829,0.147535 -0.322128,0.177152 -0.286434,0.129911 -1.144149,0.918508 -1.5914361,1.46319 -0.2092488,0.254814 -0.5124679,0.726352 -0.6464429,1.005288 -0.067165,0.13984 -0.1650807,0.340766 -0.2175896,0.446507 -0.052508,0.105741 -0.095612,0.220155 -0.095784,0.254253 -1.723e-4,0.0341 -0.035123,0.128745 -0.077667,0.210327 -0.042544,0.08158 -0.1117653,0.298969 -0.1538249,0.483081 -0.042059,0.18411 -0.097644,0.426276 -0.1235217,0.538149 -0.025878,0.111869 -0.048046,0.616835 -0.049264,1.122145 -0.00185,0.758695 0.015294,0.984587 0.09829,1.296688 0.055277,0.207866 0.1011843,0.423702 0.1020151,0.479638 8.325e-4,0.05594 0.032158,0.160433 0.069619,0.232216 0.03746,0.07178 0.084043,0.19764 0.1035158,0.279679 0.077545,0.326692 0.5451127,1.219304 0.8599417,1.64167 0.331476,0.444701 0.486895,0.61133 1.0979366,1.177137 0.145296,0.13454 0.989451,0.680902 1.226019,0.793517 0.556485,0.264902 0.703551,0.325211 0.793756,0.325505 0.05287,1.73e-4 0.160532,0.03392 0.239245,0.07496 0.07871,0.04106 0.261775,0.08945 0.406805,0.107536 0.145031,0.0181 0.388636,0.06445 0.541343,0.103019 0.353331,0.08924 1.839627,0.09719 2.001232,0.01071 0.06107,-0.03269 0.248352,-0.08845 0.416176,-0.123913 0.418462,-0.08843 0.834447,-0.208806 1.017046,-0.294302 0.640896,-0.300065 1.125793,-0.57086 1.384669,-0.773282 0.329801,-0.25788 1.15822,-1.095446 1.340892,-1.355697 0.347769,-0.495468 0.440146,-0.46782 -1.614549,-0.483186 -1.499461,-0.01122 -1.796089,-0.02538 -1.848271,-0.08825 -0.07157,-0.08624 -0.103268,-2.263812 -0.03745,-2.572554 l 0.0389,-0.182495 1.609325,-0.03363 c 2.018154,-0.04216 7.506522,-0.04415 7.614392,-0.0029 0.07254,0.02784 0.08044,0.490936 0.08044,4.718919 0,3.578461 -0.01444,4.702495 -0.06102,4.749071 -0.09151,0.09151 -2.52467,0.08294 -2.64618,-0.0093 z M 16.475908,26.01756 c -0.08758,-0.0556 -0.09411,-2.528295 -0.007,-2.633316 0.04784,-0.05764 0.430183,-0.07023 2.132781,-0.07023 1.140973,0 2.110691,-0.0139 2.154931,-0.03088 0.12151,-0.04663 0.09948,-0.260751 -0.03398,-0.330193 -0.06293,-0.03276 -0.15336,-0.09648 -0.200963,-0.141627 -0.0476,-0.04515 -0.117021,-0.104977 -0.154267,-0.132944 -0.225003,-0.168953 -0.761163,-0.646807 -0.969512,-0.864084 -0.465826,-0.485785 -1.227367,-1.468359 -1.399396,-1.805563 -0.03567,-0.06992 -0.118957,-0.218656 -0.185083,-0.330525 -0.187875,-0.317846 -0.451808,-0.86251 -0.665305,-1.37296 -0.06982,-0.166933 -0.228237,-0.691309 -0.353331,-1.169561 -0.04389,-0.167805 -0.118134,-0.556812 -0.164981,-0.864457 -0.148641,-0.976116 -0.0933,-3.015528 0.09658,-3.559526 0.02929,-0.08391 0.08265,-0.28985 0.11859,-0.457655 0.03594,-0.167806 0.09347,-0.385192 0.127862,-0.483078 0.284723,-0.810493 0.263183,-0.757047 0.563581,-1.398389 0.23024,-0.4915513 0.809889,-1.4446672 1.00002,-1.6443232 0.0356,-0.03738 0.127303,-0.151647 0.203791,-0.253924 0.344198,-0.460236 0.958084,-1.085882 1.486615,-1.51509 0.395088,-0.320843 1.100215,-0.812488 1.32212,-0.921838 0.06992,-0.03446 0.167169,-0.08569 0.216117,-0.113864 0.04894,-0.02816 0.12903,-0.07427 0.177974,-0.102439 0.04894,-0.02816 0.146197,-0.07615 0.216116,-0.106628 0.06992,-0.03048 0.195777,-0.08531 0.279681,-0.12186 0.0839,-0.03655 0.255526,-0.111655 0.381379,-0.166904 0.341162,-0.149761 0.70013,-0.265561 1.047733,-0.337993 0.170717,-0.03558 0.333869,-0.07918 0.362556,-0.09692 0.0287,-0.01774 0.289461,-0.0676 0.579494,-0.110834 0.290029,-0.04323 0.641743,-0.09942 0.781583,-0.124868 0.320367,-0.05831 1.218501,-0.06057 1.65265,-0.0042 1.168667,0.151825 1.537868,0.209118 1.615608,0.250721 0.04834,0.02588 0.202303,0.06321 0.342143,0.08299 0.13984,0.01976 0.304936,0.0678 0.366878,0.106721 0.06195,0.03892 0.148445,0.07076 0.192226,0.07076 0.08009,0 0.535014,0.178132 0.918912,0.359809 0.113709,0.05382 0.233843,0.09784 0.266964,0.09784 0.03312,0 0.06022,0.02063 0.06022,0.04588 0,0.02523 0.06984,0.07022 0.155192,0.09997 0.175322,0.06112 1.222219,0.747234 1.511216,0.990422 0.519775,0.437385 1.429605,1.389498 1.791729,1.874994 0.223585,0.299761 0.406519,0.560544 0.406519,0.579515 0,0.01897 0.07978,0.154681 0.177279,0.301575 0.0975,0.1468939 0.200422,0.3208859 0.228707,0.3866429 0.02827,0.06576 0.07287,0.1538843 0.09907,0.1958373 0.02621,0.04195 0.109462,0.21357 0.185023,0.381376 0.07556,0.167805 0.159408,0.348469 0.186339,0.401469 0.09146,0.179987 0.344508,0.940628 0.441616,1.327445 0.256934,1.023467 0.271898,1.143393 0.27537,2.206638 0.0045,1.364634 0.01024,1.343006 -0.388337,1.450633 -0.173352,0.04681 -0.460406,0.115959 -0.637899,0.153674 -0.177489,0.03771 -0.347967,0.09382 -0.378838,0.12469 -0.03088,0.03088 -0.09247,0.05612 -0.1369,0.05612 -0.04443,0 -0.170548,0.04576 -0.280263,0.101701 -0.109713,0.05594 -0.22074,0.101702 -0.246723,0.101702 -0.05821,0 -0.319078,0.120339 -1.199909,0.553543 -0.376131,0.184985 -0.700411,0.343365 -0.720623,0.351955 -0.04296,0.01824 0.0033,-0.19537 0.05842,-0.269869 0.0207,-0.02798 0.05387,-0.126761 0.07372,-0.219539 0.01984,-0.09278 0.06812,-0.230074 0.107258,-0.305104 0.03915,-0.07503 0.07158,-0.182176 0.07209,-0.238113 3.62e-4,-0.05594 0.04614,-0.28476 0.101416,-0.508502 0.07848,-0.317679 0.100367,-0.579487 0.09988,-1.194987 -3.37e-4,-0.433501 -0.02461,-0.87971 -0.05396,-0.991583 -0.02936,-0.111869 -0.08432,-0.352139 -0.122179,-0.533928 -0.175419,-0.842442 -0.63972,-1.802758 -1.216978,-2.517096 -0.492538,-0.609501 -1.280978,-1.2768222 -1.897767,-1.6062362 -0.160748,-0.08585 -0.326593,-0.175563 -0.368547,-0.199352 -0.301938,-0.171222 -0.919031,-0.388174 -1.372968,-0.482701 -0.181794,-0.03785 -0.422062,-0.09283 -0.533936,-0.122178 -0.111869,-0.02936 -0.558086,-0.05336 -0.991586,-0.05337 -0.623717,-1.5e-5 -0.867051,0.02096 -1.16613,0.100488 -0.207867,0.05528 -0.430199,0.100503 -0.49407,0.100503 -0.06387,0 -0.191271,0.032 -0.283116,0.07112 -0.09184,0.03912 -0.338611,0.134964 -0.548371,0.212988 -0.20976,0.07802 -0.40633,0.160197 -0.436823,0.182611 -0.03048,0.02241 -0.187781,0.111373 -0.349528,0.197683 -0.161747,0.08631 -0.31986,0.177651 -0.351364,0.202972 -0.03149,0.02534 -0.228897,0.179808 -0.438657,0.343314 -0.384742,0.2998949 -0.900086,0.8226952 -1.055188,1.0704472 -0.04622,0.07384 -0.145389,0.214346 -0.220362,0.312232 -0.12354,0.161293 -0.520994,0.915257 -0.683553,1.296683 -0.128437,0.301365 -0.237385,0.667241 -0.302838,1.017009 -0.03664,0.195772 -0.09187,0.479212 -0.122752,0.62986 -0.07234,0.352917 -0.07234,1.336686 0,1.689607 0.03088,0.150647 0.08612,0.434083 0.122752,0.629855 0.08726,0.466336 0.316178,1.125146 0.485884,1.398385 0.02605,0.04195 0.07082,0.130873 0.09947,0.1976 0.02865,0.06673 0.181682,0.318436 0.340062,0.559354 0.32514,0.494581 1.46133,1.662205 1.667909,1.714051 0.28102,0.07053 0.286946,0.03695 0.278407,-1.577705 -0.0043,-0.812944 -0.006,-1.530732 -0.0037,-1.595084 0.008,-0.227206 0.240695,-0.26744 1.540921,-0.266434 0.890988,7.24e-4 1.186893,0.01651 1.217711,0.06505 0.02241,0.03529 0.04107,2.138293 0.0415,4.673372 7.24e-4,4.156564 -0.0071,4.612262 -0.07966,4.640098 -0.121727,0.04671 -9.139309,0.03544 -9.213282,-0.01151 z"
       id="path1" /></g></svg>
