<?xml version="1.0" encoding="UTF-8"?>
<svg id="svg6" aria-label="GoodFriend Inc Logo" data-bbox="0 0 1770.87 294.291" data-type="ugc" version="1.1" viewBox="0 0 1773.5 294.29" xmlns="http://www.w3.org/2000/svg">
 <path id="path1" d="m155.01 0.0058594c-72.946 0.67155-149.26 55.689-154.57 131.56-5.621 80.371 43.444 118.98 121.26 106.98v-83.619l-32.461-0.21093-0.015625 9.4805c-31.465-33.442-5.0855-110.42 38.895-143.78l33.941-20.307c-2.3436-0.092562-4.6938-0.12713-7.0469-0.10547zm-23.994 65.111v229.17h68.064l0.05078-53.596h12.451l-0.19531-85.783-24.447-0.00586c-0.507-33.409-18.984-62.511-40.396-86.662 30.84 7.59 52.563 31.969 61.984 61.77h47.35v-64.896h-124.86zm550.12 23.746-24.535 1.2383v5.9355c2.9526 0.59052 4.9893 1.2694 6.1113 2.0371 1.122 0.76769 1.949 1.8601 2.4805 3.2773 0.59053 1.3582 0.97518 3.3661 1.1523 6.0234 0.17716 2.5983 0.26563 7.0564 0.26563 13.375v8.0606c-3.425-0.94484-6.408-1.5641-8.9473-1.8594-2.4802-0.35431-5.0189-0.53125-7.6172-0.53125-9.035 0-16.772 1.7713-23.209 5.3145-6.3777 3.5431-11.19 8.7686-14.438 15.678-3.2479 6.8501-4.8711 15.295-4.8711 25.334 0 14.822 2.656 25.925 7.9707 33.307 5.3738 7.3816 13.434 11.072 24.182 11.072 4.3108 0 8.7997-1.152 13.465-3.4551 4.7242-2.3621 9.2131-5.6989 13.465-10.01l1.3281 0.08789-0.79687 12.756h10.717l24.094-0.79688v-5.9356c-2.7755-0.59052-4.7526-1.2694-5.9336-2.0371-1.181-0.82675-2.0388-1.8595-2.5703-3.0996s-0.88535-2.8941-1.0625-4.9609c-0.11811-2.0668-0.17773-5.344-0.17774-9.832v-100.98h-11.072zm588.36 0-24.537 1.2383v5.9355c2.9526 0.59052 4.9893 1.2694 6.1113 2.0371 1.122 0.76769 1.949 1.8601 2.4805 3.2773 0.5905 1.3582 0.9752 3.3661 1.1523 6.0234 0.1772 2.5983 0.2656 7.0564 0.2656 13.375v8.0606c-3.425-0.94484-6.408-1.5641-8.9472-1.8594-2.4802-0.35431-5.0189-0.53125-7.6172-0.53125-9.035 0-16.77 1.7713-23.207 5.3145-6.3777 3.5431-11.192 8.7686-14.44 15.678-3.2479 6.8501-4.8711 15.295-4.8711 25.334 0 14.822 2.6579 25.925 7.9727 33.307 5.3738 7.3816 13.434 11.072 24.182 11.072 4.3108 0 8.7978-1.152 13.463-3.4551 4.7242-2.3621 9.213-5.6989 13.465-10.01l1.3282 0.08789-0.7969 12.756h10.719l24.092-0.79688v-5.9356c-2.7754-0.59052-4.7525-1.2694-5.9336-2.0371-1.181-0.82675-2.0368-1.8595-2.5683-3.0996s-0.8873-2.8941-1.0645-4.9609c-0.1181-2.0668-0.1757-5.344-0.1757-9.832v-100.98h-11.072zm-319.84 3.6309v21.701h24.27v-21.701h-24.27zm-596.14 0.88672c-7.6768 0-14.881 1.1809-21.613 3.543-6.6729 2.303-12.697 6.0226-18.07 11.16-5.3147 5.0785-9.4786 11.693-12.49 19.842s-4.5176 17.598-4.5176 28.346c0 20.432 4.2215 35.697 12.666 45.795 8.5036 10.039 21.378 15.059 38.621 15.059 9.0941 0 17.154-2.156 24.182-6.4668l6.0234 6.377 12.756-2.6562v-33.395c0-3.366 0.17694-5.9643 0.53125-7.7949 0.41337-1.8897 1.1519-3.3956 2.2148-4.5176 1.0629-1.122 3.0708-2.1259 6.0234-3.0117v-5.8457h-45.354v5.8457c2.5392 0.76768 4.3125 1.4466 5.3164 2.0371 1.0039 0.59052 1.8001 1.3579 2.3906 2.3027 0.64958 0.94483 1.1227 2.3911 1.418 4.3398 0.29526 1.8897 0.44139 5.0804 0.44141 9.5684v3.3652c0 6.791-1.2386 11.751-3.7188 14.881-2.4802 3.0707-6.319 4.6055-11.516 4.6055-5.2557 0-9.6849-2.0964-13.287-6.2891-3.5432-4.1927-6.2011-10.068-7.9727-17.627-1.7125-7.6178-2.5684-16.594-2.5684-26.928 0-11.988 1.3001-21.879 3.8984-29.674 2.5983-7.854 6.1409-13.553 10.629-17.096 4.488-3.6022 9.6558-5.4023 15.502-5.4023 4.3108 0 7.8226 0.6789 10.539 2.0371 2.7755 1.2992 5.0199 3.307 6.7324 6.0234 1.7716 2.6574 3.3371 6.4654 4.6953 11.426h12.135v-25.156c-10.807-3.1298-22.675-4.6934-35.607-4.6934zm413 1.416v5.8457c2.244 0.59052 3.9864 1.2714 5.2266 2.0391 1.2992 0.70863 2.2434 1.6529 2.834 2.834 0.64957 1.181 1.0342 2.7158 1.1523 4.6055 0.17716 1.8897 0.26563 4.2226 0.26563 6.998v76.266c0 2.8345-0.08847 5.1962-0.26563 7.0859s-0.59066 3.4552-1.2402 4.6953c-0.59053 1.181-1.5368 2.1254-2.8359 2.834-1.2401 0.70863-2.9518 1.3298-5.1367 1.8613v5.8457h47.654v-5.8457c-2.0668-0.29526-3.7189-0.67993-4.959-1.1524-1.181-0.53147-2.1273-1.0931-2.8359-1.6836-0.64958-0.64958-1.2092-1.4746-1.6816-2.4785s-0.79746-2.304-0.97461-3.8984c-0.17716-1.6535-0.26563-4.0441-0.26563-7.1738v-32.863h11.338c2.7164 0 4.8128 0.4135 6.2891 1.2402 1.4763 0.82674 2.7168 2.273 3.7207 4.3398 1.0039 2.0078 1.8597 4.8715 2.5684 8.5918h10.01v-38.619h-10.01c-0.64958 3.6612-1.4766 6.4942-2.4805 8.502-0.94484 2.0078-2.1853 3.456-3.7207 4.3418-1.4763 0.82674-3.6015 1.2402-6.377 1.2402h-11.338v-45.088h17.096c4.547 0 7.7646 0.59043 9.6543 1.7715 1.8897 1.122 3.5148 2.6875 4.873 4.6953 1.3582 1.9487 3.0102 5.7279 4.959 11.338h12.135v-28.168h-85.654zm715.51 0v5.8457c2.244 0.59052 3.9865 1.2406 5.2266 1.9492 1.2991 0.70863 2.2434 1.6837 2.834 2.9238 0.6496 1.181 1.0343 2.687 1.1523 4.5176 0.1772 1.8306 0.2656 4.1635 0.2656 6.998v76.443c0 2.8345-0.0884 5.1963-0.2656 7.0859-0.1771 1.8306-0.5906 3.3654-1.2402 4.6055-0.5905 1.181-1.5367 2.1254-2.836 2.834-1.24 0.64958-2.9517 1.2708-5.1367 1.8613v5.8457h46.504v-5.8457c-1.7125-0.41337-3.1588-0.8865-4.3398-1.418-1.1811-0.59052-2.1273-1.2694-2.8359-2.0371-0.6496-0.76769-1.1516-1.712-1.5059-2.834-0.3543-1.122-0.589-2.5702-0.707-4.3418-0.1182-1.7716-0.1778-3.689-0.1778-5.7559v-76.355c0-3.3069 0.1173-5.8168 0.3535-7.5293 0.2363-1.7125 0.6498-3.1011 1.2403-4.1641 0.5905-1.063 1.4463-1.9476 2.5683-2.6562 1.1811-0.76768 2.9832-1.4774 5.4043-2.127v-5.8457h-46.504zm-1029.2 31.623c-6.3186 0-12.194 0.91547-17.627 2.7461-5.3738 1.7716-10.011 4.5468-13.908 8.3262-3.8975 3.7794-6.9381 8.5625-9.123 14.35-2.1849 5.7871-3.2773 12.638-3.2773 20.551 0 10.334 1.7713 18.868 5.3144 25.6 3.5431 6.6729 8.4455 11.545 14.705 14.615 6.3186 3.0117 13.817 4.5176 22.498 4.5176 9.2122 0 17.155-1.6828 23.828-5.0488 6.6729-3.366 11.81-8.5049 15.412-15.414 3.6022-6.9682 5.4043-15.59 5.4043-25.865 0-14.527-3.633-25.539-10.896-33.039-7.2634-7.5587-18.039-11.338-32.33-11.338zm99.109 0c-6.3186 0-12.194 0.91547-17.627 2.7461-5.3738 1.7716-10.009 4.5468-13.906 8.3262-3.8975 3.7794-6.9401 8.5625-9.125 14.35-2.1849 5.7871-3.2773 12.638-3.2773 20.551 0 10.334 1.7733 18.868 5.3164 25.6 3.5431 6.6729 8.4436 11.545 14.703 14.615 6.3186 3.0117 13.819 4.5176 22.5 4.5176 9.2122 0 17.153-1.6828 23.826-5.0488 6.6729-3.366 11.812-8.5049 15.414-15.414 3.6022-6.9682 5.4023-15.59 5.4023-25.865 0-14.527-3.6311-25.539-10.895-33.039-7.2634-7.5587-18.041-11.338-32.332-11.338zm369.73 0c-5.3147 0-10.246 1.1212-14.793 3.3652-4.547 2.244-8.9763 5.9059-13.287 10.984l-1.1504-0.26562 1.2402-13.375h-11.162l-24.27 0.70898v6.0234c2.8345 0.59052 4.8116 1.2983 5.9336 2.125 1.181 0.76768 2.0369 1.8004 2.5684 3.0996 0.59053 1.2401 0.94635 2.9229 1.0644 5.0488 0.17716 2.0668 0.26563 5.2864 0.26563 9.6562v36.406c0 5.61-0.20774 9.4776-0.62109 11.604-0.35433 2.1259-1.0928 3.8087-2.2148 5.0488-1.0629 1.2401-3.0112 2.244-5.8457 3.0117v5.8457h43.67v-5.8457c-2.9526-0.53148-5.049-1.4181-6.2891-2.6582-1.2401-1.2992-2.0671-3.0705-2.4805-5.3144s-0.61914-6.1713-0.61914-11.781v-28.256c0-3.0707 0.08847-5.3748 0.26562-6.9102 0.17716-1.5354 0.53103-3.0413 1.0625-4.5176 0.59052-1.5354 1.5348-3.0105 2.834-4.4277 1.3582-1.4763 2.8045-2.5995 4.3398-3.3672 1.5944-0.82674 3.0426-1.2402 4.3418-1.2402 2.7164 0 4.8704 0.91547 6.4648 2.7461 1.6535 1.8306 2.9824 4.4597 3.9863 7.8848h16.033v-24.449c-3.9565-0.76768-7.7357-1.1504-11.338-1.1504zm116.88 0c-8.6807 0-16.299 1.8002-22.854 5.4024-6.5549 3.5431-11.634 8.7994-15.236 15.768-3.5431 6.9091-5.3144 15.146-5.3144 24.713 0 14.822 3.4541 26.014 10.363 33.572 6.9682 7.4997 17.333 11.25 31.092 11.25 7.6768 0 14.468-1.329 20.373-3.9863s11.869-7.1751 17.893-13.553l-7.1738-7.7949c-4.1928 4.2518-8.0912 7.2328-11.693 8.9453-3.6022 1.6535-7.6468 2.4805-12.135 2.4805-7.6768 0-13.404-2.5098-17.184-7.5293-3.72-5.0785-5.6106-12.962-5.6699-23.65h56.158c-0.059-6.9682-0.6784-12.901-1.8594-17.803-1.122-4.7832-2.8048-9.0356-5.0488-12.756-1.8897-3.1298-4.2822-5.7877-7.1758-7.9727-2.8935-2.244-6.3765-3.9865-10.451-5.2266-4.0156-1.2401-8.7102-1.8594-14.084-1.8594zm111.72 0c-3.366 0-6.5855 0.5616-9.6562 1.6836-3.0117 1.0629-5.9042 2.5381-8.6797 4.4277-2.7755 1.8306-5.995 4.3713-9.6563 7.6191l-1.0625-0.26758 1.3301-12.754h-11.162l-24.27 0.70898v6.0234c2.8345 0.59052 4.8116 1.2983 5.9336 2.125 1.181 0.76768 2.0369 1.8004 2.5683 3.0996 0.5906 1.2401 0.9464 2.9229 1.0645 5.0488 0.1772 2.0668 0.2656 5.2864 0.2656 9.6562v36.406c0 5.61-0.2077 9.4776-0.6211 11.604-0.3543 2.1259-1.0928 3.8087-2.2148 5.0488-1.063 1.2401-3.0112 2.244-5.8457 3.0117v5.8457h42.783v-5.8457c-2.7755-0.64958-4.7237-1.5958-5.8457-2.8359-1.063-1.2992-1.7707-3.0397-2.125-5.2246s-0.5313-6.0834-0.5313-11.693v-34.102c0-2.7755 0.8251-5.3738 2.4785-7.7949 1.6535-2.4802 3.6922-4.3996 6.1133-5.7578 2.4212-1.4172 4.7541-2.127 6.9981-2.127 1.6534 0 3.0113 0.17694 4.0742 0.53125 1.0629 0.35432 2.0072 0.91591 2.834 1.6836 0.8267 0.70862 1.5652 1.6529 2.2148 2.834 0.7086 1.122 1.2394 2.5394 1.5938 4.252 0.4134 1.7125 0.7096 3.9281 0.8867 6.6445 0.1771 2.6574 0.2656 6.0807 0.2656 10.273v23.652c0 5.61-0.2078 9.5065-0.6211 11.691-0.3543 2.1259-1.0621 3.8376-2.125 5.1367-1.0629 1.2401-2.9535 2.1864-5.6699 2.8359v5.8457h42.961v-5.8457c-1.5944-0.41337-2.9522-0.91534-4.0742-1.5059-1.122-0.59053-2.0066-1.3002-2.6562-2.127-0.5905-0.88579-1.0637-2.007-1.418-3.3652s-0.5909-3.1603-0.709-5.4043c-0.0593-2.303-0.0879-4.7532-0.0879-7.3516v-32.42c0-5.0785-0.4443-9.5366-1.3301-13.375-0.8267-3.8384-2.2441-7.0868-4.2519-9.7441-1.9487-2.6574-4.5163-4.6652-7.7051-6.0234-3.1889-1.4173-7.2046-2.125-12.047-2.125zm189.08 0c-7.3225 0-13.848 1.0328-19.576 3.0996-5.669 2.0668-10.039 5.0498-13.109 8.9473-3.0708 3.8975-4.6055 8.5036-4.6055 13.818 0 3.2479 0.6192 6.2001 1.8594 8.8574 1.24 2.6574 2.9229 5.0787 5.0488 7.2637 2.1259 2.1259 4.6069 4.0453 7.4414 5.7578 2.8935 1.7125 5.9631 3.2761 9.2109 4.6934 5.7872 2.5393 9.8625 4.6068 12.225 6.2012 2.4212 1.5354 4.1329 3.1586 5.1368 4.8711 1.063 1.7125 1.5957 3.78 1.5957 6.2012 0 3.8384-1.152 6.7618-3.4551 8.7695-2.244 2.0078-5.5808 3.0117-10.01 3.0117-5.1375 0-9.2417-1.329-12.312-3.9863-3.0707-2.7164-5.3151-6.761-6.7324-12.135h-11.869v21.17c11.929 2.7755 22.764 4.1641 32.508 4.1641 5.3738 0 10.276-0.53276 14.705-1.5957 4.488-1.122 8.3268-2.8048 11.516-5.0488s5.6678-5.0789 7.4394-8.5039c1.7716-3.4841 2.6582-7.6171 2.6582-12.4 0-4.3699-0.9154-8.1779-2.7461-11.426-1.8306-3.3069-4.4885-6.2014-7.9726-8.6816-3.4841-2.5392-8.0019-4.9606-13.553-7.2637-6.0826-2.5393-10.187-4.5471-12.313-6.0234-2.1257-1.5354-3.601-3.099-4.4277-4.6934-0.8267-1.5944-1.2402-3.5138-1.2402-5.7578 0-3.1888 1.1521-5.6698 3.4551-7.4414 2.303-1.7716 5.4033-2.6562 9.3007-2.6562 2.7164 0 5.0474 0.41154 6.9961 1.2383 1.9488 0.76768 3.722 2.1851 5.3164 4.252 1.6535 2.0668 3.1575 4.9902 4.5157 8.7695h11.693v-20.639c-6.5548-1.181-11.9-1.9484-16.033-2.3027-4.1336-0.35431-8.3551-0.53125-12.666-0.53125zm267.24 0c-3.366 0-6.5834 0.5616-9.6543 1.6836-3.0115 1.0629-5.9061 2.5381-8.6816 4.4277-2.7755 1.8306-5.993 4.3713-9.6543 7.6191l-1.0625-0.26758 1.3281-12.754h-11.16l-24.272 0.70898v6.0234c2.8345 0.59052 4.8135 1.2983 5.9355 2.125 1.1811 0.76768 2.0369 1.8004 2.5684 3.0996 0.5905 1.2401 0.9444 2.9229 1.0625 5.0488 0.1771 2.0668 0.2656 5.2864 0.2656 9.6562v36.406c0 5.61-0.2058 9.4776-0.6191 11.604-0.3543 2.1259-1.0929 3.8087-2.2149 5.0488-1.0629 1.2401-3.0111 2.244-5.8457 3.0117v5.8457h42.783v-5.8457c-2.7754-0.64958-4.7237-1.5958-5.8457-2.8359-1.0629-1.2992-1.7726-3.0397-2.1269-5.2246s-0.5313-6.0834-0.5313-11.693v-34.102c0-2.7755 0.827-5.3738 2.4805-7.7949 1.6535-2.4802 3.6902-4.3996 6.1113-5.7578 2.4212-1.4172 4.7541-2.127 6.9981-2.127 1.6534 0 3.0113 0.17694 4.0742 0.53125 1.0629 0.35432 2.0073 0.91591 2.834 1.6836 0.8267 0.70862 1.5652 1.6529 2.2148 2.834 0.7086 1.122 1.2414 2.5394 1.5957 4.252 0.4134 1.7125 0.7077 3.9281 0.8848 6.6445 0.1771 2.6574 0.2656 6.0807 0.2656 10.273v23.652c0 5.61-0.2058 9.5065-0.6191 11.691-0.3544 2.1259-1.064 3.8376-2.127 5.1367-1.0629 1.2401-2.9515 2.1864-5.6679 2.8359v5.8457h42.961l-2e-3 -5.8457c-1.5944-0.41337-2.9522-0.91534-4.0742-1.5059-1.122-0.59053-2.0066-1.3002-2.6562-2.127-0.5906-0.88579-1.0637-2.007-1.418-3.3652s-0.5908-3.1603-0.709-5.4043c-0.0586-2.303-0.0879-4.7532-0.0879-7.3516v-32.42c0-5.0785-0.4423-9.5366-1.3281-13.375-0.8267-3.8384-2.2441-7.0868-4.2519-9.7441-1.9488-2.6574-4.5183-4.6652-7.7071-6.0234-3.1888-1.4173-7.2046-2.125-12.047-2.125zm93.096 0c-8.9168 0-16.829 1.8309-23.738 5.4922-6.9092 3.6022-12.223 8.9469-15.943 16.033-3.6613 7.0272-5.4922 15.382-5.4922 25.066 0 14.35 3.3657 25.305 10.098 32.863 6.7319 7.4997 16.506 11.25 29.32 11.25 6.3777 0 12.253-1.2117 17.627-3.6328 5.4329-2.4802 11.043-6.5536 16.83-12.223l-6.8222-8.2383c-4.1337 3.8384-7.734 6.4963-10.805 7.9727-3.0117 1.4763-6.2313 2.2129-9.6563 2.2129-4.7242 0-8.5322-1.2693-11.426-3.8086-2.8935-2.5983-4.9898-6.2602-6.289-10.984-1.2992-4.7832-1.9492-10.628-1.9492-17.537s0.4423-12.608 1.3281-17.096c0.8858-4.547 2.0667-8.1493 3.5429-10.807 1.5355-2.7164 3.2779-4.607 5.2266-5.6699 2.0077-1.122 4.1041-1.6816 6.2891-1.6816 3.307 0 5.8456 1.2693 7.6172 3.8086s3.1006 6.5838 3.9863 12.135h17.539v-21.348c-3.8975-1.181-8.2383-2.0965-13.022-2.7461-4.7242-0.70862-9.4784-1.0625-14.262-1.0625zm-736.1 0.70899-24.359 0.70898v6.0234c2.0078 0.41336 3.633 0.91338 4.873 1.5039 1.2992 0.53148 2.3031 1.3296 3.0117 2.3926 0.76768 1.063 1.2696 2.4804 1.5059 4.252 0.29526 1.7716 0.4414 4.1045 0.4414 6.998v41.189c0 5.61-0.20577 9.4776-0.61914 11.604-0.35431 2.1259-1.0928 3.8087-2.2148 5.0488-1.0629 1.2401-3.04 2.244-5.9336 3.0117v5.8457h43.225v-5.8457c-1.6535-0.41337-2.9805-0.8865-3.9844-1.418s-1.7732-1.1219-2.3047-1.7715c-0.53147-0.64958-0.97381-1.3573-1.3281-2.125-0.29526-0.76768-0.53183-1.6255-0.70899-2.5703-0.17716-1.0039-0.3233-2.3905-0.4414-4.1621-0.05907-1.8306-0.08985-4.4001-0.08985-7.707v-62.979h-11.072zm-511.12 8.5039c5.4919 0 9.6269 3.158 12.402 9.4766 2.8345 6.2596 4.252 15.737 4.252 28.434 0 5.2557-0.26736 10.01-0.79883 14.262-0.53147 4.1927-1.4469 7.795-2.7461 10.807-1.2401 3.0117-2.9229 5.3138-5.0488 6.9082-2.0668 1.5944-4.6651 2.3926-7.7949 2.3926-5.669 0-9.9194-3.1003-12.754-9.3008-2.7755-6.2596-4.1641-15.649-4.1641-28.168 0-7.9721 0.5616-14.498 1.6836-19.576 1.122-5.0785 2.8933-8.8865 5.3145-11.426 2.4211-2.5393 5.6387-3.8086 9.6543-3.8086zm99.111 0c5.4919 0 9.6249 3.158 12.4 9.4766 2.8345 6.2596 4.252 15.737 4.252 28.434 0 5.2557-0.2654 10.01-0.79687 14.262-0.53147 4.1927-1.4469 7.795-2.7461 10.807-1.2401 3.0117-2.923 5.3138-5.0488 6.9082-2.0668 1.5944-4.6651 2.3926-7.7949 2.3926-5.669 0-9.9213-3.1003-12.756-9.3008-2.7755-6.2596-4.1621-15.649-4.1621-28.168 0-7.9721 0.55964-14.498 1.6816-19.576 1.122-5.0785 2.8933-8.8865 5.3144-11.426s5.6407-3.8086 9.6562-3.8086zm100.26 0c5.0195 0 8.739 1.7405 11.16 5.2246 2.4211 3.4841 3.6328 8.8288 3.6328 16.033v29.496c0 3.425-0.85779 6.4676-2.5703 9.125-1.7125 2.5983-3.8377 4.5466-6.377 5.8457-2.4802 1.2401-4.99 1.8594-7.5293 1.8594-5.3738 0-9.3299-2.8637-11.869-8.5918-2.5393-5.7281-3.8086-14.408-3.8086-26.041 0-6.791 0.64811-12.668 1.9473-17.629 1.3582-4.9604 3.3372-8.7396 5.9355-11.338 2.6574-2.6574 5.8173-3.9844 9.4785-3.9844zm385.29 0c4.7242 0 8.1495 2.2136 10.275 6.6426s3.3067 11.16 3.543 20.195h-29.496c0.5314-8.6807 2.1258-15.324 4.7832-19.93 2.7164-4.6061 6.3474-6.9082 10.894-6.9082zm203.07 0c5.0194 0 8.7389 1.7405 11.16 5.2246 2.4212 3.4841 3.6328 8.8288 3.6328 16.033v29.496c0 3.425-0.8558 6.4676-2.5683 9.125-1.7125 2.5983-3.8397 4.5466-6.3789 5.8457-2.4803 1.2401-4.9901 1.8594-7.5293 1.8594-5.3738 0-9.3299-2.8637-11.869-8.5918-2.5392-5.7281-3.8086-14.408-3.8086-26.041 0-6.791 0.6501-12.668 1.9493-17.629 1.3582-4.9604 3.3352-8.7396 5.9336-11.338 2.6573-2.6574 5.8172-3.9844 9.4785-3.9844zm144.43 53.324c0.7086 6.791 1.0625 12.843 1.0625 18.158 0 4.488-0.3251 8.2383-0.9746 11.25-0.5906 3.0707-1.6233 5.846-3.0996 8.3262-1.4174 2.4802-3.3964 4.8419-5.9356 7.0859l6.8203 7.7051c6.3777-4.488 11.309-8.5902 14.793-12.311 3.5432-3.6613 6.1126-7.3828 7.707-11.162 1.5944-3.7794 2.3906-8.1201 2.3906-13.021 0-2.3621-0.1461-5.0181-0.4414-7.9707-0.2952-2.9526-0.7087-5.6394-1.2402-8.0606h-21.082zm355.97 0v26.75h23.828v-26.75h-23.828z"/>
</svg>
