<?xml version="1.0" encoding="UTF-8" standalone="no"?>
<!-- Created with Inkscape (http://www.inkscape.org/) -->

<svg
   width="500"
   height="100"
   viewBox="0 0 132.29166 26.458333"
   version="1.1"
   id="svg1"
   xml:space="preserve"
   inkscape:version="1.4 (86a8ad7, 2024-10-11)"
   sodipodi:docname="grassroots.svg"
   xmlns:inkscape="http://www.inkscape.org/namespaces/inkscape"
   xmlns:sodipodi="http://sodipodi.sourceforge.net/DTD/sodipodi-0.dtd"
   xmlns="http://www.w3.org/2000/svg"
   xmlns:svg="http://www.w3.org/2000/svg"><sodipodi:namedview
     id="namedview1"
     pagecolor="#ffffff"
     bordercolor="#111111"
     borderopacity="1"
     inkscape:showpageshadow="0"
     inkscape:pageopacity="0"
     inkscape:pagecheckerboard="1"
     inkscape:deskcolor="#d1d1d1"
     inkscape:document-units="px"
     inkscape:zoom="0.55559665"
     inkscape:cx="91.793209"
     inkscape:cy="586.75659"
     inkscape:window-width="1920"
     inkscape:window-height="1115"
     inkscape:window-x="-9"
     inkscape:window-y="-9"
     inkscape:window-maximized="1"
     inkscape:current-layer="layer1" /><defs
     id="defs1" /><g
     inkscape:label="Layer 1"
     inkscape:groupmode="layer"
     id="layer1"><path
       style="fill:#000000;stroke-width:0.666789"
       d="M 4.8448857,16.345596 C 4.0189032,16.207331 3.1471868,15.643934 2.7740306,15.007196 2.245631,14.10555 2.2311243,12.70143 2.740191,11.732031 3.1205452,11.007738 3.9147026,10.419149 4.7899636,10.212851 5.4872631,10.048494 6.5766763,10.108525 7.381833,10.355664 l 0.2464463,0.07565 v 0.686673 c 0,0.620195 -0.010014,0.686667 -0.1034068,0.686667 -0.074343,0 -0.199871,-0.195089 -0.4466299,-0.694142 C 6.8894694,10.728733 6.7044393,10.404633 6.667065,10.39029 c -0.037374,-0.01434 -0.2734711,-0.04348 -0.5246589,-0.06475 -0.5243756,-0.04441 -1.1352324,0.06021 -1.5310795,0.262175 -0.5574663,0.284392 -0.99242,0.896612 -1.1941379,1.68081 -0.1185826,0.460999 -0.1328226,1.456195 -0.027799,1.942579 0.2278901,1.055368 0.8785443,1.745355 1.8324098,1.943192 0.3736697,0.0775 1.1711436,0.04628 1.5511632,-0.06081 l 0.2174528,-0.06127 v -1.27301 -1.272996 H 6.497523 c -0.3994685,0 -0.4928931,-0.01647 -0.4928931,-0.08699 0,-0.07449 0.1707409,-0.08697 1.1887423,-0.08697 1.0180012,0 1.1887418,0.01247 1.1887418,0.08697 0,0.06575 -0.070872,0.08699 -0.2899373,0.08699 H 7.8022393 v 1.242563 1.242562 l -0.3097872,0.115909 c -0.5411759,0.202476 -1.1540198,0.298808 -1.8477986,0.29044 -0.3601412,-0.004 -0.7200384,-0.01881 -0.7997711,-0.03214 z M 17.268687,16.264321 16.906265,16.1495 v -0.780724 c 0,-0.704957 0.0098,-0.780711 0.101483,-0.78055 0.07826,1.39e-4 0.160829,0.174132 0.360778,0.760159 0.2925,0.857286 0.333859,0.898953 0.835298,0.841469 0.534441,-0.06127 0.763262,-0.327814 0.756872,-0.881642 -0.0064,-0.553109 -0.202293,-0.887384 -1.022913,-1.74539 -0.847025,-0.88561 -0.988117,-1.146885 -0.996404,-1.845147 -0.0071,-0.600538 0.117669,-0.935232 0.461591,-1.237968 0.140783,-0.123923 0.373299,-0.258168 0.516702,-0.298315 0.295575,-0.08276 1.126107,-0.05368 1.378578,0.04834 l 0.159466,0.06441 v 0.755273 c 0,0.685373 -0.0095,0.755273 -0.103171,0.755273 -0.07991,0 -0.161788,-0.166672 -0.363194,-0.739344 l -0.260024,-0.739336 -0.302652,0.0027 c -0.53392,0.004 -0.766671,0.276231 -0.767146,0.896378 -4.4e-4,0.575086 0.162424,0.861959 0.960587,1.691993 0.837065,0.870487 1.026019,1.217358 1.033628,1.897497 0.0064,0.573393 -0.123648,0.916188 -0.459928,1.212197 -0.139217,0.122543 -0.355547,0.253494 -0.480734,0.291 -0.345604,0.103543 -1.031347,0.07836 -1.446389,-0.05314 z m 3.667703,0.08509 c -0.06379,-0.01607 -0.239923,-0.06874 -0.391415,-0.117094 l -0.27544,-0.08793 v -0.77817 c 0,-0.724579 0.0076,-0.778163 0.109663,-0.778163 0.08848,0 0.156779,0.138346 0.353484,0.715919 0.134101,0.393752 0.266507,0.752552 0.294234,0.79732 0.07847,0.126724 0.733756,0.105272 0.9632,-0.03154 0.257885,-0.153756 0.337972,-0.338623 0.337972,-0.780144 0,-0.55729 -0.156869,-0.828253 -0.964995,-1.666875 -0.831352,-0.862719 -0.98695,-1.134897 -1.022807,-1.789097 -0.03029,-0.552583 0.04099,-0.853491 0.280458,-1.184072 0.341694,-0.471694 1.079768,-0.6493 1.905876,-0.458612 l 0.294361,0.06795 v 0.777117 c 0,0.692007 -0.01051,0.77507 -0.09596,0.758373 -0.06514,-0.01274 -0.180696,-0.2563 -0.359674,-0.758086 l -0.263708,-0.739337 -0.234697,8.7e-5 c -0.566318,2.2e-4 -0.862794,0.352092 -0.830517,0.985695 0.02844,0.558042 0.191938,0.8339 0.987024,1.665207 0.782222,0.817858 0.967469,1.133536 1.01537,1.730307 0.05538,0.689933 -0.186096,1.23402 -0.674795,1.520413 -0.224298,0.131451 -0.337905,0.155529 -0.786899,0.166758 -0.288615,0.0073 -0.576942,6e-6 -0.640729,-0.01607 z m 8.995823,-0.05574 c -0.436927,-0.10576 -0.961694,-0.386452 -1.31302,-0.702323 -0.756155,-0.679846 -1.108976,-1.828751 -0.907347,-2.954626 0.220977,-1.233914 1.042686,-2.11257 2.268266,-2.425461 0.441229,-0.112647 1.34309,-0.112194 1.822936,6.67e-4 1.116622,0.263209 1.952312,1.097462 2.246408,2.242541 0.130502,0.508114 0.08297,1.451061 -0.09731,1.930383 -0.369956,0.983622 -1.15048,1.675943 -2.157016,1.913259 -0.453614,0.106946 -1.411646,0.10454 -1.862914,-0.0047 z m 1.892884,-0.30323 c 0.674917,-0.332264 1.114808,-0.977202 1.289594,-1.890723 0.277802,-1.451942 -0.17628,-2.91728 -1.080995,-3.488398 -0.561835,-0.354673 -1.420616,-0.407562 -2.036844,-0.125444 -0.888002,0.406542 -1.380437,1.394484 -1.379931,2.768465 3.82e-4,1.037465 0.264644,1.818349 0.794744,2.348453 0.458574,0.458571 0.876373,0.616054 1.565506,0.590102 0.392347,-0.0148 0.536723,-0.04927 0.847926,-0.202457 z m 5.057828,0.286806 c -1.369503,-0.394219 -2.230501,-1.561094 -2.230501,-3.022904 0,-1.495709 0.930296,-2.713768 2.323462,-3.042168 0.479847,-0.113108 1.381708,-0.113561 1.822938,-6.67e-4 1.179989,0.301255 2.013664,1.156953 2.258561,2.318241 0.370767,1.758152 -0.576524,3.338503 -2.258561,3.767929 -0.471514,0.120375 -1.463919,0.109927 -1.915899,-0.0202 z m 1.895986,-0.252839 c 0.896325,-0.410749 1.39767,-1.404373 1.39767,-2.770065 0,-1.373541 -0.490686,-2.348474 -1.395392,-2.772479 -0.288004,-0.134978 -0.406635,-0.155882 -0.884703,-0.155882 -0.506963,0 -0.583749,0.0156 -0.939242,0.190589 -0.819378,0.403381 -1.272135,1.231774 -1.353701,2.47683 -0.100271,1.53055 0.558496,2.781514 1.648773,3.130938 0.41579,0.133259 1.118057,0.08729 1.526595,-0.09993 z m 7.381999,0.325006 c -0.06379,-0.01607 -0.239923,-0.06874 -0.391415,-0.117095 l -0.27544,-0.08793 v -0.77817 c 0,-0.724579 0.0076,-0.778163 0.109662,-0.778163 0.08848,0 0.15678,0.138346 0.353484,0.715919 0.134102,0.393752 0.266508,0.752552 0.294235,0.79732 0.07847,0.126724 0.733756,0.105272 0.9632,-0.03154 0.257885,-0.153756 0.337972,-0.338623 0.337972,-0.780144 0,-0.55729 -0.15687,-0.828253 -0.964996,-1.666875 -0.831352,-0.862719 -0.986949,-1.134897 -1.022805,-1.789097 -0.03029,-0.552583 0.04099,-0.853491 0.280457,-1.184072 0.341694,-0.471694 1.079768,-0.6493 1.905876,-0.458612 l 0.294361,0.06795 v 0.777117 c 0,0.692008 -0.01051,0.77507 -0.09596,0.758374 -0.06514,-0.01274 -0.180699,-0.256301 -0.359678,-0.758087 l -0.263707,-0.739337 -0.234697,8.7e-5 c -0.566319,2.2e-4 -0.862794,0.352092 -0.830517,0.985695 0.02844,0.558043 0.191939,0.833902 0.987024,1.665208 0.782223,0.817858 0.967468,1.133536 1.015371,1.730307 0.05538,0.689933 -0.186098,1.23402 -0.674795,1.520413 -0.2243,0.131451 -0.337907,0.155529 -0.786899,0.166758 -0.288615,0.0072 -0.576943,6e-6 -0.640729,-0.01607 z m 14.757794,-0.05555 c -1.431744,-0.37773 -2.224787,-1.440525 -2.224787,-2.981556 0,-1.002719 0.284886,-1.716678 0.923284,-2.313868 0.707301,-0.661648 1.479445,-0.911415 2.6574,-0.859592 0.493805,0.02174 0.827613,0.06972 1.123061,0.161484 l 0.420411,0.13057 v 0.686867 c 0,0.906094 -0.06328,0.905908 -0.518143,-0.0013 -0.189788,-0.378607 -0.392218,-0.706907 -0.449849,-0.729551 -0.215961,-0.08488 -0.948413,-0.104273 -1.30305,-0.03447 -0.892824,0.175652 -1.45623,0.710251 -1.769064,1.678616 -0.139534,0.43192 -0.168643,1.646437 -0.05203,2.170614 0.201878,0.907401 0.714356,1.575204 1.410407,1.837872 0.291328,0.109941 0.417094,0.122463 1.000091,0.09954 0.715079,-0.02813 1.117686,-0.139479 1.539798,-0.425932 0.267529,-0.181547 0.48863,-0.142493 0.257987,0.04554 -0.230529,0.187968 -0.762274,0.437141 -1.143937,0.536039 -0.441521,0.114407 -1.436777,0.114061 -1.871585,-6.53e-4 z m 5.603562,-2.19e-4 c -0.436927,-0.105753 -0.961698,-0.386452 -1.313023,-0.702324 -0.756153,-0.679845 -1.108971,-1.82875 -0.907348,-2.954618 0.220981,-1.233921 1.042693,-2.112577 2.268266,-2.425468 0.441235,-0.112647 1.343094,-0.112187 1.822937,6.67e-4 1.116626,0.263215 1.952314,1.097462 2.246408,2.24254 0.130505,0.508115 0.08297,1.451061 -0.09731,1.930383 -0.369955,0.983629 -1.15048,1.67595 -2.157019,1.91326 -0.45361,0.106954 -1.41164,0.10454 -1.86291,-0.0047 z m 1.892883,-0.303223 c 0.674918,-0.332261 1.114805,-0.977206 1.289591,-1.890721 0.277805,-1.451942 -0.176279,-2.917279 -1.080992,-3.488404 -0.561838,-0.354666 -1.420617,-0.407556 -2.036844,-0.125437 -0.888003,0.406535 -1.380435,1.394477 -1.379927,2.768465 3.8e-4,1.037458 0.264642,1.818349 0.794739,2.348446 0.458578,0.458572 0.876375,0.61606 1.565509,0.590103 0.392346,-0.01481 0.53672,-0.04927 0.847924,-0.202452 z m 27.216797,0.303223 c -0.436927,-0.105753 -0.961698,-0.386452 -1.313023,-0.702324 -0.756153,-0.679845 -1.108978,-1.82875 -0.907348,-2.954618 0.220981,-1.233921 1.042687,-2.112577 2.268266,-2.425468 0.441229,-0.112647 1.343088,-0.112187 1.822937,6.67e-4 1.116626,0.263215 1.952314,1.097462 2.246408,2.24254 0.130505,0.508115 0.08297,1.451061 -0.09731,1.930383 -0.369955,0.983629 -1.15048,1.67595 -2.157019,1.91326 -0.45361,0.106954 -1.411647,0.10454 -1.86291,-0.0047 z m 1.892883,-0.303222 c 0.674918,-0.332262 1.114806,-0.977207 1.289591,-1.890722 0.277805,-1.451942 -0.176279,-2.917279 -1.080992,-3.488404 -0.561838,-0.354666 -1.420616,-0.407556 -2.036843,-0.125437 -0.888004,0.406535 -1.380436,1.394477 -1.379936,2.768465 3.88e-4,1.037458 0.26465,1.818349 0.794747,2.348446 0.458572,0.458572 0.876375,0.61606 1.565509,0.590103 0.392346,-0.01481 0.53672,-0.04927 0.847924,-0.202451 z m 4.191721,-1.996762 c -0.37563,-1.283697 -0.69322,-2.344867 -0.70575,-2.358156 -0.0125,-0.01327 -0.0228,0.984823 -0.0228,2.218024 v 2.242173 h 0.31893 c 0.24485,0 0.31894,0.0202 0.31894,0.08698 0,0.07268 -0.1192,0.08699 -0.72485,0.08699 -0.60564,0 -0.72484,-0.01433 -0.72484,-0.08699 0,-0.06575 0.0709,-0.08698 0.28994,-0.08698 h 0.28994 v -2.658764 c 0,-1.780902 -0.021,-2.719062 -0.0637,-2.841384 -0.057,-0.16353 -0.0877,-0.182614 -0.29419,-0.182614 -0.1883,0 -0.22696,-0.0186 -0.21109,-0.101479 0.0168,-0.08784 0.10274,-0.103685 0.63904,-0.117901 0.54565,-0.01447 0.62607,-0.004 0.67369,0.08698 0.0297,0.05688 0.32098,1.042805 0.64717,2.190957 0.32619,1.148152 0.6102,2.106183 0.63115,2.128967 0.0209,0.0228 0.30958,-0.929665 0.64142,-2.116544 0.33181,-1.186873 0.62886,-2.191391 0.66012,-2.232259 0.0416,-0.05441 0.22929,-0.06993 0.6999,-0.05801 0.5587,0.0142 0.6456,0.02961 0.66248,0.117795 0.0165,0.08586 -0.0258,0.101479 -0.27475,0.101479 h -0.29418 v 2.841378 2.841384 h 0.28994 c 0.21906,0 0.28993,0.02127 0.28993,0.08698 0,0.0739 -0.14819,0.08697 -0.98578,0.08697 -0.8376,0 -0.98579,-0.01307 -0.98579,-0.08697 0,-0.06575 0.0708,-0.08698 0.28994,-0.08698 h 0.28994 v -2.387147 c 0,-1.312929 -0.0117,-2.375386 -0.0261,-2.36101 -0.0144,0.0144 -0.32851,1.095123 -0.69809,2.401644 -0.36958,1.306529 -0.68575,2.421173 -0.70261,2.476984 -0.0169,0.0558 -0.0766,0.101482 -0.13281,0.101482 -0.0846,0 -0.21987,-0.40226 -0.78513,-2.33399 z m 9.08581,2.212662 -0.36242,-0.114821 v -0.784978 c 0,-0.703977 0.0104,-0.783045 0.0974,-0.766215 0.0678,0.01307 0.17669,0.248065 0.358,0.772582 0.14332,0.414603 0.26852,0.764121 0.27822,0.77671 0.0523,0.06788 0.60198,0.06134 0.80301,-0.0095 0.34773,-0.122609 0.4929,-0.373349 0.4929,-0.851384 0,-0.56381 -0.16461,-0.84843 -0.96364,-1.666187 -0.77026,-0.788339 -0.98862,-1.15632 -1.04511,-1.761265 -0.0524,-0.560864 0.0873,-0.991083 0.43436,-1.338174 0.18306,-0.183047 0.35379,-0.292501 0.53071,-0.340236 0.29873,-0.0806 1.1615,-0.05081 1.40609,0.04848 l 0.15948,0.06474 v 0.755273 c 0,0.698462 -0.008,0.755266 -0.10819,0.755266 -0.0864,0 -0.1607,-0.149354 -0.36823,-0.739337 l -0.26006,-0.739336 -0.25512,-0.0158 c -0.17469,-0.0108 -0.31358,0.02034 -0.44044,0.09871 -0.29996,0.185314 -0.39014,0.374696 -0.38545,0.809509 0.006,0.566545 0.15843,0.832994 0.95644,1.672982 0.85829,0.903481 0.99833,1.163062 1.02469,1.899605 0.0275,0.771529 -0.19275,1.188533 -0.77015,1.457402 -0.38002,0.176959 -1.05284,0.183727 -1.58253,0.01594 z M 8.5560792,16.182652 c 0,-0.06575 0.070872,-0.08698 0.2899373,-0.08698 H 9.1359527 V 13.254292 10.412908 H 8.8417635 c -0.2491132,0 -0.2911343,-0.01554 -0.2742571,-0.101479 0.018174,-0.09254 0.1168822,-0.101152 1.1205084,-0.0978 1.2675862,0.004 1.5579932,0.06715 1.9031222,0.412283 0.298294,0.298295 0.403894,0.615407 0.377696,1.134209 -0.02855,0.565358 -0.211559,0.931352 -0.594949,1.1898 -0.153814,0.103692 -0.361475,0.210066 -0.46147,0.236384 l -0.181807,0.04787 0.207779,0.06935 c 0.281664,0.09402 0.566671,0.383745 0.721648,0.733602 0.07063,0.159463 0.229388,0.687874 0.352777,1.174244 l 0.224347,0.88431 h 0.330081 c 0.264469,0 0.335943,-0.02014 0.359575,-0.101483 0.01623,-0.05581 0.293433,-1.274115 0.616027,-2.707333 0.444745,-1.975918 0.577506,-2.659291 0.549191,-2.826888 l -0.03734,-0.221028 h 0.440002 c 0.242002,0 0.440003,0.0122 0.440003,0.02707 0,0.01487 0.287037,1.321651 0.637861,2.903916 0.350824,1.582259 0.637862,2.887846 0.637862,2.901289 0,0.01347 0.07829,0.02447 0.173962,0.02447 0.115975,0 0.173962,0.02901 0.173962,0.08699 0,0.07345 -0.135303,0.08698 -0.869812,0.08698 -0.734506,0 -0.86981,-0.01353 -0.86981,-0.08698 0,-0.06441 0.06765,-0.08699 0.260944,-0.08699 0.143518,0 0.260942,-0.01025 0.260942,-0.0228 0,-0.01967 -0.290612,-1.329651 -0.37765,-1.702347 -0.02941,-0.125903 -0.05364,-0.13047 -0.692313,-0.13047 -0.580243,0 -0.665541,0.01254 -0.691837,0.101483 -0.04804,0.162549 -0.383733,1.656318 -0.383733,1.707554 0,0.02561 0.143518,0.04654 0.31893,0.04654 0.244836,0 0.318931,0.0202 0.318931,0.08698 0,0.07459 -0.175923,0.08699 -1.235385,0.08699 H 11.362162 L 11.116674,15.153363 C 10.785286,13.646518 10.662321,13.413048 10.156866,13.33102 l -0.2090885,-0.03394 v 1.399285 1.399285 H 10.20872 c 0.193291,0 0.260943,0.02253 0.260943,0.08698 0,0.0738 -0.144968,0.08699 -0.9567919,0.08699 -0.8118227,0 -0.9567919,-0.0132 -0.9567919,-0.08699 z m 6.3207958,-2.160026 c 4.21e-4,-0.108339 -0.605116,-2.751361 -0.619754,-2.705079 -0.04169,0.131837 -0.598149,2.630645 -0.598149,2.686016 0,0.04074 0.211994,0.06255 0.608867,0.06255 0.334878,0 0.608944,-0.01954 0.609036,-0.04347 z m -4.45443,-0.944313 c 0.258781,-0.07188 0.486087,-0.32754 0.57075,-0.641945 0.03447,-0.12803 0.06231,-0.466446 0.06185,-0.752039 -0.0013,-0.854344 -0.227815,-1.201668 -0.82063,-1.258632 l -0.2866406,-0.02754 v 1.370078 1.370087 l 0.1304716,-3.26e-4 c 0.07176,-1.81e-4 0.226648,-0.02701 0.344197,-0.05968 z m 13.094384,3.10434 c 0,-0.06441 0.06765,-0.08697 0.260944,-0.08697 h 0.260944 v -2.841386 -2.841384 h -0.265196 c -0.221534,0 -0.261899,-0.01674 -0.245179,-0.101479 0.0183,-0.09274 0.117209,-0.100939 1.149503,-0.09527 1.040475,0.006 1.153678,0.01667 1.436444,0.138699 0.581692,0.25108 0.866567,0.766815 0.810357,1.46707 -0.04984,0.62083 -0.397418,1.103445 -0.944197,1.310997 -0.259031,0.09832 -0.270164,0.11022 -0.140259,0.149807 0.213958,0.06521 0.506121,0.30399 0.664155,0.542794 0.0861,0.130097 0.244262,0.608986 0.40363,1.222079 0.144133,0.554482 0.262062,1.017134 0.262062,1.028109 0,0.01101 0.104377,0.01993 0.231949,0.01993 0.167519,0 0.231949,0.02414 0.231949,0.08699 0,0.07227 -0.112754,0.08698 -0.666855,0.08698 -0.366771,0 -0.666855,-0.01067 -0.666855,-0.02373 0,-0.201482 -0.550192,-2.359315 -0.644222,-2.526626 -0.129817,-0.230974 -0.400447,-0.406987 -0.625768,-0.406987 -0.120238,0 -0.121707,0.01681 -0.121707,1.391696 v 1.391696 h 0.260943 c 0.19329,0 0.260943,0.02253 0.260943,0.08698 0,0.0738 -0.144968,0.08699 -0.956792,0.08699 -0.811824,0 -0.956793,-0.0132 -0.956793,-0.08699 z m 2.074708,-3.194557 c 0.271701,-0.178025 0.389757,-0.56285 0.389757,-1.270468 0,-0.531504 -0.02001,-0.676538 -0.119954,-0.869813 -0.13943,-0.26961 -0.418604,-0.434687 -0.73536,-0.434814 l -0.217452,-9.3e-5 v 1.370586 1.370587 l 0.271673,-0.03721 c 0.14942,-0.02047 0.33452,-0.07841 0.411336,-0.128745 z m 16.597236,3.194557 c 0,-0.06677 0.07409,-0.08697 0.318931,-0.08697 h 0.31893 v -2.841386 -2.841384 h -0.311835 -0.311836 l -0.250921,0.695848 c -0.1958,0.542987 -0.27415,0.695848 -0.356656,0.695848 -0.09797,0 -0.10455,-0.05848 -0.0896,-0.797327 l 0.01613,-0.797327 h 1.710629 1.710628 l 0.01613,0.797327 c 0.0148,0.731609 0.0077,0.797321 -0.08698,0.797207 -0.07907,-8.7e-5 -0.16181,-0.16231 -0.3549,-0.695848 L 44.26564,10.412908 h -0.313591 -0.313592 v 2.841384 2.841385 h 0.318931 c 0.244836,0 0.318931,0.0202 0.318931,0.08698 0,0.0741 -0.154633,0.08698 -1.043773,0.08698 -0.88914,0 -1.043774,-0.01287 -1.043773,-0.08698 z m 8.524149,0 c 0,-0.06575 0.07087,-0.08697 0.289937,-0.08697 h 0.289936 v -2.841386 -2.841384 h -0.294189 c -0.249113,0 -0.291134,-0.01554 -0.274258,-0.101479 0.01817,-0.09254 0.116883,-0.101152 1.120509,-0.0978 1.267586,0.004 1.557992,0.06715 1.903122,0.412283 0.298294,0.298295 0.403894,0.615407 0.377696,1.134209 -0.02855,0.565358 -0.211561,0.931352 -0.594949,1.1898 -0.153815,0.103692 -0.361476,0.210066 -0.46147,0.236384 l -0.181808,0.04787 0.207779,0.06935 c 0.281665,0.09402 0.566672,0.383745 0.721648,0.733602 0.07063,0.159463 0.229388,0.687874 0.352778,1.174244 l 0.224345,0.88431 h 0.218014 c 0.155133,0 0.218014,0.02507 0.218014,0.08698 0,0.07219 -0.111492,0.08698 -0.65551,0.08698 h -0.655512 l -0.245488,-1.116257 c -0.331388,-1.506845 -0.454353,-1.740314 -0.959809,-1.822342 l -0.209088,-0.03393 v 1.399284 1.399286 h 0.260943 c 0.193292,0 0.260943,0.02253 0.260943,0.08698 0,0.0738 -0.144968,0.08699 -0.956792,0.08699 -0.811823,0 -0.956791,-0.0132 -0.956791,-0.08699 z m 1.866366,-3.10434 c 0.25878,-0.07188 0.486086,-0.32754 0.570748,-0.641945 0.03447,-0.12803 0.06231,-0.466446 0.06186,-0.752039 -0.0013,-0.854344 -0.227814,-1.201668 -0.820629,-1.258632 l -0.286641,-0.02754 v 1.370078 1.370087 l 0.130473,-3.26e-4 c 0.07176,-1.81e-4 0.226647,-0.02701 0.344196,-0.05968 z m 2.366713,3.10434 c 0,-0.06441 0.06765,-0.08697 0.260944,-0.08697 h 0.260944 v -2.841386 -2.841384 h -0.260944 c -0.22299,0 -0.260944,-0.017 -0.260944,-0.116922 0,-0.114708 0.02937,-0.116628 1.551163,-0.101479 l 1.551164,0.01547 v 0.695056 c 0,0.594789 -0.01356,0.697668 -0.094,0.713158 -0.07035,0.01354 -0.157201,-0.135785 -0.345205,-0.593576 L 57.357919,10.412934 H 56.847809 56.3377 v 1.362705 1.362706 h 0.430142 0.430144 l 0.154492,-0.4639 c 0.121529,-0.36492 0.178223,-0.463899 0.265706,-0.463899 0.105389,0 0.111213,0.05314 0.111213,1.014781 0,0.927851 -0.0087,1.014761 -0.101483,1.014627 -0.07449,-1.14e-4 -0.14504,-0.12349 -0.265265,-0.463899 l -0.163785,-0.463752 h -0.430586 -0.430584 v 1.391704 1.391696 h 0.601098 0.601098 l 0.131067,-0.36242 c 0.314491,-0.86962 0.360499,-0.971292 0.439519,-0.971292 0.06752,0 0.08281,0.139272 0.08281,0.753838 v 0.753833 h -1.623648 c -1.404583,0 -1.623647,-0.01173 -1.623647,-0.08698 z m 17.431759,-0.01447 c -0.03994,-0.133818 -1.195501,-5.655457 -1.19538,-5.711754 5.3e-5,-0.02394 -0.0801,-0.04347 -0.17812,-0.04347 -0.138512,0 -0.173859,-0.0226 -0.15867,-0.101479 0.01754,-0.09107 0.105607,-0.101479 0.858773,-0.101479 0.753159,0 0.841235,0.0104 0.858772,0.101479 0.0164,0.085 -0.0246,0.101479 -0.252413,0.101479 -0.230109,0 -0.268023,0.0156 -0.246353,0.101478 0.01407,0.05581 0.256861,1.216472 0.539506,2.57925 0.282639,1.362772 0.51967,2.471783 0.526738,2.464462 0.007,-0.0074 0.224281,-1.096222 0.482702,-2.41978 0.258422,-1.323565 0.484684,-2.478238 0.502799,-2.565948 l 0.03294,-0.159462 h -0.356786 c -0.308577,0 -0.354139,-0.01374 -0.337236,-0.101479 0.01714,-0.08894 0.09457,-0.101479 0.626823,-0.101479 0.532257,0 0.609692,0.01254 0.626821,0.101479 0.0144,0.07485 -0.01861,0.101479 -0.125769,0.101479 -0.08848,0 -0.156883,0.03967 -0.174879,0.101478 -0.01627,0.05581 -0.282826,1.373574 -0.59237,2.928361 l -0.562797,2.826889 h -0.422418 c -0.352111,0 -0.427445,-0.01687 -0.452676,-0.101483 z m 2.573896,0.01447 c 0,-0.06575 0.07087,-0.08697 0.289941,-0.08697 h 0.289933 v -2.841386 -2.841384 h -0.294187 c -0.248967,0 -0.291188,-0.0156 -0.274645,-0.101479 0.01801,-0.0936 0.138779,-0.101479 1.555414,-0.101479 h 1.53587 l 0.01634,0.714952 c 0.01474,0.644533 0.0066,0.713065 -0.08144,0.695849 -0.06228,-0.01214 -0.185467,-0.229669 -0.339283,-0.598971 L 77.408088,10.4419 76.875735,10.42523 76.343377,10.40856 v 1.364884 1.364879 h 0.452117 0.45211 l 0.14578,-0.449289 c 0.09713,-0.299382 0.178449,-0.455577 0.243729,-0.468146 0.08895,-0.01714 0.09796,0.07482 0.09796,1.000165 0,1.202342 -0.05987,1.304301 -0.326073,0.555129 l -0.164834,-0.463899 h -0.450397 -0.450396 v 1.391697 1.391703 l 0.623368,-3.67e-4 0.623362,-3.6e-4 0.231949,-0.651313 c 0.163065,-0.457885 0.262089,-0.657088 0.333429,-0.670744 0.09246,-0.01774 0.101483,0.04794 0.101483,0.738657 v 0.758086 h -1.65265 c -1.430351,0 -1.652638,-0.01167 -1.652638,-0.08699 z m 3.769183,0 c 0,-0.06441 0.06765,-0.08697 0.260942,-0.08697 h 0.260941 v -2.841386 -2.841384 h -0.265195 c -0.221529,0 -0.261896,-0.01674 -0.245179,-0.101479 0.01827,-0.09274 0.117208,-0.100939 1.149505,-0.09527 1.040473,0.006 1.15368,0.01667 1.436446,0.138699 0.581687,0.25108 0.866566,0.766815 0.810356,1.46707 -0.04981,0.62083 -0.397421,1.103445 -0.944201,1.310997 -0.259028,0.09832 -0.270163,0.11022 -0.140253,0.149807 0.213953,0.06521 0.506121,0.30399 0.66415,0.542794 0.0861,0.130097 0.244265,0.608986 0.403634,1.222079 0.144134,0.554482 0.262062,1.017134 0.262062,1.028109 0,0.01101 0.104373,0.01993 0.231949,0.01993 0.167518,0 0.23195,0.02414 0.23195,0.08699 0,0.07227 -0.112754,0.08698 -0.666856,0.08698 -0.366775,0 -0.666857,-0.01067 -0.666857,-0.02373 0,-0.201482 -0.550195,-2.359315 -0.644226,-2.526626 -0.12981,-0.230974 -0.400441,-0.406987 -0.625762,-0.406987 -0.120242,0 -0.121709,0.01681 -0.121709,1.391696 v 1.391696 h 0.260941 c 0.193297,0 0.260942,0.02253 0.260942,0.08698 0,0.0738 -0.144967,0.08699 -0.95679,0.08699 -0.811823,0 -0.95679,-0.0132 -0.95679,-0.08699 z m 2.074703,-3.194557 c 0.271703,-0.178025 0.389759,-0.56285 0.389759,-1.270468 0,-0.531504 -0.02001,-0.676538 -0.119956,-0.869813 -0.139426,-0.26961 -0.418604,-0.434687 -0.735355,-0.434814 l -0.217454,-9.3e-5 v 1.370586 1.370587 l 0.27167,-0.03721 c 0.149421,-0.02047 0.334522,-0.07841 0.411336,-0.128745 z m 2.796237,3.194557 c 0,-0.06575 0.07087,-0.08697 0.28994,-0.08697 h 0.289933 v -1.198443 -1.198434 l -0.565378,-1.642237 -0.565378,-1.642243 -0.2217,-6.67e-4 c -0.17974,-5.73e-4 -0.218007,-0.01994 -0.202164,-0.102185 0.0176,-0.09126 0.106993,-0.101479 0.887764,-0.101479 0.780777,0 0.870194,0.0102 0.887771,0.101479 0.01607,0.08351 -0.02313,0.101478 -0.221495,0.101478 -0.169631,0 -0.232443,0.02147 -0.212032,0.07249 0.01594,0.03987 0.229589,0.667763 0.474761,1.395331 0.245172,0.727561 0.453857,1.314683 0.463745,1.304714 0.0098,-0.01005 0.213413,-0.592202 0.452291,-1.293852 0.238877,-0.70165 0.452663,-1.321384 0.475087,-1.377201 0.03594,-0.08943 0.002,-0.101478 -0.284366,-0.101478 -0.288273,0 -0.325133,-0.01334 -0.325133,-0.117936 0,-0.112287 0.0298,-0.117148 0.622682,-0.101478 0.529351,0.014 0.625475,0.03107 0.641351,0.114001 0.01394,0.07286 -0.02988,0.102212 -0.173271,0.115975 l -0.191956,0.0184 -0.562251,1.623645 -0.56225,1.623654 -0.0033,1.203235 -0.0033,1.203236 h 0.318933 c 0.244838,0 0.318932,0.0202 0.318932,0.08699 0,0.07401 -0.151414,0.08698 -1.014781,0.08698 -0.863366,0 -1.014781,-0.01301 -1.014781,-0.08698 z m 4.986914,0 c 0,-0.06441 0.06765,-0.08697 0.260952,-0.08697 h 0.260941 v -2.841386 -2.841384 h -0.265195 c -0.221358,0 -0.261966,-0.0168 -0.245656,-0.101479 0.01767,-0.09159 0.109754,-0.101479 0.945758,-0.101479 0.836001,0 0.928112,0.0099 0.945754,0.101479 0.01634,0.0847 -0.02434,0.101479 -0.245658,0.101479 H 89.9704 v 1.333712 1.333706 h 0.811824 0.811822 V 11.74662 10.412908 h -0.265195 c -0.221355,0 -0.261968,-0.0168 -0.245652,-0.101479 0.0176,-0.09159 0.109747,-0.101479 0.945748,-0.101479 0.836008,0 0.928118,0.0099 0.945754,0.101479 0.01654,0.08588 -0.02567,0.101479 -0.274643,0.101479 H 92.40587 v 2.841384 2.841385 h 0.289933 c 0.219067,0 0.28994,0.02127 0.28994,0.08698 0,0.0738 -0.144973,0.08698 -0.956796,0.08698 -0.811823,0 -0.95679,-0.0132 -0.95679,-0.08698 0,-0.06441 0.06765,-0.08698 0.260942,-0.08698 h 0.260947 V 14.674981 13.254292 H 90.782224 89.9704 v 1.420689 1.420696 h 0.260942 c 0.193288,0 0.260941,0.02253 0.260941,0.08698 0,0.0738 -0.144967,0.08698 -0.95679,0.08698 -0.811823,0 -0.9568,-0.0132 -0.9568,-0.08698 z m 17.222257,0 c 0,-0.06575 0.0708,-0.08697 0.28994,-0.08697 h 0.28994 v -2.841386 -2.841384 h -0.2942 c -0.24896,0 -0.29118,-0.0156 -0.27463,-0.101479 0.018,-0.0936 0.13877,-0.101479 1.55541,-0.101479 h 1.53587 l 0.0164,0.714952 c 0.0147,0.644533 0.006,0.713065 -0.0814,0.695849 -0.0622,-0.01214 -0.18546,-0.229669 -0.33928,-0.598971 l -0.24151,-0.57988 -0.53235,-0.01667 -0.53236,-0.01667 v 1.364885 1.364879 h 0.45212 0.4521 l 0.14579,-0.449289 c 0.0971,-0.299383 0.17845,-0.455578 0.24373,-0.468147 0.089,-0.01714 0.098,0.07482 0.098,1.000164 0,1.202342 -0.0598,1.304302 -0.32607,0.555129 l -0.16482,-0.463899 h -0.4504 -0.4504 v 1.391697 1.391703 l 0.62337,-3.66e-4 0.62336,-3.61e-4 0.23195,-0.651312 c 0.16307,-0.457885 0.26209,-0.657089 0.33343,-0.670744 0.0925,-0.01774 0.10149,0.04794 0.10149,0.738656 v 0.758086 h -1.65265 c -1.43035,0 -1.65264,-0.01167 -1.65264,-0.08698 z m 7.82831,-0.05801 c 0,-0.06575 0.0708,-0.08698 0.28993,-0.08698 h 0.28994 v -2.841385 -2.841378 h -0.29419 c -0.24897,0 -0.29119,-0.0156 -0.27465,-0.101479 0.0177,-0.0916 0.10975,-0.101479 0.94575,-0.101479 0.836,0 0.92812,0.0099 0.94576,0.101479 0.0164,0.0847 -0.0242,0.101479 -0.24565,0.101479 h -0.2652 v 1.333706 1.333713 h 0.84081 0.84083 V 11.68861 10.354904 h -0.26096 c -0.22334,0 -0.26093,-0.01694 -0.26093,-0.117415 0,-0.113721 0.0296,-0.116909 0.94155,-0.101479 0.84324,0.01427 0.9436,0.02654 0.96105,0.117415 0.0165,0.08587 -0.0258,0.101479 -0.2747,0.101479 h -0.29419 v 2.841378 2.841384 h 0.28993 c 0.21907,0 0.28994,0.02127 0.28994,0.08698 0,0.0738 -0.14497,0.08698 -0.95679,0.08698 -0.81183,0 -0.95679,-0.0132 -0.95679,-0.08698 0,-0.06441 0.0676,-0.08698 0.26093,-0.08698 h 0.26096 v -1.420689 -1.420695 h -0.84083 -0.84081 v 1.420695 1.420689 h 0.26094 c 0.1933,0 0.26095,0.02253 0.26095,0.08698 0,0.0738 -0.14498,0.08698 -0.9568,0.08698 -0.81182,0 -0.95678,-0.0132 -0.95678,-0.08698 z m 4.63898,0 c 0,-0.05634 0.0564,-0.08698 0.16005,-0.08698 h 0.16007 l 0.61594,-2.728584 c 0.48631,-2.154278 0.60636,-2.771118 0.57037,-2.930701 l -0.0456,-0.202124 0.44313,0.0168 0.44313,0.0168 0.63883,2.899369 0.63884,2.899374 0.15918,0.01834 c 0.091,0.01047 0.1592,0.05394 0.1592,0.101483 0,0.06836 -0.1494,0.08313 -0.84082,0.08313 -0.70873,0 -0.84082,-0.01367 -0.84082,-0.08699 0,-0.06282 0.0644,-0.08698 0.23195,-0.08698 0.1447,0 0.23195,-0.02681 0.23195,-0.07121 0,-0.03914 -0.0847,-0.456678 -0.18834,-0.927797 l -0.18834,-0.856585 h -0.67243 -0.67243 l -0.20178,0.913302 -0.20178,0.913302 0.33771,0.01727 c 0.24867,0.01274 0.3377,0.03947 0.3377,0.101483 0,0.06852 -0.11884,0.08421 -0.63785,0.08421 -0.52833,0 -0.63787,-0.01493 -0.63787,-0.08697 z m 2.17754,-2.710908 c -0.0713,-0.326907 -0.20512,-0.940119 -0.2972,-1.362704 -0.0921,-0.422585 -0.18099,-0.768335 -0.19757,-0.768335 -0.0166,0 -0.15768,0.5806 -0.31355,1.290225 -0.15586,0.709617 -0.29565,1.322837 -0.31062,1.362698 -0.0207,0.05522 0.1245,0.07249 0.61074,0.07249 h 0.63796 z m 1.99756,2.710908 c 0,-0.06441 0.0676,-0.08698 0.26094,-0.08698 h 0.26094 v -2.841385 -2.841378 h -0.2652 c -0.22153,0 -0.2619,-0.01674 -0.24517,-0.101479 0.0182,-0.09274 0.1172,-0.100945 1.14951,-0.09528 1.04047,0.006 1.15367,0.01667 1.43643,0.138699 0.5817,0.25108 0.86657,0.766822 0.81037,1.467077 -0.0498,0.620828 -0.39742,1.103438 -0.94421,1.310996 -0.25903,0.09832 -0.27016,0.110214 -0.14025,0.149808 0.21395,0.06521 0.50612,0.303982 0.66415,0.542787 0.0861,0.130096 0.24426,0.608993 0.40363,1.222079 0.14413,0.554481 0.26206,1.017134 0.26206,1.028116 0,0.011 0.10438,0.01993 0.23195,0.01993 0.16753,0 0.23195,0.02414 0.23195,0.08698 0,0.07227 -0.11275,0.08698 -0.66685,0.08698 -0.36678,0 -0.66685,-0.01067 -0.66685,-0.02373 0,-0.201484 -0.55021,-2.359315 -0.64423,-2.52662 -0.12982,-0.230976 -0.40045,-0.406994 -0.62577,-0.406994 -0.12023,0 -0.12171,0.01681 -0.12171,1.391703 v 1.391697 h 0.26095 c 0.19328,0 0.26094,0.02253 0.26094,0.08697 0,0.0738 -0.14497,0.08699 -0.95679,0.08699 -0.81182,0 -0.95679,-0.0132 -0.95679,-0.08699 z m 2.0747,-3.194557 c 0.27171,-0.178025 0.38976,-0.56285 0.38976,-1.270468 0,-0.531504 -0.02,-0.676537 -0.11996,-0.869813 -0.13942,-0.26961 -0.4186,-0.434687 -0.73535,-0.434814 l -0.21746,-9.3e-5 v 1.370586 1.370587 l 0.27168,-0.03727 c 0.14942,-0.02047 0.33452,-0.07841 0.41133,-0.128751 z m 2.10039,3.194557 c 0,-0.06575 0.0708,-0.08698 0.28994,-0.08698 h 0.28994 v -2.841385 -2.841378 h -0.2942 c -0.24896,0 -0.29118,-0.0156 -0.27464,-0.101479 0.018,-0.0936 0.13878,-0.101479 1.55542,-0.101479 h 1.53587 l 0.0164,0.714946 c 0.0147,0.644532 0.006,0.713071 -0.0815,0.695848 -0.0622,-0.01214 -0.18545,-0.229669 -0.33927,-0.59897 l -0.24151,-0.579874 -0.53235,-0.01667 -0.53236,-0.01667 v 1.364878 1.364879 h 0.45211 0.45211 l 0.14577,-0.449283 c 0.0971,-0.299388 0.17847,-0.455577 0.24375,-0.468153 0.0889,-0.01714 0.098,0.07482 0.098,1.000165 0,1.202342 -0.0599,1.304301 -0.32607,0.555136 l -0.16483,-0.463899 h -0.45039 -0.4504 v 1.391697 1.391696 l 0.62336,-3.59e-4 0.62336,-3.68e-4 0.23196,-0.651312 c 0.16306,-0.457878 0.26209,-0.657082 0.33343,-0.670744 0.0925,-0.01774 0.10148,0.04795 0.10148,0.738656 v 0.758094 h -1.65265 c -1.43035,0 -1.65263,-0.01167 -1.65263,-0.08699 z"
       id="path1" /></g></svg>
