<?xml version="1.0" encoding="UTF-8"?>
    <svg width="900" height="865" version="1.1" viewBox="0 0 238.12 228.86" xml:space="preserve" xmlns="http://www.w3.org/2000/svg" xmlns:xlink="http://www.w3.org/1999/xlink">
        <defs>
            <linearGradient id="a" x1="125.12" x2="116.81" y1="235.33" y2="-2.6528" gradientTransform="translate(-1.9049 -1.9049)" gradientUnits="userSpaceOnUse">
                <stop style="stop-color:#3193bc" offset="0" />
                <stop style="stop-color:#04a5ec" offset=".28431" />
                <stop style="stop-color:#89d0fe" offset=".70811" />
                <stop style="stop-color:#cbecff" offset="1" />
            </linearGradient>
        </defs>
        <path d="m0 0h238.12v228.86h-238.12z" style="fill-rule:evenodd;fill:url(#a);stroke-width:.26458" />
        <path d="m99.56 196.51-1.7594 0.0702-2.2848-0.5561-2.2848-0.55616-2.3138-0.25168-2.3138-0.25174h-2.2689l-1.9355-0.45839-1.9355-0.45827-5.2264-0.40366-0.45065-0.40785-0.45065-0.40779-1.7732-0.0374-15.057 0.79335-0.23502 0.14524-0.23502 0.14519 0.1606-1.4889 0.1606-1.4888 0.8053-8.7789 0.8053-8.7788 0.11268-1.0972 0.11268-1.0973 0.48703-6.0418 0.80659-7.5523 0.80659-7.5523 0.91206-8.3656 0.23698-3.0209 0.23697-3.0209 0.01004-4.5314 0.01004-4.5314-0.14502-35.722-0.14502-35.722 0.26542-1.9945 0.26542-1.9945 1.4146-5.6662 1.6847-3.4857 0.88115-0.9569 0.88115-0.95689 1.9726-1.3382 0.11619-0.11684 0.11619-0.11685 0.92951-0.55371 4.0103-2.351h0.52106v-0.39425l1.8116-0.71162 0.7126-1.1017-0.50688-4.299-0.50688-4.299 0.13813-3.1371 0.13813-3.1371 0.65378-1.3943 0.65378-1.3943 1.4011-1.7948 1.4852-1.5747h0.48734l0.07745-0.17428 0.07745-0.17429 0.98675-0.64177 0.98675-0.64176 1.3278-0.34585 1.3278-0.34584 3.2718 4e-3 2.3172 0.70285 0.81969 0.54244 0.81969 0.54245 0.92342 0.29584 1.3943 1.197 1.1619 1.054 1.3943 1.5918 0.58095 1.0428 0.58094 1.0428-0.0551 4.2871-0.0551 4.2871 0.3635 0.2562 0.52508 0.90606 0.52507 0.90605-0.27236 1.1854-0.27235 1.1853-0.86229 1.6266-0.6774 1.3943-0.67742 1.3943-0.24417 0.69714-0.24416 0.69714-0.15735 1.0457-0.15735 1.0457-0.21953 0.41778-0.21952 0.41779-0.60624 0.2305-0.60624 0.23048-1.2387 0.0148-1.2387 0.0147v0.34032l3.3695 5.1017 0.34019 0.68253 0.34019 0.68254 0.38216 0.58094 0.38215 0.58095 0.48948 1.3231 0.48947 1.3231 0.079 1.769 0.0994 0.48047 0.0994 0.48048 0.68302-0.10025 0.68302-0.10024 1.161 0.76072v1.7916l-0.32819 0.78361-0.32819 0.7836-2.3645 2.6994v0.39969l0.14106 0.36757 0.14105 0.36758h2.0311l3.1368-1.1807 4.8909-2.835 0.34856-0.29783 0.34858-0.29783 1.2274-0.30625 0.16951 0.27429 0.16953 0.2743-2.5228 2.6262-2.0901 2.5562-1.121 1.6266-0.48005 0.5041-2.0914 2.9065-0.99083 1.0736-0.99085 1.0736 0.073 0.21898 0.0729 0.21899 4.3919 1.5011 2.7885 1.0313 2.5562-0.1872 2.6432-1.2143 2.3964-1.8087 2.3964-1.8087 0.23238-0.28139 0.2324-0.28138 3.1617-2.3655h0.62281l0.14458 0.37677 0.14458 0.37678-0.59129 1.2499-0.59128 1.2499h-0.40142l-0.13717 0.35745-0.13718 0.35746 0.59409 1.0949 0.59409 1.0949 0.81871 1.0024 0.56122 0.0473 0.56124 0.0474 2.1538-0.0514 0.12352-9.3532 0.12355-9.3532 0.33862-1.2995 0.33863-1.2995 1.3222-2.978 2.0172-3.1443 0.80022-0.8061 3.4549-3.6235-1.7558-1.6085-0.95834-0.46301-0.95832-0.46301h-1.3375l-0.89896-0.4811v-1.0886l0.34374-0.28528 0.34376-0.28529 0.70677-1.4168-2e-3 -1.0681-2e-3 -1.0681-0.3374-1.112-0.3374-1.112-0.18106-0.28227-0.18105-0.28228-0.27445-0.78284-0.27448-0.78284 0.10765-0.28053 0.10765-0.28052 2.0059-1.2679 0.13726-2.1369 0.13726-2.1369 0.65078-2.4287 0.67453-0.9872 0.67455-0.9872 2.0914-1.9833 3.5567-1.863h0.9473l0.12722-0.20585 0.12724-0.20585 4.5528-0.5802 3.8648 0.78312 1.8032 1.1383h0.23628l0.52552 0.40518 0.52551 0.40518 1.7472 1.7463 1.7472 1.7463 1.2694 2.681v3.2894l-1.1987 2.3866-0.17922 0.11853-0.17922 0.11851-1.3476 2.0532-2.327 3.7562-0.61432 1.2781-0.61434 1.2781-0.37166 0.84844-0.37168 0.84845v1.1268l1.0457 0.93427 2.7885 1.5528 4.4152 2.2976 2.7885 1.6589 3.7181 2.5539 6.739 6.7692 1.316 1.859 1.316 1.859 2.098 4.1828 0.8399 3.2533 0.21372 0.15204 0.21371 0.15207-0.13395 2.0672-0.13393 2.0672-0.49903 1.4814-0.49905 1.4814-0.78404 1.6522-0.78405 1.6522-0.82631 1.3861-0.82628 1.3861-0.2906 0.43706-0.29057 0.43707-1.3176 1.7705-1.3177 1.7705-1.7033 1.6335-1.7033 1.6335-4.1249 3.4549-3.0623 2.1085-0.16086 0.79257-0.16084 0.79256 0.22263 3.9712 0.22262 3.9712 0.044 7.5523 0.044 7.5523-0.54792 3.0209-0.54793 3.0209-0.19645 1.0457-0.19644 1.0457-0.27562 1.7428-0.27561 1.7429 8e-3 3.4857 8e-3 3.4857 1.0153 3.0209 0.40088 1.3943 1.3959 5.4283 0.47646 3.3277 0.47645 3.3277 0.47355 6.6228 0.47354 6.6228 0.34601 4.4152 0.34604 4.4152 0.35897 3.8697 0.35898 3.8697-0.59932 1.7854-0.59933 1.7854-0.70861 0.88177-0.70862 0.88177-0.90381 0.40757-0.90381 0.40756-3.3879-0.25134-3.8941-0.4072-3.8941-0.40723-0.1276 0.12761-0.12761 0.1276-0.0985 0.9902-0.0985 0.99022-0.13788 0.4344-0.13787 0.4344-1.1138 0.56447-1.1138 0.56438-6.7619 2.0993-4.5815 1.1687-4.5815 1.1686-4.2106 0.51193-0.9229-0.14753-0.9229-0.14765-3.7051-1.9536-0.33364-0.50925-0.33366-0.50923 0.2523-0.47138 0.25229-0.47142 4.757-1.442 2.7885-0.95224 2.7885-0.95214 1.0954-0.54301 1.0955-0.54296 0.21914-0.40946 0.21913-0.40946-0.095-0.57846-0.0951-0.57847-0.47363-6.158-0.47366-6.158-0.22372-2.9047-0.22374-2.9047-0.59433-9.7599-0.59435-9.7599-0.235-18.126-0.23501-18.126-0.31518-12.316-0.81332-1.5819v-2.6897l0.23239-0.14362 0.23236-0.14362v-0.90209h-0.40632l-0.98793 0.34857-0.98796 0.34856h-0.54987l-0.84744-0.61966 0.39833-0.60794 0.39836-0.60794 0.73618-0.25131 0.7362-0.2513 0.88228-0.66823-0.27845-0.33553-0.27848-0.33552 0.3497-0.83689 0.34968-0.83691 0.35904-0.13778 0.35906-0.13778v-2.6951l-0.47786-4.4951-0.47784-4.4951-0.0858-0.46475-0.0858-0.46476-0.0348-1.5214-1.5105 0.1666-0.52285 0.27074-0.52284 0.27073-0.4474 0.22351-0.4474 0.2235-3.5898 1.913-0.66088 0.66088h-0.36767l-0.80934 0.63904-0.80936 0.63904-1.5773 1.1619-4.4533 4.2243-1.5354 0.30707h-2.6996l-3.1915-0.67135-1.0337-0.35015-1.0337-0.35016-1.859-0.2712-0.63031 0.42272-0.31915 2.5272-0.31913 2.5272-0.97738 4.4152-0.72381 2.2076-0.7238 2.2076-0.16306 9.179-0.16306 9.179-0.26652 3.2533-0.26653 3.2533-0.43879 3.8342-0.43879 3.8342-0.3695 3.3695-0.3695 3.3695-0.36023 2.9047-0.36022 2.9047-0.46649 2.5562-0.4665 2.5562-0.32476 2.44-0.32476 2.44 0.014 34.515-0.12514 0.20247-0.12513 0.20247 0.28791 0.22698 0.28791 0.227 0.98755 0.15062 0.98755 0.1507 2.2077 0.74391 4.1828 2.0295 1.7315 1.4284 0.2635 0.87952 0.26351 0.8796-0.3677 0.71102-0.3677 0.71108-1.0936 0.52932-1.0936 0.52942zm61.425-117.27 0.25535-4e-3 2.2076-3.2369v-0.20308l2.0904-3.5358 0.46526-1.3811 0.46525-1.3811v-1.1232l-0.38847-1.2467-0.38846-1.2467-0.61733-0.73373v-0.54742l-1.1619-1.0103v-0.62788l-0.69714-0.26752v-0.56144l-2.2197-2.2062-2.033-1.3654h-0.42614l0.24898 0.81332 0.48337 3.0209 0.48338 3.0209 0.32685 3.3695 0.32687 3.3695 0.16175 3.5438 0.16176 3.5438zm-2.4945-52.824-0.15491 0.15491v-0.61967l0.15491 0.15492 0.15493 0.15492zm1.6267-3.021-0.15492 0.15492v-0.61968l0.30984 0.30984zm-0.73586-1.5492h-0.11619v-0.23237h0.23238v0.23237zm-24.632-4.6476h-0.11619v-0.23238h0.23237v0.23238zm-53.563-12.548h-0.30984l0.15492-0.15493 0.15492-0.15492 0.15492 0.15492 0.15492 0.15493zm1.5105 0h-0.11619v-0.23239h0.23238v0.23239zm1.859 0h-0.11619v-0.23239h0.23238v0.23239zm68.784 0h-0.11619v-0.23239h0.23239v0.23239zm1.6266 0h-0.11619v-0.23239h0.23238v0.23239z" style="fill:#fff;opacity:.4;stroke-width:.87828" />
        <path d="m82.66 163.26v0.77928h0.84801c1.0685 0 1.5144 0.55013 1.525 2.1265v40.741h-1.696v0.77928h6.8952v-0.77928h-1.3048v-22.375h4.6064v22.375h-1.3048v0.77928h6.9107v-0.77928h-1.6965v-40.741c-0.0299-1.6159 0.25005-2.0362 0.84853-2.126h1.049v-0.77928h-7.2812v0.50436h0.82166c0.30681-0.0212 0.65267 0.0951 0.65267 0.5395v19.081h-4.6064v-19.114c7e-3 -0.3516 0.0767-0.52348 0.69763-0.52348h0.90331v-0.48783h-4.7217zm25.077 15.038c-5.8997 1.4163-5.8962 11.812-5.8472 14.596 0.15625 2.6137 0.98107 15.163 5.8472 15.006 5.1986 0.0129 5.5158-11.572 5.6518-15.006 0.0449-2.7435-0.35953-13.36-5.6518-14.596zm41.013 0.61546-0.54674 0.30541c-2.6069 1.4578-3.852 8.0564-3.3652 17.837 0.34531 6.9379 1.4852 10.309 3.7786 11.177 3.8976 1.4755 6.596-2.9407 6.596-10.795v-1.263h-0.69866v1.3948c0 2.9881-0.38326 5.6422-1.0542 7.3024-1.0514 2.6016-3.6343 3.8149-4.2375 1.9906l-0.18139-0.54725v-12.536h6.3242l-0.0734-2.7833c-0.17693-6.7545-1.2129-10.246-3.4665-11.682l-0.62994-0.40101h-1.2227zm-11.632 5.2e-4c-1.937 0.0653-3.9309 1.7147-4.5904 4.4509-0.79481 3.2974-0.12617 5.6545 3.6463 12.865 3.2958 6.2988 3.7958 8.206 2.696 10.286-1.9616 3.7104-5.5309-1.664-5.5309-7.3644v-0.49868l-0.88625-0.0884v9.6681h0.32763c0.22043 0 0.5775-0.27799 1.0909-0.84852l0.76378-0.84853 0.45475 0.55707c0.5156 0.63135 1.0603 1.0772 1.5555 1.2712 0.18503 0.0727 0.72574 0.13561 1.2004 0.14056l0.86299 0.0103 0.863-0.40515c1.4591-0.68571 2.5142-1.9844 3.1833-3.9181l0.37878-1.093-5e-3 -1.5472c-0.0106-2.6292-0.60888-4.6964-2.2645-7.8083-4.971-9.3463-5.7203-12.094-3.7176-13.635 1.9487-1.4993 3.9689 3.7073 4.2246 7.5675 0.0357 0.50842 0.16814 1.0238 0.17932 1.0294h0.68264v-9.4516l-0.32297 3e-3c-0.23321 3e-3 -0.48341 0.23673-0.89194 0.83509l-0.56844 0.83148-0.20877-0.30748c-0.82072-1.208-1.9621-1.7389-3.1244-1.6996zm-18.415 0.11989-2.7326 5.2e-4v0.6072h1.2144v14.048c0 13.177 0.06 13.66 1.7735 14.173h5.2e-4c1.6695 0.49955 3.6258-0.0862 4.5501-1.3622l0.35656-0.49144v1.7368h5.3444v-0.6072h-1.2149v-28.104h-5.3444v0.6072h1.2273l-0.0403 14.167-0.0398 10.476-0.22324 0.69504c-0.41736 1.303-1.4103 2.0698-1.9064 1.4723l-0.16691-0.20102-0.0351-11.763-0.0351-15.454zm-10.965 0.046c2.6122 2.2777 2.1465 10.787 2.172 13.814 0.0108 12.872-1.5453 13.84-2.172 13.956-0.73739-0.0893-1.9922-3.9539-1.9642-13.956-0.11905-3.4228-0.17875-11.582 1.9642-13.814zm42.446 0.48886h5.2e-4c0.31996 8e-3 0.63295 0.19718 0.8077 0.58395l0.20412 0.45165 0.0336 6.2353 0.0336 6.2353h-2.221l7e-3 -6.0942c5e-3 -4.3345 0.0469-6.2366 0.14573-6.5862 0.15505-0.54841 0.57765-0.83612 0.98908-0.82579z" style="fill:#fff;stroke-width:.539" />
        <path d="m143.48 104.64-0.53795 0.25942-0.53743 0.25993-0.55346 0.50281-0.55397 0.50333-1.2867 1.8335-0.58188 1.1498-0.58136 1.1493-0.51211 1.2645-0.51263 1.2645-0.43822 1.3767-0.43873 1.3762-0.36845 1.494-0.36846 1.4934-0.27905 1.5281-0.27854 1.5281-0.16329 1.2645-0.16278 1.2645-0.24702 2.6293-0.09457 2.3523-0.09456 2.3518 0.09405 2.3807 0.09405 2.3807 0.12402 1.3193 0.12403 1.3193 0.16278 1.2645 0.16329 1.2645 0.27906 1.5394 0.27957 1.5394 0.3576 1.4485 0.35812 1.449 0.37 1.1844 0.36948 1.1844 0.32195 0.87488 0.32143 0.87488 0.51056 1.1291 0.51005 1.1291 0.92087 1.7208 0.62115 0.82475 0.62063 0.82476 0.46716 0.38344 0.46664 0.38344 0.5271 0.25166 0.52761 0.25218 1.7074-0.06408 0.79375-0.53898 0.79427-0.53899 0.81339-1.109 0.81287-1.109 1.4841-3.0789 0.58912-1.6495 0.58962-1.649 0.4036-1.4847 0.40307-1.4842 0.32246-1.5591 0.32195-1.5591 0.19999-1.3544 0.19998-1.355 0.12299-1.1544 0.12351-1.1544 0.0863-1.0997 0.08682-1.0997 0.04805-2.7487 0.04755-2.7492-0.09354-1.7043-0.09353-1.7043-0.12092-1.3193-0.12144-1.3193-0.27751-1.8779-0.27802-1.8774-0.63768-2.9518-0.31523-1.155-0.31574-1.1544-0.33642-1.0392-0.33693-1.0387-0.44596-1.1054-0.44597-1.1048-0.61237-1.2645-0.61236-1.2645-1.5358-2.0888-0.4749-0.38396-0.47543-0.38344-0.5271-0.24598-0.52709-0.24546-1.3668-0.00104zm20.743 0-0.53744 0.25942-0.53795 0.25993-0.55345 0.50281-0.55346 0.50333-0.64388 0.91674-0.64338 0.91674-0.58187 1.1498-0.58136 1.1493-1.0242 2.529-0.43873 1.3767-0.43822 1.3762-0.36897 1.494-0.36845 1.4934-0.27854 1.5281-0.27905 1.5281-0.1633 1.2645-0.16278 1.2645-0.1235 1.3146-0.12351 1.3146-0.09457 2.3523-0.09457 2.3518 0.09405 2.3807 0.09406 2.3807 0.24804 2.6386 0.16278 1.2645 0.1633 1.2645 0.27905 1.5394 0.27957 1.5394 0.3576 1.4485 0.35812 1.449 0.37 1.1844 0.37001 1.1844 0.32143 0.87488 0.32142 0.87488 0.51057 1.1291 0.51004 1.1291 0.46044 0.86041 0.46044 0.86042 0.62115 0.82475 0.62115 0.82476 0.46664 0.38344 0.46663 0.38344 0.52762 0.25166 0.5271 0.25218 1.7074-0.06408 0.79427-0.53898 0.79375-0.53899 0.81338-1.109 0.81287-1.109 1.4842-3.0789 0.58963-1.6495 0.58911-1.649 0.40359-1.4847 0.4036-1.4842 0.64388-3.1182 0.19999-1.3544 0.19999-1.355 0.12351-1.1544 0.12299-1.1544 0.08681-1.0997 0.08682-1.0997 0.04754-2.7487 0.04806-2.7492-0.09353-1.7043-0.09406-1.7043-0.12092-1.3193-0.12144-1.3193-0.2775-1.8779-0.27802-1.8774-0.31884-1.4759-0.31885-1.4759-0.31522-1.155-0.31575-1.1544-0.33641-1.0392-0.33641-1.0387-0.44649-1.1054-0.44596-1.1048-1.2247-2.529-1.5358-2.0888-0.47491-0.38396-0.4749-0.38344-0.52762-0.24598-0.5271-0.24546-1.3668-0.00104zm12.181 0.86093v0.7767 0.7767h1.2061 1.2061v24.52 24.519h-1.2061-1.2061v0.7767 0.77669l4.8845-0.04495 4.8844-0.04548c3.834-1.1546 9.7808-5.8265 10.497-23.564 0.14814-3.6703 0.51444-24.882-10.578-28.406l-9.6883-0.08579zm-90.451 0.00259v0.77566 0.77515h1.2061 1.2056v24.52 24.52h-1.2056-1.2061v0.76946 0.76998h5.3868 5.3868v-0.76998-0.76946h-1.1658-1.1658v-11.829-11.828l0.74362 0.07235 0.74362 0.07183 0.4625 0.154 0.46199 0.15348 0.62632 0.43718 0.57464 0.91777 0.15761 0.6718 0.15813 0.67179 0.088884 0.60048 0.088883 0.60048 0.075965 1.7089 0.076481 1.7084 0.083716 4.7832 0.083715 4.7827 0.078549 1.4294 0.078031 1.4294 0.079065 0.72295 0.079065 0.72244 0.35863 1.1937 0.27492 0.64802 0.27492 0.64803 0.28422 0.42994 0.28422 0.43047 0.35243 0.28215 0.35243 0.28216 0.91674 0.401 1.8495 0.00827 1.0304-0.33176 0.94981-0.69246 0.35295-0.53692 0.35295-0.53744 0.20568-0.59376 0.20567-0.59428 0.11782-0.63665 0.11834-0.63614 0.08061-0.76998 0.0801-0.76946 0.0031-1.402v-1.402h-0.59221-0.59221l-0.05478 1.8418-0.05426 1.8417-0.0832 0.87592-0.0832 0.87591-0.11833 0.38706-0.11834 0.38706-0.17054 0.24908-0.17104 0.24856h-0.25529-0.25476l-0.14469-0.21859-0.14418-0.21807-0.12041-0.57878-0.1204-0.57878-0.05892-6.3774-0.05839-6.3774-0.13539-1.1348-0.13539-1.1348-0.19948-0.95447-0.19947-0.95394-0.31781-0.91468-0.31781-0.91415-0.35915-0.62529-0.35915-0.62476-0.3452-0.38965-0.34571-0.38964-0.24857-0.23771-0.24856-0.23719-0.63562-0.43047-0.63614-0.42994-1.2867-0.57878-0.67541-0.19895-0.67541-0.19896 0.47439-0.14263 0.47491-0.14314 0.71055-0.37259 0.71055-0.37258 1.232-0.8785 0.69143-0.71055 0.69143-0.71107 0.45062-0.66559 0.45114-0.66611 0.36432-0.69815 0.36431-0.69815 0.31678-0.86765 0.31729-0.86764 0.19482-0.82424 0.19534-0.82476 0.11162-0.76998 0.11214-0.76946v-1.9792-1.9792l-0.11162-0.76946-0.1111-0.76998-0.23462-0.9896-0.23409-0.9896-0.32349-0.82424-0.3235-0.82476-0.43305-0.77618-0.43305-0.7767-0.93121-1.2123-0.49506-0.49765-0.49506-0.49816-0.71313-0.50333-0.71314-0.50384-0.62528-0.28732-0.62528-0.28681-0.73949-0.23564-0.73897-0.23513-5.4472-0.04082-5.4472-0.04031zm-13.173 0.01085-0.044959 0.30231-0.045475 0.3023-3.0158 22.005-3.0164 22.005-0.20257 0.95498-0.20206 0.95498-0.20826 0.68006-0.20826 0.68058-0.35708 0.73691-0.35708 0.73639-0.32349 0.35088-0.32401 0.35088-0.4563 0.25683-0.45682 0.25684-1.1457 0.00258-1.1457 0.0031v-24.519-24.52h1.1658 1.1658v-0.76946-0.76998h-5.1857-5.1862v0.76998 0.76946h1.0051 1.0051v11.38 11.38h-2.6531-2.6536v-11.38-11.38h1.0051 1.0051v-0.76946-0.76998h-5.2663-5.2663v0.76998 0.76946h1.2061 1.2061v24.52 24.519h-1.2061-1.2061v0.76998 0.76946h5.2663l5.2663-5.2e-4v-0.76997-0.76947h-1.0051-1.0051v-12.37-12.37h2.6531 2.6536v12.37 12.37h-1.0051-1.0051v0.76947 0.76997h9.0889 9.0889l-0.023772-0.79736-0.023771-0.79737-1.1514-0.14056-0.41858-0.19017-0.4191-0.19069-0.29714-0.40669-0.29766-0.40669-0.11524-0.54209-0.11472-0.54208 0.013436-1.1545 0.013952-1.1544 0.48886-4.0886 0.48886-4.0892v-0.06201-0.0615h3.4158 3.4153l0.040824 0.24701 0.041341 0.24753 0.72399 6.2244 0.7245 6.2239v0.0708 0.07079h-1.3265-1.3265v0.76947 0.76946h5.1454 5.1459v-0.76585-0.76584l-0.8599-0.03101-0.86041-0.03152-3.0344-23.86-3.0339-23.86-0.17777-1.402-0.17725-1.4015h-2.3136-2.3141zm32.711 5.2e-4v0.76998 0.76946h1.0036 1.0036l0.04237 0.24753 0.04238 0.24701 3.0939 25.18 3.0934 25.179 0.04806 0.30231 0.04754 0.3023h0.51056 0.51108l0.04031-0.19223 0.04031-0.19276 2.5022-17.098 2.5017-17.098 0.05787-0.19999 0.05788-0.19999 2.403 17.298 2.4035 17.298 0.03669 0.19276 0.03669 0.19223h0.49557 0.49558l2.9616-22.403 2.9616-22.403 0.2713-1.4671 0.27182-1.4666 0.31574-0.92139 0.31575-0.92087 0.40824-0.55811 0.40824-0.55862 0.4222-0.27027 0.4222-0.27078 0.30179-0.06821 0.30127-0.06873v-0.81029-0.8108h-3.8592-3.8592v0.81235 0.81184l0.6842 0.14056 0.40979 0.25941 0.40979 0.25994 0.30386 0.41547 0.30386 0.41497 0.21032 0.61443 0.21084 0.61443-5.1e-4 1.5942v1.5942l-1.4046 11.692-1.404 11.693-0.01964-0.0925-0.01963-0.0925-2.1776-15.173-2.1782-15.174-0.04134-0.19276-0.04186-0.19223h-0.8723-0.87229l-0.0801 0.52245-0.07958 0.52193-2.156 14.727-2.1554 14.727-1.7462-14.287-1.7461-14.286-0.00517-0.19276-0.00465-0.19223h1.2459 1.2464v-0.76946-0.76998h-5.0653-5.0653zm39.228 0.53433 0.36071 0.21808 0.36018 0.21807 0.24753 0.46767 0.24753 0.46716 0.15658 0.69194 0.15606 0.69143 0.24392 2.9239 0.10283 2.419 0.10284 2.419v14.899 14.899l-0.10542 2.529-0.10594 2.5285-0.11317 1.3198-0.11369 1.3193-0.12195 0.63562-0.12248 0.63562-0.15348 0.40876-0.15296 0.40927-0.18913 0.23461-0.18862 0.2341-0.24133 0.1633-0.24081 0.16329-0.36174 0.04806-0.36225 0.04703-0.38964-0.08062-0.38964-0.08113-0.30696-0.27802-0.30747-0.27802-0.24495-0.69143-0.24495-0.69194-0.11885-0.98961-0.11886-0.9896-0.0863-1.4294-0.08578-1.4294-0.08268-2.3637-0.08269-2.3642-0.04702-10.061-0.04651-10.061 0.09043-5.2224 0.08992-5.2229 0.08268-1.7596 0.08217-1.7591 0.11834-1.2785 0.11834-1.278 0.15916-0.70124 0.15916-0.70074 0.39998-0.80098 0.35812-0.2372 0.3576-0.23667 1.1312-0.00414zm20.743 0 0.3607 0.21808 0.36019 0.21807 0.24753 0.46767 0.24804 0.46716 0.15607 0.69194 0.15606 0.69143 0.12196 1.4619 0.12195 1.4619 0.10284 2.419 0.10283 2.419v14.899 14.899l-0.10542 2.529-0.10542 2.5285-0.11368 1.3198-0.11369 1.3193-0.12196 0.63562-0.12247 0.63562-0.15296 0.40876-0.15348 0.40927-0.18862 0.23461-0.18914 0.2341-0.24081 0.1633-0.24133 0.16329-0.36173 0.04806-0.36226 0.04703-0.38964-0.08062-0.38964-0.08113-0.30695-0.27802-0.30748-0.27802-0.24494-0.69143-0.24495-0.69194-0.11886-0.98961-0.11885-0.9896-0.1726-2.8587-0.08217-2.3637-0.08268-2.3642-0.04703-10.061-0.0465-10.061 0.09043-5.2224 0.08992-5.2229 0.08268-1.7596 0.08216-1.7591 0.11834-1.2785 0.11834-1.278 0.15917-0.70124 0.15916-0.70074 0.19999-0.40049 0.2005-0.40049 0.3576-0.2372 0.3576-0.23667 1.1312-0.00414zm-71.066 1.0526 1.1658 0.08062 0.5147 0.15813 0.51418 0.15761 0.47594 0.34726 0.47646 0.34727 0.31316 0.48679 0.31316 0.48628 0.17105 0.62115 0.17105 0.62063 0.14676 1.0449 0.14676 1.0444 0.083716 1.3746 0.083716 1.3746 0.05116 2.144 0.050642 2.1441-0.088366 2.3968-0.088367 2.3973-0.11834 1.1519-0.11834 1.1514-0.12764 0.67386-0.12764 0.67437-0.1602 0.46509-0.15968 0.46509-0.27078 0.43305-0.27078 0.43253-0.47697 0.34727-0.47646 0.34726-0.51418 0.15606-0.5147 0.15555-0.58291 0.05995-0.58291 0.05994v-11.9-11.9zm90.532 0.06253h0.42943 0.42943l0.62115 0.21704 0.62064 0.21704 0.95291 0.69453 0.35657 0.52142 0.35656 0.5209 0.24908 0.67592 0.2496 0.67593 0.19896 1.0149 0.19843 1.0149 0.12041 1.2092 0.1204 1.2097 0.08889 1.5942 0.0894 1.5942 0.04031 10.979 0.0403 10.978-0.09095 3.3104-0.09146 3.3099-0.07959 1.1054-0.07906 1.1048-0.16278 1.1875-0.16227 1.188-0.20773 0.79117-0.20774 0.79168-0.19792 0.46561-0.19793 0.4656-0.41186 0.50591-0.41134 0.50592-0.39326 0.27285-0.39326 0.27233-0.60823 0.21291-0.60823 0.21239h-0.42943-0.42943v-24.409-24.41zm-111.87 8.1194 1.5131 12.681 1.5131 12.68 0.082682 0.49506h-3.1445-3.144v-0.1142-0.11421l1.5699-12.723 1.5704-12.723 0.039274-0.1819z" style="fill:#003b57;stroke-width:.35536" />
    </svg>