<?xml version="1.0" encoding="UTF-8" standalone="no"?>
<!-- Created with Inkscape (http://www.inkscape.org/) -->

<svg
   width="500"
   height="400"
   viewBox="0 0 132.29166 105.83334"
   version="1.1"
   id="svg1"
   xml:space="preserve"
   inkscape:version="1.4 (86a8ad7, 2024-10-11)"
   sodipodi:docname="herkey.svg"
   xmlns:inkscape="http://www.inkscape.org/namespaces/inkscape"
   xmlns:sodipodi="http://sodipodi.sourceforge.net/DTD/sodipodi-0.dtd"
   xmlns="http://www.w3.org/2000/svg"
   xmlns:svg="http://www.w3.org/2000/svg"><sodipodi:namedview
     id="namedview1"
     pagecolor="#ffffff"
     bordercolor="#111111"
     borderopacity="1"
     inkscape:showpageshadow="0"
     inkscape:pageopacity="0"
     inkscape:pagecheckerboard="1"
     inkscape:deskcolor="#d1d1d1"
     inkscape:document-units="px"
     inkscape:zoom="0.39286616"
     inkscape:cx="321.99261"
     inkscape:cy="771.25502"
     inkscape:window-width="1920"
     inkscape:window-height="1115"
     inkscape:window-x="-9"
     inkscape:window-y="-9"
     inkscape:window-maximized="1"
     inkscape:current-layer="layer1" /><defs
     id="defs1" /><g
     inkscape:label="Layer 1"
     inkscape:groupmode="layer"
     id="layer1"
     transform="matrix(0.6955976,0,0,0.6955976,-13.594795,-200.8856)"><path
       id="path1"
       style="fill:#000000"
       d="m 114.06487,318.35377 c -0.17408,0 -0.86211,0.46174 -1.73219,1.16221 -0.10233,0.0824 -1.31652,0.96548 -2.69803,1.96267 -1.3815,0.99718 -3.05606,2.21217 -3.72122,2.70009 -3.75423,2.75388 -8.53328,6.21815 -8.952423,6.48901 -0.266222,0.17203 -0.600831,0.42347 -0.743107,0.55862 -0.142275,0.13514 -0.60301,0.46949 -1.024227,0.74311 -0.421216,0.27362 -1.760959,1.23968 -2.97708,2.14716 -1.216121,0.90748 -3.341722,2.46136 -4.723225,3.45301 -1.381503,0.99164 -3.307157,2.39222 -4.279326,3.11196 -0.972169,0.71975 -2.124991,1.55655 -2.562117,1.85983 -0.437125,0.30328 -0.897485,0.64102 -1.023194,0.75035 -0.12571,0.10933 -0.622553,0.4667 -1.103808,0.79426 -0.952136,0.64807 -4.816345,3.45208 -9.416997,6.83369 -1.605072,1.17977 -3.337192,2.43331 -3.84886,2.78536 -1.743416,1.19953 -2.69751,1.9371 -2.69751,2.08515 0,0.0813 4.173486,0.14779 9.274369,0.14779 h 9.27437 l 1.935799,-1.46709 1.935799,-1.4671 0.09353,2.72335 c 0.05159,1.49769 0.116931,6.61599 0.145211,11.3745 0.04291,7.2209 0.0032,8.91354 -0.240295,10.23349 -0.766977,4.15849 -2.498501,6.51443 -5.554183,7.55561 -0.47482,0.16179 -0.863418,0.39072 -0.863514,0.50901 -1.29e-4,0.1604 0.93367,0.17805 3.674712,0.0687 2.021184,-0.0806 7.588794,-0.0961 12.372888,-0.0341 4.784094,0.062 8.697118,0.0444 8.696118,-0.0393 -0.001,-0.0837 -0.58383,-0.38805 -1.29502,-0.67593 -2.422203,-0.98047 -4.01924,-2.94894 -4.857067,-5.98826 -0.363189,-1.31751 -0.427007,-2.16173 -0.556039,-7.34943 -0.08017,-3.22351 -0.15198,-10.55737 -0.15968,-16.29719 l -0.01395,-10.43606 0.610299,-0.54157 c 0.335636,-0.29786 1.026174,-0.83186 1.53479,-1.187 0.508616,-0.35514 1.008709,-0.71062 1.111043,-0.78962 1.753584,-1.35313 2.292124,-1.75832 2.544544,-1.9141 0.16581,-0.10233 1.33588,-0.9645 2.59985,-1.91616 1.26398,-0.95166 2.46546,-1.85505 2.67012,-2.00763 0.20467,-0.15259 1.77091,-1.32069 3.48041,-2.5957 l 3.10782,-2.31821 2.10168,1.57717 c 1.15584,0.8676 2.18774,1.64902 2.29288,1.73632 0.10514,0.0873 1.40251,1.04663 2.88354,2.13166 1.48103,1.08502 3.00042,2.20834 3.37603,2.49648 0.37561,0.28814 2.36755,1.77123 4.4266,3.29541 l 3.74344,2.77089 -0.0615,16.02125 -0.0615,16.02072 -0.47026,1.60921 c -0.46393,1.58772 -1.24573,3.09746 -2.13888,4.12946 -0.57356,0.66274 -2.35359,1.74528 -3.27991,1.99471 -0.38579,0.10388 -0.70125,0.24811 -0.70125,0.32091 1e-5,0.0729 5.52587,0.13711 12.27988,0.14211 6.75401,0.005 12.27987,-0.0599 12.27987,-0.14521 0,-0.0853 -0.14648,-0.19975 -0.32557,-0.25425 -2.81435,-0.85694 -4.78085,-3.13235 -5.69422,-6.58771 -0.3442,-1.30209 -0.37347,-2.15332 -0.43977,-12.72584 -0.0391,-6.23184 -0.0254,-11.44998 0.0305,-11.59567 0.0762,-0.19868 0.43635,-0.0286 1.44074,0.67903 l 1.33945,0.94309 h 9.26714 c 5.09687,0 9.26662,-0.0638 9.26662,-0.14211 0,-0.0783 -1.3183,-1.08274 -2.93006,-2.2319 -2.84256,-2.02672 -9.62463,-6.94745 -10.00094,-7.25641 -0.10233,-0.084 -0.60455,-0.43727 -1.11621,-0.78445 -0.51167,-0.34718 -0.97251,-0.68409 -1.02371,-0.74879 -0.0512,-0.0647 -0.51152,-0.39948 -1.02319,-0.74414 -0.51166,-0.34466 -0.972,-0.67836 -1.0232,-0.74156 -0.0512,-0.0632 -0.51152,-0.40364 -1.02319,-0.75654 -0.51166,-0.3529 -0.97251,-0.68817 -1.02371,-0.74517 -0.0512,-0.057 -0.72078,-0.54319 -1.48828,-1.08056 -0.7675,-0.53736 -1.77244,-1.25989 -2.23294,-1.60558 -0.4605,-0.34569 -1.17197,-0.86393 -1.5813,-1.15135 -0.61926,-0.43481 -2.02503,-1.47565 -2.79104,-2.06654 -0.10233,-0.0789 -0.60455,-0.43396 -1.11621,-0.7891 -0.51167,-0.35513 -0.972,-0.69296 -1.0232,-0.75086 -0.0512,-0.0579 -0.51205,-0.38762 -1.02371,-0.73277 -0.51167,-0.34514 -1.22314,-0.84853 -1.5813,-1.11828 -0.91966,-0.69263 -3.04113,-2.26369 -3.56205,-2.63808 -0.2411,-0.17328 -1.05996,-0.75971 -1.81953,-1.30277 -0.75958,-0.54306 -1.80585,-1.3007 -2.32544,-1.68413 -0.51959,-0.38343 -1.15442,-0.84324 -1.41025,-1.02164 -0.6542,-0.45619 -2.07684,-1.511 -2.46703,-1.82883 -0.18025,-0.14682 -0.36545,-0.26665 -0.41135,-0.26665 -0.0459,0 -0.78708,-0.52366 -1.64744,-1.16324 -4.59821,-3.41824 -5.73934,-4.23282 -5.92884,-4.23282 z m -0.89555,29.8633 -3.29231,0.008 -3.2923,0.008 0.0248,3.24786 c 0.0139,1.78631 0.0307,3.26877 0.0367,3.29437 v 5.2e-4 c 0.006,0.0256 1.47666,0.0465 3.2675,0.0465 h 3.25614 v -3.30264 z m 1.9544,0.18551 -0.0517,2.87631 c -0.0284,1.58187 -0.009,2.98656 0.0424,3.12126 0.0736,0.19187 0.76953,0.23379 3.21479,0.19379 l 3.12074,-0.0512 v -3.0701 -3.0701 h -3.16311 z m 6.41977,8.1871 -3.25665,0.0548 -3.25614,0.0548 v 3.21685 c 0,1.76922 0.0349,3.25126 0.0775,3.29386 0.0426,0.0426 1.50793,0.0775 3.25613,0.0775 h 3.17862 v -3.34863 z m -14.90349,0.0641 -0.0377,3.2706 c -0.0207,1.79872 0.0267,3.291 0.1049,3.3166 0.0782,0.0256 1.53517,0.0371 3.23753,0.0253 l 3.0949,-0.0217 v -3.2954 -3.29541 h -3.1998 z m -33.193837,32.40319 c -1.792279,0 -1.953886,0.029 -1.953886,0.35192 0,0.22119 0.174435,0.39615 0.469739,0.47025 0.258437,0.0649 0.63561,0.28317 0.837675,0.48524 0.354159,0.35416 0.367419,0.64885 0.367419,8.1902 v 7.8233 l -0.456819,0.4563 c -0.251183,0.25119 -0.585989,0.45682 -0.744141,0.45682 -0.163509,0 -0.287838,0.16047 -0.287838,0.37207 0,0.35442 0.124195,0.37207 2.605009,0.37207 2.431052,0 2.605009,-0.0235 2.605009,-0.35192 0,-0.22265 -0.175468,-0.396 -0.47749,-0.4718 -0.758608,-0.1904 -1.011308,-1.07471 -1.011308,-3.54242 v -2.14561 h 0.709001 c 0.389775,0 0.844508,0.10464 1.010791,0.23255 0.5097,0.3921 3.308558,4.2801 3.430281,4.76508 0.07776,0.30983 0.01653,0.52779 -0.191719,0.68006 -0.168591,0.12328 -0.306958,0.36137 -0.306958,0.52917 0,0.26769 0.308151,0.30489 2.511991,0.30489 2.339798,0 2.511991,-0.0241 2.511991,-0.35192 0,-0.22119 -0.174951,-0.39563 -0.470255,-0.46973 -0.662883,-0.16638 -1.565154,-1.13888 -3.802352,-4.0964 l -1.947168,-2.57348 1.97404,-1.911 c 1.279969,-1.23881 2.308313,-2.06424 2.923852,-2.34662 1.62909,-0.74736 1.296071,-0.90279 -1.934249,-0.90279 -2.28587,0 -2.884061,0.0515 -2.884061,0.24908 0,0.13707 0.20211,0.3412 0.449068,0.45372 1.014907,0.46242 0.784539,1.29052 -0.817521,2.93884 -1.151399,1.18464 -1.787133,1.56786 -2.599325,1.56786 h -0.567407 v -5.76761 -5.76812 z m -41.585059,0.74466 c -2.613559,0 -2.790527,0.0223 -2.790527,0.35191 0,0.21977 0.173524,0.39518 0.462504,0.46768 0.254539,0.0639 0.610271,0.34168 0.790649,0.61701 0.299211,0.45673 0.328146,1.14306 0.328146,7.82795 v 7.32668 l -0.521932,0.44907 c -0.287124,0.24696 -0.642856,0.44907 -0.79065,0.44907 -0.147794,0 -0.268717,0.1674 -0.268717,0.37207 0,0.35562 0.123652,0.37207 2.790527,0.37207 2.666874,0 2.791044,-0.0165 2.791044,-0.37207 0,-0.20467 -0.120923,-0.37207 -0.268717,-0.37207 -0.147794,0 -0.503525,-0.2021 -0.790649,-0.44907 l -0.521932,-0.44907 -0.06615,-3.64422 -0.06666,-3.64422 h 3.834391 3.833875 v 3.21066 c 0,1.76593 -0.08084,3.49203 -0.179317,3.83542 -0.19447,0.67808 -0.655784,1.12582 -1.169955,1.13482 -0.199593,0.004 -0.325561,0.14964 -0.325561,0.37775 0,0.35562 0.124169,0.37207 2.791044,0.37207 2.666874,0 2.791044,-0.0165 2.791044,-0.37207 0,-0.2116 -0.12433,-0.37207 -0.287838,-0.37207 -0.158152,0 -0.492957,-0.20563 -0.74414,-0.45682 l -0.45682,-0.4563 v -7.4595 -7.45949 l 0.45682,-0.45682 c 0.251183,-0.25118 0.585988,-0.4563 0.74414,-0.4563 0.163508,0 0.287838,-0.16047 0.287838,-0.37207 0,-0.35562 -0.12417,-0.37207 -2.791044,-0.37207 -2.666875,0 -2.791044,0.0165 -2.791044,0.37207 0,0.20467 0.120923,0.37207 0.268717,0.37207 0.147793,0 0.504042,0.20175 0.791166,0.44855 l 0.521932,0.44855 0.06201,3.27267 0.06149,3.27267 H 36.788444 32.9401 l 0.06511,-3.12488 c 0.07122,-3.40942 0.237622,-4.00448 1.184423,-4.24211 0.28898,-0.0725 0.462504,-0.24791 0.462504,-0.46768 0,-0.32955 -0.177486,-0.35191 -2.791044,-0.35191 z m 89.867896,0 c -2.65793,0 -2.79104,0.0174 -2.79104,0.36845 0,0.23888 0.16493,0.40988 0.46922,0.48628 1.01599,0.2551 1.01906,0.27625 1.01906,8.31163 v 7.40989 l -0.4563,0.4563 c -0.25118,0.25119 -0.5865,0.45682 -0.74466,0.45682 -0.1635,0 -0.28732,0.16047 -0.28732,0.37207 0,0.35562 0.12417,0.37207 2.79104,0.37207 2.66688,0 2.79105,-0.0165 2.79105,-0.37207 0,-0.20467 -0.12145,-0.37207 -0.26924,-0.37207 -0.14779,0 -0.50352,-0.20175 -0.79065,-0.44855 l -0.52193,-0.44855 -0.0605,-3.64474 -0.061,-3.64474 h 3.84576 3.84576 l -0.0754,3.58169 c -0.0413,1.96992 -0.14098,3.72558 -0.22118,3.90157 -0.0802,0.17599 -0.43036,0.42333 -0.77876,0.54932 -0.40097,0.14499 -0.63356,0.3519 -0.63356,0.56379 0,0.30744 0.22805,0.33435 2.79105,0.33435 2.66687,0 2.79052,-0.0165 2.79052,-0.37207 0,-0.2116 -0.12381,-0.37207 -0.28732,-0.37207 -0.15815,0 -0.49296,-0.20563 -0.74414,-0.45682 l -0.45682,-0.4563 v -7.4595 -7.45949 l 0.45682,-0.45682 c 0.25118,-0.25118 0.58599,-0.4563 0.74414,-0.4563 0.16351,0 0.28732,-0.16047 0.28732,-0.37207 0,-0.35562 -0.12365,-0.37207 -2.79052,-0.37207 -2.66688,0 -2.79105,0.0165 -2.79105,0.37207 0,0.20467 0.12092,0.37207 0.26872,0.37207 0.14779,0 0.50352,0.20165 0.79065,0.44855 l 0.52193,0.44907 0.0651,3.27215 0.0646,3.27267 h -3.85093 -3.85093 l 0.0646,-3.27267 0.0651,-3.27215 0.52193,-0.44907 c 0.28713,-0.2469 0.64286,-0.44855 0.79065,-0.44855 0.14779,0 0.26872,-0.1674 0.26872,-0.37207 0,-0.35562 -0.12365,-0.37207 -2.79053,-0.37207 z m -57.307092,5.37021 -1.53479,0.0372 c -1.874513,0.0452 -2.372465,0.14126 -2.372465,0.45889 0,0.13447 0.29372,0.34145 0.652673,0.45992 0.358953,0.11846 0.73561,0.37095 0.837158,0.56069 0.251083,0.46907 0.244982,9.39834 -0.0067,9.86864 -0.105367,0.19688 -0.440174,0.4867 -0.744141,0.64389 -0.303655,0.15703 -0.552429,0.40874 -0.552937,0.55966 v 5.2e-4 c 6.9e-4,0.22864 0.446582,0.27388 2.698026,0.27388 2.470135,0 2.698027,-0.0278 2.698027,-0.33331 0,-0.21586 -0.213903,-0.39694 -0.605131,-0.51212 -0.946031,-0.27851 -1.105906,-1.04151 -1.035596,-4.93665 0.05598,-3.10133 0.08226,-3.30382 0.507463,-3.92379 0.981546,-1.43114 2.414187,-1.86824 3.281453,-1.00097 0.251183,0.25118 0.456303,0.54414 0.456303,0.65112 0,0.10696 0.355731,0.1948 0.790649,0.19482 h 0.791167 v -1.48828 -1.48828 l -1.302763,0.004 c -1.630443,0.005 -2.497931,0.38188 -3.674195,1.59577 l -0.883667,0.91209 -5.16e-4,-1.26866 z m 107.799102,0.0248 c -1.05018,0.008 -2.04293,0.075 -2.44274,0.19482 -2.16956,0.65001 -3.2279,2.78249 -2.29185,4.61729 0.42383,0.83078 1.10546,1.30037 3.74085,2.57813 1.27033,0.61591 2.03671,1.10354 2.17817,1.38545 1.01214,2.01697 -0.76208,3.7615 -3.17294,3.11971 -0.9375,-0.24957 -1.35354,-0.5967 -1.82573,-1.52188 -0.30256,-0.59281 -0.44862,-0.69763 -0.96893,-0.69763 h -0.61236 l 0.0119,1.39113 0.0114,1.39165 0.93018,0.1819 c 0.51166,0.10023 1.13943,0.22133 1.39526,0.26923 0.25584,0.0479 1.21892,0.0632 2.13992,0.0336 3.17164,-0.10189 4.55838,-1.22735 4.55838,-3.699 0,-1.64652 -0.6164,-2.30463 -3.42201,-3.65249 -1.35485,-0.6509 -2.46572,-1.31259 -2.697,-1.60662 -0.42345,-0.53833 -0.51824,-1.54248 -0.20154,-2.13423 0.58399,-1.09121 3.06377,-1.25036 4.09485,-0.26252 0.31066,0.29763 0.61277,0.73223 0.67127,0.96532 0.0869,0.34629 0.23339,0.42374 0.80047,0.42374 h 0.69401 l -0.0419,-1.34927 -0.0419,-1.34875 -0.71882,-0.12713 c -0.631,-0.11147 -1.7388,-0.16091 -2.78898,-0.15244 z m -118.889898,5.1e-4 c -1.362213,0 -1.655408,0.0658 -2.691309,0.60462 -2.201712,1.14524 -3.061497,3.07744 -2.92747,6.57893 0.07153,1.86875 0.139921,2.21373 0.626835,3.16001 0.651246,1.26566 1.602969,2.08504 2.819466,2.42724 1.220371,0.3433 3.284278,0.22135 4.365109,-0.25786 0.478478,-0.21215 1.255404,-0.74139 1.726509,-1.17564 l 0.856796,-0.7891 -0.406177,-0.43253 -0.406177,-0.43202 -0.707967,0.63924 c -0.996543,0.90032 -2.536634,1.33046 -3.755843,1.04903 -0.502627,-0.11602 -1.144883,-0.37509 -1.427303,-0.57619 -0.681577,-0.48533 -1.261802,-1.88539 -1.419552,-3.42512 l -0.128157,-1.25057 4.213179,0.0563 4.21318,0.0568 v -0.84491 c -2.57e-4,-1.15459 -0.482159,-2.92205 -1.01906,-3.73724 -0.71287,-1.08235 -2.067134,-1.65107 -3.932059,-1.65107 z m 90.073058,0 c -1.55959,0 -1.81303,0.0528 -2.9006,0.60462 -2.19174,1.11209 -3.06136,3.05937 -2.92127,6.54327 0.0709,1.76264 0.1575,2.21756 0.5948,3.13314 0.58303,1.22067 1.37508,1.90866 2.7776,2.41122 2.17975,0.78106 5.34872,0.0677 6.63681,-1.49396 1.03175,-1.25084 1.37187,-2.46151 1.36787,-4.87206 -0.005,-3.24577 -0.72256,-4.76523 -2.72334,-5.76502 -1.00422,-0.50186 -1.30331,-0.56121 -2.83187,-0.56121 z m 41.15924,0 c -2.45529,0 -3.89282,0.79931 -4.92631,2.73834 -1.73342,3.25221 -0.86085,8.34615 1.65261,9.64592 0.28849,0.14918 0.84128,0.35094 1.22835,0.44804 1.09587,0.27503 3.1939,0.11814 4.146,-0.31006 0.4605,-0.2071 1.23927,-0.73414 1.73064,-1.17099 l 0.89349,-0.79427 -0.40721,-0.43356 -0.40721,-0.43357 -0.76016,0.65061 c -0.94104,0.8055 -2.45608,1.27795 -3.56568,1.11156 -1.77599,-0.26633 -2.81162,-1.63984 -3.0086,-3.98942 l -0.11317,-1.34876 4.21473,0.0594 4.21473,0.06 -5.2e-4,-0.57051 c -3.1e-4,-0.95298 -0.38595,-2.72802 -0.74414,-3.42408 -0.79493,-1.5448 -2.08055,-2.23863 -4.14755,-2.23863 z m -92.873399,0.014 c -1.699552,0.0161 -2.333162,0.20298 -3.512448,1.03714 -0.609094,0.43083 -0.994528,0.92307 -1.454174,1.85674 -0.616444,1.2521 -0.625285,1.30695 -0.625285,3.78633 0,2.42493 0.02007,2.55578 0.558105,3.62407 0.65202,1.2946 1.58362,2.10172 2.830835,2.45256 1.220371,0.3433 3.284278,0.22135 4.365109,-0.25786 0.478478,-0.21215 1.255404,-0.74139 1.726509,-1.17564 l 0.856795,-0.7891 -0.406176,-0.43253 -0.406177,-0.43202 -0.707967,0.63924 c -1.749014,1.58013 -4.728574,1.4877 -5.821867,-0.18087 -0.389153,-0.59393 -0.855245,-2.39642 -0.855245,-3.30677 v -0.71521 l 4.186308,0.0563 4.186824,0.0568 -0.0031,-0.74466 c -0.0017,-0.40933 -0.114603,-1.2168 -0.250631,-1.79472 -0.617317,-2.62272 -1.98998,-3.70518 -4.667415,-3.67988 z m 106.104119,0.015 c -0.29828,-0.001 -0.60238,0.002 -0.89659,0.009 -1.94452,0.0499 -2.21912,0.10133 -3.00757,0.56482 -1.14949,0.67573 -1.64382,1.49725 -1.64382,2.73058 0,1.78864 0.59622,2.41005 3.72122,3.8778 2.16977,1.0191 2.57031,1.36326 2.72955,2.34456 0.24314,1.49824 -0.72943,2.42569 -2.54352,2.42569 -1.36789,0 -2.13978,-0.43051 -2.64842,-1.47743 -0.35599,-0.73272 -0.47431,-0.82889 -1.01699,-0.82889 h -0.61391 v 1.38183 1.38235 l 0.97668,0.18965 c 0.53725,0.10432 1.14409,0.23125 1.34876,0.28215 v 5.2e-4 c 0.81036,0.20144 3.91824,-0.0288 4.69893,-0.3483 1.45188,-0.59416 2.25238,-2.10292 2.00195,-3.7729 -0.19436,-1.29605 -1.02261,-2.04415 -3.73156,-3.3693 -2.08532,-1.02009 -2.36785,-1.21554 -2.61741,-1.81281 -0.59767,-1.43043 0.2009,-2.51336 1.94665,-2.63963 1.35735,-0.0982 2.09532,0.25083 2.67478,1.26555 0.35785,0.62665 0.51668,0.74056 1.03559,0.74156 l 0.61288,10e-4 -0.0548,-1.34462 -0.0548,-1.3441 -0.83716,-0.15245 c -0.34537,-0.0629 -1.18566,-0.10343 -2.08049,-0.10697 z m -97.27623,0.1571 c -2.963435,0 -3.363362,0.13841 -2.243278,0.77566 0.730278,0.41547 0.953295,0.89877 3.180168,6.90604 l 1.91616,5.17023 -0.31522,0.66094 c -0.64738,1.35759 -1.60999,2.66596 -2.17765,2.95951 -0.73467,0.37991 -1.421433,0.22488 -1.698604,-0.38344 -0.151316,-0.3321 -0.356531,-0.45992 -0.73794,-0.45992 h -0.528649 v 1.39578 1.39526 h 1.309997 c 2.148076,0 3.182066,-0.76257 4.532026,-3.34243 0.34999,-0.66886 1.82343,-3.89543 3.27473,-7.1701 2.65122,-5.98214 3.22035,-7.03824 3.90777,-7.25641 0.20473,-0.065 0.37207,-0.23787 0.37207,-0.38447 0,-0.21816 -0.45581,-0.26665 -2.51199,-0.26665 -2.09433,0 -2.51199,0.0457 -2.51199,0.27543 0,0.15155 0.21151,0.32846 0.46974,0.39326 0.56559,0.14196 1.01906,0.7403 1.01906,1.34462 0,0.41747 -2.85866,7.59252 -3.14658,7.89771 -0.17236,0.18269 -2.8162,-7.41886 -2.8112,-8.08322 0.004,-0.51094 0.74355,-1.26969 1.23817,-1.26969 0.1397,0 0.25425,-0.12556 0.25425,-0.27906 0,-0.23569 -0.43427,-0.27905 -2.79104,-0.27905 z m 52.82726,0 c -1.44508,0 -1.8464,0.0556 -1.8464,0.25631 0,0.14109 0.258,0.36382 0.57361,0.49455 0.31561,0.13073 0.65044,0.43923 0.74414,0.68574 0.0937,0.24651 0.17053,2.1131 0.17053,4.14807 0,2.03497 0.0921,4.12921 0.20464,4.65398 0.24008,1.11949 1.05096,2.14284 1.90738,2.40709 1.5558,0.48005 3.58659,-0.13306 4.85345,-1.46554 0.80548,-0.84714 0.97892,-0.75064 0.88832,0.49506 l -0.078,1.0697 1.973,-0.0584 c 1.80698,-0.0536 1.97301,-0.0887 1.97301,-0.41858 0,-0.23878 -0.12802,-0.36018 -0.38034,-0.36018 -0.20932,0 -0.58648,-0.20563 -0.83767,-0.45682 l -0.45631,-0.4563 v -5.49734 -5.49734 h -1.86087 c -1.49862,0 -1.86035,0.0521 -1.86035,0.26872 0,0.14792 0.2275,0.37809 0.50592,0.51159 0.87388,0.41902 0.97678,0.88904 0.97978,4.4819 0.003,3.71695 -0.0992,4.15952 -1.17616,5.10512 -1.49458,1.31226 -3.21312,1.21177 -3.93774,-0.23048 -0.33704,-0.67086 -0.37815,-1.18362 -0.43305,-5.43895 l -0.0605,-4.6979 z m -100.18303,0.73742 c 0.408342,-0.008 0.827783,0.087 1.238167,0.29921 0.691483,0.35758 1.265369,1.56883 1.410767,2.97759 l 0.104386,1.00925 h -2.936255 -2.935738 l 0.111621,-0.94207 c 0.23416,-1.97711 1.548685,-3.31562 3.007052,-3.34398 z m 90.01828,0.005 c 0.47948,-0.0157 0.96865,0.0979 1.4366,0.34727 1.32503,0.70617 2.17283,3.32414 1.98128,6.119 -0.16682,2.43394 -1.11189,4.11849 -2.53163,4.5129 v 5.2e-4 c -0.75208,0.20883 -0.85072,0.2091 -1.51515,0.008 -0.90762,-0.27506 -1.46364,-0.79039 -1.97043,-1.82624 -0.44277,-0.90499 -0.51686,-1.31365 -0.58446,-3.20808 -0.0884,-2.47822 0.20289,-3.86645 1.01338,-4.82967 0.59965,-0.71264 1.37126,-1.09731 2.17041,-1.12345 z m 41.33959,5.2e-4 c 0.77757,0.0376 1.48223,0.43008 1.83038,1.16375 0.32934,0.69404 0.6741,2.06045 0.6811,2.69803 0.005,0.41664 -0.007,0.41858 -2.9807,0.41858 h -2.98535 l 0.12868,-0.69764 c 0.20947,-1.13644 0.61719,-2.14555 1.0573,-2.61689 0.64044,-0.6859 1.49103,-1.00341 2.26859,-0.96583 z m -93.08217,10e-4 c 1.535684,0 2.429628,1.07087 2.679939,3.20962 l 0.125057,1.06971 h -2.977079 -2.977079 l 0.175183,-0.97669 c 0.357404,-1.992 1.537735,-3.30264 2.973979,-3.30264 z m -17.628899,16.00109 c -0.777635,0 -1.014408,0.0656 -1.014408,0.27957 0,0.1535 0.12767,0.27905 0.283704,0.27905 0.52272,0 0.646989,0.93075 0.646989,4.8581 v 3.90364 l -0.465088,0.46509 c -0.255833,0.25584 -0.465605,0.50334 -0.465605,0.54984 0,0.0466 0.67013,0.0842 1.488798,0.0842 0.818669,0 1.488281,-0.0492 1.488281,-0.10955 0,-0.0603 -0.188328,-0.26227 -0.418579,-0.44856 -0.411583,-0.33302 -0.419343,-0.41889 -0.473873,-5.09994 l -0.05581,-4.76147 z m -23.899833,0.55862 c -1.528069,0 -1.765419,0.10927 -1.116211,0.5147 0.354172,0.22119 0.372071,0.43383 0.372071,4.41058 0,3.98782 -0.01691,4.18743 -0.372071,4.37751 -0.204667,0.10954 -0.37207,0.28009 -0.37207,0.37879 0,0.10031 0.656183,0.17932 1.488281,0.17932 1.482726,0 1.832893,-0.17483 1.116728,-0.55811 -0.337392,-0.18056 -0.37207,-0.38944 -0.37207,-2.23914 v -2.04018 h 1.953369 1.953886 v 2.04535 c 0,1.84359 -0.03713,2.06788 -0.372587,2.27738 -0.649207,0.40544 -0.411342,0.5147 1.116727,0.5147 1.482725,0 1.832376,-0.17483 1.116211,-0.55811 -0.355162,-0.19008 -0.37207,-0.38969 -0.37207,-4.37751 0,-3.97675 0.01789,-4.18939 0.37207,-4.41058 0.649208,-0.40543 0.411857,-0.5147 -1.116211,-0.5147 -1.528069,0 -1.765934,0.10927 -1.116727,0.5147 0.329663,0.20588 0.372587,0.43383 0.372587,1.99833 v 1.7663 h -1.953886 -1.953369 v -1.7663 c 0,-1.5645 0.04241,-1.79245 0.37207,-1.99833 0.649208,-0.40543 0.41134,-0.5147 -1.116728,-0.5147 z m 28.448393,0 c -0.525514,0.005 -0.538985,0.063 -0.538985,0.74414 0,0.72655 0.01542,0.74414 0.651123,0.74414 0.635704,0 0.651123,-0.0176 0.651123,-0.74414 0,-0.72654 -0.01541,-0.74414 -0.651123,-0.74414 -0.03973,0 -0.0771,-3e-4 -0.112138,0 z m 26.532749,0 c -1.48282,0 -2.03066,0.20405 -1.22938,0.45837 0.52073,0.16526 0.57267,0.58455 0.57567,4.61988 0.003,3.68215 0.003,3.68356 -0.4625,4.14858 -0.25529,0.25529 -0.46419,0.50258 -0.46509,0.54984 0.003,0.0465 0.71315,0.0842 1.5813,0.0842 0.9303,0 1.58181,-0.0766 1.58181,-0.18604 0,-0.10236 -0.0781,-0.18603 -0.17311,-0.18603 -0.095,0 -0.30428,-0.13168 -0.46509,-0.29249 -0.22838,-0.22842 -0.29249,-0.71655 -0.29249,-2.23242 v -1.94045 h 2.0469 2.04639 v 1.86914 c 0,1.7456 -0.0307,1.8998 -0.46509,2.33422 -0.25583,0.25584 -0.46508,0.50282 -0.46508,0.54932 0,0.0466 0.67012,0.0847 1.48879,0.0847 0.81867,0 1.48829,-0.0651 1.48829,-0.14469 0,-0.0796 -0.16741,-0.2883 -0.37208,-0.46354 -0.35072,-0.30029 -0.37207,-0.54879 -0.37207,-4.32067 0,-3.75405 0.023,-4.02483 0.37207,-4.37389 0.20467,-0.20467 0.37208,-0.41441 0.37208,-0.46561 0,-0.0511 -0.66962,-0.0925 -1.48829,-0.0925 -0.81867,0 -1.48879,0.0377 -1.48879,0.0842 0,0.0465 0.20925,0.29399 0.46508,0.54983 0.42355,0.42358 0.46509,0.60727 0.46509,2.05517 v 1.59009 h -2.0531 -2.05362 l 0.0532,-1.81436 c 0.0492,-1.6775 0.0847,-1.82798 0.47181,-1.99781 0.76434,-0.33534 0.43567,-0.46716 -1.16272,-0.46716 z m 39.91022,0 c -0.81867,0 -1.48879,0.0493 -1.48879,0.10956 0,0.0604 0.18884,0.26211 0.41909,0.44855 0.41063,0.33268 0.41858,0.41425 0.41858,4.37234 0,3.95808 -0.008,4.03966 -0.41858,4.37234 -0.23025,0.18644 -0.41909,0.38826 -0.41909,0.44856 0,0.0603 0.67012,0.10955 1.48879,0.10955 0.81867,0 1.48829,-0.0651 1.48829,-0.14469 0,-0.0796 -0.16741,-0.28779 -0.37208,-0.46303 -0.32832,-0.2811 -0.37207,-0.54906 -0.37207,-2.27427 v -1.95544 h 2.06344 2.06396 l -0.0636,1.97042 c -0.0573,1.77807 -0.10437,2.00329 -0.48214,2.3089 -0.23025,0.18627 -0.41858,0.38826 -0.41858,0.44856 0,0.0603 0.66961,0.10955 1.48828,0.10955 1.48272,0 1.8329,-0.17483 1.11673,-0.55811 -0.35512,-0.19008 -0.37207,-0.38969 -0.37207,-4.37751 0,-3.97675 0.0179,-4.18939 0.37207,-4.41058 0.64921,-0.40543 0.41134,-0.5147 -1.11673,-0.5147 -0.81867,0 -1.48828,0.0493 -1.48828,0.10956 0,0.0604 0.18833,0.26217 0.41858,0.44855 0.36788,0.29779 0.42659,0.54375 0.48369,2.02985 l 0.0651,1.69137 h -2.06551 -2.06499 v -1.7663 c 0,-1.5645 0.0424,-1.79245 0.37207,-1.99833 0.64921,-0.40543 0.41186,-0.5147 -1.11621,-0.5147 z m 18.42007,2.73885 -0.9555,0.11318 c -0.52554,0.0622 -0.99106,0.14873 -1.03456,0.19223 -0.0435,0.0435 0.13536,0.29348 0.39739,0.55552 0.46073,0.46074 0.47646,0.55339 0.47646,2.81895 0,2.25078 -0.0187,2.3612 -0.46561,2.8081 -0.25528,0.2553 -0.4642,0.50259 -0.46509,0.54984 0.003,0.0465 0.67182,0.0842 1.4888,0.0842 0.81867,0 1.48828,-0.0383 1.48828,-0.0847 0,-0.0465 -0.20924,-0.29348 -0.46508,-0.54932 -0.43305,-0.43302 -0.46509,-0.59144 -0.46509,-2.29288 0,-1.41787 0.0708,-1.93083 0.31677,-2.28772 0.45627,-0.66201 0.82802,-0.91374 1.35754,-0.91674 1.05278,-0.007 1.30277,0.59581 1.30277,3.144 0,1.83047 -0.0415,2.09616 -0.37207,2.37918 -0.20466,0.17524 -0.37259,0.38394 -0.37259,0.46354 0,0.0796 0.62828,0.14469 1.39578,0.14469 1.43915,0 1.6654,-0.11414 1.02319,-0.51521 -0.33803,-0.21107 -0.37207,-0.43344 -0.37207,-2.42828 0,-2.16352 0.008,-2.20399 0.52194,-2.69648 0.66464,-0.63673 1.56615,-0.676 1.9792,-0.0863 0.22234,0.31749 0.28991,0.92272 0.28991,2.60656 0,1.9629 -0.039,2.22682 -0.37207,2.51199 -0.20467,0.17524 -0.37207,0.38343 -0.37207,0.46303 0,0.0796 0.62776,0.14469 1.39526,0.14469 0.7675,0 1.39526,-0.0651 1.39526,-0.14469 0,-0.0796 -0.1674,-0.28779 -0.37207,-0.46303 -0.33542,-0.28723 -0.37207,-0.54908 -0.37207,-2.65565 0,-3.07198 -0.35891,-3.807 -1.86035,-3.807 -0.68432,0 -1.20897,0.24356 -1.88929,0.87747 -0.4904,0.45698 -0.49455,0.45733 -0.61805,0.0682 -0.1478,-0.4657 -1.00141,-0.94568 -1.68207,-0.94568 -0.59652,0 -1.13932,0.26833 -1.81126,0.89504 l -0.51159,0.47697 v -0.71158 z m -40.00324,0.005 -0.93431,0.0899 c -1.13483,0.10905 -1.30974,0.24914 -0.77567,0.62322 0.39941,0.27948 0.40773,0.37359 0.40773,4.54804 0,4.07188 -0.0166,4.27097 -0.37207,4.46123 -0.20467,0.10953 -0.37259,0.28009 -0.37259,0.37879 0,0.10031 0.6567,0.17931 1.4888,0.17931 0.81867,0 1.48828,-0.0742 1.48828,-0.16484 0,-0.0906 -0.20925,-0.3016 -0.46509,-0.46923 -0.41715,-0.27333 -0.46508,-0.42969 -0.46508,-1.5136 v -1.20819 l 0.51159,0.14004 c 0.28141,0.0772 0.96039,0.13044 1.50844,0.11834 1.21186,-0.0268 1.81218,-0.41624 2.41225,-1.56476 0.37213,-0.71226 0.42142,-1.03218 0.35812,-2.31511 -0.0842,-1.70752 -0.44037,-2.55529 -1.24902,-2.97346 -1.031,-0.53315 -2.01457,-0.33452 -3.02979,0.61237 l -0.51159,0.47697 v -0.70952 z m -44.748695,0.045 c -0.188689,-0.002 -0.432225,0.0388 -0.745691,0.0858 -0.767767,0.11514 -1.193544,0.4749 -0.562239,0.4749 0.507562,0 0.657841,0.7127 0.657841,3.12178 0,2.16589 -0.03655,2.43521 -0.37207,2.73885 -0.204668,0.18522 -0.372071,0.40752 -0.372071,0.49402 0,0.0864 0.627762,0.1571 1.395264,0.1571 1.439154,0 1.665405,-0.11363 1.023193,-0.5147 -0.347732,-0.21716 -0.37207,-0.43401 -0.37207,-3.30677 0,-2.70289 0.02173,-3.24541 -0.652157,-3.25097 z m 4.210596,0.002 c -0.714224,0 -1.697571,0.20364 -1.697571,0.3514 0,0.0653 0.188329,0.2013 0.418579,0.30231 0.402186,0.17645 0.420676,0.28763 0.470256,2.83238 0.04803,2.46526 0.02551,2.67131 -0.325562,2.97191 -0.207468,0.17764 -0.377238,0.38808 -0.377238,0.46768 0,0.0796 0.627762,0.14469 1.395264,0.14469 0.767501,0 1.395264,-0.0651 1.395264,-0.14469 0,-0.0796 -0.167404,-0.28779 -0.372071,-0.46303 -0.330582,-0.28306 -0.37207,-0.54921 -0.37207,-2.38176 0,-2.03186 0.0084,-2.07085 0.544153,-2.60656 0.657899,-0.6579 1.470899,-0.72064 1.985409,-0.15296 0.297025,0.32772 0.364248,0.74324 0.415478,2.56315 0.05645,2.00508 0.03151,2.19866 -0.325561,2.52181 -0.212709,0.1925 -0.38654,0.42044 -0.38654,0.50694 0,0.0864 0.627762,0.1571 1.395263,0.1571 1.425796,0 1.664766,-0.11447 1.045415,-0.50126 -0.306845,-0.19163 -0.360592,-0.52536 -0.434082,-2.69596 -0.05003,-1.47783 -0.18113,-2.67884 -0.325045,-2.97656 -0.503286,-1.04116 -2.055787,-1.15304 -3.259233,-0.23513 l -0.655257,0.49919 v -0.58032 c 0,-0.51507 -0.06001,-0.58033 -0.534851,-0.58033 z m 33.997929,0 c -2.30134,0 -3.69956,2.12361 -3.13418,4.75992 0.25079,1.1694 0.81745,1.88058 1.76682,2.21692 0.91268,0.32332 1.28108,0.3352 2.22415,0.0734 1.69268,-0.46994 2.59759,-2.37451 2.15077,-4.52686 -0.35368,-1.70363 -1.33046,-2.52336 -3.00756,-2.52336 z m 16.10651,0 c -2.32939,0 -3.75528,2.41211 -2.98742,5.05344 0.33366,1.14777 0.93,1.80638 1.82831,2.019 0.33926,0.0803 0.74257,0.15433 0.89607,0.16433 1.07696,0.0695 3.12093,-1.20295 2.66909,-1.6614 -0.16325,-0.16565 -0.34217,-0.12297 -0.75034,0.1788 -0.29481,0.21796 -0.82602,0.4426 -1.18081,0.4992 -1.28475,0.20498 -2.01653,-0.43658 -2.30322,-2.02004 l -0.1266,-0.69814 h 2.36058 2.36006 l -0.11059,-0.9338 c -0.20208,-1.70628 -1.11561,-2.60139 -2.65513,-2.60139 z m 44.06501,0.0109 c -1.03384,0.0307 -2.10879,0.55523 -2.65772,1.52446 -0.36452,0.64371 -0.4469,1.04994 -0.4439,2.18591 0.006,1.96154 0.63902,3.03497 1.97817,3.35225 0.33678,0.0798 0.73792,0.1533 0.89142,0.1633 1.07696,0.0695 3.12143,-1.20295 2.6696,-1.6614 -0.16326,-0.16565 -0.34217,-0.12297 -0.75034,0.1788 -0.29481,0.21796 -0.82602,0.4426 -1.1808,0.4992 -1.28475,0.20498 -2.01652,-0.43658 -2.30322,-2.02004 l -0.12661,-0.69814 h 2.36006 2.36058 l -0.1111,-0.9338 c -0.0608,-0.51371 -0.25698,-1.1824 -0.43615,-1.4857 -0.45763,-0.77471 -1.33779,-1.13192 -2.24999,-1.10484 z m -20.16415,0.006 c -1.09591,0.0137 -2.20001,0.5023 -2.72076,1.42886 -0.57471,1.02255 -0.70697,2.38605 -0.35037,3.6127 0.33193,1.14181 0.70229,1.55637 1.73323,1.93838 h 5.2e-4 c 1.3078,0.48425 3.01988,0.0151 3.80907,-1.04386 0.76681,-1.02849 0.76843,-3.78199 0.003,-4.8364 -0.54708,-0.75371 -1.50781,-1.11173 -2.47479,-1.09968 z m -95.289271,5.2e-4 c -0.470543,0.007 -0.780402,0.1117 -1.254704,0.37827 -2.378088,1.33656 -2.109877,6.08576 0.376721,6.6704 0.356696,0.0839 0.774092,0.16053 0.927592,0.17053 1.076959,0.0695 3.121442,-1.20295 2.669605,-1.6614 -0.163254,-0.16565 -0.342168,-0.12297 -0.750342,0.1788 -1.050244,0.77648 -2.538394,0.67557 -3.100586,-0.21032 -0.149018,-0.23481 -0.328425,-0.78258 -0.398425,-1.2175 l -0.127124,-0.79116 h 2.341976 c 2.64775,0 2.5524,0.0702 2.13837,-1.57407 -0.300614,-1.19384 -1.042853,-1.81715 -2.286682,-1.9203 -0.204571,-0.017 -0.379554,-0.0256 -0.536401,-0.0233 z m 7.564396,0.0145 c -0.665276,-8.3e-4 -1.428039,0.15801 -2.165242,0.48524 -0.721541,0.32028 -0.883667,0.47987 -0.883667,0.86817 0,0.40441 0.08348,0.47542 0.558105,0.47542 0.307001,0 0.558106,-0.0982 0.558106,-0.21808 0,-0.46391 0.623232,-0.89855 1.284676,-0.89555 0.367891,0.002 0.768353,0.0659 0.889868,0.14315 0.300125,0.19084 0.6165,1.06586 0.6165,1.70532 0,0.49927 -0.0521,0.53111 -1.070219,0.65732 -1.170132,0.14505 -2.179393,0.50669 -2.680457,0.96015 -0.811199,0.73412 -0.536079,2.33258 0.479557,2.78588 0.731926,0.32667 1.675897,0.1766 2.57297,-0.40876 l 0.698149,-0.45527 v 0.46767 c 0,0.44299 0.05414,0.46767 1.023193,0.46767 1.071081,0 1.257192,-0.13645 0.677995,-0.49816 -0.301704,-0.18842 -0.357653,-0.54383 -0.438733,-2.79828 -0.05107,-1.42018 -0.185564,-2.75486 -0.29869,-2.96623 -0.272736,-0.50961 -0.966756,-0.77459 -1.822111,-0.77566 z m 23.393404,0.0346 c -1.203957,0.008 -1.628,0.21274 -2.16886,0.79634 -0.645752,0.69678 -0.660374,2.41629 -0.02687,3.15278 l 0.430981,0.50126 -0.430981,0.43098 c -0.508238,0.50824 -0.603656,1.69571 -0.150379,1.86965 0.224832,0.0863 0.169534,0.23375 -0.279053,0.74466 -0.30774,0.3505 -0.559655,0.75487 -0.559655,0.89814 0,0.61947 0.411124,1.24987 0.975134,1.49499 0.357077,0.15519 1.245872,0.26679 2.162659,0.27079 2.381078,0.0111 3.374471,-0.69192 3.374471,-2.38797 0,-0.51495 -0.128702,-0.82355 -0.480074,-1.15393 -0.428534,-0.40294 -0.675742,-0.4578 -2.317172,-0.5147 -2.016689,-0.0699 -2.427281,-0.26561 -2.099613,-0.99994 0.158753,-0.35578 0.33215,-0.40434 1.468644,-0.41444 1.034009,-0.009 1.406707,-0.0962 1.888257,-0.43925 0.767338,-0.5466 1.110122,-1.66525 0.813387,-2.65566 -0.281495,-0.93956 -0.278169,-0.94678 0.395325,-0.88108 0.431315,0.0421 0.616041,-0.0253 0.659391,-0.23926 0.05139,-0.25363 -0.264994,-0.31521 -2.158008,-0.4222 -0.607832,-0.0344 -1.096264,-0.0538 -1.497583,-0.0512 z m 0.02946,0.49196 c 1.358377,0 1.894727,2.44317 0.736389,3.35432 v 5.2e-4 c -0.619754,0.48746 -1.081236,0.46182 -1.633492,-0.0904 -0.64478,-0.64477 -0.659314,-2.26517 -0.02584,-2.86029 0.236846,-0.2225 0.652105,-0.40411 0.922941,-0.40411 z m 64.210551,0 c 0.64532,0 1.37844,0.66572 1.59628,1.45004 0.30119,1.08448 0.2362,2.83712 -0.13229,3.56413 -0.68561,1.35268 -2.36922,1.28794 -2.95486,-0.11369 -0.20691,-0.49511 -0.27163,-1.13984 -0.22583,-2.25413 0.0613,-1.49269 0.0906,-1.58446 0.6718,-2.10374 0.3342,-0.29861 0.80448,-0.54261 1.0449,-0.54261 z m -95.05518,0.0264 c 0.817773,-0.004 1.39578,0.72684 1.39578,1.8464 v 0.5457 h -1.488798 -1.488281 l 5.17e-4,-0.5116 c 9.8e-4,-0.72151 0.643419,-1.68849 1.21698,-1.83244 0.125641,-0.0315 0.246977,-0.0475 0.363802,-0.0481 z m 71.1264,0.002 c 0.75529,0.0155 1.27962,0.6218 1.37615,1.64641 l 0.0615,0.65112 -1.53479,0.0543 -1.5353,0.0537 5.1e-4,-0.51884 c 9.6e-4,-0.7145 0.63701,-1.69479 1.18959,-1.83348 0.15444,-0.0388 0.30249,-0.0561 0.44235,-0.0532 z m 44.09654,0 c 0.75528,0.0155 1.27962,0.6218 1.37614,1.64641 l 0.0615,0.65112 -1.53531,0.0543 -1.53479,0.0537 5.2e-4,-0.51884 c 9.6e-4,-0.7145 0.63701,-1.69479 1.18959,-1.83348 0.15444,-0.0388 0.30248,-0.0561 0.44235,-0.0532 z m -60.18806,0.0145 c 0.55972,-0.0213 1.11158,0.34405 1.49086,1.07745 0.48171,0.93146 0.38373,3.47502 -0.16174,4.20543 -0.78248,1.04777 -2.17525,0.84947 -2.76521,-0.39378 -0.4698,-0.99003 -0.35782,-3.38898 0.19275,-4.12843 0.36755,-0.49364 0.808,-0.74409 1.24334,-0.76067 z m 8.49147,0.31729 c 0.35243,0.003 0.68551,0.12586 0.93431,0.37465 0.79361,0.79361 0.96022,3.17658 0.31006,4.43384 -0.1677,0.32429 -0.53733,0.64567 -0.88057,0.76533 -0.32538,0.11339 -0.6,0.19477 -0.6103,0.18087 -0.0103,-0.0139 -0.19849,-0.0605 -0.41806,-0.10335 -0.8498,-0.16623 -1.08512,-0.71231 -1.15342,-2.67839 -0.0636,-1.8325 -0.0617,-1.83996 0.49765,-2.39934 0.38178,-0.38179 0.8672,-0.57715 1.32033,-0.57361 z m -55.246235,2.76107 v 0.77928 c 0,0.61367 -0.116083,0.89588 -0.544153,1.32395 -1.139344,1.13934 -2.856621,0.37639 -2.317171,-1.02939 0.159864,-0.4166 0.933963,-0.78524 1.979724,-0.94206 z m 67.261005,1.70171 -0.0119,1.12396 c -0.009,0.84033 -0.1108,1.25844 -0.40566,1.65726 -0.28313,0.38292 -0.33795,0.59068 -0.19327,0.73536 0.14468,0.14468 0.34633,0.0857 0.71416,-0.20826 0.79135,-0.63248 1.32378,-1.69227 1.25678,-2.50165 -0.0539,-0.65141 -0.10197,-0.70221 -0.70901,-0.75241 z m -39.865262,0.015 -0.08113,1.11673 c -0.0541,0.7479 -0.210999,1.29308 -0.474906,1.65003 -0.283269,0.38315 -0.337306,0.58977 -0.192236,0.73484 0.14507,0.14507 0.327701,0.1028 0.649572,-0.15038 0.875733,-0.68886 1.23433,-1.32868 1.3193,-2.35334 l 0.0832,-0.99788 h -0.652157 z m -6.388757,1.86035 h 1.561662 c 1.276618,0 1.617413,0.0624 1.869136,0.34055 0.405,0.44753 0.390302,1.00587 -0.04134,1.53893 -0.291922,0.36051 -0.561328,0.44286 -1.628324,0.49816 -1.862184,0.0965 -2.54504,-0.51331 -2.007113,-1.79266 z" /><path
       id="path39"
       style="fill:#dd4729;fill-opacity:1"
       d="m 187.4082,304.02752 c -7.54093,0 -12.09384,0.0667 -12.09384,0.17725 0,0.0975 0.29875,0.25945 0.66353,0.36018 1.68305,0.46471 3.41192,2.05687 4.36717,4.02094 1.36684,2.81023 1.55532,5.28188 1.4087,18.47484 -0.0706,6.35405 -0.18793,10.40391 -0.31677,10.91562 -0.11268,0.44745 -0.41315,1.00881 -0.66715,1.24747 l -0.46147,0.43408 -13.47463,0.0512 c -8.366,0.0318 -13.47463,0.11848 -13.47463,0.22841 0,0.0974 0.23019,0.3247 0.5116,0.50539 0.61592,0.39545 4.9987,3.5406 7.07399,5.07618 l 0.88056,0.65112 9.14983,0.093 c 8.92526,0.0907 9.16307,0.10229 9.67228,0.48266 1.00882,0.75356 1.01188,0.80152 1.05058,16.26257 l 0.0357,14.23376 -0.4315,1.57975 c -0.2373,0.86873 -0.68136,2.04801 -0.9865,2.62051 -0.96987,1.81967 -2.81865,3.37523 -4.48965,3.77755 -0.28141,0.0678 -0.51162,0.18409 -0.5116,0.25889 2e-5,0.0748 5.44216,0.13643 12.09384,0.13643 6.65167,0 12.09384,-0.0616 12.09383,-0.13643 -2e-5,-0.0748 -0.23017,-0.19109 -0.51159,-0.25889 -2.49519,-0.60076 -4.57032,-3.00409 -5.47254,-6.3376 -0.36341,-1.34274 -0.40461,-2.13668 -0.53691,-10.3849 -0.20356,-12.70449 -0.19909,-49.04275 0.007,-51.85523 0.50242,-6.86592 2.2047,-10.53693 5.50716,-11.87731 0.55421,-0.22493 1.00769,-0.48259 1.00769,-0.57309 0,-0.0936 -5.21522,-0.16433 -12.09435,-0.16433 z m -96.612192,0.0129 c -12.114647,0.0126 -12.482321,0.0229 -11.568286,0.33487 2.246111,0.76657 3.584221,1.97687 4.661731,4.21576 1.213959,2.52241 1.241133,2.8087 1.321883,14.00018 l 0.07286,10.09809 0.592729,-0.41599 c 0.326213,-0.22875 0.980368,-0.71174 1.453658,-1.07384 0.473289,-0.3621 1.096343,-0.82628 1.384411,-1.03094 0.532327,-0.37821 1.736679,-1.25694 4.081405,-2.97915 0.716335,-0.52615 1.815204,-1.31513 2.442228,-1.75338 l 1.139982,-0.79685 0.105937,-4.95681 c 0.10442,-4.90476 0.271615,-6.50173 0.959115,-9.14311 0.748542,-2.8759 2.54049,-5.12787 4.732019,-5.94744 0.62315,-0.23305 1.13326,-0.45532 1.13326,-0.49402 0,-0.0387 -5.631004,-0.0644 -12.512936,-0.0574 z m -50.282719,0.0796 c -6.702848,0 -12.186853,0.0517 -12.186853,0.11472 0,0.063 0.521537,0.30496 1.159103,0.53743 0.891446,0.32504 1.429586,0.6932 2.33009,1.5937 1.820999,1.821 2.636777,4.05693 3.01532,8.26668 0.245497,2.73019 0.255766,57.79474 0.01137,60.93582 -0.363467,4.67138 -1.907919,7.61067 -4.727877,8.99893 -0.650543,0.32026 -1.319172,0.5824 -1.485698,0.5824 -0.166526,0 -0.302317,0.0628 -0.302307,0.13952 1.1e-5,0.0768 5.484006,0.13953 12.186853,0.13953 6.702846,0 12.186861,-0.0559 12.186853,-0.12454 -9e-6,-0.0686 -0.27203,-0.18348 -0.604614,-0.25528 -1.522601,-0.32864 -3.289607,-1.72457 -4.298962,-3.39618 -0.858231,-1.42133 -1.368248,-3.24008 -1.601453,-5.71283 -0.260169,-2.75836 -0.257872,-27.48263 0.0026,-28.42049 0.380999,-1.37193 0.147959,-1.34213 11.022066,-1.40353 l 9.636621,-0.0548 2.736784,-1.99833 c 1.505104,-1.09912 3.27841,-2.37215 3.940845,-2.82929 1.447852,-0.99914 1.865519,-1.33709 1.865519,-1.50843 0,-0.071 -6.035339,-0.13793 -13.412101,-0.14883 -15.165881,-0.0225 -14.247913,0.0679 -15.345834,-1.5167 l -0.546736,-0.7891 v -10.90011 c 0,-11.40791 0.05095,-12.31507 0.862996,-15.42077 0.428496,-1.6388 0.762163,-2.42504 1.477429,-3.4804 1.007869,-1.4871 2.054086,-2.35146 3.40186,-2.81069 0.474564,-0.1617 0.862996,-0.34889 0.862996,-0.41599 0,-0.0672 -5.484004,-0.12247 -12.186853,-0.12247 z m 98.043111,0.0935 c -8.20864,0 -12.34522,0.0627 -12.26902,0.18604 0.0632,0.10236 0.24818,0.18603 0.41135,0.18603 0.57295,0 2.20217,0.90809 3.06027,1.70584 2.51364,2.33685 3.37418,6.23149 3.30058,14.93604 l -0.0341,4.08244 1.00304,0.70951 c 0.5519,0.39021 1.49567,1.06488 2.09703,1.49914 0.60136,0.43427 1.27096,0.91453 1.48828,1.06712 0.4309,0.30258 3.80076,2.7746 4.63383,3.39927 0.28444,0.21329 0.78665,0.57244 1.11621,0.7984 l 0.59945,0.41083 0.10542,-8.67596 c 0.0848,-6.96554 0.16974,-9.07586 0.43046,-10.70373 0.60123,-3.75393 1.53383,-5.9745 3.20187,-7.62176 0.73936,-0.73015 2.32199,-1.60259 2.91352,-1.60559 0.17908,-10e-4 0.32556,-0.0852 0.32556,-0.18758 0,-0.12216 -4.25175,-0.18604 -12.38374,-0.18604 z" /></g></svg>
