<svg xmlns="http://www.w3.org/2000/svg" id="svg1" viewBox="0 0 8.467 6.35">
  <g id="layer1" transform="translate(.014 2.257)">
    <path id="cup" d="m4.443.354-.013.1q-.014.1-.123.32c-.061.123-.12.263-.131.313-.037.166.02.339.141.42.1.07.124.06.061-.027a.6.6 0 0 1-.076-.179c-.028-.134-.005-.247.094-.477.087-.202.105-.3.072-.399zm-.288.019c-.007 0-.01.024-.018.087-.009.079-.041.165-.125.33-.12.238-.145.34-.122.498a.36.36 0 0 0 .192.248c.036.02.068.036.07.036.001 0-.025-.04-.059-.09-.114-.17-.111-.357.01-.633.088-.204.114-.373.07-.451Q4.161.373 4.155.373zm.58.021q-.01.001-.017.062a2 2 0 0 1-.135.336c-.096.202-.123.277-.13.362-.012.178.058.31.208.388l.06.03a.4.4 0 0 0-.042-.062.57.57 0 0 1-.1-.33c.001-.093.02-.152.128-.423.061-.15.077-.285.041-.349Q4.74.393 4.734.394zm-.932 1.452.113 1.565c.003.016.419.019.419.019s.42-.002.42-.019l.117-1.565z" style="fill-rule:evenodd;fill:#fff;stroke-width:.0052917;stroke:#000"/>
    <path id="cupLid" d="M3.912 1.64c-.072 0-.12.025-.12.056v.05h-.023a.04.04 0 0 0-.04.042v.014a.04.04 0 0 0 .04.041h1.137a.04.04 0 0 0 .041-.04v-.015a.04.04 0 0 0-.04-.041h-.024l-.002-.051c0-.001.004-.056-.119-.056zm0 1.679.004.057h.844l.004-.057z" style="stroke-width:.018591"/>
    <path id="cupLabel" d="M3.817 2.077h1.042l-.072.849-.91.004z" style="fill:#643101;stroke-width:.036228"/>
    <path id="woodGrain" d="m3.807 2.09.08.852.91-.026.01-.16-.01.156h-.006a7.411 7.411 0 0 0-.146-.842l-.009.001a8 8 0 0 1 .137.75l.012.092-.055.001c-.02-.139-.04-.292-.05-.35-.024-.146-.04-.231-.07-.391l-.022-.1h-.006a12.958 12.958 0 0 1 .14.82l.003.021-.068.003c-.04-.284-.08-.53-.137-.843h-.008c.057.314.087.488.134.813l.004.03-.062.001-.057-.36-.023-.148-.037-.227-.017-.108h-.007l.015.099.103.64.016.104-.037.002-.01-.093a15 15 0 0 0-.096-.751h-.007c.01.065.02.127.03.205.024.168.038.281.07.585l.006.054-.098.003-.008-.078-.037-.313-.016-.12-.046-.334h-.007l.035.25.015.115c.02.147.04.324.057.48h-.037a32 32 0 0 0-.08-.54l-.024-.155-.023-.148H4.26l.005.034.012.074.018.115.02.124.01.07c.007.033.038.255.062.427h-.02l-.007-.058-.047-.351-.057-.392-.008-.043H4.24l.01.064c.013.075.04.261.051.344l.021.163.023.176.012.098-.046.001a11 11 0 0 0-.084-.694l-.028-.15h-.009c.015.073.031.157.043.228.022.142.048.38.07.616l-.06.002-.073-.51-.046-.335h-.007c.012.097.017.133.044.322.051.35.066.453.075.523L4.2 2.93v-.01a6 6 0 0 0-.042-.274 6 6 0 0 1-.057-.37c-.013-.1-.02-.141-.028-.192h-.009c.003.02.007.039.01.066.024.19.034.255.067.44.025.142.032.189.042.26l.009.08h-.03c-.004-.028-.004-.035-.019-.118l-.023-.15c-.013-.092-.014-.1-.023-.188a3 3 0 0 0-.042-.298 1 1 0 0 0-.026-.09H4.02a.2.2 0 0 1 .022.059c.02.076.031.148.05.326.015.142.024.205.051.367l.015.093h-.023l-.014-.089a5 5 0 0 1-.031-.212 2 2 0 0 0-.02-.136c-.012-.05-.026-.083-.037-.081-.017.002-.019.09-.006.318q.006.104.017.203H4.02c-.013-.134-.032-.36-.038-.444-.012-.204-.007-.36.013-.404h-.013c-.01.044-.015.124-.013.224.001.103.007.204.02.37l.024.255H4a9 9 0 0 1-.044-.785l.001-.063H3.95v.074c.003.166.01.365.018.49.006.085.016.186.026.284h-.009l-.005-.064-.016-.199a8 8 0 0 1-.024-.376l-.01-.194v-.014H3.92l.001.022.012.229a11 11 0 0 0 .04.56l.003.037h-.043a10 10 0 0 1-.034-.642l-.006-.206h-.008l.004.126a12 12 0 0 0 .037.724h-.032l-.02-.223c-.009-.131-.015-.256-.028-.537l-.004-.088h-.009l.006.117c.01.205.017.34.025.46l.006.083c0 .013.005.07.01.129l.006.06-.043-.46c-.004-.08-.008-.162-.011-.255l-.006-.134H3.82c0 .028.002.05.004.084l.006.149zm1 .665.002-.034-.006-.036a5 5 0 0 0-.127-.578l-.01-.037h-.008l.006.025c.061.22.076.284.114.496zm.002-.034.01-.178-.017-.125a2 2 0 0 0-.05-.222L4.71 2.07h-.01l.016.05c.02.05.03.079.04.118.023.084.038.17.062.343zm.01-.178.03-.477zm-.088-.474c.016.043.031.08.045.097.007.008.01.01.02.017h.011q.009-.003.015-.013a.3.3 0 0 0 .02-.104h-.01a.3.3 0 0 1-.018.08q-.01.017-.025.01c-.014-.01-.034-.043-.05-.087zm-.694.37q.006-.001.013.018c.012.03.018.056.026.12a11 11 0 0 0 .045.302l.007.052h-.01a1 1 0 0 0-.044-.212q-.015-.036-.02.01a1.994 1.994 0 0 0 .007.204h-.013l-.008-.095a4 4 0 0 1-.013-.362q.003-.032.009-.037zm.028.287c.007-.001.017.03.029.083.005.023.008.04.017.106l.003.017-.047.001a2 2 0 0 1-.008-.132c0-.046.002-.074.006-.075" style="fill:#fc0;opacity:.5;stroke-width:.036228"/>
    <path id="ampersand" d="M4.489 2.23H4.42c-.042.001-.067.016-.116.063-.064.062-.086.119-.086.22q0 .048-.05.097c-.058.058-.019.13-.019.13.02.029.034.033.073.03.006.002.021-.003.058-.014.044-.012.065-.009.107.017.073.044.095.04.037-.007l-.049-.039.045-.053q.075-.088.02-.132c-.021-.017-.025-.014-.025.017 0 .036-.057.114-.083.114-.007 0-.021-.022-.033-.05-.02-.05-.02-.05.105-.165.081-.075.127-.126.129-.15.002-.014 0-.028 0-.028.003-.018-.018-.05-.041-.05zm-.001.02c.012.002.023.022.02.039-.017.056-.136.152-.163.174l-.067.053.01-.061a.27.27 0 0 1 .14-.192c.017-.013.04-.014.06-.013m-.256.375c.008 0 .016.01.034.032.033.042.023.06-.022.082 0 0-.017.009-.025.008-.02 0-.034-.027-.034-.027-.011-.02.01-.055.024-.072q.014-.021.023-.023" style="fill:#fc0;stroke-width:.066388"/>
    <path id="textOutline" d="M1.518 1.706a.4.4 0 0 0-.12.038c-.074.033-.108.037-.308.04-.26.003-.442.024-.524.06-.1.043-.188.19-.187.309.001.107.09.22.174.22.016 0 .034.013.039.029a.3.3 0 0 0 .038.063l.03.036-.047.094a.5.5 0 0 0-.046.136c0 .103.083.22.199.279.149.077.275.001.255-.153-.005-.035.005-.07.036-.125l.043-.075.009.062c.017.114.159.228.286.228.075 0 .11-.02.138-.08l.022-.05.042.04c.063.057.137.079.238.07a.6.6 0 0 0 .114-.02q.026-.013.025.014c0 .04.09.139.153.172.069.035.169.03.21-.01a.3.3 0 0 0 .044-.106.3.3 0 0 1 .03-.087c.007-.005.034.003.059.018q.106.06.253-.05c.068-.051.085-.058.105-.042.014.011.06.04.104.063.115.06.224.058.349-.008.113-.06.32-.238.37-.32.072-.116.027-.256-.083-.257-.04 0-.055-.012-.087-.062a.37.37 0 0 0-.273-.15.36.36 0 0 0-.22.081l-.052.038-.054-.04c-.056-.042-.14-.068-.165-.051-.008.005-.045-.008-.083-.03-.12-.07-.196-.047-.293.086-.055.076-.06.078-.082.05a.4.4 0 0 0-.24-.118l-.07-.002.049-.05c.148-.15-.057-.355-.243-.245l-.054.03-.024-.04a.21.21 0 0 0-.159-.085zm4.171.143h-.034c-.26.022-.607.398-.623.674-.005.08-.001.1.033.163a.38.38 0 0 0 .318.206c.089 0 .149-.019.242-.075l.079-.047.05.033a.24.24 0 0 0 .196.038l.053-.014.007.054c.01.079.067.156.15.203.055.032.09.042.145.042.066 0 .079-.005.133-.055l.06-.055.06.027q.24.111.349-.18l.023-.064.046.02c.08.033.18.024.265-.024l.075-.042.055.038a.24.24 0 0 0 .14.044c.112.007.193-.033.333-.166.13-.123.176-.199.164-.265-.01-.053-.064-.103-.113-.103-.017 0-.032-.006-.032-.013 0-.027-.092-.116-.145-.14a.25.25 0 0 0-.284.052l-.036.035-.062-.048a.4.4 0 0 0-.1-.057L7.2 2.12l.027-.03c.07-.076.075-.133.019-.19-.034-.033-.051-.039-.111-.039a.3.3 0 0 0-.114.023q-.11.056-.172.024c-.056-.029-.14-.023-.216.015a.4.4 0 0 1-.091.034c-.037 0-.09.05-.186.174l-.092.117-.036-.035c-.069-.066-.186-.095-.265-.065-.03.012-.032.01-.032-.066 0-.066-.007-.087-.04-.13a.26.26 0 0 0-.2-.103z" style="fill-rule:evenodd;paint-order:fill markers stroke;stroke-linecap:square;stroke-linejoin:bevel;stroke-width:.073559;stroke:#643101"/>
    <path id="text" d="M4.54-2.008c-.024.001-.046.1-.07.315-.022.211-.028.732-.008.81.043.173.104-.228.108-.714.003-.273-.003-.39-.018-.406q-.006-.005-.011-.005m-.334.59c-.057 0-.033.719.03.93.006.018.02.027.03.02.014-.008.017-.131.01-.382-.01-.353-.036-.567-.07-.567m1.036.029-.037.043c-.074.09-.238.6-.274.857-.007.054-.006.09.005.09.067 0 .309-.733.307-.93zm-3.324.02q-.011-.001-.012.013c.001.087.337.519.61.783.218.21.267.227.184.064-.121-.237-.694-.857-.782-.86m1.097.161q-.015 0-.004.048c.036.156.25.586.384.774.049.068.067.082.072.057.01-.05-.047-.21-.16-.438-.12-.242-.255-.44-.292-.441M6.72-.96q-.022 0-.084.041c-.179.119-.695.695-.695.776q0 .024.01.026c.03 0 .184-.126.302-.248.345-.358.529-.597.467-.595m-3.13.07c-.044 0 .076.448.175.656.036.075.07.137.077.137.027 0-.016-.232-.076-.406-.063-.189-.153-.386-.175-.386m1.846.123-.04.037c-.081.073-.338.603-.34.703-.005.148.318-.445.366-.674zm-2.401.145q-.006-.001-.01.004c-.033.032.231.478.367.62.146.152.07-.043-.137-.354-.124-.186-.19-.268-.22-.27M6.36.04c-.07 0-.418.224-.588.385q-.169.157.023.06c.196-.1.604-.413.575-.442Q6.366.04 6.36.04M2.186.242c-.04 0-.04 0-.005.038.067.074.43.28.602.34.052.019.098.03.104.024.036-.038-.598-.402-.701-.402zm-.646.14q-.025 0-.033.006c-.035.035.319.197.673.308.093.029.198.053.233.054.056 0 .06-.003.039-.029C2.38.634 1.704.391 1.54.382m5.693.294q-.024 0-.086.007a3.3 3.3 0 0 0-.603.147c-.21.068-.283.102-.283.131 0 .077.902-.163.984-.261.014-.018.016-.025-.012-.024m-5.27.132q-.057 0-.048.017c.018.029.399.146.576.177.193.034.245.037.245.015 0-.03-.228-.11-.455-.16a2 2 0 0 0-.318-.05m5.442.357c-.138 0-.334.01-.49.029-.266.03-.403.06-.422.09-.035.056 1.018-.041 1.077-.1.013-.012-.059-.019-.165-.019m-5.874.737a.2.2 0 0 0-.077.024c-.063.03-.112.035-.406.046-.376.016-.45.033-.495.12s-.022.184.044.184c.042 0 .065-.028.037-.045-.031-.02.042-.057.179-.091.123-.03.412-.079.421-.07.003.002-.066.07-.153.15-.138.129-.163.147-.21.147a.12.12 0 0 1-.085-.03q-.06-.062-.06.009 0 .04.053.089l.054.049-.046.072a.7.7 0 0 0-.063.125c-.015.045-.013.057.012.092.031.043.152.112.173.098.008-.004.01-.02.005-.036-.011-.036.023-.117.107-.252l.067-.107.096-.017c.15-.026.154-.025.116.028-.058.081-.08.152-.062.196.021.05.104.107.157.107.04 0 .054-.02.025-.038s.03-.164.118-.297c.031-.048.046-.058.09-.058h.051l-.03.042c-.05.07-.07.16-.047.215.023.056.126.121.192.121.064 0 .16-.037.236-.089a.5.5 0 0 1 .098-.055l.035-.01-.033.065c-.07.138-.068.188.013.232.064.035.109.03.109-.012 0-.039.076-.172.169-.295.085-.113.249-.284.26-.272.016.015-.057.148-.118.22a.23.23 0 0 1-.1.072q-.046.01-.045.04c0 .04.07.104.113.104a.5.5 0 0 0 .15-.08l.117-.079.066.064c.12.115.24.116.416.003.1-.065.256-.21.256-.237q-.001-.054-.14.055-.203.158-.317.15c-.065-.005-.098-.036-.083-.078.009-.021.014-.021.052-.001.057.03.1.027.17-.008.096-.05.17-.159.147-.218-.015-.04-.114-.103-.173-.11-.105-.015-.23.071-.362.245l-.033.045.022-.056c.034-.086.028-.141-.018-.178q-.079-.062-.196.007l-.065.038.026-.046c.025-.045.024-.048-.004-.069-.06-.045-.092-.028-.203.113-.107.136-.217.237-.191.175.045-.107.027-.176-.06-.228-.084-.048-.16-.044-.249.015-.082.054-.122.06-.166.026l-.037-.029.04-.052c.022-.03.087-.098.143-.154.108-.106.11-.128.017-.129-.048 0-.095.036-.277.212l-.136.132-.113.016a.6.6 0 0 1-.118.01c-.015-.014.224-.259.283-.29.118-.062.137-.097.069-.128a.1.1 0 0 0-.033-.009m4.19.02-.032.003c-.102.014-.195.072-.32.2-.144.148-.204.259-.212.394-.006.09-.004.095.05.156a.5.5 0 0 0 .101.087c.09.047.252.001.377-.108l.06-.052.016.038c.022.048.102.097.16.097a.26.26 0 0 0 .116-.05l.111-.075c.055-.037.062-.033.04.023-.012.027-.029.089-.04.137-.017.08-.016.094.01.141a.23.23 0 0 0 .08.081c.107.058.17.025.223-.116.038-.104.064-.31.053-.423l-.01-.093.086-.006a1 1 0 0 1 .092-.003c.002.002-.03.074-.072.161-.114.232-.119.342-.019.411.076.053.155.052.196-.001.057-.073.096-.24.097-.41V2.36h.111l-.028.05c-.043.074-.052.15-.024.204a.25.25 0 0 0 .146.117c.049.012.15-.032.225-.1.045-.04.058-.045.07-.028a.1.1 0 0 1 .013.033c0 .017.136.102.163.102.056 0 .186-.081.263-.163.11-.115.133-.151.111-.173-.012-.013-.041.007-.113.077-.15.146-.277.188-.3.098q-.018-.069.037-.037c.07.038.158.003.217-.085q.08-.118-.008-.192c-.06-.051-.107-.062-.166-.037a.5.5 0 0 0-.193.197c-.052.112-.232.229-.303.196a.06.06 0 0 1-.035-.055c0-.038.02-.05.037-.023s.104.016.158-.021c.056-.039.102-.118.102-.174 0-.042-.072-.117-.125-.13-.042-.011-.143.026-.172.062-.013.015-.024.015-.056-.002a.2.2 0 0 0-.066-.021c-.033 0-.033-.005.007-.068.039-.061.05-.065.06-.023.012.046.048.036.067-.02a.5.5 0 0 1 .07-.112.3.3 0 0 0 .052-.079c0-.03-.086-.016-.13.02q-.042.037-.078.03c-.032-.006-.051.011-.14.128l-.103.136-.098.006a1 1 0 0 1-.102.003c-.003-.003.009-.026.027-.052.033-.047.034-.047.055-.016.03.044.041.04.073-.033a1 1 0 0 1 .075-.127c.026-.034.044-.067.039-.072-.02-.02-.079-.006-.118.028q-.043.036-.08.029c-.03-.006-.05.008-.112.088-.042.053-.09.117-.11.144-.018.026-.046.05-.061.055a.04.04 0 0 0-.029.035c0 .027-.042.083-.093.125-.024.02-.025.017-.01-.02.028-.077.018-.13-.035-.184q-.111-.113-.245.02a.07.07 0 0 1-.04.019c-.022 0-.11.103-.11.13 0 .022-.11.125-.18.167a.6.6 0 0 1-.112.05c-.05.016-.068.015-.107-.005-.025-.013-.05-.039-.055-.056-.028-.089.058-.274.197-.424.086-.093.188-.163.207-.144.016.016-.026.107-.085.186-.057.077-.058.08-.025.08.076 0 .234-.166.234-.247 0-.015-.024-.051-.053-.08-.035-.036-.05-.048-.078-.048m.356.38q.007.001.013.012.024.04-.031.154a.2.2 0 0 1-.042.064c-.015.01-.06-.03-.06-.053 0-.034.043-.115.08-.15q.029-.03.04-.027m1.172.012c.024 0-.025.084-.069.12q-.064.05-.065.018c0-.02.116-.138.134-.138m.448 0c.024 0 .011.026-.041.088-.049.058-.096.082-.096.05a.6.6 0 0 1 .137-.138m-5.685.017c.038 0 .034.066-.026.167-.041.072-.085.085-.112.035q-.036-.07.062-.158.05-.044.076-.044m1.217.005q.016.002-.026.062a.3.3 0 0 1-.08.073c-.114.07-.101.008.015-.081q.075-.055.09-.054m3.574.106-.006.122a.6.6 0 0 1-.039.2c-.05.117-.089.138-.089.047a.8.8 0 0 1 .091-.278zm-.368.038c.025 0-.028.284-.068.355-.061.112-.1.07-.06-.066.03-.107.11-.289.128-.289m-.555.048q.01 0 .042.034c.033.034.037.044.019.055q-.083.051-.074-.054.002-.033.013-.035m-4.121.02c.003 0 .028.02.054.045.045.042.046.045.017.06-.042.023-.088.02-.098-.007-.008-.021.013-.098.027-.098" style="fill:#f6e39e;stroke-width:.057118"/>
    <path id="path697" d="m3.877-1.458-.013.042c-.028.086.097.72.178.903q.077.176.075-.053c0-.227-.127-.753-.205-.85zm3.802.312-.032.005c-.207.051-1.041.788-1.041.92 0 .044.005.043.129-.024.213-.114.743-.571.883-.76.077-.106.095-.14.061-.14m-1.599.09c-.08 0-.491.637-.54.835-.02.08.031.066.109-.028.23-.282.511-.806.431-.806m-1.093.117h-.004c-.064.022-.206.66-.177.793.037.168.167-.256.191-.624.01-.137.007-.171-.01-.17zM2.249-.67q-.017 0-.017.019c0 .092.584.666.737.724q.175.067-.188-.305c-.262-.268-.473-.44-.532-.438m-.225.412c-.044-.002-.009.056.09.145.132.118.49.36.63.424.117.055.13.057.13.021 0-.083-.617-.52-.826-.585zM7.083.02c-.137 0-.873.432-.873.512 0 .067.429-.132.724-.336.204-.14.234-.176.149-.176m-.29.566c-.13 0-.746.254-.767.316-.014.042.094.025.31-.05.328-.115.589-.266.458-.266m-5.698.434c-.119 0-.201.006-.201.019q0 .061.64.139c.254.03.71.038.726.012.029-.047-.188-.096-.62-.142a6 6 0 0 0-.545-.028" style="fill:#562b03;stroke-width:.023585"/>
  </g>
</svg>
