<svg xmlns="http://www.w3.org/2000/svg" xml:space="preserve" width="500" height="90" viewBox="0 0 132.3 23.8">
  <path d="M-198.2-808.2a9.2 9 0 0 0-9.2 9 9.2 9 0 0 0 9.2 8.9 9.2 9 0 0 0 9.3-9 9.2 9 0 0 0-9.3-9zm-263.2 16.1v4l1.3.2c5.3.3 8.4 1 9.4 2.2 1 1.1 1.5 4.7 1.5 10.6v63.1c0 6-.5 9.5-1.5 10.6-1 1.2-4.1 2-9.4 2.3h-1.3v4.1h38v-4l-1.2-.1c-5.3-.4-8.4-1.1-9.4-2.3-1-1.1-1.5-4.7-1.5-10.6v-30.6h46.2v30.6c0 6-.5 9.5-1.4 10.6-1 1.2-4.2 2-9.5 2.3h-1.2v4.1h38v-4l-1.2-.1c-5.3-.4-8.5-1.1-9.5-2.3-1-1.1-1.4-4.7-1.4-10.6v-63c0-6 .5-9.6 1.4-10.7 1-1.1 4.2-1.9 9.5-2.2l1.2-.2v-4h-38v4l1.2.2c5.3.3 8.4 1 9.4 2.2 1 1.1 1.5 4.7 1.5 10.6v26.8h-46.2V-775c0-6 .5-9.5 1.5-10.6 1-1.1 4.1-1.9 9.4-2.2l1.3-.2v-4h-38zm545 0v4l1.3.2c5.3.3 8.4 1 9.4 2.2 1 1.1 1.5 4.7 1.5 10.6v63.1c0 6-.5 9.5-1.5 10.6-1 1.2-4 2-9.4 2.3h-1.2v4.1h38v-4l-1.2-.1c-5.4-.4-8.5-1.1-9.5-2.3-1-1.1-1.4-4.7-1.4-10.6v-30.6h46.2v30.6c0 6-.5 9.5-1.5 10.6-1 1.2-4.1 2-9.5 2.3h-1.2v4.1h38v-4l-1.2-.1c-5.3-.4-8.5-1.1-9.4-2.3-1-1.1-1.5-4.7-1.5-10.6v-63c0-6 .5-9.6 1.5-10.7 1-1.1 4-1.9 9.4-2.2l1.3-.2v-4h-38v4l1.1.2c5.3.3 8.5 1 9.5 2.2 1 1.1 1.5 4.7 1.5 10.6v26.8h-46.2V-775c0-6 .5-9.5 1.4-10.6 1-1.1 4.1-1.9 9.5-2.2l1.2-.2v-4h-38zm-721.1 6.3h-26.9l-.8.4c-1 .5-1.3 1-1.5 2.2-.2 1-.2 20.4 0 23.4.2 2.7.1 3-.7 3.8l-.7.7-.6-.1c-.3-.1-6-.2-12.8-.2-13.3 0-12.6 0-13-1l-.4-.6.2-3.5.1-13v-9.6l-.5-.8-.4-.9-.7-.4-.6-.3h-27l-.7.2c-.8.4-1.3.8-1.8 1.6l-.4.5v88.2l.4.7c.4.8 1.2 1.2 2.1 1.4h27.5l.6-.3c.4-.2.8-.6 1-1l.4-.8.1-10.7v-10.8l-.1-2.6-.2-2.5.3-.5.5-.6 13.4-.1h13.2l.5.5.5.6-.1 1.4-.2 13.4v12l.3.6.4.7.7.3.8.4h27.5l.9-.3a3 3 0 0 0 1.7-1.8c.1-.3.2-16.2.2-44.1V-783l-.2-.4c0-.3-.4-.8-.7-1.1l-.6-.7-.9-.3-.8-.3zm75 0-.8.4c-1.1.5-1.5 1-1.8 1.9l-.3.8v10.4c0 5.7 0 11.3.2 12.6.2 2.3.1 2.6-.6 3.5l-.5.5h-25.4l-.6-.2-.3-.5-.4-.5V-783.6l-.5-.7-.5-.8-.8-.3-.8-.3h-26.8l-.7.2c-1 .4-1.2.5-1.7 1.4l-.4.6V-695.2l.4.6c.4.8 1.3 1.3 2.3 1.5h27.3l.7-.3a3 3 0 0 0 1.1-1l.4-.6v-12.4l-.1-13.5v-1.2l.4-.4.5-.4 12.9-.1h12.8l.7.3c.7.5.9 1 .6 2.4l-.2 1.2V-695.8l.3.7c.3.9.5 1.2 1.5 1.7l.7.3h13.6c16.1 0 15.4.1 16.4-1.8l.4-.8v-86.8l-.2-.6c0-.4-.4-1-.8-1.3l-.6-.7-1.1-.3-1.2-.3h-26.1zm279 17v4h1.3c5.3.5 8.4 1.2 9.4 2.4 1 1.1 1.5 4.6 1.5 10.5v37.3c0 5.9-.5 9.4-1.5 10.6-1 1.1-4.1 1.9-9.4 2.2l-1.3.1v4h38.9v-4h-2.8c-5.3-.4-8.4-1.1-9.5-2.3-1-1.2-1.5-4.7-1.5-10.6v-34.8c4.2-7 14.1-6.6 20.6-6.6 1.6 0 2.6.4 3 1.2l1.2 2.3.1 1.2h7.3l4.1-13c-1.6-.5-7.2-4-8.5-4-9.5 0-21.9 2.9-27.8 12.8v-13.4h-25zm66.8.2v4l1.3.1c5.3.4 8.4 1.2 9.4 2.3 1 1.2 1.5 4.7 1.5 10.6v37.2c0 6-.5 9.5-1.5 10.7-1 1.1-4.1 1.8-9.4 2.2h-1.3v4.1h37.3v-4l-1.3-.1c-5.3-.4-8.5-1.1-9.5-2.2-1-1.2-1.4-4.7-1.4-10.7v-54.2h-25zm250.4.2c-5.3 0-14.1 1.2-18.4 3.6-4.3 2.5-8 6.1-11.3 11v-13h-25.1v3.9h1.3c5.2.4 8.4 1.2 9.3 2.3 1 1.1 1.5 4.5 1.5 10.3v36.4c0 5.8-.5 9.2-1.5 10.4-1 1-4 1.8-9.3 2.2h-1.3v4h37.3v-4h-1.3c-5.4-.4-8.5-1.1-9.5-2.2S4-708.1 4-714v-35.7c4.2-3.6 8.1-6.2 11.7-8a22 22 0 0 1 9.7-2.7c4.1 0 11 1.2 12.5 3.5 1.7 2.3 2.5 6.5 2.5 12.5v30.4c-.3 6.4-.8 10-1.5 10.8-.7.8-3.9 1.4-9.5 1.8h-1.2v4h37.2v-4h-1.2c-5.6-.4-8.7-1-9.4-1.8-.7-.8-1.2-4.4-1.5-10.8v-32.4c0-6.9-1.7-12.3-5.2-16.2-3.5-4-8.3-6-14.4-6zm409.9.2a34 34 0 0 0-35.8 35.2c0 10.9 3.7 19.7 11.1 26.5a41.7 41.7 0 0 0 29.2 10.2c7.7 0 18-5 25.7-13v-6.3c-6.5 3.2-14.3 13-23.4 13-8.7 0-15.3-2.8-19.7-8.2-4.4-5.5-6.6-18.8-6.6-29.5h49.7v-1.2c0-10.3-2.7-12.9-8-18.4-5.1-5.5-12.6-8.3-22.2-8.3zm-769.3.4a37 37 0 0 0-27.4 10 36.7 36.7 0 0 0-10 27.2c0 11.5 3.3 20.6 10 27.3a37 37 0 0 0 27.4 10 37 37 0 0 0 27.3-10c6.7-6.7 10-15.8 10-27.3s-3.3-20.6-10-27.2a36.9 36.9 0 0 0-27.3-10zm261.4 0a32 32 0 0 0-24.9 10c-6 6.6-9.1 15.7-9.1 27.2a39 39 0 0 0 9.1 27.3 32 32 0 0 0 24.9 10 32 32 0 0 0 24.8-10 39 39 0 0 0 9.1-27.3c0-11.5-3-20.6-9-27.2-6.1-6.7-14.4-10-25-10zm286 0a37 37 0 0 0-27.3 10 36.7 36.7 0 0 0-10 27.2c0 11.5 3.3 20.6 10 27.3a37 37 0 0 0 27.3 10 37 37 0 0 0 27.3-10c6.7-6.7 10-15.8 10-27.3s-3.3-20.6-10-27.2a36.9 36.9 0 0 0-27.3-10zm153.2 0c-7.1 0-13 1.9-17.7 5.6a17.7 17.7 0 0 0-6.9 14.3c0 5 1.6 9.1 4.8 12.5 3.2 3.5 8.4 6.6 15.5 9.3l6.6 2.6c4.3 1.6 7.3 3.4 9 5.4 1.7 2 2.5 4.6 2.5 7.9 0 3.8-1.3 6.8-3.8 9.2a13.4 13.4 0 0 1-9.6 3.6c-4.9 0-9.3-1.3-13.2-3.8-2-1.3-3.2-2.4-3.5-3.2-.3-1-.7-4.6-1.2-11.1l-.2-1.3H350v18.1a57.1 57.1 0 0 0 24.3 5.4c8.1 0 14.7-2 19.7-6s7.6-9.2 7.6-15.6c0-4.6-1.3-8.3-3.9-11.2a39 39 0 0 0-13.8-8.4l-6-2.5a43.7 43.7 0 0 1-12.2-6.6c-2-1.8-3.1-4.3-3.1-7.3 0-3.8 1.2-6.8 3.7-9.3 2.6-2.4 5.7-3.7 9.5-3.7 4 0 7.5 1.2 10.3 3.4 1 .8 1.7 2 2.1 3.7.5 1.6.8 4.5 1 8.8v1.2h7.4v-17c-7.5-2.7-14.7-4-21.6-4zm-545.7 1.6-.6 19.7h5s-2.2-11.9 13.9-14.5c11.3-2 12.5-.3 23.9-1.2l-45.2 60.9v4h63.5v-21.2h-4.5c-3.6 12.4-2.7 16.4-17.4 16.4h-26l44.6-60v-4.1h-57.2zm431.2 0v4l1.3.1c5.3.4 8.4 1.2 9.4 2.3 1 1.1 1.5 4.7 1.5 10.6v33.2c0 7 1.7 12.5 5.2 16.6a18 18 0 0 0 14.4 6c5.3 0 10-1.2 14.3-3.7 4.3-2.5 8.1-6.3 11.4-11.3v13.4H343v-4l-1.2-.1c-5.6-.4-8.8-1-9.5-1.9-.7-.8-1.2-4.5-1.5-11v-54.2h-25v4l1.1.1c5.6.4 8.8 1 9.5 1.8.7.9 1.2 4.5 1.5 11v36.6a38.1 38.1 0 0 1-10.2 8.3c-3.4 1.8-7 2.7-10.5 2.7-4 0-6.9-1.3-8.8-4-2-2.8-3-7-3-12.4v-48.1h-25zm182.1 1.8c5.6 0 9.5 1.8 12 5.4 2.4 3.5 3.7 4 3.7 12l-.1 2.8-33.7.2v-.2c0-7.7 1.6-8.6 4.8-13.2 3.3-4.7 7.8-7 13.3-7zm-768.2.6c6.3 0 11.7 3.2 15.9 9.5a41.5 41.5 0 0 1 6.3 23.7c0 9.6-2 17.5-6.3 23.8-4.2 6.3-9.6 9.4-16 9.4-6.3 0-11.7-3.1-15.9-9.4a42.2 42.2 0 0 1-6.3-23.8c0-9.5 2.2-17.4 6.4-23.7 4.2-6.3 9.5-9.5 15.9-9.5zm261.4 0c5.8 0 10.6 3.2 14.5 9.5a44.7 44.7 0 0 1 5.7 23.7 45 45 0 0 1-5.7 23.8c-3.9 6.3-8.7 9.4-14.5 9.4-5.8 0-10.7-3.1-14.5-9.4a45.4 45.4 0 0 1-5.7-23.8c0-9.5 1.9-17.4 5.7-23.7 3.9-6.3 8.7-9.5 14.5-9.5zm286 0c6.4 0 11.7 3.2 16 9.5a41.5 41.5 0 0 1 6.3 23.7c0 9.6-2.2 17.5-6.4 23.8-4.2 6.3-9.5 9.4-16 9.4-6.3 0-11.6-3.1-15.9-9.4a42.2 42.2 0 0 1-6.2-23.8c0-9.5 2-17.4 6.3-23.7 4.3-6.3 9.5-9.5 15.9-9.5z" style="fill:#004b8b;fill-opacity:1;stroke-width:.63085" transform="translate(79.4 93.5) scale(.10555895)"/>
  <path d="m-628.6-853.6-98.4 56.8 90.4.2A1147 1147 0 0 1-683-808l31.5 2.6-21.2-12.8 25.8 9.2-14-20.7 21.2 14.6-5-24.4 11.5 24.2 3-20.3c1.8-13.7 1-13.5 2.6 0l3.2 20 12.4-24-5.9 24.5 20.2-14.6-13.4 17.3 26.7-6.2-19.4 12 24-.2c0 .3-29.1 7.7-42.5 10.2l90.7.1z" style="opacity:1;fill:#f9a016;fill-opacity:1;fill-rule:evenodd;stroke-width:1.09719;stroke-linecap:square;stroke-linejoin:bevel" transform="translate(79.4 93.5) scale(.10555895)"/>
  <text xml:space="preserve" x="-397.6" y="-1103.3" style="font-style:normal;font-variant:normal;font-weight:400;font-stretch:normal;font-size:240.624px;line-height:0;font-family:&quot;Lucida Sans&quot;;-inkscape-font-specification:&quot;Lucida Sans&quot;;text-align:start;letter-spacing:.426105px;word-spacing:2.4313px;writing-mode:lr-tb;direction:ltr;text-anchor:start;opacity:.5;fill:red;fill-rule:evenodd;stroke-width:28.1981;stroke-linecap:square;stroke-linejoin:bevel" transform="translate(79.4 93.5) scale(.10555895)"/>
</svg>
