<svg xmlns="http://www.w3.org/2000/svg" width="300" height="80" viewBox="0 0 79.38 21.17">
  <g transform="translate(1.8914 -.54542)">
    <path d="m22.88.82-.09.04c-.08.06-.18.11-.29.17-.2.09-.32.13-.34.13-.1.03-.15.06-.15.1 0 .05.03.07.11.07h.06c.18 0 .26.13.26.4v3.51c0 .35-.04.43-.22.46-.06 0-.08.02-.08.05 0 .05.03.07.1.07l.1-.01a3.16 3.16 0 0 1 .91.01c.06 0 .1-.02.1-.07 0-.04-.04-.05-.12-.05-.27-.02-.32-.11-.32-.46V.86c0-.02 0-.04-.03-.04zm-11.46.46a.13.13 0 0 0-.1.06l-.18.25c-.03.04-.04.07-.04.09 0 .01.01.05.04.09l.18.25c.02.04.06.06.1.06.05 0 .09-.02.12-.06l.17-.25c.03-.04.04-.07.04-.1l-.03-.08-.19-.25c-.03-.03-.07-.06-.1-.06zm-.88 1.48c-.04 0-.06.02-.08.1-.06.18-.2.3-.36.3-.06 0-.1-.01-.18-.05-.3-.15-.4-.18-.65-.18-.63 0-1.1.43-1.1 1.01 0 .29.12.59.28.72l.15.12.07.05.04.02h-.03c-.2.08-.38.34-.38.59 0 .22.13.41.31.46l.03.01h-.02a1 1 0 0 0-.26.16c-.17.14-.23.25-.23.43 0 .43.43.7 1.12.7.8 0 1.34-.4 1.34-.99 0-.31-.2-.55-.5-.62a2.94 2.94 0 0 0-.7-.04c-.65 0-.82-.06-.82-.29 0-.2.15-.32.37-.32h.05l.27.02h.07c.57 0 1-.43 1-1.02 0-.16-.04-.36-.1-.45v-.02h.03l.06-.02.1-.04c.12-.04.2-.26.2-.54 0-.07-.03-.11-.08-.11zm-6.38.1c-.03 0-.05 0-.1.03a1.2 1.2 0 0 1-.3.17l-.32.14c-.1.02-.15.04-.15.1s.03.06.1.06h.07c.19 0 .27.12.27.4v1.5c0 .32-.05.4-.23.44-.06 0-.08.02-.08.05 0 .05.04.07.1.07h.12a3.48 3.48 0 0 1 .9 0c.06 0 .1-.02.1-.07 0-.04-.03-.05-.11-.06-.27-.01-.35-.12-.35-.45V3.82c0-.08.08-.23.17-.32.03-.04.08-.07.12-.1l.14-.03c.06 0 .12.02.18.06l.09.06a.3.3 0 0 0 .16.07c.05 0 .1-.04.17-.12.05-.08.08-.14.08-.19 0-.05-.06-.12-.18-.2l-.19-.11a.27.27 0 0 0-.1-.02c-.09 0-.17.03-.26.11a2.03 2.03 0 0 0-.38.46V3.2l.01-.26c0-.07 0-.09-.03-.09zm7.54 0c-.03 0-.05 0-.09.03-.08.06-.18.12-.3.17-.17.07-.28.13-.33.14-.1.02-.14.04-.14.1s.02.06.1.06H11c.19 0 .26.12.27.4v1.59c-.02.24-.05.32-.2.35-.06 0-.09.02-.09.05 0 .05.04.07.1.07l.12-.01a5.25 5.25 0 0 1 .83.01c.07 0 .1-.02.1-.07 0-.03-.03-.05-.1-.05-.24-.03-.31-.13-.31-.46V2.9c0-.04 0-.05-.02-.05zm4.91 0c-.02 0-.04 0-.08.03-.05.04-.15.09-.3.17l-.34.14c-.11.02-.15.04-.15.1s.03.06.1.06h.07c.18 0 .27.12.27.4v1.48c0 .34-.05.43-.26.46-.06 0-.08.02-.08.05 0 .05.02.07.1.07l.1-.01a4.03 4.03 0 0 1 .97.01c.07 0 .1-.02.1-.07 0-.04-.03-.05-.1-.05-.14 0-.26-.05-.3-.12-.05-.05-.08-.2-.08-.34V3.88c0-.15.02-.2.1-.27.2-.25.43-.38.69-.38.47 0 .7.33.72.95v1.06c0 .34-.05.43-.25.46-.06 0-.09.02-.09.05 0 .05.04.07.1.07l.11-.01a3.77 3.77 0 0 1 .96.01c.06 0 .1-.02.1-.07 0-.04-.04-.05-.11-.05-.15 0-.26-.05-.3-.12-.04-.05-.06-.15-.06-.34V4.2c0-.43-.05-.66-.16-.85a.92.92 0 0 0-.8-.4c-.34 0-.77.21-.94.46l-.04.06-.03.03v-.32l.02-.29c-.01-.03-.02-.04-.04-.04zm9.72 0c-.02 0-.05 0-.09.03a1.2 1.2 0 0 1-.3.17l-.32.14c-.11.02-.15.04-.15.1s.02.06.1.06h.07c.18 0 .26.12.26.4v1.5c0 .32-.04.4-.22.44-.06 0-.08.02-.08.05 0 .05.04.07.1.07h.11a3.47 3.47 0 0 1 .9 0c.07 0 .1-.02.1-.07 0-.04-.03-.05-.1-.06-.27-.01-.36-.12-.36-.45V3.82c0-.08.08-.23.17-.32.03-.04.08-.07.13-.1.04-.02.09-.03.13-.03.07 0 .13.02.18.06l.09.06a.3.3 0 0 0 .16.07c.05 0 .11-.04.17-.12.05-.08.09-.14.09-.19 0-.05-.06-.12-.19-.2l-.18-.11a.27.27 0 0 0-.1-.02c-.1 0-.17.03-.26.11a2.03 2.03 0 0 0-.39.46V3.2l.02-.26c0-.07-.01-.09-.04-.09zm16.1 0c-.02 0-.05 0-.08.03a1.2 1.2 0 0 1-.3.17l-.33.14c-.11.02-.15.04-.15.1s.03.06.1.06h.07c.18 0 .27.12.27.4v1.5c0 .32-.05.4-.23.44-.06 0-.08.02-.08.05 0 .05.04.07.1.07h.12a3.48 3.48 0 0 1 .9 0c.06 0 .1-.02.1-.07 0-.04-.03-.05-.11-.06-.27-.01-.35-.12-.35-.45V3.82c0-.08.07-.23.17-.32.03-.04.07-.07.12-.1.05-.02.09-.03.14-.03.06 0 .12.02.18.06l.08.06a.3.3 0 0 0 .17.07c.05 0 .1-.04.16-.12.04-.05.06-.1.07-.13l.13.27.87 2.07c.03.07.04.15.04.2 0 .17-.11.47-.27.65l-.33.45a.14.14 0 0 0-.04.08c0 .07.06.1.18.1.21 0 .28-.03.31-.14l1.21-3.4c.1-.3.18-.42.25-.44h.05c.05-.02.06-.04.06-.07 0-.05-.03-.07-.1-.07l-.1.01a3.34 3.34 0 0 1-.63-.01c-.07 0-.1.02-.1.07 0 .03.03.05.1.05.2.01.29.07.29.18 0 .06-.02.17-.06.27l-.52 1.6-.03.05-.02-.03-.63-1.62c-.06-.13-.1-.25-.1-.3 0-.09.07-.13.22-.14.07 0 .1-.03.1-.06 0-.04-.04-.07-.1-.07l-.12.01a4.64 4.64 0 0 1-.86 0l-.15-.08a.27.27 0 0 0-.1-.02c-.09 0-.17.03-.26.11a2.03 2.03 0 0 0-.38.46l-.01-.04V3.2l.02-.26c0-.07 0-.09-.03-.09zm-35.82.07c-.7 0-1.25.65-1.25 1.47 0 .85.55 1.48 1.28 1.48.47 0 .9-.21 1.11-.55a.25.25 0 0 0 .03-.07c0-.04-.03-.06-.06-.06a.1.1 0 0 0-.07.04l-.1.09c-.15.15-.44.25-.7.25-.58 0-1.03-.59-1.03-1.35 0-.12 0-.13.08-.13h1.72c.1 0 .12-.02.12-.1 0-.54-.56-1.07-1.13-1.07zm7.3 0c-.83 0-1.44.63-1.44 1.49 0 .88.57 1.47 1.46 1.47s1.45-.58 1.45-1.48c0-.87-.6-1.48-1.46-1.48zm6.66 0c-.6 0-1.08.37-1.08.82 0 .12.12.17.39.17.08 0 .12-.03.12-.09 0-.01 0-.04-.03-.1a.62.62 0 0 1-.04-.2c0-.23.2-.39.46-.39.39 0 .54.18.54.61v.4c0 .08-.01.08-.08.1-.2.04-.55.13-.78.2-.15.05-.26.12-.36.18a.73.73 0 0 0-.28.6c0 .4.26.65.67.65.29 0 .63-.14.77-.3l.05-.06.03-.03v.04l.03.06c.06.17.26.3.5.3.14 0 .27-.04.36-.11.06-.04.08-.08.08-.12 0-.03-.02-.05-.06-.05l-.05.02a.35.35 0 0 1-.14.03c-.18 0-.28-.14-.28-.42V3.63c0-.24-.04-.37-.14-.48a1 1 0 0 0-.68-.22zm8.21 0c-.7 0-1.24.65-1.24 1.47 0 .85.54 1.48 1.28 1.48.46 0 .9-.21 1.1-.55a.24.24 0 0 0 .03-.07c0-.04-.03-.06-.06-.06a.1.1 0 0 0-.07.04l-.1.09c-.15.15-.44.25-.7.25-.58 0-1.03-.59-1.03-1.35 0-.12 0-.13.08-.13h1.72c.1 0 .12-.02.12-.1 0-.54-.55-1.07-1.13-1.07zm2.99 0c-.8 0-1.42.7-1.42 1.56 0 .84.5 1.4 1.27 1.4.38 0 .67-.13.93-.4.06-.05.08-.1.08-.13 0-.04-.02-.07-.07-.07-.02 0-.07.03-.12.08-.12.11-.4.21-.63.21-.6 0-1.02-.55-1.02-1.31 0-.67.3-1.12.76-1.12.21 0 .41.1.55.29.08.1.1.1.13.1.05 0 .12-.04.19-.1.07-.07.13-.15.13-.2 0-.02-.02-.04-.05-.07a1.13 1.13 0 0 0-.73-.24zm2.62 0c-.83 0-1.45.63-1.45 1.49 0 .88.58 1.47 1.47 1.47.88 0 1.44-.58 1.44-1.48 0-.87-.6-1.48-1.46-1.48zm5.7 0c-.7 0-1.25.65-1.25 1.47 0 .85.55 1.48 1.28 1.48.46 0 .9-.21 1.1-.55a.25.25 0 0 0 .03-.07c0-.04-.02-.06-.06-.06a.1.1 0 0 0-.07.04l-.1.09c-.14.15-.44.25-.7.25-.58 0-1.03-.59-1.03-1.35 0-.12.01-.13.08-.13h1.73c.09 0 .11-.02.11-.1 0-.54-.55-1.07-1.13-1.07zm-4.24.08c-.06 0-.09.02-.09.07 0 .03.03.05.08.05.1.02.17.06.23.11.04.05.13.21.19.34l.94 2.22c.02.07.04.08.09.08.04 0 .07-.03.09-.07l1.01-2.22a2.53 2.53 0 0 1 .18-.34l.1-.1h.04c.06-.02.07-.03.07-.07 0-.04-.03-.06-.1-.06l-.1.01a2.46 2.46 0 0 1-.54 0l-.11-.01c-.06 0-.1.02-.1.07 0 .04.04.05.12.06.2 0 .29.06.29.15 0 .06-.03.17-.08.29l-.69 1.55-.02.06-.04-.05-.63-1.57a.81.81 0 0 1-.08-.3c0-.07.07-.13.23-.14.06 0 .1-.02.1-.05 0-.05-.05-.07-.1-.07h-.12c-.08.02-.2.02-.37.02-.2 0-.37 0-.47-.02l-.12-.01zm-22 .08c.63 0 1 .56 1 1.46 0 .73-.32 1.17-.85 1.17-.58 0-.98-.51-1.03-1.31v-.2c0-.7.33-1.12.88-1.12zm20.47 0c.63 0 1.01.56 1.01 1.46 0 .73-.32 1.17-.85 1.17-.58 0-.98-.51-1.03-1.31l-.01-.2c0-.7.34-1.12.88-1.12zm-27.74 0c.36 0 .65.32.65.72 0 .1-.02.12-.1.12h-1.2c-.08 0-.09 0-.09-.05 0-.06.04-.2.08-.28.15-.34.37-.5.66-.5zm2.65 0c.37 0 .64.38.64.89s-.21.83-.58.83-.6-.3-.64-.83v-.1c0-.5.22-.78.58-.78zm19.52 0c.36 0 .65.32.65.72 0 .1-.02.12-.1.12h-1.2c-.08 0-.08 0-.08-.05 0-.06.04-.2.07-.28.15-.34.37-.5.66-.5zm11.3 0c.36 0 .66.32.66.72 0 .1-.02.12-.1.12H39.4c-.07 0-.08 0-.08-.05 0-.06.04-.2.07-.28.15-.34.37-.5.67-.5zM20.94 4.37l.01.04v.65c0 .32-.25.56-.6.56-.28 0-.43-.16-.43-.46 0-.28.11-.46.37-.57.15-.07.24-.1.55-.18l.06-.03h.04zm-12.1 1.6c.1.03.27.04.5.05h.37c.39.01.56.12.56.34 0 .38-.42.66-.97.66-.54 0-.86-.2-.86-.54 0-.2.17-.4.4-.5zm62.11 7.7a11.1 11.1 0 0 0-1.76 2l.2.14-.47.52-1.52-1.05-.29.33-.8-.54-.9 1.14 1.34 1.16-1.53 1.01c.09.11.15.25.25.3.11.06.26.04.4.06v.05c-.1.21-.02.37.15.51.02.02.04.08.03.11-.06.41-.1.83-.34 1.19l-.07.14c-.1.13-.08.26-.04.4.02.07.05.08.1.08.2 0 .4.02.6 0 .2-.01.35.02.45.2l.04.03.34-.28a.45.45 0 0 1 .29-.13 6.82 6.82 0 0 0 .8-.13c.16-.07.25-.2.28-.38.02-.1.07-.2.1-.31l-.01-.15a1.61 1.61 0 0 1-.16-.87c0-.14.05-.33.15-.41.3-.26.65-.46 1.05-.54.07-.01.12-.06.18-.1.19-.1.25-.3.31-.49.1-.28.34-.43.58-.53.28-.1.54-.23.74-.45.14-.16.3-.3.45-.44l.07-.07-.18-.16c-.05-.04-.05-.07-.04-.13a.6.6 0 0 1 .2-.37l.27-.27c.02-.02.05-.05.05-.07.03-.18.1-.37-.06-.53a.2.2 0 0 1-.04-.08c-.02-.05-.05-.12-.04-.18.02-.09 0-.12-.09-.16-.36-.15-.74-.28-1.05-.55h-.03zm-42 2.4c-.03 0-.06.02-.1.04-.08.06-.18.11-.3.17-.19.08-.3.13-.33.13-.11.03-.15.05-.15.1s.03.07.1.07h.07c.18 0 .26.13.26.4v1.44l-.02-.02c-.18-.13-.5-.22-.76-.22-.8 0-1.42.66-1.42 1.55 0 .81.5 1.4 1.22 1.4.36 0 .74-.18.91-.46l.06-.07.02-.04v.5c0 .04.02.07.07.07.02 0 .05 0 .12-.04a3.5 3.5 0 0 1 .65-.13c.1 0 .14-.03.14-.09 0-.05-.03-.07-.1-.07-.3 0-.43-.1-.43-.36V16.4l.01-.3c0-.02 0-.04-.03-.04zm4.98.23c-.12 0-.6.65-1.23 1.64l-.93 1.48a.3.3 0 0 0-.02.1v.01c0 .06.04.09.16.09h1.53c.04 0 .05 0 .05.05v1.42c0 .03.01.04.03.04l.07-.01.2-.1c.15-.06.17-.07.19-.1a.3.3 0 0 0 .01-.1v-1.14c0-.05.01-.07.04-.07h.38c.1 0 .12-.02.13-.08l.1-.49v-.06c0-.03-.02-.06-.04-.06-.04 0-.06.01-.07.03l-.05.11c-.03.08-.11.12-.22.12h-.24c-.02 0-.04 0-.04-.03v-2.76c0-.06 0-.09-.05-.09zm-17.59 0-.05.05c-.2.18-.46.32-.82.43-.19.06-.2.07-.2.14 0 .05.02.07.05.07a.1.1 0 0 0 .04-.01.83.83 0 0 1 .3-.06c.2 0 .25.1.25.4v2.99c0 .43-.1.57-.41.59-.13 0-.16.02-.16.08s.05.1.15.1l.18-.02.54-.03a9.1 9.1 0 0 1 .73.04c.09 0 .15-.03.15-.09s-.04-.08-.19-.08c-.22-.01-.33-.06-.4-.16a.91.91 0 0 1-.1-.43v-3.86c0-.1-.01-.14-.06-.14zm17.14.88c.01 0 .02 0 .02.02v1.94c0 .04-.02.05-.09.05h-1.09c-.07 0-.11-.01-.11-.04 0-.02 0-.05.03-.07l.54-.92.62-.89c.06-.08.06-.09.08-.09zm-9.94.92-.08.04-.3.17-.34.14c-.11.02-.15.05-.15.1s.03.06.1.06h.07c.18 0 .27.12.27.4v1.48c0 .34-.06.43-.26.46-.06 0-.08.02-.08.05 0 .05.02.07.1.07l.1-.01a4.02 4.02 0 0 1 .97.01c.07 0 .1-.02.1-.07 0-.04-.03-.05-.1-.05-.14 0-.26-.05-.3-.12-.05-.04-.08-.2-.08-.34v-1.36c0-.15.01-.2.1-.27.2-.25.43-.38.69-.38.47 0 .7.33.71.95v1.06c0 .34-.04.43-.24.46-.06 0-.09.02-.09.05 0 .05.03.07.1.07l.11-.01a3.76 3.76 0 0 1 .96.01c.06 0 .1-.02.1-.07 0-.04-.04-.05-.12-.05-.14 0-.25-.05-.3-.12-.03-.05-.05-.15-.05-.34v-1.04c0-.43-.05-.66-.16-.85a.92.92 0 0 0-.8-.4c-.35 0-.77.21-.94.46l-.04.06-.03.03v-.32l.01-.29c0-.03 0-.04-.03-.04zm-2.34.08c-.6 0-1.08.37-1.08.82 0 .12.12.17.39.17.08 0 .12-.03.12-.09 0-.01 0-.04-.03-.09a.63.63 0 0 1-.04-.22c0-.22.2-.38.46-.38.39 0 .54.18.54.61v.4c0 .08 0 .08-.08.1-.2.04-.55.13-.78.2-.14.05-.26.12-.36.18a.73.73 0 0 0-.28.6c0 .4.26.65.67.65.29 0 .63-.14.78-.3l.04-.06.03-.03.01.04.02.06c.06.17.26.3.5.3.14 0 .27-.04.36-.11.06-.04.08-.08.08-.12 0-.03-.02-.05-.06-.05l-.05.02a.35.35 0 0 1-.14.03c-.18 0-.28-.14-.28-.42v-1.61c0-.24-.04-.37-.14-.48a1 1 0 0 0-.68-.22zm6.51.17c.45 0 .8.35.8.8v.89c0 .45-.35.8-.8.8-.54 0-.95-.57-.95-1.31 0-.7.39-1.18.95-1.18zm-6.15 1.26.01.04v.65c0 .32-.25.56-.6.56-.29 0-.43-.16-.43-.46 0-.28.11-.46.37-.57.15-.07.24-.1.55-.18l.06-.03h.04z" class="text" style="fill:#55298a;stroke-width:.26458"/>
    <path d="M55.45 3.16c-.04-.01-.08 0-.11.05l-.66.78a.3.3 0 0 0-.06.13l-.17.91c-.01.1-.05.14-.13.18-1.25.6-2.49 1.22-3.73 1.83l-.16.1.09.08.75.6 1.86 1.48c.28.01.52-.14.77-.22.26-.1.53-.05.8-.07.31.01.55-.17.83-.22.19-.04.36-.08.52-.2.13-.1.3-.16.45-.23.05-.02.1-.04.15-.04.1 0 .19-.06.24-.15.03-.05.07-.06.13-.05.05.01.1-.03.16-.05v-.03l.14.08c.1.06.15.04.18-.08.05-.22.1-.43.13-.65.02-.08.05-.13.12-.16l.96-.49c.17-.1.35-.17.52-.25.28-.15.53-.36.8-.55l-.06-.06-.85-.68c-.17-.13-.34-.26-.48-.4l-1-1.11c-.07-.08-.12-.1-.2-.04-.13.09-.26.08-.41.03-.5-.18-1.02-.34-1.53-.51a.27.27 0 0 0-.05-.01zm3.26 3.63-.92.48a.23.23 0 0 0-.1.13c-.06.2-.1.42-.15.63-.03.18-.1.21-.25.13l-.1-.05c-.05.07-.1.11-.2.06 0 0-.05 0-.06.02-.08.17-.25.17-.4.2l-.34.17-.24.15a.5.5 0 0 1-.17.08c-.24.03-.47.1-.7.2-.1.05-.23.04-.35.06-.17 0-.33 0-.48.02a2 2 0 0 0-.86.3 244.37 244.37 0 0 0 1.88 1.48c.17.01.3.12.4.24l.25.27 2.63 2.18.05.04c.07.08.13.06.2 0l1.6-1.32c.06-.06.1-.09.18-.04.02.01.07 0 .08-.01.05-.05.1-.1.13-.16l.42-.7a552.45 552.45 0 0 0 .73-1.26l.13-.22.15-.2c-.04-.04-.05-.1-.08-.12l-2.36-1.9-1.07-.86zm3.5 2.89c.01 0 .02 0 0 0zm2.7-2.42-.15.1c-.37.19-.69.46-1 .73-.5.43-1 .84-1.37 1.4l-.17.2v-.01l-.08.17.5.38 3.3 2.46 1.1.8.16.08.19.1a.1.1 0 0 1 .04.05c.02.05.02.1.05.15.06.1.03.2-.03.28l-.1.12c-.13.12-.13.18.01.3l.3-.21c.07-.05.15-.07.23-.1l.58-.21.03-.04.12-.13c.04-.05.09-.09.1-.14.1-.3.1-.3.42-.22.08.03.14.01.2-.04a.44.44 0 0 1 .27-.14c.09 0 .2-.13.2-.22.03-.15-.05-.26-.17-.34-.12-.07-.2-.16-.24-.29-.05-.2-.2-.31-.37-.38-.35-.14-.55-.4-.68-.73-.06-.16-.2-.26-.36-.34-.23-.13-.45-.27-.5-.58-.05-.25-.13-.5-.4-.6-.08-.03-.14-.05-.22-.02-.06.03-.15.07-.2.05-.17-.08-.37-.14-.38-.4 0-.1-.07-.2-.05-.28.06-.25.04-.5.03-.74-.01-.23-.07-.43-.26-.58-.08-.06-.14-.13-.24-.16-.16-.04-.3-.05-.44.06-.05.04-.16.03-.23 0-.09-.04-.17-.1-.13-.24.02-.08-.03-.18-.05-.3zm-25.97.36a2.72 2.72 0 0 0-2.77 2.72c0 2.9 3.43 2.38 3.43 3.49 0 .4-.48.45-.78.45-1.49 0-1.59-1.4-2.33-1.4-.25 0-.45.13-.45.95 0 1.3.22 1.56.47 1.56.2 0 .4-.08.6-.08.24 0 .5.08.76.17.26.08.54.17.85.17 1.82 0 3.16-.84 3.16-2.7 0-2.79-3.54-2.6-3.54-3.54 0-.36.34-.46.66-.46 1.31 0 1.73 1.3 2.09 1.3.33 0 .57-.22.53-.54l-.23-1.47c-.04-.3-.13-.56-.46-.56-.11 0-.21.03-.32.05-.12.04-.23.07-.39.07-.18 0-.38-.05-.6-.1a3.36 3.36 0 0 0-.68-.08zm-30.56.16c-.36 0-.44.21-.44.58s.1.45.29.52c.4.16.4.82.4 2.76 0 1.62 0 2.48-.44 2.75-.14.1-.32.1-.32.56 0 .36.05.54.4.54.74 0 1.35-.03 1.96-.03.6 0 1.21.03 1.7.03.38 0 .46-.12.46-.5 0-.4-.06-.44-.46-.6-.35-.13-.58-.25-.58-1.6 0-.61.1-.7.37-.7h1.87c.27 0 .36.09.36.7 0 1.28-.07 1.4-.31 1.6-.15.1-.28.23-.28.46 0 .52.12.64.48.64.44 0 .99-.03 1.54-.03l1.65.03c.35 0 .41-.18.41-.54 0-.46-.18-.47-.33-.56-.43-.27-.43-1.13-.43-2.75 0-1.94 0-2.6.4-2.76.18-.07.28-.15.28-.52s-.08-.58-.44-.58c-.5 0-1 .03-1.52.03-.5 0-1-.03-1.37-.03-.44 0-.66.14-.66.54 0 .65.58.08.58 1.36 0 .92-.02 1.04-.54 1.04h-1.5c-.52 0-.56-.12-.56-1.04 0-1.33.84-.6.84-1.36 0-.52-.22-.54-.59-.54-.58 0-1.06.03-1.53.03s-.94-.03-1.69-.03zm10.04 0c-.35 0-.43.22-.43.6 0 .33.15.34.4.5.2.12.27.2.27.75v2.9c0 2.46 1.3 3.12 3.6 3.12 1.73 0 3.33-.35 3.5-2.24.1-1.25.1-2.53.1-3.8 0-.64.19-.7.31-.73.24-.05.42-.07.42-.6 0-.46-.23-.5-.63-.5l-1.08.03-1.08-.03c-.3 0-.46.05-.46.55 0 .3.14.5.56.55.44.06.5.66.5 2.37 0 2.23-.1 2.82-1.47 2.82-1.2 0-1.55-.72-1.55-1.67V9.86c0-.83.18-.95.37-.98.37-.07.57-.06.57-.59 0-.5-.14-.51-.65-.51l-1.72.03c-.57 0-1.15-.03-1.53-.03zm9.25 0c-.4 0-.5.15-.5.64 0 .4.14.43.32.46.17.03.32.07.32.4v4.48c0 .4-.03.58-.21.63-.33.1-.5.13-.5.52 0 .27 0 .58.41.58.66 0 1.33-.03 2-.03.65 0 1.3.03 1.97.03 1.59 0 3.39-.28 3.39-2.25 0-.94-.36-1.77-1.33-2.02v-.02c.7-.23.96-.72.96-1.47 0-1.32-1.33-1.95-2.49-1.95l-2.07.03-2.27-.03zM30.82 9c.47 0 .89.29.89.83 0 .5-.24.82-.78.82-.31 0-.4-.04-.4-.25V9.25c0-.18.15-.24.29-.24zm31.3.89c-.3.48-.58.97-.87 1.47l-.43.75.56.24c.13-.14.13-.14.18-.06l.18.43.05.02.1-.17.04.02.14.3c.03.07.09.13.13.2l.1.2c0-.01.02-.03.05-.03h.16l-.01.13c-.01.05-.07.1 0 .16.05.06.1.13.2.08.1-.04.13.02.15.11.01.1.04.2.09.3.05.12.1.13.21.08.2-.1.2-.1.32.1l.03.12.02.04.03.04c.08.08.14.02.2-.02.14-.08.15-.08.22.08l-.26.16.15.22.28.46c.03.04.05.1.12.06.02 0 .06.03.08.05a14.12 14.12 0 0 1 .32.5l.7-.48-.6-.55.4-.54.36.25.12-.15c.16.11.33.22.48.34.2.15.3.1.42-.1l-.1-.07.8-.96-.05-.04-.83-.59-4.24-3.15zm1.4 4.5c0-.02-.02-.03-.03-.05l-.16-.25-.38.13-.2-.54c-.09.02-.19.03-.28-.08-.11-.12 0-.2 0-.34l-.23.12-.02-.09a.3.3 0 0 0-.1-.21c-.07-.07-.1-.17-.13-.25l-.08-.18-.17.18-.22-.52-.16.12a.99.99 0 0 0-.52-.23l-.04-.01c-.1.08-.23.07-.35.08l-1.65 1.35c-.18.14-.4.24-.6.35-.08.04-.1.09-.09.17l.07.77c0 .06-.03.12-.06.18l-.44.85c-.06.12-.07.22.02.33.06.07.04.13-.03.18-.1.07-.1.18-.05.25.11.18.05.3-.07.45l-.04.26-.12.03v.1c.03.1.03.16-.04.24-.07.08-.1.2-.14.32l-.25.5c-.01.12-.1.06-.16.06 0 .15-.08.23-.2.3l.07.08-.08.12-.2-.14a14.2 14.2 0 0 1-.1.13l-.02.02.02.02h.59l.55-.02h.48a40.24 40.24 0 0 1 .85-.02l.41-.02h.49l.24-.04.04-.08a.7.7 0 0 1 .02-.07c.11-.2.2-.39.32-.56a2 2 0 0 1 1.1-.75l.17-.06c.04-.02.1-.04.1-.08.02-.05.06-.13-.04-.17-.05-.03-.02-.24.04-.3l.15-.1c.03-.03.04-.08.06-.12.02-.03.05-.08.08-.1.12-.08.22-.15.2-.3 0-.03.05-.07.08-.09l.15-.1c-.05-.07-.03-.1.03-.14l.55-.35.24-.17-.1-.12.33-.38c.03-.03.03-.09.04-.14a2.5 2.5 0 0 0-.07-.11l.16-.1.1-.06.26-.17c-.04-.11-.1-.05-.14-.02l-.15.09a3.08 3.08 0 0 1-.07-.11c0-.02-.02-.03-.03-.05zm-7.63-2.98c-.35.18-.68.34-1 .53-.29.17-.59.26-.9.32-.35.06-.71.1-1.04.25l-1.07.46c-.08.03-.16.07-.23.07-.12 0-.2.05-.28.13l-.2.17c-.01.02-.04.04-.06.04-.16 0-.25.08-.32.21l-.12-.03-.08.01-.2.35c-.01.02 0 .08.01.1.22.17.35.41.5.63.03.04.07.08.1.08.4.07.8.26 1.22.13l.02.01.03.1c.02.13.08.24.17.35.1.1.17.25.2.41.03.21.14.41.33.53.22.14.46.25.69.37l.06.06c.04.11.1.23.1.34 0 .17.08.28.21.38.04.04.06.1.09.16.05.09.08.2.16.25.17.12.3.27.42.42.06.07.14.12.19.2l.31.5.04.11.03.04.32.01.55-.02h.14l.17-.18.1.04c.07-.1.2-.16.2-.3.07 0 .06-.12.16-.08l.44-.87c.02-.03 0-.08 0-.12-.02-.1 0-.15.07-.22.05-.05.06-.14.1-.22l.02-.05c.1-.1.11-.21.03-.35-.05-.1-.05-.22.06-.3l.06-.07-.02-.05c-.14-.15-.08-.3 0-.46.14-.26.28-.52.4-.78a.42.42 0 0 0 .05-.2c-.01-.26-.04-.52-.07-.77 0-.07 0-.1.07-.14l.52-.3-.12-.1a1264.95 1264.95 0 0 1-2.48-2.02c-.05-.05-.1-.1-.15-.13zm-25.17.43c.54 0 1.22.4 1.22 1.26 0 .63-.21 1.06-.9 1.06-.3 0-.47-.08-.47-.35 0-.34-.03-.82-.03-1.24 0-.62 0-.73.18-.73zm32.96 2.93c-.03 0-.08.03-.16.07l-.03.05c.07.07.06.12 0 .18-.12.11-.21.23-.32.35l-.02-.02v.02c.11.17.12.17-.14.3l-.24.17-.38.28c.06.08.04.12-.05.14-.11.03-.16.1-.17.22 0 .05-.08.1-.13.15-.05.06-.16.07-.13.19 0 .02-.05.06-.09.09-.07.06-.18.09-.18.21 0 .06-.01.1.05.14.07.05.03.23-.05.31l.22.01h.16a1.36 1.36 0 0 0 .09.01.5.5 0 0 1 .07 0 2.02 2.02 0 0 0 .11.03h.08c.29.08.55.18.79.34.06.03.1.03.15-.01l.43-.36c.14-.12.3-.22.5-.2.1 0 .22 0 .34-.02.23-.03.45-.08.65-.25-.03-.03-.05-.07-.07-.07-.14-.02-.28-.02-.46-.03l.04-.21c.03-.09.08-.16.12-.24a.5.5 0 0 1 0-.05l.02-.07a.9.9 0 0 1 0-.07l.03-.09v-.05a1.95 1.95 0 0 0-.09-.2.3.3 0 0 1 0-.05.3.3 0 0 0 0-.06h-.09a.34.34 0 0 1-.07-.05l-.09-.05-.25-.38c-.02-.03-.07-.03-.1-.05-.03-.01-.06-.02-.08-.05a19.54 19.54 0 0 1-.33-.49c-.06-.1-.09-.13-.13-.14z" style="fill:#00a877;stroke-width:.16546"/>
  </g>
</svg>
