<svg xmlns="http://www.w3.org/2000/svg" xmlns:xlink="http://www.w3.org/1999/xlink" xml:space="preserve" viewBox="0 0 132.292 92.604">
  <defs>
    <linearGradient id="a">
      <stop offset="0" style="stop-color:#cb151d;stop-opacity:1"/>
      <stop offset=".599" style="stop-color:#670d0e;stop-opacity:1"/>
      <stop offset="1" style="stop-color:#cb151d;stop-opacity:1"/>
    </linearGradient>
    <linearGradient xlink:href="#a" id="c" x1="199.874" x2="207.889" y1="183.396" y2="183.396" gradientTransform="matrix(1.3597 -.60882 -.76993 1.27542 -78.63 -76.417)" gradientUnits="userSpaceOnUse"/>
    <linearGradient id="b">
      <stop offset="0" style="stop-color:#cb151d;stop-opacity:1"/>
      <stop offset=".599" style="stop-color:#670d0e;stop-opacity:1"/>
      <stop offset="1" style="stop-color:#cb151d;stop-opacity:1"/>
    </linearGradient>
    <linearGradient xlink:href="#b" id="d" x1="37.129" x2="75.412" y1="73.307" y2="139.616" gradientTransform="translate(0 -24.763)" gradientUnits="userSpaceOnUse"/>
  </defs>
  <path d="M57.318 3.81c-.018.018-.102.356-.187.752-.086.397-.647 2.906-1.248 5.576a836.8 836.8 0 0 0-1.466 6.611c-.205.966-.425 1.807-.488 1.87-.064.062-.604.264-1.2.448-.597.185-1.485.535-1.974.778-.49.243-1.14.611-1.445.817-.306.206-.618.374-.693.374-.076 0-1.564-.75-3.307-1.668-1.743-.916-3.348-1.78-3.566-1.918-.218-.138-.419-.23-.446-.203-.027.027.123.39.332.805.21.416.601 1.153.87 1.637.27.485.85 1.603 1.292 2.483.442.88.913 1.749 1.048 1.93.134.18.245.356.245.388 0 .033-.248.49-.55 1.014a21.352 21.352 0 0 0-.933 1.852 19.985 19.985 0 0 0-.64 1.752c-.14.47-.29.885-.332.922-.042.036-.378.117-.747.178-.37.062-1.3.257-2.067.434-.767.178-3.253.741-5.526 1.253-2.272.512-4.643 1.02-5.268 1.13-.625.112-1.18.216-1.233.233-.052.017.436.16 1.085.316.65.157 2.506.585 4.125.952 1.62.368 4.222.947 5.784 1.287l3.384.736.542.118.107.422c.058.232.226.771.372 1.197.146.427.418 1.107.605 1.514.187.407.56 1.08.83 1.497l.49.756-.185.314a165.14 165.14 0 0 0-1.522 2.894 148.607 148.607 0 0 1-1.8 3.392c-.255.445-.448.824-.43.843.02.018.546-.244 1.17-.583.626-.34 2.044-1.085 3.152-1.657 1.108-.572 2.27-1.179 2.585-1.349l.572-.308.513.347c.282.19.896.54 1.363.774.468.236 1.453.627 2.19.87l1.337.441.12.733c.066.402.466 2.242.888 4.088.422 1.847.93 4.102 1.13 5.01.2.91.524 2.358.72 3.219.197.86.357 1.646.357 1.747 0 .098.026.15.057.123.031-.032.731-3.072 1.555-6.757.824-3.685 1.555-7.02 1.626-7.411l.129-.71 1.234-.433c.68-.237 1.63-.624 2.113-.859.483-.235 1.157-.61 1.498-.834l.62-.41.155.13c.085.07 1.34.745 2.789 1.5 1.449.756 2.992 1.577 3.43 1.824.439.248.822.45.853.45.03 0 .055-.053.055-.118 0-.066-.552-1.147-1.227-2.402a549.618 549.618 0 0 1-1.77-3.314 28.19 28.19 0 0 0-.684-1.248l-.141-.216.532-.87c.292-.478.671-1.171.842-1.54.17-.37.487-1.206.701-1.858l.39-1.187.704-.17c.388-.094 1.262-.294 1.944-.446a1195.082 1195.082 0 0 1 6.094-1.362c2.216-.49 4.471-.984 5.01-1.095.54-.112 1.026-.245 1.08-.297.06-.057.006-.093-.14-.093-.13 0-1.057-.185-2.06-.41a2625.264 2625.264 0 0 0-10.397-2.287c-.796-.172-1.608-.346-1.806-.387l-.36-.074-.124-.255c-.068-.14-.271-.717-.45-1.283a14.897 14.897 0 0 0-.718-1.808 16.28 16.28 0 0 0-.766-1.345c-.205-.31-.372-.632-.372-.713 0-.082.309-.734.687-1.45.378-.714.773-1.45.877-1.635.104-.185.63-1.213 1.171-2.284.54-1.072.983-1.999.983-2.06 0-.06-.29.064-.646.278-.355.214-1.76.973-3.124 1.686-1.363.712-2.725 1.44-3.026 1.619l-.548.323-.589-.4a15.99 15.99 0 0 0-1.464-.84c-.481-.242-1.411-.614-2.066-.829l-1.19-.39-.08-.243c-.043-.133-.354-1.498-.691-3.032a593.413 593.413 0 0 0-.933-4.184c-.176-.767-.458-2.044-.627-2.84-.168-.795-.475-2.156-.68-3.024-.206-.869-.388-1.565-.405-1.548Zm.096 1.99.082.413c.045.227.27 1.46.503 2.738.232 1.278.72 3.741 1.083 5.474.364 1.733.693 3.348.731 3.59l.07.439-.608-.019c-.334-.01-.91-.044-1.279-.077l-.671-.06-.033-3.821a198.85 198.85 0 0 1 .045-6.25zm-.075 4.342c-.01-.148-.018 1.007-.018 3.094 0 2.784.013 3.938.03 2.564.016-1.374.016-3.652 0-5.062a16.472 16.472 0 0 0-.012-.596zm3.17 3.961c-.086.001-.137.01-.137.03 0 .05.064.245.142.431l.142.34.814.232c.447.127 1.3.394 1.897.592.597.198 1.69.662 2.428 1.03.738.37 1.738.945 2.22 1.279l.88.606.307-.045c.17-.025.371-.108.447-.183l.137-.138-.487-.43a13.552 13.552 0 0 0-1.221-.912 23.368 23.368 0 0 0-1.56-.923 22.618 22.618 0 0 0-1.883-.858 22.15 22.15 0 0 0-1.851-.637 18.246 18.246 0 0 0-1.604-.347 4.529 4.529 0 0 0-.67-.067zm-6.619.013c-.213 0-.921.135-1.575.301a22.57 22.57 0 0 0-2.376.781c-.653.263-1.49.645-1.859.85-.37.203-1.044.61-1.5.905-.455.294-1 .687-1.213.873-.212.187-.386.397-.386.468 0 .07.105.178.233.24s.302.116.387.12c.085.003.643-.323 1.24-.726a22.717 22.717 0 0 1 2.324-1.332c.682-.33 1.611-.719 2.065-.865a37.415 37.415 0 0 1 1.803-.517l.977-.25.127-.347c.069-.191.128-.382.133-.424.004-.043-.167-.077-.38-.077zm-.368 2.065c-.131 0-.607.096-1.058.213-.451.118-1.285.398-1.853.623-.568.226-1.405.624-1.86.884-.454.26-1.07.66-1.368.887-.299.227-.542.469-.542.536 0 .067.127.173.284.235.156.061.302.117.324.123.022.006.335-.175.694-.402a22.628 22.628 0 0 1 3.397-1.688 30.13 30.13 0 0 1 1.41-.48c.377-.115.714-.282.749-.372.034-.09.062-.252.062-.36v-.199zm7.344 0 .07.284c.038.157.125.338.192.404.067.067.54.247 1.051.4a19.85 19.85 0 0 1 1.912.715c.54.24 1.423.698 1.962 1.019.54.32 1.098.582 1.24.581.142 0 .37-.064.506-.14l.248-.136-.816-.575a17.326 17.326 0 0 0-1.849-1.093 22.664 22.664 0 0 0-1.75-.784 17.906 17.906 0 0 0-1.516-.472c-.438-.112-.899-.203-1.024-.203Zm-3.69 3.395 1.16.12c.637.066 1.476.186 1.864.267.389.08 1.054.262 1.478.405.425.142 1.188.466 1.696.719.508.253 1.19.642 1.517.865.327.223.95.712 1.387 1.085.435.373 1.07 1.002 1.41 1.397.34.395.81 1 1.044 1.345a15.226 15.226 0 0 1 1.535 3.057c.115.341.317 1.132.45 1.756l.241 1.137v3.306l-.24 1.084a19.545 19.545 0 0 1-.647 2.17 14.696 14.696 0 0 1-.973 2.022c-.312.515-.896 1.329-1.298 1.807a16.992 16.992 0 0 1-1.47 1.52c-.408.358-1.16.914-1.671 1.234-.512.32-1.395.78-1.963 1.022-.568.241-1.497.564-2.065.717l-1.034.278-1.962.03c-1.08.018-2.195-.006-2.479-.052a15.58 15.58 0 0 1-1.179-.259 20.524 20.524 0 0 1-1.482-.473 14.801 14.801 0 0 1-1.61-.726 15.942 15.942 0 0 1-1.41-.87c-.341-.244-.936-.733-1.32-1.087-.386-.354-.97-.975-1.3-1.38a23.176 23.176 0 0 1-1.015-1.357c-.23-.34-.558-.898-.73-1.239-.171-.34-.456-1.03-.633-1.53-.176-.5-.422-1.384-.546-1.963l-.225-1.052.003-1.55.001-1.55.229-1.083c.126-.597.34-1.416.475-1.82a15.34 15.34 0 0 1 .53-1.342c.157-.335.468-.91.69-1.278.224-.368.674-1.018 1-1.446.326-.427.866-1.036 1.2-1.353.334-.317.985-.855 1.447-1.197a15.895 15.895 0 0 1 1.86-1.141c.56-.286 1.321-.618 1.69-.738.37-.12 1.067-.31 1.55-.422.482-.113 1.31-.257 1.836-.32zm-14.853 1.232-.279.295c-.153.162-.575.736-.937 1.276-.361.54-.865 1.376-1.118 1.859a22.2 22.2 0 0 0-.827 1.808 27.205 27.205 0 0 0-.679 2.014c-.172.596-.343 1.343-.38 1.66l-.067.574.37-.043c.204-.024.413-.097.465-.162.052-.065.172-.467.266-.893.093-.426.29-1.146.435-1.6.146-.455.559-1.432.916-2.17a26.215 26.215 0 0 1 1.438-2.53l.787-1.187-.194-.45Zm30.115.083-.19.254c-.106.139-.213.328-.237.421-.025.096.242.568.613 1.085.362.504.957 1.52 1.323 2.258.366.739.788 1.692.94 2.118.15.426.4 1.286.554 1.911l.28 1.136.46.115c.253.063.472.106.487.094.015-.012-.046-.412-.136-.89-.09-.478-.378-1.519-.641-2.314-.263-.795-.715-1.911-1.004-2.48a27.153 27.153 0 0 0-1.329-2.239c-.442-.664-.875-1.266-.962-1.338zm-.925 1.883-.197.177a1.036 1.036 0 0 0-.257.37l-.061.192.644 1.06c.354.582.782 1.362.95 1.731.168.37.504 1.273.747 2.009l.441 1.338.19.075c.106.042.297.079.424.083.128.004.233-.033.233-.083s-.134-.55-.297-1.11a24.52 24.52 0 0 0-.628-1.848 25.624 25.624 0 0 0-.902-1.917c-.315-.6-.733-1.314-.93-1.585zm-28.315.121c-.088 0-.377.337-.642.75a19.016 19.016 0 0 0-.931 1.678c-.247.511-.59 1.288-.765 1.727-.174.44-.41 1.156-.525 1.595-.115.438-.208.885-.208.992v.196l.335-.07c.185-.04.386-.125.448-.19.061-.065.243-.574.403-1.13.16-.556.555-1.556.878-2.222.322-.665.78-1.516 1.017-1.891.237-.376.428-.77.427-.878a.755.755 0 0 0-.14-.376c-.076-.1-.21-.18-.297-.18zm-.668 7.82-.063.557c-.035.307-.094.896-.131 1.307l-.067.749h-4.971c-2.734 0-5.494.03-6.133.068-.639.037-1.162.04-1.162.008s.244-.113.542-.179c.299-.065 1.775-.373 3.28-.685 1.506-.311 3.97-.818 5.475-1.126 1.505-.308 2.848-.591 2.984-.63zm29.775 2.664h5.964c3.28 0 5.86.03 5.732.067-.128.036-.581.144-1.007.242-.426.098-2.588.548-4.803 1l-4.722.966c-.381.077-.785.19-.897.25a.986.986 0 0 1-.27.11c-.035 0-.05-.593-.031-1.317zm-34.031 3.047c-.175 0-.317.031-.317.068 0 .037.139.63.308 1.317.17.688.516 1.798.77 2.469.255.67.7 1.67.988 2.22.29.552.897 1.526 1.35 2.165.453.639.866 1.162.915 1.162.05 0 .141-.146.204-.325.062-.18.114-.393.114-.475 0-.082-.284-.574-.63-1.092a24.29 24.29 0 0 1-1.24-2.156 23.522 23.522 0 0 1-1.064-2.586c-.25-.754-.51-1.639-.576-1.966l-.12-.594-.193-.103a1.31 1.31 0 0 0-.51-.104zm38.23.03a2.719 2.719 0 0 0-.323.034c-.24.038-.45.12-.467.184-.018.063-.134.556-.26 1.096-.125.54-.457 1.586-.737 2.324-.28.739-.748 1.76-1.037 2.272-.29.511-.801 1.296-1.137 1.743l-.612.814.186.452c.102.248.22.451.26.452.04 0 .17-.105.29-.233.119-.128.49-.632.823-1.12.335-.487.864-1.37 1.176-1.962.312-.591.735-1.491.939-1.999.203-.508.539-1.612.745-2.454.206-.842.35-1.556.32-1.586-.014-.014-.077-.02-.165-.017zm-36.401.384.074.49c.04.269.23.973.425 1.565.193.591.554 1.5.8 2.02.247.52.623 1.222.837 1.56.214.338.505.768.646.956.146.194.33.327.425.308.093-.017.212-.153.264-.301l.095-.27-.538-.89a23.69 23.69 0 0 1-.963-1.795c-.234-.498-.6-1.44-.813-2.093-.248-.756-.47-1.252-.613-1.368-.124-.1-.318-.182-.432-.182Zm34.36.015a1.48 1.48 0 0 0-.235.033c-.17.038-.354.124-.407.191-.054.068-.247.611-.43 1.207-.183.597-.516 1.48-.74 1.963a27.31 27.31 0 0 1-1.031 1.93l-.622 1.05.164.317c.09.175.21.318.264.318.055 0 .244-.197.42-.439.175-.241.568-.88.874-1.42.305-.54.695-1.32.865-1.735.17-.414.478-1.337.682-2.05.205-.714.35-1.321.322-1.35-.013-.013-.061-.018-.127-.015zM67.106 47.04l-.863.52c-.474.287-1.257.713-1.74.947-.483.234-1.412.594-2.066.8-.653.206-1.243.425-1.31.487-.067.062-.156.248-.196.413l-.074.3.611-.063c.336-.036.982-.186 1.436-.335.453-.148 1.428-.564 2.167-.922.739-.358 1.665-.877 2.06-1.153.393-.277.733-.558.755-.626.022-.07-.14-.176-.37-.246zm-19.48.005-.393.118c-.216.065-.393.175-.393.243 0 .069.256.311.569.538.312.228.971.63 1.463.896.492.265 1.316.65 1.832.854.516.203 1.24.46 1.61.568.37.108.846.201 1.059.205l.387.008v-.187a.707.707 0 0 0-.129-.359c-.07-.094-.687-.361-1.368-.594a23.91 23.91 0 0 1-2.283-.933 20.32 20.32 0 0 1-1.698-.933zm21.501.951c-.114 0-.511.217-.882.481-.37.265-1.097.72-1.614 1.012-.517.292-1.382.72-1.922.95-.54.232-1.26.517-1.6.635-.341.118-.993.295-1.447.393-.455.099-.88.23-.946.29-.066.062-.167.286-.224.5l-.104.387h.2c.109 0 .628-.094 1.152-.21.525-.115 1.381-.35 1.902-.522.521-.172 1.55-.61 2.287-.974.737-.364 1.832-.991 2.433-1.393.601-.402 1.165-.834 1.254-.96l.161-.228-.22-.18c-.123-.1-.315-.181-.43-.181Zm-23.475 0c-.057 0-.254.093-.44.206-.184.112-.335.246-.335.298 0 .052.151.19.336.304.185.116.754.493 1.265.839.511.346 1.325.834 1.807 1.084.483.25 1.23.593 1.66.764.43.17 1.268.45 1.86.62.593.17 1.287.356 1.542.411.256.055.546.105.646.111l.18.01v-.335c-.002-.185-.037-.39-.08-.456-.042-.067-.548-.241-1.123-.387a27.665 27.665 0 0 1-1.961-.587c-.503-.176-1.507-.622-2.229-.988-.722-.367-1.698-.942-2.169-1.28-.47-.337-.902-.613-.959-.613Zm9.437.23c.182.003.434.016.711.037.554.043 1.087.075 1.186.069.098-.006.208.035.243.092.035.057.062 2.042.06 4.41-.004 2.368-.011 5.015-.02 5.881-.007.866-.031 1.575-.052 1.575-.021 0-.068-.174-.104-.387a446.97 446.97 0 0 0-.775-3.952c-.39-1.96-.896-4.481-1.126-5.604-.23-1.122-.419-2.068-.419-2.101 0-.017.113-.024.296-.02z" style="fill:#000;fill-opacity:1;stroke-width:1.48979" transform="translate(8.81 -.476)"/>
  <path d="m54.807 31.048 11.27-6.52-6.119 11.16-11.364 6.552Z" style="fill:url(#c);fill-rule:evenodd;stroke-width:.384353" transform="translate(8.81 -.476)"/>
  <path d="M-4.368 73.11c-.673-2.253-1.856-6.933-1.793-7.097.041-.108.173-.126.62-.085.314.028.603.086.645.13.071.073.261.83.953 3.794.3 1.29.3 1.292.43.98.072-.172.355-1.11.63-2.085.274-.975.548-1.94.608-2.145.145-.496.39-.7.84-.7.44 0 .425-.028.881 1.68.44 1.646.96 3.47 1.002 3.512.054.054.976-3.543 1.23-4.795.033-.166.093-.322.134-.347.04-.025.355-.02.7.013.576.054.624.075.583.254-.11.486-1.396 5.441-1.672 6.447l-.308 1.12-.449.051c-.268.03-.507.01-.592-.053-.132-.097-1.035-2.983-1.396-4.461l-.155-.638-.12.285c-.066.157-.417 1.282-.78 2.5-.362 1.218-.69 2.242-.728 2.277-.038.034-.283.088-.544.121l-.474.06zm7.865.697c0-.05.352-1.04.782-2.202a494.16 494.16 0 0 0 1.368-3.744c.323-.898.628-1.687.68-1.753.06-.08.268-.112.613-.094l.522.028 1.276 3.498c.702 1.925 1.343 3.637 1.423 3.805.08.169.146.349.146.4 0 .058-.278.084-.714.068l-.713-.028-.49-1.446C7.184 68.764 7 68.265 6.9 68.265c-.058 0-.317.637-.575 1.414l-.469 1.414.643-.006c.475-.006.665.03.73.133.108.173.222.892.158.996-.026.042-.436.056-.91.03-.51-.028-.91-.009-.98.047-.064.05-.207.368-.318.704-.111.336-.23.656-.266.711-.082.129-1.416.222-1.416.1zm78.274-.015c-.629-.174-.949-.368-1.377-.832-.605-.657-.696-1.107-.659-3.258.029-1.65.049-1.834.252-2.285.594-1.318 2.405-1.95 3.743-1.307.604.291.716.379 1.06.836.3.398.637 1.226.57 1.402-.033.085-.221.11-.658.088l-.613-.032-.169-.394c-.211-.494-.672-.89-1.06-.912-.892-.052-1.268.125-1.57.737-.205.417-.22.553-.22 2.079 0 1.943.09 2.235.79 2.589.872.44 1.637.175 2.024-.7.166-.376.262-.493.37-.452.079.03.35.055.603.055.432 0 .459.014.459.244 0 .353-.541 1.313-.912 1.619-.38.313-1.378.66-1.866.648a3.845 3.845 0 0 1-.767-.125zm6.873-.146c-.694-.332-1.032-.658-1.349-1.304-.25-.509-.253-.54-.253-2.382 0-2.295.078-2.6.845-3.3.654-.598 1.227-.797 2.129-.737 1.155.075 2.124.739 2.451 1.677.146.418.172.785.171 2.36-.001 1.762-.014 1.894-.223 2.36-.13.288-.395.645-.638.86-.413.363-1.322.786-1.435.667-.032-.034-.086-.28-.12-.549-.065-.523-.027-.591.552-.994.473-.328.556-.69.558-2.437.001-1.516-.009-1.604-.228-1.987-.303-.529-.697-.765-1.274-.765-.585 0-.99.246-1.268.766-.2.374-.214.507-.214 2.086v1.686l.263.398c.145.219.386.468.536.553.245.14.273.203.273.633 0 .666-.114.726-.776.41zm7.739.16c-.105-.077-.627-1.497-1.416-3.85-.687-2.05-1.25-3.776-1.252-3.835-.003-.129.887-.216 1.175-.115a.428.428 0 0 1 .244.285c.062.29 1.486 4.871 1.53 4.92.018.022.06.014.092-.018.077-.078 1.16-3.361 1.442-4.373l.224-.803.7-.047c.386-.025.715-.034.731-.02.037.033-2.479 7.606-2.575 7.752-.111.17-.71.24-.895.104zm-83.667-1.583-.037-1.61-1.152-2.265c-.633-1.247-1.135-2.28-1.116-2.296.02-.017.321-.056.67-.087l.633-.057.684 1.42c.377.78.75 1.503.828 1.605.136.176.186.101.922-1.387l.777-1.574.677-.02c.372-.011.676.016.676.06 0 .123-1.757 3.601-2.036 4.03-.244.376-.25.423-.28 2.087l-.031 1.703h-1.177zm9.4 1.42c-.584-.227-1.102-.731-1.377-1.34-.203-.449-.216-.59-.216-2.39 0-1.793.013-1.94.213-2.373.334-.727.656-1.08 1.223-1.346.444-.208.65-.245 1.363-.245.726.001.902.035 1.306.247 1.283.677 1.594 1.508 1.518 4.063-.052 1.753-.215 2.316-.83 2.873-.39.352-1.084.7-1.396.7-.157 0-.179-.07-.179-.59 0-.576.007-.591.315-.738.215-.103.386-.294.537-.6.207-.421.221-.556.221-2.037 0-1.474-.015-1.614-.213-1.986-.31-.579-.684-.785-1.35-.742-.638.04-.969.249-1.234.775-.155.308-.19.601-.22 1.815-.02.891.007 1.598.072 1.838.127.473.465.894.842 1.05.212.088.27.165.242.316-.02.11-.04.357-.044.55-.008.412-.102.43-.793.16zm6.104-3.725v-3.923h5.131v1.12l-1.656.017c-.91.01-1.761.021-1.89.027l-.233.009-.026 1.14-.026 1.14h1.62c.89 0 1.637.016 1.659.038.021.021.024.273.007.56l-.032.52h-3.256l.013 1.61.012 1.61-.662.027-.661.027zm9.911.019.024-3.895.63-.028.63-.027v6.725h3.732v1.12h-5.04zm6.695-.023v-3.919h1.306v7.837h-1.306zm3.639 1.274c0-1.454-.028-3.218-.062-3.919l-.06-1.274h5.253v.412c0 .747.108.708-1.97.708h-1.855v2.332h3.172v1.12H49.77V73.832h-1.306zm6.81-1.274v-3.919h5.14l-.027.537-.029.536-1.889.025-1.889.026V69.26h3.359v.458c0 .794.092.754-1.736.754H56.58v2.24h3.825V73.831h-5.131Zm10.076 0v-3.919h1.85c2.182 0 2.508.074 3.084.7.987 1.07.789 2.807-.393 3.452-.209.114-.343.256-.343.364 0 .098.357.868.793 1.712.436.845.793 1.552.793 1.572 0 .02-.337.037-.749.037h-.749l-.747-1.516c-.537-1.09-.773-1.681-.84-2.104-.05-.323-.07-.624-.043-.668.028-.044.217-.109.42-.143.47-.08.945-.396 1.11-.74.172-.357.01-.892-.363-1.207-.327-.275-.805-.362-1.77-.322l-.7.03-.025 3.335-.024 3.335H65.35zm7.65 0v-3.919h2.513c1.65 0 2.535.034 2.574.098.033.053.032.305-.003.56l-.064.462h-1.47c-.81 0-1.668.027-1.907.06l-.436.06.026.989.026.99 1.61-.028 1.609-.028v1.315h-3.271l.026 1.097.026 1.096 1.947.025 1.948.025-.058.29c-.032.16-.058.41-.058.558v.268H73zm28.268 0v-3.919H106.316l-.028.537-.028.536-1.772.058c-.975.032-1.804.063-1.843.07-.038.007-.07.474-.07 1.038v1.027h3.266v.458c0 .793.086.754-1.69.754h-1.576v2.24h3.732V73.831h-5.038zm6.997 2.534c0-.762-.028-2.525-.061-3.919l-.062-2.534h1.95c1.857.002 1.974.012 2.418.222.87.412 1.279 1.075 1.271 2.064-.007.923-.358 1.566-1.048 1.917-.462.236-.481.163.534 2.073.43.81.782 1.491.782 1.516 0 .025-.335.045-.745.045h-.746l-.693-1.385c-1.05-2.094-1.224-2.889-.661-3.005.357-.073.845-.327 1.078-.56.125-.125.181-.31.181-.594 0-.513-.324-.939-.822-1.077-.375-.104-1.525-.128-1.86-.038l-.21.057v6.602h-1.306zm8.94-.246-.03-1.63-1.096-2.185c-.603-1.202-1.097-2.225-1.097-2.275 0-.165 1.05-.217 1.283-.064.116.076.21.183.21.237 0 .175 1.31 2.789 1.398 2.789.047 0 .24-.325.429-.723l.75-1.58.405-.859.678.055c.373.03.687.06.698.069.011.008-.046.138-.127.29-.082.152-.593 1.136-1.137 2.188l-.988 1.913-.034 1.702-.034 1.703h-1.276z" style="fill:#000;stroke-width:.651328" transform="translate(8.81 -.476)"/>
  <path d="M20.213 84.235c-.114-.137-.1-.44.052-1.142l.065-.303h-.483c-.266 0-.464.033-.439.073.052.084-.158 1.15-.258 1.312-.078.126-.42.14-.603.024-.126-.08-.122-.215.04-1.146.058-.335.052-.343-.253-.373-.243-.023-.32-.077-.343-.242-.024-.173.048-.246.397-.4.388-.172.426-.219.426-.512 0-.207-.044-.322-.125-.322-.183 0-.434-.31-.434-.535 0-.154.077-.208.366-.257l.367-.061.064-.6.064-.6h.936l-.068.35c-.186.962-.221.864.313.864h.477l.009-.397c.017-.733.094-.863.508-.863.406 0 .392-.042.27.809-.06.407-.05.437.156.466.24.034.43.42.333.673-.049.128-.232.151-1.169.151h-1.11l-.06.298c-.033.168-.016.34.04.396.054.055.58.113 1.167.13l1.068.032v.313c0 .301-.015.314-.391.342l-.392.029-.128.697c-.07.384-.171.75-.226.816-.134.163-.493.15-.636-.022zm14.461-.056c-.463-.14-.93-.522-1.082-.885-.097-.232-.13-.8-.13-2.227v-1.915h.84v1.86c0 1.819.004 1.867.218 2.116.182.21.299.256.68.262.295.004.553-.053.715-.159l.252-.165v-3.914h.933v1.936c0 2.204-.046 2.388-.705 2.848-.43.3-1.179.406-1.72.243zm7.176.017c-.873-.17-1.321-.646-.972-1.033.15-.165.171-.163.638.054.885.412 1.848.245 1.977-.343.093-.422-.139-.603-1.07-.834-1.033-.258-1.296-.404-1.468-.816-.182-.435-.12-1.16.129-1.496.498-.672 1.188-.86 2.115-.573.8.247 1.146.697.712.93-.14.074-.254.063-.461-.044-.418-.216-1.425-.193-1.633.038-.156.171-.243.779-.129.893.03.03.458.135.953.235 1.035.208 1.303.354 1.555.847.229.449.23.835.004 1.276-.416.811-1.184 1.094-2.35.866zm36.542-.135c-.091-.34-.065-.41.27-.728.26-.246.348-.424.43-.87.116-.618.056-1.988-.1-2.278-.219-.411-1.285-.34-1.62.109-.163.219-.188.39-.185 1.263.004 1.073.054 1.248.51 1.773.33.38.37.86.073.86-.308 0-.978-.52-1.17-.906-.147-.294-.176-.567-.176-1.616 0-1.165.018-1.297.234-1.717.284-.552.704-.798 1.468-.861.649-.054 1.259.213 1.576.69.382.576.517 2.109.276 3.133-.173.737-.547 1.124-1.235 1.28-.254.057-.306.038-.351-.132zm-52.58-2.39v-2.52h.84V81.299h1.959v-2.146h.839v5.038h-.84v-2.146h-1.959v2.146h-.84zm23.23.377v-2.142l-.723-.027-.723-.027v-.654l1.889-.025 1.89-.025v.263c0 .399-.157.487-.86.487h-.634v4.292h-.84zm5.877-.375v-2.521h.84v4.291H58.196l-.03.35-.028.35-1.61.026-1.609.025zm6.81.29c0-1.226-.025-2.36-.057-2.52l-.059-.291H65.1l-.03.35-.028.35-1.19.026-1.19.026V81.297H64.81v.277c0 .39-.215.47-1.254.47h-.892v1.4h2.425v.316c0 .202-.053.337-.147.373-.081.031-.837.057-1.68.057H61.73zm7.091-.199c0-1.334-.01-2.457-.023-2.496-.013-.038.176-.082.42-.098l.443-.029v2.156H71.633l-.024-1.05-.025-1.049.484-.028.484-.028v5.048h-.933l-.015-.957a57.725 57.725 0 0 1-.01-1.073c.003-.086-.25-.116-.965-.116h-.97v2.146h-.839Zm15.114-.102v-2.528l1.334.032c1.482.036 1.703.11 1.992.663.245.469.215 1.36-.058 1.744-.274.385-.935.693-1.31.61-.51-.111-.438-.699.085-.699a.934.934 0 0 0 .455-.145c.17-.12.207-.234.207-.65 0-.617-.11-.698-.95-.696-1.1.003-1.009-.194-1.009 2.155v2.042h-.746zm7.277.009v-2.519h1.635c1.77 0 1.82.015 1.636.497l-.094.25h-2.346l.028.676.027.676.933.023c1.3.033 1.37.055 1.335.423l-.029.3-1.143.027-1.142.026v.585c0 .33.048.633.112.697.074.074.48.112 1.212.112h1.101v.316c0 .203-.053.337-.147.373-.082.031-.816.057-1.633.057h-1.485z" style="fill:url(#d);stroke-width:.651328" transform="translate(8.81 -.476)"/>
</svg>
