<?xml version="1.0" encoding="UTF-8" standalone="no"?>
<!-- Created with Inkscape (http://www.inkscape.org/) -->

<svg
   width="500"
   height="350"
   viewBox="0 0 132.29166 92.604169"
   version="1.1"
   id="svg1"
   xml:space="preserve"
   inkscape:version="1.4 (86a8ad7, 2024-10-11)"
   sodipodi:docname="hustlehope.svg"
   xmlns:inkscape="http://www.inkscape.org/namespaces/inkscape"
   xmlns:sodipodi="http://sodipodi.sourceforge.net/DTD/sodipodi-0.dtd"
   xmlns:xlink="http://www.w3.org/1999/xlink"
   xmlns="http://www.w3.org/2000/svg"
   xmlns:svg="http://www.w3.org/2000/svg"><sodipodi:namedview
     id="namedview1"
     pagecolor="#ffffff"
     bordercolor="#111111"
     borderopacity="1"
     inkscape:showpageshadow="0"
     inkscape:pageopacity="0"
     inkscape:pagecheckerboard="1"
     inkscape:deskcolor="#d1d1d1"
     inkscape:document-units="px"
     inkscape:zoom="1.1111933"
     inkscape:cx="242.98203"
     inkscape:cy="320.3763"
     inkscape:window-width="1920"
     inkscape:window-height="1115"
     inkscape:window-x="-9"
     inkscape:window-y="-9"
     inkscape:window-maximized="1"
     inkscape:current-layer="layer1" /><defs
     id="defs1"><linearGradient
       id="linearGradient95"><stop
         style="stop-color:#cb151d;stop-opacity:1;"
         offset="0"
         id="stop2" /><stop
         style="stop-color:#670d0e;stop-opacity:1;"
         offset="0.59860384"
         id="stop3" /><stop
         style="stop-color:#cb151d;stop-opacity:1;"
         offset="1"
         id="stop4" /></linearGradient><linearGradient
       inkscape:collect="always"
       xlink:href="#linearGradient95"
       id="linearGradient93"
       x1="199.87392"
       y1="183.39598"
       x2="207.88913"
       y2="183.39598"
       gradientUnits="userSpaceOnUse"
       gradientTransform="matrix(1.3597078,-0.60882348,-0.76992571,1.2754159,-78.630678,-76.417319)" /><linearGradient
       id="linearGradient95-1"><stop
         style="stop-color:#cb151d;stop-opacity:1;"
         offset="0"
         id="stop93" /><stop
         style="stop-color:#670d0e;stop-opacity:1;"
         offset="0.59860384"
         id="stop94" /><stop
         style="stop-color:#cb151d;stop-opacity:1;"
         offset="1"
         id="stop95" /></linearGradient><linearGradient
       inkscape:collect="always"
       xlink:href="#linearGradient95-1"
       id="linearGradient2"
       x1="37.128632"
       y1="73.307327"
       x2="75.412086"
       y2="139.61621"
       gradientUnits="userSpaceOnUse"
       gradientTransform="translate(0,-24.763168)" /></defs><g
     inkscape:label="Layer 1"
     inkscape:groupmode="layer"
     id="layer1"
     transform="translate(8.809973,-0.47630373)"><path
       id="path59"
       style="fill:#000000;fill-opacity:1;stroke-width:1.48979"
       d="m 57.317766,3.8101461 c -0.01743,0.017415 -0.101762,0.3557603 -0.187088,0.7521632 -0.08537,0.3964029 -0.646939,2.9059928 -1.247952,5.5761667 -0.601027,2.670174 -1.260721,5.645063 -1.465832,6.610871 -0.20513,0.965809 -0.424485,1.806763 -0.488102,1.869244 -0.06361,0.06248 -0.603706,0.264547 -1.200234,0.448833 -0.596541,0.184288 -1.484827,0.534128 -1.973937,0.777569 -0.489116,0.24344 -1.139554,0.611096 -1.445053,0.816832 -0.305495,0.205735 -0.617337,0.374157 -0.692871,0.374157 -0.07552,0 -1.563429,-0.750677 -3.306601,-1.667538 -1.743156,-0.916865 -3.347779,-1.7801 -3.566034,-1.918517 -0.218254,-0.138416 -0.418943,-0.22932 -0.445759,-0.202475 -0.02682,0.02684 0.122462,0.388636 0.331821,0.804514 0.209434,0.415878 0.600965,1.152776 0.869948,1.637513 0.26898,0.484737 0.850133,1.602242 1.29184,2.482831 0.441692,0.88059 0.91327,1.748444 1.047798,1.929292 0.134528,0.18085 0.244817,0.356099 0.244817,0.388785 0,0.03268 -0.247559,0.488899 -0.549687,1.01392 -0.302129,0.525019 -0.722011,1.358081 -0.933084,1.851536 -0.211075,0.493455 -0.498201,1.282134 -0.638985,1.752222 -0.140637,0.470091 -0.290569,0.884721 -0.332582,0.921534 -0.04201,0.0368 -0.378272,0.117052 -0.747547,0.178611 -0.369273,0.06156 -1.299377,0.257014 -2.066337,0.434207 -0.766974,0.177192 -3.253638,0.740991 -5.526117,1.252578 -2.272494,0.511585 -4.643286,1.020307 -5.268222,1.130938 -0.624937,0.110634 -1.179675,0.214808 -1.232562,0.231731 -0.05289,0.01693 0.435301,0.159592 1.084745,0.316415 0.649444,0.156826 2.50581,0.585109 4.124957,0.952331 1.619148,0.367223 4.221704,0.946113 5.784032,1.286452 1.562341,0.340339 3.085053,0.671518 3.383578,0.735996 l 0.54276,0.117781 0.106217,0.421888 c 0.05855,0.232355 0.225837,0.771828 0.371837,1.197917 0.145997,0.426093 0.418242,1.106782 0.605121,1.513564 0.186865,0.406782 0.560669,1.080414 0.829917,1.496626 l 0.489633,0.756784 -0.183986,0.313336 c -0.101008,0.171217 -0.785954,1.473635 -1.522045,2.893942 -0.73609,1.420305 -1.546445,2.946713 -1.800722,3.392044 -0.254277,0.445332 -0.447444,0.824401 -0.428821,0.843009 0.01862,0.0186 0.545292,-0.243576 1.170213,-0.582793 0.624937,-0.339215 2.043231,-1.084714 3.151069,-1.656757 1.107836,-0.572045 2.27084,-1.179048 2.585229,-1.348812 l 0.572005,-0.308719 0.512741,0.34721 c 0.282138,0.190926 0.895797,0.539352 1.363439,0.774492 0.46763,0.235137 1.45271,0.626364 2.188741,0.869183 l 1.338037,0.441904 0.120071,0.732146 c 0.06615,0.402712 0.465634,2.242381 0.887664,4.088775 0.422013,1.846399 0.931089,4.101319 1.130944,5.010317 0.199855,0.908993 0.52366,2.357176 0.71982,3.218053 0.196163,0.860882 0.356446,1.646647 0.356446,1.746836 0,0.09843 0.02636,0.151088 0.0569,0.123179 0.03144,-0.03149 0.731457,-3.072145 1.555145,-6.757146 0.823675,-3.685005 1.555191,-7.019927 1.625957,-7.410767 l 0.128571,-0.710592 1.23487,-0.431893 c 0.67909,-0.237568 1.62962,-0.624377 2.112519,-0.859175 0.4829,-0.234799 1.157297,-0.609989 1.498176,-0.834537 l 0.619739,-0.408805 0.154744,0.128571 c 0.08522,0.07043 1.340526,0.745822 2.78924,1.501246 1.4487,0.755425 2.992212,1.576122 3.430537,1.823819 0.43833,0.247695 0.82186,0.450375 0.852251,0.450375 0.03041,0 0.05542,-0.05366 0.05542,-0.119328 0,-0.06569 -0.552082,-1.146787 -1.227183,-2.401989 -0.675095,-1.255208 -1.471659,-2.746057 -1.769929,-3.313523 -0.298284,-0.567462 -0.60572,-1.129164 -0.683634,-1.247957 l -0.141679,-0.215565 0.531993,-0.869952 c 0.292518,-0.478388 0.671279,-1.172001 0.842233,-1.541279 0.170969,-0.369281 0.486746,-1.205282 0.701351,-1.857699 l 0.390322,-1.186367 0.703656,-0.170141 c 0.387318,-0.09386 1.262179,-0.294413 1.943922,-0.445754 0.681743,-0.151344 1.42567,-0.319283 1.652907,-0.372616 0.227254,-0.05334 2.225713,-0.49829 4.44139,-0.989286 2.215671,-0.490995 4.470586,-0.984012 5.010306,-1.095523 0.539721,-0.111527 1.025422,-0.244898 1.079352,-0.296399 0.06004,-0.05729 0.0059,-0.09394 -0.139292,-0.09394 -0.130507,0 -1.058051,-0.184421 -2.060946,-0.409571 -1.002908,-0.225149 -3.426754,-0.760803 -5.386777,-1.190989 -1.960025,-0.430188 -4.214941,-0.923307 -5.010311,-1.095524 -0.79537,-0.172217 -1.607632,-0.346544 -1.805341,-0.387245 l -0.359532,-0.07391 -0.124689,-0.254828 c -0.06868,-0.140157 -0.271277,-0.71783 -0.450381,-1.28337 -0.179104,-0.565538 -0.502549,-1.378981 -0.718288,-1.807654 -0.215722,-0.428676 -0.560086,-1.033791 -0.765242,-1.344963 -0.205147,-0.311171 -0.372614,-0.632118 -0.372614,-0.71367 0,-0.08155 0.30921,-0.73378 0.687493,-1.448894 0.378289,-0.715113 0.773186,-1.451198 0.876875,-1.635973 0.103688,-0.184777 0.630375,-1.212659 1.170974,-2.284203 0.540618,-1.071546 0.98313,-1.998367 0.98313,-2.059403 0,-0.06103 -0.290852,0.0639 -0.645931,0.277923 -0.355073,0.214032 -1.76063,0.972422 -3.124128,1.685244 -1.363504,0.712823 -2.725273,1.441387 -3.026358,1.619037 l -0.548139,0.323346 -0.588186,-0.399563 C 65.130606,20.520548 64.471642,20.142385 63.990143,19.900404 63.508624,19.658423 62.578564,19.285603 61.92382,19.071253 l -1.190223,-0.390325 -0.07925,-0.242507 C 60.610854,18.304759 60.299936,16.939835 59.963022,15.405905 59.62612,13.871976 59.206147,11.989397 59.029935,11.222433 58.853708,10.455467 58.571853,9.1777526 58.403256,8.3823828 58.234642,7.5870114 57.928251,6.225885 57.722689,5.3575648 57.517145,4.4892443 57.335182,3.7927113 57.317749,3.8101267 Z m 0.09624,1.9893436 0.08164,0.4134194 c 0.04486,0.2272479 0.271244,1.4593823 0.50349,2.7376567 0.232244,1.2782752 0.719716,3.7417722 1.08321,5.4745442 0.363495,1.732773 0.69247,3.347681 0.730606,3.589133 l 0.06929,0.439596 -0.607432,-0.01847 c -0.333938,-0.0098 -0.909474,-0.04418 -1.27876,-0.077 l -0.671313,-0.06005 -0.03234,-3.821635 c -0.01788,-2.102052 0.0031,-4.914715 0.04467,-6.2498012 z m -0.07464,4.3428343 c -0.01044,-0.1481147 -0.01846,1.006258 -0.01846,3.094107 0,2.783798 0.01341,3.937419 0.03008,2.563666 0.01622,-1.373754 0.01622,-3.651848 0,-5.061893 -0.0045,-0.352511 -0.0074,-0.546509 -0.01196,-0.59588 z m 3.170331,3.96098 c -0.08715,7.74e-4 -0.137803,0.01013 -0.137803,0.02926 0,0.05077 0.06376,0.24531 0.14168,0.431898 l 0.142423,0.338742 0.813754,0.232501 c 0.447548,0.127541 1.301179,0.393836 1.89772,0.59203 0.596528,0.198194 1.688854,0.661831 2.427402,1.030854 0.738564,0.369025 1.738168,0.944229 2.221068,1.277985 l 0.878423,0.606657 0.307954,-0.04543 c 0.169672,-0.02513 0.370839,-0.107551 0.44652,-0.183228 l 0.13706,-0.137807 -0.487323,-0.428818 C 69.030399,17.6119 68.480834,17.200784 68.07756,16.934889 67.674276,16.668995 66.973093,16.253612 66.518588,16.011815 66.064095,15.77002 65.216421,15.384302 64.635476,15.15418 64.054548,14.924057 63.221313,14.637485 62.783939,14.517497 62.346564,14.39751 61.62493,14.240714 61.1803,14.169517 c -0.279397,-0.04473 -0.525404,-0.06757 -0.670556,-0.06621 z m -6.61934,0.01237 c -0.213038,1.53e-4 -0.921806,0.135824 -1.575155,0.30179 -0.65333,0.165959 -1.722476,0.517399 -2.375811,0.780647 -0.653343,0.263248 -1.489951,0.645287 -1.85924,0.849167 -0.369274,0.203877 -1.044312,0.611154 -1.499711,0.905368 -0.455398,0.294214 -1.001168,0.687531 -1.213313,0.873799 -0.212147,0.186272 -0.385707,0.396666 -0.385707,0.467312 0,0.07064 0.104732,0.178552 0.232512,0.240199 0.127822,0.06165 0.302024,0.115605 0.387241,0.119329 0.08522,0.0037 0.642962,-0.322737 1.23949,-0.725218 0.596525,-0.402482 1.64249,-1.002012 2.324232,-1.331875 0.681742,-0.329861 1.611059,-0.718916 2.065565,-0.865333 0.454488,-0.146416 1.265679,-0.379 1.80303,-0.516582 l 0.976975,-0.250209 0.126187,-0.347211 c 0.06912,-0.190836 0.128714,-0.381591 0.133186,-0.424199 0.0045,-0.04261 -0.166499,-0.07714 -0.379553,-0.07699 z m -0.367991,2.065561 c -0.131401,0 -0.607583,0.09604 -1.058571,0.213253 -0.451002,0.117215 -1.284972,0.397138 -1.853087,0.622826 -0.568133,0.225686 -1.404724,0.623442 -1.859229,0.88381 -0.454488,0.260366 -1.070562,0.65948 -1.368831,0.886891 -0.298257,0.227409 -0.541985,0.46849 -0.541985,0.535828 0,0.06734 0.127822,0.173074 0.284087,0.234811 0.156234,0.06173 0.301905,0.117064 0.324103,0.12318 0.0222,0.0062 0.335038,-0.174889 0.694437,-0.401873 0.359412,-0.226984 1.107941,-0.63888 1.663676,-0.915375 0.555735,-0.276494 1.336073,-0.62384 1.733758,-0.772179 0.39768,-0.148337 1.031276,-0.364021 1.408849,-0.479629 0.377587,-0.115604 0.71483,-0.283214 0.749092,-0.372616 0.0344,-0.08941 0.06243,-0.252093 0.06243,-0.36107 v -0.197856 z m 7.343782,0 0.07001,0.284082 c 0.03828,0.156235 0.1244,0.337871 0.191696,0.404181 0.06734,0.06631 0.540329,0.246518 1.051643,0.400331 0.511306,0.153815 1.371882,0.475331 1.91159,0.714441 0.53972,0.239112 1.422688,0.697543 1.962394,1.018538 0.539723,0.320994 1.097514,0.58233 1.239492,0.581251 0.141977,-0.001 0.369481,-0.06378 0.505795,-0.13934 l 0.247905,-0.13703 -0.816063,-0.575093 C 66.781784,18.416105 65.950273,17.924111 65.382152,17.64015 64.814037,17.356186 64.025999,17.003777 63.631476,16.856422 63.236962,16.709066 62.555101,16.496507 62.116371,16.384492 61.677646,16.272475 61.216989,16.181246 61.09244,16.181246 Z m -3.689212,3.394356 1.158657,0.120109 c 0.637296,0.06619 1.476153,0.186622 1.864615,0.267144 0.388466,0.08052 1.053789,0.262498 1.478158,0.404952 0.42435,0.142455 1.187151,0.466192 1.695245,0.719059 0.50809,0.252869 1.190789,0.642227 1.517422,0.865333 0.326652,0.223107 0.950813,0.711446 1.386534,1.084746 0.435717,0.373301 1.070296,1.002151 1.410398,1.397315 0.340117,0.395162 0.809907,1.000331 1.04394,1.344962 0.234042,0.344635 0.628256,1.03395 0.876114,1.532043 0.247854,0.498089 0.544444,1.184238 0.659009,1.525111 0.11456,0.340872 0.316712,1.131137 0.449601,1.756072 l 0.241748,1.136328 v 1.65291 1.652912 l -0.2402,1.083974 c -0.132288,0.596528 -0.423872,1.572965 -0.647461,2.169492 -0.223602,0.596528 -0.661315,1.506486 -0.973114,2.02245 -0.311785,0.51596 -0.895514,1.329403 -1.297234,1.807655 -0.401707,0.478248 -1.063887,1.162715 -1.471227,1.52049 -0.407336,0.357776 -1.159306,0.912871 -1.670619,1.233331 -0.511307,0.320463 -1.39428,0.779855 -1.962395,1.021621 -0.568128,0.241761 -1.497432,0.56475 -2.065561,0.717513 l -1.033167,0.277924 -1.962397,0.0308 c -1.079427,0.01703 -2.194906,-0.0066 -2.478981,-0.05313 -0.284057,-0.04635 -0.814523,-0.16294 -1.178658,-0.258676 -0.364134,-0.09573 -1.031042,-0.30811 -1.482012,-0.4727 -0.450989,-0.164584 -1.175815,-0.491555 -1.61057,-0.725985 -0.434747,-0.23443 -1.06952,-0.625994 -1.410397,-0.869952 C 49.133524,44.295435 48.539379,43.806398 48.15406,43.452337 47.768726,43.098278 47.18434,42.477125 46.855292,42.07196 46.526238,41.666806 46.069289,41.056335 45.839831,40.71546 45.61036,40.374587 45.282471,39.816844 45.110758,39.47597 44.93903,39.135097 44.653721,38.446847 44.477151,37.946239 44.300582,37.44563 44.055124,36.5619 43.931323,35.983073 l -0.22557,-1.052412 0.0029,-1.548978 0.0015,-1.549747 0.228653,-1.083978 c 0.125888,-0.596531 0.339881,-1.415564 0.475006,-1.819203 0.135123,-0.403639 0.373787,-1.007731 0.530438,-1.342652 0.156666,-0.334922 0.467436,-0.909897 0.690577,-1.277984 0.223141,-0.368087 0.672982,-1.018531 0.999291,-1.445816 0.326308,-0.427284 0.866328,-1.036709 1.200219,-1.353429 0.333877,-0.31672 0.985005,-0.855249 1.446587,-1.197148 0.461579,-0.3419 1.298201,-0.855188 1.859241,-1.140948 0.561027,-0.285759 1.322131,-0.617905 1.691403,-0.737535 0.369273,-0.119618 1.066079,-0.309883 1.548978,-0.422659 0.4829,-0.112773 1.309552,-0.256179 1.836911,-0.319497 z m -14.853862,1.232562 -0.278695,0.29486 c -0.153553,0.162045 -0.575357,0.73596 -0.936928,1.275675 -0.361558,0.539717 -0.864957,1.376331 -1.118624,1.859234 -0.253682,0.482905 -0.625442,1.296346 -0.826846,1.807656 -0.201406,0.511309 -0.507274,1.417451 -0.679017,2.013978 -0.171743,0.596528 -0.342607,1.343809 -0.379553,1.65984 l -0.06704,0.574324 0.370317,-0.04312 c 0.20343,-0.02374 0.41209,-0.09664 0.464233,-0.161673 0.05214,-0.06504 0.171742,-0.466956 0.265599,-0.893048 0.09386,-0.426091 0.289898,-1.146063 0.435748,-1.600559 0.14585,-0.454498 0.558418,-1.430935 0.916147,-2.169494 0.357742,-0.73856 1.00434,-1.876813 1.437347,-2.529792 L 42.71334,21.708895 42.51855,21.25852 Z m 30.114994,0.08313 -0.19093,0.253286 c -0.105172,0.139236 -0.21192,0.328748 -0.236356,0.421889 -0.02517,0.09566 0.242134,0.567779 0.613587,1.084747 0.361675,0.503385 0.956874,1.51947 1.322634,2.258028 0.365756,0.738559 0.788084,1.69182 0.939252,2.11791 0.151156,0.426092 0.401217,1.285885 0.555064,1.910818 l 0.279469,1.136328 0.460378,0.114711 c 0.253069,0.06323 0.471663,0.105537 0.486562,0.09394 0.01491,-0.01158 -0.04604,-0.412309 -0.13542,-0.889969 -0.08939,-0.477661 -0.378063,-1.519002 -0.64131,-2.31423 -0.26323,-0.795222 -0.714979,-1.910712 -1.003909,-2.478979 -0.288931,-0.568269 -0.886576,-1.575831 -1.328787,-2.239552 -0.442229,-0.66372 -0.875491,-1.266001 -0.962345,-1.338033 z m -0.925382,1.882332 -0.196324,0.177839 c -0.108003,0.09772 -0.223617,0.263733 -0.257137,0.369537 l -0.06153,0.192468 0.644381,1.059341 c 0.354299,0.582654 0.781856,1.362158 0.950022,1.731437 0.168169,0.369279 0.504251,1.272772 0.746772,2.00859 l 0.441144,1.338033 0.190916,0.07544 c 0.105034,0.04136 0.295604,0.07834 0.423428,0.08237 0.127821,0.0041 0.23251,-0.0329 0.23251,-0.08237 0,-0.04946 -0.133785,-0.549667 -0.297168,-1.110921 -0.163389,-0.561256 -0.445762,-1.392418 -0.627459,-1.846917 -0.181694,-0.454496 -0.587557,-1.317215 -0.902276,-1.917745 -0.314702,-0.60053 -0.733451,-1.313522 -0.930015,-1.584392 z m -28.315048,0.121643 c -0.0879,0 -0.376841,0.337196 -0.642069,0.749084 -0.265226,0.41189 -0.684215,1.167007 -0.930773,1.678315 -0.246562,0.511312 -0.590464,1.288732 -0.764487,1.727588 -0.174007,0.438858 -0.410184,1.156171 -0.525045,1.594402 -0.114862,0.438228 -0.208631,0.884919 -0.208631,0.992363 v 0.195546 l 0.335664,-0.07006 c 0.184645,-0.03863 0.385766,-0.124073 0.447295,-0.189388 0.06153,-0.06532 0.243179,-0.573818 0.403404,-1.130169 0.160213,-0.55635 0.555097,-1.55643 0.877651,-2.221843 0.322554,-0.665417 0.780083,-1.516455 1.017004,-1.891571 0.236906,-0.375115 0.428761,-0.770162 0.427271,-0.877652 -0.0015,-0.107487 -0.06466,-0.276267 -0.140189,-0.375696 -0.07553,-0.09943 -0.209271,-0.18092 -0.297169,-0.18092 z M 42.53017,30.714057 42.467,31.272212 c -0.0347,0.306884 -0.09401,0.89535 -0.130952,1.30724 l -0.06704,0.748313 -4.971036,7.65e-4 c -2.733852,2.53e-4 -5.493656,0.03016 -6.132792,0.06698 v 7.65e-4 c -0.639149,0.0368 -1.161737,0.04002 -1.161737,0.0078 0,-0.03239 0.24373,-0.112949 0.542001,-0.17861 0.298254,-0.06566 1.774114,-0.373908 3.279636,-0.685184 1.50552,-0.311274 3.96902,-0.818212 5.474542,-1.126319 1.50552,-0.308107 2.848596,-0.591318 2.984016,-0.629755 z m 29.774712,2.665289 h 5.964178 c 3.28008,0 5.859354,0.03012 5.731681,0.0662 -0.12768,0.03608 -0.580901,0.144928 -1.006995,0.242509 -0.426093,0.09758 -2.587541,0.548024 -4.803214,1.000831 -2.215676,0.452806 -4.340589,0.886879 -4.721619,0.964647 -0.381041,0.07777 -0.784567,0.190851 -0.896897,0.250978 -0.112332,0.06011 -0.23324,0.109325 -0.269443,0.109325 -0.03589,0 -0.05049,-0.592889 -0.03157,-1.317246 z m -34.031323,3.047143 c -0.174097,0 -0.316415,0.03069 -0.316415,0.06773 0,0.03707 0.138698,0.62996 0.307938,1.317246 0.1693,0.687291 0.516004,1.797649 0.770638,2.468204 0.254649,0.670557 0.69895,1.670165 0.987745,2.221075 0.28878,0.550909 0.896183,1.524963 1.349586,2.164103 0.453402,0.639134 0.865611,1.161734 0.91537,1.161734 0.04976,0 0.140786,-0.145972 0.203252,-0.324885 0.06227,-0.178916 0.113968,-0.39285 0.113968,-0.475012 0,-0.08216 -0.283954,-0.573541 -0.630524,-1.091672 -0.346569,-0.518131 -0.903751,-1.488214 -1.238714,-2.156405 -0.334945,-0.66819 -0.814375,-1.83192 -1.064733,-2.585988 -0.250376,-0.754068 -0.509422,-1.638626 -0.575866,-1.965472 l -0.120071,-0.59434 -0.192482,-0.103172 c -0.105776,-0.05665 -0.33547,-0.103172 -0.509641,-0.103172 z m 38.230968,0.02926 c -0.08881,0.0029 -0.203509,0.01475 -0.323361,0.03387 -0.239708,0.03833 -0.449872,0.121028 -0.467306,0.183999 -0.01743,0.06298 -0.13423,0.556578 -0.259444,1.096294 -0.125142,0.539717 -0.456965,1.585678 -0.737537,2.324237 -0.280585,0.738559 -0.747394,1.760577 -1.03701,2.27189 -0.289613,0.511308 -0.800999,1.295609 -1.137099,1.742981 l -0.611272,0.813753 0.185539,0.451916 c 0.102052,0.248363 0.219072,0.451699 0.259445,0.451912 0.0404,2.11e-4 0.171057,-0.104682 0.290243,-0.232498 0.119177,-0.127827 0.489574,-0.631659 0.823746,-1.119391 0.334177,-0.487737 0.86339,-1.3707 1.175595,-1.962401 0.3122,-0.591699 0.734582,-1.491424 0.938478,-1.999351 0.203891,-0.50793 0.539094,-1.612293 0.745238,-2.454347 0.20611,-0.842051 0.350676,-1.555558 0.321031,-1.58516 -0.01491,-0.01475 -0.07762,-0.02067 -0.166286,-0.01772 z m -36.40176,0.384166 0.07389,0.489638 c 0.04038,0.269246 0.231217,0.973672 0.424963,1.565142 0.193762,0.59147 0.554349,1.500915 0.800672,2.020909 0.246322,0.519991 0.622746,1.221891 0.836844,1.559757 0.214111,0.337862 0.504979,0.767619 0.645913,0.955406 0.145552,0.193889 0.329034,0.327205 0.424977,0.308718 0.09297,-0.01792 0.211922,-0.1536 0.264064,-0.301787 L 43.66884,43.16824 43.131474,42.278274 C 42.835835,41.78884 42.402321,40.980999 42.168364,40.482946 41.934423,39.984897 41.568128,39.043035 41.354612,38.39044 41.107084,37.633898 40.885105,37.138496 40.741788,37.022383 40.61813,36.922218 40.423717,36.839924 40.309897,36.839924 Z m 34.359287,0.01539 c -0.06539,0.0033 -0.148684,0.0143 -0.234047,0.0331 -0.170583,0.03748 -0.353767,0.123569 -0.407251,0.190928 -0.05348,0.06737 -0.24684,0.610628 -0.429591,1.207154 -0.182738,0.596529 -0.515767,1.479495 -0.740622,1.962395 -0.224854,0.482905 -0.689011,1.351147 -1.030845,1.929296 l -0.621287,1.050875 0.163981,0.317185 c 0.09029,0.17461 0.209093,0.317955 0.264066,0.317955 0.05498,0 0.243522,-0.197373 0.418811,-0.438824 0.175286,-0.241454 0.568948,-0.880697 0.874565,-1.420413 0.305602,-0.539718 0.694866,-1.320442 0.865345,-1.734514 0.170475,-0.414079 0.477388,-1.337037 0.682098,-2.050935 0.204684,-0.713893 0.349669,-1.32092 0.32181,-1.348808 -0.01341,-0.014 -0.06153,-0.01862 -0.127079,-0.01539 z m -7.354567,10.184604 -0.863022,0.520438 c -0.474437,0.286538 -1.257783,0.713001 -1.740684,0.94694 -0.482899,0.233932 -1.4122,0.593918 -2.065547,0.79989 -0.65333,0.205971 -1.242991,0.424567 -1.310331,0.486557 -0.06733,0.062 -0.155784,0.248215 -0.196308,0.41342 l -0.07389,0.300251 0.611276,-0.0639 c 0.33614,-0.03513 0.982351,-0.185278 1.435798,-0.334122 0.453447,-0.148845 1.428646,-0.564176 2.167196,-0.922302 0.738562,-0.358126 1.665494,-0.87682 2.059395,-1.153266 0.393898,-0.276443 0.733646,-0.558252 0.755248,-0.625904 0.02221,-0.06947 -0.139147,-0.176325 -0.370317,-0.245589 z m -19.48002,0.0053 -0.393393,0.117781 c -0.216436,0.06486 -0.392932,0.174541 -0.392634,0.243278 3.12e-4,0.06875 0.255648,0.310889 0.56816,0.538139 0.312513,0.227246 0.971389,0.629808 1.463525,0.895357 0.492151,0.265553 1.316362,0.649913 1.832291,0.853789 0.515915,0.203877 1.240517,0.459603 1.60979,0.568165 0.369276,0.108544 0.845516,0.201234 1.058571,0.205553 l 0.387242,0.0078 v -0.187075 c 0,-0.102768 -0.05751,-0.26435 -0.12857,-0.358761 -0.07107,-0.0944 -0.687061,-0.3615 -1.368818,-0.594339 -0.681742,-0.232836 -1.70892,-0.652795 -2.282669,-0.933082 -0.57375,-0.280284 -1.338054,-0.700229 -1.698328,-0.933082 z m 21.500931,0.950768 c -0.11427,0 -0.511462,0.216569 -0.882269,0.481171 -0.370795,0.264602 -1.097423,0.719707 -1.614424,1.011609 -0.516987,0.291902 -1.381869,0.719626 -1.921589,0.950786 -0.539721,0.231159 -1.259693,0.516519 -1.600572,0.634375 -0.34086,0.117855 -0.992092,0.295018 -1.446584,0.393402 -0.454505,0.09839 -0.880166,0.228921 -0.946164,0.290241 -0.066,0.06132 -0.166828,0.285832 -0.224036,0.498878 l -0.10399,0.387241 h 0.199393 c 0.109652,0 0.628363,-0.09406 1.153263,-0.209403 0.524908,-0.11534 1.380617,-0.350083 1.901579,-0.521973 0.520978,-0.171888 1.550362,-0.610649 2.287287,-0.974653 0.73691,-0.364003 1.831874,-0.990871 2.432779,-1.392696 0.600923,-0.401824 1.165332,-0.833459 1.254124,-0.959255 l 0.160909,-0.228651 -0.220965,-0.180924 C 69.435428,48.076768 69.2426,47.996041 69.128333,47.996041 Z m -23.475648,9.27e-4 c -0.05676,-2.65e-4 -0.254173,0.0922 -0.438818,0.204787 -0.184643,0.112584 -0.335664,0.246669 -0.335664,0.298707 0,0.05204 0.151021,0.189044 0.335664,0.304098 0.184645,0.115063 0.753581,0.492128 1.26489,0.838392 0.511311,0.34626 1.324752,0.834398 1.80765,1.083976 0.482919,0.249574 1.229746,0.593047 1.659852,0.763711 0.430087,0.170664 1.267479,0.449791 1.859999,0.620512 0.592533,0.170724 1.286404,0.356033 1.542053,0.411112 0.255658,0.0551 0.545783,0.104745 0.645151,0.11086 l 0.180919,0.0107 -0.0012,-0.335666 c -9.27e-4,-0.184642 -0.03626,-0.389957 -0.07854,-0.456537 -0.04233,-0.06658 -0.548394,-0.240562 -1.124004,-0.386475 C 52.395094,51.319173 51.51305,51.055367 51.009844,50.878443 50.506623,50.701518 49.503354,50.256435 48.781075,49.889932 48.05874,49.523435 47.083078,48.947659 46.612305,48.610416 46.141532,48.273177 45.709806,47.9971 45.653044,47.99683 Z m 9.437066,0.22865 c 0.182519,0.0031 0.434394,0.01617 0.711363,0.03773 0.553915,0.04314 1.087278,0.07433 1.185603,0.06852 0.09833,-0.0058 0.207961,0.03535 0.243267,0.09238 0.03517,0.05703 0.06228,2.041738 0.0593,4.409811 -0.0031,2.368075 -0.01044,5.014649 -0.01846,5.881034 -0.0074,0.866386 -0.03202,1.575154 -0.05319,1.575154 -0.02117,0 -0.06779,-0.174199 -0.10399,-0.387241 -0.03622,-0.213047 -0.384917,-1.991722 -0.774484,-3.951743 -0.389564,-1.960024 -0.896121,-4.481423 -1.126326,-5.603882 -0.230201,-1.122458 -0.418806,-2.068447 -0.418806,-2.101745 0,-0.01662 0.113074,-0.02319 0.29563,-0.02004 z" /><path
       id="rect91"
       style="fill:url(#linearGradient93);fill-rule:evenodd;stroke-width:0.384353"
       d="M 54.807276,31.048066 66.07759,24.528496 59.958493,35.688599 48.594128,42.239516 Z"
       sodipodi:nodetypes="ccccc" /><path
       style="fill:#000000;stroke-width:0.651328"
       d="m -4.3677252,73.110098 c -0.6734556,-2.253454 -1.8563045,-6.933447 -1.7936619,-7.096689 0.041468,-0.108061 0.1729519,-0.126162 0.6211824,-0.08552 0.3127192,0.02834 0.6025321,0.08658 0.6440266,0.129399 0.071545,0.07382 0.2614786,0.830403 0.9527144,3.795166 0.3005984,1.289288 0.3013919,1.291092 0.4310483,0.979588 0.071439,-0.171644 0.3543891,-1.109744 0.6287694,-2.084669 0.2743814,-0.974926 0.5481464,-1.940525 0.6083656,-2.145771 0.1455254,-0.495999 0.389966,-0.699707 0.8396006,-0.699707 0.44071211,0 0.4260499,-0.02794 0.88181211,1.679297 0.4396622,1.646912 0.9599018,3.471155 1.0018803,3.513134 0.05399,0.05399 0.97616359,-3.543043 1.22925289,-4.794861 0.0336,-0.166179 0.094132,-0.322564 0.1345289,-0.347529 0.040393,-0.02495 0.3557003,-0.01902 0.7006829,0.01315 0.5757984,0.05374 0.6235881,0.07461 0.5827313,0.254233 -0.1105793,0.486131 -1.396172,5.44114 -1.6725362,6.446386 l -0.3077819,1.119534 -0.44892329,0.05172 c -0.2674726,0.03081 -0.5067833,0.0095 -0.5920747,-0.05295 -0.1322025,-0.09668 -1.0349643,-2.982825 -1.39546651,-4.461338 l -0.1554368,-0.637492 -0.1198939,0.285144 c -0.065942,0.156833 -0.4166542,1.281636 -0.7793618,2.499572 -0.3627067,1.217929 -0.6905691,2.242408 -0.7285818,2.276609 -0.038013,0.0342 -0.2827378,0.08895 -0.5438331,0.121641 l -0.4747183,0.05947 z m 7.8643151,0.69713 c 0,-0.04983 0.3519793,-1.040782 0.782176,-2.202066 0.4301966,-1.161289 1.0460846,-2.84613 1.3686407,-3.744088 0.3225563,-0.897959 0.6280195,-1.687022 0.6788063,-1.753483 0.061171,-0.08003 0.2683911,-0.111533 0.6138663,-0.09329 l 0.5215258,0.02755 1.2766719,3.498538 c 0.7021694,1.924202 1.3424031,3.636411 1.4227401,3.804916 0.08033,0.168504 0.146068,0.348694 0.146068,0.400429 0,0.05739 -0.278258,0.08343 -0.7137653,0.0668 L 8.8795539,73.785316 8.390877,72.339252 C 7.1827478,68.764229 7.0002608,68.265397 6.9005423,68.265397 c -0.058307,0 -0.3171534,0.636295 -0.5752091,1.413986 l -0.4691906,1.413979 0.6425258,-0.0068 c 0.4755815,-0.0052 0.6652637,0.02957 0.7300382,0.13315 0.1082839,0.173155 0.2224856,0.892039 0.1582704,0.99629 -0.025945,0.04215 -0.4355637,0.05563 -0.9102559,0.02996 -0.5099285,-0.02755 -0.9106691,-0.0085 -0.9793881,0.04664 -0.063968,0.05133 -0.2072776,0.368287 -0.3184608,0.704384 -0.1111833,0.336098 -0.2308071,0.656062 -0.2658324,0.711041 -0.082103,0.128864 -1.4164499,0.222357 -1.4164499,0.09924 z M 81.770631,73.792058 C 81.142206,73.617653 80.822333,73.42426 80.394391,72.960001 79.7888,72.303014 79.697752,71.853117 79.735,69.701985 c 0.0286,-1.65002 0.04885,-1.833642 0.252129,-2.284699 0.594317,-1.31865 2.405338,-1.951122 3.742688,-1.307076 0.604314,0.291026 0.715685,0.378819 1.060223,0.83577 0.300269,0.39824 0.63696,1.226175 0.569977,1.401597 -0.0327,0.08558 -0.221302,0.110901 -0.65827,0.08836 l -0.612469,-0.03159 -0.168987,-0.394229 C 83.708694,67.516483 83.2479,67.12006 82.859683,67.097687 c -0.89211,-0.05139 -1.267717,0.125114 -1.569294,0.737549 -0.205083,0.416492 -0.219465,0.552671 -0.219465,2.078346 0,1.943625 0.08907,2.235745 0.789448,2.588921 0.872074,0.439763 1.636712,0.175246 2.023848,-0.700138 0.165796,-0.37489 0.262088,-0.492709 0.369114,-0.451636 0.07964,0.03055 0.35128,0.05556 0.603644,0.05556 0.432396,0 0.458847,0.01407 0.458847,0.243498 0,0.352974 -0.540863,1.313336 -0.911892,1.619166 -0.379358,0.312703 -1.378245,0.659632 -1.865583,0.647941 -0.19134,-0.0045 -0.536817,-0.06076 -0.767719,-0.124852 z m 6.872905,-0.145806 c -0.693475,-0.331871 -1.031352,-0.658667 -1.348371,-1.304159 -0.250026,-0.509097 -0.253399,-0.540816 -0.253399,-2.38185 0,-2.295427 0.07783,-2.599459 0.844876,-3.300495 0.654172,-0.597886 1.227476,-0.796385 2.129259,-0.73723 1.155023,0.07575 2.124238,0.739164 2.451399,1.677915 0.145351,0.417077 0.171904,0.784216 0.170654,2.35981 -0.0013,1.761312 -0.01388,1.893531 -0.22291,2.359197 -0.129314,0.288069 -0.394828,0.645934 -0.638202,0.860163 -0.412623,0.363199 -1.322252,0.786275 -1.434861,0.667361 -0.03211,-0.03394 -0.08586,-0.280786 -0.119454,-0.548613 -0.06558,-0.522982 -0.02748,-0.59169 0.55174,-0.994028 0.472662,-0.328341 0.555542,-0.690811 0.557386,-2.437376 0.0013,-1.515931 -0.0084,-1.603731 -0.228017,-1.987121 -0.302607,-0.528454 -0.696965,-0.765159 -1.274048,-0.764717 -0.584239,4.43e-4 -0.990355,0.245668 -1.268022,0.765667 -0.200062,0.374664 -0.213681,0.507599 -0.213681,2.08613 v 1.685966 l 0.263325,0.398059 c 0.144835,0.218931 0.385964,0.467821 0.53586,0.5531 0.245426,0.139625 0.272581,0.202622 0.273121,0.633416 6.51e-4,0.665232 -0.11425,0.7258 -0.776655,0.408805 z m 7.739502,0.15925 c -0.104543,-0.07645 -0.626992,-1.496809 -1.415795,-3.849102 -0.687553,-2.050365 -1.251185,-3.776362 -1.252514,-3.835553 -0.0026,-0.12858 0.886944,-0.215903 1.174889,-0.115299 0.108739,0.03797 0.21865,0.166661 0.244254,0.285933 0.06214,0.28969 1.486595,4.870865 1.529915,4.920455 0.0187,0.02137 0.06006,0.01283 0.09189,-0.01902 0.07746,-0.07746 1.160346,-3.36088 1.442202,-4.372899 l 0.223661,-0.803079 0.700795,-0.04657 c 0.385431,-0.0256 0.714287,-0.03445 0.730787,-0.01967 0.03639,0.03257 -2.478931,7.60498 -2.574702,7.751241 -0.11154,0.170342 -0.709484,0.23954 -0.895374,0.103613 z m -83.666706,-1.582869 -0.03758,-1.609331 -1.151387,-2.265738 c -0.633263,-1.246163 -1.135402,-2.27937 -1.115865,-2.296024 0.01954,-0.01668 0.320526,-0.05568 0.668863,-0.08677 l 0.63334,-0.05647 0.684527,1.419567 c 0.376489,0.780759 0.749134,1.503269 0.828096,1.605567 0.135793,0.175923 0.185707,0.100728 0.921201,-1.387809 l 0.777629,-1.573808 0.676386,-0.01987 c 0.372011,-0.01095 0.676383,0.01577 0.676383,0.05927 0,0.123811 -1.756563,3.602197 -2.035888,4.03152 -0.244161,0.375274 -0.250522,0.42258 -0.280558,2.086603 l -0.03073,1.702621 h -0.588422 -0.588423 z m 9.39921,1.421085 c -0.583835,-0.227964 -1.1013,-0.731922 -1.377036,-1.341094 -0.202865,-0.448186 -0.215677,-0.590116 -0.215677,-2.38903 0,-1.793741 0.01322,-1.941195 0.21271,-2.373871 0.334905,-0.726354 0.656331,-1.079959 1.223374,-1.345857 0.444132,-0.208262 0.649849,-0.245158 1.362749,-0.24443 0.726076,6.52e-4 0.902746,0.03413 1.306122,0.246821 1.28301,0.676507 1.59383,1.508206 1.5183,4.06273 -0.05184,1.753222 -0.214608,2.316503 -0.830077,2.87254 -0.389964,0.35231 -1.083625,0.700431 -1.395667,0.700431 -0.157393,0 -0.178854,-0.07069 -0.178854,-0.589131 0,-0.577245 0.0064,-0.592168 0.314761,-0.739236 0.214473,-0.102272 0.385391,-0.293561 0.536443,-0.600368 0.207029,-0.42051 0.221683,-0.555106 0.221683,-2.036276 0,-1.474351 -0.01505,-1.614177 -0.213677,-1.986171 -0.309061,-0.578794 -0.683647,-0.784582 -1.350258,-0.741796 -0.637468,0.04091 -0.968112,0.248612 -1.233462,0.774806 -0.155212,0.307785 -0.19066,0.601325 -0.219224,1.815314 -0.02097,0.891387 0.0063,1.598161 0.07098,1.838325 0.127304,0.472766 0.465008,0.893686 0.842445,1.050024 0.211592,0.08764 0.270465,0.164336 0.242057,0.315306 -0.02065,0.109724 -0.04066,0.356927 -0.04448,0.549349 -0.0081,0.412466 -0.101869,0.431557 -0.793227,0.161614 z m 6.104077,-3.72604 v -3.922454 h 2.565598 2.565597 v 0.55977 0.559764 l -1.655976,0.0172 c -0.910787,0.0095 -1.760933,0.02143 -1.889212,0.02657 l -0.233237,0.0093 -0.0262,1.13962 -0.0262,1.13962 h 1.619975 c 0.890986,0 1.637468,0.01739 1.658848,0.03869 0.02139,0.0213 0.02449,0.273166 0.0069,0.55977 l -0.03195,0.521094 h -1.627878 -1.627877 l 0.01258,1.60933 0.01258,1.609326 -0.661788,0.02742 -0.661788,0.02742 z m 9.911512,0.01921 0.02435,-3.89504 0.629738,-0.02755 0.629738,-0.02755 v 3.36286 3.362866 h 1.865889 1.865889 v 0.559763 0.55977 h -2.519976 -2.519973 z m 6.694901,-0.02332 v -3.918363 h 0.653062 0.653061 v 3.918363 3.91837 h -0.653061 -0.653062 z m 3.638485,1.274231 c 0,-1.454284 -0.02748,-3.217542 -0.06109,-3.918371 l -0.06109,-1.274223 h 2.626704 2.62671 v 0.412192 c 0,0.746356 0.108616,0.70734 -1.96917,0.70734 h -1.855904 v 1.166182 1.166175 h 1.586008 1.586 v 0.559771 0.559763 h -1.586 -1.586008 v 1.632656 1.632654 h -0.653059 -0.65306 z m 6.810491,-1.274231 v -3.918363 h 2.570253 2.570254 l -0.02801,0.536439 -0.02801,0.536446 -1.889207,0.02527 -1.889212,0.02527 v 1.070952 1.070957 h 1.679297 1.679302 v 0.458839 c 0,0.79404 0.09221,0.75399 -1.73593,0.75399 h -1.622669 v 1.119534 1.119533 h 1.91253 1.912537 v 0.559764 0.559769 H 57.840546 55.27495 Z m 10.0758,0 v -3.918363 h 1.849267 c 2.182467,0 2.508554,0.07392 3.085109,0.699415 0.986546,1.070273 0.78849,2.807245 -0.393623,3.452188 -0.20851,0.113761 -0.342097,0.255947 -0.342247,0.364287 -1.43e-4,0.09773 0.356596,0.868292 0.79275,1.712352 0.436149,0.844061 0.793003,1.551267 0.793003,1.571575 0,0.02032 -0.337067,0.03693 -0.749045,0.03693 h -0.749039 l -0.746851,-1.516036 c -0.537031,-1.090127 -0.772943,-1.681102 -0.839716,-2.103578 -0.05107,-0.32315 -0.07042,-0.623867 -0.04299,-0.668268 0.02742,-0.04442 0.216625,-0.108895 0.420405,-0.143325 0.468506,-0.07915 0.943943,-0.396079 1.108943,-0.739224 0.172016,-0.357734 0.01114,-0.892857 -0.36303,-1.207717 -0.326683,-0.274894 -0.804952,-0.361762 -1.77046,-0.321555 l -0.699713,0.02911 -0.02449,3.335276 -0.02449,3.335277 h -0.651887 -0.65188 z m 7.650148,0 v -3.918363 h 2.513439 c 1.648815,0 2.534196,0.03361 2.573764,0.09759 0.03316,0.05367 0.03172,0.30557 -0.0033,0.559763 l -0.06357,0.462174 H 76.55036 c -0.809012,0 -1.667077,0.0269 -1.906804,0.05973 l -0.435869,0.05973 0.02631,0.989814 0.02631,0.989822 1.609331,-0.02801 1.609331,-0.02801 v 0.65775 0.657742 H 75.84335 74.207738 l 0.02631,1.096209 0.02625,1.096216 1.947135,0.02527 1.947136,0.02527 -0.0579,0.289613 c -0.03185,0.159295 -0.0579,0.410323 -0.0579,0.557842 v 0.268223 h -2.518943 -2.518949 z m 28.268214,0 v -3.918363 h 2.5236 2.52361 l -0.028,0.536439 -0.028,0.536446 -1.77259,0.05784 c -0.97493,0.03179 -1.80407,0.06331 -1.84256,0.06998 -0.0385,0.0067 -0.07,0.473971 -0.07,1.038397 v 1.026238 h 1.63265 1.63266 v 0.458846 c 0,0.792613 0.0865,0.753983 -1.68928,0.753983 h -1.57603 v 1.119533 1.119533 h 1.86588 1.8659 v 0.559771 0.559763 h -2.51895 -2.51894 z m 6.99708,2.534112 c 0,-0.761343 -0.0278,-2.524609 -0.0616,-3.91837 l -0.0617,-2.534105 1.95085,6.51e-4 c 1.85617,6.51e-4 1.9735,0.01159 2.41733,0.221432 0.87034,0.411462 1.27863,1.074461 1.27103,2.06401 -0.007,0.922454 -0.35855,1.565373 -1.04809,1.917148 -0.46206,0.235722 -0.48104,0.162082 0.53437,2.072523 0.43013,0.809254 0.78204,1.491467 0.78204,1.516035 0,0.02455 -0.33559,0.04468 -0.74577,0.04468 h -0.74576 l -0.69328,-1.384233 c -1.04912,-2.094752 -1.22373,-2.888961 -0.66067,-3.005001 0.357,-0.07358 0.84455,-0.327032 1.07785,-0.56033 0.12523,-0.125224 0.18163,-0.309779 0.18163,-0.594297 0,-0.513285 -0.32482,-0.938614 -0.82233,-1.076793 -0.37535,-0.104252 -1.52469,-0.127577 -1.85988,-0.03778 l -0.20992,0.05627 v 3.301068 3.301075 h -0.65306 -0.65306 z m 8.94065,-0.246026 -0.031,-1.630284 -1.0962,-2.184564 c -0.60292,-1.201509 -1.09622,-2.225278 -1.09622,-2.275033 0,-0.164636 1.04888,-0.216494 1.28252,-0.06344 0.1156,0.07575 0.2102,0.182319 0.2102,0.236816 0,0.174718 1.31065,2.78874 1.39825,2.78874 0.0464,0 0.23905,-0.325363 0.4281,-0.72303 0.18904,-0.397668 0.52638,-1.108995 0.74963,-1.580726 l 0.40592,-0.857694 0.67815,0.05425 c 0.37297,0.02984 0.68705,0.0609 0.69794,0.06895 0.0108,0.008 -0.0466,0.138713 -0.12763,0.290302 -0.0811,0.151597 -0.59238,1.136266 -1.13618,2.18816 l -0.98873,1.912537 -0.0339,1.702622 -0.034,1.702626 h -0.63794 -0.63795 z"
       id="path1"
       sodipodi:nodetypes="ssssssssssssscsscscscsssccsssssscsssccsssccsscsssssssccsssscsssssssssscsssssssscsssssccssscsscscscscscscsssccccscccsssccssscccccsssscsssssssssssssssccccccccccccccssccccccccccccccccccccccccccccccccscccssccccccccccccccccccccccccccssccccccccccccssssssscsssssscccccccccscccsccccccccccccccsscccccccccccsscccssccccccccccscccccsssscsssssccccccsccssssssscsscscccccc" /><path
       d="m 20.213068,84.235404 c -0.113625,-0.13691 -0.09986,-0.44008 0.05182,-1.14196 l 0.06553,-0.30321 h -0.483639 c -0.266003,0 -0.463437,0.0327 -0.438743,0.0727 0.05171,0.0837 -0.158013,1.15023 -0.257975,1.31197 -0.07821,0.12654 -0.420084,0.14042 -0.603096,0.0245 -0.126376,-0.0801 -0.121633,-0.21581 0.04004,-1.14592 0.05826,-0.33513 0.05227,-0.34395 -0.25298,-0.37318 -0.24304,-0.0233 -0.319344,-0.0772 -0.342747,-0.2421 -0.02462,-0.173492 0.04764,-0.246542 0.396502,-0.400862 0.387821,-0.17155 0.426606,-0.218 0.426606,-0.51088 0,-0.20767 -0.04459,-0.32216 -0.125482,-0.32216 -0.182712,0 -0.434285,-0.31025 -0.434285,-0.53559 0,-0.15346 0.07712,-0.20739 0.36651,-0.25629 l 0.36651,-0.0619 0.06418,-0.59934 0.06418,-0.59934 h 0.46781 0.467812 l -0.06763,0.34986 c -0.185846,0.9614 -0.221489,0.86297 0.31251,0.86297 h 0.477061 l 0.0093,-0.3965 c 0.0172,-0.73307 0.09379,-0.86301 0.508625,-0.86273 0.405594,2.8e-4 0.391233,-0.0429 0.268645,0.80812 -0.05863,0.40708 -0.04852,0.43721 0.156585,0.46647 0.240299,0.0343 0.43093,0.41932 0.333419,0.67344 -0.04884,0.12725 -0.231651,0.15085 -1.168689,0.15085 h -1.1108 l -0.05948,0.29738 c -0.03362,0.1681 -0.01649,0.34046 0.0394,0.3965 0.05438,0.0545 0.579688,0.11323 1.167347,0.13048 l 1.068471,0.0313 v 0.31314 c 0,0.301052 -0.01513,0.314242 -0.391756,0.341822 l -0.391757,0.0287 -0.127373,0.6974 c -0.07005,0.38356 -0.171793,0.7509 -0.226082,0.81632 -0.134664,0.16226 -0.493785,0.1499 -0.636367,-0.0219 z m 14.46138,-0.0566 c -0.463571,-0.13948 -0.930948,-0.52136 -1.082786,-0.88475 -0.09687,-0.23184 -0.130042,-0.79994 -0.130042,-2.226782 v -1.91553 h 0.419825 0.419825 v 1.86069 c 0,1.818072 0.005,1.866522 0.219037,2.115332 0.181317,0.2108 0.298474,0.25587 0.680301,0.26176 0.294614,0.004 0.552538,-0.0526 0.713906,-0.15829 l 0.252645,-0.16542 v -1.957032 -1.95704 h 0.466472 0.466473 l -1.45e-4,1.93586 c -1.66e-4,2.204582 -0.04564,2.388382 -0.704653,2.847962 -0.430789,0.30043 -1.178984,0.40615 -1.720858,0.24319 z m 7.175892,0.0174 c -0.873553,-0.17085 -1.321305,-0.64662 -0.971858,-1.03276 0.149817,-0.16554 0.170691,-0.16379 0.637235,0.0534 0.885695,0.41238 1.847891,0.24562 1.977099,-0.34265 0.09278,-0.42243 -0.138379,-0.602832 -1.069329,-0.834522 -1.033795,-0.25729 -1.296543,-0.4032 -1.468899,-0.8157 -0.181666,-0.43479 -0.118861,-1.16092 0.129404,-1.49612 0.497943,-0.67232 1.188022,-0.85935 2.114671,-0.57314 0.801081,0.24743 1.146228,0.69751 0.712778,0.92949 -0.13951,0.0747 -0.254472,0.0639 -0.461839,-0.0434 -0.417613,-0.21596 -1.424158,-0.19262 -1.632735,0.0378 -0.155404,0.17172 -0.242738,0.77931 -0.128446,0.89359 0.02954,0.0295 0.457982,0.13504 0.952094,0.23444 1.03516,0.20823 1.303838,0.35466 1.555341,0.84765 0.228691,0.448272 0.229814,0.835072 0.0037,1.275982 -0.415857,0.8109 -1.183189,1.09368 -2.349222,0.86574 z m 36.541678,-0.13478 c -0.09129,-0.34014 -0.065,-0.41109 0.270347,-0.72889 0.259469,-0.24591 0.347443,-0.42348 0.430474,-0.86884 0.115305,-0.618482 0.05523,-1.989122 -0.09993,-2.278992 -0.219837,-0.41078 -1.286026,-0.33887 -1.620632,0.10929 -0.163308,0.21874 -0.188586,0.39087 -0.185472,1.263 0.0039,1.073242 0.05412,1.248022 0.510067,1.772922 0.329441,0.37925 0.370292,0.85973 0.0731,0.85973 -0.307484,0 -0.978429,-0.51906 -1.170362,-0.90542 -0.14621,-0.29431 -0.17589,-0.56705 -0.17589,-1.616182 0,-1.16487 0.01804,-1.2972 0.234366,-1.71739 0.283875,-0.55144 0.70344,-0.79762 1.467558,-0.86112 0.649157,-0.0539 1.258917,0.2135 1.576275,0.69138 0.381965,0.57516 0.51729,2.10805 0.276457,3.131602 -0.173605,0.73784 -0.547154,1.12486 -1.235575,1.28013 -0.254206,0.0573 -0.305308,0.0382 -0.350778,-0.13122 z M 25.811475,81.670692 v -2.51895 h 0.419826 0.419823 v 1.07288 1.07289 h 0.979593 0.979591 v -1.07289 -1.07288 h 0.419825 0.419825 v 2.51895 2.518952 h -0.419825 -0.419825 v -1.07289 -1.072892 h -0.979591 -0.979593 v 1.072892 1.07289 h -0.419823 -0.419826 z m 23.230316,0.3771 v -2.14185 l -0.723032,-0.0272 -0.723031,-0.0272 v -0.32653 -0.32653 l 1.889212,-0.0253 1.889214,-0.0253 v 0.26316 c 0,0.39863 -0.155837,0.48706 -0.858306,0.48706 h -0.634406 v 2.14577 2.145772 h -0.419825 -0.419826 z m 5.877548,-0.3749 v -2.52115 h 0.419826 0.419827 v 2.14577 2.145782 h 1.218456 1.218464 l -0.02898,0.34985 -0.02892,0.34986 -1.609331,0.0255 -1.609332,0.0256 z m 6.810497,0.28934 c 0,-1.22507 -0.02624,-2.3586 -0.0583,-2.51895 l -0.0583,-0.29154 h 1.743245 1.743237 l -0.02892,0.34985 -0.02898,0.34985 -1.189505,0.0261 -1.189499,0.0261 v 0.69693 0.69692 h 1.072885 1.072886 v 0.2766 c 0,0.38947 -0.214202,0.46976 -1.253343,0.46976 H 62.66282 v 0.699702 0.69971 h 1.212823 1.212829 v 0.31655 c 0,0.20259 -0.05315,0.33694 -0.147571,0.37317 -0.08116,0.0312 -0.836851,0.0566 -1.679303,0.0566 h -1.531725 z m 7.090378,-0.19825 c 0,-1.3341 -0.01049,-2.45714 -0.02332,-2.49562 -0.01283,-0.0385 0.176092,-0.0828 0.419825,-0.0984 l 0.443151,-0.0285 v 1.078 1.07799 h 0.986694 0.986696 l -0.02462,-1.04956 -0.02462,-1.04956 0.483989,-0.0282 0.483981,-0.0282 v 2.52383 2.523822 h -0.466473 -0.466468 l -0.01472,-0.95627 c -0.008,-0.52594 -0.01276,-1.008752 -0.01035,-1.072882 0.0033,-0.0861 -0.249406,-0.11662 -0.964895,-0.11662 h -0.969232 v 1.072882 1.07289 H 69.240026 68.8202 Z m 15.113705,-0.10204 v -2.5277 l 1.333803,0.032 c 1.482095,0.0356 1.702979,0.10911 1.992358,0.66269 0.245061,0.46881 0.215368,1.36047 -0.05809,1.74451 -0.273616,0.38426 -0.93485,0.69245 -1.309258,0.61021 -0.509813,-0.11197 -0.438982,-0.69962 0.08433,-0.69962 0.136231,0 0.341009,-0.0654 0.455049,-0.14523 0.170804,-0.11964 0.207344,-0.23416 0.207344,-0.64978 0,-0.61662 -0.111352,-0.69824 -0.950131,-0.69643 -1.100668,0.003 -1.009045,-0.19332 -1.009045,2.15538 v 2.041602 h -0.373177 -0.373178 z m 7.276961,0.009 v -2.51894 h 1.635579 c 1.770325,0 1.819169,0.0149 1.63584,0.49703 l -0.09479,0.24932 h -1.172578 -1.172577 l 0.02742,0.67639 0.02743,0.67638 0.932941,0.0231 c 1.299078,0.0323 1.370711,0.0549 1.335116,0.42321 l -0.02898,0.30001 -1.142857,0.0262 -1.142859,0.0262 v 0.584882 c 0,0.33052 0.04872,0.63357 0.111952,0.69684 0.07443,0.0744 0.480985,0.11195 1.212829,0.11195 h 1.100874 v 0.31655 c 0,0.20259 -0.05315,0.33694 -0.147571,0.37317 -0.08116,0.0312 -0.815859,0.0566 -1.632648,0.0566 h -1.485096 z"
       style="fill:url(#linearGradient2);stroke-width:0.651328"
       id="path1-1" /></g></svg>
