<?xml version="1.0" encoding="UTF-8" standalone="no"?>
<!-- Generator: Adobe Illustrator 27.1.1, SVG Export Plug-In . SVG Version: 6.00 Build 0)  -->

<svg
   version="1.1"
   id="Layer_1"
   x="0px"
   y="0px"
   viewBox="0 0 220 32"
   enable-background="new 0 0 199 32"
   xml:space="preserve"
   sodipodi:docname="jefferson.svg"
   inkscape:version="1.4 (86a8ad7, 2024-10-11)"
   width="220"
   height="32"
   xmlns:inkscape="http://www.inkscape.org/namespaces/inkscape"
   xmlns:sodipodi="http://sodipodi.sourceforge.net/DTD/sodipodi-0.dtd"
   xmlns="http://www.w3.org/2000/svg"
   xmlns:svg="http://www.w3.org/2000/svg"><defs
   id="defs51">
	
	
	

		
		
	
		
			<radialGradient
   id="SVGID_1_"
   cx="2005.4388"
   cy="1082.1913"
   r="11.2357"
   gradientTransform="matrix(2.6099,0,0,2.6099,-5207.7817,-2823.24)"
   gradientUnits="userSpaceOnUse">
			<stop
   offset="0"
   style="stop-color:#FFFFFF"
   id="stop1" />
			<stop
   offset="0.1158"
   style="stop-color:#F6FBFD"
   id="stop2" />
			<stop
   offset="0.3046"
   style="stop-color:#DEF1F8"
   id="stop3" />
			<stop
   offset="0.5432"
   style="stop-color:#B6DFF0"
   id="stop4" />
			<stop
   offset="0.8192"
   style="stop-color:#7FC8E5"
   id="stop5" />
			<stop
   offset="1"
   style="stop-color:#58B7DD"
   id="stop6" />
		</radialGradient>
		
		
	
		
		
		
		
		
		
		
		
		
		
		
		
		
		
		
		
		
		
		
		
		
		
		
		
		
		
		
		
		
		
		
		
	</defs><sodipodi:namedview
   id="namedview51"
   pagecolor="#ffffff"
   bordercolor="#111111"
   borderopacity="1"
   inkscape:showpageshadow="0"
   inkscape:pageopacity="0"
   inkscape:pagecheckerboard="1"
   inkscape:deskcolor="#d1d1d1"
   showgrid="false"
   inkscape:zoom="3.9447236"
   inkscape:cx="98.992994"
   inkscape:cy="15.970701"
   inkscape:window-width="1920"
   inkscape:window-height="1115"
   inkscape:window-x="-9"
   inkscape:window-y="-9"
   inkscape:window-maximized="1"
   inkscape:current-layer="Layer_1" />
<path
   fill="url(#SVGID_1_)"
   d="m 27.405,17.138 c 0,3.387 -1.237,6.486 -3.279,8.88 0,0 -3.498,4.385 -10.424,5.981 C 6.778,30.404 3.28,26.019 3.28,26.019 1.238,23.624 0,20.525 0,17.138 v -2.705 h 9.105 v 2.705 c 0,2.537 2.063,4.6 4.598,4.6 2.535,0 4.599,-2.063 4.599,-4.6 V 9.104 H 0 V 0 h 27.405 z"
   id="path6"
   style="fill:url(#SVGID_1_)" /><path
   fill="#ffffff"
   d="m 26.131,26.62 c 0.763,0 1.374,0.623 1.374,1.397 0,0.774 -0.611,1.4 -1.374,1.4 -0.751,0 -1.361,-0.626 -1.361,-1.4 0,-0.774 0.61,-1.397 1.361,-1.397 z m -0.001,2.578 c 0.633,0 1.117,-0.521 1.117,-1.181 0,-0.659 -0.484,-1.178 -1.117,-1.178 -0.62,0 -1.101,0.519 -1.101,1.178 0,0.661 0.481,1.181 1.101,1.181 z m -0.44,-1.833 h 0.505 c 0.303,0 0.452,0.122 0.452,0.371 0,0.212 -0.134,0.365 -0.34,0.365 l 0.374,0.584 h -0.227 l -0.368,-0.584 h -0.181 v 0.584 H 25.69 Z m 0.215,0.569 h 0.256 c 0.165,0 0.271,-0.034 0.271,-0.206 0,-0.15 -0.134,-0.193 -0.271,-0.193 h -0.256 z"
   id="path7" /><g
   id="g16"
   style="fill:#000000;fill-opacity:1"
   transform="matrix(1.1541282,0,0,1.1541282,-9.6892835,-0.35911877)">
			<path
   fill="#ffffff"
   d="m 36.55,16.542 c 0.422,0.155 0.867,0.268 1.487,0.268 2.022,0 2.022,-1.623 2.022,-2.732 V 2.83 h 3.107 v 12.736 c 0,1.643 -1.065,3.952 -4.241,3.952 -0.843,0 -1.509,-0.067 -2.376,-0.29 v -2.686 z"
   id="path8"
   style="fill:#000000;fill-opacity:1" />
			<path
   fill="#ffffff"
   d="m 53.162,12.411 c -0.089,-1.443 -0.756,-2.686 -2.42,-2.686 -1.666,0 -2.51,1.154 -2.642,2.686 z m 1.998,6.196 c -1.087,0.6 -2.332,0.911 -3.929,0.911 -3.776,0 -5.974,-2.177 -5.974,-5.929 0,-3.308 1.755,-6.038 5.307,-6.038 4.24,0 5.439,2.907 5.439,6.905 h -7.904 c 0.133,1.842 1.421,2.885 3.264,2.885 1.443,0 2.687,-0.532 3.796,-1.154 v 2.42 z"
   id="path9"
   style="fill:#000000;fill-opacity:1" />
			<path
   fill="#ffffff"
   d="m 58.98,9.991 h -2.2 V 7.815 h 2.2 V 6.216 c 0,-2.288 1.286,-3.886 3.641,-3.886 0.755,0 1.598,0.111 2.176,0.243 l -0.244,2.465 c -0.268,-0.155 -0.643,-0.4 -1.288,-0.4 -0.999,0 -1.311,0.867 -1.311,1.754 v 1.422 h 2.599 V 9.99 h -2.599 v 9.259 H 58.98 Z"
   id="path10"
   style="fill:#000000;fill-opacity:1" />
			<path
   fill="#ffffff"
   d="M 67.467,9.992 H 65.269 V 7.816 h 2.198 V 6.217 c 0,-2.288 1.289,-3.887 3.642,-3.887 0.755,0 1.599,0.112 2.175,0.245 L 73.04,5.04 C 72.775,4.884 72.396,4.639 71.753,4.639 c -1,0 -1.31,0.866 -1.31,1.755 v 1.422 h 2.597 v 2.176 h -2.597 v 9.258 h -2.976 z"
   id="path11"
   style="fill:#000000;fill-opacity:1" />
			<path
   fill="#ffffff"
   d="m 81.627,12.411 c -0.088,-1.443 -0.754,-2.686 -2.422,-2.686 -1.665,0 -2.509,1.154 -2.642,2.686 z m 1.998,6.196 c -1.089,0.6 -2.331,0.911 -3.932,0.911 -3.774,0 -5.972,-2.177 -5.972,-5.929 0,-3.308 1.752,-6.038 5.306,-6.038 4.244,0 5.443,2.907 5.443,6.905 h -7.907 c 0.134,1.842 1.422,2.885 3.265,2.885 1.444,0 2.687,-0.532 3.798,-1.154 v 2.42 z"
   id="path12"
   style="fill:#000000;fill-opacity:1" />
			<path
   fill="#ffffff"
   d="m 85.933,7.815 h 2.645 v 2.597 h 0.044 c 0.131,-1.065 1.353,-2.862 3.131,-2.862 0.288,0 0.6,0 0.911,0.088 v 2.997 c -0.267,-0.155 -0.8,-0.245 -1.333,-0.245 -2.421,0 -2.421,3.019 -2.421,4.662 v 4.197 h -2.977 z"
   id="path13"
   style="fill:#000000;fill-opacity:1" />
			<path
   fill="#ffffff"
   d="m 101.31,10.214 c -0.911,-0.311 -1.577,-0.488 -2.663,-0.488 -0.8,0 -1.755,0.288 -1.755,1.266 0,1.819 5.174,0.665 5.174,4.795 0,2.664 -2.377,3.731 -4.798,3.731 -1.132,0 -2.287,-0.2 -3.373,-0.489 l 0.178,-2.442 c 0.931,0.466 1.909,0.755 2.93,0.755 0.754,0 1.953,-0.288 1.953,-1.398 0,-2.243 -5.174,-0.712 -5.174,-4.841 0,-2.466 2.156,-3.552 4.487,-3.552 1.397,0 2.308,0.222 3.241,0.421 z"
   id="path14"
   style="fill:#000000;fill-opacity:1" />
			<path
   fill="#ffffff"
   d="m 109.272,17.208 c 2.287,0 2.887,-2.042 2.887,-3.952 0,-1.755 -0.933,-3.397 -2.887,-3.397 -1.932,0 -2.867,1.688 -2.867,3.397 0,1.887 0.6,3.952 2.867,3.952 m 0,-9.657 c 3.395,0 5.994,2.285 5.994,6.06 0,3.287 -2.198,5.907 -5.994,5.907 -3.775,0 -5.975,-2.62 -5.975,-5.907 0,-3.776 2.598,-6.06 5.975,-6.06"
   id="path15"
   style="fill:#000000;fill-opacity:1" />
			<path
   fill="#ffffff"
   d="m 117.137,7.815 h 2.82 v 1.554 h 0.046 c 0.931,-1.309 2.198,-1.819 3.751,-1.819 2.712,0 3.888,1.908 3.888,4.485 v 7.215 h -2.976 v -6.105 c 0,-1.4 -0.021,-3.287 -1.932,-3.287 -2.153,0 -2.619,2.332 -2.619,3.798 v 5.594 h -2.977 V 7.815 Z"
   id="path16"
   style="fill:#000000;fill-opacity:1" />
		</g><g
   id="g18"
   style="fill:#000000;fill-opacity:1"
   transform="matrix(1.1541282,0,0,1.1541282,-9.6892835,-0.35911877)">
			<g
   id="g17"
   style="fill:#000000;fill-opacity:1">
				<path
   fill="#ffffff"
   d="m 187.252,19.239 h 2.971 v -5.584 c 0,-1.463 0.465,-3.79 2.614,-3.79 1.908,0 1.929,1.883 1.929,3.279 v 6.094 h 2.969 v -7.201 c 0,-2.572 -1.173,-4.478 -3.877,-4.478 -1.551,0 -2.836,0.71 -3.59,1.817 h -0.044 V 2.618 h -2.971 v 16.621 z m -7.364,-3.433 c 0,2.259 1.285,3.7 3.611,3.7 0.888,0 1.574,-0.089 2.193,-0.266 l -0.089,-2.35 c -0.308,0.201 -0.82,0.311 -1.35,0.311 -1.13,0 -1.397,-0.906 -1.397,-1.883 V 9.999 h 2.637 V 7.826 h -2.637 V 4.59 l -2.969,0.954 v 2.282 h -2.196 v 2.172 h 2.196 v 5.808 z m -6.596,3.433 h 2.971 V 2.618 h -2.971 z m -9.892,-3.3 c 0,-1.752 1.971,-1.974 3.303,-1.974 h 1.285 c 0,0.885 -0.133,1.705 -0.621,2.35 -0.465,0.619 -1.173,1.018 -2.083,1.018 -1.064,0 -1.884,-0.42 -1.884,-1.394 m -1.506,-4.967 c 0.995,-0.753 2.261,-1.24 3.525,-1.24 1.749,0 2.569,0.621 2.569,2.46 h -1.64 c -1.24,0 -2.705,0.112 -3.835,0.666 -1.13,0.554 -1.95,1.552 -1.95,3.256 0,2.172 1.974,3.391 3.989,3.391 1.352,0 2.838,-0.71 3.524,-1.971 h 0.044 c 0.023,0.355 0.023,1.107 0.133,1.705 h 2.614 c -0.065,-0.885 -0.11,-1.684 -0.133,-2.548 -0.021,-0.841 -0.042,-1.707 -0.042,-2.859 V 12.37 c 0,-3.368 -1.441,-4.809 -4.921,-4.809 -1.264,0 -2.814,0.332 -3.966,0.864 z m -3.382,5.21 c -1.107,0.621 -2.347,1.152 -3.789,1.152 -1.841,0 -3.125,-1.039 -3.258,-2.88 h 7.89 c 0,-3.99 -1.196,-6.893 -5.428,-6.893 -3.548,0 -5.297,2.726 -5.297,6.028 0,3.745 2.193,5.917 5.961,5.917 1.595,0 2.838,-0.311 3.922,-0.909 v -2.415 z m -7.047,-3.768 c 0.133,-1.529 0.976,-2.681 2.637,-2.681 1.663,0 2.326,1.24 2.415,2.681 z m -17.116,6.825 h 3.104 v -7.37 h 6.206 v 7.37 h 3.102 V 2.83 h -3.102 v 6.602 h -6.206 V 2.83 h -3.104 z"
   id="path17"
   style="fill:#000000;fill-opacity:1" />
			</g>
		</g>
</svg>
