<svg xmlns="http://www.w3.org/2000/svg" xml:space="preserve" viewBox="0 0 220 32">
  <defs>
    <radialGradient id="a" cx="2005.439" cy="1082.191" r="11.236" gradientTransform="translate(-5207.782 -2823.24) scale(2.6099)" gradientUnits="userSpaceOnUse">
      <stop offset="0" style="stop-color:#fff"/>
      <stop offset=".116" style="stop-color:#f6fbfd"/>
      <stop offset=".305" style="stop-color:#def1f8"/>
      <stop offset=".543" style="stop-color:#b6dff0"/>
      <stop offset=".819" style="stop-color:#7fc8e5"/>
      <stop offset="1" style="stop-color:#58b7dd"/>
    </radialGradient>
  </defs>
  <path fill="url(#a)" d="M27.405 17.138c0 3.387-1.237 6.486-3.279 8.88 0 0-3.498 4.385-10.424 5.981-6.924-1.595-10.422-5.98-10.422-5.98A13.644 13.644 0 0 1 0 17.138v-2.705h9.105v2.705c0 2.537 2.063 4.6 4.598 4.6a4.605 4.605 0 0 0 4.599-4.6V9.104H0V0h27.405z" style="fill:url(#a)"/>
  <path fill="#fff" d="M26.131 26.62c.763 0 1.374.623 1.374 1.397s-.611 1.4-1.374 1.4c-.751 0-1.361-.626-1.361-1.4 0-.774.61-1.397 1.361-1.397zm-.001 2.578c.633 0 1.117-.521 1.117-1.181 0-.659-.484-1.178-1.117-1.178-.62 0-1.101.519-1.101 1.178 0 .661.481 1.181 1.101 1.181zm-.44-1.833h.505c.303 0 .452.122.452.371 0 .212-.134.365-.34.365l.374.584h-.227l-.368-.584h-.181v.584h-.215Zm.215.569h.256c.165 0 .271-.034.271-.206 0-.15-.134-.193-.271-.193h-.256z"/>
  <g fill="#fff" style="fill:#000;fill-opacity:1">
    <path d="M36.55 16.542c.422.155.867.268 1.487.268 2.022 0 2.022-1.623 2.022-2.732V2.83h3.107v12.736c0 1.643-1.065 3.952-4.241 3.952a8.781 8.781 0 0 1-2.376-.29v-2.686zM53.162 12.411c-.089-1.443-.756-2.686-2.42-2.686-1.666 0-2.51 1.154-2.642 2.686zm1.998 6.196c-1.087.6-2.332.911-3.929.911-3.776 0-5.974-2.177-5.974-5.929 0-3.308 1.755-6.038 5.307-6.038 4.24 0 5.439 2.907 5.439 6.905h-7.904c.133 1.842 1.421 2.885 3.264 2.885 1.443 0 2.687-.532 3.796-1.154v2.42zM58.98 9.991h-2.2V7.815h2.2V6.216c0-2.288 1.286-3.886 3.641-3.886.755 0 1.598.111 2.176.243l-.244 2.465c-.268-.155-.643-.4-1.288-.4-.999 0-1.311.867-1.311 1.754v1.422h2.599V9.99h-2.599v9.259H58.98ZM67.467 9.992h-2.198V7.816h2.198V6.217c0-2.288 1.289-3.887 3.642-3.887.755 0 1.599.112 2.175.245L73.04 5.04c-.265-.156-.644-.401-1.287-.401-1 0-1.31.866-1.31 1.755v1.422h2.597v2.176h-2.597v9.258h-2.976zM81.627 12.411c-.088-1.443-.754-2.686-2.422-2.686-1.665 0-2.509 1.154-2.642 2.686zm1.998 6.196c-1.089.6-2.331.911-3.932.911-3.774 0-5.972-2.177-5.972-5.929 0-3.308 1.752-6.038 5.306-6.038 4.244 0 5.443 2.907 5.443 6.905h-7.907c.134 1.842 1.422 2.885 3.265 2.885 1.444 0 2.687-.532 3.798-1.154v2.42zM85.933 7.815h2.645v2.597h.044c.131-1.065 1.353-2.862 3.131-2.862.288 0 .6 0 .911.088v2.997c-.267-.155-.8-.245-1.333-.245-2.421 0-2.421 3.019-2.421 4.662v4.197h-2.977zM101.31 10.214c-.911-.311-1.577-.488-2.663-.488-.8 0-1.755.288-1.755 1.266 0 1.819 5.174.665 5.174 4.795 0 2.664-2.377 3.731-4.798 3.731-1.132 0-2.287-.2-3.373-.489l.178-2.442c.931.466 1.909.755 2.93.755.754 0 1.953-.288 1.953-1.398 0-2.243-5.174-.712-5.174-4.841 0-2.466 2.156-3.552 4.487-3.552 1.397 0 2.308.222 3.241.421zM109.272 17.208c2.287 0 2.887-2.042 2.887-3.952 0-1.755-.933-3.397-2.887-3.397-1.932 0-2.867 1.688-2.867 3.397 0 1.887.6 3.952 2.867 3.952m0-9.657c3.395 0 5.994 2.285 5.994 6.06 0 3.287-2.198 5.907-5.994 5.907-3.775 0-5.975-2.62-5.975-5.907 0-3.776 2.598-6.06 5.975-6.06M117.137 7.815h2.82v1.554h.046c.931-1.309 2.198-1.819 3.751-1.819 2.712 0 3.888 1.908 3.888 4.485v7.215h-2.976v-6.105c0-1.4-.021-3.287-1.932-3.287-2.153 0-2.619 2.332-2.619 3.798v5.594h-2.977V7.815Z" style="fill:#000;fill-opacity:1" transform="matrix(1.15413 0 0 1.15413 -9.69 -.36)"/>
  </g>
  <path fill="#fff" d="M187.252 19.239h2.971v-5.584c0-1.463.465-3.79 2.614-3.79 1.908 0 1.929 1.883 1.929 3.279v6.094h2.969v-7.201c0-2.572-1.173-4.478-3.877-4.478-1.551 0-2.836.71-3.59 1.817h-.044V2.618h-2.971v16.621zm-7.364-3.433c0 2.259 1.285 3.7 3.611 3.7.888 0 1.574-.089 2.193-.266l-.089-2.35c-.308.201-.82.311-1.35.311-1.13 0-1.397-.906-1.397-1.883V9.999h2.637V7.826h-2.637V4.59l-2.969.954v2.282h-2.196v2.172h2.196v5.808zm-6.596 3.433h2.971V2.618h-2.971zm-9.892-3.3c0-1.752 1.971-1.974 3.303-1.974h1.285c0 .885-.133 1.705-.621 2.35-.465.619-1.173 1.018-2.083 1.018-1.064 0-1.884-.42-1.884-1.394m-1.506-4.967c.995-.753 2.261-1.24 3.525-1.24 1.749 0 2.569.621 2.569 2.46h-1.64c-1.24 0-2.705.112-3.835.666s-1.95 1.552-1.95 3.256c0 2.172 1.974 3.391 3.989 3.391 1.352 0 2.838-.71 3.524-1.971h.044c.023.355.023 1.107.133 1.705h2.614a53.129 53.129 0 0 1-.133-2.548c-.021-.841-.042-1.707-.042-2.859V12.37c0-3.368-1.441-4.809-4.921-4.809-1.264 0-2.814.332-3.966.864zm-3.382 5.21c-1.107.621-2.347 1.152-3.789 1.152-1.841 0-3.125-1.039-3.258-2.88h7.89c0-3.99-1.196-6.893-5.428-6.893-3.548 0-5.297 2.726-5.297 6.028 0 3.745 2.193 5.917 5.961 5.917 1.595 0 2.838-.311 3.922-.909v-2.415zm-7.047-3.768c.133-1.529.976-2.681 2.637-2.681 1.663 0 2.326 1.24 2.415 2.681zm-17.116 6.825h3.104v-7.37h6.206v7.37h3.102V2.83h-3.102v6.602h-6.206V2.83h-3.104z" style="fill:#000;fill-opacity:1" transform="matrix(1.15413 0 0 1.15413 -9.69 -.36)"/>
</svg>
