<svg xmlns="http://www.w3.org/2000/svg" xml:space="preserve" viewBox="0 0 132.292 68.792">
  <path d="M98.526 40.143c-7.791-1.35-9.003-1.395-30.067-1.095-12.071.172-26.954.484-33.073.694-7.57.26-10.932.186-10.523-.232.827-.844 46.549-2.207 59.832-1.783 12.302.392 23.965 2.297 22.21 3.627-.144.108-3.914-.437-8.38-1.21zM26.11 34.707c-.819-.819-.239-2.443 1.007-2.82.744-.226 4.533-.565 8.419-.755 6.78-.33 7.065-.295 7.065.86 0 1.1-.54 1.24-6.306 1.625-3.468.233-7.1.65-8.072.93-.972.278-1.923.35-2.113.16zm70.917-.69c-2.206-.263-3.055-.636-3.202-1.41-.179-.945.414-1.052 5.858-1.052 5.522 0 6.058.1 6.058 1.127 0 .782-.577 1.243-1.88 1.504-1.98.396-2.096.393-6.834-.17zm-50.685-1.109c-.94-2.293-.37-9.415 1.004-12.549 1.512-3.45 4.998-7.212 6.07-6.55 1.714 1.06 1.66 2.943-.139 4.796-2.582 2.66-4.086 6.405-4.486 11.165-.251 3.002-.587 4.19-1.185 4.19-.458 0-1.027-.473-1.264-1.052zm5.614-.284c-1.035-1.477-1.3-7.082-.335-7.082.33 0 .601.822.601 1.828 0 1.005.547 2.9 1.215 4.209.989 1.938 1.051 2.381.335 2.381-.484 0-1.301-.601-1.816-1.336zm24.913-1.22c-.004-1.405-.162-3.231-.349-4.058l-.34-1.504 1.55 1.688c.854.928 1.556 2.145 1.56 2.706.005.56.172 1.627.371 2.371.309 1.151.128 1.353-1.21 1.353-1.45 0-1.575-.202-1.582-2.555zm7.224-.054c0-5.812-3.667-12.375-8.085-14.472-4.708-2.233-11.635-.537-16.12 3.947l-3.01 3.01.297 4.146c.33 4.612-.213 4.869-1.995.944-2.175-4.788-1.164-8.952 3.048-12.557 3.233-2.768 6.999-4.055 11.86-4.055 6.51 0 10.275 2.413 14.443 9.256 1.824 2.994 2.203 4.23 2.443 7.967l.284 4.424h-1.583c-1.466 0-1.582-.192-1.582-2.61zm-6.848-7.095c-2.932-1.546-7.495-1.595-10.014-.106-1.6.944-1.902.968-2.397.184-.938-1.483-.666-2.715.929-4.213 1.818-1.708 6.213-1.892 9.13-.384 1.877.97 4.99 4.247 4.99 5.25 0 .696.14.734-2.638-.73zm-45.188-.754c-3.609-.877-4.489-1.36-4.489-2.47 0-1.418 1.045-1.578 4.034-.617 1.585.509 5.178 1.127 7.985 1.373 4.169.365 5.141.64 5.306 1.5.18.937-.345 1.046-4.803 1-2.753-.027-6.368-.381-8.033-.786zm56.045-.164c-1.671-1.671 2.21-3.561 8.92-4.344 2.314-.27 4.68-.694 5.256-.942.72-.31 1.17-.131 1.44.574.52 1.355-.729 2.085-3.584 2.097-1.265.005-4.315.686-6.778 1.512-5.086 1.708-4.725 1.632-5.254 1.103zm-5.212-8.49c0-.59.88-1.58 1.954-2.202 1.075-.62 3.922-2.438 6.326-4.038 4.91-3.267 5.718-3.498 5.442-1.556-.134.947-1.892 2.48-5.858 5.111-5.848 3.879-7.864 4.567-7.864 2.685zM41.25 12.178c-3.688-2.836-4.892-4.692-3.573-5.507.7-.432 10.338 6.878 10.338 7.841 0 1.665-2.838.685-6.765-2.334zm17.4-.918C56.447 6.83 52.734-3.422 53.04-4.222c.528-1.376 1.463-1.085 2.412.75 1.849 3.578 6.341 15.38 6.04 15.868-.642 1.038-2.042.478-2.844-1.136zm15.436-1.662c-.562-1.467.206-14.181.9-14.875 1.316-1.317 1.892.37 1.858 5.448-.019 2.875-.223 6.286-.453 7.582-.448 2.524-1.67 3.5-2.305 1.845z" style="fill:#761f37;fill-opacity:1" transform="translate(-.426 12.039)"/>
  <path d="m64.894 49.945.016-.474-.267.254c-.526.501-.868.66-1.426.66-.413 0-.642-.047-.936-.19-.592-.287-.935-.89-1.028-1.806-.136-1.348.511-2.605 1.631-3.165.448-.225.728-.277 1.362-.256.285.01.555.03.6.044l.083.027-.014-.965c-.01-.715-.026-.99-.061-1.061-.05-.102-.133-.138-.469-.204l-.202-.04v-.155c0-.152.002-.155.15-.193.082-.022.363-.104.625-.184a4.59 4.59 0 0 1 .66-.16l.183-.014-.02 3.482c-.022 3.612-.012 3.961.115 4.054.06.044.12.058.445.099l.167.021v.155c0 .15-.005.157-.132.19-.073.02-.378.108-.678.196-.3.088-.608.16-.683.16h-.137zm-.95-.265c.24-.091.619-.377.8-.605l.143-.18v-3.02l-.169-.085c-.33-.168-.542-.207-1.025-.19-.7.026-.932.146-1.156.6-.451.914-.477 2.259-.056 2.977.117.2.4.45.584.515.223.079.653.073.879-.012zm-14.922.65a3.074 3.074 0 0 1-.76-.237l-.154-.078.01-3.305c.005-1.817-.002-3.386-.016-3.487-.02-.157-.04-.191-.127-.237a1.031 1.031 0 0 0-.299-.072c-.231-.023-.281-.056-.281-.183 0-.117.042-.152.242-.201.086-.021.366-.101.622-.178.256-.077.527-.14.602-.14h.137l-.02 1.83-.02 1.831.179-.174c.254-.246.652-.498.914-.58.278-.085.802-.093 1.099-.015.774.201 1.258.886 1.372 1.945.093.86-.134 1.684-.638 2.312a2.884 2.884 0 0 1-1.468.954c-.312.08-1.033.088-1.394.015zm1.605-.587c.361-.128.476-.22.617-.491.26-.502.353-.938.353-1.657-.001-.998-.236-1.563-.756-1.82-.209-.102-.24-.108-.545-.096-.282.01-.354.027-.553.125-.225.11-.579.415-.7.603-.054.083-.062.25-.08 1.615l-.021 1.522.179.091c.275.14.508.188.905.19.299.001.406-.013.601-.082zm17.893.58c-.706-.19-1.226-.775-1.432-1.611-.122-.496-.115-1.246.017-1.743.235-.887.708-1.58 1.37-2.008.358-.231.627-.31 1.13-.332.34-.015.481-.005.655.045.524.151.916.524 1.105 1.05.117.325.123.94.01 1.09-.146.196-.269.21-1.9.228l-1.492.016.02.624c.022.674.068.91.255 1.303.145.306.438.575.723.665.284.09.744.067 1.047-.052.121-.047.356-.178.52-.29.33-.225.405-.23.533-.033.061.093.06.096-.171.31-.46.427-.796.635-1.201.743-.26.069-.924.066-1.189-.005zm2.072-3.792c.037-.117-.051-.57-.152-.778-.109-.225-.407-.51-.6-.574-.081-.027-.277-.038-.495-.03-.47.02-.605.085-.814.393-.15.22-.368.722-.414.95l-.022.11h1.237c1.183 0 1.238-.003 1.26-.07zm8.422 3.825a3.82 3.82 0 0 1-.89-.288c-1.066-.537-1.643-1.564-1.748-3.11-.115-1.69.834-3.302 2.392-4.062.625-.305.844-.35 1.743-.352.6-.001.85.014 1.147.069.21.039.4.083.425.098.03.019.051.23.065.663l.02.636-.108.015c-.206.028-.256 0-.367-.214-.176-.335-.488-.556-.913-.647-.273-.058-.985-.051-1.28.012-.433.092-.648.195-.91.436-.692.634-1.11 1.724-1.11 2.897 0 1.408.509 2.428 1.465 2.938.332.177.724.262 1.207.26.499 0 .758-.056 1.329-.287l.427-.172.087.101c.049.057.088.15.088.212 0 .102-.026.122-.384.293-.44.211-.937.384-1.349.47-.266.054-1.085.074-1.336.032zm5.617-.033c-.706-.19-1.226-.775-1.432-1.611-.122-.496-.115-1.246.017-1.743.235-.887.708-1.58 1.37-2.008.358-.231.627-.31 1.13-.332.34-.015.481-.005.655.045.524.151.916.524 1.105 1.049.117.326.123.94.01 1.091-.146.196-.269.21-1.9.228l-1.492.016.02.624c.022.674.068.91.255 1.303.145.306.438.575.723.665.284.09.744.067 1.047-.052.121-.047.356-.178.52-.29.33-.225.405-.23.533-.033.061.093.06.096-.171.31-.46.427-.796.635-1.201.743-.26.069-.924.066-1.189-.005zm2.072-3.792c.037-.117-.051-.57-.152-.778-.109-.225-.407-.51-.6-.574-.081-.027-.277-.038-.495-.03-.47.02-.605.085-.814.393-.15.22-.368.722-.414.95l-.022.11h1.237c1.183 0 1.238-.003 1.26-.07zm9.776 3.79a.802.802 0 0 1-.515-.522c-.045-.152-.052-.562-.045-2.345l.01-2.161h-.936v-.127c0-.07.021-.143.047-.165.088-.072.512-.195.675-.195h.162l.23-.477c.128-.262.263-.561.303-.664l.07-.187.193-.012.191-.01v1.35h1.468l-.026.14a.793.793 0 0 1-.038.152 3.228 3.228 0 0 1-.268.103c-.214.075-.328.09-.692.09l-.435.002-.027.982c-.014.54-.02 1.454-.013 2.03.011.923.02 1.063.08 1.171.11.2.262.27.595.27.262 0 .313-.013.562-.144.22-.116.289-.137.356-.107.086.038.182.259.142.324-.05.081-.56.353-.853.455-.262.091-.364.107-.682.105a2.402 2.402 0 0 1-.554-.057zm3.945.002c-.707-.19-1.227-.775-1.433-1.611-.122-.496-.115-1.246.017-1.743.235-.887.708-1.58 1.37-2.008.358-.231.627-.31 1.13-.332.34-.015.481-.005.655.045.524.151.916.524 1.105 1.05.117.325.123.94.01 1.09-.146.196-.269.21-1.9.228l-1.492.016.02.624c.022.674.068.91.255 1.303.145.306.438.575.723.665.284.09.744.067 1.047-.052.122-.047.356-.178.52-.29.33-.225.405-.23.533-.033.061.093.06.096-.171.31-.46.427-.796.635-1.201.743-.259.069-.924.066-1.188-.005zm2.071-3.792c.037-.117-.051-.57-.152-.778-.109-.225-.407-.51-.6-.574-.081-.027-.277-.038-.495-.03-.47.02-.605.085-.814.393-.15.22-.368.722-.414.95l-.022.11h1.237c1.183 0 1.238-.003 1.26-.07zm-76.74 3.617c-.033-.231 0-.275.247-.324.128-.025.299-.083.38-.128.119-.067.152-.111.176-.232.043-.221.1-4.93.065-5.546-.02-.39-.045-.558-.09-.626-.06-.092-.294-.184-.593-.232-.14-.022-.14-.023-.14-.205v-.183l1.338.01 1.337.01.013.088c.028.198-.016.25-.253.298-.307.064-.478.14-.532.24-.063.118-.114 2.42-.1 4.502.01 1.522.017 1.657.08 1.753.078.118.24.196.534.255.22.044.273.117.224.31l-.023.093h-2.65Zm3.948-.338.53-.182s-2.376-3.113-2.398-3.205c-.01-.042.374-.509 1.13-1.372 1.108-1.265 1.344-1.554 1.367-1.669.032-.161-.142-.298-.435-.343-.06-.009-.077-.044-.086-.188l-.011-.178h2.478l-.012.174-.011.174-.257.07a1.615 1.615 0 0 0-.411.179c-.204.142-.821.775-1.891 1.937l-.869.944.61.834c.687.94 1.938 2.48 1.987 2.509 0 0 1.313.255 1.532.375 0 0 .075.027.128.069.002.001.1.069.058.294l-3.42-.001zm4.734.427c-.042-.042-.027-.226.022-.265a.895.895 0 0 1 .245-.08c.251-.053.405-.131.464-.238.034-.061.053-.525.073-1.693.028-1.764.014-2.313-.066-2.44-.054-.088-.204-.139-.529-.18-.192-.025-.196-.028-.196-.15 0-.07.016-.136.036-.148.09-.056 1.348-.408 1.508-.423l.177-.016v2.315c0 1.333.016 2.409.037 2.538.026.159.061.242.12.286.077.059.404.168.573.191.06.009.077.044.086.169l.012.158H35.73c-.698 0-1.28-.011-1.293-.024zm.87-7.107c-.143-.094-.296-.364-.296-.52a.7.7 0 0 1 .273-.521.486.486 0 0 1 .352-.109c.244 0 .385.067.524.25.09.116.105.172.105.371 0 .262-.064.382-.28.53-.173.117-.5.117-.678 0zm2.066 7.107c-.042-.042-.027-.226.022-.265a.895.895 0 0 1 .245-.08c.252-.053.405-.132.462-.238.09-.165.138-3.91.054-4.111-.039-.092-.198-.15-.479-.173l-.254-.021v-.162c0-.158.003-.162.16-.204.087-.023.429-.124.76-.224.346-.105.635-.173.682-.16.08.02.082.036.084.587v.567l.083-.112c.282-.387.81-.816 1.151-.936.2-.071.673-.073.84-.003.234.098.265.294.108.686a3.512 3.512 0 0 1-.172.372c-.065.11-.091.124-.234.124-.145 0-.165-.011-.2-.112-.072-.205-.204-.3-.417-.3-.341 0-.683.246-.996.716l-.17.256.012 1.544c.01 1.202.023 1.564.062 1.632.058.102.366.25.596.287l.159.025v.33h-1.267c-.697-.001-1.278-.012-1.291-.025zm4.101-.089c-.036-.144.012-.222.152-.248.266-.048.493-.155.529-.248.019-.05.048-.472.066-.94.04-1.084.06-5.532.025-5.628-.033-.09-.159-.15-.367-.173-.315-.036-.316-.037-.316-.185 0-.135 0-.135.199-.191.11-.031.406-.118.658-.193.252-.075.522-.137.6-.137h.14l-.023 1.618c-.04 2.656-.037 5.653.003 5.77.046.13.241.244.508.297l.199.04v.302h-2.352zm3.887.05c-.292-.088-.524-.359-1.735-2.034l-.407-.563.673-.7c.809-.84.951-1.008.98-1.16.027-.148-.026-.203-.25-.259-.163-.04-.17-.046-.17-.163v-.12l1.047-.01 1.046-.008v.264l-.207.039c-.314.058-.52.218-1.414 1.099l-.809.796.473.631c.535.716 1.065 1.359 1.34 1.624.184.179.377.287.513.287.083 0 .144.128.115.238-.018.07-.037.073-.56.07-.297-.001-.583-.015-.635-.031zm7.744.009c-.042-.042-.027-.226.022-.265a.895.895 0 0 1 .245-.08c.252-.053.405-.132.462-.238.09-.165.137-3.91.053-4.111-.038-.092-.197-.149-.478-.172l-.254-.022v-.161c0-.159.003-.163.16-.204.087-.024.429-.125.76-.225.346-.105.635-.172.682-.16.08.02.082.037.083.588l.002.566.082-.112c.282-.387.809-.815 1.151-.936.2-.07.673-.072.84-.003.234.098.265.294.108.687a3.512 3.512 0 0 1-.172.37c-.065.11-.092.125-.234.125-.145 0-.165-.011-.2-.112-.072-.205-.204-.3-.417-.3-.341 0-.683.246-.996.716l-.17.256.012 1.545c.01 1.201.023 1.563.062 1.631.058.102.366.25.595.287l.16.025v.33h-1.267c-.697 0-1.278-.012-1.291-.025zm4.638.001c-.04-.04-.025-.214.021-.252a.85.85 0 0 1 .233-.075c.239-.05.384-.125.44-.227.032-.058.051-.498.07-1.608.027-1.676.013-2.198-.062-2.319-.052-.082-.194-.13-.503-.17-.183-.024-.187-.026-.187-.143 0-.066.016-.129.035-.14.085-.053 1.28-.388 1.432-.402l.169-.015v2.199c0 1.266.015 2.289.035 2.411.025.151.058.23.113.272.074.056.385.16.545.182.056.008.074.041.082.16l.011.15h-1.205c-.663 0-1.216-.01-1.229-.023zm.827-7.046c-.136-.09-.281-.346-.281-.495 0-.177.11-.386.26-.495a.462.462 0 0 1 .333-.103c.232 0 .366.064.498.237.085.111.1.165.1.353 0 .25-.06.364-.267.504-.164.111-.475.111-.643 0zm29.936 7.045c-.042-.042-.026-.226.022-.265a.895.895 0 0 1 .246-.08c.251-.053.404-.132.462-.238.03-.057.056-.507.079-1.412.038-1.492.02-2.567-.043-2.686-.042-.079-.275-.148-.566-.168-.127-.009-.131-.014-.142-.178l-.01-.168.253-.072c.14-.04.482-.144.76-.232.294-.094.54-.152.59-.14.082.021.084.034.084.531v.51l.233-.227c.33-.32.502-.443.838-.604.294-.14.296-.14.78-.14.286 0 .552.02.643.047.365.111.701.439.825.806.06.175.066.377.067 2.028.002 2.105.003 2.115.255 2.229.086.039.246.09.354.115.21.048.268.127.216.291-.025.076-.046.077-1.297.077h-1.272l.011-.153.012-.154.27-.068c.39-.1.449-.147.485-.403.017-.117.03-.962.03-1.878V45.91l-.103-.196c-.156-.296-.335-.4-.724-.416a1.347 1.347 0 0 0-.496.05c-.25.082-.65.369-.915.655l-.217.235.011 1.634c.011 1.488.018 1.643.078 1.735.075.114.253.2.542.262l.197.042v.32h-1.267c-.697 0-1.278-.01-1.291-.024zm15.792 0c-.042-.042-.026-.226.023-.265a.895.895 0 0 1 .245-.08c.251-.053.404-.132.462-.238.089-.165.137-3.91.053-4.111-.038-.092-.197-.149-.478-.172l-.254-.022v-.161c0-.159.003-.163.159-.204.087-.024.43-.125.76-.225.347-.105.635-.172.683-.16.08.02.082.037.083.588l.001.566.082-.112c.282-.387.81-.815 1.151-.936.201-.07.673-.072.84-.003.234.098.265.294.109.687a3.497 3.497 0 0 1-.173.37c-.064.11-.091.125-.234.125-.145 0-.165-.011-.2-.112-.071-.205-.203-.3-.417-.3-.341 0-.683.246-.995.716l-.17.256.011 1.545c.01 1.201.023 1.563.062 1.631.058.102.366.25.596.287l.159.025v.33h-1.267c-.696 0-1.277-.012-1.29-.025z" style="fill:#000;stroke-width:.898417" transform="translate(-.426 12.039)"/>
</svg>
