<?xml version="1.0" encoding="UTF-8" standalone="no"?>
<!-- Created with Inkscape (http://www.inkscape.org/) -->

<svg
   width="500"
   height="260"
   viewBox="0 0 132.29166 68.791668"
   version="1.1"
   id="svg1"
   xml:space="preserve"
   inkscape:version="1.4 (86a8ad7, 2024-10-11)"
   sodipodi:docname="kirkbride.svg"
   xmlns:inkscape="http://www.inkscape.org/namespaces/inkscape"
   xmlns:sodipodi="http://sodipodi.sourceforge.net/DTD/sodipodi-0.dtd"
   xmlns="http://www.w3.org/2000/svg"
   xmlns:svg="http://www.w3.org/2000/svg"><sodipodi:namedview
     id="namedview1"
     pagecolor="#ffffff"
     bordercolor="#111111"
     borderopacity="1"
     inkscape:showpageshadow="0"
     inkscape:pageopacity="0"
     inkscape:pagecheckerboard="1"
     inkscape:deskcolor="#d1d1d1"
     inkscape:document-units="px"
     inkscape:zoom="0.70710678"
     inkscape:cx="168.99852"
     inkscape:cy="470.93311"
     inkscape:window-width="1920"
     inkscape:window-height="1115"
     inkscape:window-x="-9"
     inkscape:window-y="-9"
     inkscape:window-maximized="1"
     inkscape:current-layer="layer1" /><defs
     id="defs1" /><g
     inkscape:label="Layer 1"
     inkscape:groupmode="layer"
     id="layer1"><g
       id="g115"
       transform="translate(-0.4259503,12.038967)"><path
         id="path27"
         style="fill:#761f37;fill-opacity:1"
         d="m 98.525643,40.143152 c -7.790695,-1.35095 -9.002615,-1.39509 -30.066331,-1.09517 -12.071629,0.17188 -26.954459,0.48436 -33.072956,0.69439 -7.569757,0.25986 -10.932389,0.18559 -10.523213,-0.23242 0.826427,-0.84427 46.548503,-2.2071 59.831985,-1.7834 12.301605,0.39238 23.965032,2.29714 22.209002,3.62696 -0.14331,0.10853 -3.91363,-0.43613 -8.378487,-1.21036 z m -72.414584,-5.43603 c -0.818773,-0.81877 -0.238894,-2.44297 1.007058,-2.82069 0.744142,-0.2256 4.532498,-0.5649 8.418571,-0.75401 6.780208,-0.32994 7.065586,-0.29524 7.065586,0.8593 0,1.09996 -0.540791,1.23936 -6.305932,1.62555 -3.468263,0.23232 -7.100952,0.65041 -8.072644,0.92909 -0.971691,0.27868 -1.922379,0.35102 -2.112639,0.16076 z m 70.916484,-0.69095 c -2.205245,-0.26195 -3.054375,-0.63567 -3.201055,-1.40885 -0.17944,-0.94578 0.41363,-1.05232 5.857718,-1.05232 5.521874,0 6.057364,0.0997 6.057364,1.12749 0,0.78172 -0.57627,1.24274 -1.87915,1.50332 -1.98069,0.39613 -2.09595,0.39327 -6.834877,-0.16964 z m -50.684792,-1.10818 c -0.939305,-2.29306 -0.369587,-9.41493 1.003834,-12.54864 1.512238,-3.45044 4.998105,-7.21186 6.069747,-6.54954 1.715011,1.05993 1.660905,2.9419 -0.137848,4.79477 -2.582338,2.66004 -4.086976,6.40498 -4.486085,11.16554 -0.251687,3.00213 -0.587657,4.19019 -1.184937,4.19019 -0.458506,0 -1.027626,-0.47355 -1.264711,-1.05232 z m 5.614181,-0.28413 c -1.034719,-1.47727 -1.299652,-7.08212 -0.334761,-7.08212 0.330729,0 0.601326,0.82257 0.601326,1.82793 0,1.00537 0.546694,2.89955 1.214875,4.20929 0.988677,1.93797 1.051006,2.38135 0.33476,2.38135 -0.484062,0 -1.301352,-0.60141 -1.8162,-1.33645 z m 24.912736,-1.21919 c -0.004,-1.4056 -0.16141,-3.23213 -0.34866,-4.05895 l -0.34045,-1.50332 1.55131,1.68718 c 0.85323,0.92795 1.55502,2.14564 1.55953,2.70597 0.005,0.56033 0.17138,1.62763 0.3708,2.37177 0.30839,1.15076 0.12741,1.35299 -1.21087,1.35299 -1.44894,0 -1.5741,-0.20223 -1.58166,-2.55564 z m 7.22413,-0.0548 c 0,-5.81228 -3.66636,-12.3747 -8.08511,-14.47154 -4.707305,-2.23376 -11.634868,-0.53759 -16.119128,3.94667 l -3.010082,3.01008 0.296632,4.14582 c 0.329963,4.61167 -0.213266,4.86874 -1.995388,0.94424 -2.174398,-4.78835 -1.163676,-8.95258 3.047902,-12.55753 3.23312,-2.76743 6.999308,-4.05509 11.860438,-4.05509 6.509886,0 10.275146,2.41305 14.443286,9.25632 1.82347,2.99378 2.20249,4.23023 2.44234,7.96757 l 0.2839,4.42386 h -1.58239 c -1.46597,0 -1.5824,-0.19207 -1.5824,-2.6104 z m -6.84817,-7.09448 c -2.932,-1.54629 -7.494377,-1.59494 -10.013652,-0.10677 -1.599543,0.94487 -1.901564,0.96815 -2.396845,0.18477 -0.93789,-1.48346 -0.666463,-2.7149 0.928711,-4.21349 1.817781,-1.70772 6.213055,-1.89232 9.130786,-0.38351 1.87648,0.97037 4.98989,4.24614 4.98989,5.25012 0,0.69537 0.13887,0.73384 -2.63889,-0.73112 z m -45.188041,-0.75435 c -3.608163,-0.87665 -4.488475,-1.36095 -4.488475,-2.46929 0,-1.4185 1.045096,-1.57865 4.034328,-0.61823 1.58451,0.50909 5.177735,1.12705 7.984945,1.37325 4.168406,0.36558 5.140989,0.64053 5.305699,1.49995 0.179628,0.93727 -0.345567,1.04673 -4.803356,1.00119 -2.752769,-0.0281 -6.367683,-0.38222 -8.033141,-0.78687 z m 56.045061,-0.16421 c -1.67114,-1.67113 2.20956,-3.56118 8.919675,-4.34423 2.315113,-0.27016 4.680557,-0.69409 5.256547,-0.94207 0.7201,-0.31001 1.17014,-0.13063 1.44061,0.57421 0.51993,1.35492 -0.72916,2.0857 -3.58449,2.09714 -1.264617,0.005 -4.314527,0.6857 -6.777602,1.51252 -5.0866,1.70752 -4.72543,1.63175 -5.25474,1.10243 z m -5.2115,-8.48936 c 0,-0.59015 0.87944,-1.58108 1.95431,-2.20206 1.07487,-0.62099 3.92136,-2.43821 6.32553,-4.0382704 4.909275,-3.26731 5.718025,-3.49857 5.442165,-1.55623 -0.13452,0.94718 -1.891695,2.48022 -5.858555,5.1112804 -5.84747,3.87838 -7.86345,4.56682 -7.86345,2.68528 z M 41.249289,12.177952 C 37.561151,9.3417916 36.35724,7.4864416 37.676124,6.6713216 c 0.699693,-0.43243 10.338088,6.8778204 10.338088,7.8409404 0,1.66457 -2.838441,0.68513 -6.764923,-2.33431 z M 58.6487,11.260202 C 56.447037,6.8288716 52.734425,-3.4216984 53.041394,-4.2216484 c 0.52805,-1.37608 1.46284,-1.08556 2.411198,0.74935 1.849296,3.57807991 6.341377,15.3804504 6.039706,15.8685704 -0.641131,1.03737 -2.041766,0.47779 -2.843598,-1.13607 z M 74.085258,9.5975616 c -0.562708,-1.46639 0.20561,-14.18101 0.89882,-14.87421 1.31715,-1.31716 1.89282,0.36971 1.85915,5.44779991 -0.0191,2.87436009 -0.22299,6.28628009 -0.45317,7.58203009 -0.44828,2.5235004 -1.66926,3.5005704 -2.3048,1.84438 z" /><path
         id="path80"
         style="fill:#000000;stroke-width:0.898417"
         d="m 64.894267,49.945027 0.01609,-0.47449 -0.266946,0.254338 c -0.526075,0.501231 -0.868343,0.65941 -1.426834,0.65941 -0.412708,0 -0.641349,-0.04619 -0.935214,-0.188912 -0.592645,-0.28784 -0.935131,-0.889561 -1.028065,-1.806232 -0.136667,-1.348041 0.51089,-2.604841 1.63105,-3.165594 0.448051,-0.224295 0.727829,-0.276831 1.361218,-0.255606 0.285163,0.0096 0.55568,0.02939 0.601148,0.04404 l 0.08268,0.02667 -0.01395,-0.965134 c -0.01033,-0.714868 -0.02627,-0.989994 -0.06143,-1.061008 C 64.80379,42.9111 64.720843,42.875035 64.38529,42.808707 l -0.202597,-0.04004 v -0.154699 c 0,-0.152451 0.0022,-0.15526 0.149746,-0.193313 0.08236,-0.02123 0.363795,-0.104039 0.625411,-0.184002 0.261616,-0.07995 0.558399,-0.151838 0.659521,-0.159727 l 0.183857,-0.01434 -0.02089,3.482592 c -0.02166,3.611809 -0.01171,3.960805 0.115563,4.053872 0.06019,0.04402 0.120924,0.0575 0.444899,0.09878 l 0.167362,0.02133 v 0.155039 c 0,0.149326 -0.0048,0.15635 -0.132128,0.19069 -0.07267,0.01961 -0.377889,0.107367 -0.678262,0.195016 -0.300374,0.08765 -0.60766,0.159421 -0.682859,0.159492 l -0.136725,1.33e-4 z m -0.950742,-0.265354 c 0.240719,-0.09095 0.61948,-0.377055 0.801015,-0.605054 l 0.142828,-0.179384 V 47.385352 45.875468 L 64.7185,45.789892 c -0.331386,-0.167925 -0.542558,-0.206915 -1.025469,-0.189334 -0.699788,0.02548 -0.931608,0.145662 -1.155665,0.599142 -0.451738,0.91429 -0.477404,2.259321 -0.05681,2.977263 0.116996,0.199709 0.400945,0.449891 0.584303,0.514818 0.223012,0.07898 0.65332,0.07304 0.878669,-0.01211 z M 49.0218,50.330385 c -0.319176,-0.06389 -0.581396,-0.145643 -0.759979,-0.236958 l -0.154136,-0.07881 0.0097,-3.304286 c 0.0054,-1.817356 -0.0014,-3.386759 -0.01498,-3.487561 -0.02111,-0.156677 -0.03967,-0.191012 -0.127797,-0.236586 -0.05669,-0.02933 -0.190919,-0.06191 -0.298262,-0.07241 -0.231431,-0.02264 -0.281717,-0.05528 -0.281717,-0.182815 0,-0.117166 0.04248,-0.152373 0.242685,-0.201128 0.08588,-0.02091 0.365679,-0.101055 0.621789,-0.178096 0.256109,-0.07703 0.527164,-0.140072 0.602343,-0.140072 h 0.136691 l -0.02048,1.830666 -0.02048,1.830667 0.179426,-0.173887 c 0.253986,-0.246144 0.651935,-0.498256 0.914476,-0.579347 0.277882,-0.08583 0.80163,-0.09356 1.09859,-0.01621 0.774489,0.201728 1.25794,0.886905 1.372351,1.944974 0.09305,0.860492 -0.134288,1.684116 -0.638341,2.312692 -0.361959,0.451376 -0.91884,0.813118 -1.46795,0.953556 -0.311852,0.07975 -1.033127,0.08783 -1.393967,0.01562 z m 1.605188,-0.587708 c 0.360971,-0.127379 0.476361,-0.219145 0.617325,-0.490944 0.260181,-0.501672 0.352892,-0.937573 0.352357,-1.656694 -7.43e-4,-0.998423 -0.235265,-1.563111 -0.755555,-1.819249 -0.208836,-0.10281 -0.239878,-0.108329 -0.545267,-0.09693 -0.281865,0.01053 -0.35354,0.02673 -0.55314,0.125069 -0.2244,0.110561 -0.578381,0.415386 -0.699995,0.60279 -0.05389,0.08304 -0.06221,0.250046 -0.08056,1.61514 l -0.02045,1.522525 0.179034,0.09072 c 0.274922,0.139313 0.507946,0.188207 0.905043,0.189898 0.298842,0.0012 0.405796,-0.01338 0.601214,-0.08234 z m 17.893456,0.580272 c -0.706437,-0.189984 -1.226448,-0.774887 -1.432513,-1.611274 -0.122183,-0.495926 -0.114862,-1.245602 0.01702,-1.742693 0.235341,-0.887037 0.708299,-1.57998 1.370534,-2.008003 0.357775,-0.231242 0.626394,-0.310193 1.129355,-0.331935 0.340374,-0.01471 0.48131,-0.005 0.654885,0.0451 0.52381,0.151198 0.916238,0.523766 1.10482,1.048908 0.117087,0.326048 0.123224,0.940428 0.0109,1.091093 -0.146113,0.195985 -0.269067,0.210747 -1.900286,0.228138 l -1.492229,0.01591 0.02024,0.623493 c 0.02189,0.674501 0.06787,0.909916 0.254449,1.302884 0.145359,0.306148 0.438351,0.57556 0.723457,0.665237 0.284356,0.08944 0.743866,0.06676 1.046962,-0.05169 0.121403,-0.04744 0.355721,-0.178173 0.520706,-0.290515 0.329164,-0.224135 0.403815,-0.228679 0.532418,-0.0324 0.06112,0.09327 0.05977,0.0957 -0.171447,0.310437 -0.459111,0.426374 -0.795384,0.634182 -1.200865,0.742105 -0.258906,0.06892 -0.924344,0.06623 -1.188403,-0.0048 z m 2.071523,-3.79155 c 0.03724,-0.117301 -0.05105,-0.57043 -0.151668,-0.778515 -0.108933,-0.225275 -0.407133,-0.51027 -0.600786,-0.574181 -0.08063,-0.02661 -0.276723,-0.03819 -0.494549,-0.02921 -0.469919,0.01938 -0.604926,0.08444 -0.813856,0.392187 -0.150212,0.221263 -0.36808,0.72185 -0.41392,0.951048 l -0.02195,0.109735 h 1.237085 c 1.182284,0 1.238085,-0.0032 1.259641,-0.07106 z m 8.421954,3.824778 c -0.259015,-0.04354 -0.666175,-0.175358 -0.890345,-0.288248 -1.06569,-0.536672 -1.642707,-1.563456 -1.747688,-3.109955 -0.114782,-1.690879 0.834157,-3.302258 2.392305,-4.062331 0.624569,-0.304668 0.844065,-0.348928 1.742612,-0.351382 0.599611,-0.0016 0.850218,0.01333 1.147498,0.06854 0.209188,0.03886 0.400447,0.08306 0.425019,0.09825 0.03043,0.01881 0.05106,0.230331 0.0647,0.66342 l 0.02001,0.63581 -0.108234,0.01466 c -0.206173,0.02795 -0.25535,-7.01e-4 -0.366873,-0.213707 -0.175733,-0.335646 -0.487494,-0.556635 -0.912645,-0.646922 -0.272973,-0.05797 -0.985573,-0.05173 -1.279864,0.0112 -0.433147,0.09264 -0.648859,0.195884 -0.910941,0.436036 -0.691915,0.634013 -1.109553,1.724583 -1.109553,2.897346 0,1.408048 0.508789,2.428073 1.465465,2.937976 0.331967,0.176936 0.72374,0.261704 1.206546,0.261061 0.498644,-6.65e-4 0.757938,-0.05676 1.328776,-0.287471 l 0.427276,-0.17269 0.08728,0.101467 c 0.04855,0.05644 0.08728,0.150201 0.08728,0.211302 0,0.102393 -0.026,0.122309 -0.383578,0.293813 -0.439896,0.210985 -0.936849,0.383716 -1.34874,0.468795 -0.265745,0.0549 -1.085655,0.07515 -1.336295,0.03302 z m 5.61752,-0.03323 c -0.706437,-0.189984 -1.226448,-0.774887 -1.432513,-1.611274 -0.122185,-0.495926 -0.114861,-1.245603 0.01702,-1.742693 0.235341,-0.887037 0.708298,-1.57998 1.370534,-2.008004 0.357775,-0.231241 0.626395,-0.310192 1.129354,-0.331935 0.340376,-0.01471 0.481311,-0.005 0.654887,0.0451 0.523808,0.151197 0.916236,0.523766 1.10482,1.048908 0.117087,0.326048 0.123224,0.940427 0.0109,1.091092 -0.146112,0.195986 -0.269067,0.210748 -1.900286,0.228139 l -1.492229,0.01591 0.02024,0.623492 c 0.02189,0.674502 0.06787,0.909917 0.25445,1.302885 0.14536,0.306147 0.43835,0.57556 0.723456,0.665237 0.284358,0.08944 0.743868,0.06676 1.046963,-0.05169 0.121402,-0.04744 0.35572,-0.178173 0.520705,-0.290515 0.329163,-0.224135 0.403816,-0.22868 0.532419,-0.0324 0.06112,0.09327 0.05977,0.0957 -0.171448,0.310437 -0.45911,0.426374 -0.795382,0.634182 -1.200865,0.742104 -0.258905,0.06892 -0.924342,0.06623 -1.188402,-0.0048 z m 2.071523,-3.79155 c 0.03723,-0.117301 -0.05105,-0.570431 -0.151669,-0.778515 -0.108933,-0.225275 -0.407134,-0.51027 -0.600786,-0.574181 -0.08063,-0.02661 -0.276723,-0.03819 -0.494548,-0.02921 -0.469918,0.01938 -0.604926,0.08444 -0.813855,0.392186 -0.150213,0.221264 -0.368081,0.721851 -0.413921,0.951049 l -0.02195,0.109735 h 1.237085 c 1.182284,0 1.238085,-0.0032 1.25964,-0.07106 z m 9.776127,3.790358 c -0.238995,-0.07345 -0.446248,-0.283421 -0.515556,-0.522305 -0.04418,-0.152262 -0.05196,-0.562207 -0.04449,-2.345636 l 0.0091,-2.161126 H 95.460655 94.9932 v -0.126396 c 0,-0.06951 0.02105,-0.143766 0.04678,-0.164995 0.08785,-0.07249 0.51188,-0.195097 0.674731,-0.195097 h 0.162538 l 0.230505,-0.477131 c 0.126778,-0.262423 0.262604,-0.561333 0.301836,-0.664243 l 0.07132,-0.18711 0.191694,-0.01132 0.191693,-0.01131 v 0.675554 0.675553 h 0.733895 0.733895 l -0.02625,0.140333 c -0.01441,0.07718 -0.0313,0.145536 -0.03759,0.151896 -0.0066,0.0064 -0.126823,0.0523 -0.267968,0.10212 -0.214323,0.07563 -0.328417,0.09069 -0.6921,0.09134 l -0.435467,7.89e-4 -0.02648,0.98233 c -0.01456,0.540281 -0.02068,1.453849 -0.01359,2.030149 0.01134,0.922599 0.02093,1.062552 0.08018,1.171096 0.109276,0.200148 0.2621,0.269353 0.595164,0.269516 0.262195,1.27e-4 0.312939,-0.01287 0.561632,-0.143844 0.220907,-0.116346 0.289266,-0.1369 0.356098,-0.10708 0.08598,0.03837 0.182538,0.259045 0.142023,0.324609 -0.04991,0.08076 -0.559304,0.352227 -0.852301,0.454214 -0.26291,0.09152 -0.36398,0.107104 -0.682806,0.105309 -0.217376,-0.0013 -0.449398,-0.02521 -0.553578,-0.05723 z m 3.944469,0.0012 c -0.706419,-0.189985 -1.226434,-0.774887 -1.432503,-1.611274 -0.122186,-0.495927 -0.114857,-1.245602 0.01699,-1.742693 0.235344,-0.887038 0.708293,-1.57998 1.370523,-2.008004 0.35777,-0.231241 0.6264,-0.310193 1.12936,-0.331935 0.34037,-0.01471 0.48131,-0.005 0.65488,0.0451 0.52381,0.151198 0.91624,0.523767 1.10483,1.048908 0.11707,0.326049 0.12321,0.940428 0.0109,1.091093 -0.14611,0.195986 -0.26906,0.210748 -1.90028,0.228139 l -1.492227,0.01591 0.0202,0.623493 c 0.02198,0.674502 0.06782,0.909916 0.254457,1.302885 0.14534,0.306147 0.43835,0.57556 0.72345,0.665237 0.28435,0.08944 0.74386,0.06676 1.04695,-0.05169 0.12141,-0.04744 0.35574,-0.178174 0.52072,-0.290515 0.32916,-0.224135 0.40381,-0.22868 0.53242,-0.0324 0.0611,0.09327 0.0597,0.0957 -0.17145,0.310436 -0.45912,0.426374 -0.79538,0.634183 -1.20087,0.742105 -0.25891,0.06892 -0.92435,0.06623 -1.1884,-0.0048 z m 2.07152,-3.79155 c 0.0372,-0.117301 -0.0511,-0.570431 -0.15165,-0.778515 -0.10895,-0.225275 -0.40715,-0.510271 -0.6008,-0.574181 -0.0806,-0.02661 -0.27672,-0.03819 -0.49454,-0.02921 -0.46993,0.01938 -0.60494,0.08444 -0.81386,0.392186 -0.15021,0.221264 -0.36808,0.72185 -0.41392,0.951049 l -0.02198,0.109735 h 1.23707 c 1.18229,0 1.23809,-0.0032 1.25964,-0.07106 z m -76.739923,3.616303 c -0.03358,-0.230741 -3.74e-4,-0.274298 0.246475,-0.323364 0.127985,-0.02543 0.298873,-0.08338 0.379755,-0.128742 0.119222,-0.06688 0.152606,-0.110649 0.176374,-0.23126 0.04364,-0.221495 0.09942,-4.929401 0.06571,-5.546756 -0.02123,-0.388846 -0.04547,-0.558069 -0.08954,-0.625338 -0.06033,-0.09209 -0.295271,-0.183806 -0.593911,-0.231862 -0.139929,-0.02252 -0.140333,-0.02311 -0.140333,-0.205382 v -0.182801 l 1.33784,0.0098 1.337841,0.0098 0.01246,0.088 c 0.02799,0.197702 -0.01571,0.249339 -0.252376,0.29822 -0.307575,0.06353 -0.478799,0.140862 -0.532567,0.240533 -0.06313,0.117042 -0.114114,2.419701 -0.09966,4.50176 0.01056,1.522161 0.01667,1.656246 0.07984,1.752609 0.07766,0.118474 0.239823,0.195857 0.53443,0.255022 0.219534,0.0441 0.272374,0.117318 0.223927,0.310344 l -0.02336,0.09305 H 27.092706 25.767343 Z M 29.702542,49.810416 30.23358,49.6276 c 0,0 -2.376853,-3.11271 -2.398936,-3.204841 -0.01005,-0.04194 0.374188,-0.508282 1.130225,-1.371728 1.107922,-1.265324 1.344209,-1.553793 1.366864,-1.668725 0.0318,-0.161356 -0.141992,-0.298595 -0.434328,-0.342968 -0.06074,-0.0092 -0.077,-0.0448 -0.08625,-0.188779 l -0.01141,-0.177418 h 1.239031 1.23903 l -0.0114,0.174104 -0.01141,0.174103 -0.256621,0.0701 c -0.141141,0.03856 -0.32638,0.118878 -0.411643,0.178484 -0.203307,0.142131 -0.820809,0.774905 -1.890712,1.937474 l -0.868603,0.943833 0.609795,0.833717 c 0.687089,0.939392 1.937387,2.480556 1.98655,2.509026 0,0 1.313397,0.254824 1.532401,0.374741 0,0 0.07441,0.02686 0.12815,0.06923 0.0016,0.0011 0.10039,0.06906 0.05788,0.294439 l -3.421001,-0.0016 z m 4.734314,0.426215 c -0.04204,-0.04204 -0.02651,-0.225517 0.02242,-0.264881 0.02572,-0.02069 0.136028,-0.05644 0.245113,-0.07944 0.250986,-0.05289 0.404123,-0.131762 0.463375,-0.238641 0.03375,-0.06087 0.05366,-0.524295 0.07277,-1.692962 0.02883,-1.763668 0.01414,-2.313156 -0.0652,-2.440324 -0.05439,-0.08718 -0.204163,-0.138078 -0.528947,-0.17975 -0.192854,-0.02474 -0.196466,-0.02751 -0.196466,-0.150465 0,-0.0689 0.01629,-0.135324 0.0362,-0.147627 0.0896,-0.05537 1.348234,-0.407993 1.507467,-0.422331 l 0.177755,-0.016 2.17e-4,2.314427 c 1.24e-4,1.333056 0.01577,2.409396 0.03689,2.538398 0.02602,0.158894 0.06068,0.242079 0.11929,0.286289 0.07722,0.05825 0.404426,0.1672 0.573333,0.190902 0.05916,0.0083 0.07725,0.04365 0.08632,0.168766 l 0.01149,0.158262 -1.268839,-1.35e-4 c -0.69786,-7.4e-5 -1.279797,-0.0111 -1.293191,-0.02449 z m 0.869955,-7.10615 c -0.14274,-0.09486 -0.295555,-0.364457 -0.295555,-0.521424 0,-0.185833 0.115844,-0.406594 0.273159,-0.520552 0.121176,-0.08778 0.18823,-0.108453 0.351779,-0.108453 0.24404,0 0.384496,0.06694 0.523856,0.249648 0.08902,0.116709 0.104847,0.172791 0.104847,0.371516 0,0.261782 -0.06372,0.382174 -0.280287,0.529566 -0.172945,0.117707 -0.500443,0.117561 -0.677799,-3.01e-4 z m 2.066029,7.10615 c -0.04204,-0.04204 -0.0265,-0.225517 0.02242,-0.264881 0.02572,-0.02069 0.13603,-0.05644 0.245113,-0.07944 0.251689,-0.05305 0.404654,-0.132053 0.462012,-0.238641 0.08878,-0.16498 0.137169,-3.910021 0.05312,-4.110975 -0.03831,-0.09161 -0.197036,-0.148815 -0.478233,-0.17239 l -0.253941,-0.02129 v -0.161529 c 0,-0.158416 0.0031,-0.162349 0.159044,-0.204054 0.08747,-0.02339 0.429431,-0.124355 0.759903,-0.224368 0.346854,-0.104971 0.635564,-0.172767 0.682954,-0.160374 0.07988,0.02089 0.08212,0.03675 0.08328,0.587791 l 0.0012,0.566322 0.08196,-0.112266 c 0.282486,-0.386915 0.809387,-0.815169 1.151407,-0.935841 0.20059,-0.07078 0.673007,-0.07239 0.839373,-0.0029 0.23454,0.09799 0.265656,0.294434 0.108758,0.686615 -0.05438,0.13593 -0.131823,0.302993 -0.172096,0.371248 -0.06488,0.109952 -0.09159,0.124102 -0.234264,0.124102 -0.145169,0 -0.164885,-0.01103 -0.200047,-0.11189 -0.07138,-0.204772 -0.203571,-0.299754 -0.417172,-0.299754 -0.341016,0 -0.682587,0.245755 -0.995249,0.716063 l -0.170228,0.256062 0.01195,1.544087 c 0.0092,1.201839 0.02303,1.563535 0.06194,1.631827 0.05802,0.101823 0.365707,0.249813 0.595542,0.286431 l 0.159044,0.02535 v 0.164651 0.164652 l -1.266709,-1.36e-4 c -0.696691,-7.3e-5 -1.277669,-0.0111 -1.291062,-0.02448 z m 4.10126,-0.08822 c -0.03622,-0.144299 0.01171,-0.222828 0.151463,-0.248133 0.266049,-0.04818 0.493861,-0.155027 0.52931,-0.248265 0.0187,-0.04921 0.04831,-0.47201 0.06577,-0.93957 0.04052,-1.083945 0.06033,-5.532117 0.02509,-5.62827 -0.03303,-0.0901 -0.158533,-0.149285 -0.367038,-0.173098 -0.314516,-0.03593 -0.315641,-0.03659 -0.315641,-0.185004 0,-0.135107 2.6e-4,-0.135359 0.198948,-0.191525 0.109422,-0.03093 0.40552,-0.117671 0.657995,-0.192753 0.252474,-0.07508 0.522463,-0.136514 0.599975,-0.136514 h 0.140931 l -0.02385,1.617537 c -0.03916,2.656366 -0.0374,5.652728 0.0034,5.769503 0.04541,0.129983 0.24093,0.244846 0.507245,0.297995 l 0.19895,0.03971 v 0.151197 0.151196 h -1.175767 -1.17573 z m 3.886768,0.04955 c -0.292361,-0.08803 -0.523461,-0.358928 -1.734842,-2.033607 l -0.407225,-0.56301 0.67366,-0.699918 c 0.808309,-0.839813 0.950677,-1.008557 0.979207,-1.160629 0.02777,-0.148008 -0.02543,-0.203226 -0.248908,-0.258377 -0.163907,-0.04045 -0.17062,-0.04688 -0.17062,-0.163205 v -0.121099 l 1.046641,-0.0085 1.046642,-0.0085 v 0.132115 0.132115 l -0.207074,0.03851 c -0.313941,0.05838 -0.519627,0.218173 -1.414233,1.098668 l -0.809027,0.796266 0.472476,0.631385 c 0.535653,0.715813 1.065791,1.358426 1.339545,1.623741 0.184718,0.179023 0.378203,0.287008 0.514259,0.287008 0.08221,0 0.143948,0.127979 0.115051,0.238485 -0.01841,0.07039 -0.03776,0.07281 -0.559979,0.06994 -0.2975,-0.0017 -0.583508,-0.0158 -0.635573,-0.03148 z m 7.743885,0.0089 c -0.04204,-0.04204 -0.0265,-0.225518 0.02242,-0.264882 0.02572,-0.02069 0.136028,-0.05644 0.245113,-0.07944 0.25169,-0.05305 0.404654,-0.132053 0.462012,-0.23864 0.08878,-0.16498 0.137168,-3.910021 0.05311,-4.110976 -0.03832,-0.0916 -0.197036,-0.148815 -0.478234,-0.172389 l -0.25394,-0.02128 v -0.161529 c 0,-0.158417 0.0031,-0.162349 0.159044,-0.204055 0.08747,-0.02338 0.429431,-0.124354 0.759904,-0.224368 0.346854,-0.104971 0.635563,-0.172766 0.682953,-0.160374 0.07988,0.02089 0.08212,0.03675 0.08328,0.587792 l 0.0012,0.566322 0.08197,-0.112267 c 0.282486,-0.386915 0.809387,-0.815168 1.151407,-0.93584 0.200589,-0.07077 0.673007,-0.07239 0.839374,-0.0029 0.23454,0.09799 0.265654,0.294434 0.108758,0.686615 -0.05438,0.135931 -0.131825,0.302993 -0.172097,0.371249 -0.06488,0.109951 -0.09159,0.124101 -0.234264,0.124101 -0.14517,0 -0.164886,-0.01103 -0.200047,-0.11189 -0.07138,-0.204772 -0.203571,-0.299753 -0.417171,-0.299753 -0.341017,0 -0.682588,0.245754 -0.995249,0.716062 l -0.17023,0.256063 0.01195,1.544086 c 0.0092,1.201841 0.02303,1.563535 0.06194,1.631828 0.05802,0.101824 0.365708,0.249812 0.595541,0.28643 l 0.159044,0.02535 v 0.164652 0.164651 l -1.266709,-1.36e-4 c -0.69669,-7.3e-5 -1.277667,-0.0111 -1.291063,-0.02448 z m 4.638254,0.0012 c -0.03994,-0.03994 -0.02518,-0.214252 0.0213,-0.25165 0.02443,-0.01966 0.129235,-0.05362 0.232869,-0.07547 0.238447,-0.05025 0.383935,-0.125179 0.440228,-0.226719 0.03205,-0.05783 0.05098,-0.498104 0.06914,-1.608391 0.02739,-1.675562 0.01343,-2.197602 -0.06193,-2.318416 -0.05168,-0.08282 -0.193964,-0.131182 -0.502524,-0.170772 -0.183221,-0.0235 -0.186653,-0.02614 -0.186653,-0.142948 0,-0.06546 0.01548,-0.128563 0.03439,-0.140253 0.08512,-0.0526 1.280882,-0.387611 1.432162,-0.401233 l 0.168875,-0.0152 2.06e-4,2.19881 c 1.18e-4,1.266463 0.01497,2.289035 0.03505,2.411593 0.02472,0.150956 0.05765,0.229986 0.113332,0.271986 0.07336,0.05534 0.384221,0.158848 0.544691,0.181367 0.05622,0.0079 0.07339,0.04147 0.08201,0.160334 l 0.01092,0.150356 -1.205454,-1.28e-4 c -0.662998,-7.1e-5 -1.215863,-0.01055 -1.228589,-0.02327 z m 0.826496,-7.045785 c -0.135609,-0.09012 -0.280791,-0.346251 -0.280791,-0.495376 0,-0.17655 0.110058,-0.386283 0.259513,-0.494548 0.115124,-0.0834 0.178827,-0.103036 0.334207,-0.103036 0.23185,0 0.365289,0.0636 0.497689,0.237177 0.08456,0.110879 0.09961,0.16416 0.09961,0.352957 0,0.248705 -0.06054,0.363083 -0.266283,0.503112 -0.164307,0.111827 -0.475444,0.111688 -0.643941,-2.86e-4 z m 29.936566,7.044555 c -0.04205,-0.04204 -0.02651,-0.225518 0.02242,-0.264882 0.02572,-0.02069 0.136028,-0.05644 0.245114,-0.07944 0.251689,-0.05305 0.404654,-0.132053 0.462012,-0.23864 0.03073,-0.05711 0.0559,-0.506934 0.07899,-1.412297 0.03805,-1.491372 0.02113,-2.567042 -0.04224,-2.685431 -0.04223,-0.0789 -0.275601,-0.148286 -0.566127,-0.168326 -0.127099,-0.0088 -0.131303,-0.01403 -0.141999,-0.177435 l -0.01102,-0.168399 0.254266,-0.07194 c 0.139845,-0.03957 0.481575,-0.144088 0.759397,-0.23227 0.294005,-0.09332 0.540353,-0.151489 0.589398,-0.139179 0.08224,0.02064 0.08426,0.03337 0.08426,0.530565 V 45.6086 l 0.233889,-0.226561 c 0.329943,-0.319608 0.501329,-0.443113 0.837898,-0.603816 0.293238,-0.140015 0.295579,-0.140436 0.780608,-0.140436 0.28495,0 0.550936,0.01959 0.642063,0.04729 0.365342,0.111044 0.701075,0.438806 0.825311,0.805719 0.05939,0.175404 0.06607,0.377509 0.06705,2.028497 0.0013,2.104882 0.0023,2.114228 0.25469,2.228272 0.08626,0.03898 0.245626,0.09099 0.354139,0.115591 0.209313,0.04744 0.267679,0.126362 0.215365,0.291191 -0.02406,0.07579 -0.04521,0.07705 -1.296565,0.077 l -1.272116,-4.5e-5 0.01147,-0.153599 0.01147,-0.1536 0.269248,-0.06816 c 0.391383,-0.09909 0.449624,-0.147344 0.486202,-0.402808 0.01673,-0.116826 0.03041,-0.961789 0.03041,-1.877695 v -1.665284 l -0.103454,-0.196294 c -0.156061,-0.296111 -0.335525,-0.399097 -0.724169,-0.415564 -0.217756,-0.0092 -0.364432,0.0052 -0.49562,0.04879 -0.250623,0.08324 -0.650547,0.369825 -0.915585,0.656097 l -0.217211,0.234614 0.0118,1.634152 c 0.01074,1.488189 0.01772,1.643174 0.07803,1.735157 0.07465,0.113853 0.252511,0.199795 0.541885,0.261835 l 0.196467,0.04212 v 0.160215 0.160216 l -1.266709,-1.36e-4 c -0.69669,-7.3e-5 -1.277668,-0.0111 -1.291062,-0.02448 z m 15.792121,0 c -0.042,-0.04204 -0.0265,-0.225518 0.0225,-0.264882 0.0257,-0.02069 0.13603,-0.05644 0.24511,-0.07944 0.25169,-0.05305 0.40466,-0.132053 0.46201,-0.23864 0.0887,-0.16498 0.13717,-3.910021 0.0532,-4.110976 -0.0383,-0.0916 -0.19703,-0.148815 -0.47822,-0.172389 l -0.25395,-0.02128 v -0.161529 c 0,-0.158417 0.003,-0.162349 0.15904,-0.204055 0.0875,-0.02338 0.42943,-0.124354 0.75991,-0.224368 0.34685,-0.104971 0.63556,-0.172766 0.68296,-0.160374 0.0799,0.02089 0.0822,0.03675 0.0833,0.587792 l 9.5e-4,0.566322 0.082,-0.112267 c 0.28247,-0.386915 0.80937,-0.815168 1.1514,-0.93584 0.20059,-0.07077 0.67301,-0.07239 0.83937,-0.0029 0.23455,0.09799 0.26567,0.294434 0.10876,0.686615 -0.0543,0.135931 -0.13182,0.302993 -0.17209,0.371249 -0.0649,0.109951 -0.0916,0.124101 -0.23428,0.124101 -0.14517,0 -0.16488,-0.01103 -0.20004,-0.11189 -0.0714,-0.204772 -0.20357,-0.299753 -0.41717,-0.299753 -0.34102,0 -0.68258,0.245754 -0.99525,0.716062 l -0.17022,0.256063 0.0119,1.544086 c 0.01,1.201841 0.023,1.563535 0.062,1.631828 0.058,0.101824 0.3657,0.249812 0.59554,0.28643 l 0.15904,0.02535 v 0.164652 0.164651 l -1.26671,-1.36e-4 c -0.69669,-7.3e-5 -1.27766,-0.0111 -1.29106,-0.02448 z" /></g></g></svg>
