<svg xmlns="http://www.w3.org/2000/svg" xml:space="preserve" viewBox="0 0 132.29166 68.791668">
  <path d="M98.525643 40.143152c-7.790695-1.35095-9.002615-1.39509-30.066331-1.09517-12.071629.17188-26.954459.48436-33.072956.69439-7.569757.25986-10.932389.18559-10.523213-.23242.826427-.84427 46.548503-2.2071 59.831985-1.7834 12.301605.39238 23.965032 2.29714 22.209002 3.62696-.14331.10853-3.91363-.43613-8.378487-1.21036zm-72.414584-5.43603c-.818773-.81877-.238894-2.44297 1.007058-2.82069.744142-.2256 4.532498-.5649 8.418571-.75401 6.780208-.32994 7.065586-.29524 7.065586.8593 0 1.09996-.540791 1.23936-6.305932 1.62555-3.468263.23232-7.100952.65041-8.072644.92909-.971691.27868-1.922379.35102-2.112639.16076zm70.916484-.69095c-2.205245-.26195-3.054375-.63567-3.201055-1.40885-.17944-.94578.41363-1.05232 5.857718-1.05232 5.521874 0 6.057364.0997 6.057364 1.12749 0 .78172-.57627 1.24274-1.87915 1.50332-1.98069.39613-2.09595.39327-6.834877-.16964zm-50.684792-1.10818c-.939305-2.29306-.369587-9.41493 1.003834-12.54864 1.512238-3.45044 4.998105-7.21186 6.069747-6.54954 1.715011 1.05993 1.660905 2.9419-.137848 4.79477-2.582338 2.66004-4.086976 6.40498-4.486085 11.16554-.251687 3.00213-.587657 4.19019-1.184937 4.19019-.458506 0-1.027626-.47355-1.264711-1.05232zm5.614181-.28413c-1.034719-1.47727-1.299652-7.08212-.334761-7.08212.330729 0 .601326.82257.601326 1.82793 0 1.00537.546694 2.89955 1.214875 4.20929.988677 1.93797 1.051006 2.38135.33476 2.38135-.484062 0-1.301352-.60141-1.8162-1.33645zm24.912736-1.21919c-.004-1.4056-.16141-3.23213-.34866-4.05895l-.34045-1.50332 1.55131 1.68718c.85323.92795 1.55502 2.14564 1.55953 2.70597.005.56033.17138 1.62763.3708 2.37177.30839 1.15076.12741 1.35299-1.21087 1.35299-1.44894 0-1.5741-.20223-1.58166-2.55564zm7.22413-.0548c0-5.81228-3.66636-12.3747-8.08511-14.47154-4.707305-2.23376-11.634868-.53759-16.119128 3.94667l-3.010082 3.01008.296632 4.14582c.329963 4.61167-.213266 4.86874-1.995388.94424-2.174398-4.78835-1.163676-8.95258 3.047902-12.55753 3.23312-2.76743 6.999308-4.05509 11.860438-4.05509 6.509886 0 10.275146 2.41305 14.443286 9.25632 1.82347 2.99378 2.20249 4.23023 2.44234 7.96757l.2839 4.42386h-1.58239c-1.46597 0-1.5824-.19207-1.5824-2.6104zm-6.84817-7.09448c-2.932-1.54629-7.494377-1.59494-10.013652-.10677-1.599543.94487-1.901564.96815-2.396845.18477-.93789-1.48346-.666463-2.7149.928711-4.21349 1.817781-1.70772 6.213055-1.89232 9.130786-.38351 1.87648.97037 4.98989 4.24614 4.98989 5.25012 0 .69537.13887.73384-2.63889-.73112zm-45.188041-.75435c-3.608163-.87665-4.488475-1.36095-4.488475-2.46929 0-1.4185 1.045096-1.57865 4.034328-.61823 1.58451.50909 5.177735 1.12705 7.984945 1.37325 4.168406.36558 5.140989.64053 5.305699 1.49995.179628.93727-.345567 1.04673-4.803356 1.00119-2.752769-.0281-6.367683-.38222-8.033141-.78687zm56.045061-.16421c-1.67114-1.67113 2.20956-3.56118 8.919675-4.34423 2.315113-.27016 4.680557-.69409 5.256547-.94207.7201-.31001 1.17014-.13063 1.44061.57421.51993 1.35492-.72916 2.0857-3.58449 2.09714-1.264617.005-4.314527.6857-6.777602 1.51252-5.0866 1.70752-4.72543 1.63175-5.25474 1.10243zm-5.2115-8.48936c0-.59015.87944-1.58108 1.95431-2.20206 1.07487-.62099 3.92136-2.43821 6.32553-4.0382704 4.909275-3.26731 5.718025-3.49857 5.442165-1.55623-.13452.94718-1.891695 2.48022-5.858555 5.1112804-5.84747 3.87838-7.86345 4.56682-7.86345 2.68528zm-41.641859-2.66952c-3.688138-2.8361604-4.892049-4.6915104-3.573165-5.5066304.699693-.43243 10.338088 6.8778204 10.338088 7.8409404 0 1.66457-2.838441.68513-6.764923-2.33431zm17.399411-.91775c-2.201663-4.4313304-5.914275-14.6819004-5.607306-15.4818504.52805-1.37608 1.46284-1.08556 2.411198.74935C57.301888.10578151 61.793969 11.908152 61.492298 12.396272c-.641131 1.03737-2.041766.47779-2.843598-1.13607zm15.436558-1.6626404c-.562708-1.46639.20561-14.18101.89882-14.87421 1.31715-1.31716 1.89282.36971 1.85915 5.44779991-.0191 2.87436009-.22299 6.28628009-.45317 7.58203009-.44828 2.5235004-1.66926 3.5005704-2.3048 1.84438z" style="fill:#761f37;fill-opacity:1" transform="translate(-.4259503 12.038967)"/>
  <path d="m64.894267 49.945027.01609-.47449-.266946.254338c-.526075.501231-.868343.65941-1.426834.65941-.412708 0-.641349-.04619-.935214-.188912-.592645-.28784-.935131-.889561-1.028065-1.806232-.136667-1.348041.51089-2.604841 1.63105-3.165594.448051-.224295.727829-.276831 1.361218-.255606.285163.0096.55568.02939.601148.04404l.08268.02667-.01395-.965134c-.01033-.714868-.02627-.989994-.06143-1.061008-.050224-.101409-.133171-.137474-.468724-.203802l-.202597-.04004v-.154699c0-.152451.0022-.15526.149746-.193313.08236-.02123.363795-.104039.625411-.184002.261616-.07995.558399-.151838.659521-.159727l.183857-.01434-.02089 3.482592c-.02166 3.611809-.01171 3.960805.115563 4.053872.06019.04402.120924.0575.444899.09878l.167362.02133v.155039c0 .149326-.0048.15635-.132128.19069-.07267.01961-.377889.107367-.678262.195016-.300374.08765-.60766.159421-.682859.159492l-.136725.000133zm-.950742-.265354c.240719-.09095.61948-.377055.801015-.605054l.142828-.179384v-3.019767l-.168868-.085576c-.331386-.167925-.542558-.206915-1.025469-.189334-.699788.02548-.931608.145662-1.155665.599142-.451738.91429-.477404 2.259321-.05681 2.977263.116996.199709.400945.449891.584303.514818.223012.07898.65332.07304.878669-.01211zm-14.921725.650712c-.319176-.06389-.581396-.145643-.759979-.236958l-.154136-.07881.0097-3.304286c.0054-1.817356-.0014-3.386759-.01498-3.487561-.02111-.156677-.03967-.191012-.127797-.236586-.05669-.02933-.190919-.06191-.298262-.07241-.231431-.02264-.281717-.05528-.281717-.182815 0-.117166.04248-.152373.242685-.201128.08588-.02091.365679-.101055.621789-.178096.256109-.07703.527164-.140072.602343-.140072h.136691l-.02048 1.830666-.02048 1.830667.179426-.173887c.253986-.246144.651935-.498256.914476-.579347.277882-.08583.80163-.09356 1.09859-.01621.774489.201728 1.25794.886905 1.372351 1.944974.09305.860492-.134288 1.684116-.638341 2.312692-.361959.451376-.91884.813118-1.46795.953556-.311852.07975-1.033127.08783-1.393967.01562zm1.605188-.587708c.360971-.127379.476361-.219145.617325-.490944.260181-.501672.352892-.937573.352357-1.656694-.000743-.998423-.235265-1.563111-.755555-1.819249-.208836-.10281-.239878-.108329-.545267-.09693-.281865.01053-.35354.02673-.55314.125069-.2244.110561-.578381.415386-.699995.60279-.05389.08304-.06221.250046-.08056 1.61514l-.02045 1.522525.179034.09072c.274922.139313.507946.188207.905043.189898.298842.0012.405796-.01338.601214-.08234zm17.893456.580272c-.706437-.189984-1.226448-.774887-1.432513-1.611274-.122183-.495926-.114862-1.245602.01702-1.742693.235341-.887037.708299-1.57998 1.370534-2.008003.357775-.231242.626394-.310193 1.129355-.331935.340374-.01471.48131-.005.654885.0451.52381.151198.916238.523766 1.10482 1.048908.117087.326048.123224.940428.0109 1.091093-.146113.195985-.269067.210747-1.900286.228138l-1.492229.01591.02024.623493c.02189.674501.06787.909916.254449 1.302884.145359.306148.438351.57556.723457.665237.284356.08944.743866.06676 1.046962-.05169.121403-.04744.355721-.178173.520706-.290515.329164-.224135.403815-.228679.532418-.0324.06112.09327.05977.0957-.171447.310437-.459111.426374-.795384.634182-1.200865.742105-.258906.06892-.924344.06623-1.188403-.0048zm2.071523-3.79155c.03724-.117301-.05105-.57043-.151668-.778515-.108933-.225275-.407133-.51027-.600786-.574181-.08063-.02661-.276723-.03819-.494549-.02921-.469919.01938-.604926.08444-.813856.392187-.150212.221263-.36808.72185-.41392.951048l-.02195.109735h1.237085c1.182284 0 1.238085-.0032 1.259641-.07106zm8.421954 3.824778c-.259015-.04354-.666175-.175358-.890345-.288248-1.06569-.536672-1.642707-1.563456-1.747688-3.109955-.114782-1.690879.834157-3.302258 2.392305-4.062331.624569-.304668.844065-.348928 1.742612-.351382.599611-.0016.850218.01333 1.147498.06854.209188.03886.400447.08306.425019.09825.03043.01881.05106.230331.0647.66342l.02001.63581-.108234.01466c-.206173.02795-.25535-.000701-.366873-.213707-.175733-.335646-.487494-.556635-.912645-.646922-.272973-.05797-.985573-.05173-1.279864.0112-.433147.09264-.648859.195884-.910941.436036-.691915.634013-1.109553 1.724583-1.109553 2.897346 0 1.408048.508789 2.428073 1.465465 2.937976.331967.176936.72374.261704 1.206546.261061.498644-.000665.757938-.05676 1.328776-.287471l.427276-.17269.08728.101467c.04855.05644.08728.150201.08728.211302 0 .102393-.026.122309-.383578.293813-.439896.210985-.936849.383716-1.34874.468795-.265745.0549-1.085655.07515-1.336295.03302zm5.61752-.03323c-.706437-.189984-1.226448-.774887-1.432513-1.611274-.122185-.495926-.114861-1.245603.01702-1.742693.235341-.887037.708298-1.57998 1.370534-2.008004.357775-.231241.626395-.310192 1.129354-.331935.340376-.01471.481311-.005.654887.0451.523808.151197.916236.523766 1.10482 1.048908.117087.326048.123224.940427.0109 1.091092-.146112.195986-.269067.210748-1.900286.228139l-1.492229.01591.02024.623492c.02189.674502.06787.909917.25445 1.302885.14536.306147.43835.57556.723456.665237.284358.08944.743868.06676 1.046963-.05169.121402-.04744.35572-.178173.520705-.290515.329163-.224135.403816-.22868.532419-.0324.06112.09327.05977.0957-.171448.310437-.45911.426374-.795382.634182-1.200865.742104-.258905.06892-.924342.06623-1.188402-.0048zm2.071523-3.79155c.03723-.117301-.05105-.570431-.151669-.778515-.108933-.225275-.407134-.51027-.600786-.574181-.08063-.02661-.276723-.03819-.494548-.02921-.469918.01938-.604926.08444-.813855.392186-.150213.221264-.368081.721851-.413921.951049l-.02195.109735h1.237085c1.182284 0 1.238085-.0032 1.25964-.07106zm9.776127 3.790358c-.238995-.07345-.446248-.283421-.515556-.522305-.04418-.152262-.05196-.562207-.04449-2.345636l.0091-2.161126H94.9932v-.126396c0-.06951.02105-.143766.04678-.164995.08785-.07249.51188-.195097.674731-.195097h.162538l.230505-.477131c.126778-.262423.262604-.561333.301836-.664243l.07132-.18711.191694-.01132.191693-.01131V44.806193h1.46779l-.02625.140333c-.01441.07718-.0313.145536-.03759.151896-.0066.0064-.126823.0523-.267968.10212-.214323.07563-.328417.09069-.6921.09134l-.435467.000789-.02648.98233c-.01456.540281-.02068 1.453849-.01359 2.030149.01134.922599.02093 1.062552.08018 1.171096.109276.200148.2621.269353.595164.269516.262195.000127.312939-.01287.561632-.143844.220907-.116346.289266-.1369.356098-.10708.08598.03837.182538.259045.142023.324609-.04991.08076-.559304.352227-.852301.454214-.26291.09152-.36398.107104-.682806.105309-.217376-.0013-.449398-.02521-.553578-.05723zm3.944469.0012c-.706419-.189985-1.226434-.774887-1.432503-1.611274-.122186-.495927-.114857-1.245602.01699-1.742693.235344-.887038.708293-1.57998 1.370523-2.008004.35777-.231241.6264-.310193 1.12936-.331935.34037-.01471.48131-.005.65488.0451.52381.151198.91624.523767 1.10483 1.048908.11707.326049.12321.940428.0109 1.091093-.14611.195986-.26906.210748-1.90028.228139l-1.492227.01591.0202.623493c.02198.674502.06782.909916.254457 1.302885.14534.306147.43835.57556.72345.665237.28435.08944.74386.06676 1.04695-.05169.12141-.04744.35574-.178174.52072-.290515.32916-.224135.40381-.22868.53242-.0324.0611.09327.0597.0957-.17145.310436-.45912.426374-.79538.634183-1.20087.742105-.25891.06892-.92435.06623-1.1884-.0048zm2.07152-3.79155c.0372-.117301-.0511-.570431-.15165-.778515-.10895-.225275-.40715-.510271-.6008-.574181-.0806-.02661-.27672-.03819-.49454-.02921-.46993.01938-.60494.08444-.81386.392186-.15021.221264-.36808.72185-.41392.951049l-.02198.109735h1.23707c1.18229 0 1.23809-.0032 1.25964-.07106zm-76.739923 3.616303c-.03358-.230741-.000374-.274298.246475-.323364.127985-.02543.298873-.08338.379755-.128742.119222-.06688.152606-.110649.176374-.23126.04364-.221495.09942-4.929401.06571-5.546756-.02123-.388846-.04547-.558069-.08954-.625338-.06033-.09209-.295271-.183806-.593911-.231862-.139929-.02252-.140333-.02311-.140333-.205382v-.182801l1.33784.0098 1.337841.0098.01246.088c.02799.197702-.01571.249339-.252376.29822-.307575.06353-.478799.140862-.532567.240533-.06313.117042-.114114 2.419701-.09966 4.50176.01056 1.522161.01667 1.656246.07984 1.752609.07766.118474.239823.195857.53443.255022.219534.0441.272374.117318.223927.310344l-.02336.09305h-2.650719Zm3.947385-.337292.531038-.182816s-2.376853-3.11271-2.398936-3.204841c-.01005-.04194.374188-.508282 1.130225-1.371728 1.107922-1.265324 1.344209-1.553793 1.366864-1.668725.0318-.161356-.141992-.298595-.434328-.342968-.06074-.0092-.077-.0448-.08625-.188779l-.01141-.177418H32.277806l-.0114.174104-.01141.174103-.256621.0701c-.141141.03856-.32638.118878-.411643.178484-.203307.142131-.820809.774905-1.890712 1.937474l-.868603.943833.609795.833717c.687089.939392 1.937387 2.480556 1.98655 2.509026 0 0 1.313397.254824 1.532401.374741 0 0 .07441.02686.12815.06923.0016.0011.10039.06906.05788.294439l-3.421001-.0016zm4.734314.426215c-.04204-.04204-.02651-.225517.02242-.264881.02572-.02069.136028-.05644.245113-.07944.250986-.05289.404123-.131762.463375-.238641.03375-.06087.05366-.524295.07277-1.692962.02883-1.763668.01414-2.313156-.0652-2.440324-.05439-.08718-.204163-.138078-.528947-.17975-.192854-.02474-.196466-.02751-.196466-.150465 0-.0689.01629-.135324.0362-.147627.0896-.05537 1.348234-.407993 1.507467-.422331l.177755-.016.000217 2.314427c.000124 1.333056.01577 2.409396.03689 2.538398.02602.158894.06068.242079.11929.286289.07722.05825.404426.1672.573333.190902.05916.0083.07725.04365.08632.168766l.01149.158262-1.268839-.000135c-.69786-.000074-1.279797-.0111-1.293191-.02449zm.869955-7.10615c-.14274-.09486-.295555-.364457-.295555-.521424 0-.185833.115844-.406594.273159-.520552.121176-.08778.18823-.108453.351779-.108453.24404 0 .384496.06694.523856.249648.08902.116709.104847.172791.104847.371516 0 .261782-.06372.382174-.280287.529566-.172945.117707-.500443.117561-.677799-.000301zm2.066029 7.10615c-.04204-.04204-.0265-.225517.02242-.264881.02572-.02069.13603-.05644.245113-.07944.251689-.05305.404654-.132053.462012-.238641.08878-.16498.137169-3.910021.05312-4.110975-.03831-.09161-.197036-.148815-.478233-.17239l-.253941-.02129v-.161529c0-.158416.0031-.162349.159044-.204054.08747-.02339.429431-.124355.759903-.224368.346854-.104971.635564-.172767.682954-.160374.07988.02089.08212.03675.08328.587791l.0012.566322.08196-.112266c.282486-.386915.809387-.815169 1.151407-.935841.20059-.07078.673007-.07239.839373-.0029.23454.09799.265656.294434.108758.686615-.05438.13593-.131823.302993-.172096.371248-.06488.109952-.09159.124102-.234264.124102-.145169 0-.164885-.01103-.200047-.11189-.07138-.204772-.203571-.299754-.417172-.299754-.341016 0-.682587.245755-.995249.716063l-.170228.256062.01195 1.544087c.0092 1.201839.02303 1.563535.06194 1.631827.05802.101823.365707.249813.595542.286431l.159044.02535v.329303l-1.266709-.000136c-.696691-.000073-1.277669-.0111-1.291062-.02448zm4.10126-.08822c-.03622-.144299.01171-.222828.151463-.248133.266049-.04818.493861-.155027.52931-.248265.0187-.04921.04831-.47201.06577-.93957.04052-1.083945.06033-5.532117.02509-5.62827-.03303-.0901-.158533-.149285-.367038-.173098-.314516-.03593-.315641-.03659-.315641-.185004 0-.135107.00026-.135359.198948-.191525.109422-.03093.40552-.117671.657995-.192753.252474-.07508.522463-.136514.599975-.136514h.140931l-.02385 1.617537c-.03916 2.656366-.0374 5.652728.0034 5.769503.04541.129983.24093.244846.507245.297995l.19895.03971v.302393h-2.351497zm3.886768.04955c-.292361-.08803-.523461-.358928-1.734842-2.033607l-.407225-.56301.67366-.699918c.808309-.839813.950677-1.008557.979207-1.160629.02777-.148008-.02543-.203226-.248908-.258377-.163907-.04045-.17062-.04688-.17062-.163205v-.121099l1.046641-.0085 1.046642-.0085v.26423l-.207074.03851c-.313941.05838-.519627.218173-1.414233 1.098668l-.809027.796266.472476.631385c.535653.715813 1.065791 1.358426 1.339545 1.623741.184718.179023.378203.287008.514259.287008.08221 0 .143948.127979.115051.238485-.01841.07039-.03776.07281-.559979.06994-.2975-.0017-.583508-.0158-.635573-.03148zm7.743885.0089c-.04204-.04204-.0265-.225518.02242-.264882.02572-.02069.136028-.05644.245113-.07944.25169-.05305.404654-.132053.462012-.23864.08878-.16498.137168-3.910021.05311-4.110976-.03832-.0916-.197036-.148815-.478234-.172389l-.25394-.02128v-.161529c0-.158417.0031-.162349.159044-.204055.08747-.02338.429431-.124354.759904-.224368.346854-.104971.635563-.172766.682953-.160374.07988.02089.08212.03675.08328.587792l.0012.566322.08197-.112267c.282486-.386915.809387-.815168 1.151407-.93584.200589-.07077.673007-.07239.839374-.0029.23454.09799.265654.294434.108758.686615-.05438.135931-.131825.302993-.172097.371249-.06488.109951-.09159.124101-.234264.124101-.14517 0-.164886-.01103-.200047-.11189-.07138-.204772-.203571-.299753-.417171-.299753-.341017 0-.682588.245754-.995249.716062l-.17023.256063.01195 1.544086c.0092 1.201841.02303 1.563535.06194 1.631828.05802.101824.365708.249812.595541.28643l.159044.02535v.329303l-1.266709-.000136c-.69669-.000073-1.277667-.0111-1.291063-.02448zm4.638254.0012c-.03994-.03994-.02518-.214252.0213-.25165.02443-.01966.129235-.05362.232869-.07547.238447-.05025.383935-.125179.440228-.226719.03205-.05783.05098-.498104.06914-1.608391.02739-1.675562.01343-2.197602-.06193-2.318416-.05168-.08282-.193964-.131182-.502524-.170772-.183221-.0235-.186653-.02614-.186653-.142948 0-.06546.01548-.128563.03439-.140253.08512-.0526 1.280882-.387611 1.432162-.401233l.168875-.0152.000206 2.19881c.000118 1.266463.01497 2.289035.03505 2.411593.02472.150956.05765.229986.113332.271986.07336.05534.384221.158848.544691.181367.05622.0079.07339.04147.08201.160334l.01092.150356-1.205454-.000128c-.662998-.000071-1.215863-.01055-1.228589-.02327zm.826496-7.045785c-.135609-.09012-.280791-.346251-.280791-.495376 0-.17655.110058-.386283.259513-.494548.115124-.0834.178827-.103036.334207-.103036.23185 0 .365289.0636.497689.237177.08456.110879.09961.16416.09961.352957 0 .248705-.06054.363083-.266283.503112-.164307.111827-.475444.111688-.643941-.000286zm29.936566 7.044555c-.04205-.04204-.02651-.225518.02242-.264882.02572-.02069.136028-.05644.245114-.07944.251689-.05305.404654-.132053.462012-.23864.03073-.05711.0559-.506934.07899-1.412297.03805-1.491372.02113-2.567042-.04224-2.685431-.04223-.0789-.275601-.148286-.566127-.168326-.127099-.0088-.131303-.01403-.141999-.177435l-.01102-.168399.254266-.07194c.139845-.03957.481575-.144088.759397-.23227.294005-.09332.540353-.151489.589398-.139179.08224.02064.08426.03337.08426.530565v.509443l.233889-.226561c.329943-.319608.501329-.443113.837898-.603816.293238-.140015.295579-.140436.780608-.140436.28495 0 .550936.01959.642063.04729.365342.111044.701075.438806.825311.805719.05939.175404.06607.377509.06705 2.028497.0013 2.104882.0023 2.114228.25469 2.228272.08626.03898.245626.09099.354139.115591.209313.04744.267679.126362.215365.291191-.02406.07579-.04521.07705-1.296565.077l-1.272116-.000045.01147-.153599.01147-.1536.269248-.06816c.391383-.09909.449624-.147344.486202-.402808.01673-.116826.03041-.961789.03041-1.877695v-1.665284l-.103454-.196294c-.156061-.296111-.335525-.399097-.724169-.415564-.217756-.0092-.364432.0052-.49562.04879-.250623.08324-.650547.369825-.915585.656097l-.217211.234614.0118 1.634152c.01074 1.488189.01772 1.643174.07803 1.735157.07465.113853.252511.199795.541885.261835l.196467.04212v.320431l-1.266709-.000136c-.69669-.000073-1.277668-.0111-1.291062-.02448zm15.792121 0c-.042-.04204-.0265-.225518.0225-.264882.0257-.02069.13603-.05644.24511-.07944.25169-.05305.40466-.132053.46201-.23864.0887-.16498.13717-3.910021.0532-4.110976-.0383-.0916-.19703-.148815-.47822-.172389l-.25395-.02128v-.161529c0-.158417.003-.162349.15904-.204055.0875-.02338.42943-.124354.75991-.224368.34685-.104971.63556-.172766.68296-.160374.0799.02089.0822.03675.0833.587792l.00095.566322.082-.112267c.28247-.386915.80937-.815168 1.1514-.93584.20059-.07077.67301-.07239.83937-.0029.23455.09799.26567.294434.10876.686615-.0543.135931-.13182.302993-.17209.371249-.0649.109951-.0916.124101-.23428.124101-.14517 0-.16488-.01103-.20004-.11189-.0714-.204772-.20357-.299753-.41717-.299753-.34102 0-.68258.245754-.99525.716062l-.17022.256063.0119 1.544086c.01 1.201841.023 1.563535.062 1.631828.058.101824.3657.249812.59554.28643l.15904.02535v.329303l-1.26671-.000136c-.69669-.000073-1.27766-.0111-1.29106-.02448z" style="fill:#000;stroke-width:.898417" transform="translate(-.4259503 12.038967)"/>
</svg>
