<svg xmlns="http://www.w3.org/2000/svg" xml:space="preserve" width="300" height="120" viewBox="0 0 79.375 31.75">
  <defs>
    <filter id="a" width="1.037" height="1.101" x="-.026" y="-.047" style="color-interpolation-filters:sRGB">
      <feFlood flood-color="#000" flood-opacity=".451" result="flood"/>
      <feGaussianBlur in="SourceGraphic" result="blur" stdDeviation=".3"/>
      <feOffset dx="-1" dy=".1" in="blur" result="offset"/>
      <feComposite in="flood" in2="offset" operator="in" result="comp1"/>
      <feComposite in="SourceGraphic" in2="comp1" result="comp2"/>
    </filter>
  </defs>
  <path d="M42.903 76.335c-4.24-.065-6.937 2.472-7.19 6.851-.256 4.417 1.704 7.432 5.324 8.191 1.538.323 4.04.059 5.534-.584l1.259-.54v-3.089l-1.34.834c-1.725 1.071-3.884 1.285-5.268.522-2.75-1.517-2.894-7.414-.22-9.044 1.808-1.104 3.58-.904 5.89.665l.938.635v-3.188l-1.184-.524c-.651-.288-1.945-.595-2.875-.682a11.163 11.163 0 0 0-.868-.047zm43.159.102c-2.662-.011-3.67.338-5.163 1.788-1.442 1.401-1.96 2.875-1.971 5.61-.012 2.809.362 4.043 1.656 5.476 1.041 1.152 1.918 1.68 3.419 2.056 1.418.355 4.175.08 5.676-.565l1.278-.55V87.16l-.94.637c-2.962 2.01-6.239 1.405-7.427-1.373-.588-1.373-.469-4.024.242-5.39 1.253-2.407 3.973-2.939 6.62-1.296.702.435 1.327.79 1.39.79.063 0 .115-.66.115-1.47v-1.47l-1.257-.57c-.981-.445-1.78-.573-3.638-.58Zm-35.851.05V91.453l3.66-.144c2.987-.119 3.911-.254 5.038-.739 4.445-1.912 5.509-8.494 1.935-11.977-1.567-1.527-2.606-1.826-6.863-1.975zm18.836.05-2.406 7.221c-1.324 3.972-2.407 7.31-2.407 7.42 0 .108.705.198 1.568.198h1.57l.425-1.465.426-1.464 2.7.075 2.7.076.37 1.389.371 1.389h3.322l-2.449-7.342-2.448-7.343-1.87-.077zm-44.53.022.055 7.408.054 7.409h9.71V88.73H28.25V76.559h-1.866zm29.445 2.646h1.544c1.28 0 1.684.119 2.367.693 1.227 1.032 1.598 1.96 1.598 3.99 0 2.145-.53 3.377-1.825 4.242-.648.433-1.284.6-2.28.6h-2.068l-.021-9.525zm17.003 1.406c.222.074 1.719 4.406 1.731 5.01.005.228-3.27.275-3.495.05-.24-.239 1.475-5.157 1.764-5.06z" style="fill:#002b9b;fill-opacity:1;filter:url(#a)" transform="matrix(1.11489 0 0 1.11489 -24.887 -83.516)"/>
  <path d="M49.645 93.582c-1.18-.003-1.851.623-1.853 1.779-.002 1.027.5 1.642 1.444 1.774.387.053 1.076-.03 1.406-.172l.08-.035v-.255c0-.197-.005-.252-.022-.245-1.33.566-2.241.068-2.164-1.183.067-1.1.863-1.472 2.121-.989.03.011.031-.005.027-.264l-.005-.276-.14-.03a4.382 4.382 0 0 0-.895-.104zm-26.16.09v3.394H25.711v-.487h-1.514v-2.907h-.357zm17.26.292-.066.01-.34.04-.273.03v.516h-.279v.417h.279v.73c0 1.105.082 1.289.615 1.385.207.038.356.031.57-.027l.068-.018v-.394l-.153.007c-.227.012-.352-.066-.404-.253a8.495 8.495 0 0 1-.017-.747v-.683h.626v-.417h-.626v-.299zm20.034 0-.065.01a12.89 12.89 0 0 1-.34.04l-.273.03v.516h-.279v.418h.279v.728c0 1.106.081 1.29.614 1.386.208.038.357.031.572-.027l.066-.018v-.394l-.152.008c-.227.012-.352-.066-.404-.254a8.486 8.486 0 0 1-.018-.746v-.683h.627v-.418h-.627v-.298zm-8.579.518c-.526.006-1.042.296-1.199.89-.227.859.201 1.604.993 1.729.988.155 1.686-.57 1.523-1.58-.112-.69-.72-1.047-1.317-1.04zm-6.192.008a.84.84 0 0 0-.714.395l-.088.135v-.46h-.68v2.506h.68V95.47l.05-.068a.775.775 0 0 1 .815-.297l.057.015v-.305c0-.337.005-.325-.12-.325zm-15.52 0c-.31-.006-.584.158-.833.496-.023.031-.026.012-.026-.196v-.23h-.68v2.506h.68v-1.585l.067-.09c.255-.343.56-.466.735-.299.099.095.103.136.103 1.098v.876h.679v-.944c-.001-1.35-.066-1.528-.59-1.618a.863.863 0 0 0-.134-.013zm-3.392.003a2.28 2.28 0 0 0-.84.147l-.074.029v.224c0 .123.003.224.006.224.004 0 .058-.024.122-.052.678-.308 1.125-.179 1.125.325v.144h-.205c-.831.001-1.278.323-1.254.904.014.333.212.579.528.656.268.065.612-.028.838-.227.102-.09.12-.096.137-.04.07.227.366.333.744.263l.152-.028v-.056c0-.031-.005-.116-.011-.19l-.011-.133h-.06c-.2 0-.203-.015-.214-.888-.01-.849-.012-.855-.174-1.032-.157-.172-.462-.265-.809-.27zm8.32 0a2.28 2.28 0 0 0-.84.147l-.074.029v.224c0 .123.002.224.006.224.003 0 .058-.024.121-.052.679-.308 1.126-.179 1.126.325v.144h-.205c-.831.001-1.278.323-1.254.904.014.333.212.579.528.656.268.065.612-.028.838-.227.102-.09.12-.096.137-.04.07.227.366.333.743.263l.152-.028v-.056c0-.031-.004-.116-.01-.19l-.012-.133h-.06c-.199 0-.203-.015-.214-.888-.01-.849-.011-.855-.173-1.032-.157-.172-.462-.265-.81-.27zm3.108.002c-.627 0-.996.247-1.016.702-.017.37.154.576.646.781.498.208.585.27.598.421.03.347-.561.395-1.235.102-.029-.012-.03.003-.026.236l.004.249.122.03c.122.031.407.079.54.09.783.068 1.289-.24 1.288-.788 0-.375-.176-.542-.838-.8-.827-.322-.436-.788.443-.529l.182.053c.028.009.03-.01.03-.226v-.235l-.152-.028a3.271 3.271 0 0 0-.586-.058zm-5.4 0c-.815.014-1.294.482-1.292 1.31.003.732.374 1.198 1.034 1.295.228.033.51.016.848-.054l.179-.037v-.232c0-.128-.004-.233-.009-.233a.958.958 0 0 0-.093.034c-.708.279-1.256-.062-1.256-.783 0-.688.409-.974 1.12-.785.112.03.208.055.213.055.004 0 .006-.108.003-.24l-.005-.238-.148-.03a2.858 2.858 0 0 0-.514-.06v-.001h-.08zm9.633.006c-1.56-.01-1.68 2.374-.131 2.598.293.042.71.004 1.103-.102l.072-.02v-.236c0-.218-.002-.235-.03-.224-.816.316-1.52.065-1.52-.542v-.04h1.55v-.136c0-.862-.347-1.294-1.044-1.298zm15.602.011c-.31-.006-.584.157-.833.495-.023.032-.026.012-.026-.196l-.001-.23h-.679v2.506h.679v-1.585l.068-.091c.256-.342.56-.465.735-.297.098.094.102.135.102 1.097v.876h.68l-.001-.944c0-1.35-.065-1.528-.589-1.617a.863.863 0 0 0-.135-.014zm-4.49.048v.962c0 .798.005.98.026 1.062.07.266.244.447.489.506.37.09.753-.069 1.003-.417l.058-.08.004.236.006.237h.66V94.56h-.661v1.569l-.077.098c-.256.333-.573.453-.734.278-.092-.1-.095-.123-.095-1.07v-.875h-.339zm7.686 0 .026.065c.014.036.225.6.467 1.252l.442 1.188-.273.431-.285.453c-.01.017.06.022.331.022h.345l.77-1.693c.424-.93.77-1.698.77-1.705 0-.008-.112-.013-.25-.013h-.25l-.344.787-.37.848c-.032.077 0 .15-.352-.813l-.301-.822h-.363zm-18.838.344c.215-.007.422.186.422.562v.086h-.452c-.25 0-.453-.005-.453-.01l.028-.144c.067-.326.264-.487.455-.494zm9.517.007c.047 0 .096.008.146.023.573.17.576 1.57.004 1.739-.409.121-.701-.241-.701-.869 0-.547.224-.895.551-.893zm-24.798 1.006-.005.264-.004.265-.123.083a.843.843 0 0 1-.226.11c-.26.067-.461-.07-.461-.313 0-.268.224-.408.657-.409zm8.32 0-.005.264-.005.265-.122.083a.84.84 0 0 1-.226.11c-.26.067-.462-.07-.462-.313 0-.268.225-.408.658-.409zm8.348 2.377v1.29l-.054-.044c-.602-.487-1.366-.223-1.59.55-.229.79.07 1.575.647 1.7.386.084.782-.082.951-.398l.037-.069.005.221.005.222h.649v-3.471h-.325zm5.93 0v3.471h.65v-3.47h-.325zm6.485 0v3.471h.651v-1.52l.065-.086c.245-.328.537-.446.705-.285.094.09.098.13.098 1.052v.84h.65v-.906c0-1.294-.062-1.465-.564-1.55-.35-.06-.655.09-.929.461-.021.03-.024-.052-.024-.721v-.755h-.326zm5.823 0v3.471h.651v-3.47h-.325zm18.09 0v.551h.67v-.55h-.335zm6.038 0v.551h.67v-.55h-.334zm-19.507.05c-1.163-.004-1.826.614-1.828 1.754-.002 1.014.493 1.622 1.425 1.752.382.053 1.062-.03 1.388-.17l.079-.034v-.252c0-.194-.005-.249-.021-.242-1.313.559-2.213.067-2.138-1.167.067-1.086.853-1.453 2.095-.976.028.01.03-.006.026-.261l-.005-.273-.138-.029a4.318 4.318 0 0 0-.883-.103ZM23.4 98.51V101.768l.822-.008c.898-.007.916-.009 1.206-.114 1.145-.415 1.281-2.43.2-2.96-.317-.155-.487-.175-1.464-.175zm24.21.01-.612 1.576-.63 1.622-.016.047h.491l.166-.434.167-.434h1.352l.167.433.167.434h.689l-.04-.104-.63-1.623-.589-1.518h-.34zm-23.526.438.396.006c.853.015 1.15.318 1.146 1.173-.002.64-.176.95-.618 1.105-.126.044-.147.046-.528.052l-.396.007v-1.172zm23.77.234c.012.01.499 1.246.499 1.262 0 .005-.226.009-.503.009-.471 0-.502-.002-.492-.03.118-.324.489-1.25.497-1.242zm21.677.038c-.52.007-1.029.293-1.183.879-.224.848.198 1.583.98 1.706.974.153 1.663-.561 1.502-1.559-.11-.681-.71-1.033-1.299-1.026zm19.41 0c-.52.007-1.03.293-1.185.879-.223.848.199 1.582.98 1.706.975.153 1.664-.561 1.503-1.559-.11-.681-.71-1.033-1.299-1.026zm-14.606.006c-.276-.005-.592.14-.825.435-.041.052-.072.077-.076.063-.183-.625-1.055-.673-1.44-.08l-.056.087-.005-.217-.005-.216h-.652v2.474h.653V100.188l.079-.104c.23-.307.53-.41.689-.237.096.105.097.117.104 1.064l.007.872h.633v-1.585l.059-.08c.27-.368.637-.461.768-.195l.04.081.005.89.005.889h.635v-.99c0-.844-.004-1.005-.027-1.095a.592.592 0 0 0-.591-.461zm4.42 0c-.276-.005-.591.14-.825.435-.04.052-.071.077-.075.063-.183-.625-1.056-.673-1.44-.08l-.056.087-.006-.217-.004-.216h-.652v2.474h.653V100.188l.078-.104c.231-.307.53-.41.69-.237.095.105.096.117.104 1.064l.006.872h.633v-1.585l.06-.08c.27-.368.637-.461.768-.195l.04.081.005.89.005.889h.634v-.99c0-.844-.004-1.005-.027-1.095a.592.592 0 0 0-.59-.461zm13.575.004c-.305-.007-.576.155-.822.488-.023.031-.025.012-.026-.193v-.227h-.67v2.474h.67v-1.565l.066-.09c.253-.337.553-.459.726-.293.097.093.1.133.1 1.083v.865h.67v-.932c0-1.332-.064-1.508-.58-1.597a.96.96 0 0 0-.134-.013zm-9.751.004c-.62 0-.983.244-1.004.693-.016.365.152.569.638.771.492.205.578.266.59.416.03.341-.553.39-1.218.1-.029-.012-.03.002-.026.232l.005.246.12.03c.12.031.401.078.532.09.773.067 1.272-.239 1.271-.779 0-.37-.173-.535-.826-.789-.816-.318-.431-.778.436-.522l.18.052c.028.008.03-.01.03-.223v-.232l-.15-.027a3.228 3.228 0 0 0-.578-.058zm2.41 0c-.619 0-.983.244-1.003.693-.016.365.152.569.637.771.492.205.578.266.591.416.03.341-.553.39-1.219.1-.028-.012-.03.002-.025.232l.004.246.12.03c.12.031.402.078.533.09.773.067 1.271-.239 1.271-.779 0-.37-.173-.535-.827-.789-.816-.318-.43-.778.437-.522l.18.052c.027.008.03-.01.03-.223v-.232l-.15-.027a3.228 3.228 0 0 0-.578-.058zm-30.347.044c-.505.006-1 .283-1.15.853-.218.823.192 1.537.952 1.657.946.149 1.615-.546 1.459-1.515-.107-.661-.69-1.003-1.261-.995zm6.239 0c-.504.006-1 .283-1.15.853-.217.823.193 1.537.953 1.657.946.149 1.615-.546 1.459-1.515-.107-.661-.69-1.003-1.262-.995zm-32.415.008a.804.804 0 0 0-.684.378l-.085.13v-.441h-.651v2.402h.651v-1.53l.048-.066a.743.743 0 0 1 .782-.284l.055.014v-.291c0-.324.004-.312-.116-.312zm4.685 0c-.733-.015-1.328.93-.937 1.893.28.69 1.197.784 1.555.159l.053-.092v.245c0 .696-.456.907-1.298.6-.098-.036-.14-.044-.145-.03a3.635 3.635 0 0 0-.03.231l-.022.212.176.05c.164.048.383.093.518.107.71.076 1.265-.209 1.392-.714.05-.195.059-.428.06-1.506v-1.088h-.58l-.03.108c-.035.129-.024.125-.138.039a.98.98 0 0 0-.574-.214zm7.66 0c-.298-.006-.56.151-.8.475-.022.03-.024.012-.024-.187v-.221h-.651v2.402h.65v-1.52l.065-.087c.245-.327.537-.445.705-.284.094.09.098.13.098 1.052v.839h.65v-.905c0-1.294-.062-1.465-.564-1.55a.898.898 0 0 0-.13-.014zm-3.341.003a2.198 2.198 0 0 0-.805.14l-.072.028v.215c0 .118.002.214.006.214.003 0 .056-.022.117-.05.65-.295 1.078-.17 1.078.312v.139h-.196c-.797 0-1.226.309-1.202.865.013.32.203.556.506.63.257.063.587-.027.803-.218.098-.086.116-.091.132-.038.066.218.35.319.712.252l.146-.027v-.053c0-.03-.005-.112-.01-.182l-.011-.128h-.057c-.191 0-.195-.014-.205-.851-.01-.814-.012-.82-.167-.99-.15-.164-.442-.253-.775-.259zm14.843.003c-.78.012-1.241.461-1.239 1.254.003.702.358 1.149.991 1.242.219.032.49.015.814-.052l.171-.035v-.223c0-.123-.004-.223-.008-.223a.944.944 0 0 0-.09.032c-.68.268-1.203-.059-1.203-.75 0-.659.391-.934 1.072-.753.109.029.2.053.205.053.004 0 .006-.103.003-.23l-.004-.228-.143-.03a2.734 2.734 0 0 0-.569-.057zm28.1.007v2.474h.669V99.31h-.335zm6.038 0v2.474h.669V99.31h-.335zm-57.296.054v.922c0 .765.004.94.025 1.019.067.256.233.429.468.485.355.086.722-.066.961-.4l.056-.077.005.227.005.227h.632v-2.403h-.633v1.504l-.074.095c-.245.319-.55.434-.703.267-.089-.097-.09-.118-.091-1.027v-.839h-.326zm40.41.293a.51.51 0 0 1 .144.022c.565.168.568 1.549.004 1.716-.404.12-.693-.237-.693-.857 0-.54.222-.883.545-.88zm19.408 0c.046 0 .095.007.145.022.565.168.568 1.549.004 1.716-.404.12-.693-.237-.693-.857 0-.54.221-.883.544-.88zm-55.66.044c.13-.005.275.053.418.184l.09.083v.903l-.07.091a.848.848 0 0 1-.304.245c-.39.162-.644-.104-.644-.673 0-.508.222-.822.51-.833zm21.36 0c.045 0 .092.007.14.022.55.163.553 1.504.005 1.667-.392.116-.673-.231-.673-.833 0-.524.215-.858.529-.856zm6.24 0c.045 0 .092.007.14.022.55.163.553 1.504.005 1.667-.392.116-.674-.231-.674-.833 0-.524.216-.858.53-.856zm-17.29.013c.124.002.261.06.397.179l.085.075v.978l-.075.092a.884.884 0 0 1-.295.235c-.424.175-.699-.192-.645-.86.036-.448.257-.705.532-.7zm-5.828.951-.005.254-.004.254-.118.079a.805.805 0 0 1-.216.105c-.248.065-.442-.066-.442-.3 0-.257.215-.39.63-.391z" style="fill:#071aaa;fill-opacity:1;stroke-width:.0657831" transform="matrix(1.11489 0 0 1.11489 -24.887 -83.516)"/>
</svg>
