<svg xmlns="http://www.w3.org/2000/svg" xml:space="preserve" viewBox="0 0 132.292 132.292">
  <path d="M66.791 250.562c-2.249.006-4.811.268-7.607.792l-.843.158v13.053c0 11.265.015 13.104.11 13.424.13.439.555.89.985 1.047.014.005.271 0 .297.005l.069.034 1.52-.008h.01c2.166.071 5.566.044 8.098-.062-.365.008-1.26.012-1.775.018 1.932-.031 3.222-.094 4.193-.236-.098.02-.182.053-.283.073-.331.064-.695.093-1.269.118.308-.02 1.23-.02 1.345-.042 4.326-.826 6.33-3.273 6.33-7.726v-.007c-.001-.126-.025-.25-.031-.376-.079-2.822-.951-4.73-2.789-5.937-.574-.378-.57-.324-.058-.723 3.068-2.396 3.048-8.934-.035-11.533-1.64-1.382-4.518-2.082-8.267-2.072zm51.767.026c-2.644-.03-6.566.273-9.173.765l-.843.16v13.033c0 9.445.023 13.126.084 13.37.108.429.598.974 1.002 1.116.238.083.935.105 3.368.108l3.068.004.247-.24.248-.24v-9.26h.589l.372.692c.914 1.701 2.076 4.435 2.755 6.485.51 1.537.74 2.097 1.648 2.337h.001l.217.113.394.003c.657.063 1.502.085 2.875.094l3.42.022.233-.295c.065-.082.08-.256.091-.437.003-.016.028-.031.03-.048 0-.01-.01-.04-.01-.052-.008-1.794-1.998-7.04-3.957-10.145l-.515-.818.292-.226c2.013-1.558 2.917-3.836 2.903-7.317-.02-5.514-2.14-8.178-7.218-9.078-.5-.09-1.24-.136-2.121-.146zm28.612.372c-1.12.004-2.422.011-3.932.011h-9.417l-.242.25-.242.25.02 2.666.022 2.666.226.325c.147.212.365.396.631.53l.406.206h4.992l.02 10.065.02 10.065.225.365c.165.266.335.423.627.576l.4.209h6.382l.248-.24.247-.24v-20.468c.052-.137.113-.249.185-.332h5.629l.245-.251.244-.252-.024-2.576c-.02-2.181.278-3.12-1.021-3.526-.003 0-.003-.003-.005-.004l-.4-.21h-.875a26.3 26.3 0 0 0-1.758-.077 159.95 159.95 0 0 0-2.853-.008zm47.711.01c-1.113-.006-2.482.001-4.18.001h-7.713l-.247.24-.247.24v13.064c0 9.468.023 13.157.084 13.4.109.43.598.976 1.002 1.117.01.002.286 0 .299.003l.067.034h2.501c.999.03 1.061.069 5.379.07l7.946.005.243-.25.243-.25-.023-2.47-.021-2.467-.192-.372a1.412 1.412 0 0 0-.556-.597l-.364-.225-4.296-.022-4.295-.02v-4.417h7.748l.247-.24.247-.239v-2.312c0-2.607.054-3.454-1.26-3.734l-.051-.03-.175-.003h.005l-3.315-.035-3.484-.037 3.484.037 3.31.035c-.72-.111-1.755-.11-3.366-.11h-3.39v-3.747H199.382l.247-.24.247-.24v-2.311c0-2.244.207-3.184-1.03-3.586-.013-.006-.018-.015-.03-.021h-.001l-.392-.195h-.891c-.679-.053-1.538-.072-2.651-.077zm-98.153 0c-1.113-.005-2.482.003-4.18.003l-7.713-.001-.247.24-.248.239v13.064c0 9.468.023 13.157.085 13.401.108.43.598.975 1.002 1.117.009.003.288 0 .3.004h.002l.064.032h2.422c.981.031 1.077.07 5.458.072l7.946.003.242-.25.243-.25-.022-2.468-.022-2.468-.191-.372a1.41 1.41 0 0 0-.556-.597l-.365-.225-4.295-.022-4.296-.02v-4.417h7.748l.247-.24.248-.239v-2.312c0-2.607.053-3.454-1.26-3.734l.299.176-.3-.176h.002l-.053-.03-.175-.003h.005l-3.314-.035-3.484-.037 3.484.037 3.31.035c-.72-.111-1.756-.11-3.366-.11h-3.39v-3.747H101.228l.247-.24.247-.239v-2.312c0-2.243.207-3.184-1.028-3.586h-.001c-.014-.007-.019-.015-.032-.022l-.262-.13-.13-.064h-.891c-.678-.053-1.537-.071-2.65-.077zm-72.958.002-.247.24-.247.239v13.064c0 9.468.022 13.157.084 13.401.108.43.598.975 1.002 1.117.01.003.289.001.302.004l.064.032h2.233c.925.032 1.042.07 5.197.073l7.497.003.244-.252.244-.252-.024-2.54c-.038-4.058.236-3.85-5.07-3.85h-3.606v-9.953c0-7.243-.024-10.024-.086-10.21a1.572 1.572 0 0 0-.843-.935l-.383-.18h-3.18zm20.38 0-.248.24-.247.239v13.16c0 9.64.023 13.23.085 13.417.14.418.437.747.843.937l.383.177 3.181.001 3.181.001.247-.24.247-.239v-13.064c0-14.484.035-13.54-.518-14.11-.5-.515-.517-.518-4.048-.519zm117.603 0-.224.62c-1.989 5.496-4.46 15.95-5.67 23.993-.282 1.87-.02 2.994.794 3.397.322.16.395.162 3.596.162h3.268l.05-.73c.091-1.321.512-5.246.61-5.694l.034-.153c.016-.009.28-.008.341-.016h1.722c1.132 0 2.058.016 2.058.035 0 1.648.361 3.652.793 4.968.023.088.044.348.07.42.087.251.191.417.328.549.018.017.05.029.069.045v-.001c.065.093.131.273.196.312l.368.228 3.319.02 3.318.022.263-.283c.33-.355.341-.114-.146-3.083-1.468-8.942-3.136-16.333-5.017-22.225-.512-1.601-.82-2.128-1.407-2.401l-.393-.183h-4.17zm-76.721.15 7.54.003-7.54-.003-.272.301-.272.3.272-.301.272-.3zm111.791.04c1.446.04 1.956.13 2.273.372.097.074.16.147.229.222-.36-.376-1.114-.535-2.502-.595zm-152.44.026 2.952.024-2.952-.023-.128.124zm138.848.009-.218.219-.22.218.22-.219zm-19.573.01c.446 0 1.007.002 1.713.006-1.646.006-3.35.028-3.395.112.046-.086.344-.114 1.682-.117zm3.319.026c1.573.01 2.698.032 3.073.12-.248-.07-1.69-.097-3.073-.12zm-66.76.016c.255.044.426.099.572.182-.145-.083-.316-.137-.57-.181zm-15.518.075-.284.278zm85.565.086c.17.074.294.17.44.324.309.327.745 1.446 1.238 2.998-.644-1.953-1.19-3.032-1.678-3.322zm-69.474.021a1.214 1.214 0 0 0 0 0zm32.702.2v2.312zm49.301.004.001 12.95c0 6.189.015 9.58.042 11.204-.038-1.749-.042-4.89-.042-11.205zm-81.632.299.226.324.02 2.336.022 2.335-.223.243-.223.244.223-.244.222-.243-.02-2.335-.022-2.336zm22.516.052c1.914.956 3.116 2.59 3.642 4.871-.587-2.117-1.805-3.954-3.642-4.871zm-14.911.187zm44.906.06c.057.232.088.54.105.97-.017-.431-.048-.739-.105-.97zm7.679.51zm38.225 2.028.001 2.187-.18.21-.098.113.097-.113.18-.21zm-45.555.178v2.287-2.275zm-87.07 1.775c.73-.006 1.748.128 2.123.338.724.404.9 1.85.652 3.026.166-1.178-.05-2.69-.652-3.026-.142-.08-.503-.105-.779-.16 0 0 0 .001 0 0-.041-.007-.08-.018-.122-.024h-.001c-.535-.092-1.072-.176-1.513-.142.09-.007.188-.011.292-.012zm1.169.034c.272.03.649.044.748.087.119.051.206.151.305.235-.235-.131-.603-.24-1.053-.322zm49.566.004c.61.024 1.261.106 1.518.231-.093-.045-.374-.05-.548-.082-.038-.008-.066-.025-.105-.032-.032-.006-.086.003-.12-.002h-.001c-.267-.038-.45-.101-.744-.115zm.18.145c1.628.047 2.212.9 2.213 3.024.001 1.628-.486 2.654-1.423 2.997-.204.075-.683.139-1.217.163l-.88.04v-6.147l.543-.049a6.48 6.48 0 0 1 .763-.028zm-50.6.01c1.877-.043 2.57.868 2.309 2.99-.143 1.158-.497 1.552-1.537 1.702-.242.034-.639.055-.964.064.615-.015 1.3-.01 1.572-.092-.412.125-2.29.236-2.382.14.024.025.408-.037.612-.036l-.593.002v-4.7l.59-.048c.136-.011.267-.018.392-.021zm-.39 4.768h.025c.052 0 .115-.01.173-.012-.077.002-.132.012-.198.012zm86.92-4.427-.25.192-.25.19.25-.19zm40.985.233h4.404-4.404zm-102.678.044v.014-.014zm43.375.136c.467.028 1.046.034 1.76.045l2.51.037-2.51-.037c-.714-.01-1.293-.017-1.76-.045zm-.652.034c.202.027.462.043.833.056.371.012.854.02 1.504.03l2.473.037-2.472-.037c-.65-.01-1.134-.018-1.505-.03a9.106 9.106 0 0 1-.833-.056zm-65.045.366c.221.748.194 1.659-.06 2.414.179-.74.215-1.686.06-2.414zm77.983.195-.036 9.914-.038 10.35-.245.27-.245.27-3.051-.002h-.017.016l3.051.002.246-.27.245-.27.037-10.35.037-9.913v-.001zm18.478 1.562c.016-.122.323 1.318.78 3.657l.533 2.716.033.169c-.02.018-.292.023-.41.038h-.9c-.959 0-1.317-.025-1.317-.089 0-.146.744-3.988 1.018-5.254.14-.652.259-1.208.263-1.237zm-49.885 1.612c-.007.917-.003 1.634.026 1.71h-.001c-.029-.076-.033-.793-.025-1.71zm-47.282.006a1.078 1.078 0 0 1-.327.225c.081-.024.172-.047.238-.075-.14.102-.286.197-.456.234-.085.018-.325-.006-.515.007a5.7 5.7 0 0 0 .665-.144c-.127.032-.452.043-.708.064.47-.076.867-.183 1.103-.31zm-.395.247c.004-.001.017-.001.021-.003.016-.005.031-.013.047-.02-.024.008-.044.016-.068.023zm23.542-.246c.067.067.936.09 3.428.093 2.496.002 3.68-.028 4.248.419-.567-.447-1.753-.415-4.248-.418-2.493-.002-3.36-.026-3.428-.094zm-.068.063v.013-.013zm98.094.064 3.522.038-3.522-.037zm3.522.038 3.332.035h.004zm3.577.068h.002l.277.157zm-97.446.436c.45.452.4 1.336.4 3.072v2.205l-.22.218.219-.219v-2.204c0-1.736.05-2.62-.4-3.072zm27.49.196c-.043.223-.109.427-.165.638.063-.21.116-.423.166-.638zm-.47 1.567a7.26 7.26 0 0 1-.832 1.552 8.337 8.337 0 0 0 .832-1.552zm31.366.52zm-114.405.093c.001 7.363.03 10.241.068 11.405-.134-2.091-.067-5.541-.068-11.405zm-.151.09c0 8.005.028 10.553.071 11.597-.146-2.085-.071-5.595-.071-11.596zm.074.006c0 6.485.004 9.1.048 10.888-.1-2.13-.048-5.426-.048-10.888zm31.15.337c1.475.987 2.3 2.247 2.672 3.968-.44-1.606-1.31-3.057-2.671-3.968zm123.482.095.022 2.345zm-98.001.052.024 2.222h-.001zm57.45 1.19c-.425 2.11-1.038 5.4-1.464 7.854.095-.553.135-.906.259-1.602.32-1.796.833-4.438 1.204-6.251zm6.887.218c.028.045.735.002 1.44.006h.005c.034 0 .036.004.07.003.016 0 .016-.003.031-.003h.002c.707.001 1.415.051 1.443.006-.06.094-2.933.082-2.991-.012zm-98.647 1.059c-.018.03-.034.376-.045.882a121.535 121.535 0 0 0-.013 3.695c.008.515.02.876.04.924-.02-.048-.032-.409-.04-.924-.015-1.031-.009-2.682.013-3.695.011-.506.026-.852.045-.882zm.157.044.955.046c2.372.117 3.02.76 2.923 2.898-.062 1.343-.457 2.015-1.345 2.287-.243.074-.812.139-1.465.165l-.78.032h-.002c-.07-.01-.272 0-.286-.017-.002-.002-.036 0-.037-.002-.022-.057-.031-1.302-.02-2.764-.011 1.462-.002 2.706.02 2.764.001.002.035 0 .037.002v-2.692zm25.963.303c-.098.016-.132.037-.142.063-.067.174-.053 4.549.014 4.655-.068-.106-.081-4.481-.015-4.655.01-.027.044-.047.143-.063zm98.227.074c-.098.017-.131.038-.141.064.01-.027.043-.048.141-.063zm-73.128 1.332.503.974zm-.82.074h.745-.745zm40.657.046a257.14 257.14 0 0 0-.83 4.475c.05-.285.057-.418.113-.737.226-1.284.475-2.498.717-3.738zm33.107.907c.004 1.084.024 2.157.058 2.21h-.001c-.034-.053-.054-1.126-.057-2.21zm-21.753 2.1c.072.094.102.306.397 2.829.082.706.145 1.277.221 1.738-.076-.46-.14-1.032-.222-1.738-.295-2.523-.324-2.735-.396-2.828zm-1.836.057c.859-.002 1.637.02 1.67.074-.058-.093-2.4-.091-3.453-.03.451-.026 1.14-.042 1.783-.044zm9.322.031c.127.706.279 1.403.396 2.104.18 1.07.191 1.199.282 1.753-.236-1.418-.456-2.614-.678-3.857zm-83.702.006 4.233.038-4.233-.037zm98.153 0 4.233.038-4.233-.037zm-98.28.017c.044.07 1.065.096 4.288.112 2.71.014 4.08-.026 4.771.33-.691-.356-2.062-.315-4.771-.329-3.224-.016-4.244-.043-4.288-.113zm7.674.07c.5.018.799.046 1.003.092-.204-.046-.504-.073-1.003-.092zm-30.359.004a1.612 1.612 0 0 1-.286.172c-.104.049-.217.09-.339.124-.287.08-.933.138-1.513.158.58-.02 1.226-.078 1.513-.158.122-.034.235-.075.34-.124.103-.05.198-.106.285-.172zm-30.46.027zm151.2.033 4.234.037-4.234-.037zm-120.583.062a1.59 1.59 0 0 1-.519.319c-.475.176-3.064.254-3.126.095v-.001c.062.16 2.65.081 3.126-.095a1.59 1.59 0 0 0 .519-.318zm31.588.246zm98.394.163zm-.014.14zm-98.145.007zm-23.933.516c-.07.268-.145.531-.24.778.104-.249.161-.517.24-.778zm24.243.349c.058.509.036 1.2.035 2.141l-.004 2.2.003-2.2c.001-.941.024-1.632-.034-2.141zm-24.596.68a6.095 6.095 0 0 1-2.068 2.588c.913-.662 1.596-1.565 2.068-2.588zm78.809 1.279c-.099 1.081 0 1.861.347 2.317-.407-.392-.478-1.145-.347-2.317zm-116.177.083v2.252zm116.23.507c-.023.76.1 1.27.358 1.617-.292-.319-.398-.837-.358-1.617zm-35.41.343c.21.623.374 1.044.615 1.328-.242-.284-.405-.705-.615-1.328zm-11.693.857c.132.387.477.692.912.857-.575-.137-.753-.389-.912-.857zm73.993.057c.143.337.43.622.82.778a1.17 1.17 0 0 1-.581-.36c-.105-.116-.182-.179-.24-.418zm-159.206.063c.192.38.429.584.849.739a1.147 1.147 0 0 1-.537-.287c-.145-.136-.24-.213-.312-.452zm116.236.042c.188.35.408.545.756.721-.364-.133-.55-.337-.756-.72zm-31.154.058c.164.333.449.576.789.743-.405-.134-.594-.347-.789-.743zm31.084.025c.185.34.404.535.745.709-.356-.133-.543-.335-.745-.71zm-55.008.042c.139.195.305.345.49.458-.218-.105-.34-.245-.49-.458zm-.173.108a.944.944 0 0 1 0 0zm-60.922.027a1.648 1.648 0 0 1 0 0zm85.423.15c.156.16.346.288.586.383a1.51 1.51 0 0 1-.44-.22c-.058-.042-.095-.111-.146-.163zm38.288.03-.235.212-.236.21-2.827-.008c-1.555-.004-2.928-.033-3.052-.065.123.031 1.497.061 3.052.065l2.827.008.236-.21zm29.387.005zm-60.427 0-.276.283-.14.144.14-.144zm-71.842.068c.164.107.316.227.532.27.175.035 1.568.067 3.094.072-.548-.001-1.005.021-1.426.04.533.01.654.032 1.358.034-.815-.002-1.28.012-1.824.025.559.018.704.047 1.774.05l3.031.007-3.032-.007c-1.508-.004-2.467.12-3.128-.086.022.004.24.003.276.007-.076-.014-.13-.055-.2-.076.02.003.217.004.25.007-.285-.053-.518-.158-.705-.342zm2.2.381c-.587-.012-1.3-.019-1.495-.037.386.071.885.064 1.495.037zm-2.261-.292c.085.058.157.103.237.142-.078-.044-.17-.08-.237-.142zm84.197.019-.22.241h-.001zm-89.19.002-.246.24-7.152-.003-.12-.001h.12l7.152.003zm62.001.023-.24.216h-.001zm-57.077.024c.058.043.112.086.168.118-.055-.036-.119-.071-.168-.118zm125.541.136.406.206h6.26-6.26zm-12.04.006c.072.005.144.009.235.013l-.234-.013zm-133.406.018c.227.081 1.674.1 7.553.103l7.272.004-7.272-.003c-5.879-.003-7.326-.022-7.553-.103zm133.773.001a58.74 58.74 0 0 0 1.95.026 49.172 49.172 0 0 1-1.95-.026zm25.914.049c.819.04 2.853.051 7.559.053l7.746.004-7.746-.003c-4.706-.002-6.74-.014-7.56-.054zm-73.378.03zm52.51.009c-.025.073-.726.094-3.17.094 2.444 0 3.145-.022 3.17-.094zm-118.129.007c.255.044.732.038 1.08.03-.34-.01-.94-.015-1.08-.03zm67.701.009 2.844.003zm31.147 0h.017l2.988.003-2.988-.002h-.017zM53.695 227.295V232.764H169.306V227.295h-57.805Z" style="fill:#e7641b;fill-opacity:1;stroke-width:.283186" transform="translate(8.931 -11.137) scale(.51191)"/>
  <path d="M117.146 48.271a2.922 2.922 0 0 0-1.313.246l-.386.166-.128.574c-1.286 5.787-6.097 9.327-13.343 9.821-2.28.155-2.788 1.201-1.98 4.085 2.406 8.597 3.098 22.838 2.063 42.451-.06 1.133-.13 2.32-.155 2.635l-.046.575-.798-.689c-1.72-1.486-3.748-2.998-5.297-3.95l-.781-.481-.002-2.211c-.01-11.312-1.318-26.763-3.083-36.412-.458-2.5-.842-2.778-3.885-2.813-6.887-.079-11.628-3.1-13.405-8.54l-.22-.674-.474-.167c-2.269-.794-3.547.753-2.589 3.13 2.61 6.475 6.587 10.456 11.34 11.353.09.017.177.104.2.2.02.093.192.759.379 1.48 1.74 6.707 2.17 16.975 1.213 29.02-.12 1.504.028 1.345-1.052 1.136C70.862 96.779 61.42 102.05 57.6 113.61c-2.68 8.115-1.006 15.222 5.102 21.651 4.725 4.974 4.6 9.538-.404 14.758-8.368 8.728-8.636 16.896-.947 28.872 1.509 2.35 2.245 3.746 2.828 5.357.163.454.299.765.3.693.01-.3.367-.154.46.188.5 1.838.576 3.357.148 2.96-.083-.077-.092-.07-.052.043a.943.943 0 0 1 .048.259c0 .094.02.1.09.03.185-.184.285-.098.285.248s-.1.432-.285.247c-.07-.07-.09-.063-.09.032a.942.942 0 0 1-.048.258c-.04.112-.03.12.052.044.205-.19.296-.107.296.27 0 1.563-1.156 4.637-1.453 3.864-.025-.065-.007-.191.04-.281.138-.265.032-.129-.45.586-.816 1.205-.9 1.276-1.842 1.544-5.151 1.464-8.437 4.648-8.999 8.72-1.117 8.086 3.78 13.014 13.116 13.203 6.854.138 13.953-4.253 21.407-13.241l.279-.336 1.603.54c1.642.552 4.201 1.493 5.756 2.116.84.336.87.343.806.172-.092-.242-.092-.243.114-.243.294 0 .418.08.418.27 0 .145-.04.18-.207.182-.165.002-.132.03.169.14 1.09.395 5.074 2.111 8.28 3.567 6.146 2.792 11.196 4.601 16.596 5.947 4.236 1.056 8.11 1.65 12.925 1.983.857.059 6.302.039 7.305-.027 1.018-.067 1.55-.12 3.859-.38 8.632-.972 16.426-6.996 19.62-15.166l.323-.824 3.74-2.491c4.562-3.04 4.405-2.261 1.061-5.28a295.002 295.002 0 0 1-3.108-2.83l-.429-.413-.118-.825c-1.696-11.838-11.955-20.945-23.59-20.941-11.005.004-16.515 13.281-8.736 21.053 7.853 7.846 21.273 2.095 21.04-9.016l-.025-1.193.551.59c2.92 3.128 4.5 6.407 5.194 10.781.82 5.167-1.388 11.463-5.44 15.515-3.424 3.424-7.408 5.167-12.743 5.578-.536.041-1.193.107-1.46.147-2.968.436-12.534-.246-15.302-1.091-.08-.025-.807-1.378-1.91-3.556-2.172-4.284-1.481-4.104-4.78-1.244l-2.622 2.274-.862-.294c-2.252-.77-5.423-2.07-8.916-3.653-.927-.42-2.343-1.051-3.147-1.402-.804-.351-1.482-.651-1.507-.666-.026-.016.046-.408.16-.873.355-1.46.799-3.6 1.309-6.314 1.175-6.254 1.768-7.509 6.326-13.367 9.033-11.61 9.123-22.278.282-33.336l-.858-1.073.18-.65c6.383-22.944 6.38-56.412-.002-82.757-.224-.922-.238-1.041-.13-1.076 3.669-1.172 8.233-7.22 9.762-12.935.33-1.235-.584-2.18-1.823-2.248zM77.53 103.944c1.883-.02 3.893.212 6.006.705l.655.153v.253c0 .984-1.12 9.614-1.916 14.758-.302 1.955-.666 3.904-1.114 6.5.066-.266.185-.952.175-1.074-.005-.059-.031-.005-.058.118-.026.124-.09.225-.143.225-.102 0-.239.174-.237.3 0 .04.035.016.077-.056.109-.186.235-.163.206.037-.013.093-.063.169-.112.169a.233.233 0 0 0-.143.056c-.031.03.002.056.074.056.092 0 .123.05.106.169-.013.092-.063.168-.111.168a.233.233 0 0 0-.144.056c-.031.031.004.057.078.057.058 0 .088.014.1.054-.013-.028-.047-.054-.102-.054-.077 0-.112.058-.101.168a.721.721 0 0 1-.04.3.375.375 0 0 0-.014.243c.024.062.006.113-.038.113-.047 0-.066.08-.045.19.002.013-.006.016-.005.03-.003-.008-.007 0-.01-.009-.069-.17-.07-.17-.059.027.005.082.028.105.049.125-.007.015.001.052-.008.058-.039.024-.063.116-.054.205a.706.706 0 0 1-.042.292.37.37 0 0 0-.015.239c.023.059.01.118-.028.131-.04.013-.08.2-.09.416-.01.216-.04.394-.066.394-.043 0-.144.543-.181.974a1.257 1.257 0 0 1-.067.307.448.448 0 0 0-.038.188c.053.305-.093.345-.392.255-.066-.052-.287-.185-.717-.41-2.76-1.449-4.553-3.176-5.913-5.697-.3-.558-.356-.586-.183-.22-.442-.862-.8-1.781-1.038-2.782-.302-1.272-1.572-2.65-2.215-2.403-.058.023-.126.008-.15-.03-.025-.04-.119-.068-.21-.064-.142.008-.145.014-.021.046.115.03.122.05.037.107-.08.055-.07.067.046.055a.8.8 0 0 1 .3.041l.374.138c.37.134.858.516 1.118.877.287.397.301.433.532 1.313.568 2.171 1.777 4.36 3.192 5.931a12.898 12.898 0 0 1-2.758-4.426c-.149-.401-.34-.759-.463-1.188-.632-2.198-1.933-3.087-3.466-2.368-1.978.928-1.942 2.97.128 7.146.307.618.557 1.183.556 1.255-.001.188-.257.163-.408-.038-.3-.4.324.645.767 1.285 1.068 1.544 2.444 2.968 4.043 4.187 5.525 4.21 5.326 10.93-.513 17.302-8.185 8.93-8.304 17.557-.403 29.131 3.93 5.756 4.702 10.41 2.285 13.768-.184.256-.362.427-.437.42-.07-.005-.532-.052-1.026-.105a43.551 43.551 0 0 0-2.154-.15c-.69-.031-1.255-.061-1.255-.068 0-.007.1-.31.223-.672 1.611-4.768.662-10.63-2.605-16.09-.855-1.429-2.477-3.9-1.926-2.936.043.075.037.129.049.192-.042-.148-.148-.358-.356-.7a52.798 52.798 0 0 1-1.052-1.863c-.344-.639-.626-1.132-.627-1.096 0 .102.864 1.704 1.477 2.738.51.859.623 1.185.38 1.09-.053-.02-.166-.163-.252-.317s-.415-.729-.733-1.278c-1.01-1.75-1.665-3.146-2.268-4.846a5.81 5.81 0 0 0-.244-.613c-.789-2.6-.864-4.897-.256-7.034.053-.128.075-.16.164-.407.065-.182.247-.472.348-.689-.42.934-.714 1.797-.714 2.31 0 .291.193.004.277-.412.07-.35.248-.77.396-1.172l.085-.187a21.973 21.973 0 0 1 1.817-3.244c0 .004-.013.022-.008.022.02 0 .233-.262.472-.581.673-.9 1.5-1.859 2.288-2.654 6.289-6.348 6.789-14.305 1.629-20.91-.091-.144-.41-.492-.626-.744-.33-.383-.602-.782-.972-1.155l-.423-.425c-1.262-1.366-1.95-2.276-2.693-3.675-.202-.378-.366-.655-.366-.614 0 .13.657 1.307 1.151 2.06.57.872 1.034 1.43 2.338 2.811.521.552.783.852 1.041 1.15.103.13.302.344.357.428.104.14.126.21.138.273-.042-.137-.553-.73-1.674-1.924-2.374-2.528-3.548-4.503-4.143-6.97-.11-.453-.217-.875-.24-.937a1.22 1.22 0 0 1-.049-.293c-.01-.204-.196-.314-.196-.116 0 .181.034.388.068.595-.504-2.476-.317-5.076.531-7.757.044-.084.1-.195.216-.52a24.69 24.69 0 0 1 1.616-3.626c-.14.253-.288.475-.425.744.267-.518.498-1.033.813-1.555.103-.17.235-.307.343-.47-.227.348-.437.76-.653 1.145a15.025 15.025 0 0 1 1.602-2.275c-.834 1.047-1.592 2.3-2.33 3.846-.792 1.655-1.7 4.465-1.705 5.28 0 .15.14.18.182.039.016-.052.116-.5.222-.996.446-2.079 1.357-4.293 2.663-6.473 1.899-3.17 4.607-5.14 8.246-5.995.392-.092.763-.186.824-.21a.387.387 0 0 1 .18-.027.39.39 0 0 0 .187-.037c.066-.028.202-.055.301-.059.196-.009.318-.196.129-.196-.76 0-3.234.737-4.507 1.343-.294.14-.571.292-.846.447.71-.416 1.452-.794 2.27-1.087.514-.183.729-.272.75-.295a17.74 17.74 0 0 1 4.915-.73zm6.19 2.608c-.02-.083-.03-.01-.025.161.005.172.043.307.084.3.042-.007.075.09.075.213 0 .147-.034.218-.099.204-.054-.011-.08.01-.057.048.023.037-.008.11-.07.16a.344.344 0 0 0-.103.253c.007.15.01.15.056-.014.067-.238.198-.209.198.042 0 .115-.038.199-.086.19-.048-.01-.106.033-.13.093-.025.067.003.11.074.11.081 0 .108.06.091.206-.028.245-.154.25-.222.004-.048-.17-.05-.176-.056-.009-.004.09.028.187.072.214.053.033.042.091-.034.174-.124.138-.13.68-.008.66.04-.008.085.08.098.193.017.142-.01.206-.085.206-.06 0-.129.05-.152.112-.025.064-.005.104.048.093.05-.01.101.075.114.189.017.141-.01.206-.085.206-.06 0-.129.05-.152.111-.025.065-.005.105.048.094.05-.01.101.075.114.188.015.124-.012.206-.066.206-.128 0-.29.235-.284.412.003.13.011.127.053-.022.027-.095.083-.173.124-.173.041 0 .1.078.13.173.04.127.046.109.021-.068-.018-.132.002-.263.047-.29.046-.029.063-.158.04-.302-.023-.14-.006-.273.037-.3.044-.026.06-.16.037-.3-.022-.137-.006-.271.035-.297.105-.065.049-.577-.074-.673-.113-.088-.09-.378.028-.356.04.008.098.093.129.188.038.118.043.093.018-.081-.02-.14.001-.3.048-.357.046-.056.065-.2.04-.323-.025-.126-.01-.243.036-.271.049-.03.063-.164.035-.336-.027-.171-.013-.306.035-.335.102-.063.06-.573-.055-.672a.491.491 0 0 1-.123-.224zm10.811 3.483h.22c.033 0 .172.116.222.136.032.027.004.027.054.06 2.087 1.408 4.266 3.473 6.215 5.724-.524-.621-.987-1.182-1.512-1.755.898.888 1.748 1.77 2.358 2.504a31.684 31.684 0 0 1 3.585 5.353c-.467-.87-1.181-1.898-1.967-2.967 1.5 2.126 2.679 4.247 3.234 6.032.04.132.057.136.088.201.076.264.203.562.252.805.023.114.01.238-.01.362l-.186-.695c-.534-2.008-1.8-4.452-3.4-6.735-.248-.336-.48-.664-.747-1.01-.462-.604-.927-1.208-1.426-1.761-.15-.167-.493-.555-.76-.862-.601-.69-1.574-1.663-2.357-2.357a57.84 57.84 0 0 1-.755-.68 5.705 5.705 0 0 0-.353-.3 76.69 76.69 0 0 1-.923-.744c-1.63-1.33-1.62-1.323-1.715-1.168-.023.038.026.05.108.029.101-.027.15-.002.15.074 0 .141-.203.226-.252.106-.02-.05-.038.057-.042.235-.006.363.164.416.206.063.033-.28.09-.26.785.26 5.466 4.101 10.252 10.494 11.361 15.174.433 1.826-6.849 6.008-12.395 7.118-.37.075-.692.157-.712.183-.02.026-.118.042-.217.038-.1-.005-.195.034-.213.085-.045.13.027.122 1.217-.123 3.62-.747 7.7-2.616 10.296-4.546-.276.206-.496.407-.818.62l-1.056.703c-.893.598-3.455 1.772-5.238 2.4-.143.051-.12.05-.24.094-1.409.47-2.834.856-4.175 1.057-.415.063-.805.114-.867.114-.166 0-.147-.308.146-2.312.814-5.571 1.686-14.804 1.689-17.871 0-.506.003-.514.184-.48.116.022.199-.004.225-.072.063-.165.054-.171-.146-.095l-.188.071v-1.811l.188.047c.103.026.187.016.187-.023s.022-.132.049-.207c.04-.112.03-.121-.053-.044-.029.027-.035-.001-.059.015a.396.396 0 0 0 .138-.314v-.124c-.031.032-.075.037-.075.146 0 .225-.175.314-.25.127-.005-.012-.006.021-.01.018-.017-.093-.04-.153-.04-.336zm.375.607c.013-.014.009-.066.033-.064l-.033-.025zm.033-.064.585.444c3.909 2.964 7.61 7.162 9.684 10.983.247.456.462.816.478.8.045-.043-1.084-2.02-1.61-2.818-2.045-3.102-5.358-6.611-8.531-9.035-.346-.264-.513-.368-.606-.374zm7.998 7.472.025.031c-.06-.079-.116-.157-.177-.236.055.07.098.135.152.205zm.747 1.01.022.03c-.038-.054-.07-.107-.109-.16.03.042.056.087.087.13zm-35.246.641c-.734.006-2.26 1.667-2.046 2.226.053.138.191.05.191-.121 0-.54.88-1.536 1.573-1.782.34-.12.517-.325.282-.323zm-1.982 3.071c-.406 0 1.185 4.39 2.018 5.568.318.45.196.092-.344-1.01-.563-1.145-1.29-3.156-1.48-4.09-.06-.285-.134-.468-.194-.468zm-3.932 2.439c.757 1.977 2.187 4.28 3.88 5.992.641.65 1.207 1.266 1.603 1.745.16.194.234.213.26.158-.001.018.062.09.05.1-.066.067-.143.018-.327-.209-.308-.38-.854-.971-1.91-2.073a17.614 17.614 0 0 1-2.005-2.502c-.344-.542-.682-1.084-.95-1.642-.075-.152-.13-.312-.2-.466-.159-.363-.272-.734-.4-1.103zm44.743 1.34c-.012.06-.045.124-.067.186-.217.292-.502.562-.766.837.236-.248.47-.496.634-.735zm-26.151.026c-.33 1.904-.763 4.586-.836 4.873-.02-.012-.062.015-.13.099l-.131.158c.094.004.186.007.216-.058-.038.091-.12.126-.3.08.03.007.024-.016.048-.013l-1.056-.534c-.457-.231-.85-.521-1.27-.786.367.23.825.51 1.245.726 1.053.54 1.008.525 1.173.395.092-.072.52-2.24.643-3.15-.035.276-.082.594-.196 1.212-.166.904-.3 1.69-.296 1.746.003.056.02.068.036.027.047-.12.861-4.67.847-4.736-.002-.008.007-.028.007-.04zm-1.097 5.13c-.016-.001-.018.012-.035.01l.019.009zm.997-4.901c-.002.014.001.015-.002.031-.028.134-.07.388-.095.564-.012.081-.03.094-.045.148.05-.219.114-.547.142-.743zm-7.145.377a13.592 13.592 0 0 0 2.824 2.74c-1.1-.793-2.047-1.696-2.824-2.74zm32.622.571c-.903 1-2.525 2.1-4.52 3.11 1.79-.953 3.527-2.169 4.52-3.11zm-28.811 2.368c.393.252.771.513 1.202.74.313.166.45.223.62.301-.18-.071-.29-.092-.61-.259-.447-.233-.806-.523-1.212-.782zm-11.214.721.156.165c.122.128.098.13.211.253-.102-.11-.104-.125-.218-.246-.065-.068-.087-.106-.149-.172zm1.916 2.276c.003.008.073.08.073.087 0 .12-.068.15-.165.126.124-.003.14-.084.092-.213zm30.749 4.229v.004c.145-.03.237.01.304.089-.08-.021-.214.012-.458.096-.735.254-2.49.719-3.362.89-.994.196-1.033.208-.974.304.06.096.24.1.298.004.025-.04.09-.055.145-.034.137.053 1.898-.357 3.12-.726 1.006-.303 1.007-.303 1.11-.148.145.218.224.179.23-.083.063.484-.09 1.502-.368 3.726-.355 2.83-.444 3.53-.324 3.71-.016-.001-.091-.065-.099-.058-.018.018.061.093.176.167.212.137.667.57 1.022.874-.45-.366-.935-.761-1.09-.858a.455.455 0 0 1-.225-.372c-.026-.279-.16-.33-.197-.077-.032.222.22.567.568.776.72.434 3.202 2.812 4.074 3.904.18.225.593.71.918 1.077 3.535 3.992 5.643 7.638 6.494 11.233.087.37.178.725.202.787a.391.391 0 0 1 .026.179.356.356 0 0 0 .024.169c.021.056.073.1.116.1.1 0 .101-.275 0-.337-.04-.026-.055-.08-.031-.119.067-.11-.393-1.872-.732-2.802-.115-.318-.281-.669-.43-1.008.185.424.447.895.578 1.275.113.327.215.564.227.528.005-.015-.01-.056-.006-.074 1.091 3.47 1.017 6.885-.214 10.396-.032.086-.03.062-.065.158-.79 2.161-2.486 5.103-4.132 7.171-2.034 2.556-3.187 4.133-4.258 5.829-.517.818-1.273 2.303-1.676 3.21 1.012-2.381 2.422-4.669 4.701-7.557.293-.372.6-.764.683-.872.082-.108.318-.406.524-.662 1.82-2.263 3.469-5.195 4.261-7.575.341-1.025.702-2.587.617-2.672-.09-.09-.175.097-.264.58-.524 2.859-2.16 6.182-4.61 9.367-2.558 3.325-2.915 3.81-3.946 5.346-.32.478-.602.942-.876 1.404.194-.33.347-.657.563-.996-1.246 1.916-2.228 3.586-2.225 4.016 0 .046.282-.49.626-1.191.176-.36.41-.712.602-1.064-.832 1.515-1.453 2.987-1.892 4.555-.236.845-.705 2.993-.678 3.108a.38.38 0 0 1-.028.18c-.087.218-.217.988-.174 1.03.024.024.006.088-.04.143a.312.312 0 0 0-.044.247c.021.081.01.157-.025.17-.035.012-.078.174-.096.359a2.515 2.515 0 0 1-.075.45c-.024.062-.115.5-.203.974-.198 1.08-.874 4.124-.927 4.177-.021.021-.662-.201-1.424-.494a116.69 116.69 0 0 0-2.83-1.036c-1.692-.59-1.603-.513-1.32-1.14.683-1.514 1.371-4.055 1.099-4.055-.071 0-.145.225-.237.726-.153.83-.747 2.668-1.106 3.42-.072.151-.127.26-.153.35.017-.138.083-.306.195-.566.292-.679.715-1.883.708-2.015-.002-.044-.13.275-.285.708-.133.372-.316.82-.453 1.136 1.794-4.01 1.783-8.382-.026-13.105.087.229.215.471.292.698.157.466.298.834.313.819.043-.043-.041-.322-.14-.626.168.515.33 1.03.45 1.525.09.37.178.722.198.78.025.076.058.083.116.025.174-.174-.7-3.013-1.442-4.683-.561-1.261-1.179-2.392-2.24-4.1-2.421-3.9-3.85-7-4.417-9.593a6.02 6.02 0 0 0-.134-.524.727.727 0 0 1-.027-.274c.018-.19-.125-.308-.185-.152-.377.982 2.28 7.074 4.726 10.841a27.154 27.154 0 0 1 2.887 5.928c-.481-1.31-1.658-3.81-2.513-5.217-1.72-2.831-2.117-3.514-2.74-4.72-.79-1.53-1.17-2.404-1.691-3.896-.212-.606-.38-1.045-.39-1.02-.593-2.14-.69-4.054-.232-5.891-.035.2-.09.427-.039.511.064.103.184.007.184-.145 0-.535.312-1.33.766-2.22-.157.323-.288.625-.346.86l-.046.187.087-.188c.619-1.334.88-1.82 1.39-2.584.666-1 1.438-1.984 2.527-3.222 1.357-1.541 2.165-2.714 2.955-4.288.211-.421.383-.792.383-.824-.001-.031-.247.414-.547.99-.139.268-.284.458-.416.692.187-.335.37-.683.565-1.083.134-.273.258-.6.384-.918-.023-.015-.03-.048-.041-.074-.003-.006.003-.014.005-.021.004-.018.013-.044.018-.061.021-.063.044-.126.068-.188-.043.013-.088-.029-.069-.11l.013-.047.017-.062.022-.08.026-.093.021-.078.006-.022c-.003 0-.006-.002-.008-.003-.161.446-.32.892-.538 1.366.204-.445.372-.935.52-1.37-.022-.004-.025 0-.02-.011v-.002l.002-.002v-.003h.001l.005-.015.007-.015.003-.006.001-.002a.251.251 0 0 0 .01-.026l.01-.036a.611.611 0 0 0 .008-.027c-.083.205-.17.406-.254.61.208-.489.389-.977.547-1.463l.002-.012a.937.937 0 0 0 .003-.045.092.092 0 0 1 .023-.059.135.135 0 0 1 .007-.006c.412-1.297.646-2.572.65-3.764v-1.46c0 .005-.482-3.45-.97-4.707-.233-.598-.184-1.312-.18-1.317 0 0-.021-.37 1.125-.452 1.526-.1 3.844-.558 5.644-1.113.448-.139.775-.272 1.005-.32zm-.059 2.245c-.023-.082-.026-.026-.005.126.022.16.003.296-.047.327-.05.031-.065.149-.037.3.028.15.014.268-.038.3-.05.03-.065.148-.037.299.029.15.014.268-.037.3-.052.031-.066.149-.038.3.029.15.014.267-.037.299-.051.031-.066.15-.038.3.027.14.014.268-.03.295-.112.069-.06.563.058.564.064 0 .09.073.075.206-.013.113-.062.198-.11.19-.047-.01-.105.032-.129.092-.023.061-.002.1.048.091.049-.01.1.059.115.151.014.093.045.169.067.169.023 0 .023-.1-.002-.222s-.011-.243.03-.268c.04-.025.075-.153.075-.284 0-.13.01-.38.022-.553.015-.217-.01-.328-.082-.356-.117-.045-.1-.386.018-.364.041.008.098.092.127.187.04.133.05.113.038-.088-.008-.145-.061-.299-.117-.343-.112-.087-.092-.34.027-.34.041 0 .098.077.127.173.04.132.049.111.038-.09-.009-.144-.061-.298-.117-.342-.112-.088-.092-.34.027-.34.04 0 .098.077.127.172.04.133.049.112.038-.09-.009-.144-.061-.297-.117-.341-.112-.088-.092-.34.027-.341.04 0 .098.077.127.173.04.132.049.111.037-.09-.008-.144-.054-.295-.102-.337a.53.53 0 0 1-.128-.225zm-.72 5.512c-.002.18.138.315.764.741.67.455 2.505 2.202 3.43 3.263l1.275 1.46c.351.4.973 1.146 1.382 1.657.409.511.871 1.086 1.028 1.279.747.917 1.947 2.849 2.654 4.273.24.483.448.866.462.852.045-.045-.877-1.838-1.351-2.628-.912-1.518-2.394-3.486-4.073-5.405-.366-.418-.9-1.036-1.19-1.375-.81-.95-2.875-2.93-3.57-3.424-.344-.245-.667-.527-.718-.627-.056-.111-.093-.138-.093-.066zm.507.08c.04.054.1.06.182.063.013 0 .15.137.174.149-.156-.111-.296-.204-.356-.212zm1.662 1.467c.976.892 2.019 1.912 2.661 2.683.206.247.614.718.907 1.048.564.634 2.143 2.59 2.754 3.409.153.206.292.485.446.709a26.745 26.745 0 0 1 1.932 3.325 28.168 28.168 0 0 0-1.932-3.325 19.657 19.657 0 0 0-1.14-1.52c-.266-.317-.63-.778-.812-1.025a22.263 22.263 0 0 0-.942-1.151l-1.014-1.161c-.911-1.045-1.284-1.449-2.002-2.172a24.71 24.71 0 0 0-.858-.82zm3.732 3.76c2.317 2.606 4.042 5.111 5.208 7.57-1.21-2.277-3.29-5.413-5.208-7.57zm-13.086 1.916c-.808 1.882-1.887 3.576-3.456 5.36a21.296 21.296 0 0 0 3.456-5.36zm-24.287.791v.001c.006 0 .004.01.009.008-.007 0-.008-.004-.015-.005l.006-.004zm.13.127c.002.015.021.003.021.022 0 .004-.025.028-.026.032.008-.022.003-.036.004-.054zm-.118.002c.064.064-.075.253-.546.746-1.26 1.317-2.501 2.993-3.342 4.386.93-1.65 2.167-3.35 3.494-4.622.17-.162.308-.342.308-.399 0-.157-1.476 1.37-2.054 2.125-.167.219-.457.59-.647.829.661-.952 1.314-1.821 1.84-2.393.046-.047.098-.106.142-.148.393-.404.696-.633.805-.524zm23.91.085c-.638 1.328-1.346 2.588-1.967 3.27-.113.123-.235.279-.271.346-.06.11-.405.505-1.35 1.548.165-.195.246-.341.425-.546 1.566-1.79 2.342-2.944 3.163-4.618zm-12.603.64c.02.015.03.051.04.1.333 1.459.77 2.955 1.282 4.387l.343.959-.42.88c-2.882 6.022-1.612 12.74 4.157 22.003 3.452 5.543 4.112 9.946 2.092 13.963-.353.703-.279.68-1.316.382a64.375 64.375 0 0 0-2.21-.563c-.804-.19-1.517-.369-1.584-.396-.107-.043-.086-.138.165-.761 2.057-5.112.829-11.031-3.708-17.87-6.252-9.423-6.415-14.566-.669-21.103.241-.275.75-.856 1.13-1.293.5-.574.64-.73.698-.687zM66.449 154c-.577.573-1.35 1.484-1.953 2.273A20.648 20.648 0 0 1 66.45 154zm-1.29.742c-1.051 1.306-2.274 3.107-3.037 4.555.066-.145.11-.293.182-.436.637-1.253 1.827-2.906 2.855-4.12zm25.105.087c-.62 1.034-1.288 1.969-2.71 3.622a28.439 28.439 0 0 0-2.184 2.884 30.079 30.079 0 0 1 2.505-3.347c1.166-1.353 1.82-2.21 2.389-3.16zm-4.167 5.103-.046.06a18.412 18.412 0 0 0-1.937 3.199c.053-.13.078-.262.136-.392.06-.127.102-.252.168-.38v-.002c.218-.448.519-.905.8-1.359.222-.339.607-.764.879-1.126zm-24.605 5.515c-.107-.066-.185.151-.113.316a.437.437 0 0 1 .045.188c-.194.907 2.645 7.518 3.8 8.846.307.354.126-.11-.356-.913-1.5-2.502-2.867-5.756-3.197-7.615a1.815 1.815 0 0 0-.097-.375.47.47 0 0 1-.023-.237c.011-.088-.015-.183-.06-.21zm1.291 5.057c.531 1.154 1.171 2.447 1.761 3.463a34.94 34.94 0 0 1-1.76-3.463zm21.046.07c.005.165.634 1.955.962 2.737a20.968 20.968 0 0 1-.962-2.738zm25.446 1.996c-.044.052-.22.36-.498.892-.567 1.082-.91 1.655-1.657 2.768-.543.808-.675.986-2.525 3.387-.724.94-1.359 1.934-2.039 2.934.522-.76 1.02-1.495 1.72-2.41l1.778-2.323c1.18-1.541 2.186-3.121 2.927-4.598.25-.497.338-.702.294-.65zm-23.586 1.866c0 .139 1.358 2.611 2.12 3.857l1.233 2.024c.263.433.703 1.232.977 1.775.275.543.513.975.528.96.064-.064-1.222-2.424-2.025-3.714-1.107-1.78-1.376-2.245-2.174-3.741-.362-.68-.659-1.203-.659-1.161zm-20.41.57c.018.007.048.053.064.05.003 0 .004-.002.008-.003-.013.002-.011.019-.026.019-.006 0-.038-.062-.046-.066zm40.466 3.823c-.011.015-.018.029-.03.043l-.016.022c.016-.02.03-.045.046-.065zm-5.86 9.255c-.248.63-.487 1.255-.68 1.923-.246.858-.516 2.154-1.342 6.457-.326 1.701-.759 3.73-.936 4.385-.082.307-.373.283-1.014.073-.26-.133-1.076-.46-3.218-1.234-1.228-.443-1.783-.63-1.989-.826.167.14.584.278 1.464.588.783.275 2.081.75 2.885 1.056 1.698.646 1.52.6 1.668.435.169-.188 1.239-5.105 1.144-5.259a.082.082 0 0 1 .027-.112c.06-.037.152-.491.199-.98.008-.082.033-.2.055-.261.022-.062.193-.888.38-1.836.225-1.145.522-2.17.85-3.164.058-.141.091-.201.2-.508.09-.25.21-.49.306-.737zm-32.233 11.925c3.308-.146 8.13.407 12.708 1.53l1.003.245-.984 1.049c-4.372 4.659-8.932 7.826-12.299 8.543-1.533.326-4.277.118-6.037-.456-6.068-1.981-4.567-9.635 2.03-10.348.206-.022.584-.103.84-.18.701-.208 1.636-.334 2.739-.383z" style="fill:#483a1f;fill-opacity:1;stroke-width:.283186" transform="translate(8.931 -11.137) scale(.51191)"/>
  <path d="M90.482 22.79c-4.735.015-9.568 3.482-9.08 9.509l.053.674-.59.171C70.8 36.056 73.988 51.64 84.396 50.411c.42-.05.544-.042.544.03 0 .218.412 1.381.68 1.92a8.66 8.66 0 0 0 7 4.776c.33.03.667.058.749.064 4.86.328 8.943-3.783 8.984-9.045l.007-.926.524-.134c8.536-2.182 8.764-14.59.314-17.039-1.124-.326-3.621-.467-4.178-.236-.095.04-.138-.038-.215-.385-1.016-4.583-4.64-6.658-8.323-6.646zm1.715 11.065c.44.017.87.12 1.297.223-.333-.094-.627-.132-.816-.06-.188.072-.011.208.213.163.119-.023.215-.017.215.015s.185.096.411.144c1.93.404 3.733 2.184 4.27 4.216.072.267.148.537.17.599.022.062.033.238.024.393-.012.221.011.281.113.281.43 0-.326-2.28-1.096-3.33.206.249.404.497.555.744.049.094.114.171.159.27.195.372.334.733.338 1.036 0 .023.013.012.018.024.197.793.275 1.514.04 1.455-.149-.037-.17-.013-.174.21-.005.233.007.247.169.185.221-.084.243.455.053 1.293-.048.21-.156.39-.223.591-.023.051-.031.033-.057.11-.303.911-1.049 1.853-1.922 2.597 1.066-.923 1.905-2.244 2.137-3.483.103-.55-.142-.318-.28.265-.486 2.037-2.184 3.731-4.267 4.26-.343.087-.67.171-.723.187-.054.016-.076.065-.048.11.1.161 1.194-.134 2.017-.545.385-.193.758-.45 1.11-.748a6.29 6.29 0 0 1-1.11.748c-.178.093-.354.217-.532.284-.283.106-.531.21-.552.23-.049.05.2-.068.266-.08-.118.037-.22.108-.341.14a6.375 6.375 0 0 1-3.446-.073c-.067-.028-.043-.03-.15-.068-1.816-.637-3.219-1.94-3.95-3.671-.037-.084-.026-.035-.054-.097-.541-1.394-.568-2.988.037-4.573.009-.02.004-.003.014-.024.74-1.649 1.857-2.798 3.391-3.485.03-.013.007-.007.034-.02.86-.343 1.769-.552 2.69-.516zm-.988.162c-.556-.213-2.91.909-3.683 1.754-1.003 1.1-1.751 2.563-1.761 3.446-.003.288.185-.027.308-.515.51-2.026 2.036-3.658 3.962-4.24.35-.105.687-.21.75-.233a.75.75 0 0 1 .272-.026c.191.018.309-.126.152-.186zm2.356.073c.091.023.187.02.277.047.063.033.067.048.215.103.224.083.45.25.678.375a6.169 6.169 0 0 0-1.17-.525zm-4.63.498c-.063.035-.12.045-.183.083.059-.033.122-.052.182-.083zm5.826.041c.397.222.769.47 1.142.781a9.196 9.196 0 0 0-1.142-.78zm.665.226c.14.088.258.204.391.303-.132-.1-.256-.21-.39-.303zm-7.364.343a7.79 7.79 0 0 0-1.091 1.09 5.91 5.91 0 0 1 1.09-1.09zm8.083.427c.293.264.56.52.803.807-.21-.273-.499-.544-.803-.807zm.597.36c.059.066.124.121.18.19-.054-.062-.12-.126-.18-.19zm-10.445 1.269c-.034.06-.049.117-.078.177.019-.041.02-.082.04-.123.01-.021.027-.034.038-.054zm11.533.458c.008.019.022.031.03.05.05.125.052.24.094.368-.047-.152-.034-.211-.124-.418zm-11.915 3.462c-.043-.075-.082-.067-.117.023-.073.191.247 1.232.568 1.85.845 1.623 2.293 2.782 4.08 3.264.46.124.713.137.713.034 0-.09-.009-.092-.75-.26-2.056-.465-3.905-2.35-4.352-4.438-.051-.24-.099-.398-.142-.473zm11.651 2.101c-.021.04-.046.077-.069.117.027-.04.044-.076.07-.117zm-.744 1.034c-.166.2-.332.39-.522.567.182-.181.348-.357.522-.567zM88.22 45.36c.037.026.067.06.104.086-.037-.026-.067-.06-.104-.086zm7.203.204c-.189.121-.388.219-.59.32.227-.113.413-.215.59-.32z" style="fill:#e7641b;fill-opacity:1;stroke-width:.283186" transform="translate(8.931 -11.137) scale(.51191)"/>
  <path d="M99.237 136.729c-.239.048-.58.183-1.045.323-1.873.562-4.284 1.025-5.871 1.127-.671.043-.689.05-.655.222.02.098.005.178-.032.178s-.067-.05-.067-.113c0-.275-.367-.125-.417.17-.086.504-.054.728.187 1.332.509 1.272 1.01 3.635 1.01 4.763 0 .451.005.46.194.425.184-.034.195-.017.195.296 0 .316-.008.33-.195.285-.194-.048-.195-.045-.196.472-.004 1.695-.467 3.555-1.28 5.412.113-.267.239-.523.341-.799.17-.458.31-.793.313-.745.007.167-.582 1.66-.96 2.46.844-1.782 1.51-3.647 1.51-4.619 0-.086.035-.178.078-.204.107-.065.185.16.112.323a.422.422 0 0 0-.044.198c.101.43-.833 3.216-1.575 4.693-.203.405-.394.758-.59 1.098.138-.237.29-.43.435-.702.312-.583.568-1.035.568-1.003.001.032-.178.408-.398.834-.821 1.593-1.662 2.78-3.073 4.339-1.133 1.252-1.936 2.249-2.629 3.26-.341.615-1.129 1.745-1.129 1.745s-.582.97-.594.958c0 0-.265.736-.353.918-.477 1.859-.376 3.795.24 5.96.01-.029.186.418.407 1.032.543 1.51.937 2.394 1.76 3.942.646 1.22 1.06 1.912 2.849 4.776.89 1.425 2.114 3.954 2.614 5.279a27.169 27.169 0 0 0-3.003-5.999c-2.545-3.811-5.308-9.976-4.916-10.969.062-.158.212-.038.193.154-.01.09.004.215.028.277.025.063.087.302.139.531.59 2.623 2.076 5.76 4.595 9.705 1.103 1.73 1.746 2.873 2.33 4.15.772 1.69 1.68 4.561 1.499 4.738-.06.059-.094.051-.12-.026-.02-.059-.113-.414-.206-.79-.124-.5-.293-1.02-.469-1.542.104.308.191.59.147.633-.016.016-.163-.357-.327-.828-.08-.23-.213-.475-.303-.707 1.882 4.78 1.894 9.203.027 13.26.143-.32.333-.773.472-1.15.16-.437.294-.76.296-.715.006.133-.433 1.35-.737 2.038-.116.263-.185.433-.202.573.026-.092.083-.201.159-.355.373-.76.991-2.62 1.15-3.46.096-.507.172-.734.246-.734.284 0-.432 2.57-1.142 4.102-.295.635-.388.557 1.372 1.154.827.28 2.152.752 2.944 1.048.793.297 1.46.521 1.482.5.055-.054.757-3.133.964-4.226.091-.48.186-.924.21-.986.025-.063.06-.267.079-.455.018-.188.063-.351.1-.364.036-.012.048-.09.026-.17a.31.31 0 0 1 .046-.25c.048-.056.066-.122.041-.146-.044-.043.09-.822.18-1.041a.379.379 0 0 0 .03-.184c-.028-.116.46-2.29.706-3.144.455-1.581 1.098-3.068 1.96-4.595-.198.351-.438.702-.62 1.062-.356.71-.65 1.252-.65 1.206-.004-.436 1.018-2.125 2.315-4.063-.224.34-.382.669-.583 1 .284-.465.576-.931.908-1.413 1.072-1.555 1.444-2.046 4.105-5.41 2.549-3.222 4.25-6.584 4.795-9.476.093-.49.18-.678.274-.587.089.086-.286 1.666-.64 2.702-.825 2.41-2.54 5.375-4.433 7.665-.214.26-.46.56-.545.67-.086.11-.406.506-.71.882-2.371 2.923-3.838 5.237-4.89 7.645.419-.916 1.205-2.419 1.743-3.247 1.113-1.715 2.312-3.312 4.428-5.897 1.713-2.092 3.477-5.069 4.3-7.256.036-.097.033-.073.066-.16 1.28-3.552 1.358-7.008.223-10.518-.003.018.012.058.006.073-.013.037-.119-.203-.236-.534-.136-.384-.409-.86-.6-1.29.153.344.326.699.446 1.02.353.94.832 2.725.761 2.835-.025.04-.01.095.034.121.103.062.102.341-.001.341-.045 0-.1-.045-.121-.102a.351.351 0 0 1-.025-.17.39.39 0 0 0-.028-.182 13.795 13.795 0 0 1-.21-.796c-.885-3.637-3.077-7.326-6.754-11.365a36.48 36.48 0 0 1-.956-1.09c-.906-1.105-3.488-3.511-4.236-3.95-.362-.212-.625-.56-.592-.785.038-.257.178-.205.206.077.017.171.089.288.233.376.161.099.667.498 1.134.87-.37-.31-.842-.747-1.063-.885-.12-.075-.202-.151-.183-.17.007-.007.086.058.103.06-.125-.182-.032-.89.337-3.754.29-2.25.389-3.77.384-3.77l-.029-.135-.086-.172c-.07-.08-.165-.12-.317-.09zm-7.866 1.857c.043.003.071.101.056.292-.016.192.083.6.29 1.19.366 1.051.737 2.498.678 2.648-.023.057-.008.124.033.149.098.059.096.317-.004.377-.043.026-.098-.003-.122-.064a.475.475 0 0 1-.027-.213.501.501 0 0 0-.024-.216 30.52 30.52 0 0 1-.292-1.137 17.67 17.67 0 0 0-.524-1.738c-.232-.602-.264-.76-.208-1.009.043-.19.1-.282.143-.279zm7.804.41h.001v.002a.533.533 0 0 0 .132.226c.05.042.099.195.107.341.012.203.002.225-.04.09-.03-.096-.089-.174-.132-.174-.123 0-.144.256-.028.345.059.044.114.2.122.346.012.203.002.224-.04.09-.03-.096-.089-.175-.132-.174-.123 0-.144.255-.028.344.059.045.114.2.122.346.012.204.002.225-.04.09-.03-.095-.089-.174-.131-.174-.124 0-.145.256-.028.345.058.044.113.2.121.346.012.203.002.224-.04.09-.03-.097-.089-.181-.131-.19-.123-.022-.141.323-.02.369.076.028.102.14.086.36a9.752 9.752 0 0 0-.023.56c0 .132-.035.26-.078.286-.042.026-.056.148-.031.271.026.124.027.225.003.225s-.056-.077-.07-.17c-.015-.094-.069-.163-.12-.153-.052.01-.074-.03-.049-.093.024-.06.084-.102.134-.093.05.009.1-.078.114-.192.016-.134-.012-.209-.078-.209-.124 0-.177-.5-.06-.57.045-.028.059-.156.031-.299-.029-.152-.014-.271.04-.303.052-.032.068-.15.038-.303-.03-.153-.014-.272.039-.304.053-.031.069-.15.04-.303-.03-.152-.015-.271.038-.303.053-.032.069-.15.04-.303-.03-.153-.015-.272.038-.304.05-.03.071-.167.049-.33-.02-.152-.018-.204.005-.126l-.001-.002zm-.748 5.577c0-.072.039-.046.097.067.053.101.39.387.747.634.723.5 2.871 2.503 3.714 3.465.3.342.857.968 1.237 1.39 1.747 1.943 3.289 3.933 4.237 5.47.493.8 1.452 2.613 1.406 2.658-.016.015-.232-.373-.481-.861-.736-1.442-1.984-3.396-2.761-4.324-.163-.195-.644-.777-1.07-1.294a60.982 60.982 0 0 0-1.437-1.677c-.365-.406-.962-1.07-1.326-1.477-.962-1.073-2.872-2.84-3.568-3.301-.651-.431-.797-.568-.795-.75zm11.361 27.788c.046-.052-.046.155-.305.657-.77 1.495-1.817 3.093-3.045 4.653l-1.85 2.35c-.728.925-1.246 1.67-1.789 2.438.708-1.011 1.368-2.018 2.12-2.968 1.926-2.43 2.063-2.61 2.628-3.427.777-1.126 1.134-1.706 1.724-2.801.29-.537.472-.85.517-.902zm-24.533 1.887c0-.041.308.487.685 1.175.83 1.514 1.11 1.984 2.261 3.785.835 1.306 2.173 3.693 2.107 3.758-.016.016-.264-.421-.55-.97a31.71 31.71 0 0 0-1.016-1.796l-1.283-2.048c-.792-1.261-2.204-3.763-2.204-3.904z" style="fill:#e7641b;fill-rule:evenodd;stroke-width:.271434" transform="translate(8.931 -11.137) scale(.51191)"/>
</svg>
