<?xml version="1.0" encoding="UTF-8" standalone="no"?>
<!-- Created with Inkscape (http://www.inkscape.org/) -->

<svg
   width="500"
   height="500"
   viewBox="0 0 132.29166 132.29167"
   version="1.1"
   id="svg1"
   xml:space="preserve"
   inkscape:version="1.4 (86a8ad7, 2024-10-11)"
   sodipodi:docname="libertae.svg"
   xmlns:inkscape="http://www.inkscape.org/namespaces/inkscape"
   xmlns:sodipodi="http://sodipodi.sourceforge.net/DTD/sodipodi-0.dtd"
   xmlns="http://www.w3.org/2000/svg"
   xmlns:svg="http://www.w3.org/2000/svg"><sodipodi:namedview
     id="namedview1"
     pagecolor="#ffffff"
     bordercolor="#111111"
     borderopacity="1"
     inkscape:showpageshadow="0"
     inkscape:pageopacity="0"
     inkscape:pagecheckerboard="1"
     inkscape:deskcolor="#d1d1d1"
     inkscape:document-units="px"
     inkscape:zoom="0.70710678"
     inkscape:cx="502.04581"
     inkscape:cy="568.51385"
     inkscape:window-width="1920"
     inkscape:window-height="1115"
     inkscape:window-x="-9"
     inkscape:window-y="-9"
     inkscape:window-maximized="1"
     inkscape:current-layer="layer1" /><defs
     id="defs1" /><g
     inkscape:label="Layer 1"
     inkscape:groupmode="layer"
     id="layer1"><g
       id="g102"
       transform="matrix(0.51191056,0,0,0.51191056,8.9313548,-11.137156)"><path
         id="path39"
         style="fill:#e7641b;fill-opacity:1;stroke-width:0.283186"
         d="m 66.791272,250.56197 c -2.249285,0.006 -4.811433,0.26791 -7.607288,0.7922 l -0.843359,0.15813 v 13.05295 c 0,11.26476 0.01504,13.10346 0.110071,13.42347 0.130363,0.43899 0.554923,0.89016 0.984953,1.04696 h 5.16e-4 c 0.01335,0.005 0.27085,8.4e-4 0.296623,0.005 l 0.06925,0.0346 1.52032,-0.008 h 0.01033 c 2.165252,0.0711 5.565223,0.0439 8.097181,-0.062 -0.364708,0.008 -1.25948,0.0117 -1.774569,0.0176 1.931713,-0.0309 3.221369,-0.094 4.193026,-0.23616 -0.09809,0.0212 -0.182705,0.0536 -0.283187,0.0729 v 5.2e-4 c -0.3316,0.0636 -0.69505,0.0927 -1.268657,0.11782 0.307516,-0.0191 1.229494,-0.0204 1.344621,-0.0424 4.326386,-0.82575 6.330722,-3.27243 6.329846,-7.72511 0,-0.002 -5.15e-4,-0.004 -5.16e-4,-0.007 -5.58e-4,-0.1269 -0.02467,-0.25001 -0.03049,-0.37672 -0.07885,-2.82181 -0.950913,-4.72899 -2.78846,-5.93711 -0.574572,-0.37776 -0.569728,-0.32348 -0.05891,-0.72243 3.067951,-2.39607 3.048132,-8.93433 -0.03462,-11.53315 -1.639161,-1.38184 -4.51787,-2.08228 -8.266679,-2.07222 z m 51.766868,0.0264 c -2.64381,-0.0295 -6.56615,0.2729 -9.1736,0.76481 l -0.84284,0.15917 v 13.03331 c 0,9.44498 0.0228,13.12591 0.0842,13.36973 0.10814,0.42948 0.59783,0.97504 1.002,1.11672 v -5.1e-4 c 0.23767,0.0833 0.93495,0.105 3.36827,0.108 l 3.06803,0.004 0.24702,-0.23926 0.24753,-0.23978 v -4.63072 -4.63073 h 0.29455 0.29456 l 0.37207,0.69299 c 0.91418,1.70123 2.07575,4.43478 2.75539,6.48487 0.50951,1.5369 0.74057,2.09736 1.64796,2.33681 2.9e-4,7e-5 7.7e-4,-8e-5 10e-4,0 l 0.21653,0.11317 0.39429,0.003 c 0.65663,0.063 1.50214,0.0854 2.87476,0.094 l 3.41943,0.0217 0.23357,-0.29456 c 0.0651,-0.0822 0.0809,-0.2556 0.0915,-0.43718 0.003,-0.0159 0.0274,-0.0312 0.0295,-0.0481 10e-4,-0.0106 -0.01,-0.0406 -0.009,-0.0517 v -5.1e-4 c -0.009,-1.79366 -1.99854,-7.0395 -3.95738,-10.1446 l -0.51573,-0.81753 0.29249,-0.22634 c 2.01262,-1.55809 2.91658,-3.83629 2.90318,-7.31686 -0.0212,-5.51387 -2.13968,-8.17811 -7.21816,-9.07852 -0.50111,-0.0889 -1.24005,-0.13588 -2.12132,-0.14573 z m 28.61221,0.37207 c -1.12129,0.004 -2.42259,0.0109 -3.93258,0.0109 h -9.41648 l -0.24236,0.25012 -0.24237,0.25011 0.0212,2.66547 0.0217,2.66599 0.2253,0.32453 c 0.14745,0.21261 0.36548,0.39634 0.63149,0.53123 l 0.40618,0.20567 h 2.49597 2.49545 l 0.0196,10.06502 0.0196,10.0645 0.22634,0.36536 c 0.16449,0.26603 0.33456,0.42274 0.62632,0.57516 l 0.40101,0.20928 h 3.19102 3.19102 l 0.24701,-0.23977 0.24701,-0.23927 v -10.39988 -10.06915 c 0.0518,-0.13622 0.11308,-0.2485 0.18552,-0.33125 h 2.7218 2.90732 l 0.24443,-0.25166 0.24391,-0.25166 -0.0233,-2.57659 c -0.0197,-2.18095 0.27734,-3.12024 -1.02164,-3.52537 h -5.2e-4 c -0.002,-9.8e-4 -0.002,-0.003 -0.004,-0.004 h -5.2e-4 l -0.39997,-0.20929 h -5.2e-4 -0.87436 c -0.48793,-0.04 -1.04385,-0.0669 -1.75804,-0.078 v 5.1e-4 c -0.78997,-0.0123 -1.73125,-0.0116 -2.85253,-0.008 z m 47.71078,0.009 c -1.11356,-0.005 -2.48174,0.002 -4.17959,0.002 h -7.71374 l -0.24702,0.23978 -0.24701,0.23926 v 13.06432 c 0,9.46795 0.0233,13.1569 0.0847,13.40074 0.10814,0.42947 0.59733,0.97504 1.00149,1.11672 l 5.2e-4,-0.001 c 0.009,0.003 0.286,0.001 0.29817,0.004 h 5.2e-4 l 0.0672,0.0336 h 5.2e-4 2.50011 c 0.99883,0.0298 1.06146,0.0688 5.379,0.0708 l 7.94628,0.004 0.24236,-0.25011 0.24288,-0.25011 -0.0222,-2.46859 -0.0217,-2.46806 -0.1912,-0.37156 c -0.13584,-0.26383 -0.2973,-0.43737 -0.55604,-0.59738 l -0.36484,-0.2253 -4.29534,-0.0212 -4.29535,-0.0212 v -2.20762 -2.20813 h 3.87367 3.87418 l 0.24701,-0.23978 0.24702,-0.23926 v -2.31252 c 0,-2.60659 0.054,-3.45375 -1.25884,-3.73362 h -5.2e-4 l -0.0517,-0.0305 -5.2e-4,-5.2e-4 -0.17415,-0.002 c 0.002,2.6e-4 0.004,2.6e-4 0.005,5.2e-4 l -3.31505,-0.0357 -3.48402,-0.0372 v -5.2e-4 l 3.48402,0.0377 3.30988,0.0346 c -0.71949,-0.11084 -1.75518,-0.10989 -3.36569,-0.11007 h -3.39049 v -1.87327 -1.87328 h 4.43591 4.43539 l 0.24753,-0.23926 0.24701,-0.23978 v -2.312 c 0,-2.24345 0.20644,-3.18436 -1.02991,-3.58634 h -5.2e-4 c -0.0127,-0.006 -0.0179,-0.0142 -0.031,-0.0207 l -5.1e-4,-5.2e-4 -0.39119,-0.19482 h -0.89142 c -0.67849,-0.0527 -1.53744,-0.0711 -2.651,-0.0765 z m -98.152667,5.1e-4 c -1.113549,-0.005 -2.48219,0.003 -4.180107,0.003 l -7.713741,-0.001 -0.247013,0.23978 -0.24753,0.23926 v 13.06432 c 0,9.46795 0.02336,13.15691 0.08475,13.40074 0.108139,0.42948 0.597841,0.97504 1.002006,1.11672 0.0091,0.003 0.288451,10e-4 0.300757,0.004 4.2e-5,1e-5 10e-4,-10e-6 10e-4,0 l 0.0646,0.0326 h 2.421558 c 0.98136,0.0309 1.077344,0.0698 5.458064,0.0718 l 7.946283,0.003 0.24236,-0.25011 0.24237,-0.25011 -0.0217,-2.46807 -0.0217,-2.46807 -0.19172,-0.37155 c -0.13585,-0.26384 -0.29677,-0.43737 -0.55552,-0.59738 l -0.36484,-0.22531 -4.295343,-0.0212 -4.295862,-0.0212 v -2.20814 -2.20761 h 3.874182 3.873663 l 0.24701,-0.23978 0.24753,-0.23926 v -2.31252 c 0,-2.60654 0.0539,-3.45374 -1.258832,-3.73363 l 0.298173,0.1757 -0.299206,-0.1757 c 2.96e-4,6e-5 7.7e-4,-7e-5 0.001,0 l -0.05271,-0.031 -0.174666,-0.002 c 0.0017,2.6e-4 0.0035,2.6e-4 0.0052,5.2e-4 l -3.314527,-0.0357 -3.484025,-0.0372 v -5.1e-4 l 3.484025,0.0377 3.309359,0.0346 c -0.719483,-0.11079 -1.755387,-0.10989 -3.365686,-0.11007 h -3.390491 v -1.87327 -1.87327 h 4.435905 4.435901 l 0.24702,-0.23926 0.24701,-0.23978 v -2.312 c 0,-2.24269 0.20655,-3.18361 -1.02836,-3.58583 -3.7e-4,-1.9e-4 -6.6e-4,-3.3e-4 -10e-4,-5.2e-4 -0.0132,-0.007 -0.0185,-0.0144 -0.032,-0.0212 l -0.26149,-0.12971 -0.1297,-0.0651 h -0.891422 c -0.678478,-0.0527 -1.536935,-0.0711 -2.650484,-0.0765 z m -72.958854,0.002 -0.247014,0.23978 -0.247013,0.23926 v 13.06432 c 0,9.46795 0.02284,13.15691 0.08423,13.40074 0.108139,0.42948 0.597841,0.97504 1.002006,1.11672 v 5.2e-4 c 0.0097,0.003 0.289218,10e-4 0.302308,0.004 l 0.06408,0.032 h 2.232422 c 0.924997,0.0314 1.042497,0.0703 5.197616,0.0723 l 7.4967,0.003 0.243913,-0.25166 0.243912,-0.25166 -0.02377,-2.53938 c -0.03819,-4.05851 0.236083,-3.85041 -5.069975,-3.85041 h -3.606498 v -9.95392 c 0,-7.2421 -0.02327,-10.02338 -0.08527,-10.20868 -0.140052,-0.41829 -0.436102,-0.74698 -0.842842,-0.93637 l -0.38344,-0.17881 -3.180684,-5.1e-4 z m 20.379634,0 -0.247013,0.23978 -0.247014,0.23926 v 13.16096 c 0,9.63965 0.02283,13.22968 0.08527,13.41623 0.140044,0.41829 0.436102,0.74699 0.842842,0.93638 l 0.382923,0.17777 3.181201,10e-4 3.180684,0.001 0.247013,-0.23977 0.247014,-0.23927 v -13.06431 c 0,-14.48377 0.03469,-13.54029 -0.517798,-14.10974 -0.50078,-0.51571 -0.516999,-0.51827 -4.048848,-0.51883 z m 117.604187,0 -0.22427,0.6196 c -1.98882,5.49637 -4.45952,15.95085 -5.67046,23.99389 -0.28156,1.87008 -0.0189,2.99366 0.79427,3.39617 l 5.2e-4,5.2e-4 c 0.32137,0.15945 0.39469,0.1622 3.59564,0.16226 l 3.2675,5.2e-4 0.0507,-0.7307 c 0.0911,-1.32168 0.5118,-5.24666 0.6103,-5.69423 l 0.0331,-0.15296 c 0.0163,-0.009 0.2794,-0.008 0.34158,-0.016 3.8e-4,-5e-5 0.002,5e-5 0.002,0 h 1.71927 c 1.13248,0 2.05879,0.0158 2.05879,0.0351 0,1.64809 0.3607,3.6523 0.79272,4.96817 v 5.2e-4 c 0.0231,0.0868 0.044,0.34677 0.0692,0.41858 v 5.1e-4 c 0.0882,0.2512 0.19181,0.41737 0.32867,0.54881 0.0179,0.0172 0.0496,0.0288 0.0687,0.045 -2.1e-4,-2.9e-4 -3.2e-4,-7.9e-4 -5.2e-4,-10e-4 0.0635,0.0537 0.1301,0.1034 0.20515,0.15193 -0.0747,-0.0482 -0.14137,-0.0974 -0.20463,-0.15089 0.0656,0.0918 0.13173,0.27201 0.19585,0.3116 l 0.36897,0.2279 3.31814,0.0207 3.31866,0.0212 0.26304,-0.28319 c 0.32963,-0.3546 0.34109,-0.11374 -0.14625,-3.08302 -1.46757,-8.94192 -3.13628,-16.33332 -5.01726,-22.22448 -0.51135,-1.60151 -0.82019,-2.12864 -1.40715,-2.40192 l -0.39223,-0.18294 -4.17028,-5.1e-4 z m -76.721411,0.14935 7.540108,0.004 c 2.564067,10e-4 4.257965,0.004 5.403805,0.0181 -1.145857,-0.0144 -2.839833,-0.0163 -5.403805,-0.0176 l -7.540108,-0.004 -0.271818,0.30127 -0.272335,0.30024 0.272335,-0.30127 0.271818,-0.30024 z m 111.791111,0.0398 c 1.44622,0.0412 1.95579,0.13084 2.27273,0.37259 0.0969,0.0739 0.16093,0.14717 0.22892,0.22221 -0.35891,-0.37634 -1.11358,-0.53521 -2.50165,-0.5948 z m -152.440309,0.0274 2.951757,0.0232 -2.951757,-0.0227 -0.127641,0.1235 z m 138.848369,0.008 -0.21859,0.2191 -0.21911,0.2186 0.21859,-0.21911 z m -19.57348,0.0114 c 0.44593,-8.8e-4 1.00735,0.001 1.71359,0.005 -1.64619,0.006 -3.35043,0.028 -3.39514,0.11213 0.0459,-0.0863 0.34375,-0.11415 1.68155,-0.11678 z m 3.31918,0.0248 c 1.57321,0.0111 2.69842,0.0326 3.0732,0.12092 -0.24772,-0.0705 -1.68954,-0.098 -3.0732,-0.12092 z m -66.76078,0.016 c 0.25598,0.0439 0.42734,0.0991 0.57309,0.1819 -0.1454,-0.0824 -0.31668,-0.13705 -0.57103,-0.18087 z m -15.516887,0.0754 -0.284221,0.2775 v -5.2e-4 z m 85.564807,0.0858 c 0.17035,0.0741 0.29384,0.17 0.43925,0.32401 0.30924,0.32755 0.74556,1.44624 1.2392,2.99775 -0.64419,-1.95246 -1.19107,-3.03158 -1.67845,-3.32176 z m -69.47432,0.0212 c 0.0483,0.0275 0.0942,0.0578 0.13901,0.092 0.0703,0.0536 0.13251,0.10433 0.18759,0.15606 -0.0551,-0.0516 -0.11732,-0.10195 -0.18759,-0.15554 -0.0449,-0.0343 -0.0905,-0.065 -0.13901,-0.0925 z m 32.70188,0.19999 h 5.2e-4 v 2.31148 z m 49.3019,0.004 5.2e-4,12.94908 c 2.1e-4,6.18986 0.0153,9.58004 0.0424,11.205 -0.038,-1.74902 -0.0429,-4.88986 -0.0429,-11.205 z m -81.63274,0.29869 h 5.2e-4 l 0.22531,0.32453 0.0212,2.33526 0.0217,2.33526 -0.22324,0.24339 -0.22325,0.2434 h -5.1e-4 l 0.22324,-0.2434 0.22272,-0.24339 -0.0212,-2.33526 -0.0212,-2.33526 z m 22.51594,0.0522 c 1.91406,0.95556 3.11652,2.59057 3.64215,4.87102 -0.5864,-2.11666 -1.80442,-3.95357 -3.64215,-4.87102 z m -14.91072,0.18706 c -0.0218,0.59758 -0.0393,1.94929 -0.0527,3.73363 0.0134,-1.78462 0.0309,-3.13612 0.0527,-3.73363 z m 44.9063,0.0599 5.2e-4,5.2e-4 c 0.0567,0.23112 0.0875,0.53862 0.10439,0.96945 -0.017,-0.43096 -0.0482,-0.73885 -0.10491,-0.96997 z m 7.6786,0.51005 c -0.33939,0.98122 -0.67969,2.06312 -1.01905,3.21892 0.34204,-1.16966 0.68335,-2.2495 1.01905,-3.21892 z m 38.22558,2.02778 5.2e-4,2.18695 -5.2e-4,5.1e-4 -0.18035,0.20981 -0.0971,0.11317 0.0966,-0.11317 0.18087,-0.20981 z m -45.55536,0.17777 c 0,0.007 5.2e-4,0.006 5.2e-4,0.0129 v 2.27428 h -5.2e-4 v -2.27428 z m -87.070138,1.7756 c 0.729585,-0.006 1.747633,0.12773 2.122868,0.33745 0.723805,0.40459 0.900272,1.84977 0.652157,3.02668 0.165726,-1.17826 -0.04974,-2.68994 -0.652157,-3.02668 -0.142239,-0.0795 -0.502485,-0.1044 -0.778764,-0.15865 -3.62e-4,-7e-5 -7.04e-4,7e-5 -0.001,0 -0.04033,-0.008 -0.07895,-0.0192 -0.12144,-0.0253 -2.83e-4,-4e-5 -7.85e-4,4e-5 -0.001,0 -0.535009,-0.0921 -1.071121,-0.17583 -1.513085,-0.14211 0.08973,-0.007 0.188262,-0.0105 0.292488,-0.0114 z m 1.168921,0.0341 c 0.272103,0.0294 0.64864,0.0439 0.748275,0.0868 0.11861,0.0512 0.205902,0.1512 0.304374,0.23461 -0.234882,-0.13066 -0.602767,-0.23884 -1.052649,-0.32143 z m 49.566487,0.004 c 0.60985,0.0236 1.26066,0.10547 1.51722,0.231 -0.0923,-0.0452 -0.3731,-0.0494 -0.54726,-0.0827 -3.2e-4,-6e-5 -7.4e-4,6e-5 -10e-4,0 -0.0373,-0.008 -0.0649,-0.025 -0.10387,-0.032 -0.0321,-0.006 -0.0866,0.003 -0.11989,-0.002 -4.3e-4,-6e-5 -0.001,7e-5 -0.002,0 -0.26702,-0.038 -0.45044,-0.10077 -0.7431,-0.11421 z m 0.1788,0.14521 c 1.62862,0.0466 2.21258,0.89935 2.21433,3.02359 10e-4,1.62747 -0.48633,2.65433 -1.42317,2.99672 -0.20464,0.0748 -0.68316,0.13899 -1.21749,0.16329 l -0.88005,0.0403 v -3.07371 -3.0732 l 0.54312,-0.0491 c 0.27664,-0.0249 0.5306,-0.0346 0.76326,-0.0279 z m -50.600015,0.0103 c 1.878265,-0.0438 2.569989,0.86675 2.30942,2.98948 -0.142154,1.15804 -0.497055,1.55149 -1.536341,1.7017 v -5.1e-4 c -0.241843,0.035 -0.639077,0.0558 -0.963765,0.0646 0.614348,-0.0149 1.300258,-0.01 1.57148,-0.0925 -0.411566,0.1252 -2.290674,0.23614 -2.381767,0.14056 0.02339,0.0245 0.407351,-0.0368 0.611333,-0.0362 l -0.592729,0.002 v -2.34973 -2.34921 l 0.590661,-0.0491 c 0.135833,-0.0113 0.26649,-0.0183 0.391708,-0.0212 z m -0.38964,4.76715 h 0.02584 c 0.05177,-1.3e-4 0.114787,-0.0103 0.173116,-0.0119 -0.07778,0.002 -0.132568,0.0121 -0.198954,0.0119 z m 86.921305,-4.4266 v 5.1e-4 l -0.25063,0.19121 -0.25011,0.19068 0.25011,-0.1912 z m 40.98407,0.23254 h 4.40386 v 5.2e-4 h -4.40386 c -0.98667,0 -1.7555,3.3e-4 -2.35438,0.003 0.59888,-0.003 1.36771,-0.004 2.35438,-0.004 z m -102.677458,0.0439 h 5.17e-4 c -3.28e-4,8.6e-4 -1.92e-4,0.013 -5.17e-4,0.014 3.35e-4,-9.7e-4 -3.38e-4,-0.0131 0,-0.014 z m 43.374098,0.13591 c 0.46797,0.0281 1.04611,0.0343 1.76061,0.045 l 2.50993,0.0377 -2.50993,-0.0372 c -0.7145,-0.0106 -1.29264,-0.0172 -1.76061,-0.0455 z m -0.65164,0.0346 c 0.20254,0.0263 0.46184,0.043 0.83302,0.0553 0.37119,0.0123 0.85425,0.0203 1.5043,0.03 l 2.47272,0.0372 -2.4722,-0.0367 c -0.65019,-0.01 -1.13354,-0.018 -1.50482,-0.0305 -0.37128,-0.0125 -0.6305,-0.029 -0.83302,-0.0553 z m -65.045126,0.36535 c 0.221262,0.74863 0.193839,1.65941 -0.05943,2.41432 0.17827,-0.73965 0.215163,-1.68625 0.05943,-2.41432 z m 77.983356,0.19534 -0.0362,9.9136 -0.0377,10.35131 -0.24495,0.26923 -0.24494,0.27027 -3.0515,-0.002 c -0.009,0 -0.008,-5.1e-4 -0.0171,-5.1e-4 0.009,0 0.007,-10e-6 0.016,0 l 3.05149,0.002 0.24547,-0.26975 0.24494,-0.26975 0.0377,-10.35079 0.0362,-9.91257 c 1.5e-4,-4.5e-4 3.7e-4,-6.1e-4 5.2e-4,-10e-4 z m 18.47742,1.56217 c 0.016,-0.12203 0.32327,1.31817 0.78083,3.65715 0.27007,1.38051 0.50987,2.60279 0.53227,2.71611 l 0.0331,0.16846 c -0.0205,0.0186 -0.29207,0.0227 -0.41031,0.0377 -2.9e-4,4e-5 -7.7e-4,-4e-5 -0.001,0 h -0.89814 c -0.95928,0 -1.31723,-0.0243 -1.31723,-0.0884 0,-0.14663 0.74391,-3.98848 1.01751,-5.25446 0.14078,-0.65143 0.25903,-1.20802 0.26303,-1.23662 z m -49.88481,1.61231 c -0.007,0.91705 -0.003,1.63393 0.0258,1.70946 h -5.2e-4 c -0.029,-0.0755 -0.0328,-0.79241 -0.0253,-1.70946 z m -47.281866,0.006 c -0.10131,0.0951 -0.208313,0.17728 -0.327112,0.22479 0.08123,-0.0247 0.172014,-0.0477 0.238228,-0.0749 -0.140667,0.10216 -0.285736,0.19711 -0.455786,0.23358 -0.08494,0.0182 -0.325328,-0.006 -0.514697,0.007 0.259808,-0.0409 0.473306,-0.0902 0.664042,-0.14366 -0.12615,0.0322 -0.451254,0.0428 -0.707967,0.0641 0.469909,-0.0767 0.867484,-0.18298 1.103292,-0.31058 z m -0.395325,0.2465 c 0.0046,-0.001 0.01767,-0.001 0.0217,-0.003 0.01598,-0.005 0.03098,-0.0129 0.04651,-0.0191 -0.02328,0.007 -0.04373,0.0148 -0.06821,0.0217 z m 23.542749,-0.24598 c 0.06714,0.0672 0.935677,0.09 3.428214,0.093 2.495739,0.002 3.680415,-0.0281 4.247286,0.4191 0.08721,0.0688 0.159652,0.14908 0.220142,0.24236 -0.0605,-0.0932 -0.132888,-0.17362 -0.220142,-0.24236 -0.567146,-0.44681 -1.752449,-0.41553 -4.247802,-0.41806 -2.492537,-0.002 -3.360528,-0.0263 -3.427698,-0.0935 z m -0.06821,0.063 c 3.5e-4,3.8e-4 1.66e-4,0.0131 5.17e-4,0.0134 h -5.17e-4 c -3.4e-4,-2.8e-4 3.39e-4,-0.0131 0,-0.0134 z m 98.094272,0.0641 3.52123,0.0377 -3.52123,-0.0372 z m 3.52174,0.0377 3.33158,0.0351 c 10e-4,1.8e-4 0.002,3.5e-4 0.004,5.2e-4 z m 3.57653,0.0687 c 2.9e-4,7e-5 0.001,-6e-5 0.002,0 l 0.27698,0.15607 z m -97.445728,0.43512 h 5.17e-4 c 0.448701,0.45268 0.398941,1.33683 0.398941,3.07216 v 2.20504 l -0.21911,0.21859 0.21859,-0.21911 v -2.20452 c 0,-1.73533 0.0498,-2.61948 -0.398938,-3.07216 z m 27.490828,0.19689 c -0.0434,0.22296 -0.10934,0.42609 -0.16537,0.63717 0.0631,-0.20964 0.11559,-0.4223 0.16537,-0.63717 z m -0.47026,1.56683 c -0.22112,0.56524 -0.50042,1.08131 -0.83251,1.55132 0.33209,-0.47772 0.60316,-1.00224 0.83251,-1.55132 z m 31.36553,0.51986 c -0.065,0.24523 -0.17418,0.75306 -0.29921,1.35909 0.13463,-0.64748 0.24436,-1.15204 0.29921,-1.35909 z m -114.404901,0.093 c 0.0011,7.36269 0.02967,10.24132 0.06821,11.40447 -0.134635,-2.09085 -0.06728,-5.54086 -0.06821,-11.40447 z m -0.151412,0.0904 c 2.26e-4,8.00448 0.02839,10.55217 0.07131,11.59619 -0.145721,-2.08492 -0.07111,-5.59503 -0.07131,-11.59619 z m 0.07441,0.005 c 0,6.48588 0.0035,9.1001 0.04754,10.88874 -0.09905,-2.12987 -0.04754,-5.42674 -0.04754,-10.88874 z m 31.150554,0.33745 c 1.474456,0.98653 2.299304,2.24669 2.671154,3.96771 -0.440695,-1.60574 -1.309168,-3.05643 -2.671154,-3.96771 z m 123.481349,0.0946 0.0222,2.34559 -5.1e-4,5.2e-4 z m -98.00125,0.0522 0.0238,2.2226 -5.2e-4,5.2e-4 z m 57.44972,1.19114 c -0.42494,2.10878 -1.03783,5.39995 -1.46296,7.85275 0.0942,-0.55261 0.13427,-0.90618 0.25839,-1.60197 0.32037,-1.79589 0.83339,-4.43729 1.20457,-6.25078 z m 6.88744,0.21704 c 0.0285,0.0454 0.7349,0.002 1.44022,0.006 0.002,-4e-5 0.002,4e-5 0.005,0 0.0337,-6e-4 0.036,0.004 0.0698,0.003 0.0159,-3.5e-4 0.0157,-0.003 0.0315,-0.003 0.001,-2e-5 0.001,3e-5 0.002,0 0.70638,10e-4 1.41433,0.0511 1.44229,0.006 v 5.1e-4 h -5.2e-4 c -0.0599,0.0937 -2.93233,0.0819 -2.99051,-0.0124 z m -98.646695,1.05885 h 5.17e-4 c -0.01883,0.0297 -0.03431,0.37641 -0.04547,0.88264 -0.02233,1.01245 -0.02796,2.66327 -0.01292,3.69434 0.0075,0.51554 0.02021,0.87614 0.03876,0.92449 -0.01855,-0.0484 -0.03119,-0.40895 -0.03876,-0.92449 -0.01514,-1.03107 -0.0093,-2.68189 0.01292,-3.69434 0.01112,-0.50623 0.02613,-0.8529 0.04496,-0.88264 z m 0.15658,0.0439 0.955497,0.0465 c 2.371243,0.1165 3.020432,0.7604 2.922302,2.89749 -0.06167,1.34294 -0.456579,2.01553 -1.344104,2.2872 -0.243147,0.0744 -0.812968,0.13887 -1.465543,0.16537 l -0.780314,0.0315 c -5.02e-4,-7e-5 -0.0016,7e-5 -0.0021,0 -0.06926,-0.0102 -0.271135,-4.3e-4 -0.285771,-0.017 v 5.1e-4 c -0.0019,-0.002 -0.03583,1.2e-4 -0.03669,-0.002 -0.02229,-0.0577 -0.03101,-1.30197 -0.02015,-2.76469 -0.01086,1.46244 -0.0015,2.70604 0.02067,2.76417 8.52e-4,0.002 0.03432,3e-5 0.03617,0.002 v -2.69131 z m 25.962756,0.30282 c -0.09784,0.0161 -0.131464,0.0372 -0.141593,0.0636 -0.06682,0.17413 -0.05323,4.5485 0.01447,4.65502 -1.1e-5,-2e-5 -0.001,1e-5 -0.001,0 -0.0677,-0.10652 -0.08077,-4.4814 -0.01395,-4.65553 0.01017,-0.0265 0.04375,-0.0471 0.14211,-0.0631 z m 98.227599,0.0749 c -0.0981,0.0161 -0.13145,0.0371 -0.1416,0.0636 v -5.1e-4 c 0.0102,-0.0265 0.0435,-0.0471 0.1416,-0.063 z m -73.12835,1.33119 h 5.1e-4 l 0.5023,0.9741 c 0.51845,1.00575 0.98468,1.99843 1.41025,3.00343 -0.42557,-1.005 -0.89231,-1.99768 -1.41077,-3.00343 z m -0.82011,0.0744 h 0.37104 0.37465 v 5.2e-4 h -0.37465 -0.37104 z m 40.65695,0.0455 c -0.28055,1.4422 -0.55756,2.93037 -0.82992,4.47569 0.0495,-0.28518 0.0575,-0.41837 0.11368,-0.73742 0.22604,-1.28367 0.47489,-2.49776 0.71624,-3.73827 z m 33.10702,0.90743 c 0.004,1.08449 0.024,2.15742 0.0579,2.21072 h -5.2e-4 c -0.0339,-0.0533 -0.0539,-1.12634 -0.0574,-2.21072 z m -21.75267,2.10065 h 5.1e-4 c 0.0716,0.093 0.10146,0.30585 0.39636,2.82825 0.0826,0.70657 0.14491,1.27725 0.22118,1.73788 -0.0764,-0.46068 -0.13911,-1.03147 -0.2217,-1.73788 -0.29491,-2.52241 -0.32475,-2.73525 -0.39635,-2.82825 z m -1.83555,0.0568 c 0.85812,-0.002 1.63671,0.0201 1.66966,0.0734 v 5.1e-4 c -0.0577,-0.0933 -2.39961,-0.0915 -3.45353,-0.0294 0.45168,-0.0267 1.14028,-0.0427 1.78387,-0.0445 z m 9.32191,0.031 c 0.12648,0.70607 0.27847,1.40287 0.39584,2.10375 0.17902,1.06899 0.19095,1.19877 0.28216,1.75235 -0.23656,-1.41783 -0.45592,-2.61322 -0.678,-3.8561 z m -83.702385,0.006 4.233334,0.0377 -4.233334,-0.0372 z m 98.153185,0 4.23333,0.0377 -4.23333,-0.0372 z m -98.280309,0.0165 c 0.04418,0.0696 1.064846,0.096 4.288627,0.11214 2.709032,0.0136 4.079292,-0.0257 4.770772,0.3297 -0.69164,-0.35526 -2.062118,-0.31512 -4.771288,-0.32867 -3.223782,-0.0161 -4.243881,-0.0431 -4.288111,-0.11265 z m 7.674467,0.0698 c 0.499202,0.0187 0.798682,0.0465 1.002522,0.092 -0.20385,-0.0455 -0.50331,-0.0732 -1.002522,-0.092 z m -30.35887,0.004 c -0.08699,0.0659 -0.182198,0.12288 -0.286288,0.17208 -0.104089,0.0492 -0.217056,0.0906 -0.338997,0.12454 -0.286826,0.0799 -0.932776,0.13725 -1.513603,0.15762 0.580833,-0.0204 1.226777,-0.0783 1.513603,-0.15813 0.121941,-0.034 0.234907,-0.075 0.338997,-0.12403 0.10409,-0.0491 0.199304,-0.10622 0.286288,-0.17208 z m -30.45964,0.0269 c 0.131925,0.0679 0.241084,0.14246 0.337447,0.23203 -0.09636,-0.0897 -0.205522,-0.16411 -0.337447,-0.23203 z m 151.199562,0.0331 4.23333,0.0377 -4.23333,-0.0372 z m -120.583343,0.0625 v 5.1e-4 c -0.153496,0.13939 -0.327003,0.24682 -0.518831,0.31781 v 5.2e-4 c -0.475233,0.1758 -3.064607,0.25421 -3.125907,0.0946 -8e-6,-2e-5 7e-6,-0.001 0,-0.001 0.06127,0.15963 2.650674,0.0813 3.125907,-0.0946 0.19183,-0.071 0.365335,-0.17844 0.518831,-0.31781 z m 31.587733,0.24598 c 0.11523,0.0593 0.21141,0.12961 0.29198,0.2129 -0.0805,-0.0831 -0.17688,-0.15374 -0.29198,-0.2129 z m 98.39452,0.16278 c 0.0697,0.0624 0.12907,0.13282 0.17931,0.21239 -0.0503,-0.0796 -0.1096,-0.15 -0.17931,-0.21239 z m -0.014,0.13952 h 5.2e-4 c 0.0295,0.0336 0.0564,0.0696 0.0811,0.10749 -0.0248,-0.0379 -0.0522,-0.0739 -0.0817,-0.10749 z m -98.14491,0.008 c 0.059,0.068 0.10836,0.14431 0.14934,0.22996 -0.041,-0.0857 -0.0904,-0.16198 -0.14934,-0.22996 z m -23.932908,0.51573 c -0.07058,0.2673 -0.145651,0.53105 -0.240812,0.77825 0.103995,-0.24906 0.16185,-0.51774 0.240812,-0.77825 z m 24.242448,0.34882 c 0.0583,0.50878 0.0364,1.20042 0.0351,2.14095 l -0.004,2.20038 h -5.2e-4 l 0.004,-2.2009 c 0.001,-0.94052 0.0236,-1.63165 -0.0346,-2.14043 z m -24.595915,0.67954 c -0.455487,1.05392 -1.138786,1.92151 -2.067574,2.58796 0.912491,-0.6617 1.596032,-1.56416 2.067574,-2.58796 z m 78.808625,1.27899 c -0.0983,1.08183 -7e-5,1.86161 0.34778,2.31718 -0.40759,-0.39154 -0.47872,-1.14479 -0.34778,-2.31718 z m -116.176887,0.0837 5.17e-4,2.25154 h -5.17e-4 z m 116.230117,0.50695 c -0.0226,0.75937 0.0996,1.27033 0.35812,1.61695 -0.29169,-0.31921 -0.39813,-0.83736 -0.35812,-1.61695 z m -35.41024,0.34313 c 0.21103,0.62278 0.37441,1.04349 0.61546,1.32808 h -5.1e-4 c -0.24106,-0.28458 -0.40406,-0.70529 -0.61495,-1.32808 z m -11.69283,0.85628 c 0.13198,0.38731 0.47722,0.69239 0.91209,0.85731 -0.5744,-0.13715 -0.75245,-0.3888 -0.91209,-0.85731 z m 73.9929,0.0574 c 0.14372,0.33711 0.43118,0.62192 0.82011,0.77773 -0.26709,-0.0807 -0.42186,-0.18722 -0.58085,-0.3607 -0.10519,-0.11483 -0.18215,-0.17768 -0.23926,-0.41703 z m -159.205787,0.0625 c 0.192431,0.38056 0.429164,0.58464 0.849044,0.73898 -0.245791,-0.0658 -0.393527,-0.15158 -0.536918,-0.28629 -0.144592,-0.13584 -0.240562,-0.21334 -0.312126,-0.45269 z m 116.236317,0.0429 c 0.18784,0.34902 0.40771,0.54468 0.75603,0.72088 -0.36418,-0.13327 -0.54963,-0.33736 -0.75603,-0.72088 z m -31.15417,0.0579 c 0.16389,0.33281 0.449,0.57613 0.78858,0.74311 -0.40494,-0.13454 -0.59371,-0.34734 -0.78858,-0.74311 z m 31.08441,0.0243 c 0.18505,0.34097 0.40358,0.53524 0.74414,0.709 -0.35539,-0.13262 -0.54224,-0.33437 -0.74414,-0.709 z m -55.008016,0.0419 c 0.138144,0.19556 0.304141,0.34534 0.489893,0.45889 -0.218023,-0.10564 -0.340396,-0.24552 -0.489893,-0.45889 z m -0.173116,0.108 c 0.02451,0.0468 0.05181,0.0934 0.08578,0.13798 h -5.17e-4 c -0.03393,-0.0445 -0.06087,-0.0912 -0.08527,-0.13798 z m -60.922379,0.0279 c 0.06603,0.0858 0.140533,0.16462 0.222208,0.23616 h -5.16e-4 c -0.08168,-0.0715 -0.155794,-0.15039 -0.221692,-0.23616 z m 85.423211,0.14986 c 0.15561,0.15905 0.34597,0.28781 0.58601,0.38292 -0.16382,-0.0521 -0.29699,-0.11884 -0.43925,-0.22014 -0.0589,-0.0419 -0.0957,-0.11134 -0.14676,-0.16278 z m 38.2881,0.0305 -0.23564,0.21084 -0.23513,0.21084 -2.82722,-0.008 c -1.55501,-0.004 -2.92839,-0.0333 -3.05201,-0.0651 h -5.2e-4 v -0.001 c 0.12363,0.0318 1.49701,0.0616 3.05201,0.0656 l 2.82722,0.008 0.23565,-0.21084 z m 29.38684,0.004 c -0.0288,0.0474 -0.065,0.0935 -0.11627,0.15141 0.0547,-0.0622 0.0906,-0.10881 0.11627,-0.15141 z m -60.4268,5.1e-4 -0.27647,0.28319 -0.14005,0.14366 0.13953,-0.14366 z m -71.842132,0.0682 c 0.163533,0.10649 0.316209,0.22673 0.531751,0.26923 v 5.2e-4 c 0.174989,0.0346 1.567986,0.0671 3.093868,0.0713 -0.547402,-0.001 -1.005068,0.0216 -1.425753,0.0398 0.533041,0.0111 0.654281,0.0329 1.358057,0.0346 -0.814774,-0.002 -1.279939,0.0118 -1.823662,0.0253 0.558216,0.0174 0.703544,0.0464 1.773535,0.0491 l 3.03134,0.008 -5.17e-4,5.2e-4 -3.031339,-0.008 c -1.508268,-0.004 -2.46697,0.11987 -3.128491,-0.0863 0.02227,0.004 0.240729,0.003 0.276468,0.007 -0.07684,-0.0133 -0.130231,-0.0546 -0.199471,-0.0754 0.01859,0.003 0.216503,0.004 0.249081,0.007 -0.28455,-0.0529 -0.518381,-0.15863 -0.704867,-0.34261 z m 2.199866,0.38085 c -0.586787,-0.0123 -1.299475,-0.019 -1.494999,-0.0377 0.385977,0.0717 0.88494,0.0641 1.494999,0.0377 z m -2.261361,-0.29249 c 0.08562,0.0582 0.157693,0.10356 0.237195,0.14263 -0.07787,-0.0441 -0.170746,-0.0799 -0.237195,-0.14263 z m 84.196927,0.0191 -0.22014,0.24133 h -5.2e-4 z m -89.18887,0.002 -0.246497,0.23978 -7.152018,-0.003 c -0.06954,-3e-5 -0.05264,-10e-4 -0.120923,-10e-4 0.06458,3e-5 0.05464,4.8e-4 0.120406,5.1e-4 l 7.152019,0.003 z m 62.00035,0.0233 -0.24029,0.2155 h -0.001 z m -57.077136,0.0238 c 0.0579,0.0433 0.112018,0.086 0.167948,0.11782 -0.05517,-0.0362 -0.118902,-0.0713 -0.167948,-0.11782 z m 125.541176,0.13591 0.40618,0.20567 h 3.13004 3.13004 v 5.1e-4 h -3.13004 -3.13004 z m -12.03958,0.006 c 0.0717,0.005 0.14367,0.009 0.2341,0.0134 -0.0787,-0.004 -0.16021,-0.008 -0.2341,-0.0134 z m -133.406325,0.0181 c 0.227278,0.0811 1.67422,0.10035 7.553028,0.10335 l 7.271907,0.004 v 5.2e-4 l -7.271907,-0.004 c -5.878799,-0.003 -7.325758,-0.0223 -7.553028,-0.10336 z m 133.773235,10e-4 c 0.41428,0.0152 1.00474,0.0247 1.95027,0.0264 -0.77473,-0.001 -1.4107,-0.003 -1.95027,-0.0264 z m 25.91314,0.0486 c 0.81905,0.0398 2.85301,0.0515 7.55923,0.0537 l 7.74578,0.004 v 5.1e-4 l -7.74578,-0.004 c -4.70621,-0.002 -6.74018,-0.0143 -7.55923,-0.0543 z m -73.37743,0.031 c 0.45486,0.0145 1.10039,0.0224 2.08153,0.0238 -0.96982,-0.001 -1.61304,-0.007 -2.08153,-0.0238 z m 52.50894,0.008 v 5.2e-4 c -0.024,0.073 -0.72465,0.0935 -3.16828,0.0935 2.44363,0 3.14428,-0.0212 3.16828,-0.0941 z m -118.127675,0.007 c 0.25496,0.0442 0.731224,0.0386 1.079004,0.03 -0.339617,-0.0106 -0.939513,-0.0142 -1.079004,-0.03 z m 67.700775,0.009 2.84376,0.003 -5.2e-4,5.2e-4 z m 31.14694,0.001 c 0.009,0 0.008,-1e-5 0.0171,0 l 2.98793,0.002 v 5.2e-4 l -2.98793,-0.002 c -0.009,0 -0.008,-5.1e-4 -0.0171,-5.1e-4 z"
         sodipodi:nodetypes="cscsscccccccccccccsccssscccccsscccccccccccssccccccccsssccssccssccccccccccccccccccccccccccscccccccccsscscccssccccccccccccccccccccccccscccccccccccccccccccscccccccccccccsscsccccccccccccccccccccsccccccccccccccccccccscccccccccccssccccccccccscsccccccccssccccccscscccscccccccscssccccscccccccccsscccccccccccccccscccccccccccccccccccccccccccccsccsscssscccccccsccccccccccccccccccccccccccccccccccccscccccscsscsccccsccssccsccscccscscccccsscscccccccccscccccsccccccccccsccccccccccsccscccscccccccccccccccccsccsccscsssccsccsscccsccccccccccccscscccccccccccccccccccccscccsccccccccccccccccccccccccccccccccsccsccsccccccccsscssscccsscccccccccccssscsssccccccccccccccccccccscsccssccscscscccsscscccccccccccscsccccccsccccccccccccccccscssccccccccccccccccccsccccssccccccccccccccccccccccscccscccccccccccccsccssccccccsccccccccccccccccccccccccccccccsccccsccccccccccccccccccccccccccccccccccccccccccccccccccccccccccccccccccccsccccss" /><path
         style="fill:#e7641b;fill-opacity:1;stroke-width:0.283186"
         d="m 53.695431,227.29465 v 2.73472 2.73472 h 57.805769 57.80526 v -2.73472 -2.73472 H 111.5012 Z"
         id="path31"
         sodipodi:nodetypes="ccccccccc" /><path
         id="path30"
         style="fill:#483a1f;fill-opacity:1;stroke-width:0.283186"
         d="m 117.14634,48.270955 c -0.41292,-0.02264 -0.862,0.05192 -1.3131,0.24598 l -0.38654,0.166398 -0.12764,0.574125 c -1.28619,5.786309 -6.0969,9.327001 -13.34286,9.82059 -2.28098,0.155387 -2.788102,1.20094 -1.980753,4.085022 2.406563,8.596984 3.098913,22.838196 2.063953,42.45116 -0.0598,1.13326 -0.12963,2.31887 -0.15503,2.63498 l -0.046,0.57464 -0.7984,-0.68885 c -1.720759,-1.4858 -3.748308,-2.998 -5.296833,-3.95066 l -0.781348,-0.48059 -0.0015,-2.21072 C 94.969685,90.180578 93.662027,74.729804 91.896716,65.080782 91.439497,62.581633 91.054881,62.302974 88.011682,62.268034 81.124608,62.189023 76.384161,59.168772 74.606816,53.72747 l -0.220142,-0.673861 -0.473873,-0.166398 c -2.268692,-0.794064 -3.547284,0.752431 -2.588472,3.130558 2.610266,6.474231 6.586372,10.454823 11.339876,11.352279 0.09002,0.01699 0.176794,0.103991 0.198954,0.199471 0.02161,0.09316 0.192689,0.759365 0.379822,1.48053 1.740431,6.707026 2.169539,16.975366 1.212846,29.019934 -0.119428,1.50359 0.02769,1.344805 -1.052132,1.135848 -12.541433,-2.426977 -21.983408,2.844539 -25.80256,14.405319 -2.680835,8.11506 -1.006418,15.2215 5.101498,21.65088 4.725305,4.97398 4.600405,9.53822 -0.40411,14.75827 -8.367754,8.72814 -8.635574,16.89521 -0.946712,28.87162 1.50908,2.3506 2.245474,3.74578 2.827734,5.3573 0.163786,0.45331 0.299474,0.76508 0.301274,0.69298 0.0087,-0.30025 0.366433,-0.15412 0.459403,0.18759 0.500218,1.83859 0.575999,3.35681 0.147795,2.9595 -0.08259,-0.0766 -0.09186,-0.0689 -0.05219,0.0434 0.02671,0.0755 0.04857,0.1923 0.04857,0.2589 0,0.0944 0.02003,0.10109 0.08992,0.031 0.18507,-0.18506 0.284738,-0.0982 0.284738,0.24753 0,0.34575 -0.09967,0.43209 -0.284738,0.24701 -0.06994,-0.0699 -0.08992,-0.0628 -0.08992,0.0315 0,0.0667 -0.02193,0.18289 -0.04857,0.25839 -0.03966,0.1123 -0.03039,0.12088 0.05219,0.0439 0.204744,-0.18998 0.296106,-0.1069 0.296106,0.27079 0,1.5625 -1.156372,4.6367 -1.453142,3.86333 -0.02487,-0.0648 -0.0069,-0.19142 0.03979,-0.28112 0.137757,-0.26503 0.03263,-0.12845 -0.450618,0.58601 -0.814758,1.20457 -0.900066,1.27616 -1.840715,1.54357 -5.151635,1.46458 -8.436999,4.64837 -8.99945,8.72143 -1.116502,8.08534 3.779156,13.01304 13.115995,13.20178 6.853707,0.13855 13.953226,-4.25295 21.407479,-13.24105 l 0.278536,-0.33538 1.603003,0.5395 c 1.641767,0.55222 4.200978,1.49291 5.756237,2.11615 0.839788,0.33654 0.870616,0.34302 0.805636,0.17208 -0.09202,-0.24201 -0.09156,-0.24288 0.113688,-0.24288 0.294826,0 0.418062,0.0798 0.418062,0.27027 0,0.145 -0.03956,0.1789 -0.206188,0.1819 -0.165738,0.002 -0.132886,0.0297 0.168465,0.13901 1.090763,0.39554 5.074469,2.11201 8.279599,3.56774 6.14626,2.79153 11.19653,4.6011 16.5964,5.94693 4.23636,1.05585 8.11024,1.6501 12.9248,1.98282 0.85767,0.0592 6.30225,0.0392 7.30549,-0.0269 1.01761,-0.0671 1.55044,-0.11983 3.85868,-0.37982 8.63248,-0.97234 16.4262,-6.99617 19.62103,-15.166 l 0.32194,-0.82424 3.74034,-2.49132 c 4.56201,-3.03893 4.40506,-2.26099 1.06092,-5.27875 -1.47324,-1.32946 -2.87172,-2.60289 -3.10782,-2.83032 l -0.42892,-0.41393 -0.11834,-0.82423 c -1.69628,-11.83838 -11.95515,-20.94536 -23.58925,-20.94136 -11.00585,0.004 -16.51575,13.28125 -8.73694,21.05298 7.85304,7.84588 21.27321,2.09542 21.04006,-9.01547 l -0.0248,-1.19321 0.55138,0.59066 c 2.91966,3.12675 4.49985,6.40657 5.19349,10.78022 0.81939,5.16666 -1.38828,11.46259 -5.4405,15.51481 -3.42373,3.42373 -7.40761,5.16743 -12.74237,5.57796 -0.53572,0.0412 -1.19304,0.10736 -1.4609,0.14676 -2.9667,0.43671 -12.53286,-0.24533 -15.30139,-1.09089 -0.0797,-0.0243 -0.80702,-1.37817 -1.91048,-3.55534 -2.17156,-4.28456 -1.48059,-4.10469 -4.77903,-1.24437 l -2.62258,2.27428 -0.86145,-0.29455 c -2.25248,-0.77029 -5.42277,-2.06921 -8.91625,-3.65301 -0.92721,-0.42037 -2.3435,-1.05116 -3.14709,-1.40198 -0.80359,-0.35081 -1.48201,-0.65081 -1.50741,-0.66611 -0.0254,-0.0154 0.0465,-0.40773 0.15968,-0.8723 0.35584,-1.46027 0.79965,-3.60037 1.30949,-6.31434 1.17492,-6.25437 1.76851,-7.50868 6.32622,-13.36714 9.03279,-11.6107 9.12296,-22.27829 0.28164,-33.33595 l -0.85783,-1.07332 0.18087,-0.65009 c 6.38216,-22.94332 6.37932,-56.411781 -0.003,-82.756709 -0.22336,-0.92154 -0.23764,-1.040876 -0.12971,-1.075386 3.6687,-1.172271 8.23331,-7.220762 9.76168,-12.935128 0.33043,-1.235477 -0.58335,-2.180528 -1.82211,-2.248442 z M 77.529118,103.94353 c 1.882588,-0.0194 3.893239,0.21286 6.005835,0.7059 l 0.655257,0.15296 v 0.2527 c 0,0.98362 -1.12047,9.61344 -1.916162,14.75775 -0.302409,1.95515 -0.665995,3.90397 -1.114144,6.49935 0.06647,-0.26511 0.184802,-0.95142 0.174666,-1.07332 -0.0049,-0.0584 -0.03091,-0.005 -0.05736,0.11834 -0.02643,0.12363 -0.09103,0.22479 -0.14366,0.22479 -0.101238,0 -0.238478,0.17388 -0.236678,0.29972 6.2e-4,0.0412 0.03547,0.0164 0.07751,-0.0558 0.108123,-0.1856 0.234132,-0.16279 0.205672,0.0372 -0.01316,0.0928 -0.06354,0.16846 -0.111621,0.16846 -0.04808,0 -0.112751,0.0254 -0.143661,0.0563 -0.03088,0.0309 0.0023,0.0563 0.0739,0.0563 0.09205,0 0.123353,0.0492 0.106453,0.16846 -0.01317,0.0927 -0.06354,0.16847 -0.111621,0.16847 -0.04807,0 -0.112751,0.0254 -0.143661,0.0563 -0.03092,0.0309 0.0042,0.0563 0.07803,0.0563 0.05821,0 0.08802,0.0145 0.09922,0.0538 -0.0121,-0.0276 -0.04565,-0.0538 -0.101286,-0.0538 -0.07708,0 -0.112056,0.0582 -0.101286,0.16847 0.0091,0.0927 -0.0091,0.22752 -0.04031,0.29972 -0.03118,0.0721 -0.03717,0.1816 -0.01344,0.2434 0.02374,0.0619 0.0065,0.11265 -0.03824,0.11265 -0.04699,0 -0.06563,0.0809 -0.04496,0.18914 0.0027,0.0139 -0.0056,0.0173 -0.0041,0.031 -0.0038,-0.008 -0.0071,-0.001 -0.01085,-0.009 -0.06831,-0.16959 -0.0696,-0.16985 -0.05839,0.0269 0.0047,0.082 0.02776,0.1053 0.04858,0.12454 -0.0065,0.0151 0.0014,0.0529 -0.0083,0.0589 -0.03818,0.0236 -0.06254,0.11532 -0.05374,0.20412 0.0085,0.0888 -0.01016,0.22039 -0.04134,0.29249 -0.03109,0.0721 -0.03767,0.17964 -0.01499,0.23874 0.02277,0.0591 0.0096,0.11826 -0.02894,0.13126 -0.03857,0.013 -0.0788,0.19993 -0.0894,0.41599 -0.0106,0.21605 -0.04058,0.3935 -0.06615,0.39378 -0.04326,5e-4 -0.144164,0.54283 -0.181384,0.9741 -0.0088,0.10301 -0.03856,0.24157 -0.06615,0.30747 -0.02759,0.066 -0.04486,0.15059 -0.03876,0.18759 0.05353,0.30485 -0.0925,0.34485 -0.391707,0.25476 -0.06576,-0.0517 -0.287338,-0.18439 -0.716752,-0.40979 -2.75989,-1.44868 -4.553063,-3.17633 -5.912817,-5.69733 -0.30075,-0.55759 -0.355927,-0.58585 -0.183452,-0.21962 -0.442347,-0.86222 -0.800552,-1.7812 -1.038179,-2.78174 -0.302156,-1.27222 -1.571621,-2.64959 -2.214335,-2.40296 -0.05884,0.0226 -0.126546,0.008 -0.150896,-0.031 -0.02435,-0.0394 -0.118482,-0.0671 -0.208772,-0.0631 -0.142359,0.008 -0.145381,0.014 -0.02222,0.0455 0.11525,0.0296 0.122637,0.0496 0.03772,0.10697 -0.08099,0.0549 -0.07056,0.0673 0.04548,0.0558 0.08242,-0.008 0.217313,0.01 0.299723,0.0408 0.08243,0.0308 0.251023,0.0928 0.374654,0.13746 0.370177,0.13379 0.858035,0.51663 1.117761,0.87695 0.286637,0.39767 0.301408,0.43325 0.531751,1.3131 0.5685,2.17145 1.777391,4.35976 3.19257,5.93142 -1.214494,-1.28504 -2.148625,-2.76954 -2.757971,-4.4266 -0.149056,-0.40101 -0.339623,-0.75824 -0.463021,-1.18753 -0.631732,-2.19772 -1.932844,-3.08667 -3.465938,-2.36781 -1.978393,0.92764 -1.941903,2.96888 0.128157,7.1453 0.306386,0.61814 0.556608,1.18312 0.556039,1.25522 -0.0015,0.18786 -0.257534,0.16362 -0.408761,-0.0377 -0.30015,-0.40076 0.323978,0.64487 0.766878,1.28468 1.068694,1.54384 2.444625,2.96811 4.043681,4.18683 5.525201,4.21102 5.325612,10.93084 -0.513664,17.3023 -8.184352,8.93026 -8.303645,17.55721 -0.402559,29.13155 3.92928,5.75601 4.701933,10.40916 2.285132,13.76764 -0.18398,0.25567 -0.361783,0.42664 -0.437183,0.42064 -0.06985,-0.006 -0.531785,-0.053 -1.026294,-0.10542 -0.494517,-0.0524 -1.463614,-0.12039 -2.153874,-0.15089 -0.690259,-0.0304 -1.25522,-0.0607 -1.25522,-0.0677 0,-0.007 0.1006,-0.30898 0.223242,-0.67179 1.611562,-4.76764 0.662342,-10.63029 -2.605009,-16.08946 -0.855244,-1.42897 -2.476337,-3.90074 -1.92598,-2.93677 0.04319,0.0756 0.03668,0.1291 0.04909,0.19224 -0.04197,-0.14775 -0.148376,-0.35773 -0.35605,-0.6997 -0.234451,-0.38607 -0.707914,-1.2247 -1.052133,-1.86345 -0.344219,-0.63875 -0.626029,-1.13164 -0.626318,-1.09554 -9.73e-4,0.10165 0.863554,1.70404 1.476912,2.73781 0.509642,0.85895 0.623065,1.18498 0.379822,1.09038 -0.05307,-0.0207 -0.166621,-0.1635 -0.252181,-0.3173 -0.08552,-0.15379 -0.415177,-0.72907 -0.732772,-1.27847 -1.010929,-1.74879 -1.664958,-3.14573 -2.268595,-4.8457 -0.1325,-0.37314 -0.194268,-0.50862 -0.243913,-0.61288 -0.788629,-2.60021 -0.863523,-4.89687 -0.255798,-7.0342 0.05293,-0.1274 0.07471,-0.15981 0.163814,-0.40721 0.06539,-0.18156 0.246856,-0.47116 0.348299,-0.68833 -0.419677,0.9337 -0.714168,1.79632 -0.714168,2.30994 0,0.29082 0.192736,0.004 0.276986,-0.41186 0.07097,-0.35063 0.248534,-0.77107 0.396358,-1.17254 l 5.17e-4,-5.2e-4 0.08475,-0.18655 c 0.530249,-1.16646 1.135616,-2.23886 1.816427,-3.24425 9.96e-4,0.004 -0.01266,0.0222 -0.0083,0.0222 0.02066,0 0.233274,-0.26146 0.472323,-0.58084 0.673217,-0.89941 1.500089,-1.85853 2.287716,-2.65359 6.289153,-6.34855 6.789184,-14.30566 1.629358,-20.91035 -0.09128,-0.14374 -0.410085,-0.49229 -0.625802,-0.74362 -0.330385,-0.38359 -0.601714,-0.78234 -0.972034,-1.15497 l -0.422713,-0.4253 c -1.262779,-1.36628 -1.95124,-2.27579 -2.693892,-3.67471 -0.201049,-0.37872 -0.365764,-0.65511 -0.365869,-0.61391 -3.24e-4,0.12947 0.657595,1.30675 1.15135,2.06034 0.570735,0.87107 1.034452,1.42893 2.337842,2.81016 0.521394,0.55253 0.783245,0.85254 1.04128,1.15083 0.102492,0.12962 0.301856,0.34342 0.356568,0.42737 0.104622,0.14022 0.125975,0.21046 0.138493,0.27285 -0.04248,-0.13675 -0.552848,-0.73062 -1.674317,-1.92443 -2.373959,-2.52711 -3.548124,-4.50227 -4.142899,-6.9696 -0.109278,-0.4533 -0.216842,-0.87509 -0.239262,-0.93689 -0.02242,-0.0618 -0.04521,-0.19361 -0.04961,-0.29301 -0.0097,-0.20423 -0.195853,-0.3143 -0.195853,-0.11575 0,0.18087 0.03397,0.38777 0.06821,0.59479 -0.504865,-2.47625 -0.317323,-5.0758 0.530717,-7.75663 0.0442,-0.0847 0.09889,-0.19539 0.216007,-0.52142 0.484311,-1.34823 1.020635,-2.55034 1.615922,-3.6251 -0.139977,0.25298 -0.2885,0.47501 -0.42478,0.74414 0.266377,-0.51812 0.498072,-1.03298 0.81287,-1.55546 0.102483,-0.17009 0.235032,-0.30637 0.343132,-0.47025 -0.226991,0.3482 -0.437172,0.76031 -0.653707,1.14515 0.483181,-0.85575 1.028726,-1.58928 1.601969,-2.27428 -0.833723,1.04673 -1.591158,2.30049 -2.33009,3.84524 -0.791997,1.65568 -1.698989,4.46555 -1.704289,5.28133 -10e-4,0.14987 0.138901,0.17928 0.181901,0.0377 0.01569,-0.0515 0.115839,-0.4994 0.222209,-0.99528 0.445913,-2.07885 1.356694,-4.29357 2.66237,-6.47351 1.898988,-3.17056 4.607527,-5.13918 8.246525,-5.99447 0.391484,-0.092 0.762409,-0.18662 0.824239,-0.21032 0.06181,-0.0234 0.142277,-0.0364 0.179317,-0.0274 0.03705,0.009 0.121645,-0.008 0.187585,-0.0362 0.06597,-0.0282 0.201377,-0.0554 0.300757,-0.0594 0.19554,-0.009 0.318059,-0.19637 0.128675,-0.19637 -0.7594,0 -3.234078,0.73762 -4.506702,1.34307 -0.294509,0.14011 -0.571278,0.29252 -0.845943,0.447 0.710031,-0.41596 1.451551,-0.79394 2.270662,-1.08624 0.513574,-0.18326 0.727769,-0.27276 0.748792,-0.29559 1.515867,-0.45273 3.15349,-0.71199 4.915462,-0.73018 z m 6.189286,2.60811 c -0.01895,-0.0824 -0.03011,-0.01 -0.02481,0.16174 0.0054,0.17149 0.0435,0.30673 0.08475,0.29973 0.04125,-0.007 0.07493,0.0893 0.07493,0.2129 0,0.14699 -0.03433,0.21763 -0.09922,0.20413 -0.05441,-0.0113 -0.08005,0.01 -0.05684,0.0475 0.02321,0.0376 -0.0084,0.11023 -0.06976,0.16123 -0.06135,0.0509 -0.10827,0.16396 -0.10387,0.25166 0.0071,0.1512 0.01009,0.15013 0.05633,-0.0134 0.06694,-0.23766 0.198438,-0.20905 0.198438,0.0418 0,0.11539 -0.03787,0.19866 -0.0863,0.18966 -0.04758,-0.009 -0.105981,0.033 -0.129191,0.0935 -0.02584,0.0673 0.0025,0.11007 0.07286,0.11007 0.08131,0 0.108143,0.0606 0.09147,0.20619 -0.02821,0.24474 -0.153729,0.2497 -0.222209,0.004 -0.04832,-0.17034 -0.04933,-0.17618 -0.05633,-0.009 -0.0041,0.0903 0.02848,0.18623 0.07235,0.21343 0.05315,0.0329 0.04181,0.0913 -0.03359,0.17466 -0.124224,0.13727 -0.131139,0.67878 -0.0088,0.65888 0.04119,-0.007 0.08565,0.0805 0.0987,0.19378 0.01627,0.14155 -0.01073,0.20619 -0.08578,0.20619 -0.06015,0 -0.128369,0.0503 -0.151929,0.11162 -0.02478,0.0644 -0.0045,0.10456 0.04806,0.0935 0.05003,-0.01 0.101672,0.0748 0.114722,0.1881 0.01627,0.14154 -0.01073,0.20619 -0.08578,0.20619 -0.06014,0 -0.128369,0.0503 -0.151929,0.11162 -0.02469,0.0643 -0.0045,0.10456 0.04806,0.0935 0.05004,-0.01 0.101672,0.0748 0.114722,0.1881 0.01427,0.12395 -0.01228,0.20619 -0.06666,0.20619 -0.128211,0 -0.29032,0.23476 -0.28422,0.41186 l -5.17e-4,5.1e-4 c 0.0044,0.12944 0.01222,0.1261 0.05426,-0.0227 0.02681,-0.0952 0.08226,-0.17312 0.123507,-0.17312 0.0412,0 0.09983,0.0779 0.130225,0.17312 0.04046,0.12692 0.04615,0.10882 0.02119,-0.0677 -0.01865,-0.13233 0.0021,-0.26302 0.04651,-0.29042 0.04603,-0.0284 0.063,-0.158 0.03979,-0.30127 -0.0226,-0.13951 -0.0057,-0.27293 0.03772,-0.29973 0.04358,-0.0268 0.0598,-0.16021 0.03721,-0.29972 -0.02242,-0.13824 -0.0066,-0.27216 0.03462,-0.29766 0.105219,-0.065 0.04861,-0.57684 -0.07441,-0.67334 -0.112412,-0.0882 -0.08961,-0.37834 0.02791,-0.35554 0.04064,0.008 0.0988,0.0924 0.129191,0.18759 0.03775,0.11837 0.04322,0.0929 0.01809,-0.0811 -0.02023,-0.13983 0.0016,-0.30047 0.04806,-0.35657 0.0463,-0.0562 0.06474,-0.20111 0.04031,-0.32349 -0.02522,-0.12577 -0.0095,-0.2431 0.03617,-0.2713 0.04842,-0.0299 0.06212,-0.1634 0.03462,-0.33538 -0.02732,-0.17121 -0.01337,-0.30568 0.03462,-0.33538 0.102127,-0.0631 0.06059,-0.57228 -0.05478,-0.67128 -0.04806,-0.0412 -0.103293,-0.14239 -0.122473,-0.22479 z m 10.811743,3.4835 h 0.220142 c 0.03222,0 0.171432,0.11615 0.221692,0.1354 0.03207,0.0277 0.004,0.0274 0.05374,0.061 2.086799,1.40781 4.266724,3.47224 6.215129,5.72317 -0.52415,-0.62099 -0.98704,-1.18137 -1.51154,-1.75493 0.89785,0.88847 1.74801,1.76982 2.35748,2.50372 1.42589,1.71702 2.65198,3.58618 3.5848,5.35316 -0.46673,-0.86966 -1.18062,-1.89773 -1.96681,-2.96622 1.49993,2.12564 2.67921,4.24698 3.23391,6.03115 0.0411,0.13232 0.0577,0.1361 0.0879,0.20154 0.0766,0.26367 0.20323,0.56197 0.25218,0.80512 0.023,0.1141 0.01,0.23746 -0.0103,0.36225 l -0.18552,-0.69556 c -0.53397,-2.00763 -1.80041,-4.45168 -3.40031,-6.73499 -0.24792,-0.33642 -0.48007,-0.66371 -0.74672,-1.00976 -0.46147,-0.60442 -0.92703,-1.20861 -1.42627,-1.76165 -0.15027,-0.16645 -0.4924,-0.55451 -0.76016,-0.86196 -0.60054,-0.68953 -1.57337,-1.6622 -2.356452,-2.35697 -0.325118,-0.28847 -0.6651,-0.59392 -0.75551,-0.67902 -0.09041,-0.0851 -0.248944,-0.21993 -0.352433,-0.29973 -0.103489,-0.0797 -0.518759,-0.41497 -0.922941,-0.74465 -1.631005,-1.33034 -1.619741,-1.32277 -1.715141,-1.16841 -0.02308,0.0377 0.0255,0.0505 0.108004,0.0289 0.101087,-0.0264 0.149861,-0.002 0.149861,0.0739 0,0.1417 -0.202444,0.22681 -0.251664,0.10593 -0.02006,-0.0492 -0.03836,0.0571 -0.04186,0.23565 -0.0066,0.36316 0.163466,0.41546 0.205156,0.0625 0.0331,-0.27957 0.09118,-0.25995 0.785482,0.26096 5.465848,4.10075 10.251838,10.49315 11.361058,15.17375 0.4327,1.8259 -6.84874,6.00723 -12.395104,7.11792 -0.370885,0.0743 -0.691521,0.15641 -0.712101,0.18241 -0.02061,0.026 -0.118191,0.0422 -0.217041,0.0382 -0.09886,-0.005 -0.19452,0.0338 -0.21239,0.0853 -0.04498,0.12939 0.02627,0.12211 1.216463,-0.12351 3.619683,-0.74696 7.700973,-2.61537 10.296013,-4.54597 -0.27623,0.20655 -0.49596,0.40729 -0.81803,0.62115 -0.47391,0.31468 -0.9492,0.63068 -1.05627,0.70228 -0.89279,0.59745 -3.455039,1.77188 -5.237411,2.40037 -0.143634,0.0506 -0.11981,0.0491 -0.239262,0.093 -1.409461,0.46959 -2.835052,0.85641 -4.175973,1.05782 -0.414726,0.0623 -0.804523,0.11317 -0.866613,0.11317 -0.166395,0 -0.147259,-0.3071 0.145727,-2.31201 0.814049,-5.57067 1.686186,-14.80401 1.688786,-17.87074 3.59e-4,-0.5055 0.0036,-0.51406 0.183968,-0.47956 0.11603,0.0222 0.198692,-0.004 0.224792,-0.0718 0.06348,-0.1655 0.05475,-0.1718 -0.145727,-0.0956 l -0.187586,0.0713 v -0.90537 -0.90537 l 0.187586,0.047 c 0.102969,0.0258 0.187069,0.0153 0.187069,-0.0233 0,-0.0386 0.02188,-0.13172 0.04857,-0.20722 0.03967,-0.1123 0.02987,-0.12088 -0.05271,-0.0439 -0.02871,0.0266 -0.03461,-9.3e-4 -0.05839,0.0155 0.07827,-0.0673 0.137459,-0.16762 0.137459,-0.31471 v -0.12402 c -0.03122,0.0323 -0.07493,0.0374 -0.07493,0.14676 0,0.2246 -0.174884,0.31308 -0.250114,0.1266 -0.005,-0.0124 -0.0057,0.021 -0.01034,0.0181 -0.01637,-0.0929 -0.03927,-0.15349 -0.03927,-0.33641 z m 0.374654,0.60669 c 0.01366,-0.0141 0.009,-0.0657 0.03307,-0.0641 l -0.03307,-0.0248 z m 0.03307,-0.0641 0.584978,0.4439 c 3.90917,2.96475 7.610171,7.16266 9.684161,10.98382 0.24713,0.45527 0.46242,0.81566 0.47801,0.80047 0.045,-0.0439 -1.08412,-2.01999 -1.61075,-2.81895 -2.04449,-3.10169 -5.357632,-6.61102 -8.530234,-9.03459 -0.345747,-0.26411 -0.513231,-0.36825 -0.606165,-0.37465 z m 7.997969,7.47241 c 0.008,0.0107 0.0172,0.0203 0.0253,0.031 -0.0595,-0.0787 -0.11644,-0.15756 -0.17674,-0.23616 0.0548,0.0705 0.0973,0.1349 0.15142,0.20516 z m 0.74672,1.00976 c 0.007,0.0101 0.0148,0.0204 0.0222,0.0305 -0.038,-0.0539 -0.0701,-0.10735 -0.10852,-0.16124 0.0305,0.043 0.0561,0.0876 0.0863,0.13075 z m -35.245397,0.6413 c -0.734091,0.006 -2.260572,1.66672 -2.04587,2.22622 0.05284,0.1377 0.191203,0.0498 0.191203,-0.12144 0,-0.54 0.878857,-1.53595 1.572514,-1.78232 0.339083,-0.12042 0.51741,-0.32446 0.282153,-0.32246 z m -1.981791,3.07113 c -0.406441,0 1.184299,4.38891 2.017965,5.56762 0.317823,0.44938 0.195918,0.0924 -0.344682,-1.00924 -0.562179,-1.14566 -1.290191,-3.15679 -1.48053,-4.09019 -0.05818,-0.2853 -0.133373,-0.46819 -0.192753,-0.46819 z m -3.93206,2.43861 c 0.756731,1.97669 2.186453,4.27948 3.878833,5.99188 0.642145,0.64975 1.208051,1.2658 1.604037,1.74563 0.159994,0.19383 0.233398,0.2125 0.259416,0.1571 -10e-4,0.0186 0.06226,0.0897 0.05116,0.10077 -0.06694,0.0669 -0.144252,0.0174 -0.328145,-0.20929 -0.307533,-0.37913 -0.853554,-0.97141 -1.909961,-2.07326 -0.783386,-0.81708 -1.440383,-1.64645 -2.005046,-2.50217 -0.343838,-0.54125 -0.681964,-1.08405 -0.950329,-1.64176 -0.0742,-0.1515 -0.129573,-0.31218 -0.198438,-0.46612 -0.15962,-0.36244 -0.273308,-0.73399 -0.401527,-1.10278 z m 44.743008,1.33946 c -0.0127,0.06 -0.0453,0.12445 -0.0672,0.18655 -0.21685,0.29192 -0.50193,0.56159 -0.76584,0.83664 0.23536,-0.24751 0.46906,-0.49549 0.63407,-0.73484 z m -26.151378,0.0263 c -0.330044,1.90473 -0.762552,4.58618 -0.835607,4.8736 -0.01976,-0.0121 -0.06218,0.0151 -0.131259,0.0987 l -0.130224,0.15761 c 0.09459,0.004 0.186524,0.007 0.216007,-0.0574 -0.0376,0.0909 -0.119031,0.12553 -0.299723,0.0801 0.02902,0.007 0.02376,-0.0165 0.04806,-0.0129 l -1.055749,-0.53434 c -0.457065,-0.23125 -0.849561,-0.52156 -1.270207,-0.78651 0.366671,0.23128 0.824744,0.51035 1.244885,0.72605 1.052843,0.54051 1.007833,0.52504 1.172538,0.39584 0.09258,-0.0726 0.519786,-2.2408 0.643372,-3.15071 -0.03531,0.27628 -0.0823,0.59393 -0.195854,1.21233 -0.166028,0.90416 -0.299606,1.68963 -0.296106,1.74563 0.0032,0.056 0.01928,0.0681 0.03566,0.0269 0.04773,-0.12018 0.861427,-4.66973 0.846977,-4.73563 -0.0016,-0.008 0.0068,-0.0278 0.0072,-0.0393 z m -1.09709,5.12992 c -0.01544,-6.1e-4 -0.01774,0.0124 -0.03514,0.0103 l 0.01912,0.009 z m 0.997355,-4.90099 c -0.0026,0.0142 10e-4,0.0154 -0.0026,0.0315 -0.02741,0.13393 -0.0703,0.38805 -0.09508,0.56431 -0.01137,0.081 -0.03019,0.0937 -0.04496,0.14779 0.05127,-0.21908 0.114854,-0.54746 0.142627,-0.74362 z m -7.1453,0.37723 c 0.781435,1.02578 1.730741,1.94383 2.824117,2.74041 -1.100715,-0.79294 -2.047314,-1.69632 -2.824117,-2.74041 z m 32.622303,0.57155 c -0.9034,0.99993 -2.5256,2.09877 -4.52066,3.10937 1.78955,-0.95255 3.52763,-2.16849 4.52066,-3.10937 z m -28.811683,2.36781 c 0.393297,0.25176 0.771776,0.51292 1.20251,0.74052 0.312813,0.16529 0.449425,0.22245 0.619084,0.30024 -0.17949,-0.0712 -0.289997,-0.092 -0.609782,-0.2589 -0.446703,-0.23316 -0.80533,-0.52297 -1.211812,-0.78186 z m -11.213269,0.72089 0.156063,0.16484 c 0.12186,0.12846 0.0973,0.13015 0.210839,0.2527 -0.102542,-0.10928 -0.103741,-0.12492 -0.218074,-0.24546 -0.06468,-0.0682 -0.08717,-0.10641 -0.148828,-0.17208 z m 1.916162,2.27583 c 0.0024,0.008 0.07235,0.0807 0.07235,0.0868 7e-6,0.1203 -0.06804,0.14935 -0.164848,0.12661 0.124363,-0.003 0.139555,-0.0841 0.0925,-0.21342 z m 30.748511,4.22868 -5.17e-4,0.001 v 5.2e-4 0.001 5.2e-4 5.2e-4 5.1e-4 5.2e-4 c 0.145761,-0.0302 0.237782,0.009 0.304374,0.0884 -0.0802,-0.0207 -0.213831,0.012 -0.457336,0.0961 -0.735624,0.25405 -2.491245,0.71922 -3.362586,0.89091 -0.993945,0.19585 -1.032614,0.20774 -0.973584,0.30334 0.0591,0.0958 0.240023,0.10003 0.298173,0.004 0.02435,-0.0393 0.08918,-0.0547 0.144177,-0.0336 0.137162,0.0526 1.897894,-0.35704 3.12074,-0.72605 1.005315,-0.30337 1.007055,-0.30337 1.11001,-0.14831 0.144706,0.21799 0.224082,0.17859 0.230477,-0.0832 0.06207,0.48438 -0.09016,1.50205 -0.36897,3.72587 -0.354907,2.83096 -0.4436,3.5311 -0.323494,3.71088 -0.01636,-0.002 -0.09167,-0.066 -0.09922,-0.0584 -0.018,0.018 0.06109,0.093 0.1757,0.16691 0.212202,0.1369 0.66706,0.56973 1.021643,0.87437 -0.448848,-0.36672 -0.934746,-0.76169 -1.089339,-0.85886 -0.138872,-0.0873 -0.208503,-0.2025 -0.224793,-0.37156 -0.02682,-0.27852 -0.161324,-0.33078 -0.197404,-0.077 -0.03155,0.22212 0.220868,0.56684 0.568441,0.77618 0.719807,0.43353 3.201577,2.81205 4.073137,3.90364 0.17996,0.2254 0.59365,0.71024 0.91881,1.07746 3.53445,3.99155 5.64227,7.63798 6.49314,11.23239 0.0878,0.37089 0.17866,0.72523 0.20206,0.78703 0.023,0.0618 0.0359,0.14231 0.0269,0.17931 -0.009,0.037 0.002,0.11329 0.0232,0.16899 0.0213,0.0557 0.0738,0.10077 0.11628,0.10077 0.0996,0 0.10127,-0.27585 0.001,-0.33745 -0.0419,-0.0259 -0.0564,-0.0798 -0.032,-0.11937 0.0675,-0.10919 -0.39288,-1.87229 -0.73174,-2.80242 -0.11567,-0.31752 -0.28143,-0.66807 -0.42943,-1.00769 0.18451,0.42385 0.44626,0.89499 0.57723,1.27486 0.1127,0.32685 0.21466,0.56443 0.22686,0.52813 0.005,-0.0152 -0.009,-0.0563 -0.006,-0.0739 1.09122,3.46935 1.01702,6.88517 -0.21394,10.39626 -0.0323,0.0858 -0.0295,0.0621 -0.0646,0.15813 -0.79065,2.16103 -2.48609,5.10306 -4.13256,7.17114 -2.03423,2.55515 -3.18713,4.13288 -4.25763,5.82807 -0.51678,0.81836 -1.27299,2.3036 -1.67586,3.20962 1.0118,-2.3802 2.42216,-4.66789 4.701,-7.55664 0.29307,-0.3715 0.60025,-0.76327 0.68265,-0.87127 0.0824,-0.10799 0.31847,-0.40622 0.52451,-0.66249 1.81968,-2.26319 3.46837,-5.19429 4.26073,-7.57525 0.34083,-1.02414 0.7014,-2.58625 0.6165,-2.67115 -0.0901,-0.09 -0.17485,0.0962 -0.26355,0.57981 -0.52428,2.85853 -2.15972,6.18214 -4.60954,9.36635 -2.5583,3.32523 -2.91603,3.80972 -3.94653,5.34696 -0.3204,0.47796 -0.60179,0.94169 -0.87643,1.40353 0.19429,-0.32968 0.34738,-0.65711 0.56327,-0.9958 -1.24621,1.91572 -2.228275,3.58539 -2.224675,4.01629 3.76e-4,0.0456 0.281871,-0.4911 0.625285,-1.19166 0.17672,-0.36041 0.40959,-0.71172 0.60255,-1.0635 -0.832545,1.51426 -1.453224,2.98716 -1.891877,4.55476 -0.236404,0.84484 -0.704964,2.99244 -0.677994,3.10782 0.0088,0.0379 -0.0037,0.11907 -0.02842,0.18087 -0.08667,0.21676 -0.216542,0.98701 -0.173632,1.02991 0.02382,0.0238 0.0059,0.0875 -0.03979,0.14263 -0.0456,0.0551 -0.06555,0.16631 -0.04444,0.24701 0.02111,0.0807 0.0096,0.15668 -0.02532,0.16898 -0.03495,0.0123 -0.07791,0.17423 -0.0956,0.35967 -0.0176,0.18544 -0.05163,0.3883 -0.07545,0.4501 -0.02381,0.0618 -0.114825,0.49968 -0.202055,0.97359 -0.198948,1.08069 -0.874445,4.1245 -0.927075,4.177 -0.02156,0.0216 -0.662271,-0.20074 -1.424203,-0.49351 -0.761923,-0.29277 -2.035738,-0.75884 -2.830835,-1.03611 -1.691765,-0.58996 -1.602547,-0.51261 -1.319299,-1.1405 0.682895,-1.51381 1.371354,-4.05453 1.098641,-4.05453 -0.07104,0 -0.144488,0.22488 -0.236678,0.72605 -0.152786,0.83061 -0.746839,2.6678 -1.105876,3.41943 -0.07254,0.15186 -0.12757,0.26026 -0.152962,0.3514 0.01656,-0.13867 0.08307,-0.30671 0.19482,-0.56689 0.291647,-0.67902 0.714584,-1.8828 0.708484,-2.01486 -0.0021,-0.0438 -0.130567,0.27474 -0.285254,0.70745 -0.133243,0.37269 -0.316151,0.82 -0.453719,1.13636 1.794747,-4.0094 1.783346,-8.38147 -0.02532,-13.10514 0.08635,0.22871 0.214937,0.47152 0.291456,0.69815 0.15727,0.46576 0.298175,0.83405 0.313675,0.81855 0.04276,-0.0428 -0.04129,-0.3215 -0.141076,-0.6258 0.168721,0.51572 0.331676,1.03093 0.450618,1.52497 0.0893,0.37088 0.178481,0.72243 0.197921,0.78083 0.02531,0.0759 0.05787,0.0827 0.115755,0.0248 0.174767,-0.17477 -0.698976,-3.01292 -1.441772,-4.68292 -0.56111,-1.26153 -1.178643,-2.39254 -2.239657,-4.10104 -2.421574,-3.89931 -3.849482,-7.0002 -4.417301,-9.59218 -0.04968,-0.22666 -0.109765,-0.4622 -0.133325,-0.524 -0.02374,-0.0618 -0.03619,-0.1856 -0.02739,-0.2744 0.01832,-0.19013 -0.125192,-0.30786 -0.185002,-0.15193 -0.376719,0.98171 2.279243,7.0743 4.726327,10.8412 1.207256,1.85837 2.21328,3.94298 2.886645,5.92832 -0.481135,-1.30958 -1.657852,-3.80954 -2.513541,-5.21777 -1.719974,-2.8306 -2.116998,-3.51349 -2.739368,-4.71909 -0.789912,-1.53015 -1.169353,-2.40486 -1.69137,-3.89692 -0.21197,-0.60589 -0.380302,-1.04469 -0.38964,-1.01906 -0.59341,-2.13981 -0.690424,-4.05439 -0.232027,-5.89163 -0.03507,0.1998 -0.09036,0.42758 -0.03876,0.51108 0.06343,0.10263 0.183968,0.007 0.183968,-0.14521 0,-0.53483 0.311522,-1.32927 0.765328,-2.22002 -0.156447,0.32301 -0.288016,0.62488 -0.345716,0.85937 l -0.04599,0.18811 0.08682,-0.18811 c 0.618902,-1.33393 0.880524,-1.81964 1.390096,-2.58433 0.665834,-0.99916 1.43836,-1.98382 2.527494,-3.22151 1.356593,-1.54166 2.164622,-2.71433 2.954342,-4.28811 0.211584,-0.42166 0.383772,-0.79212 0.382922,-0.82372 -8.67e-4,-0.0317 -0.246656,0.41319 -0.546737,0.99012 -0.138867,0.26699 -0.284236,0.45785 -0.415995,0.69143 0.187558,-0.33484 0.370413,-0.6835 0.56534,-1.08263 0.133608,-0.27357 0.258158,-0.60021 0.383439,-0.91829 -0.02301,-0.0152 -0.03015,-0.0479 -0.04082,-0.0739 -0.0026,-0.006 0.0029,-0.0142 0.0047,-0.0212 0.0047,-0.0178 0.0131,-0.044 0.0186,-0.061 0.02086,-0.0632 0.04392,-0.12586 0.0677,-0.1881 -0.04287,0.0129 -0.08773,-0.0285 -0.06873,-0.10904 0.0037,-0.0161 0.0082,-0.0321 0.0124,-0.0481 0.0055,-0.0207 0.01155,-0.0413 0.01705,-0.062 0.0074,-0.0263 0.01534,-0.0529 0.02274,-0.0791 0.0086,-0.0314 0.01652,-0.0628 0.02532,-0.094 0.0073,-0.0258 0.0147,-0.0516 0.0217,-0.0775 0.0019,-0.007 0.0039,-0.0145 0.0057,-0.0217 -0.003,-9.9e-4 -0.0056,-0.002 -0.0083,-0.003 -0.160908,0.44601 -0.319796,0.89198 -0.537952,1.36529 0.204398,-0.44497 0.371869,-0.93441 0.519865,-1.36994 -0.02165,-0.004 -0.02418,5.5e-4 -0.01964,-0.0108 2.78e-4,-7e-4 1.88e-4,-0.001 5.17e-4,-0.002 2.79e-4,-5.2e-4 7.38e-4,-9.7e-4 0.001,-0.002 3.9e-5,-1.2e-4 1.34e-4,-5.8e-4 10e-4,-0.003 l 5.17e-4,-5.2e-4 c 0.0019,-0.005 0.0033,-0.01 0.0052,-0.0145 0.0018,-0.005 0.0042,-0.009 0.0067,-0.0145 0.001,-0.002 0.0021,-0.004 0.0031,-0.006 3.52e-4,-7e-4 6.83e-4,-0.001 0.001,-0.002 1.4e-4,-3.4e-4 3.78e-4,-7e-4 5.17e-4,-10e-4 0.0034,-0.008 0.0061,-0.0168 0.0088,-0.0258 0.0038,-0.012 0.0078,-0.0236 0.01137,-0.0357 0.0026,-0.009 0.005,-0.0182 0.0072,-0.0274 -0.08267,0.20515 -0.169873,0.40671 -0.253732,0.6103 0.208132,-0.48843 0.388361,-0.97666 0.546737,-1.46244 4.92e-4,-0.004 0.0012,-0.009 0.0016,-0.0129 0.0016,-0.0148 0.0027,-0.0295 0.0036,-0.0444 0.0013,-0.0219 0.008,-0.0425 0.02325,-0.0589 0.0021,-0.002 0.0043,-0.004 0.0067,-0.006 0.411467,-1.2968 0.645876,-2.57272 0.649056,-3.76411 l 5.17e-4,-1.46038 c -4e-6,0.005 -0.481212,-3.4502 -0.969967,-4.70669 -0.232468,-0.59761 -0.183408,-1.31174 -0.180351,-1.31723 0,0 -0.02072,-0.36901 1.125513,-0.45165 1.526429,-0.10111 3.844118,-0.55819 5.644617,-1.11363 0.447625,-0.13808 0.774849,-0.27176 1.00459,-0.31936 z m -0.05891,2.24586 c -0.02288,-0.0824 -0.02578,-0.0263 -0.0046,0.12505 0.02163,0.16127 0.0022,0.29672 -0.04703,0.32712 -0.05105,0.0316 -0.0655,0.14906 -0.03721,0.29972 0.02829,0.15066 0.01334,0.26822 -0.03772,0.29972 -0.05105,0.0315 -0.0655,0.14908 -0.03721,0.29973 0.02829,0.15066 0.01334,0.26822 -0.03772,0.29972 -0.05106,0.0315 -0.0655,0.14906 -0.03721,0.29972 0.02829,0.15066 0.01334,0.26823 -0.03772,0.29973 -0.05105,0.0315 -0.0655,0.14906 -0.03721,0.29972 0.02636,0.14074 0.01312,0.26807 -0.03049,0.29507 -0.111993,0.0692 -0.06081,0.56362 0.05839,0.56379 0.06341,1e-4 0.09017,0.0738 0.07493,0.20619 -0.01304,0.11329 -0.06252,0.19865 -0.110071,0.18965 -0.0476,-0.009 -0.105645,0.0325 -0.128675,0.0925 -0.02356,0.0614 -0.0026,0.10103 0.04754,0.0915 0.04894,-0.01 0.1004,0.0585 0.114721,0.1509 0.01424,0.0924 0.0449,0.16846 0.0677,0.16846 0.02306,0 0.02221,-0.10018 -0.0026,-0.22221 -0.02443,-0.12203 -0.01093,-0.24238 0.02997,-0.26768 0.0409,-0.0253 0.07473,-0.15288 0.07493,-0.28371 2.6e-4,-0.13083 0.01005,-0.37999 0.02222,-0.55345 0.01529,-0.21704 -0.01009,-0.32783 -0.08217,-0.35553 -0.117094,-0.045 -0.100204,-0.38641 0.01809,-0.36381 0.04121,0.008 0.09831,0.0919 0.127124,0.18707 0.04008,0.13256 0.04911,0.11235 0.03772,-0.0889 -0.0082,-0.14423 -0.06083,-0.2981 -0.116789,-0.3421 -0.11205,-0.0879 -0.09219,-0.33981 0.02687,-0.34055 0.04121,-2.5e-4 0.09831,0.0774 0.127124,0.1726 0.04008,0.13255 0.0491,0.11148 0.03772,-0.0894 -0.0082,-0.14424 -0.06083,-0.2981 -0.116789,-0.3421 -0.11205,-0.0879 -0.09219,-0.3398 0.02687,-0.34054 0.04121,-2.5e-4 0.09831,0.0774 0.127124,0.1726 0.04008,0.13256 0.0491,0.11148 0.03772,-0.0894 -0.0082,-0.14423 -0.06083,-0.2981 -0.116789,-0.3421 -0.11205,-0.0879 -0.09219,-0.33982 0.02687,-0.34055 0.04121,-2.6e-4 0.09831,0.0774 0.127124,0.1726 0.04008,0.13256 0.04911,0.11147 0.03772,-0.0894 -0.0082,-0.14423 -0.05433,-0.29563 -0.102319,-0.33693 -0.04807,-0.0412 -0.105648,-0.14239 -0.128158,-0.22479 z m -0.720369,5.51129 c -0.0017,0.17986 0.138071,0.31557 0.764294,0.74155 0.669145,0.45518 2.505354,2.20175 3.430284,3.26285 0.35028,0.40184 0.92396,1.05856 1.27486,1.45935 0.35089,0.40078 0.97286,1.14691 1.38182,1.65778 0.40894,0.51086 0.87125,1.08619 1.02785,1.27847 0.7474,0.91772 1.94718,2.8489 2.65462,4.27364 0.23956,0.48248 0.44749,0.86561 0.46198,0.85111 0.0448,-0.0448 -0.877,-1.8371 -1.35133,-2.62723 -0.91171,-1.51871 -2.394,-3.48602 -4.07314,-5.40535 -0.36554,-0.41781 -0.90062,-1.03633 -1.18908,-1.37459 -0.81053,-0.95045 -2.875438,-2.9306 -3.570838,-3.4246 -0.343851,-0.24426 -0.666906,-0.52638 -0.717786,-0.62684 -0.05643,-0.1114 -0.09297,-0.13806 -0.09353,-0.0661 z m 0.506946,0.0801 c 0.04041,0.054 0.10056,0.0594 0.182418,0.063 0.0128,5.7e-4 0.15029,0.13667 0.174149,0.14883 -0.15654,-0.11089 -0.295856,-0.20378 -0.356567,-0.21187 z m 1.662432,1.46709 c 0.97579,0.89223 2.01887,1.91219 2.66134,2.68304 0.2055,0.24657 0.61316,0.71832 0.9064,1.048 0.5638,0.63389 2.14372,2.5893 2.75384,3.40858 0.15346,0.20607 0.2924,0.48502 0.44597,0.709 0.71662,1.04523 1.35734,2.15675 1.93218,3.32538 -0.55859,-1.12967 -1.22811,-2.29415 -1.93218,-3.32538 -0.37847,-0.55432 -0.76382,-1.06983 -1.1405,-1.51981 -0.26482,-0.31635 -0.62968,-0.77748 -0.81081,-1.02474 -0.18111,-0.24725 -0.60501,-0.76529 -0.94206,-1.15135 -0.33704,-0.38606 -0.79327,-0.90848 -1.01389,-1.16117 -0.9117,-1.04421 -1.28382,-1.44804 -2.00246,-2.17144 -0.32798,-0.33015 -0.62544,-0.6074 -0.85783,-0.82011 z m 3.73155,3.75946 c 2.31722,2.6067 4.04222,5.11168 5.20847,7.57111 -1.20925,-2.27738 -3.2902,-5.41323 -5.20847,-7.57111 z m -13.085502,1.91668 c -0.808358,1.88152 -1.887423,3.57576 -3.45612,5.35988 1.462114,-1.6629 2.632769,-3.50671 3.45612,-5.35988 z m -24.28689,0.79117 v 0.001 c 0.0056,-0.001 0.0035,0.009 0.0088,0.008 -0.0065,-6.8e-4 -0.008,-0.004 -0.01499,-0.005 0.0015,-3.6e-4 0.0048,-0.003 0.0062,-0.004 z m 0.129191,0.12712 c 0.0022,0.0146 0.0217,0.003 0.0217,0.0212 0,0.004 -0.02489,0.0282 -0.02584,0.0325 0.0074,-0.0217 0.0032,-0.0362 0.0041,-0.0537 z m -0.117305,0.002 c 0.06357,0.0636 -0.07486,0.25219 -0.54622,0.74517 -1.259384,1.31714 -2.501125,2.993 -3.341915,4.38681 0.92988,-1.64974 2.167179,-3.3497 3.493843,-4.62194 0.169863,-0.16291 0.308509,-0.34244 0.308509,-0.39894 0,-0.15777 -1.475793,1.36866 -2.054655,2.12494 -0.166922,0.21808 -0.456654,0.58926 -0.646472,0.82837 0.661239,-0.95147 1.313595,-1.82099 1.839681,-2.39262 0.04629,-0.0467 0.09858,-0.10569 0.142626,-0.14831 0.392082,-0.40413 0.695479,-0.6326 0.804603,-0.52348 z m 23.909651,0.0842 c -0.637331,1.32854 -1.345576,2.58801 -1.966805,3.26957 -0.112693,0.12362 -0.234961,0.27986 -0.271301,0.34726 -0.05881,0.10909 -0.405016,0.50481 -1.350305,1.54771 0.165222,-0.19551 0.246767,-0.34156 0.425814,-0.54622 1.565749,-1.78976 2.34183,-2.94361 3.162597,-4.61832 z m -12.602848,0.6413 c 0.01925,0.014 0.0295,0.0501 0.04082,0.0997 0.332711,1.45792 0.769666,2.95409 1.281576,4.3863 l 0.343131,0.95911 -0.421163,0.88057 c -2.880754,6.02143 -1.611399,12.73925 4.157886,22.00227 3.452216,5.54278 4.111723,9.94619 2.091862,13.96349 -0.353081,0.70223 -0.278778,0.68037 -1.316199,0.38189 -0.412099,-0.11856 -1.406609,-0.37184 -2.210201,-0.56276 -0.803583,-0.19091 -1.516195,-0.36916 -1.583365,-0.39636 -0.106895,-0.0434 -0.08657,-0.13781 0.164331,-0.76119 2.057414,-5.11188 0.82945,-11.03122 -3.707784,-17.87023 -6.25141,-9.42282 -6.414446,-14.56593 -0.668693,-21.1031 0.240958,-0.27415 0.749223,-0.85581 1.129646,-1.29243 0.500409,-0.57429 0.640408,-0.72932 0.698149,-0.6873 z m -11.751221,0.0248 c -0.576651,0.57343 -1.349237,1.48444 -1.952335,2.27376 0.597331,-0.79641 1.234887,-1.56032 1.952335,-2.27376 z m -1.289844,0.74207 c -1.050801,1.30622 -2.274087,3.10738 -3.036507,4.55476 0.06611,-0.14418 0.109187,-0.29255 0.181901,-0.43563 0.636623,-1.25269 1.826648,-2.9063 2.854606,-4.11913 z m 25.104928,0.0868 c -0.619341,1.03483 -1.287404,1.96919 -2.708879,3.622 -0.849834,0.98813 -1.595934,1.98778 -2.184362,2.88458 0.676623,-1.04847 1.493803,-2.17456 2.504756,-3.34708 1.166244,-1.35263 1.818943,-2.20942 2.388485,-3.1595 z m -4.167187,5.10305 c -0.02052,0.0267 -0.02486,0.0337 -0.04548,0.0605 -0.74511,0.96725 -1.455475,2.17629 -1.937349,3.19877 0.05298,-0.13019 0.07813,-0.26147 0.136426,-0.39171 0.05978,-0.12713 0.101458,-0.25198 0.167431,-0.38034 2.59e-4,-5.1e-4 2.59e-4,-0.001 5.17e-4,-0.002 0.218175,-0.44831 0.518495,-0.90463 0.799434,-1.35858 0.222941,-0.33878 0.607304,-0.76417 0.879017,-1.12654 z m -24.6047,5.51491 c -0.107104,-0.066 -0.184555,0.15189 -0.112655,0.31626 0.03152,0.0721 0.05196,0.15711 0.04496,0.18861 -0.194227,0.90688 2.64531,7.5172 3.799768,8.84598 0.306815,0.35314 0.126014,-0.11106 -0.355534,-0.91364 -1.501199,-2.50196 -2.867076,-5.75541 -3.197221,-7.61504 -0.02929,-0.16484 -0.07298,-0.33346 -0.09715,-0.37466 -0.02408,-0.0412 -0.03472,-0.14787 -0.02325,-0.23667 0.01147,-0.0888 -0.01495,-0.18364 -0.05891,-0.21084 z m 1.291394,5.05705 c 0.53119,1.15486 1.170808,2.44726 1.761133,3.46336 -0.709593,-1.22096 -1.2732,-2.36082 -1.761133,-3.46336 z m 21.045744,0.0698 c 0.005,0.16538 0.634229,1.95563 0.961698,2.73782 -0.416017,-0.9635 -0.719293,-1.86471 -0.961698,-2.73782 z m 25.445989,1.99678 c -0.0437,0.0518 -0.21943,0.36045 -0.49764,0.89142 -0.56731,1.08274 -0.91036,1.65562 -1.65726,2.76831 -0.54272,0.80851 -0.6746,0.98572 -2.52543,3.38739 -0.72354,0.93887 -1.35829,1.93407 -2.03864,2.93367 0.52151,-0.75923 1.01971,-1.49525 1.7198,-2.40967 0.59472,-0.77675 1.39475,-1.82217 1.77818,-2.32286 1.18035,-1.54139 2.18649,-3.12157 2.92747,-4.59869 0.24898,-0.49633 0.33724,-0.70137 0.29352,-0.64957 z m -23.585638,1.86552 c 2.6e-5,0.13908 1.357975,2.61137 2.118734,3.85765 0.415348,0.68042 0.970446,1.59146 1.233516,2.02416 0.263071,0.4327 0.703053,1.23116 0.977719,1.77457 0.274657,0.54341 0.512453,0.97533 0.528133,0.95963 0.06387,-0.0639 -1.222896,-2.42355 -2.0252,-3.71398 -1.106799,-1.78019 -1.376592,-2.24443 -2.174027,-3.74086 -0.362338,-0.67996 -0.658884,-1.20237 -0.658875,-1.16117 z m -20.41064,0.56999 c 0.01802,0.007 0.0479,0.0534 0.06408,0.0512 0.0037,-5.3e-4 0.0042,-0.003 0.0078,-0.004 -0.01268,0.002 -0.01107,0.0191 -0.02532,0.0191 -0.0059,0 -0.03874,-0.0617 -0.04651,-0.0661 z m 40.466268,3.82354 c -0.0113,0.0145 -0.0181,0.0284 -0.0295,0.0429 -0.006,0.008 -0.0102,0.0135 -0.0165,0.0217 0.0157,-0.0201 0.0303,-0.0444 0.046,-0.0646 z m -5.860629,9.25525 c -0.247437,0.62931 -0.485971,1.25491 -0.678511,1.92288 -0.247184,0.85752 -0.51685,2.15377 -1.342554,6.45645 -0.326476,1.70122 -0.75928,3.72951 -0.93586,4.38527 -0.08268,0.30706 -0.373551,0.28247 -1.014408,0.0729 -0.260284,-0.13265 -1.075761,-0.45938 -3.217892,-1.23352 -1.22784,-0.44372 -1.782955,-0.63043 -1.989026,-0.82682 0.167283,0.14052 0.584145,0.27872 1.463994,0.58808 0.782977,0.2753 2.080995,0.75054 2.884578,1.05626 1.698636,0.64622 1.520076,0.59939 1.668632,0.4346 0.168654,-0.18708 1.238726,-5.105 1.144116,-5.25807 -0.02374,-0.0384 -0.01166,-0.0892 0.02635,-0.11266 0.05983,-0.037 0.151835,-0.49085 0.198955,-0.97927 0.008,-0.0824 0.03296,-0.2002 0.05529,-0.262 0.02229,-0.0618 0.192767,-0.88773 0.379305,-1.83554 0.225299,-1.1448 0.522802,-2.16929 0.850078,-3.16363 0.05883,-0.14163 0.09172,-0.20149 0.200504,-0.50798 0.0892,-0.25133 0.209259,-0.49112 0.306441,-0.73691 z m -32.232657,11.92434 c 3.308669,-0.14616 8.130173,0.40707 12.708785,1.52962 l 1.002522,0.24598 -0.983919,1.04851 c -4.371618,4.65885 -8.932197,7.82653 -12.298991,8.54263 -1.532884,0.32604 -4.277186,0.1188 -6.037357,-0.45578 -6.067762,-1.98072 -4.566286,-9.63465 2.02985,-10.34769 0.206041,-0.0223 0.584063,-0.10312 0.839742,-0.17932 0.701653,-0.20898 1.636478,-0.33523 2.739368,-0.38395 z"
         sodipodi:nodetypes="cccssssccccccsccccssscscssssscsssscsssscsscscsscccssssccssccscccsccccscccssscssscsssccssccsccscccccsscccscccssscssscscssscccscscccsssccccsscsscccccscssccsssscssssscscscsscsscscsssccscscccccsssccccsssscccssscsccsccscccsscssscsscsscscccscsssccccscsscccccccscccsscsscccsccsscccscccccscccsscsccccsccccsccccsssscsccsscccsssccccscccssscscscccsssccscsscccccccccscsscsccsssccsscssscssssscssccsscccccccccccsccccccsscscccccccccscsccscccccccscsccccscsscsscccccccccssccssscsccccssssscscscsccscsccccsscsscscsssccsccscsscsscsscsssssscscsccsscscsssscccscsssccssccccssssscscccccccccssccccscsccccsscccccccsccccsccsccsccssssssccssssccscsccsccccscscscscscscsscssssssssssssccssccscsssscsssssscccccccccccsccscccsscssscccscsscscsscccsssscsssssscccccsccscscccccsccccsscssscsssccccccsssscsssssssssssscscscccccccssscscssssccsscsscsccsssscs" /><path
         style="fill:#e7641b;fill-opacity:1;stroke-width:0.283186"
         d="m 90.482332,22.789823 c -4.735273,0.01555 -9.568017,3.482275 -9.081099,9.508981 l 0.05426,0.674377 -0.590661,0.171049 c -10.063626,2.912071 -6.876506,18.495053 3.531567,17.267163 0.420279,-0.04956 0.543119,-0.04289 0.543119,0.02997 0,0.217321 0.412788,1.380852 0.681096,1.920296 1.344945,2.704087 3.983785,4.50444 6.999056,4.774902 0.329672,0.02951 0.666898,0.05878 0.749308,0.06408 4.859471,0.328385 8.943052,-3.782655 8.983952,-9.044409 l 0.007,-0.926559 0.52452,-0.133842 c 8.53538,-2.181982 8.76339,-14.58997 0.31316,-17.038753 -1.1238,-0.325663 -3.620804,-0.466845 -4.178044,-0.236161 -0.09477,0.03924 -0.137994,-0.03787 -0.214974,-0.38499 -1.015695,-4.582662 -4.639499,-6.658202 -8.32249,-6.646106 z m 1.715141,11.065475 c 0.439332,0.01719 0.868662,0.120476 1.296562,0.222725 -0.333475,-0.09426 -0.627326,-0.132337 -0.815971,-0.05994 -0.188464,0.07231 -0.01138,0.208137 0.212907,0.163297 0.118632,-0.02373 0.215491,-0.01723 0.215491,0.01447 0,0.03168 0.184915,0.09628 0.410827,0.14366 1.929981,0.404822 3.732857,2.184868 4.270541,4.21628 0.07082,0.267537 0.146912,0.5371 0.168982,0.59893 0.02175,0.06181 0.03309,0.238721 0.02429,0.393258 -0.01242,0.22152 0.01139,0.281119 0.112655,0.281119 0.430961,0 -0.325441,-2.28046 -1.096057,-3.330029 0.206046,0.248862 0.404421,0.497319 0.555522,0.744141 0.04876,0.09418 0.113994,0.171137 0.158646,0.269234 0.195002,0.372781 0.334565,0.733921 0.338481,1.036629 3.04e-4,0.02276 0.01263,0.01168 0.01809,0.02377 0.197034,0.79266 0.274942,1.513887 0.03979,1.455209 -0.149048,-0.03721 -0.169749,-0.01285 -0.174149,0.209806 -0.0049,0.233141 0.0074,0.246738 0.168465,0.185518 0.221572,-0.08426 0.243723,0.454883 0.05323,1.292428 -0.04761,0.209327 -0.155375,0.390419 -0.223242,0.591178 -0.02267,0.05136 -0.03083,0.03337 -0.05633,0.110071 -0.302876,0.910985 -1.049027,1.85316 -1.921846,2.596741 1.065337,-0.92286 1.904454,-2.243828 2.13682,-3.482475 0.103078,-0.549428 -0.142067,-0.318246 -0.28112,0.2651 -0.485348,2.036168 -2.18257,3.730947 -4.265889,4.259689 -0.343623,0.08721 -0.66935,0.171388 -0.72347,0.187068 -0.05382,0.01567 -0.07547,0.06464 -0.04806,0.109037 0.100222,0.162165 1.194064,-0.133191 2.017448,-0.544669 0.385303,-0.19255 0.758056,-0.450093 1.108976,-0.747241 -0.357785,0.298787 -0.724384,0.544937 -1.108976,0.747241 -0.178105,0.09369 -0.353861,0.217283 -0.531751,0.28422 -0.283082,0.106519 -0.531414,0.210504 -0.551904,0.230994 -0.04937,0.04923 0.199178,-0.06827 0.265617,-0.08165 -0.118222,0.03832 -0.219804,0.109174 -0.341065,0.14056 -1.224627,0.316973 -2.387598,0.239251 -3.446301,-0.07286 -0.06697,-0.02828 -0.04277,-0.03065 -0.149862,-0.06821 -1.816237,-0.637065 -3.218454,-1.939595 -3.950663,-3.670577 -0.03573,-0.08447 -0.02467,-0.03515 -0.05323,-0.09663 -0.541424,-1.394191 -0.56805,-2.988596 0.03669,-4.573881 0.009,-0.01964 0.0045,-0.0021 0.01395,-0.02325 0.739538,-1.648818 1.857861,-2.798302 3.391525,-3.485059 0.0301,-0.01348 0.0068,-0.0075 0.03411,-0.02015 0.859964,-0.342587 1.76875,-0.55178 2.690275,-0.515731 z m -0.98857,0.161747 c -0.555829,-0.213292 -2.910836,0.908594 -3.682979,1.754415 -1.003239,1.098969 -1.751333,2.562305 -1.761133,3.445784 -0.0032,0.287697 0.185656,-0.02747 0.308508,-0.515214 0.510247,-2.025755 2.035676,-3.658299 3.961515,-4.239534 0.350279,-0.105722 0.687479,-0.210718 0.749309,-0.233578 0.06181,-0.02242 0.184578,-0.03464 0.273368,-0.02584 0.19091,0.01841 0.308262,-0.125875 0.151412,-0.186035 z m 2.355929,0.07286 c 0.09118,0.02283 0.186826,0.02085 0.276985,0.04754 0.06348,0.03252 0.06757,0.04735 0.215491,0.10232 0.223649,0.08311 0.450481,0.25014 0.677995,0.375687 -0.412253,-0.233104 -0.816895,-0.416201 -1.170471,-0.525549 z m -4.630726,0.498161 c -0.06234,0.03494 -0.11978,0.04455 -0.182417,0.0832 0.05904,-0.03304 0.122449,-0.05218 0.182417,-0.0832 z m 5.826518,0.04134 c 0.397177,0.221646 0.769338,0.468952 1.142049,0.780831 -0.361659,-0.28711 -0.75195,-0.558431 -1.142049,-0.780831 z m 0.665593,0.225826 c 0.139723,0.08767 0.258197,0.203611 0.39119,0.302824 -0.13242,-0.100871 -0.256096,-0.210568 -0.39119,-0.302824 z m -7.364409,0.343131 c -0.40116,0.328773 -0.758144,0.684815 -1.090889,1.08934 0.325888,-0.420937 0.68689,-0.780622 1.090889,-1.08934 z m 8.082711,0.426331 c 0.293519,0.264503 0.559705,0.51973 0.803569,0.807703 -0.209714,-0.273212 -0.499086,-0.54446 -0.803569,-0.807703 z m 0.597896,0.360185 c 0.0585,0.06625 0.123369,0.121352 0.179318,0.190686 -0.05326,-0.06294 -0.11906,-0.126709 -0.179318,-0.190686 z M 86.296541,37.25354 c -0.03344,0.06071 -0.04813,0.117013 -0.07803,0.17725 0.01911,-0.04087 0.01975,-0.08218 0.03979,-0.12299 0.01026,-0.02089 0.0278,-0.03356 0.03824,-0.05426 z m 11.533663,0.458887 c 0.0076,0.01842 0.02152,0.03054 0.02894,0.04909 0.05029,0.125714 0.05303,0.239817 0.09508,0.36897 -0.0477,-0.152308 -0.03435,-0.211551 -0.124024,-0.418062 z m -11.915035,3.461287 c -0.0433,-0.07498 -0.08245,-0.06709 -0.117305,0.02377 -0.07314,0.190628 0.246641,1.231667 0.567924,1.848983 0.84512,1.623806 2.292894,2.78217 4.080888,3.264917 0.45939,0.12402 0.712101,0.13637 0.712101,0.03411 0,-0.08967 -0.0084,-0.09296 -0.749308,-0.26045 -2.056441,-0.464873 -3.905524,-2.350528 -4.35219,-4.438488 -0.0514,-0.240246 -0.09881,-0.397857 -0.14211,-0.47284 z m 11.650969,2.101681 c -0.02157,0.04028 -0.04632,0.07704 -0.06873,0.116788 0.02621,-0.04091 0.04408,-0.07664 0.06873,-0.116788 z m -0.744141,1.033528 c -0.166373,0.199209 -0.332303,0.390404 -0.521932,0.567408 0.181503,-0.18151 0.347479,-0.356984 0.521932,-0.567408 z m -8.601542,1.051616 c 0.03658,0.02665 0.06683,0.06038 0.10387,0.0863 -0.03721,-0.02618 -0.06726,-0.05936 -0.10387,-0.0863 z m 7.202661,0.204122 c -0.189072,0.121821 -0.387653,0.219121 -0.590145,0.320394 0.226544,-0.113477 0.412992,-0.214828 0.590145,-0.320394 z"
         id="path25"
         sodipodi:nodetypes="cccccsscccccsscccccssscsccscccscsccscscsssccscssccsccscccscccsssssccssscscssccccccccccccccccccccscsscssssssssssscccccccccccc" /><path
         style="fill:#e7641b;fill-rule:evenodd;stroke-width:0.271434"
         d="m 99.237013,136.72881 c -0.238974,0.0482 -0.579337,0.18341 -1.044959,0.32312 -1.872872,0.56199 -4.283722,1.02498 -5.871507,1.12728 -0.670822,0.0432 -0.688193,0.0489 -0.654179,0.22221 0.01924,0.0978 0.0042,0.17778 -0.03225,0.17778 -0.03693,0 -0.06668,-0.0508 -0.06668,-0.11347 0,-0.27425 -0.367636,-0.12424 -0.417669,0.17047 -0.0855,0.50339 -0.05419,0.72758 0.187599,1.33223 0.508396,1.2713 1.008958,3.63443 1.008958,4.7627 0,0.45098 0.0052,0.46049 0.19512,0.42508 0.183875,-0.0342 0.194589,-0.0174 0.194589,0.29594 0,0.3163 -0.0083,0.32976 -0.194589,0.28443 -0.194121,-0.0472 -0.195161,-0.0443 -0.196202,0.47214 -0.0042,1.69484 -0.466943,3.55524 -1.280407,5.41208 0.112788,-0.26636 0.239193,-0.52294 0.34134,-0.79841 0.17003,-0.45866 0.310758,-0.79373 0.312839,-0.74507 0.0073,0.16639 -0.582302,1.66027 -0.959497,2.459 0.843879,-1.78091 1.508865,-3.64589 1.508865,-4.61787 0,-0.0863 0.03537,-0.17853 0.07843,-0.20443 0.107151,-0.0647 0.185675,0.15968 0.112341,0.3226 -0.03287,0.073 -0.05243,0.16226 -0.0441,0.19868 0.101315,0.43056 -0.833196,3.21579 -1.57498,4.69316 -0.203255,0.40482 -0.394078,0.75796 -0.589677,1.09748 0.137514,-0.23706 0.289393,-0.43063 0.434334,-0.70168 0.312142,-0.58373 0.567801,-1.03491 0.568706,-1.00283 8.84e-4,0.032 -0.178227,0.40732 -0.398312,0.83395 -0.821463,1.59234 -1.661961,2.77883 -3.07309,4.33866 -1.132908,1.25228 -1.93649,2.24855 -2.629084,3.25949 -0.340924,0.61503 -1.128809,1.74528 -1.128809,1.74528 0,0 -0.582124,0.97026 -0.593972,0.95787 0,0 -0.265469,0.73679 -0.353115,0.91866 -0.476701,1.85843 -0.376021,3.79462 0.240815,5.95899 0.0094,-0.0279 0.184926,0.41842 0.405843,1.03264 0.543003,1.50965 0.937694,2.39415 1.759355,3.94234 0.647386,1.21981 1.060365,1.91179 2.849469,4.77576 0.890085,1.42483 2.114103,3.95374 2.614573,5.27876 -0.700426,-2.00875 -1.746894,-4.11845 -3.00267,-5.99873 -2.545451,-3.8113 -5.308168,-9.97571 -4.916306,-10.96899 0.0622,-0.15777 0.211472,-0.0382 0.192436,0.15423 -0.0094,0.0898 0.0042,0.21459 0.0285,0.27712 0.02455,0.0625 0.08696,0.30137 0.138689,0.5307 0.590633,2.62254 2.075938,5.75998 4.594854,9.70525 1.103658,1.72864 1.74602,2.87299 2.329684,4.14939 0.772657,1.68968 1.681507,4.56129 1.499723,4.73812 -0.06023,0.0586 -0.09414,0.0512 -0.120403,-0.0256 -0.02018,-0.0591 -0.112996,-0.41478 -0.205886,-0.79003 -0.123721,-0.49987 -0.293221,-1.02063 -0.468722,-1.54242 0.103811,0.30788 0.19126,0.58987 0.14674,0.63317 -0.01612,0.0157 -0.162686,-0.35696 -0.326278,-0.82821 -0.07958,-0.2293 -0.213406,-0.47496 -0.303175,-0.70637 1.88138,4.77936 1.893218,9.20244 0.02632,13.2591 0.143089,-0.32009 0.333351,-0.77216 0.471957,-1.14924 0.160897,-0.43781 0.294635,-0.76011 0.296716,-0.71579 0.0062,0.13362 -0.433595,1.35107 -0.736958,2.03809 -0.11621,0.26325 -0.185487,0.43327 -0.202651,0.57358 0.02642,-0.0922 0.08374,-0.20137 0.159109,-0.35502 0.373461,-0.76049 0.99141,-2.61934 1.150331,-3.45974 0.09591,-0.50707 0.172339,-0.73461 0.246193,-0.73461 0.283672,0 -0.432461,2.57015 -1.14281,4.1018 -0.294636,0.63529 -0.387442,0.55703 1.372329,1.15395 0.82706,0.28054 2.152081,0.75263 2.944627,1.04885 0.792566,0.29622 1.458978,0.52065 1.481446,0.4988 0.05471,-0.0531 0.757397,-3.1323 0.964344,-4.22572 0.0907,-0.4795 0.185415,-0.92306 0.210171,-0.98559 0.02486,-0.0625 0.06023,-0.26725 0.07854,-0.45488 0.01841,-0.18762 0.06304,-0.35146 0.09944,-0.36391 0.03672,-0.0124 0.04827,-0.0893 0.02632,-0.17097 -0.02205,-0.0816 -0.001,-0.19418 0.04618,-0.24993 0.04764,-0.0557 0.06616,-0.12075 0.0414,-0.14483 -0.04462,-0.0434 0.09039,-0.82221 0.180609,-1.04152 0.02538,-0.0625 0.0389,-0.14518 0.02954,-0.18353 -0.02809,-0.11674 0.45935,-2.28965 0.705252,-3.14445 0.45493,-1.58135 1.097848,-3.06811 1.959858,-4.59538 -0.19793,0.35144 -0.43722,0.70293 -0.61871,1.06296 -0.357279,0.70882 -0.650032,1.25132 -0.650416,1.20518 -0.0042,-0.43598 1.017796,-2.1248 2.314096,-4.0631 -0.22321,0.3406 -0.38169,0.66916 -0.58269,1.00075 0.28463,-0.46532 0.5766,-0.9318 0.90844,-1.41329 1.07192,-1.55536 1.44403,-2.04556 4.10516,-5.40999 2.54829,-3.22174 4.24945,-6.58402 4.79481,-9.47624 0.0923,-0.48931 0.18042,-0.67771 0.27414,-0.58665 0.0883,0.0859 -0.28675,1.66591 -0.64128,2.70212 -0.82421,2.40903 -2.53916,5.37468 -4.43198,7.66455 -0.21432,0.25929 -0.45988,0.56104 -0.54559,0.6703 -0.0857,0.10927 -0.40524,0.50618 -0.71009,0.88206 -2.37044,2.9228 -3.83749,5.23694 -4.88996,7.6452 0.41907,-0.9167 1.20567,-2.41893 1.74322,-3.24693 1.11353,-1.71517 2.31276,-3.31203 4.42876,-5.8973 1.71265,-2.09246 3.47625,-5.06917 4.29868,-7.25567 0.0365,-0.0971 0.0336,-0.0731 0.0672,-0.15999 1.28044,-3.55248 1.35763,-7.00805 0.22254,-10.5183 -0.003,0.0178 0.0117,0.0579 0.006,0.0733 -0.0127,0.0367 -0.11875,-0.20366 -0.23598,-0.53436 -0.13624,-0.38435 -0.4085,-0.86104 -0.60042,-1.28989 0.15394,0.34363 0.32637,0.69831 0.44669,1.01957 0.35248,0.9411 0.83136,2.72497 0.76115,2.83545 -0.0254,0.0401 -0.0104,0.0946 0.0333,0.12078 0.10371,0.0623 0.10257,0.34142 -10e-4,0.34142 -0.0442,0 -0.0988,-0.0456 -0.12094,-0.10196 -0.022,-0.0564 -0.0336,-0.13353 -0.0242,-0.17097 0.009,-0.0374 -0.004,-0.11889 -0.028,-0.18142 -0.0243,-0.0625 -0.11885,-0.42106 -0.21018,-0.79632 -0.88507,-3.63678 -3.07761,-7.32619 -6.75413,-11.3648 -0.33823,-0.37154 -0.76855,-0.86209 -0.95574,-1.09015 -0.9066,-1.10445 -3.488114,-3.51101 -4.236857,-3.94965 -0.361541,-0.21181 -0.624159,-0.56059 -0.591289,-0.78533 0.03755,-0.25712 0.177457,-0.20442 0.205335,0.0774 0.01696,0.17105 0.08935,0.28761 0.233836,0.37594 0.160803,0.0984 0.666234,0.49794 1.133115,0.86898 -0.368832,-0.30823 -0.841965,-0.74616 -1.062705,-0.88467 -0.119206,-0.0748 -0.201485,-0.15067 -0.182762,-0.16888 0.0073,-0.008 0.08613,0.0576 0.103187,0.0596 -0.124927,-0.18189 -0.03266,-0.89029 0.336504,-3.75462 0.289975,-2.25003 0.389105,-3.76921 0.383801,-3.7698 l -0.0284,-0.13519 -0.08665,-0.17156 c -0.06928,-0.0804 -0.164257,-0.12054 -0.316074,-0.0899 z m -7.866289,1.85719 c 0.04286,0.003 0.07146,0.10108 0.05586,0.29228 -0.01571,0.19207 0.08374,0.60031 0.289726,1.19054 0.366689,1.0505 0.737457,2.49697 0.678374,2.64669 -0.02278,0.0574 -0.0073,0.12433 0.03329,0.14902 0.09799,0.0592 0.09559,0.3176 -0.0042,0.3775 -0.04317,0.026 -0.09799,-0.003 -0.122025,-0.0637 h -5.31e-4 c -0.02424,-0.0609 -0.03568,-0.15687 -0.02632,-0.21333 0.0094,-0.0565 -4.57e-4,-0.15341 -0.02361,-0.21593 -0.02299,-0.0625 -0.154344,-0.57435 -0.291889,-1.13722 -0.137545,-0.56289 -0.373763,-1.34462 -0.524633,-1.73745 -0.231423,-0.60262 -0.263763,-0.76036 -0.207488,-1.00911 0.04296,-0.18936 0.100171,-0.28224 0.142985,-0.27921 z m 7.804481,0.41045 h 10e-4 c -3.02e-4,-0.001 2.81e-4,0.003 0,0.002 0.02382,0.0831 0.08259,0.18449 0.13223,0.22587 0.04993,0.0418 0.09809,0.19497 0.106432,0.3409 0.01186,0.20324 0.0021,0.22458 -0.03921,0.0905 -0.02996,-0.0963 -0.08935,-0.1749 -0.13223,-0.17464 -0.123887,7.4e-4 -0.144514,0.25563 -0.02798,0.34457 0.05825,0.0445 0.113163,0.2002 0.121485,0.34613 0.01186,0.20325 0.0021,0.22458 -0.03922,0.0905 -0.02996,-0.0963 -0.08935,-0.17489 -0.13224,-0.17463 -0.123887,7.5e-4 -0.144504,0.25563 -0.02798,0.34456 0.05825,0.0445 0.113163,0.20018 0.121484,0.34612 0.01186,0.20325 0.0021,0.22457 -0.03921,0.0905 -0.02996,-0.0963 -0.08935,-0.17488 -0.13223,-0.17463 -0.123887,7.5e-4 -0.144514,0.25562 -0.02798,0.34456 0.05825,0.0445 0.113163,0.2002 0.121485,0.34613 0.01186,0.20326 0.0021,0.22405 -0.03922,0.0899 -0.02996,-0.0963 -0.08935,-0.18117 -0.13224,-0.18927 -0.123003,-0.0229 -0.140613,0.32256 -0.01883,0.36809 0.075,0.028 0.101419,0.14012 0.0855,0.35972 -0.01269,0.17551 -0.02289,0.42762 -0.02309,0.55999 -2.08e-4,0.13237 -0.03537,0.26144 -0.07791,0.28704 -0.04254,0.0256 -0.05659,0.14737 -0.03121,0.27084 0.0259,0.12347 0.02725,0.22483 0.0031,0.22483 -0.02372,0 -0.05565,-0.077 -0.07042,-0.17045 -0.01488,-0.0935 -0.06844,-0.1628 -0.119331,-0.15268 -0.05253,0.0102 -0.07396,-0.0305 -0.04941,-0.0926 0.02392,-0.0607 0.08436,-0.10269 0.133852,-0.0936 0.04951,0.009 0.101003,-0.0773 0.114494,-0.19188 0.01591,-0.13395 -0.01196,-0.20852 -0.07791,-0.20862 -0.123992,-1.8e-4 -0.177239,-0.50042 -0.06075,-0.57044 0.04535,-0.0273 0.05919,-0.15615 0.03173,-0.29855 -0.02944,-0.15243 -0.01446,-0.27138 0.0387,-0.30325 0.05305,-0.0319 0.06865,-0.15083 0.03921,-0.30326 -0.02944,-0.15244 -0.01446,-0.27139 0.0387,-0.30326 0.05305,-0.0319 0.06865,-0.15081 0.03922,-0.30325 -0.02944,-0.15243 -0.01446,-0.27139 0.0387,-0.30326 0.05305,-0.0319 0.06865,-0.15082 0.03921,-0.30326 -0.02944,-0.15243 -0.01436,-0.27128 0.03869,-0.30325 0.05097,-0.0308 0.07136,-0.16779 0.04889,-0.33096 -0.02039,-0.15125 -0.01758,-0.20389 0.0052,-0.12497 -1.77e-4,-6.1e-4 -9.16e-4,-9.7e-4 -0.001,-0.002 z m -0.748254,5.57625 c 5.2e-4,-0.072 0.03859,-0.0458 0.09726,0.0669 0.05295,0.10165 0.388971,0.38708 0.746642,0.63422 0.723352,0.49982 2.871257,2.50331 3.714367,3.46497 0.30006,0.34225 0.85664,0.96806 1.23687,1.39079 1.74664,1.94196 3.28851,3.93247 4.23686,5.46908 0.49339,0.79944 1.45224,2.61287 1.40564,2.6582 -0.0151,0.0147 -0.23136,-0.37299 -0.48055,-0.86115 -0.73587,-1.44154 -1.98388,-3.39548 -2.76132,-4.32402 -0.16289,-0.19455 -0.64379,-0.77666 -1.06915,-1.29354 -0.4254,-0.51689 -1.07237,-1.27182 -1.43738,-1.67732 -0.36499,-0.40552 -0.96175,-1.06997 -1.3261,-1.47655 -0.96212,-1.0736 -2.872111,-2.84076 -3.568158,-3.30131 -0.651391,-0.431 -0.797091,-0.56832 -0.79501,-0.7503 z m 11.361359,27.78822 c 0.0455,-0.0524 -0.0463,0.15505 -0.30532,0.65723 -0.77077,1.49454 -1.81735,3.09333 -3.04514,4.65289 -0.39884,0.50659 -1.23105,1.56434 -1.84967,2.35024 -0.72824,0.9252 -1.24644,1.6699 -1.78892,2.43808 0.7077,-1.01138 1.36796,-2.01832 2.12058,-2.96825 1.92521,-2.42998 2.0624,-2.60928 2.62694,-3.42732 0.77692,-1.12581 1.13376,-1.70544 1.72387,-2.80094 0.2894,-0.53723 0.4722,-0.84952 0.51766,-0.90193 z m -24.533674,1.88751 c -1.1e-5,-0.0417 0.308469,0.48688 0.685363,1.17486 0.829494,1.51406 1.110118,1.98378 2.261406,3.78495 0.834559,1.30564 2.173072,3.69311 2.106603,3.75776 -0.01633,0.0159 -0.263658,-0.42112 -0.549358,-0.97094 -0.285711,-0.54982 -0.743376,-1.35769 -1.01702,-1.79549 -0.273644,-0.4378 -0.851046,-1.35958 -1.283091,-2.04802 -0.791339,-1.26097 -2.203872,-3.7624 -2.203903,-3.90312 z"
         id="path52"
         sodipodi:nodetypes="csssssssscssccsccscscscssssscsccssscsscccssssscssccsssccssssscscccccsccscscccssscsssscssscccscsccscscssssssscsccsccccccsccccccscsscccccccccssccssccsscccsssscscccscssscscscsscccccssssssssssssccscsscssssssssssss" /></g></g></svg>
