<svg xmlns="http://www.w3.org/2000/svg" xml:space="preserve" viewBox="0 0 203.2 61.383">
  <path fill="#00537f" d="M5.2807 22.9552V9.7222h4.7625v22.49h10.607l-.15548 3.8365-15.214.1404zm19.315-.004V9.7222h4.7625v26.458h-4.7625zm18.566 12.777c-.3286-.62507-10.134-24.945-10.299-25.543-.11406-.41453.10707-.46302 2.1114-.46302 1.7997 0 2.3192.09081 2.6485.46302.44802.50629 7.2436 18.013 7.5109 19.349.22172 1.1086.52871 1.041.7552-.16632.30582-1.6302 6.7976-18.406 7.3719-19.051.46999-.5272.78277-.59531 2.7336-.59531 1.2116 0 2.2028.03395 2.2028.07544s-2.373 5.9649-5.2733 13.163l-5.2733 13.088-2.1202.0766c-1.8157.0656-2.1559.009-2.3691-.39688zm18.067.12183c-.0697-.1819-.09573-6.1053-.05784-13.163l.06889-12.832 16.536-.13982v3.7117h-11.642v7.6729h9.2604v3.4396h-9.2604v7.6729h11.642v3.9688h-8.2104c-6.3243 0-8.2395-.076-8.3371-.33073zm20.516-12.898v-13.229h1.6679c1.5402 0 1.7296.06585 2.4731.8599.44288.47294 3.7107 4.5947 7.2618 9.1594l6.4566 8.2995.0696-9.1594.0696-9.1594h4.2265v26.458l-1.2568-.004c-.69123-.002-1.5307-.077-1.8654-.16665-.39358-.10542-2.9102-3.109-7.1216-8.4994-3.5821-4.585-6.787-8.6474-7.122-9.0276l-.60914-.69125-.0168 18.389h-4.2333zm37.677 12.981c-5.4764-.86578-9.467-4.1268-10.958-8.9547-.6456-2.0902-.70871-6.121-.13059-8.3406 1.5329-5.8851 6.4775-9.4514 13.089-9.4399 3.59.0062 6.7185.96399 8.8384 2.7058l.75809.62287-.84693 1.3764c-.99129 1.611-1.5496 1.7356-3.268.72873-2.3713-1.3894-5.5782-1.8015-8.1276-1.0444-3.6888 1.0955-5.6724 3.8434-5.9963 8.3067-.3606 4.9698 2.1995 9.0334 6.3435 10.069 1.6148.40353 5.3021.1908 6.6088-.38127l.99219-.4344v-4.9977l-4.101-.1546-.0788-1.6536-.0788-1.6536h8.4919v10.774l-1.5214.80538c-.83675.44295-2.1474.98919-2.9126 1.2139-1.7279.50734-5.3093.7353-7.1014.45199zm15.945.0719c-.097-.097-.17639-6.0631-.17639-13.258v-13.081l5.887.11563c5.3486.10506 6.0293.17109 7.443.72213 1.8263.71188 3.4159 2.0601 4.2059 3.5672.86644 1.653.80161 4.8497-.13498 6.6564-.81044 1.5634-2.2154 2.8855-3.821 3.5958l-1.1314.50049.76117.71809c.69627.65687 7.1634 10.121 7.1634 10.483 0 .28031-4.5174.16476-5.0674-.12962-.2941-.1574-1.7928-2.2112-3.3304-4.5641-3.7174-5.6884-3.4948-5.4685-5.5389-5.4685h-1.6737v10.319h-2.2049c-1.2127 0-2.2842-.0794-2.3812-.17639zm9.6079-13.868c2.5233-.5814 3.8601-2.3914 3.6488-4.9401-.0944-1.1379-.27895-1.5729-.96991-2.2858-1.1079-1.143-2.3214-1.4838-5.284-1.4838h-2.4167v4.3215c0 2.3768.0794 4.4009.17639 4.4979.27054.27054 3.5139.19713 4.8454-.10967zm14.743 13.878c-.10225-.10225-.18591-6.0641-.18591-13.249v-13.063l4.8948.15215v26.194l-2.2615.0757c-1.2438.0416-2.3451-.008-2.4474-.11025zm10.662-13.062v-13.229h1.6136c1.4433 0 1.6877.08105 2.3151.76786.3858.42232 3.6185 4.5233 7.1838 9.1132 3.5653 4.59 6.5716 8.3521 6.6807 8.3603.10914.008.19844-4.0928.19844-9.1132v-9.1281h3.9688v26.458h-1.3105c-.72075 0-1.584-.12913-1.9182-.28695-.33427-.15782-3.7034-4.2641-7.4869-9.125s-6.9685-8.8395-7.0776-8.8412c-.10914-.0017-.19843 4.1045-.19843 9.125v9.1281h-3.9688z"/>
  <path d="M195.9868 9.4922c-.88835-.0018-1.7676.58674-1.9487 1.6221l-.0176.10077-.005.15916c-.0302 1.0189.74702 1.9028 1.7611 2.0035 1.6122.16007 2.7152-1.6564 1.8257-3.0065-.3954-.60014-1.0076-.87776-1.6154-.87902zm-.0181.38757.11317.0098c.69142.05959 1.2343.54306 1.3803 1.2289l.0222.1049.00051.20877.00052.20877-.0202.09612c-.13205.63981-.63725 1.1316-1.2573 1.2237v.000517c-.82502.1225-1.5581-.38803-1.7327-1.2066l-.0227-.1049v-.20102l-.00052-.2005.0155-.0832c.13195-.7071.68448-1.2147 1.388-1.2754zm-.85318.38551v1.1229c0 .61766.003 1.1255.006 1.1286.004.0031.11995.0057.2589.0057h.25321v-.84388h.0636c.1198 0 .11291-.0071.38809.41806.23965.37031.24554.37834.30024.40411l.0377.01757.27078.0026.27027.0026-.005-.01292c-.0155-.04035-.5895-.86718-.6289-.90589l-.0455-.04444.0171-.0047c.18006-.04709.35202-.22791.41082-.43253l.0191-.06718v-.13332l-.00051-.13384-.0145-.05426c-.008-.02987-.0306-.08633-.0496-.12506l-.0346-.07028-.0594-.05891c-.0968-.0963-.22816-.15854-.40928-.19379l-.0755-.01499-.48679-.0031zm.51883.42736h.13539c.2749.000522.3711.03089.4284.13436l.0253.04547v.2005l-.0248.04444c-.0379.06837-.0954.10797-.19017.13126-.0329.008-.11297.01499-.21343.01809l-.16071.0046v-.28939zm-152.21 30.469-.17415.01033-.17363.01033-.33693.1602-.12506.12609c-.5523.55966-.31355 1.5098.42581 1.6934.04682.01165.18476.01815.30644.0155l.22169-.0047.16536-.08165c.84583-.41802.73665-1.646-.16795-1.8908zm12.343 0-.34727.02066-.16898.0801-.16846.0801-.12506.12609c-.5523.55966-.31304 1.5098.42633 1.6934.04681.01165.18424.01815.30592.0155l.22169-.0047.16536-.08165c.84584-.41803.73715-1.646-.16743-1.8908zm96.704.0031v4.5496l.00052 4.5496h1.5792v-4.2163l.0744-.09147c.20298-.2477.61512-.50266.92243-.57102l.17208-.03824.16898.01292c.38683.02983.60497.19773.72864.56172l.0486.14366.006 2.0996.006 2.0991h1.6004l-.008-2.2092-.008-2.2092-.0372-.15296c-.22733-.93438-.73553-1.4785-1.5601-1.6697l-.1757-.04082-.40515.0016-.40617.001-.21446.05788c-.25162.06812-.55853.20976-.76636.35295l-.14831.1018v-3.3326h-.7891zm-107.01.0031v9.0987h1.6004v-9.0987h-.80047zm6.5784 0-.0062 1.666-.0057 1.6655-.13901-.09715c-1.6993-1.1826-3.6861.0042-3.8401 2.2939l-.02119.31471.02222.32866c.10715 1.6048.94394 2.6996 2.2288 2.9156h.000517c.62822.10562 1.395-.02875 1.8159-.31833.05538-.03809.10285-.06569.10542-.0615.0027.0042.03134.04842.06356.0987.07271.11357.17806.19525.32246.25011l.1111.04237h.94206v-9.0987h-.79995zm21.34.11214v8.8821h1.6883v-3.469l.37259.0078.37207.0078.06408.06563c.03502.03617.54898.73169 1.1426 1.5456 1.1346 1.5558 1.2313 1.676 1.4252 1.7715l.12041.05943.90589.0062.90537.0067-.08527-.11576c-.04712-.06382-.61134-.8316-1.2542-1.7058-.64286-.87425-1.2424-1.6784-1.3317-1.787l-.16226-.1974.06201-.0217c1.2682-.44654 1.9771-1.7606 1.6748-3.1037-.24217-1.0759-.99094-1.6803-2.3523-1.8991l-.22583-.03669-1.6609-.0083zm49.297.10387v1.5348h2.6965v7.3453h1.6883v-7.3453h2.6965v-1.5348h-3.5404zm-94.361.001v8.8816h3.5714l.2589-.03359c1.3758-.17932 2.2893-.9028 2.5456-2.0154l.03566-.15451-.000517-.44907-.000517-.44958-.04754-.1757c-.02637-.09641-.09694-.27531-.1571-.39739l-.11007-.22169-.15865-.17053c-.19092-.20444-.33407-.31272-.59221-.44907l-.19379-.10232.16743-.12868c.59628-.4567.90146-1.2808.79944-2.159-.11999-1.0331-.82492-1.6725-2.1063-1.91l-.27337-.05064-1.8691-.0067zm121.79.69712-.48782.0072-.48783.0078-.0894.04754c-.23703.12642-.26471.20841-.38396 1.1467-.10724.84378-.0178.70844-.51314.7767-.22912.03157-.44382.06299-.47698.06976l-.0599.0124v.80925l.0294.07028c.0351.08309.12883.18084.2217.23099l.0667.03566.29042.0083.29042.0088v3.3822l.032.21394c.11641.77236.54163 1.2347 1.2428 1.3513h.00052c.34027.05657.93926.01467 1.3818-.09663.27822-.06998.82889-.25042.82889-.27182 0-.0086-.0547-.18695-.12092-.39584-.17412-.54895-.23676-.63785-.47956-.67593l-.12505-.01964-.25683.08785-.25632.08837-.16485.000517-.16433.001-.0656-.03566c-.0987-.05301-.18089-.14885-.21859-.2558l-.0336-.0956v-3.283h1.6221v-1.3157h-1.6221v-.9555zm-75.037.69091h.524c1.3101 0 1.8176.20206 2.0025.79737l.04858.15658-.001.22996-.001.23048-.03824.13074c-.06502.21908-.16356.38562-.31781.5395l-.14521.14469-.18604.09198c-.11376.05615-.26767.1094-.39481.13694l-.20826.04547-.6413.01188-.6413.01137v-1.263zm-45.042.08268.67438.001c1.6143.0014 2.043.22872 2.0464 1.0862.0027.66919-.39679 1.0412-1.2082 1.1265-.11456.01205-.50115.02197-.8599.02222l-.65267.000517v-1.1178zm53.089.97875c-.72584-.02192-1.4782.23213-2.081.81287l-.20567.19792-.1478.22428c-.23542.35598-.38908.74872-.47749 1.2227l-.03669.1974-.000516.43873-.000517.43822.04031.23823c.23625 1.4154 1.1033 2.3364 2.3968 2.5461l.19327.03101.40566-.0078.40566-.0083.21911-.04702c.69755-.15026 1.2759-.44821 1.7467-.89969l.1943-.18604-.25115-.33228-.25166-.33228-.12247-.05994-.12247-.06046-.13643.0124-.13591.0124-.43873.22169c-.24117.12184-.50245.23803-.58084.25838l-.14263.03669-.30696.001c-.85309.0022-1.3163-.41269-1.4867-1.3312l-.03204-.17002h3.6044l.11214-.03307c.1297-.03851.21002-.12054.25166-.25786l.02842-.09302-.0021-.35037-.0015-.35088-.03772-.1974c-.25292-1.3331-1.3896-2.1358-2.5993-2.1723zm24.335 0c-.72567-.02179-1.4773.23226-2.08.81287l-.20567.19792-.14832.22428c-.23543.35598-.38857.74872-.47697 1.2227l-.0372.1974v.87695l.0398.23823c.23624 1.4154 1.1027 2.3364 2.3962 2.5461l.19327.03101.40566-.0078.40566-.0083.21911-.04702c.69755-.15026 1.2764-.44821 1.7472-.89969l.1943-.18604-.25166-.33228-.25115-.33228-.12247-.05994-.12248-.06046-.13642.0124-.13643.0124-.43821.22169c-.24117.12184-.50246.23803-.58085.25838l-.14262.03669-.30696.001c-.8531.0022-1.3168-.41269-1.4872-1.3312l-.0315-.17002h3.6044l.11162-.03307c.12969-.03851.21046-.12054.25218-.25786l.0279-.09302-.002-.35037-.002-.35088-.0372-.1974c-.25296-1.3331-1.3898-2.1357-2.5993-2.1725zm-18.362.02997-.24133.03411c-1.5608.22144-2.5269 1.506-2.4598 3.2706.06136 1.6132.92594 2.7378 2.295 2.9838l.16433.02894.8108-.0166.18655-.04341c.6368-.14798 1.1155-.40828 1.5942-.86713.27104-.25945.27049-.18841.0041-.52813-.24321-.31035-.27445-.3417-.40256-.40979l-.08682-.04651-.11059.0016c-.15016.0014-.30195.063-.54932.22324-.5426.35151-1.0398.40776-1.5229.1726l-.14263-.06925-.15348-.15555c-.62847-.63619-.64187-2.1506-.0248-2.8122l.15038-.16123.15658-.07493c.28466-.13601.66422-.17811.9896-.11059l.15348.03101.33952.17002.34003.17002.15348.000517.15348.001.10284-.06046c.1382-.08124.27083-.22274.46767-.49816l.16433-.22996-.08217-.07235c-.52298-.45641-.9929-.71836-1.5265-.85163l-.22221-.05581-.35088-.01137zm6.4017.01757-.49351.000517h-.49351l-.21187.04703c-1.3856.30817-2.19 1.2895-2.2975 2.8024-.07643 1.0751.23458 2.0065.88573 2.6515l.24391.24133.19017.11679c.33465.20585.7083.34168 1.1245.40876l.19689.03204.87695-.0166.21239-.04599c1.4922-.32277 2.3382-1.5413 2.2691-3.2685-.0631-1.5783-.87018-2.6125-2.28-2.9208zm15.358.0057v6.274h1.5787v-1.8583c.00048-2.0369.003-2.0816.12351-2.327l.0791-.16175.13436-.13384.13436-.13436.16433-.08165c.29438-.14708.49671-.17532 1.078-.1478l.21291.01034.0677-.0646c.0788-.0754.11797-.19116.21911-.64544.0386-.17362.0794-.33983.0904-.36897s.0202-.06083.0202-.0708c0-.02597-.3821-.19037-.54932-.23616l-.14159-.03824h-.74518l-.20825.07183c-.27778.09612-.48207.22114-.66353.40514-.0824.08358-.15333.14846-.15761.14418-.004-.0043-.0472-.08872-.0966-.18758-.11042-.2207-.20337-.32925-.33228-.38861l-.0982-.04496-.45527-.0083zm9.0899.0031-.10284.03462c-.24395.08103-.19024-.02636-1.062 2.1084l-.65525 1.6051-.0248-.05943c-.0137-.0327-.31895-.77475-.67799-1.649-.79675-1.9401-.75432-1.8524-.9524-1.9689l-.10077-.05891-.76171-.0067c-.41904-.0036-.76171-.000959-.76171.0057 0 .0067.55201 1.2789 1.2273 2.8277l1.2278 2.8164-.0868.19792c-.21649.49197-.44662.71462-.91054.88108l-.13177.04703-.10077.10335c-.0612.06266-.11501.14502-.13694.20929l-.0362.10594v.97875h.13695c.89186-.000574 1.8449-.5738 2.3322-1.403.0461-.07838.72648-1.6322 1.5126-3.453l1.4294-3.3104-.68161-.0057zm-16.846.000517-.092.03256c-.25121.08863-.24498.0771-1.0335 2.0397-.38987.9703-.71542 1.7571-.72399 1.7482-.0146-.01558-.36149-.89176-1.0361-2.6148-.42346-1.0816-.40589-1.0465-.59221-1.1462l-.0904-.04806-.74207-.0067c-.40806-.0036-.73722.000658-.73122.01034.006.0096.5637 1.3845 1.2397 3.0546.67601 1.6701 1.2445 3.0738 1.2635 3.1192l.0341.08217 1.3022-.0114 1.278-3.1233c.70285-1.7179 1.278-3.1266 1.278-3.13s-.30466-.0057-.67696-.0057zm41.376.04496c-.72552-.02165-1.4774.2324-2.08.81287l-.20515.19792-.1478.22428c-.23544.35599-.38909.74872-.47749 1.2227l-.0367.1974v.87695l.0393.23823c.23626 1.4154 1.1038 2.3364 2.3973 2.5461l.19223.03101.40566-.0078.40566-.0083.21911-.04703c.69754-.15026 1.2759-.44821 1.7467-.89969l.19482-.18604-.25114-.33228-.25167-.33228-.12247-.05994-.12299-.06046-.27182.0248-.43925.22169c-.24117.12184-.50245.23803-.58084.25838l-.14263.03669-.30644.001c-.8531.0022-1.3163-.41269-1.4867-1.3312l-.032-.17002h3.6044l.11214-.03307c.1297-.03851.20951-.12106.25115-.25838l.0279-.0925-.002-.35037-.002-.35088-.0377-.1974c-.25292-1.333-1.3895-2.1355-2.5988-2.1725h-.00051zm17.058 0c-.72568-.02179-1.4773.23226-2.08.81287l-.20568.19792-.14831.22428c-.23543.35599-.38857.74872-.47697 1.2227l-.0372.1974v.87695l.0398.23823c.23625 1.4154 1.1033 2.3364 2.3968 2.5461l.19275.03101.40566-.0078.40566-.0083.21911-.04703c.69754-.15026 1.2759-.44821 1.7467-.89969l.19482-.18604-.25166-.33228-.25115-.33228-.12247-.05994-.12248-.06046-.13642.0124-.13643.0124-.43821.22169c-.24118.12184-.50245.23803-.58085.25838l-.14262.03669-.30696.001c-.8531.0022-1.3168-.41269-1.4872-1.3312l-.0315-.17002h3.6044l.11162-.03307c.12969-.03851.21054-.12106.25218-.25838l.0279-.09198-.004-.70177-.0372-.1974c-.25296-1.3331-1.3898-2.1357-2.5993-2.1725zm-100.55.04392c-.64078-.0226-1.153.1055-1.5978.39998-.09045.05987-.17143.11181-.17828.11524-.0072.0034-.02949-.0375-.05013-.09147-.05097-.13348-.18603-.26664-.34882-.34365l-.13591-.06408h-.9095v3.1352l.000517 3.1352h1.5782v-4.27l.1509-.14211c.743-.70091 1.6472-.66575 1.9146.07441l.05064.13953.0057 2.0991.0062 2.0991h1.6004l-.0072-2.2092-.0083-2.2087-.03721-.15348c-.2208-.90754-.70611-1.4473-1.4831-1.649l-.20877-.05374zm71.079.0036-.49299.000516-.21239.04754c-1.3856.30817-2.19 1.289-2.2975 2.8019-.0764 1.0751.2351 2.0065.88625 2.6515l.24339.24133.19017.11679c.33465.20585.70778.34168 1.124.40876l.1974.03204.87695-.0166.21291-.04599c1.4922-.32277 2.3382-1.5413 2.2691-3.2685-.0631-1.5783-.87069-2.6125-2.2805-2.9208l-.22376-.04857zm5.5144 0-.2465.05839c-.50645.11942-.84142.30008-1.1674.6289l-.20826.20981-.092.16485c-.41592.7437-.29145 1.6933.29714 2.267l.11007.10749-.11369.12609c-.14474.16039-.25336.34065-.31574.52348l-.0491.14366-.001.20102-.00051.2005.0434.14004c.0239.07731.0833.1986.13281.26923l.0904.12867-.0351.01912c-1.482.82935-.52134 2.7488 1.5002 2.9978.0907.01108.39101.0173.66818.01344l.50436-.0072.19741-.03566c1.4833-.26984 2.3941-1.3183 2.1492-2.4738-.17465-.82418-.83323-1.1322-2.5218-1.1787-.98216-.02707-1.1887-.05718-1.2728-.18552l-.0357-.05426.0243-.0739c.0135-.04067.0527-.10068.0873-.13384l.063-.06046.21239.02635c.13548.01703.34863.02279.58859.01499l.37672-.0124.23306-.05529c.84275-.19775 1.438-.71442 1.6335-1.4185l.0387-.14108-.00051-.32918-.00052-.32814-.0331-.11317-.0331-.11266.13333-.01395c.29857-.0316.50229-.14591.58549-.32918l.0403-.0894.001-.39998.00052-.39998h-.89762c-.52834 0-.90231-.0082-.91002-.02015-.0219-.03537-.40913-.17524-.6258-.22583l-.20826-.04857h-.4718zm-70.595.0026-.47129.000517h-.47129l-.2465.05839c-.50644.11942-.84194.29956-1.1679.62839l-.20774.21032-.0925.16433c-.41592.7437-.29137 1.6938.29714 2.2676l.11059.10749-.1142.12557c-.14475.16039-.25285.34117-.31523.524l-.04961.14366v.2005l-.001.2005.04341.14056c.02388.07731.0844.19808.13384.26872l.08992.12867-.03566.01964c-1.4821.82941-.52112 2.7485 1.5007 2.9972v.000517c.09044.01109.39135.01678.66869.01292l.50436-.0067.1974-.03566c1.4833-.26984 2.3941-1.3188 2.1492-2.4743-.17466-.82418-.83376-1.1322-2.5223-1.1787-.98217-.02707-1.1887-.05718-1.2728-.18552l-.03566-.05374.02429-.0739c.01341-.04067.05323-.10119.08785-.13436l.06305-.06046.21239.02687c.13547.01703.34863.02227.5886.01447l.37672-.0124.23254-.05478c.84276-.19776 1.438-.71442 1.6335-1.4185l.03927-.14108-.000516-.32918-.001-.32866-.03256-.11266-.03307-.11265.13332-.01447c.29856-.0316.5017-.14591.58498-.32918l.04031-.08888.000517-.39998.000516-.40049h-.89762c-.52833 0-.90283-.0082-.91054-.02015-.02186-.03537-.40861-.17472-.62528-.22531zm97.945.0031v3.1373l-.002 3.1373h1.5787l.002-1.8583c.00048-2.0369.003-2.0822.12351-2.3275l.0791-.16175.13488-.13384.13384-.13436.16433-.08165c.29437-.14708.49724-.17481 1.0785-.14728l.21239.0098.0677-.06459c.0788-.0754.11796-.19116.21911-.64544.0386-.17362.0798-.33983.091-.36897.011-.02914.0196-.06084.0196-.0708 0-.02597-.38159-.19038-.5488-.23616l-.1416-.03824h-.74517l-.20877.07183c-.27777.09612-.48207.22114-.66353.40514-.0824.08357-.15282.14846-.1571.14418-.004-.0043-.0478-.08872-.0971-.18759-.1104-.2207-.20286-.32925-.33176-.38861l-.0987-.04496-.45476-.0083zm-129.07.0067.0088 2.1539.0088 2.1544.03617.1788c.20516 1.0098.78407 1.622 1.6764 1.7725h.001c.69157.11614 1.4665-.0455 2.0004-.41703l.13849-.09612.0708.13332c.12204.22842.22227.30055.49403.35605l.16898.03462h.72554v-6.2704h-1.6009v4.2793l-.12557.12092c-.73712.71103-1.6892.68253-1.941-.05839l-.04858-.14314-.0062-2.0991-.0062-2.0996h-.80047zm6.6683 0v6.2704h1.5999v-6.2704H43.318zm12.343 0v6.2704h1.6004v-6.2704h-.80047zm27.973 1.2237.25166.0016.25218.0021.13694.04444c.35539.11477.75086.59872.75086.91881 0 .0039-.53718.0067-1.1937.0067h-1.1937l.03411-.11524c.12442-.42352.4126-.71155.81907-.8201zm24.336 0 .25218.0016.25218.0021.13695.04444c.35539.11477.75086.59872.75086.91881 0 .0039-.53667.0067-1.1932.0067h-1.1937l.0336-.11524c.12444-.42352.4126-.71155.81907-.8201zm-12.058.02584.18604.03462c.10249.01946.25026.06665.32866.1049l.14263.06976.14314.14469.14263.14418.08217.16743c.04541.092.10825.26441.13953.38344l.05736.21652.01085.39222c.02973 1.0488-.26793 1.6479-.91519 1.8433-.493.14882-1.1402-.0032-1.4252-.33538-.44234-.51562-.53326-1.7595-.18138-2.4794l.08062-.1664.15451-.15555c.23667-.23872.45361-.32991.83458-.35192zm42.949.03514.18759.02429c.42725.05515.68157.28105.72398.64234l.0145.11937-.0367.14159c-.0636.24839-.20151.39014-.46664.47956-.51302.17262-1.1384-.0045-1.3069-.37052l-.0455-.0987-.00052-.18655-.001-.18604.0517-.11576c.10605-.23598.34192-.3799.69763-.42581zm-71.537.0031.1881.02429c.42724.05515.68149.28053.72399.64182l.01395.11937-.03617.14159c-.06357.24852-.20124.39015-.46664.47956-.5131.17285-1.1389-.0044-1.3074-.37052l-.04547-.0987-.000517-.18655-.000517-.18552.05219-.11627c.10605-.23598.34139-.37938.69712-.4253zm77.665.03772.2527.0021.25166.0016.13695.04444c.35538.11477.75137.59872.75137.91881h-.00052c0 .0039-.53717.0067-1.1937.0067h-1.1937l.0341-.11472c.12443-.42352.41209-.71207.81855-.82062zm17.058 0 .25167.0021.25218.0016.13694.04444c.35538.11477.75086.59872.75086.91881 0 .0039-.53718.0067-1.1937.0067h-1.1937l.0341-.11472c.12442-.42352.4126-.71207.81907-.82062zm-110.43.0233c.37291-.0044.77766.1854 1.111.58601l.10697.12868v2.4076l-.13643.11421c-.16636.1385-.39316.24901-.59841.29249-1.1779.24951-1.9346-1.0195-1.542-2.5864.15298-.61064.57939-.93698 1.0588-.94258zm81.36.0026.18655.03514c.1025.01946.25026.06665.32866.1049l.14263.06976.14263.14418.14314.14469.0822.16692c.0454.092.10825.26441.13952.38344l.0574.21652.0108.39222c.0297 1.0488-.26794 1.6479-.91519 1.8433-.49301.14882-1.1408-.0032-1.4258-.33538-.44234-.51562-.53325-1.7595-.18138-2.4794l.0811-.16588.15452-.15555c.23665-.23872.45307-.33042.83405-.35243zm-102.15 1.126h.83922c.87976 0 1.1115.01554 1.3632.09043 1.2109.36022 1.0876 1.9076-.17415 2.1833l-.154.03359-1.8743.02067v-1.1638zm107.27 3.2148.13901.02687c.0763.01475.44474.03474.81855.04444l.67955.01757.17001.04496c.87728.23237.47446.90953-.60099 1.0103-1.4021.13134-2.1902-.47132-1.3591-1.0392zm-71.537.0031.13901.02635c.07634.01475.44422.03526.81804.04496l.67955.01757.17002.04496c.87728.23237.47496.90902-.60048 1.0098-1.4021.13134-2.1907-.47132-1.3596-1.0392z"/>
</svg>
