<svg xmlns="http://www.w3.org/2000/svg" xml:space="preserve" viewBox="0 0 79.375 23.813">
  <path d="M37.326 15.692c-1.659-.101-2.687-1.1-2.625-2.55.074-1.731 1.463-2.444 4.98-2.556l.547-.017-.015-.292c-.098-1.855-2.338-2.3-4.162-.825l-.07.057-.064-.076-.41-.495-.348-.42.128-.113c.754-.67 1.9-1.058 3.126-1.058h.485l.31.055c1.365.243 2.182 1.032 2.443 2.36l.044.224.019 2.462.02 2.462.042.289.043.294c0 .004-.318.007-.707.007-.454 0-.708-.01-.708-.026 0-.015-.019-.136-.042-.269a5.724 5.724 0 0 1-.059-.541c-.02-.345-.038-.367-.161-.193-.546.77-1.67 1.299-2.62 1.233l-.196-.012zm1.051-1.254c.917-.157 1.524-.71 1.755-1.598l.068-.261.014-.443.014-.443-.678.017c-1.928.049-2.845.354-3.174 1.057l-.071.153v.628l.061.152c.233.582 1.09.897 2.011.738zm19.842 1.244c-2.133-.175-3.587-1.646-3.76-3.803l-.028-.348.03-.353c.2-2.415 2.056-4.017 4.433-3.825 2.195.178 3.452 1.698 3.452 4.177v.46H56.03l.018.15c.12 1.05.816 1.86 1.865 2.17l.23.069.373.014c.967.036 1.751-.32 2.341-1.065l.092-.116.543.439.542.438-.104.125c-.742.886-1.72 1.376-2.936 1.468-.383.03-.42.03-.774 0zm2.546-5.063c-.045-.591-.256-1.068-.647-1.462l-.224-.225-.247-.122a3.045 3.045 0 0 0-.457-.178l-.21-.055-.406-.002-.406-.002-.23.058c-.87.219-1.546.846-1.797 1.665-.063.204-.113.486-.093.519.008.012 1.076.022 2.374.022h2.36zm-39.64 1.076a264.651 264.651 0 0 0-.03-3.969l-.017-.164h1.467l.018.22c.01.122.026.413.035.647.02.506.027.512.214.201 1.084-1.8 3.9-1.71 4.782.156l.07.147.052-.09c.594-.996 1.485-1.497 2.667-1.498 1.531 0 2.51.801 2.86 2.344l.056.244.01 2.784.01 2.783h-1.545l-.01-2.482-.009-2.482-.045-.248c-.209-1.139-.861-1.719-1.844-1.64-.958.076-1.57.69-1.821 1.822l-.056.249-.01 2.39-.01 2.39h-1.54l-.01-2.612-.01-2.613-.043-.215c-.093-.459-.226-.738-.466-.984l-.174-.177-.193-.089c-1.198-.55-2.398.188-2.765 1.7l-.044.184-.01 2.403-.01 2.404h-1.566zM43.74 9.16V2.82h1.572V15.5h-1.571zm4.245 2.995-1.616-3.97-.254-.623.865.007.864.006 1.1 2.948c1.322 3.546 1.229 3.3 1.253 3.3.01 0 .548-1.408 1.195-3.13l1.176-3.13h1.657l-.917 2.285-1.589 3.962-.672 1.677-.85.006-.85.007zm16.03-.46a264.651 264.651 0 0 0-.03-3.969l-.016-.164h1.466l.02.256c.01.14.026.437.035.66.018.471.035.495.172.247a2.657 2.657 0 0 1 2.29-1.38c.3-.005.565.019.623.055l.03.018-.036.708-.036.709-.205-.035a2.879 2.879 0 0 0-.582-.024l-.38.013-.17.052c-.746.227-1.248.755-1.478 1.554-.116.405-.12.515-.12 2.867V15.5H64.03zm5.184 0a264.651 264.651 0 0 0-.03-3.969l-.017-.164h1.467l.019.22c.01.122.025.413.035.647.02.493.03.51.174.253.935-1.69 3.803-1.798 4.877-.184.53.798.558 1.016.558 4.394V15.5H74.74l-.011-2.482-.011-2.482-.042-.236c-.185-1.036-.636-1.528-1.502-1.64l-.24-.03-.251.03c-1 .118-1.707.903-1.875 2.085-.015.11-.026 1.096-.026 2.47V15.5h-1.569z" style="fill:#046c68;fill-opacity:1;stroke-width:.509031" transform="translate(.4 1.396)"/>
  <path d="M107.15 78.388c-1.492-1.466-3.075-3.055-3.52-3.533-1.52-1.635-9.15-9.245-9.223-9.2-.04.026-.074-.033-.074-.13 0-.096.03-.193.067-.216.036-.022.382.09.768.248 3.02 1.244 3.883 1.578 5.186 2.006 3.887 1.275 7.58 1.902 11.197 1.902 2.216-.047 4.46-.392 6.65-.933 2.558-.664 5.57-1.925 7.745-3.243 2.715-1.646 4.772-3.24 6.843-5.302 2.348-2.337 4.358-4.912 6.307-8.078.469-.761.768-1.14.9-1.14.04 0 .01.147-.066.328-.076.181-.319.804-.539 1.383-1.09 2.868-3.76 7.933-6.152 11.666-.813 1.269-2.92 4.233-3.725 5.24-1.436 1.797-4.395 4.815-6.213 6.337-2.724 2.28-6.534 4.24-9.437 4.856-1.052.223-2.871.472-3.45.473h-.554z" style="fill:#424243;fill-opacity:1" transform="translate(-32.724 -9.885) scale(.37543)"/>
  <path d="M97.476 55.626c-.025-.04-.26-.623-.524-1.295-1.066-2.723-1.36-4.12-1.433-6.796-.103-3.813.258-5.362 1.79-7.676 1.072-1.618 3.11-3.437 4.985-4.45.653-.352.749-.379 1.361-.376.613.003.94.098 4.74 1.374 5.066 1.701 11.202 3.787 11.513 3.913.449.182.38.287-.15.225-.845-.1-4.438.305-5.657.637-3.084.84-4.705 1.534-6.81 2.915-1.48.97-2.257 1.616-3.815 3.173-2.007 2.004-3.548 4.158-4.923 6.882-.733 1.453-.927 1.717-1.077 1.474z" style="fill:#6b6d70" transform="translate(-32.724 -9.885) scale(.37543)"/>
  <path d="M100.301 74.09c-.165.06-.44.237-.613.394-1.003.91-3.133.97-4.693.13-.639-.343-1.418-.953-1.946-1.522-.293-.315-.743-1.35-.94-2.166-.744-3.058-1.146-5.31-1.276-7.153-.022-.31-.083-.872-.135-1.247-.052-.376-.07-.7-.04-.722.06-.043 1.222.341 1.89.625 1.063.451 4.127 2.128 5.295 2.897.38.25.755.473.833.496a.71.71 0 0 1 .278.2c.073.087.423.435.778.773.799.762 1.423 1.647 1.596 2.26.36 1.28.226 2.931-.319 3.951-.155.291-.31.63-.345.752-.05.177-.124.246-.363.332z" style="fill:#99d544;fill-opacity:1;stroke-width:1.0128" transform="translate(-27.954 -14.595) scale(.37543)"/>
  <path d="M99.84 74.853a2.304 2.304 0 0 0-.545-.476c-1.14-.704-1.812-2.726-1.48-4.455.135-.709.478-1.627.856-2.293.21-.37 1.045-1.092 1.748-1.512 2.639-1.575 4.624-2.595 6.305-3.24.284-.108.79-.325 1.126-.481.335-.156.633-.265.661-.243.058.046.036 1.266-.035 1.986-.114 1.144-.79 4.551-1.17 5.886-.123.434-.223.856-.221.938a.706.706 0 0 1-.106.322c-.06.095-.284.528-.497.962-.48.98-1.124 1.828-1.647 2.166-1.09.706-2.67 1.045-3.778.811-.317-.066-.678-.12-.802-.118-.18.003-.266-.05-.415-.253z" style="fill:#99d544;fill-opacity:1" transform="translate(-27.954 -14.595) scale(.37543)"/>
  <path d="M100.231 72.663a1.616 1.616 0 0 0-.027.601c.172 1.104-.975 2.597-2.527 3.288-.636.283-1.565.543-2.32.647-.42.058-1.507-.103-2.276-.337-2.886-.88-4.928-1.627-6.488-2.375a22.81 22.81 0 0 0-1.082-.474c-.333-.135-.605-.27-.606-.3 0-.06.961-.686 1.565-1.017.96-.526 4.033-1.872 5.309-2.326.415-.147.805-.304.868-.348a.8.8 0 0 1 .316-.1c.112-.01.59-.093 1.06-.183 1.065-.203 2.129-.23 2.72-.07 1.236.334 2.493 1.176 3.01 2.014.148.24.334.5.414.58.115.114.128.197.064.4z" style="fill:#99d544;fill-opacity:1;stroke-width:.91167" transform="translate(-27.954 -14.595) scale(.37543)"/>
  <path d="M100.186 74.645c.03-.144.015-.414-.033-.6-.281-1.09.713-2.656 2.19-3.452.605-.326 1.506-.649 2.248-.805.411-.087 1.511-.001 2.301.18 2.964.676 5.074 1.28 6.703 1.918.274.107.781.286 1.126.398.345.111.63.227.633.257.007.06-.889.75-1.458 1.121-.904.59-3.831 2.144-5.058 2.684-.398.176-.772.36-.83.407a.777.777 0 0 1-.305.122c-.11.018-.578.134-1.039.256-1.04.276-2.097.377-2.703.258-1.264-.248-2.602-1-3.2-1.8a4.557 4.557 0 0 0-.47-.55c-.127-.106-.148-.187-.105-.394z" style="fill:#99d544;fill-opacity:1;stroke-width:.91167" transform="translate(-27.954 -14.595) scale(.37543)"/>
  <path d="M101.62 75.64a2.303 2.303 0 0 0-.4-.601c-.916-.977-1.036-3.105-.264-4.687.316-.649.887-1.445 1.426-1.99.299-.3 1.295-.78 2.083-1 2.96-.831 5.142-1.296 6.934-1.479.302-.03.847-.107 1.211-.17.365-.063.681-.09.702-.061.044.058-.296 1.231-.553 1.907-.409 1.075-1.953 4.186-2.669 5.375-.233.387-.44.768-.459.847a.71.71 0 0 1-.186.283c-.083.076-.412.436-.731.8-.72.82-1.564 1.47-2.157 1.66-1.237.395-2.85.31-3.859-.206-.288-.148-.622-.293-.743-.324-.174-.045-.243-.118-.334-.353z" style="fill:#05a2ae;fill-opacity:1" transform="translate(-27.954 -14.595) scale(.37543)"/>
  <path d="M100.367 74.347a2.321 2.321 0 0 0-.448.568c-.645 1.175-2.63 1.949-4.374 1.705a8.304 8.304 0 0 1-2.333-.739c-.38-.19-1.144-.988-1.599-1.67-1.707-2.555-2.826-4.486-3.555-6.132a21.652 21.652 0 0 0-.538-1.1c-.173-.326-.297-.618-.276-.648.042-.06 1.262-.1 1.985-.065 1.149.055 4.585.558 5.938.87.44.1.866.179.947.173a.71.71 0 0 1 .327.09c.098.055.542.256.987.446 1.003.43 1.882 1.031 2.247 1.536.76 1.053 1.179 2.612 1.001 3.732-.05.32-.085.683-.077.807.012.18-.036.267-.232.427z" style="fill:#3bb751;fill-opacity:1" transform="translate(-27.954 -14.595) scale(.37543)"/>
  <path d="M100.9 75.088a2.304 2.304 0 0 0-.723-.036c-1.33.155-3.112-1.014-3.925-2.576-.333-.64-.633-1.573-.75-2.33-.064-.42.143-1.505.435-2.27 1.093-2.873 2.017-4.904 2.937-6.452.155-.261.417-.745.584-1.076.166-.33.332-.6.368-.6.073 0 .813.97 1.204 1.58.62.968 2.202 4.06 2.732 5.342.173.417.356.81.408.873a.71.71 0 0 1 .117.318c.012.112.105.59.208 1.064.23 1.066.25 2.13.05 2.72-.417 1.23-1.445 2.475-2.46 2.98-.29.144-.606.326-.703.404-.14.114-.239.126-.483.059z" style="fill:#007167" transform="translate(-27.954 -14.595) scale(.37543)"/>
</svg>
