<svg xmlns="http://www.w3.org/2000/svg" width="500" height="150" viewBox="0 0 132.29 39.688">
  <path d="M0 19.844V0h132.29v39.687H0z" style="stroke-width:1.0484"/>
  <path d="M91.414 14.012c-.677 0-1.036.314-1.036.905 0 .308.105.572.28.7.383.28 1.121.257 1.455-.045.612-.553.16-1.56-.699-1.56m12.685.001q-.058 0-.117.007c-.519.054-1.035.41-1.035.897 0 .76 1.233 1.2 1.836.655.343-.31.355-.92.025-1.285-.177-.195-.438-.278-.709-.274m-21.061.451c-1.95 0-2.13.023-2.083.264.028.146.286.34.577.435l.526.17v9.272l-.526.17c-.291.095-.55.29-.577.435-.047.246.218.264 3.873.264 2.229 0 3.96-.06 4.01-.139.047-.076.04-.822-.014-1.658-.086-1.312-.136-1.52-.365-1.52-.195 0-.384.328-.714 1.244l-.45 1.244-3.503.085-.033-1.701c-.064-3.34-.04-7.137.047-7.424.054-.177.32-.356.677-.457.35-.098.609-.27.639-.424.045-.236-.147-.26-2.084-.26zm40.687 2.78c-.202.004-.51.126-.946.362l-.841.456-.69-.306c-.551-.244-.925-.293-1.842-.247-1.404.071-2.17.413-2.691 1.2-.699 1.055-.283 2.745.81 3.297.236.119.454.232.485.252s-.122.248-.34.507c-.489.582-.503 1.107-.043 1.567l.352.352-.571.252c-1.854.818-1.73 2.92.213 3.608.838.297 2.724.306 3.692.019 1.57-.467 2.365-1.793 1.754-2.926-.409-.756-1.04-1.12-2.761-1.592-1.824-.5-2.056-.643-1.92-1.187.097-.383.145-.4 1.116-.404 2.215-.007 3.455-1.29 3.039-3.145-.082-.364-.129-.678-.105-.697.023-.02.382-.096.796-.17.709-.125.758-.163.802-.623.034-.35-.03-.537-.228-.57a.4.4 0 0 0-.081-.006m-18.968.196-.698.095c-1.715.235-2.426.732-1.339.936l.529.099v6.127l-.529.174c-.29.096-.527.27-.527.389 0 .174.345.214 1.81.214 1.472 0 1.81-.04 1.81-.216 0-.12-.238-.302-.528-.407l-.528-.191v-3.61zm-12.67.002-.78.103c-.898.12-1.784.455-1.784.676 0 .083.238.196.528.25l.528.099v6.121l-.453.158c-.248.086-.452.263-.452.391 0 .198.268.234 1.745.234 1.568 0 1.741-.026 1.696-.258-.027-.142-.27-.322-.539-.399l-.489-.14v-3.618zm17.194 0-.78.103c-.898.12-1.784.455-1.784.676 0 .083.238.196.528.25l.528.099v6.127l-.528.174c-.29.096-.528.271-.528.389 0 .174.347.214 1.822.214 1.389 0 1.809-.045 1.765-.188-.032-.104-.274-.29-.538-.415l-.479-.226-.003-2.23c-.003-1.943.037-2.308.3-2.827.552-1.08 1.815-1.523 2.595-.908.588.463.72 1.147.721 3.722l.001 2.282-.453.187c-.249.103-.452.281-.452.396 0 .164.361.207 1.734.207 1.407 0 1.735-.04 1.735-.216 0-.12-.231-.3-.514-.402l-.514-.186-.055-2.728c-.05-2.447-.09-2.79-.384-3.347-.402-.76-1.085-1.115-2.145-1.115-.94 0-1.49.264-2.106 1.012l-.466.566v-.808zm-14.027.19c-1.361 0-1.659.04-1.659.222 0 .122.187.32.415.441.346.183.66.805 1.913 3.784 1.469 3.492 1.507 3.563 1.885 3.468.213-.054.394-.109.404-.123a575 575 0 0 0 1.385-3.494c1.264-3.203 1.404-3.483 1.83-3.658.255-.104.463-.29.463-.415 0-.184-.252-.226-1.357-.226-1.092 0-1.357.044-1.357.222 0 .121.152.3.339.397.186.097.36.194.386.215.026.022-.338 1.15-.809 2.506-.47 1.357-.886 2.57-.923 2.694-.047.154-2.103-4.824-2.158-5.223-.001-.011.2-.104.45-.207.249-.103.452-.281.452-.395 0-.164-.35-.209-1.659-.209zm24.182.678c.665 0 .906.071 1.21.356.689.648.632 2.105-.106 2.717-.377.312-1.462.365-1.942.094-.556-.313-.72-.67-.72-1.565 0-.581.083-.853.363-1.178.317-.369.472-.424 1.195-.424m-1.019 6.53 1.276.343c1.847.499 2.52 1.292 1.875 2.213-.395.565-1.79.794-2.89.476-1.106-.32-1.469-1.681-.682-2.562zm4.9 6.623q-.1 0-.237.016c-.483.056-.527.103-.527.555 0 .367.077.514.301.573a.4.4 0 0 1 .302.386c0 .375-.292.584-.452.324-.065-.104-.194-.142-.287-.084-.276.17-.031.386.438.386.269 0 .518-.12.653-.311.309-.44.144-.894-.36-.995-.516-.103-.437-.504.1-.504.198 0 .36-.088.36-.196 0-.101-.092-.15-.292-.15m-5.31.045q-.707.002-.44.44c.097.155.16.137.284-.083s.199-.242.34-.102c.223.22-.033.937-.478 1.34-.44.398-.35.516.39.516.579 0 .68-.045.68-.302 0-.166-.069-.301-.152-.301s-.15.068-.15.15c0 .083-.13.151-.29.151-.252 0-.232-.058.15-.44.69-.69.524-1.37-.334-1.37m1.777 0c-.509 0-.7.288-.7 1.055 0 .382.081.776.181.875.288.288.837.21 1.092-.154.473-.675.118-1.776-.573-1.776m-7.328.01-.121.002c-.477.006-.783.046-.68.087.121.049.19.394.19.956s-.069.908-.19.956c-.103.042.203.082.68.088.77.01.867-.022.867-.29 0-.166-.068-.301-.151-.301s-.151.101-.151.226c0 .126-.134.226-.301.226-.237 0-.302-.1-.302-.47 0-.396.048-.458.302-.391.188.05.301.005.301-.12 0-.123-.113-.168-.301-.118-.245.064-.302.004-.302-.316 0-.294.077-.394.302-.394.166 0 .301.067.301.15s.068.15.15.15c.084 0 .152-.1.152-.225 0-.165-.169-.217-.746-.216m8.8.007c-.37.007-.581.202-.433.441.083.136.148.12.25-.062.209-.373.424-.294.424.155 0 .22-.17.623-.377.895-.207.271-.377.532-.377.58 0 .046.306.085.679.085.49 0 .678-.06.678-.217 0-.12-.068-.26-.15-.311-.083-.051-.151-.021-.151.067s-.143.16-.318.16c-.294 0-.284-.038.147-.528.561-.64.475-1.176-.203-1.257a1 1 0 0 0-.168-.008m-1.455.173c.19-.016.312.692.22 1.318-.07.474-.287.6-.423.243-.134-.348.003-1.498.184-1.558zm-4.673.112-.042.003c-.115.012-.232.077-.24.185-.03.388.046 1.398.113 1.507.102.165.622.14.73-.035.053-.086-.008-.11-.142-.06-.188.073-.234-.03-.234-.529 0-.482.059-.623.264-.637.252-.017.252-.02 0-.086-.145-.038-.264-.132-.264-.209 0-.093-.086-.137-.185-.139m-1.006.302q-.055 0-.112.007c-.202.023-.413.106-.52.235-.17.206-.158.273.086.452.158.115.342.21.409.21s.122.101.122.226c0 .257-.236.303-.379.073-.106-.173-.375-.056-.375.162 0 .16.602.19.968.05.358-.137.288-.45-.176-.788-.228-.166-.366-.351-.306-.411s.202-.032.316.062c.218.18.452.07.316-.15-.055-.088-.192-.128-.35-.128m2.082 1.09a.3.3 0 0 0-.139.041c-.169.105-.058.376.153.376.073 0 .172-.063.22-.14.084-.136-.055-.27-.214-.276z" style="fill:#a7b693"/>
  <path d="M38.846 14.175v.375c0 .31.1.398.566.509l.565.134.08 9.25-.605.182c-.415.124-.606.267-.606.452 0 .332.849.409 3.997.363 1.644-.024 2.245-.09 2.715-.299 2.29-1.015 3.346-2.947 3.214-5.88q-.15-3.335-2.659-4.562c-.841-.412-.914-.42-4.062-.471zm14.692.038c-.858.008-1.213.08-1.684.308-1.266.613-1.85 2.156-1.331 3.516.336.88 1.298 1.743 2.77 2.483 1.574.791 2.144 1.357 2.144 2.132 0 .785-.258 1.303-.818 1.64-.693.417-1.491.515-2.108.257-.535-.224-.67-.503-1.081-2.241-.072-.302-.192-.415-.44-.415-.311 0-.359.105-.512 1.137-.283 1.9-.28 1.907 1.188 2.385.447.146 2.767.094 3.33-.074.714-.214 1.573-.91 1.902-1.539.153-.29.25-.838.252-1.407.004-1.5-.542-2.12-3.071-3.489-.622-.337-1.323-.813-1.558-1.058-.895-.935-.57-2.406.602-2.73.582-.16 1.655-.073 1.952.16.091.071.285.57.431 1.11.23.845.313.98.612.98.312 0 .365-.106.524-1.045.26-1.538.205-1.711-.602-1.921-.373-.097-1.319-.182-2.102-.189zm-29.322.139c-1.95 0-2.112.021-2.112.278 0 .193.184.332.604.458l.603.181v9.176l-.603.18c-.42.126-.603.266-.603.46 0 .256.16.277 2.111.277s2.111-.021 2.111-.278c0-.193-.183-.333-.603-.458l-.603-.18v-9.177l.603-.18c.42-.127.603-.266.603-.46 0-.256-.16-.277-2.111-.277m12.055 0c-1.652 0-1.816.024-1.77.264.028.145.304.4.614.565l.563.302v3.419c.001 1.88.04 3.543.086 3.695s-.073-.005-.265-.35c-.19-.343-1.433-2.259-2.76-4.256l-2.414-3.632-1.47-.004c-1.2-.003-1.471.038-1.471.22 0 .123.271.361.603.53l.603.309v8.895l-.603.241c-.406.163-.603.335-.603.527 0 .264.135.285 1.82.285 1.653 0 1.818-.025 1.773-.264-.027-.145-.303-.388-.614-.54l-.566-.277-.003-3.645c0-2.005-.044-3.814-.095-4.022-.05-.207.278.2.73.905.453.705 1.82 2.792 3.04 4.638l2.217 3.356h1.2V15.466l.602-.266q.605-.267.604-.557c0-.27-.124-.29-1.82-.29zm25.716 0c-3.592 0-3.854.018-3.807.264.03.158.305.345.69.466l.64.204v9.143l-.64.202c-.385.122-.66.308-.69.467-.047.246.222.264 3.958.264h4.007v-.886c0-1.38-.132-1.853-.504-1.8-.23.034-.413.3-.683.99l-.368.942h-3.422v-4.525l1.17.001 1.168.002.344.602c.218.382.453.602.641.602.277 0 .297-.11.297-1.584 0-1.466-.021-1.584-.292-1.584-.183 0-.418.224-.631.603l-.34.604h-2.357v-4.223h3.25l.298.867c.223.648.379.879.617.913.263.037.335-.054.413-.528.052-.316.095-.896.096-1.29l.002-.716zm5.214 0 .003 1.32c.002 1.42.108 1.756.528 1.673q.268-.052.659-1.146l.391-1.093h2.19v9.323l-.754.193c-.556.143-.754.266-.754.467 0 .252.181.273 2.337.273 2.205 0 2.338-.016 2.338-.29 0-.206-.141-.318-.49-.388-1.119-.225-1.018.263-1.018-4.913v-4.665h1.121c1.031 0 1.13.027 1.226.34.422 1.365.708 1.922.987 1.922.38 0 .41-.113.466-1.696l.046-1.32H71.84zm-47.547 0H18.11l-1.356 3.43c-.745 1.887-1.473 3.77-1.616 4.186s-.266.72-.271.68c-.005-.042-.709-1.909-1.563-4.149l-1.553-4.072-1.772-.042c-1.632-.04-1.768-.022-1.721.226.03.164.3.348.69.471l.64.204v9.143l-.64.202c-.384.122-.66.308-.69.467-.045.24.12.264 1.782.264 1.664 0 1.828-.024 1.782-.264-.028-.146-.286-.34-.577-.434l-.526-.17-.07-8.407.365 1.055c.201.581.974 2.65 1.717 4.6 1.821 4.78 1.603 4.791 3.562-.183.825-2.098 1.62-4.153 1.767-4.568l.266-.754.005 4.097.005 4.098-.641.214c-.361.12-.663.323-.69.465-.044.225.174.25 2.085.25 1.95 0 2.13-.022 2.083-.263-.028-.146-.286-.34-.577-.434l-.526-.17-.04-4.612-.04-4.612.606-.181c.422-.127.606-.266.606-.46 0-.251-.145-.277-1.547-.277zm23.118.617q.105 0 .212.007c.858.054 1.824.412 2.469.956 1.82 1.535 1.988 5.635.309 7.548-.262.298-.73.672-1.039.83-.558.284-2.242.501-2.747.353-.244-.071-.264-.432-.264-4.805V15.13l.467-.102q.278-.06.593-.06" style="fill:#e7d9cb"/>
</svg>
