<svg xmlns="http://www.w3.org/2000/svg" xml:space="preserve" viewBox="0 0 132.292 66.146">
  <path d="M6.764 62.093c.465-.052.444-.057-.331-.078-.658-.019.985-.199 8.023-.878 4.868-.47 8.86-.856 8.872-.859.011-.003.02-8.548.02-18.989V22.305h-.992v-2.068h13.143c11.91 0 13.148.013 13.194.131.028.072.05.536.05 1.03v.9l-.6.024-.6.025-.02 18.855c-.012 10.37.01 18.886.046 18.923.037.036 11.716.466 25.953.955 22.64.777 25.621.894 23.777.93-2.036.042-2.066.045-.869.086.682.024-10.453.051-24.744.061-23.63.017-25.99.006-26.036-.112-.028-.072-.05-9.043-.05-19.936V22.305H25.25v39.87l-9.492-.014c-5.22-.007-9.268-.038-8.995-.068z" style="fill:#050505" transform="translate(-.258 -2.013)"/>
  <path d="M97.878 29.809c-.962.005-1.679.41-2.11 1.188-.227.41-.248.516-.248 1.235 0 .718.021.824.248 1.234.336.606.886 1.006 1.613 1.17.679.152 1.582-.093 2.089-.568.28-.262.281-.297.016-.417-.186-.085-.249-.067-.517.142-.55.429-1.053.517-1.68.296-.77-.272-1.228-.963-1.228-1.857 0-.895.457-1.586 1.228-1.858.627-.221 1.13-.132 1.68.296.268.21.331.227.517.142.265-.12.264-.155-.016-.417-.444-.416-.917-.59-1.592-.586zm-39.622.015-.429.025-.427.025-.744 1.803c-.408.991-.768 1.773-.801 1.737-.033-.036-.348-.773-.702-1.638a136.55 136.55 0 0 0-.727-1.757c-.07-.156-.15-.186-.485-.186h-.4V34.63h.579l.003-2.006.002-2.006.617 1.49.834 2.005c.12.285.26.517.314.517.053 0 .468-.9.921-2l.824-2.001.022 2 .023 2.001h.576v-2.403zm9.595.422c-.245 0-.248.005-.248.455v.455h-.29c-.253 0-.29.026-.29.207 0 .18.037.207.283.207h.283l.028 1.356c.024 1.18.047 1.378.18 1.526a.732.732 0 0 0 .332.204c.097.019.196.04.218.045.076.02.662-.16.662-.204a.805.805 0 0 0-.084-.2c-.068-.128-.123-.143-.29-.079-.166.063-.241.045-.374-.088-.153-.153-.164-.257-.143-1.342l.023-1.177.351-.025c.31-.023.351-.05.351-.228 0-.184-.032-.202-.372-.202H68.1v-.455c0-.45-.002-.455-.248-.455zm45.164 0c-.245 0-.248.005-.248.455v.455h-.29c-.253 0-.289.026-.289.207 0 .18.036.207.282.207h.283l.027 1.356c.024 1.18.048 1.378.182 1.526a.731.731 0 0 0 .33.204c.098.019.197.04.22.045.076.02.66-.16.66-.204a.806.806 0 0 0-.083-.2c-.069-.128-.123-.143-.291-.079-.165.063-.24.045-.373-.088-.153-.153-.165-.257-.143-1.342l.023-1.177.351-.025c.311-.023.352-.05.352-.228 0-.184-.033-.202-.372-.202h-.373v-.455c0-.45-.003-.455-.248-.455zm-23.596.854a.787.787 0 0 0-.123.021c-.125.028-.386.158-.58.29l-.35.238v-.246c0-.219-.029-.247-.249-.247h-.248v3.474h.496V32.075l.282-.215c.155-.119.416-.237.58-.263.26-.043.296-.078.296-.288 0-.163-.011-.213-.104-.209zm-4.19.004a1.712 1.712 0 0 0-1.46.84c-.185.315-.226.485-.226.937 0 .955.428 1.53 1.307 1.759.356.092 1.006.007 1.37-.179.395-.2.462-.308.296-.474-.118-.118-.146-.12-.278-.004-.18.155-.64.316-.903.316-.568 0-1.134-.449-1.24-.985l-.052-.256h2.833v-.31c-.002-.418-.338-1.113-.644-1.33a1.69 1.69 0 0 0-1.003-.314zm-19.976.004c-.313.002-.674.121-.989.335l-.301.205v-.246c0-.218-.028-.246-.248-.246h-.248v3.474h.496v-2.636l.228-.161c.526-.374 1.15-.39 1.428-.035.148.187.164.338.164 1.52v1.312h.496v-1.41c0-1.775-.069-1.952-.817-2.094a1.09 1.09 0 0 0-.209-.018zm45.165 0c-.314.002-.675.121-.99.335l-.3.205v-.246c0-.218-.029-.246-.249-.246h-.248v3.474h.496v-2.636l.228-.161c.526-.374 1.15-.39 1.428-.035.148.187.164.338.164 1.52v1.312h.496v-1.41c0-1.775-.068-1.952-.817-2.094a1.09 1.09 0 0 0-.208-.018zm-49.597.015c-.546.008-1.087.258-1.387.712-.204.308-.227.417-.227 1.058s.023.75.227 1.058c.243.367.587.59 1.055.685l.331.065c.171.031.832-.201 1.054-.37.847-.646.847-2.23 0-2.876a1.69 1.69 0 0 0-1.053-.332zm14.476 0c-.546.008-1.087.258-1.387.712-.204.308-.227.417-.227 1.058s.023.75.227 1.058c.242.367.586.59 1.055.685l.33.065c.172.031.833-.201 1.054-.37.847-.646.847-2.23 0-2.876a1.688 1.688 0 0 0-1.052-.332zm26.717 0c-.545.008-1.086.258-1.387.712-.203.308-.226.417-.226 1.058s.023.75.226 1.058c.243.367.587.59 1.056.685l.33.065c.171.031.833-.201 1.054-.37.847-.646.847-2.23 0-2.876a1.688 1.688 0 0 0-1.053-.332zm-22.419 0c-.304-.01-.628.1-.904.332l-.252.212v-.256c0-.228-.026-.255-.248-.255h-.248v3.474h.496v-1.31c0-1.468.01-1.494.63-1.708.36-.123.731-.033.86.21.045.082.082.748.082 1.48v1.328h.496v-2.533l.234-.224c.311-.298.72-.413.997-.28.364.174.42.412.422 1.776l.001 1.261h.497l-.001-1.302c0-1.46-.075-1.861-.385-2.064-.328-.215-.955-.173-1.354.09-.18.12-.329.264-.33.32 0 .056-.095-.017-.21-.163a1.022 1.022 0 0 0-.783-.388zm-8.723.01c-.537 0-.895.188-1.18.619-.196.295-.231.441-.253 1.052-.022.61 0 .761.165 1.077.23.441.498.65.968.757.438.098.9-.016 1.246-.307l.252-.212v.384c0 .76-.353 1.08-1.194 1.077-.4 0-.563-.043-.784-.2-.268-.19-.284-.193-.39-.047-.177.241.12.503.713.631.398.086 1.127.013 1.462-.147a1.43 1.43 0 0 0 .463-.39c.177-.248.186-.343.21-2.265l.024-2.006h-.252c-.229 0-.252.025-.252.263v.262l-.187-.17c-.308-.28-.57-.379-1.01-.379Zm18.834.023.732 1.749c.728 1.74.731 1.75.609 2.044-.182.434-.357.59-.659.59-.218 0-.274.038-.306.204-.026.139.004.215.094.24.163.046.469-.005.778-.127.286-.113.338-.216 1.34-2.632.443-1.069.822-1.972.842-2.006.02-.034-.09-.062-.243-.062h-.28l-.57 1.406c-.312.774-.589 1.406-.613 1.405-.025-.001-.301-.634-.613-1.406l-.567-1.405h-.273zm14.954 0v1.427c.001 1.273.019 1.456.164 1.693.096.16.255.287.392.318.127.028.267.063.313.078.258.086.996-.144 1.261-.392l.186-.175v.263c0 .236.025.262.249.262h.248v-3.474h-.497v1.31c0 1.146-.018 1.328-.144 1.438-.447.39-1.138.458-1.47.146-.202-.19-.205-.212-.205-1.544v-1.35h-.248zm9.53 0 .733 1.749c.728 1.74.73 1.75.608 2.044-.181.434-.356.59-.658.59-.218 0-.274.038-.306.204-.026.139.003.215.094.24.162.046.469-.005.778-.127.286-.113.338-.216 1.34-2.632.442-1.069.821-1.972.841-2.006.02-.034-.089-.062-.243-.062h-.28l-.569 1.406c-.313.774-.59 1.406-.614 1.405-.025-.001-.3-.634-.613-1.406l-.567-1.405h-.272zm-29.006.35c.54-.01 1.084.402 1.168.92l.05.302h-1.17c-1.123 0-1.168-.007-1.168-.17 0-.436.469-.945.954-1.036a.996.996 0 0 1 .166-.016zm-24.353.036c.178.001.364.047.55.142.764.396.79 2.016.038 2.395-.906.456-1.756-.112-1.757-1.175 0-.81.532-1.366 1.169-1.362zm14.476 0c.178.001.364.047.55.142.764.396.79 2.016.038 2.395-.906.456-1.756-.112-1.757-1.175 0-.81.532-1.366 1.169-1.362zm26.717 0c.178.001.365.047.55.142.765.396.791 2.016.038 2.395-.905.456-1.755-.112-1.756-1.175 0-.81.532-1.366 1.168-1.362zm-31.02.004c.307.008.652.129.857.319.196.181.209.242.209 1.02 0 .797-.009.836-.228 1.04a1.495 1.495 0 0 1-.517.293c-.327.09-.292.091-.608-.004-.512-.153-.798-.623-.798-1.313 0-.71.284-1.182.796-1.324a1 1 0 0 1 .289-.031zM60.21 38.705c-.545-.012-.962.425-.962 1.05 0 .327-.006.335-.29.335-.251 0-.289.026-.289.201 0 .167.046.206.269.227l.269.027.022 1.51.023 1.509h.493v-3.06h.33c.298 0 .331-.022.331-.208s-.033-.206-.33-.206c-.329 0-.331-.003-.331-.317 0-.403.286-.703.633-.662.19.022.24-.008.261-.154.021-.149-.026-.191-.256-.234a1.057 1.057 0 0 0-.173-.018zm19.356 0c-.546-.012-.961.425-.961 1.05 0 .327-.007.335-.29.335-.252 0-.29.026-.29.201 0 .167.046.206.269.227l.27.027.021 1.51.023 1.509h.493v-3.06h.33c.298 0 .332-.022.332-.208s-.034-.206-.332-.206c-.328 0-.33-.003-.33-.317 0-.403.286-.703.633-.662.19.022.24-.008.261-.154.021-.149-.026-.191-.256-.234a1.057 1.057 0 0 0-.173-.018zm-17.251.011a1.2 1.2 0 0 0-.377.05c-.386.127-.607.43-.672.919-.052.394-.061.405-.333.405-.242 0-.278.027-.278.206 0 .181.035.207.29.207h.288v3.06h.493l.023-1.509.022-1.51.352-.025c.31-.023.351-.049.351-.227 0-.186-.032-.202-.383-.202h-.383l.047-.35c.057-.43.32-.678.647-.612.21.042.32-.054.32-.28 0-.079-.192-.13-.407-.132zm-6.582.018c-.97 0-1.657.404-2.096 1.232-.193.363-.22.508-.22 1.199 0 .665.03.843.195 1.158.354.676.834 1.056 1.561 1.238.687.172 1.702-.087 2.201-.56.13-.123.334-.41.455-.637.192-.363.22-.508.22-1.2 0-.69-.028-.835-.22-1.198-.44-.828-1.126-1.232-2.096-1.232zm45.662.002c-.437-.005-.894.173-1.076.524-.166.322-.155.877.026 1.281l.147.328-.328.251c-.523.402-.668.65-.665 1.143.003.707.334 1.153.966 1.303.146.035.344.067.44.072.272.014.906-.202 1.192-.405l.26-.185.267.257c.21.205.337.259.606.259h.34l-.453-.436-.454-.437.316-.6c.308-.585.313-.604.156-.722-.228-.172-.27-.155-.37.147-.05.148-.164.39-.253.537l-.164.267-.357-.391c-.196-.216-.46-.517-.583-.67l-.226-.277.433-.26c.723-.433.974-.99.692-1.535-.154-.298-.525-.446-.912-.45zm-19.068.009v4.84l1.137-.038c.951-.032 1.21-.07 1.575-.23 1.787-.778 1.787-3.526 0-4.305-.366-.16-.624-.197-1.575-.229zm28.786.021v4.798h.496v-4.798h-.248zm9.347 0v4.798h.496v-2.636l.227-.161c.527-.375 1.15-.39 1.43-.036.147.188.163.339.163 1.52v1.313h.496v-1.41c0-1.776-.069-1.952-.817-2.094-.353-.067-.81.054-1.198.317l-.301.204v-1.815h-.248zm8.106 0v4.798h.496v-4.798h-.248zm-65.146.022c-.238-.001-.46.303-.277.524.057.068.2.113.317.1.16-.02.22-.079.238-.24.014-.117-.03-.26-.099-.316a.279.279 0 0 0-.179-.068zm44.345.02-.961 2.378-.961 2.378h.31c.303 0 .314-.012.516-.517l.208-.517h2.516l.207.517c.202.506.213.517.517.517h.311l-.967-2.378-.967-2.379h-.365zm-6.435.289c.561 0 .794.559.428 1.025a1.723 1.723 0 0 1-.484.378l-.31.16-.137-.289c-.298-.625-.042-1.274.503-1.274zm-45.636.104c.14 0 .287.017.436.051.919.213 1.422.96 1.368 2.03-.037.748-.344 1.31-.874 1.603-1.291.713-2.668-.175-2.668-1.72 0-1.16.75-1.965 1.738-1.964zm27.212.042.806.033c.664.027.872.07 1.175.237.548.304.84.768.892 1.424.071.888-.248 1.553-.913 1.9-.266.138-.535.188-1.154.215l-.806.035v-1.922zm25.228.103c.039 0 .395.865.877 2.129l.198.517h-1.082c-.595 0-1.07-.033-1.054-.073.36-.945 1.03-2.573 1.061-2.573zm-19.13.688a.786.786 0 0 0-.122.02c-.125.028-.386.159-.579.29l-.352.239v-.247c0-.219-.028-.246-.248-.246h-.248v3.474h.496v-2.556l.282-.215c.155-.118.416-.237.58-.263.26-.043.296-.077.296-.287 0-.164-.011-.214-.104-.21zm-19.16.003a1.712 1.712 0 0 0-1.461.84c-.185.316-.225.485-.225.938 0 .954.427 1.53 1.306 1.758.356.092 1.007.008 1.371-.178.395-.2.461-.309.296-.475-.119-.118-.146-.118-.279-.003-.179.155-.64.316-.902.316-.568 0-1.134-.45-1.242-.986l-.05-.255h2.833l-.001-.31c-.001-.418-.337-1.113-.643-1.33a1.69 1.69 0 0 0-1.003-.315zm5.949.02c-.546.008-1.087.258-1.387.712-.204.307-.227.416-.227 1.058 0 .641.023.75.227 1.058.242.367.587.59 1.055.684l.33.066c.172.031.833-.201 1.054-.37.847-.646.847-2.23 0-2.876a1.688 1.688 0 0 0-1.052-.333zm42.02 0c-.545.008-1.086.258-1.386.712-.204.307-.227.416-.227 1.058 0 .641.023.75.227 1.058.242.367.586.59 1.055.684l.33.066c.172.031.833-.201 1.055-.37.846-.646.846-2.23 0-2.876a1.688 1.688 0 0 0-1.054-.333zm8.107 0c-.546.008-1.087.258-1.387.712-.204.307-.227.416-.227 1.058 0 .641.023.75.227 1.058.242.367.587.59 1.055.684l.33.066c.172.031.833-.201 1.055-.37.846-.646.846-2.23 0-2.876a1.688 1.688 0 0 0-1.053-.333zm-30.811.01c-.537 0-.896.187-1.181.618-.196.296-.231.442-.253 1.053-.022.61.001.76.165 1.076.23.441.498.651.969.757.437.098.9-.015 1.245-.306l.252-.212v.384c0 .76-.353 1.079-1.193 1.077-.4-.001-.564-.043-.784-.2-.268-.191-.284-.193-.39-.047-.177.241.119.503.713.63.397.086 1.126.013 1.462-.146a1.43 1.43 0 0 0 .463-.39c.176-.249.185-.343.209-2.265l.025-2.006h-.253c-.228 0-.252.025-.252.262v.263l-.186-.17c-.309-.281-.57-.379-1.011-.379zm-28.77.002c-.664 0-1.133.227-1.445.699-.205.308-.228.417-.228 1.059 0 .641.024.75.228 1.058.243.367.588.59 1.054.683.434.086.914.001 1.262-.221.352-.226.37-.282.158-.474-.142-.129-.161-.127-.302.029-.21.232-.688.347-1.032.249-.565-.162-.913-.667-.913-1.324s.348-1.163.913-1.325c.344-.098.821.017 1.032.25.14.155.16.157.302.028.214-.193.195-.246-.178-.493-.269-.178-.426-.218-.851-.218zm47.893 0c-.663 0-1.132.227-1.445.699-.204.308-.227.417-.227 1.059 0 .641.024.75.227 1.058.243.367.588.59 1.055.683.434.086.914.001 1.262-.221.352-.226.37-.282.158-.474-.143-.129-.162-.127-.303.029-.21.232-.688.347-1.031.249-.565-.162-.913-.667-.913-1.324s.348-1.163.913-1.325c.343-.098.821.017 1.031.25.141.155.16.157.303.028.214-.193.195-.246-.178-.493-.269-.178-.426-.218-.852-.218zm-51.096.02v3.475h.496V40.09h-.248zm26.635 0v1.427c.001 1.273.019 1.457.164 1.694.096.16.255.287.392.318.127.028.267.063.313.078.258.085.996-.145 1.261-.393l.186-.174v.262c0 .237.025.263.248.263h.248V40.09h-.496v1.31c0 1.146-.018 1.327-.144 1.437-.447.39-1.138.459-1.47.146-.202-.19-.206-.212-.206-1.543v-1.35h-.248Zm-19.972.35c.539-.01 1.084.402 1.168.92l.049.303h-1.17c-1.122 0-1.168-.008-1.168-.17 0-.436.469-.945.954-1.036a.995.995 0 0 1 .167-.017zm6.004.037c.178 0 .364.046.55.142.765.395.79 2.016.038 2.395-.906.456-1.756-.113-1.757-1.175 0-.811.532-1.367 1.169-1.362zm42.02 0c.179 0 .365.046.55.142.765.395.791 2.016.038 2.395-.905.456-1.755-.112-1.756-1.175 0-.81.532-1.367 1.168-1.362zm8.107 0c.178 0 .364.046.55.142.765.395.79 2.016.038 2.395-.906.456-1.756-.112-1.757-1.175 0-.81.532-1.367 1.169-1.362zm-30.69.003c.308.008.652.13.857.32.197.181.209.242.209 1.02 0 .797-.009.836-.228 1.04a1.495 1.495 0 0 1-.516.292c-.327.092-.293.092-.61-.003-.511-.154-.797-.624-.797-1.313 0-.71.284-1.183.797-1.324a.996.996 0 0 1 .288-.032zm5.452.727.211.248c.117.137.413.477.657.755l.445.507-.182.17c-.1.094-.287.21-.415.259-.304.115-.535.107-.852-.03-.356-.156-.527-.434-.527-.855 0-.304.049-.41.33-.705z" style="fill:#050505" transform="translate(-.258 -2.013)"/>
  <g transform="translate(-.258 -2.013)">
    <path d="M12.058 28.275c-.865-.492-2.316-1.316-3.226-1.831-1.943-1.1-2.489-1.471-3.222-2.193-1.714-1.69-2.23-3.791-1.287-5.252.212-.328 3.553-3.642 3.672-3.642.076 0 5.515 3.384 6.048 3.763.273.193.78.649 1.126 1.011.998 1.045 1.537 2.114 1.622 3.212.076 1.003-.056 1.297-1.658 3.695-.781 1.17-1.44 2.128-1.462 2.13-.023.001-.749-.4-1.613-.893z" style="fill:#22a9dd"/>
    <path d="M36.087 43.057c-1.766-1.013-2.184-1.322-2.67-1.97-.506-.671-.798-1.31-.948-2.076-.123-.623-.121-.652.135-1.907.323-1.586.377-1.776.493-1.75.051.011.736.418 1.521.904 1.676 1.036 2.262 1.579 2.774 2.567.624 1.204.65 1.523.347 4.243-.043.386-.08.73-.08.765 0 .115-.123.055-1.572-.776z" style="fill:#8dc43e"/>
    <path d="M16.483 49.71c-.366-.06-1.018-.292-1.654-.586-.342-.157-1.253-.575-2.027-.928-.773-.352-1.508-.689-1.632-.747l-.227-.106 1.095-2.14c.602-1.176 1.225-2.313 1.384-2.525.366-.487 1.137-1.017 1.779-1.223.612-.196 1.873-.205 2.462-.018.541.173 4.28 2.136 4.28 2.248 0 .216-1.248 3.797-1.457 4.182-.292.536-1.052 1.245-1.621 1.511a4.214 4.214 0 0 1-2.382.333z" style="fill:#f16820"/>
    <path d="M27.548 48.878c-1.218-2.68-1.31-2.94-1.364-3.878-.074-1.262.347-2.283 1.18-2.859.18-.125 1.028-.466 1.885-.76l1.557-.532 1.027 2.081c.88 1.785 1.046 2.186 1.166 2.816.169.882.09 1.665-.242 2.388-.336.734-.7 1.022-2.514 1.99-.91.487-1.672.884-1.691.884-.02 0-.472-.958-1.004-2.13z" style="fill:#e30688"/>
    <path d="M9.852 39.509c-1.84-.31-3.495-1.393-4.321-2.825-.182-.316-1.787-4.922-1.787-5.13 0-.07.329-.127 1.076-.188.51-.042 1.543-.135 3.019-.272.364-.034 1.183-.06 1.82-.057.963.005 1.262.038 1.778.196 1.6.49 3.036 1.586 3.624 2.764.37.74 1.827 4.397 1.77 4.444-.032.027-1.23.298-2.664.602-2.693.57-3.303.636-4.315.466z" style="fill:#852d7e"/>
    <path d="m15.798 17.913-1.41-3.096c-1.225-2.688-1.436-3.346-1.338-4.175.066-.553.342-1.188.688-1.583.531-.605 1.744-1.06 2.828-1.063.296 0 1.817.111 3.382.247 1.564.137 2.869.248 2.9.248.03 0 .678 1.238 1.44 2.75 1.522 3.022 1.668 3.428 1.606 4.445-.082 1.34-.873 2.222-2.332 2.602-.324.085-1.389.132-3.964.176l-3.522.06z" style="fill:#27378f"/>
  </g>
</svg>
