<?xml version="1.0" encoding="UTF-8" standalone="no"?>
<!-- Created with Inkscape (http://www.inkscape.org/) -->

<svg
   width="500"
   height="250"
   viewBox="0 0 132.29166 66.145835"
   version="1.1"
   id="svg1"
   xml:space="preserve"
   inkscape:version="1.4 (86a8ad7, 2024-10-11)"
   sodipodi:docname="montgomerycounty.svg"
   xmlns:inkscape="http://www.inkscape.org/namespaces/inkscape"
   xmlns:sodipodi="http://sodipodi.sourceforge.net/DTD/sodipodi-0.dtd"
   xmlns="http://www.w3.org/2000/svg"
   xmlns:svg="http://www.w3.org/2000/svg"><sodipodi:namedview
     id="namedview1"
     pagecolor="#ffffff"
     bordercolor="#111111"
     borderopacity="1"
     inkscape:showpageshadow="0"
     inkscape:pageopacity="0"
     inkscape:pagecheckerboard="1"
     inkscape:deskcolor="#d1d1d1"
     inkscape:document-units="px"
     inkscape:zoom="1.1111933"
     inkscape:cx="291.57843"
     inkscape:cy="336.5751"
     inkscape:window-width="1920"
     inkscape:window-height="1115"
     inkscape:window-x="-9"
     inkscape:window-y="-9"
     inkscape:window-maximized="1"
     inkscape:current-layer="layer1" /><defs
     id="defs1" /><g
     inkscape:label="Layer 1"
     inkscape:groupmode="layer"
     id="layer1"
     transform="translate(-0.25761025,-2.0130122)"><path
       style="fill:#050505"
       d="m 6.7636946,62.092671 c 0.4651844,-0.05146 0.4444351,-0.05636 -0.3308722,-0.07815 -0.6577628,-0.01848 0.9855894,-0.198149 8.0236516,-0.877235 4.867957,-0.469698 8.860138,-0.85634 8.871511,-0.859206 0.01137,-0.0029 0.02068,-8.547916 0.02068,-18.989003 v -18.98379 h -0.496309 -0.496308 v -1.033975 -1.033976 h 13.143321 c 11.908683,0 13.148037,0.01229 13.19353,0.130843 0.02762,0.07196 0.05021,0.535621 0.05021,1.030351 v 0.89951 l -0.599706,0.0243 -0.599706,0.0243 -0.02086,18.8554 c -0.01147,10.370471 0.0093,18.885581 0.04621,18.922468 0.03689,0.03689 11.715723,0.466894 25.952969,0.955572 22.63963,0.777082 25.621381,0.893816 23.776593,0.930844 -2.035311,0.04085 -2.065781,0.04384 -0.86854,0.08511 0.682424,0.02352 -10.452614,0.051 -24.744528,0.06106 -23.629573,0.01663 -25.989851,0.0064 -26.035508,-0.112552 -0.02761,-0.07196 -0.05021,-9.042736 -0.05021,-19.93505 V 22.305287 H 35.425501 25.25118 v 19.935051 19.935051 l -9.491897,-0.01391 c -5.220543,-0.0076 -9.268558,-0.03861 -8.9955884,-0.06881 z"
       id="door"
       inkscape:label="door"
       inkscape:highlight-color="#000000"><title
         id="title44">door</title></path><path
       id="text"
       style="fill:#050505"
       d="m 97.877745,29.808516 c -0.961457,0.0056 -1.6785,0.409592 -2.109432,1.188558 -0.226835,0.410032 -0.248046,0.516243 -0.248046,1.23455 0,0.718307 0.02121,0.824001 0.248046,1.234033 0.335573,0.606593 0.886125,1.006206 1.612822,1.169955 0.678373,0.152859 1.582005,-0.09252 2.088761,-0.567408 0.27991,-0.262305 0.281079,-0.296776 0.01602,-0.417545 -0.185473,-0.08451 -0.248437,-0.06698 -0.516764,0.14211 -0.550455,0.428942 -1.053553,0.517312 -1.680518,0.296106 -0.770439,-0.271827 -1.227315,-0.962816 -1.227315,-1.857251 0,-0.894436 0.456876,-1.585941 1.227315,-1.857768 0.626965,-0.221206 1.130063,-0.13232 1.680518,0.296623 0.268327,0.209094 0.331291,0.226103 0.516764,0.141593 0.265054,-0.120769 0.263885,-0.154724 -0.01602,-0.417028 -0.444376,-0.416432 -0.916543,-0.590528 -1.592151,-0.586528 z m -39.62187,0.0155 -0.428398,0.02481 -0.427881,0.02532 -0.743107,1.802474 c -0.408486,0.991577 -0.768951,1.773542 -0.801501,1.737362 -0.03255,-0.03618 -0.348453,-0.773222 -0.701766,-1.637626 -0.353313,-0.864403 -0.680477,-1.655153 -0.727087,-1.757516 -0.07089,-0.155696 -0.150357,-0.186035 -0.485242,-0.186035 h -0.399976 v 2.39882 2.39882 h 0.289388 0.289388 l 0.0031,-2.006079 0.0026,-2.006079 0.617016,1.489315 c 0.339168,0.818908 0.714204,1.721219 0.833541,2.005562 0.119336,0.284344 0.260376,0.517281 0.313676,0.517281 0.0533,0 0.467997,-0.900524 0.921391,-2.000912 l 0.824239,-2.000911 0.02222,2.000911 0.02222,2.000912 h 0.287837 0.288355 v -2.403471 z m 9.59528,0.422196 c -0.245654,0 -0.248564,0.0044 -0.248564,0.454753 v 0.455269 h -0.289388 c -0.253673,0 -0.289388,0.02551 -0.289388,0.206706 0,0.180195 0.03608,0.206706 0.282153,0.206706 h 0.28267 l 0.02791,1.356506 c 0.0242,1.180644 0.04734,1.378103 0.180867,1.525488 0.08437,0.09313 0.233636,0.185032 0.331246,0.204122 0.09761,0.0191 0.195841,0.03958 0.218591,0.04548 0.07622,0.01991 0.661976,-0.160672 0.661976,-0.204122 0,-0.0236 -0.03791,-0.113945 -0.08423,-0.200505 -0.06845,-0.12789 -0.122902,-0.142438 -0.290938,-0.07855 -0.164978,0.06272 -0.240488,0.04477 -0.373104,-0.08785 -0.153293,-0.153293 -0.164294,-0.257505 -0.143144,-1.342554 l 0.02274,-1.176672 0.351399,-0.02532 c 0.310691,-0.02248 0.3514,-0.04882 0.3514,-0.227377 0,-0.184309 -0.03251,-0.202055 -0.37207,-0.202055 h -0.37207 v -0.455269 c 0,-0.45035 -0.0024,-0.454753 -0.248047,-0.454753 z m 45.163655,0 c -0.24516,0 -0.24805,0.0044 -0.24805,0.454753 v 0.455269 h -0.28939 c -0.25371,0 -0.28939,0.02551 -0.28939,0.206706 0,0.180195 0.0361,0.206706 0.28216,0.206706 h 0.28267 l 0.0274,1.356506 c 0.0242,1.180644 0.0479,1.378103 0.18139,1.525488 0.0844,0.09313 0.23313,0.185032 0.33073,0.204122 0.0976,0.0191 0.19641,0.03958 0.21911,0.04548 0.0762,0.01991 0.66145,-0.160672 0.66145,-0.204122 0,-0.0236 -0.0379,-0.113945 -0.0842,-0.200505 -0.0684,-0.12789 -0.12291,-0.142438 -0.29094,-0.07855 -0.16498,0.06272 -0.23997,0.04477 -0.37258,-0.08785 -0.15328,-0.153293 -0.16486,-0.257505 -0.14366,-1.342554 l 0.0233,-1.176672 0.3514,-0.02532 c 0.31075,-0.02248 0.3514,-0.04882 0.3514,-0.227377 0,-0.184309 -0.0325,-0.202055 -0.37207,-0.202055 h -0.37207 v -0.455269 c 0,-0.45035 -0.003,-0.454753 -0.24856,-0.454753 z m -23.59598,0.854212 c -0.03104,0.0015 -0.07116,0.0091 -0.12299,0.02067 -0.125111,0.02786 -0.385938,0.158086 -0.579292,0.289388 l -0.3514,0.238746 v -0.246497 c 0,-0.21869 -0.02785,-0.246497 -0.248047,-0.246497 h -0.248564 v 1.736845 1.737362 h 0.248564 0.248047 v -1.277958 -1.277958 l 0.281636,-0.214974 c 0.155003,-0.118226 0.415831,-0.236503 0.579293,-0.263033 0.261392,-0.04242 0.29714,-0.0772 0.29714,-0.287321 0,-0.163323 -0.01125,-0.213358 -0.104387,-0.208773 z m -4.189408,0.0036 c -0.579191,0.0066 -1.14661,0.303975 -1.460893,0.840259 -0.184564,0.314937 -0.225309,0.484848 -0.225309,0.936894 0,0.954803 0.427745,1.530739 1.30638,1.758549 0.356067,0.09232 1.006741,0.0075 1.370976,-0.178284 0.394078,-0.201045 0.461369,-0.30861 0.295589,-0.47439 -0.118393,-0.118417 -0.145678,-0.119122 -0.278536,-0.0041 -0.17896,0.154888 -0.639412,0.31626 -0.90227,0.31626 -0.567954,0 -1.134023,-0.449249 -1.241268,-0.98547 l -0.05116,-0.255281 h 1.416451 1.416968 l -0.001,-0.310059 c -0.0011,-0.418059 -0.336939,-1.113353 -0.642855,-1.331185 -0.303988,-0.216458 -0.655525,-0.317096 -1.003039,-0.313159 z m -19.976041,0.0041 c -0.313497,0.0015 -0.674004,0.121042 -0.989087,0.334864 L 63.96302,31.64768 V 31.4017 c 0,-0.217811 -0.02802,-0.245463 -0.248047,-0.245463 h -0.248047 v 1.736845 1.737362 h 0.248047 0.248047 v -1.318266 -1.317749 l 0.227893,-0.161747 c 0.526412,-0.374152 1.149639,-0.389447 1.428337,-0.03514 0.147344,0.187315 0.163814,0.338216 0.163814,1.520321 v 1.312581 h 0.248047 0.248047 v -1.41025 c 0,-1.775103 -0.06872,-1.951722 -0.817521,-2.093929 -0.06619,-0.01257 -0.135911,-0.01843 -0.208256,-0.01809 z m 45.164169,0 c -0.3135,0.0015 -0.67453,0.121042 -0.98961,0.334864 l -0.30075,0.204638 V 31.4017 c 0,-0.217811 -0.028,-0.245463 -0.24805,-0.245463 h -0.24805 v 1.736845 1.737362 h 0.24805 0.24805 v -1.318266 -1.317749 l 0.22737,-0.161747 c 0.52642,-0.374152 1.15016,-0.389447 1.42886,-0.03514 0.14738,0.187315 0.16381,0.338216 0.16381,1.520321 v 1.312581 h 0.24805 0.24805 v -1.41025 c 0,-1.775103 -0.0687,-1.951722 -0.81753,-2.093929 -0.0662,-0.01257 -0.13591,-0.01843 -0.20825,-0.01809 z m -49.596974,0.01447 c -0.545848,0.0086 -1.086091,0.258185 -1.386478,0.712101 -0.203712,0.307823 -0.227377,0.416876 -0.227377,1.058333 0,0.641457 0.02367,0.750511 0.227377,1.058334 0.242449,0.366366 0.586757,0.589666 1.055232,0.684196 0.159232,0.03213 0.307979,0.06153 0.330729,0.06563 0.171086,0.03098 0.832301,-0.201148 1.053683,-0.370004 0.84679,-0.645879 0.846855,-2.230382 0,-2.87631 -0.303319,-0.231352 -0.679691,-0.338193 -1.053166,-0.332279 z m 14.476119,0 c -0.545848,0.0086 -1.086608,0.258185 -1.386995,0.712101 -0.203712,0.307823 -0.22686,0.416876 -0.22686,1.058333 0,0.641457 0.02315,0.750511 0.22686,1.058334 0.242449,0.366366 0.586757,0.589666 1.055232,0.684196 0.159232,0.03213 0.307979,0.06153 0.330729,0.06563 0.171086,0.03098 0.832301,-0.201148 1.053683,-0.370004 0.846791,-0.645879 0.846854,-2.230382 0,-2.87631 -0.303319,-0.231352 -0.679174,-0.338193 -1.052649,-0.332279 z m 26.717745,0 c -0.54584,0.0086 -1.08661,0.258185 -1.38699,0.712101 -0.20373,0.307823 -0.22686,0.416876 -0.22686,1.058333 0,0.641457 0.0232,0.750511 0.22686,1.058334 0.24244,0.366366 0.58676,0.589666 1.05523,0.684196 0.15924,0.03213 0.30793,0.06153 0.33073,0.06563 0.17108,0.03098 0.83229,-0.201148 1.05368,-0.370004 0.84679,-0.645879 0.84686,-2.230382 0,-2.87631 -0.30332,-0.231352 -0.67917,-0.338193 -1.05265,-0.332279 z m -22.419299,5.16e-4 c -0.304027,-0.01 -0.628373,0.09955 -0.904338,0.331763 l -0.251664,0.21239 v -0.255798 c 0,-0.228747 -0.0264,-0.255282 -0.248564,-0.255282 h -0.248047 v 1.736845 1.737362 h 0.248047 0.248564 v -1.311031 c 0,-1.467765 0.0094,-1.493527 0.629936,-1.706873 0.359545,-0.123605 0.730899,-0.03322 0.860412,0.208773 0.04453,0.08321 0.08113,0.749104 0.08113,1.480013 v 1.329118 h 0.248047 0.248047 v -1.266589 -1.267107 l 0.234094,-0.223758 c 0.311456,-0.298397 0.72045,-0.413381 0.997355,-0.280604 0.364312,0.17469 0.42038,0.412246 0.42168,1.776636 l 0.0016,1.261422 h 0.248047 0.248047 l -5.17e-4,-1.302763 c -5.17e-4,-1.460408 -0.07496,-1.860817 -0.384989,-2.063957 -0.328202,-0.215051 -0.955285,-0.172855 -1.353923,0.09095 -0.18076,0.119622 -0.328674,0.26314 -0.329179,0.31936 -5.04e-4,0.05622 -0.09553,-0.01701 -0.210839,-0.163297 -0.195207,-0.247669 -0.478872,-0.377599 -0.782898,-0.387574 z m -8.722982,0.0093 c -0.536687,0 -0.895325,0.188463 -1.180807,0.619601 -0.195555,0.295327 -0.230737,0.441375 -0.252697,1.052132 -0.02194,0.610256 0.0011,0.760871 0.165364,1.076937 0.22913,0.440872 0.498103,0.65087 0.968417,0.756543 0.437507,0.0983 0.899614,-0.01548 1.245402,-0.306442 l 0.251664,-0.211873 v 0.383439 c 0,0.760998 -0.352805,1.079554 -1.193209,1.077454 -0.399671,-0.001 -0.563733,-0.04283 -0.784448,-0.199988 -0.267779,-0.190672 -0.283604,-0.192747 -0.390157,-0.04703 -0.176372,0.241202 0.119852,0.503127 0.713651,0.63097 0.397681,0.08562 1.126409,0.01245 1.461927,-0.146761 0.153036,-0.07262 0.361553,-0.248424 0.46302,-0.390674 0.176776,-0.247823 0.18554,-0.342922 0.20929,-2.264978 l 0.02481,-2.005563 h -0.252698 c -0.228224,0 -0.252181,0.02496 -0.252181,0.262517 v 0.262576 l -0.18604,-0.169499 C 71.5748,31.230629 71.313075,31.132466 70.872159,31.132466 Z m 18.833475,0.02377 0.732255,1.748731 c 0.728383,1.739835 0.731606,1.750281 0.608749,2.044319 -0.181392,0.434133 -0.356473,0.590662 -0.658358,0.590662 -0.217861,0 -0.274254,0.03742 -0.305924,0.203088 -0.02655,0.138931 0.0034,0.214946 0.09405,0.240296 0.162229,0.04534 0.468581,-0.0048 0.77773,-0.127124 0.285835,-0.113073 0.338306,-0.215709 1.339453,-2.631881 0.442996,-1.06913 0.822186,-1.971959 0.842326,-2.006079 0.02014,-0.03412 -0.08943,-0.06201 -0.243396,-0.06201 h -0.280086 l -0.568958,1.406116 c -0.312946,0.773414 -0.589076,1.405454 -0.613916,1.404566 -0.02484,-8.87e-4 -0.300852,-0.63359 -0.612882,-1.406116 l -0.566891,-1.404566 h -0.272335 z m 14.954646,0 5.1e-4,1.426787 c 2.8e-4,1.272558 0.0178,1.455658 0.16278,1.693436 0.0968,0.158784 0.25575,0.287034 0.39275,0.317294 0.12653,0.02795 0.26714,0.06348 0.31264,0.07855 0.25809,0.08551 0.99626,-0.14435 1.26142,-0.392741 l 0.18603,-0.174666 v 0.263033 c 0,0.236603 0.025,0.262516 0.24857,0.262516 h 0.24805 v -1.737362 -1.736845 h -0.24805 -0.24857 v 1.310515 c 0,1.145008 -0.0182,1.326813 -0.14469,1.437121 -0.44681,0.389747 -1.13734,0.458464 -1.46968,0.146245 -0.20242,-0.190213 -0.20515,-0.212489 -0.20515,-1.543575 v -1.350306 h -0.24805 z m 9.53016,0 0.73226,1.748731 c 0.72838,1.739835 0.73109,1.750281 0.60823,2.044319 -0.18139,0.434133 -0.35596,0.590662 -0.65784,0.590662 -0.21787,0 -0.27422,0.03742 -0.30592,0.203088 -0.0266,0.138931 0.003,0.214946 0.0935,0.240296 0.16223,0.04534 0.4691,-0.0048 0.77825,-0.127124 0.28584,-0.113073 0.33831,-0.215709 1.33945,-2.631881 0.443,-1.06913 0.82161,-1.971959 0.84181,-2.006079 0.0201,-0.03412 -0.0889,-0.06201 -0.24288,-0.06201 h -0.28009 l -0.56895,1.406116 c -0.31294,0.773414 -0.58964,1.405454 -0.61444,1.404566 -0.0249,-8.87e-4 -0.30033,-0.63359 -0.61236,-1.406116 l -0.56741,-1.404566 h -0.27182 z m -29.005977,0.34939 c 0.539058,-0.0094 1.083933,0.402459 1.167888,0.919841 l 0.04909,0.302307 h -1.16892 c -1.123166,0 -1.168921,-0.0066 -1.168921,-0.169499 0,-0.435856 0.469069,-0.945052 0.954463,-1.036112 0.05512,-0.01034 0.110634,-0.01556 0.166398,-0.01654 z m -24.353551,0.03669 c 0.178236,0.0012 0.364182,0.04637 0.54932,0.142111 0.76512,0.395661 0.791464,2.015537 0.03876,2.394685 -0.905516,0.456119 -1.756257,-0.112383 -1.756998,-1.174605 -5.65e-4,-0.81109 0.532361,-1.36659 1.168921,-1.362191 z m 14.475602,0 c 0.178236,0.0012 0.364699,0.04637 0.549837,0.142111 0.76512,0.395661 0.790947,2.015537 0.03824,2.394685 -0.905516,0.456119 -1.755741,-0.112383 -1.756482,-1.174605 -5.64e-4,-0.81109 0.531845,-1.36659 1.168405,-1.362191 z m 26.717746,0 c 0.17824,0.0012 0.3647,0.04637 0.54984,0.142111 0.76514,0.395661 0.79095,2.015537 0.0382,2.394685 -0.90552,0.456119 -1.75574,-0.112383 -1.75648,-1.174605 -5.6e-4,-0.81109 0.53184,-1.36659 1.1684,-1.362191 z m -31.020326,0.0036 c 0.307491,0.0079 0.652278,0.128825 0.857312,0.318843 0.196068,0.181708 0.208256,0.242629 0.208256,1.021127 0,0.796597 -0.0085,0.8356 -0.227376,1.039213 -0.125111,0.116371 -0.357533,0.248038 -0.516765,0.292488 -0.327017,0.0913 -0.292448,0.09169 -0.608748,-0.0031 -0.511841,-0.153385 -0.797884,-0.623838 -0.797884,-1.313099 0,-0.710348 0.283941,-1.182472 0.796334,-1.32395 0.08763,-0.0242 0.186374,-0.03415 0.288871,-0.03152 z m -10.793656,7.158736 c -0.545731,-0.01131 -0.962216,0.425631 -0.962216,1.050065 0,0.32768 -0.0062,0.334863 -0.289388,0.334863 -0.251663,0 -0.289388,0.02634 -0.289388,0.201538 0,0.166935 0.04606,0.205907 0.268718,0.227377 l 0.268717,0.02636 0.02274,1.509468 0.02274,1.509469 h 0.245979 0.246497 v -1.53014 -1.530139 h 0.330729 c 0.297782,0 0.330729,-0.02111 0.330729,-0.207222 0,-0.186115 -0.03294,-0.206706 -0.330729,-0.206706 -0.328373,0 -0.330729,-0.0022 -0.330729,-0.31626 0,-0.403486 0.286313,-0.703201 0.633036,-0.662491 0.189799,0.02229 0.240673,-0.0077 0.261483,-0.153996 0.02112,-0.148372 -0.02574,-0.190934 -0.255798,-0.234094 -0.05891,-0.01105 -0.116662,-0.01692 -0.173116,-0.01809 z m 19.355924,0 c -0.545731,-0.01131 -0.961699,0.425631 -0.961699,1.050065 0,0.32768 -0.0067,0.334863 -0.289904,0.334863 -0.251663,0 -0.289388,0.02634 -0.289388,0.201538 0,0.166935 0.04606,0.205907 0.268717,0.227377 l 0.269234,0.02636 0.02222,1.509468 0.02274,1.509469 h 0.24598 0.246496 v -1.53014 -1.530139 h 0.330729 c 0.297782,0 0.331246,-0.02111 0.331246,-0.207222 0,-0.186115 -0.03346,-0.206706 -0.331246,-0.206706 -0.328373,0 -0.330729,-0.0022 -0.330729,-0.31626 0,-0.403486 0.286313,-0.703201 0.633036,-0.662491 0.189799,0.02229 0.240673,-0.0077 0.261483,-0.153996 0.02112,-0.148372 -0.02574,-0.190934 -0.255798,-0.234094 -0.05891,-0.01105 -0.116661,-0.01692 -0.173116,-0.01809 z m -17.25166,0.01137 c -0.129296,-0.0018 -0.266653,0.01346 -0.376205,0.04961 -0.386222,0.127465 -0.60737,0.429782 -0.67231,0.919324 -0.05222,0.393619 -0.06146,0.404626 -0.332796,0.404626 -0.242307,0 -0.278536,0.02702 -0.278536,0.206706 0,0.181195 0.03572,0.207222 0.289388,0.207222 h 0.289388 v 1.530139 1.53014 h 0.246496 0.24598 l 0.02274,-1.509469 0.02274,-1.509468 0.351399,-0.02584 c 0.310692,-0.02248 0.3514,-0.04882 0.3514,-0.227376 0,-0.185159 -0.03181,-0.202055 -0.382922,-0.202055 h -0.383439 l 0.04702,-0.350366 c 0.05758,-0.429319 0.319514,-0.676832 0.646989,-0.611332 0.210061,0.04201 0.320394,-0.05412 0.320394,-0.279053 0,-0.07959 -0.192234,-0.129887 -0.407727,-0.132808 z m -6.58151,0.01809 c -0.969737,0 -1.657085,0.403921 -2.095997,1.23145 -0.192873,0.363638 -0.219475,0.508498 -0.219624,1.19941 -1.43e-4,0.665307 0.02974,0.842924 0.19482,1.158069 0.35415,0.676072 0.833381,1.056229 1.561145,1.238167 0.686565,0.171639 1.701837,-0.08689 2.200899,-0.560173 0.129354,-0.122672 0.333586,-0.409178 0.454236,-0.636653 0.192924,-0.363736 0.219625,-0.50831 0.219625,-1.19941 0,-0.691099 -0.0267,-0.835674 -0.219625,-1.19941 -0.438912,-0.827529 -1.125743,-1.23145 -2.095479,-1.23145 z m 45.662328,0.0021 c -0.43769,-0.0056 -0.8944,0.172486 -1.0759,0.523483 -0.1667,0.322314 -0.15553,0.877743 0.0258,1.281575 l 0.14677,0.327629 -0.32763,0.251147 c -0.523599,0.402003 -0.668095,0.650569 -0.665595,1.143083 0.0035,0.707268 0.3338,1.153113 0.965835,1.303279 0.14672,0.03486 0.34466,0.06713 0.43976,0.07183 0.27285,0.01336 0.90694,-0.20255 1.19218,-0.40566 l 0.26045,-0.185002 0.26665,0.257865 c 0.21068,0.204194 0.3376,0.258383 0.60668,0.258383 h 0.34003 l -0.45372,-0.436149 -0.45372,-0.43615 0.31626,-0.60048 c 0.30813,-0.585416 0.3125,-0.603948 0.15607,-0.721919 -0.22785,-0.171836 -0.27058,-0.155376 -0.37104,0.147277 -0.0491,0.147859 -0.1629,0.389291 -0.2527,0.536402 l -0.1633,0.267684 -0.35708,-0.391708 c -0.19662,-0.215353 -0.45929,-0.516461 -0.58343,-0.669209 l -0.22582,-0.277503 0.43356,-0.259932 c 0.72294,-0.433375 0.97348,-0.989363 0.69143,-1.53479 -0.15423,-0.29824 -0.52537,-0.446224 -0.91157,-0.451136 z m -19.068603,0.0088 v 2.420008 2.420007 l 1.137398,-0.03824 c 0.950826,-0.03205 1.208933,-0.0696 1.574581,-0.228926 1.7871,-0.778687 1.7871,-3.526993 0,-4.30568 -0.365648,-0.159325 -0.623755,-0.196877 -1.574581,-0.228927 z m 28.785843,0.02119 v 2.39882 2.39882 h 0.24804 0.24805 v -2.39882 -2.39882 h -0.24805 z m 9.34723,0 v 2.39882 2.39882 h 0.24805 0.24804 V 42.246 40.928251 l 0.22738,-0.161748 c 0.52641,-0.374161 1.15016,-0.389447 1.42885,-0.03514 0.14738,0.187316 0.16382,0.338217 0.16382,1.520321 v 1.312065 h 0.24804 0.24805 v -1.41025 c 0,-1.775103 -0.0687,-1.951721 -0.81752,-2.093929 -0.35302,-0.06704 -0.81006,0.05413 -1.19786,0.317293 l -0.30076,0.204122 v -0.907438 -0.907438 h -0.24804 z m 8.10596,0 v 2.39882 2.39882 h 0.24857 0.24804 v -2.39882 -2.39882 h -0.24804 z m -65.145373,0.02222 c -0.238013,-0.0015 -0.460444,0.30305 -0.277502,0.523482 0.05673,0.06836 0.199145,0.113405 0.316777,0.09973 0.160367,-0.01864 0.220105,-0.07838 0.238745,-0.238745 0.01367,-0.117632 -0.03086,-0.260563 -0.09922,-0.317293 -0.05619,-0.04663 -0.11813,-0.0668 -0.178801,-0.06718 z m 44.344583,0.01912 -0.96118,2.378149 -0.96119,2.37815 h 0.31006 c 0.30302,0 0.31457,-0.01137 0.51677,-0.516765 l 0.20722,-0.517281 h 1.2578 1.25832 l 0.20671,0.517281 c 0.20235,0.505748 0.21374,0.516765 0.5178,0.516765 h 0.31109 l -0.96738,-2.37815 -0.96687,-2.378149 h -0.36483 z m -6.43527,0.289388 c 0.56149,0 0.79471,0.55892 0.42788,1.02526 -0.0953,0.121142 -0.31262,0.291262 -0.48317,0.378272 l -0.31006,0.158646 -0.13746,-0.287837 c -0.29802,-0.624947 -0.0417,-1.274341 0.50281,-1.274341 z M 55.693757,39.20126 c 0.140995,1.72e-4 0.287024,0.01674 0.43615,0.05116 0.919129,0.212161 1.422471,0.958958 1.368391,2.02985 -0.03777,0.747859 -0.344233,1.309653 -0.874365,1.602486 -1.291146,0.7132 -2.668054,-0.174366 -2.668054,-1.719791 0,-1.159307 0.750917,-1.964906 1.737878,-1.963705 z m 27.211776,0.04186 0.806669,0.03307 c 0.663909,0.02702 0.871726,0.06904 1.175122,0.237195 0.547996,0.30373 0.838818,0.767893 0.891418,1.423169 0.07135,0.888874 -0.248149,1.55359 -0.913122,1.899625 -0.266003,0.138422 -0.534744,0.188481 -1.153418,0.215491 l -0.806669,0.03514 v -1.921846 z m 25.228947,0.102836 c 0.0381,-1.21e-4 0.39464,0.864844 0.87695,2.129069 l 0.19741,0.517281 h -1.08159 c -0.59484,0 -1.0694,-0.03294 -1.0542,-0.07286 0.35924,-0.945733 1.03053,-2.57339 1.06143,-2.573487 z M 89.004902,40.03377 c -0.03105,0.0015 -0.07116,0.0091 -0.12299,0.02067 -0.125111,0.02786 -0.385422,0.158087 -0.578776,0.289388 l -0.351916,0.238745 v -0.246496 c 0,-0.218689 -0.02785,-0.246497 -0.248047,-0.246497 h -0.248047 v 1.737362 1.736845 h 0.248047 0.248047 V 42.28579 41.007832 l 0.282153,-0.214974 c 0.155003,-0.118227 0.415314,-0.236503 0.578776,-0.263033 0.261392,-0.04242 0.297139,-0.0772 0.297139,-0.287321 0,-0.163322 -0.01125,-0.213357 -0.104386,-0.208772 z m -19.161104,0.0036 c -0.579191,0.0066 -1.14661,0.303975 -1.460893,0.840259 -0.184565,0.314938 -0.225309,0.484847 -0.225309,0.936893 0,0.954803 0.427745,1.530739 1.30638,1.758549 0.356066,0.09232 1.007257,0.0081 1.371493,-0.177767 0.394087,-0.201046 0.460853,-0.309125 0.295072,-0.474906 -0.118392,-0.118417 -0.145677,-0.118605 -0.278536,-0.0036 -0.178959,0.154888 -0.639412,0.316259 -0.90227,0.316259 -0.567955,0 -1.134024,-0.449765 -1.241268,-0.985986 l -0.05116,-0.254765 h 1.416968 1.416451 l -10e-4,-0.310058 c -0.0011,-0.418058 -0.336939,-1.113354 -0.642855,-1.331185 -0.303988,-0.216459 -0.655525,-0.317613 -1.003039,-0.313676 z m 5.948991,0.01912 c -0.545848,0.0086 -1.086608,0.258186 -1.386996,0.712101 -0.203712,0.307824 -0.226859,0.416877 -0.226859,1.058334 0,0.641457 0.02315,0.75051 0.226859,1.058333 0.242449,0.366365 0.586758,0.589149 1.055233,0.683679 0.159232,0.03213 0.307979,0.06205 0.330729,0.06615 0.171086,0.03099 0.832301,-0.201147 1.053683,-0.370003 0.84679,-0.645878 0.846855,-2.230383 0,-2.87631 -0.303319,-0.231352 -0.679174,-0.338193 -1.052649,-0.33228 z m 42.020691,0 c -0.54585,0.0086 -1.08609,0.258186 -1.38648,0.712101 -0.20372,0.307824 -0.22738,0.416877 -0.22738,1.058334 0,0.641457 0.0237,0.75051 0.22738,1.058333 0.24245,0.366365 0.58625,0.589149 1.05472,0.683679 0.15923,0.03213 0.30803,0.06205 0.33073,0.06615 0.17109,0.03099 0.83281,-0.201147 1.05419,-0.370003 0.8468,-0.645878 0.84635,-2.230383 -5.1e-4,-2.87631 -0.30332,-0.231352 -0.67918,-0.338193 -1.05265,-0.33228 z m 8.10648,0 c -0.54585,0.0086 -1.0866,0.258186 -1.38699,0.712101 -0.20372,0.307824 -0.22686,0.416877 -0.22686,1.058334 0,0.641457 0.0232,0.75051 0.22686,1.058333 0.24245,0.366365 0.58676,0.589149 1.05523,0.683679 0.15923,0.03213 0.30803,0.06205 0.33073,0.06615 0.17109,0.03099 0.8323,-0.201147 1.05368,-0.370003 0.84679,-0.645878 0.84686,-2.230383 0,-2.87631 -0.30332,-0.231352 -0.67917,-0.338193 -1.05265,-0.33228 z m -30.811038,0.0098 c -0.536688,0 -0.895841,0.187946 -1.181323,0.619083 -0.195555,0.295328 -0.230738,0.441892 -0.252698,1.052649 -0.02194,0.610255 0.0011,0.760353 0.165365,1.07642 0.22913,0.440871 0.498102,0.650871 0.968416,0.756543 0.437507,0.0983 0.899613,-0.01548 1.245402,-0.306441 l 0.251664,-0.211873 v 0.383956 c 0,0.760999 -0.352288,1.079036 -1.192692,1.076936 -0.399671,-10e-4 -0.563733,-0.04282 -0.784448,-0.199987 -0.26778,-0.190671 -0.283603,-0.19223 -0.390157,-0.04651 -0.176372,0.241203 0.119336,0.50261 0.713135,0.630452 0.397682,0.08562 1.126408,0.01245 1.461926,-0.146761 0.153036,-0.07262 0.361553,-0.248425 0.463021,-0.390674 0.176776,-0.247824 0.185539,-0.342405 0.209289,-2.264461 l 0.02481,-2.006079 h -0.252181 c -0.228224,0 -0.252698,0.02496 -0.252698,0.262516 v 0.262517 l -0.186035,-0.169499 c -0.308666,-0.281142 -0.569875,-0.378788 -1.010791,-0.378788 z m -28.770336,0.0026 c -0.663621,0 -1.132527,0.226678 -1.444873,0.698665 -0.204217,0.30859 -0.227377,0.41757 -0.227377,1.059367 0,0.641457 0.02367,0.75051 0.227377,1.058333 0.242938,0.367103 0.588004,0.590546 1.054716,0.682646 0.433788,0.0856 0.914049,0.0014 1.261421,-0.221175 0.352432,-0.22581 0.370881,-0.281336 0.15813,-0.473873 -0.142297,-0.128775 -0.161293,-0.12688 -0.302307,0.02894 -0.210312,0.232388 -0.687934,0.3476 -1.031462,0.24908 -0.564733,-0.161963 -0.913122,-0.66656 -0.913122,-1.32395 0,-0.657391 0.348389,-1.162504 0.913122,-1.324467 0.343528,-0.09852 0.82115,0.01669 1.031462,0.24908 0.141014,0.155821 0.16001,0.157716 0.302307,0.02894 0.21402,-0.193686 0.195049,-0.246275 -0.177767,-0.492993 -0.268953,-0.177989 -0.426307,-0.218591 -0.851627,-0.218591 z m 47.893714,0 c -0.66362,0 -1.13252,0.226678 -1.44487,0.698665 -0.20426,0.30859 -0.22738,0.41757 -0.22738,1.059367 0,0.641457 0.0237,0.75051 0.22738,1.058333 0.24294,0.367103 0.58801,0.590546 1.05472,0.682646 0.43379,0.0856 0.91405,0.0014 1.26142,-0.221175 0.35243,-0.22581 0.37088,-0.281336 0.15813,-0.473873 -0.1423,-0.128775 -0.16129,-0.12688 -0.30231,0.02894 -0.21031,0.232388 -0.68793,0.3476 -1.03146,0.24908 -0.56473,-0.161963 -0.91312,-0.66656 -0.91312,-1.32395 0,-0.657391 0.34839,-1.162504 0.91312,-1.324467 0.34353,-0.09852 0.82115,0.01669 1.03146,0.24908 0.14102,0.155821 0.16001,0.157716 0.30231,0.02894 0.21402,-0.193686 0.19505,-0.246275 -0.17777,-0.492993 -0.26895,-0.177989 -0.42631,-0.218591 -0.85163,-0.218591 z m -51.096103,0.02067 v 1.737362 1.736845 h 0.248047 0.248047 V 41.826922 40.08956 h -0.248047 z m 26.635067,0 5.16e-4,1.426786 c 2.76e-4,1.272557 0.0178,1.456177 0.162781,1.693954 0.09681,0.158784 0.255738,0.287033 0.392741,0.317293 0.126522,0.02795 0.267142,0.06296 0.312642,0.07803 0.258085,0.08551 0.996261,-0.144351 1.261422,-0.392741 l 0.186035,-0.17415 v 0.262516 c 0,0.236603 0.02444,0.262517 0.248047,0.262517 h 0.248047 V 41.82692 40.089558 h -0.248047 -0.248047 v 1.311031 c 0,1.145009 -0.01823,1.326296 -0.144694,1.436605 -0.446814,0.389746 -1.137336,0.458463 -1.469678,0.146244 -0.202515,-0.190213 -0.205672,-0.212489 -0.205672,-1.543575 V 40.089542 H 90.01931 Z m -19.972425,0.349333 c 0.539056,-0.0094 1.083924,0.402459 1.167888,0.91984 l 0.04909,0.302824 h -1.16892 c -1.123166,0 -1.168921,-0.0071 -1.168921,-0.170015 0,-0.435856 0.469069,-0.944536 0.954463,-1.035596 0.05513,-0.01034 0.110634,-0.01608 0.166398,-0.01705 z m 6.003768,0.03669 c 0.178237,0.0012 0.3647,0.04637 0.549838,0.14211 0.76512,0.395661 0.790947,2.016056 0.03824,2.395203 -0.905516,0.45612 -1.755742,-0.1129 -1.756482,-1.175122 -5.65e-4,-0.811089 0.531845,-1.36659 1.168404,-1.362191 z m 42.020693,0 c 0.17823,0.0012 0.3647,0.04637 0.54983,0.14211 0.76514,0.395661 0.79096,2.016056 0.0382,2.395203 -0.90552,0.45612 -1.75575,-0.112383 -1.75649,-1.174605 -5.6e-4,-0.811089 0.53185,-1.367107 1.16841,-1.362708 z m 8.10648,0 c 0.17824,0.0012 0.3647,0.04637 0.54984,0.14211 0.76514,0.395661 0.79094,2.016056 0.0382,2.395203 -0.90552,0.45612 -1.75574,-0.112383 -1.75648,-1.174605 -5.7e-4,-0.811089 0.53184,-1.367107 1.1684,-1.362708 z m -30.6896,0.0036 c 0.307491,0.0079 0.652279,0.129342 0.857312,0.319361 0.196068,0.181707 0.208256,0.242628 0.208256,1.021126 0,0.796597 -0.0085,0.8356 -0.227376,1.039213 -0.125111,0.116371 -0.357531,0.248039 -0.516764,0.292489 -0.327016,0.0913 -0.29245,0.09117 -0.608749,-0.0036 -0.511841,-0.153385 -0.797367,-0.623837 -0.797367,-1.313098 0,-0.710349 0.283941,-1.182471 0.796334,-1.32395 0.08763,-0.0242 0.185857,-0.03415 0.288354,-0.03152 z m 5.45135,0.727088 0.21187,0.248047 c 0.11651,0.136484 0.41215,0.476402 0.65681,0.754992 l 0.44493,0.506429 -0.1819,0.170533 c -0.10005,0.09371 -0.28689,0.209852 -0.41496,0.258382 -0.30458,0.115403 -0.53573,0.107225 -0.85215,-0.03049 -0.35616,-0.155011 -0.52761,-0.432715 -0.52761,-0.854212 0,-0.303632 0.0491,-0.409134 0.33124,-0.705383 z"
       inkscape:label="text"><title
         id="title45">text</title></path><g
       id="colors"
       inkscape:label="colors"><title
         id="title46">colors</title><path
         style="fill:#22a9dd"
         d="M 12.05765,28.275306 C 11.193246,27.782961 9.7415446,26.958823 8.831646,26.443889 6.8887961,25.344381 6.343358,24.973022 5.6101082,24.250521 3.8959835,22.561526 3.3808126,20.459552 4.3230949,18.999317 c 0.2117072,-0.328078 3.5531008,-3.642346 3.672157,-3.642346 0.075336,0 5.5143141,3.384 6.0476311,3.762689 0.27297,0.193826 0.779557,0.648993 1.125748,1.011482 0.998359,1.045357 1.537623,2.113365 1.621937,3.212232 0.07691,1.002437 -0.05519,1.296918 -1.657288,3.694435 -0.781698,1.169796 -1.43988,2.1282 -1.462628,2.129786 -0.02275,0.0016 -0.748598,-0.399944 -1.613002,-0.892289 z"
         id="lightblue"
         sodipodi:nodetypes="ssssssssscs"
         inkscape:label="lightblue"
         inkscape:highlight-color="#22a9dd"><title
           id="title48">lightblue</title></path><path
         style="fill:#8dc43e"
         d="m 36.087245,43.056901 c -1.765772,-1.013106 -2.184347,-1.321685 -2.671035,-1.969123 -0.505224,-0.672096 -0.796787,-1.310969 -0.947566,-2.076303 -0.122911,-0.623879 -0.120915,-0.652033 0.135265,-1.907505 0.323553,-1.585657 0.3771,-1.775638 0.493298,-1.750205 0.05122,0.01121 0.73563,0.417922 1.520906,0.903803 1.675505,1.036702 2.261617,1.579128 2.773758,2.56702 0.624254,1.204149 0.650381,1.523746 0.346857,4.242931 -0.04317,0.386706 -0.07879,0.73102 -0.07916,0.765142 -0.0013,0.115796 -0.123604,0.05544 -1.572322,-0.77576 z"
         id="green"
         sodipodi:nodetypes="sssssssscss"
         inkscape:highlight-color="#8dc43e"
         inkscape:label="green"><title
           id="title52">green</title></path><path
         style="fill:#f16820"
         d="M 16.483066,49.710535 C 16.116841,49.64923 15.464933,49.418217 14.828705,49.124288 14.487493,48.966652 13.575526,48.549068 12.802113,48.196323 12.028699,47.843578 11.29405,47.50735 11.169561,47.44915 L 10.943216,47.343332 12.0381,45.203619 c 0.602187,-1.176842 1.225166,-2.313269 1.384398,-2.525392 0.365813,-0.487324 1.13617,-1.01719 1.778438,-1.223245 0.611656,-0.196234 1.873223,-0.205218 2.461947,-0.01753 0.541326,0.172575 4.279575,2.135504 4.279575,2.247176 0,0.216399 -1.247155,3.797649 -1.456395,4.182093 -0.292099,0.536682 -1.051635,1.244826 -1.621226,1.511529 -0.717405,0.335916 -1.613369,0.460914 -2.381771,0.332287 z"
         id="orange"
         sodipodi:nodetypes="sssscsssssssss"
         inkscape:highlight-color="#f16820"
         inkscape:label="orange"><title
           id="title50">orange</title></path><path
         style="fill:#e30688"
         d="m 27.548009,48.878462 c -1.218004,-2.679946 -1.309307,-2.939526 -1.364275,-3.878721 -0.07384,-1.261666 0.347322,-2.282414 1.179361,-2.858343 0.180547,-0.124973 1.029172,-0.46686 1.885832,-0.759748 l 1.557564,-0.532524 1.026235,2.081134 c 0.880259,1.785105 1.046175,2.185568 1.166424,2.815328 0.168442,0.882156 0.08908,1.665508 -0.242008,2.388695 -0.335927,0.73376 -0.700067,1.022039 -2.513815,1.990116 -0.910977,0.486229 -1.672284,0.884053 -1.691793,0.884053 -0.01951,0 -0.471095,-0.958496 -1.003525,-2.12999 z"
         id="pink"
         inkscape:highlight-color="#e30688"
         inkscape:label="pink"><title
           id="title51">pink</title></path><path
         style="fill:#852d7e"
         d="M 9.8516304,39.508727 C 8.0122921,39.198339 6.3574265,38.11632 5.5306683,36.683504 5.3487503,36.368231 3.7444855,31.761522 3.7444855,31.55441 c 0,-0.07021 0.3285248,-0.127808 1.0753348,-0.188545 0.5094959,-0.04144 1.5436134,-0.134653 3.019209,-0.272158 0.3639594,-0.03392 1.1828682,-0.05926 1.8197972,-0.05633 0.9633155,0.0044 1.2623765,0.03734 1.7784385,0.195644 1.599496,0.490655 3.036086,1.5862 3.624228,2.763841 0.369631,0.740115 1.826252,4.397259 1.770078,4.444141 -0.03244,0.02708 -1.23152,0.2978 -2.66461,0.601604 -2.693387,0.570977 -3.303452,0.636873 -4.3153306,0.46612 z"
         id="plum"
         sodipodi:nodetypes="ssssscsssss"
         inkscape:highlight-color="#852d7e"
         inkscape:label="plum"><title
           id="title49">plum</title></path><path
         style="fill:#27378f"
         d="m 15.797555,17.912627 c -0.153312,-0.33648 -0.787951,-1.729656 -1.410307,-3.095948 -1.224281,-2.687727 -1.434931,-3.345469 -1.336979,-4.174637 0.06533,-0.55302 0.341452,-1.1884685 0.687872,-1.5830198 0.531021,-0.6047986 1.743608,-1.0604565 2.827643,-1.0625522 0.295717,-5.717e-4 1.817572,0.1105475 3.3819,0.2469315 1.564327,0.136384 2.869243,0.2479709 2.899812,0.2479709 0.03057,0 0.678882,1.2376689 1.440697,2.7503756 1.521358,3.020901 1.668036,3.426865 1.605665,4.444027 -0.08218,1.340224 -0.872683,2.222441 -2.331984,2.602541 -0.323629,0.08429 -1.388824,0.131502 -3.964058,0.175681 l -3.52151,0.06041 z"
         id="blue"
         sodipodi:nodetypes="ssssssssssscs"
         inkscape:label="blue"
         inkscape:highlight-color="#27378f"><title
           id="title47">blue</title></path></g></g></svg>
