<svg xmlns="http://www.w3.org/2000/svg" xml:space="preserve" viewBox="0 0 132.29166 87.3125">
  <path d="M29.630009 81.873021c0-13.996291.01228-21.179883.03644-21.309339.101094-.541674.409124-.896183 1.758213-2.023472.438696-.366574 8.030295-7.079893 16.870223-14.9185 10.816384-9.59118 16.12819-14.278537 16.242594-14.333116.203098-.09691.375546-.102348.559541-.01762.08091.03725 5.885722 5.408144 14.370009 13.295852 7.82884 7.278357 14.301948 13.293851 14.384677 13.367781l.150435.134415-4.604485.0019-4.604485.0019-8.33883-7.761728c-4.586359-4.268953-8.477507-7.866087-8.647006-7.993638-.602246-.453219-1.295878-.769313-2.031889-.925943-.496614-.10569-1.367318-.112689-1.883733-.01513-.973718.183947-1.624426.536992-2.675118 1.451406-1.495635 1.301652-22.077385 19.683819-22.298886 19.915795-.940955.985443-1.712674 2.367813-2.037661 3.650037-.211425.834165-.198297-.171519-.198297 15.191171 0 13.589559.0028 14.188454.06617 14.47679.188993.859013.538722 1.485877 1.036779 1.85834.393953.294617 1.198226.613449 1.906274.755697.617805.124113 1.060507.148797 2.668642.148797h1.555156v6.163494H29.629996z" style="fill:#f8cc11;fill-opacity:1;stroke-width:.957512" transform="translate(-29.167771 -29.608087) scale(1.0792496)"/>
  <path d="M101.39946 101.27642c-1.32318-2.945956-2.413708-5.376883-2.423398-5.402066-.01408-.03648.239694-.04385 1.244788-.03629l1.26241.0096 1.14632 2.546671c.63049 1.400668 1.15507 2.555415 1.16576 2.566095.0207.0207.18798-.34434 1.49966-3.271638l.83208-1.856946 1.27756-.000958 1.27756-.000958-.085.190344c-.44856 1.004589-4.71733 10.470356-4.74952 10.531796-.0378.0723-.30358-.50031-2.44823-5.27523zm-24.367631 5.10276c-1.200577-.16651-2.174788-.65403-3.044113-1.52336-.775786-.77578-1.23229-1.60747-1.458167-2.65659-.106514-.49472-.116223-1.57901-.01848-2.06507.205386-1.021543.652181-1.871813 1.381451-2.628985.200503-.208154.519814-.495427.709583-.638379 1.614701-1.216279 3.821901-1.357761 5.648518-.362073.346869.18908.930568.619438 1.15858.85423l.153557.158104-.829541.828947-.829531.828957-.284803-.241896c-.311469-.264551-.803601-.529887-1.154932-.62268-.348228-.09192-.96408-.108544-1.325206-.03562-.859415.173453-1.568463.707333-2.004361 1.509192-.207196.381153-.283509.680903-.304623 1.196563-.0249.60827.04069.93862.287197 1.44718.165889.34216.221147.41685.551115.7449.583565.58018 1.100411.80806 1.907786.84115.862632.0353 1.47453-.18319 2.114828-.75533l.211582-.18906.832815.83048.832825.83049-.293525.2803c-.662302.63247-1.640353 1.13113-2.581434 1.31614-.352939.0694-1.31904.0999-1.661102.0525zm12.508241 0c-1.130085-.15674-2.093831-.61356-2.914763-1.38163-1.132833-1.0599-1.688841-2.33684-1.689511-3.88016-.000632-1.457171.52599-2.703364 1.584778-3.750174 1.023284-1.011702 2.242896-1.511122 3.690224-1.511122 1.345113 0 2.464579.419659 3.462431 1.29799 1.192821 1.04996 1.813241 2.406544 1.81257 3.963306-.000517 1.20692-.317635 2.19287-1.001002 3.11232-.821182 1.10485-1.969143 1.83904-3.276961 2.0958-.359613.0706-1.322325.10158-1.667766.0536zm1.468354-2.44691c.936648-.26189 1.776971-1.11019 2.012662-2.03174.198541-.77628.09183-1.5842-.296388-2.244745-.180616-.307284-.722807-.855422-1.018161-1.029316-.920121-.54176-2.08662-.54176-2.987055 0-.43608.262368-.881534.74912-1.119495 1.22328-.200484.399471-.277429.745191-.279325 1.254961-.0029.64659.124036 1.10357.438454 1.58465.427022.65337 1.078599 1.11506 1.801282 1.27633.326416.0729 1.134719.0542 1.448026-.0334zm-42.618666-2.81141v-5.114063l2.275049.0136c1.93181.01159 2.311434.02241 2.516208.07191 1.032658.249355 1.967621 1.011684 2.406937 1.962532.190037.411309.277812.809337.298131 1.351844.0361.962837-.170409 1.643927-.68623 2.263747-.208058.25001-.591072.54719-.818826.63534-.08474.0327-.154083.0724-.154083.088 0 .0156.529313.8822 1.176256 1.9257l1.176265 1.89729-1.382485.01c-.884492.006-1.395516-.004-1.418669-.0267-.01992-.0199-.46378-.77467-.98641-1.67726l-.950216-1.64108-.710799-.01-.7108-.01v3.37332h-2.030328zm4.116479-.37946c.59473-.15172.994846-.70857.950867-1.323269-.03351-.468204-.291639-.853057-.710579-1.05943l-.239915-.118186-1.043257-.01111-1.043267-.01111v2.578245h.93503c.717904 0 .985213-.0128 1.151121-.0552zm8.718073.38145v-5.112069H67.786598v2.356633h-4.024382v1.595254h3.299268V102.24678h-3.299268V104.02331h4.096895v2.21161H61.22431Zm51.99078 0v-5.112069H119.81364v2.356633H115.75299v1.595254h3.29928V102.24678h-3.29928V104.02331h4.13316v2.21161h-6.67106zm12.00066-.002v-5.114056l2.27505.0136c1.91575.01149 2.31241.02269 2.5116.07085 1.04106.252037 1.9386.971497 2.39006 1.915863.2571.537777.30535.784585.3079 1.574791.002.611802-.007.720492-.0798.971632-.21801.75216-.74208 1.4287-1.32001 1.70402-.13397.0639-.24452.12488-.24564.13567-.00095.0108.52832.8755 1.17653 1.92157l1.17856 1.90192-1.38478.01c-.76164.005-1.39803-.004-1.4142-.0199-.0162-.0162-.45901-.77095-.98409-1.67727l-.95468-1.64785-.69499-.01-.69499-.01v3.37336h-2.06658zm4.31444-.43763c.28149-.13437.47482-.31612.61889-.58185.11805-.217738.12435-.247718.12435-.591905 0-.311297-.0125-.388195-.0889-.543848-.1134-.231383-.40349-.521289-.63626-.635846-.17786-.08752-.20095-.08943-1.22364-.100797l-1.04235-.01159V100.80242l1.02423-.012c1.01918-.012 1.02521-.0124 1.22363-.1072zm11.20288 3.43979-.00015-2.07564-1.80411-2.900467c-.99226-1.595245-1.84191-2.961638-1.88811-3.03642l-.084-.135957 1.49851.000957 1.49851.000958.99559 1.7052c.54758.937864 1.00556 1.711361 1.01773 1.718887.0122.0077.47603-.760446 1.03078-1.706593l1.00864-1.720271h2.99294l-1.84601 3.020985-1.84602 3.020991v4.18214h-2.57415zM96.77396 91.052888c-.055536-.140783-10.507481-29.145208-10.52395-29.204191-.01685-.06042.186418-.0631 4.037216-.05439l4.054978.0096 3.555862 10.398784c1.955738 5.719335 3.571324 10.397711 3.590204 10.39639.0189-.000958 1.58485-4.68077 3.47994-10.398784l3.44562-10.39639 4.13695-.0096 4.13695-.0096-.24394.661813c-.13415.364008-2.54996 6.963536-5.36845 14.665621l-5.12452 14.003798h-4.57592c-4.324319 0-4.577299-.0038-4.60094-.06348zm26.12142-14.602014V61.785415h7.13394c7.31031 0 7.80752.0086 8.78693.144996 1.98681.277488 3.96648 1.299852 5.41643 2.7972 1.48395 1.53246 2.3746 3.363166 2.68722 5.523524.0766.529112.0874 1.858273.0194 2.374755-.24459 1.857038-.94023 3.527715-2.05307 4.930786-.32059.404185-1.07611 1.164287-1.4882 1.497214-1.11408.900081-2.58909 1.618981-3.95306 1.926658-.95777.216044-.88772.212961-5.17433.228118l-3.94281.01398v9.893725h-7.43244zm14.65617-1.971374c1.02294-.354241 1.78185-1.163703 2.06261-2.199999.0937-.34595.11223-1.100249.0355-1.448276-.13285-.602677-.45245-1.169831-.90916-1.613379-.30795-.29907-.53987-.451084-.96872-.634955-.55751-.239024-.49016-.235185-4.12505-.235185h-3.28268V74.622083l3.41711-.01015 3.4171-.01015zM62.192805 90.871611c-.0077-.01494-1.603842-4.219545-3.546147-9.343538l-3.531449-9.316345-.0096 9.325413-.0096 9.325403h-7.287222V62.002943l5.048618.000661 5.048617.000651 2.91417 7.803399c1.602799 4.291876 2.925277 7.81578 2.938845 7.830908.0136.01513 1.396835-3.492612 3.073917-7.794992l3.049256-7.822492 5.042719-.0096 5.042728-.0096v28.85985h-7.359918v-9.306856c0-5.248355-.01369-9.291843-.03141-9.272415-.01723.01896-1.635843 4.215189-3.596828 9.324992l-3.565421 9.29054h-1.60373c-.882061 0-1.610354-.01226-1.618435-.02719z" style="fill:#9cc83b;fill-opacity:1;stroke-width:.957512" transform="translate(-29.167771 -29.608087) scale(1.0792496)"/>
</svg>
