<?xml version="1.0" encoding="UTF-8" standalone="no"?>
<!-- Created with Inkscape (http://www.inkscape.org/) -->

<svg
   width="500"
   height="330"
   viewBox="0 0 132.29166 87.3125"
   version="1.1"
   id="svg1"
   xml:space="preserve"
   inkscape:version="1.4 (86a8ad7, 2024-10-11)"
   sodipodi:docname="mvp4.svg"
   xmlns:inkscape="http://www.inkscape.org/namespaces/inkscape"
   xmlns:sodipodi="http://sodipodi.sourceforge.net/DTD/sodipodi-0.dtd"
   xmlns="http://www.w3.org/2000/svg"
   xmlns:svg="http://www.w3.org/2000/svg"><sodipodi:namedview
     id="namedview1"
     pagecolor="#ffffff"
     bordercolor="#111111"
     borderopacity="1"
     inkscape:showpageshadow="0"
     inkscape:pageopacity="0"
     inkscape:pagecheckerboard="1"
     inkscape:deskcolor="#d1d1d1"
     inkscape:document-units="px"
     inkscape:zoom="0.78573232"
     inkscape:cx="75.725534"
     inkscape:cy="394.5364"
     inkscape:window-width="1920"
     inkscape:window-height="1115"
     inkscape:window-x="-9"
     inkscape:window-y="-9"
     inkscape:window-maximized="1"
     inkscape:current-layer="layer1" /><defs
     id="defs1" /><g
     inkscape:label="Layer 1"
     inkscape:groupmode="layer"
     id="layer1"
     transform="matrix(1.0792496,0,0,1.0792496,-29.167771,-29.608087)"><path
       style="fill:#f8cc11;fill-opacity:1;stroke-width:0.957512"
       d="m 29.630009,81.873021 c 0,-13.996291 0.01228,-21.179883 0.03644,-21.309339 0.101094,-0.541674 0.409124,-0.896183 1.758213,-2.023472 0.438696,-0.366574 8.030295,-7.079893 16.870223,-14.9185 10.816384,-9.59118 16.12819,-14.278537 16.242594,-14.333116 0.203098,-0.09691 0.375546,-0.102348 0.559541,-0.01762 0.08091,0.03725 5.885722,5.408144 14.370009,13.295852 7.82884,7.278357 14.301948,13.293851 14.384677,13.367781 l 0.150435,0.134415 -4.604485,0.0019 -4.604485,0.0019 -8.33883,-7.761728 c -4.586359,-4.268953 -8.477507,-7.866087 -8.647006,-7.993638 -0.602246,-0.453219 -1.295878,-0.769313 -2.031889,-0.925943 -0.496614,-0.10569 -1.367318,-0.112689 -1.883733,-0.01513 -0.973718,0.183947 -1.624426,0.536992 -2.675118,1.451406 -1.495635,1.301652 -22.077385,19.683819 -22.298886,19.915795 -0.940955,0.985443 -1.712674,2.367813 -2.037661,3.650037 -0.211425,0.834165 -0.198297,-0.171519 -0.198297,15.191171 0,13.589559 0.0028,14.188454 0.06617,14.47679 0.188993,0.859013 0.538722,1.485877 1.036779,1.85834 0.393953,0.294617 1.198226,0.613449 1.906274,0.755697 0.617805,0.124113 1.060507,0.148797 2.668642,0.148797 h 1.555156 v 3.081744 3.08175 h -7.142388 -7.142388 z"
       id="path2"
       sodipodi:nodetypes="sssssssscccsssssssscssscccccs" /><path
       style="fill:#9cc83b;fill-opacity:1;stroke-width:0.957512"
       d="m 101.39946,101.27642 c -1.32318,-2.945956 -2.413708,-5.376883 -2.423398,-5.402066 -0.01408,-0.03648 0.239694,-0.04385 1.244788,-0.03629 l 1.26241,0.0096 1.14632,2.546671 c 0.63049,1.400668 1.15507,2.555415 1.16576,2.566095 0.0207,0.0207 0.18798,-0.34434 1.49966,-3.271638 l 0.83208,-1.856946 1.27756,-9.58e-4 1.27756,-9.58e-4 -0.085,0.190344 c -0.44856,1.004589 -4.71733,10.470356 -4.74952,10.531796 -0.0378,0.0723 -0.30358,-0.50031 -2.44823,-5.27523 z m -24.367631,5.10276 c -1.200577,-0.16651 -2.174788,-0.65403 -3.044113,-1.52336 -0.775786,-0.77578 -1.23229,-1.60747 -1.458167,-2.65659 -0.106514,-0.49472 -0.116223,-1.57901 -0.01848,-2.06507 0.205386,-1.021543 0.652181,-1.871813 1.381451,-2.628985 0.200503,-0.208154 0.519814,-0.495427 0.709583,-0.638379 1.614701,-1.216279 3.821901,-1.357761 5.648518,-0.362073 0.346869,0.18908 0.930568,0.619438 1.15858,0.85423 l 0.153557,0.158104 -0.829541,0.828947 -0.829531,0.828957 -0.284803,-0.241896 c -0.311469,-0.264551 -0.803601,-0.529887 -1.154932,-0.62268 -0.348228,-0.09192 -0.96408,-0.108544 -1.325206,-0.03562 -0.859415,0.173453 -1.568463,0.707333 -2.004361,1.509192 -0.207196,0.381153 -0.283509,0.680903 -0.304623,1.196563 -0.0249,0.60827 0.04069,0.93862 0.287197,1.44718 0.165889,0.34216 0.221147,0.41685 0.551115,0.7449 0.583565,0.58018 1.100411,0.80806 1.907786,0.84115 0.862632,0.0353 1.47453,-0.18319 2.114828,-0.75533 l 0.211582,-0.18906 0.832815,0.83048 0.832825,0.83049 -0.293525,0.2803 c -0.662302,0.63247 -1.640353,1.13113 -2.581434,1.31614 -0.352939,0.0694 -1.31904,0.0999 -1.661102,0.0525 z m 12.508241,0 c -1.130085,-0.15674 -2.093831,-0.61356 -2.914763,-1.38163 -1.132833,-1.0599 -1.688841,-2.33684 -1.689511,-3.88016 -6.32e-4,-1.457171 0.52599,-2.703364 1.584778,-3.750174 1.023284,-1.011702 2.242896,-1.511122 3.690224,-1.511122 1.345113,0 2.464579,0.419659 3.462431,1.29799 1.192821,1.04996 1.813241,2.406544 1.81257,3.963306 -5.17e-4,1.20692 -0.317635,2.19287 -1.001002,3.11232 -0.821182,1.10485 -1.969143,1.83904 -3.276961,2.0958 -0.359613,0.0706 -1.322325,0.10158 -1.667766,0.0536 z m 1.468354,-2.44691 c 0.936648,-0.26189 1.776971,-1.11019 2.012662,-2.03174 0.198541,-0.77628 0.09183,-1.5842 -0.296388,-2.244745 -0.180616,-0.307284 -0.722807,-0.855422 -1.018161,-1.029316 -0.920121,-0.54176 -2.08662,-0.54176 -2.987055,0 -0.43608,0.262368 -0.881534,0.74912 -1.119495,1.22328 -0.200484,0.399471 -0.277429,0.745191 -0.279325,1.254961 -0.0029,0.64659 0.124036,1.10357 0.438454,1.58465 0.427022,0.65337 1.078599,1.11506 1.801282,1.27633 0.326416,0.0729 1.134719,0.0542 1.448026,-0.0334 z m -42.618666,-2.81141 v -5.114063 l 2.275049,0.0136 c 1.93181,0.01159 2.311434,0.02241 2.516208,0.07191 1.032658,0.249355 1.967621,1.011684 2.406937,1.962532 0.190037,0.411309 0.277812,0.809337 0.298131,1.351844 0.0361,0.962837 -0.170409,1.643927 -0.68623,2.263747 -0.208058,0.25001 -0.591072,0.54719 -0.818826,0.63534 -0.08474,0.0327 -0.154083,0.0724 -0.154083,0.088 0,0.0156 0.529313,0.8822 1.176256,1.9257 l 1.176265,1.89729 -1.382485,0.01 c -0.884492,0.006 -1.395516,-0.004 -1.418669,-0.0267 -0.01992,-0.0199 -0.46378,-0.77467 -0.98641,-1.67726 l -0.950216,-1.64108 -0.710799,-0.01 -0.7108,-0.01 v 1.68666 1.68666 h -1.015164 -1.015164 z m 4.116479,-0.37946 c 0.59473,-0.15172 0.994846,-0.70857 0.950867,-1.323269 -0.03351,-0.468204 -0.291639,-0.853057 -0.710579,-1.05943 l -0.239915,-0.118186 -1.043257,-0.01111 -1.043267,-0.01111 v 1.289128 1.289117 h 0.93503 c 0.717904,0 0.985213,-0.0128 1.151121,-0.0552 z m 8.718073,0.38145 v -5.112069 h 3.281143 3.281145 v 1.178319 1.178314 h -2.012192 -2.01219 v 0.797627 0.797627 h 1.649628 1.64964 v 1.142052 1.14206 h -1.64964 -1.649628 v 0.88827 0.88826 h 2.048441 2.048454 v 1.10581 1.1058 H 64.541704 61.22431 Z m 51.99078,0 v -5.112069 h 3.29927 3.29928 v 1.178319 1.178314 h -2.03032 -2.03033 v 0.797627 0.797627 h 1.64964 1.64964 v 1.142052 1.14206 h -1.64964 -1.64964 v 0.88827 0.88826 h 2.06658 2.06658 v 1.10581 1.1058 h -3.33554 -3.33552 z m 12.00066,-0.002 v -5.114056 l 2.27505,0.0136 c 1.91575,0.01149 2.31241,0.02269 2.5116,0.07085 1.04106,0.252037 1.9386,0.971497 2.39006,1.915863 0.2571,0.537777 0.30535,0.784585 0.3079,1.574791 0.002,0.611802 -0.007,0.720492 -0.0798,0.971632 -0.21801,0.75216 -0.74208,1.4287 -1.32001,1.70402 -0.13397,0.0639 -0.24452,0.12488 -0.24564,0.13567 -9.5e-4,0.0108 0.52832,0.8755 1.17653,1.92157 l 1.17856,1.90192 -1.38478,0.01 c -0.76164,0.005 -1.39803,-0.004 -1.4142,-0.0199 -0.0162,-0.0162 -0.45901,-0.77095 -0.98409,-1.67727 l -0.95468,-1.64785 -0.69499,-0.01 -0.69499,-0.01 v 1.68668 1.68668 h -1.03329 -1.03329 z m 4.31444,-0.43763 c 0.28149,-0.13437 0.47482,-0.31612 0.61889,-0.58185 0.11805,-0.217738 0.12435,-0.247718 0.12435,-0.591905 0,-0.311297 -0.0125,-0.388195 -0.0889,-0.543848 -0.1134,-0.231383 -0.40349,-0.521289 -0.63626,-0.635846 -0.17786,-0.08752 -0.20095,-0.08943 -1.22364,-0.100797 l -1.04235,-0.01159 v 1.292517 1.292519 l 1.02423,-0.012 c 1.01918,-0.012 1.02521,-0.0124 1.22363,-0.1072 z m 11.20288,3.43979 -1.5e-4,-2.07564 -1.80411,-2.900467 c -0.99226,-1.595245 -1.84191,-2.961638 -1.88811,-3.03642 l -0.084,-0.135957 1.49851,9.57e-4 1.49851,9.58e-4 0.99559,1.7052 c 0.54758,0.937864 1.00556,1.711361 1.01773,1.718887 0.0122,0.0077 0.47603,-0.760446 1.03078,-1.706593 l 1.00864,-1.720271 h 1.49647 1.49647 l -1.84601,3.020985 -1.84602,3.020991 v 2.09107 2.09107 h -1.28707 -1.28708 z M 96.77396,91.052888 C 96.718424,90.912105 86.266479,61.90768 86.25001,61.848697 c -0.01685,-0.06042 0.186418,-0.0631 4.037216,-0.05439 l 4.054978,0.0096 3.555862,10.398784 c 1.955738,5.719335 3.571324,10.397711 3.590204,10.39639 0.0189,-9.58e-4 1.58485,-4.68077 3.47994,-10.398784 l 3.44562,-10.39639 4.13695,-0.0096 4.13695,-0.0096 -0.24394,0.661813 c -0.13415,0.364008 -2.54996,6.963536 -5.36845,14.665621 l -5.12452,14.003798 h -4.57592 c -4.324319,0 -4.577299,-0.0038 -4.60094,-0.06348 z M 122.89538,76.450874 V 61.785415 h 7.13394 c 7.31031,0 7.80752,0.0086 8.78693,0.144996 1.98681,0.277488 3.96648,1.299852 5.41643,2.7972 1.48395,1.53246 2.3746,3.363166 2.68722,5.523524 0.0766,0.529112 0.0874,1.858273 0.0194,2.374755 -0.24459,1.857038 -0.94023,3.527715 -2.05307,4.930786 -0.32059,0.404185 -1.07611,1.164287 -1.4882,1.497214 -1.11408,0.900081 -2.58909,1.618981 -3.95306,1.926658 -0.95777,0.216044 -0.88772,0.212961 -5.17433,0.228118 l -3.94281,0.01398 v 4.946862 4.946863 h -3.71622 -3.71622 z M 137.55155,74.4795 c 1.02294,-0.354241 1.78185,-1.163703 2.06261,-2.199999 0.0937,-0.34595 0.11223,-1.100249 0.0355,-1.448276 -0.13285,-0.602677 -0.45245,-1.169831 -0.90916,-1.613379 -0.30795,-0.29907 -0.53987,-0.451084 -0.96872,-0.634955 -0.55751,-0.239024 -0.49016,-0.235185 -4.12505,-0.235185 h -3.28268 v 3.137193 3.137184 l 3.41711,-0.01015 3.4171,-0.01015 z M 62.192805,90.871611 c -0.0077,-0.01494 -1.603842,-4.219545 -3.546147,-9.343538 l -3.531449,-9.316345 -0.0096,9.325413 -0.0096,9.325403 H 51.452418 47.808787 V 76.432748 62.002943 l 5.048618,6.61e-4 5.048617,6.51e-4 2.91417,7.803399 c 1.602799,4.291876 2.925277,7.81578 2.938845,7.830908 0.0136,0.01513 1.396835,-3.492612 3.073917,-7.794992 l 3.049256,-7.822492 5.042719,-0.0096 5.042728,-0.0096 v 14.42993 14.42992 h -3.679959 -3.679959 v -9.306856 c 0,-5.248355 -0.01369,-9.291843 -0.03141,-9.272415 -0.01723,0.01896 -1.635843,4.215189 -3.596828,9.324992 l -3.565421,9.29054 h -1.60373 c -0.882061,0 -1.610354,-0.01226 -1.618435,-0.02719 z"
       id="path1" /></g></svg>
