<svg xmlns="http://www.w3.org/2000/svg" xml:space="preserve" viewBox="0 0 132.292 87.313">
  <path d="M29.63 81.873c0-13.996.012-21.18.036-21.31.102-.541.41-.896 1.759-2.023.438-.366 8.03-7.08 16.87-14.918C59.11 34.03 64.423 29.343 64.537 29.289c.204-.097.376-.103.56-.018.08.037 5.886 5.408 14.37 13.296 7.829 7.278 14.302 13.294 14.385 13.368l.15.134-4.604.002-4.605.002-8.339-7.762c-4.586-4.269-8.477-7.866-8.647-7.994a5.17 5.17 0 0 0-2.032-.925c-.496-.106-1.367-.113-1.883-.016-.974.184-1.625.537-2.675 1.452-1.496 1.301-22.078 19.684-22.3 19.916-.94.985-1.712 2.367-2.037 3.65-.211.834-.198-.172-.198 15.19 0 13.59.003 14.19.066 14.478.189.859.539 1.485 1.037 1.858.394.295 1.198.613 1.906.756.618.124 1.06.148 2.669.148h1.555v6.164H29.63z" style="fill:#f8cc11;fill-opacity:1;stroke-width:.957512" transform="matrix(1.07925 0 0 1.07925 -29.168 -29.608)"/>
  <path d="M101.4 101.276a3328.594 3328.594 0 0 1-2.424-5.402c-.014-.036.24-.043 1.245-.036l1.262.01 1.147 2.546c.63 1.401 1.155 2.556 1.165 2.566.021.021.188-.344 1.5-3.271l.832-1.857 1.278-.001 1.277-.001-.085.19c-.448 1.005-4.717 10.47-4.75 10.532-.037.072-.303-.5-2.448-5.275zm-24.368 5.103c-1.2-.166-2.175-.654-3.044-1.523-.776-.776-1.233-1.608-1.458-2.657-.107-.494-.117-1.579-.019-2.065a5.12 5.12 0 0 1 1.382-2.629c.2-.208.52-.495.71-.638 1.614-1.216 3.821-1.358 5.648-.362.346.189.93.62 1.158.854l.154.158-.83.829-.83.829-.284-.242c-.312-.264-.804-.53-1.155-.623a3.578 3.578 0 0 0-1.325-.035c-.86.173-1.569.707-2.005 1.509-.207.381-.283.68-.304 1.197-.025.608.04.938.287 1.447.166.342.221.417.551.745.584.58 1.1.808 1.908.84.862.036 1.474-.182 2.115-.755l.211-.189.833.83.833.831-.294.28c-.662.633-1.64 1.132-2.581 1.317-.353.07-1.32.1-1.661.052zm12.508 0a5.193 5.193 0 0 1-2.915-1.381c-1.133-1.06-1.689-2.337-1.69-3.88 0-1.458.527-2.704 1.586-3.75 1.023-1.012 2.242-1.512 3.69-1.512 1.345 0 2.464.42 3.462 1.298 1.193 1.05 1.813 2.407 1.813 3.963 0 1.207-.318 2.193-1.001 3.113-.821 1.105-1.97 1.839-3.277 2.096-.36.07-1.322.101-1.668.053zm1.468-2.447c.937-.262 1.777-1.11 2.013-2.031a2.975 2.975 0 0 0-.296-2.245c-.18-.307-.723-.856-1.018-1.03a2.948 2.948 0 0 0-2.988 0c-.436.263-.881.75-1.119 1.224-.2.4-.277.745-.28 1.255-.002.646.125 1.103.44 1.584.426.654 1.078 1.115 1.8 1.277.327.073 1.135.054 1.448-.034zm-42.618-2.811v-5.114l2.275.013c1.932.012 2.311.023 2.516.072 1.033.25 1.968 1.012 2.407 1.963.19.411.278.81.298 1.352.036.963-.17 1.644-.686 2.263-.208.25-.591.548-.819.636-.085.032-.154.072-.154.088 0 .015.53.882 1.176 1.925l1.176 1.898-1.382.01c-.885.006-1.396-.004-1.419-.027-.02-.02-.463-.775-.986-1.677l-.95-1.641-.711-.01-.71-.01v3.373H48.39zm4.116-.38a1.27 1.27 0 0 0 .951-1.323 1.252 1.252 0 0 0-.71-1.06l-.24-.117-1.044-.012-1.043-.01v2.578h.935c.718 0 .985-.013 1.151-.056zm8.718.382V96.01h6.563v2.356h-4.025v1.596h3.3v2.284h-3.3v1.776h4.097v2.212h-6.635Zm51.991 0V96.01h6.599v2.356h-4.061v1.596h3.3v2.284h-3.3v1.776h4.133v2.212h-6.67zm12-.002v-5.114l2.276.013c1.916.012 2.312.023 2.511.071 1.041.252 1.939.972 2.39 1.916.258.538.306.785.308 1.575.002.612-.007.72-.08.972-.217.752-.742 1.428-1.32 1.704a1.271 1.271 0 0 0-.245.135c-.001.011.528.876 1.176 1.922l1.179 1.902-1.385.01c-.761.005-1.398-.004-1.414-.02a92.208 92.208 0 0 1-.984-1.677l-.955-1.648-.695-.01-.695-.01v3.373h-2.066zm4.315-.438c.282-.134.475-.316.62-.582.117-.217.123-.247.123-.592 0-.31-.012-.388-.088-.543a1.646 1.646 0 0 0-.637-.636c-.178-.088-.2-.09-1.223-.101l-1.043-.012v2.585l1.025-.012c1.019-.012 1.025-.012 1.223-.107zm11.203 3.44v-2.076l-1.804-2.9-1.888-3.037-.084-.135h1.498l1.499.001.995 1.706a83.911 83.911 0 0 0 1.018 1.719c.012.007.476-.76 1.03-1.707l1.01-1.72h2.992l-1.846 3.02-1.846 3.022v4.182h-2.574zm-43.959-13.07c-.056-.14-10.508-29.145-10.524-29.204-.017-.06.186-.063 4.037-.055l4.055.01 3.556 10.399c1.956 5.719 3.571 10.397 3.59 10.396.02 0 1.585-4.68 3.48-10.399l3.446-10.396 4.137-.01 4.137-.01-.244.663-5.369 14.665-5.124 14.004h-4.576c-4.324 0-4.577-.004-4.601-.064zm26.121-14.602V61.785h7.134c7.31 0 7.808.009 8.787.145 1.987.278 3.967 1.3 5.417 2.798 1.484 1.532 2.374 3.363 2.687 5.523.077.53.087 1.858.02 2.375-.245 1.857-.94 3.528-2.054 4.93a12.924 12.924 0 0 1-1.488 1.498c-1.114.9-2.59 1.619-3.953 1.927-.958.216-.888.213-5.174.228l-3.943.014v9.893h-7.433zm14.657-1.971a3.197 3.197 0 0 0 2.062-2.2c.094-.346.112-1.1.036-1.449a3.24 3.24 0 0 0-.91-1.613c-.307-.3-.54-.451-.968-.635-.558-.24-.49-.235-4.125-.235h-3.283v6.274l3.417-.01 3.417-.01zm-75.36 16.392c-.007-.015-1.603-4.22-3.545-9.344l-3.532-9.316-.01 9.325-.009 9.326h-7.287v-28.86h5.048l5.049.001 2.914 7.804c1.603 4.292 2.925 7.815 2.939 7.83.014.016 1.397-3.492 3.074-7.794l3.05-7.823 5.042-.01 5.043-.01v28.86h-7.36v-9.306c0-5.248-.014-9.292-.032-9.273-.017.02-1.636 4.216-3.596 9.325l-3.566 9.291H63.81c-.882 0-1.61-.012-1.618-.027z" style="fill:#9cc83b;fill-opacity:1;stroke-width:.957512" transform="matrix(1.07925 0 0 1.07925 -29.168 -29.608)"/>
</svg>
