<svg xmlns="http://www.w3.org/2000/svg" xml:space="preserve" width="128" height="128" viewBox="0 0 33.867 33.867">
  <path d="M8.912 24.949c-4.4-4.39-8.001-8-8-8.023 0-.05 15.968-15.98 16.018-15.98.052 0 16.025 15.93 16.025 15.983 0 .04-15.95 15.966-16.016 15.99-.014.006-3.626-3.58-8.027-7.97zm9.315 2.413c.91-.133 1.46-.267 2.219-.54.429-.154 1.47-.669 1.782-.88.132-.09.253-.163.269-.164a.264.264 0 0 0 .1-.057c.039-.032.197-.153.353-.27.155-.116.34-.257.411-.312.072-.055.36-.325.64-.6.884-.865 1.485-1.678 2.012-2.722.363-.718.426-.867.602-1.412.268-.829.31-.99.388-1.474.043-.266.101-.592.129-.724.068-.326.068-2.229 0-2.557a21.751 21.751 0 0 1-.129-.724 7.312 7.312 0 0 0-.162-.76c-.183-.6-.372-1.163-.453-1.352-.17-.4-.657-1.327-.85-1.619a27.216 27.216 0 0 1-.276-.425c-.42-.678-2.027-2.264-2.59-2.559-.057-.03-.105-.072-.105-.094 0-.021-.024-.038-.054-.038s-.133-.058-.23-.128c-.173-.126-1.107-.613-1.494-.779-.272-.117-.99-.352-1.258-.413a1.159 1.159 0 0 1-.26-.08c-.022-.018-.31-.07-.64-.116l-.898-.128c-.344-.05-1.413-.027-1.918.04-.633.084-1.138.17-1.219.207a1.84 1.84 0 0 1-.28.08 11.1 11.1 0 0 0-1.238.416c-1.22.59-1.213.585-1.738.935-1.086.723-2.256 1.91-2.94 2.982-.097.154-.195.307-.217.34-.234.351-.812 1.603-.895 1.938a1.67 1.67 0 0 1-.084.24c-.072.158-.289 1.005-.342 1.335-.192 1.192-.238 2.155-.139 2.935.145 1.149.3 1.905.502 2.442.328.876.8 1.913.96 2.11.073.09.398.588.398.61 0 .057.822 1.04 1.137 1.358.485.491 1.078.982 1.638 1.356.41.275.526.34 1.103.628.615.307.762.367 1.336.549l.712.225c.105.033.447.096.759.139.312.042.657.093.767.113.326.058 1.664.027 2.192-.05zm-.516-.865c-.24-.074-.338-.232-.402-.644a5.923 5.923 0 0 0-.093-.494 2.742 2.742 0 0 1-.062-.352c-.032-.274.01-.347.2-.347.113 0 .132.015.154.125.014.068.025.175.025.237s.016.122.035.134c.02.012.048.154.063.316.059.628.108.706.442.706.165 0 .223-.019.296-.097.102-.108.101-.182-.013-.922-.086-.565-.084-.62.028-.62.05 0 .114-.02.14-.047.083-.083.12.01.184.447.033.231.08.537.104.68.052.313.034.429-.1.632a.448.448 0 0 1-.256.2c-.22.067-.603.09-.745.046zm-2.016-.02a6.158 6.158 0 0 0-.213-.04c-.182-.029-.49-.292-.572-.488-.071-.169-.069-.586.005-.833a.867.867 0 0 1 .478-.56c.24-.117.415-.12.702-.016.3.11.4.192.533.444.104.196.112.241.093.507-.03.409-.227.762-.506.905-.106.054-.418.102-.52.08zm.392-.432c.147-.133.247-.403.247-.667 0-.24-.007-.258-.155-.399a.737.737 0 0 0-.274-.171c-.117-.024-.291.002-.33.049a.827.827 0 0 1-.122.09c-.127.08-.197.303-.197.628 0 .271.063.408.235.505.135.077.496.056.596-.035zm-2.2.14c-.17-.076-.18-.1-.228-.475-.065-.516-.15-.705-.334-.738-.055-.01-.113.065-.244.318-.094.181-.18.34-.192.351-.024.025-.31-.138-.31-.177 0-.015.11-.242.245-.506.135-.263.33-.643.43-.844l.186-.366.498.257c.274.142.542.301.595.354.137.136.16.469.045.653a.539.539 0 0 1-.534.23l-.158-.026.067.102c.094.144.192.946.114.936a1.442 1.442 0 0 1-.18-.07zm.297-1.312c.09-.082.095-.266.008-.352-.066-.066-.536-.316-.551-.293-.005.007-.06.1-.122.208-.109.19-.11.199-.037.255.12.09.467.248.552.248.042 0 .11-.03.15-.066zm5.718 1.016a3.52 3.52 0 0 1-.152-.39 1.648 1.648 0 0 0-.1-.26 2.256 2.256 0 0 1-.117-.298 5.845 5.845 0 0 0-.167-.433c-.1-.22-.074-.256.278-.37.146-.049.284-.1.306-.116.095-.066.392-.123.516-.1.188.036.37.237.42.466.024.103.032.22.02.26-.09.273-.11.295-.392.429a5.689 5.689 0 0 1-.358.158c-.088.03-.071.13.077.454.118.257.117.244.007.285-.25.094-.251.093-.338-.085zm.322-1.03c.166-.063.229-.11.266-.2.097-.235-.092-.449-.333-.376a3.176 3.176 0 0 0-.38.16c-.025.02.164.496.197.496.018 0 .13-.036.25-.08zm1.644.098a.873.873 0 0 1-.18-.123c-.053-.054-.045-.073.076-.175.13-.11.14-.113.255-.054.165.086.346.042.504-.12.103-.107.127-.162.117-.266-.018-.185-.106-.228-.34-.165-.105.028-.2.066-.211.085-.041.066-.486.169-.622.143-.174-.032-.418-.307-.418-.47 0-.348.478-.796.86-.806.148-.004.419.13.419.208a.569.569 0 0 1-.144.142c-.105.084-.155.102-.188.07-.024-.025-.103-.045-.174-.045-.248 0-.545.42-.35.495.12.046.23.024.488-.098.46-.218.772-.194.958.072.195.28.15.554-.137.84-.319.32-.633.411-.913.267zm-10.088-.055a3.448 3.448 0 0 1-.327-.138c-.196-.093-.292-.177-.517-.456-.144-.178-.15-.57-.012-.831.17-.323.279-.437.537-.57.27-.138.483-.16.662-.067.238.124.156.028-.343-.402-.307-.263-1.045-1.153-1.182-1.423a1.2 1.2 0 0 0-.119-.19 1.968 1.968 0 0 1-.159-.275 1.475 1.475 0 0 0-.19-.296.351.351 0 0 1-.09-.186 3.987 3.987 0 0 0-.173-.542 9.38 9.38 0 0 1-.409-1.579c-.097-.66-.072-1.92.045-2.297.02-.066.075-.3.121-.52a4.16 4.16 0 0 1 .136-.519 4.8 4.8 0 0 0 .123-.336c.087-.27.409-.926.649-1.322.572-.944 1.533-1.896 2.52-2.493.38-.23.99-.521 1.305-.623.154-.05.297-.104.32-.12.021-.016.228-.07.459-.119.23-.05.469-.105.53-.123.06-.019.369-.055.686-.082.592-.049 1.537-.007 1.86.083.077.021.32.078.539.125.22.048.426.101.46.12.033.018.192.079.353.135.343.119.966.414 1.179.558.082.056.204.13.272.165.282.146 1.022.757 1.348 1.113l.264.284c.12.125.487.615.688.917.176.265.574 1.06.68 1.359.14.393.328 1.098.4 1.498.083.467.083 1.89 0 2.357-.106.592-.452 1.756-.55 1.855-.022.022-.04.09-.04.15 0 .062-.016.113-.036.113-.02 0-.12.148-.222.33-.344.61-.62 1.012-.9 1.305a22.93 22.93 0 0 0-.3.325c-.287.316-1.253 1.115-1.35 1.116a.915.915 0 0 0-.2.113c-.485.328-1.484.731-2.205.889-.732.16-.834.17-1.658.17-.834 0-.971-.014-1.728-.19a7.685 7.685 0 0 1-2.525-1.113l-.117-.081.136.188c.114.16.136.223.136.406 0 .284-.054.339-.238.24-.122-.066-.14-.094-.14-.23a.555.555 0 0 0-.066-.257c-.087-.133-.344-.295-.467-.295-.141 0-.454.19-.533.323-.038.064-.08.117-.095.117-.05 0-.125.352-.099.47.035.158.242.35.462.426.18.063.18.062.275-.046l.095-.108-.16-.143c-.155-.137-.16-.147-.105-.25.084-.16.114-.151.454.129l.228.188.088.073-.259.31c-.259.308-.3.332-.496.272zm5.94-.88c.106-.022.363-.068.572-.102.692-.116 1.81-.547 2.331-.899.098-.065.19-.12.203-.12.033 0 .512-.367.742-.57.451-.396.49-.437.99-1.04.193-.233.649-.95.649-1.02 0-.035-1.587-.046-6.278-.046-5.961 0-6.275.003-6.25.07.03.078.347.618.381.649.013.01.093.119.178.24.322.456 1.117 1.25 1.525 1.521 1.004.67 1.926 1.066 2.827 1.217.2.033.428.076.505.095.198.047 1.394.051 1.625.005zm5.958-4.816a8.93 8.93 0 0 0 .328-1.378c.044-.292.044-1.432.001-1.758-.167-1.274-.722-2.607-1.465-3.516-.493-.605-.494-.606-.974-1.027-.81-.711-1.96-1.303-2.977-1.53-.43-.097-1.145-.205-1.28-.193l-.142.013.286.44c.405.62.7 1.078.972 1.507.298.47.437.687.712 1.11.267.41.651 1.006.973 1.51a209.31 209.31 0 0 0 1.318 2.045c.3.47.48.753.757 1.179l.592.919c.553.862.72 1.102.747 1.07a3.41 3.41 0 0 0 .152-.391zm-13.05-.007c.117-.18.32-.494.45-.699a275.389 275.389 0 0 1 1.54-2.39 933.595 933.595 0 0 1 1.938-3.017l.347-.54c.12-.186.252-.397.294-.469.042-.071.09-.13.107-.13s.032-.017.032-.038c0-.036.536-.885 1.003-1.589a6.4 6.4 0 0 0 .254-.41l.063-.12h-.122c-.223 0-1.293.199-1.638.304-.584.179-1.11.421-1.78.818-.315.188-.793.576-1.172.953-.564.56-.858.957-1.318 1.773-.263.467-.559 1.343-.691 2.045-.1.532-.142 1.597-.077 1.978.137.804.177.993.3 1.393.074.24.148.46.164.485.036.06.05.045.305-.347zm16.165-2.041c-.039-.009-.07-.032-.07-.053 0-.02-.015-.037-.034-.037a5.59 5.59 0 0 1-.507-.264l-.474-.265-.408.018-.407.018-.024-.143c-.04-.247-.045-.242.245-.245.43-.004.618-.05.818-.2.504-.378.768-.557.82-.557.034 0 .05.066.05.198v.197l-.346.234c-.191.128-.353.251-.36.273-.007.021.155.123.361.225l.375.186.02.213c.012.117.02.213.016.215a.444.444 0 0 1-.075-.013zm-18.864-.172c-.414-.04-.762-.082-.773-.093-.01-.01-.007-.107.008-.215.024-.178.039-.2.167-.246.208-.075 1.224-.564 1.207-.581a7.105 7.105 0 0 0-.594-.064c-.319-.027-.603-.067-.631-.09-.03-.023-.047-.1-.04-.183.01-.116.027-.142.092-.136l.879.073c.44.036.84.085.89.11.079.038.09.07.08.22-.011.168-.019.178-.211.26-.11.047-.206.1-.213.117-.008.017-.03.031-.051.031-.05 0-.885.404-.868.42.007.007.287.035.622.063.666.056.653.05.585.306-.03.11-.08.11-1.149.008zm16.72-1.327a4.536 4.536 0 0 1-.104-.43c-.037-.186-.083-.356-.1-.378a.72.72 0 0 1-.059-.22l-.027-.18.273-.067c.938-.231 1.249-.31 1.385-.351a.494.494 0 0 1 .16-.034l.056.102c.077.138.061.242-.04.27-.05.014-.126.041-.17.061-.044.02-.26.073-.48.118a4.3 4.3 0 0 0-.479.119c-.043.02-.13.047-.194.06-.13.03-.13 0 .018.595.075.298.08.36.033.39-.106.066-.237.04-.273-.055zM8.364 14.545c-.396-.375-.725-.714-.732-.753a.53.53 0 0 1 .048-.216l.06-.144h1.041c.573 0 1.04.006 1.04.013 0 .007-.028.097-.063.2l-.063.187h-.246c-.246.001-.247.001-.314.15-.038.083-.1.244-.14.359l-.07.209.167.17.167.17-.076.17a.797.797 0 0 1-.088.168 38.03 38.03 0 0 1-.731-.683zm.477-.709c-.014-.013-.19-.029-.39-.035l-.367-.011.28.258.28.258.11-.223c.061-.122.1-.233.087-.247zm15.248-.128c-.027-.09-.039-.173-.027-.185.023-.024.269-.116.723-.273a4.7 4.7 0 0 0 .36-.136c.043-.022.203-.078.354-.124.15-.046.297-.092.325-.102.03-.012.068.032.095.109.08.231.065.257-.205.332a3.124 3.124 0 0 0-.37.125c-.066.031-.246.095-.4.141a2.164 2.164 0 0 0-.319.116 2.54 2.54 0 0 1-.46.161c-.015 0-.049-.074-.076-.164zm-14.627-.58c-.165-.1-.382-.23-.483-.289-.57-.33-.793-.469-.794-.497-.001-.034.288-.534.353-.611a1.18 1.18 0 0 0 .097-.16.89.89 0 0 1 .41-.371c.104-.041.15-.037.304.03.275.117.364.254.345.53-.017.231.01.257.154.147.068-.053.853-.094.853-.045 0 .061-.116.279-.17.321-.056.042-.616.131-.822.131-.094 0-.167.034-.25.117-.064.064-.117.133-.117.153 0 .02.095.088.21.15.116.063.234.138.263.167.029.028.065.052.08.053.015 0 .052.016.082.036.047.029.04.06-.033.179-.049.079-.11.143-.135.143-.026 0-.182-.083-.347-.184zm-.23-.947c.165-.276.185-.402.084-.513-.118-.131-.278-.094-.417.096-.18.246-.267.439-.208.459.027.009.108.058.18.11a.64.64 0 0 0 .172.097c.022 0 .107-.111.19-.25zm14.455.725-.094-.128.156-.136c.086-.075.184-.148.217-.163.084-.036.799-.578.783-.594-.007-.007-.155.048-.328.122a7.634 7.634 0 0 1-.475.187.624.624 0 0 0-.18.08.85.85 0 0 1-.213.092l-.193.065-.095-.109c-.12-.136-.122-.21-.008-.336.263-.293.794-.959.777-.975-.01-.01-.206.12-.435.292-.754.565-.686.537-.828.337l-.08-.113.148-.107c.628-.457.918-.67.987-.722.044-.034.157-.117.252-.184l.173-.122.086.11c.048.06.125.166.172.235l.084.124-.093.117c-.1.125-.123.153-.495.61a4.34 4.34 0 0 0-.239.308c0 .014.257-.078.89-.318a1.79 1.79 0 0 1 .342-.103c.04 0 .132.092.214.215l.145.214-.157.115c-.086.063-.326.24-.533.395-.516.382-.848.619-.869.619a.593.593 0 0 1-.111-.127zm-12.563-1.399a3.505 3.505 0 0 1-.106-.312 1.232 1.232 0 0 0-.08-.22 2.72 2.72 0 0 1-.117-.34 2.41 2.41 0 0 0-.12-.339 1.615 1.615 0 0 1-.097-.28 61.435 61.435 0 0 0-.086-.302c-.01-.04.044-.113.144-.193.156-.126.166-.128.261-.066.055.036.274.157.488.27.214.113.514.275.668.36.154.084.347.183.43.218.082.036.148.076.146.089a.891.891 0 0 1-.155.155l-.153.13-.202-.125-.202-.126-.301.253c-.166.14-.302.266-.302.28 0 .015.027.103.06.196.083.235.079.256-.08.378l-.141.107zm.309-1.077.192-.165-.172-.099-.304-.174a.64.64 0 0 0-.168-.075c-.036 0 .024.223.081.3.017.021.051.116.076.209.025.093.058.17.074.17.015 0 .115-.075.22-.166zm-1.312.804-.116-.121.248-.248.248-.248.129.129.129.129-.238.24a2.05 2.05 0 0 1-.26.24.594.594 0 0 1-.14-.121zm12.36-.003-.146-.118.053-.228c.03-.126.05-.23.046-.23a15.209 15.209 0 0 1-.312-.229l-.306-.226-.183.121c-.195.13-.258.128-.424-.01-.117-.098-.137-.075.34-.376.153-.097.297-.19.32-.208.107-.082.62-.41.642-.41a.594.594 0 0 0 .144-.1c.147-.124.194-.124.324-.004a.658.658 0 0 0 .152.113c.034.01.039.042.016.094-.031.071-.075.247-.36 1.436-.057.241-.117.451-.132.466-.015.015-.093-.026-.174-.09zm.153-1.275c.045-.197.074-.36.065-.36-.008 0-.109.07-.223.154a3.539 3.539 0 0 1-.307.206c-.093.05-.094.056-.026.097.04.024.137.093.214.153.078.06.154.11.17.11.014 0 .063-.162.107-.36zm-9.802.23a4.786 4.786 0 0 1-.097-.17 812.528 812.528 0 0 1-.549-.996l-.24-.438.124-.092c.163-.12.215-.116.448.032.108.068.232.14.278.161.045.021.235.126.421.234.186.107.344.19.35.184.007-.007-.124-.259-.291-.56-.167-.302-.298-.555-.29-.56.024-.022.268-.142.287-.142.019 0 .114.165.694 1.204.25.448.25.448.169.524-.107.1-.327.134-.403.064a.849.849 0 0 0-.137-.098c-.738-.409-.987-.54-1.001-.525-.01.01.024.078.075.153.05.075.129.208.174.296.045.088.138.26.206.38.13.23.127.276-.02.353-.111.06-.16.058-.198-.004zm7.207-.61c-.166-.113-.163-.139.036-.406a.733.733 0 0 0 .095-.149c0-.02.363-.596.43-.683.017-.022.09-.134.164-.25.074-.115.154-.209.18-.208.039 0 .527.295.644.388.022.018.126.086.23.151.21.132.224.168.116.302l-.074.091-.193-.117a18.464 18.464 0 0 0-.309-.184 1.353 1.353 0 0 1-.193-.136c-.074-.067-.08-.067-.137.007-.11.139-.178.29-.157.343.012.03.155.134.318.233.261.158.375.28.262.28-.02 0-.048.035-.062.08-.014.043-.043.08-.065.08-.022 0-.183-.093-.359-.206-.175-.112-.323-.198-.329-.19a18.62 18.62 0 0 1-.109.155 2.453 2.453 0 0 0-.15.24c-.028.055-.082.14-.12.19l-.068.09zm-5.448-.326c-.16-.032-.397-.28-.511-.534-.097-.214-.11-.286-.097-.552.012-.256.033-.336.133-.493.12-.189.207-.245.58-.37.25-.084.326-.077.612.052.372.169.504.397.535.925.016.281.006.37-.058.511-.168.369-.671.563-1.194.46zm.586-.357a.442.442 0 0 0 .22-.178c.07-.136.076-.508.012-.724-.114-.38-.542-.518-.84-.272-.196.162-.249.331-.195.624.023.126.07.258.102.295.033.036.06.088.06.115 0 .053.3.202.41.204a.877.877 0 0 0 .23-.064zm1.237-.814v-.96h.192c.19 0 .192.002.328.23.076.127.149.24.163.25.014.011.056.08.093.151.036.072.138.241.225.376l.158.245V7.12h.36v1.918h-.381l-.263-.43-.38-.618c-.063-.104-.131-.19-.151-.19-.021 0-.025.255-.01.618l.027.62h-.36Zm6.633 21.335v-.52h-.2c-.195 0-.2-.002-.2-.119v-.12h1.04v.12c0 .117-.005.12-.2.12h-.2V29.934h-.24zm.759-.122v-.641l.209.012.208.012.035.18a.66.66 0 0 0 .07.218c.02.02.037.066.038.1 0 .098.083.37.106.348.011-.011.055-.175.097-.365.104-.464.13-.5.365-.5h.19v1.278h-.28v-.448c0-.25-.014-.43-.033-.41-.02.022-.076.223-.128.448l-.093.41h-.13c-.125 0-.13-.007-.176-.228a1.633 1.633 0 0 0-.082-.29 1.91 1.91 0 0 1-.09-.261l-.058-.2-.004.49-.004.489h-.24z" style="fill:#0101ae;fill-opacity:1;stroke-width:.178281"/>
</svg>
