<?xml version="1.0" encoding="UTF-8" standalone="no"?>
<!-- Created with Inkscape (http://www.inkscape.org/) -->

<svg
   width="500"
   height="200"
   viewBox="0 0 132.29166 52.916668"
   version="1.1"
   id="svg1"
   xml:space="preserve"
   inkscape:version="1.4 (86a8ad7, 2024-10-11)"
   sodipodi:docname="newfoundfreedom.svg"
   xmlns:inkscape="http://www.inkscape.org/namespaces/inkscape"
   xmlns:sodipodi="http://sodipodi.sourceforge.net/DTD/sodipodi-0.dtd"
   xmlns="http://www.w3.org/2000/svg"
   xmlns:svg="http://www.w3.org/2000/svg"><sodipodi:namedview
     id="namedview1"
     pagecolor="#ffffff"
     bordercolor="#111111"
     borderopacity="1"
     inkscape:showpageshadow="0"
     inkscape:pageopacity="0"
     inkscape:pagecheckerboard="1"
     inkscape:deskcolor="#d1d1d1"
     inkscape:document-units="px"
     inkscape:zoom="0.57306996"
     inkscape:cx="314.09777"
     inkscape:cy="66.30953"
     inkscape:window-width="1920"
     inkscape:window-height="1115"
     inkscape:window-x="-9"
     inkscape:window-y="-9"
     inkscape:window-maximized="1"
     inkscape:current-layer="layer1" /><defs
     id="defs1" /><g
     inkscape:label="Layer 1"
     inkscape:groupmode="layer"
     id="layer1"
     transform="translate(0,1.8910959)"><g
       id="g36"
       transform="matrix(1.0192689,0,0,1.0192689,-0.96128064,-139.83083)"><path
         style="fill:#0c0c0c"
         d="m 99.006281,74.765017 c -1.253,-0.208192 -2.40058,-0.808191 -3.33723,-1.744842 -0.75646,-0.756464 -1.11974,-1.3609 -1.48048,-2.463258 -0.3157,-0.964717 -0.31281,-2.706679 0.006,-3.682774 0.3611,-1.105239 0.80026,-1.825505 1.53652,-2.520053 0.74892,-0.706496 1.42403,-1.109839 2.47476,-1.478533 l 0.69954,-0.245465 1.915109,0.0094 1.9151,0.0094 0.65517,0.24551 c 1.07979,0.404625 1.90789,0.900731 2.50749,1.502211 2.2714,2.278513 2.28219,6.366797 0.0228,8.629724 -0.89675,0.898147 -2.20475,1.563107 -3.43743,1.747522 -0.70699,0.105768 -2.819749,0.100337 -3.477439,-0.0089 z m 2.643319,-3.158358 c 1.36866,-0.364372 2.14047,-1.404505 2.14335,-2.888506 0.004,-1.928395 -1.70786,-3.297128 -3.65273,-2.921012 -1.174019,0.227041 -1.978309,0.922635 -2.250939,1.946739 -0.67505,2.535692 1.26384,4.527406 3.760319,3.862779 z m -68.286199,3.099695 c -0.0988,-0.03986 -0.126,-1.33247 -0.126,-5.987437 V 62.78232 l 0.22679,-0.05515 c 0.12473,-0.03033 2.06378,-0.04254 4.309,-0.02712 l 4.0822,0.02803 0.0295,1.007952 c 0.0162,0.554374 0.004,1.110008 -0.0271,1.234742 l -0.0566,0.226789 h -2.31282 -2.31282 l -0.10435,0.194964 c -0.0574,0.10723 -0.10434,0.518433 -0.10434,0.913783 0,0.395351 0.0469,0.806553 0.10434,0.913784 l 0.10435,0.194964 h 2.31282 2.31282 l 0.0566,0.226789 c 0.0311,0.124734 0.0433,0.680368 0.0271,1.234741 l -0.0295,1.007952 -2.31029,0.02714 c -1.53054,0.01798 -2.35659,0.06556 -2.44746,0.140972 -0.10863,0.09015 -0.13503,0.571675 -0.12687,2.314465 0.006,1.210345 -0.0183,2.246836 -0.0532,2.303312 -0.0642,0.103966 -3.3044,0.13672 -3.55419,0.03593 z m 10.98667,0.0012 c -0.0988,-0.0408 -0.12599,-1.334304 -0.12599,-5.988633 v -5.936597 l 0.23734,-0.05957 c 0.13054,-0.03276 1.77476,-0.04046 3.65382,-0.0171 l 3.41649,0.04247 0.50398,0.192854 c 1.05203,0.402576 1.82058,1.080506 2.26443,1.997422 0.28721,0.593344 0.39207,1.826106 0.2151,2.528903 -0.15498,0.615481 -0.68299,1.346445 -1.14626,1.586863 -0.20665,0.107239 -0.37572,0.268351 -0.37572,0.358028 0,0.08968 0.1995,0.368716 0.44333,0.620088 0.24718,0.254826 0.6432,0.858405 0.89508,1.364197 1.05323,2.114976 1.4942,3.103494 1.44345,3.23576 -0.0436,0.113603 -0.41431,0.14088 -1.91462,0.14088 h -1.86056 l -0.20891,-0.265581 c -0.11489,-0.14607 -0.2089,-0.329854 -0.2089,-0.40841 0,-0.07856 -0.0854,-0.310568 -0.18971,-0.515582 -0.10434,-0.205014 -0.38386,-0.780973 -0.62116,-1.27991 -0.2373,-0.498936 -0.54342,-1.05934 -0.68027,-1.245342 -0.37893,-0.515038 -1.08617,-0.921755 -1.60285,-0.921755 -0.23861,0 -0.44299,0.01134 -0.45417,0.0252 -0.0112,0.01386 -0.0452,1.04575 -0.0756,2.293091 l -0.0553,2.267892 -1.71352,0.01844 c -0.94243,0.01014 -1.77021,-0.005 -1.83951,-0.0336 z m 5.9309,-7.095584 c 0.30775,-0.157001 0.40922,-0.282272 0.49914,-0.616215 0.32831,-1.219263 -0.57155,-1.981487 -2.22184,-1.882004 l -0.55437,0.03342 -0.0285,1.25435 c -0.0156,0.689892 -0.003,1.319991 0.0275,1.400221 0.0827,0.215492 1.75704,0.07601 2.27801,-0.189771 z m 7.27327,7.094936 c -0.0988,-0.04029 -0.12599,-1.331542 -0.12599,-5.979125 v -5.927734 l 0.15944,-0.06118 c 0.29107,-0.111693 8.69335,-0.06975 8.7635,0.04375 0.0357,0.05771 0.0642,0.586054 0.0633,1.174092 -0.001,0.774009 -0.0383,1.092432 -0.1345,1.153464 -0.0731,0.04637 -1.22382,0.085 -2.55708,0.08585 -1.74924,0.0011 -2.45781,0.03522 -2.54509,0.122497 -0.18905,0.189054 -0.15948,1.640434 0.0374,1.837353 0.13474,0.134739 0.50191,0.158392 2.45871,0.158392 h 2.3003 l 0.0612,0.159437 c 0.10407,0.271198 0.0687,2.24313 -0.0415,2.311213 -0.0565,0.0349 -1.09995,0.0588 -2.31884,0.0531 -1.39809,-0.0065 -2.29038,0.02935 -2.4172,0.09723 l -0.20104,0.107591 v 0.984247 c 0,0.631131 0.0434,1.027641 0.12096,1.105201 0.0877,0.0877 0.82161,0.120954 2.66915,0.120954 h 2.5482 l 0.0566,0.226789 c 0.0311,0.124734 0.0433,0.680368 0.0271,1.234741 l -0.0295,1.007952 -4.38459,0.01779 c -2.41153,0.0098 -4.44129,-0.0053 -4.51059,-0.0336 z m 11.38987,-5.48e-4 c -0.0988,-0.03986 -0.126,-1.33247 -0.126,-5.987437 v -5.936597 l 0.22679,-0.05513 c 0.12474,-0.03032 2.13182,-0.04252 4.46019,-0.02712 l 4.2334,0.02801 0.0295,1.007952 c 0.0162,0.554374 0.004,1.10923 -0.0267,1.233014 l -0.0562,0.225062 -2.54359,0.02693 -2.5436,0.02693 -0.0299,0.806023 c -0.0164,0.443313 -0.004,0.908231 0.0271,1.033151 l 0.057,0.227127 h 2.31283 2.31282 l 0.10434,0.194964 c 0.12414,0.231948 0.13788,2.015172 0.017,2.205805 -0.066,0.104029 -0.57666,0.130749 -2.35238,0.123077 -1.84884,-0.008 -2.29016,0.01675 -2.38733,0.133828 -0.0793,0.09558 -0.10955,0.492776 -0.0904,1.18726 l 0.0288,1.043634 2.51172,0.027 c 1.64655,0.0177 2.55793,0.06535 2.64588,0.138336 0.0965,0.08007 0.13415,0.416205 0.13415,1.19696 0,0.896963 -0.0277,1.096254 -0.15943,1.146803 -0.19039,0.07306 -8.6045,0.06772 -8.78614,-0.0056 z m 11.31014,-0.05924 c -0.0265,-0.0693 -0.0364,-2.779428 -0.022,-6.022514 l 0.0262,-5.89652 3.32624,4.94e-4 3.32624,4.94e-4 0.80636,0.185923 c 1.76628,0.407249 3.00015,1.194833 3.88982,2.482874 0.91883,1.330254 1.24661,3.467576 0.80661,5.259479 -0.22028,0.897073 -0.38267,1.215657 -1.05353,2.066827 -0.85427,1.083889 -1.70648,1.613793 -3.05478,1.89947 -0.93516,0.198141 -7.97642,0.21867 -8.05109,0.02347 z m 6.30382,-2.635545 c 1.37378,-0.331275 2.01139,-1.028195 2.20046,-2.405109 0.21525,-1.567624 -0.18568,-2.957196 -1.05992,-3.67357 -0.29165,-0.238991 -0.66098,-0.410969 -1.16202,-0.541106 -0.71331,-0.185268 -2.01323,-0.253962 -2.4732,-0.130694 l -0.22679,0.06078 v 3.357873 3.357874 l 0.22679,0.04368 c 0.50328,0.09694 1.974,0.05583 2.49468,-0.06973 z m 23.237569,2.667673 c -0.0319,-0.05163 -0.058,-2.730857 -0.058,-5.953847 0,-3.222989 0.0261,-5.90222 0.058,-5.953846 0.0319,-0.05163 0.77217,-0.09387 1.64502,-0.09387 h 1.587 l 0.30715,0.327584 c 0.16893,0.180172 0.85441,1.007952 1.52329,1.839513 0.66887,0.83156 1.35493,1.67068 1.52458,1.864711 l 0.30846,0.352783 0.38033,-0.411493 c 0.3716,-0.402041 2.27713,-2.692504 2.94901,-3.544719 l 0.33773,-0.428379 h 1.63546 c 1.26282,0 1.64712,0.03036 1.6866,0.133237 0.0281,0.07328 0.0339,2.783413 0.0129,6.022514 l -0.0382,5.889276 -1.58969,0.02882 c -0.87433,0.01585 -1.69331,0.0033 -1.81995,-0.02799 l -0.23027,-0.05681 0.0113,-3.181266 c 0.006,-1.749696 -0.0127,-3.205202 -0.0419,-3.234458 -0.0614,-0.06136 -0.65401,0.385967 -0.66238,0.499962 -0.003,0.04178 -0.55363,0.758831 -1.22347,1.593441 -0.96263,1.199418 -1.26252,1.510951 -1.43085,1.486357 -0.13134,-0.01919 -0.59013,-0.499925 -1.19709,-1.254361 -1.22255,-1.519599 -1.96004,-2.325004 -2.04903,-2.237734 -0.0375,0.03677 -0.0629,1.471395 -0.0564,3.188059 l 0.0117,3.121206 -0.1631,0.06259 c -0.2615,0.10035 -3.35431,0.07205 -3.41817,-0.03128 z M 59.537611,59.726256 c -0.0872,-0.122992 -0.30818,-0.541126 -0.49109,-0.929188 -0.45921,-0.974236 -1.65167,-3.443189 -2.82358,-5.846122 -1.56293,-3.204702 -1.67797,-3.477873 -1.50948,-3.584492 0.0795,-0.0503 0.64876,-0.09214 1.26506,-0.09299 l 1.12056,-0.0015 0.26538,0.401019 c 0.14596,0.220561 0.26538,0.452514 0.26538,0.515451 0,0.06294 0.0885,0.27936 0.19657,0.480939 0.10811,0.201579 0.33908,0.684012 0.51327,1.072073 0.17418,0.388062 0.44859,0.973619 0.60979,1.301238 0.1612,0.32762 0.29309,0.645935 0.29309,0.707368 0,0.06143 0.11686,0.28366 0.25968,0.49384 0.21069,0.310057 0.28674,0.359677 0.40318,0.263044 0.0789,-0.0655 0.14351,-0.170165 0.14351,-0.232577 0,-0.101565 0.59693,-1.547132 0.9627,-2.331322 0.0776,-0.166312 0.34906,-0.801322 0.60332,-1.411133 0.58098,-1.393427 0.87844,-1.99431 0.99327,-2.006427 0.10647,-0.01124 0.15928,0.08632 0.51321,0.948077 0.148,0.360343 0.33982,0.813921 0.42626,1.007952 0.0864,0.194031 0.23791,0.534215 0.33657,0.755964 0.0987,0.22175 0.30009,0.698007 0.4476,1.05835 0.88069,2.151393 1.16856,2.620176 1.32041,2.15028 0.12561,-0.388677 0.71481,-1.72759 1.45633,-3.309425 0.10395,-0.221749 0.32917,-0.709025 0.50048,-1.082835 0.21666,-0.472743 0.37907,-0.69649 0.53347,-0.734957 0.12209,-0.03042 0.69771,-0.04208 1.27915,-0.02591 l 1.05717,0.02939 0.034,0.17773 c 0.0187,0.09775 -0.42038,1.095625 -0.97576,2.217495 -0.97513,1.969747 -2.5732,5.249642 -3.52305,7.230718 -0.25251,0.526655 -0.47706,0.980202 -0.499,1.007883 -0.0669,0.08436 -0.62799,-0.597156 -0.62799,-0.762715 0,-0.08516 -0.0848,-0.322571 -0.18837,-0.527584 -0.38938,-0.770487 -1.69932,-3.843406 -1.86686,-4.379363 -0.0303,-0.09701 -0.0986,-0.176391 -0.15179,-0.176391 -0.14452,0 -0.50986,0.500051 -0.58268,0.79754 -0.0351,0.143445 -0.21076,0.578314 -0.39031,0.966376 -0.17955,0.388061 -0.53902,1.204503 -0.79882,1.814314 -0.25979,0.609811 -0.55651,1.290178 -0.65937,1.511928 -0.10285,0.221749 -0.21118,0.482557 -0.24073,0.579572 -0.0731,0.240048 -0.27903,0.216606 -0.47056,-0.05356 z m -11.8865,-0.226396 c -0.85456,-0.196918 -1.5087,-0.573422 -2.13018,-1.226073 -1.0298,-1.081449 -1.39047,-2.096085 -1.39047,-3.911708 0,-1.766338 0.37477,-2.897989 1.29147,-3.899754 0.94564,-1.033379 1.94409,-1.439423 3.53952,-1.439423 1.45356,0 2.38386,0.327578 3.25843,1.147359 0.36975,0.346584 0.97429,1.15154 0.97559,1.299008 3.4e-4,0.0388 0.0668,0.197334 0.14759,0.3523 0.16105,0.308754 0.31014,1.071663 0.40786,2.086931 0.0457,0.474454 0.0256,0.705261 -0.0726,0.836772 l -0.13563,0.181603 -3.2504,-0.0076 c -2.17252,-0.0051 -3.31866,0.02896 -3.45625,0.102593 -0.26148,0.139943 -0.19162,0.527202 0.22989,1.274341 0.22319,0.395612 0.42825,0.598186 0.84177,0.83156 l 0.5467,0.308537 0.73229,-0.0019 0.73229,-0.0019 0.46597,-0.292686 c 0.25629,-0.160978 0.68254,-0.568337 0.94723,-0.905242 0.26469,-0.336905 0.51308,-0.612555 0.55198,-0.612555 0.2912,0 1.91544,1.02512 1.91544,1.208908 0,0.03576 -0.18236,0.311342 -0.40525,0.6124 -0.45762,0.618136 -1.36143,1.414397 -1.96344,1.729804 -0.8673,0.454398 -2.5824,0.602652 -3.77982,0.326729 z m 3.41604,-6.679545 c 0.15503,-0.289684 -0.37954,-1.057159 -0.91361,-1.311641 -0.65786,-0.31347 -1.09095,-0.359489 -1.69499,-0.180107 -0.63311,0.188011 -1.15076,0.559097 -1.36921,0.981518 -0.29205,0.564778 -0.23736,0.583054 1.84289,0.615786 1.04166,0.01639 1.92636,0.04008 1.96598,0.05264 0.0396,0.01256 0.11565,-0.05863 0.16894,-0.158192 z m 30.96046,6.677601 c -0.78658,-0.191428 -1.55726,-0.609739 -2.1918,-1.189676 -0.53371,-0.487778 -1.13998,-1.315379 -1.26636,-1.728667 -0.0339,-0.110874 -0.13838,-0.4057 -0.23217,-0.655168 -0.12215,-0.324908 -0.17227,-0.782406 -0.17667,-1.612724 -0.009,-1.673975 0.32571,-2.511544 1.48291,-3.712174 0.95577,-0.991632 2.05358,-1.478924 3.58831,-1.592763 1.34566,-0.09981 2.68258,0.341427 3.77982,1.247514 0.47564,0.392776 1.14749,1.242665 1.37482,1.739133 0.64514,1.40894 0.61806,3.468206 -0.0636,4.835419 -0.40314,0.808606 -1.56014,1.923847 -2.38291,2.296907 -1.1336,0.513999 -2.7125,0.664206 -3.91236,0.372199 z m 1.25482,-8.264096 c -3.71275,0.238019 -3.35832,6.151547 -0.0936,6.151548 4.08883,0.334717 4.43392,-5.997617 0.0936,-6.151548 z m 10.88568,8.271881 c -0.6841,-0.170808 -1.23525,-0.475883 -1.74548,-0.966156 -1.12511,-1.081105 -1.22196,-1.535896 -1.2311,-5.781071 -0.006,-2.619212 0.0204,-3.334622 0.12398,-3.400295 0.2104,-0.133456 2.03824,-0.104328 2.17727,0.0347 0.0888,0.08882 0.12095,0.943242 0.12095,3.216477 v 3.095524 c 0.22,0.908719 0.74288,1.731457 1.91511,1.731457 1.60086,0.125889 1.91511,-1.731457 1.91511,-1.731457 v -3.095524 c 0,-2.273235 0.0321,-3.127653 0.12096,-3.216477 0.13907,-0.139074 1.96689,-0.168129 2.17739,-0.03461 0.10357,0.06569 0.12965,0.756266 0.12361,3.273095 -0.008,3.155782 -0.0518,3.754247 -0.33936,4.588842 -0.38578,1.119744 -1.39782,1.983357 -2.68737,2.293233 -0.6838,0.164315 -1.99724,0.160513 -2.67107,-0.0077 z m 23.082099,0.0013 c -0.27718,-0.06848 -0.73423,-0.24167 -1.01566,-0.38487 -0.52527,-0.26728 -1.52466,-1.25448 -1.77827,-1.75659 -0.0783,-0.155111 -0.19348,-0.372735 -0.25587,-0.48361 -0.53247,-0.946316 -0.65456,-3.173534 -0.24411,-4.453284 0.48741,-1.519687 1.69276,-2.769784 3.1001,-3.215169 1.23923,-0.392183 2.60738,-0.214414 3.62585,0.47112 0.22449,0.15111 0.49664,0.290161 0.60477,0.309002 l 0.19659,0.03426 0.0264,-3.92213 c 0.0181,-2.690441 0.0615,-3.964487 0.13834,-4.057008 0.17132,-0.20643 1.93574,-0.187099 2.14635,0.02351 0.0871,0.08712 0.15891,0.21185 0.15953,0.277187 6.3e-4,0.06534 1.2e-4,3.856785 -10e-4,8.425439 -0.002,5.940648 -0.0342,8.345084 -0.11428,8.441599 -0.0794,0.09573 -0.39551,0.134955 -1.08745,0.134955 -1.00613,0 -1.21736,-0.07345 -1.21736,-0.42334 0,-0.199513 -0.44195,-0.262546 -0.55526,-0.0792 -0.0996,0.161221 -0.858,0.520388 -1.41025,0.667905 -0.61125,0.163281 -1.63525,0.158961 -2.31829,-0.0098 z m 2.86412,-2.318351 c 0.96251,-0.487743 1.52048,-1.544775 1.52048,-2.880459 v -0.802362 l -0.30841,-0.652733 c -0.8429,-1.784003 -2.87308,-2.204427 -4.20642,-0.871091 -0.62697,0.626969 -0.92812,1.384639 -0.92812,2.335095 0,1.230948 0.46127,2.175881 1.35642,2.778711 l 0.50561,0.340494 h 0.78585 c 0.63478,0 0.87982,-0.04761 1.27459,-0.247655 z m -86.020169,2.162764 -1.00795,-0.0504 -0.0279,-4.787772 c -0.0154,-2.633275 -0.003,-4.89135 0.028,-5.017944 l 0.0559,-0.230171 1.07964,0.02858 1.07964,0.02858 0.13263,0.277187 c 0.14562,0.304334 0.33541,0.354218 0.51667,0.135806 0.0645,-0.07776 0.37626,-0.264411 0.69271,-0.414781 1.17292,-0.557337 2.98008,-0.333837 3.90931,0.483482 1.07155,0.942505 1.14334,1.307266 1.14786,5.832422 l 0.004,3.592645 -0.15943,0.06118 c -0.20724,0.07953 -1.89298,0.07953 -2.10022,0 l -0.15943,-0.06118 -10e-4,-3.239862 c -0.002,-3.449858 -0.0505,-3.862866 -0.51706,-4.362708 -0.64686,-0.693018 -2.36664,-0.479746 -2.84596,0.352931 -0.39288,0.682511 -0.46251,1.338059 -0.46416,4.369798 l -0.002,2.894316 -0.17639,0.07914 c -0.097,0.04353 -0.62997,0.05646 -1.18434,0.02875 z m 38.19409,-0.03021 c -0.12055,-0.06753 -0.1439,-0.675324 -0.1439,-3.746377 0,-2.016176 -0.0275,-3.73752 -0.0612,-3.82521 -0.0355,-0.09259 -0.17891,-0.159437 -0.342,-0.159437 -0.16308,0 -0.30646,-0.06684 -0.34199,-0.159436 -0.0866,-0.225652 -0.0733,-1.883042 0.0163,-2.023764 0.0409,-0.06429 0.2103,-0.132332 0.37643,-0.151193 l 0.30206,-0.03429 0.054,-2.570278 0.054,-2.570278 0.22041,-0.547234 c 0.28069,-0.696911 0.83429,-1.270626 1.52372,-1.579069 0.44548,-0.199301 0.70696,-0.242358 1.47182,-0.242358 h 0.93011 l 0.34249,0.230543 0.34249,0.230544 0.0286,1.081642 c 0.0315,1.188264 -0.0424,1.33948 -0.50581,1.035836 -0.33099,-0.216877 -1.10336,-0.311564 -1.37138,-0.168122 -0.11861,0.06348 -0.2955,0.261481 -0.39309,0.440009 l -0.17743,0.324597 v 2.167097 2.167097 l 1.10276,0.0288 c 0.60652,0.01584 1.16216,0.07809 1.23474,0.138336 0.16188,0.134341 0.18365,1.715083 0.0276,2.006583 l -0.10434,0.194964 h -1.09441 c -0.90499,0 -1.10501,0.0276 -1.1556,0.159437 -0.0336,0.08769 -0.0612,1.812712 -0.0612,3.833382 0,3.097601 -0.0227,3.682645 -0.14454,3.72941 -0.23357,0.08963 -1.97352,0.09681 -2.13065,0.0088 z m 30.671969,0.04029 c -0.0681,-0.02217 -0.15705,-0.09021 -0.19778,-0.151193 -0.0407,-0.06098 -0.0747,-2.267646 -0.0756,-4.903693 -0.001,-3.595107 0.0287,-4.823038 0.11941,-4.913766 0.0775,-0.0775 0.47323,-0.120954 1.10143,-0.120954 h 0.98048 l 0.19821,0.251988 c 0.23877,0.30354 0.34608,0.311979 0.70246,0.05524 0.5526,-0.398101 1.4981,-0.638714 2.2868,-0.58195 0.40021,0.0288 0.81391,0.09525 0.91931,0.147652 0.10541,0.0524 0.4079,0.199876 0.6722,0.327716 0.6265,0.303024 1.10148,0.839817 1.39389,1.575284 l 0.23568,0.592759 0.0312,3.729423 c 0.0178,2.129905 -0.008,3.788595 -0.0605,3.867388 -0.069,0.103873 -0.34977,0.13391 -1.13609,0.121554 -0.57443,-0.009 -1.07514,-0.04843 -1.11271,-0.08757 -0.0376,-0.03914 0.0721,-3.606659 0.0721,-3.606659 0.51048,-6.263042 -3.45528,-4.033246 -3.79636,-3.21733 -0.0878,0.209992 -0.1436,1.2995 -0.1833,3.577783 l -0.0571,3.275844 -0.98501,0.0504 c -0.54176,0.02772 -1.04069,0.03226 -1.10875,0.01009 z"
         id="path11"
         sodipodi:nodetypes="cssssscccssssccscssssscsscsscccssscccsscsscssssscsscssssssssscsssssssscsssssscscsssscsssssssscsscscssscssccsscscsscsscccsccccssssscssssccsscccsssssssssssscccssssssscssscsscssscscccccssssccssscccsssccssssssssssssssssssssscsssssssssssssccssssssssssccssscccsssssssssssssssssssscsssssssscccccssscscsssccscccsccsssscscsscssscsccsccsssscssccsccccssssscsscsssccsccccssssscccssscccsssscccssscsssscccscsscssssssccccsccscsccs"
         transform="translate(0.65293876,103.81664)" /><path
         style="fill:#fddb15"
         d="m 25.724904,170.47375 c 0.10002,-1.19933 -0.109195,-1.80086 -0.90025,-2.58837 -0.468929,-0.46683 -0.7407,-0.6522 -1.10338,-0.75262 -0.666424,-0.1845 -1.586162,-0.0852 -2.210269,0.23857 -0.276199,0.14329 -0.629246,0.26054 -0.784549,0.26054 -0.278792,0 -0.281185,-0.005 -0.188879,-0.4161 0.05142,-0.22885 0.113359,-0.89282 0.137645,-1.47549 0.02428,-0.58267 0.07187,-1.08714 0.105744,-1.12104 0.03387,-0.0339 1.860802,-0.0616 4.05984,-0.0616 h 3.998252 l 0.08039,1.10144 -0.05949,1.33452 c -3.05e-4,0.007 -0.07323,0.98208 -0.06232,2.0386 0.01472,1.42568 -0.01305,1.96057 -0.107709,2.07464 -0.103494,0.1247 -0.401322,0.15369 -1.579098,0.15369 h -1.451547 z m -12.78629,-8.21664 c -0.152452,-0.12482 -0.277186,-0.26375 -0.277186,-0.30873 0,-0.045 -0.06601,-0.2247 -0.146689,-0.39939 -0.512377,-1.10943 -0.649862,-1.76939 -0.655283,-3.14551 -0.0034,-0.86393 0.04287,-1.26036 0.205889,-1.76392 0.240909,-0.74416 0.761412,-1.87517 0.903337,-1.96289 0.05276,-0.0326 0.09593,-0.13898 0.09593,-0.23639 0,-0.17949 1.112362,-1.48067 1.599314,-1.87079 0.633516,-0.50754 1.521992,-1.06486 1.697592,-1.06486 0.104835,0 0.246053,-0.0554 0.313819,-0.12321 0.110339,-0.11034 0.713293,-0.31391 1.731421,-0.58456 0.194031,-0.0516 0.802952,-0.0949 1.353158,-0.0962 0.806597,-0.002 1.148276,0.047 1.763916,0.25279 0.419948,0.14036 0.883935,0.32179 1.031082,0.40319 0.147147,0.0814 0.351257,0.14817 0.453578,0.14841 0.294598,6.8e-4 1.286993,0.70826 2.190605,1.5619 0.452107,0.4271 1.170483,1.28534 1.170483,1.39836 0,0.037 0.181431,0.45097 0.40318,0.91993 0.22175,0.46895 0.403181,0.92306 0.403181,1.00913 0,0.0861 0.06767,0.31845 0.150382,0.5164 0.08271,0.19795 0.149501,0.47998 0.148424,0.62673 -0.0011,0.14675 0.0023,0.55385 0.0074,0.90467 0.009,0.61137 -2.92e-4,0.63648 -0.224021,0.60477 -0.205689,-0.0291 -0.235464,-0.093 -0.250633,-0.53705 -0.115146,-3.37105 -2.408624,-6.32444 -5.444115,-7.01058 -0.488823,-0.11049 -1.08219,-0.24521 -1.318595,-0.29938 -0.535789,-0.12277 -0.856627,-0.12421 -1.322395,-0.006 -0.200463,0.0509 -0.722345,0.16966 -1.159737,0.26391 -1.379336,0.2972 -2.76764,1.17285 -3.724085,2.3489 -0.869577,1.06923 -1.261652,1.976 -1.587373,3.67116 -0.20178,1.05014 -0.20299,1.1129 -0.03791,1.96551 0.16552,0.85487 0.50348,1.89364 0.805696,2.47642 0.159889,0.30833 0.193706,0.5736 0.07238,0.56778 -0.04158,-0.002 -0.200331,-0.10575 -0.352784,-0.23057 z m 1.335537,-0.79618 c 0,-0.0814 -0.09072,-0.23001 -0.20159,-0.33035 -0.110875,-0.10034 -0.201591,-0.23768 -0.201591,-0.3052 0,-0.0675 -0.09931,-0.34397 -0.220683,-0.61435 -0.189146,-0.42134 -0.221537,-0.67884 -0.22666,-1.80193 -0.0049,-1.08236 0.02707,-1.38048 0.183996,-1.71351 0.104484,-0.22175 0.321119,-0.68147 0.48141,-1.02159 0.409034,-0.86794 1.309851,-1.81114 2.318915,-2.42802 0.744436,-0.45511 0.955928,-0.53263 1.864862,-0.68355 0.960832,-0.15954 1.092942,-0.15961 2.104129,-0.001 1.12247,0.17601 1.475207,0.32336 2.596604,1.08465 0.305825,0.20762 0.703298,0.56341 0.883273,0.79065 1.147993,1.44946 1.439142,2.28766 1.449838,4.17401 0.0067,1.17411 -0.09529,1.15325 -1.766152,-0.36135 -0.74466,-0.67502 -1.639011,-1.48219 -1.987446,-1.79372 -0.348435,-0.31152 -0.915408,-0.82579 -1.25994,-1.14283 -0.366818,-0.33754 -0.720408,-0.57773 -0.853211,-0.57957 -0.195444,-0.003 -0.226778,0.0491 -0.226707,0.37484 4.6e-5,0.20789 0.07117,0.71816 0.158063,1.13394 0.1485,0.7106 0.147371,0.76201 -0.01882,0.85676 -0.09724,0.0554 -0.746683,0.623 -1.443202,1.26125 -1.684015,1.54312 -3.240981,2.94425 -3.458694,3.1125 -0.149787,0.11576 -0.176392,0.11401 -0.176392,-0.0116 z M 8.8312098,157.7401 c -0.4712176,-0.0479 -1.5235734,-0.0985 -2.3385685,-0.11226 -0.9603399,-0.0163 -1.5230155,-0.0663 -1.598901,-0.14231 -0.2926179,-0.29292 0.032367,-0.32995 2.5555861,-0.29123 1.3975656,0.0215 2.8032596,0.0428 3.1237646,0.0473 0.442566,0.006 0.598036,0.0482 0.646347,0.1741 0.16191,0.42193 -0.519524,0.51449 -2.3882282,0.32437 z m 3.9612202,-6.31106 c -1.383131,-1.35752 -3.7714177,-3.97125 -3.7332759,-4.08567 0.1235794,-0.37074 0.3988973,-0.12747 3.4299809,3.0308 1.288933,1.34302 1.622036,1.83603 1.240515,1.83603 -0.07773,0 -0.499476,-0.35152 -0.93722,-0.78116 z m 12.4369,0.71606 c -0.143827,-0.14382 -0.06092,-0.43627 0.156693,-0.55273 0.224729,-0.12027 0.435612,-0.31574 2.747469,-2.54669 0.665248,-0.64197 1.263563,-1.16777 1.329588,-1.16845 0.475139,-0.005 0.04526,0.47232 -3.171341,3.52023 -0.818572,0.77565 -0.945254,0.8648 -1.062409,0.74764 z m -6.151333,-2.42191 c -0.0765,-0.0765 0.0091,-5.84547 0.09281,-6.25697 0.05286,-0.25977 0.293734,-0.30339 0.383501,-0.0695 0.03321,0.0865 0.03684,0.95967 0.0081,1.94031 -0.02876,0.98063 -0.06644,2.37262 -0.08371,3.09331 -0.0252,1.051 -0.06054,1.31601 -0.178597,1.33902 -0.08095,0.0158 -0.180885,-0.005 -0.222075,-0.0462 z"
         id="path7"
         sodipodi:nodetypes="ssssscssscccssscscsssssssscscsssssssssccssssssssssccsssscsssscsscssscsscsssscccccsccsssssssscsscssssscc" /><path
         style="fill:#bb259a"
         d="m 15.531868,171.71951 c -0.116258,-0.008 -0.249122,0.007 -0.409277,0.0377 -0.272572,0.0522 -0.657937,0.16355 -0.856279,0.24701 -0.42305,0.17801 -0.449328,0.26604 -0.85111,2.83446 -0.300326,1.91985 -0.400404,2.90003 -0.317294,3.1166 0.07373,0.19213 0.03973,0.19185 1.478463,0.0145 0.637529,-0.0786 1.7036,-0.19498 2.368848,-0.2589 0.665248,-0.0639 1.518698,-0.18063 1.896525,-0.25941 0.847516,-0.17673 1.34654,-0.18314 1.41335,-0.0176 0.02796,0.0693 0.05451,-0.10297 0.05891,-0.38292 0.0044,-0.27996 0.05605,-0.5568 0.114722,-0.61547 0.07504,-0.075 -0.05204,-0.20696 -0.428398,-0.44494 -1.5105,-0.95508 -2.978697,-2.35289 -3.567224,-3.39617 -0.351786,-0.62359 -0.55246,-0.85156 -0.901237,-0.87488 z"
         id="path32" /><path
         style="fill:#30409c;fill-opacity:1"
         d="m 27.981386,171.16227 c -0.196849,-7.8e-4 -0.638507,0.016 -1.141016,0.0444 l -1.218013,0.0687 -0.256832,0.52451 c -0.396501,0.88999 -0.523665,1.07739 -1.264527,1.8945 -0.761286,0.82169 -2.192434,1.93258 -2.894914,2.24689 -0.320462,0.14338 -0.650645,0.29528 -0.733805,0.33796 -0.203283,0.10434 -0.269945,1.43808 -0.07958,1.59163 0.07155,0.0577 0.856048,0.13623 1.743046,0.17467 0.886997,0.0384 5.997594,0.24651 6.004285,0.12991 0.0079,-0.13723 -0.03304,-6.9892 -0.05011,-7.00627 -0.0043,-0.004 -0.0429,-0.006 -0.108521,-0.007 z"
         id="path30"
         sodipodi:nodetypes="ccccsssscsccc" /><path
         style="fill:#892c9a;fill-opacity:1"
         d="m 19.625675,155.94016 c 0.992729,5.67863 0.647504,8.55953 1.076235,8.69661 0.199144,0.0317 6.382869,-0.0491 6.952732,-0.0289 0.401921,0.0142 0.810429,0.03 0.907439,0.0351 0.289811,0.0151 0.121068,2.06593 0.308632,2.09479 0.03607,0.12985 3.292662,0.0292 3.292662,0.0292 l -0.251147,-0.22686 c -1.05708,-0.95649 -5.525028,-4.87386 -9.061943,-8.12204 -0.424025,-0.3928 -1.056059,-0.96375 -1.404049,-1.26865 -0.34799,-0.30491 -0.783753,-0.70143 -0.968933,-0.8816 -0.201513,-0.19607 -0.389815,-0.32763 -0.594279,-0.32763 z"
         id="path6"
         sodipodi:nodetypes="ccccccccsssc" /><path
         style="fill:#ef2b27"
         d="m 19.565899,175.01268 c -1.676104,-1.26973 -2.414469,-2.07451 -3.023573,-3.29558 -0.257592,-0.51639 -0.466597,-0.72739 -0.470905,-1.54079 -0.0045,-0.8425 0.311961,-1.49226 0.311961,-1.49226 0.679388,-1.04066 2.167254,-1.59569 3.33371,-0.96366 1.046019,0.56678 0.961117,0.54613 1.379994,0.3357 0.544648,-0.35933 0.998036,-0.64319 1.654716,-0.66638 0.685171,-0.01 1.356835,0.35854 1.356835,0.35854 0.833619,0.58005 0.934225,0.94621 1.059127,1.84422 0.0603,0.43357 0.07887,0.9943 0.04125,1.24606 -0.07767,0.5198 -0.480882,1.56975 -0.69495,1.80962 -0.521047,0.58384 -1.816925,1.84679 -2.048269,1.99623 -0.153028,0.0988 -0.564343,0.39517 -0.914034,0.6585 -0.349691,0.26333 -0.712775,0.47756 -0.806855,0.47607 -0.09408,-0.001 -0.624632,-0.34631 -1.179006,-0.76627 z m -6.445534,-2.75019 c -0.05621,-0.0909 -0.06505,-1.06172 -0.05775,-6.33682 0.0024,-1.74831 -0.07536,-1.67968 1.604065,-1.41541 0.643388,0.10124 1.73677,0.22966 2.429737,0.28538 1.766477,0.14202 3.401264,0.40121 3.533179,0.56015 0.08161,0.0983 0.08109,0.3853 -0.0019,1.06823 -0.06245,0.51358 -0.124523,0.94476 -0.137951,0.95819 -0.01343,0.0134 -0.249456,-0.0813 -0.524504,-0.21044 -0.275049,-0.12917 -0.74605,-0.26581 -1.046669,-0.30365 -1.084716,-0.13654 -2.314279,0.59724 -2.883606,1.72087 -0.261755,0.5166 -0.301087,0.70646 -0.31401,1.51569 -0.0081,0.50881 -0.04068,0.96703 -0.07235,1.01827 -0.03167,0.0512 -0.35048,0.12051 -0.708472,0.15394 -0.861843,0.0805 -1.346721,0.28872 -1.428202,0.61337 -0.07733,0.3081 -0.300201,0.51999 -0.39152,0.37223 z"
         id="path5"
         sodipodi:nodetypes="sscssscsssscscsscsssscsssssssscc" /><path
         style="fill:#04ad50"
         d="m 8.3272338,166.85534 c 0,-0.0786 0.2371801,-0.34283 0.5270668,-0.58712 0.2898868,-0.24428 1.3671354,-1.21441 2.3938864,-2.15583 1.02675,-0.94143 1.975243,-1.80323 2.107761,-1.91511 0.132518,-0.11189 0.586096,-0.52161 1.007952,-0.91049 0.421855,-0.38888 1.424699,-1.30017 2.228541,-2.02509 0.803841,-0.72492 1.524941,-1.39468 1.602442,-1.48834 0.0775,-0.0937 0.364977,-0.35791 0.638834,-0.5872 0.582349,-0.48757 0.677811,-0.43245 0.680241,0.39278 8.49e-4,0.28823 0.08902,0.99128 0.195938,1.56233 0.283843,1.51601 0.311952,1.72989 0.415659,3.16258 0.05186,0.7165 0.134738,1.55219 0.184165,1.8571 0.04943,0.3049 0.05569,0.59147 0.01392,0.63681 -0.04177,0.0453 -0.342746,0.0361 -0.668831,-0.0205 -0.326086,-0.0566 -1.205214,-0.15175 -1.953618,-0.21147 -0.748405,-0.0597 -2.034607,-0.20598 -2.858229,-0.32502 -1.065445,-0.154 -1.545279,-0.1864 -1.663121,-0.11228 -0.135703,0.0854 -0.174732,0.34809 -0.216025,1.45423 l -0.0504,1.35005 -2.293091,0.0327 c -1.9277766,0.0275 -2.2930912,0.01 -2.2930912,-0.11022 z"
         id="path2" /></g></g></svg>
