<?xml version="1.0" encoding="UTF-8" standalone="no"?>
<!-- Created with Inkscape (http://www.inkscape.org/) -->

<svg
   width="300"
   height="150"
   viewBox="0 0 79.374998 39.6875"
   version="1.1"
   id="svg1"
   xml:space="preserve"
   inkscape:version="1.4 (86a8ad7, 2024-10-11)"
   sodipodi:docname="newpath.svg"
   xmlns:inkscape="http://www.inkscape.org/namespaces/inkscape"
   xmlns:sodipodi="http://sodipodi.sourceforge.net/DTD/sodipodi-0.dtd"
   xmlns="http://www.w3.org/2000/svg"
   xmlns:svg="http://www.w3.org/2000/svg"><sodipodi:namedview
     id="namedview1"
     pagecolor="#ffffff"
     bordercolor="#111111"
     borderopacity="1"
     inkscape:showpageshadow="0"
     inkscape:pageopacity="0"
     inkscape:pagecheckerboard="1"
     inkscape:deskcolor="#d1d1d1"
     inkscape:document-units="px"
     inkscape:zoom="1.1111933"
     inkscape:cx="2.2498336"
     inkscape:cy="236.68249"
     inkscape:window-width="1920"
     inkscape:window-height="1115"
     inkscape:window-x="-9"
     inkscape:window-y="-9"
     inkscape:window-maximized="1"
     inkscape:current-layer="layer1" /><defs
     id="defs1" /><g
     inkscape:label="Layer 1"
     inkscape:groupmode="layer"
     id="layer1"><path
       style="fill:#150c8b;stroke-width:0.458293;fill-opacity:1"
       d="m 65.754861,36.186406 c -0.342299,-0.23647 -0.654676,-0.44438 -0.694171,-0.46202 -0.0395,-0.0177 -0.65348,-0.41867 -1.364406,-0.89119 -0.710931,-0.4725 -1.874266,-1.24313 -2.585193,-1.7125 -0.710931,-0.46937 -1.314699,-0.87082 -1.341716,-0.89212 -0.02704,-0.0213 -0.102419,-0.0721 -0.167561,-0.11277 -0.979151,-0.61201 -0.988221,-0.62207 -0.684492,-0.75833 0.259215,-0.1163 0.518655,-0.22802 0.661802,-0.285 0.05266,-0.0209 0.176535,-0.0726 0.275274,-0.1148 0.09874,-0.0422 0.249545,-0.1065 0.335117,-0.14293 0.444842,-0.18939 0.610396,-0.27313 0.610396,-0.30874 0,-0.0721 -0.306901,-0.80482 -0.564823,-1.34849 -0.55596,-1.17188 -1.792433,-2.74553 -2.858844,-3.63841 -0.396111,-0.33166 -1.163004,-0.86704 -1.579162,-1.10244 -0.352981,-0.19965 -1.21113,-0.62102 -1.264773,-0.62102 -0.02919,0 -0.09047,-0.019 -0.136191,-0.0423 -0.168262,-0.0856 -0.330268,-0.1467 -0.657618,-0.24802 -0.184311,-0.0571 -0.372523,-0.12278 -0.418247,-0.14608 -0.04574,-0.0233 -0.121424,-0.0423 -0.168234,-0.0423 -0.04681,0 -0.203285,-0.0446 -0.347734,-0.0991 -0.144445,-0.0545 -0.391891,-0.13077 -0.549874,-0.16949 -0.157987,-0.0387 -0.362647,-0.0896 -0.454805,-0.11299 -0.167964,-0.0427 -0.53892,-0.10323 -1.182079,-0.19283 -0.226392,-0.0315 -8.951895,-0.048 -25.480905,-0.048 H 4e-6 v -2.8485 -2.8485 l 25.121851,-3.9e-4 c 21.756834,-3.5e-4 25.18918,-0.01 25.624526,-0.0703 0.619859,-0.0862 1.018285,-0.15332 1.268659,-0.21386 0.105325,-0.0255 0.256126,-0.0598 0.335118,-0.0763 0.07899,-0.0165 0.208253,-0.0587 0.287244,-0.0937 0.07899,-0.0351 0.240567,-0.0896 0.359054,-0.12127 0.118487,-0.0316 0.258518,-0.0738 0.311181,-0.0937 0.05266,-0.0199 0.246552,-0.0831 0.430863,-0.14062 0.327927,-0.10224 0.490369,-0.1637 0.657618,-0.24878 0.04574,-0.0233 0.110353,-0.0425 0.143625,-0.0429 0.05995,-4.6e-4 0.888872,-0.40891 1.257339,-0.61938 0.254009,-0.1451 1.004367,-0.64855 1.244723,-0.83515 1.427105,-1.10794 2.719064,-2.77421 3.437457,-4.43339 0.149797,-0.3459697 0.320649,-0.7838797 0.320649,-0.8218597 0,-0.0216 -0.09695,-0.0826 -0.215435,-0.13537 -0.118487,-0.0528 -0.312143,-0.13908 -0.430346,-0.19174 -0.118198,-0.0527 -0.226149,-0.0957 -0.239888,-0.0957 -0.01375,0 -0.127076,-0.0456 -0.25186,-0.10132 -0.124784,-0.0557 -0.29151,-0.12885 -0.370502,-0.16251 -0.36877,-0.1571 -0.598425,-0.26702 -0.598425,-0.28641 0,-0.0251 0.511945,-0.40724 0.545525,-0.40724 0.01265,0 0.342106,-0.21223 0.732122,-0.47163 2.668336,-1.77469 5.033309,-3.33902 5.119418,-3.38627 0.0559,-0.0307 0.375525,-0.24159 0.710271,-0.4687 0.334746,-0.22711 0.626862,-0.41292 0.649149,-0.41292 0.05072,0 0.0858,0.1093 0.144472,0.45017 0.02539,0.14737 0.06766,0.38643 0.09399,0.53125 0.02635,0.14482 0.06942,0.38179 0.09575,0.52661 0.02635,0.14482 0.07049,0.38718 0.09814,0.53858 0.02764,0.1514 0.07273,0.40454 0.100183,0.56252 0.02745,0.15799 0.06861,0.39496 0.09147,0.52661 0.02287,0.13166 0.06386,0.35786 0.09111,0.50268 0.02727,0.14482 0.06983,0.3818 0.09462,0.52661 0.02479,0.14482 0.05792,0.32794 0.07362,0.40693 0.01572,0.079 0.04808,0.25134 0.07194,0.38299 0.02388,0.13166 0.06623,0.36325 0.09414,0.51465 0.02791,0.1514 0.07103,0.38837 0.09583,0.52661 0.02479,0.13824 0.06735,0.36983 0.09455,0.51465 0.02722,0.14481 0.0587,0.31897 0.06999,0.387 0.01127,0.068 0.066,0.3588697 0.121599,0.6462997 0.0556,0.28743 0.123927,0.65186 0.151855,0.80985 0.02791,0.15798 0.07259,0.38855 0.09926,0.51237 0.02667,0.12382 0.03511,0.24675 0.01879,0.27318 -0.04106,0.0664 -0.195796,0.0122 -0.997497,-0.34952 -0.152185,-0.0687 -0.286291,-0.12485 -0.298014,-0.12485 -0.01173,0 -0.156507,-0.0617 -0.32173,-0.13707 -0.526239,-0.24012 -0.485099,-0.2508 -0.659571,0.17137 -0.40442,0.9786 -0.783579,1.73298 -1.294113,2.57483 -0.45052,0.74287 -1.709523,2.41135 -1.915736,2.5388 -0.02502,0.0154 -0.04546,0.0485 -0.04546,0.0734 0,0.0282 1.653896,0.0407 4.392437,0.0331 l 4.392433,-0.0122 0.01279,-1.18488 c 0.01224,-1.13282 0.01686,-1.18488 0.104889,-1.18488 0.05065,0 0.10554,0.0218 0.121984,0.0484 0.01645,0.0266 0.236896,0.18279 0.489896,0.34709 0.252996,0.16428 1.021759,0.67061 1.70836,1.12517 0.686595,0.45456 1.280676,0.84712 1.320171,0.87236 0.277263,0.1772 2.754582,1.81693 2.956322,1.95678 0.138295,0.0959 0.289816,0.19586 0.336717,0.22218 0.335374,0.18829 0.919868,0.61707 0.919868,0.67481 0,0.0388 -0.509146,0.40571 -1.137007,0.81932 -0.625354,0.41197 -1.74022,1.14733 -2.477475,1.63414 -1.557017,1.0281 -3.134635,2.06727 -3.696657,2.43499 -0.216342,0.14155 -0.406116,0.27802 -0.421721,0.30327 -0.01563,0.0252 -0.06981,0.0459 -0.120458,0.0459 -0.08804,0 -0.09265,-0.0521 -0.104889,-1.18489 l -0.01279,-1.18487 -4.392433,-0.0122 c -2.738541,-0.008 -4.392437,0.005 -4.392437,0.0331 0,0.0249 0.02154,0.0586 0.04783,0.0749 0.02631,0.0163 0.201897,0.21402 0.390209,0.43947 1.211199,1.45013 2.089856,2.90708 2.817011,4.6711 0.08411,0.20406 0.169696,0.37102 0.190173,0.37102 0.0341,0 0.744712,-0.30479 1.233939,-0.52925 0.111617,-0.0512 0.214183,-0.0931 0.227923,-0.0931 0.01375,0 0.116305,-0.0407 0.227922,-0.0906 0.42163,-0.18816 0.453687,-0.17319 0.378353,0.17662 -0.02667,0.12382 -0.07127,0.35439 -0.09912,0.51238 -0.02786,0.15798 -0.09505,0.51344 -0.149335,0.78991 -0.05428,0.27648 -0.109825,0.58885 -0.123432,0.69417 -0.01361,0.10533 -0.03611,0.22382 -0.05005,0.26331 -0.01393,0.0395 -0.04679,0.20107 -0.07302,0.35906 -0.02621,0.15798 -0.06555,0.38419 -0.08737,0.50267 -0.02181,0.11849 -0.06491,0.35547 -0.09575,0.52662 -0.03084,0.17114 -0.07649,0.41889 -0.101434,0.55055 -0.02493,0.13165 -0.06628,0.35785 -0.09185,0.50267 -0.02557,0.14482 -0.06879,0.3818 -0.09604,0.52662 -0.02727,0.14482 -0.06825,0.37102 -0.09111,0.50267 -0.02287,0.13166 -0.06402,0.36863 -0.09148,0.52662 -0.02745,0.15798 -0.07254,0.41111 -0.100183,0.56252 -0.02764,0.1514 -0.07181,0.39376 -0.09814,0.53858 -0.02635,0.14482 -0.06941,0.38179 -0.09575,0.52661 -0.02631,0.14482 -0.06863,0.38388 -0.09399,0.53125 -0.06262,0.36378 -0.09406,0.451 -0.160572,0.44542 -0.03112,-0.003 -0.33668,-0.19823 -0.678979,-0.4347 z"
       id="path1"
       sodipodi:nodetypes="ssssscssssssssscsssssssscccssscssssscsssssssscssssssccssssssssssssssscsssssssccsssssssssssssssccsscsssscssssssssssssssssscss" /></g></svg>
