<svg xmlns="http://www.w3.org/2000/svg" xml:space="preserve" viewBox="0 0 79.375 79.375">
  <path d="M51.193 79.343c.034-.014.075-.012.09.004.016.015-.011.027-.061.024-.055-.002-.066-.013-.029-.028zm-.463-.18a.559.559 0 0 1 .135-.118c.013 0-.027.053-.088.118a.559.559 0 0 1-.134.118c-.013 0 .026-.053.087-.118zm1.596-.103c.034-.014.075-.012.09.004.016.015-.012.026-.062.024-.055-.002-.066-.013-.028-.028zm-1.793-1.652c.034-.014.074-.012.09.004.016.015-.012.027-.062.025-.055-.003-.066-.014-.028-.029zm.256-.002c.072-.01.188-.01.26 0 .071.011.013.02-.13.02-.143 0-.201-.009-.13-.02zm.546.002c.034-.014.075-.012.09.004.016.015-.012.027-.062.025-.055-.003-.066-.014-.028-.029zm5.577-.694c0-.01.037-.047.083-.082.075-.059.076-.057.018.018-.062.078-.1.103-.1.065zm-5.624-.108c.034-.014.074-.012.09.004.016.015-.012.026-.062.024-.055-.002-.066-.013-.028-.028zm1.99.014c0-.01.038-.047.083-.082.075-.06.077-.057.018.017-.062.079-.1.104-.1.065zm.52-.478a2.37 2.37 0 0 1 .28-.26c.013 0-.092.118-.233.26a2.37 2.37 0 0 1-.28.26c-.013 0 .092-.117.233-.26zm3.657.118a.373.373 0 0 1 .109-.094c.013 0-.015.042-.062.094a.373.373 0 0 1-.109.095c-.013 0 .015-.043.062-.095zm-7.744-.153-.09-.106.106.09c.059.05.107.097.107.106 0 .038-.038.01-.123-.09zm7.012-.006c0-.01.038-.047.083-.083.075-.058.077-.057.018.018-.062.079-.1.104-.1.065zm1.086-.147a.559.559 0 0 1 .134-.118c.013 0-.026.053-.087.118a.559.559 0 0 1-.134.118c-.013 0 .026-.053.087-.118zm-.66-.183c0-.01.036-.047.082-.083.075-.059.076-.057.018.018-.062.079-.1.104-.1.065zm-4.06-.048c0-.01.038-.046.083-.082.075-.059.077-.057.018.018-.061.078-.1.103-.1.065zm1.133-.047c0-.01.038-.047.083-.082.075-.059.076-.057.018.018-.062.078-.1.103-.1.064zm.19-.236c0-.01.036-.047.082-.082.075-.059.076-.057.018.018-.062.078-.1.103-.1.064zm3.326-.17a.373.373 0 0 1 .11-.095c.012 0-.016.042-.063.094a.373.373 0 0 1-.109.095c-.013 0 .015-.043.062-.095zm.732.076c0-.01.037-.047.082-.083.075-.058.077-.057.018.018-.062.079-.1.104-.1.065zm-.378-.378c0-.01.037-.047.083-.082.074-.059.076-.057.017.018-.061.078-.1.103-.1.064zm-7.984-.108c.034-.014.075-.012.09.004.016.015-.012.026-.062.024-.055-.002-.066-.013-.028-.028zm9.022-.217c0-.007.165-.172.366-.366l.366-.353-.353.366c-.328.34-.379.387-.379.353zm-.448-.223c.101-.104.195-.189.208-.189.013 0-.06.085-.16.189a1.315 1.315 0 0 1-.209.189c-.013 0 .06-.085.16-.19zm-8.086-.283c0-.065.01-.092.024-.06a.182.182 0 0 1 0 .119c-.013.032-.024.006-.024-.06zm8.44-.112c0-.01.037-.047.082-.083.075-.059.077-.057.018.018-.061.078-.1.103-.1.065zm-9.765-.105c.002-.054.013-.066.029-.028.013.034.011.075-.004.09-.016.016-.027-.012-.025-.062zm-13.938-.072c.032-.032.07-.047.085-.032.015.014-.012.04-.058.058-.067.026-.073.02-.027-.026zm-.266-.07c.002-.054.013-.065.028-.028.014.035.012.075-.004.09-.015.017-.026-.011-.024-.061zm24.865.01c0-.01.038-.046.083-.082.075-.059.077-.057.018.018-.062.078-.1.103-.1.065zm-24.063-.09a8.46 8.46 0 0 0 .114-.082c.087-.064.09-.063.03.013-.036.046-.087.083-.114.083-.027 0-.04-.006-.03-.013zm14.393-.06c.002-.056.013-.067.029-.03.013.035.011.076-.004.091-.016.016-.027-.012-.025-.062zm-13.568-.809c-.026-.067-.02-.072.026-.026.033.032.047.07.033.084-.015.015-.041-.011-.059-.058zm-.224.001c.034-.013.074-.012.09.004s-.012.027-.062.025c-.055-.002-.066-.013-.028-.028zm-.935-.032c0-.01.037-.047.082-.083.075-.059.077-.057.018.018-.061.078-.1.103-.1.065zm25.035-.077a.373.373 0 0 1 .109-.094c.013 0-.015.042-.062.094a.373.373 0 0 1-.11.094c-.012 0 .016-.042.063-.094zm-8.036-.189c0-.09.01-.128.022-.082a.388.388 0 0 1 0 .165c-.012.045-.022.008-.022-.083zm-.978-.424c.233-.234.433-.425.446-.425.013 0-.166.191-.399.425-.232.233-.433.424-.446.424-.013 0 .167-.19.4-.424zm-22.988-.213c0-.26.008-.36.017-.222.01.137.01.35 0 .472s-.017.01-.017-.25zm28.725.28c.003-.056.014-.067.029-.03.014.035.012.076-.004.091-.016.016-.027-.012-.025-.062zm3.02-.142c.003-.055.014-.066.03-.029.013.034.011.075-.005.09-.015.016-.027-.011-.025-.061zm-19.055-.053a.27.27 0 0 1 .141.002c.032.013-.005.023-.083.022-.078-.001-.104-.012-.058-.024zm.565 0a.387.387 0 0 1 .165 0c.046.013.008.022-.082.022-.091 0-.128-.01-.083-.021zm6.23 0c.07-.011.187-.011.259 0 .071.01.013.02-.13.02-.143 0-.201-.01-.13-.02zm-13.355-.047a.27.27 0 0 1 .142.002c.032.013-.006.023-.084.022-.078-.001-.104-.012-.058-.024zm.425 0a.27.27 0 0 1 .141.002c.032.013-.005.023-.083.022-.078-.001-.104-.012-.058-.024zm5.83 0c.034-.013.075-.011.09.005.016.015-.012.027-.062.025-.055-.003-.066-.014-.028-.029zm1.227 0c.034-.013.075-.011.09.005.016.015-.012.027-.062.025-.055-.003-.066-.014-.028-.029zm5.521 0c.034-.013.075-.011.09.005.016.015-.012.027-.061.025-.055-.003-.066-.014-.029-.029zm-13.59-.093c.033-.014.074-.012.09.003.015.016-.013.027-.062.025-.055-.002-.066-.013-.029-.028zm18.708-.275c0-.104.01-.14.021-.082a.511.511 0 0 1-.001.189c-.012.045-.021-.003-.02-.107zm-1.499.024a.373.373 0 0 1 .11-.095c.012 0-.016.043-.063.095a.373.373 0 0 1-.109.094c-.013 0 .015-.042.062-.094zm8.948-.014c-.06-.1-.06-.1.022-.023.047.045.075.092.063.104-.013.013-.051-.024-.085-.081zm-32.7-.057c.002-.078.012-.104.024-.058a.27.27 0 0 1-.001.141c-.013.032-.023-.005-.022-.083zm9.05-.083c.196-.208.238-.246.238-.21 0 .007-.1.108-.224.224l-.224.21Zm5.016.027a.387.387 0 0 1 .165 0c.046.012.009.021-.082.021s-.128-.01-.083-.021zm-.35-.047c.033-.014.074-.012.09.004.015.015-.013.027-.062.025-.055-.003-.066-.014-.029-.029zm.801 0c.035-.014.075-.012.09.004.017.015-.011.027-.061.025-.055-.003-.066-.014-.029-.029zm8.268-.033c0-.01.037-.047.082-.082.075-.06.077-.058.018.017-.062.079-.1.104-.1.065zM39.54 71.27c-.059-.075-.057-.076.018-.018.045.036.082.073.082.083 0 .039-.038.014-.1-.065zm4.04-.106c.102-.104.196-.189.209-.189.013 0-.06.085-.161.189a1.315 1.315 0 0 1-.208.189c-.013 0 .06-.085.16-.19zm4.543.107a1.5 1.5 0 0 1 .307 0c.084.01.015.02-.154.02-.168 0-.237-.01-.153-.02zm-15.331-.095c-.059-.075-.057-.077.017-.018.08.062.104.1.065.1-.01 0-.047-.037-.082-.082zm17.702.017c0-.01.037-.047.083-.082.075-.059.076-.057.018.018-.062.078-.1.103-.1.064zm-7.6-.23c.196-.208.238-.245.238-.21 0 .008-.1.108-.224.224l-.224.21zm9.181-.13c.18-.181.339-.33.352-.33.013 0-.124.149-.305.33-.18.182-.338.33-.351.33-.013 0 .124-.148.304-.33zm3.614.209c.002-.055.013-.066.029-.029.013.034.011.075-.004.09-.016.016-.027-.011-.025-.061zm-21.86-.055c-.058-.075-.056-.077.019-.018.078.062.103.1.064.1-.01 0-.047-.037-.082-.082zm3.31-.036a.559.559 0 0 1 .135-.118c.013 0-.027.054-.088.118a.559.559 0 0 1-.134.118c-.013 0 .026-.053.087-.118zm-.99.053c0-.01.036-.047.082-.082.075-.059.076-.057.018.018-.062.078-.1.103-.1.064zm-24.452-.112c-.058-.074-.057-.076.018-.017.079.061.104.1.065.1-.01 0-.047-.037-.083-.083zm39.057-.011a.373.373 0 0 1 .109-.095c.013 0-.015.043-.062.095a.373.373 0 0 1-.109.094c-.013 0 .015-.042.062-.094zm-18.315-.06-.09-.106.107.09c.1.085.127.123.09.123a.523.523 0 0 1-.107-.106zm6.63-.023c-.06-.075-.058-.076.017-.018.079.062.104.1.065.1-.01 0-.047-.037-.083-.082zm1.179 0c-.059-.075-.057-.076.018-.018.078.062.103.1.064.1-.01 0-.047-.037-.082-.082zm-3.84-.059a.373.373 0 0 1 .109-.094c.013 0-.015.042-.062.094a.373.373 0 0 1-.109.094c-.013 0 .015-.042.062-.094zm-8.84-.07c.002-.079.012-.105.024-.059a.27.27 0 0 1-.001.142c-.013.032-.023-.006-.022-.084zm20.402.07c-.017-.026.002-.034.044-.018.082.031.097.065.03.065-.025 0-.058-.02-.074-.046zm.707-.094a.373.373 0 0 1 .11-.095c.012 0-.015.043-.062.095a.373.373 0 0 1-.11.094c-.012 0 .015-.042.062-.094zm7.068-.095c0-.117.01-.164.02-.106a.672.672 0 0 1 0 .212c-.01.059-.02.011-.02-.106zm-43.613.067c.002-.055.013-.066.028-.028.014.034.012.074-.003.09-.016.016-.027-.012-.025-.062zm21.32-.008c-.058-.075-.057-.076.018-.018.079.062.104.1.065.1-.01 0-.047-.036-.083-.082zM11.57 70.55c0-.065.011-.091.024-.059a.182.182 0 0 1 0 .118c-.013.033-.024.006-.024-.059zm48.6.033c0-.008.068-.077.153-.154l.153-.138-.138.153c-.13.143-.169.175-.169.139zm-8.896-.269c.128-.13.243-.236.256-.236.013 0-.081.107-.209.236-.128.13-.243.236-.256.236-.013 0 .081-.106.209-.236zm-23.71.114c.003-.055.014-.066.029-.028.013.034.012.075-.004.09-.016.016-.027-.012-.025-.062zm5.66-.16c-.028-.053-.04-.095-.028-.095.013 0 .047.042.075.094.027.052.04.095.027.095-.013 0-.047-.043-.075-.095zm-21.657-.028c.002-.055.013-.067.028-.029.014.034.012.075-.004.09-.015.016-.026-.012-.024-.061zm37.946-.09c.002-.079.012-.105.024-.059a.27.27 0 0 1-.002.142c-.013.032-.022-.006-.021-.084zm3.019.023c0-.065.01-.092.024-.06a.182.182 0 0 1 0 .119c-.013.032-.024.006-.024-.06zm-27.67.015c.034-.014.075-.012.09.004.016.015-.012.026-.062.024-.055-.002-.066-.013-.028-.028zm.257-.002a.847.847 0 0 1 .236 0c.058.012 0 .02-.13.02s-.178-.01-.106-.02zm35.428.02c0-.009.069-.078.153-.154l.154-.139-.139.154c-.13.142-.168.175-.168.138zm-35.302-.21-.115-.13.13.114c.121.107.151.146.114.146a.816.816 0 0 1-.13-.13zm22.328.055c.002-.055.014-.066.029-.029.013.034.012.075-.004.09-.016.016-.027-.012-.025-.061zm2.879 0c.002-.055.013-.066.028-.029.014.034.012.075-.004.09-.015.016-.026-.012-.024-.061zm-11.82-.045c-.045-.119-.032-.15.024-.054.028.047.04.096.028.108-.012.012-.035-.012-.051-.054zm-10.11-.423c0-.26.008-.36.017-.223.01.137.01.35 0 .472-.01.123-.018.01-.017-.25zm18.202.326c.002-.055.013-.066.028-.028.014.034.012.074-.004.09-.015.016-.027-.012-.024-.062zm-.85-.047c.002-.055.014-.066.029-.029.013.035.012.075-.004.09-.016.017-.027-.011-.025-.061zm5.046.057c0-.01.037-.047.083-.083.074-.058.076-.057.017.018-.061.079-.1.104-.1.065zm1.435-.088-.09-.107.106.09c.1.085.128.123.09.123a.523.523 0 0 1-.106-.106zm-40.741-.016c.002-.055.013-.066.028-.029.014.034.012.075-.003.09-.016.016-.027-.011-.025-.061zm15.997 0c.003-.055.014-.066.029-.029.014.034.012.075-.004.09-.015.016-.027-.011-.025-.061zm-15.468-.232c0-.13.01-.177.02-.106.01.072.01.178 0 .236-.012.058-.02 0-.02-.13zm31.419.043c.002-.055.013-.066.028-.028.014.034.012.074-.003.09-.016.016-.027-.012-.025-.062zm2.265 0c.002-.055.014-.066.029-.028.013.034.012.074-.004.09s-.027-.012-.025-.062zm2.64-.037c0-.01.036-.047.082-.083.074-.059.076-.057.017.018-.061.078-.1.103-.1.065zm6.93-.065c-.059-.075-.057-.077.018-.018.045.036.083.073.083.083 0 .038-.04.013-.1-.065zm-10.844-.04c.002-.054.013-.066.028-.028.014.034.012.075-.003.09-.016.016-.027-.012-.025-.062zm5.804 0c.003-.054.014-.066.029-.028.014.034.012.075-.004.09-.016.016-.027-.012-.025-.062zm-13.402-.047c.003-.055.014-.066.029-.028.013.034.012.075-.004.09-.016.016-.027-.012-.025-.062zm-25.284-.279c0-.13.01-.177.02-.105.01.071.01.177 0 .236-.012.058-.02-.001-.02-.13zm15.996.047c0-.104.01-.14.021-.082a.516.516 0 0 1 0 .189c-.012.045-.022-.003-.021-.107zm10.751.09c.002-.054.014-.065.029-.028.013.034.012.075-.004.09-.016.016-.027-.012-.025-.061zm7.366-.019c0-.065.01-.091.023-.059a.182.182 0 0 1 0 .118c-.013.032-.023.006-.023-.059zm-2.128-.075c.003-.055.014-.066.029-.028.013.034.012.075-.004.09-.016.016-.027-.012-.025-.062zm3.917 0c.002-.055.014-.066.029-.028.013.034.012.075-.004.09-.016.016-.027-.012-.025-.062zm-15.84-.774c0-.403.006-.567.015-.366.01.201.01.53 0 .731-.008.202-.016.037-.016-.365zm6.264.566c0-.065.01-.092.024-.06a.182.182 0 0 1 0 .119c-.013.032-.024.006-.024-.06zm-15.586-.035c-.059-.075-.057-.077.018-.018.045.035.082.072.082.082 0 .04-.039.014-.1-.064zm27.856-.012c0-.065.01-.092.024-.06a.182.182 0 0 1 0 .119c-.014.032-.024.006-.024-.06zm-13.217-.075c.002-.055.013-.066.028-.028.014.034.012.074-.004.09-.015.016-.027-.012-.025-.062zm6.654 0c.002-.055.013-.066.028-.028.014.034.012.074-.004.09s-.027-.012-.025-.062zm13.449 0c.002-.055.013-.066.028-.028.014.034.012.074-.003.09-.016.016-.027-.012-.025-.062zm-18.83-.047c.003-.055.014-.066.03-.029.013.034.011.075-.005.09-.015.016-.026-.012-.024-.061zm.995-.114c0-.065.011-.092.024-.06a.182.182 0 0 1 0 .119c-.013.032-.024.006-.024-.06zm-6.606-.047c0-.065.01-.092.024-.06a.182.182 0 0 1 0 .119c-.014.032-.024.005-.024-.06zm-4.999-.142c0-.09.01-.128.022-.083a.387.387 0 0 1 0 .166c-.012.045-.022.008-.022-.083zm20.116.047a.373.373 0 0 1 .109-.094c.013 0-.015.042-.062.094a.373.373 0 0 1-.109.095c-.013 0 .015-.043.062-.095zm-25.202-.153-.187-.2.2.186c.187.173.223.214.187.214-.007 0-.098-.09-.2-.2zm14.474.059c0-.065.01-.092.023-.06a.182.182 0 0 1 0 .119c-.013.032-.023.006-.023-.06zm7.606-.236c0-.195.008-.274.018-.177.01.097.01.256 0 .354-.01.097-.018.017-.018-.177zm4.552.298c.035-.014.075-.012.09.004.017.015-.011.027-.061.025-.055-.003-.066-.014-.029-.029zm-5.496-.369c0-.208.009-.287.019-.176.01.111.01.281 0 .378-.01.096-.019.006-.019-.202zm13.484.28c.002-.056.014-.067.029-.03.013.035.012.076-.004.091-.016.016-.027-.012-.025-.062zm-35.682-.15-.163-.177.177.162c.097.09.177.17.177.177 0 .036-.04.003-.191-.162zm27.175.145c.034-.014.075-.012.09.003.016.016-.011.027-.061.025-.055-.002-.066-.013-.029-.028zm-.519-.048c.034-.013.075-.012.09.004.016.016-.012.027-.061.025-.055-.002-.066-.013-.029-.029zm.186.001a.182.182 0 0 1 .118 0c.032.014.006.024-.059.024s-.091-.01-.059-.024zm-15.746-.09c.002-.055.013-.066.028-.029.014.034.012.075-.003.09-.016.016-.027-.012-.025-.061zm-20.336-.114c0-.065.011-.092.024-.06a.182.182 0 0 1 0 .119c-.013.032-.024.006-.024-.06zm26.952-.118c0-.13.01-.177.02-.106.012.072.011.178 0 .236-.011.058-.02 0-.02-.13zM11.72 67.79c0-.234.008-.335.018-.226.01.11.01.3 0 .425-.01.124-.018.034-.018-.2zm10.504.224-.162-.177.177.162c.097.09.177.17.177.177 0 .036-.04.003-.192-.162zm14.876.082c0-.065.01-.091.023-.059a.182.182 0 0 1 0 .118c-.013.033-.023.006-.023-.059zm13.394.077c0-.01.037-.047.083-.083.075-.058.076-.057.018.018-.062.079-.1.104-.1.065zm-29.285-.23-.138-.153.153.138c.143.13.175.168.139.168a1.18 1.18 0 0 1-.154-.153zm24.538-.72c0-.44.007-.628.016-.415.009.213.009.574 0 .802-.009.229-.016.055-.016-.387zm-17.98.048c0-.364.007-.506.016-.317.01.19.01.487 0 .66-.009.175-.016.02-.016-.343zm4.858.26c0-.222.009-.312.018-.201.01.11.01.29 0 .4-.01.111-.018.02-.018-.2zm12.074.211c.001-.077.012-.104.024-.058a.27.27 0 0 1-.002.142c-.013.032-.023-.006-.022-.084zm-7.6-.023c0-.065.011-.092.024-.06a.182.182 0 0 1 0 .119c-.013.032-.023.006-.023-.06zm1.224-.075c.002-.055.013-.066.028-.028.014.034.012.074-.004.09-.015.016-.026-.012-.024-.062zm-25.997-.09c.001-.078.012-.104.024-.058a.27.27 0 0 1-.002.141c-.013.032-.023-.005-.022-.083zm8.574.035c-.06-.075-.057-.076.017-.018.046.036.083.073.083.083 0 .039-.039.014-.1-.065zm7.575-.602c0-.389.007-.542.016-.34.01.203.009.521 0 .708-.009.187-.016.022-.016-.368zm9.568.59c0-.065.011-.091.024-.059a.182.182 0 0 1 0 .118c-.013.033-.024.006-.024-.059zm19.349 0c0-.065.01-.091.023-.059a.182.182 0 0 1 0 .118c-.013.033-.023.006-.023-.059zm-13.69-.122c.003-.055.014-.066.029-.028.014.034.012.075-.004.09-.016.016-.027-.012-.025-.062zm12.79-.047c.001-.055.013-.066.028-.028.013.034.012.074-.004.09s-.027-.012-.025-.062zm-24.729-.047c.003-.055.014-.066.029-.029.013.034.012.075-.004.09-.016.017-.027-.011-.025-.061zm6.607 0c.002-.055.013-.066.028-.029.014.034.012.075-.003.09-.016.017-.027-.011-.025-.061zm-26.05-.094c.003-.055.014-.067.03-.029.013.034.011.075-.005.09-.015.016-.026-.012-.024-.061zm26.954-.067c0-.091.01-.128.021-.083a.387.387 0 0 1 0 .165c-.012.046-.021.009-.021-.082zm10.082.059c-.059-.075-.057-.077.018-.018.078.062.103.1.064.1-.01 0-.047-.037-.082-.082zm-4.706-.06c0-.064.01-.09.024-.058a.182.182 0 0 1 0 .118c-.013.032-.024.006-.024-.06zm-6.654-.046c0-.065.01-.092.024-.06a.182.182 0 0 1 0 .119c-.013.032-.024.005-.024-.06zm16.36.062c.033-.014.074-.012.09.004.015.015-.013.026-.062.024-.055-.002-.067-.013-.029-.028zm3.079-.09c.002-.055.013-.066.029-.029.013.035.012.075-.004.09-.016.017-.027-.011-.025-.061zm4.766 0c.003-.055.014-.066.029-.029.014.035.012.075-.004.09-.016.017-.027-.011-.025-.061zm-31.96-.004c.034-.014.074-.012.09.003.016.016-.012.027-.062.025-.055-.002-.066-.013-.028-.028zm1.57-.043c.002-.055.013-.066.028-.029.014.035.012.075-.004.09-.015.017-.027-.011-.025-.061zm11.848-.02c0-.065.01-.091.024-.059a.182.182 0 0 1 0 .118c-.013.033-.024.006-.024-.059zm12.927-.027c.002-.055.013-.066.028-.029.014.034.012.075-.004.09-.015.016-.027-.011-.025-.061zm-2.842-.102c-.058-.075-.057-.077.018-.018.079.061.104.1.065.1-.01 0-.047-.037-.083-.082zm-21.084-.087c.002-.055.013-.066.028-.028.014.034.012.074-.003.09-.016.016-.027-.012-.025-.062zm30.296 0c.003-.055.014-.066.029-.028.014.034.012.074-.004.09s-.027-.012-.025-.062zm-50.683-.047c.003-.055.014-.066.029-.029.014.034.012.075-.004.09-.015.016-.027-.011-.025-.061zm27.04-.095c.003-.055.014-.066.03-.028.013.034.011.075-.005.09-.015.016-.026-.012-.024-.062zm22.986-.02c0-.064.011-.09.024-.058a.182.182 0 0 1 0 .118c-.013.032-.024.006-.024-.06zm-17.747-.027c.002-.055.013-.066.028-.028.014.034.012.074-.003.09-.016.016-.027-.012-.025-.062zm-11.845-.094c.002-.055.013-.066.029-.029.013.034.012.075-.004.09-.016.016-.027-.011-.025-.061zm1.683.043a.182.182 0 0 1 .118 0c.033.013.006.024-.059.024s-.091-.01-.059-.024zm.284 0a.182.182 0 0 1 .118 0c.032.013.005.024-.06.024-.064 0-.09-.01-.058-.024zm6.488-.002c.072-.011.188-.011.26 0 .071.01.013.02-.13.02-.143 0-.201-.01-.13-.02zm15.518-.089c.002-.055.013-.066.029-.028.013.034.012.075-.004.09-.016.016-.027-.012-.025-.062zm-45.01-.279c.001-.155.01-.213.02-.129.01.085.01.213 0 .283-.01.071-.02.002-.02-.154zm.563.071c0-.09.01-.128.022-.083a.388.388 0 0 1 0 .166c-.012.045-.022.008-.022-.083zm28.323.035-.09-.106.106.09c.1.085.128.123.09.123a.522.522 0 0 1-.106-.107zm10.233-.059c0-.103.01-.14.022-.082a.511.511 0 0 1-.001.19c-.012.044-.021-.004-.02-.108zm.983.044c.002-.055.014-.066.029-.029.013.034.012.075-.004.09-.016.016-.027-.012-.025-.061zM20.9 66.268c-.06-.075-.057-.077.017-.018.079.061.104.1.065.1-.01 0-.047-.037-.082-.082zm9.22.002a.387.387 0 0 1 .165 0c.045.012.008.022-.083.022-.09 0-.128-.01-.082-.022zm23.888-.017c-.017-.028-.02-.06-.009-.073.013-.013.035.01.05.05.033.083.005.098-.04.023zm-24.095-.08c-.059-.075-.057-.076.018-.018.045.036.082.073.082.083 0 .039-.038.014-.1-.065zm26.814-.04c.002-.054.014-.065.029-.028.013.034.012.075-.004.09-.016.016-.027-.011-.025-.061zm-30.17-.05a.182.182 0 0 1 .118 0c.032.013.006.024-.06.024-.064 0-.09-.011-.058-.024zm35.839-.087c0-.078.011-.104.023-.058a.27.27 0 0 1-.002.142c-.013.032-.022-.006-.021-.084zm.702.043c.002-.055.013-.066.028-.028.014.034.012.075-.003.09-.016.016-.027-.012-.025-.062zm-35.44-.047c.002-.055.013-.066.028-.028.014.034.012.075-.004.09-.015.016-.026-.012-.024-.062zm3.728 0c.002-.055.013-.066.028-.028.014.034.012.075-.003.09-.016.016-.027-.012-.025-.062zm23.457-.02c0-.064.011-.09.024-.058a.182.182 0 0 1 0 .118c-.013.032-.024.005-.024-.06zm-3.07-.027c.001-.055.013-.066.028-.028.013.034.012.074-.004.09s-.027-.012-.025-.062zm-24.981-.063c-.02-.079-.015-.097.02-.062a.12.12 0 0 1 .03.112c-.012.035-.034.014-.05-.05zm14.382.044c-.016-.027.003-.035.045-.019.082.032.097.066.029.066-.025 0-.058-.021-.074-.047zm12.482.029c0-.01.037-.047.083-.083.074-.059.076-.057.017.018-.061.079-.1.104-.1.065zm-18.212-.104c.002-.055.014-.067.029-.029.013.034.012.075-.004.09-.016.016-.027-.012-.025-.061zm-23.26-.09c.001-.079.012-.105.024-.059a.27.27 0 0 1-.002.142c-.013.032-.022-.006-.021-.084zm29.965.023c0-.065.01-.092.024-.06a.182.182 0 0 1 0 .119c-.013.032-.024.006-.024-.06zm-7.772-.004c-.017-.027-.021-.06-.009-.072.012-.013.035.01.05.05.032.083.005.098-.041.022zm-3.694-.114c.001-.078.012-.104.024-.058a.27.27 0 0 1-.002.141c-.013.032-.023-.006-.022-.083zm.703.043c.002-.055.013-.066.028-.029.014.034.012.075-.004.09-.015.016-.026-.011-.024-.061zm25.396-.067c0-.09.01-.128.021-.083a.387.387 0 0 1 0 .166c-.012.045-.021.008-.021-.083zm-15.77.02c.003-.055.014-.066.03-.029.013.034.011.075-.005.09-.015.016-.027-.012-.025-.061zm-7.837-.09a.559.559 0 0 1 .135-.119c.013 0-.027.053-.088.118a.559.559 0 0 1-.134.118c-.013 0 .026-.053.087-.118zm-3.23-.01c-.025-.068-.02-.073.027-.027.032.032.047.07.032.085-.014.014-.04-.012-.058-.059zm6.318-.073-.138-.154.153.139c.143.129.175.168.139.168a1.18 1.18 0 0 1-.154-.153zm5.778.023c-.059-.075-.057-.076.018-.018.079.062.104.1.065.1-.01 0-.047-.036-.083-.082zm20.396.008c.002-.055.014-.066.029-.028.013.034.012.074-.004.09s-.027-.012-.025-.062zm-27.097-.055c-.059-.075-.057-.076.018-.018.078.062.103.1.065.1-.01 0-.047-.037-.083-.082zm6.33.065c0-.01.037-.047.082-.083.075-.058.077-.057.018.018-.062.079-.1.104-.1.065zm-12.043-.062c.034-.013.075-.012.09.004.016.016-.012.027-.061.025-.055-.002-.067-.014-.029-.029zm3.1-.156c.101-.104.195-.19.208-.19.013 0-.06.086-.16.19a1.314 1.314 0 0 1-.209.188c-.013 0 .06-.085.16-.188zm.779.144c0-.038-.031-.048-.083-.029-.066.026-.07.02-.024-.028.046-.045.072-.046.115-.003.03.03.042.07.024.088-.018.018-.032.005-.032-.028zm-21.89-.097c0-.065.011-.092.024-.06a.182.182 0 0 1 0 .119c-.013.032-.024.006-.024-.06zm42.886-.036-.114-.13.13.115c.07.063.13.121.13.13 0 .037-.04.007-.146-.115zm-17.363-.129c-.114-.117-.198-.212-.185-.212.013 0 .118.095.232.212.115.117.198.213.185.213-.013 0-.117-.096-.232-.213zm14.913.195c0-.01.037-.047.082-.083.075-.059.077-.057.018.018-.062.079-.1.104-.1.065zm5.383-.057c.002-.055.013-.066.029-.029.013.034.012.075-.004.09-.016.016-.027-.012-.025-.061zm5.763-.043c0-.078.011-.104.023-.059a.27.27 0 0 1-.001.142c-.013.032-.023-.006-.022-.083zm-19.455-.154-.162-.177.177.163c.164.151.198.191.162.191-.008 0-.087-.08-.177-.177zm7.766-.059c.101-.104.195-.189.208-.189.013 0-.06.085-.16.19a1.315 1.315 0 0 1-.209.188c-.013 0 .06-.085.16-.189zm-10.335 0a.373.373 0 0 1 .11-.094c.012 0-.016.042-.063.094a.373.373 0 0 1-.109.095c-.013 0 .015-.043.062-.095zm21.319-.07c0-.104.01-.141.021-.083a.511.511 0 0 1-.001.19c-.012.044-.021-.004-.02-.108zm-35.264.07c-.042-.027-.048-.046-.014-.046.03 0 .069.02.085.046.036.059.02.059-.07 0zm-15.089-.165c0-.104.01-.14.021-.082a.516.516 0 0 1 0 .189c-.012.045-.022-.003-.021-.107zm13.772.09c.002-.055.013-.066.028-.028.014.034.012.075-.004.09-.015.016-.026-.012-.024-.062zm13.634.057c0-.01.037-.047.083-.082.074-.059.076-.057.017.018-.061.078-.1.103-.1.064zm6.149-.218c0-.143.009-.2.02-.13.01.072.01.189 0 .26-.011.071-.02.013-.02-.13zm7.336.108a.511.511 0 0 1 .19.002c.044.011-.004.02-.108.02-.103 0-.14-.01-.082-.021zm.59.001a.27.27 0 0 1 .142.002c.032.013-.005.022-.083.021-.078 0-.104-.011-.058-.023zm3.772-.085c.001-.078.012-.104.024-.058a.27.27 0 0 1-.002.141c-.013.032-.023-.005-.022-.083zm-2.516-.012c-.059-.075-.057-.077.018-.018.045.036.082.073.082.083 0 .038-.038.013-.1-.065zm-26.946-.047c-.059-.075-.057-.077.018-.018.045.035.082.073.082.082 0 .04-.038.014-.1-.064zm7.073.049a.511.511 0 0 1 .19.001c.044.012-.004.021-.108.02-.103 0-.14-.01-.082-.021zm-23.438-.089c.002-.055.013-.066.028-.028.014.034.012.075-.004.09-.015.016-.026-.012-.024-.062zm19.316-.031-.09-.106.106.09c.059.049.106.097.106.106 0 .038-.038.01-.122-.09zm32.361.012c0-.065.01-.092.024-.06a.182.182 0 0 1 0 .119c-.013.032-.024.006-.024-.06zm-53.191-.015c0-.008.069-.077.153-.153l.153-.14-.138.154c-.13.143-.168.175-.168.139zm46.73-.15c.001-.104.01-.141.022-.083a.511.511 0 0 1-.001.19c-.012.044-.021-.004-.02-.107zm-29.037-.012-.115-.13.13.114c.121.107.151.145.114.145a.816.816 0 0 1-.13-.13zm-16.18.008c.003-.055.014-.067.029-.029.014.034.012.075-.004.09-.015.016-.026-.012-.024-.061zm8.268-.256c0-.117.01-.165.02-.106a.672.672 0 0 1 0 .212c-.01.059-.02.01-.02-.106zm32.776.157c.034-.014.075-.012.09.003.016.016-.012.027-.061.025-.055-.002-.067-.013-.029-.028zm-18.121-.095c.034-.014.074-.012.09.004s-.012.027-.062.025c-.055-.002-.066-.014-.028-.029zm1.085 0c.034-.014.075-.012.09.004.016.016-.012.027-.061.025-.055-.002-.067-.014-.029-.029zm5.377.001a.182.182 0 0 1 .118 0c.032.013.006.024-.06.024-.064 0-.09-.01-.058-.024zm1.18 0a.182.182 0 0 1 .118 0c.032.013.006.024-.06.024-.064 0-.09-.01-.058-.024zm11.137-.002a.672.672 0 0 1 .212 0c.058.011.01.02-.106.02-.117 0-.165-.009-.106-.02zm-18.334-.048c.071-.01.188-.01.26 0 .071.011.013.02-.13.02-.143 0-.201-.009-.13-.02zm6.489 0a1.5 1.5 0 0 1 .307 0c.084.01.015.019-.154.019-.169 0-.238-.009-.153-.02zm5.263-.155c0-.116.009-.164.02-.106a.672.672 0 0 1 0 .212c-.011.059-.02.011-.02-.106zm-16.919.108a.511.511 0 0 1 .189.002c.045.011-.003.02-.107.02s-.14-.01-.082-.021zm-2.832-.045a.182.182 0 0 1 .118 0c.033.014.006.024-.059.024s-.091-.01-.059-.024zm35.612-.558c0-.312.008-.433.017-.27.01.164.009.418 0 .567-.01.148-.017.014-.017-.297zm-51.024.4c0-.064.01-.09.024-.058a.182.182 0 0 1 0 .118c-.013.032-.024.006-.024-.06zm.515.02c.003-.054.014-.066.029-.028.014.034.012.075-.004.09-.015.016-.027-.012-.025-.061zm44.69-.094c.002-.055.014-.066.029-.028.013.034.012.074-.004.09s-.027-.012-.025-.062zm-44.733-.161c0-.065.01-.091.024-.059a.182.182 0 0 1 0 .118c-.013.032-.024.006-.024-.06zm45.256 0c0-.065.01-.091.024-.059a.182.182 0 0 1 0 .118c-.013.032-.024.006-.024-.06zm-.566-.236c0-.065.01-.091.024-.059a.182.182 0 0 1 0 .118c-.014.032-.024.006-.024-.059zm-8.631-.033a.27.27 0 0 1 .142.002c.032.013-.006.023-.084.022-.078-.001-.104-.012-.058-.024zm-28.666-.046c.034-.014.074-.012.09.003.016.016-.012.027-.062.025-.055-.002-.066-.013-.028-.028zm28.17 0a.182.182 0 0 1 .118 0c.032.014.006.024-.06.024-.064 0-.09-.01-.058-.023zm.994 0c.034-.014.074-.012.09.003.016.016-.012.027-.062.025-.055-.002-.066-.013-.028-.028zm-29.756-.048a.27.27 0 0 1 .141.002c.032.013-.005.022-.083.021-.078 0-.104-.011-.058-.023zm1.12-.015c-.11-.035-.111-.038-.015-.042.057-.003.117.017.133.042.016.026.022.046.014.043l-.132-.043zm-8.02-.121c.003-.055.014-.067.03-.029.013.034.011.075-.004.09-.016.016-.027-.012-.025-.062zm6.312.042c.034-.014.075-.012.09.004.016.016-.012.027-.062.025-.055-.003-.066-.014-.028-.029zm38.945-.042c.002-.055.013-.067.028-.029.014.034.012.075-.003.09-.016.016-.027-.012-.025-.062zm-.566-.284c.002-.055.013-.066.028-.028.014.034.012.075-.004.09-.015.016-.027-.012-.025-.062zm2.563-.031-.09-.106.107.09c.058.049.106.097.106.106 0 .038-.038.01-.123-.09zm.264.088c0-.01.038-.047.083-.082.075-.059.076-.057.018.018-.062.078-.1.103-.1.064zm-48.155-.196c-.05-.038-.07-.07-.041-.07.027 0 .077.033.109.072.073.088.05.088-.068-.002zm35.877.04c.034-.013.075-.012.09.004.016.016-.012.027-.062.025-.055-.002-.066-.013-.028-.029zm16.108-.11c0-.064.01-.09.024-.058a.182.182 0 0 1 0 .118c-.013.032-.024.006-.024-.06zm-16.483-.034c-.059-.075-.057-.077.018-.018.079.061.104.1.065.1-.01 0-.047-.037-.083-.082zm-1.107-.72c0-.402.007-.567.016-.366.009.201.009.53 0 .732-.01.2-.016.036-.016-.366zm16.839.425c0-.091.01-.128.021-.083a.387.387 0 0 1 0 .165c-.012.046-.021.008-.021-.082zm-45.994-.055c-.093-.133-.069-.17.34-.514.31-.26.343-.305.33-.439-.015-.158-.03-.162-.357-.097-.19.037-.294-.04-.294-.221 0-.089.037-.16.108-.206.128-.084.69-.196 1.277-.256.237-.024.445-.07.481-.106.042-.042.075-.247.094-.584.017-.285.046-.71.066-.944.02-.233.037-1.125.039-1.982.006-2.786-.153-3.508-.804-3.655-.2-.045-.326.023-.437.237-.062.12-.063.155-.004.268a.93.93 0 0 0 .166.22c.111.1.127.217.043.302-.086.085-.194.069-.463-.07-.36-.188-.48-.369-.499-.759-.026-.52.18-.85.611-.98.286-.085.925-.061 1.246.047.485.164.854.623.93 1.158.044.315.07.377.157.377.127 0 .543-.21.72-.363.824-.71 1.94-1.046 2.801-.844.38.09.962.395 1.128.593.165.196.22.597.22 1.601 0 .732-.091 1.91-.165 2.117a2.34 2.34 0 0 0-.05.283c-.017.123-.07.38-.12.573-.055.215-.089.513-.089.774 0 .368.017.458.128.677.187.369.429.588.682.616.176.02.223.005.33-.1.16-.162.197-.39.08-.507a1.346 1.346 0 0 0-.3-.186c-.116-.055-.212-.116-.212-.135 0-.06.235-.144.41-.144.321 0 .62.277.843.78.204.462.126.797-.257 1.1-.29.23-.574.31-.985.28-.358-.025-.544-.105-.82-.355-.335-.302-.655-1.074-.751-1.813-.066-.501-.024-.981.152-1.738.238-1.023.289-1.738.162-2.27-.134-.56-.464-1.08-.791-1.25-.507-.262-1.626.033-2.454.647-.405.3-.528.46-.632.82-.076.261-.08.541-.057 3.54.014 1.79.015 3.283.003 3.315-.04.109-.19.158-.306.101-.15-.072-.641-.64-.752-.869a.845.845 0 0 0-.17-.247c-.208-.156-.482.025-.6.397-.092.287-.26.475-.651.727-.328.212-.426.228-.527.084zm46.7-.158c0-.078.011-.104.023-.058a.27.27 0 0 1-.001.142c-.013.032-.023-.006-.022-.084zm-6.282-.004c.002-.055.013-.066.028-.028.014.034.012.075-.003.09-.016.016-.027-.012-.025-.062zm-10.279-.255c0-.117.01-.165.02-.106a.672.672 0 0 1 0 .212c-.01.058-.02.01-.02-.106zm-36.204.067c.002-.055.013-.067.028-.029.014.034.012.075-.003.09-.016.016-.027-.012-.025-.061zm51.957-.284c.002-.055.014-.066.029-.028.013.034.012.075-.004.09-.016.016-.027-.012-.025-.062zm-47.95-.184c-.114-.117-.197-.213-.184-.213.013 0 .117.096.232.213.114.116.197.212.184.212-.013 0-.117-.096-.232-.212zm-3.96.043c.002-.055.014-.066.029-.029.013.034.012.075-.004.09-.016.016-.027-.011-.025-.061zm47.748-.008c-.06-.075-.057-.077.017-.018.079.062.104.1.065.1-.01 0-.047-.037-.082-.082zm-45.04-.26-.187-.2.2.186c.111.103.201.193.201.2 0 .037-.04 0-.214-.186zm49.91.126c.002-.055.013-.066.028-.028.014.034.012.074-.003.09-.016.016-.027-.012-.025-.062zm-5.151-.196-.115-.13.13.114c.122.107.152.145.115.145a.816.816 0 0 1-.13-.13zm-11.366.008c.002-.055.014-.067.029-.029.013.034.012.075-.004.09-.016.016-.027-.012-.025-.062zm9.58 0c.002-.055.013-.067.028-.029.014.034.012.075-.003.09-.016.016-.027-.012-.025-.062zm6.135 0c.002-.055.013-.067.028-.029.014.034.012.075-.004.09-.015.016-.027-.012-.024-.062zm.755-.095c.002-.055.013-.066.028-.028.014.034.012.074-.004.09-.015.016-.026-.012-.024-.062zm-4.704-.079-.09-.106.106.09c.1.085.128.123.09.123a.523.523 0 0 1-.106-.107zm-44.382-.07-.114-.13.13.114c.12.107.15.145.114.145a.816.816 0 0 1-.13-.13zm14.869.1c-.881-.13-1.425-.37-1.951-.866-.623-.586-.923-1.185-1.123-2.243-.079-.416-.08-1.615-.001-1.958.138-.607.166-.701.298-1.03.324-.804.838-1.374 1.577-1.747.456-.231.821-.304 1.365-.273 1.053.06 1.459.185 1.792.554.23.254.603 1.036.615 1.287.005.107.031.247.058.312.026.065.061.285.078.488.016.204.052.412.08.462.113.213-.072.392-.452.438-1.522.182-2.163.142-3.23-.2-.481-.154-.57-.2-.809-.42-.476-.44-.515-.384-.515.751 0 .916.015 1.028.237 1.761.255.843.522 1.308.867 1.51.182.107.898.31 1.334.378.242.037.663-.064.965-.233.21-.118.219-.132.249-.387.038-.326-.016-.413-.227-.367a.801.801 0 0 0-.239.096c-.132.092-.249.08-.309-.031-.072-.135-.023-.249.19-.44.38-.345.807-.335 1.141.026.392.424.471.873.229 1.296a1.683 1.683 0 0 1-.727.654c-.313.13-1.146.232-1.492.181zm1.622-5.11c.062-.051.077-.162.077-.602 0-.598-.036-.71-.38-1.176-.302-.408-.642-.632-1.064-.701-.229-.038-.732.068-1.023.215-.237.12-.845.52-.823.543.008.008.098-.008.2-.036.229-.063.549-.03.706.073.28.183.458.672.31.85-.098.12-.206.088-.398-.114-.203-.214-.314-.235-.452-.086-.115.124-.117.145-.027.319.071.138.612.523.915.651.349.148 1.801.195 1.959.065zm5.22 5.015c-.56-.108-1.247-.415-1.552-.693-.193-.176-.472-.646-.577-.971-.094-.29-.103-.453-.135-2.364-.036-2.198-.07-2.534-.297-2.945-.123-.222-.373-.406-.552-.406-.142 0-.318.163-.333.307-.02.192.005.256.19.49.104.131.189.253.189.27 0 .059-.553-.018-.727-.1-.2-.096-.381-.378-.422-.66-.088-.61.352-1.015 1.105-1.015.405 0 .724.123 1.02.393.286.263.447.511.587.911.2.57.232.94.208 2.448-.02 1.263-.012 1.467.07 1.888.116.605.172.795.318 1.085.176.351.35.549.634.72l.255.153.39-.05c.57-.07.878-.2 1.052-.438.204-.28.345-.57.472-.976.107-.342.11-.4.103-1.84-.005-.817-.022-1.594-.038-1.725-.024-.196-.013-.26.062-.353.136-.168.306-.088.509.24l.161.262.038 1.72.037 1.72.143.26c.1.183.225.319.421.46.441.314.721.406 1.251.41l.453.003.215-.176c.316-.26.555-.604.555-.801 0-.176.158-.709.256-.863.046-.073.057-.505.048-1.888-.012-1.946.01-1.73-.302-3.02-.082-.336-.329-.676-.592-.814-.198-.103-.565-.08-.8.05-.174.098-.19.124-.185.286.008.266.107.339.442.324l.28-.012.055.186c.076.255-.037.442-.382.627-.229.124-.294.138-.551.118-.515-.04-.757-.326-.804-.954-.023-.297-.011-.374.092-.595.131-.284.4-.575.65-.701.222-.113.604-.19.804-.162.394.055.663.125.726.187a.35.35 0 0 0 .2.073l.133.006-.137.03c-.111.024-.124.04-.07.083.036.03.11.067.166.084.153.047.265.197.281.379a.636.636 0 0 0 .323.496c.134.083.151.118.155.319.003.124.048.324.1.445.052.12.108.343.124.495.032.31.155.998.189 1.052.012.019.034.171.05.338.016.166.038.329.048.36.01.032.021.393.025.802.004.41.019.815.032.9.02.134.034.146.1.096.065-.048.068-.047.018.009-.032.036-.059.14-.059.233 0 .115-.053.244-.17.415a1.42 1.42 0 0 0-.234.582c-.084.44-.24.769-.505 1.061-.3.331-.55.494-.997.644-.324.109-.45.127-.83.118-.368-.008-.487-.03-.66-.12a1.557 1.557 0 0 0-.32-.132c-.162-.03-.428-.192-.692-.423-.131-.114-.275-.208-.32-.208-.045 0-.215.12-.378.265-.292.26-.514.4-.84.528-.166.065-1.053.117-1.274.074zm22.435-.218-.09-.106.106.09c.1.085.128.123.09.123a.522.522 0 0 1-.106-.107zm-45.445-.047-.09-.106.107.09c.058.05.106.097.106.106 0 .038-.038.01-.123-.09zm33.877-.082c0-.117.01-.165.02-.107a.672.672 0 0 1 0 .213c-.01.058-.02.01-.02-.106zm10.043.114c.002-.055.013-.067.028-.029.014.034.012.075-.004.09-.015.016-.027-.012-.025-.061zm-46.106-.048c.002-.055.014-.066.029-.028.013.034.012.075-.004.09-.016.016-.027-.012-.025-.062zm3.177-.078-.09-.106.107.09c.058.049.106.097.106.106 0 .037-.038.01-.123-.09zm49.3-.016c.002-.055.013-.066.028-.028.014.034.012.074-.004.09s-.027-.012-.025-.062zm-5.743-.126-.09-.106.107.09c.1.084.127.122.09.122a.522.522 0 0 1-.107-.106zm-44.809-.07c-.058-.075-.057-.077.018-.018.045.035.083.072.083.082 0 .039-.04.014-.1-.065zm45.35-.048c-.058-.075-.056-.076.018-.018.046.036.083.073.083.083 0 .039-.039.014-.1-.065zm-1.83-.04c.002-.054.013-.065.028-.028.014.034.012.075-.003.09-.016.016-.027-.011-.025-.061zm-45.492-.046c.002-.055.013-.067.028-.029.014.034.012.075-.003.09-.016.016-.027-.012-.025-.061zm46.064-.044c0-.078.011-.104.023-.058a.27.27 0 0 1-.001.142c-.013.032-.023-.006-.022-.084zm6.365-.05c.002-.056.013-.067.029-.03.013.035.012.076-.004.091-.016.016-.027-.012-.025-.062zm-6-.103-.115-.13.13.115c.121.107.151.145.114.145a.816.816 0 0 1-.13-.13zm-11.413.008c.002-.055.013-.066.028-.029.014.034.012.075-.004.09-.015.017-.027-.011-.025-.061zm12.049-.032-.09-.106.106.09c.058.05.106.097.106.106 0 .038-.038.01-.122-.09zm-11.008-.082c0-.065.011-.092.024-.06a.182.182 0 0 1 0 .119c-.013.032-.024.006-.024-.06zm-33.424-.083c-.059-.075-.057-.076.018-.018.078.062.103.1.064.1-.01 0-.046-.036-.082-.082zm-8.123.004a.182.182 0 0 1 .118 0c.033.013.006.024-.059.024s-.091-.01-.059-.024zm39.499 0a.182.182 0 0 1 .118 0c.032.013.006.024-.059.024s-.091-.01-.059-.024zm.96-.043c.002-.055.013-.066.028-.029.014.034.012.075-.004.09-.016.016-.027-.012-.025-.061zm10.429 0c.002-.055.013-.066.028-.029.014.034.012.075-.004.09-.015.016-.027-.012-.025-.061zm-43.992-.15c-.059-.075-.057-.076.018-.018.045.036.082.073.082.083 0 .039-.038.014-.1-.065zm1.038-.047c-.059-.075-.057-.076.018-.018.079.062.104.1.065.1-.01 0-.047-.037-.083-.082zm-8.579-.134c.002-.055.014-.066.029-.028.013.034.012.075-.004.09-.016.016-.027-.012-.025-.062zm7.352-.055c-.059-.075-.057-.076.018-.018.045.036.083.073.083.083 0 .039-.04.014-.1-.065zm1.086 0c-.06-.075-.057-.076.017-.018.079.062.104.1.065.1-.01 0-.047-.036-.082-.082zm33.714-.248c0-.142.009-.2.02-.13.01.072.01.189 0 .26-.011.072-.02.013-.02-.13zm4.29.18a.228.228 0 0 1-.052-.154c.006-.094.006-.094.03-.002.012.052.044.121.07.154.061.075.026.077-.048.002zm-6.015-.07a.182.182 0 0 1 .118 0c.033.014.006.025-.059.025s-.091-.011-.059-.024zm-1.946-.487c.1-.104.194-.189.207-.189.013 0-.059.085-.16.189a1.314 1.314 0 0 1-.208.189c-.013 0 .06-.085.16-.189zm12.918.024c0-.104.01-.141.022-.082a.511.511 0 0 1-.001.188c-.012.045-.022-.003-.021-.106zM9.86 59l-.114-.13.13.114c.121.107.151.146.114.146a.818.818 0 0 1-.13-.13zm2.452.047c-.059-.075-.057-.077.018-.018.045.036.082.073.082.083 0 .039-.039.014-.1-.065zm34.09-.602c0-.104.01-.14.021-.082a.513.513 0 0 1-.001.189c-.012.045-.021-.003-.02-.107zM8.985 58.41l-.09-.106.107.09c.1.084.127.122.09.122a.524.524 0 0 1-.107-.106zm34.5.016a.39.39 0 0 0-.164-.065l-.118-.02.124-.007c.068-.004.15.025.183.064.064.077.046.097-.026.028zm10.698-.146c0-.065.01-.091.023-.059a.182.182 0 0 1 0 .118c-.013.033-.023.006-.023-.059zM8.6 58.247a.27.27 0 0 1 .142.002c.032.013-.006.023-.083.022-.078-.001-.104-.012-.059-.024zm45.015-.203c0-.065.011-.091.024-.059a.182.182 0 0 1 0 .118c-.013.033-.024.006-.024-.059zm-8.258-.047c0-.065.01-.092.024-.06a.182.182 0 0 1 0 .119c-.013.032-.024.006-.024-.06zm-33.85-.035c-.058-.075-.056-.077.018-.018.079.061.104.1.065.1-.01 0-.047-.037-.082-.083zm32.242.007c.002-.055.013-.066.028-.028.014.034.012.075-.004.09-.015.016-.026-.012-.024-.062zm7.935-.066c0-.091.01-.128.022-.083a.387.387 0 0 1 0 .165c-.012.046-.022.008-.022-.082zm3.965-.024c0-.104.01-.14.021-.082a.513.513 0 0 1 0 .189c-.012.045-.022-.003-.021-.107zm-4.397.043c.002-.055.013-.066.029-.028.013.034.012.074-.004.09s-.027-.012-.025-.062zm-43.089-.037c0-.01.037-.047.083-.083.074-.059.076-.057.017.018-.061.079-.1.104-.1.065zm38.243-.62c0-.337.008-.469.017-.293.009.177.009.453 0 .614-.01.161-.017.017-.017-.32zm7.677.468c.003-.055.014-.066.029-.028.014.034.012.075-.004.09-.016.016-.027-.012-.025-.062zm-45.59-.137a.559.559 0 0 1 .135-.118c.013 0-.026.053-.087.118a.559.559 0 0 1-.135.118c-.013 0 .026-.053.087-.118zm2.731-.012c-.058-.075-.057-.077.018-.018.079.062.104.1.065.1-.01 0-.047-.037-.083-.082zm39.016.01c-.046-.119-.033-.15.023-.054.028.048.04.096.028.109-.012.012-.035-.013-.051-.055zm1.06-.002c.001-.055.013-.066.028-.029.013.034.012.075-.004.09-.016.016-.027-.012-.025-.061zm2.217-.047c.002-.055.014-.067.029-.029.013.034.012.075-.004.09-.016.016-.027-.012-.025-.061zm2.554-.138c.001-.078.012-.104.024-.058a.27.27 0 0 1-.002.141c-.013.032-.023-.005-.022-.083zm-10.659-.236c0-.182.009-.25.02-.152.01.098.01.246-.001.33-.01.084-.02.004-.019-.178zm-1.66.165c0-.065.011-.091.024-.059a.182.182 0 0 1 0 .118c-.013.033-.024.006-.024-.059zm7.972.02c.002-.055.013-.066.028-.029.014.034.012.075-.003.09-.016.016-.027-.011-.025-.061zm-8.395-.09c.002-.079.012-.105.024-.059a.27.27 0 0 1-.002.142c-.013.032-.022-.006-.021-.084zm6.845-.024c0-.091.01-.128.021-.083a.388.388 0 0 1 0 .165c-.011.046-.021.009-.021-.082zm5.423.047c0-.065.011-.091.024-.059a.182.182 0 0 1 0 .118c-.013.032-.024.006-.024-.06zm-4.25-.028c.002-.055.013-.066.028-.028.014.034.012.075-.004.09-.016.016-.027-.012-.025-.062zm-42.429-.09a.559.559 0 0 1 .135-.118c.013 0-.027.053-.088.118a.559.559 0 0 1-.134.118c-.013 0 .026-.053.087-.118zm44.505-.051c.002-.055.013-.066.028-.029.014.034.012.075-.004.09-.015.016-.026-.011-.024-.061zm-1.652-.095c.002-.054.014-.066.029-.028.013.034.012.075-.004.09-.016.016-.027-.012-.025-.062zm-42.664-.084c0-.01.037-.047.082-.083.075-.058.077-.057.018.018-.061.079-.1.104-.1.065zm34.693-.077c0-.065.01-.091.023-.059a.182.182 0 0 1 0 .118c-.013.033-.023.006-.023-.059zm11.7-.027c.001-.055.013-.066.028-.029.013.034.012.075-.004.09-.016.016-.027-.012-.025-.061zm-12.129-.048c.002-.054.014-.066.029-.028.013.034.012.075-.004.09-.016.016-.027-.012-.025-.062zm7.217-.326c.088-.09.17-.165.183-.165.013 0-.048.074-.136.165a1.03 1.03 0 0 1-.184.165c-.013 0 .049-.074.137-.165zm-7.162-.118c0-.09.01-.128.021-.082a.387.387 0 0 1 0 .165c-.012.045-.021.008-.021-.083zm15.886-.035c-.059-.075-.057-.077.018-.018.045.036.082.073.082.082 0 .04-.038.014-.1-.064zM10.49 55.99c0-.156.01-.214.02-.129.01.085.01.212 0 .283-.012.071-.02.002-.02-.154zm33.413-.236c0-.233.008-.335.018-.225.01.11.01.3 0 .424s-.018.035-.018-.199zm15.22.319c-.059-.075-.057-.077.018-.018.045.036.083.073.083.083 0 .038-.04.013-.1-.065zm-15.657-.276c.002-.054.013-.066.028-.028.014.034.012.075-.004.09-.015.016-.027-.012-.025-.062zm15.28-.196c-.06-.075-.057-.077.017-.018.08.062.104.1.065.1-.01 0-.047-.037-.082-.082zm-6.46-.123c0-.01.038-.047.083-.083.075-.059.077-.057.018.018-.062.078-.1.103-.1.065zm.466-.065c-.058-.075-.057-.077.018-.018.046.036.083.073.083.083 0 .038-.039.013-.1-.065zm2.842.008c.002-.055.013-.066.028-.029.014.034.012.075-.004.09-.015.016-.027-.012-.025-.061zm-12.081-.047c.002-.055.013-.067.028-.029.014.034.012.075-.004.09-.015.016-.026-.012-.024-.061zm2.841-.138c0-.13.01-.177.02-.106.011.072.01.178 0 .236-.011.058-.02 0-.02-.13zm-33.053.035c-.059-.075-.057-.076.018-.018.078.062.103.1.064.1-.01 0-.047-.036-.082-.082zm39.21.052a.182.182 0 0 1 .118 0c.032.013.006.023-.06.023-.064 0-.09-.01-.058-.023zm-42.506-.04c0-.026.02-.079.046-.118.025-.039.045-.05.045-.023 0 .026-.02.079-.045.118-.025.038-.046.05-.046.023zm45.494-.287c.002-.055.014-.066.029-.029.013.035.012.075-.004.09-.016.017-.027-.011-.025-.061zm-3.964-.047c.002-.055.014-.066.029-.029.013.034.012.075-.004.09-.016.016-.027-.012-.025-.061zm-7.598-.047c.003-.055.014-.067.029-.029.014.034.012.075-.004.09-.016.016-.027-.012-.025-.061zm14.148-.15c-.059-.075-.057-.076.018-.018.078.062.103.1.065.1-.01 0-.047-.036-.083-.082zm1.793-.189c-.058-.074-.057-.076.018-.017.079.061.104.1.065.1-.01 0-.047-.037-.083-.083zm-15.893-.039c.002-.055.013-.066.028-.029.014.035.012.075-.004.09-.015.017-.027-.011-.025-.061zm1.428-.35c0-.195.008-.274.018-.177.01.097.01.257 0 .354-.01.097-.018.018-.018-.177zm.893.142c0-.117.01-.165.02-.107a.672.672 0 0 1 0 .213c-.01.058-.02.01-.02-.106zm5.334-.118c0-.156.01-.214.02-.13.01.086.01.213 0 .284-.011.07-.02.002-.02-.154zm-7.986.09c.003-.055.014-.066.029-.028.013.034.012.074-.004.09s-.027-.012-.025-.062zm15.966-.031-.09-.107.106.09c.1.085.128.123.09.123a.523.523 0 0 1-.106-.106zm-2.076-.048-.09-.106.106.09c.1.085.128.123.09.123a.523.523 0 0 1-.106-.107zm-46.172-.1c0-.01.037-.047.083-.083.074-.058.076-.057.017.018-.061.079-.1.104-.1.065zm32.707-.057c.002-.055.013-.066.029-.028.013.034.011.074-.004.09-.016.016-.027-.012-.025-.062zm15.305-.079-.09-.106.107.09c.1.085.127.123.09.123a.523.523 0 0 1-.107-.107zm-48.437-.2a.559.559 0 0 1 .135-.118c.013 0-.027.053-.087.118a.559.559 0 0 1-.135.118c-.013 0 .026-.053.087-.118zm32.802-.004c.002-.055.013-.066.028-.029.014.034.012.075-.004.09-.015.017-.026-.011-.024-.061zm8.626-.055c-.059-.075-.057-.077.018-.018.078.062.103.1.064.1-.01 0-.047-.037-.082-.082zm-40.413-.248c.154-.156.29-.283.304-.283.013 0-.103.127-.257.283-.154.156-.29.283-.304.283-.013 0 .103-.127.257-.283zm34.288.161c.002-.055.013-.066.028-.028.014.034.012.075-.004.09-.015.016-.026-.012-.024-.062zm12.826-.008c-.059-.074-.057-.076.018-.017.078.061.103.1.065.1-.01 0-.047-.037-.083-.083zm-13.72-.247c0-.065.012-.092.025-.06a.182.182 0 0 1 0 .119c-.013.032-.024.006-.024-.06zm13.299-.224-.163-.177.177.162c.165.152.199.192.163.192-.008 0-.088-.08-.177-.177zm-46.929-.2c.18-.183.338-.331.351-.331.013 0-.124.148-.304.33-.18.182-.338.33-.351.33-.013 0 .124-.148.304-.33zm40.083.058c-.06-.075-.057-.076.017-.018.079.062.104.1.065.1-.01 0-.047-.037-.082-.082zm-39.28-.059a.373.373 0 0 1 .108-.094c.013 0-.015.042-.062.094a.373.373 0 0 1-.109.094c-.013 0 .015-.042.062-.094zm38.619-.035c-.059-.075-.057-.077.018-.018.078.061.103.1.065.1-.01 0-.047-.037-.083-.082zm-4.94-.083c.001-.078.012-.104.024-.058a.27.27 0 0 1-.002.142c-.013.032-.023-.006-.022-.084zm-.898-.023c0-.065.01-.092.024-.06a.182.182 0 0 1 0 .118c-.014.033-.024.006-.024-.058zm-32.57-.018c0-.01.038-.047.083-.083.075-.059.077-.057.018.018-.062.079-.1.104-.1.065zm38.507-.395-.4-.413.413.4c.384.371.435.425.4.425-.007 0-.193-.185-.413-.412zm-8.974.286c.034-.014.075-.012.09.004.016.015-.012.027-.061.025-.055-.003-.066-.014-.029-.029zm15.839-.121-.139-.154.153.139c.085.076.154.145.154.153 0 .037-.04.005-.168-.138zm-14.08.031c.002-.055.013-.066.028-.028.014.034.012.074-.004.09-.015.016-.026-.012-.024-.062zm6.697-.137c-.114-.117-.198-.213-.185-.213.013 0 .118.096.232.213.115.116.198.212.185.212-.013 0-.117-.096-.232-.212zm-6.087.147c0-.01.037-.047.082-.083.075-.058.077-.057.018.018-.062.079-.1.104-.1.065zm.498-.102c-.05-.038-.069-.069-.041-.069.027 0 .077.032.109.07.073.09.05.089-.068 0zm-1.407-.147a.182.182 0 0 1 .118 0c.033.013.006.023-.059.023s-.091-.01-.059-.023zm-31.228-.134a.559.559 0 0 1 .134-.118c.013 0-.026.053-.087.118a.559.559 0 0 1-.135.118c-.013 0 .027-.053.088-.118zm29.411.038a.387.387 0 0 1 .165 0c.046.012.009.021-.082.021-.09 0-.128-.01-.083-.021zm.615 0a.27.27 0 0 1 .141.001c.032.013-.005.023-.083.022-.078-.001-.104-.011-.058-.023zm.45-.047c.034-.014.075-.012.09.004.016.016-.012.027-.061.025-.055-.003-.067-.014-.029-.029zm3.269-.042c.002-.055.013-.067.028-.029.014.034.012.075-.004.09-.015.016-.026-.012-.024-.062zm7.257-.15c-.058-.075-.057-.076.018-.018.046.036.083.073.083.083 0 .039-.039.014-.1-.065zm4.059-.047c-.059-.075-.057-.077.018-.018.078.062.103.1.064.1-.01 0-.047-.037-.082-.082zm-44.778.017c0-.01.037-.047.082-.082.075-.059.077-.057.018.018-.061.078-.1.103-.1.064zm29.246-.013a.182.182 0 0 1 .118 0c.033.013.006.024-.059.024s-.091-.01-.059-.024zm1.758-.228a.559.559 0 0 1 .135-.118c.013 0-.027.053-.088.118a.559.559 0 0 1-.134.118c-.013 0 .026-.053.087-.118zm2.509.023c0-.065.01-.091.024-.059a.182.182 0 0 1 0 .118c-.014.033-.024.006-.024-.059zm4.259-.012-.09-.106.106.09c.1.085.128.123.09.123a.523.523 0 0 1-.106-.107zm6.817-.023c-.059-.075-.057-.077.018-.018.045.036.083.073.083.083 0 .038-.04.013-.1-.065zm-32.877-.083c.001-.078.012-.104.024-.058a.27.27 0 0 1-.002.142c-.013.032-.023-.006-.022-.084zm17.935.039a.388.388 0 0 1 .166 0c.045.011.008.021-.083.021-.09 0-.128-.01-.083-.021zm.885.014c0-.01.037-.047.083-.082.075-.059.076-.057.018.017-.062.08-.1.104-.1.065zm9.766-.159-.162-.177.177.163c.164.151.198.191.162.191-.008 0-.087-.08-.177-.177zm-8.916.112c0-.01.042-.03.094-.043.052-.014.083-.006.068.018-.025.041-.162.062-.162.025zm-1.086-.138c0-.009.07-.078.154-.154l.153-.138-.139.153c-.129.143-.168.175-.168.139zm.543-.08a.373.373 0 0 1 .109-.094c.013 0-.015.042-.062.094a.373.373 0 0 1-.109.094c-.013 0 .015-.042.062-.094zm-6.64.015c.035-.014.076-.012.091.004.016.015-.012.027-.062.025-.055-.003-.066-.014-.028-.029zm.19 0c.034-.014.074-.012.09.004.016.015-.012.027-.062.025-.055-.003-.066-.014-.028-.029zm-.52-.047c.035-.014.075-.012.09.004.017.015-.011.026-.061.024-.055-.002-.066-.013-.029-.028zm20.229-.216-.234-.248.247.235c.137.128.248.24.248.247 0 .036-.044-.004-.261-.234zm-20.609.17a.182.182 0 0 1 .118 0c.032.013.006.023-.059.023s-.091-.01-.059-.024zm2.834-.002c.034-.013.075-.012.09.004.017.016-.011.027-.061.025-.055-.002-.066-.013-.029-.029zm5.389.015c0-.01.037-.047.083-.083.074-.059.076-.057.017.018-.061.079-.1.104-.1.065zm5.515-.065c-.058-.075-.057-.077.018-.018.046.036.083.073.083.083 0 .039-.039.014-.1-.065zm-25.52-.04c.002-.054.013-.065.028-.028.014.034.012.075-.003.09-.016.016-.027-.012-.025-.061zm11.219-.004c.034-.014.074-.012.09.004s-.012.027-.062.025c-.055-.002-.066-.014-.028-.029zm13.364-.015c-.043-.027-.049-.046-.015-.046.03 0 .07.02.085.046.037.059.02.059-.07 0zm3.51-.153-.09-.106.107.09c.1.084.128.122.09.122a.522.522 0 0 1-.106-.106zm-27.35.027c.033-.014.074-.012.09.003.015.016-.012.027-.062.025-.055-.002-.066-.013-.029-.028zm9.72 0c.035-.014.075-.012.091.003.016.016-.012.027-.062.025-.055-.002-.066-.013-.028-.028zm8.622-.063a.373.373 0 0 1 .109-.094c.013 0-.015.043-.062.094a.373.373 0 0 1-.109.095c-.013 0 .015-.043.062-.095zm.542-.017c0-.01.038-.047.083-.083.075-.059.077-.057.018.018-.062.079-.1.104-.1.065zm8.206-.16c-.059-.074-.057-.076.018-.017.078.061.103.1.064.1-.01 0-.047-.037-.082-.083zm-8.536.018c0-.01.037-.047.083-.083.075-.058.076-.057.018.018-.062.079-.1.104-.1.065zm-10.296-.109c.034-.013.074-.012.09.004s-.012.027-.062.025c-.055-.002-.066-.013-.028-.029zm2.971-.002c.111-.01.28-.01.378 0 .096.01.005.019-.202.019-.208 0-.287-.009-.176-.019zm-.706-.092c.034-.014.075-.012.09.004.016.016-.012.027-.062.025-.055-.002-.066-.014-.028-.029zm1.604 0c.034-.014.075-.012.09.004.016.016-.011.027-.061.025-.055-.002-.066-.014-.029-.029zm6.663.015c0-.01.037-.047.083-.083.075-.059.076-.057.018.018-.062.078-.1.103-.1.065zm12.264-.065c-.059-.075-.057-.077.018-.018.078.062.103.1.064.1-.01 0-.047-.037-.082-.082zm-23.74-.091c.034-.014.075-.012.09.003.016.016-.012.027-.062.025-.055-.002-.066-.013-.028-.028zm16.378-.098c-.059-.075-.057-.077.018-.018.045.036.082.073.082.083 0 .039-.038.014-.1-.065zm-32.461-.13c.088-.09.17-.165.183-.165.013 0-.048.074-.136.165a1.03 1.03 0 0 1-.184.165c-.013 0 .049-.074.137-.165zm-1.227-.047a.559.559 0 0 1 .134-.118c.013 0-.026.053-.087.118a.559.559 0 0 1-.135.118c-.013 0 .027-.053.088-.118zm7.554.043c.002-.055.013-.066.028-.028.014.034.012.074-.003.09-.016.016-.027-.012-.025-.062zm9.048.043c.034-.014.075-.012.09.004.016.015-.012.026-.061.024-.055-.002-.067-.013-.029-.028zm2.817-.015c-.016-.027.002-.034.044-.018.082.031.097.065.03.065-.025 0-.058-.021-.074-.047zm-19.16-.33a.373.373 0 0 1 .11-.095c.012 0-.016.042-.063.094a.373.373 0 0 1-.109.095c-.013 0 .015-.043.062-.095zm32.815-.083c-.058-.075-.057-.077.018-.018.079.062.104.1.065.1-.01 0-.047-.037-.083-.082zm-24.253-.142-.115-.13.13.115c.121.107.152.145.115.145a.816.816 0 0 1-.13-.13zm-.846-.059c0-.078.018-.141.039-.141s.03.063.018.141c-.011.078-.029.142-.039.142-.01 0-.018-.064-.018-.142zm11.137.124c0-.01.037-.047.083-.083.074-.058.076-.057.017.018-.061.079-.1.104-.1.065zm-17.154-.265c.128-.13.243-.236.256-.236.013 0-.08.106-.209.236-.128.13-.243.236-.256.236-.013 0 .081-.107.21-.236zm12.143.109c.034-.014.075-.012.09.004.016.016-.012.027-.062.025-.055-.003-.066-.014-.028-.029zm2.853 0a.27.27 0 0 1 .141.001c.032.013-.005.023-.083.022-.078-.001-.104-.012-.058-.024zm.495.001a.182.182 0 0 1 .117 0c.033.013.006.024-.059.024-.064 0-.09-.01-.058-.024zm-10.084-.185c.002-.055.014-.066.029-.029.013.034.012.075-.004.09-.016.016-.027-.011-.025-.061zm8.718.042c.034-.013.075-.012.09.004.016.016-.012.027-.062.025-.055-.002-.066-.013-.028-.028zm1.896-.032c0-.01.038-.047.083-.083.075-.059.077-.057.018.018-.062.078-.1.103-.1.065zm-2.368-.062c.034-.014.075-.012.09.004.016.016-.012.027-.061.025-.055-.003-.067-.014-.029-.029zm-15.032-.204c0-.117.009-.164.02-.106a.672.672 0 0 1 0 .212c-.011.059-.02.011-.02-.106zm31.767.036-.139-.154.154.139c.143.13.175.168.138.168a1.18 1.18 0 0 1-.153-.153zm-17.16.074c.034-.014.075-.012.09.003.016.016-.011.027-.061.025-.055-.002-.066-.013-.029-.028zm4.445-.133a.559.559 0 0 1 .135-.118c.012 0-.027.053-.088.118a.559.559 0 0 1-.134.118c-.013 0 .026-.053.087-.118zm-17.154-.118a.373.373 0 0 1 .11-.095c.012 0-.016.043-.063.095a.373.373 0 0 1-.109.094c-.013 0 .015-.042.062-.094zm.213-.16c0-.01.037-.047.082-.082.075-.059.077-.057.018.018-.062.078-.1.103-.1.064zm17.319-.147a.559.559 0 0 1 .134-.118c.013 0-.026.053-.087.118a.559.559 0 0 1-.135.118c-.013 0 .027-.053.088-.118zm-1.088-.153L34 48.489l.177.162c.165.152.199.192.163.192-.008 0-.088-.08-.177-.177zm12.782.144c.034-.013.075-.012.09.004.016.016-.012.027-.061.025-.055-.002-.067-.013-.029-.028zm6.515-.286c-.058-.075-.057-.077.018-.018.079.062.104.1.065.1-.01 0-.047-.037-.083-.082zm-12.735-.03c0-.01.037-.047.082-.082.075-.059.077-.057.018.018-.061.078-.1.103-.1.064zm-23.347-.062a.27.27 0 0 1 .142.002c.031.013-.006.023-.084.022-.078-.001-.104-.012-.058-.024zm5.701-.042c.002-.055.014-.066.029-.028.013.034.012.075-.004.09-.016.016-.027-.012-.025-.062zm-6.1-.004c.034-.014.075-.012.09.004.016.015-.012.027-.062.024-.055-.002-.066-.013-.028-.028zm23.982-.08c0-.01.037-.047.082-.083.075-.058.077-.057.018.018-.062.079-.1.104-.1.065zm5.56-.109c.033-.014.074-.012.09.004.015.016-.012.027-.062.025-.055-.002-.066-.014-.029-.029zm-23.442-.09c.002-.055.014-.066.029-.028.013.034.012.074-.004.09s-.027-.012-.025-.062zm23.725.043c.034-.014.074-.012.09.004.016.015-.012.026-.062.024-.055-.002-.066-.013-.029-.028zm-5.607-.033c0-.01.037-.047.082-.083.075-.058.077-.057.018.018-.062.079-.1.104-.1.065zm-6.176-.173c-.006-.122.067-.234.154-.234.025 0 .012.026-.03.059a.326.326 0 0 0-.097.177l-.02.118zm.46-.034c-.06-.074-.057-.076.017-.017.046.035.083.072.083.082 0 .04-.039.014-.1-.065zm-13.755-.07-.09-.106.106.09c.1.084.128.122.09.122a.523.523 0 0 1-.106-.106zm1.444.04c0-.009.037-.046.082-.082.075-.058.077-.057.018.018-.061.079-.1.104-.1.065zm29.56-.087-.09-.107.107.09c.1.085.127.123.09.123a.522.522 0 0 1-.107-.106zm-37.112-.26-.306-.319.319.306c.175.168.319.311.319.318 0 .035-.048-.01-.332-.305zm25.909.3c0-.01.037-.046.083-.082.074-.059.076-.057.017.018-.061.079-.1.104-.1.065zm-21.009-.202c.034-.014.075-.012.09.003.016.016-.012.027-.061.025-.055-.002-.066-.013-.029-.028zm21.34-.077c0-.008.068-.078.153-.154l.153-.138-.139.153c-.129.143-.168.175-.168.139zm-27.094-.257c-.059-.075-.057-.076.018-.018.078.062.103.1.064.1-.01 0-.047-.037-.082-.082zm9.62.004a.182.182 0 0 1 .119 0c.032.013.006.024-.06.024-.064 0-.09-.011-.058-.024zm9.08-.11c0-.065.012-.092.025-.06a.182.182 0 0 1 0 .119c-.013.032-.024.005-.024-.06zm-19.004-.248-.139-.154.154.14c.084.075.153.144.153.152 0 .037-.039.005-.168-.138zm6.153.121c.034-.014.074-.012.09.004s-.012.027-.062.025c-.055-.003-.066-.014-.028-.029zm.66-.094c.034-.014.075-.012.09.004.016.015-.011.026-.061.024-.055-.002-.066-.013-.029-.028zm.186 0a.182.182 0 0 1 .118 0c.033.014.006.025-.059.025s-.091-.011-.059-.024zm.994 0c.034-.014.075-.012.09.004.016.015-.012.026-.061.024-.055-.002-.067-.013-.029-.028zm11.008-.232c.002-.055.014-.066.029-.028.013.034.012.075-.004.09-.016.016-.027-.012-.025-.062zm9.387-.176c0-.008.07-.077.154-.153l.153-.139-.139.154c-.129.143-.168.175-.168.138zm-9.426-.442a.387.387 0 0 1 .165 0c.046.012.008.021-.082.021-.091 0-.128-.01-.083-.021zM13.4 45.88l-.163-.177.177.163c.097.09.177.169.177.177 0 .036-.04.002-.191-.163zm30.063-.03c0-.01.037-.047.082-.082.075-.059.077-.057.018.018-.061.078-.1.103-.1.064zm-28.736-.104c.003-.055.014-.066.029-.028.013.034.012.075-.004.09-.016.016-.027-.012-.025-.062zm28.877-.084c0-.01.038-.047.083-.083.075-.059.077-.057.018.018-.062.079-.1.104-.1.065zm-30.68-.207c-.058-.074-.057-.076.018-.017.079.061.104.1.065.1-.01 0-.047-.037-.083-.083zm19.776-.094-.115-.13.13.115c.121.107.152.145.115.145a.816.816 0 0 1-.13-.13zm-18.067-.134c.002-.055.013-.066.028-.028.014.034.012.075-.003.09-.016.016-.027-.012-.025-.062zm-2.13-.15-.115-.129.13.114c.12.107.15.146.114.146a.816.816 0 0 1-.13-.13zm.495-.023-.138-.153.153.138c.084.077.153.146.153.154 0 .036-.039.004-.168-.139zm1.069.079c.002-.055.013-.066.028-.029.014.034.012.075-.004.09-.015.016-.026-.011-.024-.061zm-1.873-.315-.09-.106.107.09c.1.085.127.122.09.122a.523.523 0 0 1-.107-.106zm1.928-.342c0-.104.01-.14.021-.082a.516.516 0 0 1 0 .189c-.012.045-.022-.003-.021-.107zm-2.352-.035-.09-.106.106.09c.1.084.128.122.09.122a.522.522 0 0 1-.106-.106zm2.662-.304c.034-.013.074-.012.09.004s-.012.027-.062.025c-.055-.002-.066-.014-.028-.029zm35.594-2.59c.002-.056.014-.067.029-.03.013.035.012.076-.004.091-.016.016-.027-.012-.025-.062zm-.094-.52c.002-.055.013-.066.028-.028.014.034.012.075-.004.09-.015.016-.026-.012-.024-.062zm-.091-.633c0-.065.01-.091.024-.059a.182.182 0 0 1 0 .118c-.013.033-.024.006-.024-.059zm-3.87-.094c0-.065.011-.092.024-.06a.182.182 0 0 1 0 .119c-.013.032-.024.006-.024-.06zm3.825-.496c0-.078.011-.104.023-.058a.27.27 0 0 1-.002.142c-.013.032-.022-.006-.021-.084zm-3.728-.188c0-.078.011-.104.023-.059a.27.27 0 0 1-.002.142c-.013.032-.022-.006-.021-.083zm.048-.59c0-.091.01-.128.022-.083a.387.387 0 0 1 0 .165c-.012.046-.022.008-.022-.082zm3.68-.637c0-.078.011-.104.023-.059a.27.27 0 0 1-.002.142c-.013.032-.022-.006-.021-.083zm-3.68-.638c0-.09.01-.128.022-.082a.387.387 0 0 1 0 .165c-.012.045-.022.008-.022-.083zm3.725.048c0-.065.01-.092.024-.06a.182.182 0 0 1 0 .119c-.013.032-.024.006-.024-.06zm-3.773-.637c0-.078.011-.104.023-.058a.27.27 0 0 1-.002.141c-.013.032-.022-.005-.021-.083zm3.864-.004c.002-.055.013-.066.028-.029.014.034.012.075-.004.09-.015.016-.026-.012-.024-.061zm.094-.472c.002-.055.014-.066.029-.029.013.034.012.075-.004.09-.016.016-.027-.011-.025-.061zm-4.61-1.164-.09-.106.107.09c.1.084.128.122.09.122a.523.523 0 0 1-.106-.106zm-.387-.72c.001-.078.012-.104.024-.058a.27.27 0 0 1-.002.142c-.013.032-.023-.006-.022-.084zm.25-.59a.373.373 0 0 1 .11-.094c.013 0-.015.042-.062.094a.373.373 0 0 1-.11.095c-.012 0 .016-.043.063-.095zm15.62-.192a24.261 24.261 0 0 1-1.273-.056 5.305 5.305 0 0 0-.779-.109c-.415-.034-.546-.083-.988-.37-.71-.458-.764-.947-.17-1.547.12-.122.34-.282.488-.354.236-.116.321-.132.694-.13.258.002.544.036.731.088.486.135 1.135.473 1.444.753.153.138.354.286.447.33.092.044.287.201.434.35.645.655.741.877.44 1.02a.61.61 0 0 1-.224.067 67.542 67.542 0 0 0-1.243-.042zm-15.158-.893c0-.117.009-.165.02-.106a.672.672 0 0 1 0 .212c-.011.058-.02.01-.02-.106zm5.697.124c0-.01.037-.047.083-.083.075-.059.076-.057.018.018-.062.078-.1.103-.1.065zm.142-.19c0-.009.037-.046.082-.082.075-.058.077-.057.018.018-.062.079-.1.104-.1.065zm-5.943-.622c.003-.055.014-.067.029-.029.013.034.012.075-.004.09-.016.016-.027-.012-.025-.061zm6.84-.321c0-.01.036-.047.082-.083.075-.058.076-.057.018.018-.062.079-.1.104-.1.065zm13.307-.43c-.672-.115-1.364-.408-2.045-.868-.772-.52-1.114-1.186-1.057-2.056.06-.93.596-1.663 1.56-2.14a7.822 7.822 0 0 1 1.636-.547c.433-.093 1.634-.245 2.336-.297 1.056-.078 4.505-.032 4.658.062.018.011.458.04.976.063 1.105.05 1.254.093 1.184.336-.065.23-.562.798-1.625 1.861-.838.838-.929.92-1.606 1.446-1.228.953-2.308 1.527-3.808 2.025-.548.181-.574.185-1.207.18a8.087 8.087 0 0 1-1.002-.065zm-10.58-.953c.035-.014.075-.012.09.004.017.016-.011.027-.061.025-.055-.002-.066-.014-.028-.029zm.422-.093a.182.182 0 0 1 .118 0c.033.013.006.023-.059.023s-.091-.01-.059-.023zm.57-.096c.034-.013.074-.012.09.004s-.012.027-.062.025c-.055-.002-.066-.013-.029-.029zm1.038-.236c.034-.013.074-.012.09.004s-.012.027-.062.025c-.055-.002-.066-.013-.028-.028zm-3.566-.283a.387.387 0 0 1 .165 0c.045.012.008.021-.083.021-.09 0-.128-.01-.082-.021zm-.684-.046a.182.182 0 0 1 .118 0c.032.013.005.024-.06.024-.064 0-.09-.01-.058-.024zm1.58-.001a.387.387 0 0 1 .166 0c.045.012.008.021-.083.021-.09 0-.128-.01-.083-.021zm.499-.047c.034-.014.075-.012.09.004.016.016-.012.027-.062.025-.055-.002-.066-.014-.028-.029zm4.389-.189c.034-.013.074-.012.09.004s-.012.027-.062.025c-.055-.002-.066-.013-.028-.029zm-30.94-.119c-.07-.07-.075-.808-.007-1.197.18-1.022.466-1.728 1.067-2.624.457-.683.635-.865 1.024-1.048.51-.241.767-.289 1.565-.287.79.002 1.153.07 1.668.314.546.259.857.7 1.042 1.478.135.565.067.907-.23 1.165-.567.49-1.012.785-1.54 1.021-.502.224-1.74.63-2.402.785l-1.182.28c-.766.184-.917.2-1.004.113zm23.559-.05-.09-.105.106.09c.1.084.128.122.09.122a.523.523 0 0 1-.106-.106zm4.55.075c.033-.014.074-.012.09.004.015.015-.013.027-.062.025-.055-.003-.066-.014-.029-.029zm3.68-.095c.034-.013.075-.011.09.004.016.016-.012.027-.061.025-.055-.002-.067-.013-.029-.028zm.472-.094c.034-.014.075-.012.09.004.016.016-.012.027-.061.025-.055-.002-.067-.014-.029-.029zm-3.115-.047c.034-.014.075-.012.09.004.017.015-.011.027-.061.025-.055-.003-.066-.014-.029-.029zm.425-.094c.034-.014.075-.012.09.003.016.016-.012.027-.061.025-.055-.002-.066-.013-.029-.028zm.871-.143a.27.27 0 0 1 .142.002c.032.013-.006.023-.084.022-.078-.001-.104-.012-.058-.024zm.45-.046c.035-.014.075-.012.09.004.017.015-.011.027-.061.024-.055-.002-.066-.013-.029-.028zm1.797-.05c-.06-.075-.057-.077.017-.018.046.035.083.072.083.082 0 .039-.039.014-.1-.065zm-1.422.003a.182.182 0 0 1 .118 0c.032.013.006.024-.059.024s-.091-.01-.059-.024zm-15.803-.145c-.059-.075-.057-.077.018-.018.078.061.103.1.065.1-.01 0-.047-.037-.083-.082zm-.513-.555c-.194-.195-.341-.354-.328-.354.013 0 .182.16.375.354.193.195.341.354.328.354-.013 0-.182-.16-.375-.354zm-.572-.53c-.06-.076-.058-.077.017-.019.046.036.083.073.083.083 0 .039-.039.014-.1-.065zm4.055-.045c.034-.013.075-.012.09.004.016.016-.012.027-.061.025-.055-.002-.067-.014-.029-.029zm.755 0c.034-.013.075-.012.09.004.016.016-.012.027-.061.025-.055-.002-.066-.014-.029-.029zm-1.132-.047c.034-.014.074-.012.09.004s-.012.027-.062.025c-.055-.003-.066-.014-.028-.029zm-3.962-.145c-.058-.075-.057-.076.018-.018.046.036.083.073.083.083 0 .039-.039.014-.1-.065zm3.16-.044c.033-.013.074-.012.09.004.015.016-.012.027-.062.025-.055-.002-.066-.014-.029-.029zm-3.348-.097c-.06-.075-.057-.077.017-.018.046.035.083.073.083.082 0 .04-.039.014-.1-.064zm7.179-.36c0-.01.037-.047.082-.083.075-.059.077-.057.018.018-.062.079-.1.104-.1.065zm.306-.266a.373.373 0 0 1 .11-.094c.012 0-.015.042-.062.094a.373.373 0 0 1-.11.095c-.012 0 .015-.043.062-.095zm1.18-.99c.154-.156.291-.284.304-.284.013 0-.103.128-.257.283-.154.156-.29.284-.303.284-.013 0 .102-.128.256-.284zM25.53 25.65c-.381-.084-.657-.182-1.463-.521-.762-.32-.788-.335-.804-.448-.024-.182.027-.251.376-.514.743-.559 1.117-.745 1.958-.977.593-.163 1.059-.167 1.545-.014.67.212 1.006.585 1.062 1.183.045.485-.076.642-.786 1.022a2.663 2.663 0 0 1-1.888.269zm26.191-.474a.559.559 0 0 1 .135-.118c.013 0-.027.053-.088.118a.559.559 0 0 1-.134.118c-.013 0 .026-.053.087-.118zm.283-.324c0-.01.038-.047.083-.083.075-.058.076-.057.018.018-.062.079-.1.104-.1.065zm.284-.33c0-.01.037-.048.082-.083.075-.059.077-.057.018.018-.062.078-.1.103-.1.064zm.33-.425c0-.01.037-.047.082-.083.075-.059.077-.057.018.018-.061.079-.1.104-.1.065zm-20.1-2.417c.003-.055.014-.066.029-.028.013.034.012.075-.004.09-.016.016-.027-.012-.025-.062zm21.873-.505c.017-.047.044-.073.058-.058.015.014 0 .052-.032.084-.047.047-.052.041-.026-.026zm-27.728-.093c-.013-.013-.205-.035-.427-.049-.69-.043-1.16-.26-1.842-.848-1.303-1.124-2.327-2.973-2.929-5.288-.175-.675-.068-.757.726-.552 2.6.672 3.918 1.122 5.25 1.793 1.278.643 2.13 1.294 2.408 1.842.335.658.116 1.799-.448 2.34-.294.28-.524.417-1.007.596-.342.126-.461.145-1.047.166-.363.013-.671.013-.684 0zm6.296-1.137c-.552-.206-.955-.525-1.198-.95-.191-.335-.363-.97-.43-1.592-.049-.455-.046-.604.02-1.028.112-.732.148-.831.323-.892.178-.063.315.009.47.245.055.084.196.227.315.317.307.235 1.21 1.13 1.632 1.618.592.684.756 1.153.56 1.597-.303.683-.97.953-1.692.685zm23.953 0c0-.01.037-.048.083-.084.075-.058.076-.057.018.018-.062.079-.1.104-.1.065zm6.607-.107c-.734-.142-1.49-.628-1.705-1.095-.175-.38-.083-1.105.184-1.464.128-.172.57-.475 1.035-.708.522-.263 1.652-.603 2.444-.737.723-.121 1.97-.278 3.223-.404.47-.048.546-.045.649.022.152.1.157.336.01.5-.059.064-.264.329-.456.589-1.192 1.606-2.53 2.725-3.767 3.147-.345.118-.504.144-.956.157a5.72 5.72 0 0 1-.661-.007zm-8.528-.324c0-.13.01-.178.02-.106.011.072.01.178 0 .236-.012.058-.02 0-.02-.13zm1.637-.413c.272-.28.5-.508.508-.508.034 0-.024.06-.495.52l-.507.495zm-1.11.339c-.017-.028-.02-.06-.008-.073.012-.013.035.01.05.05.032.083.004.098-.042.023zm-.58-.516c0-.065.01-.092.023-.06a.182.182 0 0 1 0 .119c-.013.032-.023.006-.023-.06zm.383-.661c0-.117.009-.165.02-.106a.672.672 0 0 1 0 .212c-.011.059-.02.01-.02-.106zm-.473-.118c0-.104.01-.14.021-.082a.511.511 0 0 1 0 .189c-.013.045-.022-.003-.021-.107zm2.796-.118c.127-.13.243-.236.256-.236.013 0-.081.106-.21.236-.127.13-.242.236-.255.236-.013 0 .08-.106.209-.236zm-2.8-.33c0-.065.01-.092.023-.06a.182.182 0 0 1 0 .119c-.013.032-.024.006-.024-.06zm3.673.076c0-.01.037-.047.082-.082.075-.059.077-.057.018.018-.062.078-.1.103-.1.064zm-3.155-.265c0-.065.011-.091.024-.059a.182.182 0 0 1 0 .118c-.013.032-.024.006-.024-.059zm2.777-.018c0-.01.037-.047.083-.082.075-.06.076-.057.018.017-.062.079-.1.104-.1.065zm.708-.141c0-.01.037-.047.083-.083.074-.059.076-.057.017.018-.061.078-.1.103-.1.065zm-.52-.095c0-.01.038-.047.084-.082.074-.06.076-.057.017.017-.061.079-.1.104-.1.065zm.19-.236c0-.01.037-.047.082-.082.075-.06.077-.057.018.017-.062.08-.1.104-.1.065zm.755-.189c0-.01.037-.047.082-.082.075-.059.077-.057.018.018-.061.078-.1.103-.1.064zm-.567-.047c0-.01.038-.047.083-.082.075-.059.077-.057.018.018-.062.078-.1.103-.1.064zm.756-.189c0-.01.037-.047.082-.082.075-.059.077-.057.018.018-.062.078-.1.103-.1.065zm-.567-.047c0-.01.037-.047.083-.082.075-.059.076-.057.018.018-.062.078-.1.103-.1.064zm.802-.236c0-.01.038-.047.083-.082.075-.059.077-.057.018.018-.062.078-.1.103-.1.064zm-.566-.047c0-.01.037-.047.083-.082.075-.06.076-.058.018.017-.062.079-.1.104-.1.065zm-8.01-.32c-.414-.207-1.2-.85-1.671-1.37-.498-.547-.849-1.004-1.584-2.063-.846-1.218-.84-1.233.548-1.444a6.811 6.811 0 0 1 1.873 0c.901.145 1.801.597 2.284 1.146.287.328.546.9.614 1.362.073.488.001 1.236-.148 1.553-.137.294-.434.601-.77.8-.381.225-.718.23-1.146.016zm8.765.131c0-.01.037-.047.083-.082.075-.059.076-.057.018.018-.062.078-.1.103-.1.064zm-.566-.047c0-.01.037-.047.083-.082.074-.06.076-.057.017.017-.061.079-.1.104-.1.065zm.802-.236c0-.01.037-.047.083-.082.075-.06.076-.057.018.017-.062.08-.1.104-.1.065zm-.566-.047c0-.01.037-.047.082-.083.075-.058.077-.057.018.018-.061.079-.1.104-.1.065zm.755-.189c0-.01.037-.047.083-.082.074-.06.076-.057.017.017-.061.08-.1.104-.1.065zm-.52-.094c0-.01.038-.047.083-.083.075-.058.077-.057.018.018-.061.079-.1.104-.1.065zm.756-.189c0-.01.037-.047.082-.083.075-.058.077-.057.018.018-.061.079-.1.104-.1.065zm.189-.236c0-.01.037-.047.082-.082.075-.06.077-.058.018.017-.062.079-.1.104-.1.065zm.424-.519c0-.01.038-.047.083-.083.075-.058.077-.057.018.018-.062.079-.1.104-.1.065zm.612-.702c.195-.208.238-.246.238-.21 0 .007-.101.108-.224.224l-.224.21zm.403-.46a.373.373 0 0 1 .109-.094c.013 0-.015.042-.062.094a.373.373 0 0 1-.109.094c-.013 0 .015-.042.062-.094zm6.29-.64c-1.736-.346-2.95-1.645-2.778-2.97.1-.76.77-1.315 1.844-1.527l.496-.098c.8-.16 2.635-.286 3.397-.233.234.016.733.044 1.11.062.376.017.726.044.778.058.158.044.26.165.26.307 0 .326-.684 1.77-1.153 2.438-.545.775-1.34 1.51-1.92 1.775-.544.249-1.352.323-2.034.188zM61.17 12.6c0-.09.01-.128.022-.083a.387.387 0 0 1 0 .166c-.012.045-.022.008-.022-.083zm-.526-.028c.002-.054.013-.066.029-.028.013.034.011.075-.004.09-.016.016-.027-.012-.025-.062zm.415-.338c-.059-.075-.057-.076.018-.018.045.036.082.073.082.083 0 .039-.038.014-.1-.065zm-.33-1.884c-.36-.073-.466-.112-.972-.358-.472-.23-1.027-.725-1.342-1.198-.346-.519-.795-1.43-.836-1.694a1.038 1.038 0 0 0-.145-.385c-.152-.205-.184-.687-.074-1.1.045-.168.099-.39.12-.495.114-.56.493-1.353.917-1.915.279-.37.814-.92 1.291-1.327C60.292 1.362 61.48.57 62.21.194c.468-.24.609-.239.719.008.06.134.219.983.286 1.52.012.104.042.317.066.472.04.269.1.88.187 1.935.058.695.061 2.817.006 3.33-.052.478-.092.665-.267 1.236-.2.656-.45 1.046-.87 1.363-.418.314-.99.418-1.607.292zm-8.843-2.045c-.163-.051-.543-.358-.797-.645-.254-.286-.586-.86-.901-1.555-.383-.844-.356-1.01.162-1.007.41 0 1.186.125 1.493.24.495.183.913.525 1.118.915.075.142.104.3.12.643.03.706-.089 1.098-.407 1.337-.14.104-.56.143-.788.072zm15.172-4.034c-.52-.074-.637-.125-.91-.392-.486-.475-.594-.908-.313-1.249.298-.362 1.144-.828 1.978-1.089 1.075-.336 1.195-.36 1.362-.28.2.097.261.336.228.886-.05.824-.23 1.315-.625 1.704-.254.25-.435.347-.8.426-.327.071-.382.07-.92-.006z" style="fill:#b6e16e;stroke-width:.557372"/>
  <path d="M50.734 79.334c-.11-.031-.107-.037.11-.229.23-.202.465-.305 1.326-.58 1.66-.532 3.47-1.538 5.073-2.82 1.197-.958 1.775-1.545 2.255-2.286.785-1.214.86-1.352.86-1.594 0-.453-.166-.44-1.434.115-.542.236-1.033.42-1.16.436-.285.033-.438-.041-.418-.204.013-.103.068-.136.44-.26 2.407-.809 3.973-2.555 4.5-5.019.254-1.193.35-3.753.179-4.79-.279-1.683-.664-2.493-2.142-4.502a64.312 64.312 0 0 0-1.214-1.585c-.341-.429-.692-.875-.78-.991-.417-.558-.77-.862-1.793-1.548-.325-.218-.682-.49-.793-.603-.11-.114-.26-.22-.33-.233a3.384 3.384 0 0 1-.325-.092c-.108-.036-.207-.055-.22-.041-.014.013.037.201.113.42.155.446.366 1.265.516 2.002.132.645.307 1.348.45 1.808.064.202.116.45.116.549 0 .1.054.37.12.6.232.801.821 1.744 1.805 2.886.711.826 1.026 1.255 1.306 1.778.097.182.195.354.219.383.026.032.006.084-.055.14-.132.118-.21.064-.453-.313-.485-.751-.78-1.133-1.22-1.577-.26-.262-.586-.608-.727-.77-.275-.317-.43-.374-.527-.192-.04.075-.04.172.003.389.06.314.337 1.499.446 1.917.303 1.154.486 2.546.488 3.704.001 1.02-.074 1.649-.326 2.714-.16.675-1.192 3.712-1.497 4.407-.771 1.752-1.878 3.087-3.053 3.68-.53.269-.993.373-1.629.37-1.404-.009-2.114-.487-2.382-1.604-.173-.722-.03-1.592.5-3.03.314-.858.274-1.036-.2-.884-.188.06-.38.076-.77.065-.483-.013-.545-.026-.887-.186-.693-.323-1.097-.894-1.31-1.85-.113-.505-.13-.984-.206-5.805-.044-2.764-.066-3.253-.168-3.641-.158-.602-.2-1.05-.172-1.792.124-3.162.073-5.79-.119-6.105-.093-.154-.286-.19-.473-.09-.181.097-.618 1.175-.743 1.836a11.584 11.584 0 0 0-.147 1.621c0 .211-.03.575-.065.809-.099.643-.074 1.386.06 1.817.273.88.324.944.765.944.15 0 .287.02.302.045.04.065-.097.313-.221.4-.183.128-.38.093-.58-.101-.222-.216-.55-.895-.569-1.18-.017-.254-.092-.353-.253-.335-.092.011-.153.073-.249.25-.07.13-.224.331-.342.447-.182.177-.215.195-.215.112 0-.053.085-.222.188-.375.128-.189.19-.33.19-.437 0-.116.044-.21.163-.34.244-.272.287-.48.43-2.096.011-.13.031-.332.044-.449l.05-.448c.064-.598.206-1.328.395-2.04.114-.43.09-.555-.116-.607-.152-.038-.45.138-.738.437-.288.298-.407.515-.56 1.022l-.125.417-.085-.222c-.128-.336-.114-.528.06-.798.263-.406.179-.545-.33-.545-.197 0-.266-.024-.4-.142-.088-.077-.189-.141-.224-.141s-.087-.03-.117-.065c-.045-.054.08-.064.785-.06 1.058.006 1.286-.05 1.611-.404.199-.216.23-.233.383-.208.157.025.179.01.402-.257.31-.373.371-.517.277-.651-.039-.056-.096-.101-.127-.1-.052 0-.307.187-.6.439-.944.81-1.123.904-1.735.9-.485-.004-.586-.047-.432-.187.08-.071.178-.09.485-.095.468-.008.568-.046.89-.336.632-.57 1.501-1.224 2.651-1.993.732-.49.882-.565 1.052-.532.065.012.272.163.46.334.677.62 1.592 1.39 2.34 1.968.673.519.756.591 1.362 1.176.486.47 1.177 1.29 1.56 1.852.433.635.738 1.343.97 2.254.06.233.166.584.236.778.194.543.29.953.263 1.108-.034.184-.219.285-.355.194-.106-.07-.118-.11-.265-.877-.18-.942-.63-2.15-.845-2.265-.245-.132-.43.044-.63.599a6.317 6.317 0 0 0-.385 1.817c-.035.457-.159.88-.386 1.318-.243.47-.386.594-.524.456-.088-.087-.07-.182.104-.536.33-.67.474-1.297.464-2.017-.005-.394-.053-.505-.221-.505-.182 0-.33.217-.663.968l-.125.283-.068-.159a.869.869 0 0 1 .01-.681c.043-.083.19-.272.327-.42.664-.72.884-1.12.999-1.809.064-.383.066-.508.015-.848-.05-.336-.086-.436-.228-.625a7.027 7.027 0 0 0-1.921-1.746c-.434-.267-1.467-.686-1.9-.77-.732-.141-1.002.021-1.182.711-.136.522-.195 1.304-.149 1.982.082 1.194.139 2.751.162 4.38.014.943.035 1.792.048 1.888.014.095.046.492.072.881.16 2.368.15 2.287.336 2.387.074.04.387.054 1.031.048 1.021-.01 1.18.018 1.18.207 0 .366-.584.47-1.822.325-.219-.025-.254-.016-.394.11l-.154.137.008 3.088c.004 1.797.027 3.175.054 3.294.148.66.706 1.127 1.407 1.175.525.036 1.04-.231 1.258-.654.12-.233.117-.709-.007-.876-.256-.345-.672-.452-.895-.23-.166.167-.15.348.051.572.223.249.25.373.116.517a.76.76 0 0 1-.267.167c-.238.078-.564-.093-.722-.38-.105-.19-.117-.268-.118-.732-.001-1.08.257-1.357 1.131-1.217.864.138.888.137 1.03-.031.187-.223.184-.383-.016-.734-.074-.13-.221-.32-.326-.422-.107-.104-.192-.232-.192-.288 0-.129.14-.257.281-.257.147 0 .391.268.474.52.09.27.262.47.403.47.062 0 .222-.042.356-.095.134-.053.254-.087.265-.075.05.05-.109.26-.395.525-.397.365-.413.446-.264 1.297.164.94.131.853.298.795.078-.027.238-.16.354-.295.262-.303.63-.531.974-.603.248-.052.277-.048.531.077.298.145.456.33.689.809.187.384.496.726.85.942.29.175.401.31.356.426-.055.144-.27.075-.73-.234-.278-.188-.413-.22-.362-.088.164.423.132.682-.17 1.404-.213.509-.301.565-.466.295-.129-.212-.12-.497.022-.749.208-.365.202-.938-.009-.938-.114 0-.809.568-1.218.997-.276.288-.368.427-.534.808a4.985 4.985 0 0 0-.288.912c-.103.536-.288.885-.479.907-.18.021-.253-.092-.168-.258.065-.128.182-.504.407-1.311.058-.207.149-.462.202-.567.235-.463.742-1.11 1.268-1.621.617-.599.753-.814.658-1.042-.084-.204-.21-.297-.401-.297-.21 0-.393.131-.893.64-.973.988-1.56 1.975-1.857 3.12-.147.568-.18 1.546-.063 1.912.157.491.498.855 1.031 1.1.184.084.31.102.718.101.43 0 .536-.017.796-.125.589-.246 1.045-.56 1.563-1.076.438-.436.55-.583.93-1.227.606-1.025.958-1.737 1.154-2.336.444-1.354.333-2.068-.41-2.63-.228-.173-.566-.335-2.683-1.29-1.373-.62-1.534-.779-1.576-1.563-.028-.517.058-.691.574-1.161.624-.568 1.183-.79 1.98-.787 1.12.005 1.955.567 2.09 1.408.076.481-.209 1.032-.648 1.25-.428.214-.818.13-1.122-.238-.248-.3-.252-.603-.014-.87l.131-.147.09.206c.122.284.252.419.403.419.157 0 .422-.174.513-.338.147-.262-.19-.792-.645-1.016-.247-.121-.316-.133-.79-.133-.85 0-1.307.226-1.536.762-.222.516-.071.913.528 1.394.4.322.755.49 1.375.65.815.211 1.412.456 1.86.763.361.248.457.18.697-.49.377-1.058.53-2.102.48-3.291-.047-1.147-.127-1.593-.603-3.35a16.3 16.3 0 0 1-.316-1.298c-.138-.677-.144-.727-.196-1.816-.026-.542-.079-1.122-.117-1.289-.094-.404-.332-1.05-.678-1.834-.26-.591-.381-.931-.663-1.865-.272-.901-.848-1.607-2.138-2.621-.83-.654-.904-.7-1.65-1.023-.946-.41-1.224-.559-1.63-.867-.672-.51-.973-.62-1.69-.623-.694-.002-.84.05-2.704.972-2.177 1.077-3.68 1.743-4.633 2.055-1.142.373-2.365.383-4.271.034a40.253 40.253 0 0 1-3.067-.703c-.97-.263-1.34-.362-2.03-.54-.389-.101-.92-.24-1.18-.31-.606-.162-2.327-.73-3.326-1.098-.429-.157-1.017-.372-1.307-.476a9.002 9.002 0 0 1-.718-.287c-.207-.106-.431-.125-.573-.048-.127.067-.234.293-.234.493 0 .504.766 1.472 1.605 2.03.363.241 1.218.671 1.641.825.341.124.419.218.31.375-.1.141-.273.108-.882-.172-.397-.182-.482-.205-.58-.161-.134.061-.206.226-.206.472 0 .24-.092.359-.25.32-.147-.038-.175-.115-.2-.563-.03-.58-.17-.804-.747-1.203a1.448 1.448 0 0 1-.35-.364c-.071-.116-.147-.211-.17-.212-.023 0-.026.109-.007.246.02.137.043.421.052.633.016.358.006.407-.135.684-.16.317-.291.397-.412.25-.052-.062-.053-.104-.006-.226.201-.511.045-1.488-.375-2.347-.442-.904-.84-1.337-1.19-1.291-.958.124-1.31.228-2.025.598-1.228.637-2.782 2.123-3.706 3.544-.518.796-1.175 2.17-1.471 3.075-.185.564-.226.637-.353.637a.526.526 0 0 1-.264-.125c-.194-.163-.182-.206.29-1.031.407-.715 1.3-2.493 1.324-2.637.018-.114-.107-.193-.25-.156-.138.035-1.167.715-1.786 1.18-1.083.813-2.086 2.033-2.361 2.872-.213.648-.06 1.107.717 2.154l.951 1.282c1.12 1.51 2.13 2.705 2.521 2.985.96.685 2.188 1.222 3.313 1.449.863.173 1.179.196 1.686.121.317-.047.343.01.18.393-.197.47-.173.625.195 1.246.173.292.443.698.601.901.158.204.452.597.652.873.695.956.793 1.079 1.134 1.406.584.563 1.159.93 2.017 1.292.319.133.563.271.684.386l.19.177-.213.007a5.224 5.224 0 0 1-.354-.003c-.204-.012-1.61-.66-1.99-.917-1.39-.94-2.006-1.608-2.965-3.213-.313-.523-.986-1.527-1.144-1.705-.103-.116-.31-.214-.98-.465-1.745-.654-2.952-1.212-3.657-1.693-.654-.445-2.025-1.941-2.688-2.933-.313-.468-.468-.552-.652-.354-.109.116-.097.35.032.683.051.13.17.492.265.804.094.311.19.62.213.684.085.242.416 1.406.51 1.793.25 1.04.31 1.448.385 2.62.029.443.08 1.054.112 1.36.08.736.06 1.659-.044 2.108-.057.247-.083.574-.087 1.085-.006.819-.044.96-.25.935a.37.37 0 0 1-.213-.136c-.11-.149-.12-.42-.037-1.2.073-.693.075-3.033.004-4.011-.029-.39-.063-.867-.076-1.062-.048-.723-.181-1.53-.272-1.642-.027-.034-.113-.055-.192-.047-.122.012-.154.046-.233.25-.388 1.01-.523 1.296-.687 1.454-.192.186-.256.209-.442.16-.12-.032-.231-.166-.255-.307-.006-.034.083-.198.197-.364.609-.89.835-1.714.803-2.925-.022-.795-.113-1.238-.359-1.734-.185-.374-.27-.464-.62-.65a2.904 2.904 0 0 1-.432-.28c-.343-.298-.452-.303-.817-.036-.152.112-.892.509-1.645.882-1.256.624-1.39.68-1.628.681-.166 0-.328-.032-.448-.092-.158-.078-.189-.117-.189-.234 0-.134.012-.143.236-.173.42-.055 1.781-.576 2.513-.962.733-.386 1.171-.7 1.642-1.173.519-.523.78-.934 1.199-1.886.484-1.103.856-1.604 2.042-2.748.906-.874 1.567-1.373 2.62-1.977.542-.311 1.053-.809 1.16-1.13.1-.295.1-.423-.006-.739-.289-.87-1.304-2.093-2.91-3.504-1.146-1.007-1.173-1.035-1.173-1.206 0-.09.04-.19.097-.25.137-.136.308-.083.442.14.296.487.927 1.193 1.236 1.381.43.263.69-.059.693-.86.001-.353.086-.47.312-.426.206.04.26.18.187.492-.056.236-.053.33.023.765.224 1.294.59 1.943 1.444 2.557.374.27.663.395 1.029.447.517.073.754.003 1.38-.407.516-.338 1.077-.644 1.407-.767.38-.142 1.157-.252 1.888-.266.793-.016 1.258.038 1.793.207.156.049.45.103.653.12.38.03 1.107.242 1.589.463 2.018.927 4.057 1.588 5.71 1.85l.421.072c.65.117 1.156 0 1.433-.328.111-.132.128-.193.128-.469 0-.426-.099-.776-.35-1.244a6.717 6.717 0 0 1-.35-.792c-.207-.596-.377-.986-.539-1.241-.13-.206-.137-.235-.07-.301.187-.187.506-.004.718.41.144.283.261.38.493.411.22.03.229.061.098.368a1.35 1.35 0 0 0-.095.473c0 .496.35 1.324.72 1.709.24.248.3.244.548-.037.29-.33.306-.36.335-.635.022-.2.041-.238.133-.251.153-.022.435.268.435.448 0 .166-.065.264-.493.747-.7.79-.792.915-.763 1.033.059.235.29.384.868.56 1.123.343 1.812.353 2.481.034.285-.135 1.71-1.112 2.65-1.817 1.233-.924 2.382-1.991 3.098-2.878.904-1.119 1.783-2.812 2.205-4.248.124-.424.202-.735.201-.8 0-.013.02-.092.044-.177a8.61 8.61 0 0 0 .125-.65c.112-.69.11-2.686-.003-3.231-.098-.473-.333-.965-.617-1.294-.275-.317-.358-.475-.358-.684 0-.23.066-.38.281-.634.377-.448.473-.847.36-1.5-.407-2.342-1.66-4.172-3.838-5.602a27.372 27.372 0 0 0-1.144-.694c-1.398-.8-2.947-1.677-3.776-2.135a371.66 371.66 0 0 0-3.067-1.686c-.636-.345-1.193-.66-1.239-.699-.192-.166-.036-.462.22-.42.17.027 1.434.625 1.986.939 1.817 1.03 6.224 3.304 7.598 3.919 2.484 1.111 3.705 1.5 4.814 1.529.539.014.667.002 1.059-.103a4.063 4.063 0 0 0 1.507-.779c.172-.144.44-.355.595-.469.523-.382 1.614-1.553 2.31-2.478.814-1.084 1.36-2.042 1.963-3.445a5.41 5.41 0 0 1 .253-.538c.067-.086.06-.876-.011-1.303a8.8 8.8 0 0 1-.077-.846c-.022-.504-.018-.529.167-1.085.104-.314.213-.617.242-.675.112-.224.415-.167.415.077 0 .074-.064.328-.142.565-.24.727-.28 1.921-.086 2.5.089.263.264.479.389.479.176 0 .433-.222 1.235-1.066.972-1.023 1.101-1.168 1.58-1.766.217-.272.646-.8.953-1.172.766-.93.955-1.231 1.168-1.86l.124-.365-.13-.522c-.146-.582-.131-.728.08-.78.23-.059.296.076.328.665.039.71.045.731.203.731.142 0 .282-.128.483-.438.126-.194.29-.266.399-.175.126.105.075.21-.298.615-.391.423-2.91 3.49-3.39 4.127l-.615.826c-.182.247-.605.82-.942 1.274-.336.454-.674.914-.75 1.022-.988 1.386-1.315 1.855-1.756 2.518-.898 1.35-1.854 3.008-2.326 4.034-.399.868-.484 1.65-.224 2.043.07.107.224.25.341.318.369.216.637.263 1.512.263.925 0 1.254-.038 2.536-.292a56.55 56.55 0 0 0 1.392-.299c.383-.088.803-.173.933-.188 1.11-.13 1.47-.182 1.754-.257.286-.075.35-.077.51-.022.237.082.363.198.345.318-.015.103-.072.123-.627.218-.48.083-1.22.254-2.03.468l-.802.213a37.27 37.27 0 0 1-1.793.4c-1.285.214-2.3.606-3.148 1.216-.454.327-1.177 1.073-1.478 1.526-.647.974-1.155 2.268-1.433 3.655-.149.74-.17 1.004-.17 2.124 0 1.022.015 1.265.11 1.817.247 1.434.574 2.428 1.401 4.27.805 1.79 1.075 2.253 1.695 2.896.445.462.65.621 1.444 1.118.324.202.747.484.942.626.425.312 1.688 1.575 2.676 2.677.395.44.767.853.827.918 1.411 1.526 2.66 3.371 3.317 4.908.802 1.872 1.215 4.586 1.01 6.63l-.066.66a5.227 5.227 0 0 1-.049.378c-.01.052-.032.18-.046.284-.145 1.05-.676 2.862-1.176 4.01-.515 1.184-.982 2.058-1.273 2.384-.058.065-.194.303-.304.528-.18.373-.283.5-1.111 1.37-1.583 1.666-2.704 2.56-4.289 3.425a18.01 18.01 0 0 1-2.064.908c-.347.118-1.288.376-1.53.42-.308.055-.419.057-.59.009zM35.16 73.928c-.14-.169.014-.585.416-1.13.268-.361.33-.568.233-.769-.056-.117-.088-.133-.252-.125-1.021.049-1.533-.03-2.123-.323a3.11 3.11 0 0 1-1.6-2.025c-.087-.363-.105-1.852-.026-2.267.027-.14.059-.313.071-.384.013-.072.069-.25.124-.399.365-.975 1.137-1.693 2.187-2.035.354-.116 1.421-.11 1.77.01.704.242 1.314.719 1.596 1.247.739 1.388.665 3.796-.15 4.908-.09.123-.337.38-.548.57-.598.542-.642.714-.332 1.303.104.197.189.368.189.381 0 .013-.044 0-.097-.028a.595.595 0 0 0-.27-.037c-.216.018-.292.148-.293.497-.001.286-.064.348-.45.44-.13.032-.269.098-.31.149-.066.083-.079.084-.135.017zm.446-2.627c.667-.242 1.08-.71 1.276-1.446.296-1.117.314-2.37.045-3.281-.185-.63-.694-1.25-1.26-1.537-.552-.28-.894-.24-1.168.137-.193.268-.202.558-.02.701.24.189.398.116.542-.25.09-.226.216-.27.35-.123.192.213.04.788-.254.96-.63.366-1.329.01-1.519-.772a1.336 1.336 0 0 0-.099-.303c-.058-.067-.347.183-.487.421-.328.56-.451 1.34-.36 2.278.176 1.816.796 2.914 1.844 3.266.288.097.761.075 1.11-.051zm-7.323 1.777a3.86 3.86 0 0 1-.59-1.064c-.11-.348-.143-1.116-.078-1.888.092-1.1.18-2.554.18-2.946-.002-.634-.135-1.518-.272-1.797-.133-.273-.244-.354-.484-.354-.44 0-.593.289-.348.658.154.233.137.352-.054.37-.207.021-.523-.222-.644-.494-.189-.428.017-1.001.422-1.175.242-.104.655-.135.91-.068.168.044.277.126.541.406.42.446.473.45.905.066.414-.366.717-.486 1.172-.461.379.02.592.11.89.373.406.357.636.936.543 1.368-.135.633-.86 1.158-1.452 1.052-.3-.054-.654-.248-.757-.416-.217-.35-.165-.67.16-.995.205-.205.367-.269.53-.208.133.049.16.15.082.302-.144.277-.02.496.28.496.187 0 .436-.267.477-.512.055-.32-.166-.705-.48-.839-.651-.277-1.514.373-1.717 1.295-.035.157-.028 1.096.025 3.218.04 1.648.085 3.113.099 3.256.025.261-.037.469-.151.506-.03.01-.115-.057-.189-.149zm12.891-1.116a3.286 3.286 0 0 1-1.853-.927c-.244-.244-.35-.401-.53-.784-.66-1.404-.615-2.9.127-4.338.364-.706.904-1.157 1.713-1.433.212-.072.394-.087.991-.085.664.004.764.015 1.078.127.97.344 1.564 1.015 1.853 2.092.085.315.103.53.115 1.388.015 1.05-.011 1.267-.226 1.875-.222.627-.965 1.5-1.526 1.794a3 3 0 0 1-1.742.291zm1.249-.646c.755-.355 1.162-1.159 1.326-2.62.106-.94-.08-2.127-.425-2.719-.57-.977-1.833-1.43-2.22-.797-.187.307-.063.794.203.792.145-.001.195-.044.306-.262.15-.295.223-.339.377-.224.174.13.19.389.042.676-.164.318-.353.424-.75.424-.36 0-.46-.036-.685-.25-.222-.21-.314-.53-.283-.984.014-.204.01-.37-.008-.37-.065 0-.414.366-.561.59-.337.508-.478 1.128-.475 2.096.003 1.057.112 1.653.42 2.292.375.78 1.058 1.372 1.72 1.492.3.053.732-.004 1.013-.136z" style="fill:#916c4a;stroke-width:.557372"/>
</svg>
