<?xml version="1.0" encoding="UTF-8" standalone="no"?>
<!-- Created with Inkscape (http://www.inkscape.org/) -->

<svg
   width="500"
   height="130"
   viewBox="0 0 132.29166 34.395833"
   version="1.1"
   id="svg1"
   xml:space="preserve"
   inkscape:version="1.4 (86a8ad7, 2024-10-11)"
   sodipodi:docname="ohmsas.svg"
   xmlns:inkscape="http://www.inkscape.org/namespaces/inkscape"
   xmlns:sodipodi="http://sodipodi.sourceforge.net/DTD/sodipodi-0.dtd"
   xmlns="http://www.w3.org/2000/svg"
   xmlns:svg="http://www.w3.org/2000/svg"><sodipodi:namedview
     id="namedview1"
     pagecolor="#ffffff"
     bordercolor="#111111"
     borderopacity="1"
     inkscape:showpageshadow="0"
     inkscape:pageopacity="0"
     inkscape:pagecheckerboard="1"
     inkscape:deskcolor="#d1d1d1"
     inkscape:document-units="px"
     inkscape:zoom="2.2223866"
     inkscape:cx="219.35877"
     inkscape:cy="93.14311"
     inkscape:window-width="1920"
     inkscape:window-height="1115"
     inkscape:window-x="-9"
     inkscape:window-y="-9"
     inkscape:window-maximized="1"
     inkscape:current-layer="layer1" /><defs
     id="defs1" /><g
     inkscape:label="Layer 1"
     inkscape:groupmode="layer"
     id="layer1"><path
       id="path279"
       style="fill:#023276;fill-opacity:1"
       d="m 84.167008,0.8072284 -0.825273,0.41806 c -0.453722,0.23012 -0.84186,0.4443399 -0.86248,0.4759399 -0.02062,0.03165 -0.02062,1.94269 0,4.24625 l 0.03772,4.1883797 0.176217,0.35812 c 0.206683,0.41973 0.540705,0.69808 0.95343,0.79478 0.524224,0.12282 2.106296,0.0605 2.255676,-0.08888 0.01515,-0.01515 -0.06522,-0.32088 -0.1788,-0.67955 l -0.206706,-0.6521497 -0.392224,0.04857 c -0.937984,0.1157297 -0.876577,0.4315497 -0.920357,-4.70772 z m 25.825802,0.50643 c -0.19754,0.00147 -0.40075,0.04661 -0.58911,0.14108 -0.64814,0.3250499 -0.58634,1.4642999 0.0899,1.6593299 1.07036,0.30869 1.9189,-0.37963 1.51567,-1.22939 -0.17322,-0.3650199 -0.58187,-0.5742599 -1.01648,-0.5710199 z M 48.13975,3.7837883 c -0.421815,0.01113 -0.870946,0.09994 -1.338419,0.27337 -2.893155,1.07332 -2.618693,6.5266797 0.362768,7.2057597 0.966051,0.22003 2.360655,0.06315 3.211691,-0.36122 0.439809,-0.21931 0.439964,-0.23738 0.01137,-0.82527 -0.203394,-0.2789897 -0.380414,-0.5383097 -0.393774,-0.5767097 -0.01336,-0.03836 -0.242426,0.03818 -0.509013,0.17053 -1.33342,0.6619697 -2.589418,0.14159 -2.811714,-1.1653 l -0.04806,-0.28112 h 2.32854 2.328023 l -0.001,-0.80615 c -0.0037,-2.27407 -1.31251,-3.6821 -3.140377,-3.63389 z m -7.3241,0.03514 c -0.56285,0.00938 -1.131873,0.20891 -1.632975,0.62787 -0.286346,0.2394 -0.337626,0.22495 -0.364836,-0.10387 l -0.02325,-0.28164 H 37.969833 37.14456 l -0.01654,4.7625 c -0.0092,2.6192197 -0.0022,4.8044397 0.01602,4.8560397 0.02396,0.0676 0.273999,0.09353 0.898136,0.09353 h 0.865063 v -1.42162 -1.42161 l 0.487826,0.18396 c 2.90571,1.0937 5.118153,-1.4644297 4.246769,-4.9102897 -0.380874,-1.50615 -1.587914,-2.4055 -2.826184,-2.38487 z m 64.16093,0.05013 c -0.60883,-0.00186 -1.28821,0.21277 -1.9482,0.65371 -0.46765,0.31244 -0.48858,0.31899 -0.50798,0.15709 -0.0111,-0.09282 -0.0377,-0.27884 -0.0594,-0.41289 l -0.0398,-0.2434 h -0.78394 -0.78393 v 3.56206 l -5.1e-4,3.5625697 h 0.86248 0.86248 V 8.7581683 c 0,-2.79204 -0.0625,-2.57751 0.90123,-3.07165 1.61604,-0.82858 1.79886,-0.52932 1.79886,2.94194 v 2.5197397 h 0.89968 0.90021 l -0.002,-2.4189697 c -0.002,-2.60949 -0.0593,-3.33813 -0.29507,-3.80029 -0.35573,-0.69728 -1.02125,-1.05749 -1.80403,-1.05988 z m -48.216167,0.00517 c -0.664553,-0.00554 -1.410859,0.23817 -2.102198,0.73897 -0.432865,0.31357 -0.466882,0.30106 -0.438732,-0.15865 l 0.02429,-0.39326 -0.804085,-0.0217 -0.804085,-0.02119 -0.02067,3.47111 c -0.01155,1.90908 -0.009,3.5130397 0.0057,3.5646397 v 5.2e-4 c 0.0194,0.0679 0.261242,0.09353 0.877466,0.09353 h 0.850594 l 0.02222,-2.4716797 c 0.02591,-2.83976 -0.08028,-2.48824 0.910021,-2.99982 0.761827,-0.39353 1.067886,-0.40324 1.457276,-0.04651 l 0.280086,0.25632 0.02274,2.63084 0.02222,2.6308497 h 0.896586 0.896069 l -5.36e-4,-2.3435297 c -6.7e-4,-2.7601 -0.0596,-3.43358 -0.347782,-3.96306 -0.345344,-0.63451 -0.994021,-0.9611 -1.74718,-0.96738 z m 7.778853,0.00206 c -0.631901,0.00986 -1.316234,0.22952 -1.896008,0.66353 -0.602565,0.45112 -0.575404,0.4528 -0.548804,-0.04031 l 0.02377,-0.43873 h -0.824756 -0.825272 l -0.01964,3.54397 -0.01912,3.5434497 h 0.90072 0.900721 V 8.7137183 c 0,-2.8252 -0.0883,-2.53626 0.927075,-3.04477 1.566869,-0.78471 1.764501,-0.43538 1.769401,3.13521 l 0.0031,2.3440397 h 0.904855 0.905371 l -0.03152,-2.7186997 c -0.03415,-2.9627 -0.06334,-3.20635 -0.453719,-3.7853 -0.351375,-0.5211 -1.00002,-0.77908 -1.716174,-0.76791 z m 50.683204,0.00259 c -1.55713,-0.01223 -3.02978,0.44947 -2.39934,1.20406 0.14497,0.17352 0.31322,0.4113 0.37362,0.52813 0.13157,0.25445 0.17553,0.25945 0.4377,0.05323 1.07807,-0.84801 2.94747,-0.55683 3.08974,0.48111 0.0577,0.42115 0.14218,0.38619 -1.1865,0.49557 -1.59033,0.13092 -2.47135,0.49172 -2.91868,1.19579 -0.78162,1.23025 -0.22273,2.9523597 1.11259,3.4287397 0.68138,0.24309 1.62518,0.09721 2.42983,-0.37569 0.61894,-0.36383 0.66611,-0.36425 0.66611,-0.0041 0,0.33371 -0.006,0.33187 0.88677,0.28267 l 0.77101,-0.04237 -0.0269,-2.7827797 c -0.0307,-3.14212 -0.0351,-3.17034 -0.56741,-3.71553 -0.49826,-0.51029 -1.60317,-0.74043 -2.66857,-0.74879 z m -19.189005,0.00155 c -1.584903,2e-5 -3.140529,0.48535 -2.504755,1.18907 0.146561,0.16223 0.319729,0.39831 0.384989,0.52452 0.131212,0.25373 0.270817,0.29039 0.419613,0.1111 0.29839,-0.35954 1.307977,-0.59281 2.087213,-0.48266 0.70055,0.09902 0.90453,0.29616 1.02578,0.99374 0.0592,0.34062 0.12475,0.3171 -1.16789,0.42427 -2.013163,0.16691 -2.887594,0.65257 -3.191022,1.77353 -0.328255,1.21267 0.267999,2.5230897 1.291394,2.8375497 0.818766,0.25155 1.702968,0.12031 2.499068,-0.37052 0.64808,-0.39958 0.67593,-0.40274 0.67593,-0.07958 0,0.35832 0.0969,0.39927 0.89969,0.37827 l 0.71262,-0.0186 v -2.8055097 -2.80552 l -0.22531,-0.43718 c -0.12374,-0.24041 -0.34415,-0.53315 -0.48989,-0.65061 -0.50498,-0.40699 -1.46649,-0.58189 -2.41743,-0.58187 z m -25.479063,0.01395 c -0.394536,0.00343 -0.764408,0.05683 -1.062467,0.17673 -2.577351,1.03679 -1.890942,3.55696 1.193209,4.38113 1.327705,0.3548 1.554851,0.55838 1.284676,1.15135 -0.272196,0.5973797 -1.840642,0.5751597 -2.615344,-0.03721 -0.210365,-0.16628 -0.405869,-0.29151 -0.434599,-0.27801 -0.299122,0.14025 -1.064535,0.70026 -1.064535,0.7787597 0,0.3589 1.157298,1.09984 1.916162,1.2268 2.65232,0.44374 4.48326,-0.91838 3.89537,-2.8980197 -0.228018,-0.76782 -0.799503,-1.13002 -2.586922,-1.63814 -1.260468,-0.35833 -1.453086,-0.51134 -1.318266,-1.04851 0.163423,-0.65111 1.690167,-0.67374 2.416907,-0.03566 0.308899,0.27123 0.332784,0.27317 0.60203,0.04806 0.116595,-0.09748 0.355415,-0.25 0.530717,-0.339 1.131825,-0.57443 -1.04728,-1.50314 -2.756938,-1.48828 z m 10.945068,0.12506 -0.870748,0.02067 c -0.683094,0.01656 -0.882998,0.04554 -0.928108,0.13384 -0.03163,0.06187 -0.402723,1.04076 -0.824756,2.17506 -0.89391,2.4026 -0.889492,2.39244 -0.978752,2.23294 -0.09208,-0.16454 -1.54569,-4.03297 -1.60662,-4.27571 -0.06711,-0.26699 -0.203534,-0.30037 -1.128096,-0.27027 -0.885881,0.02879 -0.880998,0.02382 -0.594279,0.58963 0.10361,0.20446 0.665333,1.57856 1.247985,3.05356 0.582652,1.475 1.110349,2.8080897 1.172539,2.9620897 0.143445,0.35525 -0.172337,1.07106 -0.67076,1.52136 l -0.310576,0.2806 -0.607198,-0.04806 c -0.334161,-0.0264 -0.691656,-0.05614 -0.794267,-0.06614 -0.167398,-0.01627 -0.203491,0.03183 -0.349849,0.46922 -0.241999,0.72321 -0.231203,0.80928 0.10542,0.86558 0.154678,0.0259 0.314801,0.05986 0.356051,0.07596 1.756223,0.68423 3.13799,-0.37727 4.265889,-3.27783 0.342342,-0.8803797 1.002977,-2.5627297 1.468127,-3.7382797 0.46515,-1.17556 0.891033,-2.26507 0.946713,-2.42104 z m 26.54773,5.1e-4 0.0217,0.65784 0.0217,0.65785 h 0.54364 0.54364 v 2.85615 c 0,1.57084 0.0226,2.8787797 0.0501,2.9062797 0.0275,0.0275 0.43285,0.05013 0.90072,0.05013 h 0.8506 l -0.0196,-3.5434497 -0.0196,-3.54397 -1.44642,-0.02016 z m -21.536149,0.00362 c -0.822072,0 -0.895743,0.01132 -0.858863,0.13126 0.196139,0.63783 2.636058,6.9684897 2.702678,7.0124897 0.04783,0.0316 0.154178,0.04075 0.236678,0.02015 0.08249,-0.0206 0.361436,-0.03768 0.620117,-0.03824 0.416265,-9.1e-4 0.478869,-0.02067 0.541569,-0.17001 0.03897,-0.09281 0.529281,-1.3836497 1.089856,-2.8685597 0.560575,-1.48491 1.132289,-2.98665 1.270206,-3.33726 0.310289,-0.78882 0.352181,-0.74144 -0.647505,-0.72554 l -0.836125,0.01292 -0.756543,2.26291 c -0.416176,1.24443 -0.778182,2.28415 -0.804602,2.31045 -0.06267,0.06237 -0.357442,-0.72428 -1.074353,-2.86701 l -0.583427,-1.74356 z m -38.292752,1.1219 c 0.685001,0.01595 1.336468,0.5462 1.337902,1.52187 v 0.28163 h -1.420068 c -1.609075,0 -1.560262,0.02066 -1.386995,-0.59686 0.234133,-0.83444 0.864748,-1.22072 1.469161,-1.20664 z m -7.702372,0.05736 c 0.611453,0.01436 1.081742,0.38423 1.264005,1.05265 0.390383,1.43166 0.100745,3.125 -0.615466,3.59926 -0.389686,0.2580497 -1.26816,0.2231997 -1.976107,-0.07855 l -0.28112,-0.11989 v -1.87895 c 0,-2.14568 -0.03229,-2.03693 0.70125,-2.36833 0.322626,-0.14576 0.629504,-0.21272 0.907438,-0.20619 z m 56.663728,2.53008 c 0.31418,-0.00158 0.27873,0.16756 0.27078,0.78599 -0.0109,0.84501 0.0193,0.79632 -0.74311,1.20716 -1.053893,0.5679097 -1.928562,0.24984 -1.928562,-0.70073 0,-0.72869 0.42891,-1.03066 1.720312,-1.21078 0.32261,-0.04499 0.53777,-0.08093 0.68058,-0.08164 z m 18.876875,0.05891 c 1.13309,0.00731 1.15329,1.34933 -0.0951,1.9606 -1.06396,0.5209697 -1.8712,0.22096 -1.8712,-0.69505 0,-0.79525 0.36163,-1.05712 1.72496,-1.2485 0.0854,-0.01199 0.16579,-0.01754 0.24133,-0.01705 z m 12.52533,7.9710897 c -0.8404,-0.01465 -1.8648,0.48248 -2.11822,1.33583 -0.446,1.50186 0.14897,2.95226 1.3131,3.20084 0.83705,0.17873 1.87482,-0.09035 1.87482,-0.48628 0,-0.27337 -0.12026,-0.29702 -0.54829,-0.10748 -1.29905,0.57526 -2.17964,-0.09478 -2.17764,-1.65778 0.002,-1.6904 1.18306,-2.36216 2.42517,-1.37925 0.3486,0.27585 0.45531,0.24689 0.39171,-0.10645 -0.0971,-0.5396 -0.58564,-0.78941 -1.16065,-0.79943 z m -49.85483,5.1e-4 c -0.24236,0.0023 -0.504624,0.04118 -0.784448,0.11886 -1.633658,0.45353 -1.585349,3.84674 0.06253,4.38784 1.324286,0.43484 2.460178,-0.29925 2.591573,-1.67483 0.170907,-1.78923 -0.56091,-2.84441 -1.869653,-2.83187 z m -29.214237,0.02481 c -0.310927,0.01835 -0.613082,0.80743 -1.121895,2.26963 -0.390052,1.1209 -0.709517,2.08318 -0.709517,2.13888 0,0.1072 0.281782,0.13673 0.419612,0.04393 0.04499,-0.0303 0.16849,-0.30819 0.274402,-0.61754 l 0.192236,-0.56275 0.936377,-0.02067 0.936377,-0.02067 0.165365,0.5457 c 0.198433,0.65559 0.255175,0.73329 0.534851,0.73329 0.267825,0 0.273358,0.06641 -0.0863,-1.03921 -0.778373,-2.39278 -1.166251,-3.49275 -1.541508,-3.47059 z m 61.193677,0.01447 c -0.52769,0.0026 -1.06548,0.17246 -1.32861,0.53381 -0.62407,0.85706 -0.13386,1.5431 1.41232,1.97663 0.724,0.203 1.01234,0.41621 1.01234,0.74827 0,0.86705 -1.20553,1.1332 -2.02623,0.44752 -0.34198,-0.28572 -0.55579,-0.33068 -0.63149,-0.13333 -0.10258,0.26733 0.40933,0.73332 0.98289,0.89452 1.19615,0.33617 2.19986,-0.23205 2.19986,-1.24488 0,-0.73836 -0.32907,-0.98032 -1.83709,-1.35134 -0.66809,-0.16437 -0.95515,-0.4979 -0.79375,-0.92242 0.23164,-0.60921 1.18588,-0.65402 2.00918,-0.09457 0.37096,0.25207 0.41,0.24303 0.3824,-0.08734 -0.0415,-0.49725 -0.70338,-0.77027 -1.38182,-0.76687 z m 24.84706,5.1e-4 c -0.54983,0.0015 -1.10643,0.17516 -1.3255,0.53434 -0.56588,0.92777 -0.22336,1.45609 1.25263,1.93218 1.22238,0.39429 1.30799,0.48952 1.06557,1.18494 -0.19818,0.56848 -1.29459,0.59904 -1.94665,0.05426 -0.3592,-0.3001 -0.59841,-0.3416 -0.59841,-0.10387 0,0.39381 0.48714,0.7834 1.11776,0.894 0.95133,0.16684 1.69709,-0.13295 1.86655,-0.75086 l 0.0718,-0.26251 0.0796,0.18758 c 0.0649,0.15283 0.0802,0.06951 0.0832,-0.4501 0.003,-0.55665 -0.12609,-0.78629 -0.14779,-0.26251 -0.003,0.08249 -0.0505,-0.01387 -0.10439,-0.21446 -0.1153,-0.42913 -0.1447,-0.45269 -0.82941,-0.65423 -1.5978,-0.47033 -1.6123,-0.47831 -1.6123,-0.8878 0,-0.80671 1.31337,-1.02485 2.03088,-0.33744 0.23291,0.22314 0.42072,0.09879 0.33952,-0.2248 -0.10564,-0.42086 -0.71994,-0.64047 -1.34307,-0.63872 z m -15.18461,0.0098 c -0.0163,2.1e-4 -0.0326,0.0032 -0.0486,0.0093 -0.16907,0.06488 -0.15032,0.2147 0.13849,1.10019 0.14129,0.43317 0.43183,1.32752 0.64544,1.98748 0.21361,0.65996 0.42257,1.24186 0.46457,1.29346 0.0802,0.0984 0.41396,0.12519 0.61237,0.04909 0.10251,-0.03933 1.19561,-3.18405 1.35289,-3.89226 0.0275,-0.12375 0.068,-0.28664 0.0904,-0.36174 0.0344,-0.11549 0.003,-0.13295 -0.20722,-0.11265 l -0.24857,0.02428 -0.38964,1.18443 c -0.21437,0.65139 -0.48354,1.52146 -0.59841,1.93373 -0.2497,0.89618 -0.23808,0.90684 -0.7028,-0.632 -0.57524,-1.90478 -0.86427,-2.58645 -1.10898,-2.58331 z m -68.31313,0.03824 -0.04341,1.30483 c -0.02373,0.71755 -0.02929,1.67587 -0.0124,2.12959 0.01689,0.45372 0.03089,0.86926 0.03101,0.92346 1.47e-4,0.066 0.0808,0.09063 0.243912,0.07493 l 0.243913,-0.02326 0.02119,-0.9188 0.02067,-0.91881 h 0.704867 c 0.640016,0 0.940511,0.08197 0.940511,0.25683 0,0.196 0.390931,1.50718 0.463021,1.55288 0.131089,0.08312 0.437182,0.0831 0.437182,0 0,-0.21824 -0.396408,-1.57109 -0.523482,-1.78646 l -0.152962,-0.2589 0.223759,-0.22376 c 1.002331,-1.00233 0.27002,-1.99642 -1.524455,-2.06912 z m -7.223848,10e-4 v 2.2226 2.22312 h 0.299723 0.300241 v -0.86242 -0.86248 h 0.483691 c 1.363564,0 1.914465,-0.45963 1.826245,-1.52342 -0.07208,-0.86914 -0.457296,-1.1025 -1.916162,-1.1591 z m 56.208968,0.0021 c -0.094,-0.0026 -0.18164,0.03346 -0.24908,0.11472 -0.18027,0.21721 -1.513595,3.93941 -1.513595,4.22559 0,0.1083 0.28119,0.13897 0.41806,0.04547 0.0443,-0.0303 0.16249,-0.30818 0.26251,-0.61753 l 0.181895,-0.56276 h 0.93742 0.93741 l 0.19585,0.56276 c 0.19819,0.56912 0.47029,0.82934 0.66146,0.63303 0.0815,-0.08364 -0.62151,-2.24472 -1.26711,-3.89536 -0.12045,-0.30794 -0.35795,-0.50028 -0.56482,-0.50592 z m -14.811496,0.0093 v 2.22106 2.22157 l 0.28112,-0.02326 0.28112,-0.02325 0.02119,-0.99374 0.02067,-0.99374 0.935343,-0.01085 c 0.514396,-0.0061 0.977318,-0.01512 1.028878,-0.01912 0.06933,-0.0055 0.09956,0.23686 0.115755,0.93018 0.01204,0.5156 0.03719,0.98191 0.05581,1.03611 0.04371,0.12724 0.525098,0.08761 0.514698,-0.04238 -0.0041,-0.05156 -0.0124,-1.03873 -0.0186,-2.19366 l -0.01137,-2.10013 h -0.262516 -0.262516 v 0.93328 c 0,0.51316 -0.02539,0.94331 -0.05633,0.95601 -0.03094,0.01279 -0.502203,0.01312 -1.047481,5.2e-4 l -0.99167,-0.02326 -0.02067,-0.91415 -0.02119,-0.91468 -0.28112,-0.02325 z m 20.600286,0.001 -0.23203,0.02274 -0.23202,0.02273 -0.0377,1.76217 -0.0372,1.76268 -0.21342,-0.44907 c -0.98149,-2.06739 -1.70221,-3.1135 -2.1456,-3.1135 h -0.30335 l -0.016,0.84388 c -0.0444,2.33767 -0.0293,3.47141 0.0476,3.52381 0.11683,0.0797 0.32697,0.0694 0.38137,-0.0186 0.0258,-0.04167 0.0449,-0.92729 0.0429,-1.96836 -0.004,-2.12824 -0.0217,-2.09213 0.49713,-1.06815 1.20565,2.37972 1.69264,3.11247 2.06861,3.11247 0.2692,0 0.37344,-1.70636 0.22892,-3.7424 z m -35.235051,0.0015 0.02377,0.2098 c 0.02143,0.1867 0.05669,0.2115 0.324011,0.2279 0.16499,0.0101 0.477465,0.03769 0.694015,0.06149 l 0.393774,0.04341 v 1.89446 c 0,1.04197 0.02378,1.9187 0.05323,1.9482 0.02945,0.0292 0.155895,0.04331 0.28112,0.03101 l 0.227893,-0.02222 0.02015,-1.95027 0.01964,-1.94975 0.689363,-0.02068 c 0.692293,-0.02076 0.830482,-0.07642 0.788582,-0.31677 -0.01664,-0.09544 -0.284455,-0.11566 -1.76785,-0.13436 z m -16.188676,0.0031 v 0.22427 0.22376 l 0.694015,0.02171 0.693498,0.0217 0.01912,1.87482 c 0.01049,1.03119 0.03459,1.91727 0.05374,1.96887 v 5.2e-4 c 0.01914,0.0515 0.154063,0.09405 0.299724,0.09405 h 0.2651 v -1.97817 -1.97817 l 0.712101,0.0093 0.712618,0.0088 v -0.23874 -0.23875 l -1.724959,-0.0072 z m 26.023734,0.0031 v 2.16266 c 0,1.18715 0.02218,2.1808 0.04961,2.21175 0.0275,0.0275 0.162749,0.05013 0.30024,0.05013 h 0.250114 v -1.04749 -1.04799 l 0.993737,-0.02067 0.993221,-0.02119 0.02377,-0.20619 c 0.02371,-0.20607 0.0234,-0.20633 -0.487308,-0.21963 -0.28116,-0.0074 -0.730797,-0.01993 -0.998906,-0.02893 l -0.487308,-0.01602 -0.02119,-0.66456 -0.0217,-0.66456 0.321428,-0.0021 c 0.176778,-0.0013 0.684168,-0.0096 1.127579,-0.0186 l 0.806153,-0.01654 v -0.22465 -0.22531 h -1.42472 z m 13.199194,0 v 2.16266 c 0,1.1893 0.02211,2.18477 0.04961,2.21227 v 5.1e-4 c 0.06225,0.0618 0.201467,0.06364 0.356568,0.0041 0.103597,-0.03975 0.118339,-0.27286 0.118339,-1.83762 0,-2.12925 -0.03615,-2.1002 0.717785,-0.57309 0.790603,1.60135 0.723573,1.60215 1.532203,-0.01757 l 0.63769,-1.27692 0.0372,1.85673 0.0377,1.85622 h 0.22479 0.22531 l 0.0207,-2.02468 c 0.0248,-2.38746 0.0283,-2.36265 -0.32246,-2.36265 -0.36672,0 -0.47517,0.13733 -1.09502,1.38079 l -0.54312,1.08934 -0.58033,-1.187 c -0.605016,-1.23788 -0.644236,-1.28313 -1.123442,-1.28313 z m 18.523929,0 v 2.21433 l -5.2e-4,2.21382 1.36891,-0.02067 1.36839,-0.02015 0.0238,-0.24701 0.0243,-0.24753 -1.11156,0.01136 -1.11104,0.01137 -0.0212,-0.7953 -0.0212,-0.7953 h 1.01028 c 1.05931,0 1.13858,-0.02435 1.02681,-0.31832 -0.0679,-0.1783 -0.0831,-0.1812 -1.03198,-0.18139 l -0.96273,-5.2e-4 -0.0217,-0.67489 -0.0212,-0.67541 1.13739,-0.0093 c 1.25484,-0.01005 1.23042,-0.0042 1.16272,-0.27389 l -0.0475,-0.1912 h -1.38596 z m 3.52433,0 v 2.16266 c 0,1.1893 0.0243,2.18648 0.0537,2.21588 v 5.2e-4 c 0.0294,0.0292 0.1559,0.04331 0.28112,0.03101 l 0.2279,-0.02222 0.0207,-0.9214 0.0212,-0.92139 0.72916,0.02171 0.72864,0.02119 0.1297,0.26458 c 0.0712,0.14551 0.185,0.53364 0.2527,0.86248 0.12811,0.62193 0.18276,0.70752 0.45682,0.70952 0.29417,0.0021 0.0942,-1.28762 -0.28163,-1.81488 -0.18138,-0.25453 -0.18631,-0.22401 0.0775,-0.50643 0.27519,-0.2946 0.34854,-0.65334 0.23616,-1.15548 -0.1827,-0.81643 -0.43676,-0.93085 -2.08979,-0.94155 z m 13.94954,0 v 2.21692 2.21692 l 0.88108,-0.03721 c 0.48466,-0.0203 1.111,-0.03886 1.39216,-0.04186 l 0.5116,-0.0052 -0.0238,-0.20618 -0.0238,-0.20619 -1.05007,-0.01241 -1.05006,-0.0124 -0.0212,-0.79375 -0.0212,-0.79375 h 0.971 c 0.99806,0 1.07664,-0.02396 1.00304,-0.30799 -0.0332,-0.12797 -1.57957,-0.27519 -1.8402,-0.17518 -0.13363,0.05113 -0.18999,-0.35803 -0.14159,-1.01958 l 0.0253,-0.34055 1.06247,-0.0062 1.06247,-0.0057 0.0232,-0.23513 0.0238,-0.23461 h -1.39216 z m -62.846288,5.2e-4 v 2.21226 2.21227 h 0.262516 0.262516 v -1.87017 c 0,-1.84091 0.03859,-2.14925 0.219108,-1.74563 0.437457,0.97809 1.923189,3.54885 2.072742,3.58635 0.461392,0.11579 0.443288,0.20192 0.465088,-2.20245 l 0.02015,-2.19263 h -0.262516 -0.261999 l -0.02015,1.74356 -0.02015,1.74356 -0.555005,-1.01234 c -0.305361,-0.55684 -0.719405,-1.32056 -0.91984,-1.69705 -0.386452,-0.72589 -0.456509,-0.77773 -1.046965,-0.77773 z m -26.248527,5.1e-4 v 2.21227 2.21124 h 1.349789 1.350305 v -0.26614 -0.26665 l -1.043864,0.02274 -1.043347,0.02274 -0.04703,-0.29559 c -0.02594,-0.16245 -0.02459,-0.52519 0.0031,-0.80615 l 0.05064,-0.51057 H 43.154 c 0.940368,0 1.002523,-0.009 1.002523,-0.14469 0,-0.32234 -0.175466,-0.37862 -1.147733,-0.36742 l -0.914156,0.01085 -0.0217,-0.66818 -0.02119,-0.66817 1.108976,-0.0057 1.10846,-0.0062 0.02377,-0.23719 0.02325,-0.2372 h -1.392163 z m 21.453471,0 c -0.375894,0 -0.450501,0.09417 -1.087789,1.37615 l -0.535368,1.07693 -0.587561,-1.15393 c -0.617242,-1.21291 -0.713736,-1.32198 -1.137398,-1.28468 l -0.262517,0.02274 -0.0155,2.15646 -0.01602,2.15594 h 0.262516 0.262516 l -0.01654,-1.71773 c -0.01815,-1.90462 0.05157,-2.24065 0.315226,-1.52652 0.169196,0.45829 1.011495,2.06507 1.119311,2.13527 0.131665,0.0857 0.224832,-0.05821 0.883667,-1.36581 l 0.623218,-1.23765 0.01912,1.79989 c 0.01051,0.98994 0.03562,1.8443 0.05581,1.8986 0.02149,0.0578 0.122398,0.08883 0.243396,0.07493 l 0.206706,-0.02377 0.02325,-1.49965 c 0.01282,-0.82495 0.0012,-1.81213 -0.02584,-2.19367 l -0.04909,-0.6935 z m 1.345137,0 v 2.21382 2.21382 l 1.368909,-0.02015 1.368392,-0.02067 v -0.2248 -0.22479 h -1.068669 -1.068669 v -0.80667 -0.80615 h 1.012342 1.012341 v -0.21601 -0.21601 l -0.856279,-0.05322 c -0.470952,-0.0293 -0.921676,-0.03274 -1.002006,-0.0072 -0.161765,0.05134 -0.238695,-0.21499 -0.240295,-0.83199 -0.0015,-0.56735 -0.03979,-0.54984 1.207161,-0.54984 0.614299,0 1.116258,-0.02542 1.115695,-0.05632 -0.0072,-0.39773 0.0081,-0.39378 -1.470195,-0.39378 z m 26.086262,0 0.02481,1.70584 c 0.03204,2.19642 0.165355,2.53819 1.0604,2.71508 1.741352,0.34413 2.150622,-0.18652 2.15129,-2.79001 l 5.17e-4,-1.63091 h -0.255287 -0.255281 l -0.02687,1.66864 c -0.02082,1.28248 -0.05282,1.7205 -0.138493,1.89342 -0.279344,0.56382 -1.246117,0.65653 -1.698604,0.16278 l -0.250114,-0.27285 -0.001,-1.55753 c -0.0012,-1.87214 -0.0055,-1.89446 -0.351399,-1.89446 z m -53.272199,0.03721 v 2.13734 c 0,1.17555 0.01346,2.16803 0.02997,2.20503 0.04604,0.10326 1.941925,-0.0083 2.380216,-0.14004 0.778518,-0.23396 1.108577,-0.84686 1.112077,-2.06499 0.0047,-1.62525 -0.551539,-2.10455 -2.465483,-2.12545 z m 87.651484,0.0047 c -0.30585,-0.003 -0.6078,0.0042 -0.79065,0.02532 -0.1434,0.01658 0.11276,0.29163 0.308,0.33073 0.19809,0.03962 0.22088,0.07721 0.26458,0.4408 0.0912,0.75947 0.0576,3.06244 -0.045,3.08974 -0.40999,0.10894 -0.54529,0.17871 -0.56689,0.29093 -0.0226,0.11739 0.0644,0.12971 0.91777,0.12971 0.77811,0 0.9431,-0.01937 0.9431,-0.11007 0,-0.12996 -0.22679,-0.2651 -0.44494,-0.2651 -0.15192,0 -0.15502,-0.03108 -0.15502,-1.76217 v -1.76268 h 0.1819 c 0.19213,0 0.4181,-0.17501 0.41806,-0.32401 -1e-5,-0.04487 -0.52119,-0.07827 -1.03095,-0.0832 z m -46.125854,0.31988 c 0.22723,-0.0021 0.466972,0.04802 0.704866,0.15606 0.903883,0.41049 0.944365,2.81905 0.05581,3.32693 -1.355636,0.77485 -2.552103,-0.73359 -2.015381,-2.54093 0.175306,-0.59035 0.674004,-0.9366 1.254704,-0.94206 z m -40.962873,0.07028 0.729154,0.05478 c 1.395321,0.10462 1.737193,0.49774 1.655713,1.90531 -0.04282,0.7396 -0.220877,1.12012 -0.612883,1.31154 -0.331209,0.16151 -1.581171,0.28228 -1.699637,0.16382 -0.04261,-0.04262 -0.07235,-0.76892 -0.07235,-1.75442 z m 14.848705,0.01757 0.58136,0.0062 c 0.820701,0.0081 1.158569,0.12251 1.244369,0.42168 0.102562,0.35762 -0.0029,0.90465 -0.198955,1.02991 v -5.2e-4 c -0.150966,0.09643 -1.516711,0.20273 -1.595251,0.12403 -0.01716,-0.01719 -0.03152,-0.37993 -0.03152,-0.80616 z m 64.721102,0 0.58136,0.0036 c 1.0017,0.0073 1.29043,0.20388 1.29243,0.88056 0.001,0.38951 -0.2627,0.68403 -0.62838,0.70073 v 5.2e-4 c -0.12804,0.0058 -0.46023,0.0146 -0.73846,0.0186 l -0.50591,0.0083 -5.2e-4,-0.80615 z m -71.845214,5.1e-4 0.206188,0.0021 c 1.398637,0.01664 2.230015,1.11198 1.240752,1.63453 v 5.1e-4 c -0.155894,0.08231 -1.337516,0.17247 -1.403016,0.10697 -0.02416,-0.02416 -0.04392,-0.42653 -0.04392,-0.894 z m 4.062284,0.077 c 0.04258,-0.0018 0.737422,2.07394 0.737422,2.20297 v 5.2e-4 c 0,0.0239 -0.04249,0.03693 -0.09405,0.02893 -0.05156,-0.0085 -0.385013,-0.0266 -0.74104,-0.0403 l -0.647505,-0.02532 0.347782,-1.08211 c 0.191038,-0.5954 0.369742,-1.08369 0.397392,-1.08469 z m 51.5617,0.20516 c 0.11784,-0.02425 0.21997,0.26992 0.38706,0.80563 0.17388,0.55747 0.33514,1.06328 0.35864,1.12448 0.026,0.0676 0.003,0.10512 -0.0589,0.09612 -0.056,-0.0085 -0.40055,-0.02651 -0.76584,-0.04031 -0.58527,-0.02213 -0.6599,-0.0405 -0.6258,-0.15348 0.37549,-1.24417 0.55336,-1.80126 0.70486,-1.83244 z m -61.955381,5.5609 c -0.279493,-0.0031 -0.576716,0.04422 -0.882116,0.14676 -1.466653,0.49243 -1.394433,3.86232 0.09302,4.33669 1.782575,0.56848 2.945242,-0.62898 2.687691,-2.76831 -0.126752,-1.05286 -0.900401,-1.70418 -1.898592,-1.71514 z m 22.686987,0.01757 c -0.294145,-2.3e-4 -0.591852,0.05398 -0.868164,0.17001 -1.466821,0.616 -1.354638,3.74416 0.153479,4.2814 1.953335,0.69585 3.485822,-1.4658 2.484603,-3.5047 -0.289524,-0.5896 -1.018214,-0.94613 -1.769918,-0.94671 z m -9.106938,0.01137 c -0.529687,0.01172 -1.070357,0.18384 -1.387512,0.54415 -1.016461,1.15476 -0.583734,3.54262 0.712102,3.93103 0.731708,0.21932 1.995658,-0.02944 2.038118,-0.40101 0.03673,-0.32142 -0.06815,-0.37152 -0.443384,-0.21084 -1.428528,0.61168 -2.243021,0.0037 -2.24224,-1.6738 8.21e-4,-1.76289 1.007199,-2.23683 2.605009,-1.22732 l 0.243396,0.154 v -0.22634 c 0,-0.58165 -0.751329,-0.90701 -1.525489,-0.88987 z m 50.728162,0.02429 c -0.19488,-1.6e-4 -0.36599,0.14552 -0.49041,0.42684 -0.34236,0.77413 -1.34233,3.84657 -1.29346,3.97392 0.13239,0.34499 0.42347,0.05727 0.66818,-0.66042 l 0.1788,-0.52504 h 0.93431 0.93431 l 0.1788,0.56276 c 0.19341,0.60931 0.24439,0.67186 0.5457,0.67386 l 0.19895,10e-4 -0.25114,-0.84387 c -0.34069,-1.14482 -1.20627,-3.44202 -1.3255,-3.51762 -0.0964,-0.06116 -0.18996,-0.0914 -0.27854,-0.09146 z m -28.87885,0.0046 -0.01757,0.9679 c -0.0096,0.53239 -0.0096,1.49793 0,2.1456 0.0096,0.64766 0.01757,1.21254 0.01757,1.25574 v 5.2e-4 c 0,0.0519 0.458485,0.07854 1.349789,0.07854 h 1.350305 v -0.2624 -0.26252 h -1.090373 -1.089856 l 0.02119,-0.76843 0.0217,-0.76894 0.86248,-0.0072 c 1.187692,-0.0092 1.124479,0.0051 1.124479,-0.2558 v -0.22479 l -0.843359,-0.01188 c -0.464034,-0.006 -0.919531,-0.0049 -1.012341,0.0031 -0.163957,0.01408 -0.168868,-0.0055 -0.168982,-0.68213 v -0.6966 l 1.084688,0.02274 1.085205,0.02273 0.04909,-0.19482 c 0.06862,-0.27345 0.117763,-0.26209 -1.383895,-0.31419 z m 23.848675,0 -0.015,0.89297 c -0.0151,0.90463 -0.0149,1.09691 0.004,2.67373 l 0.0109,0.88109 h 1.34565 c 1.411125,0 1.479115,-0.01671 1.398875,-0.33642 -0.0443,-0.17706 -0.0506,-0.17711 -1.11362,-0.17311 l -1.068665,0.0052 v -0.77876 -0.77876 l 1.01234,-0.03773 1.012855,-0.0372 0.0232,-0.20413 0.0238,-0.20412 -1.036105,-0.02118 -1.03611,-0.02068 -0.0217,-0.65629 -0.0217,-0.65629 h 1.122925 c 1.07487,0 1.12518,-0.0068 1.17305,-0.15761 0.0841,-0.26507 -0.042,-0.29475 -1.452095,-0.34365 z m 27.823095,5.1e-4 v 2.23501 2.235 l 1.08211,-0.04082 c 1.94394,-0.07277 2.44368,-0.53726 2.44068,-2.2686 -0.003,-1.54685 -0.5729,-2.02369 -2.52905,-2.11459 z m -56.419284,0.0093 c -0.260148,0.0031 -0.242087,0.33469 -0.259415,2.24585 l -0.02015,2.19212 h 0.26355 0.264066 v -1.79989 c 0,-2.11893 -0.0083,-2.1087 0.628902,-0.80616 0.267357,0.54653 0.559643,1.11073 0.649573,1.25367 l 0.163814,0.25994 0.175184,-0.20361 c 0.09631,-0.11196 0.404277,-0.67468 0.684712,-1.25057 0.647567,-1.32976 0.616125,-1.36558 0.639755,0.72812 l 0.02015,1.78129 0.244947,0.02377 0.244946,0.02326 -0.02015,-2.19832 -0.01964,-2.19832 -0.288871,-0.02377 c -0.401745,-0.03302 -0.471015,0.05147 -1.066602,1.29553 -0.630316,1.31665 -0.508164,1.32377 -1.191658,-0.06873 -0.542031,-1.10417 -0.581175,-1.16184 -0.822174,-1.20704 -0.123318,-0.02313 -0.218097,-0.04789 -0.290939,-0.04702 z m 11.047388,0.0047 v 1.69188 c 0,1.85459 -0.02463,1.93683 -0.367936,1.24489 -0.12198,-0.24585 -0.493932,-0.93503 -0.826823,-1.53118 -0.332892,-0.59614 -0.605131,-1.11931 -0.605131,-1.16271 0,-0.1331 -0.272931,-0.2341 -0.63252,-0.2341 h -0.342615 v 2.21227 2.21278 h 0.262517 0.262516 v -1.92753 c 0,-1.10488 0.02803,-1.89701 0.06563,-1.85621 0.03607,0.03918 0.495637,0.86417 1.021126,1.83348 1.027424,1.89519 1.067637,1.95026 1.435055,1.95026 h 0.242879 l 0.02894,-0.76894 c 0.01579,-0.42278 0.02164,-1.40997 0.01344,-2.19367 l -0.01447,-1.42472 -0.271301,-0.02325 z m 9.125541,10e-4 -0.232027,0.02274 -0.231511,0.02273 -0.02015,2.19367 -0.01964,2.19366 h 1.298112 c 1.343564,0 1.495256,-0.03276 1.423686,-0.30644 -0.03686,-0.141 -0.960154,-0.21679 -1.875855,-0.15399 l -0.243912,0.01653 -5.17e-4,-1.03404 c -1.7e-4,-0.56894 -0.02216,-1.46667 -0.04909,-1.99471 z m 29.431275,0.0041 c -0.12269,-0.0014 -0.24028,0.03275 -0.30231,0.10749 -0.14872,0.1792 -1.50689,4.03716 -1.50689,4.28036 0,0.0958 0.04,0.1133 0.16847,0.0739 0.31253,-0.09581 0.31414,-0.09785 0.62373,-0.95395 l 0.12971,-0.35863 0.93069,0.02118 0.9307,0.02067 0.16949,0.50385 c 0.20893,0.62128 0.72192,1.14931 0.72192,0.74311 0,-0.26721 -1.26744,-3.9378 -1.47277,-4.26538 -0.0689,-0.10992 -0.23501,-0.17085 -0.39274,-0.1726 z m -4.27778,0.0021 c -0.21356,-0.0087 -0.23151,0.18063 -0.23151,0.97617 v 0.90485 l -1.03094,-0.02118 -1.03147,-0.02068 -0.0372,-0.9002 -0.0377,-0.89969 -0.21652,-0.0248 c -0.37924,-0.04329 -0.39222,0.08171 -0.29662,2.93729 l 0.0491,1.47433 h 0.25063 0.25063 v -1.01234 -1.01235 h 1.05006 1.05007 l 0.0139,0.35605 c 0.008,0.19593 0.0162,0.64314 0.0202,0.99374 l 0.007,0.63769 0.27957,0.02325 0.27905,0.02326 v -2.17816 -2.17765 l -0.18707,-0.04702 c -0.0723,-0.01816 -0.1321,-0.03055 -0.18138,-0.03256 z m -73.239448,0.0015 0.01654,2.19367 c 0.0091,1.20649 0.01792,2.20401 0.01912,2.21691 v 5.2e-4 c 0.0012,0.0129 0.111408,0.0129 0.245463,0 l 0.243913,-0.02377 0.02067,-1.02319 0.02119,-1.0232 0.991154,-0.01137 c 1.06086,-0.01207 1.123169,-0.02898 1.055749,-0.2868 -0.04134,-0.15806 -0.08613,-0.16862 -0.803568,-0.18242 -0.417977,-0.008 -0.861211,-0.01822 -0.984953,-0.02222 l -0.225309,-0.0077 -0.0217,-0.65267 -0.0217,-0.65268 h 1.090372 1.090373 v -0.21384 -0.21394 l -0.61858,-0.04806 c -0.340292,-0.0265 -0.956434,-0.04832 -1.368909,-0.04857 z m 13.161987,0 v 2.21434 2.21381 l 1.368392,-0.02015 1.368909,-0.02067 v -0.22479 -0.2248 l -1.050065,-0.01291 -1.050065,-0.01241 -0.02119,-0.79426 c -0.01171,-0.43698 0.0054,-0.78997 0.03772,-0.78497 0.03234,0.0058 0.48902,0.006 1.014925,10e-4 l 0.956014,-0.0093 v -0.18275 c 0,-0.25529 -0.01224,-0.25809 -1.07487,-0.27389 l -0.949812,-0.01447 v -0.66197 -0.66249 l 1.068668,-0.02067 1.068669,-0.02067 0.02222,-0.19482 0.02274,-0.19482 -0.734839,-0.04858 c -0.404289,-0.0268 -1.030731,-0.04887 -1.391646,-0.04909 z m 9.599414,0 v 2.16266 c 0,1.18931 0.02378,2.18648 0.05323,2.21588 0.02945,0.0292 0.155896,0.04331 0.28112,0.03101 0.26059,-0.02553 0.246625,0.04233 0.257865,-1.24075 l 0.0078,-0.84388 h 0.974618 0.975134 v -0.22479 -0.22531 h -0.975134 -0.974618 l -5.16e-4,-0.6935 v -0.69349 l 0.980818,0.02273 c 1.015766,0.02381 1.194243,-0.01833 1.194243,-0.28318 0,-0.14263 -0.778063,-0.22606 -2.118734,-0.22686 z m 22.348506,0 c -0.344008,0 -1.79989,3.52791 -1.79989,4.36149 0,0.119 0.03315,0.13857 0.168465,0.09767 0.252643,-0.07633 0.29757,-0.14009 0.513664,-0.72967 l 0.198954,-0.54209 0.931209,-0.02067 0.931726,-0.02118 0.171566,0.53381 c 0.191395,0.59426 0.759127,1.18899 0.759127,0.7953 0,-0.85237 -1.51766,-4.47466 -1.874821,-4.47466 z m 10.008176,0 c -0.17785,0 -0.17959,0.0063 -0.20051,0.91881 l -0.0207,0.9188 h -1.012338 -1.012858 l -0.03721,-0.9002 -0.03772,-0.89969 h -0.262516 -0.262516 l -0.01964,2.19367 -0.02015,2.19366 h 0.301273 0.301274 v -1.01285 -1.01235 h 1.050065 1.049548 v 1.01235 1.01285 h 0.30024 0.29972 v -2.16731 c 0,-2.35428 0.0181,-2.25774 -0.41599,-2.25774 z m 24.939555,0 v 2.21744 2.21692 l 0.24391,-0.02378 0.2434,-0.02325 -0.0145,-1.91254 c -0.0173,-2.25985 -0.0892,-2.23151 0.91777,-0.35657 1.21783,2.2676 1.30071,2.377 1.73478,2.2934 0.12917,-0.02487 0.13694,-0.15387 0.13694,-2.20038 v -2.17352 h -0.26251 -0.26252 l 0.0258,1.70584 c 0.0296,1.98633 0.02,2.00387 -0.51315,0.94878 -1.16433,-2.30411 -1.4426,-2.69234 -1.92701,-2.69234 z m -73.441504,0.0078 c -0.05401,0.0045 -0.0566,0.0545 -0.04134,0.1881 0.021,0.18394 0.06438,0.22235 0.287321,0.25425 l 0.262516,0.03773 0.02015,1.7079 c 0.01568,1.32849 -9.11e-4,1.71446 -0.07493,1.73736 -0.05234,0.0162 -0.189694,0.05015 -0.304891,0.07545 -0.236474,0.05193 -0.350885,0.24975 -0.198954,0.34365 0.196918,0.1217 1.725842,0.07232 1.775602,-0.05736 0.05508,-0.14352 -0.168734,-0.31988 -0.406177,-0.31988 h -0.173114 v -1.75586 -1.75545 l 0.299723,-0.05116 c 0.677397,-0.11445 0.393681,-0.33748 -0.430981,-0.33848 -0.402163,-6e-4 -0.809798,-0.02184 -0.905888,-0.04754 -0.049,-0.01313 -0.08449,-0.02067 -0.109037,-0.01861 z m 57.705514,0 c -0.0183,0.001 -0.0377,0.0028 -0.0584,0.0052 l -0.21704,0.0248 -0.0202,2.09858 c -0.011,1.15263 -0.003,2.13989 0.017,2.19574 0.0295,0.07467 0.33233,0.09132 1.33274,0.07544 l 1.29501,-0.02015 0.0238,-0.20671 0.0238,-0.20618 -0.81132,-0.01499 c -0.44615,-0.008 -0.92065,-0.0091 -1.05471,-0.0021 l -0.24392,0.01292 -10e-4,-1.89136 c -0.001,-1.90278 -0.0118,-2.08674 -0.28577,-2.07119 z m 4.3062,0.02274 c -0.15003,-6e-5 -0.31889,4.1e-4 -0.50902,10e-4 l -1.67276,0.0062 v 0.2248 0.22479 l 0.69349,0.0217 0.69402,0.02171 v 1.95182 1.95078 l 0.28112,-0.02325 0.28112,-0.02326 0.0202,-1.93115 0.0202,-1.93114 h 0.7028 c 0.74562,0 0.8828,-0.06972 0.72347,-0.36742 -0.056,-0.10484 -0.1844,-0.12622 -1.23455,-0.12661 z m -27.455168,0.0041 -1.124996,0.0031 v 0.2248 0.22479 l 0.693498,0.0217 0.694014,0.02171 v 1.95182 1.9513 l 0.28112,-0.02326 0.28112,-0.02325 0.02015,-1.93115 0.02015,-1.93115 h 0.603581 c 0.656091,0 0.893485,-0.07823 0.893485,-0.29455 0,-0.16309 -0.452219,-0.20086 -2.362129,-0.19586 z m -37.722761,0.0031 -0.02015,2.19832 -0.01964,2.1978 0.282153,-0.02326 0.28267,-0.02325 0.02067,-1.02888 0.02119,-1.02939 0.991154,-0.02067 0.991671,-0.02067 0.02274,-0.19534 0.02274,-0.19534 -0.985469,-0.0403 c -1.151541,-0.04671 -1.096688,-0.0075 -1.062468,-0.75035 l 0.02687,-0.58136 h 1.086239 1.086238 l -0.02325,-0.24391 -0.02377,-0.2434 H 46.66905 Z m -6.177917,0.31988 c 0.26056,-0.0019 0.520117,0.06954 0.740523,0.22789 0.789731,0.56742 0.772398,2.87748 -0.02481,3.28973 -1.431754,0.74039 -2.587703,-0.72382 -2.036568,-2.57969 0.170496,-0.57413 0.747617,-0.93377 1.32085,-0.93793 z m 22.576915,0.01202 c 0.182024,-0.005 0.382344,0.02224 0.599964,0.08268 1.048578,0.29124 1.258687,2.90786 0.274402,3.41685 -1.201408,0.62127 -2.131971,-0.12739 -2.117701,-1.70378 0.01039,-1.14773 0.454565,-1.77421 1.243335,-1.79575 z m 65.204801,0.08371 c 0.34385,-0.01084 1.51467,0.16877 1.69963,0.27647 0.819,0.4769 0.67025,2.6961 -0.20515,3.06131 -0.41913,0.17483 -1.60437,0.22639 -1.66347,0.07235 -0.0477,-0.12429 0.0258,-3.34137 0.0775,-3.39307 0.0101,-0.0101 0.0423,-0.01551 0.0915,-0.01706 z m -39.944844,0.06305 c 0.04499,-0.0043 0.124667,0.22425 0.379821,1.05265 0.168924,0.54844 0.321931,1.03542 0.340031,1.08262 0.02334,0.0609 -0.185367,0.08578 -0.717269,0.08578 -0.713724,0 -0.747944,-0.0071 -0.708484,-0.14986 0.05272,-0.1907 0.663261,-2.01441 0.688331,-2.05621 0.0054,-0.009 0.01114,-0.01437 0.01757,-0.01498 z m 32.463124,0.05478 c 0.005,-8.9e-4 0.008,4.3e-4 0.0119,0.0041 0.0459,0.04904 0.67386,2.04167 0.67386,2.13837 0,0.0131 -0.33236,0.02377 -0.73846,0.02377 h -0.73794 l 0.16795,-0.52503 c 0.3517,-1.09699 0.55326,-1.62791 0.6227,-1.64124 z m -15.99178,0.0465 c 0.0243,-0.0064 0.043,0.01591 0.0589,0.06357 0.0195,0.05846 0.16056,0.51168 0.31315,1.00665 0.15259,0.49497 0.29011,0.93332 0.30541,0.97462 0.0174,0.0467 -0.24162,0.07493 -0.68574,0.07493 -0.8618,0 -0.84237,0.05302 -0.41548,-1.16427 0.22973,-0.65509 0.35072,-0.93616 0.42375,-0.9555 z m 5.27822,5.2865 c -0.23192,-0.01499 -0.51407,0.77823 -1.31774,3.37706 -0.23765,0.76845 -0.25346,0.76734 -0.47543,-0.03773 -0.5392,-1.95567 -1.01405,-3.20446 -1.22783,-3.22926 -0.33381,-0.03878 -0.31286,0.0846 0.36535,2.16318 0.69146,2.11916 0.71392,2.17109 0.9586,2.17609 0.13307,0.0028 0.12248,0.02056 -0.0651,0.10646 l -0.22531,0.10283 0.39842,0.0062 c 0.24006,0.0037 0.38015,-0.02276 0.35295,-0.06666 -0.0248,-0.04008 0.005,-0.14991 0.0661,-0.24391 0.15453,-0.23779 1.41352,-4.09209 1.36322,-4.17339 -0.0674,-0.10907 -0.12833,-0.17667 -0.19327,-0.18087 z m 12.13311,0.02532 c -0.771,0.01696 -1.52135,0.5157 -1.52135,1.29553 0,0.75727 0.11602,0.84552 1.74666,1.32189 0.8159,0.23834 0.98489,0.48811 0.73433,1.08778 -0.24147,0.57789 -1.49786,0.55084 -2.02779,-0.04392 -0.25363,-0.2847 -0.44515,-0.25826 -0.47645,0.06563 -0.0311,0.32135 0.24056,0.57314 0.75861,0.70383 l 0.38964,0.09819 -0.29973,0.04754 v 5.2e-4 c -0.16716,0.0265 0.13162,0.04763 0.6749,0.04806 0.54968,4e-4 0.8606,-0.02133 0.71261,-0.05013 l -0.26251,-0.05116 0.33745,-0.0956 c 1.59662,-0.45221 1.08537,-1.99715 -0.82321,-2.48771 -0.83904,-0.21566 -0.97668,-0.30994 -0.97668,-0.66972 0,-0.77456 0.99615,-1.01394 1.87482,-0.4501 0.57975,0.37202 0.82315,0.20209 0.41134,-0.28732 -0.31976,-0.38002 -0.79004,-0.54348 -1.25264,-0.53331 z m -63.124816,0.01447 c -0.09465,-0.0059 -0.19762,0.05317 -0.329696,0.14987 -0.12771,0.09351 -1.550293,4.08056 -1.550293,4.34495 0,0.10561 0.05903,0.13591 0.266651,0.13591 0.170201,0 0.249127,-0.029 0.217557,-0.0801 -0.02723,-0.0439 -0.09681,-0.06189 -0.154512,-0.03979 -0.17136,0.06576 -0.118936,-0.06316 0.05839,-0.14366 0.103966,-0.04718 0.21233,-0.22003 0.29869,-0.47697 0.207765,-0.6183 0.190452,-0.60927 1.185457,-0.60927 h 0.879016 l 0.208256,0.53072 c 0.114524,0.2919 0.259174,0.55054 0.321944,0.57464 0.0975,0.03742 0.0946,0.05838 -0.02274,0.14418 -0.123937,0.09043 -0.110638,0.10025 0.137459,0.10025 0.3937,0 0.322986,-0.33591 -0.599446,-2.84996 -0.486324,-1.32544 -0.674851,-1.76555 -0.91674,-1.78077 z m 38.334611,0.0078 c -0.821523,-0.01694 -1.631038,0.48422 -1.626776,1.2423 0.0042,0.75412 0.176427,0.89507 1.571486,1.28622 0.97213,0.27257 1.17781,0.5264 0.93844,1.156 -0.2093,0.55061 -1.440313,0.54732 -2.009181,-0.0052 -0.292912,-0.28447 -0.322168,-0.29485 -0.451135,-0.16588 -0.272746,0.27275 0.08161,0.71586 0.709517,0.8878 l 0.363286,0.09973 -0.300241,0.05065 c -0.179997,0.0303 0.0899,0.0507 0.674895,0.05116 0.561989,4e-4 0.863919,-0.02126 0.712619,-0.05116 l -0.26252,-0.0522 0.2248,-0.05684 c 0.88902,-0.22433 1.23842,-0.88075 0.87178,-1.63814 -0.19917,-0.41142 -0.5089,-0.59192 -1.44126,-0.8413 -0.862723,-0.23075 -1.071891,-0.37144 -1.103291,-0.74052 -0.0627,-0.737 0.995369,-0.97459 1.884121,-0.42323 0.59979,0.3721 0.84422,0.01614 0.29559,-0.43046 -0.30279,-0.24649 -0.67871,-0.36128 -1.05213,-0.36897 z m -45.576546,0.02325 c -0.480882,0.01093 -0.941861,0.16471 -1.170471,0.48524 -0.564111,0.79094 -0.170082,1.57005 0.961698,1.90169 1.416894,0.41518 1.543918,0.52098 1.374593,1.1498 -0.187738,0.69719 -1.330911,0.7438 -2.081527,0.08475 -0.30032,-0.26368 -0.471805,-0.20524 -0.471805,0.16072 0,0.25512 0.176793,0.38854 0.756026,0.57102 l 0.406176,0.12816 -0.337447,0.04806 c -0.198588,0.0281 0.07913,0.04804 0.674895,0.04806 0.556841,0 0.919582,-0.01432 0.806152,-0.03152 -0.296684,-0.04494 -0.253634,-0.14414 0.08578,-0.19844 0.525995,-0.08411 0.910417,-0.6998 0.800984,-1.28313 -0.103617,-0.55232 -0.524403,-0.85263 -1.586983,-1.13223 -0.947859,-0.24942 -1.080554,-0.33272 -1.080554,-0.67644 0,-0.82575 0.957792,-1.06843 1.881022,-0.47646 0.450875,0.28913 0.628169,0.29375 0.559139,0.01447 -0.128632,-0.52046 -0.874852,-0.80976 -1.577678,-0.79379 z m 15.745808,0.0083 c -0.228202,-0.0022 -0.463642,0.02511 -0.691947,0.08681 -1.705176,0.46084 -1.629388,3.908 0.09508,4.32894 0.217658,0.05316 0.213833,0.05637 -0.112654,0.10387 v 5.2e-4 c -0.211322,0.0307 0.0272,0.05016 0.637687,0.05116 0.536217,0.0013 0.873567,-0.0208 0.749825,-0.0491 -0.260364,-0.0596 -0.162812,-0.1078 0.393258,-0.1943 0.364453,-0.05668 0.426651,-0.12168 0.362251,-0.37827 -0.05646,-0.22496 -0.216096,-0.23321 -0.653707,-0.03463 -1.218608,0.55295 -2.089278,-0.12514 -2.089278,-1.62729 0,-1.70609 0.929208,-2.32896 2.269112,-1.52083 0.576787,0.34787 0.580844,0.3488 0.580844,0.14624 0,-0.52222 -0.725467,-0.90516 -1.540475,-0.91312 z m 20.851957,0.0047 c -0.513827,8.4e-4 -1.024065,0.15099 -1.259872,0.47284 -0.323297,0.44127 -0.283872,1.28116 0.07338,1.56218 0.181518,0.14278 0.39322,0.21966 1.438155,0.52503 0.687724,0.20098 0.928106,0.41494 0.861446,0.76636 -0.163008,0.85939 -1.173641,1.00799 -2.13372,0.31368 -0.383385,-0.27724 -0.441833,-0.26522 -0.441833,0.09146 0,0.29539 0.241654,0.51368 0.65474,0.59118 0.42194,0.07916 0.466913,0.14651 0.132292,0.19741 -0.16499,0.0251 0.155777,0.04547 0.712618,0.04547 0.574476,0 0.882833,-0.02119 0.712618,-0.04909 l -0.30024,-0.04909 0.30024,-0.08992 c 0.16499,-0.0494 0.339166,-0.08969 0.387056,-0.08992 0.151397,-7.3e-4 0.467039,-0.4441 0.520899,-0.73122 0.173962,-0.9273 -0.368119,-1.39007 -2.076876,-1.7725 -0.513411,-0.1149 -0.711596,-0.50031 -0.483692,-0.94103 0.270648,-0.52336 1.125434,-0.5416 1.855701,-0.03927 0.425412,0.29264 0.555029,0.26207 0.472839,-0.11214 -0.09805,-0.44643 -0.765118,-0.69251 -1.425751,-0.69143 z m -11.945524,0.0036 c -0.203862,0.0079 -0.422092,0.19343 -0.54622,0.52245 -0.480446,1.27348 -1.270207,3.66678 -1.270207,3.84937 0,0.18579 0.02782,0.21136 0.229444,0.21136 0.143603,0 0.210824,-0.03 0.179834,-0.0801 -0.02723,-0.0439 -0.09681,-0.06189 -0.154513,-0.03979 -0.173016,0.06639 -0.117772,-0.06366 0.06098,-0.14366 0.104422,-0.04673 0.228339,-0.2379 0.336414,-0.51883 0.219138,-0.56928 0.209201,-0.56538 1.192692,-0.56638 l 0.832507,-0.001 0.120406,0.28112 c 0.06647,0.15467 0.171631,0.40808 0.233061,0.56276 0.06143,0.15468 0.151071,0.28112 0.199471,0.28112 0.06492,0 0.06324,0.02913 -0.0057,0.11213 -0.0796,0.09589 -0.05857,0.11266 0.141076,0.11266 0.283198,0 0.28927,-0.05639 0.08527,-0.78342 -0.160356,-0.57147 -1.138814,-3.3099 -1.270723,-3.55637 -0.09153,-0.17103 -0.224318,-0.24881 -0.363802,-0.24339 z m 38.33305,0.0031 c -0.16698,3.6e-4 -0.33864,0.01305 -0.51004,0.03875 -1.66922,0.25031 -1.87559,3.84083 -0.24702,4.29793 l 0.46767,0.13126 -0.29972,0.04548 c -0.16499,0.0251 0.12158,0.04709 0.63717,0.04909 0.51559,0.0018 0.85356,-0.02049 0.75086,-0.04909 -0.23541,-0.06553 -0.1369,-0.12479 0.31781,-0.19069 0.34592,-0.05015 0.35657,-0.05913 0.35657,-0.30954 0,-0.31181 -0.11261,-0.32933 -0.67541,-0.10749 -1.25292,0.49386 -2.09962,-0.17174 -2.09962,-1.65003 0,-1.61944 1.12487,-2.35683 2.30219,-1.50895 0.54909,0.39546 0.7651,0.32439 0.52761,-0.17363 -0.16687,-0.34994 -0.80448,-0.57469 -1.52807,-0.57309 z m -74.811959,0.0083 c -0.524555,-0.0091 -1.046304,0.14036 -1.286227,0.46457 -0.609941,0.8242 -0.128674,1.59834 1.224215,1.96938 1.093044,0.29977 1.319488,0.57046 1.056783,1.26143 -0.196124,0.51586 -1.335271,0.46768 -2.021582,-0.08527 -0.336946,-0.27148 -0.533301,-0.22941 -0.533301,0.11369 0,0.23075 0.612408,0.6227 0.972551,0.6227 0.26852,0 0.162397,0.14003 -0.129191,0.17053 -0.154678,0.0162 0.17438,0.03052 0.731221,0.03152 0.556841,0.0011 0.877608,-0.01925 0.712618,-0.04495 l -0.299723,-0.04651 0.374654,-0.09819 c 0.604629,-0.1584 0.862964,-0.49215 0.86248,-1.11466 -5.6e-4,-0.71788 -0.30539,-0.96938 -1.650546,-1.36167 -1.061463,-0.30956 -1.291007,-0.61197 -0.856278,-1.12862 0.385364,-0.45802 0.938391,-0.45065 1.784904,0.02274 0.545357,0.30498 0.656416,0.26523 0.445967,-0.15813 -0.196051,-0.39439 -0.79405,-0.60825 -1.388545,-0.61856 z m 51.366889,0.02377 c -0.261675,0.0014 -0.446421,0.01424 -0.47439,0.04237 -0.01709,0.01719 -0.03101,1.0375 -0.03101,2.26756 v 2.23656 l 0.490409,-0.0072 c 0.419313,-0.0063 0.471463,-0.02137 0.358635,-0.10387 -0.114131,-0.08344 -0.06298,-0.10389 0.375688,-0.15089 0.279023,-0.0302 0.527824,-0.03335 0.553454,-0.0077 0.02563,0.0256 -0.09205,0.04651 -0.261483,0.04651 -0.169431,0 -0.328493,0.03373 -0.353983,0.07493 -0.02941,0.0476 0.170708,0.07493 0.548287,0.07493 0.327259,0 0.696642,0.02067 0.820621,0.04547 0.22076,0.04416 0.225244,0.03872 0.229444,-0.26251 l 0.0047,-0.30748 h -1.083138 -1.082621 v -0.78755 -0.78755 h 1.017508 1.016993 l -0.02377,-0.24391 -0.02325,-0.24339 -0.993738,-0.02119 -0.993737,-0.02067 v -0.67283 -0.67283 h 1.08107 c 1.118469,0 1.187754,-0.0199 1.111044,-0.31574 -0.0233,-0.08985 -1.501658,-0.18726 -2.286682,-0.18293 z m 19.29339,0.01137 v 0.20102 c 1.2e-4,0.17248 0.0353,0.20521 0.24391,0.22531 l 0.2434,0.02325 0.0574,1.65003 c 0.0648,1.87647 0.0728,1.81915 -0.2589,1.85105 -0.22741,0.02184 -0.25,0.04703 -0.2713,0.30489 l -0.0233,0.28112 0.88574,-0.0155 0.88573,-0.01551 -0.75034,-0.02325 c -1.22988,-0.0377 -1.30597,-0.2482 -0.0858,-0.2372 0.40385,0.0036 0.6974,-0.02716 0.7493,-0.07906 0.11184,-0.11185 -0.0612,-0.22589 -0.34468,-0.22789 l -0.20619,-0.001 5.2e-4,-1.36891 c 8.2e-4,-1.72007 0.0473,-2.15594 0.22893,-2.15594 0.2309,0 0.37052,-0.08609 0.37052,-0.22841 0,-0.12392 -0.0847,-0.13971 -0.86248,-0.16071 z m -46.215777,0.0072 c -0.07162,-0.0057 -0.102608,0.41399 -0.131258,1.77767 l -0.03772,1.7849 -0.241329,-0.47284 c -0.132922,-0.25989 -0.559618,-1.04597 -0.948263,-1.74718 l -0.706933,-1.27485 -0.42013,-0.02274 -0.420646,-0.02222 -0.0088,1.07228 c -0.0049,0.58984 -0.0132,1.54488 -0.0186,2.12235 l -0.0098,1.05007 0.28112,0.02325 0.28112,0.02326 v -1.79989 c 0,-1.95304 0.0357,-2.11018 0.331763,-1.46348 0.510325,1.11469 1.71181,3.18098 1.869136,3.21428 0.08886,0.0188 0.229109,0.04822 0.311609,0.06562 0.0825,0.0174 0.175249,0.03583 0.206189,0.04083 0.03094,0.0048 0.05633,-0.9701 0.05633,-2.16628 0,-2.12112 -0.0036,-2.17543 -0.149861,-2.18643 -0.08249,-0.0061 -0.192353,-0.0146 -0.243913,-0.0186 z m -21.818823,0.0026 c -0.239789,-0.0104 -0.229808,0.16147 -0.191203,1.77354 0.04854,2.02689 0.09228,2.19207 0.656291,2.46393 0.40154,0.1936 0.40581,0.19894 0.186035,0.23254 -0.123742,0.0189 0.197024,0.03845 0.712618,0.04445 0.622546,0.0067 0.899466,-0.0138 0.824756,-0.0615 -0.08913,-0.05695 -0.0501,-0.09672 0.187585,-0.19172 0.599067,-0.23945 0.739099,-0.85699 0.696599,-3.07164 l -0.0217,-1.125 -0.28112,-0.02326 -0.28112,-0.02325 -0.0057,1.56063 c -0.0082,2.22097 -0.125575,2.46899 -1.138949,2.40399 -0.894178,-0.05736 -0.937846,-0.16417 -0.947746,-2.31614 l -0.0078,-1.62316 -0.270268,-0.03152 c -0.0451,-0.0053 -0.08408,-0.0104 -0.118339,-0.01189 z m 74.59699,0.0021 -0.0212,2.26239 -0.0207,2.26292 0.5457,-0.0088 c 0.30025,-0.0048 0.48665,-0.02399 0.41445,-0.04289 -0.28705,-0.07499 -0.10618,-0.17363 0.31884,-0.17363 0.24999,0 0.4501,0.03374 0.4501,0.07544 0,0.12029 0.69891,0.0872 0.88315,-0.04185 0.4469,-0.31302 0.24327,-0.40825 -0.87333,-0.40825 h -1.04024 l -0.0393,-0.293 c -0.0216,-0.16114 -0.0213,-0.51559 5.2e-4,-0.78755 l 0.0398,-0.49455 h 0.96945 0.96945 l -0.0238,-0.24391 -0.0233,-0.24339 -0.97513,-0.03773 c -1.12325,-0.0432 -1.07057,0.0045 -0.97617,-0.87695 l 0.0506,-0.47284 h 1.04283 1.04232 l 0.0481,-0.1912 c 0.0656,-0.2609 0.14878,-0.24512 -1.39578,-0.26562 z m -38.285512,0.0067 v 2.25878 2.25929 l 0.918807,-0.01499 0.918807,-0.01447 -0.825273,-0.04185 c -1.037866,-0.05274 -0.788294,-0.1381 0.505396,-0.1726 1.679351,-0.04473 2.401331,-1.4509 1.081587,-2.10685 l -0.278536,-0.13849 0.254248,-0.28112 c 0.874003,-0.96742 0.278678,-1.66243 -1.468644,-1.71463 z m -32.323091,0.0021 v 2.25826 2.25774 l 0.993738,-0.01602 0.993738,-0.0155 -0.808737,-0.02429 c -1.055879,-0.0315 -0.990037,-0.16905 0.08217,-0.17105 1.487474,-0.0033 1.88929,-0.25528 1.88929,-1.18649 0,-0.6007 -0.140847,-0.84744 -0.56379,-0.98702 -0.305733,-0.1009 -0.325166,-0.165 -0.08888,-0.29146 0.270803,-0.14492 0.364552,-0.36494 0.362252,-0.84801 -0.0037,-0.77919 -0.236541,-0.90489 -1.753382,-0.94619 z m 53.134228,0.0031 -0.0196,2.25671 -0.0196,2.25722 0.46974,-0.01033 c 0.2584,-0.0057 0.39314,-0.02489 0.29972,-0.04289 -0.0934,-0.01798 -0.15027,-0.06402 -0.1266,-0.10232 0.058,-0.0942 0.83815,-0.08934 0.89658,0.0052 0.0255,0.0413 0.246905,0.07493 0.491955,0.07493 0.24704,0 0.44545,-0.03333 0.44545,-0.07493 0,-0.1295 0.21259,-0.08137 0.24857,0.05633 0.0189,0.07218 0.0381,-0.01228 0.0429,-0.18758 l 0.009,-0.31885 h -1.08003 -1.079525 l -0.0264,-0.28112 c -0.0147,-0.15467 -0.0154,-0.50913 -0.002,-0.78755 l 0.0253,-0.50643 h 1.00562 1.006135 v -0.25993 -0.26045 l -1.030935,-0.02118 c -1.18878,-0.02406 -1.12734,0.02725 -1.0325,-0.85835 l 0.0501,-0.47077 1.099675,-0.02067 c 0.90756,-0.01711 1.10262,-0.04043 1.11879,-0.13333 0.0468,-0.26838 -0.0724,-0.29334 -1.444865,-0.30334 z m -16.930754,0.0031 0.03256,1.71359 c 0.03991,2.10339 0.105394,2.32203 0.76016,2.54454 0.382575,0.13005 0.38547,0.13294 0.164331,0.18294 v 5.2e-4 c -0.123742,0.028 0.179925,0.05064 0.674895,0.05064 0.49497,0 0.798637,-0.02253 0.674894,-0.05013 -0.222099,-0.04961 -0.220733,-0.05131 0.118856,-0.13901 0.766261,-0.19792 0.807527,-0.32683 0.835607,-2.60552 l 0.02067,-1.65003 -0.281636,-0.02326 -0.28112,-0.02325 v 1.50895 c 0,2.2686 -0.07286,2.43758 -1.05575,2.43758 -0.545079,0 -0.606417,-0.01591 -0.798401,-0.20774 l -0.208256,-0.20774 -0.03721,-1.74201 -0.03772,-1.74253 -0.290939,-0.02377 z m -28.938801,0.0078 0.02377,0.20774 0.02377,0.20774 0.684196,0.02118 0.684196,0.02119 0.03876,0.34313 c 0.02122,0.18851 0.02062,1.04762 -0.0016,1.90945 l -0.04031,1.56683 h 0.311092 c 0.197319,0 0.312293,-0.03404 0.314193,-0.09354 0.0016,-0.05156 1e-4,-0.74273 -0.0031,-1.53582 -0.0032,-0.79308 0.01664,-1.61022 0.04392,-1.81591 l 0.04961,-0.37414 0.684196,-0.02119 c 0.674313,-0.02112 0.684713,-0.02404 0.684713,-0.20877 v -0.18758 l -1.748731,-0.02016 z m 15.962849,0.0026 0.04806,0.46096 c 0.0265,0.25353 0.04806,1.25925 0.04806,2.235 v 1.77405 l 1.380278,-0.0041 c 0.759044,-0.0022 1.341674,-0.02764 1.294494,-0.05684 -0.06349,-0.0393 -0.06164,-0.07735 0.0072,-0.14625 0.299667,-0.29965 0.144199,-0.35812 -1.010274,-0.37982 l -1.103809,-0.02067 0.0016,-0.30024 c 6.7e-4,-0.16499 0.0079,-0.51064 0.01602,-0.76843 l 0.01447,-0.46871 h 1.012341 1.012858 v -0.26277 -0.26252 h -1.014942 c -1.180104,0 -1.127715,0.03955 -1.050065,-0.7891 l 0.05271,-0.5612 h 1.081071 1.081071 v -0.2248 -0.22479 H 69.94462 Z m 33.394341,5.2e-4 v 2.18281 c 0,1.9597 0.0118,2.17824 0.11834,2.13734 0.0652,-0.025 0.2005,-0.04548 0.30024,-0.04548 0.18129,0 0.18138,-3.1e-4 0.18138,-0.86248 v -0.86248 l 0.2434,-0.0077 c 1.3921,-0.04314 1.32916,-0.08232 1.58853,0.98237 0.12337,0.5064 0.18996,0.65279 0.32401,0.71159 0.20237,0.08878 0.21611,0.16527 0.0377,0.21187 v 5.2e-4 c -0.0722,0.0189 -0.0219,0.03789 0.11214,0.04289 0.20551,0.0073 0.24384,-0.01794 0.2434,-0.1602 -0.001,-0.34979 -0.313,-1.45347 -0.50178,-1.7756 -0.1495,-0.25523 -0.17229,-0.34275 -0.0951,-0.36845 0.34759,-0.11587 0.46375,-0.37829 0.43615,-0.98599 -0.047,-1.03389 -0.29567,-1.18576 -1.9575,-1.19476 z m -56.0219,0.44907 h 0.595313 c 0.600692,0 0.966799,0.0851 1.070736,0.24856 0.163558,0.25722 -0.02279,0.95593 -0.281637,1.05523 -0.06677,0.0256 -0.405696,0.04651 -0.752926,0.04651 H 45.88149 v -0.67489 z m 56.62186,5.1e-4 h 0.65629 c 0.92781,1.6e-4 1.17268,0.12888 1.20458,0.63252 0.0327,0.51654 -0.0295,0.69691 -0.28371,0.82838 -0.1493,0.07716 -0.43844,0.1142 -0.89865,0.1142 h -0.67851 v -0.78755 z m -23.654881,0.01034 c 0.28203,-0.003 0.589678,0.02263 0.725021,0.06253 l 0.28112,0.08268 v 0.44183 c 0,0.38766 -0.02391,0.4604 -0.197404,0.59687 -0.166306,0.13083 -0.303579,0.15554 -0.865581,0.15554 h -0.667659 l 0.0217,-0.65629 0.0217,-0.65629 0.56224,-0.02377 c 0.03867,-0.0016 0.07857,-0.0027 0.118855,-0.0031 z m -3.732588,0.19275 c 0.09828,-0.0023 0.195396,0.31193 0.393774,0.94051 l 0.337447,1.06867 -0.735355,0.0026 c -0.47791,0.0019 -0.726117,-0.02434 -0.707967,-0.07494 0.01537,-0.04286 0.156099,-0.48274 0.312642,-0.97771 0.201776,-0.63802 0.301179,-0.9568 0.399459,-0.95912 z m -17.39377,0.11834 c 0.155364,0.0089 0.316911,0.55378 0.659908,1.77819 0.02643,0.09433 -0.08742,0.11324 -0.703833,0.11524 l -0.734839,0.0031 0.344682,-1.01183 c 0.195794,-0.57449 0.313243,-0.8916 0.434082,-0.8847 z m -11.840621,1.55339 h 0.715202 c 0.923766,0 1.205992,0.10798 1.277442,0.48886 0.07574,0.4037 -0.07844,0.8496 -0.327629,0.9462 -0.111217,0.04311 -0.53163,0.09699 -0.933793,0.11989 l -0.731222,0.04134 v -0.79788 z m 32.24816,0 h 0.731222 c 0.887647,1.4e-4 1.215208,0.12687 1.311548,0.50747 0.09299,0.36734 -0.04761,0.79733 -0.29869,0.91312 -0.113651,0.05238 -0.552347,0.11329 -0.975134,0.13539 l -0.768946,0.04031 v -0.7984 z" /><g
       id="g280"
       transform="translate(2.9921263,-95.938072)"><path
         style="fill:#003f80;fill-opacity:1"
         d="m 27.988913,110.23363 c -5.285198,-5.58081 -17.68402,-6.54296 -24.5950756,-1.90859 -0.4645965,0.31154 -0.4893337,0.31937 -0.5212642,0.16485 -0.018437,-0.0892 -0.084493,-0.38159 -0.1467915,-0.64969 -0.3710738,-1.59696 -0.7951337,-3.58926 -0.901893,-4.23725 -0.1532613,-0.93023 -0.2015251,-1.05746 -0.2702564,-0.71245 -0.04383,0.22001 -0.053889,0.18663 -0.062164,-0.20624 l -0.00987,-0.46872 H 5.5209524 9.560307 L 9.52592,102.0093 C 9.507005,101.8964 9.3260712,101.09075 9.1238428,100.21951 8.9216145,99.348262 8.756155,98.580496 8.756155,98.513361 c 0,-0.111892 0.5905067,-0.122062 7.087071,-0.122062 5.639517,0 7.08707,0.01925 7.08707,0.09424 0,0.05183 -0.0341,0.212134 -0.07577,0.356228 -0.04167,0.144094 -0.227008,0.886326 -0.411855,1.649403 -0.184848,0.76308 -0.357175,1.46335 -0.382951,1.55616 l -0.04686,0.16874 3.777268,8.2e-4 c 4.168978,9.1e-4 4.374144,0.013 4.308533,0.25369 -0.07558,0.27727 -1.452088,6.50446 -1.600565,7.24081 -0.162371,0.80526 -0.202566,0.84653 -0.50918,0.52277 z"
         id="path278" /><g
         id="g279"><path
           id="path239"
           style="fill:#54a1db"
           d="m 6.6960697,125.52128 c -0.021041,-0.093 -0.1713367,-0.74283 -0.3339912,-1.44404 -1.5589569,-6.7207 -2.7988311,-12.57505 -2.701676,-12.75658 0.5302635,-0.99081 2.9720068,-2.99011 4.70933,-3.856 9.5499255,-4.75974 19.9322155,2.95302 17.3653445,12.90031 -0.654915,2.53796 -2.375802,5.32467 -3.288163,5.32467 h -0.3624 l 0.05018,-0.46872 c 0.37754,-3.52626 -0.651894,-5.6809 -2.714197,-5.6809 -0.331658,0 -0.33268,-8.2e-4 -0.211614,-0.16874 1.382142,-1.91712 0.928891,-4.78096 -0.756665,-4.78096 -2.102023,0 -3.086771,4.1951 -1.251064,5.32963 0.320019,0.19778 0.317982,0.23293 -0.02676,0.4618 -0.323919,0.21504 -0.853674,0.7312 -1.087518,1.0596 -0.180007,0.2528 -0.118037,0.22612 0.432394,-0.18612 2.639794,-1.97706 5.134649,0.0885 4.58612,3.79695 l -0.08874,0.59997 -7.141161,0.0191 -7.1411627,0.0191 z m 2.6600489,-1.60076 c 0,-0.0243 -0.1671798,-0.2318 -0.3715105,-0.46105 -0.7734248,-0.86777 -1.1674806,-1.95231 -1.2529278,-3.44839 l -0.048621,-0.85129 0.3802239,-0.36649 c 2.0583368,-1.98397 5.3846778,-1.47973 7.3843438,1.11941 0.431382,0.5607 0.328593,0.0533 -0.159044,-0.78517 -0.709402,-1.21971 -1.640894,-1.72571 -3.545692,-1.92604 l -0.900695,-0.0947 0.06201,-0.30203 c 0.09283,-0.45215 0.05637,-1.16003 -0.07885,-1.53102 l -0.119929,-0.32902 0.731512,0.0524 c 1.729657,0.12385 2.551693,0.45915 3.398219,1.3861 0.541633,0.59309 0.666462,0.58799 0.360105,-0.0147 -0.421613,-0.82944 -1.060917,-1.44056 -1.891068,-1.80769 -0.493086,-0.21807 -0.478889,-0.14181 -0.222764,-1.19665 0.195111,-0.80357 0.203712,-0.82099 0.31873,-0.64548 0.842149,1.28503 1.0504,1.36544 3.867981,1.49359 2.266962,0.10311 2.9032,0.2716 3.923817,1.03914 1.937347,1.45695 3.061319,4.44079 2.274784,6.03893 -0.277502,0.56385 -0.273455,0.75189 0.0065,0.30041 0.644236,-1.03908 0.70796,-3.21886 0.131506,-4.49835 -0.843129,-1.87139 -2.628002,-3.12288 -5.43836,-3.81317 -0.451421,-0.11088 -0.84621,-0.21733 -0.877309,-0.23655 -0.0311,-0.0192 0.17782,-0.48044 0.464264,-1.02494 1.397063,-2.65566 0.880562,-4.31672 -1.499378,-4.82198 -1.702097,-0.36136 -2.838342,0.38853 -3.343886,2.20688 l -0.13138,0.47254 -0.373055,-0.38905 c -1.420561,-1.4815 -3.2037563,-0.96152 -4.4059744,1.28478 -0.4493261,0.83954 -0.7213837,1.16137 -1.041144,1.2316 -0.5456213,0.11984 0.1793608,1.23649 1.1227074,1.72924 l 0.2624841,0.13711 -0.3374796,0.0619 c -1.3952044,0.25576 -1.5398656,0.6116 -1.5334457,3.77193 0.00657,3.23613 0.503289,5.02521 1.6149572,5.81678 0.3649312,0.25986 1.2684067,0.54556 1.2684067,0.40111 z m -1.6879527,-6.1054 c 0.022828,-0.30936 0.081097,-0.94256 0.1294849,-1.40712 l 0.087979,-0.84466 0.1915275,0.58914 c 0.1207806,0.37152 0.2954101,0.71589 0.4727605,0.93227 0.3276613,0.39979 0.3360106,0.43039 0.1174222,0.43039 -0.3301982,0 -0.7921201,0.2938 -0.9192715,0.58469 L 7.62666,118.37759 Z m 1.8004459,-0.74106 c -0.7900724,-0.4935 -1.1541191,-1.41502 -0.7929761,-2.00729 0.4339925,-0.71174 1.3347293,-0.31997 1.8894413,0.82179 0.39942,0.82213 -0.361352,1.64468 -1.0964652,1.1855 z m 0.9220932,-3.01207 c -1.2244733,-0.64665 -1.469397,-3.01024 -0.4165911,-4.02024 1.4587111,-1.39939 3.4512881,0.60643 2.7305131,2.74868 -0.394486,1.17246 -1.427078,1.7399 -2.313922,1.27156 z m 4.229161,-1.03532 c -1.584609,-0.84485 -1.817038,-3.42134 -0.419609,-4.65141 1.30344,-1.14733 3.203029,0.0814 3.18663,2.06119 -0.01569,1.89495 -1.487289,3.27252 -2.767021,2.59022 z m 2.575243,6.68215 c -1.108055,-0.61284 -1.129784,-2.61454 -0.0412,-3.79551 1.590925,-1.72595 3.004227,1.20736 1.556357,3.23021 -0.489422,0.68379 -0.974021,0.86459 -1.515155,0.5653 z" /></g></g></g></svg>
