<svg xmlns="http://www.w3.org/2000/svg" xml:space="preserve" viewBox="0 0 132.29166 34.395833">
  <path d="m84.167008.8072284-.825273.41806c-.453722.23012-.84186.4443399-.86248.4759399-.02062.03165-.02062 1.94269 0 4.24625l.03772 4.1883797.176217.35812c.206683.41973.540705.69808.95343.79478.524224.12282 2.106296.0605 2.255676-.08888.01515-.01515-.06522-.32088-.1788-.67955l-.206706-.6521497-.392224.04857c-.937984.1157297-.876577.4315497-.920357-4.70772zm25.825802.50643c-.19754.00147-.40075.04661-.58911.14108-.64814.3250499-.58634 1.4642999.0899 1.6593299 1.07036.30869 1.9189-.37963 1.51567-1.22939-.17322-.3650199-.58187-.5742599-1.01648-.5710199zM48.13975 3.7837883c-.421815.01113-.870946.09994-1.338419.27337-2.893155 1.07332-2.618693 6.5266797.362768 7.2057597.966051.22003 2.360655.06315 3.211691-.36122.439809-.21931.439964-.23738.01137-.82527-.203394-.2789897-.380414-.5383097-.393774-.5767097-.01336-.03836-.242426.03818-.509013.17053-1.33342.6619697-2.589418.14159-2.811714-1.1653l-.04806-.28112h4.656563l-.001-.80615c-.0037-2.27407-1.31251-3.6821-3.140377-3.63389zm-7.3241.03514c-.56285.00938-1.131873.20891-1.632975.62787-.286346.2394-.337626.22495-.364836-.10387l-.02325-.28164H37.14456l-.01654 4.7625c-.0092 2.6192197-.0022 4.8044397.01602 4.8560397.02396.0676.273999.09353.898136.09353h.865063v-2.84323l.487826.18396c2.90571 1.0937 5.118153-1.4644297 4.246769-4.9102897-.380874-1.50615-1.587914-2.4055-2.826184-2.38487zm64.16093.05013c-.60883-.00186-1.28821.21277-1.9482.65371-.46765.31244-.48858.31899-.50798.15709-.0111-.09282-.0377-.27884-.0594-.41289l-.0398-.2434h-1.56787v3.56206l-.00051 3.5625697h1.72496V8.7581683c0-2.79204-.0625-2.57751.90123-3.07165 1.61604-.82858 1.79886-.52932 1.79886 2.94194v2.5197397h1.79989l-.002-2.4189697c-.002-2.60949-.0593-3.33813-.29507-3.80029-.35573-.69728-1.02125-1.05749-1.80403-1.05988zm-48.216167.00517c-.664553-.00554-1.410859.23817-2.102198.73897-.432865.31357-.466882.30106-.438732-.15865l.02429-.39326-.804085-.0217-.804085-.02119-.02067 3.47111c-.01155 1.90908-.009 3.5130397.0057 3.5646397v.00052c.0194.0679.261242.09353.877466.09353h.850594l.02222-2.4716797c.02591-2.83976-.08028-2.48824.910021-2.99982.761827-.39353 1.067886-.40324 1.457276-.04651l.280086.25632.02274 2.63084.02222 2.6308497H58.855911l-.000536-2.3435297c-.00067-2.7601-.0596-3.43358-.347782-3.96306-.345344-.63451-.994021-.9611-1.74718-.96738zm7.778853.00206c-.631901.00986-1.316234.22952-1.896008.66353-.602565.45112-.575404.4528-.548804-.04031l.02377-.43873h-1.650028l-.01964 3.54397-.01912 3.5434497h1.801441V8.7137183c0-2.8252-.0883-2.53626.927075-3.04477 1.566869-.78471 1.764501-.43538 1.769401 3.13521l.0031 2.3440397H66.740679l-.03152-2.7186997c-.03415-2.9627-.06334-3.20635-.453719-3.7853-.351375-.5211-1.00002-.77908-1.716174-.76791zm50.683204.00259c-1.55713-.01223-3.02978.44947-2.39934 1.20406.14497.17352.31322.4113.37362.52813.13157.25445.17553.25945.4377.05323 1.07807-.84801 2.94747-.55683 3.08974.48111.0577.42115.14218.38619-1.1865.49557-1.59033.13092-2.47135.49172-2.91868 1.19579-.78162 1.23025-.22273 2.9523597 1.11259 3.4287397.68138.24309 1.62518.09721 2.42983-.37569.61894-.36383.66611-.36425.66611-.0041 0 .33371-.006.33187.88677.28267l.77101-.04237-.0269-2.7827797c-.0307-3.14212-.0351-3.17034-.56741-3.71553-.49826-.51029-1.60317-.74043-2.66857-.74879zm-19.189005.00155c-1.584903.00002-3.140529.48535-2.504755 1.18907.146561.16223.319729.39831.384989.52452.131212.25373.270817.29039.419613.1111.29839-.35954 1.307977-.59281 2.087213-.48266.70055.09902.90453.29616 1.02578.99374.0592.34062.12475.3171-1.16789.42427-2.013163.16691-2.887594.65257-3.191022 1.77353-.328255 1.21267.267999 2.5230897 1.291394 2.8375497.818766.25155 1.702968.12031 2.499068-.37052.64808-.39958.67593-.40274.67593-.07958 0 .35832.0969.39927.89969.37827l.71262-.0186V5.5500883l-.22531-.43718c-.12374-.24041-.34415-.53315-.48989-.65061-.50498-.40699-1.46649-.58189-2.41743-.58187zm-25.479063.01395c-.394536.00343-.764408.05683-1.062467.17673-2.577351 1.03679-1.890942 3.55696 1.193209 4.38113 1.327705.3548 1.554851.55838 1.284676 1.15135-.272196.5973797-1.840642.5751597-2.615344-.03721-.210365-.16628-.405869-.29151-.434599-.27801-.299122.14025-1.064535.70026-1.064535.7787597 0 .3589 1.157298 1.09984 1.916162 1.2268 2.65232.44374 4.48326-.91838 3.89537-2.8980197-.228018-.76782-.799503-1.13002-2.586922-1.63814-1.260468-.35833-1.453086-.51134-1.318266-1.04851.163423-.65111 1.690167-.67374 2.416907-.03566.308899.27123.332784.27317.60203.04806.116595-.09748.355415-.25.530717-.339 1.131825-.57443-1.04728-1.50314-2.756938-1.48828zm10.945068.12506-.870748.02067c-.683094.01656-.882998.04554-.928108.13384-.03163.06187-.402723 1.04076-.824756 2.17506-.89391 2.4026-.889492 2.39244-.978752 2.23294-.09208-.16454-1.54569-4.03297-1.60662-4.27571-.06711-.26699-.203534-.30037-1.128096-.27027-.885881.02879-.880998.02382-.594279.58963.10361.20446.665333 1.57856 1.247985 3.05356s1.110349 2.8080897 1.172539 2.9620897c.143445.35525-.172337 1.07106-.67076 1.52136l-.310576.2806-.607198-.04806c-.334161-.0264-.691656-.05614-.794267-.06614-.167398-.01627-.203491.03183-.349849.46922-.241999.72321-.231203.80928.10542.86558.154678.0259.314801.05986.356051.07596 1.756223.68423 3.13799-.37727 4.265889-3.27783.342342-.8803797 1.002977-2.5627297 1.468127-3.7382797.46515-1.17556.891033-2.26507.946713-2.42104zm26.54773.00051.0217.65784.0217.65785h1.08728v2.85615c0 1.57084.0226 2.8787797.0501 2.9062797.0275.0275.43285.05013.90072.05013h.8506l-.0196-3.5434497-.0196-3.54397-1.44642-.02016zm-21.536149.00362c-.822072 0-.895743.01132-.858863.13126.196139.63783 2.636058 6.9684897 2.702678 7.0124897.04783.0316.154178.04075.236678.02015.08249-.0206.361436-.03768.620117-.03824.416265-.00091.478869-.02067.541569-.17001.03897-.09281.529281-1.3836497 1.089856-2.8685597.560575-1.48491 1.132289-2.98665 1.270206-3.33726.310289-.78882.352181-.74144-.647505-.72554l-.836125.01292-.756543 2.26291c-.416176 1.24443-.778182 2.28415-.804602 2.31045-.06267.06237-.357442-.72428-1.074353-2.86701l-.583427-1.74356zm-38.292752 1.1219c.685001.01595 1.336468.5462 1.337902 1.52187v.28163h-1.420068c-1.609075 0-1.560262.02066-1.386995-.59686.234133-.83444.864748-1.22072 1.469161-1.20664zm-7.702372.05736c.611453.01436 1.081742.38423 1.264005 1.05265.390383 1.43166.100745 3.125-.615466 3.59926-.389686.2580497-1.26816.2231997-1.976107-.07855l-.28112-.11989v-1.87895c0-2.14568-.03229-2.03693.70125-2.36833.322626-.14576.629504-.21272.907438-.20619zm56.663728 2.53008c.31418-.00158.27873.16756.27078.78599-.0109.84501.0193.79632-.74311 1.20716-1.053893.5679097-1.928562.24984-1.928562-.70073 0-.72869.42891-1.03066 1.720312-1.21078.32261-.04499.53777-.08093.68058-.08164zm18.876875.05891c1.13309.00731 1.15329 1.34933-.0951 1.9606-1.06396.5209697-1.8712.22096-1.8712-.69505 0-.79525.36163-1.05712 1.72496-1.2485.0854-.01199.16579-.01754.24133-.01705zm12.52533 7.9710897c-.8404-.01465-1.8648.48248-2.11822 1.33583-.446 1.50186.14897 2.95226 1.3131 3.20084.83705.17873 1.87482-.09035 1.87482-.48628 0-.27337-.12026-.29702-.54829-.10748-1.29905.57526-2.17964-.09478-2.17764-1.65778.002-1.6904 1.18306-2.36216 2.42517-1.37925.3486.27585.45531.24689.39171-.10645-.0971-.5396-.58564-.78941-1.16065-.79943zm-49.85483.00051c-.24236.0023-.504624.04118-.784448.11886-1.633658.45353-1.585349 3.84674.06253 4.38784 1.324286.43484 2.460178-.29925 2.591573-1.67483.170907-1.78923-.56091-2.84441-1.869653-2.83187zm-29.214237.02481c-.310927.01835-.613082.80743-1.121895 2.26963-.390052 1.1209-.709517 2.08318-.709517 2.13888 0 .1072.281782.13673.419612.04393.04499-.0303.16849-.30819.274402-.61754l.192236-.56275.936377-.02067.936377-.02067.165365.5457c.198433.65559.255175.73329.534851.73329.267825 0 .273358.06641-.0863-1.03921-.778373-2.39278-1.166251-3.49275-1.541508-3.47059zm61.193677.01447c-.52769.0026-1.06548.17246-1.32861.53381-.62407.85706-.13386 1.5431 1.41232 1.97663.724.203 1.01234.41621 1.01234.74827 0 .86705-1.20553 1.1332-2.02623.44752-.34198-.28572-.55579-.33068-.63149-.13333-.10258.26733.40933.73332.98289.89452 1.19615.33617 2.19986-.23205 2.19986-1.24488 0-.73836-.32907-.98032-1.83709-1.35134-.66809-.16437-.95515-.4979-.79375-.92242.23164-.60921 1.18588-.65402 2.00918-.09457.37096.25207.41.24303.3824-.08734-.0415-.49725-.70338-.77027-1.38182-.76687zm24.84706.00051c-.54983.0015-1.10643.17516-1.3255.53434-.56588.92777-.22336 1.45609 1.25263 1.93218 1.22238.39429 1.30799.48952 1.06557 1.18494-.19818.56848-1.29459.59904-1.94665.05426-.3592-.3001-.59841-.3416-.59841-.10387 0 .39381.48714.7834 1.11776.894.95133.16684 1.69709-.13295 1.86655-.75086l.0718-.26251.0796.18758c.0649.15283.0802.06951.0832-.4501.003-.55665-.12609-.78629-.14779-.26251-.003.08249-.0505-.01387-.10439-.21446-.1153-.42913-.1447-.45269-.82941-.65423-1.5978-.47033-1.6123-.47831-1.6123-.8878 0-.80671 1.31337-1.02485 2.03088-.33744.23291.22314.42072.09879.33952-.2248-.10564-.42086-.71994-.64047-1.34307-.63872zm-15.18461.0098c-.0163.00021-.0326.0032-.0486.0093-.16907.06488-.15032.2147.13849 1.10019.14129.43317.43183 1.32752.64544 1.98748.21361.65996.42257 1.24186.46457 1.29346.0802.0984.41396.12519.61237.04909.10251-.03933 1.19561-3.18405 1.35289-3.89226.0275-.12375.068-.28664.0904-.36174.0344-.11549.003-.13295-.20722-.11265l-.24857.02428-.38964 1.18443c-.21437.65139-.48354 1.52146-.59841 1.93373-.2497.89618-.23808.90684-.7028-.632-.57524-1.90478-.86427-2.58645-1.10898-2.58331zm-68.31313.03824-.04341 1.30483c-.02373.71755-.02929 1.67587-.0124 2.12959.01689.45372.03089.86926.03101.92346.000147.066.0808.09063.243912.07493l.243913-.02326.02119-.9188.02067-.91881h.704867c.640016 0 .940511.08197.940511.25683 0 .196.390931 1.50718.463021 1.55288.131089.08312.437182.0831.437182 0 0-.21824-.396408-1.57109-.523482-1.78646l-.152962-.2589.223759-.22376c1.002331-1.00233.27002-1.99642-1.524455-2.06912zm-7.223848.001v4.44572H45.431906V18.573068h.483691c1.363564 0 1.914465-.45963 1.826245-1.52342-.07208-.86914-.457296-1.1025-1.916162-1.1591zm56.208968.0021c-.094-.0026-.18164.03346-.24908.11472-.18027.21721-1.513595 3.93941-1.513595 4.22559 0 .1083.28119.13897.41806.04547.0443-.0303.16249-.30818.26251-.61753l.181895-.56276h1.87483l.19585.56276c.19819.56912.47029.82934.66146.63303.0815-.08364-.62151-2.24472-1.26711-3.89536-.12045-.30794-.35795-.50028-.56482-.50592zm-14.811496.0093V20.306278l.28112-.02326.28112-.02325.02119-.99374.02067-.99374.935343-.01085c.514396-.0061.977318-.01512 1.028878-.01912.06933-.0055.09956.23686.115755.93018.01204.5156.03719.98191.05581 1.03611.04371.12724.525098.08761.514698-.04238-.0041-.05156-.0124-1.03873-.0186-2.19366l-.01137-2.10013h-.525032v.93328c0 .51316-.02539.94331-.05633.95601-.03094.01279-.502203.01312-1.047481.00052l-.99167-.02326-.02067-.91415-.02119-.91468-.28112-.02325zm20.600286.001-.23203.02274-.23202.02273-.0377 1.76217-.0372 1.76268-.21342-.44907c-.98149-2.06739-1.70221-3.1135-2.1456-3.1135h-.30335l-.016.84388c-.0444 2.33767-.0293 3.47141.0476 3.52381.11683.0797.32697.0694.38137-.0186.0258-.04167.0449-.92729.0429-1.96836-.004-2.12824-.0217-2.09213.49713-1.06815 1.20565 2.37972 1.69264 3.11247 2.06861 3.11247.2692 0 .37344-1.70636.22892-3.7424zm-35.235051.0015.02377.2098c.02143.1867.05669.2115.324011.2279.16499.0101.477465.03769.694015.06149l.393774.04341v1.89446c0 1.04197.02378 1.9187.05323 1.9482.02945.0292.155895.04331.28112.03101l.227893-.02222.02015-1.95027.01964-1.94975.689363-.02068c.692293-.02076.830482-.07642.788582-.31677-.01664-.09544-.284455-.11566-1.76785-.13436zm-16.188676.0031v.44803l.694015.02171.693498.0217.01912 1.87482c.01049 1.03119.03459 1.91727.05374 1.96887v.00052c.01914.0515.154063.09405.299724.09405h.2651v-3.95634l.712101.0093.712618.0088V15.883218l-1.724959-.0072zm26.023734.0031v2.16266c0 1.18715.02218 2.1808.04961 2.21175.0275.0275.162749.05013.30024.05013h.250114V18.201408l.993737-.02067.993221-.02119.02377-.20619c.02371-.20607.0234-.20633-.487308-.21963-.28116-.0074-.730797-.01993-.998906-.02893l-.487308-.01602-.02119-.66456-.0217-.66456.321428-.0021c.176778-.0013.684168-.0096 1.127579-.0186l.806153-.01654v-.44996h-1.42472zm13.199194 0v2.16266c0 1.1893.02211 2.18477.04961 2.21227v.00051c.06225.0618.201467.06364.356568.0041.103597-.03975.118339-.27286.118339-1.83762 0-2.12925-.03615-2.1002.717785-.57309.790603 1.60135.723573 1.60215 1.532203-.01757l.63769-1.27692.0372 1.85673.0377 1.85622h.4501l.0207-2.02468c.0248-2.38746.0283-2.36265-.32246-2.36265-.36672 0-.47517.13733-1.09502 1.38079l-.54312 1.08934-.58033-1.187c-.605016-1.23788-.644236-1.28313-1.123442-1.28313zm18.523929 0v2.21433l-.00052 2.21382 1.36891-.02067 1.36839-.02015.0238-.24701.0243-.24753-1.11156.01136-1.11104.01137-.0212-.7953-.0212-.7953h1.01028c1.05931 0 1.13858-.02435 1.02681-.31832-.0679-.1783-.0831-.1812-1.03198-.18139l-.96273-.00052-.0217-.67489-.0212-.67541 1.13739-.0093c1.25484-.01005 1.23042-.0042 1.16272-.27389l-.0475-.1912h-1.38596zm3.52433 0v2.16266c0 1.1893.0243 2.18648.0537 2.21588v.00052c.0294.0292.1559.04331.28112.03101l.2279-.02222.0207-.9214.0212-.92139.72916.02171.72864.02119.1297.26458c.0712.14551.185.53364.2527.86248.12811.62193.18276.70752.45682.70952.29417.0021.0942-1.28762-.28163-1.81488-.18138-.25453-.18631-.22401.0775-.50643.27519-.2946.34854-.65334.23616-1.15548-.1827-.81643-.43676-.93085-2.08979-.94155zm13.94954 0v4.43384l.88108-.03721c.48466-.0203 1.111-.03886 1.39216-.04186l.5116-.0052-.0238-.20618-.0238-.20619-1.05007-.01241-1.05006-.0124-.0212-.79375-.0212-.79375h.971c.99806 0 1.07664-.02396 1.00304-.30799-.0332-.12797-1.57957-.27519-1.8402-.17518-.13363.05113-.18999-.35803-.14159-1.01958l.0253-.34055 1.06247-.0062 1.06247-.0057.0232-.23513.0238-.23461h-1.39216zm-62.846288.00052V20.297398h.525032v-1.87017c0-1.84091.03859-2.14925.219108-1.74563.437457.97809 1.923189 3.54885 2.072742 3.58635.461392.11579.443288.20192.465088-2.20245l.02015-2.19263H70.558017l-.02015 1.74356-.02015 1.74356-.555005-1.01234c-.305361-.55684-.719405-1.32056-.91984-1.69705-.386452-.72589-.456509-.77773-1.046965-.77773zm-26.248527.00051v4.42351h2.700094v-.53279l-1.043864.02274-1.043347.02274-.04703-.29559c-.02594-.16245-.02459-.52519.0031-.80615l.05064-.51057H43.154c.940368 0 1.002523-.009 1.002523-.14469 0-.32234-.175466-.37862-1.147733-.36742l-.914156.01085-.0217-.66818-.02119-.66817 1.108976-.0057 1.10846-.0062.02377-.23719.02325-.2372h-1.392163zm21.453471 0c-.375894 0-.450501.09417-1.087789 1.37615l-.535368 1.07693-.587561-1.15393c-.617242-1.21291-.713736-1.32198-1.137398-1.28468l-.262517.02274-.0155 2.15646-.01602 2.15594h.525032l-.01654-1.71773c-.01815-1.90462.05157-2.24065.315226-1.52652.169196.45829 1.011495 2.06507 1.119311 2.13527.131665.0857.224832-.05821.883667-1.36581l.623218-1.23765.01912 1.79989c.01051.98994.03562 1.8443.05581 1.8986.02149.0578.122398.08883.243396.07493l.206706-.02377.02325-1.49965c.01282-.82495.0012-1.81213-.02584-2.19367l-.04909-.6935zm1.345137 0v4.42764l1.368909-.02015 1.368392-.02067v-.44959h-2.137338V18.197788h2.024683v-.43202l-.856279-.05322c-.470952-.0293-.921676-.03274-1.002006-.0072-.161765.05134-.238695-.21499-.240295-.83199-.0015-.56735-.03979-.54984 1.207161-.54984.614299 0 1.116258-.02542 1.115695-.05632-.0072-.39773.0081-.39378-1.470195-.39378zm26.086262 0 .02481 1.70584c.03204 2.19642.165355 2.53819 1.0604 2.71508 1.741352.34413 2.150622-.18652 2.15129-2.79001l.000517-1.63091H93.143204l-.02687 1.66864c-.02082 1.28248-.05282 1.7205-.138493 1.89342-.279344.56382-1.246117.65653-1.698604.16278l-.250114-.27285-.001-1.55753c-.0012-1.87214-.0055-1.89446-.351399-1.89446zm-53.272199.03721v2.13734c0 1.17555.01346 2.16803.02997 2.20503.04604.10326 1.941925-.0083 2.380216-.14004.778518-.23396 1.108577-.84686 1.112077-2.06499.0047-1.62525-.551539-2.10455-2.465483-2.12545zm87.651484.0047c-.30585-.003-.6078.0042-.79065.02532-.1434.01658.11276.29163.308.33073.19809.03962.22088.07721.26458.4408.0912.75947.0576 3.06244-.045 3.08974-.40999.10894-.54529.17871-.56689.29093-.0226.11739.0644.12971.91777.12971.77811 0 .9431-.01937.9431-.11007 0-.12996-.22679-.2651-.44494-.2651-.15192 0-.15502-.03108-.15502-1.76217v-1.76268h.1819c.19213 0 .4181-.17501.41806-.32401-.00001-.04487-.52119-.07827-1.03095-.0832zm-46.125854.31988c.22723-.0021.466972.04802.704866.15606.903883.41049.944365 2.81905.05581 3.32693-1.355636.77485-2.552103-.73359-2.015381-2.54093.175306-.59035.674004-.9366 1.254704-.94206zm-40.962873.07028.729154.05478c1.395321.10462 1.737193.49774 1.655713 1.90531-.04282.7396-.220877 1.12012-.612883 1.31154-.331209.16151-1.581171.28228-1.699637.16382-.04261-.04262-.07235-.76892-.07235-1.75442zm14.848705.01757.58136.0062c.820701.0081 1.158569.12251 1.244369.42168.102562.35762-.0029.90465-.198955 1.02991v-.00052c-.150966.09643-1.516711.20273-1.595251.12403-.01716-.01719-.03152-.37993-.03152-.80616zm64.721102 0 .58136.0036c1.0017.0073 1.29043.20388 1.29243.88056.001.38951-.2627.68403-.62838.70073v.00052c-.12804.0058-.46023.0146-.73846.0186l-.50591.0083-.00052-.80615zm-71.845214.00051.206188.0021c1.398637.01664 2.230015 1.11198 1.240752 1.63453v.00051c-.155894.08231-1.337516.17247-1.403016.10697-.02416-.02416-.04392-.42653-.04392-.894zm4.062284.077c.04258-.0018.737422 2.07394.737422 2.20297v.00052c0 .0239-.04249.03693-.09405.02893-.05156-.0085-.385013-.0266-.74104-.0403l-.647505-.02532.347782-1.08211c.191038-.5954.369742-1.08369.397392-1.08469zm51.5617.20516c.11784-.02425.21997.26992.38706.80563.17388.55747.33514 1.06328.35864 1.12448.026.0676.003.10512-.0589.09612-.056-.0085-.40055-.02651-.76584-.04031-.58527-.02213-.6599-.0405-.6258-.15348.37549-1.24417.55336-1.80126.70486-1.83244zm-61.955381 5.5609c-.279493-.0031-.576716.04422-.882116.14676-1.466653.49243-1.394433 3.86232.09302 4.33669 1.782575.56848 2.945242-.62898 2.687691-2.76831-.126752-1.05286-.900401-1.70418-1.898592-1.71514zm22.686987.01757c-.294145-.00023-.591852.05398-.868164.17001-1.466821.616-1.354638 3.74416.153479 4.2814 1.953335.69585 3.485822-1.4658 2.484603-3.5047-.289524-.5896-1.018214-.94613-1.769918-.94671zm-9.106938.01137c-.529687.01172-1.070357.18384-1.387512.54415-1.016461 1.15476-.583734 3.54262.712102 3.93103.731708.21932 1.995658-.02944 2.038118-.40101.03673-.32142-.06815-.37152-.443384-.21084-1.428528.61168-2.243021.0037-2.24224-1.6738.000821-1.76289 1.007199-2.23683 2.605009-1.22732l.243396.154v-.22634c0-.58165-.751329-.90701-1.525489-.88987zm50.728162.02429c-.19488-.00016-.36599.14552-.49041.42684-.34236.77413-1.34233 3.84657-1.29346 3.97392.13239.34499.42347.05727.66818-.66042l.1788-.52504h1.86862l.1788.56276c.19341.60931.24439.67186.5457.67386l.19895.001-.25114-.84387c-.34069-1.14482-1.20627-3.44202-1.3255-3.51762-.0964-.06116-.18996-.0914-.27854-.09146zm-28.87885.0046-.01757.9679c-.0096.53239-.0096 1.49793 0 2.1456.0096.64766.01757 1.21254.01757 1.25574v.00052c0 .0519.458485.07854 1.349789.07854h1.350305v-.52492H75.049735l.02119-.76843.0217-.76894.86248-.0072c1.187692-.0092 1.124479.0051 1.124479-.2558v-.22479l-.843359-.01188c-.464034-.006-.919531-.0049-1.012341.0031-.163957.01408-.168868-.0055-.168982-.68213v-.6966l1.084688.02274 1.085205.02273.04909-.19482c.06862-.27345.117763-.26209-1.383895-.31419zm23.848675 0-.015.89297c-.0151.90463-.0149 1.09691.004 2.67373l.0109.88109h1.34565c1.411125 0 1.479115-.01671 1.398875-.33642-.0443-.17706-.0506-.17711-1.11362-.17311l-1.068665.0052v-1.55752l1.01234-.03773 1.012855-.0372.0232-.20413.0238-.20412-1.036105-.02118-1.03611-.02068-.0217-.65629-.0217-.65629h1.122925c1.07487 0 1.12518-.0068 1.17305-.15761.0841-.26507-.042-.29475-1.452095-.34365zm27.823095.00051v4.47001l1.08211-.04082c1.94394-.07277 2.44368-.53726 2.44068-2.2686-.003-1.54685-.5729-2.02369-2.52905-2.11459zm-56.419284.0093c-.260148.0031-.242087.33469-.259415 2.24585l-.02015 2.19212H70.030407v-1.79989c0-2.11893-.0083-2.1087.628902-.80616.267357.54653.559643 1.11073.649573 1.25367l.163814.25994.175184-.20361c.09631-.11196.404277-.67468.684712-1.25057.647567-1.32976.616125-1.36558.639755.72812l.02015 1.78129.244947.02377.244946.02326-.02015-2.19832-.01964-2.19832-.288871-.02377c-.401745-.03302-.471015.05147-1.066602 1.29553-.630316 1.31665-.508164 1.32377-1.191658-.06873-.542031-1.10417-.581175-1.16184-.822174-1.20704-.123318-.02313-.218097-.04789-.290939-.04702zm11.047388.0047v1.69188c0 1.85459-.02463 1.93683-.367936 1.24489-.12198-.24585-.493932-.93503-.826823-1.53118-.332892-.59614-.605131-1.11931-.605131-1.16271 0-.1331-.272931-.2341-.63252-.2341h-.342615V26.672758H78.579752v-1.92753c0-1.10488.02803-1.89701.06563-1.85621.03607.03918.495637.86417 1.021126 1.83348 1.027424 1.89519 1.067637 1.95026 1.435055 1.95026h.242879l.02894-.76894c.01579-.42278.02164-1.40997.01344-2.19367l-.01447-1.42472-.271301-.02325zm9.125541.001-.232027.02274-.231511.02273-.02015 2.19367-.01964 2.19366h1.298112c1.343564 0 1.495256-.03276 1.423686-.30644-.03686-.141-.960154-.21679-1.875855-.15399l-.243912.01653-.000517-1.03404c-.00017-.56894-.02216-1.46667-.04909-1.99471zm29.431275.0041c-.12269-.0014-.24028.03275-.30231.10749-.14872.1792-1.50689 4.03716-1.50689 4.28036 0 .0958.04.1133.16847.0739.31253-.09581.31414-.09785.62373-.95395l.12971-.35863.93069.02118.9307.02067.16949.50385c.20893.62128.72192 1.14931.72192.74311 0-.26721-1.26744-3.9378-1.47277-4.26538-.0689-.10992-.23501-.17085-.39274-.1726zm-4.27778.0021c-.21356-.0087-.23151.18063-.23151.97617v.90485l-1.03094-.02118-1.03147-.02068-.0372-.9002-.0377-.89969-.21652-.0248c-.37924-.04329-.39222.08171-.29662 2.93729l.0491 1.47433h.50126v-2.02469h2.10013l.0139.35605c.008.19593.0162.64314.0202.99374l.007.63769.27957.02325.27905.02326v-4.35581l-.18707-.04702c-.0723-.01816-.1321-.03055-.18138-.03256zm-73.239448.0015.01654 2.19367c.0091 1.20649.01792 2.20401.01912 2.21691v.00052c.0012.0129.111408.0129.245463 0l.243913-.02377.02067-1.02319.02119-1.0232.991154-.01137c1.06086-.01207 1.123169-.02898 1.055749-.2868-.04134-.15806-.08613-.16862-.803568-.18242-.417977-.008-.861211-.01822-.984953-.02222l-.225309-.0077-.0217-.65267-.0217-.65268h2.180745v-.42778l-.61858-.04806c-.340292-.0265-.956434-.04832-1.368909-.04857zm13.161987 0V26.675778l1.368392-.02015 1.368909-.02067v-.44959l-1.050065-.01291-1.050065-.01241-.02119-.79426c-.01171-.43698.0054-.78997.03772-.78497.03234.0058.48902.006 1.014925.001l.956014-.0093v-.18275c0-.25529-.01224-.25809-1.07487-.27389l-.949812-.01447v-1.32446l1.068668-.02067 1.068669-.02067.02222-.19482.02274-.19482-.734839-.04858c-.404289-.0268-1.030731-.04887-1.391646-.04909zm9.599414 0v2.16266c0 1.18931.02378 2.18648.05323 2.21588.02945.0292.155896.04331.28112.03101.26059-.02553.246625.04233.257865-1.24075l.0078-.84388H67.1805v-.4501h-1.949752l-.000516-.6935v-.69349l.980818.02273c1.015766.02381 1.194243-.01833 1.194243-.28318 0-.14263-.778063-.22606-2.118734-.22686zm22.348506 0c-.344008 0-1.79989 3.52791-1.79989 4.36149 0 .119.03315.13857.168465.09767.252643-.07633.29757-.14009.513664-.72967l.198954-.54209.931209-.02067.931726-.02118.171566.53381c.191395.59426.759127 1.18899.759127.7953 0-.85237-1.51766-4.47466-1.874821-4.47466zm10.008176 0c-.17785 0-.17959.0063-.20051.91881l-.0207.9188h-2.025196l-.03721-.9002-.03772-.89969h-.525032l-.01964 2.19367-.02015 2.19366H94.703804v-2.0252H96.803417v2.0252h.59996v-2.16731c0-2.35428.0181-2.25774-.41599-2.25774zm24.939555 0v4.43436l.24391-.02378.2434-.02325-.0145-1.91254c-.0173-2.25985-.0892-2.23151.91777-.35657 1.21783 2.2676 1.30071 2.377 1.73478 2.2934.12917-.02487.13694-.15387.13694-2.20038v-2.17352h-.52503l.0258 1.70584c.0296 1.98633.02 2.00387-.51315.94878-1.16433-2.30411-1.4426-2.69234-1.92701-2.69234zm-73.441504.0078c-.05401.0045-.0566.0545-.04134.1881.021.18394.06438.22235.287321.25425l.262516.03773.02015 1.7079c.01568 1.32849-.000911 1.71446-.07493 1.73736-.05234.0162-.189694.05015-.304891.07545-.236474.05193-.350885.24975-.198954.34365.196918.1217 1.725842.07232 1.775602-.05736.05508-.14352-.168734-.31988-.406177-.31988h-.173114v-3.51131l.299723-.05116c.677397-.11445.393681-.33748-.430981-.33848-.402163-.0006-.809798-.02184-.905888-.04754-.049-.01313-.08449-.02067-.109037-.01861zm57.705514 0c-.0183.001-.0377.0028-.0584.0052l-.21704.0248-.0202 2.09858c-.011 1.15263-.003 2.13989.017 2.19574.0295.07467.33233.09132 1.33274.07544l1.29501-.02015.0238-.20671.0238-.20618-.81132-.01499c-.44615-.008-.92065-.0091-1.05471-.0021l-.24392.01292-.001-1.89136c-.001-1.90278-.0118-2.08674-.28577-2.07119zm4.3062.02274c-.15003-.00006-.31889.00041-.50902.001l-1.67276.0062v.44959l.69349.0217.69402.02171v3.9026l.28112-.02325.28112-.02326.0202-1.93115.0202-1.93114h.7028c.74562 0 .8828-.06972.72347-.36742-.056-.10484-.1844-.12622-1.23455-.12661zm-27.455168.0041-1.124996.0031v.44959l.693498.0217.694014.02171V26.681488l.28112-.02326.28112-.02325.02015-1.93115.02015-1.93115h.603581c.656091 0 .893485-.07823.893485-.29455 0-.16309-.452219-.20086-2.362129-.19586zm-37.722761.0031-.02015 2.19832-.01964 2.1978.282153-.02326.28267-.02325.02067-1.02888.02119-1.02939.991154-.02067.991671-.02067.02274-.19534.02274-.19534-.985469-.0403c-1.151541-.04671-1.096688-.0075-1.062468-.75035l.02687-.58136H48.065859l-.02325-.24391-.02377-.2434H46.66905Zm-6.177917.31988c.26056-.0019.520117.06954.740523.22789.789731.56742.772398 2.87748-.02481 3.28973-1.431754.74039-2.587703-.72382-2.036568-2.57969.170496-.57413.747617-.93377 1.32085-.93793zm22.576915.01202c.182024-.005.382344.02224.599964.08268 1.048578.29124 1.258687 2.90786.274402 3.41685-1.201408.62127-2.131971-.12739-2.117701-1.70378.01039-1.14773.454565-1.77421 1.243335-1.79575zm65.204801.08371c.34385-.01084 1.51467.16877 1.69963.27647.819.4769.67025 2.6961-.20515 3.06131-.41913.17483-1.60437.22639-1.66347.07235-.0477-.12429.0258-3.34137.0775-3.39307.0101-.0101.0423-.01551.0915-.01706zm-39.944844.06305c.04499-.0043.124667.22425.379821 1.05265.168924.54844.321931 1.03542.340031 1.08262.02334.0609-.185367.08578-.717269.08578-.713724 0-.747944-.0071-.708484-.14986.05272-.1907.663261-2.01441.688331-2.05621.0054-.009.01114-.01437.01757-.01498zm32.463124.05478c.005-.00089.008.00043.0119.0041.0459.04904.67386 2.04167.67386 2.13837 0 .0131-.33236.02377-.73846.02377h-.73794l.16795-.52503c.3517-1.09699.55326-1.62791.6227-1.64124zm-15.99178.0465c.0243-.0064.043.01591.0589.06357.0195.05846.16056.51168.31315 1.00665.15259.49497.29011.93332.30541.97462.0174.0467-.24162.07493-.68574.07493-.8618 0-.84237.05302-.41548-1.16427.22973-.65509.35072-.93616.42375-.9555zm5.27822 5.2865c-.23192-.01499-.51407.77823-1.31774 3.37706-.23765.76845-.25346.76734-.47543-.03773-.5392-1.95567-1.01405-3.20446-1.22783-3.22926-.33381-.03878-.31286.0846.36535 2.16318.69146 2.11916.71392 2.17109.9586 2.17609.13307.0028.12248.02056-.0651.10646l-.22531.10283.39842.0062c.24006.0037.38015-.02276.35295-.06666-.0248-.04008.005-.14991.0661-.24391.15453-.23779 1.41352-4.09209 1.36322-4.17339-.0674-.10907-.12833-.17667-.19327-.18087zm12.13311.02532c-.771.01696-1.52135.5157-1.52135 1.29553 0 .75727.11602.84552 1.74666 1.32189.8159.23834.98489.48811.73433 1.08778-.24147.57789-1.49786.55084-2.02779-.04392-.25363-.2847-.44515-.25826-.47645.06563-.0311.32135.24056.57314.75861.70383l.38964.09819-.29973.04754v.00052c-.16716.0265.13162.04763.6749.04806.54968.0004.8606-.02133.71261-.05013l-.26251-.05116.33745-.0956c1.59662-.45221 1.08537-1.99715-.82321-2.48771-.83904-.21566-.97668-.30994-.97668-.66972 0-.77456.99615-1.01394 1.87482-.4501.57975.37202.82315.20209.41134-.28732-.31976-.38002-.79004-.54348-1.25264-.53331zm-63.124816.01447c-.09465-.0059-.19762.05317-.329696.14987-.12771.09351-1.550293 4.08056-1.550293 4.34495 0 .10561.05903.13591.266651.13591.170201 0 .249127-.029.217557-.0801-.02723-.0439-.09681-.06189-.154512-.03979-.17136.06576-.118936-.06316.05839-.14366.103966-.04718.21233-.22003.29869-.47697.207765-.6183.190452-.60927 1.185457-.60927h.879016l.208256.53072c.114524.2919.259174.55054.321944.57464.0975.03742.0946.05838-.02274.14418-.123937.09043-.110638.10025.137459.10025.3937 0 .322986-.33591-.599446-2.84996-.486324-1.32544-.674851-1.76555-.91674-1.78077zm38.334611.0078c-.821523-.01694-1.631038.48422-1.626776 1.2423.0042.75412.176427.89507 1.571486 1.28622.97213.27257 1.17781.5264.93844 1.156-.2093.55061-1.440313.54732-2.009181-.0052-.292912-.28447-.322168-.29485-.451135-.16588-.272746.27275.08161.71586.709517.8878l.363286.09973-.300241.05065c-.179997.0303.0899.0507.674895.05116.561989.0004.863919-.02126.712619-.05116l-.26252-.0522.2248-.05684c.88902-.22433 1.23842-.88075.87178-1.63814-.19917-.41142-.5089-.59192-1.44126-.8413-.862723-.23075-1.071891-.37144-1.103291-.74052-.0627-.737.995369-.97459 1.884121-.42323.59979.3721.84422.01614.29559-.43046-.30279-.24649-.67871-.36128-1.05213-.36897zm-45.576546.02325c-.480882.01093-.941861.16471-1.170471.48524-.564111.79094-.170082 1.57005.961698 1.90169 1.416894.41518 1.543918.52098 1.374593 1.1498-.187738.69719-1.330911.7438-2.081527.08475-.30032-.26368-.471805-.20524-.471805.16072 0 .25512.176793.38854.756026.57102l.406176.12816-.337447.04806c-.198588.0281.07913.04804.674895.04806.556841 0 .919582-.01432.806152-.03152-.296684-.04494-.253634-.14414.08578-.19844.525995-.08411.910417-.6998.800984-1.28313-.103617-.55232-.524403-.85263-1.586983-1.13223-.947859-.24942-1.080554-.33272-1.080554-.67644 0-.82575.957792-1.06843 1.881022-.47646.450875.28913.628169.29375.559139.01447-.128632-.52046-.874852-.80976-1.577678-.79379zm15.745808.0083c-.228202-.0022-.463642.02511-.691947.08681-1.705176.46084-1.629388 3.908.09508 4.32894.217658.05316.213833.05637-.112654.10387v.00052c-.211322.0307.0272.05016.637687.05116.536217.0013.873567-.0208.749825-.0491-.260364-.0596-.162812-.1078.393258-.1943.364453-.05668.426651-.12168.362251-.37827-.05646-.22496-.216096-.23321-.653707-.03463-1.218608.55295-2.089278-.12514-2.089278-1.62729 0-1.70609.929208-2.32896 2.269112-1.52083.576787.34787.580844.3488.580844.14624 0-.52222-.725467-.90516-1.540475-.91312zm20.851957.0047c-.513827.00084-1.024065.15099-1.259872.47284-.323297.44127-.283872 1.28116.07338 1.56218.181518.14278.39322.21966 1.438155.52503.687724.20098.928106.41494.861446.76636-.163008.85939-1.173641 1.00799-2.13372.31368-.383385-.27724-.441833-.26522-.441833.09146 0 .29539.241654.51368.65474.59118.42194.07916.466913.14651.132292.19741-.16499.0251.155777.04547.712618.04547.574476 0 .882833-.02119.712618-.04909l-.30024-.04909.30024-.08992c.16499-.0494.339166-.08969.387056-.08992.151397-.00073.467039-.4441.520899-.73122.173962-.9273-.368119-1.39007-2.076876-1.7725-.513411-.1149-.711596-.50031-.483692-.94103.270648-.52336 1.125434-.5416 1.855701-.03927.425412.29264.555029.26207.472839-.11214-.09805-.44643-.765118-.69251-1.425751-.69143zm-11.945524.0036c-.203862.0079-.422092.19343-.54622.52245-.480446 1.27348-1.270207 3.66678-1.270207 3.84937 0 .18579.02782.21136.229444.21136.143603 0 .210824-.03.179834-.0801-.02723-.0439-.09681-.06189-.154513-.03979-.173016.06639-.117772-.06366.06098-.14366.104422-.04673.228339-.2379.336414-.51883.219138-.56928.209201-.56538 1.192692-.56638l.832507-.001.120406.28112c.06647.15467.171631.40808.233061.56276.06143.15468.151071.28112.199471.28112.06492 0 .06324.02913-.0057.11213-.0796.09589-.05857.11266.141076.11266.283198 0 .28927-.05639.08527-.78342-.160356-.57147-1.138814-3.3099-1.270723-3.55637-.09153-.17103-.224318-.24881-.363802-.24339zm38.33305.0031c-.16698.00036-.33864.01305-.51004.03875-1.66922.25031-1.87559 3.84083-.24702 4.29793l.46767.13126-.29972.04548c-.16499.0251.12158.04709.63717.04909.51559.0018.85356-.02049.75086-.04909-.23541-.06553-.1369-.12479.31781-.19069.34592-.05015.35657-.05913.35657-.30954 0-.31181-.11261-.32933-.67541-.10749-1.25292.49386-2.09962-.17174-2.09962-1.65003 0-1.61944 1.12487-2.35683 2.30219-1.50895.54909.39546.7651.32439.52761-.17363-.16687-.34994-.80448-.57469-1.52807-.57309zm-74.811959.0083c-.524555-.0091-1.046304.14036-1.286227.46457-.609941.8242-.128674 1.59834 1.224215 1.96938 1.093044.29977 1.319488.57046 1.056783 1.26143-.196124.51586-1.335271.46768-2.021582-.08527-.336946-.27148-.533301-.22941-.533301.11369 0 .23075.612408.6227.972551.6227.26852 0 .162397.14003-.129191.17053-.154678.0162.17438.03052.731221.03152.556841.0011.877608-.01925.712618-.04495l-.299723-.04651.374654-.09819c.604629-.1584.862964-.49215.86248-1.11466-.00056-.71788-.30539-.96938-1.650546-1.36167-1.061463-.30956-1.291007-.61197-.856278-1.12862.385364-.45802.938391-.45065 1.784904.02274.545357.30498.656416.26523.445967-.15813-.196051-.39439-.79405-.60825-1.388545-.61856zm51.366889.02377c-.261675.0014-.446421.01424-.47439.04237-.01709.01719-.03101 1.0375-.03101 2.26756v2.23656l.490409-.0072c.419313-.0063.471463-.02137.358635-.10387-.114131-.08344-.06298-.10389.375688-.15089.279023-.0302.527824-.03335.553454-.0077.02563.0256-.09205.04651-.261483.04651-.169431 0-.328493.03373-.353983.07493-.02941.0476.170708.07493.548287.07493.327259 0 .696642.02067.820621.04547.22076.04416.225244.03872.229444-.26251l.0047-.30748h-2.165759v-1.5751h2.034501l-.02377-.24391-.02325-.24339-.993738-.02119-.993737-.02067v-1.34566h1.08107c1.118469 0 1.187754-.0199 1.111044-.31574-.0233-.08985-1.501658-.18726-2.286682-.18293zm19.29339.01137v.20102c.00012.17248.0353.20521.24391.22531l.2434.02325.0574 1.65003c.0648 1.87647.0728 1.81915-.2589 1.85105-.22741.02184-.25.04703-.2713.30489l-.0233.28112.88574-.0155.88573-.01551-.75034-.02325c-1.22988-.0377-1.30597-.2482-.0858-.2372.40385.0036.6974-.02716.7493-.07906.11184-.11185-.0612-.22589-.34468-.22789l-.20619-.001.00052-1.36891c.00082-1.72007.0473-2.15594.22893-2.15594.2309 0 .37052-.08609.37052-.22841 0-.12392-.0847-.13971-.86248-.16071zm-46.215777.0072c-.07162-.0057-.102608.41399-.131258 1.77767l-.03772 1.7849-.241329-.47284c-.132922-.25989-.559618-1.04597-.948263-1.74718l-.706933-1.27485-.42013-.02274-.420646-.02222-.0088 1.07228c-.0049.58984-.0132 1.54488-.0186 2.12235l-.0098 1.05007.28112.02325.28112.02326v-1.79989c0-1.95304.0357-2.11018.331763-1.46348.510325 1.11469 1.71181 3.18098 1.869136 3.21428.08886.0188.229109.04822.311609.06562.0825.0174.175249.03583.206189.04083.03094.0048.05633-.9701.05633-2.16628 0-2.12112-.0036-2.17543-.149861-2.18643-.08249-.0061-.192353-.0146-.243913-.0186zm-21.818823.0026c-.239789-.0104-.229808.16147-.191203 1.77354.04854 2.02689.09228 2.19207.656291 2.46393.40154.1936.40581.19894.186035.23254-.123742.0189.197024.03845.712618.04445.622546.0067.899466-.0138.824756-.0615-.08913-.05695-.0501-.09672.187585-.19172.599067-.23945.739099-.85699.696599-3.07164l-.0217-1.125-.28112-.02326-.28112-.02325-.0057 1.56063c-.0082 2.22097-.125575 2.46899-1.138949 2.40399-.894178-.05736-.937846-.16417-.947746-2.31614l-.0078-1.62316-.270268-.03152c-.0451-.0053-.08408-.0104-.118339-.01189zm74.59699.0021-.0212 2.26239-.0207 2.26292.5457-.0088c.30025-.0048.48665-.02399.41445-.04289-.28705-.07499-.10618-.17363.31884-.17363.24999 0 .4501.03374.4501.07544 0 .12029.69891.0872.88315-.04185.4469-.31302.24327-.40825-.87333-.40825h-1.04024l-.0393-.293c-.0216-.16114-.0213-.51559.00052-.78755l.0398-.49455h1.9389l-.0238-.24391-.0233-.24339-.97513-.03773c-1.12325-.0432-1.07057.0045-.97617-.87695l.0506-.47284H118.62417l.0481-.1912c.0656-.2609.14878-.24512-1.39578-.26562zm-38.285512.0067v4.51807l.918807-.01499.918807-.01447-.825273-.04185c-1.037866-.05274-.788294-.1381.505396-.1726 1.679351-.04473 2.401331-1.4509 1.081587-2.10685l-.278536-.13849.254248-.28112c.874003-.96742.278678-1.66243-1.468644-1.71463zm-32.323091.0021v4.516l.993738-.01602.993738-.0155-.808737-.02429c-1.055879-.0315-.990037-.16905.08217-.17105 1.487474-.0033 1.88929-.25528 1.88929-1.18649 0-.6007-.140847-.84744-.56379-.98702-.305733-.1009-.325166-.165-.08888-.29146.270803-.14492.364552-.36494.362252-.84801-.0037-.77919-.236541-.90489-1.753382-.94619zm53.134228.0031-.0196 2.25671-.0196 2.25722.46974-.01033c.2584-.0057.39314-.02489.29972-.04289-.0934-.01798-.15027-.06402-.1266-.10232.058-.0942.83815-.08934.89658.0052.0255.0413.246905.07493.491955.07493.24704 0 .44545-.03333.44545-.07493 0-.1295.21259-.08137.24857.05633.0189.07218.0381-.01228.0429-.18758l.009-.31885h-2.159555l-.0264-.28112c-.0147-.15467-.0154-.50913-.002-.78755l.0253-.50643h2.011755V30.127598l-1.030935-.02118c-1.18878-.02406-1.12734.02725-1.0325-.85835l.0501-.47077 1.099675-.02067c.90756-.01711 1.10262-.04043 1.11879-.13333.0468-.26838-.0724-.29334-1.444865-.30334zm-16.930754.0031.03256 1.71359c.03991 2.10339.105394 2.32203.76016 2.54454.382575.13005.38547.13294.164331.18294v.00052c-.123742.028.179925.05064.674895.05064s.798637-.02253.674894-.05013c-.222099-.04961-.220733-.05131.118856-.13901.766261-.19792.807527-.32683.835607-2.60552l.02067-1.65003-.281636-.02326-.28112-.02325v1.50895c0 2.2686-.07286 2.43758-1.05575 2.43758-.545079 0-.606417-.01591-.798401-.20774l-.208256-.20774-.03721-1.74201-.03772-1.74253-.290939-.02377zm-28.938801.0078.02377.20774.02377.20774.684196.02118.684196.02119.03876.34313c.02122.18851.02062 1.04762-.0016 1.90945l-.04031 1.56683h.311092c.197319 0 .312293-.03404.314193-.09354.0016-.05156.0001-.74273-.0031-1.53582-.0032-.79308.01664-1.61022.04392-1.81591l.04961-.37414.684196-.02119c.674313-.02112.684713-.02404.684713-.20877v-.18758l-1.748731-.02016zm15.962849.0026.04806.46096c.0265.25353.04806 1.25925.04806 2.235v1.77405l1.380278-.0041c.759044-.0022 1.341674-.02764 1.294494-.05684-.06349-.0393-.06164-.07735.0072-.14625.299667-.29965.144199-.35812-1.010274-.37982l-1.103809-.02067.0016-.30024c.00067-.16499.0079-.51064.01602-.76843l.01447-.46871H71.230347v-.52529h-1.014942c-1.180104 0-1.127715.03955-1.050065-.7891l.05271-.5612h2.162142v-.44959H69.94462Zm33.394341.00052v2.18281c0 1.9597.0118 2.17824.11834 2.13734.0652-.025.2005-.04548.30024-.04548.18129 0 .18138-.00031.18138-.86248v-.86248l.2434-.0077c1.3921-.04314 1.32916-.08232 1.58853.98237.12337.5064.18996.65279.32401.71159.20237.08878.21611.16527.0377.21187v.00052c-.0722.0189-.0219.03789.11214.04289.20551.0073.24384-.01794.2434-.1602-.001-.34979-.313-1.45347-.50178-1.7756-.1495-.25523-.17229-.34275-.0951-.36845.34759-.11587.46375-.37829.43615-.98599-.047-1.03389-.29567-1.18576-1.9575-1.19476zm-56.0219.44907h.595313c.600692 0 .966799.0851 1.070736.24856.163558.25722-.02279.95593-.281637 1.05523-.06677.0256-.405696.04651-.752926.04651h-.631486v-.67489zm56.62186.00051h.65629c.92781.00016 1.17268.12888 1.20458.63252.0327.51654-.0295.69691-.28371.82838-.1493.07716-.43844.1142-.89865.1142h-.67851v-.78755zm-23.654881.01034c.28203-.003.589678.02263.725021.06253l.28112.08268v.44183c0 .38766-.02391.4604-.197404.59687-.166306.13083-.303579.15554-.865581.15554h-.667659l.0217-.65629.0217-.65629.56224-.02377c.03867-.0016.07857-.0027.118855-.0031zm-3.732588.19275c.09828-.0023.195396.31193.393774.94051l.337447 1.06867-.735355.0026c-.47791.0019-.726117-.02434-.707967-.07494.01537-.04286.156099-.48274.312642-.97771.201776-.63802.301179-.9568.399459-.95912zm-17.39377.11834c.155364.0089.316911.55378.659908 1.77819.02643.09433-.08742.11324-.703833.11524l-.734839.0031.344682-1.01183c.195794-.57449.313243-.8916.434082-.8847zm-11.840621 1.55339h.715202c.923766 0 1.205992.10798 1.277442.48886.07574.4037-.07844.8496-.327629.9462-.111217.04311-.53163.09699-.933793.11989l-.731222.04134v-.79788zm32.24816 0h.731222c.887647.00014 1.215208.12687 1.311548.50747.09299.36734-.04761.79733-.29869.91312-.113651.05238-.552347.11329-.975134.13539l-.768946.04031v-.7984z" style="fill:#023276;fill-opacity:1"/>
  <path d="M27.988913 110.23363c-5.285198-5.58081-17.68402-6.54296-24.5950756-1.90859-.4645965.31154-.4893337.31937-.5212642.16485-.018437-.0892-.084493-.38159-.1467915-.64969-.3710738-1.59696-.7951337-3.58926-.901893-4.23725-.1532613-.93023-.2015251-1.05746-.2702564-.71245-.04383.22001-.053889.18663-.062164-.20624l-.00987-.46872H9.560307l-.034387-.20624c-.018915-.1129-.1998488-.91855-.4020772-1.78979-.2022283-.871248-.3676878-1.639014-.3676878-1.706149 0-.111892.5905067-.122062 7.087071-.122062 5.639517 0 7.08707.01925 7.08707.09424 0 .05183-.0341.212134-.07577.356228-.04167.144094-.227008.886326-.411855 1.649403-.184848.76308-.357175 1.46335-.382951 1.55616l-.04686.16874 3.777268.00082c4.168978.00091 4.374144.013 4.308533.25369-.07558.27727-1.452088 6.50446-1.600565 7.24081-.162371.80526-.202566.84653-.50918.52277z" style="fill:#003f80;fill-opacity:1" transform="translate(2.9921263 -95.938072)"/>
  <path d="M6.6960697 125.52128c-.021041-.093-.1713367-.74283-.3339912-1.44404-1.5589569-6.7207-2.7988311-12.57505-2.701676-12.75658.5302635-.99081 2.9720068-2.99011 4.70933-3.856 9.5499255-4.75974 19.9322155 2.95302 17.3653445 12.90031-.654915 2.53796-2.375802 5.32467-3.288163 5.32467h-.3624l.05018-.46872c.37754-3.52626-.651894-5.6809-2.714197-5.6809-.331658 0-.33268-.00082-.211614-.16874 1.382142-1.91712.928891-4.78096-.756665-4.78096-2.102023 0-3.086771 4.1951-1.251064 5.32963.320019.19778.317982.23293-.02676.4618-.323919.21504-.853674.7312-1.087518 1.0596-.180007.2528-.118037.22612.432394-.18612 2.639794-1.97706 5.134649.0885 4.58612 3.79695l-.08874.59997-7.141161.0191-7.1411627.0191zm2.6600489-1.60076c0-.0243-.1671798-.2318-.3715105-.46105-.7734248-.86777-1.1674806-1.95231-1.2529278-3.44839l-.048621-.85129.3802239-.36649c2.0583368-1.98397 5.3846778-1.47973 7.3843438 1.11941.431382.5607.328593.0533-.159044-.78517-.709402-1.21971-1.640894-1.72571-3.545692-1.92604l-.900695-.0947.06201-.30203c.09283-.45215.05637-1.16003-.07885-1.53102l-.119929-.32902.731512.0524c1.729657.12385 2.551693.45915 3.398219 1.3861.541633.59309.666462.58799.360105-.0147-.421613-.82944-1.060917-1.44056-1.891068-1.80769-.493086-.21807-.478889-.14181-.222764-1.19665.195111-.80357.203712-.82099.31873-.64548.842149 1.28503 1.0504 1.36544 3.867981 1.49359 2.266962.10311 2.9032.2716 3.923817 1.03914 1.937347 1.45695 3.061319 4.44079 2.274784 6.03893-.277502.56385-.273455.75189.0065.30041.644236-1.03908.70796-3.21886.131506-4.49835-.843129-1.87139-2.628002-3.12288-5.43836-3.81317-.451421-.11088-.84621-.21733-.877309-.23655-.0311-.0192.17782-.48044.464264-1.02494 1.397063-2.65566.880562-4.31672-1.499378-4.82198-1.702097-.36136-2.838342.38853-3.343886 2.20688l-.13138.47254-.373055-.38905c-1.420561-1.4815-3.2037563-.96152-4.4059744 1.28478-.4493261.83954-.7213837 1.16137-1.041144 1.2316-.5456213.11984.1793608 1.23649 1.1227074 1.72924l.2624841.13711-.3374796.0619c-1.3952044.25576-1.5398656.6116-1.5334457 3.77193.00657 3.23613.503289 5.02521 1.6149572 5.81678.3649312.25986 1.2684067.54556 1.2684067.40111zm-1.6879527-6.1054c.022828-.30936.081097-.94256.1294849-1.40712l.087979-.84466.1915275.58914c.1207806.37152.2954101.71589.4727605.93227.3276613.39979.3360106.43039.1174222.43039-.3301982 0-.7921201.2938-.9192715.58469l-.1214085.27776Zm1.8004459-.74106c-.7900724-.4935-1.1541191-1.41502-.7929761-2.00729.4339925-.71174 1.3347293-.31997 1.8894413.82179.39942.82213-.361352 1.64468-1.0964652 1.1855zm.9220932-3.01207c-1.2244733-.64665-1.469397-3.01024-.4165911-4.02024 1.4587111-1.39939 3.4512881.60643 2.7305131 2.74868-.394486 1.17246-1.427078 1.7399-2.313922 1.27156zm4.229161-1.03532c-1.584609-.84485-1.817038-3.42134-.419609-4.65141 1.30344-1.14733 3.203029.0814 3.18663 2.06119-.01569 1.89495-1.487289 3.27252-2.767021 2.59022zm2.575243 6.68215c-1.108055-.61284-1.129784-2.61454-.0412-3.79551 1.590925-1.72595 3.004227 1.20736 1.556357 3.23021-.489422.68379-.974021.86459-1.515155.5653z" style="fill:#54a1db" transform="translate(2.9921263 -95.938072)"/>
</svg>
