<svg xmlns="http://www.w3.org/2000/svg" xml:space="preserve" viewBox="0 0 132.292 34.396">
  <path d="M30.981 14.296c-5.285-5.581-17.684-6.543-24.595-1.909-.465.312-.49.32-.521.165a42.17 42.17 0 0 0-.147-.65c-.371-1.597-.795-3.59-.902-4.237-.153-.93-.202-1.058-.27-.713-.044.22-.054.187-.062-.206l-.01-.469h8.078l-.034-.206a79.7 79.7 0 0 0-.402-1.79c-.202-.87-.368-1.639-.368-1.706 0-.112.59-.122 7.087-.122 5.64 0 7.087.02 7.087.094 0 .052-.034.213-.075.357-.042.144-.227.886-.412 1.65a134.52 134.52 0 0 1-.383 1.555l-.047.169h3.777c4.17.002 4.374.014 4.309.255-.076.277-1.452 6.504-1.6 7.24-.163.806-.203.847-.51.523z" style="fill:#003f80;fill-opacity:1" transform="translate(-4.474 -2.453)"/>
  <path d="M9.688 29.583c-.02-.093-.171-.743-.334-1.444-1.559-6.72-2.799-12.575-2.701-12.756.53-.991 2.972-2.99 4.709-3.856 9.55-4.76 19.932 2.953 17.365 12.9-.655 2.538-2.376 5.325-3.288 5.325h-.362l.05-.47c.377-3.525-.652-5.68-2.714-5.68-.332 0-.333 0-.212-.169 1.382-1.917.929-4.78-.757-4.78-2.102 0-3.086 4.194-1.25 5.329.32.198.317.233-.027.462-.324.215-.854.73-1.088 1.06-.18.252-.118.225.432-.187 2.64-1.977 5.135.089 4.587 3.797l-.09.6-7.14.02-7.142.018zm2.66-1.6c0-.025-.167-.232-.371-.462-.774-.867-1.168-1.952-1.253-3.448l-.049-.851.38-.367c2.059-1.984 5.385-1.48 7.385 1.12.431.56.328.053-.16-.786-.709-1.22-1.64-1.725-3.545-1.926l-.9-.094.061-.302c.093-.452.057-1.16-.079-1.531l-.12-.33.732.053c1.73.124 2.552.46 3.398 1.386.542.593.667.588.36-.015a3.816 3.816 0 0 0-1.89-1.807c-.494-.218-.48-.142-.223-1.197.195-.803.203-.82.318-.645.842 1.285 1.05 1.365 3.868 1.493 2.267.103 2.903.272 3.924 1.04 1.937 1.456 3.061 4.44 2.275 6.038-.278.564-.274.752.006.3.645-1.038.708-3.218.132-4.498-.843-1.871-2.628-3.123-5.438-3.813-.452-.11-.847-.217-.878-.236-.03-.02.178-.48.464-1.025 1.398-2.656.881-4.317-1.499-4.822-1.702-.362-2.838.388-3.344 2.207l-.131.472-.373-.389c-1.42-1.481-3.204-.961-4.406 1.285-.45.84-.722 1.161-1.041 1.231-.546.12.179 1.237 1.122 1.73l.263.137-.338.062c-1.395.255-1.54.611-1.533 3.772.006 3.236.503 5.025 1.615 5.816.365.26 1.268.546 1.268.402zm-1.688-6.106c.023-.31.081-.943.13-1.407l.088-.845.191.59c.121.37.296.715.473.932.328.4.336.43.117.43-.33 0-.792.294-.919.585l-.121.278zm1.8-.741c-.79-.494-1.153-1.415-.792-2.007.434-.712 1.334-.32 1.89.821.399.823-.362 1.645-1.097 1.186zm.923-3.012c-1.225-.647-1.47-3.01-.417-4.02 1.459-1.4 3.452.606 2.73 2.748-.394 1.173-1.426 1.74-2.313 1.272zm4.229-1.035c-1.585-.845-1.817-3.422-.42-4.652 1.304-1.147 3.203.082 3.187 2.061-.016 1.895-1.487 3.273-2.767 2.59zm2.575 6.682c-1.108-.613-1.13-2.615-.041-3.796 1.591-1.726 3.004 1.208 1.556 3.23-.489.684-.974.865-1.515.566z" style="fill:#54a1db" transform="translate(-4.474 -2.453)"/>
  <path d="m83.628 4.972-1.75.95v7.3c0 1.492.407 2.293 1.954 2.293.515 0 .963-.068 1.465-.204l-.407-1.316a2.22 2.22 0 0 1-.679.109c-.447 0-.583-.272-.583-1.072zm25.82.557c-.665 0-1.072.312-1.072.936 0 .61.366.923 1.072.923.678 0 1.071-.286 1.071-.923 0-.72-.542-.936-1.071-.936zM40.523 8.052c-.828 0-1.588.367-2.103.842v-.638h-1.641v9.674h1.75v-2.89c.556.326 1.166.475 1.845.475 1.913 0 2.971-1.398 2.971-3.785 0-2.212-.922-3.678-2.822-3.678zm7.19 0c-2.496 0-3.337 1.574-3.337 3.772 0 2.578 1.262 3.69 3.379 3.69 1.289 0 2.062-.393 2.537-.732l-.882-1.208c-.34.272-.869.543-1.533.543-1.059 0-1.628-.678-1.682-1.736h4.558v-1.045c0-1.995-.855-3.284-3.04-3.284zm8.413 0c-.814 0-1.655.435-2.374 1.045v-.841H52.11v7.055h1.75v-4.857c.584-.488 1.276-.882 1.75-.882.72 0 .91.407.91 1.588v4.151h1.75v-4.694c0-1.75-.706-2.565-2.144-2.565zm7.842 0c-.814 0-1.655.435-2.374 1.045v-.841h-1.642v7.055h1.75v-4.857c.584-.488 1.276-.882 1.75-.882.72 0 .91.407.91 1.588v4.151h1.75v-4.694c0-1.75-.706-2.565-2.144-2.565zm6.418 0c-1.425 0-2.85.61-2.85 2.185 0 1.641 1.303 2.049 2.796 2.415.882.217 1.22.393 1.22.8 0 .597-.705.747-1.315.747-.638 0-1.29-.23-1.656-.814l-1.275.773c.556.977 1.723 1.357 2.917 1.357 1.52 0 3.012-.611 3.012-2.253 0-1.6-1.289-1.967-2.442-2.265-.95-.244-1.574-.394-1.574-.91 0-.488.434-.719 1.14-.719.65 0 1.194.258 1.506.733l1.275-.76c-.57-.895-1.587-1.289-2.754-1.289Zm25.25 0c-1.276 0-2.199.272-2.85.815l.855 1.166c.461-.407.99-.665 1.9-.665.881 0 1.383.272 1.383 1.059v.284c-.298.028-1.153.096-1.41.123-1.71.163-2.986.705-2.986 2.415 0 1.33.855 2.266 2.225 2.266.977 0 1.67-.448 2.28-.923v.72h1.642v-4.763c0-1.832-1.031-2.497-3.04-2.497zm8.737 0c-.814 0-1.655.435-2.374 1.045v-.841h-1.642v7.055h1.75v-4.857c.584-.488 1.276-.882 1.75-.882.72 0 .91.407.91 1.588v4.151h1.75v-4.694c0-1.75-.706-2.565-2.144-2.565zm10.583 0c-1.276 0-2.198.272-2.85.815l.856 1.166c.46-.407.99-.665 1.9-.665.881 0 1.383.272 1.383 1.059v.284c-.298.028-1.153.096-1.411.123-1.71.163-2.985.705-2.985 2.415 0 1.33.855 2.266 2.225 2.266.977 0 1.67-.448 2.28-.923v.72h1.641v-4.763c0-1.832-1.031-2.497-3.04-2.497zm-41.084.204 2.687 6.784-.136.325c-.353.842-.718 1.222-1.315 1.222-.285 0-.76-.082-1.154-.23l-.393 1.342c.461.15 1.099.23 1.547.23 1.288 0 2.224-.488 2.835-2.048l2.971-7.625h-1.736l-1.764 4.667-1.737-4.667Zm11.303 0 2.645 7.055h1.384l2.66-7.055H90.14l-1.588 4.68-1.574-4.68zm22.36 0v1.303h1.112v5.752h1.75V8.256ZM47.728 9.355c.922 0 1.343.57 1.343 1.75h-2.876c.095-1.207.583-1.75 1.533-1.75zm-7.68.013c1.058 0 1.48.869 1.48 2.388 0 1.737-.57 2.443-1.493 2.443-.638 0-1.059-.177-1.507-.434v-3.691c.367-.38.937-.706 1.52-.706Zm56.876 2.51v1.547c-.542.407-1.058.733-1.614.733-.597 0-1.018-.285-1.018-.936 0-.8.543-1.126 1.723-1.249.217-.027.746-.081.91-.095zm19.321 0v1.547c-.543.407-1.059.733-1.615.733-.597 0-1.017-.285-1.017-.936 0-.8.543-1.126 1.723-1.249.217-.027.746-.081.91-.095zm-37.691 7.964c-.367 0-.676.053-.928.159-.249.106-.45.259-.605.458-.155.2-.267.443-.336.732a4.345 4.345 0 0 0-.097.965c0 .358.032.68.097.965.07.285.181.528.336.727s.356.352.605.458c.252.106.561.159.928.159s.673-.053.922-.159c.252-.106.456-.258.61-.458s.265-.442.33-.727a4.1 4.1 0 0 0 .104-.965 4.1 4.1 0 0 0-.104-.965 1.834 1.834 0 0 0-.33-.732 1.48 1.48 0 0 0-.61-.458c-.249-.106-.556-.159-.922-.159zm31.985 0c-.517 0-.905.114-1.166.342-.26.228-.391.527-.391.898 0 .191.029.356.086.494a.906.906 0 0 0 .28.354c.127.098.29.184.49.257.199.07.437.132.713.19.359.073.627.172.807.299a.614.614 0 0 1 .274.537.634.634 0 0 1-.097.36.779.779 0 0 1-.25.238c-.099.057-.21.1-.337.129-.122.024-.24.036-.354.036a1.77 1.77 0 0 1-.44-.049 1.444 1.444 0 0 1-.342-.146 1.34 1.34 0 0 1-.262-.214 2.05 2.05 0 0 1-.195-.269l-.47.293c.073.122.158.239.256.349.098.105.214.197.348.274.138.077.297.139.476.183.18.045.387.068.623.068.22 0 .427-.025.623-.074.2-.045.373-.118.52-.22.15-.101.268-.233.353-.396.086-.163.128-.363.128-.599 0-.22-.038-.403-.116-.55a1.039 1.039 0 0 0-.311-.378 1.648 1.648 0 0 0-.483-.257 5.355 5.355 0 0 0-.616-.17 6.892 6.892 0 0 1-.525-.134 1.481 1.481 0 0 1-.349-.153.608.608 0 0 1-.195-.202.569.569 0 0 1-.06-.269c0-.22.083-.397.25-.53.17-.135.413-.202.726-.202.269 0 .489.054.66.164.17.106.315.255.433.446l.458-.305a1.72 1.72 0 0 0-.586-.574c-.244-.147-.564-.22-.959-.22zm17.28 0c-.691 0-1.2.192-1.526.574-.322.383-.482.963-.482 1.74 0 .782.163 1.362.488 1.74.326.38.833.569 1.52.569.27 0 .524-.035.764-.104.24-.07.464-.19.672-.36l-.342-.434c-.057.049-.12.098-.19.147-.069.045-.148.087-.238.128-.09.04-.19.073-.299.098-.11.024-.232.036-.366.036-.253 0-.468-.039-.647-.116a1.076 1.076 0 0 1-.44-.342 1.542 1.542 0 0 1-.25-.567 3.82 3.82 0 0 1-.074-.795c0-.289.025-.545.074-.769.049-.228.128-.42.237-.574a1.04 1.04 0 0 1 .434-.36 1.59 1.59 0 0 1 .66-.122c.158 0 .299.02.421.061a1.157 1.157 0 0 1 .543.372c.061.073.11.143.147.208l.464-.287a1.583 1.583 0 0 0-.562-.592 1.661 1.661 0 0 0-.44-.184 2.196 2.196 0 0 0-.567-.067zm7.071 0c-.517 0-.905.114-1.165.342-.26.228-.392.527-.392.898 0 .191.03.356.086.494a.906.906 0 0 0 .28.354c.127.098.29.184.49.257.2.07.437.132.714.19.358.073.627.172.806.299a.614.614 0 0 1 .275.537.635.635 0 0 1-.098.36.777.777 0 0 1-.25.238c-.098.057-.21.1-.336.129-.122.024-.24.036-.354.036a1.77 1.77 0 0 1-.44-.049 1.444 1.444 0 0 1-.342-.146 1.34 1.34 0 0 1-.263-.214 2.05 2.05 0 0 1-.195-.269l-.47.293c.073.122.159.239.257.349.097.105.213.197.347.274.139.077.298.139.477.183.179.045.386.068.623.068.22 0 .427-.025.622-.074.2-.045.373-.118.52-.22.15-.101.268-.233.354-.396.085-.163.128-.363.128-.599 0-.22-.039-.403-.116-.55a1.039 1.039 0 0 0-.312-.378 1.648 1.648 0 0 0-.482-.257 5.355 5.355 0 0 0-.617-.17 6.892 6.892 0 0 1-.525-.134 1.481 1.481 0 0 1-.348-.153.608.608 0 0 1-.195-.202.569.569 0 0 1-.061-.269c0-.22.083-.397.25-.53.171-.135.413-.202.727-.202.268 0 .488.054.66.164.17.106.315.255.433.446l.458-.305a1.72 1.72 0 0 0-.586-.574c-.245-.147-.565-.22-.96-.22zm-98.045.092v4.44h1.27c.383 0 .717-.033 1.001-.098.29-.07.53-.188.72-.355a1.47 1.47 0 0 0 .434-.677c.098-.29.147-.652.147-1.088 0-.419-.047-.769-.14-1.05a1.537 1.537 0 0 0-.428-.683 1.644 1.644 0 0 0-.72-.373 4.003 4.003 0 0 0-1.026-.116zm4.299 0v4.44h2.772v-.502h-2.204v-1.581h2.008v-.501h-2.008v-1.356h2.204v-.5zm3.486 0v4.44h.568v-1.71h.708c.578 0 .998-.11 1.259-.33.26-.224.39-.584.39-1.081 0-.244-.037-.45-.11-.617a.925.925 0 0 0-.31-.409 1.289 1.289 0 0 0-.514-.226 3.17 3.17 0 0 0-.69-.067zm4.22 0-1.557 4.44h.58l.427-1.24h1.82l.427 1.24h.599l-1.557-4.44zm2.766 0v4.44h.568V22.51h1.123c.31 0 .51.187.599.561l.317 1.301h.574l-.366-1.453a1.358 1.358 0 0 0-.171-.434.519.519 0 0 0-.312-.201 1.12 1.12 0 0 0 .281-.134.894.894 0 0 0 .22-.227c.06-.093.108-.203.14-.33.033-.13.05-.28.05-.451 0-.236-.037-.431-.11-.586a.844.844 0 0 0-.306-.367 1.26 1.26 0 0 0-.495-.195 3.279 3.279 0 0 0-.665-.061zm3.456 0v.5h1.398v3.94h.568v-3.94h1.398v-.5zm3.895 0v4.44h.544v-3.775l1.27 2.553h.367l1.282-2.553v3.774h.543v-4.44h-.769l-1.234 2.462-1.209-2.461zm4.904 0v4.44h2.772v-.502h-2.204v-1.581h2.009v-.501h-2.009v-1.356h2.204v-.5zm3.487 0v4.44h.543V20.47l2.119 3.902h.671v-4.44h-.543v3.56l-1.942-3.56zm3.865 0v.5h1.398v3.94h.568v-3.94h1.398v-.5zm10.024 0v4.44h.568V22.29h1.972v-.501h-1.972v-1.356h2.18v-.5zm4.98 0v4.44h.568v-2.04h2.118v2.04h.568v-4.44h-.568v1.899h-2.118v-1.9zm4.128 0v2.717c0 .33.028.61.085.843s.149.419.275.561c.13.143.3.247.507.312.207.065.462.098.763.098s.556-.03.763-.092c.208-.065.375-.169.501-.311.13-.147.224-.334.28-.562a3.61 3.61 0 0 0 .086-.849v-2.717h-.567v2.668c0 .24-.017.448-.05.623a1.01 1.01 0 0 1-.164.427.68.68 0 0 1-.324.245c-.134.053-.31.08-.525.08-.208 0-.38-.025-.52-.074a.723.723 0 0 1-.323-.244 1.076 1.076 0 0 1-.17-.434 3.536 3.536 0 0 1-.05-.635v-2.656zm4.133 0v4.44h.544v-3.775l1.27 2.553h.367l1.282-2.553v3.774h.543v-4.44h-.77l-1.233 2.462-1.208-2.461zm6.034 0-1.558 4.44h.58l.428-1.24h1.82l.427 1.24h.598l-1.557-4.44zm2.766 0v4.44h.543V20.47l2.119 3.902h.671v-4.44h-.543v3.56l-1.942-3.56zm9.608 0v4.44h2.772v-.502h-2.204v-1.581h2.009v-.501h-2.01v-1.356h2.205v-.5zm3.487 0v4.44h.567V22.51h1.124c.31 0 .51.187.599.561l.317 1.301h.574l-.366-1.453a1.359 1.359 0 0 0-.171-.434.519.519 0 0 0-.312-.201 1.12 1.12 0 0 0 .281-.134.894.894 0 0 0 .22-.227c.061-.093.108-.203.14-.33.033-.13.05-.28.05-.451 0-.236-.037-.431-.11-.586a.844.844 0 0 0-.306-.367 1.26 1.26 0 0 0-.494-.195 3.279 3.279 0 0 0-.666-.061zm3.334 0 1.441 4.44h.763l1.453-4.44h-.58l-1.24 3.908-1.239-3.908zm3.908 0v.446h.556v3.547h-.556v.446h1.679v-.446h-.556V20.38h.556v-.446zm6.4 0v4.44h2.771v-.502h-2.204v-1.581h2.009v-.501h-2.009v-1.356h2.204v-.5zm-51.471.397c.256 0 .47.04.641.122a.978.978 0 0 1 .421.348c.11.154.188.346.232.574.05.228.074.488.074.781 0 .293-.025.554-.074.782a1.464 1.464 0 0 1-.232.568 1.022 1.022 0 0 1-.42.354 1.557 1.557 0 0 1-.642.116c-.257 0-.473-.039-.648-.116a1.076 1.076 0 0 1-.42-.354 1.6 1.6 0 0 1-.233-.568 4.085 4.085 0 0 1-.067-.782c0-.293.022-.553.067-.781.049-.228.126-.42.232-.574.11-.155.25-.27.421-.348.175-.081.391-.122.648-.122zm-26.37.092h.873c.346 0 .598.054.757.164.163.11.244.31.244.599 0 .159-.018.29-.055.397a.55.55 0 0 1-.177.256.765.765 0 0 1-.323.14c-.13.029-.292.043-.483.043h-.836Zm64.766 0h.874c.346 0 .598.054.757.164.163.11.244.31.244.599 0 .159-.018.29-.055.397a.55.55 0 0 1-.177.256.765.765 0 0 1-.323.14c-.13.029-.292.043-.483.043h-.837zm-79.537.011h.671c.31 0 .574.03.794.086a1.085 1.085 0 0 1 .843.806c.065.22.098.495.098.825 0 .321-.031.592-.092.811-.061.22-.16.397-.299.532s-.318.232-.537.293c-.22.057-.489.085-.806.085h-.672zm7.785 0h.703c.166 0 .315.013.445.037.13.025.24.07.33.134a.54.54 0 0 1 .207.257c.05.106.074.24.074.403 0 .191-.025.346-.074.464a.574.574 0 0 1-.207.269.87.87 0 0 1-.354.134c-.143.02-.312.03-.507.03h-.617zm4.006.043.739 2.156h-1.478zm51.671 0 .74 2.156h-1.478zM38.47 26.175c-.366 0-.676.053-.928.159-.248.106-.45.258-.605.458-.154.2-.266.443-.336.732a4.345 4.345 0 0 0-.097.965c0 .358.032.68.097.965a1.9 1.9 0 0 0 .336.727c.155.2.357.352.605.457.252.106.562.16.928.16s.674-.054.922-.16a1.48 1.48 0 0 0 .61-.457c.155-.2.265-.442.33-.727a4.1 4.1 0 0 0 .104-.965 4.1 4.1 0 0 0-.104-.965 1.836 1.836 0 0 0-.33-.732 1.48 1.48 0 0 0-.61-.458c-.248-.106-.556-.159-.922-.159zm14.131 0c-.692 0-1.2.191-1.526.574-.322.382-.483.963-.483 1.74 0 .782.163 1.362.49 1.74.325.38.831.569 1.52.569.268 0 .523-.035.763-.104.24-.07.464-.19.671-.361l-.342-.433c-.057.049-.12.097-.189.146-.069.045-.148.088-.238.128-.09.041-.19.074-.3.098-.11.024-.231.037-.366.037a1.63 1.63 0 0 1-.647-.116 1.074 1.074 0 0 1-.44-.342 1.545 1.545 0 0 1-.25-.568 3.819 3.819 0 0 1-.073-.794c0-.289.024-.545.073-.77.049-.227.128-.419.238-.573a1.04 1.04 0 0 1 .434-.36 1.59 1.59 0 0 1 .66-.123c.158 0 .298.02.42.061a1.16 1.16 0 0 1 .544.373c.061.073.11.143.147.208l.464-.288a1.579 1.579 0 0 0-.562-.592 1.66 1.66 0 0 0-.44-.183 2.196 2.196 0 0 0-.568-.067zm8.888 0c-.366 0-.675.053-.928.159-.248.106-.45.258-.604.458-.155.2-.267.443-.336.732a4.345 4.345 0 0 0-.098.965c0 .358.033.68.098.965a1.9 1.9 0 0 0 .336.727c.154.2.356.352.604.457.253.106.562.16.928.16s.674-.054.922-.16a1.48 1.48 0 0 0 .611-.457c.155-.2.265-.442.33-.727a4.1 4.1 0 0 0 .104-.965 4.1 4.1 0 0 0-.104-.965 1.836 1.836 0 0 0-.33-.732 1.48 1.48 0 0 0-.61-.458c-.25-.106-.556-.159-.923-.159zm-20.13.092v4.439h.568v-2.082h1.972v-.501h-1.972v-1.356h2.18v-.5zm3.535 0v4.439h.568v-2.082h1.973v-.501h-1.973v-1.356h2.18v-.5zm3.316 0v.445h.557v3.548h-.557v.446h1.68v-.446h-.556v-3.548h.556v-.445zm6.791 0v4.439h2.773v-.501h-2.205v-1.581h2.01v-.501h-2.01v-1.356h2.205v-.5zm9.181 0v4.439h.568v-2.082h1.973v-.501H64.75v-1.356h2.18v-.5zm5.11 0v4.439h.544v-3.774l1.27 2.553h.366l1.283-2.553v3.774h.543v-4.44h-.77l-1.233 2.461-1.209-2.46zm4.917 0v4.439h2.772v-.501h-2.204v-1.581h2.008v-.501h-2.008v-1.356h2.204v-.5zm3.5 0v4.439h.543v-3.902l2.119 3.902h.672v-4.44h-.544v3.56l-1.942-3.56zm3.878 0v.5h1.399v3.939h.568v-3.939h1.397v-.5zm4.703 0-1.557 4.439h.58l.427-1.24h1.82l.427 1.24h.599l-1.557-4.44zm2.779 0v4.439h2.65v-.501h-2.082v-3.938zm4.974 0v4.439h.568v-2.04h2.118v2.04h.568v-4.44h-.568v1.9h-2.118v-1.9zm4.152 0v4.439h2.772v-.501h-2.204v-1.581h2.009v-.501h-2.009v-1.356h2.204v-.5zm4.616 0-1.557 4.439h.58l.428-1.24h1.82l.427 1.24h.598l-1.557-4.44zm2.767 0v4.439h2.65v-.501h-2.083v-3.938zm2.753 0v.5h1.399v3.939h.568v-3.939h1.398v-.5zm3.896 0v4.439h.568v-2.04h2.119v2.04h.568v-4.44h-.568v1.9h-2.119v-1.9zm6.722 0-1.557 4.439h.58l.427-1.24h1.82l.427 1.24h.599l-1.557-4.44zm2.766 0v4.439h.544v-3.902l2.118 3.902h.672v-4.44h-.543v3.56l-1.942-3.56zm4.232 0v4.439h1.27a4.53 4.53 0 0 0 1.001-.098c.289-.07.53-.187.72-.354.196-.167.34-.393.434-.678.098-.29.147-.651.147-1.087 0-.42-.047-.769-.14-1.05a1.538 1.538 0 0 0-.428-.684 1.644 1.644 0 0 0-.72-.373 4 4 0 0 0-1.026-.115zm-87.477.396c.256 0 .47.041.641.122a.98.98 0 0 1 .421.349c.11.154.188.346.232.574.05.228.074.488.074.781 0 .293-.025.554-.074.782a1.464 1.464 0 0 1-.232.567 1.023 1.023 0 0 1-.42.355 1.558 1.558 0 0 1-.642.116 1.6 1.6 0 0 1-.647-.116 1.079 1.079 0 0 1-.422-.355 1.6 1.6 0 0 1-.232-.567 4.08 4.08 0 0 1-.067-.782c0-.293.023-.553.067-.781.05-.228.126-.42.232-.574.11-.155.251-.271.422-.349a1.53 1.53 0 0 1 .647-.122zm23.02 0c.256 0 .47.041.64.122a.98.98 0 0 1 .422.349c.11.154.187.346.232.574.049.228.073.488.073.781 0 .293-.024.554-.073.782a1.464 1.464 0 0 1-.232.567 1.023 1.023 0 0 1-.421.355 1.558 1.558 0 0 1-.642.116 1.6 1.6 0 0 1-.647-.116 1.079 1.079 0 0 1-.421-.355 1.6 1.6 0 0 1-.232-.567 4.08 4.08 0 0 1-.068-.782c0-.293.023-.553.068-.781.048-.228.126-.42.232-.574.11-.155.25-.271.421-.349a1.53 1.53 0 0 1 .647-.122zm65.025.104h.671c.31 0 .574.029.794.086a1.085 1.085 0 0 1 .842.806c.066.22.098.494.098.824 0 .322-.03.593-.091.812-.061.22-.161.397-.3.532a1.226 1.226 0 0 1-.537.293c-.22.057-.488.085-.806.085h-.671zm-39.871.043.739 2.156h-1.478zm16.521 0 .74 2.156h-1.478zm16.138 0 .74 2.156h-1.479zm-81.248 5.548c-.517 0-.906.114-1.166.342-.26.228-.391.527-.391.897 0 .192.028.357.085.495a.907.907 0 0 0 .281.354c.127.098.29.183.489.256.2.07.437.133.714.19.358.073.627.173.806.3a.614.614 0 0 1 .275.537.635.635 0 0 1-.098.36.778.778 0 0 1-.25.237c-.098.057-.21.1-.336.13-.122.024-.24.036-.354.036a1.77 1.77 0 0 1-.44-.05 1.441 1.441 0 0 1-.342-.146 1.338 1.338 0 0 1-.262-.213 2.057 2.057 0 0 1-.196-.27l-.47.294c.074.122.159.238.257.348.097.106.213.197.347.275.139.077.298.138.477.183.179.045.387.067.623.067.22 0 .427-.024.623-.073.2-.045.372-.118.519-.22.15-.102.268-.234.354-.397.085-.163.128-.362.128-.598 0-.22-.039-.403-.116-.55a1.039 1.039 0 0 0-.312-.378 1.645 1.645 0 0 0-.482-.257 5.362 5.362 0 0 0-.617-.171 6.892 6.892 0 0 1-.525-.134 1.478 1.478 0 0 1-.348-.153.608.608 0 0 1-.195-.201.569.569 0 0 1-.061-.27c0-.219.083-.396.25-.53.171-.135.413-.202.727-.202.269 0 .488.055.66.165.17.106.315.255.433.446l.458-.306a1.72 1.72 0 0 0-.586-.574c-.245-.146-.564-.22-.959-.22Zm12.115 0c-.517 0-.906.114-1.167.342-.26.228-.39.527-.39.897 0 .192.028.357.085.495a.907.907 0 0 0 .28.354c.127.098.29.183.49.256.199.07.437.133.714.19.358.073.626.173.806.3a.614.614 0 0 1 .275.537.635.635 0 0 1-.098.36.776.776 0 0 1-.25.237c-.098.057-.21.1-.336.13-.122.024-.24.036-.355.036-.167 0-.313-.017-.439-.05a1.445 1.445 0 0 1-.342-.146 1.338 1.338 0 0 1-.263-.213 2.052 2.052 0 0 1-.195-.27l-.47.294c.073.122.158.238.256.348.098.106.214.197.348.275.139.077.297.138.476.183.18.045.388.067.624.067.22 0 .427-.024.622-.073.2-.045.373-.118.52-.22.15-.102.268-.234.354-.397.085-.163.128-.362.128-.598 0-.22-.04-.403-.116-.55a1.037 1.037 0 0 0-.312-.378 1.648 1.648 0 0 0-.482-.257 5.352 5.352 0 0 0-.617-.171 6.911 6.911 0 0 1-.525-.134 1.478 1.478 0 0 1-.348-.153.608.608 0 0 1-.195-.201.569.569 0 0 1-.061-.27c0-.219.083-.396.25-.53.17-.135.413-.202.726-.202.269 0 .489.055.66.165.17.106.315.255.433.446l.459-.306a1.721 1.721 0 0 0-.587-.574c-.244-.146-.564-.22-.958-.22zm16.045 0c-.692 0-1.201.191-1.527.574-.322.382-.483.962-.483 1.74 0 .781.164 1.362.49 1.74.325.379.832.568 1.52.568.268 0 .523-.034.763-.104.24-.069.464-.189.672-.36l-.342-.433a2.55 2.55 0 0 1-.19.146c-.069.045-.148.088-.238.128-.09.041-.19.074-.3.098-.109.025-.231.037-.365.037a1.63 1.63 0 0 1-.648-.116 1.074 1.074 0 0 1-.44-.343 1.545 1.545 0 0 1-.25-.567 3.819 3.819 0 0 1-.073-.794c0-.29.024-.546.073-.77.049-.228.128-.419.238-.573a1.04 1.04 0 0 1 .434-.36 1.59 1.59 0 0 1 .66-.123c.158 0 .298.02.42.061a1.161 1.161 0 0 1 .544.373c.061.073.11.142.147.207l.464-.286a1.582 1.582 0 0 0-.562-.593 1.66 1.66 0 0 0-.44-.183 2.196 2.196 0 0 0-.567-.067zm20.48 0c-.517 0-.906.114-1.166.342-.26.228-.391.527-.391.897 0 .192.028.357.085.495a.907.907 0 0 0 .281.354c.127.098.29.183.489.256.2.07.437.133.714.19.358.073.627.173.806.3a.614.614 0 0 1 .275.537.635.635 0 0 1-.098.36.778.778 0 0 1-.25.237c-.098.057-.21.1-.336.13-.122.024-.24.036-.354.036a1.77 1.77 0 0 1-.44-.05 1.441 1.441 0 0 1-.342-.146 1.338 1.338 0 0 1-.262-.213 2.057 2.057 0 0 1-.196-.27l-.47.294c.074.122.159.238.257.348.097.106.213.197.347.275.139.077.298.138.477.183.179.045.386.067.623.067.22 0 .427-.024.623-.073.2-.045.372-.118.519-.22.15-.102.268-.234.354-.397.085-.163.128-.362.128-.598 0-.22-.039-.403-.116-.55a1.039 1.039 0 0 0-.312-.378 1.645 1.645 0 0 0-.482-.257 5.362 5.362 0 0 0-.617-.171 6.892 6.892 0 0 1-.525-.134 1.478 1.478 0 0 1-.348-.153.608.608 0 0 1-.195-.201.569.569 0 0 1-.061-.27c0-.219.083-.396.25-.53.171-.135.413-.202.727-.202.268 0 .488.055.66.165.17.106.315.255.433.446l.458-.306a1.72 1.72 0 0 0-.586-.574c-.245-.146-.564-.22-.959-.22Zm8.932 0c-.517 0-.906.114-1.166.342-.26.228-.39.527-.39.897 0 .192.028.357.085.495a.905.905 0 0 0 .28.354c.127.098.29.183.489.256.2.07.438.133.715.19.358.073.627.173.806.3a.614.614 0 0 1 .274.537.635.635 0 0 1-.097.36.776.776 0 0 1-.25.237c-.098.057-.21.1-.336.13-.123.024-.24.036-.354.036a1.77 1.77 0 0 1-.44-.05 1.445 1.445 0 0 1-.342-.146 1.338 1.338 0 0 1-.263-.213 2.052 2.052 0 0 1-.195-.27l-.47.294c.073.122.158.238.256.348.098.106.214.197.348.275.139.077.297.138.476.183.18.045.387.067.623.067.22 0 .428-.024.623-.073.2-.045.372-.118.519-.22.15-.102.269-.234.354-.397.086-.163.129-.362.129-.598 0-.22-.04-.403-.117-.55a1.037 1.037 0 0 0-.31-.378 1.648 1.648 0 0 0-.484-.257 5.352 5.352 0 0 0-.616-.171 6.892 6.892 0 0 1-.525-.134 1.482 1.482 0 0 1-.348-.153.608.608 0 0 1-.196-.201.569.569 0 0 1-.06-.27c0-.219.083-.396.25-.53.17-.135.413-.202.726-.202.269 0 .489.055.66.165.17.106.315.255.433.446l.458-.306a1.721 1.721 0 0 0-.586-.574c-.244-.146-.564-.22-.959-.22Zm17.902 0c-.692 0-1.2.191-1.526.574-.322.382-.482.962-.482 1.74 0 .781.163 1.362.488 1.74.326.379.833.568 1.52.568.27 0 .524-.034.764-.104.24-.069.464-.189.672-.36l-.343-.433c-.057.048-.12.097-.189.146-.069.045-.148.088-.238.128-.09.041-.19.074-.3.098-.109.025-.231.037-.366.037-.252 0-.467-.04-.646-.116a1.076 1.076 0 0 1-.44-.343 1.545 1.545 0 0 1-.25-.567 3.822 3.822 0 0 1-.074-.794c0-.29.025-.546.074-.77.049-.228.127-.419.237-.573a1.04 1.04 0 0 1 .434-.36 1.59 1.59 0 0 1 .66-.123c.158 0 .299.02.421.061a1.158 1.158 0 0 1 .543.373c.061.073.11.142.147.207l.464-.286a1.583 1.583 0 0 0-.562-.593 1.66 1.66 0 0 0-.44-.183 2.196 2.196 0 0 0-.568-.067zm7.32 0c-.517 0-.905.114-1.166.342-.26.228-.39.527-.39.897 0 .192.028.357.085.495a.907.907 0 0 0 .28.354c.127.098.29.183.49.256.199.07.437.133.713.19.359.073.627.173.807.3a.614.614 0 0 1 .274.537.634.634 0 0 1-.097.36.777.777 0 0 1-.25.237c-.099.057-.21.1-.337.13-.122.024-.24.036-.354.036a1.77 1.77 0 0 1-.44-.05 1.441 1.441 0 0 1-.341-.146 1.341 1.341 0 0 1-.263-.213 2.05 2.05 0 0 1-.195-.27l-.47.294c.073.122.158.238.256.348.098.106.214.197.348.275.138.077.297.138.476.183.18.045.387.067.623.067.22 0 .427-.024.623-.073.2-.045.373-.118.52-.22.15-.102.268-.234.353-.397.086-.163.128-.362.128-.598 0-.22-.038-.403-.116-.55a1.039 1.039 0 0 0-.311-.378 1.645 1.645 0 0 0-.482-.257 5.362 5.362 0 0 0-.617-.171 6.892 6.892 0 0 1-.525-.134 1.477 1.477 0 0 1-.348-.153.61.61 0 0 1-.196-.201.569.569 0 0 1-.061-.27c0-.219.084-.396.25-.53.172-.135.414-.202.727-.202.269 0 .489.055.66.165.17.106.315.255.433.446l.458-.306a1.72 1.72 0 0 0-.586-.574c-.244-.146-.564-.22-.959-.22zm-80.329.091v2.717c0 .33.028.611.085.843.057.232.149.42.275.562.13.142.299.246.507.312.207.065.462.097.763.097s.556-.03.763-.091c.208-.065.375-.17.5-.312.131-.146.225-.334.282-.562.057-.232.085-.515.085-.849V32.45h-.568v2.669c0 .24-.016.447-.048.622a1.01 1.01 0 0 1-.165.428.68.68 0 0 1-.324.244c-.134.053-.31.08-.525.08-.208 0-.38-.025-.519-.074a.723.723 0 0 1-.323-.244 1.076 1.076 0 0 1-.171-.434 3.53 3.53 0 0 1-.05-.635V32.45zm4.266 0v4.44h1.453c.57 0 1.001-.104 1.295-.312.293-.212.44-.551.44-1.02 0-.17-.025-.32-.074-.445a.944.944 0 0 0-.519-.544 1.313 1.313 0 0 0-.39-.103c.203-.07.368-.182.494-.336.13-.155.195-.377.195-.666 0-.17-.026-.32-.08-.446a.728.728 0 0 0-.262-.317 1.289 1.289 0 0 0-.488-.19c-.2-.04-.448-.06-.745-.06zm7.506 0v.5h1.399v3.94h.568v-3.94h1.398v-.5zm4.822 0-1.557 4.44h.58l.428-1.24h1.82l.427 1.24h.598l-1.557-4.44zm2.899 0v4.44h.543v-3.902l2.12 3.902h.67v-4.44h-.543v3.56l-1.942-3.56zm8.538 0v4.44h2.772v-.501H69.12v-1.582h2.009v-.5h-2.009V32.95h2.204v-.5zm5.779 0-1.557 4.44h.58l.428-1.24H75.6l.427 1.24h.599l-1.557-4.44zm2.845 0v4.44h1.454c.57 0 1.001-.104 1.294-.312.293-.212.44-.551.44-1.02 0-.17-.024-.32-.073-.445a.944.944 0 0 0-.52-.544 1.313 1.313 0 0 0-.39-.103c.203-.07.368-.182.494-.336.13-.155.196-.377.196-.666 0-.17-.027-.32-.08-.446a.728.728 0 0 0-.262-.317 1.291 1.291 0 0 0-.489-.19c-.2-.04-.447-.06-.745-.06zm3.927 0v2.717c0 .33.028.611.085.843.057.232.148.42.275.562.13.142.299.246.507.312.207.065.462.097.763.097s.556-.03.763-.091c.208-.065.375-.17.5-.312.131-.146.225-.334.282-.562.057-.232.085-.515.085-.849V32.45h-.568v2.669c0 .24-.016.447-.048.622a1.01 1.01 0 0 1-.165.428.682.682 0 0 1-.324.244c-.134.053-.31.08-.525.08-.208 0-.38-.025-.519-.074a.724.724 0 0 1-.324-.244 1.076 1.076 0 0 1-.17-.434 3.53 3.53 0 0 1-.05-.635V32.45zm8.029 0v4.44h2.772v-.501H89.7v-1.582h2.01v-.5h-2.01V32.95h2.204v-.5zm8.978 0v4.44h2.772v-.501h-2.204v-1.582h2.008v-.5h-2.008V32.95h2.204v-.5zm3.61 0v4.44h.568v-1.863h1.124c.31 0 .51.188.599.562l.317 1.3h.574l-.366-1.453a1.363 1.363 0 0 0-.171-.434.519.519 0 0 0-.312-.201c.102-.033.196-.077.281-.134a.892.892 0 0 0 .22-.226c.06-.094.108-.204.14-.33.033-.13.05-.28.05-.452 0-.236-.037-.431-.11-.586a.844.844 0 0 0-.306-.366 1.26 1.26 0 0 0-.495-.196 3.28 3.28 0 0 0-.665-.06zm3.46 0 1.44 4.44h.764l1.453-4.44h-.58l-1.24 3.908-1.24-3.908zm4.031 0v.446h.556v3.548h-.556v.446h1.68v-.446h-.556v-3.548h.555v-.446zm6.649 0v4.44h2.771v-.501h-2.204v-1.582h2.01v-.5h-2.01V32.95h2.204v-.5Zm-70.505.489h.72c.171 0 .32.008.446.024.13.017.238.05.324.098.085.045.148.11.189.195.04.086.061.196.061.33 0 .248-.083.431-.25.55-.167.117-.436.177-.806.177h-.684zm32.39 0h.72c.17 0 .32.008.445.024.13.017.238.05.324.098a.42.42 0 0 1 .19.195.77.77 0 0 1 .06.33c0 .248-.083.431-.25.55-.167.117-.435.177-.806.177h-.684zm24.543 0h.874c.346 0 .598.055.757.165.163.11.244.31.244.598 0 .16-.018.291-.055.397a.55.55 0 0 1-.177.256.765.765 0 0 1-.323.141c-.13.029-.292.042-.483.042h-.837zm-44.819.055.74 2.155H56.73zm17.216 0 .739 2.155h-1.478zM45.354 34.8h.794c.199 0 .374.01.525.031a1 1 0 0 1 .385.11.52.52 0 0 1 .238.238c.053.102.079.236.079.403 0 .183-.037.33-.11.44a.668.668 0 0 1-.293.243 1.45 1.45 0 0 1-.44.104 7.382 7.382 0 0 1-.537.019h-.641zm32.39 0h.793c.2 0 .375.01.525.031a.998.998 0 0 1 .385.11.52.52 0 0 1 .238.238c.053.102.08.236.08.403 0 .183-.037.33-.11.44a.668.668 0 0 1-.293.243 1.454 1.454 0 0 1-.44.104 7.382 7.382 0 0 1-.538.019h-.64z" style="font-style:normal;font-variant:normal;font-weight:700;font-stretch:normal;font-size:13.5678px;font-family:&quot;Felbridge Std&quot;;-inkscape-font-specification:&quot;Felbridge Std Bold&quot;;text-align:start;writing-mode:lr-tb;direction:ltr;text-anchor:start;opacity:1;fill:#023276;fill-rule:evenodd;stroke-width:1.93827;stroke-linejoin:round;stroke-miterlimit:0;paint-order:stroke fill markers" transform="translate(-4.474 -2.453)"/>
</svg>
