<?xml version="1.0" encoding="UTF-8" standalone="no"?>
<!-- Created with Inkscape (http://www.inkscape.org/) -->

<svg
   width="500"
   height="130"
   viewBox="0 0 132.29166 34.395833"
   version="1.1"
   id="svg1"
   xml:space="preserve"
   inkscape:version="1.4 (86a8ad7, 2024-10-11)"
   sodipodi:docname="omhsas.svg"
   xmlns:inkscape="http://www.inkscape.org/namespaces/inkscape"
   xmlns:sodipodi="http://sodipodi.sourceforge.net/DTD/sodipodi-0.dtd"
   xmlns="http://www.w3.org/2000/svg"
   xmlns:svg="http://www.w3.org/2000/svg"><sodipodi:namedview
     id="namedview1"
     pagecolor="#ffffff"
     bordercolor="#111111"
     borderopacity="1"
     inkscape:showpageshadow="0"
     inkscape:pageopacity="0"
     inkscape:pagecheckerboard="1"
     inkscape:deskcolor="#d1d1d1"
     inkscape:document-units="px"
     inkscape:zoom="1.5714646"
     inkscape:cx="147.3148"
     inkscape:cy="1.9090471"
     inkscape:window-width="1920"
     inkscape:window-height="1115"
     inkscape:window-x="-9"
     inkscape:window-y="-9"
     inkscape:window-maximized="1"
     inkscape:current-layer="layer1"
     showgrid="false" /><defs
     id="defs1" /><g
     inkscape:groupmode="layer"
     id="layer1"
     inkscape:label="Layer 1"
     transform="translate(-4.4737246,-2.453227)"><g
       id="g64"
       inkscape:label="logo"><path
         style="fill:#003f80;fill-opacity:1"
         d="M 30.981039,14.295558 C 25.695841,8.714748 13.297019,7.752598 6.3859637,12.386968 5.9213672,12.698508 5.89663,12.706338 5.8646995,12.551818 5.8462625,12.462618 5.7802065,12.170228 5.717908,11.902128 5.3468342,10.305168 4.9227743,8.312868 4.816015,7.664878 4.6627537,6.734648 4.6144899,6.607418 4.5457586,6.952428 c -0.04383,0.22001 -0.053889,0.18663 -0.062164,-0.20624 l -0.00987,-0.46872 h 4.0393541 4.0393543 l -0.03439,-0.20624 c -0.01891,-0.1129 -0.199848,-0.91855 -0.402077,-1.78979 -0.202228,-0.871248 -0.367688,-1.639014 -0.367688,-1.706149 0,-0.111892 0.590507,-0.122062 7.087071,-0.122062 5.639517,0 7.08707,0.01925 7.08707,0.09424 0,0.05183 -0.0341,0.212134 -0.07577,0.356228 -0.04167,0.144094 -0.227008,0.886326 -0.411855,1.649403 -0.184848,0.76308 -0.357175,1.46335 -0.382951,1.55616 l -0.04686,0.16874 3.777268,8.2e-4 c 4.168978,9.1e-4 4.374144,0.013 4.308533,0.25369 -0.07558,0.27727 -1.452088,6.50446 -1.600565,7.24081 -0.162371,0.80526 -0.202566,0.84653 -0.50918,0.52277 z"
         id="path278" /><path
         id="path239"
         style="fill:#54a1db"
         d="m 9.688196,29.583208 c -0.021041,-0.093 -0.1713367,-0.74283 -0.3339912,-1.44404 -1.5589569,-6.7207 -2.7988311,-12.57505 -2.701676,-12.75658 0.5302635,-0.99081 2.9720068,-2.99011 4.7093302,-3.856 9.549925,-4.75974 19.932215,2.95302 17.365344,12.90031 -0.654915,2.53796 -2.375802,5.32467 -3.288163,5.32467 h -0.3624 l 0.05018,-0.46872 c 0.37754,-3.52626 -0.651894,-5.6809 -2.714197,-5.6809 -0.331658,0 -0.33268,-8.2e-4 -0.211614,-0.16874 1.382142,-1.91712 0.928891,-4.78096 -0.756665,-4.78096 -2.102023,0 -3.086771,4.1951 -1.251064,5.32963 0.320019,0.19778 0.317982,0.23293 -0.02676,0.4618 -0.323919,0.21504 -0.853674,0.7312 -1.087518,1.0596 -0.180007,0.2528 -0.118037,0.22612 0.432394,-0.18612 2.639794,-1.97706 5.134649,0.0885 4.58612,3.79695 l -0.08874,0.59997 -7.141161,0.0191 -7.1411624,0.0191 z m 2.660049,-1.60076 c 0,-0.0243 -0.16718,-0.2318 -0.371511,-0.46105 -0.773424,-0.86777 -1.16748,-1.95231 -1.252927,-3.44839 l -0.04862,-0.85129 0.380224,-0.36649 c 2.058336,-1.98397 5.384677,-1.47973 7.384343,1.11941 0.431382,0.5607 0.328593,0.0533 -0.159044,-0.78517 -0.709402,-1.21971 -1.640894,-1.72571 -3.545692,-1.92604 l -0.900695,-0.0947 0.06201,-0.30203 c 0.09283,-0.45215 0.05637,-1.16003 -0.07885,-1.53102 l -0.119929,-0.32902 0.731512,0.0524 c 1.729657,0.12385 2.551693,0.45915 3.398219,1.3861 0.541633,0.59309 0.666462,0.58799 0.360105,-0.0147 -0.421613,-0.82944 -1.060917,-1.44056 -1.891068,-1.80769 -0.493086,-0.21807 -0.478889,-0.14181 -0.222764,-1.19665 0.195111,-0.80357 0.203712,-0.82099 0.31873,-0.64548 0.842149,1.28503 1.0504,1.36544 3.867981,1.49359 2.266962,0.10311 2.9032,0.2716 3.923817,1.03914 1.937347,1.45695 3.061319,4.44079 2.274784,6.03893 -0.277502,0.56385 -0.273455,0.75189 0.0065,0.30041 0.644236,-1.03908 0.70796,-3.21886 0.131506,-4.49835 -0.843129,-1.87139 -2.628002,-3.12288 -5.43836,-3.81317 -0.451421,-0.11088 -0.84621,-0.21733 -0.877309,-0.23655 -0.0311,-0.0192 0.17782,-0.48044 0.464264,-1.02494 1.397063,-2.65566 0.880562,-4.31672 -1.499378,-4.82198 -1.702097,-0.36136 -2.838342,0.38853 -3.343886,2.20688 l -0.13138,0.47254 -0.373055,-0.38905 c -1.420561,-1.4815 -3.203756,-0.96152 -4.405974,1.28478 -0.449326,0.83954 -0.721384,1.16137 -1.0411441,1.2316 -0.5456213,0.11984 0.1793611,1.23649 1.1227071,1.72924 l 0.262484,0.13711 -0.337479,0.0619 c -1.3952046,0.25576 -1.5398658,0.6116 -1.5334459,3.77193 0.00657,3.23613 0.503289,5.02521 1.6149569,5.81678 0.364932,0.25986 1.268407,0.54556 1.268407,0.40111 z m -1.687953,-6.1054 c 0.02283,-0.30936 0.0811,-0.94256 0.129485,-1.40712 l 0.08798,-0.84466 0.191528,0.58914 c 0.12078,0.37152 0.29541,0.71589 0.47276,0.93227 0.327661,0.39979 0.336011,0.43039 0.117422,0.43039 -0.330198,0 -0.79212,0.2938 -0.919271,0.58469 l -0.121409,0.27776 z m 1.800446,-0.74106 c -0.790072,-0.4935 -1.154119,-1.41502 -0.792976,-2.00729 0.433992,-0.71174 1.334729,-0.31997 1.889441,0.82179 0.39942,0.82213 -0.361352,1.64468 -1.096465,1.1855 z m 0.922093,-3.01207 c -1.224473,-0.64665 -1.469397,-3.01024 -0.416591,-4.02024 1.458711,-1.39939 3.451288,0.60643 2.730513,2.74868 -0.394486,1.17246 -1.427078,1.7399 -2.313922,1.27156 z m 4.229161,-1.03532 c -1.584609,-0.84485 -1.817038,-3.42134 -0.419609,-4.65141 1.30344,-1.14733 3.203029,0.0814 3.18663,2.06119 -0.01569,1.89495 -1.487289,3.27252 -2.767021,2.59022 z m 2.575243,6.68215 c -1.108055,-0.61284 -1.129784,-2.61454 -0.0412,-3.79551 1.590925,-1.72595 3.004227,1.20736 1.556357,3.23021 -0.489422,0.68379 -0.974021,0.86459 -1.515155,0.5653 z" /></g><path
       id="pennsylvania"
       style="font-style:normal;font-variant:normal;font-weight:bold;font-stretch:normal;font-size:13.5678px;font-family:'Felbridge Std';-inkscape-font-specification:'Felbridge Std Bold';text-align:start;writing-mode:lr-tb;direction:ltr;text-anchor:start;opacity:1;fill:#023276;fill-rule:evenodd;stroke-width:1.93827;stroke-linejoin:round;stroke-miterlimit:0;paint-order:stroke fill markers"
       inkscape:highlight-color="#023276"
       inkscape:label="text"
       d="M 83.627968,4.9723062 81.877687,5.922119 v 7.299813 c 0,1.492458 0.407157,2.292883 1.953886,2.292883 0.515576,0 0.963018,-0.06793 1.465027,-0.203605 l -0.406694,-1.316199 c -0.189949,0.06784 -0.461426,0.10852 -0.678511,0.10852 -0.447738,0 -0.583427,-0.271269 -0.583427,-1.071769 z m 25.819612,0.5565551 c -0.66482,0 -1.07177,0.3117414 -1.07177,0.9358602 0,0.610551 0.36624,0.922941 1.07177,0.922941 0.67839,0 1.07177,-0.2852544 1.07177,-0.922941 0,-0.7190934 -0.54263,-0.9358602 -1.07177,-0.9358602 z M 40.523107,8.0522214 c -0.827636,0 -1.587655,0.3664193 -2.103231,0.8412923 V 8.2558266 h -1.641243 v 9.6738274 h 1.749763 v -2.889746 c 0.55628,0.325628 1.166976,0.474907 1.845366,0.474907 1.91306,0 2.971395,-1.397366 2.971395,-3.785299 0,-2.2115511 -0.922558,-3.6772946 -2.82205,-3.6772946 z m 7.190775,0 c -2.496475,0 -3.337781,1.5738792 -3.337781,3.7718626 0,2.577882 1.262029,3.690731 3.378605,3.690731 1.288941,0 2.06244,-0.393577 2.537313,-0.732772 l -0.882117,-1.207678 c -0.339195,0.271356 -0.868417,0.542602 -1.533239,0.542602 -1.058289,0 -1.627797,-0.678039 -1.682068,-1.736328 h 4.558378 v -1.044897 c 0,-1.9944667 -0.854675,-3.2835206 -3.039091,-3.2835206 z m 8.412406,0 c -0.814068,0 -1.655438,0.4343465 -2.374532,1.0448975 V 8.2558266 h -1.64176 V 15.31121 h 1.750281 v -4.857068 c 0.583415,-0.4884408 1.275407,-0.8821167 1.75028,-0.8821167 0.719094,0 0.908989,0.4071014 0.908989,1.5874997 v 4.151685 h 1.750281 v -4.694287 c 0,-1.7502464 -0.705352,-2.5647016 -2.143539,-2.5647016 z m 7.841899,0 c -0.814068,0 -1.655439,0.4343465 -2.374532,1.0448975 V 8.2558266 H 59.952411 V 15.31121 h 1.750281 v -4.857068 c 0.583415,-0.4884408 1.274891,-0.8821167 1.749764,-0.8821167 0.719093,0 0.909505,0.4071014 0.909505,1.5874997 v 4.151685 h 1.749764 v -4.694287 c 0,-1.7502464 -0.705352,-2.5647016 -2.143538,-2.5647016 z m 6.417695,0 c -1.424618,0 -2.849438,0.610498 -2.849438,2.1843626 0,1.641704 1.30272,2.049026 2.795178,2.415357 0.881907,0.217084 1.221114,0.393433 1.221114,0.800467 0,0.596984 -0.705647,0.746208 -1.316198,0.746208 -0.637687,0 -1.288866,-0.230488 -1.655196,-0.813904 l -1.275375,0.77308 c 0.55628,0.976881 1.723168,1.357023 2.917135,1.357023 1.519593,0 3.011702,-0.610872 3.011702,-2.252576 0,-1.601 -1.288448,-1.967003 -2.441711,-2.265495 -0.949746,-0.24422 -1.574064,-0.393412 -1.574064,-0.908988 0,-0.4884407 0.433939,-0.7193359 1.139465,-0.7193359 0.651254,0 1.194309,0.2578988 1.506368,0.7327719 L 73.140236,9.3415484 C 72.570389,8.4460736 71.552713,8.0522214 70.385882,8.0522214 Z m 25.249621,0 c -1.275373,0 -2.198184,0.2717086 -2.849438,0.8144206 l 0.854728,1.166854 c 0.461305,-0.4070342 0.990583,-0.6650759 1.899626,-0.6650759 0.881907,0 1.383894,0.271401 1.383894,1.0583329 v 0.284738 c -0.298491,0.02713 -1.152978,0.09534 -1.410766,0.122473 -1.709543,0.162813 -2.985347,0.705297 -2.985347,2.414839 0,1.329645 0.854839,2.266012 2.225187,2.266012 0.976881,0 1.668896,-0.448068 2.279447,-0.922941 v 0.719336 h 1.64176 v -4.7625 c 0,-1.8316531 -1.031056,-2.4964886 -3.039091,-2.4964886 z m 8.737447,0 c -0.81406,0 -1.65492,0.4343465 -2.37401,1.0448975 V 8.2558266 h -1.64176 V 15.31121 h 1.75028 v -4.857068 c 0.58341,-0.4884408 1.27541,-0.8821167 1.75028,-0.8821167 0.71909,0 0.90899,0.4071014 0.90899,1.5874997 v 4.151685 h 1.75028 v -4.694287 c 0,-1.7502464 -0.70587,-2.5647016 -2.14406,-2.5647016 z m 10.58282,0 c -1.27537,0 -2.19767,0.2717086 -2.84892,0.8144206 l 0.85473,1.166854 c 0.4613,-0.4070342 0.99058,-0.6650759 1.89962,-0.6650759 0.88191,0 1.3839,0.271401 1.3839,1.0583329 v 0.284738 c -0.29849,0.02713 -1.1535,0.09534 -1.41129,0.122473 -1.70954,0.162813 -2.98483,0.705297 -2.98483,2.414839 0,1.329645 0.85484,2.266012 2.22519,2.266012 0.97688,0 1.6689,-0.448068 2.27945,-0.922941 v 0.719336 h 1.64176 v -4.7625 c 0,-1.8316531 -1.03158,-2.4964886 -3.03961,-2.4964886 z M 73.872491,8.2558266 76.559149,15.039908 76.42324,15.36547 c -0.352763,0.841203 -0.718699,1.221114 -1.315682,1.221114 -0.284924,0 -0.759952,-0.08123 -1.153418,-0.230477 l -0.393258,1.343071 c 0.461306,0.149245 1.098939,0.230476 1.546676,0.230476 1.288941,0 2.224935,-0.488156 2.835486,-2.048453 L 80.914438,8.2558266 H 79.177594 L 77.413877,12.923242 75.677032,8.2558266 Z m 11.302152,0 2.645834,7.0553834 h 1.383895 l 2.659269,-7.0553834 h -1.722893 l -1.5875,4.6808514 -1.574064,-4.6808514 z m 22.359877,0 v 1.3027628 h 1.11259 V 15.31121 h 1.75028 V 8.2558266 Z M 47.727835,9.3549843 c 0.92261,0 1.34307,0.5698821 1.34307,1.7502807 h -2.87631 c 0.09497,-1.2075342 0.583494,-1.7502807 1.53324,-1.7502807 z M 40.0482,9.3684201 c 1.058289,0 1.47898,0.8683739 1.47898,2.3879679 0,1.736678 -0.569805,2.442228 -1.492416,2.442228 -0.637686,0 -1.05863,-0.176294 -1.506368,-0.434082 V 10.073803 C 38.894727,9.693905 39.464785,9.3684201 40.0482,9.3684201 Z m 56.876113,2.5099239 v 1.546676 c -0.542711,0.407034 -1.058091,0.732772 -1.614371,0.732772 -0.596983,0 -1.017509,-0.284606 -1.017509,-0.93586 0,-0.800501 0.542494,-1.126393 1.722892,-1.248503 0.217085,-0.02714 0.746175,-0.08152 0.908988,-0.09508 z m 19.320787,0 v 1.546676 c -0.54271,0.407034 -1.05861,0.732772 -1.61489,0.732772 -0.59698,0 -1.01751,-0.284606 -1.01751,-0.93586 0,-0.800501 0.54301,-1.126393 1.72341,-1.248503 0.21708,-0.02714 0.74617,-0.08152 0.90899,-0.09508 z m -37.691241,7.963855 c -0.366371,0 -0.67572,0.05281 -0.928109,0.158647 -0.248318,0.10584 -0.449924,0.258901 -0.604614,0.45837 -0.15469,0.199468 -0.266693,0.443229 -0.335897,0.732255 -0.06513,0.284955 -0.09767,0.606569 -0.09767,0.964799 0,0.358229 0.03254,0.679844 0.09767,0.964799 0.0692,0.284955 0.181207,0.527618 0.335897,0.727087 0.15469,0.199469 0.356296,0.352013 0.604614,0.457853 0.252389,0.105841 0.561738,0.158647 0.928109,0.158647 0.366371,0 0.67359,-0.05281 0.921908,-0.158647 0.252388,-0.10584 0.456125,-0.258384 0.610815,-0.457853 0.15469,-0.199469 0.264563,-0.442132 0.329696,-0.727087 0.0692,-0.284955 0.103869,-0.60657 0.103869,-0.964799 0,-0.35823 -0.03467,-0.679844 -0.103869,-0.964799 -0.06513,-0.289026 -0.175006,-0.532787 -0.329696,-0.732255 -0.15469,-0.199469 -0.358427,-0.35253 -0.610815,-0.45837 -0.248318,-0.105841 -0.555537,-0.158647 -0.921908,-0.158647 z m 31.985131,0 c -0.51699,0 -0.90529,0.114134 -1.16582,0.342098 -0.26053,0.227964 -0.39119,0.527178 -0.39119,0.89762 0,0.191327 0.0288,0.356136 0.0858,0.494543 0.0611,0.138407 0.15441,0.256285 0.2806,0.353984 0.1262,0.0977 0.28939,0.183557 0.48886,0.256832 0.19947,0.0692 0.43735,0.132144 0.71417,0.189135 0.35823,0.07327 0.62704,0.173012 0.80615,0.299207 0.18319,0.126194 0.27492,0.3054 0.27492,0.537435 0,0.142477 -0.0325,0.262486 -0.0977,0.360184 -0.0651,0.0977 -0.14886,0.177167 -0.25063,0.238229 -0.0977,0.05699 -0.2097,0.09966 -0.3359,0.128157 -0.12212,0.02442 -0.24,0.03669 -0.35398,0.03669 -0.1669,0 -0.31357,-0.01653 -0.43977,-0.04909 -0.12619,-0.03664 -0.24033,-0.08518 -0.34209,-0.146244 -0.0977,-0.06106 -0.18518,-0.132525 -0.26252,-0.213941 -0.0733,-0.08549 -0.13835,-0.175089 -0.19534,-0.268717 l -0.47025,0.293005 c 0.0733,0.122124 0.15913,0.238388 0.25683,0.348299 0.0977,0.105841 0.21344,0.197057 0.34778,0.274402 0.13841,0.07735 0.29734,0.138673 0.47646,0.183451 0.17911,0.04478 0.38659,0.06718 0.6227,0.06718 0.21982,0 0.4273,-0.02453 0.6227,-0.07338 0.19947,-0.04478 0.3728,-0.117855 0.51935,-0.219625 0.15062,-0.101769 0.26849,-0.234043 0.35398,-0.396875 0.0855,-0.162831 0.12816,-0.362307 0.12816,-0.598413 0,-0.219822 -0.0384,-0.403288 -0.11576,-0.549837 -0.0733,-0.150619 -0.17727,-0.276502 -0.31161,-0.378271 -0.13433,-0.105841 -0.2954,-0.1917 -0.48265,-0.256832 -0.18726,-0.06513 -0.39261,-0.121683 -0.6165,-0.170532 -0.20354,-0.04478 -0.37849,-0.08958 -0.52504,-0.134359 -0.14247,-0.04478 -0.25874,-0.09597 -0.34829,-0.152962 -0.0896,-0.06106 -0.15463,-0.128264 -0.19534,-0.201538 -0.0407,-0.07735 -0.061,-0.166948 -0.061,-0.268718 0,-0.219822 0.0837,-0.396898 0.25063,-0.531234 0.17097,-0.134336 0.41312,-0.201538 0.72657,-0.201538 0.26867,0 0.48842,0.05494 0.65939,0.164848 0.17098,0.105841 0.31552,0.254641 0.43357,0.445968 l 0.45785,-0.305408 c -0.14655,-0.236106 -0.34176,-0.427577 -0.58601,-0.574125 -0.24425,-0.146548 -0.56425,-0.219625 -0.95911,-0.219625 z m 17.28059,0 c -0.69203,0 -1.20085,0.191471 -1.52652,0.574125 -0.32159,0.382654 -0.48214,0.962425 -0.48214,1.739946 0,0.781591 0.16268,1.361879 0.48834,1.740462 0.32567,0.378583 0.83236,0.567924 1.52032,0.567924 0.26868,0 0.52309,-0.03467 0.76327,-0.10387 0.24017,-0.0692 0.46418,-0.189211 0.67179,-0.360185 l -0.3421,-0.433565 c -0.057,0.04885 -0.11993,0.09791 -0.18913,0.146761 -0.0692,0.04478 -0.14868,0.08745 -0.23823,0.128158 -0.0896,0.04071 -0.1893,0.07324 -0.29921,0.09767 -0.10991,0.02442 -0.23205,0.03669 -0.36639,0.03669 -0.25238,0 -0.46787,-0.03893 -0.64698,-0.116272 -0.17912,-0.07735 -0.32579,-0.191479 -0.43977,-0.342098 -0.11398,-0.15469 -0.19719,-0.343514 -0.25011,-0.567408 -0.0489,-0.227964 -0.0734,-0.493028 -0.0734,-0.794266 0,-0.289026 0.0245,-0.545052 0.0734,-0.768946 0.0488,-0.227964 0.1278,-0.419435 0.23771,-0.574125 0.10991,-0.15876 0.25445,-0.278769 0.43356,-0.360184 0.17912,-0.08142 0.39886,-0.122474 0.65939,-0.122474 0.15876,0 0.29956,0.02079 0.42168,0.0615 0.12213,0.04071 0.22774,0.09351 0.3173,0.158647 0.0896,0.06513 0.16476,0.136079 0.22582,0.213424 0.0611,0.07327 0.11013,0.142606 0.14676,0.207739 l 0.46406,-0.286804 c -0.0611,-0.113982 -0.1384,-0.222242 -0.23203,-0.324012 -0.0896,-0.101769 -0.19943,-0.190855 -0.3297,-0.2682 -0.12619,-0.07734 -0.27286,-0.138673 -0.43976,-0.183452 -0.1669,-0.04478 -0.35624,-0.06718 -0.56793,-0.06718 z m 7.07089,0 c -0.51699,0 -0.90529,0.114134 -1.16582,0.342098 -0.26053,0.227964 -0.39119,0.527178 -0.39119,0.89762 0,0.191327 0.0288,0.356136 0.0858,0.494543 0.0611,0.138407 0.15441,0.256285 0.28061,0.353984 0.12619,0.0977 0.28939,0.183557 0.48885,0.256832 0.19947,0.0692 0.43736,0.132144 0.71417,0.189135 0.35823,0.07327 0.62704,0.173012 0.80616,0.299207 0.18318,0.126194 0.27491,0.3054 0.27491,0.537435 0,0.142477 -0.0331,0.262486 -0.0982,0.360184 -0.0651,0.0977 -0.14835,0.177167 -0.25012,0.238229 -0.0977,0.05699 -0.2097,0.09966 -0.33589,0.128157 -0.12213,0.02442 -0.24,0.03669 -0.35399,0.03669 -0.1669,0 -0.31357,-0.01653 -0.43976,-0.04909 -0.1262,-0.03664 -0.24033,-0.08518 -0.3421,-0.146244 -0.0977,-0.06106 -0.18517,-0.132525 -0.26252,-0.213941 -0.0733,-0.08549 -0.13834,-0.175089 -0.19533,-0.268717 l -0.47026,0.293005 c 0.0733,0.122124 0.15913,0.238388 0.25683,0.348299 0.0977,0.105841 0.21345,0.197057 0.34779,0.274402 0.1384,0.07735 0.29734,0.138673 0.47645,0.183451 0.17912,0.04478 0.3866,0.06718 0.6227,0.06718 0.21983,0 0.42731,-0.02453 0.6227,-0.07338 0.19947,-0.04478 0.3728,-0.117855 0.51935,-0.219625 0.15062,-0.101769 0.2685,-0.234043 0.35399,-0.396875 0.0855,-0.162831 0.12815,-0.362307 0.12815,-0.598413 0,-0.219822 -0.0384,-0.403288 -0.11575,-0.549837 -0.0733,-0.150619 -0.17727,-0.276502 -0.31161,-0.378271 -0.13434,-0.105841 -0.2954,-0.1917 -0.48266,-0.256832 -0.18725,-0.06513 -0.39261,-0.121683 -0.6165,-0.170532 -0.20354,-0.04478 -0.37848,-0.08958 -0.52503,-0.134359 -0.14248,-0.04478 -0.25874,-0.09597 -0.3483,-0.152962 -0.0896,-0.06106 -0.15463,-0.128264 -0.19534,-0.201538 -0.0407,-0.07735 -0.061,-0.166948 -0.061,-0.268718 0,-0.219822 0.0837,-0.396898 0.25064,-0.531234 0.17097,-0.134336 0.41312,-0.201538 0.72657,-0.201538 0.26867,0 0.48841,0.05494 0.65939,0.164848 0.17097,0.105841 0.31551,0.254641 0.43356,0.445968 l 0.45786,-0.305408 c -0.14655,-0.236106 -0.34177,-0.427577 -0.58602,-0.574125 -0.24424,-0.146548 -0.56424,-0.219625 -0.95911,-0.219625 z m -98.045692,0.09147 v 4.439523 h 1.270207 c 0.382654,0 0.716534,-0.03254 1.001489,-0.09767 0.289026,-0.0692 0.529043,-0.187598 0.72037,-0.3545 0.195397,-0.166902 0.339937,-0.392523 0.433565,-0.677478 0.0977,-0.289026 0.146761,-0.651698 0.146761,-1.087272 0,-0.419291 -0.04693,-0.769181 -0.14056,-1.050065 -0.09363,-0.284955 -0.236037,-0.512707 -0.427364,-0.68368 -0.191327,-0.175043 -0.431344,-0.299312 -0.720369,-0.372587 -0.289026,-0.07735 -0.631428,-0.116272 -1.026294,-0.116272 z m 4.298963,0 v 4.439523 h 2.771923 v -0.500745 h -2.203999 v -1.581816 h 2.008662 v -0.500744 h -2.008662 v -1.355473 h 2.203999 v -0.500745 z m 3.486608,0 v 4.439523 h 0.567924 v -1.709974 h 0.707967 c 0.578052,0 0.997791,-0.109873 1.258322,-0.329695 0.26053,-0.223893 0.390673,-0.583918 0.390673,-1.080554 0,-0.244248 -0.0368,-0.450115 -0.11007,-0.617017 -0.0692,-0.170973 -0.172686,-0.306991 -0.311093,-0.40876 -0.138406,-0.105841 -0.309607,-0.181565 -0.513146,-0.226343 -0.199469,-0.04478 -0.42935,-0.06718 -0.689881,-0.06718 z m 4.219381,0 -1.557011,4.439523 h 0.57981 l 0.427364,-1.239718 h 1.820044 l 0.427364,1.239718 h 0.598413 l -1.557011,-4.439523 z m 2.766239,0 v 4.439523 h 0.567924 V 22.51077 h 1.123446 c 0.30938,0 0.508856,0.18721 0.598413,0.561723 l 0.317293,1.300696 h 0.574125 l -0.366386,-1.453658 c -0.04885,-0.195398 -0.105916,-0.339421 -0.171048,-0.433049 -0.06106,-0.09363 -0.165061,-0.16083 -0.311609,-0.201538 0.101769,-0.03257 0.195633,-0.07737 0.281119,-0.134359 0.08549,-0.06106 0.158563,-0.136785 0.219625,-0.226342 0.06106,-0.09363 0.107994,-0.203502 0.14056,-0.329696 0.03257,-0.130265 0.04909,-0.280679 0.04909,-0.451652 0,-0.236106 -0.0368,-0.431321 -0.110071,-0.586011 -0.0692,-0.15469 -0.171072,-0.276828 -0.305408,-0.366386 -0.134336,-0.09363 -0.299145,-0.1587 -0.494543,-0.195337 -0.195398,-0.04071 -0.417275,-0.0615 -0.665593,-0.0615 z m 3.45612,0 v 0.500745 h 1.398364 v 3.938778 h 0.567407 v -3.938778 h 1.398365 v -0.500745 z m 3.895369,0 v 4.439523 h 0.543636 v -3.77393 l 1.270207,2.552299 h 0.366386 l 1.282092,-2.552299 v 3.77393 h 0.543636 v -4.439523 h -0.769462 l -1.233516,2.460832 -1.209229,-2.460832 z m 4.903577,0 v 4.439523 h 2.771924 v -0.500745 h -2.204 v -1.581816 h 2.008663 v -0.500744 h -2.008663 v -1.355473 h 2.204 v -0.500745 z m 3.486609,0 v 4.439523 h 0.543119 v -3.902088 l 2.11925,3.902088 h 0.671277 v -4.439523 h -0.543119 v 3.55999 l -1.942,-3.55999 z m 3.86488,0 v 0.500745 h 1.398364 v 3.938778 h 0.567924 v -3.938778 h 1.398364 v -0.500745 z m 10.024194,0 v 4.439523 h 0.567924 v -2.082561 h 1.971973 v -0.500744 h -1.971973 v -1.355473 h 2.179712 v -0.500745 z m 4.980058,0 v 4.439523 H 86.7947 V 22.33352 h 2.118733 v 2.039669 h 0.567924 v -4.439523 h -0.567924 v 1.899109 H 86.7947 v -1.899109 z m 4.127913,0 v 2.717664 c 0,0.329734 0.02828,0.610291 0.08527,0.842326 0.05699,0.232035 0.148724,0.419245 0.274919,0.561723 0.130265,0.142477 0.299335,0.246476 0.506945,0.311608 0.20761,0.06513 0.462023,0.09767 0.763261,0.09767 0.301238,0 0.555651,-0.03041 0.763261,-0.09147 0.20761,-0.06513 0.37455,-0.169132 0.500745,-0.311609 0.130265,-0.146549 0.223612,-0.333759 0.280603,-0.561723 0.05699,-0.232035 0.08578,-0.514723 0.08578,-0.848527 v -2.717664 h -0.567924 v 2.668571 c 0,0.240177 -0.01653,0.447657 -0.04909,0.622701 -0.0285,0.170973 -0.08343,0.313382 -0.164848,0.427364 -0.07734,0.109912 -0.185087,0.19151 -0.323494,0.24443 -0.134336,0.05292 -0.309281,0.07958 -0.525033,0.07958 -0.20761,0 -0.380941,-0.02453 -0.519348,-0.07338 -0.134336,-0.05292 -0.242079,-0.134518 -0.323494,-0.244429 -0.08142,-0.113983 -0.138483,-0.258522 -0.171049,-0.433566 -0.03257,-0.175044 -0.04858,-0.386785 -0.04858,-0.635103 v -2.656169 z m 4.133598,0 v 4.439523 h 0.543636 v -3.77393 l 1.270206,2.552299 h 0.366386 l 1.282092,-2.552299 v 3.77393 h 0.543636 v -4.439523 h -0.769462 l -1.233516,2.460832 -1.208712,-2.460832 z m 6.033223,0 -1.557011,4.439523 h 0.57981 l 0.427364,-1.239718 h 1.820047 l 0.42736,1.239718 h 0.59841 l -1.55701,-4.439523 z m 2.76624,0 v 4.439523 h 0.54312 v -3.902088 l 2.11873,3.902088 h 0.6718 v -4.439523 h -0.54312 v 3.55999 l -1.942,-3.55999 z m 9.60871,0 v 4.439523 h 2.77193 v -0.500745 h -2.20452 v -1.581816 h 2.00918 v -0.500744 h -2.00918 v -1.355473 h 2.20452 v -0.500745 z m 3.48661,0 v 4.439523 h 0.56741 V 22.51077 h 1.12396 c 0.30938,0 0.50886,0.18721 0.59842,0.561723 l 0.31729,1.300696 h 0.57412 l -0.36638,-1.453658 c -0.0489,-0.195398 -0.10592,-0.339421 -0.17105,-0.433049 -0.0611,-0.09363 -0.16506,-0.16083 -0.31161,-0.201538 0.10177,-0.03257 0.19563,-0.07737 0.28112,-0.134359 0.0855,-0.06106 0.15856,-0.136785 0.21963,-0.226342 0.0611,-0.09363 0.10799,-0.203502 0.14056,-0.329696 0.0326,-0.130265 0.0491,-0.280679 0.0491,-0.451652 0,-0.236106 -0.0368,-0.431321 -0.11007,-0.586011 -0.0692,-0.15469 -0.17107,-0.276828 -0.30541,-0.366386 -0.13434,-0.09363 -0.29915,-0.1587 -0.49454,-0.195337 -0.1954,-0.04071 -0.41728,-0.0615 -0.6656,-0.0615 z m 3.33365,0 1.44126,4.439523 h 0.76326 l 1.45314,-4.439523 h -0.57981 l -1.23972,3.908289 -1.23972,-3.908289 z m 3.90829,0 v 0.445968 h 0.55552 v 3.547587 h -0.55552 v 0.445968 h 1.67897 v -0.445968 h -0.55553 v -3.547587 h 0.55553 v -0.445968 z m 6.39909,0 v 4.439523 h 2.77192 v -0.500745 h -2.204 v -1.581816 h 2.00867 v -0.500744 h -2.00867 v -1.355473 h 2.204 v -0.500745 z m -51.470241,0.396875 c 0.25646,0 0.470332,0.04106 0.641305,0.122474 0.175043,0.07734 0.315322,0.193092 0.421163,0.347782 0.109911,0.15469 0.187248,0.346161 0.232027,0.574125 0.04885,0.227964 0.07338,0.488251 0.07338,0.781348 0,0.293096 -0.02453,0.5539 -0.07338,0.781864 -0.04478,0.223893 -0.122116,0.413234 -0.232027,0.567924 -0.105841,0.15469 -0.24612,0.272568 -0.421163,0.353984 -0.170973,0.07735 -0.384845,0.116272 -0.641305,0.116272 -0.256459,0 -0.472462,-0.03893 -0.647506,-0.116272 -0.170973,-0.08142 -0.311251,-0.199294 -0.421162,-0.353984 -0.105841,-0.15469 -0.183178,-0.344031 -0.232028,-0.567924 -0.04478,-0.227964 -0.06718,-0.488768 -0.06718,-0.781864 0,-0.293097 0.0224,-0.553384 0.06718,-0.781348 0.04885,-0.227964 0.126187,-0.419435 0.232028,-0.574125 0.109911,-0.15469 0.250189,-0.270438 0.421162,-0.347782 0.175044,-0.08142 0.391047,-0.122474 0.647506,-0.122474 z m -26.369966,0.09198 h 0.872815 c 0.346017,0 0.598299,0.05494 0.75706,0.164848 0.162831,0.109911 0.244429,0.309387 0.244429,0.598413 0,0.158761 -0.01814,0.291035 -0.05478,0.396875 -0.03664,0.105841 -0.09583,0.191183 -0.17725,0.256315 -0.08141,0.06513 -0.189158,0.112065 -0.323494,0.14056 -0.130265,0.0285 -0.291331,0.04237 -0.482658,0.04237 H 52.18389 Z m 64.766587,0 h 0.87333 c 0.34602,0 0.5983,0.05494 0.75706,0.164848 0.16283,0.109911 0.24443,0.309387 0.24443,0.598413 0,0.158761 -0.0181,0.291035 -0.0548,0.396875 -0.0366,0.105841 -0.0958,0.191183 -0.17725,0.256315 -0.0814,0.06513 -0.18915,0.112065 -0.32349,0.14056 -0.13027,0.0285 -0.29133,0.04237 -0.48266,0.04237 h -0.83664 z m -79.537778,0.01189 h 0.671794 c 0.30938,0 0.573927,0.02879 0.79375,0.08578 0.219822,0.05292 0.399028,0.146267 0.537435,0.280603 0.142477,0.130265 0.244346,0.30521 0.305407,0.525032 0.06513,0.219823 0.09767,0.495023 0.09767,0.824756 0,0.321592 -0.03092,0.592015 -0.09198,0.811837 -0.06106,0.219822 -0.160283,0.396898 -0.29869,0.531234 -0.138407,0.134336 -0.317612,0.231943 -0.537435,0.293005 -0.219822,0.05699 -0.488631,0.08578 -0.806152,0.08578 h -0.671794 z m 7.785571,0 h 0.702283 c 0.166902,0 0.315186,0.01227 0.445451,0.03669 0.130265,0.02443 0.240138,0.06923 0.329696,0.134359 0.09363,0.06106 0.16296,0.146404 0.207739,0.256315 0.04885,0.105841 0.07338,0.240245 0.07338,0.403076 0,0.191327 -0.02453,0.346002 -0.07338,0.464055 -0.04478,0.113982 -0.114111,0.203584 -0.207739,0.268717 -0.09363,0.06513 -0.211506,0.109934 -0.353984,0.134359 -0.142478,0.02035 -0.311548,0.03049 -0.506946,0.03049 h -0.6165 z m 4.005441,0.04289 0.738972,2.155424 h -1.477945 z m 51.671776,0 0.73898,2.155424 h -1.47795 z m -62.405488,5.697844 c -0.366371,0 -0.67572,0.05281 -0.928109,0.158646 -0.248318,0.105841 -0.449924,0.258385 -0.604614,0.457854 -0.15469,0.199468 -0.266693,0.443745 -0.335897,0.732771 -0.06513,0.284955 -0.09767,0.60657 -0.09767,0.964799 0,0.35823 0.03254,0.679844 0.09767,0.964799 0.0692,0.284955 0.181207,0.527102 0.335897,0.726571 0.15469,0.199468 0.356296,0.352013 0.604614,0.457853 0.252389,0.10584 0.561738,0.159163 0.928109,0.159163 0.366371,0 0.67359,-0.05332 0.921908,-0.159163 0.252388,-0.10584 0.456125,-0.258385 0.610815,-0.457853 0.15469,-0.199469 0.264563,-0.441616 0.329696,-0.726571 0.0692,-0.284955 0.103869,-0.606569 0.103869,-0.964799 0,-0.358229 -0.03467,-0.679844 -0.103869,-0.964799 -0.06513,-0.289026 -0.175006,-0.533303 -0.329696,-0.732771 -0.15469,-0.199469 -0.358427,-0.352013 -0.610815,-0.457854 -0.248318,-0.10584 -0.555537,-0.158646 -0.921908,-0.158646 z m 14.131437,0 c -0.692034,0 -1.200859,0.190954 -1.526522,0.573608 -0.321592,0.382654 -0.482658,0.962942 -0.482658,1.740462 0,0.781591 0.163196,1.361879 0.488859,1.740462 0.325663,0.378584 0.832358,0.567924 1.520321,0.567924 0.268672,0 0.523084,-0.03467 0.763261,-0.103869 0.240176,-0.0692 0.464183,-0.189729 0.671793,-0.360702 l -0.342098,-0.433048 c -0.05699,0.04885 -0.119932,0.0974 -0.189135,0.146244 -0.0692,0.04478 -0.148671,0.08745 -0.238229,0.128158 -0.08956,0.04071 -0.189295,0.07324 -0.299206,0.09767 -0.109912,0.02443 -0.23205,0.03669 -0.366386,0.03669 -0.252389,0 -0.468391,-0.03841 -0.647506,-0.115755 -0.179114,-0.07735 -0.325267,-0.191479 -0.439249,-0.342098 -0.113983,-0.15469 -0.197711,-0.34403 -0.250631,-0.567924 -0.04885,-0.227964 -0.07338,-0.492512 -0.07338,-0.79375 0,-0.289026 0.02453,-0.545569 0.07338,-0.769462 0.04885,-0.227964 0.128317,-0.419435 0.238228,-0.574125 0.109911,-0.158761 0.254451,-0.278769 0.433565,-0.360185 0.179115,-0.08141 0.398861,-0.121956 0.659392,-0.121956 0.15876,0 0.299039,0.02027 0.421163,0.06098 0.122123,0.04071 0.228252,0.09351 0.31781,0.158647 0.08956,0.06513 0.164764,0.136595 0.225826,0.21394 0.06106,0.07327 0.110124,0.142607 0.146761,0.207739 l 0.464054,-0.28732 c -0.06106,-0.113983 -0.138399,-0.221725 -0.232027,-0.323495 -0.08956,-0.10177 -0.199431,-0.191372 -0.329696,-0.268717 -0.126194,-0.07735 -0.272864,-0.138156 -0.439766,-0.182935 -0.166902,-0.04478 -0.356243,-0.06718 -0.567924,-0.06718 z m 8.887829,0 c -0.366371,0 -0.67572,0.05281 -0.928109,0.158646 -0.248318,0.105841 -0.449924,0.258385 -0.604614,0.457854 -0.15469,0.199468 -0.266693,0.443745 -0.335897,0.732771 -0.06513,0.284955 -0.09767,0.60657 -0.09767,0.964799 0,0.35823 0.03254,0.679844 0.09767,0.964799 0.0692,0.284955 0.181207,0.527102 0.335897,0.726571 0.15469,0.199468 0.356296,0.352013 0.604614,0.457853 0.252389,0.10584 0.561738,0.159163 0.928109,0.159163 0.366371,0 0.67359,-0.05332 0.921908,-0.159163 0.252388,-0.10584 0.456125,-0.258385 0.610815,-0.457853 0.15469,-0.199469 0.264563,-0.441616 0.329696,-0.726571 0.0692,-0.284955 0.103869,-0.606569 0.103869,-0.964799 0,-0.358229 -0.03467,-0.679844 -0.103869,-0.964799 -0.06513,-0.289026 -0.175006,-0.533303 -0.329696,-0.732771 -0.15469,-0.199469 -0.358427,-0.352013 -0.610815,-0.457854 -0.248318,-0.10584 -0.555537,-0.158646 -0.921908,-0.158646 z m -20.130553,0.09147 v 4.439005 h 0.567924 V 28.62358 h 1.972489 v -0.50075 h -1.972489 v -1.355472 h 2.179711 v -0.500745 z m 3.535701,0 v 4.439005 H 45.46234 V 28.62358 h 1.972489 V 28.12283 H 45.46234 v -1.355472 h 2.180229 v -0.500745 z m 3.316077,0 v 0.445451 h 0.556038 v 3.548104 h -0.556038 v 0.44545 h 1.679484 v -0.44545 h -0.555522 v -3.548104 h 0.555522 v -0.445451 z m 6.790799,0 v 4.439005 h 2.772441 V 30.204879 H 55.569216 V 28.62358 h 2.00918 v -0.50075 h -2.00918 v -1.355472 h 2.204517 v -0.500745 z m 9.180835,0 v 4.439005 h 0.567924 V 28.623575 H 66.72254 V 28.12283 h -1.972489 v -1.355472 h 2.179712 v -0.500745 z m 5.110282,0 v 4.439005 h 0.54312 V 26.93221 l 1.270206,2.552299 h 0.366386 L 72.75473,26.93221 v 3.773413 h 0.543119 v -4.439005 h -0.769462 l -1.232999,2.460832 -1.209229,-2.460832 z m 4.916496,0 v 4.439005 h 2.771924 v -0.500744 h -2.204 V 28.62358 h 2.008663 v -0.50075 h -2.008663 v -1.355472 h 2.204 v -0.500745 z m 3.499528,0 v 4.439005 h 0.543636 v -3.90157 l 2.118733,3.90157 h 0.671794 v -4.43901 H 80.49896 v 3.559989 l -1.941484,-3.559989 z m 3.878833,0 v 0.500745 h 1.398364 v 3.93826 h 0.567924 v -3.93826 h 1.397847 v -0.500745 z m 4.702555,0 -1.557011,4.439005 h 0.580326 l 0.427364,-1.2392 h 1.819527 l 0.427365,1.2392 h 0.598413 l -1.557011,-4.439005 z m 2.779158,0 v 4.439005 h 2.650484 v -0.500744 h -2.08256 v -3.938261 z m 4.973857,0 v 4.439005 h 0.567924 v -2.039152 h 2.118733 v 2.039152 h 0.567924 v -4.439005 h -0.567924 v 1.899109 H 94.61076 v -1.899109 z m 4.152201,0 v 4.439005 h 2.772443 V 30.204879 H 98.762961 V 28.62358 h 2.008659 v -0.50075 h -2.008659 v -1.355472 h 2.204519 v -0.500745 z m 4.616253,0 -1.55701,4.439005 h 0.57981 l 0.42788,-1.2392 h 1.81953 l 0.42736,1.2392 h 0.59842 l -1.55701,-4.439005 z m 2.76624,0 v 4.439005 h 2.64997 v -0.500744 h -2.08204 v -3.938261 z m 2.75384,0 v 0.500745 h 1.39836 v 3.93826 h 0.56793 v -3.93826 h 1.39836 v -0.500745 z m 3.89588,0 v 4.439005 h 0.56793 v -2.039152 h 2.11873 v 2.039152 h 0.56793 v -4.439005 h -0.56793 v 1.899109 h -2.11873 v -1.899109 z m 6.72156,0 -1.55701,4.439005 h 0.58032 l 0.42737,-1.2392 h 1.81952 l 0.42737,1.2392 h 0.59841 l -1.55701,-4.439005 z m 2.76624,0 v 4.439005 h 0.54363 v -3.90157 l 2.11874,3.90157 h 0.67179 v -4.439005 h -0.54364 v 3.559989 l -1.94148,-3.559989 z m 4.23178,0 v 4.439005 h 1.27021 c 0.38265,0 0.71601,-0.03254 1.00097,-0.09767 0.28903,-0.0692 0.52956,-0.187081 0.72089,-0.353984 0.19539,-0.166902 0.33993,-0.393039 0.43356,-0.677994 0.0977,-0.289026 0.14625,-0.651182 0.14625,-1.086756 0,-0.419291 -0.0469,-0.769181 -0.14056,-1.050065 -0.0936,-0.284955 -0.23604,-0.513223 -0.42737,-0.684196 -0.19133,-0.175044 -0.43134,-0.299313 -0.72037,-0.372587 -0.28902,-0.07735 -0.63091,-0.115755 -1.02578,-0.115755 z m -87.476828,0.396875 c 0.25646,0 0.470332,0.04054 0.641305,0.121956 0.175043,0.07735 0.315322,0.19361 0.421163,0.348299 0.109911,0.15469 0.187248,0.346162 0.232027,0.574126 0.04885,0.227964 0.07338,0.488251 0.07338,0.781347 0,0.293097 -0.02453,0.553384 -0.07338,0.781348 -0.04478,0.223893 -0.122116,0.413234 -0.232027,0.567924 -0.105841,0.15469 -0.24612,0.273084 -0.421163,0.3545 -0.170973,0.07735 -0.384845,0.115755 -0.641305,0.115755 -0.256459,0 -0.471945,-0.03841 -0.646989,-0.115755 -0.170973,-0.08142 -0.311768,-0.19981 -0.421679,-0.3545 -0.105841,-0.15469 -0.183178,-0.344031 -0.232028,-0.567924 -0.04478,-0.227964 -0.06718,-0.488251 -0.06718,-0.781348 0,-0.293096 0.0224,-0.553383 0.06718,-0.781347 0.04885,-0.227964 0.126187,-0.419436 0.232028,-0.574126 0.109911,-0.154689 0.250706,-0.270954 0.421679,-0.348299 0.175044,-0.08141 0.39053,-0.121956 0.646989,-0.121956 z m 23.019266,0 c 0.25646,0 0.470332,0.04054 0.641305,0.121956 0.175044,0.07735 0.315322,0.19361 0.421163,0.348299 0.109911,0.15469 0.187248,0.346162 0.232027,0.574126 0.04885,0.227964 0.07338,0.488251 0.07338,0.781347 0,0.293097 -0.02453,0.553384 -0.07338,0.781348 -0.04478,0.223893 -0.122116,0.413234 -0.232027,0.567924 -0.105841,0.15469 -0.246119,0.273084 -0.421163,0.3545 -0.170973,0.07735 -0.384845,0.115755 -0.641305,0.115755 -0.256459,0 -0.471945,-0.03841 -0.646989,-0.115755 -0.170973,-0.08142 -0.311768,-0.19981 -0.421679,-0.3545 -0.105841,-0.15469 -0.183178,-0.344031 -0.232028,-0.567924 -0.04478,-0.227964 -0.06718,-0.488251 -0.06718,-0.781348 0,-0.293096 0.0224,-0.553383 0.06718,-0.781347 0.04885,-0.227964 0.126187,-0.419436 0.232028,-0.574126 0.109911,-0.154689 0.250706,-0.270954 0.421679,-0.348299 0.175044,-0.08141 0.39053,-0.121956 0.646989,-0.121956 z m 65.025482,0.10387 h 0.67128 c 0.30938,0 0.57445,0.02827 0.79427,0.08527 0.21982,0.05292 0.39851,0.146784 0.53692,0.281119 0.14247,0.130266 0.24434,0.305211 0.3054,0.525033 0.0651,0.219823 0.0977,0.494505 0.0977,0.824239 0,0.321592 -0.0304,0.592531 -0.0915,0.812354 -0.0611,0.219822 -0.1608,0.396897 -0.29921,0.531233 -0.13841,0.134336 -0.31761,0.231944 -0.53744,0.293006 -0.21982,0.05699 -0.48863,0.08527 -0.80615,0.08527 h -0.67128 z m -39.870946,0.04289 0.738973,2.155424 h -1.477429 z m 16.521476,0 0.73897,2.155424 h -1.47743 z m 16.13803,0 0.73897,2.155424 h -1.47794 z m -81.24827,5.547465 c -0.51699,0 -0.905806,0.114134 -1.166337,0.342098 -0.26053,0.227964 -0.390673,0.527178 -0.390673,0.897619 0,0.191327 0.02828,0.356137 0.08527,0.494544 0.06106,0.138407 0.154925,0.256285 0.281119,0.353983 0.126195,0.0977 0.288874,0.183041 0.488343,0.256316 0.199468,0.0692 0.437354,0.132661 0.714168,0.189652 0.358229,0.07327 0.627038,0.173012 0.806152,0.299207 0.183186,0.126194 0.274919,0.3054 0.274919,0.537434 0,0.142478 -0.03254,0.262486 -0.09767,0.360185 -0.06513,0.0977 -0.148861,0.17665 -0.25063,0.237712 -0.0977,0.05699 -0.209703,0.100179 -0.335897,0.128674 -0.122124,0.02443 -0.240002,0.03669 -0.353984,0.03669 -0.166902,0 -0.313572,-0.01653 -0.439766,-0.04909 -0.126194,-0.03664 -0.239812,-0.0857 -0.341581,-0.146761 -0.0977,-0.06106 -0.185172,-0.132008 -0.262517,-0.213424 -0.07327,-0.08549 -0.138862,-0.175089 -0.195853,-0.268717 l -0.469739,0.293005 c 0.07327,0.122124 0.158616,0.238388 0.256315,0.348299 0.0977,0.105841 0.213447,0.197057 0.347783,0.274402 0.138406,0.07735 0.297342,0.138673 0.476456,0.183451 0.179115,0.04478 0.386596,0.06718 0.622701,0.06718 0.219823,0 0.42782,-0.02453 0.623218,-0.07338 0.199469,-0.04478 0.372283,-0.117855 0.518831,-0.219625 0.150619,-0.101769 0.268497,-0.234043 0.353984,-0.396875 0.08549,-0.162831 0.128157,-0.362307 0.128157,-0.598413 0,-0.219822 -0.03841,-0.403289 -0.115755,-0.549837 -0.07327,-0.150619 -0.177273,-0.276502 -0.311609,-0.378272 -0.134336,-0.10584 -0.294885,-0.191699 -0.482141,-0.256831 -0.187256,-0.06513 -0.393123,-0.1222 -0.617016,-0.171049 -0.20354,-0.04478 -0.378485,-0.08958 -0.525033,-0.134359 -0.142477,-0.04478 -0.258225,-0.09546 -0.347782,-0.152446 -0.08956,-0.06106 -0.154629,-0.128263 -0.195337,-0.201538 -0.04071,-0.07734 -0.0615,-0.166947 -0.0615,-0.268717 0,-0.219823 0.08373,-0.396898 0.250631,-0.531234 0.170973,-0.134336 0.41312,-0.201538 0.72657,-0.201538 0.268672,0 0.488418,0.05494 0.659391,0.164848 0.170973,0.10584 0.315513,0.254641 0.433566,0.445968 l 0.457853,-0.305408 C 39.453101,32.915358 39.257885,32.723887 39.013638,32.577339 38.769391,32.43079 38.449907,32.357714 38.05504,32.357714 Z m 12.114506,0 c -0.51699,0 -0.905807,0.114134 -1.166337,0.342098 -0.26053,0.227964 -0.390674,0.527178 -0.390674,0.897619 0,0.191327 0.02828,0.356137 0.08527,0.494544 0.06106,0.138407 0.154926,0.256285 0.28112,0.353983 0.126194,0.0977 0.288874,0.183041 0.488342,0.256316 0.199469,0.0692 0.437872,0.132661 0.714685,0.189652 0.35823,0.07327 0.626521,0.173012 0.805636,0.299207 0.183185,0.126194 0.274919,0.3054 0.274919,0.537434 0,0.142478 -0.03254,0.262486 -0.09767,0.360185 -0.06513,0.0977 -0.148344,0.17665 -0.250114,0.237712 -0.0977,0.05699 -0.209702,0.100179 -0.335897,0.128674 -0.122123,0.02443 -0.240518,0.03669 -0.3545,0.03669 -0.166902,0 -0.313055,-0.01653 -0.43925,-0.04909 -0.126194,-0.03664 -0.240328,-0.0857 -0.342098,-0.146761 -0.0977,-0.06106 -0.185171,-0.132008 -0.262516,-0.213424 -0.07327,-0.08549 -0.138346,-0.175089 -0.195337,-0.268717 l -0.470255,0.293005 c 0.07327,0.122124 0.158616,0.238388 0.256315,0.348299 0.0977,0.105841 0.213963,0.197057 0.348299,0.274402 0.138407,0.07735 0.296825,0.138673 0.47594,0.183451 0.179114,0.04478 0.387112,0.06718 0.623218,0.06718 0.219822,0 0.427303,-0.02453 0.622701,-0.07338 0.199468,-0.04478 0.372283,-0.117855 0.518831,-0.219625 0.150619,-0.101769 0.269014,-0.234043 0.3545,-0.396875 0.08549,-0.162831 0.128158,-0.362307 0.128158,-0.598413 0,-0.219822 -0.03893,-0.403289 -0.116272,-0.549837 -0.07327,-0.150619 -0.176756,-0.276502 -0.311092,-0.378272 -0.134336,-0.10584 -0.295402,-0.191699 -0.482658,-0.256831 -0.187256,-0.06513 -0.392607,-0.1222 -0.6165,-0.171049 -0.203539,-0.04478 -0.379001,-0.08958 -0.525549,-0.134359 -0.142478,-0.04478 -0.258225,-0.09546 -0.347783,-0.152446 -0.08956,-0.06106 -0.154629,-0.128263 -0.195337,-0.201538 -0.04071,-0.07734 -0.06098,-0.166947 -0.06098,-0.268717 0,-0.219823 0.08321,-0.396898 0.250114,-0.531234 0.170973,-0.134336 0.41312,-0.201538 0.726571,-0.201538 0.268672,0 0.488418,0.05494 0.659391,0.164848 0.170973,0.10584 0.315513,0.254641 0.433565,0.445968 l 0.45837,-0.305408 c -0.146548,-0.236106 -0.34228,-0.427577 -0.586527,-0.574125 -0.244247,-0.146549 -0.563732,-0.219625 -0.958598,-0.219625 z m 16.045015,0 c -0.692034,0 -1.200859,0.191471 -1.526522,0.574125 -0.321592,0.382654 -0.482658,0.962425 -0.482658,1.739945 0,0.781592 0.163196,1.361879 0.488859,1.740463 0.325663,0.378583 0.832358,0.567924 1.520321,0.567924 0.268672,0 0.523084,-0.03467 0.763261,-0.10387 0.240176,-0.0692 0.464183,-0.189212 0.671793,-0.360185 l -0.342097,-0.433565 c -0.05699,0.04885 -0.119933,0.09739 -0.189136,0.146244 -0.0692,0.04478 -0.148671,0.08797 -0.238229,0.128675 -0.08956,0.04071 -0.189295,0.07324 -0.299206,0.09767 -0.109911,0.02443 -0.23205,0.03669 -0.366386,0.03669 -0.252389,0 -0.468391,-0.03893 -0.647506,-0.116272 -0.179114,-0.07735 -0.325267,-0.191478 -0.439249,-0.342098 -0.113982,-0.15469 -0.197711,-0.34403 -0.250631,-0.567924 -0.04885,-0.227964 -0.07338,-0.492511 -0.07338,-0.79375 0,-0.289025 0.02453,-0.545568 0.07338,-0.769462 0.04885,-0.227964 0.128317,-0.418918 0.238228,-0.573608 0.109912,-0.158761 0.254451,-0.278769 0.433566,-0.360185 0.179114,-0.08141 0.39886,-0.122473 0.659391,-0.122473 0.158761,0 0.299039,0.02027 0.421163,0.06098 0.122123,0.04071 0.228252,0.09403 0.31781,0.159164 0.08956,0.06513 0.164764,0.136078 0.225826,0.213423 0.06106,0.07328 0.110124,0.142607 0.146761,0.20774 l 0.464054,-0.286805 c -0.06106,-0.113982 -0.138399,-0.222241 -0.232027,-0.324011 -0.08956,-0.101769 -0.19943,-0.191372 -0.329696,-0.268717 -0.126194,-0.07735 -0.272864,-0.138156 -0.439766,-0.182935 -0.166902,-0.04478 -0.356243,-0.06718 -0.567924,-0.06718 z m 20.480403,0 c -0.51699,0 -0.905807,0.114134 -1.166337,0.342098 -0.26053,0.227964 -0.390674,0.527178 -0.390674,0.897619 0,0.191327 0.02828,0.356137 0.08527,0.494544 0.06106,0.138407 0.154926,0.256285 0.28112,0.353983 0.126194,0.0977 0.288874,0.183041 0.488342,0.256316 0.199469,0.0692 0.437355,0.132661 0.714169,0.189652 0.358229,0.07327 0.627037,0.173012 0.806152,0.299207 0.183185,0.126194 0.274919,0.3054 0.274919,0.537434 0,0.142478 -0.03254,0.262486 -0.09767,0.360185 -0.06513,0.0977 -0.148861,0.17665 -0.250631,0.237712 -0.0977,0.05699 -0.209185,0.100179 -0.33538,0.128674 -0.122123,0.02443 -0.240518,0.03669 -0.3545,0.03669 -0.166902,0 -0.313572,-0.01653 -0.439766,-0.04909 -0.126195,-0.03664 -0.239812,-0.0857 -0.341582,-0.146761 -0.0977,-0.06106 -0.185171,-0.132008 -0.262516,-0.213424 -0.07327,-0.08549 -0.138863,-0.175089 -0.195854,-0.268717 l -0.469738,0.293005 c 0.07327,0.122124 0.158616,0.238388 0.256315,0.348299 0.0977,0.105841 0.213446,0.197057 0.347782,0.274402 0.138407,0.07735 0.297342,0.138673 0.476457,0.183451 0.179115,0.04478 0.386595,0.06718 0.622701,0.06718 0.219822,0 0.42782,-0.02453 0.623218,-0.07338 0.199468,-0.04478 0.372283,-0.117855 0.518831,-0.219625 0.150619,-0.101769 0.268497,-0.234043 0.353984,-0.396875 0.08549,-0.162831 0.128157,-0.362307 0.128157,-0.598413 0,-0.219822 -0.03841,-0.403289 -0.115755,-0.549837 -0.07327,-0.150619 -0.177273,-0.276502 -0.311609,-0.378272 -0.134336,-0.10584 -0.294885,-0.191699 -0.482141,-0.256831 -0.187256,-0.06513 -0.393123,-0.1222 -0.617017,-0.171049 -0.203539,-0.04478 -0.378484,-0.08958 -0.525032,-0.134359 -0.142478,-0.04478 -0.258225,-0.09546 -0.347783,-0.152446 -0.08956,-0.06106 -0.154629,-0.128263 -0.195336,-0.201538 -0.04071,-0.07734 -0.06149,-0.166947 -0.06149,-0.268717 0,-0.219823 0.08373,-0.396898 0.25063,-0.531234 0.170973,-0.134336 0.41312,-0.201538 0.726571,-0.201538 0.268672,0 0.488418,0.05494 0.659391,0.164848 0.170973,0.10584 0.315513,0.254641 0.433565,0.445968 l 0.457854,-0.305408 C 88.093024,32.915358 87.897809,32.723887 87.653562,32.577339 87.409315,32.43079 87.08983,32.357714 86.694964,32.357714 Z m 8.932271,0 c -0.51699,0 -0.905807,0.114134 -1.166337,0.342098 -0.26053,0.227964 -0.390674,0.527178 -0.390674,0.897619 0,0.191327 0.02879,0.356137 0.08578,0.494544 0.06106,0.138407 0.154409,0.256285 0.280603,0.353983 0.126195,0.0977 0.288874,0.183041 0.488342,0.256316 0.199469,0.0692 0.437872,0.132661 0.714685,0.189652 0.35823,0.07327 0.627038,0.173012 0.806153,0.299207 0.183185,0.126194 0.274402,0.3054 0.274402,0.537434 0,0.142478 -0.03254,0.262486 -0.09767,0.360185 -0.06513,0.0977 -0.148344,0.17665 -0.250114,0.237712 -0.0977,0.05699 -0.209702,0.100179 -0.335897,0.128674 -0.122123,0.02443 -0.240001,0.03669 -0.353983,0.03669 -0.166902,0 -0.313572,-0.01653 -0.439767,-0.04909 -0.126194,-0.03664 -0.240328,-0.0857 -0.342098,-0.146761 -0.0977,-0.06106 -0.185171,-0.132008 -0.262516,-0.213424 -0.07327,-0.08549 -0.138346,-0.175089 -0.195337,-0.268717 l -0.470255,0.293005 c 0.07327,0.122124 0.158616,0.238388 0.256315,0.348299 0.0977,0.105841 0.213963,0.197057 0.348299,0.274402 0.138407,0.07735 0.296825,0.138673 0.47594,0.183451 0.179115,0.04478 0.387112,0.06718 0.623218,0.06718 0.219822,0 0.427303,-0.02453 0.622701,-0.07338 0.199468,-0.04478 0.372283,-0.117855 0.518831,-0.219625 0.150619,-0.101769 0.269014,-0.234043 0.3545,-0.396875 0.08549,-0.162831 0.128158,-0.362307 0.128158,-0.598413 0,-0.219822 -0.03893,-0.403289 -0.116272,-0.549837 -0.07327,-0.150619 -0.176756,-0.276502 -0.311092,-0.378272 -0.134336,-0.10584 -0.295402,-0.191699 -0.482658,-0.256831 -0.187256,-0.06513 -0.392607,-0.1222 -0.6165,-0.171049 -0.203539,-0.04478 -0.378484,-0.08958 -0.525032,-0.134359 -0.142478,-0.04478 -0.258742,-0.09546 -0.3483,-0.152446 -0.08956,-0.06106 -0.154629,-0.128263 -0.195336,-0.201538 -0.04071,-0.07734 -0.06098,-0.166947 -0.06098,-0.268717 0,-0.219823 0.08321,-0.396898 0.250114,-0.531234 0.170973,-0.134336 0.41312,-0.201538 0.726571,-0.201538 0.268672,0 0.488935,0.05494 0.659908,0.164848 0.170973,0.10584 0.314996,0.254641 0.433048,0.445968 l 0.45837,-0.305408 C 97.025812,32.915358 96.83008,32.723887 96.585833,32.577339 96.341586,32.43079 96.022101,32.357714 95.627235,32.357714 Z m 17.902265,0 c -0.69203,0 -1.20086,0.191471 -1.52652,0.574125 -0.32159,0.382654 -0.48214,0.962425 -0.48214,1.739945 0,0.781592 0.16268,1.361879 0.48834,1.740463 0.32566,0.378583 0.83236,0.567924 1.52032,0.567924 0.26867,0 0.52309,-0.03467 0.76326,-0.10387 0.24018,-0.0692 0.46419,-0.189212 0.6718,-0.360185 l -0.3421,-0.433565 c -0.057,0.04885 -0.11993,0.09739 -0.18914,0.146244 -0.0692,0.04478 -0.14867,0.08797 -0.23823,0.128675 -0.0895,0.04071 -0.18929,0.07324 -0.2992,0.09767 -0.10991,0.02443 -0.23205,0.03669 -0.36639,0.03669 -0.25239,0 -0.46787,-0.03893 -0.64699,-0.116272 -0.17911,-0.07735 -0.32578,-0.191478 -0.43976,-0.342098 -0.11399,-0.15469 -0.1972,-0.34403 -0.25012,-0.567924 -0.0488,-0.227964 -0.0734,-0.492511 -0.0734,-0.79375 0,-0.289025 0.0245,-0.545568 0.0734,-0.769462 0.0489,-0.227964 0.1278,-0.418918 0.23771,-0.573608 0.10991,-0.158761 0.25445,-0.278769 0.43357,-0.360185 0.17911,-0.08141 0.39886,-0.122473 0.65939,-0.122473 0.15876,0 0.29956,0.02027 0.42168,0.06098 0.12212,0.04071 0.22774,0.09403 0.31729,0.159164 0.0896,0.06513 0.16477,0.136078 0.22583,0.213423 0.0611,0.07328 0.11012,0.142607 0.14676,0.20774 l 0.46405,-0.286805 c -0.0611,-0.113982 -0.13839,-0.222241 -0.23202,-0.324011 -0.0896,-0.101769 -0.19943,-0.191372 -0.3297,-0.268717 -0.12619,-0.07735 -0.27286,-0.138156 -0.43977,-0.182935 -0.1669,-0.04478 -0.35624,-0.06718 -0.56792,-0.06718 z m 7.31997,0 c -0.51699,0 -0.90581,0.114134 -1.16634,0.342098 -0.26053,0.227964 -0.39067,0.527178 -0.39067,0.897619 0,0.191327 0.0283,0.356137 0.0853,0.494544 0.0611,0.138407 0.15493,0.256285 0.28112,0.353983 0.1262,0.0977 0.28888,0.183041 0.48834,0.256316 0.19947,0.0692 0.43736,0.132661 0.71417,0.189652 0.35823,0.07327 0.62704,0.173012 0.80616,0.299207 0.18318,0.126194 0.27491,0.3054 0.27491,0.537434 0,0.142478 -0.0325,0.262486 -0.0977,0.360185 -0.0651,0.0977 -0.14887,0.17665 -0.25064,0.237712 -0.0977,0.05699 -0.2097,0.100179 -0.33589,0.128674 -0.12213,0.02443 -0.24,0.03669 -0.35399,0.03669 -0.1669,0 -0.31357,-0.01653 -0.43976,-0.04909 -0.1262,-0.03664 -0.23981,-0.0857 -0.34158,-0.146761 -0.0977,-0.06106 -0.18569,-0.132008 -0.26304,-0.213424 -0.0733,-0.08549 -0.13834,-0.175089 -0.19533,-0.268717 l -0.47026,0.293005 c 0.0733,0.122124 0.15913,0.238388 0.25683,0.348299 0.0977,0.105841 0.21345,0.197057 0.34779,0.274402 0.1384,0.07735 0.29734,0.138673 0.47645,0.183451 0.17912,0.04478 0.3866,0.06718 0.6227,0.06718 0.21983,0 0.42731,-0.02453 0.6227,-0.07338 0.19947,-0.04478 0.3728,-0.117855 0.51935,-0.219625 0.15062,-0.101769 0.2685,-0.234043 0.35399,-0.396875 0.0855,-0.162831 0.12815,-0.362307 0.12815,-0.598413 0,-0.219822 -0.0384,-0.403289 -0.11575,-0.549837 -0.0733,-0.150619 -0.17727,-0.276502 -0.31161,-0.378272 -0.13434,-0.10584 -0.29489,-0.191699 -0.48214,-0.256831 -0.18726,-0.06513 -0.39313,-0.1222 -0.61702,-0.171049 -0.20354,-0.04478 -0.37848,-0.08958 -0.52503,-0.134359 -0.14248,-0.04478 -0.25823,-0.09546 -0.34778,-0.152446 -0.0896,-0.06106 -0.15515,-0.128263 -0.19586,-0.201538 -0.0407,-0.07734 -0.061,-0.166947 -0.061,-0.268717 0,-0.219823 0.0837,-0.396898 0.25064,-0.531234 0.17097,-0.134336 0.41312,-0.201538 0.72657,-0.201538 0.26867,0 0.48841,0.05494 0.65939,0.164848 0.17097,0.10584 0.31551,0.254641 0.43356,0.445968 l 0.45786,-0.305408 c -0.14655,-0.236106 -0.34177,-0.427577 -0.58601,-0.574125 -0.24425,-0.146549 -0.56374,-0.219625 -0.9586,-0.219625 z m -80.329464,0.09147 v 2.717147 c 0,0.329734 0.02828,0.610808 0.08527,0.842842 0.05699,0.232035 0.148724,0.419246 0.274919,0.561723 0.130265,0.142478 0.298819,0.246477 0.506429,0.311609 0.20761,0.06513 0.462023,0.09767 0.763261,0.09767 0.301238,0 0.55565,-0.03041 0.763261,-0.09147 0.20761,-0.06513 0.37455,-0.169131 0.500744,-0.311609 0.130265,-0.146548 0.224129,-0.333758 0.28112,-0.561722 0.05699,-0.232035 0.08527,-0.51524 0.08527,-0.849044 v -2.717147 h -0.567924 v 2.668571 c 0,0.240176 -0.01601,0.447657 -0.04858,0.622701 -0.02849,0.170973 -0.08343,0.313382 -0.164848,0.427364 -0.07734,0.109911 -0.185087,0.191509 -0.323494,0.24443 -0.134336,0.05292 -0.309798,0.07958 -0.525549,0.07958 -0.20761,0 -0.380425,-0.02453 -0.518832,-0.07338 -0.134336,-0.05292 -0.242078,-0.134518 -0.323494,-0.24443 -0.08142,-0.113982 -0.138483,-0.258521 -0.171049,-0.433565 -0.03257,-0.175044 -0.04909,-0.386785 -0.04909,-0.635103 v -2.656169 z m 4.265889,0 v 4.439522 h 1.453142 c 0.56991,0 1.001398,-0.103998 1.294494,-0.311609 0.293097,-0.21168 0.439767,-0.551435 0.439767,-1.019576 0,-0.170973 -0.02453,-0.319773 -0.07338,-0.445967 -0.04885,-0.130265 -0.117665,-0.240138 -0.207222,-0.329696 -0.08549,-0.08956 -0.189486,-0.16102 -0.311609,-0.21394 -0.118053,-0.05292 -0.248196,-0.08707 -0.390674,-0.103353 0.203539,-0.0692 0.368349,-0.181207 0.494543,-0.335897 0.130266,-0.15469 0.195337,-0.376566 0.195337,-0.665592 0,-0.170973 -0.02666,-0.319773 -0.07958,-0.445968 -0.05292,-0.126194 -0.140393,-0.231807 -0.262517,-0.317293 -0.122123,-0.08549 -0.284803,-0.148945 -0.488342,-0.189653 -0.199468,-0.04071 -0.448007,-0.06098 -0.745174,-0.06098 z m 7.506519,0 v 0.500745 h 1.398364 v 3.938777 h 0.567924 v -3.938777 h 1.398364 v -0.500745 z m 4.821928,0 -1.557011,4.439522 h 0.579809 l 0.427364,-1.239717 h 1.820044 l 0.427364,1.239717 h 0.598413 l -1.55701,-4.439522 z m 2.898531,0 v 4.439522 h 0.543119 v -3.902087 l 2.11925,3.902087 h 0.671277 V 32.449181 H 62.8034 v 3.559989 l -1.942,-3.559989 z m 8.538496,0 v 4.439522 h 2.771924 v -0.500744 h -2.204 V 34.80615 h 2.008663 v -0.500744 h -2.008663 v -1.355473 h 2.204 v -0.500745 z m 5.778459,0 -1.557011,4.439522 h 0.579809 l 0.427881,-1.239717 h 1.819527 l 0.427364,1.239717 h 0.598414 l -1.557011,-4.439522 z m 2.845304,0 v 4.439522 h 1.453658 c 0.56991,0 1.001398,-0.103998 1.294495,-0.311609 0.293096,-0.21168 0.439249,-0.551435 0.439249,-1.019576 0,-0.170973 -0.02401,-0.319773 -0.07286,-0.445967 -0.04885,-0.130265 -0.118182,-0.240138 -0.207739,-0.329696 -0.08549,-0.08956 -0.189485,-0.16102 -0.311609,-0.21394 -0.118053,-0.05292 -0.248196,-0.08707 -0.390674,-0.103353 0.20354,-0.0692 0.36835,-0.181207 0.494544,-0.335897 0.130265,-0.15469 0.195337,-0.376566 0.195337,-0.665592 0,-0.170973 -0.02614,-0.319773 -0.07906,-0.445968 -0.05292,-0.126194 -0.140393,-0.231807 -0.262516,-0.317293 -0.122124,-0.08549 -0.28532,-0.148945 -0.488859,-0.189653 -0.199469,-0.04071 -0.44749,-0.06098 -0.744658,-0.06098 z m 3.926375,0 v 2.717147 c 0,0.329734 0.02879,0.610808 0.08578,0.842842 0.05699,0.232035 0.148207,0.419246 0.274402,0.561723 0.130265,0.142478 0.299336,0.246477 0.506946,0.311609 0.20761,0.06513 0.462022,0.09767 0.763261,0.09767 0.301238,0 0.55565,-0.03041 0.76326,-0.09147 0.207611,-0.06513 0.374551,-0.169131 0.500745,-0.311609 0.130265,-0.146548 0.224129,-0.333758 0.28112,-0.561722 0.05699,-0.232035 0.08527,-0.51524 0.08527,-0.849044 v -2.717147 h -0.567924 v 2.668571 c 0,0.240176 -0.01601,0.447657 -0.04858,0.622701 -0.0285,0.170973 -0.08343,0.313382 -0.164848,0.427364 -0.07734,0.109911 -0.185604,0.191509 -0.324011,0.24443 -0.134336,0.05292 -0.309281,0.07958 -0.525032,0.07958 -0.207611,0 -0.380425,-0.02453 -0.518832,-0.07338 -0.134336,-0.05292 -0.242595,-0.134518 -0.324011,-0.24443 -0.08142,-0.113982 -0.137966,-0.258521 -0.170532,-0.433565 -0.03257,-0.175044 -0.04909,-0.386785 -0.04909,-0.635103 v -2.656169 z m 8.029484,0 v 4.439522 h 2.77244 V 36.387966 H 89.698915 V 34.80615 h 2.00918 v -0.500744 h -2.00918 v -1.355473 h 2.204516 v -0.500745 z m 8.977746,0 v 4.439522 h 2.771923 V 36.387966 H 98.676661 V 34.80615 h 2.008659 v -0.500744 h -2.008659 v -1.355473 h 2.203999 v -0.500745 z m 3.611153,0 v 4.439522 h 0.5674 v -1.862418 h 1.12397 c 0.30938,0 0.50885,0.18721 0.59841,0.561723 l 0.31729,1.300695 h 0.57413 l -0.36639,-1.453658 c -0.0489,-0.195397 -0.10591,-0.339937 -0.17105,-0.433565 -0.0611,-0.09363 -0.16506,-0.16083 -0.31161,-0.201538 0.10177,-0.03257 0.19564,-0.07737 0.28112,-0.134359 0.0855,-0.06106 0.15857,-0.136268 0.21963,-0.225826 0.0611,-0.09363 0.10799,-0.203501 0.14056,-0.329695 0.0326,-0.130266 0.0491,-0.280679 0.0491,-0.451652 0,-0.236106 -0.0368,-0.431838 -0.11007,-0.586528 -0.0692,-0.15469 -0.17107,-0.276828 -0.30541,-0.366386 -0.13433,-0.09363 -0.29914,-0.1587 -0.49454,-0.195337 -0.1954,-0.04071 -0.41728,-0.06098 -0.66559,-0.06098 z m 3.45818,0 1.44074,4.439522 h 0.76378 l 1.45314,-4.439522 h -0.58033 l -1.2392,3.908289 -1.23971,-3.908289 z m 4.03231,0 v 0.445968 h 0.55553 v 3.547587 h -0.55553 v 0.445967 h 1.67897 v -0.445967 h -0.55552 v -3.547587 h 0.55552 v -0.445968 z m 6.64818,0 v 4.439522 h 2.77192 v -0.500744 h -2.20452 V 34.80615 h 2.00918 v -0.500744 h -2.00918 v -1.355473 h 2.20452 V 32.449181 Z M 45.353819,32.93804 h 0.72037 c 0.170973,0 0.319773,0.008 0.445967,0.02429 0.130266,0.01628 0.238008,0.04882 0.323495,0.09767 0.08549,0.04478 0.148428,0.10985 0.189136,0.195336 0.04071,0.08549 0.0615,0.19536 0.0615,0.329696 0,0.248318 -0.08373,0.431268 -0.250631,0.549321 -0.166902,0.118052 -0.435711,0.17725 -0.806152,0.17725 h -0.68368 z m 32.389237,0 h 0.720886 c 0.170973,0 0.319257,0.008 0.445451,0.02429 0.130265,0.01628 0.238008,0.04882 0.323494,0.09767 0.08549,0.04478 0.148945,0.10985 0.189653,0.195336 0.04071,0.08549 0.06098,0.19536 0.06098,0.329696 0,0.248318 -0.08373,0.431268 -0.250631,0.549321 -0.166902,0.118052 -0.435194,0.17725 -0.805635,0.17725 h -0.684196 z m 24.544234,0 h 0.87334 c 0.34601,0 0.59829,0.05494 0.75705,0.164848 0.16284,0.109911 0.24443,0.309387 0.24443,0.598413 0,0.158761 -0.0181,0.291035 -0.0548,0.396875 -0.0366,0.105841 -0.0958,0.191183 -0.17725,0.256315 -0.0814,0.06513 -0.18916,0.112065 -0.3235,0.14056 -0.13026,0.0285 -0.29133,0.04238 -0.48266,0.04238 h -0.83664 z m -44.818965,0.05478 0.738973,2.155424 h -1.477429 z m 17.215486,0 0.738973,2.155424 h -1.477429 z m -29.329992,1.807125 h 0.79375 c 0.199469,0 0.374414,0.01065 0.525033,0.03101 0.15469,0.01628 0.28322,0.05256 0.384989,0.109554 0.105841,0.05292 0.185308,0.132388 0.238229,0.238228 0.05292,0.10177 0.07906,0.236174 0.07906,0.403076 0,0.183186 -0.0368,0.329856 -0.110071,0.439767 -0.0692,0.10584 -0.166811,0.186922 -0.293006,0.243913 -0.122123,0.05292 -0.268276,0.08759 -0.439249,0.103869 -0.166902,0.01221 -0.346108,0.0186 -0.537435,0.0186 h -0.641305 z m 32.389237,0 h 0.79375 c 0.199468,0 0.37493,0.01065 0.525549,0.03101 0.15469,0.01628 0.282703,0.05256 0.384473,0.109554 0.10584,0.05292 0.185308,0.132388 0.238228,0.238228 0.05292,0.10177 0.07906,0.236174 0.07906,0.403076 0,0.183186 -0.03628,0.329856 -0.109554,0.439767 -0.0692,0.10584 -0.166811,0.186922 -0.293005,0.243913 -0.122124,0.05292 -0.268794,0.08759 -0.439767,0.103869 -0.166902,0.01221 -0.346108,0.0186 -0.537435,0.0186 h -0.641304 z"><title
         id="title63">pennsylvania</title></path></g></svg>
