<svg xmlns="http://www.w3.org/2000/svg" xml:space="preserve" viewBox="0 0 132.29166 34.395833">
  <path d="M30.981039 14.295558c-5.285198-5.58081-17.68402-6.54296-24.5950753-1.90859-.4645965.31154-.4893337.31937-.5212642.16485-.018437-.0892-.084493-.38159-.1467915-.64969-.3710738-1.59696-.7951337-3.58926-.901893-4.23725-.1532613-.93023-.2015251-1.05746-.2702564-.71245-.04383.22001-.053889.18663-.062164-.20624l-.00987-.46872h8.0787084l-.03439-.20624c-.01891-.1129-.199848-.91855-.402077-1.78979-.202228-.871248-.367688-1.639014-.367688-1.706149 0-.111892.590507-.122062 7.087071-.122062 5.639517 0 7.08707.01925 7.08707.09424 0 .05183-.0341.212134-.07577.356228-.04167.144094-.227008.886326-.411855 1.649403-.184848.76308-.357175 1.46335-.382951 1.55616l-.04686.16874 3.777268.00082c4.168978.00091 4.374144.013 4.308533.25369-.07558.27727-1.452088 6.50446-1.600565 7.24081-.162371.80526-.202566.84653-.50918.52277z" style="fill:#003f80;fill-opacity:1" transform="translate(-4.4737246 -2.453227)"/>
  <path d="M9.688196 29.583208c-.021041-.093-.1713367-.74283-.3339912-1.44404-1.5589569-6.7207-2.7988311-12.57505-2.701676-12.75658.5302635-.99081 2.9720068-2.99011 4.7093302-3.856 9.549925-4.75974 19.932215 2.95302 17.365344 12.90031-.654915 2.53796-2.375802 5.32467-3.288163 5.32467h-.3624l.05018-.46872c.37754-3.52626-.651894-5.6809-2.714197-5.6809-.331658 0-.33268-.00082-.211614-.16874 1.382142-1.91712.928891-4.78096-.756665-4.78096-2.102023 0-3.086771 4.1951-1.251064 5.32963.320019.19778.317982.23293-.02676.4618-.323919.21504-.853674.7312-1.087518 1.0596-.180007.2528-.118037.22612.432394-.18612 2.639794-1.97706 5.134649.0885 4.58612 3.79695l-.08874.59997-7.141161.0191-7.1411624.0191zm2.660049-1.60076c0-.0243-.16718-.2318-.371511-.46105-.773424-.86777-1.16748-1.95231-1.252927-3.44839l-.04862-.85129.380224-.36649c2.058336-1.98397 5.384677-1.47973 7.384343 1.11941.431382.5607.328593.0533-.159044-.78517-.709402-1.21971-1.640894-1.72571-3.545692-1.92604l-.900695-.0947.06201-.30203c.09283-.45215.05637-1.16003-.07885-1.53102l-.119929-.32902.731512.0524c1.729657.12385 2.551693.45915 3.398219 1.3861.541633.59309.666462.58799.360105-.0147-.421613-.82944-1.060917-1.44056-1.891068-1.80769-.493086-.21807-.478889-.14181-.222764-1.19665.195111-.80357.203712-.82099.31873-.64548.842149 1.28503 1.0504 1.36544 3.867981 1.49359 2.266962.10311 2.9032.2716 3.923817 1.03914 1.937347 1.45695 3.061319 4.44079 2.274784 6.03893-.277502.56385-.273455.75189.0065.30041.644236-1.03908.70796-3.21886.131506-4.49835-.843129-1.87139-2.628002-3.12288-5.43836-3.81317-.451421-.11088-.84621-.21733-.877309-.23655-.0311-.0192.17782-.48044.464264-1.02494 1.397063-2.65566.880562-4.31672-1.499378-4.82198-1.702097-.36136-2.838342.38853-3.343886 2.20688l-.13138.47254-.373055-.38905c-1.420561-1.4815-3.203756-.96152-4.405974 1.28478-.449326.83954-.721384 1.16137-1.0411441 1.2316-.5456213.11984.1793611 1.23649 1.1227071 1.72924l.262484.13711-.337479.0619c-1.3952046.25576-1.5398658.6116-1.5334459 3.77193.00657 3.23613.503289 5.02521 1.6149569 5.81678.364932.25986 1.268407.54556 1.268407.40111zm-1.687953-6.1054c.02283-.30936.0811-.94256.129485-1.40712l.08798-.84466.191528.58914c.12078.37152.29541.71589.47276.93227.327661.39979.336011.43039.117422.43039-.330198 0-.79212.2938-.919271.58469l-.121409.27776zm1.800446-.74106c-.790072-.4935-1.154119-1.41502-.792976-2.00729.433992-.71174 1.334729-.31997 1.889441.82179.39942.82213-.361352 1.64468-1.096465 1.1855zm.922093-3.01207c-1.224473-.64665-1.469397-3.01024-.416591-4.02024 1.458711-1.39939 3.451288.60643 2.730513 2.74868-.394486 1.17246-1.427078 1.7399-2.313922 1.27156zm4.229161-1.03532c-1.584609-.84485-1.817038-3.42134-.419609-4.65141 1.30344-1.14733 3.203029.0814 3.18663 2.06119-.01569 1.89495-1.487289 3.27252-2.767021 2.59022zm2.575243 6.68215c-1.108055-.61284-1.129784-2.61454-.0412-3.79551 1.590925-1.72595 3.004227 1.20736 1.556357 3.23021-.489422.68379-.974021.86459-1.515155.5653z" style="fill:#54a1db" transform="translate(-4.4737246 -2.453227)"/>
  <path d="m83.627968 4.9723062-1.750281.9498128v7.299813c0 1.492458.407157 2.292883 1.953886 2.292883.515576 0 .963018-.06793 1.465027-.203605l-.406694-1.316199c-.189949.06784-.461426.10852-.678511.10852-.447738 0-.583427-.271269-.583427-1.071769zm25.819612.5565551c-.66482 0-1.07177.3117414-1.07177.9358602 0 .610551.36624.922941 1.07177.922941.67839 0 1.07177-.2852544 1.07177-.922941 0-.7190934-.54263-.9358602-1.07177-.9358602zM40.523107 8.0522214c-.827636 0-1.587655.3664193-2.103231.8412923v-.6376871h-1.641243v9.6738274h1.749763v-2.889746c.55628.325628 1.166976.474907 1.845366.474907 1.91306 0 2.971395-1.397366 2.971395-3.785299 0-2.2115511-.922558-3.6772946-2.82205-3.6772946zm7.190775 0c-2.496475 0-3.337781 1.5738792-3.337781 3.7718626 0 2.577882 1.262029 3.690731 3.378605 3.690731 1.288941 0 2.06244-.393577 2.537313-.732772l-.882117-1.207678c-.339195.271356-.868417.542602-1.533239.542602-1.058289 0-1.627797-.678039-1.682068-1.736328h4.558378v-1.044897c0-1.9944667-.854675-3.2835206-3.039091-3.2835206zm8.412406 0c-.814068 0-1.655438.4343465-2.374532 1.0448975v-.8412923h-1.64176V15.31121h1.750281v-4.857068c.583415-.4884408 1.275407-.8821167 1.75028-.8821167.719094 0 .908989.4071014.908989 1.5874997v4.151685h1.750281v-4.694287c0-1.7502464-.705352-2.5647016-2.143539-2.5647016zm7.841899 0c-.814068 0-1.655439.4343465-2.374532 1.0448975v-.8412923h-1.641244V15.31121h1.750281v-4.857068c.583415-.4884408 1.274891-.8821167 1.749764-.8821167.719093 0 .909505.4071014.909505 1.5874997v4.151685h1.749764v-4.694287c0-1.7502464-.705352-2.5647016-2.143538-2.5647016zm6.417695 0c-1.424618 0-2.849438.610498-2.849438 2.1843626 0 1.641704 1.30272 2.049026 2.795178 2.415357.881907.217084 1.221114.393433 1.221114.800467 0 .596984-.705647.746208-1.316198.746208-.637687 0-1.288866-.230488-1.655196-.813904l-1.275375.77308c.55628.976881 1.723168 1.357023 2.917135 1.357023 1.519593 0 3.011702-.610872 3.011702-2.252576 0-1.601-1.288448-1.967003-2.441711-2.265495-.949746-.24422-1.574064-.393412-1.574064-.908988 0-.4884407.433939-.7193359 1.139465-.7193359.651254 0 1.194309.2578988 1.506368.7327719l1.275374-.7596436c-.569847-.8954748-1.587523-1.289327-2.754354-1.289327Zm25.249621 0c-1.275373 0-2.198184.2717086-2.849438.8144206l.854728 1.166854c.461305-.4070342.990583-.6650759 1.899626-.6650759.881907 0 1.383894.271401 1.383894 1.0583329v.284738c-.298491.02713-1.152978.09534-1.410766.122473-1.709543.162813-2.985347.705297-2.985347 2.414839 0 1.329645.854839 2.266012 2.225187 2.266012.976881 0 1.668896-.448068 2.279447-.922941v.719336h1.64176v-4.7625c0-1.8316531-1.031056-2.4964886-3.039091-2.4964886zm8.737447 0c-.81406 0-1.65492.4343465-2.37401 1.0448975v-.8412923h-1.64176V15.31121h1.75028v-4.857068c.58341-.4884408 1.27541-.8821167 1.75028-.8821167.71909 0 .90899.4071014.90899 1.5874997v4.151685h1.75028v-4.694287c0-1.7502464-.70587-2.5647016-2.14406-2.5647016zm10.58282 0c-1.27537 0-2.19767.2717086-2.84892.8144206l.85473 1.166854c.4613-.4070342.99058-.6650759 1.89962-.6650759.88191 0 1.3839.271401 1.3839 1.0583329v.284738c-.29849.02713-1.1535.09534-1.41129.122473-1.70954.162813-2.98483.705297-2.98483 2.414839 0 1.329645.85484 2.266012 2.22519 2.266012.97688 0 1.6689-.448068 2.27945-.922941v.719336h1.64176v-4.7625c0-1.8316531-1.03158-2.4964886-3.03961-2.4964886zm-41.083279.2036052 2.686658 6.7840814-.135909.325562c-.352763.841203-.718699 1.221114-1.315682 1.221114-.284924 0-.759952-.08123-1.153418-.230477l-.393258 1.343071c.461306.149245 1.098939.230476 1.546676.230476 1.288941 0 2.224935-.488156 2.835486-2.048453l2.971394-7.6253744h-1.736844l-1.763717 4.6674154-1.736845-4.6674154Zm11.302152 0 2.645834 7.0553834h1.383895l2.659269-7.0553834h-1.722893l-1.5875 4.6808514-1.574064-4.6808514zm22.359877 0v1.3027628h1.11259V15.31121h1.75028V8.2558266ZM47.727835 9.3549843c.92261 0 1.34307.5698821 1.34307 1.7502807h-2.87631c.09497-1.2075342.583494-1.7502807 1.53324-1.7502807zm-7.679635.0134358c1.058289 0 1.47898.8683739 1.47898 2.3879679 0 1.736678-.569805 2.442228-1.492416 2.442228-.637686 0-1.05863-.176294-1.506368-.434082v-3.690731c.366331-.379898.936389-.7053829 1.519804-.7053829Zm56.876113 2.5099239v1.546676c-.542711.407034-1.058091.732772-1.614371.732772-.596983 0-1.017509-.284606-1.017509-.93586 0-.800501.542494-1.126393 1.722892-1.248503.217085-.02714.746175-.08152.908988-.09508zm19.320787 0v1.546676c-.54271.407034-1.05861.732772-1.61489.732772-.59698 0-1.01751-.284606-1.01751-.93586 0-.800501.54301-1.126393 1.72341-1.248503.21708-.02714.74617-.08152.90899-.09508zm-37.691241 7.963855c-.366371 0-.67572.05281-.928109.158647-.248318.10584-.449924.258901-.604614.45837-.15469.199468-.266693.443229-.335897.732255-.06513.284955-.09767.606569-.09767.964799 0 .358229.03254.679844.09767.964799.0692.284955.181207.527618.335897.727087s.356296.352013.604614.457853c.252389.105841.561738.158647.928109.158647s.67359-.05281.921908-.158647c.252388-.10584.456125-.258384.610815-.457853s.264563-.442132.329696-.727087c.0692-.284955.103869-.60657.103869-.964799 0-.35823-.03467-.679844-.103869-.964799-.06513-.289026-.175006-.532787-.329696-.732255-.15469-.199469-.358427-.35253-.610815-.45837-.248318-.105841-.555537-.158647-.921908-.158647zm31.985131 0c-.51699 0-.90529.114134-1.16582.342098-.26053.227964-.39119.527178-.39119.89762 0 .191327.0288.356136.0858.494543.0611.138407.15441.256285.2806.353984.1262.0977.28939.183557.48886.256832.19947.0692.43735.132144.71417.189135.35823.07327.62704.173012.80615.299207.18319.126194.27492.3054.27492.537435 0 .142477-.0325.262486-.0977.360184-.0651.0977-.14886.177167-.25063.238229-.0977.05699-.2097.09966-.3359.128157-.12212.02442-.24.03669-.35398.03669-.1669 0-.31357-.01653-.43977-.04909-.12619-.03664-.24033-.08518-.34209-.146244-.0977-.06106-.18518-.132525-.26252-.213941-.0733-.08549-.13835-.175089-.19534-.268717l-.47025.293005c.0733.122124.15913.238388.25683.348299.0977.105841.21344.197057.34778.274402.13841.07735.29734.138673.47646.183451.17911.04478.38659.06718.6227.06718.21982 0 .4273-.02453.6227-.07338.19947-.04478.3728-.117855.51935-.219625.15062-.101769.26849-.234043.35398-.396875.0855-.162831.12816-.362307.12816-.598413 0-.219822-.0384-.403288-.11576-.549837-.0733-.150619-.17727-.276502-.31161-.378271-.13433-.105841-.2954-.1917-.48265-.256832-.18726-.06513-.39261-.121683-.6165-.170532-.20354-.04478-.37849-.08958-.52504-.134359-.14247-.04478-.25874-.09597-.34829-.152962-.0896-.06106-.15463-.128264-.19534-.201538-.0407-.07735-.061-.166948-.061-.268718 0-.219822.0837-.396898.25063-.531234.17097-.134336.41312-.201538.72657-.201538.26867 0 .48842.05494.65939.164848.17098.105841.31552.254641.43357.445968l.45785-.305408c-.14655-.236106-.34176-.427577-.58601-.574125-.24425-.146548-.56425-.219625-.95911-.219625zm17.28059 0c-.69203 0-1.20085.191471-1.52652.574125-.32159.382654-.48214.962425-.48214 1.739946 0 .781591.16268 1.361879.48834 1.740462.32567.378583.83236.567924 1.52032.567924.26868 0 .52309-.03467.76327-.10387.24017-.0692.46418-.189211.67179-.360185l-.3421-.433565c-.057.04885-.11993.09791-.18913.146761-.0692.04478-.14868.08745-.23823.128158-.0896.04071-.1893.07324-.29921.09767-.10991.02442-.23205.03669-.36639.03669-.25238 0-.46787-.03893-.64698-.116272-.17912-.07735-.32579-.191479-.43977-.342098-.11398-.15469-.19719-.343514-.25011-.567408-.0489-.227964-.0734-.493028-.0734-.794266 0-.289026.0245-.545052.0734-.768946.0488-.227964.1278-.419435.23771-.574125.10991-.15876.25445-.278769.43356-.360184.17912-.08142.39886-.122474.65939-.122474.15876 0 .29956.02079.42168.0615.12213.04071.22774.09351.3173.158647.0896.06513.16476.136079.22582.213424.0611.07327.11013.142606.14676.207739l.46406-.286804c-.0611-.113982-.1384-.222242-.23203-.324012-.0896-.101769-.19943-.190855-.3297-.2682-.12619-.07734-.27286-.138673-.43976-.183452-.1669-.04478-.35624-.06718-.56793-.06718zm7.07089 0c-.51699 0-.90529.114134-1.16582.342098-.26053.227964-.39119.527178-.39119.89762 0 .191327.0288.356136.0858.494543.0611.138407.15441.256285.28061.353984.12619.0977.28939.183557.48885.256832.19947.0692.43736.132144.71417.189135.35823.07327.62704.173012.80616.299207.18318.126194.27491.3054.27491.537435 0 .142477-.0331.262486-.0982.360184-.0651.0977-.14835.177167-.25012.238229-.0977.05699-.2097.09966-.33589.128157-.12213.02442-.24.03669-.35399.03669-.1669 0-.31357-.01653-.43976-.04909-.1262-.03664-.24033-.08518-.3421-.146244-.0977-.06106-.18517-.132525-.26252-.213941-.0733-.08549-.13834-.175089-.19533-.268717l-.47026.293005c.0733.122124.15913.238388.25683.348299.0977.105841.21345.197057.34779.274402.1384.07735.29734.138673.47645.183451.17912.04478.3866.06718.6227.06718.21983 0 .42731-.02453.6227-.07338.19947-.04478.3728-.117855.51935-.219625.15062-.101769.2685-.234043.35399-.396875.0855-.162831.12815-.362307.12815-.598413 0-.219822-.0384-.403288-.11575-.549837-.0733-.150619-.17727-.276502-.31161-.378271-.13434-.105841-.2954-.1917-.48266-.256832-.18725-.06513-.39261-.121683-.6165-.170532-.20354-.04478-.37848-.08958-.52503-.134359-.14248-.04478-.25874-.09597-.3483-.152962-.0896-.06106-.15463-.128264-.19534-.201538-.0407-.07735-.061-.166948-.061-.268718 0-.219822.0837-.396898.25064-.531234.17097-.134336.41312-.201538.72657-.201538.26867 0 .48841.05494.65939.164848.17097.105841.31551.254641.43356.445968l.45786-.305408c-.14655-.236106-.34177-.427577-.58602-.574125-.24424-.146548-.56424-.219625-.95911-.219625zm-98.045692.09147v4.439523h1.270207c.382654 0 .716534-.03254 1.001489-.09767.289026-.0692.529043-.187598.72037-.3545.195397-.166902.339937-.392523.433565-.677478.0977-.289026.146761-.651698.146761-1.087272 0-.419291-.04693-.769181-.14056-1.050065-.09363-.284955-.236037-.512707-.427364-.68368-.191327-.175043-.431344-.299312-.720369-.372587-.289026-.07735-.631428-.116272-1.026294-.116272zm4.298963 0v4.439523h2.771923v-.500745h-2.203999v-1.581816h2.008662v-.500744h-2.008662v-1.355473h2.203999v-.500745zm3.486608 0v4.439523h.567924v-1.709974h.707967c.578052 0 .997791-.109873 1.258322-.329695.26053-.223893.390673-.583918.390673-1.080554 0-.244248-.0368-.450115-.11007-.617017-.0692-.170973-.172686-.306991-.311093-.40876-.138406-.105841-.309607-.181565-.513146-.226343-.199469-.04478-.42935-.06718-.689881-.06718zm4.219381 0-1.557011 4.439523h.57981l.427364-1.239718h1.820044l.427364 1.239718h.598413l-1.557011-4.439523zm2.766239 0v4.439523h.567924V22.51077h1.123446c.30938 0 .508856.18721.598413.561723l.317293 1.300696h.574125l-.366386-1.453658c-.04885-.195398-.105916-.339421-.171048-.433049-.06106-.09363-.165061-.16083-.311609-.201538.101769-.03257.195633-.07737.281119-.134359.08549-.06106.158563-.136785.219625-.226342.06106-.09363.107994-.203502.14056-.329696.03257-.130265.04909-.280679.04909-.451652 0-.236106-.0368-.431321-.110071-.586011-.0692-.15469-.171072-.276828-.305408-.366386-.134336-.09363-.299145-.1587-.494543-.195337-.195398-.04071-.417275-.0615-.665593-.0615zm3.45612 0v.500745h1.398364v3.938778h.567407v-3.938778h1.398365v-.500745zm3.895369 0v4.439523h.543636v-3.77393l1.270207 2.552299h.366386l1.282092-2.552299v3.77393h.543636v-4.439523h-.769462l-1.233516 2.460832-1.209229-2.460832zm4.903577 0v4.439523h2.771924v-.500745h-2.204v-1.581816h2.008663v-.500744h-2.008663v-1.355473h2.204v-.500745zm3.486609 0v4.439523h.543119v-3.902088l2.11925 3.902088h.671277v-4.439523h-.543119v3.55999l-1.942-3.55999zm3.86488 0v.500745h1.398364v3.938778h.567924v-3.938778h1.398364v-.500745zm10.024194 0v4.439523h.567924v-2.082561h1.971973v-.500744h-1.971973v-1.355473h2.179712v-.500745zm4.980058 0v4.439523h.567924V22.33352h2.118733v2.039669h.567924v-4.439523h-.567924v1.899109H86.7947v-1.899109zm4.127913 0v2.717664c0 .329734.02828.610291.08527.842326s.148724.419245.274919.561723c.130265.142477.299335.246476.506945.311608.20761.06513.462023.09767.763261.09767.301238 0 .555651-.03041.763261-.09147.20761-.06513.37455-.169132.500745-.311609.130265-.146549.223612-.333759.280603-.561723.05699-.232035.08578-.514723.08578-.848527v-2.717664h-.567924v2.668571c0 .240177-.01653.447657-.04909.622701-.0285.170973-.08343.313382-.164848.427364-.07734.109912-.185087.19151-.323494.24443-.134336.05292-.309281.07958-.525033.07958-.20761 0-.380941-.02453-.519348-.07338-.134336-.05292-.242079-.134518-.323494-.244429-.08142-.113983-.138483-.258522-.171049-.433566-.03257-.175044-.04858-.386785-.04858-.635103v-2.656169zm4.133598 0v4.439523h.543636v-3.77393l1.270206 2.552299h.366386l1.282092-2.552299v3.77393h.543636v-4.439523h-.769462l-1.233516 2.460832-1.208712-2.460832zm6.033223 0-1.557011 4.439523h.57981l.427364-1.239718h1.820047l.42736 1.239718h.59841l-1.55701-4.439523zm2.76624 0v4.439523h.54312v-3.902088l2.11873 3.902088h.6718v-4.439523h-.54312v3.55999l-1.942-3.55999zm9.60871 0v4.439523h2.77193v-.500745h-2.20452v-1.581816h2.00918v-.500744h-2.00918v-1.355473h2.20452v-.500745zm3.48661 0v4.439523h.56741V22.51077h1.12396c.30938 0 .50886.18721.59842.561723l.31729 1.300696h.57412l-.36638-1.453658c-.0489-.195398-.10592-.339421-.17105-.433049-.0611-.09363-.16506-.16083-.31161-.201538.10177-.03257.19563-.07737.28112-.134359.0855-.06106.15856-.136785.21963-.226342.0611-.09363.10799-.203502.14056-.329696.0326-.130265.0491-.280679.0491-.451652 0-.236106-.0368-.431321-.11007-.586011-.0692-.15469-.17107-.276828-.30541-.366386-.13434-.09363-.29915-.1587-.49454-.195337-.1954-.04071-.41728-.0615-.6656-.0615zm3.33365 0 1.44126 4.439523h.76326l1.45314-4.439523h-.57981l-1.23972 3.908289-1.23972-3.908289zm3.90829 0v.445968h.55552v3.547587h-.55552v.445968h1.67897v-.445968h-.55553v-3.547587h.55553v-.445968zm6.39909 0v4.439523h2.77192v-.500745h-2.204v-1.581816h2.00867v-.500744h-2.00867v-1.355473h2.204v-.500745zm-51.470241.396875c.25646 0 .470332.04106.641305.122474.175043.07734.315322.193092.421163.347782.109911.15469.187248.346161.232027.574125.04885.227964.07338.488251.07338.781348 0 .293096-.02453.5539-.07338.781864-.04478.223893-.122116.413234-.232027.567924-.105841.15469-.24612.272568-.421163.353984-.170973.07735-.384845.116272-.641305.116272-.256459 0-.472462-.03893-.647506-.116272-.170973-.08142-.311251-.199294-.421162-.353984-.105841-.15469-.183178-.344031-.232028-.567924-.04478-.227964-.06718-.488768-.06718-.781864 0-.293097.0224-.553384.06718-.781348.04885-.227964.126187-.419435.232028-.574125.109911-.15469.250189-.270438.421162-.347782.175044-.08142.391047-.122474.647506-.122474zm-26.369966.09198h.872815c.346017 0 .598299.05494.75706.164848.162831.109911.244429.309387.244429.598413 0 .158761-.01814.291035-.05478.396875-.03664.105841-.09583.191183-.17725.256315-.08141.06513-.189158.112065-.323494.14056-.130265.0285-.291331.04237-.482658.04237h-.836125Zm64.766587 0h.87333c.34602 0 .5983.05494.75706.164848.16283.109911.24443.309387.24443.598413 0 .158761-.0181.291035-.0548.396875-.0366.105841-.0958.191183-.17725.256315-.0814.06513-.18915.112065-.32349.14056-.13027.0285-.29133.04237-.48266.04237h-.83664zm-79.537778.01189h.671794c.30938 0 .573927.02879.79375.08578.219822.05292.399028.146267.537435.280603.142477.130265.244346.30521.305407.525032.06513.219823.09767.495023.09767.824756 0 .321592-.03092.592015-.09198.811837-.06106.219822-.160283.396898-.29869.531234s-.317612.231943-.537435.293005c-.219822.05699-.488631.08578-.806152.08578h-.671794zm7.785571 0h.702283c.166902 0 .315186.01227.445451.03669.130265.02443.240138.06923.329696.134359.09363.06106.16296.146404.207739.256315.04885.105841.07338.240245.07338.403076 0 .191327-.02453.346002-.07338.464055-.04478.113982-.114111.203584-.207739.268717-.09363.06513-.211506.109934-.353984.134359-.142478.02035-.311548.03049-.506946.03049h-.6165zm4.005441.04289.738972 2.155424h-1.477945zm51.671776 0 .73898 2.155424h-1.47795zm-62.405488 5.697844c-.366371 0-.67572.05281-.928109.158646-.248318.105841-.449924.258385-.604614.457854-.15469.199468-.266693.443745-.335897.732771-.06513.284955-.09767.60657-.09767.964799 0 .35823.03254.679844.09767.964799.0692.284955.181207.527102.335897.726571.15469.199468.356296.352013.604614.457853.252389.10584.561738.159163.928109.159163s.67359-.05332.921908-.159163c.252388-.10584.456125-.258385.610815-.457853.15469-.199469.264563-.441616.329696-.726571.0692-.284955.103869-.606569.103869-.964799 0-.358229-.03467-.679844-.103869-.964799-.06513-.289026-.175006-.533303-.329696-.732771-.15469-.199469-.358427-.352013-.610815-.457854-.248318-.10584-.555537-.158646-.921908-.158646zm14.131437 0c-.692034 0-1.200859.190954-1.526522.573608-.321592.382654-.482658.962942-.482658 1.740462 0 .781591.163196 1.361879.488859 1.740462.325663.378584.832358.567924 1.520321.567924.268672 0 .523084-.03467.763261-.103869.240176-.0692.464183-.189729.671793-.360702l-.342098-.433048c-.05699.04885-.119932.0974-.189135.146244-.0692.04478-.148671.08745-.238229.128158-.08956.04071-.189295.07324-.299206.09767-.109912.02443-.23205.03669-.366386.03669-.252389 0-.468391-.03841-.647506-.115755-.179114-.07735-.325267-.191479-.439249-.342098-.113983-.15469-.197711-.34403-.250631-.567924-.04885-.227964-.07338-.492512-.07338-.79375 0-.289026.02453-.545569.07338-.769462.04885-.227964.128317-.419435.238228-.574125.109911-.158761.254451-.278769.433565-.360185.179115-.08141.398861-.121956.659392-.121956.15876 0 .299039.02027.421163.06098.122123.04071.228252.09351.31781.158647.08956.06513.164764.136595.225826.21394.06106.07327.110124.142607.146761.207739l.464054-.28732c-.06106-.113983-.138399-.221725-.232027-.323495-.08956-.10177-.199431-.191372-.329696-.268717-.126194-.07735-.272864-.138156-.439766-.182935-.166902-.04478-.356243-.06718-.567924-.06718zm8.887829 0c-.366371 0-.67572.05281-.928109.158646-.248318.105841-.449924.258385-.604614.457854-.15469.199468-.266693.443745-.335897.732771-.06513.284955-.09767.60657-.09767.964799 0 .35823.03254.679844.09767.964799.0692.284955.181207.527102.335897.726571.15469.199468.356296.352013.604614.457853.252389.10584.561738.159163.928109.159163s.67359-.05332.921908-.159163c.252388-.10584.456125-.258385.610815-.457853.15469-.199469.264563-.441616.329696-.726571.0692-.284955.103869-.606569.103869-.964799 0-.358229-.03467-.679844-.103869-.964799-.06513-.289026-.175006-.533303-.329696-.732771-.15469-.199469-.358427-.352013-.610815-.457854-.248318-.10584-.555537-.158646-.921908-.158646zm-20.130553.09147v4.439005h.567924V28.62358h1.972489v-.50075h-1.972489v-1.355472h2.179711v-.500745zm3.535701 0v4.439005h.567924V28.62358h1.972489v-.50075H45.46234v-1.355472h2.180229v-.500745zm3.316077 0v.445451h.556038v3.548104h-.556038v.44545h1.679484v-.44545h-.555522v-3.548104h.555522v-.445451zm6.790799 0v4.439005h2.772441v-.500744h-2.204517V28.62358h2.00918v-.50075h-2.00918v-1.355472h2.204517v-.500745zm9.180835 0v4.439005h.567924v-2.082048h1.972489v-.500745h-1.972489v-1.355472h2.179712v-.500745zm5.110282 0v4.439005h.54312V26.93221l1.270206 2.552299h.366386l1.282609-2.552299v3.773413h.543119v-4.439005h-.769462l-1.232999 2.460832-1.209229-2.460832zm4.916496 0v4.439005h2.771924v-.500744h-2.204V28.62358h2.008663v-.50075h-2.008663v-1.355472h2.204v-.500745zm3.499528 0v4.439005h.543636v-3.90157l2.118733 3.90157h.671794v-4.43901h-.543636v3.559989l-1.941484-3.559989zm3.878833 0v.500745h1.398364v3.93826h.567924v-3.93826h1.397847v-.500745zm4.702555 0-1.557011 4.439005h.580326l.427364-1.2392h1.819527l.427365 1.2392h.598413l-1.557011-4.439005zm2.779158 0v4.439005h2.650484v-.500744h-2.08256v-3.938261zm4.973857 0v4.439005h.567924v-2.039152h2.118733v2.039152h.567924v-4.439005h-.567924v1.899109H94.61076v-1.899109zm4.152201 0v4.439005h2.772443v-.500744h-2.204519V28.62358h2.008659v-.50075h-2.008659v-1.355472h2.204519v-.500745zm4.616253 0-1.55701 4.439005h.57981l.42788-1.2392h1.81953l.42736 1.2392h.59842l-1.55701-4.439005zm2.76624 0v4.439005h2.64997v-.500744h-2.08204v-3.938261zm2.75384 0v.500745h1.39836v3.93826h.56793v-3.93826h1.39836v-.500745zm3.89588 0v4.439005h.56793v-2.039152h2.11873v2.039152h.56793v-4.439005h-.56793v1.899109h-2.11873v-1.899109zm6.72156 0-1.55701 4.439005h.58032l.42737-1.2392h1.81952l.42737 1.2392h.59841l-1.55701-4.439005zm2.76624 0v4.439005h.54363v-3.90157l2.11874 3.90157h.67179v-4.439005h-.54364v3.559989l-1.94148-3.559989zm4.23178 0v4.439005h1.27021c.38265 0 .71601-.03254 1.00097-.09767.28903-.0692.52956-.187081.72089-.353984.19539-.166902.33993-.393039.43356-.677994.0977-.289026.14625-.651182.14625-1.086756 0-.419291-.0469-.769181-.14056-1.050065-.0936-.284955-.23604-.513223-.42737-.684196-.19133-.175044-.43134-.299313-.72037-.372587-.28902-.07735-.63091-.115755-1.02578-.115755zm-87.476828.396875c.25646 0 .470332.04054.641305.121956.175043.07735.315322.19361.421163.348299.109911.15469.187248.346162.232027.574126.04885.227964.07338.488251.07338.781347 0 .293097-.02453.553384-.07338.781348-.04478.223893-.122116.413234-.232027.567924-.105841.15469-.24612.273084-.421163.3545-.170973.07735-.384845.115755-.641305.115755-.256459 0-.471945-.03841-.646989-.115755-.170973-.08142-.311768-.19981-.421679-.3545-.105841-.15469-.183178-.344031-.232028-.567924-.04478-.227964-.06718-.488251-.06718-.781348 0-.293096.0224-.553383.06718-.781347.04885-.227964.126187-.419436.232028-.574126.109911-.154689.250706-.270954.421679-.348299.175044-.08141.39053-.121956.646989-.121956zm23.019266 0c.25646 0 .470332.04054.641305.121956.175044.07735.315322.19361.421163.348299.109911.15469.187248.346162.232027.574126.04885.227964.07338.488251.07338.781347 0 .293097-.02453.553384-.07338.781348-.04478.223893-.122116.413234-.232027.567924-.105841.15469-.246119.273084-.421163.3545-.170973.07735-.384845.115755-.641305.115755-.256459 0-.471945-.03841-.646989-.115755-.170973-.08142-.311768-.19981-.421679-.3545-.105841-.15469-.183178-.344031-.232028-.567924-.04478-.227964-.06718-.488251-.06718-.781348 0-.293096.0224-.553383.06718-.781347.04885-.227964.126187-.419436.232028-.574126.109911-.154689.250706-.270954.421679-.348299.175044-.08141.39053-.121956.646989-.121956zm65.025482.10387h.67128c.30938 0 .57445.02827.79427.08527.21982.05292.39851.146784.53692.281119.14247.130266.24434.305211.3054.525033.0651.219823.0977.494505.0977.824239 0 .321592-.0304.592531-.0915.812354-.0611.219822-.1608.396897-.29921.531233-.13841.134336-.31761.231944-.53744.293006-.21982.05699-.48863.08527-.80615.08527h-.67128zm-39.870946.04289.738973 2.155424h-1.477429zm16.521476 0 .73897 2.155424h-1.47743zm16.13803 0 .73897 2.155424h-1.47794zm-81.24827 5.547465c-.51699 0-.905806.114134-1.166337.342098-.26053.227964-.390673.527178-.390673.897619 0 .191327.02828.356137.08527.494544.06106.138407.154925.256285.281119.353983.126195.0977.288874.183041.488343.256316.199468.0692.437354.132661.714168.189652.358229.07327.627038.173012.806152.299207.183186.126194.274919.3054.274919.537434 0 .142478-.03254.262486-.09767.360185-.06513.0977-.148861.17665-.25063.237712-.0977.05699-.209703.100179-.335897.128674-.122124.02443-.240002.03669-.353984.03669-.166902 0-.313572-.01653-.439766-.04909-.126194-.03664-.239812-.0857-.341581-.146761-.0977-.06106-.185172-.132008-.262517-.213424-.07327-.08549-.138862-.175089-.195853-.268717l-.469739.293005c.07327.122124.158616.238388.256315.348299.0977.105841.213447.197057.347783.274402.138406.07735.297342.138673.476456.183451.179115.04478.386596.06718.622701.06718.219823 0 .42782-.02453.623218-.07338.199469-.04478.372283-.117855.518831-.219625.150619-.101769.268497-.234043.353984-.396875.08549-.162831.128157-.362307.128157-.598413 0-.219822-.03841-.403289-.115755-.549837-.07327-.150619-.177273-.276502-.311609-.378272-.134336-.10584-.294885-.191699-.482141-.256831-.187256-.06513-.393123-.1222-.617016-.171049-.20354-.04478-.378485-.08958-.525033-.134359-.142477-.04478-.258225-.09546-.347782-.152446-.08956-.06106-.154629-.128263-.195337-.201538-.04071-.07734-.0615-.166947-.0615-.268717 0-.219823.08373-.396898.250631-.531234.170973-.134336.41312-.201538.72657-.201538.268672 0 .488418.05494.659391.164848.170973.10584.315513.254641.433566.445968l.457853-.305408c-.146546-.236113-.341762-.427584-.586009-.574132-.244247-.146549-.563731-.219625-.958598-.219625Zm12.114506 0c-.51699 0-.905807.114134-1.166337.342098-.26053.227964-.390674.527178-.390674.897619 0 .191327.02828.356137.08527.494544.06106.138407.154926.256285.28112.353983.126194.0977.288874.183041.488342.256316.199469.0692.437872.132661.714685.189652.35823.07327.626521.173012.805636.299207.183185.126194.274919.3054.274919.537434 0 .142478-.03254.262486-.09767.360185-.06513.0977-.148344.17665-.250114.237712-.0977.05699-.209702.100179-.335897.128674-.122123.02443-.240518.03669-.3545.03669-.166902 0-.313055-.01653-.43925-.04909-.126194-.03664-.240328-.0857-.342098-.146761-.0977-.06106-.185171-.132008-.262516-.213424-.07327-.08549-.138346-.175089-.195337-.268717l-.470255.293005c.07327.122124.158616.238388.256315.348299.0977.105841.213963.197057.348299.274402.138407.07735.296825.138673.47594.183451.179114.04478.387112.06718.623218.06718.219822 0 .427303-.02453.622701-.07338.199468-.04478.372283-.117855.518831-.219625.150619-.101769.269014-.234043.3545-.396875.08549-.162831.128158-.362307.128158-.598413 0-.219822-.03893-.403289-.116272-.549837-.07327-.150619-.176756-.276502-.311092-.378272-.134336-.10584-.295402-.191699-.482658-.256831-.187256-.06513-.392607-.1222-.6165-.171049-.203539-.04478-.379001-.08958-.525549-.134359-.142478-.04478-.258225-.09546-.347783-.152446-.08956-.06106-.154629-.128263-.195337-.201538-.04071-.07734-.06098-.166947-.06098-.268717 0-.219823.08321-.396898.250114-.531234.170973-.134336.41312-.201538.726571-.201538.268672 0 .488418.05494.659391.164848.170973.10584.315513.254641.433565.445968l.45837-.305408c-.146548-.236106-.34228-.427577-.586527-.574125-.244247-.146549-.563732-.219625-.958598-.219625zm16.045015 0c-.692034 0-1.200859.191471-1.526522.574125-.321592.382654-.482658.962425-.482658 1.739945 0 .781592.163196 1.361879.488859 1.740463.325663.378583.832358.567924 1.520321.567924.268672 0 .523084-.03467.763261-.10387.240176-.0692.464183-.189212.671793-.360185l-.342097-.433565c-.05699.04885-.119933.09739-.189136.146244-.0692.04478-.148671.08797-.238229.128675-.08956.04071-.189295.07324-.299206.09767-.109911.02443-.23205.03669-.366386.03669-.252389 0-.468391-.03893-.647506-.116272-.179114-.07735-.325267-.191478-.439249-.342098-.113982-.15469-.197711-.34403-.250631-.567924-.04885-.227964-.07338-.492511-.07338-.79375 0-.289025.02453-.545568.07338-.769462.04885-.227964.128317-.418918.238228-.573608.109912-.158761.254451-.278769.433566-.360185.179114-.08141.39886-.122473.659391-.122473.158761 0 .299039.02027.421163.06098.122123.04071.228252.09403.31781.159164.08956.06513.164764.136078.225826.213423.06106.07328.110124.142607.146761.20774l.464054-.286805c-.06106-.113982-.138399-.222241-.232027-.324011-.08956-.101769-.19943-.191372-.329696-.268717-.126194-.07735-.272864-.138156-.439766-.182935-.166902-.04478-.356243-.06718-.567924-.06718zm20.480403 0c-.51699 0-.905807.114134-1.166337.342098-.26053.227964-.390674.527178-.390674.897619 0 .191327.02828.356137.08527.494544.06106.138407.154926.256285.28112.353983.126194.0977.288874.183041.488342.256316.199469.0692.437355.132661.714169.189652.358229.07327.627037.173012.806152.299207.183185.126194.274919.3054.274919.537434 0 .142478-.03254.262486-.09767.360185-.06513.0977-.148861.17665-.250631.237712-.0977.05699-.209185.100179-.33538.128674-.122123.02443-.240518.03669-.3545.03669-.166902 0-.313572-.01653-.439766-.04909-.126195-.03664-.239812-.0857-.341582-.146761-.0977-.06106-.185171-.132008-.262516-.213424-.07327-.08549-.138863-.175089-.195854-.268717l-.469738.293005c.07327.122124.158616.238388.256315.348299.0977.105841.213446.197057.347782.274402.138407.07735.297342.138673.476457.183451.179115.04478.386595.06718.622701.06718.219822 0 .42782-.02453.623218-.07338.199468-.04478.372283-.117855.518831-.219625.150619-.101769.268497-.234043.353984-.396875.08549-.162831.128157-.362307.128157-.598413 0-.219822-.03841-.403289-.115755-.549837-.07327-.150619-.177273-.276502-.311609-.378272-.134336-.10584-.294885-.191699-.482141-.256831-.187256-.06513-.393123-.1222-.617017-.171049-.203539-.04478-.378484-.08958-.525032-.134359-.142478-.04478-.258225-.09546-.347783-.152446-.08956-.06106-.154629-.128263-.195336-.201538-.04071-.07734-.06149-.166947-.06149-.268717 0-.219823.08373-.396898.25063-.531234.170973-.134336.41312-.201538.726571-.201538.268672 0 .488418.05494.659391.164848.170973.10584.315513.254641.433565.445968l.457854-.305408c-.146557-.236113-.341772-.427584-.586019-.574132-.244247-.146549-.563732-.219625-.958598-.219625Zm8.932271 0c-.51699 0-.905807.114134-1.166337.342098-.26053.227964-.390674.527178-.390674.897619 0 .191327.02879.356137.08578.494544.06106.138407.154409.256285.280603.353983.126195.0977.288874.183041.488342.256316.199469.0692.437872.132661.714685.189652.35823.07327.627038.173012.806153.299207.183185.126194.274402.3054.274402.537434 0 .142478-.03254.262486-.09767.360185-.06513.0977-.148344.17665-.250114.237712-.0977.05699-.209702.100179-.335897.128674-.122123.02443-.240001.03669-.353983.03669-.166902 0-.313572-.01653-.439767-.04909-.126194-.03664-.240328-.0857-.342098-.146761-.0977-.06106-.185171-.132008-.262516-.213424-.07327-.08549-.138346-.175089-.195337-.268717l-.470255.293005c.07327.122124.158616.238388.256315.348299.0977.105841.213963.197057.348299.274402.138407.07735.296825.138673.47594.183451.179115.04478.387112.06718.623218.06718.219822 0 .427303-.02453.622701-.07338.199468-.04478.372283-.117855.518831-.219625.150619-.101769.269014-.234043.3545-.396875.08549-.162831.128158-.362307.128158-.598413 0-.219822-.03893-.403289-.116272-.549837-.07327-.150619-.176756-.276502-.311092-.378272-.134336-.10584-.295402-.191699-.482658-.256831-.187256-.06513-.392607-.1222-.6165-.171049-.203539-.04478-.378484-.08958-.525032-.134359-.142478-.04478-.258742-.09546-.3483-.152446-.08956-.06106-.154629-.128263-.195336-.201538-.04071-.07734-.06098-.166947-.06098-.268717 0-.219823.08321-.396898.250114-.531234.170973-.134336.41312-.201538.726571-.201538.268672 0 .488935.05494.659908.164848.170973.10584.314996.254641.433048.445968l.45837-.305408c-.146543-.236113-.342275-.427584-.586522-.574132-.244247-.146549-.563732-.219625-.958598-.219625Zm17.902265 0c-.69203 0-1.20086.191471-1.52652.574125-.32159.382654-.48214.962425-.48214 1.739945 0 .781592.16268 1.361879.48834 1.740463.32566.378583.83236.567924 1.52032.567924.26867 0 .52309-.03467.76326-.10387.24018-.0692.46419-.189212.6718-.360185l-.3421-.433565c-.057.04885-.11993.09739-.18914.146244-.0692.04478-.14867.08797-.23823.128675-.0895.04071-.18929.07324-.2992.09767-.10991.02443-.23205.03669-.36639.03669-.25239 0-.46787-.03893-.64699-.116272-.17911-.07735-.32578-.191478-.43976-.342098-.11399-.15469-.1972-.34403-.25012-.567924-.0488-.227964-.0734-.492511-.0734-.79375 0-.289025.0245-.545568.0734-.769462.0489-.227964.1278-.418918.23771-.573608.10991-.158761.25445-.278769.43357-.360185.17911-.08141.39886-.122473.65939-.122473.15876 0 .29956.02027.42168.06098.12212.04071.22774.09403.31729.159164.0896.06513.16477.136078.22583.213423.0611.07328.11012.142607.14676.20774l.46405-.286805c-.0611-.113982-.13839-.222241-.23202-.324011-.0896-.101769-.19943-.191372-.3297-.268717-.12619-.07735-.27286-.138156-.43977-.182935-.1669-.04478-.35624-.06718-.56792-.06718zm7.31997 0c-.51699 0-.90581.114134-1.16634.342098-.26053.227964-.39067.527178-.39067.897619 0 .191327.0283.356137.0853.494544.0611.138407.15493.256285.28112.353983.1262.0977.28888.183041.48834.256316.19947.0692.43736.132661.71417.189652.35823.07327.62704.173012.80616.299207.18318.126194.27491.3054.27491.537434 0 .142478-.0325.262486-.0977.360185-.0651.0977-.14887.17665-.25064.237712-.0977.05699-.2097.100179-.33589.128674-.12213.02443-.24.03669-.35399.03669-.1669 0-.31357-.01653-.43976-.04909-.1262-.03664-.23981-.0857-.34158-.146761-.0977-.06106-.18569-.132008-.26304-.213424-.0733-.08549-.13834-.175089-.19533-.268717l-.47026.293005c.0733.122124.15913.238388.25683.348299.0977.105841.21345.197057.34779.274402.1384.07735.29734.138673.47645.183451.17912.04478.3866.06718.6227.06718.21983 0 .42731-.02453.6227-.07338.19947-.04478.3728-.117855.51935-.219625.15062-.101769.2685-.234043.35399-.396875.0855-.162831.12815-.362307.12815-.598413 0-.219822-.0384-.403289-.11575-.549837-.0733-.150619-.17727-.276502-.31161-.378272-.13434-.10584-.29489-.191699-.48214-.256831-.18726-.06513-.39313-.1222-.61702-.171049-.20354-.04478-.37848-.08958-.52503-.134359-.14248-.04478-.25823-.09546-.34778-.152446-.0896-.06106-.15515-.128263-.19586-.201538-.0407-.07734-.061-.166947-.061-.268717 0-.219823.0837-.396898.25064-.531234.17097-.134336.41312-.201538.72657-.201538.26867 0 .48841.05494.65939.164848.17097.10584.31551.254641.43356.445968l.45786-.305408c-.14655-.236106-.34177-.427577-.58601-.574125-.24425-.146549-.56374-.219625-.9586-.219625zm-80.329464.09147v2.717147c0 .329734.02828.610808.08527.842842.05699.232035.148724.419246.274919.561723.130265.142478.298819.246477.506429.311609.20761.06513.462023.09767.763261.09767.301238 0 .55565-.03041.763261-.09147.20761-.06513.37455-.169131.500744-.311609.130265-.146548.224129-.333758.28112-.561722.05699-.232035.08527-.51524.08527-.849044v-2.717147h-.567924v2.668571c0 .240176-.01601.447657-.04858.622701-.02849.170973-.08343.313382-.164848.427364-.07734.109911-.185087.191509-.323494.24443-.134336.05292-.309798.07958-.525549.07958-.20761 0-.380425-.02453-.518832-.07338-.134336-.05292-.242078-.134518-.323494-.24443-.08142-.113982-.138483-.258521-.171049-.433565-.03257-.175044-.04909-.386785-.04909-.635103v-2.656169zm4.265889 0v4.439522h1.453142c.56991 0 1.001398-.103998 1.294494-.311609.293097-.21168.439767-.551435.439767-1.019576 0-.170973-.02453-.319773-.07338-.445967-.04885-.130265-.117665-.240138-.207222-.329696-.08549-.08956-.189486-.16102-.311609-.21394-.118053-.05292-.248196-.08707-.390674-.103353.203539-.0692.368349-.181207.494543-.335897.130266-.15469.195337-.376566.195337-.665592 0-.170973-.02666-.319773-.07958-.445968-.05292-.126194-.140393-.231807-.262517-.317293-.122123-.08549-.284803-.148945-.488342-.189653-.199468-.04071-.448007-.06098-.745174-.06098zm7.506519 0v.500745h1.398364v3.938777h.567924v-3.938777h1.398364v-.500745zm4.821928 0-1.557011 4.439522h.579809l.427364-1.239717h1.820044l.427364 1.239717h.598413l-1.55701-4.439522zm2.898531 0v4.439522h.543119v-3.902087l2.11925 3.902087h.671277v-4.439529H62.8034v3.559989l-1.942-3.559989zm8.538496 0v4.439522h2.771924v-.500744h-2.204V34.80615h2.008663v-.500744h-2.008663v-1.355473h2.204v-.500745zm5.778459 0-1.557011 4.439522h.579809l.427881-1.239717h1.819527l.427364 1.239717h.598414l-1.557011-4.439522zm2.845304 0v4.439522h1.453658c.56991 0 1.001398-.103998 1.294495-.311609.293096-.21168.439249-.551435.439249-1.019576 0-.170973-.02401-.319773-.07286-.445967-.04885-.130265-.118182-.240138-.207739-.329696-.08549-.08956-.189485-.16102-.311609-.21394-.118053-.05292-.248196-.08707-.390674-.103353.20354-.0692.36835-.181207.494544-.335897.130265-.15469.195337-.376566.195337-.665592 0-.170973-.02614-.319773-.07906-.445968-.05292-.126194-.140393-.231807-.262516-.317293-.122124-.08549-.28532-.148945-.488859-.189653-.199469-.04071-.44749-.06098-.744658-.06098zm3.926375 0v2.717147c0 .329734.02879.610808.08578.842842.05699.232035.148207.419246.274402.561723.130265.142478.299336.246477.506946.311609.20761.06513.462022.09767.763261.09767.301238 0 .55565-.03041.76326-.09147.207611-.06513.374551-.169131.500745-.311609.130265-.146548.224129-.333758.28112-.561722.05699-.232035.08527-.51524.08527-.849044v-2.717147h-.567924v2.668571c0 .240176-.01601.447657-.04858.622701-.0285.170973-.08343.313382-.164848.427364-.07734.109911-.185604.191509-.324011.24443-.134336.05292-.309281.07958-.525032.07958-.207611 0-.380425-.02453-.518832-.07338-.134336-.05292-.242595-.134518-.324011-.24443-.08142-.113982-.137966-.258521-.170532-.433565-.03257-.175044-.04909-.386785-.04909-.635103v-2.656169zm8.029484 0v4.439522h2.77244v-.500744h-2.204516V34.80615h2.00918v-.500744h-2.00918v-1.355473h2.204516v-.500745zm8.977746 0v4.439522h2.771923v-.500744h-2.203999V34.80615h2.008659v-.500744h-2.008659v-1.355473h2.203999v-.500745zm3.611153 0v4.439522h.5674v-1.862418h1.12397c.30938 0 .50885.18721.59841.561723l.31729 1.300695h.57413l-.36639-1.453658c-.0489-.195397-.10591-.339937-.17105-.433565-.0611-.09363-.16506-.16083-.31161-.201538.10177-.03257.19564-.07737.28112-.134359.0855-.06106.15857-.136268.21963-.225826.0611-.09363.10799-.203501.14056-.329695.0326-.130266.0491-.280679.0491-.451652 0-.236106-.0368-.431838-.11007-.586528-.0692-.15469-.17107-.276828-.30541-.366386-.13433-.09363-.29914-.1587-.49454-.195337-.1954-.04071-.41728-.06098-.66559-.06098zm3.45818 0 1.44074 4.439522h.76378l1.45314-4.439522h-.58033l-1.2392 3.908289-1.23971-3.908289zm4.03231 0v.445968h.55553v3.547587h-.55553v.445967h1.67897v-.445967h-.55552v-3.547587h.55552v-.445968zm6.64818 0v4.439522h2.77192v-.500744h-2.20452V34.80615h2.00918v-.500744h-2.00918v-1.355473h2.20452v-.500752Zm-70.504741.488852h.72037c.170973 0 .319773.008.445967.02429.130266.01628.238008.04882.323495.09767.08549.04478.148428.10985.189136.195336.04071.08549.0615.19536.0615.329696 0 .248318-.08373.431268-.250631.549321-.166902.118052-.435711.17725-.806152.17725h-.68368zm32.389237 0h.720886c.170973 0 .319257.008.445451.02429.130265.01628.238008.04882.323494.09767.08549.04478.148945.10985.189653.195336.04071.08549.06098.19536.06098.329696 0 .248318-.08373.431268-.250631.549321-.166902.118052-.435194.17725-.805635.17725h-.684196zm24.544234 0h.87334c.34601 0 .59829.05494.75705.164848.16284.109911.24443.309387.24443.598413 0 .158761-.0181.291035-.0548.396875-.0366.105841-.0958.191183-.17725.256315-.0814.06513-.18916.112065-.3235.14056-.13026.0285-.29133.04238-.48266.04238h-.83664zm-44.818965.05478.738973 2.155424h-1.477429zm17.215486 0 .738973 2.155424h-1.477429zm-29.329992 1.807125h.79375c.199469 0 .374414.01065.525033.03101.15469.01628.28322.05256.384989.109554.105841.05292.185308.132388.238229.238228.05292.10177.07906.236174.07906.403076 0 .183186-.0368.329856-.110071.439767-.0692.10584-.166811.186922-.293006.243913-.122123.05292-.268276.08759-.439249.103869-.166902.01221-.346108.0186-.537435.0186h-.641305zm32.389237 0h.79375c.199468 0 .37493.01065.525549.03101.15469.01628.282703.05256.384473.109554.10584.05292.185308.132388.238228.238228.05292.10177.07906.236174.07906.403076 0 .183186-.03628.329856-.109554.439767-.0692.10584-.166811.186922-.293005.243913-.122124.05292-.268794.08759-.439767.103869-.166902.01221-.346108.0186-.537435.0186h-.641304z" style="font-style:normal;font-variant:normal;font-weight:700;font-stretch:normal;font-size:13.5678px;font-family:&quot;Felbridge Std&quot;;-inkscape-font-specification:&quot;Felbridge Std Bold&quot;;text-align:start;writing-mode:lr-tb;direction:ltr;text-anchor:start;opacity:1;fill:#023276;fill-rule:evenodd;stroke-width:1.93827;stroke-linejoin:round;stroke-miterlimit:0;paint-order:stroke fill markers" transform="translate(-4.4737246 -2.453227)"/>
</svg>
