<svg xmlns="http://www.w3.org/2000/svg" xml:space="preserve" viewBox="0 0 79.375 30.692">
  <path d="M54.525-113.91c-1.042-.16-3.046-.872-3.883-1.379-1.103-.668-1.824-1.56-2.36-2.916-.4-1.017-.539-1.8-.538-3.057 0-1.219.14-2.073.519-3.164.386-1.115.501-1.336 1.13-2.185.742-1 1.907-1.904 2.973-2.307.289-.109.738-.287.998-.397.437-.184.594-.2 2.107-.201l1.634-.002.973.404c1.085.45 2.123 1.143 2.765 1.845 1.444 1.58 2.067 4.76 1.455 7.426-.308 1.342-.899 2.664-1.53 3.424-.796.955-2.503 1.94-4.08 2.352-.942.246-1.376.278-2.163.157zm1.992-1.597c.7-.564 1.368-1.764 1.574-2.83.179-.927.299-4.523.198-5.922-.107-1.475-.186-1.736-.786-2.62-.885-1.303-2.168-1.871-3.123-1.384-.417.213-1.141.941-1.36 1.368-.271.53-.683 1.665-.764 2.108-.241 1.315-.159 5.809.125 6.816.349 1.235 1.19 2.445 1.853 2.666.16.053.665.089 1.122.08.788-.016.847-.03 1.16-.282zm-19.623 1.46c-1.285-.23-3.381-.856-4.3-1.284-.778-.363-1.194-.633-2.077-1.347-.786-.636-1.184-1.116-1.778-2.145-.594-1.03-.885-1.713-1.046-2.46a7.585 7.585 0 0 0-.34-1.097c-.203-.486-.216-.606-.216-2.064 0-1.376.02-1.59.176-1.935.096-.213.287-.793.423-1.29.267-.974.583-1.74 1.233-2.985 1.226-2.348 4.103-4.184 7.667-4.892 1.669-.331 2.778-.378 3.884-.162.371.072 1.08.187 1.577.255 1.093.149 2.65.687 3.024 1.045.353.34.377.541.158 1.345-.275 1.005-.346 1.175-.535 1.276-.273.146-.5.024-1.228-.659-1.093-1.028-1.973-1.366-3.827-1.47-1.025-.059-2.464.118-3.178.39-1.008.382-1.774.997-2.555 2.048-.46.619-1.318 2.252-1.32 2.511 0 .075-.117.62-.26 1.212-.317 1.319-.393 2.56-.267 4.343.076 1.073.148 1.48.424 2.42.606 2.064 1.546 3.286 3.358 4.37.936.56 1.014.59 1.978.752 1.607.271 3.422.067 4.76-.535.417-.188.777-.342.8-.342.04 0 .775-.477 1.136-.738a.43.43 0 0 1 .377-.077c.172.055.184.1.138.545-.097.953-.363 1.504-.894 1.854-.413.272-1.975.741-3.426 1.03-1.297.259-2.722.29-3.866.086zm83.664-.069a6.976 6.976 0 0 1-2.359-1.517c-.493-.494-.604-.663-.753-1.145-.381-1.234-.4-1.632-.347-7.408.039-4.28.046-4.342.509-4.576.317-.16 2.682-.152 2.997.011.484.25.48.202.486 5.296.007 5.086.019 5.226.48 5.946.517.805 1.352 1.116 2.514.936.741-.115 1.196-.366 1.718-.946.73-.811.706-.606.706-6.022 0-5.128-.004-5.081.44-5.25.12-.045.796-.082 1.505-.082 1.304 0 1.714.082 1.816.362.022.061.015 2.007-.014 4.325-.03 2.318-.022 5.296.018 6.618.079 2.595.067 2.69-.356 2.885-.131.06-.811.124-1.616.15l-1.389.047-.223-.223a.693.693 0 0 1-.224-.51c0-.367-.212-.668-.47-.668-.119 0-.483.223-.882.54-1.663 1.321-3.198 1.736-4.556 1.231zm43.258.041c-1.508-.41-2.309-1.322-2.657-3.03-.131-.645-.138-1.084-.07-4.372.041-2.01.066-4.035.055-4.499-.031-1.291-.31-1.693-1.178-1.693-.38 0-.647-.159-.647-.386 0-.188.467-.524.895-.644.675-.189.79-.409.846-1.609.064-1.384.163-1.683.752-2.263.388-.382.69-.57 1.579-.976 1.741-.796 1.747-.79 1.82 2.008.03 1.111.07 2.107.092 2.213.051.254.394.418 1.025.491.948.11 1.56.569 1.332.997-.163.304-.398.36-1.253.295-1.238-.093-1.417.106-1.58 1.761-.123 1.24-.12 6.398.005 7.29.125.9.55 2.16.828 2.452.308.323.916.513 1.422.444.546-.075.838.109.838.527 0 .25-.053.333-.323.51-.388.256-1.628.558-2.515.613-.473.029-.811-.005-1.266-.129zm20.272-.042c-.998-.238-2.296-.75-2.9-1.145-.679-.444-1.994-1.976-2.42-2.818-.185-.368-.498-1.975-.582-2.992-.06-.728.166-3.184.351-3.805.16-.539.503-1.08 1.245-1.965.679-.811 1.378-1.483 1.828-1.759.493-.3 1.776-.78 2.368-.883.295-.052 1.051-.08 1.681-.064l1.146.03.813.418c1.018.525 2.194 1.401 2.61 1.945.174.229.455.737.626 1.13.32.74.388 1.129.496 2.88.049.779.037.889-.113 1.074-.149.184-.232.206-.756.198-.323-.005-2.172-.02-4.11-.032l-3.52-.023-.165.204c-.14.173-.157.287-.11.75.124 1.21.412 2.654.613 3.073.244.51 1.202 1.472 1.738 1.746.558.284 1.56.388 2.662.276.812-.083 1.012-.138 1.602-.438.759-.387 1.12-.435 1.264-.167.076.143.052.248-.126.552-.329.56-.795.907-1.782 1.324-1.658.698-2.976.844-4.46.49zm2.74-8.904c.206-.039.457-.153.559-.255.163-.165.183-.274.173-.978-.012-.835-.08-1.17-.441-2.201a2.841 2.841 0 0 0-.685-1.134c-.84-.908-1.586-1.087-2.288-.551-.464.354-1.064 1.308-1.235 1.963-.136.52-.25 2.337-.167 2.665.073.292.41.51.906.586.463.072 2.635.006 3.178-.095zm9.644 8.91c-.307-.11-.752-.297-.989-.417a6.266 6.266 0 0 0-.903-.356c-.952-.276-1.124-.586-.815-1.471.415-1.188.626-1.26 1.386-.47.913.947 2.539 1.575 3.461 1.336 1.833-.476 2.554-2.174 1.357-3.198-.326-.28-.563-.408-1.734-.944-2.719-1.245-3.523-1.76-4.062-2.603-.575-.899-.659-1.214-.663-2.512l-.004-1.161.387-.681c.25-.44.644-.94 1.118-1.418.678-.684.796-.766 1.634-1.118.884-.372.926-.38 2.02-.414 1.226-.037 1.486.012 2.645.495.765.32 1.355.866 1.355 1.255 0 .296-.322 1.394-.483 1.645-.18.283-.495.25-.736-.079-.11-.15-.456-.533-.768-.853-.457-.466-.658-.607-1.026-.716-.593-.176-1.74-.177-2.256 0-.665.226-1.353 1.11-1.353 1.736 0 .323.408.954.825 1.276.558.43 1.56.983 2.037 1.123 1.038.306 2.838 1.168 3.272 1.568.649.598 1.262 2.127 1.262 3.147 0 .523-.348 1.789-.657 2.393-.47.915-1.07 1.43-2.268 1.952-1.665.723-2.942.876-4.041.485zm-130.763-.603-.217-.217.002-5.55c.001-3.052-.024-5.951-.056-6.441-.068-1.06.004-1.645.23-1.871.152-.152.3-.166 1.76-.166 1.783 0 2.149.077 2.23.467l.096.457c.128.602.42.593 1.1-.037.366-.339.804-.621 1.43-.924l.904-.436h2.064l.742.357c.84.403 1.317.795 1.707 1.404.316.491.63.723.894.657.104-.026.392-.293.641-.595.58-.701 1.083-1.076 1.99-1.48 1.258-.563 2.535-.559 3.902.013 1.286.539 1.95 1.318 2.3 2.697.166.657.192 1.072.253 4.085a498 498 0 0 0 .132 5.26l.065 1.908-.25.25-.251.25-1.606.059c-1.132.04-1.67.029-1.822-.04-.416-.19-.428-.337-.312-3.753.124-3.655.086-6.512-.093-7.03-.183-.527-.883-1.188-1.498-1.416-.735-.271-1.5-.223-2.075.131-.514.318-.935.934-1.08 1.58-.125.56-.151 5.03-.047 8.117l.066 1.962-.253.252-.253.253h-3.461l-.22-.22-.22-.22.063-2.715c.094-4.024.081-6.608-.035-7.282-.278-1.602-1.27-2.226-2.88-1.81-.936.24-1.258.571-1.655 1.697-.355 1.006-.488 4.621-.304 8.314.036.733.037 1.465.003 1.625-.12.555-.158.565-2.055.596l-1.714.028zm26.743.144c-.543-.047-.715-.102-.886-.286-.153-.165-.16-.455-.153-6.835l.007-6.662.238-.239.239-.238 1.42-.03c1.61-.032 1.756.01 1.989.574.314.762.566.788 1.37.14 1.088-.874 2.28-1.341 3.425-1.341.72 0 .811.02 1.406.323.974.494 1.672 1.062 1.984 1.614.147.262.343.516.435.565.245.13.552-.015.838-.399.5-.669 1.012-1.071 1.966-1.546 1.063-.529 1.578-.635 2.609-.54.642.058 1.901.486 2.396.813.418.276.744.735 1.086 1.532.51 1.186.573 2.019.573 7.544v4.696l-.2.187c-.187.177-.277.187-1.569.182-1.496-.005-1.86-.08-2.122-.433-.158-.213-.16-.301-.072-1.961.05-.956.093-3.072.093-4.703 0-2.738-.013-3.001-.172-3.451-.358-1.019-.822-1.456-1.83-1.72-.573-.15-.592-.15-1.326.04-.41.107-.837.253-.949.327-.278.182-.508.578-.723 1.242-.248.771-.288 2.764-.136 6.837.066 1.75.09 3.263.055 3.362-.117.325-.5.4-2.098.411-1.455.011-1.507.005-1.698-.185l-.197-.196v-9.842l-.28-.694c-.153-.38-.385-.795-.515-.92-.378-.36-1.015-.6-1.614-.606-.447-.004-.612.041-1.075.295-.76.417-1.054.86-1.239 1.868-.314 1.71-.396 4.93-.18 7.023.069.662.126 1.576.128 2.031.002.709-.023.86-.176 1.054l-.178.226-1.263-.014a36.215 36.215 0 0 1-1.606-.045zm42.409-.025c-.645-.085-.77-.292-.705-1.16.111-1.492.155-9.66.06-11.23-.127-2.074-.29-1.907 1.883-1.925 1.017-.008 1.72.021 1.833.077.1.05.268.226.373.391.473.745.646.766 1.411.172.305-.236.921-.594 1.37-.796l.818-.366h2.408l.752.362c.83.398 1.474.964 1.78 1.562.1.197.283.87.406 1.496.21 1.063.23 1.361.287 4.535.034 1.869.112 4 .172 4.736.171 2.078.103 2.144-2.21 2.144-1.44 0-1.485-.005-1.72-.208-.28-.24-.287-.39-.12-2.544.226-2.932.282-4.26.239-5.676-.05-1.614-.17-2.26-.538-2.895-.26-.448-.593-.656-1.412-.883-.856-.237-1.313-.227-1.893.044-1.042.485-1.3.838-1.653 2.263-.21.848-.254 1.237-.297 2.59a32.66 32.66 0 0 0 .048 2.923c.316 4.272.32 4.088-.098 4.312-.21.113-2.504.168-3.194.076zm17.347.002a.66.66 0 0 1-.278-.249c-.092-.172-.05-12.115.046-13.067.03-.303.113-.532.247-.688.194-.226.233-.234 1.227-.262 1.527-.042 1.988.138 2.135.832.037.173.058 2.192.047 4.486-.012 2.352.023 5.015.08 6.106.055 1.064.097 2.032.092 2.15-.013.314-.363.576-.844.634-.837.1-2.57.137-2.752.058zm19.552-.004c-.773-.039-.861-.061-1.02-.258-.16-.196-.17-.287-.115-1.075.034-.473.076-3.449.095-6.613.038-6.39.007-6.07.617-6.24.178-.049.85-.09 1.493-.09 1.077 0 1.193.016 1.462.196.464.312.54.756.404 2.341-.174 2.012-.145 8.363.043 9.86.16 1.272.13 1.519-.215 1.737-.23.144-1.47.208-2.764.142zM153.21-132.7c-.441-.139-1.058-.63-1.244-.988-.227-.439-.332-1.37-.218-1.923.132-.634.442-.99 1.13-1.3.736-.33 1.218-.319 1.937.046.605.307.916.617 1.161 1.156.22.483.199.866-.084 1.462-.336.708-.639 1.041-1.212 1.33-.627.317-.986.37-1.47.217zm18.69-.09c-.515-.256-.79-.587-1.153-1.39-.356-.787-.362-1.254-.024-1.802.208-.338.376-.477.898-.747.601-.31.678-.329 1.225-.29a2.481 2.481 0 0 1 1.855 1.066c.267.386.285.456.255.975-.028.489-.078.626-.396 1.092-.4.588-.73.874-1.31 1.138-.512.231-.822.222-1.35-.041zm-132.071-8.653c-.684-.08-2.23-.38-2.752-.535-2.675-.793-5.45-2.357-6.666-3.758-1.45-1.672-2.297-3.298-2.924-5.626-.59-2.183-.645-5.706-.123-7.77.325-1.284.974-2.903 1.482-3.694.158-.246.397-.622.53-.834.95-1.508 2.39-2.892 4.175-4.011 1.502-.942 2.132-1.26 3.012-1.518 2.737-.804 3.553-.922 6.386-.921 2.185 0 3.041.09 4.11.432.293.093.566.17.607.17.223 0 2.47.904 2.851 1.147.247.158.7.434 1.008.615 1.155.678 2.164 1.575 3.293 2.928.98 1.175 1.984 3.215 2.466 5.016.48 1.79.551 2.418.495 4.312-.042 1.384-.082 1.725-.307 2.623a22.785 22.785 0 0 1-.488 1.677c-.3.843-1.237 2.62-1.829 3.466-1.093 1.566-2.795 3.16-4.189 3.924l-1.156.634c-.57.313-1.258.599-2.628 1.094-.487.176-2.302.492-3.397.593-.774.07-3.448.095-3.956.036zm4.472-2.806c.74-.242 1.891-.824 2.39-1.208.92-.707 1.941-1.976 2.758-3.426.43-.761.878-2.243 1.077-3.554.071-.473.194-1.208.272-1.634.178-.971.136-4.162-.07-5.246a36.786 36.786 0 0 1-.231-1.407c-.204-1.447-1.504-3.845-2.554-4.713-1.847-1.526-3.01-1.99-5.19-2.069-1.054-.038-1.394-.016-2.193.141-1.771.348-3.537 1.475-4.495 2.871-1.162 1.692-2.137 4.548-2.354 6.897-.138 1.484-.042 4.75.17 5.805.539 2.68 1.394 4.552 2.624 5.744.842.815 2.303 1.607 3.359 1.82.24.049.515.106.61.128.407.093 3.449-.026 3.827-.15zm67.942 2.814c-.165-.02-.727-.077-1.247-.129-1.103-.109-2.982-.47-3.303-.633-.123-.063-.56-.216-.971-.34a8.556 8.556 0 0 1-1.505-.669c-.417-.243-.972-.565-1.235-.716-.96-.55-2.494-1.948-3.07-2.796-.316-.464-.967-1.548-.967-1.609 0-.024-.115-.283-.254-.576-.936-1.961-1.38-4.11-1.38-6.678 0-1.295.276-3.4.558-4.252 1.038-3.136 2.616-5.338 5.247-7.324 1.083-.817 2.724-1.698 3.784-2.03 2.422-.76 3.485-.924 6.02-.924 2.163 0 2.883.085 4.8.567 1.806.454 2.738.882 4.574 2.103a12.034 12.034 0 0 1 4.253 4.94c.82 1.75 1.054 2.55 1.335 4.56.289 2.065.265 2.622-.225 5.117-.316 1.61-1.17 3.588-2.23 5.164-.722 1.073-1.89 2.278-3.11 3.205-.872.663-2.527 1.542-3.615 1.92-.484.168-.918.337-.966.376-.13.106-1.442.42-2.365.566-.788.125-3.51.228-4.128.158zm3.397-2.811c.743-.219 1.466-.547 1.99-.903 1.043-.71 2.436-2.316 2.91-3.35.125-.274.3-.635.39-.802.252-.473.833-2.354 1.022-3.31.26-1.32.377-2.602.385-4.255.007-1.344-.018-1.625-.234-2.623-.477-2.213-1.36-4.355-2.184-5.3-.977-1.12-2.352-2.061-3.437-2.352-.914-.245-2.369-.41-3.164-.36-2.79.178-4.684 1.18-5.971 3.158-.973 1.494-1.834 3.622-2.07 5.11-.35 2.201-.472 3.968-.353 5.076.232 2.149.44 3.406.691 4.167.145.44.264.839.264.885 0 .139 1.023 1.88 1.376 2.344 1.105 1.45 2.508 2.314 4.257 2.623.671.118 3.62.041 4.128-.108zm-50.311 2.266c-2.562-.054-2.641-.067-2.934-.499-.144-.213-.16-.382-.138-1.522.013-.705.082-1.847.152-2.537.227-2.217.316-6.011.266-11.274-.044-4.495-.069-5.187-.237-6.493a24.561 24.561 0 0 1-.197-2.89c-.014-2.275-.194-2.167 3.733-2.234 1.584-.028 4.235-.041 5.89-.03 2.6.017 3.129.043 3.874.19 1.459.288 2.814.978 3.544 1.805.651.738 1.213 1.696 1.497 2.557.263.794.284.941.28 1.935-.008 1.589-.292 2.612-1.11 4.003-.455.772-1.373 1.76-1.852 1.99l-1.287.615c-.593.283-1.186.629-1.322.773-.24.253-.243.272-.144.687.057.235.258.693.449 1.017.19.325.462.822.603 1.106.142.284.818 1.367 1.502 2.408.685 1.04 1.901 2.892 2.703 4.114.801 1.221 1.633 2.437 1.848 2.701.684.84.79 1.266.37 1.49-.244.131-5.705.122-6.194-.01-.582-.156-1.025-.656-1.62-1.825-.295-.579-.589-1.112-.654-1.186-.065-.074-.426-.693-.801-1.376-.376-.683-.86-1.552-1.076-1.93-.907-1.589-1.495-2.599-1.677-2.881-.776-1.209-1.293-2.084-1.391-2.355-.064-.175-.186-.382-.271-.46-.136-.122-.173-.124-.278-.018-.155.158-.3 4.235-.208 5.886.188 3.395.245 5.427.16 5.685-.124.374-.33.536-.73.575-.189.018-1.426.01-2.75-.018zm6.149-14.646.989-.348c.674-.234.94-.436 1.33-1.01.512-.751.689-1.16.885-2.05.32-1.448.231-4.22-.162-5.014-.158-.32-.936-1.153-1.263-1.353-.721-.44-2.269-.783-3.55-.785-.758 0-.818.09-.928 1.4-.048.577-.086 2.819-.084 4.98.003 3.485.02 3.953.144 4.143.077.118.229.23.336.248.456.078 1.85-.05 2.303-.21zm18.146 14.647c-1.472-.035-2.252-.086-2.374-.156-.388-.222-.39-.266-.303-6.223.083-5.62.064-13.785-.043-18.013-.05-1.985-.04-2.27.086-2.513.25-.484.304-.493 3.059-.523 2.815-.03 2.968-.006 3.371.53.203.271.203.275.185 2.55-.01 1.254-.063 2.647-.116 3.097-.124 1.048-.06 16.244.08 18.7.093 1.657.09 1.728-.079 2.078-.096.2-.241.389-.322.42-.237.094-1.209.108-3.544.053zm44.42-.043c-.555-.246-.602-.378-.593-1.674.008-1.115.14-3.647.43-8.225.268-4.256.37-10.841.205-13.158a54.447 54.447 0 0 1-.107-2.465c-.02-1.23-.015-1.267.188-1.484.285-.304.67-.393 1.701-.394 1.07 0 1.612.108 2.106.421.352.223 2.035 1.983 4.527 4.731.582.643 1.379 1.517 1.77 1.943.391.425 1.243 1.374 1.894 2.107.65.733 1.439 1.604 1.751 1.935.313.33 1.206 1.298 1.986 2.15a166.01 166.01 0 0 0 3.693 3.935c.978 1.01 1.223 1.13 1.41.688.114-.27.124-5.764.023-12.86-.045-3.16-.035-4.344.039-4.52.19-.46.523-.568 1.772-.57 1.237-.004 1.508.083 1.686.538.09.232 0 2.471-.192 4.705-.33 3.86-.424 7.115-.43 14.835-.005 4.47-.035 6.343-.107 6.614-.169.638-.393.74-1.633.74-1.002 0-1.066-.012-1.477-.252-.502-.293-1.996-1.77-2.79-2.759-.537-.667-1.538-1.837-1.808-2.113a204.45 204.45 0 0 1-1.797-1.964l-1.813-1.986c-.886-.97-1.876-2.073-2.2-2.451-.325-.378-1.313-1.443-2.195-2.365-.882-.922-1.98-2.1-2.438-2.616-.743-.836-1.503-1.533-2.097-1.922-.184-.12-.215-.12-.348.013-.134.134-.145.8-.145 8.982 0 8.415-.008 8.85-.157 9.078a1.16 1.16 0 0 1-.449.362c-.382.16-2.043.16-2.404 0z" style="fill:#584987;fill-opacity:1" transform="matrix(.43427 0 0 .43427 -10.405 78.86)"/>
  <path d="M190.413-135.375c-1.378-.504-2.474-1.474-4.382-3.877-3.148-3.963-4.223-5.471-5.032-7.055-.661-1.296-1.007-1.721-1.32-1.623-.354.11-1.507.71-2.803 1.457-.161.093-.529.325-.817.515-.289.19-.815.515-1.17.722-.354.206-.754.45-.887.542-.134.092-.502.258-.817.368a26.87 26.87 0 0 0-1.645.681c-.589.265-1.305.524-1.591.574-.637.114-4.605.21-5.167.125-.909-.136-1.029-.728-.512-2.523.285-.99.722-2.004 1.288-2.985.33-.571 1.018-1.591 1.218-1.806.089-.095.412-.474.719-.843 1.372-1.652 2.733-3.2 3.755-4.274.896-.94 1.06-1.164 1.06-1.45 0-.45-2.296-2.992-3.35-3.707-.299-.203-.903-.703-1.342-1.111l-1.31-1.215c-1.021-.947-1.796-1.958-2.348-3.066-.594-1.193-.764-1.747-.765-2.48-.001-.744.193-1.028.83-1.213.565-.164 1.47-.126 2.264.094.26.073.822.21 1.247.307.426.097 1.123.323 1.548.503.426.18 1.22.473 1.763.65.544.177 1.287.434 1.652.57.364.137.867.29 1.118.34.25.05.858.19 1.349.31 1.12.277 2.187.259 2.934-.05 1.722-.71 1.592-.573 4.42-4.65.816-1.177 1.53-2.145 3.288-4.456.591-.776 1.519-1.577 2.506-2.162.857-.509 1.118-.586 1.479-.436.59.244 1.507 2.065 1.654 3.284.044.365.068 2.984.052 5.849-.028 5.119-.03 5.194-.22 5.722-.106.294-.193.628-.193.74 0 .235.65.89 1.126 1.138.608.316 2.128.927 2.89 1.162.435.134.9.3 1.035.37.134.069.571.221.972.339.867.253 1.475.49 2.233.87.308.154.822.367 1.142.474 1.02.338 2.77 1.654 3.252 2.447.211.346.209.747-.006 1.02-.168.214-1.218.911-1.635 1.085-.93.388-1.576.6-1.979.65-.26.03-.917.188-1.461.35-.544.16-1.28.348-1.634.417-.355.069-1.007.223-1.449.342-.442.12-1.003.244-1.247.276-.505.068-1.768.575-2.185.878-.511.372-.562.578-.515 2.08.029.893.102 1.613.221 2.157.098.45.24 1.436.314 2.193.075.757.22 1.84.323 2.408.142.781.187 1.366.187 2.408 0 1.282-.02 1.447-.28 2.408-.471 1.741-1.037 2.428-1.776 2.157zm-1.276-6.123c.135-.205.14-.347.049-1.655-.07-.994-.164-1.667-.311-2.205-.288-1.053-.582-3.175-.58-4.181.004-1.06.104-1.468.627-2.547.361-.745.513-.957.998-1.395.466-.42.732-.578 1.436-.853.989-.386 1.105-.416 2.006-.53a9.607 9.607 0 0 0 1.351-.295c.379-.117 1.05-.271 1.493-.342.879-.14 1.044-.225 1.044-.529 0-.264-.207-.442-.964-.827-.578-.293-.919-.441-2.089-.907-.6-.24-2.068-.697-2.564-.799-.457-.094-1.309-.5-2.295-1.094-.971-.584-1.082-.675-1.515-1.238-.497-.645-.554-1-.288-1.793.263-.784.414-3.183.434-6.886.016-3.132-.007-3.348-.365-3.348-.249 0-.617.413-1.543 1.733a28.93 28.93 0 0 1-1.473 1.912 15.34 15.34 0 0 0-1.716 2.403c-.433.735-1.312 1.806-2.014 2.453-.806.742-.998.795-2.888.801-1.866.006-3.02-.13-3.697-.436a5.913 5.913 0 0 0-1.06-.348 14.887 14.887 0 0 1-1.29-.349c-.426-.135-1.274-.312-1.884-.394-1.055-.14-1.115-.14-1.22.003a.363.363 0 0 0-.043.336c.078.216.914.945 2.071 1.805 1.639 1.219 4.056 3.544 4.54 4.367.303.517.447 1.165.448 2.02.001 1.188-.56 2.14-2.279 3.864-.662.665-1.416 1.381-1.676 1.592-.864.702-2.94 2.783-3.43 3.44-.541.723-.877 1.552-.726 1.789.073.113.223.142.726.136.555-.006.71-.046 1.246-.322.337-.174.643-.316.68-.316.137 0 1.642-.722 1.976-.948.19-.127.983-.572 1.763-.988.781-.416 1.536-.841 1.678-.946.141-.104.645-.395 1.118-.647.473-.252 1-.545 1.171-.652.172-.106.61-.294.974-.416a9.544 9.544 0 0 0 1.01-.4c.486-.247 1.174-.246 1.523.003.402.286 1.472 1.966 2.524 3.962.138.26.301.531.364.602.063.071.363.574.667 1.118.843 1.507 1.084 1.88 1.666 2.58.954 1.148 1.747 1.855 2.117 1.887.035.003.13-.096.21-.22zm-4.41-8.61c-.37-.397-1.357-1.962-2.355-3.729-.356-.63-.592-.807-1.054-.788-.38.015-.29-.027-2.601 1.222-.614.332-1.604.945-1.806 1.118-.356.305-.987.606-1.27.606-.37 0-.58-.22-.58-.612 0-.495 1.27-1.945 2.944-3.363.596-.506.84-.984.84-1.645 0-.586-.134-.942-.526-1.39-.32-.366-1.538-1.392-2.167-1.825-.543-.375-.53-.742.029-.811.401-.05 1.674.114 2.577.33 1.167.282 1.704.252 2.248-.122.78-.536 1.762-1.688 2.587-3.033.56-.914.685-1.032 1.092-1.032.42 0 .651.254.734.806.074.497-.081 1.712-.3 2.345-.208.6-.345 1.9-.248 2.34.093.42.642.907 1.172 1.04.529.134 1.757.714 2.232 1.055.313.225.375.317.375.554 0 .239-.07.34-.43.624-.28.221-.59.376-.888.443-.582.13-1.698.753-1.847 1.03-.118.222-.113.508.067 3.33.098 1.526.055 1.742-.344 1.742-.177 0-.336-.077-.481-.234z" style="fill:#fcaf29;fill-opacity:1" transform="matrix(.43427 0 0 .43427 -10.405 78.86)"/>
</svg>
