<?xml version="1.0" encoding="UTF-8" standalone="no"?>
<!-- Created with Inkscape (http://www.inkscape.org/) -->

<svg
   width="300"
   height="116"
   viewBox="0 0 79.374998 30.691666"
   version="1.1"
   id="svg1"
   xml:space="preserve"
   inkscape:version="1.4 (86a8ad7, 2024-10-11)"
   sodipodi:docname="orion.svg"
   xmlns:inkscape="http://www.inkscape.org/namespaces/inkscape"
   xmlns:sodipodi="http://sodipodi.sourceforge.net/DTD/sodipodi-0.dtd"
   xmlns="http://www.w3.org/2000/svg"
   xmlns:svg="http://www.w3.org/2000/svg"><sodipodi:namedview
     id="namedview1"
     pagecolor="#ffffff"
     bordercolor="#111111"
     borderopacity="1"
     inkscape:showpageshadow="0"
     inkscape:pageopacity="0"
     inkscape:pagecheckerboard="1"
     inkscape:deskcolor="#d1d1d1"
     inkscape:document-units="px"
     showgrid="false"
     inkscape:zoom="0.55559665"
     inkscape:cx="269.08009"
     inkscape:cy="115.19148"
     inkscape:window-width="1920"
     inkscape:window-height="1115"
     inkscape:window-x="-9"
     inkscape:window-y="-9"
     inkscape:window-maximized="1"
     inkscape:current-layer="layer1" /><defs
     id="defs1" /><g
     inkscape:label="Layer 1"
     inkscape:groupmode="layer"
     id="layer1"
     transform="matrix(0.43426624,0,0,0.43426624,-10.404931,78.85919)"><path
       style="fill:#584987;fill-opacity:1"
       d="m 54.524734,-113.91015 c -1.04195,-0.16005 -3.04622,-0.87176 -3.88306,-1.37887 -1.10265,-0.66817 -1.82402,-1.55989 -2.35894,-2.91602 -0.40114,-1.01697 -0.53928,-1.80077 -0.53874,-3.05684 5.2e-4,-1.21898 0.1406,-2.0732 0.51883,-3.16395 0.38654,-1.11468 0.50121,-1.33633 1.13042,-2.18494 0.74193,-1.00064 1.90669,-1.90447 2.97295,-2.30694 0.28847,-0.10888 0.73734,-0.28761 0.9975,-0.39717 0.4378,-0.18437 0.59469,-0.19935 2.10707,-0.20124 l 1.63405,-0.002 0.97296,0.40388 c 1.08556,0.45062 2.12289,1.14292 2.76517,1.84544 1.44394,1.57936 2.06704,4.75888 1.45529,7.42599 -0.30787,1.34225 -0.89882,2.66348 -1.53118,3.42333 -0.79485,0.9551 -2.50254,1.93986 -4.07971,2.35259 -0.94118,0.24629 -1.37503,0.27775 -2.16261,0.15677 z m 1.99181,-1.59726 c 0.70055,-0.56365 1.36816,-1.76387 1.57435,-2.83038 0.179,-0.92587 0.29903,-4.5224 0.19761,-5.92115 -0.10692,-1.4746 -0.18522,-1.73572 -0.78558,-2.61978 -0.88485,-1.30301 -2.16789,-1.87159 -3.12339,-1.38412 -0.41681,0.21263 -1.14089,0.9413 -1.35919,1.36778 -0.27137,0.53016 -0.68287,1.66547 -0.76406,2.10803 -0.24132,1.31537 -0.15879,5.8088 0.12519,6.81586 0.34825,1.23495 1.18912,2.44526 1.85205,2.66574 0.16016,0.0533 0.66506,0.0894 1.12198,0.0803 0.78837,-0.0157 0.84764,-0.0301 1.16104,-0.28228 z m -19.62238,1.46022 c -1.28501,-0.22993 -3.38158,-0.85606 -4.30014,-1.2842 -0.77789,-0.36257 -1.19426,-0.63251 -2.07693,-1.34648 -0.78649,-0.63618 -1.18393,-1.11569 -1.77765,-2.1447 -0.59457,-1.03051 -0.88502,-1.71375 -1.04626,-2.46125 -0.0688,-0.31904 -0.22213,-0.81229 -0.34069,-1.0961 -0.20297,-0.48585 -0.21558,-0.6065 -0.21572,-2.06406 -1.4e-4,-1.37644 0.0194,-1.59096 0.17582,-1.93507 0.0968,-0.21285 0.2873,-0.79337 0.42337,-1.29004 0.26679,-0.97379 0.58325,-1.7398 1.23297,-2.98445 1.22603,-2.34866 4.10334,-4.18466 7.66722,-4.89242 1.66865,-0.33138 2.77812,-0.37763 3.88406,-0.16191 0.37075,0.0723 1.08045,0.1869 1.57712,0.25462 1.0929,0.14902 2.64937,0.68735 3.02339,1.04568 0.35346,0.33864 0.37717,0.54056 0.15787,1.34447 -0.27422,1.00527 -0.34536,1.17499 -0.53498,1.27648 -0.273,0.1461 -0.50024,0.024 -1.22724,-0.65922 -1.09367,-1.02785 -1.97321,-1.36588 -3.82712,-1.47084 -1.02499,-0.058 -2.46383,0.11857 -3.17848,0.39011 -1.00766,0.38288 -1.77413,0.99749 -2.55518,2.04894 -0.45955,0.61866 -1.31765,2.25139 -1.3196,2.51087 -5.7e-4,0.0751 -0.11743,0.6204 -0.25971,1.21167 -0.31732,1.31876 -0.39371,2.56055 -0.26716,4.34314 0.0762,1.07275 0.14753,1.48042 0.42374,2.42031 0.60646,2.06368 1.54565,3.28589 3.3577,4.36952 0.93595,0.55971 1.01414,0.58944 1.97806,0.75209 1.60731,0.27121 3.42286,0.0671 4.76037,-0.53512 0.41724,-0.18787 0.77716,-0.34158 0.79983,-0.34158 0.0409,0 0.77505,-0.4769 1.1363,-0.73817 0.11866,-0.0858 0.25848,-0.11435 0.37661,-0.0769 0.1723,0.0547 0.1838,0.0999 0.13853,0.54483 -0.0969,0.95282 -0.36293,1.50434 -0.89401,1.85375 -0.4131,0.27179 -1.97489,0.74166 -3.42652,1.03088 -1.2966,0.25833 -2.72211,0.28972 -3.86557,0.0851 z m 83.663626,-0.0685 c -0.8304,-0.30858 -1.72535,-0.88442 -2.35844,-1.51751 -0.49361,-0.49362 -0.60469,-0.66233 -0.75375,-1.14493 -0.38101,-1.23359 -0.39966,-1.63172 -0.34694,-7.40784 0.0391,-4.2804 0.0459,-4.34154 0.50912,-4.57586 0.31768,-0.16069 2.68229,-0.1518 2.99762,0.0113 0.48311,0.24982 0.4787,0.20175 0.48594,5.29562 0.007,5.0855 0.0186,5.22581 0.48023,5.94582 0.51632,0.80525 1.35173,1.1163 2.51386,0.93599 0.741,-0.11497 1.19586,-0.36545 1.71774,-0.94591 0.72953,-0.81141 0.70545,-0.60589 0.70569,-6.02191 2.2e-4,-5.12758 -0.004,-5.0812 0.44105,-5.25028 0.11846,-0.045 0.7953,-0.0819 1.50409,-0.0819 1.30447,0 1.71362,0.0817 1.81554,0.36233 0.0221,0.0609 0.0158,2.00705 -0.014,4.32482 -0.0298,2.31778 -0.0214,5.29569 0.0187,6.61758 0.0788,2.59489 0.067,2.69071 -0.35602,2.88506 -0.13151,0.0604 -0.81158,0.12395 -1.61607,0.15095 l -1.38901,0.0466 -0.22354,-0.22354 c -0.15103,-0.15102 -0.22354,-0.31625 -0.22354,-0.50932 0,-0.36696 -0.21184,-0.66807 -0.47001,-0.66807 -0.11867,0 -0.48311,0.22309 -0.88182,0.53978 -1.66335,1.3212 -3.19822,1.73594 -4.55645,1.23123 z m 43.25821,0.0407 c -1.50828,-0.40911 -2.30876,-1.32229 -2.65682,-3.03085 -0.13119,-0.64402 -0.13827,-1.08301 -0.0704,-4.37104 0.0415,-2.01031 0.0663,-4.03472 0.0551,-4.49868 -0.0311,-1.29169 -0.31054,-1.69352 -1.17763,-1.69352 -0.3805,0 -0.64712,-0.15883 -0.64712,-0.38551 0,-0.18828 0.46713,-0.52448 0.89532,-0.64436 0.67494,-0.18898 0.79042,-0.40866 0.84572,-1.60893 0.0637,-1.38376 0.16311,-1.68286 0.75181,-2.26336 0.38755,-0.38214 0.69082,-0.56957 1.57859,-0.97558 1.74175,-0.79659 1.74755,-0.79018 1.82053,2.00762 0.029,1.11158 0.0703,2.10743 0.0917,2.213 0.0516,0.25374 0.39386,0.41771 1.02554,0.49123 0.94787,0.11033 1.56046,0.56896 1.33147,0.99683 -0.16267,0.30394 -0.39802,0.3594 -1.2532,0.29528 -1.23803,-0.0928 -1.41619,0.10578 -1.58006,1.76129 -0.12277,1.24035 -0.11942,6.3975 0.005,7.29014 0.1252,0.90016 0.55116,2.16029 0.82882,2.45193 0.3074,0.32287 0.91596,0.51261 1.42175,0.44329 0.54593,-0.0748 0.83753,0.10876 0.83753,0.5273 0,0.249 -0.0528,0.33265 -0.32251,0.51041 -0.38812,0.25584 -1.62799,0.55754 -2.51558,0.61211 -0.4728,0.0291 -0.81064,-0.005 -1.26532,-0.1286 z m 20.27194,-0.0424 c -0.99747,-0.23724 -2.29576,-0.74985 -2.90009,-1.14506 -0.6785,-0.4437 -1.99341,-1.97515 -2.41896,-2.81731 -0.18597,-0.36804 -0.49912,-1.97491 -0.58319,-2.99255 -0.0601,-0.7274 0.16666,-3.1835 0.35129,-3.80502 0.15992,-0.53833 0.50293,-1.0799 1.2446,-1.96508 0.67939,-0.81084 1.37817,-1.48277 1.82844,-1.75815 0.4925,-0.30121 1.77577,-0.78008 2.36843,-0.88381 0.29455,-0.0516 1.05098,-0.0802 1.68096,-0.0637 l 1.14541,0.03 0.81312,0.41852 c 1.0184,0.52418 2.19445,1.40065 2.60929,1.94462 0.17432,0.22859 0.45626,0.73707 0.62652,1.12996 0.32104,0.74084 0.38796,1.12883 0.49658,2.87935 0.0484,0.77945 0.0368,0.88941 -0.11345,1.07503 -0.14882,0.1839 -0.23238,0.20578 -0.75555,0.19779 -0.32352,-0.005 -2.17278,-0.0193 -4.10946,-0.0318 l -3.52125,-0.0229 -0.16505,0.20383 c -0.13999,0.17289 -0.15656,0.2867 -0.10912,0.74975 0.12391,1.20937 0.41173,2.65364 0.61233,3.07258 0.24444,0.51049 1.20211,1.47256 1.73792,1.74589 0.55795,0.28463 1.55985,0.38857 2.66239,0.27621 0.81174,-0.0827 1.01234,-0.13758 1.60148,-0.43798 0.75941,-0.38721 1.12056,-0.43487 1.26402,-0.16682 0.0766,0.14317 0.0529,0.24762 -0.12537,0.5518 -0.32877,0.561 -0.79535,0.90749 -1.78258,1.3238 -1.65716,0.69881 -2.97519,0.84399 -4.45871,0.49113 z m 2.73984,-8.90352 c 0.20612,-0.0387 0.45768,-0.15359 0.55902,-0.25538 0.16356,-0.1643 0.183,-0.27404 0.17315,-0.97739 -0.0117,-0.83539 -0.079,-1.17103 -0.44119,-2.20144 -0.16968,-0.48268 -0.33406,-0.75478 -0.68493,-1.13376 -0.84055,-0.90789 -1.58566,-1.08747 -2.28778,-0.55136 -0.46433,0.35454 -1.06452,1.30838 -1.23524,1.96308 -0.13549,0.51962 -0.24943,2.33725 -0.16708,2.66536 0.0732,0.29178 0.40947,0.50916 0.90676,0.58622 0.46238,0.0716 2.63459,0.006 3.17729,-0.0953 z m 9.64456,8.90965 c -0.30746,-0.10946 -0.75253,-0.2972 -0.98904,-0.4172 -0.2365,-0.12 -0.64287,-0.27987 -0.90302,-0.35526 -0.95247,-0.27604 -1.1247,-0.58673 -0.81562,-1.47129 0.41505,-1.18779 0.6265,-1.25954 1.3866,-0.47046 0.91315,0.94795 2.53839,1.57549 3.46072,1.33624 1.83309,-0.4755 2.5539,-2.17332 1.35746,-3.19743 -0.32646,-0.27944 -0.56357,-0.40857 -1.73405,-0.94435 -2.71911,-1.24467 -3.52313,-1.75978 -4.0623,-2.60259 -0.5754,-0.89944 -0.6586,-1.21446 -0.66348,-2.51211 l -0.004,-1.16177 0.38701,-0.68058 c 0.25056,-0.44063 0.64476,-0.94069 1.11804,-1.41832 0.67789,-0.6841 0.79666,-0.76533 1.63405,-1.11751 0.8841,-0.37183 0.92647,-0.3805 2.02107,-0.41368 1.22499,-0.0371 1.48484,0.0115 2.64393,0.49504 0.76514,0.31918 1.3552,0.86551 1.3552,1.25476 0,0.29529 -0.32225,1.39408 -0.48252,1.64525 -0.1804,0.28274 -0.49579,0.24888 -0.73648,-0.0791 -0.11003,-0.14992 -0.45562,-0.53375 -0.76798,-0.85296 -0.45647,-0.46648 -0.65787,-0.6071 -1.02615,-0.71646 -0.59305,-0.17612 -1.73979,-0.17649 -2.25562,-7.3e-4 -0.66505,0.22661 -1.35347,1.11016 -1.35347,1.73711 0,0.32305 0.40797,0.95331 0.82552,1.27534 0.5575,0.42996 1.56045,0.98311 2.03675,1.12332 1.03803,0.30557 2.83795,1.16828 3.2718,1.5682 0.64902,0.59827 1.26217,2.12707 1.26217,3.14704 0,0.52273 -0.34779,1.78837 -0.65738,2.3923 -0.4691,0.91508 -1.06868,1.43121 -2.26766,1.95205 -1.66517,0.72334 -2.94159,0.87657 -4.04118,0.48511 z m -130.763676,-0.603 -0.21646,-0.21646 0.002,-5.55011 c 9.8e-4,-3.05256 -0.0242,-5.9513 -0.0559,-6.44165 -0.0684,-1.05877 0.004,-1.64425 0.23015,-1.87082 0.15181,-0.15182 0.30034,-0.16581 1.75962,-0.16581 1.78281,0 2.1487,0.0767 2.23025,0.46735 0.0253,0.12137 0.0685,0.32688 0.096,0.4567 0.12739,0.60235 0.42025,0.59263 1.09963,-0.0365 0.36616,-0.33908 0.80371,-0.62179 1.43054,-0.9243 l 0.90303,-0.43582 1.03203,-2.2e-4 1.03203,-2.3e-4 0.74264,0.35681 c 0.84018,0.40367 1.31645,0.79537 1.70691,1.40386 0.31569,0.49195 0.63078,0.72381 0.89392,0.65777 0.10348,-0.026 0.39204,-0.29369 0.64123,-0.59493 0.58062,-0.70188 1.08311,-1.07606 1.98906,-1.48113 1.25833,-0.56264 2.53542,-0.558 3.9022,0.0142 1.2861,0.53841 1.95062,1.31742 2.3002,2.69654 0.16648,0.65677 0.1922,1.07175 0.25316,4.08514 0.0373,1.84475 0.0969,4.21212 0.13246,5.2608 l 0.0646,1.9067 -0.2506,0.2506 -0.2506,0.2506 -1.60625,0.058 c -1.1319,0.0409 -1.66971,0.0291 -1.82114,-0.0399 -0.41613,-0.18961 -0.42837,-0.33654 -0.31247,-3.75259 0.12404,-3.6557 0.0861,-6.51269 -0.0934,-7.03036 -0.18271,-0.52697 -0.88247,-1.18847 -1.49768,-1.4158 -0.73507,-0.27162 -1.49999,-0.22328 -2.07433,0.13109 -0.5144,0.31737 -0.93548,0.93333 -1.08053,1.58063 -0.12514,0.55842 -0.15115,5.02839 -0.0472,8.11595 l 0.066,1.96165 -0.25292,0.25292 -0.25292,0.25292 h -1.73058 -1.73058 l -0.22015,-0.22015 -0.22014,-0.22014 0.0635,-2.71511 c 0.0941,-4.02385 0.0815,-6.60809 -0.0354,-7.28214 -0.27794,-1.60183 -1.26943,-2.22546 -2.87869,-1.81065 -0.93679,0.24147 -1.25906,0.57181 -1.65634,1.69783 -0.35502,1.00625 -0.48717,4.62138 -0.30391,8.31429 0.0364,0.73317 0.0376,1.46426 0.003,1.62465 -0.12052,0.55464 -0.15775,0.56545 -2.05446,0.59634 l -1.71464,0.0279 z m 26.7433,0.14474 c -0.54282,-0.0473 -0.71485,-0.10296 -0.88608,-0.28676 -0.15304,-0.16426 -0.15953,-0.45447 -0.15289,-6.83422 l 0.007,-6.66268 0.2383,-0.23847 0.2383,-0.23846 1.42096,-0.029 c 1.6085,-0.0328 1.75566,0.01 1.98832,0.57317 0.31442,0.7616 0.5662,0.78746 1.37034,0.14076 1.08803,-0.875 2.28028,-1.34227 3.424826,-1.34227 0.71928,0 0.81121,0.0211 1.40626,0.32315 0.97401,0.49438 1.67144,1.06219 1.98321,1.61461 0.14746,0.26128 0.3436,0.51546 0.43587,0.56484 0.24418,0.13068 0.5513,-0.0155 0.83785,-0.39876 0.50023,-0.66907 1.01187,-1.07153 1.9653,-1.54593 1.0632,-0.52903 1.57799,-0.6358 2.60949,-0.54126 0.64198,0.0588 1.90112,0.48641 2.39613,0.81366 0.41829,0.27652 0.74348,0.73539 1.08569,1.53196 0.50964,1.18634 0.57287,2.01904 0.57287,7.54427 v 4.69623 l -0.19904,0.187 c -0.18769,0.17632 -0.27729,0.18672 -1.56956,0.18214 -1.49568,-0.005 -1.85967,-0.0796 -2.12175,-0.43325 -0.15788,-0.21303 -0.16116,-0.30158 -0.0726,-1.96128 0.051,-0.956 0.0928,-3.07221 0.0928,-4.70271 0,-2.73865 -0.013,-3.00161 -0.17107,-3.45125 -0.35814,-1.01896 -0.82282,-1.45554 -1.83004,-1.71937 -0.57389,-0.15032 -0.59251,-0.14976 -1.32686,0.0401 -0.40964,0.1059 -0.83651,0.25263 -0.94859,0.32607 -0.27842,0.18243 -0.50847,0.57781 -0.72276,1.24222 -0.24873,0.77118 -0.28833,2.7636 -0.1359,6.83722 0.0655,1.75016 0.0899,3.26314 0.0543,3.36218 -0.11672,0.32448 -0.49889,0.39937 -2.0973,0.41101 -1.45489,0.0106 -1.50749,0.005 -1.69824,-0.18504 l -0.19684,-0.19598 v -4.92119 -4.92119 l -0.27958,-0.6935 c -0.15377,-0.38142 -0.385976,-0.79539 -0.516016,-0.91992 -0.37718,-0.36119 -1.01464,-0.60085 -1.61319,-0.60648 -0.44732,-0.004 -0.61257,0.0412 -1.07584,0.29537 -0.759,0.41649 -1.05319,0.86016 -1.2383,1.86742 -0.31426,1.71001 -0.39677,4.92973 -0.17999,7.02334 0.0686,0.66222 0.12582,1.57616 0.12722,2.03097 0.002,0.70872 -0.0229,0.85932 -0.1757,1.05353 l -0.17825,0.22661 -1.2623,-0.0145 c -0.69427,-0.008 -1.41711,-0.0279 -1.60631,-0.0444 z m 42.409006,-0.0251 c -0.64455,-0.0852 -0.77049,-0.29251 -0.70539,-1.16123 0.11172,-1.49096 0.15526,-9.6591 0.0598,-11.22919 -0.12605,-2.07432 -0.28935,-1.90744 1.8839,-1.92522 1.01659,-0.008 1.71968,0.0215 1.83226,0.0776 0.10048,0.0501 0.2684,0.22597 0.37315,0.39084 0.47335,0.74497 0.64589,0.76594 1.41174,0.17157 0.30417,-0.23606 0.9207,-0.59405 1.37006,-0.79553 l 0.81703,-0.36633 h 1.20404 1.20403 l 0.75278,0.36167 c 0.82888,0.39824 1.47385,0.96485 1.77888,1.56276 0.10024,0.19649 0.28339,0.86945 0.40701,1.49548 0.20999,1.06341 0.22885,1.36159 0.2869,4.53535 0.0342,1.86841 0.1117,3.9994 0.17227,4.73553 0.17097,2.07785 0.10242,2.14435 -2.2105,2.14456 -1.44017,1.3e-4 -1.48505,-0.005 -1.72006,-0.20781 -0.2798,-0.24112 -0.28683,-0.38994 -0.12025,-2.54414 0.22675,-2.93237 0.28261,-4.2594 0.23891,-5.67619 -0.0498,-1.61408 -0.16993,-2.26089 -0.53779,-2.89511 -0.25956,-0.4475 -0.59273,-0.65586 -1.41153,-0.88276 -0.85592,-0.23719 -1.31299,-0.22673 -1.89313,0.0433 -1.04254,0.48527 -1.30074,0.83889 -1.65273,2.26351 -0.2095,0.84794 -0.25415,1.23731 -0.29693,2.58909 -0.0288,0.90913 -0.008,2.16239 0.048,2.92409 0.31528,4.27202 0.31948,4.08792 -0.0983,4.31149 -0.21092,0.11289 -2.50396,0.16793 -3.19426,0.0767 z m 17.34705,0.002 c -0.10333,-0.0443 -0.22854,-0.15651 -0.27824,-0.24937 -0.0922,-0.17218 -0.0499,-12.11537 0.0463,-13.06659 0.0306,-0.30332 0.11266,-0.532 0.24674,-0.68803 0.19453,-0.22638 0.23297,-0.23459 1.22719,-0.2621 1.52695,-0.0423 1.98846,0.13743 2.13537,0.83137 0.0367,0.17329 0.0575,2.19208 0.0462,4.4862 -0.0116,2.35165 0.0235,5.01523 0.0804,6.1062 0.0555,1.06429 0.0969,2.03182 0.092,2.15007 -0.0131,0.31387 -0.36264,0.57634 -0.84399,0.63375 -0.83716,0.0998 -2.56955,0.13667 -2.75193,0.0585 z m 19.55211,-0.004 c -0.77287,-0.0393 -0.8616,-0.0617 -1.02093,-0.258 -0.15971,-0.19681 -0.16936,-0.28782 -0.11392,-1.07504 0.0333,-0.47301 0.076,-3.44913 0.0949,-6.61359 0.0382,-6.38943 0.007,-6.06955 0.61699,-6.23908 0.17783,-0.0494 0.84974,-0.09 1.49314,-0.0903 1.0763,-4.4e-4 1.19318,0.0152 1.46205,0.19604 0.46342,0.31164 0.53988,0.75535 0.40334,2.34056 -0.17328,2.01184 -0.14505,8.36346 0.0438,9.86049 0.16044,1.27162 0.12977,1.51857 -0.21561,1.7363 -0.22894,0.14432 -1.46977,0.20834 -2.76383,0.14259 z m -18.54983,-18.10395 c -0.44148,-0.13918 -1.05872,-0.62958 -1.24443,-0.98871 -0.22671,-0.4384 -0.33217,-1.37055 -0.21753,-1.92274 0.13167,-0.63428 0.44145,-0.99062 1.12963,-1.29946 0.73639,-0.33047 1.21835,-0.31905 1.93737,0.0459 0.60427,0.30671 0.91538,0.61626 1.16109,1.15527 0.22046,0.48362 0.19845,0.86591 -0.0842,1.46205 -0.33583,0.70832 -0.6392,1.04124 -1.21255,1.33066 -0.62701,0.31652 -0.98574,0.3695 -1.46939,0.21702 z m 18.68913,-0.0898 c -0.51447,-0.25637 -0.78943,-0.58812 -1.15276,-1.39086 -0.35599,-0.78653 -0.36212,-1.25398 -0.0236,-1.80215 0.20834,-0.33739 0.37607,-0.47685 0.89786,-0.74653 0.60155,-0.3109 0.67808,-0.32908 1.2246,-0.29082 0.73877,0.0517 1.42645,0.44704 1.85506,1.06639 0.26745,0.38647 0.28564,0.45587 0.25556,0.9751 -0.0283,0.4888 -0.078,0.62604 -0.39593,1.09253 -0.40065,0.58797 -0.7302,0.87385 -1.31105,1.13733 -0.511,0.23179 -0.82121,0.22237 -1.34971,-0.041 z"
       id="path6"
       sodipodi:nodetypes="csssssssccssssscccssssssscsccsssssscssssssssccsssscssssssccssccsssssccsssssssscsscsssssscsscssscssscsssscssssscccsssssscscssssscccsssssssssccsssssssscsscssssssssccsssssssssssssssssscccccccsccsscccsssssssscccccssssssccccccccscssscscccsccccscssssssscssscscssscssssscsccccssccsccccccccsccsssscccsssssscssssssscsccsccscsssccsscssssccsssccssssssssssssssssscsss" /><path
       style="fill:#584987;fill-opacity:1"
       d="m 39.828783,-141.44435 c -0.684166,-0.0795 -2.23052,-0.37973 -2.752089,-0.53436 -2.674493,-0.79293 -5.449407,-2.35753 -6.665216,-3.7581 -1.45131,-1.67185 -2.296997,-3.29861 -2.924822,-5.62618 -0.588935,-2.18338 -0.644502,-5.70566 -0.122566,-7.76918 0.325062,-1.28516 0.974261,-2.90402 1.48173,-3.69488 0.157869,-0.24603 0.396729,-0.62148 0.5308,-0.83433 0.949697,-1.50778 2.390162,-2.89188 4.17396,-4.01066 1.502384,-0.94227 2.132587,-1.25991 3.012231,-1.51821 2.737074,-0.80372 3.55332,-0.92144 6.386531,-0.92107 2.184637,2.9e-4 3.04102,0.0903 4.110224,0.43183 0.292532,0.0935 0.565426,0.16992 0.606431,0.16992 0.222894,0 2.469083,0.90428 2.851315,1.14789 0.246858,0.15733 0.700391,0.43384 1.007851,0.61446 1.154592,0.67826 2.163667,1.5756 3.292542,2.92797 0.980919,1.17512 1.984062,3.21552 2.466196,5.01626 0.47926,1.79001 0.551334,2.41822 0.494701,4.31187 -0.04139,1.38396 -0.08124,1.72538 -0.306195,2.62309 -0.142236,0.56761 -0.362014,1.32229 -0.488396,1.67705 -0.30033,0.84305 -1.237478,2.61922 -1.828713,3.46595 -1.093225,1.56566 -2.795113,3.15981 -4.189153,3.92398 -0.283809,0.15557 -0.803963,0.44083 -1.155896,0.6339 -0.570378,0.3129 -1.257984,0.59911 -2.628227,1.09395 -0.487012,0.17588 -2.301951,0.49259 -3.39711,0.5928 -0.773414,0.0708 -3.447505,0.0951 -3.956129,0.0361 z m 4.472146,-2.80596 c 0.739416,-0.24184 1.891492,-0.82398 2.390325,-1.20782 0.91903,-0.70718 1.940736,-1.97628 2.757759,-3.42551 0.429471,-0.7618 0.878316,-2.24374 1.076536,-3.55438 0.07154,-0.47302 0.193994,-1.20834 0.272124,-1.63405 0.178201,-0.97098 0.136092,-4.16168 -0.06923,-5.24617 -0.07165,-0.37842 -0.175906,-1.01161 -0.231692,-1.40711 -0.204062,-1.4467 -1.503479,-3.84453 -2.553803,-4.71255 -1.846602,-1.5261 -3.01057,-1.99004 -5.190073,-2.06868 -1.053786,-0.038 -1.393661,-0.0162 -2.193072,0.1406 -1.771303,0.34749 -3.537083,1.47532 -4.495097,2.87108 -1.161579,1.69233 -2.136249,4.54817 -2.353783,6.89671 -0.137455,1.48399 -0.0415,4.74978 0.170564,5.80519 0.538431,2.67966 1.393781,4.55238 2.623306,5.7435 0.842148,0.81585 2.30332,1.60791 3.358747,1.8207 0.241045,0.0486 0.515666,0.10603 0.610269,0.12764 0.407639,0.0931 3.448854,-0.0254 3.827125,-0.14915 z m 67.942201,2.81384 c -0.16556,-0.019 -0.72673,-0.0767 -1.24704,-0.12818 -1.10294,-0.10919 -2.98212,-0.46959 -3.30351,-0.63358 -0.12243,-0.0625 -0.55934,-0.2157 -0.9709,-0.3405 -0.41156,-0.12481 -1.08883,-0.42548 -1.50505,-0.66815 -0.41621,-0.24267 -0.97199,-0.56474 -1.23505,-0.71571 -0.95956,-0.55068 -2.4938,-1.94799 -3.07028,-2.79625 -0.31565,-0.46446 -0.966566,-1.54805 -0.966566,-1.60904 0,-0.0239 -0.114314,-0.28294 -0.254031,-0.57569 -0.936153,-1.96154 -1.380022,-4.10952 -1.380022,-6.67826 0,-1.2952 0.276429,-3.3999 0.558512,-4.25243 1.03753,-3.13571 2.615417,-5.33822 5.246677,-7.3236 1.08292,-0.8171 2.72442,-1.69794 3.78412,-2.03057 2.42186,-0.7602 3.48467,-0.92316 6.02055,-0.92316 2.16259,0 2.88262,0.085 4.79852,0.56624 1.80718,0.45396 2.73866,0.88218 4.57543,2.10337 1.85011,1.23007 3.30916,2.92507 4.25252,4.94021 0.81946,1.75046 1.05354,2.55 1.33489,4.55957 0.28913,2.06507 0.26461,2.62219 -0.22524,5.11717 -0.31602,1.6096 -1.17013,3.58758 -2.22996,5.16423 -0.72133,1.07308 -1.88991,2.27736 -3.10979,3.20479 -0.87234,0.6632 -2.52708,1.54207 -3.61526,1.92014 -0.48362,0.16803 -0.91801,0.33718 -0.96531,0.3759 -0.12971,0.10617 -1.44272,0.42046 -2.36507,0.56611 -0.78814,0.12447 -3.5105,0.22826 -4.12814,0.15739 z m 3.39711,-2.81088 c 0.74285,-0.21827 1.46614,-0.54655 1.98923,-0.90287 1.04305,-0.7105 2.43696,-2.3153 2.91017,-3.35048 0.12502,-0.27346 0.3005,-0.63427 0.38997,-0.8018 0.25216,-0.47215 0.83294,-2.35309 1.02204,-3.31002 0.26084,-1.31993 0.37687,-2.60136 0.38524,-4.25464 0.007,-1.34345 -0.0183,-1.6251 -0.23367,-2.62309 -0.4776,-2.21308 -1.36017,-4.35466 -2.184,-5.29953 -0.97692,-1.12044 -2.35212,-2.06172 -3.43683,-2.3524 -0.91484,-0.24515 -2.36897,-0.41055 -3.16423,-0.35991 -2.78949,0.17763 -4.68455,1.17978 -5.97133,3.15778 -0.97239,1.49474 -1.8342,3.62188 -2.07024,5.10986 -0.34926,2.20165 -0.472,3.96877 -0.3526,5.07637 0.23165,2.14872 0.44011,3.40572 0.69113,4.16743 0.14509,0.44028 0.2638,0.83844 0.2638,0.88479 0,0.13848 1.02272,1.88057 1.3761,2.34402 1.10511,1.44937 2.50787,2.31358 4.25708,2.62271 0.67108,0.1186 3.61923,0.0413 4.12814,-0.10822 z m -50.311629,2.26596 c -2.561247,-0.0535 -2.641085,-0.067 -2.933416,-0.49832 -0.144687,-0.21344 -0.159988,-0.38185 -0.138313,-1.52223 0.0134,-0.70522 0.08207,-1.84691 0.152579,-2.53708 0.226513,-2.21705 0.315738,-6.01097 0.265146,-11.27417 -0.04321,-4.49465 -0.06845,-5.18708 -0.236733,-6.49322 -0.121145,-0.94027 -0.191403,-1.97118 -0.196867,-2.88867 -0.01355,-2.27569 -0.194298,-2.16746 3.732625,-2.23516 1.584601,-0.0273 4.235637,-0.0408 5.891191,-0.0299 2.599012,0.0171 3.128035,0.0431 3.873674,0.19021 1.458462,0.2878 2.81332,0.97784 3.543328,1.80464 0.651507,0.73789 1.21297,1.69653 1.497502,2.55683 0.262873,0.79482 0.284045,0.94155 0.279212,1.93507 -0.0077,1.58918 -0.291277,2.61198 -1.109777,4.00317 -0.454514,0.77253 -1.372878,1.75957 -1.851677,1.99014 -0.116637,0.0562 -0.695832,0.33279 -1.287102,0.61472 -0.593303,0.28289 -1.185533,0.62934 -1.321625,0.77313 -0.239697,0.25326 -0.243726,0.27248 -0.144147,0.68757 0.05634,0.23487 0.258143,0.69243 0.448443,1.01681 0.190301,0.32437 0.461868,0.82198 0.603484,1.10579 0.141615,0.28381 0.81767,1.36744 1.502344,2.40808 0.684674,1.04063 1.900665,2.89174 2.702201,4.11358 0.801537,1.22183 1.633377,2.43762 1.848533,2.70175 0.68384,0.83948 0.789308,1.2654 0.369044,1.49031 -0.24371,0.13043 -5.704458,0.12175 -6.193162,-0.01 -0.581949,-0.15671 -1.025442,-0.65643 -1.620451,-1.82593 -0.294292,-0.57843 -0.588345,-1.11207 -0.653452,-1.18586 -0.06511,-0.0738 -0.425794,-0.69301 -0.801527,-1.37605 -0.375733,-0.68303 -0.85994,-1.55149 -1.076016,-1.9299 -0.907116,-1.58863 -1.494685,-2.59856 -1.676198,-2.88109 -0.776307,-1.20836 -1.29374,-2.08389 -1.39175,-2.35493 -0.06325,-0.17491 -0.185271,-0.38161 -0.271163,-0.45934 -0.135502,-0.12263 -0.1722,-0.12502 -0.277346,-0.0181 -0.155229,0.15788 -0.299418,4.23497 -0.208142,5.88544 0.18778,3.39549 0.244874,5.4271 0.159764,5.68499 -0.123603,0.37452 -0.329126,0.5363 -0.730364,0.5749 -0.18797,0.0181 -1.425399,0.0102 -2.749842,-0.0174 z m 6.149199,-14.64533 c 0.260159,-0.0926 0.705223,-0.24917 0.989032,-0.34783 0.673787,-0.23425 0.940145,-0.43651 1.330908,-1.01065 0.511214,-0.75112 0.687832,-1.16032 0.88447,-2.04923 0.320443,-1.44856 0.230882,-4.22102 -0.161974,-5.0141 -0.158308,-0.31959 -0.936598,-1.15342 -1.262977,-1.35311 -0.721231,-0.44127 -2.269281,-0.78361 -3.550687,-0.78521 -0.757482,-9.4e-4 -0.817553,0.0897 -0.92723,1.3989 -0.04845,0.57834 -0.08641,2.81964 -0.08435,4.98067 0.0033,3.48511 0.0196,3.95334 0.144115,4.14337 0.07721,0.11783 0.228406,0.22928 0.336,0.24765 0.45628,0.0779 1.850748,-0.0495 2.302693,-0.21046 z m 18.146589,14.64685 c -1.471935,-0.0348 -2.252822,-0.0861 -2.374782,-0.15603 -0.387915,-0.22248 -0.390024,-0.2659 -0.302208,-6.22279 0.08286,-5.62038 0.06319,-13.78575 -0.04339,-18.01367 -0.05004,-1.98511 -0.04034,-2.26904 0.08583,-2.51303 0.250031,-0.48351 0.304178,-0.49276 3.058851,-0.52262 2.815035,-0.0305 2.968538,-0.006 3.371543,0.53061 0.203007,0.27049 0.203256,0.27393 0.184373,2.54993 -0.0104,1.25349 -0.06245,2.64674 -0.115674,3.0961 -0.124214,1.04879 -0.05964,16.24466 0.07946,18.70096 0.09381,1.65646 0.09112,1.72786 -0.07832,2.07788 -0.09651,0.19936 -0.241421,0.38843 -0.322026,0.42016 -0.236971,0.0933 -1.208968,0.10766 -3.543663,0.0525 z m 44.420441,-0.0434 c -0.55588,-0.24537 -0.60291,-0.378 -0.59354,-1.67384 0.008,-1.1146 0.14013,-3.64713 0.4289,-8.22486 0.26846,-4.25565 0.3715,-10.84108 0.20589,-13.15843 -0.0473,-0.66222 -0.0953,-1.77139 -0.10665,-2.46483 -0.0201,-1.2295 -0.0154,-1.26632 0.18801,-1.48368 0.28487,-0.30435 0.66992,-0.39359 1.70071,-0.39415 1.07016,-5.9e-4 1.61144,0.10768 2.10578,0.42118 0.35171,0.22304 2.03513,1.98243 4.52658,4.73083 0.5827,0.64279 1.37944,1.51703 1.77053,1.94274 0.3911,0.42571 1.24338,1.37389 1.89396,2.10707 0.65058,0.73317 1.4386,1.60395 1.75116,1.93506 0.31256,0.33111 1.20604,1.29864 1.98552,2.15007 1.58461,1.73088 2.38147,2.57989 3.69291,3.93463 0.9787,1.011 1.22302,1.13019 1.4104,0.68802 0.11439,-0.26993 0.12438,-5.76394 0.0234,-12.85961 -0.045,-3.1599 -0.035,-4.34353 0.0383,-4.52026 0.19068,-0.46035 0.52345,-0.56747 1.77213,-0.5705 1.23766,-0.003 1.50807,0.0835 1.6862,0.5393 0.0904,0.23128 -9.2e-4,2.47066 -0.19179,4.70416 -0.32998,3.86105 -0.42454,7.11543 -0.43111,14.83548 -0.004,4.47064 -0.0338,6.34244 -0.10588,6.61416 -0.16925,0.63767 -0.39341,0.73908 -1.63367,0.73908 -1.00161,0 -1.06564,-0.0109 -1.47701,-0.25125 -0.50188,-0.29324 -1.99578,-1.77023 -2.79043,-2.75885 -0.53608,-0.66694 -1.5369,-1.8376 -1.80703,-2.11368 -0.11105,-0.1135 -0.98083,-1.06351 -1.79739,-1.96319 -0.11145,-0.1228 -0.92726,-1.01665 -1.81291,-1.98633 -0.88564,-0.96968 -1.87583,-2.07266 -2.20041,-2.45108 -0.32458,-0.37841 -1.31206,-1.44269 -2.19439,-2.36507 -0.88233,-0.92238 -1.97932,-2.09933 -2.43776,-2.61543 -0.74327,-0.83678 -1.50312,-1.53342 -2.09697,-1.92252 -0.18421,-0.1207 -0.21578,-0.11955 -0.34794,0.0127 -0.13457,0.13465 -0.14535,0.80044 -0.14535,8.98281 0,8.41496 -0.008,8.84885 -0.15719,9.07732 -0.0865,0.13197 -0.2884,0.29477 -0.44875,0.36177 -0.38219,0.15969 -2.04323,0.16052 -2.40415,0.001 z"
       id="path1"
       sodipodi:nodetypes="cssssssssscsssssssssssssccssssssssscssssssssscsssssssssssssssssssssssssssscsssssssssssscsssssssscsssssssssssssscssssssssssscccsssssssssscscsssscsssssssccsssssssssssssscsssccsssssssssssscscc" /><path
       style="fill:#fcaf29;fill-opacity:1"
       d="m 190.41309,-135.3746 c -1.37805,-0.50445 -2.47432,-1.47431 -4.38249,-3.87718 -3.1473,-3.96322 -4.22286,-5.47145 -5.03118,-7.05505 -0.66147,-1.29591 -1.00782,-1.72151 -1.32097,-1.62324 -0.35314,0.11083 -1.50635,0.71045 -2.80272,1.4573 -0.16112,0.0928 -0.52878,0.3246 -0.81703,0.51506 -0.28825,0.19046 -0.81436,0.51515 -1.16912,0.72153 -0.35476,0.20638 -0.75432,0.45052 -0.88791,0.54253 -0.13359,0.092 -0.50125,0.25724 -0.81703,0.36718 -0.31577,0.10994 -1.05588,0.41666 -1.64468,0.68159 -0.5888,0.26493 -1.30477,0.52339 -1.59105,0.57436 -0.63643,0.1133 -4.60452,0.20911 -5.16701,0.12476 -0.90846,-0.13623 -1.02865,-0.72837 -0.51205,-2.52276 0.28504,-0.99012 0.72262,-2.00399 1.28853,-2.98556 0.3294,-0.57134 1.01722,-1.59122 1.21803,-1.80606 0.0884,-0.0946 0.41169,-0.47409 0.71836,-0.8433 1.37182,-1.65157 2.73283,-3.20036 3.7557,-4.27386 0.89512,-0.93943 1.05903,-1.16369 1.05903,-1.44895 0,-0.45099 -2.29569,-2.99246 -3.34946,-3.70806 -0.29904,-0.20308 -0.9031,-0.7029 -1.34236,-1.11072 -0.43926,-0.40783 -1.02829,-0.95436 -1.30896,-1.21452 -1.02206,-0.94736 -1.79644,-1.95874 -2.34825,-3.0669 -0.59404,-1.19299 -0.76493,-1.74638 -0.76593,-2.48028 -10e-4,-0.74282 0.19364,-1.0269 0.83044,-1.21202 0.56481,-0.1642 1.47071,-0.12657 2.26432,0.094 0.26016,0.0723 0.82133,0.21045 1.24704,0.30697 0.42572,0.0965 1.12234,0.32282 1.54805,0.5029 0.42572,0.18008 1.21909,0.47252 1.76306,0.64986 0.54397,0.17734 1.28695,0.4342 1.65106,0.57081 0.36412,0.1366 0.86724,0.28904 1.11804,0.33874 0.2508,0.0497 0.85801,0.18957 1.34934,0.31081 1.12069,0.27653 2.18704,0.25854 2.93379,-0.0495 1.72186,-0.71029 1.59268,-0.57434 4.42019,-4.65171 0.8157,-1.17627 1.53023,-2.14429 3.28837,-4.45492 0.59078,-0.77643 1.51847,-1.57714 2.50544,-2.1625 0.85713,-0.50835 1.11864,-0.58548 1.47905,-0.43619 0.58982,0.24431 1.5068,2.06501 1.6544,3.28486 0.0441,0.36462 0.0674,2.98382 0.0519,5.84819 -0.0277,5.11942 -0.0306,5.19484 -0.22047,5.7226 -0.10584,0.29414 -0.19244,0.62748 -0.19244,0.74076 0,0.23357 0.64967,0.88982 1.12602,1.13743 0.6076,0.31583 2.12807,0.92687 2.88983,1.16136 0.4349,0.13387 0.9005,0.30017 1.03466,0.36954 0.13415,0.0694 0.5717,0.22207 0.97231,0.33932 0.8674,0.25387 1.47546,0.49086 2.23277,0.87021 0.30783,0.1542 0.82209,0.36747 1.14278,0.47393 1.0203,0.33871 2.76862,1.65422 3.25201,2.44696 0.21098,0.34599 0.20843,0.74734 -0.006,1.02055 -0.16848,0.21419 -1.21897,0.91103 -1.63554,1.08493 -0.92964,0.38808 -1.57619,0.60017 -1.97877,0.64907 -0.25977,0.0316 -0.91738,0.18917 -1.46134,0.35023 -0.54397,0.16107 -1.27929,0.34901 -1.63406,0.41765 -0.35476,0.0686 -1.0067,0.22244 -1.44875,0.34178 -0.44206,0.11934 -1.00322,0.24364 -1.24704,0.27622 -0.50496,0.0675 -1.76782,0.57514 -2.18495,0.87834 -0.51146,0.37177 -0.56238,0.57753 -0.51472,2.07978 0.0283,0.89234 0.10207,1.61249 0.22092,2.1567 0.0981,0.44936 0.23944,1.43625 0.31401,2.19307 0.0746,0.75683 0.21984,1.84046 0.32281,2.40808 0.14177,0.78141 0.1871,1.36619 0.18668,2.40808 -5.2e-4,1.28196 -0.0197,1.44661 -0.27977,2.40808 -0.471,1.74096 -1.0367,2.4279 -1.77639,2.15712 z m -1.27569,-6.12309 c 0.13468,-0.20556 0.13882,-0.34764 0.0482,-1.65556 -0.0688,-0.99418 -0.16361,-1.66687 -0.31057,-2.20473 -0.28776,-1.05318 -0.58173,-3.17501 -0.57929,-4.18123 0.003,-1.05974 0.103,-1.46822 0.62602,-2.54632 0.36166,-0.74548 0.51367,-0.95794 0.99838,-1.39541 0.46587,-0.42046 0.73172,-0.57844 1.43536,-0.85295 0.98952,-0.38603 1.10501,-0.41652 2.00694,-0.52986 0.36449,-0.0458 0.97232,-0.17887 1.35074,-0.2957 0.37841,-0.11683 1.05028,-0.27051 1.49305,-0.3415 0.87879,-0.14091 1.04403,-0.22456 1.04403,-0.52855 0,-0.26469 -0.20736,-0.4425 -0.96452,-0.82706 -0.57815,-0.29364 -0.91862,-0.4416 -2.08858,-0.90762 -0.60008,-0.23903 -2.06826,-0.69649 -2.56376,-0.79883 -0.45706,-0.0944 -1.30894,-0.50039 -2.2954,-1.09394 -0.97099,-0.58425 -1.08239,-0.67525 -1.51541,-1.238 -0.49665,-0.64543 -0.55343,-0.99949 -0.28748,-1.79259 0.26303,-0.78443 0.41401,-3.18297 0.43348,-6.88658 0.0165,-3.13222 -0.007,-3.34775 -0.36502,-3.34775 -0.24827,0 -0.61618,0.41326 -1.54249,1.73261 -0.4356,0.62043 -1.09835,1.48096 -1.47279,1.91229 -0.65846,0.75852 -1.16912,1.47341 -1.71625,2.40263 -0.43297,0.73533 -1.31219,1.80604 -2.01423,2.45293 -0.80554,0.74225 -0.99782,0.79563 -2.88738,0.80154 -1.86678,0.006 -3.02025,-0.13022 -3.6974,-0.43614 -0.2995,-0.1353 -0.77674,-0.29193 -1.06055,-0.34805 -0.28381,-0.0561 -0.86433,-0.21292 -1.29004,-0.34846 -0.42572,-0.13553 -1.2733,-0.31284 -1.88352,-0.39402 -1.05527,-0.14039 -1.11488,-0.14024 -1.21966,0.003 -0.0683,0.0934 -0.0848,0.22098 -0.0433,0.33577 0.078,0.21596 0.91428,0.94475 2.07141,1.80526 1.63847,1.21846 4.05535,3.5435 4.53896,4.36646 0.30398,0.51728 0.44789,1.16501 0.4487,2.01948 0.001,1.1887 -0.55964,2.13988 -2.27857,3.86485 -0.66222,0.66455 -1.41665,1.3809 -1.67652,1.59189 -0.8641,0.70159 -2.93961,2.78257 -3.43005,3.43908 -0.54089,0.72407 -0.87718,1.55314 -0.72584,1.7895 0.0727,0.11347 0.22336,0.14183 0.72598,0.13662 0.55517,-0.006 0.71062,-0.046 1.24633,-0.32251 0.33662,-0.17376 0.64268,-0.31593 0.68013,-0.31593 0.13626,0 1.64107,-0.72157 1.97593,-0.94748 0.18921,-0.12764 0.98258,-0.57235 1.76306,-0.98825 0.78047,-0.41589 1.53515,-0.84153 1.67705,-0.94586 0.14191,-0.10433 0.64502,-0.39557 1.11804,-0.64721 0.47301,-0.25164 1.00027,-0.54488 1.17169,-0.65166 0.17141,-0.10678 0.60974,-0.29421 0.97407,-0.41651 0.36432,-0.1223 0.81903,-0.30227 1.01048,-0.39994 0.48482,-0.24734 1.17299,-0.24612 1.52242,0.003 0.40166,0.28601 1.47202,1.96613 2.52419,3.96217 0.13713,0.26016 0.30067,0.53107 0.36341,0.60202 0.0627,0.071 0.36308,0.57407 0.66742,1.11804 0.84303,1.50679 1.08392,1.87989 1.66586,2.58008 0.95383,1.14766 1.74691,1.85431 2.11737,1.88661 0.0344,0.003 0.12881,-0.0957 0.20984,-0.21939 z m -4.41078,-8.60966 c -0.36872,-0.39786 -1.35669,-1.96248 -2.35479,-3.72922 -0.35633,-0.63074 -0.59198,-0.80709 -1.05384,-0.78867 -0.38021,0.0152 -0.29022,-0.0271 -2.60128,1.22224 -0.61391,0.33187 -1.60412,0.94474 -1.80606,1.11781 -0.35582,0.30494 -0.98701,0.60601 -1.27053,0.60601 -0.36993,0 -0.57853,-0.2207 -0.57853,-0.61206 0,-0.49476 1.26869,-1.94452 2.94311,-3.36316 0.59668,-0.50553 0.84101,-0.98339 0.84101,-1.64488 0,-0.58551 -0.13511,-0.94184 -0.52676,-1.38917 -0.32053,-0.3661 -1.53835,-1.39227 -2.16672,-1.82575 -0.54362,-0.375 -0.53077,-0.74172 0.0284,-0.8108 0.40153,-0.0496 1.67451,0.11379 2.57692,0.33078 1.16786,0.28081 1.70443,0.25157 2.24814,-0.12252 0.77995,-0.53662 1.76264,-1.68863 2.58708,-3.03285 0.56086,-0.91446 0.68524,-1.03203 1.0918,-1.03203 0.42001,0 0.6514,0.25392 0.73413,0.80562 0.0746,0.49725 -0.0808,1.71215 -0.29981,2.34491 -0.20779,0.60024 -0.3452,1.89952 -0.24755,2.34066 0.0929,0.4198 0.64135,0.90656 1.17191,1.04016 0.52859,0.1331 1.75635,0.71334 2.23167,1.05469 0.31287,0.22469 0.37509,0.31655 0.37509,0.5538 0,0.23865 -0.0692,0.33913 -0.4299,0.62425 -0.27952,0.22095 -0.59029,0.37571 -0.8884,0.44243 -0.58162,0.13016 -1.69752,0.75324 -1.84655,1.03104 -0.11862,0.22113 -0.11285,0.50719 0.0672,3.32894 0.0974,1.52606 0.0547,1.742 -0.34442,1.742 -0.17717,0 -0.33577,-0.0772 -0.48132,-0.23423 z"
       id="path1-7"
       sodipodi:nodetypes="csssssssssssssssssssssssssssssssssssssssssssssscsssssssssssscccccscssssssssssssssssssscssssscsscsssscssssssssscscsssccssssssssssssssssssssssssssss" /></g></svg>
