<svg xmlns="http://www.w3.org/2000/svg" xml:space="preserve" viewBox="0 0 79.374998 30.691666">
  <path d="M54.524734-113.91015c-1.04195-.16005-3.04622-.87176-3.88306-1.37887-1.10265-.66817-1.82402-1.55989-2.35894-2.91602-.40114-1.01697-.53928-1.80077-.53874-3.05684.00052-1.21898.1406-2.0732.51883-3.16395.38654-1.11468.50121-1.33633 1.13042-2.18494.74193-1.00064 1.90669-1.90447 2.97295-2.30694.28847-.10888.73734-.28761.9975-.39717.4378-.18437.59469-.19935 2.10707-.20124l1.63405-.002.97296.40388c1.08556.45062 2.12289 1.14292 2.76517 1.84544 1.44394 1.57936 2.06704 4.75888 1.45529 7.42599-.30787 1.34225-.89882 2.66348-1.53118 3.42333-.79485.9551-2.50254 1.93986-4.07971 2.35259-.94118.24629-1.37503.27775-2.16261.15677zm1.99181-1.59726c.70055-.56365 1.36816-1.76387 1.57435-2.83038.179-.92587.29903-4.5224.19761-5.92115-.10692-1.4746-.18522-1.73572-.78558-2.61978-.88485-1.30301-2.16789-1.87159-3.12339-1.38412-.41681.21263-1.14089.9413-1.35919 1.36778-.27137.53016-.68287 1.66547-.76406 2.10803-.24132 1.31537-.15879 5.8088.12519 6.81586.34825 1.23495 1.18912 2.44526 1.85205 2.66574.16016.0533.66506.0894 1.12198.0803.78837-.0157.84764-.0301 1.16104-.28228zm-19.62238 1.46022c-1.28501-.22993-3.38158-.85606-4.30014-1.2842-.77789-.36257-1.19426-.63251-2.07693-1.34648-.78649-.63618-1.18393-1.11569-1.77765-2.1447-.59457-1.03051-.88502-1.71375-1.04626-2.46125-.0688-.31904-.22213-.81229-.34069-1.0961-.20297-.48585-.21558-.6065-.21572-2.06406-.00014-1.37644.0194-1.59096.17582-1.93507.0968-.21285.2873-.79337.42337-1.29004.26679-.97379.58325-1.7398 1.23297-2.98445 1.22603-2.34866 4.10334-4.18466 7.66722-4.89242 1.66865-.33138 2.77812-.37763 3.88406-.16191.37075.0723 1.08045.1869 1.57712.25462 1.0929.14902 2.64937.68735 3.02339 1.04568.35346.33864.37717.54056.15787 1.34447-.27422 1.00527-.34536 1.17499-.53498 1.27648-.273.1461-.50024.024-1.22724-.65922-1.09367-1.02785-1.97321-1.36588-3.82712-1.47084-1.02499-.058-2.46383.11857-3.17848.39011-1.00766.38288-1.77413.99749-2.55518 2.04894-.45955.61866-1.31765 2.25139-1.3196 2.51087-.00057.0751-.11743.6204-.25971 1.21167-.31732 1.31876-.39371 2.56055-.26716 4.34314.0762 1.07275.14753 1.48042.42374 2.42031.60646 2.06368 1.54565 3.28589 3.3577 4.36952.93595.55971 1.01414.58944 1.97806.75209 1.60731.27121 3.42286.0671 4.76037-.53512.41724-.18787.77716-.34158.79983-.34158.0409 0 .77505-.4769 1.1363-.73817.11866-.0858.25848-.11435.37661-.0769.1723.0547.1838.0999.13853.54483-.0969.95282-.36293 1.50434-.89401 1.85375-.4131.27179-1.97489.74166-3.42652 1.03088-1.2966.25833-2.72211.28972-3.86557.0851zm83.663626-.0685c-.8304-.30858-1.72535-.88442-2.35844-1.51751-.49361-.49362-.60469-.66233-.75375-1.14493-.38101-1.23359-.39966-1.63172-.34694-7.40784.0391-4.2804.0459-4.34154.50912-4.57586.31768-.16069 2.68229-.1518 2.99762.0113.48311.24982.4787.20175.48594 5.29562.007 5.0855.0186 5.22581.48023 5.94582.51632.80525 1.35173 1.1163 2.51386.93599.741-.11497 1.19586-.36545 1.71774-.94591.72953-.81141.70545-.60589.70569-6.02191.00022-5.12758-.004-5.0812.44105-5.25028.11846-.045.7953-.0819 1.50409-.0819 1.30447 0 1.71362.0817 1.81554.36233.0221.0609.0158 2.00705-.014 4.32482-.0298 2.31778-.0214 5.29569.0187 6.61758.0788 2.59489.067 2.69071-.35602 2.88506-.13151.0604-.81158.12395-1.61607.15095l-1.38901.0466-.22354-.22354c-.15103-.15102-.22354-.31625-.22354-.50932 0-.36696-.21184-.66807-.47001-.66807-.11867 0-.48311.22309-.88182.53978-1.66335 1.3212-3.19822 1.73594-4.55645 1.23123zm43.25821.0407c-1.50828-.40911-2.30876-1.32229-2.65682-3.03085-.13119-.64402-.13827-1.08301-.0704-4.37104.0415-2.01031.0663-4.03472.0551-4.49868-.0311-1.29169-.31054-1.69352-1.17763-1.69352-.3805 0-.64712-.15883-.64712-.38551 0-.18828.46713-.52448.89532-.64436.67494-.18898.79042-.40866.84572-1.60893.0637-1.38376.16311-1.68286.75181-2.26336.38755-.38214.69082-.56957 1.57859-.97558 1.74175-.79659 1.74755-.79018 1.82053 2.00762.029 1.11158.0703 2.10743.0917 2.213.0516.25374.39386.41771 1.02554.49123.94787.11033 1.56046.56896 1.33147.99683-.16267.30394-.39802.3594-1.2532.29528-1.23803-.0928-1.41619.10578-1.58006 1.76129-.12277 1.24035-.11942 6.3975.005 7.29014.1252.90016.55116 2.16029.82882 2.45193.3074.32287.91596.51261 1.42175.44329.54593-.0748.83753.10876.83753.5273 0 .249-.0528.33265-.32251.51041-.38812.25584-1.62799.55754-2.51558.61211-.4728.0291-.81064-.005-1.26532-.1286zm20.27194-.0424c-.99747-.23724-2.29576-.74985-2.90009-1.14506-.6785-.4437-1.99341-1.97515-2.41896-2.81731-.18597-.36804-.49912-1.97491-.58319-2.99255-.0601-.7274.16666-3.1835.35129-3.80502.15992-.53833.50293-1.0799 1.2446-1.96508.67939-.81084 1.37817-1.48277 1.82844-1.75815.4925-.30121 1.77577-.78008 2.36843-.88381.29455-.0516 1.05098-.0802 1.68096-.0637l1.14541.03.81312.41852c1.0184.52418 2.19445 1.40065 2.60929 1.94462.17432.22859.45626.73707.62652 1.12996.32104.74084.38796 1.12883.49658 2.87935.0484.77945.0368.88941-.11345 1.07503-.14882.1839-.23238.20578-.75555.19779-.32352-.005-2.17278-.0193-4.10946-.0318l-3.52125-.0229-.16505.20383c-.13999.17289-.15656.2867-.10912.74975.12391 1.20937.41173 2.65364.61233 3.07258.24444.51049 1.20211 1.47256 1.73792 1.74589.55795.28463 1.55985.38857 2.66239.27621.81174-.0827 1.01234-.13758 1.60148-.43798.75941-.38721 1.12056-.43487 1.26402-.16682.0766.14317.0529.24762-.12537.5518-.32877.561-.79535.90749-1.78258 1.3238-1.65716.69881-2.97519.84399-4.45871.49113zm2.73984-8.90352c.20612-.0387.45768-.15359.55902-.25538.16356-.1643.183-.27404.17315-.97739-.0117-.83539-.079-1.17103-.44119-2.20144-.16968-.48268-.33406-.75478-.68493-1.13376-.84055-.90789-1.58566-1.08747-2.28778-.55136-.46433.35454-1.06452 1.30838-1.23524 1.96308-.13549.51962-.24943 2.33725-.16708 2.66536.0732.29178.40947.50916.90676.58622.46238.0716 2.63459.006 3.17729-.0953zm9.64456 8.90965c-.30746-.10946-.75253-.2972-.98904-.4172-.2365-.12-.64287-.27987-.90302-.35526-.95247-.27604-1.1247-.58673-.81562-1.47129.41505-1.18779.6265-1.25954 1.3866-.47046.91315.94795 2.53839 1.57549 3.46072 1.33624 1.83309-.4755 2.5539-2.17332 1.35746-3.19743-.32646-.27944-.56357-.40857-1.73405-.94435-2.71911-1.24467-3.52313-1.75978-4.0623-2.60259-.5754-.89944-.6586-1.21446-.66348-2.51211l-.004-1.16177.38701-.68058c.25056-.44063.64476-.94069 1.11804-1.41832.67789-.6841.79666-.76533 1.63405-1.11751.8841-.37183.92647-.3805 2.02107-.41368 1.22499-.0371 1.48484.0115 2.64393.49504.76514.31918 1.3552.86551 1.3552 1.25476 0 .29529-.32225 1.39408-.48252 1.64525-.1804.28274-.49579.24888-.73648-.0791-.11003-.14992-.45562-.53375-.76798-.85296-.45647-.46648-.65787-.6071-1.02615-.71646-.59305-.17612-1.73979-.17649-2.25562-.00073-.66505.22661-1.35347 1.11016-1.35347 1.73711 0 .32305.40797.95331.82552 1.27534.5575.42996 1.56045.98311 2.03675 1.12332 1.03803.30557 2.83795 1.16828 3.2718 1.5682.64902.59827 1.26217 2.12707 1.26217 3.14704 0 .52273-.34779 1.78837-.65738 2.3923-.4691.91508-1.06868 1.43121-2.26766 1.95205-1.66517.72334-2.94159.87657-4.04118.48511zm-130.763676-.603-.21646-.21646.002-5.55011c.00098-3.05256-.0242-5.9513-.0559-6.44165-.0684-1.05877.004-1.64425.23015-1.87082.15181-.15182.30034-.16581 1.75962-.16581 1.78281 0 2.1487.0767 2.23025.46735.0253.12137.0685.32688.096.4567.12739.60235.42025.59263 1.09963-.0365.36616-.33908.80371-.62179 1.43054-.9243l.90303-.43582 1.03203-.00022 1.03203-.00023.74264.35681c.84018.40367 1.31645.79537 1.70691 1.40386.31569.49195.63078.72381.89392.65777.10348-.026.39204-.29369.64123-.59493.58062-.70188 1.08311-1.07606 1.98906-1.48113 1.25833-.56264 2.53542-.558 3.9022.0142 1.2861.53841 1.95062 1.31742 2.3002 2.69654.16648.65677.1922 1.07175.25316 4.08514.0373 1.84475.0969 4.21212.13246 5.2608l.0646 1.9067-.2506.2506-.2506.2506-1.60625.058c-1.1319.0409-1.66971.0291-1.82114-.0399-.41613-.18961-.42837-.33654-.31247-3.75259.12404-3.6557.0861-6.51269-.0934-7.03036-.18271-.52697-.88247-1.18847-1.49768-1.4158-.73507-.27162-1.49999-.22328-2.07433.13109-.5144.31737-.93548.93333-1.08053 1.58063-.12514.55842-.15115 5.02839-.0472 8.11595l.066 1.96165-.25292.25292-.25292.25292h-3.46116l-.22015-.22015-.22014-.22014.0635-2.71511c.0941-4.02385.0815-6.60809-.0354-7.28214-.27794-1.60183-1.26943-2.22546-2.87869-1.81065-.93679.24147-1.25906.57181-1.65634 1.69783-.35502 1.00625-.48717 4.62138-.30391 8.31429.0364.73317.0376 1.46426.003 1.62465-.12052.55464-.15775.56545-2.05446.59634l-1.71464.0279zm26.7433.14474c-.54282-.0473-.71485-.10296-.88608-.28676-.15304-.16426-.15953-.45447-.15289-6.83422l.007-6.66268.2383-.23847.2383-.23846 1.42096-.029c1.6085-.0328 1.75566.01 1.98832.57317.31442.7616.5662.78746 1.37034.14076 1.08803-.875 2.28028-1.34227 3.424826-1.34227.71928 0 .81121.0211 1.40626.32315.97401.49438 1.67144 1.06219 1.98321 1.61461.14746.26128.3436.51546.43587.56484.24418.13068.5513-.0155.83785-.39876.50023-.66907 1.01187-1.07153 1.9653-1.54593 1.0632-.52903 1.57799-.6358 2.60949-.54126.64198.0588 1.90112.48641 2.39613.81366.41829.27652.74348.73539 1.08569 1.53196.50964 1.18634.57287 2.01904.57287 7.54427v4.69623l-.19904.187c-.18769.17632-.27729.18672-1.56956.18214-1.49568-.005-1.85967-.0796-2.12175-.43325-.15788-.21303-.16116-.30158-.0726-1.96128.051-.956.0928-3.07221.0928-4.70271 0-2.73865-.013-3.00161-.17107-3.45125-.35814-1.01896-.82282-1.45554-1.83004-1.71937-.57389-.15032-.59251-.14976-1.32686.0401-.40964.1059-.83651.25263-.94859.32607-.27842.18243-.50847.57781-.72276 1.24222-.24873.77118-.28833 2.7636-.1359 6.83722.0655 1.75016.0899 3.26314.0543 3.36218-.11672.32448-.49889.39937-2.0973.41101-1.45489.0106-1.50749.005-1.69824-.18504l-.19684-.19598v-9.84238l-.27958-.6935c-.15377-.38142-.385976-.79539-.516016-.91992-.37718-.36119-1.01464-.60085-1.61319-.60648-.44732-.004-.61257.0412-1.07584.29537-.759.41649-1.05319.86016-1.2383 1.86742-.31426 1.71001-.39677 4.92973-.17999 7.02334.0686.66222.12582 1.57616.12722 2.03097.002.70872-.0229.85932-.1757 1.05353l-.17825.22661-1.2623-.0145c-.69427-.008-1.41711-.0279-1.60631-.0444zm42.409006-.0251c-.64455-.0852-.77049-.29251-.70539-1.16123.11172-1.49096.15526-9.6591.0598-11.22919-.12605-2.07432-.28935-1.90744 1.8839-1.92522 1.01659-.008 1.71968.0215 1.83226.0776.10048.0501.2684.22597.37315.39084.47335.74497.64589.76594 1.41174.17157.30417-.23606.9207-.59405 1.37006-.79553l.81703-.36633h2.40807l.75278.36167c.82888.39824 1.47385.96485 1.77888 1.56276.10024.19649.28339.86945.40701 1.49548.20999 1.06341.22885 1.36159.2869 4.53535.0342 1.86841.1117 3.9994.17227 4.73553.17097 2.07785.10242 2.14435-2.2105 2.14456-1.44017.00013-1.48505-.005-1.72006-.20781-.2798-.24112-.28683-.38994-.12025-2.54414.22675-2.93237.28261-4.2594.23891-5.67619-.0498-1.61408-.16993-2.26089-.53779-2.89511-.25956-.4475-.59273-.65586-1.41153-.88276-.85592-.23719-1.31299-.22673-1.89313.0433-1.04254.48527-1.30074.83889-1.65273 2.26351-.2095.84794-.25415 1.23731-.29693 2.58909-.0288.90913-.008 2.16239.048 2.92409.31528 4.27202.31948 4.08792-.0983 4.31149-.21092.11289-2.50396.16793-3.19426.0767zm17.34705.002c-.10333-.0443-.22854-.15651-.27824-.24937-.0922-.17218-.0499-12.11537.0463-13.06659.0306-.30332.11266-.532.24674-.68803.19453-.22638.23297-.23459 1.22719-.2621 1.52695-.0423 1.98846.13743 2.13537.83137.0367.17329.0575 2.19208.0462 4.4862-.0116 2.35165.0235 5.01523.0804 6.1062.0555 1.06429.0969 2.03182.092 2.15007-.0131.31387-.36264.57634-.84399.63375-.83716.0998-2.56955.13667-2.75193.0585zm19.55211-.004c-.77287-.0393-.8616-.0617-1.02093-.258-.15971-.19681-.16936-.28782-.11392-1.07504.0333-.47301.076-3.44913.0949-6.61359.0382-6.38943.007-6.06955.61699-6.23908.17783-.0494.84974-.09 1.49314-.0903 1.0763-.00044 1.19318.0152 1.46205.19604.46342.31164.53988.75535.40334 2.34056-.17328 2.01184-.14505 8.36346.0438 9.86049.16044 1.27162.12977 1.51857-.21561 1.7363-.22894.14432-1.46977.20834-2.76383.14259zm-18.54983-18.10395c-.44148-.13918-1.05872-.62958-1.24443-.98871-.22671-.4384-.33217-1.37055-.21753-1.92274.13167-.63428.44145-.99062 1.12963-1.29946.73639-.33047 1.21835-.31905 1.93737.0459.60427.30671.91538.61626 1.16109 1.15527.22046.48362.19845.86591-.0842 1.46205-.33583.70832-.6392 1.04124-1.21255 1.33066-.62701.31652-.98574.3695-1.46939.21702zm18.68913-.0898c-.51447-.25637-.78943-.58812-1.15276-1.39086-.35599-.78653-.36212-1.25398-.0236-1.80215.20834-.33739.37607-.47685.89786-.74653.60155-.3109.67808-.32908 1.2246-.29082.73877.0517 1.42645.44704 1.85506 1.06639.26745.38647.28564.45587.25556.9751-.0283.4888-.078.62604-.39593 1.09253-.40065.58797-.7302.87385-1.31105 1.13733-.511.23179-.82121.22237-1.34971-.041zM39.828783-141.44435c-.684166-.0795-2.23052-.37973-2.752089-.53436-2.674493-.79293-5.449407-2.35753-6.665216-3.7581-1.45131-1.67185-2.296997-3.29861-2.924822-5.62618-.588935-2.18338-.644502-5.70566-.122566-7.76918.325062-1.28516.974261-2.90402 1.48173-3.69488.157869-.24603.396729-.62148.5308-.83433.949697-1.50778 2.390162-2.89188 4.17396-4.01066 1.502384-.94227 2.132587-1.25991 3.012231-1.51821 2.737074-.80372 3.55332-.92144 6.386531-.92107 2.184637.00029 3.04102.0903 4.110224.43183.292532.0935.565426.16992.606431.16992.222894 0 2.469083.90428 2.851315 1.14789.246858.15733.700391.43384 1.007851.61446 1.154592.67826 2.163667 1.5756 3.292542 2.92797.980919 1.17512 1.984062 3.21552 2.466196 5.01626.47926 1.79001.551334 2.41822.494701 4.31187-.04139 1.38396-.08124 1.72538-.306195 2.62309-.142236.56761-.362014 1.32229-.488396 1.67705-.30033.84305-1.237478 2.61922-1.828713 3.46595-1.093225 1.56566-2.795113 3.15981-4.189153 3.92398-.283809.15557-.803963.44083-1.155896.6339-.570378.3129-1.257984.59911-2.628227 1.09395-.487012.17588-2.301951.49259-3.39711.5928-.773414.0708-3.447505.0951-3.956129.0361zm4.472146-2.80596c.739416-.24184 1.891492-.82398 2.390325-1.20782.91903-.70718 1.940736-1.97628 2.757759-3.42551.429471-.7618.878316-2.24374 1.076536-3.55438.07154-.47302.193994-1.20834.272124-1.63405.178201-.97098.136092-4.16168-.06923-5.24617-.07165-.37842-.175906-1.01161-.231692-1.40711-.204062-1.4467-1.503479-3.84453-2.553803-4.71255-1.846602-1.5261-3.01057-1.99004-5.190073-2.06868-1.053786-.038-1.393661-.0162-2.193072.1406-1.771303.34749-3.537083 1.47532-4.495097 2.87108-1.161579 1.69233-2.136249 4.54817-2.353783 6.89671-.137455 1.48399-.0415 4.74978.170564 5.80519.538431 2.67966 1.393781 4.55238 2.623306 5.7435.842148.81585 2.30332 1.60791 3.358747 1.8207.241045.0486.515666.10603.610269.12764.407639.0931 3.448854-.0254 3.827125-.14915zm67.942201 2.81384c-.16556-.019-.72673-.0767-1.24704-.12818-1.10294-.10919-2.98212-.46959-3.30351-.63358-.12243-.0625-.55934-.2157-.9709-.3405-.41156-.12481-1.08883-.42548-1.50505-.66815-.41621-.24267-.97199-.56474-1.23505-.71571-.95956-.55068-2.4938-1.94799-3.07028-2.79625-.31565-.46446-.966566-1.54805-.966566-1.60904 0-.0239-.114314-.28294-.254031-.57569-.936153-1.96154-1.380022-4.10952-1.380022-6.67826 0-1.2952.276429-3.3999.558512-4.25243 1.03753-3.13571 2.615417-5.33822 5.246677-7.3236 1.08292-.8171 2.72442-1.69794 3.78412-2.03057 2.42186-.7602 3.48467-.92316 6.02055-.92316 2.16259 0 2.88262.085 4.79852.56624 1.80718.45396 2.73866.88218 4.57543 2.10337 1.85011 1.23007 3.30916 2.92507 4.25252 4.94021.81946 1.75046 1.05354 2.55 1.33489 4.55957.28913 2.06507.26461 2.62219-.22524 5.11717-.31602 1.6096-1.17013 3.58758-2.22996 5.16423-.72133 1.07308-1.88991 2.27736-3.10979 3.20479-.87234.6632-2.52708 1.54207-3.61526 1.92014-.48362.16803-.91801.33718-.96531.3759-.12971.10617-1.44272.42046-2.36507.56611-.78814.12447-3.5105.22826-4.12814.15739zm3.39711-2.81088c.74285-.21827 1.46614-.54655 1.98923-.90287 1.04305-.7105 2.43696-2.3153 2.91017-3.35048.12502-.27346.3005-.63427.38997-.8018.25216-.47215.83294-2.35309 1.02204-3.31002.26084-1.31993.37687-2.60136.38524-4.25464.007-1.34345-.0183-1.6251-.23367-2.62309-.4776-2.21308-1.36017-4.35466-2.184-5.29953-.97692-1.12044-2.35212-2.06172-3.43683-2.3524-.91484-.24515-2.36897-.41055-3.16423-.35991-2.78949.17763-4.68455 1.17978-5.97133 3.15778-.97239 1.49474-1.8342 3.62188-2.07024 5.10986-.34926 2.20165-.472 3.96877-.3526 5.07637.23165 2.14872.44011 3.40572.69113 4.16743.14509.44028.2638.83844.2638.88479 0 .13848 1.02272 1.88057 1.3761 2.34402 1.10511 1.44937 2.50787 2.31358 4.25708 2.62271.67108.1186 3.61923.0413 4.12814-.10822zm-50.311629 2.26596c-2.561247-.0535-2.641085-.067-2.933416-.49832-.144687-.21344-.159988-.38185-.138313-1.52223.0134-.70522.08207-1.84691.152579-2.53708.226513-2.21705.315738-6.01097.265146-11.27417-.04321-4.49465-.06845-5.18708-.236733-6.49322-.121145-.94027-.191403-1.97118-.196867-2.88867-.01355-2.27569-.194298-2.16746 3.732625-2.23516 1.584601-.0273 4.235637-.0408 5.891191-.0299 2.599012.0171 3.128035.0431 3.873674.19021 1.458462.2878 2.81332.97784 3.543328 1.80464.651507.73789 1.21297 1.69653 1.497502 2.55683.262873.79482.284045.94155.279212 1.93507-.0077 1.58918-.291277 2.61198-1.109777 4.00317-.454514.77253-1.372878 1.75957-1.851677 1.99014-.116637.0562-.695832.33279-1.287102.61472-.593303.28289-1.185533.62934-1.321625.77313-.239697.25326-.243726.27248-.144147.68757.05634.23487.258143.69243.448443 1.01681.190301.32437.461868.82198.603484 1.10579.141615.28381.81767 1.36744 1.502344 2.40808.684674 1.04063 1.900665 2.89174 2.702201 4.11358.801537 1.22183 1.633377 2.43762 1.848533 2.70175.68384.83948.789308 1.2654.369044 1.49031-.24371.13043-5.704458.12175-6.193162-.01-.581949-.15671-1.025442-.65643-1.620451-1.82593-.294292-.57843-.588345-1.11207-.653452-1.18586-.06511-.0738-.425794-.69301-.801527-1.37605-.375733-.68303-.85994-1.55149-1.076016-1.9299-.907116-1.58863-1.494685-2.59856-1.676198-2.88109-.776307-1.20836-1.29374-2.08389-1.39175-2.35493-.06325-.17491-.185271-.38161-.271163-.45934-.135502-.12263-.1722-.12502-.277346-.0181-.155229.15788-.299418 4.23497-.208142 5.88544.18778 3.39549.244874 5.4271.159764 5.68499-.123603.37452-.329126.5363-.730364.5749-.18797.0181-1.425399.0102-2.749842-.0174zm6.149199-14.64533c.260159-.0926.705223-.24917.989032-.34783.673787-.23425.940145-.43651 1.330908-1.01065.511214-.75112.687832-1.16032.88447-2.04923.320443-1.44856.230882-4.22102-.161974-5.0141-.158308-.31959-.936598-1.15342-1.262977-1.35311-.721231-.44127-2.269281-.78361-3.550687-.78521-.757482-.00094-.817553.0897-.92723 1.3989-.04845.57834-.08641 2.81964-.08435 4.98067.0033 3.48511.0196 3.95334.144115 4.14337.07721.11783.228406.22928.336.24765.45628.0779 1.850748-.0495 2.302693-.21046zm18.146589 14.64685c-1.471935-.0348-2.252822-.0861-2.374782-.15603-.387915-.22248-.390024-.2659-.302208-6.22279.08286-5.62038.06319-13.78575-.04339-18.01367-.05004-1.98511-.04034-2.26904.08583-2.51303.250031-.48351.304178-.49276 3.058851-.52262 2.815035-.0305 2.968538-.006 3.371543.53061.203007.27049.203256.27393.184373 2.54993-.0104 1.25349-.06245 2.64674-.115674 3.0961-.124214 1.04879-.05964 16.24466.07946 18.70096.09381 1.65646.09112 1.72786-.07832 2.07788-.09651.19936-.241421.38843-.322026.42016-.236971.0933-1.208968.10766-3.543663.0525zm44.420441-.0434c-.55588-.24537-.60291-.378-.59354-1.67384.008-1.1146.14013-3.64713.4289-8.22486.26846-4.25565.3715-10.84108.20589-13.15843-.0473-.66222-.0953-1.77139-.10665-2.46483-.0201-1.2295-.0154-1.26632.18801-1.48368.28487-.30435.66992-.39359 1.70071-.39415 1.07016-.00059 1.61144.10768 2.10578.42118.35171.22304 2.03513 1.98243 4.52658 4.73083.5827.64279 1.37944 1.51703 1.77053 1.94274.3911.42571 1.24338 1.37389 1.89396 2.10707.65058.73317 1.4386 1.60395 1.75116 1.93506.31256.33111 1.20604 1.29864 1.98552 2.15007 1.58461 1.73088 2.38147 2.57989 3.69291 3.93463.9787 1.011 1.22302 1.13019 1.4104.68802.11439-.26993.12438-5.76394.0234-12.85961-.045-3.1599-.035-4.34353.0383-4.52026.19068-.46035.52345-.56747 1.77213-.5705 1.23766-.003 1.50807.0835 1.6862.5393.0904.23128-.00092 2.47066-.19179 4.70416-.32998 3.86105-.42454 7.11543-.43111 14.83548-.004 4.47064-.0338 6.34244-.10588 6.61416-.16925.63767-.39341.73908-1.63367.73908-1.00161 0-1.06564-.0109-1.47701-.25125-.50188-.29324-1.99578-1.77023-2.79043-2.75885-.53608-.66694-1.5369-1.8376-1.80703-2.11368-.11105-.1135-.98083-1.06351-1.79739-1.96319-.11145-.1228-.92726-1.01665-1.81291-1.98633-.88564-.96968-1.87583-2.07266-2.20041-2.45108-.32458-.37841-1.31206-1.44269-2.19439-2.36507-.88233-.92238-1.97932-2.09933-2.43776-2.61543-.74327-.83678-1.50312-1.53342-2.09697-1.92252-.18421-.1207-.21578-.11955-.34794.0127-.13457.13465-.14535.80044-.14535 8.98281 0 8.41496-.008 8.84885-.15719 9.07732-.0865.13197-.2884.29477-.44875.36177-.38219.15969-2.04323.16052-2.40415.001z" style="fill:#584987;fill-opacity:1" transform="translate(-10.404931 78.85919) scale(.43426624)"/>
  <path d="M190.41309-135.3746c-1.37805-.50445-2.47432-1.47431-4.38249-3.87718-3.1473-3.96322-4.22286-5.47145-5.03118-7.05505-.66147-1.29591-1.00782-1.72151-1.32097-1.62324-.35314.11083-1.50635.71045-2.80272 1.4573-.16112.0928-.52878.3246-.81703.51506-.28825.19046-.81436.51515-1.16912.72153-.35476.20638-.75432.45052-.88791.54253-.13359.092-.50125.25724-.81703.36718-.31577.10994-1.05588.41666-1.64468.68159-.5888.26493-1.30477.52339-1.59105.57436-.63643.1133-4.60452.20911-5.16701.12476-.90846-.13623-1.02865-.72837-.51205-2.52276.28504-.99012.72262-2.00399 1.28853-2.98556.3294-.57134 1.01722-1.59122 1.21803-1.80606.0884-.0946.41169-.47409.71836-.8433 1.37182-1.65157 2.73283-3.20036 3.7557-4.27386.89512-.93943 1.05903-1.16369 1.05903-1.44895 0-.45099-2.29569-2.99246-3.34946-3.70806-.29904-.20308-.9031-.7029-1.34236-1.11072-.43926-.40783-1.02829-.95436-1.30896-1.21452-1.02206-.94736-1.79644-1.95874-2.34825-3.0669-.59404-1.19299-.76493-1.74638-.76593-2.48028-.001-.74282.19364-1.0269.83044-1.21202.56481-.1642 1.47071-.12657 2.26432.094.26016.0723.82133.21045 1.24704.30697.42572.0965 1.12234.32282 1.54805.5029.42572.18008 1.21909.47252 1.76306.64986.54397.17734 1.28695.4342 1.65106.57081.36412.1366.86724.28904 1.11804.33874.2508.0497.85801.18957 1.34934.31081 1.12069.27653 2.18704.25854 2.93379-.0495 1.72186-.71029 1.59268-.57434 4.42019-4.65171.8157-1.17627 1.53023-2.14429 3.28837-4.45492.59078-.77643 1.51847-1.57714 2.50544-2.1625.85713-.50835 1.11864-.58548 1.47905-.43619.58982.24431 1.5068 2.06501 1.6544 3.28486.0441.36462.0674 2.98382.0519 5.84819-.0277 5.11942-.0306 5.19484-.22047 5.7226-.10584.29414-.19244.62748-.19244.74076 0 .23357.64967.88982 1.12602 1.13743.6076.31583 2.12807.92687 2.88983 1.16136.4349.13387.9005.30017 1.03466.36954.13415.0694.5717.22207.97231.33932.8674.25387 1.47546.49086 2.23277.87021.30783.1542.82209.36747 1.14278.47393 1.0203.33871 2.76862 1.65422 3.25201 2.44696.21098.34599.20843.74734-.006 1.02055-.16848.21419-1.21897.91103-1.63554 1.08493-.92964.38808-1.57619.60017-1.97877.64907-.25977.0316-.91738.18917-1.46134.35023-.54397.16107-1.27929.34901-1.63406.41765-.35476.0686-1.0067.22244-1.44875.34178-.44206.11934-1.00322.24364-1.24704.27622-.50496.0675-1.76782.57514-2.18495.87834-.51146.37177-.56238.57753-.51472 2.07978.0283.89234.10207 1.61249.22092 2.1567.0981.44936.23944 1.43625.31401 2.19307.0746.75683.21984 1.84046.32281 2.40808.14177.78141.1871 1.36619.18668 2.40808-.00052 1.28196-.0197 1.44661-.27977 2.40808-.471 1.74096-1.0367 2.4279-1.77639 2.15712zm-1.27569-6.12309c.13468-.20556.13882-.34764.0482-1.65556-.0688-.99418-.16361-1.66687-.31057-2.20473-.28776-1.05318-.58173-3.17501-.57929-4.18123.003-1.05974.103-1.46822.62602-2.54632.36166-.74548.51367-.95794.99838-1.39541.46587-.42046.73172-.57844 1.43536-.85295.98952-.38603 1.10501-.41652 2.00694-.52986.36449-.0458.97232-.17887 1.35074-.2957.37841-.11683 1.05028-.27051 1.49305-.3415.87879-.14091 1.04403-.22456 1.04403-.52855 0-.26469-.20736-.4425-.96452-.82706-.57815-.29364-.91862-.4416-2.08858-.90762-.60008-.23903-2.06826-.69649-2.56376-.79883-.45706-.0944-1.30894-.50039-2.2954-1.09394-.97099-.58425-1.08239-.67525-1.51541-1.238-.49665-.64543-.55343-.99949-.28748-1.79259.26303-.78443.41401-3.18297.43348-6.88658.0165-3.13222-.007-3.34775-.36502-3.34775-.24827 0-.61618.41326-1.54249 1.73261-.4356.62043-1.09835 1.48096-1.47279 1.91229-.65846.75852-1.16912 1.47341-1.71625 2.40263-.43297.73533-1.31219 1.80604-2.01423 2.45293-.80554.74225-.99782.79563-2.88738.80154-1.86678.006-3.02025-.13022-3.6974-.43614-.2995-.1353-.77674-.29193-1.06055-.34805-.28381-.0561-.86433-.21292-1.29004-.34846-.42572-.13553-1.2733-.31284-1.88352-.39402-1.05527-.14039-1.11488-.14024-1.21966.003-.0683.0934-.0848.22098-.0433.33577.078.21596.91428.94475 2.07141 1.80526 1.63847 1.21846 4.05535 3.5435 4.53896 4.36646.30398.51728.44789 1.16501.4487 2.01948.001 1.1887-.55964 2.13988-2.27857 3.86485-.66222.66455-1.41665 1.3809-1.67652 1.59189-.8641.70159-2.93961 2.78257-3.43005 3.43908-.54089.72407-.87718 1.55314-.72584 1.7895.0727.11347.22336.14183.72598.13662.55517-.006.71062-.046 1.24633-.32251.33662-.17376.64268-.31593.68013-.31593.13626 0 1.64107-.72157 1.97593-.94748.18921-.12764.98258-.57235 1.76306-.98825.78047-.41589 1.53515-.84153 1.67705-.94586.14191-.10433.64502-.39557 1.11804-.64721.47301-.25164 1.00027-.54488 1.17169-.65166.17141-.10678.60974-.29421.97407-.41651.36432-.1223.81903-.30227 1.01048-.39994.48482-.24734 1.17299-.24612 1.52242.003.40166.28601 1.47202 1.96613 2.52419 3.96217.13713.26016.30067.53107.36341.60202.0627.071.36308.57407.66742 1.11804.84303 1.50679 1.08392 1.87989 1.66586 2.58008.95383 1.14766 1.74691 1.85431 2.11737 1.88661.0344.003.12881-.0957.20984-.21939zm-4.41078-8.60966c-.36872-.39786-1.35669-1.96248-2.35479-3.72922-.35633-.63074-.59198-.80709-1.05384-.78867-.38021.0152-.29022-.0271-2.60128 1.22224-.61391.33187-1.60412.94474-1.80606 1.11781-.35582.30494-.98701.60601-1.27053.60601-.36993 0-.57853-.2207-.57853-.61206 0-.49476 1.26869-1.94452 2.94311-3.36316.59668-.50553.84101-.98339.84101-1.64488 0-.58551-.13511-.94184-.52676-1.38917-.32053-.3661-1.53835-1.39227-2.16672-1.82575-.54362-.375-.53077-.74172.0284-.8108.40153-.0496 1.67451.11379 2.57692.33078 1.16786.28081 1.70443.25157 2.24814-.12252.77995-.53662 1.76264-1.68863 2.58708-3.03285.56086-.91446.68524-1.03203 1.0918-1.03203.42001 0 .6514.25392.73413.80562.0746.49725-.0808 1.71215-.29981 2.34491-.20779.60024-.3452 1.89952-.24755 2.34066.0929.4198.64135.90656 1.17191 1.04016.52859.1331 1.75635.71334 2.23167 1.05469.31287.22469.37509.31655.37509.5538 0 .23865-.0692.33913-.4299.62425-.27952.22095-.59029.37571-.8884.44243-.58162.13016-1.69752.75324-1.84655 1.03104-.11862.22113-.11285.50719.0672 3.32894.0974 1.52606.0547 1.742-.34442 1.742-.17717 0-.33577-.0772-.48132-.23423z" style="fill:#fcaf29;fill-opacity:1" transform="translate(-10.404931 78.85919) scale(.43426624)"/>
</svg>
