<?xml version="1.0" encoding="UTF-8" standalone="no"?>
<!-- Created with Inkscape (http://www.inkscape.org/) -->

<svg
   width="500"
   height="500"
   viewBox="0 0 132.29166 132.29167"
   version="1.1"
   id="svg1"
   inkscape:version="1.4 (86a8ad7, 2024-10-11)"
   sodipodi:docname="pa-navigate.svg"
   xmlns:inkscape="http://www.inkscape.org/namespaces/inkscape"
   xmlns:sodipodi="http://sodipodi.sourceforge.net/DTD/sodipodi-0.dtd"
   xmlns="http://www.w3.org/2000/svg"
   xmlns:svg="http://www.w3.org/2000/svg">
  <sodipodi:namedview
     id="namedview1"
     pagecolor="#ffffff"
     bordercolor="#111111"
     borderopacity="1"
     inkscape:showpageshadow="0"
     inkscape:pageopacity="0"
     inkscape:pagecheckerboard="1"
     inkscape:deskcolor="#d1d1d1"
     inkscape:document-units="px"
     inkscape:zoom="0.78573232"
     inkscape:cx="250.08517"
     inkscape:cy="531.98779"
     inkscape:window-width="1920"
     inkscape:window-height="1115"
     inkscape:window-x="-9"
     inkscape:window-y="-9"
     inkscape:window-maximized="1"
     inkscape:current-layer="layer1" />
  <defs
     id="defs1" />
  <g
     inkscape:label="Layer 1"
     inkscape:groupmode="layer"
     id="layer1"
     transform="translate(9.7422174,10.131083)">
    <path
       style="fill:#3298da;fill-opacity:1;stroke-width:0.832214"
       d="m 23.070748,117.83313 c -0.178752,-0.39358 -0.64009,-1.70646 -1.025197,-2.91751 -0.385099,-1.21105 -0.781392,-2.40008 -0.880642,-2.64229 -0.09926,-0.2422 -0.343238,-0.98535 -0.542188,-1.65142 -0.198957,-0.66608 -0.442938,-1.40922 -0.542196,-1.65142 -0.09925,-0.24221 -0.493861,-1.43124 -0.876905,-2.64229 -0.383051,-1.21105 -0.779985,-2.40008 -0.882072,-2.64229 C 18.21946,103.44371 16.278219,97.597659 14.007671,90.694696 11.737115,83.791742 8.2233629,73.140042 6.199317,67.024254 4.175271,60.908474 0.01849163,48.324606 -3.0379667,39.060109 -6.094425,29.795611 -8.7341934,21.841986 -8.9041067,21.385391 -9.07402,20.928805 -9.2130498,20.458145 -9.2130498,20.339489 c 0,-0.138431 4.6942985,-0.215735 13.1013149,-0.215735 7.2057219,0 13.1013149,-0.04577 13.1013149,-0.101664 0,-0.05592 -0.445885,-1.055931 -0.990852,-2.222254 -0.544976,-1.166316 -0.99086,-2.149811 -0.99086,-2.185538 0,-0.0357 -0.499354,-1.141274 -1.109667,-2.456789 -0.61032,-1.315507 -1.199188,-2.590002 -1.308591,-2.83221 C 12.340121,9.7729664 11.376067,7.6230813 10.664215,6.0315874 9.6371457,3.7353489 9.2289109,2.8346179 8.6183903,1.5176881 6.8139823,-2.3745468 5.0993122,-6.2235815 5.0993122,-6.3818187 c 0,-0.075565 23.0936178,-0.137432 51.3191438,-0.137432 h 51.319134 l -0.15663,0.4935033 c -0.0862,0.2714268 -0.44764,1.1384282 -0.80333,1.9266603 -0.35568,0.7882405 -0.77806,1.7304241 -0.93863,2.0937357 -0.16055,0.3633117 -0.74705,1.63261387 -1.30331,2.82065866 -0.55626,1.18805304 -1.01138,2.19484974 -1.01138,2.23732604 0,0.042443 -0.35756,0.8539771 -0.79456,1.8033344 -1.3154,2.857592 -1.73275,3.774909 -3.389973,7.4510433 -0.87351,1.937669 -1.878622,4.16709 -2.233565,4.954273 -0.354943,0.787184 -0.790073,1.694239 -0.966953,2.015683 -0.17689,0.321451 -0.321606,0.643477 -0.321606,0.715621 0,0.07215 5.895587,0.131166 13.101307,0.131166 7.71422,0 13.10132,0.0823 13.10132,0.20018 0,0.23337 -1.09886,3.536289 -5.06128,15.213135 -1.58218,4.662525 -3.86867,11.449884 -5.08106,15.083018 -1.21241,3.633141 -2.29354,6.803879 -2.40251,7.046087 -0.10898,0.242208 -1.54939,4.502889 -3.20092,9.468182 -1.65153,4.965284 -3.09136,9.225965 -3.19962,9.468174 -0.10825,0.242207 -1.04036,2.967061 -2.07135,6.055228 C 97.47383,93.23043 89.457198,116.83789 89.021267,117.94323 l -0.238805,0.60552 H 56.089108 23.395753 Z"
       id="path51" />
    <path
       id="path111"
       style="fill:#011389;fill-opacity:1;stroke-width:0.832214"
       d="m 30.260259,-2.9945884 c -10.81602,0 -19.665301,0.083721 -19.665301,0.1862164 0,0.1025039 0.140378,0.4740711 0.312222,0.8257151 0.171836,0.351644 0.776266,1.67989199 1.34307,2.95149112 1.615054,3.62328808 1.854283,4.14795778 2.996223,6.56957758 0.590265,1.2517341 1.073424,2.3098536 1.073424,2.3511318 0,0.041275 0.333943,0.8007064 0.742285,1.6875564 0.408343,0.886858 0.95887,2.107716 1.223514,2.713236 0.264644,0.605528 0.668143,1.497296 0.896245,1.981712 0.228102,0.484415 0.656151,1.425733 0.951288,2.091804 0.295137,0.66608 0.830018,1.855107 1.188686,2.642282 0.35866,0.787184 0.765138,1.703727 0.903119,2.036763 l 0.25073,0.605519 H 9.1718879 c -7.3170812,0 -13.3493979,0.07432 -13.4049316,0.165144 -0.085777,0.140295 4.17141802,13.416392 4.71301503,14.697695 0.10237903,0.242207 0.2999968,0.844389 0.4395176,1.33791 l 0.25373387,0.897102 3.2245824,0.273524 c 3.7290125,0.316458 6.5404918,0.823968 10.7110438,1.932678 2.153173,0.572397 6.119217,1.763288 6.825901,2.049661 0.242207,0.09816 0.935808,0.346742 1.541328,0.552632 1.079698,0.367124 1.874422,0.677789 2.97257,1.161589 0.904352,0.398422 1.113204,0.320436 2.175668,-0.80937 1.196783,-1.272648 2.872955,-2.132359 4.568942,-2.344258 0.839438,-0.104884 1.251176,-0.263313 1.326734,-0.510048 0.565581,-1.847017 3.589758,-8.251608 5.455291,-11.553104 3.822247,-6.76435 10.581511,-16.58197 16.569736,-24.0673831 0.886126,-1.1076692 1.611002,-2.1506506 1.611002,-2.3175846 0,-0.1669339 -0.470659,-0.7413451 -1.045903,-1.2764176 -0.575251,-0.5350724 -2.427212,-2.2912535 -4.115235,-3.90277909 l -3.0689,-2.92999501 z m 55.630257,0 c -15.230511,0 -16.328818,0.025383 -16.695741,0.3853321 -0.616671,0.6050118 -6.194566,7.3194616 -6.194566,7.4567936 0,0.067659 0.857198,1.0807057 1.904732,2.2509244 3.001482,3.3530263 3.193815,3.5757433 4.590446,5.3211223 0.726349,0.907738 1.373729,1.700074 1.438975,1.760659 0.301336,0.27959 3.138839,4.295984 4.433474,6.275423 1.2704,1.942405 2.875185,4.759852 4.26361,7.486462 0.355997,0.69911 0.560256,0.872044 0.991284,0.837757 0.615873,-0.04894 2.418541,0.290318 3.405632,0.641213 1.730864,0.615306 3.492754,2.433097 4.059759,4.187912 0.146196,0.452459 0.351361,0.875532 0.455862,0.940112 0.104502,0.06458 0.865329,0.21283 1.690562,0.329424 2.3491,0.331904 5.551725,0.985601 7.555697,1.542627 2.1935,0.609705 6.055018,1.841141 6.935998,2.211785 0.24221,0.101904 1.21337,0.499362 2.15803,0.882913 0.94468,0.383551 2.18324,0.92851 2.75237,1.211047 0.56915,0.282546 1.18336,0.517496 1.36501,0.521658 0.2312,0.0058 0.61548,-0.866054 1.28115,-2.905903 0.52305,-1.602837 1.03778,-3.112242 1.14397,-3.354458 0.10618,-0.242208 0.54116,-1.530326 0.96633,-2.862477 0.42519,-1.332151 1.2195,-3.700992 1.76496,-5.264349 0.54546,-1.563357 0.93981,-2.925784 0.8769,-3.027614 -0.0629,-0.101829 -6.0979,-0.185359 -13.4114,-0.185359 H 90.326146 l 0.342756,-0.825707 c 0.188539,-0.454148 0.617512,-1.420232 0.953444,-2.146856 0.335939,-0.726632 0.833978,-1.816566 1.106537,-2.422094 0.753038,-1.67291 1.746603,-3.861501 2.198897,-4.84418 0.222959,-0.484424 0.602709,-1.326651 0.844204,-1.871619 0.241495,-0.544967 0.806036,-1.7835432 1.254479,-2.7523746 0.724543,-1.5653207 1.088626,-2.3700224 2.192013,-4.8441801 0.162023,-0.3633116 0.613412,-1.3541715 1.002894,-2.201907 1.56391,-3.4039579 1.97268,-4.3436282 1.97268,-4.5345382 0,-0.1176086 -6.698795,-0.1995485 -16.303534,-0.1995485 z m -27.550426,0.0025 c -1.666326,0.00882 -3.021114,0.045106 -3.089971,0.1139635 -0.06417,0.064164 0.635063,0.8320565 1.55337,1.7064812 0.918307,0.87442463 2.109997,2.0110385 2.648299,2.52573 0.538301,0.5146915 1.049622,0.9358089 1.136223,0.9358089 0.0866,0 0.556726,-0.5202008 1.045037,-1.1559962 0.48831,-0.63580376 1.389681,-1.75050543 2.002782,-2.4771371 0.613109,-0.7266233 1.116974,-1.3954576 1.120303,-1.4862855 0.0042,-0.1153284 -3.638825,-0.1772201 -6.416043,-0.1625648 z M 60.700251,7.804108 c -0.127786,0.00499 -0.876289,0.8646877 -1.663463,1.9103241 -5.701321,7.5732859 -7.157913,9.5255799 -7.684298,10.3007709 -0.32894,0.484415 -1.458356,2.14361 -2.509826,3.686893 -1.985872,2.914783 -4.154749,6.368449 -5.428195,8.643757 -0.406686,0.726632 -0.905533,1.6184 -1.108693,1.981712 -1.158618,2.072023 -2.708027,5.274884 -3.834404,7.926844 -0.205748,0.484424 -0.468354,1.052785 -0.583591,1.263078 -0.328401,0.599286 -0.249922,0.967091 0.285991,1.340923 0.658356,0.459249 0.697646,0.45493 1.706473,-0.181914 0.479605,-0.30276 0.925522,-0.550477 0.990851,-0.550477 0.06533,0 0.517329,-0.251462 1.004616,-0.559073 2.340987,-1.477806 8.659353,-4.384416 11.766409,-5.412717 0.726624,-0.240485 1.473104,-0.51832 1.658737,-0.617569 0.185634,-0.09924 0.681068,-0.2486 1.100954,-0.331572 0.419894,-0.08297 0.961525,-0.237913 1.203732,-0.344479 0.843608,-0.371184 6.421494,-1.640411 8.807611,-2.004072 1.259167,-0.1919 6.966203,-0.836883 7.537644,-0.851947 0.149341,-0.0042 0.520917,-0.499479 0.825707,-1.100953 0.30479,-0.601475 0.919522,-1.458823 1.365872,-1.905165 l 0.811518,-0.81152 -0.964621,-1.893122 C 73.949626,24.29131 70.937008,19.692466 67.60958,15.5013 64.357111,11.404548 61.110441,7.7877933 60.700251,7.8041049 Z m 12.926284,29.647829 c -0.186442,-0.01198 -0.42344,0.0025 -0.742718,0.01848 -3.869583,0.195903 -9.234663,1.185556 -14.617702,2.696468 -1.620563,0.454863 -4.18009,1.380843 -7.479148,2.705928 -1.219876,0.489976 -7.393661,3.654522 -8.686332,4.4524 l -1.286304,0.79389 0.213305,0.920755 c 0.204159,0.882289 0.121461,2.849378 -0.15912,3.789248 -0.113422,0.379948 0.202528,0.638849 2.136536,1.750347 3.230725,1.856721 7.758256,4.891799 10.846081,7.271002 6.220246,4.792775 11.83763,10.590973 15.573291,16.074743 1.284108,1.885 3.484342,5.554951 3.484342,5.811814 0,0.0855 0.122685,0.277943 0.27265,0.427908 0.531602,0.531594 1.08867,0.182954 1.525849,-0.955158 0.232596,-0.605519 0.557667,-1.398205 0.722504,-1.761525 0.662285,-1.459771 2.640733,-7.114595 3.312739,-9.468173 0.207471,-0.726631 0.515616,-1.759826 0.684655,-2.296088 0.169031,-0.536272 0.307495,-1.156913 0.307495,-1.379197 0,-0.222276 0.0923,-0.576292 0.205141,-0.786576 0.364751,-0.679786 1.272797,-5.918985 1.783452,-10.290884 C 82.199487,53.15009 81.667909,43.667328 80.93194,43.10763 80.752697,42.971321 80.202712,42.795084 79.709716,42.716273 77.813673,42.413089 75.589629,40.6879 74.800165,38.907675 74.290626,37.758678 74.18585,37.487976 73.626535,37.451924 Z m 15.26881,0.666587 c -0.695091,1.75e-4 -0.823676,0.280814 -1.248464,1.048058 -0.584573,1.055823 -1.071152,1.577297 -2.572184,2.757535 -0.689174,0.541888 -0.696697,0.567654 -0.475211,1.651431 0.123749,0.605528 0.354065,2.785397 0.51177,4.84418 0.381645,4.982086 -0.01398,10.883613 -1.099231,16.404167 -0.371576,1.890117 -1.349104,6.008332 -1.620464,6.825891 -0.100489,0.302769 -0.358476,1.144995 -0.572838,1.871618 -0.757307,2.567049 -3.256298,9.412207 -4.202535,11.511387 -0.288212,0.639389 -0.523812,1.197157 -0.523812,1.239434 0,0.04228 0.338054,0.638283 0.751315,1.324578 0.42195,0.700716 0.814572,1.706772 0.89538,2.294365 0.07915,0.575493 0.211782,1.141282 0.294587,1.257494 0.08281,0.116219 0.893666,0.390974 1.801953,0.610246 0.90828,0.219272 1.899139,0.48206 2.201899,0.584023 0.30276,0.101954 1.93767,0.495318 3.633133,0.874308 1.695472,0.378999 3.429465,0.781691 3.853329,0.894956 0.423863,0.113272 0.968839,0.24671 1.211048,0.29631 1.290931,0.264178 1.611816,0.161358 1.771842,-0.567246 0.08557,-0.389619 0.235042,-0.860269 0.332005,-1.045903 0.09696,-0.185634 0.336055,-0.882564 0.531127,-1.548643 0.195071,-0.666071 0.44382,-1.409223 0.553059,-1.65143 0.109235,-0.242216 1.343853,-3.85883 2.743764,-8.03694 1.39991,-4.178101 3.838573,-11.411353 5.419173,-16.073878 1.58061,-4.662524 3.46326,-10.260866 4.18362,-12.440744 0.72036,-2.179887 1.39648,-4.115385 1.5022,-4.301019 0.10571,-0.185634 0.26571,-0.681059 0.35564,-1.100953 0.09,-0.419886 0.24654,-0.867185 0.34835,-0.994298 0.10181,-0.127111 0.25074,-0.640604 0.33072,-1.140941 l 0.14536,-0.909577 -1.62175,-0.758189 C 102.9631,41.330674 96.116072,39.179215 90.944573,38.376136 89.933424,38.219114 89.312392,38.118424 88.895345,38.118524 Z M 3.0487103,44.37588 c -0.3744218,0.005 -0.6007926,0.03561 -0.6007926,0.09806 0,0.185067 0.5347895,1.765918 0.888073,2.624647 0.099649,0.242208 0.3442124,0.985351 0.5431616,1.651422 0.1989576,0.666079 0.4430045,1.409222 0.5423045,1.65143 0.099308,0.242208 1.6922253,5.047865 3.5398167,10.67922 1.8475911,5.631364 3.4000965,10.313155 3.4499295,10.403983 0.150423,0.274181 0.200872,0.223 1.409739,-1.431235 0.641621,-0.878012 1.418709,-1.898415 1.727111,-2.267702 0.308402,-0.369286 0.907597,-1.105206 1.331468,-1.63551 3.089515,-3.865362 6.075701,-7.081988 10.159711,-10.943281 L 27.477774,53.846641 27.022777,52.075656 26.567772,50.305102 25.021709,49.72281 C 23.053961,48.981781 18.615095,47.43734 17.751131,47.193201 17.38782,47.090531 16.545593,46.844495 15.879521,46.646595 13.71186,46.002552 11.197258,45.41966 8.2829578,44.88507 6.6259269,44.581279 4.171992,44.361391 3.0487103,44.37588 Z m 35.5082387,11.612025 -0.60423,0.427908 c -0.332486,0.235351 -1.174413,0.606368 -1.870761,0.82485 -1.482482,0.465142 -1.464855,0.392846 -0.92548,3.787533 0.474537,2.986586 0.658165,3.550836 2.168785,6.669777 3.044066,6.285003 10.351568,12.076775 20.940852,16.5977 1.332142,0.568744 2.620269,1.119179 2.862477,1.223081 0.242207,0.103902 0.935809,0.362213 1.541328,0.574128 0.60552,0.211924 1.200037,0.456811 1.321141,0.544027 0.121104,0.08721 0.418363,0.207562 0.660571,0.267066 0.865337,0.212706 1.045919,0.147885 2.044502,-0.731101 0.556269,-0.48965 1.36434,-1.05201 1.795494,-1.249745 0.431154,-0.197725 0.820772,-0.387329 0.865712,-0.421033 0.120762,-0.09065 -1.197965,-2.376383 -2.460368,-4.264894 -2.940023,-4.398146 -8.742965,-10.657358 -13.034655,-14.059486 -0.968831,-0.768025 -1.959973,-1.563232 -2.202331,-1.766682 -1.87443,-1.57356 -9.00259,-6.230759 -11.945743,-7.804702 z m -8.678153,0.468762 c -0.450935,0 -6.480913,6.026566 -8.922864,8.917705 -3.050983,3.612202 -4.814021,5.851867 -6.895989,8.7603 l -1.22696,1.713779 0.659281,2.029447 c 0.362604,1.116058 0.741095,2.227181 0.841194,2.469398 0.100099,0.242207 1.784927,5.345116 3.744093,11.339791 1.959158,5.994676 3.643244,11.097593 3.742369,11.339803 0.212041,0.5181 0.16274,0.36949 2.233723,6.7158 0.889205,2.72485 1.717491,5.0274 1.840659,5.11683 0.12316,0.0895 7.446249,0.13898 16.273426,0.11009 l 16.049361,-0.0524 0.872161,-1.43125 c 0.479738,-0.78718 1.175362,-1.97621 1.54563,-2.64227 0.370269,-0.66609 0.890304,-1.55786 1.155996,-1.98171 0.265694,-0.42388 0.820124,-1.39526 1.231695,-2.1589 0.411572,-0.76363 0.847536,-1.55631 0.968923,-1.76152 0.193515,-0.32714 0.973841,-1.77075 3.469711,-6.416479 l 0.644234,-1.198575 -0.516073,-0.3763 C 65.714112,95.583327 64.782222,94.001811 64.604753,91.884965 64.46797,90.253341 64.630723,90.424561 62.504775,89.672305 62.111188,89.533034 61.491904,89.295936 61.128592,89.145489 60.76528,88.99504 59.37807,88.424682 58.045927,87.877676 54.40974,86.384608 50.990744,84.692665 48.467661,83.137997 48.043796,82.876814 47.548371,82.593403 47.366707,82.508384 46.953396,82.314944 44.368795,80.486818 42.672616,79.187905 40.817435,77.767222 37.813988,74.697049 36.501703,72.880216 35.123347,70.971914 34.981862,70.724413 33.28615,67.246014 32.61491,65.869107 31.801379,62.110126 31.611068,59.506251 31.525649,58.337481 31.394176,57.297079 31.31906,57.19425 31.107312,56.904373 30.233186,56.4567 29.878796,56.4567 Z m 48.457308,38.155256 c -0.187656,0.01065 -0.433492,0.21789 -0.619284,0.532405 -0.291825,0.494026 -0.324597,0.816185 -0.162132,1.607993 0.269937,1.315644 0.570983,3.352339 0.715622,4.843319 0.374696,3.86233 0.38291,5.20163 0.05418,8.76332 -0.193348,2.09491 -0.35136,4.0023 -0.35136,4.23866 0,0.41064 0.178809,0.42951 4.018473,0.42618 2.210154,-0.002 4.117557,-0.0761 4.238661,-0.16514 0.121103,-0.089 0.79712,-1.89571 1.502197,-4.01503 0.705078,-2.11934 1.366331,-4.0515 1.469508,-4.2937 0.405355,-0.95155 2.64314,-7.977646 2.64314,-8.298852 0,-0.347147 -0.405206,-0.487613 -3.302852,-1.143948 -0.787176,-0.178301 -2.174378,-0.493055 -3.082657,-0.699717 -1.358616,-0.309122 -5.744005,-1.421692 -7.046945,-1.78775 -0.02405,-0.0067 -0.04977,-0.0092 -0.07657,-0.0075 z m -4.594749,3.404769 c -0.28659,0.0029 -0.699659,0.06871 -1.318128,0.155257 -0.827746,0.115811 -1.096584,0.264063 -1.338775,0.738409 -0.515491,1.009658 -2.274685,4.295562 -2.738187,5.114262 -0.242074,0.4276 -0.805933,1.46799 -1.252757,2.31199 -0.446833,0.844 -0.931041,1.73043 -1.076436,1.96968 -0.145397,0.23926 -0.58652,0.95957 -0.980108,1.60067 -0.393588,0.6411 -0.715613,1.20959 -0.715613,1.26352 0,0.054 -0.452401,0.84319 -1.005482,1.75421 -0.55309,0.91101 -0.942775,1.75859 -0.865711,1.88322 0.09364,0.14845 2.164024,0.20616 6.014807,0.16774 l 5.874603,-0.0585 0.302335,-1.32114 c 0.451443,-1.97194 0.452517,-12.27726 0.0016,-14.20227 -0.252485,-1.07818 -0.271759,-1.38225 -0.902262,-1.377047 z" />
  </g>
</svg>
