<svg xmlns="http://www.w3.org/2000/svg" viewBox="0 0 132.3 132.3">
  <path d="M23 117.8a40 40 0 0 1-1.8-5.5A26 26 0 0 1 20 109a66.8 66.8 0 0 1-1.8-5.3l-4.3-13A16561.8 16561.8 0 0 0-9.2 20.3c0-.1 4.7-.2 13-.2H17a37 37 0 0 0-2-4.5 69.6 69.6 0 0 0-2.4-5.3A2161.2 2161.2 0 0 1 5-6.4l51.3-.1h51.3l-.1.5a27.9 27.9 0 0 1-1.8 4 230.4 230.4 0 0 1-3 6.9 797 797 0 0 0-7 15c0 .2 6 .2 13.1.2 7.7 0 13.1.1 13.1.2a3861 3861 0 0 0-19 56.3l-2 6A3873 3873 0 0 1 89 118l-.2.6H23.4Z" style="fill:#3298da;fill-opacity:1;stroke-width:.832214" transform="translate(9.7 10.1)"/>
  <path d="M30.3-3c-10.9 0-19.7 0-19.7.2l.3.8 1.4 3A250.3 250.3 0 0 0 17 11.6a191.2 191.2 0 0 1 4.2 9.4l1 2 .2.6H9.2c-7.3 0-13.4.1-13.4.2a317.7 317.7 0 0 0 5.1 16l.3 1 3.2.2c3.7.3 6.5.8 10.7 2a116.4 116.4 0 0 1 11.3 3.7c1 .4 1.2.3 2.2-.8a7.7 7.7 0 0 1 4.6-2.3c.8-.1 1.2-.3 1.3-.5A97 97 0 0 1 40 31.5 206.8 206.8 0 0 1 58.2 5.1c0-.2-.5-.7-1-1.3A670 670 0 0 1 53 0L50-3zm55.6 0c-15.2 0-16.3 0-16.7.4L63 4.8l1.9 2.3a94 94 0 0 1 14.7 20.8c.4.7.6 1 1 .9.6 0 2.4.3 3.4.6 1.8.6 3.5 2.5 4 4.2l.5 1 1.7.3a68.4 68.4 0 0 1 20.8 6.3c.2 0 .6-.8 1.3-2.9a85.3 85.3 0 0 1 2-6.2 253.2 253.2 0 0 1 2.7-8.3s-6-.2-13.4-.2H90.3l.4-.8a75.5 75.5 0 0 1 2-4.5 815 815 0 0 1 7.5-16.6l2-4.5c0-.1-6.7-.2-16.3-.2zM58.3-3l-3 .1a2271.7 2271.7 0 0 1 5.3 5.2l1-1.2a84.6 84.6 0 0 1 3.2-4h-6.5zm2.4 10.8a498.1 498.1 0 0 0-11.9 15.9 131.4 131.4 0 0 0-11 19.8c-.2.6-.2 1 .4 1.4.6.4.7.4 1.7-.2a6 6 0 0 1 1-.6l1-.5a76.8 76.8 0 0 1 32-9.6c.2 0 .6-.5.9-1.1A9 9 0 0 1 76 31l.9-.8-1-2A80 80 0 0 0 60.7 7.9Zm13 29.7h-.8A72 72 0 0 0 42 47.3l-1.3.8.2 1c.2.8.1 2.8-.1 3.7-.1.4.2.7 2.1 1.8 3.2 1.8 7.8 4.9 10.9 7.3a74 74 0 0 1 19.3 22.3c.5.5 1 .1 1.5-1l.7-1.8A116.9 116.9 0 0 0 80 67.5c.4-.7 1.3-5.9 1.8-10.3.5-4 0-13.5-.8-14-.1-.2-.7-.4-1.2-.5-1.9-.3-4.1-2-4.9-3.8-.5-1.1-.6-1.4-1.2-1.4Zm15.2.6c-.7 0-.8.3-1.3 1a8 8 0 0 1-2.5 2.8c-.7.6-.7.6-.5 1.7a63.2 63.2 0 0 1-2.8 30 148.1 148.1 0 0 1-4.7 12.7l.7 1.3c.5.7.9 1.7 1 2.3L79 91c.1.2 1 .4 1.8.7l2.2.5a75.7 75.7 0 0 0 7.5 1.8l1.2.3c1.3.3 1.6.2 1.8-.6l.3-1 .6-1.6.5-1.6 2.8-8a5823.9 5823.9 0 0 1 12.1-36l.2-1-1.7-.8A70.8 70.8 0 0 0 91 38.4l-2-.3ZM3 44.4h-.6c0 .3.6 1.8 1 2.7a25.5 25.5 0 0 1 1 3.3 1001.7 1001.7 0 0 1 7 21c.2.4.2.3 1.4-1.3a61.2 61.2 0 0 1 3-4c3.2-3.8 6.2-7 10.2-10.9l1.5-1.4-.5-1.7-.4-1.8-1.6-.6a182.8 182.8 0 0 0-9.1-3A73.4 73.4 0 0 0 3 44.3ZM38.6 56l-.6.4c-.4.3-1.2.6-2 .8-1.4.5-1.4.4-.8 3.8.4 3 .6 3.6 2.1 6.7 3 6.3 10.4 12 21 16.6a3726.6 3726.6 0 0 1 6.4 2.6c.8.2 1 .2 2-.7a9.4 9.4 0 0 1 2.7-1.7s-1.2-2.4-2.5-4.3a73.7 73.7 0 0 0-15.2-15.8 116 116 0 0 0-12-7.8zm-8.7.5c-.5 0-6.5 6-9 8.9-3 3.6-4.8 5.8-6.8 8.7l-1.3 1.7.7 2 .8 2.5a1064.7 1064.7 0 0 1 7.5 22.7l2.3 6.7c.8 2.8 1.7 5 1.8 5.2h32.3l.9-1.4a93.6 93.6 0 0 0 4-6.8l.9-1.8 3.5-6.4.6-1.2-.5-.3a6.6 6.6 0 0 1-3-5.1c-.1-1.6 0-1.5-2.1-2.2a34 34 0 0 1-4.5-1.8 69.1 69.1 0 0 1-15.3-8.7 39.1 39.1 0 0 1-6.2-6.3c-1.4-2-1.5-2.2-3.2-5.7-.7-1.3-1.5-5-1.7-7.7a13 13 0 0 0-.3-2.3c-.2-.3-1-.7-1.4-.7Zm48.4 38.1c-.2 0-.4.2-.6.5-.3.5-.3.9-.1 1.7a53.4 53.4 0 0 1 .4 17.8c0 .4.2.4 4 .4l4.2-.1c.2-.1.8-2 1.5-4l1.5-4.4c.4-.9 2.6-8 2.6-8.2 0-.4-.4-.5-3.3-1.2a3911.5 3911.5 0 0 1-10.2-2.5zM73.7 98c-.2 0-.7 0-1.3.2-.8 0-1 .2-1.3.7a253 253 0 0 1-7.8 14c-.5 1-1 1.8-.8 2h11.8l.3-1.3c.5-2 .5-12.3 0-14.2-.2-1-.2-1.4-.9-1.4z" style="fill:#011389;fill-opacity:1;stroke-width:.832214" transform="translate(9.7 10.1)"/>
</svg>
