<svg xmlns="http://www.w3.org/2000/svg" xml:space="preserve" overflow="visible" version="1.2" viewBox="0 0 80.000003 64.999999">
  <defs>
    <linearGradient id="a" x1="51.3741" x2="20.841" y1="6.7076998" y2="59.592602" gradientTransform="translate(1.7230332 1.2)" gradientUnits="userSpaceOnUse">
      <stop offset=".2314" style="stop-color:#2c4ced"/>
      <stop offset=".3527" style="stop-color:#2c4aea"/>
      <stop offset=".4345" style="stop-color:#2e43e1"/>
      <stop offset=".5047" style="stop-color:#3138d2"/>
      <stop offset=".5679" style="stop-color:#3528bd"/>
      <stop offset=".5996" style="stop-color:#371eaf"/>
    </linearGradient>
  </defs>
  <path fill="url(#a)" d="M77.623033 25.6c-.5 1.8-2.1 3.1-4 3.1h-4.7v23.1c0 2.3-1.9 4.1-4.1 4.1h-13.6c.6-.8 1.2-1.6 1.8-2.5.3-.4.6-.9.9-1.3h10.8c.2 0 .4-.2.4-.4V24.9h8.5c.4 0 .5-.5.2-.7l-30.6-17.3c-1.2-.7-2.5-1-3.9-1-1.3 0-2.7.3-3.9 1L6.2230332 24.5c-.3.2-.2.7.2.7l8.4999998-.3v26.9c0 .2.2.4.4.4h11.2c.3.4.6.9.9 1.3.6.9 1.2 1.7 1.8 2.5h-14c-2.3 0-4.1-1.9-4.1-4.1v-23l-4.5999998.1h-.1c-1.9 0-3.5-1.3-4-3.1-.5-1.9.3-3.8 1.9-4.7L33.523033 3.6h.1c1.7-1 3.7-1.5 5.8-1.5 2 0 4 .5 5.7 1.5l30.5 17.3c1.6.9 2.4 2.9 2 4.7zm-19.4 7.2c0 4.1-2.8 10.3-8.4 18.5l-.6.9c-.2.3-.5.7-.7 1-.1.2-.3.4-.4.6-.1.1-.2.3-.3.4-.1.2-.2.3-.3.5-.1.1-.2.3-.3.4-.2.3-.5.6-.7 1-.1.2-.2.3-.3.5-.1.1-.1.2-.2.2-.1.1-.1.2-.2.3-.1.1-.2.2-.3.4-.2.2-.3.4-.5.6l-.2.2-.3.3c-.1.1-.1.2-.2.2-.2.2-.4.5-.6.7 0 .1-.1.1-.1.2-.1.1-.1.2-.2.2l-.3.3-.3.3c-.1.1-.2.2-.2.3l-.2.2c-.6.7-.9 1.1-1 1.2-.4.4-.9.7-1.4.7-.6 0-1.1-.2-1.4-.7 0-.1-.4-.5-1-1.2l-.2-.2c-.1-.1-.2-.2-.2-.3-.1-.1-.1-.2-.2-.3l-.1-.1c-.1-.1-.2-.3-.3-.4l-.1-.1-.3-.3c-.1-.1-.2-.2-.2-.3-.7-.9-1.5-1.9-2.3-3-.2-.2-.4-.5-.5-.7-.1-.1-.1-.2-.2-.2-.1-.1-.2-.3-.3-.4-.1-.2-.2-.3-.3-.5-.1-.1-.2-.3-.3-.4-.1-.2-.3-.4-.4-.6-.2-.3-.5-.7-.7-1l-.6-.9c-5.6-8.2-8.4-14.4-8.4-18.5 0-10 8.1-18.1 18.1-18.1 10 0 18.1 8.1 18.1 18.1zm-3.8.3v-.3c0-7.9-6.4-14.3-14.3-14.3s-14.3 6.4-14.3 14.3v.6c0 .2 0 .3.1.5v.4c0 .2.1.4.1.6v.2c0 .1 0 .1.1.2.1.2.1.5.2.8 0 .1.1.2.1.3.1.3.2.5.3.8 0 .1.1.3.2.4 0 .1.1.2.1.4.2.5.4 1 .7 1.5 0 .1.1.2.1.3.3.6.7 1.3 1 2l.3.6c.1.2.2.4.4.7.1.2.2.3.3.5.2.3.3.5.5.8.1.2.3.4.4.7.1.2.3.4.4.6.2.3.4.7.6 1 .1.1.2.3.3.4.5.7 1 1.5 1.5 2.2.1.1.2.3.3.4.3.5.6.9 1 1.4.2.2.3.4.5.7.1.1.2.3.3.4 1 1.4 1.9 2.6 2.8 3.8.6.7 1.1 1.4 1.6 2 .5-.6 1-1.3 1.6-2 .2-.2.3-.4.5-.6.1-.1.2-.2.2-.3.7-.9 1.4-1.8 2.1-2.8.1-.1.2-.3.3-.4.2-.2.3-.4.5-.7.2-.3.4-.6.7-.9l.6-.9c1.4-2 2.8-4.2 4-6.2.1-.2.3-.4.4-.7l.3-.6c.4-.7.7-1.3 1-2 .1-.1.1-.2.2-.3l.6-1.2c0-.1.1-.2.1-.3V38c0-.1.1-.2.1-.3.2-.4.3-.8.4-1.2 0-.1.1-.2.1-.4.1-.3.2-.5.2-.8 0-.1 0-.1.1-.2v-.2c.1-.2.1-.4.1-.6v-.4c0-.2 0-.3.1-.5v-.1c.2 0 .2-.1.2-.2zm-14.3-6.5c-3.6 0-6.5 2.9-6.5 6.5s2.9 6.5 6.5 6.5 6.5-2.9 6.5-6.5-2.9-6.5-6.5-6.5zm0-3.8c5.7 0 10.2 4.6 10.2 10.2 0 5.7-4.6 10.2-10.2 10.2-5.7 0-10.2-4.6-10.2-10.2s4.6-10.2 10.2-10.2z" style="fill:url(#a)"/>
</svg>
