<?xml version="1.0" encoding="UTF-8" standalone="no"?>
<!-- Generator: Adobe Illustrator 25.4.1, SVG Export Plug-In . SVG Version: 6.00 Build 0)  -->

<svg
   version="1.2"
   id="Layer_1"
   x="0px"
   y="0px"
   width="80"
   height="65"
   viewBox="0 0 80.000003 64.999999"
   overflow="visible"
   xml:space="preserve"
   sodipodi:docname="pahousingsearch.svg"
   inkscape:version="1.4 (86a8ad7, 2024-10-11)"
   xmlns:inkscape="http://www.inkscape.org/namespaces/inkscape"
   xmlns:sodipodi="http://sodipodi.sourceforge.net/DTD/sodipodi-0.dtd"
   xmlns="http://www.w3.org/2000/svg"
   xmlns:svg="http://www.w3.org/2000/svg"><defs
   id="defs52">
	<linearGradient
   id="SVGID_1_"
   gradientUnits="userSpaceOnUse"
   x1="51.3741"
   y1="6.7076998"
   x2="20.841"
   y2="59.592602"
   gradientTransform="translate(1.7230332,1.2)">
		<stop
   offset="0.2314"
   style="stop-color:#2C4CED"
   id="stop1" />
		<stop
   offset="0.3527"
   style="stop-color:#2C4AEA"
   id="stop2" />
		<stop
   offset="0.4345"
   style="stop-color:#2E43E1"
   id="stop3" />
		<stop
   offset="0.5047"
   style="stop-color:#3138D2"
   id="stop4" />
		<stop
   offset="0.5679"
   style="stop-color:#3528BD"
   id="stop5" />
		<stop
   offset="0.5996"
   style="stop-color:#371EAF"
   id="stop6" />
	</linearGradient>
	
	

		
		
		
			<linearGradient
   id="SVGID_00000048493564044690792320000010874135978403375253_"
   gradientUnits="userSpaceOnUse"
   x1="172.0938"
   y1="21.669701"
   x2="172.0938"
   y2="47.5648">
			<stop
   offset="0"
   style="stop-color:#2C4CED"
   id="stop8" />
			<stop
   offset="0.3294"
   style="stop-color:#2C4AEA"
   id="stop9" />
			<stop
   offset="0.5516"
   style="stop-color:#2E43E1"
   id="stop10" />
			<stop
   offset="0.7422"
   style="stop-color:#3138D2"
   id="stop11" />
			<stop
   offset="0.9139"
   style="stop-color:#3528BD"
   id="stop12" />
			<stop
   offset="1"
   style="stop-color:#371EAF"
   id="stop13" />
		</linearGradient>
		
		
		
		
		
		
		
		
	</defs><sodipodi:namedview
   id="namedview52"
   pagecolor="#ffffff"
   bordercolor="#111111"
   borderopacity="1"
   inkscape:showpageshadow="0"
   inkscape:pageopacity="0"
   inkscape:pagecheckerboard="1"
   inkscape:deskcolor="#d1d1d1"
   inkscape:zoom="2.9538167"
   inkscape:cx="43.164493"
   inkscape:cy="75.157"
   inkscape:window-width="1920"
   inkscape:window-height="1115"
   inkscape:window-x="-9"
   inkscape:window-y="-9"
   inkscape:window-maximized="1"
   inkscape:current-layer="Layer_1" />
<path
   fill="url(#SVGID_1_)"
   d="m 77.623033,25.6 c -0.5,1.8 -2.1,3.1 -4,3.1 h -4.7 v 23.1 c 0,2.3 -1.9,4.1 -4.1,4.1 h -13.6 c 0.6,-0.8 1.2,-1.6 1.8,-2.5 0.3,-0.4 0.6,-0.9 0.9,-1.3 h 10.8 c 0.2,0 0.4,-0.2 0.4,-0.4 V 24.9 h 8.5 c 0.4,0 0.5,-0.5 0.2,-0.7 l -30.6,-17.3 c -1.2,-0.7 -2.5,-1 -3.9,-1 -1.3,0 -2.7,0.3 -3.9,1 L 6.2230332,24.5 c -0.3,0.2 -0.2,0.7 0.2,0.7 v 0 l 8.4999998,-0.3 v 26.9 c 0,0.2 0.2,0.4 0.4,0.4 h 11.2 c 0.3,0.4 0.6,0.9 0.9,1.3 0.6,0.9 1.2,1.7 1.8,2.5 h -14 c -2.3,0 -4.1,-1.9 -4.1,-4.1 v -23 L 6.5230332,29 c 0,0 -0.1,0 -0.1,0 -1.9,0 -3.5,-1.3 -4,-3.1 -0.5,-1.9 0.3,-3.8 1.9,-4.7 L 33.523033,3.6 c 0,0 0.1,0 0.1,0 1.7,-1 3.7,-1.5 5.8,-1.5 2,0 4,0.5 5.7,1.5 l 30.5,17.3 c 1.6,0.9 2.4,2.9 2,4.7 z m -19.4,7.2 c 0,4.1 -2.8,10.3 -8.4,18.5 -0.2,0.3 -0.4,0.6 -0.6,0.9 -0.2,0.3 -0.5,0.7 -0.7,1 -0.1,0.2 -0.3,0.4 -0.4,0.6 -0.1,0.1 -0.2,0.3 -0.3,0.4 -0.1,0.2 -0.2,0.3 -0.3,0.5 -0.1,0.1 -0.2,0.3 -0.3,0.4 -0.2,0.3 -0.5,0.6 -0.7,1 0,0 0,0 0,0 -0.1,0.2 -0.2,0.3 -0.3,0.5 -0.1,0.1 -0.1,0.2 -0.2,0.2 -0.1,0.1 -0.1,0.2 -0.2,0.3 -0.1,0.1 -0.2,0.2 -0.3,0.4 -0.2,0.2 -0.3,0.4 -0.5,0.6 -0.1,0.1 -0.1,0.1 -0.2,0.2 -0.1,0.1 -0.2,0.2 -0.3,0.3 -0.1,0.1 -0.1,0.2 -0.2,0.2 -0.2,0.2 -0.4,0.5 -0.6,0.7 0,0.1 -0.1,0.1 -0.1,0.2 -0.1,0.1 -0.1,0.2 -0.2,0.2 -0.1,0.1 -0.2,0.2 -0.3,0.3 -0.1,0.1 -0.2,0.2 -0.3,0.3 -0.1,0.1 -0.2,0.2 -0.2,0.3 -0.1,0.1 -0.1,0.1 -0.2,0.2 -0.6,0.7 -0.9,1.1 -1,1.2 -0.4,0.4 -0.9,0.7 -1.4,0.7 -0.6,0 -1.1,-0.2 -1.4,-0.7 0,-0.1 -0.4,-0.5 -1,-1.2 -0.1,-0.1 -0.1,-0.1 -0.2,-0.2 -0.1,-0.1 -0.2,-0.2 -0.2,-0.3 -0.1,-0.1 -0.1,-0.2 -0.2,-0.3 0,0 0,0 -0.1,-0.1 -0.1,-0.1 -0.2,-0.3 -0.3,-0.4 0,0 -0.1,-0.1 -0.1,-0.1 -0.1,-0.1 -0.2,-0.2 -0.3,-0.3 -0.1,-0.1 -0.2,-0.2 -0.2,-0.3 -0.7,-0.9 -1.5,-1.9 -2.3,-3 -0.2,-0.2 -0.4,-0.5 -0.5,-0.7 -0.1,-0.1 -0.1,-0.2 -0.2,-0.2 -0.1,-0.1 -0.2,-0.3 -0.3,-0.4 -0.1,-0.2 -0.2,-0.3 -0.3,-0.5 -0.1,-0.1 -0.2,-0.3 -0.3,-0.4 -0.1,-0.2 -0.3,-0.4 -0.4,-0.6 -0.2,-0.3 -0.5,-0.7 -0.7,-1 -0.2,-0.3 -0.4,-0.6 -0.6,-0.9 -5.6,-8.2 -8.4,-14.4 -8.4,-18.5 0,-10 8.1,-18.1 18.1,-18.1 10,0 18.1,8.1 18.1,18.1 z m -3.8,0.3 c 0,-0.1 0,-0.2 0,-0.3 0,-7.9 -6.4,-14.3 -14.3,-14.3 -7.9,0 -14.3,6.4 -14.3,14.3 0,0.1 0,0.2 0,0.3 v 0 c 0,0.1 0,0.1 0,0.2 0,0 0,0.1 0,0.1 0,0 0,0 0,0 0,0.2 0,0.3 0.1,0.5 0,0 0,0.1 0,0.1 0,0.1 0,0.2 0,0.3 0,0.2 0.1,0.4 0.1,0.6 0,0.1 0,0.1 0,0.2 0,0.1 0,0.1 0.1,0.2 0.1,0.2 0.1,0.5 0.2,0.8 0,0.1 0.1,0.2 0.1,0.3 0.1,0.3 0.2,0.5 0.3,0.8 0,0.1 0.1,0.3 0.2,0.4 0,0.1 0.1,0.2 0.1,0.4 0.2,0.5 0.4,1 0.7,1.5 0,0.1 0.1,0.2 0.1,0.3 0.3,0.6 0.7,1.3 1,2 0.1,0.2 0.2,0.4 0.3,0.6 0.1,0.2 0.2,0.4 0.4,0.7 0.1,0.2 0.2,0.3 0.3,0.5 0.2,0.3 0.3,0.5 0.5,0.8 0.1,0.2 0.3,0.4 0.4,0.7 0.1,0.2 0.3,0.4 0.4,0.6 0.2,0.3 0.4,0.7 0.6,1 0.1,0.1 0.2,0.3 0.3,0.4 0.5,0.7 1,1.5 1.5,2.2 0.1,0.1 0.2,0.3 0.3,0.4 0.3,0.5 0.6,0.9 1,1.4 0.2,0.2 0.3,0.4 0.5,0.7 0.1,0.1 0.2,0.3 0.3,0.4 1,1.4 1.9,2.6 2.8,3.8 0.6,0.7 1.1,1.4 1.6,2 0.5,-0.6 1,-1.3 1.6,-2 0.2,-0.2 0.3,-0.4 0.5,-0.6 0.1,-0.1 0.2,-0.2 0.2,-0.3 0.7,-0.9 1.4,-1.8 2.1,-2.8 0.1,-0.1 0.2,-0.3 0.3,-0.4 0.2,-0.2 0.3,-0.4 0.5,-0.7 0.2,-0.3 0.4,-0.6 0.7,-0.9 0.2,-0.3 0.4,-0.6 0.6,-0.9 1.4,-2 2.8,-4.2 4,-6.2 0.1,-0.2 0.3,-0.4 0.4,-0.7 0.1,-0.2 0.2,-0.4 0.3,-0.6 0.4,-0.7 0.7,-1.3 1,-2 0.1,-0.1 0.1,-0.2 0.2,-0.3 0.2,-0.4 0.4,-0.8 0.6,-1.2 0,-0.1 0.1,-0.2 0.1,-0.3 0,0 0,-0.1 0,-0.1 0,-0.1 0.1,-0.2 0.1,-0.3 0.2,-0.4 0.3,-0.8 0.4,-1.2 0,-0.1 0.1,-0.2 0.1,-0.4 0.1,-0.3 0.2,-0.5 0.2,-0.8 0,-0.1 0,-0.1 0.1,-0.2 0,-0.1 0,-0.1 0,-0.2 0.1,-0.2 0.1,-0.4 0.1,-0.6 0,-0.1 0,-0.2 0,-0.3 0,0 0,-0.1 0,-0.1 0,-0.2 0,-0.3 0.1,-0.5 0,0 0,0 0,0 0,0 0,-0.1 0,-0.1 0.2,0 0.2,-0.1 0.2,-0.2 z m -14.3,-6.5 c -3.6,0 -6.5,2.9 -6.5,6.5 0,3.6 2.9,6.5 6.5,6.5 3.6,0 6.5,-2.9 6.5,-6.5 0,-3.6 -2.9,-6.5 -6.5,-6.5 z m 0,-3.8 c 5.7,0 10.2,4.6 10.2,10.2 0,5.7 -4.6,10.2 -10.2,10.2 -5.7,0 -10.2,-4.6 -10.2,-10.2 0,-5.6 4.6,-10.2 10.2,-10.2 z"
   id="path6"
   style="fill:url(#SVGID_1_)" />
</svg>
