<svg xmlns="http://www.w3.org/2000/svg" xml:space="preserve" viewBox="0 0 79.375 39.688">
  <path d="M61.524 18.813c-1.398-.275-2.968-1.195-3.692-2.165l-.287-.383-.45.048c-2.32.247-3.717.247-5.71 0-.548-.068-1.074-.13-1.167-.137-.14-.01-.168-.068-.168-.333v-.32l.43.05c1.626.192 2.833.293 3.518.295.818.003 2.56-.12 3.327-.236.488-.074.5-.067.922.521.772 1.076 2.756 2.093 4.082 2.093h.432l-.48-.472a3.494 3.494 0 0 1-1.004-1.839c-.175-.84.08-1.29 1.036-1.832.794-.45 1.28-.823 1.829-1.4.632-.666.787-.92.985-1.624.13-.467.15-.49.374-.466.34.038.375.107.278.54-.278 1.24-1.404 2.49-3.173 3.524-.8.467-.877.653-.608 1.468.235.713.533 1.066 1.54 1.83.51.388.929.73.929.762 0 .063-1.491.17-2.163.156a5.522 5.522 0 0 1-.78-.08zm-12.58-2.92c-.09-.023-.663-.202-1.274-.398-2.71-.872-4.477-2.282-5.077-4.052-.45-1.324.12-2.95 1.469-4.185 1.693-1.552 3.73-2.387 7.11-2.914 1.383-.215 4.863-.19 6.327.046 1.959.316 3.556.812 5.029 1.562 1.68.855 2.664 1.852 3.128 3.17.263.745.26.851-.022.85-.334-.002-.398-.071-.592-.647-.212-.63-.495-1.053-1.08-1.614-.582-.557-1.06-.869-2.06-1.344-1.416-.672-2.76-1.07-4.582-1.355-1.151-.18-4.062-.248-5.236-.123-1.27.135-3.233.534-4.123.838-3.431 1.17-5.479 3.628-4.713 5.657.398 1.055 1.41 2.055 2.803 2.77.85.437 2.619 1.057 3.097 1.085.286.017.287.02.259.366-.03.36-.072.386-.463.288z" style="fill:#a8c943"/>
  <path d="m51.047 24.166-.354-.032.846-.637c1.319-.994 1.758-1.573 1.847-2.436.057-.553.01-.61-1.032-1.232-1.043-.623-2.168-1.725-2.54-2.487-1.098-2.251.079-4.6 3.043-6.075 3.817-1.897 9.239-2.291 13.935-1.012 2.633.718 4.749 2.195 5.622 3.927l.367.727v.911c0 .877-.01.932-.287 1.484-.576 1.154-2.102 2.456-3.626 3.093-1.37.574-3.158 1.039-5.016 1.304-.918.132-4.41.134-5.34.004l-.671-.094-.763.76c-.663.66-.874.814-1.622 1.182-1.132.558-1.66.674-2.99.658a28.565 28.565 0 0 1-1.419-.045zm2.935-.698c1.2-.292 2.54-1.221 3.317-2.301l.164-.228 1.206.128c3.278.348 6.441.011 9.279-.988 2.243-.79 3.9-2.276 4.224-3.79.254-1.182-.576-2.697-2.077-3.788-1.543-1.123-3.236-1.724-6.12-2.174-1.16-.18-4.29-.201-5.488-.036-2.05.283-3.61.722-5.156 1.454-2.062.975-3.095 2.16-3.264 3.74-.038.347-.044.658-.015.692.028.035.098.228.155.431.244.871 1.244 1.936 2.568 2.733 1.155.696 1.356.982 1.26 1.79-.075.639-.474 1.397-1.055 2.005l-.514.538.574-.058c.315-.032.739-.098.942-.148z" style="fill:#64308d"/>
  <path d="m66.616 35.873-.185-.027.021-4.274.021-4.274h1.802l.025.451.024.452.416-.39c.514-.483 1.085-.675 1.828-.616 1.72.138 2.837 1.624 2.724 3.625-.067 1.19-.464 2.046-1.211 2.616-.528.403-.994.556-1.717.563-.731.008-1.3-.206-1.73-.65l-.276-.286-.041 1.404-.041 1.405-.738.013c-.405.008-.82.002-.922-.012zm3.684-3.459c1.227-.34 1.625-2.271.662-3.207-.363-.352-.647-.476-1.097-.476-.446 0-.807.167-1.111.514-.703.8-.61 2.29.18 2.894.446.34.844.42 1.366.275zm-57.789 1.558c-1.118-.282-1.697-1.082-1.595-2.206.144-1.582 1.642-2.204 4.024-1.671.236.052.237.052.18-.266-.073-.411-.275-.693-.627-.872-.392-.2-1.381-.192-2.052.017-.283.088-.524.152-.535.141-.063-.063-.423-1.324-.392-1.375.02-.033.286-.146.59-.251.479-.166.709-.191 1.74-.191 1.065 0 1.23.02 1.597.188.536.247.968.677 1.202 1.196.18.4.19.52.217 2.814l.027 2.396h-1.733v-.328c0-.18-.02-.327-.046-.327-.025 0-.181.109-.348.242-.166.133-.443.3-.615.372-.39.162-1.225.224-1.634.12zm1.994-1.394c.412-.21.648-.588.649-1.038 0-.336-.009-.347-.348-.443-.527-.148-1.364-.128-1.686.041-.324.17-.538.615-.463.958.029.13.162.328.298.442.323.272 1.058.291 1.55.04zm10.826 1.391a1.487 1.487 0 0 1-1.194-.887c-.155-.341-.174-.562-.203-2.303l-.031-1.925-.36.03-.361.028V27.257h.778l-.026-.819-.026-.82h1.906l-.026.82-.026.82h.758l.757-.001v1.65l-.737-.026-.737-.027v1.583c0 .91.035 1.648.083 1.737.119.221.585.286 1.024.141l.367-.12v1.46l-.348.15c-.425.182-1.023.244-1.598.164zm13.21-.021a3.257 3.257 0 0 1-2.407-2.497c-.357-1.685.406-3.335 1.856-4.015.41-.193.57-.22 1.288-.22.73 0 .875.026 1.33.236 1.16.535 1.9 1.916 1.808 3.37l-.025.408-2.279.022-2.278.021.054.183c.352 1.192 1.834 1.485 3.028.6.153-.114.2-.09.686.346l.523.47-.349.314c-.583.527-1.284.804-2.115.838-.409.016-.885-.016-1.12-.076zm2.087-4.008c-.003-.314-.294-.847-.57-1.043-.278-.198-.84-.302-1.178-.217-.31.078-.714.457-.882.826-.29.638-.329.618 1.239.618 1.39 0 1.393 0 1.39-.184zm9.76 3.994c-.563-.127-1.41-.496-1.714-.747l-.189-.155.377-.59.377-.588.401.236c1.172.69 2.458.69 2.458 0 0-.312-.194-.438-1.132-.737-1.674-.533-2.145-.999-2.145-2.118 0-1 .676-1.75 1.793-1.986.777-.165 2.08.108 2.791.585l.19.127-.348.634-.348.634-.258-.15c-.633-.368-1.463-.562-1.822-.426-.27.102-.357.213-.359.455-.002.267.225.413 1.192.771 1.69.626 2.143 1.114 2.064 2.22-.03.434-.096.659-.277.955-.474.78-1.803 1.163-3.051.88zM3.44 29.586v-4.307l2.274.027c2.264.026 2.274.027 2.738.244.657.308 1.148.79 1.423 1.4.197.435.232.622.236 1.249.007 1.02-.168 1.498-.765 2.091-.776.77-1.417.978-3.018.98H5.243v2.622H3.44Zm4.094-.138c.538-.275.698-.542.698-1.167s-.16-.892-.698-1.167c-.313-.16-.486-.185-1.326-.185h-.965v2.704h.965c.84 0 1.013-.024 1.326-.185zm10.998 1.147.022-3.297.877-.023.877-.023.024.678.024.679.222-.378c.4-.68.982-1.054 1.644-1.055h.228l-.023.962-.023.962-.442.054c-.846.103-1.397.72-1.566 1.75-.044.27-.08 1.052-.08 1.739l-.001 1.25H18.51Zm10.22-.02v-3.318h1.802v.921l.36-.33c.493-.456.817-.606 1.407-.653.694-.056 1.267.143 1.722.598.567.567.607.806.607 3.656v2.443h-1.802V31.8c0-1.902-.015-2.12-.157-2.396-.19-.367-.39-.498-.849-.556-.434-.055-.843.142-1.102.53-.181.272-.186.331-.186 2.396v2.118h-1.802zm15.154 0v-3.318h1.802l.004.676c.003.67.004.673.135.43.385-.717 1.035-1.185 1.645-1.187h.27l-.024.962-.023.962-.368.045c-.57.07-.976.306-1.241.725-.356.56-.397.818-.397 2.486v1.536h-1.802Zm11.222-1.188V24.88h1.802v1.639c0 .9.02 1.638.045 1.638.025 0 .182-.133.349-.295.516-.503.87-.644 1.613-.645.973 0 1.566.36 1.952 1.186.162.345.174.532.202 2.928l.03 2.56h-1.815v-1.945c-.001-2.113-.05-2.46-.405-2.814-.478-.478-1.41-.343-1.762.255-.155.264-.17.443-.193 2.395l-.026 2.11h-1.792zm7.72 1.208.021-3.297h1.802l.022 3.297.021 3.297h-1.888Zm-.02-4.894v-.82h1.884V26.52h-1.884zm-50.566-3.477c-.832-.297-1.278-.868-1.347-1.722-.078-.969.307-1.635 1.167-2.022.667-.3 2.184-.311 2.939-.022.185.072.173-.238-.026-.677-.334-.735-1.273-.86-2.927-.389-.162.047-.197-.01-.39-.616-.115-.367-.21-.68-.21-.696 0-.065.661-.282 1.262-.416.48-.106.852-.132 1.434-.1 1.16.066 1.842.382 2.264 1.05.387.614.446 1.073.446 3.452v2.194h-1.72v-.327c0-.18-.024-.328-.054-.328s-.18.097-.337.216c-.641.49-1.755.669-2.5.403zm1.937-1.199c.174-.048.446-.207.605-.353.242-.221.296-.335.33-.688.039-.405.03-.427-.195-.516-.36-.142-1.28-.19-1.604-.083-.443.147-.68.448-.68.866 0 .684.667 1.018 1.544.774zm11.14 1.163c-1.22-.452-2.012-1.458-2.148-2.729-.127-1.188.164-2.177.864-2.932.76-.822 1.724-1.158 2.826-.987 1.482.23 2.392 1.27 2.606 2.982.04.318.053.68.027.807l-.045.228h-2.243c-2.53 0-2.421-.033-2.034.628.28.477.728.703 1.392.703.527 0 1.131-.206 1.338-.458.174-.21.275-.17.796.314l.484.45-.356.327c-.196.179-.565.428-.82.553-.406.2-.57.23-1.363.249-.725.018-.984-.009-1.325-.135zm2.392-4.003c-.164-.658-.488-1.022-1.039-1.17-.782-.211-1.458.258-1.745 1.21l-.056.185h2.896zm12.217 4.043c-.396-.147-.601-.333-.822-.746-.163-.304-.178-.469-.203-2.314l-.026-1.986h-.813l.024-.758.023-.758.39-.025.388-.025V13.905h1.802v1.72h1.557v1.557H40.71v1.511c0 1.624.054 1.898.388 1.982.213.053.797 0 1.025-.094.13-.053.144.009.144.679v.737l-.348.143c-.466.192-1.56.241-1.972.088zM3.44 17.913v-4.348l2.192.03c2.033.026 2.224.041 2.645.21.96.383 1.514 1.007 1.765 1.987.346 1.353-.213 2.738-1.35 3.344-.659.351-1.408.5-2.528.502h-.921v2.622H3.44Zm4.156-.147c.88-.45.91-1.8.05-2.282-.28-.156-.47-.185-1.344-.205l-1.019-.022-.022 1.266c-.013.696-.003 1.319.022 1.383.076.197 1.865.09 2.313-.14zm10.917 1.177v-3.318h1.802v.615c0 .65.079.77.244.372.122-.294.584-.782.886-.935.122-.062.396-.138.61-.17l.39-.056v1.976h-.226c-.702 0-1.253.364-1.595 1.054l-.259.52-.035 1.63-.036 1.63H18.513zm12.45 0v-3.318h1.802v.924l.412-.385c.548-.513.89-.65 1.596-.644.94.008 1.578.4 1.935 1.19.19.42.195.499.22 2.99l.026 2.56h-1.8l-.029-2.15c-.021-1.635-.056-2.205-.143-2.378-.174-.344-.57-.55-1.056-.55-.347 0-.465.041-.697.245-.41.36-.463.694-.463 2.904v1.93h-1.802Z" style="fill:#211e1f"/>
</svg>
