<?xml version="1.0" encoding="UTF-8" standalone="no"?>
<!-- Created with Inkscape (http://www.inkscape.org/) -->

<svg
   width="300"
   height="150"
   viewBox="0 0 79.374998 39.6875"
   version="1.1"
   id="svg1"
   xml:space="preserve"
   inkscape:version="1.4 (86a8ad7, 2024-10-11)"
   sodipodi:docname="parentpartnership.svg"
   xmlns:inkscape="http://www.inkscape.org/namespaces/inkscape"
   xmlns:sodipodi="http://sodipodi.sourceforge.net/DTD/sodipodi-0.dtd"
   xmlns="http://www.w3.org/2000/svg"
   xmlns:svg="http://www.w3.org/2000/svg"><sodipodi:namedview
     id="namedview1"
     pagecolor="#ffffff"
     bordercolor="#111111"
     borderopacity="1"
     inkscape:showpageshadow="0"
     inkscape:pageopacity="0"
     inkscape:pagecheckerboard="1"
     inkscape:deskcolor="#d1d1d1"
     inkscape:document-units="px"
     inkscape:zoom="1.5714646"
     inkscape:cx="111.04291"
     inkscape:cy="167.99614"
     inkscape:window-width="1920"
     inkscape:window-height="1115"
     inkscape:window-x="-9"
     inkscape:window-y="-9"
     inkscape:window-maximized="1"
     inkscape:current-layer="layer1" /><defs
     id="defs1" /><g
     inkscape:label="Layer 1"
     inkscape:groupmode="layer"
     id="layer1"><path
       style="fill:#a8c943"
       d="m 61.523831,18.812672 c -1.398154,-0.274312 -2.967644,-1.194288 -3.692304,-2.16429 l -0.2867,-0.383766 -0.450529,0.04808 c -2.318932,0.247457 -3.716734,0.247543 -5.708534,3.52e-4 -0.549153,-0.06815 -1.074429,-0.129636 -1.16728,-0.13663 -0.139566,-0.01051 -0.16882,-0.06828 -0.16882,-0.333364 v -0.320648 l 0.43005,0.05075 c 1.626324,0.191908 2.833184,0.293223 3.517856,0.295321 0.818816,0.0025 2.559997,-0.121352 3.327654,-0.236717 0.487514,-0.07326 0.499142,-0.06669 0.921385,0.521276 0.77264,1.075881 2.756782,2.093391 4.082109,2.093391 h 0.431964 L 62.280487,17.77363 c -0.527714,-0.519585 -0.85398,-1.117166 -1.003697,-1.838349 -0.174499,-0.840558 0.07972,-1.290099 1.036292,-1.832488 0.794023,-0.450222 1.28024,-0.822409 1.8288,-1.3999 0.632555,-0.665916 0.786694,-0.920122 0.984706,-1.623971 0.131294,-0.466693 0.150159,-0.490172 0.373971,-0.465447 0.339533,0.03751 0.375355,0.10696 0.278377,0.539698 -0.277735,1.239309 -1.404194,2.490338 -3.172682,3.523534 -0.799489,0.467083 -0.876777,0.653772 -0.607974,1.468566 0.234991,0.712307 0.532374,1.065697 1.540207,1.830279 0.510456,0.387253 0.928102,0.730034 0.928102,0.761737 0,0.06277 -1.490827,0.169934 -2.162995,0.155478 -0.229519,-0.0049 -0.580412,-0.04098 -0.779763,-0.08009 z M 48.94382,15.892815 c -0.09011,-0.02255 -0.663284,-0.201632 -1.273729,-0.39796 -2.709515,-0.871416 -4.476665,-2.281579 -5.077453,-4.051744 -0.449455,-1.324277 0.120902,-2.9493239 1.468943,-4.1852787 1.693004,-1.5522347 3.730334,-2.387137 7.109884,-2.9136456 1.383473,-0.2155346 4.863584,-0.1901924 6.327939,0.04608 1.958423,0.3159901 3.555478,0.8120688 5.028133,1.5618432 1.680091,0.8553861 2.663998,1.8521002 3.128903,3.1696285 0.262831,0.7448591 0.259996,0.8516539 -0.02257,0.8500805 C 65.299691,9.9699564 65.236354,9.9006557 65.042264,9.3245081 64.829948,8.6942591 64.547116,8.272027 63.961695,7.7113595 63.379505,7.1537855 62.90236,6.8424196 61.901564,6.367 60.486406,5.6947415 59.142443,5.2973868 57.320139,5.012461 56.168518,4.8323997 53.258247,4.7635503 52.083602,4.8885782 50.814465,5.0236638 48.851307,5.422721 47.960848,5.7266234 c -3.431261,1.1710462 -5.478795,3.62885 -4.713041,5.6574036 0.398294,1.055116 1.409469,2.054545 2.802819,2.77026 0.850309,0.436774 2.619385,1.05663 3.096891,1.085101 0.28626,0.01707 0.287637,0.01901 0.259063,0.365295 -0.0297,0.359872 -0.07167,0.386007 -0.46276,0.28813 z"
       id="path5"
       sodipodi:nodetypes="sscsssscssssscssssssssssscsssssssssssssssssssssss" /><path
       style="fill:#64308d"
       d="m 51.047082,24.165894 -0.354168,-0.03165 0.845654,-0.637306 c 1.319283,-0.994243 1.758126,-1.573001 1.847211,-2.43615 0.05705,-0.552803 0.0098,-0.609148 -1.031922,-1.231577 -1.042584,-0.622917 -2.16833,-1.725386 -2.54016,-2.487638 -1.097995,-2.250886 0.07929,-4.600433 3.043677,-6.074357 3.816604,-1.8976559 9.2384,-2.2914131 13.934684,-1.012004 2.633021,0.717314 4.748762,2.195037 5.622001,3.926644 l 0.366836,0.727424 v 0.910863 c 0,0.876976 -0.01066,0.932195 -0.286517,1.484263 -0.576405,1.153548 -2.10244,2.455241 -3.626167,3.093086 -1.369562,0.573309 -3.158303,1.03827 -5.01598,1.303839 -0.918426,0.131296 -4.410558,0.133435 -5.340421,0.0033 l -0.671303,-0.09397 -0.762198,0.759693 c -0.663128,0.660949 -0.873992,0.814731 -1.622298,1.183131 -1.132465,0.557525 -1.660302,0.673547 -2.989874,0.65719 -0.585687,-0.0072 -1.224262,-0.02734 -1.419055,-0.04475 z m 2.934471,-0.697622 c 1.200601,-0.29239 2.540207,-1.221629 3.317531,-2.301258 l 0.163828,-0.227543 1.205907,0.127933 c 3.277847,0.347741 6.441343,0.01082 9.279129,-0.988251 2.243448,-0.789829 3.899648,-2.275826 4.224448,-3.790313 0.253549,-1.18226 -0.57678,-2.696526 -2.076904,-3.787631 -1.543922,-1.122963 -3.236567,-1.724129 -6.120389,-2.173741 -1.159746,-0.180814 -4.290921,-0.20169 -5.488261,-0.03659 -2.050533,0.282744 -3.609437,0.722341 -5.15538,1.453773 -2.062424,0.975793 -3.095456,2.159523 -3.264922,3.741202 -0.03709,0.346163 -0.04384,0.65735 -0.01501,0.691527 0.02884,0.03418 0.0988,0.228017 0.155474,0.430755 0.243581,0.87133 1.243574,1.935491 2.568376,2.733185 1.154657,0.695245 1.356056,0.981296 1.260277,1.79 -0.07565,0.638724 -0.4748,1.396673 -1.055635,2.004544 l -0.513888,0.537808 0.573401,-0.05781 c 0.31537,-0.0318 0.739277,-0.09821 0.942015,-0.147585 z"
       id="path4"
       sodipodi:nodetypes="ccsscsssscssssccsssccsscssssssssssssscsss" /><path
       style="fill:#211e1f"
       d="m 66.616113,35.87269 -0.185035,-0.02627 0.02121,-4.274232 0.02121,-4.274232 h 0.901058 0.901058 l 0.02398,0.451414 0.02398,0.451414 0.416025,-0.390584 c 0.513939,-0.482512 1.085129,-0.674566 1.828711,-0.614878 1.719958,0.138061 2.836398,1.624021 2.72352,3.624951 -0.06711,1.189641 -0.463532,2.046107 -1.210837,2.616009 -0.528154,0.402776 -0.993756,0.555471 -1.716566,0.562952 -0.731839,0.0076 -1.299883,-0.205821 -1.729889,-0.649861 l -0.277013,-0.286054 -0.04096,1.404121 -0.04096,1.404121 -0.737229,0.0137 c -0.405476,0.0075 -0.820495,0.0019 -0.922264,-0.01257 z m 3.684329,-3.458693 c 1.226585,-0.340657 1.624709,-2.271071 0.661412,-3.207041 -0.362686,-0.352398 -0.646659,-0.4755 -1.096882,-0.4755 -0.445504,0 -0.806967,0.166979 -1.110967,0.513216 -0.703356,0.801078 -0.610701,2.291038 0.179975,2.894116 0.446357,0.340454 0.843522,0.420443 1.366462,0.275209 z m -57.789299,1.557777 c -1.118491,-0.281692 -1.696978,-1.081803 -1.59503,-2.2061 0.143433,-1.581811 1.64164,-2.204001 4.024089,-1.671161 0.235902,0.05276 0.236417,0.052 0.180051,-0.26598 -0.07279,-0.410625 -0.27549,-0.692325 -0.627237,-0.871685 -0.392002,-0.199887 -1.381107,-0.191672 -2.051701,0.01704 -0.28366,0.08828 -0.524339,0.151926 -0.53484,0.141424 -0.06337,-0.06337 -0.423487,-1.324798 -0.392514,-1.374913 0.02076,-0.03359 0.286155,-0.146876 0.589773,-0.251755 0.479096,-0.165496 0.708962,-0.19069 1.73979,-0.19069 1.065943,0 1.229763,0.01932 1.597329,0.18835 0.535799,0.246397 0.968587,0.676685 1.202342,1.195396 0.180481,0.400493 0.189724,0.520747 0.216338,2.814364 l 0.0278,2.395994 h -0.86659 -0.866591 v -0.327657 c 0,-0.180211 -0.02059,-0.327657 -0.04576,-0.327657 -0.02517,0 -0.18183,0.10892 -0.348136,0.242045 -0.166307,0.133124 -0.443356,0.300645 -0.615666,0.372267 -0.389962,0.162092 -1.224327,0.223755 -1.633448,0.120717 z m 1.994172,-1.393648 c 0.411737,-0.210053 0.648133,-0.588394 0.648532,-1.037947 2.98e-4,-0.335956 -0.0088,-0.347541 -0.34783,-0.442961 -0.52731,-0.148412 -1.363962,-0.128 -1.685697,0.04113 -0.323827,0.170227 -0.538613,0.614414 -0.463177,0.957871 0.02839,0.129274 0.162327,0.328193 0.29763,0.442043 0.323255,0.272002 1.058468,0.290906 1.550542,0.03987 z m 10.825486,1.391213 c -0.547337,-0.07574 -0.96564,-0.386815 -1.193483,-0.887538 -0.155294,-0.341284 -0.174796,-0.562176 -0.203273,-2.302487 l -0.0315,-1.924987 -0.360393,0.02873 -0.360393,0.02873 v -0.827392 -0.827391 l 0.389093,1.78e-4 0.389093,1.79e-4 -0.02592,-0.819322 -0.02592,-0.819322 H 24.861 25.813896 l -0.02592,0.819322 -0.02592,0.819322 0.757708,-1.79e-4 0.757707,-1.78e-4 v 0.824957 0.824956 l -0.737417,-0.02629 -0.737417,-0.02629 1.88e-4,1.582237 c 1.08e-4,0.910451 0.03539,1.648011 0.0831,1.737154 0.118673,0.221742 0.584819,0.286184 1.024082,0.141572 l 0.367466,-0.120974 v 0.730606 0.730607 l -0.348136,0.149338 c -0.425263,0.182423 -1.023804,0.244007 -1.598539,0.164472 z m 13.209898,-0.02178 c -1.228596,-0.314382 -2.145026,-1.265164 -2.406285,-2.496482 -0.357549,-1.685137 0.405282,-3.335559 1.855979,-4.0155 0.41016,-0.192242 0.570229,-0.219535 1.287535,-0.219535 0.729701,0 0.874904,0.02576 1.329823,0.235874 1.1595,0.535553 1.900428,1.916359 1.808633,3.370598 l -0.02571,0.40733 -2.278229,0.02178 -2.278229,0.02178 0.05403,0.183003 c 0.351902,1.191965 1.83375,1.484938 3.027973,0.598652 0.152546,-0.113211 0.199805,-0.0893 0.686254,0.347236 l 0.522426,0.46882 -0.348491,0.314841 c -0.583057,0.526757 -1.284208,0.804433 -2.115621,0.837846 -0.408598,0.01642 -0.88455,-0.01598 -1.120084,-0.07625 z m 2.087016,-4.007866 c -0.0031,-0.313878 -0.294086,-0.846799 -0.569538,-1.042938 -0.278385,-0.198228 -0.840093,-0.301351 -1.178633,-0.216383 -0.309118,0.07758 -0.713336,0.45645 -0.881146,0.825882 -0.289599,0.637551 -0.329306,0.617747 1.238573,0.617747 1.390043,0 1.39254,-3.31e-4 1.390744,-0.184308 z m 9.760325,3.994738 c -0.562971,-0.127304 -1.410836,-0.496844 -1.714376,-0.747207 l -0.188242,-0.155264 0.377019,-0.589118 0.37702,-0.589118 0.400612,0.23621 c 1.171696,0.690856 2.45745,0.690862 2.45745,1.1e-5 0,-0.311734 -0.1933,-0.437585 -1.131468,-0.736662 -1.673982,-0.533646 -2.145106,-0.998895 -2.145106,-2.118355 0,-1.000839 0.676155,-1.750063 1.792572,-1.986288 0.777662,-0.164546 2.079584,0.108553 2.791756,0.585616 l 0.189184,0.126729 -0.347845,0.633791 -0.347845,0.633791 -0.257274,-0.149577 c -0.633458,-0.368286 -1.463808,-0.562456 -1.82235,-0.426138 -0.269266,0.102374 -0.356892,0.213539 -0.358657,0.455002 -0.002,0.266933 0.224376,0.413528 1.191247,0.771588 1.68964,0.625721 2.143546,1.113541 2.064471,2.218719 -0.0311,0.434686 -0.09617,0.659415 -0.276751,0.955836 -0.474832,0.779421 -1.803184,1.162694 -3.051417,0.880434 z M 3.440402,29.585777 v -4.306283 l 2.273123,0.02626 c 2.2646509,0.02616 2.2748558,0.02707 2.737999,0.244184 0.6574979,0.308223 1.148092,0.790769 1.4234434,1.40009 0.1966156,0.435088 0.2320256,0.622207 0.2363586,1.248987 0.007,1.019092 -0.16836,1.498159 -0.765729,2.091381 -0.775188,0.769807 -1.4166481,0.978 -3.0177144,0.979434 l -1.085365,9.73e-4 v 1.310629 1.310629 H 4.3414598 3.440402 Z m 4.0940435,-0.137571 c 0.5379661,-0.274887 0.6979456,-0.542445 0.6979456,-1.167279 0,-0.624834 -0.1599795,-0.892392 -0.6979456,-1.167279 C 7.2207096,26.953336 7.0480289,26.92934 6.2081329,26.92934 H 5.2425176 v 1.351587 1.351587 h 0.9656153 c 0.839896,0 1.0125767,-0.024 1.3263126,-0.184308 z m 10.9977455,1.146801 0.02141,-3.297052 0.877222,-0.02322 0.877222,-0.02322 0.02384,0.678531 0.02383,0.67853 0.222134,-0.377858 c 0.399509,-0.679582 0.982647,-1.05386 1.644017,-1.055186 l 0.227864,-4.57e-4 -0.02308,0.962494 -0.02308,0.962493 -0.441361,0.05387 c -0.846118,0.103264 -1.397519,0.719183 -1.566229,1.749485 -0.04415,0.269637 -0.08049,1.052387 -0.08075,1.739444 l -4.74e-4,1.249193 H 19.41277 18.510783 Z m 10.219743,-0.02048 v -3.317531 h 0.901058 0.901058 v 0.460961 0.460962 l 0.359247,-0.331142 c 0.494034,-0.455385 0.817642,-0.605486 1.407458,-0.652831 0.694517,-0.05575 1.267676,0.143203 1.722315,0.597842 0.566969,0.566969 0.606697,0.806422 0.606697,3.656707 v 2.442562 H 33.74871 32.847652 V 31.79998 c 0,-1.901514 -0.0143,-2.119762 -0.157017,-2.395994 -0.189526,-0.366839 -0.390033,-0.498249 -0.848225,-0.555917 -0.434015,-0.05462 -0.843113,0.142178 -1.10242,0.530337 -0.181338,0.271446 -0.18594,0.330748 -0.18594,2.395994 v 2.117659 h -0.901058 -0.901058 z m 15.154154,0 v -3.317531 h 0.901058 0.901058 l 0.0033,0.675793 c 0.0032,0.669393 0.0045,0.673466 0.135372,0.43005 0.385133,-0.716496 1.034855,-1.185139 1.645585,-1.186957 l 0.268822,-8.01e-4 -0.02308,0.962494 -0.02308,0.962493 -0.368614,0.0449 c -0.570018,0.06944 -0.975481,0.306207 -1.240787,0.724551 -0.355421,0.560442 -0.396547,0.818009 -0.397043,2.48664 l -4.57e-4,1.535893 H 44.807164 43.906106 Z M 55.128353,29.386769 V 24.88148 h 0.901058 0.901058 v 1.638287 c 0,0.901057 0.02026,1.638287 0.04502,1.638287 0.02476,0 0.181421,-0.132773 0.348136,-0.295051 0.516662,-0.502911 0.869959,-0.644053 1.613749,-0.644693 0.972243,-8.37e-4 1.565431,0.359463 1.951751,1.185487 0.161398,0.345096 0.174277,0.531933 0.201859,2.928437 l 0.02946,2.559823 h -0.90723 -0.907229 l -4.57e-4,-1.945465 c -4.96e-4,-2.11215 -0.05043,-2.459487 -0.404512,-2.813566 -0.478181,-0.47818 -1.410412,-0.343329 -1.761819,0.254855 -0.155278,0.264322 -0.169671,0.442652 -0.193284,2.394882 l -0.02551,2.109294 h -0.896024 -0.896024 z m 7.719498,1.208236 0.02141,-3.297052 h 0.901058 0.901058 l 0.02141,3.297052 0.02141,3.297052 H 63.770324 62.82645 Z m -0.01955,-4.894382 V 24.88148 h 0.942015 0.942015 v 0.819143 0.819144 h -0.942015 -0.942015 z m -50.56589,-3.476767 c -0.831963,-0.296755 -1.278707,-0.867834 -1.347292,-1.722263 -0.07772,-0.96823 0.306889,-1.634331 1.167245,-2.021543 0.666353,-0.299899 2.18401,-0.311034 2.93837,-0.02156 0.185406,0.07115 0.173631,-0.238449 -0.02577,-0.677649 -0.333604,-0.734786 -1.272984,-0.859437 -2.926997,-0.388397 -0.162139,0.04617 -0.197261,-0.0095 -0.389093,-0.616751 -0.115976,-0.367129 -0.210865,-0.680032 -0.210865,-0.695341 0,-0.06486 0.661257,-0.282691 1.262483,-0.415884 0.47989,-0.106314 0.851985,-0.13219 1.433501,-0.09969 1.159687,0.06481 1.841798,0.381141 2.263978,1.049917 0.386981,0.613018 0.446385,1.072271 0.446385,3.451048 v 2.194477 h -0.860101 -0.860101 v -0.327658 c 0,-0.180211 -0.02417,-0.327657 -0.0537,-0.327657 -0.02954,0 -0.181334,0.09735 -0.337326,0.21633 -0.641246,0.489102 -1.755369,0.668478 -2.500711,0.40262 z m 1.936982,-1.198793 c 0.173203,-0.04809 0.445194,-0.206836 0.604424,-0.35276 0.241852,-0.22164 0.296203,-0.334967 0.330166,-0.688419 0.03894,-0.405295 0.03074,-0.427021 -0.194853,-0.51618 -0.359569,-0.142109 -1.280098,-0.18932 -1.604416,-0.08228 -0.442646,0.146086 -0.678949,0.447457 -0.678949,0.8659 0,0.683399 0.666267,1.017365 1.543628,0.773744 z m 11.139075,1.162998 c -1.220222,-0.45176 -2.011909,-1.457576 -2.14772,-2.728618 -0.126981,-1.188409 0.164293,-2.177182 0.863989,-2.932937 0.76016,-0.821063 1.724461,-1.157746 2.826294,-0.986791 1.482113,0.229958 2.391493,1.270322 2.606395,2.981813 0.03996,0.318213 0.05208,0.681383 0.02695,0.807044 l -0.04569,0.228476 H 27.22628 c -2.530012,0 -2.421597,-0.03346 -2.034086,0.627777 0.279408,0.476772 0.727587,0.703331 1.391336,0.703331 0.527202,0 1.131526,-0.206599 1.338812,-0.457695 0.173639,-0.210339 0.27468,-0.170484 0.795853,0.313914 l 0.484268,0.450098 -0.356484,0.326148 c -0.196067,0.179382 -0.564681,0.428236 -0.819144,0.553011 -0.406997,0.199569 -0.571062,0.229533 -1.363716,0.249058 -0.724963,0.01786 -0.983841,-0.0085 -1.32465,-0.134629 z m 2.3921,-4.003079 c -0.163962,-0.657737 -0.487166,-1.022053 -1.0384,-1.170485 -0.782127,-0.210605 -1.458283,0.25863 -1.74566,1.211443 l -0.05559,0.184307 h 1.447901 1.447902 z M 39.948298,22.2283 C 39.552376,22.080964 39.3469,21.894513 39.125886,21.482037 38.962776,21.177625 38.948412,21.013453 38.923418,19.167956 l -0.0269,-1.986422 h -0.406247 -0.406247 l 0.02355,-0.757708 0.02355,-0.757708 0.389093,-0.02497 0.389093,-0.02497 V 14.760572 13.90496 h 0.901058 0.901058 v 0.860101 0.8601 h 0.778186 0.778186 v 0.778186 0.778187 h -0.778186 -0.778186 v 1.511561 c 0,1.624287 0.05353,1.898036 0.387533,1.981866 0.213046,0.05347 0.796569,1.56e-4 1.025489,-0.0937 0.130258,-0.0534 0.14335,0.0086 0.14335,0.678329 v 0.737098 l -0.348136,0.14371 c -0.465235,0.192049 -1.560297,0.240877 -1.971366,0.0879 z M 3.440402,17.912818 v -4.347404 l 2.1912087,0.02886 c 2.0332971,0.02678 2.223959,0.04194 2.6456573,0.21042 0.9591693,0.383212 1.5133829,1.007333 1.764332,1.986881 0.346775,1.353598 -0.2121512,2.738203 -1.3501907,3.344772 -0.6584311,0.35094 -1.4074081,0.499469 -2.5273554,0.501198 l -0.9215363,0.0014 v 1.310629 1.31063 H 4.3414598 3.440402 Z M 7.5964526,17.766194 C 8.4761155,17.316789 8.5051988,15.965924 7.6455852,15.484069 7.3667655,15.327777 7.1766887,15.298803 6.3021451,15.279283 l -1.0186704,-0.02274 -0.022704,1.266233 c -0.012487,0.696428 -0.0025,1.318885 0.022195,1.383238 0.075702,0.197276 1.8653708,0.08911 2.3134864,-0.139824 z m 10.9161884,1.176498 v -3.317531 h 0.901058 0.901058 v 0.614358 c 0,0.649912 0.07916,0.770788 0.244058,0.372682 0.121769,-0.293975 0.584268,-0.782173 0.886082,-0.935316 0.121795,-0.0618 0.396539,-0.13784 0.61054,-0.168978 l 0.389093,-0.05661 v 0.987991 0.987992 h -0.225805 c -0.70181,0 -1.25266,0.363823 -1.594848,1.053359 l -0.258509,0.520916 -0.03576,1.629336 -0.03576,1.629335 h -0.890602 -0.890603 z m 12.450981,0 v -3.317531 h 0.901058 0.901057 v 0.461738 0.461739 l 0.411306,-0.384729 c 0.547882,-0.512479 0.890021,-0.650635 1.595596,-0.6443 0.940705,0.0084 1.578145,0.400544 1.935122,1.190321 0.189477,0.4192 0.195335,0.498685 0.220397,2.99047 l 0.02575,2.559823 h -0.900295 -0.900295 l -0.02826,-2.150252 c -0.02149,-1.634927 -0.05575,-2.20472 -0.142967,-2.377527 -0.173665,-0.344103 -0.570036,-0.55091 -1.055886,-0.55091 -0.347091,0 -0.464736,0.04145 -0.69734,0.245675 -0.409837,0.359842 -0.463121,0.69388 -0.463121,2.903343 v 1.929671 H 31.86468 30.963622 Z"
       id="path3"
       sodipodi:nodetypes="ccccccccsssscsccccscssssssssssssssssssscccsssssssssssssscsscccccccccccccccccccssscccsccsssscscccssscsssscsssscsscccsssssscccsscssssccssscssccccccsssscccssccccccsscccsssccccccccccsssscccsssssccccccccccscccsssccccccccsssssscccssssccccccccccccccccccccccssssscsssssscccssssssssscssssssssscssssscsssssssscccsssscccccccccccccccccccsssscsssccssssccccccccsscssccccccsssscccssccccccccccccscsscccssssscccc" /></g></svg>
