<?xml version="1.0" encoding="UTF-8" standalone="no"?>
<!-- Created with Inkscape (http://www.inkscape.org/) -->

<svg
   width="500"
   height="120"
   viewBox="0 0 132.29166 31.75"
   version="1.1"
   id="svg1"
   xml:space="preserve"
   inkscape:version="1.4 (86a8ad7, 2024-10-11)"
   sodipodi:docname="pcb-banner.svg"
   xmlns:inkscape="http://www.inkscape.org/namespaces/inkscape"
   xmlns:sodipodi="http://sodipodi.sourceforge.net/DTD/sodipodi-0.dtd"
   xmlns="http://www.w3.org/2000/svg"
   xmlns:svg="http://www.w3.org/2000/svg"><sodipodi:namedview
     id="namedview1"
     pagecolor="#ffffff"
     bordercolor="#111111"
     borderopacity="1"
     inkscape:showpageshadow="0"
     inkscape:pageopacity="0"
     inkscape:pagecheckerboard="1"
     inkscape:deskcolor="#d1d1d1"
     inkscape:document-units="px"
     inkscape:zoom="1.5714646"
     inkscape:cx="100.22497"
     inkscape:cy="80.816327"
     inkscape:window-width="1920"
     inkscape:window-height="1115"
     inkscape:window-x="-9"
     inkscape:window-y="-9"
     inkscape:window-maximized="1"
     inkscape:current-layer="layer1" /><defs
     id="defs1" /><g
     inkscape:label="Layer 1"
     inkscape:groupmode="layer"
     id="layer1"
     transform="translate(215.59338,-72.959905)"><path
       id="path31"
       style="fill:#3b97d2;fill-opacity:1;stroke-width:0.199831"
       d="m -89.850783,84.30232 c -0.09725,-0.01241 -0.17465,0.1996 -1.503657,3.487813 -0.885801,2.191639 -1.225067,2.974028 -1.344629,3.100981 -0.213085,0.226256 -0.526635,0.307179 -1.02853,0.265394 -0.483139,-0.04022 -0.584459,-0.122245 -0.64087,-0.518704 -0.05693,-0.400069 -0.05455,-5.36777 0.0027,-5.614481 0.06482,-0.279429 0.14677,-0.346497 0.47079,-0.384871 0.215534,-0.02553 0.273168,-0.05153 0.260438,-0.117622 -0.01451,-0.07532 -0.170949,-0.08488 -1.390273,-0.08488 -1.186049,0 -1.373957,0.01085 -1.373957,0.07931 2e-6,0.04489 0.05737,0.08656 0.132181,0.09604 0.0727,0.0092 0.218553,0.03906 0.324154,0.0664 0.340018,0.08802 0.336744,0.05701 0.336543,3.194952 -2e-4,3.156496 -3.99e-4,3.157169 -0.33386,3.249786 -0.107063,0.02974 -0.24819,0.05426 -0.313618,0.05442 -0.108759,2e-4 -0.160715,0.09933 -0.08953,0.170596 0.01619,0.0162 1.193923,0.02956 2.617179,0.02974 2.505455,4e-4 2.587748,-0.0028 2.587748,-0.09986 0,-0.08173 -0.0391,-0.100272 -0.211491,-0.100272 -0.143215,0 -0.246698,-0.03532 -0.320641,-0.109256 -0.139967,-0.139969 -0.122108,-0.224021 0.260644,-1.225565 l 0.297925,-0.779555 1.037719,-1.99e-4 c 0.76748,-1.88e-4 1.051315,0.0169 1.08977,0.06578 0.10257,0.130369 0.760244,1.903532 0.732673,1.975377 -0.01548,0.04038 -0.06462,0.07342 -0.109153,0.07342 -0.150684,0 -0.08214,0.145165 0.08427,0.178445 0.212383,0.04252 2.12579,0.04337 2.236125,9.6e-4 0.189949,-0.07289 0.07667,-0.166565 -0.245566,-0.203023 -0.291698,-0.033 -0.351548,-0.06072 -0.525419,-0.2435 -0.262536,-0.27598 -0.346727,-0.462125 -1.552501,-3.433913 -1.232571,-3.037824 -1.279143,-3.140135 -1.440567,-3.163042 -0.0184,-0.0026 -0.03268,-0.0089 -0.04657,-0.01073 z m -60.780097,0.0014 c -0.0526,0 -0.10342,0.05107 -0.11835,0.118962 -0.0144,0.06543 -0.0482,1.510824 -0.0753,3.211992 -0.034,2.137641 -0.0686,3.145674 -0.11183,3.263624 -0.0655,0.178493 -0.27771,0.27791 -0.59502,0.278509 -0.10812,2.01e-4 -0.1454,0.02631 -0.1454,0.101924 0,0.09748 0.0524,0.101744 1.26893,0.102543 0.75695,6e-4 1.26894,-0.0191 1.26894,-0.04874 0,-0.02732 9.6e-4,-0.06752 0.002,-0.08933 9.6e-4,-0.02181 -0.14518,-0.06345 -0.3254,-0.09252 -0.44988,-0.07259 -0.5156,-0.169753 -0.57509,-0.849675 -0.0252,-0.288794 -0.0622,-1.284514 -0.082,-2.212685 l -0.0361,-1.687575 1.65238,1.687575 c 0.90882,0.928171 2.04758,2.07511 2.53053,2.548714 0.93565,0.917527 1.05384,0.987387 1.11993,0.662246 0.0188,-0.09269 0.0502,-1.436972 0.0697,-2.987286 0.0195,-1.550312 0.0496,-2.945755 0.0669,-3.101082 0.0424,-0.38153 0.18212,-0.538804 0.51137,-0.575917 0.19473,-0.02195 0.24816,-0.0478 0.23545,-0.113798 -0.0146,-0.07562 -0.15509,-0.0853 -1.23103,-0.0853 -1.11474,0 -1.21613,0.0076 -1.23249,0.09253 -0.0144,0.07472 0.0211,0.093 0.18433,0.09541 0.32442,0.0048 0.56212,0.110554 0.64696,0.287805 0.0736,0.153736 0.15295,2.171073 0.1581,4.018395 l 0.002,0.634468 -0.13589,-0.158616 c -0.48243,-0.563081 -4.97854,-5.102177 -5.05386,-5.102177 z m 19.05374,0.0038 c -0.31842,7.99e-4 -0.62718,0.02543 -0.82973,0.07817 -1.03029,0.268285 -1.57683,1.151384 -1.32377,2.13916 0.16509,0.644424 0.51937,1.083937 1.53432,1.903609 0.66861,0.539966 0.8628,0.762283 0.99186,1.135515 0.11434,0.33063 0.11742,0.505494 0.0132,0.754877 -0.2339,0.559821 -0.89642,0.82235 -1.57645,0.624657 -0.51086,-0.148512 -0.80536,-0.547091 -0.91133,-1.233619 -0.026,-0.168302 -0.0587,-0.224706 -0.1299,-0.224706 -0.12388,0 -0.16796,0.34397 -0.14562,1.136134 l 0.0164,0.580976 0.15862,0.07663 c 0.0873,0.04214 0.27758,0.105791 0.42298,0.141474 0.32456,0.07964 1.34387,0.09065 1.65958,0.01787 0.62439,-0.14394 1.17992,-0.569782 1.4159,-1.085223 0.17509,-0.38245 0.22036,-0.982955 0.10667,-1.414025 -0.16959,-0.643035 -0.53839,-1.081185 -1.63183,-1.938823 -0.35219,-0.276257 -0.71,-0.599937 -0.79513,-0.719248 -0.51247,-0.718283 -0.0785,-1.503548 0.82901,-1.500251 0.19502,7.99e-4 0.40268,0.03902 0.53368,0.09852 0.27606,0.125388 0.59421,0.496853 0.6353,0.741657 0.0546,0.325196 0.0812,0.381336 0.17256,0.36391 0.075,-0.0143 0.0928,-0.122788 0.12072,-0.729989 0.0269,-0.584822 0.0191,-0.724249 -0.0432,-0.774496 -0.13592,-0.109722 -0.69322,-0.174184 -1.22392,-0.172763 z m 22.57151,3.99e-4 c -0.0634,-0.0024 -0.12426,0.03135 -0.16203,0.101924 -0.0313,0.0584 -0.59338,1.432414 -1.2491,3.053373 -0.65571,1.62096 -1.25546,3.065113 -1.33285,3.20931 -0.16562,0.30857 -0.37172,0.443279 -0.7461,0.487621 -0.21121,0.02502 -0.26818,0.05117 -0.25549,0.117104 0.0144,0.0747 0.16048,0.0857 1.21845,0.09201 1.14508,0.0068 1.20212,0.0024 1.20212,-0.09253 0,-0.08059 -0.0394,-0.09965 -0.2056,-0.09965 -0.12083,0 -0.25517,-0.04017 -0.3257,-0.09728 -0.11361,-0.09199 -0.11656,-0.111102 -0.0548,-0.356887 0.0359,-0.142831 0.18828,-0.574865 0.33871,-0.960171 l 0.27355,-0.700558 h 1.03793 c 0.76763,0 1.05127,0.0172 1.08936,0.06609 0.10315,0.132402 0.76496,1.936281 0.7307,1.991696 -0.0194,0.03137 -0.0695,0.0571 -0.11142,0.0571 -0.15311,0 -0.0722,0.147561 0.0985,0.17958 0.28065,0.05265 4.68953,0.02857 4.68953,-0.02561 0,-0.02655 9.6e-4,-0.06607 0.002,-0.08788 0.001,-0.02181 -0.14517,-0.06345 -0.3254,-0.09252 -0.44988,-0.07259 -0.5156,-0.169752 -0.57509,-0.849673 -0.0253,-0.288795 -0.0615,-1.28637 -0.0805,-2.21692 l -0.0345,-1.691912 0.93146,0.962234 c 0.51232,0.529264 1.64478,1.678905 2.51659,2.554702 1.801532,1.809748 1.793634,1.804609 1.860244,1.215131 0.02136,-0.189018 0.0585,-1.640362 0.08251,-3.225208 0.03357,-2.216294 0.05981,-2.91455 0.113799,-3.024358 0.07502,-0.152561 0.291721,-0.253724 0.543285,-0.253724 0.118769,0 0.150514,-0.02144 0.136826,-0.09252 -0.01635,-0.08491 -0.117742,-0.09253 -1.232481,-0.09253 -1.114733,0 -1.216013,0.0076 -1.232373,0.09253 -0.0141,0.07309 0.019,0.09253 0.157784,0.09274 0.09664,1.63e-4 0.264926,0.02507 0.373929,0.05535 0.353103,0.09806 0.36892,0.174645 0.415129,2.006461 0.02238,0.886932 0.0424,1.892768 0.0442,2.2353 l 0.0035,0.622799 -0.674122,-0.700867 c -2.07805,-2.160435 -4.42151,-4.512274 -4.51078,-4.526982 -0.0565,-0.0093 -0.11343,0.01449 -0.1264,0.05288 -0.013,0.03839 -0.0466,1.485464 -0.0748,3.21571 -0.0351,2.155654 -0.0707,3.199755 -0.11328,3.317014 -0.0497,0.136983 -0.10598,0.182984 -0.28191,0.230696 -0.296,0.08026 -0.86892,0.02393 -1.03887,-0.10213 -0.32636,-0.242096 -0.34558,-0.283635 -1.87592,-4.053611 -0.543,-1.337671 -1.02177,-2.485659 -1.06396,-2.551088 -0.0476,-0.07379 -0.11341,-0.112337 -0.17679,-0.114729 z m -32.96246,0.0222 c -0.10907,0 -0.11338,0.02741 -0.14561,0.925261 -0.0182,0.508896 -0.038,1.603356 -0.044,2.432128 -0.006,0.828774 -0.0277,1.893882 -0.0486,2.366963 -0.0441,1.00437 -0.0614,1.040397 -0.53513,1.108563 -0.20327,0.02925 -0.2908,0.06559 -0.2908,0.120512 0,0.06733 0.18139,0.07859 1.26822,0.07859 1.12226,0 1.27005,-0.0098 1.28453,-0.08488 0.013,-0.06707 -0.0459,-0.09135 -0.28047,-0.115556 -0.60956,-0.06291 -0.61014,-0.06512 -0.68104,-2.667055 l -0.0579,-2.12718 0.70902,0.7525 c 0.38996,0.413879 1.52371,1.569443 2.5195,2.567817 1.48748,1.491352 1.83263,1.812087 1.93459,1.797659 0.12265,-0.01737 0.12455,-0.0277 0.16285,-0.889949 0.0213,-0.479817 0.0576,-1.943056 0.0806,-3.251644 0.0297,-1.686841 0.0604,-2.412345 0.10554,-2.492744 0.0712,-0.126893 0.31971,-0.230181 0.55351,-0.230181 0.11878,0 0.1504,-0.02145 0.13672,-0.09252 -0.0162,-0.08459 -0.12312,-0.09345 -1.24631,-0.10306 -1.18618,-0.01015 -1.22857,-0.0069 -1.22857,0.09252 0,0.08094 0.0369,0.103069 0.17184,0.103268 0.0946,1.64e-4 0.26296,0.02566 0.37434,0.05659 0.33761,0.09374 0.35,0.164332 0.40605,2.31244 0.0271,1.037802 0.0499,2.040349 0.0507,2.227866 l 0.002,0.340985 -0.83274,-0.869708 c -2.30661,-2.408933 -4.26109,-4.359174 -4.36856,-4.359174 z m -10.91803,0.01177 -0.22811,0.04698 c -0.12544,0.02582 -1.11984,0.04698 -2.2099,0.04698 -1.84547,0 -1.98319,0.0063 -1.99984,0.09253 -0.0141,0.07309 0.0189,0.09253 0.15778,0.09274 0.29198,3.99e-4 0.56779,0.102322 0.66049,0.243811 0.0759,0.115912 0.09,0.386333 0.10946,2.098988 0.0123,1.081296 8.4e-4,2.397932 -0.0254,2.925839 -0.0569,1.144505 -0.0829,1.211901 -0.48947,1.265838 -0.23109,0.03065 -0.32418,0.10263 -0.24072,0.186086 0.013,0.01299 0.97331,0.02918 2.1341,0.03604 1.67955,0.0099 2.12214,-0.0016 2.16755,-0.05629 0.0753,-0.09072 0.16793,-0.673789 0.16843,-1.060337 3.2e-4,-0.252177 -0.0147,-0.304806 -0.0829,-0.290797 -0.0471,0.0097 -0.12559,0.142678 -0.18103,0.306805 -0.16479,0.487887 -0.43466,0.607151 -1.29516,0.572298 -0.55285,-0.0224 -0.81875,-0.108277 -0.90358,-0.291726 -0.024,-0.05196 -0.0526,-0.659533 -0.0635,-1.350204 -0.0179,-1.140432 -0.0115,-1.258914 0.0695,-1.290003 0.0491,-0.01883 0.41101,-0.01141 0.80445,0.01643 0.68601,0.04854 0.72047,0.05651 0.84028,0.195791 0.0856,0.09959 0.12494,0.210801 0.12494,0.353791 0,0.169869 0.0187,0.208597 0.10078,0.208597 0.0808,0 0.10669,-0.04973 0.13044,-0.251143 0.062,-0.525728 0.0952,-1.224504 0.061,-1.279984 -0.0233,-0.03774 -0.0887,-0.01321 -0.18837,0.07064 -0.12818,0.107868 -0.23141,0.134112 -0.64374,0.163883 -0.27009,0.01951 -0.66949,0.02781 -0.88758,0.01838 l -0.39654,-0.01714 v -1.216064 -1.216062 l 0.68733,0.01653 c 1.04892,0.0253 1.21533,0.102184 1.28102,0.59192 0.0216,0.16082 0.0506,0.211868 0.11359,0.199717 0.0932,-0.01794 0.12672,-0.189337 0.18764,-0.960891 z m 29.58494,0.08271 c -0.15013,-7.99e-4 -0.34561,4e-4 -0.59998,0.0025 -1.14791,0.0092 -1.33693,0.05219 -0.94654,0.215311 0.33843,0.1414 0.30304,0.246836 -0.67153,2.002949 l -0.60999,1.099166 -0.18371,-0.306081 c -0.41782,-0.696117 -1.27865,-2.225817 -1.375,-2.443381 -0.0998,-0.225327 -0.10007,-0.236424 -0.008,-0.304015 0.0528,-0.03858 0.12706,-0.07012 0.16512,-0.07012 0.038,0 0.0692,-0.04485 0.0692,-0.09965 0,-0.09494 -0.0579,-0.0993 -1.22928,-0.09252 -0.97889,0.0057 -1.22927,0.02129 -1.22927,0.07683 0,0.03836 0.12646,0.112569 0.28109,0.164916 0.35786,0.121147 0.57238,0.32908 0.98526,0.955006 0.56197,0.851982 1.46412,2.37244 1.56468,2.63711 0.12648,0.332858 0.17141,1.087858 0.11587,1.947393 -0.0528,0.817618 -0.0923,0.893018 -0.49579,0.946537 -0.22927,0.03041 -0.31589,0.102535 -0.22831,0.190114 0.0157,0.01574 0.67567,0.02574 1.46649,0.0221 1.28307,-0.0059 1.4397,-0.01591 1.45448,-0.09274 0.0134,-0.06976 -0.0505,-0.09333 -0.33715,-0.124025 -0.52636,-0.05637 -0.58212,-0.131117 -0.63085,-0.846059 -0.0522,-0.765988 -0.004,-1.851396 0.0941,-2.116131 0.18438,-0.497977 1.55822,-2.751937 1.91198,-3.136812 0.24489,-0.266443 0.41211,-0.362874 0.71243,-0.410896 0.16024,-0.02562 0.21706,-0.0595 0.21706,-0.129292 0,-0.066 -0.0422,-0.08584 -0.49267,-0.08818 z m 1.24766,0.0016 c -0.59362,0.0027 -0.64923,0.02219 -0.64923,0.08705 0,0.07195 0.0591,0.0998 0.26281,0.123919 0.14457,0.01713 0.31035,0.05653 0.36835,0.08757 0.20559,0.109999 0.22151,0.363335 0.20457,3.243797 -0.0142,2.41961 -0.0268,2.782448 -0.10275,2.949488 -0.0875,0.192627 -0.22958,0.258992 -0.55453,0.258992 -0.10966,0 -0.16998,0.09656 -0.10245,0.164091 0.0128,0.01273 1.02316,0.02893 2.24542,0.03593 l 2.2223,0.01271 0.0796,-0.121439 c 0.0877,-0.133833 0.18543,-0.715305 0.18702,-1.113005 9.6e-4,-0.353041 -0.13258,-0.317717 -0.26333,0.0694 -0.12288,0.363799 -0.28385,0.503781 -0.67227,0.584795 -0.38042,0.07935 -1.28002,0.02947 -1.49756,-0.08303 -0.29455,-0.15231 -0.28873,-0.09083 -0.28873,-3.077229 0,-2.727157 9.6e-4,-2.762421 0.11008,-2.871212 0.0748,-0.07484 0.20702,-0.120192 0.41224,-0.141371 0.23913,-0.02468 0.29856,-0.04886 0.28562,-0.116071 -0.0145,-0.07523 -0.18018,-0.08569 -1.45635,-0.09252 -0.3353,-0.0018 -0.59294,-0.0028 -0.79082,-0.0018 z m 4.74374,0.0096 c -1.34133,0 -1.45383,0.0071 -1.4703,0.09252 -0.014,0.0728 0.0195,0.09301 0.15779,0.0948 0.22373,0.003 0.54802,0.118006 0.68725,0.243811 0.1657,0.149732 0.26265,0.367722 1.52078,3.420694 0.64537,1.566018 1.21192,2.928143 1.25904,3.026939 0.0901,0.18908 0.26543,0.242394 0.37257,0.113282 0.0303,-0.03651 0.48835,-1.053648 1.0178,-2.26029 2.04831,-4.668161 1.88927,-4.34443 2.19791,-4.473388 0.0965,-0.04033 0.24934,-0.07332 0.33965,-0.07332 0.12792,0 0.1603,-0.02045 0.14643,-0.09252 -0.0163,-0.08469 -0.11396,-0.09253 -1.15318,-0.09253 -1.00022,0 -1.13722,0.01001 -1.15163,0.08479 -0.0128,0.06607 0.0447,0.09217 0.25961,0.117621 0.31192,0.03694 0.37727,0.10047 0.33066,0.321776 -0.0179,0.08479 -0.44065,1.179655 -0.93951,2.432952 l -0.90708,2.278672 -0.86847,-2.29633 c -0.4777,-1.262994 -0.87799,-2.360791 -0.88955,-2.439561 -0.0263,-0.179046 0.14676,-0.314859 0.40119,-0.314859 0.14027,0 0.17355,-0.01927 0.15945,-0.09253 -0.0164,-0.08543 -0.12907,-0.09252 -1.47041,-0.09252 z m -44.22695,2.01e-4 c -1.5592,-1.87e-4 -1.74573,0.0087 -1.76037,0.08458 -0.013,0.06709 0.0459,0.09141 0.28089,0.115657 0.37136,0.03832 0.53913,0.144548 0.58045,0.367525 0.0176,0.09473 0.0246,1.433253 0.0157,2.97448 -0.0187,3.22833 0.002,3.08517 -0.44848,3.172337 -0.29305,0.05676 -0.36299,0.09585 -0.31372,0.175551 0.0188,0.03038 0.6153,0.04756 1.4989,0.04316 1.25182,-0.0062 1.46772,-0.01868 1.46772,-0.08488 0,-0.05551 -0.1054,-0.09356 -0.3701,-0.133627 -0.20356,-0.03082 -0.39897,-0.07408 -0.43424,-0.09614 -0.1528,-0.09557 -0.17321,-0.483992 -0.17349,-3.301109 l -3.2e-4,-2.868322 h 0.29793 c 0.42489,0 0.68119,0.09304 0.96925,0.352034 0.31928,0.287053 0.48538,0.658987 0.5186,1.161126 0.0562,0.849152 -0.44437,1.544106 -1.1889,1.650606 -0.17921,0.02563 -0.25714,0.06264 -0.26973,0.128051 -0.0155,0.08073 0.0305,0.09201 0.37723,0.09201 0.67928,0 1.28744,-0.260562 1.70782,-0.73164 0.0691,-0.07743 0.20169,-0.292483 0.29472,-0.477813 0.21767,-0.433685 0.26908,-1.096488 0.11988,-1.545689 -0.14534,-0.437603 -0.53714,-0.799121 -1.03524,-0.955316 -0.37507,-0.117618 -0.45914,-0.122375 -2.13451,-0.122575 z m 52.32054,1.864986 c 0.0454,0.05261 0.78896,2.101562 0.78896,2.17396 0,0.04007 -0.25691,0.05844 -0.81953,0.05844 -0.45074,0 -0.81974,-0.01785 -0.82013,-0.03966 -0.002,-0.103179 0.82191,-2.226144 0.8507,-2.192754 z m 19.198119,0.02561 c 0.01645,0.0012 0.02878,0.0274 0.04368,0.06547 0.03414,0.08723 0.200487,0.539298 0.369692,1.004572 0.169203,0.465278 0.333018,0.911388 0.364014,0.991357 l 0.05638,0.145398 h -0.844717 c -0.46456,0 -0.844396,-0.01785 -0.843997,-0.03966 4e-4,-0.02181 0.188654,-0.539295 0.418539,-1.14997 0.300963,-0.799496 0.387065,-1.020764 0.436404,-1.017173 z m -25.912999,7.546796 c -0.0938,0 -0.10826,0.297752 -0.10906,2.230446 -3.9e-4,1.128101 -0.0225,2.049822 -0.0509,2.124598 -0.0368,0.09671 -0.0959,0.136538 -0.22068,0.148807 -0.0937,0.0092 -0.18015,0.04647 -0.19207,0.08282 -0.0167,0.05078 0.15176,0.0661 0.72731,0.0661 0.5757,0 0.7439,-0.01529 0.72699,-0.0661 -0.0121,-0.03635 -0.0676,-0.07296 -0.12329,-0.08137 -0.28833,-0.04345 -0.33336,-0.07088 -0.3854,-0.235755 -0.0299,-0.09452 -0.0699,-0.850027 -0.089,-1.678799 l -0.0347,-1.50686 0.13012,0.132182 c 0.0716,0.0727 0.52358,0.560444 1.00427,1.083882 0.48069,0.523434 1.19589,1.278849 1.58936,1.678694 0.39348,0.399847 0.73836,0.726995 0.76645,0.726995 0.10103,0 0.11476,-0.26739 0.11555,-2.237262 4.1e-4,-1.219187 0.0212,-2.0377 0.0532,-2.09744 0.0288,-0.05388 0.12401,-0.113702 0.21148,-0.132906 0.35312,-0.07756 0.12361,-0.132281 -0.55474,-0.132281 -0.69816,0 -0.92702,0.06046 -0.50126,0.132385 0.11689,0.01975 0.24509,0.06851 0.28491,0.108326 0.0827,0.08267 0.1569,1.671158 0.12764,2.731082 l -0.0171,0.618875 -0.41803,-0.460258 c -1.13216,-1.246709 -3.00164,-3.236156 -3.04108,-3.236156 z m -15.29538,0.0056 c -0.009,3.99e-4 -0.0153,0.0034 -0.0209,0.0091 -0.0163,0.01633 -0.37049,0.96189 -0.787,2.10126 -0.80325,2.197373 -0.88357,2.356537 -1.20624,2.388753 -0.0883,0.0088 -0.17033,0.04574 -0.18227,0.0821 -0.0166,0.05062 0.14119,0.0661 0.67444,0.0661 0.53327,0 0.69108,-0.01547 0.67441,-0.0661 -0.012,-0.03634 -0.0749,-0.0739 -0.13981,-0.08343 -0.0649,-0.0095 -0.13238,-0.05455 -0.14984,-0.100065 -0.0175,-0.04552 0.0722,-0.40053 0.19931,-0.788955 l 0.2311,-0.706237 0.66307,1.04e-4 0.66309,1.02e-4 0.27913,0.737941 c 0.19578,0.517692 0.269,0.778207 0.24535,0.872394 l -0.0337,0.134245 h 0.64459 c 0.48496,0 0.63923,-0.01605 0.623,-0.06475 -0.0119,-0.03561 -0.098,-0.08043 -0.19156,-0.09955 -0.21028,-0.04301 -0.35817,-0.172831 -0.48927,-0.429692 -0.0928,-0.181847 -1.4163,-3.569542 -1.49602,-3.829317 -0.0343,-0.111805 -0.14355,-0.227394 -0.20086,-0.223983 z m -29.81263,0.0057 c -0.80415,0.0058 -1.39769,0.232849 -1.83339,0.693536 -0.5478,0.579221 -0.7523,1.319865 -0.5944,2.15248 0.18894,0.996263 0.94986,1.6681 2.09052,1.845678 0.35432,0.05516 1.21689,0.02379 1.51771,-0.05514 0.2546,-0.06681 0.33413,-0.19756 0.405,-0.666067 0.0711,-0.470246 0.0726,-0.43919 -0.0197,-0.43919 -0.0459,0 -0.10136,0.08917 -0.13651,0.219748 -0.12763,0.473958 -0.50065,0.651715 -1.29311,0.616087 -0.37221,-0.01674 -0.54224,-0.05199 -0.7808,-0.161818 -0.38051,-0.175175 -0.8187,-0.606815 -1.00621,-0.991252 -0.49985,-1.02477 -0.16952,-2.346121 0.68722,-2.748842 0.5069,-0.23827 1.44951,-0.224691 1.91281,0.02747 0.28481,0.155009 0.40956,0.331292 0.46067,0.650887 0.0193,0.120933 0.0555,0.219955 0.0804,0.219955 0.0641,0 0.092,-0.171087 0.11441,-0.702003 0.0227,-0.536512 0.10285,-0.471121 -0.72823,-0.593987 -0.3168,-0.04684 -0.60827,-0.06945 -0.87632,-0.06754 z m 41.40085,4e-4 c -0.1724,0.0043 -0.34646,0.02433 -0.51922,0.06103 -1.07122,0.227611 -1.80627,1.161015 -1.80447,2.291683 0.002,1.255317 0.72764,2.160267 1.87635,2.339703 0.38416,0.05997 0.49058,0.05983 0.87239,-0.0016 0.64503,-0.103695 1.13638,-0.399031 1.51214,-0.908845 0.64359,-0.873231 0.62881,-2.266646 -0.0321,-3.019296 -0.44229,-0.503748 -1.15811,-0.781333 -1.90517,-0.762726 z m 21.950784,4e-4 c -0.06389,-0.0088 -0.120617,0.143821 -0.87869,2.214132 -0.357796,0.977146 -0.686171,1.845607 -0.729784,1.929942 -0.11099,0.214635 -0.249439,0.326386 -0.429793,0.346974 -0.085,0.0097 -0.164243,0.0474 -0.176173,0.08375 -0.01663,0.05062 0.141186,0.06609 0.674432,0.06609 0.525045,0 0.690885,-0.01591 0.674638,-0.06465 -0.01185,-0.03555 -0.0793,-0.07817 -0.149841,-0.0947 -0.194698,-0.04564 -0.185151,-0.19851 0.05783,-0.927639 l 0.220267,-0.660904 0.666068,0.01476 0.665963,0.01476 0.284084,0.740212 c 0.212895,0.554863 0.270632,0.761974 0.230905,0.827058 -0.02916,0.04775 -0.03853,0.1013 -0.02086,0.118966 0.01768,0.01766 0.315711,0.03211 0.662246,0.03211 0.473495,0 0.62465,-0.01611 0.608443,-0.06475 -0.01187,-0.03561 -0.103003,-0.0813 -0.202607,-0.101511 -0.339701,-0.06893 -0.462382,-0.290569 -1.159473,-2.095167 -0.841207,-2.177672 -0.913697,-2.35257 -0.984541,-2.376053 -0.0045,-0.0016 -0.0088,-0.0028 -0.0131,-0.0035 z m -4.804044,0.0024 c -0.18207,0.0025 -0.3637,0.02191 -0.53864,0.05907 -1.49119,0.316797 -2.2479,2.030587 -1.53052,3.466233 0.30692,0.614175 0.89483,1.045376 1.57926,1.15844 0.39332,0.06498 0.50048,0.06625 0.88861,0.01011 1.02652,-0.148438 1.81678,-0.959647 1.97238,-2.024741 0.138639,-0.948942 -0.18921,-1.786353 -0.88737,-2.266694 -0.38708,-0.266323 -0.9375,-0.409986 -1.48372,-0.402428 z m -32.75748,1.99e-4 c -0.86226,0.01905 -1.4922,0.287509 -1.91941,0.813223 -0.37261,0.458511 -0.46938,0.777912 -0.47017,1.551471 -6.1e-4,0.610277 0.0105,0.684542 0.14395,0.969462 0.20317,0.433693 0.43492,0.706354 0.80238,0.943854 0.33542,0.216792 0.71584,0.349715 1.19438,0.417299 0.36725,0.05187 1.19711,0.0098 1.49291,-0.07559 0.19382,-0.05599 0.235,-0.09402 0.29339,-0.270972 0.0373,-0.113216 0.0824,-0.344218 0.10006,-0.513334 0.0266,-0.254844 0.0182,-0.307527 -0.0489,-0.307527 -0.0505,0 -0.0939,0.06898 -0.11535,0.183502 -0.088,0.469492 -0.49877,0.683383 -1.25459,0.65347 -0.64808,-0.02565 -1.02665,-0.190673 -1.44582,-0.630131 -0.4125,-0.432458 -0.56438,-0.787616 -0.59513,-1.391821 -0.0527,-1.03629 0.34322,-1.730692 1.11941,-1.963193 0.40742,-0.122038 1.16137,-0.107546 1.5272,0.02933 0.41303,0.154534 0.58141,0.365016 0.63034,0.788334 0.008,0.07043 0.0411,0.136686 0.0733,0.147256 0.0647,0.02129 0.1447,-1.095503 0.0827,-1.155443 -0.0195,-0.01884 -0.32093,-0.07529 -0.66989,-0.125368 -0.34014,-0.04881 -0.65334,-0.07017 -0.94076,-0.06382 z m -15.3245,0.0047 c -0.0416,-0.003 -0.0679,0.03192 -0.10182,0.120822 -0.10429,0.273436 -0.15174,0.622995 -0.0923,0.679492 0.0376,0.03569 0.065,0.02727 0.0842,-0.02592 0.0156,-0.04334 0.0941,-0.144461 0.17431,-0.224708 0.14249,-0.14249 0.1603,-0.145914 0.75808,-0.145914 h 0.61206 l -8e-4,1.890184 c -8.1e-4,2.02064 -0.0129,2.121803 -0.26004,2.180156 -0.0703,0.01661 -0.13756,0.05925 -0.14942,0.0948 h 1.1e-4 c -0.0163,0.04903 0.1719,0.06465 0.78028,0.06465 0.61787,0 0.79695,-0.01517 0.78018,-0.06609 -0.012,-0.03635 -0.11447,-0.07798 -0.22781,-0.09252 -0.33797,-0.04336 -0.33925,-0.05108 -0.34005,-2.180981 l -8.1e-4,-1.890184 h 0.50405 c 0.62475,0 0.85785,0.08174 0.90491,0.317026 0.0596,0.29803 0.15077,0.141479 0.15077,-0.258886 v -0.382396 l -1.71834,-0.0097 c -0.9451,-0.0054 -1.75967,-0.02996 -1.81016,-0.05473 -0.018,-0.0088 -0.0336,-0.01407 -0.0474,-0.01509 z m 21.83987,0.003 c -0.0404,0.0012 -0.0648,0.049 -0.0999,0.171941 -0.16187,0.568278 -0.11004,0.847851 0.0919,0.495986 0.13033,-0.227096 0.2675,-0.267047 0.91618,-0.267047 h 0.58273 l -0.0168,1.916622 c -0.0178,2.024848 -0.0305,2.12974 -0.26365,2.164044 -0.0632,0.0093 -0.12475,0.04667 -0.13672,0.08303 -0.0167,0.05086 0.15701,0.0661 0.75374,0.0661 0.5967,0 0.77043,-0.01524 0.75375,-0.0661 -0.0119,-0.03635 -0.0947,-0.07341 -0.18392,-0.0823 -0.0892,-0.0089 -0.20629,-0.06486 -0.26024,-0.124436 -0.091,-0.100501 -0.0994,-0.247598 -0.11638,-2.038474 l -0.0181,-1.930252 0.60773,0.01931 c 0.65663,0.02084 0.78534,0.07212 0.85256,0.339953 0.0587,0.233743 0.13572,0.133125 0.14467,-0.188877 0.005,-0.174477 0.0108,-0.354217 0.0132,-0.399432 0.004,-0.0726 -0.19958,-0.08341 -1.74034,-0.09252 -0.95964,-0.0057 -1.78484,-0.03007 -1.8337,-0.05421 -0.018,-0.0089 -0.0332,-0.01373 -0.0467,-0.01333 z m -12.31615,0.03801 c -0.0159,-3.99e-4 -0.0375,0.0048 -0.066,0.01239 -0.0653,0.0175 -0.67192,0.03213 -1.34803,0.03252 -1.14181,5.99e-4 -1.49616,0.04464 -1.04382,0.129494 0.35085,0.06582 0.35008,0.06106 0.33251,2.18408 -0.0166,2.012267 -0.0213,2.049352 -0.26652,2.085564 -0.0611,0.009 -0.12084,0.04616 -0.13281,0.08251 -0.0167,0.05084 0.15611,0.06609 0.74931,0.06609 0.65013,0 0.77109,-0.01243 0.77109,-0.07931 0,-0.05514 -0.0555,-0.07932 -0.18206,-0.07932 -0.31724,0 -0.34667,-0.09974 -0.34667,-1.174963 v -0.939928 h 0.46409 c 0.52521,0 0.66974,0.06315 0.72555,0.317234 0.0458,0.208414 0.12078,0.201988 0.15334,-0.01321 0.0551,-0.364323 0.0769,-0.717127 0.0461,-0.747955 -0.0178,-0.0177 -0.0782,0.0095 -0.13445,0.06051 -0.0811,0.07355 -0.22091,0.09629 -0.67835,0.110494 l -0.57624,0.01787 v -0.884576 -0.884682 l 0.55806,0.0285 c 0.61292,0.03128 0.73055,0.08508 0.79143,0.362257 0.0185,0.08422 0.0543,0.153144 0.0798,0.153144 0.0467,0 0.074,-0.128788 0.12743,-0.600907 0.0209,-0.184945 0.024,-0.236504 -0.0237,-0.237821 z m -14.97628,0.02303 c -0.007,-0.0021 -0.57777,0.0034 -1.26841,0.01209 -1.17035,0.01485 -1.51839,0.06217 -1.07253,0.145811 0.10074,0.0189 0.21376,0.07126 0.25114,0.116383 0.0526,0.0635 0.068,0.513247 0.068,1.990352 0,2.022131 -0.0113,2.121129 -0.24691,2.155786 -0.0633,0.0093 -0.12475,0.04667 -0.13673,0.08302 -0.017,0.05158 0.24562,0.06609 1.19686,0.06609 1.39835,0 1.30377,0.03657 1.3626,-0.526244 0.0287,-0.274787 0.0212,-0.319711 -0.0534,-0.319711 -0.0478,0 -0.0869,0.03693 -0.0869,0.08199 0,0.04506 -0.0358,0.151236 -0.0796,0.235963 -0.10207,0.197363 -0.40704,0.285109 -0.86455,0.248767 -0.50759,-0.04032 -0.50685,-0.03873 -0.52655,-1.097204 l -0.0166,-0.897072 h 0.46749 c 0.52127,0 0.70262,0.07503 0.70262,0.290694 0,0.111337 0.0846,0.227238 0.12929,0.177206 0.009,-0.01019 0.0339,-0.231031 0.0549,-0.490823 l 0.0384,-0.472342 -0.1326,0.08685 c -0.0964,0.06318 -0.28175,0.09105 -0.67969,0.102231 l -0.54712,0.01539 v -0.845955 -0.845957 l 0.47586,0.0039 c 0.54025,0.0044 0.69388,0.0633 0.75219,0.28832 0.0693,0.267484 0.14481,0.177797 0.18578,-0.220782 0.0215,-0.209491 0.0334,-0.382633 0.0264,-0.384771 z m 2.09259,0.02251 c -0.5327,0 -0.96853,0.02004 -0.96853,0.04451 0,0.02448 0.0937,0.07256 0.20828,0.106879 0.13583,0.04069 0.22178,0.103492 0.24712,0.180304 0.0629,0.190551 0.0419,3.745215 -0.0231,3.907595 -0.0386,0.09656 -0.10252,0.147026 -0.20074,0.158615 -0.0792,0.0093 -0.15381,0.04668 -0.16575,0.08302 -0.0167,0.05084 0.15614,0.0661 0.7493,0.0661 0.65014,0 0.77109,-0.01243 0.77109,-0.07931 0,-0.05514 -0.0555,-0.0793 -0.18205,-0.0793 -0.30604,0 -0.34666,-0.116247 -0.34666,-0.992181 v -0.757147 l 0.38228,0.01548 0.3824,0.01548 0.49237,0.660902 c 0.60565,0.812802 0.87889,1.096511 1.12075,1.163706 0.28445,0.07902 1.12594,0.06849 1.09853,-0.01373 -0.0121,-0.03634 -0.13696,-0.08245 -0.27746,-0.102542 -0.37825,-0.05411 -0.61517,-0.256007 -1.31262,-1.118478 l -0.62518,-0.773048 0.20974,-0.252074 c 0.57649,-0.692962 0.64556,-1.453626 0.17091,-1.882438 -0.32633,-0.29482 -0.60895,-0.352345 -1.73064,-0.352345 z m 8.4163,1.02e-4 c -0.67836,0 -0.90787,0.05473 -0.55475,0.132285 0.0875,0.0192 0.18265,0.07902 0.21149,0.132902 0.0683,0.127544 0.0705,3.804736 0.002,3.983804 -0.0334,0.08793 -0.0982,0.137478 -0.19425,0.148807 -0.0792,0.0093 -0.15381,0.04678 -0.16574,0.08313 -0.0167,0.05093 0.16233,0.0661 0.78018,0.0661 0.61785,0 0.79691,-0.01517 0.78018,-0.0661 -0.0119,-0.03635 -0.11099,-0.07357 -0.22007,-0.08271 -0.33663,-0.02827 -0.34862,-0.103225 -0.34862,-2.172409 0,-0.987754 0.022,-1.853659 0.0488,-1.92416 0.0318,-0.08366 0.10526,-0.139438 0.21149,-0.160682 0.0895,-0.0179 0.16275,-0.05694 0.16275,-0.08675 0,-0.03433 -0.26157,-0.05421 -0.71378,-0.05421 z m 6.13318,0 c -0.70508,0 -0.87599,0.04391 -0.54266,0.139512 0.30341,0.08702 0.3086,0.124618 0.29275,2.160434 -0.0153,1.955711 -0.0287,2.06373 -0.26136,2.097954 -0.0633,0.0093 -0.12475,0.04667 -0.13672,0.08303 -0.0167,0.05086 0.15701,0.0661 0.75373,0.0661 0.5967,0 0.77043,-0.01524 0.75375,-0.0661 -0.0119,-0.03634 -0.0947,-0.07341 -0.18392,-0.0823 -0.0892,-0.0089 -0.20629,-0.06484 -0.26024,-0.124435 -0.0906,-0.100086 -0.0994,-0.242174 -0.11513,-1.860856 -0.01,-0.963851 0.003,-1.847599 0.0278,-1.963918 0.0355,-0.167235 0.0805,-0.227377 0.21531,-0.287183 0.0937,-0.0416 0.17039,-0.09514 0.17039,-0.118961 0,-0.02383 -0.3212,-0.04327 -0.71378,-0.04327 z m 15.75594,0 c -0.45221,0 -0.71378,0.01988 -0.71378,0.05421 0,0.02981 0.0733,0.06884 0.16275,0.08675 0.10901,0.0218 0.17969,0.07701 0.21398,0.167188 0.0306,0.08059 0.0449,0.891393 0.0355,2.020093 -0.0166,1.995921 -0.0215,2.033989 -0.26653,2.070178 -0.0611,0.009 -0.12083,0.04616 -0.13281,0.08251 -0.0167,0.05084 0.1561,0.0661 0.7493,0.0661 0.65014,0 0.77109,-0.01243 0.77109,-0.07931 0,-0.05514 -0.0555,-0.07931 -0.18205,-0.07931 -0.34587,0 -0.34666,-0.0047 -0.34666,-2.130175 0,-1.151703 0.0206,-1.933499 0.0524,-1.993039 0.0288,-0.05388 0.12402,-0.113699 0.2115,-0.132903 0.3531,-0.07756 0.1236,-0.132284 -0.55476,-0.132284 z m 15.77454,0 c -0.83206,0 -1.0887,0.0449 -0.74559,0.130528 0.34173,0.08529 0.33046,0.01495 0.33046,2.063982 0,2.015007 -0.0183,2.176303 -0.25115,2.20401 -0.0755,0.009 -0.14699,0.04606 -0.15893,0.08241 -0.0344,0.104777 1.8559,0.09228 2.15786,-0.01425 0.31866,-0.11243 0.55174,-0.304553 0.72286,-0.595641 0.1229,-0.209068 0.14653,-0.309728 0.14653,-0.62352 0,-0.324118 -0.0215,-0.40911 -0.16016,-0.634467 -0.13891,-0.225675 -0.51596,-0.547291 -0.72235,-0.616088 -0.0432,-0.01439 -9.6e-4,-0.110744 0.12309,-0.282432 0.41854,-0.578183 0.41273,-1.144628 -0.0149,-1.462353 -0.29459,-0.218892 -0.48307,-0.252176 -1.42776,-0.252176 z m 18.552799,8e-4 c -1.165277,-8e-4 -1.526357,0.04228 -1.070252,0.127841 0.35197,0.06603 0.351341,0.06182 0.333136,2.185011 -0.01724,2.01118 -0.02204,2.048535 -0.267149,2.084737 -0.06104,0.009 -0.120509,0.04531 -0.13218,0.08076 -0.01573,0.04774 0.147559,0.06881 0.630337,0.08117 1.508376,0.03856 1.734576,0.03693 2.005533,-0.01445 1.101688,-0.208931 1.844746,-1.145622 1.844746,-2.325348 0,-0.887793 -0.392241,-1.565906 -1.11858,-1.933972 -0.463083,-0.23466 -0.852858,-0.284736 -2.225591,-0.285736 z m -4.784942,3.99e-4 c -0.945215,-0.0012 -1.162059,0.03687 -0.767991,0.134866 0.334601,0.0832 0.335798,0.09135 0.319711,2.195441 -0.01523,1.992766 -0.02005,2.030667 -0.265187,2.066872 -0.06104,0.009 -0.120831,0.04616 -0.132801,0.08251 -0.01674,0.05086 0.157013,0.06609 0.75374,0.06609 0.596699,0 0.770447,-0.01523 0.753741,-0.06609 -0.01195,-0.03635 -0.110988,-0.07357 -0.220061,-0.08271 -0.290657,-0.02441 -0.348625,-0.201767 -0.348625,-1.065603 v -0.68895 h 0.384665 0.384769 l 0.572304,0.766443 c 0.629648,0.843224 0.786631,1.000563 1.07882,1.081712 0.291652,0.081 1.083676,0.07287 1.055897,-0.01085 -0.01205,-0.03636 -0.115194,-0.07951 -0.229148,-0.09584 -0.426259,-0.06105 -0.70184,-0.303265 -1.496739,-1.316023 l -0.475231,-0.605657 0.212108,-0.230076 c 0.60875,-0.660419 0.636464,-1.612511 0.05803,-1.99273 -0.298499,-0.196213 -0.58371,-0.237972 -1.638007,-0.239371 z m -25.576977,0.186395 c 0.53712,0 0.8753,0.140854 1.21782,0.507039 0.3144,0.336118 0.48599,0.717552 0.56085,1.24694 0.15229,1.076884 -0.29103,2.051687 -1.05084,2.310579 -0.25342,0.08635 -0.78841,0.104156 -1.01862,0.03387 -0.64111,-0.195723 -1.15672,-0.797957 -1.32283,-1.545068 -0.095,-0.42747 -0.0433,-1.26831 0.0978,-1.589474 0.15253,-0.347253 0.48944,-0.693981 0.81652,-0.840277 0.21516,-0.09623 0.37001,-0.123611 0.69931,-0.123611 z m 17.13063,0 c 0.53711,0 0.8753,0.140854 1.21781,0.507039 0.30887,0.330202 0.48151,0.707264 0.5626,1.228867 0.16715,1.075175 -0.28054,2.065586 -1.05259,2.328652 -0.29283,0.09979 -0.81335,0.104787 -1.07769,0.01033 -0.8272,-0.295602 -1.31561,-1.094444 -1.31561,-2.151756 0,-0.631767 0.13793,-1.065938 0.44838,-1.411235 0.33124,-0.368419 0.67239,-0.511893 1.2171,-0.511893 z m -4.9604,0.02737 c 0.13544,-0.0081 0.30953,0.025 0.4393,0.09459 0.54124,0.29027 0.56717,1.40671 0.037,1.591538 -0.18919,0.06599 -0.44157,0.06625 -0.60483,6e-4 -0.1156,-0.04647 -0.11895,-0.06915 -0.11895,-0.805581 0,-0.518887 0.02,-0.777831 0.0634,-0.821277 0.0354,-0.03546 0.10286,-0.05506 0.18413,-0.05989 z m -45.99051,0.01271 c 0.27301,0.004 0.55512,0.119421 0.73297,0.309902 0.41541,0.444907 0.36418,1.527362 -0.0832,1.758726 -0.15328,0.07927 -0.78781,0.111361 -0.9453,0.04781 -0.0496,-0.02004 -0.066,-0.28022 -0.066,-1.047324 v -1.020788 l 0.17545,-0.03294 c 0.0607,-0.0114 0.12318,-0.01631 0.1862,-0.01539 z m 59.885705,0.0054 c 0.207374,0.0066 0.457377,0.08216 0.619288,0.197445 0.477484,0.339998 0.546909,1.348853 0.122059,1.773701 -0.166623,0.166615 -0.193808,0.175034 -0.566724,0.175034 -0.596534,0 -0.575612,0.04144 -0.558567,-1.107218 l 0.01447,-0.974627 0.181127,-0.04689 c 0.05479,-0.01419 0.119235,-0.01966 0.188358,-0.01744 z m 4.185069,0.05763 0.630751,0.0045 c 0.776223,0.0056 1.096468,0.111229 1.525138,0.503009 0.523873,0.478791 0.758365,1.073696 0.699319,1.774321 -0.066,0.783184 -0.365237,1.262887 -0.975143,1.56314 -0.313959,0.154562 -0.400358,0.172555 -0.879931,0.183606 -0.582522,0.01341 -0.80731,-0.03238 -0.953974,-0.194448 -0.08774,-0.09696 -0.09846,-0.255682 -0.120719,-1.785164 -0.01403,-0.963526 -0.0034,-1.757745 0.0251,-1.863954 z m -41.874854,0.586962 0.27375,0.781107 c 0.15062,0.429611 0.27387,0.803229 0.27387,0.830158 0,0.02693 -0.23792,0.04895 -0.52873,0.04895 -0.39352,0 -0.52872,-0.01731 -0.52872,-0.06754 0,-0.03711 0.11467,-0.410625 0.25486,-0.830053 z m 33.511118,0.02995 c 0.02183,0.02517 0.557534,1.561717 0.557534,1.59918 0,0.01709 -0.249081,0.03108 -0.553505,0.03108 -0.419454,0 -0.548108,-0.016 -0.531203,-0.06609 0.01227,-0.03634 0.132536,-0.407133 0.26715,-0.82396 0.134616,-0.416829 0.251591,-0.749923 0.260024,-0.74021 z m -9.975818,1.260156 h 0.29833 c 0.6997,0 1.17497,0.459454 1.23383,1.192725 0.0316,0.393682 -0.0754,0.658533 -0.32952,0.815595 -0.30715,0.189825 -0.87725,0.178551 -1.07718,-0.02138 -0.0715,-0.07148 -0.0894,-0.247039 -0.10573,-1.036482 z" /><path
       id="path9"
       style="fill:#f04e55;fill-opacity:1;stroke-width:0.199831"
       d="m -183.75703,74.42716 c -0.0511,0 -0.0682,0.771643 -0.0789,3.540171 l -0.0136,3.540068 -0.44942,-0.29534 c -0.57044,-0.37489 -1.47523,-0.813956 -2.08969,-1.014075 -3.2928,-1.072409 -6.82896,-0.253308 -9.29107,2.152171 -0.19629,0.191775 -0.35689,0.369203 -0.35689,0.39427 0,0.02507 0.1682,0.297226 0.37382,0.604728 0.5856,0.875725 1.14902,2.09272 1.32822,2.869044 0.0335,0.145144 0.0747,0.263844 0.0916,0.263844 0.0169,0 0.0901,-0.112629 0.16275,-0.250318 0.21151,-0.400857 0.69414,-1.019024 1.06642,-1.365901 1.38416,-1.289646 3.23733,-1.772634 5.05447,-1.31747 0.63537,0.159149 1.55295,0.604874 2.0141,0.978449 0.18505,0.149894 0.35345,0.252659 0.37424,0.228319 0.0208,-0.02434 0.1153,-0.23464 0.21005,-0.467278 0.29041,-0.71303 0.98251,-1.903686 1.42909,-2.458562 l 0.10637,-0.13218 9.6e-4,3.701059 c 9.6e-4,3.927315 0.0264,4.485101 0.24587,5.472283 0.82391,3.705909 3.95965,6.533991 7.79186,7.027264 0.55021,0.07082 1.67201,0.06176 2.2735,-0.01839 3.28062,-0.437058 6.04504,-2.575491 7.26231,-5.617784 0.69469,-1.736265 0.84572,-3.555486 0.44868,-5.404537 -0.57235,-2.665491 -2.4921,-5.073492 -4.97681,-6.242649 -2.53026,-1.190588 -5.4518,-1.171368 -7.94209,0.05225 -0.60228,0.29593 -1.34132,0.765936 -1.38553,0.88117 -0.0305,0.07959 0.49071,4.332392 0.55847,4.556414 0.0344,0.113708 0.059,0.09224 0.28614,-0.249282 0.31297,-0.470656 0.85101,-1.043325 1.30261,-1.386454 0.48213,-0.366324 1.30784,-0.762068 1.93603,-0.927847 0.45591,-0.120318 0.63509,-0.139338 1.32057,-0.140337 0.68974,-9.6e-4 0.86198,0.01703 1.3218,0.138065 0.62567,0.16469 1.45063,0.558945 1.92984,0.92227 0.77489,0.587497 1.47338,1.484132 1.82182,2.338671 0.33518,0.821967 0.4749,1.941974 0.34936,2.800578 -0.34205,2.339258 -2.17761,4.226784 -4.50571,4.633245 -0.6867,0.119889 -1.64094,0.07595 -2.30233,-0.105952 -1.99936,-0.549872 -3.43775,-2.056333 -3.9677,-4.155533 -0.0778,-0.307944 -0.0886,-1.06094 -0.10502,-7.243504 l -0.0182,-6.899835 -1.75645,-0.700557 c -0.96602,-0.385307 -1.78577,-0.700558 -1.82173,-0.700558 z m -20.09239,5.307263 c -0.97576,-0.002 -1.97245,0.152687 -2.95828,0.482563 -3.01885,1.010173 -5.25593,3.539536 -6.00048,6.784485 l -0.11742,0.511683 -0.0164,7.864752 c -0.0132,6.348144 -0.004,7.864684 0.051,7.864754 0.0371,5e-5 0.84665,-0.31171 1.79901,-0.69281 l 1.73156,-0.69291 v -6.565259 c 0,-4.20541 0.0197,-6.72634 0.0547,-7.013323 0.15772,-1.289958 0.70375,-2.415105 1.60394,-3.305036 0.91631,-0.905885 1.98563,-1.414125 3.29512,-1.566341 2.17681,-0.253038 4.40662,0.981078 5.40896,2.993687 0.40728,0.817755 0.52479,1.305913 0.58604,2.434295 0.0943,1.73695 0.35124,2.805975 0.97846,4.071164 0.46483,0.937633 0.92228,1.564244 1.73869,2.381835 0.75926,0.760365 1.44672,1.26021 2.37079,1.723928 2.88126,1.445881 6.42275,1.213898 9.11365,-0.596984 0.20883,-0.14053 0.39276,-0.276781 0.40883,-0.302776 0.016,-0.026 -0.0502,-0.151265 -0.14727,-0.278405 -0.52966,-0.693758 -1.11838,-1.734939 -1.57211,-2.780235 l -0.0737,-0.16977 -0.36484,0.283569 c -1.84364,1.433038 -4.39089,1.51964 -6.35026,0.215928 -0.47555,-0.316423 -1.21751,-1.057941 -1.52523,-1.524415 -0.61089,-0.926054 -0.86239,-1.792503 -0.93147,-3.208894 -0.0286,-0.587649 -0.0925,-1.207773 -0.15996,-1.553329 -0.85945,-4.40057 -4.69508,-7.353271 -8.92333,-7.362156 z m 4.91907,11.50468 c -0.0404,-0.01077 -0.0807,0.08458 -0.1647,0.241744 -0.49447,0.925284 -1.35065,1.748587 -2.33454,2.245009 -1.86063,0.938781 -4.10202,0.722743 -5.76329,-0.555572 -0.45035,-0.346535 -1.05492,-1.019399 -1.32158,-1.470924 -0.24145,-0.408773 -0.31725,-0.482911 -0.31725,-0.310006 0,0.05276 -0.10734,1.138571 -0.23854,2.412815 -0.17587,1.708189 -0.22318,2.335204 -0.1802,2.386997 0.0938,0.113025 0.83248,0.571274 1.29113,0.800934 0.88832,0.444801 2.01671,0.787394 2.99802,0.910187 0.55527,0.06949 2.09881,0.02709 2.65932,-0.07301 1.80354,-0.32207 3.41004,-1.139512 4.75324,-2.418494 0.37026,-0.352563 0.46894,-0.475173 0.42825,-0.532546 -0.72831,-1.026827 -1.27521,-2.06906 -1.56098,-2.974788 -0.1449,-0.459223 -0.19692,-0.648494 -0.24888,-0.662348 z" /></g></svg>
