<?xml version="1.0" encoding="UTF-8"?>
<svg id="svg1" width="64" height="64" version="1.1" viewBox="0 0 16.933 16.933" xmlns="http://www.w3.org/2000/svg" xmlns:xlink="http://www.w3.org/1999/xlink">
 <defs id="defs1">
  <linearGradient id="linearGradient3" x1="121.25" x2="167.34" y1="149.64" y2="149.64" gradientTransform="matrix(.34441 0 0 .34441 -41.231 -43.071)" gradientUnits="userSpaceOnUse">
   <stop id="stop2" style="stop-color:#e664a0" offset="0"/>
   <stop id="stop4" style="stop-color:#77589b" offset=".44128"/>
   <stop id="stop3" style="stop-color:#3f2e5b" offset="1"/>
  </linearGradient>
 </defs>
 <g id="layer1">
  <path id="path1-2" d="m8.4666 0.81165a7.9375 7.655 0 0 0-7.9374 7.6551 7.9375 7.655 0 0 0 0.99171 3.665c0.0059-0.23457 0.01832-0.66379 0.01851-1.6045h1.79e-4c2.76e-4 -1.4555 0.0092-2.4324 0.02314-2.5302 0.03282-0.23 0.07714-0.39007 0.17994-0.6507 0.2854-0.72355 0.86768-1.2991 1.6082-1.5895 0.31601-0.12393 0.50806-0.16166 0.89453-0.17567 0.52837-0.01915 0.83848 0.03578 1.2678 0.22444 0.05303 0.02332 0.1021 0.04236 0.1091 0.04236 7e-3 0 0.10003 0.05267 0.20681 0.11694 0.76936 0.46304 1.2679 1.231 1.3708 2.1119 0.01243 0.10632 0.02854 0.30296 0.03578 0.43712 0.03963 0.73442 0.52669 1.3286 1.274 1.554 0.18976 0.05721 0.64756 0.05789 0.85288 0.0012 0.19871-0.05471 0.46377-0.17919 0.57773-0.27142 0.05122-0.04146 0.10511-0.0825 0.11978-0.09112 0.01749-0.01029 0.06613 0.06604 0.14132 0.2223 0.10748 0.22336 0.38704 0.67675 0.43588 0.70694 0.07463 0.04613-0.45183 0.34524-0.797 0.45278-0.10632 0.0331-0.22411 0.06944-0.26164 0.0808-0.03752 0.01136-0.19687 0.03774-0.35418 0.05856-0.26689 0.0353-0.305 0.03529-0.56865-1.76e-4 -0.1554-0.02084-0.31328-0.04756-0.3508-0.05927-0.03753-0.01171-0.15246-0.04669-0.2554-0.07778-0.10294-0.03107-0.26146-0.09398-0.3524-0.13972-0.15812-0.07954-0.40299-0.22659-0.42698-0.25647-0.0063-0.0078-0.0523-0.04451-0.10234-0.08152-0.32146-0.23776-0.69945-0.73655-0.8536-1.1264-0.07148-0.18081-0.13562-0.38612-0.13562-0.43374 0-0.02266-0.0092-0.0467-0.02029-0.05357-0.01113-0.0068-0.02687-0.138-0.03506-0.29136-0.02752-0.51479-0.05582-0.6957-0.14292-0.91553-0.1787-0.45101-0.4549-0.74525-0.89667-0.95505-0.23774-0.1129-0.4907-0.15697-0.80412-0.14025-0.30355 0.01619-0.44198 0.05208-0.69128 0.17923-0.21918 0.11179-0.49718 0.35656-0.62721 0.55245-0.16794 0.25301-0.2384 0.43588-0.28477 0.7388-0.03052 0.1994-0.03067 2.4563-1.75e-4 2.4563 0.01251 0 0.02278-0.04536 0.02278-0.10074 0-0.05539 0.0099-0.17574 0.02189-0.26733 0.01202-0.09159 0.02642-0.21246 0.03203-0.26875 0.0056-0.05629 0.01589-0.14343 0.02278-0.19346 0.0068-0.05003 0.02453-0.20703 0.03933-0.34902l0.02688-0.25825 0.07066 0.11284c0.24501 0.39149 0.63821 0.67199 1.094 0.78045 0.17432 0.04147 0.57404 0.04183 0.75055 7.23e-4 0.16159-0.0377 0.46823-0.1747 0.60656-0.27089 0.18804-0.13076 0.42518-0.39453 0.52522-0.58431 0.02545-0.04829 0.03905-0.05829 0.04663-0.03417 0.08032 0.25566 0.11963 0.36054 0.18652 0.49799 0.04359 0.08956 0.0792 0.16836 0.0792 0.17513 0 0.0067 0.06146 0.10553 0.13651 0.21945 0.07505 0.11392 0.13651 0.21407 0.13651 0.22247 0 0.0278-0.25875 0.26147-0.43214 0.39031-0.21298 0.15826-0.63588 0.36618-0.87566 0.43054-0.10007 0.02687-0.31491 0.06919-0.47752 0.09397-0.2845 0.04335-0.30692 0.04356-0.59143 0.0073-0.16261-0.0207-0.32627-0.04712-0.36379-0.05873-0.36366-0.11253-0.48124-0.15705-0.6482-0.2449-0.10632-0.05594-0.24097-0.1354-0.29919-0.17674-0.05821-0.04133-0.11197-0.06904-0.11942-0.06159-0.0075 0.0074-0.01353 0.40919-0.01353 0.89293v2.0044l-0.0525 0.02439a7.9375 7.655 0 0 0 5.8657 2.5138 7.9375 7.655 0 0 0 7.9376-7.655 7.9375 7.655 0 0 0-5.2942-7.2173c0.10233 0.04128 0.2011 0.08044 0.31076 0.1269 0.10007 0.0424 0.22299 0.09103 0.27302 0.10804l0.09095 0.03079 0.0059 3.7154c0.0035 0.4897 0.01277 0.89026 0.021 0.89026 0.0083 0 0.03116-0.01337 0.0509-0.02991 0.0469-0.03928 0.37931-0.24294 0.39654-0.24294 0.0073 0 0.06727-0.02459 0.13331-0.05464 0.37361-0.17012 0.70754-0.22756 1.2231-0.21019 0.38175 0.01284 0.53219 0.03689 0.79593 0.12725 0.52868 0.18114 1.0197 0.53105 1.34 0.95505 0.12321 0.16309 0.34297 0.50954 0.34297 0.54053 0 0.01395 0.09555 0.2663 0.13598 0.35916 0.07301 0.16773 0.1006 0.39917 0.1002 0.8415-3.34e-4 0.39785-0.0068 0.47891-0.05143 0.64696-0.21339 0.80507-0.6995 1.439-1.4014 1.8275-0.32386 0.17927-0.66035 0.28853-1.064 0.34528-0.28554 0.04014-0.3407 0.04-0.63041-0.0014l1.79e-4 1.75e-4c-0.22313-0.03173-0.27241-0.04357-0.58004-0.14025-0.80768-0.25382-1.489-0.92611-1.7798-1.7565-0.1471-0.42-0.14799-0.42992-0.15894-1.8487-0.0054-0.70986-0.01844-1.2905-0.02901-1.2905-0.04431 0-0.27777 0.37105-0.42555 0.6765l-0.12388 0.25594-0.09273-0.07938c-0.14352-0.12284-0.48022-0.27971-0.68434-0.31876-0.66867-0.12794-1.308 0.10084-1.7127 0.61261-0.07931 0.1003-0.14434 0.19416-0.14434 0.2086 0 0.01443-0.01403 0.038-0.03132 0.05232-0.02562 0.02124-0.04188-0.0043-0.08863-0.13936-0.13268-0.38311-0.26758-0.65235-0.43481-0.86837l-0.0687-0.08881 0.18101-0.17104c0.34854-0.32912 0.85845-0.60029 1.3228-0.70338 0.25033-0.05557 0.96832-0.05557 1.2186 0 0.32442 0.07203 0.74212 0.25721 1.0204 0.45243 0.0332 0.02332 0.06641 0.04236 0.07386 0.04236 0.0074 0 0.01371-0.49629 0.01371-1.1029 0-0.85438 0.0058-3.8111 0.0274-3.899a7.9375 7.655 0 0 0-2.2198-0.3072zm3.3359 5.3861c-0.0023 0.0024-4e-3 0.01042-0.0046 0.02367-1e-3 0.02397 0.0043 0.03745 0.01192 0.02991 0.0075-0.0076 0.0084-0.02719 0.0018-0.0436-0.0037-0.0091-0.0067-0.01237-0.0091-0.01zm0.0121 0.10519c-0.01223 0-0.01764 0.50848-0.01317 1.2452 0.0084 1.394-7e-3 1.2552 0.18546 1.6447 0.08345 0.16886 0.10368 0.19767 0.26412 0.37608 0.24962 0.27756 0.60467 0.46535 1.0234 0.54124 0.11327 0.02053 0.5151-0.0063 0.65888-0.04396 0.50039-0.13127 0.91813-0.48172 1.1384-0.95469 0.11106-0.23851 0.14313-0.39849 0.14363-0.7162 3.44e-4 -0.3262-0.02769-0.44982-0.17193-0.75054-0.10132-0.21121-0.13865-0.26268-0.32214-0.44513-0.36017-0.35814-0.723-0.50942-1.2231-0.50992-0.47852-6.9e-4 -0.88314 0.17437-1.2336 0.53288-0.08932 0.09136-0.18253 0.20322-0.20699 0.24864-0.02445 0.04541-0.05033 0.08258-0.05749 0.08258-0.0071 0-0.02622-0.12035-0.04236-0.26733-0.01615-0.14697-0.04411-0.3798-0.06212-0.51739-0.01801-0.1376-0.03884-0.29868-0.04645-0.3581-0.0076-0.05942-0.02316-0.10804-0.03453-0.10804z" style="fill-rule:evenodd;fill:url(#linearGradient3);paint-order:fill markers stroke;stroke-linecap:round;stroke-width:.12374"/>
 </g>
</svg>
