<?xml version="1.0" encoding="UTF-8"?>
<svg id="svg1" width="635" height="187.91" version="1.1" viewBox="0 0 168.01 49.719" xmlns="http://www.w3.org/2000/svg" xmlns:xlink="http://www.w3.org/1999/xlink">
 <defs id="defs1">
  <linearGradient id="linearGradient3" x1="121.25" x2="167.34" y1="149.64" y2="149.64" gradientTransform="matrix(.99943 0 0 .99943 -119.86 -126.02)" gradientUnits="userSpaceOnUse">
   <stop id="stop2" style="stop-color:#e664a0" offset="0"/>
   <stop id="stop4" style="stop-color:#77589b" offset=".44128"/>
   <stop id="stop3" style="stop-color:#3f2e5b" offset="1"/>
  </linearGradient>
 </defs>
 <g id="layer1">
  <path id="path1-2" d="m24.356 1.3229a23.033 22.214 0 0 0-23.033 22.214 23.033 22.214 0 0 0 2.8778 10.635c0.01716-0.68068 0.05315-1.9262 0.05371-4.656h5.197e-4c7.996e-4 -4.2236 0.026665-7.0586 0.067142-7.3422 0.095246-0.66743 0.22384-1.1319 0.52215-1.8882 0.82819-2.0996 2.5179-3.7698 4.6668-4.6126 0.917-0.35963 1.4743-0.46912 2.5958-0.50976 1.5332-0.05557 2.4331 0.1038 3.6788 0.65127 0.15386 0.06766 0.29629 0.12292 0.3166 0.12292 0.02029 0 0.29026 0.15283 0.60014 0.33933 2.2326 1.3437 3.6791 3.5723 3.9779 6.1284 0.03608 0.30853 0.08281 0.87914 0.10381 1.2685 0.11499 2.1312 1.5284 3.8554 3.6969 4.5093 0.55066 0.16603 1.8791 0.16797 2.4749 0.0036 0.57663-0.15876 1.3458-0.51998 1.6765-0.78761 0.14864-0.12029 0.30503-0.2394 0.34758-0.26444 0.05077-0.02988 0.19189 0.19164 0.41008 0.64508 0.31189 0.64816 1.1231 1.9638 1.2648 2.0514 0.21658 0.13384-1.3111 1.0018-2.3128 1.3139-0.30854 0.09605-0.65032 0.20151-0.75922 0.23448-0.10889 0.03298-0.57129 0.10954-1.0278 0.16991-0.77447 0.10243-0.88505 0.10239-1.6501-5.1e-4 -0.45095-0.06047-0.90908-0.138-1.018-0.17199-0.1089-0.03398-0.44241-0.13548-0.74114-0.22569-0.29873-0.09015-0.75873-0.27272-1.0226-0.40543-0.45883-0.2308-1.1694-0.65752-1.239-0.74424-0.01819-0.02259-0.15178-0.12917-0.29697-0.23655-0.93281-0.68993-2.0297-2.1374-2.477-3.2687-0.20743-0.52468-0.39356-1.1205-0.39356-1.2586 0-0.06576-0.0266-0.13551-0.05888-0.15546-0.03228-0.01999-0.07797-0.40046-0.10174-0.84546-0.07985-1.4938-0.16197-2.0188-0.41472-2.6567-0.51856-1.3088-1.3201-2.1626-2.602-2.7714-0.68988-0.32762-1.4239-0.4555-2.3334-0.40698-0.88086 0.04697-1.2826 0.15112-2.006 0.5201-0.63601 0.32441-1.4427 1.0347-1.82 1.6031-0.48733 0.7342-0.6918 1.2648-0.82636 2.1439-0.08855 0.57862-0.08899 7.1278-5.097e-4 7.1278 0.03628 0 0.066103-0.13161 0.066103-0.29232s0.028654-0.50996 0.063534-0.77574c0.03488-0.26579 0.076667-0.61653 0.092957-0.77988 0.016291-0.16333 0.046124-0.41621 0.066113-0.5614 0.019989-0.1452 0.07116-0.60077 0.11414-1.0128l0.077996-0.7494 0.20503 0.32744c0.71098 1.136 1.852 1.95 3.1748 2.2647 0.50583 0.12034 1.6658 0.12139 2.178 0.0021 0.4689-0.10939 1.3587-0.50694 1.7601-0.78608 0.54566-0.37944 1.2338-1.1449 1.5241-1.6956 0.07386-0.14013 0.11331-0.16916 0.13531-0.09915 0.23308 0.74188 0.34715 1.0462 0.54126 1.4451 0.12647 0.25987 0.22983 0.48855 0.22983 0.50821 0 0.01969 0.17835 0.30623 0.39614 0.63681 0.21779 0.33058 0.39614 0.62119 0.39614 0.64558 0 0.08066-0.75084 0.75875-1.254 1.1326-0.61804 0.45923-1.8452 1.0626-2.541 1.2493-0.29038 0.07796-0.91381 0.20078-1.3857 0.2727-0.82558 0.1258-0.89064 0.1264-1.7162 0.02118-0.47186-0.060075-0.94677-0.13674-1.0557-0.17044-1.0553-0.32654-1.3965-0.45574-1.881-0.71067-0.30853-0.16233-0.69926-0.3929-0.8682-0.51286-0.16892-0.11995-0.32492-0.20034-0.34654-0.1787-0.021688 0.02159-0.039258 1.1874-0.039258 2.5911v5.8165l-0.15235 0.07076a23.033 22.214 0 0 0 17.021 7.2946 23.033 22.214 0 0 0 23.034-22.213 23.033 22.214 0 0 0-15.363-20.943c0.29694 0.11978 0.58355 0.23341 0.90176 0.36824 0.29038 0.12305 0.64708 0.26415 0.79227 0.3135l0.26392 0.089349 0.01704 10.781c0.01 1.421 0.03706 2.5834 0.06094 2.5834 0.02399 0 0.09043-0.0388 0.14771-0.08677 0.1361-0.11398 1.1007-0.70498 1.1507-0.70498 0.02119 0 0.1952-0.07137 0.38684-0.15856 1.0841-0.49365 2.0532-0.66033 3.5492-0.60994 1.1078 0.03728 1.5443 0.10705 2.3097 0.36927 1.5342 0.52563 2.959 1.541 3.8885 2.7714 0.35753 0.47325 0.99525 1.4786 0.99525 1.5685 0 0.04048 0.27726 0.77275 0.39458 1.0422 0.21187 0.48672 0.29192 1.1583 0.29078 2.4419-9.7e-4 1.1545-0.01999 1.3897-0.14926 1.8774-0.61923 2.3362-2.0298 4.1756-4.0667 5.3031-0.9398 0.52022-1.9162 0.83727-3.0875 1.002-0.82858 0.11649-0.98867 0.11608-1.8293-0.0041l5.19e-4 5.09e-4c-0.64749-0.09205-0.79048-0.12646-1.6832-0.40698-2.3438-0.73653-4.3208-2.6874-5.1647-5.0971-0.42686-1.2188-0.42945-1.2476-0.46121-5.3646-0.01589-2.0599-0.0535-3.7449-0.08418-3.7449-0.12858 0-0.80604 1.0767-1.2349 1.9631l-0.35947 0.74269-0.26908-0.23035c-0.41646-0.35648-1.3935-0.81168-1.9858-0.92501-1.9404-0.37126-3.7957 0.29261-4.97 1.7777-0.23016 0.29106-0.41886 0.56341-0.41886 0.60531 0 0.04188-0.04073 0.11025-0.0909 0.15183-0.07436 0.06166-0.12151-0.01259-0.2572-0.40439-0.38502-1.1117-0.77647-1.893-1.2617-2.5199l-0.19936-0.25771 0.52525-0.49633c1.0114-0.95505 2.4911-1.742 3.8384-2.0411 0.72643-0.16128 2.8099-0.16128 3.5363 0 0.94142 0.20901 2.1535 0.74638 2.9609 1.3129 0.09634 0.06766 0.19272 0.12292 0.21434 0.12292 0.02159 0 0.03977-1.4401 0.03977-3.2006 0-2.4793 0.017-11.059 0.07953-11.314a23.033 22.214 0 0 0-6.4414-0.89144zm9.6802 15.629c-0.0069 7e-3 -0.01182 0.03026-0.01342 0.06869-3e-3 0.06956 0.01261 0.10867 0.0346 0.08677 0.02189-0.02199 0.02446-0.0789 0.0052-0.12654-0.01054-0.02633-0.01941-0.03587-0.02634-0.02892zm0.03512 0.30524c-0.03548 0-0.05121 1.4755-0.03822 3.6132 0.02459 4.0451-0.02047 3.6424 0.53816 4.7727 0.24216 0.48999 0.30086 0.57362 0.76645 1.0913 0.72436 0.80542 1.7547 1.3504 2.9697 1.5706 0.32868 0.05957 1.4947-0.01809 1.912-0.12757 1.452-0.38092 2.6643-1.3979 3.3034-2.7704 0.32228-0.69213 0.41533-1.1564 0.41679-2.0783 9.99e-4 -0.94659-0.08037-1.3053-0.49892-2.178-0.294-0.61289-0.40235-0.76224-0.93481-1.2917-1.0452-1.0393-2.098-1.4783-3.5492-1.4797-1.3886-2e-3 -2.5627 0.50599-3.5797 1.5463-0.25917 0.26512-0.52968 0.58972-0.60065 0.72151-0.07096 0.13178-0.14605 0.23964-0.16683 0.23964-0.02079 0-0.0761-0.34924-0.12292-0.77574-0.04687-0.42649-0.128-1.1021-0.18025-1.5014-0.05227-0.39928-0.1127-0.86674-0.1348-1.0391-0.02209-0.17242-0.06722-0.3135-0.10019-0.3135z" style="fill-rule:evenodd;fill:url(#linearGradient3);paint-order:fill markers stroke;stroke-linecap:round;stroke-width:.35909"/>
  <path id="path35" d="m131.67 13.057c-0.14951-0.0051-0.28325 0.34996-2.1737 5.02-0.99879 2.4673-1.8651 4.581-1.9251 4.6971-0.18331 0.35471-0.56541 0.61746-0.978 0.67269-0.56493 0.07562-0.61702 0.0999-0.50468 0.23525 0.0773 0.09314 0.4147 0.11144 1.8336 0.09936 1.5854-0.01349 1.7413-0.02712 1.7659-0.15516 0.022-0.11411-0.031-0.14043-0.28212-0.14043-0.16996 0-0.3931-0.05886-0.4959-0.13087-0.25527-0.17879-0.20242-0.45655 0.36426-1.9157l0.45169-1.1633h1.6251c1.2259 0 1.6345 0.02466 1.6639 0.10031 0.0214 0.05517 0.28147 0.72458 0.57787 1.4875 0.52478 1.3509 0.57923 1.622 0.32586 1.622-0.0677 0-0.12289 0.05008-0.12289 0.11128 0 0.18634 0.52855 0.21309 3.9901 0.20187 2.6961-0.0088 3.325-0.03108 3.3995-0.12084 0.10926-0.13165 0.0496-0.15747-0.52051-0.22569-0.80704-0.09658-0.84193-0.21508-0.93288-3.1644-0.0404-1.3086-0.0745-2.7653-0.0757-3.2371l-3e-3 -0.85795 1.1968 1.2592c0.65822 0.6925 2.3872 2.4451 3.8423 3.8948 1.8971 1.8901 2.6878 2.6277 2.7947 2.6071 0.10894-0.02098 0.16273-0.12567 0.19968-0.38885 0.0279-0.1981 0.0742-2.2199 0.10313-4.4929 0.029-2.273 0.0743-4.3597 0.10046-4.6372 0.0608-0.64221 0.19638-0.81115 0.71047-0.88459 0.27598-0.03943 0.40123-0.09452 0.40123-0.17664 0-0.10221-0.26527-0.11943-1.8446-0.11943-1.6304 0-1.8476 0.01501-1.8695 0.12899-0.0199 0.10374 0.0739 0.13781 0.47959 0.1746 0.40637 0.03685 0.53796 0.08498 0.67787 0.24763 0.21787 0.25328 0.24933 0.69806 0.31582 4.4642l0.049 2.7685-1.3915-1.4444c-3.3615-3.4894-6.3603-6.5019-6.4957-6.5252-0.0991-0.01707-0.1602 0.03506-0.18792 0.16049-0.0226 0.10217-0.0737 2.3204-0.11363 4.9295-0.0802 5.2385-0.0694 5.1393-0.57317 5.2707-0.43771 0.11417-1.3423 0.02337-1.5922-0.15987-0.52035-0.38146-0.58658-0.52321-2.8514-6.1019-1.6709-4.1157-1.6487-4.067-1.865-4.0979-0.0272-0.0039-0.0489-0.01197-0.0703-0.01269zm29.215 0c-0.10652-0.0049-0.21574 0.07134-0.28478 0.21739-0.0574 0.12137-0.94659 2.2958-1.9761 4.832-1.0295 2.5362-1.9386 4.7006-2.0201 4.8098-0.34368 0.46032-0.52972 0.5298-1.4084 0.52552-0.90516-0.0044-1.143-0.08523-1.2366-0.41973-0.0336-0.1201-0.0612-2.2096-0.0612-4.6435 0-5.0509-0.0521-4.6979 0.71015-4.8192 0.28326-0.04509 0.41331-0.10343 0.41331-0.18542 0-0.17189-3.9977-0.20216-4.1394-0.03135-0.10877 0.13104-0.0527 0.15662 0.50984 0.23196 0.6811 0.09123 0.65669-0.05133 0.68602 4.0095 0.0271 3.7482-0.0481 5.5172-0.24247 5.7116-0.0626 0.06258-0.30117 0.13604-0.53022 0.16316-0.37398 0.04429-0.50915 0.14818-0.37177 0.28556 0.0245 0.02452 1.8025 0.03952 3.951 0.03339 3.6515-0.01043 3.9082-0.02029 3.9335-0.15156 0.022-0.11411-0.0309-0.14043-0.28195-0.14043-0.16996 0-0.3933-0.05895-0.49622-0.13103-0.2537-0.1777-0.20805-0.4163 0.363-1.8952l0.45702-1.1836h3.2484l0.46032 1.1836c0.2531 0.651 0.51314 1.319 0.57787 1.4844 0.1296 0.33124 0.0916 0.54182-0.0978 0.54182-0.0677 0-0.12288 0.04943-0.12288 0.10987 0 0.16517 0.43959 0.20927 2.0966 0.21018 1.2263 7.27e-4 1.5126-0.02052 1.594-0.11849 0.11761-0.14172 0.0709-0.16399-0.50421-0.24105-0.48497-0.06499-0.82925-0.35628-1.1597-0.98083-0.13508-0.25534-0.67905-1.5295-1.2089-2.8315-0.52981-1.302-1.3304-3.2693-1.7789-4.3719-0.44855-1.1026-0.85349-2.0505-0.89996-2.1065-0.0528-0.06352-0.11569-0.09569-0.17962-0.09858zm-79.198 0.0039c-0.05357 4.25e-4 -0.10816 0.01751-0.13604 0.04544-0.03718 0.03724-0.10577 2.2384-0.15234 4.8914-0.05337 3.0415-0.11681 4.9162-0.17178 5.0739-0.09095 0.26087-0.41777 0.4127-0.89054 0.41361-0.11876 2.46e-4 -0.23566 0.03249-0.25986 0.07163-0.1203 0.19465 0.23856 0.23456 1.9994 0.2224 1.6871-0.01164 1.847-0.02469 1.8717-0.15313 0.02139-0.11094-0.02898-0.1406-0.23964-0.1409-0.14668-2.45e-4 -0.40507-0.0388-0.5741-0.08573-0.56478-0.15683-0.56607-0.16768-0.71454-6.2934l-0.02139-0.88271 3.8545 3.8811c2.9158 2.936 3.8927 3.8738 4.0122 3.8509 0.14184-0.02715 0.16292-0.11986 0.20782-0.91202 0.02748-0.485 0.07496-2.6332 0.10563-4.7737 0.03058-2.1406 0.08965-4.0231 0.1312-4.1835 0.09714-0.37537 0.21936-0.47034 0.69166-0.5379 0.26327-0.03766 0.38571-0.09313 0.38571-0.1746 0-0.10221-0.26527-0.11943-1.8446-0.11943-1.6929 0-1.8467 0.01154-1.8715 0.14043-0.02219 0.11532 0.03178 0.14043 0.30233 0.14043 0.46178 0 0.87039 0.18891 0.96892 0.4481 0.06666 0.17535 0.22952 4.6997 0.23636 6.5649l2e-3 0.47286-2.3091-2.3587c-1.27-1.2973-3.007-3.0809-3.86-3.9636-0.85297-0.88271-1.6051-1.6174-1.6715-1.6325-0.01659-0.0038-0.03448-0.0054-0.05237-0.0053zm-13.19 0.0086c-0.05685 0.0094-0.10832 0.04538-0.12711 0.09435-0.02506 0.0653-0.06944 1.9722-0.09858 4.2374-0.05969 4.6369-0.11312 5.7138-0.29262 5.8933-0.06596 0.06596-0.32597 0.14124-0.57771 0.16723-0.36231 0.0374-0.45252 0.07403-0.43289 0.17601 0.02181 0.11335 0.24841 0.13055 1.8841 0.14357 1.523 0.01211 1.8762-0.0057 1.9538-0.09921 0.11319-0.13638 0.05805-0.16095-0.51706-0.22977-0.80432-0.09625-0.83757-0.20927-0.93114-3.1597-0.04159-1.3112-0.07653-2.7723-0.07774-3.2469l-0.0021-0.86296 0.57724 0.62222c0.31749 0.34218 2.0459 2.0972 3.8409 3.9001 2.3572 2.3676 3.305 3.2701 3.4128 3.2494 0.10398-0.02002 0.16539-0.12596 0.20218-0.34904 0.02905-0.17616 0.07606-2.1981 0.10454-4.4932 0.02847-2.2951 0.0732-4.3998 0.09936-4.6773 0.0606-0.64221 0.19631-0.81114 0.71047-0.88459 0.27598-0.03943 0.40122-0.09452 0.40122-0.17664 0-0.10221-0.26527-0.11943-1.8446-0.11943-1.6304 0-1.8475 0.015-1.8695 0.12899-0.01999 0.10374 0.07375 0.13781 0.47944 0.1746 0.40531 0.03675 0.53816 0.08507 0.67677 0.24622 0.21926 0.2549 0.25132 0.7019 0.3166 4.4255l0.04921 2.8086-1.3512-1.4043c-3.1647-3.2893-6.3996-6.5419-6.5287-6.5644-0.01914-0.0033-0.03873-0.0031-0.05768 0zm27.784 0.0243-0.58305 0.27334c-1.0725 0.50267-1.5787 1.2671-1.5759 2.3811 9.5e-4 0.57497 0.03368 0.71559 0.28572 1.2438 0.36138 0.75746 0.81988 1.2617 2.0461 2.2505 1.2564 1.0132 1.5809 1.4361 1.685 2.1955 0.10012 0.73042-0.45069 1.531-1.1913 1.7314-0.72111 0.19512-1.6919-0.03277-2.1272-0.49935-0.24734-0.26515-0.47952-0.83329-0.54574-1.3352-0.04358-0.3302-0.08505-0.42015-0.18494-0.40092-0.19258 0.03709-0.23944 0.31743-0.24827 1.4864l-8e-3 1.0612 0.23917 0.12366c0.13153 0.06802 0.42945 0.17483 0.66203 0.23745 0.56993 0.15344 1.9936 0.15585 2.5751 0.0044 0.99374-0.25884 1.7281-0.83868 2.1105-1.6667 0.20326-0.4401 0.23103-0.59199 0.23103-1.2626 0-0.71209-0.01939-0.80293-0.29372-1.3775-0.35271-0.7386-0.98779-1.4102-2.2416-2.3704-0.46762-0.35812-0.97848-0.80101-1.1352-0.98412-0.68388-0.79897-0.5086-1.8568 0.37413-2.2577 0.48493-0.22024 1.2867-0.20438 1.7391 0.03449 0.43354 0.22888 0.7917 0.7183 0.85137 1.1631 0.05077 0.37809 0.19637 0.55561 0.32537 0.39653 0.04517-0.05571 0.09515-0.56897 0.11097-1.1407l0.02878-1.0396-0.36111-0.11724c-0.24641-0.08006-0.74345-0.11952-1.5648-0.12413zm-31.216 0.08024-0.20062 0.03244c-0.11034 0.0178-1.6089 0.03588-3.3302 0.04013-2.721 0.0068-3.1296 0.02338-3.1296 0.12774 0 0.08668 0.13381 0.13637 0.48148 0.17883 0.7745 0.0946 0.81247 0.17171 0.88553 1.8018 0.0727 1.6221-0.01252 7.1611-0.11692 7.599-0.09754 0.40911-0.1452 0.44706-0.6343 0.50499-0.36386 0.0431-0.50784 0.14808-0.37929 0.27663 0.01972 0.01972 1.4837 0.04438 3.2534 0.05486l3.2177 0.01912 0.12053-0.2887c0.06633-0.15875 0.14262-0.65063 0.16958-1.093 0.04542-0.74557 0.03845-0.80227-0.0953-0.77598-0.09682 0.01904-0.17674 0.15638-0.24293 0.41738-0.12008 0.47349-0.39157 0.76178-0.80889 0.85858-0.42834 0.09934-1.6907 0.09435-2.0598-0.0081-0.55694-0.15467-0.581-0.25582-0.581-2.4394v-1.9297l1.0833 0.02116c0.59583 0.01161 1.1795 0.05987 1.2971 0.1072 0.22498 0.09059 0.36594 0.35306 0.40484 0.75372 0.01425 0.14676 0.07475 0.24972 0.15564 0.26503 0.14882 0.02819 0.18733-0.18476 0.27632-1.5283 0.05695-0.85979 0.03048-0.90422-0.36471-0.61204-0.21122 0.15617-0.33984 0.17124-1.5415 0.18056l-1.3111 0.01018-0.02163-1.8275c-0.01841-1.5597-0.0039-1.8344 0.09826-1.8736 0.06584-0.02527 0.64568-0.01122 1.2886 0.03118 1.3566 0.0895 1.499 0.16063 1.6173 0.80811 0.0449 0.24576 0.10907 0.37412 0.18698 0.37412 0.13842 0 0.20755-0.38678 0.25156-1.4056zm53.968 0.05658c-1.024 0.0062-2.0316 0.0288-2.0859 0.06239-0.17329 0.1071-0.0255 0.21723 0.36331 0.27052 0.51639 0.07079 0.88904 0.26622 1.0716 0.56204 0.0855 0.13874 1.0258 2.3619 2.0894 4.9405 1.0636 2.5786 1.9736 4.7362 2.0222 4.7947 0.16771 0.20208 0.38084 0.11733 0.55279-0.21974 0.0914-0.17938 0.73847-1.6328 1.4377-3.2299 3.0482-6.9622 2.9376-6.7536 3.6312-6.8456 0.4016-0.05327 0.5596-0.1634 0.38729-0.26989-0.0543-0.03356-0.84376-0.05665-1.7544-0.05125-1.5086 9e-3 -1.6582 0.02235-1.6828 0.1503-0.0217 0.11219 0.0295 0.14043 0.25438 0.14043 0.15484 0 0.3788 0.03696 0.49763 0.08212 0.1905 0.07243 0.21079 0.11429 0.17193 0.35374-0.0242 0.14935-0.6704 1.8451-1.436 3.7685l-1.3921 3.497-0.63022-1.6639c-2.3138-6.1082-2.2229-5.8172-1.8595-5.9553 0.11887-0.0452 0.32201-0.08212 0.45154-0.08212 0.2609 0 0.33324-0.20359 0.0952-0.26785-0.12051-0.03252-1.161-0.04285-2.185-0.03667zm-66.46 0.0068c-0.2619-5.76e-4 -0.54968 3.95e-4 -0.8672 0.0024-2.183 0.01351-2.3684 0.02546-2.3933 0.15501-0.02183 0.11339 0.03219 0.14131 0.27992 0.14498 0.45433 0.0067 0.85093 0.16968 0.96547 0.39669 0.07769 0.15397 0.10066 1.1709 0.09889 4.3734-0.0012 2.2951-0.03266 4.3298-0.06974 4.5217-0.08425 0.43608-0.21336 0.56752-0.61314 0.62363-0.49243 0.06912-0.54766 0.09641-0.44496 0.22021 0.13009 0.15673 4.2928 0.16737 4.4223 0.01128 0.11925-0.14369 0.05013-0.1719-0.58398-0.23792-0.88057-0.09168-0.81613 0.2901-0.84259-4.9949l-0.02273-4.5175 0.54433 0.0017c0.68475 0.0022 1.0743 0.17335 1.5333 0.67316 0.44682 0.48659 0.58376 0.82607 0.63508 1.5747 0.09337 1.3622-0.60777 2.3805-1.7523 2.5452-0.30224 0.0435-0.43368 0.09854-0.43368 0.18165 0 0.09681 0.13596 0.11876 0.72222 0.11755 0.64067-0.0015 0.78275-0.03012 1.2582-0.2539 1.2469-0.5868 1.9115-1.6425 1.9115-3.0362 0-0.48016-0.04034-0.65515-0.24544-1.0656-0.27747-0.55526-0.57698-0.84167-1.1589-1.1081-0.54938-0.25154-1.1102-0.32518-2.9434-0.32914zm48.426 0.0071c-0.70922 0.0065-0.93965 0.03427-0.99367 0.09936-0.10111 0.12182-0.09135 0.12729 0.46141 0.26864 0.51587 0.13189 1.0708 0.80739 2.3057 2.8058 1.4343 2.3212 1.5764 2.6081 1.6667 3.3655 0.0964 0.80963 2e-3 3.1134-0.13934 3.3904-0.10544 0.20695-0.37624 0.31158-0.80606 0.31158-0.17256 0-0.25699 0.14769-0.14718 0.25751 0.0239 0.02392 1.0255 0.03891 2.2258 0.03338 1.9172-0.0088 2.1852-0.02529 2.2066-0.13636 0.0194-0.10041-0.0943-0.14167-0.5531-0.20062-0.49701-0.06386-0.60108-0.10581-0.74557-0.30077-0.15902-0.21457-0.16786-0.32485-0.16786-2.0864v-1.8599l0.22428-0.48148c0.31254-0.6709 2.0803-3.6023 2.5528-4.2333 0.45655-0.60963 0.64311-0.74678 1.2147-0.89306 0.2541-0.06502 0.42177-0.15211 0.42177-0.21911 0-0.15213-3.2584-0.16632-3.3091-0.01442-0.0178 0.0533 0.0966 0.15078 0.25421 0.2166 0.51597 0.21558 0.43429 0.469-0.95715 2.971-0.52946 0.95204-0.98085 1.7298-1.0031 1.7286-0.0502-0.0029-2.0915-3.5896-2.3366-4.1056-0.14863-0.31296-0.16135-0.39759-0.0751-0.50154 0.0571-0.06878 0.17422-0.12507 0.26032-0.12507 0.1059 0 0.14792-0.04543 0.12963-0.14043-0.0247-0.12835-0.18041-0.14124-1.8101-0.1503-0.35398-2e-3 -0.64363-0.0022-0.88004 0zm12.134 0.0099c-1.9233 0-2.1672 0.01437-2.1892 0.12883-0.0193 0.10016 0.0677 0.13983 0.39027 0.17805 0.57841 0.0685 0.77441 0.21716 0.83648 0.63445 0.028 0.18841 0.0394 2.2204 0.0253 4.5154-0.0297 4.8098 2.3e-4 4.6025-0.68179 4.7346-0.44467 0.08612-0.59748 0.17568-0.45264 0.26519 0.0497 0.0307 1.591 0.06573 3.4252 0.07774l3.3349 0.02179 0.11629-0.18244c0.13087-0.20511 0.2909-1.1449 0.2909-1.7082 0-0.30163-0.0248-0.36664-0.13165-0.34559-0.076 0.01497-0.17454 0.17119-0.2329 0.3691-0.26043 0.88303-0.52953 1.0221-1.9626 1.0145-1.1805-0.0063-1.4395-0.06989-1.6609-0.40766-0.13377-0.20408-0.14627-0.52837-0.16738-4.3244-0.0142-2.5625 7e-3 -4.1821 0.0563-4.3122 0.0857-0.22526 0.4696-0.37697 0.95542-0.37788 0.21068-3.64e-4 0.26101-0.02996 0.23965-0.1409-0.025-0.1296-0.19398-0.14043-2.1916-0.14043zm18.265 2.8267c0.0513 0.05219 0.32687 0.78703 1.1592 3.0915l0.10878 0.30092h-1.2805c-0.75984 0-1.2803-0.03116-1.2803-0.07665 0-0.19392 1.2387-3.3709 1.2929-3.3158zm29.134 0.0037c0.032 0.03212 0.3093 0.74457 0.61642 1.5831 0.30712 0.83858 0.58386 1.5879 0.61485 1.6651 0.0523 0.13027-0.0372 0.14043-1.2361 0.14043-0.71089 0-1.294-0.02708-1.2958-0.06019-9e-3 -0.15812 1.2501-3.3794 1.3007-3.3285zm-39.333 11.494c-0.13723 0-0.15974 0.4801-0.16065 3.4553-9.5e-4 3.3013-5e-3 3.3282-0.39605 3.3801-0.10689 0.01412-0.20926 0.07088-0.22742 0.12601h1.5e-4c-0.0254 0.07699 0.2221 0.10031 1.0636 0.10031 0.84144 0 1.089-0.02338 1.0637-0.10031-0.0181-0.05514-0.16288-0.11126-0.32161-0.12475-0.15874-0.01354-0.33457-0.07995-0.39074-0.14765-0.11272-0.13583-0.25281-2.9426-0.21331-4.2733l0.0224-0.75388 1.1615 1.2755c1.5319 1.6823 3.9356 4.1244 4.0595 4.1244 0.054 0 0.12008-0.05715 0.14686-0.12696 0.0268-0.06983 0.0488-1.5278 0.0488-3.2401 0-3.3415-0.0146-3.2262 0.42176-3.3357 0.48502-0.12173 0.16705-0.19842-0.82299-0.19842-1.0239 0-1.3584 0.09312-0.72112 0.20078 0.19827 0.03349 0.35428 0.11494 0.40609 0.21174 0.0505 0.09421 0.10195 1.1446 0.12852 2.6207l0.0444 2.4637-0.27678-0.28086c-0.15226-0.15447-1.3338-1.4274-2.6254-2.8287-1.2916-1.4013-2.3766-2.5478-2.4112-2.5478zm-29.251 6.07e-4c-0.57817 0.0034-1.4533 0.2062-1.9602 0.45421-0.61593 0.30135-1.0884 0.80689-1.4338 1.5341-0.26186 0.55141-0.2965 0.70072-0.32444 1.3963-0.02519 0.62726 2e-3 0.88761 0.13808 1.3368 0.40224 1.3243 1.5005 2.1777 3.1027 2.4112 0.66454 0.09683 0.86711 0.09859 1.6059 0.01364 1.0821-0.12446 1.1584-0.20263 1.2888-1.3195 0.04477-0.38349 0.03448-0.46514-0.05577-0.43508-0.06106 0.02032-0.14269 0.17074-0.18133 0.33415-0.09175 0.38818-0.45907 0.74723-0.88005 0.86061-0.18658 0.05027-0.67809 0.07708-1.1018 0.06001-0.63782-0.02557-0.84197-0.0684-1.2278-0.2572-0.62083-0.30374-1.2214-0.92023-1.5292-1.5698-0.2342-0.49424-0.24952-0.58326-0.24952-1.4495 0-1.102 0.13658-1.5789 0.60452-2.1105 0.17326-0.19684 0.48271-0.43659 0.68757-0.53289 0.7333-0.34468 2.2398-0.353 2.897-0.01598 0.4551 0.23336 0.66917 0.50499 0.73131 0.92801 0.03018 0.20537 0.09105 0.37268 0.13511 0.37177 0.09175-0.0018 0.22172-1.6234 0.13619-1.699-0.08365-0.07391-1.9219-0.314-2.3831-0.31127zm-39.095 1.57e-4c-1.5439 0.0024-2.7955 0.65048-3.3821 1.7512-0.45895 0.86107-0.59194 1.7126-0.40578 2.5977 0.32371 1.539 1.4897 2.5515 3.2146 2.7912 0.92075 0.12798 2.4308-0.03444 2.6376-0.28368 0.10025-0.12079 0.32605-1.3216 0.2666-1.4178-0.08687-0.14056-0.17435-0.0434-0.27068 0.30062-0.19567 0.69884-0.73805 0.95394-1.9305 0.90794-0.61216-0.02357-0.84509-0.07021-1.2161-0.24341-1.2503-0.58361-2.013-1.9464-1.8759-3.3523 0.18899-1.9388 1.2936-2.7808 3.3669-2.5662 0.98169 0.10161 1.511 0.51155 1.6228 1.2568 0.05635 0.37577 0.15139 0.44604 0.22068 0.16316 0.07667-0.31304 0.08058-1.5098 0.0052-1.5805-0.09282-0.08703-1.7479-0.32566-2.2533-0.32475zm62.859 0.01896c-0.56763-8e-3 -1.1211 0.10456-1.6178 0.33196-0.63167 0.28918-1.019 0.61745-1.3976 1.1844-1.0127 1.5165-0.82185 3.5267 0.44903 4.7286 0.48839 0.46189 1.0811 0.7612 1.7158 0.86641 0.60807 0.10082 0.76513 0.10178 1.3607 0.0086 1.9435-0.30498 3.2607-2.194 2.9682-4.2565-0.21698-1.5298-1.2837-2.5626-2.9075-2.8147-0.19081-0.02963-0.38162-0.04577-0.57082-0.04843zm25.861 1.58e-4c-1.6231 0.03342-2.9831 1.0683-3.4006 2.6713-0.53275 2.0454 0.70854 4.0968 2.689 4.444 0.52756 0.09244 1.3834 0.03921 1.9172-0.11926 1.6063-0.47704 2.6844-2.2927 2.4256-4.0852-0.2282-1.5806-1.2757-2.607-2.9213-2.8625-0.24064-0.03737-0.47796-0.05304-0.70984-0.04827zm-43.519 0.01771c-0.11291 0.0036-0.30569 0.50783-1.2911 3.2125-0.56284 1.5447-1.0927 2.9456-1.1774 3.1129-0.1529 0.3019-0.30225 0.40282-0.73256 0.49511-0.12318 0.02643-0.20232 0.08299-0.17585 0.12586 0.07526 0.12179 2.0663 0.10192 2.0256-0.02023-0.01799-0.054-0.12035-0.11864-0.22742-0.14373-0.11664-0.02728-0.20437-0.11264-0.21896-0.21299-0.01339-0.09206 0.12392-0.62326 0.30516-1.1803l0.32945-1.013h2.0585l0.44292 1.1836c0.27587 0.73734 0.41177 1.203 0.36049 1.2349-0.04528 0.02814-0.05747 0.09139-0.02708 0.14044 0.06686 0.10816 1.8913 0.12509 1.8913 0.01755 0-0.08433-0.19637-0.16911-0.39199-0.16911-0.0761 0-0.25744-0.12289-0.40311-0.27318-0.21378-0.22057-0.49408-0.86477-1.4535-3.3398-0.65379-1.6865-1.2247-3.1024-1.2688-3.1464-0.01499-0.01495-0.02948-0.02466-0.04557-0.02415zm3.7359 0.0012c-0.0795 0.0114-0.11718 0.13226-0.21378 0.52646-0.0969 0.39499-0.11414 0.59586-0.0563 0.65373 0.0579 0.05786 0.12378 0.0056 0.21457-0.1699 0.17885-0.3459 0.39183-0.40703 1.4186-0.40703h0.88365l-0.0262 2.9569c-0.0277 3.1302-0.0343 3.1823-0.40687 3.2373-0.0927 0.01364-0.1834 0.07002-0.20156 0.12524-0.0254 0.07718 0.23831 0.1003 1.144 0.1003 0.90564 0 1.1693-0.02309 1.144-0.1003-0.0181-0.05514-0.16545-0.11156-0.32742-0.12524-0.20249-0.01708-0.32555-0.07976-0.39402-0.20061-0.0726-0.12816-0.10733-0.96303-0.12821-3.0846l-0.0287-2.9089h0.81266c0.99463 0 1.3233 0.11119 1.3955 0.47239 0.0864 0.43219 0.20019 0.27233 0.22788-0.3202 0.0147-0.3135 9e-3 -0.59337-0.0134-0.62191-0.0221-0.02857-1.1957-0.05188-2.608-0.05188s-2.645-0.02823-2.7392-0.06269c-0.0395-0.01443-0.0707-0.02278-0.0971-0.01896zm47.149 0.0015c-0.0357-7e-3 -0.0825 0.01401-0.11803 0.0569-0.0474 0.05717-0.59319 1.4905-1.2128 3.1851-1.1929 3.2626-1.3162 3.5062-1.8004 3.5545-0.13403 0.01335-0.25853 0.06945-0.27663 0.12461-0.0253 0.0768 0.21429 0.1003 1.0236 0.1003 0.80933 0 1.0488-0.02347 1.0236-0.1003-0.0181-0.05514-0.13389-0.11215-0.2572-0.12664-0.21302-0.025-0.22215-0.04303-0.18416-0.36111 0.0221-0.18413 0.17516-0.72298 0.34043-1.1974l0.30045-0.86265h2.0317l0.41816 1.1435c0.22998 0.62893 0.40953 1.2157 0.39888 1.304-0.0181 0.15067 0.0342 0.16187 0.85639 0.18337 0.85781 0.02242 1.2942-0.07804 0.80089-0.18447-0.44084-0.09511-0.58211-0.19183-0.78428-0.53681-0.11159-0.1904-0.71221-1.6639-1.3347-3.2744-0.62253-1.6106-1.1602-2.957-1.1948-2.992-9e-3 -0.0088-0.0193-0.01413-0.0312-0.01646zm-80.317 0.03825c-0.16115 0.01501-0.43055 1.0373-0.29654 1.1623 0.06262 0.05841 0.1023 0.04748 0.1326-0.03637 0.02378-0.06577 0.14277-0.21925 0.26456-0.34105 0.21626-0.21626 0.24332-0.22146 1.1506-0.22146h0.92895l-8e-3 2.8688c-0.0044 1.5778-0.03257 2.9571-0.06269 3.065-0.0371 0.13293-0.13803 0.21766-0.31299 0.263-0.14203 0.03682-0.25829 0.1021-0.25829 0.14498 0 0.04684 0.4666 0.07785 1.1703 0.07785 0.90027 0 1.1626-0.02309 1.1372-0.1003-0.01811-0.05514-0.14704-0.11159-0.2865-0.12539-0.49428-0.04884-0.49637-0.06344-0.49637-3.2829v-2.9111l0.7824 1.57e-4c0.93532 1.49e-4 1.3284 0.14404 1.3695 0.50138 0.01394 0.12137 0.05838 0.22068 0.09874 0.22068 0.11143 0 0.16897-0.32219 0.14137-0.79149l-0.02475-0.42176-2.6481-0.0152c-1.4565-0.0084-2.7015-0.0334-2.7668-0.05548-5e-3 -0.0018-0.01-0.0021-0.01519-0.0018zm-8.3187 0.0091c-0.02542-9.1e-4 -0.06029 0.0081-0.10658 0.02053-0.10325 0.02762-0.97318 0.05064-1.9331 0.05125-1.6176 9.08e-4 -2.1385 0.07004-1.4725 0.19497 0.49964 0.09373 0.48947 0.02747 0.48947 3.2091 0 3.0691-0.01725 3.2195-0.37474 3.2721-0.09595 0.01412-0.18934 0.07069-0.20751 0.12586-0.02579 0.07832 0.37277 0.1003 1.8165 0.1003 2.1197 0 1.9647 0.06001 2.0617-0.79682 0.04625-0.40887 0.03626-0.5011-0.05078-0.47208-0.0595 0.01984-0.13637 0.1449-0.17084 0.27789-0.11806 0.45561-0.31559 0.54965-1.1537 0.54965-1.0637 0-1.0317 0.0497-1.0633-1.6477l-0.02523-1.3615h0.70952c0.81132 0 1.0167 0.09244 1.097 0.49371 0.08033 0.4016 0.1861 0.17865 0.24936-0.52536 0.05366-0.59723 0.04849-0.62979-0.09138-0.56753-0.21326 0.09492-1.6667 0.23304-1.8226 0.17318-0.11418-0.04378-0.13134-0.22019-0.13134-1.3465v-1.296l0.75074 0.03291c0.84887 0.03713 1.1752 0.17733 1.1752 0.50499 0 0.10672 0.03506 0.21567 0.07791 0.24215 0.08821 0.05452 0.132-0.11382 0.20594-0.79212 0.03812-0.34968 0.04664-0.44037-0.02963-0.44292zm22.716 0.04075c-0.05517 0.0044-0.94892 0.01343-1.9861 0.02005-1.7448 0.01113-2.2216 0.07145-1.6651 0.21034 0.51808 0.12929 0.50168 0.02765 0.50108 3.0842-6.1e-4 3.0424-0.03498 3.3525-0.37694 3.3931-0.11658 0.01383-0.22675 0.07031-0.24498 0.12539-0.02489 0.07709 0.239 0.10015 1.144 0.10015 0.90563 0 1.1693-0.02309 1.144-0.10031-0.01809-0.05514-0.14704-0.11142-0.28651-0.12523-0.45265-0.04474-0.49637-0.20324-0.49637-1.7983v-1.4267h0.72755c0.40012 0 0.7958 0.03663 0.87926 0.08137 0.08345 0.04464 0.17535 0.20716 0.20422 0.36111 0.07376 0.3929 0.17679 0.34794 0.23291-0.10141 0.02618-0.20964 0.06486-0.51659 0.08605-0.68209 0.04268-0.33343 6.1e-4 -0.35618-0.33525-0.18103-0.1578 0.08232-0.4752 0.12007-1.0123 0.12037l-0.78241 6.02e-4v-2.6712l0.82252 0.04404c0.45239 0.02423 0.88375 0.06871 0.95858 0.09874 0.07476 0.03003 0.18788 0.20491 0.25124 0.38869 0.11364 0.32965 0.11633 0.33138 0.19639 0.13103 0.13006-0.32554 0.15702-1.0823 0.03828-1.0728zm-19.493 0.03213c-1.3752 0-1.8355 0.07448-1.199 0.19388 0.49143 0.0922 0.48126 0.02511 0.47944 3.2039-0.0018 3.0575-0.02063 3.2266-0.36471 3.2773-0.09588 0.01412-0.18924 0.07069-0.20752 0.12585-0.02497 0.07699 0.2309 0.10015 1.1039 0.10015 0.87352 0 1.1292-0.02319 1.1039-0.1003-0.01811-0.05514-0.14704-0.11159-0.28651-0.12539-0.4362-0.04312-0.49637-0.22718-0.49637-1.5175v-1.1457l1.1636 0.001212 0.83334 1.1242c0.93049 1.2552 1.23 1.556 1.6722 1.6787 0.37036 0.10285 1.5206 0.11241 1.5819 0.01316 0.05592-0.09044-0.14242-0.16896-0.4271-0.16896-0.49751 0-1.0228-0.47614-2.2402-2.0308l-0.66141-0.84478 0.39998-0.52849c1.0362-1.3689 0.7742-2.7274-0.60608-3.1428-0.26624-0.08013-0.81121-0.11363-1.8493-0.11363zm12.772 0c-1.0254 0-1.3532 0.07541-0.86312 0.19842 0.43557 0.10932 0.42177 0.0042 0.42177 3.2066 0 3.1287-0.0087 3.2085-0.35453 3.2688-0.08462 0.01479-0.16876 0.07193-0.18714 0.12711-0.02572 0.07718 0.23764 0.10031 1.1435 0.10031 0.90564 0 1.1693-0.02309 1.144-0.10031-0.01814-0.05514-0.16288-0.11126-0.32161-0.12476-0.15874-0.01345-0.33644-0.08223-0.39496-0.15266-0.137-0.16491-0.20292-5.8669-0.07069-6.1139 0.04582-0.08561 0.19197-0.17962 0.32475-0.20877 0.53594-0.11771 0.1876-0.20078-0.84196-0.20078zm9.3487 0c-0.99231 0-1.3313 0.08446-0.80388 0.20031 0.39252 0.08621 0.41898 0.31885 0.38918 3.4186-0.02828 2.9373-0.03688 3.002-0.40735 3.0567-0.09265 0.01364-0.1834 0.07002-0.20156 0.12523-0.02549 0.07718 0.2383 0.10031 1.144 0.10031 0.90564 0 1.1693-0.02309 1.144-0.10031-0.01809-0.05514-0.16545-0.11154-0.32742-0.12523-0.20274-0.01717-0.32526-0.07965-0.3934-0.20061-0.13621-0.24183-0.19623-5.4149-0.06836-5.8898 0.07366-0.27358 0.13172-0.34168 0.32866-0.38493 0.52738-0.11583 0.18839-0.20031-0.80388-0.20031zm23.833 0c-0.99379 0-1.3312 0.0845-0.80185 0.20078 0.13278 0.02918 0.27723 0.11993 0.32099 0.20171 0.10802 0.20185 0.10492 5.5618-4e-3 5.952-0.065 0.23397-0.12656 0.30109-0.29433 0.32099-0.11667 0.01383-0.22687 0.07021-0.24497 0.12538-0.0254 0.07718 0.23834 0.10031 1.144 0.10031 0.90563 0 1.1693-0.02309 1.144-0.10031-0.0181-0.05514-0.14811-0.11165-0.289-0.12554-0.4957-0.04884-0.49813-0.06592-0.47475-3.3526l0.021-2.9616 0.26081-0.11473c0.14343-0.06313 0.2608-0.14438 0.2608-0.18055s-0.46945-0.06582-1.0432-0.06582zm44.883 0c-1.3803 0-1.8332 0.07449-1.1885 0.19545 0.5342 0.10022 0.53325 0.09384 0.50562 3.3163-0.0262 3.0525-0.0335 3.109-0.40547 3.1639-0.0927 0.01364-0.18339 0.07002-0.20155 0.12523-0.0254 0.07718 0.2383 0.10031 1.144 0.10031 0.90564 0 1.1694-0.02309 1.144-0.10031-0.0181-0.05514-0.16288-0.1114-0.32161-0.1249-0.46104-0.03921-0.49823-0.14285-0.52882-1.4722l-0.0274-1.1915h1.1954l0.93459 1.2374c1.1632 1.5401 1.2469 1.5981 2.368 1.6396 0.67831 0.02509 0.82586 0.01058 0.79605-0.0788-0.0202-0.06058-0.2077-0.1342-0.41878-0.16441-0.39098-0.0559-0.90529-0.3543-1.1517-0.668-0.0759-0.09655-0.50894-0.63502-0.96234-1.1966l-0.82425-1.0211 0.31895-0.36252c0.43333-0.49231 0.67381-1.019 0.71312-1.5625 0.0433-0.59807-0.0865-0.96055-0.46642-1.3039-0.49116-0.44374-0.92399-0.53148-2.6229-0.53148zm-21.402 8e-3c-0.53971 9.09e-4 -0.85231 0.02071-0.85231 0.0569 0 0.04273 0.12598 0.10137 0.27992 0.13024 0.15394 0.02887 0.31644 0.12075 0.36112 0.20422 0.10351 0.19342 0.11016 5.7732 8e-3 6.044-0.0488 0.12831-0.1599 0.21169-0.32631 0.24497-0.15297 0.03062-0.2311 0.0849-0.19843 0.13777 0.0368 0.05934 0.54418 0.0789 1.5902 0.06115 1.4098-0.02395 1.564-0.04102 1.8728-0.20611 0.98648-0.52728 1.391-1.6025 0.95136-2.529-0.17175-0.36194-0.60409-0.79523-0.98851-0.9907-0.16463-0.08366-0.31494-0.16179-0.33399-0.1735-0.0191-0.01173 0.0763-0.13809 0.21174-0.28087 0.80107-0.8442 0.73794-1.9803-0.13698-2.4663-0.34198-0.18999-0.43871-0.20208-1.8256-0.2271-0.22722-0.0041-0.43229-0.0059-0.61219-0.0056zm27.983 9.09e-4c-0.79743-0.0018-1.23 0.01684-1.23 0.05485 0 0.04345 0.12669 0.10276 0.2815 0.13181 0.5342 0.10022 0.53324 0.09384 0.50562 3.3163-0.0262 3.0525-0.0335 3.1091-0.40547 3.1641-0.0926 0.01364-0.1829 0.06897-0.20062 0.12272-0.0239 0.0725 0.22395 0.1043 0.9567 0.12303 2.3884 0.06106 2.6844 0.05505 3.1887-0.06382 0.9483-0.22353 1.6876-0.77689 2.195-1.6429 0.56482-0.96397 0.60838-2.4578 0.10046-3.4493-0.3749-0.73192-0.89368-1.1705-1.7842-1.5085-0.52557-0.19949-0.61932-0.2078-2.6911-0.23948-0.34437-0.0052-0.65076-0.0082-0.91657-0.0088zm-45.328 0.24325c0.65218-0.0041 1.1161 0.19175 1.6324 0.66971 0.56322 0.52144 0.85314 1.1034 0.99086 1.9892 0.11075 0.71243 5e-3 1.7009-0.24325 2.2607-0.20018 0.45254-0.6805 0.97699-1.088 1.188-0.44029 0.22801-1.5353 0.27377-2.0518 0.08576-0.53518-0.19487-1.366-1.0564-1.611-1.6706-0.16901-0.4237-0.19204-0.61148-0.19325-1.5648-9.5e-4 -1.0016 0.0146-1.1172 0.20831-1.5302 0.40518-0.86395 1.0889-1.3323 2.0642-1.414 0.10155-0.0085 0.19851-0.01319 0.29167-0.0138zm25.922 0.03338c0.60167-0.0037 0.78607 0.02699 1.105 0.184 1.1416 0.56216 1.7642 1.8894 1.6317 3.4782-0.0995 1.1932-0.60785 2.0483-1.4528 2.4434-0.31409 0.14692-0.53193 0.18646-1.0031 0.18212-0.79656-0.0076-1.1976-0.16209-1.7535-0.67677-0.80297-0.74342-1.1007-1.5938-1.0374-2.9622 0.0467-1.0083 0.23754-1.4917 0.79509-2.0132 0.5558-0.51988 0.85355-0.63018 1.715-0.63555zm-7.3582 0.05063c0.23311-0.0015 0.39282 0.041 0.56204 0.14545 0.76304 0.47102 0.77336 2.2048 0.0144 2.416-0.22587 0.06286-0.76992 0.07174-0.98412 0.01603-0.12998-0.03387-0.1405-0.14701-0.12036-1.2948l0.0221-1.2576 0.40124-0.02178c0.0366-0.0021 0.0714-0.0031 0.1047-0.0033zm20.895 9.09e-4c0.6818-0.0072 1.2773 0.4069 1.4708 1.0586 0.23617 0.79528 0.10091 1.592-0.33525 1.975-0.2558 0.22458-0.31547 0.24023-0.89322 0.23432-0.34051-0.0038-0.66423-0.02462-0.7194-0.04684-0.0754-0.03043-0.1003-0.42546-0.1003-1.5897v-1.5492l0.28086-0.05266c0.1-0.01877 0.19915-0.02844 0.29653-0.02947zm-90.885 0.0032c0.58349-0.01361 1.1406 0.2997 1.3844 0.80341 0.12837 0.26518 0.17021 0.5038 0.17021 0.9708 0 0.70477-0.12256 1.0712-0.44246 1.3228-0.18505 0.14555-0.32094 0.17301-0.83225 0.16771-0.3361-0.0038-0.65623-0.02462-0.7114-0.04684-0.07538-0.03043-0.10031-0.42545-0.10031-1.5897v-1.5491l0.28086-0.05266c0.0836-0.01568 0.16757-0.02439 0.25093-0.02632zm97.229 0.06129h0.74838c1.3051 0 2.0204 0.24431 2.6919 0.9197 0.90396 0.90925 1.1774 2.2212 0.74228 3.5616-0.18267 0.56266-0.7097 1.1443-1.2974 1.4321-0.39862 0.19514-0.56628 0.22683-1.3002 0.24559-0.78244 0.02003-1.3236-0.07317-1.5106-0.26017-0.14001-0.14002-0.24779-5.0312-0.12444-5.648zm-12.679 0.99633c0.0365-0.0364 0.8671 2.2648 0.86407 2.3939-6.2e-4 0.0331-0.38058 0.0602-0.844 0.0602-0.46343 0-0.84227-0.0086-0.84196-0.02003 2e-3 -0.0683 0.79049-2.4026 0.82189-2.434zm-50.833 0.04373c9e-3 -9.1e-4 0.01559 0.0042 0.02169 0.01504 0.10682 0.19087 0.7973 2.1759 0.7973 2.292 0 0.07775-0.20836 0.10329-0.84055 0.10329-0.83856 0-0.84047-3.06e-4 -0.77206-0.18056 0.03768-0.0993 0.22108-0.66593 0.4075-1.2592 0.20883-0.66453 0.32736-0.96414 0.38619-0.97064zm35.708 1.8486 0.47034 0.0019c1.1028 0.0038 1.8748 0.8091 1.8745 1.9543-1.8e-4 0.57161-0.19973 0.93219-0.63869 1.1535-0.37227 0.18772-0.74844 0.21759-1.1767 0.0934-0.44491-0.12899-0.46724-0.20848-0.49966-1.77z" style="stroke-width:.30329"/>
 </g>
</svg>
