<?xml version="1.0" encoding="UTF-8" standalone="no"?>
<!-- Created with Inkscape (http://www.inkscape.org/) -->

<svg
   width="500"
   height="500"
   viewBox="0 0 132.29166 132.29167"
   version="1.1"
   id="svg1"
   inkscape:version="1.4 (86a8ad7, 2024-10-11)"
   sodipodi:docname="pcb.svg"
   xmlns:inkscape="http://www.inkscape.org/namespaces/inkscape"
   xmlns:sodipodi="http://sodipodi.sourceforge.net/DTD/sodipodi-0.dtd"
   xmlns="http://www.w3.org/2000/svg"
   xmlns:svg="http://www.w3.org/2000/svg">
  <sodipodi:namedview
     id="namedview1"
     pagecolor="#ffffff"
     bordercolor="#111111"
     borderopacity="1"
     inkscape:showpageshadow="0"
     inkscape:pageopacity="0"
     inkscape:pagecheckerboard="1"
     inkscape:deskcolor="#d1d1d1"
     inkscape:document-units="px"
     inkscape:zoom="0.55559665"
     inkscape:cx="146.68915"
     inkscape:cy="656.9514"
     inkscape:window-width="1920"
     inkscape:window-height="1115"
     inkscape:window-x="-9"
     inkscape:window-y="-9"
     inkscape:window-maximized="1"
     inkscape:current-layer="layer1" />
  <defs
     id="defs1" />
  <g
     inkscape:label="Layer 1"
     inkscape:groupmode="layer"
     id="layer1">
    <path
       id="path9"
       style="fill:#f04e55;fill-opacity:1;stroke-width:0.544782"
       d="m 81.166621,26.867203 c -0.139316,0 -0.185931,2.103667 -0.215103,9.651277 l -0.03709,9.650996 -1.225222,-0.805161 c -1.555141,-1.022032 -4.021798,-2.219022 -5.696953,-2.76459 -8.976885,-2.92362 -18.617227,-0.690572 -25.329474,5.867286 -0.53513,0.522822 -0.97296,1.006529 -0.97296,1.074867 0,0.06835 0.458549,0.810302 1.019114,1.64862 1.596473,2.387416 3.132479,5.70521 3.621017,7.821639 0.09133,0.395694 0.203648,0.719295 0.249722,0.719295 0.04608,0 0.245632,-0.307051 0.443692,-0.682421 0.576621,-1.092823 1.892377,-2.778081 2.907292,-3.723743 3.773521,-3.515856 8.825669,-4.832587 13.779585,-3.59171 1.732159,0.433875 4.233684,1.649019 5.490872,2.667465 0.504488,0.408643 0.963581,0.688803 1.020261,0.622447 0.05668,-0.06636 0.314337,-0.63968 0.572642,-1.273902 0.791719,-1.943874 2.678542,-5.189862 3.896011,-6.702575 l 0.289986,-0.360351 0.003,10.089893 c 0.003,10.70671 0.07202,12.227357 0.6703,14.918631 2.246162,10.10312 10.794868,17.813088 21.242307,19.15785 1.5,0.193074 4.55826,0.168379 6.19806,-0.05018 8.94369,-1.191514 16.48009,-7.021348 19.79864,-15.315301 1.89387,-4.733441 2.30562,-9.693034 1.22319,-14.733943 -1.56034,-7.266713 -6.794,-13.831447 -13.56786,-17.018823 -6.89803,-3.245803 -14.8628,-3.193405 -21.651869,0.142444 -1.641949,0.806769 -3.656735,2.088108 -3.777259,2.40226 -0.08314,0.21698 1.337785,11.811045 1.522507,12.421777 0.09376,0.309993 0.160853,0.251466 0.78008,-0.679597 0.853231,-1.283111 2.32004,-2.844332 3.551204,-3.779775 1.31439,-0.99868 3.565457,-2.077563 5.278037,-2.529513 1.24291,-0.328013 1.73141,-0.379866 3.60016,-0.382589 1.88039,-0.0026 2.34995,0.04643 3.60352,0.376395 1.70571,0.44898 3.95474,1.523806 5.26117,2.514308 2.11252,1.601646 4.01675,4.046067 4.96667,6.375723 0.91378,2.240869 1.29468,5.294246 0.95244,7.634987 -0.93251,6.377328 -5.93664,11.523138 -12.28355,12.631239 -1.8721,0.326841 -4.47356,0.207056 -6.27666,-0.288854 C 96.623363,79.074505 92.701998,74.967573 91.257236,69.244695 91.045133,68.405168 91.015696,66.352337 90.97093,49.497323 L 90.921343,30.686872 86.132875,28.777001 C 83.499294,27.726569 81.264476,26.867127 81.166444,26.867127 Z M 26.390388,41.335957 c -2.660133,-0.0054 -5.377327,0.416258 -8.064915,1.315572 -8.23004,2.753951 -14.3288074,9.649545 -16.3586129,18.495986 l -0.3201124,1.394958 -0.044707,21.441025 c -0.03599,17.306432 -0.010901,21.440842 0.1390373,21.441042 0.1011431,1.3e-4 2.3081518,-0.8498 4.9044933,-1.88876 L 11.36618,101.64676 V 83.748432 c 0,-11.464863 0.05371,-18.337471 0.149123,-19.119852 0.429979,-3.5167 1.918576,-6.584098 4.372691,-9.010244 2.49806,-2.46964 5.413259,-3.855212 8.983213,-4.270186 5.934458,-0.689836 12.013405,2.674632 14.746002,8.161442 1.110335,2.229376 1.430692,3.560205 1.597673,6.636418 0.257082,4.7353 0.957556,7.649696 2.667495,11.098883 1.267227,2.55619 2.514335,4.264461 4.740047,6.493395 2.069907,2.072922 3.944073,3.43561 6.46329,4.699803 7.854939,3.94179 17.509808,3.309349 24.845788,-1.627506 0.569315,-0.383118 1.070754,-0.754569 1.114566,-0.825436 0.04359,-0.07084 -0.136856,-0.412379 -0.401497,-0.758986 -1.443966,-1.89134 -3.04894,-4.72983 -4.285909,-7.579526 L 76.157737,77.183805 75.163104,77.95687 C 70.136943,81.863645 63.192583,82.099743 57.850916,78.545538 56.554463,77.682902 54.531719,75.661367 53.692807,74.389657 52.027387,71.865031 51.341743,69.5029 51.153418,65.641511 51.075446,64.039449 50.901242,62.348857 50.717332,61.406794 48.374281,49.409886 37.917519,41.36018 26.390388,41.335957 Z m 13.410456,31.36426 c -0.110139,-0.02931 -0.220006,0.23059 -0.449008,0.659044 -1.348032,2.522531 -3.682166,4.767031 -6.364464,6.120391 -5.072482,2.559318 -11.183,1.970355 -15.711983,-1.514616 -1.227751,-0.94473 -2.87594,-2.779104 -3.602914,-4.010062 -0.658246,-1.114398 -0.864892,-1.316514 -0.864892,-0.845142 0,0.143841 -0.292633,3.103996 -0.650313,6.577859 -0.47946,4.656897 -0.608438,6.36628 -0.491265,6.507474 0.25572,0.308138 2.269522,1.557415 3.519902,2.183519 2.421754,1.212628 5.497991,2.146615 8.173255,2.481376 1.513786,0.189444 5.721813,0.07389 7.249885,-0.199046 4.916842,-0.878034 9.29651,-3.106556 12.958368,-6.593337 1.009408,-0.96117 1.278431,-1.29543 1.167502,-1.451836 -1.985533,-2.799361 -3.476501,-5.640714 -4.255572,-8.10992 -0.39503,-1.251943 -0.536847,-1.767943 -0.678501,-1.805704 z" />
  </g>
</svg>
