<svg id="Layer_1" xmlns="http://www.w3.org/2000/svg" viewBox="0 0 369 60"><style>.st0{fill:#011F5B;} .st1{fill:#FFFFFF;} .st2{fill:#990000;}</style><path class="st0" d="M303.24,23.49h-1.03c-0.91-3.88-3.64-6.36-7.21-6.36c-4.24,0-7.21,3.64-7.21,8.91c0,5.88,3.7,10.79,8.06,10.79 c2.61,0,5.76-1.39,8-4.48v1.57c-2.3,3.15-5.57,4.73-9.45,4.73c-6.36,0-10.79-4.42-10.79-10.85c0-6.6,4.97-11.88,11.09-11.88 c3.21,0,4.97,1.21,6.06,1.21c0.55,0,1.09-0.42,1.45-1.21h1.03V23.49z M76.7,31.43c0,4.3,1.03,5.51,3.94,5.51v1.03H68.16v-1.03 c2.42,0,3.94-0.79,3.94-5.39V9.79c0-4.24-1.03-5.51-3.94-5.51V3.25h12.66c9.57,0,13.45,5.09,13.45,9.88c0,5.76-4.36,8.97-12.24,8.97 c-1.52,0-2.79-0.06-5.33-0.36C76.7,21.74,76.7,31.43,76.7,31.43z M76.7,20.16c1.58,0.55,2.48,0.61,4.3,0.61 c5.15,0,8.42-2.79,8.42-7.51c0-3.7-2.06-8.67-8.42-8.67h-4.3V20.16z M97.84,24.88c-0.12,9.63,5.63,12.06,8.54,12.06 c2.97,0,4.48-1.03,7.57-4.48v1.58c-2.61,3.33-5.09,4.6-8.85,4.6c-6.73,0-11.57-4.67-11.57-11.15s4.73-11.57,10.79-11.57 c4.97,0,9.57,4,9.27,8.97H97.84V24.88z M109.53,23.85c0.18-4.73-3.03-6.67-5.76-6.67c-3.58,0-5.7,2.67-5.94,6.67H109.53z M137.87,33.3c0,2.79,0.61,3.64,3.64,3.64v1.03h-11.46v-1.03c2.91,0,3.7-0.67,3.7-2.67V23.06c0-3.45-2.48-4.91-4.79-4.91 c-2.12,0-4,1.33-6.12,4.18v10.48c0,3.27,0.42,4.12,3.64,4.12v1.03h-11.33v-1.03c2.85,0,3.58-0.24,3.58-4.12V20.76 c0-2.61-0.67-3.15-3.58-3.15v-1.03l6.67-0.67h1.03v4.3c2.54-2.91,5.03-4.3,7.76-4.3c3.58,0,7.27,2.55,7.27,7.7L137.87,33.3 L137.87,33.3z M165.16,33.3c0,2.79,0.61,3.64,3.64,3.64v1.03h-11.45v-1.03c2.91,0,3.7-0.67,3.7-2.67V23.06 c0-3.45-2.48-4.91-4.79-4.91c-2.12,0-4,1.33-6.12,4.18v10.48c0,3.27,0.42,4.12,3.64,4.12v1.03h-11.33v-1.03 c2.85,0,3.58-0.24,3.58-4.12V20.76c0-2.61-0.67-3.15-3.58-3.15v-1.03l6.67-0.67h1.03v4.3c2.54-2.91,5.03-4.3,7.76-4.3 c3.57,0,7.27,2.55,7.27,7.7v9.69H165.16z M216.39,4.28c-2.97,0.06-4.12,2.12-3.88,5.39l1.76,21.39c0.36,4.24,1.09,5.57,4.3,5.88 v1.03h-12.48v-1.03c2.85-0.49,3.82-1.76,3.58-5.21l-1.7-22.42h-0.12l-11.88,28.66h-0.91L183.43,9.31h-0.12l-1.94,21.39 c-0.3,3.51,0.97,5.57,4.48,6.24v1.03h-10.79v-1.03c3.51-0.49,4.06-2.55,4.42-6.36l2.12-23.87c-1.33-1.45-2.55-2.12-4.54-2.42V3.25 h8.79l11.09,27.33l11.27-27.33h8.18L216.39,4.28L216.39,4.28z M224.14,24.88c-0.12,9.63,5.63,12.06,8.54,12.06 c2.97,0,4.48-1.03,7.57-4.48v1.58c-2.6,3.33-5.09,4.6-8.85,4.6c-6.73,0-11.57-4.67-11.57-11.15s4.73-11.57,10.79-11.57 c4.97,0,9.57,4,9.27,8.97h-15.75V24.88z M235.84,23.85c0.18-4.73-3.03-6.67-5.76-6.67c-3.58,0-5.7,2.67-5.94,6.67H235.84z M264.69,33.79c0,2.36,0.85,3.15,3.58,3.15v1.03h-12.48c-9.09,0-12.48-6.12-12.48-11.15c0-6.06,4.48-10.91,10.06-10.91 c2.3,0,4.48,0.79,7.21,2.61V5.37c0-3.09-0.73-3.7-2.85-3.7h-1.21V0.64l7.15-0.73h1.03L264.69,33.79L264.69,33.79z M260.57,20.82 c-1.7-2.3-4.06-3.64-6.24-3.64c-3.88,0-6.54,3.51-6.54,8.73c0,5.15,2.36,11.09,9.39,11.09c2.42,0,3.39-0.97,3.39-3.27L260.57,20.82 L260.57,20.82z M278.44,33.97c0,2.12,0.55,2.97,3.58,2.97v1.03h-11.76v-1.03c3.27,0,4.06-0.42,4.06-2.97V20.82 c0-2.97-0.91-3.21-4.06-3.21v-1.03l7.15-0.67h1.03L278.44,33.97L278.44,33.97z M279.05,7.43c0,1.45-1.15,2.67-2.6,2.67 s-2.67-1.21-2.67-2.67c0-1.45,1.21-2.61,2.67-2.61C277.9,4.83,279.05,5.98,279.05,7.43z M313.52,33.97c0,2.12,0.55,2.97,3.57,2.97 v1.03h-11.76v-1.03c3.27,0,4.06-0.42,4.06-2.97V20.82c0-2.97-0.91-3.21-4.06-3.21v-1.03l7.15-0.67h1.03v18.06H313.52z M314.13,7.43 c0,1.45-1.15,2.67-2.61,2.67s-2.67-1.21-2.67-2.67c0-1.45,1.21-2.61,2.67-2.61C312.98,4.83,314.13,5.98,314.13,7.43z M341.11,33.3 c0,2.79,0.61,3.64,3.63,3.64v1.03h-11.45v-1.03c2.91,0,3.7-0.67,3.7-2.67V23.06c0-3.45-2.49-4.91-4.79-4.91 c-2.12,0-4,1.33-6.12,4.18v10.48c0,3.27,0.42,4.12,3.64,4.12v1.03h-11.33v-1.03c2.85,0,3.58-0.24,3.58-4.12V20.76 c0-2.61-0.67-3.15-3.58-3.15v-1.03l6.66-0.67h1.03v4.3c2.54-2.91,5.03-4.3,7.76-4.3c3.58,0,7.27,2.55,7.27,7.7L341.11,33.3 L341.11,33.3z M350.31,24.88c-0.12,9.63,5.64,12.06,8.54,12.06c2.97,0,4.48-1.03,7.57-4.48v1.58c-2.61,3.33-5.09,4.6-8.85,4.6 c-6.73,0-11.57-4.67-11.57-11.15s4.73-11.57,10.79-11.57c4.97,0,9.57,4,9.27,8.97h-15.75V24.88z M362,23.85 c0.18-4.73-3.03-6.67-5.76-6.67c-3.58,0-5.7,2.67-5.94,6.67H362z"/><path class="st1" d="M51.25,2.62H2.69c0,0,0,24.08,0,24.21C2.65,37.37,8.49,45,13.4,49.55c5.39,5,11.34,7.88,13.33,8.32l0.24,0.05 l0.24-0.05c1.99-0.43,7.93-3.32,13.33-8.32c4.9-4.55,10.74-12.18,10.71-22.72C51.25,26.53,51.25,2.62,51.25,2.62L51.25,2.62z"/><path class="st2" d="M48.26,12.76L48.26,12.76c0.07,0.06,0.14,0.11,0.2,0.19c0.06,0.08,0.08,0.18,0.08,0.28s-0.03,0.2-0.08,0.28 c-0.05,0.08-0.13,0.13-0.2,0.19c-0.11,0.09-0.21,0.17-0.21,0.31v0.86h-5.09h-5.09v-0.86c0-0.14-0.1-0.22-0.21-0.31 c-0.07-0.06-0.14-0.11-0.2-0.19c-0.06-0.08-0.08-0.18-0.08-0.28s0.03-0.2,0.08-0.28c0.05-0.08,0.13-0.13,0.2-0.19 c0.11-0.09,0.21-0.17,0.21-0.31V9.63c0-0.14-0.1-0.22-0.21-0.31c-0.07-0.06-0.14-0.11-0.2-0.19s-0.08-0.18-0.08-0.28 s0.03-0.2,0.08-0.28c0.05-0.08,0.13-0.14,0.2-0.19c0.11-0.09,0.21-0.17,0.21-0.31V7.18H38c0.6,0,1.12-0.01,1.48-0.17 c0.15-0.06,0.29-0.15,0.43-0.24c0.31-0.2,0.67-0.42,1.19-0.42c0.42,0,0.82,0.16,1.17,0.3c0.25,0.1,0.48,0.19,0.65,0.19h0.07 c0.17,0,0.41-0.09,0.65-0.19c0.35-0.14,0.74-0.3,1.17-0.3c0.53,0,0.88,0.22,1.2,0.42c0.14,0.09,0.28,0.18,0.43,0.24 c0.36,0.16,0.89,0.17,1.48,0.17h0.13v0.89c0,0.14,0.1,0.22,0.21,0.31c0.07,0.05,0.14,0.11,0.2,0.19s0.08,0.18,0.08,0.28 s-0.03,0.2-0.08,0.28s-0.13,0.13-0.2,0.19c-0.11,0.09-0.21,0.17-0.21,0.31v2.82C48.05,12.59,48.15,12.67,48.26,12.76L48.26,12.76z M35.78,14.23c-0.79,1.26-2.31,1.57-2.37,1.58c-0.3,0.05-0.61,0.08-0.91,0.08l0,0c-1.59,0-3.05-0.69-4.54-1.46 c-0.17-0.09-0.35-0.19-0.55-0.3c-0.95-0.52-2.28-1.25-3.4-1.25c-0.33,0-0.64,0.06-0.91,0.21l-0.05,0.02v0.05 c-0.01,0.15-0.04,0.29-0.08,0.41c-0.18,0.48-0.76,0.99-1.05,1.19c-0.65,0.47-1.46,0.95-2.46,0.95c-0.15,0-0.29-0.02-0.41-0.06 c-0.18-0.06-0.33-0.17-0.45-0.31c-0.05-0.07-0.1-0.15-0.14-0.24c-0.03-0.07-0.05-0.14-0.06-0.22l-0.01-0.06l-0.06-0.02 c-0.39-0.12-0.62-0.37-0.62-0.68c0-0.23,0.17-0.44,0.34-0.63c0.26-0.31,0.48-0.57,0.12-0.92c-0.03-0.03-0.07-0.06-0.11-0.09 c-0.05-0.04-0.1-0.08-0.15-0.12c-0.32-0.34-0.13-1.06-0.02-1.48l0.01-0.05c0.12-0.47,0.31-0.95,0.57-1.47 c0.36-0.71,0.79-1.51,1.4-2.02c0.01-0.01,0.03-0.01,0.04-0.01c0.02,0,0.03,0.01,0.04,0.02c0.01,0.02,0.08,0.12,0.17,0.28l0.1,0.17 l0.06-0.19c0.17-0.5,0.45-0.83,0.83-0.97c0.41-0.15,0.79,0.06,0.98,0.2l0.08,0.06l0.05-0.08c0.12-0.2,0.35-0.44,0.72-0.45 c0.41-0.02,0.75,0.26,0.91,0.43l0.06,0.06l0.07-0.05c0.18-0.15,0.66-0.5,1.15-0.44c0.46,0.06,0.63,0.46,0.68,0.63l0.03,0.1 l0.1-0.05c0.21-0.11,0.63-0.25,1.03,0c0.25,0.16,0.28,0.43,0.26,0.64l-0.01,0.12l0.12-0.02c0.3-0.05,0.84-0.08,1.16,0.25 c0.25,0.26,0.27,0.6,0.24,0.83l-0.02,0.12l0.12-0.01c0.26-0.03,0.61-0.01,0.8,0.29c0.13,0.2,0.08,0.48,0.04,0.63l-0.03,0.09 l0.09,0.02c0.15,0.04,0.42,0.13,0.5,0.35c0.06,0.16,0.04,0.43-0.05,0.74l-0.02,0.08l0.08,0.03c0.13,0.05,0.37,0.18,0.5,0.44 c0.13,0.25,0.12,0.56-0.02,0.93l-0.02,0.06l0.05,0.04c0.34,0.3,0.68,0.58,1.01,0.82c0.68,0.49,1.74,0.75,2.45,0.16 c0.27-0.22,0.39-0.63,0.3-1.01c-0.08-0.34-0.31-0.57-0.61-0.64c-0.54-0.12-0.97,0.4-1.32,0.92c-0.01,0.02-0.03,0.03-0.05,0.02 c-0.02,0-0.04-0.01-0.05-0.03c-0.32-0.77-0.34-1.41-0.05-1.9c0.25-0.42,0.72-0.71,1.3-0.8l0.08-0.01v-0.08 c-0.01-0.91,0.21-1.57,0.65-1.97c0.27-0.24,0.76-0.51,1.58-0.4c0.02,0,0.03,0.01,0.04,0.03c0.01,0.01,0.01,0.03,0,0.05 c-0.61,1.46-0.46,2.01-0.13,3.2c0.03,0.11,0.06,0.22,0.09,0.33l0,0C36.36,12.48,36.26,13.45,35.78,14.23L35.78,14.23z M16.29,12.76 L16.29,12.76c0.07,0.06,0.14,0.11,0.2,0.19c0.06,0.08,0.08,0.18,0.08,0.28s-0.03,0.2-0.08,0.28c-0.05,0.08-0.13,0.13-0.2,0.19 c-0.11,0.09-0.21,0.17-0.21,0.31v0.86h-5.09H5.9v-0.86c0-0.14-0.1-0.22-0.21-0.31c-0.07-0.06-0.14-0.11-0.2-0.19 c-0.06-0.08-0.08-0.18-0.08-0.28s0.03-0.2,0.08-0.28c0.05-0.08,0.13-0.13,0.2-0.19c0.11-0.09,0.21-0.17,0.21-0.31V9.63 c0-0.14-0.1-0.22-0.21-0.31c-0.07-0.06-0.14-0.11-0.2-0.19C5.43,9.05,5.41,8.95,5.41,8.85s0.03-0.2,0.08-0.28s0.13-0.14,0.2-0.19 C5.8,8.29,5.9,8.21,5.9,8.07V7.18h0.13c0.6,0,1.12-0.01,1.48-0.17C7.66,6.95,7.8,6.86,7.94,6.77c0.31-0.2,0.67-0.42,1.19-0.42 c0.42,0,0.82,0.16,1.17,0.3c0.25,0.1,0.48,0.19,0.65,0.19h0.07c0.17,0,0.41-0.09,0.65-0.19c0.35-0.14,0.74-0.3,1.17-0.3 c0.53,0,0.88,0.22,1.2,0.42c0.14,0.09,0.28,0.18,0.43,0.24c0.36,0.16,0.89,0.17,1.48,0.17h0.13v0.89c0,0.14,0.1,0.22,0.21,0.31 c0.07,0.05,0.14,0.11,0.2,0.19s0.08,0.18,0.08,0.28s-0.03,0.2-0.08,0.28c-0.05,0.08-0.13,0.13-0.2,0.19 c-0.11,0.09-0.21,0.17-0.21,0.31v2.82C16.08,12.59,16.18,12.67,16.29,12.76L16.29,12.76z M3.91,3.9c0,0,0.06,14.07,0,14h46.12 c0-6.59,0-14,0-14L3.91,3.9L3.91,3.9z"/><path class="st0" d="M19.8,12.15c0.16,0,0.32,0.04,0.47,0.17c0.05,0.04,0.1,0.08,0.14,0.12c0.11,0.1,0.1,0.27-0.01,0.36 c-0.11,0.09-0.24,0.19-0.33,0.24c-0.19,0.13-0.51,0.36-0.73,0.18c-0.11-0.09,0.11-0.25,0.01-0.63 C19.27,12.29,19.57,12.15,19.8,12.15L19.8,12.15z"/><path class="st0" d="M19.87,7.61c-0.51,0.49-0.9,1.2-1.22,1.84c-0.26,0.51-0.44,0.98-0.56,1.43l-0.01,0.05 c-0.09,0.33-0.27,1.03-0.03,1.29c0.03,0.04,0.08,0.07,0.12,0.1c0.04,0.03,0.09,0.07,0.13,0.11c0.5,0.48,0.15,0.89-0.1,1.19 c-0.15,0.18-0.29,0.34-0.29,0.5c0,0.35,0.43,0.48,0.56,0.51c0.06,0.01,0.11,0.07,0.11,0.13c0.01,0.1,0.02,0.18,0.05,0.26 c0.03,0.07,0.07,0.14,0.11,0.19c0.09,0.11,0.21,0.2,0.35,0.25c0.1,0.04,0.22,0.05,0.35,0.05c0.94,0,1.71-0.46,2.34-0.91 c0.37-0.27,0.84-0.74,0.98-1.1c0.04-0.1,0.06-0.2,0.07-0.3l-0.66-0.11c-0.01,0-0.01,0-0.02,0c-0.07-0.02-0.12-0.07-0.13-0.14 c-0.02-0.13,0.1-0.21,0.33-0.37c0.07-0.05,0.14-0.1,0.21-0.15c0.35-0.26,0.63-0.46,0.79-0.57c-0.18-0.2-0.34-0.44-0.47-0.64 c-0.1-0.15-0.19-0.28-0.26-0.36c-0.33-0.36-0.9-0.56-1.37-0.27c-0.19,0.12-0.35,0.26-0.53,0.42c-0.14,0.13-0.29,0.25-0.45,0.37 c-0.06,0.04-0.15,0.03-0.2-0.03c-0.05-0.06-0.04-0.15,0.01-0.2c0.02-0.02,0.05-0.04,0.07-0.07c0.21-0.2,0.71-0.67,0.71-1 C20.88,9.31,20.14,8.04,19.87,7.61L19.87,7.61z M24.01,12.67c1.15,0,2.46,0.72,3.48,1.28c0.2,0.11,0.38,0.21,0.55,0.3 c1.75,0.9,3.47,1.69,5.33,1.36c0.01,0,1.5-0.31,2.24-1.49c0.46-0.73,0.54-1.65,0.25-2.73c-0.03-0.12-0.06-0.23-0.09-0.33 c-0.31-1.12-0.48-1.76,0.06-3.15c-0.63-0.04-1.02,0.17-1.23,0.37c-0.42,0.38-0.61,1.03-0.58,1.95c0,0.08-0.05,0.14-0.13,0.15 c-0.57,0.06-1.05,0.33-1.28,0.72c-0.22,0.38-0.24,0.87-0.04,1.46c0.28-0.39,0.76-0.91,1.37-0.77c0.38,0.08,0.67,0.38,0.77,0.79 c0.11,0.46-0.04,0.95-0.37,1.22c-0.8,0.66-1.96,0.38-2.7-0.16c-0.87-0.63-1.73-1.44-2.64-2.46c-0.16-0.18-0.32-0.36-0.47-0.54 c-0.57-0.66-1.16-1.35-1.87-1.89c-1.1-0.85-2.41-0.99-3.31-0.96c-0.61,0.02-1.84,0.19-2.67,0.7c0.25,0.53,0.48,1.13,0.48,1.6 c0,0.08-0.02,0.17-0.05,0.25c0.6-0.35,1.31-0.1,1.72,0.34c0.09,0.1,0.18,0.24,0.29,0.4c0.16,0.24,0.33,0.51,0.55,0.71 c0.03,0.03,0.05,0.07,0.04,0.12c0,0.04-0.03,0.08-0.06,0.11c0,0-0.38,0.27-0.92,0.67c-0.07,0.05-0.15,0.11-0.22,0.15 c-0.01,0.01-0.03,0.02-0.04,0.03l0.47,0.08C23.28,12.75,23.64,12.67,24.01,12.67L24.01,12.67z M32.49,15.98 c-1.59,0-3.08-0.69-4.58-1.47c-0.17-0.09-0.36-0.19-0.56-0.3c-1.21-0.66-3.04-1.66-4.22-1.04c-0.01,0.16-0.04,0.3-0.09,0.44 c-0.19,0.5-0.79,1.02-1.08,1.23c-0.66,0.48-1.48,0.97-2.51,0.97c-0.16,0-0.31-0.02-0.44-0.07c-0.2-0.07-0.37-0.19-0.49-0.35 c-0.06-0.08-0.11-0.16-0.15-0.26c-0.03-0.08-0.05-0.16-0.06-0.25c-0.42-0.13-0.68-0.41-0.68-0.77c0-0.27,0.18-0.48,0.36-0.69 c0.29-0.34,0.41-0.52,0.12-0.79c-0.03-0.03-0.07-0.05-0.1-0.08c-0.05-0.04-0.11-0.08-0.16-0.14c-0.35-0.38-0.16-1.12-0.04-1.57 l0.01-0.05c0.12-0.47,0.31-0.96,0.58-1.49c0.36-0.72,0.8-1.53,1.42-2.05c0.03-0.03,0.07-0.04,0.12-0.03 c0.04,0.01,0.08,0.03,0.1,0.06c0.02,0.03,0.27,0.41,0.53,0.91c1.08-0.64,2.61-0.72,2.79-0.72c0.95-0.04,2.32,0.11,3.5,1.02 c0.73,0.56,1.33,1.26,1.91,1.93c0.15,0.18,0.31,0.36,0.47,0.53c0.89,1.01,1.74,1.8,2.59,2.42c0.65,0.47,1.66,0.73,2.34,0.17 c0.25-0.2,0.35-0.57,0.27-0.92c-0.07-0.3-0.27-0.51-0.55-0.57c-0.49-0.11-0.89,0.38-1.23,0.88c-0.03,0.04-0.08,0.07-0.14,0.06 c-0.05-0.01-0.1-0.04-0.12-0.09c-0.33-0.8-0.35-1.46-0.04-1.98c0.26-0.44,0.76-0.75,1.37-0.84c-0.01-0.94,0.22-1.62,0.68-2.04 c0.28-0.26,0.8-0.54,1.66-0.42c0.04,0.01,0.08,0.03,0.11,0.07c0.02,0.04,0.03,0.09,0.01,0.13c-0.59,1.43-0.45,1.97-0.12,3.14 c0.03,0.11,0.06,0.22,0.09,0.33c0.31,1.16,0.21,2.16-0.29,2.96c-0.81,1.29-2.37,1.61-2.43,1.62C33.11,15.95,32.8,15.98,32.49,15.98 L32.49,15.98z"/><path class="st0" d="M18.88 14.97c-.14 0-.28-.01-.42-.03-.08-.01-.14-.08-.13-.16.01-.08.08-.14.16-.13.67.08 1.64-.01 2.49-.88.06-.06.15-.06.21 0 .06.06.06.15 0 .21C20.56 14.63 19.77 14.97 18.88 14.97L18.88 14.97zM30.64 12.77c-.02 0-.04 0-.05-.01-.07-.03-.1-.11-.07-.18.15-.35.17-.64.06-.87-.15-.3-.5-.39-.51-.39-.04-.01-.07-.03-.09-.07-.02-.03-.02-.08-.01-.11.05-.14.17-.54.09-.74-.06-.17-.39-.24-.5-.26-.04 0-.08-.03-.1-.07-.02-.04-.03-.08-.01-.12.05-.11.14-.43.03-.6-.22-.34-.79-.17-.79-.17-.05.01-.1 0-.14-.04S28.5 9.05 28.52 9c0 0 .16-.52-.16-.85C27.99 7.77 27.18 7.99 27.18 8c-.05.01-.1 0-.14-.04s-.05-.09-.03-.14c.01-.02.14-.44-.15-.62-.46-.29-.98.08-.98.08-.04.03-.09.03-.14.01-.04-.02-.08-.06-.08-.11 0-.02-.08-.58-.57-.65C24.56 6.46 24 7 23.99 7.01c-.03.03-.07.04-.11.04S23.8 7.03 23.78 7c0 0-.38-.49-.85-.46-.45.02-.63.48-.63.49-.02.04-.05.08-.1.09s-.09 0-.13-.04c0 0-.45-.43-.91-.26-.58.21-.74.92-.8 1.16v.01c-.02.07-.09.12-.16.1S20.08 8 20.1 7.93V7.92c.06-.27.25-1.09.97-1.35.45-.16.85.06 1.06.21.12-.19.36-.48.79-.5.45-.02.82.29.98.46.21-.18.71-.53 1.22-.46.45.06.67.41.76.69.24-.12.69-.26 1.12.01.3.19.33.51.31.72.31-.05.89-.09 1.24.27.29.29.3.67.27.91.25-.03.66-.02.88.33.14.22.1.52.05.7.19.05.47.15.56.41.09.24.01.6-.05.8.16.06.41.21.55.48.15.3.13.67-.05 1.1C30.74 12.74 30.69 12.77 30.64 12.77L30.64 12.77z"/><path class="st0" d="M29.96 14.66c-.01 0-.01 0-.02 0-.07-.01-.13-.08-.12-.15.06-.52-.24-.62-.52-.7-.07-.02-.13-.04-.18-.07-.15-.08-.15-.26-.16-.44-.01-.2-.01-.42-.16-.58-.25-.28-.76-.1-.76-.1-.05.02-.1.01-.13-.02-.04-.03-.06-.08-.05-.13 0-.01.08-.56-.24-.83-.27-.23-.78-.17-.96-.13-.04.01-.09 0-.12-.03s-.05-.07-.05-.11c.03-.34-.11-.64-.38-.81-.22-.14-.49-.16-.7-.05-.58.31-.8.33-1.4-.1-.19-.13-.38-.18-.56-.13-.23.06-.44.26-.6.58-.03.07-.12.1-.18.06-.07-.03-.1-.12-.06-.18.19-.39.47-.64.78-.72.26-.07.53-.01.78.17.51.36.62.34 1.12.08.3-.16.67-.14.98.06.3.19.48.52.5.89.25-.03.72-.04 1.03.22.29.25.34.64.34.88.23-.04.61-.06.87.22.21.24.22.54.23.76 0 .07.01.19.02.22.02.01.07.03.12.04.26.08.8.25.71 1C30.08 14.61 30.02 14.66 29.96 14.66L29.96 14.66zM16.37 13.23c0 .06-.01.12-.05.17-.03.05-.09.1-.16.15-.13.1-.29.23-.29.46v.63h-4.9l0 0h-4.9v-.63c0-.24-.16-.36-.29-.46-.06-.05-.12-.09-.16-.15-.03-.05-.05-.11-.05-.17l0 0 0 0c0-.06.01-.12.05-.17.03-.05.09-.1.16-.15.13-.1.29-.23.29-.46V9.63c0-.24-.16-.36-.29-.46C5.72 9.12 5.66 9.08 5.62 9.02 5.59 8.97 5.57 8.91 5.57 8.85l0 0 0 0c0-.06.01-.12.05-.17.03-.05.09-.1.16-.15.13-.1.29-.23.29-.46V7.42c.01 0 .01 0 .02 0 .25 0 .5 0 .74-.02v6.47h3.57c.07.26.3.44.58.44s.51-.19.58-.44h3.57l0 0V7.4c.23.02.48.02.73.02.01 0 .01 0 .02 0v.65c0 .24.16.36.29.46.06.05.12.09.16.15.03.05.05.11.05.17l0 0 0 0c0 .06-.01.12-.05.17-.03.05-.09.1-.16.15-.13.1-.29.23-.29.46v2.82c0 .24.16.36.29.46.06.05.12.09.16.15C16.36 13.1 16.38 13.16 16.37 13.23L16.37 13.23 16.37 13.23 16.37 13.23zM7.59 7.24c.17-.07.32-.17.46-.26C8.36 6.78 8.66 6.6 9.12 6.6c.38 0 .75.15 1.08.28.23.09.43.17.62.2v5.66c-.01 0-.02 0-.03 0-.27.02-.66.15-1.1.29-.14.05-.29.09-.44.14-.43.13-.87.13-1.3.13-.28 0-.55 0-.79.04V7.36C7.32 7.33 7.46 7.29 7.59 7.24L7.59 7.24zM11.76 6.88c.33-.13.7-.28 1.08-.28.46 0 .76.19 1.07.38.15.09.3.19.46.26.14.06.28.1.43.13v5.98c-.24-.04-.51-.04-.79-.04-.43 0-.87 0-1.3-.13-.15-.04-.29-.09-.44-.14-.44-.14-.83-.27-1.1-.29-.01 0-.01 0-.02 0V7.09C11.34 7.05 11.54 6.97 11.76 6.88L11.76 6.88zM16.35 12.68c-.11-.09-.18-.14-.18-.23V9.63c0-.09.06-.15.18-.23.07-.06.16-.12.22-.21.07-.1.1-.21.1-.33s-.03-.23-.1-.33c-.06-.09-.14-.15-.22-.21-.11-.09-.18-.14-.18-.23V7.11h-.22l0 0c-.52 0-1.08-.01-1.44-.16-.14-.06-.28-.14-.42-.23-.32-.2-.69-.43-1.24-.43-.44 0-.85.16-1.2.31-.24.1-.46.19-.62.19H11l0 0 0 0 0 0h-.05c-.16 0-.38-.09-.62-.19-.36-.14-.76-.31-1.2-.31-.56 0-.92.23-1.24.43C7.75 6.81 7.61 6.89 7.47 6.95 7.11 7.11 6.55 7.11 6.03 7.11l0 0H5.81v.98c0 .09-.06.15-.18.23C5.56 8.38 5.47 8.44 5.41 8.53c-.07.1-.1.21-.1.33s.03.23.1.33C5.47 9.28 5.55 9.34 5.63 9.4c.11.09.18.14.18.23v2.82c0 .09-.06.15-.18.23-.07.06-.16.12-.22.21-.07.1-.1.21-.1.33 0 .12.03.23.1.33.06.09.14.15.22.21.11.09.18.14.18.23v.94L5.8 14.94h.01l0 0H11h5.19l0 0h.01l-.01-.01v-.94c0-.09.06-.15.18-.23.07-.06.16-.12.22-.21.07-.1.1-.21.1-.33 0-.12-.03-.23-.1-.33C16.5 12.8 16.42 12.74 16.35 12.68L16.35 12.68zM48.34 13.23c0 .06-.01.12-.05.17-.03.05-.09.1-.15.15-.13.1-.29.23-.29.46v.63h-4.9l0 0h-4.9v-.63c0-.24-.16-.36-.29-.46-.06-.05-.12-.09-.16-.15-.03-.05-.05-.11-.05-.17l0 0 0 0c0-.06.01-.12.05-.17.03-.05.09-.1.16-.15.13-.1.29-.23.29-.46V9.63c0-.24-.16-.36-.29-.46-.06-.05-.12-.09-.16-.15-.03-.05-.05-.11-.05-.17l0 0 0 0c0-.06.01-.12.05-.17.03-.05.09-.1.16-.15.13-.1.29-.23.29-.46V7.42c.01 0 .01 0 .02 0 .25 0 .5 0 .74-.02v6.47h3.57c.07.26.3.44.58.44s.51-.19.58-.44h3.57l0 0V7.4c.23.02.48.02.73.02.01 0 .01 0 .02 0v.65c0 .24.16.36.29.46.06.05.12.09.15.15.03.05.05.11.05.17l0 0 0 0c0 .06-.01.12-.05.17-.03.05-.09.1-.15.15-.13.1-.29.23-.29.46v2.82c0 .24.16.36.29.46.06.05.12.09.15.15C48.33 13.1 48.35 13.16 48.34 13.23L48.34 13.23 48.34 13.23 48.34 13.23zM39.57 7.24c.17-.07.32-.17.46-.26.31-.2.61-.38 1.07-.38.38 0 .75.15 1.08.28.23.09.43.17.62.2v5.66c-.01 0-.02 0-.03 0-.27.02-.66.15-1.1.29-.14.05-.29.09-.44.14-.43.13-.87.13-1.3.13-.28 0-.55 0-.79.04V7.36C39.29 7.33 39.43 7.29 39.57 7.24L39.57 7.24zM43.73 6.88c.33-.13.7-.28 1.08-.28.46 0 .76.19 1.07.38.15.09.3.19.46.26.14.06.28.1.43.13v5.98c-.24-.04-.51-.04-.79-.04-.43 0-.87 0-1.3-.13-.15-.04-.29-.09-.44-.14-.44-.14-.83-.27-1.1-.29-.01 0-.01 0-.02 0V7.09C43.31 7.05 43.51 6.97 43.73 6.88L43.73 6.88zM48.32 12.68c-.11-.09-.18-.14-.18-.23V9.63c0-.09.06-.15.18-.23.07-.06.16-.12.22-.21.07-.1.1-.21.1-.33s-.03-.23-.1-.33c-.06-.09-.14-.15-.22-.21-.11-.09-.18-.14-.18-.23V7.11h-.22l0 0c-.52 0-1.08-.01-1.44-.16-.14-.06-.28-.14-.42-.23-.32-.2-.69-.43-1.24-.43-.44 0-.85.16-1.2.31C43.38 6.7 43.16 6.79 43 6.79h-.03l0 0 0 0 0 0h-.03c-.16 0-.38-.09-.62-.19-.36-.14-.76-.31-1.2-.31-.56 0-.92.23-1.24.43-.14.09-.28.17-.42.23-.36.16-.92.16-1.44.16l0 0H37.8v.98c0 .09-.06.15-.18.23-.07.06-.16.12-.22.21-.07.1-.1.21-.1.33s.03.23.1.33c.06.09.14.15.22.21.11.09.18.14.18.23v2.82c0 .09-.06.15-.18.23-.07.06-.16.12-.22.21-.07.1-.1.21-.1.33 0 .12.03.23.1.33.06.09.14.15.22.21.11.09.18.14.18.23v.94l-.01.01h.01l0 0h5.19 5.19l0 0h.01l-.01-.01v-.94c0-.09.06-.15.18-.23.07-.06.16-.12.22-.21.07-.1.1-.21.1-.33 0-.12-.03-.23-.1-.33C48.48 12.8 48.39 12.74 48.32 12.68L48.32 12.68z"/><path class="st0" d="M47.09,38.25l-20.12-19.4L6.85,38.25c-1.56-3.29-2.6-7.1-2.59-11.42c0-0.13,0-4.04,0-8.61h45.42 c0,4.56,0,8.48,0,8.61C49.69,31.16,48.66,34.97,47.09,38.25L47.09,38.25z M40.67,40.28c-1.56,1.56-4.1,1.56-5.66,0 s-1.56-4.1,0-5.66s4.1-1.56,5.66,0S42.23,38.72,40.67,40.28L40.67,40.28z M22.97,27.52c0-2.21,1.79-4,4-4s4,1.79,4,4s-1.79,4-4,4 C24.76,31.52,22.97,29.73,22.97,27.52L22.97,27.52z M39.47,48.4c-5.4,5.01-11,7.53-12.5,7.91c-1.5-0.38-7.1-2.9-12.5-7.91 c-0.13-0.12-0.26-0.25-0.4-0.37l12.9-13.69l12.9,13.69C39.74,48.15,39.6,48.27,39.47,48.4L39.47,48.4z M13.27,40.28 c-1.56-1.56-1.56-4.1,0-5.66c1.56-1.56,4.1-1.56,5.66,0s1.56,4.1,0,5.66S14.83,41.84,13.27,40.28L13.27,40.28z M49.68,4.19 c0,1.49,0,7.8,0,13.39H4.26c0-5.58,0-11.9,0-13.39L49.68,4.19L49.68,4.19z M50.33,3.54H3.61c0,0,0,22.98,0,23.29 c-0.03,10.2,5.65,17.62,10.42,22.04c5.2,4.82,11.06,7.69,12.9,8.09l0.05,0.01l0.05-0.01c1.84-0.4,7.7-3.27,12.9-8.09 c4.77-4.42,10.45-11.84,10.42-22.04C50.33,26.52,50.33,3.54,50.33,3.54L50.33,3.54z"/></svg>