<svg xmlns="http://www.w3.org/2000/svg" viewBox="0 0 392.093 58.677">
  <defs>
    <clipPath id="a">
      <path fill="#00427a" d="M0 0h392.093v58.677H0z" data-name="Rectangle 224"/>
    </clipPath>
  </defs>
  <path fill="#00427a" d="m102.68 48.72-2.132 7.08-1.976-7.08h-3.267v9.727h1.873v-8.342l2.492 8.342h1.654l2.545-8.342v8.342h1.988V48.72Z" data-name="Path 5904"/>
  <path fill="#00427a" d="M109.074 48.72v9.727h6.393v-1.614h-4.391v-2.624h3.978v-1.588h-3.978v-2.313h4.249V48.72Z" data-name="Path 5905"/>
  <path fill="#00427a" d="M124.728 48.72v7.655l-3.5-7.655h-2.9v9.727h1.887v-8.072l3.617 8.072h2.75V48.72Z" data-name="Path 5906"/>
  <path fill="#00427a" d="M129.03 48.72v1.615h2.777v8.112h2.014v-8.112h2.779V48.72Z" data-name="Path 5907"/>
  <path fill="#00427a" d="m141.481 50.63 1.291 4.145H140.1Zm-1.137-1.91-3.37 9.727h1.91l.7-2.1h3.693l.674 2.1h2.013l-3.241-9.727Z" data-name="Path 5908"/>
  <path fill="#00427a" d="M148.52 48.734v9.715h6.045v-1.656h-4v-8.059Z" data-name="Path 5909"/>
  <path fill="#00427a" d="M167.585 48.72v3.889h-3.526V48.72h-2v9.727h2v-4.265h3.552v4.265h2V48.72Z" data-name="Path 5910"/>
  <path fill="#00427a" d="M172.867 48.72v9.727h6.393v-1.614h-4.391v-2.624h3.978v-1.588h-3.978v-2.313h4.249V48.72Z" data-name="Path 5911"/>
  <path fill="#00427a" d="m185.771 50.63 1.29 4.145h-2.673Zm-1.138-1.91-3.37 9.727h1.911l.7-2.1h3.693l.673 2.1h2.015l-3.242-9.727Z" data-name="Path 5912"/>
  <path fill="#00427a" d="M192.81 48.734v9.715h6.044v-1.656h-4v-8.059Z" data-name="Path 5913"/>
  <path fill="#00427a" d="M199.45 48.72v1.615h2.777v8.112h2.014v-8.112h2.777V48.72Z" data-name="Path 5914"/>
  <path fill="#00427a" d="M214.949 48.72v3.889h-3.527V48.72h-2v9.727h2v-4.265h3.552v4.265h2V48.72Z" data-name="Path 5915"/>
  <g data-name="Group 257">
    <g fill="#00427a" clip-path="url(#a)" data-name="Group 256">
      <path d="M232.049 51.438v.067h-1.924v-.067a1.627 1.627 0 0 0-.445-1.043 1.473 1.473 0 0 0-1.066-.369 1.727 1.727 0 0 0-1.1.342 1.174 1.174 0 0 0-.433.976.972.972 0 0 0 .62.969 11.515 11.515 0 0 0 1.809.551 4.488 4.488 0 0 1 2.164.989 2.253 2.253 0 0 1 .638 1.662 2.779 2.779 0 0 1-1.1 2.294 4.44 4.44 0 0 1-2.841.868 3.965 3.965 0 0 1-2.77-.821 3.268 3.268 0 0 1-.885-2.516h2.04v.081a1.787 1.787 0 0 0 .439 1.338 1.732 1.732 0 0 0 1.254.424 2.171 2.171 0 0 0 1.259-.35 1.16 1.16 0 0 0 .51-1.022 1.013 1.013 0 0 0-.232-.685 3.541 3.541 0 0 0-1.473-.593 6.177 6.177 0 0 1-2.841-1.258 2.388 2.388 0 0 1-.66-1.689 2.717 2.717 0 0 1 .988-2.22 4.163 4.163 0 0 1 2.707-.807 3.667 3.667 0 0 1 2.447.76 2.623 2.623 0 0 1 .9 2.119" data-name="Path 5916"/>
      <path d="M241.478 48.72v1.588h-4.249v2.314h3.978v1.587h-3.978v2.624h4.391v1.614h-6.393V48.72Z" data-name="Path 5917"/>
      <path d="M248.053 52.971a1.4 1.4 0 0 0 1.026-.376 1.376 1.376 0 0 0 .381-1.023 1.316 1.316 0 0 0-.342-.982 1.43 1.43 0 0 0-1.039-.337h-1.77v2.718Zm.477-4.251a3.072 3.072 0 0 1 2.305.747 2.479 2.479 0 0 1 .718 1.782 2.331 2.331 0 0 1-.479 1.494 2.766 2.766 0 0 1-1.472.888 1.8 1.8 0 0 1 1.189.517 4.453 4.453 0 0 1 .549 2.133 5.238 5.238 0 0 0 .51 2.166h-2.209q-.336-2.461-.445-3.2c-.073-.487-.4-.732-.975-.732h-1.848v3.928h-2.04V48.72Z" data-name="Path 5918"/>
      <path d="m255.647 48.76 2.441 7.629 2.455-7.629h1.976l-3.437 9.687H256.9l-3.436-9.687Z" data-name="Path 5919"/>
      <path d="M264.805 48.693h2.002v9.754h-2.002z" data-name="Rectangle 223"/>
      <path d="M277.2 51.9h-2.041a2.105 2.105 0 0 0-.49-1.312 1.4 1.4 0 0 0-1.021-.4 1.7 1.7 0 0 0-1.569.989 5.518 5.518 0 0 0-.536 2.631 5 5 0 0 0 .5 2.489 1.6 1.6 0 0 0 1.465.847 1.518 1.518 0 0 0 1.209-.531 1.942 1.942 0 0 0 .458-1.313h2.105a3.212 3.212 0 0 1-.988 2.444 3.612 3.612 0 0 1-2.589.934 3.925 3.925 0 0 1-3.119-1.292 5.272 5.272 0 0 1-1.13-3.592 5.709 5.709 0 0 1 1.149-3.7 3.8 3.8 0 0 1 3.126-1.426 3.6 3.6 0 0 1 2.486.881 2.99 2.99 0 0 1 .985 2.351" data-name="Path 5920"/>
      <path d="M286.233 48.72v1.588h-4.249v2.314h3.978v1.587h-3.978v2.624h4.392v1.614h-6.394V48.72Z" data-name="Path 5921"/>
      <path d="M296.1 51.438v.067h-1.924v-.067a1.627 1.627 0 0 0-.445-1.043 1.473 1.473 0 0 0-1.066-.369 1.727 1.727 0 0 0-1.1.342 1.174 1.174 0 0 0-.433.976.972.972 0 0 0 .62.969 11.516 11.516 0 0 0 1.809.551 4.488 4.488 0 0 1 2.164.989 2.254 2.254 0 0 1 .639 1.662 2.78 2.78 0 0 1-1.1 2.294 4.44 4.44 0 0 1-2.841.868 3.965 3.965 0 0 1-2.77-.821 3.268 3.268 0 0 1-.885-2.516h2.04v.081a1.791 1.791 0 0 0 .439 1.338 1.732 1.732 0 0 0 1.254.424 2.17 2.17 0 0 0 1.259-.35 1.16 1.16 0 0 0 .51-1.022 1.013 1.013 0 0 0-.232-.685 3.548 3.548 0 0 0-1.473-.593 6.177 6.177 0 0 1-2.841-1.258 2.388 2.388 0 0 1-.66-1.689 2.717 2.717 0 0 1 .988-2.22 4.162 4.162 0 0 1 2.707-.807 3.667 3.667 0 0 1 2.447.76 2.623 2.623 0 0 1 .9 2.119" data-name="Path 5922"/>
      <path d="M146.59 34.6v1.68h-10.047V34.6c1.359-.14 2.117-.526 2.117-2.317V16.9c0-1.791-.758-2.177-2.117-2.318V12.9h10.995c5.814 0 9.226 1.65 9.226 6.565s-3.412 6.917-9.226 6.917h-3.064v5.9c0 1.791.758 2.177 2.116 2.317m.253-10.708c1.643 0 3.412-.7 3.412-4.318 0-3.651-1.769-4.319-3.412-4.319a10.745 10.745 0 0 0-2.369.176v8.461Z" data-name="Path 5923"/>
      <path d="m172.211 31.822 1.264 1.334c-.822 1.264-3.349 3.511-7.678 3.511-5.339 0-8.435-3.721-8.435-8.742 0-4.74 3.1-8.953 8.435-8.953 4.929 0 8.057 3.055 8.057 9.445h-10.331c.284 3.546 1.864 5.16 4.392 5.16a5.971 5.971 0 0 0 4.3-1.755m-4.328-5.933c0-3.125-.348-4.7-1.959-4.7-1.769 0-2.306 1.9-2.4 4.7Z" data-name="Path 5924"/>
      <path d="M183.521 34.771v1.51h-8.4v-1.51c1.138-.316 1.422-.878 1.422-3.125v-7.2c0-2.7-.284-3.265-1.422-3.581v-1.51h6.979v2.215a6.738 6.738 0 0 1 4.96-2.6c2.78 0 4.8 1.861 4.8 5.969v6.7c0 2.247.284 2.809 1.422 3.125v1.51h-8.4v-1.51c1.137-.316 1.421-.878 1.421-3.125v-6.46c0-1.65-.41-2.422-1.737-2.422A3.11 3.11 0 0 0 182.1 24.2v7.443c0 2.247.284 2.809 1.421 3.125" data-name="Path 5925"/>
      <path d="M203.013 34.771v1.51h-8.4v-1.51c1.138-.316 1.422-.878 1.422-3.125v-7.2c0-2.7-.284-3.265-1.422-3.581v-1.51h6.983v2.215a6.738 6.738 0 0 1 4.96-2.6c2.78 0 4.8 1.861 4.8 5.969v6.7c0 2.247.285 2.809 1.422 3.125v1.51h-8.4v-1.51c1.137-.316 1.421-.878 1.421-3.125v-6.46c0-1.65-.41-2.422-1.737-2.422a3.11 3.11 0 0 0-2.464 1.439v7.443c0 2.247.284 2.809 1.421 3.125" data-name="Path 5926"/>
      <path d="M222.442 32.278V16.9c0-1.791-.758-2.177-2.117-2.317V12.9h18.041v7.654h-1.643c-.285-3.265-2.086-5.477-6.161-5.512a9.978 9.978 0 0 0-2.275.175v7.97h.474c3.443 0 4.455-1.264 4.771-3.932h1.643V29.5h-1.643c-.316-2.669-1.011-3.933-4.708-3.933h-.537v6.706c0 1.791.758 2.177 2.117 2.317v1.686h-10.079V34.6c1.359-.14 2.117-.526 2.117-2.317" data-name="Path 5927"/>
      <path d="M256.12 27.784c0 5.337-3.254 8.883-8.657 8.883s-8.657-3.546-8.657-8.883 3.254-8.812 8.657-8.812 8.657 3.476 8.657 8.812m-8.657 6.636c1.706 0 2.528-1.615 2.528-6.636s-.822-6.565-2.528-6.565-2.528 1.545-2.528 6.565.822 6.636 2.528 6.636" data-name="Path 5928"/>
      <path d="M257.383 20.868v-1.51h6.982v11.06c0 1.65.41 2.422 1.737 2.422a3.11 3.11 0 0 0 2.464-1.439v-7.408c0-2.247-.283-2.809-1.421-3.125v-1.51h6.983V31.19c0 2.7.283 3.265 1.421 3.581v1.51h-6.983v-2.247a6.738 6.738 0 0 1-4.959 2.6c-2.781 0-4.8-1.861-4.8-5.969v-6.67c0-2.247-.285-2.809-1.422-3.125" data-name="Path 5929"/>
      <path d="M285.4 34.771v1.51H277v-1.51c1.138-.316 1.422-.878 1.422-3.125v-7.2c0-2.7-.284-3.265-1.422-3.581v-1.51h6.983v2.215a6.74 6.74 0 0 1 4.96-2.6c2.78 0 4.8 1.861 4.8 5.969v6.7c0 2.247.285 2.809 1.422 3.125v1.51h-8.4v-1.51c1.139-.316 1.423-.878 1.423-3.125v-6.46c0-1.65-.412-2.422-1.738-2.422a3.11 3.11 0 0 0-2.464 1.439v7.443c0 2.247.284 2.809 1.421 3.125" data-name="Path 5930"/>
      <path d="M305.782 13v-1.506h6.983v19.695c0 2.7.285 3.266 1.422 3.582v1.509H307.2v-1.615a6.06 6.06 0 0 1-4.361 1.861c-3.7 0-6.413-2.984-6.413-8.777 0-5.442 3.317-8.672 7.045-8.672A5.626 5.626 0 0 1 307.2 20.2v-3.616c0-2.7-.285-3.264-1.423-3.581m-.347 20.012a2.409 2.409 0 0 0 1.77-.772v-9.48a2.146 2.146 0 0 0-1.864-.842c-1.8 0-2.781 1.475-2.781 5.442 0 4 1.043 5.652 2.875 5.652" data-name="Path 5931"/>
      <path d="M324.959 26.556V23.5c0-1.72-.631-2.352-1.737-2.352-.822 0-1.548.316-1.548 1.053 0 .632.252.667.252 1.615 0 1.194-.948 2.423-2.907 2.423a2.708 2.708 0 0 1-2.653-2.879c0-2.387 1.99-4.389 7.2-4.389 3.823 0 6.951.808 6.951 6v6.6c0 1.229.284 1.791 1.074 1.791a2.916 2.916 0 0 0 .7-.106l.442 1.51a5.854 5.854 0 0 1-4.107 1.826c-1.548 0-2.654-.316-3.38-2.107a6.184 6.184 0 0 1-4.8 2.107c-2.5 0-4.866-1.089-4.866-4.248 0-3.757 3.317-5.126 9.383-5.793m-3.263 4.92c0 1.58.569 2.317 1.517 2.317a2.041 2.041 0 0 0 1.737-1.194v-4.037c-2.117.07-3.254.878-3.254 2.914" data-name="Path 5932"/>
      <path d="M338.8 13.706h1.927v5.652h3.539v2.458h-3.539v9.549c0 1.685.759 2.107 1.707 2.107a2.5 2.5 0 0 0 1.516-.6l.853 1.58a6.526 6.526 0 0 1-4.9 2.212c-3 0-4.74-2-4.74-5.582v-9.266h-2.116v-2.142a8.945 8.945 0 0 0 5.75-5.968" data-name="Path 5933"/>
      <path d="M345.461 34.771c1.137-.316 1.421-.878 1.421-3.125v-7.2c0-2.7-.284-3.265-1.421-3.581v-1.51h6.982v12.291c0 2.247.284 2.809 1.422 3.125v1.509h-8.4Zm4.171-23.839a3.256 3.256 0 0 1 3.253 3.581 3.269 3.269 0 1 1-6.508 0 3.274 3.274 0 0 1 3.255-3.581" data-name="Path 5934"/>
      <path d="M372.41 27.784c0 5.337-3.254 8.883-8.657 8.883s-8.657-3.546-8.657-8.883 3.254-8.812 8.657-8.812 8.657 3.476 8.657 8.812m-8.657 6.636c1.706 0 2.528-1.615 2.528-6.636s-.822-6.565-2.528-6.565-2.528 1.545-2.528 6.565.822 6.636 2.528 6.636" data-name="Path 5935"/>
      <path d="M382.33 34.771v1.51h-8.4v-1.51c1.138-.316 1.422-.878 1.422-3.125v-7.2c0-2.7-.284-3.265-1.422-3.581v-1.51h6.983v2.215a6.742 6.742 0 0 1 4.961-2.6c2.78 0 4.8 1.861 4.8 5.969v6.7c0 2.247.284 2.809 1.422 3.125v1.51h-8.4v-1.51c1.138-.316 1.422-.878 1.422-3.125v-6.46c0-1.65-.411-2.422-1.738-2.422a3.111 3.111 0 0 0-2.464 1.439v7.443c0 2.247.284 2.809 1.422 3.125" data-name="Path 5936"/>
      <path d="m18.271 13.63-.031 6.063h-2.265a6.822 6.822 0 0 0-4.683-5.493c-1.642-.268-3.72-.368-4.726 1.207a1.857 1.857 0 0 0 .234 1.865 5.322 5.322 0 0 0 1.5 1.209c4.156 2.56 10.372 3.395 11.813 9.527a6.676 6.676 0 0 1-2.354 6.413c-4.841 3.771-12.193 2.467-17.187-.515l-.46-.332v-7.687H2.53c0 3.81 2.423 6.327 5.306 7.7a5.844 5.844 0 0 0 4.8-.289 1.391 1.391 0 0 0 .7-1.8c-1.14-1.876-3.015-2.806-4.962-3.888C5.217 25.847.731 24.18.071 20.367A6.665 6.665 0 0 1 3.154 13.7c4.056-2.882 11-2.849 15.117-.067" data-name="Path 5937"/>
      <path d="M24.834 14.361a4.084 4.084 0 0 1-.709 2.726c-.847 1.932-2.461 2.15-4.023 2.15V21.6h1.256v9.2a6.271 6.271 0 0 0 .756 3.6 4.574 4.574 0 0 0 3.084 2.47 5.963 5.963 0 0 0 6.337-2.57c-.034-.768-.026-1.7-.026-2.5-.767.868-1.643 1.728-2.911 1.562a1.446 1.446 0 0 1-.925-1.251L27.69 21.6h2.834l-.012-2.354h-2.834v-4.885Z" data-name="Path 5938"/>
      <path d="M125.441 25.667c-.081-.555-.14-.933-.246-1.373a5.221 5.221 0 0 0-4.26-3.568c-.991.034-2.081.133-2.542 1.125a2.672 2.672 0 0 0 1.518 2.377c2.941 2.311 8.389 2.675 8.62 7.53a5.76 5.76 0 0 1-2.543 3.863c-3.534 2.246-9.049 1.354-12.452-.562l.035-5.548 1.585-.025a7.029 7.029 0 0 0 4.49 5.573c1.223.1 2.742.332 3.436-.924a2.137 2.137 0 0 0-.5-1.915c-2.715-2.452-7.4-2.608-8.62-6.8a4.79 4.79 0 0 1 .693-4.029c2.94-3.467 8.653-2.873 12.385-1.255l-.018 5.537Z" data-name="Path 5939"/>
      <path d="M63.655 29.469a3.505 3.505 0 0 1-1.234 2.651 2.029 2.029 0 0 1-1.677.613 1.447 1.447 0 0 1-.891-1.2v-.441l-.013-11.834h-8V21.4h.833a1.28 1.28 0 0 1 .993.756c.072.126.158.3.158 1.038 0 .923.009 2.042.009 3.069 0 .985.024 2.074.009 3.075 0 3.008.214 5.611 2.842 6.961 3.157.979 5.1-.528 7.007-2.682l.02 2.74h8.356v-2.1c-.966-.106-1.151-.106-1.679-.53a2.2 2.2 0 0 1-.806-1.48l-.036-13h-7.89v2.143h.832a1.438 1.438 0 0 1 1.151 1.536Z" data-name="Path 5940"/>
      <path d="M79.146 27.638v3.646c.007 1.22-.006 2.113 1 2.889a2.709 2.709 0 0 0 1.206.331l-.018 1.854-8.2-.011v-20.8a1.862 1.862 0 0 0-.734-1.267 1.387 1.387 0 0 0-1.071-.342l.005-2.145h7.815v13.154c1.615-1.746 3.514-2.593 3.514-5.7h6.968v2.123a6.816 6.816 0 0 0-6.01 2.8l6.637 9.512a2.453 2.453 0 0 0 1.76.815v1.849H84.9a9.181 9.181 0 0 0-1.1-2.19c-1.462-2.193-3.041-4.437-4.658-6.518" data-name="Path 5941"/>
      <path d="M100.962 25.976a8.6 8.6 0 0 0-.8-4.21 1.91 1.91 0 0 0-3.333 0 8.576 8.576 0 0 0-.805 4.21Zm6.427 4.033a8.283 8.283 0 0 1-5.7 6.748 9.844 9.844 0 0 1-8.651-1.916l-.461-.4A9.4 9.4 0 0 1 90.1 25.5a9.723 9.723 0 0 1 7.23-6.737 8.271 8.271 0 0 1 7.925 2.543 8.856 8.856 0 0 1 2.038 6.63l-11.251-.014a5.642 5.642 0 0 0 2.477 4.874 5.027 5.027 0 0 0 5.052-.164 4.064 4.064 0 0 0 1.7-2.644Z" data-name="Path 5942"/>
      <path d="m108.287 18.581-3.335 1.168 1.288-3.5-10.182-2 10.142-1.841-1.316-3.526 3.468 1.356L110.245 0l1.892 10.238 3.463-1.356-1.315 3.526 10.142 1.843-10.18 2 1.287 3.5-3.334-1.17-1.958 25.1Zm1.958 10.051.795-11.855 2.352.825-.794-2.348 5.383-.988-5.381-.936.76-2.286-2.284 1.042-.835-5.415-.836 5.415-2.284-1.042.762 2.286-5.379.936 5.383.988-.787 2.346 2.352-.825Z" data-name="Path 5943"/>
      <path d="M45.192 9.888v2.223a2.632 2.632 0 0 0-1.554.449 2.149 2.149 0 0 0-.741 1.562l.016 20.249c2.914.09 5.25-.362 6.637-2.708a8.021 8.021 0 0 0 .8-4.262h2.662v8.959H34.754a14.025 14.025 0 0 0 .893-3.706V14.122a2.154 2.154 0 0 0-.747-1.562 2.641 2.641 0 0 0-1.555-.449V9.888Z" data-name="Path 5944"/>
    </g>
  </g>
</svg>
