<svg id="Layer_1" data-name="Layer 1" xmlns="http://www.w3.org/2000/svg" width="424.36" height="60.01" viewBox="0 0 424.36 60.01"><defs><style>.cls-1{fill:#fff;}.cls-2{fill:#002d74;}.cls-3{fill:#b30838;}</style></defs><title>lgh-logo</title><g id="Layer_2" data-name="Layer 2"><g id="Desktop"><path class="cls-1" d="M25.44,59.91l-1-.45A44.53,44.53,0,0,1,5.9,44.06a33.07,33.07,0,0,1-5.9-18V1.23H50.87V26.08a33,33,0,0,1-5.89,18,44.37,44.37,0,0,1-18.56,15.4Z"/><path class="cls-2" d="M25.44,58.44,25,58.25A43.17,43.17,0,0,1,7,43.32,31.69,31.69,0,0,1,1.33,26.08V2.56H49.54V26.08a31.69,31.69,0,0,1-5.67,17.24,43.1,43.1,0,0,1-18,14.93Z"/><path id="Bar" class="cls-3" d="M48.57,3.41H2.33v15H48.57Z"/><path class="cls-2" d="M13.51,14.37v1.29H3.27V14.39a1.51,1.51,0,0,1-.45-1.06,1.7,1.7,0,0,1,.45-1.07V9.41a2.05,2.05,0,0,1-.34-1.07,1.78,1.78,0,0,1,.92-1.46h.69A3.1,3.1,0,0,1,6.76,6a4.14,4.14,0,0,1,1.63.34A4.53,4.53,0,0,1,10.1,6a2.9,2.9,0,0,1,2.17.87h.64a1.75,1.75,0,0,1,.74,2.36,2.39,2.39,0,0,1-.13.21v2.84a1.45,1.45,0,0,1,0,2Zm21.83-4.12a1.18,1.18,0,0,1-.21-.73,4.87,4.87,0,0,1,1.06-2.19h0c0-.15-.62-.48-1.33-.48-1,0-2.07.58-2,3a2.18,2.18,0,0,0-2,2.11,4.19,4.19,0,0,0,.33,1.56.07.07,0,0,0,.07.06c.23,0,.82-.84,1.33-1.16a1.71,1.71,0,0,1,.82-.28.7.7,0,0,1,.72.64,2.08,2.08,0,0,1-2,1.73,2.19,2.19,0,0,1-1.78-1.06,2.24,2.24,0,0,0,.3-1.07,1.53,1.53,0,0,0-.6-1.22,1.84,1.84,0,0,0,.09-.57.82.82,0,0,0-.72-.91h-.06s0-1.61-1.36-1.58a1,1,0,0,0-.95-.8h-.37a1.12,1.12,0,0,0-1.07-1,1.72,1.72,0,0,0-.55.1,1.33,1.33,0,0,0-1.19-.78,1.83,1.83,0,0,0-1,.37s-.6-1.24-1.92-.2a1.44,1.44,0,0,0-1-.4,2.47,2.47,0,0,0-1.74.9S18.14,6,18,6s-.08,0-.12.14c-.17.38-.06.55-.25.93-.07.14-2.57,3-2.57,5.33a2.35,2.35,0,0,0,.37,1.32c.07.11.11.17.11.22s-.06.08-.16.14-.61.45-.61.84a.38.38,0,0,0,0,.15c.29.92.79.58,1.48,1.15a1.62,1.62,0,0,0,1,.3,5.62,5.62,0,0,0,4-2.19,2.57,2.57,0,0,1,1.93-1c2.29,0,4.8,3.38,8.44,3.25a4.41,4.41,0,0,0,4.51-4.1A3.69,3.69,0,0,0,35.34,10.25Zm12.33,2V9.43A2.18,2.18,0,0,0,48,8.32a1.68,1.68,0,0,0-.94-1.46h-.64A2.9,2.9,0,0,0,44.24,6a4.45,4.45,0,0,0-1.69.36A4.06,4.06,0,0,0,40.94,6a3.12,3.12,0,0,0-2.25.87H38a1.76,1.76,0,0,0-.92,1.43,2.16,2.16,0,0,0,.34,1.1v2.85A1.66,1.66,0,0,0,37,13.32a1.54,1.54,0,0,0,.44,1.07v1.27H47.66V14.37a1.42,1.42,0,0,0,.46-1,1.78,1.78,0,0,0-.45-1.1Z"/><path class="cls-1" d="M20.57,13.35l.69.44a5.51,5.51,0,0,1-3.75,2.34c-.48,0-1.05-.12-1.05-.22s0,0,.07-.06a6.66,6.66,0,0,0,2.8-1.6,1.11,1.11,0,0,0,.28-.55.22.22,0,0,0-.21-.23h0a.42.42,0,0,0-.36.24,5.5,5.5,0,0,1-2.42,1.57,2.25,2.25,0,0,1-.63.11.66.66,0,0,1-.66-.34.38.38,0,0,1,0-.15c0-.35.83-.41.83-.92s-.51-.8-.51-1.76c0-1.83,2.16-4.47,2.43-4.72a2.15,2.15,0,0,1,1,1.88,3.83,3.83,0,0,1-.62,1.91l.14.05a3.15,3.15,0,0,1,1.79-1.15.63.63,0,0,1,.67.59v.06a1.61,1.61,0,0,1,0,.31h.23a.65.65,0,0,1,.63.67v0C21.85,12.68,20.57,13.35,20.57,13.35Zm-2.86-.8a.46.46,0,0,0-.33.44,1.1,1.1,0,0,0,.17.52h0c.2,0,.86-.59,1-.74h0ZM34.57,9.61h0c0,1,1.18,1.37,1.18,2.93a3.89,3.89,0,0,1-4,3.6c-4.62,0-5.3-3.24-8.27-3.24a3.72,3.72,0,0,0-1.9.52l-.33-.22a1.83,1.83,0,0,0,.84-1.42,2.19,2.19,0,0,0-.86-1.5,1,1,0,0,1,.65-.33c.5,0,.52.66,1.08.66.3,0,.53-.21.79-.21s.35.2.61.6c.38.6,1.4,0,1.56.74s.23.52.64.58.46.8.46.8l.44-.17a1.38,1.38,0,0,0-.33-.82c-.24-.33-.73.09-.85-.7a.67.67,0,0,0-.71-.63h-.43c-.09,0-.31-.28-.42-.54s-.27-.56-.59-.56-.64.32-1,.32-.49-.88-1.3-.88a1.82,1.82,0,0,0-1.18.72,1.4,1.4,0,0,0-.41,0,2.57,2.57,0,0,0-.73.1,2.51,2.51,0,0,0,.08-.67A3.36,3.36,0,0,0,19.39,8a8.31,8.31,0,0,1,2.48-.35,10,10,0,0,1,3.63.68c3.33,1.29,4,6.57,6.36,6.57a2.42,2.42,0,0,0,2.71-2.09s0-.07,0-.11a1.14,1.14,0,0,0-1.11-1.17h-.16c-1.06,0-1.78,1.3-1.92,1.3h0a3.86,3.86,0,0,1-.1-.76,1.87,1.87,0,0,1,1.84-1.9l.3,0V9.58c0-1.9.91-2.32,1.53-2.32.32,0,.57.12.57.23h0A3.52,3.52,0,0,0,34.57,9.61Zm7.71,3.57V6.8a4.16,4.16,0,0,0-1.4-.24,2.43,2.43,0,0,0-1.82.72v6A7.45,7.45,0,0,1,41,13,5.56,5.56,0,0,1,42.28,13.18ZM13,9.26A1.23,1.23,0,0,0,13,7.51l-.17-.14h-.36V14H9.27l-.82.33L7.67,14H4.38V7.37H4a1.26,1.26,0,0,0-.57,1,1.55,1.55,0,0,0,.35.9V12.5a1.24,1.24,0,0,0-.45.85,1,1,0,0,0,.45.82v1H13v-1a1,1,0,0,0,.28-1.39A.93.93,0,0,0,13,12.5Zm6.15-1.64a10.88,10.88,0,0,1,3-.38,7.3,7.3,0,0,1,7.38,5c.09.26.19.32.25.32s.15-.22.15-.46a.74.74,0,0,0-.54-.76,1.49,1.49,0,0,0,.05-.36.93.93,0,0,0-.86-1h0a1,1,0,0,0,0-.25,1,1,0,0,0-.85-1.13h-.41a.64.64,0,0,0-.58-.71h-.14a1.83,1.83,0,0,0-.4,0S26.12,7,25.27,7a2,2,0,0,0-.82.21,1,1,0,0,0-.87-.7,1.76,1.76,0,0,0-.94.34,1.24,1.24,0,0,0-.93-.6,1.35,1.35,0,0,0-1,.63,1.18,1.18,0,0,0-1-.65,1.82,1.82,0,0,0-1.18.59A3.93,3.93,0,0,1,19.15,7.62ZM11.86,13.3v-6a2.36,2.36,0,0,0-1.81-.72,4.22,4.22,0,0,0-1.41.24V13.2a5.38,5.38,0,0,1,1.2-.2A8.65,8.65,0,0,1,11.86,13.3Zm-3.73-.12V6.8a4.22,4.22,0,0,0-1.41-.24,2.43,2.43,0,0,0-1.82.72v6A8.72,8.72,0,0,1,7,13.05,5.36,5.36,0,0,1,8.13,13.18Zm39-3.92a1.69,1.69,0,0,0,.35-.94,1.15,1.15,0,0,0-.58-1h-.36V14H43.42l-.81.33L41.83,14H38.54V7.37h-.38a1.26,1.26,0,0,0-.57,1,1.48,1.48,0,0,0,.35.9V12.5a1.22,1.22,0,0,0-.45.84,1.06,1.06,0,0,0,.45.83v1h9.22v-1a1.15,1.15,0,0,0,.46-.82,1.14,1.14,0,0,0-.46-.85ZM46,13.3v-6a2.4,2.4,0,0,0-1.82-.72,4.16,4.16,0,0,0-1.4.24V13.2A5.85,5.85,0,0,1,44.1,13,7.68,7.68,0,0,1,46,13.3ZM25.46,33.22a3.43,3.43,0,1,1,3.42-3.44h0A3.43,3.43,0,0,1,25.46,33.22Zm11.16,2.71A3.42,3.42,0,1,0,40,39.39v0A3.42,3.42,0,0,0,36.62,35.93ZM10.85,39.35a3.43,3.43,0,1,0,3.44-3.42h0A3.43,3.43,0,0,0,10.85,39.35Zm27,9.62L25.45,37.08,13.05,49a45.4,45.4,0,0,0,12.4,8.38A45.4,45.4,0,0,0,37.85,49Zm7.53-10.23a29.52,29.52,0,0,0,3.19-12.63V19.19H2.33v6.92A29.52,29.52,0,0,0,5.52,38.74L25.45,20Z"/><path class="cls-2" d="M244.14 18.12h-.79c-.7-3-2.8-4.89-5.54-4.89-3.27 0-5.55 2.8-5.55 6.85 0 4.52 2.84 8.29 6.2 8.29a7.86 7.86 0 0 0 6.15-3.44v1.21a8.62 8.62 0 0 1-7.27 3.63 7.93 7.93 0 0 1-8.29-7.55c0-.26 0-.53 0-.79 0-5.08 3.82-9.13 8.52-9.13 2.47 0 3.82.93 4.66.93a1.35 1.35 0 0 0 1.12-.93h.79zM70 24.23c0 3.3.79 4.24 3 4.24v.79H63.4v-.79c1.87 0 3-.61 3-4.15V7.59c0-3.26-.79-4.24-3-4.24V2.56h9.74c7.36 0 10.34 3.92 10.34 7.6 0 4.42-3.35 6.89-9.41 6.89a31.26 31.26 0 0 1-4.1-.28zm0-8.67a8.66 8.66 0 0 0 3.31.47c4 0 6.47-2.15 6.47-5.78 0-2.84-1.58-6.66-6.47-6.66H70zm16.26 3.63c-.1 7.41 4.33 9.28 6.56 9.28s3.45-.8 5.83-3.45v1.21c-2 2.56-3.91 3.54-6.8 3.54-5.18 0-8.9-3.59-8.9-8.57s3.63-8.9 8.29-8.9c3.82 0 7.36 3.07 7.13 6.89zm9-.79c.14-3.63-2.33-5.12-4.43-5.12-2.75 0-4.38 2.05-4.56 5.12zM117 25.67c0 2.14.47 2.8 2.8 2.8v.79H111v-.79c2.24 0 2.84-.52 2.84-2V17.8A3.53 3.53 0 0 0 110.57 14a2.06 2.06 0 0 0-.43 0c-1.63 0-3.07 1-4.7 3.22V25.3c0 2.51.33 3.17 2.79 3.17v.79H99.52v-.79c2.19 0 2.75-.19 2.75-3.17V16c0-2-.51-2.43-2.75-2.43v-.79l5.13-.51h.79v3.31c2-2.24 3.87-3.31 6-3.31a5.55 5.55 0 0 1 5.58 5.5c0 .15 0 .3 0 .45zm21 0c0 2.14.47 2.8 2.79 2.8v.79H132v-.79c2.24 0 2.84-.52 2.84-2V17.8A3.53 3.53 0 0 0 131.57 14a2.14 2.14 0 0 0-.44 0c-1.63 0-3.07 1-4.71 3.22V25.3c0 2.51.33 3.17 2.8 3.17v.79h-8.71v-.79c2.19 0 2.75-.19 2.75-3.17V16c0-2-.52-2.43-2.75-2.43v-.79l5.12-.51h.79v3.31c2-2.24 3.87-3.31 6-3.31A5.54 5.54 0 0 1 138 17.75a3.65 3.65 0 0 1 0 .47zM177.37 3.35c-2.28 0-3.17 1.63-3 4.15L175.74 24c.28 3.26.84 4.28 3.31 4.52v.79h-9.6v-.79c2.19-.38 2.94-1.36 2.75-4l-1.31-17.3h-.09l-9.13 22H161l-9-22h-.1l-1.49 16.45c-.23 2.7.75 4.28 3.45 4.8v.79H145.6v-.79c2.7-.38 3.12-2 3.4-4.9l1.63-18.35a5.34 5.34 0 0 0-3.5-1.87V2.56h6.76l8.52 21 8.67-21h6.29zm6 15.84c-.1 7.41 4.33 9.28 6.57 9.28s3.44-.8 5.82-3.45v1.21c-2 2.56-3.91 3.54-6.8 3.54-5.17 0-8.9-3.59-8.9-8.57s3.63-8.9 8.29-8.9c3.82 0 7.36 3.07 7.13 6.89zm9-.79c.14-3.63-2.33-5.12-4.43-5.12-2.75 0-4.38 2.05-4.56 5.12zM214.5 26c0 1.82.65 2.43 2.75 2.43v.79h-9.6c-7 0-9.59-4.71-9.59-8.57 0-4.66 3.44-8.39 7.73-8.39a9.77 9.77 0 0 1 5.54 2V4.19c0-2.37-.55-2.84-2.19-2.84h-.93V.56l5.5-.56h.79zm-3.17-10a6.28 6.28 0 0 0-4.79-2.79c-3 0-5 2.7-5 6.71s1.82 8.52 7.22 8.52c1.87 0 2.61-.74 2.61-2.51zm13.75 10.11c0 1.63.42 2.29 2.74 2.29v.79h-9V28.4c2.51 0 3.12-.33 3.12-2.29v-10c0-2.28-.7-2.47-3.12-2.47v-.79l5.49-.51h.8zm.46-20.4a2 2 0 0 1-1.95 2.05h-.05a2.07 2.07 0 0 1-2-2 2 2 0 1 1 4 0v0zm26.51 20.4c0 1.63.42 2.29 2.75 2.29v.79h-9V28.4c2.52 0 3.12-.33 3.12-2.29v-10c0-2.28-.7-2.47-3.12-2.47v-.79l5.5-.51h.79zm.47-20.4a2 2 0 0 1-2 2.05h0a2.07 2.07 0 0 1-2-2 2 2 0 0 1 4 0v0zM273.26 25.6c0 2.14.47 2.8 2.8 2.8v.79h-8.81V28.4c2.24 0 2.85-.52 2.85-2V17.8A3.53 3.53 0 0 0 266.83 14a2.77 2.77 0 0 0-.41 0c-1.64 0-3.08 1-4.71 3.22V25.3c0 2.51.33 3.17 2.79 3.17v.79h-8.71v-.79c2.19 0 2.75-.19 2.75-3.17V16c0-2-.51-2.43-2.75-2.43v-.79l5.13-.51h.79v3.31c2-2.24 3.87-3.31 6-3.31a5.54 5.54 0 0 1 5.6 5.48c0 .14 0 .29 0 .44zm7.07-6.48c-.09 7.41 4.34 9.28 6.57 9.28s3.45-.8 5.83-3.45v1.21c-2 2.56-3.92 3.54-6.81 3.54-5.17 0-8.89-3.59-8.89-8.57s3.63-8.9 8.29-8.9c3.82 0 7.36 3.07 7.13 6.89zm9-.79c.13-3.63-2.33-5.12-4.43-5.12-2.75 0-4.38 2-4.57 5.12zM64.31 36.92h4.14V56.13h9.32v3.46H64.31zM89.94 59.59l-.27-1.81h-.1A6.11 6.11 0 0 1 84.73 60a4.86 4.86 0 0 1-5.14-4.56c0-.1 0-.21 0-.31 0-4.14 3.67-6.23 9.72-6.19v-.27c0-1.08-.44-2.86-3.33-2.86A8.7 8.7 0 0 0 81.57 47l-.81-2.69a11.86 11.86 0 0 1 5.92-1.45c5.25 0 6.76 3.33 6.76 6.9v5.92a27.19 27.19 0 0 0 .23 3.93zm-.54-8c-2.92-.07-5.71.57-5.71 3.06a2.18 2.18 0 0 0 2 2.35H86a3.34 3.34 0 0 0 3.23-2.25 3.08 3.08 0 0 0 .13-.91zM97.81 48.09c0-1.88 0-3.46-.13-4.88h3.63l.2 2.46h.1a5.9 5.9 0 0 1 5.21-2.83c2.86 0 5.82 1.85 5.82 7v9.72H108.5V50.34c0-2.35-.87-4.13-3.12-4.13a3.48 3.48 0 0 0-3.23 2.42A4 4 0 0 0 102 50v9.62H97.81zM129.09 59.09a12.07 12.07 0 0 1-4.64.84c-5.12 0-8.45-3.26-8.45-8.34 0-4.91 3.37-8.75 9.12-8.75a10.37 10.37 0 0 1 4 .78l-.74 3.09a7.32 7.32 0 0 0-3.13-.64c-3.16 0-5 2.32-5 5.32 0 3.36 2.19 5.28 5 5.28a8.1 8.1 0 0 0 3.26-.64zM141.36 59.59l-.27-1.81H141A6.1 6.1 0 0 1 136.15 60 4.86 4.86 0 0 1 131 55.44c0-.12 0-.23 0-.35 0-4.14 3.67-6.23 9.72-6.19v-.27c0-1.08-.43-2.86-3.33-2.86A8.6 8.6 0 0 0 133 47l-.81-2.69a11.86 11.86 0 0 1 5.92-1.45c5.25 0 6.76 3.33 6.76 6.9v5.92a27.19 27.19 0 0 0 .23 3.93zm-.54-8c-2.92-.07-5.71.57-5.71 3.06a2.17 2.17 0 0 0 2 2.35h.38a3.34 3.34 0 0 0 3.23-2.25 3.08 3.08 0 0 0 .13-.91zM149 55.79A9.28 9.28 0 0 0 153.2 57c1.82 0 2.63-.74 2.63-1.82s-.68-1.68-2.69-2.39c-3.2-1.1-4.54-2.85-4.51-4.77 0-2.89 2.39-5.15 6.19-5.15a9.6 9.6 0 0 1 4.34 1l-.81 2.93a7.31 7.31 0 0 0-3.47-1c-1.48 0-2.28.71-2.28 1.72s.77 1.55 2.86 2.29c3 1.07 4.33 2.59 4.37 5 0 3-2.32 5.11-6.66 5.11a10.46 10.46 0 0 1-5-1.15zM168 38.54v4.67h3.93v3.1H168v7.23c0 2 .53 3 2.12 3a6.29 6.29 0 0 0 1.61-.2l.07 3.16a9 9 0 0 1-3 .41 4.81 4.81 0 0 1-3.56-1.35c-.88-.94-1.28-2.42-1.28-4.57v-7.7h-2.35v-3.1H164v-3.7zM177.78 52.56c.1 3 2.42 4.24 5.05 4.24a12.3 12.3 0 0 0 4.54-.74l.6 2.86a15.45 15.45 0 0 1-5.71 1c-5.32 0-8.45-3.26-8.45-8.27 0-4.55 2.76-8.82 8-8.82s7.06 4.38 7.06 8a11.36 11.36 0 0 1-.13 1.75zm7.2-2.89c0-1.51-.64-4-3.4-4-2.55 0-3.63 2.32-3.8 4zM192.21 48.49c0-2.22 0-3.8-.13-5.28h3.59l.14 3.13h.13a4.89 4.89 0 0 1 4.48-3.5 4.78 4.78 0 0 1 1 .1v3.91a5.48 5.48 0 0 0-1.21-.14 3.65 3.65 0 0 0-3.7 3.13 6.86 6.86 0 0 0-.13 1.28v8.47h-4.14zM229.47 58.55a22.43 22.43 0 0 1-7.3 1.28c-3.83 0-6.72-1-8.87-3a11.24 11.24 0 0 1-3.17-8.34c0-7.16 5.12-11.77 12.62-11.77a15 15 0 0 1 6 1.08l-.91 3.33a12.29 12.29 0 0 0-5.15-1c-4.84 0-8.24 2.86-8.24 8.14s3.16 8.2 7.87 8.2a7.77 7.77 0 0 0 3.13-.47V50.34h-4V47.08h8zM236.67 52.56c.1 3 2.42 4.24 5 4.24a12.3 12.3 0 0 0 4.54-.74l.61 2.86a15.54 15.54 0 0 1-5.72 1c-5.31 0-8.44-3.26-8.44-8.27 0-4.55 2.76-8.82 8-8.82s7.07 4.38 7.07 8a9.32 9.32 0 0 1-.14 1.75zm7.2-2.89c0-1.51-.64-4-3.4-4-2.56 0-3.63 2.32-3.8 4zM251.1 48.09c0-1.88 0-3.46-.14-4.88h3.63l.21 2.46h.1a5.88 5.88 0 0 1 5.21-2.83c2.86 0 5.82 1.85 5.82 7v9.72h-4.14V50.34c0-2.35-.87-4.13-3.13-4.13a3.48 3.48 0 0 0-3.23 2.42 4.36 4.36 0 0 0-.16 1.34v9.62H251.1zM273.26 52.56c.1 3 2.42 4.24 5 4.24a12.3 12.3 0 0 0 4.54-.74l.61 2.86a15.54 15.54 0 0 1-5.72 1c-5.31 0-8.44-3.26-8.44-8.27 0-4.55 2.76-8.82 8-8.82s7.07 4.38 7.07 8a9.32 9.32 0 0 1-.14 1.75zm7.2-2.89c0-1.51-.64-4-3.4-4-2.56 0-3.63 2.32-3.8 4zM287.69 48.49c0-2.22 0-3.8-.14-5.28h3.6l.13 3.13h.14a4.63 4.63 0 0 1 5.45-3.4v3.91a5.48 5.48 0 0 0-1.21-.14 3.65 3.65 0 0 0-3.7 3.13 6.87 6.87 0 0 0-.14 1.28v8.47h-4.13zM308.57 59.59l-.27-1.81h-.1A6.11 6.11 0 0 1 303.36 60a4.86 4.86 0 0 1-5.14-4.56c0-.1 0-.21 0-.31 0-4.14 3.67-6.23 9.72-6.19v-.27c0-1.08-.44-2.86-3.33-2.86A8.7 8.7 0 0 0 300.2 47l-.81-2.69a11.86 11.86 0 0 1 5.92-1.45c5.24 0 6.76 3.33 6.76 6.9v5.92a25.84 25.84 0 0 0 .23 3.93zm-.54-8c-2.92-.07-5.72.57-5.72 3.06a2.18 2.18 0 0 0 2 2.35h.37a3.34 3.34 0 0 0 3.23-2.25 3.08 3.08 0 0 0 .13-.91zM316.44 35.71h4.17V59.59h-4.17zM336.35 36.92V46h9.58V36.92h4.14V59.59h-4.14v-10h-9.58v10h-4.14V36.92zM357.57 52.56c.1 3 2.42 4.24 5 4.24a12.3 12.3 0 0 0 4.54-.74l.61 2.86a15.54 15.54 0 0 1-5.72 1c-5.31 0-8.44-3.26-8.44-8.27 0-4.55 2.76-8.82 8-8.82s7.07 4.38 7.07 8a9.32 9.32 0 0 1-.14 1.75zm7.2-2.89c0-1.51-.64-4-3.4-4-2.56 0-3.63 2.32-3.8 4zM381.21 59.59l-.27-1.81h-.1A6.11 6.11 0 0 1 376 60a4.86 4.86 0 0 1-5.14-4.56c0-.1 0-.21 0-.31 0-4.14 3.67-6.23 9.72-6.19v-.27c0-1.08-.44-2.86-3.33-2.86a8.62 8.62 0 0 0-4.4 1.21L372 44.29a11.76 11.76 0 0 1 6-1.45c5.25 0 6.76 3.33 6.76 6.9v5.92a27.19 27.19 0 0 0 .23 3.93zm-.54-8c-2.92-.07-5.71.57-5.71 3.06a2.17 2.17 0 0 0 2 2.35h.38a3.34 3.34 0 0 0 3.23-2.25 3.08 3.08 0 0 0 .13-.91zM389.08 35.71h4.17V59.59h-4.17zM402.46 38.54v4.67h3.94v3.1h-3.94v7.23c0 2 .54 3 2.12 3a5.9 5.9 0 0 0 1.62-.2l.07 3.16a9 9 0 0 1-3 .41 4.81 4.81 0 0 1-3.56-1.35c-.88-.94-1.28-2.42-1.28-4.57v-7.7h-2.35v-3.1h2.35v-3.7zM409.53 35.71h4.17v9.76h.06a5.43 5.43 0 0 1 2.06-1.89 5.58 5.58 0 0 1 2.82-.74c2.79 0 5.72 1.85 5.72 7.1v9.65h-4.14V50.41c0-2.39-.87-4.17-3.16-4.17a3.38 3.38 0 0 0-3.36 3.42v9.93h-4.17z"/></g></g></svg>