<svg xmlns="http://www.w3.org/2000/svg" id="Layer_1" viewBox="0 0 369 60">
  <style>
    .st0{fill:#011f5b}
  </style>
  <path d="M303.24 23.49h-1.03c-.91-3.88-3.64-6.36-7.21-6.36-4.24 0-7.21 3.64-7.21 8.91 0 5.88 3.7 10.79 8.06 10.79 2.61 0 5.76-1.39 8-4.48v1.57c-2.3 3.15-5.57 4.73-9.45 4.73-6.36 0-10.79-4.42-10.79-10.85 0-6.6 4.97-11.88 11.09-11.88 3.21 0 4.97 1.21 6.06 1.21.55 0 1.09-.42 1.45-1.21h1.03v7.57zM76.7 31.43c0 4.3 1.03 5.51 3.94 5.51v1.03H68.16v-1.03c2.42 0 3.94-.79 3.94-5.39V9.79c0-4.24-1.03-5.51-3.94-5.51V3.25h12.66c9.57 0 13.45 5.09 13.45 9.88 0 5.76-4.36 8.97-12.24 8.97-1.52 0-2.79-.06-5.33-.36v9.69zm0-11.27c1.58.55 2.48.61 4.3.61 5.15 0 8.42-2.79 8.42-7.51 0-3.7-2.06-8.67-8.42-8.67h-4.3v15.57zm21.14 4.72c-.12 9.63 5.63 12.06 8.54 12.06 2.97 0 4.48-1.03 7.57-4.48v1.58c-2.61 3.33-5.09 4.6-8.85 4.6-6.73 0-11.57-4.67-11.57-11.15s4.73-11.57 10.79-11.57c4.97 0 9.57 4 9.27 8.97H97.84v-.01zm11.69-1.03c.18-4.73-3.03-6.67-5.76-6.67-3.58 0-5.7 2.67-5.94 6.67h11.7zm28.34 9.45c0 2.79.61 3.64 3.64 3.64v1.03h-11.46v-1.03c2.91 0 3.7-.67 3.7-2.67V23.06c0-3.45-2.48-4.91-4.79-4.91-2.12 0-4 1.33-6.12 4.18v10.48c0 3.27.42 4.12 3.64 4.12v1.03h-11.33v-1.03c2.85 0 3.58-.24 3.58-4.12V20.76c0-2.61-.67-3.15-3.58-3.15v-1.03l6.67-.67h1.03v4.3c2.54-2.91 5.03-4.3 7.76-4.3 3.58 0 7.27 2.55 7.27 7.7l-.01 9.69zm27.29 0c0 2.79.61 3.64 3.64 3.64v1.03h-11.45v-1.03c2.91 0 3.7-.67 3.7-2.67V23.06c0-3.45-2.48-4.91-4.79-4.91-2.12 0-4 1.33-6.12 4.18v10.48c0 3.27.42 4.12 3.64 4.12v1.03h-11.33v-1.03c2.85 0 3.58-.24 3.58-4.12V20.76c0-2.61-.67-3.15-3.58-3.15v-1.03l6.67-.67h1.03v4.3c2.54-2.91 5.03-4.3 7.76-4.3 3.57 0 7.27 2.55 7.27 7.7v9.69h-.02zm51.23-29.02c-2.97.06-4.12 2.12-3.88 5.39l1.76 21.39c.36 4.24 1.09 5.57 4.3 5.88v1.03h-12.48v-1.03c2.85-.49 3.82-1.76 3.58-5.21l-1.7-22.42h-.12l-11.88 28.66h-.91L183.43 9.31h-.12l-1.94 21.39c-.3 3.51.97 5.57 4.48 6.24v1.03h-10.79v-1.03c3.51-.49 4.06-2.55 4.42-6.36l2.12-23.87c-1.33-1.45-2.55-2.12-4.54-2.42V3.25h8.79l11.09 27.33 11.27-27.33h8.18v1.03zm7.75 20.6c-.12 9.63 5.63 12.06 8.54 12.06 2.97 0 4.48-1.03 7.57-4.48v1.58c-2.6 3.33-5.09 4.6-8.85 4.6-6.73 0-11.57-4.67-11.57-11.15s4.73-11.57 10.79-11.57c4.97 0 9.57 4 9.27 8.97h-15.75v-.01zm11.7-1.03c.18-4.73-3.03-6.67-5.76-6.67-3.58 0-5.7 2.67-5.94 6.67h11.7zm28.85 9.94c0 2.36.85 3.15 3.58 3.15v1.03h-12.48c-9.09 0-12.48-6.12-12.48-11.15 0-6.06 4.48-10.91 10.06-10.91 2.3 0 4.48.79 7.21 2.61V5.37c0-3.09-.73-3.7-2.85-3.7h-1.21V.64l7.15-.73h1.03l-.01 33.88zm-4.12-12.97c-1.7-2.3-4.06-3.64-6.24-3.64-3.88 0-6.54 3.51-6.54 8.73 0 5.15 2.36 11.09 9.39 11.09 2.42 0 3.39-.97 3.39-3.27V20.82zm17.87 13.15c0 2.12.55 2.97 3.58 2.97v1.03h-11.76v-1.03c3.27 0 4.06-.42 4.06-2.97V20.82c0-2.97-.91-3.21-4.06-3.21v-1.03l7.15-.67h1.03v18.06zm.61-26.54c0 1.45-1.15 2.67-2.6 2.67s-2.67-1.21-2.67-2.67c0-1.45 1.21-2.61 2.67-2.61 1.45.01 2.6 1.16 2.6 2.61zm34.47 26.54c0 2.12.55 2.97 3.57 2.97v1.03h-11.76v-1.03c3.27 0 4.06-.42 4.06-2.97V20.82c0-2.97-.91-3.21-4.06-3.21v-1.03l7.15-.67h1.03v18.06h.01zm.61-26.54c0 1.45-1.15 2.67-2.61 2.67s-2.67-1.21-2.67-2.67c0-1.45 1.21-2.61 2.67-2.61a2.6 2.6 0 0 1 2.61 2.61zm26.98 25.87c0 2.79.61 3.64 3.63 3.64v1.03h-11.45v-1.03c2.91 0 3.7-.67 3.7-2.67V23.06c0-3.45-2.49-4.91-4.79-4.91-2.12 0-4 1.33-6.12 4.18v10.48c0 3.27.42 4.12 3.64 4.12v1.03h-11.33v-1.03c2.85 0 3.58-.24 3.58-4.12V20.76c0-2.61-.67-3.15-3.58-3.15v-1.03l6.66-.67h1.03v4.3c2.54-2.91 5.03-4.3 7.76-4.3 3.58 0 7.27 2.55 7.27 7.7v9.69zm9.2-8.42c-.12 9.63 5.64 12.06 8.54 12.06 2.97 0 4.48-1.03 7.57-4.48v1.58c-2.61 3.33-5.09 4.6-8.85 4.6-6.73 0-11.57-4.67-11.57-11.15s4.73-11.57 10.79-11.57c4.97 0 9.57 4 9.27 8.97h-15.75v-.01zM362 23.85c.18-4.73-3.03-6.67-5.76-6.67-3.58 0-5.7 2.67-5.94 6.67H362z" class="st0"/>
  <path d="M51.25 2.62H2.69v24.21C2.65 37.37 8.49 45 13.4 49.55c5.39 5 11.34 7.88 13.33 8.32l.24.05.24-.05c1.99-.43 7.93-3.32 13.33-8.32 4.9-4.55 10.74-12.18 10.71-22.72V2.62z" style="fill:#fff"/>
  <path d="M48.26 12.76c.07.06.14.11.2.19s.08.18.08.28-.03.2-.08.28c-.05.08-.13.13-.2.19-.11.09-.21.17-.21.31v.86H37.87v-.86c0-.14-.1-.22-.21-.31-.07-.06-.14-.11-.2-.19s-.08-.18-.08-.28.03-.2.08-.28c.05-.08.13-.13.2-.19.11-.09.21-.17.21-.31V9.63c0-.14-.1-.22-.21-.31-.07-.06-.14-.11-.2-.19s-.08-.18-.08-.28.03-.2.08-.28a.72.72 0 0 1 .2-.19c.11-.09.21-.17.21-.31v-.89H38c.6 0 1.12-.01 1.48-.17.15-.06.29-.15.43-.24.31-.2.67-.42 1.19-.42.42 0 .82.16 1.17.3.25.1.48.19.65.19h.07c.17 0 .41-.09.65-.19.35-.14.74-.3 1.17-.3.53 0 .88.22 1.2.42.14.09.28.18.43.24.36.16.89.17 1.48.17h.13v.89c0 .14.1.22.21.31.07.05.14.11.2.19s.08.18.08.28-.03.2-.08.28-.13.13-.2.19c-.11.09-.21.17-.21.31v2.82c0 .14.1.22.21.31zm-12.48 1.47c-.79 1.26-2.31 1.57-2.37 1.58-.3.05-.61.08-.91.08-1.59 0-3.05-.69-4.54-1.46-.17-.09-.35-.19-.55-.3-.95-.52-2.28-1.25-3.4-1.25-.33 0-.64.06-.91.21l-.05.02v.05c-.01.15-.04.29-.08.41-.18.48-.76.99-1.05 1.19-.65.47-1.46.95-2.46.95-.15 0-.29-.02-.41-.06-.18-.06-.33-.17-.45-.31-.05-.07-.1-.15-.14-.24a.794.794 0 0 1-.06-.22l-.01-.06-.06-.02c-.39-.12-.62-.37-.62-.68 0-.23.17-.44.34-.63.26-.31.48-.57.12-.92-.03-.03-.07-.06-.11-.09l-.15-.12c-.32-.34-.13-1.06-.02-1.48l.01-.05c.12-.47.31-.95.57-1.47.36-.71.79-1.51 1.4-2.02.01-.01.03-.01.04-.01.02 0 .03.01.04.02.01.02.08.12.17.28l.1.17.06-.19c.17-.5.45-.83.83-.97.41-.15.79.06.98.2l.08.06.05-.08c.12-.2.35-.44.72-.45.41-.02.75.26.91.43l.06.06.07-.05c.18-.15.66-.5 1.15-.44.46.06.63.46.68.63l.03.1.1-.05c.21-.11.63-.25 1.03 0 .25.16.28.43.26.64l-.01.12.12-.02c.3-.05.84-.08 1.16.25.25.26.27.6.24.83l-.02.12.12-.01c.26-.03.61-.01.8.29.13.2.08.48.04.63l-.03.09.09.02c.15.04.42.13.5.35.06.16.04.43-.05.74l-.02.08.08.03c.13.05.37.18.5.44.13.25.12.56-.02.93l-.02.06.05.04c.34.3.68.58 1.01.82.68.49 1.74.75 2.45.16.27-.22.39-.63.3-1.01-.08-.34-.31-.57-.61-.64-.54-.12-.97.4-1.32.92-.01.02-.03.03-.05.02-.02 0-.04-.01-.05-.03-.32-.77-.34-1.41-.05-1.9.25-.42.72-.71 1.3-.8l.08-.01v-.08c-.01-.91.21-1.57.65-1.97.27-.24.76-.51 1.58-.4.02 0 .03.01.04.03.01.01.01.03 0 .05-.61 1.46-.46 2.01-.13 3.2l.09.33c.31 1.11.21 2.08-.27 2.86zm-19.49-1.47c.07.06.14.11.2.19s.08.18.08.28-.03.2-.08.28c-.05.08-.13.13-.2.19-.11.09-.21.17-.21.31v.86H5.9v-.86c0-.14-.1-.22-.21-.31-.07-.06-.14-.11-.2-.19s-.08-.18-.08-.28.03-.2.08-.28c.05-.08.13-.13.2-.19.11-.09.21-.17.21-.31V9.63c0-.14-.1-.22-.21-.31-.07-.06-.14-.11-.2-.19s-.08-.18-.08-.28.03-.2.08-.28.13-.14.2-.19c.11-.09.21-.17.21-.31v-.89h.13c.6 0 1.12-.01 1.48-.17.15-.06.29-.15.43-.24.31-.2.67-.42 1.19-.42.42 0 .82.16 1.17.3.25.1.48.19.65.19h.07c.17 0 .41-.09.65-.19.35-.14.74-.3 1.17-.3.53 0 .88.22 1.2.42.14.09.28.18.43.24.36.16.89.17 1.48.17h.13v.89c0 .14.1.22.21.31.07.05.14.11.2.19s.08.18.08.28-.03.2-.08.28c-.05.08-.13.13-.2.19-.11.09-.21.17-.21.31v2.82c0 .14.1.22.21.31zM3.91 3.9s.06 14.07 0 14h46.12v-14H3.91z" style="fill:#900"/>
  <path d="M19.8 12.15c.16 0 .32.04.47.17.05.04.1.08.14.12.11.1.1.27-.01.36-.11.09-.24.19-.33.24-.19.13-.51.36-.73.18-.11-.09.11-.25.01-.63-.08-.3.22-.44.45-.44z" class="st0"/>
  <path d="M19.87 7.61c-.51.49-.9 1.2-1.22 1.84-.26.51-.44.98-.56 1.43l-.01.05c-.09.33-.27 1.03-.03 1.29.03.04.08.07.12.1.04.03.09.07.13.11.5.48.15.89-.1 1.19-.15.18-.29.34-.29.5 0 .35.43.48.56.51.06.01.11.07.11.13a1 1 0 0 0 .05.26c.03.07.07.14.11.19.09.11.21.2.35.25.1.04.22.05.35.05.94 0 1.71-.46 2.34-.91.37-.27.84-.74.98-1.1.04-.1.06-.2.07-.3l-.66-.11h-.02c-.07-.02-.12-.07-.13-.14-.02-.13.1-.21.33-.37l.21-.15c.35-.26.63-.46.79-.57-.18-.2-.34-.44-.47-.64-.1-.15-.19-.28-.26-.36-.33-.36-.9-.56-1.37-.27-.19.12-.35.26-.53.42-.14.13-.29.25-.45.37-.06.04-.15.03-.2-.03a.152.152 0 0 1 .01-.2c.02-.02.05-.04.07-.07.21-.2.71-.67.71-1 .02-.77-.72-2.04-.99-2.47zm4.14 5.06c1.15 0 2.46.72 3.48 1.28.2.11.38.21.55.3 1.75.9 3.47 1.69 5.33 1.36.01 0 1.5-.31 2.24-1.49.46-.73.54-1.65.25-2.73-.03-.12-.06-.23-.09-.33-.31-1.12-.48-1.76.06-3.15-.63-.04-1.02.17-1.23.37-.42.38-.61 1.03-.58 1.95 0 .08-.05.14-.13.15-.57.06-1.05.33-1.28.72-.22.38-.24.87-.04 1.46.28-.39.76-.91 1.37-.77.38.08.67.38.77.79.11.46-.04.95-.37 1.22-.8.66-1.96.38-2.7-.16-.87-.63-1.73-1.44-2.64-2.46-.16-.18-.32-.36-.47-.54-.57-.66-1.16-1.35-1.87-1.89-1.1-.85-2.41-.99-3.31-.96-.61.02-1.84.19-2.67.7.25.53.48 1.13.48 1.6 0 .08-.02.17-.05.25.6-.35 1.31-.1 1.72.34.09.1.18.24.29.4.16.24.33.51.55.71.03.03.05.07.04.12 0 .04-.03.08-.06.11 0 0-.38.27-.92.67-.07.05-.15.11-.22.15-.01.01-.03.02-.04.03l.47.08c.34-.2.7-.28 1.07-.28zm8.48 3.31c-1.59 0-3.08-.69-4.58-1.47-.17-.09-.36-.19-.56-.3-1.21-.66-3.04-1.66-4.22-1.04-.01.16-.04.3-.09.44-.19.5-.79 1.02-1.08 1.23-.66.48-1.48.97-2.51.97-.16 0-.31-.02-.44-.07-.2-.07-.37-.19-.49-.35-.06-.08-.11-.16-.15-.26-.03-.08-.05-.16-.06-.25-.42-.13-.68-.41-.68-.77 0-.27.18-.48.36-.69.29-.34.41-.52.12-.79-.03-.03-.07-.05-.1-.08-.05-.04-.11-.08-.16-.14-.35-.38-.16-1.12-.04-1.57l.01-.05c.12-.47.31-.96.58-1.49.36-.72.8-1.53 1.42-2.05.03-.03.07-.04.12-.03.04.01.08.03.1.06.02.03.27.41.53.91 1.08-.64 2.61-.72 2.79-.72.95-.04 2.32.11 3.5 1.02.73.56 1.33 1.26 1.91 1.93.15.18.31.36.47.53.89 1.01 1.74 1.8 2.59 2.42.65.47 1.66.73 2.34.17.25-.2.35-.57.27-.92-.07-.3-.27-.51-.55-.57-.49-.11-.89.38-1.23.88-.03.04-.08.07-.14.06-.05-.01-.1-.04-.12-.09-.33-.8-.35-1.46-.04-1.98.26-.44.76-.75 1.37-.84-.01-.94.22-1.62.68-2.04.28-.26.8-.54 1.66-.42.04.01.08.03.11.07.02.04.03.09.01.13-.59 1.43-.45 1.97-.12 3.14l.09.33c.31 1.16.21 2.16-.29 2.96-.81 1.29-2.37 1.61-2.43 1.62-.33.08-.64.11-.95.11z" class="st0"/>
  <path d="M18.88 14.97c-.14 0-.28-.01-.42-.03a.146.146 0 1 1 .03-.29c.67.08 1.64-.01 2.49-.88.06-.06.15-.06.21 0s.06.15 0 .21c-.63.65-1.42.99-2.31.99zm11.76-2.2c-.02 0-.04 0-.05-.01-.07-.03-.1-.11-.07-.18.15-.35.17-.64.06-.87-.15-.3-.5-.39-.51-.39a.127.127 0 0 1-.09-.07c-.02-.03-.02-.08-.01-.11.05-.14.17-.54.09-.74-.06-.17-.39-.24-.5-.26-.04 0-.08-.03-.1-.07-.02-.04-.03-.08-.01-.12.05-.11.14-.43.03-.6-.22-.34-.79-.17-.79-.17-.05.01-.1 0-.14-.04s-.05-.09-.03-.14c0 0 .16-.52-.16-.85-.37-.38-1.18-.16-1.18-.15-.05.01-.1 0-.14-.04s-.05-.09-.03-.14c.01-.02.14-.44-.15-.62-.46-.29-.98.08-.98.08-.04.03-.09.03-.14.01-.04-.02-.08-.06-.08-.11 0-.02-.08-.58-.57-.65-.53-.07-1.09.47-1.1.48-.03.03-.07.04-.11.04s-.08-.02-.1-.05c0 0-.38-.49-.85-.46-.45.02-.63.48-.63.49-.02.04-.05.08-.1.09s-.09 0-.13-.04c0 0-.45-.43-.91-.26-.58.21-.74.92-.8 1.16v.01c-.02.07-.09.12-.16.1s-.12-.09-.1-.16v-.01c.06-.27.25-1.09.97-1.35.45-.16.85.06 1.06.21.12-.19.36-.48.79-.5.45-.02.82.29.98.46.21-.18.71-.53 1.22-.46.45.06.67.41.76.69.24-.12.69-.26 1.12.01.3.19.33.51.31.72.31-.05.89-.09 1.24.27.29.29.3.67.27.91.25-.03.66-.02.88.33.14.22.1.52.05.7.19.05.47.15.56.41.09.24.01.6-.05.8.16.06.41.21.55.48.15.3.13.67-.05 1.1-.02.04-.07.07-.12.07z" class="st0"/>
  <path d="M29.96 14.66h-.02c-.07-.01-.13-.08-.12-.15.06-.52-.24-.62-.52-.7a.751.751 0 0 1-.18-.07c-.15-.08-.15-.26-.16-.44-.01-.2-.01-.42-.16-.58-.25-.28-.76-.1-.76-.1-.05.02-.1.01-.13-.02a.13.13 0 0 1-.05-.13c0-.01.08-.56-.24-.83-.27-.23-.78-.17-.96-.13-.04.01-.09 0-.12-.03s-.05-.07-.05-.11c.03-.34-.11-.64-.38-.81a.706.706 0 0 0-.7-.05c-.58.31-.8.33-1.4-.1-.19-.13-.38-.18-.56-.13-.23.06-.44.26-.6.58-.03.07-.12.1-.18.06-.07-.03-.1-.12-.06-.18.19-.39.47-.64.78-.72.26-.07.53-.01.78.17.51.36.62.34 1.12.08.3-.16.67-.14.98.06.3.19.48.52.5.89.25-.03.72-.04 1.03.22.29.25.34.64.34.88.23-.04.61-.06.87.22.21.24.22.54.23.76 0 .07.01.19.02.22.02.01.07.03.12.04.26.08.8.25.71 1-.01.05-.07.1-.13.1zm-13.59-1.43c0 .06-.01.12-.05.17-.03.05-.09.1-.16.15-.13.1-.29.23-.29.46v.63h-9.8v-.63c0-.24-.16-.36-.29-.46-.06-.05-.12-.09-.16-.15a.337.337 0 0 1-.05-.17c0-.06.01-.12.05-.17.03-.05.09-.1.16-.15.13-.1.29-.23.29-.46V9.63c0-.24-.16-.36-.29-.46-.06-.05-.12-.09-.16-.15a.337.337 0 0 1-.05-.17c0-.06.01-.12.05-.17.03-.05.09-.1.16-.15.13-.1.29-.23.29-.46v-.65h.02c.25 0 .5 0 .74-.02v6.47h3.57a.603.603 0 0 0 1.16 0h3.57V7.4c.23.02.48.02.73.02h.02v.65c0 .24.16.36.29.46.06.05.12.09.16.15.03.05.05.11.05.17 0 .06-.01.12-.05.17-.03.05-.09.1-.16.15-.13.1-.29.23-.29.46v2.82c0 .24.16.36.29.46.06.05.12.09.16.15.03.04.05.1.04.17zM7.59 7.24c.17-.07.32-.17.46-.26.31-.2.61-.38 1.07-.38.38 0 .75.15 1.08.28.23.09.43.17.62.2v5.66h-.03c-.27.02-.66.15-1.1.29-.14.05-.29.09-.44.14-.43.13-.87.13-1.3.13-.28 0-.55 0-.79.04V7.36c.16-.03.3-.07.43-.12zm4.17-.36c.33-.13.7-.28 1.08-.28.46 0 .76.19 1.07.38.15.09.3.19.46.26.14.06.28.1.43.13v5.98c-.24-.04-.51-.04-.79-.04-.43 0-.87 0-1.3-.13-.15-.04-.29-.09-.44-.14-.44-.14-.83-.27-1.1-.29h-.02V7.09c.19-.04.39-.12.61-.21zm4.59 5.8c-.11-.09-.18-.14-.18-.23V9.63c0-.09.06-.15.18-.23.07-.06.16-.12.22-.21.07-.1.1-.21.1-.33s-.03-.23-.1-.33c-.06-.09-.14-.15-.22-.21-.11-.09-.18-.14-.18-.23v-.98h-.22c-.52 0-1.08-.01-1.44-.16-.14-.06-.28-.14-.42-.23-.32-.2-.69-.43-1.24-.43-.44 0-.85.16-1.2.31-.24.1-.46.19-.62.19h-.08c-.16 0-.38-.09-.62-.19-.36-.14-.76-.31-1.2-.31-.56 0-.92.23-1.24.43-.14.09-.28.17-.42.23-.36.16-.92.16-1.44.16h-.22v.98c0 .09-.06.15-.18.23-.07.06-.16.12-.22.21-.07.1-.1.21-.1.33s.03.23.1.33c.06.09.14.15.22.21.11.09.18.14.18.23v2.82c0 .09-.06.15-.18.23-.07.06-.16.12-.22.21-.07.1-.1.21-.1.33 0 .12.03.23.1.33.06.09.14.15.22.21.11.09.18.14.18.23v.94l-.01.01h10.4l-.01-.01v-.94c0-.09.06-.15.18-.23.07-.06.16-.12.22-.21.07-.1.1-.21.1-.33 0-.12-.03-.23-.1-.33-.09-.09-.17-.15-.24-.21zm31.99.55c0 .06-.01.12-.05.17-.03.05-.09.1-.15.15-.13.1-.29.23-.29.46v.63h-9.8v-.63c0-.24-.16-.36-.29-.46-.06-.05-.12-.09-.16-.15a.337.337 0 0 1-.05-.17c0-.06.01-.12.05-.17.03-.05.09-.1.16-.15.13-.1.29-.23.29-.46V9.63c0-.24-.16-.36-.29-.46-.06-.05-.12-.09-.16-.15a.337.337 0 0 1-.05-.17c0-.06.01-.12.05-.17.03-.05.09-.1.16-.15.13-.1.29-.23.29-.46v-.65h.02c.25 0 .5 0 .74-.02v6.47h3.57a.603.603 0 0 0 1.16 0h3.57V7.4c.23.02.48.02.73.02h.02v.65c0 .24.16.36.29.46.06.05.12.09.15.15.03.05.05.11.05.17 0 .06-.01.12-.05.17-.03.05-.09.1-.15.15-.13.1-.29.23-.29.46v2.82c0 .24.16.36.29.46.06.05.12.09.15.15.03.04.05.1.04.17zm-8.77-5.99c.17-.07.32-.17.46-.26.31-.2.61-.38 1.07-.38.38 0 .75.15 1.08.28.23.09.43.17.62.2v5.66h-.03c-.27.02-.66.15-1.1.29-.14.05-.29.09-.44.14-.43.13-.87.13-1.3.13-.28 0-.55 0-.79.04V7.36c.15-.03.29-.07.43-.12zm4.16-.36c.33-.13.7-.28 1.08-.28.46 0 .76.19 1.07.38.15.09.3.19.46.26.14.06.28.1.43.13v5.98c-.24-.04-.51-.04-.79-.04-.43 0-.87 0-1.3-.13-.15-.04-.29-.09-.44-.14-.44-.14-.83-.27-1.1-.29h-.02V7.09c.19-.04.39-.12.61-.21zm4.59 5.8c-.11-.09-.18-.14-.18-.23V9.63c0-.09.06-.15.18-.23.07-.06.16-.12.22-.21.07-.1.1-.21.1-.33s-.03-.23-.1-.33c-.06-.09-.14-.15-.22-.21-.11-.09-.18-.14-.18-.23v-.98h-.22c-.52 0-1.08-.01-1.44-.16-.14-.06-.28-.14-.42-.23-.32-.2-.69-.43-1.24-.43-.44 0-.85.16-1.2.31-.24.1-.46.19-.62.19h-.06c-.16 0-.38-.09-.62-.19-.36-.14-.76-.31-1.2-.31-.56 0-.92.23-1.24.43-.14.09-.28.17-.42.23-.36.16-.92.16-1.44.16h-.22v.98c0 .09-.06.15-.18.23-.07.06-.16.12-.22.21-.07.1-.1.21-.1.33s.03.23.1.33c.06.09.14.15.22.21.11.09.18.14.18.23v2.82c0 .09-.06.15-.18.23-.07.06-.16.12-.22.21-.07.1-.1.21-.1.33 0 .12.03.23.1.33.06.09.14.15.22.21.11.09.18.14.18.23v.94l-.01.01h10.4l-.01-.01v-.94c0-.09.06-.15.18-.23.07-.06.16-.12.22-.21.07-.1.1-.21.1-.33 0-.12-.03-.23-.1-.33-.1-.09-.19-.15-.26-.21z" class="st0"/>
  <path d="m47.09 38.25-20.12-19.4-20.12 19.4c-1.56-3.29-2.6-7.1-2.59-11.42v-8.61h45.42v8.61c.01 4.33-1.02 8.14-2.59 11.42zm-6.42 2.03c-1.56 1.56-4.1 1.56-5.66 0s-1.56-4.1 0-5.66 4.1-1.56 5.66 0 1.56 4.1 0 5.66zm-17.7-12.76c0-2.21 1.79-4 4-4s4 1.79 4 4-1.79 4-4 4-4-1.79-4-4zm16.5 20.88c-5.4 5.01-11 7.53-12.5 7.91-1.5-.38-7.1-2.9-12.5-7.91-.13-.12-.26-.25-.4-.37l12.9-13.69 12.9 13.69c-.13.12-.27.24-.4.37zm-26.2-8.12a4.008 4.008 0 0 1 0-5.66c1.56-1.56 4.1-1.56 5.66 0s1.56 4.1 0 5.66-4.1 1.56-5.66 0zM49.68 4.19v13.39H4.26V4.19h45.42zm.65-.65H3.61v23.29c-.03 10.2 5.65 17.62 10.42 22.04 5.2 4.82 11.06 7.69 12.9 8.09l.05.01.05-.01c1.84-.4 7.7-3.27 12.9-8.09 4.77-4.42 10.45-11.84 10.42-22.04-.02-.31-.02-23.29-.02-23.29z" class="st0"/>
</svg>
