<svg xmlns="http://www.w3.org/2000/svg" xml:space="preserve" viewBox="0 0 79.374998 26.458333">
  <defs>
    <filter id="a" width="1.1356413" height="1.5956669" x="-.06782065" y="-.29783343" style="color-interpolation-filters:sRGB">
      <feGaussianBlur result="blur" stdDeviation="2 2"/>
    </filter>
  </defs>
  <path d="M37.863224 60.284662c-.08633-.0199-.227586-.0467-.313911-.0596-.08633-.0129-.202361-.035-.257856-.049-.0555-.014-.136214-.0341-.179377-.0447-.04316-.0106-.184324-.0711-.313691-.13454-.129367-.0634-.255492-.1153-.280278-.1153-.02478 0-.04506-.0202-.04506-.0448 0-.0247-.03027-.0449-.06727-.0449s-.06727-.0188-.06727-.0418c0-.023-.04036-.0546-.08969-.0703-.04933-.0157-.08969-.0457-.08969-.0668 0-.0486-.282049-.33702-.319135-.32631-.01521.004-.0652-.0618-.111097-.14698-.0459-.0852-.09904-.15496-.118098-.15496-.01906 0-.03465-.0303-.03465-.0673s-.01653-.0673-.03674-.0673c-.05594 0-.330361-.65203-.344293-.81804-.0067-.0804-.02727-.21675-.04561-.30307-.01834-.08633-.03097-.202362-.02808-.257857.0029-.0555-.01403-.1009-.03761-.1009-.04445 0-.03404-9.896346.01079-10.254593.01287-.102863.03401-.204189.04698-.225169.01297-.02098.03567-.119248.05046-.218372.04432-.297175.05844-.353164.135602-.537841.04066-.09731.07076-.182837.06689-.190061-.01641-.03062.10584-.278354.13736-.278354.019 0 .0472-.05045.06268-.112111.01548-.06166.04793-.112111.07213-.112111.02419 0 .04399-.02524.04399-.05609 0-.07453.621895-.66142.700876-.66142.0176 0 .06633-.03107.108287-.06904.06386-.05779.446118-.223683.603436-.26188.02466-.006.0852-.024.134533-.04002.112336-.03649.300299-.07478.560556-.114201.263836-.03996 64.984782-.03996 65.248612 0 .26026.03942.44822.07771.56056.114201.0493.01602.10987.03403.13453.04002.15732.0382.53958.204092.60344.26188.042.03797.0907.06904.10828.06904.079 0 .70088.586885.70088.66142 0 .03085.0198.05609.044.05609.0242 0 .0567.05045.0721.112111.0155.06166.0437.112111.0627.112111.032 0 .14777.235833.1417.288751-.001.01294.0286.09847.0669.190061.0728.174307.0872.232056.13126.527444.0148.09912.0375.197391.0505.218372.013.02098.0341.122306.047.225169.0448.358247.0552 10.254593.0108 10.254593-.0236 0-.0405.04541-.0376.1009.003.05549-.01.17153-.0281.257857-.0183.0863-.0389.22271-.0456.30307-.0139.16601-.28835.81804-.34429.81804-.0202 0-.0367.0303-.0367.0673s-.0156.0673-.0346.0673c-.0191 0-.0722.0697-.1181.15496-.0459.0852-.0959.15137-.1111.14698-.0371-.0107-.31913.27768-.31913.32631 0 .0211-.0404.0512-.0897.0668-.0493.0157-.0897.0473-.0897.0703s-.0303.0418-.0673.0418-.0673.0202-.0673.0449c0 .0247-.0203.0448-.0451.0448-.0248 0-.15091.0519-.28028.1153-.12936.0634-.27053.12396-.31369.13454-.0432.0106-.12388.0305-.17938.0443-.0555.0138-.16144.0347-.23543.0465-.074.0118-.23092.0407-.34874.0644-.26384.053-64.916161.0511-65.146519-.002z" style="fill:#bdcddc;filter:url(#a)" transform="matrix(1 0 0 1.17022 -30.7552189 -47.935139)"/>
  <path d="M53.472774 144.38817c-.192733-.10175-.196578-.11434-.08091-.26486.08466-.11018.08593-.11035.181137-.0242.06812.0616.163243.0873.328554.0885.202372.001.232677-.01.232677-.0868 0-.0712-.05682-.1034-.290693-.16455-.288252-.0754-.494084-.23131-.494084-.37431 0-.36951.518957-.59298.954384-.41097.220374.0921.264471.16679.168455.28526l-.08018.0989-.172055-.0877c-.253931-.12947-.467005-.10738-.467005.0484 0 .0624.05814.0947.246439.13682.320829.0718.514488.19095.52108.32059.01089.21406-.01412.28485-.142772.40426-.118254.10975-.1661.1231-.434866.12134-.211387-.001-.352446-.0286-.470158-.0908zm1.480944.005c-.168534-.13281-.221974-.35472-.205623-.85387l.01396-.42603.168167-.0139.168166-.0139v.4636c0 .54932.05516.67657.283563.65424.202244-.0198.253125-.15562.253909-.6779l.000661-.43994.168167.0139.168166.0139.01395.35876c.01872.48144-.02135.71746-.146518.86298-.09258.10763-.141737.12324-.434359.13792-.28473.0143-.346723.003-.452208-.0798zm1.320663-.59602.01238-.68388.291489-.0141c.610107-.0296.852044.0754.852044.36963 0 .10981-.03146.17845-.110146.24034l-.110146.0866.108909.0496c.121711.0555.180223.22003.138017.38819-.04617.18395-.236901.24746-.743086.24746h-.451839zm.819579.28028c0-.10363-.01782-.11314-.235433-.12567l-.235434-.0136v.27844l.235434-.0136c.217617-.0125.235433-.022.235433-.12566zm-.09336-.43092c.08392-.0322.09309-.15691.01712-.23288-.0296-.0296-.130497-.0538-.224222-.0538-.164856 0-.170409.005-.170409.15696 0 .14876.008.15695.153288.15695.08431 0 .185208-.0123.224222-.0272zm.777234.74168c-.189244-.0999-.195855-.11684-.0994-.25454l.06876-.0982.174749.0911c.227791.11873.517352.10436.517352-.0257 0-.0704-.05507-.1031-.269067-.15966-.358739-.0948-.464086-.15761-.499201-.29752-.10648-.42425.490161-.70811.971854-.46237.19288.0984.214737.15278.108562.27011-.0649.0717-.07888.0713-.233704-.008-.248344-.12662-.459622-.10156-.459622.0545 0 .055.04254.0936.123323.11181.535721.12065.639032.19311.639032.44825 0 .11749-.03506.19547-.131083.29149-.11983.11983-.157367.13091-.437233.1291-.215546-.001-.355918-.0283-.474316-.0908zm1.62561-.44539v-.53814h-.448441v-.31391h1.255643v.31391h-.448444v1.07627H59.403447zm.720455.5045c.0016-.0185.107746-.32625.235837-.68388l.232894-.65025H61.027583l.238752.68388.238751.68388h-.196745c-.189347 0-.197853-.006-.226191-.15696-.02926-.15598-.03092-.15695-.26762-.15695-.232438 0-.239424.004-.289976.15695-.04749.1439-.06643.15696-.2277.15696-.09674 0-.174575-.0151-.172955-.0336zm.816765-.53814c.0098-.0185-.01686-.14462-.05922-.28027l-.07703-.24665-.07266.24357c-.03996.13397-.07266.26009-.07266.28028 0 .046.257364.0488.281577.003zm.749848-.12332v-.69509h.386031l.244217.43092.244218.43091.02242-.4197.02242-.41971H62.923729l.01238.68388.01238.68388-.214179-.00029c-.238362-.00031-.200151.0413-.555876-.60511l-.172752-.31391-.000631.45965-.000631.45966h-.31391Zm1.861043.65231c-.336445-.13917-.462001-.74415-.228421-1.10064.200164-.30549.896265-.32482 1.054432-.0293.07428.13879.06016.17327-.09277.22658-.17709.0617-.172685.0622-.172685-.0165 0-.0726-.133244-.15853-.245735-.15853-.03974 0-.121786.0495-.182326.11007-.145917.14592-.157458.51521-.02038.65228.124063.12406.330764.11619.433492-.0165.07117-.0919.10181-.1008.227963-.066.184095.0508.18297.0991-.0067.28879-.139661.13966-.174513.15224-.414811.14963-.144287-.002-.3027-.0195-.352028-.0399zm1.143532-.65373v-.69652l.526922.0126.526922.0126V143.38217l-.347545.0131-.347544.0131v.26529h.588935l-.01419.12333c-.0136.11818-.02586.12387-.294467.13667-.277502.0132-.280278.0147-.280278.14574v.1324h.717511V144.48087h-1.076266Zm2.157468.63393c-.188561-.10453-.225866-.23579-.227569-.8007l-.0016-.52692H66.982141v.47382c0 .54195.03622.64729.222596.64729.233482 0 .270692-.0867.270692-.63102v-.49009h.358756v1.08524l-.152471.15247c-.141893.14189-.172227.15236-.437233.15088-.15662-.00087-.332991-.0283-.391937-.061zm1.329185-.0302c-.192733-.10175-.196578-.11434-.08091-.26486.08466-.11018.08593-.11035.181137-.0242.06812.0616.163243.0873.328554.0885.202372.001.232677-.01.232677-.0868 0-.0712-.05682-.1034-.290693-.16455-.288252-.0754-.494084-.23131-.494084-.37431 0-.36951.518958-.59298.954384-.41097.220374.0921.264471.16679.168455.28526l-.08018.0989-.172055-.0877c-.253929-.12946-.467003-.10738-.467003.0484 0 .0624.05814.0947.246439.13682.320829.0718.514488.19095.52108.32059.01089.21406-.01412.28485-.142772.40426-.118254.10975-.1661.1231-.434865.12134-.211388-.001-.352447-.0286-.470159-.0908zm1.311699-.60377v-.69651l.526921.0126.526922.0126v.26906l-.347544.0131-.347544.0131v.2653h.588935l-.01419.12332c-.0136.11819-.02586.12388-.294468.13667-.277501.0132-.280277.0147-.280277.14575v.13239h.71751V144.48083h-1.076265zm2.386796.0126.01238-.68388.269066-.0142c.620815-.0328.886696.0992.886696.44022 0 .15739-.02389.21646-.121482.30041l-.121482.10449.10143.16752c.05579.0921.130202.21292.165369.26841.06274.099.06026.1009-.132541.1009-.19038 0-.201061-.008-.344005-.24664-.114505-.19144-.172055-.24664-.257121-.24664-.102949 0-.109597.015-.109597.24664v.24664h-.361092zm.788633-.22123c.01638-.1418-.108496-.22926-.296394-.20758-.104922.0121-.122984.0368-.135176.18472l-.01407.17074.215871-.0138c.196736-.0126.217103-.0245.22977-.13409zm.68119.20858v-.69652l.526922.0126.526921.0126V143.38208l-.347544.0131-.347544.0131v.26529h.588935l-.01419.12333c-.0136.11818-.02586.12387-.294467.13667-.277502.0132-.280278.0147-.280278.14574v.1324h.717511V144.48078h-1.076266zm1.300488.47926c0-.11948.01322-.4333.02938-.69738l.02938-.48013.161212.0135.161211.0135.01259.54934.01259.54934h.669905V144.48083h-1.076265zm1.165954.19045c0-.0338.347838-1.02212.428548-1.21764.05512-.13352.07686-.14574.259374-.14574h.19921l.169037.48208c.09297.26514.204216.57793.247214.69509l.07818.21301h-.191004c-.177022 0-.194064-.0107-.232803-.14575-.04052-.14127-.04923-.14574-.283914-.14574-.235513 0-.243145.004-.279882.14574-.03462.13363-.05258.14575-.215861.14575-.09795 0-.178096-.0121-.178096-.0268zm.8072-.58461c0-.10618-.09888-.42001-.132331-.42001-.02745 0-.136736.35894-.136736.44908 0 .0243.06054.0442.134533.0442.09459 0 .134534-.0217.134534-.0733zm.941732.0733v-.53814h-.448444v-.31644l.616611.0125.61661.0125v.13453c0 .12868-.0093.13513-.213011.14821l-.213011.0137v1.07135H77.565432Zm1.008448-.10796c-.01776-.35535-.01867-.66814-.002-.69509.01904-.0308.22068-.049.543347-.049h.513064v.31392h-.672666v.26906h.538133V143.94273h-.538149v.26906h.71751V144.48086h-1.066941zm1.333505-.0378.01238-.68388.403599.001c.463686.001.647911.078.761631.31768.09097.19172.08595.54196-.01056.73513-.117117.23444-.315731.31376-.785876.31384l-.393557.00007zm.798312.29149c.07845-.0994.09336-.16534.07678-.33968-.02516-.26461-.107346-.35404-.331938-.36116l-.172022-.005-.01289.41481-.01289.41481h.177806c.140472 0 .198246-.0259.27516-.12332zm1.562694.31688c-.187645-.11645-.272331-.30298-.272331-.59985 0-.48692.260541-.7346.739845-.70333.218507.0143.282033.039.397977.15494.154449.15445.142377.21677-.05018.25907-.09869.0217-.153989.006-.223708-.0638-.122779-.12278-.251728-.11695-.386137.0175-.08644.0864-.110073.15651-.110073.32635 0 .29265.09098.41562.307485.41562.17188 0 .275492-.0624.275492-.16593 0-.0369-.0586-.0583-.159934-.0583-.148017 0-.158877-.009-.145744-.12332.01374-.11941.02378-.12374.316889-.13658l.3027-.0133v.38323c0 .37887-.0013.38322-.112111.38322-.07331 0-.112111-.0251-.112111-.0724 0-.0667-.0088-.0667-.110533 0-.142817.0936-.504513.0919-.657526-.003zm1.306192-.61958v-.69509h.330727c.418693 0 .581178.0328.697046.14076.209333.19503.154612.5937-.09281.67617-.03311.011.01873.12368.137167.29809l.190383.28035-.214817-.0138c-.207579-.0133-.219335-.0217-.34892-.24924-.100655-.17671-.159783-.23543-.237062-.23543-.0949 0-.102959.0193-.102959.24664v.24665H83.574583zm.753386-.12108c.142187-.14218-.01016-.30494-.285439-.30494-.09749 0-.109192.0192-.109192.17938 0 .1778.0015.17938.170409.17938.09372 0 .194625-.0242.224222-.0538zm.681635.12108v-.69509H85.368359v1.39018H85.009604zm.682709.0112.01238-.68388.526922-.0126.526922-.0126v.31676h-.717512V143.67371h.582978v.26906h-.582978V144.21184h.762355V144.48091h-1.123446zm1.335289-.0112v-.69509h1.076266v.31391h-.71751V143.67365H87.969335V143.94272H87.386358v.53813h-.358756Zm1.961943.60235c-.189247-.0999-.195857-.11684-.09941-.25454l.06876-.0982.174749.0911c.227791.11873.517352.10437.517352-.0257 0-.0704-.05507-.1031-.269066-.15966-.35874-.0948-.464086-.15761-.499201-.29752-.10648-.42425.490161-.70811.971854-.46237.192879.0984.214736.15279.108562.27011-.0649.0717-.07888.0713-.233704-.008-.248345-.12662-.459622-.10155-.459622.0545 0 .0551.04254.0936.123322.11181.535722.12065.639033.19312.639033.44825 0 .1175-.03506.19547-.131084.29149-.11983.11983-.157367.13091-.437233.1291-.215546-.001-.355917-.0283-.474316-.0908zm1.435729-.038-.146452-.13075-.01487-.56434-.01487-.56434h.36607v.49008c0 .38574.015.50509.07047.56056.08557.0856.303877.0925.370879.0118.0268-.0323.0545-.2795.06155-.54935l.01282-.49062.168166-.0139.168167-.0139v.5163c0 .30479-.02195.56448-.05357.6339-.07604.16689-.258789.24539-.571312.24539-.235525 0-.289563-.0169-.417038-.13075zm1.355836-.56435v-.69508l.325122.00025c.178817.00013.399879.021.491248.0464.294756.0819.425847.36474.298526.64417-.06718.14744-.293957.25092-.549907.25092h-.206234v.44844H91.78111Zm.736729-.0929c.14555-.14554.0612-.28603-.192133-.32001l-.185841-.0249v.20771c0 .20665.000776.2077.153752.2077.08456 0 .185464-.0317.224222-.0705zm.663491.10411.01238-.68388.269066-.0142c.607073-.032.874466.10282.874466.44103 0 .10145-.0218.22521-.04845.275-.06547.12234-.308484.21748-.555505.21748h-.20324v.44844h-.361092zm.725577-.0922c.128189-.0937.07657-.26695-.09407-.31567-.216059-.0617-.282797-.016-.282797.19345 0 .17473.005.18079.148384.18079.08161 0 .184428-.0264.228481-.0586zm.990889.73329c-.336445-.13916-.462-.74414-.228421-1.10063.208134-.31766.87275-.32342 1.078529-.009.215072.32824.187969.72926-.06654.98461-.156702.15722-.184741.16798-.430744.16533-.144722-.002-.303491-.0195-.35282-.0399zm.53559-.32595c.08446-.12058.0933-.5251.01375-.62924-.03083-.0404-.110535-.0865-.177121-.10255-.09388-.0226-.146746-.004-.235433.0852-.150172.15017-.163971.51728-.02468.65657.121874.12188.334638.11686.423479-.01zm.707674-.31514.01238-.68388.269066-.0142c.620815-.0328.886696.0992.886696.44022 0 .15739-.02389.21646-.121482.30041l-.121482.10449.10143.16752c.05579.0921.130202.21292.165369.26841.06274.099.06027.1009-.132541.1009-.19038 0-.201061-.008-.344005-.24664-.114505-.19144-.172055-.24664-.257121-.24664-.102949 0-.109597.015-.109597.24664v.24664h-.361092zm.788633-.22121c.01638-.1418-.108496-.22926-.296394-.20758-.104922.0121-.122984.0368-.135176.18472l-.01407.17074.215871-.0138c.196736-.0126.217104-.0245.22977-.13409zm.995101.36941v-.53568l-.213011-.0137c-.203745-.0131-.213011-.0195-.213011-.1482v-.13453l.61661-.0125.616611-.0125v.31644h-.448444v1.07627H97.924794zm-27.130867-.0249v-.15695h.762354v.31391h-.762354z" style="fill:#6a8eb5" transform="translate(-35.755474 -134.699398)"/>
  <path d="M104.80372 151.53622c-.62179-.079-1.24703-.29626-1.66917-.58007-.24658-.16578-.50577-.39978-.50577-.45662 0-.0457.61788-.91865.67536-.95418.0215-.0133.15159.0673.28898.17926.50133.40834 1.02871.60809 1.69208.64088.55698.0275.80719-.0389.99711-.26458.13474-.16012.14395-.32386.0288-.51264-.11146-.18279-.28051-.25526-.92443-.39629-1.23616-.27075-1.73559-.4555-2.08525-.7714-.45649-.41241-.56873-1.21125-.26033-1.85278.22479-.4676.80829-.89 1.47112-1.06494.4414-.11651 1.51704-.10293 1.99297.0252.49065.13205.95693.37254 1.26484.65237l.2593.23564-.35555.47802c-.19556.26291-.36652.47802-.37991.47802-.0134 0-.13311-.0892-.26603-.19824-.49658-.40735-.93414-.56428-1.57211-.56387-.63007.00041-.90576.13411-.96873.46978-.0678.36155.21024.52779 1.28085.76574.84984.18888 1.22729.31883 1.55443.53516.43539.28791.64295.69204.64295 1.25183 0 .84419-.43983 1.44056-1.28743 1.74566-.52985.19072-1.18328.24584-1.8741.15809zm-60.786593-3.04634v-3.00787l1.715299.0168c1.936971.0189 2.025468.0322 2.575816.38794.50541.32667.736139.76639.767071 1.46187.04203.94513-.285392 1.54273-1.03273 1.88487-.414445.18974-.785875.24468-1.659914.24554l-.795988.00078v2.018h-1.569554zm3.093348-.27698c.23233-.11872.350014-.26561.406952-.50797.08898-.37877-.0571-.75712-.361344-.93584-.136502-.0802-.248248-.0941-.863102-.10726l-.7063-.0152v1.66712h.663164c.599321 0 .682174-.01.86063-.1009zm3.095181.28027v-3.00457h1.569554v2.37675h2.287065v-2.37675H55.63183v6.01127l-.773566-.0123-.773566-.0123-.01194-1.19959-.01194-1.19959h-2.2856v2.4216h-1.569554zm6.861195.001v-3.00567h1.57019l-.01153 2.99336-.01153 2.99337-.773566.0123-.773566.0123zm3.004575-.001v-3.00457h1.523924l.0116 2.38796.0116 2.38797 1.491077.0118 1.491076.0118v1.20959h-4.529285zm5.560707 0v-3.00457h1.569554v4.79714l1.491077.0118 1.491076.0118.01251.59419.01251.59419h-4.576733zm5.964306 1.91057v-1.09401l-.968649-1.7424c-.532758-.95832-1.006987-1.80532-1.053844-1.88222-.04686-.0769-.08519-.15258-.08519-.16817 0-.0156.359054-.0283.797899-.0283h.797899l.641803 1.30049c.352992.71527.650898 1.30049.662012 1.30049.01112 0 .07002-.11604.130891-.25786.06087-.14182.347033-.72704.635907-1.30049l.525224-1.04263h.774225c.425823 0 .774224.0106.774224.0235 0 .013-.474229.87615-1.053843 1.91822l-1.053844 1.89468v2.17271h-1.52471zm6.995728-.55793c0-.90856-.01334-2.26062-.02965-3.00457l-.02965-1.35264h1.584017v2.37827l1.154743-.012 1.154744-.012.01196-1.17717.01196-1.17716h1.523221v6.00915h-1.524726v-2.4216h-2.331909v2.4216h-1.52471zm6.81635-1.35264v-3.00457h4.666422l-.01251.59419-.01251.59419-1.535921.0118-1.535921.0118v1.20818l1.22201.0119 1.222011.0119.01259.54934.01259.54934h-2.469207V150.28689h3.228798v1.2108h-4.798352zm5.246796 2.96966c0-.0204.200104-.60102.444675-1.29033.477828-1.34674.871969-2.46642 1.333075-3.78701.159322-.45629.305219-.84519.324214-.86421.019-.019.44447-.0291.945499-.0224l.910961.0122.348403.98658c.191622.54261.513466 1.4608.715209 2.04042.319296.91734.959842 2.73937 1.02118 2.90473.01676.0452-.145757.0546-.778703.0448l-.799889-.0123-.195165-.62782c-.107341-.3453-.203149-.65305-.212906-.68388-.01352-.0427-.263229-.0561-1.048388-.0561h-1.030646l-.217694.68388-.217695.68388-.771065.0123c-.424086.007-.771065-.004-.771065-.0248zm3.612488-2.86876c-.437839-1.44811-.581145-1.89467-.608018-1.89467-.01639 0-.147036.38846-.290323.86325-.143286.47479-.297997.98192-.343801 1.12696-.04581.14503-.08328.29133-.08328.32512 0 .0495.142722.0614.73559.0614h.73559zm3.248706-.1009v-3.00457H99.086062v4.79714l1.491078.0118 1.49108.0118.0125.59419.0125.59419h-4.576718z" style="fill:#2c2c2a" transform="translate(-35.755474 -134.699398)"/>
</svg>
