<svg xmlns="http://www.w3.org/2000/svg" viewBox="0 0 132.292 132.292">
  <path d="M68.766 143.302c.318 3.336.953 8.483 1.414 10.437 20.65 5.465 34.773 2.78 38.124.508 2.447-1.684 4.099-2.541.763-9.451-7.546 3.081-23.034 2.875-40.301-1.494M60.41 152.706a4.416 4.416 0 0 0-4.21 7.578l-1.032 2.033a4.639 4.639 0 0 0 1.716.953 3.685 3.685 0 0 0 1.826.207l.318-2.177a4.4 4.4 0 0 0 1.35-8.594M135.278 59.062c1.048-3.764-1.382-4.432-2.224-4.67l-25.163-7.005c-1.938-.54-1.207-4.956-3.065-5.449L85.048 36.41c-1.795-.492-3.51 3.606-5.369 3.082L54.485 32.47c-.826-.206-3.256-.92-4.32 2.844L44.46 55.742a.429.429 0 0 1-.572.318l-1.795-.508a1.382 1.382 0 0 0-1.588.921 21.048 21.048 0 0 0-1.811 4.607 30.675 30.675 0 0 0-1.033 5.56 1.24 1.24 0 0 0 .922 1.588l16.044 4.543a2.367 2.367 0 0 0 3.066-1.413c1.715-3.654 6.068-10.596 7.53-11.422 1.953-1.096 13.311.779 13.311.779a12.534 12.534 0 0 0-.762 2.414c-.445 1.795.572 6.18-.46 6.767-5.64 3.177-15.68-1.588-19.063 7.784-8.404 23.94-14.599 34.153-24.003 40.365 4.4 5.162 14.821 10.627 29.849 15.202a7.148 7.148 0 0 1-.16-1.398 46.862 46.862 0 0 0-.365-5.48c-.365-3.305-.556-4.925-.635-6.577a17.966 17.966 0 0 1 .953-5.973l.318-1.096c1.112-3.828 4.765-14.471 6.147-17.474.255-.54.556-.445.636-.413.08.032.397.096.333.683-.38 3.289-3.097 14.218-4.21 18.046l-.317 1.08a14.599 14.599 0 0 0-.62 5.417c0 1.414.414 3.177.779 6.497a50.5 50.5 0 0 1 .381 5.64 7.18 7.18 0 0 0 .397 2.128h.27c17.172 4.766 30.405 5.846 37.394 3.51-4.765-10.213-4.765-22.239.382-47.004 2.033-9.785-9.055-10.881-12.216-16.505-.572-1.032 2.605-4.241 3.177-6.004a10.087 10.087 0 0 0 .556-2.478s11.12 4.416 12.295 6.354c.826 1.461.953 9.658.524 13.661a2.367 2.367 0 0 0 1.89 2.812l16.093 4.495a1.24 1.24 0 0 0 1.588-.905 30.452 30.452 0 0 0 2.002-5.29 21.08 21.08 0 0 0 .842-4.877 1.382 1.382 0 0 0-.906-1.588l-1.795-.509a.429.429 0 0 1-.318-.572M27.639 122.127c-6.513 4.416-5.655 6.751-3.844 9.102 4.432 5.72 16.33 14.297 38.124 20.365l4.94 1.398c-.349-1.715-1.127-7.243-1.493-10.547-18.188-5.21-32.628-13.487-37.727-20.318" style="fill:#f2c612;stroke-width:1.58853" transform="translate(-12.867 -31.75)"/>
</svg>
