<?xml version="1.0" encoding="UTF-8" standalone="no"?>
<!-- Created with Inkscape (http://www.inkscape.org/) -->

<svg
   width="500"
   height="500"
   viewBox="0 0 132.29166 132.29167"
   version="1.1"
   id="svg1"
   inkscape:version="1.4 (86a8ad7, 2024-10-11)"
   sodipodi:docname="philadelphia.svg"
   xmlns:inkscape="http://www.inkscape.org/namespaces/inkscape"
   xmlns:sodipodi="http://sodipodi.sourceforge.net/DTD/sodipodi-0.dtd"
   xmlns="http://www.w3.org/2000/svg"
   xmlns:svg="http://www.w3.org/2000/svg">
  <sodipodi:namedview
     id="namedview1"
     pagecolor="#ffffff"
     bordercolor="#111111"
     borderopacity="1"
     inkscape:showpageshadow="0"
     inkscape:pageopacity="0"
     inkscape:pagecheckerboard="1"
     inkscape:deskcolor="#d1d1d1"
     inkscape:document-units="px"
     inkscape:zoom="0.78573232"
     inkscape:cx="397.08179"
     inkscape:cy="478.53447"
     inkscape:window-width="1920"
     inkscape:window-height="1115"
     inkscape:window-x="-9"
     inkscape:window-y="-9"
     inkscape:window-maximized="1"
     inkscape:current-layer="layer1" />
  <defs
     id="defs1" />
  <g
     inkscape:label="Layer 1"
     inkscape:groupmode="layer"
     id="layer1"
     transform="translate(-12.866838,-31.749996)">
    <path
       d="m 68.765905,143.30231 c 0.317726,3.33592 0.953119,8.48276 1.413793,10.43665 20.650912,5.46455 34.772962,2.77993 38.124762,0.50835 2.44634,-1.68384 4.09842,-2.54164 0.7625,-9.45176 -7.54553,3.08175 -23.033712,2.87524 -40.301055,-1.49322"
       style="fill:#f2c612;stroke-width:1.58853"
       id="path19" />
    <path
       d="m 60.410223,152.70642 a 4.4161188,4.4161188 0 0 0 -4.209605,7.5773 l -1.032551,2.03331 a 4.6385132,4.6385132 0 0 0 1.715615,0.95312 3.6853941,3.6853941 0 0 0 1.826812,0.20654 l 0.317727,-2.17629 a 4.4002334,4.4002334 0 0 0 1.350254,-8.59396"
       style="fill:#f2c612;stroke-width:1.58853"
       id="path20" />
    <path
       d="m 135.27774,59.062464 c 1.04843,-3.764825 -1.38203,-4.432007 -2.22395,-4.670285 l -25.16234,-7.005428 c -1.93801,-0.540111 -1.20729,-4.95622 -3.06588,-5.448666 L 85.048356,36.409994 c -1.79504,-0.49244 -3.510654,3.605972 -5.369239,3.081754 l -25.194114,-7.02131 c -0.82604,-0.206534 -3.256491,-0.921346 -4.320808,2.843471 l -5.702829,20.428524 a 0.42890363,0.42890363 0 0 1 -0.571872,0.317726 l -1.795039,-0.50835 a 1.3820228,1.3820228 0 0 0 -1.588536,0.921346 21.048048,21.048048 0 0 0 -1.810927,4.606745 30.674552,30.674552 0 0 0 -1.032545,5.559858 1.2390549,1.2390549 0 0 0 0.921353,1.588536 l 16.044169,4.543199 a 2.3669126,2.3669126 0 0 0 3.065867,-1.413792 c 1.715615,-3.653626 6.06819,-10.59551 7.529642,-11.421544 1.953891,-1.09609 13.311896,0.778376 13.311896,0.778376 a 12.533517,12.533517 0 0 0 -0.762496,2.41457 c -0.444768,1.795041 0.571872,6.179389 -0.460679,6.767147 -5.639289,3.177065 -15.678808,-1.588531 -19.062383,7.783804 -8.403335,23.939176 -14.59861,34.153436 -24.002717,40.364606 4.400234,5.16272 14.821006,10.62727 29.848516,15.20224 a 7.1483938,7.1483938 0 0 1 -0.158863,-1.3979 46.861692,46.861692 0 0 0 -0.365338,-5.48044 c -0.365336,-3.30414 -0.55596,-4.92445 -0.63541,-6.57653 a 17.966297,17.966297 0 0 1 0.953119,-5.97287 l 0.317727,-1.09608 c 1.11197,-3.82837 4.765595,-14.471536 6.147615,-17.473864 0.254145,-0.540106 0.555961,-0.444765 0.635411,-0.413005 0.07943,0.03179 0.397158,0.09534 0.333576,0.683067 -0.381248,3.288265 -3.097639,14.217362 -4.20961,18.045722 l -0.317727,1.0802 a 14.598608,14.598608 0 0 0 -0.619524,5.4169 c 0,1.41379 0.413008,3.17706 0.778382,6.4971 a 50.499431,50.499431 0 0 1 0.381247,5.63928 7.1801646,7.1801646 0 0 0 0.397159,2.12864 h 0.270055 c 17.172031,4.76559 30.404505,5.8458 37.394036,3.51065 -4.76559,-10.21426 -4.76559,-22.23945 0.38125,-47.00466 2.03332,-9.785354 -9.054629,-10.881439 -12.21581,-16.504841 -0.571867,-1.032551 2.60519,-4.241383 3.177066,-6.004651 a 10.087178,10.087178 0 0 0 0.555956,-2.47811 c 0,0 11.119728,4.416115 12.295238,6.354126 0.82605,1.461451 0.95312,9.658276 0.52421,13.661377 a 2.3669126,2.3669126 0 0 0 1.89034,2.811698 l 16.09183,4.495547 a 1.2390549,1.2390549 0 0 0 1.58854,-0.905466 30.452157,30.452157 0 0 0 2.00155,-5.289809 21.079819,21.079819 0 0 0 0.84192,-4.876794 1.3820228,1.3820228 0 0 0 -0.90547,-1.58853 l -1.79504,-0.50835 a 0.42890363,0.42890363 0 0 1 -0.31772,-0.571872"
       style="fill:#f2c612;stroke-width:1.58853"
       id="path21" />
    <path
       d="m 27.638809,122.12718 c -6.512976,4.41612 -5.65517,6.75126 -3.844243,9.10228 4.432001,5.71872 16.330105,14.2968 38.124767,20.36499 l 4.940334,1.3979 C 66.51018,151.27674 65.73181,145.74865 65.366442,142.44451 47.177753,137.23412 32.738,128.95786 27.638809,122.12718"
       style="fill:#f2c612;stroke-width:1.58853"
       id="path22" />
  </g>
</svg>
