<?xml version="1.0" encoding="UTF-8" standalone="no"?>
<!-- Created with Inkscape (http://www.inkscape.org/) -->

<svg
   width="300"
   height="100"
   viewBox="0 0 79.374998 26.458333"
   version="1.1"
   id="svg1"
   xml:space="preserve"
   inkscape:version="1.4 (86a8ad7, 2024-10-11)"
   sodipodi:docname="phillyheals.svg"
   xmlns:inkscape="http://www.inkscape.org/namespaces/inkscape"
   xmlns:sodipodi="http://sodipodi.sourceforge.net/DTD/sodipodi-0.dtd"
   xmlns="http://www.w3.org/2000/svg"
   xmlns:svg="http://www.w3.org/2000/svg"><sodipodi:namedview
     id="namedview1"
     pagecolor="#ffffff"
     bordercolor="#111111"
     borderopacity="1"
     inkscape:showpageshadow="0"
     inkscape:pageopacity="0"
     inkscape:pagecheckerboard="1"
     inkscape:deskcolor="#d1d1d1"
     inkscape:document-units="px"
     inkscape:zoom="3.1429293"
     inkscape:cx="171.0188"
     inkscape:cy="13.999679"
     inkscape:window-width="1920"
     inkscape:window-height="1115"
     inkscape:window-x="-9"
     inkscape:window-y="-9"
     inkscape:window-maximized="1"
     inkscape:current-layer="svg1" /><defs
     id="defs1"><filter
       style="color-interpolation-filters:sRGB;"
       inkscape:label="Drop Shadow"
       id="filter33"
       x="-8.1468837"
       y="-35.777028"
       width="18.263256"
       height="77.804344"><feFlood
         result="flood"
         in="SourceGraphic"
         flood-opacity="1.000000"
         flood-color="rgb(1,184,237)"
         id="feFlood32" /><feGaussianBlur
         result="blur"
         in="SourceGraphic"
         stdDeviation="120.123840"
         id="feGaussianBlur32" /><feOffset
         result="offset"
         in="blur"
         dx="34.307693"
         dy="42.307693"
         id="feOffset32" /><feComposite
         result="comp1"
         operator="in"
         in="offset"
         in2="flood"
         id="feComposite32" /><feComposite
         result="fbSourceGraphic"
         operator="over"
         in="SourceGraphic"
         in2="comp1"
         id="feComposite33" /><feColorMatrix
         result="fbSourceGraphicAlpha"
         in="fbSourceGraphic"
         values="0 0 0 -1 0 0 0 0 -1 0 0 0 0 -1 0 0 0 0 1 0"
         id="feColorMatrix33" /><feFlood
         id="feFlood33"
         result="flood"
         in="fbSourceGraphic"
         flood-opacity="1.000000"
         flood-color="rgb(1,184,237)" /><feGaussianBlur
         id="feGaussianBlur33"
         result="blur"
         in="fbSourceGraphic"
         stdDeviation="120.123840" /><feOffset
         id="feOffset33"
         result="offset"
         in="blur"
         dx="34.307693"
         dy="42.307693" /><feComposite
         id="feComposite34"
         result="comp1"
         operator="in"
         in="offset"
         in2="flood" /><feComposite
         id="feComposite35"
         result="comp2"
         operator="over"
         in="fbSourceGraphic"
         in2="comp1" /></filter></defs><rect
     style="fill:#ffffff;fill-rule:evenodd;stroke-width:0.264583"
     id="rect35"
     width="79.375"
     height="26.458332"
     x="9.6433487"
     y="1.6072249"
     transform="translate(-9.643349,-1.6072249)" /><g
     inkscape:label="Layer 1"
     inkscape:groupmode="layer"
     id="layer1"
     transform="translate(-9.643349,-1.6072249)"><g
       id="g35"
       transform="translate(1.3199541,-23.839625)"
       inkscape:transform-center-x="35.654626"
       inkscape:transform-center-y="0.12086474"><path
         style="fill:#bdcddc;filter:url(#filter33)"
         d="m 14.96558,46.727956 c -0.08633,-0.01987 -0.227586,-0.04669 -0.313911,-0.05961 -0.08633,-0.01292 -0.202361,-0.03495 -0.257856,-0.04896 -0.0555,-0.01401 -0.136214,-0.03412 -0.179377,-0.04469 -0.04316,-0.01058 -0.184324,-0.07112 -0.313691,-0.134534 -0.129367,-0.06342 -0.255492,-0.115303 -0.280278,-0.115303 -0.02478,0 -0.04506,-0.02018 -0.04506,-0.04484 0,-0.02466 -0.03027,-0.04485 -0.06727,-0.04485 -0.037,0 -0.06727,-0.01882 -0.06727,-0.04182 0,-0.023 -0.04036,-0.05463 -0.08969,-0.07029 -0.04933,-0.01566 -0.08969,-0.04573 -0.08969,-0.06684 0,-0.04863 -0.282049,-0.337022 -0.319135,-0.326313 -0.01521,0.0044 -0.0652,-0.06175 -0.111097,-0.146976 -0.0459,-0.08523 -0.09904,-0.15496 -0.118098,-0.15496 -0.01906,0 -0.03465,-0.03027 -0.03465,-0.06727 0,-0.037 -0.01653,-0.06727 -0.03674,-0.06727 -0.05594,0 -0.330361,-0.652026 -0.344293,-0.818041 -0.0067,-0.08036 -0.02727,-0.216744 -0.04561,-0.303069 -0.01834,-0.08633 -0.03097,-0.202361 -0.02808,-0.257856 0.0029,-0.0555 -0.01403,-0.1009 -0.03761,-0.1009 -0.04445,0 -0.03404,-9.896346 0.01079,-10.254593 0.01287,-0.102863 0.03401,-0.204189 0.04698,-0.225169 0.01297,-0.02098 0.03567,-0.119248 0.05046,-0.218372 0.04432,-0.297175 0.05844,-0.353164 0.135602,-0.537841 0.04066,-0.09731 0.07076,-0.182837 0.06689,-0.190061 -0.01641,-0.03062 0.10584,-0.278354 0.13736,-0.278354 0.019,0 0.0472,-0.05045 0.06268,-0.112111 0.01548,-0.06166 0.04793,-0.112111 0.07213,-0.112111 0.02419,0 0.04399,-0.02524 0.04399,-0.05609 0,-0.07453 0.621895,-0.66142 0.700876,-0.66142 0.0176,0 0.06633,-0.03107 0.108287,-0.06904 0.06386,-0.05779 0.446118,-0.223683 0.603436,-0.26188 0.02466,-0.006 0.0852,-0.024 0.134533,-0.04002 0.112336,-0.03649 0.300299,-0.07478 0.560556,-0.114201 0.263836,-0.03996 64.984778,-0.03996 65.248614,0 0.260257,0.03942 0.44822,0.07771 0.560556,0.114201 0.04933,0.01602 0.109868,0.03403 0.134533,0.04002 0.157318,0.0382 0.53958,0.204092 0.603436,0.26188 0.04196,0.03797 0.09069,0.06904 0.108287,0.06904 0.07898,0 0.700876,0.586885 0.700876,0.66142 0,0.03085 0.0198,0.05609 0.04399,0.05609 0.02419,0 0.05665,0.05045 0.07213,0.112111 0.01548,0.06166 0.04368,0.112111 0.06268,0.112111 0.03203,0 0.147766,0.235833 0.141704,0.288751 -0.0015,0.01294 0.02862,0.09847 0.06688,0.190061 0.07283,0.174307 0.0872,0.232056 0.131258,0.527444 0.01479,0.09912 0.03749,0.197391 0.05046,0.218372 0.01297,0.02098 0.03411,0.122306 0.04698,0.225169 0.04483,0.358247 0.05523,10.254593 0.01079,10.254593 -0.02358,0 -0.04051,0.04541 -0.03761,0.1009 0.0029,0.05549 -0.0097,0.17153 -0.02808,0.257856 -0.01834,0.08633 -0.03886,0.222706 -0.04561,0.303069 -0.01393,0.166015 -0.288354,0.818041 -0.344293,0.818041 -0.02021,0 -0.03674,0.03027 -0.03674,0.06727 0,0.037 -0.01559,0.06727 -0.03465,0.06727 -0.01906,0 -0.0722,0.06973 -0.118098,0.15496 -0.0459,0.08523 -0.09589,0.151367 -0.111097,0.146976 -0.03709,-0.01071 -0.319135,0.277684 -0.319135,0.326313 0,0.0211 -0.04036,0.05118 -0.08969,0.06684 -0.04933,0.01566 -0.08969,0.04729 -0.08969,0.07029 0,0.023 -0.03027,0.04182 -0.06727,0.04182 -0.037,0 -0.06727,0.02018 -0.06727,0.04485 0,0.02466 -0.02028,0.04484 -0.04507,0.04484 -0.02478,0 -0.15091,0.05189 -0.280277,0.115303 -0.129367,0.06342 -0.270528,0.123957 -0.313691,0.134534 -0.04316,0.01058 -0.123883,0.03051 -0.179378,0.0443 -0.05549,0.01379 -0.16144,0.03469 -0.235433,0.04645 -0.07399,0.01176 -0.230925,0.04074 -0.348738,0.0644 -0.263841,0.05299 -64.916163,0.05112 -65.146521,-0.0019 z"
         id="path8"
         sodipodi:nodetypes="cssssssssssssssssssssssssssssssssssssssssssssssssscssssssssssssssssscc" /><path
         style="fill:#6a8eb5"
         d="m 23.8421,33.435979 c -0.192733,-0.101747 -0.196578,-0.114332 -0.08091,-0.264858 0.08466,-0.110179 0.08593,-0.110349 0.181137,-0.02419 0.06812,0.06165 0.163243,0.08728 0.328554,0.08853 0.202372,0.0015 0.232677,-0.0098 0.232677,-0.08678 0,-0.07124 -0.05682,-0.103398 -0.290693,-0.16455 -0.288252,-0.07537 -0.494084,-0.231305 -0.494084,-0.374311 0,-0.369509 0.518957,-0.592976 0.954384,-0.410965 0.220374,0.09212 0.264471,0.166789 0.168455,0.285254 l -0.08018,0.09893 -0.172055,-0.08772 c -0.253931,-0.12946 -0.467005,-0.107379 -0.467005,0.0484 0,0.0624 0.05814,0.09469 0.246439,0.136826 0.320829,0.0718 0.514488,0.190945 0.52108,0.320589 0.01089,0.214057 -0.01412,0.284853 -0.142772,0.404258 -0.118254,0.109754 -0.1661,0.123105 -0.434866,0.121341 -0.211387,-0.0014 -0.352446,-0.02862 -0.470158,-0.09076 z m 1.480944,0.0049 C 25.15451,33.308075 25.10107,33.08616 25.117421,32.587009 l 0.01396,-0.426022 0.168167,-0.01392 0.168166,-0.01392 v 0.463595 c 0,0.549318 0.05516,0.676574 0.283563,0.654238 0.202244,-0.01978 0.253125,-0.15562 0.253909,-0.677893 l 6.61e-4,-0.43994 0.168167,0.01392 0.168166,0.01392 0.01395,0.358755 c 0.01872,0.48144 -0.02135,0.71746 -0.146518,0.862979 -0.09258,0.107631 -0.141737,0.12324 -0.434359,0.137924 -0.28473,0.01429 -0.346723,0.0034 -0.452208,-0.07977 z m 1.320663,-0.596013 0.01238,-0.683877 0.291489,-0.01413 c 0.610107,-0.02957 0.852044,0.07539 0.852044,0.369627 0,0.109803 -0.03146,0.178446 -0.110146,0.240342 l -0.110146,0.08664 0.108909,0.04962 c 0.121711,0.05546 0.180223,0.220027 0.138017,0.388189 -0.04617,0.183942 -0.236901,0.24746 -0.743086,0.24746 h -0.451839 z m 0.819579,0.280278 c 0,-0.103628 -0.01782,-0.113137 -0.235433,-0.125666 l -0.235434,-0.01356 v 0.13922 0.13922 l 0.235434,-0.01356 c 0.217617,-0.01253 0.235433,-0.02204 0.235433,-0.125665 z m -0.09336,-0.43082 c 0.08392,-0.0322 0.09309,-0.156906 0.01712,-0.232877 -0.0296,-0.0296 -0.130497,-0.05381 -0.224222,-0.05381 -0.164856,0 -0.170409,0.0051 -0.170409,0.156955 0,0.148766 0.008,0.156956 0.153288,0.156956 0.08431,0 0.185208,-0.01225 0.224222,-0.02722 z m 0.777234,0.741677 c -0.189244,-0.09991 -0.195855,-0.116835 -0.0994,-0.254538 l 0.06876,-0.09817 0.174749,0.09108 c 0.227791,0.118731 0.517352,0.104365 0.517352,-0.02567 0,-0.07042 -0.05507,-0.103099 -0.269067,-0.159664 -0.358739,-0.09482 -0.464086,-0.15761 -0.499201,-0.297519 -0.10648,-0.42425 0.490161,-0.708104 0.971854,-0.462363 0.19288,0.0984 0.214737,0.152781 0.108562,0.270102 -0.0649,0.07171 -0.07888,0.07126 -0.233704,-0.0077 -0.248344,-0.126613 -0.459622,-0.101551 -0.459622,0.05452 0,0.05505 0.04254,0.09362 0.123323,0.11181 0.535721,0.120652 0.639032,0.193119 0.639032,0.448251 0,0.117498 -0.03506,0.19547 -0.131083,0.291489 -0.11983,0.11983 -0.157367,0.130914 -0.437233,0.129102 -0.215546,-0.0014 -0.355918,-0.02826 -0.474316,-0.09076 z m 1.62561,-0.44539 V 32.452476 H 29.548551 29.324329 V 32.29552 32.138565 h 0.627821 0.627822 v 0.156955 0.156956 H 30.35575 30.131528 v 0.538133 0.538133 H 29.95215 29.772773 Z m 0.720455,0.504499 c 0.0016,-0.0185 0.107746,-0.326243 0.235837,-0.683877 l 0.232894,-0.650244 h 0.217477 0.217476 l 0.238752,0.683877 0.238751,0.683877 h -0.196745 c -0.189347,0 -0.197853,-0.0059 -0.226191,-0.156955 -0.02926,-0.15598 -0.03092,-0.156955 -0.26762,-0.156955 -0.232438,0 -0.239424,0.0038 -0.289976,0.156955 -0.04749,0.143897 -0.06643,0.156955 -0.2277,0.156955 -0.09674,0 -0.174575,-0.01514 -0.172955,-0.03363 z m 0.816765,-0.538133 c 0.0098,-0.0185 -0.01686,-0.144623 -0.05922,-0.280277 l -0.07703,-0.246645 -0.07266,0.243573 c -0.03996,0.133965 -0.07266,0.26009 -0.07266,0.280277 0,0.04601 0.257364,0.04881 0.281577,0.0031 z m 0.749848,-0.123324 v -0.695088 h 0.193015 0.193016 l 0.244217,0.430916 0.244218,0.430916 0.02242,-0.419705 0.02242,-0.419705 h 0.156955 0.156956 l 0.01238,0.683877 0.01238,0.683878 -0.214179,-2.84e-4 c -0.238362,-3.16e-4 -0.200151,0.04128 -0.555876,-0.605116 l -0.172752,-0.313911 -6.31e-4,0.459655 -6.31e-4,0.459656 h -0.156955 -0.156955 z m 1.861043,0.652306 c -0.336445,-0.139163 -0.462001,-0.744148 -0.228421,-1.100635 0.200164,-0.30549 0.896265,-0.324821 1.054432,-0.02928 0.07428,0.138792 0.06016,0.173266 -0.09277,0.226579 -0.17709,0.06173 -0.172685,0.06215 -0.172685,-0.01646 0,-0.07257 -0.133244,-0.158533 -0.245735,-0.158533 -0.03974,0 -0.121786,0.04953 -0.182326,0.110073 -0.145917,0.145917 -0.157458,0.515208 -0.02038,0.652282 0.124063,0.124063 0.330764,0.116184 0.433492,-0.01652 0.07117,-0.09193 0.10181,-0.100805 0.227963,-0.06598 0.184095,0.05081 0.18297,0.0991 -0.0067,0.288793 -0.139661,0.13966 -0.174513,0.152232 -0.414811,0.149628 -0.144287,-0.0016 -0.3027,-0.01954 -0.352028,-0.03994 z m 1.143532,-0.653729 v -0.696511 l 0.526922,0.01263 0.526922,0.01263 v 0.134533 0.134533 l -0.347545,0.0131 -0.347544,0.0131 v 0.132647 0.132647 h 0.294468 0.294467 l -0.01419,0.123322 c -0.0136,0.118188 -0.02586,0.123878 -0.294467,0.136673 -0.277502,0.01322 -0.280278,0.01466 -0.280278,0.145744 v 0.132394 h 0.358755 0.358756 v 0.134534 0.134534 h -0.538133 -0.538133 z m 2.157468,0.633931 C 37.03332,33.36163 36.996015,33.230378 36.994312,32.665467 l -0.0016,-0.526922 h 0.179377 0.179378 v 0.473814 c 0,0.541959 0.03622,0.647296 0.222596,0.647296 0.233482,0 0.270692,-0.08674 0.270692,-0.631025 v -0.490085 h 0.179378 0.179378 v 0.542617 0.542618 l -0.152471,0.152471 c -0.141893,0.141893 -0.172227,0.15236 -0.437233,0.150882 -0.15662,-8.74e-4 -0.332991,-0.02832 -0.391937,-0.06099 z m 1.329185,-0.03016 c -0.192733,-0.101747 -0.196578,-0.114333 -0.08091,-0.264859 0.08466,-0.110178 0.08593,-0.110348 0.181137,-0.02419 0.06812,0.06165 0.163243,0.08728 0.328554,0.08853 0.202372,0.0015 0.232677,-0.0098 0.232677,-0.08678 0,-0.07124 -0.05682,-0.103397 -0.290693,-0.164549 -0.288252,-0.07537 -0.494084,-0.231305 -0.494084,-0.374312 0,-0.369509 0.518958,-0.592976 0.954384,-0.410965 0.220374,0.09212 0.264471,0.166789 0.168455,0.285254 l -0.08018,0.09893 -0.172055,-0.08772 c -0.253929,-0.12946 -0.467003,-0.107378 -0.467003,0.0484 0,0.0624 0.05814,0.09469 0.246439,0.136825 0.320829,0.0718 0.514488,0.190945 0.52108,0.320589 0.01089,0.214057 -0.01412,0.284853 -0.142772,0.404259 -0.118254,0.109753 -0.1661,0.123104 -0.434865,0.12134 -0.211388,-0.0014 -0.352447,-0.02862 -0.470159,-0.09076 z m 1.311699,-0.603769 v -0.696511 l 0.526921,0.01263 0.526922,0.01263 v 0.134533 0.134533 l -0.347544,0.0131 -0.347544,0.0131 v 0.132647 0.132647 h 0.294467 0.294468 l -0.01419,0.123322 c -0.0136,0.118188 -0.02586,0.123878 -0.294468,0.136673 -0.277501,0.01322 -0.280277,0.01466 -0.280277,0.145744 v 0.132394 h 0.358755 0.358755 v 0.134533 0.134533 h -0.538132 -0.538133 z m 2.386796,0.01263 0.01238,-0.683877 0.269066,-0.0142 c 0.620815,-0.03276 0.886696,0.09924 0.886696,0.44022 0,0.157389 -0.02389,0.216456 -0.121482,0.300404 l -0.121482,0.104495 0.10143,0.167517 c 0.05579,0.09213 0.130202,0.212922 0.165369,0.268417 0.06274,0.09901 0.06026,0.100899 -0.132541,0.100899 -0.19038,0 -0.201061,-0.0077 -0.344005,-0.246644 -0.114505,-0.191439 -0.172055,-0.246644 -0.257121,-0.246644 -0.102949,0 -0.109597,0.01496 -0.109597,0.246644 v 0.246645 h -0.180546 -0.180546 z m 0.788633,-0.221224 c 0.01638,-0.141805 -0.108496,-0.229264 -0.296394,-0.20758 -0.104922,0.01211 -0.122984,0.03679 -0.135176,0.184716 l -0.01407,0.17074 0.215871,-0.01378 c 0.196736,-0.01256 0.217103,-0.02445 0.22977,-0.134091 z m 0.68119,0.208572 v -0.696511 l 0.526922,0.01263 0.526921,0.01263 v 0.134533 0.134533 l -0.347544,0.0131 -0.347544,0.0131 v 0.132647 0.132647 h 0.294467 0.294468 l -0.01419,0.123322 c -0.0136,0.118188 -0.02586,0.123878 -0.294467,0.136673 -0.277502,0.01322 -0.280278,0.01466 -0.280278,0.145744 v 0.132394 h 0.358755 0.358756 v 0.134534 0.134534 h -0.538133 -0.538133 z m 1.300488,0.479266 c 0,-0.119486 0.01322,-0.433307 0.02938,-0.697381 l 0.02938,-0.480135 0.161212,0.0135 0.161211,0.0135 0.01259,0.549344 0.01259,0.549344 h 0.334953 0.334952 v 0.134533 0.134534 h -0.538132 -0.538133 z m 1.165954,0.190448 c 0,-0.03381 0.347838,-1.022118 0.428548,-1.217635 0.05512,-0.133528 0.07686,-0.145744 0.259374,-0.145744 h 0.19921 l 0.169037,0.482077 c 0.09297,0.265143 0.204216,0.577933 0.247214,0.695089 l 0.07818,0.213011 h -0.191004 c -0.177022,0 -0.194064,-0.01067 -0.232803,-0.145745 -0.04052,-0.141271 -0.04923,-0.145744 -0.283914,-0.145744 -0.235513,0 -0.243145,0.004 -0.279882,0.145744 -0.03462,0.133625 -0.05258,0.145745 -0.215861,0.145745 -0.09795,0 -0.178096,-0.01206 -0.178096,-0.0268 z m 0.8072,-0.58461 c 0,-0.106183 -0.09888,-0.420014 -0.132331,-0.420014 -0.02745,0 -0.136736,0.358939 -0.136736,0.449088 0,0.02431 0.06054,0.0442 0.134533,0.0442 0.09459,0 0.134534,-0.02175 0.134534,-0.07328 z m 0.941732,0.07328 v -0.538138 h -0.224222 -0.224222 v -0.158221 -0.158221 l 0.616611,0.01248 0.61661,0.01248 v 0.134533 c 0,0.128681 -0.0093,0.135128 -0.213011,0.148202 l -0.213011,0.01367 v 0.535675 0.535676 h -0.179377 -0.179378 z m 1.008448,-0.107957 c -0.01776,-0.35535 -0.01867,-0.66814 -0.002,-0.695089 0.01904,-0.03081 0.22068,-0.049 0.543347,-0.049 h 0.513064 v 0.156956 0.156955 h -0.336333 -0.336333 v 0.134533 0.134534 h 0.269066 0.269067 v 0.134532 0.134534 h -0.269083 -0.269066 v 0.134533 0.134533 h 0.358755 0.358755 v 0.134533 0.134534 h -0.53347 -0.533471 z m 1.333505,-0.03779 0.01238,-0.683878 0.403599,10e-4 c 0.463686,0.0012 0.647911,0.07803 0.761631,0.317679 0.09097,0.191716 0.08595,0.541951 -0.01056,0.735126 -0.117117,0.234441 -0.315731,0.313758 -0.785876,0.313841 l -0.393557,7e-5 z m 0.798312,0.291488 c 0.07845,-0.09937 0.09336,-0.165345 0.07678,-0.339681 -0.02516,-0.264615 -0.107346,-0.354036 -0.331938,-0.361161 l -0.172022,-0.0055 -0.01289,0.414811 -0.01289,0.414811 h 0.177806 c 0.140472,0 0.198246,-0.02589 0.27516,-0.123323 z m 1.562694,0.316883 c -0.187645,-0.116456 -0.272331,-0.302989 -0.272331,-0.59985 0,-0.48692 0.260541,-0.734601 0.739845,-0.703329 0.218507,0.01426 0.282033,0.03899 0.397977,0.154932 0.154449,0.154449 0.142377,0.216777 -0.05018,0.259069 -0.09869,0.02168 -0.153989,0.0059 -0.223708,-0.06382 -0.122779,-0.122778 -0.251728,-0.116947 -0.386137,0.01746 -0.08644,0.08644 -0.110073,0.156514 -0.110073,0.326355 0,0.292646 0.09098,0.415616 0.307485,0.415616 0.17188,0 0.275492,-0.0624 0.275492,-0.165924 0,-0.03694 -0.0586,-0.0583 -0.159934,-0.0583 -0.148017,0 -0.158877,-0.0092 -0.145744,-0.123322 0.01374,-0.119415 0.02378,-0.123742 0.316889,-0.136582 l 0.3027,-0.01326 v 0.383226 c 0,0.378879 -0.0013,0.383226 -0.112111,0.383226 -0.07331,0 -0.112111,-0.02507 -0.112111,-0.07242 0,-0.06667 -0.0088,-0.06667 -0.110533,0 -0.142817,0.09358 -0.504513,0.09188 -0.657526,-0.0031 z m 1.306192,-0.619583 v -0.695088 h 0.330727 c 0.418693,0 0.581178,0.03281 0.697046,0.140759 0.209333,0.195023 0.154612,0.593697 -0.09281,0.676171 -0.03311,0.01104 0.01873,0.123678 0.137167,0.29809 l 0.190383,0.280351 -0.214817,-0.01381 c -0.207579,-0.01334 -0.219335,-0.02174 -0.34892,-0.249242 -0.100655,-0.176712 -0.159783,-0.235433 -0.237062,-0.235433 -0.0949,0 -0.102959,0.0193 -0.102959,0.246644 v 0.246645 h -0.179377 -0.179378 z m 0.753386,-0.12108 c 0.142187,-0.142186 -0.01016,-0.304942 -0.285439,-0.304942 -0.09749,0 -0.109192,0.01922 -0.109192,0.179378 0,0.177804 0.0015,0.179378 0.170409,0.179378 0.09372,0 0.194625,-0.02422 0.224222,-0.05381 z m 0.681635,0.12108 v -0.695088 h 0.179378 0.179377 v 0.695088 0.695089 H 55.558308 55.37893 Z m 0.682709,0.01121 0.01238,-0.683877 0.526922,-0.01263 0.526922,-0.01263 v 0.158378 0.158379 h -0.358756 -0.358756 v 0.134533 0.134533 h 0.291489 0.291489 v 0.134533 0.134534 H 56.70184 56.410351 v 0.134533 0.134533 h 0.381178 0.381177 v 0.134533 0.134534 H 56.610983 56.04926 Z m 1.335289,-0.01121 v -0.695088 h 0.538133 0.538133 v 0.156955 0.156956 h -0.358755 -0.358755 v 0.134533 0.134533 h 0.291488 0.291489 v 0.134533 0.134534 h -0.291489 -0.291488 v 0.269066 0.269067 h -0.179378 -0.179378 z m 1.961943,0.602346 c -0.189247,-0.09991 -0.195857,-0.116833 -0.09941,-0.254536 l 0.06876,-0.09817 0.174749,0.09108 c 0.227791,0.118731 0.517352,0.104365 0.517352,-0.02567 0,-0.07042 -0.05507,-0.103099 -0.269066,-0.159664 -0.35874,-0.09482 -0.464086,-0.15761 -0.499201,-0.297519 -0.10648,-0.42425 0.490161,-0.708104 0.971854,-0.462363 0.192879,0.0984 0.214736,0.152781 0.108562,0.270102 -0.0649,0.07171 -0.07888,0.07126 -0.233704,-0.0077 -0.248345,-0.126613 -0.459622,-0.101551 -0.459622,0.05452 0,0.05505 0.04254,0.09362 0.123322,0.11181 0.535722,0.120652 0.639033,0.193119 0.639033,0.448251 0,0.117498 -0.03506,0.19547 -0.131084,0.291489 -0.11983,0.11983 -0.157367,0.130914 -0.437233,0.129102 -0.215546,-0.0014 -0.355917,-0.02826 -0.474316,-0.09076 z m 1.435729,-0.038 -0.146452,-0.130745 -0.01487,-0.564343 -0.01487,-0.564343 h 0.183035 0.183035 v 0.490085 c 0,0.38574 0.015,0.50509 0.07047,0.560556 0.08557,0.08557 0.303877,0.09248 0.370879,0.01175 0.0268,-0.0323 0.0545,-0.2795 0.06155,-0.549345 l 0.01282,-0.490626 0.168166,-0.01392 0.168167,-0.01392 v 0.516308 c 0,0.304785 -0.02195,0.56448 -0.05357,0.633892 -0.07604,0.166898 -0.258789,0.245391 -0.571312,0.245391 -0.235525,0 -0.289563,-0.01694 -0.417038,-0.130745 z m 1.355836,-0.564343 V 32.13855 l 0.325122,2.5e-4 c 0.178817,1.38e-4 0.399879,0.02101 0.491248,0.04639 0.294756,0.08186 0.425847,0.36474 0.298526,0.644178 -0.06718,0.147439 -0.293957,0.250916 -0.549907,0.250916 h -0.206234 v 0.224222 0.224222 h -0.179378 -0.179377 z m 0.736729,-0.09289 c 0.14555,-0.145549 0.0612,-0.286033 -0.192133,-0.320012 l -0.185841,-0.02493 v 0.207704 c 0,0.206656 7.76e-4,0.207704 0.153752,0.207704 0.08456,0 0.185464,-0.03171 0.224222,-0.07047 z m 0.663491,0.104103 0.01238,-0.683877 0.269066,-0.0142 c 0.607073,-0.03203 0.874466,0.102823 0.874466,0.441027 0,0.101457 -0.0218,0.225209 -0.04845,0.275004 -0.06547,0.122341 -0.308484,0.217478 -0.555505,0.217478 h -0.20324 v 0.224222 0.224222 h -0.180546 -0.180546 z m 0.725577,-0.0922 c 0.128189,-0.09373 0.07657,-0.266944 -0.09407,-0.315666 -0.216059,-0.06169 -0.282797,-0.01604 -0.282797,0.193449 0,0.174726 0.005,0.180785 0.148384,0.180785 0.08161,0 0.184428,-0.02636 0.228481,-0.05857 z m 0.990889,0.733296 c -0.336445,-0.139163 -0.462,-0.744148 -0.228421,-1.100635 0.208134,-0.317653 0.87275,-0.323422 1.078529,-0.0094 0.215072,0.32824 0.187969,0.729258 -0.06654,0.984614 -0.156702,0.157219 -0.184741,0.167981 -0.430744,0.165324 -0.144722,-0.0016 -0.303491,-0.01954 -0.35282,-0.03994 z m 0.53559,-0.325951 c 0.08446,-0.120578 0.0933,-0.525107 0.01375,-0.62924 -0.03083,-0.04036 -0.110535,-0.08651 -0.177121,-0.102555 -0.09388,-0.02262 -0.146746,-0.0035 -0.235433,0.0852 -0.150172,0.150173 -0.163971,0.517285 -0.02468,0.656578 0.121874,0.121873 0.334638,0.11686 0.423479,-0.01 z m 0.707674,-0.315143 0.01238,-0.683878 0.269066,-0.0142 c 0.620815,-0.03276 0.886696,0.09924 0.886696,0.440221 0,0.157388 -0.02389,0.216456 -0.121482,0.300404 l -0.121482,0.104495 0.10143,0.167516 c 0.05579,0.09213 0.130202,0.212922 0.165369,0.268417 0.06274,0.09901 0.06027,0.1009 -0.132541,0.1009 -0.19038,0 -0.201061,-0.0077 -0.344005,-0.246644 -0.114505,-0.19144 -0.172055,-0.246644 -0.257121,-0.246644 -0.102949,0 -0.109597,0.01496 -0.109597,0.246644 v 0.246644 h -0.180546 -0.180546 z m 0.788633,-0.221206 c 0.01638,-0.141805 -0.108496,-0.229265 -0.296394,-0.207581 -0.104922,0.01211 -0.122984,0.03679 -0.135176,0.184716 l -0.01407,0.170741 0.215871,-0.01379 c 0.196736,-0.01256 0.217104,-0.02445 0.22977,-0.134091 z m 0.995101,0.369407 v -0.535676 l -0.213011,-0.01367 c -0.203745,-0.01307 -0.213011,-0.01952 -0.213011,-0.148202 v -0.134533 l 0.61661,-0.01248 0.616611,-0.01248 v 0.158222 0.158221 h -0.224222 -0.224222 v 0.538133 0.538133 H 68.473497 68.29412 Z m -27.130867,-0.02488 v -0.156955 h 0.381177 0.381177 v 0.156955 0.156956 H 41.54443 41.163253 Z"
         id="path7"
         sodipodi:nodetypes="ssscssssscssssscsssscccssscccsssssccssscssscccscccsccssssssscscsssssscscssscccccccccccccccccccsscccccssssssscccssccccccccccccccssccccccssssssssscccssccccccccccccssscccccccccccccssscccccsscccsscssssscssssscccccccccccccccsssccccccccccssscssscssccccssscsssccccccccccccsssccccccccsscccccccccccsssscsscssscsssssssssccccccccssccccccscscccccccccccccccccccccscccssscccsccccscccsssssssssssscssssccccsssscssssccccssssssccccccccccccccccccccccccccccccccccccccccccccccccccccccccscsssssscscsssccccccccsssscccsssscccscssccccccsscssssccssssccccccsssssscscsccccsscsccccssscssscssccccssscsssccssccccccccccccccccccccc" /><path
         style="fill:#2c2c2a"
         d="m 75.31227,41.145896 c -0.621803,-0.07898 -1.24704,-0.296264 -1.669179,-0.580072 -0.24658,-0.165777 -0.505775,-0.39978 -0.505775,-0.456617 0,-0.04569 0.617878,-0.918651 0.675364,-0.954179 0.02154,-0.01332 0.151585,0.06735 0.288979,0.17926 0.501332,0.408341 1.028717,0.608087 1.692087,0.640875 0.556983,0.02753 0.807186,-0.03886 0.997114,-0.264576 0.134736,-0.160125 0.143942,-0.323856 0.02882,-0.512637 -0.111468,-0.182795 -0.280514,-0.255263 -0.924437,-0.396295 -1.236164,-0.270746 -1.735595,-0.4555 -2.085256,-0.771397 -0.456493,-0.412414 -0.568734,-1.211248 -0.260328,-1.852786 0.224786,-0.467594 0.808293,-0.889993 1.471118,-1.064937 0.441407,-0.116504 1.517052,-0.102926 1.992974,0.02516 0.49065,0.132047 0.956934,0.372542 1.264849,0.652368 l 0.259297,0.235643 -0.355553,0.478019 c -0.195554,0.26291 -0.366515,0.478018 -0.379913,0.478018 -0.0134,0 -0.133109,-0.08921 -0.266026,-0.198239 -0.49658,-0.407343 -0.93414,-0.564282 -1.572106,-0.563866 -0.630071,4.12e-4 -0.905774,0.134108 -0.968745,0.469775 -0.06783,0.361549 0.210251,0.527793 1.280866,0.765745 0.849839,0.188882 1.227289,0.318831 1.554428,0.535159 0.435384,0.287909 0.642948,0.692038 0.642948,1.251826 0,0.844193 -0.439826,1.440565 -1.287433,1.745663 -0.529851,0.190721 -1.183279,0.245842 -1.874097,0.158092 z M 14.525673,38.099557 v -3.00787 l 1.715299,0.01675 c 1.936971,0.01891 2.025468,0.03224 2.575816,0.387944 0.50541,0.326662 0.736139,0.766381 0.767071,1.461866 0.04203,0.945132 -0.285392,1.542728 -1.03273,1.884871 -0.414445,0.189739 -0.785875,0.244682 -1.659914,0.245537 l -0.795988,7.78e-4 v 1.008999 1.009 H 15.31045 14.525673 Z m 3.093348,-0.276983 c 0.23233,-0.118715 0.350014,-0.265611 0.406952,-0.507971 0.08898,-0.378764 -0.0571,-0.757112 -0.361344,-0.935837 -0.136502,-0.08019 -0.248248,-0.09408 -0.863102,-0.107264 l -0.7063,-0.01515 v 0.833561 0.833562 h 0.663164 c 0.599321,0 0.682174,-0.0097 0.86063,-0.1009 z m 3.095181,0.280277 v -3.004575 h 0.784777 0.784777 v 1.188377 1.188377 h 1.143533 1.143532 v -1.188377 -1.188377 h 0.784777 0.784778 v 3.005634 3.005635 l -0.773566,-0.01227 -0.773566,-0.01227 -0.01194,-1.199588 -0.01194,-1.199587 h -1.1428 -1.1428 v 1.210799 1.210799 H 21.498987 20.71421 Z m 6.861195,0.0011 v -3.005675 h 0.785095 0.785095 l -0.01153,2.993364 -0.01153,2.993364 -0.773566,0.01227 -0.773566,0.01227 z m 3.004575,-0.0011 v -3.004575 h 0.761962 0.761962 l 0.0116,2.387965 0.0116,2.387964 1.491077,0.01182 1.491076,0.01182 v 0.604795 0.604795 h -2.264642 -2.264643 z m 5.560707,0 v -3.004575 h 0.784777 0.784777 v 2.398571 2.398572 l 1.491077,0.01182 1.491076,0.01182 0.01251,0.594188 0.01251,0.594189 h -2.288367 -2.288366 z m 5.964306,1.910568 V 38.919411 L 41.136336,37.17701 c -0.532758,-0.958321 -1.006987,-1.805323 -1.053844,-1.882227 -0.04686,-0.07691 -0.08519,-0.15258 -0.08519,-0.168167 0,-0.01559 0.359054,-0.02834 0.797899,-0.02834 H 41.5931 l 0.641803,1.300488 c 0.352992,0.715268 0.650898,1.300488 0.662012,1.300488 0.01112,0 0.07002,-0.116035 0.130891,-0.257856 0.06087,-0.14182 0.347033,-0.72704 0.635907,-1.300488 l 0.525224,-1.042632 h 0.774225 c 0.425823,0 0.774224,0.0106 0.774224,0.02354 0,0.01295 -0.474229,0.876151 -1.053843,1.918225 l -1.053844,1.894679 v 1.086351 1.086351 h -0.762355 -0.762355 z m 6.995728,-0.557931 c 0,-0.908566 -0.01334,-2.260625 -0.02965,-3.004575 l -0.02965,-1.352637 h 0.792008 0.792009 v 1.189134 1.189134 l 1.154743,-0.01197 1.154744,-0.01197 0.01196,-1.177165 0.01196,-1.177166 h 0.761611 0.76161 v 3.004575 3.004576 h -0.762371 -0.762355 v -1.210796 -1.210799 h -1.165955 -1.165954 v 1.210799 1.210799 h -0.762355 -0.762355 z m 6.81635,-1.352637 v -3.004575 h 2.333211 2.333211 l -0.01251,0.594188 -0.01251,0.594189 -1.535921,0.0118 -1.535921,0.0118 v 0.60409 0.60409 l 1.22201,0.01193 1.222011,0.01193 0.01259,0.549344 0.01259,0.549344 h -1.234605 -1.234602 v 0.627822 0.627822 h 1.614399 1.614399 v 0.605399 0.6054 h -2.399176 -2.399176 z m 5.246796,2.96966 c 0,-0.02037 0.200104,-0.60102 0.444675,-1.290336 0.477828,-1.346739 0.871969,-2.466418 1.333075,-3.787011 0.159322,-0.456292 0.305219,-0.845186 0.324214,-0.864209 0.019,-0.01902 0.44447,-0.02911 0.945499,-0.02242 l 0.910961,0.01216 0.348403,0.986577 c 0.191622,0.542617 0.513466,1.460807 0.715209,2.040421 0.319296,0.917346 0.959842,2.739371 1.02118,2.904731 0.01676,0.04519 -0.145757,0.05455 -0.778703,0.04484 l -0.799889,-0.01227 -0.195165,-0.627821 c -0.107341,-0.345299 -0.203149,-0.653044 -0.212906,-0.683875 -0.01352,-0.0427 -0.263229,-0.05606 -1.048388,-0.05606 h -1.030646 l -0.217694,0.683877 -0.217695,0.683877 -0.771065,0.01227 c -0.424086,0.0067 -0.771065,-0.0044 -0.771065,-0.02476 z m 3.612488,-2.86876 c -0.437839,-1.448111 -0.581145,-1.894676 -0.608018,-1.894676 -0.01639,0 -0.147036,0.388465 -0.290323,0.863255 -0.143286,0.47479 -0.297997,0.981918 -0.343801,1.126952 -0.04581,0.145033 -0.08328,0.291338 -0.08328,0.325122 0,0.04951 0.142722,0.06142 0.73559,0.06142 h 0.73559 z m 3.248706,-0.1009 v -3.004575 h 0.784777 0.784778 v 2.398571 2.398572 l 1.491076,0.01182 1.491077,0.01182 0.01251,0.594188 0.01251,0.594189 h -2.288366 -2.288367 z"
         id="path6" /></g></g></svg>
