<?xml version="1.0" encoding="UTF-8" standalone="no"?>
<!-- Created with Inkscape (http://www.inkscape.org/) -->

<svg
   width="300"
   height="150"
   viewBox="0 0 79.374998 39.6875"
   version="1.1"
   id="svg1"
   xml:space="preserve"
   inkscape:version="1.4 (86a8ad7, 2024-10-11)"
   sodipodi:docname="phmc.svg"
   xmlns:inkscape="http://www.inkscape.org/namespaces/inkscape"
   xmlns:sodipodi="http://sodipodi.sourceforge.net/DTD/sodipodi-0.dtd"
   xmlns="http://www.w3.org/2000/svg"
   xmlns:svg="http://www.w3.org/2000/svg"><sodipodi:namedview
     id="namedview1"
     pagecolor="#ffffff"
     bordercolor="#111111"
     borderopacity="1"
     inkscape:showpageshadow="0"
     inkscape:pageopacity="0"
     inkscape:pagecheckerboard="1"
     inkscape:deskcolor="#d1d1d1"
     inkscape:document-units="px"
     inkscape:zoom="3.1429293"
     inkscape:cx="149.70111"
     inkscape:cy="117.4064"
     inkscape:window-width="1920"
     inkscape:window-height="1115"
     inkscape:window-x="-9"
     inkscape:window-y="-9"
     inkscape:window-maximized="1"
     inkscape:current-layer="layer1" /><defs
     id="defs1" /><g
     inkscape:label="Layer 1"
     inkscape:groupmode="layer"
     id="layer1"
     transform="translate(0,0.74490904)"><rect
       style="fill:#ffffff;fill-rule:evenodd;stroke-width:0.416128"
       id="rect33"
       width="79.297623"
       height="38.197681"
       x="0.057336926"
       y="0" /><path
       id="path33"
       style="fill:#3bb5cd;stroke-width:1.57277"
       d="m 50.899027,35.912129 c -10e-4,-1.188489 -0.0391,-2.299802 -0.0846,-2.469586 -0.08833,-0.32957 0.649469,-0.481517 0.840129,-0.173025 0.05134,0.08306 0.215771,0.04924 0.424013,-0.08721 0.823607,-0.539647 1.702872,0.3052 1.703303,1.636632 4.29e-4,1.319612 -0.542848,1.974187 -1.528756,1.841949 l -0.529019,-0.07093 v 0.741544 c 0,0.732468 -0.005,0.741543 -0.411597,0.741543 h -0.411598 z m 1.719877,0.04905 C 52.978278,35.6984 53.003996,34.21851 52.655264,33.86931 52.122315,33.335655 51.7241,33.80766 51.7241,34.973022 c 0,1.034186 0.0072,1.049182 0.556874,1.16328 0.04217,0.0088 0.194243,-0.07005 0.337935,-0.175123 z M 42.051906,36.39232 c -0.965825,-0.832951 -0.622362,-2.872085 0.548869,-3.258627 0.446649,-0.147399 1.440165,0.0083 1.440165,0.225599 0,0.345365 -0.310036,0.588318 -0.571912,0.448168 -0.682236,-0.365123 -1.180328,0.315765 -1.033235,1.412423 0.09091,0.677714 0.282909,0.827391 0.939035,0.732004 0.389875,-0.05668 0.520021,-0.02074 0.590564,0.163095 0.232688,0.606376 -1.278059,0.825336 -1.913486,0.277338 z m 3.23893,0.117171 C 44.565582,36.10751 44.32989,34.590608 44.858088,33.72434 c 0.611757,-1.00331 2.09117,-0.85968 2.533566,0.245973 0.700822,1.751529 -0.626794,3.356167 -2.100818,2.539178 z m 1.19225,-0.659178 c 0.201811,-0.201811 0.217693,-1.537857 0.02262,-1.902368 -0.511479,-0.955706 -1.397293,0.585915 -0.970907,1.68971 0.157213,0.407003 0.644644,0.516309 0.948294,0.212658 z m 8.698403,0.706612 c -0.477494,-0.191594 -0.898508,-1.253514 -0.78831,-1.988362 0.317798,-2.119236 2.981623,-1.96562 3.014588,0.173846 0.02331,1.512624 -0.967034,2.319799 -2.226278,1.814532 z m 1.217909,-0.836047 c 0.207202,-0.38716 0.09297,-1.75146 -0.160063,-1.91164 -0.519024,-0.328563 -0.842874,-0.02123 -0.916784,0.870018 -0.07416,0.894222 0.119577,1.335698 0.586118,1.335698 0.200362,0 0.396132,-0.117313 0.490729,-0.294076 z m 5.370885,-2.669626 c -0.569703,-0.0033 -1.128096,0.198893 -1.128096,0.476271 0,0.371119 0.09232,0.403149 0.701403,0.240575 0.493618,-0.131751 0.581359,-0.118476 0.751793,0.114592 0.301829,0.412777 0.234861,0.623379 -0.198312,0.623379 -1.313762,0 -2.041962,1.133447 -1.241879,1.933528 0.229935,0.229938 0.388918,0.270421 0.789179,0.200748 0.275582,-0.04798 0.763504,-0.08226 1.084207,-0.07644 l 0.582741,0.01101 V 35.27534 c 0,-1.642854 -0.109874,-1.943433 -0.787553,-2.146471 -0.172073,-0.05156 -0.363581,-0.07612 -0.553483,-0.07721 z m -0.104841,1.910773 c 0.04849,-2.01e-4 0.100127,0.003 0.155232,0.0082 0.372113,0.035 0.839519,0.687332 0.130037,1.093961 -0.522206,0.299296 -0.946058,0.07924 -0.982614,-0.229195 -0.03428,-0.289146 -0.02994,-0.869874 0.697339,-0.872893 z m 2.861065,1.634739 c -0.289766,-0.190667 -0.454484,-0.852302 -0.454484,-1.825536 0,-0.754278 -0.04265,-0.951462 -0.205799,-0.951462 -0.128055,0 -0.2058,-0.12958 -0.2058,-0.342998 0,-0.213421 0.07774,-0.342998 0.2058,-0.342998 0.142461,0 0.205799,-0.143153 0.205799,-0.465188 0,-0.429497 0.03683,-0.469487 0.480197,-0.521245 0.47437,-0.05538 0.480197,-0.04973 0.480197,0.465186 0,0.429781 0.04814,0.521247 0.274399,0.521247 0.201225,0 0.274398,0.09147 0.274398,0.342998 0,0.251531 -0.07318,0.342998 -0.274398,0.342998 -0.480394,0 -0.408427,2.013821 0.07859,2.198983 0.524292,0.19934 0.389084,0.604107 -0.216924,0.649402 -0.263481,0.01966 -0.552368,-0.01258 -0.641971,-0.0714 z m 4.194933,-0.1016 c -0.468565,-0.254662 -0.74439,-0.934009 -0.717805,-1.767938 0.07337,-2.301838 2.99695,-2.193759 2.99695,0.110786 0,1.490769 -1.105848,2.294831 -2.279145,1.657152 z m 1.245323,-0.745623 c 0.222743,-0.416198 0.175612,-1.602226 -0.07357,-1.851409 -0.674788,-0.674789 -1.322255,0.615813 -0.88539,1.764858 0.164631,0.433012 0.745486,0.485436 0.958963,0.08655 z M 48.294116,34.84883 v -1.714989 h 0.400163 c 0.220091,0 0.423901,0.07122 0.452912,0.158241 0.03591,0.107718 0.17322,0.0793 0.430075,-0.08899 0.263072,-0.172372 0.420867,-0.203697 0.521112,-0.103459 0.204544,0.204543 0.0063,0.720202 -0.276877,0.720202 -0.457279,0 -0.566992,0.297335 -0.566992,1.536631 v 1.207359 h -0.480196 -0.480197 z m 9.851883,-2.49e-4 -0.04215,-1.71524 0.434466,2.5e-4 c 0.238955,1.37e-4 0.461459,0.07743 0.494452,0.171749 0.04331,0.123824 0.140416,0.100139 0.349321,-0.08524 0.332551,-0.295088 0.785715,-0.204069 0.656786,0.131908 -0.04556,0.118728 -0.08284,0.264837 -0.08284,0.324693 0,0.05986 -0.185218,0.145874 -0.411599,0.191147 l -0.411596,0.08232 v 1.306823 1.306828 h -0.472355 -0.472357 z m 8.25841,2.49e-4 v -1.714989 h 0.411598 0.411597 v 1.714989 1.714983 h -0.411597 -0.411598 z m 5.324311,-2.49e-4 -0.04214,-1.71524 0.434464,2.5e-4 c 0.238957,1.37e-4 0.456874,0.06747 0.484265,0.149649 0.03271,0.09816 0.223643,0.0665 0.556596,-0.09228 1.066069,-0.508372 1.474459,0.0673 1.474459,2.0784 v 1.294465 h -0.480198 -0.480195 v -1.376302 c 0,-1.476591 -0.100515,-1.681025 -0.675278,-1.373423 -0.257861,0.138011 -0.285118,0.276732 -0.285118,1.451158 v 1.298551 H 72.243215 71.77086 Z M 58.343957,30.647962 c -0.302741,-0.08741 -0.445898,-0.212985 -0.445898,-0.391126 0,-0.369462 0.15712,-0.426036 0.737884,-0.26568 0.744075,0.205449 1.045706,0.06426 1.045706,-0.489494 v -0.458109 l -0.472673,0.145072 c -0.897246,0.275372 -1.448571,-0.380904 -1.447603,-1.723174 9.13e-4,-1.266862 0.737204,-1.988142 1.670073,-1.636023 0.213072,0.08043 0.387402,0.100545 0.387402,0.04471 0,-0.05583 0.185218,-0.07433 0.411597,-0.0411 l 0.411597,0.06041 v 1.841024 c 0,2.854266 -0.464357,3.442977 -2.298085,2.913507 z m 1.172964,-2.158973 c 0.33172,-0.210417 0.161155,-2.000029 -0.195468,-2.050906 -0.456024,-0.06507 -0.737398,0.324462 -0.737398,1.020814 0,0.977425 0.370657,1.386712 0.932866,1.030092 z M 48.576116,25.717886 c -0.167891,9.78e-4 -0.360171,0.01832 -0.581115,0.04795 -1.120922,0.150341 -1.064696,0.761305 0.06746,0.732288 0.800042,-0.02051 1.189149,0.509552 0.480335,0.654262 -0.174681,0.03567 -0.488718,0.101099 -0.698152,0.145481 -1.037619,0.219897 -1.269255,1.615557 -0.330789,1.993673 0.43395,0.17484 0.608294,0.162813 1.06145,-0.07152 0.232025,-0.119986 0.40475,-0.148942 0.40475,-0.06827 0,0.0774 0.154335,0.140605 0.342981,0.140605 h 0.342979 v -1.499521 c 0,-1.60704 -0.183282,-2.080229 -1.089897,-2.074948 z m -0.403937,1.905082 c 0.04849,-2.01e-4 0.100943,0.0022 0.15605,0.0074 0.372113,0.03502 0.838707,0.688145 0.129234,1.094775 -0.522205,0.299301 -0.946059,0.07842 -0.982615,-0.230009 -0.0343,-0.289144 -0.02995,-0.86906 0.697339,-0.87208 z m 7.604893,-1.969289 c -0.269953,-0.0049 -0.591245,0.06595 -0.96717,0.208876 -0.66675,0.253497 -0.386484,0.625177 0.431568,0.572175 0.630684,-0.04086 0.705879,-0.01541 0.780239,0.26902 0.09839,0.376243 -0.09301,0.525456 -0.677832,0.528287 -1.059086,0.0052 -1.586421,1.285461 -0.788367,1.913211 0.425843,0.334961 0.67013,0.352219 1.181738,0.08534 0.207514,-0.108253 0.377115,-0.138435 0.377115,-0.06746 0,0.07098 0.185685,0.129234 0.412064,0.129234 h 0.411251 V 27.84567 c 0,-1.479751 -0.350749,-2.177154 -1.160606,-2.191984 z m -0.308032,2.03187 c 0.04849,-2e-4 0.100942,0.0022 0.156049,0.0074 0.372115,0.03501 0.838709,0.688144 0.129235,1.094774 -0.522206,0.299301 -0.946058,0.07842 -0.982614,-0.23001 -0.03427,-0.289143 -0.02994,-0.869061 0.697338,-0.872079 z M 62.84555,25.7634 c -0.232301,8e-5 -0.468181,0.05077 -0.684334,0.16255 -1.072683,0.554705 -1.041212,2.834785 0.04552,3.307887 0.57572,0.250636 2.002613,0.13488 2.002613,-0.16255 0,-0.358812 -0.30649,-0.583472 -0.629069,-0.460828 -0.710588,0.270165 -1.291457,0.01736 -1.291457,-0.562423 0,-0.238176 0.103752,-0.264955 1.044382,-0.264955 1.016749,0 1.042789,-0.0085 0.962295,-0.308844 C 64.25,27.304452 64.212,27.022383 64.21097,26.846794 64.20737,26.21849 63.542456,25.763158 62.845552,25.7634 Z m 0.164175,0.748542 c 0.0098,-4.94e-4 0.01974,-3.35e-4 0.02925,0 0.304785,0.01069 0.656748,0.461856 0.490087,0.628253 -0.166659,0.166399 -0.943642,0.138923 -1.081767,-0.0382 -0.133811,-0.171584 0.260546,-0.574764 0.562422,-0.590056 z m 8.835395,-0.781866 c -0.337386,0.0072 -0.689677,0.155704 -0.995618,0.461641 -0.842454,0.842454 -0.636808,2.546748 0.369801,3.064065 0.574405,0.295198 1.910929,0.09532 1.905897,-0.285275 -0.0053,-0.401445 -0.199508,-0.483194 -0.782679,-0.327538 -0.639963,0.170817 -1.136222,-0.09435 -1.136222,-0.607123 0,-0.223551 0.120222,-0.252765 1.028941,-0.252765 1.145302,0 1.15756,-0.01305 0.886708,-0.988303 -0.193468,-0.696599 -0.714517,-1.07676 -1.276828,-1.064702 z m 0.10484,0.780239 c 0.0098,-4.93e-4 0.01892,-3.35e-4 0.02845,0 0.304785,0.0107 0.656747,0.461859 0.490087,0.628256 -0.166659,0.166397 -0.943643,0.138922 -1.081768,-0.0382 -0.13381,-0.171582 0.261359,-0.574762 0.563233,-0.590056 z m 6.126335,2.557658 c -0.236204,-0.300283 -0.284356,-0.55585 -0.284356,-1.509191 0,-0.928704 -0.03927,-1.147691 -0.205799,-1.147691 -0.114325,0 -0.205798,-0.121952 -0.205798,-0.274397 0,-0.150922 0.08888,-0.274399 0.197516,-0.274399 0.129202,0 0.212244,-0.177939 0.240098,-0.514497 0.06892,-0.832765 0.934377,-0.872586 0.934377,-0.043 0,0.466023 0.04501,0.55749 0.274398,0.55749 0.182933,0 0.274399,0.09147 0.274399,0.274398 0,0.182932 -0.09147,0.274397 -0.274399,0.274397 -0.251532,0 -0.274398,0.09147 -0.274398,1.097595 0,0.98347 0.02686,1.097592 0.258397,1.097592 0.304305,0 0.499644,0.55524 0.250941,0.713288 -0.354602,0.225346 -0.901528,0.109259 -1.185376,-0.251592 z M 41.707041,28.091781 c -8.3e-4,-0.66027 -0.03848,-1.424013 -0.08367,-1.697205 -0.07826,-0.473116 -0.06188,-0.49969 0.344508,-0.559335 0.294501,-0.04322 0.426663,-0.0063 0.426663,0.11942 0,0.232855 0.137932,0.224638 0.472121,-0.02812 0.347807,-0.263068 0.885953,-0.256559 1.185291,0.01431 0.216834,0.196232 0.276217,0.196232 0.655686,0 1.150908,-0.595157 1.528479,-0.140086 1.528479,1.842215 v 1.509191 h -0.480197 -0.480197 v -1.449698 -1.449704 l -0.377298,0.04341 -0.377297,0.04341 -0.0391,1.406292 -0.0391,1.406291 h -0.47539 -0.475397 v -1.376297 c 0,-1.147634 -0.03729,-1.390608 -0.224448,-1.462427 -0.513264,-0.196957 -0.665479,0.129518 -0.706615,1.515594 l -0.03927,1.32313 h -0.40663 -0.406629 z m 8.919456,-0.297476 c 0,-0.823883 -0.03458,-1.588077 -0.07684,-1.698209 -0.05487,-0.14298 0.04684,-0.218391 0.355708,-0.263723 0.279872,-0.04108 0.456993,2.28e-4 0.501813,0.11703 0.05624,0.146582 0.142838,0.142461 0.460674,-0.02189 1.141149,-0.590111 1.502629,-0.158355 1.502629,1.794763 v 1.570011 h -0.406796 -0.406797 l -0.0391,-1.406291 c -0.03754,-1.350518 -0.05163,-1.40807 -0.355349,-1.451123 -0.593222,-0.0841 -0.712744,0.179317 -0.712744,1.570821 v 1.286593 h -0.411594 -0.411597 z m 14.379458,-0.20674 -0.04213,-1.704709 0.383286,-0.05599 c 0.242869,-0.03549 0.424909,0.01839 0.496902,0.147022 0.09915,0.177173 0.154682,0.174261 0.436136,-0.02288 0.404372,-0.283232 0.798732,-0.287312 1.191333,-0.01227 0.275981,0.193303 0.33387,0.193303 0.609853,0 1.013826,-0.710114 1.478663,-0.137679 1.478663,1.820912 v 1.532687 H 69.148403 68.736805 V 27.91604 c 0,-1.147633 -0.03729,-1.390608 -0.224446,-1.462425 -0.513266,-0.196959 -0.665481,0.129517 -0.706617,1.515592 l -0.03927,1.32313 H 67.3727 66.978927 l -0.04715,-1.360847 c -0.05221,-1.506297 -0.0866,-1.591833 -0.589564,-1.465599 -0.345189,0.08664 -0.349387,0.104149 -0.349387,1.457069 v 1.369377 H 65.52047 65.048116 Z m 8.944406,0.0057 V 25.89427 l 0.346458,-0.06623 c 0.22151,-0.04234 0.388344,0.0086 0.462602,0.141313 0.102749,0.183604 0.153345,0.181486 0.438666,-0.01837 1.046163,-0.732761 1.633457,-0.04273 1.633457,1.919187 v 1.422088 h -0.480197 -0.480196 v -1.363893 c 0,-1.443848 -0.06659,-1.599198 -0.625195,-1.458993 -0.32746,0.08219 -0.3352,0.115756 -0.3352,1.453508 v 1.369378 h -0.480197 -0.480198 z" /><path
       style="fill:#617c76;stroke-width:1.57277"
       d="m 36.250744,18.785861 c -3.133475,-1.561477 -2.187461,-6.633227 1.238935,-6.642153 l 0.514497,-0.0013 v 3.49858 3.49858 h -0.521859 c -0.287022,0 -0.84123,-0.159149 -1.231573,-0.353666 z"
       id="path101" /><path
       style="fill:#617c76;stroke-width:1.57277"
       d="m 0,22.447885 v -3.582756 h 0.38715662 c 4.26160888,0 4.50273578,6.443627 0.26453912,7.069304 L 0,26.030639 Z"
       id="path94" /><path
       id="path32"
       style="fill:#617c76;stroke-width:1.57277"
       d="m 0,33.408242 v -4.664771 h 1.7898258 c 2.196428,0 1.8954039,0.252754 3.938264,-3.30675 1.8740836,-3.265424 1.878945,-2.753727 -0.058239,-6.130193 C 3.7307694,15.926766 3.969778,16.121144 1.7530643,16.121144 H 3.1455306e-6 V 8.0949907 L -0.08418053,-0.5204466 H 18.917906 37.919995 l 0.08418,5.2540572 v 4.664773 h -1.830925 c -2.198185,0 -1.783508,-0.347084 -3.851634,3.2238074 -1.84098,3.178689 -1.617858,4.360973 1.66366,8.815422 l 0.328486,0.445897 h 1.845206 1.845207 v 8.094753 l 0.08418,8.936586 H 19.086271 0.08418367 Z m 16.356031,2.201567 c 0.575885,-0.452991 3.58568,-5.833903 3.48579,-6.231896 -0.120725,-0.480997 -3.086563,-5.59562 -3.411004,-5.882312 -0.412682,-0.364667 -6.923542,-0.364667 -7.3548462,0 -0.4197286,0.354879 -3.4508043,5.672955 -3.4508043,6.054495 0,0.698233 0.5345813,1.289743 1.0835472,1.198937 0.2718336,-0.04497 0.9947127,-0.08243 1.6063957,-0.08326 l 1.1121527,-0.0015 -0.1322224,-0.668707 c -0.5365174,-2.713461 2.6460853,-4.981333 5.1092033,-3.640734 2.676921,1.456963 2.494768,5.129283 -0.316,6.37079 -0.632569,0.279405 -0.652257,0.304652 -0.462912,0.593629 0.108773,0.166 0.453062,0.809592 0.765099,1.430205 0.634051,1.261063 1.162267,1.492272 1.965599,0.860369 z m 7.482328,-7.953789 c 0.861929,-1.624587 0.848688,-1.433022 0.118335,-1.711949 -2.393904,-0.91424 -2.961146,-4.240277 -1.008244,-5.911886 2.347066,-2.009003 5.782224,-0.408432 5.791607,2.69853 0.0038,1.238169 -0.04105,1.210784 1.980137,1.210784 1.315229,0 1.661727,-0.248329 1.656754,-1.187362 -0.0028,-0.538908 -3.139012,-5.957792 -3.579586,-6.185073 -0.462945,-0.238821 -6.503208,-0.238546 -6.975193,3.18e-4 -0.452376,0.228938 -3.574654,5.636696 -3.574663,6.191285 -9e-6,0.421512 2.984484,5.768966 3.396519,6.085702 0.122707,0.09432 0.504562,0.170551 0.848571,0.169391 l 0.625475,-0.002 z m -7.605196,-6.197707 c 0.274874,-0.125239 2.47296,-3.703661 3.518028,-5.727245 0.243165,-0.470845 0.165178,-0.652259 -1.572242,-3.6573 C 16.422194,9.0352841 16.381002,8.9867863 15.557025,8.9867863 h -0.580034 l -0.756775,1.4062917 -0.756777,1.406292 0.654951,0.291185 c 3.504377,1.558019 2.51111,6.768547 -1.290265,6.768547 -2.21452,0 -3.9774544,-2.046621 -3.5193189,-4.085636 l 0.1287781,-0.573111 -0.4999129,-8.22e-4 c -0.2749525,-4.51e-4 -1.0048162,-0.04012 -1.6219205,-0.08817 l -1.1220061,-0.08735 -0.2837724,0.465471 c -0.1560813,0.256009 -0.2840021,0.612287 -0.2842852,0.791729 -5.914e-4,0.376189 3.036733,5.727621 3.4552678,6.087802 0.3368297,0.289871 6.5419751,0.367345 7.1522161,0.0893 z m 12.818766,-6.951632 c 0.47146,-0.47612 3.327081,-5.6143738 3.327081,-5.986575 0,-0.2035772 -0.09419,-0.5522938 -0.209323,-0.7749266 l -0.209322,-0.4047842 -1.471368,0.00204 C 28.69579,7.3449552 28.744458,7.3107322 28.737865,8.5751324 28.718375,12.310135 23.832367,13.491619 22.12849,10.17334 21.177042,8.3204104 22.0561,6.0672984 24.038571,5.2776317 24.286887,5.1787207 24.511799,5.0815615 24.538375,5.061721 24.564955,5.041873 24.256252,4.4045977 23.852379,3.645537 L 23.118064,2.2654276 22.466367,2.2646978 c -0.872194,-9.751e-4 -4.220009,4.9635529 -4.218369,6.2554884 5.41e-4,0.4271159 2.978887,5.7468298 3.391357,6.0574108 0.403455,0.303791 7.105015,0.239627 7.412574,-0.07098 z m 12.656625,3.260854 v -4.253176 h 1.097594 1.097594 v 1.577792 1.57779 h 0.823194 0.823195 v -1.57779 -1.577792 h 1.166195 1.166192 v 4.253176 4.253174 H 46.716326 45.550131 V 20.30572 18.590729 h -0.823195 -0.823194 v 1.714991 1.714989 h -1.097594 -1.097594 z m 7.134358,0 v -4.253176 h 2.593941 c 2.397469,0 2.590258,0.01818 2.545334,0.240099 -0.02675,0.132049 -0.08647,0.533362 -0.132757,0.891795 l -0.08416,0.651696 H 52.470285 51.1753 v 0.685996 0.685996 h 1.166193 1.166193 v 0.960394 0.960394 H 52.341493 51.1753 v 0.754596 0.754596 h 1.371991 1.371992 v 0.960395 0.960393 H 51.381095 48.84291 Z m 7.886702,-4.253075 -1.068765,4.149895 c -0.58783,2.282652 -1.066037,4.199166 -1.062263,4.258805 0.0038,0.05964 0.513607,0.091 1.132972,0.06909 l 1.125658,-0.03982 0.108096,-0.549419 c 0.24732,-1.25573 0.160336,-1.165482 1.138662,-1.165482 0.978326,0 0.890402,-0.09032 1.137848,1.165482 l 0.108095,0.549419 1.280081,0.03901 c 1.023204,0.03172 1.26641,0.0036 1.210183,-0.143042 -0.08408,-0.219126 -2.158661,-8.159643 -2.158661,-8.262407 0,-0.03926 -0.664051,-0.07153 -1.475952,-0.07153 z m 1.371035,1.678169 c 0.281352,-0.0331 1.14228,3.446806 0.910579,3.71161 -0.231703,0.148956 -1.419746,0.136091 -1.734199,-0.0625 -0.248251,-0.231704 0.525718,-3.715303 0.82362,-3.649102 z m 4.462182,2.574906 v -4.253176 h 1.166193 1.166194 v 3.292781 3.292781 h 1.234792 c 1.387033,0 1.300923,-0.09021 1.14589,1.200493 l -0.08652,0.720295 h -2.313276 -2.313276 z m 5.625168,0.960393 v -3.29278 h -0.823195 -0.823197 v -0.960394 -0.960395 h 2.887401 2.887401 l -0.07482,0.480199 c -0.04115,0.264108 -0.108489,0.696285 -0.149633,0.960393 l -0.07482,0.480197 h -0.748379 -0.748378 v 3.29278 3.292781 h -1.166187 -1.166193 z m 4.801972,-0.960393 v -4.253176 h 1.166192 1.166192 v 1.577792 1.57779 h 0.823196 0.823197 v -1.57779 -1.577792 h 1.097593 1.097594 v 4.253176 4.253174 H 78.066341 76.968748 V 20.30572 18.590729 h -0.823197 -0.823196 v 1.714991 1.714989 H 74.156163 72.989971 Z M 50.308721,9.4803736 C 48.822837,8.9323702 48.651231,8.3857934 48.59227,4.0133156 L 48.54463,0.48043651 h 1.246734 1.246734 V 3.8112892 c 0,3.7609001 0.04069,3.9407034 0.891796,3.9407034 0.851103,0 0.891794,-0.1798033 0.891794,-3.9407034 V 0.48043651 h 1.174257 1.174259 l -0.04237,3.74907609 -0.04237,3.7490761 -0.365055,0.5512559 c -0.665996,1.0056969 -2.935985,1.4947794 -4.4117,0.950529 z m 24.739237,-0.01815 c -2.89398,-1.3027671 -2.814373,-7.8129947 0.109291,-8.93784276 1.194588,-0.45960606 3.869484,-0.005662 3.869484,0.65671126 0,0.1045575 -0.636248,1.4649224 -0.746159,1.5953644 -0.01494,0.017725 -0.267521,-0.090324 -0.561301,-0.2400999 -1.569824,-0.800341 -2.338614,0.041348 -2.320254,2.5402597 0.0168,2.2872899 0.930882,3.1611922 2.471643,2.3630154 l 0.42172,-0.2184697 0.367175,0.7486567 C 79.125506,8.9198679 79.132703,8.8767066 78.443775,9.2639073 77.688349,9.68848 75.796054,9.7989904 75.047958,9.4622236 Z M 41.708554,4.9959558 V 0.45632759 l 2.160887,0.0463494 c 3.041319,0.0652383 3.885243,0.60031981 3.923829,2.48785511 0.04279,2.093769 -1.08277,3.2522648 -3.159835,3.2522648 H 44.04094 V 7.889188 9.5355776 h -1.166193 -1.166193 z m 3.601479,-0.959368 C 45.895034,3.320816 45.460955,2.2640263 44.581957,2.2640263 H 44.04094 v 1.1155435 1.1155451 l 0.514497,-0.082381 c 0.282974,-0.045311 0.622541,-0.214574 0.754596,-0.3761488 z M 56.388868,5.0103009 V 0.45223525 l 2.229486,0.049778 c 3.61929,0.0808087 5.195091,1.95758485 3.188021,3.79692755 -0.355831,0.3260956 -0.469103,0.506347 -0.34433,0.5479388 0.784555,0.2615179 1.169387,0.9398736 1.169387,2.061315 0,2.0334093 -0.763073,2.5207228 -4.079293,2.6051189 l -2.163271,0.055047 z m 3.831444,2.399027 c 0.629392,-0.6293923 0.01818,-1.7153223 -0.965461,-1.7153223 h -0.533598 v 1.0476425 1.0476426 l 0.648425,-0.088877 c 0.356634,-0.048882 0.73942,-0.1798708 0.850634,-0.2910858 z m -0.183446,-3.704106 c 0.498698,-0.7611099 -0.0096,-1.5783958 -0.981546,-1.5783958 -0.32214,0 -0.334067,0.034285 -0.334067,0.960395 v 0.9603934 h 0.545636 c 0.430354,0 0.593031,-0.072331 0.769977,-0.3423926 z m 3.623558,1.3027875 V 0.48043651 h 1.166195 1.166193 V 3.9790152 7.4775954 h 1.382912 1.382912 l -0.09641,0.9260945 c -0.05302,0.5093511 -0.12332,0.9723983 -0.156222,1.0289943 -0.0329,0.056588 -1.136611,0.1028899 -2.4527,0.1028899 h -2.39289 z m 6.036766,0 V 0.48043651 h 1.166193 1.166193 V 5.0080094 9.5355823 H 70.863383 69.69719 Z"
       sodipodi:nodetypes="ccsscscccccccssscccccccccsssssccsssssccccscscssssccccssscccssccscccsscccsccccsssscssscccccccccccccccccccccccccccccscscccccccccccccccccccccccsccsccccsscsccssccccccssccccccccccccssccccccccccccccccccccccccccccccccccscccssscccccsccssssssscsssccscsccccccsscccsssccsssssccsscccssssscssccccccccsssccccccccccc" /></g></svg>
