<svg xmlns="http://www.w3.org/2000/svg" xml:space="preserve" viewBox="0 0 79.374998 39.6875">
  <path d="M.05733693 0h79.297623v38.197681H.05733693z" style="fill:#fff;fill-rule:evenodd;stroke-width:.416128" transform="translate(0 .74490904)"/>
  <path d="M50.899027 35.912129c-.001-1.188489-.0391-2.299802-.0846-2.469586-.08833-.32957.649469-.481517.840129-.173025.05134.08306.215771.04924.424013-.08721.823607-.539647 1.702872.3052 1.703303 1.636632.000429 1.319612-.542848 1.974187-1.528756 1.841949l-.529019-.07093v.741544c0 .732468-.005.741543-.411597.741543h-.411598zm1.719877.04905c.359374-.262779.385092-1.742669.03636-2.091869-.532949-.533655-.931164-.06165-.931164 1.103712 0 1.034186.0072 1.049182.556874 1.16328.04217.0088.194243-.07005.337935-.175123zm-10.566998.431141c-.965825-.832951-.622362-2.872085.548869-3.258627.446649-.147399 1.440165.0083 1.440165.225599 0 .345365-.310036.588318-.571912.448168-.682236-.365123-1.180328.315765-1.033235 1.412423.09091.677714.282909.827391.939035.732004.389875-.05668.520021-.02074.590564.163095.232688.606376-1.278059.825336-1.913486.277338zm3.23893.117171c-.725254-.401981-.960946-1.918883-.432748-2.785151.611757-1.00331 2.09117-.85968 2.533566.245973.700822 1.751529-.626794 3.356167-2.100818 2.539178zm1.19225-.659178c.201811-.201811.217693-1.537857.02262-1.902368-.511479-.955706-1.397293.585915-.970907 1.68971.157213.407003.644644.516309.948294.212658zm8.698403.706612c-.477494-.191594-.898508-1.253514-.78831-1.988362.317798-2.119236 2.981623-1.96562 3.014588.173846.02331 1.512624-.967034 2.319799-2.226278 1.814532zm1.217909-.836047c.207202-.38716.09297-1.75146-.160063-1.91164-.519024-.328563-.842874-.02123-.916784.870018-.07416.894222.119577 1.335698.586118 1.335698.200362 0 .396132-.117313.490729-.294076zm5.370885-2.669626c-.569703-.0033-1.128096.198893-1.128096.476271 0 .371119.09232.403149.701403.240575.493618-.131751.581359-.118476.751793.114592.301829.412777.234861.623379-.198312.623379-1.313762 0-2.041962 1.133447-1.241879 1.933528.229935.229938.388918.270421.789179.200748.275582-.04798.763504-.08226 1.084207-.07644l.582741.01101V35.27534c0-1.642854-.109874-1.943433-.787553-2.146471-.172073-.05156-.363581-.07612-.553483-.07721zm-.104841 1.910773c.04849-.000201.100127.003.155232.0082.372113.035.839519.687332.130037 1.093961-.522206.299296-.946058.07924-.982614-.229195-.03428-.289146-.02994-.869874.697339-.872893zm2.861065 1.634739c-.289766-.190667-.454484-.852302-.454484-1.825536 0-.754278-.04265-.951462-.205799-.951462-.128055 0-.2058-.12958-.2058-.342998 0-.213421.07774-.342998.2058-.342998.142461 0 .205799-.143153.205799-.465188 0-.429497.03683-.469487.480197-.521245.47437-.05538.480197-.04973.480197.465186 0 .429781.04814.521247.274399.521247.201225 0 .274398.09147.274398.342998 0 .251531-.07318.342998-.274398.342998-.480394 0-.408427 2.013821.07859 2.198983.524292.19934.389084.604107-.216924.649402-.263481.01966-.552368-.01258-.641971-.0714zm4.194933-.1016c-.468565-.254662-.74439-.934009-.717805-1.767938.07337-2.301838 2.99695-2.193759 2.99695.110786 0 1.490769-1.105848 2.294831-2.279145 1.657152zm1.245323-.745623c.222743-.416198.175612-1.602226-.07357-1.851409-.674788-.674789-1.322255.615813-.88539 1.764858.164631.433012.745486.485436.958963.08655zm-21.672647-.900711v-1.714989h.400163c.220091 0 .423901.07122.452912.158241.03591.107718.17322.0793.430075-.08899.263072-.172372.420867-.203697.521112-.103459.204544.204543.0063.720202-.276877.720202-.457279 0-.566992.297335-.566992 1.536631v1.207359h-.960393zm9.851883-.000249-.04215-1.71524.434466.00025c.238955.000137.461459.07743.494452.171749.04331.123824.140416.100139.349321-.08524.332551-.295088.785715-.204069.656786.131908-.04556.118728-.08284.264837-.08284.324693 0 .05986-.185218.145874-.411599.191147l-.411596.08232v2.613651h-.944712zm8.25841.000249v-1.714989h.823195V36.563813h-.823195zm5.324311-.000249-.04214-1.71524.434464.00025c.238957.000137.456874.06747.484265.149649.03271.09816.223643.0665.556596-.09228 1.066069-.508372 1.474459.0673 1.474459 2.0784v1.294465h-.960393v-1.376302c0-1.476591-.100515-1.681025-.675278-1.373423-.257861.138011-.285118.276732-.285118 1.451158v1.298551h-.944715Zm-13.384763-4.200619c-.302741-.08741-.445898-.212985-.445898-.391126 0-.369462.15712-.426036.737884-.26568.744075.205449 1.045706.06426 1.045706-.489494v-.458109l-.472673.145072c-.897246.275372-1.448571-.380904-1.447603-1.723174.000913-1.266862.737204-1.988142 1.670073-1.636023.213072.08043.387402.100545.387402.04471 0-.05583.185218-.07433.411597-.0411l.411597.06041v1.841024c0 2.854266-.464357 3.442977-2.298085 2.913507zm1.172964-2.158973c.33172-.210417.161155-2.000029-.195468-2.050906-.456024-.06507-.737398.324462-.737398 1.020814 0 .977425.370657 1.386712.932866 1.030092zm-10.940805-2.771103c-.167891.000978-.360171.01832-.581115.04795-1.120922.150341-1.064696.761305.06746.732288.800042-.02051 1.189149.509552.480335.654262-.174681.03567-.488718.101099-.698152.145481-1.037619.219897-1.269255 1.615557-.330789 1.993673.43395.17484.608294.162813 1.06145-.07152.232025-.119986.40475-.148942.40475-.06827 0 .0774.154335.140605.342981.140605h.342979v-1.499521c0-1.60704-.183282-2.080229-1.089897-2.074948zm-.403937 1.905082c.04849-.000201.100943.0022.15605.0074.372113.03502.838707.688145.129234 1.094775-.522205.299301-.946059.07842-.982615-.230009-.0343-.289144-.02995-.86906.697339-.87208zm7.604893-1.969289c-.269953-.0049-.591245.06595-.96717.208876-.66675.253497-.386484.625177.431568.572175.630684-.04086.705879-.01541.780239.26902.09839.376243-.09301.525456-.677832.528287-1.059086.0052-1.586421 1.285461-.788367 1.913211.425843.334961.67013.352219 1.181738.08534.207514-.108253.377115-.138435.377115-.06746 0 .07098.185685.129234.412064.129234h.411251V27.84567c0-1.479751-.350749-2.177154-1.160606-2.191984zm-.308032 2.03187c.04849-.0002.100942.0022.156049.0074.372115.03501.838709.688144.129235 1.094774-.522206.299301-.946058.07842-.982614-.23001-.03427-.289143-.02994-.869061.697338-.872079zm7.37651-1.922149c-.232301.00008-.468181.05077-.684334.16255-1.072683.554705-1.041212 2.834785.04552 3.307887.57572.250636 2.002613.13488 2.002613-.16255 0-.358812-.30649-.583472-.629069-.460828-.710588.270165-1.291457.01736-1.291457-.562423 0-.238176.103752-.264955 1.044382-.264955 1.016749 0 1.042789-.0085.962295-.308844-.0455-.169785-.0835-.451854-.08453-.627443-.0036-.628304-.668514-1.083636-1.365418-1.083394Zm.164175.748542c.0098-.000494.01974-.000335.02925 0 .304785.01069.656748.461856.490087.628253-.166659.166399-.943642.138923-1.081767-.0382-.133811-.171584.260546-.574764.562422-.590056zm8.835395-.781866c-.337386.0072-.689677.155704-.995618.461641-.842454.842454-.636808 2.546748.369801 3.064065.574405.295198 1.910929.09532 1.905897-.285275-.0053-.401445-.199508-.483194-.782679-.327538-.639963.170817-1.136222-.09435-1.136222-.607123 0-.223551.120222-.252765 1.028941-.252765 1.145302 0 1.15756-.01305.886708-.988303-.193468-.696599-.714517-1.07676-1.276828-1.064702zm.10484.780239c.0098-.000493.01892-.000335.02845 0 .304785.0107.656747.461859.490087.628256-.166659.166397-.943643.138922-1.081768-.0382-.13381-.171582.261359-.574762.563233-.590056zm6.126335 2.557658c-.236204-.300283-.284356-.55585-.284356-1.509191 0-.928704-.03927-1.147691-.205799-1.147691-.114325 0-.205798-.121952-.205798-.274397 0-.150922.08888-.274399.197516-.274399.129202 0 .212244-.177939.240098-.514497.06892-.832765.934377-.872586.934377-.043 0 .466023.04501.55749.274398.55749.182933 0 .274399.09147.274399.274398 0 .182932-.09147.274397-.274399.274397-.251532 0-.274398.09147-.274398 1.097595 0 .98347.02686 1.097592.258397 1.097592.304305 0 .499644.55524.250941.713288-.354602.225346-.901528.109259-1.185376-.251592zm-36.369254-.976192c-.00083-.66027-.03848-1.424013-.08367-1.697205-.07826-.473116-.06188-.49969.344508-.559335.294501-.04322.426663-.0063.426663.11942 0 .232855.137932.224638.472121-.02812.347807-.263068.885953-.256559 1.185291.01431.216834.196232.276217.196232.655686 0 1.150908-.595157 1.528479-.140086 1.528479 1.842215v1.509191h-.960394V26.392855l-.377298.04341-.377297.04341-.0391 1.406292-.0391 1.406291h-.950787v-1.376297c0-1.147634-.03729-1.390608-.224448-1.462427-.513264-.196957-.665479.129518-.706615 1.515594l-.03927 1.32313h-.813259zm8.919456-.297476c0-.823883-.03458-1.588077-.07684-1.698209-.05487-.14298.04684-.218391.355708-.263723.279872-.04108.456993.000228.501813.11703.05624.146582.142838.142461.460674-.02189 1.141149-.590111 1.502629-.158355 1.502629 1.794763v1.570011h-.813593l-.0391-1.406291c-.03754-1.350518-.05163-1.40807-.355349-1.451123-.593222-.0841-.712744.179317-.712744 1.570821v1.286593h-.823191zm14.379458-.20674-.04213-1.704709.383286-.05599c.242869-.03549.424909.01839.496902.147022.09915.177173.154682.174261.436136-.02288.404372-.283232.798732-.287312 1.191333-.01227.275981.193303.33387.193303.609853 0 1.013826-.710114 1.478663-.137679 1.478663 1.820912v1.532687H68.736805V27.91604c0-1.147633-.03729-1.390608-.224446-1.462425-.513266-.196959-.665481.129517-.706617 1.515592l-.03927 1.32313H66.978927l-.04715-1.360847c-.05221-1.506297-.0866-1.591833-.589564-1.465599-.345189.08664-.349387.104149-.349387 1.457069v1.369377H65.048116Zm8.944406.0057V25.89427l.346458-.06623c.22151-.04234.388344.0086.462602.141313.102749.183604.153345.181486.438666-.01837 1.046163-.732761 1.633457-.04273 1.633457 1.919187v1.422088h-.960393v-1.363893c0-1.443848-.06659-1.599198-.625195-1.458993-.32746.08219-.3352.115756-.3352 1.453508v1.369378h-.960395z" style="fill:#3bb5cd;stroke-width:1.57277" transform="translate(0 .74490904)"/>
  <path d="M36.250744 18.785861c-3.133475-1.561477-2.187461-6.633227 1.238935-6.642153l.514497-.0013v6.99716h-.521859c-.287022 0-.84123-.159149-1.231573-.353666zM0 22.447885v-3.582756h.38715662c4.26160888 0 4.50273578 6.443627.26453912 7.069304L0 26.030639Z" style="fill:#617c76;stroke-width:1.57277" transform="translate(0 .74490904)"/>
  <path d="M0 33.408242v-4.664771h1.7898258c2.196428 0 1.8954039.252754 3.938264-3.30675 1.8740836-3.265424 1.878945-2.753727-.058239-6.130193-1.9390814-3.379762-1.7000728-3.185384-3.9167865-3.185384H.00000315V8.0949907L-.08418053-.5204466H37.919995l.08418 5.2540572v4.664773H36.17325c-2.198185 0-1.783508-.347084-3.851634 3.2238074-1.84098 3.178689-1.617858 4.360973 1.66366 8.815422l.328486.445897h3.690413v8.094753l.08418 8.936586H.08418367Zm16.356031 2.201567c.575885-.452991 3.58568-5.833903 3.48579-6.231896-.120725-.480997-3.086563-5.59562-3.411004-5.882312-.412682-.364667-6.923542-.364667-7.3548462 0-.4197286.354879-3.4508043 5.672955-3.4508043 6.054495 0 .698233.5345813 1.289743 1.0835472 1.198937.2718336-.04497.9947127-.08243 1.6063957-.08326l1.1121527-.0015-.1322224-.668707c-.5365174-2.713461 2.6460853-4.981333 5.1092033-3.640734 2.676921 1.456963 2.494768 5.129283-.316 6.37079-.632569.279405-.652257.304652-.462912.593629.108773.166.453062.809592.765099 1.430205.634051 1.261063 1.162267 1.492272 1.965599.860369zm7.482328-7.953789c.861929-1.624587.848688-1.433022.118335-1.711949-2.393904-.91424-2.961146-4.240277-1.008244-5.911886 2.347066-2.009003 5.782224-.408432 5.791607 2.69853.0038 1.238169-.04105 1.210784 1.980137 1.210784 1.315229 0 1.661727-.248329 1.656754-1.187362-.0028-.538908-3.139012-5.957792-3.579586-6.185073-.462945-.238821-6.503208-.238546-6.975193.000318-.452376.228938-3.574654 5.636696-3.574663 6.191285-.000009.421512 2.984484 5.768966 3.396519 6.085702.122707.09432.504562.170551.848571.169391l.625475-.002zm-7.605196-6.197707c.274874-.125239 2.47296-3.703661 3.518028-5.727245.243165-.470845.165178-.652259-1.572242-3.6573-1.756755-3.0384839-1.797947-3.0869817-2.621924-3.0869817h-.580034l-.756775 1.4062917-.756777 1.406292.654951.291185c3.504377 1.558019 2.51111 6.768547-1.290265 6.768547-2.21452 0-3.9774544-2.046621-3.5193189-4.085636l.1287781-.573111-.4999129-.000822c-.2749525-.000451-1.0048162-.04012-1.6219205-.08817l-1.1220061-.08735-.2837724.465471c-.1560813.256009-.2840021.612287-.2842852.791729-.0005914.376189 3.036733 5.727621 3.4552678 6.087802.3368297.289871 6.5419751.367345 7.1522161.0893zm12.818766-6.951632c.47146-.47612 3.327081-5.6143738 3.327081-5.986575 0-.2035772-.09419-.5522938-.209323-.7749266l-.209322-.4047842-1.471368.00204c-1.793207.00252-1.744539-.031703-1.751132 1.2326972-.01949 3.7350026-4.905498 4.9164866-6.609375 1.5982076-.951448-1.8529296-.07239-4.1060416 1.910081-4.8957083.248316-.098911.473228-.1960702.499804-.2159107.02658-.019848-.282123-.6571233-.685996-1.416184l-.734315-1.3801094-.651697-.0007298c-.872194-.0009751-4.220009 4.9635529-4.218369 6.2554884.000541.4271159 2.978887 5.7468298 3.391357 6.0574108.403455.303791 7.105015.239627 7.412574-.07098zm12.656625 3.260854v-4.253176h2.195188v3.155582h1.646389v-3.155582H47.882518v8.50635H45.550131v-3.42998h-1.646389v3.42998h-2.195188zm7.134358 0v-4.253176h2.593941c2.397469 0 2.590258.01818 2.545334.240099-.02675.132049-.08647.533362-.132757.891795l-.08416.651696H51.1753v1.371992h2.332386v1.920788H51.1753v1.509192h2.743983v1.920788H48.84291Zm7.886702-4.253075-1.068765 4.149895c-.58783 2.282652-1.066037 4.199166-1.062263 4.258805.0038.05964.513607.091 1.132972.06909l1.125658-.03982.108096-.549419c.24732-1.25573.160336-1.165482 1.138662-1.165482s.890402-.09032 1.137848 1.165482l.108095.549419 1.280081.03901c1.023204.03172 1.26641.0036 1.210183-.143042-.08408-.219126-2.158661-8.159643-2.158661-8.262407 0-.03926-.664051-.07153-1.475952-.07153zm1.371035 1.678169c.281352-.0331 1.14228 3.446806.910579 3.71161-.231703.148956-1.419746.136091-1.734199-.0625-.248251-.231704.525718-3.715303.82362-3.649102zm4.462182 2.574906v-4.253176H64.895218v6.585562h1.234792c1.387033 0 1.300923-.09021 1.14589 1.200493l-.08652.720295h-4.626552zm5.625168.960393v-3.29278h-1.646392v-1.920789h5.774802l-.07482.480199c-.04115.264108-.108489.696285-.149633.960393l-.07482.480197H70.520379v6.585561h-2.33238zm4.801972-.960393v-4.253176h2.332384v3.155582h1.646393v-3.155582H79.163935v8.50635H76.968748v-3.42998h-1.646393v3.42998h-2.332384Zm-22.68125-8.2871614c-1.485884-.5480034-1.65749-1.0945802-1.716451-5.467058L48.54463.48043651h2.493468V3.8112892c0 3.7609001.04069 3.9407034.891796 3.9407034.851103 0 .891794-.1798033.891794-3.9407034V.48043651h2.348516l-.04237 3.74907609-.04237 3.7490761-.365055.5512559c-.665996 1.0056969-2.935985 1.4947794-4.4117.950529zm24.739237-.01815c-2.89398-1.3027671-2.814373-7.8129947.109291-8.93784276 1.194588-.45960606 3.869484-.005662 3.869484.65671126 0 .1045575-.636248 1.4649224-.746159 1.5953644-.01494.017725-.267521-.090324-.561301-.2400999-1.569824-.800341-2.338614.041348-2.320254 2.5402597.0168 2.2872899.930882 3.1611922 2.471643 2.3630154l.42172-.2184697.367175.7486567c.465949.9500492.473146.9068879-.215782 1.2940886-.755426.4245727-2.647721.5350831-3.395817.1983163ZM41.708554 4.9959558V.45632759l2.160887.0463494c3.041319.0652383 3.885243.60031981 3.923829 2.48785511.04279 2.093769-1.08277 3.2522648-3.159835 3.2522648h-.592495v3.2927807h-2.332386zm3.601479-.959368c.585001-.7157718.150922-1.7725615-.728076-1.7725615h-.541017v2.2310886l.514497-.082381c.282974-.045311.622541-.214574.754596-.3761488zm11.078835.9737131V.45223525l2.229486.049778c3.61929.0808087 5.195091 1.95758485 3.188021 3.79692755-.355831.3260956-.469103.506347-.34433.5479388.784555.2615179 1.169387.9398736 1.169387 2.061315 0 2.0334093-.763073 2.5207228-4.079293 2.6051189l-2.163271.055047zm3.831444 2.399027c.629392-.6293923.01818-1.7153223-.965461-1.7153223h-.533598v2.0952851l.648425-.088877c.356634-.048882.73942-.1798708.850634-.2910858zm-.183446-3.704106c.498698-.7611099-.0096-1.5783958-.981546-1.5783958-.32214 0-.334067.034285-.334067.960395v.9603934h.545636c.430354 0 .593031-.072331.769977-.3423926zm3.623558 1.3027875V.48043651h2.332388V7.4775954h2.765824l-.09641.9260945c-.05302.5093511-.12332.9723983-.156222 1.0289943-.0329.056588-1.136611.1028899-2.4527.1028899h-2.39289zm6.036766 0V.48043651h2.332386V9.5355823H69.69719Z" style="fill:#617c76;stroke-width:1.57277" transform="translate(0 .74490904)"/>
</svg>
