<svg xmlns="http://www.w3.org/2000/svg" fill="none" viewBox="0 0 193 45">
  <path fill="#0075A9" d="m35.0598 0-11.47 19.31 9.67 16.29 5.45-9.17 10.89 18.34h12.04L35.0598 0Z"/>
  <path fill="#6BC4E8" d="M19.35 12.1799 0 44.7699h8.47l15.12-25.46-4.24-7.13Z"/>
  <path fill="#009ADE" d="m23.5897 19.3101-15.11997 25.46H27.8097l5.45-9.17-9.67-16.29ZM33.2598 35.5999l5.45 9.17h10.89l-10.89-18.34-5.45 9.17Z"/>
  <path fill="#8DC6E8" d="M27.8101 44.7701h10.9l-5.45-9.17-5.45 9.17Z"/>
  <path fill="#0C0F19" d="M82.2999 20.9999c0-.64-.19-1.12-.57-1.43-.38-.31-.93-.47-1.63-.47h-2.87v3.81h2.96c.58 0 1.08-.17 1.49-.52.41-.34.62-.81.62-1.39Zm3.58.07c0 .72-.15 1.39-.44 2-.29.61-.69 1.14-1.18 1.58-.5.44-1.08.79-1.76 1.05-.67.25-1.39.38-2.16.38h-3.12v5.83h-3.53v-15.98h6.59c.84 0 1.61.12 2.29.36.68.24 1.28.58 1.77 1.02.49.45.87.98 1.14 1.62.27.64.4 1.35.4 2.15M92.99 15.9199h-3.53v15.98h3.53v-15.98ZM107.87 31.8999l-4.06-5.88-2.37-3.81-.04.03v9.66h-3.5401v-15.98h3.1501l3.35 4.89 3.08 4.8.04-.02v-9.67h3.54v15.98h-3.15ZM125.89 31.8999l-4.06-5.88-2.37-3.81-.04.03v9.66h-3.54v-15.98h3.15l3.35 4.89 3.08 4.8.04-.02v-9.67h3.54v15.98h-3.15ZM140.81 23.8199l-.94-3.17h-.09l-.92 3.12-.6 1.88h3.15l-.6-1.84v.01Zm2.89 8.08-1.19-3.26h-5.35l-1.19 3.26h-3.72l6.2-15.98h2.78l6.2 15.98h-3.73ZM162.3 28.02c-.4 1.26-1.11 2.24-2.15 2.95-1.03.71-2.3 1.0701-3.8 1.0701-1.04 0-1.95-.1501-2.72-.4601-.77-.31-1.41-.73-1.92-1.29-.51-.55-.89-1.21-1.14-1.97-.25-.77-.38-1.61-.38-2.53v-3.76c0-.83.12-1.61.38-2.36.25-.75.63-1.41 1.14-1.99.51-.57 1.15-1.03 1.92-1.37.77-.34 1.68-.51 2.72-.51 1.53 0 2.8.37 3.82 1.11 1.02.74 1.73 1.73 2.12 2.95l-3.35 1.19c-.12-.55-.41-1.01-.85-1.39-.44-.38-1.03-.56-1.77-.56-.44 0-.83.07-1.15.22-.32.15-.59.34-.8.59-.21.24-.38.52-.48.84-.11.31-.16.63-.16.95v4.34c0 .35.05.69.16 1.01.11.32.27.6.48.85.21.24.48.44.8.6.32.15.7.23 1.15.23.72 0 1.3-.19 1.76-.56.45-.38.74-.85.86-1.43l3.35 1.29.01-.01ZM166.27 31.8999v-15.98h3.54v12.81h7.75v3.17h-11.29ZM181.42 31.8999v-15.98h11.29v3.17h-7.75v3.24h6.61v3.05h-6.61v3.35h7.75v3.17h-11.29ZM77.0999 36.9001v8.01h-.85v-8.01h-2.58v-.76h5.98v.76h-2.55ZM86.0502 38.4799c0-.28-.05-.51-.14-.72-.1-.2-.2301-.36-.3901-.49-.16-.12-.36-.22-.57-.28-.22-.06-.4499-.09-.7099-.09h-2.46v3.3h2.41c.53 0 .9699-.15 1.3299-.44.36-.29.5401-.72.5401-1.28m-.25 6.43-1.78-3.96h-2.2601v3.96h-.8599v-8.78h3.49c.36 0 .7.05 1 .16.31.11.5699.27.7999.47.23.21.4001.45.5301.74s.19.61.19.96c0 .62-.19 1.14-.56 1.56-.37.42-.86.7-1.46.85l1.8699 4.03h-.9699l.01.01ZM88.5898 44.9101v-8.77h5.45v.78h-4.59v3.18h3.91v.75h-3.91v3.28h4.59v.78h-5.45ZM98.3 37.2399c-.07.22-.17.53-.32.94-.14.41-.29.85-.45 1.3-.18.51-.36.99-.52 1.47-.16.48-.3.86-.41 1.15h3.44l-.98-2.84-.72-2.03h-.04v.01Zm2.72 7.67c-.13-.35-.25-.69-.37-1.03-.12-.34-.24-.69-.36-1.05h-3.93c-.13.35-.25.7-.37 1.05-.12.35-.24.69-.36 1.03h-.9c.53-1.47 1.06-2.93 1.6-4.39.53-1.45 1.07-2.92 1.61-4.39h.78l3.22 8.78h-.92ZM105.27 36.9001v8.01h-.85v-8.01h-2.57v-.76h5.97v.76h-2.55ZM115.79 44.9099v-6.85h-.02l-.98 2.22c-.04.09-.1.22-.19.4-.08.17-.18.37-.28.58-.1.21-.21.44-.32.67-.11.23-.21.45-.31.67-.1.21-.19.41-.27.58-.08.17-.14.3-.18.4h-.74l-1.56-3.35c-.05-.11-.12-.26-.21-.46s-.18-.4-.28-.62c-.09-.21-.18-.42-.28-.61-.09-.19-.16-.35-.21-.47h-.03v6.85h-.86v-8.78h.87c.05.12.12.28.23.5.1.21.21.45.33.72.12.26.25.54.38.84.13.3.26.57.39.84.13.26.24.51.33.72.1.22.17.38.23.49.05.1.12.26.22.47.1.21.19.44.29.67.1.23.2.45.29.67.1.21.17.37.22.47h.03l1.02-2.27c.05-.12.13-.28.23-.5.1-.21.21-.46.34-.73.13-.27.25-.55.39-.84.13-.29.26-.57.38-.84.13-.27.24-.51.33-.72.1-.21.17-.38.23-.5h.83v8.78h-.86.02ZM118.69 44.9101v-8.77h5.45v.78h-4.59v3.18h3.91v.75h-3.91v3.28h4.59v.78h-5.45ZM128.08 39.9699l-1.51-2.37h-.02v7.3h-.86v-8.78h.86l3.17 4.84 1.58 2.51.03-.03v-7.33h.83v8.78h-.83l-3.24-4.94-.01.02ZM136.83 36.9001v8.01h-.85v-8.01h-2.58v-.76h5.98v.76h-2.55ZM149.27 43.1701c-.22.56-.57 1.01-1.06 1.33-.49.32-1.08.49-1.76.49-.54 0-1-.09-1.39-.26-.39-.17-.71-.41-.96-.7s-.44-.64-.56-1.03c-.12-.39-.18-.8-.18-1.23v-2.51c0-.43.06-.84.18-1.22s.31-.72.57-1.01c.25-.29.58-.53.96-.7.39-.17.85-.26 1.38-.26.68 0 1.26.16 1.74.48.48.32.83.74 1.06 1.27l-.8.37c-.16-.39-.41-.7-.75-.95-.34-.24-.75-.37-1.24-.37-.4 0-.74.07-1.02.2-.29.14-.52.31-.7.54-.18.22-.31.48-.4.77-.08.29-.13.6-.13.91v2.43c0 .32.04.63.13.92.08.3.21.55.39.78.18.23.41.41.69.55.29.14.63.21 1.03.21.5 0 .91-.13 1.25-.38.34-.25.59-.59.76-1.02l.79.38.02.01ZM150.65 44.9101v-8.77h5.45v.78h-4.59v3.18h3.91v.75h-3.91v3.28h4.59v.78h-5.45ZM160.04 39.9699l-1.51-2.37h-.02v7.3h-.86v-8.78h.86l3.17 4.84 1.58 2.51.03-.03v-7.33h.83v8.78h-.83l-3.24-4.94-.01.02ZM168.8 36.9001v8.01h-.86v-8.01h-2.57v-.76h5.98v.76h-2.55ZM172.59 44.9101v-8.77h5.45v.78h-4.59v3.18h3.91v.75h-3.91v3.28h4.59v.78h-5.45ZM184.72 38.4799c0-.28-.05-.51-.15-.72-.1-.2-.23-.36-.39-.49-.16-.12-.35-.22-.57-.28-.22-.06-.45-.09-.71-.09h-2.46v3.3h2.41c.53 0 .97-.15 1.33-.44.36-.29.54-.72.54-1.28Zm-.24 6.43-1.78-3.96h-2.26v3.96h-.86v-8.78h3.49c.36 0 .7.05 1 .16.31.11.57.27.8.47.23.21.4.45.53.74s.19.61.19.96c0 .62-.18 1.14-.55 1.56-.37.42-.86.7-1.46.85l1.87 4.03h-.97v.01ZM192.74 42.5101c0 .38-.07.72-.22 1.03-.15.31-.36.57-.62.78-.27.21-.6.38-.98.5s-.81.18-1.27.18c-.55 0-1.12-.09-1.68-.26-.57-.18-1.08-.45-1.53-.81l.54-.69c.37.31.79.55 1.25.71.46.16.95.25 1.46.25.3 0 .59-.03.85-.1s.5-.17.69-.31c.2-.14.35-.31.46-.52.11-.21.16-.46.16-.76s-.06-.54-.19-.73c-.13-.19-.29-.35-.5-.47-.21-.12-.44-.22-.7-.29-.26-.07-.53-.13-.81-.18-.34-.06-.67-.13-1-.21-.33-.08-.62-.21-.88-.37s-.46-.38-.62-.66c-.16-.28-.24-.64-.24-1.08 0-.39.07-.73.21-1.03.14-.3.34-.55.59-.76.25-.21.55-.37.9-.48.34-.11.72-.16 1.12-.16 1.07 0 1.96.26 2.67.77l-.48.72c-.33-.2-.67-.36-1.04-.48-.36-.12-.75-.18-1.16-.18-.57 0-1.04.13-1.41.4-.37.27-.55.67-.55 1.2 0 .28.06.5.18.68.12.17.29.31.5.43.21.11.47.21.76.28.29.07.61.14.96.21.3.07.61.15.91.23.31.09.58.22.82.39s.44.4.59.69c.15.29.23.66.23 1.11"/>
</svg>
