<svg xmlns="http://www.w3.org/2000/svg" xml:space="preserve" viewBox="0 0 508 311.41459">
  <path d="m11.960397 303.72892-.397135-.15387-1.115456-.81426-1.1154539-.81429-.7057852-1.04507-.7057821-1.04507-.3588732-1.56498-.3588732-1.56493-.1363717-126.92165-.00408-130.162793 3.1108973-1.436969 3.110897-1.436969 7.810339-4.023824 7.810337-4.023814 4.236114-2.349269 4.236118-2.34927 5.781639-3.391498 5.781637-3.391508 5.206314-3.208747 5.206315-3.208747 5.127787-3.2889588 5.127787-3.2889272h.222527l1.066838 1.1546544 1.066838 1.1546347.70965 1.0665093.709651 1.0664798.08316 14.2155408.08317 14.215531H256.56525l183.80971 2.432153 1.39101.423879 1.39101.423881 2.95934 3.123499 2.95937 3.123529.73265 1.274915.73268 1.274946.52337 1.765925.52341 1.765914.25239 1.877793.25239 1.877793.38111.391067.3811.391067 4.7294.523105 3.93422-1.909038 2.25045 1.118626 2.25043 1.118636 2.74107 2.800478 2.7411 2.800437-.0935 14.75171-.0935 14.751682.50897 2.276159.50895 2.27615.61514.750182.61515.750144 2.05299.555351 2.053.555351 3.57421.71733 3.57423.71732 1.72092.38715 1.72092.38717 1.94256.97774 1.94255.97774 2.95233 3.1142 2.95232 3.11416.92978 1.36893.92978 1.36889-.00094 1.67111-.00093 1.67108-.47897.98945-.47899.98946-6.28283 7.7321-6.28284 7.73207-5.32293 6.35671-5.32297 6.35674-4.54047 5.02557-4.54049 5.02556-.71541 1.49476-.71542 1.49479.01 2.44513.01 2.44512.84 1.76591.84001 1.76592 1.9982 3.51302 1.9982 3.51301v1.81463l-2.449 2.75088-2.44901 2.75088-2.74078 3.28848-2.74078 3.2885-.77002 1.35839-.76999 1.35841-.55194 1.76591-.55194 1.76592-.0187 2.85266-.0186 2.85266.34559 1.4942.34558 1.49426 2.41301 2.30075 2.41306 2.30074 2.47178 2.57675 2.47179 2.57672.60617 1.23536.6062 1.23532.29772 1.43967.29772 1.43971v7.87896l.37539.7449.3754.74492 1.54407.49689 1.54412.49692 1.3238.67892 1.32376.67893 1.62471 1.18183 1.62468 1.18183 3.21992 3.47194 3.21994 3.47194.65003 1.36339.65004 1.36341.38806 1.897.38809 1.89704.32531 5.09297.32534 5.09298-.54213.74814-.54209.74815-1.95933 1.01726-1.95934 1.01726-3.57425 1.76336-3.5742 1.76338-1.98569 1.53311-1.9857 1.53307-1.67891 1.66325-1.67891 1.66324-1.65566 2.17345-1.65566 2.17345-2.73343 4.61858-2.73346 4.61853-1.85763 2.85267-1.85767 2.85262-1.34083 1.46312-1.34081 1.46309-1.34031 1.02087-1.34031 1.02086-1.86574.96413-1.86574.96416-2.48625.76204-2.48623.76202-4.50089-.003-4.50087-.003-2.03605-.75378-2.03608-.75378-1.80291-.39199-1.8029-.39202-1.53628-.003-1.53627-.003-1.90557.43391-1.90557.4339-1.8847.91753-1.88467.91752-1.46064 1.61894-1.46063 1.6189-.67626 1.85198-.67623 1.85197-.15336.74712-.15336.74711-199.42333-.0223-199.291032-3.26345zm55.932426-55.91539 1.392347-.66517.695515-.75849.695516-.75849.623313-1.35842.62331-1.35838v-4.0752l-.617353-1.36039-.617355-1.36038-1.015537-.91497-1.015537-.91498-.945907-.41712-.945904-.41716-1.720923-.0159-1.720921-.016-1.036753.36727-1.036752.36723-1.117506 1.05703-1.117505 1.05701-.531248 1.28425-.531248 1.28425-.181889 1.14237-.181889 1.14236.304235 1.5038.304236 1.5038.842238 1.29321.842238 1.29317 1.69581.88296 1.695813.88298 1.613653-.003 1.613655-.003zm-4.039921-1.97371-.529515-.13603-.695442-.5063-.695441-.50628-.429779-.92939-.429775-.92937v-3.88422l.387626-.76919.387627-.76921.824096-.71153.824092-.71158h2.853278l.929434.83741.929432.83737.269713.99646.269713.99646-.0044 1.49421-.0044 1.49425-.514759 1.16384-.514761 1.1638-1.134157.52823-1.134161.52821-.529516-.0255-.529514-.0255zm20.234373 2.11158.610033-.33504-.151531-.95822-.151521-.95824-.122688-.12584-.122726-.12583-1.489113.31729-1.489112.31729-1.003075-.17394-1.003068-.17393-.8407-.52465-.84069-.5246-.526113-.88544-.526102-.88545-.00097-1.84258-.000971-1.84257.36718-.90176.367189-.90177.884483-.64627.884494-.6463 1.783219-.10322 1.783218-.10353.847025.30295.847016.30296.111696-.11469.111705-.11468.144108-1.10261.1441-1.10264-.762088-.31283-.762087-.31282-2.382811-.016-2.382812-.016-1.262995.62541-1.262997.62537-1.018477 1.1873-1.01848 1.18732-.3661 1.29321-.366099 1.29323.04272 1.73494.04272 1.73499.757523 1.52518.757525 1.52521 1.28201.88324 1.282012.88329.830095.2644.830087.2644 2.266595-.0918 2.266587-.0918zm95.201585-.42147 1.27403-.81184.55348-1.08671.5535-1.08671v-10.86723l-1.52235-.0815-1.52236-.0815-.002 4.83587-.002 4.8359-.28157 1.04051-.28157 1.04049-.95117.40782-.95116.40783-.83786-.1612-.83784-.16119-.50934-.38161-.50931-.38163-.13237-5.6598-.13238-5.65982H170.0195v10.86723l.72425 1.26421.72424 1.26421 1.39381.72327 1.39382.72326 1.87908-.0889 1.87909-.0889zm15.52837.4654.70376-.29404-.21728-.98859-.21728-.98863-.13727-.1408-.13726-.1408-1.39423.30677-1.39425.30678-1.14624-.17649-1.14624-.17648-.85344-.58478-.85344-.58476-.47962-.94549-.4796-.94546.10259-2.06511.1026-2.06513.57037-.82192.57037-.82197.90568-.44101.90569-.44102h3.10056l.83448.24562.83448.24561.153-.58517.15298-.5852.004-.618.004-.61802-.72809-.29976-.72807-.29977-2.38282-.0192-2.38281-.016-1.32379.7061-1.32379.70608-.71389.77245-.71388.77245-.56362 1.30795-.56362 1.30792-.01 1.72033-.01 1.72036.3337 1.04693.33373 1.04696.57379.87243.57379.87245.72627.58622.72627.58621 1.24194.51429 1.24194.51426 2.25045-.10067 2.25043-.10067zm89.55991-.0707 1.45751-.5596 1.07277-1.25057 1.07274-1.25057.42556-1.50212.42553-1.50208-.15989-1.75713-.15987-1.7571-.6302-1.24719-.63017-1.2472-1.29242-1.01303-1.29241-1.01302-1.38575-.29531-1.3858-.2953-1.26472.18539-1.26471.18541-1.30338.71536-1.30336.71536-.75543 1.06937-.75544 1.06939-.42291 1.49281-.42292 1.49283.16639 1.6338.1664 1.63381.55144 1.16896.55147 1.16896 1.07159.94123 1.07159.94122 1.08939.39644 1.08938.39645 1.38004.0223 1.38005.0223zm-3.99709-2.17148-.83851-.26123-.67686-.82548-.67689-.82545-.3002-1.14228-.3002-1.1423.14498-1.25991.14498-1.25991.39721-.9755.39721-.9755.87638-.54831.87639-.54827 1.37114-.00097 1.37111-.00097.91923.88961.91922.88958.32018 1.21592.3202 1.21592-.14342 1.4375-.14343 1.43752-.48134.84339-.48135.84336-.66807.51095-.66812.5109-.92042.1166-.92046.11628zm37.50739 2.16634 1.19141-.55276.88365-.86758.88369-.86759.57177-1.08671.57178-1.08675.0007-2.60227.00075-2.60226-.79995-1.32771-.79995-1.32773-1.10816-.86731-1.10817-.86733-1.39953-.30805-1.39952-.30805-1.3625.17458-1.36248.17457-1.31868.77283-1.31867.77281-.81507 1.26274-.8151 1.26271-.31184 1.53669-.31184 1.53667.28623 1.58548.28654 1.58549.67965 1.19002.67963 1.19005.87859.68764.87858.68766 1.03499.38911 1.03503.38916 1.58853.0127 1.58854.0128zm-4.07213-2.14923-.7627-.24657-.63558-.61272-.63557-.61269-.41931-1.48018-.41935-1.48016.15801-1.18215.15803-1.18218.53706-1.08024.53707-1.08028.77853-.4131.7785-.41312h2.65545l.90044.81125.90042.81125.33639 1.2329.3364 1.23289-.14716 1.66513-.14714 1.66516-.50112.68873-.50112.68872-.65171.49933-.65175.49931-.92047.11754-.92044.11755zm70.7714 2.18132.61005-.33504-.15149-.95823-.15151-.95823-.12261-.12583-.12263-.12584-1.48911.31728-1.48914.31729-1.00307-.17392-1.00305-.17394-.84072-.52464-.84067-.52461-.52611-.88545-.52612-.88544-.00096-1.84259-.00098-1.84255.36719-.90177.36716-.90178.88453-.64627.88448-.64629 1.78322-.10322 1.78322-.10353.84701.30295.84702.30296.11176-.11468.11177-.11469.14403-1.10261.14406-1.10264-.76212-.31282-.76208-.31283-2.38281-.016-2.38282-.016-1.263.6254-1.26298.62536-1.01847 1.18731-1.01847 1.18733-.3661 1.29319-.36612 1.29324.0429 1.73495.0425 1.73499.75751 1.52517.75755 1.52522 1.282.88323 1.28202.88328.83009.26441.83006.26441 2.26661-.0918 2.26659-.0918zm11.86983-.13794 1.39234-.66516.69552-.75849.69551-.75851.62332-1.3584.6233-1.35838v-4.07521l-.61774-1.35841-.61779-1.35841-1.06596-.98601-1.06595-.98601-1.02745-.3608-1.02745-.36081h-3.17711l-1.03672.36397-1.03677.36395-1.1175 1.05702-1.11751 1.05701-.60818 1.42009-.60824 1.42008.0186 1.90176.0186 1.90178.45303 1.0867.45307 1.08673.67033.91124.67034.91125 1.62025.78652 1.62023.78656 1.58855-.002 1.58858-.002zm-4.02888-1.97279-.51851-.13508-.62197-.4182-.622-.41818-.51427-1.0344-.51424-1.0344v-3.85215l.38762-.7692.38762-.76919.8241-.71154.82408-.71157h2.85329l.92944.8374.92941.83737.26978.99646.26978.99645-.003 1.49423-.003 1.49425-.51478 1.16383-.51474 1.1638-1.13415.52825-1.13417.5282-.52953-.0255-.52949-.0255zm-372.486978.86872.461676-1.50291 2.772799.0764 2.7728.0765.44127 1.35837.441266 1.35842 1.63293.0809 1.63293.0809v-.33066l-1.764689-4.80576-1.764688-4.80573-.841631-2.30929-.841637-2.30928-1.613936-.0806-1.613936-.0802-.269621.51697-.26962.51695-2.239424 6.08384-2.239418 6.0838-.280206.74712-.280208.74712H19.479018zm1.418683-4.14488v-.21407l.896696-2.7064.896698-2.70641.160934.40754.160935.40751.795662 2.42817.795665 2.42817v.1694H21.359352zm18.546458 4.93265 1.204858-.56485.951694-.85747.951694-.85744.55721-1.21639.557207-1.21643v-3.7474l-.737807-1.45733-.737811-1.45736-1.274094-.88041-1.274097-.88044-1.345612-.41008-1.345618-.41005H31.684898v14.72405l3.508033-.10193 3.508034-.10163zm-5.043837-6.61965v-4.96564l1.499479.18093 1.499478.18095.984502.5678.984504.56778.590155 1.07751.590154 1.07749-.104681 1.68675-.104683 1.68676-.581436.83792-.58144.83791-.949931.46254-.949927.46257-1.438101.15226-1.438099.15227zm20.03577.40693 2.208346-6.79202.147958-.47546.147957-.47542H54.172183l-.231468.61129-.231467.61125-1.395847 4.81908-1.395845 4.81908-.103191-.10577-.103224-.10577-1.543081-5.25652-1.543079-5.25653-1.615875-.0809-1.615871-.0809v.4224l2.316298 7.1477 2.316297 7.14771 1.831786-.0783 1.83178-.0783zm34.696157 5.5015.527607-1.4263 2.766302-.0764 2.766299-.0765.461684 1.50291.461674 1.50288h3.150022v-.66076l-1.216215-3.26939-1.216212-3.26938-1.372915-3.66766-1.372915-3.66771H91.170447l-1.154384 3.12433-1.154374 3.12433-1.451305 3.93937-1.451295 3.93936.000514.20389.000524.20388h3.10618zm1.396607-4.09224v-.0847l.795655-2.42818.795665-2.42817.160941-.40751.160931-.40754.896698 2.70642.896698 2.70639v.42816H90.9905Zm15.09116-.59432v-6.11282h3.7066v-2.45636l-5.36133.0735-5.361338.0735-.08139 1.15466-.08139 1.15463H102.90464v12.22562H106.08173zm14.03213 4.89025v-1.22258H114.55392V241.9637h5.32559l-.0814-1.15463-.0814-1.15463-2.58138-.0777-2.58139-.0777v-3.51218H120.14429l-.0814-1.15462-.0814-1.15466h-8.47227l-.0705 7.26744-.0705 7.26745h8.74563zm33.35942 0v-1.22258h-5.5841l.0783-1.83383.0783-1.83384 2.58139-.0777 2.58139-.0777v-2.42547h-5.32042l.0789-1.69799.0788-1.698 2.71377-.0774 2.71377-.0773v-2.43959l-4.30231.0746-4.30231.0746-.0705 7.26745-.0705 7.26744H153.47335zm9.88566.67299 1.73395-.54958 1.17931-1.21016 1.17931-1.21014.42408-1.27715.42408-1.27719v-2.42113l-.31474-1.07798-.31475-1.07798-1.13361-1.29384-1.13363-1.29384-1.39777-.63374-1.39777-.63374-3.44184-.016-3.44185-.016-.0708 6.92318-.0709 6.92317.12874.34427.12874.34426h5.78551zm-4.32575-6.74781v-4.92825h1.49242l1.31635.40114 1.31634.40113.70055.7535.70055.75352.2816.7648.2816.76481v2.23821l-.52954 1.12249-.52953 1.12248-1.06379.61348-1.06377.61352-1.45138.15355-1.45139.15355zm41.08646 5.7352.51742-1.4263h5.49584l.45901 1.49422.45903 1.49424h3.40178l-.18236-.47542-.18235-.47545-2.12165-5.70528-2.12167-5.70529-.39677-1.15466-.3968-1.15463h-3.3354l-.17298.46259-.17298.46258-1.30091 3.5447-1.30089 3.54471-1.20202 3.23378-1.202 3.23382v.2147l1.61913-.0809 1.61915-.0809zm2.28718-6.87129.9658-2.99983.11187.35097.11185.35095.86716 2.64888.86716 2.64887h-3.88964zm14.34342 2.32066v-6.11282h4.00182l-.0813-1.15463-.0813-1.15465h-10.85505l-.0814 1.15465-.0814 1.15463H213.57338v12.22561H216.75047zm14.03214 4.89025v-1.22258H225.22244V241.9637h5.29514v-2.44512h-5.32041l.0789-1.698.0789-1.698 2.71377-.0774 2.71374-.0774v-2.43957l-4.30228.0746-4.30232.0746-.0704 7.26745-.0704 7.26745H230.78272zm23.29859-1.19709v-2.4196l1.38999-.18096 1.38998-.18094 1.32376-.65215 1.32381-.65217.56392-.89025.56392-.89028.14746-.8317.14746-.83168-.23128-1.07008-.23129-1.07008-1.0741-.98604-1.07411-.98608-1.17819-.30454-1.17818-.30455h-5.06067V248.21235h3.1771zm0-7.53142v-2.344l1.09221.17935 1.09217.17935.50904.2797.50903.27938.25239.68152.2524.68154-.16268.66465-.16267.66464-.66786.53908-.66783.53906h-2.04666zm11.38459 7.3701v-2.58096h.76163l1.93581 2.56379 1.93581 2.56379 1.91949.016 1.91948.016v-.30391l-2.23523-2.74419-2.23525-2.74416 1.12912-.73479 1.12908-.73476.47445-1.02599.47445-1.02599-.13348-1.21512-.1335-1.21516-.51589-.7161-.5159-.71606-1.16794-.67023-1.16796-.67018-3.37568-.10831-3.37564-.10832V248.21036h3.17708zm0-7.30065v-2.34401h1.60555l.89684.3845.89684.38454.30362.58231.30361.58229-.17199.80383-.17199.80382-.74444.39502-.74444.39506-1.0868.17839-1.08684.1784zm28.09536 8.31944.031-1.56217.16732-2.70765.16765-2.70764 1.41341 3.0596 1.41343 3.05959 1.63128-.0803 1.6313-.0802 1.34503-2.84985 1.34503-2.84985.17446 1.08393.17448 1.08394.006 2.03759.006 2.03761.16422 1.0188.16423 1.01879h3.15747l-.1515-1.29047-.1515-1.29049-.41773-5.70528-.41777-5.70529-.10928-.33961-.10927-.33959h-2.64483l-1.13229 2.51303-1.13227 2.51306-.95978 2.03761-.95973 2.03758-2.13461-4.55062-2.13462-4.55066h-2.66186l-.13225.88296-.13225.88295-.27195 3.80353-.27165 3.80355-.17384 2.64887-.17384 2.64887h3.24962zm36.24066-4.55063v-6.11282h3.70661v-2.44512h-10.85506v2.42132l1.91948.0797 1.91951.08.0714 6.04489.0711 6.04488H329.80156zm14.03212 4.89025v-1.22258H338.27377V241.9637h5.03037v-2.44512h-5.03037v-3.51282l2.71374-.0774 2.71377-.0774v-2.17346l-4.30231-.0746-4.30229-.0746v14.6842H343.83366zm9.796-1.35841v-2.58096h.78441l2.00236 2.58096 2.00236 2.58095h3.68311v-.30901l-2.22611-2.77734-2.22609-2.77735.94707-.53213.94705-.53213.52827-.73587.52826-.73585.11237-1.43758.11239-1.4376-.62956-.95087-.62951-.95088-1.18117-.67825-1.18116-.67825-3.37564-.0962-3.37568-.0962V248.21213H353.62948zm0-7.30065v-2.34401H355.2075l1.0668.43802 1.06682.43799.15864.64873.15863.64871-.16485.67424-.16485.67427-.76262.40469-.76265.40472-1.08683.17839-1.08683.1784zm18.53302 8.65906v-1.22258H366.60279V241.9637h5.03037v-2.44512h-5.03037v-3.53184h5.29515v-2.44512H363.42569V248.21235h8.73699zm39.36307-5.70529 2.20834-6.79202.14808-.47545.14808-.47543h-3.22586l-.25052.67644-.25053.67644-1.38436 4.76201-1.3844 4.76203-.18005-.34447-.18007-.34442-.6951-2.44513-.69509-2.44512-.76029-2.58099-.76027-2.58095-1.62096-.0809-1.62091-.0809v.42241l2.31631 7.1477 2.31629 7.1477 1.83178-.0783 1.8318-.0784zm12.52935 5.70529v-1.22258H418.49521V241.9637h5.03037v-2.44512h-5.03037v-3.53184h5.29512v-2.44512h-8.4722V248.21235h8.73697zm5.29515-1.35841v-2.58096l.46332.016.46333.016 1.93581 2.56379 1.9358 2.56379h3.67396v-.3243l-2.2218-2.772-2.22181-2.77197.94275-.52976.94277-.52977.52827-.73588.52829-.73584.11238-1.43757.11237-1.43762-.62951-.95087-.62955-.95088-1.18114-.67824-1.18119-.67826-3.37564-.0962-3.37568-.0962v14.7253H429.3501zm0-7.33848v-2.38186l1.30356.15832 1.30358.15832.55956.35488.55957.35485.15118.61129.15119.61129-.16485.67424-.16485.67427-.76263.40469-.76263.4047-1.08685.17839-1.0868.1784zm15.35591 7.25961v-2.65987l2.25044-4.39766 2.25044-4.39768v-.55557h-3.19888l-1.4159 3.05641-1.41588 3.05641-1.40324-3.05641-1.40327-3.05641h-3.34168V233.82591l2.25044 4.43132 2.25045 4.43129v5.5239h3.17708zm-312.52567-2.2985.9391-.88312.12995-1.08657.12994-1.08655-.54921-.89931-.54922-.89929-.94827-.40659-.94828-.40658-.77318.17425-.77319.17426-.76544.66092-.76544.66091-.17529 1.0647-.1753 1.06466.41907.90623.41905.90618.72658.4623.72658.46225.99673.006.99673.006zm109.99505.471.77663-.41213.40162-.79695.40164-.79694V239.78228l-.90632-1.0148-.90631-1.01482H239.62837l-.73854.49658-.73855.49658-.39004.95787-.39001.95791.16578.77414.16577.77414.54775.7146.54778.7146.55914.23191.55914.23191.74125.016.74122.016zm201.4716-79.3261V118.3491H18.447036v92.09967H443.64714Zm-423.346802 0v-44.14805h83.398522v88.29613H20.300338Zm34.153681 20.98135v-13.38623l6.044094-.0408 6.044095-.0409 2.279012-.55541 2.279017-.55544 1.643749-.68535 1.643745-.68539 1.351515-.88012 1.351521-.88011 1.430805-1.36422 1.430815-1.36428 1.268165-1.9813 1.268157-1.98129.56194-1.5412.561942-1.54118.510018-2.18281.510027-2.18282.0019-2.87709.0019-2.87709-.521165-2.09107-.521175-2.09102-1.066176-2.10291-1.066187-2.10292-1.461142-1.80637-1.461142-1.80636-1.649189-1.27213-1.649183-1.27214-1.529605-.79234-1.529601-.79233-2.443518-.72319-2.443514-.7232-14.098322-.10226-14.098322-.10226v68.76961H54.454113zm0-33.82876v-7.34641l2.03429-.19559 2.034294-.19561 2.426917.17522 2.426919.17488 1.268821.44363 1.268822.44364 1.007199 1.03353 1.007196 1.03355.45391.89741.453905.89739.119024 1.90179.119024 1.90174-.317831 1.22259-.317836 1.22257-1.366239 1.36214-1.366241 1.36213-1.059027.36189-1.059029.36186-4.567061.14398-4.567063.144zM188.9507 164.39893v-44.14805h84.19278v88.29613H188.9507Zm29.38803 20.91941v-13.44818h24.35767V198.7665h16.15221l-.0673-34.29965-.067-34.29965H242.8289l-.0686 13.38026-.0686 13.38027h-24.34764l-.0686-13.38027-.0686-13.38026-7.87654-.072-7.87652-.072v68.74322h15.88542zm140.05656-20.91941v-44.14805h83.39857v88.29613h-83.39857zm25.91254 34.43549.55452-.47542 2.38558-6.92787 2.38555-6.92782.002-.33962.002-.33959h20.32965l.17975.47542.17974.47546 2.11969 6.0974 2.11968 6.0974.49681.9993.49683.99932.60766.16693.60767.16692 7.21464.003 7.21463.003v-.7411l-.88716-2.41416-.88715-2.41419-1.59817-4.34686-1.5982-4.34691-3.10065-8.42208-3.10069-8.4221-2.59592-7.0637-2.5959-7.0637-3.10128-8.4221-3.1013-8.42207-1.17537-3.26017-1.1754-3.26015-.31594-.31984-.31594-.31987-5.09178-.0863-5.09182-.0863-.64467.67794-.64467.67793-3.96765 10.86722-3.96767 10.86723-3.83979 10.45971-3.83982 10.45968-3.69781 10.05219-3.69783 10.05216-.92836 2.44511-.92834 2.44516.1161.20387.11611.20388h14.20697zm9.8297-28.69099v-.0966l2.41127-7.1708 2.41126-7.17082.44921-1.48924.44918-1.48932.20178.53841.2018.53839 1.98337 5.84112 1.98336 5.84116.77903 2.25554.779 2.25558v.24338H394.13746zm-73.07298 29.27194-.66189-.10416-2.38282-.30455-2.38281-.30454-2.43603-.76844-2.43599-.76843-1.93248-.92393-1.93252-.92389-1.55784-.97161-1.55784-.97162-2.10276-1.69962-2.10279-1.69962-1.60006-1.78494-1.60006-1.78492-1.25472-1.90176-1.25469-1.90178-.7325-1.48463-.73248-1.48459-.64421-1.75624-.6442-1.75623-.64839-2.73612-.64843-2.73612-.16546-3.93938-.16547-3.93936.29399-2.71679.29399-2.71683.66438-2.61246.66438-2.61247.80803-1.94851.80801-1.94852 1.1787-2.04576 1.17866-2.04578 1.614-2.02684 1.614-2.02689 1.884-1.66388 1.88395-1.66388 1.99802-1.34195 1.99802-1.34193 1.72092-.81304 1.72092-.81303 2.04433-.78226 2.04433-.78226 2.98608-.61333 2.98603-.61336 4.89801-.006 4.89803-.006 2.84477.62576 2.84478.62571 2.19603.76172 2.19601.76172.81638.4332.8164.43323.1453.57028.14529.57029-1.02404 4.80629-1.02403 4.80628-.30176 1.58223-.30174 1.58224-.44049-.19656-.44052-.19655-2.30698-.91201-2.30696-.91201-1.79676-.45306-1.79675-.4531-4.10374-.0127-4.10375-.0127-1.72092.46715-1.72091.4671-2.49539 1.25772-2.49538 1.25771-2.16308 2.20591-2.16308 2.20592-.92825 1.64365-.92827 1.64365-.67826 1.75234-.67822 1.75238-.45576 2.82395-.4558 2.82399.16453 1.99579.16455 1.99579.43949 1.83642.4395 1.83641.75047 1.72418.75045 1.72415 1.18041 1.69746 1.18041 1.69743 1.49618 1.40323 1.49622 1.40321 1.7726 1.08062 1.77261 1.08059 1.93852.67659 1.93858.67661 2.28806.31378 2.28807.31377 3.70661-.1529 3.7066-.15291 2.87161-.84037 2.87157-.84037.80778-.42866.80778-.42862-.17168 2.13316-.17168 2.13318-.44999 4.7215-.45001 4.72154-.33985.34872-.33984.34873-2.0561.69406-2.0561.69401-1.72094.29467-1.72092.29468-4.2361.0908-4.23614.0908zm-177.02461-1.02548-.82868-.38476-.22889-.36643-.22889-.36645-7.42483-17.77588-7.42483-17.7759-.27256-.0934-.27257-.0934-.33407 6.05102-.33407 6.05105-.10592 1.35841-.10593 1.35838-.27638 4.61857-.2764 4.61858-.39769 5.16191-.3977 5.16194-.14177 1.15462-.14175 1.15467h-12.41115v-1.14297l.26931-3.97919.2693-3.97915.39331-5.02609.39332-5.02606.5224-7.60708.52241-7.60704.38508-5.0261.38507-5.02608.16637-2.85266.16637-2.85265.23515-2.7168.23513-2.71678.15461-2.17345.15463-2.17346.2524-3.26016.25238-3.26016.004-.61128.004-.61127h11.64931v.47657l5.91774 13.821 5.91775 13.82099 2.98868 6.99578 2.98869 6.99578h.36502l1.81335-4.41482 1.81336-4.41479 3.82388-9.10132 3.82387-9.10127 1.27755-2.98849 1.27756-2.9885 1.94732-4.48271 1.94732-4.48273 5.34758-.0735 5.3476-.0735.002.48105.002.48106.50528 6.24866.50527 6.24866.16256 2.71677.16254 2.71683.51634 6.65619.51632 6.65616.53385 7.33537.53385 7.33539.27114 3.8035.27115 3.80354.39286 5.43361.3929 5.43361.14758 1.15464.14757 1.15465h-13.45507l-.16726-2.64891-.16726-2.64886-.40215-6.11282-.40213-6.11279-.51447-6.92786-.51447-6.92786-.17323-2.6627-.17323-2.66273-.26657.091-.2666.091-.66225 1.62064-.66226 1.62066-2.91672 7.06369-2.91673 7.06369-2.64615 6.3845-2.64615 6.38448-1.17784 2.85263-1.17783 2.85266-.50666.53013-.50664.5301-1.66028.0854-1.66028.0854z" style="fill:#fefefe;stroke:none;stroke-width:6.28954;stroke-dasharray:none;stroke-opacity:1"/>
  <path d="M0 301.03261V40.09747l.78075-1.23111.78075-1.2311 1.27191-.92483 1.27191-.92483 3.31074-1.50406 3.31074-1.50406 7.54849-3.7644 7.54849-3.76437 4.50261-2.46464 4.5026-2.46463 4.86268-2.77026 4.86268-2.77026 7.18842-4.30376 7.18842-4.30376 5.08741-3.0857L69.10602 0h2.16743l.84764.42815.84764.42811 1.38545 1.03337L75.73964 2.923l2.41295 2.82259 2.41296 2.82259.29706.68202.29705.68203.0961 11.32275.0961 11.32272 179.75325.003 179.75326.006 1.79304.37997 1.79303.37995 1.57164.83768 1.57167.83768 3.42785 3.52366 3.42788 3.52365.84625 1.23002.84629 1.22999.73867 1.63881.73868 1.63882.18447.85755.18448.85756.67752.53296.67756.53293h.81834l2.93206.69569 2.93206.6957 1.71969.77358 1.71971.77361 1.8559 1.42285 1.8559 1.42285 1.86204 1.94155 1.86205 1.94155.7456.98511.74557.98511.52796 1.66347.52793 1.6635-.18479 14.21115-.18479 14.21113.67234.44053.67234.44054 2.20379.37863 2.2038.37864 2.51615.55309 2.51619.55305 1.854.5369 1.854.53687 1.19633.60523 1.19632.60522 2.37929 2.10746 2.37926 2.10745 2.19801 2.41134 2.19802 2.41138.92371 1.53359.92371 1.53356.5201 1.68329.5201 1.68325-.006 2.15721-.006 2.15718-.65311 1.8512-.65315 1.85118-1.18657 1.7244-1.1866 1.72441-4.42854 5.29719-4.42858 5.29719-7.0156 8.21065-7.0156 8.21062-1.19971 1.3243-1.19971 1.32431-2.7929 3.00271-2.7929 3.00269-.20186.53886-.20187.53883.3587.69619.35873.69622 1.38537 2.25131 1.38536 2.2513 1.02377 2.13466 1.02374 2.13466.30187 1.73366.30187 1.73366-.28013 1.51605-.28013 1.51605-.73346 1.34946-.73349 1.34943-2.52814 2.6687-2.52814 2.66868-2.26025 2.64858-2.26025 2.64861-.77365 1.17231-.77364 1.17229v4.16338l2.63007 2.44047 2.6301 2.44048 1.95074 2.23077 1.95074 2.23075.89114 1.87456.89116 1.87457.42236 1.98642.4224 1.98646.23448 2.18705.23447 2.18702.42023.64135.42022.64131 1.52919.81728 1.52921.81728 1.78674 1.34077 1.78673 1.34076 1.9213 1.92158 1.92127 1.92159 1.48847 1.83235 1.48847 1.83236 1.21701 1.7909 1.217 1.79092.41246 1.38742.41243 1.38741.25156 2.38373.25156 2.38373.3114 4.25416.3114 4.2542-.13696 1.83757-.13696 1.83758-.75047 1.57089-.75048 1.57092-1.41589 1.41589-1.41589 1.4159-3.36409 1.59996-3.36406 1.59993-1.72158.83225-1.72157.83224-1.58916 1.05188-1.58915 1.05188-1.27058 1.0634-1.27055 1.06337-1.41452 1.73584-1.41456 1.7358-4.3946 7.05197-4.39457 7.05194-1.69154 2.09509-1.69155 2.09509-1.55829 1.33704-1.55828 1.33707-1.68872 1.13601-1.68875 1.13605-2.28417 1.05877-2.28413 1.05874-3.04589.77306-3.04588.77305-2.71479.28696-2.71483.28696-2.71479-.29721-2.71482-.29721-2.25131-.68563-2.2513-.6856-1.45673-.40218-1.4567-.40221-1.53059.13634-1.53055.13634-1.25008.62038-1.25008.62035-.58299.8802-.58299.8802-.16708 1.23865-.16708 1.23868-.27113.92701-.27112.92703-.61669.96066-.61665.96067-1.39409.6947-1.39409.6947-202.10184-.0124-202.10183-.0124C7.0510715 311.46083.02004588 304.82794 0 301.03261Zm311.65529 2.76184 100.16517-.00087.21118-.59591.21119-.59594.041-.26491.041-.26491.0637-.19876.0637-.19876.0661-.26491.0661-.26492.0661-.1323.0661-.1323.0662-.26491.0661-.26491.0332-.39988.0332-.39988.51615-.44193.51613-.44197-.13447-.2177-.13448-.21771h.56088v-.66581l.99324-.86862.99322-.86861.31991-.25529.31988-.25528h.37764l.45473-.41153.45473-.41153.55936-.0422.55935-.0422v-.50529l.17423.17423.17422.17423.35544-.29504.35544-.29504v.39442l.37939-.31482.37935-.31485 1.27602-.15932 1.27601-.15932 1.58915-.006 1.58916-.006 1.40943.16615 1.40943.16615.37836.31402.37836.31401v-.39442l.35544.29504.35544.29503.17423-.17422.17422-.17423v.67467l.39727-.15249.39731-.15249V294.81853l.2236-.1382.22361-.1382 1.00138.2764 1.00138.2764.56293.15528.5629.15529 3.04588.006 3.04589.006.66215-.16522.66215-.16522 1.25806-.24752 1.2581-.24752V294.89451l.29721-.29721.29721-.29721.365.14007.36504.14006v-.6174l.24659.15249.24658.15248.16895-.2736.16895-.27361.22826.141.22827.14099.1618-.26211.1618-.26212 1.03632-.2792 1.03635-.27888.34846-.34846.34845-.34848.65669-.36351.65668-.36352.13882-.009.13883-.009.39075-.34125.39078-.34122 1.02654-.91684 1.0265-.91688h.42734l.14721-.46348.1472-.46352 1.00073-1.05943 1.0007-1.05945.36892-.7239.36892-.72389.48736-.52311.48737-.52312v-.45218l.54004-.57966.54001-.57967-.20901-.003-.20901-.003.3973-.25125.39731-.25124v-.47951l.66212-.86399.66215-.86399.009-.16398.009-.16398.36034-.66215.36035-.66212.3642-.21491.3642-.21491-.15373-.24845-.15373-.24845h.59224l-.14503-.23479-.14503-.23478.39435-.32731.39439-.32727v-.72973H465.82762l.15094-.60119.15093-.60122.60619-.65066.60619-.65066v-.40808l.79458-.84185.79457-.84188V269.63963l.59591-.4174.59594-.41743V268.11712l1.44242-1.29651 1.44238-1.29651 1.21011-1.05942 1.21011-1.05943.26833.0686.26833.0686.15341-.39976.15342-.39972h.7379v-.52983H477.80386v-.56087l.26491.16366.26491.16367v-.52672l.927-.33522.927-.33519v-.45466l.26491.16366.26491.16367v-.59194l.26492.16367.26491.16367v-.50374l.72836-.20466.72837-.20466.19876.0435.19876.0435v-.61802l.16739.16739.1674.1674 1.11327-.65244 1.11331-.65243.17609.17609.17609.17609v-.64926l.26491.16366.26491.16367V257.4147l.26491.16366.26491.16367v-.52547l.52604-.16709.526-.16708.766-.76601.76604-.766-.14441-.14441-.14441-.14442.24286-.00012.24286-.00012-.0575-2.44982-.0575-2.44982-.1264-1.72161-.1264-1.72158-.12795-.927-.12795-.927-.26026-1.19188-.26056-1.19185-.16336-1.04834-.16335-1.04834-.32377-.2056-.32376-.20559.2174-.003.2177-.003-.41622-.41619-.41621-.41621v-.68253l-.66216-.49727-.66212-.49725V236.95308l-1.25809-1.23552-1.25809-1.23554-.82269-.89934-.82271-.89936-1.13362-.927-1.13359-.927-.43547-.3973-.43547-.39728-.72033-.37584-.72032-.37581v-.47144l-.26491.16367-.26491.16366v-.51864l-.79458-.17453-.79457-.17454v-.51864l-.24224.14969-.24224.14969-.0888-.2587-.0888-.2587-.66216-.1205-.66215-.12049v-.0802l-.4483-.0863-.4483-.0866-.4787-.35675-.4787-.35674-.12112-.39731-.12112-.39727-.0311-3.70804-.0311-3.70803-.30373-1.32428-.30373-1.3243-.13199-.6289-.13199-.62892-.47236-.6642-.47237-.6642-.2674-.42849-.26739-.42845-2.41032-2.38376-2.41031-2.38374-1.16269-1.05069-1.16272-1.0507-.61781-.43889-.6178-.43892.0882-.14441.0882-.14442-.63827-.67938-.63827-.67942-.10124-.86486-.10125-.86489.00025-3.04589.00025-3.04588.15528-1.04694.15528-1.04694.25032-.30156.25031-.30156-.17423-.17422-.17422-.17423h.64926l-.14969-.24224-.14969-.24224.26926-.0898.26926-.0898.12484-.64793.12485-.64793.40234-.22516.4023-.22516v-.59131l.46352-.50616.46348-.50616.72837-.70069.72836-.70069v-.5584l.72837-.71078.72836-.71076.99023-1.13601.99027-1.13601 1.52592-1.61552 1.52589-1.61552.69501-.82365.69501-.82365-.14317-.14317-.14317-.14317.24286.00019.24287.00016-.0248-.86098-.0249-.86094-.19037-.59591-.19038-.59594h-.52547l.16367-.26492.16366-.26491h-.47578l-.35361-.72836-.35357-.72837.0463-.19876.0463-.19876h-.52982v-.72973l-.39438-.3273-.39439-.3273.1146-.1851.11429-.1851-.65455-.76175-.65454-.76175-.15373-.61224-.15373-.61225h-.50373l.16367-.26491.16366-.26491h-.56088l.0562-.19876.0562-.19876-.33339-.60141-.33336-.60137-.0559-2.13761-.0556-2.13761.20466-.12671.20466-.1264-.15963-.25808-.15963-.25808.42622-.65051.42622-.6505-.20467-.009-.20466-.009.46908-.27298.46907-.27299-.15373-.24845-.15372-.24845h.56087v-.55342l.92573-.98142.9257-.98141 1.88689-1.92021 1.88689-1.92025h-.45715l1.58742-1.58661 1.58738-1.5866 1.12564-1.20338 1.12567-1.20337V145.20918l.927-.70706.927-.7071v-.61522l.72837-.74014.72836-.74016.72837-.7193.72836-.71933v-.64053l.79458-.56579.79458-.56578V137.9428l.72836-.74734.72837-.74731.66215-.83548.66212-.83551.72836-.70132.72837-.70128v-.56221l.72836-.68324.72837-.68324.73107-.89868.73103-.8987.59327-.73151.59324-.7315.66212-.7883.66216-.78831.66215-.81752.66215-.81753.72837-.70132.72836-.70128v-.46771l.66215-.52085.66216-.52084V121.43308l.52969-.33081.52973-.33081v-.57579l.55454-.7788.55458-.7788.0873-.45395.0873-.45395h.0864l.0761-1.25806.0758-1.2581h-.55094l.16149-.16149.16149-.16149-.64712-1.02508-.64709-1.02508v-.26957l-2.11888-2.02437-2.11888-2.02435v-.62051l-.86079-.80821-.86079-.80824-.46349-.16243-.46351-.16242V105.41418h-.55778l-.95718-.65042-.95719-.65044-.2205.13634-.2205.13633v-.64926l-.17423.17423-.17423.17422-.35544-.29503-.35544-.29504v.26025l-1.52294-.38065-1.52294-.38063-.66215-.13665-.66216-.13665-.54308-.0618-.54308-.0618-.31771-.19627-.3177-.19628-.20622.12733-.20621.12733-1.714-.38404-1.714-.38404-.26492-.0662-.26491-.0661-.33109-.20684-.33106-.20683-.24659.15248-.24658.15249-.17765-.28727-.17764-.28727-.3446.1323-.3446.1323-.15777-.15777-.15776-.15777-.65803-.0702-.65802-.0702-.67085-.72386-.67085-.72386.14721-.46426.14721-.46426-.26398-.16305-.26398-.16336.13882-.36202.13882-.36202-.28727-.17765-.28727-.17764.16025-.25932.16025-.25932-.19099-.45081-.191-.45082-.15373-.66215-.15373-.66215-.002-6.88633-.002-6.88635.20311-6.76706.20311-6.76702-.38771-.74734-.38774-.74734-.94839-.78176-.9484-.78175v-.756h-.4379l-1.30396-1.17769-1.30397-1.17769-.31991-.2792-.31988-.27888h-.32236l-.90933-.69358-.90937-.69359v.30436l-1.09771-.38731-1.09775-.38733-.69008-.15311-.69004-.15311-1.19188-.13447-1.19185-.13448-.79458-.0991-.79457-.0991-1.98124-.14907-1.98121-.14907-.22392-.22391-.22392-.22392c-1.16071-7.85465-3.11508-11.127665-10.42247-16.57338l-183.60014-.0901-183.60012-.0901-.10817-13.30824-.10817-13.30821-.1464-.72343-.14639-.72343-.35494-.35864-.35495-.35863-.927-1.15713-.92701-1.15713-.4635-.47563-.46351-.4756H69.86964l-.90083.42746-.90082.42746v.46957h-.79457v.56088l-.26485-.16367-.26485-.16366v.56088H66.19185l-.55876.52056-.55875.52057-.22476-.13882-.22475-.13882v.56087h-.79458v.44628l-.99322.5052-.99323.50522-.13242.15901-.13242.15901-.66215.36134-.66215.36134-.2083.009-.20829.009-.25115.39727-.25116.39731-.004-.20901-.004-.20901-.57966.54004-.57966.54004h-.61364l-.61077.5297-.61077.52972h-.71353v.56088l-.26674-.16491-.26674-.16491-.15833.41256-.15832.41255-.23712-.14659-.23711-.14658v.55094l-.66215.16615-.66215.16615v.56026l-.1692-.16926-.16919-.16926-.77814.65476-.77814.65476h-.75394v.56088l-.26485-.16366-.26485-.16367v.55094l-.66214.16615-.66215.16615v.50374l-.22948-.14193-.22947-.14193-.46472.51352-.46471.51348-.89498.29535-.89498.29535v.51988l-.26485-.16367-.26485-.16366v.55094l-.66215.16615-.66214.16615v.50373l-.21516-.13292-.21516-.13292-.74639.64135-.74638.64134-.23031-.14224-.23032-.14224v.59194l-.21516-.13292-.21516-.13292-.74638.64137-.74638.64135-.23032-.14224-.23031-.14224V26.7817l-.21516-.13292-.21516-.13292-.75304.64706-.75304.64706-.22367.0332-.22366.0332-.25628.0332-.25628.0332-.51735.44299-.51735.44296-.51585.27609-.51584.27609-.16724-.16708-.16727-.1674v.64927l-.26485-.16367-.26485-.16367v.56088h-.79458v.46771l-.59593.19193-.59594.19193-.19863-.028-.19864-.0279v.56087l-.26485-.16366-.26485-.16367v.49939l-1.45672.59125-1.45673.59125v.49938l-.26485-.16366-.26485-.16367v.49939l-.59593.19192-.59593.19193-.19864-.0279-.19864-.028v.56088l-.26485-.16367-.26484-.16367V34.37018l-.78322.32441-.78322.32442-.21.0217-.21.0217-1.1644.73843-1.1644.73846-.22612-.13975-.22612-.13976v.64927l-.15398-.15404-.15397-.15404-.93687.63575-.93686.63579-.23345-.14441-.23346-.14442v.59194l-.26484-.16367-.26485-.16367v.59194l-.26485-.16367-.26485-.16367v.51989l-.99322.3169-.99322.31687-1.39051.78252-1.39052.78253V40.48877l-1.41635.81032-1.41629.81033-.17286-.17299-.17286-.17298v.64926l-.23485-.14503-.23484-.14503-.31161.37544-.3116.37547.12292 127.2176.12292 127.21756c.8287873 1.81526 3.423052 5.95552 5.48203 6.78719l99.45463-.14814 99.45466-.14814zM63.7069 245.72585l-.34903-.19597-.62419-.11553-.62418-.11522-.14221-.0186-.14221-.0186-1.26172-1.19185-1.26173-1.19188.21205-.003.21205-.003-.2877-.19472-.28768-.19473-.27885-.816-.27886-.81598.0548-2.26894.0547-2.26892.40828-.62312.40827-.62311.0474-.18851.0474-.18851.80477-.80477.80476-.80476h.48896v-.41678l.5721-.0432.5721-.0432.15625-.21181.15627-.2118.52972-.12454.52972-.12454 1.12565.0426 1.12565.0426.52972.0724.52972.0727v.37392l.81057.17795.81056.17796.77859.76109.77859.76107v.50374l.27929.0932.27929.0932.0977.52492.0977.52491.0534.0661.0534.0661.0662.26492.0662.26491.0658.0661.0658.0661.0638 1.854.0638 1.854-.22364.28572-.22363.28572-.11802.64134-.11801.64138-.0196.16367-.0196.16366-1.22672 1.22673-1.22672 1.2267-.23.0332-.23.0332-.26485.0662-.26485.0661-.0662.0534-.0662.0534-.52972.11895-.52972.11894-1.27808.0593-1.27808.0593zm3.45249-1.84686.54728-.24908.88824-1.35679.88823-1.35682.0565-1.73493.0565-1.73497-.16363-.26491-.16361-.26491-.0214-.1323-.0214-.1323-.47924-.96001-.47925-.95999-.90277-.4305-.90278-.4305h-2.30107l-.95317.39823-.95318.39827-.56966 1.25049-.56967 1.25051-.0121 1.59577-.0121 1.59577.33692 1.0107.33692 1.0107.86288.8629.86288.86287 1.56076.009 1.56076.009zm110.00005 2.05633-.10094-.10031-1.4567-.0649-1.45673-.0649-.26491-.14907-.26491-.14907-.27982-.0429-.27981-.0425-.86902-.86902-.86899-.86899-.20932-.55249-.20932-.55247-.0478-5.01631-.0478-5.01632-.0922-.14845-.0922-.14845 1.2994.0919 1.29937.0919.0332 4.74191.0332 4.7419.0441.19876.0441.19876.4637.86946.46367.86945.25342-.15683.25342-.15684v.49473h2.91346v-.46336l.28945.0661.28944.0661.30653-.5297.30652-.52973.1323-.1323.1323-.1323.1323-.3973.13231-.39727.0776-4.70125.0776-4.70126h2.40367l-.0994 4.83368-.0994 4.83367-.12081.39728-.12081.3973-.17733.1351-.17734.13478-.0876.36097-.0876.36094-.90142.89464-.90141.89461h-.71336l-.19876.0248-.19876.0248-.42867.2295-.42871.22951zm14.06893-.17702-1.72157-.1882-.78893-.17143-.78896-.17143-.20031-.31492-.20031-.31491-.003.2174-.003.21739-.95437-1.01191-.95436-1.01191-.35935-.69495-.35939-.69494.15963-.15963.15963-.15963-.25404-.33746-.25404-.33749.0553-1.854.0553-1.85401.0618-.0662.0618-.0661.0432-.19876.0432-.19876.19348-.72836.19349-.72837h.51988v-.79125l1.09253-.79141 1.09253-.79144.23168.14317.23168.14317v-.56088l.19876.0314.19877.0314.1323-.0509.1323-.0509.66212-.16336.66215-.16336 1.19188.009 1.19185.009.66215.13789.66216.13789.43739.18572.4374.18571.12795.48905.12796.48907-.24659.24659-.24659.24659-1.93779-.12423-1.93779-.12453-1.01837.33612-1.0184.33609-.48896.55718-.48898.55722-.41743.927-.41742.927-.0525 1.45673-.0525 1.45673.25187.33106.25187.33109h-.36585l.60992.86079.60992.86079.6333.59097.63333.59097.23168-.14316.23168-.14317v.49255l2.05264-.003 2.05267-.003.30746-.24069.30746-.24069.18106.29287.18106.29286.0702.63963.0702.63964-.20932-.12919-.20932-.12951-.15932.25746-.15932.25777-.36811-.14131-.36811-.14131-.4842.23137-.4842.23137zm89.68065.10093-.15838-.15838-.59582-.0661-.59579-.0662-.32078-.0217-.32075-.0217-.54004-.57967-.54004-.57967v.44659l-.49302-.44618-.49302-.44619-.49289-1.11781-.49287-1.11778-.26801-.18665-.26802-.18634-.003-2.22239-.003-2.2224.32879-.39653.32877-.39652-.17423-.17423-.17423-.17423h.64927l-.16367-.26491-.16367-.26491h.56088l-.0661-.22609-.0661-.2264 1.13567-1.1075 1.13567-1.1075.25497.15746.25467.15745v-.56088l.19876.054.19876.054 1.38788-.34463 1.3879-.3446 1.17353.39988 1.17356.39985.15342-.15342.15342-.15342v.64927l.2382-.14721.2382-.14721 1.2608 1.19092 1.26079 1.19095H287.63142l.6884 1.3585.68842 1.35853-.12112 1.48872-.12112 1.48871-.12515.39731-.12516.39727-.50529 1.05946-.50532 1.05942-.52087.59594-.52088.59594h-.67684v.47299l-.46352.18137-.46352.18137-1.58915.12795-1.58915.12796-.30529.0981-.30528.0981zm2.75526-2.01481v-.26243l.17485.17485.17485.17485 1.01688-1.06899 1.0169-1.06896.0217-.18758.0217-.18758.11553-.5297.11584-.52973.0708-1.41083.0708-1.41086-.19503-.1205-.19504-.1205.14907-.38882.14907-.3888h-.67466l.17609-.17609.17608-.17609-1.19576-1.17883-1.19576-1.17887-1.73866.11087-1.73869.11056-1.02657 1.07893-1.02657 1.0789.16522.16522.16522.16522h-.57206v4.76746h.51492l-.15342.24814-.15342.24814 1.02219 1.07455 1.02219 1.07455.17485-.17485.17484-.17484v.52485H283.66654zm30.36192 1.89593-.43703-.24473-.26273.16243-.26274.16242V245.22854l-.23324.1441-.23323.1441-.90079-.72448-.90076-.72448-.58749-.59594-.58752-.59594h.34721l-.407-.46349-.40702-.46352-.1823-.59792-.1823-.59793.006-1.80115.006-1.80114.32041-.77924.3204-.77923-.0428-.19876-.0429-.19876h.52982v-.48883l.81495-.81495.81495-.81495h.48883v-.56088l.26491.16367.26491.16366v-.56087l.19876.0314.19876.0314.19876-.0646.19876-.0646.19876-.0537.19876-.0537 1.02927-.21429 1.02931-.21429 1.75173.60455 1.75173.60454.85225.63051.85222.63053.31535 1.05247.31531 1.0525H321.98224l.05.33106.05.3311.0907 1.82642.091 1.82643-.34798.67072-.34802.67076.13447.2177.13448.21771H321.24464l.16367.26491.16367.26491h-.56088v.47392l-.79458.8506-.79458.8506-.003-.22671-.003-.22671-.22112.3487-.22112.34867-.50321.0947-.5032.0947v.0844l-1.32431.11553-1.32427.11553-.42591.0925-.42588.0925zm3.55154-2.07938.24535-.3878.003.2177.003.21771.36292-.36296.36296-.36295.48674-.91405.48675-.91405.0441-.19877.0441-.19876.0609-.0661.0609-.0662.0497-1.67369.0497-1.67372-.21429-.1323-.21429-.1323.12796-.20714.12795-.20715-.64793-.87824-.64796-.87824-.73374-.48386-.73377-.48383-1.27126-.002-1.27123-.002-.83467.43162-.8347.43162-.34401.34405-.34404.34401V235.98928H311.58523l-.10684.86079-.10683.86082v2.38373l.10683.86079.10684.86079h.5056l-.14442.14441-.14441.14441.82856.84163.82852.84163.19876-.059.19876-.059v.45964l1.73711-.0407 1.7371-.0407zm74.81951 2.06478-.34904-.19596-.62417-.11553-.62421-.11522-.15652-.0186-.15652-.0186-1.10157-1.07983-1.1016-1.0798v-.48883h-.44101l-.26553-.86557-.26553-.86557.0376-2.28134.0376-2.28134.41106-.62734.41103-.62733.0475-.18852.0475-.18851.80477-.80476.80476-.80477h.48883v-.41677l.57209-.0432.57212-.0432.15621-.2118.15621-.21181.5297-.12453.52973-.12454 1.12567.0426 1.12564.0425.52973.0724.52969.0727v.37392l.81057.17795.81058.17795.77858.7611.77858.76107v.50373l.2792.0932.27919.0932.0978.52492.0978.52491.0534.0662.0534.0661.0661.26491.0662.26491.0658.0661.0658.0661.0637 1.85401.0637 1.854-.25186.31947-.25156.31948.17081.2764.17081.27641h-.56088l.0314.19876.0314.19876-.0314.29627-.0314.29628-1.22672 1.22673-1.2267 1.22669-.23013.0332-.23012.0332-.26492.0662-.26491.0661-.0661.0534-.0662.0534-.52972.11894-.52973.11895-1.27807.0593-1.27809.0593zm3.45247-1.84686.54731-.24907.89579-1.36834.89576-1.36832.0531-1.72341.0531-1.72344-.1677-.26491-.16771-.26491-.0217-.1323-.0217-.1323-.47923-.96001-.47926-.95999-.90278-.4305-.90277-.43051H392.85087l-.95319.39824-.95318.39827-.54588 1.19834-.5459 1.19834-.0826 1.51549-.0826 1.51552.39081 1.15001.39081 1.15002.85598.85598.856.856 1.56074.009 1.56077.009zm-363.53689 1.62717V232.3008c1.854-.29286 5.84108-.57448 8.49956.75467 3.53905 2.02674 3.33964 5.49002 3.33964 5.49002s-.90026 8.79777-11.83921 6.9606zm9.24325-7.11803s.3383-3.56111-6.59479-4.28012l-.11013 9.34691c6.59928-1.84882 6.70492-5.06679 6.70492-5.06679zm9.6165 7.18971-1.66685-.0792-4.24963-12.85994-.295-.35544h2.96168l-.15245.39727 2.08793 5.95928c-.69451-.19658-.0576.41827.13882.66216l.21348.927.21349.927-.0474.18944-.0474.18945.25525.67131.25525.67135h.80769l.0314-.33106.0314-.3311-.0329-.20341-.0329-.20342.38535-.92228.38535-.92229h-.30267l.295-.35544.29501-.35544-.17429-.17422-.17429-.17423h.67468l-.14252-.3714-.14252-.37137.16833-.16833.16836-.16832.0939-.70088.0939-.70092.52457-1.1515.52457-1.15151-.15851-.25653-.15851-.25652H54.58432l-.043-.33106-.043-.3311.0314-.30652.0314-.30653 1.42354-.0907 1.42355-.0907-.14037.39731-.14038.39727-.25618.33109-.25619.33106h.39461l-.32972.39731-.32973.39727.23106.003.23109.003-.31491.20031-.31491.20032-.12292.6565-.12292.65653-.1946.79458-.1946.79457-.26078.33107-.26078.33106.23109.003.23109.003-.32439.2059-.32438.20622-.11945.65066-.11944.65066h-.083l-.1277.78796-.12771.78799-.28025.33768-.28025.33765.23109.003.23109.003-.32439.20621-.32438.2059-.11945.65067-.11944.65066h-.083l-.12795.78979-.12795.7898-.0489.006-.0489.006zm26.62983-.11398-.72837-.24845v-.57392l-.14124.1413-.14125.14131-.91818-.91818-.91817-.91818v-.43262l-.25721-.0882-.25721-.0882-.0815-.52973-.0815-.52972-.15143-.26491-.15143-.26492.0609-1.98645.0609-1.98643.0633-.1323.0634-.1323-.0417-.22951-.0417-.2295.46689-.69753.46689-.69756.007-.13323.007-.13292.90007-.86017.90008-.86017.2918-.0314.29181-.0314.19863.0314.19864.0314v-.52982l.19864.0593.19863.0596 1.25861-.35892 1.25861-.35892.9927.18882.99269.18883.47593.0624.47592.0624.52464.4492.52464.4492-.26289.49122-.2629.49119.18376.18385.18376.18385-.74003-.28137-.74003-.28137H79.97067l-.85229.36314-.85229.36315-.57054.63007-.57055.63007-.37807.927-.37807.92703.0565 1.4567.0565 1.45673.2991.75328.29911.7533.93687.90983.93687.90979.25209-.1559.25208-.1559V244.09741l2.05266-.0155 2.05266-.0155.30333-.19721.30332-.1972.19696.46199.19696.46196.0505.45122.0505.45122-.2014-.12454-.2014-.12453-.14941.24162-.14942.24161-2.71613-.0124-2.71614-.0124zm67.73776-6.56087v-6.75393l3.87919.0792 3.87922.0792.10683.91402.10684.91402H148.03338l.0779 1.92022.078 1.92024 2.42209.0758 2.42208.0758.0997.85122.0997.85123H148.18918l-.0811 1.57813-.0811 1.57812.15249.60697.15218.60697H153.61874v1.2984l-4.03913.0792-4.03909.0792zm13.57403 6.67811-2.58237-.0758v-13.2624l3.24452.0565 3.24452.0565.37178.29411.37177.2941.0916-.0661.0916-.0661h.77396l.54004.57967.54004.57966v-.45715l.66215.62206.66212.62206v.70225h.40063l.39417.86079.39416.86079-.009 1.89167-.009 1.89168-.31867.38398-.3187.38401.17423.17423.17422.17422h-.61802V242.59354l-.927.927-.927.92703v-.28323l-.79464.56585-.79464.56581-.7283.096-.72831.096v.077l-.3973.046-.39727.046zm2.58504-1.65012.16646-.26926.22671.14007.22671.14006.682-.31072.682-.31075v-.44473H164.20673l.51917-.44454.5192-.44451-.13448-.2177-.13447-.21771h.44845l.0994-.59591.0994-.59594.009-1.45673.009-1.45673-.13044-.56106-.13044-.56103-.89908-.89567-.89905-.8957-.21553.0661-.21553.0661v-.45218l-1.98646-.0525-1.98643-.0525v9.73934l.17671.1764.1764.17671h1.99932zm35.35605 1.72593v-.1323h.2646v.2646h-.2646zm11.98487-.0627-1.39048-.0972-.0186-.18479-.0186-.18478-.11988-.65324-.11988-.65321-.39631-.60486-.39631-.60485h-5.57688l-.39019.99321-.3902.99322-.21894.3973-.21895.39727-1.00132.0842-1.00129.0842-.28292-.28292-.28293-.28293h.6025l-.0186-.46351-.0186-.46349.31954-.79458.31954-.79457-.0413-.1028-.0413-.1028.27329-.16894.2733-.16895.14348-.81368.14348-.81364.44979-1.03353.44982-1.03352-.0491-.19876-.0491-.19876h.52982l-.0314-.19876-.0314-.19876.0509-.1323.0509-.1323.11243-.6048.11242-.60476.42808-.6533.42805-.6533-.22919-.003-.2292-.003.32439-.20591.32438-.20621.11957-.65066.11956-.65066.0186-.33106.0186-.33106H205.53292l-.0429.19876-.0429.19876.32774.79457.32777.79458.0363.46352.0363.46348h.30435l.0432.57212.0432.57209.30063.18572.30062.18572-.0413.10279-.0413.1028.31954.79458.31954.79457-.0186.46349-.0186.46352h.5851l-.15869.15869-.1587.1587.5265 1.01014.52653 1.01017.0416.55277.0416.55278h.30435l.0432.57212.0432.57209.34435.21832.34435.21833-.20466.003-.20466.003.43386.66215.43382.66215-.0966-.0491-.0966-.0491zm-2.97967-4.7046.32973-.39731H205.81195l.15248-.39727.15249-.3973H205.44222l.17423-.17423.17422-.17423-.29503-.35544-.29504-.35544h.39442l-.3056-.36835-.30559-.36836-.13013-1.02216-.13012-1.02216-.2438-.0832-.24379-.0832.12951-.33774.1295-.33774-.40494-.33609-.40495-.33609-.26926.70818-.26925.70817v.51368l-.39023.59553-.39019.59551-.11988.65324-.11987.65324-.0186.0661-.0186.0661-.0186.12764-.0155.12764-.24007.83719-.24007.83718.14038.22703.14037.22702h3.87677zm16.81853-1.98646v-6.75392l3.87925.0792 3.87922.0792.10684.91402.10683.91402H225.37229l.0779 1.92021.078 1.92025 2.42209.0758 2.42208.0758.0997.85123.0997.85122h-5.04368l-.0811 1.57813-.0811 1.57813.15249.60696.15218.60697h5.28706v1.2984l-4.03909.0792-4.03913.0792zm69.59182 6.6924-1.12564-.10125-.0314-.71314-.0314-.71312.059-.26491.059-.26491.11615-1.72158.11615-1.72158.15435-1.98646.15435-1.98642-.0311-1.05946-.0311-1.05943.14411-.8747.1441-.87473 1.24346.0801 1.24347.0801-.0661.33106-.0661.33109h.56088l-.16367.26491-.16367.26491H295.34793l-.16367.26491-.16367.26491h.51989l.28416.86079.28417.86079.0491.26491.0491.26491.73842 1.1644.73846 1.1644-.13975.22609-.13976.22609H297.99663l-.16367.26491-.16366.26491H298.26123l-.13944.22578-.13945.22578.34861.47678.34864.47677.30497-.18851.30498-.18851V239.96271h.56088l-.16367-.26492-.16367-.26491H300.11533l-.16367-.26491-.16367-.26491h.64927l-.16584-.16584-.16616-.16615.44119-.82722.44119-.82718-.0543-.19876-.0543-.19877H301.33805l.57945-1.58915.57942-1.58915h.50125l-.0314-.19876-.0314-.19877.0314-.33106.0314-.33106h2.58594l.17671 2.18507.17671 2.18509.14845 2.78104.14845 2.781-.0311 1.10567-.031 1.10567.23416.61591.23417.61594-1.16188-.0932-1.16188-.0932-.14566-.58081-.14565-.58082-.0248-1.04775-.0248-1.04775-.2587-2.44994-.2587-2.44995h-.40684l-.16615.66216-.16615.66215h-.55094l.16366.26491.16367.26491h-.59224l.16366.26491.16367.26491h-.56088l.0525.19876.0525.19877-.20279.5959-.2028.59595h-.52548l.14969.24223.1497.24224-.28106.0935-.28106.0938-.0761.52489-.0761.52491-1.6894.0804-1.68938.0804.16802-.16801.16801-.16802-.63575-.93687-.63579-.93685.14441-.23354.14442-.23355h-.59194l.16367-.26491.16367-.26491h-.59194l.16367-.26491.16367-.26491h-.50343l-.42392-1.05946-.42389-1.05942h-.49193l-.13727.72836-.13727.72837-.0491 1.58915-.0491 1.58916-.009 1.92021-.009 1.92025-.0248-.0463-.0248-.0463zm34.83885-5.69919.0761-5.76067h-3.88621l.10839-.927.10807-.92701h10.02329l-.0624.92701-.0624.927h-3.88431l.0761 5.76067.0761 5.76071h-2.64858zm33.11168 5.69705-1.7737-.0922-.15652-.49349-.15652-.49345-.38718-.14845-.38721-.14845v-.79256l-.5524-.29566-.5524-.29565.12826-.12827.12826-.12826-1.02219-1.07455-1.02219-1.07452-.40758.15653-.40758.15652v4.78411h-2.64858V232.24336l3.24452.0565 3.24452.0565.26491.15404.26491.15404.34488.0522.34488.0522.67048.43929.67044.43929.35734.8552.35733.85523-.0811 1.20107-.0811 1.20108-.46678.7124-.46681.7124-.11863-.11863-.11864-.11864-.51731.51734-.5173.5173-.23696-.14658-.23696-.14628-.17361.28075-.1736.28075.32006.38569.3201.38569h-.34783l.80473.86079.80474.86079.5287.55758.5287.55759-.002.23696-.002.23696.86318.72125.86318.72123-.1323-.0447-.1323-.0447zm-2.73315-7.62968.39771-.51731.16304-.59594.16305-.59591-.1587-.59594-.1587-.59594-.25155-.38774-.25156-.38777-1.86956-.10559-1.86957-.10559V238.7l1.71925-.10963 1.71925-.10962zm10.53236 7.62766-4.0391-.0804v-13.22914h7.62298l.10807.927.10808.927h-5.19079V238.10864H371.89731l-.0838.72836-.0838.72837-2.4605.0764-2.46051.0764.0767 2.17501.0767 2.17503H372.25929v1.72158-.1174zm10.19711-.12733-.72836-.24845v-.57393l-.14131.14131-.14131.14131-.91818-.91819-.91818-.91818V242.65522l-.25715-.0882-.25714-.0882-.0817-.52973-.0817-.52973-.15155-.26491-.15156-.26491.0609-1.98646.0609-1.98643.0634-.1323.0634-.1323-.0342-.20652-.0342-.20653.43805-.8528.43805-.85281.90777-.86079.90778-.86079.31221-.0314.31221-.0314.19876.0314.19876.0314v-.52982l.19876.0314.19876.0314.1323-.0509.1323-.0509.66216-.16336.66215-.16336 1.19188.009 1.19185.009.74852.13137.74849.13136.51694.44262.5169.44258-.26274.49122-.26305.49119.18386.18385.18385.18386-.74004-.28137-.74004-.28137h-3.06477l-.90032.31367-.90033.3137-.52973.65417-.52969.6542-.41992.95234-.41988.95238.0575 1.4567.0575 1.45673.29907.75327.29907.7533.93688.90983.93688.9098.25218-.15591.25217-.1559V244.09625l2.05264-.0155 2.05267-.0155.30343-.19721.30342-.19721.19689.46199.1969.46197.0506.45122.0506.45121-.20124-.12453-.20156-.12454-.14938.24162-.14938.24162-2.71613-.0124-2.71616-.0124zm29.49342.0606-1.69372-.1323-.33323-1.13322-.33324-1.13325-.0248-.12484-.0249-.12485-.0217-.0661-.0217-.0661-.0916-.48408-.0916-.48407-.40435-.85213-.40439-.85212-.15963-.91511-.15963-.9151-.23602-.0832-.23603-.0832.14596-.38016.14597-.38019h-.67467l.17422-.17423.17423-.17422-.24565-.29597-.24535-.29597-.12764-.78799-.12764-.78796h-.0832l-.11957-.65066-.11957-.65063-.32438-.20622-.32439-.20621.23106-.003.23106-.003-.32972-.39731-.32973-.39727h2.96169l-.15248.39727-.15249.39731h.67467l-.17423.17422-.17423.17423.29504.35544.29504.35544H404.99608l.39929.95563.39929.95564-.14565.14565-.14566.14566.29504.35547.29503.35544h-.39441l.32972.39727.32973.39731h-.39442l.32973.39727.32972.3973h-.39441l.26677.33106.26678.3311.21335.927.21336.927-.0475.18944-.0475.18945.25528.67131.25528.67135h.80769l.0217-.19876.0217-.19876.12515-.76977.12516-.76976.39352-.76097.39348-.76095-.15901-.25714-.15901-.25715h.6174l-.14255-.3714-.14254-.37138.16832-.16832.16833-.16833.0938-.70088.0938-.70091.53569-1.17592.53569-1.17592.0926-.69553.0926-.69557.0186-.19876.0186-.19876h2.64858v.7633l-.26926.16646-.26925.16646.14099.22827.141.22826-.27361.16895-.27361.16895.15249.24658.15249.24659h-.6174l.15248.39727.15249.39731h-.39752l-.0522.63013-.0522.63013-.28914.76036-.28913.76038.0413.1028.0413.10279-.28013.1733-.28013.17298-.16304 1.02632-.16305 1.02632-.28416.68417-.28417.68415.0429.19876.0429.19876H410.21019l.15249.39727.15248.3973h-.51305l.0314.19876.0314.19877-.0531.13261-.0531.1323-.12795.78979-.12795.7898-.0488.006-.0488.006zm12.2219.0668-4.0391-.0804v-13.22914H423.71688l.10808.927.10838.927h-5.19082v4.00807l2.60224-.0838 2.60222-.0839-.16243.79458-.16242.79457-2.45023.0764-2.45025.0764.0767 2.175.0767 2.17504H424.17224v1.72157-.1174zM22.42416 231.92643l2.46674.0559c1.21292 4.62635 5.0383 13.54396 5.0383 13.54396l-2.34321-.0124-1.2888-2.76867-5.60802-.0776-1.1374 2.68221-2.66581.0279zm1.10332 2.34411-2.48978 6.94159 5.0426.0385zm63.34635 10.91907v-.335l.51465-.96023.51465-.96021-.16149-.16149-.16149-.16149h.50529l.0362-.46352.0362-.46348.30361-.79458.3036-.79458-.0412-.10279-.0412-.1028.30075-.18572.30075-.18603.0431-.57208.0431-.57213h.30429l.0417-.55277.0416-.55277.52653-1.01014.52652-1.01017-.15867-.1587-.15867-.1587h.64927l-.1463-.23665-.14631-.23664.44473-1.02136.44474-1.02135-.0276-.1323-.0276-.1323 1.58536.0907 1.58536.0907.13516.35218.13516.35221.0918.48417.0918.4842.0516.1323.0516.1323-.0314.19876-.0314.19876h.61802l-.15867.1587-.15866.1587.49883.967.49883.967.13202.75132.13202.75131.31066.37433.31067.37432h-.34193l.38901.59594.389.59594.16106.92017.16106.92017.31684.20155.31683.20156-.20544.003-.20544.003.40997.79278.40996.79277.25242.66396.25243.66395h-2.64859l-.23898-.62858-.23898-.62858-.0855-.49709-.0855-.49706-.31215-.33109-.31216-.33106H90.37378l-.2041.46349-.20411.46351-.056.19876-.056.19876-.0662.1323-.0662.1323-.0662.26492-.0662.26491-.0331.39727-.0331.3973h-2.64859zm8.41568-4.96181-.0726-1.05905-.19034-.00038-.19035-.0004.15246-.39727.15245-.39731h-.5864l.0428-.19876.0428-.19876-.29721-.71818-.29721-.71821-.0862-.60609-.0862-.60613-.30504-.5297-.30504-.52973-.2655.26491-.2655.26491-.12261.66216-.12261.66215-.1946.79458-.1946.79457-.26078.33107-.26078.33106.23109.003.23106.003-.32438.2059-.32439.20622-.0881.57761-.0881.57762-.17407.17392-.17407.17422.26485.49492.26485.49488h3.96705zm8.53532-.39768v-5.69446h-4.23775V232.28165h10.3461l-.0624.92701-.0624.927h-3.59976v11.38896h-2.38373zm8.21065-.927v-6.62147h8.2272l-.0624.92701-.0624.927h-5.47698l.078 1.92021.0779 1.92025 2.44995.0761 2.44994.0761v1.54941l-2.44994.0761-2.44995.0761V244.0677l2.71479.0755 2.71483.0755V245.52447H112.03577zm102.50051.927v-5.69446h-4.06115l.14566-.14566.14565-.14565-.19131-.84753-.19161-.84756 5.14101.0773 5.14102.0773-.0851.84983-.0851.84982-1.85402.1323-1.854.1323-.0714 5.62826-.0714 5.62828h-2.10829zm37.0803-.927v-6.62147s1.12998-.34519 4.04444-.25528c0 0 2.70348.11646 3.76912 1.06651 1.75972 1.70484 2.39078 4.55031.29814 6.19372-2.28714 1.70559-3.53918 1.51531-5.46368 1.80416v4.43438h-2.64858Zm6.29841-.74265s.80793-.88787.6025-1.82512c0 0-.5033-2.72628-4.2523-2.23839v5.03216c1.5062-.15622 2.48357-.43908 3.6498-.96865zm5.09055.72588v-6.63808l3.31076.0581 3.31073.0581c2.43936.43324 2.9729 3.35325 3.04396 3.95267 0 0-.15 2.42503-2.99147 4.09375l3.25781 4.21109.66215.43386v.46895h-3.19141c-1.45577-1.79341-2.43271-3.4544-3.95978-5.08905l-.39706.15249-.39705.15248v4.78411h-2.64861zm7.37253-2.60926c.14286-2.33672-3.33341-2.13733-3.33341-2.13733l-1.39051-.003v4.50262h1.02632s3.15557-.0155 3.6976-2.36218zm65.46378 2.63879v-6.60851l4.06288-.0792 4.06292-.0792-.19162.84756-.19162.84753.14566.14565.14565.14566h-5.40868l.078 1.92021.0776 1.92025 2.5824.0758 2.58237.0758v1.56997l-.19876-.0314-.19876-.0314-2.46066.0314-2.46069.0314.077 2.18509.077 2.1851 2.71482.0755 2.7148.0755V245.52435h-8.21062zm91.11158-.0124v-6.62146l2.58237-.0314 2.58237-.0314.26491.0677.26491.0677.52973.0739.52969.0742v.0844l.47734.0907.47734.0907.67044.43929.67045.43929.35733.8552.35733.85523-.0876 1.3003-.0876 1.3003-.29193.0972-.29193.0972v.75825l-.84207.51208-.84209.51209-.19907-.12298-.19907-.12298-.16181.2618-.1618.26181.46991.73585.46992.73585.46811.34609.46811.34609V243.08009l.67057.43939.6706.43938-.14223.23013-.14224.23013.72973.54439.72973.54441-1.76996.009-1.76994.009-.16025-.50526-.16025-.50525-.38721-.14845-.38721-.14845v-.79256l-.5524-.29566-.5524-.29565.12826-.12827.12827-.12826-1.02219-1.07455-1.02219-1.07452-.40759.15652-.40758.15653v4.78411h-2.64858zm6.5919-1.07067.54168-.65091.009-.8701.009-.87011-.40153-.61283-.40153-.61281-1.84978-.054-1.84978-.054v4.5923l1.70084-.10839 1.7008-.10838zm8.76994 4.93005v-2.76209l-.38469-.3847-.38466-.38466.16397-.16398.16398-.16398h-.70631l.16397-.16398.16398-.16397-.38712-.38712-.38708-.38709.15062-.24348.15062-.24348H440.43033l.16367-.26491.16366-.26491H440.16573l.16367-.26491.16366-.26492h-.5174l-.45581-1.19359-.45585-1.19358-.49308-.56852-.49308-.56855v-.44846H441.07959l-.16894.16895-.16895.16895.91828 1.64204.91827 1.64204-.17547.17547-.17547.17547h.64927l-.16367.26491-.16367.26491h.59194l-.12454.20156-.12453.20155.3655.49989.36553.49988.40265-.33417.40264-.33416-.14503-.23479-.14503-.23478h.59224l-.16367-.26491-.16366-.26492H444.99521l-.16367-.26491-.16366-.26491h.64926l-.17298-.17298-.17299-.17298.52271-.84573.52268-.84576-.17298-.17298-.17299-.17299h.64927l-.16367-.26491-.16367-.26491h.56088l-.0661-.33109-.0661-.33106 1.57742-.0811 1.57741-.0811-.4928.54455-.49283.54457h.34162l-.46091.5383-.46091.5383-.003.19006-.003.19007-.36013.86079-.36013.86079h-.4969l.16367.26491.16367.26491h-.56088V238.07786l-.29255.18075-.29255.18075-.49632 1.09296-.49631 1.09297-.006 2.44994-.006 2.44998h-2.64858zm-312.81204-1.32996-.25155-.25156v.35187l-.61302-.58647-.61303-.58647.0876-.18043.0876-.18044-.26926-.16646-.26925-.16647.0124-.58028.0124-.58029.45078-.89747.45079-.8975.1323.0907.1323.0907.86079-.50848.86079-.50849.7574.4474.75743.44743.13199-.13199.13199-.13199.32411.3905.3241.39054.0708.34426.0708.34422.20093.46349.20094.46352-.20094.46351-.20093.46349-.0724.35336-.0724.35332-.48367.36659-.48367.36662-.33109.009-.33106.009v.39752h-1.61565zm110.98927.0528-1.19185-.24255-.37346-.36078-.37345-.36081-.0652-1.35505-.0652-1.35505.82545-.84443.82545-.84439.0767.0661.0767.0661.0662-.0217.0661-.0217.49295-.0932.49299-.0932.69526.31196.69526.31196.44507.44143.44507.44144-.15466.15435-.15466.15466h.61802v2.04031l-.79461.83144-.79458.83144V241.21918l-.33106.2528-.33106.2528zm46.35038-7.74685v-.1323h.2646v.26491h-.2646zM19.24661 208.79796l-.17675-.17671v-88.63999h424.8358l-.13416 88.86027-212.17418.0665-212.17417.0665zm423.32723-.93352-.1264-86.69093-84.09281-.13416v86.23983l.31783.31783zm-72.18621-10.14658.0469-.26491c9.05206-21.10302 24.94208-65.8368 24.94208-65.8368s-.0124-.0311.0897-.0789l10.44401-.0689c.006.006 19.60359 48.90689 25.50296 66.51932l-14.76867-.2646c-.54473.009-1.09905-1.10017-1.09905-1.10017l-4.47597-13.59927h-20.80342c-.0317-.002-4.11664 9.94366-6.12217 14.9265l-13.7949.0373zm36.18809-27.56554-5.82338-17.59126c-.0705-.11553-.44783-.12205-.50559 0l-5.90115 17.47812c-.15404.30156.11677.53169.32858.53169h11.55769c.16677-.0248.37596-.21957.34385-.41855zm-302.01625-5.40943.0725-42.7748-.14394-.59675-.14395-.59675-41.90872.0671-41.90873.0671-.067 43.37153-.067 43.37152 42.0472-.0671 42.04719-.0671zM39.91061 197.414l-.18566-.18571.006-32.9951.006-32.99508c-.0767.12143 19.53641-.46585 29.24059.52298 15.78078 5.60953 15.47912 19.36855 15.59559 19.20995 1.91872 11.89605-11.79974 19.63275-14.95621 19.90384l-1.23763.12143-1.23763.12143-6.22419.0571-6.22419.0568-.0687 13.16109-.0687 13.1611-7.2299.0217-7.22991.0217zm24.0529-38.4339c1.591-.28851 2.64066-.69628 3.97287-2.05077l.75741-1.16387c1.46564-3.29431 1.44006-6.50594-.96646-9.39694-.76257-.77253-1.33861-1.22543-2.75188-1.67363-.0134.0124-1.43681-.42203-3.6941-.52858l-6.72035-.17081v15.15852l1.52294.11149c1.03525.13106 5.20966.17516 7.87957-.28541zm209.76854 5.23306v-43.3049H189.24195l-.0671 43.37152-.0671 43.37152 42.31205-.0671 42.31207-.0671zm-70.38433.2028-.0683-33.17776 15.09697.2646.13727 25.82899 25.02418-.13789v-26.03816l.1618.10001.16181.1 15.17088.0435v66.16782h-15.62176l-.13727-26.33695h-24.63197l-.2646 26.22108-14.96047.14037zm136.1878 31.28836.93791-11.59983c-13.08048 2.73647-21.28793-1.90525-21.28793-1.90525s-15.21722-8.68168-13.19327-20.16611c2.15695-22.90488 30.60521-14.68156 33.39652-14.13568 0 0 3.39912-12.63171 3.3881-12.78547-8.78097-5.96592-24.4068-6.11847-33.01817-2.10136-10.17332 4.7123-20.12099 15.37116-20.12099 28.42002.38262 39.94532 46.88832 39.7573 49.89783 34.27368zm-175.06373-33.84896s1.81273 24.36705 2.52234 35.59697l14.15919.14099s-3.20257-43.27381-4.76203-64.76674l-.0634-.92701-.0633-.927-5.16477-.0752-5.16474-.0752-.5783.14193-.57827.14193-.20248.59532-.20249.59532.0525.19876.0525.19876h-.52982l.0435.19876-16.46478 38.47278h-.44287l-16.87655-38.45337.13509-.21833h-.59224l.16366-.26491.16367-.26491h-.64926l.17422-.17422.17423-.17423-.29504-.35544-.29503-.35544h-11.85381c-1.63242 22.16107-3.30015 44.32007-4.95554 66.47963h13.12547c1.07527-11.65788 1.59409-23.50269 2.4247-35.22628h.561c4.9911 12.02934 10.39972 23.87853 15.65079 35.79507 1.09114.77567 3.23626.84151 4.50259.0674 5.7617-11.76329 10.6141-24.26037 15.82952-36.36533z" style="fill:#1b2a57;stroke-width:3.10564"/>
</svg>
