<svg xmlns="http://www.w3.org/2000/svg" xml:space="preserve" viewBox="0 0 508 311.41459">
  <path d="m-324.17862-430.21888-.38808-.15036-1.09004-.79571-1.09004-.79574-.68971-1.02126-.6897-1.02125-.35069-1.52933-.3507-1.52927-.13326-124.02972-.004-127.19702 3.04001-1.40423 3.04002-1.40423 7.63238-3.93214 7.63237-3.93213 4.1396-2.29574 4.13959-2.29574 5.64991-3.31422 5.6499-3.31423 5.08769-3.13564 5.08769-3.13563 5.01095-3.21402 5.01095-3.21399H-267.62633l1.04253 1.12834 1.04253 1.12833.69348 1.04221.69348 1.04218.0813 13.89164.0813 13.89162h178.844637l179.621583 2.37674 1.35932.41422 1.35931.41422 2.89191 3.05233 2.89194 3.05236.71596 1.24587.71599 1.2459.51144 1.72568.51148 1.72568.24664 1.83501.24664 1.83501.37243.38215.37242.38216 4.62164.51118 3.84457-1.86554 2.19918 1.09314 2.19915 1.09315 2.67862 2.73667 2.67864 2.73663-.0914 14.41559-.0914 14.41556.49737 2.2243.49736 2.22428.60112.73309.60113.73306 2.00622.54269 2.00622.5427 3.49277.70099 3.49279.70097 1.68171.37833 1.68171.37835 1.8983.95546 1.89829.95546 2.88506 3.04324 2.88505 3.04321.90859 1.33774.9086 1.3377-.00092 1.63303-.00091 1.63301-.46806.9669-.46807.96692-6.13968 7.55592-6.13968 7.55589-5.20165 6.21187-5.20169 6.21191-4.43701 4.91106-4.43703 4.91105-.69911 1.4607-.69912 1.46073.01 2.38942.01 2.38941.82086 1.72567.82087 1.72568 1.95267 3.43298 1.95267 3.43296v1.77329l-2.3932 2.6882-2.3932 2.6882-2.67834 3.21355-2.67833 3.21357-.75247 1.32744-.75245 1.32746-.53936 1.72567-.53936 1.72569-.0183 2.78766-.0182 2.78766.33771 1.46015.33771 1.46022 2.35803 2.24832 2.35807 2.24832 2.41546 2.51804 2.41547 2.51801.59236 1.20721.59239 1.20717.29094 1.40687.29093 1.40691V-504.88673l.36684.72793.36685.72795 1.50888.48557 1.50894.48559 1.29364.66346 1.2936.66346 1.58769 1.1549 1.58766 1.1549 3.14655 3.39283 3.14658 3.39283.63521 1.33233.63523 1.33234.37922 1.85378.37925 1.85381.3179 4.97693.31792 4.97694-.52977.73109-.52974.7311-1.91469.99408-1.9147.99409-3.49281 1.72318-3.49276 1.7232-1.94044 1.49818-1.94046 1.49814-1.64065 1.62535-1.64066 1.62534-1.61794 2.12393-1.61793 2.12393-2.67115 4.51334-2.67118 4.5133-1.8153 2.78767-1.81534 2.78762-1.31028 1.42978-1.31026 1.42976-1.30977.99761-1.30977.9976-1.82323.94216-1.82323.94219-2.4296.74468-2.42958.74465-4.39834-.003-4.39832-.003-1.98965-.7366-1.98969-.73661-1.76183-.38306-1.76182-.38309-1.50128-.003-1.50127-.003-1.86215.42402-1.86215.42402-1.84175.89662-1.84173.89662-1.42736 1.58205-1.42735 1.58201-.66085 1.80978-.66082 1.80978-.14987.73009-.14987.73009-194.87944-.0218-194.75015-3.18909z" style="fill:#fefefe;stroke:#1b2a57;stroke-width:15.875;stroke-linecap:butt;stroke-linejoin:round;stroke-dasharray:none;stroke-opacity:1;paint-order:stroke fill markers" transform="translate(342.156785 730.57528198)"/>
  <path d="m-317.26428-526.32969-.17272-.18308v-91.83801H97.718859l-.1311 92.06623-207.339769.0689-207.33975.0689zm413.681669-.9672-.12352-89.81862-82.17675-.139v89.35125l.31059.3293zm-70.54144-10.51265.0458-.27447c8.84581-21.86439 24.37377-68.21211 24.37377-68.21211s-.0121-.0322.0877-.0817l10.20604-.0713c.006.006 19.15692 50.67138 24.92187 68.91924l-14.43216-.27414c-.53232.01-1.07401-1.13987-1.07401-1.13987l-4.37398-14.08991h-20.32941c-.031-.002-4.02285 10.30242-5.98268 15.46502l-13.48058.0387zm35.36354-28.56007-5.69069-18.22593c-.0689-.1197-.43763-.12645-.49407 0l-5.76669 18.10871c-.15053.31244.1141.55087.32109.55087h11.29435c.16297-.0257.36739-.22749.33601-.43365zm-295.134779-5.6046.0709-44.31806-.14066-.61827-.14067-.61828-40.95382.0696-40.95383.0695-.0655 44.93631-.0655 44.93632 41.08915-.0696 41.08914-.0696zm-63.17582 33.84984-.18143-.19241.006-34.18551.006-34.1855c-.075.12581 19.09127-.48266 28.57434.54185 15.42121 5.81191 15.12642 20.06733 15.24024 19.90302 1.875 12.32523-11.53088 20.34106-14.61543 20.62194l-1.20943.12581-1.20943.12581-6.08237.0592-6.08237.0588-.0671 13.63592-.0671 13.63593-7.06517.0225-7.06518.0225zm23.50485-39.82054c1.55475-.29892 2.58049-.7214 3.88235-2.12476l.74015-1.20586c1.43224-3.41316 1.40725-6.74066-.94444-9.73597-.74519-.8004-1.30811-1.26964-2.68918-1.73401-.0131.0128-1.40407-.43725-3.60993-.54766l-6.56722-.17696v15.70542l1.48824.11551c1.01166.13578 5.09095.18148 7.70003-.29571zm204.988937 5.42186v-44.86728h-82.564987l-.0656 44.93631-.0656 44.9363 41.34796-.0695 41.347997-.0696zm-68.780617.21011-.0668-34.37476 14.75299.27414.13414 26.76087 24.453997-.14286v-26.97759l.15811.10359.15813.10358 14.82522.0451v68.55507h-15.26583l-.13414-27.28715h-24.070727l-.25857 27.1671-14.61959.14543zm133.084749 32.41721.91654-12.01833c-12.78244 2.8352-20.80288-1.97399-20.80288-1.97399s-14.8705-8.99491-12.89266-20.89368c2.1078-23.73126 29.90786-15.21125 32.63557-14.64568 0 0 3.32168-13.08744 3.31091-13.24675-8.5809-6.18117-23.85069-6.33921-32.26585-2.17717-9.94152 4.88231-19.662527 15.92572-19.662527 29.44537.3739 41.3865 45.819957 41.19169 48.760897 35.51023zm-171.074889-35.07018s1.77143 25.24618 2.46487 36.88126l13.83657.14607s-3.1296-44.83507-4.65353-67.10344l-.062-.96045-.0619-.96044-5.04709-.0779-5.04706-.0779-.56512.14705-.5651.14704-.19786.61681-.19788.6168.0513.20593.0513.20593H-175.85933l.0425.20593-16.08963 39.86082h-.43278l-16.49202-39.84071.13202-.22621h-.57875l.15993-.27446.15994-.27448h-.63446l.17025-.1805.17026-.18052-.28832-.36826-.28831-.36826h-11.58371c-1.59523 22.96061-3.22496 45.91907-4.84263 68.87812h12.8264c1.05077-12.07848 1.55777-24.35063 2.36945-36.49719h.54822c4.87738 12.46334 10.16276 24.74003 15.29418 37.0865 1.06628.80366 3.16253.87188 4.4.0699 5.63042-12.18769 10.37226-25.13566 15.46884-37.67734z" style="fill:#1b2a57;stroke-width:3.12495" transform="translate(342.156785 730.57528198)"/>
</svg>
