<?xml version="1.0" encoding="UTF-8"?>
<!-- Created with Inkscape (http://www.inkscape.org/) -->
<svg id="svg1" width="600" height="250" version="1.1" viewBox="0 0 158.75 66.146" xml:space="preserve" xmlns="http://www.w3.org/2000/svg"><g id="layer1"><path id="path1" d="m63.103 55.958c0-0.14058 0.19116-0.65648 0.4248-1.1464 0.40134-0.84162 0.39403-0.95113-0.13229-1.9828-0.65762-1.289-0.66999-1.3777-0.19232-1.3777 0.20063 0 0.52047 0.37587 0.71076 0.83527l0.34598 0.83527 0.39558-0.83527c0.21757-0.4594 0.56249-0.83527 0.7665-0.83527 0.20401 0 0.33123 0.094 0.28273 0.20888-1.2733 3.0158-2.6017 5.2103-2.6017 4.298zm39.886-0.39779c-0.25466-0.35022-0.46302-0.70367-0.46302-0.78544 0-0.32499 0.62245-0.12224 0.93438 0.30437 0.28009 0.38304 0.39701 0.39848 0.75678 0.09989 0.55401-0.45979 0.54837-0.92128-9e-3 -0.70752-0.69114 0.26521-1.6831-0.54614-1.6785-1.3729 6e-3 -1.1056 0.38417-1.4772 1.5636-1.5374l1.0782-0.05505v1.7657c0 2.6503-1.0893 3.7922-2.1828 2.2883zm1.5254-2.2697c0.16778-0.52863-0.24297-1.3102-0.68857-1.3102-0.36332 0-0.78169 0.98634-0.60912 1.436 0.22912 0.59709 1.0949 0.51314 1.2977-0.12582zm35.429 2.5676c-0.075-0.19552-0.10106-1.2373-0.0578-2.3151l0.0786-1.9596h1.0539c0.88685 0 1.109 0.11456 1.4011 0.72255 0.53293 1.1093-0.31069 2.4814-1.3305 2.164-0.38137-0.11867-0.46302 0.02237-0.46302 0.79979 0 0.92797-0.41465 1.2856-0.68219 0.58838zm1.9578-2.6368c0.13613-0.70686-0.45952-1.3243-0.91381-0.9473-0.38596 0.32032-0.48278 1.0846-0.17624 1.3911 0.3222 0.3222 0.9953 0.04814 1.09-0.44382zm9.3078 2.8495c0-0.07856 0.22608-0.58598 0.5024-1.1276 0.4904-0.96128 0.49067-1.0068 0.0111-1.9077-0.56372-1.0589-0.63865-1.5844-0.22592-1.5844 0.15816 0 0.42239 0.35719 0.58717 0.79375 0.30675 0.81269 0.71276 1.0676 0.71276 0.44744 0-0.5057 0.71786-1.4053 0.94231-1.1808 0.27181 0.27181-1.7987 4.6967-2.1991 4.6997-0.1819 0.0013-0.33073-0.06184-0.33073-0.1404zm-134.26-1.7953c-0.3302-0.24145-0.4847-0.70998-0.4963-1.5051-0.02236-1.5336 0.55171-1.7175 0.66015-0.21157 0.05771 0.80148 0.20032 1.1412 0.47905 1.1412 0.27776 0 0.42129-0.33749 0.47823-1.1245 0.11326-1.5654 0.5801-1.4132 0.5801 0.18913 0 1.0279-0.1113 1.3732-0.51177 1.5875-0.64008 0.34256-0.61377 0.34426-1.1895-0.0767zm8.6862 0.14937c-0.68672-0.46154-0.9347-1.3731-0.5764-2.1189 0.29209-0.60799 0.51424-0.72255 1.4011-0.72255h1.0539l0.07997 1.3891c0.07098 1.2328 0.02132 1.3891-0.44138 1.3891-0.28674 0-0.67992 0.05828-0.87372 0.12951-0.1938 0.07123-0.48337 0.04147-0.64349-0.06615zm1.1742-1.3591c0.10371-0.73035-0.44672-1.1831-0.94032-0.77344-0.36733 0.30486-0.45357 1.0732-0.15407 1.3727 0.36714 0.36714 1.0069 0.01681 1.0944-0.59929zm8.304 1.1484c-0.61886-0.43347-0.79971-1.1756-0.28648-1.1756 0.16586 0 0.45063 0.20386 0.63283 0.45303 0.27889 0.38141 0.398 0.39765 0.75337 0.10272 0.51137-0.4244 0.25531-0.99164-0.65082-1.4417-0.72092-0.35808-0.97377-1.3307-0.49568-1.9067 0.42004-0.50612 1.551-0.48932 1.7487 0.02597 0.2228 0.5806-0.08722 0.78627-0.57498 0.38146-0.33342-0.27671-0.47697-0.27873-0.734-0.0103-0.25139 0.26254-0.21163 0.39837 0.18643 0.63702 1.557 0.93346 1.9409 2.1984 0.89039 2.9342-0.32342 0.22653-0.65412 0.41188-0.73488 0.41188-0.08076 0-0.41146-0.18534-0.73488-0.41188zm3.7841 0.05245c-0.57352-0.41936-0.65937-1.7914-0.15046-2.4046 0.43757-0.52724 1.1826-0.52515 1.7126 0.0048 0.71712 0.71712 0.5106 1.1717-0.53232 1.1717-0.64448 0-0.91063 0.10591-0.83111 0.33073 0.06755 0.19096 0.46822 0.30235 0.94809 0.26358 1.0018-0.08095 1.0966 0.37619 0.15242 0.73516-0.83442 0.31725-0.71383 0.32666-1.2992-0.10139zm0.97249-2.0747c-0.24694-0.24694-0.38806-0.24694-0.635 0-0.24694 0.24694-0.17639 0.3175 0.3175 0.3175s0.56444-0.07056 0.3175-0.3175zm5.4072 0.98369c-0.815-1.7802-0.80445-1.7245-0.32666-1.7245 0.20404 0 0.50879 0.38695 0.67722 0.8599l0.30623 0.8599 0.36834-0.8599c0.20259-0.47294 0.49315-0.8599 0.6457-0.8599 0.36159 0 0.37473-0.06464-0.3479 1.7115l-0.62526 1.5369zm5.3878 0.92131c-0.63907-0.63907-0.67138-1.2667-0.10671-2.0729 0.4632-0.66131 1.6944-0.7185 1.9015-0.08833 0.07816 0.23781-0.07687 0.3238-0.477 0.26458-0.69542-0.10292-1.2158 0.56201-0.96054 1.2273 0.12982 0.33831 0.35214 0.41691 0.83586 0.2955 0.75017-0.18828 0.96196 0.46556 0.24048 0.74242-0.65652 0.25193-0.86725 0.19775-1.4336-0.36857zm3.3262 0.11339c-0.49085-0.49085-0.55114-1.9889-0.09827-2.4417 0.48607-0.48607 1.4837-0.37779 1.7899 0.19427 0.4566 0.85316 0.31711 1.0757-0.6742 1.0757-0.64448 0-0.91063 0.10591-0.83111 0.33073 0.06755 0.19096 0.46822 0.30235 0.94809 0.26358 1.0018-0.08095 1.0966 0.37619 0.15242 0.73516-0.85716 0.32589-0.79562 0.33343-1.2868-0.15774zm1.1717-1.8176c0-0.27926-0.50777-0.39659-0.65879-0.15222-0.0914 0.14789 0.01943 0.2689 0.2463 0.2689 0.22687 0 0.41249-0.0525 0.41249-0.11668zm4.4979 1.7042c-0.29104-0.29104-0.52917-0.64823-0.52917-0.79375 0-0.41599 0.72014-0.30888 0.88943 0.13229 0.20072 0.52306 0.8633 0.50824 1.0675-0.02388 0.21213-0.5528 0.02358-0.82217-0.91537-1.3077-1.2457-0.64419-0.9364-2.2403 0.43417-2.2403 0.71177 0 1.342 0.65629 0.89532 0.93235-0.16527 0.10214-0.43299 0.05321-0.59493-0.10874-0.39562-0.39562-0.6319-0.3707-0.80682 0.08511-0.09228 0.24047 0.18822 0.57655 0.76544 0.91712 1.1168 0.6589 1.2706 1.8611 0.32306 2.5248-0.75675 0.53005-0.89164 0.5197-1.5286-0.11729zm7.3366 0.24028c-0.59862-0.3485-0.35856-0.76323 0.33656-0.58145 0.70002 0.18306 0.68542-0.36724-0.01565-0.58975-0.7972-0.25302-0.61757-1.5826 0.21382-1.5826 0.32742 0 0.56555 0.11906 0.52917 0.26458-0.03638 0.14552-0.21497 0.24805-0.39688 0.22784-0.49752-0.05528-0.39791 0.26438 0.19844 0.6368 0.59289 0.37026 0.69177 1.1159 0.21167 1.596-0.37965 0.37965-0.47002 0.38205-1.0771 0.02861zm5.0988-0.24028c-0.63569-0.63569-0.67164-1.2664-0.11729-2.0578 0.52629-0.75138 1.2958-0.75138 1.8221 0 0.59836 0.85428 0.52048 0.99946-0.53621 0.99946-0.64453 0-0.9106 0.10589-0.831 0.33073 0.0644 0.1819 0.43151 0.30831 0.8158 0.28092 0.81904-0.05839 0.91742 0.31102 0.18694 0.70196-0.68272 0.36538-0.72835 0.35669-1.3403-0.25527zm1.1112-1.905c-0.24694-0.24694-0.38806-0.24694-0.635 0-0.24694 0.24694-0.17639 0.3175 0.3175 0.3175s0.56444-0.07056 0.3175-0.3175zm7.4216 2.2589c-0.58014-0.23409-0.39388-0.93881 0.19844-0.75081 0.69156 0.21949 0.68075-0.17492-0.01674-0.61051-0.77056-0.48122-0.59412-1.5062 0.25927-1.5062 0.35168 0 0.69534 0.1678 0.76371 0.37289 0.0847 0.2541-0.01094 0.321-0.30021 0.20999-0.23348-0.08959-0.49488-0.04904-0.58088 0.09013-0.08601 0.13916-0.0388 0.25303 0.10492 0.25303 0.32098 0 1.0928 0.74749 1.0928 1.0583 0 0.2803-0.76573 1.066-1.0111 1.0374-0.09875-0.01149-0.32837-0.08094-0.51027-0.15434zm6.4054-1.106c-0.52161-1.4506-0.85501-1.3431-0.89673 0.28908-0.01181 0.46211-0.16341 0.7276-0.41547 0.7276-0.47267 0-0.47294-0.0045-0.11754-2.0019 0.49404-2.7767 0.52149-2.7988 1.301-1.0503l0.70344 1.578 0.62661-1.5118c0.34464-0.8315 0.7068-1.5118 0.80482-1.5118 0.09801 0 0.25319 0.7174 0.34483 1.5942 0.09164 0.87682 0.24058 1.8889 0.33096 2.249 0.12382 0.49333 0.05942 0.65474-0.26123 0.65474-0.28335 0-0.43177-0.24314-0.44415-0.7276-0.02173-0.85019-0.4512-2.0163-0.5116-1.3891-0.02102 0.21828-0.24644 0.8687-0.50094 1.4454l-0.46272 1.0485zm4.5428 0.88072c-0.52333-0.52333-0.56753-2.0672-0.07097-2.4793 0.19801-0.16433 0.76356-0.25513 1.2568-0.20176 0.878 0.09499 0.89843 0.12547 0.97673 1.457 0.07079 1.2039 0.02012 1.36-0.44138 1.36-0.28674 0-0.69433 0.06638-0.90575 0.14751-0.21142 0.08113-0.57834-0.04644-0.81539-0.28348zm1.3693-1.2216c0.04946-0.42509-0.07052-0.74948-0.31138-0.84191-0.54543-0.2093-1.0392 0.47372-0.82666 1.1434 0.24504 0.77206 1.0376 0.56207 1.138-0.30154zm6.1577 1.1134c-1.1221-1.1221-0.3934-2.6565 1.2396-2.6101 0.85597 0.02434 0.85664 0.02546 0.85664 1.4393 0 1.0451-0.0981 1.4149-0.37523 1.4149-0.20638 0-0.55436 0.06874-0.77329 0.15275-0.21894 0.08401-0.64539-0.09458-0.94769-0.39688zm1.5197-0.8961c0.11856-0.61564-0.41618-1.2496-0.89805-1.0647-0.38943 0.14944-0.52059 1.1799-0.192 1.5085 0.3222 0.3222 0.9953 0.04814 1.09-0.44382zm6.2839 0.98904c-0.86086-0.86086-0.32776-2.7592 0.77485-2.7592 0.59543 0 1.1906 0.64426 1.1906 1.2888 0 0.14587-0.38696 0.30252-0.8599 0.34812s-0.82374 0.20197-0.77955 0.34749c0.0442 0.14552 0.43115 0.23436 0.8599 0.19743 0.88628-0.07635 1.0305 0.31109 0.26777 0.7193-0.69529 0.37211-0.96614 0.34567-1.4537-0.14188zm1.1717-1.8176c0-0.27926-0.50777-0.39659-0.65879-0.15222-0.0914 0.14789 0.0194 0.2689 0.2463 0.2689 0.22687 0 0.41249-0.0525 0.41249-0.11668zm7.4083 1.7042c-0.63569-0.63569-0.67164-1.2664-0.11729-2.0578 0.52629-0.75138 1.2958-0.75138 1.8221 0 0.59642 0.85152 0.52032 0.99946-0.51417 0.99946-0.67841 0-0.92604 0.11497-0.92604 0.42995 0 0.33661 0.17232 0.39548 0.79375 0.2712 0.8916-0.17832 1.0632 0.19437 0.28198 0.61246-0.68271 0.36538-0.72835 0.35669-1.3403-0.25527zm1.1112-1.905c-0.24694-0.24694-0.38806-0.24694-0.635 0s-0.17639 0.3175 0.3175 0.3175 0.56444-0.07056 0.3175-0.3175zm11.192 2.1146c-1.31-0.7513-1.6068-2.5195-0.63111-3.76 0.45434-0.5776 0.73989-0.69621 1.5192-0.63099 0.68197 0.05707 0.98626 0.22064 1.0516 0.56528 0.0793 0.4183 0.0146 0.44356-0.47081 0.18378-1.2281-0.65728-2.436 0.7417-1.887 2.1856 0.30969 0.81454 1.415 1.2077 2.0091 0.71465 0.32596-0.27052 0.39344-0.2355 0.39344 0.20418 0 0.3267-0.22884 0.59203-0.59531 0.69024-0.76547 0.20514-0.7648 0.20521-1.3891-0.1528zm4.061 0.14222c-0.24028-0.06378-0.58185-0.46598-0.75906-0.89379-0.63915-1.543 1.1186-2.8296 2.2133-1.62 0.58878 0.65059 0.55213 1.5186-0.0913 2.162-0.53928 0.53928-0.5988 0.55464-1.3629 0.35182zm1.0983-1.3818c0-0.82759-0.54756-1.227-1.0261-0.74846-0.32842 0.32841-0.39459 1.0634-0.12044 1.3375 0.097 0.09701 0.39467 0.17639 0.66146 0.17639 0.35859 0 0.48507-0.19958 0.48507-0.76544zm11.372 1.1023c-0.56644-0.39675-0.68372-1.3956-0.2574-2.1922 0.19955-0.37287 0.53132-0.48712 1.3229-0.45555l1.0566 0.04213v1.369c0 1.3208-0.0281 1.3731-0.79917 1.4862-0.44046 0.06465-1.0342-0.04737-1.3229-0.24956zm1.3005-0.70018c0.34772-0.41898 0.15112-1.1202-0.37016-1.3203-0.51094-0.19607-0.99918 0.50366-0.79666 1.1417 0.19809 0.62416 0.7295 0.70546 1.1668 0.17852zm-140.04-1.2837c0.95235-2.225 1.0982-2.4923 1.2548-2.2997 0.049298 0.06063 0.41978 0.94368 0.8233 1.9623 0.40352 1.0186 0.79264 2.0009 0.86472 2.1828 0.072077 0.1819-0.052259 0.33073-0.2763 0.33073-0.22404 0-0.48293-0.23812-0.5753-0.52917-0.12347-0.38901-0.40032-0.52917-1.0453-0.52917-0.65484 0-0.91245 0.13421-1.0157 0.52917-0.076109 0.29104-0.3236 0.52917-0.54999 0.52917-0.33029 0-0.22758-0.42995 0.51985-2.1762zm1.4106-0.24078c-0.24155-0.45134-0.34899-0.49124-0.53442-0.19844-0.36108 0.57014-0.28558 0.76335 0.29828 0.76335 0.46784 0 0.49882-0.0741 0.23614-0.56491zm4.7816 0.16804c0-1.8227 0.07522-2.249 0.39688-2.249 0.27853 0 0.39688 0.28114 0.39688 0.9428 0 0.9043 0.03512 0.93942 0.8599 0.8599 0.79777-0.07692 0.85368-0.14504 0.77381-0.9428-0.06434-0.64268 0.01921-0.8599 0.33073-0.8599 0.34667 0 0.41682 0.37845 0.41682 2.249 0 1.8713-0.07006 2.249-0.41715 2.249-0.32101 0-0.39723-0.22866-0.33073-0.99219 0.08247-0.94688 0.04715-0.99597-0.77348-1.0751-0.84266-0.08125-0.8599-0.06136-0.8599 0.99219 0 0.77925-0.10921 1.0751-0.39688 1.0751-0.32165 0-0.39688-0.42627-0.39688-2.249zm8.2021 0.81906v-1.4299l1.5214 0.04117c0.83674 0.02264 1.6702 0.13734 1.8521 0.25489 0.49468 0.31967 0.43678 2.5637-0.06615 2.5637-0.28798 0-0.39688-0.29643-0.39688-1.0804 0-1.3785-0.62562-1.2871-0.74358 0.10865-0.11228 1.3286-0.53043 1.2273-0.63027-0.15274-0.04475-0.61846-0.20042-1.1245-0.34594-1.1245-0.14552 0-0.30119 0.50602-0.34594 1.1245-0.05539 0.76563-0.20316 1.1245-0.46302 1.1245-0.28541 0-0.38166-0.3606-0.38166-1.4299zm8.9958 0.0011v-1.4288l1.9844 0.07944 0.13964 1.3891c0.10292 1.0238 0.05074 1.3891-0.19844 1.3891-0.21558 0-0.33807-0.36748-0.33807-1.0142 0-0.55783-0.07834-1.0926-0.17409-1.1883-0.3505-0.3505-0.88424 0.43959-0.88424 1.3089 0 0.4915-0.11906 0.89364-0.26458 0.89364s-0.26458-0.64295-0.26458-1.4288zm13.229 0.01383c0-1.3908 0.01357-1.4153 0.79375-1.4375 0.91154-0.02592 1.0368 0.3225 0.26458 0.73579-0.37286 0.19955-0.52917 0.55399-0.52917 1.1999 0 0.5042-0.11906 0.91673-0.26458 0.91673s-0.26458-0.63672-0.26458-1.4149zm6.0854-0.06231c0-1.9429 0.62689-1.8508 0.74143 0.10899 0.06398 1.0947-0.0022 1.3683-0.33073 1.3683-0.32218 0-0.4107-0.31842-0.4107-1.4773zm21.371 0.14686c-0.14449-1.5037 0.0086-2.6384 0.35594-2.6384 0.12856 0 0.23374 0.23812 0.23374 0.52917s0.11906 0.52917 0.26458 0.52917 0.26458 0.17859 0.26458 0.39688c0 0.21828-0.11906 0.39688-0.26458 0.39688s-0.26458 0.47625-0.26458 1.0583c0 1.5119-0.43766 1.31-0.58968-0.27206zm5.6691-0.04714 0.07997-1.3775 1.4552-0.04835c0.80036-0.0266 1.604 0.07209 1.7859 0.21931 0.49242 0.39852 0.43647 2.5841-0.06615 2.5841-0.29554 0-0.39688-0.31228-0.39688-1.223 0-1.0868-0.04675-1.1842-0.41982-0.8746-0.27647 0.22945-0.38495 0.64705-0.31771 1.223 0.06713 0.575-0.01044 0.8746-0.22643 0.8746-0.19736 0-0.36102-0.44897-0.40989-1.1245-0.04475-0.61846-0.20042-1.1245-0.34594-1.1245s-0.3012 0.50602-0.34594 1.1245c-0.0568 0.78511-0.20072 1.1245-0.47685 1.1245-0.31053 0-0.37831-0.29593-0.31552-1.3775zm19.791-0.0348v-1.4123l0.91565-0.03442c1.0937-0.04112 1.2188 0.12162 1.2836 1.6698 0.03353 0.80167-0.05806 1.1894-0.28098 1.1894-0.20706-1.7e-5 -0.33073-0.37928-0.33073-1.0143 0-0.55783-0.07834-1.0926-0.17409-1.1883-0.3505-0.3505-0.88424 0.43959-0.88424 1.3089 0 0.4915-0.11906 0.89364-0.26458 0.89364-0.14552 0-0.26458-0.63555-0.26458-1.4123zm15.081 0.0053v-1.407l1.5935-0.01956c1.8026-0.02213 2.1107 0.25373 2.1107 1.8902 0 1.4275-0.73977 1.269-0.84468-0.18104-0.0448-0.61846-0.20042-1.1245-0.34595-1.1245-0.14552 0-0.30119 0.50602-0.34594 1.1245-0.0554 0.76563-0.20316 1.1245-0.46302 1.1245-0.27745 0-0.38166-0.33395-0.38166-1.223 0-1.0571-0.0538-1.1783-0.39688-0.89364-0.21828 0.18116-0.39687 0.73152-0.39687 1.223 0 0.4915-0.11906 0.89364-0.26458 0.89364s-0.26459-0.63316-0.26459-1.407zm8.4667-0.0041v-1.4111l0.8599-8e-3c0.47294-0.0044 1.0087 0.10938 1.1906 0.25288 0.48111 0.37955 0.43768 2.5774-0.0509 2.5774-0.25987 0-0.40763-0.35885-0.46302-1.1245-0.0448-0.61846-0.20042-1.1245-0.34595-1.1245-0.14552 0-0.30119 0.50602-0.34594 1.1245-0.0554 0.76563-0.20316 1.1245-0.46302 1.1245-0.28478 0-0.38166-0.35818-0.38166-1.4111zm3.6437 0.08071c-0.14546-1.5138 9e-3 -2.6384 0.36248-2.6384 0.43972 0 0.69375 1.1738 0.55829 2.5797-0.17571 1.8236-0.74768 1.86-0.92077 0.05867zm12.761-0.08621v-1.4166l3.3073 0.05508 0.08 1.3891c0.046 0.79837-0.0319 1.3891-0.18322 1.3891-0.14476 0-0.29981-0.50602-0.34456-1.1245-0.0447-0.61846-0.20042-1.1245-0.34594-1.1245s-0.3012 0.50602-0.34594 1.1245c-0.10992 1.5192-0.84469 1.5903-0.84469 0.08176 0-1.0986-0.36283-1.6245-0.63373-0.9185-0.088 0.22935-0.16002 0.76444-0.16002 1.1891s-0.11906 0.77211-0.26458 0.77211-0.26458-0.63747-0.26458-1.4166zm12.7 0.0043v-1.4123l0.92114-0.03463c1.0751-0.04042 1.4601 0.46481 1.4601 1.9159 0 0.66222-0.1183 0.94344-0.39688 0.94344-0.28564 0-0.39687-0.29225-0.39687-1.0427 0-0.5735-0.10558-1.108-0.23461-1.1877-0.41871-0.25878-0.88756 0.61721-0.76764 1.4343 0.0798 0.54384 6e-3 0.79617-0.2342 0.79617-0.24784 0-0.35105-0.41525-0.35105-1.4123zm-99.351-2.2918c-0.10561-0.17088-0.07296-0.42975 0.07257-0.57527 0.17639-0.17639 0.32859-0.16102 0.4566 0.04611 0.10561 0.17088 0.07296 0.42975-0.07256 0.57527-0.17639 0.17639-0.32859 0.16102-0.4566-0.04611zm-43.015-7.6526-0.7734-0.7734v-15.251c0-10.419 0.09058-15.421 0.28588-15.785 0.53718-1.0037 1.8195-1.2835 5.8572-1.2779 5.8577 0.00812 9.7025 0.78738 11.566 2.3443 0.76095 0.6356 0.94714 1.0112 1.1469 2.3135 0.13115 0.85509 0.22979 2.1148 0.21918 2.7993-0.01637 1.0571 0.15965 1.506 1.1682 2.9791 0.65312 0.95398 1.1875 1.9483 1.1875 2.2097s-0.29766 0.87864-0.66146 1.3717c-0.43394 0.58818-0.66146 1.2446-0.66146 1.9084 0 1.2915-1.1722 3.5567-2.0837 4.0267-0.38196 0.19695-1.8256 0.62194-3.208 0.94442s-2.6624 0.6292-2.8443 0.6816c-0.25078 0.07224-0.33073 1.4113-0.33073 5.5396 0 7.19 0.37751 6.7432-5.6969 6.7432h-4.398zm17.189 0.37662c-1.1726-0.63731-1.3113-1.424-1.2331-6.9974l0.07208-5.1393 1.2643-0.32233c0.69537-0.17728 1.5428-0.50481 1.8832-0.72785 0.99106-0.64937 2.0118-2.6286 2.0118-3.9009 0-0.77501 0.19627-1.3759 0.63906-1.9564 0.35148-0.46082 0.67891-1.0131 0.7276-1.2273 0.0487-0.21418-0.44362-1.2065-1.094-2.2051-0.96311-1.4788-1.1926-2.0658-1.2366-3.1633-0.11994-2.9938-0.47827-4.3862-1.3007-5.0545-0.42793-0.34775-1.1135-0.77505-1.5235-0.94955-0.54739-0.23298-0.65284-0.37601-0.39688-0.53832 0.91298-0.57892 2.0181-0.13156 7.6039 3.0782 3.1656 1.819 5.8816 3.3073 6.0356 3.3073 0.15395 0 2.8765-1.4883 6.05-3.3073 3.4185-1.9594 6.0571-3.3073 6.4742-3.3073 0.38727 0 1.0178 0.24677 1.4013 0.54837l0.69714 0.54837v30.342l-0.81405 0.68498c-0.80155 0.67446-0.87908 0.68498-5.0474 0.68498h-4.2334l-0.7734-0.7734c-0.76573-0.76573-0.7734-0.80375-0.7734-3.8365 0-3.5592-0.09875-3.659-1.8531-1.8714l-1.1695 1.1916-1.2098-1.1916c-0.66539-0.65539-1.3545-1.1916-1.5314-1.1916-0.23394 0-0.32164 0.83516-0.32164 3.0631 0 3.0327-0.0077 3.0707-0.7734 3.8365l-0.7734 0.7734-4.0552-0.01059c-2.985-0.0078-4.2376-0.10972-4.7463-0.38619zm31.067-0.24177-0.74236-0.63855v-30.166l0.64143-0.68277c0.63888-0.68006 0.65866-0.68277 4.9736-0.68277h4.3321l1.2976 1.4002v14.766c0 10.258-0.08968 14.962-0.29376 15.41-0.4775 1.048-1.3035 1.2322-5.5248 1.2322-3.7852 0-3.971-0.02534-4.6839-0.63855zm20.373 2.8e-5 -0.74236-0.63852v-30.166l0.64143-0.68281c0.63889-0.68011 0.65858-0.68281 4.9736-0.68281h4.3321l1.2976 1.4002v14.795c0 10.741-0.08435 14.954-0.3078 15.373-0.60643 1.1386-0.9662 1.2222-5.2998 1.231-4.0139 0.0081-4.1772-0.01288-4.8948-0.63011zm25.451 0.2455c-7.1498-1.5806-12.368-7.8004-12.756-15.205-0.16171-3.0829 0.31527-5.3679 1.7146-8.2142 1.3432-2.732 4.4748-5.898 7.1379-7.2164 7.0401-3.4852 15.784-1.5972 20.417 4.4087 1.2135 1.573 2.8264 4.8781 3.0808 6.3135l0.1759 0.99219h-17.31l-0.89959 0.89958c-0.73747 0.73747-0.89958 1.0998-0.89958 2.0108s0.16211 1.2734 0.89958 2.0108l0.89959 0.89958h8.6254c7.3708 0 8.6254 0.05598 8.6254 0.38484 0 0.73009-1.2581 3.8481-2.1492 5.3265-1.3083 2.1707-4.2915 4.8917-6.6182 6.0367-3.3398 1.6435-7.3733 2.1421-10.944 1.3526zm34.359-0.13123c-5.136-1.3465-9.3027-5.0196-11.261-9.9268-0.80507-2.0176-0.84526-2.2901-0.85848-5.8208-0.0166-4.4318 0.45543-6.1549 2.5399-9.2714 4.6324-6.926 13.49-9.2217 21.125-5.4753 3.7103 1.8205 7.0795 5.9154 8.3089 10.098 0.2323 0.7904 0.42237 1.475 0.42237 1.5214 0 0.04635-3.8398 0.08471-8.5328 0.08526-7.9909 9.27e-4 -8.5865 0.03373-9.3783 0.51651-1.2095 0.73745-1.6302 2.232-1.0014 3.5571 0.8164 1.7204 0.9703 1.7462 10.433 1.7462 4.6639 0 8.4798 0.03792 8.4798 0.08427s-0.19007 0.73096-0.42237 1.5214c-2.4719 8.4104-11.472 13.562-19.855 11.364zm-68.455-3.7283c-0.51087-0.40185-0.69714-0.79067-0.69714-1.4552 0-1.8342 2.0058-2.6293 3.3193-1.3157 0.74911 0.74911 0.80175 1.199 0.26234 2.2421-0.62831 1.215-1.7506 1.4208-2.8845 0.52889zm4.3367 0.02593c-1.3255-1.3255-0.69766-3.2388 1.1137-3.3943 0.75354-0.06468 1.0444 0.05808 1.4951 0.63099 0.73809 0.93833 0.70737 1.8391-0.08992 2.6363-0.78411 0.78411-1.81 0.83584-2.5188 0.127zm-4.5959-4.9885c-0.58081-0.64179-0.56637-2.2288 0.02514-2.7618 0.25466-0.2295 0.78745-0.49823 1.184-0.59718 0.58352-0.14562 0.87352-0.02735 1.5214 0.62049 0.94076 0.94076 1.0035 1.5698 0.25204 2.5252-0.67711 0.86081-2.292 0.97629-2.9825 0.21328zm4.3707-0.12851c-0.95369-1.0152-0.72632-2.3341 0.51283-2.9749 1.3878-0.71766 2.8806 0.18622 2.8806 1.7442 0 1.6681-2.2246 2.4749-3.3935 1.2307zm-4.7964-4.3486c0.0067-0.10914 0.89595-1.1509 1.976-2.3151l1.9638-2.1167 2.125 2.1105c1.1688 1.1608 2.125 2.2025 2.125 2.3151 0 0.11255-1.8455 0.20464-4.101 0.20464-2.2556 0-4.0955-0.0893-4.0888-0.19844z" fill="#007478"/></g></svg>
