<?xml version="1.0" encoding="UTF-8"?>
<!-- Created with Inkscape (http://www.inkscape.org/) -->
<svg id="svg1" width="600" height="250" version="1.1" viewBox="0 0 158.75 66.146" xml:space="preserve" xmlns="http://www.w3.org/2000/svg"><g id="layer1"><path id="path3" d="m7.8444 15.893c-4.3942-0.0605-3.9481 0.74508-3.9481 17.1v15.251l0.7736 0.77308 0.77308 0.7736h4.3982c6.0744 0 5.6968 0.44674 5.6968-6.7433 0-4.1282 0.07995-5.4675 0.33073-5.5397 0.1819-0.0524 1.4618-0.35914 2.8443-0.68162 3.844-0.89668 5.2917-2.2563 5.2917-4.9708 0-0.66378 0.22752-1.3202 0.66146-1.9084 0.89907-1.2186 0.84644-1.5769-0.52607-3.5817-1.0086-1.4732-1.1848-1.9221-1.1684-2.9791 0.09037-5.834-2.6999-7.4427-12.933-7.4569-0.84071-1e-3 -1.567-0.0275-2.1947-0.0362zm46.805 0.7891c-1.8756 0-3.3858 1.4456-3.3858 3.2412v27.091c0 1.7956 1.5102 3.2412 3.3858 3.2412h5.1341c1.8756 0 3.3858-1.4456 3.3858-3.2412v-27.091c0-1.7956-1.5102-3.2412-3.3858-3.2412zm21.668 0c-1.8756 0-3.3858 1.4456-3.3858 3.2412v27.091c0 1.7956 1.5102 3.2412 3.3858 3.2412h5.1341c1.8756 0 3.3853-1.4456 3.3853-3.2412v-27.091c0-1.7956-1.5097-3.2412-3.3853-3.2412zm26.422 0.23048a16.338 16.338 0 0 0-16.338 16.338 16.338 16.338 0 0 0 16.338 16.338 16.338 16.338 0 0 0 15.973-13.097h-16.15c-1.7256 0-3.1151-1.4456-3.1151-3.2412 0-1.7956 1.3895-3.2412 3.1151-3.2412h16.19a16.338 16.338 0 0 0-16.012-13.097zm36.115 0a16.338 16.338 0 0 0-16.338 16.338 16.338 16.338 0 0 0 16.338 16.338 16.338 16.338 0 0 0 15.973-13.097h-16.15c-1.7256 0-3.1151-1.4456-3.1151-3.2412 0-1.7956 1.3895-3.2412 3.1151-3.2412h16.19a16.338 16.338 0 0 0-16.012-13.097zm-116.39 0.0842c-0.31927-0.0107-0.55982 0.0697-0.78807 0.21446-0.25597 0.16231-0.15052 0.30549 0.39688 0.53847 2.1407 0.91113 2.6652 2.0256 2.8246 6.0043 0.04397 1.0975 0.27351 1.6844 1.2366 3.1631 1.29 1.9807 1.3125 2.1919 0.36639 3.4324-0.44279 0.58053-0.63924 1.1815-0.63924 1.9565 0 2.208-1.5293 4.0256-3.8949 4.6286l-1.2645 0.32246-0.07235 5.1392c-0.07817 5.5734 0.06089 6.3602 1.2335 6.9975 0.50869 0.27646 1.761 0.37802 4.746 0.38602l4.0556 0.0109 0.77308-0.7736c0.7657-0.76574 0.7736-0.80375 0.7736-3.8365 0-3.5474 0.07486-3.6227 1.8531-1.8712l1.2097 1.1917 1.1694-1.1917c1.7543-1.7875 1.8531-1.688 1.8531 1.8712 0 3.0327 0.0079 3.0707 0.7736 3.8365l0.77308 0.7736h4.2333c4.1684 0 4.2462-0.0108 5.0478-0.68523l0.8139-0.68472v-29.722c0.0074-0.60271-0.69712-1.1679-0.69712-1.1679-1.1858-0.93278-1.826-0.70844-7.8755 2.759-3.1736 1.819-5.8963 3.3073-6.0503 3.3073-0.15395 0-2.8697-1.4883-6.0353-3.3073-4.1894-2.4073-5.8583-3.2608-6.8161-3.2928zm45.49 14.771-4.2592 4.4514 8.4672 0.018-2.1037-2.2345zm-2.0691 5.4198a1.9496 1.9496 0 0 0-1.9492 1.9498 1.9496 1.9496 0 0 0 1.9492 1.9492 1.9496 1.9496 0 0 0 1.9498-1.9492 1.9496 1.9496 0 0 0-1.9498-1.9498zm4.2866 0a1.9496 1.9496 0 0 0-1.9492 1.9498 1.9496 1.9496 0 0 0 1.9492 1.9492 1.9496 1.9496 0 0 0 1.9498-1.9492 1.9496 1.9496 0 0 0-1.9498-1.9498zm-4.2866 4.9702a1.9496 1.9496 0 0 0-1.9492 1.9498 1.9496 1.9496 0 0 0 1.9492 1.9498 1.9496 1.9496 0 0 0 1.9498-1.9498 1.9496 1.9496 0 0 0-1.9498-1.9498zm4.316 0a1.9496 1.9496 0 0 0-1.9498 1.9498 1.9496 1.9496 0 0 0 1.9498 1.9498 1.9496 1.9496 0 0 0 1.9498-1.9498 1.9496 1.9496 0 0 0-1.9498-1.9498z" fill="#007478"/></g></svg>
