<svg xmlns="http://www.w3.org/2000/svg" viewBox="0 0 200 125">
  <g transform="matrix(1.3687002 0 0 1.3728276 -32.58462092 .46947637)">
    <ellipse cx="96.869003" cy="45.184502" rx="57.333897" ry="28.723396" style="opacity:1;fill:#55298a;fill-opacity:1;stroke:#fff;stroke-width:5;stroke-linejoin:bevel;stroke-miterlimit:34.5;stroke-dasharray:none;stroke-opacity:1;paint-order:fill markers stroke"/>
    <ellipse cx="96.869003" cy="45.184498" fill="none" rx="58.795879" ry="30.185377" style="opacity:1;fill:#000;fill-opacity:0;stroke:#000;stroke-width:2.07624;stroke-linejoin:bevel;stroke-miterlimit:34.5;stroke-dasharray:none;stroke-opacity:1;paint-order:fill markers stroke"/>
  </g>
  <path fill="#f7f6fa" d="M137.42787 44.967827c-.097 1.955183-.2283 3.789591-.26631 5.625931-.016.77443.25067 1.55503.23192 2.32902-.0192.79406-.25042 1.72458-1.24395 1.6722-.88558-.0467-1.45188-.66621-1.38221-1.71276.28264-4.24609.53899-8.493995.78677-12.742296.0456-.782534.007-1.570011.007-2.32714-1.52963.06842-2.96185.155435-4.39526.185116-.55972.01159-1.17106.0096-1.66765-.201224-.3889-.165081-.6372-.661442-.94797-1.010621.41849-.3674.82014-1.031571 1.25806-1.056428 4.51903-.256522 9.04353-.421315 13.56783-.572151.40989-.01365.96892.127651 1.21053.409636.35235.411202.47953 1.015338.70269 1.537226-.55057.11711-1.10238.337725-1.65149.331213-1.43743-.01704-2.8757-.107505-4.30967-.219445-.8905-.06952-1.07327.328888-1.14219 1.151181-.18153 2.166038-.49393 4.321109-.75762 6.600542z" style="stroke-width:.264583" transform="translate(-32.17106352 .8462387) scale(1.3644261)"/>
  <path fill="#f8f7fa" d="M116.78761 47.278488c.38858 1.46885-.13499 3.0661 1.02775 4.19647.54103.52595 1.13681 1.09715 1.81865 1.3578 2.11195.80737 4.66154-.10941 5.96544-2.0061.62165-.90426 1.43137-.81131 2.16509-.25893.7507.56517.78947 1.19104.0387 1.95219-2.28465 2.31611-5.07402 3.15268-8.21896 2.9314-2.34573-.16504-4.49166-2.9244-4.94761-5.71764-.70917-4.344616.53419-8.234605 2.80963-11.738482.98698-1.519827 2.74476-2.713447 4.4012-3.579352 2.00109-1.046065 4.5626.702191 5.48411 3.418123.1799.530236.35043 1.116311.30106 1.656128-.0449.490429-.27968 1.213937-.63548 1.371039-.65234.288033-1.30136.0733-1.65645-.775105-.42383-1.012645-.966-1.989754-1.56921-2.908538-.42025-.640115-1.02385-.647531-1.69676-.171051-2.90094 2.054133-4.52176 4.863296-5.04716 8.343162-.0909.602025-.16052 1.207262-.23997 1.928886zM102.785 45.93285c1.19425-3.297807 2.37599-6.492092 3.5319-9.695694.12784-.354308.1865-.771358.14132-1.142777-.10775-.885884.24392-1.592617 1.07532-1.617515.55384-.01659 1.30264.424405 1.64551.893511.46556.636958.7257 1.474738.89927 2.264762.49272 2.242585.8967 4.504664 1.36358 6.902696.0916.03386.363.144902.64113.235043 1.18844.385172 1.47125 1.211522.49491 1.933398-.98911.731311-.80303 1.527424-.70755 2.495164.21929 2.22248.36774 4.45577.41577 6.68746.008.36611-.77242 1.11621-.96201 1.04911-.51992-.18401-1.20796-.64752-1.30631-1.11134-.20609-.97182-.0447-2.01631-.0926-3.02822-.0682-1.44213-.15404-2.88581-.32106-4.31849-.0276-.23672-.53002-.618537-.77553-.591611-.72209.07919-1.42395.335801-2.13622.512941-1.64985.41029-2.87962 1.23482-3.30077 3.02563-.42379 1.80203-.9304 3.58553-1.44353 5.3648-.10379.35985-.45208.96431-.59638.93885-.45049-.0795-1.07534-.31134-1.22839-.66103-.214367-.48978-.186267-1.16996-.0472-1.71375.36094-1.41099.83924-2.79196 1.19089-3.92724-.68644-.41915-1.505367-.66373-1.545167-1.00041-.0682-.577.18618-1.38208.602197-1.78355.68958-.665462 1.6148-1.086774 2.46083-1.711738m3.5739-1.019967c.89868-.291843 1.79736-.583686 2.81789-.915101-.36716-1.897856-.73164-3.781874-1.09612-5.665893-1.0167 2.087753-1.71923 4.202438-2.39379 6.326008-.0133.0418.30137.187761.67202.254986z" style="stroke-width:.264583" transform="translate(-32.17106352 .8462387) scale(1.3644261)"/>
  <path fill="#f6f4f9" d="M99.029103 46.289272c.0893 1.142576-.45269 1.474626-1.41956 1.532486-1.38633.083-2.76401.30188-4.14804.43534-.77506.0747-1.59605.23935-1.99221-.75796-.49041-1.234594-.0255-1.795235 1.29058-1.821961 1.44094-.02926 2.88994-.19446 4.31191-.437824.95457-.163375 1.64522-.09282 1.95732 1.049919z" style="stroke-width:.264583" transform="translate(-32.17106352 .8462387) scale(1.3644261)"/>
  <path fill="#f9f7fa" d="M88.396593 49.022338c-1.42246 1.72104-2.5568 3.66715-4.2142 4.92291-2.2922 1.73674-5.94116 1.70751-7.05605-1.91091-1.41541-4.59372-.2383-8.749375 2.4253-12.572996.67059-.962636 1.48417-1.825133 2.22356-2.740504.93595-1.158713 2.25621-1.691483 3.63389-1.770152.61781-.03528 1.46956.564936 1.89187 1.1219 3.05251 4.025876 3.64983 8.320666 1.09563 12.949752m-3.97178-11.006846c-2.87181 2.174658-3.8345 5.162537-3.32141 8.576194.23762 1.580902-.23943 1.923352-1.6121 1.728612-.0655-.009-.14411.0744-.27221.14587 0 .71363-.0755 1.46381.0149 2.19347.22555 1.82178 1.28255 2.4769 2.90914 1.61086 1.14317-.60866 2.3095-1.4288 3.07315-2.44837 2.47278-3.30144 3.35349-7.402818.99741-11.074507-.37733-.588031-.69628-1.277665-1.78885-.732129z" style="stroke-width:.264583" transform="translate(-32.17106352 .8462387) scale(1.3644261)"/>
  <path fill="#f9f8fa" d="M64.797933 36.457655c1.18527-2.035159 3.53778-3.044111 6.03593-2.639042 1.91614.310698 3.97692 2.185943 4.01328 4.245663.0226 1.278724-.74598 2.612081-1.32239 3.844721-.32078.685972-.95577 1.233985-1.48558 1.810711-.52895.57577-1.10335 1.109779-1.71521 1.719254 2.66642 2.575666 4.16491 5.810096 5.68113 9.023226.23472.49742 1.20278 1.1345.0999 1.71605-.84545.4458-1.70273-.0673-2.17552-1.05163-.65094-1.35529-1.33022-2.70529-2.11263-3.9872-1.21893-1.9971-2.79007-3.67627-5.04396-4.906148-.2676 2.260038-.5482 4.463158-.77767 6.671578-.0669.64364-.0178 1.22061-.9312 1.26938-.97405.052-1.41768-.47535-1.4354-1.29402-.0206-.95059.1876-1.90379.24947-2.85891.29105-4.493386.56597-8.987821.91989-13.563633m6.09902 5.244801c.37244-.629968.9394-1.222457 1.06975-1.899066.17642-.915678.36475-2.125546-.0782-2.794751-.66865-1.010214-2.03049-1.147257-3.21755-.746734-1.07992.364377-1.43527 1.28079-1.41561 2.389021.0278 1.564894.007 3.130645.007 4.965298.26742-.01236.83812.124076 1.20699-.08896.81567-.471088 1.52983-1.117952 2.42758-1.824805z" style="stroke-width:.264583" transform="translate(-32.17106352 .8462387) scale(1.3644261)"/>
  <path fill="#f8f6fa" d="M50.670863 42.489633c-.294426-1.823296-.509841-3.54448-.911945-5.220882-.269491-1.123524.172056-1.687357 1.050865-2.217126 2.536425-1.529012 5.12748-1.116005 7.63083-.09097 1.14912.470527 2.21682 1.323538 3.10133 2.220224 2.15265 2.182294 1.47404 3.741299-.57127 5.808433-1.81542 1.834782-4.25066 2.420233-6.676246 2.959735-.413919.09207-.821748.21151-1.021802.263538 0 2.633463-.02 5.136443.0127 7.638733.0093.71162-.03479 1.49175-.852707 1.43512-.516173-.0357-1.324023-.64072-1.41568-1.10575-.248806-1.26228-.264446-2.58836-.226147-3.88482.04694-1.58886.59318-3.202755-.516136-4.674135-.12563-.166642.01529-.546301.0558-.823804.106511-.730035.225798-1.458208.34041-2.308294m2.594214 1.237293c2.467714-.210529 4.594994-1.116285 6.242534-3.026087.89109-1.032947 1.07206-2.048444.35591-2.579516-1.73811-1.288926-3.72123-1.843839-5.868652-1.671349-.764053.06137-1.361946.37687-1.249511 1.428864.202311 1.892996.255855 3.801893.519719 5.848088z" style="stroke-width:.264583" transform="translate(-32.17106352 .8462387) scale(1.3644261)"/>
</svg>
