<?xml version="1.0" encoding="UTF-8" standalone="no"?>
<!-- Created with Inkscape (http://www.inkscape.org/) -->

<svg
   width="1500"
   height="500"
   viewBox="0 0 396.87499 132.29167"
   version="1.1"
   id="svg1"
   inkscape:version="1.4 (86a8ad7, 2024-10-11)"
   sodipodi:docname="proact.svg"
   xmlns:inkscape="http://www.inkscape.org/namespaces/inkscape"
   xmlns:sodipodi="http://sodipodi.sourceforge.net/DTD/sodipodi-0.dtd"
   xmlns="http://www.w3.org/2000/svg"
   xmlns:svg="http://www.w3.org/2000/svg">
  <sodipodi:namedview
     id="namedview1"
     pagecolor="#ffffff"
     bordercolor="#111111"
     borderopacity="1"
     inkscape:showpageshadow="0"
     inkscape:pageopacity="0"
     inkscape:pagecheckerboard="1"
     inkscape:deskcolor="#d1d1d1"
     inkscape:document-units="px"
     inkscape:zoom="0.27779833"
     inkscape:cx="692.94874"
     inkscape:cy="943.13023"
     inkscape:window-width="1920"
     inkscape:window-height="1115"
     inkscape:window-x="-9"
     inkscape:window-y="-9"
     inkscape:window-maximized="1"
     inkscape:current-layer="layer1" />
  <defs
     id="defs1" />
  <g
     inkscape:label="Layer 1"
     inkscape:groupmode="layer"
     id="layer1">
    <path
       id="ellipse1"
       style="fill:#000000;fill-opacity:1;stroke:none;stroke-width:19.9015;stroke-linejoin:bevel;stroke-miterlimit:34.5;stroke-dasharray:none;stroke-opacity:1;paint-order:markers stroke fill"
       d="m 238.10438,19.974213 c -3.19419,0.290399 -4.6461,2.907204 -4.3557,6.391767 0.29039,1.742282 0.001,3.193058 -0.2892,4.644953 l -14.22977,38.327943 c -3.19419,2.613423 -6.67536,4.06647 -9.57915,6.970271 -1.7423,1.451905 -2.61568,4.647226 -2.32532,6.97026 0.29041,1.161531 3.19306,2.324176 6.09686,4.066456 -1.74229,4.35571 -3.48342,9.86953 -4.64497,15.386767 -0.87106,2.32303 -0.87106,4.93873 0,6.68101 0.58081,1.45191 3.19758,2.61343 4.93988,2.90381 0.58081,0 1.7389,-2.32532 2.31966,-3.77722 l 5.80759,-21.194367 c 1.45191,-7.259502 6.38951,-10.457094 12.77786,-12.199375 2.90384,-0.580798 5.80763,-1.740012 8.71143,-2.030387 0.87106,0 2.9038,1.448492 2.9038,2.319635 0.87141,5.807609 1.16147,11.325967 1.45187,17.133577 0.29083,4.06533 -0.58166,8.134047 0.28973,12.199377 0.29085,1.74228 3.19649,3.48456 5.22917,4.3557 0.87141,0.29041 3.77156,-2.90493 3.77156,-4.06646 -0.29083,-9.001777 -0.87032,-18.006977 -1.74119,-26.718385 -0.29083,-3.774952 -1.16149,-6.964597 2.90376,-9.868398 4.06538,-2.903811 2.61459,-6.102531 -1.74105,-7.554426 l -2.90388,-0.867684 c -1.74229,-9.582554 -3.19638,-18.584355 -5.22907,-27.586143 -0.58056,-2.903801 -1.74007,-6.388366 -3.48236,-8.711412 -1.45239,-2.032714 -4.35847,-3.777269 -6.68151,-3.777269 z M 88.853393,21.136872 c -8.7114,-0.290397 -16.261318,3.77267 -20.326627,10.7418 l -3.77722,53.720381 -0.87339,11.32597 c 0,3.194187 1.742272,5.229107 5.807608,5.229107 3.774945,-0.29039 3.196459,-2.325307 3.777213,-5.229107 0.580782,-8.71142 1.742265,-17.421687 2.903801,-26.423486 8.426226,4.504658 15.456472,11.23283 20.326628,19.453226 2.903801,5.22684 5.809874,10.453687 8.132914,15.970907 2.03265,4.06533 5.51724,5.80875 8.71143,4.06646 4.35569,-2.32304 0.57619,-4.93306 -0.29491,-6.67535 -6.09799,-12.776727 -11.9022,-25.555728 -22.646278,-35.719044 l 6.970285,-6.970274 c 2.032654,-2.323034 4.646063,-4.355704 5.807593,-7.259505 2.32305,-4.646084 5.22343,-10.161047 5.22343,-15.097506 0,-8.130657 -8.13064,-15.682815 -15.970896,-16.844343 l -3.482312,-0.289191 z m -62.142544,1.16265 c -4.646084,0.290399 -9.00066,1.162658 -13.356365,4.066458 -3.4845651,2.03267 -5.2279772,4.354577 -4.0664598,9.000659 1.4519058,6.388376 2.3207758,13.06712 3.4822938,20.326638 l -1.451895,9.289893 c 0,1.161529 -0.580797,2.612294 0,3.193057 4.355705,5.807614 2.036061,12.197107 2.036061,18.585476 -0.280959,5.14711 0.01017,10.3095 0.867684,15.392427 0.290399,1.74229 3.485696,4.35571 5.518366,4.35571 3.484565,0 3.482293,-2.9038 3.482293,-5.80761 V 70.501537 c 0.871085,-0.290399 2.324178,-0.873392 4.066461,-0.873392 9.582553,-2.323048 19.163975,-4.646096 26.423483,-11.615225 8.130646,-8.711413 10.746343,-14.519013 2.325308,-23.230425 -3.774942,-3.484565 -7.842533,-6.96913 -12.488627,-8.711412 -5.226847,-2.323048 -11.031045,-3.77155 -16.838658,-3.77155 z m 272.668381,0.289301 c -1.74231,0 -2.90841,0.581894 -4.65069,1.162648 -6.8855,3.244464 -12.86851,8.130943 -17.42284,14.229777 -9.00178,13.938259 -13.93485,29.038039 -11.03107,46.460863 1.74228,11.034462 10.4503,22.065499 19.7425,22.646269 12.196,0.87108 23.23387,-2.32305 32.52598,-11.615217 2.90389,-2.90381 2.90389,-5.51609 0,-7.54876 -2.90378,-2.32304 -6.38833,-2.61115 -8.71142,0.87339 -5.25516,7.69363 -15.01722,10.90656 -23.81456,7.838 -2.73572,-1.25619 -5.20139,-3.03216 -7.25952,-5.22911 -4.35565,-4.64609 -2.31849,-10.741808 -4.06075,-16.549421 l 1.15697,-7.837999 c 2.03268,-13.647881 8.13291,-24.684601 19.7481,-32.81525 2.90387,-2.03266 5.22807,-2.034932 6.97036,0.578493 2.32297,3.484566 4.35456,7.549895 6.09681,11.615212 1.4519,3.194187 3.77717,4.069863 6.68104,3.19872 1.45189,-0.871085 2.31958,-3.774939 2.31958,-5.807611 0.29083,-2.03266 -0.29193,-4.357966 -1.16257,-6.681014 -2.90389,-8.711412 -10.16002,-14.519015 -16.83874,-14.519015 z m -148.96747,3.193045 c -5.51721,0.580799 -10.74408,2.613426 -14.519,7.259508 l -8.71143,10.747472 c -11.13434,14.094928 -14.71025,32.727761 -9.58481,49.943165 4.3557,14.228637 18.87812,14.227507 28.1703,7.548757 6.38838,-5.226847 10.74181,-12.773327 16.54941,-19.74246 10.1633,-18.293966 7.84028,-35.140569 -4.3557,-51.111488 -1.74229,-2.323048 -4.93533,-4.644954 -7.54877,-4.644954 z m 229.68973,0.873392 -53.72036,2.319632 c -1.7423,0 -3.19188,2.614556 -4.93413,4.066462 1.16147,1.451905 2.02925,3.485693 3.77154,4.066459 2.03257,0.871087 4.35907,0.87339 6.39175,0.87339 l 17.42282,-0.584166 v 9.00066 c -0.87143,16.84206 -1.74119,33.685261 -3.19306,50.527326 0,4.065317 2.03268,6.681017 5.80763,6.681017 3.77496,0.2904 4.93415,-3.48797 4.93415,-6.391777 0,-3.19418 -1.16259,-6.38609 -1.16259,-9.2899 l 1.16259,-22.357027 c 1.1616,-9.001788 2.32307,-17.422824 2.90388,-26.134238 0.28974,-3.194176 1.16148,-4.650615 4.35565,-4.650615 l 17.42282,0.87339 c 2.03268,0 4.35795,-0.871085 6.68102,-1.451893 -1.16147,-1.742282 -1.74227,-4.355706 -2.90374,-5.807612 -1.16162,-1.161517 -3.19769,-1.74114 -4.93997,-1.74114 z M 88.558464,30.426798 c 3.484581,-0.290397 6.389505,0.873393 8.422185,3.777215 1.742264,2.323034 0.869971,7.26178 0.289191,11.036719 -0.580808,2.613423 -2.903801,4.935329 -4.355727,7.548755 -3.484555,2.613423 -6.384938,5.227987 -9.579129,6.970271 -1.451926,0.871085 -3.778362,0.578493 -4.939872,0.578493 V 40.590107 c 0,-4.355706 1.4519,-8.127244 5.807601,-9.579153 1.4519,-0.580796 2.903799,-0.584198 4.355699,-0.584198 z m -62.431781,1.451895 h 2.903809 c 7.549885,0 14.228637,2.034931 20.326625,6.681026 2.613426,2.032659 2.032661,6.097991 -1.451904,10.163309 -6.205006,7.280128 -15.129959,11.689281 -24.68233,12.193714 -1.161517,-8.421034 -1.449634,-15.970929 -2.0304,-23.230436 -0.580796,-4.355704 2.0304,-5.807613 4.9342,-5.807613 z m 122.833177,5.518344 c 2.32305,-0.290397 3.19419,1.744555 4.3557,3.777215 9.29218,14.519025 5.80536,30.489944 -3.77719,43.55706 -3.19419,4.065331 -7.83801,7.260641 -12.19371,9.874061 -6.67875,3.48457 -10.74408,0.86768 -11.61523,-6.39177 v -8.711408 l 0.87339,-0.578493 c 5.51724,0.871086 7.54647,-0.581896 6.67533,-6.970261 -2.32302,-13.647883 1.74344,-25.260824 12.77788,-33.972238 z m 91.18058,2.036061 h 0.28917 l 4.35573,22.357025 -11.32598,3.482304 -2.9038,-0.867684 c 2.57737,-8.547951 5.781,-16.894401 9.58482,-24.971589 z m -41.23741,27.001977 c -6.41523,1.22717 -12.92292,1.908303 -19.45322,2.036072 -5.22684,0 -7.26177,2.323036 -5.22912,7.259507 1.45191,3.774943 4.93989,3.194177 7.84368,2.903802 l 16.26018,-1.746815 c 4.06531,-0.290399 6.09795,-1.450777 5.80759,-6.096859 -0.8711,-3.484566 -2.61568,-4.355707 -5.22911,-4.355707 z"
       sodipodi:nodetypes="ccccccccccccccccccccscccccccccccccccccccscccccccccccssccccccsccccsccccccssccccsscccccccccccccccccsccccccccccccccsccssccccscccccccccccccccscccccccc" />
  </g>
</svg>
