<svg xmlns="http://www.w3.org/2000/svg" viewBox="0 0 16.933 16.933">
  <path d="M1.283-9.072s4.674-2.792 7.014-4.157l3.863 2.166.015-1.127h1.522v1.86l1.953 1.258h-2.195s-5.168-2.907-5.158-2.92c0 0-3.31 1.951-4.969 2.92z" style="fill:#28c3d8;stroke-width:.5612" transform="translate(0 13.229)"/>
  <path d="M7.668-10.955v.742h.743v-.742zm.998 0v.742h.743v-.742zm-.998 1.032v.743h.743v-.743zm.998 0v.743h.743v-.743zm.09 1.405V3.703l6.677-3.857.017-3.6-1.494.919v1.696L10.392.937v-9.455zm-7.273.191V-.06l1.56.846v-2.426L8.09-4.55l.041-1.889.042-1.889H4.829zm1.485 1.634H6.68v1.153L3.226-3.575h-.258z" style="fill:#114f66;stroke-width:.5612" transform="translate(0 13.229)"/>
</svg>
