<svg xmlns="http://www.w3.org/2000/svg" xmlns:xlink="http://www.w3.org/1999/xlink" xml:space="preserve" viewBox="0 0 132.29166 132.29167">
  <defs>
    <linearGradient id="b">
      <stop offset="0" style="stop-color:#faab1b;stop-opacity:1"/>
      <stop offset="1" style="stop-color:#f95607;stop-opacity:1"/>
    </linearGradient>
    <linearGradient id="a">
      <stop offset="0" style="stop-color:#a70003;stop-opacity:1"/>
      <stop offset=".51134384" style="stop-color:#e2542e;stop-opacity:1"/>
      <stop offset=".72251308" style="stop-color:#e85c33;stop-opacity:1"/>
      <stop offset="1" style="stop-color:#ef6538;stop-opacity:1"/>
    </linearGradient>
    <linearGradient xlink:href="#a" id="h" x1="52.953884" x2="58.085804" y1="135.77458" y2="135.77458" gradientUnits="userSpaceOnUse"/>
    <linearGradient xlink:href="#a" id="g" x1="82.934425" x2="89.323105" y1="137.22513" y2="137.22513" gradientUnits="userSpaceOnUse"/>
    <linearGradient xlink:href="#a" id="f" x1="103.94059" x2="114.60031" y1="158.03207" y2="158.03207" gradientUnits="userSpaceOnUse"/>
    <linearGradient xlink:href="#b" id="d" x1="32.026703" x2="106.24423" y1="176.44438" y2="176.44438" gradientUnits="userSpaceOnUse"/>
    <linearGradient xlink:href="#c" id="e" x1="52.953884" x2="58.085804" y1="135.77458" y2="135.77458" gradientTransform="matrix(.71331 -.73862 .93135 .70782 -135.19544 99.275545)" gradientUnits="userSpaceOnUse"/>
    <linearGradient id="c">
      <stop offset="0" style="stop-color:#fa7f46;stop-opacity:1"/>
      <stop offset=".30541012" style="stop-color:#f67842;stop-opacity:1"/>
      <stop offset=".80977315" style="stop-color:#c61c0a;stop-opacity:1"/>
      <stop offset="1" style="stop-color:#bf0d02;stop-opacity:1"/>
    </linearGradient>
  </defs>
  <path d="M106.24423 176.44438a37.108765 37.009277 0 0 1-37.108762 37.00928 37.108765 37.009277 0 0 1-37.108765-37.00928 37.108765 37.009277 0 0 1 37.108765-37.00928 37.108765 37.009277 0 0 1 37.108762 37.00928Z" style="opacity:1;fill:url(#d);fill-rule:evenodd;stroke-width:11.055;stroke-linecap:round;stroke-linejoin:round;paint-order:stroke markers fill" transform="translate(-18.16641832 -137.61162497) scale(1.19667)"/>
  <path d="M25.23709 152.10546c-.332717.39603-.327281 1.02941.203915 1.43312.194371.14772 2.563697 1.09952 5.265261 2.11505 2.701547 1.01553 4.921736 1.85399 4.93383 1.86319l.842983-2.15895c-.0819.0196-2.31188-.77424-4.955392-1.76289-2.64354-.98863-5.058581-1.81884-5.367002-1.84505-.402441-.0342-.723914.11795-.923573.35554z" style="fill:url(#e);stroke-width:1.09216" transform="translate(-18.16641832 -137.61162497) scale(1.19667)"/>
  <path d="M113.49579 155.43895c-.074-.002-.15008.002-.22758.0138-.40337.0614-4.86514 1.50298-8.01873 2.59057-.68426.23599-1.27329.41575-1.30889.39945l.53029 2.18292c.0329-.0279 2.16287-.74191 4.73291-1.58699 2.57004-.84507 4.84879-1.68064 5.06412-1.85689.3567-.29202.3818-.36666.28113-.83819-.1153-.54009-.53486-.88907-1.05325-.90469z" style="fill:url(#f)" transform="translate(-18.16641832 -137.61162497) scale(1.19667)"/>
  <path d="M34.933005 148.39098c-.08991 0-.16324.0697-.16324.15459 0 .0849.0304.15417.0678.15417.03742 0 .11127-.0693.16367-.15417.0525-.0849.02167-.15459-.06823-.15459z" style="fill:#000" transform="translate(-18.16641832 -137.61162497) scale(1.19667)"/>
  <path d="M114.87593 146.05259c-.17744 0-3.3621 1.40619-7.0769 3.12476-3.7148 1.71856-6.99822 3.2258-7.29671 3.34931-.29849.12352-.672175.33944-.830415.48019l-.28761.25608 1.261395 1.70748.5873-.25392c2.94596-1.27317 14.14392-6.57074 14.3749-6.80053.63982-.63651.15779-1.86337-.73196-1.86337z" style="fill:#a70003;fill-opacity:1" transform="translate(-18.16641832 -137.61162497) scale(1.19667)"/>
  <path d="M103.49753 140.69223c-.11888-.0127-.24074.0359-.44479.13732-.4916.24434-7.555995 6.89246-7.687095 7.2341l1.34517 1.5166 1.26139-1.12623c.69365-.6193 2.435645-2.26048 3.870965-3.64727l2.60958-2.52148-.0514-.52338c-.0345-.35295-.18921-.62673-.47545-.83949-.19332-.14372-.3095-.21752-.42838-.23017z" style="fill:#fc9517;fill-opacity:1" transform="translate(-18.16641832 -137.61162497) scale(1.19667)"/>
  <path d="M28.087135 140.32949c-.44857-.0197-1.03172.31047-1.1245.68014-.21535.85804-.01848 1.05303 4.46646 4.42112 2.40021 1.8025 4.49207 3.31047 4.6487 3.35147.15664.041.28458.13378.28458.20598 0 .0722.68059.64667 1.51228 1.27651.83168.62984 1.59207 1.24293 1.68977 1.36243l1.79168-1.59044-6.39201-4.78991c-3.51555-2.63456-6.5281-4.83331-6.69473-4.88621-.05676-.018-.11815-.0283-.18223-.0311z" style="fill:#a70003;fill-opacity:1" transform="translate(-18.16641832 -137.61162497) scale(1.19667)"/>
  <path d="M38.734445 137.73244c-.11962.0126-.23576.0868-.42925.2306-.50655.37652-.62136 1.01063-.27767 1.53517.22362.34129 3.38979 3.79968 5.69029 6.21539.49917.52416.90771.98478.90771 1.02388l1.76448-1.39007c-.03904-.0183-1.5742-1.65796-3.41149-3.64382-1.83728-1.98587-3.5447-3.71086-3.79453-3.8334-.20696-.10149-.32993-.15039-.44954-.13775z" style="fill:#fc9517;fill-opacity:1" transform="translate(-18.16641832 -137.61162497) scale(1.19667)"/>
  <path d="M88.242965 132.57331c-.18819.005-.37584.0903-.57045.25565-.17564.14925-1.27492 2.01571-2.44289 4.14777-1.16797 2.13208-2.2009 3.96135-2.2952 4.06486l2.15529.83559c.05159-.13657.99962-1.90867 2.10649-3.93789 1.10687-2.02921 2.05287-3.89139 2.10217-4.13784.06952-.34756.00033-.53732-.30833-.84597-.2618-.2618-.50511-.3885-.74708-.38217z" style="fill:url(#g)" transform="translate(-18.16641832 -137.61162497) scale(1.19667)"/>
  <path d="M100.25963 131.62846c-.25478-.002-.519575.0893-.750095.29278-.16909.14925-2.48236 2.93795-5.14056 6.19726l-4.83309 5.92606 2.02876 1.23246c0-.0755 1.72949-2.24774 3.84332-4.82748 6.118505-7.46708 5.925205-7.21697 5.925205-7.68449 0-.68232-.51301-1.13307-1.07354-1.13659z" style="fill:#a70003;fill-opacity:1" transform="translate(-18.16641832 -137.61162497) scale(1.19667)"/>
  <path d="M53.951855 130.93666c-.50665.0308-.99797.41292-.99797.98329 0 .20869.6628 2.24502 1.47299 4.52519.81019 2.28017 1.47299 4.15636 1.47299 4.16936l2.18594-.7691c-.06357-.0393-.76735-1.89457-1.5641-4.12272-.79676-2.22816-1.58163-4.22009-1.74418-4.42674-.21211-.26965-.52168-.37774-.82567-.35928z" style="fill:url(#h)" transform="translate(-18.16641832 -137.61162497) scale(1.19667)"/>
  <path d="M69.378715 128.51364c-.38206-.00059-.62906.19614-.7786.60759-.0783.21662-.11013 2.38254-.06953 4.81322.0406 2.43069.04884 4.53151.01814 4.66813l2.28613-.34115c-.0228-.1442-.07638-2.15279-.11918-4.46387-.04277-2.31106-.14233-4.3972-.22153-4.63574-.11165-.3364-.26608-.46716-.68705-.58255-.1587-.0435-.30103-.0654-.42838-.0656z" style="fill:#fc9517;fill-opacity:1" transform="translate(-18.16641832 -137.61162497) scale(1.19667)"/>
  <path d="M43.871545 128.27094c-.59195.021-1.15742.54061-1.03943 1.22555.04442.25782.89428 2.03889 1.88842 3.95776.99413 1.91886 2.56438 4.95389 3.48965 6.74483l1.68243 3.25646 1.97046-1.18236c-.02957-.0321-1.60424-3.05866-3.49916-6.72582-1.89491-3.66717-3.57338-6.80117-3.73018-6.96463-.21844-.22773-.49312-.32134-.76219-.31179zM60.568425 122.46061c-.12282-.011-.25097.0243-.43529.10062-.24428.10118-.52404.35961-.62184.57434-.18422.4043-.21797.15297 1.60426 11.88711.30215 1.94562.5493 3.62245.5493 3.72673l2.3332-.2034-.08119-.35194c-.04471-.19347-.57162-3.56111-1.1707-7.48412-.59909-3.92301-1.15412-7.28638-1.23332-7.47376-.07924-.18737-.3222-.45725-.53979-.59982-.16418-.1076-.28181-.16475-.40463-.17576zM80.854285 122.2611c-.27005-.004-.53753.0981-.74189.32388-.20052.22157-.71671 2.38423-1.80507 7.55926-.83846 3.98685-1.60006 7.51694-1.69236 7.84514l-.16755.59679 2.34745.38261c0-.11071.73154-3.66472 1.62586-7.89782.89433-4.2331 1.58146-7.82189 1.52696-7.97512-.18585-.52294-.64332-.82723-1.0934-.83474z" style="fill:#a70003;fill-opacity:1" transform="translate(-18.16641832 -137.61162497) scale(1.19667)"/>
  <path d="M68.166659 137.43465c-19.790975.47161-36.400187 15.86702-37.963603 36.0295-1.800504 23.22097 14.602292 36.14884 27.512543 40.38454l-1.714671 4.43046 10.779578-2.81479-6.470825-8.31793-1.823529 4.71159c-16.393212-4.78361-27.467626-20.52271-26.094863-38.22416 1.573886-20.29798 19.304858-35.47689 39.602839-33.90298 20.297971 1.5739 35.476892 19.30487 33.903002 39.60284-1.41683 18.23874-15.99533 32.67913-34.246706 33.9227-.01955.73429-.04774 1.46796-.0921 2.20109 19.436244-1.2033 35.016846-16.53928 36.527066-35.95408 1.66758-21.50666-14.414865-40.29314-35.921513-41.96078-1.344161-.10423-2.677782-.13944-3.997183-.108z" style="fill:#ffda5f;fill-opacity:1;fill-rule:evenodd;stroke-width:12.2058;stroke-linecap:round;stroke-linejoin:round;paint-order:stroke markers fill" transform="translate(-18.16641832 -137.61162497) scale(1.19667)"/>
  <path d="M66.078812 168.33698c-.551058-.0106-1.249976.02468-1.605561.09068-1.07335.19897-1.862432.57397-2.480889 1.17891-.605251.592-.860309 1.21132-.862373 2.09613-.0016.6786.086402 1.14185.326899 1.72258.129737.31329.457734.92721.668479 1.25103.06795.10439.123457.19945.123505.21117.000048.0117-.204759.12046-.455585.24182-.520711.25194-1.100697.59982-1.496307.89822-.33658.25388-.864743.76448-1.074836 1.03899-.34966.45689-.627747 1.04695-.761324 1.6142-.07479.31762-.102258 1.12134-.049661 1.45658.240619 1.5333 1.561839 2.6263 3.475836 2.87515.115159.0149.499787.02274.8546.01814.560439-.007.698146-.01947 1.047631-.09457.968363-.20774 1.916347-.60223 2.947702-1.22641l.361877-.21937.370082.34201c.602112.5565 1.212193.91282 1.893594 1.10593.283106.0802.349458.0868.899943.0868.551696 0 .61568-.0062.896921-.0868 1.00697-.28864 1.895459-1.02912 2.397545-1.9981.287055-.55398.343544-.81867.195189-.91549-.155058-.10119-.246397-.06614-.44954.17101-.315254.36815-.60793.52511-1.039857.55836-.539323.0415-.973102-.11886-1.444487-.53461-.247527-.21832-.787709-.79435-.874896-.93277-.01537-.0243.087896-.21686.263419-.49056.585238-.91262 1.086198-1.8168 1.598651-2.88552.574322-1.19774.949015-1.5286 1.827092-1.61506l.195189-.01943v-.50136h-4.414212v.25219c0 .28692-.024243.2669.361445.2984.590859.0482 1.00494.38741 1.061449.86971.05524.47145-.123947 1.05499-.587726 1.91346-.287776.53267-.847329 1.41263-.897784 1.4108-.01838-.00044-3.155148-4.15653-3.341967-4.42803l-.059593-.08723.416288-.15157c2.185561-.79524 3.163091-1.84621 3.072071-3.30181-.07859-1.25691-1.043238-1.9908-2.875154-2.18767-.132524-.0143-.299969-.02241-.483655-.02591zm-28.039876.33467v.51388h.213758c.251244.00029.530941.04478.72505.11574.224857.0822.368932.20958.469836.41412.193164.39157.184825.12367.184825 5.96666 0 4.49161-.006452 5.32761-.042752 5.53223-.08101.45603-.222533.68732-.498769.81531-.194396.09-.534942.15447-.823076.15632l-.228872.00173V182.69548H44.8006l-.009069-.24615-.008204-.24658-.305307-.02116c-.914498-.0654-1.187181-.32576-1.274344-1.21648-.01549-.15825-.028241-1.31452-.028501-2.56898l-.000864-2.28052h.548862l1.812841 3.29015 1.812409 3.28972h4.415076v-.50007l-.140346-.01468c-.310258-.0323-.537348-.2391-.957377-.87144-.415063-.62488-.624809-.97226-3.259919-5.40484l-.097162-.16367.316102-.11703c.685122-.25378 1.312519-.66192 1.761885-1.14652.402809-.4344.649756-.8662.803212-1.40432.07332-.25704.080067-.32423.081617-.8356.0019-.61291-.041849-.86955-.218077-1.28816-.425483-1.01065-1.403197-1.77507-2.614757-2.04474-.821348-.18278-1.294931-.20126-5.570233-.21765l-3.829508-.01511zm42.416941.01382v.51259l.226713.00043c.266191.00029.562144.04448.767802.1153.238233.082.391429.20912.498337.41326.204657.3908.196053.12357.196053 5.955 0 4.48273-.006903 5.3168-.045343 5.52101-.08584.45513-.235894.68626-.528565.814-.20596.0898-.567464.15406-.872738.1559l-.242259.00215V182.68166h7.163703l-.009069-.24572-.009069-.24571-.323012-.02159c-.968898-.0652-1.257998-.32491-1.350346-1.21389-.01642-.15793-.03037-1.31141-.03066-2.56337l-.000432-2.27663h.581681l1.920368 3.28367 1.9208 3.28324h4.677199v-.4992l-.148551-.01469c-.328717-.0322-.569794-.23862-1.014811-.86971-.439758-.62364-.66151-.97024-3.453381-5.39405l-.102776-.16323.335103-.11659c.725876-.25328 1.39029-.66115 1.866389-1.1448.426774-.43354.688127-.86425.850714-1.4013.07768-.25653.084827-.32351.086367-.83387.002-.6117-.044315-.86778-.231032-1.28557-.450798-1.00865-1.486587-1.77172-2.770218-2.04085-.870208-.18242-1.371821-.20087-5.90145-.21722l-4.057517-.01511zm-15.369852.48711c.287992-.00089.323884.00608.566566.11832.552088.25424.996117.89878 1.249298 1.81371.133885.48381.159133.79198.086798 1.05626-.120749.44116-.455647.74552-1.123201 1.01956V173.18c-.361956.14862-.365766.14889-.519065-.04448-.465596-.58725-.981184-1.39103-1.176749-1.83486-.182127-.41331-.232088-.65165-.215054-1.02215.01746-.37998.120234-.62908.342877-.83215.22236-.20278.423296-.27195.78853-.27378zm-21.028612.24183v.00043c.785062-.0302 1.367335.19044 1.832273.69482.477952.51851.71174 1.25908.7108 2.25158-.000607.65365-.08399 1.09959-.289329 1.54554-.349886.75989-.966642 1.21261-1.911731 1.40346-.129866.0263-.458756.05531-.730664.06521l-.494451.01814.000432-2.5556c.000137-1.63817.011574-2.62918.031524-2.76158.04675-.31041.126724-.44301.334672-.55491.156148-.084.209815-.0953.516474-.10709zm42.775364.01252c.831764-.0301 1.4485.19058 1.941096.69396.506383.51749.754115 1.2563.753119 2.24683-.000642.65235-.089045 1.09743-.306602 1.54251-.3707.75838-1.024425 1.21041-2.025736 1.40088-.137593.0262-.485332.0554-.773415.0652l-.523815.01771v-2.55042c.000145-1.63494.011679-2.62426.032819-2.7564.04953-.30979.134649-.44194.354968-.55361.165438-.0838.222665-.09498.547566-.10666zm-24.216414 6.15062c.01866 0 .907339 1.18355 1.974779 2.62987l1.940664 2.62987-.112277.09155c-.359405.29226-.815915.53971-1.180203.64041-.254669.0704-.651383.06428-.883965-.01382-.739061-.24761-1.724982-1.27504-2.423024-2.5258-.452205-.81028-.620967-1.32265-.589454-1.79082.03197-.47512.18073-.78553.552317-1.15256.200021-.19756.640976-.5087.721163-.5087z" style="opacity:.75;fill:#a80000;fill-opacity:1;stroke:#000;stroke-width:1.00803;stroke-linecap:square;stroke-linejoin:bevel;stroke-dasharray:none;stroke-opacity:1;paint-order:stroke fill markers" transform="translate(-14.07089388 -136.70705013) scale(1.19667)"/>
</svg>
