<svg xmlns="http://www.w3.org/2000/svg" xmlns:xlink="http://www.w3.org/1999/xlink" xml:space="preserve" width="500" height="500" viewBox="0 0 132.292 132.292">
  <defs>
    <linearGradient id="a">
      <stop offset=".201" style="stop-color:#ef4b37;stop-opacity:1"/>
      <stop offset="1" style="stop-color:#efff37;stop-opacity:1"/>
    </linearGradient>
    <linearGradient xlink:href="#a" id="b" x1="94.825" y1="19.653" x2="65.013" y2="115.164" gradientUnits="userSpaceOnUse"/>
  </defs>
  <path d="M125.846 67.936a50.006 50.006 0 0 1-50.007 50.006 50.006 50.006 0 0 1-50.006-50.006 50.006 50.006 0 0 1 50.006-50.006 50.006 50.006 0 0 1 50.006 50.006Z" style="opacity:.9;fill:#ef4b37;fill-rule:evenodd;stroke-width:.0833436;stroke-linecap:round;stroke-linejoin:bevel;stroke-miterlimit:0"/>
  <path d="M61.095 115.719a50.006 50.006 0 0 1-33.04-62.527 50.006 50.006 0 0 1 62.528-33.04 50.006 50.006 0 0 1 33.04 62.528 50.006 50.006 0 0 1-62.528 33.04Z" style="opacity:.9;fill:url(#b);fill-rule:evenodd;stroke-width:.0833436;stroke-linecap:round;stroke-linejoin:bevel;stroke-miterlimit:0"/>
  <path d="M60.484 132.043c.658-.02 1.702-.02 2.321.001.62.02.081.038-1.195.038-1.277 0-1.783-.017-1.126-.038zm58.716.003c.273-.025.691-.024.929 0 .237.026.014.046-.497.045-.51 0-.705-.02-.432-.045zm-34.461-.342c.084-.034.184-.03.222.009.039.038-.03.066-.152.06-.135-.006-.163-.033-.07-.07zm.924-.006c.273-.025.69-.025.929 0 .237.025.014.045-.497.045-.51 0-.705-.02-.432-.045zm30.285 0a3.7 3.7 0 0 1 .754 0c.208.026.038.047-.377.047s-.584-.02-.377-.046zm-51.002-.112a.953.953 0 0 1 .406 0c.112.03.02.054-.203.054s-.315-.024-.203-.054zm6.73-.005c.304-.023.8-.023 1.103 0 .303.024.055.044-.551.044-.606 0-.855-.02-.551-.043zm-3.858-.267c-4.067-.219-7.679-.645-10.154-1.198-2.751-.616-6.862-1.79-7.8-2.228a12.255 12.255 0 0 0-1.044-.396c-2.192-.725-3.846-1.425-6.416-2.718-5.946-2.991-10.964-6.49-15.793-11.015-15.101-14.494-19.718-37.127-20.15-48.645-.452-10.275 1.956-20.498 8.158-31.865a65.958 65.958 0 0 1 27.03-25.818c2.051-1.057 4.656-2.25 5.803-2.657.32-.113.737-.273.929-.355 1.142-.489 4.983-1.658 7.426-2.26C57.887 1.646 61.766.989 64.396.703 66.759.448 74.179.337 76.231.528c5.071.47 6.795.706 9.348 1.284 3.511.794 5.993 1.533 7.189 2.14.555.283 1.917.757 2.32.809 1.08.139 6.803 2.901 9.923 4.79 4.075 2.466 6.31 4.117 10.038 7.415 2.116 1.873 6.294 6.193 7 7.24.345.51.207.508-.322-.004-.283-.275-.488-.544-.455-.598.033-.053.014-.083-.042-.065-.159.049-.957-.749-.878-.877.039-.063.017-.08-.048-.04-.132.081-.531-.303-.44-.424.032-.043.026-.054-.013-.026-.04.03-.601-.428-1.248-1.015-1.681-1.526-2.38-2.106-4.019-3.34-.797-.601-1.468-1.132-1.489-1.18-.021-.048-.107-.087-.19-.087-.084 0-.184-.082-.222-.182-.038-.1-.117-.152-.174-.116-.058.035-.136-.017-.175-.116-.038-.1-.123-.148-.189-.107-.065.04-.105.01-.088-.066.04-.177-2.699-1.867-2.904-1.792-.083.03-.12.006-.084-.054.09-.144-.371-.385-.54-.282-.078.05-.099.03-.05-.048.098-.16-.81-.645-.995-.53-.072.043-.099.028-.06-.034.074-.12-.846-.619-1.14-.619-.094 0-.171-.06-.171-.135 0-.075-.035-.1-.078-.058-.042.043-.173-.009-.29-.115-.117-.105-.212-.161-.212-.124 0 .037-.664-.247-1.474-.632-7.612-3.614-16.815-5.67-25.369-5.665-9.472.004-18.413 2.058-26.64 6.12-9.275 4.577-16.843 11.013-22.892 19.467C24.891 37.423 21.611 44.62 19.716 52.176c-1.75 6.977-2.182 14.456-1.265 21.874 1.137 9.19 4.545 18.351 9.713 26.11 2.327 3.493 4.437 6.05 7.619 9.232 4.221 4.22 7.818 6.978 12.915 9.9 2.452 1.407 2.999 1.68 5.774 2.888 6.188 2.694 12.886 4.38 19.263 4.846 3.328.243 9.407.1 12.591-.298 2.476-.308 5.744-.999 8.511-1.798.66-.19 1.298-.362 1.419-.38.12-.018.255-.07.299-.114.044-.044.225-.08.402-.08.177 0 .354-.052.394-.116.04-.064.19-.116.335-.116.145 0 .303-.04.351-.087a.336.336 0 0 1 .165-.094c.32-.027.831-.205.831-.289 0-.057.079-.073.174-.036.099.037.174.003.174-.081 0-.082.033-.115.074-.075.04.04.184.013.319-.062.135-.074.344-.152.465-.172.12-.02.408-.134.638-.255.23-.12.602-.298.825-.394 2.826-1.221 4.872-2.25 7.06-3.547.66-.391 1.256-.677 1.324-.635.069.043.09.022.048-.046-.079-.127.887-.77 1.2-.8l.32-.03c.08-.006.144-.062.144-.124s-.091-.08-.203-.041c-.2.07.157-.19 1.083-.793.334-.217.474-.26.474-.147 0 .089-.096.192-.213.23-.117.036-.212.107-.212.157 0 .265-3.787 2.979-6.676 4.784-5.849 3.654-10.635 5.775-17.257 7.647-1.762.498-5.614 1.304-7.167 1.5-4.754.6-9.617.804-13.81.58zm43.535-13.537c.089-.106.037-.108-.226-.01-.187.071-.404.23-.48.353-.138.22-.134.22.225.01.2-.118.417-.277.48-.353zm2.029-1.602c.037-.096.12-.174.185-.174.068 0 .056.073-.027.174-.08.095-.162.174-.185.174-.022 0-.01-.078.027-.174zM66.688.335c.177-.026.438-.025.58.003.143.027-.001.05-.32.048-.32 0-.436-.023-.26-.05zm9.864 0c.177-.026.438-.025.58.003.143.027-.002.05-.32.048-.32 0-.436-.023-.26-.05zM59.434-.217c.271-.024.715-.024.986 0 .272.024.05.044-.493.044-.542 0-.764-.02-.493-.044zm2.56.006c.084-.033.184-.03.223.01.038.038-.03.065-.153.06-.135-.006-.162-.033-.07-.07z" style="fill:#9f1b21"/>
  <path d="M102.816 44.836c0 5.48-4.441 9.922-9.921 9.922-5.48 0-9.922-4.442-9.922-9.922s4.442-9.922 9.922-9.922 9.922 4.442 9.922 9.922zM51.562 25.031c3.476 5.983 3.611 6.24 5.384 10.162 1.428 3.163 3.026 7.606 3.837 10.67.604 2.283 1.334 6.14 1.704 9 .306 2.37.306 9.771 0 12.027-1.259 9.284-4.49 16.79-10.364 24.078-1.374 1.705-1.766 2.129-4.198 4.548-4.787 4.761-8.46 6.669-8.46 6.669 7.296 9.541 13.986 13.764 29.191 15.287-.173-.847.133-5.534 1.08-8.9.46-1.632 1.81-5.517 2.59-7.453.807-2 2.667-5.904 3.721-7.809 2.293-4.142 6.216-9.23 9.553-12.385 1.459-1.38 4.356-3.706 5.958-4.783 3.58-2.408 8.417-4.708 12.27-5.835 3.175-.928 7.855-1.867 10.793-2.164 2.184-.222 8.204-.203 11.265-.032-.049-1.9-.058-3.591-.318-5.475.01.015-4.318 1.08-8.742 1.521-8.88.886-18.847-.433-26.61-3.52-1.71-.68-5.127-2.332-6.64-3.21-4.212-2.444-8.395-5.896-11.742-9.69-3.515-3.983-6.163-7.94-8.796-13.14-1.367-2.7-1.793-3.687-3.191-7.39-1.238-3.279-2.06-5.902-2.06-5.902-3.266 1.239-3.288 1.214-6.6 3.124 0 0 .306.487.375.602z" style="opacity:1;fill:#fff;fill-rule:evenodd;stroke-width:.0396875;stroke-linecap:round;stroke-linejoin:bevel;stroke-miterlimit:0"/>
</svg>