<?xml version="1.0" encoding="UTF-8" standalone="no"?>
<!-- Created with Inkscape (http://www.inkscape.org/) -->

<svg
   width="500"
   height="500"
   viewBox="0 0 132.29166 132.29167"
   version="1.1"
   id="svg1"
   xml:space="preserve"
   inkscape:version="1.4 (86a8ad7, 2024-10-11)"
   sodipodi:docname="redrose.svg"
   xmlns:inkscape="http://www.inkscape.org/namespaces/inkscape"
   xmlns:sodipodi="http://sodipodi.sourceforge.net/DTD/sodipodi-0.dtd"
   xmlns="http://www.w3.org/2000/svg"
   xmlns:svg="http://www.w3.org/2000/svg"><sodipodi:namedview
     id="namedview1"
     pagecolor="#ffffff"
     bordercolor="#111111"
     borderopacity="1"
     inkscape:showpageshadow="0"
     inkscape:pageopacity="0"
     inkscape:pagecheckerboard="1"
     inkscape:deskcolor="#d1d1d1"
     inkscape:document-units="px"
     inkscape:zoom="0.78573232"
     inkscape:cx="397.08179"
     inkscape:cy="561.25984"
     inkscape:window-width="1920"
     inkscape:window-height="1115"
     inkscape:window-x="-9"
     inkscape:window-y="-9"
     inkscape:window-maximized="1"
     inkscape:current-layer="layer1" /><defs
     id="defs1" /><g
     inkscape:label="Layer 1"
     inkscape:groupmode="layer"
     id="layer1"><path
       style="fill:#df383c;stroke-width:2.22222"
       d="m 57.167239,119.38965 c -2.57928,-1.61836 -5.168586,-5.84581 -6.862711,-11.20447 -0.766767,-2.42534 -1.311051,-4.49537 -1.20952,-4.60006 0.101533,-0.10469 1.069085,0.28734 2.15012,0.87118 2.853709,1.54123 11.580853,1.3877 18.032876,-0.31722 9.771195,-2.582 21.940124,-8.334939 30.969676,-14.641112 l 4.70371,-3.285031 -3.82176,4.354271 C 89.651383,103.6448 76.744108,115.07932 69.581643,118.51549 c -4.603333,2.20843 -9.714304,2.56832 -12.414404,0.87416 z M 27.549715,102.7447 C 22.65074,101.02832 19.703373,98.995555 15.320777,94.310548 12.48298,91.276932 6.7681132,82.971099 7.225641,82.545295 c 0.068142,-0.06342 2.377332,0.640562 5.13153,1.5644 7.722584,2.590382 12.358777,3.089924 25.272457,2.723073 12.038171,-0.341982 18.672173,-1.273824 30.125984,-4.23164 6.150736,-1.588356 15.439162,-4.936795 18.08698,-6.520282 2.063362,-1.233962 -4.648904,5.013035 -10.289353,9.576135 -9.698129,7.845747 -19.788482,13.743576 -28.516202,16.667769 -2.529004,0.84734 -5.810613,1.3664 -9.701389,1.53451 -5.060269,0.21864 -6.423995,0.0633 -9.785933,-1.11456 z M 73.78935,97.166783 c 0.32338,-0.279975 2.103089,-1.646908 3.954911,-3.037628 7.262033,-5.453798 14.816891,-14.997322 18.147556,-22.92454 4.405273,-10.484876 3.480004,-18.763716 -3.078905,-27.548367 -1.267591,-1.697742 -2.17902,-3.086804 -2.025395,-3.086804 1.501344,0 13.879463,4.665116 17.508033,6.598498 19.6754,10.483493 15.38291,24.433486 -12.2245,39.727919 -7.079242,3.921882 -23.908711,11.679556 -22.2817,10.270922 z M 51.152777,79.330248 C 42.336144,78.665704 36.361355,77.754759 30.149906,76.128055 20.952122,73.719264 16.091544,70.643568 14.373531,66.145017 13.188949,63.043235 13.785555,59.68255 16.274846,55.434897 17.941875,52.590328 25.353624,44.483017 28.736631,41.803626 l 2.163737,-1.713711 -0.215911,3.914533 c -0.163,2.955278 0.08991,4.727983 1.032107,7.234067 3.663735,9.745053 14.492826,20.446995 26.75464,26.440504 l 4.672602,2.283942 -2.908714,-0.08369 C 58.635301,79.83325 54.548255,79.586181 51.152768,79.33025 Z M 62.932575,72.885479 C 55.28967,70.137228 47.522424,62.950542 39.947675,51.618575 l -4.7748,-7.143187 1.375369,-1.092882 c 8.052531,-6.398631 13.88186,-9.434975 20.858809,-10.864811 15.623704,-3.201875 27.83539,7.640056 33.627195,29.855315 l 1.136913,4.360785 -1.599195,0.347247 c -0.879556,0.190977 -3.560256,1.423279 -5.957109,2.738433 -7.995996,4.387404 -15.181687,5.403502 -21.682282,3.066004 z m 13.044664,-10.673397 2.932424,-1.261496 -0.397024,-5.045895 c -0.5179,-6.582123 -1.120227,-8.769427 -3.208831,-11.652665 -2.443458,-3.373093 -6.767436,-5.34012 -13.316653,-6.057893 -2.930891,-0.321218 -6.417129,-0.363278 -7.894562,-0.09525 l -2.645834,0.48 5.879629,1.056025 c 3.233796,0.580815 6.937962,1.513726 8.231482,2.073137 3.01784,1.305132 6.004709,4.712703 6.514965,7.432598 0.403953,2.153251 0.04176,8.560093 -0.536854,9.4963 -0.43164,0.698409 -9.843631,-0.186956 -13.601857,-1.279513 -1.687543,-0.490582 -3.785216,-1.455925 -4.661496,-2.145207 -1.546129,-1.216184 -1.561904,-1.287929 -0.533624,-2.426651 1.417631,-1.569893 6.796348,-4.241836 10.997508,-5.463147 3.922843,-1.140402 3.735678,-1.772428 -0.778395,-2.628504 -9.2804,-1.759991 -14.745156,0.654822 -14.745156,6.515718 0,3.844273 3.215038,7.069388 10.264618,10.296793 6.206551,2.841453 11.9925,3.074762 17.49966,0.705647 z M 15.89018,48.288419 c -0.0292,-3.812182 1.84246,-14.518055 3.302484,-18.89027 0.809902,-2.425349 2.244044,-5.759969 3.186982,-7.410271 2.135958,-3.738285 6.828318,-8.18664 10.216809,-9.685531 7.933329,-3.5092894 19.29356,-0.84194 28.640982,6.724819 l 3.732469,3.021445 -8.819445,0.39048 c -5.928235,0.262473 -10.361419,0.792382 -13.523146,1.616458 -12.899631,3.362168 -21.493035,10.934175 -25.41422,22.393524 -1.132071,3.308391 -1.309775,3.555466 -1.322915,1.839346 z m 92.16865,-6.790193 C 103.38779,37.19768 93.629534,32.59982 83.490739,29.92232 78.232659,28.533742 66.12365,27.836902 62.38917,28.707984 c -3.264551,0.761469 -2.781438,0.248591 4.035814,-4.284462 15.037833,-9.999238 24.587153,-11.128367 32.520657,-3.845302 3.402239,3.123304 6.244339,7.486922 8.509929,13.065731 1.31007,3.225929 3.72739,10.494842 3.46854,10.429926 -0.0512,-0.01289 -1.34058,-1.171884 -2.86528,-2.575651 z"
       id="path1" /></g></svg>
