<svg xmlns="http://www.w3.org/2000/svg" xml:space="preserve" viewBox="0 0 132.29166 132.29167">
  <path d="M57.167239 119.38965c-2.57928-1.61836-5.168586-5.84581-6.862711-11.20447-.766767-2.42534-1.311051-4.49537-1.20952-4.60006.101533-.10469 1.069085.28734 2.15012.87118 2.853709 1.54123 11.580853 1.3877 18.032876-.31722 9.771195-2.582 21.940124-8.334939 30.969676-14.641112l4.70371-3.285031-3.82176 4.354271C89.651383 103.6448 76.744108 115.07932 69.581643 118.51549c-4.603333 2.20843-9.714304 2.56832-12.414404.87416zM27.549715 102.7447c-4.898975-1.71638-7.846342-3.749145-12.228938-8.434152-2.837797-3.033616-8.5526638-11.339449-8.095136-11.765253.068142-.06342 2.377332.640562 5.13153 1.5644 7.722584 2.590382 12.358777 3.089924 25.272457 2.723073 12.038171-.341982 18.672173-1.273824 30.125984-4.23164 6.150736-1.588356 15.439162-4.936795 18.08698-6.520282 2.063362-1.233962-4.648904 5.013035-10.289353 9.576135-9.698129 7.845747-19.788482 13.743576-28.516202 16.667769-2.529004.84734-5.810613 1.3664-9.701389 1.53451-5.060269.21864-6.423995.0633-9.785933-1.11456zm46.239635-5.577917c.32338-.279975 2.103089-1.646908 3.954911-3.037628 7.262033-5.453798 14.816891-14.997322 18.147556-22.92454 4.405273-10.484876 3.480004-18.763716-3.078905-27.548367-1.267591-1.697742-2.17902-3.086804-2.025395-3.086804 1.501344 0 13.879463 4.665116 17.508033 6.598498 19.6754 10.483493 15.38291 24.433486-12.2245 39.727919-7.079242 3.921882-23.908711 11.679556-22.2817 10.270922zM51.152777 79.330248c-8.816633-.664544-14.791422-1.575489-21.002871-3.202193-9.197784-2.408791-14.058362-5.484487-15.776375-9.983038-1.184582-3.101782-.587976-6.462467 1.901315-10.71012 1.667029-2.844569 9.078778-10.95188 12.461785-13.631271l2.163737-1.713711-.215911 3.914533c-.163 2.955278.08991 4.727983 1.032107 7.234067 3.663735 9.745053 14.492826 20.446995 26.75464 26.440504l4.672602 2.283942-2.908714-.08369c-1.599791-.046021-5.686837-.29309-9.082324-.549021Zm11.779798-6.444769c-7.642905-2.748251-15.410151-9.934937-22.9849-21.266904l-4.7748-7.143187 1.375369-1.092882c8.052531-6.398631 13.88186-9.434975 20.858809-10.864811 15.623704-3.201875 27.83539 7.640056 33.627195 29.855315l1.136913 4.360785-1.599195.347247c-.879556.190977-3.560256 1.423279-5.957109 2.738433-7.995996 4.387404-15.181687 5.403502-21.682282 3.066004zm13.044664-10.673397 2.932424-1.261496-.397024-5.045895c-.5179-6.582123-1.120227-8.769427-3.208831-11.652665-2.443458-3.373093-6.767436-5.34012-13.316653-6.057893-2.930891-.321218-6.417129-.363278-7.894562-.09525l-2.645834.48 5.879629 1.056025c3.233796.580815 6.937962 1.513726 8.231482 2.073137 3.01784 1.305132 6.004709 4.712703 6.514965 7.432598.403953 2.153251.04176 8.560093-.536854 9.4963-.43164.698409-9.843631-.186956-13.601857-1.279513-1.687543-.490582-3.785216-1.455925-4.661496-2.145207-1.546129-1.216184-1.561904-1.287929-.533624-2.426651 1.417631-1.569893 6.796348-4.241836 10.997508-5.463147 3.922843-1.140402 3.735678-1.772428-.778395-2.628504-9.2804-1.759991-14.745156.654822-14.745156 6.515718 0 3.844273 3.215038 7.069388 10.264618 10.296793 6.206551 2.841453 11.9925 3.074762 17.49966.705647zM15.89018 48.288419c-.0292-3.812182 1.84246-14.518055 3.302484-18.89027.809902-2.425349 2.244044-5.759969 3.186982-7.410271 2.135958-3.738285 6.828318-8.18664 10.216809-9.685531 7.933329-3.5092894 19.29356-.84194 28.640982 6.724819l3.732469 3.021445-8.819445.39048c-5.928235.262473-10.361419.792382-13.523146 1.616458-12.899631 3.362168-21.493035 10.934175-25.41422 22.393524-1.132071 3.308391-1.309775 3.555466-1.322915 1.839346zm92.16865-6.790193c-4.67104-4.300546-14.429296-8.898406-24.568091-11.575906-5.25808-1.388578-17.367089-2.085418-21.101569-1.214336-3.264551.761469-2.781438.248591 4.035814-4.284462 15.037833-9.999238 24.587153-11.128367 32.520657-3.845302 3.402239 3.123304 6.244339 7.486922 8.509929 13.065731 1.31007 3.225929 3.72739 10.494842 3.46854 10.429926-.0512-.01289-1.34058-1.171884-2.86528-2.575651z" style="fill:#df383c;stroke-width:2.22222"/>
</svg>
