<svg width="1209" height="385" viewBox="0 0 1209 385" fill="none" xmlns="http://www.w3.org/2000/svg">
<g clip-path="url(#clip0_2_48)">
<path d="M464.421 120.177L461.808 118.349C455.681 113.991 450.574 110.925 445.637 107.965C441.674 105.606 437.581 103.136 432.91 99.987C417.129 89.1138 409.91 79.0957 408.801 66.489C408.094 58.5818 410.907 50.7276 416.71 44.383C419.943 40.8556 423.874 38.0383 428.254 36.1098C432.634 34.1812 437.366 33.1834 442.152 33.1797C449.931 33.1797 460.664 37.2129 467.677 42.7674C472.872 46.8949 476.488 56.3293 479.401 63.8768C480.286 66.1765 481.123 68.3582 481.901 70.1389C482.698 73.0046 484.154 76.0354 485.841 76.0354C488.701 76.0354 488.749 73.0046 488.79 69.1601V68.5704C488.79 67.2496 489.026 63.8179 489.297 59.4721C489.763 52.0013 490.4 41.7827 490.4 36.352C490.4 35.2906 489.698 32.0947 487.451 31.2102H487.398C474.448 26.8736 460.881 24.6652 447.224 24.671C429.095 24.671 414.245 29.1936 401.848 38.4924C389.286 47.6379 376.612 64.1776 376.612 80.5285C376.612 109.899 398.433 126.055 431.802 147.365C454.938 161.682 468.75 180.156 468.75 196.784C468.75 217.563 453.54 230.476 429.059 230.476C408.211 230.476 389.286 206.584 383.707 184.431C382.345 179.425 381.207 176.883 378.771 176.883C376.129 176.883 375.793 181.052 375.793 184.69C375.793 192.214 376.176 221.16 376.512 226.072L376.547 226.278C377.359 228.916 379.057 231.193 381.354 232.723C392.141 238.331 412.116 242.252 429.92 242.252C466.774 242.252 504.902 218.436 504.902 178.57C504.926 148.409 479.572 130.737 464.421 120.177Z" fill="#1761a1"/>
<path d="M710.656 229.963C703.491 228.094 699.84 225.718 692.503 209.444C683.751 190.545 660.904 137.111 642.545 94.173C613.01 25.0955 612.975 25.0896 612.013 24.9894L611.424 24.9304L609.578 27.5367L609.448 27.7961C607.502 33.6218 553.297 174.719 543.189 197.456C531.14 224.155 526.245 227.782 512.032 230.63L510.64 231.031C507.532 231.921 504.849 232.688 504.849 234.816C504.849 238.071 508.977 238.071 511.672 238.071C516.32 238.021 520.962 237.729 525.579 237.198C529.465 236.815 533.139 236.45 536.955 236.45C543.165 236.45 549.44 236.862 554.978 237.222C559.266 237.505 562.963 237.747 565.812 237.747C569.351 237.747 574.251 237.747 574.251 234.492C574.251 232.894 572.223 231.367 568.666 230.299L566.136 229.621C560.545 228.147 557.166 227.263 554.253 223.819C551.587 220.553 551.646 213.919 554.447 204.591C557.703 191.896 566.189 169.117 569.634 160.957C570.984 157.92 571.745 156.682 573.915 156.682H627.088C627.925 156.699 628.741 156.953 629.439 157.416C630.138 157.878 630.69 158.53 631.033 159.294C639.29 180.356 649.109 207.911 651.085 217.427C651.645 221.219 650.707 224.126 648.213 226.272C645.989 228.212 642.545 229.539 637.957 230.217C634.342 230.807 630.65 231.827 630.65 234.757C630.65 238.012 635.156 238.012 638.44 238.012C642.486 238.012 646.491 237.735 651.126 237.423C657.643 236.968 665.758 236.402 677.347 236.402C686.193 236.402 692.68 236.821 698.366 237.187C702.624 237.464 706.31 237.7 710.09 237.7C712.331 237.7 717.238 236.88 717.238 234.445C717.232 231.679 713.457 230.553 710.656 229.963ZM624.257 143.721C621.898 144.311 613.258 144.665 601.15 144.665C591.749 144.665 584.319 144.665 576.516 144.34C576.446 144.349 576.374 144.349 576.304 144.34C576.304 144.305 576.168 143.998 576.481 143.073C580.922 129.741 594.981 89.5324 599.121 79.6676C599.316 79.2725 599.57 78.7713 599.764 78.4883C600.081 78.947 600.35 79.437 600.566 79.9506C600.696 80.2573 613.671 111.237 623.879 141.127C624.516 143.326 624.221 143.721 624.257 143.721Z" fill="#1761a1"/>
<path d="M1128.89 230.588C1121.72 228.719 1118.07 226.337 1110.73 210.063C1101.98 191.194 1079.14 137.754 1060.79 94.8275C1031.24 25.7147 1031.2 25.7146 1030.23 25.6085L1029.64 25.5496L1027.8 28.1558L1027.66 28.4152C1025.73 34.2351 971.529 175.309 961.409 198.075C949.36 224.775 944.459 228.401 930.252 231.249L928.86 231.656C925.752 232.54 923.063 233.307 923.063 235.435C923.063 238.69 927.191 238.69 929.886 238.69C934.533 238.639 939.175 238.35 943.793 237.823C947.572 237.381 951.371 237.129 955.175 237.069C961.379 237.069 967.66 237.481 973.198 237.847C977.48 238.124 981.183 238.366 984.032 238.366C987.57 238.366 992.471 238.366 992.471 235.111C992.471 233.513 990.442 231.986 986.88 230.919C985.996 230.677 985.152 230.453 984.356 230.246C978.759 228.772 975.386 227.888 972.472 224.438C969.807 221.178 969.866 214.538 972.667 205.21C975.917 192.538 984.409 169.748 987.847 161.576C989.198 158.539 989.965 157.301 992.135 157.301H1045.3C1046.14 157.318 1046.96 157.573 1047.65 158.037C1048.35 158.5 1048.91 159.153 1049.25 159.919C1057.5 180.975 1067.32 208.53 1069.3 218.047C1069.89 221.838 1068.92 224.745 1066.43 226.921C1064.21 228.861 1060.76 230.188 1056.18 230.866C1052.56 231.455 1048.87 232.481 1048.87 235.406C1048.87 238.661 1053.37 238.661 1056.66 238.661C1060.71 238.661 1064.71 238.384 1069.35 238.071C1075.83 237.617 1083.98 237.051 1095.57 237.051C1104.41 237.051 1110.9 237.47 1116.58 237.835C1120.84 238.112 1124.52 238.348 1128.31 238.348C1130.55 238.348 1135.46 237.529 1135.46 235.093C1135.46 232.322 1131.68 231.184 1128.89 230.588ZM994.7 143.686C999.147 130.354 1013.21 90.1457 1017.35 80.2809C1017.54 79.8771 1017.76 79.4835 1017.99 79.1016C1018.31 79.5594 1018.58 80.0495 1018.79 80.5639C1018.92 80.8646 1031.87 111.815 1042.1 141.734C1042.74 143.975 1042.45 144.37 1042.48 144.37C1040.12 144.959 1031.48 145.313 1019.38 145.313C1009.94 145.313 1002.54 145.313 994.742 144.989C994.671 144.995 994.6 144.995 994.529 144.989C994.512 144.924 994.394 144.612 994.7 143.686Z" fill="#1761a1"/>
<path d="M905.865 188.747C903.577 188.747 902.751 190.811 901.395 194.201C896.512 205.404 890.272 216.808 877.805 224.238C871.04 228.649 861.504 233.159 842.03 233.159C823.618 233.159 804.876 224.556 791.854 210.133C771.472 188.37 764.235 155.337 764.235 133.662C764.235 102.41 773.583 75.0212 790.533 56.5651C804.586 42.5079 824.054 36.1043 836.197 36.1043C856.078 36.1043 870.686 40.6387 883.59 50.8455C888.981 54.8198 896.034 64.5549 898.782 76.5484C899.52 79.4966 901.082 81.5073 902.657 81.5073C904.019 81.5073 905.912 79.3669 905.907 75.2276C905.476 71.3712 904.002 55.5863 904.603 48.9174C904.845 47.4668 904.898 43.8641 900.156 41.7C886.498 35.2552 861.268 28.3209 838.138 28.3209C806.692 28.3209 775.624 38.9759 757.076 56.1288C739.277 72.2498 721.101 94.3794 721.101 136.274C721.101 163.469 732.306 192.933 748.943 209.579C763.598 224.497 790.751 242.287 836.858 242.287C864.736 242.287 880.288 236.892 899.219 226.956C901.902 225.612 902.757 222.593 903.618 219.668L903.943 218.554C904.698 215.8 908.519 200.563 908.519 194.632C908.496 193.623 908.372 188.747 905.865 188.747Z" fill="#1761a1"/>
<path d="M375.975 346.172C375.975 351.18 374.11 355.042 370.379 357.758C366.647 360.474 361.41 361.833 354.668 361.833C347.524 361.833 341.956 360.702 337.966 358.442V350.883C340.62 352.215 343.412 353.251 346.293 353.973C349.091 354.706 351.97 355.087 354.862 355.105C359.116 355.105 362.389 354.425 364.682 353.065C365.667 352.481 366.494 351.665 367.091 350.688C367.688 349.711 368.037 348.603 368.107 347.46C368.177 346.317 367.967 345.175 367.494 344.132C367.022 343.089 366.301 342.178 365.395 341.478C363.579 339.992 360.04 338.233 354.78 336.201C349.771 334.337 346.21 332.71 344.099 331.318C342.184 330.13 340.569 328.516 339.381 326.601C338.306 324.665 337.771 322.476 337.83 320.262C337.771 318.221 338.231 316.198 339.168 314.382C340.105 312.567 341.487 311.02 343.185 309.885C346.755 307.345 351.65 306.075 357.87 306.075C363.715 306.087 369.497 307.291 374.861 309.613L371.959 316.235C366.557 314.014 361.662 312.902 357.274 312.898C353.417 312.898 350.506 313.505 348.54 314.72C347.638 315.205 346.886 315.928 346.366 316.811C345.846 317.693 345.578 318.701 345.591 319.726C345.551 321.039 345.938 322.33 346.694 323.405C347.654 324.611 348.861 325.598 350.233 326.3C351.872 327.22 355.017 328.547 359.669 330.28C366.058 332.604 370.371 334.943 372.608 337.297C373.725 338.482 374.598 339.876 375.176 341.399C375.754 342.922 376.025 344.544 375.975 346.172Z" fill="#1761a1"/>
<path d="M407.445 361.833C399.487 361.833 393.21 359.409 388.614 354.562C384.018 349.715 381.718 342.989 381.714 334.384C381.714 325.736 383.849 318.857 388.118 313.747C392.388 308.636 398.127 306.081 405.333 306.081C412.076 306.081 417.412 308.298 421.339 312.733C425.267 317.167 427.233 323.018 427.237 330.286V335.44H390.159C390.324 341.761 391.92 346.555 394.948 349.822C397.975 353.088 402.239 354.727 407.74 354.739C413.656 354.712 419.505 353.474 424.925 351.101V358.366C422.295 359.53 419.555 360.426 416.745 361.043C413.68 361.623 410.564 361.887 407.445 361.833ZM405.233 312.892C400.908 312.892 397.462 314.301 394.895 317.12C392.327 319.938 390.814 323.832 390.354 328.801H418.491C418.491 323.667 417.345 319.736 415.053 317.008C412.76 314.279 409.487 312.904 405.233 312.88V312.892Z" fill="#1761a1"/>
<path d="M461.348 361.833C453.391 361.833 447.114 359.409 442.518 354.562C437.921 349.715 435.621 342.989 435.617 334.384C435.617 325.736 437.754 318.857 442.028 313.747C446.302 308.636 452.038 306.081 459.237 306.081C465.98 306.081 471.315 308.298 475.243 312.733C479.171 317.167 481.137 323.018 481.141 330.286V335.44H444.086C444.251 341.761 445.848 346.555 448.875 349.822C451.903 353.088 456.166 354.727 461.667 354.739C467.584 354.712 473.433 353.474 478.852 351.101V358.366C476.224 359.528 473.486 360.425 470.678 361.043C467.604 361.624 464.477 361.889 461.348 361.833ZM459.137 312.892C454.812 312.892 451.368 314.301 448.804 317.12C446.241 319.938 444.725 323.832 444.257 328.801H472.395C472.395 323.667 471.249 319.736 468.956 317.008C466.664 314.279 463.391 312.904 459.137 312.88V312.892Z" fill="#1761a1"/>
<path d="M564.102 360.866L554.229 329.296C553.604 327.37 552.442 322.985 550.744 316.141H550.349C549.039 321.868 547.893 326.287 546.91 329.396L536.749 360.866H527.313L512.634 307.054H521.179C524.647 320.573 527.289 330.868 529.106 337.94C530.922 345.012 531.962 349.772 532.225 352.221H532.615C532.976 350.358 533.566 347.944 534.384 344.981C535.202 342.017 535.898 339.67 536.472 337.94L546.338 307.054H555.185L564.809 337.94C566.383 342.576 567.631 347.317 568.543 352.127H568.932C569.189 350.293 569.543 348.475 569.993 346.679C570.56 344.218 573.97 331.01 580.226 307.054H588.671L573.768 360.866H564.102Z" fill="#1761a1"/>
<path d="M634.696 360.866V326.076C634.696 321.689 633.697 318.415 631.7 316.253C629.702 314.091 626.577 313.012 622.322 313.016C616.657 313.016 612.529 314.555 609.938 317.633C607.347 320.711 606.047 325.75 606.039 332.751V360.866H597.865V284.459H606.022V307.579C606.048 309.893 605.916 312.206 605.626 314.501H606.116C607.78 311.859 610.155 309.74 612.969 308.387C616.124 306.852 619.598 306.086 623.107 306.152C629.688 306.152 634.623 307.724 637.91 310.869C641.197 314.014 642.842 318.981 642.846 325.77V360.866H634.696Z" fill="#1761a1"/>
<path d="M692.185 360.866L690.563 353.2H690.168C687.487 356.573 684.811 358.857 682.141 360.052C679.472 361.247 676.142 361.837 672.151 361.821C666.812 361.821 662.628 360.445 659.601 357.693C656.574 354.942 655.06 351.03 655.06 345.959C655.06 335.09 663.751 329.39 681.133 328.859L690.268 328.571V325.233C690.268 321.007 689.36 317.888 687.544 315.875C685.727 313.863 682.816 312.864 678.809 312.88C674.323 312.88 669.249 314.256 663.588 317.008L661.117 310.745C663.874 309.268 666.801 308.131 669.833 307.361C672.935 306.55 676.128 306.138 679.334 306.134C685.751 306.134 690.506 307.557 693.6 310.403C696.695 313.25 698.242 317.815 698.242 324.101V360.866H692.185ZM673.767 355.123C678.843 355.123 682.829 353.731 685.727 350.948C688.625 348.165 690.074 344.271 690.074 339.267V334.402L681.917 334.744C675.434 334.972 670.763 335.978 667.905 337.763C665.046 339.548 663.613 342.323 663.605 346.089C663.605 349.037 664.496 351.278 666.283 352.811C668.07 354.344 670.553 355.105 673.767 355.105V355.123Z" fill="#1761a1"/>
<path d="M731.887 355.105C734.374 355.088 736.849 354.757 739.253 354.12V360.359C738.005 360.883 736.692 361.238 735.349 361.414C733.816 361.676 732.264 361.816 730.708 361.833C720.301 361.833 715.095 356.351 715.091 345.387V313.375H707.395V309.442L715.103 306.058L718.541 294.571H723.259V307.036H738.876V313.375H723.253V345.039C723.253 348.283 724.026 350.765 725.565 352.504C727.104 354.244 729.216 355.105 731.887 355.105Z" fill="#1761a1"/>
<path d="M756.067 289.07L756.805 290.155C755.947 293.429 754.719 297.233 753.119 301.565C751.518 305.897 749.841 309.94 748.088 313.694H742.096C744.392 304.365 746.061 296.165 747.103 289.093L756.067 289.07Z" fill="#1761a1"/>
<path d="M800.812 346.172C800.812 351.18 798.947 355.042 795.215 357.758C791.484 360.474 786.247 361.833 779.504 361.833C772.368 361.833 766.803 360.702 762.808 358.442V350.883C765.46 352.215 768.251 353.251 771.13 353.973C773.928 354.706 776.806 355.087 779.699 355.105C783.957 355.105 787.23 354.425 789.518 353.065C790.503 352.481 791.33 351.665 791.927 350.688C792.524 349.711 792.873 348.603 792.944 347.46C793.014 346.317 792.804 345.175 792.331 344.132C791.858 343.089 791.138 342.178 790.232 341.478C788.415 339.992 784.877 338.233 779.616 336.201C774.607 334.337 771.047 332.71 768.936 331.318C767.022 330.128 765.408 328.514 764.218 326.601C763.145 324.664 762.612 322.475 762.673 320.262C762.612 318.22 763.071 316.197 764.008 314.381C764.945 312.566 766.328 311.018 768.028 309.885C771.59 307.345 776.483 306.075 782.707 306.075C788.552 306.086 794.334 307.29 799.697 309.613L796.802 316.235C791.4 314.014 786.505 312.902 782.117 312.898C778.256 312.898 775.342 313.505 773.377 314.72C772.475 315.206 771.724 315.929 771.204 316.812C770.684 317.694 770.416 318.702 770.428 319.726C770.39 321.04 770.779 322.331 771.537 323.405C772.496 324.611 773.703 325.598 775.075 326.3C776.715 327.22 779.86 328.547 784.511 330.28C790.892 332.604 795.206 334.943 797.451 337.297C798.567 338.483 799.438 339.877 800.015 341.4C800.592 342.922 800.863 344.544 800.812 346.172Z" fill="#1761a1"/>
<path d="M864.229 361.833C860.929 361.873 857.658 361.212 854.633 359.893C851.716 358.584 849.199 356.525 847.338 353.925H846.748C847.131 356.888 847.328 359.872 847.338 362.859V385H839.188V307.037H845.816L846.949 314.407H847.338C849.18 311.678 851.703 309.476 854.657 308.021C857.662 306.665 860.932 305.995 864.229 306.058C871.365 306.058 876.869 308.497 880.742 313.375C884.615 318.254 886.555 325.094 886.563 333.895C886.563 342.728 884.597 349.594 880.665 354.492C876.733 359.39 871.255 361.837 864.229 361.833ZM863.049 312.98C857.545 312.98 853.566 314.502 851.112 317.544C848.659 320.587 847.399 325.432 847.332 332.079V333.895C847.332 341.454 848.592 346.862 851.112 350.116C853.633 353.371 857.676 355.001 863.244 355.005C865.395 355.074 867.528 354.592 869.439 353.604C871.351 352.616 872.978 351.156 874.166 349.362C876.804 345.592 878.123 340.403 878.123 333.795C878.123 327.085 876.804 321.939 874.166 318.358C871.528 314.777 867.824 312.984 863.055 312.98H863.049Z" fill="#1761a1"/>
<path d="M946.759 333.895C946.759 342.669 944.551 349.517 940.136 354.438C935.721 359.36 929.615 361.825 921.818 361.833C917.315 361.914 912.877 360.74 909.003 358.442C905.221 356.131 902.213 352.746 900.363 348.719C898.334 344.497 897.318 339.556 897.314 333.895C897.314 325.121 899.508 318.289 903.896 313.399C908.283 308.509 914.378 306.062 922.178 306.058C929.703 306.058 935.683 308.562 940.118 313.57C944.553 318.578 946.767 325.353 946.759 333.895ZM905.765 333.895C905.765 340.77 907.141 346.006 909.893 349.603C912.646 353.2 916.687 355.001 922.019 355.005C927.354 355.005 931.406 353.212 934.174 349.627C936.942 346.042 938.318 340.798 938.302 333.895C938.302 327.055 936.926 321.858 934.174 318.305C931.421 314.751 927.338 312.982 921.924 312.998C916.585 312.998 912.559 314.749 909.846 318.252C907.133 321.754 905.773 326.969 905.765 333.895Z" fill="#1761a1"/>
<path d="M995.266 346.172C995.266 351.18 993.399 355.042 989.664 357.758C985.929 360.474 980.692 361.833 973.953 361.833C966.817 361.833 961.251 360.702 957.257 358.442V350.883C959.909 352.214 962.7 353.25 965.578 353.973C968.376 354.706 971.255 355.086 974.147 355.105C978.405 355.105 981.679 354.425 983.967 353.065C984.952 352.481 985.779 351.665 986.376 350.688C986.973 349.711 987.322 348.603 987.392 347.46C987.463 346.317 987.252 345.175 986.78 344.132C986.307 343.089 985.586 342.178 984.68 341.478C982.864 339.992 979.325 338.233 974.065 336.201C969.06 334.337 965.5 332.71 963.384 331.318C961.471 330.128 959.856 328.514 958.666 326.601C957.595 324.664 957.062 322.475 957.121 320.262C957.06 318.22 957.52 316.197 958.457 314.381C959.393 312.566 960.777 311.018 962.476 309.885C966.046 307.345 970.939 306.075 977.155 306.075C983.001 306.085 988.782 307.289 994.146 309.613L991.25 316.235C985.848 314.014 980.953 312.902 976.565 312.898C972.7 312.898 969.787 313.505 967.825 314.72C966.923 315.205 966.172 315.929 965.652 316.811C965.132 317.694 964.864 318.702 964.876 319.726C964.836 321.039 965.223 322.33 965.979 323.405C966.938 324.612 968.145 325.599 969.518 326.3C971.149 327.22 974.295 328.547 978.954 330.28C985.339 332.604 989.652 334.943 991.893 337.297C993.012 338.482 993.885 339.876 994.464 341.398C995.043 342.921 995.316 344.543 995.266 346.172Z" fill="#1761a1"/>
<path d="M1042.74 346.172C1042.74 351.18 1040.87 355.042 1037.14 357.758C1033.41 360.474 1028.17 361.833 1021.43 361.833C1014.28 361.833 1008.72 360.702 1004.73 358.442V350.883C1007.38 352.215 1010.17 353.251 1013.05 353.973C1015.85 354.706 1018.73 355.087 1021.62 355.105C1025.88 355.105 1029.15 354.425 1031.44 353.065C1032.43 352.481 1033.25 351.665 1033.85 350.688C1034.45 349.711 1034.8 348.603 1034.87 347.46C1034.94 346.317 1034.73 345.175 1034.25 344.132C1033.78 343.089 1033.06 342.178 1032.16 341.478C1030.34 339.992 1026.8 338.233 1021.54 336.201C1016.54 334.337 1012.97 332.71 1010.86 331.318C1008.94 330.13 1007.33 328.516 1006.14 326.601C1005.07 324.664 1004.54 322.475 1004.6 320.262C1004.54 318.221 1005 316.198 1005.93 314.383C1006.87 312.568 1008.25 311.02 1009.95 309.885C1013.51 307.345 1018.41 306.075 1024.63 306.075C1030.48 306.086 1036.26 307.29 1041.62 309.613L1038.72 316.235C1033.32 314.014 1028.42 312.902 1024.04 312.898C1020.18 312.898 1017.26 313.505 1015.3 314.72C1014.4 315.205 1013.65 315.928 1013.13 316.811C1012.61 317.693 1012.34 318.701 1012.35 319.726C1012.31 321.04 1012.7 322.331 1013.46 323.405C1014.42 324.612 1015.63 325.6 1017 326.3C1018.64 327.22 1021.78 328.547 1026.44 330.28C1032.82 332.604 1037.13 334.943 1039.37 337.297C1040.49 338.482 1041.36 339.876 1041.94 341.399C1042.51 342.922 1042.79 344.544 1042.74 346.172Z" fill="#1761a1"/>
<path d="M1054.8 292.466C1054.8 290.603 1055.26 289.227 1056.18 288.339C1057.11 287.493 1058.33 287.024 1059.59 287.024C1060.85 287.024 1062.07 287.493 1063 288.339C1063.95 289.223 1064.42 290.581 1064.43 292.413C1064.43 294.247 1063.95 295.609 1063 296.541C1062.08 297.408 1060.86 297.892 1059.59 297.892C1058.32 297.892 1057.1 297.408 1056.18 296.541C1055.26 295.656 1054.8 294.294 1054.8 292.466ZM1063.65 360.866H1055.49V307.054H1063.64L1063.65 360.866Z" fill="#1761a1"/>
<path d="M1105.46 306.158C1112.54 306.158 1118.03 308.572 1121.94 313.399C1125.85 318.226 1127.8 325.058 1127.81 333.895C1127.81 342.728 1125.84 349.593 1121.91 354.492C1117.98 359.39 1112.5 361.837 1105.49 361.833C1102.18 361.872 1098.91 361.211 1095.88 359.893C1092.97 358.584 1090.45 356.525 1088.6 353.925H1088.01L1086.29 360.848H1080.43V284.459H1088.58V303.015C1088.58 307.174 1088.45 310.909 1088.19 314.218H1088.58C1092.37 308.845 1098 306.158 1105.46 306.158ZM1104.28 312.98C1098.72 312.98 1094.71 314.576 1092.25 317.768C1089.8 320.96 1088.57 326.336 1088.57 333.895C1088.57 341.454 1089.83 346.861 1092.35 350.116C1094.87 353.371 1098.91 355.001 1104.48 355.005C1109.48 355.005 1113.22 353.181 1115.68 349.533C1118.15 345.885 1119.38 340.639 1119.37 333.795C1119.37 326.79 1118.14 321.569 1115.68 318.134C1113.23 314.698 1109.43 312.98 1104.29 312.98H1104.28Z" fill="#1761a1"/>
<path d="M1149.69 360.866H1141.54V284.459H1149.69V360.866Z" fill="#1761a1"/>
<path d="M1189.21 361.833C1181.26 361.833 1174.98 359.409 1170.38 354.562C1165.78 349.715 1163.48 342.989 1163.48 334.384C1163.48 325.736 1165.62 318.857 1169.89 313.747C1174.17 308.636 1179.9 306.081 1187.1 306.081C1193.84 306.081 1199.18 308.298 1203.11 312.733C1207.04 317.167 1209.01 323.018 1209.01 330.286V335.44H1171.93C1172.1 341.761 1173.7 346.555 1176.72 349.822C1179.75 353.088 1184.01 354.727 1189.51 354.739C1195.43 354.712 1201.28 353.474 1206.7 351.101V358.366C1204.07 359.528 1201.33 360.425 1198.53 361.043C1195.46 361.623 1192.34 361.888 1189.21 361.833ZM1187 312.892C1182.68 312.892 1179.23 314.301 1176.67 317.12C1174.11 319.938 1172.59 323.832 1172.12 328.801H1200.26C1200.26 323.667 1199.11 319.736 1196.82 317.008C1194.53 314.279 1191.26 312.904 1187 312.88V312.892Z" fill="#1761a1"/>
<path d="M283.838 1.54492L193.605 157.802H374.088L283.838 1.54492ZM283.838 113.024L260.425 130.03L269.371 102.511L245.958 85.4993H274.897L283.838 57.9803L292.784 85.4993H321.724L298.31 102.505L307.263 130.03L283.838 113.024Z" fill="#1761a1"/>
<path d="M86.1575 169.035C86.1575 214.745 123.353 251.934 169.065 251.934C214.777 251.934 251.979 214.745 251.979 169.035C251.979 167.761 251.938 166.493 251.879 165.226H229.026C229.103 166.493 229.215 167.749 229.215 169.035C229.199 184.981 222.856 200.27 211.578 211.546C200.3 222.822 185.009 229.164 169.059 229.179C153.111 229.162 137.82 222.82 126.542 211.544C115.265 200.269 108.922 184.981 108.904 169.035C108.923 153.089 115.267 137.802 126.544 126.527C137.821 115.252 153.111 108.909 169.059 108.891C182.431 108.892 195.415 113.377 205.937 121.627L217.414 101.756C203.34 91.589 186.416 86.1227 169.054 86.136C123.353 86.1419 86.1575 123.331 86.1575 169.035Z" fill="#1761a1"/>
<path d="M42.2678 169.035C42.2678 238.944 99.1498 295.81 169.065 295.81C238.981 295.81 295.863 238.938 295.863 169.035C295.863 167.791 295.804 166.558 295.769 165.32H273.588C273.629 166.558 273.676 167.791 273.676 169.035C273.676 226.709 226.749 273.627 169.065 273.627C111.381 273.627 64.4544 226.709 64.4544 169.035C64.4544 111.361 111.387 64.4428 169.065 64.4428C190.162 64.4213 210.766 70.8172 228.141 82.7809L239.264 63.5229C218.495 49.6389 194.067 42.2381 169.083 42.2602C99.1498 42.2602 42.2678 99.1319 42.2678 169.035Z" fill="#1761a1"/>
<path d="M315.284 165.226C315.313 166.499 315.378 167.761 315.378 169.035C315.378 249.699 249.744 315.321 169.065 315.321C88.3867 315.321 22.7587 249.699 22.7587 169.035C22.7587 88.3709 88.3927 22.7547 169.065 22.7547C197.548 22.7276 225.412 31.0665 249.196 46.7357L260.584 27.0178C233.33 9.35865 201.542 -0.0257406 169.065 5.3029e-05C75.8426 5.3029e-05 0 75.829 0 169.035C0 262.241 75.8426 338.076 169.065 338.076C262.288 338.076 338.137 262.247 338.137 169.035C338.137 167.761 338.066 166.499 338.042 165.226H315.284Z" fill="#1761a1"/>
</g>
<defs>
<clipPath id="clip0_2_48">
<rect width="1209" height="385" fill="#1761a1"/>
</clipPath>
</defs>
</svg>
