<?xml version="1.0" encoding="UTF-8" standalone="no"?>
<!-- Created with Inkscape (http://www.inkscape.org/) -->

<svg
   width="500"
   height="150"
   viewBox="0 0 132.29166 39.687501"
   version="1.1"
   id="svg1"
   xml:space="preserve"
   inkscape:version="1.4 (86a8ad7, 2024-10-11)"
   sodipodi:docname="savagesisters.svg"
   xmlns:inkscape="http://www.inkscape.org/namespaces/inkscape"
   xmlns:sodipodi="http://sodipodi.sourceforge.net/DTD/sodipodi-0.dtd"
   xmlns="http://www.w3.org/2000/svg"
   xmlns:svg="http://www.w3.org/2000/svg"><sodipodi:namedview
     id="namedview1"
     pagecolor="#ffffff"
     bordercolor="#111111"
     borderopacity="1"
     inkscape:showpageshadow="0"
     inkscape:pageopacity="0"
     inkscape:pagecheckerboard="1"
     inkscape:deskcolor="#d1d1d1"
     inkscape:document-units="px"
     inkscape:zoom="0.55559665"
     inkscape:cx="440.96738"
     inkscape:cy="646.1522"
     inkscape:window-width="1920"
     inkscape:window-height="1115"
     inkscape:window-x="-9"
     inkscape:window-y="-9"
     inkscape:window-maximized="1"
     inkscape:current-layer="layer1" /><defs
     id="defs1" /><g
     inkscape:label="Layer 1"
     inkscape:groupmode="layer"
     id="layer1"><path
       style="fill:#000000;stroke-width:0.668894"
       d="M 17.140258,33.278382 C 11.466297,32.734631 6.9124339,29.021258 5.2304441,23.566714 4.8848933,22.446122 4.8605757,22.201133 4.8605757,19.840479 c 0,-2.360662 0.024321,-2.605651 0.3698684,-3.726243 C 7.1794565,9.7937618 13.188288,5.7420828 19.553159,6.4566022 c 3.22265,0.3617781 5.827414,1.6075266 8.119948,3.8834388 1.789612,1.77663 2.911524,3.731948 3.569387,6.22087 0.291262,1.101949 0.343375,1.59968 0.343375,3.279568 0,1.67988 -0.05211,2.177618 -0.343375,3.279561 -1.20842,4.571871 -4.527207,8.108689 -8.955719,9.544076 -1.465874,0.475122 -3.751632,0.747937 -5.146517,0.614266 z m 4.097492,-1.411013 c 1.325664,-0.343978 3.102507,-1.175474 4.227738,-1.978428 0.838992,-0.598687 2.526226,-2.286253 2.803156,-2.803703 l 0.149329,-0.279023 H 18.152712 c -9.7548387,0 -10.2561936,0.01191 -10.082936,0.239023 2.083056,2.73082 4.740587,4.422233 7.886918,5.019709 1.408385,0.267444 3.839426,0.176495 5.281056,-0.197578 z m -6.383538,-5.67766 C 14.277,25.97769 13.302693,25.33608 12.931431,24.923506 c -0.424469,-0.471698 0.01616,-0.518614 0.498739,-0.05311 0.533277,0.514413 1.689058,1.059709 2.685715,1.267107 1.037022,0.215798 2.658997,0.08339 3.520996,-0.287431 2.260436,-0.972411 3.086713,-3.937225 1.566301,-5.620135 -0.599705,-0.663804 -1.312367,-1.036445 -3.106843,-1.62453 -1.063406,-0.348494 -1.47924,-0.560186 -1.878017,-0.956037 -0.456882,-0.453531 -0.512187,-0.582774 -0.512187,-1.196933 0,-1.224785 0.897977,-1.938716 2.438512,-1.938716 0.616641,0 0.978542,0.08906 1.526341,0.375604 0.710554,0.371684 1.093628,0.757683 0.922132,0.929181 -0.04875,0.04876 -0.30502,-0.07641 -0.569489,-0.278133 -0.264469,-0.201718 -0.76816,-0.453229 -1.119313,-0.558908 -1.994518,-0.600265 -3.74683,1.174023 -2.406194,2.436367 0.215425,0.202842 1.046454,0.58565 1.996991,0.919897 2.281941,0.802425 3.085583,1.370805 3.573122,2.527108 0.332118,0.78769 0.295129,2.326374 -0.07615,3.167689 -0.379014,0.85884 -1.134547,1.634898 -1.983587,2.037459 l -0.682915,0.323798 4.746262,0.0013 c 2.610444,6.68e-4 4.746262,-0.03666 4.746262,-0.08306 0,-0.04642 -1.518901,-2.776419 -3.375337,-6.066696 -3.314912,-5.875212 -3.387652,-5.989753 -4.063346,-6.398207 -1.096612,-0.662901 -1.8075,-0.867683 -3.078214,-0.886733 -3.278109,-0.04916 -5.27303,2.066201 -4.476876,4.747149 0.271112,0.91294 1.207792,1.737098 2.498516,2.198374 0.599814,0.214367 1.428613,0.511871 1.841776,0.661122 0.42766,0.154494 0.971809,0.490734 1.263394,0.780686 0.452203,0.449671 0.512127,0.587175 0.511676,1.17415 -0.001,1.332089 -0.931157,2.09996 -2.526277,2.085572 -0.450723,-0.004 -1.015198,-0.07954 -1.254386,-0.167725 -0.639766,-0.235879 -1.682149,-1.010586 -1.682149,-1.25019 0,-0.286655 0.100549,-0.262294 0.578999,0.140294 0.768872,0.646967 1.481872,0.927662 2.357536,0.928124 1.384562,6.69e-4 2.154289,-0.612045 2.154289,-1.715025 0,-0.854097 -0.564265,-1.296257 -2.499672,-1.958743 -2.586223,-0.885261 -3.428724,-1.661399 -3.727353,-3.433741 l -0.162179,-0.962512 -2.812456,5.00181 c -1.5468512,2.750994 -2.7876476,5.047903 -2.757326,5.104244 0.030321,0.05632 1.7878147,0.09811 3.905541,0.09281 3.427831,-0.0086 3.794387,-0.03023 3.339945,-0.197129 z m -2.343439,-9.56722 C 15.323242,11.60981 17.597502,7.4816759 17.564685,7.4488599 17.443118,7.3272884 15.33134,7.7184845 14.340304,8.0461489 10.244647,9.4003049 7.1633823,12.729652 6.1174251,16.93107 c -0.4155565,1.669219 -0.4177638,4.14113 -0.00515,5.797018 0.2842318,1.140739 1.1026546,3.190652 1.22501,3.068298 0.032963,-0.03298 2.361045,-4.161218 5.1735139,-9.173897 z m 17.175226,7.838195 c 0.704163,-1.774743 0.836334,-2.504908 0.836334,-4.620205 0,-2.118261 -0.133679,-2.85472 -0.838644,-4.620213 C 28.319422,11.803642 25.359031,9.0705869 21.849404,7.9875939 20.889528,7.6914009 18.867997,7.3454355 18.755351,7.458084 c -0.03789,0.037926 2.255422,4.185344 5.096253,9.216559 4.280422,7.580791 5.191494,9.109114 5.318963,8.922559 0.0846,-0.123812 0.316543,-0.635242 0.515432,-1.136518 z M 15.774427,13.004454 c 0.487465,-0.213826 1.062091,-0.319477 2.007779,-0.369149 1.400772,-0.07358 2.2074,0.05893 3.160071,0.519235 0.301267,0.145558 0.562344,0.249705 0.580171,0.231444 0.04833,-0.0495 -3.278332,-5.9630036 -3.357818,-5.9688564 -0.03756,-0.00268 -0.694799,1.1165114 -1.460531,2.4872693 -2.21037,3.9568631 -2.17514,3.8887231 -1.87627,3.6288711 0.145025,-0.126086 0.570994,-0.364059 0.946598,-0.528814 z M 40.395445,23.39222 c -0.568146,-0.17107 -1.333603,-0.682741 -1.333603,-0.891449 0,-0.30214 0.272797,-0.381056 0.525791,-0.152093 0.991154,0.89698 2.721985,0.796573 3.230829,-0.187424 0.444329,-0.859235 -0.120815,-1.543741 -1.804819,-2.186 -1.401684,-0.534594 -1.952058,-1.084391 -1.951291,-1.949258 0.0011,-1.189869 0.839824,-1.878482 2.273752,-1.866703 0.872924,0.0072 1.754938,0.347745 1.754938,0.677637 0,0.250675 -0.338351,0.230775 -1.176846,-0.06922 -1.15155,-0.411999 -2.306022,0.199651 -2.306022,1.221762 0,0.614312 0.530549,1.059602 1.877075,1.575426 0.631018,0.241725 1.301566,0.606988 1.52561,0.831034 1.503431,1.503434 -0.385698,3.667674 -2.615414,2.996292 z m 15.237536,-0.02789 c -0.208416,-0.270508 -3.053158,-6.844393 -3.051162,-7.050901 9.36e-4,-0.09941 0.10487,-0.160869 0.230908,-0.136581 0.14804,0.0285 0.513859,0.696874 1.033411,1.888027 0.442338,1.014131 1.053808,2.414869 1.358822,3.112753 0.305014,0.69789 0.588782,1.234671 0.630595,1.192859 0.04181,-0.04181 0.676699,-1.442551 1.410857,-3.112753 1.025615,-2.333263 1.39159,-3.036726 1.579841,-3.036726 0.144979,0 0.228247,0.08365 0.203952,0.204876 -0.06926,0.345618 -2.931286,6.749175 -3.101087,6.938446 -0.130732,0.145725 -0.183863,0.145725 -0.296137,0 z m 15.298059,0.03284 c -0.732546,-0.174481 -1.656256,-0.803114 -2.069987,-1.408737 -0.572523,-0.838065 -0.752028,-1.506872 -0.672008,-2.503765 0.153752,-1.915378 1.674179,-3.322036 3.598206,-3.328959 0.971214,-0.0033 1.582831,0.174909 2.218374,0.647095 0.413825,0.30745 0.436594,0.359163 0.24327,0.55248 -0.193324,0.193323 -0.236053,0.19331 -0.456554,-1.34e-4 -1.156457,-1.014552 -3.087602,-0.8968 -4.154441,0.253317 -0.605931,0.653228 -0.85488,1.277869 -0.862338,2.163692 -0.0202,2.400005 2.305624,3.851131 4.62155,2.883469 l 0.493416,-0.20616 V 21.48642 20.523366 h -0.887789 c -0.796734,0 -0.88779,-0.02803 -0.88779,-0.27317 0,-0.251738 0.09106,-0.273163 1.160953,-0.273163 h 1.160959 v 1.418558 1.418564 l -0.449637,0.213363 c -0.944158,0.448032 -2.126635,0.591055 -3.056184,0.369652 z m 14.29588,-0.02943 c -0.262922,-0.07472 -0.677764,-0.287397 -0.92187,-0.472627 -0.435651,-0.330581 -0.439925,-0.34434 -0.231879,-0.74666 0.28311,-0.547476 0.513497,-0.611255 1.04785,-0.290059 0.923749,0.555256 1.796442,0.48549 1.957572,-0.156495 0.133906,-0.533536 -0.134207,-0.834024 -1.225107,-1.373052 -1.380497,-0.682118 -1.855813,-1.232819 -1.855813,-2.150147 0,-1.327996 0.787583,-2.028555 2.274267,-2.02297 0.855843,0.0033 1.906281,0.38149 2.04208,0.735389 0.08252,0.215023 -0.335156,1.037187 -0.526908,1.037187 -0.06194,0 -0.35353,-0.122923 -0.648024,-0.273163 -0.900225,-0.459263 -1.77558,-0.293363 -1.77558,0.336507 0,0.44422 0.271946,0.684306 1.414925,1.249187 1.463006,0.723034 1.863064,1.197949 1.863064,2.211652 0,1.450871 -1.6977,2.403122 -3.414577,1.915251 z m 11.062345,0.03284 c -0.497623,-0.151371 -1.156156,-0.508601 -1.335139,-0.724259 -0.118562,-0.142862 -0.09252,-0.289992 0.110381,-0.62363 0.291123,-0.478714 0.479858,-0.532112 0.887943,-0.251223 0.862493,0.59367 1.891319,0.543757 2.05279,-0.09959 0.133906,-0.533536 -0.134207,-0.834024 -1.225107,-1.373052 -1.377808,-0.680787 -1.855813,-1.233327 -1.855813,-2.145197 0,-0.847001 0.285357,-1.364377 0.962378,-1.744884 0.652493,-0.366721 1.887974,-0.381377 2.657075,-0.0315 0.825743,0.375624 0.925134,0.556841 0.593048,1.081327 -0.32733,0.516989 -0.370928,0.523765 -1.071086,0.166568 -0.642928,-0.327992 -1.26805,-0.351437 -1.560952,-0.05853 -0.487992,0.487992 -0.09215,1.058853 1.082759,1.561467 1.481634,0.633837 2.054642,1.366223 1.946823,2.488319 -0.131391,1.367394 -1.710496,2.22101 -3.2451,1.754209 z m 27.727245,-0.03284 c -0.26292,-0.07472 -0.67776,-0.287397 -0.92187,-0.472627 -0.43565,-0.330581 -0.43992,-0.34434 -0.23187,-0.74666 0.28311,-0.547476 0.51349,-0.611255 1.04785,-0.290059 0.92374,0.555256 1.79644,0.48549 1.95757,-0.156495 0.1339,-0.533536 -0.13421,-0.834024 -1.22511,-1.373052 -1.3805,-0.682118 -1.85581,-1.232819 -1.85581,-2.150147 0,-1.327996 0.78758,-2.028555 2.27426,-2.02297 0.85585,0.0033 1.90628,0.38149 2.04208,0.735389 0.0825,0.215023 -0.33516,1.037187 -0.52691,1.037187 -0.0619,0 -0.35352,-0.122923 -0.64802,-0.273163 -0.91501,-0.466808 -1.77558,-0.268213 -1.77558,0.409745 0,0.368975 0.31968,0.63466 1.41493,1.175949 1.463,0.723034 1.86306,1.197949 1.86306,2.211652 0,1.450871 -1.6977,2.403122 -3.41458,1.915251 z M 45.196253,23.08433 c 0.170989,-0.44533 2.882328,-6.542902 3.043731,-6.845095 0.114547,-0.214461 0.164355,-0.225311 0.313622,-0.06829 0.131332,0.138154 2.594531,5.614283 3.171121,7.049964 0.04221,0.10511 -0.04504,0.170729 -0.227006,0.170729 -0.234674,0 -0.382581,-0.19699 -0.717865,-0.956084 l -0.422292,-0.956077 h -1.933803 -1.933803 l -0.424804,0.956077 c -0.327165,0.736332 -0.489403,0.956084 -0.70585,0.956084 -0.235361,0 -0.261866,-0.04997 -0.163051,-0.30731 z m 4.433117,-3.277996 c -0.266936,-0.619751 -0.607044,-1.434123 -0.755794,-1.809727 -0.148751,-0.375604 -0.316322,-0.730105 -0.372381,-0.787783 -0.05606,-0.05766 -0.477555,0.756706 -0.936659,1.809726 l -0.834733,1.914589 h 1.692453 1.692454 z m 10.329682,3.437433 c 0,-0.192307 2.994084,-6.983061 3.152572,-7.150217 0.06649,-0.07011 0.157183,-0.09116 0.201571,-0.04676 0.08763,0.08763 3.201842,7.165408 3.201842,7.276933 0,0.03732 -0.123163,0.06793 -0.273705,0.06793 -0.207103,0 -0.377731,-0.232648 -0.701201,-0.956084 l -0.427497,-0.956077 -1.928021,5.15e-4 -1.92802,5.15e-4 -0.401705,0.955569 c -0.287042,0.682814 -0.472219,0.955562 -0.648767,0.955562 -0.135888,0 -0.247069,-0.06656 -0.247069,-0.147872 z m 4.789743,-2.617938 c -0.421911,-1.076164 -1.401988,-3.3253 -1.485346,-3.408658 -0.08478,-0.08478 -1.665399,3.353394 -1.665399,3.622584 0,0.05137 0.736024,0.09338 1.635613,0.09338 h 1.635614 z m 12.588184,-0.819495 0.03639,-3.585307 2.151183,-0.03759 c 2.081499,-0.03639 2.151184,-0.02863 2.151184,0.239016 0,0.264621 -0.08306,0.276634 -1.912161,0.276634 h -1.912161 v 1.361628 1.361627 l 1.67148,0.03833 c 1.465406,0.03364 1.677125,0.06782 1.717298,0.27737 0.04167,0.217398 -0.109551,0.239023 -1.671479,0.239023 h -1.717299 v 1.434123 1.434122 h 1.912161 c 1.821104,0 1.912161,0.01304 1.912161,0.273163 0,0.261798 -0.09106,0.27317 -2.187598,0.27317 h -2.187592 z m 13.690879,3.419654 c -0.03813,-0.0994 -0.05291,-1.716182 -0.03278,-3.592851 l 0.03659,-3.41211 h 0.682915 0.682914 v 3.551159 3.55116 l -0.650159,0.04167 c -0.444721,0.02849 -0.672078,-0.01538 -0.719516,-0.139043 z m 11.915632,0.08089 c -0.0535,-0.05351 -0.0973,-1.377815 -0.0973,-2.942833 v -2.845476 h -0.82698 -0.82699 l 0.0416,-0.648773 0.0416,-0.648768 h 2.3902 2.39021 v 0.61462 0.614627 l -0.85095,0.0406 -0.85094,0.0406 -0.0369,2.895944 -0.0369,2.895937 -0.61971,0.04047 c -0.34084,0.02227 -0.66351,-0.0033 -0.71706,-0.05692 z m 5.26126,-3.497232 0.0365,-3.588618 h 2.25362 2.25361 v 0.61462 0.614627 l -1.60485,0.03846 -1.60485,0.03846 v 0.815161 0.815168 h 1.36584 1.36583 v 0.61462 0.614627 h -1.36583 -1.36584 v 0.883455 0.883456 l 1.60485,0.03846 1.60485,0.03846 v 0.546332 0.546333 l -2.29004,0.03746 -2.29003,0.03746 z m 7.10233,-0.0033 0.0364,-3.585306 h 1.84387 c 1.61399,0 1.90341,0.03498 2.32144,0.280548 0.71377,0.419296 1.09313,1.066016 1.09313,1.863472 0,0.817275 -0.25698,1.345012 -0.89014,1.82794 l -0.48068,0.366635 0.68819,1.287982 c 0.3785,0.708386 0.65258,1.345588 0.60905,1.416009 -0.0435,0.07041 -0.38224,0.128026 -0.75273,0.128026 H 119.102 l -0.6854,-1.365828 -0.68541,-1.365835 h -0.54509 -0.54508 v 1.365835 1.365828 h -0.68519 -0.68518 z m 3.65587,-0.648767 c 0.15175,-0.151759 0.27316,-0.455283 0.27316,-0.682921 0,-0.714473 -0.39692,-0.956077 -1.57071,-0.956077 h -1.02437 v 0.956077 0.956084 h 1.02437 c 0.84227,0 1.07294,-0.04856 1.29755,-0.273163 z"
       id="path2" /></g></svg>
