<?xml version="1.0" encoding="UTF-8" standalone="no"?>
<!-- Created with Inkscape (http://www.inkscape.org/) -->

<svg
   width="500"
   height="100"
   viewBox="0 0 132.29166 26.458333"
   version="1.1"
   id="svg1"
   inkscape:version="1.4 (86a8ad7, 2024-10-11)"
   sodipodi:docname="secondchance.svg"
   xmlns:inkscape="http://www.inkscape.org/namespaces/inkscape"
   xmlns:sodipodi="http://sodipodi.sourceforge.net/DTD/sodipodi-0.dtd"
   xmlns="http://www.w3.org/2000/svg"
   xmlns:svg="http://www.w3.org/2000/svg">
  <sodipodi:namedview
     id="namedview1"
     pagecolor="#ffffff"
     bordercolor="#111111"
     borderopacity="1"
     inkscape:showpageshadow="0"
     inkscape:pageopacity="0"
     inkscape:pagecheckerboard="1"
     inkscape:deskcolor="#d1d1d1"
     inkscape:document-units="px"
     inkscape:zoom="1.1111933"
     inkscape:cx="263.68049"
     inkscape:cy="100.79254"
     inkscape:window-width="1920"
     inkscape:window-height="1115"
     inkscape:window-x="-9"
     inkscape:window-y="-9"
     inkscape:window-maximized="1"
     inkscape:current-layer="layer1" />
  <defs
     id="defs1" />
  <g
     inkscape:label="Layer 1"
     inkscape:groupmode="layer"
     id="layer1">
    <path
       style="font-weight:bold;font-size:7.8218px;font-family:Montserrat;-inkscape-font-specification:'Montserrat Bold';letter-spacing:0.0369363px;word-spacing:0.210754px;fill-rule:evenodd;stroke-width:10.8636;stroke-linecap:round;stroke-linejoin:round;paint-order:stroke markers fill"
       d="m 2.6801967,11.473173 q -0.3050502,0 -0.4849516,0.148614 -0.1720796,0.140792 -0.1720796,0.383268 0,0.234654 0.2111886,0.375446 0.2190104,0.140793 0.9933686,0.336338 0.78218,0.187723 1.212379,0.570991 0.430199,0.383268 0.430199,1.118518 0,0.735249 -0.5553478,1.196735 -0.547526,0.453664 -1.447033,0.453664 -1.2984188,0 -2.33871828,-0.962081 L 1.256629,14.202981 q 0.8838635,0.774358 1.6347563,0.774358 0.3363374,0 0.5240606,-0.140792 0.195545,-0.148615 0.195545,-0.39109 0,-0.250298 -0.2033668,-0.39109 Q 3.2042573,13.905752 2.6019787,13.757138 1.6477191,13.530306 1.2018764,13.170503 0.76385563,12.802879 0.76385563,12.02852 q 0,-0.78218 0.55534777,-1.204557 0.5631697,-0.422377 1.4001023,-0.422377 0.547526,0 1.095052,0.187723 0.547526,0.187723 0.9542596,0.531883 L 4.1506951,12.012877 Q 3.4389113,11.473173 2.6801967,11.473173 Z m 7.2095311,-0.946438 v 1.08723 H 7.1677413 v 1.126339 h 2.4482235 v 1.0403 H 7.1677413 v 1.134161 h 2.8080263 v 1.079408 H 5.9475405 v -5.467438 z m 3.7209992,4.38803 q 0.899507,0 1.470499,-0.711784 l 0.78218,0.805645 q -0.930794,1.048121 -2.197926,1.048121 -1.25931,0 -2.080599,-0.797823 -0.813467,-0.797824 -0.813467,-2.010203 0,-1.220201 0.829111,-2.033668 0.836932,-0.813467 2.04149,-0.813467 1.345349,0 2.252678,1.024656 l -0.758715,0.860398 q -0.578813,-0.719606 -1.439211,-0.719606 -0.688318,0 -1.181092,0.453665 -0.484951,0.445842 -0.484951,1.212379 0,0.758714 0.461486,1.2202 0.461486,0.461487 1.118517,0.461487 z m 7.31904,-1.681687 q 0,-0.73525 -0.469308,-1.251488 -0.469308,-0.516239 -1.157627,-0.516239 -0.680496,0 -1.149804,0.516239 -0.469308,0.516238 -0.469308,1.251488 0,0.727427 0.469308,1.243666 0.469308,0.508417 1.149804,0.508417 0.688319,0 1.157627,-0.508417 0.469308,-0.516239 0.469308,-1.243666 z m 0.414555,2.010202 q -0.829111,0.805646 -2.04149,0.805646 -1.212379,0 -2.04149,-0.805646 -0.82911,-0.813467 -0.82911,-2.018024 0,-1.204557 0.82911,-2.010203 0.829111,-0.813467 2.04149,-0.813467 1.212379,0 2.04149,0.813467 0.829111,0.805646 0.829111,2.010203 0,1.204557 -0.829111,2.018024 z m 5.723387,-4.716545 h 1.220201 v 5.467438 H 27.067709 L 24.46305,12.568225 v 3.425948 h -1.220201 v -5.467438 h 1.141983 l 2.682877,3.51981 z m 4.534468,0 q 1.462677,0 2.244857,0.719605 0.78218,0.711784 0.78218,1.986738 0,1.274953 -0.766537,2.018024 -0.758714,0.743071 -2.323074,0.743071 h -1.869411 v -5.467438 z m 0.06257,4.38803 q 0.836932,0 1.282775,-0.422378 0.453664,-0.422377 0.453664,-1.228022 0,-0.805646 -0.453664,-1.235845 Q 32.501684,11.5905 31.57089,11.5905 h -0.680497 v 3.324265 z m 8.880775,0 q 0.899507,0 1.470498,-0.711784 l 0.78218,0.805645 q -0.930794,1.048121 -2.197926,1.048121 -1.25931,0 -2.080599,-0.797823 -0.813467,-0.797824 -0.813467,-2.010203 0,-1.220201 0.829111,-2.033668 0.836933,-0.813467 2.04149,-0.813467 1.345349,0 2.252678,1.024656 l -0.758714,0.860398 q -0.578814,-0.719606 -1.439212,-0.719606 -0.688318,0 -1.181091,0.453665 -0.484952,0.445842 -0.484952,1.212379 0,0.758714 0.461486,1.2202 0.461486,0.461487 1.118518,0.461487 z m 6.64636,-4.38803 h 1.220201 v 5.467438 h -1.220201 v -2.150995 h -2.17446 v 2.150995 h -1.220201 v -5.467438 h 1.220201 V 12.8107 h 2.17446 z m 6.497738,5.467438 -0.508417,-1.181092 h -2.291787 l -0.508418,1.181092 h -1.298418 l 2.362183,-5.467438 h 1.181092 l 2.362184,5.467438 z m -1.6504,-3.840504 -0.688318,1.587826 h 1.368815 z m 7.444189,-1.626934 h 1.220201 v 5.467438 h -1.220201 l -2.604659,-3.425948 v 3.425948 h -1.220201 v -5.467438 h 1.141983 l 2.682877,3.51981 z m 5.113279,4.38803 q 0.899507,0 1.470499,-0.711784 l 0.78218,0.805645 q -0.930795,1.048121 -2.197926,1.048121 -1.25931,0 -2.080599,-0.797823 -0.813467,-0.797824 -0.813467,-2.010203 0,-1.220201 0.82911,-2.033668 0.836933,-0.813467 2.04149,-0.813467 1.34535,0 2.252679,1.024656 l -0.758715,0.860398 q -0.578813,-0.719606 -1.439211,-0.719606 -0.688318,0 -1.181092,0.453665 -0.484952,0.445842 -0.484952,1.212379 0,0.758714 0.461487,1.2202 0.461486,0.461487 1.118517,0.461487 z m 7.193887,-4.38803 v 1.08723 h -2.721987 v 1.126339 h 2.448224 v 1.0403 h -2.448224 v 1.134161 h 2.808026 v 1.079408 h -4.028227 v -5.467438 z m 5.282752,0.946438 q -0.30505,0 -0.484952,0.148614 -0.172079,0.140792 -0.172079,0.383268 0,0.234654 0.211188,0.375446 0.219011,0.140793 0.993369,0.336338 0.78218,0.187723 1.212379,0.570991 0.430199,0.383268 0.430199,1.118518 0,0.735249 -0.555348,1.196735 -0.547526,0.453664 -1.447033,0.453664 -1.298419,0 -2.338718,-0.962081 l 0.727427,-0.891685 q 0.883864,0.774358 1.634756,0.774358 0.336338,0 0.524061,-0.140792 0.195545,-0.148615 0.195545,-0.39109 0,-0.250298 -0.203367,-0.39109 -0.203367,-0.148615 -0.805645,-0.297229 -0.95426,-0.226832 -1.400102,-0.586635 -0.438021,-0.367624 -0.438021,-1.141983 0,-0.78218 0.555348,-1.204557 0.563169,-0.422377 1.400102,-0.422377 0.547526,0 1.095052,0.187723 0.547526,0.187723 0.954259,0.531883 l -0.617922,0.891685 q -0.711784,-0.539704 -1.470498,-0.539704 z m 7.452002,1.759905 q 0,-0.73525 -0.469308,-1.251488 -0.469308,-0.516239 -1.157626,-0.516239 -0.680497,0 -1.149805,0.516239 -0.469308,0.516238 -0.469308,1.251488 0,0.727427 0.469308,1.243666 0.469308,0.508417 1.149805,0.508417 0.688318,0 1.157626,-0.508417 0.469308,-0.516239 0.469308,-1.243666 z m 0.414556,2.010202 q -0.829111,0.805646 -2.04149,0.805646 -1.212379,0 -2.04149,-0.805646 -0.829111,-0.813467 -0.829111,-2.018024 0,-1.204557 0.829111,-2.010203 0.829111,-0.813467 2.04149,-0.813467 1.212379,0 2.04149,0.813467 0.829111,0.805646 0.829111,2.010203 0,1.204557 -0.829111,2.018024 z m 4.292001,0.750893 h -2.39347 v -5.467438 h 2.127529 q 0.555348,0 0.95426,0.13297 0.406734,0.132971 0.6101,0.359803 0.367625,0.422377 0.367625,0.95426 0,0.641387 -0.414555,0.954259 -0.140793,0.109506 -0.195545,0.140793 -0.05475,0.02346 -0.195546,0.08604 0.508418,0.109505 0.805646,0.461486 0.30505,0.344159 0.30505,0.860398 0,0.570991 -0.39109,1.009012 -0.453664,0.508417 -1.580004,0.508417 z m -1.17327,-3.253869 h 0.578814 q 0.508417,0 0.750892,-0.109505 0.250298,-0.109505 0.250298,-0.469308 0,-0.367625 -0.226832,-0.484952 -0.226832,-0.117327 -0.766537,-0.117327 h -0.586635 z m 0,2.221391 h 0.836933 q 0.524061,0 0.78218,-0.125148 0.265941,-0.132971 0.265941,-0.508417 0,-0.383269 -0.281585,-0.500596 -0.273763,-0.125148 -0.883863,-0.125148 h -0.719606 z m 8.148134,-4.43496 v 1.08723 h -2.721986 v 1.126339 h 2.448223 v 1.0403 h -2.448223 v 1.134161 h 2.808026 v 1.079408 h -4.028227 v -5.467438 z m 5.645165,1.814657 q 0,1.314063 -1.0403,1.697331 l 1.38446,1.95545 h -1.50179 l -1.212377,-1.744261 h -0.844755 v 1.744261 h -1.2202 v -5.467438 h 2.072777 q 1.274955,0 1.814655,0.430199 0.54753,0.430199 0.54753,1.384458 z m -2.323076,0.852577 q 0.625746,0 0.852576,-0.203367 0.22683,-0.203367 0.22683,-0.641388 0,-0.445842 -0.23465,-0.6101 -0.23466,-0.164258 -0.821291,-0.164258 h -0.915151 v 1.619113 z m 5.924136,2.800204 v -5.467438 h 1.2202 v 4.380208 h 2.3309 v 1.08723 z m 4.47973,-5.467438 h 1.2202 v 5.467438 h -1.2202 z m 4.6205,3.480701 1.39229,-3.480701 h 1.32188 l -2.19793,5.467438 h -1.03247 l -2.19793,-5.467438 h 1.32188 z m 3.40031,-3.480701 h 1.2202 v 5.467438 h -1.2202 z m 6.42734,0 h 1.2202 v 5.467438 h -1.2202 l -2.60466,-3.425948 v 3.425948 h -1.2202 v -5.467438 h 1.14199 l 2.68287,3.51981 z m 6.15358,2.682877 h 1.22802 v 1.939807 q -0.81347,0.907328 -2.25268,0.907328 -1.20455,0 -2.02584,-0.797823 -0.81347,-0.797824 -0.81347,-2.010203 0,-1.220201 0.82911,-2.033668 0.83693,-0.813467 2.0102,-0.813467 1.18109,0 2.04931,0.774358 l -0.63356,0.915151 q -0.36763,-0.320694 -0.6805,-0.438021 -0.30505,-0.125149 -0.66485,-0.125149 -0.69614,0 -1.17327,0.47713 -0.47713,0.469308 -0.47713,1.243666 0,0.774358 0.45366,1.243666 0.46149,0.461487 1.09506,0.461487 0.63356,0 1.05594,-0.242476 z"
       id="text1"
       aria-label="SECOND CHANCE SOBER LIVING" />
  </g>
</svg>
