<svg xmlns="http://www.w3.org/2000/svg" viewBox="0 0 132.29166 26.458333">
  <path d="M2.6801967 11.473173q-.3050502 0-.4849516.148614-.1720796.140792-.1720796.383268 0 .234654.2111886.375446.2190104.140793.9933686.336338.78218.187723 1.212379.570991.430199.383268.430199 1.118518 0 .735249-.5553478 1.196735-.547526.453664-1.447033.453664-1.2984188 0-2.33871828-.962081l.72742738-.891685q.8838635.774358 1.6347563.774358.3363374 0 .5240606-.140792.195545-.148615.195545-.39109 0-.250298-.2033668-.39109-.2033668-.148615-.8056454-.297229-.9542596-.226832-1.4001023-.586635-.43802077-.367624-.43802077-1.141983 0-.78218.55534777-1.204557.5631697-.422377 1.4001023-.422377.547526 0 1.095052.187723t.9542596.531883l-.6179222.891685q-.7117838-.539704-1.4704984-.539704Zm7.2095311-.946438v1.08723H7.1677413v1.126339h2.4482235v1.0403H7.1677413v1.134161h2.8080263v1.079408H5.9475405v-5.467438zm3.7209992 4.38803q.899507 0 1.470499-.711784l.78218.805645q-.930794 1.048121-2.197926 1.048121-1.25931 0-2.080599-.797823-.813467-.797824-.813467-2.010203 0-1.220201.829111-2.033668.836932-.813467 2.04149-.813467 1.345349 0 2.252678 1.024656l-.758715.860398q-.578813-.719606-1.439211-.719606-.688318 0-1.181092.453665-.484951.445842-.484951 1.212379 0 .758714.461486 1.2202.461486.461487 1.118517.461487zm7.31904-1.681687q0-.73525-.469308-1.251488-.469308-.516239-1.157627-.516239-.680496 0-1.149804.516239-.469308.516238-.469308 1.251488 0 .727427.469308 1.243666.469308.508417 1.149804.508417.688319 0 1.157627-.508417.469308-.516239.469308-1.243666zm.414555 2.010202q-.829111.805646-2.04149.805646-1.212379 0-2.04149-.805646-.82911-.813467-.82911-2.018024 0-1.204557.82911-2.010203.829111-.813467 2.04149-.813467 1.212379 0 2.04149.813467.829111.805646.829111 2.010203 0 1.204557-.829111 2.018024zm5.723387-4.716545h1.220201v5.467438h-1.220201l-2.604659-3.425948v3.425948h-1.220201v-5.467438h1.141983l2.682877 3.51981zm4.534468 0q1.462677 0 2.244857.719605.78218.711784.78218 1.986738 0 1.274953-.766537 2.018024-.758714.743071-2.323074.743071h-1.869411v-5.467438zm.06257 4.38803q.836932 0 1.282775-.422378.453664-.422377.453664-1.228022 0-.805646-.453664-1.235845-.445838-.43802-1.376632-.43802h-.680497v3.324265zm8.880775 0q.899507 0 1.470498-.711784l.78218.805645q-.930794 1.048121-2.197926 1.048121-1.25931 0-2.080599-.797823-.813467-.797824-.813467-2.010203 0-1.220201.829111-2.033668.836933-.813467 2.04149-.813467 1.345349 0 2.252678 1.024656l-.758714.860398q-.578814-.719606-1.439212-.719606-.688318 0-1.181091.453665-.484952.445842-.484952 1.212379 0 .758714.461486 1.2202.461486.461487 1.118518.461487zm6.64636-4.38803h1.220201v5.467438h-1.220201v-2.150995h-2.17446v2.150995h-1.220201v-5.467438h1.220201V12.8107h2.17446zm6.497738 5.467438-.508417-1.181092h-2.291787l-.508418 1.181092H49.08258l2.362183-5.467438h1.181092l2.362184 5.467438zm-1.6504-3.840504-.688318 1.587826h1.368815zm7.444189-1.626934h1.220201v5.467438h-1.220201l-2.604659-3.425948v3.425948h-1.220201v-5.467438h1.141983l2.682877 3.51981zm5.113279 4.38803q.899507 0 1.470499-.711784l.78218.805645q-.930795 1.048121-2.197926 1.048121-1.25931 0-2.080599-.797823-.813467-.797824-.813467-2.010203 0-1.220201.82911-2.033668.836933-.813467 2.04149-.813467 1.34535 0 2.252679 1.024656l-.758715.860398q-.578813-.719606-1.439211-.719606-.688318 0-1.181092.453665-.484952.445842-.484952 1.212379 0 .758714.461487 1.2202.461486.461487 1.118517.461487zm7.193887-4.38803v1.08723h-2.721987v1.126339h2.448224v1.0403h-2.448224v1.134161h2.808026v1.079408h-4.028227v-5.467438zm5.282752.946438q-.30505 0-.484952.148614-.172079.140792-.172079.383268 0 .234654.211188.375446.219011.140793.993369.336338.78218.187723 1.212379.570991.430199.383268.430199 1.118518 0 .735249-.555348 1.196735-.547526.453664-1.447033.453664-1.298419 0-2.338718-.962081l.727427-.891685q.883864.774358 1.634756.774358.336338 0 .524061-.140792.195545-.148615.195545-.39109 0-.250298-.203367-.39109-.203367-.148615-.805645-.297229-.95426-.226832-1.400102-.586635-.438021-.367624-.438021-1.141983 0-.78218.555348-1.204557.563169-.422377 1.400102-.422377.547526 0 1.095052.187723t.954259.531883l-.617922.891685q-.711784-.539704-1.470498-.539704zm7.452002 1.759905q0-.73525-.469308-1.251488-.469308-.516239-1.157626-.516239-.680497 0-1.149805.516239-.469308.516238-.469308 1.251488 0 .727427.469308 1.243666.469308.508417 1.149805.508417.688318 0 1.157626-.508417.469308-.516239.469308-1.243666zm.414556 2.010202q-.829111.805646-2.04149.805646-1.212379 0-2.04149-.805646-.829111-.813467-.829111-2.018024 0-1.204557.829111-2.010203.829111-.813467 2.04149-.813467 1.212379 0 2.04149.813467.829111.805646.829111 2.010203 0 1.204557-.829111 2.018024zm4.292001.750893h-2.39347v-5.467438h2.127529q.555348 0 .95426.13297.406734.132971.6101.359803.367625.422377.367625.95426 0 .641387-.414555.954259-.140793.109506-.195545.140793-.05475.02346-.195546.08604.508418.109505.805646.461486.30505.344159.30505.860398 0 .570991-.39109 1.009012-.453664.508417-1.580004.508417zm-1.17327-3.253869h.578814q.508417 0 .750892-.109505.250298-.109505.250298-.469308 0-.367625-.226832-.484952-.226832-.117327-.766537-.117327h-.586635zm0 2.221391h.836933q.524061 0 .78218-.125148.265941-.132971.265941-.508417 0-.383269-.281585-.500596-.273763-.125148-.883863-.125148h-.719606zm8.148134-4.43496v1.08723h-2.721986v1.126339h2.448223v1.0403h-2.448223v1.134161h2.808026v1.079408h-4.028227v-5.467438zm5.645165 1.814657q0 1.314063-1.0403 1.697331l1.38446 1.95545h-1.50179l-1.212377-1.744261h-.844755v1.744261h-1.2202v-5.467438h2.072777q1.274955 0 1.814655.430199.54753.430199.54753 1.384458zm-2.323076.852577q.625746 0 .852576-.203367.22683-.203367.22683-.641388 0-.445842-.23465-.6101-.23466-.164258-.821291-.164258h-.915151v1.619113zm5.924136 2.800204v-5.467438h1.2202v4.380208h2.3309v1.08723zm4.47973-5.467438h1.2202v5.467438h-1.2202zm4.6205 3.480701 1.39229-3.480701h1.32188l-2.19793 5.467438h-1.03247l-2.19793-5.467438h1.32188zm3.40031-3.480701h1.2202v5.467438h-1.2202zm6.42734 0h1.2202v5.467438h-1.2202l-2.60466-3.425948v3.425948h-1.2202v-5.467438h1.14199l2.68287 3.51981zm6.15358 2.682877h1.22802v1.939807q-.81347.907328-2.25268.907328-1.20455 0-2.02584-.797823-.81347-.797824-.81347-2.010203 0-1.220201.82911-2.033668.83693-.813467 2.0102-.813467 1.18109 0 2.04931.774358l-.63356.915151q-.36763-.320694-.6805-.438021-.30505-.125149-.66485-.125149-.69614 0-1.17327.47713-.47713.469308-.47713 1.243666 0 .774358.45366 1.243666.46149.461487 1.09506.461487.63356 0 1.05594-.242476z" aria-label="SECOND CHANCE SOBER LIVING" style="font-weight:700;font-size:7.8218px;font-family:Montserrat;-inkscape-font-specification:&quot;Montserrat Bold&quot;;letter-spacing:.0369363px;word-spacing:.210754px;fill-rule:evenodd;stroke-width:10.8636;stroke-linecap:round;stroke-linejoin:round;paint-order:stroke markers fill"/>
</svg>
