<svg xmlns="http://www.w3.org/2000/svg" viewBox="0 0 79.375 39.688">
  <path d="m119.75 73.404-16.805 48.13-29.503-46.728 15.04 47.168-50.017-39.227 34.397 42.626-65.18-32.652 55.314 38.213-79.979-20.384 72.197 26.199-84.035-5.857L43.7 144.34l-80.433 5.587 79.61 2.495-72.731 16.651 79.033-7.602-64.065 27.823 73.912-18.2-42.293 34.3 58.857-30.239-24.391 42.673 41.048-42.959-2.504 48.725 16.86-47.895 27.256 46.28-12.344-49.415 50.017 41.474-36.194-45.322 66.527 31.754L147 165.401l81.327 18.587-70.4-25.75 82.238 7.205-80.159-14.794 86.723-5.587-85.899-2.496 80.368-17.1-84.874 10.297 66.312-27.823-76.608 21.795 52.626-39.692-64.248 33.833 25.29-45.819-41.048 43.857zm-29.494 34.163 15.374 25.609 8.67-24.965-1.76 24.552 23.389-21.877-15.41 25.185 35.8-20.111-29.71 21.245 43.654-12.092-38.682 16.591 53.498-7.516-50.406 10.683 49.222 2.784-47.412 1.307 46.638 8.273-49.02-5.03 42.049 16.177-47.483-11.281 32.062 20.032-37.831-16.574 21.012 24.247-30.15-23.638 6.78 27.563-13.973-27.126-10.734 33.924-.265-34.563-24.364 30.075 19.024-31.022-38.947 23.834 32.073-26.341-50.352 17.034L77.82 154.65l-48.23 5.506 44.79-9.32-45.317-3.865 45.146-1.095-45.451-8.267 47.626 4.18-37.765-14.987 44.963 12.737-31.976-20.978 37.043 16.652-19.726-23.847 27.166 23.153z" style="fill-rule:evenodd;fill:#f4e230;paint-order:fill markers stroke;stroke-linecap:round;stroke-width:.22344" transform="translate(12.64 -18.41)scale(.2576)"/>
  <path d="M-21.932 120.01v10.228h140.44V120.01zm.72.963h138.98v1.218h-138.98zm196.18 1.028c-.149-.023-.235.133-.235.473 0 .623.548 1.716 1.611 3.213.452.635.713 1.157.58 1.157-.247 0-3.749-3.005-4.352-3.734-.31-.376-1.004-.566-1.004-.275 0 .596.95 2.084 2.097 3.287.761.798 1.253 1.452 1.092 1.452-.394 0-1.621-.643-2.9-1.518-1.184-.81-1.547-.718-1.005.254.313.56 3.22 2.306 4.594 2.76.19.062.27.238.177.389-.198.32-2.402-.362-3.765-1.167-.939-.554-1.139-.502-.904.237.21.664 1.38 1.502 3.106 2.229.767.323 1.397.682 1.399.797.006.31-1.66-.057-2.722-.6-.752-.383-.925-.404-.925-.118 0 .538 1.127 1.309 2.584 1.768 1.321.417 1.721.81.823.81-.81 0-.545.453.365.624.904.17 1.176.593.38.593-.568 0-.862.386-.476.625.153.095.785.311 1.405.484.966.268 1.047.338.577.483-.837.259-.652.598.327.598.67 0 .904.115 1.002.487.082.315.333.488.709.488.453 0 .58.13.58.596 0 .328.136.684.304.791.533.342 1.059 1.629 1.005 2.462-.03.48.077.856.266.928.177.068.263.33.194.593-.084.322.002.47.271.47.471 0 .505.272.089.713-.244.258-.244.344 0 .433.167.062.304.32.304.573s.2.817.447 1.256c.246.44.399.943.34 1.119-.06.176.085.46.32.633.24.174.35.438.252.598-.113.182.095.382.575.55.487.17.73.403.687.662-.042.256.133.428.483.478.302.043.547.18.547.305 0 .392 1.562.245 2.504-.235 1.256-.64 1.127-.259-.35 1.034-.81.707-2.492 1.682-4.745 2.744-1.921.906-3.494 1.766-3.494 1.912 0 .407 1.91 1.783 2.72 1.962a6.6 6.6 0 0 1 1.344.48c.342.177.761.27.932.204s.382-.003.47.14c.245.397 1.864.312 2.344-.123.39-.353.468-.343.932.122.597.597.73.613 1.366.173.264-.183 1.21-.41 2.103-.504 1.859-.196 2.086-.455 1.54-1.762-.448-1.072-.486-2.351-.065-2.211.165.055.395.503.511.995.116.491.355.893.53.893.206 0 .27.185.18.528-.108.415-.054.496.259.376.226-.086.575.026.81.26.301.301.441.332.515.111.152-.457.546-.102.546.493 0 .405.067.456.294.229.473-.473.68-.34.68.433 0 .591-.124.755-.67.884-.706.168-1.52.76-1.52 1.106 0 .289.912.256 1.095-.039.236-.383 2.742-.301 2.97.096.108.186.414.391.682.458.268.066.526.134.574.15s.023-.138-.054-.339c-.155-.405.217-.505.454-.121.1.16.32.154.646-.02.493-.264.493-.268-.057-.853-.304-.324-.722-.587-.928-.587-.726 0 .274-.65 1.43-.93.948-.23 1.156-.207 1.581.179.6.543 1.1.405 1.104-.305.003-.388.058-.44.212-.197.132.207.403.27.727.168.683-.217.652-.52-.1-1.012-.466-.305-.923-.366-1.885-.254l-1.27.147-.914-1.895c-.961-1.995-1.06-2.57-.675-3.914.393-1.37 1.133-1.967 2.438-1.967 1.31 0 3.596.618 4.17 1.129.348.309.415.304.55-.05.126-.327.225-.347.52-.103.198.165.36.475.36.688 0 .353.036.353.392-.004.312-.312.356-.656.216-1.696-.15-1.107-.333-1.454-1.22-2.31-.574-.555-1.438-1.139-1.92-1.298-.48-.159-.876-.39-.876-.513 0-.431 1.747-2.15 2.827-2.783 2.182-1.278 6.51-2.305 9.739-2.309.686 0 1.617-.073 2.069-.164l.821-.166-.716-.291-.716-.294.838-.179c1.267-.272 1.831-.615 1.426-.865-.242-.15-.138-.272.393-.465 1.72-.626 2.37-1.228 1.324-1.228-.418 0-.36-.12.378-.767.946-.831 1.661-2.055 1.932-3.31.182-.844-.213-1.136-.465-.342-.078.246-.428.712-.777 1.035l-.637.587.371-.731c.58-1.148.896-2.547.698-3.084-.159-.43-.238-.364-.631.508-.507 1.123-1.281 1.96-1.032 1.114.33-1.116.446-2.784.223-3.181-.195-.349-.314-.168-.647.978-.225.772-.678 1.674-1.01 2.006-.9.9-4.695 2.58-8.13 3.598-5.155 1.53-7.505 2.834-11.44 6.347-2.114 1.886-3.447 2.788-4.116 2.788-.613 0-1.884-1.075-2.36-1.996-.206-.398-.7-2-1.099-3.562-1.354-5.308-2.242-6.455-6.998-9.054-2.585-1.413-5.273-3.16-7.35-4.778-.745-.58-1.429-1.055-1.52-1.055-.33 0-.16.808.339 1.614.618 1 .401 1.029-1.008.131-1.083-.69-2.507-2.126-3.28-3.307-.249-.378-.46-.58-.608-.603zm-48.565.124c-1.388-.012-1.959.105-2.923.601-1.59.819-2.378 1.974-2.211 3.243.17 1.3.939 1.98 4.42 3.907 1.606.89 3.109 1.86 3.34 2.153.231.294.423.95.426 1.458.01 1.656-1.772 2.85-4.254 2.85q-2.333-.001-3.648-1.316c-.543-.543-.611-.56-.611-.153 0 .733 1.144 1.887 2.131 2.15 2.523.67 5.482.093 7.157-1.394.808-.717 1.002-1.066 1.106-1.985.233-2.078-.47-2.844-4.797-5.208-2.92-1.596-3.347-1.921-3.464-2.647-.37-2.293 2.605-3.53 5.68-2.362.686.26 1.453.661 1.706.89.803.726.495-.018-.33-.8-1.196-1.13-1.843-1.37-3.728-1.387m23.626.13-.853.516c-.468.283-1.015.613-1.216.732-.31.185-.365 1.23-.365 7.011v6.795h2.434v-7.527zm8.408.484c-.99.023-2.094.356-3.008.936-1.86 1.18-1.973 1.573-2.13 7.428-.075 2.811-.225 5.357-.332 5.658-.19.53-.148.548 1.321.548 1.47 0 1.51-.017 1.318-.548-.11-.301-.204-2.026-.21-3.833l-.013-3.285 1.522-.073c1.135-.054 1.52-.161 1.52-.425 0-.273-.36-.354-1.58-.354h-1.584l.006-.914c.01-1.696.419-2.825 1.317-3.65.755-.693 1.028-.792 2.204-.792 1.46 0 1.794-.348.589-.612a4 4 0 0 0-.94-.084zm-179.65 5.23h138.98v1.217h-138.98zm160.18.766c-4.002-.02-6.566 2.896-5.271 5.994.41.981 1.589 1.912 3.069 2.423 1.405.486 3.718.502 5.249.037 1.846-.56 2.017-.729 1.314-1.299-.59-.478-.597-.477-1.571.031-2.031 1.061-5.04.42-6.05-1.288-.863-1.461-.865-1.461 4.221-1.461 5.1 0 4.966.049 4.29-1.528-.773-1.809-2.736-2.896-5.251-2.909m-.063 1.23c.69-.018 1.37.078 1.779.29.838.432 1.68 1.245 1.68 1.621 0 .253-.74.321-3.407.321-1.875 0-3.409-.084-3.409-.188 0-.415.801-1.296 1.517-1.666.45-.233 1.15-.361 1.84-.379m-117.75 1.503-13.448.004c-14.941.004-15.211.027-18.191 1.593-3.153 1.657-5.997 4.575-7.544 7.74-1.274 2.603-1.71 4.882-1.71 8.958v3.611H-4.86c16.144 0 15.87-.026 13.046 1.251l-1.272.574-27.503.137.056 4.922c.03 2.706.058 4.949.06 4.982.003.034 6.39.06 14.194.06 15.682 0 15.556.01 18.802-1.573 3.93-1.918 7.363-5.927 8.76-10.229.667-2.053.71-2.436.716-6.206l.006-4.02-14.725-.121-14.725-.12.972-.61.974-.608 26.652-.133v-5.106zm10.222 0v11.925h-6.572v9.98h6.572v11.928h9.97l.066-5.904.066-5.902 8.58-.064 8.579-.063V165.3h9.892l-.017-16.917-.018-16.915h-9.857v11.925H41.356v-11.925h-4.99zm40.399.122-.057 16.855-.06 16.856h9.86v-11.684c0-9.604.056-11.682.324-11.682.18 0 .987.33 1.794.733 1.884.942 3.769 2.936 4.768 5.045l.78 1.645.075 7.972.075 7.97h9.951v-7.402c0-6.566.051-7.567.458-8.874.626-2.012 1.463-3.363 2.932-4.738 1.14-1.067 3.365-2.343 4.093-2.349.24-.002.305 2.494.305 11.68v11.684h9.858l-.077-16.855-.08-16.856-5.276.006c-4.347.005-5.578.086-6.981.458-3.447.912-6.022 2.368-8.57 4.848l-1.514 1.472-1.408-1.336c-2.627-2.492-5.152-3.882-8.871-4.885-1.798-.484-2.62-.548-7.205-.555zm-39.181.84 7.666.133.066 5.903.065 5.902h19.211l.065-5.902.064-5.903 7.668-.133v31.91l-3.833-.068-3.835-.067-.064-5.902-.065-5.903h-19.22v11.927h-7.788V152.4H25.78v-8.032h6.815v-5.97zm42.938.046c2.324.017 5.95.315 7.875.698 3.891.774 7.324 2.778 9.876 5.769l1.07 1.253 1.167-1.351c2.217-2.569 5.896-4.817 9.307-5.69 1.495-.382 2.689-.47 6.422-.47h4.586v31.655l-3.833-.069-3.833-.066-.065-11.776-.062-11.776-1 .135c-1.53.205-3.984 1.533-5.413 2.93-.834.816-1.622 1.938-2.24 3.191l-.957 1.934-.121 7.68-.122 7.682-3.811.066-3.813.068-.1-7.247c-.09-6.646-.143-7.382-.632-8.867-1.206-3.663-4.852-6.966-8.196-7.424l-1.095-.15v23.675h-7.787v-31.6l.998-.168c.374-.063 1.004-.089 1.779-.083zm-55.474.192.068 3.894.067 3.896-12.724.068c-12.396.067-12.752.083-13.845.589-1.177.544-3.381 2.48-3.381 2.97 0 .214 3.777.283 15.334.283H20.91l-.004 2.983c-.004 3.588-.387 5.399-1.74 8.214-.815 1.695-1.375 2.442-3.095 4.14-2.175 2.145-4.117 3.377-6.448 4.089-1.056.322-3.401.395-15.183.47l-13.935.089v-8.058l13.326-.002H7.158l1.462-.692c1.367-.649 3.528-2.61 3.528-3.2 0-.171-4.924-.247-15.395-.24l-15.395.012-.068-2.663c-.087-3.384.36-5.581 1.683-8.251 1.364-2.755 4.134-5.711 6.527-6.969 3.116-1.637 2.651-1.595 17.292-1.61zm94.808.938-4.444.11c-3.727.094-4.72.2-6.149.657-3.432 1.098-6.73 3.409-8.668 6.07-.587.805-1.134 1.47-1.216 1.478-.082.007-.46-.434-.838-.98-1.362-1.964-4.186-4.321-6.537-5.455-2.95-1.423-5.075-1.827-9.626-1.827h-3.661v14.684c0 8.074.046 14.725.101 14.786.056.056 1.336.083 2.842.06l2.74-.045-.052-11.822-.054-11.822h.96c3.302 0 7.464 2.627 9.402 5.935 1.634 2.787 1.676 3.041 1.82 10.728l.13 7.046 5.478.133v-6.018c0-3.31.102-6.622.223-7.358.908-5.501 5.3-9.84 10.512-10.384l1.434-.15v23.8l2.74-.043 2.738-.044.062-14.77zm-95.903.029-12.717.08c-12.644.08-12.727.085-14.265.653-2.162.798-4.946 2.73-6.264 4.348-2.284 2.804-3.232 5.447-3.438 9.605l-.14 2.859 31.725.125-.624 1.253c-.707 1.42-2.494 3.205-3.949 3.948-1.728.881-3.65 1.002-15.947 1.004l-11.864.002v5.599h12.926c11.007 0 13.147-.06 14.42-.388 4.853-1.252 8.981-5.312 10.495-10.323.222-.736.467-2.625.544-4.198l.143-2.859h-31.502l.166-.548c.49-1.617 2.548-3.77 4.447-4.647 1.112-.514 1.42-.526 13.49-.594l12.353-.07v-2.925zm14.603.024v11.927h-6.572v5.84h6.572v11.685h5.599v-11.65l5.05-.077a445 445 0 0 1 10.832 0l5.78.082v11.903l5.478-.137.062-14.788.063-14.786h-5.594l-.066 5.902-.065 5.903H39.287l-.066-5.903-.065-5.902h-2.794zm95.35 5.815.191.683c.105.375.233 2.243.286 4.15l.098 3.468h-6.38l.098-3.468c.053-1.907.18-3.77.284-4.137l.186-.67h-1.517c-1.47 0-1.51.017-1.315.548.31.842.407 13.358.107 13.658-.139.138-.251.45-.251.69 0 .374.218.438 1.489.438h1.487l-.186-.669c-.103-.368-.197-1.765-.21-3.104l-.024-2.434h6.084l-.024 2.434c-.013 1.34-.108 2.742-.212 3.117l-.19.681 1.43-.074c1.382-.071 1.426-.093 1.308-.68-.15-.753-.14-13.325.011-13.997.1-.438-.032-.494-1.32-.56zm21.482.275c-.067.003-.597.302-1.177.668l-1.054.664-.081 13.752h2.432v-7.544c0-4.15-.053-7.543-.12-7.54zm-10.622 6.352c-1.527-.018-2.627.324-3.698 1.124-1.147.857-1.743 1.946-1.744 3.19-.002 1.995 1 3.21 3.379 4.098 1.258.47 4.983.306 6.182-.272.879-.423.904-.465.511-.898-.51-.564-.774-.568-1.821-.03-1.164.598-3.502.565-4.577-.064-.922-.54-1.663-1.452-1.775-2.187-.072-.47.097-.492 4.55-.61l4.625-.121-.081-.607c-.256-1.924-2.265-3.407-4.87-3.593a12 12 0 0 0-.681-.03m13.907.23v12.906l1.218-.072c1.13-.067 1.213-.114 1.172-.68a120 120 0 0 1-.122-2.507c-.073-1.813-.055-1.891.41-1.717.267.101 1.311.19 2.32.196 1.504.01 2.05-.1 3.043-.61 1.58-.814 2.303-1.891 2.303-3.422 0-.976-.132-1.323-.79-2.073-1.307-1.488-2.453-1.845-6.253-1.94zm-13.612.936q.478.003.936.117c.658.165 2.332 1.511 2.332 1.876 0 .12-1.602.22-3.56.22h-3.558l.358-.54c.686-1.034 2.113-1.683 3.492-1.673m17.92.262c1.44-.01 3.063.593 3.708 1.516.865 1.234.233 3.169-1.284 3.936-1.573.796-3.252.601-4.219-.487-.339-.382-.383-.8-.267-2.486.128-1.86.187-2.046.727-2.252a3.9 3.9 0 0 1 1.336-.227m-36.458 9.252c-.287 0-.343 1.13-.343 6.922 0 4.352-.09 6.98-.244 7.074-.133.082-.243.362-.244.622v.002c.001.387.175.47.975.47.976 0 1.259-.345.723-.88-.157-.157-.222-2.089-.18-5.265l.064-5.016 3.377 4.851c1.858 2.668 3.447 4.848 3.53 4.847.084-.002 1.412-2.438 2.952-5.415 3.272-6.327 3.01-6.494 2.878 1.829l-.08 5.05 1.308-.001h1.308l-.151-.76c-.084-.419-.153-3.813-.153-7.545v-6.785l-1.034.006-1.035.006-2.713 5.28c-1.492 2.904-2.807 5.305-2.921 5.335s-1.887-2.349-3.94-5.286-3.888-5.34-4.077-5.34zm78.44.743c.18.011.423.137.75.366l.54.376-.53.718c-.807 1.09-1.17.924-1.17-.539 0-.643.113-.939.411-.92m27.46 3.152v11.196h1.307c1.25 0 1.296-.023 1.109-.548-.108-.3-.236-2.053-.285-3.894l-.088-3.347h1.229c.93 0 1.23-.09 1.23-.366s-.3-.365-1.243-.365h-1.244l.124-.79c.067-.435.2-1.038.297-1.34.167-.521.115-.546-1.13-.546zm-53.67 2.577c-1.981-.007-3.208.408-4.41 1.494-2.71 2.448-1.223 6.283 2.76 7.124 1.384.292 4.09.093 5.3-.391 1.11-.445 1.19-.647.452-1.163-.472-.331-.616-.318-1.518.142-2.022 1.032-4.955.38-6-1.334-.856-1.405-.901-1.392 4.147-1.392h4.624v-.673c0-1.028-1.019-2.305-2.467-3.093-1.057-.575-1.606-.71-2.888-.714m33.285.013c-2.046-.015-4.16.785-5.106 2.11-.765 1.073-.786 3.47-.041 4.47.636.854 1.798 1.546 3.246 1.936 1.525.412 2.819.4 4.512-.04 1.935-.504 2.232-.77 1.5-1.346-.553-.435-.594-.434-1.622.074-1.39.688-2.982.675-4.453-.037-1.164-.563-1.87-1.485-1.87-2.443 0-.486.126-.498 4.652-.498 4.14 0 4.634-.043 4.502-.386a2.5 2.5 0 0 1-.147-.729c0-.64-1.722-2.26-2.875-2.704-.706-.271-1.497-.402-2.298-.407m-41.803.086c-.88 0-.974.06-.974.62 0 .55-2.86 5.693-3.164 5.69-.236-.003-3.286-5.357-3.286-5.77 0-.341-.274-.43-1.521-.49-1.697-.08-2 .267-.949 1.087.315.245 1.422 1.815 2.462 3.488l2.233 3.591c.188.301.382.546.432.546s1.17-1.697 2.49-3.774c1.319-2.076 2.59-3.835 2.825-3.91.234-.075.424-.348.424-.607 0-.387-.172-.47-.972-.47m17.718 0c-1.22 0-1.223.003-1.032.67.106.368.192 1.985.192 3.591s-.086 3.222-.192 3.59l-.192.67h2.669l-.122-2.774c-.147-3.331-.026-3.92.908-4.403 1.415-.732 3.175-.323 3.661.85.299.72.22 4.832-.11 5.779-.185.53-.141.548 1.327.548 1.47 0 1.51-.017 1.314-.548-.112-.302-.206-1.735-.21-3.186-.009-2.593.001-2.648.673-3.225 1.237-1.064 3.872-.581 4.211.77.086.341.109 1.873.05 3.404l-.107 2.785h2.491l-.101-2.983c-.125-3.676-.361-4.32-1.855-5.043-1.508-.73-4.02-.64-5.178.184l-.768.548-.902-.612c-.73-.495-1.2-.615-2.44-.615-.845 0-1.834.137-2.198.303-.526.24-.682.24-.762 0-.062-.186-.57-.303-1.327-.303m32.056 0v8.52h2.453l-.098-3.12-.096-3.119.775-.653c.486-.41 1.064-.654 1.548-.653 1.008 0 2.303.803 2.488 1.54.186.742.01 4.734-.242 5.458-.184.53-.14.548 1.327.548s1.51-.019 1.329-.548c-.104-.302-.253-1.824-.333-3.383-.159-3.128-.376-3.611-1.902-4.258-1.046-.442-3.328-.42-4.219.041-.644.333-.718.333-.718 0 0-.28-.281-.373-1.155-.373zm-68.922.017c-2.921.019-5.703 1.427-6.14 3.429-.526 2.407 1.418 4.514 4.653 5.043 4.41.722 8.4-1.906 7.62-5.017-.28-1.11-2.12-2.669-3.695-3.127a8.6 8.6 0 0 0-2.438-.328m27.643 1.024c.882.029 1.717.388 2.477 1.074.525.474.954.96.954 1.078s-1.588.216-3.529.216-3.528-.095-3.528-.21c0-.501 1.043-1.469 1.995-1.85a4 4 0 0 1 1.63-.308m33.137.024c.461.004.919.09 1.342.266 1.087.454 2.054 1.28 2.054 1.755 0 .253-.762.323-3.538.323-3.395 0-3.527-.02-3.29-.462.627-1.172 2.047-1.893 3.432-1.882m-60.824.153c3.959 0 5.673 3.95 2.421 5.577-1.935.969-4.345.68-5.708-.683-.626-.625-.766-.96-.766-1.83 0-1.78 1.699-3.064 4.053-3.064m-167.98 2.19v10.229h140.44V166.76zm.72.964h138.98v1.218h-138.98zm0 6.996h138.98v1.216h-138.98z" style="fill:#0d0d0e;stroke-width:.91993" transform="translate(12.64 -18.41)scale(.2576)"/>
</svg>
