<?xml version="1.0" encoding="UTF-8"?>
<svg id="svg1" width="300" height="150" version="1.1" viewBox="0 0 79.375 39.688" xmlns="http://www.w3.org/2000/svg">
	<g id="layer1" transform="matrix(.15156 0 0 .15156 1.0493 -1.8227)">
		<path id="rect32" d="m-6.9236 12.026h523.74v261.87h-523.74z" style="fill-rule:evenodd;fill:#2e3192;stroke-width:1.7458"/>
		<path id="path23" d="m395.73 70.577c-37.111 0.24507-101.25 36.834-43.652 69.683 6.9141 4.3174 7.4853 6.1082 7.9104 7.4143 1.3126 4.0302-3.5374 11.713-11.192 17.728-4.0778 3.2047-7.4143 6.0875-7.4143 6.4069 0 0.31941 5.6892 0.38524 12.643 0.14696 7.2412-0.60048 13.975-2.419 20.781-4.7497 4.4758-2.3745 9.8864-6.2537 12.024-8.6193l3.8849-4.2998 11.852 0.94817c53.25 0.18392 85.872-12.249 92.28-34.291 2.893-9.9517 0.55436-17.45-8.3362-26.723-8.691-9.0644-28.874-16.835-28.874-16.835-13.613-4.0192-37.862-6.9624-44.734-6.7032-17.243-0.12954-17.173-0.10742-17.173-0.10742zm14.524 4.0803c13.869 0.03827 29.488 2.0557 46.626 7.0149 53.04 19.491 48.387 64.843-44.203 68.531l-24.787 0.10533-4.2712 4.7278c-2.3496 2.6008-7.3777 6.2488-11.174 8.1079-3.7964 1.859-9.417 3.7179-12.489 4.1308l-5.5859 0.75067 4.1856-4.888c3.8395-4.4856 6.4009-10.323 6.4178-14.62 0.0127-3.0897-3.4281-6.7174-10.759-11.348-18.713-11.849-26.152-22.254-12.122-39.936 8.7127-9.8178 32.72-22.671 68.162-22.577zm-341.69 20.759v12.362h14.609v-12.362h-7.3046zm25.847 0v62.932h6.7427c5.8295 0 6.7427-0.28287 6.7427-2.0939v-2.0961l5.338 2.7414c6.5131 3.3434 13.186 2.8755 19.607-1.374 10.257-6.788 12.738-24.02 5.1097-35.498-5.6279-8.4686-18.658-11.223-26.541-5.6101l-3.514 2.5044v-21.505h-6.7427zm57.313 0v62.932h13.485v-62.932h-6.7427zm25.847 0v11.8h14.047v-11.8zm-141.27 2.3463c-1.012-1e-3 -2.067 0.02977-3.1694 0.08321-9.1571 0.46239-12.651 2.2604-17.1 8.7971-4.2994 6.3171-3.0326 16.383 2.7173 21.587 1.1579 1.0479 6.988 3.4784 12.954 5.3994 11.865 3.8204 13.87 5.3032 12.82 9.4841-1.3057 5.2026-11.454 5.1799-20.544-0.0459-2.5824-1.4846-4.942-2.6997-5.2436-2.6997-0.30156 0-2.1703 2.047-4.1527 4.55l-3.604 4.5522 2.1049 1.6549c3.5417 2.7847 10.274 6.0715 14.73 7.1904 5.8462 1.4682 16.801 0.4351 21.593-2.0369 6.1751-3.1854 9.0473-8.2771 9.0473-16.038 0-5.7082-0.44131-7.0401-3.4833-10.505-2.8229-3.2152-5.5131-4.6022-14.172-7.309-11.6-3.626-13.81-4.8916-13.81-7.906 0-5.2798 9.5727-6.5384 17.803-2.3397 2.5212 1.2862 4.8321 2.3397 5.136 2.3397 0.30399 0 2.0422-2.1647 3.863-4.8112l3.3099-4.8134-3.536-2.3156c-5.1529-3.3729-10.179-4.8096-17.263-4.8178zm237.45 13.619c-9.5913 0.17626-18.059 7.513-19.376 18.639-1.5918 13.441 7.4732 24.153 20.439 24.153 5.8043 0 9.0733-1.1542 12.245-4.3262l1.7735-1.7735v3.3274c0 9.435-12.109 12.413-26.124 6.4244-1.5659-0.66904-2.3886 0.15034-4.0715 4.0561-1.16 2.6921-1.8961 5.2662-1.6352 5.7199 0.26079 0.4537 2.8517 1.5556 5.7572 2.4495 7.7836 2.3945 22.214 2.2166 27.759-0.34232 10.408-4.8038 11.8-9.0765 11.8-36.251v-21.185h-6.7427c-5.8295 0-6.7427 0.28288-6.7427 2.0939v2.0961l-5.338-2.7458c-3.2235-1.6579-6.546-2.3941-9.7431-2.3354zm-44.126 0.0944c-3.447 0.0709-6.9288 1.0807-9.4599 2.9521l-3.255 2.4078v-4.5654s-14.018-5e-5 -14.047 0v46.077h14.047v-15.171c0-13.673 0.22213-15.393 2.2476-17.419 1.2361-1.2362 3.5118-2.2476 5.057-2.2476 1.5452 0 3.8208 1.0114 5.057 2.2476 2.0256 2.0256 2.2476 3.746 2.2476 17.419v15.171h13.485l-2e-3 -17.7c-2e-3 -20.225-1.1093-24.111-7.8643-27.594-2.1724-1.1201-4.8322-1.6332-7.5131-1.5781zm-161.05 0.79675v46.075h13.485v-46.075h-6.7427zm109.01 0v46.075h13.485v-46.075zm97.999 10.316c2.6845 0.047 5.726 0.90918 8.9771 2.8841 8.4159 5.1124-0.29943 22.74-11.65 17.901-13.879-5.916-8.9594-20.991 2.6734-20.786zm-157.9 0.50479c1.3357-0.0298 2.7627 0.19963 4.2581 0.74409 7.582 3.6156 9.3753 14.58 3.367 20.588-3.8118 3.8117-10.91 3.7362-14.517-0.15588-7.3418-7.9219-2.4579-20.959 6.8919-21.176zm254.32 53.235v31.466l-2e-3 31.466h13.485v-13.995c0-8.3015 0.53602-15.169 1.3169-16.883 2.5664-5.6327 11.132-5.1809 13.18 0.6958 0.67983 1.9502 1.2357 9.5386 1.2357 16.863v13.319h13.485l-5e-3 -16.014c-8e-3 -17.93-0.94832-22.842-5.1909-27.085-5.2365-5.2366-15.532-5.3324-21.075-0.19539l-2.9455 2.7304v-22.368h-6.7427zm53.942 0v12.362h13.485v-12.362h-6.7427zm-413.55 2.2475v60.684h13.485v-17.664l9.618-0.59918c8.0073-0.49956 10.483-1.1378 14.772-3.8104 6.4564-4.0235 9.3239-9.2165 9.3239-16.887 0-16.35-8.251-21.723-33.356-21.723zm142.72 2.2476v12.362h-5.6189v11.238h5.6189v12.978c0 13.508 1.2004 18.167 5.338 20.709 2.8946 1.7784 17.021 0.90128 18.31-1.137 0.57234-0.90486 1.0486-3.5988 1.0579-5.9854l0.017-4.3393-4.0189 0.75283c-6.3537 1.192-7.219-0.29943-7.219-12.441v-10.538h11.238v-11.238h-11.238v-12.362h-6.7427zm-129.23 10.114h5.654c7.5612 0 13.171 2.43 14.093 6.1062 1.1259 4.4858-0.36533 8.3023-3.9749 10.169-1.8146 0.93837-6.1066 1.7054-9.5368 1.7054h-6.2357v-8.9902zm236.91 1.0821c-9.095-0.0713-16.486 4.4935-20.623 12.95-2.6389 5.3937-2.9862 7.224-2.4649 12.974 0.33385 3.682 1.5394 8.288 2.68 10.235 3.0826 5.2613 9.4239 9.8777 15.061 10.963h2e-3c8.6341 1.663 19.408-1.0901 23.483-6.0008 1.25-1.5062 1.1525-2.1575-0.62335-4.1198-3.7153-4.1054-5.3975-4.4194-10.399-1.9447-5.8386 2.8887-11.446 2.1123-14.71-2.0368-1.2545-1.5949-2.0392-3.2903-1.7449-3.7664 0.29434-0.4763 7.3671-0.7965 15.718-0.71114l15.182 0.15586-0.0254-5.6189c-0.0462-10.491-7.5905-20.922-16.317-22.559-1.7912-0.33596-3.5352-0.50696-5.2194-0.52022zm59.211 0.0382-2.6031 2e-3c-3.4947 3e-3 -6.9894 1.9202-9.9999 5.485l-2.4868 2.9456-0.0437-3.6523-0.0426-3.6523h-13.485v22.289c0 12.259 0.35975 22.647 0.79893 23.086h2e-3c0.43901 0.43852 3.4922 0.64889 6.7844 0.46754l5.9876-0.32918 0.55751-11.65c0.74341-15.49 3.3791-20.377 10.988-20.377h2.7875l0.3776-7.3068zm-179.32 5e-3c-3.2026 0-6.7545 1.9903-9.7892 5.4828-2.288 2.6332-2.5449 2.7068-2.4012 0.69795 0.39541-5.5261 0.251-5.6393-6.8371-5.2392l-6.7448 0.38185v22.188c0 12.204 0.35975 22.548 0.79893 22.987 0.439 0.43849 3.482 0.64891 6.7624 0.46755l5.9635-0.32919 0.43675-11.372c0.59187-15.403 3.4525-20.656 11.249-20.656 2.9346 0 3.1343-0.49828 3.1343-7.8665 0-5.9588-0.30029-6.7427-2.5724-6.7427zm336.22 5e-3c-4.4628-0.15544-8.5094 1.4498-12.217 4.8265l-2.5285 2.3024v-6.6659l-12.924 0.39074-0.30071 29.912-0.29859 29.914h13.523v-19.269l2.9565 2.3266c3.247 2.5541 10.536 4.8782 12.937 4.1242 0.83877-0.26333 2.876-0.77417 4.528-1.1348 4.2296-0.92287 9.6141-5.7632 12.329-11.084 1.8791-3.6793 2.2369-6.1425 1.9183-13.147-0.48375-10.634-4.0454-16.966-11.424-20.316-2.9936-1.3591-5.8209-2.0862-8.4986-2.1795zm-264.04 0.0383c-2.9667 0.10059-5.9337 1.0174-8.4613 2.7326l-4.0891 2.7743v-2.1137c0-1.7961-1.0276-2.1698-6.8393-2.4934-3.762-0.20853-6.9226-0.29944-7.0236-0.1975-0.10109 0.10196-0.0383 10.62 0.1406 23.373l0.32492 23.189 12.836-0.67194 0.31387-15.121c0.25145-12.063 0.68574-15.528 2.1422-17.138 2.4236-2.6782 7.6745-2.5624 10.467 0.23063 2.0256 2.0256 2.2475 3.7459 2.2475 17.419v15.171h13.485v-18.035c0-20.125-0.78797-23.126-7.0785-26.962-2.532-1.5438-5.499-2.2581-8.4657-2.1576zm-129.16 0.13843c-2.6-0.0255-5.3442 0.25017-8.1803 0.84285-8.9386 1.868-9.3535 2.2757-7.8753 7.7655l1.2445 4.6202 8.9639-0.69137c7.6821-0.59243 9.2856-0.40266 11.205 1.3345 1.2319 1.1149 2.241 2.8946 2.241 3.9552 0 1.6884-0.65668 1.8059-5.2831 0.94163-16.569-3.0953-28.278 8.0789-22.103 21.093 1.8432 3.8844 4.0329 5.5828 9.3392 7.2387 3.755 1.1718 11.159 0.15036 14.556-2.0083 2.4276-1.5428 2.7893-1.5325 3.7072 0.10742 0.7462 1.3334 2.676 1.8174 7.2409 1.8174h6.2247l-0.37971-17.901c-0.34149-16.103-0.61833-18.219-2.7458-21.071-3.8476-5.1568-10.356-7.9636-18.156-8.0443zm259.73 0.0879c-12.547-0.14141-20.785 9.8695-15.963 20.452 1.6296 3.5766 5.0959 5.8622 13.02 8.5886 7.8869 2.7135 9.7539 4.1647 8.0333 6.2379-1.848 2.2266-8.2722 1.8846-13.36-0.71112-2.4231-1.2362-4.8059-2.2429-5.294-2.2344-0.84234 0.0128-5.9438 7.202-5.9438 8.3757 0 0.98666 8.8321 5.0939 13.187 6.1325 5.4356 1.2963 13.419 0.36697 17.715-2.0632 4.2865-2.4247 6.1442-6.1212 6.1655-12.263 0.0212-6.4548-3.6282-10.063-14.311-14.139-6.1903-2.3624-8.1474-3.6259-8.1474-5.259 0-1.7805 0.81958-2.1464 4.7761-2.1422 2.6269 3e-3 6.2234 0.76233 7.9938 1.6856 1.7704 0.92329 3.4222 1.6791 3.6699 1.6791 0.74129 0 4.9035-7.209 4.9077-8.5008 8e-3 -1.8963-7.3596-4.9069-13.885-5.6738-0.87219-0.10238-1.7272-0.15502-2.5636-0.1648zm80.508 0.85386v46.075h13.485v-46.075h-6.7427zm-163.85 10.113c4.3707 0.0668 8.7686 2.7617 8.7686 6.9556 0 1.7953-1.0611 2.0347-8.9902 2.0347-9.935 0-10.793-0.77662-6.6615-6.0293 1.6484-2.0957 4.2607-3.001 6.8832-2.9609zm212.65 0.11845c1.5341 3e-3 3.1848 0.5551 5.2479 1.622 6.4738 3.3477 7.705 14.222 2.23 19.697-5.8799 5.8799-14.351 3.8356-16.969-4.0957-1.8617-5.6409-0.54529-11.041 3.5228-14.464 2.2172-1.8657 3.9955-2.764 5.9679-2.759zm-389.21 15.629c7.1556 0.0298 9.1513 1.066 8.3757 4.3524-0.38129 1.6156-1.7397 3.8217-3.018 4.9034-2.6632 2.2536-9.9523 2.631-11.964 0.61897-3.8215-3.8215 0.24515-9.9003 6.6066-9.8748z" style="fill:#fff;stroke-width:4.2474"/>
		<path id="path24" d="m368.65 33.281c17.243-0.12954 17.173-0.10746 17.173-0.10746 37.111 0.24507 101.25 36.835 43.652 69.684-6.9141 4.3174-7.4841 6.108-7.9091 7.4141-1.3126 4.0301 3.5373 11.713 11.192 17.728 4.0779 3.2047 7.4143 6.0874 7.4143 6.4068s-5.6891 0.38524-12.643 0.14696c-7.2412-0.6005-13.975-2.419-20.781-4.7497-4.4758-2.3745-9.8864-6.2537-12.024-8.6194l-3.8849-4.2998-11.852 0.94823c-53.25 0.1839-85.872-12.249-92.28-34.291-2.8931-9.9518-0.55437-17.45 8.3362-26.723 8.691-9.0644 28.872-16.834 28.872-16.834 13.613-4.0192 37.863-6.9637 44.735-6.7044zm-43.977 10.989c-53.04 19.491-48.387 64.843 44.203 68.531l24.787 0.10533 4.2712 4.7278c2.3497 2.6008 7.3777 6.2489 11.174 8.1079 3.7965 1.859 9.417 3.7179 12.489 4.1308l5.586 0.75062-4.1857-4.888c-3.8395-4.4856-6.4008-10.323-6.4178-14.62-0.0127-3.0896 3.4281-6.7174 10.759-11.348 18.713-11.849 26.153-22.256 12.124-39.938-12.122-13.66-53.854-33.192-114.79-15.56z" style="fill:#9dbcf2;stroke-width:4.2474"/>
	</g>
</svg>
