<?xml version="1.0" encoding="UTF-8" standalone="no"?>
<!-- Created with Inkscape (http://www.inkscape.org/) -->

<svg
   width="500"
   height="120"
   viewBox="0 0 132.29166 31.75"
   version="1.1"
   id="svg1"
   xml:space="preserve"
   inkscape:version="1.4 (86a8ad7, 2024-10-11)"
   sodipodi:docname="smartrecovery-familyfriends.svg"
   xmlns:inkscape="http://www.inkscape.org/namespaces/inkscape"
   xmlns:sodipodi="http://sodipodi.sourceforge.net/DTD/sodipodi-0.dtd"
   xmlns="http://www.w3.org/2000/svg"
   xmlns:svg="http://www.w3.org/2000/svg"><sodipodi:namedview
     id="namedview1"
     pagecolor="#ffffff"
     bordercolor="#111111"
     borderopacity="1"
     inkscape:showpageshadow="0"
     inkscape:pageopacity="0"
     inkscape:pagecheckerboard="1"
     inkscape:deskcolor="#d1d1d1"
     inkscape:document-units="px"
     inkscape:zoom="3.1429293"
     inkscape:cx="142.86036"
     inkscape:cy="126.95163"
     inkscape:window-width="1920"
     inkscape:window-height="1115"
     inkscape:window-x="-9"
     inkscape:window-y="-9"
     inkscape:window-maximized="1"
     inkscape:current-layer="layer1"
     showgrid="false" /><defs
     id="defs1" /><g
     inkscape:label="Layer 1"
     inkscape:groupmode="layer"
     id="layer1"
     transform="matrix(0.84282136,0,0,0.84282136,24.944969,-23.484335)"><path
       style="fill:#ffa300;fill-opacity:1;stroke-width:0.369643"
       d="m 39.099143,46.470868 c -0.08728,0.0033 -1.709356,3.014521 -1.713052,3.17988 -7.39e-4,0.04035 0.768469,0.07335 1.709806,0.07335 0.941341,0 1.710317,-0.03301 1.708468,-0.07335 -0.0078,-0.176604 -1.620101,-3.183207 -1.705222,-3.17988 z"
       id="path4" /><path
       id="path3"
       style="fill:#ffa300;fill-opacity:1;stroke-width:0.369643"
       d="m -1.3714054,33.647311 c -0.144186,0.01182 -1.183229,0.270262 -2.415357,0.601514 -3.222523,0.866355 -3.416329,0.922759 -3.416329,0.998388 0,0.03608 0.956994,1.023268 2.126486,2.193665 1.169492,1.170397 2.151761,2.128035 2.183329,2.128035 0.03157,0 0.108063,-0.209066 0.170015,-0.464571 0.06195,-0.255505 0.240812,-0.948775 0.397392,-1.540474 0.766289,-2.89568 1.009691,-3.876833 0.971,-3.915523 -0.0014,-0.0014 -0.0069,-0.0018 -0.016536,-10e-4 z m -20.8576406,10e-4 c -0.0096,-7.4e-4 -0.01506,-4.57e-4 -0.01654,10e-4 -0.02375,0.02375 0.0522,0.408171 0.168982,0.854212 0.75535,2.885142 1.307761,4.930197 1.351339,5.002795 0.04972,0.08282 4.328418,-4.125379 4.328418,-4.257105 0,-0.07737 -0.186166,-0.132045 -3.416329,-1.000455 -1.232126,-0.331252 -2.271216,-0.589143 -2.415873,-0.60048 z m 1.562178,14.918468 c -0.06335,0 -0.157096,0.186866 -0.208773,0.415479 -0.144513,0.639305 -1.070594,4.168712 -1.238167,4.719092 -0.08189,0.268956 -0.14927,0.544094 -0.149862,0.611332 -0.0018,0.21049 -0.09913,0.232737 4.791439,-1.11001 0.511013,-0.140302 0.971498,-0.295279 1.02371,-0.344682 0.103681,-0.0981 -4.01823,-4.291211 -4.218347,-4.291211 z m 17.7234656,0 c -0.196477,0 -4.308127,4.195972 -4.208012,4.294312 0.05221,0.05129 1.019103,0.342312 2.148706,0.646472 1.129607,0.304166 2.317921,0.632853 2.640665,0.730705 0.616782,0.186991 1.026811,0.239901 1.026811,0.132291 0,-0.291712 -1.527348,-5.80378 -1.60817,-5.80378 z" /><path
       style="fill:#1b7dd7;fill-opacity:1;stroke-width:0.369643"
       d="m -12.680068,57.157357 c -0.457219,-0.812904 -0.920278,-1.63702 -1.02902,-1.831371 -0.108741,-0.194351 -0.895427,-1.576609 -1.74819,-3.07169 -1.59495,-2.79628 -1.682408,-2.911047 -2.594534,-3.404583 -1.662283,-0.899438 -8.165648,-4.660161 -8.190604,-4.736407 -0.017,-0.05194 0.706014,-0.512156 1.606697,-1.022711 5.677888,-3.218534 7.424782,-4.229774 7.565584,-4.379557 0.0874,-0.09297 1.29313,-2.171524 2.679411,-4.619001 1.38628,-2.447481 2.552788,-4.486222 2.592245,-4.530534 0.03945,-0.04431 0.942952,1.45205 2.0077676,3.32525 1.064816,1.873196 2.236651,3.928242 2.60408,4.566763 0.367429,0.638517 0.668104,1.188654 0.668163,1.222517 8.9e-5,0.04949 5.055084,2.973723 7.17859501,4.152707 0.274287,0.152286 0.58672699,0.332483 0.69430799,0.400442 0.107581,0.06796 0.459667,0.267803 0.782413,0.444107 0.322742,0.176306 0.62364,0.354218 0.668662,0.395367 0.04502,0.04114 -0.197039,0.225723 -0.537908,0.410171 -0.340871,0.184448 -1.01117,0.563513 -1.48955799,0.842369 -0.478389,0.278855 -0.878768,0.507006 -0.889731,0.507006 -0.01098,0 -0.825565,0.462113 -1.81022401,1.026917 -0.984663,0.564803 -1.799024,1.026913 -1.809695,1.026913 -0.01068,0 -0.625252,0.348129 -1.365736,0.773622 l -1.346328,0.773619 -2.604742,4.573767 c -1.4326076,2.515574 -2.6487476,4.586947 -2.7025426,4.603052 -0.05379,0.01612 -0.47189,-0.635819 -0.929113,-1.448724 z m 2.350557,-8.536405 c 1.6797466,-0.568297 2.8861326,-1.901836 3.2342846,-3.57517 0.538963,-2.590448 -1.249105,-5.160403 -3.9149116,-5.626829 -1.451837,-0.254026 -2.828062,0.177871 -3.974043,1.247157 -1.98327,1.850544 -2.029618,4.874421 -0.103827,6.773947 1.332641,1.314462 3.08115,1.748382 4.758497,1.180895 z"
       id="path37" /><path
       id="path36"
       style="fill:#1b7dd7;fill-opacity:1;stroke-width:0.369643"
       d="m 39.097423,36.716504 c -0.04788,0 -1.494928,2.92049 -2.544172,5.134571 -0.229419,0.484118 -1.021352,2.112507 -1.759853,3.618651 -1.407432,2.870397 -2.005693,4.124634 -2.005693,4.205844 0,0.02669 0.671162,0.04812 1.491471,0.04775 l 1.491472,-7.4e-4 0.228076,-0.414895 c 0.125427,-0.228165 0.86658,-1.684944 1.646959,-3.237378 0.780381,-1.552431 1.453678,-2.784729 1.496249,-2.738439 0.04257,0.04629 0.790519,1.503391 1.662049,3.238144 l 1.58469,3.154095 h 1.507707 c 0.829291,0 1.507708,-0.01645 1.507708,-0.03666 0,-0.09311 -0.590238,-1.335843 -2.043705,-4.302306 -0.866173,-1.767822 -1.574946,-3.226109 -1.574946,-3.24082 0,-0.08738 -2.644734,-5.427784 -2.688012,-5.427784 z M 10.66472,37.439888 c -0.287679,0.0095 -0.574129,0.0405 -0.8561438,0.09417 -1.112843,0.211824 -1.7886863,0.559038 -2.5088364,1.28899 -0.7206397,0.730448 -0.9191916,1.226262 -0.9161241,2.287448 0.00246,0.841041 0.1756091,1.322032 0.6848015,1.901969 0.6697133,0.762763 1.1401078,0.99322 3.5183678,1.723942 2.378094,0.73067 2.771103,0.955017 2.771103,1.58144 0,0.554391 -0.868118,1.061186 -1.811809,1.05786 -0.39972,-0.0014 -1.201343,-0.209987 -1.5999697,-0.416229 -0.3516364,-0.181935 -1.0749536,-0.942214 -1.2391367,-1.302556 -0.0978,-0.214663 -0.1596132,-0.243869 -0.4104988,-0.193693 -0.6651434,0.13303 -2.5019589,0.761154 -2.5019589,0.855572 0,0.291005 0.7112963,1.367683 1.2620589,1.910375 0.7550713,0.744006 1.4713175,1.170767 2.4543953,1.462437 0.8361749,0.248086 2.5432529,0.307536 3.4427239,0.11996 1.281114,-0.267159 2.581856,-1.201913 3.075014,-2.209892 0.376723,-0.769993 0.434267,-1.901855 0.136579,-2.691065 C 15.772949,43.870483 14.85732,43.281461 12.396111,42.485638 9.5361769,41.56089 9.5772079,41.577229 9.4196626,41.295402 9.2186701,40.935857 9.3672534,40.548534 9.8049462,40.29141 c 0.2705188,-0.15892 0.5048418,-0.199633 1.1241428,-0.195604 0.941288,0.0061 1.434557,0.220315 2.105979,0.914598 l 0.443353,0.458253 0.632462,-0.182422 c 2.26592,-0.653773 2.157717,-0.565742 1.655365,-1.348591 -1.015017,-1.58177 -3.087773,-2.564462 -5.101528,-2.497756 z m 20.460361,0.249471 -1.429582,0.02695 -1.429582,0.02713 -0.974766,1.418121 c -0.536147,0.779966 -1.327232,1.939946 -1.757943,2.577791 -0.430708,0.637849 -0.816387,1.121967 -0.857099,1.075817 -0.04071,-0.04615 -0.462785,-0.655995 -0.9379,-1.355274 -0.475114,-0.69928 -1.254455,-1.832554 -1.731773,-2.518386 L 21.13864,37.694539 h -1.412772 -1.412772 v 6.014785 6.014789 h 1.515922 1.515922 v -3.330982 c 0,-2.038224 0.03562,-3.309153 0.0915,-3.274628 0.05023,0.03105 0.44603,0.550724 0.87964,1.154898 0.433611,0.604174 1.121122,1.56066 1.527765,2.125463 0.406644,0.564803 0.798707,1.026913 0.871235,1.026913 0.07253,0 0.38919,-0.356418 0.703712,-0.792152 0.314521,-0.435736 1.055835,-1.453005 1.647533,-2.260513 l 1.075816,-1.468167 0.02579,3.409677 0.02579,3.409489 h 1.465684 1.465683 V 43.70665 Z m 16.137231,0.0052 v 6.014785 6.014788 h 1.467021 1.467021 v -1.956029 -1.956026 l 0.953565,1.88e-4 0.953564,1.93e-4 0.482702,0.757768 c 0.265459,0.416776 0.834351,1.2969 1.264161,1.955837 l 0.781455,1.198069 h 1.700063 c 1.333625,0 1.684612,-0.02636 1.627668,-0.122252 -0.03992,-0.06724 -0.655055,-0.989705 -1.366925,-2.050007 -0.71187,-1.060303 -1.320158,-1.969906 -1.351836,-2.021169 -0.03168,-0.05126 0.107588,-0.191667 0.309638,-0.312122 0.202051,-0.120452 0.556572,-0.39933 0.787762,-0.619663 1.846626,-1.759904 1.481629,-4.877355 -0.737716,-6.301505 -0.862366,-0.553379 -1.271347,-0.602855 -4.98443,-0.602855 z m 11.736169,0 v 1.320316 1.320322 h 1.907129 1.907126 v 4.694467 4.694468 h 1.467022 1.467022 v -4.694468 -4.694467 h 1.907129 1.907126 V 39.014876 37.69456 h -5.281277 z m -8.802127,2.640638 h 1.667593 c 1.828311,0 2.018119,0.04505 2.473496,0.586235 0.554192,0.658619 0.353028,1.65779 -0.41241,2.048289 -0.353781,0.180501 -0.571487,0.201718 -2.062043,0.201718 h -1.666636 v -1.418146 z" /><path
       id="path30"
       style="fill:#1b7dd7;fill-opacity:1;stroke-width:0.357926"
       d="m 74.126059,41.486784 v 4.033497 4.033311 h 0.662909 0.662909 v -1.467869 -1.467869 h 0.938689 0.938504 l 0.96699,1.467869 0.966987,1.467869 h 0.756316 c 0.620748,0 0.746736,-0.02448 0.7036,-0.136871 -0.02889,-0.07532 -0.478862,-0.774427 -0.999912,-1.553509 -0.891306,-1.332692 -0.934758,-1.419685 -0.733195,-1.470274 0.374613,-0.09403 0.986784,-0.605343 1.237961,-1.033945 0.291925,-0.498133 0.405246,-1.363792 0.252474,-1.928426 -0.173206,-0.640162 -0.658045,-1.260635 -1.240364,-1.587174 l -0.520857,-0.292056 -2.296506,-0.03217 z m 1.325818,1.248318 h 1.377978 c 1.482161,0 1.687468,0.05027 2.125968,0.519562 0.197181,0.211029 0.236754,0.346794 0.236754,0.812359 0,0.520009 -0.02484,0.583925 -0.356425,0.915753 l -0.356424,0.356609 -1.513926,0.03014 -1.513925,0.03032 v -1.332476 z m 8.742479,0.842507 c -0.699402,0.01385 -1.401084,0.262818 -1.953397,0.767601 -0.732454,0.669422 -0.959937,1.223563 -0.952192,2.319995 0.0065,0.935586 0.171945,1.450416 0.647001,2.01499 0.298412,0.354641 0.969544,0.77291 1.407757,0.877284 0.381023,0.09075 1.329235,0.10649 1.793406,0.02978 0.512533,-0.0847 1.289746,-0.583082 1.651722,-1.0591 0.171411,-0.225414 0.311478,-0.444225 0.311478,-0.486267 0,-0.08031 -0.841449,-0.382318 -1.065204,-0.382318 -0.07157,0 -0.227555,0.131748 -0.346621,0.292793 -0.27633,0.373757 -0.724084,0.559517 -1.348753,0.559517 -0.851522,0 -1.569647,-0.480652 -1.741615,-1.165827 l -0.06399,-0.254695 h 2.275604 2.275604 l 0.05919,-0.269679 c 0.09187,-0.418297 -0.105432,-1.408622 -0.371036,-1.861842 -0.539359,-0.920343 -1.55674,-1.402481 -2.578944,-1.382232 z m 25.956464,0.02348 c -1.12069,-0.0227 -2.0379,0.454018 -2.58004,1.348568 -1.05073,1.733687 -0.29963,3.991287 1.5165,4.558057 0.49274,0.15377 1.60214,0.176689 2.0838,0.04292 0.51391,-0.142734 1.21648,-0.651038 1.54056,-1.114592 0.32703,-0.467755 0.30066,-0.508548 -0.44224,-0.686767 -0.44352,-0.106397 -0.45225,-0.103956 -0.70657,0.198281 -0.33093,0.393285 -0.74937,0.564324 -1.37982,0.564324 -0.68574,0 -1.28172,-0.307563 -1.55999,-0.804962 -0.11654,-0.208342 -0.21273,-0.431337 -0.21344,-0.495516 -9.7e-4,-0.08861 0.55112,-0.122797 2.29483,-0.142054 l 2.29651,-0.02534 V 46.42845 c -3.6e-4,-1.573723 -1.04283,-2.692714 -2.62334,-2.816252 -0.0764,-0.006 -0.15205,-0.0095 -0.22676,-0.0111 z m -19.215288,0.03422 c -1.009012,7.16e-4 -1.516403,0.190029 -2.117275,0.790902 -0.590331,0.59033 -0.79685,1.071237 -0.846208,1.970228 -0.06155,1.121232 0.145468,1.721957 0.828081,2.403786 0.359739,0.359325 0.674935,0.575804 0.998988,0.686028 0.676026,0.22995 2.0342,0.177103 2.567662,-0.09987 0.466854,-0.242398 1.226965,-1.060502 1.289564,-1.387966 0.04064,-0.212636 0.004,-0.243156 -0.391197,-0.327938 -0.239792,-0.05143 -0.506303,-0.120521 -0.592253,-0.153521 -0.108225,-0.04153 -0.205467,0.02352 -0.316473,0.211412 -0.34282,0.580352 -1.142397,0.878497 -1.846859,0.688803 -1.182125,-0.31831 -1.701856,-1.837459 -0.982339,-2.871371 0.677226,-0.973144 2.087695,-1.007126 2.7689,-0.06677 l 0.249332,0.344218 0.586519,-0.17257 c 0.584631,-0.172174 0.585937,-0.173599 0.491447,-0.444652 -0.159045,-0.456237 -0.722453,-1.02471 -1.293449,-1.305103 -0.472655,-0.232114 -0.651304,-0.265965 -1.39444,-0.265606 z m 6.53439,10e-4 c -0.7443,-0.0013 -0.920863,0.03221 -1.394256,0.264682 -0.298151,0.14641 -0.689761,0.438574 -0.870068,0.64922 -0.544206,0.635785 -0.66462,0.976519 -0.701936,1.984657 -0.03062,0.827139 -0.0107,0.959904 0.216222,1.439573 0.30705,0.64905 1.006899,1.300004 1.629528,1.515772 0.335802,0.116366 0.687023,0.1497 1.31879,0.125039 0.729279,-0.02849 0.937106,-0.0749 1.356148,-0.30297 0.939724,-0.511463 1.4215,-1.285417 1.49839,-2.407116 0.0703,-1.02498 -0.12524,-1.640738 -0.731343,-2.303904 -0.668502,-0.73145 -1.22577,-0.963164 -2.321475,-0.964953 z m 19.409128,0.04587 c -0.4542,0 -0.89564,0.17689 -1.25017,0.501064 l -0.21308,0.194951 v -0.300742 -0.300565 h -0.6629 -0.66291 v 2.825315 c 0,1.553894 0.0285,2.853673 0.0633,2.888392 0.0347,0.03472 0.3297,0.06307 0.65551,0.06307 h 0.59244 l 0.0311,-1.775647 c 0.0285,-1.628979 0.0487,-1.80865 0.24508,-2.176096 0.25643,-0.479965 0.62039,-0.688618 1.20171,-0.688618 h 0.43078 V 44.297748 43.68219 Z m -11.37413,0.0947 -0.69732,1.7283 c -0.38347,0.950562 -0.76721,1.887605 -0.85286,2.082318 l -0.15575,0.35402 -0.20679,-0.448721 c -0.11372,-0.246802 -0.49622,-1.17319 -0.8499,-2.058646 l -0.64294,-1.609922 -0.73652,-0.02774 c -0.40509,-0.01529 -0.71631,0.006 -0.69139,0.04734 0.0249,0.04134 0.52382,1.204407 1.10848,2.584677 0.58467,1.380274 1.12254,2.648088 1.19524,2.817365 0.13202,0.307418 0.13288,0.307777 0.82956,0.307777 h 0.6975 l 0.123,-0.307777 c 0.0676,-0.169277 0.21777,-0.52086 0.33368,-0.781288 0.11589,-0.26043 0.31596,-0.729199 0.44446,-1.04171 0.1285,-0.312517 0.51621,-1.242595 0.86156,-2.066784 0.34535,-0.824185 0.62777,-1.516704 0.62777,-1.538896 0,-0.02219 -0.31213,-0.04032 -0.69381,-0.04032 z m 12.39568,0.0111 c -0.13077,0.0019 -0.21195,0.0081 -0.21195,0.01833 0,0.02058 0.22907,0.523189 0.50901,1.116809 0.51021,1.081934 0.97333,2.071714 1.68685,3.605675 l 0.38214,0.821795 -0.53139,1.245169 c -0.29227,0.684825 -0.5314,1.264973 -0.5314,1.289383 0,0.02441 0.30568,0.03178 0.67918,0.01646 l 0.679,-0.02773 1.72478,-4.024802 1.7248,-4.024803 -0.66643,-0.0281 c -0.36649,-0.01546 -0.69693,0.0058 -0.73431,0.04736 -0.0373,0.0415 -0.42273,0.938428 -0.85637,1.993165 -0.43365,1.054736 -0.812,1.916529 -0.84086,1.914739 -0.0288,-0.0019 -0.44163,-0.885957 -0.91723,-1.965049 l -0.8647,-1.962087 -0.72153,-0.02774 c -0.19843,-0.0076 -0.37881,-0.01027 -0.50959,-0.0085 z m -7.81267,0.93795 c 0.73116,0.0043 1.42818,0.514043 1.59125,1.163788 l 0.0638,0.254694 h -1.66745 c -1.30499,0 -1.66763,-0.02667 -1.66763,-0.123002 0,-0.0677 0.11586,-0.30191 0.25748,-0.520298 0.29747,-0.458782 0.88393,-0.778403 1.42254,-0.775182 z m -25.933896,0.0063 c 0.602788,-0.01095 1.217666,0.291844 1.500054,0.796635 0.11655,0.208345 0.212589,0.432069 0.213448,0.49718 0.0011,0.09027 -0.39416,0.118377 -1.665781,0.118377 -1.481547,0 -1.660996,-0.01671 -1.609922,-0.14982 0.03161,-0.08238 0.05733,-0.187411 0.05733,-0.233422 0,-0.169669 0.622194,-0.785311 0.918897,-0.909283 0.185504,-0.07751 0.385036,-0.116025 0.585965,-0.119667 z m 13.315333,0.08638 c 0.570696,0 0.979299,0.180788 1.34154,0.593362 0.748533,0.85254 0.607132,2.111716 -0.3076,2.738199 -1.124747,0.770321 -2.616057,0.08029 -2.755952,-1.27514 -0.121252,-1.174828 0.617027,-2.056421 1.722012,-2.056421 z" /><text
       xml:space="preserve"
       style="font-weight:bold;font-size:7.82021px;line-height:1;font-family:Oxygen;-inkscape-font-specification:'Oxygen Bold';text-align:start;letter-spacing:0.0049765px;word-spacing:0.0266597px;writing-mode:lr-tb;direction:ltr;text-anchor:start;fill:#ffa300;fill-rule:evenodd;stroke:none;stroke-width:0.233633;stroke-linecap:round;paint-order:fill markers stroke"
       x="6.6373219"
       y="62.146763"
       id="text2"><tspan
         sodipodi:role="line"
         id="tspan2"
         style="font-style:normal;font-variant:normal;font-weight:500;font-stretch:normal;font-family:'Futura PT';-inkscape-font-specification:'Futura PT Medium';stroke:none;stroke-width:0.233633"
         x="6.6373219"
         y="62.146763">Family &amp; Friends</tspan></text></g></svg>
