<?xml version="1.0" encoding="UTF-8" standalone="no"?>
<!-- Created with Inkscape (http://www.inkscape.org/) -->

<svg
   width="800"
   height="800"
   viewBox="0 0 211.66666 211.66667"
   version="1.1"
   id="svg1"
   xml:space="preserve"
   inkscape:version="1.4 (86a8ad7, 2024-10-11)"
   sodipodi:docname="smartrecovery1.svg"
   xmlns:inkscape="http://www.inkscape.org/namespaces/inkscape"
   xmlns:sodipodi="http://sodipodi.sourceforge.net/DTD/sodipodi-0.dtd"
   xmlns="http://www.w3.org/2000/svg"
   xmlns:svg="http://www.w3.org/2000/svg"><sodipodi:namedview
     id="namedview1"
     pagecolor="#ffffff"
     bordercolor="#111111"
     borderopacity="1"
     inkscape:showpageshadow="0"
     inkscape:pageopacity="0"
     inkscape:pagecheckerboard="1"
     inkscape:deskcolor="#d1d1d1"
     inkscape:document-units="px"
     inkscape:zoom="0.55559665"
     inkscape:cx="433.76791"
     inkscape:cy="498.56312"
     inkscape:window-width="1920"
     inkscape:window-height="1115"
     inkscape:window-x="-9"
     inkscape:window-y="-9"
     inkscape:window-maximized="1"
     inkscape:current-layer="layer1" /><defs
     id="defs1" /><g
     inkscape:label="Layer 1"
     inkscape:groupmode="layer"
     id="layer1"
     transform="translate(0.30179185,1.2106874)"><path
       id="path41"
       style="fill:#ffa300;fill-opacity:1"
       d="m 136.25732,16.019051 c -0.39007,0.03198 -3.20068,0.73012 -6.53397,1.62626 -8.71793,2.34376 -9.24285,2.49704 -9.24285,2.70164 0,0.0976 2.58878,2.76824 5.75262,5.93453 3.16384,3.16629 5.82225,5.75675 5.90765,5.75675 0.0854,0 0.29232,-0.56555 0.45992,-1.25677 0.1676,-0.69122 0.65127,-2.56646 1.07487,-4.16719 2.07305,-7.83372 2.73138,-10.48796 2.62671,-10.59263 -0.004,-0.0039 -0.0189,-0.0047 -0.045,-0.0026 z m -56.426017,0.0021 c -0.02609,-0.002 -0.04146,-9.2e-4 -0.04548,0.0031 -0.06426,0.06425 0.141419,1.10429 0.457336,2.31097 2.043457,7.80521 3.538216,13.33817 3.656108,13.53457 0.134503,0.22406 11.710396,-11.1618 11.710396,-11.51816 0,-0.2093 -0.503733,-0.35697 -9.24233,-2.70629 -3.333287,-0.89614 -6.144693,-1.59352 -6.536035,-1.62419 z m 4.226615,40.35878 c -0.171386,0 -0.425538,0.50601 -0.56534,1.12448 -0.390954,1.72952 -2.895812,11.27719 -3.349149,12.76614 -0.221532,0.72761 -0.40406,1.47175 -0.40566,1.65365 -0.0049,0.56944 -0.269046,0.63066 12.961482,-3.00189 1.382448,-0.37956 2.629125,-0.79962 2.770374,-0.93327 0.28049,-0.2654 -10.870328,-11.60911 -11.411707,-11.60911 z m 47.947462,0 c -0.53153,0 -11.65568,11.35237 -11.38484,11.61841 0.14125,0.13876 2.75716,0.92536 5.81309,1.74821 3.05594,0.82286 6.27063,1.71294 7.14375,1.97766 1.66859,0.50587 2.77812,0.64872 2.77812,0.3576 0,-0.78917 -4.13147,-15.70188 -4.35012,-15.70188 z M 108.18616,124.0435 c -0.23611,0.009 -4.62434,8.15522 -4.63434,8.60257 -0.002,0.10914 2.07895,0.19844 4.62556,0.19844 2.54662,0 4.62694,-0.0893 4.62194,-0.19844 -0.0211,-0.47777 -4.38288,-8.61157 -4.61316,-8.60257 z" /><path
       style="fill:#1b7dd7;fill-opacity:1"
       d="m 105.66407,79.620511 c -1.23692,-2.19916 -2.48964,-4.42865 -2.78382,-4.95443 -0.29418,-0.52578 -2.42241,-4.26522 -4.729401,-8.30988 -4.314835,-7.56481 -4.551439,-7.87529 -7.019023,-9.21046 -4.496995,-2.43326 -22.090628,-12.60719 -22.158142,-12.81346 -0.04599,-0.1405 1.909989,-1.38554 4.346617,-2.76675 15.360461,-8.70714 20.086352,-11.44286 20.467268,-11.84807 0.236431,-0.25152 3.498318,-5.87465 7.248641,-12.49584 3.75032,-6.6212 6.90609,-12.1366295 7.01283,-12.2565095 0.10674,-0.11987 2.55098,3.92825 5.43164,8.9958395 2.88066,5.06758 6.05084,10.62712 7.04485,12.35452 0.99401,1.72739 1.80743,3.21568 1.80759,3.30729 2.4e-4,0.13388 13.67558,8.04485 19.42034,11.23437 0.74203,0.41198 1.58728,0.89947 1.87832,1.08332 0.29104,0.18384 1.24354,0.72449 2.11667,1.20145 0.87312,0.47696 1.68714,0.95827 1.80894,1.06959 0.12179,0.11131 -0.53305,0.61065 -1.45521,1.10964 -0.92216,0.49899 -2.73553,1.52448 -4.02972,2.27887 -1.29419,0.75439 -2.37734,1.37161 -2.407,1.37161 -0.0297,0 -2.23341,1.25016 -4.89722,2.77813 -2.66382,1.52797 -4.86692,2.77812 -4.89579,2.77812 -0.0289,0 -1.6915,0.9418 -3.69474,2.09289 l -3.64224,2.09288 -7.04664,12.37347 c -3.87565,6.80541 -7.16569,12.40912 -7.31122,12.45269 -0.14552,0.0436 -1.27661,-1.72009 -2.51354,-3.91925 z m 6.35899,-23.09364 c 4.54424,-1.53742 7.80789,-5.14506 8.74975,-9.67195 1.45806,-7.00797 -3.37922,-13.9605 -10.59106,-15.22233 -3.92767,-0.68722 -7.65079,0.4812 -10.751027,3.37395 -5.365363,5.0063 -5.490749,13.18683 -0.280883,18.32564 3.60521,3.55603 8.33547,4.72992 12.87322,3.19469 z"
       id="path37" /><path
       id="path36"
       style="fill:#1b7dd7;fill-opacity:1"
       d="m 108.18151,97.654901 c -0.12952,0 -4.04425,7.900839 -6.88278,13.890619 -0.62065,1.30969 -2.763077,5.71499 -4.760953,9.78958 -3.807544,7.76532 -5.426026,11.15842 -5.426026,11.37812 0,0.0722 1.815704,0.13019 4.034896,0.12919 l 4.034896,-0.002 0.617017,-1.12242 c 0.33932,-0.61726 2.34437,-4.5583 4.45554,-8.75812 2.11117,-4.19981 3.93265,-7.53356 4.04782,-7.40833 0.11517,0.12523 2.1386,4.06714 4.49636,8.76019 l 4.28708,8.53281 h 4.07882 c 2.24349,0 4.07882,-0.0445 4.07882,-0.0992 0,-0.25188 -1.59678,-3.61387 -5.52886,-11.63908 -2.34327,-4.78251 -4.26072,-8.72763 -4.26072,-8.76743 0,-0.2364 -7.15483,-14.683849 -7.27191,-14.683849 z m -76.919336,1.95698 c -0.778262,0.02578 -1.553198,0.10955 -2.316137,0.25477 -3.010587,0.573049 -4.838952,1.512369 -6.787183,3.487119 -1.949557,1.97609 -2.486702,3.31742 -2.478402,6.18826 0.0066,2.27528 0.475077,3.57651 1.852601,5.14542 1.811783,2.06351 3.084348,2.68697 9.518282,4.6638 6.433487,1.97669 7.4967,2.58362 7.4967,4.27829 0,1.4998 -2.348531,2.87084 -4.90151,2.86184 -1.081366,-0.004 -3.250009,-0.56808 -4.328418,-1.12603 -0.951285,-0.49219 -2.908084,-2.54898 -3.35225,-3.52382 -0.26458,-0.58073 -0.431804,-0.65974 -1.110527,-0.524 -1.79942,0.35989 -6.768579,2.05916 -6.768579,2.31459 0,0.78726 1.924277,3.70001 3.414262,5.16816 2.042704,2.01277 3.980372,3.16729 6.639905,3.95635 2.262114,0.67115 6.880293,0.83198 9.313643,0.32453 3.465814,-0.72275 6.984727,-3.25155 8.318872,-5.97845 1.019153,-2.08307 1.174827,-5.14511 0.369487,-7.28017 -1.061394,-2.81389 -3.538455,-4.40738 -10.196794,-6.56033 -7.737012,-2.50173 -7.626013,-2.45753 -8.052221,-3.21996 -0.543747,-0.97268 -0.141791,-2.02051 1.042313,-2.71611 0.731837,-0.42993 1.365756,-0.54007 3.041158,-0.52917 2.546478,0.0166 3.880923,0.59602 5.697327,2.47427 l 1.19941,1.23972 1.711007,-0.49351 c 6.130021,-1.76866 5.837298,-1.53051 4.478279,-3.64836 -2.745939,-4.27918 -8.353388,-6.937669 -13.801225,-6.757209 z m 55.351661,0.674899 -3.867465,0.0729 -3.867464,0.0734 -2.637048,3.83646 c -1.450447,2.11005 -3.590579,5.24816 -4.755782,6.97373 -1.165202,1.72558 -2.208582,3.03527 -2.318722,2.91042 -0.110139,-0.12485 -1.251979,-1.77467 -2.537312,-3.66644 -1.285334,-1.89177 -3.393694,-4.95763 -4.684986,-6.81302 l -2.34766,-3.37344 h -3.821989 -3.821989 v 16.27187 16.27188 h 4.101042 4.101041 v -9.01134 c 0,-5.51403 0.09636,-8.95229 0.24753,-8.85889 0.13588,0.084 1.206648,1.48988 2.3797,3.12436 1.173051,1.63448 3.032983,4.22207 4.133081,5.75004 1.100098,1.52797 2.160752,2.77812 2.356962,2.77812 0.196211,0 1.052881,-0.96422 1.90376,-2.14302 0.850879,-1.1788 2.856363,-3.93083 4.457092,-6.11539 l 2.910417,-3.97185 0.06976,9.22424 0.06976,9.22373 h 3.965133 3.965133 v -16.27911 z m 43.656245,0.014 v 16.27187 16.27188 h 3.96875 3.96875 v -5.29167 -5.29166 l 2.57969,5.1e-4 2.57969,5.2e-4 1.30586,2.05 c 0.71815,1.12751 2.25718,3.50852 3.41995,5.29115 l 2.11408,3.24115 h 4.5992 c 3.60787,0 4.5574,-0.0713 4.40335,-0.33073 -0.10801,-0.1819 -1.77213,-2.67746 -3.69796,-5.54591 -1.92583,-2.86845 -3.57144,-5.32921 -3.65714,-5.46789 -0.0857,-0.13868 0.29106,-0.51852 0.83767,-0.84439 0.54661,-0.32586 1.5057,-1.08031 2.13114,-1.67638 4.9957,-4.76109 4.00827,-13.19477 -1.99575,-17.04754 -2.33297,-1.49706 -3.43939,-1.63091 -13.48444,-1.63091 z m 31.75,0 v 3.57187 3.57188 h 5.15938 5.15937 v 12.7 12.7 h 3.96875 3.96875 v -12.7 -12.7 h 5.15938 5.15937 v -3.57188 -3.57187 h -14.2875 z m -23.8125,7.14375 h 4.51136 c 4.94615,0 5.45964,0.12188 6.69158,1.58595 1.49926,1.78177 0.95505,4.48484 -1.1157,5.54126 -0.95709,0.48831 -1.54605,0.54571 -5.57847,0.54571 h -4.50877 v -3.83646 z" /><path
       id="path30"
       style="fill:#1b7dd7;fill-opacity:1"
       d="m 35.813835,142.32142 v 11.26908 11.26856 h 1.852083 1.852083 v -4.10104 -4.10104 h 2.622579 2.622062 l 2.701644,4.10104 2.701644,4.10104 h 2.113049 c 1.734294,0 2.086286,-0.0684 1.965772,-0.3824 -0.08075,-0.21043 -1.33788,-2.16365 -2.793628,-4.34031 -2.490196,-3.72337 -2.611597,-3.96642 -2.048454,-4.10776 1.046619,-0.26269 2.756948,-1.69125 3.458704,-2.88871 0.8156,-1.39172 1.132207,-3.81026 0.705383,-5.38778 -0.48392,-1.78853 -1.838498,-3.52205 -3.465421,-4.43436 l -1.455209,-0.81597 -6.416146,-0.0899 z m 3.704166,3.48764 h 3.849895 c 4.140974,0 4.714572,0.14043 5.939689,1.45159 0.550897,0.58959 0.661458,0.9689 0.661458,2.26963 0,1.45284 -0.06939,1.63141 -0.995805,2.5585 l -0.995805,0.99632 -4.229716,0.0842 -4.229716,0.0847 v -3.72277 z m 24.425383,2.35386 c -1.954043,0.0387 -3.914452,0.73428 -5.457548,2.14458 -2.046379,1.87028 -2.681943,3.41848 -2.660303,6.48177 0.01846,2.61391 0.480392,4.05228 1.807642,5.62963 0.833722,0.99082 2.708783,2.15941 3.933093,2.45102 1.064529,0.25354 3.713713,0.29752 5.010547,0.0832 1.431956,-0.23667 3.603389,-1.62906 4.614705,-2.95899 0.478898,-0.62978 0.870231,-1.24111 0.870231,-1.35857 0,-0.22436 -2.350902,-1.06815 -2.976045,-1.06815 -0.199952,0 -0.635761,0.36809 -0.968417,0.81803 -0.772033,1.04423 -2.022998,1.56322 -3.768245,1.56322 -2.379044,0 -4.385398,-1.34288 -4.865853,-3.25717 L 59.30439,157.9799 h 6.357752 6.357751 l 0.165365,-0.75345 c 0.256684,-1.16867 -0.294566,-3.93551 -1.036629,-5.20175 -1.506901,-2.57132 -4.349336,-3.91835 -7.205245,-3.86178 z m 72.519086,0.0656 c -3.13109,-0.0634 -5.69363,1.26847 -7.20834,3.76773 -2.93558,4.8437 -0.8371,11.15115 4.23695,12.73463 1.37666,0.42962 4.47617,0.49365 5.82186,0.11989 1.43578,-0.39878 3.39868,-1.81892 4.30413,-3.11403 0.91365,-1.30685 0.84,-1.42082 -1.23558,-1.91874 -1.23913,-0.29726 -1.26352,-0.29044 -1.97404,0.55397 -0.92458,1.09879 -2.09366,1.57665 -3.85506,1.57665 -1.91584,0 -3.58098,-0.85929 -4.35839,-2.24896 -0.32562,-0.58208 -0.59435,-1.2051 -0.59635,-1.38441 -0.003,-0.24755 1.53978,-0.34308 6.4115,-0.39688 l 6.41614,-0.0708 v -1.71979 c -10e-4,-4.39678 -2.91353,-7.5231 -7.32927,-7.86825 -0.21365,-0.0167 -0.42481,-0.0268 -0.63355,-0.031 z m -53.685094,0.0956 c -2.819054,0.002 -4.236642,0.53092 -5.915401,2.20968 -1.64931,1.64931 -2.226296,2.9929 -2.364197,5.50457 -0.171989,3.13258 0.406415,4.81093 2.313554,6.71587 1.005064,1.00391 1.885682,1.60873 2.791044,1.91668 1.888732,0.64245 5.683299,0.4948 7.173723,-0.27905 1.304327,-0.67723 3.427987,-2.96291 3.60288,-3.8778 0.113565,-0.59408 0.01153,-0.67935 -1.092956,-0.91622 -0.669949,-0.14368 -1.414547,-0.33672 -1.654679,-0.42892 -0.302369,-0.11603 -0.574049,0.0657 -0.884184,0.59066 -0.957798,1.62143 -3.191717,2.45441 -5.159892,1.92443 -3.30271,-0.88932 -4.754771,-5.13363 -2.744535,-8.02225 1.892088,-2.71884 5.832759,-2.81378 7.735962,-0.18655 l 0.696598,0.9617 1.63866,-0.48214 c 1.633387,-0.48103 1.637036,-0.48501 1.373042,-1.2423 -0.444351,-1.27467 -2.018442,-2.86291 -3.613732,-3.64629 -1.320538,-0.6485 -1.819659,-0.74307 -3.895887,-0.74207 z m 18.256254,0.003 c -2.079477,-0.004 -2.572775,0.09 -3.895373,0.73949 -0.832997,0.40905 -1.927105,1.22532 -2.43086,1.81384 -1.520442,1.7763 -1.856863,2.72827 -1.96112,5.54488 -0.08554,2.31092 -0.02989,2.68185 0.604097,4.02198 0.857858,1.81337 2.813149,3.63205 4.552694,4.23488 0.938189,0.32511 1.919456,0.41824 3.684532,0.34934 2.03751,-0.0796 2.61815,-0.20925 3.78891,-0.84646 2.62548,-1.42896 3.97151,-3.59129 4.18631,-6.72518 0.19628,-2.86366 -0.34992,-4.58401 -2.04328,-6.43681 -1.86772,-2.04358 -3.42466,-2.69096 -6.48591,-2.69596 z m 54.22666,0.12816 c -1.26897,0 -2.5023,0.49421 -3.49281,1.39991 l -0.59531,0.54467 v -0.84026 -0.83974 h -1.85209 -1.85208 v 7.89357 c 0,4.34138 0.0797,7.9728 0.17673,8.0698 0.097,0.097 0.92113,0.17621 1.83142,0.17621 h 1.65519 l 0.0868,-4.96093 c 0.0796,-4.55116 0.13625,-5.05314 0.68471,-6.07974 0.71643,-1.34096 1.73328,-1.92391 3.35742,-1.92391 h 1.20354 v -1.71979 -1.71979 z m -31.7779,0.26458 -1.94821,4.82865 c -1.07136,2.65575 -2.14349,5.27373 -2.3828,5.81773 l -0.43511,0.98909 -0.57774,-1.25367 c -0.31775,-0.68953 -1.3864,-3.27774 -2.37454,-5.75159 l -1.79627,-4.49792 -2.05775,-0.0775 c -1.1318,-0.0427 -2.00127,0.0168 -1.93167,0.13229 0.0696,0.11549 1.46348,3.36496 3.09697,7.22126 1.63348,3.85631 3.13622,7.39842 3.33933,7.87136 0.36886,0.85889 0.37127,0.85989 2.31769,0.85989 h 1.94872 l 0.34364,-0.85989 c 0.18895,-0.47294 0.60843,-1.45522 0.93225,-2.18282 0.32382,-0.72761 0.88278,-2.03729 1.24178,-2.91041 0.35901,-0.87313 1.44221,-3.47165 2.40709,-5.77433 0.96489,-2.30267 1.7539,-4.23748 1.7539,-4.29948 0,-0.062 -0.87204,-0.11265 -1.93839,-0.11265 z m 34.63199,0.031 c -0.36537,0.005 -0.59221,0.0224 -0.59221,0.0512 0,0.0575 0.64002,1.46172 1.42213,3.12022 1.42548,3.02279 2.71937,5.78811 4.71289,10.0738 l 1.06764,2.29599 -1.48466,3.47885 c -0.81657,1.91331 -1.48467,3.53417 -1.48467,3.60237 0,0.0682 0.85404,0.0888 1.89756,0.046 l 1.89704,-0.0775 4.81883,-11.24479 4.81883,-11.24479 -1.86191,-0.0785 c -1.02392,-0.0432 -1.94712,0.0163 -2.05155,0.1323 -0.10444,0.11597 -1.18108,2.62185 -2.39262,5.56865 -1.21154,2.9468 -2.26861,5.35454 -2.34921,5.34954 -0.0806,-0.005 -1.23386,-2.47525 -2.56263,-5.4901 l -2.41588,-5.48184 -2.01589,-0.0775 c -0.55435,-0.0212 -1.05832,-0.0287 -1.42369,-0.0238 z m -21.82761,2.62051 c 2.04277,0.0119 3.99012,1.43617 4.44573,3.25148 l 0.17828,0.71158 h -4.65863 c -3.64598,0 -4.65915,-0.0745 -4.65915,-0.34365 0,-0.18915 0.32371,-0.8435 0.71934,-1.45365 0.83112,-1.28178 2.46961,-2.17476 3.97443,-2.16576 z m -72.456041,0.0176 c 1.684111,-0.0306 3.402002,0.81538 4.190959,2.2257 0.325627,0.58209 0.593946,1.20715 0.596346,1.38906 0.0033,0.25222 -1.101235,0.33073 -4.65398,0.33073 -4.139255,0 -4.640614,-0.0467 -4.497916,-0.41858 0.08833,-0.23018 0.160197,-0.5236 0.160197,-0.65215 0,-0.47403 1.738331,-2.19406 2.567285,-2.54042 0.518273,-0.21655 1.075739,-0.32416 1.637109,-0.33434 z m 37.201351,0.24133 c 1.59445,0 2.73603,0.5051 3.74809,1.65778 2.09133,2.38189 1.69626,5.89987 -0.85938,7.65018 -3.14241,2.15218 -7.308945,0.22434 -7.69979,-3.56258 -0.338765,-3.28232 1.723892,-5.74538 4.81108,-5.74538 z" /><path
       id="path22"
       style="fill:#ffa300;fill-opacity:1"
       d="m 45.603418,185.99679 v 5.79861 c 0,3.18912 -0.07541,6.35078 -0.167948,7.02593 l -0.168466,1.22732 h 1.226799 c 0.952734,0 1.226282,-0.0955 1.226282,-0.42737 0,-0.38461 0.06091,-0.38758 0.606681,-0.03 0.333487,0.21851 0.839503,0.45677 1.124479,0.52917 v -5.2e-4 c 2.573774,0.65378 4.837697,-0.87329 5.414657,-3.65249 0.312604,-1.50581 0.01218,-3.48752 -0.692465,-4.56768 -0.978805,-1.50044 -3.469147,-2.10299 -5.133536,-1.2423 l -0.770496,0.39842 -0.07596,-2.44894 -0.07648,-2.44895 -1.256771,-0.0806 z m 93.662502,0 -1.25677,0.0806 -1.25677,0.0806 -0.0765,2.33939 c -0.0688,2.09587 -0.12389,2.31803 -0.52917,2.13424 -0.24881,-0.11284 -1.04799,-0.25171 -1.7756,-0.30851 -1.05703,-0.0825 -1.50904,0.0206 -2.24896,0.51367 -3.00283,2.00104 -2.75379,7.71464 0.39687,9.10538 1.13642,0.50162 2.24225,0.44981 3.37654,-0.15813 1.18311,-0.63409 1.25367,-0.64155 1.25367,-0.13229 0,0.29557 0.31235,0.39688 1.2237,0.39688 h 1.2237 l -0.16537,-0.82683 c -0.091,-0.45475 -0.16536,-3.6164 -0.16536,-7.02592 z m 12.17135,0 -1.25677,0.0806 -1.25677,0.0806 -0.0765,2.45567 -0.076,2.45514 -0.57826,-0.40462 c -0.87742,-0.61457 -2.86208,-0.51801 -3.9026,0.19017 -1.29655,0.88242 -1.84074,1.76733 -2.02055,3.28558 -0.3425,2.89183 0.51205,4.95663 2.40709,5.81567 h 5.1e-4 c 0.97233,0.44077 2.78949,0.27996 3.71916,-0.32918 0.60506,-0.39667 0.65939,-0.39724 0.65939,-0.005 0,0.33771 0.28411,0.42737 1.35392,0.42737 1.27484,0 1.34447,-0.0347 1.19424,-0.59532 -0.0877,-0.32742 -0.16129,-3.48907 -0.16329,-7.02592 z m -123.296352,0.0289 -1.389063,0.001 c -2.365016,0.002 -3.902604,1.45754 -3.902604,3.69487 0,0.67934 -0.101336,0.80202 -0.661458,0.80202 -0.579568,0 -0.661458,0.11465 -0.661458,0.92604 0,0.81139 0.08189,0.92604 0.661458,0.92604 h 0.661458 v 3.83646 3.83646 h 1.322917 1.322917 v -3.83646 -3.83646 h 1.058333 c 1.033133,0 1.058333,-0.0221 1.058333,-0.92604 0,-0.90394 -0.0252,-0.92604 -1.058333,-0.92604 -0.986724,0 -1.058333,-0.0511 -1.058333,-0.75293 0,-1.05021 0.828983,-1.74014 1.845365,-1.53686 0.796031,0.15921 0.800468,0.1526 0.800468,-1.02422 z m 80.697912,0 v 2.49804 2.49752 l -0.7276,-0.3793 c -1.02516,-0.53477 -2.55389,-0.47414 -3.77703,0.14986 -1.47457,0.75227 -2.2226,2.26457 -2.2226,4.4943 0,2.53177 1.08176,4.3382 2.90215,4.84725 0.99403,0.27797 2.85588,-0.0762 3.47937,-0.66198 l 0.6103,-0.57309 v 0.57516 c 0,0.50539 0.14457,0.57516 1.19062,0.57516 h 1.19063 v -7.01146 -7.01146 h -1.32292 z m 47.27981,0.53899 c -0.34086,-0.002 -0.67441,0.06 -0.87592,0.19275 -0.56761,0.37393 -0.69021,1.38684 -0.2496,2.0593 0.45133,0.68881 1.17815,0.82384 2.01745,0.37466 0.58664,-0.31396 0.71133,-1.8017 0.1943,-2.31872 -0.19744,-0.19745 -0.64799,-0.30554 -1.08623,-0.30799 z m -138.388456,10e-4 c -0.362124,0 -0.705546,0.0994 -0.913123,0.30696 -0.449456,0.44945 -0.393604,1.6844 0.09819,2.17661 0.527006,0.52711 1.158176,0.52852 1.90686,0.004 0.696321,-0.48773 0.759616,-1.34109 0.149862,-2.01486 -0.279713,-0.30908 -0.776197,-0.47284 -1.241785,-0.47284 z m 161.924486,0 c -0.36213,0 -0.70503,0.0994 -0.91261,0.30696 -0.44943,0.44945 -0.3936,1.6844 0.0982,2.17661 0.52701,0.52711 1.15766,0.52852 1.90634,0.004 0.69633,-0.48773 0.76013,-1.34109 0.15038,-2.01486 -0.27972,-0.30908 -0.77672,-0.47284 -1.2423,-0.47284 z m -173.4741687,0.2538 v 6.61458 6.61459 h 3.9687497 3.96875 v -1.19063 -1.19062 H 11.472168 8.8263346 v -5.42396 -5.42396 H 7.503418 Z m 167.4812487,1.01182 -1.12448,0.18604 c -1.50386,0.24884 -1.52135,0.26564 -1.52135,1.46348 0,0.93584 -0.0678,1.04283 -0.66146,1.04283 -0.57955,0 -0.66146,0.11465 -0.66146,0.92604 0,0.80025 0.0861,0.92604 0.63304,0.92604 0.62498,0 0.63435,0.0379 0.72915,3.02514 0.10475,3.29987 0.50017,4.30738 1.8371,4.68137 0.84946,0.23758 1.5688,0.25757 2.29082,0.0641 0.48777,-0.13072 0.59531,-0.34514 0.59531,-1.18701 0,-0.96257 -0.0496,-1.02733 -0.78445,-1.02733 -1.08593,0 -1.33222,-0.60804 -1.33222,-3.28972 v -2.26653 h 1.19063 c 1.18463,0 1.19062,-0.005 1.19062,-0.92604 0,-0.92104 -0.006,-0.92604 -1.19062,-0.92604 h -1.19063 v -1.34617 z m 27.96522,2.42311 c -1.16536,-0.004 -2.37767,0.43941 -2.89181,1.17978 -0.10844,0.15612 -0.19644,0.0168 -0.19844,-0.31523 -0.004,-0.52861 -0.13762,-0.59531 -1.19476,-0.59531 h -1.19063 v 4.7625 4.7625 h 1.32292 1.32292 v -2.76108 c 0,-1.5185 0.11418,-3.05996 0.25321,-3.42563 0.32647,-0.8587 1.3263,-1.508 2.03605,-1.3224 0.89148,0.23313 1.15032,1.24226 1.15032,4.4788 v 3.03031 h 1.32292 1.32291 v -3.60185 c 0,-3.18306 -0.0651,-3.71827 -0.56223,-4.60282 -0.30942,-0.55053 -0.85075,-1.13244 -1.20303,-1.29294 -0.44035,-0.20064 -0.96064,-0.2949 -1.49035,-0.29663 z m -105.698975,0.002 c -0.739939,-0.009 -1.509641,0.16662 -2.104265,0.52917 -0.701636,0.4278 -0.859895,0.45243 -0.859895,0.13177 0,-0.28937 -0.313917,-0.39325 -1.190625,-0.39325 h -1.190625 v 4.7625 4.7625 h 1.322916 1.322917 v -2.89802 c 0,-1.59388 0.132472,-3.18782 0.294039,-3.54242 0.387367,-0.85018 1.420463,-1.32506 2.096513,-0.96325 0.874521,0.46803 1.049031,1.19145 1.049031,4.34341 v 3.06028 h 1.322917 1.322917 v -3.44785 c 0,-3.80652 -0.256971,-4.82275 -1.458826,-5.76813 -0.476898,-0.37511 -1.187076,-0.56802 -1.927014,-0.57671 z m -62.300073,0.003 c -1.630032,0 -3.003295,0.72894 -3.887102,2.06293 -0.906522,1.36829 -0.957319,4.49387 -0.0956,5.87457 0.554233,0.88804 1.739352,1.69091 2.861324,1.93839 1.205986,0.26602 4.117343,-0.0142 4.540291,-0.43719 0.08446,-0.0845 0.07672,-0.56262 -0.01705,-1.06246 l -0.170015,-0.90848 -1.118278,0.25477 c -1.468683,0.3351 -2.766451,0.1097 -3.537252,-0.61443 -1.194594,-1.12226 -0.884702,-1.28726 2.418974,-1.28726 h 3.042708 v -1.38907 c -7.97e-4,-2.69335 -1.584999,-4.43177 -4.037996,-4.43177 z m 28.177091,0 c -2.308643,0 -3.925292,1.30717 -4.558378,3.68557 -0.75424,2.83354 0.639111,5.463 3.246313,6.12624 0.836929,0.2129 3.1437,0.11056 4.354257,-0.19327 0.544182,-0.13658 0.593532,-0.26132 0.439249,-1.1157 -0.09554,-0.52906 -0.190853,-0.98517 -0.211873,-1.01337 -0.02102,-0.0282 -0.570733,0.0685 -1.221631,0.21497 -0.650897,0.1465 -1.584057,0.19124 -2.073258,0.0997 -0.880817,-0.16483 -2.153357,-1.17349 -2.153357,-1.70687 0,-0.17721 1.152974,-0.27647 3.208073,-0.27647 h 3.207556 l -0.116789,-1.41284 c -0.231069,-2.78639 -1.746902,-4.408 -4.120162,-4.408 z m 21.458639,0.003 c -0.871833,-0.0139 -1.7495,0.15906 -2.458765,0.5209 -3.582323,1.82757 -3.331551,7.78866 0.384989,9.14982 2.40118,0.87942 5.091695,-0.0957 6.256466,-2.26756 1.177547,-2.19567 0.281013,-5.66379 -1.758549,-6.80475 -0.686454,-0.38402 -1.552309,-0.58456 -2.424141,-0.59841 z m 104.793088,0.0253 c -0.78912,0.0192 -1.16814,0.19071 -1.97818,0.71107 -0.73026,0.4691 -1.39653,1.16993 -1.68051,1.76836 -0.65037,1.37059 -0.61948,3.73174 0.0661,5.07566 0.64216,1.25875 1.04629,1.61991 2.35852,2.10788 1.49733,0.5568 3.67925,0.2601 4.83071,-0.6568 1.29688,-1.03269 1.85159,-2.2549 1.85208,-4.08347 8.2e-4,-3.04745 -1.55524,-4.74456 -4.49171,-4.89841 -0.3852,-0.0202 -0.69401,-0.0307 -0.95705,-0.0243 z m -64.53146,0.008 c -0.20233,0.003 -0.41442,0.0123 -0.63717,0.0274 -0.96015,0.0652 -2.0641,0.24941 -2.45308,0.40979 -0.6699,0.27622 -0.69178,0.34205 -0.41548,1.2423 0.22109,0.72042 0.39197,0.90468 0.70693,0.76119 0.22855,-0.10412 0.98829,-0.23967 1.68827,-0.30127 0.95679,-0.0842 1.40007,0.003 1.78594,0.35243 0.77132,0.69804 0.62932,0.91126 -0.61133,0.91726 -1.48844,0.008 -3.15095,0.79156 -3.89434,1.83555 -0.48024,0.67449 -0.57455,1.08203 -0.46819,2.02571 0.13769,1.22151 0.73226,2.12168 1.65055,2.49753 h 5.1e-4 c 0.89976,0.36827 2.09354,0.27227 3.11919,-0.25063 0.77573,-0.3955 0.98185,-0.42328 0.98185,-0.1323 0,0.26018 0.34966,0.36846 1.19063,0.36846 h 1.19062 l -0.006,-3.37344 c -0.009,-4.99189 -0.79387,-6.42037 -3.8287,-6.37997 z m 41.85894,0.0103 c -1.93538,-0.006 -3.46359,0.70321 -4.34082,2.02365 -1.77988,2.67916 -0.67251,6.56495 2.16731,7.60522 h 5.2e-4 c 1.11953,0.4101 3.996,0.32466 4.45295,-0.13229 0.1337,-0.13375 0.16742,-0.6485 0.0744,-1.14412 l -0.1695,-0.90123 -1.44797,0.11989 c -1.7851,0.14803 -2.64059,-0.33199 -3.01636,-1.69292 -0.37091,-1.3433 -0.0932,-2.38168 0.84956,-3.175 0.78031,-0.65658 1.65955,-0.75571 3.08302,-0.34727 0.42359,0.12154 1.05006,-1.71514 0.70332,-2.06189 -0.10596,-0.10596 -0.98978,-0.23329 -1.96423,-0.28319 -0.13257,-0.007 -0.26319,-0.0104 -0.39222,-0.0109 z m -88.298486,0.19172 -1.507401,0.0791 -1.507919,0.0796 -0.733805,2.51354 c -0.403626,1.38245 -0.73629,2.7455 -0.73949,3.02927 -0.01018,0.90849 -0.398492,0.0884 -1.338936,-2.8298 l -0.916223,-2.84272 -1.536857,-0.001 c -0.845333,-7.1e-4 -1.47849,0.0928 -1.40715,0.20825 0.102863,0.16643 1.91381,4.72077 3.361552,8.45427 0.183826,0.47406 0.0704,0.77585 -0.559656,1.49345 -0.434275,0.49461 -1.087404,0.97365 -1.451591,1.06505 -0.679605,0.17057 -0.69371,0.30881 -0.21549,2.07274 0.418224,1.54263 3.72647,-1.02817 4.979541,-3.86953 0.328906,-0.7458 1.138389,-2.84427 1.799373,-4.66328 0.660984,-1.81901 1.330904,-3.64092 1.488281,-4.04834 z m -60.586483,0.0264 v 4.7625 4.7625 h 1.455209 1.455208 v -4.7625 -4.7625 H 17.95446 Z m 138.377079,0 v 4.7625 4.7625 h 1.32292 1.32292 v -4.7625 -4.7625 h -1.32292 z m 23.54792,0 v 4.77645 l 5.2e-4,4.77645 1.38906,-0.0801 1.38906,-0.0801 0.0718,-4.69635 0.0724,-4.69635 h -1.46141 z m -116.869351,1.5875 c 0.613565,0 1.775602,1.05149 1.775602,1.60662 0,0.45496 -0.199637,0.51004 -1.852083,0.51004 -1.146528,0 -1.852083,-0.10834 -1.852083,-0.28473 0,-0.4207 1.485681,-1.83193 1.928564,-1.83193 z m -28.086141,0.12505 c 0.728218,0.004 1.417081,0.49749 1.678451,1.3963 0.167943,0.57751 0.117534,0.59531 -1.696538,0.59531 -2.027038,0 -2.289774,-0.23901 -1.407149,-1.28209 0.410074,-0.48462 0.926982,-0.71192 1.425236,-0.70952 z m 101.535922,0.12454 c 0.36102,0.0222 0.72774,0.18565 1.07074,0.52865 0.69384,0.69383 0.77844,3.53274 0.1328,4.45451 -0.287,0.40975 -0.66804,0.58201 -1.25677,0.56741 -1.18054,-0.0292 -1.46128,-0.18387 -1.90841,-1.04852 -1.05849,-2.04689 0.39724,-4.5984 1.96164,-4.50205 z m -28.14609,0.003 c 0.43763,0.009 0.89499,0.22527 1.33119,0.66146 0.87265,0.87265 0.92725,3.15886 0.10077,4.20956 -0.74955,0.95294 -2.11357,0.96402 -2.85357,0.0233 -0.79059,-1.00507 -0.91834,-2.00867 -0.41548,-3.26543 0.43262,-1.08122 1.10771,-1.64331 1.83709,-1.62885 z m -23.698808,0.009 c 0.867953,0.007 1.736148,0.67793 1.985408,2.0066 0.225979,1.20457 -0.263428,2.90961 -0.978751,3.41064 -1.779163,1.24618 -3.499386,-0.73447 -2.991032,-3.44423 0.248467,-1.32446 1.116422,-1.98038 1.984375,-1.97301 z m 63.984208,0.0171 c 0.96266,0.0363 1.64693,1.11435 1.64693,2.93212 0,1.19904 -0.1203,1.67214 -0.52917,2.08101 -0.71317,0.71314 -2.14522,0.69885 -2.80293,-0.0279 -0.3774,-0.41703 -0.50436,-0.95439 -0.50436,-2.13941 0,-1.40602 0.0831,-1.65376 0.74259,-2.22105 0.5145,-0.44255 1.00937,-0.64126 1.44694,-0.62477 z m -96.990462,0.0119 c 0.484847,-0.007 0.939613,0.26479 1.408183,0.82165 0.624394,0.74205 0.698808,1.02225 0.597379,2.24534 -0.0701,0.84536 -0.306419,1.60747 -0.598413,1.93012 -0.32205,0.35586 -0.816308,0.5333 -1.485181,0.5333 -1.374754,0 -1.826245,-0.69656 -1.826245,-2.81792 0,-1.45844 0.07832,-1.70289 0.697632,-2.19004 0.43438,-0.34169 0.829542,-0.51669 1.206645,-0.52245 z m 138.535732,0.002 c 0.86034,0.0127 1.74218,0.68283 2.07326,2.00194 0.24674,0.9831 -0.14623,2.47167 -0.83406,3.1595 -0.77408,0.77411 -1.4294,0.79996 -2.33009,0.0915 -0.78196,-0.61505 -1.11664,-1.91153 -0.85421,-3.31039 0.24586,-1.31056 1.08476,-1.95526 1.9451,-1.94252 z m -64.62396,3.14761 c 0.54474,0 0.64853,0.12753 0.64853,0.79375 0,0.44097 -0.23518,1.02894 -0.52916,1.32292 -1.02961,1.0296 -2.61082,0.42273 -2.28462,-0.87695 0.17038,-0.67886 1.14982,-1.23972 2.16525,-1.23972 z" /></g></svg>
