<svg xmlns="http://www.w3.org/2000/svg" width="500" height="120" viewBox="0 0 132.3 31.8">
  <g transform="matrix(.84282 0 0 .84282 24.945 -23.484)">
    <path d="M-1.4 33.6a38.8 38.8 0 0 0-5.8 1.6 52 52 0 0 0 4.3 4.4l.2-.5a106.8 106.8 0 0 1 1.3-5.5zm-20.8 0 .1.9 1.4 5s4.3-4.1 4.3-4.3l-3.4-1-2.4-.6zM39.2 46l-2 3.8a49.1 49.1 0 0 0 4 0l-2-3.8zm-59.9 2.7-.2.4a176.7 176.7 0 0 1-1.4 5.3c0 .2 0 .2 4.8-1.1l1-.3c.2-.1-4-4.3-4.2-4.3zm17.8 0a43 43 0 0 0-4.3 4.3l2.2.6a146.7 146.7 0 0 1 3.7.9L-3 48.6zM23 56.4v5.7h1v-5.7h-1zm34.4 0v2.8c-.3-.4-.6-.5-1.1-.5-.5 0-1 .1-1.2.5-.3.3-.5.7-.5 1.2 0 .6.2 1 .5 1.3.3.4.7.6 1.2.6s.8-.2 1-.6v.4h1v-5.7h-1zm-35.8.4-.4.1-.2.4c0 .2 0 .3.2.4l.4.2c.2 0 .3 0 .4-.2a.6.6 0 0 0 0-.8.5.5 0 0 0-.4-.1zm23.5 0-.4.1-.2.4.2.4.4.2c.1 0 .3 0 .4-.2a.6.6 0 0 0 0-.8.5.5 0 0 0-.4-.1zm-12 0c-.5 0-.9.1-1.1.4-.3.3-.4.6-.4 1 0 .3.2.7.5 1l-.4.2c-.5.4-.8.8-.8 1.4 0 .4.1.7.4 1 .3.3.7.5 1.2.5.6 0 1.2-.3 1.7-.7l.5.5H36L34.9 61h.1l.6-.7-.6-.6-.7.7-.8-1h.2c.5-.4.7-.8.7-1.2 0-.4 0-.7-.3-1-.3-.2-.6-.3-1-.3zM7.1 57v5.2h1v-2.3H10V59H8.2v-1.2H10V57H7.2zm31.3 0v5.2h1v-2.3H41V59h-1.6v-1.2h1.7V57h-2.7zm-5.4.6.4.2v.4c0 .2 0 .4-.3.5l-.2.2-.2-.3c-.2-.2-.2-.3-.2-.5v-.3l.5-.2zM12 58.7c-.5 0-1 .1-1.2.5-.3.3-.5.7-.5 1.2 0 .6.2 1 .5 1.3.3.4.7.6 1.2.6s.8-.2 1-.6v.4h1v-3.3h-1v.4c-.2-.4-.5-.5-1-.5zm5 0c-.5 0-.8.1-1.1.4v-.3h-1V62h1v-1.7l.1-.6c.1-.2.3-.3.6-.3l.3.1.2.7v1.8h1v-2.3l.6-.3.4.1.2.7v1.8h1v-2l-.1-.6-.2-.4a1 1 0 0 0-1-.4c-.4 0-.8.2-1 .6-.2-.4-.6-.6-1-.6zm26.8 0a1 1 0 0 0-.6.1c-.2 0-.3.2-.4.5v-.5h-1V62h1v-1.6c0-.3 0-.6.2-.7.1-.2.3-.3.6-.3l.4.1.2-.9h-.4zm4.3 0c-.5 0-1 .1-1.2.4-.4.4-.6.8-.6 1.4 0 .5.2 1 .6 1.3.3.3.7.5 1.3.5.2 0 .5 0 .7-.2.2 0 .4-.2.5-.3l.3-.3.1-.3-.8-.1c-.2.3-.5.4-.8.4a.8.8 0 0 1-.7-.3 1 1 0 0 1-.2-.6H50c0-.6-.2-1-.5-1.4-.3-.4-.7-.5-1.3-.5zm4.5 0c-.4 0-.8.1-1 .5v-.4h-1V62h1v-1.7l.1-.6c.1-.2.3-.3.6-.3l.4.1.2.7v1.8h1v-2c0-.5-.1-.8-.3-1-.2-.3-.6-.4-1-.4zm7.9 0c-.4 0-.7 0-1 .2a1 1 0 0 0-.3.8l.3.6c.1.2.4.3.7.4h.2l.3.4v.3l-.4.1c-.3 0-.6-.1-.8-.4l-.5.6c.4.4.8.6 1.3.6.4 0 .8-.2 1-.4.3-.2.4-.5.4-.9l-.1-.5c-.2-.2-.5-.4-1-.5h-.1c-.2-.1-.3-.3-.3-.4v-.2h.3c.2 0 .4 0 .6.2l.5-.6c-.4-.2-.7-.3-1.1-.3zm-39.4 0v3.4h1v-3.3h-1zm3.3 0 1.6 3-1.2 2.2h1l2.8-5.1h-1l-1 1.9-1-2h-1.2zm20.2 0v3.4h1v-3.3h-1zm3.5.6c.2 0 .4 0 .6.2l.3.5h-1.6c0-.2 0-.4.2-.5l.5-.2zm-35.9.2c.3 0 .5 0 .7.3l.3.6c0 .3-.1.6-.3.7-.2.2-.4.3-.7.3-.2 0-.5 0-.6-.3a1 1 0 0 1-.3-.7c0-.2 0-.4.3-.6.1-.2.4-.3.6-.3zm44.3 0c.3 0 .5 0 .7.3l.3.6c0 .3-.1.6-.3.7-.2.2-.4.3-.7.3s-.5 0-.6-.3a1 1 0 0 1-.3-.7c0-.2 0-.4.3-.6.1-.2.4-.3.6-.3zm-23.9.3 1 1.1c-.3.3-.6.5-1 .5-.2 0-.3 0-.5-.2a.6.6 0 0 1-.2-.5c0-.4.2-.7.7-1z" style="fill:#ffa300;stroke-width:.36964"/>
    <path d="M-11.8 29.6a311.4 311.4 0 0 0-5.3 9.1 151.9 151.9 0 0 1-9.1 5.4l8.1 4.8c1 .4 1 .6 2.6 3.4a1282.1 1282.1 0 0 1 3.7 6.3L-9 54l2.6-4.6 1.3-.7a64.3 64.3 0 0 1 5-2.9 27.2 27.2 0 0 0 3-1.7l-.8-.4a21.8 21.8 0 0 1-1.4-.9l-7.2-4.1-.7-1.2a1522.8 1522.8 0 0 1-4.6-8zm51 7-6.3 13 1.4.1h1.5l1.7-3.3 1.7-3.4 1.7 3.4 1.7 3.3h3l-6.4-13.1zm-28.8.7-1 .1c-1.1.2-2 .7-2.7 1.5a3 3 0 0 0-.6 1.1l-.1.8c0 .6 0 .9.2 1.3.2.7 1 1.4 1.8 1.8l2.6.8c1.6.5 2 .7 2.2 1l.3.6c0 .4-.5.8-1 1h-1.5a3.2 3.2 0 0 1-2.5-1.9l-2.7.8.4 1a6 6 0 0 0 2.5 2.2l1.8.5h2a5 5 0 0 0 3-1.4 3.4 3.4 0 0 0 .7-3.7c-.2-.6-.8-1.1-1.7-1.6-.5-.2-.8-.4-2.8-1a66 66 0 0 1-2.3-1v-.7c.1-.2.4-.5.9-.6H11c.8.2 1.6.7 2 1.3v.1l1.3-.4 1.3-.3V40l-1-1.1a5.9 5.9 0 0 0-4.3-1.7zm7.8.3v12.1H21v-7l1.7 2.4 1.8 2.3 1.8-2.3 1.7-2.4v7H31V37.6h-2.7l-1.9 2.6-1.8 2.7-1.8-2.7-1.9-2.6h-2.7zm29.3 0v12.1h2.9v-4h2l1.3 2 1.3 2h3.4l-1.5-2.2-1.4-2.1.3-.2a4 4 0 0 0 2-4.2l-.2-1a4.5 4.5 0 0 0-2.6-2.2c-.6-.2-.6-.2-4.2-.2h-3.3zm12 0v2.6h3.9v9.5h2.9v-9.5h3.9v-2.6H59.4zm-71 1.8h.5c2.7.5 4.4 3 3.9 5.6-.3 1.7-1.6 3-3.2 3.6-1.7.6-3.5.2-4.8-1.2-2-1.9-1.9-4.9.1-6.7 1-1 2.2-1.4 3.4-1.3zm62 .8H52c1.8 0 1.9 0 2.2.2l.3.2c.6.6.6 1.4.1 2l-.7.5H50.4v-2.9zm23.8 1.7v8H75.6v-3h2l1 1.5.9 1.4h1.4l-1-1.5-1-1.5c.5-.2.8-.3 1-.6a2.5 2.5 0 0 0-1-4.2l-2.4-.1h-2.2zm1.3 1.1h1.3c1.4 0 1.6 0 1.9.2.5.3.8.9.7 1.4-.1.5-.5 1-1 1.1H75.6V43zm22.1 1-1 .1a3 3 0 0 0-2 2.2l.1 1.4c.1.6.4 1 .7 1.4.5.4 1 .7 1.6.8a5 5 0 0 0 1.5 0 3 3 0 0 0 1.7-1.2c.3-.5.4-1 .5-1.6 0-.5 0-.8-.2-1.2a3 3 0 0 0-2-1.8 3 3 0 0 0-.9-.1zm-13.3 0a2.8 2.8 0 0 0-2.7 2c-.3.6-.2 1.5 0 2.2a2.8 2.8 0 0 0 3 1.8 2.8 2.8 0 0 0 2.5-1.5v-.2l-.5-.1a30.7 30.7 0 0 1-.6 0l-.5.5c-.3.2-.8.3-1.3.2-.5 0-.8-.2-1.1-.5-.3-.3-.4-.5-.5-1h4.6V46a2.7 2.7 0 0 0-3-2zm6.9 0H91c-.6 0-.9 0-1.3.3a2.9 2.9 0 0 0-1.6 2.7v.8c.2.5.4.9.8 1.3s1 .7 1.6.8a5 5 0 0 0 1.4 0c.8-.2 1.5-.8 1.8-1.4V48.2l-.4-.2-.6-.1-.1.2c-.2.3-.6.6-1 .7-1 .3-2-.3-2.3-1.4 0-.5 0-1 .3-1.5 0-.2.4-.5.6-.6a2 2 0 0 1 1.3-.2c.4.1 1 .5 1 .8l.2.2a9.8 9.8 0 0 0 1-.3v-.2a2.7 2.7 0 0 0-2.5-1.6zm19.1 0a2.6 2.6 0 0 0-2.2.9c-.3.3-.6.8-.7 1.4v1.4c.1.6.4 1 .8 1.4.4.5.9.7 1.5.8h1.3c.6 0 1-.3 1.5-.7l.6-.8-.4-.2-.5-.1h-.2v.1c-.4.5-.9.7-1.6.7-.8 0-1.4-.3-1.7-.9a2 2 0 0 1-.2-.6H113.3V47c.1-1.3-.6-2.5-1.7-3l-1.2-.1zm7 0h-.6c-.4.2-.8.5-1 .8l-.1.2V44h-1.2V49.8h1.2v-3c.2-1.1.7-1.7 1.7-1.6h.2V44h-.3zm-10.9.1h-.7l-1.7 4.3a50.6 50.6 0 0 1-1.8-4.2H101l1.2 2.8a481 481 0 0 0 1.2 2.8h1.4L106 47l1.2-2.8h-.7zm11.6 0 1 2.3 1.3 2.8.3.5-.6 1.2-.5 1.3H121l1.7-4 1.7-4H123l-.9 2-.8 2.1-1-2-.9-2.2h-1.3zm-33.6 1c.6 0 1.2.2 1.5.8l.1.6h-3.4v-.1c0-.3.3-.6.5-.9.3-.3.7-.5 1.3-.5zm25.9 0c.5 0 .9 0 1.2.3l.5 1v.1h-3.5l.2-.6.6-.6c.3-.2.6-.3 1-.3zm-12.6 0c.3 0 .5 0 .8.2.3.1.6.5.8.7.3.6.3 1.4 0 2-.3.3-.7.7-1.1.8h-.8c-1.3-.1-2-1.5-1.4-2.7a1.8 1.8 0 0 1 1.7-1z" style="fill:#1b7dd7;stroke-width:.36964"/>
  </g>
</svg>
