<?xml version="1.0" encoding="UTF-8" standalone="no"?>
<!-- Created with Inkscape (http://www.inkscape.org/) -->

<svg
   width="500"
   height="500"
   viewBox="0 0 132.29167 132.29167"
   version="1.1"
   id="svg1"
   inkscape:version="1.4 (86a8ad7, 2024-10-11)"
   sodipodi:docname="smartrecovery-symbol.svg"
   xmlns:inkscape="http://www.inkscape.org/namespaces/inkscape"
   xmlns:sodipodi="http://sodipodi.sourceforge.net/DTD/sodipodi-0.dtd"
   xmlns="http://www.w3.org/2000/svg"
   xmlns:svg="http://www.w3.org/2000/svg">
  <sodipodi:namedview
     id="namedview1"
     pagecolor="#ffffff"
     bordercolor="#111111"
     borderopacity="1"
     inkscape:showpageshadow="0"
     inkscape:pageopacity="0"
     inkscape:pagecheckerboard="1"
     inkscape:deskcolor="#d1d1d1"
     inkscape:document-units="px"
     inkscape:zoom="0.78573232"
     inkscape:cx="397.08179"
     inkscape:cy="561.25984"
     inkscape:window-width="1920"
     inkscape:window-height="1115"
     inkscape:window-x="-9"
     inkscape:window-y="-9"
     inkscape:window-maximized="1"
     inkscape:current-layer="layer1" />
  <defs
     id="defs1" />
  <g
     inkscape:label="Layer 1"
     inkscape:groupmode="layer"
     id="layer1">
    <path
       id="path3"
       style="fill:#ffa300;fill-opacity:1;stroke-width:1.61579"
       d="m 111.73,20.733071 c -0.63027,0.05186 -5.17216,1.181379 -10.55808,2.629356 -14.086392,3.787035 -14.933563,4.033592 -14.933563,4.364185 0,0.157719 4.183246,4.472939 9.295359,9.58901 5.112124,5.116077 9.405854,9.302134 9.543844,9.302134 0.13801,0 0.47238,-0.91388 0.74317,-2.03075 0.27078,-1.116871 1.05265,-4.14731 1.73709,-6.733764 3.34963,-12.657683 4.4136,-16.94653 4.24447,-17.115654 -0.006,-0.0062 -0.0301,-0.0078 -0.0723,-0.0044 z m -91.173541,0.0044 c -0.04201,-0.0032 -0.06582,-0.002 -0.0723,0.0044 -0.103832,0.103832 0.228203,1.784208 0.738662,3.733956 3.301807,12.611617 5.716524,21.551023 5.907011,21.868364 0.217311,0.362013 18.920514,-18.032976 18.920514,-18.608784 0,-0.338206 -0.813776,-0.577197 -14.933564,-4.373219 -5.385905,-1.447977 -9.928005,-2.575278 -10.560334,-2.624834 z m 6.828639,65.212061 c -0.276903,0 -0.686703,0.81683 -0.912598,1.81615 -0.631696,2.79455 -4.67981,18.222398 -5.412309,20.628228 -0.357967,1.17567 -0.652494,2.37836 -0.655082,2.67228 -0.0078,0.9201 -0.433326,1.01734 20.94448,-4.85211 2.233757,-0.61329 4.24664,-1.29073 4.474874,-1.50669 0.453189,-0.42881 -17.564612,-18.757858 -18.439365,-18.757858 z m 77.473342,0 c -0.85885,0 -18.831814,18.341548 -18.394188,18.771418 0.228202,0.22421 4.454734,1.49633 9.392484,2.82588 4.937774,1.32958 10.132174,2.76634 11.542964,3.19408 2.69609,0.81738 4.48843,1.04866 4.48843,0.57827 0,-1.27514 -6.67639,-25.369648 -7.02969,-25.369648 z" />
    <path
       style="fill:#1b7dd7;fill-opacity:1;stroke-width:1.61579"
       d="m 61.931257,123.29483 c -1.998604,-3.55339 -4.022747,-7.1558 -4.498083,-8.00535 -0.475336,-0.84955 -3.914117,-6.89172 -7.641741,-13.42706 C 42.81954,89.63923 42.437244,89.13756 38.450133,86.98021 31.18391,83.04855 2.7562061,66.609567 2.6471179,66.276277 2.5728068,66.049215 5.7332679,64.037526 9.6703599,61.805776 34.489716,47.73682 42.125788,43.316461 42.741267,42.661722 43.123299,42.255313 48.393837,33.16949 54.453589,22.471011 60.513335,11.772505 65.61241,2.8607019 65.78489,2.6670039 c 0.172449,-0.193712 4.12186,6.347241 8.776411,14.5354291 4.654558,8.188172 9.776915,17.171252 11.383031,19.962373 1.606117,2.791106 2.92044,5.19588 2.920694,5.3439 3.89e-4,0.216326 22.096934,12.998831 31.379294,18.152441 1.19897,0.665678 2.56472,1.453356 3.03497,1.750424 0.47026,0.297078 2.00932,1.170628 3.42012,1.941294 1.41078,0.770672 2.72607,1.548366 2.92287,1.728237 0.19678,0.179813 -0.8613,0.986691 -2.35132,1.792952 -1.49002,0.806266 -4.42006,2.463246 -6.5112,3.68219 -2.09115,1.21894 -3.8413,2.216238 -3.88922,2.216238 -0.0482,0 -3.60873,2.020003 -7.9129,4.488892 -4.30419,2.468884 -7.86395,4.488876 -7.9106,4.488876 -0.0467,0 -2.73312,1.52175 -5.96994,3.38167 l -5.885111,3.38167 -11.38593,19.99299 c -6.262256,10.99615 -11.578285,20.0506 -11.813432,20.121 -0.235152,0.0705 -2.06274,-2.77931 -4.06137,-6.33271 z M 72.206084,85.98024 c 7.342562,-2.48416 12.615947,-8.313365 14.1378,-15.627894 2.355934,-11.323444 -5.460123,-22.557308 -17.112978,-24.596165 -6.346311,-1.110403 -12.362108,0.777518 -17.371453,5.451612 -8.669332,8.089153 -8.87193,21.307214 -0.453864,29.610478 5.825278,5.745819 13.468414,7.642579 20.800484,5.161969 z"
       id="path37" />
  </g>
</svg>
