<svg xmlns="http://www.w3.org/2000/svg" xml:space="preserve" id="svg1" width="500" height="120" version="1.1" viewBox="0 0 132.3 31.8">
  <g id="layer1" transform="matrix(0.84282136,0,0,0.84282136,24.856171,-21.279537)">
    <path id="path4" d="M-1.4 33.6a38.8 38.8 0 0 0-5.8 1.6 52 52 0 0 0 4.3 4.4l.2-.5a106.8 106.8 0 0 1 1.3-5.5zm-20.8 0 .1.9 1.4 5s4.3-4.1 4.3-4.3l-3.4-1-2.4-.6zM39 46.5l-1.7 3.2h3.4l-1.7-3.2zm-59.8 2-.2.5a176.8 176.8 0 0 1-1.4 5.3c0 .2 0 .2 4.8-1.1l1-.3c.2-.1-4-4.3-4.2-4.3zm17.8 0A43 43 0 0 0-7.2 53l2.2.6a146.5 146.5 0 0 1 3.7.9L-3 48.6z" style="fill:#ffa300;fill-opacity:1;stroke-width:.369643"/>
    <path id="path37" d="M-11.8 29.6a312 312 0 0 0-5.3 9.1 152 152 0 0 1-9.1 5.4s6.5 3.9 8.1 4.7c1 .5 1 .7 2.6 3.5a1259.7 1259.7 0 0 1 3.7 6.3L-9 54l2.6-4.6 1.3-.7a64.4 64.4 0 0 1 5-2.9 27.2 27.2 0 0 0 3-1.7l-.8-.4a21.8 21.8 0 0 1-1.4-.9l-7.2-4.1-.7-1.2a1529.4 1529.4 0 0 1-4.6-8zm50.9 7.1a114.5 114.5 0 0 0-4.3 8.8l-2 4.2h3l.2-.4a239 239 0 0 0 3.1-6l1.7 3.3 1.6 3.1h3a70.5 70.5 0 0 0-3.6-7.6L39 36.7zm-28.4.7-.9.1c-1.1.2-1.8.6-2.5 1.3-.7.8-1 1.2-1 2.3 0 .9.3 1.3.8 2 .6.7 1.1 1 3.5 1.6 2.4.8 2.8 1 2.8 1.6 0 .6-1 1-1.9 1-.4 0-1.2-.1-1.6-.3l-1.2-1.3c0-.3-.2-.3-.4-.2-.7.1-2.5.7-2.5.8 0 .3.7 1.4 1.3 2 .7.7 1.4 1.1 2.4 1.4.8.2 2.6.3 3.5.1a4.7 4.7 0 0 0 3-2.2c.4-.8.5-1.9.2-2.7-.4-1-1.3-1.6-3.8-2.4-2.9-1-2.8-1-3-1.2-.2-.4 0-.8.4-1 .3-.2.5-.2 1.1-.2 1 0 1.5.2 2.1 1l.5.4.6-.2c2.3-.7 2.2-.6 1.7-1.4a6 6 0 0 0-5.1-2.5zm20.4.3h-2.8l-1 1.5a460.5 460.5 0 0 0-2.6 3.6A55.7 55.7 0 0 1 22 39l-.9-1.2h-2.8v12h3v-3.3l.1-3.3 1 1.2a2113.4 2113.4 0 0 0 2.3 3.1s.4-.3.7-.8l1.7-2.2 1-1.5v6.8h3v-6Zm16.2 0v12h2.9v-3.9h1.9l.5.8 1.3 2 .7 1.1h1.7l1.7-.1a210.7 210.7 0 0 0-2.8-4c0-.1.1-.3.4-.4l.7-.6c1.9-1.8 1.5-4.9-.7-6.3-.9-.6-1.3-.6-5-.6zm11.7 0v2.6h3.8v9.4h2.9v-9.4h3.9v-2.6h-5.3zm-70.6 1.7h.6c2.7.5 4.4 3 3.9 5.6-.3 1.7-1.6 3-3.2 3.6-1.7.6-3.5.2-4.8-1.2-2-1.9-1.9-4.9.1-6.7 1-1 2.2-1.4 3.4-1.3zm61.8 1h1.7c1.8 0 2 0 2.4.5.6.7.4 1.7-.4 2-.3.3-.5.3-2 .3h-1.7v-1.4Zm21.6.3V49H73.1V46h2.1l1 1.6 1 1.5h1.6l-1.1-1.6-1-1.6c.5-.2.8-.3 1-.6a2.6 2.6 0 0 0-1.1-4.4h-2.5zm1.3 1.2h1.4c1.5 0 1.7 0 2 .2.5.2.8.9.7 1.4 0 .6-.5 1-1 1.2H73v-1.4zm23.3 1a3 3 0 0 0-3 2.4c-.2.3-.2 1.2-.1 1.5.1.6.4 1 .8 1.4.4.5 1 .8 1.6 1l1.6-.1c.7-.2 1.3-.7 1.8-1.3.3-.5.4-1 .5-1.6 0-.6 0-.9-.2-1.3a3 3 0 0 0-2.1-2 3.1 3.1 0 0 0-1 0zm-14 0a2.9 2.9 0 0 0-2.9 2c-.2.7-.2 1.7 0 2.4a3 3 0 0 0 3.1 1.9 3 3 0 0 0 2.7-1.5l.1-.2-.6-.2a34.1 34.1 0 0 1-.6 0l-.6.5c-.3.2-.8.3-1.3.3-.5-.1-.9-.3-1.2-.6-.3-.3-.4-.5-.5-1h4.8V45a2.8 2.8 0 0 0-3-2.2zm7.2 0h-.2c-.6 0-.9 0-1.3.3a3 3 0 0 0-1.7 2.8v.9c.2.5.4 1 .8 1.3.5.5 1 .8 1.7 1l1.5-.1c.8-.2 1.5-.8 1.8-1.4l.1-.3v-.1l-.5-.2-.6-.1-.1.2c-.2.3-.6.6-1.1.8-1.1.2-2.1-.4-2.4-1.6 0-.5 0-1 .3-1.5l.7-.6a2 2 0 0 1 1.3-.2c.5 0 1 .5 1.2.8l.1.2a10.2 10.2 0 0 0 1.1-.3v-.3a2.9 2.9 0 0 0-2.7-1.6zm20 0a2.7 2.7 0 0 0-2.2.9 3 3 0 0 0-.8 1.5v1.5c.2.6.4 1 .8 1.5.5.5 1 .7 1.6.8h1.4c.6 0 1.1-.3 1.6-.7.3-.3.6-.8.6-1h-.4l-.6-.2h-.1l-.2.1c-.3.5-.8.8-1.5.8-.9 0-1.5-.3-1.8-1a2 2 0 0 1-.2-.6h4.8V46c.2-1.3-.5-2.6-1.7-3-.4-.2-.6-.2-1.3-.2zm7.3 0-.6.1a2 2 0 0 0-1 .8l-.1.1v-.8H113.9v6H115.2v-3.3c.2-1.2.7-1.7 1.7-1.7h.3V43Zm-11.3.2h-.8l-1.8 4.5a52.6 52.6 0 0 1-1.8-4.5h-1.4l1.2 3 1.3 2.9h1.4l1.3-3 1.2-3h-.6zm12 0 1.2 2.3 1.3 3 .3.5-.5 1.3-.6 1.3H120.6l1.8-4.2 1.8-4.2H123l-1 2.1-.9 2.2-1-2.2-1-2.1h-.6zm-35.1.9c.7 0 1.2.3 1.5.9l.2.6h-3.6c0-.4.3-.8.5-1 .4-.4.8-.5 1.4-.5zm27.1 0c.6 0 1 .1 1.3.4.3.3.4.6.5 1v.2h-3.6l.2-.7.6-.6c.3-.2.6-.3 1-.3zm-13.2 0 .9.2.8.8c.3.6.3 1.5 0 2a2 2 0 0 1-1.2 1h-.8c-1.3-.2-2-1.7-1.4-3a1.9 1.9 0 0 1 1.7-1z" style="fill:#1b7dd7;fill-opacity:1;stroke-width:.369643"/>
  </g>
</svg>
