<?xml version="1.0" encoding="UTF-8"?>
<svg fill="none" version="1.1" viewBox="0 0 286 48" xmlns="http://www.w3.org/2000/svg">
 <path d="m24.014 0.0097656c-2.9413 5.128-5.7948 10.169-8.7168 15.287-0.0097 0.0097-10.101 5.7481-15.287 8.6992 5.128 2.9413 10.169 5.7948 15.287 8.7168 0 0.0096 5.7481 10.101 8.6992 15.287 2.9413-5.128 5.7948-10.169 8.7168-15.287 0.0096-0.0097 10.101-5.7482 15.287-8.6992-5.128-2.9413-10.179-5.7948-15.287-8.7168-0.0097-0.0097-5.7482-10.101-8.6992-15.287zm94.385 9.666-11.543 23.754h5.3613l6.1816-12.191 6.1816 12.191h5.3516l-11.533-23.754zm-52.238 1.3633c-2.3318 2e-6 -4.2761 0.63882-5.8242 1.916-1.5481 1.2771-2.3124 2.8255-2.293 4.6445-0.0194 1.3836 0.4362 2.5739 1.3457 3.5801 0.9095 1.0063 2.1373 1.7525 3.666 2.2266l5.6504 1.75c1.5771 0.5032 2.3613 1.2096 2.3613 2.1094 0 0.5612-0.32032 1.0545-0.94922 1.4609-0.6386 0.4064-1.4704 0.60938-2.4863 0.60938-1.3836-1e-6 -2.5638-0.33833-3.541-1.0156-0.9773-0.6676-1.6935-1.5472-2.1289-2.6309l-4.9629 1.5273c0.6967 1.8674 1.9347 3.4456 3.7344 4.7324l0.009766 0.009765c1.7996 1.2868 3.9097 1.9258 6.5898 1.9258 2.6802 0 4.8476-0.66864 6.5117-1.9941 1.6642-1.3352 2.4961-2.9892 2.4961-4.9824 0-1.6932-0.52346-2.9909-1.5684-3.9004-1.045-0.9095-2.5355-1.6638-4.4512-2.2637l-5.5332-1.7598c-0.9772-0.2999-1.4707-0.82342-1.4707-1.5781 0-0.5225 0.26087-0.95828 0.79297-1.2969 0.5322-0.3387 1.2289-0.51172 2.1094-0.51172 1.0546 0 2.012 0.24098 2.8828 0.73438 0.8708 0.4838 1.5294 1.1225 1.9648 1.8965l4.7891-1.4121c-0.5998-1.6158-1.7899-2.9792-3.5605-4.1016-1.7706-1.1127-3.803-1.6758-6.1348-1.6758zm14.051 0.42578v21.963h5.2148v-12.867l6.4336 8.8242 6.4629-8.8242v12.867h5.2051v-21.963h-4.9629l-6.6758 9.7637-6.7246-9.7637h-4.9531zm53.359 0v21.973h5.1465v-7.2168h3.7637v-0.009765l4.6738 7.2168h5.9883l-5.3008-7.875c1.422-0.5805 2.5246-1.4801 3.3086-2.6992 0.784-1.2095 1.1797-2.5349 1.1797-3.9766 0-1.9447-0.71449-3.6663-2.1465-5.166-1.432-1.4997-3.3098-2.2461-5.6328-2.2461h-10.98zm21.723 0v4.7227h6.9844v17.24h5.2051v-17.24h7.0059v-4.7227h-19.195zm-131.3 4.5488c4.412 0 7.9902 3.5802 7.9902 7.9922s-3.5782 7.9902-7.9902 7.9902c-4.4121 0-7.9922-3.5782-7.9922-7.9902s3.5801-7.9922 7.9922-7.9922zm114.72 0.11523h5.6699c0.793 0 1.472 0.2707 2.043 0.8125 0.57 0.5419 0.84961 1.1713 0.84961 1.9453 0 0.7741-0.28986 1.4309-0.88086 1.9727-0.59 0.5418-1.3246 0.81445-2.2246 0.81445h-5.457v-5.5449zm45.678 2.3809v15.025h2.3223v-5.5723h3.793l3.668 5.5723h2.6797l-3.8809-5.7754c1.093-0.2806 1.9555-0.85156 2.5645-1.6934h0.02929c0.619-0.8417 0.91797-1.781 0.91797-2.8066 0-1.2481-0.44375-2.3507-1.3438-3.3086-0.89-0.9578-2.0896-1.4414-3.5996-1.4414h-7.1504zm2.3125 2.0898h4.7617c0.822 0 1.4794 0.2607 1.9824 0.7832 0.513 0.5225 0.76563 1.1514 0.76563 1.877 0 0.7257-0.26339 1.3447-0.77539 1.8672-0.513 0.5128-1.189 0.77344-2.041 0.77344h-4.6934v-5.3008zm16.895 1.8477-0.00976 0.009765c-1.645 0-2.9809 0.5414-4.0059 1.625-1.036 1.0837-1.5488 2.439-1.5488 4.0645s0.53366 3.0567 1.5977 4.1016c1.064 1.045 2.4474 1.5684 4.1504 1.5684 1.287 0 2.3698-0.30049 3.2598-0.90039 0.891-0.5999 1.5192-1.3262 1.9062-2.168l-2.0508-0.60938c-0.561 1.161-1.5874 1.7422-3.0684 1.7422-1.064 0-1.9042-0.2806-2.5332-0.8418-0.629-0.5612-0.97692-1.2956-1.0449-2.2148h8.7754c0.048-0.329 0.07617-0.62949 0.07617-0.90039 0-1.5771-0.49175-2.873-1.4688-3.918-0.987-1.0353-2.3322-1.5586-4.0352-1.5586zm49.295 0-0.01757 0.009765c-1.645 0-2.9818 0.5414-4.0078 1.625-1.035 1.0837-1.5469 2.439-1.5469 4.0645s0.53266 3.0567 1.5977 4.1016c1.064 1.045 2.4464 1.5684 4.1484 1.5684 1.287 0 2.3717-0.30049 3.2617-0.90039s1.5192-1.3262 1.9062-2.168l-2.0508-0.60938c-0.561 1.161-1.5784 1.7422-3.0684 1.7422-1.064 0-1.9042-0.2806-2.5332-0.8418-0.629-0.5612-0.97888-1.2956-1.0469-2.2148h8.7774c0.048-0.329 0.07617-0.62949 0.07617-0.90039 0-1.5771-0.49272-2.873-1.4707-3.918-0.97701-1.0353-2.3224-1.5586-4.0254-1.5586zm-36.514 0.009765c-1.626 0-2.9809 0.54134-4.0449 1.6152-1.064 1.0837-1.5957 2.4291-1.5957 4.0449 0 1.6158 0.53123 2.9711 1.6152 4.0645 1.073 1.0933 2.4287 1.6348 4.0547 1.6348 1.344 0 2.4767-0.34826 3.3867-1.0352 0.909-0.687 1.4799-1.471 1.7129-2.3418l-2.0898-0.58008c-0.15501 0.5321-0.51322 0.98598-1.0742 1.3633-0.562 0.3773-1.2103 0.57031-1.9453 0.57031-1.026 0-1.8579-0.35633-2.5059-1.082-0.648-0.7257-0.97656-1.5875-0.97656-2.584 0-0.9966 0.3188-1.8874 0.9668-2.5938s1.4806-1.0547 2.5156-1.0547h0.00977c0.745 0 1.3824 0.20291 1.9434 0.59961 0.552 0.3967 0.91022 0.86233 1.0742 1.3945l2.0898-0.59961c-0.232-0.8902-0.81342-1.6842-1.7324-2.3711-0.919-0.6967-2.0603-1.0449-3.4043-1.0449zm12.51 0c-1.645 0-3.0088 0.5414-4.0918 1.625-1.084 1.0837-1.627 2.4291-1.627 4.0449s0.54295 2.9808 1.627 4.0645c1.083 1.0836 2.4468 1.625 4.0918 1.625 1.644 0 3.0176-0.5414 4.1016-1.625 1.093-1.0837 1.6367-2.4391 1.6367-4.0645 0-1.6255-0.54372-2.971-1.6367-4.0547-1.093-1.0739-2.4576-1.6152-4.1016-1.6152zm37.129 0.11133c-0.60271-9.04e-4 -1.1418 0.1263-1.6211 0.37305v0.009766c-0.638 0.3386-1.1222 0.84021-1.4512 1.5078v-1.7207h-2.2539v10.797h2.2539v-4.877c0-1.5287 0.31998-2.6211 0.95898-3.25 0.639-0.6386 1.5583-0.87147 2.7383-0.69726v-2.0996c-0.21525-0.029025-0.42409-0.042667-0.625-0.042969zm-30.947 0.17969 4.5781 10.787h2.5059l4.5664-10.787h-2.4394l-3.3945 8.3496-3.3672-8.3496h-2.4492zm32.434 0 4.9336 10.545-2.002 4.752h2.3125l6.5684-15.297h-2.4082l-3.3477 8.0195-3.5996-8.0195h-2.457zm-63.916 1.6348c0.929 0 1.7315 0.2707 2.3125 0.8125 0.58 0.5418 0.89956 1.2385 0.97656 2.0996l-6.627 0.019531c0.078-0.8127 0.42515-1.5092 1.0352-2.0801 0.609-0.5709 1.3737-0.85156 2.3027-0.85156zm49.297 0c0.928 0 1.7306 0.2707 2.3106 0.8125 0.581 0.5418 0.91151 1.2385 0.97851 2.0996l-6.627 0.019531c0.087-0.8127 0.43516-1.5092 1.0352-2.0801 0.609-0.5709 1.3737-0.85156 2.3027-0.85156zm-23.996 0.11524c1.035 0 1.8779 0.34826 2.5449 1.0352 0.668 0.687 0.99609 1.5587 0.99609 2.6133s-0.32809 1.8873-0.99609 2.584c-0.667 0.6966-1.5199 1.0449-2.5449 1.0449-1.026 0-1.8779-0.34832-2.5449-1.0449-0.658-0.6967-0.9961-1.5584-0.9961-2.584s0.3281-1.9166 0.9961-2.6133c0.667-0.6869 1.5089-1.0352 2.5449-1.0352zm53.467 2.9512c-1.673 0-3.0293 1.2779-3.0293 3.0195 0 1.7512 1.3563 3.0176 3.0293 3.0176 1.674 0 3.0293-1.2761 3.0293-3.0176 0-1.7416-1.3553-3.0195-3.0293-3.0195zm0 0.52344c1.374 0 2.5058 1.0351 2.5058 2.4961s-1.1218 2.4961-2.5058 2.4961c-1.383 0-2.5059-1.0448-2.5059-2.4961 0-1.4514 1.1329-2.4961 2.5059-2.4961zm-1.1797 0.80274v3.377h0.49414v-1.3359h0.80273c0.29 0 0.5703 0.066619 0.57032 0.51172v0.22266c0 0.3 0.02717 0.53386 0.07617 0.60156h0.51757c-0.05464-0.080637-0.08984-0.24527-0.08984-0.57227v-0.26953c0-0.4257-0.18562-0.63956-0.64062-0.72656 0.445-0.1452 0.64062-0.4548 0.64062-0.8418 0-0.6483-0.36828-0.9668-1.1133-0.9668h-1.2578zm2.4609 3.377c0.00196 0.002886 0.00386 0.007091 0.00586 0.009765l0.00977-0.009765h-0.01563zm-1.9668-2.9414h0.76367c0.435-1e-6 0.61914 0.22172 0.61914 0.54102 0 0.4451-0.25167 0.64844-0.63867 0.64844h-0.74414v-1.1895z" style="fill:#498bca"/>
 <path d="m6.6758 6.7441c0.89982 3.3961 2.5352 9.6465 2.5352 9.6465l7.0547-7.0547s-6.2228-1.6823-9.5898-2.5918zm34.494 0c-3.367 0.91917-9.5879 2.5918-9.5879 2.5918l7.0527 7.0547s1.6354-6.2504 2.5352-9.6465zm77.229 20.764-3.0078 5.9199h6.0176l-3.0098-5.9199zm-79.764 3.9082-7.0527 7.0547s6.2209 1.6823 9.5879 2.5918c-0.8998-3.396-2.5352-9.6465-2.5352-9.6465zm-29.424 0.009765s-1.6353 6.2504-2.5352 9.6465c3.367-0.9095 9.5898-2.5938 9.5898-2.5938l-7.0547-7.0527z" style="fill:#faa21b"/>
</svg>
