<?xml version="1.0" encoding="UTF-8"?>
<svg width="800" height="800" version="1.1" viewBox="0 0 211.67 211.67" xmlns="http://www.w3.org/2000/svg">
 <g transform="translate(.30179 1.2107)">
  <path d="m137.63 22.087c-0.1035-0.0397-15.58 4.139-15.686 4.2354-0.0506 0.04585 2.1507 2.3075 5.7149 5.872 3.1885 3.1887 5.8163 5.7976 5.84 5.7976 0.0237 0 0.17405-0.50437 0.33383-1.1214 0.15979-0.617 1.0971-4.1889 2.0831-7.9375 0.986-3.7486 1.7577-6.8296 1.7146-6.8461zm-56.581 0.005168c-0.06701 0.01677 0.4627 2.1609 1.6061 6.5019 0.9383 3.5623 1.8748 7.1344 2.081 7.9375 0.20623 0.80315 0.39413 1.4602 0.41755 1.4604 0.02341 1.26e-4 2.651-2.6089 5.8394-5.7976 3.5792-3.5795 5.7658-5.8261 5.7149-5.8725-0.10683-0.09739-15.527-4.2627-15.659-4.2297zm52.47 40.453c-0.0973 0-11.621 11.545-11.62 11.642 4.5e-4 0.04669 3.5347 1.0429 7.8533 2.2138 4.3186 1.1709 7.8829 2.1328 7.921 2.1379 0.0381 0.0051 0.04899-0.057987 0.02429-0.13953-0.15773-0.51781-4.115-15.662-4.115-15.747 0-0.05849-0.02876-0.10645-0.06356-0.10645zm-48.391 0.056845c-0.02609 0.04223-0.1434 0.45656-0.26097 0.92036-0.28231 1.1137-3.8509 14.682-3.916 14.89-0.0356 0.11322-0.016318 0.14843 0.065112 0.11834 0.06358-0.02356 3.6302-0.9914 7.9256-2.1508s7.81-2.1459 7.8104-2.1926c1e-3 -0.136-11.572-11.67-11.624-11.585zm24.339 67.847c-0.05246 7.3e-4 -4.5015 8.6578-4.5015 8.7592 0 0.0248 2.019 0.04548 4.4871 0.04548 2.468 0 4.4876-0.0222 4.4876-0.0491 0-0.10534-4.4197-8.7563-4.4731-8.7555zm-82.531 55.036c-0.96642 5e-3 -1.9755 0.27693-2.4681 0.71417-0.80962 0.71861-1.2599 1.8002-1.2599 3.0277v0.72554h-0.62994-0.63045v0.89297 0.89245h0.63045 0.62994v3.7817 3.7817h1.2082 1.2082v-3.7817-3.7817h0.99787 0.99839v-0.89297-0.89245h-1.0588-1.0578l0.06873-0.6041c0.1002-0.88528 0.2384-1.2482 0.58704-1.5415 0.39163-0.32954 0.91877-0.43175 1.4857-0.28784 0.24232 0.0615 0.44857 0.10208 0.45837 0.09095 0.0098-0.0112 0.051837-0.4553 0.093017-0.98598l0.074931-0.9648-0.40463-0.08527c-0.29207-0.0618-0.60907-0.08996-0.93121-0.08836v-5.2e-4zm83.194 0.1602-1.2082 5.1e-4v2.5859 2.5859l-0.40566-0.3669c-0.58803-0.53125-1.3172-0.74354-2.3642-0.68833-2.4339 0.12837-3.9527 2.0179-3.9527 4.917 0 2.4232 1.0135 4.0811 2.8655 4.6855 0.27236 0.0888 0.77042 0.13245 1.2945 0.11266 1.0215-0.0383 1.8113-0.3737 2.3906-1.0149l0.37258-0.41186 0.0708 0.62477 0.0708 0.6258h1.1028 1.1038l-0.06563-0.39429c-0.0358-0.21664-0.06555-3.2889-0.06615-6.8275l-0.00103-6.4342h-1.2077zm-64.338 5.1e-4v5.7082c0 3.1396-0.030543 6.2124-0.068213 6.828l-0.06873 1.1193h1.0666 1.0661l0.007235-0.39429c0.0041-0.21664 0.043727-0.48726 0.088367-0.60152 0.08003-0.20488 0.08355-0.20472 0.19844 0.01034 0.17575 0.3284 0.84837 0.80189 1.4387 1.0129 0.78577 0.28084 2.1177 0.2083 2.9177-0.15917 0.77791-0.35734 1.6341-1.2143 2.0118-2.0133 0.79439-1.6806 0.71367-4.1279-0.18758-5.6658-0.3777-0.6445-1.1317-1.2778-1.8371-1.5436-0.48944-0.18424-0.75837-0.21636-1.5384-0.18087-1.0718 0.0488-1.621 0.26526-2.2846 0.90176l-0.39429 0.37827v-2.6996-2.7006h-1.2077-1.2082zm90.966 0v2.5859 2.5859l-0.33487-0.32711c-0.8633-0.84403-2.6744-0.99993-4.0054-0.34468-1.1345 0.55851-1.8994 1.5965-2.2355 3.0355-0.20469 0.87618-0.15104 2.6628 0.10387 3.4613 0.39653 1.242 1.4481 2.3499 2.5714 2.7099 0.31308 0.10024 0.79095 0.14489 1.3384 0.12454 1.0183-0.038 1.8108-0.3728 2.3844-1.0077l0.36639-0.40514 0.06304 0.31677c0.0347 0.17412 0.06356 0.45247 0.06356 0.61857v0.30179h1.1178 1.1172l-0.06563-0.5519c-0.0364-0.3033-0.0672-3.3756-0.0677-6.8275l-5.1e-4 -6.2761h-1.2087-1.2077zm12.08 0v2.5859 2.5859l-0.33486-0.32711c-0.82085-0.80253-2.6208-0.99131-3.8912-0.40773-1.1586 0.53225-2.0117 1.657-2.3502 3.0985-0.20357 0.86677-0.14847 2.6449 0.10748 3.4613 0.38741 1.2356 1.4427 2.3494 2.5678 2.7099h5.1e-4c0.31307 0.10024 0.79095 0.14489 1.3384 0.12454 1.0183-0.038 1.8108-0.3728 2.3844-1.0077l0.36639-0.40514 0.06356 0.31677c0.0347 0.17412 0.06253 0.45247 0.06253 0.61857v0.30179h1.1183 1.1172l-0.06666-0.5519c-0.0363-0.3033-0.06616-3.3756-0.06666-6.8275l-0.00104-6.2761h-1.2077-1.2082zm7.1427 0.42013c-1.0611 0-1.6585 0.97913-1.1942 1.9575 0.09425 0.19851 0.29577 0.42819 0.44701 0.51056 0.36749 0.20016 1.1033 0.19649 1.496-0.0062 0.17691-0.0914 0.38467-0.32328 0.46767-0.52193 0.41886-1.0025-0.169-1.9394-1.2165-1.9394v-5.2e-4zm-137.86 0.00414c-0.48045-2e-4 -0.94878 0.21549-1.1596 0.62321-0.3313 0.64067-0.11747 1.5237 0.44597 1.8412 0.19033 0.10719 0.47613 0.14923 0.84594 0.12454 0.46099-0.0308 0.61776-0.09584 0.89348-0.37156 0.29394-0.29394 0.33383-0.4028 0.33383-0.90744 0-0.50372-0.040585-0.61419-0.33176-0.90537-0.27332-0.27332-0.65416-0.40446-1.0278-0.40462zm161.45 0c-0.48047-2e-4 -0.94877 0.21549-1.1596 0.62321-0.3313 0.64067-0.11748 1.5237 0.44596 1.8412 0.19033 0.10719 0.47614 0.14923 0.84595 0.12454 0.46098-0.0308 0.61776-0.09584 0.89348-0.37156 0.29397-0.29394 0.33383-0.4028 0.33383-0.90744 0-0.50372-0.04009-0.61419-0.33124-0.90537-0.27332-0.27332-0.65469-0.40446-1.0284-0.40462zm-172.96 0.31109v6.4596 6.4606h3.8339 3.8339v-1.0506-1.0501h-2.6257-2.6262v-5.41-5.4095h-1.2077-1.2082zm166.53 0.97048c-0.19614-0.01-0.52906 0.0877-1.0909 0.22118l-0.99735 0.23719-0.02998 1.0712-0.02945 1.0713h-0.62735-0.62632v0.89245 0.89297h0.62115 0.62218l0.03514 2.8629c0.0339 2.7222 0.04793 2.8881 0.27699 3.3864 0.37349 0.81225 0.84007 1.2183 1.648 1.433 0.35233 0.0937 2.1043 0.04285 2.3895-0.06925 0.15603-0.0613 0.18397-0.21476 0.18397-1.0118v-0.93896l-0.60359 0.06202c-0.73317 0.0753-1.0567-0.06707-1.3131-0.57826-0.15877-0.31646-0.1833-0.69121-0.18345-2.7564l-5.2e-4 -2.3895h1.1033 1.1028v-0.89297-0.89245h-1.1028-1.1033v-1.3131c0-0.9537 0.05202-1.2709-0.27492-1.2878zm-77.264 2.388c-0.98547 0.0231-1.9841 0.41447-2.5471 1.0723l-0.36432 0.42633-0.032039-0.61702-0.032039-0.61598-1.0924-0.02998-1.093-0.03048 0.067697 1.0278c0.03744 0.5654 0.068429 2.6707 0.068729 4.6783l5.17e-4 3.6504h1.2035 1.2041l0.031006-3.1342 0.029972-3.1342 0.30076-0.43408c0.79844-1.1516 2.3001-1.1301 2.9037 0.04134 0.25986 0.50431 0.26256 0.54172 0.29559 3.5853l0.033073 3.0758h1.2087 1.2082l-0.037207-3.4401c-0.0358-3.3272-0.044805-3.461-0.28525-4.0654-0.33977-0.85412-1.0234-1.5653-1.7782-1.85-0.40036-0.15103-0.84603-0.2167-1.294-0.20619zm-33.905 0.01447v5.2e-4c-0.11779-1e-3 -0.23861 0.0012-0.36174 0.0062-1.1666 0.0512-2.0625 0.42182-2.7988 1.1581-1.4884 1.4884-1.9151 4.3718-0.93173 6.2994 0.52981 1.0385 1.6249 1.86 2.8531 2.1404 0.92516 0.21124 2.742 0.13235 3.853-0.16743 0.78376-0.21148 0.85922-0.25413 0.80408-0.45579-0.03346-0.12233-0.11736-0.52071-0.18604-0.88573-0.11227-0.59734-0.14656-0.6574-0.34158-0.59996-1.645 0.4843-3.0826 0.476-3.9693-0.02274-0.596-0.33519-1.0609-0.96216-1.1705-1.5766l-0.060979-0.34106h3.0825 3.0825l0.067179-0.5085c0.08569-0.64594-0.099397-1.9938-0.36742-2.6737-0.61946-1.5716-1.7875-2.3528-3.5543-2.373zm21.157 0c-0.94792 4.9e-4 -1.6077 0.17089-2.3957 0.59738-0.62489 0.33822-1.429 1.201-1.7436 1.8702-0.70326 1.4961-0.6744 3.6319 0.067696 5.0018 0.56955 1.0514 1.6765 1.9004 2.835 2.173 1.1289 0.26566 2.7348 0.05714 3.7295-0.4842 2.1321-1.1604 2.9302-4.3367 1.7136-6.8177-0.44434-0.90609-1.0721-1.5145-2.0221-1.959-0.59326-0.27756-0.84544-0.33035-1.7591-0.37104-0.1484-6e-3 -0.28988-0.01033-0.4253-0.01033zm-49.333 0.00258c-2.7624-6e-3 -4.4974 1.9233-4.4974 5.0405 0 2.1087 0.79759 3.4898 2.452 4.2473 0.31845 0.14579 0.78322 0.30888 1.033 0.36173 0.97315 0.20614 3.8176-0.0605 4.3785-0.41031 0.11935-0.0744 0.12119-0.21244 0.010852-0.82992-0.0728-0.40736-0.16248-0.78976-0.19947-0.84956-0.04502-0.0728-0.23968-0.05573-0.5886 0.05167-0.83004 0.25566-2.3133 0.31164-2.9931 0.11266-0.9599-0.28088-1.7722-1.1641-1.7797-1.9348l-0.002584-0.23616h3.099 3.0985v-0.8878c0-1.6424-0.45658-2.9337-1.3188-3.7284-0.71128-0.65563-1.2891-0.87745-2.4216-0.93018-0.09123-4e-3 -0.18167-0.00672-0.27078-0.00672zm131.75 0.00207c-0.79993-0.0112-1.6832 0.07974-2.2118 0.25683-1.3776 0.46165-2.4981 1.6238-2.9378 3.0474-0.25339 0.8203-0.28717 2.3288-0.0708 3.1388 0.44158 1.6531 1.7338 2.8725 3.3771 3.1858 0.79373 0.15138 1.8348 0.1404 2.7172-0.02842 1.2455-0.23831 1.2149-0.20208 1.0315-1.2346-0.0852-0.47965-0.16728-0.887-0.18242-0.90537-0.0151-0.0184-0.27734 0.04015-0.58239 0.13074-0.65723 0.19519-1.6424 0.21412-2.2174 0.04186-0.5149-0.15428-1.2614-0.80155-1.4966-1.2971-0.6739-1.4202-0.27815-3.2307 0.8723-3.992 0.61595-0.40758 1.5993-0.55076 2.388-0.34726 0.34118 0.0881 0.69606 0.1938 0.7891 0.23461 0.14068 0.0617 0.2061-0.08173 0.38602-0.8506 0.11897-0.5086 0.18389-0.95847 0.14469-0.99942-0.0392-0.0409-0.37761-0.15266-0.75189-0.24856-0.32486-0.0832-0.77475-0.12632-1.2547-0.13281zm35.655 0.03721c-1.2135 1e-3 -1.7501 0.19879-2.4515 0.9002-0.2237 0.22363-0.4373 0.3761-0.47439 0.339-0.0371-0.0371-0.06718-0.29592-0.06718-0.57516v-0.50798h-1.1162-1.1162l0.06563 0.32866c0.0361 0.18053 0.06563 2.2838 0.06563 4.6741v4.346h1.2077 1.2082l5.1e-4 -2.8624c3.8e-4 -1.7725 0.04514-3.022 0.11731-3.282 0.15713-0.56599 0.87074-1.2729 1.3823-1.3689 0.94046-0.17643 1.7187 0.32153 1.9523 1.2495 0.0749 0.29751 0.11885 1.5544 0.11885 3.3693v2.8944h1.2144 1.2144l-0.03359-3.4928c-0.0316-3.2806-0.04692-3.5255-0.25735-4.0406-0.31439-0.76958-0.76986-1.3027-1.4211-1.6635-0.51523-0.28536-0.6419-0.30911-1.6097-0.30799zm-78.045 0.00361c-1.2522 4e-3 -1.572 0.04076-2.1534 0.24443-0.37552 0.13159-0.78392 0.30419-0.90795 0.38396l-0.22583 0.14521 0.21291 0.71314c0.11722 0.39254 0.24627 0.75102 0.28629 0.79581 0.04 0.0448 0.35274-0.04742 0.69505-0.20464 0.78049-0.3585 2.2347-0.47236 2.7316-0.21394 0.46225 0.24039 0.78103 0.63223 0.84749 1.0418 0.0582 0.35826 0.04954 0.36882-0.34571 0.43408-0.22282 0.0368-0.59828 0.06761-0.83457 0.06821-0.55205 1e-3 -1.8995 0.34551-2.4479 0.62529-1.0217 0.52122-1.6442 1.4091-1.7591 2.5079-0.13511 1.2926 0.56243 2.5218 1.6728 2.9486 1.0636 0.40888 2.4067 0.23158 3.422-0.45165 0.28987-0.19508 0.5537-0.32785 0.58601-0.29559 0.0323 0.0323 0.05839 0.21568 0.05839 0.40825v0.35088h1.0904 1.0909l-0.04185-2.5476c-0.0598-3.6654-0.10291-4.3782-0.29921-4.931-0.24199-0.68146-0.89141-1.3815-1.6076-1.7332-0.57298-0.28112-0.66692-0.29487-2.0707-0.28991zm65.388 0.00414c-1.1211 0-1.4008 0.0349-1.9167 0.23978-2.0302 0.80625-3.1258 2.9315-2.8071 5.4457 0.2405 1.8969 1.4884 3.3869 3.2422 3.8706 1.132 0.31217 2.7713 0.11996 3.8122-0.44648 0.60498-0.32927 1.4463-1.1897 1.7554-1.7958 0.74606-1.4624 0.71679-3.7569-0.06615-5.1955-0.39089-0.7182-1.3583-1.5828-2.0991-1.8769-0.51973-0.20635-0.79772-0.24133-1.9208-0.24133zm-171.64 0.14934v4.6746 4.6741h1.2604 1.2604v-4.6741-4.6746h-1.2604-1.2604zm137.81 0v4.6746 4.6741h1.2604 1.2604v-4.6741-4.6746h-1.2604-1.2604zm23.634 0v4.6746 4.6741h1.2604 1.2604v-4.6741-4.6746h-1.2604-1.2604zm-109.9 0.01551c-0.47519-4e-3 -0.81029 0.00605-0.81029 0.02635 0 0.0264 0.77998 2.0239 1.7332 4.4395 0.95325 2.4156 1.7327 4.4664 1.7327 4.5568 0 0.55843-1.2149 1.809-2.1513 2.2143-0.31672 0.13711-0.57676 0.29369-0.57774 0.34778-0.0016 0.0891 0.36275 1.4839 0.47801 1.8299 0.06436 0.19322 0.65924 0.07789 1.4113-0.2744 0.73487-0.34427 2.0124-1.621 2.5476-2.5456 0.58136-1.0041 1.2126-2.5556 2.7575-6.7763l1.3844-3.7812-1.2619-0.02945c-0.6939-0.0164-1.2959 0.00619-1.3384 0.05219-0.0669 0.0711-1.6198 5.4077-1.8273 6.2797-0.06556 0.27554-0.11922 0.16273-0.42633-0.89348-0.19318-0.66438-0.68002-2.1534-1.0816-3.3088l-0.73019-2.1001-1.3245-0.02945c-0.18221-4e-3 -0.35682-0.00572-0.51521-0.00672v-0.00103zm-34.686 1.4635c0.6111 0.021 1.2002 0.36953 1.5348 1.0945 0.10664 0.23109 0.19513 0.57395 0.19637 0.76171l0.002584 0.34106h-1.9523-1.9518l0.073897-0.34106c0.26274-1.2172 1.2034-1.8868 2.0965-1.8562zm28.087 0.01602c0.60279 0.0299 1.163 0.35982 1.4438 0.92811 0.12655 0.25607 0.26026 0.64274 0.29662 0.85938l0.065629 0.39377h-1.989-1.9895l0.082682-0.36483c0.12888-0.57146 0.59227-1.2754 1.0103-1.5338 0.34103-0.21076 0.71785-0.30062 1.0795-0.28267zm126.64 0.09509c0.23523 2.1e-4 0.47038 0.06111 0.73846 0.18293 0.88668 0.40277 1.4139 1.4589 1.4139 2.8334 0 1.4528-0.52543 2.5658-1.3984 2.9621v0.00104c-0.55304 0.25053-0.95367 0.25169-1.4976 0.00516-0.92237-0.41893-1.4547-1.4801-1.4547-2.9001 0-1.4425 0.5196-2.475 1.4609-2.9027 0.26681-0.12133 0.50219-0.18211 0.73742-0.1819zm-105.23 0.00878c1.3014 0.0155 2.2423 1.4968 2.0981 3.4044-0.07966 1.0533-0.53512 2.0242-1.1364 2.4221-1.8819 1.2454-3.7974-1.1638-3.0887-3.8845 0.30167-1.1582 0.91849-1.7956 1.8624-1.9249 0.08975-0.0124 0.17782-0.01764 0.26458-0.01654v-5.2e-4zm63.609 0.09612c0.81051 0.0256 1.5822 0.57684 1.8604 1.5188 0.0806 0.2715 0.1118 0.87343 0.08475 1.6288-0.0504 1.4088-0.25163 1.9188-0.93483 2.3709-0.79699 0.52742-1.9518 0.39579-2.5864-0.29456-1.0396-1.1308-0.94734-3.6151 0.17363-4.6731 0.41567-0.39232 0.9162-0.56623 1.4025-0.55087zm-12.161 0.0093c0.55514-4e-3 1.1379 0.23494 1.4542 0.61082 0.49422 0.58743 0.61784 1.1224 0.57206 2.483-0.049 1.4568-0.24261 1.9581-0.93431 2.4159-0.5602 0.37073-1.3504 0.43498-1.9348 0.1571-0.92412-0.43943-1.3531-1.2926-1.358-2.7032-2e-3 -0.86407 0.02847-1.0162 0.33538-1.6397 0.39811-0.80867 0.89437-1.2066 1.6304-1.3074 0.0773-0.0112 0.15581-0.01614 0.23512-0.01654zm-84.328 0.01085c0.831 0.0251 1.6272 0.61391 1.9653 1.6888 0.43648 1.3877 0.006875 3.2136-0.89607 3.8111-1.0978 0.72647-2.4363 0.35436-3.0551-0.84905-0.18599-0.36169-0.20615-0.57092-0.17415-1.803 0.03522-1.3565 0.045074-1.4059 0.35553-1.8474 0.49102-0.69836 1.1582-1.02 1.8045-1.0005zm56.486 0.02016c0.7993-2e-3 1.3994 0.34642 1.7606 1.0227 0.21425 0.40106 0.23823 0.59108 0.23823 1.8728 0 1.4017-0.0058 1.4347-0.31523 1.9348-0.20697 0.33418-0.47368 0.59288-0.77773 0.75345-0.55952 0.29557-1.1676 0.31153-1.743 0.04599-0.92021-0.4247-1.3581-1.2899-1.3627-2.6929-3e-3 -0.8649 0.02721-1.0093 0.34675-1.6583 0.46804-0.95073 0.93983-1.276 1.8531-1.2785zm17.41 3.0964h0.50282l-0.00466 0.65681c-7e-3 1.1036-0.31325 1.7011-1.0676 2.0862-0.83628 0.42682-1.7545 0.1322-1.9849-0.63665-0.17384-0.58023 0.00728-1.1716 0.46509-1.5208 0.40662-0.31015 1.3882-0.58549 2.0893-0.58549z" style="fill:#ffa300;stroke-width:.84282"/>
  <path d="m109.48 11.008c-0.03941-0.012971-1.9116 3.2052-4.1605 7.1515-2.2489 3.9464-5.4686 9.5947-7.1546 12.552l-3.0654 5.3759-12.529 7.1282c-6.8909 3.9204-12.539 7.1588-12.551 7.1965-0.01235 0.037724 5.6264 3.286 12.531 7.2182l12.553 7.1494 0.89504 1.5715c0.49209 0.86423 3.7069 6.5143 7.1443 12.556 3.4374 6.042 6.2726 10.985 6.3004 10.985 0.04991-9.86e-4 2.9104-4.9961 10.424-18.203 2.1063-3.7021 3.8916-6.7932 3.9672-6.8693 0.07556-0.076182 5.7475-3.3286 12.604-7.2275 6.8569-3.8989 12.467-7.1161 12.467-7.1489 0-0.032795-4.2767-2.495-9.5038-5.472-5.2271-2.9771-10.874-6.1945-12.549-7.1494l-3.0448-1.7363-7.1282-12.527c-3.9204-6.8901-7.1602-12.538-7.1996-12.551zm-0.43718 26.364c2.127-0.066549 4.3027 0.38953 6.3386 1.4309 1.2798 0.65461 2.2522 1.3655 3.2959 2.4092 1.0437 1.0437 1.7545 2.0162 2.4092 3.2959 1.9059 3.726 1.9235 8.0355 0.04806 11.773-1.7721 3.5315-4.9923 6.0293-8.9669 6.9556-1.0996 0.25632-3.7904 0.29671-5.0033 0.074931-4.054-0.74125-7.5528-3.3752-9.3968-7.0735-0.95821-1.9218-1.3555-3.6226-1.3555-5.7996 0-2.1276 0.38802-3.8249 1.3064-5.7149 2.2013-4.5304 6.645-7.2051 11.324-7.3515zm35.406 43.546c-1.8722-0.01989-3.5524 1.0889-4.268 2.9218-0.17027 0.43609-0.19823 0.65779-0.19844 1.5663-2.2e-4 0.94557 0.02342 1.1195 0.22428 1.6309 0.28631 0.72897 0.60988 1.1966 1.201 1.7368 0.50592 0.46239 1.1267 0.79531 1.8428 0.98805v-5.17e-4c0.59633 0.16071 1.6904 0.16245 2.3141 0.003618 2.0472-0.52139 3.3428-2.217 3.3398-4.3708-0.00187-1.3167-0.38919-2.2561-1.3048-3.1647-0.65676-0.65167-1.2387-0.97974-2.096-1.1818-0.35498-0.083688-0.708-0.12602-1.0547-0.12971zm0.03514 0.87126c0.77797 0.009753 1.5778 0.26444 2.2893 0.80667 0.74283 0.56612 1.2852 1.7526 1.2852 2.8102 0 1.0575-0.54237 2.244-1.2852 2.8102-0.42863 0.32666-1.0784 0.62975-1.5761 0.73536-2.4932 0.529-4.7825-1.6291-4.3579-4.1083 0.3271-1.9095 1.9332-3.0755 3.6447-3.0541zm-1.8438 1.0594v2.5487 2.5487h0.42323 0.42323v-0.97358-0.97358h0.79117c1.0385 0 1.0957 0.055632 1.1555 1.1296l0.0429 0.77515 0.44338 0.025838 0.4439 0.025321-0.03876-0.36432c-0.0212-0.20032-0.05828-0.60392-0.08268-0.8971-0.05356-0.64424-0.1392-0.81994-0.48627-0.99942l-0.26562-0.13746 0.21549-0.13074c0.35022-0.21251 0.51763-0.58323 0.51263-1.1333-0.00554-0.5882-0.19758-0.9648-0.61805-1.2118-0.25406-0.14927-0.47179-0.17602-1.6268-0.20206l-1.3333-0.029972zm0.84646 0.7798h0.76585c0.71004 0 0.7817 0.015857 0.98392 0.21808 0.18952 0.18948 0.21213 0.26944 0.17363 0.61082-0.03225 0.28603-0.10514 0.44531-0.26872 0.58601-0.19564 0.16827-0.31756 0.19379-0.93999 0.19379h-0.71469v-0.8046-0.80409zm-34.008 20.597c-0.06638-0.02213-16.963 34.612-17.032 34.91-0.023564 0.1034 0.54784 0.11699 3.9636 0.09819l3.9915-0.02223 4.4907-8.8475c2.4698-4.8662 4.515-8.8735 4.545-8.9054 0.03003-0.03191 2.082 3.9494 4.5599 8.8475l4.5057 8.9054 3.9822 0.02223c2.628 0.0146 3.9827-0.00685 3.9827-0.06305 0-0.13977-16.909-34.918-16.99-34.945zm-77.029 1.9684c-1.0519 0.00743-2.0928 0.0725-2.7575 0.19275-2.8896 0.52279-5.3548 1.8643-7.0993 3.8633-0.84766 0.97136-1.3967 1.9577-1.7575 3.1559-0.19215 0.63818-0.22965 0.94676-0.26407 2.1575-0.045084 1.5857 0.051168 2.2365 0.50023 3.3693 0.73874 1.8636 2.5432 3.6253 4.855 4.7403 0.95076 0.45856 1.6376 0.68773 6.9851 2.3296 4.3336 1.3305 5.1844 1.6821 5.9955 2.4784 0.5375 0.5277 0.7782 1.044 0.7767 1.6655-0.002593 1.0811-1.2643 2.2524-2.9254 2.7151-0.76037 0.21179-2.8465 0.26486-3.8044 0.09716-2.817-0.49322-5.0601-2.1387-6.3061-4.6266-0.15159-0.30268-0.28799-0.56393-0.30282-0.58033-0.035471-0.0394-7.2597 2.1866-7.3339 2.2598-0.079147 0.07802 0.66682 1.7064 1.1116 2.4267 1.5506 2.5111 4.0622 4.7397 6.7283 5.9702 1.307 0.60322 3.0201 1.0829 4.6638 1.3059 1.1515 0.15609 4.2436 0.16109 5.3878 0.00878 3.263-0.43439 5.8633-1.6259 7.8631-3.6024 0.842-0.83219 1.3837-1.5642 1.8552-2.5068 1.0882-2.1756 1.2135-5.178 0.30902-7.4171-0.68556-1.6973-2.1306-3.0514-4.5532-4.2664-1.4603-0.73239-2.3227-1.0422-7.5324-2.7053-2.7085-0.86461-5.0345-1.629-5.1692-1.6986-0.39016-0.20176-0.90895-0.71096-1.1048-1.0847-0.24591-0.46915-0.24639-1.2347-0.001034-1.7027 0.38504-0.73448 1.2377-1.3104 2.3952-1.617 0.74686-0.19731 2.503-0.19374 3.4287 0.00724 2.1545 0.46776 4.0547 1.7485 5.2105 3.5114l0.13074 0.19895 3.3833-0.99632c1.8606-0.54806 3.4496-1.0148 3.5311-1.0371 0.2272-0.0623 0.18415-0.24646-0.27285-1.1638-0.54598-1.0959-1.305-2.0958-2.3482-3.0939-2.3717-2.2692-5.2643-3.6576-8.7535-4.2013-0.70934-0.11057-1.7727-0.16091-2.8246-0.15348zm20.697 0.63304v16.213 16.213h3.8943 3.8943l0.021187-9.3948 0.021704-9.3948 4.6566 6.3888c2.5612 3.5138 4.6947 6.3769 4.7413 6.3624 0.046566-0.0145 2.1801-2.8846 4.7413-6.3779l4.6566-6.3516 0.021704 9.3839 0.021704 9.3839h3.8943 3.8943v-16.213-16.213h-3.7135-3.713l-4.8597 7.1086c-2.6726 3.9097-4.8801 7.1097-4.9056 7.1117-0.025581 0.00187-2.2516-3.197-4.9465-7.1086l-4.8994-7.1117h-3.7109-3.7109zm78.57 0v16.213 16.214h3.8525 3.8525v-5.334-5.334l2.7301 0.00207 2.7306 0.0031 3.4318 5.3103 3.4313 5.3098 4.4638 0.02223c2.455 0.0121 4.4612-0.00708 4.4592-0.04238-0.00245-0.03533-1.7482-2.6508-3.8794-5.812l-3.8747-5.7474 0.82683-0.41393c2.8497-1.4266 4.9111-4.1821 5.5475-7.414 0.17579-0.89268 0.19839-3.0859 0.04031-3.9176-0.15645-0.82307-0.49936-1.9116-0.82527-2.6195-0.69091-1.5007-2.1513-3.2943-3.5264-4.3305-0.8242-0.62106-2.2972-1.3507-3.3218-1.6454-1.6047-0.46197-1.6499-0.463-11.154-0.46354l-8.7845-5.1e-4zm32.004 0v3.5135 3.5135h5.1645 5.1646v12.7 12.7h3.8948 3.8943v-12.7-12.7h5.1227 5.1222v-3.5135-3.5135h-14.182-14.182zm-24.299 6.9427h4.4695c4.8686 0 5.0035 0.01095 5.8947 0.48937 0.23571 0.12653 0.66164 0.46209 0.94672 0.74569 1.5303 1.5224 1.6006 3.7494 0.16898 5.3418-0.46707 0.51949-1.0506 0.90718-1.8128 1.2035l-0.56586 0.22014-9.1012 0.05064v-4.0256-4.0256zm-102.62 35.383v11.095 11.095h1.7353 1.7358v-4.1078-4.1072l5.5304 0.04444 2.6743 4.0809 2.6748 4.0809 4.1165 0.00827-2.8443-4.2349c-2.369-3.5277-2.8185-4.2436-2.6929-4.2871 1.3594-0.47055 2.1013-0.9081 2.9104-1.7157 2.4683-2.4637 2.7033-6.433 0.54622-9.2299-0.97677-1.2665-2.1059-2.0271-3.6856-2.4836-0.62198-0.17971-0.77158-0.18456-6.6688-0.21136l-6.0322-0.0279zm3.4711 3.1409 3.6618 0.00104c4.0539 0.00163 4.4189 0.03646 5.3123 0.51263 1.3724 0.73149 2.2157 2.4271 1.9637 3.9481-0.2491 1.5032-1.3681 2.73-2.852 3.1269v5.1e-4c-0.32361 0.08655-1.3258 0.11345-4.2545 0.11421l-3.8313 0.00103v-3.8525-3.852zm61.996 2.7192c-1.1194-0.01273-1.8172 0.09013-2.7719 0.38654-2.6775 0.8313-4.7968 3.1644-5.4451 5.994-0.21448 0.93606-0.18774 3.174 0.049093 4.1233 0.37374 1.4979 0.99605 2.638 2.0319 3.7222 1.2253 1.2825 2.6874 2.0733 4.4514 2.4071 0.9255 0.17513 3.2001 0.10566 4.1109-0.12557 1.9269-0.48922 3.6594-1.7302 4.792-3.4324 0.90701-1.3632 1.2298-2.439 1.2914-4.3041 0.05019-1.5205-0.04088-2.2732-0.40463-3.343-0.85222-2.5063-2.9815-4.4684-5.6276-5.1862-0.49618-0.13455-1.023-0.19604-1.9699-0.22944-0.1791-0.00632-0.34754-0.01059-0.50746-0.0124zm-37.355 0.0031c-1.2106-0.00431-1.9836 0.13079-2.9874 0.49712-2.0891 0.76243-3.8382 2.609-4.608 4.8653-0.63735 1.8682-0.59906 4.4652 0.093534 6.3226 0.96555 2.5894 3.1907 4.3971 6.0854 4.9439 0.41194 0.0777 1.0888 0.10635 2.0908 0.08785 1.2595-0.02327 1.6031-0.05939 2.2913-0.24185 2.0375-0.54013 3.8715-1.939 4.901-3.7383 0.15327-0.26788 0.24564-0.51524 0.20516-0.54984-0.040489-0.03455-0.70236-0.2469-1.4707-0.47129-0.76835-0.2244-1.4423-0.42433-1.4976-0.44493-0.055291-0.02057-0.18354 0.12463-0.28474 0.32298-0.23533 0.4613-0.91978 1.1859-1.4237 1.5069-0.87609 0.5581-2.3141 0.82809-3.6308 0.6811-1.3739-0.15338-2.3308-0.58571-3.1538-1.4247-0.74664-0.76116-1.0243-1.3467-1.3188-2.7818l-0.039274-0.19068h6.4735 6.4735l0.058911-0.39429c0.097429-0.64971-0.022422-2.4615-0.21446-3.2375-0.52876-2.1367-1.9786-3.9932-3.8334-4.9098-1.2207-0.60322-2.0006-0.78051-3.6633-0.83251-0.19276-0.00603-0.37431-0.00972-0.54725-0.01033zm19.274 0.00258c-0.17876-1e-5 -0.3668 0.00287-0.56586 0.00879-1.6372 0.04862-2.3246 0.20123-3.5264 0.78186-2.1457 1.0367-3.6743 2.9457-4.284 5.3506-0.16204 0.63918-0.18738 0.9558-0.18138 2.267 0.005856 1.2822 0.035644 1.6303 0.18914 2.1937 0.40446 1.4844 0.99614 2.536 2.0454 3.6375 1.2345 1.296 2.628 2.062 4.347 2.3885 0.9401 0.17855 3.2924 0.10572 4.162-0.12868 2.0823-0.56127 3.9852-2.0586 4.794-3.7729 0.13183-0.2794 0.26243-0.62308 0.29042-0.76326l0.050643-0.25477-1.4686-0.40101c-0.80776-0.22072-1.5108-0.40152-1.5627-0.40152s-0.19989 0.21531-0.32866 0.47852c-0.48168 0.98451-1.6046 1.8209-2.8841 2.1482-2.9184 0.74639-5.6471-1.0297-6.2647-4.0778-0.27367-1.3506-0.010064-2.9081 0.68575-4.0535 0.35224-0.57985 1.3115-1.5175 1.8154-1.7746 1.0856-0.55384 2.4783-0.73818 3.5931-0.47542 1.2653 0.29824 2.5561 1.2616 3.0536 2.2784 0.12941 0.26451 0.27851 0.48065 0.33125 0.48059 0.052743-7e-5 0.74367-0.18453 1.5353-0.41031 1.0193-0.2907 1.447-0.44965 1.4655-0.54415 0.014401-0.07343-0.059582-0.33658-0.16433-0.58446-0.67091-1.5876-2.3157-3.1487-4.0106-3.8065-1.0618-0.41211-1.8658-0.56472-3.1171-0.56482zm53.536 0.02842c-1.4648-0.00195-1.7312 0.01967-2.3647 0.19276-1.4919 0.40761-2.5659 1.0529-3.6608 2.1994-1.0559 1.1056-1.7647 2.4897-2.0696 4.0421-0.19803 1.0093-0.19494 2.9509 0.0062 3.8876 0.37582 1.7502 0.97517 2.8606 2.1962 4.069 1.24 1.2271 2.4961 1.8761 4.2437 2.1916h5.2e-4c0.90084 0.16244 2.7983 0.1687 3.6907 0.01241 1.6467-0.28839 2.9168-0.9173 4.1403-2.05 0.80902-0.74901 1.7637-2.0874 1.6676-2.3378-0.02268-0.05909-0.53107-0.24956-1.1302-0.42323-0.59909-0.17368-1.2672-0.36932-1.4842-0.43512l-0.39429-0.11988-0.3483 0.53846c-0.8827 1.3649-2.2126 1.9984-4.1966 1.9994-2.2075 0.00112-3.797-0.84043-4.6493-2.4624-0.27272-0.51899-0.55356-1.4282-0.55656-1.8025-0.00118-0.14017 0.36269-0.14831 6.4658-0.14831h6.4668l0.06046-0.72502c0.29769-3.5738-1.619-6.9172-4.6343-8.0832-1.2343-0.47731-1.6496-0.54319-3.4494-0.54519zm19.322 0.12454c-0.54643 0-1.1131 0.05231-1.4102 0.12971-1.1021 0.28706-2.2486 1.1089-2.8339 2.0319l-0.26096 0.41186v-1.1596-1.1596h-1.6934-1.6934v7.9587 7.9587h1.6934 1.6934l5.2e-4 -3.916c3e-4 -2.1537 0.03821-4.2396 0.08371-4.6354 0.35761-3.1091 1.8869-4.5974 4.5935-4.47l0.74104 0.03462v-1.5922-1.5927h-0.91364zm-30.228 0.25425c-1.4102 0-1.8707 0.02574-1.9017 0.10594-0.40765 1.0538-4.835 11.891-4.8746 11.932-0.03055 0.03158-1.1373-2.6355-2.4593-5.9268-1.322-3.2912-2.4296-6.0133-2.4614-6.0492-0.03169-0.0353-0.88102-0.05498-1.8872-0.04238l-1.8293 0.02326 3.3321 7.8507c1.8326 4.318 3.3564 7.8899 3.3858 7.9375 0.03384 0.0547 0.74533 0.08682 1.9374 0.08682h1.8841l3.3393-7.8863c1.8365-4.3374 3.3517-7.9188 3.3672-7.9587 0.01552-0.0399-0.80907-0.07235-1.8324-0.07235zm32.343 0 2.9399 6.2864c1.617 3.4576 3.254 6.9563 3.6375 7.7747l0.69712 1.4878-1.4521 3.4225c-0.79862 1.8822-1.4716 3.4699-1.4955 3.5285-0.03019 0.08178 0.34939 0.1049 1.7239 0.1049h1.7673l4.8245-11.228c2.6536-6.1754 4.8376-11.262 4.8534-11.304 0.01677-0.0448-0.74019-0.06756-1.8149-0.05426l-1.8438 0.02325-2.4267 5.8239-2.4267 5.8239-5.2328-11.685-3.7512-0.00414zm-94.039 2.5146c1.9395 0.00731 3.4133 0.83303 4.2018 2.3539 0.26368 0.50856 0.36772 0.83222 0.5364 1.6717 0.028073 0.14017-0.24572 0.14831-4.8002 0.14831h-4.8292l0.05271-0.40204c0.090208-0.68401 0.67952-1.7525 1.3146-2.3844 0.98371-0.97858 2.0357-1.3935 3.5238-1.3875zm72.517 0.00206c1.4443-0.00949 2.4734 0.3432 3.3584 1.1514 0.76134 0.69518 1.2811 1.65 1.4268 2.6216l0.05994 0.39894h-4.8354c-2.6596 0-4.8359-0.02986-4.8359-0.06666 0-0.23211 0.29297-1.1163 0.51728-1.5606 0.30399-0.60219 1.0964-1.4668 1.6976-1.8526 0.7019-0.4504 1.5887-0.68495 2.6112-0.69195zm-35.285 0.13643c0.82319 0.0053 1.6442 0.18572 2.3477 0.53072 0.7867 0.38581 1.7714 1.3432 2.1844 2.1234 0.83295 1.5736 0.81794 3.8122-0.03617 5.3521-0.62855 1.1333-1.8514 2.0954-3.081 2.4241h-5.2e-4c-0.58346 0.156-1.685 0.21951-2.2495 0.12971-3.5186-0.55961-5.3784-4.4318-3.7419-7.7918 0.60708-1.2464 1.8-2.2361 3.1176-2.5864 0.47082-0.12517 0.96542-0.18508 1.4593-0.1819z" style="fill:#1b7dd7;stroke-width:.84282"/>
 </g>
</svg>
