<?xml version="1.0" encoding="UTF-8" standalone="no"?>
<!-- Created with Inkscape (http://www.inkscape.org/) -->

<svg
   width="500"
   height="500"
   viewBox="0 0 132.29166 132.29167"
   version="1.1"
   id="svg1"
   xml:space="preserve"
   inkscape:version="1.4 (86a8ad7, 2024-10-11)"
   sodipodi:docname="sunlightofthespirit.svg"
   xmlns:inkscape="http://www.inkscape.org/namespaces/inkscape"
   xmlns:sodipodi="http://sodipodi.sourceforge.net/DTD/sodipodi-0.dtd"
   xmlns="http://www.w3.org/2000/svg"
   xmlns:svg="http://www.w3.org/2000/svg"><sodipodi:namedview
     id="namedview1"
     pagecolor="#ffffff"
     bordercolor="#111111"
     borderopacity="1"
     inkscape:showpageshadow="0"
     inkscape:pageopacity="0"
     inkscape:pagecheckerboard="1"
     inkscape:deskcolor="#d1d1d1"
     inkscape:document-units="px"
     inkscape:zoom="1.1111933"
     inkscape:cx="211.48436"
     inkscape:cy="156.58842"
     inkscape:window-width="1920"
     inkscape:window-height="1115"
     inkscape:window-x="-9"
     inkscape:window-y="-9"
     inkscape:window-maximized="1"
     inkscape:current-layer="layer1" /><defs
     id="defs1" /><g
     inkscape:label="Layer 1"
     inkscape:groupmode="layer"
     id="layer1"><path
       style="fill:#5c80ac;fill-opacity:1;stroke-width:1.12652"
       d="m 20.932775,116.05138 0.819662,-0.12417 v -7.14001 -7.14001 l -0.745147,-0.33951 c -1.071694,-0.48829 -0.93016,-0.72384 0.670632,-1.1161 0.778679,-0.1908 1.650503,-0.41695 1.937384,-0.502555 0.419065,-0.125044 0.521604,0.02839 0.521604,0.780265 v 0.93589 l 0.77964,-0.61327 c 3.617873,-2.845818 8.014476,0.43988 7.027154,5.25157 -0.636824,3.10355 -2.684658,4.67365 -5.880528,4.50871 l -1.927517,-0.0995 6.25e-4,2.73906 6.26e-4,2.73904 1.117721,0.11693 c 0.614748,0.0644 -0.290607,0.11937 -2.011898,0.12236 -1.721292,0.003 -2.760772,-0.0505 -2.309958,-0.11872 z m 7.471549,-6.92959 c 0.409033,-0.48611 0.836947,-1.43577 0.950922,-2.11038 0.640816,-3.79296 -1.543279,-6.51747 -4.206581,-5.24743 l -1.011755,0.48247 v 2.67332 c 0,2.98411 0.273011,3.85254 1.438431,4.57555 1.173579,0.72805 1.993109,0.61985 2.828983,-0.37353 z m -17.605557,1.10376 -1.266751,-0.30463 v -2.04406 c 0,-1.12424 0.064809,-2.04407 0.144009,-2.04407 0.079206,0 0.477138,0.65742 0.884297,1.46091 1.013028,1.99911 1.991842,2.71356 3.70632,2.70531 2.020065,-0.0106 3.312968,-1.26333 3.312968,-3.21224 0,-1.3232 -0.971341,-2.29244 -3.185884,-3.17899 -2.689773,-1.07679 -3.510336,-1.71185 -4.092794,-3.16756 -0.7662112,-1.91495 -0.05334,-3.84084 1.83029,-4.94472 1.251214,-0.733264 1.476399,-0.7659 4.032891,-0.584428 1.489224,0.105671 2.745543,0.230058 2.791818,0.276336 0.04628,0.0463 0.176436,0.98502 0.289246,2.086117 0.251337,2.453193 -0.145912,2.628289 -1.207963,0.532428 -0.900114,-1.77629 -1.727179,-2.405228 -3.162932,-2.405228 -2.273005,0 -3.561253,2.647024 -1.989101,4.087091 0.368848,0.337868 1.850286,1.172714 3.292085,1.855204 3.020821,1.42996 3.783916,2.33605 3.785703,4.49511 0.0014,1.6986 -1.051713,3.33608 -2.679689,4.16661 -1.301536,0.66399 -4.227192,0.76361 -6.484513,0.22081 z m 74.291223,-0.0304 c -4.48695,-2.08239 -4.065992,-8.7849 0.649485,-10.341149 1.567939,-0.517469 3.751871,-0.206233 5.178736,0.738019 3.042669,2.01353 3.107411,6.71799 0.123782,8.99373 -0.925044,0.70555 -1.45629,0.86699 -3.08755,0.93828 -1.229577,0.0538 -2.30643,-0.0699 -2.864453,-0.32888 z m 3.565026,-0.37532 c 1.568806,-0.602 2.291132,-5.46422 1.155699,-7.77943 -1.106503,-2.25621 -3.198411,-2.436026 -4.406921,-0.37879 -0.483391,0.82287 -0.609202,1.54223 -0.599198,3.42603 0.02062,3.86814 1.4676,5.64656 3.85042,4.73219 z m 6.695452,0.0132 c -0.68399,-0.7276 -0.728071,-0.9983 -0.825054,-5.06699 l -0.102405,-4.29835 h -0.7172 c -0.394464,0 -0.717201,-0.14025 -0.717201,-0.31167 0,-0.194789 0.754545,-0.278625 2.01189,-0.22355 l 2.011901,0.0881 0.02681,3.93575 c 0.0303,4.45108 0.188265,4.85699 1.890114,4.85699 2.013607,0 2.137247,-0.27092 2.042117,-4.47401 -0.0816,-3.60422 -0.10556,-3.72565 -0.75489,-3.81786 -1.435309,-0.20385 -0.57121,-0.649909 1.25899,-0.649909 h 1.92962 l 0.0822,4.545409 c 0.0813,4.49271 0.0902,4.54652 0.77009,4.64288 1.04158,0.14765 0.63312,0.69229 -0.85224,1.13638 -1.9696,0.58886 -2.36907,0.52977 -2.36907,-0.35043 v -0.7559 l -1.112402,0.7559 c -1.558328,1.05891 -3.571131,1.05329 -4.573285,-0.0127 z m 10.694052,0.3961 c -0.50944,-0.40331 -0.92336,-3.11468 -0.5141,-3.36762 0.1371,-0.0847 0.47186,0.28624 0.74393,0.82437 0.82793,1.63768 1.62537,2.3197 2.71232,2.3197 1.02495,0 2.18348,-0.84847 2.18348,-1.59913 0,-0.77165 -1.15272,-1.86911 -2.39324,-2.27852 -0.68416,-0.2258 -1.6327,-0.77371 -2.10787,-1.21759 -0.70072,-0.65456 -0.86395,-1.05549 -0.86395,-2.12199 0,-1.07864 0.16435,-1.47227 0.91455,-2.19037 0.82732,-0.79195 1.10444,-0.874783 2.90606,-0.868654 2.79646,0.009 3.03475,0.148678 3.03475,1.772224 0,1.62172 -0.39919,1.71849 -1.23628,0.29971 -0.98478,-1.66909 -2.39481,-2.128148 -3.33745,-1.08655 -1.08449,1.19836 -0.4101,2.28597 1.90448,3.07138 2.55865,0.86824 3.64597,2.64518 2.82333,4.61404 -0.62719,1.50109 -2.00537,2.19913 -4.34447,2.20046 -1.11589,6.3e-4 -2.1569,-0.15879 -2.42554,-0.37146 z m 10.18961,-0.29806 c -1.63988,-1.11609 -2.19163,-2.11314 -2.32456,-4.2006 -0.14515,-2.27957 0.54885,-3.89092 2.22711,-5.17099 0.95785,-0.730593 1.35898,-0.836937 3.15682,-0.836937 1.9494,0 2.10608,0.05205 2.92929,0.973397 0.54918,0.61464 0.86972,1.30122 0.86972,1.86287 v 0.88948 h -3.25856 c -3.72137,0 -3.84631,0.0911 -3.324,2.42471 0.41486,1.85359 1.70129,2.94036 3.48058,2.94036 1.11313,0 1.52152,-0.16204 2.25366,-0.89417 0.9688,-0.9688 1.14639,-1.05928 1.14639,-0.58406 0,0.54754 -1.30348,2.09448 -2.26624,2.68949 -1.32533,0.8191 -3.61358,0.77533 -4.89021,-0.0935 z m 4.33396,-7.89857 c -0.40402,-1.61888 -1.54344,-2.278932 -2.55626,-1.48081 -0.54229,0.42734 -1.47661,1.73633 -1.47661,2.06874 0,0.12746 0.95342,0.23174 2.11873,0.23174 h 2.11871 z m -88.234556,7.97306 c 0.101323,-0.16393 0.444548,-0.29805 0.762738,-0.29805 0.545078,0 0.578528,-0.24095 0.578528,-4.16716 v -4.16715 l -0.745148,-0.18696 c -1.132921,-0.28434 -0.902816,-0.56583 0.819663,-1.00268 0.860645,-0.218277 1.732468,-0.459172 1.937382,-0.535325 0.288937,-0.107357 0.372576,1.006175 0.372576,4.960425 0,4.84851 0.02841,5.0989 0.578526,5.0989 0.31819,0 0.661423,0.13413 0.762739,0.29805 0.117662,0.19039 -0.797592,0.29807 -2.533502,0.29807 -1.735909,0 -2.651165,-0.1077 -2.533502,-0.29807 z m 5.961182,0 c 0.101323,-0.16393 0.444546,-0.29805 0.762737,-0.29805 0.542831,0 0.578528,-0.23776 0.578528,-3.85349 0,-3.10575 -0.09089,-3.94436 -0.468379,-4.32185 -0.257608,-0.2576 -0.592925,-0.46838 -0.745147,-0.46838 -0.152224,0 -0.27677,-0.1182 -0.27677,-0.26268 0,-0.14446 0.637102,-0.41878 1.415781,-0.60959 0.778679,-0.1908 1.650502,-0.416953 1.937384,-0.502558 0.438885,-0.130958 0.521603,0.0436 0.521603,1.100758 v 1.2564 l 0.679854,-1.00883 c 0.888071,-1.31781 2.065535,-1.747433 3.140689,-1.145937 0.439654,0.245967 0.840042,0.727787 0.889749,1.070737 0.200799,1.38533 -1.952534,2.18163 -2.693051,0.99588 -0.539345,-0.86363 -0.78506,-0.74833 -1.42915,0.67063 -0.439959,0.96925 -0.576537,1.94925 -0.581546,4.17283 -0.0063,2.8156 0.01433,2.90622 0.664088,2.91064 0.368848,0.002 0.871822,0.13457 1.117721,0.29349 0.304682,0.1969 -0.531626,0.29038 -2.625607,0.29349 -1.973658,0.003 -3.006808,-0.10202 -2.888484,-0.29349 z m 8.941771,0 c 0.101323,-0.16393 0.448333,-0.29805 0.771149,-0.29805 0.559442,0 0.583054,-0.19201 0.504013,-4.09832 -0.07944,-3.92599 -0.11112,-4.11068 -0.753559,-4.39253 -0.368848,-0.16182 -0.670633,-0.37119 -0.670633,-0.46526 0,-0.0941 0.704164,-0.34962 1.56481,-0.56789 0.860645,-0.21828 1.732468,-0.459175 1.937385,-0.535328 0.288934,-0.107357 0.372573,1.006178 0.372573,4.960428 0,4.84851 0.02841,5.0989 0.578527,5.0989 0.318191,0 0.661422,0.13412 0.762738,0.29805 0.117663,0.19039 -0.797592,0.29806 -2.533502,0.29806 -1.735909,0 -2.651165,-0.10769 -2.533501,-0.29806 z m 6.664834,-0.275 c -0.703247,-0.5727 -0.703602,-0.57653 -0.615345,-6.62076 0.04856,-3.326244 0.138539,-6.097951 0.199931,-6.159335 0.06139,-0.06139 0.591692,-0.219898 1.178442,-0.35223 l 1.06682,-0.240613 v 1.756969 1.756957 h 1.788355 c 1.909068,0 1.953996,0.02771 1.479808,0.913782 -0.239437,0.44738 -0.629849,0.57652 -1.743059,0.57652 H 55.82176 l -0.192855,3.15196 c -0.27005,4.41364 0.01662,4.7704 3.082856,3.83672 l 0.745147,-0.22691 -0.595414,0.67343 c -1.359581,1.53771 -3.681657,1.97472 -4.960173,0.93351 z m 11.218705,0.275 c 0.10127,-0.16393 0.578683,-0.29805 1.060801,-0.29805 h 0.876592 v -7.00439 -7.004391 h -0.876592 c -0.482118,0 -0.959481,-0.134123 -1.060801,-0.298067 -0.118747,-0.192139 1.040118,-0.298055 3.261068,-0.298055 1.942767,0 3.445267,0.121755 3.445267,0.279176 0,0.153545 -0.435909,0.321205 -0.968698,0.372574 l -0.968685,0.09339 -0.0846,3.204134 -0.0846,3.204139 h 3.586791 3.586802 V 98.977361 95.69872 h -0.876592 c -0.482117,0 -0.959482,-0.134125 -1.060801,-0.298067 -0.118747,-0.19214 1.040118,-0.298055 3.261068,-0.298055 1.942766,0 3.445266,0.121754 3.445266,0.279174 0,0.153545 -0.435908,0.321206 -0.968697,0.372575 l -0.968685,0.09339 -0.07999,6.929873 -0.07998,6.92988 h 0.882078 c 0.485148,0 0.964979,0.13412 1.066298,0.29805 0.11877,0.19218 -1.045976,0.29805 -3.278653,0.29805 -2.232677,0 -3.397423,-0.10584 -3.278653,-0.29805 0.10127,-0.16393 0.578683,-0.29805 1.060801,-0.29805 h 0.876592 v -3.42768 -3.42768 h -3.576707 -3.576708 v 3.42768 3.42768 h 0.876581 c 0.482117,0 0.959482,0.13412 1.060801,0.29805 0.118769,0.19218 -1.045976,0.29805 -3.278653,0.29805 -2.232678,0 -3.397423,-0.10584 -3.278654,-0.29805 z M 33.6748,98.679379 c -0.327866,-0.327863 -0.596119,-0.797307 -0.596119,-1.043204 0,-0.245898 0.268253,-0.715343 0.596119,-1.043205 0.327865,-0.327863 0.797308,-0.596122 1.043207,-0.596122 0.245898,0 0.715341,0.268259 1.043205,0.596122 0.327866,0.327862 0.596119,0.797307 0.596119,1.043205 0,0.245897 -0.268253,0.715341 -0.596119,1.043204 -0.327864,0.327863 -0.797307,0.596122 -1.043205,0.596122 -0.245899,0 -0.715342,-0.268259 -1.043207,-0.596122 z m 14.902952,0 c -0.327865,-0.327863 -0.596118,-0.797307 -0.596118,-1.043204 0,-0.245898 0.268253,-0.715343 0.596118,-1.043205 0.327866,-0.327863 0.797308,-0.596122 1.043207,-0.596122 0.245899,0 0.715342,0.268259 1.043206,0.596122 0.327865,0.327862 0.596118,0.797307 0.596118,1.043205 0,0.245897 -0.268253,0.715341 -0.596118,1.043204 -0.327864,0.327863 -0.797307,0.596122 -1.043206,0.596122 -0.245899,0 -0.715341,-0.268259 -1.043207,-0.596122 z m 1.192236,-3.787199 c -1.023381,-0.374106 -1.788354,-1.396505 -1.788354,-2.390166 0,-0.781794 0.24949,-1.235591 1.117722,-2.033034 0.732644,-0.672906 0.953933,-1.027073 0.642314,-1.028008 -0.698148,-0.0022 -1.461976,-0.977247 -1.461976,-1.866467 0,-0.806737 0.515936,-1.48826 1.542644,-2.037744 l 0.601983,-0.322163 -0.602415,-0.42195 c -0.922605,-0.646218 -1.362711,-2.287359 -0.949313,-3.539962 0.739996,-2.242218 3.20508,-3.26509 5.770053,-2.394265 0.971249,0.329756 1.836087,0.416239 2.766682,0.276684 1.300913,-0.195079 1.34986,-0.175353 1.253587,0.505314 -0.08415,0.595006 -0.258537,0.700933 -1.089914,0.662091 -0.823175,-0.03841 -0.950816,0.03673 -0.758488,0.447094 0.49561,1.05732 0.18806,2.762548 -0.657405,3.645021 -1.02068,1.065363 -2.238901,1.482075 -4.093581,1.40029 -1.468647,-0.06478 -2.099484,0.344254 -1.786984,1.158617 0.112471,0.29311 0.867637,0.3996 2.833453,0.3996 1.8181,0 2.997319,0.150525 3.66635,0.468002 2.660025,1.262268 1.784525,5.238453 -1.479935,6.721283 -1.16678,0.529995 -4.462742,0.738594 -5.526423,0.349763 z m 5.98411,-1.554939 c 0.58224,-0.582231 0.871249,-1.172923 0.871249,-1.780694 0,-1.220936 -1.171036,-1.818939 -3.561907,-1.818939 -2.165941,0 -2.995393,0.613019 -2.995393,2.213808 0,1.486626 1.089846,2.257078 3.192745,2.257078 1.395387,0 1.743806,-0.121744 2.493306,-0.871253 z M 53.92619,84.687228 c 1.719231,-1.719232 0.561204,-6.176553 -1.439695,-5.541499 -1.519504,0.482276 -1.679596,4.913542 -0.212899,5.892884 0.545231,0.364058 1.042984,0.258233 1.652594,-0.351385 z m 34.730156,8.641542 c -1.029068,-0.417129 -1.418259,-1.082679 -1.043059,-1.783758 0.612558,-1.144559 2.180114,-0.680386 2.440543,0.722675 0.157645,0.849375 1.031873,0.903415 1.555986,0.0962 0.245999,-0.378872 0.863796,-2.566635 1.372904,-4.861688 0.509099,-2.295064 1.106088,-4.944059 1.326627,-5.886665 l 0.400997,-1.713845 h -1.041819 c -0.827544,0 -1.004599,-0.097 -0.860888,-0.471461 0.09947,-0.259314 0.180919,-0.527561 0.180919,-0.596122 0,-0.0686 0.439592,-0.124649 0.976875,-0.124649 0.91779,0 1.028324,-0.118083 1.827197,-1.951847 0.524723,-1.204456 1.2159,-2.230683 1.805061,-2.680053 1.599537,-1.220035 3.687231,-1.335988 4.758881,-0.264339 0.66322,0.663218 0.58113,1.231616 -0.25723,1.780931 -1.07721,0.705822 -2.08711,0.112742 -1.84755,-1.08501 0.19757,-0.987836 -0.20112,-1.127379 -1.207376,-0.42257 -0.52398,0.367021 -1.883039,3.53016 -1.883039,4.382702 0,0.132095 0.546341,0.240186 1.214098,0.240186 0.99526,0 1.196254,0.09395 1.115145,0.521602 -0.07209,0.379908 -0.440471,0.546408 -1.356153,0.612919 -1.202799,0.0873 -1.271235,0.14541 -1.581141,1.341259 -2.0702,7.988452 -3.004357,10.412323 -4.496954,11.66826 -0.923861,0.777379 -2.210901,0.957296 -3.400024,0.475303 z M 5.2101602,89.598009 C 5.0462276,89.54709 4.1408731,89.346885 3.1982611,89.153078 L 1.4844212,88.800679 v -1.916012 c 0,-2.094554 0.3646001,-2.477425 0.8779519,-0.921957 1.0077547,3.053518 5.0953232,4.043585 6.5879158,1.595686 C 9.6384014,86.429856 9.6842463,85.5315 9.1103564,84.421718 8.663678,83.557934 8.3433107,83.354123 5.5112256,82.131959 3.3727785,81.209135 2.5076934,80.450805 2.0657338,79.111652 1.6268486,77.781815 1.9453761,76.499641 3.0181606,75.277803 4.2482701,73.876781 5.5032994,73.534262 8.4938389,73.78337 l 2.4797971,0.20657 0.09885,1.941899 c 0.05436,1.068045 0.0031,2.000772 -0.114079,2.072723 -0.117114,0.07198 -0.553721,-0.5417 -0.9702408,-1.363667 -1.0651525,-2.101978 -2.8132605,-2.914043 -4.4250291,-2.055611 -0.9720885,0.517739 -1.3761495,1.180776 -1.3867062,2.275508 -0.012606,1.306958 0.9855854,2.203399 3.5406947,3.179756 3.5449544,1.35461 4.9530014,3.739672 3.8152754,6.462623 -0.852853,2.041168 -4.2926234,3.724981 -6.3222428,3.094838 z M 15.598838,89.523769 C 14.114363,89.251082 13.864503,88.498757 13.704843,83.820974 L 13.555813,79.45463 12.73615,79.36034 c -1.654312,-0.190349 -0.758048,-0.650838 1.266751,-0.650838 h 2.086414 v 4.165959 c 0,4.134562 0.0057,4.169699 0.758657,4.663037 0.64568,0.423065 0.935464,0.44412 1.945934,0.141378 l 1.187277,-0.355708 -0.08307,-3.934763 c -0.08074,-3.82469 -0.101832,-3.937421 -0.753698,-4.029998 -0.368848,-0.05238 -0.670633,-0.226172 -0.670633,-0.386195 0,-0.169192 0.841935,-0.254064 2.011899,-0.202819 l 2.011899,0.0881 0.08212,4.515001 0.08212,4.514989 0.780661,0.195936 c 1.020443,0.256114 0.629646,0.562191 -1.445159,1.131851 -1.797171,0.493428 -2.033233,0.444379 -2.033233,-0.42248 0,-0.676251 -0.03673,-0.675823 -1.249713,0.01475 -1.125674,0.640856 -2.190076,0.88521 -3.115532,0.715207 z m 8.700272,-0.360915 c -0.09408,-0.152216 0.132733,-0.319865 0.504012,-0.372574 0.65914,-0.09351 0.677006,-0.192118 0.757889,-4.180255 l 0.08284,-4.084432 -0.827983,-0.43798 c -0.933709,-0.493913 -0.868009,-0.54197 1.615673,-1.181768 l 1.549478,-0.399149 0.08985,0.853003 0.08985,0.853002 1.068422,-0.72886 c 2.007801,-1.369682 4.521919,-1.209186 5.205869,0.332336 0.129976,0.292941 0.313888,2.410398 0.408694,4.70545 0.167255,4.048947 0.192415,4.17568 0.847426,4.268653 0.371281,0.05272 0.598085,0.220358 0.504013,0.372574 -0.21815,0.352974 -5.202863,0.365861 -5.202863,0.01341 0,-0.144814 0.268253,-0.333439 0.596117,-0.419179 0.557727,-0.145851 0.596119,-0.406562 0.596119,-4.048079 0,-3.543038 -0.05172,-3.919859 -0.576523,-4.200723 -0.809183,-0.433069 -1.691088,-0.384291 -2.725743,0.15075 l -0.888189,0.459306 0.08333,3.788034 c 0.08078,3.672417 0.103795,3.79095 0.753963,3.88329 0.368847,0.05238 0.670633,0.220045 0.670633,0.372576 0,0.361861 -4.979236,0.362413 -5.202863,5.75e-4 z m 12.51848,0 c -0.09408,-0.152216 0.132733,-0.319865 0.504012,-0.372574 l 0.675053,-0.09587 v -6.557291 c 0,-6.514285 -0.0043,-6.559233 -0.670632,-6.85152 -1.211087,-0.531336 -0.928844,-0.710295 2.37929,-1.508639 l 0.814479,-0.196556 0.0797,7.557006 0.0797,7.557004 0.670633,0.09531 c 0.368848,0.05238 0.670632,0.220043 0.670632,0.372574 0,0.361862 -4.979235,0.362414 -5.202863,5.75e-4 z m 5.798981,-0.02129 c 0,-0.163932 0.268253,-0.298055 0.596119,-0.298055 0.568503,0 0.596117,-0.198708 0.596117,-4.289538 v -4.289552 l -0.788259,-0.19784 c -0.433543,-0.108822 -0.668266,-0.306302 -0.521604,-0.438882 0.261437,-0.236311 2.765603,-0.918195 3.372028,-0.918195 0.196313,0 0.33751,1.809274 0.389616,4.992489 l 0.08171,4.992488 0.824716,0.09485 c 0.453594,0.05216 0.747462,0.219796 0.653043,0.372575 -0.234572,0.379547 -5.203497,0.360171 -5.203497,-0.02028 z m 16.257388,0.02129 c -0.09408,-0.152216 0.132734,-0.319865 0.504014,-0.372574 l 0.675054,-0.09587 0.0802,-6.624706 0.0802,-6.624707 -0.75083,-0.188455 c -0.412959,-0.103638 -0.750832,-0.290347 -0.750832,-0.414907 0,-0.193492 3.078513,-1.199206 3.670783,-1.199206 0.112201,0 0.20399,1.4773 0.20399,3.282878 v 3.282878 l 1.117714,-0.722123 c 2.136123,-1.380069 4.012818,-1.270413 5.038123,0.294394 0.409401,0.624814 0.559375,1.686257 0.686221,4.856764 0.157331,3.932251 0.183116,4.060144 0.837377,4.153015 0.37128,0.05272 0.598083,0.22036 0.504018,0.372576 -0.09407,0.152214 -1.295287,0.276752 -2.669362,0.276752 -1.374076,0 -2.575298,-0.124538 -2.669362,-0.276752 -0.09407,-0.152216 0.132727,-0.319865 0.504006,-0.372576 0.65488,-0.09293 0.677626,-0.20719 0.760831,-3.821558 0.08065,-3.505096 0.04787,-3.756625 -0.554621,-4.247338 -0.789028,-0.64267 -1.528895,-0.659839 -2.684391,-0.0623 l -0.888183,0.459306 0.08336,3.788032 c 0.08077,3.672418 0.103751,3.790952 0.753958,3.883292 0.368847,0.05238 0.670631,0.220043 0.670631,0.372574 0,0.361862 -4.979235,0.362415 -5.202863,5.75e-4 z m 13.970935,-0.05115 c -1.450533,-0.409521 -1.614656,-1.166037 -1.614656,-7.44302 v -5.656471 l 0.764549,-0.290677 c 1.652326,-0.628217 1.917983,-0.441417 1.917983,1.348639 v 1.639326 h 1.788353 c 1.909073,0 1.953999,0.02771 1.479812,0.913768 -0.239656,0.447803 -0.629907,0.57652 -1.747845,0.57652 H 73.9938 l -0.189548,1.382874 c -0.349831,2.552317 -0.226037,5.369208 0.253445,5.767141 0.450474,0.37386 1.903417,0.29792 2.984698,-0.156012 0.536642,-0.225282 0.55416,-0.198696 0.175501,0.266557 -1.165196,1.431664 -2.870367,2.075584 -4.373002,1.651359 z m 10.799294,-0.454018 c -0.729828,-0.72983 -1.380271,-2.3334 -1.384101,-3.412305 -0.0078,-2.316423 3.054047,-6.299298 5.144839,-6.691531 2.469685,-0.463316 4.66877,2.001774 4.284795,4.80312 -0.310932,2.268534 -1.933946,4.668782 -3.82789,5.660999 -1.360084,0.712538 -3.311525,0.545835 -4.217643,-0.360283 z m 3.614391,-0.68736 c 1.132932,-1.132932 1.818105,-2.607583 2.222876,-4.784092 0.430737,-2.316175 0.06692,-3.695827 -1.007877,-3.822043 -2.061423,-0.2421 -5.050357,6.604215 -3.856852,8.834301 0.486365,0.908777 1.601194,0.812494 2.641853,-0.228166 z m 17.130731,1.161952 c -0.36884,-0.148262 -0.67063,-0.380066 -0.67063,-0.515125 0,-0.135059 0.60357,-2.0451 1.34126,-4.244533 0.73769,-2.199434 1.34127,-4.10515 1.34127,-4.234925 0,-0.129775 -0.38982,-0.235961 -0.86627,-0.235961 -0.71148,0 -0.83918,-0.103635 -0.71462,-0.579945 0.10792,-0.412848 0.45802,-0.60608 1.21491,-0.67063 0.98688,-0.08415 1.09885,-0.19775 1.55851,-1.580984 0.3744,-1.126658 0.65825,-1.514226 1.16333,-1.588385 1.33837,-0.196489 1.54741,0.09137 1.06308,1.464118 -0.58965,1.671253 -0.56839,1.763593 0.40614,1.763593 0.99193,0 1.26081,0.200093 1.04046,0.774282 -0.0988,0.257376 -0.59672,0.417951 -1.29608,0.417951 -1.27622,0 -1.0185,-0.453661 -3.09029,5.439582 -1.01692,2.892651 -1.0186,2.906068 -0.3607,2.906068 0.44947,0 0.98086,-0.452998 1.66077,-1.41578 1.0299,-1.458351 1.68098,-1.31953 0.74369,0.15858 -1.45929,2.301351 -2.69107,2.8832 -4.53483,2.142094 z m 5.41621,-0.09317 c -0.0845,-0.22028 0.13402,-1.125632 0.48567,-2.011901 0.58981,-1.486536 4.45567,-12.752064 4.45567,-12.98432 0,-0.05633 -0.56333,-0.102405 -1.25185,-0.102405 -0.7374,0 -1.13549,-0.10792 -0.9687,-0.262581 0.3809,-0.353232 4.60502,-0.734763 4.60502,-0.415934 0,0.138461 -0.73661,2.452484 -1.63693,5.14227 -0.90032,2.689786 -1.53033,4.764187 -1.40002,4.609763 0.13029,-0.154423 0.79989,-1.030892 1.48796,-1.947712 0.68808,-0.916808 1.70554,-1.911686 2.26101,-2.210833 0.8764,-0.471968 1.13309,-0.492887 1.94111,-0.158198 1.4349,0.594353 1.43759,1.373749 0.0161,4.6831 -2.31216,5.382997 -2.14723,4.867027 -1.55552,4.86643 0.29836,-3.04e-4 0.89196,-0.580417 1.37295,-1.341745 0.90167,-1.427213 1.67939,-1.575857 0.95929,-0.183352 -0.75522,1.460435 -2.13811,2.717871 -2.98902,2.717871 -0.96359,0 -1.94723,-0.489091 -1.94723,-0.968213 0,-0.19312 0.74528,-2.066695 1.65619,-4.163514 0.9109,-2.096818 1.57362,-3.945993 1.4727,-4.109283 -0.38974,-0.630594 -1.33898,-0.244839 -2.3866,0.969868 -1.28589,1.490964 -3.7683,5.592756 -4.33766,7.167285 -0.33234,0.919095 -0.54036,1.103857 -1.24281,1.103857 -0.46401,0 -0.91281,-0.180232 -0.99734,-0.400502 z m 12.87177,-0.46042 c -1.67802,-1.751461 -1.20944,-5.040084 1.0904,-7.652839 1.98793,-2.258407 4.3211,-3.0287 6.21199,-2.05089 0.78386,0.405357 0.8849,0.600865 0.80487,1.557384 -0.077,0.919185 -0.27568,1.196817 -1.24486,1.73873 -0.63434,0.354697 -1.97561,0.814026 -2.9806,1.020742 -1.00498,0.206717 -1.99492,0.506315 -2.19983,0.665786 -0.502,0.390656 -0.47428,2.944504 0.0397,3.647262 0.27826,0.380563 0.77776,0.563668 1.53759,0.563668 0.9469,0 1.30168,-0.198584 2.23636,-1.251849 1.09941,-1.238881 1.47701,-1.493194 1.47701,-0.994764 0,0.434725 -1.78442,2.530023 -2.62906,3.087054 -0.46819,0.30878 -1.36134,0.527517 -2.15864,0.528666 -1.11179,0.0012 -1.51055,-0.155156 -2.18483,-0.85895 z m 3.7256,-6.039163 c 1.51839,-0.454912 2.35275,-1.277476 2.35275,-2.319465 0,-2.033249 -2.21911,-1.099722 -3.7897,1.594221 -0.68788,1.179885 -0.46163,1.294071 1.43695,0.725244 z m -82.594844,-4.87416 c -0.49578,-0.597372 -0.473342,-1.938046 0.03802,-2.271552 0.225407,-0.147011 0.809789,-0.232357 1.298627,-0.189651 1.20714,0.105438 1.719799,1.406734 0.907726,2.304066 -0.645628,0.713415 -1.720263,0.788655 -2.244373,0.157137 z M 60.798168,66.377308 C 54.435035,64.902386 48.658818,60.995787 45.098095,55.758944 36.389973,42.951714 41.086529,25.304583 54.986022,18.605425 c 3.920494,-1.889561 6.612529,-2.489254 11.150375,-2.483925 4.068323,0.0045 6.302848,0.401042 9.526267,1.689378 10.455108,4.178677 17.055955,15.133926 15.815924,26.249244 -0.668062,5.988289 -2.858528,10.63249 -7.115465,15.086128 -3.090467,3.233267 -7.276208,5.755651 -11.493558,6.926164 -2.341849,0.649981 -9.772897,0.837671 -12.071397,0.304894 z M 70.910463,65.748494 C 82.3082,63.350905 90.270292,54.108194 90.819246,42.637628 91.400452,30.492827 83.546215,20.118784 71.618122,17.276422 69.435,16.756204 68.369604,16.675546 65.269065,16.795791 c -4.173,0.161824 -6.265221,0.639257 -9.511441,2.170414 -9.284663,4.379333 -14.736485,13.434163 -14.25233,23.671423 0.62355,13.18474 11.208676,23.383113 24.414912,23.522846 1.58762,0.01679 3.83324,-0.168594 4.990257,-0.41198 z M 62.735561,65.402156 C 54.218672,64.031573 47.120549,58.469041 43.857979,50.608506 38.277655,37.163788 45.950111,21.852886 60.202055,17.992789 c 3.004505,-0.813755 9.260388,-0.735845 12.349121,0.153793 8.222667,2.368377 14.550095,8.706519 16.928432,16.957113 0.966207,3.351866 0.960642,9.363384 -0.01183,12.739819 -2.344057,8.138797 -8.707286,14.495538 -16.896305,16.879045 -2.069646,0.602397 -7.838736,1.000993 -9.835948,0.679597 z m 9.286521,-1.309571 C 85.071087,60.623966 92.62033,46.937261 88.482456,34.250095 86.490144,28.141448 82.321629,23.368779 76.446273,20.469493 72.763198,18.652018 70.360777,18.097961 66.163242,18.097961 c -4.155831,0 -6.54354,0.544166 -10.283043,2.343538 -10.512316,5.058333 -15.686481,17.395116 -11.929039,28.44246 3.956432,11.632391 16.321622,18.331763 28.070922,15.208626 z m -4.964663,-4.745329 c 0,-0.321487 -0.616005,-1.340798 -1.368883,-2.265144 -1.671127,-2.051678 -2.207825,-3.275239 -2.207825,-5.033302 0,-1.299308 0.75397,-3.741338 1.155125,-3.741338 0.10792,0 0.210558,0.546363 0.228064,1.214155 0.02399,0.914037 0.363833,1.70605 1.374931,3.204133 0.738695,1.094484 1.49333,2.282942 1.676954,2.641019 0.64117,1.250282 0.239678,4.564995 -0.552932,4.564995 -0.167998,0 -0.305434,-0.263031 -0.305434,-0.584518 z M 53.947303,55.386301 c 0.0024,-0.04101 0.197771,-0.611013 0.434005,-1.266751 0.236236,-0.655726 0.438352,-1.7958 0.449148,-2.533504 0.04268,-2.916003 2.744958,-6.25461 5.065346,-6.258124 l 0.736947,-0.0012 -0.660128,0.462381 c -0.941732,0.659613 -1.211786,1.287424 -1.861409,4.327288 -0.620049,2.901505 -1.332602,4.201467 -2.686799,4.901747 -0.761108,0.393584 -1.489579,0.575112 -1.47711,0.36808 z m 15.792648,-1.984898 c 0,-0.168437 -0.735664,-0.849725 -1.63481,-1.513956 -1.963472,-1.450499 -2.538021,-2.460009 -2.538021,-4.459417 0,-1.628197 0.417095,-2.027639 0.69039,-0.661167 0.103974,0.519912 0.703118,1.281768 1.560469,1.984312 0.765427,0.627214 1.644633,1.555175 1.953773,2.062144 0.607477,0.996195 0.746681,2.413192 0.266254,2.71012 -0.163932,0.101271 -0.298055,0.04641 -0.298055,-0.122036 z m 9.090798,-0.186788 c -0.491805,-0.225193 -1.430683,-0.416239 -2.086421,-0.424542 -1.917532,-0.02433 -3.384714,-0.570729 -4.686569,-1.745456 -1.157287,-1.044275 -2.019753,-2.514646 -2.019753,-3.44334 0,-0.279051 0.314074,-0.13383 0.905532,0.418673 0.60616,0.566235 1.468399,0.957431 2.608023,1.183243 2.774952,0.549855 4.045906,0.917834 4.771814,1.381589 1.088176,0.695211 2.388329,3.146129 1.625088,3.063477 -0.12295,-0.01329 -0.625919,-0.208452 -1.117714,-0.433644 z M 60.247845,51.3024 c -0.0065,-0.828536 -0.10022,-1.64968 -0.208428,-1.824786 -0.108214,-0.175096 -0.107143,-0.915954 0.0023,-1.646357 0.146926,-0.979782 0.506815,-1.651425 1.372503,-2.561452 1.29692,-1.36334 1.722644,-1.388913 1.029945,-0.06185 -0.341144,0.653552 -0.407733,1.408536 -0.27335,3.099457 0.16054,2.020114 0.110173,2.333715 -0.523022,3.255673 -1.056667,1.53857 -1.386573,1.477152 -1.400035,-0.260678 z m 11.10194,-4.141379 c -0.671948,-0.314874 -1.519375,-0.990517 -1.883163,-1.501417 -0.645869,-0.907042 -0.501336,-1.286286 0.216609,-0.568342 0.239227,0.239217 1.243624,0.33692 2.98463,0.290316 2.305857,-0.06173 2.745493,0.01206 3.625352,0.608119 1.377962,0.933583 1.460119,1.388766 0.245773,1.361662 -0.542792,-0.01216 -1.65752,0.06894 -2.477189,0.180074 -1.157333,0.156947 -1.763244,0.07424 -2.712012,-0.370412 z M 54.249227,45.338285 c -0.374623,-0.236918 -0.362221,-0.306831 0.08487,-0.478389 0.287983,-0.110511 0.929185,-0.790413 1.424893,-1.510902 0.495708,-0.72049 1.225716,-1.522551 1.622241,-1.782362 0.98966,-0.648449 2.68375,-0.993874 3.631392,-0.740429 l 0.78781,0.210694 -0.923377,0.382476 c -0.507854,0.210356 -1.492296,1.057174 -2.187646,1.881822 -1.618997,1.920034 -3.361306,2.71938 -4.440183,2.03709 z m 20.347319,-1.598962 c -0.525556,-0.192444 -1.129124,-0.537295 -1.341272,-0.766341 -0.322556,-0.348253 -0.292861,-0.383524 0.181382,-0.215435 0.79706,0.282509 2.471388,-0.317713 4.091777,-1.466845 0.759118,-0.538343 1.791948,-1.191714 2.295154,-1.451941 1.536487,-0.794547 4.819308,-0.500593 4.819308,0.431537 0,0.158163 -0.255957,0.287567 -0.568792,0.287567 -0.312836,0 -1.317468,0.609865 -2.232508,1.355252 -0.915029,0.745386 -2.130164,1.55014 -2.700274,1.788354 -1.223663,0.511272 -3.206782,0.527798 -4.544775,0.03785 z M 48.354208,43.247337 c -0.893112,-0.380597 -0.8477,-0.792048 0.114062,-1.033439 0.43158,-0.108259 1.404263,-0.719374 2.161513,-1.357898 2.467372,-2.080518 4.958722,-2.615786 7.479828,-1.607041 1.22345,0.48953 1.673219,1.079242 0.611336,0.801554 -0.876494,-0.229214 -2.256557,0.350259 -4.524121,1.899622 -1.674826,1.144355 -2.310507,1.406586 -3.602814,1.486254 -0.863044,0.05318 -1.870956,-0.03188 -2.239804,-0.189052 z m 22.27992,-1.497239 c 0,-0.163932 0.274116,-0.298056 0.609167,-0.298056 0.35517,0 1.256162,-0.693014 2.160917,-1.662116 0.853476,-0.914162 1.91395,-1.853039 2.356629,-2.08641 0.933595,-0.492166 2.207454,-0.557166 2.473787,-0.126237 0.10127,0.163931 0.04641,0.298055 -0.122037,0.298055 -0.168438,0 -0.849713,0.735664 -1.513944,1.634809 -0.664243,0.899145 -1.600698,1.838023 -2.081025,2.08641 -0.973518,0.503431 -3.883494,0.618483 -3.883494,0.153545 z m -0.728894,-4.098311 c 0.315651,-0.604503 0.381362,-1.40643 0.250335,-3.055106 -0.16054,-2.020114 -0.110173,-2.333716 0.523023,-3.255672 0.881695,-1.283797 1.525029,-1.545127 1.422899,-0.577986 -0.04089,0.387221 0.02613,1.443763 0.148915,2.347877 0.264,1.943723 -0.345381,3.828722 -1.542041,4.77001 -1.037335,0.815975 -1.308444,0.738627 -0.803131,-0.229123 z m -7.616768,0.04923 c -0.54198,-0.301029 -1.354642,-0.366143 -2.980588,-0.2388 -2.018021,0.158051 -2.334671,0.106907 -3.255671,-0.52559 -0.561125,-0.385373 -1.068997,-0.849488 -1.128603,-1.031377 -0.15931,-0.486129 4.64398,-0.825346 5.750365,-0.4061 0.952598,0.360971 2.106563,1.336417 2.546537,2.152582 0.328314,0.609065 0.09778,0.621254 -0.93204,0.04923 z m 9.87166,-0.424012 c 0.897917,-0.524633 1.479664,-1.796577 2.056714,-4.496841 0.31617,-1.479506 0.857115,-3.086401 1.202101,-3.570884 0.653755,-0.918115 2.001853,-1.766072 2.807756,-1.766072 0.425071,0 0.425488,0.06602 0.0045,0.708684 -0.255382,0.389777 -0.575856,1.702998 -0.712143,2.918279 -0.136286,1.21527 -0.460071,2.620099 -0.719532,3.121841 -0.855718,1.654772 -3.245195,3.40096 -4.619913,3.376143 -0.45739,-0.0078 -0.459125,-0.03424 -0.01938,-0.29115 z m -6.093044,-1.149244 c -0.107695,-0.538275 -0.731057,-1.322538 -1.688398,-2.124058 -1.643179,-1.375755 -2.388273,-2.528998 -2.388273,-3.696536 0,-0.884997 0.524295,-1.311509 0.783114,-0.637049 0.100485,0.261984 0.780342,0.887462 1.5107,1.389959 1.80132,1.239356 2.472638,2.421382 2.474012,4.356217 0.0012,1.682135 -0.411958,2.10743 -0.691155,0.711467 z M 61.769218,35.20506 c -0.545855,-0.874046 -1.840672,-1.439628 -4.134824,-1.806119 -1.125514,-0.179805 -2.5681,-0.620985 -3.205747,-0.98039 -1.754762,-0.989087 -3.172407,-3.84819 -1.451366,-2.92711 0.316698,0.169484 1.578084,0.432595 2.803078,0.584675 1.224995,0.152092 2.628569,0.484045 3.119053,0.737681 1.28739,0.665741 2.728091,2.236124 3.108269,3.388073 0.402405,1.219325 0.262942,1.806073 -0.238463,1.00319 z m 5.701962,-1.099542 c 0.289606,-0.912483 -0.290846,-2.402387 -1.791745,-4.599027 -1.138306,-1.66597 -1.428927,-2.35735 -1.536577,-3.655498 -0.129775,-1.56492 0.25295,-2.878671 0.838628,-2.878671 0.158164,0 0.287579,0.226375 0.287579,0.50306 0,0.276674 0.608074,1.277038 1.351286,2.223023 0.743201,0.945986 1.547965,2.190692 1.788354,2.766019 0.551895,1.32088 0.561087,3.470037 0.02039,4.76413 -0.461706,1.104994 -1.263181,1.838743 -0.957915,0.876964 z"
       id="path1" /></g></svg>
