<svg xmlns="http://www.w3.org/2000/svg" xml:space="preserve" viewBox="0 0 132.292 132.292">
  <path d="m20.933 116.051.82-.124v-14.28l-.746-.34c-1.071-.488-.93-.723.67-1.115a59.47 59.47 0 0 0 1.938-.503c.42-.125.522.028.522.78v.936l.78-.613c3.617-2.846 8.014.44 7.027 5.251-.637 3.104-2.685 4.674-5.88 4.51l-1.928-.1v5.478l1.119.117c.614.064-.291.12-2.012.122-1.722.003-2.761-.05-2.31-.119zm7.471-6.93c.41-.485.837-1.435.951-2.11.641-3.793-1.543-6.517-4.206-5.247l-1.012.482v2.674c0 2.984.273 3.852 1.438 4.575 1.174.728 1.993.62 2.83-.373zM10.8 110.227l-1.267-.305v-2.044c0-1.124.065-2.044.144-2.044.08 0 .477.657.884 1.46 1.013 2 1.992 2.714 3.707 2.706 2.02-.01 3.313-1.263 3.313-3.212 0-1.323-.972-2.293-3.186-3.18-2.69-1.076-3.51-1.711-4.093-3.167-.766-1.915-.053-3.84 1.83-4.945 1.251-.733 1.477-.765 4.033-.584 1.49.106 2.746.23 2.792.276.046.047.176.985.29 2.087.25 2.453-.147 2.628-1.209.532-.9-1.776-1.727-2.405-3.163-2.405-2.273 0-3.561 2.647-1.989 4.087.369.338 1.85 1.173 3.292 1.855 3.021 1.43 3.784 2.336 3.786 4.495.001 1.699-1.052 3.336-2.68 4.167-1.301.664-4.227.763-6.484.22zm74.291-.03c-4.487-2.083-4.066-8.786.65-10.342 1.567-.517 3.751-.206 5.178.738 3.043 2.014 3.108 6.718.124 8.994-.925.705-1.456.867-3.088.938-1.23.054-2.306-.07-2.864-.329zm3.565-.376c1.569-.602 2.291-5.464 1.156-7.78-1.107-2.256-3.199-2.436-4.407-.378-.484.822-.61 1.542-.6 3.426.021 3.868 1.468 5.646 3.851 4.732zm6.695.013c-.684-.728-.728-.998-.825-5.067l-.102-4.298h-.717c-.395 0-.717-.14-.717-.312 0-.195.754-.279 2.011-.224l2.012.089.027 3.935c.03 4.451.188 4.857 1.89 4.857 2.014 0 2.138-.27 2.042-4.474-.081-3.604-.105-3.725-.754-3.818-1.436-.203-.572-.65 1.259-.65h1.93l.081 4.546c.082 4.493.09 4.546.77 4.643 1.042.147.634.692-.852 1.136-1.97.59-2.369.53-2.369-.35v-.756l-1.112.756c-1.559 1.059-3.571 1.053-4.574-.013zm10.695.396c-.51-.403-.924-3.115-.515-3.367.138-.085.472.286.744.824.828 1.638 1.626 2.32 2.713 2.32 1.025 0 2.183-.849 2.183-1.6 0-.771-1.153-1.869-2.393-2.278-.684-.226-1.633-.774-2.108-1.218-.7-.654-.864-1.055-.864-2.122 0-1.078.164-1.472.915-2.19.827-.792 1.104-.875 2.906-.869 2.796.01 3.034.149 3.034 1.773 0 1.621-.399 1.718-1.236.3-.985-1.67-2.395-2.129-3.337-1.087-1.085 1.198-.41 2.286 1.904 3.071 2.559.868 3.646 2.645 2.824 4.614-.628 1.501-2.006 2.2-4.345 2.2-1.116.001-2.157-.158-2.425-.37zm10.19-.298c-1.64-1.116-2.192-2.113-2.325-4.2-.146-2.28.548-3.891 2.227-5.172.958-.73 1.359-.836 3.156-.836 1.95 0 2.107.052 2.93.973.549.615.87 1.301.87 1.863v.89h-3.26c-3.72 0-3.845.09-3.323 2.424.415 1.854 1.701 2.94 3.48 2.94 1.114 0 1.522-.162 2.254-.894.969-.969 1.147-1.06 1.147-.584 0 .548-1.304 2.095-2.267 2.69-1.325.819-3.613.775-4.89-.094zm4.333-7.899c-.404-1.618-1.543-2.278-2.556-1.48-.542.427-1.477 1.736-1.477 2.068 0 .128.954.232 2.119.232h2.119zm-88.234 7.974c.1-.164.444-.298.762-.298.545 0 .579-.241.579-4.168v-4.167l-.745-.187c-1.133-.284-.903-.566.82-1.002.86-.219 1.732-.46 1.937-.536.289-.107.372 1.006.372 4.96 0 4.85.029 5.1.579 5.1.318 0 .661.134.763.298.117.19-.798.298-2.534.298-1.736 0-2.651-.108-2.533-.298zm5.96 0c.102-.164.445-.298.763-.298.543 0 .579-.238.579-3.854 0-3.106-.09-3.944-.468-4.322-.258-.257-.593-.468-.746-.468a.27.27 0 0 1-.276-.263c0-.144.637-.419 1.415-.61.78-.19 1.651-.416 1.938-.502.439-.131.521.044.521 1.1v1.257l.68-1.009c.888-1.318 2.066-1.747 3.141-1.146.44.246.84.728.89 1.071.2 1.385-1.953 2.182-2.693.996-.54-.864-.785-.748-1.43.67-.44.97-.576 1.95-.581 4.173-.006 2.816.014 2.907.664 2.911.369.002.872.135 1.118.294.304.196-.532.29-2.626.293-1.973.003-3.007-.102-2.888-.293zm8.942 0c.102-.164.449-.298.772-.298.56 0 .583-.193.504-4.099-.08-3.926-.111-4.11-.754-4.392-.369-.162-.67-.372-.67-.466 0-.094.704-.35 1.564-.567.86-.219 1.733-.46 1.938-.536.289-.107.372 1.006.372 4.96 0 4.85.029 5.1.579 5.1.318 0 .661.134.762.298.118.19-.797.298-2.533.298-1.736 0-2.651-.108-2.534-.298zm6.665-.275c-.703-.573-.703-.577-.615-6.621.049-3.326.139-6.098.2-6.16.061-.06.592-.22 1.178-.352l1.067-.24v3.514h1.789c1.909 0 1.954.027 1.48.913-.24.448-.63.577-1.744.577h-1.434l-.193 3.152c-.27 4.413.017 4.77 3.083 3.837l.745-.227-.596.673c-1.36 1.538-3.681 1.975-4.96.934zm11.219.275c.101-.164.579-.298 1.06-.298h.877V95.699h-.876c-.482 0-.96-.134-1.061-.298-.119-.192 1.04-.298 3.261-.298 1.943 0 3.445.121 3.445.279 0 .153-.436.321-.968.372l-.969.094-.085 3.204-.084 3.204h7.173v-6.557h-.876c-.482 0-.96-.134-1.061-.298-.119-.192 1.04-.298 3.261-.298 1.943 0 3.445.121 3.445.279 0 .153-.436.321-.968.372l-.97.094-.08 6.93-.079 6.93h.882c.485 0 .965.134 1.066.298.12.192-1.046.298-3.278.298-2.233 0-3.398-.106-3.279-.298.101-.164.579-.299 1.06-.299h.877v-6.855H69.74v6.855h.877c.482 0 .96.135 1.06.299.12.192-1.046.298-3.278.298-2.233 0-3.398-.106-3.279-.298zM33.675 98.679c-.328-.327-.596-.797-.596-1.043 0-.246.268-.715.596-1.043.328-.328.797-.596 1.043-.596.246 0 .715.268 1.043.596.328.328.596.797.596 1.043 0 .246-.268.716-.596 1.043-.328.328-.797.597-1.043.597-.246 0-.715-.269-1.043-.597zm14.903 0c-.328-.327-.596-.797-.596-1.043 0-.246.268-.715.596-1.043.328-.328.797-.596 1.043-.596.246 0 .715.268 1.043.596.328.328.596.797.596 1.043 0 .246-.268.716-.596 1.043-.328.328-.797.597-1.043.597-.246 0-.715-.269-1.043-.597zm1.192-3.787c-1.023-.374-1.788-1.396-1.788-2.39 0-.782.25-1.236 1.117-2.033.733-.673.954-1.027.643-1.028-.698-.002-1.462-.977-1.462-1.866 0-.807.516-1.489 1.542-2.038l.602-.322-.602-.422c-.923-.647-1.363-2.288-.95-3.54.74-2.243 3.206-3.265 5.77-2.395.972.33 1.837.417 2.767.277 1.301-.195 1.35-.175 1.254.505-.084.595-.259.701-1.09.663-.823-.039-.95.036-.758.447.495 1.057.188 2.762-.658 3.645-1.02 1.065-2.239 1.482-4.093 1.4-1.47-.065-2.1.344-1.787 1.159.112.293.867.4 2.833.4 1.818 0 2.997.15 3.666.467 2.66 1.262 1.785 5.239-1.48 6.721-1.166.53-4.462.739-5.526.35zm5.984-1.555c.582-.582.871-1.173.871-1.78 0-1.221-1.17-1.82-3.562-1.82-2.166 0-2.995.614-2.995 2.214 0 1.487 1.09 2.257 3.193 2.257 1.395 0 1.744-.121 2.493-.87zm-1.828-8.65c1.72-1.719.561-6.176-1.44-5.541-1.519.482-1.68 4.913-.212 5.893.545.364 1.043.258 1.652-.352zm34.73 8.642c-1.029-.417-1.418-1.083-1.043-1.784.613-1.145 2.18-.68 2.44.723.158.85 1.033.903 1.557.096.246-.379.864-2.567 1.373-4.862a743.88 743.88 0 0 1 1.326-5.886l.401-1.714H93.67c-.828 0-1.005-.097-.861-.472.1-.26.18-.527.18-.596 0-.068.44-.125.977-.125.918 0 1.029-.118 1.828-1.951.524-1.205 1.216-2.231 1.805-2.68 1.6-1.22 3.687-1.336 4.759-.265.663.663.58 1.232-.258 1.781-1.077.706-2.087.113-1.847-1.085.197-.988-.201-1.127-1.208-.422-.524.367-1.883 3.53-1.883 4.382 0 .132.547.24 1.214.24.996 0 1.197.094 1.116.522-.072.38-.44.546-1.357.613-1.202.087-1.27.145-1.58 1.341-2.07 7.989-3.005 10.413-4.498 11.668-.923.778-2.21.958-3.4.476zM5.21 89.598c-.164-.05-1.07-.251-2.012-.445l-1.714-.352v-1.916c0-2.095.365-2.478.878-.922 1.008 3.053 5.096 4.043 6.588 1.595.688-1.128.734-2.027.16-3.136-.446-.864-.767-1.068-3.599-2.29-2.138-.923-3.003-1.681-3.445-3.02-.44-1.33-.12-2.612.952-3.834 1.23-1.401 2.485-1.744 5.476-1.495l2.48.207.098 1.942c.055 1.068.004 2-.114 2.073-.117.072-.553-.542-.97-1.364-1.065-2.102-2.813-2.914-4.425-2.056-.972.518-1.376 1.181-1.387 2.276-.012 1.307.986 2.203 3.541 3.18 3.545 1.354 4.953 3.74 3.815 6.462-.852 2.041-4.292 3.725-6.322 3.095zm10.389-.074c-1.485-.273-1.734-1.025-1.894-5.703l-.15-4.366-.819-.095c-1.654-.19-.758-.65 1.267-.65h2.086v4.165c0 4.135.006 4.17.759 4.663.646.424.935.445 1.946.142l1.187-.356-.083-3.935c-.08-3.824-.102-3.937-.754-4.03-.368-.052-.67-.226-.67-.386 0-.169.842-.254 2.012-.203l2.012.088.082 4.515.082 4.515.78.196c1.02.257.63.563-1.445 1.132-1.797.494-2.033.445-2.033-.422 0-.676-.037-.676-1.25.015-1.125.64-2.19.885-3.115.715zm8.7-.361c-.094-.152.133-.32.504-.373.66-.093.677-.192.758-4.18l.083-4.084-.828-.438c-.934-.494-.868-.542 1.616-1.182l1.549-.4.09.854.09.853 1.068-.73c2.008-1.369 4.522-1.208 5.206.333.13.293.314 2.41.409 4.706.167 4.049.192 4.175.847 4.268.371.053.598.22.504.373-.218.353-5.203.366-5.203.013 0-.145.269-.333.596-.419.558-.146.597-.406.597-4.048 0-3.543-.052-3.92-.577-4.2-.81-.434-1.691-.385-2.726.15l-.888.46.083 3.787c.081 3.673.104 3.791.754 3.884.37.052.671.22.671.372 0 .362-4.98.363-5.203 0zm12.519 0c-.094-.152.132-.32.504-.373l.675-.096v-6.557c0-6.514-.005-6.56-.671-6.851-1.211-.532-.929-.71 2.38-1.509l.814-.197.08 7.557.08 7.557.67.096c.369.052.67.22.67.372 0 .362-4.979.363-5.202 0zm5.799-.021c0-.164.268-.298.596-.298.568 0 .596-.2.596-4.29v-4.29l-.788-.197c-.434-.11-.669-.307-.522-.44.261-.236 2.766-.917 3.372-.917.196 0 .337 1.809.39 4.992l.081 4.992.825.095c.454.052.747.22.653.373-.235.38-5.203.36-5.203-.02zm16.257.02c-.094-.151.133-.319.504-.372l.675-.096.08-6.624.08-6.625-.75-.188c-.413-.104-.751-.29-.751-.415 0-.194 3.078-1.2 3.67-1.2.113 0 .205 1.478.205 3.283v3.283l1.117-.722c2.136-1.38 4.013-1.27 5.038.294.41.625.56 1.687.687 4.857.157 3.932.183 4.06.837 4.153.371.053.598.22.504.373-.094.152-1.295.277-2.67.277-1.373 0-2.575-.125-2.669-.277-.094-.152.133-.32.504-.373.655-.093.678-.207.761-3.821.08-3.505.048-3.757-.555-4.248-.789-.642-1.528-.66-2.684-.062l-.888.46.083 3.787c.081 3.673.104 3.791.754 3.884.37.052.67.22.67.372 0 .362-4.978.363-5.202 0zm13.97-.05c-1.45-.41-1.614-1.166-1.614-7.443v-5.657l.765-.29c1.652-.629 1.918-.442 1.918 1.348v1.64H75.7c1.91 0 1.954.027 1.48.913-.24.448-.63.577-1.748.577h-1.44l-.189 1.383c-.35 2.552-.226 5.369.254 5.767.45.374 1.903.298 2.984-.156.537-.225.555-.199.176.266-1.165 1.432-2.87 2.076-4.373 1.652zm10.8-.454c-.73-.73-1.38-2.334-1.384-3.413-.008-2.316 3.054-6.299 5.145-6.691 2.47-.463 4.669 2.002 4.285 4.803-.311 2.269-1.934 4.669-3.828 5.661-1.36.713-3.312.546-4.218-.36zm3.615-.688c1.133-1.133 1.818-2.607 2.222-4.784.431-2.316.067-3.696-1.007-3.822-2.062-.242-5.05 6.604-3.857 8.834.486.91 1.6.813 2.642-.228zm17.13 1.162c-.369-.148-.67-.38-.67-.515s.603-2.045 1.34-4.244c.739-2.2 1.342-4.106 1.342-4.235 0-.13-.39-.236-.866-.236-.712 0-.84-.104-.715-.58.108-.413.458-.606 1.215-.67.987-.085 1.1-.199 1.559-1.582.374-1.126.658-1.514 1.163-1.588 1.338-.197 1.547.091 1.063 1.464-.59 1.671-.568 1.764.406 1.764.992 0 1.261.2 1.04.774-.098.257-.596.418-1.295.418-1.277 0-1.019-.454-3.09 5.44-1.018 2.892-1.02 2.905-.361 2.905.45 0 .98-.453 1.66-1.415 1.03-1.459 1.681-1.32.744.158-1.46 2.302-2.69 2.883-4.535 2.142zm5.417-.093c-.085-.22.134-1.126.485-2.012.59-1.486 4.456-12.752 4.456-12.984 0-.056-.563-.103-1.252-.103-.737 0-1.135-.107-.969-.262.381-.353 4.605-.735 4.605-.416 0 .138-.736 2.452-1.637 5.142-.9 2.69-1.53 4.764-1.4 4.61.13-.154.8-1.03 1.488-1.948.688-.917 1.706-1.911 2.261-2.21.877-.473 1.133-.493 1.941-.159 1.435.595 1.438 1.374.017 4.683-2.313 5.383-2.148 4.867-1.556 4.867.298 0 .892-.58 1.373-1.342.902-1.427 1.68-1.576.96-.183-.756 1.46-2.139 2.718-2.99 2.718-.963 0-1.947-.49-1.947-.969 0-.193.745-2.066 1.656-4.163.911-2.097 1.574-3.946 1.473-4.11-.39-.63-1.34-.244-2.387.97-1.286 1.491-3.768 5.593-4.337 7.168-.333.919-.54 1.104-1.243 1.104-.464 0-.913-.18-.997-.4zm12.871-.46c-1.678-1.752-1.21-5.04 1.09-7.653 1.989-2.259 4.322-3.029 6.213-2.051.784.405.885.6.805 1.557-.077.92-.276 1.197-1.245 1.74-.635.354-1.976.813-2.98 1.02-1.006.207-1.996.506-2.2.666-.503.39-.475 2.944.039 3.647.278.38.778.564 1.538.564.946 0 1.301-.2 2.236-1.252 1.1-1.24 1.477-1.494 1.477-.995 0 .435-1.784 2.53-2.63 3.087-.467.309-1.36.527-2.158.529-1.112 0-1.51-.156-2.185-.86zm3.726-6.04c1.518-.454 2.353-1.277 2.353-2.319 0-2.033-2.22-1.1-3.79 1.594-.688 1.18-.462 1.294 1.437.726zm-82.595-4.874c-.496-.597-.473-1.938.038-2.271.225-.147.81-.233 1.299-.19 1.207.106 1.72 1.407.907 2.304-.645.714-1.72.789-2.244.157zm16.99-11.288c-6.363-1.475-12.14-5.381-15.7-10.618-8.708-12.807-4.011-30.454 9.888-37.154 3.92-1.89 6.613-2.489 11.15-2.484 4.069.005 6.303.402 9.527 1.69 10.455 4.179 17.056 15.134 15.816 26.25-.668 5.987-2.859 10.632-7.116 15.085-3.09 3.234-7.276 5.756-11.493 6.926-2.342.65-9.773.838-12.072.305zm10.112-.629c11.398-2.397 19.36-11.64 19.91-23.11.58-12.145-7.274-22.52-19.202-25.362-2.183-.52-3.248-.6-6.349-.48-4.173.162-6.265.639-9.511 2.17-9.285 4.38-14.737 13.434-14.253 23.672C42.13 55.822 52.714 66.02 65.92 66.16c1.588.017 3.833-.168 4.99-.412zm-8.174-.346c-8.517-1.37-15.615-6.933-18.878-14.793-5.58-13.445 2.092-28.756 16.344-32.616 3.005-.814 9.26-.736 12.35.154 8.222 2.368 14.55 8.706 16.928 16.957.966 3.352.96 9.363-.012 12.74-2.344 8.138-8.708 14.495-16.897 16.879-2.07.602-7.838 1-9.835.68zm9.286-1.31c13.05-3.468 20.598-17.155 16.46-29.842-1.992-6.109-6.16-10.881-12.036-13.78-3.683-1.818-6.085-2.372-10.283-2.372-4.156 0-6.543.544-10.283 2.343C45.368 25.5 40.194 37.837 43.951 48.884c3.957 11.632 16.322 18.332 28.071 15.209zm-4.965-4.745c0-.321-.616-1.34-1.368-2.265-1.672-2.052-2.208-3.275-2.208-5.033 0-1.3.754-3.742 1.155-3.742.108 0 .21.547.228 1.215.024.914.364 1.706 1.375 3.204.739 1.094 1.493 2.283 1.677 2.64.641 1.251.24 4.566-.553 4.566-.168 0-.306-.263-.306-.585zm-13.11-3.96c.003-.042.198-.612.434-1.267.237-.656.439-1.796.45-2.534.042-2.916 2.744-6.255 5.065-6.258l.737-.001-.66.462c-.942.66-1.212 1.288-1.862 4.327-.62 2.902-1.332 4.202-2.687 4.902-.76.394-1.49.575-1.477.368zM69.74 53.4c0-.168-.736-.85-1.635-1.514-1.963-1.45-2.538-2.46-2.538-4.459 0-1.628.417-2.028.69-.661.104.52.704 1.282 1.561 1.984.765.627 1.645 1.555 1.954 2.062.607.997.746 2.414.266 2.71-.164.102-.298.047-.298-.122zm9.09-.186c-.491-.226-1.43-.417-2.086-.425-1.917-.024-3.384-.57-4.686-1.745C70.9 50 70.038 48.53 70.038 47.6c0-.279.314-.134.906.419.606.566 1.468.957 2.608 1.183 2.775.55 4.045.918 4.771 1.382 1.089.695 2.389 3.146 1.625 3.063-.122-.013-.625-.208-1.117-.433zm-18.582-1.913c-.007-.828-.1-1.65-.209-1.824-.108-.175-.107-.916.003-1.647.147-.98.507-1.651 1.372-2.561 1.297-1.364 1.723-1.39 1.03-.062-.341.654-.408 1.408-.273 3.1.16 2.02.11 2.333-.523 3.255-1.057 1.539-1.387 1.477-1.4-.26zm11.102-4.141c-.672-.315-1.52-.99-1.883-1.501-.646-.907-.502-1.287.216-.569.24.24 1.244.337 2.985.29 2.306-.061 2.745.013 3.625.609 1.378.933 1.46 1.388.246 1.361-.543-.012-1.658.07-2.477.18-1.158.157-1.763.075-2.712-.37zm-17.1-1.823c-.375-.237-.363-.307.084-.478.288-.11.93-.79 1.425-1.511.496-.72 1.226-1.523 1.622-1.782.99-.649 2.684-.994 3.632-.74l.787.21-.923.382c-.508.21-1.492 1.058-2.188 1.882-1.619 1.92-3.36 2.72-4.44 2.037zm20.347-1.599c-.526-.192-1.13-.537-1.342-.766-.322-.348-.293-.384.182-.215.797.282 2.471-.318 4.091-1.467.76-.539 1.792-1.192 2.296-1.452 1.536-.795 4.819-.5 4.819.431 0 .158-.256.288-.569.288-.313 0-1.317.61-2.232 1.355-.915.746-2.13 1.55-2.7 1.788-1.224.512-3.207.528-4.545.038zm-26.243-.492c-.893-.38-.847-.792.114-1.033.432-.108 1.405-.72 2.162-1.358 2.467-2.08 4.959-2.616 7.48-1.607 1.223.49 1.673 1.08.61.802-.876-.23-2.256.35-4.523 1.9-1.675 1.143-2.31 1.406-3.603 1.485-.863.054-1.87-.031-2.24-.189zm22.28-1.497c0-.164.274-.298.61-.298.354 0 1.255-.693 2.16-1.662.854-.914 1.914-1.853 2.357-2.086.933-.493 2.207-.558 2.474-.127.1.164.046.298-.122.298-.169 0-.85.736-1.514 1.635-.665.9-1.601 1.838-2.081 2.087-.974.503-3.884.618-3.884.153zm-.729-4.098c.316-.605.382-1.407.25-3.055-.16-2.02-.11-2.334.524-3.256.881-1.284 1.525-1.545 1.422-.578-.04.387.027 1.444.15 2.348.263 1.944-.346 3.829-1.543 4.77-1.037.816-1.308.739-.803-.23zm-7.617.049c-.542-.301-1.354-.366-2.98-.239-2.018.158-2.335.107-3.256-.525-.56-.386-1.069-.85-1.128-1.032-.16-.486 4.644-.825 5.75-.406.953.361 2.107 1.337 2.547 2.153.328.609.097.621-.933.049zm9.872-.424c.898-.525 1.48-1.797 2.057-4.497.316-1.48.857-3.086 1.202-3.57.654-.919 2.002-1.767 2.808-1.767.425 0 .425.066.004.709-.255.39-.576 1.703-.712 2.918s-.46 2.62-.72 3.122c-.855 1.655-3.245 3.401-4.62 3.376-.457-.008-.459-.034-.019-.291zm-6.093-1.15c-.108-.538-.731-1.322-1.688-2.123-1.643-1.376-2.389-2.53-2.389-3.697 0-.885.525-1.311.784-.637.1.262.78.888 1.51 1.39 1.802 1.24 2.473 2.421 2.474 4.356.001 1.682-.412 2.108-.69.712zm-4.298-.922c-.546-.874-1.84-1.44-4.135-1.806-1.125-.18-2.568-.621-3.205-.98-1.755-.99-3.173-3.849-1.452-2.928.317.17 1.578.433 2.803.585 1.225.152 2.629.484 3.12.738 1.287.666 2.728 2.236 3.108 3.388.402 1.22.263 1.806-.239 1.003zm5.702-1.1c.29-.912-.29-2.402-1.792-4.599-1.138-1.665-1.428-2.357-1.536-3.655-.13-1.565.253-2.879.838-2.879.159 0 .288.227.288.503 0 .277.608 1.277 1.351 2.223.744.946 1.548 2.191 1.789 2.766.552 1.321.56 3.47.02 4.765-.462 1.105-1.263 1.838-.958.877z" style="fill:#5c80ac;fill-opacity:1;stroke-width:1.12652"/>
</svg>
