<?xml version="1.0" encoding="UTF-8" standalone="no"?>
<!-- Created with Inkscape (http://www.inkscape.org/) -->

<svg
   width="500"
   height="130"
   viewBox="0 0 132.29167 34.395833"
   version="1.1"
   id="svg1"
   xml:space="preserve"
   inkscape:version="1.4 (86a8ad7, 2024-10-11)"
   sodipodi:docname="suphr.svg"
   xmlns:inkscape="http://www.inkscape.org/namespaces/inkscape"
   xmlns:sodipodi="http://sodipodi.sourceforge.net/DTD/sodipodi-0.dtd"
   xmlns="http://www.w3.org/2000/svg"
   xmlns:svg="http://www.w3.org/2000/svg"><sodipodi:namedview
     id="namedview1"
     pagecolor="#ffffff"
     bordercolor="#111111"
     borderopacity="1"
     inkscape:showpageshadow="0"
     inkscape:pageopacity="0"
     inkscape:pagecheckerboard="1"
     inkscape:deskcolor="#d1d1d1"
     inkscape:document-units="px"
     inkscape:zoom="1.4142136"
     inkscape:cx="185.61553"
     inkscape:cy="222.73864"
     inkscape:window-width="1920"
     inkscape:window-height="1115"
     inkscape:window-x="-9"
     inkscape:window-y="-9"
     inkscape:window-maximized="1"
     inkscape:current-layer="layer1" /><defs
     id="defs1"><inkscape:path-effect
       effect="perspective-envelope"
       up_left_point="90.688605,247.48164"
       up_right_point="113.33759,247.48164"
       down_left_point="90.688605,278.17373"
       down_right_point="113.33759,278.17373"
       id="path-effect333"
       is_visible="true"
       lpeversion="1"
       deform_type="perspective"
       horizontal_mirror="false"
       vertical_mirror="false"
       overflow_perspective="false" /></defs><g
     inkscape:label="Layer 1"
     inkscape:groupmode="layer"
     id="layer1"><path
       id="path372"
       style="fill:#2d6eb6;fill-rule:evenodd;stroke-width:0.174546;fill-opacity:1"
       d="M 10.925961,3.4395855 C 6.2930067,3.4362459 3.5365912,6.906925 4.0155693,10.368273 c 0.1854253,1.339868 0.458813,2.310463 2.0198601,3.927543 2.7425662,2.169044 6.9875216,2.002919 6.4858486,4.274768 -0.214721,0.972372 -2.6301437,0.803715 -3.221007,0.62888 C 7.8154001,18.641504 6.7043359,16.916848 6.1172316,16.202461 L 2.38125,19.932921 c 3.6259398,4.085639 5.7687112,4.567731 9.357212,4.457364 5.142196,-0.592138 6.746742,-4.532258 5.975016,-8.051829 -0.157781,-0.71963 -0.675325,-2.28424 -2.303234,-3.44467 -0.850588,-0.646533 -1.85489,-1.024249 -2.837883,-1.418248 C 11.617244,11.046813 9.2742,10.739844 9.2916421,9.4139093 9.3332402,8.3775313 11.226091,8.5725773 11.475452,8.602794 c 1.804052,0.2186303 2.932571,2.506764 3.147488,2.4444 0.02905,-0.0088 1.461162,-1.4460066 3.632435,-3.6251825 -2.076942,-2.8621439 -4.338603,-3.9805091 -7.329414,-3.982426 z m 87.541874,0.490467 -2.629407,0.00668 -2.62906,0.00688 -0.0069,3.6966364 -0.0067,3.6969771 H 90.13737 87.078584 l 0.002,-3.6704006 c 0.0013,-2.0187346 0.002,-3.6854354 0.0013,-3.703536 -6.68e-4,-0.026116 -0.543881,-0.032795 -2.623884,-0.032795 h -2.622507 v 10.2335626 10.23391 l 2.629413,-0.0033 2.62906,-0.0033 -0.0089,-4.00969 -0.0086,-4.010038 0.430762,-0.0033 c 0.236851,-0.002 0.471805,-0.0047 0.522567,-0.0053 0.05076,-0.0013 1.234443,4.34e-4 2.629748,0.0033 l 2.536566,0.0053 0.0069,4.010726 0.0067,4.010726 2.372264,-0.004 c 1.304749,-0.002 2.443713,0.0067 2.530696,0.0193 l -3.48e-4,3.41e-4 c 0.132362,0.01944 0.325044,0.01476 0.348955,-0.0086 0.004,-0.004 0.01089,-18.7483135 0.0069,-20.3842966 z m -38.789798,0.002 -3.420163,0.00668 0.0065,10.2318395 0.0065,10.231498 2.319801,-0.0033 c 1.275754,-0.002 2.408502,0.0067 2.517232,0.0183 0.178081,0.01944 0.364513,0.0155 0.387957,-0.0079 0.0051,-0.0047 0.0086,-1.551725 0.0079,-3.437417 l -0.0014,-3.428447 1.799303,-0.0027 c 0.989644,-0.0013 1.894214,-0.01369 2.010192,-0.02725 0.431703,-0.05043 1.215734,-0.220942 1.400995,-0.304772 0.04569,-0.02071 0.09629,-0.0376 0.112518,-0.0376 0.03219,0 0.467992,-0.162699 0.595397,-0.222277 0.19781,-0.0925 0.532111,-0.256929 0.579867,-0.285449 0.02899,-0.0173 0.11183,-0.06646 0.184313,-0.109065 0.494134,-0.290291 0.866653,-0.581217 1.304,-1.018565 0.473027,-0.473027 0.765723,-0.857943 1.061705,-1.395812 0.238154,-0.432765 0.441455,-0.885014 0.441455,-0.981976 0,-0.0205 0.0092,-0.04609 0.02004,-0.05697 0.01089,-0.01089 0.02044,-0.02759 0.02177,-0.03727 0.0013,-0.0097 0.0095,-0.03553 0.01797,-0.05731 0.04128,-0.105545 0.176204,-0.634724 0.191566,-0.751063 0.0096,-0.07249 0.03333,-0.197089 0.05283,-0.276819 0.125348,-0.512081 0.117206,-1.86373 -0.01556,-2.5569245 -0.09912,-0.5177515 -0.275831,-1.1337941 -0.385196,-1.343354 -0.0191,-0.036669 -0.0348,-0.078053 -0.03486,-0.091812 C 70.860552,7.9492544 70.547198,7.319753 70.474214,7.209653 70.439683,7.1576221 70.400369,7.0975093 70.386543,7.0757351 70.372717,7.0539609 70.307154,6.9590762 70.24123,6.864846 70.175306,6.7706092 70.099144,6.6592536 70.071759,6.617709 70.044374,6.5761644 69.90713,6.4130383 69.766987,6.2549483 69.20928,5.6258211 68.541741,5.1108682 67.806495,4.7428176 67.523579,4.6011918 67.163396,4.4397689 67.130334,4.4397689 c -0.0099,0 -0.0551,-0.0177 -0.100789,-0.03934 -0.09372,-0.044483 -0.350491,-0.1229907 -0.663044,-0.2026068 -0.115978,-0.029589 -0.234714,-0.063653 -0.263702,-0.075936 -0.06452,-0.027385 -0.660619,-0.1258428 -0.94884,-0.1567007 -0.30393,-0.032528 -1.60254,-0.040276 -5.475912,-0.032795 z m 54.011923,0.00334 -3.76911,0.013826 V 14.173467 24.398059 l 2.34602,-0.0027 c 1.29025,-0.0013 2.44061,0.0072 2.55659,0.01897 v 3.48e-4 c 0.11598,0.01176 0.23471,0.01743 0.2637,0.01209 0.029,-0.0053 0.0675,-0.0095 0.0856,-0.0097 0.0262,-2.87e-4 0.0331,-0.709818 0.0331,-3.458817 v -3.458476 l 0.11839,0.130812 c 0.0652,0.07187 0.11833,0.137665 0.11839,0.146348 7e-5,0.0087 0.0208,0.04007 0.0463,0.06972 0.0254,0.02966 0.25989,0.31775 0.52084,0.640269 0.26095,0.322518 0.59553,0.735987 0.74381,0.918804 0.14828,0.182809 0.29275,0.362046 0.321,0.398314 0.0283,0.03627 0.15029,0.186095 0.27095,0.333078 0.12065,0.146982 0.24883,0.305146 0.2851,0.351366 0.0363,0.04622 0.0838,0.105538 0.10561,0.131854 0.0218,0.02632 0.25299,0.311531 0.51394,0.63405 0.7641,0.944385 1.0092,1.247033 1.06758,1.317118 0.1879,0.22559 0.51858,0.633595 0.57675,0.711715 0.0377,0.0507 0.075,0.0984 0.0828,0.105619 0.008,0.0073 0.16439,0.198091 0.34757,0.424202 0.18318,0.226104 0.37253,0.452609 0.42075,0.503238 l 0.0877,0.09181 3.14991,0.0033 c 1.73241,0.002 3.25361,0.01115 3.38047,0.0207 0.25016,0.0189 0.2673,0.0083 0.17119,-0.103547 -0.0326,-0.038 -0.0964,-0.113667 -0.14186,-0.168436 -0.0454,-0.05477 -0.16416,-0.196837 -0.26369,-0.31582 -0.0995,-0.118983 -0.20679,-0.249455 -0.23851,-0.28993 -0.0317,-0.04048 -0.16653,-0.203983 -0.2996,-0.363449 -0.13306,-0.159473 -0.27571,-0.331676 -0.31685,-0.382438 -0.0868,-0.107081 -0.49943,-0.606231 -0.89534,-1.083099 -0.15163,-0.182636 -0.30543,-0.371844 -0.3417,-0.420402 -0.0363,-0.04856 -0.0836,-0.107148 -0.10528,-0.130124 -0.0498,-0.05257 -0.43922,-0.518967 -0.5274,-0.631639 -0.0363,-0.04629 -0.33858,-0.414097 -0.67202,-0.817333 -0.33343,-0.403244 -0.64783,-0.784499 -0.6986,-0.847016 -0.0508,-0.06252 -0.16325,-0.198606 -0.25024,-0.302702 -0.087,-0.104102 -0.19363,-0.233772 -0.23712,-0.288207 -0.0435,-0.05444 -0.19839,-0.242635 -0.34412,-0.418332 -0.33182,-0.40005 -0.76436,-0.926458 -0.86842,-1.056522 -0.0957,-0.119598 -0.0911,-0.113881 -0.30028,-0.352755 -0.0925,-0.105712 -0.15779,-0.201251 -0.14497,-0.212272 0.0128,-0.01102 0.10044,-0.05323 0.19467,-0.09388 0.19167,-0.08273 0.68757,-0.339664 0.79007,-0.409355 0.0367,-0.02491 0.15441,-0.103086 0.26162,-0.173612 0.91211,-0.600046 1.68286,-1.496842 2.09821,-2.441642 0.0529,-0.120272 0.10718,-0.242308 0.12081,-0.271295 0.0495,-0.105278 0.16166,-0.45271 0.20848,-0.645792 0.0264,-0.108724 0.0605,-0.233331 0.0759,-0.276813 0.0317,-0.08933 0.12884,-0.742186 0.16671,-1.120382 0.07,-0.699359 -0.0868,-1.8939608 -0.34757,-2.648737 -0.16459,-0.4763407 -0.47723,-1.0975731 -0.72104,-1.432054 -0.35808,-0.4912618 -0.71682,-0.8811468 -1.12452,-1.2228947 -0.33399,-0.279952 -0.74356,-0.561006 -0.97507,-0.6689151 -0.0508,-0.023711 -0.0983,-0.050495 -0.10562,-0.059712 -0.0284,-0.036201 -0.59251,-0.2965765 -0.75106,-0.3465369 -0.058,-0.018301 -0.11735,-0.041945 -0.13185,-0.052833 -0.0145,-0.01082 -0.0973,-0.039474 -0.18431,-0.063519 -0.087,-0.024045 -0.18191,-0.054569 -0.2109,-0.067994 -0.0832,-0.038472 -0.47502,-0.1317072 -0.77764,-0.1850072 -0.15221,-0.02685 -0.34791,-0.062718 -0.43489,-0.07973 -0.27746,-0.054101 -1.48813,-0.066191 -5.35098,-0.052098 z M 28.666006,4.706476 c 0.05066,11.085755 -0.559513,15.251151 1.97499,17.966813 1.215634,1.302525 2.947706,2.794417 6.191085,2.781279 4.073251,-0.374743 5.776463,-1.939926 6.785445,-3.325246 2.251468,-3.091234 1.563946,-4.704274 1.574953,-17.422846 l -5.284012,0.1104473 c 0,12.5935177 1.15569,14.8703767 -2.906224,15.3746827 -4.066487,-0.421237 -3.017709,-2.771661 -3.017709,-15.465453 0,0 -5.318528,-0.02832 -5.318528,-0.019704 z m 87.668544,4.143956 c 0.73677,0.00401 1.75748,0.029455 1.79309,0.05143 0.0143,0.00882 0.12618,0.033596 0.24852,0.054903 0.12412,0.021641 0.29163,0.073111 0.37933,0.1166589 0.27653,0.1372041 0.57676,0.4737556 0.64268,0.720345 0.0165,0.061783 0.0385,0.1239125 0.049,0.1384064 0.0323,0.044483 0.0404,0.1439497 0.0411,0.5167027 4.7e-4,0.221716 -0.0109,0.382705 -0.0301,0.421778 -0.017,0.0348 -0.0487,0.118589 -0.0704,0.18639 -0.0823,0.257657 -0.39088,0.574565 -0.63681,0.653727 -0.058,0.01863 -0.11736,0.04328 -0.13185,0.0545 -0.0145,0.01135 -0.0915,0.03446 -0.1712,0.05143 -0.0967,0.02064 -0.66059,0.03567 -1.69369,0.04488 l -1.54871,0.01383 V 10.37363 8.8718522 l 0.53395,-0.017232 c 0.13553,-0.00468 0.34946,-0.00534 0.59505,-0.00401 z m -53.689198,0.002 c 0.733723,0.00401 1.744206,0.03019 1.78032,0.052499 0.01403,0.00868 0.119151,0.032127 0.233672,0.052098 0.114528,0.019971 0.276145,0.067406 0.358967,0.1052775 0.08282,0.037871 0.160935,0.069029 0.17396,0.069029 0.01302,0 0.03954,0.015162 0.05871,0.033797 0.01917,0.018635 0.07747,0.060046 0.12943,0.091812 0.118656,0.072549 0.335469,0.3002166 0.433172,0.4549202 0.09396,0.1487859 0.191994,0.3950073 0.22539,0.5657083 0.06145,0.314156 0.01823,1.070462 -0.06938,1.212542 -0.0179,0.02899 -0.04134,0.08246 -0.0521,0.118729 -0.0199,0.06725 -0.138065,0.250991 -0.235054,0.365526 -0.277714,0.327969 -0.681212,0.53322 -1.200459,0.610238 -0.07974,0.01182 -0.782602,0.02244 -1.561831,0.02384 l -1.416873,0.002 v -1.86832 -1.8679915 l 0.547074,-0.017633 c 0.136797,-0.00468 0.350481,-0.00534 0.59505,-0.00401 z M 9.904987,27.515435 v 4.585064 h 0.589874 c 0,0 -0.0033,-0.331783 -0.0017,-0.334454 0.29726,0.228021 0.618219,0.415025 1.005443,0.409014 l 3.45e-4,3.4e-4 c 0.763632,-0.01222 1.507936,-0.742459 1.484866,-1.620166 -0.04198,-0.904511 -0.688181,-1.584794 -1.495221,-1.584961 l 3.45e-4,3.47e-4 c -0.39443,0.01977 -0.693589,0.154877 -0.987495,0.392784 l 0.0052,-1.83865 z m 100.257123,0 -0.6023,0.0093 0.005,1.83865 c -0.29428,-0.237906 -0.59393,-0.373013 -0.98887,-0.392783 l 3.4e-4,-3.48e-4 c -0.80806,1.67e-4 -1.4549,0.680451 -1.49694,1.584961 -0.0231,0.877707 0.722,1.607971 1.48659,1.620167 l 3.4e-4,-3.41e-4 c 0.38771,0.006 0.70885,-0.180993 1.00648,-0.409014 0.001,0.0027 -0.001,0.334454 -0.001,0.334454 h 0.59057 z M 4.4397673,27.581025 c -0.078561,0.0013 -0.1603088,0.0067 -0.2460971,0.01416 -0.6604807,0.09153 -1.1142755,0.663705 -1.1082996,1.149029 0.028554,1.483397 1.7450698,1.175339 2.0395336,1.850038 0.238756,0.387441 -0.042453,0.683416 -0.042453,0.683416 -0.022536,0.02198 -0.149224,0.265405 -0.7144753,0.26439 -0.4830657,0.01376 -0.8057973,-0.242803 -1.1372927,-0.570544 l -0.4369692,0.43179 c 0,0 0.2464077,0.533935 1.2812234,0.763486 1.4232232,0.109559 1.712325,-0.873593 1.712325,-0.873593 0.3604898,-2.093201 -1.971659,-1.526751 -2.063695,-2.386418 -0.02126,-0.348868 0.030217,-0.751703 0.7876493,-0.748644 0.5116414,0.03059 0.8963726,0.454225 0.8963726,0.454225 L 5.8210879,28.199212 C 5.3782109,27.723185 4.9896952,27.570111 4.4397686,27.581032 Z m 74.4045057,0.0086 -6.68e-4,3.48e-4 c -0.666971,0.0151 -1.054058,0.375791 -1.217371,0.955045 -0.139695,0.492738 0.161336,0.887579 0.274749,1.024082 0.02204,0.02665 -0.0013,0.06225 0.0053,0.06626 -0.103681,0.03433 -0.465593,0.226479 -0.705156,0.820099 -0.174087,0.856487 0.336164,1.690038 1.437577,1.719226 l 0.0013,3.47e-4 c 0.700809,0.01857 1.202183,-0.481149 1.202183,-0.481149 l 0.348954,0.401072 0.762104,0.0033 c -0.84564,-0.972144 -2.377441,-2.586266 -2.377441,-2.586266 0,0 -0.372847,-0.462288 -0.354479,-0.711368 0.04949,-0.53443 0.441075,-0.68548 0.844598,-0.583315 0.260088,0.104476 0.371898,0.196636 0.538451,0.432826 0,0 0.278776,-0.257317 0.418672,-0.396237 -0.225597,-0.43873 -0.702912,-0.67484 -1.179052,-0.664086 z m -45.222844,0.129436 v 2.02124 0.899134 c 0,0.851037 0.7624,1.535948 1.709908,1.535948 0.947509,0 1.710254,-0.684911 1.710254,-1.535948 v -0.918464 -2.00191 h -0.643028 c 1.6e-5,0.002 3.46e-4,0.0047 3.46e-4,0.0069 v 2.004675 0.824581 c 0,0.570523 -0.432377,1.030293 -1.067572,1.030293 -0.635194,0 -1.090006,-0.45977 -1.090006,-1.030293 v -0.824581 -2.004675 c 0,-0.002 3.28e-4,-0.0047 3.45e-4,-0.0069 z m 66.519381,0.01383 v 4.37521 h 0.62301 v -1.894909 c 0.12344,-2.27e-4 0.23143,3.4e-5 0.34136,0 l 1.61017,1.962215 h 0.83009 l -1.62154,-1.976715 c 0.67846,-0.07401 1.2412,-0.468319 1.24636,-1.227029 0.005,-0.74568 -0.72938,-1.239206 -1.50937,-1.238772 z m -54.669789,0.02104 v 4.421463 h 0.620592 v -1.667108 c 0.33219,-6.68e-4 0.664624,-5.95e-4 0.996814,-6.68e-4 0.777231,-4.94e-4 1.473279,-0.438256 1.478999,-1.377872 0.005,-0.828027 -0.726964,-1.376276 -1.504195,-1.375795 z m 37.178606,0.0033 v 4.41801 h 0.596432 v -2.008468 l 2.2311,0.0027 v 2.005711 h 0.596426 v -4.41801 h -0.596426 v 1.815874 l -2.2311,-0.0027 v -1.813109 z m -14.923904,0.08146 a 0.38500767,0.37469655 0 0 0 -0.384854,0.374489 0.38500767,0.37469655 0 0 0 0.384854,0.374844 0.38500767,0.37469655 0 0 0 0.38519,-0.374844 0.38500767,0.37469655 0 0 0 -0.38519,-0.374489 z m 52.288207,0.01723 a 0.3678987,0.35804578 0 0 0 -0.36794,0.357585 0.3678987,0.35804578 0 0 0 0.36794,0.358272 0.3678987,0.35804578 0 0 0 0.36794,-0.358272 0.3678987,0.35804578 0 0 0 -0.36794,-0.357585 z m -103.221676,0.08388 v 1.237041 h -0.74554 v 0.519114 h 0.74554 v 2.479265 h 0.563296 v -2.479265 h 0.74554 v -0.519114 h -0.74554 v -1.237041 z m 48.772436,0 v 1.237041 h -0.745539 v 0.519114 h 0.745539 v 2.479265 h 0.563297 v -2.479265 h 0.745539 v -0.519114 h -0.745539 v -1.237041 z m 52.25404,0 v 1.237041 h -0.74554 v 0.519114 h 0.74554 v 2.479265 h 0.5633 v -2.479265 h 0.74554 v -0.519114 h -0.74554 v -1.237041 z m -17.05491,0.306154 c 0.30696,1.4e-5 0.61392,1.27e-4 0.92088,0 0.52291,-4.27e-4 0.86622,0.293377 0.86669,0.725862 4.6e-4,0.432478 -0.34205,0.742707 -0.86496,0.743128 -0.30753,1.07e-4 -0.61507,3.41e-4 -0.92261,3.41e-4 z m -53.754434,0.07766 c 0.521045,-4.74e-4 0.941128,0.326045 0.941589,0.806286 4.63e-4,0.480235 -0.418818,0.824468 -0.939863,0.824928 -0.306442,1.21e-4 -0.613057,3.41e-4 -0.919499,3.41e-4 v -1.631207 c 0.305864,1.3e-5 0.611908,-2.08e-4 0.917773,-3.48e-4 z m -19.819272,0.630944 v 3.47e-4 c -0.06852,3.01e-4 -0.139094,0.006 -0.21952,0.0169 -0.702284,0.09402 -1.234347,0.469728 -1.341971,1.379943 -0.116477,0.663418 0.268647,1.792176 1.536985,1.823461 l 3.46e-4,-3.41e-4 c 0.625136,0.01717 1.135118,-0.460791 1.170773,-0.546385 l -0.376912,-0.411772 c -0.404258,0.333599 -0.589566,0.386705 -0.92226,0.348607 -1.045596,-0.279117 -0.8339,-1.065499 -0.8339,-1.065499 -0.0061,-0.539032 0.528091,-0.812158 0.528091,-0.812158 0,0 0.539485,-0.309373 1.234972,0.220902 l 0.403144,-0.445256 c -0.34726,-0.30001 -0.723043,-0.489432 -1.179748,-0.508761 z m -12.555438,0.006 c -0.08727,-0.0013 -0.179339,0.004 -0.275436,0.01897 -0.501923,0.06546 -0.892976,0.537916 -0.888434,0.884981 -0.112597,0.8278 1.305336,0.92724 1.629832,1.228071 0.101702,0.130946 0.0093,0.309955 0.0093,0.309955 -0.01713,0.0157 -0.113377,0.190217 -0.542933,0.189489 -0.3671,0.0098 -0.612357,-0.173947 -0.864274,-0.40832 l -0.182933,0.189837 c -0.100594,0.104409 -0.182592,0.1992 -0.182243,0.210889 0.0011,0.03987 0.379194,0.578198 1.250159,0.590908 1.129615,0.01737 1.361474,-1.130975 0.846671,-1.584613 -0.371826,-0.327441 -1.228202,-0.402375 -1.327475,-0.666157 -0.109987,-0.30381 0.284266,-0.414237 0.640267,-0.356201 0.334259,0.06138 0.551216,0.328242 0.551216,0.328242 0.146865,-0.125008 0.277494,-0.266901 0.410737,-0.405901 -0.07563,-0.144037 -0.463573,-0.518487 -1.074474,-0.530162 z m 101.108284,0.002 v 3.48e-4 c -0.0696,2.93e-4 -0.14098,0.006 -0.22263,0.0169 -0.7129,0.09379 -1.25308,0.468479 -1.36233,1.376483 -0.11824,0.661808 0.27294,1.787768 1.56045,1.81898 v -3.41e-4 c 0.63459,0.0171 1.15287,-0.459629 1.18907,-0.545009 l -0.38278,-0.410738 c -0.41037,0.332791 -0.59835,0.385584 -0.93607,0.347579 -1.0614,-0.278442 -0.84702,-1.062741 -0.84702,-1.062741 -0.006,-0.537722 0.53603,-0.810086 0.53603,-0.810086 0,0 0.54762,-0.308773 1.25362,0.220213 l 0.4097,-0.44422 c -0.35252,-0.299282 -0.73444,-0.488096 -1.19804,-0.507379 z m -27.434822,0.002 c -0.8101,1.67e-4 -1.458597,0.681926 -1.50075,1.588073 -0.02311,0.87929 0.723859,1.610709 1.49039,1.622925 l 3.48e-4,-3.4e-4 c 0.388689,0.006 0.710854,-0.181267 1.00924,-0.409702 0.0013,0.0027 -0.0027,0.332383 -0.0027,0.332383 h 0.313061 0.312714 c 0,0 -1.47e-4,-3.044285 6.68e-4,-3.042215 l -0.637163,-0.01142 0.0053,0.314089 c -0.295021,-0.238334 -0.595357,-0.373674 -0.991287,-0.393478 z m -49.379227,0.004 c -0.08706,-0.0013 -0.178881,0.004 -0.274745,0.01897 -0.500704,0.06526 -0.762164,0.41552 -0.831829,0.750028 -0.03323,0.215123 -0.02497,0.657347 0.342741,0.827339 0.453379,0.209593 1.121939,0.389985 1.228415,0.530509 0.101454,0.130631 0.0093,0.30926 0.0093,0.30926 -0.01709,0.0157 -0.113038,0.18987 -0.541551,0.189148 -0.366209,0.0098 -0.610898,-0.173479 -0.862203,-0.407284 l -0.182243,0.189142 c -0.100349,0.104155 -0.182246,0.198893 -0.181898,0.210548 0.0011,0.03981 0.378205,0.576842 1.247054,0.589526 1.126871,0.01737 1.358151,-1.128284 0.844599,-1.580819 -0.370924,-0.326647 -1.225337,-0.401634 -1.324368,-0.664775 -0.109721,-0.303068 0.28375,-0.413061 0.638886,-0.355166 0.333447,0.06125 0.55018,0.327555 0.55018,0.327555 0.146508,-0.124701 0.276782,-0.266554 0.409702,-0.405214 -0.07545,-0.14369 -0.462641,-0.517137 -1.072058,-0.528779 z m -8.841202,0.02966 c -0.53623,0.01363 -1.608502,0.497327 -1.44897,1.875586 l -6.68e-4,-3.47e-4 c 0.125068,0.751537 0.794638,1.288938 1.58876,1.302277 v -3.41e-4 c 0.202532,0.0033 0.766457,-0.0366 1.24291,-0.540521 l -0.401763,-0.432137 c -0.250438,0.293263 -0.573403,0.361879 -0.949872,0.354478 -0.56032,-0.04475 -0.855877,-0.607026 -0.860477,-0.775221 l 2.331192,0.01516 c 0.177221,-0.439465 0.03567,-1.710203 -1.401339,-1.795509 -0.03046,-0.0033 -0.064,-0.0047 -0.09975,-0.0033 z m 11.819909,0 c -0.530316,0.01363 -1.591004,0.497594 -1.433438,1.875586 0.123841,0.751363 0.785845,1.288591 1.571156,1.30193 v -3.41e-4 c 0.200315,0.0033 0.757868,-0.0366 1.229105,-0.540521 l -0.397622,-0.432137 c -0.247697,0.293263 -0.56648,0.361879 -0.938827,0.354478 -0.554186,-0.04475 -0.846952,-0.607026 -0.851503,-0.775221 l 2.305995,0.01516 c 0.175281,-0.439465 0.03513,-1.710203 -1.386152,-1.795509 -0.03012,-0.0033 -0.06336,-0.0047 -0.09871,-0.0033 z m 28.350865,0.01864 a 1.5877232,1.5794393 0 0 0 -1.58772,1.579444 1.5877232,1.5794393 0 0 0 1.58772,1.579437 1.5877232,1.5794393 0 0 0 1.587725,-1.579437 1.5877232,1.5794393 0 0 0 -1.587725,-1.579444 z m 52.329287,0 a 1.5877232,1.5794393 0 0 0 -1.58772,1.579444 1.5877232,1.5794393 0 0 0 1.58772,1.579437 1.5877232,1.5794393 0 0 0 1.58772,-1.579437 1.5877232,1.5794393 0 0 0 -1.58772,-1.579444 z m -69.612341,6.68e-4 c -0.01693,-1.67e-4 -0.0343,2e-5 -0.05212,6.68e-4 -0.534446,0.01636 -1.446425,0.349963 -1.436199,1.73718 0.115411,0.91169 0.814565,1.419603 1.472096,1.418935 0.541999,0.01924 1.026004,-0.161476 1.334032,-0.522219 L 53.895619,31.22002 c 0,0 -0.172959,0.389898 -0.917083,0.365519 -0.719861,-0.08617 -0.869042,-0.618066 -0.873592,-0.786262 l 2.305995,0.01483 c 0.175281,-0.439465 0.03513,-1.709855 -1.386151,-1.795162 -0.01594,-6.68e-4 -0.03243,-0.0013 -0.04936,-0.0013 z m 6.514152,0 c -0.01693,-1.67e-4 -0.0343,2e-5 -0.05212,6.68e-4 -0.534446,0.01636 -1.446426,0.349963 -1.436199,1.73718 0.115411,0.91169 0.814565,1.419603 1.472096,1.418935 0.541999,0.01924 1.026004,-0.161476 1.334032,-0.522219 L 60.409771,31.22002 c 0,0 -0.172959,0.389898 -0.917082,0.365519 -0.719861,-0.08617 -0.869043,-0.618066 -0.873593,-0.786262 l 2.305995,0.01483 c 0.17528,-0.439465 0.03513,-1.709855 -1.386151,-1.795162 -0.01594,-6.68e-4 -0.03243,-0.0013 -0.04936,-0.0013 z m 45.670509,0 c -0.017,-1.67e-4 -0.0343,2e-5 -0.0521,6.68e-4 -0.53444,0.01636 -1.44643,0.349963 -1.4362,1.73718 0.11541,0.91169 0.81456,1.419603 1.4721,1.418935 0.542,0.01924 1.026,-0.161476 1.33403,-0.522219 l -0.39797,-0.432138 c 0,0 -0.17261,0.389898 -0.91673,0.365519 -0.71986,-0.08617 -0.86905,-0.618066 -0.87359,-0.786262 l 2.30599,0.01483 c 0.17527,-0.439465 0.0351,-1.709855 -1.38615,-1.795162 -0.016,-6.68e-4 -0.0324,-0.0013 -0.0494,-0.0013 z m -85.266599,0.01349 c -0.798646,1.6e-4 -1.437794,0.667833 -1.479344,1.555278 -0.02282,0.861143 0.713642,1.577487 1.469334,1.589449 l 3.46e-4,-3.4e-4 c 0.383196,0.006 0.700918,-0.177353 0.995088,-0.401073 0.0015,0.0027 -0.0027,0.325478 -0.0027,0.325478 h 0.308571 0.308225 c 0,0 -1.37e-4,-2.981421 6.68e-4,-2.979398 l -0.628186,-0.01102 0.0052,0.30753 c -0.290849,-0.233418 -0.586811,-0.36614 -0.97714,-0.385537 z m 106.260789,0.02418 c -0.0371,-4.7e-5 -0.058,0.002 -0.058,0.002 h -6.6e-4 c 0,0 -0.63337,-0.03146 -0.74451,0.382091 l -0.006,-0.329625 -0.58573,0.01516 -0.003,3.045662 0.60678,3.47e-4 0.028,-1.801033 c 0.0125,-0.640321 0.70274,-0.719997 0.70274,-0.719997 0,0 0.77498,0.02525 0.75865,0.724833 l 0.0124,1.799991 0.61887,0.0013 -6.7e-4,-1.76548 c -0.0295,-1.273897 -1.06939,-1.354782 -1.32886,-1.355082 z m -31.039991,0.02799 c -0.06686,-0.0013 -0.108343,0.004 -0.108724,0.004 h -3.47e-4 c -0.002,-1.07e-4 -0.58775,-0.03046 -0.875663,0.382431 l -0.0069,-0.329966 -0.587803,0.01516 0.01242,3.020822 0.573997,3.4e-4 -0.0067,-1.760303 c 0.0769,-0.882429 0.810775,-0.719998 0.810775,-0.719998 0,0 0.667733,0.0094 0.648897,0.708957 l 0.01449,1.771344 h 0.573309 v -3.4e-4 l -6.67e-4,-1.73511 c -1.94e-4,-0.06212 -0.0027,-0.120138 -0.0069,-0.176718 0.09849,-0.400965 0.35158,-0.568052 0.772115,-0.617144 -0.01623,-0.002 -0.03206,-0.0047 -0.04869,-0.0067 -0.09,-0.0071 -0.84747,-0.01176 -0.754863,-0.01176 0.275477,0 0.526842,-0.0096 0.754863,0.01176 0.0092,6.68e-4 0.08546,2.27e-4 0.07731,0.0013 -0.01062,0.0013 -0.01823,0.004 -0.02865,0.0053 0.390379,0.05136 0.674092,0.256908 0.674092,1.094841 v 0.831827 0.582974 h 0.596432 V 31.583415 30.65701 c 0,-1.26148 -0.48835,-1.519197 -1.205288,-1.566666 -0.549531,0.03246 -0.849888,0.184192 -1.0051,0.519809 -0.242047,-0.455976 -0.672,-0.522167 -0.872557,-0.526715 z m 1.0479,3.092269 c 0.04088,-2.7e-5 0.423474,-1.47e-4 0.689968,3.4e-4 -0.09891,-0.0033 -0.20035,-0.0047 -0.306155,-0.004 -0.123859,6.08e-4 -0.252307,0.0033 -0.383813,0.0033 z M 50.60558,29.086016 v 3.4e-4 c -0.04014,1.4e-5 -0.07986,0.002 -0.11908,0.0047 -0.353229,0.03787 -0.526828,0.209119 -0.655109,0.310643 l -6.67e-4,-0.257143 -0.578484,0.0013 -3.45e-4,3.030139 0.588493,3.41e-4 c -0.0037,0.002 -0.01001,-1.626031 -0.01001,-1.626031 0.02988,-0.538224 0.25116,-0.835508 0.625079,-0.902587 0.407149,-0.03146 0.552597,0.216753 0.552597,0.216753 l 0.412463,-0.422466 c -0.236049,-0.270568 -0.533948,-0.355574 -0.814916,-0.355514 z m 7.226556,0.01242 c 0,0 -0.636551,-2.2e-4 -0.632328,0.0027 0,0 -0.854059,2.008335 -0.929854,2.034698 -0.02109,0.0073 -0.646653,-1.476224 -0.873592,-2.02504 l -0.693421,-0.0033 c 0.06582,0.254792 0.857838,1.919535 1.400992,3.009427 0.03956,0.04301 0.08403,0.05871 0.165676,0.05871 0.06138,0 0.129127,-0.01489 0.150834,-0.03313 0.02172,-0.01823 0.05753,-0.06252 0.07939,-0.09906 0.02965,-0.04929 1.33205,-2.944652 1.332307,-2.945226 z m -34.139845,0.0076 c -0.02779,4.21e-4 -0.05372,0.002 -0.07732,0.004 l 3.45e-4,-6.68e-4 c -0.35722,0.05484 -0.490204,0.175102 -0.76901,0.362066 l -0.0055,-0.310636 -0.56088,0.01449 -0.0031,2.995273 0.581244,3.48e-4 0.02623,-1.822433 c 0.01195,-0.603466 0.672712,-0.67858 0.672712,-0.67858 0,0 0.776815,-0.09731 0.831484,0.683068 l 0.01208,1.821391 0.591945,0.0013 -3.45e-4,-1.788603 c -0.03593,-1.074276 -0.883063,-1.287509 -1.299863,-1.281224 z m 39.347922,0 c -0.02779,4.21e-4 -0.0537,0.002 -0.07731,0.004 v -6.68e-4 c -0.357217,0.05484 -0.489863,0.175102 -0.768668,0.362066 l -0.0055,-0.310636 -0.560881,0.01449 -0.0031,2.995273 0.581245,3.48e-4 0.02623,-1.822433 c 0.01195,-0.603466 0.672709,-0.67858 0.672709,-0.67858 0,0 0.776811,-0.09731 0.83148,0.683068 l 0.01176,1.821391 0.592291,0.0013 -6.68e-4,-1.788603 c -0.03593,-1.074276 -0.882716,-1.287509 -1.299518,-1.281224 z m 10.846912,0 c -0.02779,4.21e-4 -0.0537,0.002 -0.07732,0.004 l -6.68e-4,-6.68e-4 c -0.357217,0.05484 -0.489859,0.175102 -0.768669,0.362066 l -0.0053,-0.310636 -0.560879,0.01449 -0.0027,2.995273 0.580897,3.48e-4 0.02658,-1.822433 c 0.01196,-0.603466 0.672368,-0.67858 0.672368,-0.67858 0,0 0.777159,-0.09731 0.831828,0.683068 l 0.01175,1.821391 0.592292,0.0013 -6.68e-4,-1.788603 c -0.03593,-1.074276 -0.882717,-1.287509 -1.299512,-1.281224 z m 18.28125,0.002 v 3.47e-4 c -0.04014,1.4e-5 -0.07987,0.002 -0.119084,0.0047 h -3.41e-4 c -0.353229,0.0376 -0.526828,0.207422 -0.655109,0.308225 l -3.47e-4,-0.255419 -0.578479,0.0013 -3.47e-4,3.008392 0.588491,3.41e-4 c -0.004,0.002 -0.01002,-1.614296 -0.01002,-1.614296 0.02986,-0.534376 0.251158,-0.829777 0.62508,-0.896375 0.407143,-0.03126 0.552596,0.215377 0.552596,0.215377 l 0.412461,-0.419714 C 92.747233,29.192283 92.449327,29.108105 92.16836,29.108165 Z m -85.6148648,0.0083 v 0.59471 0.909833 c 0,1.192765 0.58939,1.554931 1.3216072,1.554931 0.7322187,0 1.3216066,-0.373206 1.3216066,-1.554931 v -0.92951 -0.575033 H 8.5454125 v 0.585045 0.834586 c 0,0.892334 -0.1794273,1.042376 -0.6702951,1.042376 -0.4908657,0 -0.7096435,-0.155632 -0.7096435,-1.042376 v -0.834586 -0.585045 z m 104.3313598,0 v 0.59471 0.909833 c 0,1.192765 0.58938,1.554931 1.3216,1.554931 0.73222,0 1.32161,-0.373206 1.32161,-1.554931 v -0.92951 -0.575033 h -0.65131 v 0.585045 0.834586 c 0,0.892334 -0.17943,1.042376 -0.6703,1.042376 -0.49086,0 -0.70964,-0.155632 -0.70964,-1.042376 v -0.834586 -0.585045 z m -43.452876,0.04869 v 3.010803 h 0.612307 v -3.010803 z m 52.283376,0.01516 v 2.995621 h 0.59712 v -2.995621 z m -31.431738,0.350685 a 0.94600891,1.0543521 0 0 1 0.945728,1.054452 0.94600891,1.0543521 0 0 1 -0.945728,1.054459 0.94600891,1.0543521 0 0 1 -0.946082,-1.054459 0.94600891,1.0543521 0 0 1 0.946082,-1.054452 z m -76.892398,0.0053 c 0.520549,-4e-5 0.942671,0.471058 0.942624,1.052382 5.3e-5,0.581324 -0.427592,0.969933 -0.948147,0.969893 -0.520419,-1.74e-4 -0.93681,-0.388716 -0.936757,-0.969893 -4.6e-5,-0.581171 0.421865,-1.052215 0.94228,-1.052382 z m 97.282206,0 c 0.52108,1.67e-4 0.94338,0.471211 0.94332,1.052382 6e-5,0.581177 -0.41672,0.969719 -0.93779,0.969893 -0.52121,4e-5 -0.94923,-0.388569 -0.94918,-0.969893 -4e-5,-0.581324 0.42245,-1.052422 0.94365,-1.052382 z m -78.503928,0.03213 c 0.487856,-0.0199 0.764439,0.278069 0.871866,0.718963 -0.596543,-0.006 -1.194313,0.01269 -1.79033,-0.01276 0.135492,-0.461733 0.444289,-0.682695 0.918464,-0.706192 z m 11.818873,0 c 0.482515,-0.0199 0.755951,0.278069 0.862202,0.718963 -0.590013,-0.006 -1.181165,0.01269 -1.770656,-0.01276 0.134008,-0.461733 0.43947,-0.682695 0.908454,-0.706192 z m 28.270098,0.0086 a 0.98308982,1.0191634 0 0 1 0.983011,1.019245 0.98308982,1.0191634 0 0 1 -0.983011,1.019253 0.98308982,1.0191634 0 0 1 -0.983005,-1.019253 0.98308982,1.0191634 0 0 1 0.983005,-1.019245 z m 52.329287,0 a 0.98308982,1.0191634 0 0 1 0.98301,1.019245 0.98308982,1.0191634 0 0 1 -0.98301,1.019253 0.98308982,1.0191634 0 0 1 -0.98301,-1.019253 0.98308982,1.0191634 0 0 1 0.98301,-1.019245 z m -69.580932,0.0086 c 0.482515,-0.0199 0.756296,0.278068 0.862548,0.718962 -0.590013,-0.006 -1.181165,0.01269 -1.770657,-0.01276 0.134008,-0.461733 0.439125,-0.682694 0.908109,-0.706192 z m 6.514152,0 c 0.482515,-0.0199 0.756296,0.278068 0.862548,0.718962 -0.590013,-0.006 -1.181165,0.01269 -1.770657,-0.01276 0.134008,-0.461733 0.439125,-0.682694 0.908109,-0.706192 z m 45.67051,0 c 0.48252,-0.0199 0.75595,0.278068 0.8622,0.718962 -0.59001,-0.006 -1.18116,0.01269 -1.77065,-0.01276 0.13401,-0.461733 0.43946,-0.682694 0.90845,-0.706192 z m -85.216897,0.0111 c 0.515008,1.67e-4 0.932668,0.462502 0.932615,1.032712 4.9e-5,0.570203 -0.417609,1.032544 -0.932615,1.032711 -0.515139,4e-5 -0.932665,-0.462361 -0.932615,-1.032711 -5.3e-5,-0.570357 0.417474,-1.032752 0.932615,-1.032712 z m 58.272202,0.387962 c -1.2e-4,1.3e-5 1.197153,1.263043 1.185264,1.278806 0.006,0.0087 0.0053,0.02765 -0.0033,0.04074 0.03714,0.05671 -1.361649,0.782348 -1.665038,-0.407291 6.68e-4,-0.427201 0.09732,-0.576682 0.425579,-0.906381 z m 18.605352,2.185534 c 0.04722,0.0013 0.09436,0.0033 0.139789,0.006 0.04001,-0.0027 0.08089,-0.0047 0.123565,-0.0053 0.01069,-3.54e-4 -0.158958,-5.41e-4 -0.263354,-6.68e-4 z" /></g></svg>
