<svg xmlns="http://www.w3.org/2000/svg" xml:space="preserve" viewBox="0 0 79.375 26.458">
  <g style="opacity:1">
    <path d="M76.439 37.057c-.221 0-.462.016-.737.044-.772.08-1.866.383-2.432.675-.566.292-1.412.93-1.878 1.416-.467.488-1.117 1.483-1.444 2.213-.43.96-.597 1.842-.602 3.185-.005 1.407.141 2.163.604 3.116.336.692.975 1.518 1.42 1.835.445.317 1.242.73 1.77.92.527.188 1.556.347 2.285.353.73.006 1.794-.12 2.364-.278.619-.172 1.607-.828 2.455-1.63.78-.737 1.418-1.484 1.418-1.66 0-.174-.24-.535-.533-.8-.517-.469-.552-.467-1.128.058-.327.297-.855.675-1.174.84-.32.164-.916.298-1.327.297-.411 0-1.13-.235-1.6-.52-.468-.286-1.114-1.032-1.435-1.658-.384-.75-.619-1.773-.687-2.996-.068-1.215.018-2.088.247-2.522.217-.409.628-.695 1.073-.747.56-.065.79.068 1.031.597.46.248.255 1.093.041 1.562-.239.524-.223.476.185.845.296.268.638.365.845.24.192-.114 1.155-.856 2.14-1.648.985-.791 1.791-1.506 1.791-1.588 0-.081-.87-1.054-.87-1.054-1.032.716-.977.04-1.988-.63-.636-.42-1.171-.467-1.834-.465zm-17.192.017a5.915 5.915 0 0 0-.671.043c-.725.085-1.694.375-2.154.644-.46.269-1.105.888-1.434 1.376-.44.652-.599 1.272-.599 2.339 0 1.325.087 1.537.996 2.438.65.646 1.683 1.243 2.986 1.727 1.094.407 2.259.907 2.587 1.111.328.205.597.605.597.891 0 .34-.24.58-.696.695-.464.116-1.085-.014-1.862-.392-.641-.312-1.685-1.045-2.32-1.63-.633-.585-1.211-1.062-1.283-1.062-.073 0-.626.705-1.231 1.567-.605.863-1.1 1.638-1.1 1.722 0 .085.457.443 1.016.796a13.77 13.77 0 0 0 2.19 1.068c.783.285 1.758.394 2.932.328 1.216-.068 2.114-.294 2.909-.733.632-.35 1.434-1.053 1.781-1.564.533-.785.614-1.173.52-2.503-.1-1.449-.196-1.651-1.188-2.532-.684-.607-1.862-1.23-3.22-1.702-1.177-.41-2.279-.911-2.447-1.114-.169-.203-.237-.55-.152-.77.088-.23.48-.402.919-.402.42 0 1.23.338 1.799.752.57.414 1.2.951 1.4 1.194.2.244.455.443.566.443.11 0 .693-.755 1.294-1.678.601-.922 1.093-1.755 1.093-1.851 0-.096-.309-.377-.686-.625-.545-.357-.73-.38-.898-.107-.17.275-.487.252-1.605-.12-.718-.238-1.374-.352-2.039-.348zm-26.46.226-1.692.008-.007.366-7.118.009-.007-.327-1.652-.006-.078 2.032-.078 2.032.742-.007.74-.005.398-.857c.22-.471.607-.896.863-.943l.464-.086v9.328h-1.061v1.858h6.635v-1.858h-1.061v-9.328l.464.086c.256.047.644.472.863.943l.398.857.73.005.73.007V39.71c0-.937-.062-1.862-.136-2.056zm7.63.072-1.591 4.578c-.876 2.518-1.744 5.086-1.93 5.707l-.338 1.128h-.978v1.858h4.247V48.821l-.498-.085-.497-.085.223-.597.224-.597h3.941l.16.42c.09.23.162.529.162.663s-.179.244-.398.244h-.398v1.858h6.369V48.845l-.47-.123-.47-.122-1.952-5.614-1.953-5.615h-1.926zm.782 4.38.64 1.69c.353.93.642 1.796.642 1.924 0 .128-.591.234-1.313.234h-1.313l.52-1.526c.285-.84.588-1.706.672-1.925zm-7.364.725a1.593 1.593 0 1 0 0 3.186 1.593 1.593 0 0 0 0-3.186zm16.776 0a1.592 1.592 0 1 0 0 3.185 1.592 1.592 0 0 0 0-3.185zm15.704 0a1.593 1.593 0 1 0 0 3.186 1.593 1.593 0 0 0 0-3.186z" style="opacity:1;fill:#003873;fill-opacity:1;stroke-width:1.00307" transform="matrix(.99999998 0 0 .99999998 -3.367 -32.495)"/>
    <path d="m-8.722 39.84.424-1.58-1.275-.652c-14.143-6.735-16.861-23.814-16.272-29.201 1.62-15.609 10.46-23.532 20.386-28.118 6.31-2.763 11.428-1.885 15.85.553-2.992.674-6.013 1.263-8.93 2.225 3.57 6.106 6.286 7.745 6.286 7.745C1.442-9.96-4.213-7.775-8.678-3.342l-1.27 1.362c-2.347-.947-4.511-2.215-6.56-3.687l-.168 1.125c-.356 2.372.686 6.878 2.177 9.416l.712 1.211c-.36 9.175 1.268 13.87 8.675 19.998l.806-1.741 5.648 5.82 5.647 5.821-7.596 1.911c-8.896 2.238-8.115 1.945-8.115 1.945zM2.663 25.333c-.684-1.754-1.76-5.245-1.285-8.93.847-6.56 4.768-10.57 13.312-13.616 4.175-1.487 7.761-3.279 8.954-4.472l1-1-.228 1.475C23.5 4.708 20.32 9.609 15.082 13.182c-3.793 2.586-8.26 7.633-10.402 11.755-1.36 2.615-1.168 2.577-2.017.397Z" style="fill:#f37d25" transform="translate(8.017 10.497) scale(.27455907)"/>
    <path d="M-1.792 14.541c-1.12-1.015-4.648-3.457-7.374-5.104-2.644-1.596-5.33-5.354-6.172-8.633-.36-1.402-.573-4.905-.299-4.905.058 0 .693.395 1.411.879.718.483 2.308 1.277 3.533 1.764C-4.81.882 3.216 5.51 3.736 6.866c.068.178-.42.908-1.083 1.623C1.18 10.076.118 12.155-.252 14.172l-.277 1.514z" style="fill:#003671" transform="translate(8.017 10.497) scale(.27455907)"/>
    <path d="M3.704 38.365c3.056-.788 5.673-1.439 5.815-1.445.143-.006-.75-1.052-1.986-2.326a589.335 589.335 0 0 1-3.626-3.77l-1.38-1.455 2.176.092c12.968.551 22.71-10.87 19.455-25.527 1.015-2.256 1.562-6.549.713-8.035-.208-.364-.383-.517-.388-.34-.015.538-1.544 2.106-2.398 2.46l-.803.332-1.412-1.557c-.777-.856-1.964-1.95-2.638-2.433l-1.225-.877-.98 3.281S8.286-8.86 4.041-16.09c5.51-1.165 10.807-3.032 16.14-4.806l-.777 2.445 1.464.837C33.627-9.744 36.673-1.884 36.63 9.49c-.06 7.252-3.455 21.78-17.36 28.802-8.339 4.213-12.11 4.813-21.122 1.508Z" style="fill:#003671" transform="translate(8.017 10.497) scale(.27455907)"/>
    <path d="M10.848-.36a5.292 5.292 0 0 1-5.292 5.29A5.292 5.292 0 0 1 .265-.36a5.292 5.292 0 0 1 5.291-5.293A5.292 5.292 0 0 1 10.848-.36Z" style="opacity:1;fill:#003671;fill-rule:evenodd;stroke-width:2.64583" transform="translate(8.017 10.497) scale(.27455907)"/>
  </g>
  <path d="m48.255 20.02-.089.022a.722.722 0 0 0-.303.148.52.52 0 0 0-.088.105l-.033.056-.006.084a.67.67 0 0 0 .008.153.75.75 0 0 0 .058.152l.043.084-.055.038a.704.704 0 0 0-.106.095.697.697 0 0 0-.085.128l-.034.07-.005.078-.005.078.033.073a.565.565 0 0 0 .191.218.473.473 0 0 0 .236.073h.065l.124-.082c.068-.045.135-.093.15-.106.013-.013.031-.024.038-.024.008 0 .05.042.093.093l.08.093h.159l.159.002.182-.12c.1-.066.182-.124.182-.13a.19.19 0 0 0-.022-.05c-.012-.02-.025-.038-.028-.038a4.22 4.22 0 0 0-.154.036l-.147.036-.098-.115-.099-.114.027-.036.078-.106.05-.07.09.003.09.004v-.241l-.047.007c-.025.003-.14.01-.253.014-.114.004-.229.01-.257.014l-.05.007.075-.049a.823.823 0 0 0 .13-.108.463.463 0 0 0 .072-.102.296.296 0 0 0 .017-.096c0-.03-.01-.077-.023-.105a.421.421 0 0 0-.078-.104.68.68 0 0 0-.294-.153zm10.157 0-.087.006a1.07 1.07 0 0 0-.18.035 1.257 1.257 0 0 0-.394.21c-.046.04-.111.105-.144.145-.032.04-.078.113-.102.162a1.004 1.004 0 0 0-.065.188l-.022.1.008.107c.005.059.017.138.027.176.01.037.036.105.058.15l.04.082.083.081a.83.83 0 0 0 .16.123.843.843 0 0 0 .338.09h.078l.304-.121c.167-.066.308-.125.315-.131l.012-.01-.036-.117a7.552 7.552 0 0 0-.038-.119c-.001-.001-.094.028-.207.066a2.025 2.025 0 0 1-.233.069.437.437 0 0 1-.1-.027l-.073-.027-.053-.054-.052-.054-.02-.066a.918.918 0 0 1-.027-.147.935.935 0 0 1 .046-.343.712.712 0 0 1 .067-.129.36.36 0 0 1 .06-.07l.018-.012.172.108c.095.059.176.107.18.107.006 0 .07-.079.144-.174.074-.096.134-.179.134-.184 0-.006-.092-.058-.205-.116zm3.892 0-.088.006a1.07 1.07 0 0 0-.179.035 1.257 1.257 0 0 0-.394.21c-.047.04-.112.105-.144.145-.033.04-.079.113-.102.162a1.005 1.005 0 0 0-.065.188l-.022.1.008.107c.004.059.016.138.026.176.01.037.037.105.059.15l.04.082.082.081a.83.83 0 0 0 .16.123.843.843 0 0 0 .338.09h.079l.303-.121c.167-.066.31-.125.316-.131l.011-.01-.036-.117a7.942 7.942 0 0 0-.038-.119c0-.001-.093.028-.206.066a2.025 2.025 0 0 1-.233.069.438.438 0 0 1-.101-.027l-.072-.027-.053-.054-.053-.054-.02-.066a.919.919 0 0 1-.026-.147.935.935 0 0 1 .046-.343.712.712 0 0 1 .066-.129.36.36 0 0 1 .06-.07l.019-.012.172.108c.094.059.176.107.18.107.005 0 .07-.079.144-.174.074-.096.134-.179.134-.184 0-.006-.093-.058-.206-.116zm14.49 0-.087.006a1.07 1.07 0 0 0-.18.035 1.257 1.257 0 0 0-.394.21c-.046.04-.111.105-.144.145-.032.04-.078.113-.102.162a1.004 1.004 0 0 0-.065.188l-.022.1.008.107a1.2 1.2 0 0 0 .027.176c.01.037.036.105.058.15l.04.082.083.081a.83.83 0 0 0 .16.123.843.843 0 0 0 .338.09h.078l.304-.121c.167-.066.308-.125.315-.131l.012-.01-.037-.117a7.872 7.872 0 0 0-.037-.119c0-.001-.094.028-.207.066a2.025 2.025 0 0 1-.233.069.437.437 0 0 1-.1-.027l-.073-.027-.053-.054-.052-.054-.02-.066a.922.922 0 0 1-.027-.147.96.96 0 0 1 .006-.178.958.958 0 0 1 .04-.165.712.712 0 0 1 .067-.129.36.36 0 0 1 .059-.07l.019-.012.172.108c.095.059.176.107.18.107.005 0 .07-.079.144-.174.074-.096.134-.179.134-.184 0-.006-.093-.058-.206-.116zm-36.455 0-.087.007a1.07 1.07 0 0 0-.18.035 1.257 1.257 0 0 0-.394.21c-.046.04-.111.105-.144.145-.032.04-.078.113-.102.162a1.005 1.005 0 0 0-.065.188l-.021.1.008.107c.004.059.016.138.026.175.01.038.036.106.058.15l.04.083.083.081a.83.83 0 0 0 .16.123.843.843 0 0 0 .338.09h.078l.304-.121c.167-.067.309-.126.315-.131l.012-.011-.036-.116a7.674 7.674 0 0 0-.038-.119c0-.001-.094.028-.207.066a2.026 2.026 0 0 1-.233.069.438.438 0 0 1-.1-.027l-.073-.027-.052-.054-.053-.054-.02-.066a.92.92 0 0 1-.026-.147.935.935 0 0 1 .006-.178.957.957 0 0 1 .04-.165.713.713 0 0 1 .066-.129.36.36 0 0 1 .06-.07l.018-.012.172.107c.095.06.176.108.181.108.005 0 .07-.079.143-.175.074-.095.135-.178.134-.184 0-.005-.092-.057-.205-.115zm1.477 0-.088.007a1.07 1.07 0 0 0-.179.035 1.256 1.256 0 0 0-.394.21c-.047.04-.112.105-.144.145-.032.04-.078.113-.102.162a1.003 1.003 0 0 0-.065.188l-.022.1.008.107c.004.059.016.138.026.175.01.038.037.106.059.15l.04.083.082.081a.83.83 0 0 0 .16.123.843.843 0 0 0 .338.09h.079l.303-.121c.167-.067.31-.126.316-.131l.011-.011-.036-.116a7.548 7.548 0 0 0-.037-.119c-.001-.001-.094.028-.207.066a2.026 2.026 0 0 1-.233.069.438.438 0 0 1-.1-.027l-.073-.027-.053-.054-.052-.054-.02-.066a.916.916 0 0 1-.027-.147.935.935 0 0 1 .006-.178.957.957 0 0 1 .04-.165.712.712 0 0 1 .066-.129.36.36 0 0 1 .06-.07l.019-.012.172.107c.095.06.176.108.18.108.005 0 .07-.079.144-.175.074-.095.134-.178.134-.184 0-.005-.093-.057-.206-.115zm9.105.003h-.106a1.675 1.675 0 0 0-.42.063.65.65 0 0 0-.285.157.45.45 0 0 0-.076.098.538.538 0 0 0-.032.107l-.012.063.011.062a.492.492 0 0 0 .036.11.639.639 0 0 0 .075.104c.028.032.08.08.117.109.037.028.154.097.26.154.107.056.207.114.223.128.015.014.028.038.028.054 0 .015-.015.04-.033.054a.138.138 0 0 1-.073.026h-.04l-.192-.119a3.281 3.281 0 0 0-.201-.119c-.005 0-.071.08-.148.178a1.061 1.061 0 0 0-.13.186c.006.005.108.06.229.123l.219.113h.088a1.482 1.482 0 0 0 .418-.07c.052-.017.13-.051.175-.076a.477.477 0 0 0 .218-.214l.026-.058v-.176l-.027-.058a.537.537 0 0 0-.079-.115.964.964 0 0 0-.153-.122 2.769 2.769 0 0 0-.253-.137.992.992 0 0 1-.192-.111c-.022-.022-.04-.05-.04-.063 0-.013.017-.038.039-.056a.138.138 0 0 1 .074-.032h.036l.17.106c.092.059.173.106.178.106.006 0 .07-.079.144-.174.074-.096.135-.179.135-.184 0-.006-.092-.057-.204-.114zm-6.122 0h-.107a1.673 1.673 0 0 0-.42.064.649.649 0 0 0-.285.157.45.45 0 0 0-.075.098.537.537 0 0 0-.033.106l-.012.064.012.062a.492.492 0 0 0 .036.11.639.639 0 0 0 .074.104c.028.032.08.08.117.109.037.028.154.097.26.153a2.2 2.2 0 0 1 .223.129c.015.014.028.038.028.054 0 .015-.015.04-.033.054a.138.138 0 0 1-.072.026h-.04l-.193-.12a3.283 3.283 0 0 0-.2-.118c-.006 0-.072.08-.148.178a1.062 1.062 0 0 0-.13.186c.005.005.108.06.228.122l.219.114h.089a1.482 1.482 0 0 0 .417-.07c.052-.017.13-.051.175-.076a.477.477 0 0 0 .217-.214l.027-.059v-.175l-.026-.058a.537.537 0 0 0-.08-.116.964.964 0 0 0-.153-.121 2.767 2.767 0 0 0-.253-.137.992.992 0 0 1-.192-.112c-.022-.022-.04-.05-.04-.063 0-.012.018-.037.039-.055a.138.138 0 0 1 .074-.032h.036l.17.106a2.1 2.1 0 0 0 .179.106c.005 0 .07-.079.144-.175.074-.095.134-.178.134-.184 0-.005-.092-.056-.203-.113zm1.426 0h-.106a1.673 1.673 0 0 0-.42.064.649.649 0 0 0-.285.157.45.45 0 0 0-.076.098.537.537 0 0 0-.032.106l-.012.064.011.062a.492.492 0 0 0 .036.11.638.638 0 0 0 .075.104c.028.032.08.08.117.109.036.028.154.097.26.153a2.2 2.2 0 0 1 .222.129c.016.014.029.038.029.054 0 .015-.015.04-.033.054a.138.138 0 0 1-.073.026h-.04l-.192-.12a3.284 3.284 0 0 0-.201-.118c-.005 0-.071.08-.148.178a1.062 1.062 0 0 0-.13.186c.005.005.108.06.229.122l.219.114h.088a1.482 1.482 0 0 0 .418-.07c.052-.017.13-.051.175-.076a.477.477 0 0 0 .217-.214l.027-.059v-.175l-.027-.058a.538.538 0 0 0-.079-.116.965.965 0 0 0-.153-.121 2.769 2.769 0 0 0-.253-.137.992.992 0 0 1-.192-.112c-.022-.022-.04-.05-.04-.063 0-.012.017-.037.038-.055a.138.138 0 0 1 .075-.032h.035l.17.106a2.1 2.1 0 0 0 .18.106c.004 0 .07-.079.143-.175.074-.095.135-.178.135-.184 0-.005-.092-.056-.204-.113zm19.371.025-.009.114a.813.813 0 0 0-.004.116c.002.002.035.014.073.028l.069.024.007.338c.003.185.006.339.005.34-.001.002-.17-.21-.374-.47l-.373-.475-.306-.009a4.705 4.705 0 0 0-.31-.004.823.823 0 0 0-.014.118l-.009.113.07.024.07.024v1.053l-.068.023-.069.024v.04c0 .021.004.074.008.116l.008.077h.581l.01-.113a.813.813 0 0 0 .004-.117 1.103 1.103 0 0 0-.073-.027l-.068-.024-.008-.332a8.754 8.754 0 0 1-.004-.335c.001-.003.18.213.395.479l.392.483.207-.007c.113-.005.216-.011.228-.015l.022-.006v-1.32l.069-.024.069-.023v-.04a1.41 1.41 0 0 0-.008-.116l-.008-.077h-.291zm9.523 0-.009.114c-.005.062-.007.115-.005.116l.073.028.07.024.006.338c.004.185.007.339.005.34 0 .002-.169-.21-.374-.47l-.372-.475-.306-.009a4.704 4.704 0 0 0-.311-.004.808.808 0 0 0-.014.118l-.008.113.07.024.07.024v1.053l-.068.023-.069.024v.04c0 .021.003.074.008.116l.008.077h.582l.008-.113c.005-.063.007-.115.005-.117a1.112 1.112 0 0 0-.073-.027l-.069-.024-.007-.332c-.005-.182-.007-.333-.005-.335.002-.003.18.213.396.479l.392.483.206-.007c.114-.005.217-.011.229-.015l.021-.006v-1.32l.07-.024.068-.023v-.04c0-.021-.003-.074-.008-.116l-.008-.077h-.29zm-40.76 0-.008.115a.796.796 0 0 0-.005.116c.002.002.035.014.073.028l.069.024.007.337c.004.186.006.34.005.341-.001.002-.17-.21-.374-.47l-.372-.475-.306-.01a4.705 4.705 0 0 0-.312-.003.821.821 0 0 0-.013.118l-.009.113.07.024.071.023v1.054l-.069.023-.069.024v.04c0 .021.004.074.009.116l.008.077h.581l.009-.113a.813.813 0 0 0 .005-.117 1.107 1.107 0 0 0-.073-.027l-.07-.025-.007-.331a8.754 8.754 0 0 1-.004-.336c.002-.002.18.214.395.48l.393.483.206-.008c.114-.004.216-.01.228-.014l.022-.006v-1.32l.07-.024.068-.023v-.04a1.41 1.41 0 0 0-.008-.116l-.008-.077h-.29Zm18.6.001-.009.076a1.529 1.529 0 0 0-.008.118v.041l.07.022.068.022-.003.526-.003.526-.066.024-.066.024v.04c0 .022.004.074.008.116l.008.076h.435l.435.001.007-.036c.004-.02.011-.073.016-.117l.008-.08-.099-.024-.098-.025-.004-.152-.003-.153h.126l.144.288.144.288h.538v-.209l-.183-.243c-.1-.133-.185-.25-.189-.257-.003-.008.034-.054.083-.102l.088-.087.039-.083.039-.083.007-.074.006-.073-.022-.07a.404.404 0 0 0-.064-.119.558.558 0 0 0-.243-.156l-.08-.03-.565-.007zm16.58 0-.009.076a1.529 1.529 0 0 0-.008.118v.041l.07.022.068.022-.003.526-.003.526-.066.024-.066.024v.04c0 .022.004.074.008.116l.008.076h.435l.435.001.007-.036c.004-.02.011-.073.016-.117l.008-.08-.099-.024-.098-.025-.004-.152-.003-.153h.126l.144.288.144.288h.538v-.209l-.183-.243a6.93 6.93 0 0 1-.189-.257c-.003-.009.034-.054.083-.102l.088-.087.039-.083.039-.083.007-.074.006-.073-.022-.07a.404.404 0 0 0-.063-.119.557.557 0 0 0-.244-.156l-.08-.03-.565-.007zm-47.042.001-.008.076a1.528 1.528 0 0 0-.008.118v.041l.07.022.068.022-.003.526-.003.526-.066.024-.066.024v.04c0 .022.004.074.008.116l.008.076h.435l.435.001.007-.037c.004-.02.011-.072.016-.116l.008-.08-.099-.024-.098-.025-.004-.152-.003-.153h.126l.144.288.144.288h.538v-.209l-.183-.243c-.1-.134-.186-.25-.189-.258-.003-.008.034-.053.083-.101l.088-.087.039-.083.039-.083.006-.074.007-.073-.022-.07a.404.404 0 0 0-.064-.119.557.557 0 0 0-.243-.156l-.08-.03-.565-.008zm33.977 0-.008.076a1.488 1.488 0 0 0-.008.116v.04l.07.023.068.023v1.054l-.069.023-.069.023v.04c0 .022.004.074.008.116l.008.075h.821l.008-.083c.005-.045.01-.097.01-.114l.003-.031-.072-.025-.072-.025V20.33l.072-.025.072-.025-.003-.03a6.277 6.277 0 0 0-.01-.115l-.008-.083h-.41zm16.418 0-.008.076a1.394 1.394 0 0 0-.008.116v.04l.069.023.068.023v1.054l-.068.023-.07.023v.04c0 .022.004.074.009.116l.008.075h.82l.009-.083.01-.114.002-.031-.072-.025-.072-.025V20.33l.072-.025.072-.025-.002-.03a7.085 7.085 0 0 0-.01-.115l-.009-.083h-.41Zm-41.47.001c-.002-.002-.172 0-.379.005l-.374.01-.199.488-.198.489-.015-.1-.016-.1-.148-.387-.148-.388-.38-.01a8.19 8.19 0 0 0-.383-.007.925.925 0 0 0-.013.118l-.009.113.067.025.068.024v1.05l-.066.024-.066.024v.04c0 .022.004.075.008.117l.009.077h.584v-.034c0-.02.004-.072.008-.118l.008-.082-.074-.025-.073-.024-.007-.325-.006-.326.206.466.206.468h.023c.013 0 .084-.01.157-.02a.592.592 0 0 0 .148-.035c.008-.007.097-.214.198-.458.102-.244.188-.447.191-.45a4.745 4.745 0 0 0-.02.387l-.008.292-.072.026-.073.026.006.044c.004.024.01.076.014.115l.008.07h.824v-.033c0-.018.004-.07.008-.116l.008-.082-.073-.025-.074-.025V20.332l.073-.024.073-.024-.009-.115a1.153 1.153 0 0 0-.012-.118zm24.238 0-.02.108-.02.107.015.009a.496.496 0 0 0 .091.023.483.483 0 0 1 .093.024l.015.01-.135.367-.135.367-.011-.043a10.737 10.737 0 0 0-.13-.366 3.688 3.688 0 0 1-.112-.329.485.485 0 0 1 .086-.024l.109-.025.03-.007-.009-.05a2.473 2.473 0 0 0-.02-.11l-.013-.06-.474.001-.474.001-.008.036a.809.809 0 0 0-.007.115v.08l.078.022.079.023.151.381.261.66.11.279h.48l.236-.63c.13-.345.243-.642.252-.66l.016-.032.076-.021.076-.021v-.08a.803.803 0 0 0-.008-.116l-.007-.037h-.335zm-4.228.002a1.466 1.466 0 0 0-.011.114l-.008.112.07.024.07.024V21.382l-.069.022-.068.022v.041c0 .023.003.077.008.12l.008.079.244-.008c.134-.005.442-.008.684-.008h.44l.027-.241a7.11 7.11 0 0 0 .028-.263v-.022h-.295l-.042.11a2.35 2.35 0 0 1-.046.114c-.002.002-.08.014-.174.025l-.17.022v-.437l.029.01c.015.005.11.012.21.015l.183.006.008-.097c.005-.053.009-.125.009-.16v-.061l-.22.005-.218.004v-.357l.034.001c.019 0 .076.008.128.016l.093.015.04.112.04.113.151.003.152.004v-.522l-.666-.008a51.96 51.96 0 0 0-.67-.004zm7.52 0a1.468 1.468 0 0 0-.01.114l-.01.112.071.024.07.024V21.382l-.068.022-.069.022v.041c0 .023.004.077.008.12l.008.079.244-.008c.135-.005.442-.008.684-.008h.44l.028-.241c.015-.133.027-.251.027-.263v-.022h-.294l-.043.11c-.023.06-.044.111-.046.113-.002.003-.08.015-.173.026l-.17.022v-.436l.028.009c.016.005.11.012.211.015l.183.006.008-.097c.004-.053.008-.125.008-.16v-.061l-.219.005-.219.004v-.357l.034.001c.02 0 .077.008.128.016l.093.015.04.112.04.113.152.003.151.004v-.522l-.666-.008a49.872 49.872 0 0 0-.669-.004zm3.892 0a1.468 1.468 0 0 0-.011.114l-.009.112.07.024.071.024V21.382l-.069.022-.068.022v.041c0 .023.003.077.008.12l.008.079.244-.008c.134-.005.442-.008.684-.008h.44l.027-.241c.016-.133.028-.251.028-.263v-.022h-.295l-.042.11c-.024.06-.044.111-.046.113-.002.003-.08.015-.174.026l-.17.022v-.436l.029.009c.015.005.11.012.21.015l.183.006.008-.097c.005-.053.009-.125.009-.16v-.061l-.22.005-.218.004v-.357l.034.001c.019 0 .076.008.128.016l.093.015.04.112.04.113.151.003.152.004v-.522l-.666-.008a49.872 49.872 0 0 0-.67-.004zm5.168 0a1.47 1.47 0 0 0-.011.114l-.008.112.07.024.07.024V21.382l-.069.022-.068.022v.041c0 .023.003.077.008.12l.008.079.244-.008c.134-.005.442-.008.684-.008h.44l.027-.241c.016-.133.028-.251.028-.263v-.022h-.294l-.043.11a2.35 2.35 0 0 1-.046.113c-.002.003-.08.015-.173.026l-.17.022v-.436l.028.009c.016.005.11.012.21.015l.183.006.009-.097c.004-.053.008-.125.008-.16v-.061l-.22.005-.218.004v-.357l.034.001c.02 0 .077.008.128.016l.093.015.04.112.04.113.152.003.151.004v-.522l-.666-.008a49.87 49.87 0 0 0-.669-.004zm-43.738 0a1.47 1.47 0 0 0-.01.115l-.009.112.07.024.07.024V21.383l-.068.022-.069.022v.041c0 .023.004.077.008.12l.009.079.244-.008c.134-.005.441-.008.683-.008h.44l.028-.241c.015-.133.028-.251.027-.263v-.022h-.294l-.043.11a2.35 2.35 0 0 1-.046.113c-.002.003-.08.015-.173.026l-.17.022v-.437l.028.01c.016.005.11.012.211.015l.183.006.008-.097c.005-.053.008-.125.008-.16v-.061l-.219.005-.219.004v-.357l.035.001c.019 0 .076.008.127.016l.093.015.04.112.04.113.152.003.151.004v-.522l-.666-.008a49.87 49.87 0 0 0-.669-.004zm7.333 0a1.47 1.47 0 0 0-.01.115l-.01.112.071.024.07.024V21.383l-.068.022-.07.022v.041c0 .023.005.077.01.12l.007.079.244-.008c.135-.005.442-.008.684-.008h.44l.028-.241c.015-.133.027-.251.027-.263v-.022h-.294l-.043.11c-.023.06-.044.111-.046.113a2.06 2.06 0 0 1-.173.026l-.17.022v-.437l.028.01c.016.005.11.012.211.015l.183.006.008-.097c.004-.053.008-.125.008-.16v-.061l-.219.004-.219.005v-.357h.034c.02.001.077.008.128.017l.093.014.04.113.04.113.152.003.151.003v-.522l-.666-.007a49.87 49.87 0 0 0-.669-.004zm10.749 0a1.47 1.47 0 0 0-.01.115l-.01.112.071.024.07.024V21.383l-.068.022-.07.022v.041c0 .023.004.077.009.12l.008.079.244-.008c.134-.005.442-.008.684-.008h.44l.027-.241c.016-.133.028-.251.028-.263v-.022h-.294l-.043.11c-.023.06-.044.111-.046.113-.002.003-.08.015-.173.026l-.17.022v-.437l.028.01c.016.005.11.012.21.015l.183.006.009-.097c.004-.053.008-.125.008-.16v-.061l-.22.004-.218.005v-.357l.034.001c.02 0 .077.008.128.016l.093.015.04.112.04.113.151.003.152.004v-.523l-.666-.007a49.87 49.87 0 0 0-.669-.005zm23.91.007.008.06c.004.033.011.162.016.288l.008.23.018-.008a.84.84 0 0 1 .132-.007h.115l.042-.123c.023-.067.045-.128.05-.135.004-.007.04-.017.08-.021l.072-.009V21.382l-.066.017c-.036.009-.077.02-.091.026l-.026.01.01.098c.007.054.014.105.017.113l.004.015h.862l.007-.028c.004-.015.01-.067.015-.115l.009-.088-.09-.024-.088-.024v-1.049l.04.007a.453.453 0 0 0 .072.008h.034l.047.136.046.136.134.007c.074.004.134.006.135.005l.01-.287.008-.285h-.815zm-39.939.001-.022.025-.023.024.033.084.032.083-.21.55-.208.55-.091.026-.09.026v.052c0 .028.003.08.007.114l.008.063.336.001h.337l.005-.026.019-.092a.77.77 0 0 0 .013-.083c0-.01-.026-.023-.06-.032a9.496 9.496 0 0 1-.105-.026l-.045-.012.02-.063.02-.062h.184c.101 0 .192-.003.201-.007l.018-.007.02.066c.012.036.018.07.013.073a.694.694 0 0 1-.107.03l-.098.022.007.034.02.108.014.075h.949v-.229l-.082-.022a.281.281 0 0 1-.09-.036 35.86 35.86 0 0 1-.248-.658l-.24-.644-.268-.004zm11.863 0-.023.025-.022.024.032.084.032.083-.209.55-.209.55-.09.026-.091.026v.052c0 .028.003.08.008.114l.007.063.337.001h.336l.006-.026.018-.092a.772.772 0 0 0 .014-.083c0-.01-.026-.023-.06-.032a9.553 9.553 0 0 1-.105-.026l-.046-.012.02-.063.02-.062h.184c.102 0 .192-.003.202-.007l.017-.007.021.066c.012.036.017.07.012.073a.694.694 0 0 1-.107.03l-.097.022.006.034.02.108.015.076h.474l.475-.001v-.229l-.082-.022a.282.282 0 0 1-.09-.036 35.866 35.866 0 0 1-.249-.658l-.239-.644-.268-.004zm-17.439 0 .008.06c.005.033.012.162.016.288l.009.23.017-.008a.84.84 0 0 1 .133-.007h.115l.041-.123a1.66 1.66 0 0 1 .05-.135c.005-.007.041-.017.08-.021l.073-.009V21.383l-.066.017c-.036.009-.077.02-.092.026l-.026.01.012.098c.006.054.013.104.015.113l.005.015h.862l.007-.028c.004-.015.01-.067.015-.115l.008-.088-.088-.024-.09-.025v-1.049l.04.008a.454.454 0 0 0 .073.008h.034l.046.136.047.136.134.007c.073.003.134.006.135.005l.01-.287.008-.285h-.816Zm6.682 0 .008.06c.005.033.012.162.016.288l.009.23.017-.008a.84.84 0 0 1 .133-.007h.115l.041-.123c.023-.067.046-.128.05-.135.005-.007.041-.017.08-.021l.073-.009V21.383l-.066.017c-.036.009-.077.02-.092.026l-.026.01.012.098c.006.054.013.104.015.113l.005.015h.862l.007-.028a1.35 1.35 0 0 0 .015-.115l.008-.088-.088-.024-.09-.024v-1.049l.04.007a.453.453 0 0 0 .073.008h.034l.046.136.047.136.134.007c.073.003.134.006.135.005l.01-.287.008-.285h-.816zm7.596 0 .008.06c.004.033.012.162.016.288l.008.23.018-.008a.84.84 0 0 1 .133-.007h.114l.042-.123c.023-.067.045-.128.05-.135.005-.007.04-.017.08-.021l.072-.009V21.383l-.066.017c-.036.009-.077.02-.091.026l-.026.01.011.098c.006.054.013.104.016.113l.005.015h.862l.007-.028c.003-.015.01-.067.015-.115l.008-.088-.089-.024-.089-.024v-1.049l.04.007a.454.454 0 0 0 .072.008h.035l.046.136.047.136.133.007.135.005c.001-.002.006-.13.01-.287l.009-.285h-.816zm13.19.282.043.023c.024.013.05.036.06.052l.015.03-.008.04a.203.203 0 0 1-.048.083.185.185 0 0 1-.05.041c-.005 0-.023-.024-.04-.054a.233.233 0 0 1-.033-.1v-.045l.03-.035zm5.436.043h.166l.043.02a.153.153 0 0 1 .061.056c.01.02.018.057.018.083a.315.315 0 0 1-.105.21l-.041.031H53.655v-.2zm16.58 0h.166l.043.02a.153.153 0 0 1 .061.056c.01.02.018.057.018.083a.315.315 0 0 1-.105.21l-.04.031H70.235v-.2zm-47.04 0h.165l.043.021a.153.153 0 0 1 .061.056c.01.02.018.057.018.083a.315.315 0 0 1-.105.21l-.041.031H23.194v-.2zm3.318.284c.006.003.01.02.01.035 0 .017.02.086.044.156.024.069.044.128.044.132a.432.432 0 0 1-.107.007.324.324 0 0 1-.106-.009c0-.005.024-.08.052-.168a.59.59 0 0 1 .063-.153zm11.863 0c.005.003.01.02.01.035 0 .017.02.086.043.156.024.069.044.128.044.132a.432.432 0 0 1-.106.007.324.324 0 0 1-.107-.009c0-.005.024-.08.053-.168a.59.59 0 0 1 .063-.153zm10.12.243.066.008c.036.004.068.01.07.012.004.002-.007.018-.023.036-.016.017-.033.03-.038.03-.005 0-.024-.019-.042-.042zm-.463.137.107.118c.058.065.106.122.106.127 0 .005-.01.016-.022.025-.012.01-.027.017-.034.016a.305.305 0 0 1-.037-.007.227.227 0 0 1-.055-.026.156.156 0 0 1-.048-.061.38.38 0 0 1-.017-.116zm23.53.123-.113.057-.113.057v.156l.036.021.037.02.015.052.016.051-.015.048-.014.048-.07.066a.358.358 0 0 0-.068.077c0 .007.017.046.038.087l.038.075.065-.033c.036-.018.1-.058.142-.088.043-.03.101-.08.13-.114a.77.77 0 0 0 .086-.122l.033-.063v-.262l-.031-.063-.032-.062-.09-.004z" style="fill:#003671;fill-opacity:1;stroke-width:.0472942"/>
</svg>
