<?xml version="1.0" encoding="UTF-8" standalone="no"?>
<!-- Created with Inkscape (http://www.inkscape.org/) -->

<svg
   width="300"
   height="100"
   viewBox="0 0 79.374998 26.458333"
   version="1.1"
   id="svg1"
   xml:space="preserve"
   inkscape:version="1.4 (86a8ad7, 2024-10-11)"
   sodipodi:docname="TASC.SVG"
   xmlns:inkscape="http://www.inkscape.org/namespaces/inkscape"
   xmlns:sodipodi="http://sodipodi.sourceforge.net/DTD/sodipodi-0.dtd"
   xmlns="http://www.w3.org/2000/svg"
   xmlns:svg="http://www.w3.org/2000/svg"><sodipodi:namedview
     id="namedview1"
     pagecolor="#ffffff"
     bordercolor="#111111"
     borderopacity="1"
     inkscape:showpageshadow="0"
     inkscape:pageopacity="0"
     inkscape:pagecheckerboard="1"
     inkscape:deskcolor="#d1d1d1"
     inkscape:document-units="px"
     inkscape:zoom="2.2223866"
     inkscape:cx="154.78855"
     inkscape:cy="69.744841"
     inkscape:window-width="1920"
     inkscape:window-height="1115"
     inkscape:window-x="-9"
     inkscape:window-y="-9"
     inkscape:window-maximized="1"
     inkscape:current-layer="layer1" /><defs
     id="defs1" /><g
     inkscape:label="Layer 1"
     inkscape:groupmode="layer"
     id="layer1"><g
       id="g117"
       transform="matrix(0.27455907,0,0,0.27455907,8.0165491,10.497341)"
       style="opacity:1"><path
         id="path98"
         style="opacity:1;fill:#003873;fill-opacity:1;stroke-width:1.00307"
         d="m 76.438744,37.056652 c -0.221066,4.82e-4 -0.462155,0.01615 -0.736906,0.04444 -0.771601,0.07964 -1.865881,0.383282 -2.431893,0.674894 -0.566001,0.291623 -1.411519,0.92926 -1.878438,1.416451 -0.466919,0.487181 -1.116317,1.482942 -1.44384,2.212785 -0.430617,0.959485 -0.597015,1.841538 -0.60203,3.184818 -0.005,1.407255 0.141688,2.162572 0.604614,3.116089 0.336129,0.692329 0.974986,1.5181 1.420068,1.83503 0.445092,0.316939 1.241221,0.730757 1.768885,0.919324 0.527655,0.188567 1.556332,0.347449 2.286165,0.353467 0.729843,0.006 1.793199,-0.119766 2.363163,-0.27802 0.619285,-0.171936 1.607403,-0.827593 2.455147,-1.629357 0.780237,-0.737917 1.418518,-1.484691 1.418518,-1.659847 0,-0.175156 -0.239832,-0.53592 -0.5333,-0.801502 -0.516922,-0.467832 -0.552275,-0.46601 -1.128097,0.0584 -0.32689,0.297701 -0.855253,0.67553 -1.174088,0.839742 -0.318826,0.164203 -0.916044,0.298197 -1.327051,0.297656 -0.411008,-5.52e-4 -1.130365,-0.234718 -1.598869,-0.520382 -0.468513,-0.285664 -1.11468,-1.031694 -1.435571,-1.65778 -0.384216,-0.749623 -0.618888,-1.772816 -0.687297,-2.996199 -0.06791,-1.214707 0.01803,-2.087466 0.24753,-2.521293 0.216442,-0.409192 0.627345,-0.695584 1.072286,-0.747242 0.559944,-0.065 0.790675,0.06834 1.031462,0.596863 0.459582,0.24799 0.254554,1.092647 0.04082,1.561662 -0.238961,0.524455 -0.223347,0.475886 0.185002,0.845426 0.295735,0.267599 0.637971,0.364576 0.845426,0.240296 0.191656,-0.114821 1.15412,-0.856229 2.139405,-1.647962 0.985274,-0.791722 1.791621,-1.506467 1.791621,-1.588016 0,-0.08155 -0.870747,-1.0542 -0.870747,-1.0542 -1.03125,0.715561 -0.976616,0.0389 -1.987476,-0.629935 -0.635995,-0.420804 -1.171324,-0.467059 -1.834513,-0.465605 z m -17.191715,0.01757 c -0.221778,10e-4 -0.444643,0.0155 -0.671277,0.04237 -0.724837,0.08586 -1.694057,0.375863 -2.153874,0.644405 -0.459807,0.268542 -1.105094,0.887543 -1.434021,1.375626 -0.439404,0.652035 -0.598413,1.272809 -0.598413,2.339393 0,1.325124 0.08682,1.537398 0.995288,2.438094 0.651072,0.645485 1.68371,1.242498 2.985864,1.726509 1.09476,0.406925 2.259004,0.907235 2.587439,1.11156 0.328425,0.204325 0.59738,0.605118 0.59738,0.890902 0,0.339439 -0.24128,0.580392 -0.696082,0.694531 -0.46411,0.116487 -1.085009,-0.01397 -1.862418,-0.391707 -0.641412,-0.311613 -1.685099,-1.045346 -2.319239,-1.629875 -0.634141,-0.584538 -1.212139,-1.062467 -1.284159,-1.062467 -0.07202,0 -0.625912,0.705354 -1.230933,1.567863 -0.605022,0.862519 -1.099674,1.6374 -1.099674,1.721858 0,0.08446 0.457555,0.442471 1.016475,0.795301 0.55892,0.35284 1.544227,0.833332 2.189531,1.068151 0.783257,0.285022 1.757847,0.394464 2.93212,0.328663 1.21573,-0.06811 2.114025,-0.294496 2.908867,-0.733289 0.632526,-0.349198 1.434294,-1.052836 1.781286,-1.563729 0.533161,-0.784962 0.613567,-1.173172 0.520382,-2.503723 -0.10147,-1.448552 -0.196352,-1.651124 -1.188558,-2.531628 -0.683812,-0.606826 -1.861868,-1.229636 -3.219442,-1.702222 -1.177603,-0.409934 -2.279527,-0.911254 -2.447912,-1.114144 -0.168345,-0.202901 -0.236688,-0.549689 -0.151929,-0.770495 0.08817,-0.229833 0.481037,-0.401526 0.918807,-0.401526 0.420577,0 1.230091,0.338844 1.799373,0.752409 0.569282,0.413565 1.199582,0.950958 1.399915,1.194242 0.200333,0.243295 0.454908,0.44235 0.565857,0.44235 0.11095,0 0.693486,-0.754945 1.294495,-1.677417 0.601009,-0.922473 1.092439,-1.755673 1.092439,-1.851566 0,-0.09589 -0.308371,-0.376985 -0.685746,-0.624252 -0.545278,-0.357273 -0.729435,-0.37961 -0.89762,-0.107487 -0.169839,0.274801 -0.48734,0.251874 -1.60507,-0.119372 -0.718558,-0.238701 -1.373845,-0.352296 -2.039151,-0.348816 z m -26.459367,0.225826 -1.692403,0.0083 -0.0072,0.365869 -7.117911,0.0083 -0.0067,-0.326079 -1.652613,-0.0062 -0.07751,2.031918 -0.07803,2.0314 0.741557,-0.0062 0.740523,-0.0057 0.397909,-0.856795 c 0.21895,-0.471232 0.607038,-0.895851 0.86248,-0.943095 l 0.464571,-0.08527 v 4.663798 4.663798 h -0.530717 -0.530717 v 0.928626 0.929142 h 3.317627 3.317627 V 49.772672 48.844046 H 30.405379 29.874662 V 44.180248 39.51645 l 0.464571,0.08578 c 0.255441,0.04715 0.643529,0.471346 0.862479,0.942578 l 0.397909,0.856795 0.730188,0.0057 0.729671,0.0062 v -1.703255 c 0,-0.936847 -0.06139,-1.862328 -0.135909,-2.056722 z m 7.629508,0.07235 -1.591634,4.578015 c -0.875408,2.517934 -1.743739,5.085744 -1.929598,5.706112 l -0.337963,1.128096 h -0.488859 -0.48886 v 0.928626 0.929142 h 2.123385 2.122868 v -0.910539 -0.910539 l -0.497644,-0.08475 -0.497127,-0.08475 0.223242,-0.596863 0.223759,-0.59738 h 1.970939 1.970422 l 0.160714,0.419613 c 0.08857,0.230887 0.16123,0.529495 0.16123,0.663525 0,0.13403 -0.178958,0.243913 -0.397908,0.243913 h -0.397909 v 0.928626 0.929142 h 3.184819 3.184301 v -0.89762 -0.898653 L 48.645609,48.723123 48.17587,48.60065 46.223018,42.987039 44.270165,37.372395 h -1.926497 z m 0.781865,4.379061 0.640271,1.690853 c 0.352558,0.930066 0.641304,1.795721 0.641304,1.923913 0,0.128203 -0.590602,0.233578 -1.312581,0.233578 h -1.312581 l 0.519348,-1.526005 c 0.285654,-0.839308 0.588037,-1.705471 0.671793,-1.924431 z m -7.364408,0.725537 c -0.879443,0 -1.592668,0.713225 -1.592668,1.592668 -1e-6,0.879443 0.713225,1.59215 1.592668,1.59215 0.879443,0 1.592151,-0.712707 1.59215,-1.59215 0,-0.879443 -0.712707,-1.592668 -1.59215,-1.592668 z m 16.776753,0 c -0.879443,0 -1.592151,0.713225 -1.592151,1.592668 -1e-6,0.879443 0.712708,1.59215 1.592151,1.59215 0.879443,0 1.592669,-0.712707 1.592668,-1.59215 0,-0.879443 -0.713225,-1.592668 -1.592668,-1.592668 z m 15.703434,0 c -0.879443,0 -1.592668,0.713225 -1.592668,1.592668 -10e-7,0.879443 0.713225,1.59215 1.592668,1.59215 0.879444,10e-7 1.592152,-0.712706 1.592151,-1.59215 0,-0.879443 -0.712708,-1.592669 -1.592151,-1.592668 z"
         transform="matrix(3.6422034,0,0,3.6422034,-41.462466,-156.58648)" /><path
         style="fill:#f37d25"
         d="M -8.7222044,39.839384 -8.298303,38.259485 -9.57311,37.608122 C -23.715967,30.873428 -26.434227,13.794324 -25.844941,8.406569 c 1.620625,-15.6081787 10.459285,-23.531463 20.3863005,-28.118027 6.31001271,-2.762307 11.4274292,-1.885038 15.8495845,0.553212 -2.9916234,0.674079 -6.0125414,1.263403 -8.9296732,2.224913 3.5691216,6.105976 6.2861167,7.7450677 6.2861167,7.7450677 -6.305575,-0.770872 -11.9601504,1.4132062 -16.425128,5.8461984 l -1.2694067,1.3620428 c -2.3483208,-0.9472018 -4.5121358,-2.2153321 -6.5601608,-3.6866914 l -0.168628,1.1244937 c -0.355801,2.3726523 0.685688,6.8777974 2.17674,9.4158746 l 0.711881,1.2117671 c -0.359511,9.1746311 1.268459,13.8686831 8.6756002,19.9976711 l 0.8061156,-1.741421 5.6471122,5.820833 5.6471121,5.820833 -7.59535889,1.910643 c -8.89646741,2.23794 -8.11547061,1.945405 -8.11547061,1.945405 z M 2.6626934,25.333854 C 1.979147,23.579979 0.90296625,20.088919 1.3784273,16.404167 2.2248235,9.844717 6.1461508,5.8338985 14.690365,2.7884285 c 4.174206,-1.4878393 7.760946,-3.27932284 8.953827,-4.4722039 l 0.999341,-0.9993417 -0.22798,1.4738503 C 23.50019,4.7083631 20.321475,9.6094474 15.081724,13.182044 11.288899,15.768089 6.8228207,20.815139 4.6799117,24.936979 3.3205638,27.551656 3.5123427,27.513925 2.6626934,25.333854 Z"
         id="path114"
         sodipodi:nodetypes="ccccccccsccsscccccscsssscssss" /><path
         style="fill:#003671"
         d="M -1.7921418,14.541184 C -2.9126565,13.525684 -6.4401262,11.084271 -9.1662322,9.4374696 -11.809786,7.8405366 -14.495837,4.083112 -15.337777,0.80430733 -15.697772,-0.5976359 -15.91148,-4.1010415 -15.637005,-4.1010415 c 0.05814,0 0.693224,0.3953718 1.411304,0.878604 0.71808,0.4832323 2.307623,1.2770071 3.532317,1.763944 5.8846284,2.3397211 13.9091144,6.969409 14.429262,8.324892 C 3.803856,7.0435455 3.316494,7.7737314 2.652852,8.4890337 1.1805522,10.075943 0.11784675,12.155263 -0.25181761,14.172393 l -0.27734944,1.5134 z"
         id="path115" /><path
         style="fill:#003671"
         d="M 3.7041663,38.365251 C 6.7601038,37.576599 9.3769964,36.926397 9.5194832,36.920357 9.6619701,36.914317 8.7680578,35.867578 7.5330115,34.594271 6.2979652,33.320964 4.6664766,31.624323 3.9074812,30.823958 L 2.5274897,29.36875 4.703328,29.461221 C 17.67123,30.012345 27.413787,18.590402 24.157856,3.934418 c 1.01528,-2.2564792 1.562622,-6.5490771 0.712928,-8.0354595 -0.207968,-0.3638021 -0.382343,-0.5167732 -0.387499,-0.3399357 -0.01569,0.5381403 -1.544259,2.1060258 -2.397958,2.4596394 L 21.281859,-1.64851 19.869798,-3.205505 C 19.093164,-4.0618522 17.906281,-5.1569267 17.23228,-5.639004 l -1.225457,-0.8765041 -0.980766,3.2808537 c 0,0 -6.739936,-5.626424 -10.9845292,-12.8556026 5.5111949,-1.164406 10.8073112,-3.032021 16.1409072,-4.805765 l -0.7772,2.444811 1.463779,0.837489 C 33.627012,-9.7434877 36.673137,-1.8846223 36.630166,9.4886594 36.569867,16.741316 33.174973,31.268186 19.270911,38.291489 10.931377,42.504004 7.1607146,43.104035 -1.8521217,39.79915 Z"
         id="path113" /><path
         id="path117"
         style="opacity:1;fill:#003671;fill-rule:evenodd;stroke-width:2.64583"
         d="M 10.847916,-0.36089173 A 5.2916665,5.2916665 0 0 1 5.5562496,4.9307748 5.2916665,5.2916665 0 0 1 0.26458311,-0.36089173 5.2916665,5.2916665 0 0 1 5.5562496,-5.6525582 5.2916665,5.2916665 0 0 1 10.847916,-0.36089173 Z" /></g><path
       id="path123"
       style="fill:#003671;fill-opacity:1;stroke-width:0.0472942"
       d="m 48.25528,20.019195 -0.0891,0.02275 c -0.04899,0.01252 -0.124786,0.04005 -0.168415,0.06119 -0.04363,0.02114 -0.104273,0.06039 -0.134738,0.0872 -0.03047,0.02682 -0.07015,0.07398 -0.0882,0.104774 l -0.03283,0.056 -0.006,0.08382 c -0.0033,0.04609 3.91e-4,0.114799 0.0083,0.152677 0.0079,0.03787 0.03365,0.106608 0.05729,0.152749 l 0.04296,0.0839 -0.05443,0.03744 c -0.02994,0.0206 -0.07751,0.06367 -0.105727,0.09571 -0.0282,0.03203 -0.06663,0.08964 -0.08539,0.127993 l -0.03409,0.06971 -0.005,0.07779 -0.005,0.07779 0.03331,0.07301 c 0.01832,0.04014 0.05976,0.100052 0.09211,0.133147 0.03236,0.03309 0.07696,0.07148 0.09915,0.0853 0.02219,0.01381 0.07004,0.03579 0.106361,0.04886 0.03631,0.01306 0.09485,0.02398 0.130095,0.02422 l 0.06406,4.51e-4 0.123641,-0.08242 c 0.068,-0.04532 0.135243,-0.09319 0.149452,-0.106362 0.01422,-0.01318 0.03189,-0.02395 0.03928,-0.02395 0.0074,0 0.04926,0.04185 0.09304,0.09299 l 0.07961,0.09302 0.158909,8.52e-4 0.158908,8.49e-4 0.182077,-0.119511 c 0.100146,-0.06573 0.182078,-0.124387 0.182078,-0.130362 0,-0.006 -0.0099,-0.02818 -0.02189,-0.04934 -0.01204,-0.02116 -0.02482,-0.03852 -0.0284,-0.03857 -0.0035,-4.4e-5 -0.0727,0.01608 -0.153581,0.0358 l -0.147078,0.03587 -0.09837,-0.114086 -0.09839,-0.114084 0.02675,-0.03592 c 0.0147,-0.01977 0.04965,-0.06762 0.07767,-0.106363 l 0.05093,-0.07044 0.08985,0.0036 0.08982,0.0036 V 20.830382 20.70982 l -0.04692,0.0069 c -0.02581,0.0036 -0.139837,0.01012 -0.253393,0.01413 -0.113559,0.0039 -0.228993,0.01045 -0.256523,0.01429 l -0.05005,0.0071 0.07507,-0.04927 c 0.0413,-0.0271 0.09944,-0.07589 0.129214,-0.108391 0.02978,-0.03251 0.06215,-0.07829 0.07195,-0.101744 0.0098,-0.02345 0.01768,-0.06676 0.01755,-0.09624 -1.78e-4,-0.02947 -0.01077,-0.07666 -0.02359,-0.104896 -0.01283,-0.02823 -0.0479,-0.075 -0.07794,-0.103894 -0.03003,-0.02889 -0.09252,-0.07155 -0.138866,-0.09475 -0.04635,-0.02321 -0.11607,-0.04933 -0.154927,-0.05802 z m 10.156823,0 -0.0875,0.0073 c -0.04812,0.0039 -0.128738,0.01953 -0.179144,0.03444 -0.0504,0.01489 -0.140433,0.05217 -0.200065,0.08286 -0.05964,0.03066 -0.146824,0.08802 -0.19376,0.12743 -0.04694,0.03942 -0.111879,0.104636 -0.144319,0.144904 -0.03244,0.04027 -0.07851,0.11327 -0.102377,0.162233 -0.02387,0.04897 -0.05309,0.133618 -0.06493,0.188115 l -0.02156,0.09908 0.008,0.107389 c 0.0043,0.05907 0.01617,0.138086 0.02627,0.175626 0.0101,0.03754 0.03641,0.105111 0.05848,0.150159 l 0.04013,0.08191 0.08234,0.08168 c 0.04527,0.04492 0.117254,0.100009 0.159936,0.12242 0.04268,0.02241 0.1187,0.05152 0.168929,0.06467 0.05024,0.01317 0.12649,0.02423 0.169489,0.02461 l 0.07818,6.8e-4 0.303473,-0.120709 c 0.166908,-0.06639 0.308774,-0.125452 0.31525,-0.131266 l 0.01179,-0.01055 -0.0362,-0.11587 c -0.0199,-0.06373 -0.03686,-0.11719 -0.03768,-0.118827 -7.94e-4,-0.0017 -0.0938,0.02793 -0.206638,0.06569 -0.112836,0.03776 -0.217819,0.06864 -0.233281,0.06864 -0.01546,0 -0.06068,-0.01201 -0.100521,-0.02672 l -0.07241,-0.02675 -0.05259,-0.05417 -0.05258,-0.0542 -0.01954,-0.06584 c -0.01076,-0.03623 -0.02288,-0.102574 -0.02692,-0.147445 -0.004,-0.04487 -0.0014,-0.124655 0.0061,-0.177288 0.0074,-0.05263 0.02529,-0.127196 0.03968,-0.16568 0.01439,-0.03848 0.04433,-0.09631 0.06653,-0.128505 0.02219,-0.03219 0.0489,-0.06393 0.05939,-0.07055 l 0.01908,-0.01202 0.17206,0.107976 c 0.09463,0.05938 0.175904,0.10772 0.18061,0.107437 0.0047,-2.75e-4 0.06912,-0.07876 0.143095,-0.174428 0.07399,-0.09566 0.134415,-0.178489 0.134273,-0.184058 -1.19e-4,-0.0056 -0.09266,-0.05744 -0.205637,-0.115257 z m 3.891619,0 -0.0875,0.0073 c -0.04812,0.0039 -0.128741,0.01953 -0.179148,0.03444 -0.0504,0.01489 -0.140433,0.05217 -0.200065,0.08286 -0.05964,0.03066 -0.146823,0.08802 -0.193759,0.12743 -0.04694,0.03942 -0.111877,0.104636 -0.144317,0.144904 -0.03244,0.04027 -0.07851,0.11327 -0.102379,0.162233 -0.02387,0.04897 -0.05308,0.133618 -0.06493,0.188115 l -0.02156,0.09908 0.008,0.107389 c 0.0043,0.05907 0.01617,0.138086 0.02627,0.175626 0.0101,0.03754 0.0364,0.105111 0.05849,0.150159 l 0.04013,0.08191 0.08234,0.08168 c 0.04527,0.04492 0.117252,0.100009 0.159934,0.12242 0.04268,0.02241 0.118699,0.05152 0.168929,0.06467 0.05024,0.01317 0.126493,0.02423 0.169492,0.02461 l 0.07818,6.8e-4 0.30347,-0.120709 c 0.166911,-0.06639 0.308773,-0.125452 0.315251,-0.131266 l 0.01179,-0.01055 -0.0362,-0.11587 c -0.01992,-0.06373 -0.03687,-0.11719 -0.03768,-0.118827 -7.94e-4,-0.0017 -0.0938,0.02793 -0.206641,0.06569 -0.112833,0.03776 -0.217818,0.06864 -0.23328,0.06864 -0.01545,0 -0.06068,-0.01201 -0.100522,-0.02672 l -0.07241,-0.02675 -0.0526,-0.05417 -0.05257,-0.0542 -0.01954,-0.06584 c -0.01075,-0.03623 -0.02288,-0.102574 -0.02692,-0.147445 -0.004,-0.04487 -0.0014,-0.124655 0.0061,-0.177288 0.0074,-0.05263 0.02529,-0.127196 0.03968,-0.16568 0.01438,-0.03848 0.04433,-0.09631 0.06653,-0.128505 0.02219,-0.03219 0.0489,-0.06393 0.05939,-0.07055 l 0.01909,-0.01202 0.172056,0.107976 c 0.09464,0.05938 0.175906,0.10772 0.180612,0.107437 0.0047,-2.75e-4 0.06911,-0.07876 0.143096,-0.174428 0.07399,-0.09566 0.134416,-0.178489 0.134273,-0.184058 -1.2e-4,-0.0056 -0.09267,-0.05744 -0.205637,-0.115257 z m 14.490336,0 -0.0875,0.0073 c -0.04812,0.0039 -0.128739,0.01953 -0.179147,0.03444 -0.05039,0.01489 -0.140432,0.05217 -0.200063,0.08286 -0.05964,0.03066 -0.146819,0.08802 -0.193763,0.12743 -0.04694,0.03942 -0.111875,0.104636 -0.144315,0.144904 -0.03243,0.04027 -0.07851,0.11327 -0.102376,0.162233 -0.02386,0.04897 -0.05311,0.133618 -0.06494,0.188115 l -0.02154,0.09908 0.008,0.107389 c 0.0045,0.05907 0.01615,0.138086 0.02624,0.175626 0.01009,0.03754 0.03638,0.105111 0.05849,0.150159 l 0.04013,0.08191 0.08234,0.08168 c 0.04528,0.04492 0.117254,0.100009 0.159936,0.12242 0.04268,0.02241 0.118693,0.05152 0.168926,0.06467 0.05023,0.01317 0.126511,0.02423 0.169516,0.02461 l 0.07819,6.8e-4 0.303464,-0.120709 c 0.166909,-0.06639 0.308746,-0.125452 0.315225,-0.131266 l 0.01179,-0.01055 -0.03622,-0.11587 c -0.0199,-0.06373 -0.0369,-0.11719 -0.03769,-0.118827 -5.67e-4,-0.0017 -0.0938,0.02793 -0.206639,0.06569 -0.112832,0.03776 -0.217814,0.06864 -0.233277,0.06864 -0.01548,0 -0.06068,-0.01201 -0.100527,-0.02672 l -0.07241,-0.02675 -0.05255,-0.05417 -0.05261,-0.0542 -0.01955,-0.06584 c -0.01077,-0.03623 -0.02284,-0.102574 -0.02693,-0.147445 -0.0039,-0.04487 -0.0012,-0.124655 0.0061,-0.177288 0.0074,-0.05263 0.02528,-0.127196 0.03967,-0.16568 0.01439,-0.03848 0.04432,-0.09631 0.06653,-0.128505 0.02216,-0.03219 0.04892,-0.06393 0.05939,-0.07055 l 0.0191,-0.01202 0.172061,0.107976 c 0.09464,0.05938 0.175876,0.10772 0.180603,0.107437 0.0045,-2.75e-4 0.06912,-0.07876 0.143102,-0.174428 0.07399,-0.09566 0.13427,-0.178489 0.13427,-0.184058 0,-0.0056 -0.09266,-0.05744 -0.205633,-0.115257 z m -36.454774,9.07e-4 -0.0875,0.0073 c -0.04812,0.0039 -0.128739,0.01952 -0.179146,0.03444 -0.0504,0.01489 -0.140433,0.05218 -0.200063,0.08286 -0.05964,0.03066 -0.146825,0.08804 -0.193762,0.127454 -0.04694,0.03943 -0.111876,0.104613 -0.144318,0.14488 -0.03244,0.04027 -0.07851,0.11327 -0.102377,0.162233 -0.02387,0.04896 -0.05308,0.133618 -0.06493,0.188113 l -0.02156,0.09908 0.008,0.107388 c 0.0043,0.05907 0.01621,0.138084 0.0263,0.175626 0.0101,0.03754 0.0364,0.105112 0.05849,0.150158 l 0.04013,0.08192 0.08234,0.08165 c 0.04527,0.04492 0.117254,0.10001 0.159937,0.12242 0.04268,0.0224 0.118699,0.05151 0.168929,0.06467 0.05022,0.01316 0.126491,0.02423 0.16949,0.02461 l 0.07818,6.79e-4 0.303471,-0.120709 c 0.166911,-0.06639 0.308774,-0.125478 0.315252,-0.13129 l 0.01179,-0.01055 -0.03623,-0.115869 c -0.01991,-0.06373 -0.03686,-0.117191 -0.03768,-0.118827 -7.94e-4,-0.0017 -0.0938,0.02792 -0.20664,0.06569 -0.112834,0.03777 -0.217793,0.06867 -0.233253,0.06867 -0.01547,0 -0.06071,-0.01204 -0.100547,-0.02674 l -0.07241,-0.02675 -0.05257,-0.05417 -0.05258,-0.0542 -0.01954,-0.06584 c -0.01075,-0.03622 -0.02287,-0.102573 -0.02692,-0.147445 -0.004,-0.04487 -0.0014,-0.124655 0.0061,-0.177288 0.0074,-0.05263 0.02532,-0.127169 0.03971,-0.165653 0.01439,-0.03849 0.04432,-0.09634 0.06651,-0.128531 0.02219,-0.03219 0.04893,-0.06393 0.05942,-0.07055 l 0.01907,-0.01202 0.172082,0.107976 c 0.09463,0.05938 0.175905,0.107745 0.180611,0.107462 0.0047,-2.74e-4 0.06908,-0.07878 0.14307,-0.174453 0.07399,-0.09566 0.134441,-0.178488 0.1343,-0.184057 -1.2e-4,-0.0056 -0.09269,-0.05744 -0.205663,-0.115258 z m 1.476563,0 -0.0875,0.0073 c -0.04812,0.0039 -0.128741,0.01952 -0.179145,0.03444 -0.0504,0.01489 -0.140436,0.05218 -0.200066,0.08286 -0.05964,0.03066 -0.146824,0.08804 -0.19376,0.127454 -0.04694,0.03943 -0.111878,0.104613 -0.144316,0.14488 -0.03245,0.04027 -0.07851,0.11327 -0.102381,0.162233 -0.02387,0.04896 -0.0531,0.133618 -0.06493,0.188113 l -0.02156,0.09908 0.008,0.107388 c 0.0043,0.05907 0.01619,0.138084 0.02629,0.175626 0.0101,0.03754 0.0364,0.105112 0.05848,0.150158 l 0.04013,0.08192 0.08234,0.08165 c 0.04527,0.04492 0.117252,0.10001 0.159934,0.12242 0.04268,0.0224 0.118702,0.05151 0.168932,0.06467 0.05023,0.01316 0.126491,0.02423 0.169489,0.02461 l 0.07818,6.79e-4 0.303469,-0.120709 c 0.166912,-0.06639 0.308776,-0.125478 0.315253,-0.13129 l 0.01179,-0.01055 -0.03623,-0.115869 c -0.0199,-0.06373 -0.03686,-0.117191 -0.03768,-0.118827 -7.94e-4,-0.0017 -0.09381,0.02792 -0.206641,0.06569 -0.112835,0.03777 -0.217793,0.06867 -0.233254,0.06867 -0.01546,0 -0.06071,-0.01204 -0.100546,-0.02674 l -0.07241,-0.02675 -0.05258,-0.05417 -0.05257,-0.0542 -0.01954,-0.06584 c -0.01077,-0.03622 -0.02288,-0.102573 -0.02692,-0.147445 -0.004,-0.04487 -0.0014,-0.124655 0.0061,-0.177288 0.0074,-0.05263 0.02532,-0.127169 0.03971,-0.165653 0.01438,-0.03849 0.04432,-0.09634 0.06651,-0.128531 0.02218,-0.03219 0.04892,-0.06393 0.05941,-0.07055 l 0.01907,-0.01202 0.172082,0.107976 c 0.09464,0.05938 0.175905,0.107745 0.180609,0.107462 0.0047,-2.74e-4 0.06909,-0.07878 0.143073,-0.174453 0.07399,-0.09566 0.134439,-0.178488 0.134298,-0.184057 -1.2e-4,-0.0056 -0.09269,-0.05744 -0.205663,-0.115258 z m 9.105441,0.0027 -0.106364,1.5e-4 c -0.0585,7.8e-5 -0.15738,0.0084 -0.219715,0.01852 -0.06233,0.01011 -0.152432,0.03035 -0.200212,0.04498 -0.04778,0.01462 -0.118953,0.04356 -0.158175,0.06429 -0.03922,0.02074 -0.09624,0.06229 -0.126697,0.09231 -0.03046,0.03003 -0.06459,0.07403 -0.07587,0.09778 -0.01127,0.02375 -0.0259,0.07175 -0.03254,0.106681 l -0.01206,0.06349 0.01182,0.06234 c 0.0065,0.03429 0.02267,0.08356 0.03592,0.109489 0.01325,0.02592 0.04683,0.07289 0.07458,0.104383 0.02776,0.03149 0.08041,0.08034 0.11702,0.108562 0.0366,0.02821 0.153852,0.0974 0.260527,0.153729 0.106679,0.05631 0.206626,0.114023 0.222112,0.128234 0.0155,0.01422 0.02817,0.03854 0.02817,0.05405 0,0.01555 -0.01481,0.03983 -0.033,0.05412 -0.01814,0.01426 -0.05075,0.02594 -0.07251,0.02594 h -0.03956 l -0.192763,-0.118844 c -0.106033,-0.06538 -0.196599,-0.118876 -0.201237,-0.118876 -0.0046,0 -0.07094,0.08006 -0.147349,0.177923 -0.07641,0.09786 -0.134827,0.181764 -0.129801,0.186429 0.005,0.0046 0.107681,0.05964 0.228124,0.122175 l 0.218981,0.113693 0.0885,1.97e-4 v 2.5e-5 c 0.04868,1.13e-4 0.141459,-0.0089 0.20615,-0.02001 0.0647,-0.0111 0.159999,-0.03398 0.211796,-0.05084 0.0518,-0.01685 0.130337,-0.0508 0.174525,-0.07545 0.04419,-0.02465 0.105175,-0.06964 0.135521,-0.09998 0.03034,-0.03035 0.06725,-0.08162 0.08199,-0.11394 l 0.02681,-0.05878 v -0.08759 -0.0876 l -0.02672,-0.05851 c -0.01469,-0.03217 -0.05024,-0.08407 -0.07904,-0.115308 -0.02878,-0.03124 -0.09785,-0.08597 -0.153482,-0.121661 -0.05562,-0.03568 -0.169445,-0.09714 -0.252902,-0.136596 -0.08347,-0.03945 -0.169736,-0.08971 -0.191731,-0.111713 -0.022,-0.022 -0.03999,-0.05033 -0.03999,-0.06295 0,-0.01262 0.01732,-0.03752 0.03849,-0.05533 0.02175,-0.01831 0.05404,-0.03241 0.07425,-0.03241 h 0.03576 l 0.169492,0.106364 c 0.09323,0.05851 0.173842,0.106132 0.179144,0.105848 0.0053,-2.75e-4 0.07019,-0.07878 0.144171,-0.174452 0.07399,-0.09567 0.134419,-0.178489 0.134322,-0.184057 -1.2e-4,-0.0056 -0.0916,-0.05663 -0.203341,-0.113452 z m -6.122693,9.07e-4 -0.106362,1.49e-4 c -0.05851,7.9e-5 -0.157354,0.0084 -0.219693,0.01853 -0.06233,0.01011 -0.152431,0.03034 -0.200212,0.04498 -0.04779,0.01462 -0.118977,0.04356 -0.158198,0.06429 -0.03922,0.02074 -0.09622,0.06229 -0.126673,0.09231 -0.03046,0.03004 -0.06459,0.07403 -0.07587,0.09778 -0.01128,0.02375 -0.02593,0.07176 -0.03256,0.10668 l -0.01202,0.06349 0.01182,0.06234 c 0.0065,0.03429 0.02267,0.08356 0.03592,0.109491 0.01326,0.02593 0.04684,0.07292 0.0746,0.104407 0.02776,0.03149 0.08041,0.08031 0.117018,0.108538 0.0366,0.02821 0.153831,0.0974 0.260506,0.153727 0.106674,0.05633 0.206626,0.114024 0.222111,0.128237 0.0155,0.01422 0.02817,0.03853 0.02817,0.05404 0,0.01555 -0.01479,0.03983 -0.03298,0.05413 -0.01814,0.01427 -0.05078,0.02593 -0.07254,0.02593 h -0.03956 L 44.279308,21.19383 c -0.106032,-0.06538 -0.196575,-0.118876 -0.201215,-0.118876 -0.0046,0 -0.07096,0.08008 -0.147373,0.177947 -0.07641,0.09786 -0.134825,0.181741 -0.129801,0.186404 0.005,0.0046 0.107682,0.05964 0.228123,0.122175 l 0.218982,0.113719 0.08852,1.74e-4 v 2.4e-5 c 0.04869,1.13e-4 0.141459,-0.0089 0.206152,-0.02001 0.06469,-0.0111 0.159998,-0.03398 0.211795,-0.05084 0.05179,-0.01685 0.130337,-0.0508 0.174526,-0.07545 0.04419,-0.02465 0.105175,-0.06964 0.135519,-0.09998 0.03035,-0.03034 0.06722,-0.08162 0.08197,-0.11394 l 0.02684,-0.05878 v -0.08759 -0.0876 l -0.02672,-0.05851 c -0.01469,-0.03217 -0.05025,-0.08407 -0.07904,-0.115308 -0.02879,-0.03124 -0.09788,-0.08598 -0.153507,-0.121662 -0.05562,-0.03568 -0.169421,-0.09714 -0.252879,-0.136594 -0.08346,-0.03945 -0.169735,-0.08971 -0.191731,-0.111715 -0.022,-0.022 -0.04001,-0.05033 -0.04001,-0.06295 0,-0.01262 0.01736,-0.03752 0.03852,-0.05533 0.02177,-0.01831 0.05404,-0.03241 0.07425,-0.03241 h 0.03576 l 0.16949,0.106362 c 0.09323,0.0585 0.173844,0.106133 0.179145,0.105849 0.0053,-2.74e-4 0.07016,-0.07878 0.144148,-0.174452 0.07399,-0.09566 0.134417,-0.178489 0.134322,-0.184057 -1.2e-4,-0.0056 -0.0916,-0.05663 -0.20334,-0.11345 z m 1.42651,0 -0.106364,1.49e-4 c -0.0585,7.9e-5 -0.157353,0.0084 -0.219689,0.01853 -0.06234,0.01011 -0.152432,0.03034 -0.200212,0.04498 -0.04778,0.01462 -0.118978,0.04356 -0.158201,0.06429 -0.03922,0.02074 -0.09622,0.06229 -0.126672,0.09231 -0.03046,0.03004 -0.06459,0.07403 -0.07587,0.09778 -0.01128,0.02375 -0.02594,0.07176 -0.03256,0.10668 l -0.01202,0.06349 0.01182,0.06234 c 0.0065,0.03429 0.02267,0.08356 0.03592,0.109491 0.01326,0.02593 0.04683,0.07292 0.07459,0.104407 0.02776,0.03149 0.08041,0.08031 0.117019,0.108538 0.0366,0.02821 0.15383,0.0974 0.260505,0.153727 0.106677,0.05633 0.206628,0.114024 0.222112,0.128237 0.0155,0.01422 0.02816,0.03853 0.02816,0.05404 0,0.01555 -0.01479,0.03983 -0.03298,0.05413 -0.01813,0.01427 -0.05078,0.02593 -0.07254,0.02593 h -0.03957 L 45.705799,21.19383 c -0.106033,-0.06538 -0.196575,-0.118876 -0.201215,-0.118876 -0.0046,0 -0.07095,0.08008 -0.147373,0.177947 -0.07641,0.09786 -0.134825,0.181741 -0.129799,0.186404 0.005,0.0046 0.107683,0.05964 0.228122,0.122175 l 0.218981,0.113719 0.08852,1.74e-4 v 2.4e-5 c 0.04869,1.13e-4 0.141458,-0.0089 0.206151,-0.02001 0.0647,-0.0111 0.159999,-0.03398 0.211798,-0.05084 0.05179,-0.01685 0.130334,-0.0508 0.174525,-0.07545 0.04419,-0.02465 0.105173,-0.06964 0.13552,-0.09998 0.03034,-0.03034 0.06722,-0.08162 0.08197,-0.11394 l 0.02684,-0.05878 v -0.08759 -0.0876 l -0.02672,-0.05851 c -0.01469,-0.03217 -0.05026,-0.08407 -0.07904,-0.115308 -0.0288,-0.03124 -0.09788,-0.08598 -0.153506,-0.121662 -0.05563,-0.03568 -0.169423,-0.09714 -0.252881,-0.136594 -0.08346,-0.03945 -0.169733,-0.08971 -0.191731,-0.111715 -0.022,-0.022 -0.04001,-0.05033 -0.04001,-0.06295 0,-0.01262 0.01734,-0.03752 0.03852,-0.05533 0.02176,-0.01831 0.05404,-0.03241 0.07425,-0.03241 h 0.03577 l 0.16949,0.106362 c 0.09323,0.0585 0.173843,0.106133 0.179144,0.105849 0.0053,-2.74e-4 0.07016,-0.07878 0.144148,-0.174452 0.07399,-0.09566 0.134417,-0.178489 0.13432,-0.184057 -1.19e-4,-0.0056 -0.09161,-0.05663 -0.20334,-0.11345 z m 19.371189,0.02427 -0.0089,0.113693 c -0.0049,0.06252 -0.007,0.115072 -0.0047,0.116774 0.0023,0.0017 0.03513,0.01396 0.07298,0.02723 l 0.06883,0.02412 0.007,0.337736 c 0.0038,0.185753 0.0062,0.339133 0.0052,0.340864 -9.25e-4,0.0017 -0.169378,-0.210228 -0.374077,-0.471007 l -0.372172,-0.474134 -0.306135,-0.0092 c -0.168376,-0.005 -0.308432,-0.0069 -0.311217,-0.004 -0.0028,0.0028 -0.0089,0.05582 -0.01358,0.117849 l -0.0085,0.112789 0.07041,0.02393 0.07044,0.02393 v 0.52663 0.526632 l -0.06883,0.02342 -0.06883,0.02339 v 0.03991 c 0,0.02195 0.0035,0.07454 0.0081,0.116849 l 0.0081,0.07691 h 0.290666 0.290663 l 0.0089,-0.11367 c 0.0049,-0.06252 0.007,-0.115072 0.0047,-0.116774 -0.0023,-0.0017 -0.03509,-0.01396 -0.07295,-0.02723 l -0.06883,-0.02412 -0.0076,-0.33148 c -0.0041,-0.18231 -0.0061,-0.333262 -0.0043,-0.335461 0.0018,-0.0023 0.179746,0.213522 0.395488,0.479389 l 0.392262,0.483396 0.206466,-0.0078 c 0.113558,-0.0042 0.216326,-0.01062 0.228366,-0.01413 l 0.02189,-0.0064 v -0.660327 -0.660318 l 0.06883,-0.02339 0.06883,-0.02342 v -0.03937 c 0,-0.02166 -0.0035,-0.07399 -0.0081,-0.116285 l -0.0081,-0.07691 h -0.29071 z m 9.52258,0 -0.0089,0.113693 c -0.0045,0.06252 -0.007,0.115072 -0.0045,0.116774 0.0023,0.0017 0.03514,0.01396 0.07299,0.02723 l 0.06882,0.02412 0.0071,0.337736 c 0.0039,0.185753 0.0062,0.339133 0.0051,0.340864 -0.0012,0.0017 -0.169346,-0.210228 -0.374056,-0.471007 l -0.372192,-0.474134 -0.306133,-0.0092 c -0.168376,-0.005 -0.308405,-0.0069 -0.311194,-0.004 -0.0029,0.0028 -0.0089,0.05582 -0.0136,0.117849 l -0.0085,0.112789 0.07041,0.02393 0.07044,0.02393 v 0.52663 0.526632 l -0.06882,0.02342 -0.06883,0.02339 v 0.03991 c 0,0.02195 0.0034,0.07454 0.0081,0.116849 l 0.0081,0.07691 h 0.290664 0.290664 l 0.0089,-0.11367 c 0.0045,-0.06252 0.007,-0.115072 0.0045,-0.116774 -0.0023,-0.0017 -0.03514,-0.01396 -0.07298,-0.02723 l -0.06883,-0.02412 -0.0076,-0.33148 c -0.0045,-0.18231 -0.0061,-0.333262 -0.0045,-0.335461 0.0017,-0.0023 0.179753,0.213522 0.395488,0.479389 l 0.392263,0.483396 0.206467,-0.0078 c 0.113565,-0.0042 0.216331,-0.01062 0.228376,-0.01413 l 0.02187,-0.0064 v -0.660327 -0.660318 l 0.06883,-0.02339 0.06883,-0.02342 v -0.03937 c 0,-0.02166 -0.0034,-0.07399 -0.0081,-0.116285 l -0.0081,-0.07691 h -0.290669 z m -40.759357,9.25e-4 -0.0089,0.11367 c -0.0049,0.06252 -0.0071,0.11507 -0.0047,0.116774 0.0023,0.0017 0.03513,0.01396 0.07298,0.02722 l 0.06883,0.02412 0.007,0.337734 c 0.0038,0.185754 0.0062,0.339133 0.0052,0.340865 -9.25e-4,0.0017 -0.169353,-0.210203 -0.374052,-0.470983 l -0.37217,-0.474159 -0.306136,-0.0092 c -0.168376,-0.005 -0.308432,-0.0069 -0.311218,-0.004 -0.0028,0.0028 -0.0089,0.05582 -0.01356,0.117849 l -0.0085,0.112791 0.07044,0.02393 0.07042,0.02396 v 0.526631 0.526608 l -0.06883,0.02342 -0.06883,0.02339 v 0.03994 c 0,0.02195 0.0035,0.07452 0.0081,0.116822 l 0.0081,0.07693 h 0.290666 0.290662 l 0.0089,-0.113693 c 0.0049,-0.06252 0.007,-0.115073 0.0047,-0.116774 -0.0023,-0.0017 -0.03512,-0.01396 -0.07298,-0.02723 l -0.06883,-0.02412 -0.0076,-0.331479 c -0.0041,-0.182311 -0.0061,-0.333263 -0.0043,-0.335462 0.0018,-0.0023 0.179722,0.213523 0.395463,0.479388 l 0.392262,0.483397 0.206468,-0.0078 c 0.113559,-0.0042 0.216324,-0.01062 0.228367,-0.01413 l 0.02189,-0.0064 v -0.66028 -0.660318 l 0.06883,-0.02339 0.06883,-0.02342 v -0.03935 c 0,-0.02165 -0.0035,-0.07399 -0.0081,-0.116285 l -0.0081,-0.07691 H 34.65016 Z m 18.598594,3.13e-4 -0.008,0.07628 c -0.0043,0.04196 -0.008,0.09488 -0.008,0.117605 v 0.04133 l 0.06895,0.02173 0.06896,0.02176 -0.0033,0.526191 -0.0032,0.526218 -0.0657,0.02361 -0.0657,0.02363 v 0.04037 c 0,0.02222 0.0035,0.07453 0.008,0.116237 l 0.008,0.07582 0.434837,6.24e-4 0.43481,6.25e-4 0.0073,-0.03671 c 0.0039,-0.0202 0.01103,-0.0727 0.01552,-0.116653 l 0.0082,-0.07992 -0.09852,-0.02427 -0.09852,-0.0243 -0.0035,-0.152677 -0.0034,-0.1527 h 0.06291 0.06289 l 0.144023,0.287805 0.144001,0.287804 h 0.268985 0.268987 V 21.545492 21.441256 L 54.423911,21.19825 c -0.100474,-0.13365 -0.185369,-0.249576 -0.188651,-0.257621 -0.0033,-0.0081 0.03379,-0.05369 0.08239,-0.101426 l 0.08835,-0.08679 0.03891,-0.08317 0.03892,-0.08316 0.0067,-0.07367 0.0067,-0.07364 -0.02197,-0.06986 c -0.01208,-0.03841 -0.04082,-0.09186 -0.06387,-0.118779 -0.02305,-0.02691 -0.06892,-0.06628 -0.101966,-0.0875 -0.03304,-0.0212 -0.09653,-0.05208 -0.14109,-0.06863 l -0.081,-0.03008 -0.564515,-0.0073 z m 16.580052,0 -0.008,0.07628 c -0.0043,0.04196 -0.008,0.09488 -0.008,0.117605 v 0.04133 l 0.06895,0.02173 0.06895,0.02176 -0.0032,0.526216 -0.0032,0.526193 -0.06567,0.02361 -0.06572,0.02363 v 0.04037 c 0,0.02222 0.0035,0.07453 0.008,0.116237 l 0.008,0.07582 0.434813,6.24e-4 0.434807,6.25e-4 0.0073,-0.03671 c 0.0039,-0.0202 0.01105,-0.0727 0.01553,-0.116653 l 0.0082,-0.07992 -0.09851,-0.02427 -0.09855,-0.0243 -0.0034,-0.152677 -0.0035,-0.1527 h 0.06292 0.06288 l 0.144025,0.287805 0.144003,0.287804 h 0.268984 0.268988 v -0.104175 -0.104236 l -0.18273,-0.243005 c -0.100478,-0.133651 -0.185388,-0.249576 -0.188653,-0.257622 -0.0034,-0.0081 0.0338,-0.05369 0.08239,-0.101425 l 0.08835,-0.08679 0.03888,-0.08317 0.03895,-0.08317 0.0067,-0.07366 0.0067,-0.07365 -0.02193,-0.06983 c -0.01207,-0.03841 -0.04082,-0.09189 -0.06386,-0.118803 -0.02302,-0.02691 -0.06895,-0.06628 -0.101989,-0.0875 -0.03305,-0.0212 -0.09653,-0.05209 -0.141095,-0.06862 l -0.08099,-0.03008 -0.564514,-0.0073 z m -47.040985,9.25e-4 -0.008,0.07628 c -0.0043,0.04195 -0.008,0.09488 -0.008,0.117605 v 0.04133 l 0.06896,0.02173 0.06895,0.02176 -0.0032,0.526192 -0.0033,0.526216 -0.0657,0.02362 -0.0657,0.02363 v 0.04037 c 0,0.02222 0.0035,0.07453 0.008,0.116235 l 0.008,0.07582 0.43481,6.24e-4 0.434835,6.23e-4 0.0073,-0.0367 c 0.0039,-0.0202 0.01104,-0.0727 0.01554,-0.116652 l 0.0082,-0.07992 -0.09852,-0.02427 -0.09854,-0.0243 -0.0034,-0.152676 -0.0035,-0.152702 h 0.06288 0.06292 l 0.144001,0.287806 0.144024,0.287804 h 0.268962 0.268985 v -0.104233 -0.104236 l -0.1829,-0.243008 c -0.100473,-0.13365 -0.185368,-0.249575 -0.188651,-0.257621 -0.0033,-0.0081 0.03377,-0.05369 0.08237,-0.101425 l 0.08835,-0.08679 0.03894,-0.08317 0.03894,-0.08317 0.0067,-0.07366 0.0067,-0.07364 -0.02197,-0.06985 c -0.01207,-0.03842 -0.04082,-0.09186 -0.06387,-0.118778 -0.02304,-0.02691 -0.06892,-0.06628 -0.101962,-0.0875 -0.03304,-0.0212 -0.09653,-0.05208 -0.141092,-0.06863 l -0.08103,-0.03008 -0.564488,-0.0073 z m 33.977008,5.09e-4 -0.0079,0.07555 c -0.0043,0.04155 -0.0079,0.09352 -0.0079,0.115479 v 0.03994 l 0.06883,0.02339 0.06883,0.02339 v 0.526631 0.526632 l -0.06883,0.02342 -0.06883,0.02339 v 0.03991 c 0,0.02195 0.0035,0.07395 0.0079,0.115504 l 0.0079,0.07553 h 0.410445 0.410444 l 0.0081,-0.0831 c 0.0044,-0.04571 0.009,-0.09716 0.01023,-0.114354 l 0.0023,-0.03126 -0.07194,-0.02481 -0.07195,-0.02481 v -0.526069 -0.526045 l 0.07195,-0.02481 0.07194,-0.02481 -0.0023,-0.03126 c -0.0012,-0.01719 -0.0058,-0.06864 -0.01023,-0.114356 l -0.0081,-0.0831 h -0.410444 z m 16.417377,0 -0.0079,0.07555 c -0.0045,0.04155 -0.0079,0.09352 -0.0079,0.115479 v 0.03994 l 0.06883,0.02339 0.06883,0.02342 v 0.526607 0.526633 l -0.06883,0.02342 -0.06883,0.02339 v 0.03991 c 0,0.02195 0.0034,0.07395 0.0079,0.115502 l 0.0079,0.07555 h 0.410447 0.410447 l 0.0081,-0.0831 c 0.0045,-0.0457 0.009,-0.09716 0.01026,-0.114355 l 0.0023,-0.03126 -0.07195,-0.02481 -0.07195,-0.02481 v -0.526035 -0.526045 l 0.07195,-0.02481 0.07195,-0.02481 -0.0023,-0.03126 c -0.0012,-0.01719 -0.0059,-0.06864 -0.01026,-0.114354 l -0.0081,-0.0831 H 73.30201 Z m -41.4698,4.92e-4 c -0.002,-0.0023 -0.172261,3e-5 -0.37833,0.005 l -0.374665,0.009 -0.198477,0.4887 -0.1985,0.488702 -0.01516,-0.0995 -0.01516,-0.09949 -0.148105,-0.387911 -0.148132,-0.38791 -0.379551,-0.0104 c -0.20875,-0.0058 -0.381566,-0.0083 -0.384049,-0.0059 -0.0025,0.0025 -0.0083,0.05546 -0.01307,0.117727 l -0.0085,0.113206 0.06731,0.0242 0.06733,0.0242 v 0.525263 0.525263 l -0.0657,0.02361 -0.06569,0.02362 v 0.0404 c 0,0.02222 0.0035,0.07501 0.0081,0.117311 l 0.0081,0.07691 h 0.292276 0.292277 l 1.21e-4,-0.03441 c 4.9e-5,-0.01893 0.0035,-0.07171 0.008,-0.117288 l 0.0078,-0.08286 -0.07361,-0.02454 -0.07362,-0.02452 -0.0063,-0.324319 c -0.0034,-0.178375 -0.0062,-0.325318 -0.0061,-0.326542 6e-5,-0.0012 0.09265,0.208525 0.20571,0.466119 l 0.20559,0.468342 h 0.02344 c 0.0129,0 0.08362,-0.0092 0.157174,-0.02029 0.07355,-0.01115 0.139992,-0.02664 0.147666,-0.03441 0.0077,-0.0078 0.09693,-0.214025 0.19833,-0.458347 0.101406,-0.244321 0.187413,-0.447034 0.191144,-0.450476 0.0036,-0.0034 0.0026,0.01626 -0.0027,0.0438 -0.0052,0.02753 -0.01301,0.181773 -0.0174,0.342771 l -0.008,0.292717 -0.07259,0.02591 -0.07261,0.02588 0.0063,0.04429 c 0.0034,0.02435 0.0097,0.07602 0.01391,0.114844 l 0.0076,0.0706 h 0.412204 0.412205 l 1.2e-4,-0.03307 c 4.7e-5,-0.01817 0.0035,-0.07035 0.008,-0.115917 l 0.0078,-0.08286 -0.07362,-0.02454 -0.07362,-0.02453 V 20.85595 20.33247 l 0.07317,-0.0244 0.07317,-0.02439 -0.0089,-0.114282 c -0.0049,-0.06287 -0.01051,-0.116114 -0.01251,-0.118313 z m 24.238404,2.3e-5 -0.0197,0.107366 -0.01973,0.107365 0.01441,0.0089 c 0.008,0.0049 0.04897,0.01542 0.09121,0.02339 0.04224,0.008 0.0838,0.01884 0.09236,0.02412 l 0.01555,0.0096 -0.135128,0.366843 -0.135129,0.366868 -0.01117,-0.04274 c -0.0061,-0.02349 -0.06467,-0.187927 -0.13002,-0.365425 -0.06536,-0.177499 -0.115862,-0.325695 -0.112255,-0.329304 0.0035,-0.0035 0.04232,-0.01463 0.08603,-0.02452 0.04371,-0.0099 0.09283,-0.02106 0.10915,-0.02484 l 0.02965,-0.0069 -0.008,-0.04973 c -0.0043,-0.02736 -0.01372,-0.07669 -0.02079,-0.109661 l -0.01287,-0.05996 -0.474039,7.94e-4 -0.474012,7.94e-4 -0.0072,0.03597 c -0.0039,0.01979 -0.0072,0.07168 -0.0072,0.115308 v 0.07933 l 0.0782,0.02275 0.07821,0.02273 0.151453,0.381263 c 0.08331,0.209689 0.200801,0.506528 0.261117,0.659658 l 0.109686,0.27842 h 0.240025 l 0.240026,2.5e-5 0.236015,-0.628791 c 0.129813,-0.345836 0.243169,-0.643263 0.251903,-0.66093 l 0.01588,-0.03211 0.07594,-0.02112 0.07596,-0.02112 v -0.07972 c 0,-0.04384 -0.0033,-0.09606 -0.0073,-0.11604 l -0.0072,-0.03635 -0.335535,-0.0012 z m -4.228331,0.0016 c -0.0014,0.0012 -0.0063,0.05274 -0.01093,0.114477 l -0.0084,0.112252 0.07038,0.02393 0.07039,0.02393 v 0.527487 0.527488 l -0.06883,0.02171 -0.06883,0.02171 v 0.04131 c 0,0.02273 0.0036,0.07682 0.0082,0.120172 l 0.0082,0.07881 0.24403,-0.0082 c 0.134222,-0.0044 0.441874,-0.0082 0.683659,-0.0082 h 0.439602 l 0.02796,-0.240879 c 0.01537,-0.132484 0.02781,-0.250735 0.02762,-0.262779 l -3.94e-4,-0.02189 -0.147032,4.9e-5 -0.147029,5e-5 -0.04256,0.109441 c -0.02339,0.0602 -0.04413,0.111435 -0.04611,0.113866 -0.002,0.0024 -0.07999,0.01409 -0.173329,0.02588 l -0.169709,0.02146 v -0.218204 -0.218175 l 0.02816,0.0092 c 0.0155,0.005 0.110329,0.01191 0.210771,0.01528 l 0.182614,0.0061 0.0082,-0.09704 c 0.0045,-0.05339 0.0082,-0.124999 0.0082,-0.159154 v -0.0621 l -0.218982,0.0048 -0.218981,0.0047 V 20.50186 20.323301 l 0.03441,7.93e-4 c 0.01891,4.32e-4 0.07633,0.0075 0.127576,0.01564 l 0.0932,0.01487 0.03989,0.112618 0.03989,0.11262 0.151601,0.0035 0.151624,0.0034 v -0.261287 -0.261264 l -0.66633,-0.0069 c -0.366483,-0.0037 -0.667466,-0.0058 -0.668823,-0.0046 z m 7.520462,0 c -0.0014,0.0012 -0.0063,0.05277 -0.01093,0.114502 l -0.0085,0.112227 0.07038,0.02393 0.07038,0.02393 v 0.527487 0.527488 l -0.06883,0.02171 -0.06883,0.02171 v 0.04133 c 0,0.02273 0.0036,0.0768 0.0082,0.120146 l 0.0082,0.07881 0.244032,-0.0082 h 2.4e-5 c 0.13422,-0.0044 0.441847,-0.0082 0.683634,-0.0082 h 0.439601 l 0.02796,-0.24088 c 0.01537,-0.132484 0.02781,-0.250734 0.02761,-0.262778 l -3.93e-4,-0.02189 -0.14703,4.8e-5 -0.147031,5e-5 -0.04256,0.109441 c -0.02339,0.0602 -0.04414,0.111436 -0.04611,0.113867 -0.002,0.0024 -0.07999,0.01409 -0.17333,0.02588 l -0.169711,0.02146 v -0.218089 -0.218176 l 0.02816,0.0092 c 0.0155,0.005 0.110327,0.01189 0.21077,0.01528 l 0.182613,0.0061 0.0082,-0.09706 c 0.0045,-0.05339 0.0082,-0.124998 0.0082,-0.159152 v -0.0621 l -0.218981,0.0048 -0.218982,0.0047 v -0.178535 -0.178556 l 0.03441,7.93e-4 c 0.01892,4.31e-4 0.07633,0.0075 0.127576,0.01564 l 0.0932,0.01483 0.03989,0.11262 0.03989,0.112619 0.1516,0.0034 0.151626,0.0035 v -0.261276 -0.261263 l -0.666329,-0.0069 c -0.366483,-0.0037 -0.667466,-0.0059 -0.668826,-0.0046 z m 3.891619,0 c -0.0014,0.0012 -0.0063,0.05277 -0.01093,0.114502 l -0.0085,0.112227 0.07038,0.02393 0.0704,0.02393 v 0.527487 0.527488 l -0.06883,0.02171 -0.06883,0.02171 v 0.04133 c 0,0.02273 0.0036,0.0768 0.0082,0.120146 l 0.0082,0.07881 0.244032,-0.0082 h 2.6e-5 c 0.134222,-0.0044 0.441849,-0.0082 0.683634,-0.0082 h 0.4396 l 0.02796,-0.24088 c 0.01537,-0.132484 0.02781,-0.250734 0.02761,-0.262778 l -3.93e-4,-0.02189 -0.14703,4.8e-5 -0.147032,5e-5 -0.04255,0.109441 c -0.02339,0.0602 -0.04413,0.111436 -0.04612,0.113867 -0.002,0.0024 -0.07999,0.01409 -0.173327,0.02588 l -0.169712,0.02146 v -0.218089 -0.218176 l 0.02816,0.0092 c 0.0155,0.005 0.110329,0.01189 0.21077,0.01528 l 0.182616,0.0061 0.0082,-0.09706 c 0.0045,-0.05339 0.0082,-0.124998 0.0082,-0.159152 v -0.0621 l -0.218981,0.0048 -0.218981,0.0047 v -0.178535 -0.178556 l 0.03441,7.93e-4 c 0.01892,4.31e-4 0.07633,0.0075 0.127577,0.01564 l 0.0932,0.01483 0.03989,0.11262 0.03989,0.112619 0.151599,0.0034 0.151627,0.0035 v -0.261276 -0.261263 l -0.666332,-0.0069 c -0.36648,-0.0037 -0.667465,-0.0059 -0.668823,-0.0046 z m 5.167971,0 c -0.0014,0.0012 -0.0063,0.05277 -0.01094,0.114502 l -0.0084,0.112227 0.0704,0.02393 0.07038,0.02393 v 0.527487 0.527488 l -0.06883,0.02171 -0.06883,0.02171 v 0.04133 c 0,0.02273 0.0036,0.0768 0.0082,0.120146 l 0.0082,0.07881 0.244031,-0.0082 h 1.2e-4 c 0.134221,-0.0044 0.441871,-0.0082 0.683659,-0.0082 h 0.4396 l 0.02796,-0.24088 c 0.01537,-0.132484 0.02761,-0.250734 0.02761,-0.262778 l -3.92e-4,-0.02189 -0.147006,4.8e-5 -0.147055,5e-5 -0.04252,0.109441 c -0.02339,0.0602 -0.04413,0.111436 -0.04611,0.113867 -0.002,0.0024 -0.07998,0.01409 -0.173328,0.02588 l -0.169711,0.02146 v -0.218089 -0.218176 l 0.02817,0.0092 c 0.0155,0.005 0.110327,0.01189 0.21077,0.01528 l 0.182616,0.0061 0.0082,-0.09706 c 0.0045,-0.05339 0.0082,-0.124998 0.0082,-0.159152 v -0.0621 l -0.218955,0.0048 -0.218984,0.0047 v -0.178535 -0.178556 l 0.03441,7.93e-4 c 0.01892,4.31e-4 0.07633,0.0075 0.127576,0.01564 l 0.0932,0.01483 0.03989,0.11262 0.03989,0.112619 0.1516,0.0034 0.151625,0.0035 v -0.261276 -0.261263 l -0.666331,-0.0069 c -0.366483,-0.0037 -0.667451,-0.0059 -0.668822,-0.0046 z m -43.737485,9.27e-4 c -0.0014,0.0012 -0.0063,0.05275 -0.01094,0.114477 l -0.0084,0.112252 0.07037,0.02393 0.07039,0.02393 v 0.527487 0.527487 l -0.06883,0.02171 -0.06883,0.02171 v 0.04131 c 0,0.02273 0.0036,0.07682 0.0082,0.120172 l 0.0082,0.07881 0.244034,-0.0082 c 0.134219,-0.0044 0.441848,-0.0082 0.683632,-0.0082 h 0.439627 l 0.02794,-0.240881 c 0.01537,-0.132484 0.02779,-0.250732 0.02761,-0.262777 l -3.93e-4,-0.02189 -0.147031,5e-5 -0.14703,4.8e-5 -0.04253,0.109443 c -0.02339,0.0602 -0.04413,0.111435 -0.04611,0.113866 -0.002,0.0024 -0.07998,0.01409 -0.173325,0.02588 l -0.169736,0.02146 v -0.218164 -0.218175 l 0.02816,0.0092 c 0.0155,0.005 0.110353,0.01191 0.210794,0.01528 l 0.182616,0.0061 0.0082,-0.09705 c 0.0045,-0.05339 0.0082,-0.124998 0.0082,-0.159152 v -0.0621 l -0.218983,0.0048 -0.21898,0.0047 v -0.178381 -0.178558 l 0.03441,7.94e-4 c 0.01891,4.3e-4 0.07635,0.0075 0.127601,0.01565 l 0.0932,0.01486 0.03989,0.11262 0.03989,0.112617 0.151601,0.0035 0.151601,0.0034 V 20.32642 20.065132 l -0.66633,-0.0069 c -0.366483,-0.0037 -0.667442,-0.0059 -0.6688,-0.0046 z m 7.332761,0 c -0.0014,0.0012 -0.0063,0.05276 -0.01094,0.1145 l -0.0084,0.112229 0.07036,0.02393 0.07038,0.02393 v 0.527511 0.527488 l -0.06883,0.0217 -0.06883,0.02168 v 0.04133 c 0,0.02272 0.0036,0.07679 0.0082,0.120147 l 0.0082,0.07884 0.244034,-0.0082 c 0.134222,-0.0044 0.441871,-0.0082 0.683657,-0.0082 h 0.439602 l 0.02796,-0.240881 c 0.01537,-0.132483 0.0278,-0.250734 0.02761,-0.262778 l -3.92e-4,-0.02189 -0.147032,4.9e-5 -0.147029,4.9e-5 -0.04252,0.109442 c -0.02339,0.0602 -0.04414,0.111434 -0.04612,0.113865 -0.002,0.0024 -0.07997,0.01409 -0.173327,0.02588 l -0.169736,0.02146 V 21.17757 20.959395 l 0.02816,0.0092 c 0.0155,0.005 0.110352,0.01193 0.210795,0.0153 l 0.182614,0.0061 0.0082,-0.09708 c 0.0045,-0.05339 0.0082,-0.124975 0.0082,-0.159129 v -0.06206 l -0.218984,0.0047 -0.218981,0.0047 v -0.178535 -0.178533 l 0.03441,7.94e-4 c 0.01891,4.31e-4 0.07634,0.0075 0.1276,0.01565 l 0.0932,0.01486 0.03989,0.112619 0.03989,0.112618 0.1516,0.0035 0.1516,0.0034 V 20.32647 20.065183 l -0.666329,-0.0069 c -0.366483,-0.0037 -0.667439,-0.0059 -0.6688,-0.0046 z m 10.748877,0 c -0.0014,0.0012 -0.0063,0.05276 -0.01094,0.1145 l -0.0084,0.112229 0.07036,0.02393 0.07038,0.02393 v 0.527511 0.527488 l -0.06883,0.0217 -0.06883,0.02168 v 0.04133 c 0,0.02272 0.0036,0.07679 0.0082,0.120147 l 0.0082,0.07884 0.244033,-0.0082 c 0.134222,-0.0044 0.441872,-0.0082 0.683658,-0.0082 h 0.439603 l 0.02796,-0.240881 c 0.01537,-0.132483 0.0278,-0.250734 0.02761,-0.262778 l -3.92e-4,-0.02189 -0.14703,4.9e-5 -0.147031,4.9e-5 -0.04252,0.109442 c -0.02339,0.0602 -0.04414,0.111434 -0.04611,0.113865 -0.002,0.0024 -0.07999,0.01409 -0.173328,0.02588 l -0.169736,0.02146 V 21.17757 20.959395 l 0.02817,0.0092 c 0.01549,0.005 0.110351,0.01193 0.210796,0.0153 l 0.182614,0.0061 0.0082,-0.09708 c 0.0045,-0.05339 0.0082,-0.124999 0.0082,-0.159154 v -0.06203 l -0.218981,0.0047 -0.218983,0.0047 v -0.178382 -0.178532 l 0.03441,7.93e-4 c 0.01892,4.31e-4 0.07635,0.0075 0.127602,0.01565 l 0.09319,0.01487 0.03989,0.112619 0.03989,0.112619 0.151602,0.0034 0.1516,0.0034 v -0.26129 -0.261288 l -0.66633,-0.0069 c -0.366482,-0.0037 -0.667437,-0.0059 -0.668799,-0.0046 z m 23.909322,0.0068 0.0082,0.05944 c 0.0045,0.03268 0.0118,0.162477 0.01619,0.288392 l 0.0081,0.22893 0.01779,-0.0069 c 0.0097,-0.0036 0.06945,-0.0069 0.132612,-0.0069 h 0.114844 l 0.04162,-0.122982 c 0.0229,-0.06764 0.04537,-0.128717 0.04995,-0.135739 0.0046,-0.007 0.0407,-0.01651 0.08026,-0.02104 l 0.07194,-0.0082 v 0.523309 0.523308 l -0.06569,0.01662 c -0.03614,0.0092 -0.07733,0.02092 -0.09154,0.0262 l -0.02586,0.0096 0.01113,0.09815 c 0.0061,0.05398 0.01325,0.104888 0.0158,0.113108 l 0.0046,0.01495 h 0.431193 l 0.431193,-2.4e-5 0.0067,-0.02745 c 0.0035,-0.0151 0.01038,-0.06695 0.015,-0.115211 l 0.0084,-0.08774 -0.08891,-0.02437 -0.08894,-0.02435 V 20.85711 20.332604 l 0.03913,0.0078 c 0.02151,0.0043 0.0544,0.0078 0.07312,0.0078 h 0.03404 l 0.0465,0.135886 0.04651,0.135911 0.133737,0.0069 c 0.07355,0.0037 0.134395,0.006 0.135152,0.0049 7.93e-4,-0.0012 0.0052,-0.130108 0.0098,-0.28668 l 0.0084,-0.284677 h -0.815513 z m -39.93825,4.9e-4 -0.02236,0.0247 -0.02236,0.0247 0.03218,0.08332 0.03221,0.08332 -0.209083,0.54958 -0.209086,0.549606 -0.09072,0.02653 -0.09073,0.02652 1.19e-4,0.05125 c 6e-5,0.02818 0.0035,0.07968 0.0077,0.114427 l 0.0076,0.06318 0.336586,9.07e-4 0.336586,9.07e-4 0.0056,-0.02652 c 0.0031,-0.01459 0.01139,-0.05636 0.01861,-0.09282 0.0072,-0.03647 0.01307,-0.0738 0.01307,-0.08298 0,-0.0095 -0.0256,-0.02299 -0.05944,-0.03132 -0.03268,-0.0081 -0.08003,-0.02008 -0.105164,-0.02669 l -0.04571,-0.012 0.01994,-0.06239 0.01997,-0.06241 h 0.184276 c 0.101358,0 0.192075,-0.003 0.201582,-0.0067 l 0.01728,-0.0067 0.02102,0.06571 c 0.01155,0.03614 0.01689,0.06912 0.01188,0.07327 -0.005,0.0041 -0.05307,0.01753 -0.106803,0.02974 l -0.09771,0.0222 0.0065,0.03318 c 0.0035,0.01825 0.01285,0.0671 0.02058,0.108563 l 0.01406,0.07541 0.474427,-3.14e-4 0.474428,-3.32e-4 v -0.114356 -0.114353 l -0.08183,-0.02217 c -0.04502,-0.01218 -0.08582,-0.02825 -0.09073,-0.03574 -0.0049,-0.0075 -0.116425,-0.303629 -0.247846,-0.658093 l -0.23895,-0.644482 -0.268814,-0.0034 z m 11.862557,0 -0.02236,0.0247 -0.02233,0.0247 0.03218,0.08332 0.03218,0.08332 -0.20906,0.54958 -0.209083,0.549606 -0.09072,0.02652 -0.09072,0.02654 1.2e-4,0.05125 c 5.8e-5,0.02819 0.0034,0.07968 0.0077,0.114428 l 0.0076,0.06315 0.336584,9.06e-4 0.336613,9.08e-4 0.0055,-0.02652 c 0.003,-0.01459 0.01139,-0.05635 0.01859,-0.09282 0.0072,-0.03647 0.0131,-0.0738 0.0131,-0.08298 0,-0.0095 -0.0256,-0.023 -0.05944,-0.03134 -0.03268,-0.0081 -0.08002,-0.02008 -0.105164,-0.02669 l -0.04572,-0.012 0.01997,-0.0624 0.01994,-0.06241 h 0.184301 c 0.101359,0 0.192049,-0.003 0.201557,-0.0066 l 0.0173,-0.0067 0.02099,0.06572 c 0.01156,0.03614 0.01692,0.06909 0.01191,0.07324 -0.005,0.0041 -0.05309,0.01755 -0.106827,0.02977 l -0.09768,0.0222 0.0065,0.03318 c 0.0035,0.01825 0.01283,0.06709 0.02056,0.108562 l 0.01409,0.07541 0.474427,-3.14e-4 0.47443,-3.33e-4 v -0.114355 -0.114355 l -0.08183,-0.02217 c -0.04501,-0.01218 -0.08583,-0.02824 -0.09072,-0.03572 -0.0049,-0.0075 -0.116424,-0.30363 -0.247845,-0.658095 l -0.238949,-0.64448 -0.268817,-0.0033 z m -17.438677,4.71e-4 0.0082,0.05944 c 0.0045,0.03268 0.01182,0.162452 0.01622,0.288367 l 0.0081,0.228953 0.01779,-0.0069 c 0.0097,-0.0036 0.06946,-0.0069 0.132612,-0.0069 h 0.114818 l 0.04165,-0.122982 c 0.02289,-0.06764 0.04537,-0.128718 0.04995,-0.135739 0.0046,-0.007 0.04069,-0.01651 0.08026,-0.02104 l 0.07195,-0.0082 v 0.523308 0.523283 l -0.06569,0.01662 c -0.03614,0.0092 -0.07733,0.02094 -0.09154,0.02623 l -0.02585,0.0095 0.0111,0.09818 c 0.0061,0.05399 0.01326,0.104889 0.01584,0.113108 l 0.0046,0.01492 h 0.431195 0.431167 l 0.0067,-0.02745 c 0.0035,-0.01511 0.01039,-0.06695 0.015,-0.115211 l 0.0084,-0.08774 -0.08894,-0.02438 -0.08891,-0.02437 v -0.524506 -0.524506 l 0.0391,0.0078 c 0.02151,0.0043 0.05443,0.0078 0.07315,0.0078 h 0.03401 l 0.04652,0.135886 0.04651,0.135887 0.133735,0.0069 c 0.07357,0.0037 0.134373,0.0059 0.135153,0.0049 7.93e-4,-0.0012 0.0052,-0.130084 0.0098,-0.286656 l 0.0084,-0.284676 H 21.56635 Z m 6.682074,2.5e-5 0.0082,0.05944 c 0.0045,0.03268 0.01182,0.16245 0.01623,0.288367 l 0.0081,0.228953 0.01779,-0.0069 c 0.0097,-0.0036 0.06945,-0.0069 0.132613,-0.0069 h 0.114737 l 0.04165,-0.12298 c 0.0229,-0.06764 0.04537,-0.128743 0.04995,-0.135765 0.0046,-0.007 0.04069,-0.01648 0.08026,-0.02102 l 0.07194,-0.0082 v 0.523308 0.523284 l -0.06569,0.01662 c -0.03615,0.0092 -0.07733,0.02094 -0.09154,0.02623 l -0.02585,0.0095 0.01113,0.09818 c 0.0061,0.054 0.01324,0.104864 0.0158,0.113084 l 0.0046,0.01496 h 0.431194 0.431195 l 0.0067,-0.02747 c 0.0035,-0.0151 0.01039,-0.06693 0.015,-0.115185 l 0.0084,-0.08776 -0.08894,-0.02435 -0.08891,-0.02437 V 20.85801 20.333504 l 0.0391,0.0078 c 0.0215,0.0043 0.05443,0.0078 0.07315,0.0078 h 0.03404 l 0.04651,0.135885 0.04651,0.135887 0.133737,0.0069 c 0.07356,0.0037 0.134372,0.006 0.135153,0.0049 7.93e-4,-0.0012 0.0052,-0.130084 0.0098,-0.286656 l 0.0084,-0.284676 h -0.815534 z m 7.59554,0 0.0082,0.05944 c 0.0045,0.03268 0.01182,0.16245 0.01623,0.288367 l 0.0081,0.228953 0.01779,-0.0069 c 0.0097,-0.0036 0.06946,-0.0069 0.132612,-0.0069 h 0.114819 l 0.04165,-0.12298 c 0.0229,-0.06764 0.04537,-0.128743 0.04995,-0.135765 0.0046,-0.007 0.04069,-0.01648 0.08026,-0.02102 l 0.07194,-0.0082 v 0.523308 0.523284 l -0.0657,0.01662 c -0.03614,0.0092 -0.07733,0.02094 -0.09154,0.02623 l -0.02586,0.0095 0.01111,0.09818 c 0.0061,0.054 0.01325,0.104864 0.01584,0.113084 l 0.0046,0.01496 h 0.431193 0.431169 l 0.0067,-0.02747 c 0.0035,-0.0151 0.0104,-0.06693 0.015,-0.115185 l 0.0084,-0.08776 -0.08891,-0.02435 -0.08891,-0.02437 V 20.85801 20.333504 l 0.0391,0.0078 c 0.02151,0.0043 0.05444,0.0078 0.07315,0.0078 h 0.03402 l 0.04653,0.135885 0.0465,0.135887 0.133735,0.0069 c 0.07356,0.0037 0.134373,0.006 0.135152,0.0049 7.93e-4,-0.0012 0.0052,-0.130084 0.0098,-0.286656 l 0.0084,-0.284676 h -0.815435 z m 13.190501,0.281523 0.04324,0.02307 c 0.02377,0.01269 0.0503,0.03627 0.05895,0.05242 l 0.0157,0.02938 -0.0082,0.04105 c -0.0045,0.02258 -0.02608,0.05954 -0.04795,0.08209 -0.02186,0.02255 -0.04406,0.04101 -0.04929,0.04101 -0.0052,0 -0.02383,-0.02443 -0.04133,-0.05428 -0.01815,-0.03099 -0.03183,-0.07365 -0.03183,-0.0994 v -0.04515 l 0.03035,-0.0351 z m 5.436324,0.04284 h 0.08256 0.08258 l 0.04312,0.02046 c 0.02372,0.01125 0.0513,0.03633 0.06132,0.0557 0.01002,0.01938 0.01823,0.05692 0.01823,0.08344 0,0.02687 -0.01443,0.07718 -0.03258,0.113596 -0.01793,0.03595 -0.05084,0.07931 -0.07315,0.09632 l -0.04055,0.03092 h -0.07078 -0.07075 v -0.200213 z m 16.58005,0 h 0.08256 0.08259 l 0.04314,0.02048 c 0.0237,0.01125 0.0513,0.0363 0.06132,0.05568 0.01004,0.01938 0.01825,0.05692 0.01825,0.08344 0,0.02687 -0.01445,0.07718 -0.03259,0.113597 -0.01791,0.03595 -0.05085,0.07931 -0.07314,0.09632 l -0.04053,0.03092 h -0.07078 -0.07075 v -0.200213 z m -47.041008,9.25e-4 h 0.08258 0.08255 l 0.04312,0.02046 c 0.02371,0.01125 0.05133,0.03632 0.06135,0.0557 0.01002,0.01938 0.01821,0.05692 0.01821,0.08344 0,0.02686 -0.01443,0.07718 -0.03258,0.113597 -0.01793,0.03595 -0.05082,0.07931 -0.07312,0.09632 l -0.04055,0.03092 h -0.07078 -0.07078 v -0.200211 z m 3.318527,0.283113 c 0.0055,0.0034 0.01,0.0194 0.01,0.03554 0,0.01613 0.01971,0.08594 0.0438,0.155144 0.02409,0.06921 0.04379,0.128884 0.04379,0.132612 0,0.0036 -0.04786,0.0068 -0.106362,0.0068 -0.05851,0 -0.106363,-0.0039 -0.106363,-0.0089 0,-0.0049 0.02367,-0.08054 0.05257,-0.168123 0.02889,-0.08759 0.05706,-0.156472 0.06256,-0.153067 z m 11.862559,0 c 0.0055,0.0034 0.01,0.0194 0.01,0.03554 0,0.01613 0.01971,0.08594 0.0438,0.155144 0.0241,0.06921 0.0438,0.128884 0.0438,0.132612 0,0.0036 -0.04786,0.0068 -0.106364,0.0068 -0.05851,0 -0.106361,-0.0039 -0.106361,-0.0089 0,-0.0049 0.02367,-0.08052 0.05257,-0.168097 0.02889,-0.08758 0.05706,-0.156472 0.06256,-0.153068 z m 10.120284,0.243569 0.06591,0.0074 c 0.03624,0.004 0.06827,0.0095 0.07117,0.012 0.0029,0.0025 -0.008,0.0186 -0.0241,0.03578 -0.01614,0.01718 -0.03331,0.03124 -0.03818,0.03124 -0.0049,0 -0.02369,-0.01946 -0.04182,-0.04324 z m -0.462574,0.136569 0.10636,0.117752 c 0.05851,0.06477 0.106365,0.121866 0.106365,0.126867 0,0.005 -0.0099,0.01657 -0.02189,0.02571 -0.01203,0.0092 -0.02752,0.01616 -0.03441,0.01556 -0.0069,-5.66e-4 -0.02352,-0.0038 -0.03701,-0.0072 -0.01347,-0.0034 -0.03819,-0.0152 -0.05489,-0.02615 -0.0167,-0.01096 -0.03809,-0.03826 -0.04746,-0.06073 -0.0094,-0.02246 -0.01707,-0.07481 -0.01707,-0.116309 z m 23.530377,0.12308 -0.113423,0.05696 -0.113429,0.05696 v 0.07809 0.07806 l 0.03662,0.02084 0.03668,0.02085 0.01531,0.0511 0.0153,0.0511 -0.01445,0.0482 -0.01445,0.04817 -0.06887,0.06516 c -0.03786,0.03583 -0.06888,0.07061 -0.06888,0.0773 0,0.0067 0.017,0.04584 0.03775,0.08698 l 0.03774,0.07481 0.06548,-0.03287 h 1.24e-4 c 0.03599,-0.01808 0.100046,-0.05739 0.142314,-0.08734 0.04229,-0.02997 0.100584,-0.08138 0.129578,-0.114256 0.02896,-0.03288 0.0676,-0.08794 0.0858,-0.122348 l 0.0331,-0.06256 v -0.131248 -0.131389 l -0.03129,-0.06257 -0.03128,-0.06256 -0.08991,-0.0035 z" /></g></svg>
