<svg xmlns="http://www.w3.org/2000/svg" xml:space="preserve" width="600" height="400" viewBox="0 0 158.75 105.833">
  <path d="M25.665 148.431V95.515h158.75v105.833H25.665zm52.672 31.886c5.11-.73 11.755-2.741 12.712-3.848.586-.677 1.989-5.86 2.504-9.252.575-3.775.373-11.453-.398-15.2-1.962-9.531-6.912-18.17-14.167-24.728-2.255-2.039-4.313-3.521-7.507-5.409-2.24-1.323-6.583-3.286-6.75-3.05-.038.055-.615.755-1.282 1.555-4.789 5.747-9.007 14.41-10.37 21.3-.327 1.653-.955 6.992-.956 8.135 0 .11-1.05.199-2.335.199-4.46 0-10.182 1.085-14.8 2.806-3.819 1.424-3.609 1.24-2.936 2.561 4.453 8.741 11.55 15.923 19.998 20.24 8.312 4.247 17.684 5.919 26.287 4.69zm33.373-4.41c.816-.58 1.532-1.504 1.532-1.976 0-.172-.381-.445-.847-.608-.767-.267-.897-.232-1.389.38-.33.411-.922.735-1.515.83-.81.129-1.087.041-1.654-.526-.648-.648-.68-.82-.68-3.553 0-2.526.065-2.943.539-3.452.836-.897 2.404-.798 3.25.206.643.766.681.775 1.478.378.962-.48 1.015-.84.265-1.794-.81-1.03-1.883-1.486-3.496-1.486-2.482 0-3.987 1.431-4.436 4.217-.447 2.779.224 6.131 1.428 7.125 1.395 1.151 4.095 1.278 5.525.26zm51.468-.125c.974-.738 1.498-1.567 1.247-1.973-.094-.151-.485-.394-.869-.54-.572-.218-.773-.174-1.11.241-.984 1.217-2.264 1.419-3.282.52-.798-.705-1.12-2.704-.823-5.09.233-1.867.813-2.517 2.242-2.517.842 0 1.158.152 1.666.8.618.79.637.795 1.474.378.969-.483 1.018-.673.41-1.6-1.07-1.634-4.032-2.19-5.942-1.117-1.338.752-2.121 2.356-2.288 4.682-.194 2.715.307 4.636 1.528 5.857.559.558 1.352 1.07 1.763 1.137 1.378.224 3.106-.113 3.984-.778zm-38.03-.363v-1.059h-5.545l-.072-4.96-.072-4.961h-2.116l-.071 6.019-.072 6.02h7.948zm6.024-4.961-.07-6.02H128.983l-.07 6.02-.072 6.02h2.401zm6.684 1.984c.007-3.244.072-3.946.331-3.583.177.248 1.267 2.064 2.42 4.035l2.099 3.583h2.021v-12.171h-.898c-.574 0-.955.15-1.058.419-.088.23-.16 1.976-.16 3.88s-.09 3.375-.199 3.269c-.11-.107-1.16-1.823-2.335-3.815l-2.137-3.62h-2.076l-.072 6.019-.07 6.02h2.126zm13.75-2.05v-6.086h-2.116v12.171h2.116zm-14.952-12.537c.669-.36 1.298-1.001 1.72-1.754.652-1.166.665-1.292.665-6.876v-5.689h-2.117l-.132 5.75-.133 5.75-.687.686c-1.457 1.455-4.214 1.008-5.089-.826-.367-.77-.441-1.822-.441-6.21v-5.282h-2.117l.006 5.623c.005 4.882.07 5.763.491 6.691.532 1.17 1.86 2.432 2.765 2.627 2.082.45 3.588.305 5.07-.49zm13.709.013c1.984-1.091 2.777-3.525 1.804-5.536-.704-1.454-1.914-2.152-4.457-2.572-2.437-.403-3.247-.999-3.247-2.387 0-.787.159-1.145.697-1.568.919-.723 2.987-.726 4.574-.006 1.23.557 1.223.56 1.902-.63.363-.636-.216-1.09-2.118-1.66-3.955-1.189-7.26.636-7.291 4.027-.023 2.41 1.236 3.564 4.684 4.294 2.712.574 3.372 1.047 3.372 2.417 0 1.578-.938 2.254-3.13 2.254-1.47 0-1.982-.128-3.068-.766l-1.304-.767-.602.755c-.732.918-.52 1.274 1.225 2.064 2.247 1.016 5.195 1.05 6.959.08zm-41.945-6.063.07-6.549h4.225v-1.852h-10.848v1.852H106.098v6.438c0 3.541.085 6.524.189 6.628.104.104.61.153 1.124.11l.936-.079zm8.735 3.44.074-3.11h3.08l1.56 3.11 1.561 3.108 1.125.082c.618.044 1.124.013 1.124-.07 0-.084-.714-1.576-1.586-3.317l-1.587-3.165.772-.399c2.542-1.314 2.795-5.245.459-7.128-1.016-.819-1.019-.82-4.829-.91l-3.812-.091V158.517l.992-.082.992-.082zm.057-7.608v-2.38h1.919c3.028 0 4.537 1.133 4.057 3.046-.34 1.356-1.104 1.716-3.644 1.716h-2.332zm43.066 4.168.07-6.549h4.522l-.082-.86-.083-.86-5.49-.071-5.49-.072V145.234l2.183.078 2.183.077.07 6.564.071 6.564.988-.082.987-.082zm-17.032-11.2c.088-.23.16-1.481.16-2.78v-2.36l.988.53c1.092.585 3.028.7 4.22.249 1.994-.754 2.994-2.854 2.994-6.285 0-4.534-1.464-6.464-4.938-6.51-1.296-.016-1.797.1-2.431.57-.785.58-.803.582-.966.066-.215-.676-2.1-.761-2.352-.106-.088.23-.16 3.97-.16 8.313 0 4.341.072 8.082.16 8.312.107.28.493.419 1.162.419.67 0 1.055-.139 1.163-.419zm.934-7.144c-.599-.637-.642-.877-.642-3.597v-2.914l.794-.635c1.209-.967 2.861-.888 3.863.184.739.791.767.918.767 3.42 0 2.408-.05 2.656-.685 3.41-.604.719-.848.815-2.07.815-1.147 0-1.496-.118-2.027-.683zm-30.668 2.336c1.91-.977 2.172-1.45 1.29-2.331l-.683-.684-1.004.68c-1.334.906-3.695.97-4.6.127-.649-.604-1.092-1.568-1.092-2.373 0-.484.222-.512 4.1-.512h4.102v-1.555c0-2.381-1.024-4.345-2.735-5.246-1.1-.578-3.994-.59-5.07-.02-.98.52-1.782 1.383-2.38 2.564-.716 1.417-.64 5.602.133 7.246.932 1.981 2.34 2.788 4.911 2.815 1.254.013 1.919-.143 3.028-.71zm-6-7.937c.221-1.393 1.203-2.183 2.713-2.183 1.435 0 2.354.552 2.734 1.645.535 1.534.542 1.53-2.66 1.53h-2.945zm51.637 7.474c0-1-.047-1.062-.86-1.14-.473-.046-.885-.106-.916-.133-.03-.027-.12-3.56-.198-7.851-.133-7.286-.175-7.808-.627-7.895-.266-.051-.777-.02-1.135.07l-.651.164.077 8.173.077 8.174.628.668c.687.731 1.27.92 2.679.865.898-.035.926-.068.926-1.095zm11.144.248c1.483-.915 1.72-1.62.775-2.3-.626-.45-.676-.444-1.623.199-1.347.914-3.725.95-4.528.067-.723-.793-1.138-1.63-1.138-2.297 0-.53.133-.547 4.101-.547h4.101v-1.389c-.005-3.829-1.833-5.852-5.291-5.852-1.838 0-2.894.398-3.89 1.465-2.386 2.555-1.97 8.846.707 10.722.94.658 1.893.86 3.744.793 1.417-.052 1.997-.216 3.042-.86zm-6.514-7.272c0-.765.706-2.038 1.308-2.36.28-.15 1.001-.273 1.603-.273.6 0 1.322.123 1.602.273.602.322 1.308 1.595 1.308 2.36 0 .514-.153.542-2.91.542-2.758 0-2.91-.028-2.91-.542zm-64.03.287v-7.663l2.58-.076 2.58-.076.084-.877c.156-1.618.082-1.637-6.532-1.632-3.293.002-6.144.103-6.336.225-.219.139-.318.607-.265 1.253l.085 1.031 2.58.076 2.58.076v15.326h2.645Zm21.697 2.943.132-4.587.742-.638a2.742 2.742 0 0 1 3.543 0l.742.638.083 4.654.084 4.653h2.347v-4.127c0-4.528.257-5.597 1.48-6.155.857-.39 2.243-.371 2.776.038.89.683 1.035 1.459 1.04 5.53.001 2.23.103 4.21.225 4.402.138.219.606.318 1.252.265l1.032-.085-.003-4.762c-.003-5.233-.131-5.769-1.689-7.08-1.493-1.256-4.468-1.169-6.033.177l-.72.62-1.01-.81c-.887-.713-1.212-.812-2.679-.812-1.289 0-1.852.131-2.476.576-.808.575-.809.575-.95.033-.12-.459-.318-.53-1.287-.46l-1.145.083-.071 5.947c-.04 3.27-.011 6.105.063 6.299.09.236.507.325 1.262.27l1.127-.08z" style="fill:#fdfdfd" transform="translate(-25.665 -95.515)"/>
  <path d="M69.255 180.524a3.768 3.768 0 0 1 1.19 0c.328.063.06.114-.595.114s-.923-.051-.595-.114zm5.556 0a3.768 3.768 0 0 1 1.19 0c.328.063.06.114-.595.114s-.922-.051-.595-.114zM65.038 180c.19-.077.42-.067.507.02.088.088-.068.15-.347.14-.308-.013-.371-.076-.16-.16zm14.817 0c.19-.077.419-.067.507.02.088.088-.069.15-.348.14-.308-.013-.37-.076-.16-.16zm28.96-3.443c.257-.067.615-.062.794.01.179.073-.032.128-.468.122-.437-.005-.583-.064-.326-.131zm51.33 0c.257-.067.614-.062.793.01.179.073-.032.128-.468.122-.437-.005-.583-.064-.326-.131zm-31.168-6.1.008-6.02.893-.085c.492-.047.995.016 1.118.139.123.123-.247.179-.822.124l-1.047-.1-.079 5.98-.078 5.981zm6.879 0 .008-6.02.949-.079c.67-.056 1.054.06 1.31.397.309.407.307.428-.01.146-.203-.182-.76-.331-1.238-.331h-.868l-.08 5.953-.078 5.953zm-45.196 3.993c-5.506-11.302-16.512-20.036-29.144-23.127-2.326-.569-7.128-1.305-8.513-1.305-.484 0-.88-.09-.88-.199.001-1.143.629-6.482.956-8.136 1.363-6.889 5.581-15.552 10.37-21.299.667-.8 1.244-1.5 1.283-1.555.166-.236 4.509 1.727 6.749 3.05 3.194 1.888 5.252 3.37 7.507 5.409 6.026 5.447 10.457 12.302 12.896 19.952 1.57 4.925 1.913 7.429 1.898 13.89-.014 6.039-.304 8.162-1.77 12.923l-.598 1.943zm15.28.902-.504-.596.596.504c.327.278.595.545.595.596 0 .211-.213.055-.687-.504zm13.563-.904c-.097-.097-.176-2.372-.176-5.055v-4.879l-1.051.1c-.579.056-.951 0-.828-.123s.626-.186 1.118-.139l.893.086.072 4.952.072 4.952 2.839.085 2.838.085-2.8.056c-1.54.03-2.88-.023-2.976-.12zm38.739-1.83c.012-.309.075-.371.16-.16.076.19.067.419-.021.507-.088.088-.15-.068-.14-.347zm-51.255-2.227c0-1.383.045-1.948.1-1.257.054.691.054 1.822 0 2.513-.055.692-.1.126-.1-1.256zm35.586 2.05c-.052-.182-.03-1.997.049-4.035l.144-3.704.054 4.035c.05 3.734-.004 4.556-.247 3.704zm13.356-2.05c0-1.092.046-1.538.103-.993.057.546.057 1.44 0 1.985-.057.546-.103.1-.103-.992zm-51.347 0c0-.655.052-.923.115-.596.063.328.063.864 0 1.191-.063.327-.115.06-.115-.595zm-61.753-.993c-.33-.42-.32-.429.1-.1.254.2.463.409.463.464 0 .217-.218.077-.563-.364zm115.413-1.014c.012-.308.075-.37.16-.16.076.191.067.42-.021.508-.088.087-.15-.069-.14-.348zm4.346-.636c-.092-.15.014-.194.25-.104.458.176.542.365.161.365-.137 0-.322-.117-.41-.261zm-53.773-1.51c.257-.067.615-.062.794.01.179.073-.032.128-.468.123-.437-.005-.583-.065-.326-.132zm51.33 0c.257-.067.614-.062.793.01.179.073-.032.128-.468.123-.437-.005-.583-.065-.326-.132zm3.334-.808c-.33-.42-.32-.43.1-.1.254.2.463.408.463.463 0 .218-.218.077-.563-.363zm-125.007-.397-.504-.595.595.504c.56.473.716.686.504.686-.05 0-.318-.268-.595-.595zm104.87-.65c.328-.064.804-.061 1.057.005.253.066-.016.118-.598.115-.582-.003-.789-.057-.46-.12zm6.61 0a3.768 3.768 0 0 1 1.191 0c.328.063.06.115-.595.115s-.923-.052-.595-.115zm-16.387-5.815c.191-.076.42-.067.507.021.088.088-.068.15-.347.14-.308-.014-.371-.076-.16-.16zm-27.342-.403c-.074-.194-.1-3.208-.059-6.697l.076-6.345.061 6.548.061 6.549h1.843l.078-6.483.078-6.482-.007 6.549-.007 6.548-.994.082c-.647.054-1.042-.04-1.13-.27zm9.722.137.984-.113.088-3.093.089-3.094-.014 3.175-.014 3.175-1.058.032-1.059.031zm7.615.078c0-.058.477-.15 1.059-.205.582-.056 1.058-.008 1.058.104 0 .113-.476.205-1.058.205-.582 0-1.059-.047-1.059-.104zm35.516-.078.988-.114.077-6.268.078-6.268-.007 6.35-.007 6.35-1.058.032-1.058.031zm-21.625-1.14c.263-.292.538-.53.611-.53.073 0-.083.238-.346.53-.264.29-.539.529-.612.529-.072 0 .084-.238.347-.53zm4.63-1.423c0-.055.209-.264.463-.463.42-.33.43-.32.1.1-.345.44-.563.58-.563.363zm-11.255-.447c-.096-.155-.118-.34-.049-.408.07-.07.197.057.283.282.179.466.026.548-.234.126zm-2.461-1.04c0-.365.06-.514.133-.332.074.182.074.48 0 .662-.073.182-.133.033-.133-.33zm21.96 0c0-.365.06-.514.134-.332.073.182.073.48 0 .662-.074.182-.134.033-.134-.33zm2.136-.265c0-.51.055-.718.121-.464.067.255.067.672 0 .927-.066.254-.12.046-.12-.463zm-15.56-5.028c0-2.983.039-4.203.086-2.712a103.9 103.9 0 0 1 0 5.424c-.047 1.492-.086.272-.086-2.712zm2.116-.264c0-2.838.039-3.999.086-2.58.048 1.419.048 3.74 0 5.16-.047 1.418-.086.258-.086-2.58zm10.703 4.035c-.329-.42-.32-.43.1-.1.255.2.463.408.463.463 0 .218-.217.077-.563-.363zm-29.213-.084c-.096-.155-.118-.339-.048-.408.069-.07.196.057.282.282.18.466.027.548-.234.126zm26.023-.957c.19-.076.419-.067.507.021.088.088-.069.15-.348.139-.308-.013-.37-.075-.16-.16zm-22.573-.877c.264-.291.539-.53.611-.53.073 0-.083.239-.346.53-.264.29-.539.529-.611.529-.073 0 .083-.238.346-.53zm-81.144-.181c.19-.077.42-.067.507.02.088.089-.068.151-.347.14-.308-.013-.371-.076-.16-.16zm4.22-.536c.329-.063.805-.06 1.058.005.253.066-.016.118-.598.115-.582-.003-.79-.057-.46-.12zm70.025-.165c-.074-.195-.095-1.355-.045-2.58l.09-2.227.054 2.436.053 2.437 2.05.09 2.051.09-2.058.053c-1.511.04-2.095-.04-2.195-.3zm25.085-2.293c0-.51.054-.718.12-.463.067.254.067.67 0 .926-.066.254-.12.046-.12-.463zm2.097-.265c0-.364.06-.513.133-.33.074.181.074.479 0 .66-.073.183-.133.034-.133-.33zm2.405-2.3c.255-.066.672-.066.926 0 .255.068.047.122-.463.122-.509 0-.717-.055-.463-.121zm17.987-.61c0-.51.055-.718.121-.463.067.254.067.67 0 .926-.066.254-.12.046-.12-.463zM146 143.223c.191-.076.42-.067.508.021.087.088-.069.15-.348.14-.308-.013-.37-.076-.16-.16zm2.117 0c.191-.076.42-.067.507.021.088.088-.068.15-.347.14-.308-.013-.371-.076-.16-.16zm-7.24-10.931c0-4.584.035-6.46.08-4.167a263.13 263.13 0 0 1 0 8.334c-.045 2.292-.08.417-.08-4.167zm2.318 5.622c-.051-2.512.133-3.213.631-2.406.115.185.073.233-.107.122-.208-.128-.321.584-.382 2.407l-.087 2.59zm14.812-1.57c.89-.104.987-.196 1.086-1.027.108-.902.109-.901.082.081-.028.974-.05.995-1.086 1.026l-1.059.032zm-58.397-7.822.006-7.74 2.564-.075 2.564-.076.11-.919.109-.919-.028.995-.028.994-2.575.076-2.576.076-.076 7.663-.077 7.664zm19.313 1.256.007-6.085h1.19c1.006 0 1.195.082 1.217.529.02.403 0 .419-.084.066-.082-.343-.379-.463-1.146-.463h-1.035l-.078 6.02-.079 6.019zm2.363 2.117c0-2.328.041-3.246.09-2.038.05 1.207.05 3.112 0 4.233-.05 1.121-.09.133-.09-2.195zm15.611-.132c0-2.402.04-3.384.09-2.183.048 1.2.048 3.165 0 4.365-.05 1.2-.09.219-.09-2.182zm-2.382 0c0-2.256.04-3.179.09-2.051.05 1.128.05 2.973 0 4.101-.05 1.128-.09.205-.09-2.05zm-28.186 3.24c-.33-.419-.32-.428.1-.1.254.2.463.409.463.464 0 .218-.218.077-.563-.363zm8.368-.065c.263-.291.538-.53.611-.53.073 0-.083.239-.347.53-.263.29-.538.529-.61.529-.074 0 .082-.238.346-.53zm56.224.164c0-.055.208-.263.463-.463.42-.329.429-.32.1.1-.346.44-.563.581-.563.363zm-60.92-.88a3.768 3.768 0 0 1 1.19 0c.328.063.06.114-.595.114s-.923-.051-.595-.114zm35.721 0c.33-.064.806-.062 1.059.004.253.067-.017.118-.599.115-.582-.003-.789-.057-.46-.12zm20.635 0a3.768 3.768 0 0 1 1.19 0c.328.063.06.114-.595.114s-.923-.051-.595-.114zm-1.82-.806c-.329-.42-.32-.429.1-.1.44.346.58.563.363.563-.055 0-.263-.208-.463-.463zm-13.174-1.543c.012-.308.075-.371.16-.16.076.191.066.42-.021.507-.088.088-.15-.068-.14-.347zm-8.137-1.83c.001-1.019.05-1.403.107-.854.057.549.056 1.382-.002 1.852-.059.47-.106.02-.104-.998zm5.821 0c.001-1.019.05-1.403.107-.854.057.549.056 1.382-.002 1.852-.059.47-.106.02-.105-.998zm12.156-.132c0-.655.052-.923.115-.596.063.328.063.863 0 1.19-.063.328-.115.06-.115-.594zm-56.386 0c0-.364.06-.513.133-.331.074.182.074.48 0 .661-.073.182-.133.033-.133-.33zm46.566-1.853c0-.363.06-.512.134-.33.073.182.073.48 0 .661-.074.182-.134.033-.134-.33zm-36.004-.418c.013-.309.076-.371.16-.16.076.19.067.419-.02.507-.089.088-.151-.069-.14-.347zm35.318-1.885c-.143-.377-.113-.408.148-.148.181.18.262.393.181.474-.082.082-.23-.065-.329-.326zm-40.829-.26c.255-.067.672-.067.926 0 .255.066.047.12-.463.12s-.717-.054-.463-.12zm56.356 0c.255-.067.672-.067.927 0 .254.066.046.12-.464.12-.509 0-.717-.054-.463-.12zm-38.588-.942-.504-.596.596.504c.559.474.715.687.504.687-.05 0-.318-.268-.596-.595zm22.225 0-.504-.596.596.504c.559.474.715.687.504.687-.05 0-.318-.268-.596-.595zm-6.7-.088c.012-.309.075-.371.16-.16.076.19.066.419-.022.507-.087.088-.15-.069-.139-.347zm-1.675-.827a3.768 3.768 0 0 1 1.19 0c.328.063.06.115-.595.115s-.922-.052-.595-.115zm-31.618-.26c.255-.066.672-.066.926 0 .255.067.047.121-.463.121s-.717-.054-.463-.12zm14.557 0c.258-.068.615-.064.794.01.18.072-.031.127-.468.121-.437-.005-.583-.065-.326-.132zm7.404 0c.254-.066.671-.066.926 0 .254.067.046.121-.463.121-.51 0-.718-.054-.463-.12zm14.287 0c.255-.066.672-.066.926 0 .255.067.046.121-.463.121-.51 0-.718-.054-.463-.12zm20.108 0c.255-.066.672-.066.927 0 .254.067.046.121-.464.121-.509 0-.717-.054-.463-.12zm-74.308-2.835c-.079-.204-.094-.77-.034-1.257.099-.805.112-.784.15.23l.043 1.115 2.58.086 2.58.087-2.589.055c-2.016.043-2.62-.026-2.73-.316zm3.4-2.207c1.71-.046 4.508-.046 6.218 0s.31.084-3.109.084c-3.42 0-4.819-.038-3.109-.084zm60.325.015c.255-.066.672-.066.926 0 .255.067.046.121-.463.121-.51 0-.718-.054-.463-.12z" style="fill:#c6c7c9" transform="translate(-25.665 -95.515)"/>
  <path d="M71.63 180.52c.47-.059 1.303-.06 1.852-.003.55.058.165.106-.854.107-1.019 0-1.468-.046-.998-.104zm45.699-4.38c-.071-.186-.095-2.835-.052-5.887l.077-5.55.06 5.748.061 5.747 3.903.081 3.902.081-3.91.059c-2.971.044-3.943-.023-4.041-.28zm12.642.155.988-.114.079-5.607.079-5.606-.008 5.688-.008 5.689-1.059.031-1.058.032zm6.812.034.787-.149.083-3.953.084-3.953-.01 4.036-.011 4.035-.86.066c-.836.064-.838.062-.073-.083zm6.558-.04c.33-.062.805-.06 1.058.006s-.016.118-.598.115c-.582-.003-.789-.057-.46-.12zm6.612.001a3.768 3.768 0 0 1 1.19 0c.328.063.06.115-.595.115s-.923-.052-.595-.115zm-40.994-1.581c.19-.077.419-.067.507.02.088.089-.068.151-.347.14-.309-.013-.371-.076-.16-.16zm51.329 0c.19-.077.42-.067.507.02.088.089-.068.151-.347.14-.308-.013-.371-.076-.16-.16zm3.903-.8c-.144-.377-.113-.408.148-.148.18.18.262.393.18.474-.08.082-.229-.065-.328-.326zm-1.543-.64c.18-.18.393-.262.475-.18.081.081-.066.229-.327.328-.377.144-.407.114-.148-.148zm-121.91-5.986-1.712-1.786 1.786 1.712c.982.942 1.786 1.745 1.786 1.786 0 .195-.27-.053-1.86-1.712zm41.547-4.167c-1.084-1.092-1.911-1.985-1.838-1.985.072 0 1.019.893 2.103 1.985 1.084 1.091 1.912 1.984 1.839 1.984-.073 0-1.02-.893-2.104-1.984zm-44.483.992c-.33-.42-.32-.43.1-.1.44.346.58.563.363.563-.055 0-.264-.209-.463-.463zm68.675-12.37c0-3.638.037-5.162.083-3.388.046 1.774.046 4.75 0 6.614-.045 1.864-.083.413-.083-3.225zm37.936 6.302c.19-.076.42-.067.507.021.088.088-.068.15-.347.139-.308-.013-.371-.075-.16-.16zm13.923-6.301c0-3.639.037-5.163.082-3.39.046 1.775.046 4.751 0 6.615-.045 1.864-.082.413-.082-3.225zm-34.588 3.16c-.83-1.669-1.504-3.122-1.497-3.23.008-.107.73 1.216 1.604 2.942.874 1.725 1.548 3.178 1.497 3.23-.052.05-.773-1.273-1.604-2.942zm27.33 2.131c.34-.364.68-.661.753-.661.073 0-.148.297-.49.661-.341.364-.68.662-.753.662-.073 0 .147-.298.49-.662zm-21.466-.066c-.329-.42-.32-.429.1-.1.44.346.58.563.363.563-.055 0-.263-.208-.463-.463zm-6.96-.253c-.144-.377-.114-.408.148-.148.18.18.262.393.18.474-.081.082-.23-.065-.329-.326zm10.367 0a3.768 3.768 0 0 1 1.19 0c.328.063.06.115-.594.115-.655 0-.923-.052-.596-.115zm13.63-.003c.402-.06.997-.06 1.323.004.325.063-.004.113-.731.11-.728-.001-.994-.053-.592-.114zm-15.45-.802c-.329-.42-.32-.43.1-.1.255.2.464.408.464.463 0 .218-.218.077-.563-.363zm10.618.363c0-.055.208-.263.463-.463.42-.33.429-.32.1.1-.346.44-.563.58-.563.363zm-19.695-.616c-.143-.377-.113-.408.148-.148.181.179.262.392.181.474-.082.081-.23-.065-.329-.326zm20.984-.276c-.33-.42-.32-.43.1-.1.44.345.58.563.363.563-.055 0-.263-.209-.463-.463zm7.062-.144c.1-.261.247-.408.329-.326.081.081 0 .295-.18.474-.262.26-.293.229-.149-.148zm-21.56-.341c.013-.309.076-.371.16-.16.077.19.067.419-.02.507-.089.088-.151-.069-.14-.347zm23.548 0c.013-.309.076-.371.16-.16.077.19.067.419-.02.507-.089.088-.151-.069-.14-.347zm-30.563-.298c-.144-.377-.113-.407.148-.148.181.18.262.393.18.475-.08.081-.229-.066-.328-.327zm-.53-1.058c-.143-.377-.112-.408.149-.148.18.18.262.393.18.474-.08.082-.229-.065-.328-.326zm7.384-4.972.009-5.027h1.852l.009 5.093.009 5.093-.081-5.027-.08-5.027H128.6l-.08 4.96-.081 4.962zm23.73 4.63c0-.364.06-.513.134-.33.073.181.073.479 0 .66-.074.182-.134.034-.134-.33zm-15.063-4.697-.06-5.093.992.043c.969.04.972.044.138.148l-.854.106-.078 4.945-.078 4.945zm-19.446 3.448c.47-.059 1.303-.06 1.852-.002.549.057.164.105-.854.106-1.019 0-1.468-.046-.998-.104zm29.639-.25c.182-.073.48-.073.661 0 .182.074.033.134-.33.134-.364 0-.513-.06-.331-.133zm3.877-.42-.504-.595.596.504c.327.278.595.545.595.596 0 .211-.213.055-.687-.504zm-7.699-.879-.742-.68.86.598c.473.329.86.635.86.68 0 .21-.293.03-.978-.598zm-85.326.236c.19-.077.419-.067.507.02.088.089-.069.151-.347.14-.309-.013-.371-.076-.16-.16zm-12.7-.265c.19-.076.419-.067.507.021.088.088-.069.15-.347.14-.309-.014-.371-.076-.16-.16zm10.583 0c.191-.076.42-.067.507.021.088.088-.068.15-.347.14-.308-.014-.371-.076-.16-.16zm-6.102-.28c.91-.051 2.398-.051 3.307 0 .91.052.166.094-1.653.094-1.82 0-2.563-.042-1.654-.094zm74.7-.333c.386-.81.508-.96.508-.624 0 .142-.185.49-.412.772-.388.484-.393.476-.096-.148zm-2.645.19c.06-.041.348-.25.64-.463.489-.36.501-.354.165.075-.2.254-.487.463-.639.463-.152 0-.227-.034-.166-.075zm25.047-.1c.182-.074.48-.074.662 0 .182.073.033.133-.331.133s-.513-.06-.33-.133zm-4.654-1.413c0-.363.06-.512.133-.33.073.181.073.48 0 .661-.073.182-.133.033-.133-.33zm1.931-.017c-.096-.155-.117-.34-.048-.409.07-.069.197.058.283.283.179.466.026.548-.235.126zm-20.972-.644c.005-.437.065-.583.132-.326.067.258.063.615-.01.794-.072.179-.127-.032-.122-.468zm1.822-.022c.012-.308.075-.371.16-.16.076.19.067.42-.021.507-.088.088-.15-.068-.14-.347zm17.198-1.059c.012-.308.075-.37.16-.16.076.192.067.42-.021.508-.088.088-.15-.069-.14-.348zm-19.705-.599-.5-.701.618.588c.34.323.566.639.501.701-.065.063-.343-.202-.619-.588zm21.536.505c0-.137.118-.322.261-.41.15-.094.195.013.104.248-.175.459-.365.542-.365.162zm-19.414-.423c-.256-.665-.18-.837.132-.3.154.265.225.538.157.606-.069.068-.199-.07-.29-.306zm-22.853-1.776.066-.86 5.358-.071 5.357-.072-.042.998c-.041.977-.044.98-.149.138l-.107-.86H102.163l-.15.794c-.146.782-.147.781-.082-.067zm41.34.331c.264-.291.54-.53.612-.53.073 0-.083.239-.347.53-.263.291-.538.53-.61.53-.074 0 .082-.239.346-.53zm10.518-.33.066-.86 5.358-.072 5.358-.072-.043.998c-.041.977-.044.98-.149.138l-.106-.86H154.02l-.149.794c-.147.782-.148.781-.083-.067zm-37.03-.925a38.42 38.42 0 0 1 3.439.001c.903.052.095.093-1.797.093s-2.63-.043-1.643-.094zm31.87.021c.183-.073.48-.073.662 0 .182.074.033.134-.33.134-.364 0-.513-.06-.331-.134zm-1.714-.272c.257-.067.615-.063.794.01.179.072-.032.127-.468.122-.437-.005-.584-.065-.326-.132zm-5.297-2.38c.255-.067.672-.067.926 0 .255.066.047.12-.463.12s-.717-.054-.463-.12zm-30.543-4.497c.191-.076.42-.067.508.021.087.088-.069.15-.348.14-.308-.014-.37-.076-.16-.16zm34.66 0c.192-.076.42-.067.508.021.088.088-.068.15-.347.14-.309-.014-.371-.076-.16-.16zm1.588 0c.191-.076.42-.067.507.021.088.088-.068.15-.347.14-.308-.014-.37-.076-.16-.16zm18.521 0c.191-.076.42-.067.507.021.088.088-.068.15-.347.14-.308-.014-.37-.076-.16-.16zm1.588 0c.19-.076.419-.067.507.021.088.088-.069.15-.348.14-.308-.014-.37-.076-.16-.16zm-70.213-8.021c0-4.293.036-6.05.081-3.903a228.34 228.34 0 0 1 0 7.806c-.045 2.146-.08.39-.08-3.903zm29.623 3.704c0-2.256.04-3.178.09-2.05.05 1.127.05 2.973 0 4.1-.05 1.128-.09.206-.09-2.05zm2.116.132c0-2.182.041-3.04.091-1.906.05 1.135.05 2.92 0 3.969-.05 1.048-.091.12-.091-2.063zm26.583 3.374c-.329-.42-.32-.43.1-.1.44.346.581.563.363.563-.055 0-.263-.209-.463-.463zm-5.655-.33c.264-.292.539-.53.612-.53.072 0-.084.238-.347.53-.263.29-.538.528-.611.528-.073 0 .083-.238.346-.529zm8.269-.97c.182-.073.48-.073.661 0 .182.073.033.134-.33.134-.364 0-.513-.06-.331-.134zm-3.257-7.894c0-4.22.037-5.91.081-3.755.045 2.156.045 5.609 0 7.673-.045 2.065-.081.302-.081-3.918zm15.03 6.874c.456-.498.471-.498.927 0 .44.48.44.488 0 .156-.383-.288-.543-.288-.926 0-.441.332-.441.325 0-.156zm-12.914-7.271c0-4.148.037-5.844.082-3.77.044 2.073.044 5.466 0 7.54-.045 2.074-.082.377-.082-3.77zm4.403 5.93c.012-.308.075-.37.16-.16.076.192.067.42-.021.508-.088.088-.15-.068-.14-.347zm-54.219-.639c0-.363.06-.512.133-.33.074.181.074.48 0 .661-.073.182-.133.033-.133-.33zm44.226-1.19c0-.873.05-1.199.11-.723.058.475.057 1.19-.004 1.587-.06.398-.108.008-.107-.864zm12.11 1.036c.012-.308.075-.371.16-.16.076.191.066.42-.022.507-.088.088-.15-.068-.139-.347zm-56.336-2.756c0-.364.06-.513.133-.33.074.181.074.479 0 .66-.073.183-.133.034-.133-.33zm8.181.11c.013-.308.076-.37.16-.16.076.191.067.42-.02.507-.089.088-.151-.068-.14-.347zm48.175-.11c0-.364.06-.513.134-.33.073.181.073.479 0 .66-.074.183-.134.034-.134-.33zm8.181.11c.013-.308.076-.37.16-.16.077.191.067.42-.02.507-.088.088-.151-.068-.14-.347zm-10.318-.529c.012-.308.075-.37.16-.16.076.191.067.42-.021.507-.088.088-.15-.068-.14-.347zm-53.732-1.268c0-.055.209-.264.463-.464.42-.329.43-.32.1.1-.345.441-.563.581-.563.364zm35.984 0c0-.055.208-.264.463-.464.42-.329.429-.32.1.1-.346.441-.563.581-.563.364zm-20.042-1.141c.254-.067.67-.067.926 0 .254.066.046.12-.463.12-.51 0-.718-.054-.463-.12zm7.942-.001c.258-.067.615-.063.794.01.179.072-.032.127-.468.122-.437-.005-.583-.065-.326-.132zm14.288 0c.257-.067.614-.063.793.01.18.072-.031.127-.468.122-.436-.005-.583-.065-.325-.132zm-39.362-.61c.263-.292.538-.53.611-.53.073 0-.083.238-.347.53-.263.29-.538.528-.61.528-.074 0 .082-.238.346-.529zm22.225 0c.263-.292.538-.53.611-.53.073 0-.083.238-.347.53-.263.29-.538.528-.61.528-.074 0 .082-.238.346-.529zm34.131 0c.263-.292.538-.53.611-.53.073 0-.083.238-.346.53-.264.29-.539.528-.612.528-.072 0 .084-.238.347-.529zm-41.275-.265c.263-.291.538-.53.611-.53.073 0-.083.239-.346.53-.264.29-.539.529-.612.529-.072 0 .084-.238.347-.53z" style="fill:#9f9b9b" transform="translate(-25.665 -95.515)"/>
  <path d="M76.68 180.265c.19-.076.419-.067.507.021.088.088-.069.15-.348.139-.308-.013-.37-.075-.16-.16zm30.482-4.251c-1.864-.936-2.636-3.244-2.298-6.863.26-2.78 1.396-4.262 3.585-4.676 1.622-.307 3.832.648 4.534 1.96.222.415.136.567-.513.902-.752.39-.808.376-1.571-.387-1.059-1.059-2.187-1.065-3.234-.018-.746.746-.773.861-.773 3.29 0 2.978.226 3.704 1.333 4.276.982.508 2.122.228 2.88-.707.431-.534.545-.555 1.302-.241.821.34.825.349.392 1.08-.987 1.672-3.726 2.344-5.637 1.384zm51.433.087c-1.859-.81-2.602-2.748-2.443-6.37.078-1.749.243-2.616.624-3.26 1.362-2.305 4.878-2.741 6.778-.84.924.923.95 1.41.1 1.798-.57.26-.747.2-1.434-.487-.775-.776-2.14-1.056-2.824-.581-.926.643-1.175 1.532-1.175 4.186 0 2.276.08 2.785.525 3.351.95 1.207 2.671 1.148 3.704-.127.413-.51.557-.543 1.164-.267.84.383.875.826.126 1.63-1.181 1.267-3.468 1.697-5.145.967zm-41.12-5.71v-5.82h1.852v10.054h5.82v1.588h-7.672zm11.642 0v-5.82h1.852v11.642h-1.852zm6.879 0v-5.82h.904c.886 0 .955.084 3.373 4.148l2.47 4.148.073-4.148.073-4.148h1.839v11.642H142.742l-2.356-3.97c-1.295-2.182-2.456-3.968-2.58-3.968-.123 0-.224 1.786-.224 3.969v3.969H135.996zm13.494 0v-5.82h2.116v11.642h-2.116zm-17.693-12.244c-1.264-.404-2.57-1.737-2.914-2.972-.168-.607-.293-3.276-.294-6.28l-.001-5.226h1.541l.09 5.49c.079 4.865.146 5.574.591 6.231.995 1.468 2.779 1.89 4.507 1.066 1.641-.782 1.858-1.62 1.956-7.562l.086-5.225h1.548v5.195c0 3.303-.117 5.584-.32 6.264-.782 2.608-3.832 3.964-6.79 3.019zm12.982-.072c-.627-.197-1.548-.61-2.048-.92-.896-.553-.902-.57-.449-1.194.254-.348.52-.6.593-.562 3.336 1.782 5.215 1.933 6.859.55.816-.687 1.065-1.792.65-2.876-.246-.64-1.566-1.225-3.327-1.474-3.12-.441-4.522-1.688-4.522-4.022 0-1.701.298-2.325 1.58-3.302.884-.674 1.154-.736 3.105-.713 2.006.024 3.85.512 4.225 1.118.076.124-.041.483-.261.797-.384.549-.434.554-1.234.14-.458-.236-1.557-.488-2.441-.56-1.46-.117-1.687-.062-2.46.588-.679.572-.851.917-.851 1.705 0 1.275.765 2.009 2.513 2.41 4.183.963 5.013 1.474 5.434 3.344.843 3.753-2.997 6.345-7.366 4.971zm-38.152-6.336v-6.483h-4.498V143.67H112.448V145.256H108.215v12.965h-1.588zm8.467-.794v-7.276h3.407c4.415 0 5.454.403 6.331 2.46.76 1.78-.036 4.31-1.605 5.109-.471.24-.894.467-.94.506-.045.039.64 1.512 1.524 3.274l1.606 3.203h-.91c-.899 0-.931-.041-2.45-3.109l-1.54-3.109-1.785-.078-1.786-.078v6.374h-1.852zm6.981-.915c1.565-.595 1.876-3.161.514-4.233-.581-.457-1.07-.54-3.165-.54h-2.478v5.026h2.232c1.227 0 2.531-.114 2.897-.253zm36.41 1.709v-6.483h-4.497V143.67H164.306V145.256h-4.234v12.965h-1.588z" style="fill:#6a6767" transform="translate(-25.665 -95.515)"/>
  <path d="M68.742 180.265c.191-.076.42-.067.507.021.088.088-.068.15-.347.139-.308-.013-.371-.075-.16-.16zm-6.962-1.122c-7.712-1.985-14.423-5.686-19.932-10.991-4.133-3.98-6.466-7.025-8.969-11.707l-1.161-2.172 1.008-.43a44.749 44.749 0 0 1 15.46-3.477l3.868-.157.19 2.352c.59 7.29 2.845 14.045 6.472 19.387 1.455 2.143 4.694 6.02 5.937 7.109 1.221 1.07.974 1.077-2.873.086zm-7.06-28.776c.19-.076.418-.067.506.021.088.088-.068.15-.347.139-.308-.013-.37-.075-.16-.16zm86.303-18.075v-8.467h1.058c.976 0 1.06.057 1.067.728.007.627.053.669.33.305 1.062-1.391 4.427-1.726 5.949-.591 1.5 1.117 1.782 2.014 1.782 5.643 0 2.832-.076 3.437-.529 4.206-1.386 2.354-4.58 2.994-6.79 1.361l-.75-.555v5.836h-2.117zm7.192 1.357c.826-.738.853-.832.946-3.242.077-2.007.004-2.658-.384-3.407-1.041-2.016-4.158-2.012-5.174.007-.573 1.138-.627 4.382-.094 5.656.79 1.891 3.141 2.384 4.706.986zm-39.402 2.57c-2.33-.527-3.773-2.942-3.773-6.315 0-3.966 1.98-6.353 5.257-6.338 3.148.015 4.978 2 5.132 5.567l.062 1.439-4.168.073c-4.588.08-4.512.045-3.802 1.743.2.48.707 1.143 1.125 1.473.633.5 1.004.582 2.232.494.969-.07 1.756-.308 2.303-.697.708-.504.91-.542 1.367-.257.861.538.846.953-.061 1.645-1.536 1.172-3.704 1.62-5.674 1.174zm4.561-7.962c-.42-1.489-.79-2.103-1.48-2.46-1.628-.842-3.717-.198-4.362 1.344-.715 1.712-.717 1.711 2.817 1.711 3.185 0 3.192-.002 3.025-.595zm52.23 8.02c-2.472-.48-3.824-2.232-4.114-5.33-.418-4.48 1.556-7.387 5.017-7.387 2.265 0 4.072 1.07 4.823 2.854.2.478.4 1.609.441 2.513l.076 1.645-4.187.073-4.187.073.178.853c.23 1.101.761 1.927 1.588 2.47.917.6 3.208.393 4.308-.39.786-.56.86-.567 1.497-.15.854.56.842.716-.116 1.523-1.25 1.051-3.564 1.596-5.324 1.254zm4.11-8.153c-.39-1.797-1.4-2.711-2.996-2.711-1.73 0-2.755.856-3.102 2.593l-.17.846h6.427zm-72.347.331v-7.805h-5.292v-2.126l6.284.07 6.284.072.082.992.082.992h-5.324v15.61h-2.116Zm21.884 7.642c-.103-.104-.189-2.908-.189-6.23v-6.042h1.059c.97 0 1.058.059 1.058.708v.707l.595-.542c1.74-1.584 4.334-1.552 6.04.075l.682.65.509-.57c1.22-1.37 3.928-1.71 5.698-.715 1.814 1.02 2.087 1.994 2.087 7.46v4.694l-.993-.082-.992-.082-.136-4.498c-.075-2.474-.233-4.697-.35-4.94-.12-.244-.635-.642-1.147-.885-1.742-.826-3.497.043-4.062 2.01-.142.496-.258 2.599-.258 4.673v3.772h-1.807l-.089-4.479c-.08-4.06-.14-4.549-.644-5.223-1.021-1.367-2.832-1.469-4.26-.241l-.74.636-.133 4.588-.132 4.587-.803.079c-.442.043-.889-.006-.993-.11zm36.568-.61-.773-.773v-16.18h1.852v7.408c0 7.055.025 7.433.53 7.937.29.291.766.53 1.057.53.429 0 .53.176.53.925 0 .924-.003.926-1.211.926-.986 0-1.355-.143-1.985-.773z" style="fill:#a3273b" transform="translate(-25.665 -95.515)"/>
  <path d="M68.395 180.286c-3.05-.312-3.483-.6-6.645-4.394-5.885-7.064-8.761-14.12-9.505-23.324l-.19-2.346 2.481.192c13.243 1.027 25.704 8.265 33.031 19.184 1.456 2.17 2.72 4.37 3.384 5.885.304.696.273.748-.79 1.29-1.655.844-6.243 2.273-9.287 2.892-2.621.533-9.839.892-12.48.621z" style="fill:#770f33" transform="translate(-25.665 -95.515)"/>
</svg>
