<?xml version="1.0" encoding="UTF-8" standalone="no"?>
<!-- Created with Inkscape (http://www.inkscape.org/) -->

<svg
   width="600"
   height="400"
   viewBox="0 0 158.75 105.83333"
   version="1.1"
   id="svg1"
   xml:space="preserve"
   inkscape:version="1.4 (86a8ad7, 2024-10-11)"
   sodipodi:docname="templetrust.svg"
   xmlns:inkscape="http://www.inkscape.org/namespaces/inkscape"
   xmlns:sodipodi="http://sodipodi.sourceforge.net/DTD/sodipodi-0.dtd"
   xmlns="http://www.w3.org/2000/svg"
   xmlns:svg="http://www.w3.org/2000/svg"><sodipodi:namedview
     id="namedview1"
     pagecolor="#ffffff"
     bordercolor="#111111"
     borderopacity="1"
     inkscape:showpageshadow="0"
     inkscape:pageopacity="0"
     inkscape:pagecheckerboard="1"
     inkscape:deskcolor="#d1d1d1"
     inkscape:document-units="px"
     inkscape:zoom="0.78573232"
     inkscape:cx="310.53833"
     inkscape:cy="332.17419"
     inkscape:window-width="1920"
     inkscape:window-height="1115"
     inkscape:window-x="-9"
     inkscape:window-y="-9"
     inkscape:window-maximized="1"
     inkscape:current-layer="layer1" /><defs
     id="defs1" /><g
     inkscape:label="Layer 1"
     inkscape:groupmode="layer"
     id="layer1"><g
       id="g1"
       transform="translate(-25.664583,-95.51458)"><path
         style="fill:#fdfdfd"
         d="M 25.664583,148.43125 V 95.51458 h 79.374997 79.375 v 52.91667 52.91667 h -79.375 -79.374997 z m 52.672174,31.88537 c 5.11017,-0.72965 11.755038,-2.74103 12.712599,-3.84807 0.585242,-0.6766 1.988168,-5.86005 2.504068,-9.25188 0.574177,-3.77498 0.372961,-11.45285 -0.398327,-15.19912 -1.962365,-9.53154 -6.912078,-18.17143 -14.166931,-24.72884 -2.255194,-2.0384 -4.312773,-3.52073 -7.507165,-5.40835 -2.240064,-1.32369 -6.582561,-3.28622 -6.749111,-3.05016 -0.03881,0.055 -0.616279,0.75485 -1.283266,1.55522 -4.788594,5.74617 -9.006591,14.40971 -10.369773,21.29896 -0.327273,1.65397 -0.95444,6.99301 -0.955713,8.13593 -1.22e-4,0.10914 -1.051059,0.19844 -2.335416,0.19844 -4.460463,0 -10.181625,1.08476 -14.798966,2.80595 -3.81958,1.42382 -3.60933,1.24041 -2.93636,2.56144 4.453078,8.7413 11.549023,15.92314 19.997726,20.2398 8.311868,4.24675 17.683541,5.91906 26.286635,4.69068 z m 33.373543,-4.40867 c 0.81544,-0.58064 1.53137,-1.5051 1.53137,-1.97739 0,-0.17167 -0.38085,-0.44489 -0.84632,-0.60715 -0.76723,-0.26746 -0.89704,-0.23201 -1.38907,0.37938 -0.33094,0.41123 -0.92235,0.73505 -1.51549,0.82978 -0.81022,0.1294 -1.08651,0.0416 -1.65364,-0.52553 -0.64786,-0.64786 -0.6809,-0.82031 -0.6809,-3.55345 0,-2.52513 0.0653,-2.94259 0.53947,-3.45161 0.83606,-0.8974 2.40445,-0.79777 3.24942,0.20641 0.64396,0.7653 0.68193,0.77499 1.47873,0.3775 0.96184,-0.47983 1.01519,-0.84066 0.26527,-1.79403 -0.80978,-1.02947 -1.88327,-1.48561 -3.49625,-1.48561 -2.4819,0 -3.98703,1.43079 -4.43567,4.21659 -0.44756,2.77909 0.22407,6.13126 1.42748,7.12467 1.39486,1.15145 4.09553,1.27874 5.5256,0.26044 z m 51.46792,-0.12643 c 0.97328,-0.73746 1.49747,-1.56655 1.24686,-1.97205 -0.0936,-0.15149 -0.48462,-0.39497 -0.86887,-0.54106 -0.57241,-0.21763 -0.77292,-0.1739 -1.10973,0.24206 -0.98472,1.21606 -2.26452,1.4185 -3.28259,0.51922 -0.79764,-0.70457 -1.12072,-2.70402 -0.82256,-5.09048 0.23312,-1.8658 0.81259,-2.51629 2.24158,-2.51629 0.84213,0 1.15794,0.15178 1.66563,0.80049 0.61846,0.79025 0.63732,0.79508 1.47439,0.3775 0.9689,-0.48336 1.0176,-0.67304 0.41061,-1.59942 -1.07091,-1.63442 -4.03217,-2.1912 -5.9428,-1.11736 -1.3375,0.75171 -2.121,2.35541 -2.28747,4.68205 -0.19425,2.71493 0.30685,4.63561 1.52803,5.8568 0.55837,0.55836 1.35139,1.06995 1.76227,1.13686 1.37882,0.22453 3.10651,-0.11294 3.98465,-0.77832 z m -38.0303,-0.36277 v -1.05833 h -2.77229 -2.77229 l -0.072,-4.96094 -0.072,-4.96094 h -1.05833 -1.05833 l -0.0711,6.01928 -0.0711,6.01927 h 3.97372 3.97372 z m 6.02423,-4.96093 -0.0711,-6.01928 h -1.05833 -1.05834 l -0.0711,6.01928 -0.0711,6.01927 h 1.20056 1.20056 z m 6.68418,1.98437 c 0.007,-3.24416 0.0716,-3.94638 0.33073,-3.58324 0.17727,0.24842 1.26656,2.06412 2.42065,4.0349 l 2.09833,3.58324 h 1.01052 1.01052 v -6.08542 -6.08542 h -0.89773 c -0.57454,0 -0.95555,0.15067 -1.05833,0.41852 -0.0883,0.23018 -0.1606,1.97643 -0.1606,3.88055 0,1.90413 -0.0893,3.37495 -0.19844,3.2685 -0.10914,-0.10646 -1.15998,-1.82294 -2.33519,-3.81441 l -2.13676,-3.62087 h -1.03824 -1.03825 l -0.0711,6.01928 -0.0711,6.01927 h 1.0633 1.0633 z m 13.74992,-2.05052 v -6.08542 h -1.05833 -1.05834 v 6.08542 6.08542 h 1.05834 1.05833 z m -14.95229,-12.53708 c 0.66882,-0.35909 1.29836,-1.00107 1.7198,-1.75375 0.65256,-1.16547 0.66478,-1.29189 0.66478,-6.87584 v -5.68854 h -1.05833 -1.05834 l -0.13229,5.74932 -0.13229,5.74932 -0.68723,0.68659 c -1.45709,1.45572 -4.21417,1.00819 -5.08885,-0.82603 -0.36678,-0.76915 -0.44163,-1.82142 -0.44163,-6.2088 v -5.28269 h -1.05833 -1.05833 l 0.006,5.62239 c 0.005,4.88194 0.0698,5.76322 0.49151,6.69168 0.53113,1.16926 1.85914,2.43138 2.76421,2.62704 2.08245,0.45019 3.58868,0.3044 5.06951,-0.49069 z m 13.70859,0.0131 c 1.98438,-1.09117 2.77752,-3.52468 1.80412,-5.53544 -0.70379,-1.45384 -1.91336,-2.15205 -4.45629,-2.57232 -2.4369,-0.40275 -3.24788,-0.99878 -3.24788,-2.38704 0,-0.78671 0.15941,-1.14532 0.69714,-1.5683 0.91904,-0.72292 2.98776,-0.72554 4.57422,-0.006 1.22948,0.55778 1.22276,0.56 1.90216,-0.6304 0.36258,-0.63527 -0.21568,-1.08847 -2.11773,-1.65972 -3.9557,-1.18804 -7.25981,0.63693 -7.29172,4.02744 -0.0227,2.41006 1.23661,3.56434 4.68446,4.29383 2.71227,0.57386 3.3723,1.04692 3.3723,2.417 0,1.57834 -0.93837,2.25407 -3.13017,2.25407 -1.47014,0 -1.98219,-0.12787 -3.06837,-0.76628 l -1.30375,-0.76629 -0.60168,0.75459 c -0.73207,0.9181 -0.52053,1.27457 1.22481,2.06391 2.2472,1.01631 5.19479,1.05051 6.95838,0.0807 z m -41.94491,-6.06303 0.0708,-6.54844 h 2.11205 2.11204 v -0.92604 -0.92604 h -5.42396 -5.42396 v 0.92604 0.92604 h 2.11667 2.11667 v 6.4382 c 0,3.541 0.085,6.52323 0.18898,6.62717 0.10394,0.10394 0.60995,0.15355 1.12448,0.11025 l 0.93549,-0.0787 z m 8.73503,3.43958 0.0745,-3.10885 h 1.54001 1.54 l 1.56045,3.10885 1.56045,3.10886 1.12448,0.0814 c 0.61847,0.0447 1.12448,0.0131 1.12448,-0.0702 0,-0.0834 -0.71388,-1.57569 -1.58641,-3.31627 l -1.58642,-3.1647 0.77181,-0.39911 c 2.5417,-1.31437 2.79466,-5.24493 0.45876,-7.12836 -1.0156,-0.81888 -1.01852,-0.81943 -4.82864,-0.91032 l -3.81243,-0.091 v 7.58141 7.5814 l 0.99219,-0.0821 0.99218,-0.0821 z m 0.0577,-7.60677 v -2.38125 l 1.91823,4.1e-4 c 3.02833,6.5e-4 4.53755,1.13375 4.05752,3.04633 -0.34042,1.35634 -1.10385,1.71576 -3.64439,1.71576 h -2.33136 z m 43.06556,4.16719 0.0708,-6.54844 h 2.2611 2.2611 l -0.0829,-0.85989 -0.0829,-0.8599 -5.4901,-0.0715 -5.4901,-0.0715 v 0.92071 0.92071 l 2.18281,0.0769 2.18281,0.0768 0.0708,6.56414 0.0708,6.56413 0.98753,-0.0818 0.98753,-0.0818 z M 143.24357,140.6044 c 0.0883,-0.23018 0.1606,-1.48057 0.1606,-2.77864 v -2.36012 l 0.98827,0.52968 c 1.09127,0.58489 3.02758,0.6988 4.22002,0.24826 1.99333,-0.75313 2.99379,-2.85323 2.99379,-6.28434 0,-4.53393 -1.46442,-6.46419 -4.93869,-6.50973 -1.29533,-0.017 -1.7961,0.10037 -2.43092,0.56967 -0.78507,0.58036 -0.80253,0.58156 -0.96612,0.0661 -0.2147,-0.67647 -2.1001,-0.76177 -2.35159,-0.10639 -0.0883,0.23018 -0.1606,3.97091 -0.1606,8.31274 0,4.34182 0.0723,8.08255 0.1606,8.31273 0.10732,0.27966 0.49296,0.41852 1.16232,0.41852 0.66936,0 1.055,-0.13886 1.16232,-0.41852 z m 0.93432,-7.14342 c -0.5987,-0.6373 -0.64143,-0.87691 -0.64143,-3.59696 v -2.91418 l 0.79375,-0.63506 c 1.20851,-0.96691 2.861,-0.88818 3.86259,0.18403 0.73917,0.79129 0.76762,0.91799 0.76762,3.41929 0,2.40849 -0.0499,2.6568 -0.68498,3.4116 -0.60431,0.71818 -0.84816,0.81405 -2.07055,0.81405 -1.14737,0 -1.49583,-0.11737 -2.027,-0.68277 z m -30.66788,2.33642 c 1.91033,-0.97778 2.17187,-1.45037 1.29043,-2.33181 l -0.68388,-0.68388 -1.00353,0.68102 c -1.33383,0.90516 -3.69468,0.97005 -4.60018,0.12645 -0.64849,-0.60416 -1.09202,-1.56799 -1.09202,-2.37307 0,-0.48418 0.22239,-0.51194 4.10104,-0.51194 h 4.10105 v -1.55519 c 0,-2.38108 -1.02426,-4.34526 -2.73534,-5.24551 -1.09963,-0.57853 -3.99329,-0.58987 -5.06987,-0.0199 -0.98041,0.5191 -1.78123,1.38202 -2.37906,2.56354 -0.71686,1.41676 -0.64038,5.60148 0.13241,7.24552 0.93146,1.9816 2.33929,2.7887 4.91118,2.81555 1.2534,0.0131 1.91846,-0.14305 3.02777,-0.71083 z m -6.00044,-7.9375 c 0.22186,-1.39337 1.20322,-2.18282 2.71345,-2.18282 1.43531,0 2.35352,0.55223 2.73427,1.64444 0.53491,1.53446 0.54168,1.53056 -2.66066,1.53056 h -2.94503 z m 51.6373,7.47448 c 0,-1.00063 -0.0469,-1.06286 -0.85989,-1.14125 -0.47294,-0.0456 -0.88514,-0.10513 -0.91599,-0.13229 -0.0309,-0.0272 -0.12015,-3.5602 -0.19844,-7.85121 -0.13293,-7.28576 -0.17435,-7.80797 -0.62629,-7.89478 -0.26617,-0.0511 -0.77705,-0.0194 -1.13528,0.0705 l -0.65133,0.16347 0.077,8.1734 0.0769,8.1734 0.62819,0.6683 c 0.68755,0.73144 1.27096,0.91978 2.6791,0.86488 0.89798,-0.035 0.92604,-0.0682 0.92604,-1.09443 z m 11.14408,0.24796 c 1.48309,-0.91532 1.72054,-1.62 0.77505,-2.30014 -0.62608,-0.45036 -0.67605,-0.44426 -1.62311,0.19844 -1.34682,0.91397 -3.72514,0.94958 -4.52829,0.0678 -0.72296,-0.79374 -1.13752,-1.63113 -1.13752,-2.29771 0,-0.52885 0.13289,-0.54656 4.10104,-0.54656 h 4.10105 l -0.001,-1.38907 c -0.004,-3.82912 -1.83259,-5.85175 -5.29019,-5.85175 -1.838,0 -2.89356,0.39743 -3.88998,1.4646 -2.38574,2.55516 -1.97091,8.84597 0.70701,10.72166 0.93994,0.65836 1.89344,0.8604 3.74372,0.79326 1.41732,-0.0514 1.99767,-0.21556 3.0427,-0.86053 z m -6.51387,-7.27256 c 0,-0.76496 0.70543,-2.03764 1.30826,-2.36027 0.27997,-0.14984 1.00094,-0.27243 1.60216,-0.27243 0.60122,0 1.32219,0.12259 1.60216,0.27243 0.60283,0.32263 1.30826,1.59531 1.30826,2.36027 0,0.51382 -0.15289,0.5423 -2.91042,0.5423 -2.75753,0 -2.91042,-0.0285 -2.91042,-0.5423 z m -64.029163,0.2873 v -7.66334 l 2.579683,-0.0757 2.57969,-0.0757 0.0842,-0.87718 c 0.15535,-1.6184 0.0818,-1.63679 -6.532741,-1.63231 -3.292781,0.002 -6.143942,0.10364 -6.335913,0.22537 -0.218706,0.13867 -0.317502,0.60645 -0.264583,1.25272 l 0.08445,1.0314 2.579688,0.0757 2.579687,0.0757 v 7.66334 7.66334 H 98.425 99.747917 Z m 21.695833,2.94334 0.13229,-4.58771 0.74236,-0.63782 c 1.00679,-0.865 2.53572,-0.86493 3.54237,1.6e-4 l 0.74235,0.63796 0.0832,4.65371 0.0832,4.6537 h 1.17357 1.17357 v -4.1272 c 0,-4.52819 0.25721,-5.59757 1.48041,-6.15489 0.85706,-0.39051 2.2425,-0.37159 2.77585,0.0379 0.88958,0.683 1.03538,1.45875 1.03945,5.53044 0.002,2.22876 0.10365,4.20936 0.22537,4.40133 0.13868,0.2187 0.60645,0.3175 1.25272,0.26458 l 1.0314,-0.0845 -0.003,-4.76251 c -0.003,-5.23236 -0.13087,-5.76844 -1.68883,-7.07938 -1.49277,-1.25608 -4.46793,-1.1687 -6.03261,0.17718 l -0.72114,0.62029 -1.0095,-0.81125 c -0.88703,-0.71284 -1.21196,-0.81126 -2.6783,-0.81126 -1.28942,0 -1.85251,0.13081 -2.47693,0.57544 -0.80776,0.57518 -0.80819,0.57519 -0.94988,0.0334 -0.11994,-0.45866 -0.3179,-0.52938 -1.28675,-0.45968 l -1.14501,0.0824 -0.0714,5.94714 c -0.0392,3.27092 -0.0106,6.10556 0.0637,6.29918 0.0906,0.23599 0.50661,0.32519 1.262,0.27057 l 1.1269,-0.0815 z"
         id="path6" /><path
         style="fill:#c6c7c9"
         d="m 69.254687,180.5237 c 0.327422,-0.0631 0.863203,-0.0631 1.190625,0 0.327422,0.0631 0.05953,0.11466 -0.595312,0.11466 -0.654844,0 -0.922735,-0.0516 -0.595313,-0.11466 z m 5.55625,0 c 0.327422,-0.0631 0.863203,-0.0631 1.190625,0 0.327422,0.0631 0.05953,0.11466 -0.595312,0.11466 -0.654844,0 -0.922735,-0.0516 -0.595313,-0.11466 z m -9.773047,-0.52319 c 0.190997,-0.0764 0.4192,-0.067 0.507119,0.0209 0.08792,0.0879 -0.06835,0.15045 -0.347266,0.13897 -0.308225,-0.0127 -0.370919,-0.0754 -0.159853,-0.15986 z m 14.816667,0 c 0.190996,-0.0764 0.419199,-0.067 0.507118,0.0209 0.08792,0.0879 -0.06835,0.15045 -0.347265,0.13897 -0.308225,-0.0127 -0.37092,-0.0754 -0.159853,-0.15986 z m 28.960373,-3.44219 c 0.25743,-0.0671 0.61462,-0.0627 0.79375,0.01 0.17913,0.0725 -0.0315,0.12736 -0.46806,0.12197 -0.43656,-0.005 -0.58312,-0.0647 -0.32569,-0.13177 z m 51.32917,0 c 0.25743,-0.0671 0.61462,-0.0627 0.79375,0.01 0.17913,0.0725 -0.0315,0.12736 -0.46806,0.12197 -0.43656,-0.005 -0.58312,-0.0647 -0.32569,-0.13177 z m -31.16735,-6.10035 0.008,-6.01943 0.89354,-0.0854 c 0.49145,-0.047 0.99436,0.0154 1.11759,0.13862 0.12322,0.12323 -0.24684,0.17914 -0.82236,0.12426 l -1.0464,-0.0998 -0.0788,5.98058 -0.0788,5.98059 z m 6.87917,0 0.008,-6.01943 0.94869,-0.0795 c 0.67068,-0.0562 1.05461,0.0601 1.31016,0.39688 0.30891,0.40713 0.30754,0.42831 -0.009,0.14567 -0.20399,-0.18191 -0.76156,-0.33073 -1.23904,-0.33073 h -0.86816 l -0.0787,5.95327 -0.0787,5.95328 z m -45.195488,3.9931 c -5.50623,-11.30225 -16.512359,-20.03576 -29.144807,-23.12679 -2.32551,-0.56903 -7.12788,-1.30553 -8.512723,-1.30553 -0.483992,0 -0.879886,-0.0893 -0.879764,-0.19844 0.0013,-1.14292 0.62844,-6.48196 0.955713,-8.13593 1.363182,-6.88925 5.581179,-15.55279 10.369773,-21.29896 0.666987,-0.80037 1.244457,-1.50022 1.283266,-1.55522 0.16655,-0.23606 4.509047,1.72647 6.749111,3.05016 3.194392,1.88762 5.251971,3.36995 7.507165,5.40835 6.026137,5.44682 10.457229,12.30235 12.895988,19.95192 1.570364,4.9257 1.912377,7.42896 1.897838,13.89062 -0.01359,6.03832 -0.304486,8.16181 -1.770329,12.92294 l -0.598121,1.94273 z m 15.280058,0.90154 -0.50403,-0.59531 0.59531,0.50402 c 0.32742,0.27722 0.59531,0.54511 0.59531,0.59532 0,0.21173 -0.21293,0.0554 -0.68659,-0.50403 z m 13.56298,-0.90399 c -0.097,-0.097 -0.17639,-2.37171 -0.17639,-5.05488 v -4.87848 l -1.05144,0.10027 c -0.57829,0.0551 -0.95061,-5.5e-4 -0.82739,-0.12378 0.12323,-0.12322 0.62614,-0.1856 1.11759,-0.13862 l 0.89353,0.0854 0.072,4.95205 0.072,4.95205 2.83846,0.085 2.83847,0.085 -2.80018,0.0562 c -1.54009,0.0309 -2.87954,-0.0232 -2.97656,-0.12019 z m 38.73825,-1.83004 c 0.0127,-0.30822 0.0754,-0.37092 0.15985,-0.15985 0.0764,0.19099 0.067,0.4192 -0.0209,0.50712 -0.0879,0.0879 -0.15046,-0.0683 -0.13897,-0.34727 z m -51.25467,-2.22691 c 0,-1.38245 0.0446,-1.94799 0.0991,-1.25677 0.0545,0.69122 0.0545,1.82232 0,2.51354 -0.0545,0.69123 -0.0991,0.12568 -0.0991,-1.25677 z m 35.58553,2.05052 c -0.0519,-0.1819 -0.0298,-1.9976 0.0493,-4.03489 l 0.14371,-3.70417 0.0547,4.03489 c 0.0506,3.73423 -0.004,4.55633 -0.2477,3.70417 z m 13.35596,-2.05052 c 0,-1.09141 0.0467,-1.53789 0.10378,-0.99219 0.0571,0.54571 0.0571,1.43867 0,1.98438 -0.0571,0.5457 -0.10378,0.0992 -0.10378,-0.99219 z m -51.34606,0 c 0,-0.65484 0.0516,-0.92273 0.11466,-0.59531 0.0631,0.32742 0.0631,0.8632 0,1.19062 -0.0631,0.32742 -0.11466,0.0595 -0.11466,-0.59531 z m -61.753729,-0.99219 c -0.329108,-0.41964 -0.319749,-0.429 0.0999,-0.0999 0.254661,0.19972 0.463021,0.40808 0.463021,0.46302 0,0.21776 -0.217272,0.0776 -0.562916,-0.36313 z m 115.412969,-1.01423 c 0.0127,-0.30823 0.0754,-0.37092 0.15985,-0.15986 0.0764,0.191 0.067,0.4192 -0.0209,0.50712 -0.0879,0.0879 -0.15046,-0.0683 -0.13897,-0.34726 z m 4.34661,-0.63638 c -0.0927,-0.14998 0.0135,-0.19434 0.24897,-0.10399 0.45837,0.1759 0.54223,0.36554 0.16165,0.36554 -0.13693,0 -0.32171,-0.1177 -0.41062,-0.26155 z m -53.7734,-1.5093 c 0.25743,-0.0671 0.61462,-0.0627 0.79375,0.01 0.17913,0.0725 -0.0315,0.12736 -0.46806,0.12197 -0.43656,-0.005 -0.58312,-0.0647 -0.32569,-0.13177 z m 51.32917,0 c 0.25743,-0.0671 0.61462,-0.0627 0.79375,0.01 0.17913,0.0725 -0.0315,0.12736 -0.46806,0.12197 -0.43656,-0.005 -0.58312,-0.0647 -0.32569,-0.13177 z m 3.33465,-0.80884 c -0.32911,-0.41964 -0.31975,-0.429 0.0999,-0.0999 0.25466,0.19972 0.46302,0.40808 0.46302,0.46302 0,0.21776 -0.21728,0.0776 -0.56292,-0.36313 z m -125.007014,-0.39687 -0.504028,-0.59532 0.595313,0.50403 c 0.559447,0.47366 0.715761,0.6866 0.504028,0.6866 -0.05021,0 -0.318097,-0.26789 -0.595313,-0.59531 z m 104.869374,-0.65015 c 0.32911,-0.0633 0.80536,-0.0609 1.05833,0.005 0.25296,0.0662 -0.0163,0.118 -0.5984,0.11506 -0.58208,-0.003 -0.78905,-0.0571 -0.45993,-0.1204 z m 6.61149,4e-4 c 0.32743,-0.0631 0.86321,-0.0631 1.19063,0 0.32742,0.0631 0.0595,0.11466 -0.59531,0.11466 -0.65485,0 -0.92274,-0.0516 -0.59532,-0.11466 z m -16.38763,-5.81485 c 0.191,-0.0764 0.4192,-0.067 0.50712,0.0209 0.0879,0.0879 -0.0684,0.15045 -0.34726,0.13896 -0.30823,-0.0127 -0.37092,-0.0754 -0.15986,-0.15985 z m -27.34182,-0.4037 c -0.0743,-0.19364 -0.10085,-3.20721 -0.059,-6.69683 l 0.0761,-6.34477 0.0611,6.54844 0.0611,6.54844 h 0.92142 0.92142 l 0.0778,-6.48243 0.0778,-6.48242 -0.007,6.54857 -0.007,6.54857 -0.99431,0.0822 c -0.64628,0.0535 -1.0416,-0.041 -1.12941,-0.26981 z m 9.72223,0.13749 0.98393,-0.11317 0.0881,-3.09338 0.0881,-3.09337 -0.0137,3.175 -0.0137,3.175 -1.05833,0.0315 -1.05833,0.0316 z m 7.61504,0.0779 c 0,-0.0575 0.47625,-0.14992 1.05833,-0.20543 0.58208,-0.0555 1.05833,-0.008 1.05833,0.1045 0,0.11299 -0.47625,0.20543 -1.05833,0.20543 -0.58208,0 -1.05833,-0.047 -1.05833,-0.1045 z m 35.51564,-0.0781 0.98752,-0.11339 0.0779,-6.26816 0.0779,-6.26816 -0.007,6.35 -0.007,6.35 -1.05834,0.0315 -1.05833,0.0316 z m -21.62502,-1.14034 c 0.26339,-0.29104 0.53842,-0.52916 0.61118,-0.52916 0.0728,0 -0.0832,0.23812 -0.3466,0.52916 -0.26338,0.29104 -0.53842,0.52917 -0.61118,0.52917 -0.0728,0 0.0832,-0.23813 0.3466,-0.52917 z m 4.63021,-1.42281 c 0,-0.0549 0.20836,-0.2633 0.46302,-0.46302 0.41964,-0.32911 0.429,-0.31975 0.0999,0.0999 -0.34565,0.44073 -0.56292,0.58089 -0.56292,0.36313 z m -11.25567,-0.44687 c -0.0959,-0.15521 -0.11766,-0.33894 -0.0483,-0.40829 0.0694,-0.0694 0.1966,0.0576 0.28277,0.28219 0.17891,0.46622 0.0264,0.54823 -0.23447,0.1261 z m -2.46089,-1.04073 c 0,-0.36381 0.0601,-0.51263 0.13345,-0.33073 0.0734,0.1819 0.0734,0.47955 0,0.66145 -0.0734,0.18191 -0.13345,0.0331 -0.13345,-0.33072 z m 21.96042,0 c 0,-0.36381 0.0601,-0.51263 0.13345,-0.33073 0.0734,0.1819 0.0734,0.47955 0,0.66145 -0.0734,0.18191 -0.13345,0.0331 -0.13345,-0.33072 z m 2.13627,-0.26459 c 0,-0.50932 0.0545,-0.71768 0.121,-0.46302 0.0666,0.25466 0.0666,0.67138 0,0.92604 -0.0666,0.25466 -0.121,0.0463 -0.121,-0.46302 z m -15.5602,-5.02708 c 0,-2.98318 0.0386,-4.20357 0.0857,-2.71198 0.0472,1.49159 0.0472,3.93237 0,5.42396 -0.0472,1.49159 -0.0857,0.2712 -0.0857,-2.71198 z m 2.11582,-0.26459 c 0,-2.83765 0.0389,-3.99851 0.0865,-2.57968 0.0476,1.41883 0.0476,3.74054 0,5.15937 -0.0476,1.41883 -0.0865,0.25797 -0.0865,-2.57969 z m 10.70342,4.0349 c -0.32911,-0.41964 -0.31975,-0.429 0.0999,-0.0999 0.25466,0.19972 0.46302,0.40807 0.46302,0.46302 0,0.21776 -0.21727,0.0776 -0.56291,-0.36313 z m -29.21359,-0.0837 c -0.0959,-0.1552 -0.11766,-0.33893 -0.0483,-0.40828 0.0694,-0.0694 0.1966,0.0576 0.28277,0.28218 0.17891,0.46623 0.0264,0.54823 -0.23447,0.1261 z m 26.02273,-0.95689 c 0.19099,-0.0764 0.4192,-0.067 0.50712,0.0209 0.0879,0.0879 -0.0684,0.15046 -0.34727,0.13897 -0.30822,-0.0127 -0.37092,-0.0754 -0.15985,-0.15986 z m -22.57227,-0.87759 c 0.26339,-0.29104 0.53842,-0.52916 0.61118,-0.52916 0.0728,0 -0.0832,0.23812 -0.3466,0.52916 -0.26338,0.29104 -0.53842,0.52917 -0.61118,0.52917 -0.0728,0 0.0832,-0.23813 0.3466,-0.52917 z m -81.1444,-0.18074 c 0.190997,-0.0764 0.4192,-0.067 0.507119,0.0209 0.08792,0.0879 -0.06835,0.15045 -0.347266,0.13896 -0.308225,-0.0127 -0.370919,-0.0754 -0.159853,-0.15985 z m 4.219882,-0.53555 c 0.329119,-0.0633 0.805369,-0.0609 1.058334,0.005 0.252964,0.0662 -0.01631,0.118 -0.598398,0.11506 -0.582083,-0.003 -0.789054,-0.0571 -0.459936,-0.1204 z m 70.025638,-0.16572 c -0.0745,-0.19407 -0.095,-1.35493 -0.0455,-2.57969 l 0.0898,-2.22684 0.0538,2.43627 0.0539,2.43626 2.05052,0.0902 2.05052,0.0902 -2.05883,0.0532 c -1.51067,0.0391 -2.09487,-0.0407 -2.19422,-0.2996 z m 25.08422,-2.29299 c 0,-0.50932 0.0545,-0.71768 0.121,-0.46302 0.0666,0.25466 0.0666,0.67138 0,0.92604 -0.0666,0.25466 -0.121,0.0463 -0.121,-0.46302 z m 2.09706,-0.26458 c 0,-0.3638 0.0601,-0.51263 0.13345,-0.33073 0.0734,0.1819 0.0734,0.47956 0,0.66146 -0.0734,0.1819 -0.13345,0.0331 -0.13345,-0.33073 z m 2.40562,-2.29905 c 0.25466,-0.0666 0.67138,-0.0666 0.92604,0 0.25467,0.0666 0.0463,0.121 -0.46302,0.121 -0.50932,0 -0.71768,-0.0545 -0.46302,-0.121 z m 17.98691,-0.61137 c 0,-0.50932 0.0545,-0.71768 0.121,-0.46302 0.0666,0.25466 0.0666,0.67138 0,0.92604 -0.0666,0.25466 -0.121,0.0463 -0.121,-0.46302 z m -18.63183,-1.23907 c 0.191,-0.0764 0.4192,-0.067 0.50712,0.0209 0.0879,0.0879 -0.0684,0.15045 -0.34727,0.13896 -0.30822,-0.0127 -0.37092,-0.0754 -0.15985,-0.15985 z m 2.11667,0 c 0.19099,-0.0764 0.4192,-0.067 0.50712,0.0209 0.0879,0.0879 -0.0684,0.15045 -0.34727,0.13896 -0.30822,-0.0127 -0.37092,-0.0754 -0.15985,-0.15985 z m -7.24088,-10.93176 c 0,-4.58391 0.036,-6.45914 0.0801,-4.16719 0.044,2.29195 0.044,6.04242 0,8.33437 -0.044,2.29196 -0.0801,0.41672 -0.0801,-4.16718 z m 2.31878,5.62239 c -0.0513,-2.5124 0.13262,-3.21347 0.63135,-2.40651 0.11475,0.18568 0.0728,0.23378 -0.10698,0.12267 -0.20822,-0.12869 -0.32141,0.58365 -0.38238,2.40651 l -0.0866,2.58931 z m 14.81236,-1.57102 c 0.88919,-0.10262 0.98692,-0.19495 1.08608,-1.02603 0.10767,-0.9025 0.10863,-0.90154 0.0812,0.0812 -0.0272,0.97366 -0.0499,0.99514 -1.08608,1.02603 l -1.05833,0.0315 z m -58.397795,-7.82159 0.0061,-7.73916 2.564275,-0.0755 2.56428,-0.0755 0.10929,-0.91894 0.1093,-0.91893 -0.0277,0.99447 -0.0277,0.99448 -2.5757,0.0757 -2.575711,0.0757 -0.07623,7.66348 -0.07623,7.66348 z m 19.313365,1.25667 0.007,-6.08541 h 1.19062 c 1.00557,0 1.19467,0.0822 1.21663,0.52916 0.0198,0.40281 -3.9e-4,0.41861 -0.0845,0.0662 -0.082,-0.34323 -0.37834,-0.46302 -1.1456,-0.46302 h -1.03506 l -0.0783,6.01927 -0.0783,6.01927 z m 2.36338,2.11667 c 3.3e-4,-2.32833 0.0408,-3.24541 0.09,-2.03796 0.0491,1.20746 0.0489,3.11246 -6.1e-4,4.23334 -0.0495,1.12087 -0.0897,0.13296 -0.0893,-2.19538 z m 15.61102,-0.13229 c 0,-2.40109 0.0401,-3.38336 0.0891,-2.18281 0.049,1.20054 0.049,3.16508 0,4.36562 -0.049,1.20055 -0.0891,0.21828 -0.0891,-2.18281 z m -2.38247,0 c 0,-2.25557 0.0406,-3.17831 0.0902,-2.05052 0.0496,1.12779 0.0496,2.97325 0,4.10104 -0.0496,1.12779 -0.0902,0.20505 -0.0902,-2.05052 z m -28.18607,3.24115 c -0.32911,-0.41965 -0.31975,-0.42901 0.0999,-0.0999 0.25466,0.19972 0.46302,0.40808 0.46302,0.46302 0,0.21776 -0.21728,0.0776 -0.56292,-0.36312 z m 8.36812,-0.0661 c 0.26339,-0.29104 0.53843,-0.52917 0.61119,-0.52917 0.0728,0 -0.0832,0.23813 -0.3466,0.52917 -0.26339,0.29104 -0.53842,0.52917 -0.61118,0.52917 -0.0728,0 0.0832,-0.23813 0.34659,-0.52917 z m 56.22396,0.16469 c 0,-0.0549 0.20836,-0.2633 0.46302,-0.46302 0.41965,-0.32911 0.42901,-0.31975 0.0999,0.0999 -0.34564,0.44073 -0.56292,0.58089 -0.56292,0.36313 z m -60.92031,-0.88058 c 0.32742,-0.0631 0.8632,-0.0631 1.19063,0 0.32742,0.0631 0.0595,0.11466 -0.59532,0.11466 -0.65484,0 -0.92273,-0.0516 -0.59531,-0.11466 z m 35.72184,-4.1e-4 c 0.32911,-0.0633 0.80536,-0.0609 1.05833,0.005 0.25296,0.0662 -0.0163,0.11801 -0.5984,0.11507 -0.58208,-0.003 -0.78905,-0.0571 -0.45993,-0.12041 z m 20.63441,4.1e-4 c 0.32742,-0.0631 0.8632,-0.0631 1.19063,0 0.32742,0.0631 0.0595,0.11466 -0.59532,0.11466 -0.65484,0 -0.92273,-0.0516 -0.59531,-0.11466 z m -1.81969,-0.80546 c -0.3291,-0.41965 -0.31974,-0.42901 0.0999,-0.0999 0.44073,0.34564 0.58089,0.56292 0.36313,0.56292 -0.055,0 -0.26331,-0.20836 -0.46303,-0.46302 z m -13.17453,-1.54341 c 0.0127,-0.30822 0.0754,-0.37092 0.15986,-0.15985 0.0764,0.191 0.067,0.4192 -0.0209,0.50712 -0.0879,0.0879 -0.15045,-0.0684 -0.13897,-0.34727 z m -8.13615,-1.83003 c 10e-4,-1.01865 0.049,-1.40295 0.10628,-0.854 0.0573,0.54895 0.0563,1.38239 -0.002,1.85209 -0.0585,0.46969 -0.10531,0.0206 -0.10414,-0.99809 z m 5.82084,0 c 0.001,-1.01865 0.049,-1.40295 0.10627,-0.854 0.0573,0.54895 0.0563,1.38239 -0.002,1.85209 -0.0584,0.46969 -0.10531,0.0206 -0.10413,-0.99809 z m 12.15607,-0.13229 c 0,-0.65485 0.0516,-0.92274 0.11467,-0.59532 0.0631,0.32743 0.0631,0.86321 0,1.19063 -0.0631,0.32742 -0.11467,0.0595 -0.11467,-0.59531 z m -56.38653,0 c 0,-0.36381 0.0601,-0.51263 0.13345,-0.33073 0.0734,0.1819 0.0734,0.47955 0,0.66146 -0.0734,0.1819 -0.13345,0.0331 -0.13345,-0.33073 z m 46.56666,-1.85209 c 0,-0.3638 0.0601,-0.51263 0.13345,-0.33073 0.0734,0.1819 0.0734,0.47956 0,0.66146 -0.0734,0.1819 -0.13345,0.0331 -0.13345,-0.33073 z m -36.00422,-0.41892 c 0.0127,-0.30823 0.0754,-0.37092 0.15985,-0.15985 0.0764,0.19099 0.067,0.4192 -0.0209,0.50711 -0.0879,0.0879 -0.15046,-0.0684 -0.13897,-0.34726 z m 35.318,-1.88477 c -0.14359,-0.37708 -0.1132,-0.40748 0.14811,-0.14811 0.18082,0.17947 0.26212,0.39297 0.18065,0.47443 -0.0815,0.0815 -0.2294,-0.0654 -0.32876,-0.32632 z m -40.82899,-0.25994 c 0.25466,-0.0665 0.67138,-0.0665 0.92604,0 0.25466,0.0666 0.0463,0.121 -0.46302,0.121 -0.50932,0 -0.71768,-0.0545 -0.46302,-0.121 z m 56.35625,0 c 0.25466,-0.0665 0.67138,-0.0665 0.92604,0 0.25466,0.0666 0.0463,0.121 -0.46302,0.121 -0.50932,0 -0.71768,-0.0545 -0.46302,-0.121 z m -38.58816,-0.9421 -0.50403,-0.59531 0.59531,0.50403 c 0.55945,0.47366 0.71577,0.6866 0.50403,0.6866 -0.0502,0 -0.3181,-0.26789 -0.59531,-0.59532 z m 22.225,0 -0.50403,-0.59531 0.59531,0.50403 c 0.55945,0.47366 0.71577,0.6866 0.50403,0.6866 -0.0502,0 -0.3181,-0.26789 -0.59531,-0.59532 z m -6.70085,-0.0882 c 0.0127,-0.30823 0.0754,-0.37092 0.15985,-0.15985 0.0764,0.19099 0.067,0.4192 -0.0209,0.50711 -0.0879,0.0879 -0.15046,-0.0684 -0.13897,-0.34726 z m -1.67453,-0.82614 c 0.32742,-0.0631 0.8632,-0.0631 1.19062,0 0.32742,0.0631 0.0595,0.11467 -0.59531,0.11467 -0.65484,0 -0.92273,-0.0516 -0.59531,-0.11467 z m -31.61771,-0.26024 c 0.25466,-0.0665 0.67138,-0.0665 0.92604,0 0.25466,0.0666 0.0463,0.121 -0.46302,0.121 -0.50932,0 -0.71768,-0.0545 -0.46302,-0.121 z m 14.55712,-9.7e-4 c 0.25743,-0.0671 0.61462,-0.0627 0.79375,0.01 0.17913,0.0725 -0.0315,0.12736 -0.46806,0.12197 -0.43656,-0.005 -0.58312,-0.0647 -0.32569,-0.13178 z m 7.4033,9.7e-4 c 0.25466,-0.0665 0.67138,-0.0665 0.92604,0 0.25466,0.0666 0.0463,0.121 -0.46302,0.121 -0.50933,0 -0.71769,-0.0545 -0.46302,-0.121 z m 14.2875,0 c 0.25466,-0.0665 0.67138,-0.0665 0.92604,0 0.25466,0.0666 0.0463,0.121 -0.46302,0.121 -0.50933,0 -0.71769,-0.0545 -0.46302,-0.121 z m 20.10833,0 c 0.25466,-0.0665 0.67138,-0.0665 0.92604,0 0.25466,0.0666 0.0463,0.121 -0.46302,0.121 -0.50932,0 -0.71768,-0.0545 -0.46302,-0.121 z m -74.308718,-2.83514 c -0.07845,-0.20442 -0.09376,-0.76997 -0.03404,-1.25677 0.09879,-0.80518 0.112413,-0.78444 0.150934,0.22982 l 0.04234,1.1149 2.579687,0.0865 2.579688,0.0865 -2.587992,0.0554 c -2.016471,0.0431 -2.619489,-0.0267 -2.730621,-0.31632 z m 3.400384,-2.20714 c 1.709869,-0.0461 4.507838,-0.0461 6.217704,0 1.70987,0.0461 0.31089,0.0838 -3.10885,0.0838 -3.41974,0 -4.818724,-0.0377 -3.108854,-0.0838 z m 60.325004,0.0152 c 0.25466,-0.0665 0.67138,-0.0665 0.92604,0 0.25466,0.0666 0.0463,0.121 -0.46302,0.121 -0.50933,0 -0.71769,-0.0545 -0.46302,-0.121 z"
         id="path5" /><path
         style="fill:#9f9b9b"
         d="m 71.630036,180.51946 c 0.469697,-0.0585 1.303134,-0.0594 1.852083,-0.002 0.548949,0.0573 0.164652,0.1051 -0.853994,0.10627 -1.018646,0.001 -1.467786,-0.0457 -0.998089,-0.10414 z m 45.698824,-4.37994 c -0.0713,-0.18566 -0.0947,-2.8348 -0.0522,-5.88698 l 0.0774,-5.54941 0.0605,5.74761 0.0605,5.74762 3.9026,0.0809 3.90261,0.0809 -3.91091,0.0585 c -2.97035,0.0444 -3.94206,-0.0227 -4.04044,-0.27906 z m 12.64259,0.15501 0.98707,-0.11336 0.079,-5.60673 0.079,-5.60673 -0.008,5.68854 -0.008,5.68855 -1.05833,0.0315 -1.05834,0.0316 z m 6.81133,0.034 0.78695,-0.14855 0.0836,-3.95279 0.0836,-3.95279 -0.0107,4.03519 -0.0107,4.0352 -0.85989,0.0661 c -0.83519,0.0642 -0.83728,0.0619 -0.0729,-0.0824 z m 6.55833,-0.0386 c 0.32911,-0.0633 0.80536,-0.0609 1.05833,0.005 0.25296,0.0662 -0.0163,0.118 -0.5984,0.11506 -0.58208,-0.003 -0.78905,-0.0571 -0.45993,-0.1204 z m 6.61149,4e-4 c 0.32743,-0.0631 0.86321,-0.0631 1.19063,0 0.32742,0.0631 0.0595,0.11466 -0.59531,0.11466 -0.65485,0 -0.92274,-0.0516 -0.59532,-0.11466 z m -40.99388,-1.58151 c 0.191,-0.0764 0.4192,-0.067 0.50712,0.0209 0.0879,0.0879 -0.0683,0.15046 -0.34726,0.13897 -0.30823,-0.0127 -0.37092,-0.0754 -0.15986,-0.15985 z m 51.32917,0 c 0.191,-0.0764 0.4192,-0.067 0.50712,0.0209 0.0879,0.0879 -0.0683,0.15046 -0.34727,0.13897 -0.30822,-0.0127 -0.37092,-0.0754 -0.15985,-0.15985 z m 3.90308,-0.80004 c -0.14359,-0.37708 -0.1132,-0.40747 0.14811,-0.14811 0.18082,0.17947 0.26212,0.39297 0.18065,0.47443 -0.0815,0.0815 -0.2294,-0.0654 -0.32876,-0.32632 z m -1.54278,-0.63955 c 0.17948,-0.18083 0.39297,-0.26212 0.47444,-0.18066 0.0815,0.0815 -0.0654,0.22941 -0.32632,0.32877 -0.37709,0.14358 -0.40748,0.11319 -0.14812,-0.14811 z m -121.91,-5.98644 -1.712148,-1.78594 1.785937,1.71215 c 0.982266,0.94168 1.785938,1.74535 1.785938,1.78593 0,0.19474 -0.269411,-0.0533 -1.859727,-1.71214 z m 41.547227,-4.16719 c -1.084123,-1.09141 -1.9116,-1.98438 -1.83884,-1.98438 0.07276,0 1.019301,0.89297 2.103423,1.98438 1.084122,1.0914 1.9116,1.98437 1.838839,1.98437 -0.07276,0 -1.0193,-0.89297 -2.103422,-1.98437 z m -44.483749,0.99219 c -0.329108,-0.41965 -0.31975,-0.42901 0.09989,-0.0999 0.44073,0.34564 0.580887,0.56292 0.363126,0.56292 -0.05494,0 -0.263301,-0.20836 -0.46302,-0.46302 z m 68.675542,-12.36928 c -1.6e-4,-3.63802 0.0371,-5.163 0.0828,-3.38884 0.0457,1.77416 0.0458,4.75072 2.9e-4,6.61459 -0.0455,1.86386 -0.0829,0.41227 -0.0831,-3.22575 z m 37.93568,6.30156 c 0.191,-0.0764 0.4192,-0.067 0.50712,0.0209 0.0879,0.0879 -0.0683,0.15046 -0.34727,0.13897 -0.30822,-0.0127 -0.37092,-0.0754 -0.15985,-0.15985 z m 13.92265,-6.30156 c -1.6e-4,-3.63802 0.0371,-5.163 0.0828,-3.38884 0.0457,1.77416 0.0458,4.75072 3e-4,6.61459 -0.0456,1.86386 -0.0829,0.41227 -0.0831,-3.22575 z m -34.58757,3.16092 c -0.83076,-1.66895 -1.5043,-3.12244 -1.49675,-3.22998 0.008,-0.10754 0.72919,1.21604 1.60366,2.94127 0.87447,1.72524 1.54801,3.17873 1.49675,3.22998 -0.0512,0.0512 -0.7729,-1.27232 -1.60366,-2.94127 z m 27.32911,2.13075 c 0.34178,-0.3638 0.68094,-0.66146 0.7537,-0.66146 0.0728,0 -0.14734,0.29766 -0.48911,0.66146 -0.34178,0.3638 -0.68094,0.66146 -0.7537,0.66146 -0.0728,0 0.14734,-0.29766 0.48911,-0.66146 z m -21.465,-0.0662 c -0.3291,-0.41964 -0.31974,-0.429 0.0999,-0.0999 0.44073,0.34564 0.58089,0.56292 0.36313,0.56292 -0.0549,0 -0.26331,-0.20836 -0.46303,-0.46303 z m -6.96069,-0.25317 c -0.14359,-0.37708 -0.1132,-0.40747 0.14811,-0.14811 0.18082,0.17948 0.26211,0.39297 0.18065,0.47443 -0.0815,0.0815 -0.2294,-0.0654 -0.32876,-0.32632 z m 10.36788,3e-4 c 0.32742,-0.0631 0.8632,-0.0631 1.19063,0 0.32742,0.0631 0.0595,0.11467 -0.59532,0.11467 -0.65484,0 -0.92273,-0.0516 -0.59531,-0.11467 z m 13.62968,-0.003 c 0.40218,-0.0608 0.9975,-0.0592 1.32292,0.004 0.32542,0.0628 -0.004,0.11256 -0.73125,0.11057 -0.7276,-0.002 -0.99385,-0.0534 -0.59167,-0.11418 z m -15.44937,-0.80233 c -0.3291,-0.41964 -0.31974,-0.429 0.0999,-0.0999 0.25466,0.19972 0.46302,0.40808 0.46302,0.46302 0,0.21776 -0.21727,0.0776 -0.56292,-0.36313 z m 10.61709,0.36313 c 0,-0.0549 0.20836,-0.2633 0.46302,-0.46302 0.41964,-0.32911 0.429,-0.31975 0.0999,0.0999 -0.34564,0.44073 -0.56291,0.58089 -0.56291,0.36313 z m -19.69445,-0.6163 c -0.14359,-0.37708 -0.1132,-0.40748 0.14811,-0.14811 0.18082,0.17947 0.26212,0.39297 0.18065,0.47443 -0.0815,0.0815 -0.2294,-0.0654 -0.32876,-0.32632 z m 20.98361,-0.276 c -0.3291,-0.41964 -0.31974,-0.429 0.0999,-0.0999 0.44073,0.34564 0.58089,0.56292 0.36313,0.56292 -0.0549,0 -0.26331,-0.20836 -0.46303,-0.46303 z m 7.06222,-0.1437 c 0.0994,-0.26094 0.24731,-0.40778 0.32877,-0.32632 0.0815,0.0815 1.7e-4,0.29496 -0.18066,0.47443 -0.2613,0.25937 -0.29169,0.22898 -0.14811,-0.14811 z m -21.55966,-0.34136 c 0.0127,-0.30823 0.0754,-0.37092 0.15985,-0.15986 0.0764,0.191 0.067,0.4192 -0.0209,0.50712 -0.0879,0.0879 -0.15045,-0.0684 -0.13896,-0.34726 z m 23.54791,0 c 0.0127,-0.30823 0.0754,-0.37092 0.15986,-0.15986 0.0764,0.191 0.067,0.4192 -0.0209,0.50712 -0.0879,0.0879 -0.15045,-0.0684 -0.13897,-0.34726 z m -30.56325,-0.29727 c -0.14358,-0.37709 -0.11319,-0.40748 0.14811,-0.14812 0.18083,0.17948 0.26212,0.39297 0.18066,0.47444 -0.0815,0.0815 -0.22941,-0.0654 -0.32877,-0.32632 z m -0.52916,-1.05834 c -0.14359,-0.37708 -0.1132,-0.40747 0.14811,-0.14811 0.18082,0.17948 0.26211,0.39297 0.18065,0.47443 -0.0815,0.0815 -0.2294,-0.0654 -0.32876,-0.32632 z m 7.38275,-4.97235 0.009,-5.02708 h 0.92604 0.92604 l 0.009,5.09343 0.009,5.09343 -0.0807,-5.02728 -0.0807,-5.02729 h -0.78232 -0.78232 l -0.0804,4.96094 -0.0804,4.96094 z m 23.73055,4.63021 c 0,-0.3638 0.0601,-0.51263 0.13345,-0.33073 0.0734,0.1819 0.0734,0.47956 0,0.66146 -0.0734,0.1819 -0.13345,0.0331 -0.13345,-0.33073 z m -15.06308,-4.69635 -0.0599,-5.09323 0.99218,0.0423 c 0.96862,0.0413 0.9719,0.0449 0.13807,0.14863 l -0.85411,0.10628 -0.0781,4.9446 -0.0781,4.94461 z m -19.44657,3.44706 c 0.46969,-0.0584 1.30313,-0.0594 1.85208,-0.002 0.54895,0.0573 0.16465,0.10509 -0.854,0.10627 -1.01864,0.001 -1.46778,-0.0457 -0.99808,-0.10414 z m 29.63923,-0.24885 c 0.1819,-0.0734 0.47956,-0.0734 0.66146,0 0.1819,0.0734 0.0331,0.13345 -0.33073,0.13345 -0.3638,0 -0.51263,-0.06 -0.33073,-0.13345 z m 3.87747,-0.42009 -0.50403,-0.59531 0.59531,0.50403 c 0.32742,0.27721 0.59531,0.5451 0.59531,0.59531 0,0.21173 -0.21293,0.0554 -0.68659,-0.50403 z m -7.69917,-0.8792 -0.74236,-0.68076 0.85989,0.59823 c 0.47295,0.32902 0.8599,0.63537 0.8599,0.68076 0,0.20885 -0.29266,0.0297 -0.97743,-0.59823 z m -85.326346,0.23544 c 0.190996,-0.0764 0.419199,-0.067 0.507118,0.0209 0.08792,0.0879 -0.06835,0.15045 -0.347266,0.13896 -0.308224,-0.0127 -0.370919,-0.0754 -0.159852,-0.15985 z m -12.7,-0.26458 c 0.190996,-0.0764 0.419199,-0.067 0.507118,0.0209 0.08792,0.0879 -0.06835,0.15045 -0.347266,0.13896 -0.308224,-0.0127 -0.370919,-0.0754 -0.159852,-0.15985 z m 10.583333,0 c 0.190996,-0.0764 0.419199,-0.067 0.507118,0.0209 0.08792,0.0879 -0.06835,0.15045 -0.347265,0.13896 -0.308225,-0.0127 -0.37092,-0.0754 -0.159853,-0.15985 z m -6.101953,-0.27974 c 0.909505,-0.0517 2.397786,-0.0517 3.307292,0 0.909505,0.0517 0.165364,0.0939 -1.653646,0.0939 -1.819011,0 -2.563151,-0.0423 -1.653646,-0.0939 z m 74.699886,-0.33327 c 0.38572,-0.8099 0.50793,-0.96 0.50793,-0.62384 0,0.14197 -0.18517,0.48923 -0.41147,0.77171 -0.38798,0.48426 -0.39349,0.47582 -0.0965,-0.14787 z m -2.64502,0.18971 c 0.0606,-0.0412 0.34836,-0.24953 0.6394,-0.46302 0.48949,-0.35904 0.50194,-0.35342 0.16605,0.0749 -0.19972,0.25466 -0.48746,0.46302 -0.63941,0.46302 -0.15196,0 -0.22668,-0.0337 -0.16604,-0.0749 z m 25.04722,-0.10036 c 0.1819,-0.0734 0.47955,-0.0734 0.66146,0 0.1819,0.0734 0.0331,0.13346 -0.33073,0.13346 -0.36381,0 -0.51263,-0.0601 -0.33073,-0.13346 z m -4.65458,-1.41227 c 0,-0.3638 0.0601,-0.51263 0.13345,-0.33073 0.0734,0.1819 0.0734,0.47956 0,0.66146 -0.0734,0.1819 -0.13345,0.0331 -0.13345,-0.33073 z m 1.93172,-0.0176 c -0.0959,-0.1552 -0.11766,-0.33893 -0.0483,-0.40829 0.0694,-0.0693 0.1966,0.0576 0.28277,0.28219 0.17891,0.46622 0.0264,0.54823 -0.23447,0.1261 z m -20.97192,-0.64386 c 0.005,-0.43656 0.0647,-0.58312 0.13178,-0.32569 0.0671,0.25743 0.0627,0.61462 -0.01,0.79375 -0.0725,0.17913 -0.12736,-0.0315 -0.12197,-0.46806 z m 1.82139,-0.0221 c 0.0127,-0.30822 0.0754,-0.37091 0.15986,-0.15985 0.0764,0.191 0.067,0.4192 -0.0209,0.50712 -0.0879,0.0879 -0.15045,-0.0684 -0.13897,-0.34727 z m 17.19792,-1.05833 c 0.0127,-0.30822 0.0754,-0.37092 0.15985,-0.15985 0.0764,0.19099 0.067,0.4192 -0.0209,0.50712 -0.0879,0.0879 -0.15046,-0.0683 -0.13897,-0.34727 z m -19.70431,-0.59918 -0.50114,-0.70169 0.61873,0.58797 c 0.3403,0.32338 0.56581,0.63914 0.50113,0.70169 -0.0647,0.0625 -0.3431,-0.20204 -0.61872,-0.58797 z m 21.53551,0.50455 c 0,-0.13693 0.1177,-0.32171 0.26155,-0.41061 0.14998,-0.0927 0.19434,0.0135 0.10398,0.24896 -0.17589,0.45837 -0.36553,0.54224 -0.36553,0.16165 z m -19.41419,-0.42272 c -0.25532,-0.66534 -0.18,-0.83702 0.1319,-0.30065 0.15444,0.26557 0.22506,0.5386 0.15693,0.60672 -0.0681,0.0681 -0.19809,-0.0696 -0.28883,-0.30607 z m -22.853,-1.7757 0.0661,-0.8599 5.35782,-0.0716 5.35781,-0.0716 -0.0423,0.99767 c -0.0415,0.97694 -0.0446,0.9798 -0.14906,0.13777 l -0.10671,-0.8599 h -5.12585 -5.12585 l -0.14905,0.79375 c -0.14695,0.78254 -0.14812,0.78161 -0.0829,-0.0661 z m 41.34114,0.33072 c 0.26339,-0.29104 0.53843,-0.52916 0.61119,-0.52916 0.0728,0 -0.0832,0.23812 -0.3466,0.52916 -0.26339,0.29105 -0.53842,0.52917 -0.61118,0.52917 -0.0728,0 0.0832,-0.23812 0.34659,-0.52917 z m 10.51719,-0.33072 0.0661,-0.8599 5.35781,-0.0716 5.35781,-0.0716 -0.0423,0.99767 c -0.0415,0.97694 -0.0446,0.9798 -0.14906,0.13777 l -0.10671,-0.8599 h -5.12585 -5.12584 l -0.14906,0.79375 c -0.14695,0.78254 -0.14812,0.78161 -0.0829,-0.0661 z M 116.7584,143.4723 c 0.98832,-0.0511 2.53613,-0.0507 3.43958,8.4e-4 0.90346,0.0515 0.0948,0.0933 -1.79694,0.0928 -1.89177,-4.6e-4 -2.63096,-0.0426 -1.64264,-0.0936 z m 31.87129,0.0212 c 0.1819,-0.0734 0.47955,-0.0734 0.66146,0 0.1819,0.0734 0.0331,0.13345 -0.33073,0.13345 -0.36381,0 -0.51263,-0.06 -0.33073,-0.13345 z m -1.71476,-0.27271 c 0.25743,-0.0671 0.61462,-0.0627 0.79375,0.01 0.17913,0.0725 -0.0315,0.12736 -0.46806,0.12197 -0.43656,-0.005 -0.58312,-0.0647 -0.32569,-0.13178 z m -5.2967,-2.38028 c 0.25466,-0.0666 0.67138,-0.0666 0.92604,0 0.25466,0.0666 0.0463,0.121 -0.46302,0.121 -0.50932,0 -0.71768,-0.0545 -0.46302,-0.121 z m -30.54284,-4.49627 c 0.191,-0.0764 0.4192,-0.067 0.50712,0.0209 0.0879,0.0879 -0.0683,0.15045 -0.34727,0.13896 -0.30822,-0.0127 -0.37092,-0.0754 -0.15985,-0.15985 z m 34.66042,0 c 0.19099,-0.0764 0.4192,-0.067 0.50712,0.0209 0.0879,0.0879 -0.0684,0.15045 -0.34727,0.13896 -0.30822,-0.0127 -0.37092,-0.0754 -0.15985,-0.15985 z m 1.5875,0 c 0.19099,-0.0764 0.4192,-0.067 0.50712,0.0209 0.0879,0.0879 -0.0684,0.15045 -0.34727,0.13896 -0.30822,-0.0127 -0.37092,-0.0754 -0.15985,-0.15985 z m 18.52083,0 c 0.191,-0.0764 0.4192,-0.067 0.50712,0.0209 0.0879,0.0879 -0.0684,0.15045 -0.34727,0.13896 -0.30822,-0.0127 -0.37092,-0.0754 -0.15985,-0.15985 z m 1.5875,0 c 0.191,-0.0764 0.4192,-0.067 0.50712,0.0209 0.0879,0.0879 -0.0684,0.15045 -0.34727,0.13896 -0.30822,-0.0127 -0.37092,-0.0754 -0.15985,-0.15985 z M 97.219095,128.3229 c 0,-4.29287 0.03639,-6.04904 0.08086,-3.90261 0.04447,2.14643 0.04447,5.65878 0,7.80521 -0.04447,2.14643 -0.08086,0.39026 -0.08086,-3.9026 z m 29.622815,3.70416 c 0,-2.25557 0.0406,-3.1783 0.0902,-2.05052 0.0496,1.12779 0.0496,2.97326 0,4.10104 -0.0496,1.12779 -0.0902,0.20506 -0.0902,-2.05052 z m 2.11599,0.13229 c 3.7e-4,-2.18281 0.0413,-3.04057 0.0911,-1.90613 0.0497,1.13444 0.0494,2.92037 -6.8e-4,3.96875 -0.0501,1.04837 -0.0908,0.1202 -0.0904,-2.06262 z m 26.58335,3.37344 c -0.32911,-0.41964 -0.31975,-0.429 0.0999,-0.0999 0.44072,0.34564 0.58088,0.56291 0.36312,0.56291 -0.0549,0 -0.2633,-0.20836 -0.46302,-0.46302 z m -5.65479,-0.33073 c 0.26339,-0.29104 0.53842,-0.52916 0.61118,-0.52916 0.0728,0 -0.0832,0.23812 -0.3466,0.52916 -0.26339,0.29105 -0.53842,0.52917 -0.61118,0.52917 -0.0728,0 0.0832,-0.23812 0.3466,-0.52917 z m 8.26823,-0.96897 c 0.1819,-0.0734 0.47955,-0.0734 0.66146,0 0.1819,0.0734 0.0331,0.13345 -0.33073,0.13345 -0.36381,0 -0.51263,-0.0601 -0.33073,-0.13345 z m -3.25666,-7.89457 c 1.3e-4,-4.2201 0.0367,-5.90946 0.0812,-3.75413 0.0445,2.15534 0.0444,5.60815 -2.3e-4,7.67292 -0.0446,2.06477 -0.0811,0.30132 -0.081,-3.91879 z m 15.03062,6.87413 c 0.4557,-0.49725 0.47033,-0.49725 0.92604,0 0.44097,0.48117 0.44097,0.48862 0,0.15659 -0.3831,-0.28846 -0.54294,-0.28846 -0.92604,0 -0.44098,0.33203 -0.44098,0.32458 0,-0.15659 z m -12.91418,-7.271 c 0,-4.14735 0.0366,-5.84399 0.0813,-3.77032 0.0447,2.07368 0.0447,5.46696 0,7.54063 -0.0447,2.07367 -0.0813,0.37703 -0.0813,-3.77031 z m 4.40225,5.93107 c 0.0127,-0.30822 0.0754,-0.37092 0.15985,-0.15985 0.0764,0.191 0.067,0.4192 -0.0209,0.50712 -0.0879,0.0879 -0.15046,-0.0684 -0.13897,-0.34727 z m -54.21869,-0.63941 c 0,-0.3638 0.0601,-0.51263 0.13345,-0.33073 0.0734,0.18191 0.0734,0.47956 0,0.66146 -0.0734,0.1819 -0.13345,0.0331 -0.13345,-0.33073 z m 44.22562,-1.19062 c 0.001,-0.87313 0.0509,-1.19842 0.10977,-0.72287 0.0589,0.47555 0.0577,1.18993 -0.003,1.5875 -0.0604,0.39758 -0.10855,0.008 -0.10707,-0.86463 z m 12.10974,1.03628 c 0.0127,-0.30822 0.0754,-0.37092 0.15985,-0.15985 0.0764,0.191 0.067,0.4192 -0.0209,0.50712 -0.0879,0.0879 -0.15045,-0.0684 -0.13896,-0.34727 z m -56.33536,-2.75607 c 0,-0.36381 0.0601,-0.51263 0.13345,-0.33073 0.0734,0.1819 0.0734,0.47955 0,0.66146 -0.0734,0.1819 -0.13345,0.0331 -0.13345,-0.33073 z m 8.18119,0.11024 c 0.0127,-0.30823 0.0754,-0.37092 0.15985,-0.15985 0.0764,0.19099 0.067,0.4192 -0.0209,0.50711 -0.0879,0.0879 -0.15046,-0.0683 -0.13897,-0.34726 z m 48.17506,-0.11024 c 0,-0.36381 0.06,-0.51263 0.13345,-0.33073 0.0734,0.1819 0.0734,0.47955 0,0.66146 -0.0734,0.1819 -0.13345,0.0331 -0.13345,-0.33073 z m 8.18119,0.11024 c 0.0127,-0.30823 0.0754,-0.37092 0.15985,-0.15985 0.0764,0.19099 0.067,0.4192 -0.0209,0.50711 -0.0879,0.0879 -0.15046,-0.0683 -0.13897,-0.34726 z m -10.31875,-0.52917 c 0.0127,-0.30822 0.0754,-0.37092 0.15985,-0.15985 0.0764,0.191 0.067,0.4192 -0.0209,0.50712 -0.0879,0.0879 -0.15046,-0.0684 -0.13897,-0.34727 z m -53.7313,-1.26847 c 0,-0.0549 0.20836,-0.2633 0.46302,-0.46302 0.41964,-0.32911 0.429,-0.31975 0.0999,0.0999 -0.34564,0.44072 -0.56291,0.58088 -0.56291,0.36312 z m 35.98333,0 c 0,-0.0549 0.20836,-0.2633 0.46302,-0.46302 0.41964,-0.32911 0.429,-0.31975 0.0999,0.0999 -0.34565,0.44072 -0.56292,0.58088 -0.56292,0.36312 z m -20.04219,-1.14082 c 0.25466,-0.0665 0.67138,-0.0665 0.92604,0 0.25467,0.0666 0.0463,0.121 -0.46302,0.121 -0.50932,0 -0.71768,-0.0545 -0.46302,-0.121 z m 7.94254,-9.7e-4 c 0.25743,-0.0671 0.61462,-0.0627 0.79375,0.01 0.17913,0.0725 -0.0315,0.12736 -0.46806,0.12197 -0.43656,-0.005 -0.58312,-0.0647 -0.32569,-0.13177 z m 14.2875,0 c 0.25743,-0.0671 0.61462,-0.0627 0.79375,0.01 0.17913,0.0725 -0.0315,0.12736 -0.46806,0.12197 -0.43656,-0.005 -0.58312,-0.0647 -0.32569,-0.13177 z m -39.36181,-0.6104 c 0.26339,-0.29104 0.53842,-0.52916 0.61118,-0.52916 0.0728,0 -0.0832,0.23812 -0.3466,0.52916 -0.26338,0.29104 -0.53842,0.52917 -0.61118,0.52917 -0.0728,0 0.0832,-0.23813 0.3466,-0.52917 z m 22.225,0 c 0.26339,-0.29104 0.53842,-0.52916 0.61118,-0.52916 0.0728,0 -0.0832,0.23812 -0.3466,0.52916 -0.26338,0.29104 -0.53842,0.52917 -0.61118,0.52917 -0.0728,0 0.0832,-0.23813 0.3466,-0.52917 z m 34.13125,0 c 0.26339,-0.29104 0.53842,-0.52916 0.61118,-0.52916 0.0728,0 -0.0832,0.23812 -0.3466,0.52916 -0.26338,0.29104 -0.53842,0.52917 -0.61118,0.52917 -0.0728,0 0.0832,-0.23813 0.3466,-0.52917 z m -41.275,-0.26458 c 0.26339,-0.29104 0.53842,-0.52917 0.61118,-0.52917 0.0728,0 -0.0832,0.23813 -0.3466,0.52917 -0.26338,0.29104 -0.53842,0.52917 -0.61118,0.52917 -0.0728,0 0.0832,-0.23813 0.3466,-0.52917 z"
         id="path4" /><path
         style="fill:#6a6767"
         d="m 76.679557,180.2651 c 0.190996,-0.0764 0.419199,-0.067 0.507118,0.0209 0.08792,0.0879 -0.06835,0.15045 -0.347265,0.13896 -0.308225,-0.0127 -0.37092,-0.0754 -0.159853,-0.15985 z m 30.481963,-4.25144 c -1.86316,-0.93609 -2.63572,-3.24365 -2.29773,-6.8631 0.25956,-2.77951 1.39597,-4.26171 3.58506,-4.67592 1.62265,-0.30704 3.83233,0.64797 4.53435,1.95971 0.2223,0.41536 0.13585,0.56756 -0.51295,0.90306 -0.7525,0.38914 -0.80848,0.37532 -1.57159,-0.38778 -1.05829,-1.0583 -2.18695,-1.06454 -3.2336,-0.0179 -0.74639,0.7464 -0.77339,0.86127 -0.77339,3.29007 0,2.9777 0.22646,3.70392 1.3336,4.27644 0.98221,0.50792 2.12182,0.22798 2.87912,-0.70724 0.43207,-0.53358 0.54595,-0.5547 1.30216,-0.24146 0.82188,0.34043 0.82511,0.3493 0.39271,1.08129 -0.98733,1.67142 -3.72621,2.34321 -5.63774,1.38283 z m 51.43375,0.0874 c -1.85902,-0.80942 -2.60253,-2.7485 -2.44279,-6.3708 0.0771,-1.74781 0.24298,-2.61485 0.62366,-3.25942 1.36152,-2.30531 4.87739,-2.7413 6.77817,-0.84052 0.9233,0.9233 0.95057,1.41096 0.10057,1.79825 -0.5713,0.2603 -0.74769,0.20047 -1.43486,-0.4867 -0.77545,-0.77545 -2.13969,-1.05613 -2.8239,-0.58099 -0.92566,0.64281 -1.17529,1.53197 -1.17529,4.18632 0,2.27581 0.0798,2.78499 0.52499,3.35098 0.94958,1.2072 2.67129,1.14813 3.7039,-0.12708 0.41306,-0.51012 0.55722,-0.54314 1.16399,-0.26668 0.84076,0.38307 0.87492,0.82509 0.1259,1.62907 -1.18059,1.26721 -3.46801,1.69744 -5.14434,0.96757 z M 117.475,170.39167 v -5.82083 h 0.92604 0.92604 v 5.02708 5.02708 h 2.91042 2.91042 v 0.79375 0.79375 h -3.83646 -3.83646 z m 11.64167,0 v -5.82083 h 0.92604 0.92604 v 5.82083 5.82083 h -0.92604 -0.92604 z m 6.87916,0 v -5.82083 h 0.90418 c 0.88574,0 0.95455,0.0846 3.37344,4.14806 l 2.46926,4.14806 0.0729,-4.14806 0.0729,-4.14806 h 0.91932 0.91932 v 5.82083 5.82083 l -0.99218,-1.9e-4 -0.99219,-2e-4 -2.35547,-3.96855 c -1.2955,-2.18271 -2.45636,-3.96856 -2.57969,-3.96856 -0.12332,0 -0.22422,1.78594 -0.22422,3.96875 v 3.96875 h -0.79375 -0.79375 z m 13.49375,0 v -5.82083 h 1.05834 1.05833 v 5.82083 5.82083 h -1.05833 -1.05834 z M 131.7974,158.14659 c -1.2642,-0.40404 -2.57123,-1.73689 -2.91399,-2.97156 -0.16844,-0.6067 -0.29359,-3.27638 -0.29443,-6.28076 l -0.001,-5.22552 h 0.77063 0.77063 l 0.0893,5.49011 c 0.0791,4.86539 0.14643,5.57443 0.59158,6.23123 0.99517,1.4683 2.77882,1.89026 4.50689,1.0662 1.64139,-0.78273 1.85819,-1.6209 1.95597,-7.56202 l 0.086,-5.22552 h 0.77389 0.77389 v 5.19483 c 0,3.30325 -0.11674,5.58447 -0.32061,6.26491 -0.7811,2.60708 -3.83119,3.96317 -6.78824,3.0181 z m 12.98127,-0.0716 c -0.62647,-0.19698 -1.548,-0.61089 -2.04784,-0.91981 -0.89579,-0.55363 -0.90221,-0.57074 -0.44847,-1.19423 0.25319,-0.34791 0.51988,-0.60076 0.59264,-0.56189 3.33568,1.78211 5.21488,1.93264 6.85877,0.54939 0.81601,-0.68662 1.06568,-1.79133 0.64979,-2.87512 -0.24571,-0.6403 -1.56585,-1.22544 -3.3261,-1.47425 -3.12103,-0.44115 -4.52264,-1.68762 -4.52264,-4.02205 0,-1.70126 0.29845,-2.32488 1.58033,-3.30219 0.88433,-0.67422 1.15409,-0.73613 3.1053,-0.71264 2.00532,0.0241 3.85016,0.51228 4.22438,1.11778 0.0766,0.12401 -0.0408,0.48268 -0.261,0.79705 -0.38423,0.54857 -0.43389,0.55423 -1.23378,0.14059 -0.45839,-0.23704 -1.55693,-0.48906 -2.4412,-0.56004 -1.45899,-0.11711 -1.68657,-0.0627 -2.45935,0.5875 -0.67929,0.57159 -0.85158,0.9166 -0.85158,1.70526 0,1.27474 0.76513,2.00855 2.51354,2.4106 4.18297,0.9619 5.01297,1.47256 5.43319,3.34281 0.84329,3.75323 -2.9969,6.34495 -7.36598,4.97124 z m -38.15159,-6.33643 v -6.48229 h -2.24896 -2.24895 v -0.79375 -0.79375 h 5.15937 5.15938 v 0.79375 0.79375 h -2.11667 -2.11667 v 6.48229 6.4823 h -0.79375 -0.79375 z m 8.46667,-0.79375 v -7.27604 h 3.40727 c 4.41519,0 5.45383,0.40355 6.33115,2.45985 0.75927,1.77961 -0.036,4.31104 -1.60508,5.10897 -0.47151,0.23979 -0.8943,0.46776 -0.93953,0.50661 -0.0452,0.0388 0.6403,1.51198 1.5234,3.27364 l 1.60562,3.20302 h -0.91016 c -0.89818,0 -0.93042,-0.0409 -2.44944,-3.10886 l -1.53927,-3.10885 -1.78594,-0.0782 -1.78594,-0.0782 v 3.18709 3.18709 h -0.92604 -0.92604 z m 6.98156,-0.91467 c 1.56484,-0.59495 1.87618,-3.16139 0.51355,-4.23324 -0.58104,-0.45704 -1.07042,-0.54063 -3.16517,-0.54063 h -2.47786 v 2.51354 2.51355 h 2.23174 c 1.22745,0 2.53144,-0.11395 2.89774,-0.25322 z m 36.41011,1.70842 v -6.48229 h -2.24896 -2.24896 v -0.79375 -0.79375 h 5.15937 5.15938 v 0.79375 0.79375 h -2.11667 -2.11666 v 6.48229 6.4823 h -0.79375 -0.79375 z"
         id="path3" /><path
         style="fill:#a3273b"
         d="m 68.742057,180.2651 c 0.190996,-0.0764 0.419199,-0.067 0.507118,0.0209 0.08792,0.0879 -0.06835,0.15045 -0.347265,0.13896 -0.308225,-0.0127 -0.37092,-0.0754 -0.159853,-0.15985 z m -6.961849,-1.12173 c -7.711989,-1.98532 -14.423353,-5.68621 -19.932663,-10.99161 -4.132564,-3.97961 -6.465478,-7.02479 -8.968415,-11.70656 l -1.161453,-2.17251 1.008349,-0.42919 c 4.814836,-2.0494 10.221329,-3.26565 15.459892,-3.47788 l 3.86821,-0.15672 0.190173,2.35232 c 0.589318,7.28948 2.844539,14.04506 6.471785,19.38642 1.455304,2.14303 4.693723,6.02098 5.936728,7.10914 1.221685,1.06948 0.974428,1.07694 -2.872606,0.0866 z M 54.71914,150.36718 c 0.190997,-0.0764 0.4192,-0.067 0.507119,0.0209 0.08792,0.0879 -0.06835,0.15045 -0.347266,0.13896 -0.308225,-0.0127 -0.370919,-0.0754 -0.159853,-0.15985 z m 86.30378,-18.07551 V 123.825 h 1.05833 c 0.97612,0 1.05899,0.0565 1.06675,0.7276 0.007,0.6273 0.0529,0.66938 0.33073,0.30525 1.06147,-1.39096 4.42657,-1.7254 5.94826,-0.59118 1.49911,1.11739 1.78238,2.01435 1.78238,5.64375 0,2.83144 -0.0761,3.43655 -0.52916,4.20567 -1.38664,2.35415 -4.58023,2.99428 -6.78949,1.36091 l -0.75114,-0.55534 v 2.91834 2.91833 h -1.05833 -1.05833 z m 7.192,1.35687 c 0.82561,-0.73768 0.85313,-0.83201 0.94568,-3.24115 0.0771,-2.00778 0.004,-2.65808 -0.38317,-3.40739 -1.0418,-2.0163 -4.15865,-2.01235 -5.17441,0.007 -0.57264,1.13816 -0.62684,4.38187 -0.0945,5.6559 0.79032,1.89151 3.14169,2.38416 4.70641,0.98608 z m -39.40208,2.57141 c -2.33065,-0.52802 -3.77326,-2.94259 -3.77326,-6.31551 0,-3.96679 1.9801,-6.35377 5.25784,-6.33821 3.1473,0.0149 4.97718,2.00014 5.1311,5.56666 l 0.0621,1.43898 -4.16718,0.0729 c -4.58873,0.0802 -4.51195,0.045 -3.80238,1.74329 0.20065,0.48022 0.70667,1.14287 1.12448,1.47256 0.63343,0.49982 1.00437,0.58193 2.23218,0.49409 0.96886,-0.0693 1.75667,-0.30768 2.3033,-0.69691 0.70787,-0.50405 0.91008,-0.54206 1.36665,-0.25693 0.86145,0.53799 0.84609,0.95354 -0.0608,1.64528 -1.53599,1.17156 -3.70414,1.6201 -5.674,1.17383 z m 4.56121,-7.96318 c -0.41972,-1.48851 -0.78928,-2.10298 -1.47943,-2.45987 -1.62868,-0.84223 -3.71769,-0.19839 -4.36234,1.34447 -0.71535,1.71208 -0.7176,1.71071 2.8168,1.71071 3.18443,0 3.19239,-0.002 3.02497,-0.59531 z m 52.23,8.0208 c -2.47252,-0.48116 -3.82454,-2.23281 -4.11374,-5.3297 -0.41839,-4.48047 1.55578,-7.38745 5.01692,-7.38745 2.26516,0 4.07196,1.06906 4.82246,2.85339 0.20103,0.47796 0.39964,1.60906 0.44135,2.51354 l 0.0758,1.64452 -4.18671,0.073 -4.18671,0.073 0.17779,0.85308 c 0.22949,1.10116 0.76084,1.92749 1.5879,2.46939 0.91715,0.60095 3.20797,0.39376 4.30816,-0.38964 0.78557,-0.55938 0.86046,-0.56687 1.49711,-0.14972 0.8539,0.5595 0.8419,0.71589 -0.11686,1.52262 -1.24983,1.05167 -3.56313,1.5966 -5.3235,1.25404 z m 4.11062,-8.15309 c -0.39016,-1.79768 -1.40049,-2.71198 -2.99681,-2.71198 -1.73019,0 -2.75492,0.85667 -3.10229,2.59352 l -0.16922,0.84606 h 3.21312 3.21311 z m -72.348003,0.33073 V 120.65 H 94.720833 92.075 v -1.06312 -1.06313 l 6.283854,0.0709 6.283856,0.0709 0.0821,0.99219 0.0821,0.99219 h -2.6618 -2.661807 v 7.80521 7.80521 H 98.425 97.366667 Z m 21.884763,7.64136 c -0.10391,-0.10391 -0.18893,-2.90752 -0.18893,-6.23025 V 123.825 h 1.05833 c 0.9709,0 1.05834,0.0585 1.05834,0.70758 v 0.70758 l 0.59531,-0.54223 c 1.73922,-1.58412 4.33335,-1.55173 6.03946,0.0754 l 0.68164,0.6501 0.50898,-0.57115 c 1.22073,-1.36985 3.92798,-1.70906 5.69845,-0.714 1.8141,1.01958 2.08657,1.99363 2.08657,7.45913 v 4.69494 l -0.99218,-0.0821 -0.99219,-0.0821 -0.13593,-4.49792 c -0.0748,-2.47386 -0.23279,-4.69708 -0.35119,-4.9405 -0.1184,-0.24343 -0.63436,-0.64146 -1.14657,-0.88452 -1.74173,-0.82651 -3.49668,0.0423 -4.06117,2.01059 -0.14205,0.49529 -0.25827,2.59794 -0.25827,4.67258 v 3.77206 h -0.90374 -0.90374 l -0.0884,-4.47925 c -0.0802,-4.06058 -0.14043,-4.54881 -0.64454,-5.22335 -1.02116,-1.36637 -2.83117,-1.46874 -4.26,-0.24093 l -0.74016,0.63604 -0.13229,4.5876 -0.1323,4.5876 -0.80325,0.0787 c -0.4418,0.0433 -0.88828,-0.006 -0.99219,-0.11024 z m 36.5678,-0.60955 -0.7734,-0.7734 v -8.09014 -8.09015 h 0.92604 0.92605 v 7.40834 c 0,7.05555 0.0252,7.43353 0.52916,7.9375 0.29104,0.29104 0.76729,0.52916 1.05834,0.52916 0.42837,0 0.52916,0.17639 0.52916,0.92605 0,0.92344 -0.003,0.92604 -1.21097,0.92604 -0.98568,0 -1.35488,-0.1439 -1.98438,-0.7734 z"
         id="path2" /><path
         style="fill:#770f33"
         d="m 68.394792,180.28639 c -3.049101,-0.31284 -3.482957,-0.59978 -6.645097,-4.39483 -5.885154,-7.06309 -8.760799,-14.11961 -9.504857,-23.32389 l -0.189636,-2.34587 2.481253,0.19246 c 13.242506,1.0272 25.703828,8.26454 33.030607,19.18366 1.455614,2.16931 2.720505,4.3693 3.383577,5.88496 0.304726,0.69656 0.273094,0.74821 -0.790422,1.29078 -1.653843,0.84373 -6.241768,2.27212 -9.286524,2.89125 -2.620808,0.53292 -9.838509,0.89238 -12.478901,0.62148 z"
         id="path1" /></g></g></svg>
