<svg xmlns="http://www.w3.org/2000/svg" xmlns:xlink="http://www.w3.org/1999/xlink" xml:space="preserve" id="Layer_1" x="0" y="0" style="enable-background:new 0 0 309 35" version="1.1" viewBox="0 0 309 35">
  <style>
    .st1{fill:#fff}
  </style>
  <g id="New">
    <path d="M22.14 0h30.24v30.31H22.14z" style="fill:#a41e35"/>
    <path d="M27.12 3.31v8.22h1.76V4.95h16.85v6.58h1.68V3.31z" class="st1"/>
    <path d="M31.64 21.72v1.68h4.66V7.01h-5.45v4.52h1.72V8.72h2.01v13zM38.33 6.99v16.39h4.66V21.7h-2.94v-13h2.01v2.83h1.72V6.99h-3.73zM31.64 25.34h11.34V27H31.64z" class="st1"/>
    <path d="m69.58 24.8 3.92 1.26v.98H61.06v-.98l3.91-1.26V5.05h-4.44l-1.71 4.97h-1.47V3.28H77.2v6.74h-1.5l-1.82-4.97h-4.3z"/>
    <defs>
      <path id="SVGID_1_" d="M22.14 0h265.64v35H22.14z"/>
    </defs>
    <clipPath id="SVGID_00000138533822655816434580000008773881863937082512_">
      <use xlink:href="#SVGID_1_" style="overflow:visible"/>
    </clipPath>
    <path d="M80.87 17.98v.32c0 4.19 2.76 6.78 6.39 6.78 1.22 0 2.45-.14 4.16-.52l.25 1.33c-2.83.94-5.35 1.5-7.06 1.5-5.03 0-8.24-3.39-8.24-8.6 0-5.38 3.53-9.29 8.49-9.29 4.58 0 7.09 2.41 7.09 7.86v.63l-11.08-.01zm6.43-1.85v-.35c0-3.6-1.29-4.89-2.97-4.89-2.13 0-3.42 1.99-3.42 5.17v.7l6.39-.63z" style="clip-path:url(#SVGID_00000138533822655816434580000008773881863937082512_)"/>
    <defs>
      <path id="SVGID_00000067208775268836151660000006252542084904099980_" d="M22.14 0h265.64v35H22.14z"/>
    </defs>
    <clipPath id="SVGID_00000088134911544101706710000002318847996487105931_">
      <use xlink:href="#SVGID_00000067208775268836151660000006252542084904099980_" style="overflow:visible"/>
    </clipPath>
    <path d="m100.78 24.8 2.48 1.26v.98h-9.95v-.98l3-1.26V12.43l-3-.94v-.91l7.48-1.29v2.03c3.32-1.4 4.37-1.82 5.8-1.82 1.64 0 2.55.49 3.67 1.99 3.71-1.57 5-1.99 6.6-1.99 2.45 0 4.82 1.68 4.82 5.14V24.8l3 1.26v.98h-9.92v-.98l2.48-1.26v-8.67c0-2.76-1.22-4.16-3.63-4.16-.91 0-1.85.14-2.83.46.39.73.46 1.4.46 2.83v9.54l2.48 1.26v.98h-9.4v-.98l2.48-1.26v-8.63c0-2.69-1.19-4.02-3.56-4.02-.94 0-1.75.11-2.45.28l-.01 12.37z" style="clip-path:url(#SVGID_00000088134911544101706710000002318847996487105931_)"/>
    <defs>
      <path id="SVGID_00000052088812143702661990000006962909408658891928_" d="M22.14 0h265.64v35H22.14z"/>
    </defs>
    <clipPath id="SVGID_00000071520359696964192930000002121183859104662450_">
      <use xlink:href="#SVGID_00000052088812143702661990000006962909408658891928_" style="overflow:visible"/>
    </clipPath>
    <path d="m131.42 32.83 3.7 1.15V35h-11.15v-1.01l3-1.15V12.46l-2.87-.91v-.94l7.3-1.29v2.16c2.38-1.26 4.47-1.99 5.83-1.99 3.63 0 6.39 3.46 6.39 8.07 0 5.59-4.16 9.82-9.75 9.82-.94 0-1.61-.11-2.48-.39l.03 5.84zm0-7.37c.56.11.84.14 1.43.14 3.95 0 6.19-2.62 6.19-7.34 0-4.3-1.54-6.22-4.89-6.22-.8 0-1.22.04-2.73.32v13.1z" style="clip-path:url(#SVGID_00000071520359696964192930000002121183859104662450_)"/>
    <defs>
      <path id="SVGID_00000016786811721130071600000003860850277854664609_" d="M22.14 0h265.64v35H22.14z"/>
    </defs>
    <clipPath id="SVGID_00000058562264296770618480000006765303559953767320_">
      <use xlink:href="#SVGID_00000016786811721130071600000003860850277854664609_" style="overflow:visible"/>
    </clipPath>
    <path d="m146.87 5.13-3.18-.88v-.97l7.62-1.4V24.8l2.97 1.26v.98h-10.45v-.98l3.04-1.26z" style="clip-path:url(#SVGID_00000058562264296770618480000006765303559953767320_)"/>
    <defs>
      <path id="SVGID_00000031194683869595529890000005119089530309660349_" d="M22.14 0h265.64v35H22.14z"/>
    </defs>
    <clipPath id="SVGID_00000008120027733563325010000016016652361211547785_">
      <use xlink:href="#SVGID_00000031194683869595529890000005119089530309660349_" style="overflow:visible"/>
    </clipPath>
    <path d="M158.89 17.98v.32c0 4.19 2.76 6.78 6.39 6.78 1.22 0 2.45-.14 4.16-.52l.25 1.33c-2.83.94-5.35 1.5-7.06 1.5-5.03 0-8.24-3.39-8.24-8.6 0-5.38 3.53-9.29 8.49-9.29 4.58 0 7.09 2.41 7.09 7.86v.63l-11.08-.01zm6.43-1.85v-.35c0-3.6-1.29-4.89-2.97-4.89-2.13 0-3.42 1.99-3.42 5.17v.7l6.39-.63z" style="clip-path:url(#SVGID_00000008120027733563325010000016016652361211547785_)"/>
    <defs>
      <path id="SVGID_00000171719132615880279320000003163056011028384910_" d="M22.14 0h265.64v35H22.14z"/>
    </defs>
    <clipPath id="SVGID_00000098206420003002970380000006839764699624537777_">
      <use xlink:href="#SVGID_00000171719132615880279320000003163056011028384910_" style="overflow:visible"/>
    </clipPath>
    <path d="m189.25 24.8 3 1.26v.98H181.6v-.98l3.04-1.26V5.51l-3.04-1.26v-.97h10.65v.97l-3 1.26v8.21h10.27V5.51l-3-1.26v-.97h10.66v.97l-3.05 1.26V24.8l3.05 1.26v.98h-10.66v-.98l3-1.26v-9.3h-10.27z" style="clip-path:url(#SVGID_00000098206420003002970380000006839764699624537777_)"/>
    <defs>
      <path id="SVGID_00000046297726328259870770000010380878059048269467_" d="M22.14 0h265.64v35H22.14z"/>
    </defs>
    <clipPath id="SVGID_00000099641245407661619190000012515519759438906282_">
      <use xlink:href="#SVGID_00000046297726328259870770000010380878059048269467_" style="overflow:visible"/>
    </clipPath>
    <path d="M212.34 17.98v.32c0 4.19 2.76 6.78 6.39 6.78 1.22 0 2.45-.14 4.16-.52l.25 1.33c-2.83.94-5.35 1.5-7.05 1.5-5.03 0-8.24-3.39-8.24-8.6 0-5.38 3.53-9.29 8.49-9.29 4.58 0 7.09 2.41 7.09 7.86v.63l-11.09-.01zm6.44-1.85v-.35c0-3.6-1.29-4.89-2.97-4.89-2.13 0-3.42 1.99-3.42 5.17v.7l6.39-.63z" style="clip-path:url(#SVGID_00000099641245407661619190000012515519759438906282_)"/>
    <defs>
      <path id="SVGID_00000018928292828434932550000000504706879896126900_" d="M22.14 0h265.64v35H22.14z"/>
    </defs>
    <clipPath id="SVGID_00000138544446011290996490000001701704258187692209_">
      <use xlink:href="#SVGID_00000018928292828434932550000000504706879896126900_" style="overflow:visible"/>
    </clipPath>
    <path d="M229.5 14.28h-3.18v-3.42c3.21-.94 5.42-1.36 7.13-1.36 3.35 0 5.45 1.26 5.45 3.74v10.31c0 .7.14.94 1.12 1.19l1.89.46v1.01c-3.35 1.01-4.09 1.19-5 1.19-1.15 0-1.75-.49-2.17-1.92-2.87 1.57-3.84 1.92-5.03 1.92-2.9 0-4.82-1.85-4.82-4.47 0-1.5.49-2.48 1.5-3.28 1.26-.98 3.64-1.43 8.25-1.82v-4.58c0-1.78-.98-2.31-2.55-2.31-.14 0-.7.04-.98.07l-1.61 3.27zm5.14 4.68c-4.19.73-5.31 1.26-5.31 3.21 0 1.64 1.15 2.73 2.97 2.73.66 0 1.47-.14 2.34-.39v-5.55z" style="clip-path:url(#SVGID_00000138544446011290996490000001701704258187692209_)"/>
    <defs>
      <path id="SVGID_00000025422362440480945710000008463623434892070558_" d="M22.14 0h265.64v35H22.14z"/>
    </defs>
    <clipPath id="SVGID_00000158027858282616919240000013213548939274385341_">
      <use xlink:href="#SVGID_00000025422362440480945710000008463623434892070558_" style="overflow:visible"/>
    </clipPath>
    <path d="m245.75 5.13-3.18-.88v-.97l7.62-1.4V24.8l2.97 1.26v.98h-10.45v-.98l3.04-1.26z" style="clip-path:url(#SVGID_00000158027858282616919240000013213548939274385341_)"/>
    <defs>
      <path id="SVGID_00000173127736012140003180000015608817410746905241_" d="M22.14 0h265.64v35H22.14z"/>
    </defs>
    <clipPath id="SVGID_00000084498595643894979170000001848014806258946732_">
      <use xlink:href="#SVGID_00000173127736012140003180000015608817410746905241_" style="overflow:visible"/>
    </clipPath>
    <path d="M252.6 11.45v-1.22c1.96-.59 2.83-1.01 3.56-1.68.7-.66 1.26-1.5 2.13-3.28h1.36v4.4h5.52v1.78h-5.52v11.08c0 2.2 1.4 2.62 3.18 2.62.39 0 1.71-.11 2.34-.21l.35 1.4c-3.95.94-4.58 1.05-5.76 1.05-2.62 0-4.51-.84-4.51-3.88V11.46l-2.65-.01z" style="clip-path:url(#SVGID_00000084498595643894979170000001848014806258946732_)"/>
    <defs>
      <path id="SVGID_00000118383698024004312450000015148258575325674378_" d="M22.14 0h265.64v35H22.14z"/>
    </defs>
    <clipPath id="SVGID_00000037662676436190577150000014106709249505142184_">
      <use xlink:href="#SVGID_00000118383698024004312450000015148258575325674378_" style="overflow:visible"/>
    </clipPath>
    <path d="m273.81 24.8 2.66 1.26v.98h-10.13v-.98l3.04-1.26V5.16l-3.18-.87v-.98l7.62-1.43v9.4c3.46-1.29 5-1.78 6.5-1.78 2.76 0 4.47 1.96 4.47 5.9v9.4l3 1.26v.98h-9.89v-.98l2.48-1.26v-8.39c0-3.21-.98-4.44-3.63-4.44-1.08 0-2.2.11-2.94.35V24.8z" style="clip-path:url(#SVGID_00000037662676436190577150000014106709249505142184_)"/>
  </g>
</svg>
