<svg xmlns="http://www.w3.org/2000/svg" xml:space="preserve" width="300" height="100" viewBox="0 0 79.375 26.458">
  <path d="M56.055 14.789c.026-.026.432-.226.902-.445.811-.377 2.735-1.296 5.72-2.73.74-.356 1.396-.647 1.457-.647.06 0 .381.127.713.282.587.274 1.482.683 3.115 1.425.442.2 1.388.634 2.102.962.713.329 1.306.598 1.317.598.012 0 .163.064.336.143.174.079.372.157.441.175.07.017.194.087.277.156l.15.125-.915.002c-.99.002-1.103-.019-1.696-.309-.255-.125-1.704-.793-2.213-1.02-.295-.132-2.92-1.326-3.208-1.46-.384-.178-.51-.157-1.264.203a686.055 686.055 0 0 0-4.442 2.118c-.425.204-.866.393-.98.42-.275.063-1.876.065-1.812.002z" style="fill:#46c4c7;stroke-width:.98765"/>
  <path d="M73.784 26.118c-.016-.042.027-.15.095-.239.295-.388 1.212-2.081 1.315-2.427.044-.15-1.572-4.11-2.487-6.092l-.192-.416.66.014.658.014.31.905c.172.497.415 1.164.54 1.482.296.746 1.074 2.513 1.133 2.572.093.094 1.227-2.6 1.75-4.155l.27-.804h.931l.016.151c.015.144.013.146-.06.05l-.075-.1-.035.1c-.069.2-.884 2.043-1.557 3.518-1.663 3.65-2.34 5.2-2.346 5.365l-.004.138h-.446c-.352 0-.453-.016-.476-.076zm-34.416-2.61c-1.28-.253-2.062-.987-2.393-2.247-.145-.55-.157-1.562-.025-2.052.15-.563.46-1.125.83-1.505.538-.555 1.118-.794 2.04-.842 1.844-.096 2.9.87 3.024 2.766l.03.47-.24.032c-.131.019-1.209.033-2.393.033h-2.154v.344c0 .381.134.973.302 1.33.135.287.456.658.707.817.497.314 1.326.417 1.98.246.401-.104.937-.4 1.196-.661.116-.118.227-.215.246-.215.077-.003.097.22.04.454-.07.292-.211.428-.706.678-.716.36-1.725.503-2.484.353zm2.225-3.93c.105-.027.111-.05.085-.288-.154-1.363-.66-1.962-1.657-1.96-.347 0-.447.023-.737.162-.393.188-.7.505-.88.908-.142.315-.336 1.09-.291 1.162.033.053 3.284.07 3.48.017zm4.459 3.93c-.686-.135-1.251-.416-1.672-.83-.673-.662-.971-1.42-.981-2.49-.006-.634.071-.996.325-1.527.275-.574.852-1.165 1.398-1.43.599-.291 1.07-.392 1.86-.4.777-.006 1.145.066 1.737.34.337.155.373.185.37.313-.004.19-.263.845-.335.845-.031 0-.124-.093-.206-.206a2.37 2.37 0 0 0-.892-.709 1.198 1.198 0 0 0-.625-.134c-1.112.017-1.984.75-2.295 1.929-.113.43-.114 1.311 0 1.77.272 1.108 1.03 1.855 2.04 2.011.667.104 1.406-.127 2.021-.63.156-.128.297-.218.314-.201.017.017.031.164.031.327 0 .244-.02.316-.12.415-.16.161-.748.452-1.114.552-.414.114-1.413.143-1.856.056zm18.87.043c-.83-.149-1.286-.351-1.726-.767a2.968 2.968 0 0 1-.808-1.254c-.453-1.366-.209-2.832.622-3.739.564-.615 1.174-.884 2.113-.93 1.872-.093 2.914.857 3.048 2.78.031.451.03.457-.089.489-.066.018-1.143.032-2.394.033h-2.274v.366c0 .401.133.954.33 1.37.158.334.593.745.964.913.427.192 1.213.223 1.73.067.47-.141.923-.393 1.193-.663.17-.17.222-.198.259-.14.106.169-.017.61-.218.78-.226.19-.784.457-1.201.575-.356.1-1.266.171-1.55.12zm1.954-3.972c.158-.032.158-.032.128-.289-.16-1.361-.663-1.959-1.655-1.96-.35 0-.446.022-.738.161-.382.184-.654.461-.856.872-.15.309-.36 1.076-.32 1.179.022.056.325.069 1.655.069.896 0 1.7-.015 1.786-.032zm-15.07 3.832c-1.14-.343-1.87-1.091-2.188-2.243-.114-.413-.131-1.503-.03-1.91.394-1.576 1.598-2.463 3.344-2.46.738 0 1.116.082 1.64.355.555.288.988.741 1.254 1.311.259.556.327.9.326 1.65 0 .598-.017.728-.138 1.105a4.31 4.31 0 0 1-.282.679c-.425.734-1.247 1.322-2.17 1.55-.493.123-1.283.106-1.756-.037zm1.457-.444c.346-.105.632-.284.887-.553.507-.536.719-1.16.758-2.228.022-.607.01-.765-.08-1.122-.207-.821-.633-1.446-1.138-1.67-.376-.168-.928-.187-1.345-.049-.365.122-.73.361-.94.615-.721.877-.89 2.854-.335 3.948.466.919 1.312 1.328 2.193 1.06zm-23.227.38c-.011-.024.012-.96.053-2.081.058-1.613.064-2.573.026-4.598a415.052 415.052 0 0 1-.043-2.57c.002-.006.749-.026 1.66-.045 1.76-.037 2.248-.005 2.858.183.841.26 1.345.883 1.42 1.756.102 1.181-.716 2.165-2.195 2.64-.235.075-.455.144-.49.154-.098.027 2.582 3.445 3.292 4.197.173.183.314.342.314.352 0 .048-1.665.015-1.698-.034-.152-.225-1.713-2.351-1.99-2.71a27.224 27.224 0 0 0-1.251-1.496c-.163-.175-.195-.188-.463-.188h-.287l.032 1.998c.017 1.098.044 2.093.058 2.21l.027.214-.543.001c-.3 0-.592.014-.651.03-.06.015-.117.01-.129-.014zm2.875-5.112c.921-.188 1.376-.481 1.668-1.076.154-.313.166-.372.166-.84 0-.448-.015-.533-.14-.788-.224-.455-.57-.708-1.195-.872-.265-.07-.476-.08-1.16-.06-.461.014-.863.04-.893.059-.038.023-.054.598-.054 1.865v1.831h.515c.34 0 .71-.04 1.093-.119zm25.712 4.931a79.863 79.863 0 0 0-2.092-5.138l-.434-.96c-.032-.072.319-.12.856-.12h.409l.191.615c.213.683.78 2.126 1.35 3.43.206.47.389.895.407.945.05.137.108.07.263-.304.077-.187.308-.713.514-1.168.685-1.517 1.11-2.63 1.236-3.232l.06-.29.458-.011.457-.011-.064.126c-.035.069-.11.227-.165.351l-.59 1.307c-.923 2.042-1.745 4.022-1.859 4.478-.03.12-.06.134-.368.163-.555.053-.544.056-.629-.181zm10.438-2.35c.004-1.395-.003-2.831-.014-3.19l-.021-.654.585-.014.586-.014-.032.63c-.018.346-.02.63-.007.63.014 0 .125-.141.245-.313.12-.172.345-.438.499-.592.418-.418.76-.55 1.232-.48l.233.035-.032.511a8.257 8.257 0 0 1-.055.625l-.023.114-.249-.126c-.285-.145-.704-.17-.973-.057-.42.175-.728.636-.828 1.237-.086.516-.12 2.096-.068 3.166.026.54.045.984.041.988a10.74 10.74 0 0 1-.566.025l-.56.017zM24.745 19.76V18.35l.25.015c.239.014.252.022.249.153-.002.076-.007.703-.013 1.394l-.009 1.256h-.477zm1.23 0v-1.41l.24.015c.235.015.238.018.263.207l.025.192.224-.192c.217-.186.236-.192.653-.206.373-.012.456.001.627.1.365.214.404.36.423 1.61l.017 1.093h-.281c-.154 0-.28-.017-.28-.037 0-.021.023-.355.052-.741.07-.964.01-1.331-.26-1.602-.188-.187-.206-.194-.468-.172-.347.029-.607.213-.677.48-.027.104-.056.612-.065 1.13l-.015.942h-.477zm-1.205-2.411c0-.284.07-.348.294-.27.102.036.137.086.149.213.02.215-.063.31-.274.31h-.17zm47.79-2.538c-.054-.064-.05-.071.018-.045.046.018.083.052.083.077 0 .065-.03.055-.102-.032zm-61.22-1.406c-.42-.106-.648-.239-.911-.53-.429-.477-.541-1.189-.293-1.843.261-.688.632-.906 1.995-1.176 1.318-.26 1.653-.376 1.815-.624.116-.177.066-.74-.096-1.093-.17-.369-.35-.562-.67-.719-.23-.113-.346-.136-.697-.138-.395-.002-.445.01-.85.21-.333.166-.488.28-.693.513-.304.345-.332.33-.338-.188-.004-.377.065-.459.618-.732a3.69 3.69 0 0 1 2.117-.342c.895.124 1.469.637 1.69 1.511.05.204.062.494.044 1.106a76.714 76.714 0 0 0-.025 1.91c0 1.454.058 1.606.585 1.536.203-.027.244-.019.244.048 0 .26-.388.438-.96.443-.286.003-.365-.017-.531-.131-.202-.14-.369-.37-.369-.51 0-.044-.01-.08-.021-.08-.012 0-.21.135-.44.3-.541.389-.995.563-1.524.585a2.694 2.694 0 0 1-.69-.056zm1.773-.783c.236-.109.43-.247.6-.427l.252-.266v-.523c0-.288.015-.73.033-.983.03-.43.026-.46-.064-.46-.22 0-1.9.453-2.2.594-.428.2-.55.413-.555.964-.004.595.203.978.645 1.19.353.168.797.138 1.29-.09zm11.054.828c-.693-.11-1.457-.379-1.46-.513-.002-.111.27-1.013.307-1.014.016 0 .106.104.201.23.356.477 1.033.814 1.52.757.279-.033.757-.237.933-.4.28-.256.392-.827.236-1.197-.156-.37-.427-.54-1.36-.846-1.212-.397-1.58-.693-1.766-1.418-.209-.817.218-1.737.988-2.127.672-.34 1.63-.355 2.524-.039.266.094.28.137.143.408a3.438 3.438 0 0 0-.183.486l-.087.299-.081-.122a4.675 4.675 0 0 0-.385-.431c-.251-.255-.35-.32-.567-.372-.991-.238-1.797.821-1.27 1.672.16.26.457.426 1.155.646 1.237.39 1.573.59 1.796 1.07.202.432.128 1.204-.167 1.745-.34.624-1.17 1.095-2.05 1.163a2.562 2.562 0 0 1-.427.003zm7.668-.099c-.442-.162-.77-.565-.914-1.128-.07-.273-.078-.483-.052-1.305.017-.54.046-1.53.064-2.203l.033-1.223-.46.036-.46.036V6.95l.44-.015.44-.014v-.377c-.001-.208-.012-.534-.026-.726l-.025-.35.487-.184c.268-.102.546-.2.618-.218l.131-.033-.039.718c-.022.394-.04.82-.04.944v.226l.715.014.716.014v.485l-.339.032a9.514 9.514 0 0 1-.728.032h-.39V9.7c0 2.4.021 2.62.285 2.966.188.247.42.328.846.298.193-.014.391-.042.44-.062.106-.044.122.11.025.242-.17.23-1.331.366-1.767.206zm7.26.001a4.312 4.312 0 0 1-.742-.275c-.736-.356-1.214-.938-1.53-1.86-.15-.44-.163-.524-.165-1.154-.003-.574.014-.736.113-1.055.265-.853.904-1.62 1.633-1.96.557-.259.89-.321 1.718-.323.587-.001.762.017 1.055.11 1.002.314 1.72 1.09 2.024 2.187.065.234.086.497.083 1.041-.004.65-.018.771-.135 1.112-.258.748-.657 1.259-1.337 1.708-.547.362-1.042.508-1.79.527-.403.01-.711-.008-.928-.058zm1.318-.47c1.107-.381 1.643-1.343 1.643-2.949 0-1.05-.22-1.74-.72-2.25-.395-.4-.658-.508-1.24-.506-.649.001-.968.127-1.383.545-1.258 1.267-1.048 4.298.347 5.015.5.257.9.3 1.353.144zm11.222.468c-.483-.117-.884-.317-.884-.441 0-.118.242-.888.3-.95.02-.023.129.08.243.228.36.467 1.091.803 1.56.716.469-.086.904-.376 1.065-.71.088-.181.105-.291.09-.572-.018-.303-.04-.369-.17-.506-.244-.26-.469-.375-1.258-.647-.884-.305-1.088-.416-1.394-.756-.312-.347-.404-.643-.375-1.2.028-.55.155-.83.564-1.242.35-.352.667-.496 1.295-.587.297-.043.49-.042.811.004.417.06.968.221 1.054.308.027.026-.02.206-.111.432-.086.213-.157.429-.157.479 0 .159-.093.156-.176-.005-.427-.825-1.402-1.037-2.002-.436-.402.403-.448.971-.119 1.457.129.19.558.397 1.219.59 1.438.418 1.829.817 1.768 1.803-.038.628-.179.956-.587 1.366-.358.36-.784.597-1.248.694-.362.075-1.127.063-1.488-.025zm-44.858-.093c-.001-.001-.007-1.444-.013-3.206l-.01-3.204h.54c.396 0 .542.017.546.063.003.035 0 .334-.004.666-.006.364.008.583.036.553.025-.028.15-.2.28-.385.53-.758.892-.997 1.508-.997h.386l-.032.59c-.018.325-.04.6-.05.61-.009.011-.133-.028-.276-.087-.847-.352-1.627.146-1.795 1.148-.086.508-.123 2.291-.068 3.292.027.497.045.909.04.914-.007.009-1.082.051-1.088.043zm9.674-.065c.066-.174.137-2.935.118-4.624l-.02-1.72h.537c.433 0 .543.014.566.075.03.076-.038.701-.099.918-.044.155.092.103.185-.072.096-.18.62-.653.853-.772.316-.162.743-.25 1.202-.25 1.13 0 1.877.521 2.143 1.493.103.373.104.43.082 3.339l-.012 1.691-.61.006-.61.006.034-.44c.199-2.657.164-3.915-.13-4.596-.23-.536-.783-.829-1.478-.784-.643.04-1.1.35-1.356.916-.214.473-.24.786-.244 2.904l-.003 1.998h-.596c-.547 0-.593-.008-.562-.088zm11.309-3.128v-3.22l.628.014.628.014-.007.176c-.003.097-.032.719-.063 1.382-.032.664-.056 2.02-.054 3.015l.003 1.81-.567.014-.568.014zm6.683 3.128c.071-.174.135-2.933.104-4.51a90.932 90.932 0 0 0-.042-1.71c-.01-.094.023-.1.63-.114l.64-.014-.037.517c-.02.284-.038 1.732-.038 3.218v2.7h-.646c-.596 0-.644-.006-.61-.087zm9.838-.528c.021-.338.044-1.786.05-3.218l.012-2.602.528.014.528.014-.013.516c-.007.283.007.515.032.515.024 0 .084-.063.132-.139.14-.22.605-.652.825-.764.314-.16.742-.253 1.167-.253 1.423 0 2.225.793 2.267 2.241.007.218.006 1.273 0 2.344l-.013 1.948h-1.218l.03-.34c.017-.186.045-1.115.063-2.064.03-1.538.024-1.77-.056-2.148-.183-.875-.66-1.28-1.502-1.276-.674.004-1.178.29-1.43.81-.258.53-.284.815-.284 3.02v1.998h-1.156Zm-40.95-.1c.065-1.273.132-5.999.1-6.936-.03-.83-.044-.94-.115-.921-.044.012-.719.038-1.5.056l-1.42.035v-.752l3.531-.024C5.87 4.008 7.46 4 7.464 4.002c.003.003-.006.19-.02.416l-.024.412-.233-.026c-.418-.046-2.543-.1-2.585-.065-.053.044-.063 6.659-.011 7.698l.04.791H3.296Zm24.664-7.427c-.215-.131-.383-.493-.338-.73.044-.238.313-.508.55-.552.294-.055.561.047.711.274.175.264.202.49.083.708-.206.379-.657.513-1.006.3zm6.85.054c-.363-.151-.534-.669-.33-.995.211-.336.572-.446.905-.276.495.252.526.893.059 1.205a.725.725 0 0 1-.634.066z" style="fill:#8f8cab;stroke-width:.98765"/>
  <path d="M9.193 4.087c.026-.027.432-.227.902-.445a697.76 697.76 0 0 0 5.72-2.73c.74-.356 1.396-.647 1.457-.647.06 0 .381.126.713.281.588.275 1.482.684 3.116 1.425.442.201 1.387.634 2.1.963.714.328 1.307.597 1.319.597.011 0 .162.064.336.143.173.079.372.158.44.175.07.017.194.088.277.157l.15.124-.915.002c-.99.002-1.103-.018-1.696-.308-.255-.125-1.704-.793-2.212-1.02-.296-.133-2.92-1.327-3.21-1.46-.383-.178-.509-.158-1.263.203l-1.055.5c-.585.276-2.398 1.141-3.387 1.617-.425.205-.866.394-.98.42-.275.063-1.875.066-1.812.003z" style="fill:#fd9b10;fill-opacity:1;stroke-width:.98765"/>
</svg>
