<?xml version="1.0" encoding="UTF-8" standalone="no"?>
<!-- Created with Inkscape (http://www.inkscape.org/) -->

<svg
   width="300"
   height="100"
   viewBox="0 0 79.374998 26.458333"
   version="1.1"
   id="svg1"
   xml:space="preserve"
   inkscape:version="1.4 (86a8ad7, 2024-10-11)"
   sodipodi:docname="transitionsinrecovery.svg"
   xmlns:inkscape="http://www.inkscape.org/namespaces/inkscape"
   xmlns:sodipodi="http://sodipodi.sourceforge.net/DTD/sodipodi-0.dtd"
   xmlns="http://www.w3.org/2000/svg"
   xmlns:svg="http://www.w3.org/2000/svg"><sodipodi:namedview
     id="namedview1"
     pagecolor="#ffffff"
     bordercolor="#111111"
     borderopacity="1"
     inkscape:showpageshadow="0"
     inkscape:pageopacity="0"
     inkscape:pagecheckerboard="1"
     inkscape:deskcolor="#d1d1d1"
     inkscape:document-units="px"
     inkscape:zoom="1.5714646"
     inkscape:cx="115.81552"
     inkscape:cy="-25.453961"
     inkscape:window-width="1920"
     inkscape:window-height="1115"
     inkscape:window-x="-9"
     inkscape:window-y="-9"
     inkscape:window-maximized="1"
     inkscape:current-layer="layer1" /><defs
     id="defs1" /><g
     inkscape:label="Layer 1"
     inkscape:groupmode="layer"
     id="layer1"><path
       style="fill:#46c4c7;stroke-width:0.98765"
       d="m 56.054742,14.788984 c 0.02626,-0.02615 0.432178,-0.226403 0.902044,-0.444992 0.811271,-0.377416 2.735639,-1.295814 5.719337,-2.729535 0.741022,-0.356074 1.396853,-0.647408 1.457402,-0.647408 0.06055,0 0.381428,0.126777 0.713065,0.281726 0.587856,0.274661 1.482147,0.683718 3.115634,1.425121 0.442228,0.200717 1.38783,0.63374 2.101339,0.962273 0.713508,0.328534 1.306557,0.597334 1.317886,0.597334 0.01133,0 0.162502,0.06445 0.335939,0.143221 0.173438,0.07878 0.371875,0.157437 0.440973,0.174814 0.0691,0.01737 0.193475,0.08779 0.276393,0.156491 l 0.150759,0.124897 -0.915363,0.0018 c -0.98996,0.002 -1.103512,-0.01871 -1.696313,-0.308671 -0.254762,-0.124615 -1.703849,-0.792949 -2.212626,-1.020487 -0.295052,-0.131955 -2.919736,-1.325943 -3.208592,-1.459613 -0.383685,-0.177553 -0.509615,-0.15732 -1.263937,0.203073 -0.33167,0.158462 -0.806563,0.383953 -1.055316,0.501091 -0.584452,0.275218 -2.397397,1.140596 -3.386445,1.61646 -0.425305,0.204628 -0.866276,0.393527 -0.979936,0.419774 -0.275108,0.06353 -1.875711,0.06585 -1.812243,0.0027 z"
       id="path3" /><path
       style="fill:#8f8cab;stroke-width:0.98765"
       d="m 73.784438,26.117857 c -0.01602,-0.04174 0.02649,-0.149157 0.09446,-0.238702 0.294713,-0.388267 1.211998,-2.081482 1.314681,-2.426765 0.04464,-0.150131 -1.571665,-4.110576 -2.486256,-6.09207 l -0.192025,-0.416029 0.65884,0.014 0.658839,0.01401 0.310861,0.904557 c 0.170974,0.497506 0.413812,1.164616 0.539641,1.482468 0.295222,0.745748 1.07317,2.512816 1.132286,2.571933 0.09336,0.09336 1.227734,-2.600584 1.749547,-4.154907 L 77.835245,16.9723 h 0.465703 0.465703 l 0.01617,0.15076 c 0.01547,0.144249 0.01291,0.146419 -0.05923,0.05025 l -0.0754,-0.100506 -0.03481,0.100506 c -0.06918,0.19978 -0.884795,2.042346 -1.557118,3.517718 -1.663168,3.649727 -2.340719,5.199104 -2.345937,5.364523 l -0.0043,0.138197 h -0.446208 c -0.351611,0 -0.452382,-0.01609 -0.475331,-0.07589 z m -34.416252,-2.60901 c -1.28033,-0.253679 -2.062655,-0.988326 -2.393522,-2.247654 -0.144529,-0.550097 -0.156927,-1.562071 -0.02515,-2.05263 0.151097,-0.562475 0.461385,-1.124837 0.830004,-1.504286 0.538974,-0.554811 1.11897,-0.794096 2.040946,-0.842015 1.843175,-0.0958 2.899079,0.869975 3.023592,2.765501 l 0.03085,0.469758 -0.24022,0.03293 c -0.132121,0.01811 -1.209462,0.03293 -2.394091,0.03293 h -2.153872 v 0.343734 c 0,0.38137 0.134395,0.972979 0.302056,1.329663 0.135105,0.287422 0.456412,0.658465 0.707415,0.816916 0.497164,0.313846 1.325725,0.416944 1.980404,0.246421 0.400802,-0.104396 0.936162,-0.400746 1.19499,-0.66149 0.116757,-0.117622 0.227722,-0.214312 0.246589,-0.214868 0.07659,-0.0023 0.09644,0.220465 0.04045,0.453874 -0.07022,0.292732 -0.211851,0.428515 -0.707084,0.67791 -0.715055,0.360096 -1.724386,0.503696 -2.483366,0.353315 z m 2.224623,-3.930173 c 0.104899,-0.02811 0.111674,-0.0511 0.08493,-0.288269 -0.153761,-1.363764 -0.659798,-1.962754 -1.656265,-1.960503 -0.347805,7.86e-4 -0.447305,0.02261 -0.737765,0.161773 -0.392605,0.188111 -0.699709,0.504968 -0.880022,0.907972 -0.141267,0.315735 -0.335298,1.09036 -0.291051,1.161952 0.0331,0.05354 3.28452,0.06949 3.48017,0.01708 z m 4.459045,3.930082 c -0.685585,-0.135661 -1.251261,-0.416769 -1.671922,-0.830846 -0.672753,-0.662225 -0.97119,-1.419538 -0.981013,-2.489411 -0.0058,-0.634763 0.07112,-0.996134 0.32519,-1.527247 0.274536,-0.573886 0.852221,-1.164917 1.398062,-1.430362 0.598334,-0.290971 1.070092,-0.392253 1.859367,-0.399191 0.77727,-0.0068 1.144992,0.06481 1.737203,0.338424 0.337511,0.15594 0.373124,0.186141 0.370269,0.314 -0.0042,0.190629 -0.263474,0.845011 -0.334729,0.845011 -0.03127,0 -0.123989,-0.09267 -0.206036,-0.205933 -0.201996,-0.278848 -0.532825,-0.541874 -0.891801,-0.709027 -0.235846,-0.109819 -0.36641,-0.137738 -0.625928,-0.133844 -1.111187,0.01667 -1.983469,0.749762 -2.294345,1.928233 -0.113469,0.430142 -0.113821,1.311442 -7.05e-4,1.770611 0.2729,1.107786 1.030992,1.855066 2.040408,2.011309 0.666918,0.103229 1.405891,-0.127562 2.021203,-0.63125 0.155549,-0.12733 0.296887,-0.217443 0.314082,-0.200248 0.0172,0.01719 0.03127,0.164207 0.03127,0.326692 0,0.244254 -0.02074,0.316172 -0.119759,0.415187 -0.161135,0.161134 -0.748184,0.452018 -1.114938,0.552452 -0.413633,0.113274 -1.412769,0.14312 -1.855872,0.05544 z m 18.870056,0.04252 c -0.830218,-0.148823 -1.285796,-0.351493 -1.72572,-0.767712 -0.387282,-0.366413 -0.648394,-0.771439 -0.808229,-1.253692 -0.452741,-1.366016 -0.208975,-2.831991 0.621645,-3.738466 0.564191,-0.615714 1.174017,-0.884297 2.113316,-0.930756 1.872541,-0.09261 2.913869,0.857201 3.047755,2.77992 0.03143,0.451391 0.03032,0.457534 -0.08832,0.489282 -0.06607,0.01768 -1.143422,0.03246 -2.394097,0.03284 l -2.273955,6.85e-4 v 0.365346 c 0,0.401753 0.1329,0.954242 0.329517,1.369855 0.157996,0.333977 0.592867,0.745741 0.964343,0.913102 0.426655,0.192221 1.212471,0.222909 1.729368,0.06753 0.471258,-0.141654 0.92372,-0.392968 1.193877,-0.663125 0.170435,-0.170436 0.22159,-0.198182 0.258328,-0.140118 0.106745,0.168709 -0.01668,0.610684 -0.217791,0.77991 -0.225868,0.190056 -0.783607,0.457072 -1.201196,0.57507 -0.355541,0.100465 -1.265349,0.171145 -1.548851,0.120325 z m 1.954465,-3.972269 c 0.157546,-0.03151 0.157844,-0.03219 0.127797,-0.288956 -0.159333,-1.361548 -0.663647,-1.958552 -1.655111,-1.959311 -0.349424,-2.67e-4 -0.445953,0.02076 -0.737765,0.160747 -0.382045,0.183265 -0.654697,0.461 -0.855843,0.871792 -0.15116,0.30871 -0.359744,1.076086 -0.320379,1.17867 0.02151,0.05607 0.324704,0.06864 1.654862,0.06864 0.895688,0 1.699585,-0.01421 1.786439,-0.03158 z m -15.070536,3.832348 c -1.140385,-0.343703 -1.870071,-1.09179 -2.187752,-2.242918 -0.114038,-0.413225 -0.131067,-1.503742 -0.02982,-1.909619 0.393329,-1.576751 1.598226,-2.463795 3.343741,-2.461662 0.738287,9.03e-4 1.116311,0.08281 1.640176,0.355347 0.554738,0.288606 0.987596,0.741598 1.253371,1.311667 0.259189,0.555944 0.327261,0.899842 0.326397,1.648951 -6.89e-4,0.598802 -0.01682,0.728545 -0.137476,1.105568 -0.07518,0.234935 -0.202285,0.540565 -0.282452,0.679182 -0.424679,0.734319 -1.247261,1.322014 -2.170537,1.550745 -0.492943,0.122121 -1.282424,0.105365 -1.75565,-0.03726 z m 1.457341,-0.444179 c 0.345395,-0.105258 0.632253,-0.284316 0.886989,-0.553661 0.506467,-0.535514 0.718357,-1.158657 0.757547,-2.22785 0.02225,-0.607041 0.01114,-0.764713 -0.079,-1.121179 -0.207796,-0.821717 -0.633236,-1.446146 -1.138382,-1.670827 -0.37591,-0.167199 -0.928277,-0.187075 -1.344999,-0.0484 -0.365138,0.121509 -0.73115,0.36082 -0.939767,0.614447 -0.721871,0.877619 -0.889948,2.85436 -0.335698,3.948119 0.465792,0.919196 1.312028,1.32792 2.193312,1.05935 z m -23.226868,0.379087 c -0.01169,-0.02314 0.01196,-0.959326 0.05256,-2.08042 0.0584,-1.612406 0.06391,-2.573264 0.02637,-4.598162 -0.02609,-1.407896 -0.04573,-2.564503 -0.04361,-2.570238 0.0021,-0.0057 0.749167,-0.02587 1.660133,-0.04473 1.760205,-0.03645 2.248552,-0.0051 2.858693,0.183311 0.840805,0.259699 1.344735,0.882939 1.420113,1.756344 0.101922,1.180941 -0.716645,2.164982 -2.195354,2.639146 -0.234933,0.07534 -0.455663,0.144918 -0.49051,0.154631 -0.09782,0.02727 2.582473,3.444357 3.292123,4.197114 0.172745,0.183239 0.314082,0.341718 0.314082,0.352177 0,0.04803 -1.665241,0.01418 -1.698092,-0.03452 -0.151669,-0.224838 -1.713245,-2.350929 -1.990734,-2.710389 -0.362428,-0.469489 -0.947128,-1.168601 -1.250363,-1.49503 -0.162923,-0.175384 -0.194983,-0.18845 -0.462422,-0.18845 h -0.287363 l 0.03196,1.997563 c 0.01758,1.098659 0.04391,2.093671 0.05852,2.211138 l 0.02656,0.213576 -0.5433,6.85e-4 c -0.298815,3.78e-4 -0.591629,0.01366 -0.650698,0.0295 -0.05907,0.01585 -0.116966,0.0099 -0.128658,-0.01325 z m 2.874346,-5.110945 c 0.921315,-0.187938 1.376558,-0.481526 1.668807,-1.076217 0.153635,-0.312628 0.165432,-0.372509 0.165432,-0.839629 0,-0.448749 -0.01512,-0.533787 -0.14021,-0.788512 -0.223268,-0.454653 -0.57061,-0.708299 -1.194512,-0.87229 -0.264782,-0.0696 -0.475877,-0.08048 -1.160885,-0.05984 -0.460488,0.01388 -0.861886,0.04045 -0.891993,0.05905 -0.03787,0.0234 -0.05474,0.598395 -0.05474,1.865105 v 1.831273 l 0.515094,-5.28e-4 c 0.340784,-3.49e-4 0.710662,-0.04042 1.093006,-0.118415 z m 25.712722,4.930681 c -0.51126,-1.425711 -1.405146,-3.620671 -2.092579,-5.138383 -0.225341,-0.497507 -0.420729,-0.929589 -0.434195,-0.960184 -0.03128,-0.07105 0.319014,-0.120258 0.856175,-0.120258 h 0.409117 l 0.191382,0.6156 c 0.21247,0.683435 0.78022,2.125888 1.349961,3.429777 0.205311,0.469867 0.38827,0.895311 0.406576,0.945431 0.05019,0.137412 0.108534,0.06995 0.262944,-0.303987 0.0772,-0.186959 0.308629,-0.712701 0.514288,-1.168316 0.684796,-1.517091 1.110398,-2.629979 1.235849,-3.231571 l 0.06068,-0.290978 0.457397,-0.01054 0.457398,-0.01054 -0.06408,0.125633 c -0.03524,0.0691 -0.1096,0.227395 -0.165238,0.351771 -0.05563,0.124377 -0.321097,0.712338 -0.589907,1.306582 -0.923501,2.041524 -1.74553,4.021845 -1.858884,4.478172 -0.02999,0.120729 -0.05956,0.133822 -0.368107,0.162966 -0.555488,0.05246 -0.543785,0.05584 -0.628778,-0.181172 z m 10.437947,-2.349335 c 0.0036,-1.39578 -0.0031,-2.831764 -0.01461,-3.191074 l -0.02108,-0.653291 0.585458,-0.01415 0.585457,-0.01415 -0.03192,0.629752 c -0.01755,0.346361 -0.0204,0.62975 -0.0063,0.62975 0.01408,0 0.124171,-0.140522 0.244646,-0.31227 0.120474,-0.171749 0.344987,-0.438212 0.498916,-0.592141 0.417772,-0.417772 0.759593,-0.550921 1.232332,-0.480029 l 0.232693,0.03489 -0.03157,0.51145 c -0.01736,0.281297 -0.04213,0.562476 -0.05506,0.62484 l -0.0235,0.113391 -0.248558,-0.125953 c -0.285668,-0.14476 -0.70436,-0.16922 -0.973274,-0.05686 -0.420029,0.175499 -0.728312,0.636053 -0.828345,1.237488 -0.08586,0.516181 -0.119592,2.095723 -0.06762,3.165948 0.02617,0.538964 0.04461,0.983527 0.04098,0.987917 -0.0037,0.0043 -0.258268,0.01569 -0.565856,0.02513 l -0.559252,0.01715 z M 24.744523,19.759233 v -1.409251 l 0.251265,0.01471 c 0.237933,0.01393 0.251099,0.02203 0.248125,0.152898 -0.0017,0.07601 -0.0074,0.703545 -0.01256,1.394525 l -0.0094,1.256329 -0.238703,2.4e-5 -0.238702,2.5e-5 z m 1.231201,-6.39e-4 v -1.409841 l 0.238702,0.01532 c 0.235355,0.0151 0.239055,0.018 0.263829,0.207283 l 0.02513,0.191965 0.223585,-0.191965 c 0.216911,-0.186235 0.236415,-0.192393 0.653291,-0.206275 0.372308,-0.01239 0.455963,9.88e-4 0.626276,0.100507 0.365433,0.213445 0.40406,0.360357 0.423279,1.609845 l 0.01681,1.093006 h -0.28064 c -0.154352,0 -0.280442,-0.01696 -0.280199,-0.03769 2.43e-4,-0.02073 0.0236,-0.354285 0.05191,-0.741234 0.07049,-0.963497 0.01082,-1.330594 -0.260307,-1.601736 -0.186956,-0.186961 -0.205405,-0.193756 -0.467124,-0.172052 -0.347554,0.02882 -0.607187,0.213232 -0.677384,0.481129 -0.02696,0.102899 -0.05594,0.61104 -0.06439,1.129202 l -0.01537,0.942112 -0.238704,1.34e-4 -0.238702,1.35e-4 z M 24.769649,17.34762 c 0,-0.283556 0.07009,-0.347501 0.294836,-0.268977 0.101043,0.03531 0.136095,0.08539 0.148307,0.211927 0.02075,0.215052 -0.06292,0.309893 -0.273411,0.309893 h -0.169732 z m 47.789783,-2.537356 c -0.05311,-0.06399 -0.05,-0.07134 0.01897,-0.04488 0.04537,0.01741 0.08249,0.05185 0.08249,0.07653 0,0.06462 -0.02909,0.05555 -0.10146,-0.03165 z M 11.340005,13.404302 c -0.420834,-0.106205 -0.648436,-0.238842 -0.91103,-0.53091 -0.428498,-0.476592 -0.5414692,-1.187997 -0.292646,-1.842846 0.261117,-0.687205 0.631184,-0.905251 1.994655,-1.1752717 1.317864,-0.2609885 1.652704,-0.3761949 1.815495,-0.6246461 0.115492,-0.176262 0.0659,-0.7399622 -0.0961,-1.0923497 C 13.680635,7.7690455 13.500675,7.5758098 13.180809,7.4193138 12.949105,7.3059513 12.83449,7.2832205 12.4834,7.2810023 c -0.395457,-0.00247 -0.445368,0.00988 -0.849661,0.2101818 -0.333916,0.1654619 -0.488382,0.2797034 -0.693944,0.5132342 -0.303652,0.3449654 -0.332136,0.3290623 -0.337996,-0.1887191 -0.0042,-0.37627 0.06517,-0.4584701 0.618156,-0.731902 0.64587,-0.3193586 1.399668,-0.4410538 2.117108,-0.341792 0.894701,0.1237861 1.468786,0.637448 1.689162,1.511375 0.05145,0.2040099 0.06312,0.4935405 0.04457,1.1055694 -0.01382,0.4560463 -0.02497,1.3153744 -0.02478,1.9096184 4.68e-4,1.454864 0.05811,1.606372 0.58461,1.536529 0.203874,-0.02704 0.244219,-0.01911 0.244219,0.04802 0,0.259046 -0.387536,0.438094 -0.959563,0.443331 -0.286364,0.0027 -0.36577,-0.01708 -0.531351,-0.131827 -0.201846,-0.139878 -0.368453,-0.370165 -0.368453,-0.50928 0,-0.04411 -0.0099,-0.08019 -0.0219,-0.08019 -0.01204,0 -0.209912,0.134952 -0.439715,0.299892 -0.541351,0.388556 -0.994799,0.562701 -1.523391,0.585055 -0.241876,0.01023 -0.516931,-0.012 -0.690473,-0.05579 z m 1.773169,-0.783434 c 0.235605,-0.108597 0.430218,-0.246969 0.600334,-0.426841 l 0.251716,-0.266152 V 11.40493 c 0,-0.287621 0.0147,-0.729946 0.03265,-0.982945 0.03059,-0.4308625 0.02657,-0.4599982 -0.06346,-0.4599982 -0.2204,0 -1.901169,0.4532662 -2.200934,0.5935422 -0.427074,0.199853 -0.550007,0.4137 -0.554342,0.964305 -0.0046,0.594835 0.202836,0.977798 0.644442,1.189272 0.352952,0.169021 0.797443,0.138606 1.28959,-0.08824 z m 11.053437,0.828503 c -0.692994,-0.110533 -1.456152,-0.379087 -1.459338,-0.513539 -0.0027,-0.111217 0.270226,-1.012711 0.306739,-1.013421 0.0156,-3.05e-4 0.106049,0.103332 0.201013,0.230301 0.356437,0.476565 1.033416,0.813159 1.520812,0.756148 0.277817,-0.03249 0.755971,-0.237357 0.932287,-0.399431 0.279193,-0.256641 0.39186,-0.82774 0.236149,-1.197034 -0.156571,-0.371334 -0.427147,-0.539569 -1.360764,-0.846076 -1.211074,-0.397595 -1.579565,-0.693633 -1.765164,-1.4180969 -0.209317,-0.8170453 0.217967,-1.7372368 0.987821,-2.1273506 0.672041,-0.3405486 1.630065,-0.3552656 2.523641,-0.038765 0.265974,0.094212 0.28089,0.1367608 0.142812,0.4074164 -0.05274,0.1033773 -0.134964,0.322369 -0.182721,0.4866477 l -0.08683,0.2986881 -0.08111,-0.1219382 C 26.037346,7.8858588 25.864089,7.6919298 25.696935,7.521975 25.445769,7.2666004 25.34741,7.2020258 25.13023,7.1499253 24.13877,6.9120785 23.333456,7.9710881 23.859066,8.8215416 c 0.16129,0.2609727 0.457515,0.4266717 1.155642,0.6464327 1.237236,0.3894639 1.573132,0.5893567 1.79654,1.0691297 0.201379,0.432466 0.127474,1.204748 -0.167083,1.745947 -0.339424,0.623634 -1.170359,1.094958 -2.050402,1.163035 -0.165835,0.01283 -0.358054,0.01431 -0.427152,0.0033 z m 7.668164,-0.09898 c -0.442147,-0.161999 -0.769102,-0.565858 -0.91376,-1.128685 -0.07008,-0.272669 -0.0785,-0.482694 -0.05232,-1.30491 0.01716,-0.538965 0.04598,-1.5302811 0.06404,-2.202925 l 0.03283,-1.2229902 -0.459673,0.03596 -0.459673,0.03596 V 7.2567574 6.9507134 l 0.439715,-0.014518 0.439715,-0.014518 -4.57e-4,-0.3768981 C 30.924941,6.3374854 30.913632,6.0107678 30.900062,5.818741 l -0.02467,-0.3491392 0.487004,-0.18489 c 0.267861,-0.1016904 0.54591,-0.1996732 0.617897,-0.2177403 l 0.130883,-0.032849 -0.03919,0.7176383 c -0.02155,0.3947014 -0.03955,0.8194018 -0.03998,0.9437775 l -7.9e-4,0.2261393 0.716108,0.013946 0.716106,0.013946 V 7.1921869 7.434806 l -0.339208,0.032039 c -0.186565,0.01762 -0.514467,0.032197 -0.728671,0.032395 l -0.389462,3.575e-4 v 2.2005799 c 0,2.4005466 0.02111,2.6201386 0.28514,2.9663006 0.187679,0.24606 0.419429,0.327587 0.845305,0.297371 0.193613,-0.01374 0.391597,-0.04139 0.439966,-0.06145 0.106914,-0.04434 0.122874,0.108801 0.02513,0.241117 -0.170486,0.230782 -1.330828,0.36665 -1.766864,0.206888 z m 7.259666,9.88e-4 c -0.178199,-0.04053 -0.511921,-0.164665 -0.741604,-0.275838 -0.735366,-0.355938 -1.213668,-0.937565 -1.529555,-1.859979 -0.150739,-0.440166 -0.162785,-0.524008 -0.165662,-1.153098 -0.0027,-0.5740148 0.01487,-0.736418 0.113654,-1.0553153 0.26426,-0.8530471 0.903715,-1.6206496 1.632413,-1.9595528 0.557756,-0.2594013 0.890564,-0.3220805 1.718296,-0.3236163 0.586886,-0.00109 0.761874,0.017007 1.055317,0.1091303 1.001766,0.3144954 1.720603,1.091611 2.024152,2.188257 0.06463,0.2335061 0.08548,0.4964946 0.08254,1.0410971 -0.0036,0.648875 -0.01834,0.770567 -0.135443,1.111252 -0.257368,0.748757 -0.656679,1.259279 -1.336526,1.708761 -0.546611,0.361391 -1.041788,0.507065 -1.790546,0.526753 -0.402761,0.01059 -0.710641,-0.0086 -0.927036,-0.05785 z m 1.318763,-0.471196 c 1.106436,-0.38067 1.642314,-1.342042 1.643174,-2.9478761 5.62e-4,-1.0500426 -0.220906,-1.7410983 -0.72096,-2.2496136 -0.394198,-0.4008673 -0.65702,-0.508455 -1.238561,-0.5070091 -0.649463,0.00158 -0.969152,0.127636 -1.384182,0.5456401 -1.257277,1.2662896 -1.047381,4.2976277 0.347236,5.0148047 0.499745,0.256992 0.900959,0.299708 1.353293,0.144083 z m 11.221855,0.469146 c -0.483153,-0.116906 -0.884535,-0.317336 -0.884535,-0.441691 0,-0.117727 0.242935,-0.887474 0.299931,-0.950342 0.0199,-0.02196 0.129322,0.08081 0.243154,0.228354 0.360194,0.466878 1.091698,0.802957 1.560119,0.716774 0.46913,-0.08631 0.903939,-0.376156 1.06576,-0.710434 0.08776,-0.181299 0.104815,-0.290998 0.08893,-0.572192 -0.01711,-0.302668 -0.03905,-0.368447 -0.168869,-0.50603 -0.244271,-0.258856 -0.469245,-0.374526 -1.25846,-0.647011 -0.883738,-0.30512 -1.088159,-0.416013 -1.394053,-0.7562406 -0.311626,-0.3466029 -0.404368,-0.6427626 -0.37542,-1.1988559 0.02871,-0.5514869 0.155802,-0.8312003 0.564612,-1.2426137 0.349477,-0.3517032 0.667016,-0.4957213 1.29471,-0.5872083 0.296797,-0.043259 0.490874,-0.042291 0.811462,0.00405 0.416332,0.060197 0.967195,0.2211299 1.053987,0.3079226 0.02615,0.026153 -0.02027,0.2057304 -0.111702,0.4321896 -0.08604,0.2130984 -0.15644,0.4285621 -0.15644,0.4788088 0,0.1590284 -0.09323,0.1566126 -0.176589,-0.00454 C 53.665097,7.0753951 52.690334,6.863159 52.08994,7.4644344 51.687923,7.867041 51.641598,8.4354849 51.971252,8.920822 c 0.128661,0.1894224 0.557681,0.396974 1.218438,0.5894561 1.438399,0.4190144 1.829115,0.8174249 1.768705,1.8035339 -0.03848,0.628159 -0.17931,0.955818 -0.587252,1.366321 -0.357805,0.36005 -0.784135,0.596942 -1.24863,0.693807 -0.361867,0.07547 -1.126234,0.06284 -1.487452,-0.02456 z M 6.7770487,13.256193 c -0.00109,-0.0015 -0.00676,-1.444291 -0.012588,-3.206292 L 6.7538488,6.8462635 h 0.5402458 c 0.395848,0 0.5416724,0.01679 0.5455832,0.062814 0.00293,0.034548 0.0011,0.3341832 -0.0041,0.6658548 -0.0057,0.3641861 0.00864,0.5831332 0.036212,0.5527837 C 7.8968973,8.1001018 8.022659,7.9270922 8.151262,7.7432698 8.681578,6.9852495 9.0436693,6.7457839 9.6595408,6.7457839 h 0.3863802 l -0.03233,0.5904744 C 9.995812,7.6610193 9.973631,7.9356226 9.9643,7.9464877 9.95497,7.9573517 9.8307163,7.9177767 9.6881834,7.8585477 8.8412426,7.5065716 8.0614514,8.0054494 7.8927763,9.0071773 7.8072873,9.5148788 7.77049,11.298372 7.8248635,12.298758 c 0.027041,0.497506 0.045179,0.909035 0.040306,0.914509 -0.00745,0.0084 -1.0822866,0.05079 -1.0881203,0.04295 z m 9.6735603,-0.06544 c 0.06656,-0.173432 0.137208,-2.935084 0.118287,-4.6233179 l -0.01929,-1.7211706 h 0.536673 c 0.432795,0 0.542322,0.014726 0.565857,0.076049 0.0291,0.075822 -0.03847,0.7010981 -0.09911,0.917194 -0.04357,0.1552921 0.09188,0.1033022 0.185209,-0.071081 0.09613,-0.179614 0.619031,-0.6534312 0.85267,-0.7726237 0.316459,-0.1614452 0.742831,-0.2500661 1.201679,-0.2497658 1.130554,7.377e-4 1.877345,0.520933 2.143781,1.4933 0.102163,0.3728447 0.10354,0.4289225 0.08193,3.338575 l -0.01256,1.691336 -0.609623,0.006 -0.609624,0.006 0.03308,-0.441042 C 21.018805,10.183659 20.983543,8.9256192 20.690756,8.2450187 20.460334,7.7093885 19.907212,7.4159824 19.211984,7.4605995 18.569222,7.5018536 18.111931,7.8107402 17.855734,8.3767179 17.641522,8.8499415 17.61527,9.1625544 17.611825,11.281107 l -0.0033,1.997541 -0.595851,2.1e-5 c -0.546757,2e-5 -0.593071,-0.0072 -0.562116,-0.08789 z M 27.75971,10.062623 V 6.8435573 l 0.628165,0.013936 0.628165,0.013926 -0.0067,0.1758856 c -0.0037,0.09674 -0.03231,0.7186201 -0.06363,1.3819613 -0.03132,0.6633413 -0.05545,2.0201748 -0.05361,3.0151878 l 0.0034,1.809113 -0.567869,0.01406 -0.567868,0.01406 z m 6.683754,3.128128 c 0.07088,-0.173323 0.134118,-2.932445 0.103369,-4.5102192 -0.01723,-0.8844553 -0.03626,-1.6533279 -0.04227,-1.7086067 -0.01035,-0.09518 0.02303,-0.1012509 0.63015,-0.1145733 L 35.77579,6.8432878 35.73798,7.359886 c -0.02079,0.2841291 -0.03791,1.7320683 -0.03804,3.21764 l -2.36e-4,2.701043 -0.646105,6.4e-5 c -0.59555,5.8e-5 -0.64329,-0.0068 -0.610139,-0.08788 z m 9.837717,-0.527658 c 0.02123,-0.338581 0.04388,-1.786579 0.05033,-3.2177734 l 0.01173,-2.6021712 0.527657,0.014133 0.527658,0.014133 -0.01258,0.515094 c -0.0069,0.2833024 0.0074,0.515095 0.03191,0.515095 0.02447,0 0.08386,-0.062192 0.131981,-0.138196 0.139949,-0.2210558 0.605606,-0.6525847 0.824939,-0.7644805 0.314112,-0.1602472 0.742589,-0.2531456 1.167593,-0.2531456 1.422829,0 2.224619,0.7927659 2.266859,2.2413441 0.0063,0.2183201 0.0059,1.2732346 -9.88e-4,2.3442536 l -0.01256,1.947309 h -0.608891 -0.608892 l 0.03025,-0.339208 c 0.01664,-0.186565 0.04506,-1.11545 0.06316,-2.06419 0.02935,-1.5385582 0.0233,-1.7707745 -0.05601,-2.1487145 C 48.43178,7.851936 47.954257,7.4465067 47.113415,7.4514153 46.438664,7.4553659 45.934554,7.7405015 45.682234,8.2609545 45.425308,8.7909116 45.398562,9.075655 45.398562,11.281128 v 1.997561 H 44.820572 44.24258 Z M 3.3308305,12.562587 C 3.3956164,11.289745 3.4632511,6.5641729 3.4300994,5.6266985 3.4007455,4.7966153 3.3871169,4.6861684 3.3164614,4.7057792 c -0.044156,0.012257 -0.719127,0.037768 -1.4999351,0.056691 l -1.41965131,0.03442 V 4.4210525 4.0452162 l 3.53028331,-0.02402 c 1.9416557,-0.013205 3.5330346,-0.021807 3.5363976,-0.019111 0.00336,0.00267 -0.00512,0.1900673 -0.01884,0.4163794 L 7.4197615,4.8299426 7.1873358,4.8042834 C 6.7686408,4.7580614 4.6442701,4.7044735 4.602057,4.7390689 4.5488148,4.7827033 4.5392662,11.397981 4.5909449,12.436949 l 0.03937,0.791486 H 3.963627 3.2969391 Z M 27.994994,5.1361575 c -0.215091,-0.1311372 -0.382922,-0.493581 -0.338412,-0.7308343 0.04453,-0.2373965 0.31328,-0.5069844 0.549591,-0.551317 0.295205,-0.055378 0.562244,0.047298 0.712152,0.2738219 0.174819,0.2641707 0.201279,0.4906438 0.08276,0.7083386 -0.206113,0.3785751 -0.656783,0.5129538 -1.006087,0.2999908 z m 6.85041,0.053817 c -0.363202,-0.151221 -0.534784,-0.668717 -0.329902,-0.9949941 0.210869,-0.3358138 0.571123,-0.4457155 0.90424,-0.2758555 0.494781,0.2522951 0.526125,0.8929076 0.05895,1.2049961 -0.174925,0.1168578 -0.443675,0.1448043 -0.633296,0.065857 z"
       id="path2" /><path
       style="fill:#fd9b10;fill-opacity:1;stroke-width:0.98765"
       d="m 9.1930306,4.0865177 c 0.026262,-0.026153 0.4321779,-0.2264029 0.9020444,-0.4449916 0.81127,-0.3774154 2.735638,-1.2958133 5.719336,-2.72953429 0.741022,-0.35607447 1.396853,-0.64740848 1.457402,-0.64740848 0.06055,0 0.381429,0.12677672 0.713066,0.28172615 0.587855,0.27466051 1.482146,0.68371742 3.115633,1.42512052 0.442228,0.2007172 1.38783,0.6337404 2.101339,0.9622733 0.713508,0.3285338 1.306557,0.5973334 1.317887,0.5973334 0.01133,0 0.162502,0.064454 0.335939,0.1432211 0.173437,0.078775 0.371875,0.1574373 0.440973,0.1748141 0.0691,0.017373 0.193474,0.087792 0.276393,0.1564911 l 0.150758,0.1248972 -0.915362,0.00178 C 23.818478,4.1342133 23.704926,4.1135319 23.112125,3.8235668 22.857364,3.698952 21.408277,3.0306184 20.8995,2.8030807 20.604447,2.6711257 17.979764,1.4771369 17.690908,1.3434674 17.307223,1.1659146 17.181292,1.1861476 16.426971,1.5465401 16.0953,1.7050026 15.620407,1.9304929 15.371655,2.0476312 14.787202,2.3228497 12.974257,3.1882276 11.98521,3.6640909 c -0.425305,0.2046283 -0.866277,0.3935272 -0.979937,0.419774 -0.275108,0.063536 -1.8757107,0.065847 -1.8122424,0.00267 z"
       id="path3-4" /></g></svg>
