<svg xmlns="http://www.w3.org/2000/svg" xml:space="preserve" viewBox="0 0 132.292 132.292">
  <path d="M67.98 4.536c-.453.005-1.215.026-2.543.067-.776.024-1.186.054-1.254.092a.477.477 0 0 1-.208.056c-.611-.014-2.624.16-3.13.27a5.49 5.49 0 0 1-.53.076c-.178.016-.427.05-.554.073l-.992.183c-.419.076-.855.16-.97.188-.114.027-.443.09-.732.14-.29.05-.583.121-.653.157-.07.037-.28.09-.467.118a3.07 3.07 0 0 0-.547.133 4.787 4.787 0 0 1-.54.161 3.197 3.197 0 0 0-.508.163c-.096.046-.33.119-.521.162-.19.044-.47.128-.623.188a3.26 3.26 0 0 1-.438.14 1.28 1.28 0 0 0-.282.092c-.152.077-1.094.342-1.219.342a.642.642 0 0 0-.258.113c-.09.061-.277.143-.414.181-.28.078-1.032.344-1.305.461a.978.978 0 0 1-.242.076c-.034 0-.227.083-.428.185a4.408 4.408 0 0 1-.392.184c-.015 0-.136.05-.27.11s-.337.147-.451.193a1.67 1.67 0 0 0-.277.137c-.038.029-.183.1-.323.159-.14.058-.326.155-.415.215a.66.66 0 0 1-.22.11c-.055 0-.59.263-.75.369a2.779 2.779 0 0 1-.276.138c-.114.051-.29.141-.392.2-.102.06-.278.16-.393.222-.114.063-.295.17-.403.238a1.16 1.16 0 0 1-.228.124c-.032 0-.103.045-.564.35-.226.15-.395.255-.727.452-.237.141-.311.19-.696.46-.133.093-.26.169-.281.169-.022 0-.077.041-.123.092s-.107.093-.134.093c-.028 0-.215.109-.415.242-.2.133-.458.296-.571.362-.26.152-.425.272-.516.38a.743.743 0 0 1-.21.148 3.194 3.194 0 0 0-.37.23c-.126.09-.269.189-.317.22a8.23 8.23 0 0 0-.415.328c-.18.15-.401.318-.49.375a3.7 3.7 0 0 0-.392.315c-.127.117-.29.259-.36.317a8.059 8.059 0 0 0-.237.2 6.015 6.015 0 0 1-.24.201c-.217.171-.716.618-.843.754-.065.07-.154.127-.198.127-.045 0-.105.046-.136.103-.053.1-.37.414-.99.981-.166.152-.421.391-.567.53-.145.14-.357.341-.47.447-.113.105-.392.392-.62.637-.229.246-.545.58-.704.744-.159.163-.289.313-.289.331 0 .019-.114.127-.254.242-.139.114-.253.233-.253.263 0 .06-.066.137-.612.711a6.72 6.72 0 0 0-.53.629c-.288.418-.307.443-.49.635-.098.101-.23.267-.295.369-.122.192-.317.44-.474.601-.05.052-.091.11-.091.13 0 .043-.156.266-.38.544-.096.118-.174.236-.174.262 0 .026-.085.136-.188.244-.104.107-.25.327-.326.487-.075.16-.154.301-.174.314-.02.013-.138.174-.26.359a8.8 8.8 0 0 1-.298.428c-.041.05-.114.186-.162.3a1.65 1.65 0 0 1-.216.359c-.071.083-.16.218-.199.3-.038.081-.11.21-.161.286a5.528 5.528 0 0 0-.236.416c-.079.152-.223.412-.32.577-.098.165-.2.348-.226.407a1.678 1.678 0 0 1-.16.254.962.962 0 0 0-.147.285c-.029.117-.13.313-.344.67a6.8 6.8 0 0 0-.161.31 1.254 1.254 0 0 1-.158.265c-.054.033-.232.383-.232.457 0 .033-.063.147-.139.252-.076.105-.138.223-.138.261a.4.4 0 0 1-.041.15 6.675 6.675 0 0 0-.123.265 4.653 4.653 0 0 1-.118.254c-.084.153-.226.476-.226.514 0 .023-.04.129-.087.236-.048.108-.144.341-.215.52-.07.177-.176.43-.236.561-.06.132-.108.257-.108.277 0 .02-.094.263-.208.539-.114.275-.207.526-.207.556 0 .03-.05.158-.109.284-.103.217-.399 1.11-.565 1.704a3.83 3.83 0 0 1-.162.463 1.606 1.606 0 0 0-.111.392c-.015.113-.058.3-.098.414-.039.114-.099.343-.132.508-.061.297-.161.728-.252 1.085-.18.714-.622 3.198-.676 3.807-.017.19-.052.387-.078.438-.027.05-.064.269-.084.485-.098 1.064-.176 1.757-.203 1.802-.04.063-.108.812-.15 1.636-.035.67-.029 4.164.009 5.214.023.655.1 1.751.14 2.007.013.09.076.556.14 1.039.064.482.138 1.032.165 1.223.077.545.321 1.935.39 2.215.064.266.14.626.324 1.546.128.637.327 1.405.501 1.938.067.203.135.452.15.554.017.101.077.288.134.415.058.127.12.314.138.415.018.102.079.247.136.323l.103.139 26.618-.011c22.183-.01 26.634-.022 26.711-.074.072-.047.102-.135.128-.38.09-.86.142-1.229.224-1.589.05-.215.132-.683.183-1.038.052-.356.136-.873.186-1.15.051-.277.093-.582.093-.678 0-.095.023-.232.051-.303.028-.072.089-.39.135-.707.046-.318.129-.826.184-1.13.055-.305.117-.722.137-.926.02-.204.079-.588.13-.854.051-.265.117-.669.147-.897.03-.229.096-.623.148-.877.051-.254.112-.597.136-.761.071-.516.262-1.71.453-2.839.026-.152.08-.505.119-.784.039-.28.114-.715.166-.969.203-.993.048-1.57-.53-1.98-.305-.214-.54-.28-1.184-.332-.452-.037-1.2.05-1.442.166-.105.05-.212.092-.24.092-.1.001-.869.419-.996.542-.22.212-.319.289-.373.289-.028 0-.16.109-.294.242-.134.133-.35.335-.48.447-.13.113-.236.235-.236.272 0 .037-.068.174-.15.303-.207.321-.286.539-.609 1.666-.036.127-.131.646-.21 1.154-.08.507-.164 1.01-.187 1.117a1.913 1.913 0 0 0-.043.332c0 .077-.043.322-.096.545-.052.223-.135.732-.184 1.13a36.534 36.534 0 0 1-.348 2.206c-.135.758-.159.95-.187 1.466-.026.498-.033.524-.152.609-.12.086-.276.088-5.34.092l-5.215.004-.128-.1c-.127-.1-.128-.107-.097-.463.017-.199.052-.43.077-.512.024-.082.062-.295.084-.473.038-.302.121-.89.237-1.672.062-.418.034-.52-.142-.52-.154 0-.217.078-.507.623-.108.203-.231.41-.274.462-.043.05-.177.24-.297.42a3.29 3.29 0 0 1-.308.412c-.05.045-.09.109-.09.142 0 .033-.043.083-.096.111-.052.028-.213.171-.358.318-.32.324-.96.835-1.047.835-.035 0-.09.037-.124.083-.05.07-.27.215-.691.454a.82.82 0 0 0-.144.103.244.244 0 0 1-.15.052c-.055 0-.185.062-.29.138-.106.076-.223.139-.262.139a.396.396 0 0 0-.15.04c-.18.094-.704.284-1.073.39-.646.185-.793.22-1.107.265l-.612.089c-.358.053-2.355.056-2.941.004a3.044 3.044 0 0 1-.6-.11 7.954 7.954 0 0 0-.485-.152 6.851 6.851 0 0 1-1.003-.344 2.643 2.643 0 0 0-.367-.136c-.025 0-.133-.073-.242-.162-.108-.089-.23-.161-.272-.161-.04 0-.163-.063-.271-.14a43.427 43.427 0 0 0-.442-.305c-.134-.091-.454-.391-.71-.667-.465-.5-.639-.728-.639-.843 0-.034-.083-.146-.184-.25-.102-.103-.185-.227-.185-.275 0-.048-.051-.195-.115-.326a1.854 1.854 0 0 1-.116-.274c0-.02-.051-.14-.114-.266a1.239 1.239 0 0 1-.114-.303c0-.04-.044-.23-.095-.424-.065-.25-.1-.579-.12-1.128-.04-1.056-.03-1.259.103-2.136.064-.42.132-.93.152-1.136.02-.205.051-.398.07-.428.037-.061.129-.621.237-1.459.04-.305.092-.62.118-.701.025-.081.054-.247.065-.37.052-.615.126-1.105.276-1.814.035-.165.075-.447.09-.628.013-.18.065-.575.115-.877.116-.705.159-.977.304-1.933.065-.431.158-1.033.206-1.338.048-.304.1-.657.116-.784.017-.127.08-.501.14-.83.06-.33.142-.87.183-1.2.041-.33.094-.694.117-.808.023-.114.086-.509.139-.877.105-.725.16-1.083.208-1.345.024-.133.01-.187-.063-.26-.09-.091-.152-.093-2.578-.099-1.367-.003-2.551-.017-2.633-.032-.223-.041-.262-.115-.227-.445.053-.518.264-1.76.335-1.983.039-.12.06-.234.048-.253-.012-.02.007-.212.043-.428s.095-.662.133-.991c.089-.782.083-.776.785-.737.646.037 3.512.042 4.263.01.7-.032.728-.051.767-.52.033-.389.147-1.13.213-1.385.027-.101.067-.33.09-.508a18 18 0 0 1 .153-.9c.062-.317.126-.7.142-.853.017-.152.07-.443.117-.646s.1-.47.116-.592c.017-.128.069-.261.122-.314.084-.084.132-.09.562-.063.258.015 2.597.038 5.196.049 5.402.023 4.896-.024 4.894.454 0 .155-.023.375-.05.489a5.944 5.944 0 0 0-.084.577c-.058.575-.274 1.818-.379 2.172a3.013 3.013 0 0 0-.067.438 2.173 2.173 0 0 1-.044.324c-.01.015-.02.209-.025.43-.005.297.01.422.058.47.057.057 3.505.066 25.161.067 18.882 0 25.112-.012 25.16-.052a.21.21 0 0 0 .064-.142c0-.103-.116-.346-.223-.467-.078-.089-.221-.353-.633-1.164-.142-.279-.369-.715-.504-.969a77.726 77.726 0 0 1-.352-.669 1.962 1.962 0 0 0-.208-.323 1.798 1.798 0 0 1-.188-.277c-.194-.36-1.27-2.006-1.41-2.155a1.517 1.517 0 0 1-.26-.409c-.052-.113-.274-.446-.321-.48a5.671 5.671 0 0 1-.302-.428c-.148-.223-.286-.404-.307-.404-.022 0-.054-.047-.072-.104a1.071 1.071 0 0 0-.19-.279 1.264 1.264 0 0 1-.2-.289c-.023-.062-.065-.112-.092-.112-.028 0-.08-.073-.118-.162-.037-.09-.085-.161-.108-.161-.022 0-.08-.068-.13-.15a4.686 4.686 0 0 0-.35-.456c-.145-.167-.262-.329-.262-.358 0-.03-.05-.077-.112-.105a.271.271 0 0 1-.137-.153c-.014-.056-.125-.206-.246-.333a18.673 18.673 0 0 1-.567-.638c-.41-.483-.577-.669-.807-.893-.05-.049-.15-.159-.221-.244a4.435 4.435 0 0 0-.169-.194 61.586 61.586 0 0 0-1.963-1.943c-.114-.1-.208-.207-.208-.236 0-.03-.062-.08-.138-.112-.077-.032-.139-.075-.139-.097 0-.022-.078-.09-.173-.15a2.422 2.422 0 0 1-.335-.272c-.19-.19-.678-.589-.72-.589-.026 0-.622-.507-.734-.625a2.328 2.328 0 0 0-.25-.185 3.215 3.215 0 0 1-.306-.228 2.97 2.97 0 0 0-.27-.207 4.111 4.111 0 0 1-.378-.307 4.26 4.26 0 0 0-.402-.323 8.385 8.385 0 0 1-.437-.328c-.135-.108-.263-.196-.287-.196-.064 0-.387-.229-.43-.304-.02-.036-.064-.065-.1-.065a.219.219 0 0 1-.124-.058c-.177-.168-.935-.635-1.03-.635-.029 0-.134-.067-.234-.15-.1-.082-.285-.2-.412-.262a2.143 2.143 0 0 1-.306-.175c-.082-.069-.193-.13-.904-.497a5.492 5.492 0 0 1-.653-.387c-.1-.079-.225-.144-.278-.144-.054 0-.097-.02-.097-.047 0-.026-.057-.072-.127-.102s-.21-.107-.312-.171c-.21-.132-1.041-.557-1.09-.557-.018 0-.143-.072-.277-.16-.135-.09-.269-.163-.297-.163a1.04 1.04 0 0 1-.255-.114 3.7 3.7 0 0 0-.273-.143l-.16-.064c-.052-.02-.21-.09-.35-.155a11.635 11.635 0 0 0-.502-.214 1.993 1.993 0 0 1-.392-.21.556.556 0 0 0-.264-.114c-.062 0-.133-.018-.157-.04a1.967 1.967 0 0 0-.298-.143 31.88 31.88 0 0 1-.438-.187c-.251-.11-.658-.23-.778-.231a.758.758 0 0 1-.283-.114.777.777 0 0 0-.297-.115.97.97 0 0 1-.3-.089 3.648 3.648 0 0 0-.51-.169 3.221 3.221 0 0 1-.415-.127 3.081 3.081 0 0 0-.392-.125l-.67-.18c-.204-.056-.535-.14-.739-.187a34.046 34.046 0 0 1-.738-.181 3.162 3.162 0 0 0-.489-.096c-.066 0-.232-.04-.37-.086a4.66 4.66 0 0 0-.64-.146 3.551 3.551 0 0 1-.531-.116 3.195 3.195 0 0 0-.485-.11c-.31-.05-.582-.101-1.246-.241a7.626 7.626 0 0 0-.6-.084 26.328 26.328 0 0 1-1.127-.16 19.52 19.52 0 0 0-1.43-.167 9.235 9.235 0 0 1-.903-.098 5.642 5.642 0 0 0-.762-.065c-.305-.009-.637-.04-.739-.067-.092-.026-.235-.037-.688-.032zm28.257 11.2c.024 0 .057.021.072.046.016.026-.003.046-.043.046-.04 0-.072-.02-.072-.046 0-.025.02-.046.043-.046zM57.824 30.823c.02-.023.056-.025.095.007.036.03.065.07.065.089 0 .07-.142.09-.167.024-.02-.053-.014-.097.007-.12zm50.045.026c.025.016.046.038.046.05 0 .01-.02.02-.046.02s-.046-.023-.046-.05c0-.026.02-.035.046-.02zm-61.56.254c.052 0 .092.03.092.07 0 .07-.097.094-.153.038-.059-.058-.03-.108.061-.108zm10.598 5.214-.107.1a.37.37 0 0 0-.11.22 5.433 5.433 0 0 1-.092.558c-.206 1.003-.454 2.428-.509 2.925a3.668 3.668 0 0 1-.065.44c-.022.037-.174.991-.254 1.595-.03.228-.082.52-.117.647-.058.218-.106.578-.211 1.591a3.905 3.905 0 0 1-.109.623c-.035.102-.073.33-.087.508-.021.288-.116.849-.267 1.592-.028.14-.058.337-.066.438-.02.24-.195 1.451-.258 1.777-.028.14-.066.4-.086.577-.02.178-.06.448-.087.6-.24 1.313-.286 2.16-.147 2.695.053.204.096.411.096.46 0 .05.06.15.131.222.072.072.155.177.185.232a.47.47 0 0 0 .167.16l.35.191c.246.135.903.263 1.332.261.301 0 .895-.107 1.273-.227.338-.107.715-.282.715-.33 0-.016.138-.11.306-.208.34-.2.726-.629.988-1.103.084-.152.196-.339.249-.415.052-.076.147-.242.21-.37.064-.126.166-.3.227-.385.111-.157.178-.398.307-1.114.039-.215.099-.485.134-.6.034-.114.075-.37.09-.57.025-.338.246-1.642.358-2.107.087-.363.131-.605.25-1.36.063-.407.145-.822.182-.924.036-.101.098-.467.137-.814.113-1.01.156-1.294.23-1.535.039-.124.07-.303.07-.397 0-.11.032-.198.09-.25.084-.077.395-.081 5.34-.075 4.754.006 5.258.014 5.332.081.104.094.112.5.017.798a4.334 4.334 0 0 0-.114.623l-.099.854a4.509 4.509 0 0 1-.12.655c-.08.248-.047.692.057.78.17.14.388-.093.388-.416 0-.123.201-.465.273-.465.022 0 .052-.052.068-.115.045-.177.83-1.009 1.006-1.065.046-.014.083-.046.083-.069 0-.023.078-.092.173-.152.095-.061.295-.227.443-.37.148-.141.376-.322.507-.4a6.7 6.7 0 0 0 .423-.277c.429-.313 1.154-.71 1.592-.872.09-.032.271-.11.405-.17.134-.06.27-.11.303-.11a.18.18 0 0 0 .102-.038c.06-.052.343-.131.76-.214.19-.038.416-.09.503-.115.257-.075 1.928-.242 2.427-.243.481 0 1.695.156 2.053.265.114.034.343.096.508.137.165.041.393.117.507.17 1.004.458 1.223.569 1.43.726.09.067.216.157.282.198.065.042.21.166.323.277.112.11.302.28.423.378.12.098.219.205.219.239 0 .033.062.105.138.159.076.054.139.12.139.147 0 .026.061.118.137.204.075.086.194.275.265.421.07.146.175.336.232.422.057.087.104.21.105.277 0 .066.062.224.138.351.075.127.137.293.138.37 0 .075.047.304.103.507.116.419.12.61.04 2.322-.028.591-.072 1.115-.098 1.164-.058.109-.266 1.324-.303 1.775a3.15 3.15 0 0 1-.09.53c-.084.272-.252 1.433-.252 1.74 0 .131-.023.297-.05.369-.028.071-.131.607-.23 1.191a24.668 24.668 0 0 1-.222 1.208c-.024.08-.033.156-.021.168.019.02-.114.894-.268 1.762-.085.486-.123.72-.244 1.546-.065.444-.138.911-.162 1.038-.058.314-.364 2.271-.42 2.7a5.61 5.61 0 0 1-.09.507c-.023.09-.074.39-.113.67-.039.279-.092.632-.117.784-.076.45-.064.554.07.616.084.038.805.053 2.56.053h2.443l.076.116c.07.108.07.15-.003.589-.044.26-.098.607-.12.772-.023.165-.073.466-.11.669a8.543 8.543 0 0 0-.098.715c-.015.19-.05.42-.078.508a1.634 1.634 0 0 0-.06.3c-.07.97-.104 1.103-.308 1.174-.093.032-.974.049-2.578.049-1.713 0-2.47.016-2.551.052-.17.077-.217.232-.327 1.078-.033.254-.091.628-.13.831-.038.203-.095.535-.126.739-.031.203-.072.473-.093.6-.192 1.202-.234 1.51-.234 1.737 0 .447.516.408-5.42.408-4.867 0-5.207-.005-5.337-.08l-.14-.082.027-.42a5.42 5.42 0 0 1 .076-.64c.027-.121.078-.451.113-.733.153-1.23.36-2.607.42-2.804.092-.294.085-.517-.017-.61-.078-.07-1.912-.076-25.293-.077-13.864 0-25.227.012-25.25.026-.023.015-.042.1-.042.19 0 .16.26.713 1.04 2.208l.375.721a.697.697 0 0 0 .132.18c.037.03.068.08.068.108 0 .028.073.154.162.28.089.124.161.246.161.27 0 .023.104.198.231.388s.244.4.261.468c.017.067.11.2.208.295.097.096.177.204.177.24 0 .038.11.232.242.431l.289.435c.196.309.627.928.764 1.098.092.114.227.312.3.439.158.274.306.497.394.594.035.04.148.19.25.334.1.144.241.323.31.397.07.075.127.156.127.182 0 .026.19.262.422.525.231.262.46.54.506.618.048.078.108.141.133.141.026 0 .047.028.047.062s.12.186.265.336c.146.15.327.363.4.471.075.11.195.24.269.292.073.052.18.171.24.263.059.093.235.293.393.445.157.153.372.37.478.483.106.112.26.274.343.359.083.084.15.174.15.2 0 .024.05.068.112.096.061.028.124.1.139.16.015.06.09.14.165.18.076.038.138.091.138.117 0 .025.05.068.11.096.06.027.133.1.161.161a.303.303 0 0 0 .132.143c.045.017.197.147.34.287.14.141.342.33.446.418.103.089.267.26.364.38.097.121.202.22.234.22s.17.098.307.22c.407.357.495.426.545.426.025 0 .103.057.173.127.07.07.245.21.39.311.268.188.426.314.622.496.06.055.146.122.192.149.123.07.838.603.945.703.129.122.59.418.733.473.066.025.12.064.12.087 0 .023.078.095.173.16.096.066.277.193.404.284.404.29.594.412.817.52.12.059.23.127.245.152a.548.548 0 0 0 .176.114c.197.09.288.15.579.38.136.109.267.197.29.197.11 0 .617.272 1.17.626.159.102.446.247.494.25.018 0 .11.053.204.117.094.064.225.13.29.145.066.015.16.063.211.107.05.043.166.106.254.14.09.033.193.085.23.114.039.029.164.092.278.14.114.047.239.11.277.14.09.07.37.206.426.206.023 0 .132.072.24.16.108.09.24.162.292.162.096 0 .307.083.818.32l.544.25c.146.067.293.122.325.122.033 0 .158.063.278.139.12.076.252.138.293.138.042 0 .316.096.61.212l.76.3c.124.049.26.088.303.088.043 0 .163.042.268.093.105.05.219.092.252.092s.268.074.521.165c.524.188 1.06.343 1.187.343a.66.66 0 0 1 .234.079c.157.084.417.15 1.047.267.397.073.754.157 1.181.28.13.036.289.066.355.066.065 0 .388.062.718.138.33.076.672.139.762.139.09 0 .221.022.293.05.152.058 1.726.318 1.93.319.075 0 .247.042.38.092.134.051.352.093.485.094.133 0 .392.02.575.045.183.024.463.045.623.048.16.003.4.036.535.073s.28.058.323.046c.043-.012.275-.005.516.014.657.053 4.775.056 5.293.004.249-.025.92-.077 1.49-.117.572-.039 1.174-.09 1.339-.114a85.048 85.048 0 0 0 2.976-.466l1.038-.183c.115-.02.291-.06.393-.088.101-.028.35-.09.554-.14.95-.228 1.36-.333 1.638-.415.165-.05.487-.144.715-.21.228-.067.584-.182.79-.256.205-.074.407-.135.448-.135.066 0 1.531-.461 1.762-.555.05-.02.217-.083.369-.137.59-.211.791-.288.978-.373.107-.049.22-.088.25-.088.032 0 .142-.04.246-.086.372-.171.771-.33.828-.33.032 0 .14-.061.24-.136.099-.076.228-.138.287-.139.13-.002.414-.117 1.116-.453a110.563 110.563 0 0 1 1.292-.607c.114-.054.27-.138.346-.187a5.47 5.47 0 0 1 .393-.22c.14-.07.337-.183.438-.248a1.62 1.62 0 0 1 .3-.155 1.06 1.06 0 0 0 .288-.19c.096-.086.2-.156.233-.156.09 0 .38-.158.544-.296.08-.068.211-.153.29-.19.08-.037.27-.15.422-.25.152-.101.322-.204.377-.23.055-.024.203-.118.329-.208.125-.09.248-.165.273-.165.025 0 .082-.041.128-.092.046-.05.11-.092.14-.092.031 0 .084-.034.118-.074.034-.04.166-.144.294-.229.128-.085.316-.213.418-.285a6.53 6.53 0 0 1 .404-.258c.12-.07.324-.23.451-.356.128-.126.255-.229.282-.229.027 0 .146-.079.264-.176a5.64 5.64 0 0 1 .456-.331c.133-.085.242-.173.242-.194 0-.022.036-.053.08-.069a.737.737 0 0 0 .197-.139c.064-.06.291-.25.506-.42.215-.17.476-.392.58-.494.105-.101.319-.298.477-.438.837-.74 2.466-2.343 3.19-3.139.165-.181.415-.448.555-.592.14-.143.337-.364.438-.491.101-.127.25-.303.329-.392.08-.09.25-.297.38-.462.128-.165.354-.431.5-.59.147-.16.299-.348.338-.416.039-.069.127-.208.197-.31.07-.1.17-.251.222-.334.053-.082.112-.15.133-.15.02 0 .106-.109.191-.242.086-.133.182-.273.216-.311.055-.063.602-.761.838-1.07a.474.474 0 0 0 .093-.17c0-.026.038-.075.085-.108a.72.72 0 0 0 .164-.199c.042-.076.118-.2.167-.277.05-.076.11-.18.132-.23a.669.669 0 0 1 .139-.18c.054-.049.098-.106.098-.128 0-.021.076-.148.17-.281.269-.385.318-.46.459-.696l.234-.392c.056-.093.165-.287.241-.431.077-.144.16-.274.184-.29.024-.015.093-.125.151-.245.059-.12.174-.308.257-.418.082-.11.15-.238.15-.285 0-.046.088-.238.196-.425l.274-.477c.043-.075.181-.337.307-.582a7.98 7.98 0 0 1 .302-.553.403.403 0 0 0 .074-.173c0-.037.082-.235.182-.44.32-.656.556-1.166.556-1.203 0-.02.063-.137.139-.261.076-.124.138-.253.138-.288 0-.09.171-.517.327-.818.075-.143.135-.293.135-.333 0-.077.1-.32.325-.792.073-.152.163-.37.2-.485.037-.114.122-.348.187-.52a2.22 2.22 0 0 0 .119-.38c0-.036.048-.176.107-.31.146-.332.26-.665.312-.91.023-.113.063-.268.088-.346.196-.608.323-1.058.323-1.142 0-.055.04-.236.09-.403.087-.29.248-.948.402-1.642.04-.177.1-.437.134-.576.065-.264.139-.656.296-1.585.051-.3.106-.567.123-.594.016-.027.046-.27.066-.539.075-1.002.136-1.52.198-1.671.038-.093.076-.438.094-.85.017-.38.055-.868.084-1.083.078-.562.106-3.153.06-5.33-.02-.942-.208-3.64-.261-3.761-.052-.118-.143-.907-.202-1.731-.018-.254-.058-.513-.09-.577a2.444 2.444 0 0 1-.114-.484 27.066 27.066 0 0 0-.332-1.639c-.028-.114-.08-.373-.115-.576a4.63 4.63 0 0 0-.106-.485 8.016 8.016 0 0 1-.14-.577c-.055-.254-.172-.68-.26-.948-.088-.267-.22-.706-.292-.974-.145-.536-.233-.708-.387-.749-.056-.015-12.03-.027-26.61-.028zm-11.491.259c.091-.036.179.035.134.107-.042.068-.096.063-.16-.014-.04-.05-.035-.07.026-.093zm64.414.019c.038 0 .07.02.07.046 0 .025-.032.046-.07.046-.038 0-.07-.021-.07-.046 0-.026.032-.046.07-.046zm-36.694 8.008c.014-.006.032.003.057.024.036.03.066.094.066.141 0 .092-.113.12-.162.04-.015-.025-.015-.089.002-.14.012-.038.022-.059.037-.065zm-.168.598c.01.004.02.02.032.05.017.044.013.1-.01.122-.055.055-.103-.07-.056-.145.013-.021.024-.03.034-.027zM59.677 56.895c.016.027.016.115-.006.26-.036.24-.103.304-.144.138a.477.477 0 0 1 .052-.29c.048-.101.082-.135.098-.108zM22.35 65.51c.059-.036.162.048.128.105-.046.074-.165.063-.165-.015 0-.037.016-.077.037-.09zm2.241 5.696c.035-.007.076.007.101.048.037.06-.085.198-.132.151-.018-.018-.032-.07-.032-.117a.08.08 0 0 1 .063-.082zm50.05.02c.027.015.048.041.048.073 0 .056-.125.056-.16 0-.014-.024-.005-.056.021-.072a.093.093 0 0 1 .09 0zm13.87 20.375c.037 0 .069.02.069.046 0 .025-.032.046-.07.046-.038 0-.069-.021-.069-.046 0-.026.031-.046.07-.046zm-1.535 5.911c-1.804.002-3.312.016-3.351.031-.122.047-.248.36-.279.692-.016.174-.068.555-.115.847-.048.292-.096.625-.106.739-.01.114-.04.301-.068.415a21.31 21.31 0 0 0-.169 1.038c-.066.457-.15.96-.187 1.116a2.526 2.526 0 0 0-.067.447c0 .089-.033.314-.073.5-.04.186-.102.566-.138.845-.036.279-.096.671-.133.871-.038.2-.102.62-.143.933-.04.313-.093.638-.118.721a4.514 4.514 0 0 0-.09.567c-.045.43-.197 1.338-.278 1.661a5.696 5.696 0 0 0-.09.577 24.28 24.28 0 0 1-.164 1.107c-.066.394-.137.85-.156 1.016-.02.165-.082.555-.14.867-.073.4-.092.61-.064.708l.04.14 3.248-.005c1.787-.003 3.267-.016 3.29-.03.096-.06.176-.314.219-.694.062-.56.139-1.012.216-1.28.036-.124.065-.31.066-.416 0-.206.045-.52.16-1.137.039-.215.102-.609.14-.874.038-.265.095-.498.126-.518.072-.046.227-.048.29-.003.085.059.252.322.252.396 0 .04.089.154.197.255.108.102.259.27.335.376.075.105.19.25.253.322.063.072.167.207.23.3.064.094.256.336.427.54.171.202.312.387.312.41 0 .023.046.088.104.145.057.056.17.186.252.288l.243.301c.362.444.678.852.725.936.03.054.094.13.142.17.048.039.164.19.259.336l.172.266h3.453c2.706 0 3.463-.013 3.5-.058.026-.032.102-.411.17-.843.067-.431.142-.888.165-1.014.023-.127.116-.728.207-1.335.09-.607.172-1.116.18-1.13a1.89 1.89 0 0 0 .048-.282c.048-.39.248-1.658.299-1.891a8.75 8.75 0 0 0 .095-.646 8.19 8.19 0 0 1 .097-.646c.026-.114.066-.364.09-.554.068-.568.18-1.26.228-1.408.024-.076.078-.398.118-.715.11-.872.145-1.12.174-1.246.015-.064.06-.344.1-.623.04-.279.102-.663.138-.853.036-.19.11-.68.162-1.085.054-.406.127-.877.164-1.046.076-.347.056-.442-.104-.503-.064-.025-1.413-.043-3.172-.043-2.85 0-3.068.006-3.154.08-.1.089-.22.523-.261.942a4.325 4.325 0 0 1-.093.531c-.067.266-.177.822-.348 1.77-.048.266-.1.754-.118 1.084-.037.69-.103.914-.261.892-.06-.008-.13-.07-.165-.143-.034-.07-.077-.126-.097-.126-.036 0-.445-.5-.536-.653a3.705 3.705 0 0 0-.263-.324c-.12-.136-.372-.443-.56-.685a14.956 14.956 0 0 0-.554-.669 34.775 34.775 0 0 1-1.263-1.54c-.096-.129-.243-.3-.565-.656-.128-.142-.233-.29-.233-.33 0-.177-.031-.178-3.41-.174zm-67.162.01c-1.595-.003-4.15.002-8.055.015-5.6.018-10.198.042-10.217.054-.127.076-.23.603-.359 1.838-.029.279-.073.59-.1.692a3.284 3.284 0 0 0-.068.369c-.011.102-.06.475-.11.83-.145 1.058-.149 1.167-.044 1.223.06.032 1.023.047 2.848.046l2.76-.002.085.105c.1.123.09.275-.092 1.329-.063.368-.134.793-.156.945l-.135.877c-.052.33-.094.66-.094.735 0 .073-.03.24-.067.369-.036.129-.12.619-.188 1.088-.067.47-.142.916-.167.992a2.399 2.399 0 0 0-.066.416c-.012.152-.062.495-.11.761a48.543 48.543 0 0 0-.233 1.385c-.194 1.197-.236 1.554-.195 1.66l.045.116 4.17-.008 4.17-.008.075-.154c.041-.084.11-.392.152-.684.042-.292.116-.738.164-.992a42.1 42.1 0 0 0 .325-2.036c.018-.155.046-.304.062-.33.016-.026.061-.293.1-.594.066-.506.1-.71.258-1.54.031-.165.073-.424.093-.576.02-.153.077-.485.128-.739.052-.254.094-.563.095-.688.001-.125.033-.332.07-.462.076-.26.255-1.368.256-1.578 0-.073.04-.2.09-.281l.09-.149 1.81.003c.995.002 1.858.022 1.917.044.17.065.223.232.163.516-.028.133-.084.47-.124.75-.04.279-.092.6-.115.715-.023.114-.096.623-.162 1.13-.067.508-.151 1.03-.188 1.158-.037.13-.067.316-.068.416 0 .099-.064.554-.142 1.011-.078.457-.158.996-.179 1.2-.02.202-.07.545-.11.761-.04.216-.095.58-.121.808-.058.503-.08.644-.161 1.061-.085.435-.134 1.01-.098 1.153l.03.116 3.216-.011 3.216-.012.032-.185c.1-.576.18-1.174.227-1.684.03-.317.106-.847.17-1.177l.173-.9a4.53 4.53 0 0 1 .13-.514c.139-.402.57-1.218.748-1.415.2-.222.51-.515.544-.516.02 0 .093-.04.161-.09.07-.048.299-.124.51-.168.32-.067.454-.073.785-.035.22.026.472.078.56.117.354.154.427.176.598.176.098 0 .2-.03.232-.067.03-.037.095-.36.143-.72.049-.358.098-.667.11-.686.03-.048.165-.94.193-1.273a8.09 8.09 0 0 1 .112-.723c.05-.245.09-.535.09-.646.001-.11.02-.275.04-.367a.483.483 0 0 0-.019-.306c-.075-.178-.248-.207-1.085-.178-.614.021-.814.055-1.175.197-.375.148-.416.166-.484.206a1.93 1.93 0 0 1-.178.087c-.059.026-.194.116-.3.201a1.123 1.123 0 0 1-.307.184c-.063.016-.185.123-.27.237-.174.232-.197.242-.308.13-.102-.101-.07-.457.079-.87.086-.24.094-.306.046-.354-.045-.046-.511-.065-2.013-.082-1.862-.022-1.959-.028-2.054-.115-.073-.066-.093-.123-.073-.207.072-.305.204-1.126.186-1.155-.01-.018.001-.103.027-.19.053-.179.133-.814.245-1.933.011-.114.043-.266.07-.338a.872.872 0 0 0 .05-.261c0-.11-.026-.14-.165-.187-.064-.02-.699-.033-2.294-.036zm76.061.36c.027 0 .049.022.049.047s-.01.046-.02.046c-.011 0-.034-.02-.05-.046-.015-.025-.006-.046.021-.046zm-12.213.018c.004-.005.011.002.019.02.013.033.01.073-.004.089-.016.015-.026-.012-.024-.061 0-.027.004-.043.009-.048zm42.459 1.275c-1.517 0-3.029.007-3.075.025-.1.038-.12.104-.173.59a3.624 3.624 0 0 1-.09.539c-.05.135-.14.86-.14 1.14 0 .152-.027.22-.126.311l-.127.118h-.923c-.508 0-1 .021-1.093.047l-.169.047-.028.357a12.01 12.01 0 0 1-.073.665c-.025.17-.045.444-.045.61 0 .313-.066.415-.231.36-.068-.021-.33-.285-.646-.65-.089-.103-.189-.188-.222-.189-.033 0-.22-.12-.415-.266-.285-.212-.91-.566-1-.566a5.55 5.55 0 0 1-.367-.162c-.193-.088-.396-.162-.453-.163-.057 0-.229-.03-.381-.064-1.61-.367-1.39-.333-2.93-.442-1-.071-2.942-.038-3.692.062-1.103.147-1.27.174-1.569.26-.165.048-.456.122-.646.165-.995.223-2.325.789-2.839 1.208-.025.02-.21.141-.411.267-.427.268-1.437 1.22-1.533 1.443-.036.084-.135.25-.221.37-.224.311-.62 1.098-.651 1.295-.015.092-.055.251-.089.353-.157.469-.205 1.97-.076 2.353.026.076.092.284.147.461.116.375.303.79.416.923.043.051.133.174.2.273.13.196.868.812.971.812.036 0 .102.047.148.104.112.139.314.265.424.265.048 0 .113.03.144.067.03.037.1.082.155.099.055.017.204.078.33.136.35.158.962.39 1.03.39.032 0 .126.034.206.076.08.042.261.1.402.131.14.031.493.113.785.183.763.181.983.218 1.5.254.704.05 2.287.05 3.392.001 1.142-.05 1.386-.074 1.8-.167.165-.038.466-.088.669-.112.447-.053.704-.104 2.182-.432.503-.111 1.148-.366 1.532-.604.09-.055.213-.117.276-.137.23-.073.37-.215.37-.378 0-.084-.017-.153-.038-.153-.045 0-.125-.164-.224-.461a6.078 6.078 0 0 0-.224-.531c-.2-.42-.483-1.093-.483-1.149 0-.024-.034-.082-.076-.128-.118-.13-.403-.11-.658.047a1.338 1.338 0 0 1-.351.157 13.2 13.2 0 0 0-.76.213 9.34 9.34 0 0 1-.83.22c-.114.017-.27.057-.348.09-.204.085-2.156.17-3.39.149-.963-.017-1.056-.026-1.27-.124a5.197 5.197 0 0 0-.439-.174c-.369-.122-.71-.312-.903-.501-.216-.212-.277-.313-.366-.61-.054-.18-.054-.23.001-.337.036-.07.1-.139.14-.155.041-.016 2.686-.029 5.878-.029 5.747 0 5.805 0 5.887-.092.068-.074.091-.213.12-.703.052-.872.048-1.643-.01-1.858a3.03 3.03 0 0 1-.073-.406c-.037-.364-.003-.38.803-.375.436.003.722.025.788.06.14.075.135.246-.038 1.275-.077.457-.158.945-.18 1.084-.024.14-.089.514-.146.83-.09.506-.104.741-.107 1.893l-.004 1.315.132.251c.286.544.697.956 1.154 1.158.112.05.215.118.228.152.013.034.124.1.247.145.123.046.309.133.412.193.104.06.25.109.324.109.074 0 .274.04.445.088.444.127 1.716.205 2.758.168 1.26-.045 1.715-.172 2.538-.708.423-.276.692-.505.692-.588 0-.028.053-.102.118-.163.065-.061.163-.184.217-.273.054-.09.174-.256.266-.37.269-.333.507-.775.507-.942 0-.127-.05-.198-.319-.447-.338-.314-.513-.453-.69-.547-.096-.05-.143-.041-.358.068-.137.069-.248.14-.248.158 0 .033-.183.097-.531.186-.432.11-.927.007-1.165-.242-.125-.13-.128-.142-.126-.718 0-.699.095-1.712.183-1.97a2.71 2.71 0 0 0 .092-.507c.015-.178.067-.51.116-.739.048-.228.1-.513.115-.633.046-.355.06-.358 1.306-.358.654 0 1.112-.02 1.166-.049.06-.032.09-.095.089-.195-.002-.28.144-1.626.209-1.926.06-.277.058-.308-.02-.415l-.083-.115h-.943c-1.162 0-1.193-.012-1.193-.437 0-.15.043-.518.096-.818.105-.591.18-1.298.148-1.383-.01-.029-.065-.065-.12-.08-.068-.018-1.59-.027-3.107-.028zm-87.013 2.248c-.756 0-1.486.035-1.929.104-.165.026-.59.07-.946.099-.668.053-.892.077-1.869.196-1.252.153-1.416.177-1.661.237-.14.034-.461.097-.715.139-1.01.168-1.223.251-1.223.48 0 .065-.032.285-.071.488-.075.39-.205 1.386-.24 1.837-.034.44.093.491.687.283.186-.066.453-.147.593-.18 1.788-.43 2.01-.453 4.545-.458 1.759-.004 2.209.008 2.377.06.114.037.227.084.251.105a.234.234 0 0 0 .13.038c.049 0 .145.057.215.128.101.101.138.197.178.464.054.369.013.587-.12.626-.043.013-.617.035-1.277.048-1.89.038-2.788.072-3.161.12-.88.11-1.523.183-1.777.201a3.48 3.48 0 0 0-.485.072c-.323.08-1.422.325-1.732.386-.154.03-.337.092-.406.138-.07.046-.255.124-.41.174-.156.05-.419.168-.586.264-.167.097-.334.19-.372.21-.239.118-.785.485-.785.527 0 .019-.114.155-.254.304s-.254.29-.254.315a.706.706 0 0 1-.122.205c-.195.254-.284.996-.199 1.641.048.357.092.496.264.822.113.216.245.435.293.487.048.053.087.111.087.13 0 .09.29.444.363.444.045 0 .123.047.173.104.099.114.85.445 1.287.568a4.572 4.572 0 0 1 .623.222c.106.044 2.841-.009 3.207-.062.917-.132 2.049-.399 2.782-.654.135-.047.282-.086.328-.086.047 0 .165-.054.264-.122.099-.067.273-.155.387-.196.114-.04.282-.13.373-.2.208-.159.405-.201.525-.113.086.064.087.09.03.637-.057.557-.056.57.038.647.088.071.351.078 3.052.082 1.812.003 2.988-.013 3.039-.04.095-.051.15-.297.258-1.156.04-.317.101-.69.136-.83.034-.14.076-.397.092-.572.016-.174.061-.465.1-.646.039-.18.088-.474.11-.652.021-.177.06-.406.086-.507.026-.102.068-.34.093-.53.065-.495.18-1.227.24-1.524.027-.14.06-.326.071-.415.011-.089.05-.338.086-.554.144-.867.163-1.108.117-1.52-.045-.395-.105-.574-.255-.764a5.538 5.538 0 0 1-.219-.32 3.187 3.187 0 0 0-1.188-1.053 7.188 7.188 0 0 1-.556-.29 1.062 1.062 0 0 0-.393-.125 5.444 5.444 0 0 1-.551-.095 21.303 21.303 0 0 0-1.638-.267c-.547-.068-1.33-.102-2.086-.101zm35.1.073c-1.05.006-2.398.103-3.195.245-1.02.181-2.585.882-3.292 1.474-.864.722-1.01.994-1.095 2.028-.064.787.007 1.356.205 1.642.073.105.154.228.18.272.216.365.508.659.896.902.042.025.166.114.278.196.112.082.24.15.284.15.045 0 .182.049.305.11.384.188 1.046.439 1.239.469.37.057.843.16 1.384.302.305.08.658.166.785.19.127.025.39.106.586.18.195.073.39.133.434.133.106 0 .37.206.397.31.06.23-.125.381-.596.49-.656.152-2.582-.136-3.844-.576a9.71 9.71 0 0 0-.695-.22 1.586 1.586 0 0 1-.323-.116c-.248-.128-.744-.313-.902-.337-.114-.017-.179.01-.312.126-.092.081-.168.163-.168.181 0 .018-.124.256-.276.529-.152.272-.309.572-.35.665-.04.094-.143.316-.23.493-.087.178-.17.386-.183.462-.04.211.105.405.376.503.123.044.297.119.386.165.296.154 1.737.596 2.308.707.19.038.564.113.83.168l.808.167c.177.037.593.085.923.108 1.26.087 3.91-.047 5.022-.253a8.04 8.04 0 0 0 1.392-.401c.516-.195 1.055-.452 1.098-.525.02-.034.08-.062.132-.062.055 0 .223-.13.404-.312.17-.172.366-.349.434-.393.068-.045.124-.108.124-.14 0-.033.073-.13.162-.216.088-.087.161-.195.161-.242 0-.046.05-.182.11-.302.208-.413.294-1.12.221-1.812-.04-.373-.073-.489-.223-.765-.328-.604-.886-1.234-1.292-1.46a9.298 9.298 0 0 1-.143-.081c-.085-.05-.94-.461-1.211-.583a6.842 6.842 0 0 1-.241-.114.41.41 0 0 0-.156-.04 1.04 1.04 0 0 1-.289-.11c-.444-.228-1.933-.583-2.446-.583-.073 0-.265-.042-.427-.095a7.986 7.986 0 0 0-.571-.157c-.407-.091-.769-.234-.819-.323-.078-.14.002-.295.208-.401.154-.08.3-.105.68-.12.63-.026 1.706.09 2.262.244.24.067.58.148.754.182.174.033.392.092.484.13.093.038.366.146.607.24a136 136 0 0 1 .67.26c.126.051.326.104.444.118.21.026.214.024.369-.19.085-.118.28-.346.432-.505.287-.3.671-.712 1.05-1.128.12-.132.22-.263.22-.29 0-.134-.175-.316-.41-.43a14.77 14.77 0 0 1-.386-.194 2.07 2.07 0 0 0-.42-.13 1.773 1.773 0 0 1-.483-.181c-.105-.067-.232-.122-.282-.122a.745.745 0 0 1-.213-.046c-.154-.059-1.092-.3-1.335-.344-.199-.036-1.219-.131-2.316-.217-.252-.02-.57-.027-.92-.025zm-13.767.11c-.488 0-.974.028-1.25.082-.378.075-.534.118-1.384.376-.764.231-1.354.475-1.482.612-.05.054-.157.132-.239.174a2.062 2.062 0 0 0-.287.187c-.338.27-.4.321-.532.441-.174.158-.252.16-.35.009-.068-.102-.07-.153-.024-.38.152-.746.165-.886.091-.96-.061-.06-.497-.073-3.354-.097l-3.283-.026-.064.156c-.06.149-.197.942-.307 1.794a5.87 5.87 0 0 1-.094.554c-.024.09-.075.4-.113.692-.07.54-.244 1.698-.374 2.492-.04.241-.092.584-.117.762a16.49 16.49 0 0 1-.087.553c-.08.443-.27 1.71-.3 2.008a1.718 1.718 0 0 1-.068.37c-.02.038-.06.276-.088.53-.029.254-.084.61-.123.793-.064.3-.063.346.002.471l.072.139 3.308-.01 3.31-.008.055-.162c.05-.146.233-1.121.343-1.823a806.011 806.011 0 0 1 .371-2.353 39.33 39.33 0 0 1 .344-1.75c.149-.667.5-1.319.712-1.319a.36.36 0 0 0 .164-.063c.05-.034.237-.14.414-.236.293-.158.373-.179.854-.221l.53-.047.314.147c.283.133.497.303.742.592.139.163.173.453.1.82-.087.424-.258 1.625-.257 1.796 0 .074-.029.24-.065.37-.037.128-.121.597-.187 1.042-.066.444-.142.921-.17 1.06-.027.14-.066.4-.086.578-.06.543-.132 1.007-.18 1.17-.048.164-.005.306.12.399.041.03 1.294.044 3.558.041l3.495-.004.039-.226a4.53 4.53 0 0 1 .102-.437c.034-.115.087-.406.115-.646.03-.24.093-.688.141-.996.048-.308.128-.848.177-1.2.05-.352.111-.753.138-.893.026-.14.102-.628.168-1.084.065-.457.137-.914.16-1.016.061-.279-.074-2.064-.176-2.331a5.347 5.347 0 0 1-.1-.3c-.098-.32-.337-.752-.542-.975a3.598 3.598 0 0 1-.269-.324c-.039-.06-.101-.107-.14-.107-.037 0-.09-.047-.117-.104-.04-.087-.274-.261-.596-.446-.36-.205-1.1-.436-1.869-.583-.285-.054-.776-.082-1.265-.082zm-59.392.522c.024 0 .043.031.043.07 0 .07-.054.091-.106.04-.037-.038.005-.11.063-.11zm47.41.139c.097 0 .134.086.07.163-.083.1-.136.081-.136-.048 0-.07.026-.115.066-.115zm6.187.046c.038 0 .069.02.069.046s-.031.046-.07.046c-.037 0-.068-.02-.068-.046 0-.025.03-.046.069-.046zm-23.618.284c.02 0 .041.004.058.015.027.017.037.05.023.073-.036.057-.147.055-.183-.004-.027-.042.039-.084.102-.084zm99.878 1.747c.024 0 .043.03.043.069 0 .071-.054.091-.106.04-.037-.038.004-.11.063-.11zm-18.989.278c.413.002.811.03 1.082.09.729.163 1.249.536 1.26.904.002.092-.029.192-.073.236-.069.07-.313.077-2.573.08-1.373.002-2.535-.011-2.583-.029a.252.252 0 0 1-.143-.325c.094-.248.628-.585 1.048-.66a1.38 1.38 0 0 0 .312-.1c.251-.128.982-.2 1.67-.196zm-32.856.277c.036.003.065.025.065.065 0 .036-.016.077-.036.09-.06.036-.163-.05-.128-.106a.106.106 0 0 1 .1-.049zm-48.34.275c.027 0 .036.02.02.046-.015.025-.037.046-.048.046-.011 0-.02-.02-.02-.046 0-.025.021-.046.048-.046zm7.878 2.919c.134 0 .23.005.26.016.165.064.215.263.163.65-.105.777-.138.813-.99 1.098-.665.224-.977.31-1.337.374a4.049 4.049 0 0 1-1.362 0c-.336-.063-.495-.145-.538-.28a.952.952 0 0 0-.11-.208.867.867 0 0 1-.113-.306c-.029-.183-.02-.2.216-.438.186-.187.318-.272.545-.353.4-.142 1.264-.358 1.777-.445a12.236 12.236 0 0 1 1.489-.108zm92.627 2.25c.026 0 .047.04.047.092 0 .05-.021.092-.047.092-.025 0-.046-.042-.046-.092 0-.051.02-.092.046-.092zm-12.791 1.224c.029-.004.055.01.057.044.001.026-.032.053-.074.062-.048.01-.07-.007-.057-.046a.09.09 0 0 1 .074-.06zm-52.511.25c.01-.002.02.002.032.014.016.016.02.055.009.087-.016.047-.027.047-.056 0s-.014-.099.015-.101zm-52.603 1.11c.026 0 .046.02.046.046a.046.046 0 0 1-.092 0c0-.025.02-.047.046-.047zm25.435.006c.014.003.03.014.048.031.042.042.042.068 0 .109-.04.041-.06.035-.083-.025-.03-.076-.008-.125.035-.115zm18.843.033c.024 0 .051.022.06.05.01.027-.018.05-.06.05-.042 0-.07-.023-.06-.05.009-.028.036-.05.06-.05zM3.977 116.25l-.097.11c-.073.084-.12.265-.198.774-.055.365-.13.767-.165.894s-.088.46-.118.739c-.07.654-.163 1.249-.226 1.453-.028.089-.05.254-.051.369 0 .114-.053.468-.115.785a6.75 6.75 0 0 0-.115.72c0 .08-.03.233-.069.341-.038.108-.07.282-.07.387-.001.104-.022.273-.047.374-.025.102-.086.455-.135.785-.05.33-.153.972-.23 1.426-.078.454-.141.904-.141 1 0 .097-.023.234-.05.305-.029.072-.1.452-.161.845-.06.394-.151.944-.203 1.224-.157.86-.124 1.063.183 1.097.089.01 28.083.02 62.21.026l62.048.008.089-.098c.09-.098.119-.244.271-1.334.097-.692.247-1.563.303-1.759.024-.085.044-.244.044-.351 0-.108.05-.462.111-.785.121-.64.145-.789.326-1.997.067-.444.141-.91.165-1.038.025-.127.106-.646.182-1.153.076-.508.17-1.037.206-1.177.038-.14.092-.462.12-.716.074-.665.217-1.53.27-1.629a.583.583 0 0 0 .039-.243c-.004-.087.03-.37.077-.63.088-.498.077-.676-.046-.723-.04-.015-28.048-.028-62.24-.029zm.107.186c.117 0 .155.05.094.123-.076.092-.178.075-.178-.03 0-.06.03-.093.084-.093zm124.029.029c.074-.029.133.042.09.11-.04.065-.101.057-.13-.02a.07.07 0 0 1 .04-.09zm-120.17 1.784c.116.012.229.037.337.079.134.05.275.092.315.092.165 0 .753.486.756.625.001.027.026.074.056.104.192.191.357 1.264.233 1.51a.612.612 0 0 1-.12.173c-.07.049-.844 0-.955-.06-.168-.09-.221-.236-.215-.592l.006-.34-.192-.18c-.154-.142-.228-.178-.368-.178-.213 0-.493.208-.542.402a.58.58 0 0 1-.105.21.398.398 0 0 0-.073.23c0 .257.32.987.679 1.55.07.109.14.234.155.276.016.043.093.16.172.262.08.101.193.288.253.415s.164.314.228.416c.289.452.608 1.65.538 2.017-.155.817-.544 1.502-.978 1.722-.098.05-.209.114-.247.145-.038.03-.23.097-.426.15a2.547 2.547 0 0 1-.554.09c-.312-.008-.761-.158-.939-.314-.088-.078-.179-.142-.2-.142-.082 0-.335-.279-.449-.492-.215-.405-.315-1.228-.18-1.489.09-.174.141-.188.674-.188.425 0 .462.008.526.106.042.064.065.194.06.334a1.7 1.7 0 0 0 .051.443c.11.383.59.583.87.363a.425.425 0 0 1 .182-.092c.035 0 .104-.068.155-.15.074-.122.091-.233.092-.594 0-.46-.01-.497-.304-1.138a3.022 3.022 0 0 1-.112-.261c0-.01-.072-.129-.161-.263a1.678 1.678 0 0 1-.162-.279c0-.018-.065-.129-.144-.246-.42-.623-.821-1.496-.95-2.07-.11-.487-.113-.525-.045-.744.039-.127.104-.365.145-.527.215-.845 1.13-1.456 1.938-1.375zm114.481.079c.27 0 .77.134.93.249.191.138.44.409.442.482 0 .034.04.113.09.176.15.19.203.577.17 1.235-.027.538-.041.61-.144.745-.112.147-.12.15-.505.154-.37.004-.398-.003-.51-.123-.112-.118-.118-.144-.083-.403.05-.383.04-.754-.025-.818a.214.214 0 0 1-.055-.126c-.002-.093-.177-.298-.313-.368-.138-.072-.35-.026-.591.129-.28.178-.398.496-.543 1.46-.065.431-.127.867-.138.969a3.153 3.153 0 0 1-.069.37c-.026.1-.08.433-.118.737-.04.305-.114.823-.165 1.151-.122.78-.133 1.294-.032 1.487.123.236.29.339.548.339.307 0 .533-.151.71-.474.108-.198.343-.95.343-1.097 0-.073.05-.19.111-.26.108-.126.127-.13.538-.127.391.003.432.011.515.113a.275.275 0 0 1 .066.228l-.092.473c-.069.358-.141.627-.215.797l-.182.408c-.078.173-.14.33-.14.348 0 .018-.079.11-.174.201-.21.203-.56.383-.973.502-.366.104-.903.114-1.07.018a.53.53 0 0 0-.169-.067c-.175-.005-.938-.553-.938-.673a.704.704 0 0 0-.072-.198c-.149-.3-.17-.68-.066-1.254.053-.292.116-.705.14-.918.025-.212.086-.638.136-.945a168.1 168.1 0 0 0 .463-3.034c.024-.168.098-.416.166-.553.166-.337.428-.734.505-.764.035-.013.076-.064.091-.112s.083-.101.15-.118c.068-.017.186-.069.264-.115.166-.097.733-.224 1.004-.224zm-24.826.092c.429.002.855.068.985.198.018.018.072.033.12.033.055 0 .104.05.135.138.026.076.068.139.092.139.087 0 .323.305.462.6.131.276.14.326.113.623-.016.178-.06.5-.097.715-.036.216-.098.652-.135.969-.246 2.085-.52 3.913-.639 4.268-.086.258-.378.766-.46.8-.02.01-.135.083-.255.164a2.75 2.75 0 0 1-.426.231c-.143.057-.373.089-.738.102-.483.017-.562.009-.877-.102-.52-.183-.78-.396-.995-.812-.097-.188-.113-.28-.112-.67 0-.248.032-.638.07-.866.038-.228.09-.56.115-.738.025-.178.085-.593.135-.922.05-.329.083-.606.073-.615-.01-.01.023-.133.072-.274a1.74 1.74 0 0 0 .087-.47c0-.242.149-1.239.288-1.919.097-.471.203-.743.332-.85.04-.034.073-.089.073-.123 0-.035.057-.1.127-.144a.848.848 0 0 0 .188-.163c.033-.045.096-.081.14-.081.044 0 .1-.018.124-.04.142-.13.574-.193 1.003-.191zm-32.05.01c.428.015.534.035.77.147.27.129.6.429.652.591.014.046.042.083.062.083.147 0 .335 1.104.238 1.398-.072.218-.16.244-.776.226-.39-.012-.473-.094-.473-.465 0-.274-.083-.55-.193-.638-.117-.094-.423-.114-.603-.038-.31.13-.436.568-.332 1.165.041.24.553 1.286.743 1.518.085.104.154.217.154.25 0 .034.03.094.066.134.092.101.429.792.515 1.055.04.12.105.29.146.38.058.124.075.32.077.875.003.64-.007.736-.093.9-.053.102-.146.285-.207.408-.118.236-.501.63-.612.63-.036 0-.091.032-.123.07-.031.038-.153.1-.27.136a9.189 9.189 0 0 0-.399.136c-.445.168-1.192-.012-1.536-.37-.058-.06-.124-.11-.148-.11-.023 0-.115-.125-.205-.278-.125-.214-.18-.381-.236-.727l-.097-.59c-.018-.108.006-.176.1-.288l.123-.147h.473c.579 0 .612.025.647.48.043.567.291.853.683.787.242-.04.542-.33.632-.61.065-.199.042-.394-.101-.888-.043-.147-.491-1.128-.591-1.292a6.645 6.645 0 0 1-.16-.31c-.066-.133-.14-.254-.164-.269-.023-.014-.043-.058-.043-.096s-.06-.157-.132-.263c-.255-.37-.545-1.21-.627-1.816-.027-.193-.01-.305.086-.593.066-.195.12-.373.12-.394 0-.08.306-.49.528-.708.127-.124.361-.287.52-.361.274-.129.315-.135.785-.118zm-51.708.041c.189-.019.381-.015.456.023.143.072.18.15.179.38-.001.198-.158 1.128-.204 1.201-.017.028-.05.232-.075.455-.025.223-.086.634-.135.913-.049.279-.113.694-.143.923-.03.228-.104.65-.164.938-.06.287-.131.713-.157.945-.027.233-.08.569-.12.747a8.52 8.52 0 0 0-.108.623c-.037.296-.085.445-.198.621-.311.485-.456.656-.634.75a2.25 2.25 0 0 0-.25.149c-.03.024-.188.066-.352.092-.598.097-1.238.025-1.433-.162a1.377 1.377 0 0 0-.277-.195c-.302-.152-.596-.783-.595-1.274.001-.213.103-.943.158-1.129.012-.041.044-.281.071-.534.028-.252.079-.545.115-.651.036-.107.097-.471.135-.81.038-.34.09-.68.114-.756a8.51 8.51 0 0 0 .14-.762c.34-2.269.342-2.278.465-2.393.107-.099.147-.107.472-.088.476.027.515.064.477.449-.03.3-.105.85-.227 1.64a210.702 210.702 0 0 1-.56 3.631c-.171 1.076-.15 1.452.099 1.763.123.154.151.167.379.167.342 0 .49-.116.676-.527.159-.352.23-.636.3-1.18.024-.191.085-.575.136-.854.05-.28.093-.601.095-.716.001-.114.024-.29.05-.392.069-.26.12-.55.227-1.292.05-.355.122-.77.158-.923a12.1 12.1 0 0 0 .148-.935c.057-.463.103-.678.154-.725.057-.051.24-.093.429-.112zm2.493.01c.687-.009 1.362.047 1.615.135.21.073.674.475.851.738.197.291.35.883.35 1.34-.002.303-.026.437-.122.664-.221.526-.535.9-.94 1.122-.2.11-.22.134-.213.278.006.115.047.19.15.275.08.065.143.137.143.16 0 .025.04.087.09.14.048.052.154.291.235.532.137.41.144.464.114.853-.029.377-.164.864-.303 1.086a5.964 5.964 0 0 0-.12.208c-.135.247-.622.76-.748.791a.997.997 0 0 0-.291.162c-.147.115-.23.139-.623.177-.25.024-.797.044-1.215.043-1.11 0-1.177-.046-1.044-.719.039-.2.104-.597.145-.883.04-.287.101-.618.135-.738s.075-.374.091-.564c.016-.19.07-.554.12-.808.051-.253.124-.658.162-.9l.115-.714.156-.97c.353-2.206.355-2.213.447-2.307.08-.082.158-.093.7-.1zm4.425.032c.262 0 .374.019.428.072.097.098.093.394-.015 1.016-.048.277-.101.647-.118.822-.016.176-.072.56-.124.854-.094.538-.181 1.127-.36 2.45a29.15 29.15 0 0 1-.19 1.207c-.119.633-.094.804.162 1.078.157.169.223.207.351.206.384-.002.627-.19.769-.598.075-.217.423-2.275.46-2.718a2.79 2.79 0 0 1 .09-.53 1.25 1.25 0 0 0 .063-.34c0-.208.264-1.818.324-1.975.025-.066.046-.248.047-.405.002-.356.137-.929.243-1.035.116-.116.727-.143.886-.039.1.066.115.108.115.348 0 .34-.073.914-.158 1.248-.035.14-.098.503-.14.808-.04.304-.104.74-.14.969a60.51 60.51 0 0 0-.14.922c-.039.28-.102.674-.14.877a4.14 4.14 0 0 0-.066.514c0 .079-.03.225-.064.324a2.797 2.797 0 0 0-.096.525c-.06.66-.21 1.291-.305 1.291-.02 0-.06.072-.09.161-.029.089-.067.162-.084.162s-.135.098-.262.218c-.244.229-.544.369-.923.43-.127.02-.324.04-.438.04-.31.002-.933-.238-1.029-.396a.134.134 0 0 0-.1-.062c-.066 0-.328-.306-.43-.501a1.925 1.925 0 0 1-.105-.439c-.039-.275-.028-.43.068-1.019.062-.381.157-1.005.21-1.386.055-.38.128-.88.163-1.108.035-.228.118-.81.183-1.291.066-.483.14-.991.166-1.131.082-.447.172-.986.203-1.21.042-.3.137-.359.586-.359zm9.735 0c.464 0 .747.02.881.065.11.035.271.08.36.098.312.064 1.015.513 1.015.648 0 .02.067.14.15.268l.15.234v.762c0 .747-.003.768-.127.988-.07.124-.127.248-.127.277 0 .08-.552.675-.626.675-.104 0-.25.173-.25.295 0 .065.058.167.139.243.077.072.214.264.304.427.135.246.172.372.211.735.054.492-.004 1.12-.13 1.421-.105.252-.371.651-.591.886-.243.26-.85.55-1.318.632-.311.055-1.326.07-1.952.03-.329-.02-.348-.092-.224-.85.155-.947.276-1.612.324-1.789.024-.089.058-.318.075-.508.017-.19.084-.647.148-1.015.064-.368.134-.835.156-1.038.04-.368.105-.785.366-2.347.076-.453.138-.844.138-.868 0-.024.055-.094.122-.156.118-.11.144-.113.806-.113zm64.057 0c.393 0 .404.003.466.127.036.07.06.147.052.173a50.248 50.248 0 0 1-.56 1.869c-.037.114-.119.394-.18.623-.142.52-.333 1.202-.389 1.384-.023.076-.073.263-.111.415a16.166 16.166 0 0 1-.453 1.43c-.05.128-.11.346-.13.486-.045.3-.09.466-.142.533-.02.027-.069.183-.107.347-.182.787-.47 1.34-.658 1.268a1.928 1.928 0 0 0-.375-.027c-.537-.002-.51.075-.543-1.522-.015-.748-.032-1.854-.036-2.457-.01-1.124-.024-1.214-.194-1.181-.092.018-.238.419-.368 1.008a19.014 19.014 0 0 1-.463 1.569c-.04.114-.1.332-.135.484a9.818 9.818 0 0 1-.2.696c-.075.23-.153.52-.171.644-.047.311-.18.592-.347.734-.127.106-.181.118-.52.118-.34 0-.39-.011-.504-.117l-.126-.117-.003-1.74c-.004-1.69-.059-3.828-.126-4.894-.038-.6-.087-.68-.379-.634-.088.014-.28.026-.425.026-.26 0-.267.003-.356.179-.05.097-.104.29-.12.426-.018.137-.081.526-.142.864-.06.338-.11.695-.11.793 0 .098-.024.237-.052.308a2.75 2.75 0 0 0-.092.483c-.022.195-.08.558-.13.808s-.124.704-.165 1.008c-.042.305-.137.861-.211 1.237-.074.376-.135.765-.135.867 0 .241-.109.399-.316.456a.94.94 0 0 1-.215.041c-.314-.04-.48-.077-.571-.127-.105-.058-.108-.076-.08-.39.017-.181.071-.526.12-.768.05-.242.113-.647.141-.9.028-.255.081-.608.118-.785.037-.178.089-.479.116-.67.027-.19.079-.532.116-.76.037-.229.107-.74.154-1.137.104-.86.172-1.248.26-1.484.099-.265.085-.435-.039-.477-.15-.05-2.907-.024-2.96.028-.074.074-.257.662-.258.831 0 .09-.042.41-.092.715-.166 1.004-.194.967.73.952.69-.012.698-.011.814.104.135.135.14.2.046.51-.14.46-.1.442-.985.442-.682 0-.785.01-.845.08-.103.122-.167.327-.197.635a11.526 11.526 0 0 1-.197 1.315c-.038.165-.08.385-.091.488-.035.3.005.313.956.317.99.004.979-.002.996.482.019.512.096.487-1.61.504-1.427.014-1.655-.006-1.709-.146a.964.964 0 0 1 .018-.284 432.38 432.38 0 0 0 .569-3.76c.137-.985.36-2.443.419-2.746.125-.64.162-.885.162-1.064 0-.1.04-.246.088-.325.076-.125.119-.146.334-.166.4-.038 7.06-.05 7.251-.013.096.018.192.067.214.108.022.042.051 1.084.065 2.316.025 2.255.043 2.49.195 2.49.03 0 .078-.057.104-.127.047-.125.259-.969.333-1.327.021-.102.063-.247.093-.323.03-.076.103-.315.163-.53.059-.216.162-.57.23-.785.141-.453.16-.518.313-1.108.195-.755.174-.737.847-.738.315 0 .441.018.493.07.077.076.124.41.116.83-.003.152.002 1.07.012 2.04.013 1.326.031 1.777.074 1.82.083.083.142.006.225-.289l.11-.387a514.845 514.845 0 0 1 .553-1.938c.088-.314.178-.608.225-.738.027-.077.084-.264.125-.416.279-1.03.323-1.084.907-1.084zm-68.803.007c.782-.02 1.392.09 1.715.308.119.08.226.146.24.146.04 0 .32.311.455.507.072.104.177.371.24.612.098.377.109.491.086.974-.014.3-.037.565-.051.588a2.205 2.205 0 0 0-.092.296c-.062.238-.432.888-.587 1.032a2.577 2.577 0 0 1-.368.294c-.151.098-.242.386-.176.559.024.065.047.207.05.316.004.109.025.302.046.429.045.277.21 1.395.271 1.845.024.178.058.377.074.441.02.082.002.152-.062.23-.087.108-.117.114-.58.114-.489 0-.49 0-.601-.138-.078-.097-.12-.222-.14-.416l-.075-.761c-.09-.917-.237-1.961-.283-2.019-.026-.031-.122-.056-.214-.055-.338.007-.336.004-.478.809-.072.404-.17 1.035-.22 1.403-.12.884-.122.89-.281 1.043-.121.115-.176.132-.448.14-.616.018-.66-.04-.55-.709.042-.248.089-.584.105-.747a3.32 3.32 0 0 1 .07-.433c.022-.075.073-.388.114-.696.04-.307.101-.673.135-.813.033-.14.086-.43.116-.646.03-.215.076-.496.101-.623.026-.127.064-.376.084-.553.065-.56.229-1.691.25-1.725.01-.018.075-.374.142-.792.093-.576.145-.782.213-.852.079-.081.162-.095.7-.108zm36.856.062c.088-.019.16 0 .238.063.1.082.11.123.105.429a3.585 3.585 0 0 1-.106.707 6.22 6.22 0 0 0-.143.831c-.024.254-.084.67-.132.923-.049.254-.111.607-.139.785-.028.177-.1.644-.163 1.038-.061.393-.126.87-.142 1.06-.017.188-.059.427-.094.531a4.044 4.044 0 0 0-.112.625c-.097.864-.237 1.389-.422 1.573-.127.128-.583.122-.75-.009-.195-.153-.258-.327-.377-1.049-.108-.652-.205-1.109-.304-1.428a2.374 2.374 0 0 1-.068-.39 4.397 4.397 0 0 0-.11-.574 7.768 7.768 0 0 1-.142-.718c-.053-.373-.134-.544-.256-.544-.105 0-.144.146-.177.67-.018.279-.073.735-.123 1.014a60.958 60.958 0 0 0-.344 2.263c-.058.416-.102.587-.176.68-.087.108-.141.126-.475.154-.366.03-.38.028-.5-.093-.09-.09-.117-.152-.095-.226.03-.105.099-.538.254-1.624.118-.825.258-1.702.377-2.376.052-.292.113-.708.136-.923.023-.216.082-.61.132-.877.049-.267.112-.671.141-.9.059-.465.17-1.066.243-1.325.04-.138.082-.183.21-.225.207-.068.78-.03.868.058.036.036.095.21.13.387.036.176.11.518.166.759.055.241.138.625.182.854.085.435.232 1.146.36 1.73.118.541.232.767.336.663.022-.022.063-.28.09-.57.027-.292.07-.604.094-.694.024-.09.095-.505.158-.923.367-2.426.325-2.297.757-2.3.136 0 .304-.013.373-.028zm51.07.01c.296-.007.36.006.415.08.074.102.08.293.018.556-.024.101-.066.35-.093.553-.028.203-.101.68-.163 1.061-.062.381-.133.87-.157 1.085a5.924 5.924 0 0 1-.091.577c-.057.226-.311 1.925-.4 2.665-.035.299-.095.683-.131.854-.037.171-.08.448-.096.615-.028.292-.036.308-.19.38-.218.105-.735.102-.91-.004-.117-.072-.127-.099-.108-.287a25 25 0 0 1 .272-1.662c.052-.266.114-.64.136-.83.021-.19.08-.554.13-.808s.1-.555.11-.67c.01-.113.04-.3.067-.415.027-.114.082-.456.124-.76.173-1.28.416-2.71.48-2.832.067-.123.166-.15.586-.158zm-44.529.01c.201.004.404.031.472.078.101.071.106.097.078.381a6.36 6.36 0 0 1-.117.674c-.047.203-.11.605-.138.893a9.758 9.758 0 0 1-.123.853c-.039.182-.11.647-.159 1.034-.049.386-.118.833-.153.992a5.816 5.816 0 0 0-.096.612c-.017.177-.05.427-.073.554a23.278 23.278 0 0 0-.232 1.59c-.058.54-.075.588-.277.758-.151.127-.363.15-.678.075-.335-.079-.344-.145-.17-1.177.064-.381.135-.828.157-.993.021-.165.09-.611.155-.992.063-.38.13-.827.145-.992a5.46 5.46 0 0 1 .093-.577c.036-.152.098-.525.138-.83.041-.305.105-.741.142-.97.037-.228.09-.568.115-.754.108-.775.179-1.09.258-1.148.062-.045.262-.064.463-.06zm-20.292.002.075.115c.06.09.068.174.042.404-.064.56-.178.642-.857.624-.304-.008-.465.007-.513.046-.078.065-.11.206-.313 1.442-.077.47-.171.989-.21 1.154a2.687 2.687 0 0 0-.068.44c0 .077-.051.44-.114.807a76.147 76.147 0 0 0-.324 2.006c-.19 1.256-.19 1.259-.333 1.384-.114.1-.171.113-.524.114-.338.001-.41-.012-.499-.095-.066-.062-.093-.125-.074-.173.017-.042.1-.554.185-1.138.084-.584.176-1.12.203-1.191.027-.071.05-.217.05-.323 0-.165.071-.639.227-1.508.021-.115.06-.302.088-.416.027-.114.071-.436.097-.715.027-.28.08-.643.118-.808.077-.33.112-.941.058-.996-.019-.019-.269-.03-.555-.024-.478.01-.532.002-.652-.092-.124-.098-.13-.117-.103-.373.016-.148.07-.35.119-.447.075-.146.122-.183.266-.207.097-.016.948-.029 1.893-.03zm6.498 0h.628c.567 0 .638.01.721.093.051.05.095.129.097.173.003.044.012.454.022.911.037 1.78.066 2.915.11 4.223l.066 2.03c.011.368.035.732.052.81a.258.258 0 0 1-.055.244c-.118.145-.705.197-.928.082-.244-.127-.287-.269-.287-.967 0-.798.034-.769-.89-.769-.637 0-.666.004-.765.11-.057.06-.14.231-.185.38-.045.15-.115.344-.154.433-.04.089-.098.259-.128.377a.828.828 0 0 1-.188.34c-.116.112-.173.128-.522.146-.35.018-.402.01-.487-.076-.11-.11-.114-.136-.042-.31a10.5 10.5 0 0 0 .264-.87c.02-.076.07-.211.11-.3.04-.088.112-.285.161-.437.337-1.04.914-2.706.986-2.848a.805.805 0 0 0 .087-.248c0-.094.479-1.563.623-1.911.114-.274.392-1.146.392-1.226 0-.027.07-.125.156-.22zm24.528 0c.312 0 .401.016.458.081.12.138.129.296.038.656a8.57 8.57 0 0 0-.14.717c-.029.203-.094.608-.143.9-.05.292-.121.749-.159 1.015-.037.267-.09.61-.115.761-.025.153-.096.63-.156 1.062-.06.431-.13.837-.156.9-.025.063-.07.333-.1.6-.029.266-.098.752-.151 1.08-.125.758-.17.822-.601.841-.294.014-.308.01-.44-.14a.684.684 0 0 1-.167-.402c-.063-.491-.32-1.742-.424-2.062a1.471 1.471 0 0 1-.065-.369c0-.094-.052-.379-.114-.633a4.11 4.11 0 0 1-.115-.762c-.001-.33-.083-.507-.233-.507-.142 0-.215.218-.25.739-.03.476-.184 1.488-.237 1.575-.015.024-.037.193-.048.376a8.434 8.434 0 0 1-.135.892 5.977 5.977 0 0 0-.113.733c0 .163-.14.463-.252.542-.044.031-.6.03-.768-.002-.098-.018-.24-.275-.205-.368.062-.162.211-1.028.272-1.584.035-.319.085-.62.11-.668.027-.05.062-.266.08-.481.019-.216.084-.694.147-1.062.062-.368.133-.85.158-1.073.025-.222.063-.492.086-.6.084-.41.137-.716.188-1.096.102-.746.224-1.425.273-1.517.06-.112.308-.156.762-.135.306.013.324.02.407.162.047.082.106.269.13.415.023.147.071.403.107.568.036.165.09.424.12.577.106.544.197.973.26 1.22.034.14.062.332.062.43 0 .297.262.713.377.599.068-.068.127-.394.13-.713 0-.145.033-.384.072-.53.038-.148.102-.538.14-.868.039-.33.1-.704.135-.83.035-.128.077-.325.093-.44.045-.32.114-.503.208-.553.047-.025.26-.046.474-.046zm29.137 0c.324 0 .44.017.496.073.106.106.094.151-.138.481a15.05 15.05 0 0 0-.302.446.511.511 0 0 1-.159.171c-.037.015-.067.055-.067.089 0 .034-.064.133-.143.22-.078.088-.174.221-.213.297-.04.076-.1.17-.136.208a4.996 4.996 0 0 0-.287.415 2.95 2.95 0 0 1-.298.41c-.042.034-.076.09-.076.121 0 .032-.034.085-.074.118-.065.055-.202.317-.263.507-.023.071.101.708.198 1.013.028.089.101.41.162.715.157.784.288 1.35.367 1.596.037.116.098.386.136.6.037.214.105.487.15.607.08.213.079.221-.015.346-.106.143-.091.14-.568.117-.455-.022-.622-.137-.668-.46a8.42 8.42 0 0 0-.117-.59 48.297 48.297 0 0 1-.348-1.639c-.13-.668-.214-.86-.355-.806a.199.199 0 0 0-.1.106 2.27 2.27 0 0 1-.16.287c-.17.272-.33.7-.33.888 0 .081-.032.356-.071.61-.04.254-.103.668-.141.922-.097.635-.132.67-.693.67-.404 0-.431-.007-.52-.12a.32.32 0 0 1-.074-.242l.16-1.046c.077-.507.16-1.016.184-1.13.04-.192.084-.486.236-1.593.031-.228.075-.452.098-.496.022-.045.081-.428.131-.851.05-.424.11-.844.134-.934.024-.09.098-.528.165-.972.156-1.032.18-1.091.459-1.133.28-.042.648-.005.745.076.066.055.072.126.046.526a8.644 8.644 0 0 1-.1.831c-.216 1.168-.279 1.663-.213 1.703.074.046.219-.061.304-.223.14-.267.327-.572.402-.657.042-.046.122-.178.18-.292.057-.114.17-.29.252-.392.082-.102.198-.289.259-.416.06-.127.163-.283.226-.348.064-.065.188-.24.277-.388.229-.381.344-.44.862-.44zm6.913 0c.357 0 .408.011.507.11.06.061.124.19.14.289.017.098.058.282.091.41.034.126.096.406.138.622.042.216.096.465.12.554.051.186.187.862.32 1.592.132.722.179.808.342.627.056-.061.092-.223.123-.542.023-.25.084-.662.135-.916.1-.495.155-.825.227-1.338.165-1.179.198-1.293.386-1.359.174-.06.635-.063.79-.004.164.062.195.24.104.583a2.369 2.369 0 0 0-.077.49c0 .11-.05.47-.112.8-.062.328-.136.805-.163 1.06-.028.253-.08.606-.116.784-.036.177-.085.458-.11.623-.025.165-.087.528-.138.807-.05.28-.106.643-.123.808-.017.165-.09.614-.163.998-.073.383-.146.84-.164 1.015-.044.451-.133.52-.675.523-.393.002-.404-.001-.468-.125a1.49 1.49 0 0 1-.098-.381c-.018-.14-.092-.513-.164-.83a12.073 12.073 0 0 1-.163-.831 2.203 2.203 0 0 0-.075-.37c-.038-.102-.307-1.533-.376-2-.047-.326-.224-.412-.325-.157a4.895 4.895 0 0 0-.138.68l-.126.854a9.697 9.697 0 0 1-.113.61 2.61 2.61 0 0 0-.066.444c0 .087-.05.404-.112.706-.06.302-.124.686-.14.854-.026.25-.054.327-.155.42-.196.183-.78.2-.892.028-.046-.071-.024-.318.108-1.192.052-.343.111-.748.132-.9.02-.152.067-.464.104-.693.037-.228.102-.653.144-.945.042-.292.098-.645.124-.785.027-.14.066-.41.087-.6.022-.19.074-.533.116-.761.043-.229.105-.634.14-.9.085-.656.199-1.315.25-1.452.065-.168.187-.21.624-.21zm-14.022.002c.435 0 .887.016 1.031.049.433.1.986.596 1.24 1.11.116.238.12.276.117 1.009-.003.661-.015.797-.102 1.034-.055.15-.1.307-.1.349 0 .041-.073.146-.161.232-.09.086-.162.19-.162.231 0 .097-.28.461-.354.461-.03 0-.087.044-.125.098a.556.556 0 0 1-.174.15c-.14.07-.188.31-.125.625.027.138.055.294.063.347.03.216.126.822.215 1.364.052.318.114.702.137.854.022.152.053.312.066.355.014.045-.016.12-.07.173-.082.082-.153.095-.514.095-.557 0-.669-.07-.712-.45a17.3 17.3 0 0 0-.12-.773 17.9 17.9 0 0 1-.133-.9c-.094-.838-.135-1.035-.236-1.119a.375.375 0 0 0-.202-.08c-.215 0-.292.13-.369.623-.04.254-.122.774-.184 1.157a24.2 24.2 0 0 0-.143 1c-.026.248-.055.328-.156.425-.099.094-.18.122-.398.134-.408.024-.565-.008-.646-.132-.057-.087-.062-.143-.023-.285.027-.097.101-.53.165-.961.065-.432.14-.908.166-1.059.027-.15.067-.43.089-.622.021-.192.08-.589.13-.88.05-.292.105-.676.121-.854.025-.277.119-.84.353-2.123a8.57 8.57 0 0 0 .068-.438c.09-.793.17-1.078.322-1.147.074-.033.491-.05.926-.052zm-29.53.004c1.717-.008 1.766-.006 1.857.086.128.127.132.6.008.832l-.086.161-.617.053c-.34.029-.621.055-.625.058-.049.039-.152.419-.176.651-.018.165-.072.554-.12.864-.05.31-.09.631-.09.712 0 .081-.029.264-.065.405-.037.141-.111.59-.166.995-.055.406-.127.884-.16 1.062-.035.177-.075.47-.091.65a8.2 8.2 0 0 1-.12.76 8.62 8.62 0 0 0-.118.742c-.021.215-.061.346-.132.435-.093.117-.13.127-.466.139-.46.015-.558-.006-.648-.145-.06-.092-.064-.148-.023-.33.098-.43.282-1.548.282-1.714 0-.093.03-.303.07-.468.063-.273.302-1.845.393-2.59.02-.167.082-.55.136-.852.054-.301.11-.704.124-.896.036-.46.016-.477-.64-.51-.603-.033-.647-.062-.643-.421.003-.305.113-.582.25-.633.056-.02.896-.041 1.866-.046zm-21.825.002c.41.002.82.017.929.042.561.13 1.176.621 1.293 1.035.036.127.108.314.16.415.082.157.096.268.095.739 0 .5-.013.581-.126.84-.07.158-.125.334-.125.39 0 .116-.356.73-.423.73-.024 0-.065.063-.091.138-.026.075-.086.148-.132.163a.383.383 0 0 0-.159.14c-.04.063-.106.114-.144.114-.12 0-.17.229-.138.646.017.215.06.496.094.623.035.127.077.397.093.6.016.203.058.566.091.807.136.962.136.955.007 1.084-.105.104-.153.116-.478.116-.251 0-.392-.021-.463-.071-.195-.136-.194-.133-.334-1.682-.073-.813-.223-1.525-.34-1.623-.125-.105-.145-.104-.379.01-.177.086-.197.111-.224.31-.147 1.071-.188 1.334-.279 1.756a5.33 5.33 0 0 0-.092.665c-.028.469-.102.534-.631.55-.604.017-.616-.008-.456-.935.05-.29.113-.723.14-.964.029-.241.081-.545.118-.676.036-.13.066-.316.066-.41 0-.158.073-.661.253-1.752.037-.229.13-.83.207-1.338.362-2.409.358-2.392.533-2.429.113-.024.525-.034.935-.033zm-10.92.039c.387 0 .42.008.526.121a.643.643 0 0 1 .138.288c.014.092.049.25.076.352.088.323.179.774.224 1.108.043.318.126.735.317 1.589.053.24.097.48.097.537 0 .056.042.15.092.21.091.108.094.108.15.017.063-.102.107-.343.288-1.569a28.96 28.96 0 0 1 .213-1.27c.05-.24.108-.585.127-.765.04-.39.14-.57.32-.576.069-.002.209-.009.31-.016.31-.022.484.022.564.144.067.103.067.143 0 .467-.04.195-.105.562-.144.816l-.147.923c-.041.254-.102.649-.135.877a73.49 73.49 0 0 1-.3 1.915c-.122.712-.177 1.08-.205 1.385-.013.14-.055.375-.094.525a5.91 5.91 0 0 0-.117.705c-.033.325-.07.471-.149.582-.152.218-.166.223-.53.208-.317-.014-.34-.023-.468-.175a.723.723 0 0 1-.164-.392c-.016-.127-.09-.521-.165-.877-.074-.355-.156-.77-.183-.923-.026-.152-.1-.557-.165-.9a27.342 27.342 0 0 1-.178-1.052c-.105-.752-.304-.754-.42-.005-.108.683-.204 1.278-.278 1.704-.037.216-.11.724-.16 1.13-.132 1.043-.165 1.182-.321 1.353-.074.08-.173.143-.219.138-.045-.005-.21-.016-.366-.025-.39-.022-.466-.106-.397-.44.028-.132.106-.625.173-1.095.067-.47.151-.946.187-1.058.037-.112.067-.3.067-.42 0-.117.05-.493.11-.833.061-.34.133-.775.16-.965.175-1.228.296-2 .354-2.261.038-.165.096-.5.129-.743.043-.314.091-.486.164-.588.103-.145.106-.146.518-.146zm-3.42.02c.796.019.872.077.81.621-.016.147-.004.557.026.91.03.352.057 1.16.06 1.795.003.634.024 2.005.045 3.047l.04 1.893-.11.124c-.109.121-.117.123-.491.089-.244-.022-.407-.06-.453-.106-.055-.056-.077-.22-.095-.732-.033-.913.01-.867-.84-.886-.652-.014-.683-.01-.827.094-.083.06-.15.15-.15.198 0 .049-.061.249-.136.445-.075.196-.15.438-.168.538a.564.564 0 0 1-.175.311c-.122.112-.18.13-.42.13-.153 0-.32.01-.37.022-.127.028-.287-.06-.317-.171-.013-.051.024-.23.082-.399.057-.168.203-.617.324-.998.12-.38.268-.817.327-.97.06-.151.174-.494.256-.76.082-.267.163-.506.18-.532.017-.025.057-.139.09-.253.031-.114.118-.376.192-.582.074-.205.135-.397.135-.427 0-.03.019-.09.042-.134.045-.085.157-.392.322-.888.321-.96.553-1.663.607-1.84.143-.465.31-.554 1.013-.538zm61.477.878a.651.651 0 0 0-.276.027c-.233.074-.36.198-.54.528-.136.248-.163.36-.252 1.062-.054.431-.129.96-.165 1.176-.036.216-.088.59-.116.831-.027.241-.079.615-.116.83a64.463 64.463 0 0 0-.24 1.528c-.037.286.079.532.313.66.295.163.571.157.831-.015.28-.186.353-.331.435-.878.039-.26.091-.51.116-.557.025-.047.067-.29.093-.538a6.63 6.63 0 0 1 .067-.522c.011-.038.063-.35.114-.692.052-.343.135-.852.185-1.13.152-.84.203-1.519.134-1.786a.694.694 0 0 0-.583-.524zm-87.378.087c.008.008.012.03.012.067 0 .111-.024.129-.072.051-.017-.027-.008-.073.02-.101.019-.02.032-.025.04-.017zm6.687.036c-.219-.014-.4.055-.4.215 0 .052-.037.184-.084.294-.049.114-.098.375-.113.604a6.688 6.688 0 0 1-.109.78l-.08.374.127.11c.149.128.173.13.438.038.301-.105.46-.197.512-.296a.269.269 0 0 1 .131-.115c.046-.014.16-.178.254-.363.15-.294.17-.376.17-.665 0-.383-.035-.5-.215-.696-.155-.17-.412-.266-.631-.28zm85.088.033c-.224.039-.301.17-.354.602-.02.163-.078.495-.128.739-.198.965-.202 1.328-.015 1.47.09.068.06.068.413.01.32-.051.752-.248.752-.341 0-.033.045-.117.099-.185.174-.222.271-.635.269-1.15-.002-.501-.037-.611-.285-.902-.155-.181-.487-.289-.751-.243zm-75.685.009c-.1 0-.195.015-.252.045-.156.084-.276.437-.344 1.012-.035.3-.095.657-.133.793-.038.136-.08.388-.094.56-.022.275-.014.324.072.41.087.087.129.093.424.064a1.7 1.7 0 0 0 .467-.105c.198-.102.44-.303.44-.364a.44.44 0 0 1 .093-.169c.053-.067.135-.318.193-.586.09-.418.095-.498.043-.748-.085-.415-.329-.754-.62-.865a.863.863 0 0 0-.29-.047zm4.689.026c-.192-.004-.296.016-.347.067-.045.045-.097.254-.138.554-.037.265-.088.596-.114.736-.103.555-.112.82-.03.944.085.13.234.152.375.055a.778.778 0 0 1 .215-.093c.068-.016.247-.15.399-.295.314-.303.423-.578.423-1.067 0-.335-.084-.525-.33-.74-.159-.138-.212-.156-.453-.16zm19.778 0c-.417-.057-.457.048-.72 1.91-.118.842-.118.87.01.921.356.143 1.222-.143 1.31-.432a.633.633 0 0 1 .108-.19c.198-.23.31-.83.233-1.265-.075-.424-.132-.55-.284-.63-.072-.037-.132-.085-.132-.106 0-.054-.315-.179-.525-.208zm46.645.036c.1-.038.408.04.431.11.02.061-.045.077-.098.024-.018-.018-.103-.027-.189-.022-.166.012-.264-.065-.144-.112zm24.805.005c.028.014.05.04.05.072 0 .054-.05.055-.133.003-.043-.028-.047-.05-.012-.071a.099.099 0 0 1 .094-.003zm-114.23.034c.014.015.02.096.011.181l-.014.155-.035-.158c-.034-.152-.017-.232.038-.178zm18.155.22c.026 0 .046.02.046.043 0 .024-.02.057-.046.073-.025.016-.046-.004-.046-.044 0-.04.02-.072.046-.072zm.413 0c.024 0 .056.021.072.047.016.025-.004.046-.043.046-.04 0-.073-.021-.073-.046 0-.026.02-.047.044-.047zm24.026 0c.043 0 .066.032.057.077-.022.116-.13.132-.13.02 0-.058.03-.097.073-.097zm-19.678.012c.028.004.06.029.074.072.01.03-.014.055-.055.055a.073.073 0 0 1-.072-.073c0-.041.024-.058.053-.054zm42.099 0c.017-.012.047-.009.076.02.034.034.034.06.003.08a.057.057 0 0 1-.078-.022c-.022-.035-.018-.065 0-.078zm-41.74.013c.026.006.049.023.049.047 0 .012-.033.02-.072.02-.04 0-.06-.02-.043-.046.013-.022.042-.027.067-.021zm34.37.014c.03-.03.056-.02.073.026.015.04.009.082-.014.096-.06.038-.111-.069-.059-.122zm36.886.007c.027 0 .036.021.02.046-.015.026-.037.046-.048.046-.012 0-.021-.02-.021-.046 0-.025.022-.046.049-.046zm-14.65.013c.016.015.02.054.01.086-.017.047-.028.047-.057 0-.038-.063 0-.133.047-.086zm-24.75.123c.007-.024.018-.022.034.003a.433.433 0 0 1 .045.194c0 .068-.02.136-.045.152-.028.017-.046-.057-.046-.193 0-.08.004-.13.011-.155zm43.528.295c.014-.021.03-.016.058 0 .023.015.032.09.02.167-.012.084-.047.14-.087.14-.052 0-.06-.034-.036-.15a.591.591 0 0 1 .045-.157zm-77.943.33c.027 0 .052.182.06.427.015.488-.058.584-.106.139-.037-.34-.018-.565.046-.565zm7.072.037c-.02-.016-.045-.012-.076.007-.063.039-.218.374-.259.558-.03.14-.095.342-.161.506-.02.05-.1.32-.176.6-.077.279-.185.653-.242.83a3.288 3.288 0 0 0-.123.543c-.02.196-.01.223.087.262.135.054.872.061.954.009.103-.065.129-.322.11-1.068-.01-.393-.021-1.04-.025-1.44-.006-.533-.027-.76-.089-.807zm19.7.223c-.084-.002-.158.137-.24.437a8.903 8.903 0 0 1-.245.734c-.08.203-.144.41-.144.459 0 .049-.04.173-.089.276-.115.244-.28.81-.28.963 0 .065.03.149.067.186.048.048.187.068.503.071.53.005.638-.052.636-.341 0-.101-.01-.741-.022-1.423-.018-1.063-.032-1.25-.096-1.315-.031-.03-.06-.046-.09-.047zm22.86.04c.025 0 .045.123.045.277 0 .294-.017.343-.063.173-.044-.165-.033-.45.017-.45zm-59.073.073c.05-.031.097.08.097.228 0 .113-.058.18-.11.13-.044-.046-.035-.33.013-.358zm41.629.227c.025.016.046.204.046.419 0 .33-.011.39-.075.39-.067 0-.073-.048-.047-.382l.03-.418c0-.02.02-.024.046-.009zm-34.057.116c.026 0 .047.02.047.046a.046.046 0 0 1-.047.046.046.046 0 0 1-.046-.046c0-.025.02-.046.046-.046zm3.747.154c.015-.003.034.008.061.03.038.032.069.084.069.116 0 .033-.032.071-.071.086-.083.032-.137-.074-.095-.184.012-.03.022-.046.036-.048zm-14.106.077a.07.07 0 0 1 .069.069.07.07 0 0 1-.07.07.07.07 0 0 1 0-.138zm76.037.213c.007-.014.017-.01.03.011.022.035.03.102.017.15-.034.131-.058.105-.057-.063 0-.05.004-.083.01-.098zm-37.18.02c.039-.027.067.075.067.274 0 .152-.018.277-.04.277-.087 0-.133-.317-.07-.48.015-.04.03-.063.042-.072zm46.27.056c.03.004.063.037.074.095.01.046-.014.077-.057.077-.043 0-.073-.04-.073-.096s.027-.08.057-.076zm-75.09.034c.025 0 .046.02.046.046a.046.046 0 0 1-.047.046.046.046 0 0 1 0-.092zm75.775 0c.027 0 .036.02.02.046-.015.025-.037.046-.048.046-.012 0-.02-.021-.02-.046 0-.026.021-.046.048-.046zm-73.883.161c.026.016.035.05.02.073-.04.064-.067.051-.067-.03 0-.04.021-.059.047-.043zm48.577.877.034.121a.77.77 0 0 1 .02.25c-.021.176-.133.209-.126.037.003-.072.02-.194.039-.27zm-46.645.223c-.108-.014-.164.031-.235.127-.09.122-.267.906-.267 1.19 0 .084-.03.27-.066.414-.12.479-.135.736-.053.862.101.154.368.153.673-.002a1.34 1.34 0 0 1 .275-.115c.066 0 .417-.346.417-.411 0-.03.036-.11.08-.177.065-.098.082-.224.082-.61 0-.43-.014-.515-.122-.74-.067-.14-.17-.279-.23-.309-.283-.142-.445-.215-.554-.23zm-14.021.009c-.244-.002-.254.003-.351.176-.068.12-.118.328-.154.646a9.18 9.18 0 0 1-.126.791c-.163.724-.165.988-.008 1.055.083.036.236.01.61-.103.46-.138.651-.28.8-.596.11-.231.126-.32.126-.725 0-.404-.014-.494-.122-.724-.163-.348-.415-.517-.775-.52zm74.528.042c.07-.043.099.079.068.283-.03.205-.085.262-.133.138-.032-.084.016-.39.065-.42zm-31.372.025c.033.02.05.14.059.39.007.192-.003.349-.023.349-.043 0-.113-.687-.074-.726.014-.015.027-.02.038-.013zm-43.276.231c.04 0 .072.02.072.046s-.02.047-.043.047c-.024 0-.057-.021-.072-.047-.016-.025.004-.046.043-.046zm14.175 0c.062 0 .065.013.018.07-.032.038-.065.069-.075.069-.01 0-.017-.031-.017-.07 0-.038.033-.069.074-.069zm4.633.054c.001-.041.09.098.091.143 0 .019-.032.034-.073.034-.049 0-.065-.025-.047-.073a.455.455 0 0 0 .03-.104zm20.396.039c.026 0 .046.02.046.043 0 .024-.02.056-.046.072-.025.016-.046-.004-.046-.043 0-.04.021-.072.046-.072zm-.645.023c.026.016.035.048.02.072-.04.064-.067.052-.067-.03 0-.039.021-.058.047-.042zm-37.96.13c.017-.017.047-.013.083.022.041.042.042.068 0 .109-.04.041-.06.035-.083-.025-.02-.05-.017-.09 0-.106zm33.3.055c.069 0 .099.19.056.355-.025.094-.143.111-.173.025-.037-.106.048-.38.117-.38zm51.287.058c.022 0 .046.02.052.057.006.038.016.09.022.115a.657.657 0 0 1 .005.141c-.007.118-.112.268-.157.223-.044-.044-.043-.362.001-.406a.128.128 0 0 0 .035-.077c0-.037.02-.054.042-.053zm4.77.168c.025.022.035.077.015.151-.018.068-.056.131-.083.14-.075.025-.104-.157-.04-.246.041-.056.082-.067.107-.045zm-96.897.258c.077 0 .146.241.115.403-.033.175-.094.196-.134.047-.044-.167-.033-.45.019-.45zm23.612.073c.035.01.06.122.06.297 0 .172-.048.259-.11.198-.042-.043-.034-.396.012-.468.013-.021.026-.03.038-.027zm-14.131.495c.038-.013.07.106.067.3a1.46 1.46 0 0 1-.039.352c-.032.084-.037.082-.065-.023-.038-.143-.04-.474-.004-.57.014-.036.028-.055.04-.059zm43.505 0c.008-.007.02.01.041.048.036.06.036.1 0 .136-.038.037-.051.014-.05-.085 0-.06.002-.092.01-.099zm-52.944.057c.025-.015.035.054.024.166-.026.256-.068.288-.068.05 0-.104.02-.201.044-.216zm7.524.114c.026 0 .047.02.047.046a.047.047 0 0 1-.047.046.046.046 0 0 1-.046-.046c0-.026.021-.046.046-.046zm-.893.461c.04 0 .063.033.055.077-.018.093-.11.132-.152.064-.04-.065.011-.14.097-.14zm38.275 0c.027 0 .036.02.02.046-.015.026-.037.047-.048.047-.012 0-.02-.021-.02-.047 0-.025.021-.046.048-.046zm1.197 0c.026 0 .046.02.046.046s-.02.047-.046.047a.046.046 0 0 1-.046-.047c0-.025.021-.046.046-.046zm26.5.013c.029.004.062.037.073.095.009.045-.015.077-.058.077-.043 0-.073-.04-.073-.096 0-.057.027-.08.057-.076zm-49.303.018c.022-.023.049-.016.068.034.014.036-.004.103-.04.15-.06.08-.065.077-.066-.04 0-.068.016-.121.038-.144zm-2.554.008c.024 0 .051.022.06.05.01.027-.018.05-.06.05-.042 0-.07-.023-.06-.05.008-.028.036-.05.06-.05zm27.22.006c.006-.038.016-.017.032.048.022.088.038.327.035.53-.003.203-.033.442-.068.53-.061.16-.062.158-.04-.115.011-.152.024-.463.027-.692.003-.167.007-.263.013-.3zm-50.435.001c.037 0 .08.021.095.047.016.025-.014.046-.066.046-.053 0-.095-.02-.095-.046s.03-.047.066-.047zm103.023 0c.24 0 .301.018.397.113.134.134.138.213.042.86-.067.448-.143.67-.336.972-.042.067-.148.244-.234.392a3.02 3.02 0 0 1-.25.375c-.102.113-.259.135-.346.048-.1-.1-.063-.378.078-.595.073-.112.146-.28.163-.372.027-.154.015-.181-.14-.31l-.17-.14.056-.405c.093-.675.131-.783.304-.865.087-.042.274-.073.436-.073zm15.17.12c.142.027.22.283.157.513a1.655 1.655 0 0 0-.05.366.496.496 0 0 1-.088.3c-.08.098-.132.11-.523.124-.585.021-.608 0-.563-.54.036-.43.114-.671.24-.738.082-.043.644-.06.826-.025zm-72.703.022c.022.011.036.053.028.12-.008.068-.04.132-.072.142-.061.02-.076-.072-.03-.193.023-.059.053-.08.074-.069zm44.283.196c.033-.013.073-.012.088.004.016.015-.012.026-.06.024-.054-.002-.065-.013-.028-.028zm-68.735.154c.037-.042.07.106.084.404.01.246-.001.371-.037.383-.067.023-.13-.478-.085-.681a.274.274 0 0 1 .038-.106zm4.458.016c.027 0 .049.02.049.046 0 .025-.01.046-.02.046-.011 0-.034-.02-.05-.046-.015-.025-.006-.046.021-.046z" style="fill:#2bab00;fill-opacity:1;stroke-width:.174413"/>
</svg>
