<?xml version="1.0" encoding="UTF-8"?>
<svg width="500" height="500" version="1.1" viewBox="0 0 132.29 132.29" xmlns="http://www.w3.org/2000/svg">
 <path d="m66.151 8.4367c-1.6215 0-3.3529 0.35208-5.2919 1.0733-0.30613 0.1155-0.50156 0.40979-0.4901 0.73881l0.99256 34.193c0 2.6605 2.1468 4.8015 4.7841 4.8015s4.7782-2.1469 4.7782-4.7783l1.0041-34.233c0.015302-0.32315-0.17864-0.61743-0.47331-0.72713-1.8296-0.69828-3.6645-1.0618-5.3093-1.0618zm0 115.42c1.6217 0 3.3529-0.35208 5.2919-1.0735 0.30613-0.11535 0.50232-0.40964 0.49086-0.73867l-0.99256-34.193c0-2.6605-2.1469-4.8015-4.7841-4.8015-2.6373 0-4.7783 2.1469-4.7783 4.7783l-1.0042 34.233c-0.0153 0.32315 0.17863 0.61744 0.47331 0.72713 1.8294 0.69828 3.6646 1.0618 5.3093 1.0618zm35.491-13.995c0.2191 0.23651 0.55958 0.30582 0.84829 0.17894 1.7889-0.80227 3.347-1.841 4.507-3.001 1.1484-1.1483 2.1236-2.6199 2.9835-4.4955 0.13282-0.29429 0.061-0.6405-0.1733-0.86549l-43.651-41.158-43.663 41.175c-0.23666 0.21933-0.30612 0.55987-0.17863 0.84833 0.80209 1.7892 1.8409 3.3472 3.0008 4.5072 1.1484 1.1483 2.6199 2.1236 4.4956 2.9835 0.2939 0.13269 0.64049 0.0634 0.86569-0.17305l35.474-37.598 35.485 37.609zm-71.502-87.579c-0.09847 0-0.2023 0.0229-0.29467 0.06336-1.7892 0.80227-3.3473 1.8411-4.5072 3.0008-1.1483 1.1485-2.1236 2.6201-2.9835 4.4957-0.13283 0.29429-0.06103 0.64049 0.1733 0.86549l24.884 23.476c1.8813 1.8813 4.911 1.8813 6.7751 0.01759 1.8638-1.8641 1.8638-4.8997 0-6.7636l-23.499-24.919c-0.14962-0.15573-0.35192-0.24238-0.55422-0.24238zm72.003 0c-0.20764 0-0.40994 0.08076-0.55346 0.24238l-23.476 24.884c-0.9176 0.9176-1.4139 2.118-1.4139 3.3992 0 1.281 0.4962 2.4757 1.4024 3.3816 0.90027 0.90044 2.1006 1.4024 3.3818 1.4024 1.2812 0 2.4757-0.49628 3.3819-1.4024l24.918-23.499c0.23666-0.21932 0.30537-0.55987 0.17865-0.84832-0.80226-1.7892-1.8411-3.3472-3.0008-4.5072-1.1485-1.1483-2.6201-2.1236-4.4957-2.9835-0.0977-0.04656-0.20765-0.06947-0.31147-0.06947zm-91.936 38.094c-0.31147 0-0.59469 0.19047-0.70386 0.47323-0.69851 1.8293-1.0618 3.6646-1.0618 5.3093 0 1.6445 0.35193 3.3529 1.0733 5.2919 0.11527 0.30582 0.40994 0.50194 0.73897 0.49041l34.193-0.99254c2.6605 0 4.8015-2.1469 4.8015-4.7841 0-2.6373-2.1468-4.7783-4.7782-4.7783l-34.233-1.0041h-0.02286zm111.86-0.01759h-0.0229l-34.198 0.99274c-2.6603 0-4.8013 2.1467-4.8013 4.7839 0 2.6373 2.1467 4.7783 4.7783 4.7783l34.233 1.0043c0.32293 0.0053 0.6176-0.17894 0.72752-0.47323 0.69851-1.8293 1.0618-3.6646 1.0618-5.3093 0-1.6447-0.35193-3.3529-1.0733-5.2919-0.10992-0.29429-0.39238-0.49041-0.71529-0.49041z" fill="#fff" style="fill:#4e446d;stroke-width:2.0198"/>
</svg>
