<?xml version="1.0" encoding="UTF-8" standalone="no"?>
<svg
   width="350"
   height="80"
   viewBox="0 0 350 80"
   fill="none"
   version="1.1"
   id="svg16"
   sodipodi:docname="treatmentatlas-banner.svg"
   inkscape:version="1.4 (86a8ad7, 2024-10-11)"
   xmlns:inkscape="http://www.inkscape.org/namespaces/inkscape"
   xmlns:sodipodi="http://sodipodi.sourceforge.net/DTD/sodipodi-0.dtd"
   xmlns="http://www.w3.org/2000/svg"
   xmlns:svg="http://www.w3.org/2000/svg">
  <defs
     id="defs16" />
  <sodipodi:namedview
     id="namedview16"
     pagecolor="#ffffff"
     bordercolor="#111111"
     borderopacity="1"
     inkscape:showpageshadow="0"
     inkscape:pageopacity="0"
     inkscape:pagecheckerboard="1"
     inkscape:deskcolor="#d1d1d1"
     inkscape:zoom="2.6314286"
     inkscape:cx="17.290988"
     inkscape:cy="-11.400651"
     inkscape:window-width="1920"
     inkscape:window-height="1115"
     inkscape:window-x="-9"
     inkscape:window-y="-9"
     inkscape:window-maximized="1"
     inkscape:current-layer="svg16" />
  <path
     id="path1"
     d="M 40 11.427734 C 39.1972 11.427734 38.340859 11.603837 37.380859 11.960938 C 37.229459 12.018137 37.131019 12.163272 37.136719 12.326172 L 37.628906 29.253906 C 37.628906 30.571106 38.692347 31.630859 39.998047 31.630859 C 41.303747 31.630859 42.363281 30.568425 42.363281 29.265625 L 42.859375 12.316406 C 42.865175 12.156406 42.7707 12.011331 42.625 11.957031 C 41.7192 11.611331 40.812347 11.431641 39.998047 11.431641 L 40 11.427734 z M 91.492188 12.59375 C 85.240688 12.59375 81.765625 16.111028 81.765625 20.173828 C 81.765625 25.905328 87.397122 26.923603 91.419922 27.720703 C 94.017122 28.263603 95.587891 28.808347 95.587891 30.185547 C 95.587891 31.348347 94.270481 32.253906 92.113281 32.253906 C 88.784681 32.253906 86.080472 30.8025 84.326172 29.0625 L 80.998047 33.740234 C 83.446547 36.063034 86.883212 37.585938 91.820312 37.585938 C 98.366013 37.585938 101.98633 34.358047 101.98633 29.498047 C 101.98633 24.020947 96.42915 22.859691 92.40625 22.025391 C 89.70055 21.519691 88.199219 21.083053 88.199219 19.814453 C 88.199219 18.763053 88.930791 17.927734 91.087891 17.927734 C 93.244991 17.927734 95.914291 18.763041 97.962891 20.431641 L 101.40039 15.96875 C 98.805991 13.75445 95.403588 12.59375 91.492188 12.59375 z M 286.88281 12.597656 C 283.22581 12.597656 280.55664 15.026572 280.55664 18.763672 L 280.55664 19.634766 L 277.63086 19.634766 L 277.63086 24.494141 L 280.55664 24.494141 L 280.55664 37.154297 L 286.1875 37.154297 L 286.1875 24.494141 L 289.77148 24.494141 L 289.77148 19.634766 L 286.1875 19.634766 L 286.1875 18.908203 C 286.1875 17.565403 286.95495 16.839844 288.12695 16.839844 C 288.63795 16.839844 289.14789 16.948825 289.58789 17.203125 L 290.61133 13.394531 C 289.73433 12.923131 288.41981 12.597656 286.88281 12.597656 z M 104.43359 12.957031 L 104.43359 37.154297 L 110.06641 37.154297 L 110.06641 25.837891 C 110.72341 25.037891 111.8208 24.130859 113.4668 24.130859 C 115.2578 24.130859 116.39062 24.820937 116.39062 26.960938 L 116.39062 37.152344 L 122.02344 37.152344 L 122.02344 24.673828 C 122.02344 21.445328 120.19487 19.197266 116.17188 19.197266 C 113.21187 19.197266 111.12641 20.537184 110.06641 21.771484 L 110.06641 12.957031 L 104.43359 12.957031 z M 148.16602 14.847656 L 148.16602 19.636719 L 145.24023 19.636719 L 145.24023 24.498047 L 148.16602 24.498047 L 148.16602 32.439453 C 148.16602 35.813653 150.10255 37.591797 153.68555 37.591797 C 155.76855 37.591797 157.15952 37.083041 157.85352 36.431641 L 156.75781 32.222656 C 156.57481 32.439856 155.95008 32.65625 155.33008 32.65625 C 154.34208 32.65625 153.75977 31.895059 153.75977 30.880859 L 153.75977 24.498047 L 160.23047 24.498047 L 160.23047 32.439453 C 160.23047 35.813653 162.16895 37.591797 165.75195 37.591797 C 167.83495 37.591797 169.22592 37.083041 169.91992 36.431641 L 168.82227 32.222656 C 168.63927 32.439856 168.01648 32.65625 167.39648 32.65625 C 166.40848 32.65625 165.82617 31.895059 165.82617 30.880859 L 165.82617 24.498047 L 169.4082 24.498047 L 169.4082 19.636719 L 165.82617 19.636719 L 165.82617 14.847656 L 160.23047 14.847656 L 160.23047 19.636719 L 153.75977 19.636719 L 153.75977 14.847656 L 148.16602 14.847656 z M 22.167969 18.279297 L 22.171875 18.283203 C 22.123275 18.283203 22.071091 18.294453 22.025391 18.314453 C 21.139591 18.711653 20.369222 19.226581 19.794922 19.800781 C 19.226422 20.369381 18.742106 21.096791 18.316406 22.025391 C 18.250706 22.171091 18.285244 22.343678 18.402344 22.455078 L 30.722656 34.078125 C 31.654056 35.009525 33.155225 35.008737 34.078125 34.085938 C 35.000925 33.163037 35.000925 31.659128 34.078125 30.736328 L 22.443359 18.400391 C 22.369059 18.323291 22.267969 18.279297 22.167969 18.279297 z M 57.820312 18.283203 C 57.717513 18.283203 57.618275 18.322344 57.546875 18.402344 L 45.923828 30.722656 C 45.469528 31.176956 45.222656 31.77195 45.222656 32.40625 C 45.222656 33.04045 45.469369 33.631578 45.917969 34.080078 C 46.363669 34.525878 46.957497 34.773438 47.591797 34.773438 C 48.226097 34.773438 48.817025 34.528678 49.265625 34.080078 L 61.603516 22.445312 C 61.720616 22.336712 61.754206 22.168191 61.691406 22.025391 C 61.294206 21.139591 60.779278 20.369222 60.205078 19.794922 C 59.636478 19.226422 58.909069 18.742106 57.980469 18.316406 C 57.931969 18.293506 57.877572 18.283203 57.826172 18.283203 L 57.820312 18.283203 z M 132.40625 19.197266 C 127.98025 19.197266 124.58008 22.4265 124.58008 28.375 C 124.58008 34.3236 128.05425 37.587891 132.40625 37.587891 C 134.38025 37.587891 136.17177 36.791647 137.63477 35.123047 L 137.63477 37.152344 L 143.22852 37.152344 L 143.22852 19.630859 L 137.63477 19.630859 L 137.63477 21.699219 C 136.24677 19.959219 134.34325 19.197266 132.40625 19.197266 z M 201.94531 19.197266 C 199.82531 19.197266 197.59678 20.431403 196.42578 21.845703 L 196.42578 19.634766 L 190.79492 19.634766 L 190.79492 37.154297 L 196.42578 37.154297 L 196.42578 26.054688 C 197.15678 25.040488 199.09364 24.421875 200.55664 24.421875 C 201.13964 24.421875 201.61631 24.494916 201.94531 24.603516 L 201.94531 19.197266 z M 235.76562 19.197266 C 233.64562 19.197266 231.41709 20.431403 230.24609 21.845703 L 230.24609 19.634766 L 224.61328 19.634766 L 224.61328 37.154297 L 230.24609 37.154297 L 230.24609 26.054688 C 230.97709 25.040488 232.91395 24.421875 234.37695 24.421875 C 234.95995 24.421875 235.43663 24.494916 235.76562 24.603516 L 235.76562 19.197266 z M 180.08203 19.199219 C 174.56203 19.199219 170.68555 23.299853 170.68555 28.376953 C 170.68555 34.071253 174.89084 37.591797 180.33984 37.591797 C 183.04584 37.591797 185.97156 36.827578 187.72656 35.267578 L 185.34766 31.785156 C 184.36266 32.656556 182.6052 33.273438 181.0332 33.273438 C 178.4022 33.273438 176.86611 31.785797 176.53711 30.154297 L 189.11328 30.154297 L 189.11328 28.957031 C 189.11328 23.008431 185.31003 19.199219 180.08203 19.199219 z M 215 19.199219 C 212.988 19.199219 211.16048 19.997416 209.77148 21.666016 L 209.77148 19.634766 L 204.14062 19.634766 L 204.14062 43.828125 L 204.14062 43.832031 L 209.77148 43.832031 L 209.77148 35.087891 C 211.23448 36.827891 213.026 37.591797 215 37.591797 C 219.423 37.591797 222.75195 34.288353 222.75195 28.376953 C 222.75195 22.465553 219.426 19.199219 215 19.199219 z M 246.4082 19.199219 C 240.4112 19.199219 236.79102 23.442653 236.79102 28.376953 C 236.79102 33.311253 240.3372 37.591797 246.4082 37.591797 C 252.4802 37.591797 256.0625 33.311253 256.0625 28.376953 C 256.0625 23.442653 252.4062 19.199219 246.4082 19.199219 z M 267.10352 19.199219 C 261.10652 19.199219 257.48633 23.442653 257.48633 28.376953 C 257.48633 33.311253 261.03152 37.591797 267.10352 37.591797 C 273.17452 37.591797 276.75781 33.311253 276.75781 28.376953 C 276.75781 23.442653 273.10052 19.199219 267.10352 19.199219 z M 180.08203 23.513672 C 182.67903 23.513672 183.59423 25.291091 183.74023 26.525391 L 176.46289 26.525391 C 176.68289 25.253891 177.63303 23.513672 180.08203 23.513672 z M 213.13477 24.130859 L 213.13477 24.134766 C 215.32877 24.134766 217.01172 25.728353 217.01172 28.376953 C 217.01172 31.025553 215.32877 32.65625 213.13477 32.65625 C 211.92877 32.65625 210.46648 31.966347 209.77148 31.060547 L 209.77148 25.728516 C 210.46648 24.782816 211.92877 24.130859 213.13477 24.130859 z M 246.40625 24.134766 C 248.89425 24.134766 250.2832 26.054053 250.2832 28.376953 C 250.2832 30.734053 248.85425 32.65625 246.40625 32.65625 C 243.95725 32.65625 242.60352 30.696953 242.60352 28.376953 C 242.60352 26.056953 243.91725 24.134766 246.40625 24.134766 z M 267.09961 24.134766 C 269.58761 24.134766 270.97656 26.054053 270.97656 28.376953 C 270.97656 30.734053 269.54761 32.65625 267.09961 32.65625 C 264.65061 32.65625 263.29688 30.696953 263.29688 28.376953 C 263.29688 26.056953 264.61061 24.134766 267.09961 24.134766 z M 134.23438 24.167969 C 135.44038 24.167969 136.90377 24.785716 137.63477 25.728516 L 137.63477 31.060547 C 136.90377 32.003447 135.44037 32.65625 134.23438 32.65625 C 132.00338 32.65625 130.35742 30.988353 130.35742 28.376953 C 130.35742 25.765553 132.00337 24.167969 134.23438 24.167969 z M 67.679688 37.130859 L 67.685547 37.134766 L 67.673828 37.134766 L 50.742188 37.625 C 49.425087 37.625 48.365234 38.688441 48.365234 39.994141 C 48.365234 41.299841 49.429522 42.359375 50.732422 42.359375 L 67.679688 42.857422 C 67.839688 42.860222 67.986816 42.768747 68.041016 42.623047 C 68.386716 41.717347 68.566406 40.808441 68.566406 39.994141 C 68.566406 39.179841 68.392356 38.335 68.035156 37.375 C 67.980856 37.2293 67.839688 37.130859 67.679688 37.130859 z M 12.302734 37.142578 C 12.148434 37.142578 12.009378 37.236953 11.955078 37.376953 C 11.609378 38.282653 11.427734 39.191559 11.427734 40.005859 C 11.427734 40.820059 11.603837 41.665 11.960938 42.625 C 12.018137 42.7764 12.163272 42.874841 12.326172 42.869141 L 29.253906 42.376953 C 30.571106 42.376953 31.630859 41.313513 31.630859 40.007812 C 31.630859 38.702113 30.568425 37.642578 29.265625 37.642578 L 12.316406 37.146484 L 12.306641 37.146484 L 12.302734 37.142578 z M 40.003906 37.214844 L 18.386719 57.599609 C 18.269519 57.708209 18.233975 57.876731 18.296875 58.019531 C 18.693975 58.905331 19.208903 59.677653 19.783203 60.251953 C 20.351803 60.820453 21.079212 61.302816 22.007812 61.728516 C 22.153512 61.794216 22.3261 61.759678 22.4375 61.642578 L 40 43.029297 L 57.568359 61.648438 L 57.572266 61.642578 C 57.680766 61.759678 57.849288 61.795222 57.992188 61.732422 C 58.877887 61.335222 59.648356 60.820394 60.222656 60.246094 C 60.791256 59.677594 61.273519 58.948131 61.699219 58.019531 C 61.765019 57.873831 61.732434 57.703197 61.615234 57.591797 L 40.003906 37.214844 z M 81.345703 43.433594 L 81.345703 48.900391 L 88.15625 48.900391 L 88.15625 67.734375 L 94.423828 67.734375 L 94.423828 48.900391 L 101.19922 48.900391 L 101.19922 43.433594 L 81.345703 43.433594 z M 265.4668 43.433594 L 256.32227 67.734375 L 263.13477 67.734375 L 264.37305 64.054688 L 274.46289 64.054688 L 275.70312 67.734375 L 282.51367 67.734375 L 273.33398 43.433594 L 265.4668 43.433594 z M 294.75977 43.433594 L 294.75977 67.734375 L 300.37109 67.734375 L 300.37109 43.433594 L 294.75977 43.433594 z M 155.30078 45.328125 L 155.30078 50.136719 L 152.38672 50.136719 L 152.38672 55.019531 L 155.30078 55.019531 L 155.30078 62.996094 C 155.30078 66.384694 157.22978 68.171875 160.80078 68.171875 C 162.87778 68.171875 164.26212 67.662959 164.95312 67.005859 L 163.85938 62.779297 C 163.67937 62.996397 163.05945 63.216797 162.43945 63.216797 C 161.45645 63.216797 160.87305 62.451641 160.87305 61.431641 L 160.87305 55.019531 L 164.44531 55.019531 L 164.44531 50.136719 L 160.87305 50.136719 L 160.87305 45.328125 L 155.30078 45.328125 z M 238.94531 45.328125 L 238.94531 50.136719 L 236.03125 50.136719 L 236.03125 55.019531 L 238.94531 55.019531 L 238.94531 62.996094 C 238.94531 66.384694 240.87331 68.171875 244.44531 68.171875 C 246.52231 68.171875 247.90761 67.662959 248.59961 67.005859 L 247.50586 62.779297 C 247.32586 62.996397 246.70594 63.216797 246.08594 63.216797 C 245.10294 63.216797 244.51953 62.451641 244.51953 61.431641 L 244.51953 55.019531 L 248.0918 55.019531 L 248.0918 50.136719 L 244.51953 50.136719 L 244.51953 45.328125 L 238.94531 45.328125 z M 283.53711 45.328125 L 283.53711 50.136719 L 280.62305 50.136719 L 280.62305 55.019531 L 283.53711 55.019531 L 283.53711 62.996094 C 283.53711 66.384694 285.46611 68.171875 289.03711 68.171875 C 291.11411 68.171875 292.49941 67.662959 293.19141 67.005859 L 292.09766 62.779297 C 291.91766 62.996397 291.29773 63.216797 290.67773 63.216797 C 289.69473 63.216797 289.11133 62.451641 289.11133 61.431641 L 289.11133 55.019531 L 292.68359 55.019531 L 292.68359 50.136719 L 289.11133 50.136719 L 289.11133 45.328125 L 283.53711 45.328125 z M 40.003906 48.369141 C 38.698206 48.369141 37.636719 49.431575 37.636719 50.734375 L 37.140625 67.683594 C 37.134925 67.843594 37.2293 67.988669 37.375 68.042969 C 38.2807 68.388669 39.189606 68.568359 40.003906 68.568359 L 40 68.572266 C 40.8029 68.572266 41.659141 68.398216 42.619141 68.041016 C 42.770641 67.983916 42.868981 67.836728 42.863281 67.673828 L 42.371094 50.746094 C 42.371094 49.428894 41.309606 48.369141 40.003906 48.369141 z M 269.40039 48.900391 L 272.82617 58.771484 L 266.01367 58.771484 L 266.01172 58.771484 L 269.40039 48.900391 z M 177.92383 49.693359 C 175.15483 49.693359 172.89686 51.259297 172.13086 52.279297 L 172.13086 50.130859 L 166.51953 50.130859 L 166.51953 67.728516 L 172.13086 67.728516 L 172.13086 56.363281 C 172.71386 55.634781 173.77062 54.650391 175.26562 54.650391 C 176.97663 54.650391 177.59766 55.670931 177.59766 57.019531 L 177.59766 67.730469 L 183.20898 67.730469 L 183.20898 56.365234 C 183.75398 55.636634 184.84595 54.654297 186.37695 54.654297 C 188.05095 54.654297 188.70898 55.672984 188.70898 57.021484 L 188.70508 57.017578 L 188.70508 67.728516 L 194.2793 67.728516 L 194.2793 54.976562 C 194.2793 51.370863 192.23909 49.693359 188.99609 49.693359 C 186.22809 49.693359 183.93406 51.296725 182.91406 52.828125 C 182.18606 50.751025 180.43783 49.693359 177.92383 49.693359 z M 112.27344 49.699219 C 110.16244 49.699219 107.93944 50.939375 106.77344 52.359375 L 106.77344 50.136719 L 101.16211 50.136719 L 101.16016 50.136719 L 101.16016 67.734375 L 106.77148 67.734375 L 106.77148 56.585938 C 107.49948 55.565937 109.43167 54.945312 110.88867 54.945312 C 111.47167 54.945313 111.94544 55.020306 112.27344 55.128906 L 112.27344 49.699219 z M 122.29492 49.699219 C 116.79492 49.699219 112.93164 53.816016 112.93164 58.916016 C 112.93164 64.636016 117.11983 68.171875 122.54883 68.171875 C 125.24583 68.171875 128.1592 67.405544 129.9082 65.839844 L 127.53906 62.341797 C 126.55406 63.216097 124.80623 63.835938 123.24023 63.835938 C 120.61723 63.835937 119.08877 62.343125 118.75977 60.703125 L 131.29297 60.703125 L 131.29297 59.5 C 131.29297 53.5257 127.50392 49.699219 122.29492 49.699219 z M 139.96289 49.699219 C 135.55389 49.699219 132.16602 52.941716 132.16602 58.916016 C 132.16602 64.890216 135.62789 68.171875 139.96289 68.171875 C 141.92789 68.171875 143.71488 67.370459 145.17188 65.693359 L 145.17188 67.734375 L 150.74609 67.734375 L 150.74609 50.136719 L 145.17188 50.136719 L 145.17188 52.214844 C 143.78888 50.466244 141.89389 49.699219 139.96289 49.699219 z M 205.86523 49.699219 C 200.36523 49.699219 196.50391 53.816016 196.50391 58.916016 C 196.50391 64.636016 200.69014 68.171875 206.11914 68.171875 C 208.81614 68.171875 211.73147 67.405544 213.48047 65.839844 L 211.11133 62.341797 C 210.12633 63.216097 208.3775 63.835938 206.8125 63.835938 C 204.1895 63.835937 202.65908 62.343125 202.33008 60.703125 L 214.86328 60.703125 L 214.86328 59.5 C 214.86328 53.5257 211.07323 49.699219 205.86523 49.699219 z M 228.59766 49.699219 C 225.64966 49.699219 223.57067 51.045156 222.51367 52.285156 L 222.51367 50.136719 L 216.90234 50.136719 L 216.90234 67.734375 L 222.51367 67.734375 L 222.51367 56.369141 C 223.17067 55.569141 224.19045 54.65625 225.93945 54.65625 C 227.68845 54.65625 228.81641 55.421813 228.81641 57.570312 L 228.81445 57.570312 L 228.81445 67.734375 L 234.42578 67.734375 L 234.42578 55.273438 C 234.42578 52.030537 232.60666 49.699219 228.59766 49.699219 z M 310.35156 49.699219 C 305.94356 49.699219 302.55469 52.941716 302.55469 58.916016 C 302.55469 64.890216 306.01756 68.171875 310.35156 68.171875 C 312.31756 68.171875 314.10355 67.370459 315.56055 65.693359 L 315.56055 67.734375 L 321.13477 67.734375 L 321.13477 50.136719 L 315.56055 50.136719 L 315.56055 52.214844 C 314.17755 50.466244 312.28356 49.699219 310.35156 49.699219 z M 331.22461 49.699219 C 326.34461 49.699219 323.68555 52.393134 323.68555 55.490234 C 323.68555 59.973134 327.91139 60.592016 330.90039 61.103516 C 332.72039 61.394916 333.92383 61.723366 333.92383 62.634766 C 333.92383 63.400466 333.23169 63.945312 331.55469 63.945312 C 329.47769 63.945312 326.67037 62.778981 325.35938 61.613281 L 323.02734 65.474609 C 324.88734 67.114609 328.12867 68.171875 331.26367 68.171875 C 336.32567 68.171875 339.27734 65.693197 339.27734 62.341797 C 339.27734 57.678897 334.8347 56.950853 331.8457 56.439453 C 329.9887 56.113753 329.03906 55.785231 329.03906 55.019531 C 329.03906 54.253831 329.95167 53.816406 331.26367 53.816406 C 333.37767 53.816406 335.3805 54.728047 336.4375 55.748047 L 338.58594 52.03125 C 336.69194 50.64845 334.17661 49.699219 331.22461 49.699219 z M 122.29492 54.037109 C 124.88092 54.037109 125.7925 55.820547 125.9375 57.060547 L 118.68945 57.060547 C 118.90645 55.786247 119.85492 54.037109 122.29492 54.037109 z M 205.86523 54.037109 C 208.45123 54.037109 209.36377 55.820547 209.50977 57.060547 L 202.25977 57.060547 C 202.47677 55.786247 203.42523 54.037109 205.86523 54.037109 z M 141.7832 54.693359 C 142.9862 54.693359 144.44388 55.311166 145.17188 56.259766 L 145.17188 56.261719 L 145.17188 61.617188 C 144.44387 62.562887 142.9862 63.21875 141.7832 63.21875 C 139.5602 63.21875 137.91992 61.542822 137.91992 58.919922 C 137.91992 56.297122 139.5602 54.693359 141.7832 54.693359 z M 312.17188 54.693359 C 313.37488 54.693359 314.83155 55.311166 315.56055 56.259766 L 315.56055 56.261719 L 315.56055 61.617188 C 314.83155 62.562887 313.37488 63.21875 312.17188 63.21875 C 309.94888 63.21875 308.30859 61.542822 308.30859 58.919922 C 308.30859 56.297122 309.94887 54.693359 312.17188 54.693359 z "
     style="fill:#4e446d;fill-opacity:1" />
</svg>
