<svg xmlns="http://www.w3.org/2000/svg" width="500" height="500" viewBox="0 0 132.29 132.29">
  <path d="M48.23 139.69c-6.5 0-12.04 1.1-18 3.56a46.8 46.8 0 0 0-24.32 23.83c-.83 1.85-2.5 6.55-2.38 6.65.03.03 7.99 2.61 17.68 5.75s17.73 5.7 17.86 5.72.24-.04.24-.1c0-.08-19.6-25.34-22.94-29.55l-.66-.84.74.55c.42.3 7.2 5.58 15.09 11.72s14.45 11.21 14.6 11.26c.18.08.15-.16-.12-1a3385 3385 0 0 1-11.3-35.26c.03-.04 4.62 7.2 10.19 16.08a753 753 0 0 0 10.2 16.06c.1-.09 1.37-33.73 1.29-33.81-.23-.23-5.37-.62-8.17-.62m9.7.94q-.05 0-.06.02c-.03.03 1.5 7.39 3.42 16.34s3.53 16.28 3.6 16.28.16-.1.21-.24l5.08-12.53 5-12.3-.43-.34c-2.06-1.67-7.89-4.6-11.57-5.8-2.37-.79-4.85-1.45-5.25-1.43m19.92 9.72q-.13 0-.12.2c0 .21-3.25 23.91-3.42 24.92-.04.23 0 .4.08.37s3.1-3.31 6.69-7.3l6.54-7.25-.32-.54c-1.38-2.34-5.27-6.92-7.68-9.04-1.08-.96-1.57-1.35-1.77-1.36m12.48 16.13c-.18.03-7.93 14.52-7.93 14.83q0 .16.07.17c.08 0 10.99-5.78 11.08-5.88.3-.3-2.83-9.17-3.22-9.12m-86.8 7.72c-.18 0-.65 1.94-1.05 4.3a52 52 0 0 0-.58 9.41c.12 2.15.56 6.08.78 6.95.1.38.22.42 1.25.42 2.09 0 31.14-1.12 31.22-1.2.1-.1.94.44-16.69-10.61a963 963 0 0 0-14.93-9.27m91.65 10.4-4.1 3.3c-2.27 1.83-4.14 3.39-4.17 3.48s-.02.17.03.17c.26 0 8.23-1.33 8.28-1.38.03-.03.04-1.3 0-2.82zM3.34 197.23c-.14.15.59 2.75 1.4 4.96a57 57 0 0 0 4.72 9.36 8 8 0 0 0 1.44 1.82c.22 0 23.02-9.2 23.43-9.45.1-.07-6.8-1.62-15.35-3.46a559 559 0 0 0-15.64-3.23m33.33 15.98-.18.03c-.25.06-5.48.8-11.64 1.64s-11.27 1.6-11.36 1.69c-.41.36 5 5.33 8.32 7.65.85.6 1.63 1.08 1.74 1.08.22.01 13.2-11.66 13.3-11.96q.05-.15-.18-.13m5.77 8.18c-.03-.08-2.95 1.4-6.5 3.28-3.53 1.88-6.51 3.47-6.61 3.51-.1.05-.07.18.09.29.44.31 3.08 1.32 5.22 2 1.08.34 2.16.6 2.4.57.37-.03.83-.77 2.95-4.76a63 63 0 0 0 2.45-4.89m13.02 2.1c-.08-.08-6.83 8.66-6.83 8.83 0 .08 5.63-.09 5.72-.18.07-.07 1.16-8.6 1.1-8.65" style="fill:#f7901e" transform="translate(-.51 -119.87)"/>
  <path d="M124.67 195.3c-2.37 0-4.81.61-7.1 1.81-5.14 2.7-8.68 8.72-9.43 16.03-.68 6.56 2.13 10.85 7.7 11.78 2.33.39 5.26.13 7.48-.67 1.43-.5 3.48-1.65 3.48-1.94 0-.2-1.12-2.47-1.64-3.32l-.34-.55-1.02.64c-3.68 2.33-7.9 1.56-8.84-1.63-.73-2.45.06-7.72 1.74-11.74 1.54-3.67 4.1-5.64 7.28-5.61 1.31 0 3.15.56 3.57 1.06.12.15.33.27.47.27.28 0 3.43-3.53 3.44-3.85 0-.3-1.6-1.27-2.64-1.62a13 13 0 0 0-4.15-.66m-40.56.53-6.06.1-2.1 9.84a342 342 0 0 1-2.42 10.82 5.4 5.4 0 0 1-3.17 3.14c-1.96.57-3.99.15-4.83-1-.3-.42-.38-.78-.36-1.69.02-.64.95-5.43 2.1-10.84 1.14-5.33 2.07-9.84 2.07-10.03 0-.3-.23-.33-2.98-.33-1.65 0-2.99.02-2.99.06l-2.16 10.12c-2.73 12.7-2.85 14.07-1.38 16.1 1.02 1.4 2.84 2.4 5.1 2.81 1.4.26 5.8.1 7.08-.26 3.62-.98 6.2-3.27 7.18-6.37.31-.99 2.54-11.17 4.81-21.95zm14.66.01h-3.22l-7.65 14.18c-4.2 7.8-7.68 14.27-7.71 14.37-.04.12 1.1.17 3.17.13l3.24-.05 1.68-3.3 1.67-3.32 4.1.05 4.11.04.27 3.31.27 3.32h6.08v-.45c0-.25-.63-6.62-1.4-14.15s-1.4-13.8-1.4-13.92c0-.15-.94-.21-3.21-.21m-1.54 6.9.11 2.94c.06 1.61.18 3.88.26 5.03l.14 2.1H92.5l1.72-3.59c.95-1.97 2.02-4.24 2.37-5.04z" style="fill:#fff" transform="translate(-.51 -119.87)"/>
</svg>
