<?xml version="1.0" encoding="UTF-8" standalone="no"?>
<!-- Created with Inkscape (http://www.inkscape.org/) -->

<svg
   width="500"
   height="500"
   viewBox="0 0 132.29166 132.29167"
   version="1.1"
   id="svg1"
   xml:space="preserve"
   inkscape:version="1.4 (86a8ad7, 2024-10-11)"
   sodipodi:docname="unitysoberliving.svg"
   xmlns:inkscape="http://www.inkscape.org/namespaces/inkscape"
   xmlns:sodipodi="http://sodipodi.sourceforge.net/DTD/sodipodi-0.dtd"
   xmlns:xlink="http://www.w3.org/1999/xlink"
   xmlns="http://www.w3.org/2000/svg"
   xmlns:svg="http://www.w3.org/2000/svg"><sodipodi:namedview
     id="namedview1"
     pagecolor="#ffffff"
     bordercolor="#111111"
     borderopacity="1"
     inkscape:showpageshadow="0"
     inkscape:pageopacity="0"
     inkscape:pagecheckerboard="1"
     inkscape:deskcolor="#d1d1d1"
     inkscape:document-units="px"
     showgrid="false"
     inkscape:zoom="0.78573232"
     inkscape:cx="262.1758"
     inkscape:cy="455.6259"
     inkscape:window-width="1920"
     inkscape:window-height="1115"
     inkscape:window-x="-9"
     inkscape:window-y="-9"
     inkscape:window-maximized="1"
     inkscape:current-layer="layer1" /><defs
     id="defs1"><linearGradient
       id="linearGradient37"
       inkscape:collect="always"><stop
         style="stop-color:#a1a1a1;stop-opacity:1;"
         offset="0"
         id="stop37" /><stop
         style="stop-color:#dfdfdf;stop-opacity:1;"
         offset="0.30017453"
         id="stop40" /><stop
         style="stop-color:#a2a2a2;stop-opacity:1;"
         offset="0.50785339"
         id="stop41" /><stop
         style="stop-color:#f0f0f0;stop-opacity:1;"
         offset="0.66230369"
         id="stop42" /><stop
         style="stop-color:#9a9a9a;stop-opacity:1;"
         offset="1"
         id="stop38" /></linearGradient><linearGradient
       inkscape:collect="always"
       xlink:href="#linearGradient37"
       id="linearGradient38"
       x1="14.376056"
       y1="27.13448"
       x2="117.91566"
       y2="105.15717"
       gradientUnits="userSpaceOnUse" /></defs><g
     inkscape:label="Layer 1"
     inkscape:groupmode="layer"
     id="layer1"><rect
       style="fill:#000000;fill-rule:evenodd;stroke-width:0.264583"
       id="rect38"
       width="132.29167"
       height="132.29167"
       x="1.7763568e-15"
       y="4.4408921e-16" /><path
       id="path37"
       style="fill:url(#linearGradient38);stroke-width:0.801807"
       d="m 65.891698,9.7520378 -5.06429,3.0618282 c -9.291432,5.617915 -14.960465,9.067963 -16.12408,9.812321 l -1.152384,0.736906 0.06046,2.267045 0.05994,2.267045 1.682067,1.008724 c 0.925006,0.554778 1.760278,0.959971 1.856218,0.900721 0.09594,-0.05929 0.174149,-1.129096 0.174149,-2.377116 V 25.1604 l 1.431954,-0.868681 c 2.121983,-1.287236 11.663846,-7.128731 14.540715,-8.901783 l 2.501139,-1.541508 9.040792,5.443079 9.040791,5.442562 -0.138492,13.155269 c -0.07619,7.23535 -0.138579,17.715054 -0.13901,23.288501 l -10e-4,10.133748 -5.356778,-0.05684 -5.356263,-0.05684 -0.05529,-10.231417 -0.05529,-10.231933 4.563546,-2.996716 4.563028,-2.9962 V 42.647712 40.5543 l -2.28048,1.469678 c -1.254311,0.808133 -4.094328,2.654267 -6.311243,4.103108 l -4.030762,2.634465 -0.05529,12.809554 c -0.03031,7.04513 -0.0093,12.929589 0.04703,13.076721 0.08053,0.210541 1.988568,0.255493 8.965344,0.211873 l 8.863025,-0.05529 0.05374,-26.029418 0.05374,-26.029936 -2.599325,-1.597318 C 83.239582,20.26913 80.398986,18.548327 78.357087,17.324186 73.022951,14.126307 69.366931,11.913425 67.510204,10.758695 Z M 42.091601,29.299682 c -0.1358,0 -1.745326,1.033414 -3.576526,2.2965 -1.831198,1.263085 -5.620881,3.857822 -8.421191,5.766057 -2.800309,1.908229 -5.878836,4.031522 -6.841443,4.718575 l -1.750281,1.249019 v 15.678629 15.67863 l 3.129008,0.06098 c 1.721023,0.03344 11.052831,0.05971 20.737236,0.05891 l 17.608227,-0.0026 v -1.802991 -1.803507 l -18.935795,0.08061 -18.935278,0.08061 0.05478,-13.122713 0.05426,-13.122713 2.790011,-1.914095 c 1.534445,-1.052772 4.191411,-2.868615 5.904549,-4.035412 1.71314,-1.166797 4.268943,-2.921759 5.67924,-3.90002 2.003745,-1.389915 2.637165,-1.732265 2.899048,-1.56528 1.604573,1.023145 12.859725,8.153826 15.238346,9.654191 l 3.023071,1.906861 v 6.233728 6.233211 h -6.576346 -6.576342 v -9.32137 -9.321395 L 45.845894,37.93223 c -0.962606,-0.63362 -1.822515,-1.087268 -1.910995,-1.008208 -0.08848,0.07903 -0.136593,5.579622 -0.106453,12.223544 l 0.05478,12.079882 10.236068,0.05478 10.236067,0.05529 v -8.9979 -8.9979 L 62.60508,42.216722 c -0.962607,-0.61873 -3.420824,-2.18432 -5.462715,-3.479375 -2.041893,-1.295046 -6.208127,-3.948403 -9.25835,-5.89628 -3.050222,-1.947877 -5.656611,-3.541386 -5.792411,-3.541386 z m 50.208304,6.088 -1.561661,0.772563 -1.562179,0.773079 v 1.910995 c 0,1.051073 0.06378,1.910994 0.141593,1.910994 0.07781,0 0.736559,-0.327242 1.463994,-0.727087 l 1.322916,-0.727088 3.680396,2.242757 c 2.024229,1.233387 5.350936,3.269992 7.392826,4.525822 l 3.71244,2.283065 0.0553,11.475785 0.0548,11.475785 h -7.426937 -7.426937 v 1.682068 c 0,1.582542 0.02834,1.686455 0.476974,1.750281 h 5.17e-4 c 0.263639,0.03727 4.415533,0.042 9.227853,0.01033 l 8.75089,-0.05788 -5.2e-4,-14.049788 -5.1e-4,-14.050305 -5.67408,-3.480408 c -3.12089,-1.91437 -7.238766,-4.434584 -9.150884,-5.600684 z m -90.9768742,47.144926 0.075448,7.273457 c 0.085004,8.196741 0.1464307,8.590327 1.6474447,10.587985 1.4657692,1.95076 3.7784551,3.09536 7.2253995,3.57549 0.751349,0.1047 3.084464,0.15847 5.184696,0.11937 2.99849,-0.0558 4.167517,-0.16412 5.442562,-0.50332 3.901467,-1.03794 5.622704,-2.69328 6.543269,-6.292643 0.379509,-1.483887 0.424781,-2.353389 0.424781,-8.2026 V 82.547594 H 25.63886 23.411606 l -0.0041,5.675105 c -0.0061,8.259153 -0.305566,9.644176 -2.319755,10.74043 -1.43562,0.78136 -3.581379,1.044671 -7.535457,0.925008 C 9.8199375,99.775192 8.4016053,99.468607 7.2911419,98.534215 5.9260725,97.385586 5.9199916,97.351154 5.8033775,89.654653 L 5.6974408,82.654047 3.5099774,82.593069 Z m 98.6725292,0.01189 -12.887586,0.05478 -12.887585,0.05478 -0.06098,1.962154 -0.06149,1.962154 h 5.417757 5.417757 v 8.698177 8.697657 h 2.227771 2.227254 v -8.697657 -8.698177 h 5.303552 5.303553 v -2.016931 z m -67.249642,0.0031 v 10.571964 c 0,5.814533 0.0667,10.638638 0.148312,10.720268 0.08161,0.0815 1.107787,0.1214 2.280481,0.0884 l 2.132169,-0.0599 0.05581,-8.43256 c 0.03051,-4.638011 0.125703,-8.432176 0.211873,-8.431527 0.670301,0.0051 1.775577,0.541326 2.43396,1.180807 0.433746,0.421302 1.904851,2.21294 3.269051,3.981669 4.110016,5.328743 6.336027,8.046171 7.42642,9.066111 2.245193,2.10012 4.109665,2.74143 7.967989,2.74143 h 2.501139 V 93.261152 82.547594 h -2.225187 -2.22467 l -0.05581,8.433077 -0.05529,8.43256 -0.742591,-0.06976 C 54.520907,99.216414 53.627958,98.368455 50.828019,94.55823 44.868515,86.448405 43.889307,85.274597 42.076098,84.06378 40.406372,82.948778 38.615054,82.547594 35.302868,82.547594 Z m 33.730758,0 v 10.713558 10.713034 h 2.227771 2.227254 V 93.261152 82.547594 h -2.227254 z m 34.277494,0 0.96376,1.00769 c 0.53002,0.554233 2.5309,2.718841 4.44676,4.810042 8.39683,9.165315 7.6202,7.91533 7.6202,12.26333 l -5.1e-4,3.36 2.27428,-0.0599 2.27428,-0.0605 0.007,-3.28818 c 0.006,-3.183728 0.0244,-3.318321 0.57568,-4.242627 0.31316,-0.525055 2.41311,-2.965115 4.6669,-5.421891 6.06201,-6.607985 7.38611,-8.083841 7.38611,-8.233089 0,-0.07418 -1.38029,-0.134875 -3.067,-0.134875 h -3.06648 l -3.77496,4.476212 c -2.0762,2.461835 -4.04893,4.840418 -4.38371,5.285982 l -0.60875,0.810287 -0.98237,-1.21388 c -0.54033,-0.667537 -2.50028,-3.046135 -4.35581,-5.285982 l -3.37395,-4.072619 h -3.30057 z m 20.4866,27.791062 c -3.67479,0 -6.31741,2.29521 -6.55154,5.69061 -0.21735,3.15218 1.77566,5.75701 4.89686,6.40013 1.6314,0.33614 4.31843,-0.12787 5.59811,-0.96635 0.45361,-0.29722 0.48111,-0.45294 0.48111,-2.76108 v -2.44636 l -1.00769,0.0646 -1.00769,0.0646 -0.0615,1.84227 -0.061,1.84278 -0.75654,0.2496 c -2.0073,0.66248 -4.5172,-0.22984 -5.37487,-1.911 -0.47334,-0.92783 -0.56813,-2.5819 -0.20308,-3.5481 0.95345,-2.5235 4.80595,-3.43982 6.8156,-1.62109 0.34577,0.31291 0.43279,0.29431 1.13843,-0.24391 l 0.7643,-0.58291 -0.58653,-0.61185 c -0.78976,-0.82431 -2.57082,-1.46193 -4.08399,-1.46193 z m -102.852115,0.0853 c -1.661634,0.0366 -3.329843,0.65591 -4.580598,1.9482 -1.719428,1.7765 -2.135357,4.8898 -0.928626,6.94893 0.697924,1.19092 2.047829,2.36205 3.188953,2.76675 1.307427,0.46367 3.71127,0.42621 5.061706,-0.0791 1.225378,-0.45847 2.623523,-1.73654 3.241146,-2.96261 0.495538,-0.9837 0.650475,-3.15429 0.311609,-4.36459 -0.77294,-2.76068 -3.524799,-4.3186 -6.29419,-4.25762 z m -11.9465568,0.0351 c -1.0703646,-0.003 -2.1269867,0.15822 -2.8313517,0.49919 -2.4766255,1.19892 -2.718828,4.17567 -0.4449341,5.46685 0.4500875,0.25558 1.6760295,0.67683 2.7243815,0.93586 1.3610906,0.33632 2.0457284,0.62187 2.3946858,0.99839 0.617006,0.66577 0.6131966,0.93343 -0.023771,1.67328 -0.4902596,0.56939 -0.5934108,0.59566 -2.3864177,0.59066 -1.5327356,-0.004 -2.0399842,-0.0926 -2.7832926,-0.48575 -1.0325319,-0.54609 -1.1889165,-0.50587 -1.49965,0.3855 -0.1979864,0.56795 -0.1654079,0.67648 0.2919718,0.97617 0.2829123,0.18537 0.9226478,0.46973 1.4216187,0.632 0.5815457,0.18912 1.6318632,0.27475 2.9264363,0.23875 1.6934674,-0.047 2.1509847,-0.13718 2.832902,-0.55862 1.0624178,-0.65662 1.6165088,-1.59235 1.6174718,-2.73214 0.0016,-1.80281 -0.9519437,-2.66347 -3.7134679,-3.35173 -2.7808498,-0.69306 -3.4454414,-1.18097 -3.159497,-2.32027 0.3590475,-1.43057 2.6618933,-1.68627 5.4725341,-0.60772 0.2038243,0.0782 0.4354837,-0.12008 0.6692098,-0.57206 0.339293,-0.65612 0.337764,-0.70576 -0.032039,-0.97616 -0.7016558,-0.51307 -2.1006073,-0.78833 -3.4767908,-0.7922 z m 20.7878778,0.0574 v 5.81618 c 0,3.19868 0.06089,5.87656 0.135392,5.95106 0.07449,0.0741 1.81669,0.1106 3.871599,0.0801 3.293591,-0.0488 3.854888,-0.10933 4.738212,-0.51005 1.38707,-0.62924 1.911947,-1.50931 1.79989,-3.01894 -0.07739,-1.04258 -0.172496,-1.23378 -0.965316,-1.93735 -0.796128,-0.7065 -0.846524,-0.80796 -0.529683,-1.07073 0.913257,-0.75738 1.176392,-2.62665 0.520898,-3.70158 -0.754146,-1.23671 -1.596035,-1.45991 -5.80533,-1.53841 z m 67.876476,0.0134 -1.181323,0.0636 -1.180806,0.0636 -1.739946,4.03076 c -0.956852,2.21691 -1.832068,4.19288 -1.945101,4.39095 -0.161818,0.28357 -0.616095,-0.57333 -2.13682,-4.03077 l -1.931148,-4.39094 -1.213363,-0.0641 c -1.464394,-0.0774 -1.505079,-0.39552 0.517798,4.09484 0.788459,1.7502 1.838303,4.13675 2.332674,5.30355 0.494371,1.16678 0.941181,2.19298 0.993221,2.28048 0.05203,0.0875 0.594931,0.15917 1.206128,0.15917 h 1.111043 l 0.881083,-2.06861 c 0.484561,-1.13762 1.352812,-3.11833 1.929082,-4.4018 0.576269,-1.28348 1.342519,-3.03027 1.702738,-3.88193 z m -54.935664,0.0212 v 5.79861 c 0,3.18924 0.06381,5.86189 0.141594,5.93969 0.07779,0.0777 2.082541,0.1416 4.455025,0.1416 h 4.313431 v -0.9493 -0.9493 l -3.325378,-0.0584 -3.325895,-0.0584 0.05426,-1.48364 c 0.0297,-0.8161 0.09509,-1.52553 0.145728,-1.57613 0.05063,-0.0507 1.308362,-0.098 2.794661,-0.10697 l 2.702161,-0.0155 v -0.84853 -0.84852 l -2.812232,-0.10594 c -1.546641,-0.0583 -2.811318,-0.1776 -2.810681,-0.2651 5.8e-4,-0.0875 10e-4,-0.77999 10e-4,-1.53841 v -1.37872 h 3.182234 3.182235 v -0.84853 -0.84853 h -4.349088 z m 11.456148,0 v 5.93969 5.94021 h 1.060401 1.060917 v -1.46761 c 0,-2.12411 0.01147,-2.13889 1.67845,-2.13889 h 1.421102 l 1.260905,1.80092 1.261422,1.80092 1.136365,0.002 c 1.345869,0.003 1.347424,0.0242 -0.166915,-2.09806 -0.591671,-0.8292 -1.075387,-1.55654 -1.075387,-1.61644 0,-0.0599 0.420143,-0.51325 0.933793,-1.00717 2.406044,-2.31365 1.50012,-6.05438 -1.676383,-6.92206 -0.466719,-0.12749 -2.208913,-0.2324 -3.871598,-0.23306 z m 16.971574,0 v 5.79861 c 0,3.18924 0.06331,5.86189 0.141077,5.93969 0.07778,0.0777 1.987348,0.1416 4.243151,0.1416 h 4.101559 l 0.02636,-0.5302 c 0.01451,-0.2917 0.03863,-0.69757 0.05323,-0.90176 0.02396,-0.33556 -0.274418,-0.37685 -3.102652,-0.42995 l -3.129525,-0.0589 v -4.97954 -4.97954 h -1.166346 z m 10.182841,0 v 5.79861 c 0,3.18924 0.06378,5.86189 0.141593,5.93969 0.07778,0.0777 0.602386,0.1416 1.166337,0.1416 h 1.025777 v -5.94021 -5.93969 h -1.166853 z m 17.60771,0 v 5.93969 5.94021 h 1.060917 1.060918 v -5.94021 -5.93969 h -1.060918 z m 5.304069,0 v 5.93969 l -5.2e-4,5.94021 h 1.16685 1.16686 v -3.94395 -3.94394 l 1.22008,1.47794 c 0.67091,0.81269 2.11933,2.58697 3.21892,3.94343 1.99317,2.4593 2.00219,2.46652 2.91714,2.46652 h 0.91777 v -5.94021 -5.93969 h -1.05627 -1.05575 l -0.0579,3.93154 -0.0579,3.93206 -2.96881,-3.62665 c -1.63294,-1.99481 -3.04596,-3.76429 -3.13986,-3.93206 -0.1126,-0.2012 -0.52786,-0.30489 -1.2206,-0.30489 z m -72.129446,1.69706 H 31.5894 c 1.39667,0 2.219555,0.0999 2.648934,0.32194 1.249388,0.64608 0.989326,2.30344 -0.438733,2.79518 -0.404441,0.13926 -1.523029,0.2581 -2.485636,0.2651 l -1.750281,0.0119 v -1.69705 z m -10.985376,0.005 c 1.888403,0.01 3.464742,1.21443 3.975468,3.03857 0.536963,1.91784 -0.31329,4.01319 -1.977657,4.8736 -2.071399,1.07083 -4.67937,0.36757 -5.62653,-1.51722 -1.559243,-3.1028 0.318406,-6.41195 3.628719,-6.39495 z m 35.275882,0.10128 1.736845,0.0217 c 2.694008,0.0336 3.673161,0.66338 3.673161,2.36316 0,0.99876 -0.472514,1.7054 -1.399914,2.09289 v -5.1e-4 c -0.933735,0.39022 -3.87697,0.40147 -4.025078,0.0155 -0.05915,-0.15414 -0.07963,-1.22793 -0.04599,-2.38642 z m -24.290506,4.77335 2.068607,0.0119 c 2.497046,0.0145 3.44042,0.29387 3.84421,1.1374 0.407028,0.85029 0.102478,1.62155 -0.823722,2.08566 -0.560335,0.28075 -1.268531,0.37079 -2.914551,0.37104 l -2.174544,5.1e-4 v -1.80351 z" /></g></svg>
