<svg xmlns="http://www.w3.org/2000/svg" xml:space="preserve" width="300" height="150" viewBox="0 0 79.375 39.688">
  <path d="M6.4 26.72c-.257-.117-.415-.367-.445-.705-.028-.305.005-.532.096-.654.052-.07.051-.049-.005.114-.084.244-.06.669.05.901.109.229.329.353.638.358.338.007.518-.077.65-.304.06-.103.11-.199.11-.214 0-.016-.065-.047-.144-.07-.135-.04-.137-.042-.028-.046.2-.007.24.098.12.316-.19.35-.648.483-1.043.304zm2.801.002a.817.817 0 0 1-.441-.459c-.086-.205-.086-.59 0-.765.036-.074.054-.094.04-.045-.06.197-.071.543-.025.715.1.37.356.561.759.566.516.007.811-.305.811-.856 0-.367-.1-.592-.33-.744-.323-.215-.732-.18-1.05.09l-.163.137.133-.148c.247-.274.627-.346.98-.185.453.205.63.83.378 1.323a.698.698 0 0 1-.435.39.831.831 0 0 1-.657-.02zm15.127.038c-.198-.06-.477-.368-.47-.517.002-.02.043.04.092.132.274.52 1.176.48 1.365-.06.033-.097.028-.129-.024-.149-.113-.043-.193-.028-.193.035 0 .08-.17.294-.233.294-.027 0-.004-.042.05-.093a.645.645 0 0 0 .14-.2c.044-.114.208-.145.297-.056.112.111-.149.483-.418.599a.985.985 0 0 1-.606.015zm2.779-.013a.644.644 0 0 1-.2-.113c-.034-.036.004-.028.098.02.207.107.595.106.798-.002.131-.069.146-.07.095-.01-.123.15-.525.202-.791.105zm8.878.029a.597.597 0 0 1-.2-.108l-.11-.09.155.08c.215.108.65.108.816-.001.07-.045.11-.058.093-.029-.083.135-.458.208-.754.148zm14.025-.014c-.626-.189-.81-1.09-.323-1.577.21-.21.422-.272.763-.22.15.022.243.072.364.192.09.09.112.12.05.066a.895.895 0 0 0-.96-.15c-.228.103-.361.287-.416.576-.12.633.218 1.093.798 1.085.403-.005.658-.196.758-.566a1.632 1.632 0 0 0-.022-.715c-.015-.049.001-.029.037.045.092.187.084.583-.015.798a.851.851 0 0 1-1.034.466zm5.647-.007c-.382-.11-.606-.437-.6-.88.006-.617.382-.971.978-.922.255.021.422.115.542.302.055.086.041.08-.062-.028-.255-.264-.735-.31-1.072-.101-.38.235-.456 1.015-.133 1.362.248.266.714.328 1.117.15.199-.089.21-.09.111-.012-.206.16-.58.215-.881.129zm18.951-.03c-.335-.16-.51-.457-.509-.86.001-.211.13-.611.198-.611.014 0-.007.062-.046.138-.099.19-.129.555-.065.79.156.579.928.76 1.36.32.107-.108.143-.128.108-.062-.153.295-.708.446-1.046.285zM.642 26.707c-.013-.032-.018-.428-.011-.878l.012-.82.568-.012.569-.012.152.152c.126.126.152.185.152.34 0 .163-.025.213-.177.358-.097.092-.157.18-.133.195.024.015.066.07.094.124.048.093.045.092-.066-.01-.149-.137-.148-.206.004-.278.163-.078.242-.243.217-.453-.038-.314-.126-.357-.771-.373l-.565-.015v1.696l.107-.013c.104-.013.107-.023.097-.355-.01-.33-.006-.343.1-.37a.593.593 0 0 1 .213-.007c.07.013.051.021-.06.025l-.165.006-.013.366-.013.366-.144.014c-.09.009-.153-.008-.167-.046zM1.8 26.65l-.15-.23c-.042-.067-.053-.106-.023-.088.029.018.097.112.152.209.085.152.12.176.25.176.153 0 .153 0 .081-.11l-.149-.232c-.042-.066-.054-.106-.026-.089.05.031.281.4.281.45 0 .014-.077.025-.172.025-.135 0-.188-.024-.244-.11zm2.245.078c.614-.013.654-.019.654-.1 0-.079-.039-.086-.498-.098l-.5-.013v-.576l.455-.013c.418-.011.455-.02.455-.1s-.033-.087-.468-.087h-.468l.013-.255.014-.255.476-.012c.438-.012.477-.02.477-.099 0-.08-.04-.087-.632-.1l-.632-.013.654-.01.654-.01v.267h-.975v.44l.454.013c.442.012.455.015.47.118.022.154-.056.181-.514.182h-.41v.488h1.02v.266l-.676-.01-.677-.01zm8.074-.044a1.018 1.018 0 0 0-.05-.118c-.012-.022 0-.026.029-.008.028.017.051.06.051.095 0 .042.047.064.134.064.135 0 .139-.005.245-.306.012-.034.033-.051.045-.038.013.012-.01.105-.05.205-.066.165-.088.183-.225.183-.104 0-.16-.024-.18-.077zm2.159-.81v-.886l.654.01.654.01-.632.013-.632.013v1.68l.654.014.654.014-.676.01-.676.01zm2.616 0v-.886h.574c.535 0 .581.006.678.1.058.054.067.07.02.033-.062-.05-.232-.07-.656-.081l-.572-.015v1.686l.144.018c.142.018.142.018-.022.025l-.166.007zm1.122.699a6.338 6.338 0 0 0-.275-.388c-.122-.159-.13-.178-.036-.093.065.058.192.223.283.366.137.215.187.259.29.259.138 0 .143-.01.077-.147-.044-.091-.042-.09.044.008.13.15.115.183-.085.183-.16 0-.189-.018-.298-.188zm2.204.163.133-.025v-.713l.332-.483.331-.483h-.138c-.079 0-.166.034-.201.078-.057.07-.058.067-.015-.023.038-.078.086-.1.224-.1.097 0 .176.011.176.025 0 .013-.149.24-.33.502l-.331.478-.013.374-.013.373-.144.011c-.142.011-.142.011-.011-.014zm9.267-.862v-.886h.427l.074.23c.04.127.066.238.057.247-.009.009-.05-.085-.091-.208-.073-.22-.079-.225-.248-.225h-.174v1.685h.222v-.602c0-.672.044-.748.18-.307.106.342.077.369-.04.036l-.09-.258-.003.588-.003.587h-.311Zm.643.663c-.042-.124-.065-.235-.053-.247.012-.012.056.079.097.202.06.18.094.225.173.225.072 0 .113-.042.156-.159.074-.205.105-.174.04.04-.045.145-.067.163-.195.163-.134 0-.15-.016-.218-.224zm.773-.363-.003-.588-.107.306c-.114.328-.18.444-.128.226.06-.247.203-.598.245-.598.023 0 .04.26.04.598v.599h.222v-1.694l-.177.017c-.097.009-.177.001-.177-.018s.09-.034.2-.034h.199V26.76h-.311zm1.6-.297v-.89h.2c.177 0 .207.015.246.118.024.064.035.126.023.138-.012.012-.035-.031-.05-.095-.026-.1-.053-.116-.202-.116h-.173v1.685h.11c.109 0 .11-.002.124-.499l.015-.499-.003.51-.002.51-.144.014-.144.014zm.82.853c.073-.011.15-.044.17-.072.025-.035.03-.03.019.015-.011.04-.077.069-.17.072-.14.006-.14.005-.019-.015zm.599-.516c0-.385-.016-.56-.052-.571-.03-.01-.038-.042-.02-.071.082-.132.116.038.116.571v.574h.221v-1.68l-.165-.017-.167-.018.178.004.177.004v1.729l-.144.014-.144.014zm4.365.49c-.012-.03-.016-.425-.01-.875l.013-.82.155-.011c.142-.01.167.007.3.21.18.277.153.295-.034.023-.11-.16-.163-.199-.268-.199h-.131v1.685h.222v-.602c0-.462.013-.599.055-.585.053.017.285.331.476.646.175.288.01.094-.226-.264l-.239-.365-.012.607-.013.607h-.133c-.073 0-.143-.025-.155-.057zm1.033-.084c-.135-.184-.178-.258-.147-.258.014 0 .077.08.142.178.091.138.145.177.244.177h.127V25.022l-.133.02c-.073.01-.133.001-.133-.02 0-.022.065-.034.145-.026l.144.014v1.729l-.14.014c-.115.01-.16-.013-.249-.133zm1.741-.746v-.886h.311V26.76h-.311Zm.266 0v-.842h-.222v1.685h.222zm1.848.858c-.016-.016-.03-.355-.03-.752v-.722l-.277-.017-.277-.017.288.004.288.003.013.74.012.74.143.018.143.018-.137.007c-.075.004-.15-.006-.166-.022zm2.53.002c-.018-.018-.032-.193-.032-.39v-.359l-.31-.465c-.171-.256-.31-.48-.31-.5 0-.017.074-.032.166-.032.17 0 .18.009.354.31l.064.11-.082-.1a7.803 7.803 0 0 1-.15-.193c-.046-.062-.106-.086-.188-.076l-.12.015.335.501.335.501-.01.32c-.01.316-.01.319.108.333l.118.014v-.375c0-.295.017-.393.078-.46.043-.046.058-.055.033-.02-.024.035-.054.246-.066.468l-.023.403-.134.013c-.074.008-.149 0-.166-.018zm6.664-.86v-.886h.566c.62 0 .707.027.83.266.078.15.085.305.018.399-.036.05-.04.037-.019-.06.041-.188-.052-.419-.2-.495-.09-.047-.273-.066-.639-.066h-.512v1.685h.11c.105 0 .109-.01.121-.366l.013-.366.155-.015a.531.531 0 0 1 .503.271c.074.13.065.126-.093-.045-.151-.163-.199-.188-.359-.188h-.184v.753h-.31Zm1.187.81c-.078-.09-.18-.277-.15-.277a.6.6 0 0 1 .114.152c.075.121.128.156.259.17l.164.017-.16.008c-.103.005-.183-.02-.227-.07zm4.268.022a.27.27 0 0 1 .047-.122c.036-.052.04-.045.018.033-.023.085-.01.1.085.1.077 0 .133-.038.178-.122.077-.14.09-.114.027.053-.035.092-.073.113-.2.113-.096 0-.156-.021-.155-.055zm1.29-.044c-.085-.227-.086-.309-.003-.133.071.15.114.188.204.188.119 0 .12-.006.037-.295-.013-.045.014-.002.06.095.047.098.076.193.065.211-.01.018-.088.033-.172.033-.119 0-.162-.022-.191-.1zm1.503-.788v-.886h.154c.144 0 .17.024.426.404.15.223.25.391.223.375-.028-.017-.151-.19-.276-.383-.197-.307-.242-.352-.354-.352h-.129v1.685h.222v-.599c0-.336.018-.598.04-.598.036 0 .36.461.47.665.076.144-.062-.033-.26-.332l-.206-.31v1.218h-.31Zm.952.632c-.093-.14-.136-.227-.095-.193.041.033.118.137.17.23.078.139.124.173.254.186l.16.017-.16.008c-.149.007-.172-.01-.33-.248zm1.841-.629v-.89h.313l-.012.876-.012.876-.145.014-.144.014zm.266-.003v-.842h-.221v1.685h.221zm1.242.757c0-.08.045-.18.115-.255l.115-.125-.093.14a.553.553 0 0 0-.093.235c0 .094.01.095.688.082.378-.007.687.002.687.02 0 .018-.32.033-.71.033h-.709zm2.439.113c0-.06.188-.519.205-.501.011.01-.02.121-.07.247l-.09.227h.126c.11 0 .132-.024.181-.188.09-.303.155-.35.474-.34.153.006.297.022.322.037.05.032.15.273.122.3-.01.01-.04-.043-.065-.117-.047-.135-.05-.135-.377-.135h-.328l-.089.232c-.082.217-.1.234-.25.247-.088.008-.161.003-.161-.01zm1.313-.053c-.044-.113-.031-.13.032-.043.043.058.098.075.197.061.076-.011.128-.004.116.016-.042.067-.317.04-.345-.034zm1.737-.672-.013-.743-.277-.013c-.275-.013-.277-.015-.277-.146v-.132l.72.013.721.012v.11c0 .106-.014.112-.277.125l-.277.013V26.76h-.308zm.286-.045.012-.742.256-.023c.14-.012.255-.037.255-.055l-.001-.078c0-.027-.251-.044-.665-.044-.63 0-.666.005-.666.087 0 .075.037.088.278.1l.277.013.012.742.012.743h.218zm1.808-.1v-.886h.31V26.76h-.31zm.266 0v-.842h-.221v1.685h.22zm4.277.83c-.012-.03-.017-.425-.01-.875l.012-.82.155-.011c.166-.013.13-.052.548.576.045.068.07.123.056.123-.013 0-.126-.15-.25-.332-.177-.264-.246-.333-.333-.333h-.11V26.727l.111-.02c.061-.013.111-.005.111.016 0 .061-.266.044-.29-.019zm1.07-.018c-.025-.064-.02-.069.025-.024.03.03.111.055.18.055h.124v-1.685h-.221v.599c0 .553-.03.688-.116.547-.02-.032-.012-.04.02-.02.037.024.05-.126.05-.57v-.6h.313l-.012.875-.012.876-.16.014c-.123.01-.169-.006-.192-.067zm-45.032-.304c-.051-.165-.084-.308-.074-.318.01-.01.062.114.116.276.053.162.087.305.074.318-.013.013-.065-.111-.116-.276zm20.767.235-.096-.166c-.06-.106-.06-.107.011-.022.09.107.168.244.139.244-.012 0-.036-.025-.054-.056zm-50.417-.743c0-.426.006-.6.014-.388.009.214.009.563 0 .776-.008.214-.014.04-.014-.388zm58.578 0c0-.426.006-.6.014-.388.008.214.008.563 0 .776-.008.214-.014.04-.014-.388zm4.283.732c0-.012.01-.022.022-.022.012 0 .022.01.022.022 0 .012-.01.022-.022.022a.022.022 0 0 1-.022-.022zm2.66 0c0-.012.01-.022.022-.022.013 0 .023.01.023.022 0 .012-.01.022-.023.022a.022.022 0 0 1-.022-.022zm8.346-.52c-.01-.613.03-.703.184-.422l.08.144-.104-.132-.103-.133-.024.554-.024.553zm-49.32.473c0-.013.05-.097.112-.187.133-.197.148-.148.018.063-.087.14-.13.181-.13.124zm5.544-.02c0-.032.013-.045.03-.029a.042.042 0 0 1 0 .06c-.017.015-.03.002-.03-.03zm44.407-.143c-.17-.254-.192-.301-.085-.18.099.11.259.368.23.368a.999.999 0 0 1-.145-.188zm-71.528-.007c-.083-.083-.15-.188-.15-.233 0-.052.028-.025.077.073a.586.586 0 0 0 .233.233c.098.05.125.077.073.078-.045 0-.15-.068-.233-.151zm.514.101a.924.924 0 0 0 .18-.097c.038-.03.022-.008-.036.047-.057.055-.138.098-.18.097-.05-.002-.037-.018.036-.047zm2.476.02c.032-.014.07-.012.085.003.014.015-.012.025-.059.023-.051-.002-.062-.013-.026-.027zm.35-.036c.234-.102.33-.303.313-.654-.013-.259-.032-.315-.147-.435-.08-.083-.101-.126-.054-.108.155.06.255.302.255.619 0 .289-.006.305-.172.471-.095.095-.21.172-.255.17-.054 0-.033-.023.06-.063zm4.82.005a1.204 1.204 0 0 1-.01-.3l.014-.238.454-.013c.418-.011.455-.02.455-.1s-.032-.087-.468-.087h-.468l.014-.255.013-.255.499-.002.499-.002-.488.015-.488.014v.438l.455.013c.44.012.455.015.469.118.022.154-.056.181-.514.182h-.41v.485l.521.014.521.014-.522.01c-.408.007-.528-.004-.546-.051zm9.776-.006a.359.359 0 0 1-.147-.142c-.024-.063-.01-.06.073.019a.825.825 0 0 0 .213.14c.06.024.08.044.044.045a.5.5 0 0 1-.183-.062zm.375.037a.042.042 0 0 1 .06 0c.016.016.002.03-.03.03-.033 0-.046-.014-.03-.03zm2.013-.048a.755.755 0 0 1-.163-.402c.001-.041.04.021.085.138.046.118.107.242.137.278.075.09.025.08-.059-.014zm.296-.073c-.083-.083-.15-.188-.147-.233.002-.063.01-.066.028-.016.06.162.206.313.337.35.117.035.123.042.037.046-.063.002-.164-.056-.255-.147zm.555.093c.216-.076.322-.244.359-.571.03-.27.032-.273.038-.068.003.116-.022.278-.055.358-.073.175-.27.34-.4.336-.066-.002-.05-.018.058-.055zm8.596.026a.484.484 0 0 1 .177.001c.043.011-.003.02-.1.02-.098-.001-.132-.01-.077-.02zm.675-.071c.025-.069.045-.413.045-.765v-.64h-.221v.633c0 .501-.015.654-.07.732-.038.054-.092.098-.12.098-.027 0-.01-.028.037-.063.076-.056.088-.135.108-.742l.022-.68h.31l.015.377c.018.504-.03.993-.107 1.093-.057.074-.06.07-.019-.043zm13.12.028c-.185-.115-.26-.285-.26-.589 0-.302.08-.503.233-.582.083-.043.078-.028-.032.088-.114.122-.134.18-.146.438-.018.351.078.552.312.654.079.034.113.062.077.063a.466.466 0 0 1-.183-.072zm.397.044c.032-.013.07-.01.085.004.015.015-.011.025-.058.023-.052-.002-.062-.013-.027-.027zm5.307-.012a.74.74 0 0 1-.197-.154c-.143-.153-.182-.6-.073-.83.071-.15.271-.305.388-.302.033.001-.005.03-.084.064-.204.089-.322.305-.322.59 0 .414.146.58.554.633l.222.03-.2.003a.954.954 0 0 1-.288-.034zm1.007-.279-.009-.344h-.355c-.322 0-.354.008-.354.087 0 .073.036.088.232.1.226.013.234.017.247.153.01.105-.012.157-.088.21a.367.367 0 0 1-.146.07c-.025-.002.009-.032.076-.068.09-.05.122-.1.122-.196 0-.126-.006-.13-.255-.143-.203-.01-.257-.029-.27-.093-.03-.16.074-.208.443-.208.253 0 .357.016.374.06.012.032.016.207.007.387l-.015.329zm8.594.279c0-.024.056-.109.125-.189.475-.552.895-1.108.895-1.185 0-.088-.024-.091-.621-.091-.591 0-.621.004-.621.089 0 .082.03.088.443.088.267 0 .444.018.444.045 0 .047-.745.975-.783.975-.023 0 .01-.041.49-.643l.248-.31-.443-.013-.443-.012v-.266l.654.012.654.013.01.11c.009.084-.108.257-.476.705-.268.327-.488.61-.488.63 0 .02.225.044.5.051l.498.015-.543.01c-.326.005-.543-.008-.543-.034zm3.573-.138c-.04-.102-.066-.194-.055-.204.01-.01.051.065.092.167.04.101.066.193.055.203-.01.01-.051-.065-.092-.166zm5.952.15c.032-.013.07-.01.085.004.015.015-.011.025-.058.023-.052-.002-.062-.013-.027-.027zm.3-.017a.65.65 0 0 0 .243-.155c.096-.102.109-.155.109-.463 0-.327-.009-.357-.133-.487-.08-.084-.103-.127-.057-.11.254.098.353.74.157 1.025-.103.15-.25.24-.38.234-.041-.003-.014-.022.06-.044zm-65.92-.063c-.03-.037-.035-.067-.01-.067.024 0 .068.03.099.067.03.037.035.066.01.066-.024 0-.069-.03-.099-.066zm2.838.022c0-.033.013-.046.03-.03a.042.042 0 0 1 0 .06c-.017.016-.03.003-.03-.03zm23.56-.072c-.02-.07-.036-.407-.036-.748v-.621h.311l.022.68c.02.607.031.686.108.742.048.035.063.063.034.063-.028 0-.087-.054-.13-.12-.063-.096-.082-.238-.094-.731l-.015-.612h-.107c-.106 0-.106 0-.104.499.002.274.02.598.04.72.041.25.025.321-.03.128zm14.975.05c.03-.037.075-.067.1-.067.024 0 .02.03-.012.067-.03.036-.075.066-.1.066-.024 0-.02-.03.012-.066zm7.36.054c0-.04.262-.667.264-.632.003.056-.22.644-.245.644-.01 0-.018-.005-.018-.012zm16.615-.12c-.225-.267-.206-.764.038-1.008.08-.08.182-.146.227-.146.052 0 .025.029-.073.078-.354.177-.411.815-.098 1.105.06.057.09.103.064.103-.026 0-.097-.059-.158-.131zm-56.421-.153c-.198-.256-.199-.246.053-.4l.133-.082-.084.094a.476.476 0 0 1-.17.122c-.084.027-.083.033.022.145.111.12.277.362.248.362-.009 0-.1-.109-.202-.24zm15.462.197c0-.033.013-.046.03-.03a.042.042 0 0 1 0 .06c-.017.015-.03.002-.03-.03zm24.655 0c0-.033.013-.046.03-.03a.042.042 0 0 1 0 .06c-.017.015-.03.002-.03-.03zm-46.03-.159c-.072-.22-.027-.236.058-.02.038.099.053.179.032.179-.02 0-.06-.072-.09-.159zm-.303-.135c-.053-.138-.088-.26-.078-.27.01-.01.062.095.114.234.052.139.086.26.077.27-.01.01-.06-.096-.113-.234zm18.51.094c.093-.226.124-.258.084-.089a.518.518 0 0 1-.094.2c-.048.05-.046.025.01-.11zm.197.11c0-.032.013-.045.03-.029a.042.042 0 0 1 0 .06c-.017.016-.03.002-.03-.03zm2.735.016a.121.121 0 0 1-.03-.074c0-.025.014-.03.031-.014.017.017.058-.014.09-.07l.06-.101-.029.11c-.035.135-.08.19-.122.15zm-24.275-.07c-.074-.093-.11-.34-.08-.548.03-.195.208-.463.306-.46.028 0-.002.042-.068.09-.174.13-.25.495-.16.77.072.216.072.235.002.147zm3.272.046c-.003-.055.231-.66.248-.643.02.02-.137.486-.201.596-.025.043-.046.064-.047.047zm.265-.035c0-.033.013-.046.03-.03a.042.042 0 0 1 0 .06c-.017.015-.03.002-.03-.03zm21.04-.056c.056-.201.166-.481.182-.465.022.022-.16.565-.188.565-.012 0-.01-.045.006-.1zm17.118-.06c.034-.095.063-.213.064-.261.003-.177-.097-.435-.208-.538-.062-.058-.092-.105-.065-.105.027 0 .104.073.173.162.108.142.124.203.124.465 0 .223-.02.32-.075.375-.07.07-.07.064-.013-.098zm2.774-.02c-.08-.1-.138-.186-.13-.192l.193-.113c.168-.096.173-.097.094-.009a.478.478 0 0 1-.168.12c-.077.024-.074.038.05.18.125.141.157.194.12.194-.008 0-.08-.081-.16-.18zm4.741.127c0-.075.522-.11.699-.046.139.05.025.077-.322.077-.207 0-.377-.014-.377-.03zm1.02.03c0-.011.01-.021.023-.021.012 0 .022.01.022.022 0 .012-.01.022-.022.022a.022.022 0 0 1-.023-.022zm16.437-.088a1.827 1.827 0 0 0 0-.665c-.027-.119-.025-.124.025-.044.03.048.055.218.055.376 0 .159-.025.329-.055.377-.05.08-.052.075-.025-.044zm-74.286-.072c-.108-.116-.113-.13-.031-.088a.4.4 0 0 1 .146.139c.065.123.036.11-.115-.051zm5.746.094c0-.032.013-.046.03-.03a.042.042 0 0 1 0 .06c-.017.016-.03.003-.03-.03zm23.014-.244c-.054-.161-.087-.304-.074-.317.013-.013.065.11.116.275.05.165.084.308.074.318-.01.01-.062-.114-.116-.276zm-6.075.2c0-.033.013-.046.03-.03a.042.042 0 0 1 0 .06c-.017.016-.03.002-.03-.03zm5.898.022c0-.012.01-.022.022-.022.012 0 .022.01.022.022 0 .012-.01.022-.022.022a.022.022 0 0 1-.022-.022zm9.144-.3c-.258-.384-.287-.432-.262-.432.01 0 .127.164.258.364l.238.363.025-.552.024-.552.009.566c.005.342-.008.565-.034.565-.024 0-.14-.144-.258-.321zm20.015.141c-.04-.101-.065-.193-.055-.203.01-.01.051.065.092.166.04.102.066.193.056.203-.01.01-.052-.064-.093-.166zm2.522.14c.017-.028.035-.305.04-.615l.006-.563.156-.006c.113-.005.122-.001.034.013l-.12.02-.013.582c-.01.448-.026.586-.074.601-.038.013-.05.001-.03-.031zm-49.045-.07c.163-.437.214-.558.229-.542.02.02-.189.566-.232.605-.017.014-.015-.014.003-.063zm11.163-.022c0-.06.01-.086.022-.055.012.03.012.08 0 .11-.012.031-.022.006-.022-.055zm4.391-.022c.001-.073.011-.098.022-.055a.254.254 0 0 1-.001.133c-.013.03-.022-.005-.02-.078zm5.047.067c0-.033.013-.046.03-.03a.042.042 0 0 1 0 .06c-.017.015-.03.002-.03-.03zm34.322 0c0-.033.013-.046.03-.03a.042.042 0 0 1 0 .06c-.017.015-.03.002-.03-.03zm-5.97-.056-.096-.166c-.06-.107-.06-.108.011-.022.09.107.168.244.139.244-.012 0-.036-.025-.054-.056zm-37.527-.21c-.002-.135.013-.27.033-.302.02-.032.029.056.018.2-.024.35-.048.396-.051.101zm44.633.153c-.043-.112-.03-.14.022-.05.026.044.038.09.026.101-.011.012-.033-.011-.048-.051zm9.25-.054c-.115-.166-.152-.233-.13-.233.011 0 .072.08.137.178.131.198.125.246-.007.055zm-71.746-.1c0-.11.009-.154.02-.1.01.056.01.145 0 .2-.011.055-.02.01-.02-.1zm20.62 0c0-.11.009-.154.02-.1.01.056.01.145 0 .2-.011.055-.02.01-.02-.1zm6.307-.044c-.042-.125-.066-.237-.054-.25.013-.012.057.08.098.206.042.125.066.237.054.25-.013.012-.057-.08-.098-.206zm.332.178c0-.033.014-.046.03-.03a.042.042 0 0 1 0 .06c-.016.015-.03.002-.03-.03zm34.174-.045c.016-.06.065-.19.11-.288.046-.098.07-.128.056-.067-.015.061-.065.191-.11.289-.046.097-.071.127-.056.066zm10.005.033c-.087-.112-.116-.18-.064-.148.053.032.158.204.125.204-.01 0-.037-.025-.061-.056zm-65.552-.033c0-.032.013-.046.03-.03a.042.042 0 0 1 0 .06c-.017.016-.03.003-.03-.03zm5.177.013a.632.632 0 0 1 .2 0c.054.01.01.02-.1.02s-.155-.01-.1-.02zm2.634-.18a26.58 26.58 0 0 0-.23-.354c-.053-.08-.086-.144-.073-.144.025 0 .34.453.423.61.095.177.018.106-.12-.111zm13.03.167c0-.032.014-.046.03-.03a.042.042 0 0 1 0 .06c-.016.016-.03.003-.03-.03zm25.41.011a.56.56 0 0 1 .07-.144c.038-.06.057-.074.043-.03a.598.598 0 0 0-.025.145c0 .034-.02.063-.045.063-.024 0-.043-.015-.042-.034zm.474-.062a6.238 6.238 0 0 0-.056-.2c-.014-.045.007-.025.047.043.04.069.065.158.056.2-.011.052-.025.04-.047-.043zm9.109.051c0-.118.192-.598.238-.594.047.003.216.415.184.448-.01.01-.054-.086-.097-.214l-.077-.234-.124.33c-.069.182-.124.3-.124.264zm.441-.026c.002-.051.013-.062.027-.026.013.032.011.07-.003.084-.015.015-.026-.011-.024-.058zm-37.873-.018c0-.033.014-.046.03-.03a.042.042 0 0 1 0 .06c-.016.016-.03.002-.03-.03zm3.027-.056.098-.29c.042-.13.085-.229.095-.22.022.023-.16.566-.19.566-.013 0-.015-.025-.003-.056zm-21.552-.218c-.116-.311-.16-.463-.128-.433.044.04.256.628.235.649-.011.01-.06-.087-.107-.216zm11.785.207c0-.012.01-.022.022-.022.013 0 .022.01.022.022 0 .012-.01.022-.022.022a.022.022 0 0 1-.022-.022zm9.11-.083c-.016-.064-.047-.116-.069-.116-.021 0-.04-.03-.04-.067 0-.036.02-.066.043-.066.044 0 .147.313.114.346-.01.01-.032-.033-.048-.097zm35.658-.186c-.065-.163-.11-.303-.101-.312.009-.01.07.115.137.277.066.161.112.301.101.312-.01.01-.071-.115-.137-.277zm-37.983.203c0-.033.013-.046.03-.03a.042.042 0 0 1 0 .06c-.017.016-.03.002-.03-.03zm-18.929-.367a4.663 4.663 0 0 1-.139-.4c0-.017.075-.028.166-.024l.167.007-.148.018c-.118.014-.142.033-.118.093.138.338.244.643.23.657-.01.01-.081-.148-.158-.351zm14.958.216c.066-.547.713-.859 1.226-.589.183.097.395.337.394.447 0 .027-.05-.034-.11-.134-.25-.416-.915-.492-1.263-.144a1.038 1.038 0 0 0-.194.357c-.066.21-.071.217-.053.063zm1.63.04c0-.073.01-.098.021-.055a.254.254 0 0 1-.001.133c-.013.03-.022-.005-.02-.078zm29.967.089c0-.013.01-.023.022-.023.012 0 .022.01.022.023 0 .012-.01.022-.022.022a.022.022 0 0 1-.022-.022zm.87-.046c-.043-.112-.03-.14.022-.05.026.044.038.09.026.1-.011.012-.033-.01-.048-.05zM.917 25.69a.718.718 0 0 1-.022-.266l.014-.194.355-.003.355-.003-.32.016-.32.016-.013.254c-.01.164-.027.227-.05.18zm.659.008c.05-.02.118-.07.153-.112.055-.066.054-.093-.009-.202-.053-.092-.056-.12-.013-.103.05.02.109.15.11.249.002.064-.177.21-.254.208-.065-.003-.063-.01.013-.04zm15.63.02c0-.012.01-.022.021-.022.013 0 .023.01.023.022 0 .012-.01.022-.023.022a.022.022 0 0 1-.022-.022zm.65-.022c.13-.052.19-.176.144-.298-.043-.113-.13-.14-.529-.159l-.288-.014.346-.008c.314-.008.356.001.454.1.06.06.11.136.11.17 0 .08-.188.254-.27.25-.035 0-.02-.02.033-.041zm2.324.032.097-.073c.069-.052.075-.05.05.013-.015.04-.058.072-.096.072s-.061-.005-.051-.012zm3.641-.098c.001-.074.011-.098.022-.055a.254.254 0 0 1-.001.133c-.013.03-.022-.005-.02-.078zm21.9-.056c-.083-.147-.084-.155-.007-.066a.88.88 0 0 1 .11.155c.017.039.044.028.09-.033.037-.05.098-.129.137-.178.068-.085.069-.084.019.022-.062.131-.175.266-.221.266-.018 0-.076-.074-.127-.166zm.464.118a9.4 9.4 0 0 1 .228-.334c.106-.15.192-.284.192-.3 0-.015-.06-.027-.133-.027-.073 0-.133.015-.133.033a.607.607 0 0 1-.113.167l-.113.133.106-.178c.09-.148.134-.18.269-.19.105-.01.161.004.161.04 0 .058-.394.652-.46.693-.024.015-.026-.001-.004-.037zm6.46-.206.013-.255.333-.004.332-.003-.325.016-.326.017.015.242c.009.133 0 .242-.02.241-.02 0-.03-.114-.022-.255zm.7.2c.14-.074.177-.292.062-.376-.043-.031-.055-.057-.027-.057.029 0 .085.05.126.113.07.108.07.12-.015.233-.048.066-.126.125-.173.133-.06.01-.052-.004.027-.046zm-35.075-.012c0-.012.01-.022.022-.022.012 0 .022.01.022.022 0 .012-.01.022-.022.022a.022.022 0 0 1-.022-.022zm12.338-.033.098-.291c.043-.13.085-.228.095-.219.022.023-.16.565-.19.565-.013 0-.014-.025-.003-.055zm27.643-.034c.014-.06.064-.19.11-.288.045-.097.07-.127.056-.066-.014.06-.064.19-.11.288-.045.097-.07.127-.056.066zm.238.067c0-.012.01-.022.022-.022.013 0 .023.01.023.022 0 .012-.01.022-.023.022a.022.022 0 0 1-.022-.022zm-52.234-.058c-.004-.097.123-.306.205-.338.064-.025.06-.011-.017.072a.825.825 0 0 0-.14.213c-.025.061-.046.085-.048.053zm13.816-.075c-.184-.284-.222-.356-.153-.288.078.076.276.399.245.399-.012 0-.053-.05-.092-.111zm-7.473.044c0-.024.045-.164.098-.31.093-.255.104-.267.263-.28.092-.008.167-.004.167.007 0 .053-.193.516-.208.5-.01-.009.021-.119.069-.244l.086-.227h-.122c-.105 0-.13.026-.178.188-.058.196-.177.443-.175.366zm5.723-.074a1.01 1.01 0 0 0-.033-.2c-.024-.076-.022-.076.025-.002a.338.338 0 0 1 .033.2l-.019.12zm8.551.087c0-.15.253-.392.406-.388.033.001-.005.03-.083.064a.61.61 0 0 0-.233.209c-.05.08-.09.133-.09.115zm.965-.128a.55.55 0 0 0-.22-.195c-.08-.035-.122-.064-.093-.065.112-.004.268.1.343.227.043.073.07.14.062.148-.009.01-.05-.043-.092-.115zm2.228.093c0-.032.013-.046.03-.03a.042.042 0 0 1 0 .06c-.017.016-.03.003-.03-.03zm26.317-.046a.513.513 0 0 0-.122-.177c-.051-.048-.069-.087-.04-.087.03 0 .095.067.144.15.067.115.112.146.187.132.092-.017.093-.016.01.024-.13.062-.147.058-.179-.042zm2.172.002c.012-.061.023-.126.023-.144.001-.067.134-.032.134.035 0 .039-.02.057-.045.042-.024-.015-.065.019-.09.075-.045.102-.045.102-.022-.008zm.157.044c0-.032.013-.046.03-.03a.042.042 0 0 1 0 .06c-.017.016-.03.003-.03-.03zm-51.527-.038c0-.021.05-.029.11-.017.061.012.111.029.111.038 0 .01-.05.017-.11.017-.061 0-.111-.017-.111-.038zm13.239-.087a.936.936 0 0 1 .15-.2c.04-.032.031.003-.023.096a.936.936 0 0 1-.15.2c-.04.032-.03-.004.023-.096zm4.6.047a.729.729 0 0 0-.075-.146c-.027-.038 0-.015.062.05.06.066.15.13.2.142.066.016.058.023-.035.027-.08.003-.133-.022-.151-.073zm33.86-.185c-.098-.25-.115-.27-.246-.27-.077 0-.15.021-.163.046-.012.025-.017.02-.011-.01.007-.034.079-.057.178-.057.161 0 .17.008.276.26.06.142.1.268.09.28-.012.01-.068-.101-.125-.25zm-51.484.043c-.156-.367-.706-.467-1.11-.202-.15.098-.174.105-.109.031.21-.237.787-.298 1.04-.11.13.098.29.343.267.41-.008.023-.048-.035-.088-.13zm17.888.032c-.048-.13-.047-.136.012-.058.057.074.09.202.053.202a.574.574 0 0 1-.065-.144zm7.749.1c0-.033.013-.046.03-.03a.042.042 0 0 1 0 .059c-.017.016-.03.003-.03-.03zm-9.18-.023c0-.012.01-.022.023-.022.012 0 .022.01.022.022 0 .012-.01.022-.022.022a.022.022 0 0 1-.022-.022zm.349-.053c.053-.1.133-.168.162-.139.009.009-.036.066-.1.126-.105.102-.11.103-.062.013zm32.422.031c0-.032.013-.046.03-.03a.042.042 0 0 1 0 .06c-.017.016-.03.003-.03-.03zm11.247-.04c.014-.06.054-.174.088-.255.054-.128.084-.148.215-.148.11 0 .167.026.203.092.027.05.04.102.028.114-.012.012-.035-.02-.051-.07-.022-.07-.067-.092-.182-.092-.091 0-.152.022-.153.055 0 .03-.04.136-.088.233-.048.098-.075.13-.06.07zM7.07 25.34c-.067-.075-.07-.086-.01-.064.04.015.082.056.096.091.033.086.01.08-.086-.028zm16.83.02c0-.076.232-.275.409-.349.282-.118.61-.08.815.091l.129.108-.218-.112c-.364-.187-.8-.114-1.024.17-.06.077-.11.119-.11.093zm9.09-.019c0-.032.014-.045.03-.03a.042.042 0 0 1 0 .06c-.016.016-.03.003-.03-.03zm42.59-.064c-.096-.146-.406-.29-.625-.29-.1 0-.27.046-.385.105-.135.068-.189.081-.152.037.26-.314 1.033-.202 1.237.179.062.116.007.094-.075-.031zm-41.836-.024c0-.033.014-.046.03-.03a.042.042 0 0 1 0 .06c-.016.015-.03.002-.03-.03zm-27.167-.03a.042.042 0 0 1 .059 0c.016.016.003.03-.03.03-.032 0-.046-.014-.03-.03zm.31 0a.042.042 0 0 1 .06 0c.015.016.002.03-.03.03-.033 0-.046-.014-.03-.03zm2.483 0a.042.042 0 0 1 .06 0c.016.016.002.03-.03.03-.033 0-.046-.014-.03-.03zm.31 0a.042.042 0 0 1 .06 0c.016.016.003.03-.03.03-.032 0-.046-.014-.03-.03zm9.81-.069c-.101-.145-.087-.167.107-.167.138 0 .188.021.228.1.051.096.05.097-.035.022a.368.368 0 0 0-.21-.078c-.122 0-.123.002-.052.11.09.138.057.149-.037.013zm4.957.07a.042.042 0 0 1 .06 0c.015.015.002.029-.03.029-.033 0-.046-.014-.03-.03zm.31 0a.042.042 0 0 1 .06 0c.016.015.003.029-.03.029-.032 0-.046-.014-.03-.03zm18.954-.004c.238-.014.277-.028.277-.101 0-.08-.043-.087-.699-.1l-.698-.013.72-.01.721-.01v.267l-.3-.009-.298-.008zm6.367.003a.042.042 0 0 1 .059 0c.016.016.003.03-.03.03-.032 0-.046-.014-.03-.03zm.31 0a.042.042 0 0 1 .06 0c.015.016.002.03-.03.03-.033 0-.046-.014-.03-.03zm5.676 0a.042.042 0 0 1 .06 0c.015.016.002.03-.03.03-.033 0-.046-.014-.03-.03zm19.023 0a.042.042 0 0 1 .06 0c.016.016.003.03-.03.03s-.046-.014-.03-.03zm-63.293-.103c0-.033.014-.046.03-.03a.042.042 0 0 1 0 .06c-.016.015-.03.002-.03-.03zm21.995 0c0-.033.013-.046.03-.03a.042.042 0 0 1 0 .06c-.017.015-.03.002-.03-.03zm5.854-1.163c0-.068.012-.083.036-.045.027.043.078.026.21-.069.225-.162.285-.197.285-.169 0 .013-.12.105-.266.204-.254.172-.266.176-.265.08zm1.773-.088c-.342-.242-.387-.306-.067-.093.147.098.295.187.33.198.036.011.046.031.023.044-.023.013-.152-.054-.286-.15zm.222.009c0-.033.013-.046.03-.03a.042.042 0 0 1 0 .06c-.017.016-.03.003-.03-.03zm-1.952-.133c0-.033.014-.046.03-.03a.042.042 0 0 1 0 .06c-.016.016-.03.003-.03-.03zm1.91-.026c.003-.052.013-.062.028-.027.012.032.01.07-.004.085-.015.015-.025-.011-.023-.058zm-1.355-.107c.015-.024.037-.044.05-.044.012 0 .01.02-.006.044-.015.024-.037.044-.05.044-.012 0-.01-.02.006-.044zm-.497-.046a6.57 6.57 0 0 0 .074-.325c.03-.141.064-.246.077-.234.03.03-.072.471-.129.56-.037.06-.04.059-.022 0zm1.13-.065c-.173-.117-.278-.14-.323-.067a.365.365 0 0 1-.124.091c-.068.033-.058.013.036-.066.073-.062.158-.113.189-.113.054 0 .41.216.41.25 0 .028-.022.018-.188-.095zm.675.022c0-.032.013-.046.03-.03a.042.042 0 0 1 0 .06c-.017.016-.03.003-.03-.03zm-.109-.403c-.073-.321-.073-.322.027-.414l.1-.092-.076.093c-.072.087-.072.114-.007.394.038.165.06.309.05.32-.012.01-.054-.125-.094-.301zm-41.088.115a28.255 28.255 0 0 1-.004-.432l-.002-.41 19.116-.012 19.116-.01v.886H19.467c-10.512 0-19.113-.01-19.114-.022zm38.182-.421v-.4H.399v.799h38.136Zm4.168 0v-.444H78.71v.887H42.703Zm35.963 0v-.4H42.747v.799h35.919zm-38.757.088c0-.032.014-.045.03-.03a.042.042 0 0 1 0 .06c-.016.016-.03.003-.03-.03zm-.092-.21-.107-.122.122.107c.114.1.142.137.107.137a.77.77 0 0 1-.122-.122zm2.021-.298c.147-.138.326-.292.4-.344.178-.125.068-.02-.333.316l-.333.28zm-2.353.01-.13-.144.144.13c.08.071.144.136.144.144 0 .034-.036.004-.158-.13zm-.34-.279c-.091-.084-.15-.154-.13-.154.019 0 .102.07.185.155.193.2.16.199-.055 0zm.31-.186c.079-.01.209-.01.288 0 .08.01.014.018-.144.018-.159 0-.224-.008-.144-.018zm2.128 0c.08-.01.21-.01.288 0 .08.01.015.018-.144.018-.158 0-.223-.008-.144-.018zm-1.63-.03c0-.009.069-.025.153-.034.083-.01.142-.002.13.017-.021.035-.282.051-.282.018zm1.139-.012a.123.123 0 0 1-.03-.077c.001-.031.013-.03.034.004.019.028.103.06.188.07l.155.019-.159.007c-.087.004-.172-.006-.188-.023zm-.8-.192c.015-.06.055-.17.088-.244.048-.107.055-.11.033-.022-.015.061-.054.17-.088.244-.048.107-.055.111-.033.022zm.726 0c0-.032.013-.046.03-.03a.042.042 0 0 1 0 .06c-.017.016-.03.003-.03-.03zm-.13-.335c-.052-.14-.087-.26-.078-.27.01-.01.06.096.114.234.052.138.087.26.077.27-.01.01-.061-.095-.113-.234zm-.447-.108c0-.033.014-.046.03-.03a.042.042 0 0 1 0 .06c-.016.016-.03.002-.03-.03zm.045-.111c0-.012.01-.022.022-.022.012 0 .022.01.022.022 0 .012-.01.022-.022.022a.022.022 0 0 1-.022-.022zm.044-.111c0-.032.013-.046.03-.03a.042.042 0 0 1 0 .06c-.017.016-.03.003-.03-.03zm.222-.044c0-.033.013-.046.03-.03a.042.042 0 0 1 0 .06c-.017.016-.03.002-.03-.03zm-.152-.133a.528.528 0 0 1 .049-.132c.023-.026.101.093.101.154 0 .024-.017.017-.038-.017-.031-.049-.048-.044-.09.023-.046.073-.048.07-.022-.028zM2.31 19.734c-.155-.035-.295-.078-.31-.094-.015-.017.032-.016.105.002.587.145 1.26.145 2.057.002.064-.011.026.01-.083.05-.288.1-1.394.125-1.769.04zm34.05.016a.647.647 0 0 1-.199-.09c-.024-.024.016-.019.089.011.078.033.35.057.658.059.5.003.529-.002.61-.102.046-.057.084-.085.084-.062 0 .023-.042.08-.093.127-.077.07-.17.086-.543.093-.248.005-.52-.011-.605-.036zm9.449.002c-.343-.061-.345-.1-.003-.056.35.045 1.178.048 1.663.007.263-.023.314-.02.2.013-.22.06-1.572.087-1.86.036zm5.426.002a1.958 1.958 0 0 1-.333-.087l-.107-.047.115.022c.644.126 1.178.14 1.701.047.394-.07.48-.062.192.02-.244.068-1.275.098-1.568.045zm6.688.016c-.13-.019-.275-.165-.218-.222.011-.012.034.02.05.07.027.086.063.093.473.093.474 0 .576-.03.743-.215.105-.116.105-.116.04-.007-.109.18-.31.27-.642.286a3.13 3.13 0 0 1-.446-.005zm14.05-.022a1.13 1.13 0 0 1-.254-.111c-.104-.069-.405-.617-.361-.66.012-.013.066.085.12.217.136.334.283.461.604.522.311.058.926.026 1.021-.053.045-.037.063-.116.054-.236-.013-.17-.022-.182-.176-.207-.197-.032-.371-.14-.44-.274-.036-.073-.014-.061.084.042a.619.619 0 0 0 .248.167l.221.045c.075.016.11.058.123.144.031.235-.007.327-.164.393-.172.072-.844.079-1.08.011zM11.43 19.71c-.077-.046-.457-.575-.414-.575.012 0 .103.12.202.264.145.215.208.27.333.293.198.037.847.009.895-.04.02-.02.047-1.34.059-2.935.014-1.843.038-2.915.066-2.943.025-.024.155-.05.289-.057l.244-.014.026-.177.027-.178.007.158c.008.21-.058.264-.329.264h-.228l-.029.406c-.016.223-.029 1.526-.029 2.896 0 2.079-.01 2.504-.063 2.576-.054.074-.126.088-.52.098-.268.007-.491-.008-.536-.036zm-4.38-.112c-.106-.278.017-.418.365-.418h.212l.001-.81c.004-3.468-.004-4.532-.033-4.561-.02-.019-.124-.04-.234-.048-.19-.013-.202-.022-.24-.178-.072-.291-.042-.301.906-.301.752 0 .835.007.862.078.023.062.018.066-.027.022-.04-.04-.276-.056-.862-.056-.885 0-.885 0-.832.267.025.125.039.132.24.132.118 0 .223.015.234.034.05.082.082 2.45.052 3.884l-.033 1.58h-.23c-.312 0-.397.068-.357.281l.031.165.937-.012.938-.012v-.399l-.244-.022-.244-.022-.012-2.206c-.006-1.214.004-2.206.022-2.206.041.001.55.983.524 1.01-.01.01-.129-.198-.263-.463l-.244-.48-.002 1.928c-.001 1.061.01 2.034.026 2.162l.028.233h.188c.215 0 .291.066.297.261.007.265-.016.27-1.036.27h-.927zm7.639.08c.31-.007.82-.007 1.13 0 .312.008.057.014-.565.014s-.876-.006-.565-.013zm3.876.004c-.016-.016-.03-.06-.03-.097 0-.057.01-.056.056.007.05.066.19.076 1.23.087l1.176.012-1.201.01c-.66.006-1.215-.003-1.23-.019zm6.134-.004c0-.018.564-.033 1.253-.033h1.253l.015-.104a.657.657 0 0 0-.012-.21c-.026-.102-.045-.107-.374-.107h-.348l-.029-.34c-.053-.629-.035-1.275.039-1.37.061-.08.063-.076.02.045-.031.086-.037.386-.016.876l.03.745h.318c.187 0 .339.021.37.053.069.069.069.357 0 .426-.06.06-2.519.079-2.519.02zm7.244-.035c-.015-.037-.014-.08.001-.096.015-.015.028.006.028.046 0 .066.117.074 1.164.086l1.164.012-1.166.01c-1.015.01-1.168.002-1.191-.058zm6.28-.045c-.103-.271-.034-.362.29-.382l.221-.014.03-.643c.031-.671.032-3.49.002-4.31l-.018-.475-.25-.013c-.25-.013-.252-.015-.292-.178-.078-.316-.192-.301 2.304-.301h2.23l.097.122c.079.1.092.16.073.327a1.66 1.66 0 0 1-.093.371c-.054.129-.086.158-.147.134a7.9 7.9 0 0 0-.477-.136c-.22-.057-.36-.105-.31-.106.087-.001.642.137.779.194.088.036.196-.262.196-.544 0-.332.108-.318-2.376-.318-1.722 0-2.209.012-2.225.056a.548.548 0 0 0 0 .197c.02.139.027.143.271.155l.25.014.028.465c.036.6.036 3.556 0 4.39l-.028.643-.25.013c-.274.015-.303.044-.27.264l.02.144 2.202.011 2.2.012-2.206.011-2.208.01zm24.826.08c.617-.006 1.615-.006 2.217 0 .602.008.096.013-1.123.013-1.22 0-1.712-.006-1.094-.012zm5.096 0c.323-.007.852-.007 1.175 0 .323.008.059.014-.587.014-.647 0-.911-.006-.588-.013zm6.734-.036a.366.366 0 0 1-.024-.122c.001-.029.02-.007.043.048l.04.1h1.193c1.332 0 1.343-.003 1.264-.279l-.04-.143-.354-.022-.353-.022-.012-.817c-.007-.45.003-.833.022-.852.019-.019.028.24.02.573-.008.335-.001.713.014.84l.029.234h.296c.163 0 .322.017.353.037.096.061.118.336.033.42-.066.066-.212.075-1.286.075-1.064 0-1.215-.009-1.238-.07zm-58.438-.086a.608.608 0 0 0-.008-.22c-.026-.105-.045-.112-.315-.112-.158 0-.287-.015-.287-.033 0-.019.124-.027.277-.02.19.01.294.037.332.087.063.081.075.348.018.383-.021.013-.029-.025-.017-.085zm4.611 0a.604.604 0 0 0-.006-.218c-.026-.104-.048-.111-.371-.123l-.343-.013-.013-2.572c-.006-1.415 0-2.62.014-2.678l.025-.106.586.026c.321.014.645.045.718.068.098.032.05.035-.178.014a9.32 9.32 0 0 0-.71-.03h-.398l-.012 2.628-.011 2.628h.331c.283 0 .339.012.378.085.055.104.06.344.008.376-.021.013-.029-.025-.018-.085zm13.27.09c0-.013.01-.023.022-.023.012 0 .022.01.022.022 0 .012-.01.022-.022.022a.022.022 0 0 1-.022-.022zm8.425-.01c.037-.014.107-.043.155-.066.088-.04.088-.04.003.028a.289.289 0 0 1-.155.066c-.06-.003-.06-.007-.003-.028zm2.653.001c.032-.013.07-.011.084.004.015.014-.011.025-.058.023-.051-.002-.062-.013-.026-.027zm2.483 0c.032-.013.07-.011.085.004.014.014-.012.025-.058.023-.052-.002-.063-.013-.027-.027zm18.535 0c.032-.013.07-.011.085.004.015.014-.011.025-.058.023-.052-.002-.062-.013-.027-.027zm3.548-.142c.021-.22-.042-.263-.415-.282l-.309-.016.343-.009c.298-.007.348.003.388.077.053.1.06.343.011.374-.018.011-.027-.053-.018-.144zm-68.22.043a.687.687 0 0 1-.172-.137c-.025-.04.292.134.373.206.06.052-.084.003-.202-.07zm2.57.056a.042.042 0 0 1 .06 0c.015.016.002.03-.03.03-.033 0-.046-.014-.03-.03zm9.793-.136c-.01-.226.063-.278.386-.278h.222l.017-.211.016-.21.008.232.008.233h-.21c-.354.002-.404.03-.422.237l-.017.184zm21.911.11c-.1-.13-.107-.182-.01-.09.056.054.092.11.078.123-.013.013-.044-.001-.068-.032zm9.255.033c0-.012.01-.022.022-.022.012 0 .022.01.022.022 0 .012-.01.022-.022.022a.022.022 0 0 1-.022-.022zm3.004-.11c.152-.071.277-.154.277-.184s.013-.04.029-.025c.072.072-.33.337-.517.34-.036 0 .059-.058.211-.13zm2.42.103a.042.042 0 0 1 .06 0c.016.016.003.03-.03.03-.032 0-.046-.014-.03-.03zm2.35 0a.042.042 0 0 1 .06 0c.016.016.003.03-.03.03-.032 0-.046-.014-.03-.03zm13.576-.071c.079-.123.08-.41.004-.632-.02-.059-.008-.051.037.023a.81.81 0 0 1 .07.336c0 .177-.02.245-.094.31l-.096.085zm.917.011c0-.06.01-.086.023-.055.012.03.012.08 0 .11-.013.031-.023.006-.023-.055zm-63.104.028c.045-.041.395-.204.395-.185 0 .026-.334.202-.382.202-.017 0-.023-.008-.013-.017zm20.227-.116c0-.086.01-.12.02-.078a.364.364 0 0 1 0 .155c-.01.043-.02.008-.02-.077zm9.71.022c0-.073.01-.098.022-.055a.254.254 0 0 1-.002.133c-.012.03-.021-.005-.02-.078zm10.656.041c-.218-.113-.239-.17-.022-.063.222.11.255.133.196.132a.676.676 0 0 1-.174-.069zm5.354-.044c-.257-.154-.237-.179.034-.042.206.105.268.156.188.155-.018 0-.118-.051-.222-.113zm2.783.094c0-.01.121-.084.269-.163.326-.174.7-.538.886-.863.076-.132.147-.24.16-.24.048 0-.222.437-.395.64-.224.261-.92.736-.92.626zm8.746-.113c0-.086.009-.12.02-.078a.364.364 0 0 1 0 .155c-.011.043-.02.008-.02-.077zm-18.945.022c0-.012.01-.022.022-.022.012 0 .022.01.022.022 0 .012-.01.022-.022.022a.022.022 0 0 1-.022-.022zm14.678-.022c0-.033.013-.046.03-.03a.042.042 0 0 1 0 .06c-.017.015-.03.002-.03-.03zM18.49 19.4c0-.032.014-.046.03-.03a.042.042 0 0 1 0 .06c-.016.016-.03.003-.03-.03zm19.057-.08c-.015-.06-.075-.091-.21-.109a.625.625 0 0 1-.472-.354c-.09-.174-.042-.15.073.034.11.18.291.288.482.288.095 0 .14.026.161.092.016.05.02.1.009.112-.011.012-.03-.017-.043-.063zm5.45-.125c-.017-.115-.02-.217-.01-.227.01-.01.033.073.05.186.016.114.02.216.009.227-.012.012-.034-.072-.05-.186zm-41.65-.042c-.226-.386-.252-.564-.262-1.815l-.01-1.153.032 1.131c.035 1.284.099 1.635.346 1.918.037.043.056.09.043.104-.014.014-.081-.07-.149-.185zm3.628.09c.067-.07.133-.114.147-.1.014.014-.04.071-.12.126l-.147.1Zm30.812-.112c-.054-.125-.087-.238-.073-.251.013-.014.037.013.054.06.016.046.057.151.09.234.098.244.036.206-.07-.043zm8.82.09c-.084-.075-.113-.116-.064-.093.084.04.28.228.237.228-.01 0-.089-.06-.173-.135zm12.91-.136c-.05-.152-.083-.286-.072-.297.024-.024.042.02.132.322.095.318.05.3-.06-.025zm1.577.182c.015-.06.065-.19.11-.288.045-.097.07-.127.055-.066-.015.06-.064.19-.11.288-.046.097-.07.127-.055.066zm8.44.057c0-.087.156-.145.39-.145h.217l.03-.699c.037-.902.037-3.477 0-4.17l-.03-.537-.266-.013c-.192-.01-.272-.032-.285-.08-.013-.047-.007-.05.02-.014.02.03.157.06.302.067l.265.014.028.288c.038.388.046 4.064.01 4.684l-.029.494-.284.019c-.184.011-.3.04-.326.082-.026.042-.04.045-.041.01zM18.6 19.245c.055-.043.184-.066.364-.066h.278l.014-.366.015-.366.01.388.008.388h-.263c-.144 0-.32.02-.388.045-.116.041-.119.04-.038-.023zm13.391 0c.051-.04.179-.066.315-.066h.228l.028-1.63c.016-.896.016-2.114 0-2.705l-.028-1.075h-.552l-.03-.155a.445.445 0 0 1 .02-.244c.046-.087.088-.089 1.52-.087.81.002 1.55.017 1.646.034.096.017-.565.024-1.468.015-1.81-.016-1.727-.03-1.67.258.025.125.037.13.298.143l.272.014.029.42c.038.578.044 3.413.009 4.317l-.03.739h-.211c-.117 0-.268.02-.337.045-.116.041-.119.04-.039-.023zm17.95-.127c-.165-.18-.352-.472-.301-.472.011 0 .074.09.138.2.064.11.18.249.256.308.076.06.127.12.113.134-.014.014-.107-.062-.206-.17zm24.975.127c.056-.043.184-.066.363-.066h.277l.017-.189.017-.188.008.21.008.21h-.263c-.145 0-.32.021-.388.046-.117.041-.12.04-.04-.023zm-50.15-.025a1.54 1.54 0 0 1 .377-.035c.364 0 .3.025-.133.05-.189.012-.294.005-.244-.015zm9.201.006-.332-.025-.002-1.031-.001-1.031.013 1.02.013 1.02h.33c.18 0 .34.02.356.044.015.024.011.04-.008.036a7.797 7.797 0 0 0-.369-.033zm28.003.02c.108-.038.505-.05.484-.016-.013.02-.137.036-.276.034-.139-.002-.232-.01-.208-.019zm-58.656-.144c.078-.01.218-.01.31 0s.028.018-.143.018c-.17 0-.246-.008-.167-.018zm36.561-.005c-.043-.027-.053-.313-.044-1.274l.012-1.239 1.207-.011c1.361-.014 1.315 0 1.267-.357l-.025-.186H39.82l.012-1.075.012-1.075.576-.012c.317-.006.696.006.843.027.201.028.066.037-.555.033l-.82-.004-.012 1.03-.012 1.03 1.23.012 1.23.012.039.195a.522.522 0 0 1-.009.3l-.047.104h-2.441v1.186c.001.652.017 1.21.036 1.24.022.036.21.059.564.068l.53.014-.531.01c-.293.004-.558-.008-.589-.028zm6.664.015c.024-.008.233-.023.465-.034.232-.01.372-.004.31.014-.106.032-.867.051-.775.02zm5.21-.02c-.061-.019.059-.024.266-.012.207.012.385.03.395.038.035.03-.55.007-.661-.026zm11.807-.035c-.016-.043-.03-.616-.032-1.275l-.002-1.198 1.242-.022 1.241-.022.027-.222.026-.221.007.201c.004.111-.017.226-.046.255-.039.04-.382.054-1.264.054h-1.21v.61c0 .335.013.893.029 1.24l.028.63.537.014.536.014-.544.01c-.483.008-.548 0-.575-.068zm-60.505.003c.032-.013.07-.012.085.003s-.011.025-.058.023c-.051-.002-.062-.012-.027-.026zm.799 0c.032-.013.07-.012.085.003.014.015-.012.025-.059.023-.051-.002-.062-.012-.026-.026zm1.376-.092a.6.6 0 0 1 .122-.144c.038 0-.066.162-.145.225-.055.045-.048.021.023-.081zm5.563-.155-.254-.4c-.044-.066-.069-.121-.055-.121.025 0 .37.517.47.703.104.196.006.085-.161-.182zm30.373.245a.98.98 0 0 1 .244 0c.067.01.012.019-.122.019s-.19-.009-.122-.019zm5.213.002c.032-.013.07-.012.085.003s-.011.025-.058.023c-.052-.002-.062-.012-.027-.026zm2.181-.014c0-.033.014-.046.03-.03a.042.042 0 0 1 0 .06c-.016.015-.03.002-.03-.03zm3.938.014c.032-.013.07-.012.085.003s-.011.025-.058.023c-.051-.002-.062-.012-.027-.026zm12.347-.002a.98.98 0 0 1 .244 0c.067.01.012.019-.122.019s-.189-.009-.122-.019zm-61.944-.042a.042.042 0 0 1 .06 0c.015.016.002.03-.03.03-.033 0-.046-.014-.03-.03zm1.25-.055c.242-.112.403-.296.51-.583.07-.189.084-.208.065-.086-.05.328-.438.753-.687.752-.036 0 .014-.037.111-.083zm21.272-.593c-.01-.65-.018-.716-.122-.92-.061-.121-.101-.22-.09-.22.013 0 .074.1.136.222.108.214.112.247.099.92l-.013.698zm16.32.647a.364.364 0 0 1 .155 0c.042.011.007.02-.078.02s-.12-.009-.078-.02zm2.6-.109c-.125-.175-.305-.608-.301-.725.001-.049.047.045.103.21.055.163.153.377.219.476.139.21.123.241-.02.04zm1.837.11a.042.042 0 0 1 .06 0c.016.016.003.03-.03.03s-.046-.014-.03-.03zm1.352 0c.032-.014.07-.012.085.003s-.011.025-.058.023c-.052-.002-.062-.013-.027-.027zm4.014 0a.042.042 0 0 1 .06 0c.015.016.002.03-.03.03-.033 0-.046-.014-.03-.03zm1.109 0a.042.042 0 0 1 .059 0c.016.016.003.03-.03.03-.032 0-.046-.014-.03-.03zm12.767-.001a.364.364 0 0 1 .155 0c.043.011.008.02-.078.02-.085 0-.12-.009-.077-.02zM2.55 18.82c-.19-.175-.38-.553-.375-.74.002-.042.04.039.084.18.105.327.185.446.41.61.1.072.159.131.13.131-.028 0-.14-.081-.249-.181zm39.842.075c.232-.06.429-.101.437-.093.027.027-.42.147-.645.174-.133.016-.054-.014.208-.081zm3.513.032c-.148-.072-.542-.476-.542-.555 0-.023.066.044.146.15.08.105.254.256.386.335.253.151.258.193.01.07zm1.809.042c.036-.014.171-.07.299-.127.128-.056.233-.092.233-.08 0 .035-.46.239-.532.235-.06-.002-.06-.006 0-.028zm3.614-.02c-.14-.076-.467-.401-.536-.533-.097-.184-.074-.21.03-.036.135.225.258.35.481.494.19.122.207.176.025.076zm1.445.038c.01-.008.088-.06.173-.115l.155-.1-.124.114c-.068.064-.147.115-.174.115-.027 0-.04-.006-.03-.014zm13.21-.07c.183-.042.383-.091.444-.11.085-.024.094-.021.038.014-.1.064-.567.181-.702.176-.062-.002.037-.038.22-.08zm-17.566-.098c-.065-.072-.092-.128-.06-.128.053 0 .222.214.192.243-.008.008-.068-.044-.132-.115zm-5.492.071c0-.012.01-.022.022-.022.012 0 .022.01.022.022 0 .013-.01.023-.022.023a.022.022 0 0 1-.022-.023zm28.38-.022c0-.032.013-.046.029-.03a.042.042 0 0 1 0 .06c-.016.016-.03.003-.03-.03zm-35.65-.114c.003-.052.013-.063.028-.027.012.032.01.07-.004.085-.015.015-.025-.012-.023-.058zm7.225.048c0-.013.01-.022.022-.022.013 0 .023.01.023.022 0 .012-.01.022-.023.022a.022.022 0 0 1-.022-.022zm19.62-2.35c0-1.318.006-1.85.013-1.184.007.667.007 1.744 0 2.395-.007.65-.012.105-.012-1.212zm6.73 1.474-.01-.92.1.005c.074.004.08.01.023.025-.069.018-.078.11-.09.915l-.012.895zm3.176.798c-.147-.272-.482-.978-.47-.99.009-.008.139.234.29.537.151.304.266.553.255.553-.011 0-.045-.045-.075-.1zm-67.04.033c0-.012.01-.022.022-.022.012 0 .022.01.022.022 0 .013-.01.023-.022.023a.022.022 0 0 1-.022-.023zm53.921-.022c0-.032.014-.046.03-.03a.042.042 0 0 1 0 .06c-.016.016-.03.003-.03-.03zm11.909-.211-.101-.321c-.018-.06-.015-.06.027 0 .056.078.196.534.17.559-.008.009-.052-.098-.096-.238zm-18.028.174c0-.02.043-.076.095-.122l.096-.085-.078.122c-.081.126-.113.15-.113.085zm4.213-.007c0-.033.013-.046.03-.03a.042.042 0 0 1 0 .06c-.017.016-.03.002-.03-.03zm1.135.014a.572.572 0 0 0 .104-.206c.03-.093.064-.16.074-.15.04.04-.097.358-.16.375-.043.012-.05.005-.018-.019zm-53.102-.014a3.952 3.952 0 0 1 .106-.355c.073-.224.1-.275.083-.155-.022.15-.18.577-.189.51zm31.347-.022c0-.013.01-.023.022-.023.012 0 .022.01.022.023 0 .012-.01.022-.022.022a.022.022 0 0 1-.022-.022zm-1.153-.067c0-.032.013-.046.03-.03a.042.042 0 0 1 0 .06c-.017.016-.03.003-.03-.03zm22.753-.228a1.98 1.98 0 0 1-.09-.324c.002-.025.051.092.11.26.06.17.1.315.09.324-.009.01-.058-.107-.11-.26zm.97.228c0-.032.014-.046.03-.03a.042.042 0 0 1 0 .06c-.016.016-.03.003-.03-.03zm-43.524-2.195c0-1.22.006-1.712.013-1.094.007.617.007 1.615 0 2.217-.007.602-.013.097-.013-1.123zm20.796 1.95c-.06-.135-.168-.364-.242-.51-.073-.146-.124-.265-.111-.265.023 0 .4.736.469.915.078.207-.01.1-.116-.14zm12.973.2c0-.032.013-.045.03-.029a.042.042 0 0 1 0 .06c-.017.016-.03.002-.03-.03zm7.672-.287c-.054-.162-.088-.305-.075-.318.013-.013.064.112.114.278.117.391.087.42-.04.04zm-21.765-.02c-.053-.156-.088-.292-.079-.302.028-.027.21.483.191.538-.009.026-.06-.08-.112-.236zm23.917.157c.014-.07.054-.19.09-.266l.064-.138-.025.129a1.39 1.39 0 0 1-.09.266l-.063.138zm16.215-.283c-.008-.343-.028-.45-.123-.636-.063-.124-.105-.234-.095-.244.011-.01.073.093.138.23.106.225.117.292.104.656l-.015.406zm-26.145.117a3.47 3.47 0 0 1-.091-.46c-.016-.137.015-.054.081.222.114.476.12.63.01.238zm3.897.184c.02-.031.082-.189.139-.35.057-.161.104-.26.104-.217.002.109-.173.56-.23.595-.03.019-.036.009-.013-.028zm-41.834-.234-.164-.354c-.117-.25-.012-.11.149.2l.167.321.013-1.707c.008-.939 0-1.972-.015-2.295l-.03-.587h-.238c-.214 0-.241-.011-.265-.106a.786.786 0 0 1-.012-.233l.014-.127.998-.002.998-.001-.976.024-.975.024v.354l.244.022.244.023.027.332c.015.183.03 1.236.033 2.34.007 2.17 0 2.229-.212 1.772zm33.721-.043a1.562 1.562 0 0 1-.084-.322c-.014-.097-.014-.14 0-.094.014.046.062.19.107.322.09.26.074.325-.023.094zm-34.888 0a2.354 2.354 0 0 1-.118-.211c-.052-.107-.051-.108.018-.022.084.102.21.332.183.332-.01 0-.047-.045-.083-.1zm44.132.055c0-.032.014-.046.03-.03a.042.042 0 0 1 0 .06c-.016.016-.03.003-.03-.03zm4.213 0c0-.032.013-.046.03-.03a.042.042 0 0 1 0 .06c-.017.016-.03.003-.03-.03zm-8.026-.022c0-.012.01-.022.022-.022.012 0 .022.01.022.022 0 .012-.01.022-.022.022a.022.022 0 0 1-.022-.022zm-45.932-.178c.001-.073.011-.097.022-.054a.254.254 0 0 1-.001.133c-.012.03-.021-.005-.02-.079zm45.846-.055a2.58 2.58 0 0 1-.064-.37c-.01-.108-.008-.155.003-.107.01.05.05.206.086.349.036.143.056.27.044.282-.012.012-.043-.058-.069-.154zm3.975.055c.014-.073.054-.202.086-.288l.06-.155-.028.155a1.48 1.48 0 0 1-.086.288l-.06.134zm4.198.045c.076-.315.176-.643.191-.627.025.025-.116.565-.17.649-.033.052-.037.048-.02-.022zm12.266.022c0-.033.014-.046.03-.03a.042.042 0 0 1 0 .06c-.016.016-.03.003-.03-.03zM43.992 18c.002-.052.013-.062.027-.027.013.032.011.07-.003.085-.015.015-.026-.011-.024-.058zm14.231-.063c0-.033.013-.046.03-.03a.042.042 0 0 1 0 .06c-.017.016-.03.003-.03-.03zm1.33 0c0-.033.014-.046.03-.03a.042.042 0 0 1 0 .06c-.016.016-.03.003-.03-.03zm11.361-.156c-.053-.11-.087-.199-.075-.199.03 0 .209.36.189.38-.01.01-.06-.072-.114-.181zm-68.777.045c.001-.073.011-.098.022-.054a.254.254 0 0 1-.001.133c-.013.03-.022-.006-.02-.079zm3.503 0c.001-.073.011-.098.022-.054a.254.254 0 0 1-.001.133c-.012.03-.022-.006-.02-.079zm29.607-.158c-.064-.12-.099-.207-.077-.193.048.03.229.375.208.397-.008.008-.067-.084-.131-.204zm21.868.18c0-.032.013-.046.03-.03a.042.042 0 0 1 0 .06c-.017.016-.03.003-.03-.03zm-13.162-.11c.001-.074.011-.098.022-.055a.254.254 0 0 1-.001.133c-.013.03-.022-.005-.02-.079zm14.14-.18c-.051-.165-.084-.308-.073-.32.01-.01.06.117.11.283.05.165.082.309.072.318-.01.01-.059-.117-.11-.281zm1.505.246c0-.033.013-.046.03-.03a.042.042 0 0 1 0 .06c-.017.016-.03.003-.03-.03zm-54.794-.288c0-.171.008-.235.017-.143.01.092.01.231 0 .31-.01.079-.018.003-.017-.167zm5.125-.1c-.277-.465-.272-.455-.25-.455.01 0 .124.175.253.388.289.476.277.455.25.455-.012 0-.126-.175-.253-.388zm4.857-1.053c0-.78.006-1.094.014-.696.007.398.007 1.037 0 1.42-.008.382-.014.056-.014-.724zm38.832 1.308c0-.061.01-.086.023-.056.012.031.012.08 0 .111-.013.03-.023.006-.023-.055zm3.366-.202c-.05-.165-.084-.308-.073-.32.011-.01.062.116.112.28.051.165.084.309.073.32-.01.01-.061-.115-.112-.28zm2.658.22c0-.072.144-.51.162-.492.023.024-.113.518-.143.518-.01 0-.019-.012-.019-.026zm-48.379-.04c0-.012.01-.022.022-.022.013 0 .023.01.023.022 0 .012-.01.022-.023.022a.022.022 0 0 1-.022-.022zm60.47-.21c-.194-.299-.45-.543-.661-.631-.092-.038-.167-.089-.167-.112 0-.04.388.167.528.281.075.061.368.455.442.594.098.184.01.102-.143-.133zm-26.627.077c.001-.073.01-.098.022-.055a.254.254 0 0 1-.001.133c-.013.03-.022-.005-.02-.078zM2.104 15.897c0-.939.006-1.323.013-.853.008.469.008 1.237 0 1.707-.007.47-.013.085-.013-.854zm3.592.067c0-.903.006-1.266.013-.807a62.16 62.16 0 0 1 0 1.641c-.007.444-.013.068-.013-.834zm5.475 1.518c-.029-.054-.14-.269-.25-.476-.108-.208-.166-.339-.127-.292.086.106.482.868.45.868-.012 0-.045-.045-.073-.1zm24.94-.066a5.012 5.012 0 0 0-.124-.189c-.038-.054-.035-.057.02-.014.073.057.24.325.203.325-.013 0-.058-.055-.1-.122zm18.612.052c.003-.052.013-.062.027-.027.013.032.011.07-.003.085-.015.015-.025-.012-.024-.058zm15.944-.09a1.164 1.164 0 0 0-.355-.266c-.125-.058-.201-.106-.17-.106.17-.001.468.201.606.41.111.171.07.151-.081-.038zm-26.749-.572c0-.39.007-.544.015-.341.008.202.008.521 0 .71-.008.187-.015.021-.015-.369zm9.76-.27c0-.535.013-.882.03-.772.04.262.04 1.35 0 1.57-.016.094-.03-.265-.03-.799zm-4.35.27c0-.366.007-.51.015-.32s.008.49 0 .666c-.008.176-.015.02-.015-.346zm27.386.621c0-.012.01-.022.023-.022.012 0 .022.01.022.022 0 .012-.01.022-.022.022a.022.022 0 0 1-.023-.022zm-50.15-.028c-.003-.047.217-.526.242-.526.013 0-.005.066-.038.147-.078.185-.202.416-.204.38zm8.441-.088c-.158-.174-.423-.274-.816-.306l-.377-.03.291-.007c.394-.009.695.087.883.28.083.087.14.157.128.157-.014 0-.062-.042-.109-.094zm23.975-.02c.003-.052.013-.063.027-.027.013.032.011.07-.003.084-.015.015-.025-.011-.024-.058zm17.783.047c0-.024.058-.154.129-.288.07-.134.129-.224.129-.2 0 .025-.058.155-.13.289-.07.134-.128.224-.128.2zm-31.698-.244c0-.11.009-.154.02-.1.01.056.01.145 0 .2-.011.055-.02.01-.02-.1zm5.411-.044c0-.134.009-.189.019-.122a.98.98 0 0 1 0 .244c-.01.067-.019.012-.019-.122zm4.297.111c0-.073.01-.098.022-.055a.254.254 0 0 1-.002.133c-.012.03-.02-.005-.02-.078zM4.8 15.489l-.01-1.716-.278-.013c-.252-.012-.278-.022-.283-.114-.005-.084-.003-.085.014-.011.017.077.056.09.285.09.17 0 .271.019.285.055.012.03.016.814.01 1.74l-.013 1.685zm20.241 1.449c-.065-.133-.11-.243-.098-.243.03 0 .254.45.234.47-.01.008-.07-.094-.136-.227zm32.92.175c.002-.052.012-.062.026-.027.013.032.012.07-.003.085s-.025-.011-.023-.058zm1.085-.04c.012-.074.06-.253.108-.4.048-.146.075-.196.06-.11a3.44 3.44 0 0 1-.108.398c-.045.135-.072.184-.06.111zm16.18-.116c-.062-.124-.105-.235-.095-.245.011-.011.055.056.098.148.043.092.096.203.118.246.022.042.03.077.017.077-.012 0-.074-.102-.137-.226zm-39.456.049a1.384 1.384 0 0 0-.312-.2c-.088-.037-.16-.086-.16-.108 0-.022.084.007.188.065.197.11.522.37.467.374a.699.699 0 0 1-.183-.131zm24.05.088c0-.032.013-.045.029-.03a.042.042 0 0 1 0 .06c-.016.016-.03.003-.03-.03zm-26.208-.048c0-.022.04-.04.09-.04.048 0 .088.007.088.017 0 .01-.04.027-.089.04-.049.013-.089.005-.089-.017zm23.236.004c0-.032.014-.046.03-.03a.042.042 0 0 1 0 .06c-.016.016-.03.003-.03-.03zm.976-.355c-.052-.175-.087-.327-.077-.337.01-.01.062.125.114.3.053.175.087.327.077.337-.01.01-.062-.124-.114-.3zm2.04.266c0-.032.013-.045.03-.03a.042.042 0 0 1 0 .06c-.017.016-.03.003-.03-.03zm9.722.013c.092-.01.241-.01.333 0 .091.01.016.017-.167.017-.182 0-.257-.008-.166-.017zm-43.428-.235c.063-.118.12-.21.126-.204.027.027-.138.379-.187.398-.03.011-.002-.076.061-.194zm28.663-.576c0-.732.004-.776.036-.41.02.226.02.595 0 .82-.032.367-.036.323-.036-.41zm1.9.483c-.056-.172-.091-.323-.079-.335.013-.013.066.12.118.296.123.414.091.446-.04.04zm19.484.271c-.024-.038-.02-.047.015-.026.028.017.051.014.051-.007 0-.06.13-.218.132-.16 0 .028-.036.096-.08.151-.063.078-.09.087-.118.042zm-66.637-.1a2.87 2.87 0 0 1-.14-.255c-.067-.136-.067-.144-.004-.066.082.1.254.421.227.421-.01 0-.048-.045-.083-.1zm16.326-.126c-.05-.1-.085-.19-.075-.199.009-.009.06.073.113.182.12.249.088.264-.038.017zm34.017.166c-.006-.073.144-.538.16-.493.008.026-.023.155-.07.289-.048.133-.088.225-.09.204zm-33.083-.05c0-.013.01-.023.022-.023.012 0 .022.01.022.022 0 .012-.01.022-.022.022a.022.022 0 0 1-.022-.022zm49.267-.064a2.186 2.186 0 0 1-.093-.21c-.07-.185.028-.072.112.13.073.173.06.227-.019.08zm.93.019c0-.012.01-.022.022-.022.012 0 .022.01.022.022 0 .012-.01.022-.022.022a.022.022 0 0 1-.022-.022zm-50.15-.028c-.005-.052.45-.975.47-.955.011.011-.09.237-.224.502-.134.264-.245.468-.247.453zm18.149-.327c0-.195.008-.27.017-.165.01.104.01.264 0 .355-.01.09-.017.005-.017-.19zm32.11.133a.99.99 0 0 1 .117-.222c.025-.024.012.036-.028.133a.989.989 0 0 1-.118.222c-.024.025-.011-.035.029-.133zm-52.359-.134c-.065-.134-.11-.243-.098-.243.03 0 .253.45.234.469-.01.01-.07-.093-.136-.226zm10.678.213c.052-.049.51-.238.51-.21 0 .01-.075.056-.167.102-.205.104-.405.167-.343.108zm35.585 0c.037-.014.172-.071.3-.127.128-.056.233-.092.233-.08 0 .035-.46.238-.533.235-.059-.003-.059-.006 0-.028zm3.77-.5c-.147-.293-.257-.532-.245-.532.012 0 .142.24.289.532.147.293.257.532.245.532-.013 0-.143-.24-.29-.532zm1.61.488c.054-.174.265-.667.28-.653.02.02-.174.52-.247.635-.03.046-.044.054-.033.018zm-65.82-.178c-.05-.097-.08-.177-.068-.177.012 0 .063.08.112.177.05.098.081.178.069.178-.012 0-.063-.08-.113-.178zm15.702.022c0-.024.05-.144.109-.266.059-.122.095-.171.08-.11-.031.127-.19.443-.189.376zm-.536-.044c0-.012.01-.022.022-.022.012 0 .022.01.022.022 0 .012-.01.022-.022.022a.022.022 0 0 1-.022-.022zm7.848-1.172c0-.657.015-1.204.034-1.216.018-.011.027.516.02 1.171l-.013 1.191.345.015.346.015-.366.01-.366.008zm35.619.075.01-1.12.013 1.096.012 1.095.365.015.365.015-.388.01-.388.008zM9.312 16.363c0-.012.01-.022.022-.022.013 0 .022.01.022.022 0 .012-.01.022-.022.022a.022.022 0 0 1-.022-.022zm25.22-.007a.171.171 0 0 1 .111 0c.03.012.006.022-.055.022s-.086-.01-.055-.022zm1.497-.002c.206-.2.514-.457.444-.37a2.036 2.036 0 0 1-.417.374c-.046.025-.056.024-.027-.004zm23.218-.04c.002-.05.012-.061.026-.026.013.032.012.07-.003.085s-.025-.012-.023-.058zm10.916.04a.254.254 0 0 1 .133.002c.03.012-.005.021-.078.02-.073 0-.098-.01-.055-.022zm1.452.013a.6.6 0 0 1 .144-.121c.102-.072.126-.079.081-.023-.063.079-.225.183-.225.144zm4.195-.253c-.065-.15-.11-.281-.101-.29.01-.01.07.105.136.255.065.15.11.281.101.29-.01.01-.07-.105-.136-.255zm-50.197-.044c-.065-.15-.11-.28-.102-.29.009-.009.07.107.134.258.065.15.111.28.103.289-.01.009-.07-.107-.135-.257zm9.318.188c.3-.113.484-.246.57-.413.038-.073.08-.122.094-.108.048.047-.212.336-.402.447a1.243 1.243 0 0 1-.342.136c-.118.02-.1.005.08-.062zm35.642-.012c.425-.172.609-.376.685-.762.031-.157.037-.165.04-.052.006.19-.134.47-.309.618-.163.138-.465.29-.571.287-.037 0 .033-.042.155-.09zM9.18 16.123c-.05-.1-.084-.181-.074-.181.034 0 .21.32.188.342-.012.011-.063-.06-.114-.16zm48.51.129c0-.033.013-.046.03-.03a.042.042 0 0 1 0 .06c-.017.016-.03.002-.03-.03zm2.395 0c0-.033.013-.046.03-.03a.042.042 0 0 1 0 .06c-.017.016-.03.002-.03-.03zm-3.504-.044c0-.033.014-.046.03-.03a.042.042 0 0 1 0 .06c-.016.015-.03.002-.03-.03zm20.711.036c-.004-.052.496-1.06.516-1.04.01.01-.1.255-.247.544-.147.29-.268.513-.269.496zm-66.828-.059c0-.012.01-.022.022-.022.012 0 .022.01.022.022 0 .013-.01.023-.022.023a.022.022 0 0 1-.022-.023zm48.825.01c-.005-.067.187-.789.205-.77.022.022-.095.537-.158.694-.024.06-.045.095-.047.076zm.84-.076c0-.033.013-.046.03-.03a.042.042 0 0 1 0 .06c-.017.016-.03.002-.03-.03zm-49.743-.056a1.51 1.51 0 0 1-.118-.21c-.066-.139-.066-.146-.002-.067.082.102.21.333.182.333-.01 0-.037-.025-.062-.056zm14.122-.19c-.066-.133-.11-.242-.098-.242.03 0 .253.449.233.469-.009.009-.07-.093-.135-.226zm31.94-.042c-.053-.162-.087-.305-.074-.318.013-.013.064.113.114.278.117.391.087.421-.04.04zm1.107-.02c-.053-.175-.088-.327-.077-.338.012-.011.064.123.116.298.053.175.087.327.077.338-.011.01-.063-.124-.116-.298zm14.414.271c0-.02.053-.085.118-.144l.117-.107-.104.144c-.108.15-.131.169-.131.107zm-28.015-.185c0-.085.009-.12.02-.077a.364.364 0 0 1 0 .155c-.011.042-.02.008-.02-.078zm16.222.118c-.006-.074.144-.538.16-.493.009.025-.023.155-.07.288-.048.133-.088.225-.09.205zm3.338-.055c-.039-.1.009-1.989.05-2.057.028-.045.207-.052.817-.031.43.014.85.046.936.07l.155.046-.155-.02c-.085-.01-.506-.033-.935-.05l-.78-.03-.03.506c-.015.278-.028.75-.028 1.048v.542l1.252.013 1.253.012-1.254.01c-1.108.01-1.258.003-1.281-.059zm-14.157-.026c-.005-.106.114-.704.167-.835.025-.061.045-.09.045-.067 0 .09-.208.974-.212.902zm-22.84-.037c0-.032.013-.046.029-.03a.042.042 0 0 1 0 .06c-.016.016-.03.003-.03-.03zm18.547-.133c0-.11.009-.155.02-.1.01.055.01.145 0 .2-.011.055-.02.01-.02-.1zm5.41-.022c.001-.122.01-.167.02-.1.01.068.01.168 0 .223-.011.054-.02-.001-.02-.123zm-41.429.133c0-.012.01-.022.022-.022.012 0 .022.01.022.022 0 .012-.01.022-.022.022a.022.022 0 0 1-.022-.022zm67.698-.066c.015-.061.065-.19.11-.289.045-.097.07-.127.055-.066-.015.06-.064.19-.11.288-.046.098-.07.128-.055.067zm-40.109-.152c.054-.11.106-.194.115-.185.026.027-.109.323-.163.356-.027.017-.006-.06.048-.17zm-10.053.085c.133-.357.217-.554.231-.54.024.024-.168.53-.22.584-.03.03-.033.014-.011-.044zm45.715-.208c.052-.16.1-.275.108-.256.022.058-.073.37-.14.463-.04.053-.028-.024.032-.207zm3.353.208c0-.012.01-.022.022-.022.012 0 .022.01.022.022 0 .012-.01.022-.022.022a.022.022 0 0 1-.022-.022zm-50.287-.225c-.093-.218-.113-.312-.039-.185.077.133.176.388.15.388-.013 0-.063-.092-.111-.203zm1.997.18c0-.012.01-.022.022-.022.012 0 .022.01.022.023 0 .012-.01.022-.022.022a.022.022 0 0 1-.022-.022zm-17.375-.32c-.223-.386-.281-.5-.257-.5.01 0 .078.105.15.233l.231.4c.054.09.088.165.074.165-.013 0-.102-.134-.198-.299zm25.623.254c0-.032.013-.046.03-.03a.042.042 0 0 1 0 .06c-.017.016-.03.003-.03-.03zm39.912-.18c-.054-.125-.09-.236-.079-.247.01-.01.062.085.115.211.052.127.088.237.078.247-.009.009-.06-.086-.114-.211zm-48.116.158c0-.012.01-.022.022-.022.013 0 .023.01.023.022 0 .012-.01.022-.023.022a.022.022 0 0 1-.022-.022zm16.588-.048c.002-.052.013-.062.027-.027.013.032.011.07-.003.085-.015.015-.026-.011-.024-.058zm-19.647.004c0-.013.01-.023.022-.023.012 0 .022.01.022.023 0 .012-.01.022-.022.022a.022.022 0 0 1-.022-.022zm3.104-.04c0-.044.175-.382.198-.382.01 0-.017.08-.06.178-.08.178-.138.264-.138.205zm8.218-.293c0-.183.008-.258.018-.166.01.091.01.24 0 .332-.01.092-.018.017-.018-.166zm38.75.11c-.053-.11-.087-.199-.075-.199.03 0 .209.36.189.38-.01.01-.06-.072-.114-.181zm-50.183.023c-.04-.078-.063-.151-.051-.163.012-.013.055.041.095.119.04.077.063.151.051.163-.012.012-.055-.041-.095-.119zm26.279.044c-.006-.138.098-.536.17-.648.05-.08.052-.08.024.005-.027.084-.126.471-.17.666-.016.071-.02.067-.024-.023zm3.107-.022c0-.073.01-.098.022-.054a.254.254 0 0 1-.001.133c-.013.03-.022-.006-.02-.079zm-9.56-.087c.014-.097.053-.237.086-.31l.06-.135-.026.133a3.352 3.352 0 0 1-.086.31l-.06.178zm1.044.065c0-.06.01-.086.023-.055.012.03.012.08 0 .11-.013.031-.023.006-.023-.055zm11.212.067c0-.013.01-.023.023-.023.012 0 .022.01.022.023 0 .012-.01.022-.022.022a.022.022 0 0 1-.023-.022zm4.036-.023c0-.032.013-.045.03-.03a.042.042 0 0 1 0 .06c-.017.016-.03.003-.03-.03zm-23.584-.088c0-.061.01-.086.022-.056.012.03.012.08 0 .111-.012.03-.022.006-.022-.055zm20.657.044c0-.032.013-.046.03-.03a.042.042 0 0 1 0 .06c-.017.016-.03.003-.03-.03zm2.088-.07c.002-.052.012-.062.026-.027.013.032.012.07-.003.085s-.025-.011-.023-.058zm-4.74-.085c0-.073.01-.098.022-.055a.254.254 0 0 1-.002.133c-.012.03-.02-.005-.02-.078zm1.416-.16c-.052-.153-.086-.284-.077-.294.01-.01.06.108.11.26.052.151.086.283.077.293-.01.009-.06-.108-.11-.26zm4.207.226c0-.032.013-.045.03-.03a.042.042 0 0 1 0 .06c-.017.016-.03.003-.03-.03zm16.541.023c0-.025.02-.075.043-.111.024-.037.043-.047.043-.022 0 .024-.019.074-.043.11-.023.037-.043.047-.043.023zm-51.706-.111c0-.033.014-.046.03-.03a.042.042 0 0 1 0 .06c-.016.016-.03.002-.03-.03zm19.916-.003c-.008-.102.123-.521.171-.551.023-.014.005.082-.04.214a6.491 6.491 0 0 0-.105.323c-.015.06-.022.063-.026.014zm8.362-.208a6.568 6.568 0 0 0-.105-.316c-.014-.035-.006-.05.018-.035.052.032.203.497.182.56-.008.025-.05-.07-.095-.21zm3.81.027c-.094-.33-.132-.508-.105-.481.036.034.211.68.19.7-.01.01-.048-.088-.085-.219zm3.125.159c-.006-.083.141-.532.158-.484.01.026-.022.155-.07.289-.047.133-.087.22-.088.195zm10.807-.184a1.396 1.396 0 0 0-.106-.376c-.062-.12-.064-.137-.008-.09.087.072.18.4.16.567-.012.098-.024.073-.046-.1zm1.16-.068c0-.17-.04-.393-.102-.577-.056-.165-.095-.3-.085-.3.009 0 .058.094.108.208.088.199.175.946.11.946-.016 0-.03-.125-.03-.277zm-48.288.21c0-.012.01-.022.022-.022.012 0 .022.01.022.022 0 .012-.01.022-.022.022a.022.022 0 0 1-.022-.022zm2.717-.022c.068-.237.177-.535.19-.522.023.023-.1.42-.16.511-.032.052-.042.055-.03.011zm9.979-.2c0-.146.008-.2.018-.12.01.079.01.199 0 .265-.01.067-.018.002-.018-.145zm22.734.2c0-.032.014-.046.03-.03a.042.042 0 0 1 0 .06c-.016.016-.03.003-.03-.03zm15.831.022c0-.012.01-.022.022-.022.012 0 .022.01.022.022 0 .012-.01.022-.022.022a.022.022 0 0 1-.022-.022zm2.439 0c0-.012.01-.022.022-.022.012 0 .022.01.022.022 0 .012-.01.022-.022.022a.022.022 0 0 1-.022-.022zm-52.652-.056a5.127 5.127 0 0 1-.204-.542c0-.013.02.008.041.046.107.182.263.657.163.496zm2.5.012c0-.012.01-.022.022-.022.012 0 .022.01.022.022 0 .012-.01.022-.022.022a.022.022 0 0 1-.023-.022zm46.604 0c0-.012.01-.022.023-.022.012 0 .022.01.022.022 0 .012-.01.022-.022.022a.022.022 0 0 1-.023-.022zm2.778-.067c.015-.06.054-.17.088-.244.048-.106.055-.11.033-.022-.015.061-.054.171-.088.244-.048.107-.055.111-.033.022zm-53.305-.596-.337-.64-.184-.014c-.104-.008-.188-.038-.195-.07-.006-.031 0-.036.012-.011.012.025.098.045.19.045.093 0 .189.025.214.056.07.085.686 1.275.66 1.275-.013 0-.175-.289-.36-.64zm51.509.413c-.053-.126-.088-.237-.079-.246.01-.01.06.086.114.21.054.126.09.236.08.247-.011.01-.063-.085-.115-.21zm2.675.072a.936.936 0 0 1 .12-.221c.024-.025.012.035-.028.133a.936.936 0 0 1-.119.222c-.025.024-.013-.036.027-.134zm-50.217.095c0-.048.176-.383.201-.383.012 0-.02.085-.073.189-.103.204-.128.242-.128.194zm27.008-.054c.003-.052.013-.062.027-.027.013.032.011.07-.003.085-.015.015-.025-.011-.024-.058zm4.878 0c.005-.112.162-.721.169-.653.007.07-.124.69-.151.717-.012.012-.02-.017-.018-.064zm14.412-.371c-.126-.245-.22-.446-.209-.446.034 0 .48.849.458.871-.011.011-.123-.18-.25-.425zm-24.437.353c0-.033.013-.046.03-.03a.042.042 0 0 1 0 .06c-.017.015-.03.002-.03-.03zm-39.91-.111c0-.012.01-.022.023-.022.012 0 .022.01.022.022 0 .012-.01.022-.022.022a.022.022 0 0 1-.022-.022zm25.942-.022c0-.033.013-.046.03-.03a.042.042 0 0 1 0 .06c-.017.015-.03.002-.03-.03zm8.603 0c0-.033.013-.046.03-.03a.042.042 0 0 1 0 .06c-.017.015-.03.002-.03-.03zm5.472-.109c.104-.248.408-.668.612-.844.197-.17.6-.421.678-.421.024 0-.065.062-.2.14-.455.259-.844.674-1.024 1.09-.044.103-.092.188-.105.188-.014 0 .004-.069.04-.153zm4.918-.123c-.053-.152-.09-.284-.082-.292.023-.022.206.486.192.53-.007.02-.057-.086-.11-.238zm-45.012.132a1.51 1.51 0 0 1-.118-.21c-.066-.14-.067-.146-.002-.067.082.101.209.332.182.332-.01 0-.037-.025-.062-.055zm25.864-.205a.885.885 0 0 0-.377-.326c-.134-.067-.214-.122-.178-.122.16-.002.543.295.65.502.105.2.05.169-.095-.054zm8.89.039c.05-.098.101-.178.113-.178.012 0-.018.08-.068.178-.05.097-.1.177-.113.177-.012 0 .019-.08.069-.177zm11.707.133c0-.033.014-.046.03-.03a.042.042 0 0 1 0 .06c-.016.015-.03.002-.03-.03zm-5.32-.023c0-.012.01-.022.021-.022.012 0 .022.01.022.022 0 .013-.01.023-.022.023a.022.022 0 0 1-.022-.023zm9.888-.066c0-.033.013-.046.03-.03a.042.042 0 0 1 0 .06c-.017.016-.03.002-.03-.03zm16.584 0c0-.033.013-.046.03-.03a.042.042 0 0 1 0 .06c-.017.016-.03.002-.03-.03zm.887.022c0-.012.01-.022.022-.022.012 0 .022.01.022.022 0 .012-.01.022-.022.022a.022.022 0 0 1-.022-.022zm-50.153-.044c0-.013.01-.022.023-.022.012 0 .022.01.022.022 0 .012-.01.022-.022.022a.022.022 0 0 1-.023-.022zm8.828-.048c.002-.052.013-.063.027-.027.013.032.011.07-.003.085-.015.015-.026-.012-.024-.058zm8.673-.063c.043-.073.095-.133.115-.133.02 0-.008.06-.062.133a.66.66 0 0 1-.115.133c-.01 0 .019-.06.062-.133zm5.377.052a.571.571 0 0 1 .12-.145c.049-.038.038-.007-.027.082-.117.159-.16.188-.093.063zm2.387-.117c-.25-.292-.58-.436-1.05-.459-.431-.02-.67.03-.911.194-.092.062-.176.103-.187.092-.025-.025.31-.224.496-.295.232-.089.81-.064 1.105.047.252.095.604.368.696.538.064.121.034.097-.15-.117zm2.717-.078c-.137-.377-.151-.428-.09-.333.063.098.228.573.207.595-.01.009-.062-.11-.117-.262zm-28.868.187c0-.032.013-.046.03-.03a.042.042 0 0 1 0 .06c-.017.016-.03.003-.03-.03zm48.068 0c0-.032.013-.046.03-.03a.042.042 0 0 1 0 .06c-.017.016-.03.003-.03-.03zm3.06-.07c.068-.177.138-.294.162-.27.023.023-.15.385-.184.385-.011 0 0-.052.023-.114zm-53.343-.176c-.052-.14-.087-.261-.077-.27.01-.01.06.095.113.233.053.139.088.26.078.27-.01.01-.062-.094-.114-.233zm3.146.23c0-.048.176-.383.201-.383.012 0-.02.085-.073.189-.103.203-.128.242-.128.194zm29.178-.028c0-.033.013-.046.03-.03a.042.042 0 0 1 0 .06c-.017.016-.03.002-.03-.03zm3.503 0c0-.033.013-.046.03-.03a.042.042 0 0 1 0 .06c-.017.016-.03.002-.03-.03zm16.585 0c0-.033.013-.046.03-.03a.042.042 0 0 1 0 .06c-.017.016-.03.002-.03-.03zm-6.274-.088a1.321 1.321 0 0 0-.304-.2c-.123-.06-.2-.111-.17-.111.096 0 .38.164.492.284.059.063.097.115.084.115-.012 0-.059-.04-.102-.088zm-69.945-.253-.008-.32-.208-.013c-.194-.013-.21-.024-.245-.158a.34.34 0 0 1 .01-.234c.046-.085.085-.088 1.055-.077l1.006.012.014.21c.012.187.003.21-.089.23-.197.041-.435.052-.435.02 0-.02.105-.04.233-.047l.233-.014v-.355l-.981-.012c-1.08-.013-1.062-.017-1.008.257.025.123.04.132.222.132.233 0 .247.025.226.404l-.016.284zm18.225.065-.008-.253-.898.017-.898.017.9-.045c.496-.025.911-.036.923-.024.012.012.015.139.006.282l-.016.26zm7.869.11c.016-.068.056-.198.088-.29.066-.189.058-.197-.204-.219-.11-.009-.157-.035-.162-.091-.005-.055 0-.058.014-.011s.08.067.214.067c.107 0 .205.018.219.04.025.042-.14.625-.178.625-.011 0-.007-.054.009-.121zm9.513-.082c-.054-.111-.075-.188-.048-.171.054.033.19.33.163.356-.01.01-.06-.074-.115-.185zm38.418.154c-.105-.288-.155-.455-.142-.468.01-.01.06.097.113.235.053.138.086.261.074.273-.012.012-.032-.006-.045-.04zm-14.343-.02c-.005-.07.134-.475.185-.54.024-.03.116-.053.205-.05l.16.007-.173.027c-.168.026-.177.037-.274.315-.055.159-.101.267-.103.24zm16.611-.086c.015-.073.044-.179.065-.235.073-.198.05-.23-.162-.23-.161 0-.199-.015-.196-.078.002-.046.013-.055.026-.022s.104.055.224.055h.202l-.03.18a1.536 1.536 0 0 1-.092.322l-.063.141zm-68.053-.11c-.05-.098-.08-.178-.069-.178.013 0 .063.08.113.177.05.098.08.178.068.178-.012 0-.062-.08-.112-.178zm35.286.066c.092-.133.455-.502.455-.463 0 .01-.123.15-.274.308-.15.158-.232.228-.181.155zm12.52-.051c-.1-.371-.093-.392.13-.398.109-.004.139.002.066.013-.243.034-.243.034-.176.287.034.128.054.241.044.251-.01.01-.038-.06-.064-.153zm-11.419.058c.022-.058.28-.227.305-.2.008.009-.062.07-.156.136s-.16.094-.149.064zm2.28-.053c-.134-.058-.214-.106-.177-.107.037 0 .166.047.288.106.285.137.208.138-.11 0zm.466-.09c.083-.155.11-.257.091-.349-.052-.265-.216-.35-.865-.452l-.379-.058.333.021c.599.04.975.247.975.538 0 .132-.113.387-.206.464-.036.03-.013-.044.051-.164zm17.928.178a1.926 1.926 0 0 0-.307-.107c-.155-.046-.243-.084-.194-.085a1.47 1.47 0 0 1 .332.082c.134.046.246.08.25.076l.079-.141c.065-.116.07-.12.045-.022-.047.175-.139.264-.205.197zm-44.09-.109c-.123-.045-.19-.083-.15-.085.04-.002.156.027.26.063.104.037.197.067.208.067.01 0 .047-.07.083-.154.079-.189.084-.573.008-.634-.035-.03-.872-.054-2.294-.068-1.37-.014-2.3-.041-2.395-.07-.154-.046-.154-.046.044-.026.11.01 1.193.032 2.406.048 1.65.022 2.225.043 2.281.084.158.115.02.87-.157.86a1.604 1.604 0 0 1-.295-.085zm32.099-.077a1.493 1.493 0 0 0-.52-.459c-.094-.05-.159-.102-.144-.117.071-.072.642.42.797.687.067.114-.011.05-.133-.111zm5.446.055c0-.073.01-.097.022-.054a.254.254 0 0 1-.002.133c-.012.03-.021-.006-.02-.079zm-45.054-.12-.008-.208-.3-.016-.299-.015.301-.009c.338-.01.36.009.33.286-.016.164-.017.162-.025-.038zm59.013.076c0-.012.01-.022.023-.022.012 0 .022.01.022.022 0 .012-.01.022-.022.022a.022.022 0 0 1-.023-.022zm4.698-.15c.088-.173.103-.182.28-.175l.188.008-.184.017c-.155.014-.192.037-.238.148a.449.449 0 0 1-.097.157c-.023.015 0-.056.051-.156zm-72.714-.014-.007-.164.255-.014.255-.013v-.355l-.972-.012c-.747-.009-.982.002-1.012.045-.03.042-.036.04-.022-.01.015-.057.173-.069 1.01-.079 1.075-.013 1.06-.016 1.062.236.001.187-.07.242-.316.242-.203 0-.21.004-.228.144-.017.144-.018.144-.025-.02zm16.17.111c.032-.012.07-.01.085.004.015.015-.011.025-.058.023-.051-.002-.062-.012-.027-.027zm6.306.009c0-.013.01-.023.022-.023.012 0 .022.01.022.023 0 .012-.01.022-.022.022a.022.022 0 0 1-.022-.022zm6.51-.009c.032-.012.07-.01.085.004.014.015-.012.025-.059.023-.051-.002-.062-.012-.026-.027zm12.882.001a.042.042 0 0 1 .06 0c.016.016.003.03-.03.03s-.046-.014-.03-.03zm17.978 0a.171.171 0 0 1 .11 0c.031.013.006.023-.055.023-.06 0-.085-.01-.055-.023zm3.706 0a.042.042 0 0 1 .06 0c.016.016.003.03-.03.03s-.046-.014-.03-.03zm1.042 0c.032-.013.07-.012.085.003.014.015-.012.025-.059.023-.051-.002-.062-.012-.026-.027zM34 13.957c.103-.01.273-.01.376 0 .104.01.02.017-.188.017-.207 0-.292-.008-.189-.017zm7.582.003a.171.171 0 0 1 .111 0c.03.012.006.022-.055.022s-.086-.01-.056-.022zm4.579-.044c.168-.075.848-.092 1.08-.026.083.023-.067.036-.42.035-.303-.001-.61.012-.683.03-.123.028-.121.026.023-.039zm1.256.044a.042.042 0 0 1 .06 0c.015.016.002.03-.03.03-.033 0-.046-.014-.03-.03zm22.214-.003c.116-.01.296-.01.399 0 .103.01.007.017-.212.017-.22 0-.304-.008-.187-.017zm2.41-.082c-.07-.062-.118-.12-.108-.131.011-.011.077.04.147.113.154.16.134.17-.039.018zm1.595.004c-.057-.087-.114-.113-.26-.118-.143-.005-.157-.011-.06-.026.193-.028.317.019.373.143.066.143.04.143-.053 0zm-56.584-.033c-.085-.12-.084-.358 0-.566.043-.103.058-.118.044-.044-.096.521-.07.645.142.677l.122.019-.12.006a.206.206 0 0 1-.188-.092zm.33.077c0-.012.01-.022.022-.022.012 0 .022.01.022.022 0 .012-.01.022-.022.022a.022.022 0 0 1-.022-.022zm10.865-.008c-.002-.105.139-.192.301-.185l.163.008-.155.017a.37.37 0 0 0-.232.115c-.042.054-.077.074-.077.045zm8.136-.087a2.38 2.38 0 0 0-.4-.243c-.146-.072-.215-.117-.154-.102.172.044.517.24.626.357.128.137.096.131-.072-.012zm-27.36-.13c-.065-.112-.11-.212-.1-.222.01-.01.073.08.14.203.151.278.12.292-.04.019zm15.68.128c-.004-.084.022-.1.184-.111.188-.014.188-.015.202-.203l.014-.19-1.034.013-1.033.011-.028.133c-.026.124-.029.125-.034.02-.003-.062.019-.137.048-.166.07-.07 2.056-.076 2.1-.006.056.091.038.357-.027.399a.486.486 0 0 1-.205.041c-.096 0-.147.025-.161.078-.016.06-.022.056-.025-.02zm35.115.018c0-.054-.051-.075-.208-.085-.193-.013-.21-.024-.245-.158a.34.34 0 0 1 .01-.233c.045-.084.094-.088.978-.088h.931l.046.12c.025.067.03.17.01.233-.029.095-.036.08-.048-.098l-.015-.21H59.42v.399h.201c.14 0 .21.02.228.068.014.037.013.08-.002.096-.015.015-.028-.005-.028-.044zm6.754-.165c0-.134.008-.189.018-.122a.98.98 0 0 1 0 .244c-.01.067-.018.012-.018-.122zm-10.853.136c-.017-.026-.108-.047-.204-.047-.146 0-.178-.017-.2-.106a.786.786 0 0 1-.012-.233l.015-.127 1.064-.002 1.064-.001-1.041.024c-1.141.026-1.115.018-1.046.293.023.09.054.107.2.107.158 0 .267.06.21.117-.011.012-.034.001-.05-.025zm-39.89-.056c0-.018.135-.038.3-.045l.3-.013v-.355h-2.262l-.029.178-.028.177.006-.2.006-.199 1.15-.012c.89-.009 1.158.001 1.186.045.055.086.043.328-.019.379-.063.052-.61.092-.61.045zm46.362.009-.266-.03.277-.007c.16-.005.277.011.277.037 0 .024-.005.04-.011.037a3.43 3.43 0 0 0-.277-.037zm12.694-.007a.548.548 0 0 1 .21-.046c.175-.014.177-.016.177-.191v-.178h-2.04l-.027.178c-.024.161-.027.165-.033.037-.013-.292-.056-.281 1.08-.281.901 0 1.036.009 1.06.07.045.118.03.316-.029.363-.062.05-.448.097-.398.048zm-46.151-.082c0-.033.013-.046.03-.03a.042.042 0 0 1 0 .06c-.017.016-.03.003-.03-.03zm16.347-.011c.094-.152 1.06-.481 1.386-.473.096.003-.017.037-.284.087a2.92 2.92 0 0 0-.783.252c-.187.093-.33.153-.319.134zm26.51-.08c-.146-.07-.24-.127-.21-.129.072-.002.448.174.48.225.03.05.045.055-.27-.095zm-14.156-.064c0-.098.01-.132.02-.077.01.055.01.135 0 .177-.012.043-.02-.003-.02-.1zm21.507 0c0-.098.01-.132.02-.077.01.055.01.135-.001.177-.011.043-.02-.003-.02-.1zm-17.034.015c-.013-.276-.165-.26 2.275-.26 1.947 0 2.237.01 2.312.07.083.066.082.067-.012.022-.066-.032-.812-.044-2.306-.036l-2.208.011-.027.156c-.023.129-.029.135-.034.037zm15.077-.04c-.01-.21.034-.22 1.034-.21l.934.01-.953.024-.953.023-.029.134c-.026.123-.028.124-.033.02zm-72.818-.02c0-.012.01-.022.022-.022.013 0 .023.01.023.022 0 .013-.01.023-.023.023a.022.022 0 0 1-.022-.023zm63.367 0c0-.012.01-.022.022-.022.013 0 .023.01.023.022 0 .013-.01.023-.023.023a.022.022 0 0 1-.022-.023zm-38.8-.083c0-.069-.08-.074-.95-.062-.522.007-.94-.003-.928-.02.011-.02.439-.034.95-.034.798 0 .934.01.957.068.014.038.013.081-.002.096-.015.016-.027-.006-.027-.048zm6.865.031c.032-.013.07-.011.085.003.014.015-.012.026-.059.024-.051-.002-.062-.013-.026-.027zm17.967.008c0-.012.01-.022.022-.022.012 0 .022.01.022.022 0 .012-.01.022-.022.022a.022.022 0 0 1-.022-.022zm17.664-.007a.042.042 0 0 1 .059 0c.016.016.003.03-.03.03-.032 0-.046-.014-.03-.03zm-35.856-.044a.171.171 0 0 1 .11 0c.031.012.006.022-.054.022-.061 0-.086-.01-.056-.022zm15.715-.011c.098-.065.606-.181.77-.177.073.001-.047.04-.266.084-.22.044-.44.094-.488.11-.075.025-.077.022-.016-.017zm2.211-.013a6.407 6.407 0 0 0-.466-.102c-.17-.031-.25-.059-.177-.061.165-.005.704.107.809.168.096.056.038.054-.166-.005zm17.682.024a.171.171 0 0 1 .11 0c.031.012.006.022-.055.022-.06 0-.086-.01-.055-.022zm-3.374-.07c.025-.043 2.9-.04 3.137.002.096.017-.576.03-1.492.03s-1.657-.015-1.645-.033zm-50.06-.152a.171.171 0 0 1 .11 0c.031.012.006.022-.055.022-.06 0-.086-.01-.055-.022zm-.366-.06c-.113-.048.004-.048.155 0 .09.03.094.036.023.037a.52.52 0 0 1-.178-.036z" style="fill:#455296"/>
  <path d="M6.54 26.722c-.379-.097-.53-.345-.531-.87 0-.432.086-.61.373-.761.356-.189.849-.088 1 .205.094.18.085.224-.044.224-.075 0-.128-.035-.16-.106-.134-.294-.734-.266-.874.042a1.1 1.1 0 0 0-.055.67c.108.402.575.558.85.284.07-.071.129-.161.129-.2 0-.075.118-.092.216-.03.086.055-.106.39-.27.476-.154.079-.46.111-.634.066zm2.784-.002c-.449-.112-.668-.553-.551-1.108a.703.703 0 0 1 .48-.563c.383-.146.85.022 1.012.365.121.256.109.708-.026.95-.163.292-.558.446-.915.356zm.614-.353c.166-.166.172-.182.172-.471 0-.35-.1-.555-.311-.643-.19-.078-.513-.032-.645.092-.223.21-.25.71-.053.979.121.166.217.21.471.213.168.002.217-.02.366-.17zm14.395.33c-.219-.077-.286-.137-.4-.354-.07-.136-.093-.259-.092-.5.001-.272.02-.346.122-.502.22-.332.658-.442 1.034-.26.173.084.323.266.323.392 0 .101-.191.038-.33-.108-.12-.128-.178-.156-.326-.156-.27 0-.395.066-.495.263-.181.356-.066.905.215 1.021.205.085.492.034.615-.108.055-.064.1-.145.1-.18 0-.067.078-.083.192-.039.052.02.057.052.024.15-.062.174-.254.34-.46.397-.226.061-.316.058-.522-.015zm2.894.038c-.387-.14-.49-.249-.62-.655-.074-.23.043-.686.221-.864.356-.356 1.019-.273 1.272.158.094.161.116.254.116.5 0 .257-.02.334-.127.503a.83.83 0 0 1-.277.27c-.164.08-.48.126-.585.088zm.51-.292c.247-.195.316-.613.154-.947-.049-.101-.14-.207-.201-.236-.162-.073-.452-.062-.597.023-.325.192-.349.882-.04 1.143.18.15.503.159.683.017zm8.208.255a.837.837 0 0 1-.234-.125c-.088-.088-.147-.516-.147-1.064v-.477h.221l.003.543c.003.813.102.99.528.949.327-.033.356-.103.356-.854v-.638h.221v.636c0 .35-.02.696-.045.767-.09.258-.554.393-.903.263zm14.08.014c-.321-.096-.495-.308-.551-.676-.036-.231.036-.583.153-.747.344-.484 1.215-.344 1.406.226.104.31.03.783-.156.988-.178.197-.57.293-.852.209zm.664-.354a.795.795 0 0 0 .002-.971c-.1-.12-.16-.148-.344-.166-.43-.041-.638.173-.638.656 0 .466.201.678.616.649.21-.015.256-.036.364-.168zm5.117.384a1.655 1.655 0 0 0-.165-.044c-.175-.039-.42-.27-.48-.456a1.308 1.308 0 0 1 .037-.822c.113-.254.329-.39.665-.418.321-.026.605.106.728.34.081.155.081.156-.02.183-.063.017-.116.003-.144-.039-.147-.218-.189-.244-.42-.267-.462-.044-.69.209-.658.729.016.247.037.302.157.423.178.177.522.22.766.093.133-.068.155-.102.155-.235v-.155l-.233-.013c-.196-.012-.232-.027-.232-.1 0-.079.032-.087.354-.087h.355v.655l-.22.095c-.213.09-.553.153-.645.118zm18.846-.045c-.459-.168-.646-.795-.395-1.322.096-.202.432-.387.7-.387.227 0 .516.14.641.31.21.282.21.87.002 1.152-.186.251-.624.366-.948.247zm.565-.204c.195-.089.3-.307.3-.621 0-.455-.183-.658-.592-.661-.185-.002-.235.019-.36.143-.31.31-.233.997.127 1.142a.864.864 0 0 0 .525-.003zm-74.53-.62v-.848l.565.015c.645.016.733.06.77.373.026.21-.053.375-.216.453-.137.065-.154.147-.05.234.059.049.222.285.389.562.024.04-.008.055-.114.055-.133 0-.164-.029-.343-.314-.203-.324-.353-.44-.566-.44-.217.002-.242.047-.23.404.01.317.007.328-.097.34l-.108.014Zm1.046-.224c.062-.062.085-.125.068-.189a.88.88 0 0 1-.027-.123c-.001-.072-.28-.13-.558-.119l-.307.013-.014.194c-.022.307-.01.316.39.316.302 0 .37-.014.448-.092zm1.704.225v-.842h.61c.576 0 .61.005.61.087 0 .08-.037.088-.478.1l-.476.012-.014.255-.013.255h.468c.435 0 .468.006.468.088 0 .08-.037.088-.455.1l-.454.012v.576l.499.013c.462.012.498.019.498.1 0 .082-.033.087-.631.087h-.632Zm8.68.721a7.14 7.14 0 0 1-.14-.366c-.079-.22-.347-.926-.426-1.12-.025-.063-.008-.077.097-.077.14 0 .108-.069.49 1.053.06.177.125.322.143.322.048 0 .245-.478.48-1.164.062-.184.087-.211.195-.211.11 0 .12.01.081.1-.023.055-.133.339-.244.632a18.273 18.273 0 0 1-.33.831c-.034.093-.074.122-.168.122-.092 0-.137-.031-.177-.122zm2.206-.72v-.843h.62c.589 0 .622.005.622.087 0 .081-.037.088-.5.1l-.498.012-.013.255-.014.255h.468c.436 0 .468.006.468.088 0 .08-.037.088-.455.1l-.454.012v.576l.52.013c.485.012.522.019.522.1 0 .083-.033.087-.643.087h-.643zm2.616-.004v-.846l.572.015c.642.016.733.054.785.33.043.232-.011.36-.206.484l-.179.112.152.187c.163.2.34.476.34.53 0 .019-.056.034-.124.034-.104 0-.153-.045-.295-.267-.23-.361-.386-.487-.605-.487h-.174v.754h-.266zm1.05-.226c.131-.123.13-.191-.006-.327-.096-.096-.147-.109-.443-.109h-.335v.532h.341c.289 0 .357-.014.444-.096zm2.099.698v-.373l-.31-.458c-.304-.45-.308-.458-.197-.472.147-.019.187.018.42.39.108.171.216.311.241.31.025 0 .145-.16.267-.353.202-.322.234-.353.365-.354l.143-.001-.331.483-.332.483v.719h-.266Zm9.445-.468v-.843H29.876l.113.321c.062.177.155.452.206.61.116.36.156.43.204.353.019-.03.128-.327.242-.659l.208-.603.162-.014.163-.013v1.69h-.222v-.599c0-.338-.018-.598-.041-.598-.04 0-.225.442-.225.534 0 .024-.054.183-.12.353-.207.53-.314.433-.615-.552-.15-.492-.196-.43-.196.26v.602h-.222Zm3.015 0v-.843h.34l.218.647c.12.356.238.647.262.647.024 0 .143-.292.266-.647l.222-.646h.167l.166-.001v1.685h-.22l-.012-.588c-.016-.778-.046-.763-.349.178-.124.385-.14.41-.252.409-.115-.001-.13-.028-.316-.599-.108-.328-.213-.597-.233-.597-.02 0-.037.27-.037.598v.599h-.221zm5.765-.003v-.846l.141.014c.128.013.18.072.533.602.216.323.412.587.437.587.03 0 .044-.21.039-.587l-.008-.588.116-.014.116-.014V26.717h-.128c-.115 0-.168-.06-.52-.585-.217-.321-.419-.592-.449-.602-.043-.014-.055.123-.055.585v.602h-.222zm2.793.003v-.843h.222v1.685h-.222zm2.075.1-.013-.743-.277-.014c-.24-.011-.277-.024-.277-.1 0-.082.035-.086.687-.086.658 0 .688.004.688.089 0 .078-.03.088-.266.088h-.266v1.508h-.264zm2.578.709c-.002-.019 0-.167.003-.331l.006-.298-.304-.456c-.168-.25-.32-.481-.338-.512-.024-.04.005-.055.1-.055.12 0 .162.04.367.355.128.195.246.354.264.354.039 0 .14-.135.349-.464.126-.2.178-.244.277-.245.067 0 .122.01.122.023 0 .012-.14.228-.31.478l-.31.455v.364c0 .36-.002.365-.112.365-.06 0-.112-.015-.114-.033zm6.655-.81v-.842h.512c.588 0 .736.05.814.273.076.217.018.43-.145.53-.077.046-.158.09-.182.098-.023.008.028.103.114.21.085.109.21.282.276.386l.12.188h-.152c-.14 0-.167-.024-.344-.307-.214-.343-.38-.462-.614-.44l-.155.015-.013.366c-.012.356-.016.366-.122.366h-.109zm1.061-.25c.113-.143.113-.157.007-.288-.076-.095-.119-.104-.454-.104h-.37l-.013.254-.014.255h.376c.354 0 .382-.007.468-.116zm4.412 1.019c.145-.387.318-.832.402-1.035.056-.134.125-.318.154-.41.047-.146.07-.166.194-.165.136 0 .146.013.313.432.095.237.228.561.296.72.068.158.137.345.154.414.03.116.023.124-.088.11-.097-.011-.139-.057-.214-.236a1.028 1.028 0 0 0-.133-.249c-.058-.04-.58-.045-.631-.006a.976.976 0 0 0-.135.255c-.074.185-.11.224-.216.237-.107.012-.122.002-.096-.067zm.987-.735c-.07-.274-.191-.565-.237-.565-.029 0-.066.064-.083.143a1.57 1.57 0 0 1-.115.31c-.045.09-.083.174-.083.188 0 .013.122.024.271.024.26 0 .27-.005.247-.1zm1.788-.034v-.842h.129c.134 0 .132-.003.758.959.085.131.175.232.2.224.025-.009.049-.26.056-.6.012-.57.015-.583.111-.583.098 0 .098.002.098.842v.843h-.133c-.108 0-.156-.035-.254-.188a13.758 13.758 0 0 0-.196-.3 28.561 28.561 0 0 1-.27-.41c-.108-.165-.214-.3-.236-.3-.023 0-.041.263-.041.6v.598h-.222Zm2.794 0v-.842h.221v1.685h-.221zm1.507.751c0-.114.085-.237.586-.85.215-.26.39-.495.39-.52 0-.028-.17-.046-.444-.046-.413 0-.443-.006-.443-.088 0-.085.03-.089.62-.089.598 0 .622.003.622.091 0 .077-.42.633-.895 1.185-.069.08-.125.165-.125.189 0 .025.218.043.528.043.478 0 .527.007.517.077-.01.07-.083.08-.684.09-.659.012-.672.01-.672-.082zm2.573-.252c.07-.189.19-.503.267-.698.076-.195.16-.42.187-.499.04-.122.07-.144.189-.144h.141l.32.787c.175.433.33.814.345.846.019.043-.013.055-.123.044-.134-.013-.158-.036-.231-.235-.045-.122-.102-.233-.126-.248a1.316 1.316 0 0 0-.32-.036c-.32-.01-.385.036-.475.339-.048.163-.072.188-.179.188h-.123Zm.883-.42c-.005-.117-.199-.588-.24-.588-.043 0-.237.471-.242.587-.002.038.074.056.241.056.167 0 .243-.018.242-.056zm2.033.021-.012-.743-.277-.013c-.241-.011-.278-.024-.278-.1 0-.081.035-.086.666-.086.413 0 .665.017.665.044v.078c.001.018-.114.043-.254.055l-.256.022-.012.743-.012.743h-.218Zm2.094-.1v-.842h.222v1.685h-.221zm4.567 0v-.848l.117.014c.095.011.192.124.507.59.215.316.412.582.438.59.032.012.047-.178.047-.586v-.602h.222v1.685h-.13c-.117 0-.166-.056-.52-.597-.216-.328-.418-.598-.45-.599-.045 0-.056.13-.05.586.007.567.004.588-.087.602-.092.014-.094.005-.094-.834zm-37.425-1.969c0-.037.029-.153.064-.257.069-.203.2-.734.2-.815.001-.027-.202-.226-.452-.443l-.453-.396.572-.031c.314-.018.59-.05.611-.072.022-.022.119-.256.215-.52.095-.265.192-.499.213-.52.023-.023.079.078.133.242.107.32.291.781.326.816.013.013.283.037.6.054l.578.031-.461.396c-.254.218-.461.409-.461.425 0 .028.09.382.234.92.035.128.055.233.046.233-.01 0-.226-.14-.48-.31-.254-.171-.483-.311-.509-.311-.025 0-.23.126-.456.28-.534.365-.52.358-.52.278zM.398 22.815v-.4h38.136v.799H.399Zm42.348 0v-.4h35.919v.799H42.747ZM2.572 19.73c-.581-.101-.92-.247-1.115-.478-.13-.154-.253-.528-.304-.924-.027-.203-.062-1.317-.08-2.475l-.03-2.106-.206-.014c-.188-.012-.208-.024-.232-.143-.054-.272-.07-.268 1.008-.255l.981.012v.355l-.226.013-.227.014-.028.363c-.046.59-.033 3.32.018 3.698.067.5.162.756.364.975.298.324.897.45 1.44.306.335-.089.503-.201.646-.432.227-.367.255-.707.242-2.92l-.012-1.972-.272-.014c-.261-.012-.273-.018-.298-.143-.054-.272-.07-.268 1.008-.255l.981.012v.355l-.255.013c-.14.008-.257.028-.26.045-.002.017-.019.969-.037 2.115l-.033 2.084-.133.404c-.129.393-.275.641-.501.85-.17.155-.589.358-.898.433-.27.066-1.318.123-1.541.084Zm33.99.003a2.27 2.27 0 0 0-.213-.043c-.203-.034-.376-.213-.487-.504a6.375 6.375 0 0 0-.12-.296 4.72 4.72 0 0 1-.135-.415c-.234-.81-.586-1.328-.986-1.446a2.014 2.014 0 0 0-.843-.039l-.167.028.012 1.091.012 1.092.266.011c.453.02.472.03.457.245l-.014.187-1.184.012-1.184.012-.03-.16c-.04-.213.014-.255.352-.277l.281-.018.029-.734c.035-.9.03-3.735-.01-4.311l-.028-.422-.272-.013c-.261-.012-.273-.018-.298-.143-.057-.288-.139-.275 1.652-.252 1.693.022 1.856.039 2.299.234.354.156.536.319.691.615.133.253.14.296.14.735-.001.434-.01.483-.142.736-.082.158-.238.359-.375.483-.208.188-.335.26-.846.48-.16.069-.153.104.039.184.386.162.616.465 1.113 1.472.183.37.387.725.453.788.07.068.2.13.313.148.158.027.2.056.234.156.059.177-.048.321-.264.357-.175.029-.667.034-.746.007zm-2.033-3.35c.839-.113 1.212-.526 1.157-1.282-.038-.543-.333-.938-.8-1.073-.204-.06-1.071-.08-1.196-.028-.071.03-.078.13-.078 1.23v1.2h.285a5.8 5.8 0 0 0 .632-.047zm11.226 3.307a2.314 2.314 0 0 1-.687-.218c-.534-.273-.763-.56-.978-1.23-.116-.36-.12-.403-.12-1.436l-.002-1.064.141-.488c.177-.613.35-.932.7-1.29.381-.391.777-.575 1.503-.698.505-.085.588-.088 1.066-.035.61.066.91.147 1.026.275.115.127.107.381-.018.584l-.102.165-.163-.083a4.45 4.45 0 0 0-.602-.202c-1.041-.283-1.735-.093-2.155.59-.443.72-.45 2.965-.013 3.78.198.368.48.59.89.7.192.052.47.094.62.094.355 0 .988-.149 1.258-.296.243-.132.29-.115.415.147.118.249.063.357-.257.505-.151.07-.405.15-.563.176-.49.081-1.531.094-1.959.024zm5.684.04-.377-.067a2.588 2.588 0 0 1-.994-.47c-.249-.214-.448-.576-.57-1.031-.097-.361-.117-.545-.133-1.233-.018-.747-.01-.85.1-1.372.129-.619.277-.981.549-1.342.381-.508.868-.793 1.602-.938.515-.102.846-.096 1.441.025.835.17 1.312.579 1.584 1.358l.145.417v2.217l-.145.476c-.08.262-.217.596-.305.744-.322.54-.92.992-1.5 1.135-.265.065-1.186.118-1.397.08zm1.203-.683c.781-.242 1.131-1.091 1.089-2.64-.034-1.206-.194-1.782-.606-2.167-.285-.267-.632-.39-1.096-.391-.61 0-1.013.25-1.297.807-.217.427-.247.638-.247 1.773 0 1.134.031 1.37.243 1.835.323.707 1.114 1.031 1.914.783zm19.376.663a.764.764 0 0 1-.305-.142c-.127-.117-.32-.525-.428-.902-.182-.638-.463-1.212-.705-1.441-.234-.221-.71-.315-1.193-.235l-.167.027v.804c0 .442.014.938.03 1.103l.027.299h.299c.342 0 .412.049.39.274l-.014.147-1.181.012-1.181.012-.022-.145c-.037-.253.026-.298.415-.3h.204l.029-.499c.036-.624.028-4.3-.01-4.69l-.028-.287-.277-.014c-.249-.012-.28-.023-.303-.118a.523.523 0 0 1-.01-.186c.014-.077.098-.082 1.367-.095 1.605-.015 2.095.027 2.569.224.456.19.674.41.795.803a1.8 1.8 0 0 1 .005 1.107c-.15.482-.527.847-1.12 1.08-.164.064-.299.134-.299.154 0 .02.075.068.167.106.352.147.666.55 1.054 1.354.416.865.53 1.004.864 1.059.144.023.156.037.168.206.01.123-.009.199-.056.238-.087.072-.811.102-1.084.045zm-1.525-3.39c.307-.093.59-.313.712-.555.077-.153.1-.272.1-.536 0-.407-.053-.58-.255-.83-.183-.227-.386-.338-.755-.41-.278-.055-.958-.042-1.02.02-.018.018-.039.573-.047 1.234l-.014 1.2.524-.027c.288-.015.628-.059.755-.097zM11.45 19.656c-.24-.135-1.798-2.688-2.613-4.28-.166-.324-.316-.588-.335-.588-.018 0-.028.992-.022 2.206l.012 2.206.244.022.244.022v.4l-.938.011-.937.012-.03-.165c-.04-.213.044-.28.356-.28h.23l.033-1.581c.03-1.434-.002-3.802-.052-3.884-.011-.019-.116-.034-.234-.034-.201 0-.215-.007-.24-.132-.054-.27-.056-.27.848-.257l.822.012.137.248c.415.745.965 1.707 1.28 2.236.26.437 1.119 2.019 1.257 2.314.07.152.153.276.184.278.043.001.054-.425.05-2.005-.004-1.103-.019-2.156-.034-2.339l-.027-.332-.244-.023-.244-.022v-.355l.967-.012.967-.012-.014.19-.013.19-.244.013c-.135.007-.264.033-.289.057-.028.028-.052 1.1-.066 2.943-.012 1.594-.039 2.915-.06 2.936-.063.064-.882.068-.995.005zm46.249-.18a5.688 5.688 0 0 1-.137-.417 1.87 1.87 0 0 0-.115-.31.589.589 0 0 1-.066-.179c0-.029-.118-.408-.26-.842-.144-.434-.362-1.1-.486-1.477-.274-.836-.727-2.134-.825-2.361-.065-.153-.086-.167-.247-.167-.15 0-.18-.016-.203-.107a.53.53 0 0 1-.011-.188c.014-.076.088-.082 1.046-.093l1.03-.012v.4h-.197c-.108 0-.207.017-.22.037-.012.02.008.145.045.277.037.132.114.41.17.618.055.207.132.476.17.598l.202.665c.461 1.53.827 2.665.894 2.771.084.136.131.021.443-1.086a62.197 62.197 0 0 0 .727-2.749c.099-.38.209-1.044.18-1.09-.014-.023-.113-.04-.222-.04h-.197v-.4h1.862v.4h-.171c-.095 0-.192.024-.216.055-.024.03-.138.355-.254.72l-.602 1.907c-.66 2.1-.922 2.86-1.056 3.073-.113.18-.277.23-.754.23h-.443Zm-43.553-.004c0-.222.043-.248.405-.25h.205l.033-1.493c.03-1.36-.003-3.892-.052-3.972-.011-.019-.15-.034-.308-.034h-.288l.013-.188.014-.189h2.261v.355l-.293.013-.292.013-.029.364c-.037.477-.037 4.051 0 4.658l.03.473h.28c.259 0 .282.008.307.106.015.059.02.154.012.21l-.015.105-1.142.012-1.141.012zm4.436.108c-.135-.251-.002-.358.444-.358h.263v-5.375l-.884.033c-1.307.047-1.27.05-1.337-.076-.04-.073-.039-.168.003-.399a3.45 3.45 0 0 1 .06-.302l.518.093c.46.084.725.095 2.727.115 1.413.014 2.237.039 2.273.067.075.062.07.446-.01.635-.072.173-.064.17-.225.109-.311-.119-.978-.232-1.493-.253l-.563-.024-.025.105c-.014.058-.02 1.263-.014 2.678l.013 2.572.343.013c.319.012.345.02.37.117.014.058.019.152.01.209l-.014.104-1.206.012c-1.158.011-1.209.008-1.253-.075zm6.148.057c-.017-.017-.03-.105-.03-.196 0-.192.052-.217.448-.218.244-.001.25-.004.277-.14.016-.076.028-.426.028-.779v-.64l-.86-1.693c-1.182-2.328-1.118-2.222-1.347-2.24-.154-.01-.192-.031-.213-.118a.522.522 0 0 1-.01-.185c.014-.076.087-.082 1.048-.093l1.033-.012-.014.189-.014.19-.193.013c-.187.013-.193.018-.168.142.028.141.418 1.149.472 1.219a.625.625 0 0 1 .067.155c.018.061.078.21.134.333.056.122.204.447.327.723.257.573.322.68.388.637.042-.027.414-.855.414-.92 0-.016.03-.09.065-.168.234-.51.749-2.008.711-2.069-.015-.024-.115-.044-.222-.044-.187 0-.196-.006-.223-.152-.016-.084-.016-.174 0-.2.02-.03.348-.047.953-.047h.924l.029.115c.05.2-.006.284-.189.285a.548.548 0 0 0-.212.033c-.047.032-1.17 2.282-1.588 3.181-.113.244-.235.497-.271.561-.071.129-.088.773-.037 1.384l.03.339h.347c.33 0 .348.005.374.106.014.059.02.154.012.21l-.015.105-1.223.012c-.672.006-1.236-.002-1.252-.019zm13.527-.116c-.032-.22-.003-.25.27-.264l.251-.013.028-.643c.036-.834.036-3.79 0-4.39l-.028-.465-.25-.014c-.244-.012-.25-.016-.271-.155a.548.548 0 0 1 0-.197c.016-.044.503-.056 2.225-.056 2.484 0 2.376-.014 2.376.318 0 .282-.108.58-.196.544-.438-.181-1.271-.303-2.088-.305l-.731-.002-.012 1.075-.012 1.075h2.473l.025.186c.048.356.094.343-1.267.357l-1.207.011-.012 1.24c-.01.96 0 1.246.044 1.273.217.138 2.56-.082 2.918-.274.065-.035.093-.027.125.034.064.118.108.477.073.587-.067.213-.171.222-2.521.222h-2.191zm23.691-.051v-.2l.255-.013.255-.013.029-.244c.038-.32.046-4.653.009-5.004l-.028-.273h-.525l.014-.188.013-.189 2.208-.011c1.472-.008 2.238.004 2.295.035.146.078.101.628-.067.83a.534.534 0 0 1-.162-.051c-.371-.155-1.152-.264-1.924-.267l-.753-.003-.034.332c-.019.183-.029.662-.022 1.064l.011.732 1.255.012 1.255.012-.013.254-.014.254-1.241.022-1.242.023-.011.864c-.007.476.003 1.045.022 1.264l.034.4.354.014c.698.028 2.053-.118 2.437-.263a1.23 1.23 0 0 1 .226-.072c.004.005.03.078.058.16.076.227.063.468-.034.588l-.085.104-2.287.013-2.288.012zm12.947.082a.662.662 0 0 1-.043-.179c0-.092.187-.151.484-.151h.256l.03-.54c.053-1 .087-.86-.477-1.981l-.718-1.426c-.336-.67-.784-1.482-.836-1.518a.56.56 0 0 0-.216-.033h-.169l.014-.19.013-.188h2.04v.178c0 .17-.006.178-.155.19-.269.022-.27.025-.176.307.048.141.106.297.129.345.022.05.115.269.205.488.09.22.231.554.313.743.527 1.21.615 1.382.688 1.337.127-.078 1.191-2.865 1.191-3.119 0-.079-.027-.092-.198-.092-.174 0-.203-.013-.226-.107a.53.53 0 0 1-.011-.188c.014-.076.085-.082.957-.094l.942-.012v.396l-.208.014-.208.014-.446.888c-.4.794-.653 1.316-1.264 2.598l-.182.382.012.793.012.793.353.022.353.022.041.143c.079.276.068.278-1.264.278h-1.193Z" style="fill:#061772"/>
</svg>
