<svg xmlns="http://www.w3.org/2000/svg" xmlns:xlink="http://www.w3.org/1999/xlink" xml:space="preserve" viewBox="0 0 132.292 132.292">
  <defs>
    <linearGradient id="a">
      <stop offset="0" style="stop-color:#a1a1a1;stop-opacity:1"/>
      <stop offset=".3" style="stop-color:#dfdfdf;stop-opacity:1"/>
      <stop offset=".508" style="stop-color:#a2a2a2;stop-opacity:1"/>
      <stop offset=".662" style="stop-color:#f0f0f0;stop-opacity:1"/>
      <stop offset="1" style="stop-color:#9a9a9a;stop-opacity:1"/>
    </linearGradient>
    <linearGradient xlink:href="#a" id="b" x1="14.376" x2="117.916" y1="27.134" y2="105.157" gradientUnits="userSpaceOnUse"/>
  </defs>
  <path d="M0 0h132.292v132.292H0z" style="fill:#000;fill-rule:evenodd;stroke-width:.264583"/>
  <path d="m65.892 9.752-5.065 3.062c-9.291 5.618-14.96 9.068-16.124 9.812l-1.152.737.06 2.267.06 2.267 1.682 1.009c.925.555 1.76.96 1.857.9.096-.059.174-1.128.174-2.376v-2.27l1.432-.868a4790.696 4790.696 0 0 0 14.54-8.902l2.502-1.542 9.04 5.444 9.041 5.442-.138 13.155a2738.15 2738.15 0 0 0-.14 23.289v10.134l-5.357-.057-5.356-.057-.056-10.232-.055-10.231 4.564-2.997 4.563-2.996v-4.188l-2.28 1.47c-1.255.808-4.095 2.654-6.312 4.103l-4.03 2.635-.056 12.81c-.03 7.044-.01 12.929.047 13.076.08.21 1.988.255 8.965.212l8.863-.056.054-26.029.054-26.03-2.6-1.597c-1.43-.879-4.27-2.6-6.312-3.824-5.334-3.198-8.99-5.41-10.847-6.565ZM42.092 29.3c-.136 0-1.746 1.033-3.577 2.296a2269.17 2269.17 0 0 1-8.421 5.766c-2.8 1.908-5.879 4.032-6.842 4.719l-1.75 1.249v31.358l3.13.06c1.72.034 11.052.06 20.736.059l17.609-.003v-3.606l-18.936.08-18.935.081.054-13.123.055-13.122 2.79-1.914c1.534-1.053 4.191-2.869 5.904-4.036a986.254 986.254 0 0 0 5.68-3.9c2.003-1.39 2.637-1.732 2.898-1.565a9732.4 9732.4 0 0 0 15.239 9.654l3.023 1.907V57.727H47.596V39.085l-1.75-1.153c-.963-.633-1.823-1.087-1.911-1.008-.089.08-.137 5.58-.107 12.224l.055 12.08 10.236.054 10.236.056V43.342l-1.75-1.125c-.963-.619-3.42-2.185-5.463-3.48a4434.368 4434.368 0 0 1-9.258-5.896c-3.05-1.948-5.657-3.541-5.792-3.541zM92.3 35.388l-1.562.772-1.562.773v1.911c0 1.051.064 1.911.142 1.911.077 0 .736-.327 1.464-.727l1.323-.727 3.68 2.243c2.024 1.233 5.35 3.27 7.393 4.526l3.712 2.283.056 11.476.054 11.475H92.146v1.682c0 1.583.029 1.687.477 1.75.265.038 4.416.043 9.229.011l8.75-.058v-28.1l-5.674-3.48c-3.121-1.915-7.24-4.435-9.151-5.601zM1.323 82.533l.075 7.273c.085 8.197.147 8.59 1.648 10.588 1.466 1.95 3.778 3.095 7.225 3.576.752.104 3.085.158 5.185.119 2.999-.056 4.168-.164 5.443-.503 3.901-1.038 5.622-2.694 6.543-6.293.38-1.484.425-2.353.425-8.203v-6.542h-4.455l-.004 5.675c-.007 8.259-.306 9.644-2.32 10.74-1.436.781-3.582 1.045-7.536.925-3.732-.113-5.15-.42-6.26-1.354-1.366-1.148-1.372-1.183-1.489-8.88l-.106-7-2.187-.06Zm98.673.011-12.888.055-12.888.055-.06 1.962-.062 1.962h10.835v17.396h4.455V86.578h10.608v-2.017zm-67.25.004V93.12c0 5.814.067 10.638.148 10.72.082.081 1.108.121 2.28.088l2.133-.06.056-8.432c.03-4.638.125-8.432.212-8.432.67.005 1.775.542 2.434 1.181.433.421 1.904 2.213 3.269 3.982 4.11 5.328 6.336 8.046 7.426 9.066 2.245 2.1 4.11 2.741 7.968 2.741h2.501V82.548h-4.45l-.056 8.433-.055 8.432-.742-.07c-1.35-.127-2.242-.975-5.042-4.785-5.96-8.11-6.939-9.283-8.752-10.494-1.67-1.115-3.46-1.516-6.773-1.516Zm33.73 0v21.426h4.456V82.548h-2.228zm34.278 0 .964 1.007c.53.555 2.53 2.72 4.447 4.81 8.397 9.166 7.62 7.916 7.62 12.264v3.36l2.274-.06 2.274-.06.007-3.289c.006-3.184.024-3.318.576-4.243.313-.525 2.413-2.965 4.667-5.421 6.062-6.608 7.386-8.084 7.386-8.234 0-.074-1.38-.134-3.067-.134h-3.067l-3.775 4.476c-2.076 2.462-4.049 4.84-4.384 5.286l-.608.81-.983-1.214c-.54-.667-2.5-3.046-4.355-5.286l-3.374-4.072h-3.301zm20.487 27.79c-3.675 0-6.318 2.296-6.552 5.691-.217 3.152 1.776 5.757 4.897 6.4 1.631.337 4.319-.127 5.598-.966.454-.297.481-.453.481-2.761v-2.446l-1.007.064-1.008.065-.062 1.842-.06 1.843-.757.25c-2.007.662-4.517-.23-5.375-1.912-.473-.927-.568-2.581-.203-3.548.953-2.523 4.806-3.44 6.816-1.62.345.312.432.294 1.138-.245l.764-.583-.586-.611c-.79-.825-2.571-1.462-4.084-1.462zm-102.852.086c-1.662.037-3.33.656-4.58 1.948-1.72 1.777-2.136 4.89-.93 6.95.698 1.19 2.048 2.361 3.19 2.766 1.307.464 3.71.426 5.061-.08 1.225-.458 2.624-1.736 3.241-2.962.496-.984.65-3.154.312-4.364-.773-2.761-3.525-4.32-6.294-4.258zm-11.947.035c-1.07-.003-2.127.158-2.831.5-2.477 1.198-2.72 4.175-.445 5.466.45.256 1.676.677 2.724.936 1.361.336 2.046.622 2.395.998.617.666.613.934-.024 1.674-.49.569-.593.595-2.386.59-1.533-.004-2.04-.092-2.784-.485-1.032-.547-1.189-.506-1.5.385-.197.568-.165.677.293.976.283.186.922.47 1.421.632.582.19 1.632.275 2.927.239 1.693-.047 2.15-.137 2.833-.559 1.062-.656 1.616-1.592 1.617-2.732.002-1.803-.952-2.663-3.713-3.352-2.781-.693-3.446-1.18-3.16-2.32.36-1.43 2.662-1.686 5.473-.608.204.079.435-.12.669-.572.34-.656.338-.705-.032-.976-.702-.513-2.1-.788-3.477-.792zm20.788.057v5.817c0 3.198.06 5.876.135 5.95.075.075 1.817.111 3.872.08 3.294-.048 3.855-.109 4.738-.51 1.387-.628 1.912-1.509 1.8-3.018-.077-1.043-.172-1.234-.965-1.938-.796-.706-.847-.808-.53-1.07.913-.758 1.176-2.627.521-3.702-.754-1.237-1.596-1.46-5.805-1.538zm67.876.014-1.18.063-1.182.064-1.74 4.03c-.956 2.218-1.832 4.194-1.945 4.392-.162.283-.616-.574-2.137-4.031l-1.93-4.39-1.214-.065c-1.464-.077-1.505-.396.518 4.095.788 1.75 1.838 4.137 2.332 5.303.495 1.167.942 2.193.994 2.28.052.088.595.16 1.206.16h1.11l.882-2.069a302.267 302.267 0 0 1 1.929-4.401c.576-1.284 1.342-3.03 1.703-3.882zm-54.935.021v5.799c0 3.189.064 5.862.141 5.94.078.077 2.083.141 4.455.141h4.314v-1.899l-3.326-.058-3.325-.058.054-1.484c.03-.816.095-1.526.146-1.576.05-.05 1.308-.098 2.794-.107l2.702-.016v-1.697l-2.812-.106c-1.546-.058-2.811-.177-2.81-.265v-2.917h6.365v-1.697h-4.35zm11.456 0v11.88h2.121v-1.468c0-2.124.012-2.139 1.679-2.139h1.42l1.262 1.801 1.261 1.801 1.136.002c1.346.003 1.348.025-.166-2.098-.592-.829-1.076-1.556-1.076-1.616 0-.06.42-.513.934-1.007 2.406-2.314 1.5-6.055-1.676-6.922-.467-.128-2.21-.233-3.872-.233zm16.972 0v5.799c0 3.189.063 5.862.14 5.94.078.077 1.988.141 4.244.141h4.101l.027-.53c.014-.292.038-.698.053-.902.024-.336-.275-.377-3.103-.43l-3.13-.059v-9.959h-1.166zm10.182 0v5.799c0 3.189.064 5.862.142 5.94.078.077.602.141 1.166.141h1.026v-11.88h-1.167zm17.608 0v11.88h2.121v-11.88h-1.06zm5.304 0v11.88h2.333v-7.888l1.22 1.478c.671.813 2.12 2.587 3.22 3.943 1.992 2.46 2.002 2.467 2.916 2.467h.918v-11.88h-2.112l-.058 3.932-.058 3.932-2.968-3.627c-1.633-1.995-3.046-3.764-3.14-3.932-.113-.201-.528-.305-1.22-.305zm-72.13 1.697h2.026c1.397 0 2.22.1 2.65.322 1.249.646.989 2.303-.44 2.795-.404.14-1.522.258-2.485.265l-1.75.012v-1.697zm-10.985.005c1.889.01 3.465 1.215 3.976 3.039.537 1.918-.314 4.013-1.978 4.873-2.071 1.071-4.68.368-5.626-1.517-1.56-3.103.318-6.412 3.628-6.395zm35.276.101 1.737.022c2.694.034 3.673.663 3.673 2.363 0 .999-.472 1.706-1.4 2.093-.933.39-3.877.401-4.025.015-.059-.154-.08-1.228-.046-2.386zm-24.29 4.774 2.068.012c2.497.014 3.44.294 3.845 1.137.407.85.102 1.622-.824 2.086-.56.28-1.269.37-2.915.37l-2.174.001v-1.803z" style="fill:url(#b);stroke-width:.801807"/>
</svg>
