<?xml version="1.0" encoding="UTF-8" standalone="no"?>
<!-- Created with Inkscape (http://www.inkscape.org/) -->

<svg
   width="500"
   height="350"
   viewBox="0 0 132.29166 92.604169"
   version="1.1"
   id="svg1"
   xml:space="preserve"
   inkscape:version="1.4 (86a8ad7, 2024-10-11)"
   sodipodi:docname="wedge.svg"
   xmlns:inkscape="http://www.inkscape.org/namespaces/inkscape"
   xmlns:sodipodi="http://sodipodi.sourceforge.net/DTD/sodipodi-0.dtd"
   xmlns:xlink="http://www.w3.org/1999/xlink"
   xmlns="http://www.w3.org/2000/svg"
   xmlns:svg="http://www.w3.org/2000/svg"><sodipodi:namedview
     id="namedview1"
     pagecolor="#ffffff"
     bordercolor="#111111"
     borderopacity="1"
     inkscape:showpageshadow="0"
     inkscape:pageopacity="0"
     inkscape:pagecheckerboard="1"
     inkscape:deskcolor="#d1d1d1"
     inkscape:document-units="px"
     inkscape:zoom="0.70710678"
     inkscape:cx="141.42136"
     inkscape:cy="161.22035"
     inkscape:window-width="1920"
     inkscape:window-height="1115"
     inkscape:window-x="-9"
     inkscape:window-y="-9"
     inkscape:window-maximized="1"
     inkscape:current-layer="layer1" /><defs
     id="defs1"><linearGradient
       id="linearGradient224"><stop
         style="stop-color:#828bab;stop-opacity:1;"
         offset="0.14921466"
         id="stop226" /><stop
         style="stop-color:#ffffff;stop-opacity:1;"
         offset="0.68586385"
         id="stop227" /></linearGradient><filter
       style="color-interpolation-filters:sRGB;"
       inkscape:label="Drop Shadow"
       id="filter271"
       x="-0.0046560946"
       y="-0.0069306123"
       width="1.022009"
       height="1.0332479"><feFlood
         result="flood"
         in="SourceGraphic"
         flood-opacity="1.000000"
         flood-color="rgb(15,84,181)"
         id="feFlood270" /><feGaussianBlur
         result="blur"
         in="SourceGraphic"
         stdDeviation="0.100000"
         id="feGaussianBlur270" /><feOffset
         result="offset"
         in="blur"
         dx="1.600000"
         dy="1.300000"
         id="feOffset270" /><feComposite
         result="comp1"
         operator="in"
         in="flood"
         in2="offset"
         id="feComposite270" /><feComposite
         result="comp2"
         operator="over"
         in="SourceGraphic"
         in2="comp1"
         id="feComposite271" /></filter><filter
       style="color-interpolation-filters:sRGB"
       inkscape:label="Drop Shadow"
       id="filter271-2"
       x="-0.0046560966"
       y="-0.0069306147"
       width="1.022009"
       height="1.0332479"><feFlood
         result="flood"
         in="SourceGraphic"
         flood-opacity="1.000000"
         flood-color="rgb(15,84,181)"
         id="feFlood270-7" /><feGaussianBlur
         result="blur"
         in="SourceGraphic"
         stdDeviation="0.100000"
         id="feGaussianBlur270-9" /><feOffset
         result="offset"
         in="blur"
         dx="1.600000"
         dy="1.300000"
         id="feOffset270-5" /><feComposite
         result="comp1"
         operator="in"
         in="flood"
         in2="offset"
         id="feComposite270-4" /><feComposite
         result="comp2"
         operator="over"
         in="SourceGraphic"
         in2="comp1"
         id="feComposite271-3" /></filter><linearGradient
       inkscape:collect="always"
       xlink:href="#linearGradient224"
       id="linearGradient225"
       x1="62.019386"
       y1="-241.76529"
       x2="71.082726"
       y2="-167.95032"
       gradientUnits="userSpaceOnUse"
       gradientTransform="translate(-60.199515,240.80952)" /><filter
       style="color-interpolation-filters:sRGB;"
       inkscape:label="Drop Shadow"
       id="filter274"
       x="-0.0046560966"
       y="-0.0069306147"
       width="1.022009"
       height="1.0332479"><feFlood
         result="flood"
         in="SourceGraphic"
         flood-opacity="1.000000"
         flood-color="rgb(3,81,153)"
         id="feFlood273" /><feGaussianBlur
         result="blur"
         in="SourceGraphic"
         stdDeviation="0.100000"
         id="feGaussianBlur273" /><feOffset
         result="offset"
         in="blur"
         dx="1.600000"
         dy="1.300000"
         id="feOffset273" /><feComposite
         result="comp1"
         operator="in"
         in="flood"
         in2="offset"
         id="feComposite273" /><feComposite
         result="comp2"
         operator="over"
         in="SourceGraphic"
         in2="comp1"
         id="feComposite274" /></filter></defs><g
     inkscape:label="Layer 1"
     inkscape:groupmode="layer"
     id="layer1"
     transform="translate(60.028178,5.1951683)"><path
       id="rect227-1"
       style="fill:#828bab;fill-opacity:1;fill-rule:evenodd;stroke:#035199;stroke-width:0.449792;stroke-dasharray:none;stroke-opacity:1;filter:url(#filter274)"
       d="m -58.670906,14.95738 31.805293,66.97782 h 32.3665 L 36.859855,82.03599 69.281625,22.33104 35.606027,22.70522 4.275639,79.355 -26.304407,14.95738 Z"
       sodipodi:nodetypes="ccccccccc" /><path
       id="path219"
       style="fill:url(#linearGradient225);fill-rule:evenodd;stroke:#000000;stroke-width:0.529167;stroke-dasharray:none"
       inkscape:transform-center-x="-0.26855897"
       inkscape:transform-center-y="12.005729"
       d="M 43.069285,-0.18553 5.544795,72.89827 -30.368349,-1.23492 C 8.215302,5.7156 16.313763,3.43227 43.069285,-0.18553 Z"
       sodipodi:nodetypes="cccc" /><path
       style="fill:#13497d;stroke:#000000;stroke-width:0.264583;stroke-linecap:butt;stroke-linejoin:miter;stroke-miterlimit:4;stroke-dasharray:none;stroke-opacity:1;paint-order:normal"
       d="m 20.355083,49.46417 c 0.0992,-0.23404 0.0916,-0.48903 -0.0141,-0.46927 -0.0719,0.0134 -0.0721,-0.0335 -0.001,-0.18423 0.0568,-0.12045 0.11828,-0.16534 0.15187,-0.11098 0.031,0.0502 0.0568,-3.6e-4 0.0573,-0.11238 7.6e-4,-0.17075 0.7529,-2.72612 0.92054,-3.12748 0.0292,-0.0699 0.058,-0.16526 0.0639,-0.21187 0.0548,-0.42843 0.16253,-0.80511 0.23018,-0.80511 0.0454,0 0.0729,-0.0667 0.061,-0.1483 -0.0264,-0.18116 0.0925,-0.96372 0.164,-1.07985 0.0285,-0.0462 0.0659,-0.25598 0.0831,-0.46611 0.0172,-0.21013 0.065,-0.39428 0.10615,-0.40921 0.0411,-0.0149 0.0513,-0.1448 0.0225,-0.2886 -0.0381,-0.19062 -0.0249,-0.24453 0.0488,-0.19898 0.0711,0.0439 0.0987,-0.0214 0.0931,-0.21988 -0.004,-0.1553 0.0167,-0.77373 0.0469,-1.37429 0.0758,-1.50842 -0.13775,-3.30037 -0.58401,-4.90038 -0.42459,-1.5223 -1.38423,-3.13495 -2.37081,-3.98407 -0.33282,-0.28645 -0.67527,-0.59969 -0.76099,-0.69609 -0.0857,-0.0964 -0.13062,-0.12593 -0.0998,-0.0656 0.0478,0.0934 -0.76919,-0.35306 -0.89069,-0.48675 -0.0233,-0.0256 -0.0996,-0.059 -0.1695,-0.0742 -0.0699,-0.0151 -0.13991,-0.0631 -0.15554,-0.10646 -0.0156,-0.0434 -0.0633,-0.0574 -0.10594,-0.031 -0.0426,0.0264 -0.0775,10e-4 -0.0775,-0.056 0,-0.0571 -0.0256,-0.0783 -0.0568,-0.0471 -0.0312,0.0312 -0.14564,-0.001 -0.25424,-0.0726 -0.1086,-0.0712 -0.19745,-0.11037 -0.19745,-0.0871 0,0.0232 -0.10487,1.1e-4 -0.23306,-0.0514 -0.98074,-0.39385 -2.61445,-0.54615 -3.5806,-0.33378 -0.25636,0.0563 -0.56471,0.11318 -0.68523,0.12628 -0.12051,0.0131 -0.26611,0.0529 -0.32354,0.0884 -0.0574,0.0355 -0.23295,0.0682 -0.39002,0.0726 -0.16193,0.005 -0.26351,0.0438 -0.2346,0.0906 0.0293,0.0475 -0.008,0.06 -0.0873,0.0294 -0.0761,-0.0292 -0.16246,-0.014 -0.19197,0.0337 -0.0295,0.0478 -0.10701,0.0663 -0.17221,0.0413 -0.0652,-0.025 -0.11855,-0.01 -0.11855,0.0339 0,0.0437 -0.0572,0.0575 -0.12712,0.0307 -0.0699,-0.0268 -0.12713,-0.008 -0.12713,0.0424 0,0.0501 -0.0572,0.0692 -0.12712,0.0424 -0.0699,-0.0268 -0.12712,-0.008 -0.12712,0.0424 0,0.0502 -0.0634,0.0668 -0.14102,0.037 -0.0942,-0.0361 -0.12087,-0.0215 -0.0804,0.0441 0.0396,0.0641 0.0151,0.0807 -0.0708,0.0477 -0.0725,-0.0278 -0.13153,-0.006 -0.13153,0.0483 0,0.0543 -0.0347,0.0774 -0.0771,0.0512 -0.10886,-0.0673 -0.35522,0.04 -0.29937,0.1303 0.0255,0.0412 -0.0129,0.0522 -0.0852,0.0244 -0.0725,-0.0278 -0.13153,-0.006 -0.13153,0.0483 0,0.0543 -0.0381,0.0753 -0.0848,0.0464 -0.0466,-0.0288 -0.0847,-0.006 -0.0847,0.0515 0,0.0571 -0.0236,0.0803 -0.0525,0.0514 -0.0289,-0.0289 -0.1082,0.003 -0.17633,0.0714 -0.0681,0.0681 -0.15892,0.1022 -0.20178,0.0757 -0.0428,-0.0265 -0.0779,-0.006 -0.0779,0.0466 0,0.0521 -0.0349,0.0732 -0.0775,0.0469 -0.0426,-0.0264 -0.09029,-0.0178 -0.10593,0.019 -0.02906,0.0684 -1.250902,0.23602 -2.852445,1.82603 -2.713578,2.69403 -6.393467,7.36771 -6.308905,7.26844 0,0 2.397055,-5.94052 2.627992,-6.151 0,0 5.151044,-6.31442 5.432018,-6.31442 0.0441,0 0.10073,-0.0535 0.12582,-0.11888 0.0522,-0.13612 2.09069,-1.5201 2.15065,-1.46015 0.0217,0.0217 0.11548,-0.0366 0.20843,-0.12954 0.0929,-0.0929 0.22522,-0.14741 0.29395,-0.12103 0.0687,0.0264 0.10479,0.0153 0.0801,-0.0246 -0.0645,-0.10444 1.31997,-0.71931 2.31762,-1.02925 0.46849,-0.14555 0.87222,-0.29768 0.89719,-0.33807 0.025,-0.0404 -0.21995,-0.28514 -0.54424,-0.54389 -0.53252,-0.42489 -0.93056,-0.82746 -0.59234,-0.59908 0.069,0.0466 0.0259,-0.0106 -0.0958,-0.12712 -0.31806,-0.30446 -0.67684,-0.81751 -0.61496,-0.87939 0.0291,-0.0291 0.009,-0.0528 -0.0448,-0.0528 -0.13464,0 -0.55913,-0.86533 -0.88458,-1.80323 -0.25068,-0.72244 -0.27083,-0.86175 -0.26634,-1.84093 0.004,-0.89522 0.0373,-1.155 0.21422,-1.67666 0.11515,-0.33951 0.23971,-0.5874 0.2768,-0.55086 0.0371,0.0365 0.0576,0.009 0.0456,-0.0607 -0.0341,-0.19809 0.10001,-0.59736 0.18331,-0.54587 0.0411,0.0254 0.0531,-0.0101 0.0268,-0.0788 -0.0288,-0.075 0.0251,-0.16416 0.13467,-0.22277 0.10951,-0.0586 0.16343,-0.14781 0.13466,-0.22277 -0.0308,-0.0803 -0.0128,-0.10331 0.0502,-0.0643 0.0652,0.0403 0.0803,0.0142 0.0451,-0.0776 -0.0292,-0.0761 -0.0107,-0.1645 0.0411,-0.1965 0.0605,-0.0374 0.0719,-0.0156 0.0319,0.0609 -0.0342,0.0655 0.0648,-0.0327 0.21997,-0.21808 0.1552,-0.18541 0.53007,-0.59581 0.83304,-0.912 0.30298,-0.31618 0.54038,-0.61542 0.52758,-0.66497 -0.0128,-0.0496 0.0175,-0.0649 0.0673,-0.0341 0.11873,0.0734 0.35137,-0.12166 0.28097,-0.23557 -0.03,-0.0485 -0.015,-0.0638 0.0333,-0.0339 0.0483,0.0299 0.3836,-0.0952 0.74507,-0.27785 0.36146,-0.18269 0.84672,-0.37762 1.07835,-0.43318 0.30704,-0.0737 0.39,-0.12292 0.30619,-0.1818 -0.0813,-0.0571 -0.0474,-0.07 0.11555,-0.044 0.12677,0.0202 0.21235,0.007 0.19017,-0.0285 -0.065,-0.10524 1.18933,-0.19063 1.84757,-0.12577 0.72334,0.0713 1.95436,0.4413 1.87818,0.56455 -0.0292,0.0473 -0.002,0.0789 0.0613,0.0703 0.23119,-0.0317 0.33489,0.007 0.27585,0.10221 -0.0379,0.0614 -0.0232,0.0748 0.0396,0.036 0.16944,-0.10472 1.47771,0.83944 2.14078,1.54499 0.68889,0.73302 1.33168,1.78534 1.61461,2.64329 0.27821,0.84367 0.31421,2.4642 0.0752,3.3862 -0.42222,1.62886 -1.56556,3.26169 -3.04011,4.34165 -0.51923,0.38028 -0.62203,0.48958 -0.55797,0.59324 0.0225,0.0364 0.44905,0.27636 0.94783,0.53314 1.07454,0.55322 1.96279,1.26533 2.52389,2.02342 0.51555,0.69655 1.30683,1.96169 1.69073,2.70321 0.16289,0.31463 0.4285,1.18238 0.4285,1.18238 l 0.32563,1.93217 c 0,0 -0.0607,1.1813 0.17414,2.43086 0.47409,2.52211 0.14059,3.55888 0.14059,3.55888 -0.12068,0.49291 -0.60456,1.49152 -0.94143,2.40044 -0.7822,2.11047 -1.57834,3.74304 -2.48933,5.1046 -0.90609,1.35422 -1.48853,2.11413 -1.57802,2.05883 -0.0381,-0.0235 -0.064,0.0191 -0.0576,0.0947 0.006,0.0773 -0.0625,0.14914 -0.15766,0.16416 -0.0931,0.0147 -0.27794,0.16218 -0.41077,0.32775 -0.25475,0.31755 -0.45718,0.40594 -0.34979,0.15273 z"
       id="path67"
       sodipodi:nodetypes="cssssscssssscscsssscscsssscscssscsccsssssscssssscsssscsscssccssssscsssssssscsssscsscssssssssssssscssccsssssssssccssssscsscc" /><path
       style="fill:#999486;stroke:#000000;stroke-width:0.264583;stroke-linecap:butt;stroke-linejoin:miter;stroke-dasharray:none;stroke-opacity:1;paint-order:normal"
       d="m 15.649954,56.1541 c 0,-0.11357 0.05458,-0.25179 0.121286,-0.30715 0.06671,-0.0554 0.162055,-0.29076 0.211884,-0.5231 0.04983,-0.23235 0.14239,-0.52541 0.205693,-0.65127 0.271655,-0.54007 0.57702,-2.22148 0.695688,-3.8306 0.07138,-0.96792 -0.09298,-2.90857 -0.296415,-3.49987 -0.516116,-1.50012 -1.953773,-2.84354 -3.734817,-3.49001 -0.589744,-0.21406 -0.702878,-0.2274 -1.567837,-0.18487 -0.512724,0.0252 -1.161046,0.10749 -1.440714,0.18284 -1.866128,0.50276 -4.840497,2.69821 -6.229013,4.59778 -0.110732,0.15148 -0.228215,0.27543 -0.261074,0.27543 -0.143925,0 -0.137726,-0.26084 0.01288,-0.54183 0.08992,-0.16777 0.163489,-0.3858 0.163489,-0.4845 0,-0.18169 0.731608,-1.43136 0.837979,-1.43136 0.03174,0 0.130507,-0.12395 0.219489,-0.27543 0.285347,-0.48579 1.368812,-1.79932 1.815235,-2.2007 0.47551,-0.42752 1.848839,-1.29935 2.739183,-1.73892 0.479707,-0.23683 1.049855,-0.47192 2.339599,-0.96468 0.194582,-0.0743 0.214169,-0.10289 -0.169496,-0.44308 -3.883367,-3.44332 -1.707863,-7.38655 2.086535,-7.85211 2.669301,-0.32751 6.497048,3.78633 2.298455,7.5511 l -0.719643,0.64529 0.399369,0.2843 c 2.232892,1.58956 3.193423,2.75559 3.617232,4.39112 0.180023,0.69473 0.16409,2.15658 -0.04039,3.70554 -0.09296,0.7042 -0.161974,1.37159 -0.153362,1.48309 0.0194,0.2512 -0.441581,1.46723 -0.819419,2.16156 -0.482216,0.88614 -1.183925,1.91678 -1.683371,2.47246 -0.263422,0.29308 -0.478949,0.58639 -0.478949,0.65179 0,0.0654 -0.03814,0.14249 -0.08475,0.1713 -0.04764,0.0294 -0.08475,-0.038 -0.08475,-0.15412 z m 0.769422,-4.68358 c 0.0041,-0.0987 0.02415,-0.11881 0.0512,-0.0512 0.02448,0.0612 0.02147,0.13428 -0.0067,0.16244 -0.02816,0.0282 -0.04819,-0.0219 -0.04451,-0.11124 z M 5.141212,44.36914 c 0,-0.0176 0.06674,-0.0843 0.148309,-0.14831 0.134415,-0.10542 0.137413,-0.10242 0.032,0.032 -0.110712,0.14117 -0.180306,0.18606 -0.180306,0.11631 z"
       id="path6"
       sodipodi:nodetypes="ssssssssssssssssscssscsssssssssssssssscsss" /><path
       style="fill:#770002;stroke:#000000;stroke-width:0.264583;stroke-dasharray:none;stroke-opacity:1"
       d="m -10.513227,47.7085 c -1.032967,-0.546 -2.682381,-3.89965 -3.668523,-7.45898 -0.206341,-0.74475 -0.456501,-2.32196 -0.563883,-3.55533 -0.05459,-0.62701 -0.158829,-1.47125 0.02827,-2.48503 0.251473,-1.36261 0.64699,-2.63632 0.68311,-2.8158 0.256631,-1.27517 0.934074,-2.37976 2.291651,-3.73661 0.745414,-0.74502 1.083736,-1.01551 1.631463,-1.30439 0.409848,-0.21616 0.727115,-0.44366 0.779717,-0.55911 0.08257,-0.18123 0.0206,-0.24615 -0.898737,-0.94143 -0.809412,-0.61215 -1.066788,-0.86347 -1.427642,-1.39406 -0.242119,-0.356 -0.547245,-0.93507 -0.678058,-1.28683 -0.130813,-0.35176 -0.267846,-0.62102 -0.304518,-0.59836 -0.03667,0.0227 -0.04378,-0.0185 -0.01579,-0.0914 0.02799,-0.0729 0.01368,-0.17979 -0.03179,-0.23746 -0.09408,-0.11932 -0.09015,-0.0815 -0.123322,-1.18542 -0.01366,-0.45448 7.39e-4,-0.82631 0.03199,-0.82629 0.03125,10e-6 0.08232,-0.12392 0.113469,-0.2754 0.03115,-0.15149 0.210143,-0.59959 0.397756,-0.99579 0.795944,-1.68086 1.858241,-2.70742 3.564612,-3.44471 1.986584,-0.85836 3.125065,-0.86157 4.578914,-0.0129 0.223456,0.13044 0.424064,0.23717 0.445796,0.23717 0.08778,0 0.94849,0.63363 1.25152,0.92134 0.598775,0.56848 1.23559,1.41598 1.540786,2.05052 0.166635,0.34646 0.366112,0.7437 0.443283,0.88277 0.211626,0.38135 0.212706,2.53961 0.0014,2.83812 -0.08157,0.11525 -0.148309,0.27019 -0.148309,0.34432 0,0.199 -0.394313,0.98112 -0.765499,1.51836 -0.178686,0.25862 -0.632527,0.79273 -1.008537,1.18691 -0.37601,0.39417 -0.683654,0.76288 -0.683654,0.81936 0,0.0565 -0.02054,0.15621 -0.04565,0.22163 -0.04879,0.12716 0.278904,0.31865 0.545293,0.31865 0.162184,0 2.187604,0.9831 3.07889,1.49443 0.867123,0.49747 2.010805,1.30447 2.608709,1.84073 0.39182,0.35143 0.830542,0.71935 1.211248,1.01576 0.368274,0.28674 1.671692,1.77127 1.87215,2.13229 0.07764,0.13984 0.295411,0.464 0.483928,0.72036 0.188518,0.25636 0.43014,0.60015 0.53694,0.76398 0.106799,0.16382 0.256571,0.34964 0.332828,0.41292 0.07626,0.0633 0.138648,0.15153 0.138648,0.19608 0,0.0446 0.228819,0.45337 0.508487,0.90847 0.520868,0.8476 0.577495,1.05472 0.41545,1.51956 -0.123961,0.35559 -0.352992,0.3463 -0.728871,-0.0296 -0.163059,-0.16306 -0.336753,-0.27158 -0.385985,-0.24115 -0.04923,0.0304 -0.06507,0.0158 -0.0352,-0.0326 0.06892,-0.11152 -0.258255,-0.53485 -0.393177,-0.50873 -0.05558,0.0108 -0.09329,-0.0228 -0.08379,-0.0746 C 7.021646,35.90845 6.850028,35.67704 6.63078,35.446 6.411533,35.21495 6.32749,35.14292 6.444018,35.28592 l 0.21187,0.26001 -0.272417,-0.24602 C 6.233641,35.16459 6.127897,35.02663 6.148484,34.99332 6.196374,34.91582 4.301098,33.16107 3.393093,32.44221 2.013074,31.34966 -0.071856,30.43297 -1.981858,30.07896 c -1.216927,-0.22554 -3.763358,0.0237 -4.752425,0.46513 -0.556519,0.2484 -1.847985,1.12473 -2.336649,1.58555 -1.101822,1.03904 -2.004577,2.80866 -2.456147,4.81463 -0.161947,0.71941 -0.176479,0.97651 -0.136521,2.41532 0.0296,1.06601 0.102173,1.92527 0.21472,2.54244 0.247837,1.35905 0.307347,1.59374 0.676912,2.66956 0.184137,0.53603 0.397076,1.16528 0.473197,1.39834 0.07612,0.23305 0.1944,0.59535 0.262841,0.8051 0.06844,0.20975 0.124249,0.54345 0.124019,0.74155 -4.87e-4,0.41814 -0.108192,0.4525 -0.601332,0.19184 z"
       id="path2" /></g></svg>
