<svg xmlns="http://www.w3.org/2000/svg" xmlns:xlink="http://www.w3.org/1999/xlink" xml:space="preserve" width="500" height="350" viewBox="0 0 132.292 92.604">
  <defs>
    <linearGradient id="a">
      <stop offset=".149" style="stop-color:#828bab;stop-opacity:1"/>
      <stop offset=".686" style="stop-color:#fff;stop-opacity:1"/>
    </linearGradient>
    <linearGradient xlink:href="#a" id="c" x1="62.019" x2="71.083" y1="-241.765" y2="-167.95" gradientTransform="translate(-60.2 240.81)" gradientUnits="userSpaceOnUse"/>
    <filter id="b" width="1.022" height="1.033" x="-.005" y="-.007" style="color-interpolation-filters:sRGB">
      <feFlood flood-color="#035199" flood-opacity="1" result="flood"/>
      <feGaussianBlur in="SourceGraphic" result="blur" stdDeviation=".1"/>
      <feOffset dx="1.6" dy="1.3" in="blur" result="offset"/>
      <feComposite in="flood" in2="offset" operator="in" result="comp1"/>
      <feComposite in="SourceGraphic" in2="comp1" result="comp2"/>
    </filter>
  </defs>
  <path d="m-58.67 14.957 31.804 66.978H5.501l31.359.101 32.422-59.705-33.676.374-31.33 56.65-30.58-64.398Z" style="fill:#828bab;fill-opacity:1;fill-rule:evenodd;stroke:#035199;stroke-width:.449792;stroke-dasharray:none;stroke-opacity:1;filter:url(#b)" transform="translate(60.028 5.195)"/>
  <path d="M43.07-.186 5.544 72.898-30.368-1.235c38.583 6.95 46.682 4.667 73.437 1.05Z" style="fill:url(#c);fill-rule:evenodd;stroke:#000;stroke-width:.529167;stroke-dasharray:none" transform="translate(60.028 5.195)"/>
  <path d="M20.355 49.464c.1-.234.092-.489-.014-.47-.072.014-.072-.033-.001-.183.057-.12.118-.166.152-.111.03.05.057 0 .057-.113 0-.17.753-2.726.92-3.127.03-.07.059-.165.065-.212.054-.428.162-.805.23-.805.045 0 .073-.067.06-.148-.026-.182.093-.964.165-1.08.028-.046.066-.256.083-.466.017-.21.065-.395.106-.41.041-.015.051-.144.023-.288-.039-.19-.025-.245.048-.2.071.045.099-.02.093-.22-.004-.154.017-.773.047-1.373.076-1.509-.137-3.3-.584-4.9-.424-1.523-1.384-3.136-2.37-3.985a12.68 12.68 0 0 1-.761-.696c-.086-.096-.131-.126-.1-.066.048.094-.77-.353-.891-.486a.4.4 0 0 0-.17-.074c-.07-.016-.14-.064-.155-.107-.016-.043-.063-.057-.106-.03-.043.025-.077 0-.077-.057s-.026-.078-.057-.047c-.031.031-.146-.001-.254-.073-.11-.07-.198-.11-.198-.087 0 .023-.105 0-.233-.051-.98-.394-2.614-.546-3.58-.334a8.852 8.852 0 0 1-.686.126.973.973 0 0 0-.323.089c-.058.035-.233.068-.39.072-.162.005-.264.044-.235.091.03.047-.008.06-.087.03-.076-.03-.163-.015-.192.033-.03.048-.107.066-.172.041-.066-.025-.119-.01-.119.034 0 .044-.057.058-.127.031-.07-.027-.127-.008-.127.042s-.057.07-.127.043c-.07-.027-.128-.008-.128.042s-.063.067-.14.037c-.095-.036-.121-.021-.08.044.039.064.014.081-.072.048-.072-.028-.131-.006-.131.048 0 .055-.035.078-.077.051-.11-.067-.356.04-.3.13.026.042-.013.053-.085.025-.072-.028-.131-.006-.131.048 0 .055-.039.076-.085.047-.047-.029-.085-.006-.085.051 0 .057-.024.08-.052.052-.03-.03-.109.003-.177.071-.068.068-.159.102-.202.076-.042-.027-.077-.006-.077.046 0 .053-.035.074-.078.047-.043-.026-.09-.017-.106.02-.029.068-1.25.235-2.852 1.825C2.696 35.3-.984 39.973-.9 39.874c0 0 2.398-5.94 2.629-6.151 0 0 5.15-6.315 5.432-6.315.044 0 .1-.053.126-.118.052-.137 2.09-1.52 2.15-1.46.022.021.116-.037.209-.13.093-.093.225-.148.294-.121.068.026.104.015.08-.025-.065-.104 1.32-.72 2.317-1.029.469-.146.873-.298.898-.338.025-.04-.22-.285-.545-.544-.532-.425-.93-.827-.592-.6.069.048.026-.01-.096-.126-.318-.305-.677-.818-.615-.88.03-.029.01-.052-.045-.052-.134 0-.559-.866-.884-1.804-.25-.722-.271-.861-.267-1.84.004-.896.038-1.156.215-1.677.115-.34.24-.588.276-.551.038.036.058.009.046-.06-.034-.199.1-.598.183-.547.041.026.053-.01.027-.078-.029-.075.025-.165.135-.223.11-.059.163-.148.135-.223-.031-.08-.013-.103.05-.064.065.04.08.014.045-.078-.03-.076-.01-.164.04-.196.061-.038.073-.016.033.06-.034.066.065-.032.22-.218.155-.185.53-.595.833-.912.303-.316.54-.615.527-.665-.012-.05.018-.064.068-.034.118.074.351-.121.28-.235-.03-.049-.014-.064.034-.034s.384-.095.745-.278c.362-.183.847-.378 1.078-.433.307-.074.39-.123.307-.182-.082-.057-.048-.07.115-.044.127.02.212.007.19-.028-.065-.106 1.19-.191 1.848-.126.723.071 1.954.441 1.878.564-.03.048-.002.08.061.07.232-.031.335.008.276.103-.038.061-.023.075.04.036.17-.105 1.478.84 2.14 1.545.69.733 1.332 1.785 1.615 2.643.278.844.314 2.464.075 3.386-.422 1.63-1.565 3.262-3.04 4.342-.519.38-.622.49-.558.593.023.037.45.277.948.533 1.075.554 1.963 1.266 2.524 2.024a25.04 25.04 0 0 1 1.69 2.703c.164.315.43 1.182.43 1.182l.325 1.933s-.06 1.18.174 2.43c.474 2.523.14 3.56.14 3.56-.12.492-.604 1.49-.94 2.4-.783 2.11-1.58 3.743-2.49 5.104-.906 1.355-1.489 2.114-1.578 2.06-.038-.024-.064.018-.058.094.006.077-.062.149-.157.164-.094.015-.278.162-.411.328-.255.317-.457.406-.35.153z" style="fill:#13497d;stroke:#000;stroke-width:.264583;stroke-linecap:butt;stroke-linejoin:miter;stroke-miterlimit:4;stroke-dasharray:none;stroke-opacity:1;paint-order:normal" transform="translate(60.028 5.195)"/>
  <path d="M15.65 56.154c0-.113.055-.252.121-.307.067-.055.162-.29.212-.523a3.43 3.43 0 0 1 .206-.651c.271-.54.577-2.222.696-3.831.07-.968-.093-2.909-.297-3.5-.516-1.5-1.954-2.843-3.735-3.49-.59-.214-.703-.227-1.568-.185-.512.025-1.16.108-1.44.183-1.866.503-4.84 2.698-6.23 4.598-.11.151-.228.275-.26.275-.144 0-.138-.26.013-.542.09-.167.163-.385.163-.484 0-.182.732-1.431.838-1.431.032 0 .13-.124.22-.276.285-.486 1.368-1.8 1.815-2.2.475-.428 1.849-1.3 2.739-1.74.48-.236 1.05-.471 2.34-.964.194-.074.214-.103-.17-.443-3.883-3.444-1.708-7.387 2.087-7.852 2.669-.328 6.497 3.786 2.298 7.55l-.72.646.4.284c2.233 1.59 3.193 2.756 3.617 4.391.18.695.164 2.157-.04 3.706-.093.704-.162 1.372-.154 1.483.02.251-.441 1.467-.82 2.162-.481.886-1.183 1.916-1.683 2.472-.263.293-.479.587-.479.652 0 .065-.038.142-.084.171-.048.03-.085-.038-.085-.154zm.77-4.683c.003-.1.024-.12.05-.052.025.062.022.135-.006.163-.028.028-.048-.022-.045-.111zM5.14 44.369c0-.017.067-.084.149-.148.134-.106.137-.103.032.032-.111.141-.18.186-.18.116z" style="fill:#999486;stroke:#000;stroke-width:.264583;stroke-linecap:butt;stroke-linejoin:miter;stroke-dasharray:none;stroke-opacity:1;paint-order:normal" transform="translate(60.028 5.195)"/>
  <path d="M-10.513 47.709c-1.033-.547-2.683-3.9-3.669-7.46-.206-.744-.456-2.321-.564-3.555-.054-.627-.158-1.471.029-2.485.251-1.362.647-2.636.683-2.816.256-1.275.934-2.38 2.291-3.736.746-.745 1.084-1.016 1.632-1.305.41-.216.727-.443.78-.559.082-.181.02-.246-.9-.941-.809-.612-1.066-.864-1.427-1.394a7.32 7.32 0 0 1-.678-1.287c-.13-.352-.268-.621-.304-.598-.037.022-.044-.019-.016-.092a.27.27 0 0 0-.032-.237c-.094-.12-.09-.082-.123-1.186-.014-.454 0-.826.032-.826.031 0 .082-.124.113-.275.031-.152.21-.6.398-.996.796-1.681 1.858-2.708 3.565-3.445 1.986-.858 3.125-.861 4.578-.013.224.13.425.237.446.237.088 0 .949.634 1.252.922.599.568 1.235 1.416 1.54 2.05.167.347.367.744.444.883.211.381.213 2.54.001 2.838-.081.115-.148.27-.148.344 0 .2-.394.982-.766 1.519-.178.258-.632.793-1.008 1.187s-.684.763-.684.82c0 .056-.02.155-.045.22-.05.128.279.32.545.32.162 0 2.187.982 3.079 1.494.867.497 2.01 1.304 2.608 1.84.392.352.831.72 1.212 1.016.368.287 1.671 1.772 1.872 2.133.078.14.295.464.484.72.188.256.43.6.537.764.107.164.256.35.333.413.076.063.138.151.138.196 0 .045.23.453.509.908.52.848.577 1.055.415 1.52-.124.356-.353.346-.729-.03-.163-.163-.336-.271-.386-.24-.049.03-.065.015-.035-.033.069-.112-.258-.535-.393-.51-.056.012-.093-.022-.084-.074.01-.052-.162-.283-.381-.514-.22-.231-.304-.303-.187-.16l.212.26-.273-.246c-.15-.135-.255-.273-.235-.307.048-.077-1.847-1.832-2.755-2.55-1.38-1.093-3.465-2.01-5.375-2.364-1.217-.226-3.763.024-4.752.465-.557.248-1.848 1.125-2.337 1.586-1.102 1.039-2.005 2.808-2.456 4.814-.162.72-.177.977-.137 2.416.03 1.066.103 1.925.215 2.542.248 1.36.307 1.594.677 2.67a135.93 135.93 0 0 1 .736 2.203c.069.21.124.543.124.742 0 .418-.108.452-.601.191z" style="fill:#770002;stroke:#000;stroke-width:.264583;stroke-dasharray:none;stroke-opacity:1" transform="translate(60.028 5.195)"/>
</svg>
