<svg xmlns="http://www.w3.org/2000/svg" xmlns:xlink="http://www.w3.org/1999/xlink" xml:space="preserve" width="300" height="100" viewBox="0 0 79.375 26.458">
  <defs>
    <linearGradient id="a">
      <stop offset="0" style="stop-color:#72a5b9;stop-opacity:1"/>
      <stop offset="1" style="stop-color:#72c9b9;stop-opacity:1"/>
    </linearGradient>
    <linearGradient xlink:href="#a" id="b" x1="2.458" x2="15.64" y1="22.762" y2="22.762" gradientUnits="userSpaceOnUse"/>
  </defs>
  <g style="opacity:1">
    <path d="M33.228 15.04c-.519-.072-1.169-.368-1.534-.698-.963-.87-.92-2.71.083-3.617.699-.63 1.732-.888 2.721-.678.525.11.931.343 1.278.729.352.39.492.782.523 1.463l.02.434-2.151.018-2.151.017v.183c.001.253.278.813.508 1.029.323.302.793.469 1.423.504a6.744 6.744 0 0 0 1.712-.158c.114-.029.157.007.217.18.042.118.075.251.075.297 0 .217-1.845.418-2.724.297zm2.056-3.15c-.004-.507-.476-1.107-.98-1.247-.892-.248-1.813.168-2.158.972-.224.523-.321.491 1.505.491h1.634zm2.202 3.13c-.395-.092-.667-.217-.667-.307 0-.03.045-.163.1-.294l.1-.238.35.12c.991.34 1.78.16 1.89-.431.091-.487-.156-.743-1.113-1.155-.864-.372-1.193-.743-1.193-1.343 0-.515.32-.946.901-1.213.263-.12.445-.152.866-.148.5.004.958.09 1.152.215.067.044.066.107-.008.317-.103.294-.128.299-.709.133-.886-.253-1.566.25-1.256.93.057.125.243.251.65.442.943.44.993.469 1.237.712.673.673.39 1.782-.557 2.19-.321.138-1.281.177-1.743.07zm4.78-.01a1.483 1.483 0 0 1-.426-.247c-.345-.318-.375-.489-.405-2.34l-.028-1.718h-.786v-.6h.8v-.91l.357-.112c.48-.151.51-.145.512.105 0 .119.019.374.042.567l.042.35h1.316v.649l-.684-.008-.684-.007-.02 1c-.032 1.509.031 2.201.221 2.422.132.154.22.184.61.213l.457.033.02.308c.019.298.013.31-.192.35-.344.069-.877.043-1.152-.055zm14.077.006c-.702-.263-1.043-.7-1.046-1.338-.003-.651.406-1.148 1.183-1.439.462-.173 1.388-.333 1.926-.333.48 0 .478.003.324-.517-.127-.425-.382-.65-.849-.746-.4-.083-1.17-.008-1.643.159-.16.057-.303.103-.316.103-.013 0-.07-.11-.127-.245-.119-.285-.103-.304.386-.452 1.527-.464 2.94-.168 3.39.711.188.367.252.991.267 2.621.012 1.325.002 1.467-.097 1.462l-.435-.017-.325-.01-.042-.268c-.024-.146-.062-.266-.086-.266-.023 0-.144.077-.267.17-.402.308-.791.437-1.41.47-.404.02-.656.001-.833-.065zm1.407-.578c.725-.167 1.081-.645 1.081-1.453v-.479h-.537c-1.158 0-1.908.381-1.978 1.006-.047.417.107.702.468.866.314.142.547.156.966.06zm10.76.599c-.502-.09-1.178-.43-1.505-.756-.424-.425-.592-.832-.625-1.518-.033-.695.085-1.137.43-1.611.632-.872 2.095-1.332 3.485-1.096.344.058.655.135.691.171.07.07-.044.513-.148.578-.03.019-.261-.014-.512-.073-.889-.21-1.916.016-2.413.53-.487.503-.648 1.408-.364 2.046.2.45.654.83 1.188.994.53.165.906.173 1.61.039.288-.056.53-.1.538-.1.05 0 .151.56.107.6-.21.187-1.818.315-2.481.196zm-21.935-.04c-.066-.027-.084-.767-.084-3.388V8.255l.25-.044c.138-.025.691-.063 1.23-.086 1.5-.063 2.403.126 2.986.626.158.135.328.344.379.464.109.26.12.807.02 1.069-.108.288-.455.612-.888.833-.215.11-.365.221-.333.25.032.027.18.084.328.126.387.11.88.457 1.081.76.115.173.183.384.203.625.088 1.06-.638 1.8-2.025 2.066-.488.093-2.945.135-3.147.053zm3.354-.858c.666-.34.925-.958.644-1.535-.298-.613-.845-.843-2.097-.884l-.918-.03v2.696l.99-.023c.946-.022 1.005-.031 1.381-.224zm-.43-3.202c.9-.318 1.202-1.154.624-1.732-.33-.329-.752-.434-1.743-.434h-.822v2.355l.828-.044c.455-.025.956-.09 1.112-.145zm22.622 4.05-.483-.019V7.77h1v3.078l.288-.237c.497-.406 1.005-.6 1.58-.602.69-.003 1.14.162 1.543.565.475.475.52.699.552 2.718l.026 1.682h-1.054v-1.55c0-1.609-.041-1.934-.284-2.276-.391-.55-1.482-.59-2.15-.08-.446.34-.464.42-.5 2.272l-.034 1.668zm-48.274-.43a1047.24 1047.24 0 0 1-.936-3.218c-.245-.844-.547-1.876-.672-2.293a11.755 11.755 0 0 1-.227-.82c0-.034.229-.052.509-.042l.509.02.696 2.635c.384 1.449.727 2.75.764 2.893.036.142.09.232.117.2.029-.032.147-.434.263-.892.254-1.002 1.396-4.747 1.47-4.823.03-.029.274-.044.544-.033l.49.02.39 1.4c.213.771.558 2.07.765 2.887.207.817.397 1.462.42 1.434.025-.028.129-.382.23-.785.102-.404.467-1.674.811-2.823.345-1.15.626-2.102.626-2.118 0-.016.225-.028.5-.028.276 0 .5.013.5.03 0 .016-.312.984-.695 2.151a451.69 451.69 0 0 0-1.432 4.422c-.048.158-.08.168-.59.186l-.54.02-.102-.353a126.3 126.3 0 0 1-1.15-4.222 37.39 37.39 0 0 0-.276-1.1c-.019-.056-.086.08-.149.3l-.247.867c-.218.76-1.285 4.19-1.355 4.352-.059.138-.108.15-.588.15h-.525Zm28.714-1.507c0-1.058-.02-2.154-.043-2.435l-.043-.51h.82v.439c0 .242.026.43.059.417.032-.012.16-.157.284-.322.276-.369.847-.682 1.19-.654l.234.02.02.383.02.384h-.22c-.414.001-.746.14-1.022.426-.394.409-.432.61-.432 2.3v1.476h-.867Zm8.271-.302c0-1.224-.019-2.32-.042-2.435l-.041-.208h.95v.367c0 .202.014.367.03.367s.22-.145.454-.322c.513-.387.915-.514 1.6-.505.972.014 1.752.576 1.911 1.376.039.193.079 1.079.089 1.969l.018 1.617h-1.025l-.021-1.684-.02-1.684-.178-.301c-.372-.634-1.142-.807-1.902-.427-.266.133-.452.285-.589.483l-.2.29-.021 1.661-.02 1.662h-.993Z" style="fill:#86b5b3;fill-opacity:1" transform="matrix(1.06661 0 0 1.06661 -2.62 -3.124)"/>
    <path d="M23.946 19.72v-1.858l.55-.041c1.128-.085 1.983.192 2.332.756.395.64.382 1.445-.033 2.14-.358.597-1.05.86-2.258.86h-.591zm1.838 1.374c.525-.276.83-.827.83-1.498 0-.925-.533-1.41-1.616-1.472l-.585-.033v3.169l.583-.029c.355-.018.664-.071.788-.137zm2.03-.846c0-1.294.005-1.338.134-1.338.217 0 .235.022.21.261l-.023.228.316-.278c.403-.354.698-.387.698-.078 0 .174-.024.2-.186.2-.214 0-.444.144-.564.354-.05.088-.097.506-.117 1.047l-.034.9-.217.021-.216.021zm2.32 1.225c-.346-.187-.414-.428-.44-1.546l-.024-1.017h.48v.869c0 .93.076 1.261.323 1.393.37.198.892-.03 1.006-.441.039-.14.07-.607.07-1.038l.001-.783h.47l-.018 1.317-.018 1.317h-.167c-.138 0-.17-.036-.187-.21l-.02-.21-.337.227c-.379.255-.81.301-1.14.122zm7.551-.019a.97.97 0 0 1-.532-.857c0-.366.117-.596.461-.907l.27-.244-.165-.312c-.2-.376-.208-.588-.033-.875.266-.436.834-.608 1.267-.384.274.142.401.355.401.674 0 .328-.165.566-.57.823l-.28.177.48.526c.295.323.509.507.557.477.043-.027.141-.257.219-.512.115-.38.17-.472.304-.505.09-.023.18-.024.202-.002.068.068-.114.664-.317 1.04l-.196.364.267.273c.147.15.268.298.268.329 0 .105-.486-.022-.642-.169l-.155-.146-.394.177c-.485.218-1.06.24-1.412.053zm1.263-.329c.095-.07.173-.172.173-.226 0-.053-.232-.35-.516-.658l-.516-.56-.234.227c-.297.288-.358.577-.192.916.229.47.862.617 1.285.301zm-.256-2.072c.251-.223.288-.29.282-.514-.009-.3-.2-.497-.483-.497-.239 0-.493.274-.493.531 0 .248.215.737.324.737.044 0 .211-.116.37-.257zm3.214 2.48c-.06-.023-.064-.068-.016-.157.036-.069.333-.883.66-1.81.54-1.539.607-1.69.765-1.732.325-.087.426-.007.58.466.08.243.368 1.056.64 1.804.507 1.396.518 1.47.213 1.473-.155.001-.22-.105-.391-.633-.083-.257-.182-.505-.22-.553-.048-.061-.252-.08-.736-.066l-.669.019-.192.532c-.254.7-.331.78-.634.658zm2.117-1.594a.573.573 0 0 0-.063-.223c-.035-.065-.165-.454-.29-.864l-.225-.746-.285.882c-.157.485-.3.92-.318.969-.026.067.102.086.574.086.507 0 .607-.017.607-.104zm1.646 1.594c-.025-.024-.045-.91-.045-1.968v-1.923h.467v3.936h-.189c-.104 0-.209-.02-.234-.045zm1.85-.082c-.495-.225-.729-.685-.681-1.342.037-.52.264-.86.729-1.091.536-.267 1.392-.222 1.392.073 0 .104-.068.119-.561.119-.507 0-.58.016-.74.166-.26.242-.366.486-.366.834s.107.592.366.834c.159.149.237.167.723.17.456.004.548.022.566.117.05.26-.936.343-1.427.12zm2.607.032c-.438-.195-.767-.735-.766-1.254.001-.428.267-.94.602-1.162.383-.254.992-.298 1.379-.1.551.28.725.65.675 1.437-.033.51-.255.853-.681 1.046-.323.147-.917.163-1.209.033zm1.026-.356c.413-.309.542-1.062.264-1.555-.185-.33-.568-.502-.886-.397-.431.143-.759.705-.683 1.172.131.808.762 1.185 1.305.78zm1.654.406c-.025-.024-.045-.906-.045-1.96 0-1.888.002-1.916.14-1.952.301-.079.327-.014.327.829 0 .436.015.793.034.793.019 0 .158-.09.31-.2.349-.252.732-.27 1.064-.049.396.265.46.486.46 1.6v.984h-.191c-.177 0-.195-.024-.234-.31a9.22 9.22 0 0 1-.042-.937c0-.7-.084-.947-.365-1.075-.232-.106-.402-.1-.635.02-.366.19-.401.307-.401 1.35v.952h-.189c-.104 0-.209-.02-.233-.045zm3.724-.057c-.735-.369-.957-1.365-.468-2.108.29-.441 1.069-.66 1.614-.454 1.027.388 1.069 2.079.062 2.536-.335.152-.932.165-1.208.026zm1.034-.356c.27-.2.419-.518.419-.9 0-.448-.206-.86-.487-.977-.674-.28-1.235.178-1.23 1.002.003.837.706 1.31 1.298.875zm1.645.413c-.024-.024-.045-.91-.045-1.968v-1.923h.467v3.936h-.189c-.104 0-.209-.02-.233-.045zm2.336-.005c-.015-.028.26-.858.613-1.845.682-1.908.728-1.986 1.083-1.85.147.055.227.23.61 1.32.242.692.531 1.505.643 1.807l.203.55-.17.042c-.234.059-.317-.044-.548-.675l-.196-.533-.665-.02c-.48-.013-.684.006-.733.067-.037.048-.136.296-.219.553-.083.257-.18.504-.217.55-.072.09-.358.114-.404.034zm2.138-1.568a92.15 92.15 0 0 1-.323-.938c-.204-.598-.305-.819-.338-.734-.088.229-.522 1.64-.522 1.698 0 .031.273.057.607.057.458 0 .6-.02.576-.083zm1.618-.346v-1.972h.467v1.674l.265-.213a1.01 1.01 0 0 1 .6-.245c.41-.04.672.062.933.359.544.62.382 1.823-.297 2.207-.467.265-1.07.186-1.401-.18l-.133-.149-.034.225c-.027.185-.065.228-.217.245l-.183.021zm1.794 1.46c.322-.272.44-.93.249-1.388a.78.78 0 0 0-.76-.51c-.257 0-.333.036-.557.26-.259.258-.259.259-.259.806 0 .535.006.554.227.775.197.198.27.227.562.227.262 0 .379-.037.538-.17zm1.832.283c-.293-.268-.348-.528-.354-1.664l-.004-.783h.467l.002.783c.002 1.249.133 1.551.67 1.551.206 0 .305-.047.493-.236l.236-.235V18.91h.467v2.676l-.183-.02c-.153-.018-.187-.058-.205-.235l-.02-.213-.301.23c-.259.197-.354.23-.664.23-.318 0-.393-.028-.604-.221zm2.86.152c-.153-.062-.2-.226-.084-.297.036-.022.19-.007.344.035.37.1.699.032.833-.172.183-.28.076-.47-.393-.705-.596-.297-.783-.491-.783-.813 0-.477.503-.78 1.148-.694.306.04.476.17.395.3-.041.066-.122.07-.361.017-.369-.083-.627-.006-.706.21-.1.269-.006.396.442.6.554.25.75.46.75.8a.749.749 0 0 1-.407.691c-.207.107-.937.124-1.177.028zm2.802-.072c-.537-.266-.776-.872-.62-1.575.069-.311.14-.44.375-.665.32-.309.584-.392 1.072-.337.512.058.89.558.89 1.175v.209h-2.003l.043.183c.063.272.237.553.434.7.136.101.275.128.634.122a9.92 9.92 0 0 0 .593-.023c.08-.01.133.024.133.083 0 .288-1.052.375-1.551.128zm1.318-1.562c0-.225-.2-.562-.392-.66-.432-.224-.823-.067-1.078.432a1.909 1.909 0 0 0-.131.294c0 .02.36.036.8.036.675 0 .8-.016.8-.102z" style="fill:#70a5bf;fill-opacity:1" transform="matrix(1.06661 0 0 1.06661 -2.62 -3.124)"/>
    <path d="M33.25 22.62c-.193-.057-.266-.115-.266-.21 0-.142-.019-.14.715-.057.673.076.997-.191 1.091-.9l.047-.357-.275.182c-1.031.683-2.157-.26-1.808-1.516.232-.839 1.427-1.226 1.927-.624.102.124.204.078.204-.092 0-.112.122-.203.272-.203.036 0 .06.613.06 1.45-.001 1.265-.017 1.486-.124 1.718a1.428 1.428 0 0 1-.26.39c-.324.288-1.031.386-1.582.22zM34.497 21c.24-.23.348-.622.292-1.05-.056-.419-.126-.548-.369-.673-.44-.228-.909-.067-1.128.386-.263.543-.13 1.12.333 1.436.286.196.602.16.872-.1z" style="fill:#72a5b9" transform="matrix(1.06661 0 0 1.06661 -2.62 -3.124)"/>
    <path d="M25.075 27.383c-.607-.109-1.15-.515-1.36-1.017-.143-.345-.132-1.082.022-1.421.24-.528.726-.883 1.41-1.027.559-.119 1.4.013 1.4.219 0 .134-.171.183-.371.107-.22-.084-.73-.083-1.037.003-1.226.34-1.427 2.104-.305 2.678.301.154.908.198 1.43.105.257-.046.283-.039.283.085 0 .08-.062.16-.153.194-.243.092-.985.134-1.32.074zm5.508.023c-.691-.175-1.176-.58-1.334-1.114-.313-1.051.182-2.065 1.138-2.333.742-.208 1.34-.094 1.849.354.373.33.54.731.537 1.292-.005.828-.32 1.362-.967 1.64-.341.147-.958.228-1.223.16zm.964-.424c.568-.29.867-1.098.669-1.81-.268-.963-1.393-1.325-2.092-.672-.583.544-.595 1.73-.024 2.265a1.28 1.28 0 0 0 1.447.217zm36.743.376a1.713 1.713 0 0 1-.434-.18c-.616-.467-.782-.787-.778-1.498.006-1.145.665-1.794 1.825-1.8 1.17-.004 1.89.789 1.784 1.963-.06.646-.46 1.21-1.034 1.449-.328.137-.997.17-1.363.066zm1.323-.484c.386-.312.524-.638.522-1.228 0-.386-.035-.564-.15-.78a1.263 1.263 0 0 0-2.105-.22c-.438.52-.414 1.515.05 2.035.312.35.54.443 1.02.417.342-.02.458-.059.663-.224zm-33.965.456c-.05-.035-.047-.42.012-1.317.131-1.992.136-2.018.363-2.068a.517.517 0 0 1 .303.02c.109.061.572 1.166.936 2.232.097.284.195.517.217.517.022 0 .216-.473.43-1.051.666-1.793.668-1.796 1.11-1.708l.178.036.083 1.478c.045.813.088 1.56.095 1.659.007.099-.01.181-.038.183a5.674 5.674 0 0 1-.21.003h-.159l-.049-1.184a25.096 25.096 0 0 0-.093-1.484l-.043-.3-.39 1c-.735 1.882-.776 1.968-.942 1.968-.111 0-.184-.073-.283-.283-.181-.386-.722-1.887-.82-2.274-.043-.172-.1-.327-.128-.344-.064-.04-.12.547-.176 1.85-.025.578-.068 1.051-.096 1.051a.533.533 0 0 0-.14.033.197.197 0 0 1-.16-.017zm6.93-.3c.022-.192.073-.905.113-1.584.095-1.609.076-1.534.391-1.534.142 0 .29.038.328.084.066.08.662 1.675.912 2.44.064.196.138.331.164.3.027-.03.193-.446.369-.923.176-.477.409-1.101.518-1.387l.199-.52.31.02c.291.018.31.031.322.22l.086 1.534c.04.734.09 1.416.11 1.517.033.172.02.184-.197.184h-.231l-.049-1.084a39.803 39.803 0 0 0-.091-1.518l-.044-.433-.19.467c-.105.256-.375.932-.6 1.5-.344.874-.431 1.038-.558 1.056-.186.026-.249-.11-.83-1.818-.231-.68-.438-1.238-.46-1.238-.022 0-.06.562-.084 1.25-.025.688-.064 1.378-.086 1.534-.038.262-.057.284-.242.284h-.2zm33.447.28c-.115-.068-1.003-1.263-1.64-2.21-.189-.281-.367-.526-.396-.544-.029-.017-.04.596-.027 1.363l.025 1.395h-.415v-.556c0-.306-.02-1.054-.043-1.662l-.044-1.105.16-.024c.354-.053.452.022.973.736.285.39.72 1.008.97 1.373l.452.664v-2.761h.388l.045.617c.048.652.024 2.62-.033 2.671-.086.079-.311.102-.415.042zm-26.399-1.664V23.98h.467v3.335h-.467zm3.736 1.58c-.134-.045-.242-.131-.256-.204-.021-.11.006-.12.232-.082.783.13.983.124 1.219-.037.272-.186.37-.43.275-.682-.054-.142-.218-.25-.765-.506-.544-.253-.72-.37-.801-.527-.328-.633.21-1.217 1.11-1.202.52.008.746.068.773.204.03.154-.11.182-.499.102-.463-.095-.849.017-.988.286a.463.463 0 0 0 .116.587c.053.044.318.172.59.284.27.111.575.282.675.378.48.459.34 1.061-.314 1.362-.31.142-1.006.161-1.367.038zm10.272-1.58V23.98h.466v3.335h-.466Zm-4.997 1.546c-.166-.05-.33-.243-.264-.31.021-.02.245-.002.498.041.253.043.572.058.707.032.463-.087.678-.605.37-.89-.082-.077-.408-.259-.723-.404-.607-.279-.794-.46-.794-.766 0-.518.501-.884 1.2-.878.45.004.762.113.716.25-.019.055-.192.072-.563.055-.603-.026-.841.07-.916.368-.071.282.122.473.817.81.558.27.664.349.772.57.17.346.07.698-.272.959-.217.166-.303.186-.815.198-.315.007-.645-.008-.733-.035z" style="fill:#7ba3bb;fill-opacity:1" transform="matrix(1.06661 0 0 1.06661 -2.62 -3.124)"/>
  </g>
  <g style="opacity:1">
    <path d="M2.403 16.153c.159-1.359.496-2.709.927-3.71.546-1.273 1.577-2.758 2.665-3.843 2.089-2.08 5.71-3.645 8.828-3.813.796-.043.817-.04.817.094 0 .364-1.592 9.144-1.743 9.61-.12.373-.267.409-3.593.875-1.003.14-2.835.41-4.736.696-2.555.384-2.954.44-3.077.44-.116 0-.125-.033-.088-.35z" style="fill:#72a5b9" transform="matrix(1.06661 0 0 1.06661 -2.278 -4.55)"/>
    <path d="M16.014 22.99c-.021-.211-.07-.804-.11-1.318-.103-1.386-.335-3.888-.388-4.197-.044-.258-.059-.271-.344-.318-.433-.07-3.666-.315-4.82-.365-.543-.024-1.002-.069-1.021-.1-.02-.03.05-.056.152-.056.103 0 .908-.06 1.788-.13.88-.071 2.103-.164 2.716-.205 1.461-.099 1.472-.102 1.533-.46.045-.26.174-1.738.395-4.506.059-.742.1-1.005.134-.867.052.204.32 2.337.466 3.7.108 1.018.115 3.922.01 4.77-.084.68-.214 1.975-.355 3.551-.044.486-.088.884-.098.884-.01 0-.036-.172-.058-.383z" style="fill:#72a5b9" transform="matrix(1.06661 0 0 1.06661 -2.278 -4.55)"/>
    <path d="M14.34 28.507c-3.168-.26-6.85-2.049-8.857-4.3-1.8-2.02-2.868-4.449-3.002-6.825l-.023-.423.404.044c.418.045 3.435.475 5.841.833.752.111 1.803.263 2.335.337 1.552.216 2.697.408 2.756.462.056.053.261 1.045.71 3.437.322 1.72 1.136 6.323 1.136 6.428 0 .084-.34.086-1.3.007z" style="fill:url(#b)" transform="matrix(1.06661 0 0 1.06661 -2.278 -4.55)"/>
  </g>
</svg>
