<?xml version="1.0" encoding="UTF-8" standalone="no"?>
<!-- Created with Inkscape (http://www.inkscape.org/) -->

<svg
   width="300"
   height="100"
   viewBox="0 0 79.375 26.458333"
   version="1.1"
   id="svg1"
   xml:space="preserve"
   inkscape:version="1.4 (86a8ad7, 2024-10-11)"
   sodipodi:docname="westbranch.svg"
   xmlns:inkscape="http://www.inkscape.org/namespaces/inkscape"
   xmlns:sodipodi="http://sodipodi.sourceforge.net/DTD/sodipodi-0.dtd"
   xmlns:xlink="http://www.w3.org/1999/xlink"
   xmlns="http://www.w3.org/2000/svg"
   xmlns:svg="http://www.w3.org/2000/svg"><sodipodi:namedview
     id="namedview1"
     pagecolor="#ffffff"
     bordercolor="#111111"
     borderopacity="1"
     inkscape:showpageshadow="0"
     inkscape:pageopacity="0"
     inkscape:pagecheckerboard="1"
     inkscape:deskcolor="#d1d1d1"
     inkscape:document-units="px"
     inkscape:zoom="1.5714646"
     inkscape:cx="163.22353"
     inkscape:cy="168.63249"
     inkscape:window-width="1920"
     inkscape:window-height="1115"
     inkscape:window-x="-9"
     inkscape:window-y="-9"
     inkscape:window-maximized="1"
     inkscape:current-layer="layer1" /><defs
     id="defs1"><linearGradient
       id="linearGradient31"
       inkscape:collect="always"><stop
         style="stop-color:#72a5b9;stop-opacity:1;"
         offset="0"
         id="stop31" /><stop
         style="stop-color:#72c9b9;stop-opacity:1;"
         offset="1"
         id="stop32" /></linearGradient><linearGradient
       inkscape:collect="always"
       xlink:href="#linearGradient31"
       id="linearGradient32"
       x1="2.4575372"
       y1="22.762243"
       x2="15.640401"
       y2="22.762243"
       gradientUnits="userSpaceOnUse" /></defs><g
     inkscape:label="Layer 1"
     inkscape:groupmode="layer"
     id="layer1"
     transform="matrix(1.0666142,0,0,1.0666142,-2.6207681,36.304925)"><g
       id="g71"
       transform="translate(0,-36.966172)"
       style="opacity:1"><path
         id="path62"
         style="fill:#86b5b3;fill-opacity:1"
         d="m 33.227911,15.039507 c -0.518488,-0.07184 -1.168903,-0.367571 -1.534122,-0.697524 -0.962309,-0.869388 -0.919778,-2.710184 0.08357,-3.61679 0.698194,-0.630879 1.731446,-0.888605 2.72087,-0.678671 0.5248,0.111351 0.93083,0.34304 1.27814,0.729333 0.351461,0.390909 0.491138,0.782001 0.522693,1.463531 l 0.02007,0.433561 -2.151133,0.0176 -2.151133,0.0176 6.52e-4,0.182506 c 9.03e-4,0.253001 0.277322,0.813282 0.507851,1.029378 0.322285,0.302107 0.792258,0.468695 1.422807,0.504332 0.49378,0.02791 1.243704,-0.04163 1.712296,-0.15877 0.113643,-0.02841 0.15664,0.0072 0.216781,0.179763 0.04126,0.118362 0.07502,0.252098 0.07502,0.297193 0,0.217703 -1.844989,0.41881 -2.724361,0.296959 z m 2.055878,-3.150306 c -0.0034,-0.505849 -0.475859,-1.106491 -0.980564,-1.246648 -0.890892,-0.247403 -1.812141,0.168076 -2.157105,0.972844 -0.223907,0.522355 -0.321366,0.490585 1.504939,0.490585 h 1.634195 z m 2.202624,3.130487 c -0.39561,-0.0918 -0.667018,-0.216527 -0.667018,-0.306536 0,-0.03092 0.04478,-0.163396 0.09952,-0.294401 l 0.09952,-0.238192 0.350714,0.120274 c 0.991316,0.339964 1.779046,0.160222 1.890007,-0.431255 0.09121,-0.486197 -0.156175,-0.742808 -1.11334,-1.154858 -0.863445,-0.371705 -1.193023,-0.742707 -1.193023,-1.342973 0,-0.515015 0.32039,-0.946197 0.901305,-1.212977 0.262802,-0.12069 0.444758,-0.151832 0.866292,-0.148264 0.499644,0.0042 0.957204,0.08988 1.151363,0.215537 0.06733,0.04357 0.06575,0.10687 -0.0079,0.316851 -0.103113,0.293992 -0.128044,0.29867 -0.708424,0.13294 -0.886726,-0.253209 -1.566272,0.250395 -1.256191,0.930949 0.05659,0.124201 0.242975,0.250509 0.650343,0.440719 0.942007,0.439847 0.99277,0.469114 1.236617,0.712961 0.672574,0.672574 0.390515,1.781461 -0.556922,2.189486 -0.321361,0.138399 -1.281421,0.176814 -1.74287,0.06974 z m 4.77953,-0.0094 c -0.14105,-0.05029 -0.332518,-0.161533 -0.425482,-0.247204 -0.345562,-0.318449 -0.375096,-0.489014 -0.405227,-2.340249 l -0.02796,-1.717572 h -0.39294 -0.39294 v -0.300158 -0.300158 h 0.400211 0.40021 V 9.650215 9.195484 L 41.777862,9.08325 c 0.480926,-0.151598 0.510988,-0.145456 0.511657,0.104547 3.18e-4,0.119229 0.01951,0.374364 0.04264,0.566965 l 0.04206,0.350185 h 0.657728 0.657727 v 0.324283 0.324283 l -0.683694,-0.0075 -0.683693,-0.0074 -0.02095,1.000527 c -0.03159,1.50878 0.03177,2.200865 0.221728,2.421794 0.132209,0.153767 0.219951,0.18437 0.610478,0.212927 l 0.456077,0.03335 0.01996,0.307839 c 0.01933,0.298087 0.01326,0.30918 -0.191768,0.350184 -0.343391,0.06868 -0.87647,0.04325 -1.15188,-0.05495 z m 14.077248,0.0057 c -0.701918,-0.2632 -1.04309,-0.699683 -1.045932,-1.338126 -0.0029,-0.651158 0.405583,-1.148304 1.182278,-1.438903 0.462337,-0.172982 1.388382,-0.333078 1.926628,-0.333078 0.4797,0 0.477908,0.0029 0.323675,-0.516503 -0.126416,-0.425686 -0.381826,-0.650445 -0.848684,-0.746831 -0.40067,-0.08272 -1.170715,-0.008 -1.643247,0.159395 -0.160528,0.05688 -0.3027,0.103411 -0.315939,0.103411 -0.01324,0 -0.07018,-0.110363 -0.126542,-0.245252 -0.119076,-0.284988 -0.103002,-0.303853 0.385212,-0.452085 1.527597,-0.463811 2.939769,-0.167668 3.390372,0.710986 0.188432,0.367432 0.251878,0.990996 0.26669,2.621073 0.01204,1.325246 0.0027,1.466901 -0.09648,1.461881 -0.0604,-0.0031 -0.256054,-0.01056 -0.434796,-0.01667 l -0.324984,-0.01112 -0.04266,-0.266807 c -0.02346,-0.146744 -0.06199,-0.266808 -0.08561,-0.266808 -0.02362,0 -0.143827,0.07695 -0.26713,0.170997 -0.402497,0.306999 -0.79149,0.436442 -1.409128,0.468908 -0.405085,0.02129 -0.656954,0.0018 -0.833724,-0.06447 z m 1.406829,-0.578065 c 0.725335,-0.16731 1.08097,-0.645183 1.08097,-1.452522 v -0.479204 h -0.536582 c -1.158774,0 -1.90818,0.381098 -1.978529,1.006149 -0.04692,0.416863 0.107006,0.701176 0.468454,0.865278 0.313385,0.142282 0.547024,0.156871 0.965687,0.0603 z m 10.760831,0.599045 c -0.503156,-0.09 -1.178508,-0.42928 -1.505586,-0.756358 -0.42463,-0.424631 -0.592274,-0.831734 -0.625082,-1.517942 -0.03321,-0.694566 0.08445,-1.136425 0.428889,-1.610711 0.633088,-0.871745 2.095965,-1.331828 3.486178,-1.096422 0.343869,0.05823 0.654771,0.135423 0.690893,0.171544 0.0698,0.0698 -0.04377,0.513292 -0.147934,0.577669 -0.03084,0.01906 -0.261274,-0.01363 -0.512073,-0.07265 -0.889024,-0.209213 -1.916274,0.01609 -2.412752,0.529173 -0.487606,0.503916 -0.648697,1.408511 -0.364539,2.047036 0.199865,0.449112 0.654092,0.829282 1.187774,0.99412 0.531223,0.164078 0.906461,0.172947 1.61124,0.03809 0.287543,-0.05502 0.529153,-0.100046 0.536911,-0.100053 0.05115,-4.1e-5 0.151565,0.560241 0.107479,0.599721 -0.209654,0.187751 -1.818612,0.315353 -2.481398,0.196792 z m -21.936317,-0.04028 c -0.06515,-0.02629 -0.08338,-0.766885 -0.08338,-3.387799 V 8.254734 l 0.250132,-0.04421 c 0.137573,-0.02432 0.690668,-0.06273 1.229101,-0.08537 1.501142,-0.06311 2.40325,0.125808 2.987085,0.625549 0.157778,0.135052 0.327987,0.343959 0.378242,0.464237 0.108871,0.260563 0.11939,0.806995 0.02058,1.069077 -0.108415,0.287562 -0.454847,0.612401 -0.887935,0.832592 -0.215469,0.109549 -0.365549,0.221835 -0.333509,0.249524 0.03204,0.02769 0.179746,0.0848 0.328237,0.126923 0.386414,0.109605 0.880586,0.457132 1.081294,0.760422 0.114496,0.173014 0.18271,0.383211 0.202738,0.624718 0.08785,1.059305 -0.638449,1.800194 -2.024751,2.065437 -0.488809,0.09352 -2.944951,0.134922 -3.147837,0.05305 z m 3.354932,-0.857518 c 0.66542,-0.340556 0.924071,-0.957807 0.64342,-1.535472 -0.297533,-0.612412 -0.844882,-0.842962 -2.097351,-0.88343 l -0.91715,-0.02963 v 1.347724 1.347723 l 0.988854,-0.02279 c 0.946935,-0.02183 1.005529,-0.03133 1.382227,-0.224118 z M 49.498479,10.936677 C 50.399803,10.618671 50.700827,9.783324 50.122502,9.204999 49.793737,8.876234 49.370912,8.770894 48.380051,8.770894 h -0.821666 v 1.177447 1.177447 l 0.827419,-0.04423 c 0.45508,-0.02433 0.955784,-0.08952 1.112675,-0.144877 z m 22.622845,4.051238 -0.483588,-0.0196 V 11.36934 7.770364 h 0.500263 0.500264 v 1.538608 1.538607 l 0.288143,-0.236111 c 0.496208,-0.406606 1.004876,-0.600747 1.579507,-0.602846 0.689535,-0.0025 1.139864,0.162588 1.542996,0.56572 0.47508,0.47508 0.520469,0.698634 0.551765,2.717589 l 0.02608,1.682229 H 76.09995 75.573146 l -3.72e-4,-1.550817 c -3.85e-4,-1.607852 -0.04107,-1.93376 -0.284081,-2.275634 -0.390752,-0.549721 -1.48132,-0.590278 -2.150368,-0.07997 -0.445276,0.339628 -0.462832,0.419417 -0.499978,2.272226 l -0.03343,1.667546 z M 23.847499,14.557275 C 23.781739,14.327988 23.644273,13.855239 23.542026,13.506722 23.43978,13.158205 23.155882,12.182691 22.911144,11.338913 22.666405,10.495135 22.363886,9.46329 22.238879,9.045924 22.113873,8.628558 22.011595,8.259602 22.011595,8.226021 c 0,-0.03358 0.229036,-0.05229 0.508969,-0.04157 l 0.508969,0.01948 0.696815,2.634722 c 0.383249,1.449096 0.726698,2.751098 0.763221,2.893338 0.03652,0.142239 0.08953,0.232286 0.117793,0.200105 0.02826,-0.03218 0.1464,-0.433709 0.262527,-0.892284 0.253658,-1.001667 1.395976,-4.747147 1.470743,-4.822334 0.02907,-0.02923 0.27364,-0.04424 0.543484,-0.03335 l 0.490627,0.0198 0.388808,1.400738 c 0.213844,0.770406 0.558304,2.069239 0.765467,2.886295 0.207162,0.817057 0.396573,1.462397 0.420912,1.434089 0.02434,-0.02831 0.127575,-0.381642 0.229413,-0.785188 0.101837,-0.403546 0.466774,-1.673884 0.810971,-2.822973 0.344197,-1.149089 0.625813,-2.102091 0.625813,-2.117782 0,-0.01569 0.225119,-0.02853 0.500264,-0.02853 0.275145,0 0.500263,0.01361 0.500263,0.03025 0,0.01664 -0.312876,0.984646 -0.695281,2.151133 -0.663178,2.02296 -1.324575,4.064213 -1.432826,4.422099 -0.04769,0.157679 -0.0798,0.167804 -0.589868,0.186039 l -0.53943,0.01928 -0.102541,-0.352793 c -0.408965,-1.407045 -0.946361,-3.380989 -1.149282,-4.221498 -0.132854,-0.55029 -0.257147,-1.045551 -0.276208,-1.10058 -0.01906,-0.05503 -0.08604,0.08004 -0.148855,0.300158 -0.06281,0.220116 -0.174284,0.610322 -0.24772,0.867124 -0.217516,0.760647 -1.284408,4.18943 -1.354249,4.352293 -0.05894,0.137456 -0.10847,0.150079 -0.588842,0.150079 H 23.967068 Z M 52.56102,13.049873 c 0,-1.058359 -0.01941,-2.153936 -0.04314,-2.434616 L 52.47474,10.10493 h 0.409999 0.409998 v 0.43912 c 0,0.241516 0.02661,0.429115 0.05914,0.416886 0.03252,-0.01223 0.160298,-0.157305 0.283941,-0.322392 0.275895,-0.368372 0.847215,-0.681627 1.191066,-0.653061 l 0.233456,0.01939 0.02,0.383535 0.02,0.383536 -0.220109,3.72e-4 c -0.414166,7e-4 -0.745945,0.138892 -1.022356,0.42583 -0.393819,0.408816 -0.431737,0.610787 -0.431737,2.299635 v 1.476377 H 52.994582 52.56102 Z m 8.271024,-0.301884 c 0,-1.224395 -0.01876,-2.319972 -0.04169,-2.434616 l -0.04169,-0.208443 h 0.47525 0.47525 v 0.36686 c 0,0.201773 0.01342,0.36686 0.02982,0.36686 0.0164,0 0.220854,-0.144595 0.454342,-0.321321 0.51238,-0.38782 0.914627,-0.514823 1.600039,-0.505189 0.971196,0.01365 1.7521,0.575677 1.911046,1.375405 0.03843,0.193369 0.07821,1.079481 0.0884,1.969139 l 0.01852,1.61756 -0.512776,-4.1e-5 -0.512777,-4.1e-5 -0.02084,-1.684221 -0.02084,-1.684221 -0.176889,-0.300875 c -0.37257,-0.633712 -1.142553,-0.806709 -1.901785,-0.427286 -0.266661,0.133263 -0.452328,0.285599 -0.589398,0.483592 l -0.200105,0.289044 -0.0209,1.661984 -0.0209,1.661983 H 61.32808 60.832044 Z" /><path
         id="path45"
         style="fill:#70a5bf;fill-opacity:1"
         d="m 23.945947,19.719829 v -1.857811 l 0.55029,-0.0414 c 1.12785,-0.08485 1.983101,0.192634 2.33157,0.756457 0.395125,0.639315 0.382609,1.444893 -0.03324,2.139304 -0.357614,0.597168 -1.049806,0.861256 -2.25741,0.861256 h -0.591212 z m 1.838354,1.374522 c 0.524415,-0.275875 0.829718,-0.827241 0.829718,-1.49844 0,-0.924653 -0.533143,-1.410164 -1.616332,-1.471925 l -0.584827,-0.03335 v 1.584903 1.584904 l 0.58364,-0.02935 c 0.354934,-0.01785 0.663644,-0.07143 0.787801,-0.136749 z m 2.030351,-0.846522 c 0,-1.293795 0.0044,-1.338262 0.133403,-1.338262 0.216691,0 0.234584,0.02226 0.210263,0.261537 l -0.02319,0.228187 0.316067,-0.278213 c 0.402754,-0.354519 0.697496,-0.387525 0.697496,-0.07811 0,0.174309 -0.02388,0.200106 -0.185264,0.200106 -0.214774,0 -0.44472,0.144009 -0.564616,0.353605 -0.05038,0.08807 -0.09722,0.506408 -0.117244,1.047133 l -0.03335,0.900474 -0.216781,0.0209 -0.21678,0.0209 z m 2.318726,1.225396 c -0.345188,-0.187297 -0.413585,-0.427968 -0.43949,-1.546456 l -0.02356,-1.017202 h 0.239443 0.239443 v 0.869265 c 0,0.930541 0.07677,1.261194 0.323477,1.393227 0.370232,0.198142 0.892074,-0.0308 1.006094,-0.441398 0.03873,-0.139481 0.07059,-0.606288 0.0708,-1.037348 l 3.72e-4,-0.783746 h 0.234866 0.234866 l -0.01808,1.31736 -0.01809,1.317361 H 31.81676 c -0.138204,0 -0.170244,-0.03592 -0.187134,-0.209778 l -0.02038,-0.209777 -0.336508,0.226453 c -0.378529,0.254731 -0.809695,0.300914 -1.139361,0.122039 z m 7.5521,-0.01909 c -0.331346,-0.176077 -0.532574,-0.499829 -0.532574,-0.856847 0,-0.366778 0.11665,-0.596272 0.461389,-0.907723 l 0.26992,-0.243857 -0.165549,-0.311355 c -0.19999,-0.376129 -0.207859,-0.588135 -0.03251,-0.875737 0.265641,-0.435686 0.833463,-0.607475 1.266958,-0.383306 0.274143,0.141764 0.400947,0.354687 0.400947,0.673245 0,0.328264 -0.16479,0.566062 -0.570631,0.823439 l -0.279892,0.177502 0.479733,0.525304 c 0.295423,0.323486 0.509716,0.506774 0.557774,0.477073 0.04292,-0.02653 0.14145,-0.256995 0.218951,-0.512149 0.115417,-0.379986 0.170444,-0.471329 0.304156,-0.504888 0.08978,-0.02254 0.180708,-0.02351 0.202052,-0.0022 0.06787,0.06787 -0.113965,0.66453 -0.317277,1.041099 l -0.196264,0.363515 0.267612,0.272677 c 0.147186,0.149972 0.267612,0.29798 0.267612,0.328906 0,0.105445 -0.485568,-0.0222 -0.641418,-0.168613 l -0.155376,-0.145968 -0.39369,0.176677 c -0.485698,0.217968 -1.061038,0.239635 -1.411927,0.05317 z m 1.2626,-0.329045 c 0.09489,-0.07085 0.172529,-0.172576 0.172529,-0.226067 0,-0.05349 -0.232006,-0.34939 -0.515569,-0.657556 l -0.515569,-0.560301 -0.234132,0.226929 c -0.297432,0.288282 -0.358065,0.577069 -0.192373,0.91625 0.228967,0.468711 0.861786,0.616805 1.285114,0.300745 z m -0.256096,-2.071688 c 0.251473,-0.223162 0.287953,-0.289836 0.28158,-0.514644 -0.0085,-0.300393 -0.198936,-0.496313 -0.482384,-0.496313 -0.238923,0 -0.493385,0.273802 -0.493385,0.530883 0,0.247901 0.2149,0.736451 0.323944,0.736451 0.04474,0 0.21135,-0.115369 0.370245,-0.256377 z m 3.213958,2.480241 c -0.05929,-0.02395 -0.06391,-0.06885 -0.01625,-0.157903 0.03663,-0.06844 0.333369,-0.882948 0.659424,-1.810016 0.541086,-1.538465 0.607919,-1.689614 0.765743,-1.731823 0.325419,-0.08703 0.42584,-0.0065 0.580418,0.465639 0.07983,0.243801 0.367758,1.055976 0.639848,1.804833 0.506998,1.395377 0.517718,1.469382 0.213275,1.472246 -0.154965,0.0015 -0.220881,-0.105005 -0.391702,-0.632645 -0.08314,-0.256802 -0.181687,-0.505433 -0.218996,-0.552513 -0.04905,-0.06189 -0.253073,-0.08037 -0.736586,-0.0667 l -0.668751,0.0189 -0.192703,0.532012 c -0.253666,0.700318 -0.330757,0.78036 -0.633723,0.657974 z m 2.11725,-1.594582 c 0,-0.05744 -0.02849,-0.157663 -0.0633,-0.222716 -0.03481,-0.06505 -0.164954,-0.453992 -0.289197,-0.86431 L 43.444798,18.106004 43.1599,18.987821 c -0.156694,0.485 -0.299909,0.920936 -0.318256,0.968748 -0.02591,0.06752 0.102295,0.08693 0.574094,0.08693 0.506826,0 0.607453,-0.0173 0.607453,-0.104438 z m 1.645311,1.594112 c -0.02446,-0.02446 -0.04447,-0.909924 -0.04447,-1.967703 v -1.923236 h 0.233456 0.233457 v 1.967704 1.967703 h -0.188989 c -0.103944,0 -0.208999,-0.02001 -0.233456,-0.04447 z m 1.851291,-0.08202 c -0.495994,-0.225269 -0.729661,-0.68497 -0.682137,-1.341987 0.03762,-0.520131 0.264588,-0.859746 0.729348,-1.091345 0.536228,-0.267214 1.392089,-0.222011 1.392141,0.07353 1.8e-5,0.103996 -0.06819,0.118379 -0.561412,0.118379 -0.506756,0 -0.578832,0.01624 -0.740079,0.166754 -0.259024,0.241784 -0.366075,0.485604 -0.366075,0.833773 0,0.348092 0.107016,0.591909 0.365961,0.833772 0.15936,0.148848 0.23702,0.167151 0.723179,0.170441 0.456742,0.0031 0.548154,0.0219 0.566379,0.116534 0.0501,0.260124 -0.936292,0.343158 -1.427305,0.120151 z m 2.606613,0.03195 c -0.437971,-0.195492 -0.767604,-0.734843 -0.76642,-1.254029 9.76e-4,-0.427623 0.266628,-0.940273 0.602383,-1.162465 0.383081,-0.253511 0.991392,-0.297783 1.378451,-0.10032 0.551269,0.281236 0.725004,0.651246 0.674943,1.437447 -0.03254,0.511097 -0.254965,0.852837 -0.680982,1.046299 -0.323172,0.146758 -0.917246,0.163015 -1.208375,0.03307 z M 51.151952,21.127 c 0.413443,-0.30868 0.541607,-1.062033 0.264543,-1.555002 -0.185671,-0.330357 -0.568587,-0.501656 -0.886702,-0.396669 -0.431225,0.142317 -0.758425,0.70426 -0.682498,1.172143 0.131037,0.807485 0.762146,1.184571 1.304657,0.779528 z m 1.653642,0.406175 c -0.02446,-0.02446 -0.04447,-0.906423 -0.04447,-1.959924 0,-1.888734 0.002,-1.915966 0.139837,-1.952024 0.301412,-0.07882 0.327075,-0.01381 0.327075,0.828567 0,0.436307 0.01527,0.793286 0.03393,0.793286 0.01866,0 0.158235,-0.09005 0.310166,-0.200106 0.348403,-0.252382 0.732246,-0.269959 1.063455,-0.0487 0.396166,0.264656 0.45988,0.486205 0.459997,1.599514 l 1.04e-4,0.983852 H 54.90465 c -0.176705,0 -0.194222,-0.02322 -0.233456,-0.309468 -0.02333,-0.170207 -0.04242,-0.591919 -0.04242,-0.937138 0,-0.69922 -0.08413,-0.947001 -0.364996,-1.074972 -0.232244,-0.105817 -0.401846,-0.100478 -0.634794,0.01998 -0.365887,0.189207 -0.400948,0.307192 -0.400948,1.349258 v 0.952335 H 53.03905 c -0.103944,0 -0.208999,-0.02001 -0.233456,-0.04447 z m 3.724184,-0.05685 c -0.735219,-0.369257 -0.956401,-1.365567 -0.468075,-2.108431 0.289858,-0.440945 1.069029,-0.660107 1.614338,-0.454075 1.027075,0.388056 1.068492,2.079205 0.06211,2.536221 -0.334728,0.152006 -0.932178,0.165002 -1.208375,0.02628 z m 1.033878,-0.356657 c 0.2712,-0.199927 0.419268,-0.517483 0.419268,-0.899189 0,-0.448532 -0.205592,-0.861258 -0.487105,-0.977864 -0.673324,-0.2789 -1.23472,0.178626 -1.230544,1.002869 0.0042,0.836691 0.707209,1.309992 1.298381,0.874184 z m 1.645311,0.413512 c -0.02446,-0.02446 -0.04447,-0.909924 -0.04447,-1.967703 v -1.923236 h 0.233456 0.233456 v 1.967704 1.967703 h -0.188988 c -0.103944,0 -0.208999,-0.02001 -0.233456,-0.04447 z m 2.336344,-0.0056 c -0.01558,-0.02752 0.260296,-0.85767 0.613055,-1.844789 0.681798,-1.907861 0.727147,-1.985398 1.082243,-1.850391 0.146986,0.05588 0.227585,0.230462 0.609949,1.321159 0.24232,0.691221 0.53186,1.504046 0.643422,1.806277 l 0.202839,0.549513 -0.170435,0.04278 c -0.233181,0.05852 -0.316459,-0.04414 -0.547465,-0.674888 l -0.195431,-0.533615 -0.665288,-0.0189 c -0.480703,-0.01365 -0.68411,0.0049 -0.733124,0.0667 -0.03731,0.04708 -0.135858,0.295711 -0.218996,0.552513 -0.08314,0.256802 -0.180857,0.504432 -0.217151,0.55029 -0.07173,0.09063 -0.357802,0.114268 -0.403618,0.03335 z m 2.137474,-1.567493 c -0.01744,-0.04586 -0.162652,-0.468065 -0.322694,-0.938238 -0.203614,-0.598182 -0.305015,-0.818488 -0.337714,-0.73372 -0.08823,0.228729 -0.522788,1.639797 -0.522788,1.697563 0,0.03177 0.273354,0.05777 0.607452,0.05777 0.458406,0 0.599673,-0.02046 0.575744,-0.08338 z m 1.61828,-0.345754 v -1.972134 h 0.233456 0.233456 v 0.836916 0.836916 l 0.264868,-0.212854 c 0.194557,-0.15635 0.353709,-0.22139 0.599544,-0.245012 0.410083,-0.0394 0.673063,0.06164 0.934037,0.35887 0.543515,0.61903 0.381077,1.822873 -0.297847,2.207379 -0.466308,0.26409 -1.069891,0.186031 -1.400706,-0.181149 l -0.133247,-0.147893 -0.03335,0.224442 c -0.02752,0.185226 -0.0654,0.228129 -0.21678,0.245547 l -0.18343,0.02111 z m 1.793879,1.458722 c 0.322496,-0.271362 0.440278,-0.928663 0.248609,-1.387394 -0.13798,-0.330231 -0.404738,-0.50932 -0.758646,-0.50932 -0.258399,0 -0.334181,0.03517 -0.55797,0.25896 -0.258795,0.258795 -0.25896,0.259308 -0.25896,0.807092 0,0.53443 0.0057,0.553801 0.226786,0.774918 0.197718,0.197717 0.269733,0.226786 0.561848,0.226786 0.262324,0 0.379189,-0.03713 0.538333,-0.171042 z m 1.831704,0.283542 C 68.634465,21.088832 68.579189,20.828532 68.573429,19.69328 l -0.004,-0.783746 h 0.233456 0.233457 l 0.0016,0.783746 c 0.0025,1.248377 0.133313,1.550817 0.670593,1.550817 0.205462,0 0.304598,-0.0474 0.492874,-0.23568 l 0.235679,-0.23568 v -0.931602 -0.931601 h 0.233457 0.233456 V 20.248 21.586467 l -0.18343,-0.02111 c -0.152134,-0.0175 -0.186952,-0.0575 -0.204073,-0.234418 l -0.02064,-0.213312 -0.301299,0.229988 c -0.25815,0.19705 -0.353248,0.229987 -0.664031,0.229987 -0.317666,0 -0.39269,-0.02746 -0.603892,-0.221009 z m 2.861167,0.152229 c -0.154096,-0.06194 -0.200836,-0.225487 -0.08492,-0.297129 0.03584,-0.02215 0.190698,-0.0065 0.344129,0.03484 0.37051,0.09977 0.699015,0.03197 0.832549,-0.171831 0.182963,-0.279237 0.07651,-0.470258 -0.392572,-0.704425 -0.595534,-0.297292 -0.782567,-0.491552 -0.782567,-0.812803 0,-0.477069 0.502262,-0.781155 1.147332,-0.694632 0.30625,0.04108 0.475825,0.169543 0.395433,0.29957 -0.04134,0.06686 -0.122153,0.07069 -0.361249,0.01711 -0.368522,-0.08259 -0.626547,-0.0058 -0.706439,0.210133 -0.09953,0.269061 -0.0055,0.396556 0.442019,0.599483 0.554696,0.251511 0.750449,0.460221 0.750449,0.800124 0,0.306442 -0.147807,0.557759 -0.406804,0.691691 -0.207086,0.107089 -0.93727,0.124369 -1.177364,0.02786 z m 2.800825,-0.07197 c -0.536428,-0.265527 -0.775257,-0.872344 -0.619873,-1.574971 0.0688,-0.3111 0.141165,-0.439359 0.375423,-0.665385 0.319246,-0.308027 0.584151,-0.391069 1.072075,-0.336073 0.511686,0.05767 0.890597,0.557203 0.890597,1.1741 v 0.209042 h -1.001798 -1.001798 l 0.04258,0.18343 c 0.06313,0.271945 0.237557,0.552881 0.434329,0.699537 0.13621,0.101518 0.274434,0.128207 0.633667,0.122348 0.252701,-0.0041 0.519488,-0.01439 0.59286,-0.02282 0.07987,-0.0092 0.133404,0.02404 0.133404,0.08276 0,0.288123 -1.052564,0.374981 -1.551468,0.128028 z m 1.318011,-1.56229 c 0,-0.224088 -0.199987,-0.561336 -0.391644,-0.660445 -0.432044,-0.223419 -0.822984,-0.06642 -1.077656,0.432779 -0.07235,0.141815 -0.131543,0.274049 -0.131543,0.293853 0,0.01981 0.36019,0.03601 0.800422,0.03601 0.674475,0 0.800421,-0.01608 0.800421,-0.102195 z" /><path
         style="fill:#72a5b9"
         d="m 33.250849,22.620929 c -0.19366,-0.05835 -0.266808,-0.116376 -0.266808,-0.211655 0,-0.141084 -0.01869,-0.13961 0.714724,-0.05637 0.673125,0.0764 0.997311,-0.190945 1.091371,-0.899998 l 0.04732,-0.356722 -0.275145,0.182082 c -1.031465,0.682592 -2.157346,-0.261153 -1.808792,-1.516179 0.232923,-0.838675 1.427928,-1.225731 1.927158,-0.624196 0.102795,0.123861 0.204365,0.07828 0.204365,-0.09172 0,-0.11236 0.121792,-0.203305 0.272262,-0.203305 0.03536,0 0.06063,0.613141 0.05978,1.450764 -0.0013,1.26449 -0.0172,1.485022 -0.123983,1.717572 -0.06739,0.146744 -0.184803,0.322188 -0.260927,0.389877 -0.323368,0.287533 -1.03043,0.385835 -1.581328,0.219851 z m 1.245459,-1.62125 c 0.239112,-0.229085 0.348184,-0.621797 0.29146,-1.049405 -0.05559,-0.419089 -0.126066,-0.547891 -0.368303,-0.673157 -0.440273,-0.227674 -0.909173,-0.06752 -1.128435,0.385409 -0.262934,0.543151 -0.12917,1.119579 0.333456,1.436954 0.285119,0.1956 0.601264,0.15941 0.871822,-0.0998 z"
         id="path43" /><path
         id="path32"
         style="fill:#7ba3bb;fill-opacity:1"
         d="m 25.074571,27.382967 c -0.60649,-0.108528 -1.149106,-0.514813 -1.3587,-1.017331 -0.143776,-0.344716 -0.13269,-1.081894 0.02137,-1.421036 0.239691,-0.527642 0.726061,-0.882165 1.408878,-1.026953 0.559384,-0.118615 1.401197,0.01309 1.401197,0.219224 0,0.133732 -0.171559,0.183093 -0.371781,0.106969 -0.220447,-0.08381 -0.72968,-0.08237 -1.036803,0.0029 -1.225733,0.340475 -1.426716,2.104328 -0.305123,2.6778 0.301411,0.154111 0.908188,0.198718 1.430225,0.105142 0.257345,-0.04613 0.283482,-0.03829 0.283482,0.08503 0,0.08036 -0.06264,0.159658 -0.15336,0.194151 -0.242632,0.09225 -0.984912,0.133917 -1.319386,0.07407 z m 5.508205,0.02289 c -0.690798,-0.175327 -1.175736,-0.580151 -1.334211,-1.113793 -0.312153,-1.051132 0.182523,-2.064819 1.138525,-2.333059 0.741851,-0.208153 1.339611,-0.09357 1.84844,0.354318 0.373941,0.329156 0.541056,0.730934 0.537441,1.292115 -0.0053,0.827495 -0.320298,1.361927 -0.966478,1.639907 -0.341968,0.147111 -0.958098,0.227927 -1.223717,0.160512 z m 0.964217,-0.423866 c 0.567924,-0.289734 0.866686,-1.098292 0.668908,-1.810306 -0.267526,-0.963114 -1.392852,-1.324421 -2.091773,-0.671603 -0.582796,0.544352 -0.59554,1.729683 -0.02435,2.264789 0.393372,0.368522 0.978401,0.456291 1.447215,0.21712 z m 36.7427,0.376237 c -0.172212,-0.04863 -0.367314,-0.129511 -0.433562,-0.179725 -0.61627,-0.467115 -0.782447,-0.787055 -0.778425,-1.498708 0.0065,-1.144852 0.66521,-1.794072 1.825256,-1.798877 1.169135,-0.0048 1.889972,0.787992 1.783545,1.961684 -0.05864,0.64669 -0.460158,1.209892 -1.033275,1.449355 -0.328174,0.13712 -0.997485,0.16965 -1.363539,0.06627 z m 1.323138,-0.484358 c 0.385695,-0.312169 0.52439,-0.63794 0.522568,-1.227426 -0.0012,-0.38599 -0.03533,-0.564135 -0.149463,-0.779882 -0.431485,-0.815666 -1.510448,-0.929151 -2.105898,-0.221498 -0.438195,0.520765 -0.413703,1.515439 0.05013,2.036084 0.311632,0.349798 0.540154,0.443056 1.020335,0.416391 0.34173,-0.01898 0.457883,-0.0582 0.662323,-0.223669 z m -33.965254,0.4561 c -0.05039,-0.03489 -0.0468,-0.420215 0.01226,-1.316661 0.131294,-1.992688 0.135857,-2.018716 0.362675,-2.068534 0.105307,-0.02313 0.242011,-0.01377 0.303785,0.0208 0.108494,0.06072 0.57172,1.165428 0.935567,2.231162 0.09707,0.284317 0.194803,0.516861 0.217191,0.516766 0.02239,-9.5e-5 0.216194,-0.472844 0.430679,-1.050553 0.665654,-1.792916 0.66767,-1.796023 1.108731,-1.707811 l 0.178185,0.03564 0.08291,1.478178 c 0.0456,0.812998 0.08852,1.559389 0.09538,1.658645 0.0069,0.09926 -0.01004,0.181799 -0.03756,0.18343 -0.02751,0.0016 -0.121839,0.003 -0.209611,0.003 h -0.159585 l -0.04888,-1.183958 c -0.02689,-0.651176 -0.06866,-1.319028 -0.09282,-1.484115 l -0.04394,-0.300158 -0.390279,1.000527 c -0.733831,1.881268 -0.775172,1.967704 -0.941106,1.967704 -0.111309,0 -0.184607,-0.07335 -0.283292,-0.283483 -0.180875,-0.385146 -0.722173,-1.886724 -0.819563,-2.273493 -0.04341,-0.172409 -0.101188,-0.327224 -0.128388,-0.344035 -0.06427,-0.03972 -0.120096,0.547175 -0.176023,1.850457 -0.0248,0.577804 -0.06811,1.050554 -0.09625,1.050554 -0.02814,0 -0.09114,0.01469 -0.139998,0.03265 -0.04886,0.01796 -0.12089,0.01045 -0.160071,-0.01667 z m 6.930118,-0.299458 c 0.02217,-0.192602 0.07306,-0.905477 0.113076,-1.584168 0.09489,-1.609119 0.07574,-1.534142 0.391697,-1.534142 0.141553,0 0.288732,0.03779 0.327064,0.08398 0.06607,0.07961 0.662567,1.674974 0.912301,2.440007 0.06395,0.195896 0.138025,0.330967 0.164617,0.300158 0.02659,-0.03081 0.19228,-0.446222 0.368195,-0.92314 0.175915,-0.476918 0.40919,-1.10126 0.518389,-1.387427 l 0.198544,-0.520302 0.30971,0.02004 c 0.291926,0.01889 0.31043,0.03153 0.322243,0.220145 0.0069,0.110058 0.04586,0.800421 0.0866,1.534141 0.04074,0.73372 0.09001,1.41658 0.109496,1.517467 0.03316,0.171695 0.02061,0.18343 -0.196227,0.18343 h -0.231656 l -0.04844,-1.083905 c -0.02664,-0.596148 -0.06791,-1.279007 -0.09172,-1.517466 l -0.04328,-0.433562 -0.190834,0.466913 c -0.104958,0.256802 -0.374542,0.932157 -0.599076,1.50079 -0.344763,0.873118 -0.431635,1.0372 -0.558683,1.055241 -0.186067,0.02642 -0.248548,-0.110526 -0.829375,-1.817832 -0.231507,-0.680502 -0.438686,-1.237543 -0.460397,-1.237869 -0.02171,-3.27e-4 -0.05968,0.562203 -0.08437,1.250065 -0.02469,0.687862 -0.06341,1.378226 -0.08604,1.534142 -0.03795,0.261515 -0.05668,0.283483 -0.241646,0.283483 h -0.200506 z m 33.447771,0.278763 c -0.115654,-0.06686 -1.00304,-1.262097 -1.639682,-2.208518 -0.189554,-0.281788 -0.368078,-0.526825 -0.396721,-0.544527 -0.02864,-0.0177 -0.04073,0.595553 -0.02686,1.36279 l 0.02522,1.394975 h -0.207665 -0.207666 v -0.556313 c 0,-0.305972 -0.01961,-1.053676 -0.04359,-1.661564 l -0.04359,-1.105252 0.160318,-0.02392 c 0.353735,-0.05279 0.452032,0.02161 0.972867,0.736322 0.284462,0.390351 0.720774,1.008231 0.969582,1.373066 l 0.45238,0.663338 V 25.35929 23.978908 h 0.19388 0.193881 l 0.04545,0.616992 c 0.048,0.651655 0.02369,2.619361 -0.033,2.671092 -0.08655,0.07898 -0.311637,0.101926 -0.4148,0.04229 z M 49.626141,25.646451 v -1.667545 h 0.233456 0.233457 v 1.667545 1.667545 h -0.233457 -0.233456 z m 3.736113,1.580403 c -0.134377,-0.04599 -0.242751,-0.132317 -0.256572,-0.20439 -0.0211,-0.110004 0.0064,-0.119741 0.232643,-0.08224 0.783164,0.129855 0.982997,0.123752 1.218607,-0.03722 0.271904,-0.185762 0.370427,-0.430583 0.274653,-0.682487 -0.05369,-0.141219 -0.217977,-0.249708 -0.764799,-0.50505 -0.543291,-0.253692 -0.719399,-0.369636 -0.800934,-0.527307 -0.327628,-0.633563 0.210821,-1.216866 1.110135,-1.202614 0.520277,0.0082 0.746359,0.06813 0.772652,0.204664 0.02952,0.153303 -0.1091,0.181612 -0.498604,0.101823 -0.463262,-0.0949 -0.848536,0.01665 -0.987821,0.285993 -0.10785,0.208558 -0.06248,0.43944 0.115341,0.587023 0.05308,0.04405 0.318509,0.171637 0.589851,0.28353 0.271341,0.111892 0.57553,0.282176 0.675975,0.378408 0.478805,0.458724 0.339629,1.061151 -0.314552,1.361552 -0.309631,0.142183 -1.005986,0.161703 -1.366575,0.03831 z M 63.63352,25.646449 v -1.667545 h 0.233456 0.233456 v 1.667545 1.667545 H 63.866976 63.63352 Z m -4.996323,1.545733 c -0.165905,-0.04961 -0.330588,-0.243164 -0.263756,-0.309996 0.0209,-0.0209 0.244955,-0.0025 0.497904,0.04079 0.25295,0.04333 0.571167,0.05787 0.70715,0.03232 0.4629,-0.087 0.677999,-0.605369 0.36975,-0.891074 -0.08254,-0.07651 -0.408193,-0.257804 -0.723665,-0.402883 -0.607005,-0.279149 -0.793801,-0.459581 -0.793801,-0.766757 0,-0.517379 0.501411,-0.883853 1.200632,-0.877524 0.449397,0.0041 0.761426,0.113083 0.715136,0.249852 -0.01849,0.05463 -0.191386,0.07161 -0.562805,0.05527 -0.603103,-0.02654 -0.841129,0.06899 -0.916095,0.367678 -0.07074,0.281839 0.12273,0.473524 0.817752,0.810222 0.557378,0.270018 0.663639,0.348474 0.771716,0.569782 0.169237,0.346547 0.06941,0.698176 -0.272239,0.958908 -0.217182,0.165744 -0.302725,0.186559 -0.814945,0.198291 -0.314761,0.0072 -0.644491,-0.0085 -0.732734,-0.03487 z" /></g><g
       id="g33"
       transform="translate(0.32149503,-38.303571)"
       style="opacity:1"><path
         style="fill:#72a5b9"
         d="m 2.4031051,16.15268 c 0.158894,-1.358648 0.495885,-2.708358 0.926407,-3.71043 0.546506,-1.272033 1.577278,-2.7576369 2.665878,-3.8422089 2.088634,-2.080904 5.7097189,-3.645029 8.8279179,-3.813211 0.795675,-0.04291 0.817097,-0.04046 0.817097,0.0938 0,0.364334 -1.592693,9.1442339 -1.743448,9.6109559 -0.120316,0.372485 -0.26711,0.408223 -3.592696,0.87466 -1.0030779,0.140688 -2.8355269,0.409734 -4.7358289,0.695328 -2.5555,0.384064 -2.954532,0.441287 -3.077214,0.441287 -0.116432,0 -0.125058,-0.03428 -0.08811,-0.350185 z"
         id="path21" /><path
         style="fill:#72a5b9"
         d="m 16.014416,22.989616 c -0.02161,-0.210945 -0.07089,-0.803757 -0.109497,-1.317361 -0.10418,-1.385861 -0.335841,-3.888397 -0.388511,-4.196931 -0.04403,-0.257897 -0.05891,-0.271638 -0.344545,-0.317969 -0.432696,-0.07019 -3.665608,-0.315524 -4.820145,-0.365788 -0.5425309,-0.02362 -1.0020429,-0.06822 -1.0211389,-0.09912 -0.0191,-0.0309 0.0496,-0.05642 0.152648,-0.05672 0.103051,-3.01e-4 0.9077459,-0.05878 1.7882099,-0.129952 0.880464,-0.07117 2.102541,-0.163284 2.715727,-0.204692 1.460967,-0.09866 1.472022,-0.101972 1.533034,-0.459364 0.04457,-0.261105 0.17389,-1.738329 0.394508,-4.506608 0.05916,-0.742274 0.100047,-1.005378 0.134766,-0.867124 0.05122,0.203978 0.319347,2.337031 0.465128,3.70032 0.108875,1.01816 0.115252,3.92212 0.01047,4.76918 -0.08429,0.681424 -0.21363,1.975148 -0.355097,3.551871 -0.04361,0.48609 -0.08761,0.883799 -0.09778,0.883799 -0.01017,0 -0.03617,-0.172591 -0.05778,-0.383535 z"
         id="path13" /><path
         style="fill:url(#linearGradient32)"
         d="M 14.339191,28.507371 C 11.171959,28.246382 7.4893181,26.45808 5.4833001,24.206924 3.6825581,22.186128 2.6147571,19.758396 2.4812471,17.381513 l -0.02371,-0.422038 0.40484,0.04337 c 0.417551,0.04473 3.434624,0.474848 5.841036,0.832709 0.752063,0.11184 1.8026169,0.263793 2.3345629,0.337673 1.552038,0.215557 2.697212,0.407563 2.755678,0.46203 0.05635,0.0525 0.261416,1.044942 0.710227,3.437211 0.322551,1.719271 1.13652,6.322334 1.13652,6.427112 0,0.08485 -0.341318,0.08689 -1.301214,0.0078 z"
         id="path11" /></g></g></svg>
