<svg xmlns="http://www.w3.org/2000/svg" width="300" height="300" viewBox="0 0 79.375 79.375">
  <defs>
    <radialGradient id="b" cx="602.071" cy="335.033" r="180.005" gradientTransform="matrix(.44111 0 0 -.44111 -274.697 167.281)" gradientUnits="userSpaceOnUse">
      <stop offset="0" stop-color="#2aace3"/>
      <stop offset=".577" stop-color="#1d9fda"/>
      <stop offset="1" stop-color="#0862af"/>
    </radialGradient>
    <radialGradient id="a" cx="701.669" cy="349.885" r="82.836" gradientTransform="matrix(.44111 0 0 -.44111 -274.697 167.281)" gradientUnits="userSpaceOnUse">
      <stop offset="0" stop-color="#c5198c"/>
      <stop offset=".582" stop-color="#91298d"/>
      <stop offset="1" stop-color="#5d2e8f"/>
    </radialGradient>
  </defs>
  <path fill="url(#a)" d="M57.577 19.593H34.73c-1.69 0-3.06 1.371-3.06 3.06 0 .528.115 1.021.365 1.454l11.467 19.86a3.056 3.056 0 0 0 2.65 1.536 3.057 3.057 0 0 0 2.652-1.536l11.466-19.86c.25-.433.366-.926.366-1.453 0-1.69-1.368-3.06-3.06-3.06z" style="fill:url(#a);stroke-width:.275608" transform="matrix(.98667 0 0 .98667 14.104 -9.963)"/>
  <path d="M64.574 22.091h-.16c-.061 0-.094-.007-.14-.061l-.453-.567h-.12V22c0 .068-.03.09-.087.09h-.11c-.076 0-.102-.014-.102-.09v-1.503c0-.081.048-.084.102-.084h.483c.276 0 .333.016.432.113.086.09.127.247.127.47 0 .282-.113.441-.37.46l.43.514c.05.06.041.121-.032.121zm-.406-1.41c-.068-.033-.382-.018-.468-.018v.551h.32c.114 0 .168-.018.199-.057.017-.03.036-.06.036-.183 0-.186-.03-.262-.087-.293zm-1.896.57a1.672 1.672 0 0 1 1.674-1.672 1.672 1.672 0 0 1 1.67 1.673 1.672 1.672 0 0 1-1.67 1.673 1.673 1.673 0 0 1-1.674-1.673zm.345 0a1.331 1.331 0 0 0 1.329 1.328 1.33 1.33 0 0 0 1.326-1.327 1.328 1.328 0 0 0-1.326-1.327 1.33 1.33 0 0 0-1.33 1.327z" style="fill:#91298d;fill-opacity:1;stroke-width:.275608" transform="matrix(.98667 0 0 .98667 14.104 -9.963)"/>
  <path fill="url(#b)" d="m22.01 47.79.002.005v-.002zm20.127.383-.126-.218-14.18-24.562-.248-.429c-1.202-2.083-3.508-3.371-6.07-3.371H9.82a2.363 2.363 0 0 0-2.363 2.362c0 .405.094.794.282 1.12l14.273 24.72a7.446 7.446 0 0 1 1.027 3.786 7.45 7.45 0 0 1-.97 3.685L9.66 76.764a2.22 2.22 0 0 0-.28 1.118 2.361 2.361 0 0 0 2.361 2.361h12c2.56 0 4.866-1.287 6.069-3.37l.247-.43 11.933-20.67.223-.385c.608-1.054.889-2.26.889-3.542a7.337 7.337 0 0 0-.964-3.673z" style="fill:url(#b);stroke-width:.275608" transform="matrix(.98667 0 0 .98667 14.104 -9.963)"/>
  <path fill="#1d9fda" d="M9.167 58.158c-.219 0-.437.09-.637.126-.671.145-1.416.291-2.215.291-.436 0-.836-.091-1.09-.2-.563-.254-.617-.962-.6-1.872h4.432c.636 0 .763-.108.763-1.107 0-1.164-.108-2.307-.671-3.123-.527-.745-1.436-1.127-2.943-1.127-1.598 0-2.598.417-3.142 1.2-.564.797-.728 1.87-.728 3.467 0 1.8.255 2.981 1.018 3.69.599.562 1.581.85 2.944.85.78 0 1.851-.071 2.74-.235.564-.09.655-.38.655-.798 0-.2 0-.42-.035-.6-.056-.236-.22-.562-.491-.562zM4.626 54.74c0-1.324.273-1.778 1.58-1.778 1.235 0 1.397.471 1.397 1.597v.346H4.626Zm-6.49-3.595c-.982 0-1.853.326-2.454.617v-3.36c0-.345-.144-.782-.707-.782h-.817c-.527 0-.8.164-.8.782v10.99c0 .435.146.725.655.725h.962c.563 0 .707-.309.707-.817v-4.163c0-1.302.27-1.747 1.552-1.747 1.215 0 1.375.463 1.375 1.568v.34h-.005c.003.174.004.373.004.597V59.3c0 .546.18.817.653.817h.965c.56 0 .707-.308.707-.817v-5.574c0-1.183-.563-2.58-2.797-2.58zm-6.664 2.178h-1.961v3.652c0 .853.037 1.18.11 1.325a.297.297 0 0 0 .27.146c.51 0 1.072-.272 1.49-.272.4 0 .492.308.492.507v.654c0 .672-.183.855-.763.909-.582.054-.981.09-1.582.09-1.926 0-2.342-.708-2.342-2.87v-4.14h-.509c-.344 0-.435-.236-.435-.526v-.782c0-.455.18-.6.49-.6h.454v-1.471c0-.617.254-.8.78-.8h.818c.563 0 .727.454.727.8v1.472h1.78c.4 0 .618.054.618.58v.636c0 .617-.11.69-.437.69z" style="stroke-width:.275608" transform="matrix(.98667 0 0 .98667 14.104 -9.963)"/>
  <path d="m34.233 74.518 1.393 2.356 1.315.76c.183.106.22.243.117.419l-.15.264c-.118.202-.226.26-.44.137l-1.267-.731-2.889-.034a.415.415 0 0 1-.213-.042c-.151-.087-.114-.253-.056-.352l.19-.33c.105-.183.208-.204.354-.202l1.979.04-1.02-1.716c-.074-.124-.1-.223.006-.406l.156-.269c.092-.16.219-.184.336-.116.073.04.148.15.189.222zm6.17-2.256-.15.257c-.105.183-.235.197-.415.11l-2.584-1.28c.108.128.26.298.38.432.462.544.964 1.104 1.26 1.48.118.149.16.272.045.472l-.092.16c-.117.202-.241.222-.43.194-.472-.07-1.217-.212-1.92-.34-.177-.03-.395-.09-.559-.119l2.4 1.6c.166.112.218.232.113.414l-.149.258c-.11.19-.239.285-.455.137l-3.384-2.372c-.21-.145-.156-.294-.07-.441l.194-.337c.098-.17.203-.225.37-.202.695.099 1.912.336 2.846.499-.609-.726-1.424-1.662-1.856-2.214-.103-.132-.108-.25-.009-.42l.194-.338c.085-.146.188-.267.418-.159l3.744 1.746c.236.11.218.272.108.463zm1.918-3.211c-.134.275-.209.433-.372.715a3.632 3.632 0 0 1-.491.68c-.7.732-1.544.498-2.604-.114-1.799-1.04-1.807-1.803-1.118-2.997.164-.282.263-.428.434-.68.163-.241.261-.274.399-.194l.201.116c.22.126.271.207.158.4-.13.229-.225.321-.412.646-.114.196-.279.524-.3.717-.049.452.429.744 1.132 1.149.693.4 1.251.676 1.657.2.082-.1.194-.263.304-.453.187-.325.22-.454.35-.68.112-.196.207-.19.429-.063l.202.116c.135.078.158.181.03.442zm2.246-4.002-.195.336c-.11.19-.232.192-.38.164l-.922-.171c-.146.267-.258.462-.415.731a25.823 25.823 0 0 1-.411.7l.58.663c.134.15.197.253.076.46l-.162.282c-.121.21-.193.207-.284.154a.693.693 0 0 1-.162-.159l-2.778-3.277c-.15-.178-.198-.294-.067-.52l.144-.251c.13-.227.257-.246.479-.207l4.332.739a.31.31 0 0 1 .108.029c.152.088.113.228.057.327zm-3.989-.148 1.16 1.325c.083-.142.172-.31.274-.487.11-.191.19-.317.293-.494z" style="fill:#91298d;stroke-width:.275608" transform="matrix(.98667 0 0 .98667 14.104 -9.963)"/>
</svg>
