<?xml version="1.0" encoding="UTF-8" standalone="no"?>
<!-- Created with Inkscape (http://www.inkscape.org/) -->

<svg
   width="595"
   height="663"
   viewBox="0 0 595 663"
   version="1.1"
   id="svg1"
   xml:space="preserve"
   inkscape:version="1.4 (86a8ad7, 2024-10-11)"
   sodipodi:docname="drawing-1.svg"
   xmlns:inkscape="http://www.inkscape.org/namespaces/inkscape"
   xmlns:sodipodi="http://sodipodi.sourceforge.net/DTD/sodipodi-0.dtd"
   xmlns="http://www.w3.org/2000/svg"
   xmlns:svg="http://www.w3.org/2000/svg"><sodipodi:namedview
     id="namedview1"
     pagecolor="#ffffff"
     bordercolor="#111111"
     borderopacity="1"
     inkscape:showpageshadow="0"
     inkscape:pageopacity="0"
     inkscape:pagecheckerboard="1"
     inkscape:deskcolor="#d1d1d1"
     inkscape:document-units="px"
     inkscape:zoom="0.78573232"
     inkscape:cx="396.44544"
     inkscape:cy="561.25984"
     inkscape:window-width="1920"
     inkscape:window-height="1115"
     inkscape:window-x="-9"
     inkscape:window-y="-9"
     inkscape:window-maximized="1"
     inkscape:current-layer="layer1" /><defs
     id="defs1" /><g
     inkscape:label="Layer 1"
     inkscape:groupmode="layer"
     id="layer1"><g
       id="g2"
       transform="translate(166.72344,76.361886)"><path
         style="fill:#39c5f5"
         d="m 281,659.44098 c 0,-1.95746 0.35618,-3.33888 0.7915,-3.06984 0.43533,0.26905 1.33626,-4.0973 2.00207,-9.70299 3.07546,-25.89354 12.6991,-64.70666 22.2445,-89.71433 2.82442,-7.3996 5.49165,-14.61031 5.92718,-16.0238 2.98804,-9.69744 18.5648,-38.22565 31.08449,-56.93002 33.11306,-49.47075 83.06606,-88.31346 135.76379,-105.56791 12.80741,-4.19344 33.6555,-9.71759 44.68647,-11.84065 18.77641,-3.61376 57.35503,-7.30855 69.75,-6.68016 1.65163,0.0837 1.75,4.67014 1.75,81.58872 V 523 l -4.25,0.0183 c -6.39985,0.0276 -23.25243,2.64072 -32.04519,4.96887 -42.81746,11.33723 -81.79769,43.28465 -102.00824,83.60391 -6.0589,12.08726 -11.16179,27.01174 -13.6575,39.94419 C 441.91758,657.34672 441,662.30368 441,662.55076 441,662.79784 405,663 361,663 H 281 Z M 373.65973,296.75 c 2.5357,-2.8408 15.96986,-22.02822 28.18122,-40.25 15.68747,-23.40885 36.60321,-52.42515 37.58761,-52.14511 0.5107,0.14528 1.4107,1.13283 2,2.19455 1.37426,2.47598 38.15503,55.11302 60.23368,86.20056 l 4.43881,6.25 H 438.87621 371.65137 Z M 0,159.71577 V 134.43154 L 9.5046067,120.96577 C 41.032919,76.297641 48.655462,65.385818 50,62.995808 51.679606,60.01019 70.66618,32.810257 75.621567,26.290667 l 3.199414,-4.209332 20.244848,28.709332 C 110.2005,66.5808 123.96577,86.095272 129.65534,94.156159 135.3449,102.21705 140,109.2564 140,109.79917 c 0,0.54277 0.675,1.24587 1.5,1.56246 0.825,0.31658 1.5,1.08693 1.5,1.7119 0,1.05817 7.14287,11.4179 30.97612,44.92647 5.28109,7.425 11.74465,16.5375 14.36346,20.25 l 4.76147,6.75 H 96.550526 0 Z m 393.32334,-57.11599 c 0.29552,-0.77013 7.18439,-10.782628 15.3086,-22.250004 C 416.75614,68.882399 426.71336,54.775 430.75908,49 c 4.04572,-5.775 7.73049,-10.6335 8.18839,-10.796667 0.68245,-0.243187 16.68703,22.03953 37.203,51.796667 2.08558,3.025 5.14404,7.4125 6.79659,9.75 l 3.00464,4.25 h -46.58284 c -39.52086,0 -46.50138,-0.21227 -46.04552,-1.40022 z"
         id="path3" /><path
         style="fill:#11b1e7"
         d="M 0,424.00497 V 185.00995 L 96.361358,184.75497 192.72272,184.5 180.33782,167 C 152.56979,127.76345 143.30847,114.41399 142.70131,112.75 142.35011,111.7875 141.59865,111 141.03138,111 140.46412,111 140,110.50777 140,109.90616 140,109.30455 135.3449,102.21705 129.65534,94.156159 123.96577,86.095272 110.19711,66.575993 99.058316,50.779985 L 78.805954,22.05997 74.559302,27.779985 C 68.154186,36.407335 51.299967,60.570989 50.022292,62.958347 48.774076,65.290659 24.844335,99.654133 19.004757,107.5 c -2.046789,2.75 -7.160183,9.92035 -11.3630962,15.93412 L 0,134.36823 V 67.184116 0 H 297.5 595 v 179.90204 179.90205 l -7.25,0.0916 c -15.72906,0.19875 -47.92761,3.55429 -64.25,6.69574 -11.03097,2.12306 -31.87906,7.64721 -44.68647,11.84065 C 426.1158,395.68654 376.1628,434.52925 343.04974,484 c -12.51969,18.70437 -28.09645,47.23258 -31.08449,56.93002 -0.43553,1.41349 -3.10276,8.6242 -5.92718,16.0238 -9.5454,25.00767 -19.16904,63.82079 -22.2445,89.71433 -0.66581,5.60569 -1.56674,9.97204 -2.00207,9.70299 C 281.35618,656.1021 281,657.48352 281,659.44098 V 663 H 140.5 0 Z M 501.66224,292.75 c -22.07865,-31.08754 -58.85942,-83.72458 -60.23368,-86.20056 -0.5893,-1.06172 -1.4893,-2.04927 -2,-2.19455 -0.9844,-0.28004 -21.90014,28.73626 -37.58761,52.14511 -12.21136,18.22178 -25.64552,37.4092 -28.18122,40.25 l -2.00836,2.25 h 67.22484 67.22484 z m -18.71518,-193 C 481.29451,97.4125 478.23605,93.025 476.15047,90 455.6345,60.242863 439.62992,37.960146 438.94747,38.203333 438.48957,38.3665 434.8048,43.225 430.75908,49 426.71336,54.775 416.75614,68.882399 408.63194,80.349776 400.50773,91.817152 393.61886,101.82965 393.32334,102.59978 392.86748,103.78773 399.848,104 439.36886,104 H 485.9517 Z M 441,662.55076 c 0,-3.49819 4.91083,-23.97396 7.60884,-31.72513 17.29778,-49.69523 59.98727,-89.57063 110.09597,-102.83844 8.79276,-2.32815 25.64534,-4.94128 32.04519,-4.96887 L 595,523 v 70 70 h -77 c -42.35,0 -77,-0.20216 -77,-0.44924 z"
         id="path2" /></g></g></svg>
