<svg width="277mm" height="181mm" clip-rule="evenodd" fill-rule="evenodd" image-rendering="optimizeQuality" shape-rendering="geometricPrecision" text-rendering="geometricPrecision" version="1.1" viewBox="0 0 27700 18100" xml:space="preserve" xmlns:xlink="http://www.w3.org/1999/xlink" xmlns="http://www.w3.org/2000/svg">
	<g stroke="#000" stroke-width="37.042">
		<a aria-hidden="true" xlink:href="/find-my-legislator/by-county?county=BUCKS">
			<path d="m25226 14977-18.68-92.27c-1.46-23.97-18.5-39-15.19-65.96 2.99-1.5 24.99-35.99 31.02-42.95 27.42-31.69 44.37-62.79 45.62-106.01 0.91-31.23-7.26-62.52-8.21-94.13-1.6-52.72-25.88-40.38-61.13-56.66-30.86-14.26-70.46-27.57-94.89-52.09l-77.56-67.62-2005.5-1561.8 316.62-406.68 319.35-274.16c30.88-11.11 68.38-60.77 93.86-83.16 49.22-43.23 96.69-91.24 151.46-128.85 38.9-26.7 106.99-94.02 151.46-102.36 44.11-41.21 173.06-49.41 215.46-81.33-38.87 31.58-1.51 54.54 14.59 84.07 35.55 65.16-68.32 133.83 13.69 185.52 53.17 33.52 94.73 68.08 135.04 21.02 90.64-105.81 216.89-19.58 288.33 38.38 95.33 77.33 84.08 154.47 110.4 286.04 0.61 3.04 1.23 6.1 1.83 9.14 13.37 66.82-3.97 133.08-12.78 200.14-6.65 50.56-35.03 88.97-20.07 143.47 30.75 112.06 58.57 207.4 189.78 236.7 65.11 14.54 139.56-35.08 198-5.49 91.19 46.16 85.34 86.55 114.97 169.07 2.73 7.61 5.48 15.24 8.21 22.85 16.48 45.88 31.02 73.93 38.32 121.54 2.63 17.16 5.84 54.07 13.69 68.54 22.04 40.64 95.17 86.62 135.03 111.49 113.77 70.98 211.67 104.72 247.27 247.66 14.73 59.13 10.39 115.19 62.05 154.44 10.64 8.09 38.03 18.29 50.18 25.59 69.94 42.04 139.91 84.08 209.86 126.12 45.36 27.26 52.86 150.16 93.98 189.17 60.12 57.02 167.76 115.79 128.65 209.27-52.31 125.06-158.75 59.44-230.84 147.14-45.14 54.93-111.01-3.75-160.59-17.37-36.45-10.02-52.38 32.23-61.13 65.8-37.12 142.47-242.59 255.88-385.96 255.88-84 0-157.48 55.45-226.17 119.85z" fill="#9b9b9b"></path>
		</a>
		<a aria-hidden="true" xlink:href="/find-my-legislator/by-county?county=PHILADELPHIA">
			<path d="m24514 15838c-36.38 50.83-192.01 36.69-250.92 56.66-27.82 9.42-54.06 28.29-80.12 49.61-71.56-44.7-236.19-10.22-211.86-133.68 21.08-106.98 119.46-216.51 61.13-321.68-15.14-27.29-13.97-53.37-25.54-79.51-4.82-10.88-17.26-11.72-21.9-21.02-33.39-2.99-63.14-21.51-71.17-53.92-1.85 1.79-0.01-0.01 1.79-1.85l-3.62 3.68c39.37-40.74 91.65-72.61 137.78-103.27 22.51-14.97 46.63-24.46 68.43-42.03 18.34-14.77 35.81-40.51 52.01-52.09 4.55-55.57-58.73-95.61-95.8-126.12-22.07-18.15-119.43-112.19-110.41-137.08 40.16-15.07 71.72-76.72 108.58-101.44 23.87-21.99 67.13-120.54 97.63-107.83 43.04 17.95 74.11 70.46 110.4 98.69h12.78c2.73-2.12 2.9-2.35 6.39-2.74l31.93-24.67c10.55 0 22.64-3.87 30.11 5.48 92.53 25.25 207.02 211.56 308.4 166.32 81.03-36.17 39.01-98.85 62.96-163.58 25.79-69.68 69.51-100.67 107.66-158.1l186.14-188.25 77.56 67.62c24.43 24.52 64.03 37.83 94.89 52.09 35.25 16.28 59.53 3.94 61.13 56.66 0.95 31.61 9.12 62.9 8.21 94.13-1.25 43.22-18.2 74.32-45.62 106.01-6.03 6.96-28.03 41.45-31.02 42.95-3.31 26.96 13.73 41.99 15.19 65.96l18.68 92.27c-63.74 59.75-123.38 127.23-183.51 165.28-40.31 25.51-81.12 21.63-120.44 44.78-10.39 6.11-28.26 17.76-32.85 29.24-34.94 87.47-50.68 125.19-138.69 166.33-61.77 28.88-133.08 37.33-186.13 83.16-101.45 87.62 41.26 304.06-42.88 363.72-5.5 3.89-1.05 6.14-7.3 8.22z" fill="#e28818"></path>
		</a>
		<a aria-hidden="true" xlink:href="/find-my-legislator/by-county?county=NORTHAMPTON">
			<path d="m24564 9740.5c-46.97 51.69-180.82 98.62-241.66 135.98-43.97 27.01-73.04 46.42-125.01 51.18-28.32 23.65-76.77 83.75-104.93 97.78-122.86 184.97-234.65 296.75-443.44 382.91l-212.59 87.73c-42.9 19.82-98.12 28.91-144.16 39.3-48.44 10.94-92.32 21.82-139.61 38.38-25.81 9.03-64.64 22.85-91.24 22.85-4.69 3.66-6.79 3.39-13.74 5.48l-74.76 17.37c-4.7 0-1.33-0.14-9.13 5.48-29.15 1.51-59.65 11.18-89.42 13.71-27.51 2.33-60.02 3.89-86.68 10.05-61.72 14.25-120.67 25.99-179.74 47.52-30.38 11.08-67.86 35.73-96.72 42.95-4.66 5.84-13.78 10.11-20.08 13.71-23.99 99.33-3.32 248.61 98.49 289.7 46.42 18.74 72.71 65 122.27 76.76 36.05 8.56 77.01-77.39 89.42-102.35 4.46-0.63 6.2-1.83 10.94-1.83 42.75 128.73 111.56 284.59 182.49 407.59 47.25 81.95 63.54 106.28 145.99 49.35 69.11-47.73 112.34-73.73 162.41 16.45 27.35 68.44 106.77 73.63 117.64 144.39 5.18 33.68 5.48 76.32 5.48 110.57 0 52.91-9.73 59.99-30.11 106.01-66 49.5 12.99 97.21 37.41 129.77 21.49 9.01 55.68 41.98 75.73 58.49l72.08 59.4 75.85 59.4c30.88-11.11 68.38-60.77 93.86-83.16 49.22-43.23 96.69-91.24 151.46-128.85 38.9-26.7 106.99-94.02 151.46-102.36 44.11-41.21 173.06-49.41 215.46-81.33 21.98-17.87 56.6-43.7 29.19-80.42-2.79-3.75-1.85-9.85-5.47-12.8-30.33-24.69-48.43-76.11-32.85-106 14.48-27.76 109.66-89.58 85.77-123.38-26.64-37.67-95.79-14.15-114.05-64.88-15.75-43.78-6.2-80.48 29.19-117.89 68.32-72.19 90.79-98.35 22.81-180.95-79.68-96.8 62.23-83.3 74.82-169.06 13.3-90.52 71.54-40.97 125.92-22.85 56.04 18.66 67.57-23.71 92.15-62.14 20.16-31.54 58.85-22.33 83.95-46.61 25.26-24.45 10.08-54.32 19.16-83.16 12.96-41.18 65.83-66.74 57.48-106.92-7.97-38.39-92.88-79.05-45.62-120.63 48.14-42.37 194.63 38.63 205.3-84.08 9.58-110.12-109.2-88.93-113.15-191-0.7-18.34 8.47-35.89 4.57-53.92-6.11-28.18-30.59-49.26-49.27-72.19-33.98-41.69-81.73-71.45-105.85-123.37-10.48-22.54-10.69-45.22-19.16-67.63-9.92-26.22-11.26-52.47-26.46-76.77-11.82-18.91-19.6-36.78-23.85-53.73z" fill="#c6cedc"></path>
		</a>
		<a aria-hidden="true" xlink:href="/find-my-legislator/by-county?county=PIKE">
			<path d="m24827 6135.7-97.85 111.78c-8.35 21-32.22 62.87-49.27 77.68-10.28 17.42-18.39 39.43-32.85 53.92-17.07 34.23-37.1 78.69-62.96 106.92-23.43 55.87-59.67 114.63-93.06 165.41-36.94 56.16-58.18 125.33-95.81 181.86l-134.13 213.85c-38.76 61.8-117.55 115.14-189.78 115.14-60.65 60.65-57.1 99.62-77.56 184.6-23.9 99.22-79.6 107.31-170.62 87.74-52.25-11.24-74.87 38.05-108.58 31.07-19.33-4.01-31.34-24.68-50.18-24.68-22.33 0-39.99 26.73-61.14 35.64-34.99 7.09-1.47 67.3 10.95 80.42 20.81 21.96 9.99 64.34 29.2 77.68 18.83 13.07 41.84 8.85 61.13 17.37 81.91 36.19 7.6 178.94-17.33 237.6-25.27 59.43-13.53 111.29-63.87 161.76-29.21 29.27 5.55 49.22 18.25 76.76 23.53 10.14 35.48 54.54 29.34 77.68l863.92-91.39-108.58 591.28 347.64 32.9 186.07 339.04 156.11-9.37c6.77-39.41 43.42-108.57 62.87-114.92 31.81-10.37 75.45 1.33 109.49-12.79 44.54-18.47 111.41-58.16 136.86-98.7 23.72-37.76 47.44-75.55 71.17-113.32 51.59-82.15 231.34-290.89 198.91-374.68-20.36-52.6-5.14-162.22 34.67-188.26 87.97-57.56 52.75-220.77 184.31-274.16 101.85-41.32 32.93-118.04 135.04-131.6 43.12-5.73 70.83-103.51 144.16-127.94 41.18-13.72 198.78-37.2 238.97-87.1 14.05-17.45 13.76-38.14-10.87-62.77-72.2-72.2-36.68-45.95-65.69-122.46-16.71-44.05-110.9 9.19-122.26-63.97-3.17-20.4 50.58-140.97 3.65-151.7-15.18-3.47-44.36 28.03-56.57 31.07-23.67 5.89-57.49-16.48-85.77-5.49-25.4 9.88-89.84 92.23-94.89-7.31-1.42-28.15-17.11-129.24-67.52-84.07-33.28 29.81-12.7 75.72-82.12 71.28-62.73-4.02-63.09-80.34-107.67-100.53-36.13-16.35-156.15 89.79-178.83 32.9-12.75-31.97 33.83-118.8-12.78-118.8-116.23 0-101.13-117.13-160.58-126.11-16.06-2.42-54.43 32.9-89.42 32.9-53.53 0-78.62-0.59-109.49-34.73-21.01-23.25-64.25-136.1-78.47-164.5-17.35-34.62-86.52-97.64-100.36-131.6-25.48-62.54 36.78-117.27-25.55-173.63-51.61-46.65-92.69-121.69-149.64-166.32-16.27-12.75-17.1-36.4-10.66-63.35z" fill="#6ba0dc"></path>
		</a>
		<a aria-hidden="true" xlink:href="/find-my-legislator/by-county?county=MONROE">
			<path d="m24564 9740.5c-46.97 51.69-180.82 98.62-241.66 135.98-43.97 27.01-73.04 46.42-125.01 51.18-28.32 23.65-76.77 83.75-104.93 97.78-122.86 184.97-234.65 296.75-443.44 382.91l-212.59 87.73c-42.9 19.82-98.12 28.91-144.16 39.3-48.44 10.94-92.32 21.82-139.61 38.38-25.81 9.03-64.64 22.85-91.24 22.85-4.69 3.66-6.79 3.39-13.74 5.48l-52.92-144.39c-29.72-33.46-71.82-101.95-93.07-140.73l-82.12-149.88c-46.8-85.41-98.13-177.92-127.73-268.68-22.29-68.32-25.32-64.1 32.84-93.21 49.09-24.56 90.62-72.85 116.79-118.8 29.07 0 107.1-44.55 109.49-78.6 2.93-41.85-51.12-91.25-81.15-109.66-69.11-86.55-162.9-170.22-205.29-274.16-44.61-109.36-136.72-167.31-199.83-260.45-15.48-22.86-144.29-81.17-136.86-96.87l195.26-254.06c15-16.09 24.36-31.45 41.97-45.69 5.9-4.78 12.71-10.44 19.16-14.62 9.38-6.06 11.57-17.14 19.16-22.85 8.21-24.6 16.64-58.26 31.94-79.51 20.67-28.73 38.4-61.37 58.39-89.56l1.83-1.82c24.57-30.29 42.43-95.05 89.42-95.05 20.12 0 27.17 4 39.23 20.11 11.17 14.91 23.47 28.33 42.88 28.33 13.69-13.69 25.89-30.98 36.5-47.52l73.91-58.49h693.59l863.92-91.39-108.58 591.28 347.64 32.9 186.07 339.04 156.11-9.37c-2.19 12.8-1.25 22.46 4.47 25.82 44.66 26.27 124.46-52.23 142.34-12.79 31.8 70.1-143.28 73.9-187.96 124.28-73.46 82.84-46.09 149.65-155.11 219.33-122.25 78.15-396.21 155.11-355.91 315.47z" fill="#e28818"></path>
		</a>
		<a aria-hidden="true" xlink:href="/find-my-legislator/by-county?county=WAYNE">
			<path d="m24827 6135.7-97.85 111.78c-8.35 21-32.22 62.87-49.27 77.68-10.28 17.42-18.39 39.43-32.85 53.92-17.07 34.23-37.1 78.69-62.96 106.92-23.43 55.87-59.67 114.63-93.06 165.41-36.94 56.16-58.18 125.33-95.81 181.86l-134.13 213.85c-38.76 61.8-117.55 115.14-189.78 115.14-60.65 60.65-57.1 99.62-77.56 184.6-23.9 99.22-79.6 107.31-170.62 87.74-52.25-11.24-74.87 38.05-108.58 31.07-19.33-4.01-31.34-24.68-50.18-24.68-22.33 0-39.99 26.73-61.14 35.64-34.99 7.09-1.47 67.3 10.95 80.42 20.81 21.96 9.99 64.34 29.2 77.68 18.83 13.07 41.84 8.85 61.13 17.37 81.91 36.19 7.6 178.94-17.33 237.6-25.27 59.43-13.53 111.29-63.87 161.76-29.21 29.27 5.55 49.22 18.25 76.76 23.53 10.14 35.48 54.54 29.34 77.68h-693.59c2.87-5.05 4.57-7.32 6.39-11.88 5.78-2.17 12.3-12.91 18.24-17.36 14.58-10.95 35.25-18.54 52.92-25.59 11.13-4.43 23.84-11.2 34.68-16.45 16.83-8.17 39.72-9.03 56.57-18.28 16.89-9.26 32.42-12.4 45.62-28.33l-80.05-2187.5-98.79-2043.4 522.2-1.03c16.96 3.45 33.04 8.27 47.1 16.27 68.63 39.02 25.79 182.84 96.72 188.25 63.24 4.83 48.86 45.11 80.29 82.25 46.87 55.36 88.73-30.6 113.14-23.76 30.43 8.54 18.65 97.7 21.9 129.77 4.81 47.32 68.64 136.66 41.97 173.64-80.76 112.01 50.07 77.07 40.14 142.56-5.61 37.02-35.29 70.18 5.48 93.21 41.05 23.18 50.69-45.92 104.02-1.82 44.58 36.88 66.48-76.21 145.98-51.18 48.96 15.42 47.94 29.71 98.54-3.66 39.94-26.33 28.87 80.83 58.4 104.19 12.57 9.95 89.32 11.75 107.67 12.79 135.8 7.7 97.26 81.62 136.86 175.46 21.34 50.57 119.96 19.62 151.46 51.18 66.85 67-113.57 116.29-124.09 148.05-39.75 120 220.76 78.82 211.68 195.56-8.17 105.1 51.1 126.72 51.1 184.6 0 82.42-108.65 45.06-104.02 96.87 3.13 34.95 53.9 79.49 67.52 118.81 20.11 58.02-25.69 96.59-16.42 153.53 6.33 38.83 30.95 117.69 16.42 155.35-8.76 22.73-47.63 86.25-59.93 137.71z" fill="#c6cedc"></path>
		</a>
		<a aria-hidden="true" xlink:href="/find-my-legislator/by-county?county=Delaware">
			<path d="m23915 15332c-1.8 1.84-3.64 3.64-1.79 1.85 8.03 32.41 37.78 50.93 71.17 53.92 4.64 9.3 17.08 10.14 21.9 21.02 11.57 26.14 10.4 52.22 25.54 79.51 58.33 105.17-40.05 214.7-61.13 321.68-24.33 123.46 140.3 88.98 211.86 133.68-65.08 53.22-129.17 121.83-214.6 97.53-67.9-19.31-157.99-13.58-224.45 4.57-138.36 34.59-267.2 169.83-380.48 252.22-17.94 13.04-37.66 23.21-58.15 32l-107.8-61.48c-5.41-4.15-14.82-11.67-22.01-12.55-34.98-39.39-197.14-69.34-250.92-79.51-103.17-19.52-268.11-27.43-397.62-1.76l-1.11-112.47c2.45-48.1-24.54-129.54 22.81-166.33 22.55-17.51 50.39-31.56 67.52-54.83 14.61-19.83 29.59-72.68 56.57-74.94 12.8-14.45 30.49-15 42.88-37.47 15.67-28.39 30.09-92.39 59.31-108.75 60.19-33.69 78.31-93.88 129.56-143.47 62.24-60.21 148.9-90.37 222.64-133.43 19.37-8.81 56.88-13.23 67.52-32.9 11.81-21.86-18.25-55.73-18.25-82.25 0-28.03 33.09-78.45 59.31-84.07 11.73-14.36 36.09-25.31 51.09-42.04 21.72-24.25 31.27-56.77 34.67-88.64 4.96-46.37 16.39-44.71 41.06-77.68 22.32-6.09 39.16-28.46 59.31-40.21l114.05-53.92c62.92 38.25 95.48 82.14 115.88 151.7 10.78 36.73 19.06 61.75 55.66 76.77 14.83 6.09 29.37 7.72 41.97 17.36 12.32 9.41 17.8 21.03 27.37 29.24 2.84 25.41 25.58 71.81 41.98 91.39 23.08 27.57 28.57 51.39 46.53 82.25l46.53 45.69z" fill="#6ba0dc"></path>
		</a>
		<a aria-hidden="true" xlink:href="/find-my-legislator/by-county?county=BERKS">
			<path d="m18903 12397 870.48 714.65 133.25 53 248.14 250.4 1180.7 1000.7 474.46-386.57 273.68-175.46 743.58-1177.1-1545.6-1305-296.54 158.1c-168.71 72.38-203.75 133.81-239.97 307.97-33.58 161.52-73.68 111.5-203.47 111.5-79.35 0-175.52 64.14-252.74 88.64-44.6 14.14-96.33 58.74-138.69 65.8-23.28 21.52-72.34 25.02-102.19 34.73-128.89 47.36-260.39 121.87-399.65 128.85-156.09 7.83-309.13 25.76-460.77 62.14-69.59 16.7-210.3 31.53-269.17 65.8-6.14 0-8.38 0.64-15.57 1.83z" fill="#6ba0dc"></path>
		</a>
		<a aria-hidden="true" xlink:href="/find-my-legislator/by-county?county=CHESTER">
			<path d="m22527 16175-1.11-112.47c2.45-48.1-24.54-129.54 22.81-166.33 22.55-17.51 50.39-31.56 67.52-54.83 14.61-19.83 29.59-72.68 56.57-74.94 12.8-14.45 30.49-15 42.88-37.47 15.67-28.39 30.09-92.39 59.31-108.75 60.19-33.69 78.31-93.88 129.56-143.47 62.24-60.21 148.9-90.37 222.64-133.43 19.37-8.81 56.88-13.23 67.52-32.9 11.81-21.86-18.25-55.73-18.25-82.25 0-28.03 33.09-78.45 59.31-84.07 11.73-14.36 36.09-25.31 51.09-42.04 21.72-24.25 31.27-56.77 34.67-88.64 4.96-46.37 16.39-44.71 41.06-77.68 22.32-6.09 39.16-28.46 59.31-40.21l114.05-53.92-35.58-53.92c-30.18-22.55-78.74 26.57-106.75 8.23-25.11-16.43-72.72-89.34-84.86-117.89-9.3-21.9-19.58-65.33-35.59-81.34-31.65-31.65-111.32 6.24-149.63 9.14-56.06 4.24-8.37-116.13-30.11-143.48-71.63 0-145.52 53.11-177.01-39.29-12.35-36.27 24.24-135.26-22.81-135.26-77.7 86.58-74.52-42.93-121.36-72.19-0.48-3.48-6.32-13.51-7.3-15.54-7.33-23.57-19.24-44.96-26.46-68.54-5.39-17.57-2.47-41.52-6.38-60.31-15.22-73.09-60.27-49.8-95.81-6.4-60.02 4.23-49.02-87.68-83.03-127.94-30.95-36.62-42.96-110.14-94.89-38.38-42.38 3.79-43.83 15.05-78.47-22.85-16.17-17.68-57.14-49.08-82.12-51.18-30.24-42.31-116.31 14.28-152.38 23.76l-61.18 5.49-273.68 175.46-474.46 386.57-129.56 93.21c-17.62 8.14-50.24 27.42-68.44 27.42-3 3.01-6.24 5.06-10.94 5.48-3.44 2.82-3.86 2.66-7.3 5.48-17.24 2.86-26.22 19.4-41.06 25.59-41.12 61.75-10.95 220.92-10.95 296.09 0 123.04-34.74 192.54-101.28 294.27l-125 225.73c-36.8 66.45 12.77 141.41 12.77 208.36-39.99 50.1-47.5 86.86-36.5 147.13 8.47 46.46 29.35 123.05-3.65 163.58-39.25 52.46-75.55 103.46-102.19 163.59-17.77 40.09-34.56 138.97-58.39 166.32-6.3 75.12-85.88 159.61-125.01 220.24-40.41 62.59-104.9 171.6-165.15 213.85l-101.29 135.14 1464.4 0.11 52.97 13.71c7.57-22.81 10.86-45.3 18.25-67.63 7.75-23.45 22.16-44.5 31.02-66.71 10.32-3.87 27.09-40.64 37.41-51.18 15.63-15.94 27.21-40.54 44.71-54.83 30.81-25.14 70.14-65.34 95.81-96.87 100.08-134 267.35-195.15 403.29-269.59 32.2-17.63 72.51-30.42 116.99-39.23z" fill="#e28818"></path>
		</a>
		<a aria-hidden="true" xlink:href="/find-my-legislator/by-county?county=MONTGOMERY">
			<path d="m22084 13854 61.18-5.49c36.07-9.48 122.14-66.07 152.38-23.76 24.98 2.1 65.95 33.5 82.12 51.18 34.64 37.9 36.09 26.64 78.47 22.85 51.93-71.76 63.94 1.76 94.89 38.38 34.01 40.26 23.01 132.17 83.03 127.94 35.54-43.4 80.59-66.69 95.81 6.4 3.91 18.79 0.99 42.74 6.38 60.31 7.22 23.58 19.13 44.97 26.46 68.54 0.98 2.03 6.82 12.06 7.3 15.54 46.84 29.26 43.66 158.77 121.36 72.19 47.05 0 10.46 98.99 22.81 135.26 31.49 92.4 105.38 39.29 177.01 39.29 21.74 27.35-25.95 147.72 30.11 143.48 38.31-2.9 117.98-40.79 149.63-9.14 16.01 16.01 26.29 59.44 35.59 81.34 12.14 28.55 59.75 101.46 84.86 117.89 28.01 18.34 76.57-30.78 106.75-8.23l35.58 53.92c62.92 38.25 95.48 82.14 115.88 151.7 10.78 36.73 19.06 61.75 55.66 76.77 14.83 6.09 29.37 7.72 41.97 17.36 12.32 9.41 17.8 21.03 27.37 29.24 2.84 25.41 25.58 71.81 41.98 91.39 23.08 27.57 28.57 51.39 46.53 82.25l46.53 45.69c39.37-40.74 91.65-72.61 137.78-103.27 22.51-14.97 46.63-24.46 68.43-42.03 18.34-14.77 35.81-40.51 52.01-52.09 4.55-55.57-58.73-95.61-95.8-126.12-22.07-18.15-119.43-112.19-110.41-137.08 40.16-15.07 71.72-76.72 108.58-101.44 23.87-21.99 67.13-120.54 97.63-107.83 43.04 17.95 74.11 70.46 110.4 98.69h12.78c2.73-2.12 2.9-2.35 6.39-2.74l31.93-24.67c10.55 0 22.64-3.87 30.11 5.48 92.53 25.25 207.02 211.56 308.4 166.32 81.03-36.17 39.01-98.85 62.96-163.58 25.79-69.68 69.51-100.67 107.66-158.1l186.14-188.25-2005.5-1561.8-193.53-160.85z" fill="#c6cedc"></path>
		</a>
		<a aria-hidden="true" xlink:href="/find-my-legislator/by-county?county=CARBON">
			<path d="m22491 10753c6.3-3.6 15.42-7.87 20.08-13.71 28.86-7.22 66.34-31.87 96.72-42.95 59.07-21.53 118.02-33.27 179.74-47.52 26.66-6.16 59.17-7.72 86.68-10.05 29.77-2.53 60.27-12.2 89.42-13.71 7.8-5.62 4.43-5.48 9.13-5.48l74.76-17.37-52.92-144.39c-29.72-33.46-71.82-101.95-93.07-140.73l-82.12-149.88c-46.8-85.41-98.13-177.92-127.73-268.68-22.29-68.32-25.32-64.1 32.84-93.21 49.09-24.56 90.62-72.85 116.79-118.8 29.07 0 107.1-44.55 109.49-78.6 2.93-41.85-51.12-91.25-81.15-109.66-69.11-86.55-162.9-170.22-205.29-274.16-44.61-109.36-136.72-167.31-199.83-260.45-15.48-22.86-144.29-81.17-136.86-96.87l-72.08-52.09-25.55-27.42c-16.32-3.26-30.4-22.88-50.18-15.53-25.96 9.64-48.62 28.48-72.08 42.95-48.58 29.99-85.67 88.61-135.04 113.32-97.68 48.88-212.32 74.38-196.18 212.01 9.62 82.03 24.34 115.48 74.82 177.29 72.21 6.61 113.83 189.67 21.9 200.14-120.98 72.69-255.6 114.28-375.92 182.78l-346.72 197.39c-64.09 36.49-211.99 71.23-262.78 114.23-8.34 1.56-30.78 10.93-36.5 17.37-5.92 0.53-13.66 7.16-18.25 10.05l355.71 462.77 662.47 538.83c13-5.02 24.41-14.21 36.59-18.28 47.2-43.31 110.8-75.24 157.85-122.46 25.68-10.25 48.27-37.54 74.82-49.34 44.26-19.69 79.94-45.95 127.74-59.41l145.99-41.12z" fill="#9b9b9b"></path>
		</a>
		<a aria-hidden="true" xlink:href="/find-my-legislator/by-county?county=LEHIGH">
			<path d="m22491 10753c-23.99 99.33-3.32 248.61 98.49 289.7 46.42 18.74 72.71 65 122.27 76.76 36.05 8.56 77.01-77.39 89.42-102.35 4.46-0.63 6.2-1.83 10.94-1.83 42.75 128.73 111.56 284.59 182.49 407.59 47.25 81.95 63.54 106.28 145.99 49.35 69.11-47.73 112.34-73.73 162.41 16.45 27.35 68.44 106.77 73.63 117.64 144.39 5.18 33.68 5.48 76.32 5.48 110.57 0 52.91-9.73 59.99-30.11 106.01-66 49.5 12.99 97.21 37.41 129.77 21.49 9.01 55.68 41.98 75.73 58.49l72.08 59.4 75.85 59.4-319.35 274.16-316.62 406.68-193.53-160.85-1545.6-1305 363.05-174.55 206.21-156.27c13-5.02 24.41-14.21 36.59-18.28 47.2-43.31 110.8-75.24 157.85-122.46 25.68-10.25 48.27-37.54 74.82-49.34 44.26-19.69 79.94-45.95 127.74-59.41l145.99-41.12z" fill="#e28818"></path>
		</a>
		<a aria-hidden="true" xlink:href="/find-my-legislator/by-county?county=DAUPHIN">
			<path d="m17708 14507c17.84-55.39 45.33-133.21 89.42-169.98 21.96-1.8 46.88-10.07 70.26-11.88 28.68-21.58 59.43-37.98 87.59-63.05 39.37-35.06 99.64-13.24 141.42-59.41 31.48-34.77 81.8-75.34 128.66-84.07l116.94-31.34-477.38-1569.8 624.07-445.97-672.45-603.15-343.98 63.97c-27.94 2.82-45.92 27.72-81.2 26.5-25-0.86-32.76-2.02-56.57 2.75-27.49 33.58-84.29 89.37-129.57 91.38-52.63 2.33-93.32-15.87-140.51 18.28-84.02 60.82-198.88 134.18-288.32 41.12l-24.6-95.04-47.48 187.34c-2.16 71.68-87.41 88.46-125.92 133.43-40.5 47.28-24.83 70.84-18.24 131.6 4.58 42.32 16.42 72.93 16.42 118.8 0 66.4 3.65 111.78 58.39 155.36 22.52 17.94 52.67 35.08 71.17 56.66 11.68 13.64 37.78 64.52 49.27 69.45 4.54 54.69 19.42 55.46-20.07 98.7-42.58 46.64-111.11 77.12-164.24 116.97-55.68 41.78-19.68 111.81-43.79 166.33-19.99 25.6-30.94 43.27-62.02 59.4-48.27 25.04-96.08 50.32-69.34 116.06 38.83 95.48 52.66 157.19 172.45 157.19 50.61 0 98.69-13.71 148.72-13.71 37.55 0 56.18 15.96 86.69 27.41 13.84 25.06 33.89 47.31 45.62 77.68l15.49 76.77c2.14 23.26 2.14 62.76-12.76 81.33-2.69 32.87-16.7 54.71-10.95 90.47 5.35 33.34 23.93 65.61 32.85 97.79 9.63 8.22 17.26 31.52 27.38 42.95 37.78 42.69 69.26 98.64 114.96 135.25l91.24 121.55 88.51 24.67c10.07 18.15 24.53 48.44 38.32 65.8 32.17 40.46 110.67 20.32 151.46 65.8 38.22 42.63 67.62 57.77 120.44 74.94 150.08 48.78 37.76 224.27 118.62 312.54z" fill="#6ba0dc"></path>
		</a>
		<a aria-hidden="true" xlink:href="/find-my-legislator/by-county?county=LANCASTER">
			<path d="m20262 16807 101.29-135.14c60.25-42.25 124.74-151.26 165.15-213.85 39.13-60.63 118.71-145.12 125.01-220.24 23.83-27.35 40.62-126.23 58.39-166.32 26.64-60.13 62.94-111.13 102.19-163.59 33-40.53 12.12-117.12 3.65-163.58-11-60.27-3.49-97.03 36.5-147.13 0-66.95-49.57-141.91-12.77-208.36l125-225.73c66.54-101.73 101.28-171.23 101.28-294.27 0-75.17-30.17-234.34 10.95-296.09 14.84-6.19 23.82-22.73 41.06-25.59 3.44-2.82 3.86-2.66 7.3-5.48 4.7-0.42 7.94-2.47 10.94-5.48 18.2 0 50.82-19.28 68.44-27.42l129.56-93.21-1180.7-1000.7-720.81 338.13-421.54 67.63-670.45 266.58-116.94 31.34c-46.86 8.73-97.18 49.3-128.66 84.07-41.78 46.17-102.05 24.35-141.42 59.41-28.16 25.07-58.91 41.47-87.59 63.05-23.38 1.81-48.3 10.08-70.26 11.88-44.09 36.77-71.58 114.59-89.42 169.98 3.97 4.52 6.26 8.63 10.97 10.99 4.83 8.7 27.31 31.95 35.63 37.53 8.76 20.94 26.78 43.89 42.05 60.4 14.79 16.02 23.6 35.38 35.64 53.1 14.65 21.58 32.05 46.85 50.26 65.9 19.05 19.91 42.89 42.01 57.58 64.08 98.56 70.46 153.26 57.32 268.68 82.37 55 11.94 99.9 31.13 159.01 31.13 51.62 0 76.68-42.64 131.6-36.62 2.56 2.25 4.54 4.44 7.31 5.49 31.32 49.23 20.34 118.23 57.58 171.17 69.3 98.48 86.19 145.81 114.24 261.78 29.79 123.16 71.41 177.91 180.03 240.73 77.77 61.82 196.27 107.08 289.7 138.22 38.2 84.47 18.61 211.38 66.71 283.75 27.65 41.6 69.04 76.43 97.79 119.9 30 45.4 45.49 89.57 85.9 129.98 5.2 5.37 6.74 8.39 11.91 10.97 10.35 20.78 40.41 44.1 55.66 63.06 31.9 39.69 60.15 95.51 104.93 119.71 67.85 36.66 95.54 134.2 135.95 195.57 34.06 51.73 58.16 129.76 64.85 190.86z" fill="#9b9b9b"></path>
		</a>
		<a aria-hidden="true" xlink:href="/find-my-legislator/by-county?county=LEBANON">
			<path d="m18903 12397 870.48 714.65 133.25 53 248.14 250.4-720.81 338.13-421.54 67.63-670.45 266.58-477.38-1569.8 624.07-445.97z" fill="#e28818"></path>
		</a>
		<a aria-hidden="true" xlink:href="/find-my-legislator/by-county?county=SCHUYLKILL">
			<path d="m20833 10039 355.71 462.77 662.47 538.83-206.21 156.27-363.05 174.55-296.54 158.1c-168.71 72.38-203.75 133.81-239.97 307.97-33.58 161.52-73.68 111.5-203.47 111.5-79.35 0-175.52 64.14-252.74 88.64-44.6 14.14-96.33 58.74-138.69 65.8-23.28 21.52-72.34 25.02-102.19 34.73-128.89 47.36-260.39 121.87-399.65 128.85-156.09 7.83-309.13 25.76-460.77 62.14-69.59 16.7-210.3 31.53-269.17 65.8-6.14 0-8.38 0.64-15.57 1.83l-414.24-325.34-672.45-603.15 1347.7-658.9 311.14-147.13 86.68-440.49 340.34-391.13 772.78 275.99z" fill="#c6cedc"></path>
		</a>
		<a aria-hidden="true" xlink:href="/find-my-legislator/by-county?county=MONTOUR">
			<path d="m18061 8678.4c0 10.62 0.82 35.49 6.39 43.87 0 31.29 15.49 63.99 25.55 94.12 13.12 11.35 15.05 64.94 15.51 83.17l2.73 108.75c15.51 37.8 14.77 73.69 23.73 111.49 11.34 47.89 34.45 49.26 66.6 74.02 31.67 0 76.08 25.38 109.5 31.99 98.18 19.41 35.24 230.04 52.92 300.66 21.6 28.26 37.11 63.77 63.87 87.73 37.83 33.86 76.4 75.64 109.49 115.15 30.62 36.54 88.57 70.65 51.09 120.63-54.88 16.52-61.99 70-55.65 119.72 2.91 22.88 12.77 45.32 12.77 68.54 0 27.16-14.6 51.82-14.6 80.42l-3.65 96.87-36.5 0.91c-6.6 0-12.15-1.53-18.25-2.74-7.1-1.4-9.53 0.51-16.42-2.74-6.42-3.04-17.11-7.83-20.98-14.62-3.46-0.94-3.35-1.61-6.39-2.75-3.39-7.65-9.39-14.24-10.95-23.76-1.95-11.82-2.65-23.48-3.65-35.64-2.68-35.44-48.36-60.55-48.36-101.44 0-37.07 14.43-74.45 19.16-111.49 11.22-87.89-151.39-40.14-202.56-72.19-36.34-22.77-53.3-106.87-100.36-110.58-46.53-3.66-59.97 19.43-104.02-11.88-36.02-25.59-107.5 11.86-145.08 27.41-150.69 62.35-308.73 82.25-466.25 82.25v-1.83c15.83-10.44 60.52-136.13 70.26-161.75 27.33-71.94 52.03-99.6 45.62-183.69 31.83-95.86 37.81-193.12 86.68-284.21 15-27.97 22.3-66.65 42.89-91.39 6.91-29.47 27.63-55.8 33.73-86.82l8.24-461.5c21.24 3.98 42.36 13.07 62.96 20.11 15.86 5.41 39.01 15.45 49.27 28.33 9.15 1.52 22.64 14.28 30.11 20.1 14.15 11.01 36.41 21.77 52.92 28.33 9.62 3.83 20.1 7.89 31.02 8.23 11.65 0.37 33.61 1.97 44.71 5.48z" fill="#c6cedc"></path>
		</a>
		<a aria-hidden="true" xlink:href="/find-my-legislator/by-county?county=NORTHUMBERLAND">
			<path d="m19164 10809-1347.7 658.9-343.98 63.97c-27.94 2.82-45.92 27.72-81.2 26.5-25-0.86-32.76-2.02-56.57 2.75-27.49 33.58-84.29 89.37-129.57 91.38-52.63 2.33-93.32-15.87-140.51 18.28-84.02 60.82-198.88 134.18-288.32 41.12l-24.6-95.04 107.66-121.54c13.95-18.61 35.96-52.74 56.57-63.97 11.82-22.21 37.84-42.5 55.66-60.32 23.86-23.86 40.71-48.29 62.96-73.11 41.45-46.21 81.16-94.71 110.4-149.87v-417.64c5.25-24.92 7.61-57.32 18.25-80.42 9.39-20.41 28.49-44.99 34.67-64.89 15.07-11.27 38.94-53.73 51.1-71.28 17.7-25.57 42.67-48.05 58.4-74.94 9.98-17.08 28.95-25.3 37.4-45.69 5.25-3.93 9.11-15.31 11.89-21.02v-203.79h-68.46l-47.44-63.06-3.65-6.39c-108.95-80.12-282.16-355.72-191.61-488.92 26.13-38.43 72.14-98.35 38.32-144.39 0-59.68 27.91-110.08 35.59-168.16 4.7-35.6 21.48-115.03 2.73-147.13-0.49-9.02-5.18-26.28-11.86-31.98-4.46-10.75-15.04-14.59-20.07-24.68-131.36-87.25-141.43-207.27-141.43-351.84 24.34-9.03 38.64-36.75 53.83-56.66 62.41-81.74 122.66-59.4 209.86-59.4 36.49-20.54 85.83-27.77 119.53-51.18 26.89-1.65 54.3-13.06 82.12-15.53 72.28-6.42 167.93-4.1 239.97 5.48l-8.24 461.5c-6.1 31.02-26.82 57.35-33.73 86.82-20.59 24.74-27.89 63.42-42.89 91.39-48.87 91.09-54.85 188.35-86.68 284.21 6.41 84.09-18.29 111.75-45.62 183.69-9.74 25.62-54.43 151.31-70.26 161.75v1.83c157.52 0 315.56-19.9 466.25-82.25 37.58-15.55 109.06-53 145.08-27.41 44.05 31.31 57.49 8.22 104.02 11.88 47.06 3.71 64.02 87.81 100.36 110.58 51.17 32.05 213.78-15.7 202.56 72.19-4.73 37.04-19.16 74.42-19.16 111.49 0 40.89 45.68 66 48.36 101.44 1 12.16 1.7 23.82 3.65 35.64 1.56 9.52 7.56 16.11 10.95 23.76 3.04 1.14 2.93 1.81 6.39 2.75 3.87 6.79 14.56 11.58 20.98 14.62 6.89 3.25 9.32 1.34 16.42 2.74 6.1 1.21 11.65 2.74 18.25 2.74l36.5-0.91c27.38-2.3 118.62-20.81 118.62 9.14-21.72 16.26-35.51 67.41-18.25 90.47 24.46 32.66 22.82 44.82 12.77 84.07-9.28 36.28-18.89 152.9 41.06 143.48 30.79-4.84 59.14-24.48 90.33-29.24 57.13-8.71 102.95 1.49 160.59-19.19 20.52-7.36 87.45-41.31 106.75-30.16 5.44 3.15 64.78 209.73 64.78 235.78z" fill="#e28818"></path>
		</a>
		<a aria-hidden="true" xlink:href="/find-my-legislator/by-county?county=COLUMBIA">
			<path d="m18061 8678.4c0 10.62 0.82 35.49 6.39 43.87 0 31.29 15.49 63.99 25.55 94.12 13.12 11.35 15.05 64.94 15.51 83.17l2.73 108.75c15.51 37.8 14.77 73.69 23.73 111.49 11.34 47.89 34.45 49.26 66.6 74.02 31.67 0 76.08 25.38 109.5 31.99 98.18 19.41 35.24 230.04 52.92 300.66 21.6 28.26 37.11 63.77 63.87 87.73 37.83 33.86 76.4 75.64 109.49 115.15 30.62 36.54 88.57 70.65 51.09 120.63-54.88 16.52-61.99 70-55.65 119.72 2.91 22.88 12.77 45.32 12.77 68.54 0 27.16-14.6 51.82-14.6 80.42l-3.65 96.87c27.38-2.3 118.62-20.81 118.62 9.14-21.72 16.26-35.51 67.41-18.25 90.47 24.46 32.66 22.82 44.82 12.77 84.07-9.28 36.28-18.89 152.9 41.06 143.48 30.79-4.84 59.14-24.48 90.33-29.24 57.13-8.71 102.95 1.49 160.59-19.19 20.52-7.36 87.45-41.31 106.75-30.16 5.44 3.15 64.78 209.73 64.78 235.78l60.22 109.66 311.14-147.13 86.68-440.49 340.34-391.13-97.64-551.9v-500.88h-204.41l-168.76-392.96 29.19-583.39h-416.39l-177.63 177.63-633.2 699.11z" fill="#9b9b9b"></path>
		</a>
		<a aria-hidden="true" xlink:href="/find-my-legislator/by-county?county=LACKAWANNA">
			<path d="m21980 5893.8 1131.7 6.69 80.05 2187.5c-13.2 15.93-28.73 19.07-45.62 28.33-16.85 9.25-39.74 10.11-56.57 18.28-10.84 5.25-23.55 12.02-34.68 16.45-17.67 7.05-38.34 14.64-52.92 25.59-5.94 4.45-12.46 15.19-18.24 17.36-1.82 4.56-3.52 6.83-6.39 11.88l-73.91 58.49c-10.61 16.54-22.81 33.83-36.5 47.52-19.41 0-31.71-13.42-42.88-28.33-12.06-16.11-19.11-20.11-39.23-20.11-46.99 0-64.85 64.76-89.42 95.05l-1.83 1.82c-19.99 28.19-37.72 60.83-58.39 89.56-15.3 21.25-23.73 54.91-31.94 79.51-7.59 5.71-9.78 16.79-19.16 22.85-6.45 4.18-13.26 9.84-19.16 14.62-17.61 14.24-26.97 29.6-41.97 45.69l-47.45-36.55c-14.26-10.27-22.48-12.35-40.14-14.62-8.53-1.1-38.46-2.86-44.71 1.82-14.22 0-24.61-2.25-37.41-4.57l-4.56-2.74c-6.6-8.24-18.53-15.29-22.81-25.59-4.63-11.11-7.75-22.59-9.13-34.72v-358.24c-5.46-13.72-14.24-45.93-31.93-48.43-5.55-9.71-27.54-13.84-37.41-20.11-14.82-9.4-30.36-22.21-45.62-31.07-30.15-17.5-31.01-76.26-39.24-106.01-6.11-22.06-15.52-39.58-24.63-60.32-12.83-29.18-25.95-46.89-15.52-80.42 7.39-29.37 44.55-180.94-14.59-180.94-16.23-14.23-83.72-2.06-107.67-2.74-39.42-1.11-79.89-19.28-106.76-48.44-47.98-52.09-118.33-117.89-184.31-146.22-23.06-9.89-115.63-56.12-127.74-71.28-5.6-0.61-8.64-3.78-11.86-8.22-20.72-5.2-37.25-24.23-60.24-27.92l5.45-172.22 58.44-116.98c61.52-49.97 91.71-132.17 134.13-195.56 39.29-58.73 117.63-138.02 38.32-201.05-44.25-35.18-77.73-42.53-61.13-105.1 4.77-3.59 8.61-11.81 13.69-13.71 3.2-5.15 6.72-8.8 10.94-13.71 22.77-45.29 53.53-76.75 66.61-127.94 13.76-53.87 1.93-95.99 31.02-145.3 17.35-29.39 56.6-74.06 62.96-106.01 20.7-17.72 42.08-83.19 58.4-109.67 15.94-25.85 57.22-72.46 51.96-104.18z" fill="#9b9b9b"></path>
		</a>
		<a aria-hidden="true" xlink:href="/find-my-legislator/by-county?county=LUZERNE">
			<path d="m22328 8866.6 195.26-254.06-47.45-36.55c-14.26-10.27-22.48-12.35-40.14-14.62-8.53-1.1-38.46-2.86-44.71 1.82-14.22 0-24.61-2.25-37.41-4.57l-4.56-2.74c-6.6-8.24-18.53-15.29-22.81-25.59-4.63-11.11-7.75-22.59-9.13-34.72v-358.24c-5.46-13.72-14.24-45.93-31.93-48.43-5.55-9.71-27.54-13.84-37.41-20.11-14.82-9.4-30.36-22.21-45.62-31.07-30.15-17.5-31.01-76.26-39.24-106.01-6.11-22.06-15.52-39.58-24.63-60.32-12.83-29.18-25.95-46.89-15.52-80.42 7.39-29.37 44.55-180.94-14.59-180.94-16.23-14.23-83.72-2.06-107.67-2.74-39.42-1.11-79.89-19.28-106.76-48.44-47.98-52.09-118.33-117.89-184.31-146.22-23.06-9.89-115.63-56.12-127.74-71.28-5.6-0.61-8.64-3.78-11.86-8.22-20.72-5.2-37.25-24.23-60.24-27.92l5.45-172.22-720.81 237.61-1200.8 23.76-132.27 407.24-29.19 583.39 168.76 392.96h204.41v500.88l97.64 551.9 772.78 275.99 157.89-67.63c4.59-2.89 12.33-9.52 18.25-10.05 5.72-6.44 28.16-15.81 36.5-17.37 50.79-43 198.69-77.74 262.78-114.23l346.72-197.39c120.32-68.5 254.94-110.09 375.92-182.78 91.93-10.47 50.31-193.53-21.9-200.14-50.48-61.81-65.2-95.26-74.82-177.29-16.14-137.63 98.5-163.13 196.18-212.01 49.37-24.71 86.46-83.33 135.04-113.32 23.46-14.47 46.12-33.31 72.08-42.95 19.78-7.35 33.86 12.27 50.18 15.53l25.55 27.42z" fill="#6ba0dc"></path>
		</a>
		<a aria-hidden="true" xlink:href="/find-my-legislator/by-county?county=BRADFORD">
			<path d="m20167 3846.4 137.82 2041.9-363.15 1.83-91.28 570.25-2527.4-237.6-264.59-47.52-248.08-2330 79.66-4.59 2756.7-6.74z" fill="#9b9b9b"></path>
		</a>
		<a aria-hidden="true" xlink:href="/find-my-legislator/by-county?county=WYOMING">
			<path d="m19593 7394.4 1200.8-23.76 720.81-237.61 58.44-116.98c61.52-49.97 91.71-132.17 134.13-195.56 39.29-58.73 117.63-138.02 38.32-201.05-44.25-35.18-77.73-42.53-61.13-105.1 4.77-3.59 8.61-11.81 13.69-13.71 3.2-5.15 6.72-8.8 10.94-13.71 22.77-45.29 53.53-76.75 66.61-127.94 13.76-53.87 1.93-95.99 31.02-145.3 17.35-29.39 56.6-74.06 62.96-106.01 20.7-17.72 42.08-83.19 58.4-109.67 15.94-25.85 57.22-72.46 51.96-104.18l-1675.2-5.48-363.15 1.83-91.28 570.25z" fill="#e28818"></path>
		</a>
		<a aria-hidden="true" xlink:href="/find-my-legislator/by-county?county=SUSQUEHANNA">
			<path d="m23013 3857.1 98.79 2043.4-1131.7-6.69-1675.2-5.48-137.82-2041.9 519.5 12.45 1343.2-18.2 555.31-3.99 162.42 21.02z" fill="#6ba0dc"></path>
		</a>
		<a aria-hidden="true" xlink:href="/find-my-legislator/by-county?county=SULLIVAN">
			<path d="m17323 6222.8 248.17 1016.2 656.95 561.11 638.69 179.12 177.63-177.63h416.39l132.27-407.24 257.3-933.98z" fill="#c6cedc"></path>
		</a>
		<a aria-hidden="true" xlink:href="/find-my-legislator/by-county?county=MIFFLIN">
			<path d="m14973 10630v621.66l246.35 23.49-846.72 464.25-1.82 157.18-510.96 371.03-1.82 157.19-339.42 343.61-239.06 307.06-140.51 30.16c-22.74 8.56-52.58 2.67-77.55 10.97-25.36 8.44-48.45 23.8-73.91 31.07-47.75 13.65-112.66-43.31-164.23-51.18-33.44-5.11-48.05-60.33-54.75-88.65-15.05-63.52-34.08-40.42-68.43-80.42-25.4-29.59-49.31-107.39-37.41-146.21 6.32-20.65 26.82-32.04 33.76-51.18 5.57-0.8 19-23.42 21.9-28.33l166.97-199.22c43.69-52.13 101.94-92.93 111.32-166.33 5.92-46.4-24.3-74.76-37.41-114.23-3.77-2.84-5.96-7.38-7.3-11.88-14.99-10.73-28.29-81.39-28.29-100.53 0-42.81 7.26-64.43 18.25-104.18 12.14-48.45 23.74-64.86 54.75-105.09 16.73-21.69 61.43-91.13 82.12-101.44 31.92-64.11 126.36-120.72 180.65-163.59 57.32-45.28 132.47-101.23 173.36-162.66 25.8-16.45 61.17-62.32 78.47-88.65 16.79-25.53 48.61-27.94 43.8-62.14-26.06-9.85-78.47 26.79-78.47-23.76 0-39.14 24.14-81.17 49.27-108.75 14.4-15.79 34.35-29.29 52.01-40.21 38.92-24.09 17.39-32.75 16.42-68.54l1378.7-695.46z" fill="#6ba0dc"></path>
		</a>
		<a aria-hidden="true" xlink:href="/find-my-legislator/by-county?county=PERRY">
			<path d="m16752 11617-47.48 187.34c-2.16 71.68-87.41 88.46-125.92 133.43-40.5 47.28-24.83 70.84-18.24 131.6 4.58 42.32 16.42 72.93 16.42 118.8 0 66.4 3.65 111.78 58.39 155.36 22.52 17.94 52.67 35.08 71.17 56.66 11.68 13.64 37.78 64.52 49.27 69.45 4.54 54.69 19.42 55.46-20.07 98.7-42.58 46.64-111.11 77.12-164.24 116.97-55.68 41.78-19.68 111.81-43.79 166.33-19.99 25.6-30.94 43.27-62.02 59.4-48.27 25.04-96.08 50.32-69.34 116.06 38.83 95.48 52.66 157.19 172.45 157.19 50.61 0 98.69-13.71 148.72-13.71 37.55 0 56.18 15.96 86.69 27.41 13.84 25.06 33.89 47.31 45.62 77.68l15.49 76.77-379.57 113.32-958.03 91.38c-99.45 17.7-200.31 75.84-299.28 98.7-100.82 23.28-104.44-46.31-142.34-111.49-23.09-39.69-78.21 35.94-93.98 47.52l-187.96 137.99c-99.54 73.08-95.84-50.92-29.19-100.52 40.8-30.35 196.13-172.34 168.8-220.24-113.45-16.3-214.72 121.94-302.93 182.77-27.6 19.04-94.92 53.04-110.4 78.59-128.72 96.54-260.54 287.87-436.14 287.87-3.98 2.99-7.84 1.96-11.87 5.48-71.73 6.58-126.84 198.78-201.64 217.51-3.81 4.29-5.86 4.33-12.78 8.22l-26.46-55.75c-9.05-73.24 51.98-95.59 73-159.01 28.18-85.06-29.55-108.13-93.98-60.31-14.32 10.62-24.87 26.5-43.8 26.5-1.89-2.65-1.26-2.34-4.56-2.74-42.85-64.75-8.28-154.43-44.71-209.28-27.16 0-53.8 5.48-80.29 5.48-1.08-1.35-1.43-2.09-2.74-2.74 0-22.91 8.37-38.86 18.25-57.57 12.8-24.27-2.06-29.65-10.95-50.26l-17.34-93.22 471.73-450.54 94.89-23.76 3.65-140.73 136.86-98.7 895.99-537.35 514.6-241.27c57.09-56.96-14.59-83.14-14.59-127.94 9.96 0 28.8-10.96 47.44-10.96 20.3 0 54.84 4.9 72.99-1.83 41.64-15.46 116.89-22.24 162.41-27.42 117.79-13.43 242.17-61.42 357.67-67.62 25.98-1.39 147.13-53.28 153.29-74.94 14.22 0 37.26-25.64 46.53-34.73z" fill="#c6cedc"></path>
		</a>
		<a aria-hidden="true" xlink:href="/find-my-legislator/by-county?county=UNION">
			<path d="m16949 8742.3c0 144.57 10.07 264.59 141.43 351.84 5.03 10.09 15.61 13.93 20.07 24.68 6.68 5.7 11.37 22.96 11.86 31.98 18.75 32.1 1.97 111.53-2.73 147.13-7.68 58.08-35.59 108.48-35.59 168.16 33.82 46.04-12.19 105.96-38.32 144.39-90.55 133.2 82.66 408.8 191.61 488.92l3.65 6.39 47.44 63.06-84.85 4.57c-80.87 6.13-144.24-2.01-223.55 15.53-92.31 20.42-164.02-45.15-247.26-2.74-55.94 28.49-121.35 81.23-187.05 74.03-81.36-8.91-97.31 68.54-177.01 68.54-9.68-17.45-63.6-56.7-83.96-63.06l-1312.1 363.76v-244.96l410.61-423.12 159.67-260.45 335.77-389.31 2.74-169.06 182.49 0.91 158.76-95.04h372.3l75.7-325.34z" fill="#c6cedc"></path>
		</a>
		<a aria-hidden="true" xlink:href="/find-my-legislator/by-county?county=SNYDER">
			<path d="m14973 10630 1312.1-363.76c20.36 6.36 74.28 45.61 83.96 63.06 79.7 0 95.65-77.45 177.01-68.54 65.7 7.2 131.11-45.54 187.05-74.03 83.24-42.41 154.95 23.16 247.26 2.74 79.31-17.54 142.68-9.4 223.55-15.53l84.85-4.57h68.46v203.79c-2.78 5.71-6.64 17.09-11.89 21.02-8.45 20.39-27.42 28.61-37.4 45.69-15.73 26.89-40.7 49.37-58.4 74.94-12.16 17.55-36.03 60.01-51.1 71.28-6.18 19.9-25.28 44.48-34.67 64.89-10.64 23.1-13 55.5-18.25 80.42v417.64c-29.24 55.16-68.95 103.66-110.4 149.87-22.25 24.82-39.1 49.25-62.96 73.11-17.82 17.82-43.84 38.11-55.66 60.32-20.61 11.23-42.62 45.36-56.57 63.97l-73.51 82.7-100.79-43.41c-39.94 0-60.53 50.96-110.41 49.35-26.61-0.86-84.12-4.66-99.45-29.24-46.35-74.27 10.6-98.87-99.45-108.75-36.31-79.6-16.04-97.57-120.44-89.56-68.15 5.22-160.35 24.22-196.17-47.52-16.49-33.05-26.94-53.54-62.05-28.33-28.41 20.41-93.67 93.67-127.73 77.68l-650.56-84.08-246.35-23.49z" fill="#9b9b9b"></path>
		</a>
		<a aria-hidden="true" xlink:href="/find-my-legislator/by-county?county=JUNIATA">
			<path d="m13279 13075 239.06-307.06 339.42-343.61 1.82-157.19 510.96-371.03 1.82-157.18 846.72-464.25 650.56 84.08c34.06 15.99 99.32-57.27 127.73-77.68 35.11-25.21 45.56-4.72 62.05 28.33 35.82 71.74 128.02 52.74 196.17 47.52 104.4-8.01 84.13 9.96 120.44 89.56 110.05 9.88 53.1 34.48 99.45 108.75 15.33 24.58 72.84 28.38 99.45 29.24 49.88 1.61 70.47-49.35 110.41-49.35l100.79 43.41-34.15 38.84-174.31 75.85c-9.27 9.09-32.31 34.73-46.53 34.73-6.16 21.66-127.31 73.55-153.29 74.94-115.5 6.2-239.88 54.19-357.67 67.62-45.52 5.18-120.77 11.96-162.41 27.42-18.15 6.73-52.69 1.83-72.99 1.83-18.64 0-37.48 10.96-47.44 10.96 0 44.8 71.68 70.98 14.59 127.94l-514.6 241.27-895.99 537.35-136.86 98.7-3.65 140.73-94.89 23.76-471.73 450.54-130.47 119.72z" fill="#e28818"></path>
		</a>
		<a aria-hidden="true" xlink:href="/find-my-legislator/by-county?county=ADAMS">
			<path d="m15943 14768c3.31 2.05 6.42 4.03 10.04 5.48 23.47 53 111.08 66.13 148.73 106.01 40.54 42.92 74.81 83.62 108.58 134.34 56.56 84.98 147.55 48.78 207.12 127.03 49.3 64.74 96.67 143.65 130.47 218.41 14.63 73.14 62.71 130.31 73 204.71 7.89 56.99 9.42 103.82-31.03 148.96-52.37 58.46 15.73 163.16 62.05 200.14 29.59 23.61 45.33 69.72 35.58 106-7.77 28.9-69.77 37.35-83.94 65.8-8.53 2.32-20.96 17.34-28.28 24.68l-58.4 63.97 0.36 632.96-2010-0.13-34.23-1264.3 93.07-124.29c10.56-0.65 7.61-1.88 14.6-2.74 4.13-3.79 7.63-6.08 12.77-8.23 26.48-35.31 81.36-76.19 114.97-106.92 15.21-13.92 26.32-31.9 41.97-44.78 59.16-48.67 122.97-68.5 195.26-88.64 81.9-22.83 161.45-52.7 247.27-63.98l499.1-68.54z" fill="#e28818"></path>
		</a>
		<a aria-hidden="true" xlink:href="/find-my-legislator/by-county?county=CUMBERLAND">
			<path d="m13868 14190c6.92-3.89 8.97-3.93 12.78-8.22 74.8-18.73 129.91-210.93 201.64-217.51 4.03-3.52 7.89-2.49 11.87-5.48 175.6 0 307.42-191.33 436.14-287.87 15.48-25.55 82.8-59.55 110.4-78.59 88.21-60.83 189.48-199.07 302.93-182.77 27.33 47.9-128 189.89-168.8 220.24-66.65 49.6-70.35 173.6 29.19 100.52l187.96-137.99c15.77-11.58 70.89-87.21 93.98-47.52 37.9 65.18 41.52 134.77 142.34 111.49 98.97-22.86 199.83-81 299.28-98.7l958.03-91.38 379.57-113.32c2.14 23.26 2.14 62.76-12.76 81.33-2.69 32.87-16.7 54.71-10.95 90.47 5.35 33.34 23.93 65.61 32.85 97.79 9.63 8.22 17.26 31.52 27.38 42.95 37.78 42.69 69.26 98.64 114.96 135.25l91.24 121.55-97.63 52.09c-33.1 6.58-86.12-19.72-115.87-7.31-31.93 13.31-53.68 71.31-45.63 105.09 4.54 19.04 26 30.36 23.73 51.18-15.44 13.17-54.45 40.37-42.89 64.88 4.84 10.25 45.95 45.22 35.59 53.01-7.41 37.55-131.72 11.66-158.76 14.62-55.52 6.08-95.7 13.21-124.09 63.06-43.22 15.1-104.4 37.17-149.64 40.21-21.29 12.39-50.32 16.62-71.17 31.07-35.36 4.7-56.69 40.27-85.77 54.83-38.73 51.77-112.5 84.56-148.73 138.91-38.29 19.14-122.74 112.79-150.55 149.87-9.29 4.68-28.23 25.61-33.76 34.73l-250.91 265.93-499.1 68.54c-85.82 11.28-165.37 41.15-247.27 63.98-72.29 20.14-136.1 39.97-195.26 88.64-15.65 12.88-26.76 30.86-41.97 44.78-33.61 30.73-88.49 71.61-114.97 106.92-5.14 2.15-8.64 4.44-12.77 8.23-6.99 0.86-4.04 2.09-14.6 2.74l-76.64-144.39c-23.73-13.22-45.26-41.9-71.17-54.83-55.12-73.63-118.57-166.34-125.92-261.37-14.15-24.39-9.41-61.11-27.37-83.16-40.33-60.72-52.15-142.67-103.1-200.14-52.36-59.07-39.99-163.49-90.33-207.45-36.22-31.64-93.37-56.39-121.36-94.13-29.12-39.24-70.19-110.3-74.82-160.84-4.57-5.72-5.93-14.81-7.3-21.93z" fill="#9b9b9b"></path>
		</a>
		<a aria-hidden="true" xlink:href="/find-my-legislator/by-county?county=YORK">
			<path d="m17708 14507c3.97 4.52 6.26 8.63 10.97 10.99 4.83 8.7 27.31 31.95 35.63 37.53 8.76 20.94 26.78 43.89 42.05 60.4 14.79 16.02 23.6 35.38 35.64 53.1 14.65 21.58 32.05 46.85 50.26 65.9 19.05 19.91 42.89 42.01 57.58 64.08 98.56 70.46 153.26 57.32 268.68 82.37 55 11.94 99.9 31.13 159.01 31.13 51.62 0 76.68-42.64 131.6-36.62 2.56 2.25 4.54 4.44 7.31 5.49 31.32 49.23 20.34 118.23 57.58 171.17 69.3 98.48 86.19 145.81 114.24 261.78 29.79 123.16 71.41 177.91 180.03 240.73 77.77 61.82 196.27 107.08 289.7 138.22 38.2 84.47 18.61 211.38 66.71 283.75 27.65 41.6 69.04 76.43 97.79 119.9 30 45.4 45.49 89.57 85.9 129.98 5.2 5.37 6.74 8.39 11.91 10.97 10.35 20.78 40.41 44.1 55.66 63.06 31.9 39.69 60.15 95.51 104.93 119.71 67.85 36.66 95.54 134.2 135.95 195.57 34.06 51.73 58.16 129.76 64.85 190.86l-3255.2-0.21-0.36-632.96 58.4-63.97c7.32-7.34 19.75-22.36 28.28-24.68 14.17-28.45 76.17-36.9 83.94-65.8 9.75-36.28-5.99-82.39-35.58-106-46.32-36.98-114.42-141.68-62.05-200.14 40.45-45.14 38.92-91.97 31.03-148.96-10.29-74.4-58.37-131.57-73-204.71-33.8-74.76-81.17-153.67-130.47-218.41-59.57-78.25-150.56-42.05-207.12-127.03-33.77-50.72-68.04-91.42-108.58-134.34-37.65-39.88-125.26-53.01-148.73-106.01-3.62-1.45-6.73-3.43-10.04-5.48 5.53-9.12 24.47-30.05 33.76-34.73 27.81-37.08 112.26-130.73 150.55-149.87 36.23-54.35 110-87.14 148.73-138.91 29.08-14.56 50.41-50.13 85.77-54.83 20.85-14.45 49.88-18.68 71.17-31.07 45.24-3.04 106.42-25.11 149.64-40.21 28.39-49.85 68.57-56.98 124.09-63.06 27.04-2.96 151.35 22.93 158.76-14.62 10.36-7.79-30.75-42.76-35.59-53.01-11.56-24.51 27.45-51.71 42.89-64.88 2.27-20.82-19.19-32.14-23.73-51.18-8.05-33.78 13.7-91.78 45.63-105.09 29.75-12.41 82.77 13.89 115.87 7.31l97.63-52.09 88.51 24.67c10.07 18.15 24.53 48.44 38.32 65.8 32.17 40.46 110.67 20.32 151.46 65.8 38.22 42.63 67.62 57.77 120.44 74.94 150.08 48.78 37.76 224.27 118.62 312.54z" fill="#c6cedc"></path>
		</a>
		<a aria-hidden="true" xlink:href="/find-my-legislator/by-county?county=FULTON">
			<path d="m11779 16807 118.61-212.28 144.17-227.56c46.28-73.05 129.7-148.7 161.5-224.81 26.08-18.94 61.48-119.04 72.99-149.87 22.3-59.67 61.45-130.26 64.78-194.66l6.39-8.22 70.26-232.12c18.03-59.57 48.07-195.74 85.77-240.35 20.56-82.55 79.22-189.57 131.38-254.06l182.5-244-98.54-87.73c-88.53-78.82-216.88-192.69-337.6-213.84-144.76-25.37-285.53-34.74-427.01-73.11-80.91-21.95-140.58-88.86-209.86-109.67-16.5-29.68-68.5-37.57-93.07-62.14l-21.88-1.83c-5.24 25.97-27.49 40.35-39.26 63.06-49.42 95.38-79.39 215.12-177.02 279.64-35.26 23.29-92.91 56.57-104.01 98.7-19.94 75.62 60.3 60.54 83.03 102.35 40.25 15.15 4.32 96.06-10.04 116.98-9.37 7.94-26.76 20.82-39.23 21.93-4.52 3.52-10.51 5.86-12.78 10.97-16.09 4.6-15.54 148.9-22.81 174.55-15.22 53.65-62.52 101.18-75.73 154.44-29.32 25.09-60.45 112.84-70.26 151.7-7.79 30.84-21.38 61.1-35.58 89.56-15.91 31.91-18.97 69.9-34.67 101.44-30.09 49.27-39.12 121.72-57.48 177.29-23.21 70.29-61.36 139.47-81.21 209.28-36.8 43.48-61.27 137.09-84.86 191.91l-88.5 205.62c-6.91 17.04-17.05 31.39-25.55 47.52-7.4 14.02-14.22 36.59-26.46 46.61-7.28 17.33-25.89 34.16-38.32 48.43-38.2 43.88-63.81 102.28-100.37 148.05l-41.06 96.14h0.02z" fill="#9b9b9b"></path>
		</a>
		<a aria-hidden="true" xlink:href="/find-my-legislator/by-county?county=FRANKLIN">
			<path d="m13651 13624c8.89 20.61 23.75 25.99 10.95 50.26-9.88 18.71-18.25 34.66-18.25 57.57 1.31 0.65 1.66 1.39 2.74 2.74 26.49 0 53.13-5.48 80.29-5.48 36.43 54.85 1.86 144.53 44.71 209.28 3.3 0.4 2.67 0.09 4.56 2.74 18.93 0 29.48-15.88 43.8-26.5 64.43-47.82 122.16-24.75 93.98 60.31-21.02 63.42-82.05 85.77-73 159.01l26.46 55.75c1.37 7.12 2.73 16.21 7.3 21.93 4.63 50.54 45.7 121.6 74.82 160.84 27.99 37.74 85.14 62.49 121.36 94.13 50.34 43.96 37.97 148.38 90.33 207.45 50.95 57.47 62.77 139.42 103.1 200.14 17.96 22.05 13.22 58.77 27.37 83.16 7.35 95.03 70.8 187.74 125.92 261.37 25.91 12.93 47.44 41.61 71.17 54.83l76.64 144.39-93.07 124.29 34.23 1264.3-2727.7-0.17 118.61-212.28 144.17-227.56c46.28-73.05 129.7-148.7 161.5-224.81 26.08-18.94 61.48-119.04 72.99-149.87 22.3-59.67 61.45-130.26 64.78-194.66l6.39-8.22 70.26-232.12c18.03-59.57 48.07-195.74 85.77-240.35 20.56-82.55 79.22-189.57 131.38-254.06l182.5-244c9.86-8.23 5.71-2.43 8.2-9.14 15.15-10.79 42.06-115.27 52.92-138.9 39.6-86.08 74.3-177.29 121.36-259.54l89.41-156.27c28.78-50.31 68.44-113.47 90.33-166.33 16.58-21.87 39.05-64.21 45.63-90.47 54.18-84.03 94.61-176.55 169.71-244.92l108.58-102.35 130.47-119.72z" fill="#6ba0dc"></path>
		</a>
		<a aria-hidden="true" xlink:href="/find-my-legislator/by-county?county=SOMERSET">
			<path d="m9403.6 13793-319.65 853.55c3.64 20.48 3.9 37.45-2.77 57.58-6.31 19.07-16.18 29.64-25.55 45.69-6.41 2.41-51.89 42.13-54.74 48.44-10.03 4.55-19.04 20.9-27.38 29.24-11.66 11.66-18.93 22.08-27.37 36.56v1330.5l-215.86 611.53-2505.6-0.16c0-31.28 3.28-73.04-7.65-100.44-6.45-3.22-9.53-16.26-17.33-17.36-7.35-13.24-21.21-16.44-27.38-37.47-4.66-15.91 8.21-26.88 15.51-39.3 14.62-24.84 18.73-54.47 44.71-68.54 11.12-6.01 53.19-18.46 56.57-30.16 9.13-31.54-39.01-39.8-37.41-71.28 4.05-32.14 78.38-29.05 100.37-41.12 28.51-15.66 4.79-60.66 0.91-84.08-4.08-24.69 1.21-50.33-5.47-74.02-10.33-36.57-22.99-62.02-52.01-86.82-30.25-25.87-104.16-67.88-121.35-102.35-69.72-38.19-31.54-119.02-26.42-172.72l494.49-909.3 63.87-97.79c66.8-66.8 52.26-179.43 162.41-209.27 29.15-7.9 60.74-12.8 79.39-39.3 20.39-28.99 34.04-58.68 53.83-85.9 29.03-2.66 33.76-4.06 62.96 11.88 19.58 10.7 47.18 38.29 67.52 12.79 35-43.85 52.1-78.27 74.62-130.68v-145.31h76.83v-114.23h63.88c6.73-16.06 41.7-87.06 54.74-96.87 19.81-59.34 67.26-125.72 96.72-182.77 35.21-68.2 61.13-151.74 109.49-212.02 22.58-28.13 53.03-73.48 62.05-108.75h533.89c22.32 17.68 45.77 24.26 69.22 37.47 50.27 28.31 128.95 77.94 135.04 139.82 6.7 4.78 7.9 17.26 16.43 20.1 4.8 9.65 13.74 16.05 21.89 22.85z" fill="#e28818"></path>
		</a>
		<a aria-hidden="true" xlink:href="/find-my-legislator/by-county?county=BLAIR">
			<path d="m11459 11714c-27.41 40.83-26.46 101.13-26.46 148.96 0 47.11-67.15 77.71-73.91 130.68-4.96 38.82 24.92 65.64 40.15 98.7 24.88 54.03 46.86 130.83 117.7 56.66 23.15-24.25 71.49-148.96 104.01-148.96 0.44-2.63 0.08-1.83 2.74-1.83 8.42 51.31-23.91 109.17-44.71 156.28-22.04 49.94-53.99 195.17-29.19 244.91 32.14 64.48 59.6-28.31 91.24-21.02 10.41 2.4 9.73 89.64 6.38 100.53l-420.62 779.53-139.63 267.76-135.96 285.13-654.21-330.85v337.25l-276.46-245.83-467.16-229.39 43.79-104.18c10.01-13.35 25.69-21.71 35.59-33.81 9.83-3.57 24.16-10.78 31.93-17.36 9.94-1.99 39.54-16.38 48.36-22.85 19.91-2.48 42.7-15.9 62.96-21.02 19.77-4.99 34.31-19.69 52.01-25.59 3.66-4.13 7.04-5.75 12.77-10.05-16.31-57.28-16.42-128.2-16.42-188.26 0-48.42-13.21-95.61-20.99-142.56-20.03-120.95 28-151.79 68.43-255.88 26.71-68.79 9.18-96.56 9.18-162.67 42.03-102.71 125.39-163.64 205.29-238.52 89.82-84.16 142.08-158.65 193.43-269.59 26.1-56.41 0.23-117.03 18.25-165.41-1.32-0.45-1.52 0.23-2.74 0.91 6.74-29.02-12.52-78.63 2.74-104.18 0-44.37 86.06-29.2 113.14-25.59 54.46 7.25 77.53-41.6 98.54-83.16l145.08-286.95c10.47-20.73 19.28-60.07 31.02-77.68l2.05-23.73 989.74-73.14c-23.73 71.29-124.45 119.05-178.83 167.23-98.28 87.1-229.02 89.57-229.02 253.15 0 48.46 54.8 65.42 77.56 102.35 19.34 31.36 46.37 90.31 87.59 97.78 22.22 25.02 21.74 47.61 24.64 82.25z" fill="#e28818"></path>
		</a>
		<a aria-hidden="true" xlink:href="/find-my-legislator/by-county?county=HUNTINGDON">
			<path d="m11677 11011 770.08 275.98 368.62-235.77 11.86-0.92c10.4-15.66 88.48-41.92 107.67-45.69 142.97-28.08 202.3 160.78 322.99 114.23 32.95-12.7 129.29-73.6 150.55-22.84 32.69 78.01 76.85 14.25 124.09-5.49l61.13-10.96c0.97 35.79 22.5 44.45-16.42 68.54-17.66 10.92-37.61 24.42-52.01 40.21-25.13 27.58-49.27 69.61-49.27 108.75 0 50.55 52.41 13.91 78.47 23.76 4.81 34.2-27.01 36.61-43.8 62.14-17.3 26.33-52.67 72.2-78.47 88.65-40.89 61.43-116.04 117.38-173.36 162.66-54.29 42.87-148.73 99.48-180.65 163.59-20.69 10.31-65.39 79.75-82.12 101.44-31.01 40.23-42.61 56.64-54.75 105.09-10.99 39.75-18.25 61.37-18.25 104.18 0 19.14 13.3 89.8 28.29 100.53 1.34 4.5 3.53 9.04 7.3 11.88 13.11 39.47 43.33 67.83 37.41 114.23-9.38 73.4-67.63 114.2-111.32 166.33l-166.97 199.22c-2.9 4.91-16.33 27.53-21.9 28.33-6.94 19.14-27.44 30.53-33.76 51.18-11.9 38.82 12.01 116.62 37.41 146.21 34.35 40 53.38 16.9 68.43 80.42 6.7 28.32 21.31 83.54 54.75 88.65 51.57 7.87 116.48 64.83 164.23 51.18 25.46-7.27 48.55-22.63 73.91-31.07 24.97-8.3 54.81-2.41 77.55-10.97l140.51-30.16 224.46 575.74-108.58 102.35c-75.1 68.37-115.53 160.89-169.71 244.92-6.58 26.26-29.05 68.6-45.63 90.47-21.89 52.86-61.55 116.02-90.33 166.33l-89.41 156.27c-47.06 82.25-81.76 173.46-121.36 259.54-10.86 23.63-37.77 128.11-52.92 138.9-2.49 6.71 1.66 0.91-8.2 9.14l-98.54-87.73c-88.53-78.82-216.88-192.69-337.6-213.84-144.76-25.37-285.53-34.74-427.01-73.11-80.91-21.95-140.58-88.86-209.86-109.67-16.5-29.68-68.5-37.57-93.07-62.14l-21.88-1.83-447.09-344.52c0-69.02-25.34-226.74-44.7-292.45-5.44-18.5-14.1-38.44-15.51-58.48-15.19-13.05-12.15-38.62-35.62-48.44l139.63-267.76 420.62-779.53c3.35-10.89 4.03-98.13-6.38-100.53-31.64-7.29-59.1 85.5-91.24 21.02-24.8-49.74 7.15-194.97 29.19-244.91 20.8-47.11 53.13-104.97 44.71-156.28-2.66 0-2.3-0.8-2.74 1.83-32.52 0-80.86 124.71-104.01 148.96-70.84 74.17-92.82-2.63-117.7-56.66-15.23-33.06-45.11-59.88-40.15-98.7 6.76-52.97 73.91-83.57 73.91-130.68 0-47.83-0.95-108.13 26.46-148.96-2.9-34.64-2.42-57.23-24.64-82.25-41.22-7.47-68.25-66.42-87.59-97.78-22.76-36.93-77.56-53.89-77.56-102.35 0-163.58 130.74-166.05 229.02-253.15 54.38-48.18 155.1-95.94 178.83-167.23z" fill="#c6cedc"></path>
		</a>
		<a aria-hidden="true" xlink:href="/find-my-legislator/by-county?county=CAMBRIA">
			<path d="m9880.5 12359c0 66.11 17.53 93.88-9.18 162.67-40.43 104.09-88.46 134.93-68.43 255.88 7.78 46.95 20.99 94.14 20.99 142.56 0 60.06 0.11 130.98 16.42 188.26-5.73 4.3-9.11 5.92-12.77 10.05-17.7 5.9-32.24 20.6-52.01 25.59-20.26 5.12-43.05 18.54-62.96 21.02-8.82 6.47-38.42 20.86-48.36 22.85-7.77 6.58-22.1 13.79-31.93 17.36-9.9 12.1-25.58 20.46-35.59 33.81l-43.79 104.18-80.3 58.49c-27.18 27.27-34.67 56.09-31.02 93.22 2.71 27.55 0.03 49.87-17.34 72.19-5.1 93.29 69.68 150.09-20.65 226.64h-956.56c-8.15-6.8-17.09-13.2-21.89-22.85-8.53-2.84-9.73-15.32-16.43-20.1-6.09-61.88-84.77-111.51-135.04-139.82-23.45-13.21-46.9-19.79-69.22-37.47h-533.89l24.63-83.16c24.01-32.03 31.23-72.04 59.31-101.44 22.16-23.22 38.85-55.72 60.22-76.77 48.1-47.36 88.76-108.88 127.74-163.58 19.93-27.96 49.1-81.32 75.73-101.44l15.51-36.55c7.15-5.11 7.83-17.71 7.56-25.74l699.61-1899.8h1946.4l-2.05 23.73c-11.74 17.61-20.55 56.95-31.02 77.68l-145.08 286.95c-21.01 41.56-44.08 90.41-98.54 83.16-27.08-3.61-113.14-18.78-113.14 25.59-15.26 25.55 4 75.16-2.74 104.18 1.22-0.68 1.42-1.36 2.74-0.91-18.02 48.38 7.85 109-18.25 165.41-51.35 110.94-103.61 185.43-193.43 269.59-79.9 74.88-163.26 135.81-205.29 238.52z" fill="#c6cedc"></path>
		</a>
		<a aria-hidden="true" xlink:href="/find-my-legislator/by-county?county=BEDFORD">
			<path d="m11630 14270c-5.24 25.97-27.49 40.35-39.26 63.06-49.42 95.38-79.39 215.12-177.02 279.64-35.26 23.29-92.91 56.57-104.01 98.7-19.94 75.62 60.3 60.54 83.03 102.35 40.25 15.15 4.32 96.06-10.04 116.98-9.37 7.94-26.76 20.82-39.23 21.93-4.52 3.52-10.51 5.86-12.78 10.97-16.09 4.6-15.54 148.9-22.81 174.55-15.22 53.65-62.52 101.18-75.73 154.44-29.32 25.09-60.45 112.84-70.26 151.7-7.79 30.84-21.38 61.1-35.58 89.56-15.91 31.91-18.97 69.9-34.67 101.44-30.09 49.27-39.12 121.72-57.48 177.29-23.21 70.29-61.36 139.47-81.21 209.28-36.8 43.48-61.27 137.09-84.86 191.91l-88.5 205.62c-6.91 17.04-17.05 31.39-25.55 47.52-7.4 14.02-14.22 36.59-26.46 46.61-7.28 17.33-25.89 34.16-38.32 48.43-38.2 43.88-63.81 102.28-100.37 148.05l-41.06 96.14h0.02l-1817.2-0.11 215.86-611.53v-1330.5c8.44-14.48 15.71-24.9 27.37-36.56 8.34-8.34 17.35-24.69 27.38-29.24 2.85-6.31 48.33-46.03 54.74-48.44 9.37-16.05 19.24-26.62 25.55-45.69 6.67-20.13 6.41-37.1 2.77-57.58l319.65-853.55c90.33-76.55 15.55-133.35 20.65-226.64 17.37-22.32 20.05-44.64 17.34-72.19-3.65-37.13 3.84-65.95 31.02-93.22l80.3-58.49 467.16 229.39 276.46 245.83v-337.25l654.21 330.85 135.96-285.13c23.47 9.82 20.43 35.39 35.62 48.44 1.41 20.04 10.07 39.98 15.51 58.48 19.36 65.71 44.7 223.43 44.7 292.45z" fill="#6ba0dc"></path>
		</a>
		<a aria-hidden="true" xlink:href="/find-my-legislator/by-county?county=ALLEGHENY">
			<path d="m4220.7 14089c39.48-56.14 61.96-65.54 121.29-99.61 49.04-28.15 106.53-36.45 152.38-65.8 36.48-23.36-8.65-41.06-21.9-65.79-34.47-64.37 51.1-81.92 51.1-141.65 0-31.28-26.72-59.67-12.78-91.39 9.41-21.39 46.36-53.45 65.7-63.97 13.77-31.1-9.88-65.06-17.34-95.96-11.52-47.74-12.93-97.83-4.56-146.22 3.85-5.57 10.17-13.89 10.95-21.02 55.41-63.22-56.37-217.43 51.09-275.98 13.93-27.87 57.89-46.06 80.3-68.54 41.38-41.49 91.28-73.28 128.65-117.89 42.77-51.04 47.15-76.62 57.48-142.57v-458.82c0.22-3.76 0.54-7.17 0-10.9-17.58-13.23-28.08-50.35-46.53-67.63-49.42-46.26-77.46-68.5-143.25-88.65-83.99-25.74-150.87-111.35-93.98-201.96 56.91-90.66 201.64-70.28 256.39-180.03 11.77-19.3 27.15-33.79 42.88-50.27 6.56-6.86 14.23-13.34 21.9-19.19 7.05-5.39 12.27-14.72 20.08-18.27 5.41-8.45 13.53-14.55 19.16-23.76 3.85-6.32 6.61-13.44 10.03-19.2 0-14.88-0.84-17.37-7.3-31.07-8.72-18.47-16.42-31.6-16.42-53l2.85-69.46-1972.6-21.93 10.95 314.37v35.64h-139.04l-766.07 764.91 762.71 818.83 1138.7 449.62c-30.92 44.02-73 45.53-124.09 56.66-22.52 4.91-52.18 17.47-71.17 29.24-29.81 18.49-33.35 32.95-29.2 62.15 2.57 0.64 22.2 18.57 25.55 21.93 20.64 20.66 44.78 35.94 67.52 53 76.9 57.69 158.37 102.36 262.78 102.36z" fill="#9b9b9b"></path>
		</a>
		<a aria-hidden="true" xlink:href="/find-my-legislator/by-county?county=GREENE">
			<path d="m3566.4 15319c13.73 53.65-0.71 94.37 36.5 139.82 19.93 1.64 32.24 7.46 54.74 5.48 41.26-3.65 71.61-28.33 114.97-28.33 36.98 0 77.24 52.75 96.72 83.16 31.41 49.06 64.38 60.6 69.34 126.12 5.27 7.32 11.53 24.12 1.83 31.07-2.88 31.48-36.45 46.24-7.3 83.16 20.77 26.29 48.78 51.55 50.18 88.65 2.65 70.29-100.56 20.43-52.01 117.89 26.65 53.52-46.62 53.56-29.2 106.01 12.17 36.62 55.19 50.15 62.96 92.3 15.01 81.45-11.69 96.74 58.4 159.01 37.41 33.25-83.22 60.78-95.81 98.7-3.94 30.68-24.37 58.02-20.98 90.47 6.55 62.54 79.03 53.13 114.05 79.51 29.45 22.17-2.43 65.38-4.56 91.38-20.59 23.55-27.49 93.78-27.49 125.31l-2578.1 2.78v-1391.8l89.9 5.93c3.82 6.65 9.33 12.76 12.02 19.47 41.9 15.77 50.35 44.29 93.98-2.74 38.68-41.71 80.49-102.07 135.95-121.54 37.7-13.24 76.32 6.22 115.88 3.65 69.91-4.54 103.13-79.73 160.58-106.92 25.87-12.25 56.84-7.4 84.86-12.8 39.74-7.65 67.72-29.22 105.84-41.12 61.6-9.99 74.48-61.01 122.27-94.13 6.35 0 10.83-1.83 17.33-1.83 3.24 2.16 5.05 1.8 8.21 4.57 9.53 0.87 13.81 12.38 22.81 14.63 23.42 25.34 49.41 68.6 83.04 76.76 64.62 15.68 111.1-81.5 180.66-28.33 52.21 39.92 88.77 52.91 151.46 26.5 35.8-15.07 63.78-58.55 106.75-25.59 42.99 32.96 56.09 93.73 109.49 116.07 97.43 40.78 142.2-20.48 231.76-42.96l73.91-45.69c28.75-17.77 45.88-13.5 76.64-10.97 10.11 7.87 21.22 8.93 30.11 20.11 0 34.13-23.94 83.11-12.77 114.23 15.7 43.71 59.34 14.13 89.42 9.14z" fill="#6ba0dc"></path>
		</a>
		<a aria-hidden="true" xlink:href="/find-my-legislator/by-county?county=WASHINGTON">
			<path d="m1410.6 15419 89.9 5.93c3.82 6.65 9.33 12.76 12.02 19.47 41.9 15.77 50.35 44.29 93.98-2.74 38.68-41.71 80.49-102.07 135.95-121.54 37.7-13.24 76.32 6.22 115.88 3.65 69.91-4.54 103.13-79.73 160.58-106.92 25.87-12.25 56.84-7.4 84.86-12.8 39.74-7.65 67.72-29.22 105.84-41.12 61.6-9.99 74.48-61.01 122.27-94.13 6.35 0 10.83-1.83 17.33-1.83 3.24 2.16 5.05 1.8 8.21 4.57 9.53 0.87 13.81 12.38 22.81 14.63 23.42 25.34 49.41 68.6 83.04 76.76 64.62 15.68 111.1-81.5 180.66-28.33 52.21 39.92 88.77 52.91 151.46 26.5 35.8-15.07 63.78-58.55 106.75-25.59 42.99 32.96 56.09 93.73 109.49 116.07 97.43 40.78 142.2-20.48 231.76-42.96l73.91-45.69c28.75-17.77 45.88-13.5 76.64-10.97 10.11 7.87 21.22 8.93 30.11 20.11 0 34.13-23.94 83.11-12.77 114.23 15.7 43.71 59.34 14.13 89.42 9.14l65.69 22.85 77.56-44.78c65.65-52.62-1.83-82.54-1.83-141.65 16.56-30.74 60.56-37.6 92.16-28.33 47.75 14 46.4 40.28 72.08 74.94 13.06 17.62 30.29 31.82 49.27 42.03h12.77c23.15-13.47 31.64-25.28 41.06-50.26 8.33-22.06 25.28-40.92 43.8-55.74 29.12-25.78 53.29-55.47 93.98-62.15 32.41-5.33 69.92 2.52 100.37-8.22 64.72-22.82-27.78-101.06-42.89-123.37-18.72-27.62 22.34-47.45 33.76-63.98 19.94-28.89-57.59-80.5-77.55-91.38-4.55-11.36-4.73-13.49 2.73-22.85 72.29-18.07 237.23 71.57 237.23-57.57 0-98.1-57.18-130.92-104.93-197.4l-57.48-28.33c-40.04-40.11-134.6-121.05-93.07-183.69 36.01-6.52 65.99-10.05 104.93-10.05 37.4 0 59.58 0.34 84.86-27.41 39.85-43.72-6.38-105.34-14.54-148.97l-105.84-1.82c-104.41 0-185.88-44.67-262.78-102.36-22.74-17.06-46.88-32.34-67.52-53-3.35-3.36-22.98-21.29-25.55-21.93-4.15-29.2-0.61-43.66 29.2-62.15 18.99-11.77 48.65-24.33 71.17-29.24 51.09-11.13 93.17-12.64 124.09-56.66l-1138.7-449.62-762.71-818.83-671.42 0.28z" fill="#e28818"></path>
		</a>
		<a aria-hidden="true" xlink:href="/find-my-legislator/by-county?county=FAYETTE">
			<path d="m4196 14488c47.75 66.48 104.93 99.3 104.93 197.4 0 129.14-164.94 39.5-237.23 57.57-7.46 9.36-7.28 11.49-2.73 22.85 19.96 10.88 97.49 62.49 77.55 91.38-11.42 16.53-52.48 36.36-33.76 63.98 15.11 22.31 107.61 100.55 42.89 123.37-30.45 10.74-67.96 2.89-100.37 8.22-40.69 6.68-64.86 36.37-93.98 62.15-18.52 14.82-35.47 33.68-43.8 55.74-9.42 24.98-17.91 36.79-41.06 50.26h-12.77c-18.98-10.21-36.21-24.41-49.27-42.03-25.68-34.66-24.33-60.94-72.08-74.94-31.6-9.27-75.6-2.41-92.16 28.33 0 59.11 67.48 89.03 1.83 141.65l-77.56 44.78c13.73 53.65-0.71 94.37 36.5 139.82 19.93 1.64 32.24 7.46 54.74 5.48 41.26-3.65 71.61-28.33 114.97-28.33 36.98 0 77.24 52.75 96.72 83.16 31.41 49.06 64.38 60.6 69.34 126.12 5.27 7.32 11.53 24.12 1.83 31.07-2.88 31.48-36.45 46.24-7.3 83.16 20.77 26.29 48.78 51.55 50.18 88.65 2.65 70.29-100.56 20.43-52.01 117.89 26.65 53.52-46.62 53.56-29.2 106.01 12.17 36.62 55.19 50.15 62.96 92.3 15.01 81.45-11.69 96.74 58.4 159.01 37.41 33.25-83.22 60.78-95.81 98.7-3.94 30.68-24.37 58.02-20.98 90.47 6.55 62.54 79.03 53.13 114.05 79.51 29.45 22.17-2.43 65.38-4.56 91.38-20.59 23.55-27.49 93.78-27.49 125.31l1891.9-2.04 343.98 0.02c0-31.28 3.28-73.04-7.65-100.44-6.45-3.22-9.53-16.26-17.33-17.36-7.35-13.24-21.21-16.44-27.38-37.47-4.66-15.91 8.21-26.88 15.51-39.3 14.62-24.84 18.73-54.47 44.71-68.54 11.12-6.01 53.19-18.46 56.57-30.16 9.13-31.54-39.01-39.8-37.41-71.28 4.05-32.14 78.38-29.05 100.37-41.12 28.51-15.66 4.79-60.66 0.91-84.08-4.08-24.69 1.21-50.33-5.47-74.02-10.33-36.57-22.99-62.02-52.01-86.82-30.25-25.87-104.16-67.88-121.35-102.35-69.72-38.19-31.54-119.02-26.42-172.72l494.49-909.3-103.1-7.31h-93.07c-2.73-2.13-2.88-2.36-6.39-2.74-47.96-53.01-15.98-111.48-44.71-171.81-25.67-53.89-129.36-62.95-170.62-114.24-26.41-32.82-73.14-63.5-106.75-89.55-50.91-39.44-95.97-75.69-131.39-132.52-43.01-69.03-141.05-108.67-210.77-65.79-45.58 28.04-95.32 42.29-140.52 69.45-37.13 45.46-81.27 83.93-135.95 102.35-65.33 22.02-90.04 80.43-138.69 120.63-28.8 23.79-61.38 25.22-86.68-6.39-56.89-8.11-77.42 29.05-126.83 23.76-46.08-4.93-76.22-54.71-109.49-83.16-78.96-67.54-136.6-35.2-228.1-54.84-18.11-24.15-58.56-54.6-83.95-71.28z" fill="#c6cedc"></path>
		</a>
		<a aria-hidden="true" xlink:href="/find-my-legislator/by-county?county=WESTMORELAND">
			<path d="m4196 14488h529.21c25.39 16.68 65.84 47.13 83.95 71.28 91.5 19.64 149.14-12.7 228.1 54.84 33.27 28.45 63.41 78.23 109.49 83.16 49.41 5.29 69.94-31.87 126.83-23.76 25.3 31.61 57.88 30.18 86.68 6.39 48.65-40.2 73.36-98.61 138.69-120.63 54.68-18.42 98.82-56.89 135.95-102.35 45.2-27.16 94.94-41.41 140.52-69.45 69.72-42.88 167.76-3.24 210.77 65.79 35.42 56.83 80.48 93.08 131.39 132.52 33.61 26.05 80.34 56.73 106.75 89.55 41.26 51.29 144.95 60.35 170.62 114.24 28.73 60.33-3.25 118.8 44.71 171.81 3.51 0.38 3.66 0.61 6.39 2.74h93.07l103.1 7.31 63.87-97.79c66.8-66.8 52.26-179.43 162.41-209.27 29.15-7.9 60.74-12.8 79.39-39.3 20.39-28.99 34.04-58.68 53.83-85.9 29.03-2.66 33.76-4.06 62.96 11.88 19.58 10.7 47.18 38.29 67.52 12.79 35-43.85 52.1-78.27 74.62-130.68v-145.31h76.83v-114.23h63.88c6.73-16.06 41.7-87.06 54.74-96.87 19.81-59.34 67.26-125.72 96.72-182.77 35.21-68.2 61.13-151.74 109.49-212.02 22.58-28.13 53.03-73.48 62.05-108.75l24.63-83.16c24.01-32.03 31.23-72.04 59.31-101.44 22.16-23.22 38.85-55.72 60.22-76.77 48.1-47.36 88.76-108.88 127.74-163.58 19.93-27.96 49.1-81.32 75.73-101.44l15.51-36.55c7.15-5.11 7.83-17.71 7.56-25.74l-55-79.36c-50.96-23.46-63.14-86.83-133.22-91.39-79.24-5.15-92.14 39.54-104.01 108.76-7.69 44.9-38.77 84.61-77.56 107.83-50.93 30.5-81.86-16.45-133.21-16.45-30.49 25.81-38.05 71.29-76.65 86.82-40.87 16.43-76.3 4.17-93.07-41.12-26.27-70.98 90.5-126.12-41.97-126.12-79.47 0-63.17-16.65-109.49-63.06-4.09 0-4.93-0.18-8.21-2.74l-80.29-2.74c-46.25-15.43-78.25-8-114.97-44.78-23.47-23.5-38.12-43.44-72.08-54.83-74.45-24.99-138.42 108.26-172.45 31.07-10.53-23.87-14.54-97.78-48.36-97.78-83.97 0-70.4 33.46-83.94-76.77-11.85-96.41-70.96 26.78-151.46-33.81-30.67 7.64-34.52 82.97-74.82 42.04-23.26-23.61-35.16-103.47-52.92-110.58-3.55 1.41-3.01 1.83-7.3 1.83-31.37 31.23-19.32 102.39-57.49 116.97-47.95 18.33-84.81-55.22-106.75-83.16-21.99-27.99-44.79-25.52-69.35-42.04-26.61-17.91-27.22-72.86-61.13-77.68-87.47-12.42-74.89-10.23-92.15-95.04-11.87-58.32-2.74-95.6-2.74-153.53h-58.4c-14.58 1.2-40.78 5.41-47.44 20.11-24.06 9.03-29.33 44.32-62.96 9.13-22.34-23.39-28.6-62.91-55.66-80.42-46.84-30.29-112.54-38.33-159.67-72.19-32.5-23.36-48.14-71.66-76.65-92.3-38.74-28.06-55.82-76.31-18.24-112.41 7.18-10.81 54.66-79.16 52-87.73-7.74-24.96-70.45 6.4-88.5 6.4-83.33 0-14.96-126.7-39.24-165.41-42.21-8.55-43.56 23.52-80.29 42.95-42.38 22.41-50.65-57.93-55.66-81.33-4.94-23.06-25.51-30.96-40.14-44.78-74.63-70.55-68.47-180.95-197.09-180.95-19.27 19.32-60.78 34.31-83.83 53l-2.85 69.46c0 21.4 7.7 34.53 16.42 53 6.46 13.7 7.3 16.19 7.3 31.07-3.42 5.76-6.18 12.88-10.03 19.2-5.63 9.21-13.75 15.31-19.16 23.76-7.81 3.55-13.03 12.88-20.08 18.27-7.67 5.85-15.34 12.33-21.9 19.19-15.73 16.48-31.11 30.97-42.88 50.27-54.75 109.75-199.48 89.37-256.39 180.03-56.89 90.61 9.99 176.22 93.98 201.96 65.79 20.15 93.83 42.39 143.25 88.65 18.45 17.28 28.95 54.4 46.53 67.63 0.54 3.73 0.22 7.14 0 10.9v458.82c-10.33 65.95-14.71 91.53-57.48 142.57-37.37 44.61-87.27 76.4-128.65 117.89-22.41 22.48-66.37 40.67-80.3 68.54-107.46 58.55 4.32 212.76-51.09 275.98-0.78 7.13-7.1 15.45-10.95 21.02-8.37 48.39-6.96 98.48 4.56 146.22 7.46 30.9 31.11 64.86 17.34 95.96-19.34 10.52-56.29 42.58-65.7 63.97-13.94 31.72 12.78 60.11 12.78 91.39 0 59.73-85.57 77.28-51.1 141.65 13.25 24.73 58.38 42.43 21.9 65.79-45.85 29.35-103.34 37.65-152.38 65.8-59.33 34.07-81.81 43.47-121.29 99.61 8.16 43.63 54.39 105.25 14.54 148.97-25.28 27.75-47.46 27.41-84.86 27.41-38.94 0-68.92 3.53-104.93 10.05-41.53 62.64 53.03 143.58 93.07 183.69z" fill="#6ba0dc"></path>
		</a>
		<a aria-hidden="true" xlink:href="/find-my-legislator/by-county?county=CENTRE">
			<path d="m10687 11085 989.74-73.14 770.08 275.98 368.62-235.77 11.86-0.92c10.4-15.66 88.48-41.92 107.67-45.69 142.97-28.08 202.3 160.78 322.99 114.23 32.95-12.7 129.29-73.6 150.55-22.84 32.69 78.01 76.85 14.25 124.09-5.49l61.13-10.96 1378.7-695.46 410.61-423.12 159.67-260.45 335.77-389.31-915.17 328.99-644.17 115.15-264.6-401.19c-6.67-13.34-25.53-26.29-30.11-39.29-4.05-11.53-9.21-22.27-12.77-33.82-8.27-26.88 20.89-38.77 37.41-51.17 5.72-4.3 12.49-11.6 19.16-12.8l3.65-2.74c5.63-12.4 14.99-16.12 6.38-31.07-3.98-6.9-21.26-14.55-28.28-17.36-12.22-4.88-20.78-5.14-31.94-13.71l-348.54-222.99c-14.82-4.67-41.76-8.22-57.49-8.22-21.54-11.78-55.08-1.55-73.9-10.97-63.56 0-127.15 14.3-191.61 10.97-21.07-1.09-42.24-8.64-63.87-9.14l-234.42-397.51h-428v-361.91c-73.31 30.5-106.39 144.2-162.42 190.08-78.99 0-112.65-55.49-134.12 66.71-18.05 102.71 24.84 129.77-72.08 199.23-35.8 25.66-35.98 93.63-68.44 109.66-15.95 7.88-47.11 12.53-56.57-8.22-33.07-18.15-28.36-60.14-82.12-18.28l-14.03 0.73c-5.37 7.64-12.49 16.65-19.73 19.37-5.15 12.47-19.39 18.92-24.63 34.73-27.2 82.1-72.01 106.01-156.03 106.01-55.9 0-124.74-7.19-93.98 65.8l49.28 116.97c24.24 57.53 14.41 109.45 57.48 160.84 36.91 44.02 113.72 28.52 119.53 97.79-21.24 19.47-75.37 40.04-81.21 69.45-13 65.5 101.7 75.6 61.13 167.24-22.03 49.75-89.7 36.71-104.01 100.53-9.39 41.85-37.17 64.14 0 99.61 63.42 60.54-26.56 76.88-75.74 108.75-27.62 17.9-57.55 23.16-85.76 5.48-25.06-15.72-38.55-65.8-62.96-65.8-49.24 59.39-49.1 20.5-104.93 9.14-30.22-6.15-5.37 62.31-7.3 85.9-32.39 23.25-42.84 69.16-70.26 94.13-7.11 8.69-24.02 21.94-35.58 21.94-23.51 20.55-80.32 24.4-110.4 44.78-50.46 34.21-36.45 23.64-31.94 78.59 62.23 62.42-75.29 101.99-93.98 122.46-30.42 33.3-4.51 87.89-31.02 127.02-41.19 60.77-157.52 8.32-196.17 85.91-33.34 66.95-12.97 139.76-92.16 187.34-33.88 15.51-78 24.48-98.54 59.4-14.35 24.38-11.65 56.93-23.72 83.16-22.53 49-45.33 70.35-86.69 103.27-11.86 9.45-89.17 54.45-62.04 77.68 5.12 23.16 41.25 41.59 58.39 56.66z" fill="#9b9b9b"></path>
		</a>
		<a aria-hidden="true" xlink:href="/find-my-legislator/by-county?county=LYCOMING">
			<path d="m13931 7038.2c13.87 3.41 25.27 29.93 50.12 29.93 1.56 2.75 6.66 5.49 10.03 5.49 1.52 2.68 5.04 4.35 7.3 5.48 18.42 93.33 82.05 128.49 128.65 203.79 27.4 44.29 32.81 95.09 46.54 144.39 21.11 75.82 68.34 82.61 135.04 110.58 31.42 1.79 61.95 26.08 90.33 29.25 13.14 19.78 31.03 29.53 41.06 56.66l52 140.73c62.37 168.8 252.99 262.51 359.5 404.85 40.99 110.53 199.11 130.85 295.63 141.65 34.9 48.14 95.83 69.84 113.14 133.42 16.04 58.88 23.62 62.08 71.17 97.78 43.83 32.92 83.37 122.18 121.35 169.07l160.59 198.31c3.49 16.57 22.95 39.91 32.85 55.75 17.44 27.87 32.97 56.84 52 83.16 11.75 16.27 40.36 63.37 59.31 68.54 5.52 8.3 16.37 17.55 25.55 21.02l98.54 4.57 182.49 0.91 158.76-95.04h372.3l75.7-325.34 278.29 19.19c24.34-9.03 38.64-36.75 53.83-56.66 62.41-81.74 122.66-59.4 209.86-59.4 36.49-20.54 85.83-27.77 119.53-51.18 26.89-1.65 54.3-13.06 82.12-15.53 72.28-6.42 167.93-4.1 239.97 5.48 21.24 3.98 42.36 13.07 62.96 20.11 15.86 5.41 39.01 15.45 49.27 28.33 9.15 1.52 22.64 14.28 30.11 20.1 14.15 11.01 36.41 21.77 52.92 28.33 9.62 3.83 20.1 7.89 31.02 8.23 11.65 0.37 33.61 1.97 44.71 5.48l135.95 2.74h172.44l633.2-699.11-638.69-179.12-656.95-561.11-248.17-1016.2-264.59-47.52-115.88 53.91c-23.29 11.72-48.73 37.8-72.99 43.87-18.75 22.96-57.02 38.68-79.38 59.4-22.98 21.31-50.75 42.62-74.82 61.23-21.04 16.28-31.78 34.76-58.31 42.31l-2726.4 38.27v373.61z" fill="#6ba0dc"></path>
		</a>
		<a aria-hidden="true" xlink:href="/find-my-legislator/by-county?county=CLINTON">
			<path d="m12031 8692.8 14.03-0.73c53.76-41.86 49.05 0.13 82.12 18.28 9.46 20.75 40.62 16.1 56.57 8.22 32.46-16.03 32.64-84 68.44-109.66 96.92-69.46 54.03-96.52 72.08-199.23 21.47-122.2 55.13-66.71 134.12-66.71 56.03-45.88 89.11-159.58 162.42-190.08v361.91h428l234.42 397.51c21.63 0.5 42.8 8.05 63.87 9.14 64.46 3.33 128.05-10.97 191.61-10.97 18.82 9.42 52.36-0.81 73.9 10.97 15.73 0 42.67 3.55 57.49 8.22l348.54 222.99c11.16 8.57 19.72 8.83 31.94 13.71 7.02 2.81 24.3 10.46 28.28 17.36 8.61 14.95-0.75 18.67-6.38 31.07l-3.65 2.74c-6.67 1.2-13.44 8.5-19.16 12.8-16.52 12.4-45.68 24.29-37.41 51.17 3.56 11.55 8.72 22.29 12.77 33.82 4.58 13 23.44 25.95 30.11 39.29l264.6 401.19 644.17-115.15 915.17-328.99 2.74-169.06-98.54-4.57c-9.18-3.47-20.03-12.72-25.55-21.02-18.95-5.17-47.56-52.27-59.31-68.54-19.03-26.32-34.56-55.29-52-83.16-9.9-15.84-29.36-39.18-32.85-55.75l-160.59-198.31c-37.98-46.89-77.52-136.15-121.35-169.07-47.55-35.7-55.13-38.9-71.17-97.78-17.31-63.58-78.24-85.28-113.14-133.42-96.52-10.8-254.64-31.12-295.63-141.65-106.51-142.34-297.13-236.05-359.5-404.85l-52-140.73c-10.03-27.13-27.92-36.88-41.06-56.66-28.38-3.17-58.91-27.46-90.33-29.25-66.7-27.97-113.93-34.76-135.04-110.58-13.73-49.3-19.14-100.1-46.54-144.39-46.6-75.3-110.23-110.46-128.65-203.79-2.26-1.13-5.78-2.8-7.3-5.48-3.37 0-8.47-2.74-10.03-5.49-24.85 0-36.25-26.52-50.12-29.93v-190.31h-1668v606.81l-430.67 860.86z" fill="#e28818"></path>
		</a>
		<a aria-hidden="true" xlink:href="/find-my-legislator/by-county?county=CLEARFIELD">
			<path d="m11832 8315.5 198.55 377.25c-5.37 7.64-12.49 16.65-19.73 19.37-5.15 12.47-19.39 18.92-24.63 34.73-27.2 82.1-72.01 106.01-156.03 106.01-55.9 0-124.74-7.19-93.98 65.8l49.28 116.97c24.24 57.53 14.41 109.45 57.48 160.84 36.91 44.02 113.72 28.52 119.53 97.79-21.24 19.47-75.37 40.04-81.21 69.45-13 65.5 101.7 75.6 61.13 167.24-22.03 49.75-89.7 36.71-104.01 100.53-9.39 41.85-37.17 64.14 0 99.61 63.42 60.54-26.56 76.88-75.74 108.75-27.62 17.9-57.55 23.16-85.76 5.48-25.06-15.72-38.55-65.8-62.96-65.8-49.24 59.39-49.1 20.5-104.93 9.14-30.22-6.15-5.37 62.31-7.3 85.9-32.39 23.25-42.84 69.16-70.26 94.13-7.11 8.69-24.02 21.94-35.58 21.94-23.51 20.55-80.32 24.4-110.4 44.78-50.46 34.21-36.45 23.64-31.94 78.59 62.23 62.42-75.29 101.99-93.98 122.46-30.42 33.3-4.51 87.89-31.02 127.02-41.19 60.77-157.52 8.32-196.17 85.91-33.34 66.95-12.97 139.76-92.16 187.34-33.88 15.51-78 24.48-98.54 59.4-14.35 24.38-11.65 56.93-23.72 83.16-22.53 49-45.33 70.35-86.69 103.27-11.86 9.45-89.17 54.45-62.04 77.68 5.12 23.16 41.25 41.59 58.39 56.66l59.58 67.66h-1946.4v-1005.3l-7.3-1281.2 185.94-407.58h223.71l267.36-102.36v-196.11l1779.3 149.41z" fill="#6ba0dc"></path>
		</a>
		<a aria-hidden="true" xlink:href="/find-my-legislator/by-county?county=BEAVER">
			<path d="m2976.2 11379 10.95 314.37v35.64h-139.04l-766.07 764.91-671.42 0.28v-797.07l0.01-1321.6 1530.8-2.74z" fill="#c6cedc"></path>
		</a>
		<a aria-hidden="true" xlink:href="/find-my-legislator/by-county?county=INDIANA">
			<path d="m5960.6 12187c0 57.93-9.13 95.21 2.74 153.53 17.26 84.81 4.68 82.62 92.15 95.04 33.91 4.82 34.52 59.77 61.13 77.68 24.56 16.52 47.36 14.05 69.35 42.04 21.94 27.94 58.8 101.49 106.75 83.16 38.17-14.58 26.12-85.74 57.49-116.97 4.29 0 3.75-0.42 7.3-1.83 17.76 7.11 29.66 86.97 52.92 110.58 40.3 40.93 44.15-34.4 74.82-42.04 80.5 60.59 139.61-62.6 151.46 33.81 13.54 110.23-0.03 76.77 83.94 76.77 33.82 0 37.83 73.91 48.36 97.78 34.03 77.19 98-56.06 172.45-31.07 33.96 11.39 48.61 31.33 72.08 54.83 36.72 36.78 68.72 29.35 114.97 44.78l80.29 2.74c3.28 2.56 4.12 2.74 8.21 2.74 46.32 46.41 30.02 63.06 109.49 63.06 132.47 0 15.7 55.14 41.97 126.12 16.77 45.29 52.2 57.55 93.07 41.12 38.6-15.53 46.16-61.01 76.65-86.82 51.35 0 82.28 46.95 133.21 16.45 38.79-23.22 69.87-62.93 77.56-107.83 11.87-69.22 24.77-113.91 104.01-108.76 70.08 4.56 82.26 67.93 133.22 91.39l55 79.36 699.61-1899.8v-1005.3l-1737.2-32.91v765.84z" fill="#e28818"></path>
		</a>
		<a aria-hidden="true" xlink:href="/find-my-legislator/by-county?county=ARMSTRONG">
			<path d="m4948.9 11401c23.05-18.69 64.56-33.68 83.83-53 128.62 0 122.46 110.4 197.09 180.95 14.63 13.82 35.2 21.72 40.14 44.78 5.01 23.4 13.28 103.74 55.66 81.33 36.73-19.43 38.08-51.5 80.29-42.95 24.28 38.71-44.09 165.41 39.24 165.41 18.05 0 80.76-31.36 88.5-6.4 2.66 8.57-44.82 76.92-52 87.73-37.58 36.1-20.5 84.35 18.24 112.41 28.51 20.64 44.15 68.94 76.65 92.3 47.13 33.86 112.83 41.9 159.67 72.19 27.06 17.51 33.32 57.03 55.66 80.42 33.63 35.19 38.9-0.1 62.96-9.13 6.66-14.7 32.86-18.91 47.44-20.11h58.4l1043-1374.4v-765.84l-1.88-800.54-138.69 58.49c-7.25 13.11-28.21 24.99-36.49 40.21-23.49 14.7-40.33 40.1-60.22 58.49-18.49 17.08-32.87 42.95-58.4 49.35-18.17 15.91-40.51 17.92-63.87 21.93-45.31 0-127.14 33.61-180.66 43.87-64.89 12.43-76.2 54.13-109.49 102.35-75.19 108.94-145.95-111.59-217.15-116.98-32.23-2.44-40.67 131.6-138.69 131.6-82.09 0-134.47-117.85-189.79-16.45-71.41 130.91-258.55-58.02-333.94 1.83-248.83 197.56-279.75-65.8-52.92-65.8 7.13-50.2-46.51-59.36-65.7-96.87-10.38-20.28 6.44-116.74-9.12-120.63l-1.83-5.48h-3.65l-1.82-5.49c-6.31 0-3.98 1.34-7.3-3.65l-191.61-25.59c-3.6-7.96-3.91-9.87-12.77-10.97-45.37-81.62-7.15-139.44-71.17-217.5-62.78-76.53-47.45-124.68-47.45-224.81 0-24.13-14.21-144.01 0-153.53 0-40.89 11.11-125.11-52-117.69z" fill="#c6cedc"></path>
		</a>
		<a aria-hidden="true" xlink:href="/find-my-legislator/by-county?county=LAWRENCE">
			<path d="m1410.7 10375 1530.8-2.74-34.68-828.88 291.98-391.13-218.14-254.97-497.23-68.54h-1072.8z" fill="#6ba0dc"></path>
		</a>
		<a aria-hidden="true" xlink:href="/find-my-legislator/by-county?county=BUTLER">
			<path d="m4957 8572.5-8.16 2828.2-1972.6-21.93-34.73-1006.2-34.68-828.88 291.98-391.13 418.74-580.11z" fill="#e28818"></path>
		</a>
		<a aria-hidden="true" xlink:href="/find-my-legislator/by-county?county=JEFFERSON">
			<path d="m7001.8 9245.9 1.88 800.54 1737.2 32.91-7.3-1281.2 185.94-407.58h223.71v-154.92h-121.36v-207.89c-139.65-108.99-312.1-179.08-471.72-265.94-24.34-13.25-116.82-55.24-130.48-74.02l-12.77-1.83c-73.73-22.12-143.65-98.71-208.95-138.91-52.08-32.07-101.97-77.99-138.69-126.11-26.9-35.24-68.33 21.5-88.5 38.38-47.1 39.4-89.7 85.78-152.38 74.02-6.21-6.91-16.02-10.83-21.9-17.36-35.57-5.46-55 2.67-87.59 15.54-37.62 14.87-49.25 8.22-86.68 8.22-51.87 0-67.26 55.31-117.7 63.97l-38.33 37.47c-14.98 38.72-28.46 111.18-73.9 53.92-25.04-31.57-33.69-75.3-80.3-68.54-29.51 4.27-36.8 47.23-62.04 48.43-36.86 1.75-41.44-42.1-72.08-53.92-26.15-10.1-63.52 58.26-83.03 71.29-11.46 7.64-46.47 10.12-55.66-2.74-3.32 0-3.66 0.43-4.56-2.75-11.88 0-23.62-4.63-32.85 4.56z" fill="#9b9b9b"></path>
		</a>
		<a aria-hidden="true" xlink:href="/find-my-legislator/by-county?county=CLARION">
			<path d="m4957 8572.5c63.11-7.42 52 76.8 52 117.69-14.21 9.52 0 129.4 0 153.53 0 100.13-15.33 148.28 47.45 224.81 64.02 78.06 25.8 135.88 71.17 217.5 8.86 1.1 9.17 3.01 12.77 10.97l191.61 25.59c3.32 4.99 0.99 3.65 7.3 3.65l1.82 5.49h3.65l1.83 5.48c15.56 3.89-1.26 100.35 9.12 120.63 19.19 37.51 72.83 46.67 65.7 96.87-226.83 0-195.91 263.36 52.92 65.8 75.39-59.85 262.53 129.08 333.94-1.83 55.32-101.4 107.7 16.45 189.79 16.45 98.02 0 106.46-134.04 138.69-131.6 71.2 5.39 141.96 225.92 217.15 116.98 33.29-48.22 44.6-89.92 109.49-102.35 53.52-10.26 135.35-43.87 180.66-43.87 23.36-4.01 45.7-6.02 63.87-21.93 25.53-6.4 39.91-32.27 58.4-49.35 19.89-18.39 36.73-43.79 60.22-58.49 8.28-15.22 29.24-27.1 36.49-40.21l138.69-58.49-0.04-1554.5v-591.26h-802.88v260.46h-341.3v294.27h-273.73v63.05h-297.45v295.18h-73v109.66h-96.72v256.8h-61.13v129.23h-98.48z" fill="#6ba0dc"></path>
		</a>
		<a aria-hidden="true" xlink:href="/find-my-legislator/by-county?county=CAMERON">
			<path d="m11190 8241.4 642.29 74.11 430.67-860.86v-606.81l-268.26-1.83-664.23-810.6h-945.2v1231.3h721.01v468.69h87.36z" fill="#9b9b9b"></path>
		</a>
		<a aria-hidden="true" xlink:href="/find-my-legislator/by-county?county=ELK">
			<path d="m7504.5 7603.6c50.44-8.66 65.83-63.97 117.7-63.97 37.43 0 49.06 6.65 86.68-8.22 32.59-12.87 52.02-21 87.59-15.54 5.88 6.53 15.69 10.45 21.9 17.36 62.68 11.76 105.28-34.62 152.38-74.02 20.17-16.88 61.6-73.62 88.5-38.38 36.72 48.12 86.61 94.04 138.69 126.11 65.3 40.2 135.22 116.79 208.95 138.91l12.77 1.83c13.66 18.78 106.14 60.77 130.48 74.02 159.62 86.86 332.07 156.95 471.72 265.94v207.89h121.36v154.92l267.36-102.36v-196.11l1779.3 149.41 3.64-505.97h-87.36v-468.69h-721.01v-1122.6h-258.14v-141.66h-2054.1v1076.5h-68.43v-86.81h-392.35v148.04h-107.66z" fill="#c6cedc"></path>
		</a>
		<a aria-hidden="true" xlink:href="/find-my-legislator/by-county?county=FOREST">
			<path d="m7001.7 7691.4c9.23-9.19 20.97-4.56 32.85-4.56 0.9 3.18 1.24 2.75 4.56 2.75 9.19 12.86 44.2 10.38 55.66 2.74 19.51-13.03 56.88-81.39 83.03-71.29 30.64 11.82 35.22 55.67 72.08 53.92 25.24-1.2 32.53-44.16 62.04-48.43 46.61-6.76 55.26 36.97 80.3 68.54 45.44 57.26 58.92-15.2 73.9-53.92l38.33-37.47v-463.34h107.66v-148.04h392.35v86.81h68.43v-1076.5l-2348.6 1.4v911.58h-31.12v148.92h167.48l-3.14 296.12h341.3v-260.46h802.88z" fill="#e28818"></path>
		</a>
		<a aria-hidden="true" xlink:href="/find-my-legislator/by-county?county=VENANGO">
			<path d="m3617.5 8572.5h1339.5v-63.79h98.48v-129.23h61.13v-256.8h96.72v-109.66h73v-295.18h297.45v-63.05h273.73v-294.27l3.14-296.12h-167.48v-148.92h31.12v-911.58h-430.55l0.11 71.71h-690.93v-36.55h-251.83v121.54h-93.98v81.35h-66.61v35.64h-47.45v45.69h-75.73v53.01h-56.57v66.71h-72.08v77.67h-76.64v70.37h-64.79v43.87h-96.71v83.94h-83.03v52.01z" fill="#c6cedc"></path>
		</a>
		<a aria-hidden="true" xlink:href="/find-my-legislator/by-county?county=MERCER">
			<path d="m3617.5 8572.5-418.74 580.11-218.14-254.97-497.23-68.54h-1072.8v-2055.3l1644.8 49.35v-52.3h562.06z" fill="#9b9b9b"></path>
		</a>
		<a aria-hidden="true" xlink:href="/find-my-legislator/by-county?county=TIOGA">
			<path d="m13931 6474.3 2726.4-38.27c26.53-7.55 37.27-26.03 58.31-42.31 24.07-18.61 51.84-39.92 74.82-61.23 22.36-20.72 60.63-36.44 79.38-59.4 24.26-6.07 49.7-32.15 72.99-43.87l115.88-53.91-248.08-2330-313.85 18.07h-2606z" fill="#e28818"></path>
		</a>
		<a aria-hidden="true" xlink:href="/find-my-legislator/by-county?county=POTTER">
			<path d="m11330 6035.4 664.23 810.6 268.26 1.83h1668v-373.61l-40.22-2610.9h-2559.4z" fill="#c6cedc"></path>
		</a>
		<a aria-hidden="true" xlink:href="/find-my-legislator/by-county?county=MCKEAN">
			<path d="m8072.9 6002.5h2054.1v141.66h258.14v-108.76h945.2l0.85-2172.1h-3090v945.49h-165.52z" fill="#6ba0dc"></path>
		</a>
		<a aria-hidden="true" xlink:href="/find-my-legislator/by-county?county=WARREN">
			<path d="m5293.8 6003.9h430.55l2348.6-1.4 2.75-1193.7h165.52v-945.49h-2951.2l3.76 884.47z" fill="#9b9b9b"></path>
		</a>
		<a aria-hidden="true" xlink:href="/find-my-legislator/by-county?county=CRAWFORD">
			<path d="m3617.5 6770.9v-52.01h83.03v-83.94h96.71v-43.87h64.79v-70.37h76.64v-77.67h72.08v-66.71h56.57v-53.01h75.73v-45.69h47.45v-35.64h66.61v-81.35h93.98v-121.54h251.83v36.55h690.93l-0.11-71.71v-1256.1h-3883.1l0.01 2026 1644.8 49.35v-52.3z" fill="#6ba0dc"></path>
		</a>
		<a aria-hidden="true" xlink:href="/find-my-legislator/by-county?county=ERIE">
			<path d="m1410.6 4747.8h3883.1l-3.76-884.47h-619.41v-1574.5c-29.97 10.86-58.76 18.01-84.08 18.01-40.53 31.63-151.12 119.84-197.99 131.6-63.6 84.8-198.37 49.69-280.12 122.46-75.25 67-146.31 113.67-239.97 149.87l-357.67 222.07c-24.71 15.34-202.56 116.18-202.56 82.25 0-66.58-0.19-22.89-42.88-28.33-2.34-0.3-1.76 65.9-56.57 85.9-49.48 18.05-171.59 89.51-204.39 132.51-49.15 64.41-16.68-45.8-10.03-66.71 14.03-44.15 33.73-84.84 65.69-114.23 46.17-42.44 85.18-33.77 144.17-51.18 18.06-5.32 52.59-26.83 52.92-26.5 58.88 58.88 67.43-16.44 23.72-45.69 29.1-9.84 87.87-34.58 33.76-58.49-33.75-14.92-103.29 14.1-135.04 24.67-106.39 35.4-178.05 185.28-205.3 288.78-14.65 55.63-49.38 130.66-114.05 132.52-59.4 7.34-134.75 94.96-205.29 111.49-69.77 16.36-92.76 47.33-156.03 80.42l-389.61 203.79c-52.71 27.57-204.43 63.98-242.7 102.35-37.52 3.14-157.51 58.72-187.96 85.91-6.6 0-26.05 6.61-31.02 10.96-6.55 0-7.97 2.28-14.6 6.4-67.99 27.01-145.5 68.72-222.36 96.69z" fill="#e28818"></path>
		</a>
	</g>
	<g font-family="'Arial Narrow'" font-stretch="condensed" font-weight="bold">
		<g font-size="317.5px">
			<g stroke-width="36.195">
				<a aria-hidden="true" xlink:href="/find-my-legislator/by-county?county=BRADFORD">
					<text class="maplabels1" x="17890.689" y="5232.4355" style="font-variant-caps:normal;font-variant-east-asian:normal;font-variant-ligatures:normal;font-variant-numeric:normal">BRADFORD</text>
				</a>
				<a aria-hidden="true" xlink:href="/find-my-legislator/by-county?county=TIOGA">
					<text class="maplabels1" x="14933.618" y="5229.603" style="font-variant-caps:normal;font-variant-east-asian:normal;font-variant-ligatures:normal;font-variant-numeric:normal">TIOGA</text>
				</a>
				<a aria-hidden="true" xlink:href="/find-my-legislator/by-county?county=CENTRE">
					<text class="maplabels1" x="12660.435" y="9810.8887" style="font-variant-caps:normal;font-variant-east-asian:normal;font-variant-ligatures:normal;font-variant-numeric:normal">CENTRE</text>
				</a>
				<a aria-hidden="true" xlink:href="/find-my-legislator/by-county?county=CLINTON">
					<text class="maplabels1" x="12878.713" y="8075.4575" style="font-variant-caps:normal;font-variant-east-asian:normal;font-variant-ligatures:normal;font-variant-numeric:normal">CLINTON</text>
				</a>
				<a aria-hidden="true" xlink:href="/find-my-legislator/by-county?county=HUNTINGDON">
					<text class="maplabels1" transform="rotate(-74.008)" x="-9915.4775" y="15310.275" style="font-variant-caps:normal;font-variant-east-asian:normal;font-variant-ligatures:normal;font-variant-numeric:normal">HUNTINGDON</text>
				</a>
				<a aria-hidden="true" xlink:href="/find-my-legislator/by-county?county=BEDFORD">
					<text class="maplabels1" x="9521.5352" y="15239.455" style="font-variant-caps:normal;font-variant-east-asian:normal;font-variant-ligatures:normal;font-variant-numeric:normal">BEDFORD</text>
				</a>
				<a aria-hidden="true" xlink:href="/find-my-legislator/by-county?county=LEBANON">
					<text class="maplabels1" x="18300.096" y="13407.247" style="font-variant-caps:normal;font-variant-east-asian:normal;font-variant-ligatures:normal;font-variant-numeric:normal">LEBANON</text>
				</a>
				<a aria-hidden="true" xlink:href="/find-my-legislator/by-county?county=CHESTER">
					<text class="maplabels1" x="21180.807" y="15416.768" style="font-variant-caps:normal;font-variant-east-asian:normal;font-variant-ligatures:normal;font-variant-numeric:normal">CHESTER</text>
				</a>
				<a aria-hidden="true" xlink:href="/find-my-legislator/by-county?county=BERKS">
					<text class="maplabels1" x="20771.248" y="13000" style="font-variant-caps:normal;font-variant-east-asian:normal;font-variant-ligatures:normal;font-variant-numeric:normal">BERKS</text>
				</a>
				<a aria-hidden="true" xlink:href="/find-my-legislator/by-county?county=MCKEAN">
					<text class="maplabels1" x="9108.7715" y="5056.1904" style="font-variant-caps:normal;font-variant-east-asian:normal;font-variant-ligatures:normal;font-variant-numeric:normal">MCKEAN</text>
				</a>
				<a aria-hidden="true" xlink:href="/find-my-legislator/by-county?county=ELK">
					<text class="maplabels1" x="9041.8545" y="7068.6772" style="font-variant-caps:normal;font-variant-east-asian:normal;font-variant-ligatures:normal;font-variant-numeric:normal">ELK</text>
				</a>
				<a aria-hidden="true" xlink:href="/find-my-legislator/by-county?county=ARMSTRONG">
					<text class="maplabels1" x="5182.2754" y="10768.527" style="font-variant-caps:normal;font-variant-east-asian:normal;font-variant-ligatures:normal;font-variant-numeric:normal">ARMSTRONG</text>
				</a>
				<a aria-hidden="true" xlink:href="/find-my-legislator/by-county?county=BUTLER">
					<text class="maplabels1" x="3393.1113" y="10004.169" style="font-variant-caps:normal;font-variant-east-asian:normal;font-variant-ligatures:normal;font-variant-numeric:normal">BUTLER</text>
				</a>
				<a aria-hidden="true" xlink:href="/find-my-legislator/by-county?county=BEAVER">
					<text class="maplabels1" x="1748.249" y="11400" style="font-variant-caps:normal;font-variant-east-asian:normal;font-variant-ligatures:normal;font-variant-numeric:normal">BEAVER</text>
				</a>
			</g>
			<a aria-hidden="true" xlink:href="/find-my-legislator/by-county?county=JUNIATA">
				<text class="maplabels1" transform="rotate(-29.223)" x="6269.522" y="17809.885" stroke-width="36.194" style="font-variant-caps:normal;font-variant-east-asian:normal;font-variant-ligatures:normal;font-variant-numeric:normal">JUNIATA</text>
			</a>
			<g stroke-width="36.195">
				<a aria-hidden="true" xlink:href="/find-my-legislator/by-county?county=PERRY">
					<text class="maplabels1" x="14933.622" y="12806.085" style="font-variant-caps:normal;font-variant-east-asian:normal;font-variant-ligatures:normal;font-variant-numeric:normal">PERRY</text>
				</a>
				<a aria-hidden="true" xlink:href="/find-my-legislator/by-county?county=FOREST">
					<text class="maplabels1" x="6428.4995" y="6718.1875" style="font-variant-caps:normal;font-variant-east-asian:normal;font-variant-ligatures:normal;font-variant-numeric:normal">FOREST</text>
				</a>
				<a aria-hidden="true" xlink:href="/find-my-legislator/by-county?county=WARREN">
					<text class="maplabels1" x="6157.2837" y="5153.3682" style="font-variant-caps:normal;font-variant-east-asian:normal;font-variant-ligatures:normal;font-variant-numeric:normal">WARREN</text>
				</a>
				<a aria-hidden="true" xlink:href="/find-my-legislator/by-county?county=VENANGO">
					<text class="maplabels1" x="4048.1704" y="7507.0845" style="font-variant-caps:normal;font-variant-east-asian:normal;font-variant-ligatures:normal;font-variant-numeric:normal">VENANGO</text>
				</a>
				<a aria-hidden="true" xlink:href="/find-my-legislator/by-county?county=CLEARFIELD">
					<text class="maplabels1" x="9594.5615" y="9252.6113" style="font-variant-caps:normal;font-variant-east-asian:normal;font-variant-ligatures:normal;font-variant-numeric:normal">CLEARFIELD</text>
				</a>
				<a aria-hidden="true" xlink:href="/find-my-legislator/by-county?county=INDIANA">
					<text class="maplabels1" x="6921.5098" y="11420.275" style="font-variant-caps:normal;font-variant-east-asian:normal;font-variant-ligatures:normal;font-variant-numeric:normal">INDIANA</text>
				</a>
				<a aria-hidden="true" xlink:href="/find-my-legislator/by-county?county=SCHUYLKILL">
					<text class="maplabels1" x="18987.424" y="11462.31" style="font-variant-caps:normal;font-variant-east-asian:normal;font-variant-ligatures:normal;font-variant-numeric:normal">SCHUYLKILL</text>
				</a>
				<a aria-hidden="true" xlink:href="/find-my-legislator/by-county?county=LUZERNE">
					<text class="maplabels1" x="20170.395" y="8529.249" style="font-variant-caps:normal;font-variant-east-asian:normal;font-variant-ligatures:normal;font-variant-numeric:normal">LUZERNE</text>
				</a>
				<a aria-hidden="true" xlink:href="/find-my-legislator/by-county?county=FRANKLIN">
					<text class="maplabels1" x="12903.679" y="15547.977" style="font-variant-caps:normal;font-variant-east-asian:normal;font-variant-ligatures:normal;font-variant-numeric:normal">FRANKLIN</text>
				</a>
				<a aria-hidden="true" xlink:href="/find-my-legislator/by-county?county=ADAMS">
					<text class="maplabels1" x="14992.543" y="16075.027" style="font-variant-caps:normal;font-variant-east-asian:normal;font-variant-ligatures:normal;font-variant-numeric:normal">ADAMS</text>
				</a>
				<a aria-hidden="true" xlink:href="/find-my-legislator/by-county?county=MONROE">
					<text class="maplabels1" x="22997.992" y="9396.1465" style="font-variant-caps:normal;font-variant-east-asian:normal;font-variant-ligatures:normal;font-variant-numeric:normal">MONROE</text>
				</a>
			</g>
			<a aria-hidden="true" xlink:href="/find-my-legislator/by-county?county=LACKAWANNA">
				<text class="maplabels1" transform="rotate(-89.294)" x="-7795.478" y="22756.668" stroke-width="36.194" style="font-variant-caps:normal;font-variant-east-asian:normal;font-variant-ligatures:normal;font-variant-numeric:normal">LACKAWANNA</text>
			</a>
		</g>
		<a aria-hidden="true" xlink:href="/find-my-legislator/by-county?county=MONTOUR">
			<text class="maplabels1" transform="rotate(56.498)" x="17123.74" y="-9833.7705" font-size="282.84px" stroke-width="32.244" style="font-variant-caps:normal;font-variant-east-asian:normal;font-variant-ligatures:normal;font-variant-numeric:normal">MONTOUR</text>
		</a>
		<g font-size="317.5px">
			<a aria-hidden="true" xlink:href="/find-my-legislator/by-county?county=LYCOMING">
				<text class="maplabels1" x="15450.475" y="7715.8691" stroke-width="36.195" style="font-variant-caps:normal;font-variant-east-asian:normal;font-variant-ligatures:normal;font-variant-numeric:normal">LYCOMING</text>
			</a>
			<a aria-hidden="true" xlink:href="/find-my-legislator/by-county?county=NORTHAMPTON">
				<text class="maplabels1" transform="rotate(-29.901)" x="14346.948" y="21272.598" stroke-width="36.195" style="font-variant-caps:normal;font-variant-east-asian:normal;font-variant-ligatures:normal;font-variant-numeric:normal">NORTHAMPTON</text>
			</a>
			<g stroke-width="36.195">
				<a aria-hidden="true" xlink:href="/find-my-legislator/by-county?county=CARBON">
					<text class="maplabels1" x="21377.545" y="10312.104" style="font-variant-caps:normal;font-variant-east-asian:normal;font-variant-ligatures:normal;font-variant-numeric:normal">CARBON</text>
				</a>
				<a aria-hidden="true" xlink:href="/find-my-legislator/by-county?county=JEFFERSON">
					<text class="maplabels1" x="7100" y="8909.3711" style="font-variant-caps:normal;font-variant-east-asian:normal;font-variant-ligatures:normal;font-variant-numeric:normal">JEFFERSON</text>
				</a>
				<a aria-hidden="true" xlink:href="/find-my-legislator/by-county?county=ALLEGHENY">
					<text class="maplabels1" x="2808.6719" y="12688.427" style="font-variant-caps:normal;font-variant-east-asian:normal;font-variant-ligatures:normal;font-variant-numeric:normal">ALLEGHENY</text>
				</a>
				<a aria-hidden="true" xlink:href="/find-my-legislator/by-county?county=WESTMORELAND">
					<text class="maplabels1" x="4900.7075" y="13730.387" style="font-variant-caps:normal;font-variant-east-asian:normal;font-variant-ligatures:normal;font-variant-numeric:normal">WESTMORELAND</text>
				</a>
				<a aria-hidden="true" xlink:href="/find-my-legislator/by-county?county=CAMBRIA">
					<text class="maplabels1" x="8467.4609" y="12486.701" style="font-variant-caps:normal;font-variant-east-asian:normal;font-variant-ligatures:normal;font-variant-numeric:normal">CAMBRIA</text>
				</a>
				<a aria-hidden="true" xlink:href="/find-my-legislator/by-county?county=BLAIR">
					<text class="maplabels1" x="10315.78" y="12473.257" style="font-variant-caps:normal;font-variant-east-asian:normal;font-variant-ligatures:normal;font-variant-numeric:normal">BLAIR</text>
				</a>
				<a aria-hidden="true" xlink:href="/find-my-legislator/by-county?county=CRAWFORD">
					<text class="maplabels1" x="2501.3784" y="5788.1152" style="font-variant-caps:normal;font-variant-east-asian:normal;font-variant-ligatures:normal;font-variant-numeric:normal">CRAWFORD</text>
				</a>
				<a aria-hidden="true" xlink:href="/find-my-legislator/by-county?county=CAMERON">
					<text class="maplabels1" x="10475.817" y="7007.3818" style="font-variant-caps:normal;font-variant-east-asian:normal;font-variant-ligatures:normal;font-variant-numeric:normal">CAMERON</text>
				</a>
			</g>
			<a aria-hidden="true" xlink:href="/find-my-legislator/by-county?county=NORTHUMBERLAND">
				<text class="maplabels1" transform="rotate(-19.986)" x="12572.354" y="16128.308" stroke-width="36.196" style="font-variant-caps:normal;font-variant-east-asian:normal;font-variant-ligatures:normal;font-variant-numeric:normal">
					<tspan x="12572.354" y="16128.308">NORTHUM</tspan>
					<tspan x="12572.354" y="16525.184">BERLAND</tspan>
				</text>
			</a>
			<a aria-hidden="true" xlink:href="/find-my-legislator/by-county?county=DAUPHIN">
				<text class="maplabels1" x="16743.949" y="12307.078" stroke-width="36.195" style="font-variant-caps:normal;font-variant-east-asian:normal;font-variant-ligatures:normal;font-variant-numeric:normal">DAUPHIN</text>
			</a>
			<a aria-hidden="true" xlink:href="/find-my-legislator/by-county?county=LEHIGH">
				<text class="maplabels1" x="21991.377" y="11819.799" stroke-width="36.195" style="font-variant-caps:normal;font-variant-east-asian:normal;font-variant-ligatures:normal;font-variant-numeric:normal">LEHIGH</text>
			</a>
			<a aria-hidden="true" xlink:href="/find-my-legislator/by-county?county=MONTGOMERY">
				<text class="maplabels1" transform="rotate(27.418)" x="26318.133" y="1717.1855" stroke-width="36.196" style="font-variant-caps:normal;font-variant-east-asian:normal;font-variant-ligatures:normal;font-variant-numeric:normal">MONTGOMERY</text>
			</a>
			<a aria-hidden="true" xlink:href="/find-my-legislator/by-county?county=WYOMING">
				<text class="maplabels1" x="20010.477" y="6801.3994" stroke-width="36.195" style="font-variant-caps:normal;font-variant-east-asian:normal;font-variant-ligatures:normal;font-variant-numeric:normal">WYOMING</text>
			</a>
			<a aria-hidden="true" xlink:href="/find-my-legislator/by-county?county=SULLIVAN">
				<text class="maplabels1" x="18198.65" y="7226.9165" stroke-width="36.195" style="font-variant-caps:normal;font-variant-east-asian:normal;font-variant-ligatures:normal;font-variant-numeric:normal">SULLIVAN</text>
			</a>
			<a aria-hidden="true" xlink:href="/find-my-legislator/by-county?county=COLUMBIA">
				<text class="maplabels1" transform="rotate(-87.659)" x="-9155.6836" y="19605.945" stroke-width="36.196" style="font-variant-caps:normal;font-variant-east-asian:normal;font-variant-ligatures:normal;font-variant-numeric:normal">COLUMBIA</text>
			</a>
		</g>
		<a aria-hidden="true" xlink:href="/find-my-legislator/by-county?county=Delaware">
			<text class="maplabels1" transform="rotate(-42.527)" x="5897.646" y="27221.693" font-size="287.75px" stroke-width="32.804" style="font-variant-caps:normal;font-variant-east-asian:normal;font-variant-ligatures:normal;font-variant-numeric:normal">
				DELAWARE
			</text>
		</a>
		<g font-size="317.5px">
			<a aria-hidden="true" xlink:href="/find-my-legislator/by-county?county=UNION">
				<text class="maplabels1" x="15940.7" y="9800" stroke-width="36.195" style="font-variant-caps:normal;font-variant-east-asian:normal;font-variant-ligatures:normal;font-variant-numeric:normal">UNION</text>
			</a>
			<a aria-hidden="true" xlink:href="/find-my-legislator/by-county?county=MIFFLIN">
				<text class="maplabels1" transform="rotate(-31.314)" x="5366.3657" y="17194.338" stroke-width="36.193" style="font-variant-caps:normal;font-variant-east-asian:normal;font-variant-ligatures:normal;font-variant-numeric:normal">MIFFLIN</text>
			</a>
			<g stroke-width="36.195">
				<a aria-hidden="true" xlink:href="/find-my-legislator/by-county?county=CLARION">
					<text class="maplabels1" x="5545.6821" y="8587.1885" style="font-variant-caps:normal;font-variant-east-asian:normal;font-variant-ligatures:normal;font-variant-numeric:normal">CLARION</text>
				</a>
				<a aria-hidden="true" xlink:href="/find-my-legislator/by-county?county=MERCER">
					<text class="maplabels1" x="2006.3057" y="7715.8369" style="font-variant-caps:normal;font-variant-east-asian:normal;font-variant-ligatures:normal;font-variant-numeric:normal">MERCER</text>
				</a>
				<a aria-hidden="true" xlink:href="/find-my-legislator/by-county?county=LANCASTER">
					<text class="maplabels1" x="19053.279" y="14958.022" style="font-variant-caps:normal;font-variant-east-asian:normal;font-variant-ligatures:normal;font-variant-numeric:normal">LANCASTER</text>
				</a>
				<a aria-hidden="true" xlink:href="/find-my-legislator/by-county?county=ERIE">
					<text class="maplabels1" x="3354.2979" y="3990.563" style="font-variant-caps:normal;font-variant-east-asian:normal;font-variant-ligatures:normal;font-variant-numeric:normal">ERIE</text>
				</a>
				<a aria-hidden="true" xlink:href="/find-my-legislator/by-county?county=CUMBERLAND">
					<text class="maplabels1" x="14302.198" y="14291.937" style="font-variant-caps:normal;font-variant-east-asian:normal;font-variant-ligatures:normal;font-variant-numeric:normal">CUMBERLAND</text>
				</a>
				<a aria-hidden="true" xlink:href="/find-my-legislator/by-county?county=WAYNE">
					<text class="maplabels1" x="23389.129" y="5754.8286" style="font-variant-caps:normal;font-variant-east-asian:normal;font-variant-ligatures:normal;font-variant-numeric:normal">WAYNE</text>
				</a>
				<a aria-hidden="true" xlink:href="/find-my-legislator/by-county?county=BUCKS">
					<text class="maplabels1" x="23953.871" y="13474.842" style="font-variant-caps:normal;font-variant-east-asian:normal;font-variant-ligatures:normal;font-variant-numeric:normal;color:white;">BUCKS</text>
				</a>
				<a aria-hidden="true" xlink:href="/find-my-legislator/by-county?county=GREENE">
					<text class="maplabels1" x="2072.061" y="16136.652" style="font-variant-caps:normal;font-variant-east-asian:normal;font-variant-ligatures:normal;font-variant-numeric:normal">GREENE</text>
				</a>
				<a aria-hidden="true" xlink:href="/find-my-legislator/by-county?county=FAYETTE">
					<text class="maplabels1" x="4532.957" y="15951.353" style="font-variant-caps:normal;font-variant-east-asian:normal;font-variant-ligatures:normal;font-variant-numeric:normal">FAYETTE</text>
				</a>
			</g>
			<a aria-hidden="true" xlink:href="/find-my-legislator/by-county?county=PHILADELPHIA">
				<text class="maplabels1" fill="#000" transform="rotate(1.0509)" x="25058.23" y="15248.677" stroke-width="36.196" style="font-variant-caps:normal;font-variant-east-asian:normal;font-variant-ligatures:normal;font-variant-numeric:normal">PHILADELPHIA</text>
			</a>
			<g stroke-width="36.195">
				<a aria-hidden="true" xlink:href="/find-my-legislator/by-county?county=PIKE">
					<text class="maplabels1" x="24605.301" y="7681.5713" style="font-variant-caps:normal;font-variant-east-asian:normal;font-variant-ligatures:normal;font-variant-numeric:normal">PIKE</text>
				</a>
				<a aria-hidden="true" xlink:href="/find-my-legislator/by-county?county=SUSQUEHANNA">
					<text class="maplabels1" x="20534.389" y="5056.1841" style="font-variant-caps:normal;font-variant-east-asian:normal;font-variant-ligatures:normal;font-variant-numeric:normal">SUSQUEHANNA</text>
				</a>
				<a aria-hidden="true" xlink:href="/find-my-legislator/by-county?county=WASHINGTON">
					<text class="maplabels1" x="1694.3328" y="14395.776" style="font-variant-caps:normal;font-variant-east-asian:normal;font-variant-ligatures:normal;font-variant-numeric:normal">WASHINGTON</text>
				</a>
				<a aria-hidden="true" xlink:href="/find-my-legislator/by-county?county=POTTER">
					<text class="maplabels1" x="12138.781" y="5187.3926" style="font-variant-caps:normal;font-variant-east-asian:normal;font-variant-ligatures:normal;font-variant-numeric:normal">POTTER</text>
				</a>
				<a aria-hidden="true" xlink:href="/find-my-legislator/by-county?county=SNYDER">
					<text class="maplabels1" x="15652.31" y="11034.868" style="font-variant-caps:normal;font-variant-east-asian:normal;font-variant-ligatures:normal;font-variant-numeric:normal">SNYDER</text>
				</a>
				<a aria-hidden="true" xlink:href="/find-my-legislator/by-county?county=SOMERSET">
					<text class="maplabels1" x="6921.5137" y="15460.557" style="font-variant-caps:normal;font-variant-east-asian:normal;font-variant-ligatures:normal;font-variant-numeric:normal">SOMERSET</text>
				</a>
				<a aria-hidden="true" xlink:href="/find-my-legislator/by-county?county=FULTON">
					<text class="maplabels1" x="11297.63" y="15649.067" style="font-variant-caps:normal;font-variant-east-asian:normal;font-variant-ligatures:normal;font-variant-numeric:normal">FULTON</text>
				</a>
			</g>
			<a aria-hidden="true" xlink:href="/find-my-legislator/by-county?county=LAWRENCE">
				<text class="maplabels1" transform="rotate(-37.43)" x="-4767.0571" y="9139.6426" stroke-width="36.195" style="font-variant-caps:normal;font-variant-east-asian:normal;font-variant-ligatures:normal;font-variant-numeric:normal">LAWRENCE</text>
			</a>
			<a aria-hidden="true" xlink:href="/find-my-legislator/by-county?county=YORK">
				<text class="maplabels1" x="17406.799" y="15570.322" stroke-width="36.195" style="font-variant-caps:normal;font-variant-east-asian:normal;font-variant-ligatures:normal;font-variant-numeric:normal">YORK</text>
			</a>
		</g>
	</g>
</svg>