<svg xmlns="http://www.w3.org/2000/svg" xmlns:xlink="http://www.w3.org/1999/xlink" id="svg1" version="1.1" viewBox="0 0 132.292 132.292">
   <style>

      .philadelphia {
         fill: #55298a;
      }

      .philadelphia:hover {
         filter: brightness(1.5);
      }

      .berks {
         fill: #2bb48e;
      }

      .berks:hover {
         filter: brightness(1.5);
      }
      .bucks {
         fill: #2bb48e;
      }

      .bucks:hover {
         filter: brightness(1.5);
      }

      .chester {
         fill: #2bb48e;      
      }

      .chester:hover {
         filter: brightness(1.5);
      }
      
      .delaware {
         fill: #2bb48e;   
      }
      
      .delaware:hover {
         filter: brightness(1.5);
      }

      .lancaster {
         fill: #2bb48e;   
      }

      .lancaster:hover {
         filter: brightness(1.5);
      }


      .montgomery {
         fill: #2bb48e;   
      }

      .montgomery:hover {
         filter: brightness(1.5);
      }


      .schuylkill {
         fill: #2bb48e;      
      }

      .schuylkill:hover {
         filter: brightness(1.5);
      }      
   </style>

      <g id="layer1" transform="translate(-248.691 -128.103) scale(.01435)">
         <a xlink:href="/find-my-legislator/by-county?county=SCHUYLKILL" id="schuylkill-a" aria-hidden="true">
            <path class="region4 schuylkill" id="schuylkill" d="m20833 10039 355.71 462.77 662.47 538.83-206.21 156.27-363.05 174.55-296.54 158.1c-168.71 72.38-203.75 133.81-239.97 307.97-33.58 161.52-73.68 111.5-203.47 111.5-79.35 0-175.52 64.14-252.74 88.64-44.6 14.14-96.33 58.74-138.69 65.8-23.28 21.52-72.34 25.02-102.19 34.73-128.89 47.36-260.39 121.87-399.65 128.85-156.09 7.83-309.13 25.76-460.77 62.14-69.59 16.7-210.3 31.53-269.17 65.8-6.14 0-8.38.64-15.57 1.83l-414.24-325.34-672.45-603.15 1347.7-658.9 311.14-147.13 86.68-440.49 340.34-391.13 772.78 275.99z" /> </a>
         <a xlink:href="/find-my-legislator/by-county?county=MONTGOMERY" id="montgomery-a" aria-hidden="true">
            <path class="region4 montgomery" id="montgomery" d="m22084 13854 61.18-5.49c36.07-9.48 122.14-66.07 152.38-23.76 24.98 2.1 65.95 33.5 82.12 51.18 34.64 37.9 36.09 26.64 78.47 22.85 51.93-71.76 63.94 1.76 94.89 38.38 34.01 40.26 23.01 132.17 83.03 127.94 35.54-43.4 80.59-66.69 95.81 6.4 3.91 18.79.99 42.74 6.38 60.31 7.22 23.58 19.13 44.97 26.46 68.54.98 2.03 6.82 12.06 7.3 15.54 46.84 29.26 43.66 158.77 121.36 72.19 47.05 0 10.46 98.99 22.81 135.26 31.49 92.4 105.38 39.29 177.01 39.29 21.74 27.35-25.95 147.72 30.11 143.48 38.31-2.9 117.98-40.79 149.63-9.14 16.01 16.01 26.29 59.44 35.59 81.34 12.14 28.55 59.75 101.46 84.86 117.89 28.01 18.34 76.57-30.78 106.75-8.23l35.58 53.92c62.92 38.25 95.48 82.14 115.88 151.7 10.78 36.73 19.06 61.75 55.66 76.77 14.83 6.09 29.37 7.72 41.97 17.36 12.32 9.41 17.8 21.03 27.37 29.24 2.84 25.41 25.58 71.81 41.98 91.39 23.08 27.57 28.57 51.39 46.53 82.25l46.53 45.69c39.37-40.74 91.65-72.61 137.78-103.27 22.51-14.97 46.63-24.46 68.43-42.03 18.34-14.77 35.81-40.51 52.01-52.09 4.55-55.57-58.73-95.61-95.8-126.12-22.07-18.15-119.43-112.19-110.41-137.08 40.16-15.07 71.72-76.72 108.58-101.44 23.87-21.99 67.13-120.54 97.63-107.83 43.04 17.95 74.11 70.46 110.4 98.69h12.78c2.73-2.12 2.9-2.35 6.39-2.74l31.93-24.67c10.55 0 22.64-3.87 30.11 5.48 92.53 25.25 207.02 211.56 308.4 166.32 81.03-36.17 39.01-98.85 62.96-163.58 25.79-69.68 69.51-100.67 107.66-158.1l186.14-188.25-2005.5-1561.8-193.53-160.85z" /> </a>
         <a xlink:href="/find-my-legislator/by-county?county=LANCASTER" id="lancaster-a" aria-hidden="true">
            <path class="region4 lancaster" id="lancaster" d="m20262 16807 101.29-135.14c60.25-42.25 124.74-151.26 165.15-213.85 39.13-60.63 118.71-145.12 125.01-220.24 23.83-27.35 40.62-126.23 58.39-166.32 26.64-60.13 62.94-111.13 102.19-163.59 33-40.53 12.12-117.12 3.65-163.58-11-60.27-3.49-97.03 36.5-147.13 0-66.95-49.57-141.91-12.77-208.36l125-225.73c66.54-101.73 101.28-171.23 101.28-294.27 0-75.17-30.17-234.34 10.95-296.09 14.84-6.19 23.82-22.73 41.06-25.59 3.44-2.82 3.86-2.66 7.3-5.48 4.7-.42 7.94-2.47 10.94-5.48 18.2 0 50.82-19.28 68.44-27.42l129.56-93.21-1180.7-1000.7-720.81 338.13-421.54 67.63-670.45 266.58-116.94 31.34c-46.86 8.73-97.18 49.3-128.66 84.07-41.78 46.17-102.05 24.35-141.42 59.41-28.16 25.07-58.91 41.47-87.59 63.05-23.38 1.81-48.3 10.08-70.26 11.88-44.09 36.77-71.58 114.59-89.42 169.98 3.97 4.52 6.26 8.63 10.97 10.99 4.83 8.7 27.31 31.95 35.63 37.53 8.76 20.94 26.78 43.89 42.05 60.4 14.79 16.02 23.6 35.38 35.64 53.1 14.65 21.58 32.05 46.85 50.26 65.9 19.05 19.91 42.89 42.01 57.58 64.08 98.56 70.46 153.26 57.32 268.68 82.37 55 11.94 99.9 31.13 159.01 31.13 51.62 0 76.68-42.64 131.6-36.62 2.56 2.25 4.54 4.44 7.31 5.49 31.32 49.23 20.34 118.23 57.58 171.17 69.3 98.48 86.19 145.81 114.24 261.78 29.79 123.16 71.41 177.91 180.03 240.73 77.77 61.82 196.27 107.08 289.7 138.22 38.2 84.47 18.61 211.38 66.71 283.75 27.65 41.6 69.04 76.43 97.79 119.9 30 45.4 45.49 89.57 85.9 129.98 5.2 5.37 6.74 8.39 11.91 10.97 10.35 20.78 40.41 44.1 55.66 63.06 31.9 39.69 60.15 95.51 104.93 119.71 67.85 36.66 95.54 134.2 135.95 195.57 34.06 51.73 58.16 129.76 64.85 190.86z" /> </a>
         <a xlink:href="/find-my-legislator/by-county?county=Delaware" id="delaware-a" aria-hidden="true">
            <path class="region4 delaware" id="delaware" d="M23915 15332c-1.8 1.84-3.64 3.64-1.79 1.85 8.03 32.41 37.78 50.93 71.17 53.92 4.64 9.3 17.08 10.14 21.9 21.02 11.57 26.14 10.4 52.22 25.54 79.51 58.33 105.17-40.05 214.7-61.13 321.68-24.33 123.46 140.3 88.98 211.86 133.68-65.08 53.22-129.17 121.83-214.6 97.53-67.9-19.31-157.99-13.58-224.45 4.57-138.36 34.59-267.2 169.83-380.48 252.22-17.94 13.04-37.66 23.21-58.15 32l-107.8-61.48c-5.41-4.15-14.82-11.67-22.01-12.55-34.98-39.39-197.14-69.34-250.92-79.51-103.17-19.52-268.11-27.43-397.62-1.76l-1.11-112.47c2.45-48.1-24.54-129.54 22.81-166.33 22.55-17.51 50.39-31.56 67.52-54.83 14.61-19.83 29.59-72.68 56.57-74.94 12.8-14.45 30.49-15 42.88-37.47 15.67-28.39 30.09-92.39 59.31-108.75 60.19-33.69 78.31-93.88 129.56-143.47 62.24-60.21 148.9-90.37 222.64-133.43 19.37-8.81 56.88-13.23 67.52-32.9 11.81-21.86-18.25-55.73-18.25-82.25 0-28.03 33.09-78.45 59.31-84.07 11.73-14.36 36.09-25.31 51.09-42.04 21.72-24.25 31.27-56.77 34.67-88.64 4.96-46.37 16.39-44.71 41.06-77.68 22.32-6.09 39.16-28.46 59.31-40.21l114.05-53.92c62.92 38.25 95.48 82.14 115.88 151.7 10.78 36.73 19.06 61.75 55.66 76.77 14.83 6.09 29.37 7.72 41.97 17.36 12.32 9.41 17.8 21.03 27.37 29.24 2.84 25.41 25.58 71.81 41.98 91.39 23.08 27.57 28.57 51.39 46.53 82.25l46.53 45.69z" /> </a>
         <a xlink:href="/find-my-legislator/by-county?county=CHESTER" id="chester-a" aria-hidden="true">
            <path class="region4 chester" id="chester" d="m22527 16175-1.11-112.47c2.45-48.1-24.54-129.54 22.81-166.33 22.55-17.51 50.39-31.56 67.52-54.83 14.61-19.83 29.59-72.68 56.57-74.94 12.8-14.45 30.49-15 42.88-37.47 15.67-28.39 30.09-92.39 59.31-108.75 60.19-33.69 78.31-93.88 129.56-143.47 62.24-60.21 148.9-90.37 222.64-133.43 19.37-8.81 56.88-13.23 67.52-32.9 11.81-21.86-18.25-55.73-18.25-82.25 0-28.03 33.09-78.45 59.31-84.07 11.73-14.36 36.09-25.31 51.09-42.04 21.72-24.25 31.27-56.77 34.67-88.64 4.96-46.37 16.39-44.71 41.06-77.68 22.32-6.09 39.16-28.46 59.31-40.21l114.05-53.92-35.58-53.92c-30.18-22.55-78.74 26.57-106.75 8.23-25.11-16.43-72.72-89.34-84.86-117.89-9.3-21.9-19.58-65.33-35.59-81.34-31.65-31.65-111.32 6.24-149.63 9.14-56.06 4.24-8.37-116.13-30.11-143.48-71.63 0-145.52 53.11-177.01-39.29-12.35-36.27 24.24-135.26-22.81-135.26-77.7 86.58-74.52-42.93-121.36-72.19-.48-3.48-6.32-13.51-7.3-15.54-7.33-23.57-19.24-44.96-26.46-68.54-5.39-17.57-2.47-41.52-6.38-60.31-15.22-73.09-60.27-49.8-95.81-6.4-60.02 4.23-49.02-87.68-83.03-127.94-30.95-36.62-42.96-110.14-94.89-38.38-42.38 3.79-43.83 15.05-78.47-22.85-16.17-17.68-57.14-49.08-82.12-51.18-30.24-42.31-116.31 14.28-152.38 23.76l-61.18 5.49-273.68 175.46-474.46 386.57-129.56 93.21c-17.62 8.14-50.24 27.42-68.44 27.42-3 3.01-6.24 5.06-10.94 5.48-3.44 2.82-3.86 2.66-7.3 5.48-17.24 2.86-26.22 19.4-41.06 25.59-41.12 61.75-10.95 220.92-10.95 296.09 0 123.04-34.74 192.54-101.28 294.27l-125 225.73c-36.8 66.45 12.77 141.41 12.77 208.36-39.99 50.1-47.5 86.86-36.5 147.13 8.47 46.46 29.35 123.05-3.65 163.58-39.25 52.46-75.55 103.46-102.19 163.59-17.77 40.09-34.56 138.97-58.39 166.32-6.3 75.12-85.88 159.61-125.01 220.24-40.41 62.59-104.9 171.6-165.15 213.85l-101.29 135.14 1464.4.11 52.97 13.71c7.57-22.81 10.86-45.3 18.25-67.63 7.75-23.45 22.16-44.5 31.02-66.71 10.32-3.87 27.09-40.64 37.41-51.18 15.63-15.94 27.21-40.54 44.71-54.83 30.81-25.14 70.14-65.34 95.81-96.87 100.08-134 267.35-195.15 403.29-269.59 32.2-17.63 72.51-30.42 116.99-39.23z" /> </a>
         <a xlink:href="/find-my-legislator/by-county?county=BUCKS" id="bucks-a" aria-hidden="true">
            <path class="region4 bucks" id="bucks" d="m25226 14977-18.68-92.27c-1.46-23.97-18.5-39-15.19-65.96 2.99-1.5 24.99-35.99 31.02-42.95 27.42-31.69 44.37-62.79 45.62-106.01.91-31.23-7.26-62.52-8.21-94.13-1.6-52.72-25.88-40.38-61.13-56.66-30.86-14.26-70.46-27.57-94.89-52.09l-77.56-67.62-2005.5-1561.8 316.62-406.68 319.35-274.16c30.88-11.11 68.38-60.77 93.86-83.16 49.22-43.23 96.69-91.24 151.46-128.85 38.9-26.7 106.99-94.02 151.46-102.36 44.11-41.21 173.06-49.41 215.46-81.33-38.87 31.58-1.51 54.54 14.59 84.07 35.55 65.16-68.32 133.83 13.69 185.52 53.17 33.52 94.73 68.08 135.04 21.02 90.64-105.81 216.89-19.58 288.33 38.38 95.33 77.33 84.08 154.47 110.4 286.04.61 3.04 1.23 6.1 1.83 9.14 13.37 66.82-3.97 133.08-12.78 200.14-6.65 50.56-35.03 88.97-20.07 143.47 30.75 112.06 58.57 207.4 189.78 236.7 65.11 14.54 139.56-35.08 198-5.49 91.19 46.16 85.34 86.55 114.97 169.07 2.73 7.61 5.48 15.24 8.21 22.85 16.48 45.88 31.02 73.93 38.32 121.54 2.63 17.16 5.84 54.07 13.69 68.54 22.04 40.64 95.17 86.62 135.03 111.49 113.77 70.98 211.67 104.72 247.27 247.66 14.73 59.13 10.39 115.19 62.05 154.44 10.64 8.09 38.03 18.29 50.18 25.59 69.94 42.04 139.91 84.08 209.86 126.12 45.36 27.26 52.86 150.16 93.98 189.17 60.12 57.02 167.76 115.79 128.65 209.27-52.31 125.06-158.75 59.44-230.84 147.14-45.14 54.93-111.01-3.75-160.59-17.37-36.45-10.02-52.38 32.23-61.13 65.8-37.12 142.47-242.59 255.88-385.96 255.88-84 0-157.48 55.45-226.17 119.85z" /> </a>
         <a xlink:href="/find-my-legislator/by-county?county=BERKS" id="berks-a" aria-hidden="true">
            <path class="region4 berks" id="berks" d="m18903 12397 870.48 714.65 133.25 53 248.14 250.4 1180.7 1000.7 474.46-386.57 273.68-175.46 743.58-1177.1-1545.6-1305-296.54 158.1c-168.71 72.38-203.75 133.81-239.97 307.97-33.58 161.52-73.68 111.5-203.47 111.5-79.35 0-175.52 64.14-252.74 88.64-44.6 14.14-96.33 58.74-138.69 65.8-23.28 21.52-72.34 25.02-102.19 34.73-128.89 47.36-260.39 121.87-399.65 128.85-156.09 7.83-309.13 25.76-460.77 62.14-69.59 16.7-210.3 31.53-269.17 65.8-6.14 0-8.38.64-15.57 1.83z" /> </a>
         <a xlink:href="/find-my-legislator/by-county?county=PHILADELPHIA" id="philadelphia-a" aria-hidden="true">
            <path class="region1 philadelphia" id="philadelphia" d="M24514 15838c-36.38 50.83-192.01 36.69-250.92 56.66-27.82 9.42-54.06 28.29-80.12 49.61-71.56-44.7-236.19-10.22-211.86-133.68 21.08-106.98 119.46-216.51 61.13-321.68-15.14-27.29-13.97-53.37-25.54-79.51-4.82-10.88-17.26-11.72-21.9-21.02-33.39-2.99-63.14-21.51-71.17-53.92-1.85 1.79-.01-.01 1.79-1.85l-3.62 3.68c39.37-40.74 91.65-72.61 137.78-103.27 22.51-14.97 46.63-24.46 68.43-42.03 18.34-14.77 35.81-40.51 52.01-52.09 4.55-55.57-58.73-95.61-95.8-126.12-22.07-18.15-119.43-112.19-110.41-137.08 40.16-15.07 71.72-76.72 108.58-101.44 23.87-21.99 67.13-120.54 97.63-107.83 43.04 17.95 74.11 70.46 110.4 98.69h12.78c2.73-2.12 2.9-2.35 6.39-2.74l31.93-24.67c10.55 0 22.64-3.87 30.11 5.48 92.53 25.25 207.02 211.56 308.4 166.32 81.03-36.17 39.01-98.85 62.96-163.58 25.79-69.68 69.51-100.67 107.66-158.1l186.14-188.25 77.56 67.62c24.43 24.52 64.03 37.83 94.89 52.09 35.25 16.28 59.53 3.94 61.13 56.66.95 31.61 9.12 62.9 8.21 94.13-1.25 43.22-18.2 74.32-45.62 106.01-6.03 6.96-28.03 41.45-31.02 42.95-3.31 26.96 13.73 41.99 15.19 65.96l18.68 92.27c-63.74 59.75-123.38 127.23-183.51 165.28-40.31 25.51-81.12 21.63-120.44 44.78-10.39 6.11-28.26 17.76-32.85 29.24-34.94 87.47-50.68 125.19-138.69 166.33-61.77 28.88-133.08 37.33-186.13 83.16-101.45 87.62 41.26 304.06-42.88 363.72-5.5 3.89-1.05 6.14-7.3 8.22z" /> </a>
    </g>
</svg>
