<?xml version="1.0" encoding="UTF-8" standalone="no"?>
<!-- Created with Inkscape (http://www.inkscape.org/) -->

<svg
   width="1900"
   height="453"
   viewBox="0 0 502.70832 119.85625"
   version="1.1"
   id="svg1"
   xml:space="preserve"
   inkscape:version="1.4 (86a8ad7, 2024-10-11)"
   sodipodi:docname="pcb-bg-about.svg"
   xmlns:inkscape="http://www.inkscape.org/namespaces/inkscape"
   xmlns:sodipodi="http://sodipodi.sourceforge.net/DTD/sodipodi-0.dtd"
   xmlns="http://www.w3.org/2000/svg"
   xmlns:svg="http://www.w3.org/2000/svg"><sodipodi:namedview
     id="namedview1"
     pagecolor="#ffffff"
     bordercolor="#111111"
     borderopacity="1"
     inkscape:showpageshadow="0"
     inkscape:pageopacity="0"
     inkscape:pagecheckerboard="1"
     inkscape:deskcolor="#d1d1d1"
     inkscape:document-units="px"
     showguides="false"
     inkscape:zoom="0.35355339"
     inkscape:cx="892.36875"
     inkscape:cy="803.2733"
     inkscape:window-width="1920"
     inkscape:window-height="1115"
     inkscape:window-x="-9"
     inkscape:window-y="-9"
     inkscape:window-maximized="1"
     inkscape:current-layer="svg1" /><defs
     id="defs1" /><g
     id="g12"
     transform="translate(253.71377,-488.98862)"><rect
       style="fill:#11b1e7;fill-opacity:1;fill-rule:evenodd;stroke-width:0.293391"
       id="rect10-2"
       width="318.73355"
       height="119.85625"
       x="-69.739006"
       y="488.98862" /><path
       id="path12"
       style="fill:#0998c9;fill-opacity:1;fill-rule:evenodd;stroke-width:0.265306"
       d="M -59.917333,488.98863 H -253.71377 v 119.85625 h 194.135947 l 0.63252,-1.19683 c 1.83097,-3.46419 11.20968,-20.67465 13.22607,-24.45587 0.6208,-1.16416 2.13785,-4.02166 3.37137,-6.35 1.23353,-2.32833 4.26747,-8.04333 6.74222,-12.7 2.47475,-4.65666 5.24023,-9.86661 6.14536,-11.5781 l 1.6459,-3.11195 -15.397,-29.03492 c -8.20903,-15.48054 -15.96401,-30.06413 -16.70595,-31.42858 z" /></g><path
     style="fill:#109fd0"
     d="m 0.52916,119.32709 c 0,-0.29104 -0.11906,-0.52917 -0.26458,-0.52917 C 0.09002,118.79792 0,110.123 0,93.302312 V 67.806708 L 2.05052,66.945072 C 4.30458,65.997907 9.627,64.880098 9.627,64.880098 c 0.0325,-0.01671 3.44005,-0.502373 6.66196,-0.53904 3.30495,-0.03761 6.5975,0.421116 6.5975,0.421116 l 1.31137,0.187066 c 9.15535,1.306006 19.06773,8.480148 25.59814,18.526808 3.32721,5.118714 4.89583,8.844384 6.54317,15.540864 1.35271,5.498818 2.37769,13.825408 2.39426,19.450278 l 0.004,1.38906 H 40.9402 23.143 9.91442 5.22174 c -4.51629,0 -4.69268,-0.0199 -4.69268,-0.52916 z"
     id="path2"
     sodipodi:nodetypes="ssscscscssssccccss" /><path
     id="path14"
     style="fill:#3fc0ec"
     d="M 190.83796 -0.79840087 L 191.32785 0.061494954 C 191.59739 0.53443593 200.09373 16.512962 208.56194 32.482255 L 223.95842 61.517174 L 222.31304 64.629129 C 221.40792 66.340617 218.64243 71.550568 216.16768 76.207234 C 213.69293 80.863901 210.65899 86.578901 209.42546 88.907234 C 208.19194 91.235567 206.67437 94.093066 206.05357 95.257233 C 204.03718 99.038449 194.65848 116.24943 192.8275 119.71362 L 192.75102 119.85832 L 195.24183 119.85832 L 195.52863 119.31675 C 196.62611 117.24308 204.87022 102.17367 212.40822 87.989977 C 219.9462 73.806285 226.1686 61.990763 226.2358 61.733699 C 226.30497 61.469159 225.44468 59.57092 224.25349 57.359806 C 223.09596 55.211187 215.97944 41.813132 208.43275 27.590047 L 193.37011 -0.79840087 L 192.10403 -0.79840087 L 190.83796 -0.79840087 z " /><path
     id="path21"
     style="fill:#2bbff0;fill-opacity:1;stroke:none;stroke-width:0.214514;stroke-linecap:square;stroke-linejoin:round;stroke-miterlimit:0;stroke-dasharray:none;paint-order:markers fill stroke"
     d="M 502.71143 51.042879 A 87.370407 87.370407 0 0 0 428.08756 119.98854 L 471.50351 119.98854 A 45.714226 45.714226 0 0 1 502.71143 93.360192 L 502.71143 51.042879 z " /><path
     id="path20"
     style="fill:#11a0d1;fill-opacity:1;stroke:none;stroke-width:0.29885;stroke-linecap:square;stroke-linejoin:round;stroke-miterlimit:0;stroke-dasharray:none;paint-order:markers fill stroke"
     d="M 17.065625 64.029166 A 41.936459 53.975002 0 0 0 0 68.783398 L 0 119.8578 L 58.907515 119.8578 A 41.936459 53.975002 0 0 0 59.002083 118.00417 A 41.936459 53.975002 0 0 0 17.065625 64.029166 z " /><rect
     style="fill:#20aad9;fill-opacity:1;fill-rule:evenodd;stroke-width:0.259223"
     id="rect9-7"
     width="18.969999"
     height="18.227694"
     x="70.861992"
     y="46.002464"
     transform="rotate(45.285995)" /><rect
     style="fill:#20aad9;fill-opacity:1;fill-rule:evenodd;stroke-width:0.174233"
     id="rect9"
     width="12.750392"
     height="12.251462"
     x="55.100407"
     y="30.306654"
     transform="rotate(45.285995)" /><path
     id="path22"
     style="fill:#20aad9;fill-opacity:1;fill-rule:evenodd;stroke-width:0.174233"
     d="m 17.233764,110.80206 -8.7064445,8.61963 0.098701,0.0997 17.5715375,0.33486 z" /><path
     id="path22-8"
     style="fill:#2cc0f1;fill-opacity:1;fill-rule:evenodd;stroke-width:0.697221"
     d="M 404.50089 -0.058394368 L 356.14208 0.25941569 C 354.62742 2.5133892 350.96748 7.9744462 350.96514 7.9716063 L 410.04732 7.9674722 L 404.50089 -0.058394368 z " /><path
     id="path22-8-2"
     style="fill:#2cc0f1;fill-opacity:1;fill-rule:evenodd;stroke-width:0.39771"
     d="m 473.57263,13.639845 c 0,0 -16.59936,24.74848 -16.6069,24.73937 l 33.70185,-0.002 z"
     sodipodi:nodetypes="cccc" /></svg>
