<svg xmlns="http://www.w3.org/2000/svg" width="600" height="400" viewBox="0 0 158.8 105.8">
  <defs>
    <filter id="filter26" width="1.1" height="1.1" x="0" y="0" style="color-interpolation-filters:sRGB">
      <feFlood flood-color="#000" flood-opacity=".5" result="flood"/>
      <feGaussianBlur in="SourceGraphic" result="blur" stdDeviation="1"/>
      <feOffset dx="2" dy="5" in="blur" result="offset"/>
      <feComposite in="flood" in2="offset" operator="in" result="comp1"/>
      <feComposite in="SourceGraphic" in2="comp1" result="comp2"/>
    </filter>
    <filter id="filter28" width="1.4" height="1.7" x="-.2" y="-.2" style="color-interpolation-filters:sRGB">
      <feFlood flood-color="#000" flood-opacity=".5" result="flood"/>
      <feGaussianBlur in="SourceGraphic" result="blur" stdDeviation="1"/>
      <feOffset dx="2" dy="5" in="blur" result="offset"/>
      <feComposite in="flood" in2="offset" operator="in" result="comp1"/>
      <feComposite in="SourceGraphic" in2="comp1" result="fbSourceGraphic"/>
      <feColorMatrix in="fbSourceGraphic" result="fbSourceGraphicAlpha" values="0 0 0 -1 0 0 0 0 -1 0 0 0 0 -1 0 0 0 0 1 0"/>
      <feFlood flood-color="#000" flood-opacity=".5" result="flood"/>
      <feGaussianBlur in="fbSourceGraphic" result="blur" stdDeviation="1"/>
      <feOffset dx="2" dy="5" in="blur" result="offset"/>
      <feComposite in="flood" in2="offset" operator="in" result="comp1"/>
      <feComposite in="fbSourceGraphic" in2="comp1" result="comp2"/>
    </filter>
    <filter id="filter30" width="1.1" height="1.1" x="0" y="0" style="color-interpolation-filters:sRGB">
      <feFlood flood-color="#000" flood-opacity=".5" result="flood"/>
      <feGaussianBlur in="SourceGraphic" result="blur" stdDeviation="1"/>
      <feOffset dx="2" dy="5" in="blur" result="offset"/>
      <feComposite in="flood" in2="offset" operator="in" result="comp1"/>
      <feComposite in="SourceGraphic" in2="comp1" result="comp2"/>
    </filter>
    <filter id="filter36" width="1.2" height="1.4" x="-.1" y="-.1" style="color-interpolation-filters:sRGB">
      <feFlood flood-color="#000" flood-opacity=".5" result="flood"/>
      <feGaussianBlur in="SourceGraphic" result="blur" stdDeviation="1"/>
      <feOffset dx="2" dy="5" in="blur" result="offset"/>
      <feComposite in="flood" in2="offset" operator="in" result="comp1"/>
      <feComposite in="SourceGraphic" in2="comp1" result="comp2"/>
    </filter>
    <filter id="filter38" width="1.1" height="1.1" x="0" y="0" style="color-interpolation-filters:sRGB">
      <feFlood flood-color="#000" flood-opacity=".5" result="flood"/>
      <feGaussianBlur in="SourceGraphic" result="blur" stdDeviation="1"/>
      <feOffset dx="2" dy="5" in="blur" result="offset"/>
      <feComposite in="flood" in2="offset" operator="in" result="comp1"/>
      <feComposite in="SourceGraphic" in2="comp1" result="comp2"/>
    </filter>
    <filter id="filter40" width="1.1" height="1.2" x="0" y="0" style="color-interpolation-filters:sRGB">
      <feFlood flood-color="#000" flood-opacity=".5" result="flood"/>
      <feGaussianBlur in="SourceGraphic" result="blur" stdDeviation="1"/>
      <feOffset dx="2" dy="5" in="blur" result="offset"/>
      <feComposite in="flood" in2="offset" operator="in" result="comp1"/>
      <feComposite in="SourceGraphic" in2="comp1" result="comp2"/>
    </filter>
    <filter id="filter42" width="1.1" height="1.1" x="0" y="0" style="color-interpolation-filters:sRGB">
      <feFlood flood-color="#000" flood-opacity=".5" result="flood"/>
      <feGaussianBlur in="SourceGraphic" result="blur" stdDeviation="1"/>
      <feOffset dx="2" dy="5" in="blur" result="offset"/>
      <feComposite in="flood" in2="offset" operator="in" result="comp1"/>
      <feComposite in="SourceGraphic" in2="comp1" result="comp2"/>
    </filter>
    <filter id="filter44" width="1.1" height="1.1" x="0" y="0" style="color-interpolation-filters:sRGB">
      <feFlood flood-color="#000" flood-opacity=".5" result="flood"/>
      <feGaussianBlur in="SourceGraphic" result="blur" stdDeviation="1"/>
      <feOffset dx="2" dy="5" in="blur" result="offset"/>
      <feComposite in="flood" in2="offset" operator="in" result="comp1"/>
      <feComposite in="SourceGraphic" in2="comp1" result="comp2"/>
    </filter>
    <filter id="filter46" width="1.6" height="1.7" x="-.2" y="-.2" style="color-interpolation-filters:sRGB">
      <feFlood flood-color="#000" flood-opacity=".5" result="flood"/>
      <feGaussianBlur in="SourceGraphic" result="blur" stdDeviation="1"/>
      <feOffset dx="3" dy="6" in="blur" result="offset"/>
      <feComposite in="flood" in2="offset" operator="in" result="comp1"/>
      <feComposite in="SourceGraphic" in2="comp1" result="comp2"/>
    </filter>
    <style>
      #Philadelphia {
        fill: #55298a;
      }
    </style>
  </defs>
  <g transform="matrix(.55924 0 0 .55924 8.6851 11.901)">








    <g id="region1" style="filter:url(#filter46)" transform="matrix(1.864 0 0 1.864 -190.08 -102.89)">
      <path id="Philadelphia" d="m239.6 120.3 1.6 1h.5l.1.1v.6l.1.2.2.3v.8l-.1.2-.1.2-.2.1-.2.2v.2l-.2.1v.4l-.1.1-.1.1.4.4-.2.2-.2.2h-.1l-.2.4-.1.1-.2.2-.2.2-.2.1-.1.1-.1.1-.3.1-.3.2-.4.1-.2.1-.1.1-.1.1-.2.2v.1l-.1.2v.2l-.1.1-.1.2v.1l-.2.2-.2.2-.2.2-.2.2-.3.1-.3.1-.3.1-.2.1-.3.1-.4.3-.2.2h-.1l-.2.2-.1.2v.1l-.1.2v1.3l.1.2v.1l.2.2v1.3l-.2.2-.1.2-.2.2-.2.1h-.2l-.2.1h-1.2l-.2.1-.1.1h-.1v.1l-.1.1-.3.3-.3.3-.2-.3-.1-.2h-.7l-.3.1-.3-.1H229.4l-.1-.2v-.2l-.1-.3h.1l.1-.1.1-.1v-.1h.1v-.2h.1v-.8h.2v-.7l.1-.5h.2v-.1l.1-.2h-.1v-.2h-.2l-.3-.3v-1h-.4l-.5-.2-.2-.1-.2-.3h.1l.2-.2.4-.3.6-.4.9-.6.8-.8-.7-.6-.7-.6-.5-.5-.5-.6.3-.4 1.4-1.8.5.3 1.1.8.5-.7.5.3.3.3 1.2.8 1 .6.7-.7v-.2l-.2-.3.6-.9.4-.4.2-.5.4-.5.4-.5.6-.6z" style="fill:#fff;stroke-linejoin:round;stroke-width:.40373;stroke:#000"/>
    </g>
    <g id="region2" style="filter:url(#filter28)" transform="translate(-6.3224 -3.9139)">
      <path id="Allegheny" d="M33.1 86.2v.2l-.1.2v.4h.1v.2l.1.1v.9H33l-.2.3v.2h-.2l-.3.3-.1.1-.1.1-.1.1-.1.2-.1.2-.3.4-.4.3H31l-.5.2h-.2l-.6.3-.2.2-.2.3-.1.2v1.5h.1l.2.6h1.3l.1.1.3.2.4.3.7.7v.7l.1 1.2v2.2l-.1 1.4v1l-.7.7-.5.2-.2.2v.2l-.3.4v.2h-.3l-.3.4-.2.1-.3-.1h-.1l-.1.3v.1H29l-.2 1.6-.6 3v.6l-.1.2h.1l.4.5V110.5l-.1.1-.1.1H27.7l-.2.2v.2l.2.4.1.2.1.1V112l-.2.1-.3.7-.1.2-.3.3v.4l.3.1.7.2-.7.3-1 .4-1 .5-1.1.5-.3.2h-1.2l-.7-.2-.3-.1-.2-.2-.7-.3-.3-.1-.8-.5-.3-.2-.1-.3-.2-.3V113.4l.5-.3.4-.1h.3l.6-.1.3-.1.2-.2.4-.3-1-.5-1.6-.7-1.4-.5-1.6-.7-.3-.2-1.6-.7h-.3l-.9-.4-4-1.8-.6-.7-1.5-1.8-.8-.9-1.4-1.7-1.8-2-2-2.3.8-.8.5-.4L4 94.6l.8-.7.6-.5.5-.5.4-.3.8-.7.2-.2.2-.2.2-.3.2-.1H8l.2-.1v-.2l.3-.2.2-.2.2-.2.3-.1.1-.1.1-.1.1-.3.1-.1h.9l.2-.1h.2l.1-.2h.1l.2-.1V85.3l2 .1h2.3l3.1.2h.4l1 .1h3l1 .1H26l.6.2h1.5l2.3.1 1.2.1H32.8z" style="fill:#fff;stroke-linejoin:round;stroke-width:.44704;stroke:#000"/>
    </g>
    <g id="region3" style="filter:url(#filter36)" transform="matrix(1.0706 0 0 1.0706 -16.278 -16.376)">
      <path id="Erie" d="M36.5 0v4.7l-.2 7.9v2.8l6.3.1-.1 2.3V19l-.1 3.6v1.3H37.4l-4.3-.1h-.8l-16-.3h-.8l-2.5-.1-1.9-.1-2.2-.1H9L4 23v-2.2l.2-5.1 1.1-.5.6-.1.5-.3.7-.2.3-.3.4-.2.4-.2.8-.2.3-.1.5-.4h.2l1-.3.6-.2.8-.4.7-.3.8-.3.7-.5.6-.3.6-.5.7-.3.5-.2.7-.3.7-.5.4-.2.2-.2v-.2l.2-.3.1-.3.3-.4.2-.3.3-.5v-.5h.3l.3-.1h.3l.2-.2.2-.2.2-.2H22l.5.1h.4V6.4h-.1l-.2.1h-.2v-.2h-.2l-.1.2v.2h-.2l-.2.1h-1V7l-.2.2-.1.1h-.2v.3l-.1.2-.2.2-.1.1-.1.1v.3h.6l.2-.1.5-.3.4-.1.3-.2.2-.1.5-.3.2-.1V7l.1-.1H23.5l.3-.2h.2l.4-.3.7-.2.2-.2.2-.2.4-.3.4-.2.3-.3.3-.2.4-.3.4-.2.5-.3.5-.2.2-.2.2-.1.4-.2.4-.1.3-.1.4-.2.3-.2.3-.3.3-.2h.3l.3.2h.5l.5-.3.2-.1.4-.2.4-.2.4-.4.3-.2.4-.3h.3l.5-.3.3-.2z" style="fill:#fff;stroke-linejoin:round;stroke-width:.40373;stroke:#000"/>
    </g>
    <g id="region4" style="filter:url(#filter38)" transform="matrix(1.2852 0 0 1.2852 -59.717 -37.911)">
      <path id="Schuylkill" d="m196.2 77.3.3.4.3.3.2.2.7.8 1.8 2.1.3.4.3.3 1 1 .6.4.5.3.8.7 1.4 1.1.4.4.5.4 1.5 1.1-.2.1-.7.6-1.1.9-2 1-1.7 1-.8.3-1.3.7-.4.2-2 1-.4 1.7-.5 2h-.4l-.4-.1-.1-.1-.1-.2h-.1l-.2.1v.1l-.2.2h-.2l-.1-.1-.1-.1-.1-.1h-.2l-.3.5-.3.2-.4.2h-.4l-.5.2-.4.1-.3.2-.8.3-.4.3-.4.4-.3.1-.3.1h-.4l-1.1.4-.7.3-.3.2-.9.2H184l-.8.1h-1.4l-2.4.8-1 .4h-.9l-.5-.4-3.2-2.5-.4-.4-4-3.2-.5-.4-1.5-1.1-.7-.6-.4-.3V92h.2l.5-.3 1-.4.4-.2.9-.5 1.2-.6h.1l.3-.2.8-.3 1.5-.8.7-.3 2.1-1v-.1l1.2-.7 1.5-.7h.3l1-.5 2.8-1.6h.2l.2-.7v-.7l.1-.3.3-1.6.2-1.3 1.2-1.5.4-.4 1.6-2 .5.1 3.2 1 .8.3.4.2h.4l2.5 1 .3-.2 1-.5z" style="fill:#fff;stroke-linejoin:round;stroke-width:.40373;stroke:#000"/>
      <path id="Montgomery" d="m217 103.4.1.2.8.6.3.2.7.5.9.6.5.4.3.2.7.6.2.1.2.2.6.5.2.1.2.2.7.5.9.6.4.4.2.1.2.2 1.6 1.2.3.2 1.8 1.3 2.6 2h.1l.4.3 2.5 1.8 1.3 1 .4.3 3.5 2.6-.7.7-.6.7-.4.4-.4.5-.2.5-.4.5-.6.8.3.3-.1.2-.7.7-1-.6-1.2-.8-.3-.3-.5-.3-.5.7-1-.8-.6-.3-1.4 1.8-.3.4.5.6.5.5.7.6.7.6-.8.8-.9.6-.6.4-.4.3-.2.1-1.3-2.1-.1-.1v-.2h-.1l-.2.1-.2.1-.3-.6-.3-.3v-.2l-.5-.6-.2-.4-.1-.1-.4-.6-.3-.3-1 .7-1.3-2-.7.3-.2-.2-.7.4v-.4l-.3-.1v-.4l-.3-.2-.1-.2.1-.4h.3v-.4l-.5-.2-.7.2-.8-.5-.1-.4.3-.5.1-.4-.1-.1h-.4l-.3.7h-.2l-.2-.1v-1l-.5-.4-.2-.3-.3-.6-.2-.7-.2-.3v-.1H215.6v.7h-.5v-.2l-.1-.2-.2-.3-.3-.7-.3-.7-.1-.1v-.1h-.3l-.1.2v.1l.1.2v.2h-.4l-.1-.1-.1-.2-.4-.2-.5-.1-.3-.2-.3-.1-.4-.2h-.4l-.2.2-.4.3h-.1l-.3-.2v-.2l.3-.3.6-1 .3-.6.1-.2.2-.4.4-.6v-.1l.2-.2.3-.5.5-1 .1-.1.3-.5.3-.5.2-.3.3-.6.4-.6.8-1.3v-.2l.2-.1.1-.3.4-.6.2-.4.2-.3z" style="fill:#fff;stroke-linejoin:round;stroke-width:.40373;stroke:#000"/>
      <path id="Lancaster" d="m172.2 118.6 1-.4.8-.3.9-.4.4-.1v-.1l2.7-1.2.5-.1 2-.4.8-.2h.7l1-.3h.3l7-3.6 1.6 1.3 1 .8v.1l.3.2.3.2.4.4.5.3.5.4 1.2 1 .4.4.4.3 1.3 1 1.4 1.3 1 .7.6.6 1.2 1-1.1.6-.6.3-.7.4-.4.3v.6l.2 1v.7l.1 1.2v.5l-.6 1.1-.2.4-.3.6v.1l-.4.9-.6 1v.3l-.1.1v.2l-.1.2V132.3l.2.5.2.2V133.3h-.1l-.2.1v.1H197.3v1.4l.1.1.2.2v.2h.1v.7l-.1.1.1.2v.2l-.2.2h-.1l-.2-.2h-.2v.4l-.2.7h-.5v.9l.1.3-.2.1v.4l-.3.2v.5l-.1.3-.2.3-.2.3-.2.4v.3l-.2.2h-.2l-.2.1v.3l-.1.2v.4h-.1l-.6.2h-.1v.4l-.2.4h-.1l-.2.1h-.3V144.3l.2.1V145l-.3.1h-.2l-.2-.1v-.2l.1-.2-.1-.1h-.3v.2l.1.2v.2l-.2.1-.1-.1h-.5v.2l-3.8.1h-.7v-.3l-.1-.2-.2-.2-.3-.5-.6-1-.3-.5-.2-.3-.1-.2-.2-.1-.3-.1-.2-.2-.2-.3-.3-.5-.2-.4-.4-.3-.3-.1-.1-.2-.6-.6-.3-.6v-.4l-.1-.2v-.2l-.5-.3-.3-.2-.3-.4-.1-.4v-.7l-.1-.3-.1-.4v-.3l-.2-.3h-.2l-.3-.2h-.3l-.3-.3-.5-.2-.2-.2-.4-.1-.3-.1-.5-.3-.6-.4-.3-.1-.2-.4-.4-.5-.3-.6V130.4l-.1-.5-.2-.4-.1-.3-.3-.3-.3-.4-.4-.5-.1-.4v-.5l-.1-.2-.1-.2H173.6l-.2.1-.3.2h-1l-.5-.2-.7-.1-1.7-.3h-.3l-.6-.3-.3-.4-.3-.5v-.2l-.7-1-.6-.5-.4-.3-.3-.2.3-.8h.2v-.3l.2-.3.4-.5h.2v.1h.4l.2.1v-.2l.2-.1v-.2l.1-.1.3-.2h.2l.3-.1h.3l.7-.7.3-.1h.2l.1-.2.1-.2.2-.2h.7l.3-.1.1-.1v-.1h.4z" style="fill:#fff;stroke-linejoin:round;stroke-width:.40373;stroke:#000"/>
      <path id="Delaware" d="m224.8 124.9.4.6.1.1.2.4.4.6.1.1.3.4.2.5.1.1.2-.1.2-.1v.1l.2.2 1.3 2.1v.4l.3.1.5.2h.4v1l.3.2.1.1v.2h.2v.2l-.3.1-.1.5v.8l-.1-.1v.8h-.1v.1h-.1v.1l-.2.1v.2h-.2v.5l.2.2H230l.3.1.3-.2h.7v.3l.2.3-.3.2-.4.3-.6.2h-.3l-.3.1-.3.1-.3.1h-.2l-.3.1H226.2l-.1.1-.2.1-.2.2-.3.1-.3.3-.3.3-.7.7-1.2 1-.4-.3-.8-.5-.6-.2-.7-.3-.8-.3-.6-.1-.6-.2-.6-.1H215.8l-.9.2v-.8l-.2-.2V136.9l.2-.3v-.4h-.1l.6-.4-.2-.3h.4l.3-.2v-.5l.4-.3.2-.1-.1-.2h.2l.4-.1-.2-.4.3-.1v-.3h.1v-.3l.2-.1.2.4h.2l-.2-.5.5-.4-.2-.4.4-.2.3-.2.2-.2h.2l1-.8 1.3-.7h.2v-.2l.1-.2-.1-.2v-.1H220.8v-.1h.1l.8-1 .5-.5.3-.2.3-.3v-.3l-.2-.2-.1-.2.2-.1.2-.3 1-.6.3-.1v-.1z" style="fill:#fff;stroke-linejoin:round;stroke-width:.40373;stroke:#000"/>
      <path id="Chester" d="m210 115.3.2.1.1.1h.1l.4-.3.2-.2h.4l.4.2.3.1.3.2.5.1.4.2v.2l.2.2h.2l.2-.1v-.4l-.1-.1v-.1l.2-.1h.1l.2.2.3.7.3.7.2.3v.2l.1.1.2.1h.2l.2-.2v-.4l-.1-.1h.2l.1.1.2.3.2.7.3.6.2.3.5.4v1l.2.1h.2l.3-.7h.4l.1.1-.1.4-.3.5v.4l.9.5.7-.2.6.2-.1.3-.3.1V122.7l.4.2-.1.4.3.1v.4l.7-.4.2.2.7-.4 1.2 2 1.1-.6.3.3-.4.3h-.1l-.4.2-.8.6-.3.3h-.2v.3l.2.2v.3l-.2.3-.3.2-.5.5-.8 1h-.1v.1h.5l.2.3v.2l-.1.2h-.2l-1.2.7-1.1.8h-.2l-.2.2-.3.2-.3.2h-.1l.2.3v.1l-.5.4.2.4-.2.1-.2-.4-.3.1.1.2-.2.1.1.3-.3.1.2.4-.4.2-.1-.2-.1.1v.2l-.5.4v.5l-.3.3-.1-.1H215.2l.2.3-.6.3.1.1v.4l-.1.2-.1.1v.2l.3.3v.2l-.1.2v.4l-.8.2-.7.2-.7.3-.8.4-.5.3-.6.4-.6.5-.5.5-.3.3h-.1l-.5.6-.4.6-.3.5-.2.5-.2.5-.2.5v.4h-.8l-9.9.3-5.4.1v-.2H192v.1l.3-.1V144.5H192.5V145.2h.3l.2-.2.2-.2v-.2l-.1-.1-.2-.1V144h.5l.1-.1.2-.4v-.3l.1-.1.6-.1v-.5l.2-.1v-.4h.2l.2-.1.1-.2.1-.3.2-.4.2-.3.1-.3.3-.3v-.3l-.1-.2.2-.2v-.3h.1l.2-.1v-.4l-.2-.4v-.4h.1l.1-.1h.4l.1-.7v-.3h.1l.1-.1h.1l.1.1h.1l.1.1.1-.1.1-.1v-.2l-.1-.2v-.4l.1-.3v-.1l-.1-.2-.2-.2v-1.3l-.1-.1v-.1h.2l.2-.2h.2V133l-.2-.2-.2-.5v-.7l.2-.2v-.2l.6-1 .3-.9v-.1l.3-.6.3-.4.6-1.1v-2.4l-.3-1v-.6l.4-.3.7-.4.6-.3 1-.7.7-.5.5-.4 3-2.7.3-.2.5-.4 1.2-.8 1.4-1z" style="fill:#fff;stroke-linejoin:round;stroke-width:.40373;stroke:#000"/>
      <path id="Bucks" d="M231 93.6V94l.1.2v.3l.2.2v.5l-.1.1v.2l.1.3.3.3h.2l.1.1h.2l.3.1h.2l.2-.1.1-.1.1-.2h.2v-.1l.2-.1h1l.4.1.2.1.2.1.2.1v.1l.2.2.3.3.2.2.2.2.1.1.2.2.1.2v.2l.1.2v1.5l.1.4v1.3l-.1.5V101.9l-.1.2V103l.1.1.1.2v.2l.1.3v.2l.1.2v.1h.2l.1.2H237.7l.1.2h.1l.1.2h.2l.2.2h.6l.2-.2.3-.1H239.8v-.1h.4l.2.2h.1l.3.2h.2l.2.2v.1l.2.1v.2l.1.2.1.1.2.3v.2l.3.5v.5l.1.4.1.4v.1l.2.2.2.2.1.2h.1l.1.2.3.4.2.1.1.1.2.1h.2l.2.1h.2l.2.1.2.2h.1l.1.1.2.3.3.2.1.2.2.2.3.4v.2l.2.4v.2l.2.2v.2l.1.2.1.2.2.2v.1l.1.1.1.1h.1l.4.2.3.2.2.1.2.1.2.1.2.1.2.1.3.2.2.2h.2l.2.2v.1h.1l.1.2.1.2.1.2v.1l.2.2v.2h.1v.2l.1.2.2.2.2.2h.1l.1.1h.2v.1l.1.1.1.1.2.2.2.2.2.2v.8l-.1.2-.2.3-.2.2-.2.1-.2.1H251l-.1.1h-.3l-.1.1h-.2l-.1.2-.2.1v.1l-.2.1-.1.1h-.1l-.1.1h-.5l-.2-.2h-.3l-.2-.1H248l-.1.1-.1.1-.1.1-.1.2v.2l-.2.2v.4l-.1.2h-.1l-.2.2h-.2v.2l-.2.1v.1l-.2.1v.1l-.1.1-.1.1-.2.1h-.1l-.2.2h-.1l-.2.1-.2.1h-.2l-.2.2H244.5l-.2.1H244l-.3.1h-.4l-.2.2-.4.3-.5.4-.3.2-.3.1-.5-.3.1-.2v-.4l.2-.1.1-.2.2-.2.2-.1.1-.2.1-.2v-.8l-.1-.3-.1-.2v-.6H241.5l-.2-.1h-.2l-1.6-1-3.5-2.6-.4-.3-1.3-1-2.5-1.8-.4-.3h-.1l-2.6-2-1.8-1.3-.3-.2-1.6-1.2-.2-.2-.2-.1-.4-.4-1-.6-.6-.5-.2-.1-.2-.2-.6-.5-.2-.2-.2-.1-.7-.6-.3-.2-.5-.4-.9-.6.4-.4v-.2l.3-.3.5-.6.2-.2v-.1l.2-.2 1.4-2h.1l.3-.2v-.1l.5-.4h.1l1.4-1.4.8-.8 1.1-1 1.5-1.2.8-.5z" style="fill:#fff;stroke-linejoin:round;stroke-width:.40373;stroke:#000"/>
      <path id="Berks" d="m201 90.7 4 3.2 1 .8.3.3h.1l.8.7.4.3 1 .9 1 .8.5.3 2.8 2.4 2.7 2 1.4 1-.6 1-.2.3-.2.4-.4.6-.1.3-.1.1-.1.2-.8 1.3-.4.6-.2.5-.1.1-.2.3-.3.5-.3.4v.2l-.6 1-.3.5-.1.2-.5.7-.2.4-.1.2-.3.5-.6 1.1-.2.3-.1.2h-.1l-1.4 1-1.2 1-.5.3-.2.2-3.1 2.7-.5.4-.6.5-1.2-1-.7-.5-.9-.7-1.4-1.2-1.3-1.1-.4-.3-.4-.3-1.2-1-.5-.5-.5-.3-.5-.4-.2-.2-.2-.2h-.2l-1-.9-1.6-1.3-.6-.6-.9-.9-.4-.4-.2-.2-.2-.2-.7-.3-.7-.3-.4-.3-.2-.2-.9-.7-1-.8-.4-.4-.2-.1-1.5-1.2-.5-.4-2.1-1.7-.1-.1-1.7-1.3h.8l1-.4 2.6-.7h1.3l.8-.1 1.3-.1 1-.2.2-.2.7-.3 1.1-.4h.7l.3-.2.4-.4.4-.3.8-.3.3-.2.4-.1.5-.2h.4l.4-.2.3-.2.3-.4.2-.1.2.2h.4l.1-.2.2-.1.2.2h.1l.4.2h.4l.5-2 .4-1.7 2-1 .4-.2 1.3-.7z" style="fill:#fff;stroke-linejoin:round;stroke-width:.40373;stroke:#000"/>
    </g>
    <g id="region5" style="filter:url(#filter40)" transform="translate(-8.1288 .60213)">
      <path id="York" d="m159.6 117 .2.1.4.1.2.1.2.1v.1l.3.2v.5l.1.1h.1v.1h.1l.1.1h.9l.4.3.1.2.2.1h.1l.3.3.3.2.2.1H164.1v.1h.1l.2.2v.2l.1.2v1.3l.2.5.2.3.3.3.4.2.4.2.4.3.6.6.6 1v.1l.4.5.3.4.6.3h.3l1.6.3.8.1.5.2h1l.3-.2h.2l.1-.1h.1l.2.2v.7l.2.4.4.5.3.4.3.3.1.3.2.4v1.1l.1.3.3.6.3.5.3.4.2.1.6.4.5.3h.4l.3.2.3.2.5.2.3.2.3.1.2.1.3.1.1.3v.3l.1.4.2.3v.7l.1.4.2.4.4.2.4.3v.2l.1.2v.4l.4.6.6.6.1.2.3.1.3.3.3.4.3.5.2.3.2.2.3.1h.2v.3l.2.3.4.6.6.9.3.4.2.3V145.5h-2l-5.4.1h-6.3l-.6.1-5.7.1h-3.8l-2.3.1-6.8.1h-.1v-6.3l.1-.1h.2l.1-.2.1-.2.2-.3v-.2l.4-.1.3-.1.2-.2h.1V138l-.2-.3v-.4h-.5l-.1-.1v-.1l-.1-.3-.3-1v-.2l.2-.2.2-.3.2-.3v-1l.1-.1-1.3-2.6-.9-1.7-.2-.3-.2-.1h-.5l-.4-.2h-.4l-.2-.1-.2-.2-.3-.3-.2-.4-.3-.4v-.2l-.4-.4-.2-.2-.4-.1H148.7l-.4-.2-.4-.2h-.2l.7-.7 1-1 .3-.3.5-.5.1-.1.7-.6 1.1-1 .6-.2.4-.1h.2l.2-.2.2-.1h.5l.5-.1V120.9l-.2-.1v-.1h.6l.1-.1h2.1l.2-.1h.1v-.2l-.5-.4-.3-.2v-.4H157.4v-.5h-.2l-.2-.1H156.7v-.4l.2-.2H157.2l.1.1.2-.1v-.4H157.9l.1.1v-.2l-.1-.2v-.1H158.1l.2.4h.3v-.1H159.4l.1-.3z" style="fill:#fff;stroke-linejoin:round;stroke-width:.40373;stroke:#000"/>
      <path id="Perry" d="m157.2 111.2-1 .6-.7.2-.5.2-1.1.3-.6.1h-1.4l-.6.1H150.4l-.7.1-.6.2h-.4l-.8.2-.6.1-.5.1h-.7l-.2.1h-.3l-.6.1-.9.2h-1l-.5.2-.7.2h-.3l-.3.1-.3.2-.4.1-.5.2H139.8l-.2-.1-.2-.2-.1-.2v-.5l.2-.1v-.2l-.1-.1h-.1l-.3.2-.5.4-.8.6-.4.3-.6.3-.5.2-.4.1h-.4v-.4l.1-.2.2-.2.3-.4.3-.4.4-.3.4-.3.3-.2.4-.4.3-.1v-.4H137.5l-.3.2-.4.3-.5.2-.5.3-.4.4-1.9 1.6-1 .9-.3.2-.6.4-.7.6-.4.2-.2.1h-.7l-.3.3-.3.2-.2.2-.7.8-.2.2-.2.1-.3.3-.5.4-.2-.3v-.2l-.2-.3 1-.9V117h-.6l-.3.2-.5.4h-.3v-.2h-.2V116.8l.1-.3v-1.1h-.4l-.2.1-.2.1-.1.1-.2-.2.4-.4.1-.4-.5-1 .3-.6.5-.6.5-.5.4-.5.5-.5.8-.6.6-.5.5-.4.5-.4.2-.1.5-.2h.5v-.4l-.1-.6-.1-.5.8-.5.6-.5.2-.2.7-.4 1-.6 1-.7 1-.5.5-.2.7-.5.6-.3 1.1-.8 1-.5.3-.2 1-.7.4-.2.2-.1.3-.2h.3l.7-.4.9-.4L146 98l-.3-.6-.2-.3V97l.1-.1.1-.1.3-.1h.2l.2-.1H147.4l.1-.1h.3l.4-.1.3-.1.4-.2h.2l.8-.1h.7l.3-.2.5-.1.2-.1H152.5l.3-.2.3-.1.5-.2.3-.2.6-.3.5-.3.3-.1h.2v.2l-.1.4V96l-.1.2-.2.3-.4.3-.3.2-.3.2-.1.2-.2.1v.5l.2.6.2.2v1.1l-.1.2V100.6l.3.6h.1l.3.5.3.2.4.2.1.2.1.3v.7l-.2.3-.1.2-.3.3-.3.2-.4.1-.3.4-.1.2v.1l-.3.1-.4.5h-.5v.6l.2.3v.5l-.3.3-.3.1-.1.3V108.4l.3.2v.5l.3.2.2.2v.1h.4l.4.1h1l.3-.1h1l.2.1.2.4v.4l.2.2h.1z" style="fill:#fff;stroke-linejoin:round;stroke-width:.40373;stroke:#000"/>
      <path id="Mifflin" d="M138 84.1v4.5l.1 1.5 2.7.4-.6.3-1.9 1-1.5.7-1.2.7-.8.4-1.6 1-1.3.8.2.7.2.4v.2l-.7.6-.3.2-1.7 1.3-2.5 1.9v1.3l-.3.3-.6.5-.4.5-1.7 1.9-.4.4-.2.2-.2.2h-.1l-.4.5-.1.1h-.1l-.4.5v.1l-.2.2-.2.2v.1l-.2.1v.1l-.2.4-.5.7-.3.2h-2.1l-.1.2-.2.1h-.4l-.2-.1-.3-.2h-.4l-.2.1H116.4l-.4-.5-.1-.4V107.7h-.1l-.1-.1h-.2l-.1.1h-.2v-.1l-.2-.5v-.5l-.2-.3v-.2l.1-.3.3-.3 2-2.6.3-.5.2-.2.6-.5v-.4l-.6-1.3-.4-1.1v-.2l.1-.3.2-.5.2-.4.2-.3 1.3-1.7.2-.3.3-.3.1-.1v-.1l.1-.2 1-.4.1-.1.3-.3.4-.3.1-.1.1-.1.2-.2.1-.1.1-.1.2-.1.1-.2.3-.3.4-.4.3-.2v-.1l.3-.3v-.1h-.2l-.2.1v.1h-.4l-.2-.7.3-.1V89.9l.4-.2h.1l.2-.2.4-.2-.4-.7.6-.3.4-.2.3-.3.8-.3.3-.1.8-.4.6-.2.4-.2.2-.1 1.2-.6 1-.5.7-.5.5-.2.2-.1.6-.3.6-.3 1.3-.7.8-.5.5-.2.8-.3.2-.2.2-.1.3-.1h.2l.3-.1.2.2v.2z" style="fill:#fff;stroke-linejoin:round;stroke-width:.40373;stroke:#000"/>
      <path id="Lebanon" d="m177.5 101.4 1.7 1.3v.1l2.2 1.7.5.4 1.4 1.1h.1l.2.2.4.4 1 .8.9.7.2.2.4.3.7.3.7.3.2.2.2.2.4.4 1 1 .5.5-7 3.5-.3.1-1 .2-.6.1-.9.2-2 .4-.5.1-2.5 1.2h-.1l-.4.2-.9.4-.8.3-1 .4-.4-1.4-.2-.7-.8-2.5-.4-1.2-.2-.5-.5-1.7-.6-2-.4-1-.4-1.5-.5-1.7-.5-1.6 1.9-1.5 1-.8 1.7-1.2.7-.5.8-.7.4.4 3.2 2.5z" style="fill:#fff;stroke-linejoin:round;stroke-width:.40373;stroke:#000"/>
      <path id="Juniata" d="m156 93.8-.3.2-.2.3-.3-.1-.2.1-.5.3-.6.3-.3.2-.5.2-.3.1-.3.1h-.9l-.3.2-.4.1-.3.1h-.7l-.8.2h-.2l-.4.2-.3.1h-.7l-.1.1h-.7l-.3.1H146.1l-.3.2h-.1v.1h-.1v.2l.2.3.3.6-2.6 1.4-.9.4-.7.3-.3.1-.3.2h-.2l-.5.3-1 .7-.3.2-.9.5-1.1.8-.6.3-.7.5-.4.2-1 .5-1.1.7-1 .6-.7.4-.2.2-.6.5-.7.4-.1.2v.4l.2.6v.3l-.5.2h-.5l-.2.2-.5.4-.5.4-.6.5-.8.6-.5.5-.4.5-.5.5-.5.6-.3.6h-.1l-.4.6-.4.4-.5.4-.5-1.6-1-2.8-.6-2 .3-.4.2-.3v-.2h.1v-.2l.3-.2.1-.2.1-.1.4-.4.2-.2.4-.4.3-.3.2-.2.3-.4 1.8-2 .4-.4.6-.5.3-.3v-1.3l2.5-1.9 1.7-1.3.3-.2.7-.6v-.2l-.2-.4-.2-.7 1.3-.8 1.6-1 .8-.4 1.2-.7 1.5-.7 1.9-1 .6-.3 1.4.3h.4l1.4.3 1.1.1h.7l.7.2H146.8l.2-.1.2-.1.7-.3.6-.2H148.8l.2.2.1.2v.3H150.7l.3.1H151.3l.2-.1h.2v.3l.1.3v.4l.2.1H152.3v-.1h.6v.1l.1.3v.2l.1.2V93.6l.2.2H153.6v-.1h.1l.1-.2h.2l.2-.1h.2l.2.1h.1l.2-.2h.2l.5-.2h.2v.2l.1.3.1.1z" style="fill:#fff;stroke-linejoin:round;stroke-width:.40373;stroke:#000"/>
      <path id="Huntingdon" d="m105.3 88 .9.4 1.3.4 1.4.6 1.2.4.3.1 1.1.5.5.1.6.3.8-.5.7-.4.3-.2.1-.1.3-.2 1.5-.9.4-.2.5-.2.3-.1.3-.1.1-.1 2.5 1.3h.5l.4-.1 1.3-.2.3.6.4-.3h.1l.6-.4.4.6-.4.2-.2.1v.1l-.5.2V90.5l-.3.2.2.7H123.5l.2-.2H124l-.3.4-.3.3-.4.4-.3.3-.1.2h-.2v.1l-.2.2-.1.1h-.1l-.1.2-.1.1-.4.3-.3.3h-.2l-.9.5v.2h-.1l-.1.2-.3.3-.2.3-1.3 1.7-.2.3-.2.4-.2.5v.5l.3 1 .5 1.4v.4l-.5.5-.2.2-.4.5-2 2.6-.2.3v.8l.1.5.1.5.1.2.2-.1h.1l.2-.1h.1l.2.1v.2l-.1.2v.2l.1.4.4.4h.1l.2.1h.2l.2-.1h.2l.3.2.2.1h.4l.2-.1v-.2h2.2l.3-.2.2-.3.7 2 1 2.8.4 1.6-.8.7-.3.4-.3.4-.2.2v.2h-.2l-.2.4-.1.2-.8 1.1-.2.3-.4.7-.5.9-.1.3-.1.3-.1.1-.1.1v.2l-.2.3-.2.4-.1.4-.1.2-.1.1-.1.2v.1l-.3.5-.1.2-.2.4-.3.7-.1.3-.1.2-.1.2-.6.8-.2-.2-.5-.4-.9-.9-.6-.5-.1-.1-.2-.2h-.5l-2.1-.6-.5-.1-1.2-.3-2-.6-.5-.2h-.1l-.1-.1-.3-.2-1.1-.8-.9-.7-1-.8-1.4-1-.4-.2-1.1-1-.5-.3v-.4l-.2-.7v-.3l-.1-.3-.2-1-.2-.6-.2-.8.7-1.6.7-1 .2-.4.3-.5.2-.3v-.2l.4-.7.5-1 .8-1.2.5-.9.3-.6.4-.8.5-1v-.3l.2-.9v-.1h-.1v-.1h-.2l-.2.2-.1.1-.2.3H103.7v-.5l.2-1.5v-.3l.1-.3.3-.6.3-.9.1-.4h-.2l-.1.2-.1.3-.2.4-.2.5-.1.1-.2.1-.3.2-.2.3-.5-.3-.1-.2-.2-.2-.1-.3-.2-.4-.2-.2.1-.1.2-.3v-.2l.6-.8-.2-.6.1-.3.2-.4.3-.7-.1-.2-.4-.3-.3-.2-.2-.3-.2-.1v-.5l-.1-.1-.4-.4h-.4V91l.4-.3.3-.3.5-.2.7-.5.7-.1.2-.2.2-.2.7-.5.2-.2.2-.2z" style="fill:#fff;stroke-linejoin:round;stroke-width:.40373;stroke:#000"/>
      <path id="Fulton" d="m104.4 120.8.9.6 1 .8.4.2.2.1.5.3 2 .5 1.2.3h.5l2 .6.3.1h.3l.2.2.7.6 1 1 .4.3.2.2-.2.2-.2.2-.3.4-.3.4-.3.5-.2.3h-.1l-.8 1.4v.2h-.1v.2l.1.2v.1l-.2.4-.2.4-.2.5v.2l-.1.5v.4l-.1.1-.3.5-.2.2v.2l-.1.1-.1.3-.1.6-.2.5-.2.5-.3 1-.2.5-.6 1.4-.2.6-.3.5-.4.4-.2.3-.1.3-.4.3-.3.5-.7 1-.6.9-.1.4-.3.3-.2.3-1 1.2H93.6l.6-.8.3-.6.6-.7.5-.8.5-.9 1.7-3.8.4-1.4.5-1.4.1-.4.2-.4V134.5l.3-.6.1-.2.2-.3v-.1l.2-.3.1-.5.3-.9.1-.1.3-.7.1-.3.1-.2.1-.1.1-.2.1-.1.3-.2V127.6l.7-.1v-.1h.1l.2-.5-.2-.4h-.1l-.2-.1h-.3l-.2-.3v-.6l-.1-.2.3-.4.4-.3.2-.2h.3l.3-.7.6-.6z" style="fill:#fff;stroke-linejoin:round;stroke-width:.40373;stroke:#000"/>
      <path id="Franklin" d="m124.5 113.7.6 1-.2.4-.4.4.3.3v-.1l.3-.2h.2l.2-.1h.1l.1.2v.3l-.1.1v.1l.1.4v.5l-.1.2v.2h.2v.3h.3l.5-.5.3-.1h.5v1.3l-.9 1 .1.2.1.2.1.3.2.4.1.3v.4l.2.2.3.3.3.3.1.2v.2l.1.1H128.4l.1.1.3.2.2.2.1.1.1.2.2.5v.9H129.8l.3.3v.2l.1.3v.5l.2.1.2.3.1.2.2.6.2.1V127.6l.1.2.4.5.2.5.1.3v.3l.2.2.3.4.4.4.1.2.3.2.1.1v.1h.2v.2h.1v.2l.2.1.3.2-.7 1.7.1 2.4.1 2.1v1.2l.1.5v2l.1 1.2V144.5l.1 1.6h-9.3L113 146h-7.1l1-1.2.2-.3.3-.3.1-.4.6-.8.7-1.2.3-.4.4-.3.1-.3.2-.3.4-.4.2-.5.3-.6.6-1.4.2-.5.3-1 .1-.4v-.1l.3-.5v-.6l.2-.3v-.1l.1-.2.2-.2.3-.5v-.5l.2-.5v-.2l.2-.5.2-.4.2-.4v-.3l-.1-.1v-.1l.1-.2.8-1.3v-.1l.3-.3.3-.5.3-.4.2-.4.3-.2.2-.2.6-.8v-.2l.2-.2v-.3l.4-.7.2-.4v-.2l.3-.5.2-.3.1-.2.2-.5.2-.4.1-.2V121.4h.1l.2-.2v-.3l.2-.3.5-1 .4-.6.2-.3.8-1.1.1-.1.2-.4.1-.1.1-.2.2-.2.2-.3.1-.1.3-.4.8-.7.5-.4.4-.4.4-.5z" style="fill:#fff;stroke-linejoin:round;stroke-width:.40373;stroke:#000"/>
      <path id="Dauphin" d="M166.2 92.4h.1l.4.4.7.6 1.5 1.1.5.4 4 3.2-.8.7-.7.5-1.6 1.2-1.1.8-2 1.5.6 1.6.5 1.7.4 1.4.4 1.1.6 2 .5 1.7.2.6.4 1 .8 2.6.2.7.4 1.4h-.4l-.1.2h-.1l-.3.2H170.6l-.1.1v.1l-.2.2-.1.1h-.2l-.3.2-.7.7h-.8l-.3.3v.1l-.1.2h-.2V121.4h-.5l-.1-.2h-.1l-.5.5-.2.3v.2l-.2.1-.3.8-.5-.2-.3-.3-.2-.3-.1-.4V120.4l-.1-.1v-.1l-.1-.2-.1-.1h-.1l-.1-.1h-.2l-.3-.2-.3-.2-.3-.2-.2-.2-.2-.2-.3-.2h-1v-.1h-.2v-.1l-.1-.2v-.2l-.1-.3-.2-.2-.3-.2h-.2l-.3-.2H159.6l-.8-1-.7-.7-.5-.5-.3-.6-.2-.5-.2-.2v-.9l.2-.3v-.3l.2-.2v-.5l-.1-.1-.3-.6-.2-.2v-.3l-.1-.1-.2-.4h-.2l-.3-.1h-.7l-.3.1h-1.7v-.1l-.3-.3-.3-.2v-.5l-.2-.2-.1-.2v-.4l.1-.3.3-.1.2-.3h.2l-.1-.4-.2-.4v-.5h.5l.4-.6.2-.1.2-.3.3-.3.4-.2.3-.2.3-.3.1-.2.2-.3v-.7l-.1-.3-.1-.2-.4-.2-.3-.2-.3-.4-.1-.1-.2-.6v-.2l-.1-.4v-.2l.2-.2-.1-.5v-.4l-.2-.2-.3-.6v-.2l.1-.3.2-.1.1-.2.3-.2.3-.2.4-.3.2-.3V96l.1-.3v-1.2l.1-.1h.1l.1.2.3.5.2.2.3.1.2.2h.2v-.2l.2-.1H158V95l.2-.1H158.8v-.1l.1-.2v-.1l.2-.2H160.4l.2-.1.2-.3h.5l.2-.2h.1v-.4l.2-.1h.2l.3.1h.4l.2-.2h.8l.2-.1.1-.1.1-.1.2-.1h.2l.2-.1h.7v-.1l.2-.1H166z" style="fill:#fff;stroke-linejoin:round;stroke-width:.40373;stroke:#000"/>
      <path id="Cumberland" d="m159.6 117-.2.3v.2h-.1v.1h-.7l-.2.1h-.1l-.2-.3v-.2h-.3v.2l.1.2v.2l-.2-.1h-.1v.2l-.1.2-.1.1h-.1l-.1-.1H156.9l-.1.2-.1.3h.3l.2.1.1.1.1.2v.2l-.1.2h-.1l-.2-.1h-.1l-.2.1v.1l.1.2.3.2.4.3.1.1v.2h-.3l-.2.2h-.7l-.3-.1h-1.6v.1l.1.2h.2v.2l-.6.2h-.7l-.2.2h-.2l-.4.2-.6.1-1.1 1.1-.7.6-.1.1-.5.5-.3.3-1 1-.7.6-.8.9-1 1.4-.8.1-2.4.5h-.2l-.8.2-.9.2h-.2l-.5.1-.8.2-3 1-.9.8-2 2 .7-1.6-.1-.1-.3-.2h-.1v-.3h-.1l-.1-.1-.1-.1v-.1l-.2-.1-.3-.2-.1-.2-.4-.4-.3-.4-.1-.2v-.3l-.2-.3-.2-.5-.4-.4v-.5l-.2-.1v-.1l-.3-.6-.1-.2-.1-.2-.1-.1h-.1v-.3l-.1-.3v-.4h-.1l-.3-.3h-.2l-.1-.1v-.9l-.2-.5v-.2l-.2-.1-.2-.2-.3-.2h-.4l-.1-.1V122.2l-.1-.2-.3-.3-.3-.3-.1-.2v-.4l-.2-.3-.2-.4.6-.3.3-.3.2-.2.2-.2.7-.8.2-.2.3-.2.3-.2h.7l.2-.2.3-.2.7-.6.7-.4.3-.2 1-.9 2-1.6.3-.3.5-.4.4-.2.5-.3.3-.1.2-.1h.4v.4l-.3.1-.4.4-.3.2-.4.3-.4.3-.3.4-.3.4-.2.2-.1.2V115.4l.2.1H136.2l.5-.3.6-.3.4-.3.8-.6.5-.4.3-.2h.2V113.7l-.1.1v.2l-.1.3.1.2.2.2h1l.4-.2.3-.2h.2l.4-.1.7-.2.5-.2h1l.9-.2H145.9l.2-.1h.7l.5-.2.6-.1.8-.2h.4l.6-.2H151.3l.6-.1h1.1l.3-.1.6-.1 1.1-.3.5-.2.6-.2 1-.6h.1l.1.2v.5l-.2.2v.3l-.2.3V113.6l.2.2.2.5.3.6.5.5.7.7z" style="fill:#fff;stroke-linejoin:round;stroke-width:.40373;stroke:#000"/>
      <path id="Blair" d="m105.3 88-.2.3-.2.2-.2.2-.7.5-.2.2-.2.2-.7.1-.7.5-.5.2-.3.3-.3.3-.2.3v.5l.1.5v.4H101.3l.1.1.4.4v.5l.1.1.2.1.2.3.3.2.4.3v.1l-.2.8-.2.4-.1.3.2.6-.5.8-.1.2-.2.3v.3l.3.4.1.3.2.2v.2l.6.3.2-.3.3-.2h.2v-.2l.3-.5.2-.4V98l.2-.1v-.1h.2l-.1.4-.3.9-.3.6v.3l-.1.3-.2 1.5v.5H104l.2-.3.1-.1.1-.2H104.7v1.1l-.1.2-.5 1-.4.9-.3.6-.5.9-.8 1.3-.5 1-.3.6-.1.2-.2.3-.3.5-.2.4-.7 1-.7 1.6-1.4 3-.6-.4-1.3-.7-1.8-.9-.8-.4-.4-.2-1.1-.6h-.2l-.1.2-.2 1-.1 1v.5l-.2.4-.3-.3-.2-.2-.3-.3-1.4-1.4-.2-.2-1-.3h-.2l-.9-.5-3-1.4.2-.3.5-.8.2-.2.2-.2h.2l.2-.2 1-.6.3-.1.1-1.4v-1l.1-.7-.2-1.3v-.2l.2-.2v-.1l.3-.5v-.1h.1l.2-.6v-1.7l.5-.8.5-.5.3-.5.4-.3.3-.2 1-.4v-.2l.7-1.2.4-.8.1-.1.2-.3V95.8l-.3-1.2v-.1l.2-.2v-.7l.1-.2h.1l.1-.2h.4l.3.2H92.6l.1.1.4-.7.2-.4 1.3-2.1.7-1.3-.5-.7 3.8-.2h1.2l2-.2 2.8-.1z" style="fill:#fff;stroke-linejoin:round;stroke-width:.40373;stroke:#000"/>
      <path id="Bedford" d="m83.4 111.6 3 1.4 1 .4v.1l1 .3.3.2 1.4 1.4.3.3.2.2.3.3.2-.4v-1.4l.3-1 .1-.4h.2l1.1.7.4.2.8.4 1.8 1 1.2.6h.1l.6.3 1.4-3 .2 1 .2.6.2.9v.5l.1.1.1.6v.4l.6.5 1.1.9.4.3 1.3 1 1.1.7-1 2.3-.6.7-.3.6-.3.1-.2.2-.4.3-.3.4.1.2v.6l.2.2h.3l.2.1v.1l.2.3v.5l-.1.1-.1.1-.6.1-.1.2-.1.2v.6l.1.4v.7l-.2.1-.2.2-.1.2v.1l-.2.2-.1.3-.3.7-.1.1-.3.9v.5l-.2.3h-.1l-.2.4-.1.2-.2.6v.1l-.1.2-.2.4-.2.4-.4 1.4-.4 1.4-1.7 3.8-.5 1-.5.7-.6.7-.3.6-.6.8H89l-12-.2h-2l.2-.5.3-.5.4-1v-.1l.2-.3v-.2l.1-.3.2-.2.2-.3v-.2l.1-.1v-.5h.1l.1-.3.2-.5v-.3l.1-.6v-1.7l.1-.2v-2.2l-.1-2V129H77v-1.2l.2-1.2.5-.9.1.1.3.1.6-1.1.1-.5.2-.7.4-1.4.1-.5h.1v-.2l.3-.6.1-.2.1-.3.2-.6.3-.5v-.4l.1-.1.1-.2.2-.6.3-.6.2-.4v-.1l.1-.2.2-.5.8-1-.4-.6-.1-.4.3-.1V113l.2-.4.1-.3z" style="fill:#fff;stroke-linejoin:round;stroke-width:.40373;stroke:#000"/>
      <path id="Adams" d="m133.3 133.4 2.1-2 .9-.8 3-1 .8-.2h.5l.2-.1 1-.2.7-.2h.2l2.4-.5.7-.1 1-1.4.9-.9h.2l.4.3.4.1H149l.4.2.2.2.3.4.2.2.2.4.2.4.3.3.2.2h.2l.4.1.4.1.5.1.2.1.2.3.9 1.7 1.3 2.5-.1.2V134.8l-.2.3-.2.3-.1.2v.1l.2 1.1v.3l.2.1H155.2l.1.1v.3l.1.1.2.2v.4l-.2.1-.3.2h-.1l-.4.1v.2l-.2.3v.2l-.2.1h-.2l-.2.2V146l-5.2.1h-14.8V142.8l-.1-1.2V140.4l-.1-.8v-1.7l-.2-2z" style="fill:#fff;stroke-linejoin:round;stroke-width:.40373;stroke:#000"/>
    </g>
    <g id="region6" style="filter:url(#filter26)" transform="matrix(1.0386 0 0 1.0386 -13.791 -7.7278)">
      <path id="Westmoreland" d="M37.6 91.2h.4l.2-.1.2-.2v-.1h.1v-.2h.2l.2.2.3.2.1.1.2.2h.3v.1l.1.2v.4l.1.2.2.1.1.2.3.1.5.3v.9h.5v-.1l.1-.1v-.1h.1l.2-.3h.2v.4l-.1.1v.1l-.1.2v.5h.1v.1h.1v.5l.2.1h.2V95l.4-.2v.1h.2v.1h.4v.2h-.1v.1h-.2v.1l-.1.1-.1.1-.2.2v.1l-.1.2v.6h.1v.1l.2.3V97.4h.1v.2h.1l.2.1h.1l.1.1.3.3h.2v.2h.1l.2.1v.2h.2l.2.1h.4v.1l.2.2.4.5.2.1.2-.1V99.1l.1-.1V99H46.7V99.4h.2l.4-.2h.4l.1.2.1.2v.1l-.2.1-.3.3v.3l.1.2.2.2v.1l-.1.3v.2l.1.2v.6l.3.1.1-.2.2-.1h.1l.2-.1h.1l.2.5V102.6l.1.2h.2l.4-.2h.1l.1.1.2.5v.1l.1.2v.2h.2l.2.1H51l.1-.1v-.1l.1-.4.1-.7h.1l.2-.1.2.1v.2l-.1.3-.1.3v.5H52.3v-.8h.1l.1-.1h.1l.2.3v.1l.1.1v.4l.2.1.2-.2.2-.1.5-.1H54.3V104.3l-.1.3V105H54.5l.3-.2.1-.1h.4l.1.1v.1l.1.1v.3l-.1.5v.2h.1l.2.1H56v-.1l.2-.2v-.1l.1-.3h.1v-.1h.9l.1.2.5.1v.1l.2.3.1.2.2.2h.2l.2-.1h.5l.3.2h.9l.1.2v.5h.8l.4.2H62V107.7H61.7v.1h-.2v.7l.1.2h.7l.3.2h.2l.1-.4.1-.1.1-.1v-.2l.2-.2v-.1h.4v.1h.1l.3.4h.4l.1-.3.3-.2.2-.1h.2v-.2h.2v-.1l.1-.1v-.2h.1v-.1h.1v-.2l-.2-.1v-.5h.1l.1-.1h.7l.6.3h.2v.1h.2l.2.2.1.2.1.3.3.5-.1.4-.5 1-.4.4-.2.2-.2.3-.2.4-.1.2-.2.1-.1.1-.1.2-.2.3-.2.2-.4.6v.3l-.2.2-.5.8V113.6l-.3.5-.2.3-.3.4-.1.2v.1l-.2.4-.2.4-.2.3-.2.4-.1.2-.1.3-.3.4-.2.2-.2.5-.4.2-.2.5v.2l-.2.3-.7.3.1.4v.6H60l-.1.1v.3l-.1.5-.1.3-.1.3-.2.5-.1.2-.3.4-.3.3H58.5v-.2l-.1-.2v-.1h-.5l-.3.1v.2l-.2.2v.3l-.1.1-.3.2h-.3v.1l-.3.2H56l-.1.1-.2.1v.1l-.2.4-.2.4-.4.6-.9 1.3-.8-.3H53l-.2.2-.5-.1H52l-.1-.1-.2-.8v-.2l-.2-.4v-.2l-.2-.1-.4-.3-.4-.3-.4-.2-.3-.2-.2-.1v-.2l-.2-.3-.1-.1h-.5l-.1-.2-.2-.2-.1-.1-.3-.2-.3-.1-.2-.3-.1-.1-.1-.3v-.2l-.4-.2-.2-.2-.5-.2-.5-.1H45.6l-.4.1-.3.2h-.3l-.1.3-.2.2h-.1l-.2.1h-.4v.2l-.2.1v.5h-.6l-.2.2h-.2l-.3.2h-.4l-.2.3-.2.2-.1.2-.1.2-.1.1v.1h-.2l-.2-.3h-.2l-.4-.2H39.7v.2l-.2.1H38.5v-.3l-.2-.1-.4-.1v-.5h-.3l-.2-.1-.2-.2-.2-.2-.2.1-.3.1h-.6l-.2-.2-.1-.1.1-.2-.2-.2H35l-.1-.3H33l-.7-.2h-3.7l-.1-.2-.1-.2-.1-.3-.3-.3-.2-.2V120l.3-.2h.8l.5.1h.2l.4-.2.1-.5v-.4l-.1-.5-.3-.3-.2-.1h-.2l.3-.1 1-.5 1-.4.8-.4.7-.3-.7-.1-.2-.2v-.3l.2-.3.1-.2.3-.5.1-.2V114.2l-.1-.2-.2-.4v-.2l.1-.1h.6l.1-.1.1-.1v-.2l-.4-.5v-.7l.6-2.8.2-1.4h.2l.1-.3v-.2l.2.1.2.1.2-.1.2-.3h.3v-.2l.2-.4.1-.2.2-.2.4-.1.6-.6v-1l.1-1.2v-3.6l-.1-.1-.6-.7-.4-.3h-.2V98h-.1l-.1-.1h-1.1l-.1-.5v-.1l-.2-.3V96h.1l.2-.4h.1l.1-.1.5-.3h.2l.4-.1.2-.1.4-.2.2-.4.1-.2.1-.2h.1l.1-.1.1-.2.3-.2h.1v-.2l.2-.2.1-.2v-.2h.1v-.5l-.1-.2-.1-.2v-.5z" style="fill:#fff;stroke-linejoin:round;stroke-width:.40373;stroke:#000"/>
      <path id="Washington" d="m8.6 101.3 1.9 2.1 1.6 1.8 1.2 1.6.8.8 1.3 1.5.7.7 3.5 1.6.8.4h.3l1.4.7h.3l1.5.7 1.2.5 1.4.6 1 .5-.4.3-.2.1h-.2l-.6.2h-.7l-.3.4v.5l.2.3.2.2.8.4h.2l.7.4.1.1.4.2.6.2H28.6l.5-.1h.4l.1.1.4.3.1.4v.4l-.1.6-.4.2H29l-.5-.2H28l-.3.3V120.7l.2.1v.1l.3.3v.3l.2.2.1.2h.2l.3.2.4.3.6.3.1.4.1.3.1.3.2.3-.2.5-.4.2-.3.2h-.5l-.5-.2H28l-.1.3.2.2.6.2.1.1v.4l-.4.4-.1.2v.2l.3.2.3.2v.4l-.4.4h-1.1l-.3.2-.2.1-.2.1-.2.4-.1.5-.4.3h-.4l-.2-.2-.2-.4-.1-.3-.3-.3h-.3l-.3.1-.2.1-.2.1V129.2l.1.4v.4H23l-.3.2h-.2l-.4-.2H22l-.1.3h-.5V129.4l.2-.1v-.2l.1-.2-.3-.2v-.1H21v-.1H20.7l-.4.5h-.1l-.3-.1h-.2l-.3.4-.8.2-1-.1-.8-.4-.5-.5-.3-.2h-.3l-.3.2H14l-.6-.3h-.3l-1.3.3-.2-.1v-.4l-.4-.1-.2-.3-.1-.2h-.6l-.2.2v.6l-.2.1-.7-.1-1.1.4-.8.2-.4.1-.4.3-.2.3v.1l-.1.1H6l-.6.2h-.5l-.3-.1h-.2l-.3.1v.2l-.1.2h-.1v-.1l-.1-.2-.2.2-.1.2v.1l-.1.1H3V131H3l-.3.2h-.5v-.4h-.4v.2h-.2l-.3-.2v-.1l-.3-.1H.8l.1-3.2.2-5 .1-3.1.2-7.2.2-6.5.1-3.9v-.6l3.6.1h1.4l1.7.1z" style="fill:#fff;stroke-linejoin:round;stroke-width:.40373;stroke:#000"/>
      <path id="Somerset" d="m81.9 116.2-.2.5v.2h-.1l-.2.5-.3.6-.2.6v.2h-.1l-.1.5-.3.5-.2.6v.3l-.2.2-.2.5-.1.2v.1l-.2.5-.4 1.4-.2.7-.1.5-.6 1.1-.3-.1-.6.8-.1 1.2v.3l-.1.9v4.7l.1 2v2l.1.1v2.1l-.1.6-.1.3-.2.5v.3h-.1v.5l-.1.1-.1.2-.2.3-.2.2v.2l-.1.3-.1.3-.1.1-.4 1-.3.5-.2.5H64.9l-12.2-.2h-3V145l-.2-.1h-.1l-.4-.1-.1-.1v-.2l.1-.1.1-.1h.4V144l-.1-.2v-.5h.5l.1-.2.1-.1.1-.2v-.1l-.1-.1-.2-.2h-.1l-.2-.1v-.2h.2l.2-.1V141.6H50.4l.3.1.5.3h.1v-.2l.1-.1H51l-.1-.1-.1-.2v-.1l-.1-.2V141l.1-.2v-1h-.2v-.1H50.2l-.1-.1v-.5l-.5-.4-1-.6.6-2.2.2-.5.7-1.3.4-.6 2-3.5.1-.1v-.1l1.4-2.2.9-1.3.4-.6.2-.4.1-.4h.1l.2-.2h.4v-.1l.2-.2h.4l.3-.3v-.4l.2-.2.1-.2h.5l.1-.1h.1l.1.3v.2h.4l.3-.3.3-.4.1-.2.2-.5.1-.3v-.4l.2-.4v-.4h.7v-1l.6-.3.1-.3v-.2l.2-.5h.1l.4-.2.2-.5.2-.2.3-.4v-.3l.2-.2.2-.4.2-.3.2-.4.1-.4.2-.3.3-.4.2-.3.2-.5h4.9l.7.1v.2l.1.2h.4l.3.1h.2l.4.3v.7l.1.1v.4l.2.1v.1H72.2l.1-.1h.2l.3.1h.3l.2.1H75l.8.1h2.2l.4.1H81z" style="fill:#fff;stroke-linejoin:round;stroke-width:.40373;stroke:#000"/>
      <path id="Indiana" d="M75.9 78.4v3.1l-.1 3.3v3.5h.4v.7h-.6l-.3 1-.1.1-.6 1.5-.7 2.3-.2.6-.4.9-.2.6-.3.7-1 2.7-.3.7-.1.2-.4 1.2-.3.5V102.3l-.2.3-.4 1-.4 1.1-1 2.4-.2.2-.2.3-.2-.5-.2-.3v-.2h-.1l-.1-.1h-.1l-.1-.1h-.1l-.2-.1-.6-.3H65.8v.2l-.1.2v.1l.1.1h.1v.4h-.1v.1l-.1.1v.1h-.3v.2l-.2.1H65l-.3.3v.3h-.5l-.3-.4h-.1l-.1-.1H63.4l-.1.3v.2l-.2.1v.1l-.2.3-.1.1h-.1l-.2-.2h-.7l-.1-.1v-.1l-.1-.2v-.4h.1l.1-.2H62.1v-.2H61.8l-.4-.3h-.8v-.7h-1l-.3-.2h-.5l-.1.1H58.3l-.1-.2-.1-.1v-.1l-.2-.3h-.1l-.4-.2-.2-.1H56.6v-.1H56.4v.1l-.1.3-.3.3h-.1l-.1.1h-.3l-.1-.1v-.2l.1-.5v-.5h-.2v-.1h-.5l-.2.3h-.4v-1.3h.1v-.2H54l-.5.2h-.2l-.1.3H53v-.5h-.1v-.2l-.3-.3h-.2v.1l-.1.2V103.8H51.7v-.8l.2-.3v-.2h-.2v-.1h-.2v.1l-.2.7v.4l-.1.1-.3.1H50.3l-.1-.1v-.1l-.1-.3-.3-.6-.1-.1h-.1l-.4.2H49l-.1-.1-.1-.3-.1-.6h-.4v.1l-.2.1-.2.2h-.2l-.1-.1v-.8h-.1V100.4l-.1-.1v-.3l.2-.3h.1v-.1h.1V99.2l-.2-.1h.1l4-5.4 3.7-4.6 1.3-1.7.3-.5 1-1.4.1-.9v-5.6l.1-.6V78h4l1.2.1 4.1.1h2l.2.1h3.6l.9.1z" style="fill:#fff;stroke-linejoin:round;stroke-width:.40373;stroke:#000"/>
      <path id="Greene" d="M23.5 130v.1h-.2l-.2.2-.1.2v1l.2.2.2.2h.1l.2.1H24l.1-.1h.1l.2-.2h.5l.3.1h.1l.2.2.2.2.1.2.1.2.2.2.1.2.2.2v.1l.2.2.1.2v.2l-.1.2h-.1v.2l-.1.1v.4l.2.3v.2l.2.2v.3h.1v.4l-.4.2h-.1v.2h-.1v.2l.1.2.1.1v.4l-.1.1-.2.1H26l-.1.2V138.3H26.3l.1.1.1.1v.1l.1.4v1l.1.1.2.3.2.3v.5l-.2.2h-.6l-.2.2-.1.3V142.9h.1v.2h.2v.1l.7.3.1.1.2.2v.3l-.1.3-.1.1v.1l-.1.1-.2.3-12-.2-10.2-.3-4-.1v-1.9l.2-10v-2l.2.1h.3v.2l.3.2h.1l.1-.1h.3v-.2l.2.1-.1.2v.1l.5.1.3-.1H3V130.7l.1-.1h.2v-.2l.1-.2h.1l.2-.2v.2H4v-.2h.1l.3-.2h.2l.3.2.5-.1.6-.2h.2l.1-.2.2-.3.4-.3.4-.1.8-.2 1.1-.4.7.1h.1l.1-.7.2-.2h.6l.1.2.2.3h.3v.5l.3.1 1.3-.4h.3l.6.3h1l.4.1.3-.2h.3l.3.2.5.5.8.4 1 .1.8-.2.3-.3.2-.1.3.1.5-.5h.6v.2l.3.2v.4h-.3v.8l.2.1H21.8l.1-.3h.2l.4.2h.2l.2-.2h.4z" style="fill:#fff;stroke-linejoin:round;stroke-width:.40373;stroke:#000"/>
      <path id="Fayette" d="m54.1 127.5-1.3 2.2-.1.2-2.1 3.5-.4.6-.7 1.3-.2.6-.7 2.1 1 .6.5.3V139.5h.4l.1.1.1.1.1.3V141.1l-.1.1V141.5l.2.2h.4v.4H51l-.5-.3-.3-.1H50v.2H50l-.2.1h-.1l-.1.1v.2h.2l.1.1.2.2.1.3-.2.2-.1.1h-.2l-.1.1h-.2v.5l.1.2v.2H49l-.1.2-.1.3.5.1.2.3v.4h-6l-10.1-.3-4.1-.1h-2.6l.2-.4v-.1l.1-.1v-.1l.2-.2v-.4l-.2-.2v-.1l-.7-.3-.2-.1v-.1l-.1-.1v-.2H26v-1.1l.1-.1.2-.2h.6l.1-.1h.1V140.5l-.2-.3-.2-.3V139l-.1-.4v-.1h-.1l-.2-.1H26l-.1-.1v-.4h.2l.2-.2.1-.1v-.5l-.2-.2v-.2l.1-.1h.1l.3-.2h.1v-.5l-.1-.3-.1-.2v-.1l-.1-.1-.1-.3-.1-.2v-.4h.1v-.1l.1-.1.1-.3v-.1l-.1-.1-.2-.2-.2-.3-.1-.2-.2-.2v-.2l-.2-.2-.2-.2-.2-.1-.3-.2h-.5l-.3.1h-.1l-.1.1h-.5l-.3-.2-.2-.2v-1l.1-.2.2-.1h.1v-.1h.2l.2-.1v-.4l-.1-.4V128.6l.2-.1.2-.1h.6l.3.2.1.3.2.4.2.2h.4l.4-.3.1-.5.2-.4h.2l.1-.1h.1l.3-.2h.6l.5-.1.4-.4v-.4l-.3-.2-.2-.2-.1-.2v-.2l.5-.4v-.4l-.1-.1-.6-.2-.2-.2v-.2l.2-.1h.7l.5.3h.2l.3-.1.3-.2.4-.2.2-.5-.2-.3v-.3l-.2-.3-.1-.4-.6-.3-.4-.3-.3-.1h6v.1l.2.2.2.2.2-.1h.1l.2.2v.1h-.1v.2l.3.1.1.2h.3l.2-.1h.3l.2-.2.2.2.2.2h.2l.2.1.2.2v.1l-.1.2h.4l.1.2v.2H39.2l.3.2h.1l.2-.2v-.1l.2-.1h.1l.4.2h.2l.1.3H41v-.2l.2-.2v-.2l.2-.1.1-.1.2-.2h.1l.3-.1.3-.1.2-.1.1-.1v-.1h.7v-.5l.1-.1v-.1h.2l.2-.1H44.2l.1-.1.2-.2.1-.2.3-.1.3-.2h.5l.2-.1h.4l.1.1.4.2h.1l.1.1.1.1.4.2v.5l.2.1.2.3.3.1.3.2.3.3v.1h.3l.3.1v.1l.2.3.1.2.2.1.3.2.4.2.4.3.4.3h.1v.1l.1.2.1.4v.2l.2.7.2.1h.2l.5.2.2-.1H53.3z" style="fill:#fff;stroke-linejoin:round;stroke-width:.40373;stroke:#000"/>
      <path id="Cambria" d="M76.1 88.5h1l3.3.1h.6l3.7.1 2.8.1H89l3.2.2h3.2l-.7 1.3-1.3 2-.2.5-.3.6v.1H92.4l-.2-.1-.3-.2h-.3l-.2.1v.1l-.2.2v.6l-.2.3.3 1.3v.2l-.2.4-.5.9-.7 1.2v.2l-1 .4-.3.2-.4.3-.3.4v.1l-.5.5-.5.8v.8l-.1.2v1.2h-.1v.1l-.1.1-.2.5h-.1l-.1.3v3.3l-.1 1.3-.2.1-1 .6-.3.1-.2.1-.3.2-.1.2-.5.8-.2.3-.5.7-.2.3-.1.4-.1.7v.4h-.3l.1.5.4.6-.8 1H77.5l-1.3-.1h-1.3l-1.2-.1H73l-.3-.1-.2-.1H72.3l-.2.2h-.2v-.2h-.1V115.5l-.1-.2v-.2h-.1v-.5l-.4-.3H71l-.3-.1H70.4v-.1l-.2-.2v-.2H66.3l-1.7-.1v-.1l.1-.2.5-.8.1-.2.1-.3.4-.6.2-.2.2-.3v-.2l.2-.1h.1l.1-.1.1-.2.2-.4.2-.3.2-.2.4-.3.5-1.1.1-.4.2-.3.2-.2 1-2.4.4-1 .4-1.1.1-.3v-.2h.1l.3-.6.4-1.2v-.2l.4-.7 1-2.7.3-.7.2-.6.4-.9.2-.6.7-2.3.6-1.5V90l.4-1h.5v-.1z" style="fill:#fff;stroke-linejoin:round;stroke-width:.40373;stroke:#000"/>
      <path id="Butler" d="m38.3 62.6-.1 2.7v2.6L38 70v5.3l-.1.8v2.4l-.1 3.5v1.6l-.1 1V86.6l-.1.5V89.7l-.1 1.5h-2.4L33 91h-2.3l-.6-.1h-1.7l-.5-.1h-2l-1-.1H24.7l-2.8-.2h-4V74.3l-.1-2.5.2-.2.8-1.2 1-1.2.8-1 .1-.3.6-.7.4-.5 1.4-2 1.8-2.2.2-.2h3.2l1.8.1H35.8l1.3.1h.6z" style="fill:#fff;stroke-linejoin:round;stroke-width:.40373;stroke:#000"/>
      <path id="Beaver" d="M17.9 80.1V92l.1 2h-.2l-.2.1h-.2l-.1.1H16.3v.2l-.1.2-.1.1-.1.1-.3.2-.2.1-.2.2-.2.2v.1H14.9l-.1.2-.3.3-.1.2-.2.2-.8.6-.3.3-.5.4-.5.5-.8.6-1.5 1.4-.4.4-.8.7H5.3l-3.6-.2.3-9V90l.3-7 .1-3.2h2.3l.8.1h7.1l1.3.1h2.8z" style="fill:#fff;stroke-linejoin:round;stroke-width:.40373;stroke:#000"/>
      <path id="Armstrong" d="m38.3 62.6.3.3.2.3v.4l-.2.2v.5l.1.1v.1l.1.1V67.5l.8.7.1.2v.2l-.1.1v.1h-.1l-.2.3v.4l.2.1.3.2.5.2 1 .3h.4l.2-.1h.1l.1.2v.4l-.1.4v.1l-.1.2-.1.1-.1.1v.2l.1.1h.5l.2.2h.1l.1.2.1.1v.4H42.1l-.2-.1h-.5l-.1.2h-.2l-.1.2v.2l-.1.1v.2l.4.2.5.2h.5v-.2l.2-.3.2-.2.2-.1h.8l.2.2h.7l.3.3h.2l.2.1v-.4l.1-.2H45.8l.1.2v.2l.2.2h.3l.1-.1V73l.1-.2h.1v-.1h.4l.6.3H48l.1.1v.1l-.1.1-.1.1v.1h.5v-.1l.2-.1H49.3l.4-1v-.2l.2-.1h.2l.1.2v.1H50v.2H50 50.3v.2l.1.1v.2H50.8l.2-.1h.5v.2h-.2v.2h.2v.5l-.1.2v.3H51.6l.1-.2.1-.2v-.8l.1-.3.1-.3v-.2H52.4l.1.1.1.1h.2l.1.1h.1l.2-.2h.2l.1.1h.5l.2-.1.3-.3.2-.1.1-.1v-.1l.3.1h.6l.4-.4.3-.3.1-.2.1-.1.2-.1.3-.1.3-.2h.1l.1-.2.1-.2.2-.1.2-.1.2-.1.3-.1V73l-.2.4v11.3l-.1 1-1 1.3-.4.5-1.3 1.7-3.6 4.6-4 5.3H47.2l-.4.2h-.2V99H46.3v.4h-.1l-.1.2H46l-.2-.1-.3-.4-.1-.1-.1-.2h-.1v-.1H44.6v-.1l-.1-.2-.2-.1v-.1L44 98l-.3-.3h-.2l-.2-.2v-.1h-.1v-.1l-.1-.1v-.1l-.2-.4v-.1l-.2-.5V96l.1-.2.1-.1.2-.2.2-.2h.1v-.1h.2V95h-.2l-.1-.1h-.1l-.1-.1H43l-.3.1-.1.2h-.2l-.1-.1V95l-.1-.1V94.6l-.1-.1v-.1H42V93.8l.1-.2.1-.2v-.2H42l-.2.2v.1l-.1.2h-.1l-.2.2h-.2v-.1l-.1-.1V93l-.5-.4h-.2l-.1-.1-.1-.1-.1-.1v-.1L40 92v-.5l-.1-.1-.1-.1-.3-.1-.2-.1-.1-.2-.2-.2h-.1l-.2-.1h-.2l-.1.2-.2.2h-.5l-.1.1v-4l.1-.6v-1.9l.1-1v-1.6l.1-3.5v-2.4l.1-.8v-5.3l.1-2.3v-1l.1-1.5z" style="fill:#fff;stroke-linejoin:round;stroke-width:.40373;stroke:#000"/>
    </g>
    <g id="region7" style="filter:url(#filter30)" transform="translate(-12.043 -12.344)">
      <path id="Warren" d="M65.7 15.9h5.9v2.7h.1v3.7l-.1 1.2v1h-.2v.7h-1.2v.7L70 36.4v.8h-6l-9.3-.2H51l-1.2-.1H46.4l-3.7-.1H42v-2.4l.1-3 .2-4v-4.8l.2-3.6v-3.5l3.8.1 11 .2H62z" style="fill:#fff;stroke-linejoin:round;stroke-width:.40373;stroke:#000"/>
      <path id="Venango" d="M42 36.8h4.4v1.6l-.1 2.2h.1V43.2l-.2.8v2h-.4v1.4h1.8v6.1h-1l-1.8-.1v.7H42v2.6h-.8v.2H41v.5l-.1.7H40v2l-.2.3-.4.4-.3.5.4.2-.2.6h-.2v-.2H38l-.1.2v.1l.2.2.2.2h-6.9l-1.3-.1h-4.6l-.4-.1v-4h.1v-2.8l.1-2.2v-2.3l.1-.3v-3.5l.1-.7v-2.9h.8V42.8l1-.1v-.6h.7l.1-.7h.7v-.7h.6v-.7h.8v-.7h1l-.1-.3.9-.4V38h.4v-.2h.4v-1h2.7l-.1.2H42z" style="fill:#fff;stroke-linejoin:round;stroke-width:.40373;stroke:#000"/>
      <path id="Mercer" d="M25.6 44.1V46h-.1v4.8l-.1.4v2.3l-.2 2.2v6.8l-.2.2-1.9 2.2-1.4 2-.4.5-.5.7-.8-1-.6-.7-.4-.5-.4-.4-3-.4h-1l-.2-.1H14v-.5H8L5 64.3h-2v-1.9l.1-3.1.2-7.2.3-8.6 2.6.2h.7l2.9.2 4.3.3h1.9l1.8.2H19l.9.1v-.3h2.4z" style="fill:#fff;stroke-linejoin:round;stroke-width:.40373;stroke:#000"/>
      <path id="McKean" d="M97.6 16.1H101.7V38h-9.1v.9h-2.7V37.1H76.4l-.5.1-.1.2h-2.2l-1.4-.1H72l-1.6-.1h-.6v-.9l.4-10.5v-.7h1.2v-.6h.1v-1.1l.1-1.2V22l.1-2.7v-.8l-.1-2V16H84l6.1.1H96z" style="fill:#fff;stroke-linejoin:round;stroke-width:.40373;stroke:#000"/>
      <path id="Lawrence" d="m20.8 68-.2.2-.8 1.1-1 1.2-.8 1.2-.2.2v8.2H14l-1.3-.1H7.3l-.3-.1H2.4l.1-2.7v-.9l.1-3.6.3-8.5h2l3.2.2H14v.4h.4l.3.1.9.1 3 .4.4.4.4.5.6.7.7 1z" style="fill:#fff;stroke-linejoin:round;stroke-width:.40373;stroke:#000"/>
      <path id="Jefferson" d="M59 53.6v.2l.1.1.2.2.3.1h.2l.1-.2v-.5h.4v.6h.2l.1-.1.1-.2v-.5h.2v.5l.1.1.2.1h.1l.2-.1.2-.3v-.1l.2-.1h.2l.1.1.1.2.3.3.2.2h.5l.1-.2v-.6H64v-.1l.2-.3.2-.3h.4v.1h.5l.7-.2h.2v-.1h.5l.2.3h.3v-.2l.1-.1h.2l.3-.2.1-.1V52l.2-.2h.6l.2-.3.1-.1h.2v.2l.2.1v.4l1 .6 2 1.2 1.7 1 1.3.9 1 .5.6.4 1 .7.8.4V58.7l.1 1h1.2v1.7h-2.3l-.1.2-.2.6-.5 1-.8 1.8-.3.5V78.4h-1.6l-1-.1h-1.6l-2-.1h-2.1l-4-.2h-1.2l-4.1-.1v-4.5l.1-.4v-.3l.1-2.6V68h.2V64l.1-1.8V58.4z" style="fill:#fff;stroke-linejoin:round;stroke-width:.40373;stroke:#000"/>
      <path id="Forest" d="M46.4 36.9h6.5l1.7.1 9.3.1h.9l2.9.1h2.1v7.2l-.1 1v.9l-.1 1.7h-.7v-.9h-1L65 47v1.6h-1.2v3.3l-.1 1.5h-.2l-.1.1v.6l-.2.1h-.4l-.2-.2-.3-.3v-.2l-.2-.2h-.2l-.1.2-.1.1-.2.3-.2.1H61v-.2l-.1-.2V53.3h-.2v.7l-.2.1h-.2V53.5H60v.5l-.1.1-.1.1h-.2l-.3-.1-.2-.2v-.1l-.2-.2v-2L59 50V48.2l-3.5-.1H52.6l.1-.3H51v2.8h-3.3v-3.2h-1.8V46h.4v-2l.1-.8v-1.4l.1-1.2h-.1v-2.2z" style="fill:#fff;stroke-linejoin:round;stroke-width:.40373;stroke:#000"/>
      <path id="Elk" d="m69.8 37.2.6.1h1.8l1.4.1h2.2l.6-.1H86.3l.4-.1H90v1.5h2.7v11.4h7v4.6h.8v5.4h-1.6l-.7-.1-2.3-.3-2.5-.2-3.4-.3-1.5-.1-2.8-.3-2-.2h-.8v1.9l-1.7.6-.6.2-.4.1v-1.7H79V58l-.8-.4-1-.7-.7-.3-1-.6-1.3-.8-1.8-1.1-2-1.2-1-.6v-.7H69l-.1.1-.2.2-.1.1h-.4l-.3.2v.2l-.4.1h-.1l-.1.1v.1l-.1.2h-.3l-.1-.2-.2-.1H66l-.7.3h-.4v-.1h-.5l-.2.3-.1.3-.3.1h-.1v-3.5l.1-1.3H65V47l3 .1h1v.9h.6v-2.7l.1-.9v-5.6l.1-.5v-.7z" style="fill:#fff;stroke-linejoin:round;stroke-width:.40373;stroke:#000"/>
      <path id="Crawford" d="m4 23 4.9.2H11.2l2 .2h3.2l16 .4h7l1.1.1h1.8v3.5l-.2 4V37h-6.7V37H33v1h-.5v.2H32v.6l-1 .4.2.2h-1v.8h-.7v.7H28.8l-.1.7h-.7l-.1.8h-.7v.5h-1v.8h-.7v.5H20v.4h-1.5l-.7-.1h-.1l-1.8-.1-2-.1-4.2-.3-3-.2h-.6l-2.6-.2V41l.3-7.4v-2.5L4 29z" style="fill:#fff;stroke-linejoin:round;stroke-width:.40373;stroke:#000"/>
      <path id="Clearfield" d="m106.5 60.8.2.4.3.6.6 1 .3.4.3.6.5.8v.2h-.5v.2l-.1.3V65.6h-.7v.1l.1.2v.2h-.5V66h-.2v.4h-.1l-.1.1h-.2v-.2h-.4l-.2.1-.1.2v.1l.1.3.2.6.2.6.3.5-.2.2v.2H106.7l.1.1v.6h.5l.1.2v.2h.2l.2-.1h.1v.7h.1V71.2H107.6v.1h-.5V71.5l.3.2v.1h-.1v.1h.2v.4h.1l.3.1v.1l.1.2v.2H107.6v.5h-.1l-.2-.1v.1l-.2.1h-.4v.8l-.2.2V74.9l.1.2.3.3v.4H106.7l-.2.2h-.4l-.4.1v.1l-.2.2h-.4l-.1-.1h-.2V76l-.2-.3v-.2l.1-.2V75h-.1v.1l-.1.2v.1l-.2.5v.1h-.2v-.4h-.2v-.1l-.2-.1h-.5V75.8H103.5v.2l.2.4-.2.1h-.1l-.2.3h-.1l-.3.4v.2l-.2.2h-.2v.2h-.4l-.2.1-.2.1h-.2l-.3.1-.2.2-.2.3v.1l-.1.1v.1l.1.2.2.1v.2l-.1.2-.2.3-.1.1h-.7v.2h.3l.1.1v.1h-.2l-.2.1V81.4l-.2.2h-.2l-.2.2H99l-.2.2h-.3l-.3-.2h-.4v.2l-.1.4-.2.2h-.2v.4l.1.3-.5.5-.2.4h-.2v.1l-.2.1h-.1l-.4.4v.3l-.2.2-.2.5-.2.3v.1l-.1.2H95l-.2.2-.2.1-.1.2-.2.2-.1.2v.2l.1.2.3.5.2.2.5.7H92l-3.2-.2H84.7l-3.7-.2h-4.9v-.3h-.3v-6.8L76 79V65.4l.3-.4.8-1.9.5-1 .2-.5.1-.2h2.3l.4-.1.6-.2 1.6-.6.1-.5v-1.5l.8.1 2 .2 2.8.2 1.5.2 3.4.3 2.6.2 2.2.3h.8l.9.1h.5l4.7.5z" style="fill:#fff;stroke-linejoin:round;stroke-width:.40373;stroke:#000"/>
      <path id="Clarion" d="M47.6 50.5h.8l2.4.1v-.9l.1-2 1.8.1v.2h2.8l3.5.2v5.3l-.2 5V66.2l-.1 1v.7h-.2v1.8l-.3.1H58l-.2.2-.2.1v.2l-.2.1-.1.1-.3.2h-.3l-.2.2v.1l-.2.2-.3.3-.4.3v.1H55l-.2-.1-.2.2-.2.1-.3.3H54l-.3.1h-.2l-.1-.1h-.2l-.2.1v.1h-.2l-.2-.1-.2-.2h-.2v.2l-.2.3-.1.3v1l-.2.1-.2.1h-.1v-.5l.1-.2v-.2h-.2v-.2h.2V73h-.7l-.1.1h-.1v-.2l-.1-.1v-.1l-.1-.1H50l.1-.2.1-.1v-.1H50L50 72h-.2l-.1.2-.4 1-.1.1h-.7v.2h-.6v-.1l.2-.2v-.1h-.3l-.1-.1-.6-.2-.3-.1-.2.1v.2l-.1.2v.5h-.1l-.2.1H46l-.1-.2v-.2l-.2-.1H45.5v.5H45.2l-.2-.1-.3-.2-.2-.2h-.1l-.3.1H44l-.2-.1-.2-.1h-.8l-.2.3-.2.3v.1l-.2.1h-.3l-.5-.2-.4-.2v-.5l.2-.1.2-.1.1-.1.3-.1h.4l.2.2H42.7l.1-.2v-.4l-.2-.2h-.1l-.2-.1H42l-.2-.1-.1-.1v-.2l.2-.2V71.2l.2-.4v-.5H42l-.1-.1h-.2l-.2.2h-.3l-1-.4-.4-.2-.3-.2h-.2v-.2l-.1-.1V69h.1l.2-.3.1-.1v-.1h.1v-.4l-.8-.7v-.2l-.1-.2V64.5l-.1-.1-.1-.2v-.3l.1-.3.1-.2v-.2l-.2-.3-.3-.3-.2-.2-.2-.2v-.3h1.2l.1.2h.2l.2-.6-.4-.2.3-.5.4-.4.2-.3v-1.9h.8v-.8h.2v-.6h.2v-.1h.7V54h2.8v-.7h2.8z" style="fill:#fff;stroke-linejoin:round;stroke-width:.40373;stroke:#000"/>
      <path id="Cameron" d="M92.6 38.8v-.9h9.2l.2.3.5.7.2.1.2.3 1.7 2.1.6.8.5.6.6.8.1.2.7.9.6.7.5.6h2.8v3.2l-.1 1.1v1.8l-1.2 2.4-1.5 2.9-1.7 3.4-1.5-.2-4.7-.5v-5.4h-.7V50.1H92.5v-7.9l.1-.2v-1.8z" style="fill:#fff;stroke-linejoin:round;stroke-width:.40373;stroke:#000"/>
    </g>
    <g id="region9" style="filter:url(#filter42)" transform="matrix(1.051 0 0 1.051 -3.7029 -22.593)">
      <path id="Wayne" d="m222 14.7.2.1.2.1v.1l.1.2v.2h.1v.4l-.1.1V16.2h.2l.1.1.2.1.2.2.2.3.1.1v.1l.2.2.2.1h.4v-.2H224.7v.1l.2.2.1.2.2.2.1.1v.1l.1.2.1.2V19l.2.1v.2l.1.1V20.3l-.1.1V20.7l.2.1.1.1h.1v.2l.1.2V22.3h.8l.2-.1.1.1h.1v.1l.2.1h.2l.2-.2.1-.2H228.3v-.1h.5l.1.1h.1l.1.2h.2l.2-.1v-.2l.2-.1H230v.5l.1.2.1.2h.1l.1.1H231.3l.1.2h.4l.2.1h.2v.1h.1V24l.1.2.1.1.1.1h.1l.1.2h.2l.1.2H234l.2.1V25.7l-.1.1-.1.1H233.6l-.2.1-.2.1v.2l-.1.1v.1l-.1.3v.5l.2.1H234.3l.3.2h.1l.1.3.1.2.1.3v1.3l.1.3v.1l.1.2v.4h-.5v.1h-.1v.4l.2.2.1.2.1.2.2.4v.5l-.1.1-.1.2v.2l.1.1.2.2v.8l.1.5v.4l.1.2.1.2V36.1H235.3l-.1-.1h-.1v.2l-.1.2H234.6l-.2.2V37h.1v.2l-1 2-1 1.8-1.1 2-.3.4-.3.5-.1.3v.1l-.1.1-.2.3v.1l-.3.4h-.2v.1l-.1.1V46.2l-.1.2h-.3v.2l-.2.2-.3.2-.2.1-.2.1h-.5l-.1.2v.1h-.5v.2l-.1.1-.2.1.1.4v1l-.1.1-.2.1-.1.1V50l-.1.2v.1h-.2l-.6.1h-.2l-.2.1h-.4l-.1-.1-.2-.2h-.1v.4l-.2.1h-.5l-.2-.1v-.1l-.1-.1v-.1h-.2v.1h-.1v.2h-.2l-.2.2.2.4v.1l.2.2v.1l.1.1v.1l.1.1v.2l-.2.2v.2h1l.4.4v.5h-.2v.3l.1.1v.2l-.1.2-.1.1-.1.2v.1h-.1l-.2.1v.2l.1.2v.2l-.1.1V55.7l-.1.1v.5l-.4.2h-.1v.1l-.1.3.2.2.2.2.2.2.1.2v.3l.1.2-1.7.3h-2.8l-1 .1h-2.1.2l.3-.5h.4v-.3h.5l.2.1v-.2h.3l.2-.2.2-.1.2-.1.2-.1v-.2l-.1-1.4-.2-2.6V51l-.1-1.4V49l-.1-.7v-.7l-.1-.3V47l-.2-2.7v-1.2l-.2-1.9v-.7l-.2-1.8v-1.2l-.1-1-.1-1.5-.1-1.1-.1-1.5V32l-.1-.3v-1.2l-.2-1.4-.1-1.9v-1l-.2-2.2-.2-2-.1-1.5v-1.1l-.2-1.7v-1.2l-.1-.5v-.4l-.1-.7z" style="fill:#fff;stroke-linejoin:round;stroke-width:.40373;stroke:#000"/>
      <path id="Wyoming" d="m190.2 35.2.1.5h2.4l.8-.1h1.6l2-.1 4.6-.1h5.3v.3l-.1.1h-.2l-.9 1.7-.3.4-.3.8-.4.6.3.4-.2.3-.5 1-.6 1.1v.1l1.3 1-.2.3v.1l-.3.3-.8 1.4-.2.4-.2.5-.2.3-.2.4-.2.3-.2.4-.1.2h-.2l-1.5.6h-.3l-.4.2-.5.2-.5.2-.9.3-.8.3-2.5.8h-.7l-1.7.2h-.3l-5 .2-3.7.2.3-1.5.9-2.9.8-2.9.2-.8v-.6l.2-.8.1-.8.4-2.3v-.9l.2-1v-.7l.1-.1.2-.1z" style="fill:#fff;stroke-linejoin:round;stroke-width:.40373;stroke:#000"/>
      <path id="Susquehanna" d="m190.3 15.5 10.8-.2 3.7-.1 6.7-.2h.2l4.8-.2V16l.1.5.1 1v.2l.1 1.7v.3l.1.8v1.4l.3 2.1.1 2.2v1l.2 2 .1 1.3v1.2l.1.3v.6l.2 1.5V35h-2.6l-3.2.2h-10.4l-4.5.2H193.5l-.9.1H191l-.7.1-.1-.5-.3-3.9-.2-3-.1-1-.3-3.1-.3-3-.4-5.7h1.2z" style="fill:#fff;stroke-linejoin:round;stroke-width:.40373;stroke:#000"/>
      <path id="Pike" d="M248.5 46.4h.1l.1-.1H249v1.5l.1.2h.1l.2.1h.2v.1h.3v.2h.2v.2l.1.1.1.2.2.2.2.2.1.2h.1l.2.2v.1l.1.2v.2l-.2.1-.3.2h-.1v.1h-.3l-.2.2-.2.1h-.1l-.1.1h-.8l-.2.1h-.1l-.2.2-.1.2v.2l-.1.1-.1.2v.1l-.2.1h-.1l-.1.1h-.5l-.1.1h-.2V53.4l-.3.1-.3.2-.2.2-.1.1-.1.2h-.1l-.2.2-.1.1v.1l-.2.2v.1l-.1.2v.1l-.1.2v.2l-.1.1v.2l-.1.2v.1l-.1.3-.2.1-.2.2v.1l-.1.2-.1.2v.2l-.2.3v.2l.1.1.1.2.1.1v.4h-.1l-.1.2-.1.2v.1l-.2.3-.1.2-.1.3v.1l-.1.2v.2l-.1.1-.1.2-.1.2-.2.1-.2.2v.2h-.1v.3l-.2.3-.2.2v.2l-.2.2-.2.3-.2.1-.3.3h-.1l-.2.2h-.2v.1l-.1.1v.1l-.1.1-.2.2h-.1v.1l-.2.1v.1l-.2.1H239.6l-.2.2-.2.2v.1l-.2.4v.1l-.2.2h-.2v.2H238l-.1.3h-.3l-.2.2-.2-.1-.1-.1v-.1h-.1l-.1-.1-.4-.6v-.1l-.7-1.1-.2-.3-.3-.4-.2-.4-.7-.1-1-.1h-.4l-.5-.1-.8-.1v-.6l.1-.4.2-1 .1-.5V60l.3-1.1.3-1.7V57l-2.5.2-.6.1-1.4.2h-.6l-.7.2-1.2.2h-.3l-.3.1-.9.2v-.2l-.1-.3v-.2l-.3-.2-.2-.2-.2-.1v-.4h.2l.3-.2V55.7h.1v-.4h.2v-.7h.1v-.2l.1-.1.1-.2.2-.2v-.2l-.1-.1v-.2l.1-.1V53l.1-.1v-.1l-.4-.5h-1v-.2l.2-.2V51.7l-.2-.1v-.2l-.2-.2-.1-.4V50.5h.2v-.1h.1v-.1l.1-.1h.1l.1.1v.1h.1l.2.2H224.7v-.2h.1V50h.1l.2.2v.1h.9l.5-.2h.2l.1-.3v-.2l.1-.1h.1l.1-.1.1-.2V48.7l.1-.2V47.8h.1v-.1l.1-.2h.5V47.2h.8l.2-.2.2-.2.2-.2v-.2h.4v-.2h.2V46l-.1-.2v-.5l.1-.1h.2l.2-.5.2-.4h.1V44l.2-.3.3-.5.2-.4 1.1-2 1-1.9 1-1.9.1-.1h.1l.2.3.1.1.1.1h.2l.1.2.1.2.1.2.2.4.1.2h.1l.1.2h.2l.1.2.2.2.2.2v.2l.1.2V40.2l-.1.1v.5h.2l.2.1.2.2.1.1.1.2v.8h.7l.1.1v1.3l.1.1.2.2h1.1l.1-.2h.2l.2-.2H240.6l.1.1.2.1.2.1.1.1h.1l.2.1V44.3l.1.2.1.2h.2v.1h.2v.1h.1l.1.2h.1v.4h-.2v.4h.1l.1.1h.3l.3-.1.2-.1.2-.1.2-.1H243.9l.3.2.2.1.2.1v.1l.3.1H245.2l.1-.2h.1l.1-.1.1-.1.2-.1H246V46l.2.1v.2l.1.1.1.3H247.1l.1-.1h.2l.2-.1h.2l.2.1h.4z" style="fill:#fff;stroke-linejoin:round;stroke-width:.40373;stroke:#000"/>
      <path id="Northampton" d="m218.7 82.4 1.6-.4.6-.2.4-.1.4-.1H222.3l.3-.2.4-.2.8-.5.2-.1.4-.1.7-.6h.1l.6-.1h.1l.5-.3.2-.2.2-.1.2-.2.2-.2.3-.5.2-.4.7-.4.3-.2-.2-.5.2-.2.3-.2.2-.2.1-.2v-.2l.2-.2.1-.2.2-.1.1-.1h.2l.5-.2h.3l.1-.2.2-.2v-.1h.2l.4-.1.4-.1 1.5-1v.5l.3.4v.1l.2.2.2.4.2.4.2.3.2.2.2.1.1.1.1.2.1.2v.2l.1.2v.2l.1.1v.2l.2.2v.1l.2.2.1.2.3.2v.3l.2.2v.4h-.1l-.1.2-.1.1v.2l-.1.1-.1.2H235l-.1.1v.5l.2.2v.1l.2.1v.7l-.2.2-.3.3V82.4l-.1.1v.2l-.2.2-.2.2-.2.2h-.2v.1l-.2.1v.1l-.1.2v.1l-.2.1v.1h-.1l-.1.1h-.4l-.1-.1h-.2l-.2-.1h-.5l-.2.2v.5l-.2.1v.2h-.2l-.1.1-.3.2-.1.2-.1.1v.2l.1.1.1.1.3.3.1.2v.6h-.1v.2l-.1.1-.1.1-.1.2-.2.3v.4l-.1.3v.6l.2.1.2.1h.5l.1.2v.5h-.1l-.1.2-.3.3v.1l-.2.1V91.2l-.1.1v.2l.1.1v.1h.1l.1.2v.2l.1.1v.8h-.1l-.2.1v.5l-2.4 1.7-.8.5-1.5 1.3-1 1-1.6-1.3-1.5-1.2.4-.6v-.2l.1-2-1.2-1.3-.7-1-2 1-.3-1-.1-.2-.3-.2-.3-.3-.5-.9-.2-.5-.4-1V87l-.2-.1-.3-.1h-.1l-.1.4v.2l-.1.2h-.2l-.2.2h-.2l-.3-.1-.1-.3v-.2l-.2-.1H214l-.3-.2-.1-.2-.2-.3-.1-.4-.2-.7v-.6l-.2-.5.4-.2.2-.1.2-.2.3-.2 1.8-.4z" style="fill:#fff;stroke-linejoin:round;stroke-width:.40373;stroke:#000"/>
      <path id="Monroe" d="M224.3 58h.9l.3-.1h.2l.1-.1 1.2-.2.7-.1.6-.1 1.4-.2h.6l2.5-.3V57.2l-.3 1.7-.2 1v.4l-.2.4-.2 1.1v.4l-.1.6h.8l.5.1h.5l.9.2.7.1.2.4.3.4.2.3.6 1 .1.2.4.6h.1v.2l.2.1.1.1h.1l.1-.1.1-.1h.3l.1-.2.3-.2h.5v.2h.4l.1-.1.1-.1.1-.1.1-.1h.1l.1-.1.1.1v.2l-.1.2-.2.2-.2.2h-.1l-.2.1h-.2v.2h-.2l-.2.1-.1.1-.1.1v.1h-.2l-.1.2-.1.2v.1l-.2.3v.1l-.2.2v.5l-.2.1-.1.2h-.1l-.2.2-.1.1-.1.1-.2.1-.1.1-.3.2-.4.3-.3.1h-.3v.1h-.1l-.2.2-.2.1-.3.1-.3.2-.2.2-.2.1v.1l-.3.2-.1.1-.2.1v.5l-.1.2h-.1v.4l.2.1.1.1h.2l.1.1h.1v.2l-1.4.9h-.4l-.4.1h-.1l-.1.2-.2.2-.1.2h-.3l-.5.1h-.2l-.1.2-.2.1v.2l-.2.2v.2l-.2.2-.2.2-.3.2-.2.2.2.5-.3.2-.7.4-.2.4-.3.5-.2.2-.2.2-.2.1-.2.2-.5.2-.7.2-.8.6h-.4l-.2.2-.8.5-.4.2-.4.1h-.5l-.4.2-.4.1-.6.2-1.6.4-.4-.9-.1-.5-.6-.8-.8-1.4-.8-1.3-1-1.5-.4-1 1.3-.8-.2-.4 1.7-1.2.1-.2-1.5-1.7-.4-.5-.3-.3-.3-.4-.4-.4-.2-.2-.1-.3-.1-.3-.2-.2-.2-.3-.5-.5-.2-.2h-.2l-.1-.2v-.4h-.4v-.3l-.1-.2-.2-.3h-.1v-.1h-.2v.2h-.2l-.1-.3h-.4l-.1-.1v-.3l-.1-.1.1-.3.5.1v-.1l.4-.2v-.2l-.2-.2.2-.1.3-.3.2-.1-.1-.3h.4v-.4h.1v-.2h.1l.1-.1V62h.4l.1-.3h.3l.1-.3v-.3l.1-.2.1-.4.1-.1.2-.3.3-.2.1-.3.1-.2.2-.3.1-.2h.4l.2-.1.1.2.4.2.1-.2.1-.2.1-.3h.7l1.6-.1h3.2l.5-.1z" style="fill:#fff;stroke-linejoin:round;stroke-width:.40373;stroke:#000"/>
      <path id="Luzerne" d="m202.4 47.8.2.3V49.4l.3.4.7.2.5.3.2.3.5.3.5.2.2.2.8.7.3.1.6.2 1.7.3v1.2h-.3v.8h.2v1h.4l.1 1.2 1.3.5.1 2v.5l.1 1.3.1.4.1.3.2.1h.1l.2.1.2.2h.4l.1-.1h.1V62.4l.5.2h.1v.1l-.1.2v.2l-.1.2h-.4v.3l-.1.1-.3.3-.2.1.2.2v.2l-.3.2-.1.1h-.5l-.1.2-.2.2h-.2v-.5l-.2-.1-.1-.1-.1-.1h-.7l-.2.2h-.3l-.5.4v.3l-.2.1-.2-.1h-.2V65.6l-.1.1h-.2l-.1.2v.2H206.4l-.1.2v.4h-.5V67.3l-.2.2V69l.1.3.2.2v.1l.2.4H206.8v.6l.3.7.2.2-.7.4-.2.2-1.3.7-.6.3h-.1l-.7.2-.8.4-.4.4-.5.3-1.2.6-.6.3-4 2h-.1l-1 .5-.3.2-2.5-1h-.4l-.4-.2-.8-.2-3.2-1-.5-.2-.3-1.4-.1-.9-.1-.5v-.3l-.2-1-.1-.5-.2-.8v-.3l.1-1.3v-2.7l-.1-1h-.9l-.1.1-.5.1h-.5l-.5-1-.1-.3-.6-1.3-.7-1.5v-3.3l.1-1 .1-1v-.6l.6-2.2.6-1.7 3.6-.2 5.1-.2h.3l1.7-.1h.7l2.5-1 .8-.2.9-.3.5-.2.5-.2.4-.1h.3l1.5-.6z" style="fill:#fff;stroke-linejoin:round;stroke-width:.40373;stroke:#000"/>
      <path id="Lehigh" d="m206.8 87.2.4-.2.2-.1.3-.5.2-.2 1.2-.7.3-.2.3-.3h.2l.7-.3 1.6-.4.7-.1.1.5.1.6.2.7.2.4.1.3.1.2.2.2H214.6l.1.1v.2l.2.3h.7l.2-.1.1-.2v-.2l.1-.3.1-.1h.3l.1.2.1.5.4.9.2.5.5.9.3.3.3.2v.2l.5 1 2-1 .7 1 1.1 1.3-.1 2v.2l-.4.6 1.5 1.2 1.5 1.2-.8.8-1.4 1.3-.1.1-.4.4-.4.3-1.5 2-.1.2h-.1l-.2.3-.5.6-.2.3-.1.2-.4.4-.7-.5-.3-.2-.8-.6-.1-.2-1.4-1-2.7-2-2.8-2.4-.5-.3-1-.8-1-.9-.4-.3-.8-.6V95l-.5-.3-.9-.8-4-3.2 1.7-.9 2-1 1.2-.9.7-.6z" style="fill:#fff;stroke-linejoin:round;stroke-width:.40373;stroke:#000"/>
      <path id="Lackawanna" d="M207 35.3H212.1l3.2-.1h2.6l.2 1.4v1.9l.1.3.1 1.8v.7l.2 2 .1 1.1.2 2.7v1.1l.1.7v.7l.1 1.4V53l.3 2.6V57.1l-.3.2h-.2l-.2.3h-.3v.2h-.2v-.1h-.4v.3h-.5l-.3.4-.2.2-.2.3v.2l-.2.2-.4-.2-.1-.2h-.2l-.4.1-.1.2-.2.3v.2l-.2.3-.3.2-.2.3v.1l-.2.4-.1.2v.3l-.1.2-.3.1-.1.2h-.2l-.3.1.1.5h-.2l-.5-.1V62h-.2l-.2.1h-.2l-.2-.2H211.2l-.2-.2v-.3l-.2-.4v-1.9l-.2-2-1.3-.4v-1.2h-.5v-1h-.2v-.7h.3v-1.3l-1.7-.3-.6-.2-.3-.1-.8-.7-.2-.2-.5-.2-.5-.3-.2-.3-.5-.3-.7-.2-.3-.4V48l-.1-.3v-.2l.3-.4.2-.3.2-.4.2-.3.2-.5.2-.4.8-1.4.2-.3.1-.1.2-.3-1.4-1h.1l.6-1.3.5-1 .2-.2-.3-.4.4-.6.3-.8.3-.4.8-1.8.1.1h.1l.2-.1z" style="fill:#fff;stroke-linejoin:round;stroke-width:.40373;stroke:#000"/>
      <path id="Carbon" d="M210.9 65v.4h.2l.4.1v.2h.3l.1-.1h.1l.1.1.2.3v.2l.1.2.3.1v.3l.1.1v.1l.3.1.2.2.5.5.3.3v.2l.2.3v.3l.3.2.4.4.3.4.3.3.4.5 1.5 1.7-.1.2-1.7 1.2.2.4-1.3.8.5 1 1 1.5.7 1.3.8 1.3.6 1 .2.4.3 1-3 .6-1.7.4-.3.2-.2.2-.2.1-.4.2h-.7l-1.6.5-.7.3h-.2l-.3.3-.2.2-1.3.7-.2.2-.3.5-.2.1-.4.2-1.5-1.1-.5-.4-.4-.4-1.4-1.1-.8-.7-.5-.3-.6-.5-1-.9-.3-.3-.3-.4-1.8-2-.7-.9-.2-.2-.3-.3-.3-.4 4-2 .6-.3 1.2-.6.5-.3.4-.4.8-.4.7-.2.7-.3 1.3-.7.3-.2.6-.4-.2-.2-.2-.7v-.3l-.1-.2-.2-.1h-.3l-.2-.4-.1-.1-.1-.2-.1-.3v-.2l-.1-.8v-.5l.2-.2V66.7h.5V66h1v-.2l.1-.1h.2v-.2l.1-.2v-.1h.2l.2.1.2-.1V65l.5-.4h.3l.2-.1.3-.1h.4v.1h.2l.1.2v.3l.1.2h.2z" style="fill:#fff;stroke-linejoin:round;stroke-width:.40373;stroke:#000"/>
    </g>
    <g id="region8" style="filter:url(#filter44)" transform="matrix(1.0667 0 0 1.0667 -12.388 -15.913)">
      <path id="Union" d="M157.6 65v.1h-.1v1l.1.4.1.1v.4l.1.2.1.2v.1l.1.1.3.2.2.3.5.4.2.3v1l.1.3v.3l-.2.4v.8l-.1.1-.1.6v.8l-.1.3-.2.2v.2l-.2.3v.2l-.2.3.2.5v.4l.1.3.1.2.2.3.1.3.1.1.3.7.2.3.5.6.2.1.4.5.1.2.2.1h-1.6l-.2.1h-.2l-.2.2h-.5l-.2-.1h-.2l-.4.1h-1l-.4-.2h-.4l-.5.4-1.6.4-.2.2h-.7v.2l-.1.2-.1.3h-.2l-.3-.2h-.4l-.7-.3-.9.2-.7.2h-.2l-.4.2-.6.1-.3.1-.4.1-2.3.7h-.3v.1l-.9.2-.5.1h-.3l-.2.2h-.2l-.6.2-.7.1-.7.2-.2.1-1 .3-1 .4-.4.1v-2l-.2-.3.1-.1h.1l.8-.9 1-1 .3-.3.2-.3.4-.3.1-.1.4-.5.2-.3.4-.4.2-.4.6-.7.2-.3.4-.7.6-1 .7-1 .2-.2.2-.3.4-.4 1-1.1.7-.8V70.4l.1-1.3h1.3l.2-.1.4-.2 1.3-.7 3.8-.1.7-3.5z" style="fill:#fff;stroke-linejoin:round;stroke-width:.40373;stroke:#000"/>
      <path id="Tioga" d="m155.6 15.8.2 1.8.2 1.2.2 1.8.5 4.1.1 1.2.2 1v1.4l.2 1.9.2 1.3.1 1.6.2 1.2V34.9l.2 1.8.2 2.1V39.1l-.7.5h-.3l-.3.2H156.2l-.1.3-.1.3-.2.1h-.3l-.3.2-.3.1-.2.2-.2.3v.2l-1.6.1-3.2.2h-2.3l-3 .2H141l-.7.1h-9.5l-3.3.2v-.5l-.1-2.7V36l-.2-2.7V25.7l-.1-.4v-4.6l-.2-4.5 7.2-.1h11l2.7-.1 6.3-.2z" style="fill:#fff;stroke-linejoin:round;stroke-width:.40373;stroke:#000"/>
      <path id="Sullivan" d="m185.9 41.5-.1.8-.1.6-.2.8-.8 3-.8 2.8-.4 1.5-.6 1.7-.5 2.2-4.2.1-1.6 2-.9-.3-1.1-.2-.9-.2-.5-.1-.8-.4-.6-.2h-.7l-.9-.3-.4-.3-.4-.4-2.5-2.1-3.4-2.9-.4-1.6-.3-1v-.3l-.2-.7-.1-.3-.2-.6-.1-.7-.4-1.3V42.8l-.1-.2-.4-1.1-.4-1.6v-.1l-.1-.5h.7l.4.1 1.3.2h.3l2.1.2h.2l.7.1h.7l.6.1h.5l1.6.2 4.2.3 2.3.2 5 .4 3.3.3h.5z" style="fill:#fff;stroke-linejoin:round;stroke-width:.40373;stroke:#000"/>
      <path id="Snyder" d="M161 79.2h.1l.3.1h.2l.2.2V80.4l-.1.5v.3l-.1.4-.2.2-.2.2-.3.3-.3.3-.1.2-.1.2-.2.1-.1.3-.3.5-.4 1.5V86.2l.1.2v.4l.1.6V89.3l-.3.5v.3l-.4.5-.4.4-.3.2-.3.2-.3.4-.5.4-.1.2-.2.4-.3.5-.1.1-.2.3h-.2v-.2l-.1-.3-.1-.2h-.2l-.5.1-.2.1-.1.1-.2.1h-.1l-.1-.1H153.8v.2h-.1v.2h-.4l-.1-.2h-.1V93l-.1-.2v-.4H152.2l-.2.2h-.1l-.1-.2V92l-.1-.3v-.2l-.2-.2-.3.2H150.7l-.2-.1h-1.3V91l-.2-.2-.2-.1-.1-.1h-.2l-.6.2-.7.3h-.2l-.2.1h-1.7L144 91l-1.4-.3h-.4l-1.4-.3-2.7-.4v-4.4l-.1-1.2v-.4l.4-.1 1-.4 1-.3h.2l.7-.3.7-.1.6-.2h.2l.2-.1H143.3l.5-.2.8-.2h.1l.3-.1 2.3-.7h.4l.3-.2.6-.1.3-.1h.1l.2-.1.7-.2.9-.2.7.2.4.1.3.2h.2l.1-.3.1-.2v-.2h.7l.1-.1h.1l1.6-.5.5-.4h.4l.4.1.6.2h.2l.2-.1h.3v-.1h1.3l.2-.1z" style="fill:#fff;stroke-linejoin:round;stroke-width:.40373;stroke:#000"/>
      <path id="Potter" d="M121 16.2h5.9l.1 4.5v4.6l.1.4v4.9l.1 1.6v1l.1 2.8V39.1l.1 2.7v2.9l.1 1.2h-7.1l-.5.1h-5.4l-.8.1h-5.5l-.5-.7-.6-.7-.7-1-.1-.1-.6-.7-.5-.7-.6-.8-1.7-2-.2-.4-.2-.1-.5-.7-.2-.2V22.6l-.1-1.9v-4.5H116z" style="fill:#fff;stroke-linejoin:round;stroke-width:.40373;stroke:#000"/>
      <path id="Northumberland" d="M164.5 63v1.4l-.1.3v3.2l-.2.3v.2l-.2.6-.1.2v.1l-.1.2-.2.4-.1.3v.1l-.1.2v.1l-.1.2V71.4l-.3.4-.1.3-.1.2v.4l-.1 1.1-.2.5-.3.4v.5l-.2.2v.6h.2l.5-.1 1.7-.3.6-.2 1-.3 1.1-.3H167.7l.1.1.2.2.3-.2h.5l.3.1.2.1.3.3.2.3.3.3.1.1.5.2h1.2v.8l-.2.4v.5l.2.2v.2l.2.5v.1l.1.2.3.2.1.2h.7l.9-.1h.2v.4l-.1.1v.5l.2.2v.1l.1.2V81.3l-.1.1V82l.1.2v.5h.5l.6-.1 3-.5.2.6.2.8.1.6.1.2v.2l.6 1-1 .4-.2.1-1.5.7-1.1.7-2.2 1.1-.7.3-1.5.8-.8.3-.3.2-1.3.6-.9.5-.4.2-1 .4-.4.3H166.3v.3h-1v.2H164.2l-.2.2h-.1l-.1.2H162.9l-.1.1-.2.1-.1.1h-.3l-.3-.2h-.2l-.1.2v.2l-.1.2-.3.1H161l-.2.1-.2.3H159.2l-.1.1-.1.2v.1l-.1.2H158.2l-.1.2v.2H157l-.1.1v.2h-.2l-.2-.2-.3-.1-.2-.2-.3-.5v-.2h-.2l.2-.3.4-.2.1-.1.2-.2.1-.2.3-.5.2-.4.1-.2.5-.4.3-.4.3-.2.3-.2.4-.4.3-.5.1-.3.2-.5V89l.2-.6v-.2l-.1-.3V86.5l-.1-.3v-.8l.3-1.5.3-.5.1-.3.2-.1v-.2l.2-.2.3-.3.3-.3.2-.2.2-.2v-.4l.1-.3v-.8l.1-.2v-.4l-.2-.1-.2-.1h-.5l-.2-.2-.1-.2-.4-.5-.2-.1-.5-.6-.2-.3-.2-.7-.2-.1v-.3l-.3-.3v-.2l-.1-.3v-.4l-.3-.5.1-.3.1-.2.1-.3.1-.2.2-.2v-.8l.1-.3v-.6l.1-.1v-.3h.1v-.4l.2-.5V69l-.1-.1v-.1l-.2-.3-.5-.4-.2-.3-.2-.1-.1-.2-.1-.2v-.1l-.1-.2V66.7h-.1v-.2l-.1-.4V65.8l-.1-.2V65l.2-.4v-.2l.2-.2V64l.2-.1.5-.2.4-.1.8-.2h.4l.5-.2.5-.1.4-.2h2.2z" style="fill:#fff;stroke-linejoin:round;stroke-width:.40373;stroke:#000"/>
      <path id="Montour" d="m168.4 64 .1.4.3 1.2v.1l.1.1v.2l.1.3.1.6v.3l.2.4v.4l.2.1v1l.6.2.2.1h.2l.7.2.3.2.3 1v1.5l-.1.3v.2l.6.7.2.1.5.5.2.4.4.5.3.5.1.2v.2h-.2v.1h-.1l-.2.2h-.1l.2.4v.7h-.1v1.5l-.2.7h-.8l-.3-.3V79l-.2-.6-.1-.2-.2-.2v-.4l.2-.5v-.8H170.7l-.5-.2-.4-.4-.2-.3-.3-.3h-.2l-.3-.2h-.5l-.2.1-.1.1-.2-.2v-.1H167l-1.2.3-.9.3-.6.2-1.7.3-.5.1h-.3v-.6l.2-.1v-.1l.1-.4v-.1l.3-.4.2-.5.1-1V72l.2-.3.3-.4v-.8h.1v-.3l.1-.1V70l.1-.1.1-.3v-.1l.1-.2.2-.3.2-.6v-.2l.1-.3v-.2l.1-.7V64.3l.1-.3v-1h.1l1.3.6h.2l.4.2.4.2z" style="fill:#fff;stroke-linejoin:round;stroke-width:.40373;stroke:#000"/>
      <path id="Lycoming" d="M160.8 39.3v.5l.5 1.7.4 1.1v.5l.5 1.3.1.7.2.6v.3l.2.6.1.4.3 1 .4 1.6 3.4 2.9 2.5 2.1.4.4.4.3 1 .2.6.1.6.2.7.4.6.1.9.2 1.1.2.9.2-.7.7-.2.2-.4.5-.1.2-1.4 1.5-.8 1-.3.4-.3.3-.4.5h-.1l-.1.1-.2.3-1.2 1.2H170.1l-1.7.2h-1.5l-.4-.1-.4-.2h-.2l-1.3-.6H163l-.5-.1h-.9l-.4.2-.5.1-.5.2h-.4l-.7.2h-.1l-.4.1-.5.2-.2.1v.1l-.1.2v.2l-.2.4-2.8-.5-.7 3.5-3.8.1-1.3.7-.4.2-.2.1H146l-1-1.2-.7-1-.5-.8-.4-.4-1.7-2.2v-.1l-.3-.4-.2-.2-.3-.1-.2-.1-.1-.2v-.5l-.6-.8-.3-.3-.3-.2H138v-.1l-.4-.3-.3-.3-.4-.3-.8-.7-.4-.5v-.2l-.3-.2-.2-.2-.3-.1h-.1v-.4l-.1-.1V57h-.1l-.2-.2h-.4l-.1-.2-.2-.3V56.1l-.1-.2h-.1v-.1h-.2l-.2-.2-.3-.3v-.5l-.2-.2V53.9l-.1-.1-.2-.2-.1-.1-.1-.1-.2-.2-.3-.2h-.4l-.3-.1h-.2l-.1-.1h-.1l-.1-.1-.3-.2v-.1l-.2-.2v-.1l-.1-.7-.2-.4-.1-.4-.3-.3-.1-.2V50l-.2-.3h-.1l-.3-.3-.1-.2-.2-.6v-.3l-.1-.2h-.7v-5.9H139.5l.8-.1h2l2.2-.1 3-.1 2.2-.1 3.1-.2h1.6l.1-.3.2-.3.2-.2.3-.1.3-.1.3-.1.2-.1V40l.2-.2.2-.1h.4l.3-.1.3-.1.6-.5.1-.2 1.6.2.7.1z" style="fill:#fff;stroke-linejoin:round;stroke-width:.40373;stroke:#000"/>
      <path id="Columbia" d="M182.4 54.9v.6l-.2 1v1.9l-.1.9v1.5l.7 1.5.6 1.3.1.4.5 1h.5l.5-.2h.2l.8-.2V67.3l.1 1.1V70l.1.8v.5l.3 1v.8l.2.9.4 1.4-1.7 2-.4.4-1.2 1.5-.2 1.3-.3 1.6v.3l-.1.7-.2.7h-.1l-3 1.6-.5-1v-.2l-.2-.2v-.6l-.3-.8-.2-.6-3 .5h-.6l-.2.1h-.2l-.1-.1V82l-.1-.2v-.4l.1-.2v-.4l-.1-.1-.1-.2v-.1l-.1-.1v-.4l.2-.1V79.5h-1.2l.1-.7v-.7l.1-.4v-.4l.1-.2v-.5l-.2-.3v-.1l.3-.2h.2l.2-.2-.1-.1-.1-.2-.3-.5-.4-.5-.2-.4-.5-.5-.1-.1-.7-.7v-.9l.1-.2v-.4l.1-.4v-.2l-.4-1h-.3l-.7-.2h-.2l-.2-.2-.7-.2v-.7l.1-.2-.1-.2v-.2l-.1-.2-.1-.4v-.3l-.2-.6V66l-.1-.2v-.2l-.4-1.2-.1-.4 1.7-.1h.2l.2-.1 1.1-1.2.2-.3.2-.1.4-.5.3-.3.3-.5.8-1 1.4-1.4.1-.2.4-.5.2-.2.7-.7 1.6-1.9z" style="fill:#fff;stroke-linejoin:round;stroke-width:.40373;stroke:#000"/>
      <path id="Clinton" d="M127.5 46V48h.7v.2l.1.3.2.5.1.3.3.2v.1h.1l.1.3.2.3.3.3v.4l.2.3.1.1v.7l.1.1.1.2.1.1.3.2h.2v.1h.3l.3.1h.3l.1.1.3.2.2.2h.1v.2l.3.2h.1v.8l.1.2v.2l.1.3.3.3.2.1.2.1v.1l.1.1V56.3l.1.1.2.3.1.1.4.1.2.1v.2h.1l.1.4h.1l.3.2.2.1.2.3.1.2.4.5.8.7.4.3.4.3.3.3h.6l.7.1.3.2.3.3.7.8v.3l-.1.2.1.2h.2l.3.2.2.2.2.4h.1l1.7 2.3.4.4.5.8.7 1 1 1.3h1.1v1.4l-2.1.8-.3.1-2 .8h-.2l-1.5.6-.5.2h-.2l-.2.2h-.2l-.4.3-.5.2h-.6l-1.7.5-.4.1h-.7l-1 .2-3.2.7-1.4-2.1-.6-1-.1-.3-1-1.5.8-.6-.3-.4-.4-.1h-.1l-.3-.2h-.1l-.2-.1v-.2h-.1l-.2-.1h-.2l-.1-.2h-.1l-.2-.2-.3-.2h-.2l-.1-.2-.1-.1-.3-.1-.8-.3v-.2l-.1-.2h-.4l-.1.1h-.2l-.1-.2h-.7l-.4-.2H122.7v.2l-.1.1h-.4l-.1-.2h-.5l-.3.2-1-1.5-.4-.7-.2-.3-.1-.2-.6-1-.3-.4h-1.5l-2.3.2V59l-.1-.1-.2.2-.2.2-.2.1v.1l-.2.4-.2.3-.2.2h-.4l-.1.1V61.2h-.2l-.3-.1-.3-.3h-.2v.2h-.2v.3h-.2l-.1.2V63.3l-.3.1h-.2V63.7l-.1.1-.1.1h-.4v.1l-.1.5v.2l-.1.2h-.4l-.1-.3v-.1H108.6l-.5-.7-.3-.6-.3-.4-.6-1-.3-.6-.2-.4 1.7-3.4 1.5-3 1.2-2.3V46.1h6.8l.7-.1h8.3z" style="fill:#fff;stroke-linejoin:round;stroke-width:.40373;stroke:#000"/>
      <path id="Centre" d="M147 70.6v.1l-.7.8-1 1.1-.4.4-.2.3-.2.2-.6 1-.7 1-.4.7-.2.3-.6.7-.2.4-.4.4-.2.3-.4.5h-.1l-.4.4-.2.3-.3.3-1 1-.8.8-.2.2h-.5l-.3.2-.2.1-.2.2-.8.3-.5.2-.8.5-1.3.7-.6.3-.6.3h-.2l-.5.3-.8.5-1 .5-1 .6-.3.1-.4.2-.6.2-.9.4h-.2l-.8.4-.3.3-.4.2-.6.3-.6.4-.1.1-.4.3-.3-.6-1.3.2-.4.1h-.5l-2.5-1.3h-.1l-.3.2-.3.1-.5.2-.4.2-1.5 1h-.3l-.1.2-.3.2-.7.4-.8.5-.6-.3-.5-.1-1.1-.5h-.3l-1.2-.5-1.4-.6-1.3-.4-.9-.3-.7-.3-2.7.1-2.1.2h-1.2l-3.8.2-.2-.2-.3-.5v-.2l-.1-.2V87l.3-.2.1-.2.2-.1.2-.1.2-.1V86l.1-.1.2-.3.1-.5.2-.2v-.3l.5-.4h.2l.1-.2h.2l.2-.4.4-.4v-.7l.2-.1.1-.2.2-.4v-.1H99l.1-.1.3-.1.2-.1.2-.2V80.6l.2-.1h.2v-.2h-.5v-.1l.1-.1.1-.1h.5l.2-.1.2-.3v-.4l-.2-.3v-.2l.1-.1.2-.3.2-.2.2-.1H101.7l.1-.1.2-.1h.4l.1-.1.2-.1.1-.2v-.2l.4-.4.3-.2h.1l.1-.1v-.6l-.1-.1H103.2v-.4h.5l.1.2h.2v.5h.2l.1-.1.1-.5v-.1l.1-.2h.2V75.5l-.1.1v.1l.2.3v.2h.2l.1.1h.4l.1-.2h.1l.4-.1h.2l.2-.1.2-.1h.1l.2-.1v-.4l-.3-.3-.1-.1-.1-.1v-.1l.1-.1v-.1l.1-.2.2-.2V74l-.1-.2v-.2h.3l.1-.1.1-.1.1-.1h.1v.1h.2V73h.2l.1-.1v-.4h-.2l-.2-.1h-.2v-.2l.1-.1v-.2h-.2l.1-.1v-.1l-.3-.1v-.4h.8V70.8l-.1-.3v-.4l-.1-.1h-.2l-.1.1h-.1v-.4h-.7V69.5l.1-.1v-.2h-.2l-.2-.1v-.2l.1-.1v-.1l-.2-.5-.2-.6-.2-.6-.1-.3V66.4l.2-.1h.4l.1.2H106.7V66H107l.2.2h.2l.1-.1v-.4h.4l.2-.1V64.9h.4l.1-.1.1-.2.1-.1h.9v.1l.2.2v.2h.2l.2-.1v-.4l.1-.5V64h.5l.1-.2v-.2h.2l.3-.2h.1v-1.7l.1-.2.2-.1V61l.1-.1.1-.2h.2l.3.3.3.1h.2v-.8l.1-.1h.4l.2-.2.2-.3.1-.4.1-.1h.2l.2-.3.2-.2v3l.1 1.3 2.3-.1h1.5l.3.3.6 1 .1.2.2.3.5.7.9 1.5.3-.1h.2l.2-.1.2.1v.1h.5v-.2l.2-.1.5.2h.7v.1h.2v.1h.2l.1-.1H124.9v.2l.1.2.8.3h.3v.2l.2.1h.2l.3.3.2.1v.1l.2.1h.2l.2.2.1.2h.2l.1.1.3.2h.5l.3.5-.8.6 1 1.5v.2l.7 1 1.4 2.2 3.1-.7 1.1-.1h.6l.5-.2 1.7-.4.6-.1.4-.2.4-.2.2-.1.3-.1.2-.1.5-.2 1.5-.5.1-.1 2-.8.4-.1z" style="fill:#fff;stroke-linejoin:round;stroke-width:.40373;stroke:#000"/>
      <path id="Bradford" d="M171 15.7H178.7l10-.2.4 5.8.3 2.9.3 3 .1 1.2.2 3 .3 3.8-3.3.4h-.2v.8h-.1l-.1 1-.1.9v.1l-.4 2.3-.1.8H185l-.3-.1-3.3-.3-5-.4-2.3-.2-4.2-.3-1.6-.1h-.5l-.6-.1-.7-.1H165.6l-2.1-.3h-.3l-1.3-.2h-1l-.1-.1h-.4l-.7-.2-1.5-.2-.3-2.2-.2-1.8V34.3l-.1-1.2-.2-1.6-.1-1.3-.2-1.9-.1-1V27l-.2-1-.1-1.2-.5-4-.2-2-.2-1.1-.2-1.8h1.4l10.5-.1h2.1z" style="fill:#fff;stroke-linejoin:round;stroke-width:.40373;stroke:#000"/>
    </g>




  </g>
</svg>
