<?xml version="1.0" encoding="UTF-8" standalone="no"?>
<!-- Created with Inkscape (http://www.inkscape.org/) -->

<svg
   width="400"
   height="400"
   viewBox="0 0 105.83333 105.83333"
   version="1.1"
   id="svg1"
   xml:space="preserve"
   inkscape:version="1.4 (86a8ad7, 2024-10-11)"
   sodipodi:docname="tools.svg"
   xmlns:inkscape="http://www.inkscape.org/namespaces/inkscape"
   xmlns:sodipodi="http://sodipodi.sourceforge.net/DTD/sodipodi-0.dtd"
   xmlns="http://www.w3.org/2000/svg"
   xmlns:svg="http://www.w3.org/2000/svg"><sodipodi:namedview
     id="namedview1"
     pagecolor="#ffffff"
     bordercolor="#111111"
     borderopacity="1"
     inkscape:showpageshadow="0"
     inkscape:pageopacity="0"
     inkscape:pagecheckerboard="1"
     inkscape:deskcolor="#d1d1d1"
     inkscape:document-units="mm"
     inkscape:zoom="1.5322671"
     inkscape:cx="247.67222"
     inkscape:cy="220.58817"
     inkscape:window-width="1920"
     inkscape:window-height="1115"
     inkscape:window-x="-9"
     inkscape:window-y="-9"
     inkscape:window-maximized="1"
     inkscape:current-layer="layer1" /><defs
     id="defs1" /><g
     inkscape:label="Layer 1"
     inkscape:groupmode="layer"
     id="layer1"><path
       style="fill:#000000"
       d="M 16.852237,95.060587 C 13.321745,94.20604 10.47055,91.322275 9.629847,87.755694 9.0775155,85.412494 9.3058153,83.424724 10.386103,81.171088 10.9552,79.98387 12.455716,78.415162 27.593392,63.181801 L 44.177217,46.493151 35.66153,37.977464 27.145842,29.461777 22.878087,29.030396 c -2.347266,-0.23726 -4.463692,-0.493569 -4.70317,-0.569576 -0.239478,-0.07601 -1.862674,-1.86645 -3.607101,-3.978762 -5.0158193,-6.07361 -5.0459785,-6.113578 -5.0459785,-6.687129 0,-0.419005 0.7431055,-1.277338 3.5517365,-4.102472 1.953455,-1.964933 3.760976,-3.625342 4.016713,-3.689798 0.255736,-0.064455 0.660934,-0.023898 0.90044,0.09013 0.824083,0.392336 9.914712,8.052424 10.045585,8.464769 0.07206,0.227041 0.331984,2.34849 0.577609,4.714332 l 0.446591,4.30153 8.489591,8.47655 8.489591,8.476549 4.581592,-4.449385 4.581593,-4.449385 -0.355119,-1.789619 c -0.47903,-2.41407 -0.337438,-6.90375 0.285952,-9.067136 C 58.673423,12.486932 71.936952,6.3310971 83.33128,11.684008 l 1.073875,0.504493 -6.87586,6.878027 -6.875861,6.878027 4.050894,4.050894 4.050894,4.050893 6.869145,-6.86698 6.869145,-6.86698 0.712209,1.56524 c 1.248302,2.743423 1.644526,4.724399 1.633811,8.168469 -0.008,2.57454 -0.08265,3.275239 -0.524738,4.926185 -1.57891,5.896291 -5.28568,10.465908 -10.656705,13.13733 -1.833784,0.912082 -2.994423,1.311194 -5.065552,1.741907 -2.561956,0.532785 -7.995613,0.316905 -8.80439,-0.349799 -0.202835,-0.167204 -0.656721,0.176392 -1.976758,1.49643 l -1.713469,1.713468 0.859024,0.773159 c 0.472463,0.425237 0.956806,0.863202 1.076317,0.973256 0.119512,0.110054 1.883109,1.684925 3.919104,3.499714 2.035996,1.81479 4.016964,3.582129 4.402153,3.927422 0.385188,0.345292 3.266597,2.904781 6.403131,5.687754 10.177977,9.030679 10.188812,9.042259 11.368297,12.149152 0.446114,1.175114 0.512081,1.658434 0.511846,3.750144 -2.03e-4,1.803602 -0.08961,2.650162 -0.359264,3.401663 -0.783517,2.183605 -1.424748,3.220608 -2.940481,4.755361 -1.233312,1.248788 -1.862756,1.707523 -3.206564,2.336925 -3.763121,1.762541 -7.70366,1.548451 -11.295381,-0.613682 -0.643488,-0.387365 -1.866939,-1.48704 -2.866719,-2.576696 -4.005975,-4.366093 -21.375891,-23.959936 -21.457506,-24.20478 -0.05209,-0.156259 -5.78183,5.386882 -13.885616,13.433398 -14.799546,14.694955 -14.409768,14.353319 -17.190618,15.067392 -1.44868,0.371996 -3.016067,0.368164 -4.583406,-0.01121 z m 4.190954,-7.065429 c 2.148497,-0.975799 2.659825,-3.688293 1.006871,-5.341247 -1.344228,-1.344228 -3.301356,-1.345113 -4.644369,-0.0021 -1.684795,1.684795 -1.183744,4.349372 1.004771,5.343346 1.027875,0.466838 1.604852,0.466838 2.632727,0 z"
       id="path1" /></g></svg>
