<?xml version="1.0" encoding="UTF-8"?>
<svg id="svg1" width="16" height="16" version="1.1" viewBox="0 0 4.2333 4.2333" xmlns="http://www.w3.org/2000/svg">
	<g id="layer1" transform="translate(-1.0601e-8 -.44633)">
		<path id="path3" d="m2.1146 1.0374c-0.59598 0.00108-1.0781 0.48561-1.0769 1.0816 0.00118 0.59595 0.48524 1.078 1.0811 1.0769 0.59611-0.00118 1.0781-0.48518 1.0769-1.0811-0.00115-0.59592-0.48503-1.0781-1.0811-1.0769z" style="fill-rule:evenodd;fill:#fff;stroke-width:.26458"/>
		<path id="path2" d="m2.1141 0.71039c-0.77484 0.0014869-1.4018 0.63076-1.4004 1.4056 5.576e-4 0.26875 0.081542 0.51653 0.20774 0.73277 0.28501 0.48843 1.1994 1.5673 1.1994 1.5673s0.92311-1.0985 1.2041-1.5896c0.12093-0.21157 0.19538-0.45437 0.19482-0.71572-0.0014559-0.7749-0.63073-1.4019-1.4056-1.4004zm5.168e-4 0.32349v5.168e-4c0.59604-0.00115 1.0799 0.48102 1.0811 1.0769 0.00112 0.59589-0.48083 1.0799-1.0769 1.0811-0.59583 0.0010222-1.0799-0.48099-1.0811-1.0769-0.0011461-0.59598 0.48095-1.0805 1.0769-1.0816zm-0.39612 0.45747c-0.028965 0-0.052532 0.0031-0.079665 0.00867-0.13777 0.028093-0.26049 0.12613-0.32876 0.26266-0.02116 0.041967-0.035306 0.087115-0.041877 0.13365l-0.00378 0.026018 0.00118 0.040793 0.00115 0.040762 0.00496 0.024903c0.014558 0.072975 0.049435 0.1462 0.099457 0.20895 0.00939 0.01177 0.15066 0.14908 0.37819 0.36757l0.36317 0.34883 0.00932-0.00883c0.0051-0.00489 0.16112-0.15713 0.34672-0.33826 0.21-0.20505 0.34397-0.33746 0.35478-0.35078 0.053182-0.065541 0.089886-0.13929 0.10522-0.21146l0.00579-0.02735 0.00124-0.046957c7.434e-4 -0.0302 1.858e-4 -0.054855-0.00155-0.069072-0.021585-0.17767-0.14388-0.32687-0.31386-0.3829-0.054019-0.017965-0.0989-0.024098-0.16385-0.022425l-0.044386 0.00115-0.029425 0.00604c-0.10475 0.021461-0.19805 0.076935-0.2639 0.15688l-0.00784 0.00954-0.014248-0.01685c-0.063276-0.074771-0.1689-0.13421-0.27384-0.15416l-0.031191-0.00595-0.041908-0.00115c-0.01115-3.028e-4 -0.021401-2.718e-4 -0.031066-2.718e-4z" style="fill-rule:evenodd;fill:#f472b6;stroke-width:.26458"/>
	</g>
</svg>
