<?xml version="1.0" encoding="UTF-8"?>
<svg id="svg1" width="16" height="16" version="1.1" viewBox="0 0 4.2333 4.2333" xmlns="http://www.w3.org/2000/svg">
	<g id="layer1" transform="translate(-1.0601e-8 -.44633)">
		<path id="path3" d="m2.1146 1.0374c-0.59598 0.00108-1.0781 0.48561-1.0769 1.0816 0.00118 0.59595 0.48524 1.078 1.0811 1.0769 0.59611-0.00118 1.0781-0.48518 1.0769-1.0811-0.00115-0.59592-0.48503-1.0781-1.0811-1.0769z" style="fill-rule:evenodd;fill:#fff;stroke-width:.26458"/>
		<path id="path2" d="m2.1141 0.71039c-0.77484 0.0014869-1.4018 0.63076-1.4004 1.4056 5.576e-4 0.26875 0.081542 0.51653 0.20774 0.73277 0.28501 0.48843 1.1994 1.5673 1.1994 1.5673s0.92311-1.0985 1.2041-1.5896c0.12093-0.21157 0.19538-0.45437 0.19482-0.71572-0.0014559-0.7749-0.63073-1.4019-1.4056-1.4004zm5.168e-4 0.32349v5.168e-4c0.59604-0.001146 1.0799 0.48102 1.0811 1.0769 0.0011151 0.59589-0.48083 1.0799-1.0769 1.0811-0.59583 0.0010222-1.0799-0.48099-1.0811-1.0769-0.0011461-0.59598 0.48095-1.0805 1.0769-1.0816zm-0.24598 0.28887v0.56172h-0.56224v0.49609h0.56224v0.56276h0.49558v-0.56276h0.56276v-0.49609h-0.56276v-0.56172h-0.49558z" style="fill-rule:evenodd;fill:#8243da;stroke-width:.26458"/>
	</g>
</svg>
