<?xml version="1.0" encoding="UTF-8"?>
<svg id="svg1" width="16" height="16" version="1.1" viewBox="0 0 4.2333 4.2333" xmlns="http://www.w3.org/2000/svg">
	<g id="layer1" transform="translate(-1.0601e-8 -.44633)">
		<path id="path3" d="m2.1146 1.0374c-0.59598 0.00108-1.0781 0.48561-1.0769 1.0816 0.00118 0.59595 0.48524 1.078 1.0811 1.0769 0.59611-0.00118 1.0781-0.48518 1.0769-1.0811-0.00115-0.59592-0.48503-1.0781-1.0811-1.0769z" style="fill-rule:evenodd;fill:#fff;stroke-width:.26458"/>
		<path id="path2" d="m2.1141 0.71014c-0.77484 0.0014869-1.4018 0.63076-1.4004 1.4056 5.576e-4 0.26875 0.081542 0.51653 0.20774 0.73277 0.28501 0.48843 1.1994 1.5673 1.1994 1.5673s0.92311-1.0985 1.2041-1.5896c0.12093-0.21157 0.19538-0.45437 0.19482-0.71572-0.0014559-0.7749-0.63073-1.4019-1.4056-1.4004zm5.168e-4 0.32349v5.167e-4c0.59604-0.001146 1.0799 0.48102 1.0811 1.0769 0.0011151 0.59589-0.48083 1.0799-1.0769 1.0811-0.59583 0.0010222-1.0799-0.48099-1.0811-1.0769-0.0011461-0.59598 0.48095-1.0805 1.0769-1.0816zm-0.19844 0.29197a0.029551 0.029551 0 0 0-0.029456 0.029456v0.029972h-0.1049a0.20692 0.20692 0 0 0-0.20671 0.20671v0.7798a0.20692 0.20692 0 0 0 0.20671 0.20722h0.059945l-0.018087 0.054777h-0.10077c-0.016169 0-0.029972 0.012488-0.029972 0.027389 0 0.014869 0.013802 0.026872 0.029972 0.026872h0.082682l-0.028939 0.086816h-0.15968a0.029644 0.029644 0 0 0-0.029456 0.029456v0.00878c0 0.016263 0.013194 0.029456 0.029456 0.029456h0.13746l-0.023254 0.069763a0.040282 0.040282 0 1 0 0.076481 0.025321l0.031523-0.095085h0.55345l0.031523 0.095085a0.040282 0.040282 0 1 0 0.076481-0.025321l-0.022739-0.069759h0.13694a0.029644 0.029644 0 0 0 0.029972-0.029456v-0.00878a0.029737 0.029737 0 0 0-0.029972-0.02946h-0.15968l-0.028939-0.086816h0.083199c0.016263 0 0.029456-0.011972 0.029456-0.026872s-0.013193-0.027389-0.029456-0.027389h-0.10077l-0.018603-0.054777h0.059945a0.20677 0.20677 0 0 0 0.20722-0.20722v-0.7798a0.2068 0.2068 0 0 0-0.20722-0.20671h-0.1049v-0.029972a0.029551 0.029551 0 0 0-0.029456-0.029456zm-0.13436 0.17725h0.66818a0.088716 0.088716 0 0 1 0.088883 0.088883v0.30489h-0.84594v-0.30489a0.088716 0.088716 0 0 1 0.088883-0.088884zm0.16536 0.58084h0.33796a0.013436 0.013436 0 0 1 0 0.026872h-0.33796a0.013436 0.013436 0 0 1 0-0.026872zm-0.16433 0.093534c0.056717 0 0.10284 0.046119 0.10284 0.10284 0 0.056686-0.046119 0.10284-0.10284 0.10284a0.103 0.103 0 0 1-0.10335-0.10284 0.10303 0.10303 0 0 1 0.10335-0.10284zm0.66663 0c0.056686 3e-7 0.10284 0.046119 0.10284 0.10284 0 0.056686-0.04615 0.10284-0.10284 0.10284a0.103 0.103 0 0 1-0.10284-0.10284 0.10303 0.10303 0 0 1 0.10284-0.10284zm-0.50229 0.034623h0.33796a0.013397 0.013397 0 1 1 0 0.026355h-0.33796a0.013413 0.013413 0 1 1 0-0.026355zm0 0.12764h0.33796a0.013436 0.013436 0 0 1 0 0.026872h-0.33796a0.013436 0.013436 0 0 1 0-0.026872zm-0.020671 0.23926h0.37879l0.018087 0.055294h-0.41496zm-0.036173 0.10904h0.45114l0.028939 0.086816h-0.5085z" style="fill-rule:evenodd;fill:#00f;stroke-width:.26458"/>
	</g>
</svg>
