<?xml version="1.0" encoding="UTF-8"?>
<svg id="svg1" width="16" height="16" version="1.1" viewBox="0 0 4.2333 4.2333" xmlns="http://www.w3.org/2000/svg">
	<g id="layer1" transform="translate(-1.0601e-8 -.44633)">
		<path id="path3" d="m2.1146 1.0374c-0.59598 0.00108-1.0781 0.48561-1.0769 1.0816 0.00118 0.59595 0.48524 1.078 1.0811 1.0769 0.59611-0.00118 1.0781-0.48518 1.0769-1.0811-0.00115-0.59592-0.48503-1.0781-1.0811-1.0769z" style="fill-rule:evenodd;fill:#fff;stroke-width:.26458"/>
		<path id="path2" d="m2.1141 0.71039c-0.77484 0.0014869-1.4018 0.63076-1.4004 1.4056 5.576e-4 0.26875 0.081542 0.51653 0.20774 0.73277 0.28501 0.48843 1.1994 1.5673 1.1994 1.5673s0.92311-1.0985 1.2041-1.5896c0.12093-0.21157 0.19538-0.45437 0.19482-0.71572-0.0014559-0.7749-0.63073-1.4019-1.4056-1.4004zm5.168e-4 0.32349v5.168e-4c0.59604-0.00115 1.0799 0.48102 1.0811 1.0769 0.00112 0.59589-0.48083 1.0799-1.0769 1.0811-0.59583 0.0010222-1.0799-0.48099-1.0811-1.0769-0.0011461-0.59598 0.48095-1.0805 1.0769-1.0816zm-0.00211 0.24279s-0.85922 0.84925-0.8615 0.85153c-0.020398 0.020639-0.00585 0.055648 0.023168 0.055753h0.17785v0.59891c1.022e-4 0.017988 0.014658 0.032545 0.032646 0.032646h1.2631c0.017975-1.239e-4 0.032514-0.01467 0.032615-0.032646v-0.59888h0.17788c0.029083-3.09e-5 0.043655-0.035172 0.023137-0.055783l-0.20526-0.20526v-0.28102c-6.19e-5 -0.017984-0.014631-0.032547-0.032615-0.032615h-0.13892c-0.017992 6.2e-5 -0.032564 0.014624-0.032615 0.032615v0.076815l-0.45949-0.44203z" style="fill-rule:evenodd;fill:#00bf63;stroke-width:.26458"/>
	</g>
</svg>
