<?xml version="1.0" encoding="UTF-8"?>
<?xml-stylesheet type="text/css" href="map.css"?>
<svg id="svg135" clip-rule="evenodd" fill-rule="evenodd" image-rendering="optimizeQuality" shape-rendering="geometricPrecision" text-rendering="geometricPrecision" version="1.1" viewBox="0 0 27700 18100" xmlns="http://www.w3.org/2000/svg" xmlns:xlink="http://www.w3.org/1999/xlink">
	<style id="style1">.region1 {
      fill: #c697ff;
      fill-opacity: 1;
    }

    .region2 {
      fill: #FFFFB3;
      fill-opacity: 1;
    }

    .region3 {
      fill: #BEBADA;
      fill-opacity: 1;
    }

    .region4 {
      fill: #FB8072;
      fill-opacity: 1;
    }

    .region5 {
      fill: #80B1D3;
      fill-opacity: 1;
    }

    .region6 {
      fill: #FDB462;
      fill-opacity: 1;
    }

    .region7 {
      fill: #00cd9b;
      fill-opacity: 1;
    }

    .region8 {
      fill: #FCCDE5;
      fill-opacity: 1;
    }

    .region9 {
      fill: #D9D9D9;
      fill-opacity: 1;
    }

    #g67 a {
      filter: brightness(1);
    }
    #g67 a:hover {
      filter: brightness(1);
    }
    
    a {
      cursor: default;
    }</style>
	<g id="g67" stroke="#000" stroke-width="37">
		<g id="region1">
			<path id="philadelphia" class="region1" d="m24514 15838c-36 51-192 37-251 57-28 9-54 28-80 49-72-44-236-10-212-133 21-107 120-217 61-322-15-27-14-53-25-80-5-10-18-11-22-21-34-3-63-21-71-54l1-1-3 3c39-40 91-72 138-103 22-15 46-24 68-42 18-15 36-41 52-52 5-56-59-96-96-126-22-18-119-112-110-137 40-15 72-77 108-102 24-22 68-120 98-108 43 18 74 71 110 99h13l7-3 32-24c10 0 22-4 30 5 92 25 207 212 308 167 81-37 39-99 63-164 26-70 69-101 108-158l186-188 77 67c25 25 64 38 95 52 35 17 60 4 61 57 1 32 9 63 9 94-2 43-19 74-46 106-6 7-28 42-31 43-3 27 14 42 15 66l19 92c-64 60-124 127-184 166-40 25-81 21-120 44-11 6-28 18-33 30-35 87-51 125-139 166-61 29-133 37-186 83-101 88 41 304-43 364-5 4-1 6-7 8z"/>
		</g>
		<g id="region2">
			<path id="allegheny" class="region2" d="m4221 14089c39-56 62-66 121-100 49-28 107-36 152-65 37-24-8-41-22-66-34-65 52-82 52-142 0-31-27-60-13-91 9-22 46-54 65-64 14-31-9-65-17-96-11-48-13-98-4-146 3-6 10-14 11-21 55-64-57-218 51-276 14-28 58-46 80-69 41-41 91-73 129-118 42-51 47-76 57-142v-470c-18-13-28-50-46-68-50-46-78-68-144-88-84-26-151-112-94-202 57-91 202-71 257-180 11-20 27-34 43-51 6-7 14-13 21-19 8-5 13-15 21-18 5-9 13-15 19-24l10-19c0-15-1-17-8-31-8-19-16-32-16-53l3-70-1973-22 11 315v35h-139l-766 765 763 819 1139 450c-31 44-73 45-125 57-22 4-52 17-71 29-30 18-33 33-29 62 3 1 22 18 26 22 20 20 44 36 67 53 77 58 158 102 263 102z"/>
		</g>
		<g id="region3">
			<path id="erie" class="region3" d="M1411 4748h3883l-4-885h-619V2289c-30 11-59 18-85 18-40 31-151 120-198 131-63 85-198 50-280 123a750 750 0 0 1-240 150l-357 222c-25 15-203 116-203 82 0-66 0-23-43-28-2-1-1 66-56 86-50 18-172 89-205 132-49 65-16-46-10-67 14-44 34-84 66-114 46-42 85-34 144-51 18-5 53-27 53-26 59 58 67-17 24-46 29-10 88-35 34-59-34-15-104 14-136 25-106 35-178 185-205 289-14 55-49 130-114 132-59 8-135 95-205 112-70 16-93 47-156 80l-390 204c-53 28-204 64-242 102-38 4-158 59-188 86-7 0-27 7-31 11-7 0-8 3-15 7-68 27-146 68-222 96z"/>
		</g>
		<g id="region4">
			<path id="berks" class="region4" d="m18903 12397 870 715 134 53 248 250 1181 1001 474-387 274-175 743-1177-1545-1305-297 158c-169 72-204 134-240 308-33 161-73 111-203 111-80 0-176 64-253 89-45 14-96 59-139 66-23 21-72 25-102 34-129 48-260 122-400 129-156 8-309 26-460 62-70 17-211 32-270 66l-15 2z"/>
			<path id="bucks" class="region4" d="m25226 14977-19-92c-1-24-18-39-15-66 3-2 25-36 31-43 28-32 45-63 46-106 1-31-7-63-8-94-2-53-26-41-62-57-30-14-70-28-94-52l-78-68-2006-1561 317-407 319-274c31-11 69-61 94-83 50-44 97-92 152-129 39-27 107-94 151-103 44-41 173-49 216-81-39 32-2 55 14 84 36 65-68 134 14 186 53 33 95 68 135 21 91-106 217-20 288 38 96 77 84 154 111 286l2 9c13 67-4 133-13 200-7 51-35 89-20 144 30 112 58 207 190 236 65 15 139-35 198-5 91 46 85 87 114 169l9 23c16 46 31 74 38 121 3 18 6 54 14 69 22 41 95 87 135 111 113 71 211 105 247 248 15 59 10 115 62 155 11 8 38 18 50 25l210 126c45 28 53 150 94 189 60 57 168 116 129 210-53 125-159 59-231 147-45 55-111-4-161-18-36-10-52 33-61 66-37 143-242 256-386 256-84 0-157 56-226 120z"/>
			<path id="chester" class="region4" d="m22527 16175-1-112c2-49-25-130 23-167 22-17 50-31 67-55 15-19 30-72 57-75 13-14 30-15 43-37 15-28 30-92 59-109 60-33 78-94 130-143 62-60 148-91 222-134 20-8 57-13 68-33 12-21-19-55-19-82 0-28 34-78 60-84 11-14 36-25 51-42 22-24 31-57 35-89 4-46 16-44 41-77 22-6 39-29 59-40l114-54-36-54c-30-23-78 26-106 8-25-17-73-89-85-118-10-22-20-65-36-81-31-32-111 6-149 9-57 4-9-116-31-144-71 0-145 53-177-39-12-36 25-135-22-135-78 86-75-43-122-72 0-4-6-14-7-16-7-24-19-45-27-68-5-18-2-42-6-61-15-73-60-50-96-6-60 4-49-88-83-128-31-37-43-110-95-39-42 4-43 16-78-22-16-18-57-49-82-52-30-42-117 15-153 24l-61 6-273 175-475 387-129 93c-18 8-51 27-69 27-3 3-6 5-11 6l-7 5c-17 3-26 20-41 26-41 62-11 221-11 296 0 123-35 193-101 294l-125 226c-37 66 12 141 12 208-40 50-47 87-36 147 8 47 29 124-4 164-39 53-75 104-102 164-18 40-35 139-58 166-7 75-86 160-125 220-41 63-105 172-166 214l-101 135h1465l53 14c7-23 10-45 18-68s22-44 31-66c10-4 27-41 37-51 16-16 27-41 45-55 31-25 70-66 96-97 100-134 267-195 403-270 32-17 73-30 117-39z"/>
			<path id="delaware" class="region4" d="m23915 15332-2 2c8 32 38 51 71 54 5 9 17 10 22 21 12 26 11 52 26 79 58 105-40 215-61 322-25 123 140 89 212 134-66 53-130 121-215 97-68-19-158-13-224 5-139 34-268 170-381 252-18 13-38 23-58 32l-108-61c-5-5-15-12-22-13-35-39-197-69-251-80-103-19-268-27-397-1l-2-113c3-48-24-129 23-166 23-18 51-32 68-55 14-20 29-73 56-75 13-14 31-15 43-37 16-29 30-93 60-109 60-34 78-94 129-144 62-60 149-90 223-133 19-9 57-13 67-33 12-22-18-56-18-82 0-28 33-79 59-84 12-15 36-26 51-42 22-25 32-57 35-89 5-46 16-45 41-78 22-6 39-28 59-40l114-54c63 39 96 82 116 152 11 37 19 62 56 77 15 6 29 7 42 17 12 10 18 21 27 29 3 26 26 72 42 92 23 27 29 51 47 82l46 46z"/>
			<path id="lancaster" class="region4" d="m20262 16807 101-135c61-42 125-151 165-214 40-61 119-145 125-220 24-28 41-126 59-167 26-60 63-111 102-163 33-41 12-117 4-164-11-60-4-97 36-147 0-67-49-142-13-208l125-226a475 475 0 0 0 102-294c0-75-30-235 11-296 14-6 23-23 41-26l7-5c5-1 8-3 11-6 18 0 51-19 68-27l130-93-1181-1001-721 338-421 68-671 266-117 32c-46 8-97 49-128 84-42 46-102 24-142 59-28 25-58 41-87 63-24 2-48 10-70 12-45 37-72 114-90 170 4 4 6 9 11 11 5 9 27 32 36 37 9 21 27 44 42 61 15 16 23 35 35 53 15 21 32 47 51 66 19 20 43 42 57 64 99 70 154 57 269 82 55 12 100 31 159 31 52 0 77-42 132-36l7 5c31 49 20 118 57 171 70 99 87 146 115 262 29 123 71 178 180 241 78 62 196 107 289 138 39 85 19 212 67 284 28 42 69 76 98 120 30 45 45 89 86 130 5 5 7 8 12 11 10 21 40 44 55 63 32 40 61 95 105 120 68 36 96 134 136 195 34 52 58 130 65 191z"/>
			<path id="montgomery" class="region4" d="m22084 13854 61-5c36-10 122-67 153-24 25 2 66 33 82 51 34 38 36 27 78 23 52-72 64 2 95 38 34 40 23 132 83 128 36-43 81-67 96 7 4 18 1 42 6 60 7 23 19 45 27 68 1 2 7 12 7 16 47 29 44 159 121 72 47 0 11 99 23 135 32 93 106 40 177 40 22 27-26 147 30 143 39-3 118-41 150-9 16 16 26 59 36 81 12 29 59 102 84 118 28 19 77-31 107-8l36 54c63 38 95 82 116 152 10 36 19 61 55 76 15 6 30 8 42 18 13 9 18 21 28 29 2 25 25 72 42 91 23 28 28 52 46 83l47 45c39-40 91-72 137-103 23-15 47-24 69-42 18-15 36-41 52-52 4-56-59-96-96-126-22-18-119-112-110-137 40-15 71-77 108-102 24-22 67-120 98-108 43 18 74 71 110 99h13l6-3 32-24c11 0 23-4 30 5 93 25 207 212 309 167 81-37 39-99 63-164 26-70 69-101 107-158l187-188-2006-1562-193-161z"/>
			<path id="schuylkill" class="region4" d="m20833 10039 356 463 662 539-206 156-363 174-297 159c-168 72-203 133-240 307-33 162-73 112-203 112-79 0-176 64-253 89-44 14-96 58-138 65-24 22-73 25-103 35-129 48-260 122-399 129-156 8-309 26-461 62-70 17-210 32-269 66l-16 2-414-326-673-603 1348-659 311-147 87-440 340-391 773 276z"/>
		</g>
		<path id="adams" class="region5" d="m15943 14768 10 5c24 53 111 67 149 106 40 43 75 84 108 135 57 85 148 49 207 127 50 65 97 144 131 218 15 73 63 131 73 205 8 57 9 104-31 149-52 58 16 163 62 200 30 24 45 70 36 106-8 29-70 37-84 66-9 2-21 17-29 25l-58 64v632h-2010l-34-1264 93-124c11-1 8-2 15-3 4-4 7-6 12-8 27-36 82-76 115-107 16-14 27-32 42-45 60-49 123-68 196-89 82-22 161-52 247-64l499-68z"/>
		<path id="bedford" class="region5" d="M11630 14270c-5 26-27 40-39 63-50 95-80 215-177 280-36 23-93 56-104 98-20 76 60 61 83 103 40 15 4 96-10 117-10 8-27 21-40 22-4 3-10 6-12 11-16 4-16 149-23 174-15 54-63 101-76 155-29 25-60 112-70 151-8 31-21 61-36 90-16 32-19 70-34 101-30 50-39 122-58 178-23 70-61 139-81 209-37 43-61 137-85 192l-88 205c-7 17-17 32-26 48-7 14-14 37-26 47-8 17-26 34-39 48-38 44-64 102-100 148l-41 96H8731l216-611v-1331c8-14 15-25 27-37 8-8 17-24 27-29 3-6 49-46 55-48 9-16 19-27 26-46 6-20 6-37 2-57l320-854c90-77 16-133 21-227 17-22 20-44 17-72-4-37 4-66 31-93l80-59 467 230 277 246v-338l654 331 136-285c24 10 20 36 36 49 1 20 10 40 15 58 20 66 45 223 45 292z"/>
		<path id="blair" class="region5" d="m11459 11714c-27 41-26 101-26 149 0 47-68 78-74 131-5 38 25 65 40 98 25 54 47 131 117 57 24-24 72-149 104-149 1-3 1-2 3-2 9 52-24 109-44 156-23 50-54 196-30 245 32 65 60-28 92-21 10 3 9 90 6 101l-421 779-139 268-136 285-654-331v338l-277-246-467-229 44-105c10-13 25-21 35-33 10-4 24-11 32-18 10-2 40-16 49-23 19-2 42-16 63-21 19-5 34-19 52-25 3-4 7-6 12-10-16-58-16-129-16-189 0-48-13-95-21-142-20-121 28-152 68-256 27-69 10-97 10-163 42-102 125-163 205-238 90-84 142-159 193-270 26-56 0-117 18-165-1-1-1 0-2 1 6-29-13-79 2-105 0-44 87-29 114-25 54 7 77-42 98-83l145-287c11-21 20-60 31-78l2-24 990-73c-24 72-124 119-179 167-98 88-229 90-229 254 0 48 55 65 78 102 19 31 46 90 87 98 23 25 22 47 25 82z"/>
		<path id="cumberland" class="region5" d="m13868 14190c7-4 9-4 13-8 75-19 130-211 201-218 4-3 8-2 12-5 176 0 308-192 436-288 16-26 83-60 111-79 88-61 189-199 303-182 27 47-128 189-169 220-67 49-70 173 29 100l188-138c16-11 71-87 94-47 38 65 42 135 142 111 99-23 200-81 300-98l958-92 379-113c2 23 2 63-12 81-3 33-17 55-11 91 5 33 24 65 32 97 10 9 18 32 28 43 38 43 69 99 115 136l91 121-98 52c-33 7-86-19-115-7-32 13-54 71-46 105 4 19 26 30 24 51-16 13-55 41-43 65 5 10 46 45 35 53-7 38-131 12-158 15-56 6-96 13-125 63-43 15-104 37-149 40-21 12-50 17-71 31-36 5-57 40-86 55-39 52-113 85-149 139a752 752 0 0 0-150 150c-10 4-29 25-34 34l-251 266-499 69c-86 11-166 41-247 64-73 20-137 40-196 89-15 12-26 30-42 44-33 31-88 72-115 107-5 2-8 5-12 9-7 0-4 2-15 2l-77-144c-23-13-45-42-71-55-55-74-118-166-126-261-14-25-9-61-27-84-40-60-52-142-103-200-53-59-40-163-91-207-36-32-93-56-121-94-29-39-70-111-75-161-4-6-6-15-7-22z"/>
		<path id="franklin" class="region5" d="m13651 13624c9 21 24 26 11 50-10 19-18 35-18 58l2 3c27 0 54-6 81-6 36 55 2 145 44 209 4 1 3 0 5 3 19 0 29-16 44-26 64-48 122-25 94 60-21 63-82 86-73 159l26 56c2 7 3 16 8 22 4 50 45 121 74 160 28 38 85 63 122 95 50 44 38 148 90 207 51 58 63 139 103 200 18 22 13 59 28 83 7 95 70 188 125 262 26 13 48 41 72 55l76 144-93 124 34 1265-2727-1 118-212 144-227c47-74 130-149 162-225 26-19 61-119 73-150 22-60 61-130 65-195l6-8 70-232c18-60 48-196 86-241 21-82 79-189 132-254l182-244c10-8 6-2 8-9 15-11 42-115 53-139 40-86 74-177 122-259l89-156c29-51 68-114 90-167 17-22 39-64 46-90 54-84 95-177 170-245l108-103 131-119z"/>
		<path id="fulton" class="region5" d="m11779 16807 119-212 144-228c46-73 129-149 161-225 26-19 62-119 73-150 23-59 62-130 65-194l6-8 71-233c18-59 48-195 85-240 21-82 80-189 132-254l182-244-98-88c-89-78-217-192-338-213-145-26-285-35-427-74-81-22-140-88-210-109-16-30-68-38-93-62l-22-2c-5 26-27 40-39 63-49 95-79 215-177 279-35 24-93 57-104 99-20 76 60 61 83 103 40 15 4 96-10 116-9 8-27 21-39 22-5 4-11 6-13 11-16 5-15 149-23 175-15 54-62 101-75 154-30 25-61 113-71 152-8 31-21 61-35 90-16 32-19 70-35 101-30 49-39 122-57 177-24 71-62 140-82 210-36 43-61 137-85 192l-88 205c-7 17-17 32-26 48-7 14-14 36-26 46-7 18-26 34-38 49-39 44-64 102-101 148l-41 96z"/>
		<path id="huntingdon" class="region5" d="m11677 11011 770 276 369-236 12-1c10-15 88-42 107-45 143-28 203 160 323 114 33-13 130-74 151-23 32 78 77 14 124-6l61-10c1 35 22 44-16 68-18 11-38 24-52 40-26 28-50 70-50 109 0 51 53 14 79 24 5 34-27 36-44 62s-53 72-79 89c-40 61-116 117-173 162-54 43-149 100-181 164-20 10-65 80-82 101-31 41-42 57-54 105-11 40-19 62-19 105 0 19 14 89 29 100 1 5 3 9 7 12 13 39 43 68 37 114-9 74-67 114-111 167l-167 199c-3 5-16 27-22 28-7 19-27 31-34 51-11 39 12 117 38 146 34 40 53 17 68 81 7 28 22 83 55 89 52 7 116 64 164 51 26-8 49-23 74-31 25-9 55-3 78-11l140-30 225 575-109 103c-75 68-115 160-170 245-6 26-29 68-45 90-22 53-62 116-91 166l-89 157c-47 82-82 173-121 259-11 24-38 128-53 139-3 7 1 1-8 9l-99-88c-89-78-217-192-338-213-144-26-285-35-427-74-81-21-140-88-209-109-17-30-69-38-94-62l-21-2-448-345c0-69-25-226-44-292-6-19-14-39-16-59-15-13-12-38-35-48l139-268 421-779c3-11 4-98-6-101-32-7-60 86-92 21-25-50 7-195 29-245 21-47 54-105 45-156-2 0-2-1-3 2-32 0-80 125-104 149-70 74-92-3-117-57-16-33-45-60-40-99 6-53 73-83 73-130 0-48 0-108 27-149-3-35-2-57-25-82-41-8-68-67-87-98-23-37-78-54-78-103 0-163 131-166 229-253 55-48 155-96 179-167z"/>
		<path id="juniata" class="region5" d="m13279 13075 239-307 339-344 2-157 511-371 2-157 847-464 650 84c34 16 100-58 128-78 35-25 46-5 62 28 36 72 128 53 196 48 105-8 84 10 121 89 110 10 53 35 99 109 16 25 73 29 100 29 50 2 70-49 110-49l101 44-34 38-175 76c-9 9-32 35-46 35-6 22-127 74-153 75-116 6-240 54-358 68-46 5-121 11-163 27-18 7-52 2-73 2-18 0-37 11-47 11 0 45 72 71 15 128l-515 241-896 537-137 99-3 141-95 23-472 451-131 120z"/>
		<path id="dauphin" class="region5" d="m17708 14507c18-55 45-133 89-170 22-2 47-10 71-12 28-21 59-38 87-63 40-35 100-13 142-59 31-35 81-76 128-84l117-32-477-1570 624-445-672-604-344 64c-28 3-46 28-82 27-25-1-32-2-56 3-28 33-85 89-130 91-52 2-93-16-140 18-84 61-199 134-289 41l-24-95-48 188c-2 71-87 88-126 133-40 47-24 71-18 132 5 42 17 73 17 118 0 67 3 112 58 156 22 18 53 35 71 57 12 13 38 64 49 69 5 55 20 55-20 99-42 46-111 77-164 117-56 41-20 111-44 166-20 26-31 43-62 59-48 25-96 51-69 116 39 96 53 158 172 158 51 0 99-14 149-14 38 0 56 16 87 27 14 25 34 48 45 78l16 77c2 23 2 63-13 81-3 33-17 55-11 91 6 33 24 65 33 97 10 9 17 32 27 43 38 43 70 99 115 136l92 121 88 25c10 18 25 48 38 66 33 40 111 20 152 65 38 43 68 58 120 75 150 49 38 225 119 313z"/>
		<path id="lebanon" class="region5" d="m18903 12397 870 715 134 53 248 250-721 338-421 68-671 266-477-1569 624-446z"/>
		<path id="mifflin" class="region5" d="m14973 10630v622l246 23-846 464-2 158-511 371-2 157-339 343-239 307-141 31c-23 8-53 2-78 11-25 8-48 23-73 31-48 13-113-44-165-52-33-5-48-60-54-88-15-64-34-41-69-81-25-29-49-107-37-146 6-20 27-32 34-51 5-1 19-23 21-28l167-200c44-52 102-92 112-166 6-46-25-75-38-114-3-3-6-7-7-12-15-11-28-81-28-100 0-43 7-65 18-105 12-48 24-65 55-105 16-21 61-91 82-101 32-64 126-121 180-164 58-45 133-101 174-162 26-17 61-63 78-89s49-28 44-62c-26-10-78 27-78-24 0-39 24-81 49-109 14-16 34-29 52-40 39-24 17-33 16-68l1379-696z"/>
		<path id="perry" class="region5" d="m16752 11617-47 187c-3 72-88 89-126 134-41 47-25 71-19 131 5 43 17 73 17 119 0 67 3 112 58 156 23 17 53 35 71 56 12 14 38 65 50 70 4 54 19 55-20 98-43 47-112 77-165 117-55 42-19 112-43 167-20 25-31 43-63 59-48 25-96 50-69 116 39 96 53 157 173 157 50 0 98-13 148-13 38 0 56 16 87 27 14 25 34 47 46 78l15 76-379 114-958 91c-100 18-201 76-300 99-101 23-104-46-142-112-23-39-78 36-94 48l-188 138c-100 73-96-51-29-101 41-30 196-172 169-220-114-16-215 122-303 183-28 19-95 53-111 78-128 97-260 288-436 288-4 3-8 2-12 6-72 6-127 199-201 217-4 5-6 5-13 9l-27-56c-9-73 52-96 73-159 29-85-29-108-94-61-14 11-25 27-43 27-2-3-2-2-5-3-43-65-8-154-45-209-27 0-54 5-80 5-1-1-1-2-3-2 0-23 9-39 19-58 12-24-3-30-11-50l-18-93 472-451 95-24 3-140 137-99 896-537 515-242c57-57-15-83-15-128 10 0 29-11 48-11 20 0 55 5 73-1 41-16 117-23 162-28 118-13 242-61 358-67 26-2 147-54 153-75 14 0 37-26 47-35z"/>
		<path id="york" class="region5" d="m17708 14507c4 5 6 9 11 11 5 9 27 32 36 38 8 20 26 43 42 60 14 16 23 35 35 53 15 22 32 47 51 66 19 20 42 42 57 64 99 70 153 57 269 82 55 12 100 32 159 32 51 0 76-43 131-37l8 5c31 50 20 119 57 172 70 98 87 145 115 261 29 123 71 178 180 241 77 62 196 107 289 138 38 85 19 212 67 284 28 42 69 76 98 120 30 45 45 89 86 130 5 5 6 8 12 11 10 21 40 44 55 63 32 40 60 95 105 120 68 36 96 134 136 195 34 52 58 130 65 191h-3255l-1-633 59-64c7-7 20-22 28-25 14-28 76-37 84-66 10-36-6-82-36-106-46-37-114-141-62-200 41-45 39-92 31-149-10-74-58-131-73-204-33-75-81-154-130-219-60-78-151-42-207-127-34-51-68-91-109-134-37-40-125-53-148-106l-11-6c6-9 25-30 34-34 28-37 113-131 151-150 36-55 110-87 149-139 29-15 50-50 85-55 21-14 50-19 71-31 46-3 107-25 150-40 29-50 69-57 124-63 27-3 152 23 159-15 10-8-31-43-36-53-11-24 28-52 43-65 3-21-19-32-23-51-9-34 13-92 45-105 30-12 83 14 116 7l98-52 88 25c10 18 25 48 38 66 33 40 111 20 152 65 38 43 68 58 120 75 150 49 38 225 119 313z"/>
		<path id="armstrong" class="region6" d="m4949 11401c23-19 64-34 84-53 128 0 122 110 197 181 14 14 35 22 40 45s13 103 56 81c36-19 38-51 80-43 24 39-44 166 39 166 18 0 81-32 89-7 2 9-45 77-52 88-38 36-21 84 18 112 28 21 44 69 77 93 47 33 112 41 159 72 27 17 34 57 56 80 33 35 39 0 63-9 6-15 33-19 47-20h59l1043-1374v-766l-2-801-139 59c-7 13-28 25-36 40-24 15-41 40-61 58-18 17-32 43-58 50-18 16-41 18-64 22-45 0-127 33-181 43-64 13-76 55-109 103-75 109-146-112-217-117-32-3-41 131-139 131-82 0-134-117-190-16-71 131-258-58-334 2-248 197-279-66-53-66 8-50-46-59-65-97-11-20 6-117-9-120l-2-6h-4l-2-5c-6 0-4 1-7-4l-192-26c-3-8-3-10-12-11-46-81-7-139-71-217-63-77-48-125-48-225 0-24-14-144 0-153 0-41 11-126-52-118z"/>
		<path id="beaver" class="region6" d="m2976 11379 11 314v36h-139l-766 765h-671v-2118l1530-3z"/>
		<path id="cambria" class="region6" d="m9881 12359c0 66 17 94-10 163-40 104-88 135-68 256 8 46 21 94 21 142 0 60 0 131 16 188-5 5-9 6-12 10-18 6-33 21-52 26-21 5-44 19-63 21-9 6-39 21-49 23-8 6-22 14-32 17-10 12-25 21-35 34l-44 104-80 59c-28 27-35 56-31 93 2 27 0 50-18 72-5 93 70 150-20 227h-957c-8-7-17-13-22-23-8-3-10-15-16-20-6-62-85-112-135-140-24-13-47-20-70-37h-533l24-84c24-32 31-72 59-101 23-23 39-56 61-77 48-47 88-109 127-163 20-28 50-82 76-102l16-36c7-6 8-18 7-26l700-1900h1946l-2 24c-12 17-20 57-31 77l-145 287c-21 42-44 91-98 84-28-4-114-19-114 25-15 26 4 75-2 104l2-1c-18 49 8 109-18 166a792 792 0 0 1-193 269c-80 75-164 136-206 239z"/>
		<path id="fayette" class="region6" d="m4196 14488c48 66 105 99 105 197 0 130-165 40-237 58-8 9-8 11-3 23 20 11 97 62 78 91-12 17-53 37-34 64 15 22 107 101 43 124-31 10-68 2-101 8-40 6-65 36-94 62-18 15-35 34-43 56-10 25-18 36-42 50h-12c-19-10-37-24-50-42-25-35-24-61-72-75-31-9-75-2-92 28 0 59 68 89 2 142l-78 45c14 53 0 94 37 140 20 1 32 7 55 5 41-4 71-28 115-28 37 0 77 52 96 83 32 49 65 60 70 126 5 7 11 24 2 31-3 32-37 46-8 83 21 26 49 52 50 89 3 70-100 20-52 118 27 53-46 53-29 106 12 36 55 50 63 92 15 81-12 97 59 159 37 33-84 61-96 99-4 30-25 58-21 90 6 63 79 53 114 80 29 22-3 65-5 91-20 24-27 94-27 125l1892-2h344c0-31 3-73-8-100-6-3-10-16-17-17-8-14-22-17-28-38-4-16 8-27 16-39 14-25 19-55 45-69 11-6 53-18 56-30 9-31-39-40-37-71 4-32 78-29 100-41 29-16 5-61 1-84-4-25 1-51-6-74-10-37-23-62-52-87-30-26-104-68-121-103-70-38-31-119-26-172l494-910-103-7h-93l-6-3c-48-53-16-111-45-171-26-54-129-63-171-115-26-32-73-63-106-89-51-40-96-76-132-133-43-69-141-108-211-66-45 29-95 43-140 70-37 45-81 84-136 102-65 22-90 81-139 121-29 24-61 25-86-6-57-9-78 29-127 23-46-5-77-54-110-83-79-67-136-35-228-55-18-24-58-54-84-71z"/>
		<path id="greene" class="region6" d="m3566 15319c14 54 0 94 37 140 20 1 32 7 55 5 41-3 71-28 115-28 37 0 77 53 96 83 32 49 65 61 70 126 5 8 11 24 1 31-2 32-36 47-7 83 21 27 49 52 50 89 3 70-100 21-52 118 27 54-46 54-29 106 12 37 55 50 63 92 15 82-12 97 59 159 37 34-84 61-96 99-4 31-25 58-21 91 6 62 79 53 114 79 29 22-3 65-5 91-20 24-27 94-27 126l-2578 2v-1391l90 6c3 6 9 12 12 19 41 16 50 44 94-3 38-41 80-102 135-121 38-13 77 6 116 3 70-4 103-79 161-106 26-13 57-8 85-13 40-8 68-29 106-41 61-10 74-61 122-95l17-1c3 2 5 1 8 4 10 1 14 13 23 15 24 25 50 68 83 77 65 15 111-82 181-29 52 40 89 53 151 27 36-15 64-59 107-26s56 94 110 116c97 41 142-20 231-43l74-45c29-18 46-14 77-11 10 8 21 9 30 20 0 34-24 83-13 114 16 44 60 14 90 9z"/>
		<path id="butler" class="region6" d="m4957 8573-8 2828-1973-22-34-1006-35-829 292-391 419-581z"/>
		<path id="indiana" class="region6" d="m5961 12187c0 58-10 95 2 154 18 84 5 82 92 95 34 4 35 59 62 77 24 17 47 14 69 42s59 102 107 83c38-14 26-85 57-117l8-1c17 7 29 87 52 110 41 41 45-34 75-42 81 61 140-62 152 34 13 110 0 77 84 77 33 0 37 74 48 98 34 77 98-57 172-32 34 12 49 32 73 55 36 37 68 30 115 45l80 3c3 2 4 3 8 3 46 46 30 63 109 63 133 0 16 55 42 126 17 45 53 57 94 41 38-16 46-61 76-87 52 0 82 47 133 17 39-24 70-63 78-108 12-70 25-114 104-109 70 4 82 68 133 91l55 80 700-1900v-1005l-1737-33v765z"/>
		<path id="somerset" class="region6" d="m9404 13793-320 854c4 20 4 37-3 57-6 19-16 30-25 46-7 2-52 42-55 48-10 5-19 21-27 30-12 11-19 22-28 36v1331l-216 611H6225c0-31 3-73-8-101-6-3-9-16-17-17-8-13-22-16-28-37-4-16 9-27 16-40 14-24 19-54 45-68 11-6 53-19 56-30 9-32-39-40-37-72 4-32 78-29 100-41 29-15 5-60 1-84-4-25 1-50-5-74-11-36-23-62-52-87-31-26-105-68-122-102-70-38-31-119-26-173l494-909 64-98c67-67 52-179 162-209 30-8 61-13 80-39 20-29 34-59 54-86 29-3 33-4 63 12 19 10 47 38 67 12 35-43 52-78 75-130v-146h77v-114h64c6-16 41-87 54-97 20-59 68-125 97-182 35-69 61-152 109-212 23-29 54-74 63-109h533c23 17 46 24 70 37 50 29 129 78 135 140 6 5 8 17 16 20 5 10 14 16 22 23z"/>
		<path id="washington" class="region6" d="m1411 15419 89 6 13 19c41 16 50 45 93-2 39-42 81-102 136-122 38-13 77 6 116 4 70-5 103-80 161-107 26-12 57-8 85-13 40-8 67-29 106-41 61-10 74-61 122-94l17-2 8 5c10 0 14 12 23 14 24 26 50 69 83 77 65 16 111-82 181-28 52 40 89 53 151 26 36-15 64-58 107-25 43 32 56 93 110 116 97 40 142-21 231-43l74-46c29-18 46-14 77-11 10 8 21 9 30 20 0 34-24 83-13 114 16 44 60 14 90 9l65 23 78-44c66-53-2-83-2-142 17-31 61-38 92-28 48 14 47 40 72 74 13 18 31 32 50 42h12c24-13 32-25 41-50 9-22 26-41 44-56 29-25 54-55 94-62 33-5 70 3 101-8 64-23-28-101-43-123-19-28 22-48 33-64 20-29-57-81-77-92-5-11-5-13 3-22 72-19 237 71 237-58 0-98-57-131-105-197l-58-29c-40-40-134-121-93-183 36-7 66-10 105-10 38 0 60 0 85-28 40-44-6-105-14-149l-106-2c-105 0-186-44-263-102-23-17-47-32-67-53-4-3-23-21-26-22-4-29-1-44 29-62 19-12 49-24 71-29 51-11 94-13 124-57l-1138-450-763-818h-671z"/>
		<path id="westmoreland" class="region6" d="m4196 14488h529c26 17 66 47 84 71 92 20 149-12 228 55 34 29 64 78 110 83 49 6 70-32 127-23 25 31 57 30 86 6 49-40 74-99 139-121 55-18 99-57 136-102 45-27 95-41 140-70 70-42 168-3 211 66 36 57 81 93 132 133 33 26 80 57 106 89 42 52 145 61 171 115 29 60-3 118 45 171l6 3h93l103 7 64-97c67-67 52-180 163-210 29-8 60-12 79-39 20-29 34-59 54-86 29-2 33-4 63 12 19 11 47 38 67 13 35-44 52-78 75-131v-145h77v-114h64c6-16 41-87 54-97 20-60 68-126 97-183 35-68 61-152 109-212 23-28 54-74 63-109l24-83c24-32 31-72 59-101 23-24 39-56 61-77 48-48 88-109 127-164 20-28 50-81 76-101l16-37c7-5 8-17 7-25l-55-80c-51-23-63-87-133-91-79-5-92 39-104 109-8 44-39 84-78 107-50 31-81-16-133-16-30 26-38 71-76 87-41 16-77 4-93-41-27-71 90-126-42-126-80 0-64-17-110-64-4 0-5 0-8-2l-80-3c-47-15-79-8-115-45-24-23-39-43-72-55-75-25-139 109-173 31-10-23-14-97-48-97-84 0-71 33-84-77-12-97-71 27-152-34-30 8-34 83-75 42-23-24-35-103-52-110l-8 1c-31 32-19 103-57 117-48 19-85-55-107-83s-45-25-69-42c-27-18-28-73-61-78-88-12-75-10-93-95-11-58-2-95-2-153h-59c-14 1-41 5-47 20-24 9-30 44-63 9-22-23-29-63-56-80-47-31-112-39-159-72-33-24-49-72-77-93-39-28-56-76-18-112 7-11 54-79 52-88-8-25-71 6-89 6-83 0-15-126-39-165-42-8-44 24-80 43-43 22-51-58-56-81s-26-31-40-45c-75-71-69-181-197-181-20 19-61 34-84 53l-3 69c0 22 8 35 16 53 7 14 8 17 8 31l-10 20c-6 9-14 15-19 23-8 4-13 13-21 19-7 6-15 12-21 19-16 16-32 31-43 50-55 110-200 90-257 180-57 91 10 176 94 202 66 20 94 43 144 89 18 17 28 54 46 67v470c-10 66-15 92-57 143-38 44-88 76-129 118-22 22-66 40-80 68-108 59 4 213-51 276-1 7-8 16-11 21-9 49-7 99 4 146 8 31 31 65 17 96-19 11-56 43-65 64-14 32 13 60 13 92 0 59-86 77-52 141 14 25 59 43 22 66-45 29-103 38-152 66-59 34-82 43-121 100 8 43 54 105 14 149-25 27-47 27-85 27-39 0-69 3-105 10-41 63 53 144 94 184z"/>
		<path id="cameron" class="region7" d="m11190 8241 642 75 431-861v-607l-268-2-665-811h-945v1232h721v468h88z"/>
		<path id="clarion" class="region7" d="M4957 8573c63-8 52 76 52 117-14 10 0 130 0 154 0 100-15 148 47 225 64 78 26 135 72 217 8 1 9 3 12 11l192 26c3 5 1 3 7 3l2 6h4l2 5c15 4-2 101 9 121 19 37 73 47 65 97-226 0-195 263 53 66 76-60 263 129 334-2 56-102 108 16 190 16 98 0 107-134 139-131 71 5 142 225 217 117 33-49 45-90 109-103 54-10 136-44 181-44 23-4 46-6 64-22 25-6 40-32 58-49 20-18 37-44 61-58 8-16 29-28 36-41l139-58V7100h-803v261h-341v294h-274v63h-298v295h-73v110h-96v256h-62v130h-98z"/>
		<path id="clearfield" class="region7" d="m11832 8316 199 377c-6 7-13 16-20 19-5 13-20 19-25 35-27 82-72 106-156 106-56 0-125-7-94 66l49 117c25 57 15 109 58 160 37 44 114 29 119 98-21 20-75 40-81 70-13 65 102 75 61 167-22 50-89 37-104 100-9 42-37 65 0 100 64 61-26 77-75 109-28 18-58 23-86 5-25-15-39-65-63-65-49 59-49 20-105 9-30-6-5 62-7 86-33 23-43 69-71 94-7 8-24 22-35 22-24 20-80 24-111 44-50 35-36 24-31 79 62 62-76 102-94 122-31 34-5 88-31 127-42 61-158 9-197 86-33 67-13 140-92 188-34 15-78 24-98 59-15 25-12 57-24 83-23 49-45 71-87 104-12 9-89 54-62 77 5 23 41 42 59 57l59 68H8741v-1006l-8-1281 186-408h224l267-102v-196l1780 149z"/>
		<path id="crawford" class="region7" d="M3618 6771v-52h83v-84h96v-44h65v-70h77v-78h72v-67h56v-53h76v-45h48v-36h66v-81h94v-122h252v37h691V4748H1411v2026l1644 49v-52z"/>
		<path id="elk" class="region7" d="M7505 7604c50-9 65-64 117-64 38 0 49 6 87-9 32-12 52-21 87-15 6 6 16 10 22 17 63 12 106-34 153-74 20-17 61-73 88-38 37 48 87 94 139 126 65 40 135 117 209 139l13 2c13 18 106 60 130 74 160 87 332 157 472 266v208h121v154l268-102v-196l1779 149 4-506h-88v-468h-721V6144h-258v-142H8073v1077h-69v-87h-392v148h-108z"/>
		<path id="forest" class="region7" d="M7002 7691c9-9 21-4 33-4 0 3 1 3 4 3 9 12 44 10 56 2 19-13 57-81 83-71 30 12 35 56 72 54 25-1 32-44 62-48 47-7 55 36 80 68 46 57 59-15 74-54l38-37v-464h108v-148h392v87h69V6003l-2349 1v912h-31v149h168l-3 296h341v-261h803z"/>
		<path id="jefferson" class="region7" d="m7002 9246 2 800 1737 33-7-1281 186-407h223v-155h-121v-208c-140-109-312-179-472-266-24-13-117-55-130-74l-13-2c-74-22-144-99-209-139-52-32-102-78-139-126-27-35-68 21-88 38-47 40-90 86-153 74-6-7-16-10-22-17-35-5-55 3-87 16-38 14-49 8-87 8-52 0-67 55-117 64l-39 37c-15 39-28 111-74 54-25-31-33-75-80-68-30 4-37 47-62 48-37 2-41-42-72-54-26-10-64 58-83 71-12 8-47 10-56-2-3 0-3 0-4-3-12 0-24-5-33 4z"/>
		<path id="lawrence" class="region7" d="m1411 10375 1531-3-35-829 292-391-218-255-498-68H1411z"/>
		<path id="mckean" class="region7" d="M8073 6003h2054v141h258v-109h945l1-2172H8241v946h-165z"/>
		<path id="mercer" class="region7" d="m3618 8573-419 580-218-255-498-69H1411V6774l1644 49v-52h562z"/>
		<path id="venango" class="region7" d="m3618 8573h1339v-64h98v-130h62v-256h96v-110h73v-295h298v-63h274v-294l3-297h-168v-149h31v-911h-430v72h-691v-37h-252v122h-94v81h-66v36h-48v45h-76v53h-56v67h-72v78h-77v70h-65v44h-96v84h-83v52z"/>
		<path id="warren" class="region7" d="M5294 6004h430l2349-2 3-1193h165v-946H5290l4 885z"/>
		<path id="bradford" class="region8" d="m20167 3846 138 2042-363 2-92 570-2527-237-265-48-248-2330 80-4 2757-7z"/>
		<path id="centre" class="region8" d="m10687 11085 990-73 770 276 368-236 12-1c11-16 89-42 108-46 143-28 202 161 323 115 33-13 129-74 151-23 32 78 76 14 124-6l61-11 1378-695 411-423 160-261 335-389-915 329-644 115-264-401c-7-13-26-26-31-39l-12-34c-9-27 21-39 37-51 6-5 13-12 19-13l4-3c6-12 15-16 6-31-4-7-21-14-28-17-12-5-21-5-32-14l-349-223c-14-5-41-8-57-8-22-12-55-2-74-11-63 0-127 14-192 11-21-1-42-9-63-9l-235-398h-428v-362c-73 31-106 144-162 190-79 0-113-55-134 67-18 103 25 130-72 199-36 26-36 94-69 110-16 8-47 12-56-8-33-18-29-60-83-19l-14 1c-5 8-12 17-19 20-5 12-20 18-25 34-27 82-72 106-156 106-56 0-125-7-94 66l49 117c25 58 15 110 58 161 37 44 114 28 119 98-21 19-75 40-81 69-13 66 102 76 61 167-22 50-89 37-104 101-9 42-37 64 0 100 64 60-26 76-75 108-28 18-58 23-86 6-25-16-39-66-63-66-49 59-49 20-105 9-30-6-6 62-7 86-33 23-43 69-71 94-7 9-24 22-35 22-24 21-81 24-111 45-50 34-36 23-32 78 63 63-75 102-94 123-30 33-4 88-31 127-41 61-157 8-196 86-33 67-13 140-92 187-34 16-78 25-98 60-15 24-12 56-24 83-23 49-46 70-87 103-12 9-89 54-62 78 5 23 41 41 58 56z"/>
		<path id="clinton" class="region8" d="m12031 8693 14-1c54-42 49 0 82 18 10 21 41 16 57 9 32-16 32-84 68-110 97-70 54-97 72-199 22-123 55-67 134-67 56-46 89-160 163-190v362h428l234 397c22 1 43 8 64 9 65 4 128-11 192-11 19 10 52 0 74 11 15 0 42 4 57 9l349 223c11 8 19 8 32 13 7 3 24 11 28 18 8 15-1 18-7 31l-3 3c-7 1-14 8-19 12-17 13-46 25-38 52l13 33c5 13 23 26 30 40l265 401 644-115 915-329 3-169-99-5c-9-3-20-13-25-21-19-5-48-52-60-69-19-26-34-55-52-83-10-16-29-39-32-55l-161-199c-38-47-78-136-121-169-48-36-56-39-72-98-17-63-78-85-113-133-96-11-254-31-295-142-107-142-297-236-360-405l-52-140c-10-27-28-37-41-57-28-3-59-27-90-29-67-28-114-35-135-111-14-49-19-100-47-144-46-75-110-111-128-204l-8-5c-3 0-8-3-10-6-25 0-36-26-50-30v-190h-1668v607l-431 861z"/>
		<path id="columbia" class="region8" d="m18061 8678c0 11 1 36 6 44 0 32 16 64 26 94 13 12 15 65 15 84l3 108c16 38 15 74 24 112 11 48 34 49 67 74 31 0 76 25 109 32 98 19 35 230 53 300 22 29 37 64 64 88 38 34 76 76 109 115 31 37 89 71 51 121-55 16-62 70-55 120 3 23 12 45 12 68 0 27-14 52-14 81l-4 97c28-3 119-21 119 9-22 16-36 67-18 90 24 33 22 45 12 84-9 36-19 153 41 144 31-5 60-25 91-30 57-8 103 2 160-19 21-7 88-41 107-30 6 3 65 210 65 236l60 110 311-148 87-440 340-391-97-552v-501h-205l-169-393 30-583h-417l-177 177-634 699z"/>
		<path id="lycoming" class="region8" d="m13931 7038c14 4 25 30 50 30 2 3 7 6 10 6l7 5c19 93 83 129 129 204 28 44 33 95 47 144 21 76 68 83 135 111 31 2 62 26 90 29 13 20 31 30 41 57l52 140c62 169 253 263 360 405 41 111 199 131 295 142 35 48 96 70 113 133 16 59 24 63 72 98 43 33 83 122 121 169l160 199c4 16 23 39 33 55 18 28 33 57 52 83 12 17 41 64 60 69 5 8 16 18 25 21l99 5 182 1 159-96h372l76-325 278 19c25-9 39-36 54-56 62-82 123-60 210-60 36-20 86-27 119-51 27-2 55-13 83-15 72-7 168-5 240 5 21 4 42 13 63 20 15 6 39 16 49 28 9 2 22 15 30 21 14 11 36 21 53 28 9 4 20 8 31 8 11 1 33 2 45 6l135 2h173l633-699-639-179-657-561-248-1016-264-48-116 54c-23 12-49 38-73 44-19 23-57 39-80 59-23 22-50 43-74 62-21 16-32 34-59 42l-2726 38v374z"/>
		<path id="montour" class="region8" d="m18061 8678c0 11 1 36 6 44 0 32 16 64 26 94 13 12 15 65 15 84l3 108c16 38 15 74 24 112 11 48 34 49 67 74 31 0 76 25 109 32 98 19 35 230 53 300 22 29 37 64 64 88 38 34 76 76 109 115 31 37 89 71 51 121-55 16-62 70-55 120 3 23 12 45 12 68 0 27-14 52-14 81l-4 97h-36l-19-2c-7-2-9 0-16-3-6-3-17-8-21-15l-6-2c-4-8-10-15-11-24l-4-36c-3-35-48-60-48-101 0-37 14-75 19-112 11-88-151-40-203-72-36-23-53-107-100-111-47-3-60 20-104-11-36-26-108 11-145 27-151 62-309 82-466 82v-2c15-10 60-136 70-161 27-72 52-100 46-184 31-96 37-193 86-284 15-28 22-67 43-92 7-29 28-55 34-86l8-462c21 4 42 13 63 20 16 6 39 16 49 29 9 1 23 14 30 20 15 11 37 21 53 28 10 4 20 8 31 8 12 1 34 2 45 6z"/>
		<path id="northumberland" class="region8" d="m19164 10809-1348 659-344 64c-28 3-46 28-81 26-25 0-33-2-56 3-28 34-85 89-130 91-53 3-93-15-141 19-84 61-198 134-288 41l-24-95 107-122c14-18 36-52 57-64 12-22 38-42 55-60 24-24 41-48 63-73 42-46 82-95 111-150v-418c5-25 7-57 18-80 9-20 29-45 35-65 15-11 39-54 51-71 18-26 42-48 58-75 10-17 29-25 38-46 5-4 9-15 12-21v-204h-69l-47-63-4-6c-109-80-282-356-192-489 26-38 72-98 39-144 0-60 28-110 35-169 5-35 22-115 3-147 0-9-5-26-12-32-4-10-15-14-20-24-131-88-141-208-141-352 24-9 38-37 53-57 63-82 123-59 210-59 37-21 86-28 120-51 27-2 54-13 82-16 72-6 168-4 240 6l-8 461c-6 31-27 57-34 87-21 25-28 63-43 91-49 91-55 189-87 284 7 85-18 112-45 184-10 26-55 151-70 162v2c157 0 315-20 466-83 37-15 109-53 145-27 44 31 57 8 104 12s64 88 100 111c51 32 214-16 203 72-5 37-19 74-19 111 0 41 45 66 48 102l4 35c1 10 7 16 11 24l6 3c4 7 15 11 21 14 7 4 9 2 16 3 6 1 12 3 19 3l36-1c28-2 119-21 119 9-22 16-36 68-18 91 24 32 22 44 12 84-9 36-19 153 41 143 31-5 59-24 91-29 57-9 103 1 160-19 21-8 88-42 107-30 5 3 65 209 65 235z"/>
		<path id="potter" class="region8" d="m11330 6035 664 811 268 2h1668v-374l-40-2611h-2559z"/>
		<path id="snyder" class="region8" d="m14973 10630 1312-364c20 7 74 46 84 63 80 0 96-77 177-68 66 7 131-46 187-74 83-43 155 23 247 2 80-17 143-9 224-15l85-5h68v204c-3 6-6 17-12 21-8 21-27 29-37 46-16 27-41 49-58 75-13 17-36 60-52 71-6 20-25 45-34 65-11 23-13 55-18 80v418c-30 55-69 104-111 150-22 25-39 49-63 73-18 18-44 38-55 60-21 12-43 46-57 64l-74 83-100-43c-40 0-61 51-111 49-26-1-84-5-99-29-47-75 10-99-100-109-36-80-16-98-120-90-68 6-160 25-196-47-17-33-27-54-62-28-29 20-94 93-128 77l-651-84-246-23z"/>
		<path id="sullivan" class="region8" d="m17323 6223 248 1016 657 561 639 179 177-177h417l132-408 257-934z"/>
		<path id="tioga" class="region8" d="m13931 6474 2726-38c27-8 38-26 59-42 24-19 52-40 75-62 22-20 60-36 79-59 24-6 50-32 73-44l116-54-248-2330-314 18h-2606z"/>
		<path id="union" class="region8" d="m16949 8742c0 145 10 265 141 352 5 10 16 14 21 25 6 6 11 23 11 32 19 32 2 111-2 147-8 58-36 108-36 168 34 46-12 106-38 144-91 134 82 409 191 489l4 7 47 63-84 4c-81 7-145-2-224 16-92 20-164-45-247-3-56 29-122 81-187 74-82-9-98 69-177 69-10-18-64-57-84-63l-1312 363v-244l410-424 160-260 336-389 2-169h183l159-95h372l76-325z"/>
		<path id="carbon" class="region9" d="m22491 10753c6-4 15-8 20-14 29-7 66-32 97-43 59-21 118-33 180-47 26-6 59-8 86-10 30-3 60-12 90-14 7-6 4-5 9-5l75-18-53-144c-30-34-72-102-93-141l-83-150c-46-85-98-178-127-268-23-69-26-65 33-94 49-24 90-73 116-118 29 0 107-45 110-79 3-42-51-91-81-110-69-86-163-170-206-274-44-109-136-167-199-260-16-23-145-82-137-97l-72-52-26-28c-16-3-30-23-50-15-26 9-49 28-72 43-49 30-86 88-135 113-98 49-213 74-196 212 9 82 24 116 74 177 73 7 114 190 22 200-121 73-255 115-376 183l-346 198c-64 36-212 71-263 114-8 1-31 11-37 17-6 1-13 7-18 10l356 463 662 539c13-5 25-14 37-18 47-44 111-76 158-123 25-10 48-37 75-49 44-20 80-46 127-60l146-41z"/>
		<path id="lackawanna" class="region9" d="m21980 5894 1132 6 80 2188c-13 16-29 19-46 28-17 10-40 10-56 19l-35 16c-18 7-38 15-53 26-6 4-12 15-18 17l-7 12-74 58c-10 17-22 34-36 48-19 0-32-14-43-28-12-17-19-21-39-21-47 0-65 65-90 95l-1 2c-20 29-38 61-59 90-15 21-24 55-32 79-7 6-10 17-19 23l-19 15c-18 14-27 29-42 46l-48-37a72 72 0 0 0-40-15c-8-1-38-2-44 2-15 0-25-2-38-4l-4-3c-7-8-19-15-23-26-5-11-8-22-9-34v-359c-6-13-15-46-32-48-6-10-28-14-38-20-14-10-30-22-45-31-30-18-31-77-39-106-7-22-16-40-25-61-13-29-26-46-16-80 8-29 45-181-14-181-16-14-84-2-108-3-39-1-80-19-107-48a625 625 0 0 0-184-146 719 719 0 0 1-140-80c-20-5-37-24-60-28l6-172 58-117c62-50 92-132 134-196 40-58 118-138 39-201-45-35-78-42-62-105 5-3 9-11 14-13 3-6 7-9 11-14 23-45 54-77 67-128 13-54 2-96 31-145 17-30 56-74 63-106 20-18 42-84 58-110s57-72 52-104z"/>
		<path id="lehigh" class="region9" d="m22491 10753c-24 99-3 249 98 290 47 18 73 65 123 76 36 9 77-77 89-102l11-2c43 129 112 285 183 408 47 82 63 106 146 49 69-48 112-74 162 17 27 68 107 73 118 144 5 34 5 76 5 111 0 53-10 60-30 106-66 49 13 97 37 129 22 9 56 42 76 59l72 59 76 60-319 274-317 407-193-161-1546-1305 363-175 206-156c13-5 25-14 37-18 47-44 111-76 158-123 25-10 48-37 75-49 44-20 79-46 127-60l146-41z"/>
		<path id="luzerne" class="region9" d="m22328 8867 195-254-47-37a72 72 0 0 0-40-15c-9-1-39-2-45 2-14 0-25-2-37-4l-5-3c-7-8-19-15-23-26s-8-22-9-34v-359c-5-13-14-46-32-48-5-10-27-14-37-20l-46-31c-30-18-31-77-39-106-6-22-16-40-25-61-13-29-26-46-15-80 7-29 44-181-15-181-16-14-84-2-108-3-39-1-79-19-106-48a625 625 0 0 0-185-146 719 719 0 0 1-139-80c-21-5-37-24-60-28l5-172-721 238-1201 23-132 408-29 583 169 393h204v501l98 552 772 276 158-68c5-3 13-9 19-10 5-6 28-16 36-17 51-43 199-78 263-115l347-197c120-68 255-110 376-183 91-10 50-193-22-200-51-62-66-95-75-177-16-138 98-163 196-212 49-25 86-84 135-113 24-15 46-34 72-43 20-8 34 12 50 15l26 28z"/>
		<path id="monroe" class="region9" d="m24564 9741c-47 51-181 98-242 135-44 27-73 47-125 52-28 23-76 83-105 97-122 185-234 297-443 383l-213 88c-43 20-98 29-144 39-48 11-92 22-139 39-26 9-65 23-92 23-4 3-6 3-13 5l-53-144c-30-34-72-102-93-141l-82-150c-47-85-99-178-128-269-23-68-26-64 33-93 49-24 90-73 116-119 29 0 108-44 110-78 3-42-51-91-81-110-69-86-163-170-206-274-44-109-136-167-199-260-16-23-145-82-137-97l195-254c15-16 24-32 42-46l19-15c10-6 12-17 19-23 9-24 17-58 32-79 21-29 39-61 59-90l1-1c25-31 43-96 90-96 20 1 27 5 39 21 11 15 24 28 43 28 14-14 26-31 37-48l73-58h694l864-91-109 591 348 33 186 339 156-10c-2 13-1 23 5 26 44 26 124-52 142-13 32 71-143 74-188 125-73 83-46 149-155 219-122 78-396 155-356 315z"/>
		<a id="a-northampton" class="state" aria-hidden="true" xlink:href="#?county=NORTHAMPTON"></a>
		<path id="northampton" class="region9" d="m24564 9741c-47 51-181 98-242 135-44 27-73 47-125 52-28 23-76 83-105 97-122 185-234 297-443 383l-213 88c-43 20-98 29-144 39-48 11-92 22-139 39-26 9-65 23-92 23-4 3-6 3-13 5l-75 17c-5 0-1 0-9 6-29 1-60 11-90 14-27 2-60 4-86 10-62 14-121 26-180 47-30 11-68 36-97 43-4 6-14 10-20 14-24 99-3 248 99 290 46 18 72 65 122 76 36 9 77-77 89-102l11-2c43 129 112 285 183 408 47 82 63 106 146 49 69-48 112-74 162 17 27 68 107 73 118 144 5 34 5 76 5 111 0 52-10 59-30 106-66 49 13 97 38 129 21 9 55 42 75 59l72 59 76 60c31-12 69-61 94-84 49-43 97-91 151-128 39-27 107-94 152-103 44-41 173-49 215-81 22-18 57-44 30-81-3-3-2-9-6-12-30-25-48-76-33-106 15-28 110-90 86-124-27-37-96-14-114-65-16-43-6-80 29-117 69-73 91-99 23-181-80-97 62-84 75-170 13-90 71-40 126-22 56 18 67-24 92-62 20-32 59-23 84-47 25-25 10-54 19-83 13-41 66-67 57-107-7-39-92-79-45-121 48-42 194 39 205-84 10-110-109-89-113-191-1-18 8-36 5-54-7-28-31-49-50-72-34-42-81-71-106-123-10-23-10-46-19-68-10-26-11-52-26-77-12-19-20-37-24-54z"/>
		<a id="a-pike" class="state" aria-hidden="true" xlink:href="#?county=PIKE"></a>
		<path id="pike" class="region9" d="m24827 6136-98 111c-8 21-32 63-49 78-10 18-19 40-33 54-17 34-37 79-63 107-23 56-60 115-93 165-37 57-58 126-96 182l-134 214c-39 62-117 115-190 115-60 61-57 100-77 185-24 99-80 107-171 88-52-12-75 38-108 31-20-4-32-25-51-25-22 0-40 27-61 36-35 7-1 67 11 80 21 22 10 64 29 78 19 13 42 9 61 17 82 36 8 179-17 238s-13 111-64 161c-29 30 6 50 19 77 23 10 35 55 29 78l864-91-109 591 348 33 186 339 156-10c7-39 43-108 63-115 32-10 75 2 109-12 45-19 112-59 137-99l71-113c52-83 232-291 199-375-20-53-5-162 35-188 88-58 53-221 184-274 102-42 33-119 135-132 43-6 71-104 145-128 41-14 198-37 238-87 15-18 14-38-10-63-73-72-37-46-66-122-17-44-111 9-122-64-3-21 50-141 3-152-15-3-44 28-56 31-24 6-58-16-86-5-25 9-90 92-95-8-1-28-17-129-67-84-34 30-13 76-83 71-62-4-63-80-107-100-36-16-156 90-179 33-13-32 34-119-13-119-116 0-101-117-160-126-16-2-55 33-90 33-53 0-78-1-109-35-21-23-65-136-79-164-17-35-86-98-100-132-26-63 37-117-26-174-51-46-92-121-149-166-17-13-17-36-11-63z"/>
		<a id="a-susquehanna" class="state" aria-hidden="true" xlink:href="#?county=SUSQUEHANNA"></a>
		<path id="susquehanna" class="region9" d="m23013 3857 99 2044-1132-7-1675-6-138-2042 520 13 1343-18 555-4 163 21z"/>
		<path id="wayne" class="region9" d="m24827 6136-98 111c-8 21-32 63-49 78-10 18-19 40-33 54-17 34-37 79-63 107-23 56-60 115-93 165-37 57-58 126-96 182l-134 214c-39 62-117 115-190 115-60 61-57 100-77 185-24 99-80 107-171 88-52-12-75 38-108 31-20-4-32-25-51-25-22 0-40 27-61 36-35 7-1 67 11 80 21 22 10 64 29 78 19 13 42 9 61 17 82 36 8 179-17 238s-13 111-64 161c-29 30 6 50 19 77 23 10 35 55 29 78h-694l7-12c5-2 12-13 18-17 15-11 35-19 53-26l35-16c16-9 39-9 56-19 17-9 33-12 46-28l-80-2187-99-2044 522-1c17 4 33 8 47 16 69 39 26 183 97 189 63 4 49 45 80 82 47 55 89-31 113-24 31 9 19 98 22 130 5 47 69 137 42 174-81 112 50 77 40 142-5 37-35 70 6 93s51-46 104-2c44 37 66-76 146-51 49 16 48 30 98-3 40-27 29 80 59 104 12 10 89 12 107 13 136 7 98 81 137 175 22 51 120 20 152 51 67 67-114 117-124 148-40 120 220 79 211 196-8 105 51 127 51 184 0 83-108 46-104 97 4 35 54 80 68 119 20 58-26 97-16 154 6 38 30 117 16 155-9 23-48 86-60 138z"/>
		<path id="wyoming" class="region9" d="m19593 7394 1201-23 721-238 58-117c62-50 92-132 134-196 39-58 118-138 39-201-45-35-78-42-62-105 5-3 9-11 14-13 3-6 7-9 11-14 23-45 54-77 67-128 13-54 2-96 31-145 17-30 56-74 63-106 20-18 42-84 58-110s57-72 52-104l-1675-6-363 2-92 570z"/>
	</g>
</svg>
